<?xml version="1.0" encoding="UTF-8" standalone="no"?>
<!DOCTYPE svg PUBLIC "-//W3C//DTD SVG 1.1//EN"
"http://www.w3.org/Graphics/SVG/1.1/DTD/svg11.dtd">
<svg viewBox="0 0 909 1286" version="1.1" xmlns="http://www.w3.org/2000/svg" xmlns:xlink="http://www.w3.org/1999/xlink">
<defs>
<style type="text/css"><![CDATA[
.g0_121{
fill: none;
stroke: #000000;
stroke-width: 0.73333335;
stroke-linecap: round;
stroke-linejoin: round;
}
.g1_121{
fill: #1A1A1A;
}
.g2_121{
fill: none;
stroke: #5C5C5C;
stroke-width: 1.1;
stroke-linecap: round;
stroke-linejoin: round;
}
.g3_121{
fill: #5C5C5C;
}
.g4_121{
fill: none;
stroke: #1A1A1A;
stroke-width: 1.1;
stroke-linecap: round;
stroke-linejoin: round;
}
.g5_121{
}
.g6_121{
fill: #FFFFFF;
}
]]></style>
</defs>
<g fill="#000000" >
<use xlink:href="#f0_12" transform="matrix(10,0,0,10,57,132.2)" />
<use xlink:href="#f0_2b" transform="matrix(10,0,0,10,67.3,132.2)" />
<use xlink:href="#f0_2b" transform="matrix(10,0,0,10,75,132.2)" />
<use xlink:href="#f0_28" transform="matrix(10,0,0,10,82.9,132.2)" />
<use xlink:href="#f0_21" transform="matrix(10,0,0,10,87.1,132.2)" />
<use xlink:href="#f0_1x" transform="matrix(10,0,0,10,93.7,132.2)" />
<use xlink:href="#f0_2a" transform="matrix(10,0,0,10,100.7,132.2)" />
<use xlink:href="#f0_21" transform="matrix(10,0,0,10,110.9,132.2)" />
<use xlink:href="#f0_2k" transform="matrix(10,0,0,10,117.9,132.2)" />
<use xlink:href="#f0_2c" transform="matrix(10,0,0,10,125.2,132.2)" />
<use xlink:href="#f0_2e" transform="matrix(10,0,0,10,132.9,132.2)" />
<use xlink:href="#f0_21" transform="matrix(10,0,0,10,137.9,132.2)" />
<use xlink:href="#f0_2f" transform="matrix(10,0,0,10,144.8,132.2)" />
<use xlink:href="#f0_2f" transform="matrix(10,0,0,10,150.5,132.2)" />
<use xlink:href="#f0_25" transform="matrix(10,0,0,10,156.6,132.2)" />
<use xlink:href="#f0_2b" transform="matrix(10,0,0,10,160.8,132.2)" />
<use xlink:href="#f0_2a" transform="matrix(10,0,0,10,168.3,132.2)" />
<use xlink:href="#f0_22" transform="matrix(10,0,0,10,178.8,132.2)" />
<use xlink:href="#f0_2b" transform="matrix(10,0,0,10,183.9,132.2)" />
<use xlink:href="#f0_2e" transform="matrix(10,0,0,10,191.6,132.2)" />
<use xlink:href="#f0_1e" transform="matrix(10,0,0,10,199.7,132.2)" />
<use xlink:href="#f0_11" transform="matrix(10,0,0,10,210.5,132.2)" />
<use xlink:href="#f0_1e" transform="matrix(10,0,0,10,221.3,132.2)" />
<use xlink:href="#f0_14" transform="matrix(10,0,0,10,232.3,132.2)" />
<use xlink:href="#f0_23" transform="matrix(10,0,0,10,246,132.2)" />
<use xlink:href="#f0_1x" transform="matrix(10,0,0,10,253.7,132.2)" />
<use xlink:href="#f0_2g" transform="matrix(10,0,0,10,260.5,132.2)" />
<use xlink:href="#f0_21" transform="matrix(10,0,0,10,264.4,132.2)" />
<use xlink:href="#f0_g" transform="matrix(10,0,0,10,271.3,132.2)" />
<use xlink:href="#f0_25" transform="matrix(10,0,0,10,278.1,132.2)" />
<use xlink:href="#f0_2f" transform="matrix(10,0,0,10,282.2,132.2)" />
<use xlink:href="#f0_1p" transform="matrix(10,0,0,10,291,132.2)" />
<use xlink:href="#f0_x" transform="matrix(10,0,0,10,305.1,132.2)" />
</g>
<path d="M319.6,117.3h26.2" class="g0_121" />
<g fill="#000000" >
<use xlink:href="#f0_12" transform="matrix(10.1,0,0,10.1,336.6,132.2)" />
<use xlink:href="#f0_i" transform="matrix(10.1,0,0,10.1,331.7,132.2)" />
<use xlink:href="#f0_11" transform="matrix(10.1,0,0,10.1,319.4,132.2)" />
<use xlink:href="#f0_1x" transform="matrix(10,0,0,10,352.6,132.2)" />
<use xlink:href="#f0_2a" transform="matrix(10,0,0,10,359.5,132.2)" />
<use xlink:href="#f0_20" transform="matrix(10,0,0,10,366.9,132.2)" />
<use xlink:href="#f0_25" transform="matrix(10,0,0,10,377.5,132.2)" />
<use xlink:href="#f0_2f" transform="matrix(10,0,0,10,381.7,132.2)" />
<use xlink:href="#f0_2e" transform="matrix(10,0,0,10,390.1,132.2)" />
<use xlink:href="#f0_21" transform="matrix(10,0,0,10,395.3,132.2)" />
<use xlink:href="#f0_1x" transform="matrix(10,0,0,10,402.2,132.2)" />
<use xlink:href="#f0_20" transform="matrix(10,0,0,10,409,132.2)" />
<use xlink:href="#f0_1x" transform="matrix(10,0,0,10,419.5,132.2)" />
<use xlink:href="#f0_2f" transform="matrix(10,0,0,10,426.3,132.2)" />
<use xlink:href="#f0_1p" transform="matrix(10,0,0,10,435.1,132.2)" />
<use xlink:href="#f0_21" transform="matrix(10,0,0,10,57,157.5)" />
<use xlink:href="#f0_2d" transform="matrix(10,0,0,10,64,157.5)" />
<use xlink:href="#f0_2h" transform="matrix(10,0,0,10,71.7,157.5)" />
<use xlink:href="#f0_1x" transform="matrix(10,0,0,10,79.4,157.5)" />
<use xlink:href="#f0_28" transform="matrix(10,0,0,10,86.4,157.5)" />
<use xlink:href="#f0_2f" transform="matrix(10,0,0,10,90.4,157.5)" />
<use xlink:href="#f0_11" transform="matrix(10,0,0,10,99.7,157.5)" />
<use xlink:href="#f0_1x" transform="matrix(10,0,0,10,113.7,157.5)" />
<use xlink:href="#f0_2a" transform="matrix(10,0,0,10,120.6,157.5)" />
<use xlink:href="#f0_20" transform="matrix(10,0,0,10,128,157.5)" />
<use xlink:href="#f0_12" transform="matrix(10,0,0,10,140.1,157.5)" />
<use xlink:href="#f0_2a" transform="matrix(10,0,0,10,154.6,157.5)" />
<use xlink:href="#f0_21" transform="matrix(10,0,0,10,162.1,157.5)" />
<use xlink:href="#f0_23" transform="matrix(10,0,0,10,169,157.5)" />
<use xlink:href="#f0_1x" transform="matrix(10,0,0,10,176.4,157.5)" />
<use xlink:href="#f0_2g" transform="matrix(10,0,0,10,183.3,157.5)" />
<use xlink:href="#f0_21" transform="matrix(10,0,0,10,187.6,157.5)" />
<use xlink:href="#f0_20" transform="matrix(10,0,0,10,194.7,157.5)" />
<use xlink:href="#f0_i" transform="matrix(10,0,0,10,202.2,157.5)" />
<use xlink:href="#f0_1c" transform="matrix(10,0,0,10,57,182.8)" />
<use xlink:href="#f0_2b" transform="matrix(10,0,0,10,66.2,182.8)" />
<use xlink:href="#f0_23" transform="matrix(10,0,0,10,74.1,182.8)" />
<use xlink:href="#f0_25" transform="matrix(10,0,0,10,81.6,182.8)" />
<use xlink:href="#f0_1z" transform="matrix(10,0,0,10,86,182.8)" />
<use xlink:href="#f0_1x" transform="matrix(10,0,0,10,93,182.8)" />
<use xlink:href="#f0_28" transform="matrix(10,0,0,10,99.7,182.8)" />
<use xlink:href="#f0_2f" transform="matrix(10,0,0,10,108.7,182.8)" />
<use xlink:href="#f0_2l" transform="matrix(10,0,0,10,114.8,182.8)" />
<use xlink:href="#f0_29" transform="matrix(10,0,0,10,122.1,182.8)" />
<use xlink:href="#f0_1y" transform="matrix(10,0,0,10,133.7,182.8)" />
<use xlink:href="#f0_2b" transform="matrix(10,0,0,10,141.4,182.8)" />
<use xlink:href="#f0_28" transform="matrix(10,0,0,10,149.1,182.8)" />
<use xlink:href="#f0_2b" transform="matrix(10,0,0,10,158,182.8)" />
<use xlink:href="#f0_22" transform="matrix(10,0,0,10,165.9,182.8)" />
<use xlink:href="#f0_1e" transform="matrix(10,0,0,10,175.3,182.8)" />
<use xlink:href="#f0_11" transform="matrix(10,0,0,10,186.6,182.8)" />
<use xlink:href="#f0_1e" transform="matrix(10,0,0,10,197.5,182.8)" />
<use xlink:href="#f0_14" transform="matrix(10,0,0,10,208.5,182.8)" />
<use xlink:href="#f0_23" transform="matrix(10,0,0,10,224.2,182.8)" />
<use xlink:href="#f0_1x" transform="matrix(10,0,0,10,231.7,182.8)" />
<use xlink:href="#f0_2g" transform="matrix(10,0,0,10,238.7,182.8)" />
<use xlink:href="#f0_21" transform="matrix(10,0,0,10,243.1,182.8)" />
<use xlink:href="#f0_25" transform="matrix(10,0,0,10,254.3,182.8)" />
<use xlink:href="#f0_2f" transform="matrix(10,0,0,10,258.7,182.8)" />
<use xlink:href="#f0_2f" transform="matrix(10,0,0,10,269.3,182.8)" />
<use xlink:href="#f0_24" transform="matrix(10,0,0,10,275,182.8)" />
<use xlink:href="#f0_2b" transform="matrix(10,0,0,10,282.7,182.8)" />
<use xlink:href="#f0_2j" transform="matrix(10,0,0,10,290.6,182.8)" />
<use xlink:href="#f0_2a" transform="matrix(10,0,0,10,301,182.8)" />
<use xlink:href="#f0_25" transform="matrix(10,0,0,10,313.3,182.8)" />
<use xlink:href="#f0_2a" transform="matrix(10,0,0,10,317.5,182.8)" />
<use xlink:href="#f0_22" transform="matrix(10,0,0,10,330,182.8)" />
<use xlink:href="#f0_25" transform="matrix(10,0,0,10,335.1,182.8)" />
<use xlink:href="#f0_23" transform="matrix(10,0,0,10,339.2,182.8)" />
<use xlink:href="#f0_2h" transform="matrix(10,0,0,10,346.9,182.8)" />
<use xlink:href="#f0_2e" transform="matrix(10,0,0,10,354.4,182.8)" />
<use xlink:href="#f0_21" transform="matrix(10,0,0,10,359.5,182.8)" />
<use xlink:href="#f0_1x" transform="matrix(10,0,0,10,371.3,182.8)" />
<use xlink:href="#f0_2a" transform="matrix(10,0,0,10,378.2,182.8)" />
<use xlink:href="#f0_20" transform="matrix(10,0,0,10,385.6,182.8)" />
<use xlink:href="#f0_25" transform="matrix(10,0,0,10,398,182.8)" />
<use xlink:href="#f0_2g" transform="matrix(10,0,0,10,402.2,182.8)" />
<use xlink:href="#f0_2f" transform="matrix(10,0,0,10,406.6,182.8)" />
<use xlink:href="#f0_2g" transform="matrix(10,0,0,10,416.9,182.8)" />
<use xlink:href="#f0_2e" transform="matrix(10,0,0,10,421.3,182.8)" />
<use xlink:href="#f0_2h" transform="matrix(10,0,0,10,426.6,182.8)" />
<use xlink:href="#f0_2g" transform="matrix(10,0,0,10,434.3,182.8)" />
<use xlink:href="#f0_24" transform="matrix(10,0,0,10,438.4,182.8)" />
<use xlink:href="#f0_2g" transform="matrix(10,0,0,10,57,202.6)" />
<use xlink:href="#f0_1x" transform="matrix(10,0,0,10,61.4,202.6)" />
<use xlink:href="#f0_1y" transform="matrix(10,0,0,10,68.4,202.6)" />
<use xlink:href="#f0_28" transform="matrix(10,0,0,10,75.9,202.6)" />
<use xlink:href="#f0_21" transform="matrix(10,0,0,10,80.3,202.6)" />
<use xlink:href="#f0_25" transform="matrix(10,0,0,10,90.4,202.6)" />
<use xlink:href="#f0_2a" transform="matrix(10,0,0,10,94.6,202.6)" />
<use xlink:href="#f0_2g" transform="matrix(10,0,0,10,105.8,202.6)" />
<use xlink:href="#f0_1x" transform="matrix(10,0,0,10,109.8,202.6)" />
<use xlink:href="#f0_1y" transform="matrix(10,0,0,10,116.8,202.6)" />
<use xlink:href="#f0_28" transform="matrix(10,0,0,10,124.7,202.6)" />
<use xlink:href="#f0_21" transform="matrix(10,0,0,10,129.1,202.6)" />
<use xlink:href="#f0_i" transform="matrix(10,0,0,10,135.9,202.6)" />
</g>
<path d="M149,244.6h52.5V246H149v-1.4Zm-2.2,3.6v-1.4h.8v-.4h.3V246h.4v-.7h1.5v1.1l-.4,.4v.3H149v.4h-.3v.4h-.8v.3h-1.1Zm-2.9,-2.9h1.5v.7h.3v.4h.4v.4h.7v1.4h-1.1v-.3H145v-.4h-.3v-.4h-.4v-.7h-.4v-1.1Zm2.9,-3.3v1.5l-.3,.3h-.8v.4h-.3v1.1h-1.5v-1.5h.4v-.7h.4v-.4h.3l.4,-.3h.7V242h.7Zm3,3.3h-1.5v-1.1h-.4v-.4h-.7l-.4,-.3V242h.8v.4h.7l.4,.3h.3v.4h.4v.7h.4v1.5Z" class="g1_121" />
<path d="M149,270.4h52.5v1.5H149v-1.5Zm-2.2,3.7v-1.5h.8l.3,-.3l.4,-.4v-.8h1.5v1.5h-.4v.4l-.4,.3l-.3,.4h-.4v.4h-1.5Zm-2.9,-3h1.5v.8h.3v.4h.4v.3h.7v1.5h-1.4v-.4H145v-.4h-.3V273h-.4v-.4h-.4v-1.5Zm2.9,-2.9v1.5h-.7v.4h-.4v.3h-.3v.7h-1.5v-1.4h.4v-.4h.4v-.4h.3v-.3h.4l.3,-.4h1.1Zm3,2.9h-1.5v-.7h-.4v-.3h-.3v-.4h-.8v-1.5h1.1l.4,.4h.4v.3h.3v.4h.4v.4h.4v1.4Z" class="g1_121" />
<path d="M263.6,255.6H312v1.6H263.6v-1.6Zm-2.2,3.8V258h.8v-.4h.3v-.4h.4v-.7h1.8v.4l-.3,.3v.8H264v.3h-.4v.4h-.3v.4h-.8v.3h-1.1Zm-2.9,-2.9H260v.4h.3v.7h.8v.4h.3v1.4h-.7l-.4,-.3H260l-.4,-.4h-.4V258h-.3v-.4l-.4,-.4v-.7Zm2.9,-3.5v1.5l-.3,.3h-.4l-.4,.4v.4H260v.9h-1.5v-1.3h.4v-.7h.3v-.4h.4v-.4h.4v-.3h.7V253h.7Zm3.3,3.5h-1.4v-.4h-.4v-.9h-.4v-.4h-.7v-.3h-.4V253h.8l.3,.4h.8v.3h.3v.4h.4v.4h.4v.7l.3,.4v.9Z" class="g1_121" />
<path d="M134.7,246h-3.4l-.8,1.5c-.1,.4,-.1,.5,-.1,.7q0,.2,.1,.4c.2,.2,.4,.2,.9,.2v.2h-2.9v-.2c.4,0,.6,-.2,.7,-.2c.2,-.2,.6,-.7,.8,-1.3l3.3,-7.5h.2l3.1,7.5c.4,.6,.5,1.1,.7,1.1c.2,.2,.6,.4,.9,.4v.2h-3.6v-.2c.3,0,.7,0,.7,-.2c.2,0,.2,-.2,.2,-.4c0,-.2,0,-.5,-.2,-.9l-.6,-1.3Zm-.1,-.5l-1.7,-3.7l-1.5,3.7Z" class="g1_121" />
<path d="M134.7,271.3c.8,.2,1.1,.4,1.5,.8c.4,.3,.6,.9,.6,1.4c0,.4,0,.9,-.4,1.3c-.4,.4,-.7,.7,-1.1,.9c-.6,.2,-1.3,.2,-2.4,.2h-4.2v-.2h.4c.3,0,.5,-.2,.7,-.3c.2,-.2,.2,-.4,.2,-1v-5.8c0,-.6,0,-.9,-.2,-1.1c-.2,-.2,-.6,-.2,-.7,-.2h-.4v-.4h3.8c.8,0,1.3,.2,1.9,.2c.5,.2,1.1,.6,1.4,.9c.4,.4,.6,.9,.6,1.3c0,.6,-.2,.9,-.4,1.3c-.3,.4,-.7,.5,-1.3,.7Zm-3.4,-.3c.1,.1,.3,.1,.5,.1c.2,0,.4,0,.7,0c.6,0,1.1,0,1.5,-.1c.4,-.2,.6,-.4,.7,-.8c.2,-.2,.2,-.5,.2,-.9c0,-.5,-.2,-.9,-.5,-1.3c-.4,-.3,-1.1,-.5,-1.9,-.5c-.5,0,-.9,0,-1.2,0V271Zm0,4.4c.5,.1,1.1,.1,1.4,.1c.9,0,1.5,-.1,1.9,-.5c.5,-.4,.7,-.7,.7,-1.3c0,-.4,-.2,-.7,-.4,-1.1c-.2,-.4,-.3,-.5,-.9,-.7c-.4,-.2,-.9,-.4,-1.6,-.4c-.2,0,-.4,0,-.6,0q-.4,.2,-.5,.2Z" class="g1_121" />
<path d="M327.8,251.4h3.3v.3h-.2c-.2,0,-.3,0,-.5,0c-.2,.2,-.6,.4,-.8,.6c-.1,.1,-.3,.5,-.5,.9l-2.2,3.5v2.2c0,.5,0,.9,.2,1.1c.1,.2,.3,.2,.7,.2h.4v.1h-3.9v-.1h.2c.5,0,.7,0,.9,-.4c0,-.2,.2,-.4,.2,-.9v-2.2L323,253c-.2,-.6,-.5,-.7,-.5,-.9c-.2,0,-.4,-.2,-.8,-.4c0,0,-.1,0,-.3,0v-.3h3.8v.3H325c-.1,0,-.3,0,-.5,0c-.2,.2,-.2,.4,-.2,.6c0,.1,0,.3,.4,.9l1.8,2.7l1.9,-2.7c.1,-.4,.3,-.8,.3,-.9q0,-.2,0,-.4c-.2,0,-.2,-.2,-.3,-.2c0,0,-.2,0,-.6,0v-.3Zm6.6,3.1h7.1v.5h-7.1v-.5Zm0,2.2h7.1v.5h-7.1v-.5Zm16.7,.7h-3.5l-.7,1.5c0,.3,-.2,.5,-.2,.7q0,.2,.2,.4c.2,.2,.3,.2,.9,.2v.1h-2.9v-.1c.3,0,.7,-.2,.7,-.2c.2,-.2,.5,-.8,.7,-1.3l3.3,-7.5h.2l3.1,7.5c.4,.5,.6,1.1,.7,1.1c.2,.2,.6,.4,1,.4v.1h-3.7v-.1c.4,0,.7,0,.7,-.2c.2,0,.2,-.2,.2,-.4c0,-.2,0,-.6,-.2,-.9l-.5,-1.3Zm-.2,-.6l-1.7,-3.6l-1.4,3.6h3.1Zm19.6,-1c.6,.1,1.1,.3,1.5,.7c.4,.3,.5,.9,.5,1.5c0,.3,-.1,.9,-.3,1.2c-.4,.4,-.8,.8,-1.3,1c-.4,.1,-1.1,.1,-2.2,.1h-4.2v-.1h.1c.4,0,.8,-.2,1,-.4c0,-.2,.1,-.4,.1,-.9V253c0,-.6,-.1,-.9,-.1,-1.1c-.2,-.2,-.6,-.2,-1,-.2h-.1v-.3h3.8c.7,0,1.3,.1,1.9,.1c.5,.2,1.1,.6,1.4,.9c.4,.4,.6,1,.6,1.3c0,.6,-.2,.9,-.4,1.3c-.4,.4,-.7,.6,-1.3,.8Zm-3.5,-.4c.2,.2,.4,.2,.6,.2c.2,0,.3,0,.7,0c.6,0,1.1,0,1.5,-.2c.2,-.2,.5,-.4,.7,-.8c.2,-.1,.2,-.5,.2,-.9c0,-.5,-.2,-.9,-.5,-1.3c-.6,-.3,-1.2,-.5,-2.1,-.5c-.3,0,-.7,0,-1.1,0v3.5Zm0,4.4c.6,.2,.9,.2,1.5,.2c.9,0,1.5,-.2,1.8,-.6c.6,-.4,.8,-.7,.8,-1.3c0,-.3,-.2,-.7,-.4,-1.1c-.2,-.3,-.5,-.5,-.9,-.7c-.4,-.2,-.9,-.4,-1.7,-.4c-.2,0,-.5,0,-.7,0c-.2,.2,-.4,.2,-.4,.2Z" class="g1_121" />
<path d="M359,258.3c.3,0,.5,.2,.7,.4c.2,.2,.4,.5,.4,.7c0,.4,-.2,.6,-.4,.9c-.2,.2,-.4,.2,-.7,.2c-.4,0,-.6,0,-.8,-.2c-.3,-.3,-.3,-.5,-.3,-.9c0,-.2,0,-.5,.3,-.7c.2,-.2,.4,-.4,.8,-.4Z" class="g1_121" />
<path d="M117.9,291H385.6V222.9H117.9V291h5.5" class="g2_121" />
<path d="M201.8,281.4v1.5l-.7,-.8l-.4,-2.9l.4,-2.9V232.5h1.5v49.6l-.8,-.7Zm0,1.5h-.7v-.8l.7,.8Zm36,0h-36v-1.5h35.6l.4,1.5Zm0,0h-.4h.4Zm-.4,-49.7v-1.5h.4l1.1,.4l1.4,.4l1.1,.7l1.1,.4l1.1,.7l1.1,.7l1.1,.4l1.2,.7l.9,.8l1.1,.7l.7,.7l.7,1.1l1.1,.8l.8,.7l.7,.7l.4,1.1l.7,.8l.7,1.1l.4,.7l.7,1.1l.4,1.1l.4,.7l.3,1.1l.4,1.1l.4,.8v1.1l.3,1.1l.4,1.1v7.1l-.4,1.1v1.1l-.3,.8v1.1l-.4,1.1l-.4,.7l-.3,1.1l-.4,.7l-.7,1.1l-.4,.8l-.7,1.1l-.4,.7l-.7,.7l-.8,.8l-.7,1l-.7,.8l-.8,.7l-.7,.4l-1.1,.7l-.7,.8l-1.3,.7l-.8,.3l-1.1,.8l-1.1,.4l-1.1,.3l-1.1,.4l-1.4,.3l-1.1,.4l-1.1,.4l-.4,-1.5l1.1,-.3l1.1,-.4l1.1,-.4l1.1,-.4l1.1,-.3l1.1,-.4l1.1,-.3l.7,-.8l1.2,-.4l.9,-.7l.7,-.7l.7,-.8l.8,-.3l.7,-.7l.7,-.8l.8,-.7l.3,-.7l.8,-1.1l.3,-.8l.8,-.7l.3,-.7l.4,-1.1l.4,-.8l.3,-1.1l.4,-.7v-1.1l.4,-.7v-1.1l.3,-.8v-6l-.3,-1.1v-.8l-.4,-1.1v-1.1l-.4,-.7l-.3,-1.1l-.4,-.7l-.4,-1.1l-.3,-.8l-.4,-1.1l-.7,-.7l-.4,-.7l-.7,-1.1l-.8,-.8l-.7,-.7l-.4,-.7l-1.1,-1.1l-.7,-.8l-.7,-.7l-.9,-.4l-1.2,-.7l-.7,-.7l-1.1,-.8l-1.1,-.3l-1.1,-.8l-1.1,-.3l-1.1,-.8l-1.1,-.3l-1.1,-.4Zm0,-1.5h.4h-.4Zm-36.3,.8l.7,-.8h35.6v1.5H201.8l-.7,-.7Zm0,0l-.4,-.8h1.1l-.7,.8Z" class="g3_121" />
<path fill-rule="evenodd" d="M312.4,254.1h.7l.8,.4l.3,.7l.4,.9l-.4,1.1l-.3,.8l-.8,.3h-1.4l-.8,-.3l-.3,-.8l-.4,-1.1l.4,-.9l.3,-.7l.8,-.4h.7Z" class="g1_121" />
<path d="M315.3,256.1h-1.8v-.9h-.4v-.4h-.7v-1.4h1.1l.4,.3l.3,.4l.4,.4l.4,.3l.3,.8v.5Zm-2.9,2.9v-1.4h.4l.3,-.4h.4v-.7l.4,-.4h1.4v.7l-.3,.4l-.4,.8l-.4,.3l-.3,.4l-.4,.3h-1.1Zm-2.9,-2.9h1.4v.7l.4,.4h.4v.4h.7V259h-1.1l-.7,-.3l-.4,-.4l-.4,-.3v-.8l-.3,-.4v-.7Zm2.9,-2.7v1.4h-.7l-.4,.4l-.4,.4v.5h-1.4v-.5l.3,-.8v-.3l.4,-.4l.4,-.4l.7,-.3h1.1Z" class="g1_121" />
<path d="M346.9,246.8h22.3" class="g4_121" />
<g fill="#000000" >
<use xlink:href="#f1_1k" transform="matrix(10,0,0,10,467.7,123)" />
<use xlink:href="#f1_2e" transform="matrix(10,0,0,10,476.3,123)" />
<use xlink:href="#f1_2h" transform="matrix(10,0,0,10,482.7,123)" />
<use xlink:href="#f1_2g" transform="matrix(10,0,0,10,490.8,123)" />
<use xlink:href="#f1_24" transform="matrix(10,0,0,10,495.6,123)" />
<use xlink:href="#f1_1k" transform="matrix(10,0,0,10,506,123)" />
<use xlink:href="#f1_1x" transform="matrix(10,0,0,10,514.2,123)" />
<use xlink:href="#f1_1y" transform="matrix(10,0,0,10,521.6,123)" />
<use xlink:href="#f1_28" transform="matrix(10,0,0,10,529.6,123)" />
<use xlink:href="#f1_21" transform="matrix(10,0,0,10,533.9,123)" />
<use xlink:href="#f1_u" transform="matrix(10,0,0,10,542.9,123)" />
<use xlink:href="#f1_19" transform="matrix(10,0,0,10,554.2,148.3)" />
<use xlink:href="#f1_2a" transform="matrix(10,0,0,10,559.5,148.3)" />
<use xlink:href="#f1_2c" transform="matrix(10,0,0,10,569.4,148.3)" />
<use xlink:href="#f1_2h" transform="matrix(10,0,0,10,576.9,148.3)" />
<use xlink:href="#f1_2g" transform="matrix(10,0,0,10,584.8,148.3)" />
<use xlink:href="#f1_1f" transform="matrix(10,0,0,10,727.6,148.3)" />
<use xlink:href="#f1_2h" transform="matrix(10,0,0,10,738.6,148.3)" />
<use xlink:href="#f1_2g" transform="matrix(10,0,0,10,746.5,148.3)" />
<use xlink:href="#f1_2c" transform="matrix(10,0,0,10,750.6,148.3)" />
<use xlink:href="#f1_2h" transform="matrix(10,0,0,10,758.4,148.3)" />
<use xlink:href="#f1_2g" transform="matrix(10,0,0,10,766.1,148.3)" />
<use xlink:href="#f1_11" transform="matrix(10,0,0,10,557,176.9)" />
<use xlink:href="#f1_12" transform="matrix(10,0,0,10,660,176.9)" />
<use xlink:href="#f1_1p" transform="matrix(10,0,0,10,770.2,176.9)" />
<use xlink:href="#f0_k" transform="matrix(10,0,0,10,557,196.7)" />
<use xlink:href="#f0_k" transform="matrix(10,0,0,10,660,196.7)" />
<use xlink:href="#f0_l" transform="matrix(10,0,0,10,770.2,196.7)" />
<use xlink:href="#f0_k" transform="matrix(10,0,0,10,557,216.5)" />
<use xlink:href="#f0_l" transform="matrix(10,0,0,10,660,216.5)" />
<use xlink:href="#f0_l" transform="matrix(10,0,0,10,770.2,216.5)" />
<use xlink:href="#f0_l" transform="matrix(10,0,0,10,557,236.5)" />
<use xlink:href="#f0_k" transform="matrix(10,0,0,10,660,236.5)" />
<use xlink:href="#f0_l" transform="matrix(10,0,0,10,770.2,236.5)" />
<use xlink:href="#f0_l" transform="matrix(10,0,0,10,557,256.3)" />
<use xlink:href="#f0_l" transform="matrix(10,0,0,10,660,256.3)" />
<use xlink:href="#f0_k" transform="matrix(10,0,0,10,770.2,256.3)" />
<use xlink:href="#f0_1c" transform="matrix(10,0,0,10,467.7,287.3)" />
<use xlink:href="#f0_25" transform="matrix(10,0,0,10,476.7,287.3)" />
<use xlink:href="#f0_27" transform="matrix(10,0,0,10,481.1,287.3)" />
<use xlink:href="#f0_21" transform="matrix(10,0,0,10,488.8,287.3)" />
<use xlink:href="#f0_1e" transform="matrix(10,0,0,10,498.9,287.3)" />
<use xlink:href="#f0_1f" transform="matrix(10,0,0,10,509.8,287.3)" />
<use xlink:href="#f0_1i" transform="matrix(10,0,0,10,521.2,287.3)" />
<use xlink:href="#f0_23" transform="matrix(10,0,0,10,534.6,287.3)" />
<use xlink:href="#f0_1x" transform="matrix(10,0,0,10,542.1,287.3)" />
<use xlink:href="#f0_2g" transform="matrix(10,0,0,10,549.1,287.3)" />
<use xlink:href="#f0_21" transform="matrix(10,0,0,10,553.1,287.3)" />
<use xlink:href="#f0_g" transform="matrix(10,0,0,10,560.1,287.3)" />
<use xlink:href="#f0_1e" transform="matrix(10,0,0,10,567.2,287.3)" />
<use xlink:href="#f0_11" transform="matrix(10,0,0,10,578.6,287.3)" />
<use xlink:href="#f0_1e" transform="matrix(10,0,0,10,589.4,287.3)" />
<use xlink:href="#f0_14" transform="matrix(10,0,0,10,600.4,287.3)" />
<use xlink:href="#f0_23" transform="matrix(10,0,0,10,614.9,287.3)" />
<use xlink:href="#f0_1x" transform="matrix(10,0,0,10,622.6,287.3)" />
<use xlink:href="#f0_2g" transform="matrix(10,0,0,10,629.4,287.3)" />
<use xlink:href="#f0_21" transform="matrix(10,0,0,10,633.6,287.3)" />
<use xlink:href="#f0_1z" transform="matrix(10,0,0,10,643.7,287.3)" />
<use xlink:href="#f0_1x" transform="matrix(10,0,0,10,650.8,287.3)" />
<use xlink:href="#f0_2a" transform="matrix(10,0,0,10,657.6,287.3)" />
<use xlink:href="#f0_1x" transform="matrix(10,0,0,10,668.4,287.3)" />
<use xlink:href="#f0_28" transform="matrix(10,0,0,10,675.2,287.3)" />
<use xlink:href="#f0_2f" transform="matrix(10,0,0,10,679.6,287.3)" />
<use xlink:href="#f0_2b" transform="matrix(10,0,0,10,685.3,287.3)" />
<use xlink:href="#f0_1y" transform="matrix(10,0,0,10,696.7,287.3)" />
<use xlink:href="#f0_21" transform="matrix(10,0,0,10,704.2,287.3)" />
<use xlink:href="#f0_2h" transform="matrix(10,0,0,10,714.6,287.3)" />
<use xlink:href="#f0_2f" transform="matrix(10,0,0,10,722.2,287.3)" />
<use xlink:href="#f0_21" transform="matrix(10,0,0,10,728,287.3)" />
<use xlink:href="#f0_20" transform="matrix(10,0,0,10,735,287.3)" />
<use xlink:href="#f0_2g" transform="matrix(10,0,0,10,746,287.3)" />
<use xlink:href="#f0_2b" transform="matrix(10,0,0,10,750.4,287.3)" />
<use xlink:href="#f0_2e" transform="matrix(10,0,0,10,761.2,287.3)" />
<use xlink:href="#f0_21" transform="matrix(10,0,0,10,766.5,287.3)" />
<use xlink:href="#f0_1x" transform="matrix(10,0,0,10,773.5,287.3)" />
<use xlink:href="#f0_28" transform="matrix(10,0,0,10,780.3,287.3)" />
<use xlink:href="#f0_25" transform="matrix(10,0,0,10,784.5,287.3)" />
<use xlink:href="#f0_2m" transform="matrix(10,0,0,10,788.7,287.3)" />
<use xlink:href="#f0_21" transform="matrix(10,0,0,10,795.7,287.3)" />
<use xlink:href="#f0_1x" transform="matrix(10,0,0,10,806.1,287.3)" />
<use xlink:href="#f0_28" transform="matrix(10,0,0,10,812.9,287.3)" />
<use xlink:href="#f0_28" transform="matrix(10,0,0,10,817.3,287.3)" />
<use xlink:href="#f0_1y" transform="matrix(10,0,0,10,824.6,287.3)" />
<use xlink:href="#f0_1x" transform="matrix(10,0,0,10,832.7,287.3)" />
<use xlink:href="#f0_2f" transform="matrix(10,0,0,10,839.3,287.3)" />
<use xlink:href="#f0_25" transform="matrix(10,0,0,10,845.5,287.3)" />
<use xlink:href="#f0_1z" transform="matrix(10,0,0,10,849.8,287.3)" />
<use xlink:href="#f0_23" transform="matrix(10,0,0,10,467.7,307.3)" />
<use xlink:href="#f0_1x" transform="matrix(10,0,0,10,475,307.3)" />
<use xlink:href="#f0_2g" transform="matrix(10,0,0,10,482,307.3)" />
<use xlink:href="#f0_21" transform="matrix(10,0,0,10,486.2,307.3)" />
<use xlink:href="#f0_2f" transform="matrix(10,0,0,10,493.4,307.3)" />
<use xlink:href="#f0_u" transform="matrix(10,0,0,10,502.3,307.3)" />
<use xlink:href="#f0_1f" transform="matrix(10,0,0,10,509.9,307.3)" />
<use xlink:href="#f0_1i" transform="matrix(10,0,0,10,520.9,307.3)" />
<use xlink:href="#f0_g" transform="matrix(10,0,0,10,530.9,307.3)" />
<use xlink:href="#f0_11" transform="matrix(10,0,0,10,537.2,307.3)" />
<use xlink:href="#f0_1e" transform="matrix(10,0,0,10,548,307.3)" />
<use xlink:href="#f0_14" transform="matrix(10,0,0,10,559.3,307.3)" />
<use xlink:href="#f0_1x" transform="matrix(10,0,0,10,573.3,307.3)" />
<use xlink:href="#f0_2a" transform="matrix(10,0,0,10,580.2,307.3)" />
<use xlink:href="#f0_20" transform="matrix(10,0,0,10,587.9,307.3)" />
<use xlink:href="#f0_1e" transform="matrix(10,0,0,10,598.8,307.3)" />
<use xlink:href="#f0_1f" transform="matrix(10,0,0,10,609.8,307.3)" />
<use xlink:href="#f0_1k" transform="matrix(10,0,0,10,620.8,307.3)" />
<use xlink:href="#f0_i" transform="matrix(10,0,0,10,629.6,307.3)" />
<use xlink:href="#f0_18" transform="matrix(10,0,0,10,639.6,307.3)" />
<use xlink:href="#f0_21" transform="matrix(10,0,0,10,650.8,307.3)" />
<use xlink:href="#f0_2a" transform="matrix(10,0,0,10,657.6,307.3)" />
<use xlink:href="#f0_1z" transform="matrix(10,0,0,10,665.3,307.3)" />
<use xlink:href="#f0_21" transform="matrix(10,0,0,10,672.3,307.3)" />
<use xlink:href="#f0_25" transform="matrix(10,0,0,10,682.2,307.3)" />
<use xlink:href="#f0_2g" transform="matrix(10,0,0,10,686.4,307.3)" />
<use xlink:href="#f0_25" transform="matrix(10,0,0,10,694.1,307.3)" />
<use xlink:href="#f0_2f" transform="matrix(10,0,0,10,698.3,307.3)" />
<use xlink:href="#f0_1x" transform="matrix(10,0,0,10,707.3,307.3)" />
<use xlink:href="#f0_28" transform="matrix(10,0,0,10,713.9,307.3)" />
<use xlink:href="#f0_2f" transform="matrix(10,0,0,10,718.3,307.3)" />
<use xlink:href="#f0_2b" transform="matrix(10,0,0,10,724.4,307.3)" />
<use xlink:href="#f0_27" transform="matrix(10,0,0,10,735.4,307.3)" />
<use xlink:href="#f0_2a" transform="matrix(10,0,0,10,743.1,307.3)" />
<use xlink:href="#f0_2b" transform="matrix(10,0,0,10,750.6,307.3)" />
<use xlink:href="#f0_2j" transform="matrix(10,0,0,10,758.3,307.3)" />
<use xlink:href="#f0_2a" transform="matrix(10,0,0,10,769.1,307.3)" />
<use xlink:href="#f0_1x" transform="matrix(10,0,0,10,779.9,307.3)" />
<use xlink:href="#f0_2f" transform="matrix(10,0,0,10,786.7,307.3)" />
<use xlink:href="#f1_2h" transform="matrix(10,0,0,10,795.7,307.3)" />
<use xlink:href="#f1_2a" transform="matrix(10,0,0,10,804.1,307.3)" />
<use xlink:href="#f1_25" transform="matrix(10,0,0,10,812.7,307.3)" />
<use xlink:href="#f1_2i" transform="matrix(10,0,0,10,817.1,307.3)" />
<use xlink:href="#f1_21" transform="matrix(10,0,0,10,824.8,307.3)" />
<use xlink:href="#f1_2e" transform="matrix(10,0,0,10,831.6,307.3)" />
<use xlink:href="#f1_2f" transform="matrix(10,0,0,10,838.6,307.3)" />
<use xlink:href="#f1_1x" transform="matrix(10,0,0,10,844.6,307.3)" />
<use xlink:href="#f1_28" transform="matrix(10,0,0,10,852.1,307.3)" />
<use xlink:href="#f1_17" transform="matrix(10,0,0,10,467.7,327.1)" />
<use xlink:href="#f1_1x" transform="matrix(10,0,0,10,478.5,327.1)" />
<use xlink:href="#f1_2g" transform="matrix(10,0,0,10,485.5,327.1)" />
<use xlink:href="#f1_21" transform="matrix(10,0,0,10,489.9,327.1)" />
<use xlink:href="#f0_i" transform="matrix(10,0,0,10,495.7,327.1)" />
</g>
<path fill-rule="evenodd" d="M523.8,131.8H817.7v137H523.8v-137l1.4,135.5h291v-134h-291v134L523.8,131.8Z" class="g5_121" />
<path fill-rule="evenodd" d="M523.8,156.9H816v1.5H523.8v-1.5Z" class="g5_121" />
<path fill-rule="evenodd" d="M604.5,268V158.4h1.6V268h-1.6Z" class="g5_121" />
<path fill-rule="evenodd" d="M718.8,268.8v-137h1.5v137h-1.5Z" class="g5_121" />
<path fill-rule="evenodd" d="M54.1,68H856.2V96.4H54.1V68l1.5,27H854.7V69.7H55.6V95L54.1,68Z" class="g6_121" />
<path fill-rule="evenodd" d="M55.6,93.3H855.1v3H55.6v-3Z" class="g5_121" />
<path fill-rule="evenodd" d="M55.6,68.2H855.1v3.1H55.6V68.2Z" class="g5_121" />
<g fill="#000000" >
<use xlink:href="#f2_1j" transform="matrix(10,0,0,10,61.2,86.7)" />
<use xlink:href="#f2_15" transform="matrix(10,0,0,10,71.3,86.7)" />
<use xlink:href="#f2_1d" transform="matrix(10,0,0,10,82.5,86.7)" />
<use xlink:href="#f2_19" transform="matrix(10,0,0,10,96.8,86.7)" />
<use xlink:href="#f2_13" transform="matrix(10,0,0,10,108,86.7)" />
<use xlink:href="#f2_1f" transform="matrix(10,0,0,10,119.4,86.7)" />
<use xlink:href="#f2_1e" transform="matrix(10,0,0,10,131.3,86.7)" />
<use xlink:href="#f2_14" transform="matrix(10,0,0,10,142.6,86.7)" />
<use xlink:href="#f2_1l" transform="matrix(10,0,0,10,154.4,86.7)" />
<use xlink:href="#f2_13" transform="matrix(10,0,0,10,165.8,86.7)" />
<use xlink:href="#f2_1k" transform="matrix(10,0,0,10,176.8,86.7)" />
<use xlink:href="#f2_1f" transform="matrix(10,0,0,10,187.6,86.7)" />
<use xlink:href="#f2_1i" transform="matrix(10,0,0,10,199.5,86.7)" />
</g>
<path fill-rule="evenodd" d="M55,1176.4H854.6v2.4H55v-2.4Z" class="g5_121" />
<path fill-rule="evenodd" d="M453.5,1176.2V96.2H456v1080h-2.5Z" class="g5_121" />
<defs>
<path d="M485,53c0,0,135,0,206,61c0,0,71,60,71,150c0,0,0,59,-32,114c0,0,-33,54,-105,85c0,0,-72,32,-179,32c0,0,-46,0,-79,-2c0,0,-33,-1,-53,-5V73c0,0,86,-20,171,-20ZM455,547c0,0,109,0,164,23c0,0,55,24,84,72c0,0,29,49,29,106c0,0,0,89,-72,151c0,0,-73,63,-212,63c0,0,-74,0,-134,-16V557c0,0,27,-5,63,-8c0,0,35,-2,78,-2ZM24,0V27H63c0,0,63,0,91,41c0,0,17,26,17,111V833c0,0,0,94,-22,119c0,0,-29,33,-86,33H24v27H462c0,0,122,0,196,-18c0,0,112,-27,171,-95c0,0,59,-68,59,-157c0,0,0,-76,-46,-136c0,0,-47,-60,-137,-89c0,0,105,-23,157,-72c0,0,73,-69,73,-168c0,0,0,-75,-48,-145C887,132,839,63,756,32C756,32,673,0,502,0Z" 
id="f0_12"
transform="scale(0.001,-0.001)" />

<path d="M406,32c0,0,72,0,119,60c0,0,47,59,47,205c0,0,0,181,-78,286c0,0,-53,71,-135,71c0,0,-40,0,-79,-23c0,0,-40,-24,-65,-83c0,0,-24,-58,-24,-151c0,0,0,-149,59,-257c0,0,59,-108,156,-108ZM374,-20c0,0,-154,0,-245,122c0,0,-77,104,-77,233c0,0,0,94,46,187c0,0,47,92,123,137c0,0,76,44,161,44c0,0,155,0,249,-118c0,0,80,-100,80,-231c0,0,0,-91,-44,-185C667,169,623,75,546,27c0,0,-77,-47,-172,-47Z" 
id="f0_2b"
transform="scale(0.001,-0.001)" />

<path d="M58,0V26c0,0,47,0,64,10c0,0,18,10,28,32c0,0,9,23,9,86V775c0,0,0,116,-5,142c0,0,-5,27,-17,37c0,0,-11,9,-29,9c0,0,-20,0,-49,-12L46,978l204,83h34V154c0,0,0,-64,9,-85c0,0,9,-21,29,-32c0,0,19,-11,72,-11V0Z" 
id="f0_28"
transform="scale(0.001,-0.001)" />

<path d="M479,469c0,0,-4,66,-16,93c0,0,-18,42,-55,65c0,0,-37,24,-78,24c0,0,-62,0,-111,-48c0,0,-48,-48,-57,-134ZM355,-20c0,0,-123,0,-211,95c0,0,-87,96,-87,258c0,0,0,175,90,273c0,0,89,98,225,98c0,0,115,0,189,-76c0,0,74,-75,74,-202H162c0,0,0,-152,74,-239c0,0,75,-86,175,-86c0,0,67,0,117,36c0,0,50,37,83,127l24,-15c0,0,-16,-102,-91,-186c0,0,-76,-83,-189,-83Z" 
id="f0_21"
transform="scale(0.001,-0.001)" />

<path d="M286,72c0,0,57,0,149,75V407c0,0,-113,-45,-145,-64c0,0,-59,-32,-85,-68c0,0,-25,-36,-25,-78c0,0,0,-54,32,-89c0,0,32,-36,74,-36ZM217,-13c0,0,-71,0,-116,48c0,0,-46,48,-46,127c0,0,0,50,22,87c0,0,31,50,106,95c0,0,76,45,252,109v26c0,0,0,102,-32,140c0,0,-32,38,-94,38c0,0,-47,0,-74,-25c0,0,-28,-25,-28,-58l1,-43c0,0,0,-34,-17,-53c0,0,-18,-18,-47,-18c0,0,-28,0,-45,19c0,0,-18,19,-18,53c0,0,0,64,66,117c0,0,65,54,184,54c0,0,91,0,149,-31c0,0,44,-23,65,-72c0,0,13,-32,13,-131V238c0,0,0,-98,4,-120c0,0,4,-22,12,-29c0,0,9,-8,20,-8c0,0,12,0,21,5c0,0,16,10,61,55V99C676,99,592,-12,516,-12c0,0,-37,0,-58,24c0,0,-22,26,-23,86C435,98,330,17,303,5c0,0,-40,-18,-86,-18Z" 
id="f0_1x"
transform="scale(0.001,-0.001)" />

<path d="M21,0V26H35c0,0,53,0,71,27c0,0,18,27,18,101V408c0,0,0,123,-5,150c0,0,-6,27,-17,37c0,0,-12,10,-31,10c0,0,-21,0,-50,-11L10,620l206,83h32V558c0,0,120,145,229,145c0,0,56,0,96,-28c0,0,40,-28,64,-92c0,0,16,-45,16,-137V154c0,0,0,-65,11,-88c0,0,8,-19,26,-29c0,0,18,-11,68,-11V0H419V26h14c0,0,47,0,66,15c0,0,20,15,27,43c0,0,3,11,3,70V434c0,0,0,93,-24,135c0,0,-24,42,-81,42c0,0,-88,0,-176,-97V154c0,0,0,-69,9,-86c0,0,10,-21,28,-31c0,0,19,-11,75,-11V0Z" 
id="f0_2a"
transform="scale(0.001,-0.001)" />

<path d="M25,0V26c0,0,27,4,47,19c0,0,29,22,96,111L311,346L182,535c0,0,-55,81,-86,102c0,0,-30,20,-75,20v26H341V657c0,0,-30,0,-42,-10c0,0,-13,-11,-13,-28c0,0,0,-19,27,-56c0,0,8,-12,25,-37l48,-78l56,77c0,0,55,74,55,94c0,0,0,16,0,27c0,0,0,11,0,11v26H674V657c0,0,-37,-2,-64,-20c0,0,-37,-26,-100,-111L416,402L587,156c0,0,63,-91,89,-109c0,0,27,-18,70,-21V0H423V26c0,0,34,0,53,15c0,0,14,11,14,28c0,0,0,17,-48,87L341,302L232,157c0,0,-50,-69,-50,-82c0,0,0,-18,17,-32c0,0,17,-15,50,-17V0Z" 
id="f0_2k"
transform="scale(0.001,-0.001)" />

<path d="M398,24c0,0,74,0,120,58c0,0,61,76,61,214c0,0,0,156,-69,240c0,0,-47,59,-113,59c0,0,-36,0,-71,-18c0,0,-27,-14,-88,-81V242c0,0,0,-83,6,-109c0,0,11,-43,51,-76c0,0,41,-33,103,-33ZM-4,-326v27H15c5,0,42,0,69,16c0,0,14,8,22,26c0,0,7,19,7,94V481c0,0,0,67,-6,85c0,0,-5,18,-18,27c0,0,-13,9,-36,9c0,0,-18,0,-45,-10L0,615l209,85h29V540c0,0,53,91,106,127c0,0,53,36,112,36c0,0,103,0,172,-80c0,0,84,-99,84,-257c0,0,0,-176,-102,-292c0,0,-83,-94,-210,-94c0,0,-55,0,-95,16c0,0,-30,10,-67,44V-167c0,0,0,-71,8,-90c0,0,9,-20,30,-31c0,0,21,-11,77,-11v-27Z" 
id="f0_2c"
transform="scale(0.001,-0.001)" />

<path d="M17,0V26c0,0,52,0,77,17c0,0,19,12,26,38c0,0,4,13,4,73V419c0,0,0,119,-5,142c0,0,-4,23,-17,33c0,0,-13,11,-33,11c0,0,-23,0,-52,-11l-7,26l207,83h31V549c0,0,86,154,176,154c0,0,41,0,68,-25c0,0,27,-25,27,-58c0,0,0,-29,-20,-49c0,0,-19,-20,-46,-20c0,0,-26,0,-58,25c0,0,-33,26,-48,26c0,0,-14,0,-29,-15c0,0,-34,-30,-70,-101V159c0,0,0,-56,15,-85c0,0,9,-20,34,-34c0,0,24,-14,71,-14V0Z" 
id="f0_2e"
transform="scale(0.001,-0.001)" />

<path d="M312,-20c0,0,-62,0,-143,22c0,0,-25,8,-40,8c0,0,-18,0,-27,-19H77V234h25c0,0,21,-105,80,-158c0,0,59,-53,132,-53c0,0,51,0,84,31c0,0,32,30,32,72c0,0,0,52,-36,87c0,0,-36,35,-144,88c0,0,-109,54,-142,97c0,0,-34,43,-34,107c0,0,0,85,58,141c0,0,58,57,150,57c0,0,40,0,97,-17c0,0,38,-11,51,-11c0,0,12,0,19,5c0,0,7,5,15,23h25V470H464c0,0,-28,110,-72,149c0,0,-45,40,-113,40c0,0,-53,0,-85,-28c0,0,-32,-27,-32,-61c0,0,0,-41,24,-71c0,0,23,-31,94,-65L389,381c0,0,152,-74,152,-194c0,0,0,-94,-71,-151c0,0,-70,-56,-158,-56Z" 
id="f0_2f"
transform="scale(0.001,-0.001)" />

<path d="M55,0V26c0,0,50,0,67,10c0,0,17,10,27,32c0,0,10,23,10,86V418c0,0,0,111,-6,144c0,0,-6,24,-17,33c0,0,-11,10,-30,10c0,0,-21,0,-51,-11L45,620l206,83h33V154c0,0,0,-64,9,-85c0,0,9,-22,27,-32c0,0,19,-11,67,-11V0ZM222,909c0,0,-32,0,-54,23c0,0,-22,22,-22,53c0,0,0,32,22,54c0,0,22,22,54,22c0,0,31,0,53,-22c0,0,22,-22,22,-54c0,0,0,-31,-22,-53c0,0,-22,-23,-53,-23Z" 
id="f0_25"
transform="scale(0.001,-0.001)" />

<path d="M63,0V26H93c0,0,30,0,54,15c0,0,25,15,34,41c0,0,10,25,10,99V630H58v53H191v45c0,0,0,102,33,173c0,0,32,71,100,114c0,0,68,44,152,44c0,0,79,0,145,-51c0,0,43,-33,43,-75c0,0,0,-22,-19,-42c0,0,-20,-20,-42,-20c0,0,-17,0,-36,12c0,0,-19,13,-47,53c0,0,-28,41,-51,55c0,0,-23,14,-51,14c0,0,-35,0,-58,-18c0,0,-24,-18,-35,-57c0,0,-10,-38,-10,-197V683H491V630H315V181c0,0,0,-96,21,-122c0,0,27,-33,73,-33h62V0Z" 
id="f0_22"
transform="scale(0.001,-0.001)" />

<path d="M911,-16L244,799V175c0,0,0,-93,21,-116c0,0,28,-32,86,-32h36V0H36V27H71c0,0,65,0,92,39c0,0,16,24,16,109V879c0,0,-44,52,-67,68c0,0,-23,17,-67,31c0,0,-21,7,-64,7v27H253L873,253V837c0,0,0,93,-21,116c0,0,-28,32,-87,32H730v27h351V985h-36c0,0,-64,0,-91,-39c0,0,-16,-24,-16,-109V-16Z" 
id="f0_1e"
transform="scale(0.001,-0.001)" />

<path d="M678,393L506,802L330,393ZM11,0V27c0,0,63,12,82,30c0,0,38,35,84,145l356,832h27L912,193c0,0,43,-101,77,-132c0,0,35,-30,97,-34V0H687V27c0,0,60,3,82,21c0,0,21,17,21,41c0,0,0,33,-30,104L700,338H307L239,179c0,0,-26,-59,-26,-88c0,0,0,-23,22,-41c0,0,22,-17,95,-23V0Z" 
id="f0_11"
transform="scale(0.001,-0.001)" />

<path d="M473,53c0,0,173,0,287,121c0,0,114,122,114,330c0,0,0,210,-114,330c0,0,-114,121,-293,121c0,0,-67,0,-153,-21V74c0,0,95,-21,159,-21ZM26,0V27H64c0,0,64,0,91,41c0,0,16,25,16,111V833c0,0,0,95,-21,119c0,0,-29,33,-86,33H26v27H438c0,0,226,0,345,-51c0,0,118,-52,190,-172c0,0,72,-120,72,-278c0,0,0,-211,-129,-353C916,158,773,0,478,0Z" 
id="f0_14"
transform="scale(0.001,-0.001)" />

<path d="M411,-239c0,0,134,0,198,48c0,0,64,47,64,100c0,0,0,39,-38,55c0,0,-39,16,-154,19c0,0,-167,5,-258,17c0,0,-35,-37,-53,-70c0,0,-17,-32,-17,-60c0,0,0,-36,43,-62c0,0,74,-47,215,-47ZM380,257c0,0,56,0,93,43c0,0,36,42,36,133c0,0,0,118,-51,185c0,0,-38,49,-98,49c0,0,-55,0,-92,-44c0,0,-37,-44,-37,-135c0,0,0,-117,50,-182c0,0,39,-49,99,-49ZM345,-328c0,0,-144,0,-243,64c0,0,-56,38,-56,78c0,0,0,18,8,36c0,0,13,27,52,76c0,0,5,7,76,80c0,0,-39,23,-55,41c0,0,-16,19,-16,42c0,0,0,26,22,61c0,0,21,35,98,100c0,0,-63,30,-97,85c0,0,-33,55,-33,121c0,0,0,101,76,174c0,0,77,73,196,73c0,0,98,0,170,-48H688c0,0,32,0,37,-2c0,0,6,-2,8,-6c0,0,4,-7,4,-24c0,0,0,-20,-4,-27c0,0,-2,-4,-7,-6c0,0,-6,-2,-38,-2H599c0,0,41,-54,41,-137c0,0,0,-96,-73,-163c0,0,-73,-68,-196,-68c0,0,-51,0,-104,15c0,0,-33,-28,-44,-49c0,0,-12,-22,-12,-37c0,0,0,-12,13,-24c0,0,12,-12,48,-17c0,0,21,-4,104,-6c0,0,154,-4,199,-11c0,0,70,-10,111,-51c0,0,42,-41,42,-102c0,0,0,-84,-79,-158c0,0,-117,-108,-304,-108Z" 
id="f0_23"
transform="scale(0.001,-0.001)" />

<path d="M255,-10c0,0,-35,0,-68,18c0,0,-32,19,-48,55c0,0,-16,35,-16,109V632H15v24c0,0,41,16,84,56c0,0,43,39,77,92c0,0,17,29,48,104h23V683H407V632H247V188c0,0,0,-66,19,-90c0,0,19,-23,49,-23c0,0,24,0,47,16c0,0,23,15,36,45h29c0,0,-26,-73,-74,-110c0,0,-47,-36,-98,-36Z" 
id="f0_2g"
transform="scale(0.001,-0.001)" />

<path d="M82,-253v33c0,0,77,25,119,78c0,0,42,54,42,114c0,0,0,14,-7,23c0,0,-5,6,-11,6c0,0,-8,0,-35,-14c0,0,-14,-7,-28,-7c0,0,-37,0,-58,21C104,1,82,23,82,61c0,0,0,36,28,62c0,0,28,27,68,27c0,0,49,0,88,-43c0,0,38,-43,38,-113c0,0,0,-77,-53,-143c0,0,-53,-66,-169,-104Z" 
id="f0_g"
transform="scale(0.001,-0.001)" />

<path d="M332,0V27h36c0,0,64,0,91,39c0,0,16,24,16,109V414L198,839c0,0,-49,75,-67,94c0,0,-17,18,-72,44c0,0,-15,8,-44,8v27H447V985H425c0,0,-35,0,-65,-17c0,0,-29,-16,-29,-49c0,0,0,-27,46,-97L587,496L786,808c0,0,44,70,44,104c0,0,0,21,-10,37c0,0,-11,17,-31,26c0,0,-20,10,-61,10v27h353V985h-19c0,0,-19,0,-57,-18c0,0,-37,-17,-67,-49c0,0,-31,-32,-76,-105L618,430V175c0,0,0,-93,21,-116c0,0,28,-32,89,-32h33V0Z" 
id="f0_1p"
transform="scale(0.001,-0.001)" />

<path d="M27,354v62H831V354Zm0,243v62H831V597Z" 
id="f0_x"
transform="scale(0.001,-0.001)" />

<path d="M191,-20c0,0,-34,0,-58,24c0,0,-24,24,-24,58c0,0,0,35,24,59c0,0,24,24,58,24c0,0,35,0,59,-24c0,0,24,-25,24,-59c0,0,0,-34,-24,-58c0,0,-25,-24,-59,-24Z" 
id="f0_i"
transform="scale(0.001,-0.001)" />

<path d="M399,62c0,0,68,0,131,68V481c0,0,-5,51,-27,93c0,0,-22,42,-59,63c0,0,-37,21,-72,21c0,0,-65,0,-117,-59c0,0,-67,-77,-67,-226c0,0,0,-151,65,-231c0,0,66,-80,146,-80ZM330,-20c0,0,-112,0,-196,93c0,0,-83,94,-83,240c0,0,0,147,92,269c0,0,93,122,238,122c0,0,90,0,149,-58V773c0,0,0,117,-6,144c0,0,-5,27,-17,37c0,0,-12,9,-30,9c0,0,-20,0,-52,-12l-9,27l204,83h33V270c0,0,0,-120,6,-146c0,0,5,-27,18,-37c0,0,12,-11,28,-11c0,0,21,0,54,13l9,-26L564,-20H530V78C530,78,480,25,432,2c0,0,-47,-22,-102,-22Z" 
id="f0_20"
transform="scale(0.001,-0.001)" />

<path d="M384,85c0,0,44,0,78,19c0,0,35,19,68,62V487c0,0,0,55,-15,87c0,0,-14,33,-51,55c0,0,-38,22,-85,22c0,0,-84,0,-143,-71c0,0,-60,-70,-60,-214c0,0,0,-138,61,-209c0,0,61,-72,147,-72Zm35,-411v27h15c0,0,41,0,63,12c0,0,15,8,24,30c0,0,9,21,9,83V119C530,119,462,39,411,9c0,0,-50,-29,-105,-29c0,0,-99,0,-177,90c0,0,-78,90,-78,241c0,0,0,174,103,283c0,0,103,109,248,109c0,0,43,0,78,-12c0,0,36,-12,65,-35c0,0,43,20,83,47h25V-174c0,0,0,-66,9,-85c0,0,9,-19,28,-30c0,0,19,-10,74,-10v-27Z" 
id="f0_2d"
transform="scale(0.001,-0.001)" />

<path d="M292,-20c0,0,-57,0,-100,33c0,0,-42,33,-58,85c0,0,-17,52,-17,148V551c0,0,0,49,-10,68c0,0,-11,18,-31,29c0,0,-19,9,-68,9c-2,0,-4,0,-6,0v26H242V226c0,0,0,-95,33,-125c0,0,33,-30,80,-30c0,0,32,0,73,21c0,0,40,20,96,76V555c0,0,0,59,-21,80c0,0,-22,21,-89,22v26H647V269c0,0,0,-119,6,-145c0,0,6,-27,18,-37c0,0,12,-11,29,-11c0,0,23,0,52,13L763,63L558,-20H524V124C524,124,436,29,390,4c0,0,-47,-24,-98,-24Z" 
id="f0_2h"
transform="scale(0.001,-0.001)" />

<path d="M31,0V27H69c0,0,64,0,91,42c0,0,16,24,16,110V833c0,0,0,95,-21,119c0,0,-29,33,-86,33H31v27H488V985c0,0,-1,0,-2,0c-12,0,-81,-1,-111,-15c0,0,-32,-16,-44,-40c0,0,-12,-24,-12,-115V180c0,0,0,-62,12,-85c0,0,9,-16,27,-23c0,0,19,-7,117,-7h74c0,0,116,0,163,17c0,0,48,17,86,61c0,0,39,43,78,138l25,-6L814,0Z" 
id="f0_1c"
transform="scale(0.001,-0.001)" />

<path d="M342,-20c0,0,-116,0,-203,97c0,0,-86,98,-86,264c0,0,0,161,96,261c0,0,95,101,230,101c0,0,100,0,165,-53c0,0,65,-54,65,-111c0,0,0,-29,-18,-46c0,0,-18,-18,-51,-18c0,0,-44,0,-66,29c0,0,-13,15,-17,59c0,0,-4,45,-30,68c0,0,-26,22,-73,22c0,0,-74,0,-120,-55c0,0,-60,-73,-60,-193c0,0,0,-122,60,-216c0,0,60,-93,162,-93c0,0,73,0,131,49c0,0,41,35,80,126l22,-10C629,261,601,125,521,52c0,0,-81,-72,-179,-72Z" 
id="f0_1z"
transform="scale(0.001,-0.001)" />

<path d="M145,-328c0,0,-44,0,-73,25c0,0,-28,25,-28,58c0,0,0,31,21,50c0,0,20,19,56,19c0,0,25,0,67,-16c0,0,30,-11,38,-11c0,0,22,0,49,23c0,0,26,23,53,89L376,28L131,542c0,0,-11,24,-36,58c0,0,-19,27,-30,36c0,0,-18,12,-56,21v26H328V657H312c0,0,-33,0,-50,-15c0,0,-17,-14,-17,-36c0,0,0,-30,25,-81L437,179L589,557c0,0,12,31,12,62c0,0,0,13,-5,20c0,0,-6,8,-19,13c0,0,-12,5,-44,5v26H754V657c0,0,-27,-3,-42,-12c0,0,-15,-9,-33,-34c0,0,-7,-10,-25,-58L376,-128c0,0,-40,-99,-105,-150c0,0,-66,-50,-126,-50Z" 
id="f0_2l"
transform="scale(0.001,-0.001)" />

<path d="M23,0V26c0,0,47,0,66,10c0,0,19,11,28,33c0,0,10,22,10,85V416c0,0,0,112,-7,145c0,0,-5,25,-16,34c0,0,-11,10,-31,10c0,0,-21,0,-50,-11L12,620l207,83h32V557c0,0,75,75,88,86c0,0,34,29,72,44c0,0,39,16,77,16c0,0,64,0,110,-37c0,0,47,-38,62,-109c0,0,77,90,130,118c0,0,53,28,109,28c0,0,54,0,96,-28c0,0,42,-28,67,-91c0,0,16,-43,16,-136V154c0,0,0,-64,10,-88c0,0,8,-16,28,-28c0,0,20,-12,65,-12V0H844V26h14c0,0,44,0,69,18c0,0,17,12,24,38c0,0,3,13,3,72V448c0,0,0,83,-20,117c0,0,-29,48,-93,48c0,0,-39,0,-79,-20c0,0,-40,-19,-97,-73l-1,-8l2,-32V154c0,0,0,-70,8,-87c0,0,7,-17,29,-29c0,0,21,-12,73,-12V0H431V26c0,0,57,0,78,14c0,0,21,13,29,40c0,0,4,13,4,74V448c0,0,0,83,-25,120c0,0,-33,48,-91,48c0,0,-40,0,-80,-22c0,0,-61,-33,-95,-74V154c0,0,0,-67,10,-87c0,0,9,-20,27,-30c0,0,18,-11,74,-11V0Z" 
id="f0_29"
transform="scale(0.001,-0.001)" />

<path d="M397,34c0,0,67,0,126,75c0,0,58,74,58,216c0,0,0,131,-58,201c0,0,-59,70,-133,70c0,0,-39,0,-79,-20c0,0,-29,-14,-75,-59V109c0,0,37,-37,78,-56c0,0,40,-19,83,-19ZM358,-20c0,0,-59,0,-121,21c0,0,-61,22,-126,65V773c0,0,0,117,-5,144c0,0,-6,27,-18,37c0,0,-12,9,-29,9c0,0,-21,0,-53,-12l-9,27l205,83h34V564c0,0,98,139,213,139c0,0,105,0,183,-90c0,0,78,-90,78,-245c0,0,0,-182,-121,-293c0,0,-103,-95,-231,-95Z" 
id="f0_1y"
transform="scale(0.001,-0.001)" />

<path d="M20,0V26c0,0,45,0,71,15c0,0,15,7,24,28c0,0,9,21,9,85V773c0,0,0,117,-5,144c0,0,-6,27,-17,37c0,0,-12,9,-31,9c0,0,-16,0,-51,-12L10,978l204,83h34V561c0,0,83,91,131,116c0,0,49,26,97,26c0,0,58,0,100,-32c0,0,42,-32,62,-101c0,0,14,-47,14,-174V154c0,0,0,-65,11,-89c0,0,7,-18,25,-28c0,0,18,-11,66,-11V0H418V26h15c0,0,48,0,67,15c0,0,18,15,26,43c0,0,2,12,2,70V396c0,0,0,112,-12,147c0,0,-11,35,-36,53c0,0,-26,17,-61,17c0,0,-37,0,-76,-19c0,0,-40,-20,-95,-79V154c0,0,0,-70,8,-87c0,0,8,-17,29,-29c0,0,22,-12,74,-12V0Z" 
id="f0_24"
transform="scale(0.001,-0.001)" />

<path d="M336,-20L117,554c0,0,-21,55,-42,74c0,0,-21,19,-66,29v26H296V657c0,0,-40,-3,-52,-14c0,0,-13,-12,-13,-33c0,0,0,-23,13,-56L390,162L537,481L498,581c0,0,-18,46,-47,63c0,0,-17,11,-61,13v26H716V657c0,0,-54,-2,-77,-20c0,0,-15,-12,-15,-39c0,0,0,-15,6,-30L785,177L929,554c0,0,15,40,15,65c0,0,0,14,-15,25c0,0,-14,12,-57,13v26h216V657c0,0,-65,-10,-95,-89L764,-20H733L563,415L363,-20Z" 
id="f0_2j"
transform="scale(0.001,-0.001)" />

<path d="M244,0V27h34c0,0,44,0,71,16c0,0,19,11,30,36c0,0,8,18,8,94V953H314c0,0,-103,0,-149,-43c0,0,-66,-60,-83,-172H55v274H965V738H938c0,0,-24,95,-53,136c0,0,-29,41,-80,66c0,0,-28,13,-99,13H631V173c0,0,0,-78,8,-97c0,0,9,-20,34,-34c0,0,25,-15,68,-15h33V0Z" 
id="f1_1k"
transform="scale(0.001,-0.001)" />

<path d="M57,0V26c0,0,45,4,61,25c0,0,16,22,16,113V550c0,0,0,59,-6,76c0,0,-7,21,-22,30c0,0,-14,10,-49,14v27H342l1,-158c0,0,69,109,121,144c0,0,52,36,100,36c0,0,42,0,66,-26c0,0,25,-26,25,-73c0,0,0,-50,-24,-77c0,0,-25,-28,-59,-28c0,0,-39,0,-68,25c0,0,-28,26,-33,29c0,0,-8,4,-17,4c0,0,-22,0,-41,-16c0,0,-31,-26,-46,-73c0,0,-24,-72,-24,-159V122c0,0,0,-42,5,-54c0,0,9,-21,27,-30c0,0,17,-9,59,-12V0Z" 
id="f1_2e"
transform="scale(0.001,-0.001)" />

<path d="M304,-20c0,0,-59,0,-105,36c0,0,-45,36,-61,84c0,0,-16,49,-16,169V546c0,0,0,79,-14,98c0,0,-15,20,-61,26v27H331V221c0,0,0,-74,8,-96c0,0,7,-21,22,-33c0,0,15,-11,35,-11c0,0,27,0,49,14c0,0,30,20,71,78V546c0,0,0,79,-14,98c0,0,-15,20,-61,26v27H726V152c0,0,0,-81,14,-100c0,0,15,-20,61,-26V0H516V93C516,93,466,34,416,7c0,0,-50,-27,-112,-27Z" 
id="f1_2h"
transform="scale(0.001,-0.001)" />

<path d="M298,-9c0,0,-67,0,-113,36c0,0,-46,37,-58,83c0,0,-8,25,-8,137V624H28v26c0,0,94,66,161,139c0,0,66,73,115,163h25V697H494V624H329V193c0,0,0,-60,5,-78c0,0,6,-17,20,-28c0,0,14,-11,26,-11c0,0,48,0,92,75l22,-17C494,134,434,-9,298,-9Z" 
id="f1_2g"
transform="scale(0.001,-0.001)" />

<path d="M52,0V26c0,0,44,5,62,29c0,0,13,16,13,97V860c0,0,0,80,-14,99c0,0,-15,20,-61,26v27H336V608c0,0,58,61,106,86c0,0,47,25,99,25c0,0,65,0,112,-38c0,0,47,-37,62,-87c0,0,15,-51,15,-170V152c0,0,0,-81,15,-100c0,0,15,-20,61,-26V0H452V26c0,0,37,6,56,30c0,0,13,20,13,96V463c0,0,0,86,-7,108c0,0,-6,22,-22,35c0,0,-16,12,-36,12c0,0,-30,0,-59,-21c0,0,-28,-20,-61,-72V152c0,0,0,-75,12,-94c0,0,14,-26,58,-32V0Z" 
id="f1_24"
transform="scale(0.001,-0.001)" />

<path d="M350,115c0,0,37,0,86,42V391c0,0,-90,-53,-134,-113c0,0,-29,-41,-29,-82c0,0,0,-34,24,-60c0,0,19,-21,53,-21ZM207,-9c0,0,-59,0,-99,38c0,0,-40,40,-40,99c0,0,0,80,69,143c0,0,69,64,299,170v70c0,0,0,79,-8,100c0,0,-9,20,-33,36c0,0,-23,15,-53,15c0,0,-49,0,-80,-22c0,0,-19,-13,-19,-31c0,0,0,-16,21,-39c0,0,28,-32,28,-62c0,0,0,-36,-27,-62c0,0,-27,-26,-71,-26c0,0,-47,0,-79,29c0,0,-32,28,-32,66c0,0,0,54,43,103c0,0,42,48,118,75c0,0,76,26,158,26c0,0,99,0,157,-42c0,0,58,-43,75,-92c0,0,11,-31,11,-144V170c0,0,0,-47,3,-60c0,0,4,-12,11,-18c0,0,8,-6,18,-6c0,0,19,0,39,28L738,96c0,0,-37,-56,-77,-81c0,0,-40,-24,-90,-24c0,0,-60,0,-94,27c0,0,-33,28,-41,85C436,103,309,-9,207,-9Z" 
id="f1_1x"
transform="scale(0.001,-0.001)" />

<path d="M434,31c0,0,38,0,65,22c0,0,28,22,46,86c0,0,18,64,18,231c0,0,0,161,-40,220c0,0,-29,44,-78,44c0,0,-64,0,-123,-73V251c0,0,0,-95,4,-121c0,0,8,-44,36,-71c0,0,28,-28,72,-28ZM115,-20V867c0,0,0,61,-5,75c0,0,-7,21,-23,31c0,0,-17,10,-55,12v27H322V628c0,0,88,91,192,91c0,0,72,0,135,-42c0,0,64,-43,99,-120c0,0,36,-78,36,-179c0,0,0,-114,-45,-208C739,170,693,77,617,28c0,0,-76,-48,-174,-48c0,0,-56,0,-100,18c0,0,-44,17,-87,57L141,-20Z" 
id="f1_1y"
transform="scale(0.001,-0.001)" />

<path d="M32,0V26c0,0,46,2,69,27c0,0,14,18,14,92V867c0,0,0,74,-17,94c0,0,-17,21,-66,24v27H325V145c0,0,0,-74,17,-95c0,0,17,-21,68,-24V0Z" 
id="f1_28"
transform="scale(0.001,-0.001)" />

<path d="M458,424c0,0,0,120,-13,165c0,0,-13,44,-40,67c0,0,-16,14,-42,14c0,0,-39,0,-63,-38c0,0,-44,-66,-44,-182V424ZM358,-20c0,0,-155,0,-235,119c0,0,-64,96,-64,239c0,0,0,174,94,277c0,0,94,104,221,104c0,0,106,0,184,-87c0,0,78,-87,84,-257H259c0,0,7,-139,74,-220c0,0,51,-62,124,-62c0,0,45,0,81,25c0,0,37,25,79,90l25,-16C642,192,585,76,517,28c0,0,-69,-48,-159,-48Z" 
id="f1_21"
transform="scale(0.001,-0.001)" />

<path d="M254,-18c0,0,-51,0,-88,36c0,0,-36,36,-36,87c0,0,0,52,36,88c0,0,37,37,88,37c0,0,53,0,89,-37c0,0,36,-36,36,-88c0,0,0,-51,-36,-87c0,0,-37,-36,-89,-36Zm2,488c0,0,-52,0,-88,36c0,0,-36,37,-36,88c0,0,0,51,36,88c0,0,36,36,88,36c0,0,51,0,87,-36c0,0,36,-37,36,-88c0,0,0,-51,-36,-88c0,0,-36,-36,-87,-36Z" 
id="f1_u"
transform="scale(0.001,-0.001)" />

<path d="M29,0V27H63c0,0,44,0,71,16c0,0,19,11,30,36c0,0,8,18,8,94V839c0,0,0,78,-8,97c0,0,-8,20,-33,34c0,0,-25,15,-68,15H29v27H558V985H525c0,0,-44,0,-71,-16c0,0,-19,-11,-30,-36c0,0,-8,-18,-8,-94V173c0,0,0,-78,8,-97c0,0,9,-20,34,-34c0,0,24,-15,67,-15h33V0Z" 
id="f1_19"
transform="scale(0.001,-0.001)" />

<path d="M52,0V26c0,0,44,5,62,29c0,0,13,16,13,97V546c0,0,0,79,-14,98c0,0,-15,20,-61,26v27H336V607c0,0,54,59,104,85c0,0,49,27,106,27c0,0,68,0,113,-38c0,0,44,-38,59,-94c0,0,12,-42,12,-163V152c0,0,0,-81,15,-101c0,0,14,-19,61,-25V0H452V26c0,0,40,6,57,33c0,0,12,19,12,93V462c0,0,0,86,-7,109c0,0,-6,22,-22,35c0,0,-16,12,-36,12c0,0,-64,0,-120,-92V152c0,0,0,-79,15,-100c0,0,15,-20,55,-26V0Z" 
id="f1_2a"
transform="scale(0.001,-0.001)" />

<path d="M459,56c0,0,40,0,66,42c0,0,39,63,39,239c0,0,0,180,-42,247c0,0,-29,44,-76,44c0,0,-76,0,-124,-109V147c0,0,64,-91,137,-91ZM29,-326v28c0,0,46,1,69,26c0,0,14,17,14,89V551c0,0,0,75,-17,95c0,0,-17,21,-66,24v27H322V605c0,0,36,54,74,78c0,0,55,36,119,36c0,0,77,0,140,-49c0,0,63,-48,95,-134c0,0,33,-85,33,-184c0,0,0,-106,-34,-193c0,0,-34,-88,-98,-134c0,0,-65,-45,-144,-45c0,0,-57,0,-107,25c0,0,-37,19,-78,66V-188c0,0,0,-53,8,-73c0,0,9,-19,27,-28c0,0,18,-9,70,-9v-28Z" 
id="f1_2c"
transform="scale(0.001,-0.001)" />

<path d="M597,33c0,0,77,0,129,38c0,0,65,47,102,152c0,0,36,105,36,273c0,0,0,201,-37,300c0,0,-37,100,-95,141c0,0,-58,41,-133,41c0,0,-139,0,-211,-142c0,0,-59,-116,-59,-334c0,0,0,-259,91,-382c0,0,63,-87,177,-87Zm3,-54c0,0,-273,0,-423,183C177,162,60,309,60,509c0,0,0,225,153,375c0,0,144,142,358,142c6,0,12,0,19,0c0,0,3,0,8,0c42,0,250,-7,385,-141c0,0,151,-150,151,-375c0,0,0,-193,-113,-339c0,0,-149,-192,-421,-192Z" 
id="f1_1f"
transform="scale(0.001,-0.001)" />

<path d="M610,343L459,690L304,343ZM12,0V27c0,0,54,9,89,46c0,0,35,37,87,153l361,807h14L928,203c0,0,52,-118,86,-149c0,0,25,-23,71,-27V0H596V27h20c0,0,59,0,83,17c0,0,16,12,16,34c0,0,0,14,-4,28c0,0,-1,7,-22,56L634,288H279L235,190c0,0,-20,-50,-20,-82c0,0,0,-42,34,-63c0,0,20,-12,99,-18V0Z" 
id="f1_11"
transform="scale(0.001,-0.001)" />

<path d="M488,56c0,0,60,0,110,26c0,0,51,27,78,77c0,0,27,50,27,112c0,0,0,71,-33,127c0,0,-32,56,-90,79L407,499V137c0,0,0,-40,20,-61c0,0,21,-20,61,-20ZM407,557c0,0,107,0,157,24c0,0,51,24,78,67c0,0,27,44,27,111c0,0,0,67,-27,110c0,0,-26,43,-76,66c0,0,-47,21,-153,21c-2,0,-3,0,-5,0L407,557ZM32,0V27c0,0,70,0,95,13c0,0,25,14,35,35c0,0,10,21,10,103V834c0,0,0,82,-10,104c0,0,-10,21,-35,34c0,0,-26,13,-95,13v27H517c0,0,174,0,246,-31c0,0,73,-31,115,-92c0,0,41,-62,41,-131c0,0,0,-73,-53,-130c0,0,-53,-57,-186,-91c0,0,144,-34,202,-81c0,0,83,-68,83,-177c0,0,0,-114,-91,-189C874,90,761,0,546,0Z" 
id="f1_12"
transform="scale(0.001,-0.001)" />

<path d="M267,0V27h53c0,0,44,0,70,16c0,0,20,11,31,36c0,0,8,18,8,94V376L192,810c0,0,-71,128,-100,151c0,0,-30,23,-78,24v27H499V985H477c0,0,-44,0,-61,-13c0,0,-18,-13,-18,-27c0,0,0,-27,60,-135L640,474L823,779c0,0,68,113,68,149c0,0,0,21,-20,34c0,0,-25,19,-93,23v27h308V985c0,0,-50,-7,-77,-29c0,0,-37,-32,-117,-172L673,418V173c0,0,0,-78,8,-97c0,0,8,-20,32,-34c0,0,25,-15,65,-15h57V0Z" 
id="f1_1p"
transform="scale(0.001,-0.001)" />

<path d="M379,29c0,0,41,0,84,37c0,0,43,36,65,121c0,0,34,128,34,362c0,0,0,173,-35,288c0,0,-27,86,-69,122c0,0,-31,25,-74,25c0,0,-51,0,-90,-46c0,0,-54,-62,-73,-195c0,0,-20,-132,-20,-261c0,0,0,-209,52,-341c0,0,42,-112,126,-112Zm-2,-46c0,0,-145,0,-241,170c0,0,-81,144,-81,347c0,0,0,173,52,298c0,0,52,125,139,186c0,0,67,49,139,49c0,0,116,0,208,-119c0,0,116,-147,116,-398c0,0,0,-176,-51,-299C658,217,608,94,529,38c0,0,-79,-55,-152,-55Z" 
id="f0_k"
transform="scale(0.001,-0.001)" />

<path d="M197,0V27c0,0,71,2,92,13c0,0,21,10,29,29c0,0,9,18,9,109V725c0,0,0,110,-8,141c0,0,-5,24,-19,35c0,0,-14,11,-33,11c0,0,-28,0,-77,-23l-11,23l246,121h25V178c0,0,0,-85,7,-106c0,0,7,-21,29,-32c0,0,23,-11,91,-13V0Z" 
id="f0_l"
transform="scale(0.001,-0.001)" />

<path d="M13,0V26c0,0,52,0,78,13c0,0,16,8,24,25c0,0,11,25,11,86V773c0,0,0,118,-5,145c0,0,-5,26,-17,36c0,0,-12,10,-32,10c0,0,-15,0,-47,-13L13,978l203,83h34V381L424,540c0,0,55,50,64,64c0,0,6,9,6,18c0,0,0,15,-12,26c0,0,-13,11,-41,12v23H738V660c0,0,-61,-2,-102,-19c0,0,-40,-17,-89,-62L372,418L547,196c0,0,73,-92,98,-117c0,0,36,-35,63,-45c0,0,18,-8,65,-8V0H441V26c0,0,28,1,38,9c0,0,10,8,10,22c0,0,0,17,-29,56L250,381V154c0,0,0,-67,10,-88c0,0,9,-21,26,-30c0,0,17,-9,75,-10V0Z" 
id="f0_27"
transform="scale(0.001,-0.001)" />

<path d="M545,30c0,0,143,0,236,111c0,0,93,111,93,351c0,0,0,259,-103,386c0,0,-82,102,-226,102c0,0,-136,0,-218,-101C327,879,225,754,225,512c0,0,0,-247,106,-380c0,0,81,-102,214,-102Zm2,-51c0,0,-209,0,-351,147C196,126,54,274,54,510c0,0,0,240,164,393c0,0,142,131,341,131c0,0,197,0,341,-149c0,0,145,-149,145,-373c0,0,0,-230,-146,-382C899,130,754,-21,547,-21Z" 
id="f0_1f"
transform="scale(0.001,-0.001)" />

<path d="M356,519c0,0,145,0,218,63c0,0,74,63,74,160c0,0,0,95,-60,154c0,0,-59,59,-157,59c0,0,-43,0,-117,-13V520c0,0,14,0,25,0c0,0,10,-1,17,-1ZM26,0V27H64c0,0,64,0,92,42c0,0,15,23,15,110V833c0,0,0,96,-21,119c0,0,-29,33,-86,33H26v27H395c0,0,161,0,238,-24c0,0,76,-23,129,-86c0,0,54,-63,54,-151c0,0,0,-93,-61,-162c0,0,-61,-68,-189,-97L775,202c0,0,72,-100,123,-133c0,0,52,-33,134,-42V0H762L419,473c0,0,-38,-1,-61,-1c0,0,-10,0,-21,0c0,0,-11,0,-23,1V179c0,0,0,-96,21,-119c0,0,28,-33,84,-33h40V0Z" 
id="f0_1i"
transform="scale(0.001,-0.001)" />

<path d="M30,0V27L485,632H260c0,0,-72,0,-94,-10c0,0,-22,-9,-36,-35c0,0,-20,-37,-23,-92H76l5,188H654V656L196,51H445c0,0,79,0,106,13c0,0,28,13,45,46c0,0,12,23,21,100h25L634,0Z" 
id="f0_2m"
transform="scale(0.001,-0.001)" />

<path d="M213,-20c0,0,-34,0,-58,24c0,0,-24,24,-24,58c0,0,0,34,24,58c0,0,24,25,58,25c0,0,35,0,59,-25c0,0,24,-24,24,-58c0,0,0,-34,-24,-58c0,0,-25,-24,-59,-24Zm3,559c0,0,-35,0,-59,24c0,0,-24,24,-24,58c0,0,0,35,24,59c0,0,24,24,59,24c0,0,34,0,58,-24c0,0,24,-24,24,-59c0,0,0,-34,-24,-58c0,0,-24,-24,-58,-24Z" 
id="f0_u"
transform="scale(0.001,-0.001)" />

<path d="M253,0V27h36c0,0,64,0,91,39c0,0,16,24,16,109V948H274c0,0,-71,0,-100,-10c0,0,-39,-14,-67,-54c0,0,-27,-41,-33,-109H46l12,237H883L894,775H865c0,0,-8,62,-22,89c0,0,-23,43,-61,64c0,0,-39,20,-101,20H539V175c0,0,0,-93,20,-116c0,0,28,-32,87,-32h36V0Z" 
id="f0_1k"
transform="scale(0.001,-0.001)" />

<path d="M26,0V27H62c0,0,63,0,91,37c0,0,18,24,18,115V833c0,0,0,77,-10,102c0,0,-7,18,-30,32c0,0,-33,18,-69,18H26v27H459V985H422c0,0,-35,0,-67,-17c0,0,-23,-12,-32,-36c0,0,-9,-25,-9,-99V542H784V833c0,0,0,77,-10,102c0,0,-8,18,-31,32c0,0,-33,18,-68,18H639v27h432V985h-36c0,0,-36,0,-68,-17c0,0,-24,-12,-32,-36c0,0,-9,-25,-9,-99V179c0,0,0,-77,10,-102c0,0,7,-18,31,-32c0,0,32,-18,68,-18h36V0H639V27h36c0,0,62,0,90,37c0,0,19,24,19,115V487H314V179c0,0,0,-77,9,-102c0,0,8,-18,32,-32c0,0,32,-18,67,-18h37V0Z" 
id="f0_18"
transform="scale(0.001,-0.001)" />

<path d="M32,0V26c0,0,46,2,69,27c0,0,14,18,14,92V551c0,0,0,75,-17,95c0,0,-17,21,-66,24v27H325V145c0,0,0,-74,17,-95c0,0,17,-21,68,-24V0ZM220,804c0,0,-48,0,-82,33c0,0,-33,34,-33,82c0,0,0,48,33,82c0,0,34,33,82,33c0,0,48,0,82,-33c0,0,33,-34,33,-82c0,0,0,-48,-34,-82c0,0,-34,-33,-81,-33Z" 
id="f1_25"
transform="scale(0.001,-0.001)" />

<path d="M367,-20L133,520c0,0,-43,98,-67,124c0,0,-17,19,-50,26v27H386V670c0,0,-35,0,-48,-13c0,0,-18,-16,-18,-39c0,0,0,-27,33,-103L468,253l91,226c0,0,40,97,40,137c0,0,0,23,-17,38c0,0,-17,14,-59,16v27H750V670c0,0,-33,-5,-54,-25c0,0,-20,-20,-62,-118L402,-20Z" 
id="f1_2i"
transform="scale(0.001,-0.001)" />

<path d="M312,-20c0,0,-50,0,-134,30c0,0,-22,9,-30,9c0,0,-25,0,-41,-37H82L70,232H97c0,0,33,-99,91,-148c0,0,59,-49,111,-49c0,0,35,0,58,22c0,0,22,22,22,54c0,0,0,35,-22,61c0,0,-22,27,-100,80c0,0,-114,79,-147,120c0,0,-49,62,-49,136c0,0,0,80,55,145c0,0,56,66,161,66c0,0,56,0,109,-28c0,0,20,-11,33,-11c0,0,13,0,21,5c0,0,9,6,27,32h26L504,479H477c0,0,-45,106,-94,145c0,0,-48,39,-96,39c0,0,-31,0,-52,-21c0,0,-22,-20,-22,-47c0,0,0,-20,15,-39c0,0,24,-30,133,-105c0,0,110,-74,144,-126c0,0,35,-52,35,-116c0,0,0,-58,-29,-114C511,95,482,39,429,9c0,0,-53,-29,-117,-29Z" 
id="f1_2f"
transform="scale(0.001,-0.001)" />

<path d="M635,-22c0,0,-144,0,-239,38c0,0,-96,39,-168,102c0,0,-73,64,-114,144c0,0,-52,103,-52,230c0,0,0,228,160,385c0,0,161,157,404,157c0,0,75,0,136,-12c0,0,33,-6,106,-34c0,0,74,-28,87,-28c0,0,21,0,39,16c0,0,18,15,33,58h27V678h-27c0,0,-50,146,-150,222c0,0,-100,76,-219,76c0,0,-113,0,-189,-64c0,0,-75,-64,-107,-178c0,0,-31,-114,-31,-234c0,0,0,-145,34,-255c0,0,35,-110,111,-161c0,0,76,-52,181,-52c0,0,37,0,75,8c0,0,39,8,79,23V274c0,0,0,60,-8,77c0,0,-9,18,-34,32c0,0,-26,14,-63,14H680v27h493V397c0,0,-56,-4,-78,-15c0,0,-22,-12,-34,-39c0,0,-6,-14,-6,-69L1054,63c0,0,-97,-43,-201,-64c0,0,-105,-21,-218,-21Z" 
id="f1_17"
transform="scale(0.001,-0.001)" />

<path d="M567,-17c0,0,-83,0,-152,21c0,0,-70,21,-145,71L237,0H126L52,404l140,33c0,0,49,-123,153,-205c0,0,104,-82,228,-82c0,0,56,0,93,14c0,0,37,14,56,39c0,0,18,25,18,52c0,0,0,45,-43,77c0,0,-44,32,-154,63L369,446c0,0,-40,11,-107,42c0,0,-68,31,-104,64c0,0,-36,34,-60,86c0,0,-24,53,-24,111c0,0,0,83,46,153c0,0,46,69,138,113c0,0,92,43,204,43c0,0,135,0,244,-70l29,52H842L932,692L792,652c0,0,-69,125,-157,183c0,0,-88,58,-187,58c0,0,-64,0,-101,-26c0,0,-37,-27,-37,-59c0,0,0,-36,34,-67c0,0,32,-32,121,-56L665,626c0,0,166,-47,237,-126c0,0,70,-80,70,-186c0,0,0,-135,-107,-229C865,85,745,-17,567,-17Z" 
id="f2_1j"
transform="scale(0.001,-0.001)" />

<path d="M59,0V144H85c0,0,52,0,70,7c0,0,18,8,25,26c0,0,4,11,4,64V808c0,0,0,46,-7,60c0,0,-6,14,-19,22c0,0,-14,7,-53,7H59v143H928L1046,712L911,663c0,0,-34,81,-80,130c0,0,-46,49,-102,65c0,0,-55,16,-129,16H441V615h52c0,0,59,0,80,9c0,0,20,8,29,26c0,0,9,19,9,73v40H744V322H611v45c0,0,0,45,-11,66c0,0,-11,21,-29,29c0,0,-19,7,-83,7H441V230c0,0,0,-38,4,-47c0,0,3,-8,14,-12c0,0,11,-5,47,-5h87c0,0,98,0,165,28c0,0,67,28,120,91c0,0,53,63,81,149l136,-47L959,0Z" 
id="f2_15"
transform="scale(0.001,-0.001)" />

<path d="M59,0V144h42c0,0,39,0,54,7c0,0,15,7,22,22c0,0,7,15,7,57V813c0,0,0,40,-5,52c0,0,-7,17,-21,24c0,0,-13,8,-42,8H59v143H530L711,408l185,632h481V897h-52c0,0,-41,0,-57,-18c0,0,-16,-17,-16,-66V222c0,0,0,-39,4,-48c0,0,7,-15,19,-21c0,0,16,-9,43,-9h59V0H876V144h39c0,0,42,0,57,6c0,0,15,7,22,21c0,0,7,14,7,51V862L748,0H604L359,835V202c0,0,0,-22,8,-34c0,0,8,-12,22,-18c0,0,15,-6,47,-6h50V0Z" 
id="f2_1d"
transform="scale(0.001,-0.001)" />

<path d="M52,0V144H93c0,0,44,0,58,6c0,0,13,6,20,20c0,0,6,14,6,55V803c0,0,0,49,-6,64c0,0,-7,15,-22,24c0,0,-10,6,-51,6H52v143H559V897H513c0,0,-40,0,-53,-7c0,0,-13,-8,-20,-23c0,0,-6,-15,-6,-58V233c0,0,0,-47,5,-61c0,0,6,-13,18,-19c0,0,16,-9,47,-9h55V0Z" 
id="f2_19"
transform="scale(0.001,-0.001)" />

<path d="M579,-17c0,0,-147,0,-266,70c0,0,-119,70,-189,197c0,0,-71,127,-71,277c0,0,0,149,69,271c0,0,69,123,187,191c0,0,119,69,265,69c0,0,149,0,260,-62l25,44H965L1067,667L928,627c0,0,-69,133,-130,189c0,0,-85,77,-185,77c0,0,-72,0,-135,-41c0,0,-63,-40,-100,-118c0,0,-37,-78,-37,-183c0,0,0,-161,85,-276c0,0,85,-116,222,-116c0,0,87,0,168,50c0,0,100,62,173,167l116,-86C1105,290,992,136,899,76c0,0,-144,-93,-320,-93Z" 
id="f2_13"
transform="scale(0.001,-0.001)" />

<path d="M611,148c0,0,117,0,187,88c0,0,83,105,83,281c0,0,0,124,-35,208c0,0,-36,84,-96,126c0,0,-61,42,-132,42c0,0,-118,0,-189,-89c0,0,-88,-112,-88,-289c0,0,0,-176,82,-279c0,0,71,-88,188,-88ZM608,-17c0,0,-231,0,-378,126C230,109,53,262,53,518c0,0,0,237,155,389c0,0,156,151,407,151c0,0,248,0,401,-151c0,0,153,-150,153,-386c0,0,0,-159,-70,-282c0,0,-70,-123,-193,-190c0,0,-124,-66,-298,-66Z" 
id="f2_1f"
transform="scale(0.001,-0.001)" />

<path d="M59,0V144h44c0,0,37,0,51,6c0,0,14,6,22,22c0,0,8,16,8,47V816c0,0,0,34,-8,50c0,0,-7,16,-20,24c0,0,-12,7,-42,7H59v143H480L786,433V805c0,0,0,48,-5,60c0,0,-8,17,-20,25c0,0,-13,7,-49,7H661v143h428V897h-47c0,0,-36,0,-51,-9c0,0,-15,-8,-21,-22c0,0,-6,-14,-6,-61V0H750L364,767V230c0,0,0,-46,5,-59c0,0,6,-12,20,-20c0,0,15,-7,50,-7h50V0Z" 
id="f2_1e"
transform="scale(0.001,-0.001)" />

<path d="M514,166c0,0,122,0,191,38c0,0,69,38,111,121c0,0,43,83,43,199c0,0,0,113,-40,197c0,0,-40,84,-99,119c0,0,-59,34,-168,34H437V226c0,0,0,-33,4,-40c0,0,6,-12,17,-16c0,0,12,-4,56,-4ZM55,0V144H91c0,0,46,0,60,7c0,0,15,8,24,26c0,0,6,14,6,61V807c0,0,0,48,-6,62c0,0,-7,13,-21,21c0,0,-15,7,-62,7H56v143H601c0,0,186,0,296,-59c0,0,110,-58,175,-174c0,0,65,-116,65,-278c0,0,0,-112,-33,-201c0,0,-33,-89,-99,-160c0,0,-66,-71,-141,-107C864,61,807,34,703,17C703,17,599,0,536,0Z" 
id="f2_14"
transform="scale(0.001,-0.001)" />

<path d="M561,-17c0,0,-97,0,-173,29c0,0,-76,29,-133,84c0,0,-57,55,-80,116c0,0,-22,61,-22,181V794c0,0,0,56,-6,72c0,0,-6,16,-20,23c0,0,-13,8,-52,8H27v143H536V897H486c0,0,-35,0,-49,-9c0,0,-15,-8,-22,-23c0,0,-6,-15,-6,-62V424c0,0,0,-106,21,-158c0,0,21,-52,64,-79c0,0,43,-28,105,-28c0,0,61,0,109,30c0,0,48,30,68,76c0,0,21,46,21,152V834c0,0,0,26,-7,37c0,0,-9,15,-24,21c0,0,-10,5,-53,5H673v143h429V897h-34c0,0,-49,0,-61,-6c0,0,-18,-9,-26,-26c0,0,-6,-12,-6,-62V393c0,0,0,-114,-33,-191C942,202,896,98,797,40c0,0,-100,-57,-236,-57Z" 
id="f2_1l"
transform="scale(0.001,-0.001)" />

<path d="M280,0V144h30c0,0,51,0,66,6c0,0,14,6,21,22c0,0,8,17,8,67V851c0,0,0,26,-6,33c0,0,-6,7,-26,7c0,0,-38,0,-86,-29c0,0,-48,-29,-85,-82c0,0,-15,-21,-63,-118L2,711l128,365h99l10,-36H826l13,36h99L1067,711L928,662c0,0,-46,91,-66,119c0,0,-40,55,-92,86c0,0,-38,24,-77,24c0,0,-18,0,-24,-9c0,0,-7,-8,-7,-39V244c0,0,0,-53,4,-66c0,0,3,-13,12,-21c0,0,9,-8,25,-11c0,0,16,-2,84,-2V0Z" 
id="f2_1k"
transform="scale(0.001,-0.001)" />

<path d="M593,600c0,0,92,0,137,17c0,0,45,17,68,48c0,0,22,31,22,76c0,0,0,41,-21,71c0,0,-21,29,-60,43c0,0,-40,14,-128,14H439V600ZM55,0V144h46c0,0,37,0,52,8c0,0,16,7,23,23c0,0,4,9,4,56V816c0,0,0,35,-6,49c0,0,-5,15,-18,19c0,0,-18,8,-41,8H55v148H697c0,0,62,0,135,-11c0,0,74,-11,133,-49c0,0,60,-38,92,-96c0,0,33,-59,33,-132c0,0,0,-118,-84,-192c0,0,-85,-73,-201,-96L1019,215l9,-11c0,0,21,-25,38,-38c0,0,17,-12,34,-17c0,0,18,-5,48,-5h45V0H859L526,448H439V241c0,0,0,-54,6,-69c0,0,6,-14,19,-21c0,0,13,-7,52,-7h48V0Z" 
id="f2_1i"
transform="scale(0.001,-0.001)" />


</defs>
</svg>