<?xml version="1.0" encoding="UTF-8" standalone="no"?>
<!DOCTYPE svg PUBLIC "-//W3C//DTD SVG 1.1//EN"
"http://www.w3.org/Graphics/SVG/1.1/DTD/svg11.dtd">
<svg viewBox="0 0 909 1286" version="1.1" xmlns="http://www.w3.org/2000/svg" xmlns:xlink="http://www.w3.org/1999/xlink">
<defs>
<clipPath id="c0_160"><path d="M454.3,717V679.7H514V717Z" /></clipPath>
<clipPath id="c1_160"><path d="M55,770.1V740.8h72.9v29.3Z" /></clipPath>
<clipPath id="c2_160"><path d="M154.9,868.9V817H311.2v51.9Z" /></clipPath>
<clipPath id="c3_160"><path d="M55,902.2V886H71.2v16.2Z" /></clipPath>
<clipPath id="c4_160"><path d="M334.2,922.1V870.2h30.9v51.9Z" /></clipPath>
<clipPath id="c5_160"><path d="M313.5,975.9V924.1H423.6v51.8Z" /></clipPath>
<clipPath id="c6_160"><path d="M55,1029.8v-52h69v52Z" /></clipPath>
<clipPath id="c7_160"><path d="M789,1083v-51.9h65V1083Z" /></clipPath>
<clipPath id="c8_160"><path d="M408.3,1136.8v-51.9h37.2v51.9Z" /></clipPath>
<style type="text/css"><![CDATA[
.g0_160{
fill: #D9D9D9;
}
.g1_160{
fill: none;
stroke: #000000;
stroke-width: 0.7638889;
stroke-linecap: butt;
stroke-linejoin: miter;
}
.g2_160{
fill: none;
stroke: #000000;
stroke-width: 0.90911424;
stroke-linecap: butt;
stroke-linejoin: round;
}
.g3_160{
fill: none;
stroke: #000000;
stroke-width: 0.9112637;
stroke-linecap: butt;
stroke-linejoin: round;
}
.g4_160{
fill: none;
stroke: #000000;
stroke-width: 0.9028772;
stroke-linecap: butt;
stroke-linejoin: round;
}
.g5_160{
fill: none;
stroke: #000000;
stroke-width: 0.8987171;
stroke-linecap: butt;
stroke-linejoin: round;
}
.g6_160{
fill: none;
stroke: #000000;
stroke-width: 0.90585893;
stroke-linecap: butt;
stroke-linejoin: round;
}
.g7_160{
fill: none;
stroke: #000000;
stroke-width: 0.89250696;
stroke-linecap: butt;
stroke-linejoin: round;
}
.g8_160{
}
]]></style>
</defs>
<image preserveAspectRatio="none" x="748" y="1196" width="94" height="58" xlink:href="img/1.png" />
<image preserveAspectRatio="none" x="336" y="42" width="259" height="49" xlink:href="img/2.png" />
<image preserveAspectRatio="none" x="342" y="50" width="247" height="27" xlink:href="img/3.png" />
<image preserveAspectRatio="none" x="341" y="46" width="238" height="41" xlink:href="img/4.png" />
<g fill="#FFFFFF" >
<use xlink:href="#f0_j" transform="matrix(11.5,0,0,11.5,354.9,70)" />
<use xlink:href="#f0_i" transform="matrix(11.5,0,0,11.5,364.2,70)" />
<use xlink:href="#f0_2n" transform="matrix(11.5,0,0,11.5,374.1,70)" />
<use xlink:href="#f0_t" transform="matrix(11.5,0,0,11.5,382.4,70)" />
<use xlink:href="#f0_oj" transform="matrix(11.5,0,0,11.5,391,70)" />
<use xlink:href="#f0_3e" transform="matrix(11.5,0,0,11.5,396.3,70)" />
<use xlink:href="#f0_1c" transform="matrix(11.5,0,0,11.5,406,70)" />
<use xlink:href="#f0_1c" transform="matrix(11.5,0,0,11.5,410.7,70)" />
<use xlink:href="#f0_oj" transform="matrix(11.5,0,0,11.5,415.4,70)" />
<use xlink:href="#f0_rz" transform="matrix(11.5,0,0,11.5,420.8,70)" />
<use xlink:href="#f0_rx" transform="matrix(11.5,0,0,11.5,429.7,70)" />
<use xlink:href="#f0_ry" transform="matrix(11.5,0,0,11.5,438.6,70)" />
<use xlink:href="#f0_s1" transform="matrix(11.5,0,0,11.5,447.4,70)" />
<use xlink:href="#f0_t" transform="matrix(11.5,0,0,11.5,460.2,70)" />
<use xlink:href="#f0_3e" transform="matrix(11.5,0,0,11.5,468.8,70)" />
<use xlink:href="#f0_5" transform="matrix(11.5,0,0,11.5,478.5,70)" />
<use xlink:href="#f0_1x" transform="matrix(11.5,0,0,11.5,489.2,70)" />
<use xlink:href="#f0_1c" transform="matrix(11.5,0,0,11.5,504.6,70)" />
<use xlink:href="#f0_1y" transform="matrix(11.5,0,0,11.5,509.3,70)" />
<use xlink:href="#f0_5" transform="matrix(11.5,0,0,11.5,520.9,70)" />
<use xlink:href="#f0_2t" transform="matrix(11.5,0,0,11.5,531.5,70)" />
<use xlink:href="#f0_1c" transform="matrix(11.5,0,0,11.5,540.2,70)" />
<use xlink:href="#f0_24" transform="matrix(11.5,0,0,11.5,544.9,70)" />
<use xlink:href="#f0_1y" transform="matrix(11.5,0,0,11.5,556.8,70)" />
</g>
<image preserveAspectRatio="none" x="554" y="46" width="36" height="41" xlink:href="img/5.png" />
<g fill="#FFFFFF" >
<use xlink:href="#f1_l" transform="matrix(11,0,0,11,770.1,1227.7)" />
<use xlink:href="#f1_s" transform="matrix(11,0,0,11,779,1227.7)" />
<use xlink:href="#f1_j" transform="matrix(11,0,0,11,792.4,1227.7)" />
<use xlink:href="#f1_m" transform="matrix(11,0,0,11,803,1227.7)" />
<use xlink:href="#f1_n" transform="matrix(11,0,0,11,811.9,1227.7)" />
</g>
<path fill-rule="evenodd" d="M52.7,1193.2H856.9v-.7H52.7v.7Z" class="g0_160" />
<path d="M37.9,99.4L873,98.5" class="g1_160" />
<g fill="#000000" >
<use xlink:href="#f2_1k" transform="matrix(12,0,0,12,55,583.3)" />
<use xlink:href="#f2_24" transform="matrix(12,0,0,12,66.2,583.3)" />
<use xlink:href="#f2_21" transform="matrix(12,0,0,12,75.4,583.3)" />
<use xlink:href="#f2_2a" transform="matrix(12,0,0,12,88.1,583.3)" />
<use xlink:href="#f2_21" transform="matrix(12,0,0,12,97.3,583.3)" />
<use xlink:href="#f2_2g" transform="matrix(12,0,0,12,105.4,583.3)" />
<use xlink:href="#f2_22" transform="matrix(12,0,0,12,115.1,583.3)" />
<use xlink:href="#f2_2b" transform="matrix(12,0,0,12,121.2,583.3)" />
<use xlink:href="#f2_2e" transform="matrix(12,0,0,12,130.4,583.3)" />
<use xlink:href="#f2_1z" transform="matrix(12,0,0,12,136.5,583.3)" />
<use xlink:href="#f2_21" transform="matrix(12,0,0,12,144.6,583.3)" />
<use xlink:href="#f2_2b" transform="matrix(12,0,0,12,157.3,583.3)" />
<use xlink:href="#f2_2a" transform="matrix(12,0,0,12,166.5,583.3)" />
<use xlink:href="#f2_2g" transform="matrix(12,0,0,12,180.2,583.3)" />
<use xlink:href="#f2_24" transform="matrix(12,0,0,12,185.3,583.3)" />
<use xlink:href="#f2_21" transform="matrix(12,0,0,12,194.5,583.3)" />
<use xlink:href="#f2_20" transform="matrix(12,0,0,12,207.2,583.3)" />
<use xlink:href="#f2_25" transform="matrix(12,0,0,12,216.4,583.3)" />
<use xlink:href="#f2_2c" transform="matrix(12,0,0,12,221.5,583.3)" />
<use xlink:href="#f2_2b" transform="matrix(12,0,0,12,230.6,583.3)" />
<use xlink:href="#f2_28" transform="matrix(12,0,0,12,239.8,583.3)" />
<use xlink:href="#f2_21" transform="matrix(12,0,0,12,244.9,583.3)" />
<use xlink:href="#f2_25" transform="matrix(12,0,0,12,257.6,583.3)" />
<use xlink:href="#f2_2f" transform="matrix(12,0,0,12,262.8,583.3)" />
<use xlink:href="#f2_2m" transform="matrix(12,0,0,12,274.4,583.3)" />
<use xlink:href="#f2_21" transform="matrix(12,0,0,12,282.6,583.3)" />
<use xlink:href="#f2_2e" transform="matrix(12,0,0,12,290.7,583.3)" />
<use xlink:href="#f2_2b" transform="matrix(12,0,0,12,296.9,583.3)" />
<use xlink:href="#f2_i" transform="matrix(12,0,0,12,306,583.3)" />
<use xlink:href="#f2_1k" transform="matrix(12,0,0,12,55,606)" />
<use xlink:href="#f2_24" transform="matrix(12,0,0,12,66.2,606)" />
<use xlink:href="#f2_21" transform="matrix(12,0,0,12,75.4,606)" />
<use xlink:href="#f2_2g" transform="matrix(12,0,0,12,88.1,606)" />
<use xlink:href="#f2_2j" transform="matrix(12,0,0,12,93.2,606)" />
<use xlink:href="#f2_2b" transform="matrix(12,0,0,12,106.4,606)" />
<use xlink:href="#f2_22" transform="matrix(12,0,0,12,120.2,606)" />
<use xlink:href="#f2_2b" transform="matrix(12,0,0,12,126.2,606)" />
<use xlink:href="#f2_2e" transform="matrix(12,0,0,12,135.4,606)" />
<use xlink:href="#f2_1z" transform="matrix(12,0,0,12,141.5,606)" />
<use xlink:href="#f2_21" transform="matrix(12,0,0,12,149.7,606)" />
<use xlink:href="#f2_2f" transform="matrix(12,0,0,12,157.8,606)" />
<use xlink:href="#f2_1x" transform="matrix(12,0,0,12,169.6,606)" />
<use xlink:href="#f2_2e" transform="matrix(12,0,0,12,177.8,606)" />
<use xlink:href="#f2_21" transform="matrix(12,0,0,12,183.9,606)" />
<use xlink:href="#f2_g" transform="matrix(12,0,0,12,192,606)" />
<use xlink:href="#f2_24" transform="matrix(12,0,0,12,201.2,606)" />
<use xlink:href="#f2_2b" transform="matrix(12,0,0,12,210.3,606)" />
<use xlink:href="#f2_2j" transform="matrix(12,0,0,12,219.5,606)" />
<use xlink:href="#f2_21" transform="matrix(12,0,0,12,232.7,606)" />
<use xlink:href="#f2_2i" transform="matrix(12,0,0,12,240.8,606)" />
<use xlink:href="#f2_21" transform="matrix(12,0,0,12,250,606)" />
<use xlink:href="#f2_2e" transform="matrix(12,0,0,12,258.1,606)" />
<use xlink:href="#f2_g" transform="matrix(12,0,0,12,264.3,606)" />
<use xlink:href="#f2_21" transform="matrix(12,0,0,12,273.5,606)" />
<use xlink:href="#f2_2d" transform="matrix(12,0,0,12,281.6,606)" />
<use xlink:href="#f2_2h" transform="matrix(12,0,0,12,290.8,606)" />
<use xlink:href="#f2_25" transform="matrix(12,0,0,12,299.9,606)" />
<use xlink:href="#f2_2i" transform="matrix(12,0,0,12,305,606)" />
<use xlink:href="#f2_1x" transform="matrix(12,0,0,12,314.1,606)" />
<use xlink:href="#f2_28" transform="matrix(12,0,0,12,322.3,606)" />
<use xlink:href="#f2_21" transform="matrix(12,0,0,12,327.4,606)" />
<use xlink:href="#f2_2a" transform="matrix(12,0,0,12,335.5,606)" />
<use xlink:href="#f2_2g" transform="matrix(12,0,0,12,344.7,606)" />
<use xlink:href="#f2_2g" transform="matrix(12,0,0,12,354.3,606)" />
<use xlink:href="#f2_2b" transform="matrix(12,0,0,12,359.4,606)" />
<use xlink:href="#f2_1x" transform="matrix(12,0,0,12,373.2,606)" />
<use xlink:href="#f2_2g" transform="matrix(12,0,0,12,385.9,606)" />
<use xlink:href="#f2_2b" transform="matrix(12,0,0,12,391,606)" />
<use xlink:href="#f2_2e" transform="matrix(12,0,0,12,400.2,606)" />
<use xlink:href="#f2_2d" transform="matrix(12,0,0,12,406.3,606)" />
<use xlink:href="#f2_2h" transform="matrix(12,0,0,12,415.4,606)" />
<use xlink:href="#f2_21" transform="matrix(12,0,0,12,424.5,606)" />
<use xlink:href="#f2_24" transform="matrix(12,0,0,12,437.2,606)" />
<use xlink:href="#f2_1x" transform="matrix(12,0,0,12,446.4,606)" />
<use xlink:href="#f2_2i" transform="matrix(12,0,0,12,454.6,606)" />
<use xlink:href="#f2_25" transform="matrix(12,0,0,12,463.7,606)" />
<use xlink:href="#f2_2a" transform="matrix(12,0,0,12,468.9,606)" />
<use xlink:href="#f2_23" transform="matrix(12,0,0,12,478,606)" />
<use xlink:href="#f2_1x" transform="matrix(12,0,0,12,491.8,606)" />
<use xlink:href="#f2_29" transform="matrix(12,0,0,12,504.4,606)" />
<use xlink:href="#f2_1x" transform="matrix(12,0,0,12,518.6,606)" />
<use xlink:href="#f2_23" transform="matrix(12,0,0,12,526.7,606)" />
<use xlink:href="#f2_2a" transform="matrix(12,0,0,12,535.9,606)" />
<use xlink:href="#f2_25" transform="matrix(12,0,0,12,545,606)" />
<use xlink:href="#f2_2g" transform="matrix(12,0,0,12,550.1,606)" />
<use xlink:href="#f2_2h" transform="matrix(12,0,0,12,555.3,606)" />
<use xlink:href="#f2_20" transform="matrix(12,0,0,12,564.5,606)" />
<use xlink:href="#f2_21" transform="matrix(12,0,0,12,573.6,606)" />
<use xlink:href="#f3_1kd" transform="matrix(12,0,0,12,55,629)" />
<use xlink:href="#f4_x" transform="matrix(12,0,0,12,68,629)" />
<use xlink:href="#f4_c" transform="matrix(12,0,0,12,85,629)" />
<use xlink:href="#f4_2d" transform="matrix(12,0,0,12,91.1,629)" />
<use xlink:href="#f4_15" transform="matrix(12,0,0,12,100.2,629)" />
<use xlink:href="#f4_d" transform="matrix(12,0,0,12,111.4,629)" />
<use xlink:href="#f4_11" transform="matrix(12,0,0,12,117.4,629)" />
<use xlink:href="#f4_13" transform="matrix(12,0,0,12,128.7,629)" />
<use xlink:href="#f4_x" transform="matrix(12,0,0,12,55,652)" />
<use xlink:href="#f4_2d" transform="matrix(12,0,0,12,72,652)" />
<use xlink:href="#f4_15" transform="matrix(12,0,0,12,81.1,652)" />
<use xlink:href="#f4_i" transform="matrix(12,0,0,12,92.3,652)" />
<use xlink:href="#f4_m" transform="matrix(12,0,0,12,101.5,652)" />
<use xlink:href="#f4_1x" transform="matrix(12,0,0,12,110.7,652)" />
<use xlink:href="#f2_2f" transform="matrix(12,0,0,12,124.4,652)" />
<use xlink:href="#f2_25" transform="matrix(12,0,0,12,131.6,652)" />
<use xlink:href="#f2_2a" transform="matrix(12,0,0,12,136.7,652)" />
<use xlink:href="#f5_ey" transform="matrix(12,0,0,12,145.8,652)" />
<use xlink:href="#f4_x" transform="matrix(12,0,0,12,55,674.7)" />
<use xlink:href="#f4_2c" transform="matrix(12,0,0,12,72,674.7)" />
<use xlink:href="#f4_15" transform="matrix(12,0,0,12,81.1,674.7)" />
<use xlink:href="#f2_2f" transform="matrix(12,0,0,12,96.9,674.7)" />
<use xlink:href="#f2_25" transform="matrix(12,0,0,12,104,674.7)" />
<use xlink:href="#f2_2a" transform="matrix(12,0,0,12,109.1,674.7)" />
<use xlink:href="#f5_ey" transform="matrix(12,0,0,12,118.3,674.7)" />
<use xlink:href="#f2_1k" transform="matrix(12,0,0,12,55,703.2)" />
<use xlink:href="#f2_24" transform="matrix(12,0,0,12,66.2,703.2)" />
<use xlink:href="#f2_21" transform="matrix(12,0,0,12,75.4,703.2)" />
<use xlink:href="#f2_20" transform="matrix(12,0,0,12,88.1,703.2)" />
<use xlink:href="#f2_25" transform="matrix(12,0,0,12,97.3,703.2)" />
<use xlink:href="#f2_2e" transform="matrix(12,0,0,12,102.4,703.2)" />
<use xlink:href="#f2_21" transform="matrix(12,0,0,12,108.5,703.2)" />
<use xlink:href="#f2_1z" transform="matrix(12,0,0,12,116.7,703.2)" />
<use xlink:href="#f2_2g" transform="matrix(12,0,0,12,124.7,703.2)" />
<use xlink:href="#f2_25" transform="matrix(12,0,0,12,129.8,703.2)" />
<use xlink:href="#f2_2b" transform="matrix(12,0,0,12,135,703.2)" />
<use xlink:href="#f2_2a" transform="matrix(12,0,0,12,144.1,703.2)" />
<use xlink:href="#f2_2b" transform="matrix(12,0,0,12,157.8,703.2)" />
<use xlink:href="#f2_22" transform="matrix(12,0,0,12,167,703.2)" />
<use xlink:href="#f2_2g" transform="matrix(12,0,0,12,177.7,703.2)" />
<use xlink:href="#f2_24" transform="matrix(12,0,0,12,182.8,703.2)" />
<use xlink:href="#f2_25" transform="matrix(12,0,0,12,191.9,703.2)" />
<use xlink:href="#f2_2f" transform="matrix(12,0,0,12,197,703.2)" />
<use xlink:href="#f2_2g" transform="matrix(12,0,0,12,208.7,703.2)" />
<use xlink:href="#f2_2b" transform="matrix(12,0,0,12,213.9,703.2)" />
<use xlink:href="#f2_2e" transform="matrix(12,0,0,12,223.1,703.2)" />
<use xlink:href="#f2_2d" transform="matrix(12,0,0,12,229.2,703.2)" />
<use xlink:href="#f2_2h" transform="matrix(12,0,0,12,238.3,703.2)" />
<use xlink:href="#f2_21" transform="matrix(12,0,0,12,247.5,703.2)" />
<use xlink:href="#f2_25" transform="matrix(12,0,0,12,260.2,703.2)" />
<use xlink:href="#f2_2f" transform="matrix(12,0,0,12,265.3,703.2)" />
<use xlink:href="#f2_2g" transform="matrix(12,0,0,12,277,703.2)" />
<use xlink:href="#f2_24" transform="matrix(12,0,0,12,282.2,703.2)" />
<use xlink:href="#f2_1x" transform="matrix(12,0,0,12,291.2,703.2)" />
<use xlink:href="#f2_2g" transform="matrix(12,0,0,12,299.4,703.2)" />
<use xlink:href="#f2_2b" transform="matrix(12,0,0,12,309.1,703.2)" />
<use xlink:href="#f2_22" transform="matrix(12,0,0,12,318.2,703.2)" />
<use xlink:href="#f2_2g" transform="matrix(12,0,0,12,328.8,703.2)" />
<use xlink:href="#f2_24" transform="matrix(12,0,0,12,333.9,703.2)" />
<use xlink:href="#f2_21" transform="matrix(12,0,0,12,343.1,703.2)" />
<use xlink:href="#f2_1z" transform="matrix(12,0,0,12,355.8,703.2)" />
<use xlink:href="#f2_2e" transform="matrix(12,0,0,12,364,703.2)" />
<use xlink:href="#f2_2b" transform="matrix(12,0,0,12,370.1,703.2)" />
<use xlink:href="#f2_2f" transform="matrix(12,0,0,12,379.3,703.2)" />
<use xlink:href="#f2_2f" transform="matrix(12,0,0,12,386.4,703.2)" />
<use xlink:href="#f2_2c" transform="matrix(12,0,0,12,398.2,703.2)" />
<use xlink:href="#f2_2e" transform="matrix(12,0,0,12,407.3,703.2)" />
<use xlink:href="#f2_2b" transform="matrix(12,0,0,12,413.4,703.2)" />
<use xlink:href="#f2_20" transform="matrix(12,0,0,12,422.5,703.2)" />
<use xlink:href="#f2_2h" transform="matrix(12,0,0,12,431.7,703.2)" />
<use xlink:href="#f2_1z" transform="matrix(12,0,0,12,440.9,703.2)" />
<use xlink:href="#f2_2g" transform="matrix(12,0,0,12,449,703.2)" />
</g>
<g clip-path="url(#c0_160)">
<g fill="#000000" >
<use xlink:href="#f6_c" transform="matrix(11.8,0,0,20.9,456.5,706.2)" />
<use xlink:href="#f6_d" transform="matrix(11.8,0,0,20.9,504.3,706.2)" />
<use xlink:href="#f4_2c" transform="matrix(11.9,0,0,11.9,466.3,703)" />
<use xlink:href="#f4_15" transform="matrix(11.9,0,0,11.9,491,703)" />
<use xlink:href="#f6_3a" transform="matrix(11.9,0,0,11.9,477.8,703)" />
</g>
</g>
<image preserveAspectRatio="none" x="464" y="666" width="85" height="31" xlink:href="img/6.png" />
<g fill="#000000" >
<use xlink:href="#f2_i" transform="matrix(12,0,0,12,513.9,703.2)" />
<use xlink:href="#f2_18" transform="matrix(12,0,0,12,523,703.2)" />
<use xlink:href="#f2_21" transform="matrix(12,0,0,12,536.3,703.2)" />
<use xlink:href="#f2_2a" transform="matrix(12,0,0,12,544.4,703.2)" />
<use xlink:href="#f2_1z" transform="matrix(12,0,0,12,553.6,703.2)" />
<use xlink:href="#f2_21" transform="matrix(12,0,0,12,561.7,703.2)" />
<use xlink:href="#f2_g" transform="matrix(12,0,0,12,569.8,703.2)" />
<use xlink:href="#f2_2g" transform="matrix(12,0,0,12,579,703.2)" />
<use xlink:href="#f2_24" transform="matrix(12,0,0,12,584.1,703.2)" />
<use xlink:href="#f2_21" transform="matrix(12,0,0,12,593.3,703.2)" />
<use xlink:href="#f2_2g" transform="matrix(12,0,0,12,606,703.2)" />
<use xlink:href="#f2_2b" transform="matrix(12,0,0,12,611.1,703.2)" />
<use xlink:href="#f2_2e" transform="matrix(12,0,0,12,620.3,703.2)" />
<use xlink:href="#f2_2d" transform="matrix(12,0,0,12,626.4,703.2)" />
<use xlink:href="#f2_2h" transform="matrix(12,0,0,12,635.5,703.2)" />
<use xlink:href="#f2_21" transform="matrix(12,0,0,12,644.7,703.2)" />
<use xlink:href="#f2_1x" transform="matrix(12,0,0,12,657.4,703.2)" />
<use xlink:href="#f2_1z" transform="matrix(12,0,0,12,665.5,703.2)" />
<use xlink:href="#f2_2g" transform="matrix(12,0,0,12,673.7,703.2)" />
<use xlink:href="#f2_25" transform="matrix(12,0,0,12,678.8,703.2)" />
<use xlink:href="#f2_2a" transform="matrix(12,0,0,12,683.9,703.2)" />
<use xlink:href="#f2_23" transform="matrix(12,0,0,12,693,703.2)" />
<use xlink:href="#f2_2b" transform="matrix(12,0,0,12,706.8,703.2)" />
<use xlink:href="#f2_2a" transform="matrix(12,0,0,12,715.9,703.2)" />
<use xlink:href="#f2_2g" transform="matrix(12,0,0,12,729.7,703.2)" />
<use xlink:href="#f2_24" transform="matrix(12,0,0,12,734.8,703.2)" />
<use xlink:href="#f2_21" transform="matrix(12,0,0,12,744,703.2)" />
<use xlink:href="#f2_20" transform="matrix(12,0,0,12,756.7,703.2)" />
<use xlink:href="#f2_25" transform="matrix(12,0,0,12,765.8,703.2)" />
<use xlink:href="#f2_2c" transform="matrix(12,0,0,12,770.9,703.2)" />
<use xlink:href="#f2_2b" transform="matrix(12,0,0,12,780.1,703.2)" />
<use xlink:href="#f2_28" transform="matrix(12,0,0,12,789.3,703.2)" />
<use xlink:href="#f2_21" transform="matrix(12,0,0,12,794.4,703.2)" />
<use xlink:href="#f2_g" transform="matrix(12,0,0,12,802.6,703.2)" />
<use xlink:href="#f2_25" transform="matrix(12,0,0,12,811.7,703.2)" />
<use xlink:href="#f2_2f" transform="matrix(12,0,0,12,816.8,703.2)" />
<use xlink:href="#f2_23" transform="matrix(12,0,0,12,55,735.9)" />
<use xlink:href="#f2_25" transform="matrix(12,0,0,12,64.2,735.9)" />
<use xlink:href="#f2_2i" transform="matrix(12,0,0,12,69.3,735.9)" />
<use xlink:href="#f2_21" transform="matrix(12,0,0,12,78.4,735.9)" />
<use xlink:href="#f2_2a" transform="matrix(12,0,0,12,86.6,735.9)" />
<use xlink:href="#f2_1y" transform="matrix(12,0,0,12,100.3,735.9)" />
<use xlink:href="#f2_2l" transform="matrix(12,0,0,12,109.5,735.9)" />
</g>
<g clip-path="url(#c1_160)">
<g fill="#000000" >
<use xlink:href="#f7_8j" transform="matrix(12,0,0,11.7,58.2,762.2)" />
<use xlink:href="#f7_2c" transform="matrix(12,0,0,11.7,86.8,762.2)" />
<use xlink:href="#f7_15" transform="matrix(12,0,0,11.7,111.3,762.2)" />
<use xlink:href="#f6_x" transform="matrix(12,0,0,11.7,70.2,762.2)" />
<use xlink:href="#f6_3a" transform="matrix(12,0,0,11.7,98.2,762.2)" />
</g>
</g>
<image preserveAspectRatio="none" x="58" y="726" width="113" height="30" xlink:href="img/7.png" />
<g fill="#000000" >
<use xlink:href="#f2_c" transform="matrix(12,0,0,12,55,788.9)" />
<use xlink:href="#f2_1y" transform="matrix(12,0,0,12,61.1,788.9)" />
<use xlink:href="#f2_d" transform="matrix(12,0,0,12,70.3,788.9)" />
<use xlink:href="#f2_11" transform="matrix(12,0,0,12,55,811.7)" />
<use xlink:href="#f2_2f" transform="matrix(12,0,0,12,68.2,811.7)" />
<use xlink:href="#f2_2c" transform="matrix(12,0,0,12,80,811.7)" />
<use xlink:href="#f2_21" transform="matrix(12,0,0,12,89.1,811.7)" />
<use xlink:href="#f2_2e" transform="matrix(12,0,0,12,97.3,811.7)" />
<use xlink:href="#f8_17" transform="matrix(12,0,0,12,108,811.7)" />
<use xlink:href="#f8_1x" transform="matrix(12,0,0,12,121.2,811.7)" />
<use xlink:href="#f8_2h" transform="matrix(12,0,0,12,129.4,811.7)" />
<use xlink:href="#f8_2f" transform="matrix(12,0,0,12,138.5,811.7)" />
<use xlink:href="#f8_2f" transform="matrix(12,0,0,12,145.7,811.7)" />
<use xlink:href="#f8_53" transform="matrix(12,0,0,12,152.8,811.7)" />
<use xlink:href="#f8_2f" transform="matrix(12,0,0,12,158.9,811.7)" />
<use xlink:href="#f2_1k" transform="matrix(12,0,0,12,170.7,811.7)" />
<use xlink:href="#f2_24" transform="matrix(12,0,0,12,181.9,811.7)" />
<use xlink:href="#f2_21" transform="matrix(12,0,0,12,191.1,811.7)" />
<use xlink:href="#f2_2b" transform="matrix(12,0,0,12,199.2,811.7)" />
<use xlink:href="#f2_2e" transform="matrix(12,0,0,12,208.4,811.7)" />
<use xlink:href="#f2_21" transform="matrix(12,0,0,12,214.5,811.7)" />
<use xlink:href="#f2_29" transform="matrix(12,0,0,12,222.6,811.7)" />
<use xlink:href="#f2_15" transform="matrix(12,0,0,12,55,846)" />
<use xlink:href="#f2_28" transform="matrix(12,0,0,12,66.2,846)" />
<use xlink:href="#f2_21" transform="matrix(12,0,0,12,71.3,846)" />
<use xlink:href="#f2_1z" transform="matrix(12,0,0,12,79.4,846)" />
<use xlink:href="#f2_2g" transform="matrix(12,0,0,12,87.6,846)" />
<use xlink:href="#f2_2e" transform="matrix(12,0,0,12,92.7,846)" />
<use xlink:href="#f2_25" transform="matrix(12,0,0,12,98.8,846)" />
<use xlink:href="#f2_1z" transform="matrix(12,0,0,12,103.9,846)" />
<use xlink:href="#f2_16" transform="matrix(12,0,0,12,116.7,846)" />
<use xlink:href="#f2_28" transform="matrix(12,0,0,12,126.8,846)" />
<use xlink:href="#f2_2h" transform="matrix(12,0,0,12,131.9,846)" />
<use xlink:href="#f2_2k" transform="matrix(12,0,0,12,141.1,846)" />
</g>
<path d="M229.7,841.5h76.7" class="g2_160" />
<g clip-path="url(#c2_160)">
<g fill="#000000" >
<use xlink:href="#f2_2f" transform="matrix(7,0,0,6.9,168.2,856)" />
<use xlink:href="#f2_2b" transform="matrix(7,0,0,6.9,269.5,865)" />
<use xlink:href="#f2_i" transform="matrix(12.2,0,0,11.9,187.1,846.1)" />
<use xlink:href="#f4_2d" transform="matrix(12.2,0,0,11.9,230.9,834.6)" />
<use xlink:href="#f4_21" transform="matrix(12.2,0,0,11.9,240,834.6)" />
<use xlink:href="#f4_2a" transform="matrix(12.2,0,0,11.9,248,834.6)" />
<use xlink:href="#f4_1z" transform="matrix(12.2,0,0,11.9,257.2,834.6)" />
<use xlink:href="#f4_28" transform="matrix(12.2,0,0,11.9,265.2,834.6)" />
<use xlink:href="#f4_2b" transform="matrix(12.2,0,0,11.9,270.4,834.6)" />
<use xlink:href="#f4_2f" transform="matrix(12.2,0,0,11.9,279.5,834.6)" />
<use xlink:href="#f4_21" transform="matrix(12.2,0,0,11.9,286.7,834.6)" />
<use xlink:href="#f4_20" transform="matrix(12.2,0,0,11.9,294.7,834.6)" />
<use xlink:href="#f4_15" transform="matrix(12.2,0,0,11.9,175.7,846.1)" />
<use xlink:href="#f4_20" transform="matrix(12.2,0,0,11.9,191.1,846.1)" />
<use xlink:href="#f4_1j" transform="matrix(12.2,0,0,11.9,200.3,846.1)" />
<use xlink:href="#f6_x" transform="matrix(12.2,0,0,11.9,215.2,846.1)" />
<use xlink:href="#f6_40" transform="matrix(12.2,0,0,11.9,257.7,860.3)" />
<use xlink:href="#f6_50" transform="matrix(18.3,0,0,17.9,159.9,852.6)" />
</g>
</g>
<image preserveAspectRatio="none" x="175" y="809" width="77" height="31" xlink:href="img/8.png" />
<image preserveAspectRatio="none" x="158" y="821" width="110" height="47" xlink:href="img/9.png" />
<g clip-path="url(#c3_160)">
<g fill="#000000" >
<use xlink:href="#f6_1s" transform="matrix(12,0,0,12,54.9,899.5)" />
</g>
</g>
<g fill="#000000" >
<use xlink:href="#f2_16" transform="matrix(12,0,0,12,71,899.2)" />
<use xlink:href="#f2_2b" transform="matrix(12,0,0,12,81.2,899.2)" />
<use xlink:href="#f2_2e" transform="matrix(12,0,0,12,90.4,899.2)" />
<use xlink:href="#f2_2f" transform="matrix(12,0,0,12,101.1,899.2)" />
<use xlink:href="#f2_2c" transform="matrix(12,0,0,12,108.2,899.2)" />
<use xlink:href="#f2_24" transform="matrix(12,0,0,12,117.4,899.2)" />
<use xlink:href="#f2_21" transform="matrix(12,0,0,12,126.6,899.2)" />
<use xlink:href="#f2_2e" transform="matrix(12,0,0,12,134.7,899.2)" />
<use xlink:href="#f2_21" transform="matrix(12,0,0,12,140.8,899.2)" />
<use xlink:href="#f2_1j" transform="matrix(12,0,0,12,153.6,899.2)" />
<use xlink:href="#f2_l" transform="matrix(10.5,0,0,10.5,163.7,900.8)" />
<use xlink:href="#f2_g" transform="matrix(12,0,0,12,171.8,899.2)" />
<use xlink:href="#f2_22" transform="matrix(12,0,0,12,181,899.2)" />
<use xlink:href="#f2_28" transform="matrix(12,0,0,12,187.1,899.2)" />
<use xlink:href="#f2_2h" transform="matrix(12,0,0,12,192.2,899.2)" />
<use xlink:href="#f2_2k" transform="matrix(12,0,0,12,201.3,899.2)" />
<use xlink:href="#f2_21" transform="matrix(12,0,0,12,215.1,899.2)" />
<use xlink:href="#f2_2a" transform="matrix(12,0,0,12,223.2,899.2)" />
<use xlink:href="#f2_1z" transform="matrix(12,0,0,12,232.4,899.2)" />
<use xlink:href="#f2_28" transform="matrix(12,0,0,12,240.5,899.2)" />
<use xlink:href="#f2_2b" transform="matrix(12,0,0,12,245.7,899.2)" />
<use xlink:href="#f2_2f" transform="matrix(12,0,0,12,254.8,899.2)" />
<use xlink:href="#f2_21" transform="matrix(12,0,0,12,261.9,899.2)" />
<use xlink:href="#f2_20" transform="matrix(12,0,0,12,270,899.2)" />
<use xlink:href="#f2_x" transform="matrix(12,0,0,12,283.8,899.2)" />
<use xlink:href="#f3_1kn" transform="matrix(12,0,0,12,298.8,899.2)" />
<use xlink:href="#f2_l" transform="matrix(10.5,0,0,10.5,311.2,900.8)" />
<use xlink:href="#f2_x" transform="matrix(12,0,0,12,323.9,899.2)" />
</g>
<path d="M337.2,894.8h24.2" class="g3_160" />
<g clip-path="url(#c4_160)">
<g fill="#000000" >
<use xlink:href="#f2_2b" transform="matrix(6.5,0,0,6.9,350.7,918.3)" />
<use xlink:href="#f2_m" transform="matrix(11.3,0,0,11.9,338.3,887.9)" />
<use xlink:href="#f4_1h" transform="matrix(11.3,0,0,11.9,347.2,887.9)" />
<use xlink:href="#f6_40" transform="matrix(11.3,0,0,11.9,339,913.6)" />
</g>
</g>
<g fill="#000000" >
<use xlink:href="#f2_16" transform="matrix(12,0,0,12,55,953)" />
<use xlink:href="#f2_2b" transform="matrix(12,0,0,12,65.2,953)" />
<use xlink:href="#f2_2e" transform="matrix(12,0,0,12,74.4,953)" />
<use xlink:href="#f2_2f" transform="matrix(12,0,0,12,85,953)" />
<use xlink:href="#f2_2c" transform="matrix(12,0,0,12,92.2,953)" />
<use xlink:href="#f2_24" transform="matrix(12,0,0,12,101.3,953)" />
<use xlink:href="#f2_21" transform="matrix(12,0,0,12,110.5,953)" />
<use xlink:href="#f2_2e" transform="matrix(12,0,0,12,118.7,953)" />
<use xlink:href="#f2_21" transform="matrix(12,0,0,12,124.8,953)" />
<use xlink:href="#f2_1j" transform="matrix(12,0,0,12,137.6,953)" />
<use xlink:href="#f2_m" transform="matrix(10.5,0,0,10.5,147.7,954.6)" />
<use xlink:href="#f2_g" transform="matrix(12,0,0,12,160.4,953)" />
<use xlink:href="#f2_22" transform="matrix(12,0,0,12,169.5,953)" />
<use xlink:href="#f2_28" transform="matrix(12,0,0,12,175.6,953)" />
<use xlink:href="#f2_2h" transform="matrix(12,0,0,12,180.7,953)" />
<use xlink:href="#f2_2k" transform="matrix(12,0,0,12,189.9,953)" />
<use xlink:href="#f2_21" transform="matrix(12,0,0,12,203.6,953)" />
<use xlink:href="#f2_2a" transform="matrix(12,0,0,12,211.8,953)" />
<use xlink:href="#f2_1z" transform="matrix(12,0,0,12,220.9,953)" />
<use xlink:href="#f2_28" transform="matrix(12,0,0,12,229.1,953)" />
<use xlink:href="#f2_2b" transform="matrix(12,0,0,12,234.2,953)" />
<use xlink:href="#f2_2f" transform="matrix(12,0,0,12,243.4,953)" />
<use xlink:href="#f2_21" transform="matrix(12,0,0,12,250.5,953)" />
<use xlink:href="#f2_20" transform="matrix(12,0,0,12,258.6,953)" />
<use xlink:href="#f2_x" transform="matrix(12,0,0,12,267.8,953)" />
<use xlink:href="#f3_1kn" transform="matrix(12,0,0,12,278.1,953)" />
<use xlink:href="#f2_m" transform="matrix(10.5,0,0,10.5,290.6,954.6)" />
<use xlink:href="#f2_x" transform="matrix(12,0,0,12,303.3,953)" />
</g>
<path d="M316.6,948.6h59.1m19.6,0h24.1" class="g4_160" />
<g clip-path="url(#c5_160)">
<g fill="#000000" >
<use xlink:href="#f2_2b" transform="matrix(7,0,0,6.9,347.6,972)" />
<use xlink:href="#f2_2b" transform="matrix(7,0,0,6.9,408.7,972)" />
<use xlink:href="#f2_m" transform="matrix(12.1,0,0,11.9,317.8,941.7)" />
<use xlink:href="#f2_q" transform="matrix(12.1,0,0,11.9,396.1,941.7)" />
<use xlink:href="#f4_1h" transform="matrix(12.1,0,0,11.9,326.6,941.7)" />
<use xlink:href="#f4_f" transform="matrix(12.1,0,0,11.9,339.8,941.7)" />
<use xlink:href="#f4_o" transform="matrix(12.1,0,0,11.9,352.2,941.7)" />
<use xlink:href="#f4_1h" transform="matrix(12.1,0,0,11.9,361.4,941.7)" />
<use xlink:href="#f4_1h" transform="matrix(12.1,0,0,11.9,405,941.7)" />
<use xlink:href="#f6_x" transform="matrix(12.1,0,0,11.9,380.6,953.1)" />
<use xlink:href="#f6_40" transform="matrix(12.1,0,0,11.9,335.8,967.3)" />
<use xlink:href="#f6_40" transform="matrix(12.1,0,0,11.9,396.9,967.3)" />
</g>
</g>
<path d="M72.7,1002.4H91.4m19.5,0h9.8" class="g5_160" />
<g clip-path="url(#c6_160)">
<g fill="#000000" >
<use xlink:href="#f2_l" transform="matrix(7,0,0,6.9,83.3,1000.1)" />
<use xlink:href="#f2_m" transform="matrix(7,0,0,6.9,83.5,1025.9)" />
<use xlink:href="#f2_l" transform="matrix(12.1,0,0,11.9,111.2,995.5)" />
<use xlink:href="#f2_n" transform="matrix(12.1,0,0,11.9,111.5,1021.2)" />
<use xlink:href="#f6_22" transform="matrix(12.1,0,0,11.9,74.5,995.5)" />
<use xlink:href="#f6_1s" transform="matrix(12.1,0,0,11.9,55,1007)" />
<use xlink:href="#f6_x" transform="matrix(12.1,0,0,11.9,96.3,1007)" />
<use xlink:href="#f6_22" transform="matrix(12.1,0,0,11.9,73.6,1021.2)" />
</g>
</g>
<g fill="#000000" >
<use xlink:href="#f2_1n" transform="matrix(12,0,0,12,55,1060.1)" />
<use xlink:href="#f2_24" transform="matrix(12,0,0,12,72.2,1060.1)" />
<use xlink:href="#f2_21" transform="matrix(12,0,0,12,81.4,1060.1)" />
<use xlink:href="#f2_2a" transform="matrix(12,0,0,12,89.5,1060.1)" />
<use xlink:href="#f2_1x" transform="matrix(12,0,0,12,103.3,1060.1)" />
<use xlink:href="#f2_29" transform="matrix(12,0,0,12,116.1,1060.1)" />
<use xlink:href="#f2_21" transform="matrix(12,0,0,12,130.2,1060.1)" />
<use xlink:href="#f2_20" transform="matrix(12,0,0,12,138.4,1060.1)" />
<use xlink:href="#f2_25" transform="matrix(12,0,0,12,147.6,1060.1)" />
<use xlink:href="#f2_2h" transform="matrix(12,0,0,12,152.7,1060.1)" />
<use xlink:href="#f2_29" transform="matrix(12,0,0,12,161.9,1060.1)" />
<use xlink:href="#f2_2b" transform="matrix(12,0,0,12,180.6,1060.1)" />
<use xlink:href="#f2_22" transform="matrix(12,0,0,12,189.9,1060.1)" />
<use xlink:href="#f2_20" transform="matrix(12,0,0,12,200.6,1060.1)" />
<use xlink:href="#f2_25" transform="matrix(12,0,0,12,209.7,1060.1)" />
<use xlink:href="#f2_21" transform="matrix(12,0,0,12,214.8,1060.1)" />
<use xlink:href="#f2_28" transform="matrix(12,0,0,12,223,1060.1)" />
<use xlink:href="#f2_21" transform="matrix(12,0,0,12,228.1,1060.1)" />
<use xlink:href="#f2_1z" transform="matrix(12,0,0,12,236.2,1060.1)" />
<use xlink:href="#f2_2g" transform="matrix(12,0,0,12,244.3,1060.1)" />
<use xlink:href="#f2_2e" transform="matrix(12,0,0,12,249.4,1060.1)" />
<use xlink:href="#f2_25" transform="matrix(12,0,0,12,255.5,1060.1)" />
<use xlink:href="#f2_1z" transform="matrix(12,0,0,12,260.6,1060.1)" />
<use xlink:href="#f2_1z" transform="matrix(12,0,0,12,273.4,1060.1)" />
<use xlink:href="#f2_2b" transform="matrix(12,0,0,12,281.5,1060.1)" />
<use xlink:href="#f2_2a" transform="matrix(12,0,0,12,290.7,1060.1)" />
<use xlink:href="#f2_2f" transform="matrix(12,0,0,12,299.8,1060.1)" />
<use xlink:href="#f2_25" transform="matrix(12,0,0,12,307,1060.1)" />
<use xlink:href="#f2_2f" transform="matrix(12,0,0,12,312.1,1060.1)" />
<use xlink:href="#f2_2g" transform="matrix(12,0,0,12,319.2,1060.1)" />
<use xlink:href="#f2_21" transform="matrix(12,0,0,12,324.3,1060.1)" />
<use xlink:href="#f2_2a" transform="matrix(12,0,0,12,332.4,1060.1)" />
<use xlink:href="#f2_2g" transform="matrix(12,0,0,12,341.6,1060.1)" />
<use xlink:href="#f3_15d" transform="matrix(12,0,0,12,351.4,1060.1)" />
<use xlink:href="#f3_1fz" transform="matrix(12,0,0,12,362.8,1060.1)" />
<use xlink:href="#f2_25" transform="matrix(12,0,0,12,376.2,1060.1)" />
<use xlink:href="#f2_2f" transform="matrix(12,0,0,12,381.3,1060.1)" />
<use xlink:href="#f2_25" transform="matrix(12,0,0,12,393,1060.1)" />
<use xlink:href="#f2_2a" transform="matrix(12,0,0,12,398.1,1060.1)" />
<use xlink:href="#f2_2g" transform="matrix(12,0,0,12,407.2,1060.1)" />
<use xlink:href="#f2_2e" transform="matrix(12,0,0,12,412.3,1060.1)" />
<use xlink:href="#f2_2b" transform="matrix(12,0,0,12,418.4,1060.1)" />
<use xlink:href="#f2_20" transform="matrix(12,0,0,12,427.6,1060.1)" />
<use xlink:href="#f2_2h" transform="matrix(12,0,0,12,436.7,1060.1)" />
<use xlink:href="#f2_1z" transform="matrix(12,0,0,12,445.9,1060.1)" />
<use xlink:href="#f2_21" transform="matrix(12,0,0,12,454.1,1060.1)" />
<use xlink:href="#f2_20" transform="matrix(12,0,0,12,462.2,1060.1)" />
<use xlink:href="#f2_25" transform="matrix(12,0,0,12,476,1060.1)" />
<use xlink:href="#f2_2a" transform="matrix(12,0,0,12,481.1,1060.1)" />
<use xlink:href="#f2_2f" transform="matrix(12,0,0,12,494.8,1060.1)" />
<use xlink:href="#f2_2c" transform="matrix(12,0,0,12,501.9,1060.1)" />
<use xlink:href="#f2_24" transform="matrix(12,0,0,12,511.1,1060.1)" />
<use xlink:href="#f2_21" transform="matrix(12,0,0,12,520.3,1060.1)" />
<use xlink:href="#f2_2e" transform="matrix(12,0,0,12,528.4,1060.1)" />
<use xlink:href="#f2_21" transform="matrix(12,0,0,12,534.5,1060.1)" />
<use xlink:href="#f2_1j" transform="matrix(12,0,0,12,547.2,1060.1)" />
<use xlink:href="#f2_l" transform="matrix(12,0,0,12,557.4,1060.1)" />
<use xlink:href="#f2_2g" transform="matrix(12,0,0,12,571.2,1060.1)" />
<use xlink:href="#f2_24" transform="matrix(12,0,0,12,576.3,1060.1)" />
<use xlink:href="#f2_21" transform="matrix(12,0,0,12,585.5,1060.1)" />
<use xlink:href="#f2_22" transform="matrix(12,0,0,12,598.1,1060.1)" />
<use xlink:href="#f2_28" transform="matrix(12,0,0,12,604.3,1060.1)" />
<use xlink:href="#f2_2h" transform="matrix(12,0,0,12,609.4,1060.1)" />
<use xlink:href="#f2_2k" transform="matrix(12,0,0,12,618.5,1060.1)" />
<use xlink:href="#f2_2g" transform="matrix(12,0,0,12,632.3,1060.1)" />
<use xlink:href="#f2_24" transform="matrix(12,0,0,12,637.4,1060.1)" />
<use xlink:href="#f2_2e" transform="matrix(12,0,0,12,646.6,1060.1)" />
<use xlink:href="#f2_2b" transform="matrix(12,0,0,12,652.7,1060.1)" />
<use xlink:href="#f2_2h" transform="matrix(12,0,0,12,661.9,1060.1)" />
<use xlink:href="#f2_23" transform="matrix(12,0,0,12,671.1,1060.1)" />
<use xlink:href="#f2_24" transform="matrix(12,0,0,12,680.1,1060.1)" />
<use xlink:href="#f2_1j" transform="matrix(12,0,0,12,693.9,1060.1)" />
<use xlink:href="#f2_l" transform="matrix(10.5,0,0,10.5,704.1,1061.7)" />
<use xlink:href="#f2_2j" transform="matrix(12,0,0,12,716.7,1060.1)" />
<use xlink:href="#f2_2b" transform="matrix(12,0,0,12,730,1060.1)" />
<use xlink:href="#f2_2h" transform="matrix(12,0,0,12,739.1,1060.1)" />
<use xlink:href="#f2_28" transform="matrix(12,0,0,12,748.3,1060.1)" />
<use xlink:href="#f2_20" transform="matrix(12,0,0,12,753.4,1060.1)" />
<use xlink:href="#f2_1y" transform="matrix(12,0,0,12,767.2,1060.1)" />
<use xlink:href="#f2_21" transform="matrix(12,0,0,12,776.3,1060.1)" />
</g>
<path d="M825,1055.7h24.2" class="g6_160" />
<g clip-path="url(#c7_160)">
<g fill="#000000" >
<use xlink:href="#f2_l" transform="matrix(7,0,0,6.9,800.1,1064.9)" />
<use xlink:href="#f2_2e" transform="matrix(7,0,0,6.9,839.3,1079.2)" />
<use xlink:href="#f2_m" transform="matrix(12.2,0,0,11.9,826.2,1048.7)" />
<use xlink:href="#f4_1h" transform="matrix(12.2,0,0,11.9,835,1048.7)" />
<use xlink:href="#f6_2s" transform="matrix(11.1,0,0,10.9,800.4,1058.9)" />
<use xlink:href="#f6_22" transform="matrix(12.2,0,0,11.9,791.4,1060.2)" />
<use xlink:href="#f6_x" transform="matrix(12.2,0,0,11.9,810.5,1060.2)" />
<use xlink:href="#f6_40" transform="matrix(12.2,0,0,11.9,827.5,1074.5)" />
</g>
</g>
<g fill="#000000" >
<use xlink:href="#f2_1r" transform="matrix(12,0,0,12,55,1113.9)" />
<use xlink:href="#f2_11" transform="matrix(12,0,0,12,61.1,1113.9)" />
<use xlink:href="#f2_28" transform="matrix(12,0,0,12,74.3,1113.9)" />
<use xlink:href="#f2_2f" transform="matrix(12,0,0,12,79.3,1113.9)" />
<use xlink:href="#f2_2b" transform="matrix(12,0,0,12,86.5,1113.9)" />
<use xlink:href="#f2_1x" transform="matrix(12,0,0,12,100.2,1113.9)" />
<use xlink:href="#f2_2j" transform="matrix(12,0,0,12,108.4,1113.9)" />
<use xlink:href="#f2_1x" transform="matrix(12,0,0,12,121.7,1113.9)" />
<use xlink:href="#f2_2e" transform="matrix(12,0,0,12,129.8,1113.9)" />
<use xlink:href="#f2_20" transform="matrix(12,0,0,12,135.9,1113.9)" />
<use xlink:href="#f2_2g" transform="matrix(12,0,0,12,149.7,1113.9)" />
<use xlink:href="#f2_24" transform="matrix(12,0,0,12,154.8,1113.9)" />
<use xlink:href="#f2_25" transform="matrix(12,0,0,12,164,1113.9)" />
<use xlink:href="#f2_2f" transform="matrix(12,0,0,12,169.1,1113.9)" />
<use xlink:href="#f2_29" transform="matrix(12,0,0,12,180.8,1113.9)" />
<use xlink:href="#f2_1x" transform="matrix(12,0,0,12,194.9,1113.9)" />
<use xlink:href="#f2_2e" transform="matrix(12,0,0,12,203.1,1113.9)" />
<use xlink:href="#f2_27" transform="matrix(12,0,0,12,209.2,1113.9)" />
<use xlink:href="#f2_25" transform="matrix(12,0,0,12,223,1113.9)" />
<use xlink:href="#f2_22" transform="matrix(12,0,0,12,228.1,1113.9)" />
<use xlink:href="#f2_2g" transform="matrix(12,0,0,12,238.8,1113.9)" />
<use xlink:href="#f2_24" transform="matrix(12,0,0,12,243.9,1113.9)" />
<use xlink:href="#f2_21" transform="matrix(12,0,0,12,253,1113.9)" />
<use xlink:href="#f2_2f" transform="matrix(12,0,0,12,265.7,1113.9)" />
<use xlink:href="#f2_2g" transform="matrix(12,0,0,12,272.9,1113.9)" />
<use xlink:href="#f2_2h" transform="matrix(12,0,0,12,278,1113.9)" />
<use xlink:href="#f2_20" transform="matrix(12,0,0,12,287.2,1113.9)" />
<use xlink:href="#f2_21" transform="matrix(12,0,0,12,296.3,1113.9)" />
<use xlink:href="#f2_2a" transform="matrix(12,0,0,12,304.4,1113.9)" />
<use xlink:href="#f2_2g" transform="matrix(12,0,0,12,313.6,1113.9)" />
<use xlink:href="#f2_2j" transform="matrix(12,0,0,12,323.3,1113.9)" />
<use xlink:href="#f2_2e" transform="matrix(12,0,0,12,336.4,1113.9)" />
<use xlink:href="#f2_25" transform="matrix(12,0,0,12,342.5,1113.9)" />
<use xlink:href="#f2_2g" transform="matrix(12,0,0,12,347.7,1113.9)" />
<use xlink:href="#f2_21" transform="matrix(12,0,0,12,352.8,1113.9)" />
<use xlink:href="#f2_2f" transform="matrix(12,0,0,12,360.9,1113.9)" />
<use xlink:href="#f3_1kn" transform="matrix(12,0,0,12,372.8,1113.9)" />
<use xlink:href="#f2_l" transform="matrix(10.5,0,0,10.5,385.3,1115.5)" />
<use xlink:href="#f2_x" transform="matrix(12,0,0,12,398,1113.9)" />
</g>
<path d="M411.3,1109.5h29.1" class="g7_160" />
<g clip-path="url(#c8_160)">
<g fill="#000000" >
<use xlink:href="#f2_2b" transform="matrix(6.9,0,0,6.9,422.1,1132.9)" />
<use xlink:href="#f2_2e" transform="matrix(6.9,0,0,6.9,433.9,1132.9)" />
<use xlink:href="#f2_m" transform="matrix(12,0,0,11.9,414.9,1102.6)" />
<use xlink:href="#f4_1h" transform="matrix(12,0,0,11.9,423.7,1102.6)" />
<use xlink:href="#f6_40" transform="matrix(6.9,0,0,6.9,426.9,1132.9)" />
<use xlink:href="#f6_40" transform="matrix(12,0,0,11.9,410.5,1128.2)" />
</g>
</g>
<g fill="#000000" >
<use xlink:href="#f2_1t" transform="matrix(12,0,0,12,444.9,1113.9)" />
<use xlink:href="#f2_1r" transform="matrix(12,0,0,12,55,1161.9)" />
<use xlink:href="#f2_1e" transform="matrix(12,0,0,12,61.1,1161.9)" />
<use xlink:href="#f2_2b" transform="matrix(12,0,0,12,74.3,1161.9)" />
<use xlink:href="#f2_2g" transform="matrix(12,0,0,12,83.4,1161.9)" />
<use xlink:href="#f2_21" transform="matrix(12,0,0,12,88.5,1161.9)" />
<use xlink:href="#f2_u" transform="matrix(12,0,0,12,101.2,1161.9)" />
<use xlink:href="#f2_19" transform="matrix(12,0,0,12,111,1161.9)" />
<use xlink:href="#f2_22" transform="matrix(12,0,0,12,117.1,1161.9)" />
<use xlink:href="#f2_2g" transform="matrix(12,0,0,12,127.8,1161.9)" />
<use xlink:href="#f2_24" transform="matrix(12,0,0,12,132.9,1161.9)" />
<use xlink:href="#f2_21" transform="matrix(12,0,0,12,142,1161.9)" />
<use xlink:href="#f2_2f" transform="matrix(12,0,0,12,154.8,1161.9)" />
<use xlink:href="#f2_2g" transform="matrix(12,0,0,12,161.9,1161.9)" />
<use xlink:href="#f2_2h" transform="matrix(12,0,0,12,167,1161.9)" />
<use xlink:href="#f2_20" transform="matrix(12,0,0,12,176.2,1161.9)" />
<use xlink:href="#f2_21" transform="matrix(12,0,0,12,185.4,1161.9)" />
<use xlink:href="#f2_2a" transform="matrix(12,0,0,12,193.5,1161.9)" />
<use xlink:href="#f2_2g" transform="matrix(12,0,0,12,202.7,1161.9)" />
<use xlink:href="#f2_26" transform="matrix(12,0,0,12,212.4,1161.9)" />
<use xlink:href="#f2_2h" transform="matrix(12,0,0,12,217.5,1161.9)" />
<use xlink:href="#f2_2f" transform="matrix(12,0,0,12,226.6,1161.9)" />
<use xlink:href="#f2_2g" transform="matrix(12,0,0,12,233.8,1161.9)" />
<use xlink:href="#f2_2j" transform="matrix(12,0,0,12,243.4,1161.9)" />
<use xlink:href="#f2_2e" transform="matrix(12,0,0,12,256.7,1161.9)" />
<use xlink:href="#f2_25" transform="matrix(12,0,0,12,262.8,1161.9)" />
<use xlink:href="#f2_2g" transform="matrix(12,0,0,12,267.9,1161.9)" />
<use xlink:href="#f2_21" transform="matrix(12,0,0,12,273,1161.9)" />
<use xlink:href="#f2_2f" transform="matrix(12,0,0,12,281.1,1161.9)" />
<use xlink:href="#f2_2g" transform="matrix(12,0,0,12,292.8,1161.9)" />
<use xlink:href="#f2_24" transform="matrix(12,0,0,12,298,1161.9)" />
<use xlink:href="#f2_1x" transform="matrix(12,0,0,12,307.1,1161.9)" />
<use xlink:href="#f2_2g" transform="matrix(12,0,0,12,315.2,1161.9)" />
<use xlink:href="#f2_2g" transform="matrix(12,0,0,12,324.8,1161.9)" />
<use xlink:href="#f2_24" transform="matrix(12,0,0,12,329.9,1161.9)" />
<use xlink:href="#f2_21" transform="matrix(12,0,0,12,339.1,1161.9)" />
<use xlink:href="#f2_22" transform="matrix(12,0,0,12,351.8,1161.9)" />
<use xlink:href="#f2_28" transform="matrix(12,0,0,12,357.9,1161.9)" />
<use xlink:href="#f2_2h" transform="matrix(12,0,0,12,363,1161.9)" />
<use xlink:href="#f2_2k" transform="matrix(12,0,0,12,372.2,1161.9)" />
<use xlink:href="#f2_2g" transform="matrix(12,0,0,12,386.1,1161.9)" />
<use xlink:href="#f2_24" transform="matrix(12,0,0,12,391.2,1161.9)" />
<use xlink:href="#f2_2e" transform="matrix(12,0,0,12,400.3,1161.9)" />
<use xlink:href="#f2_2b" transform="matrix(12,0,0,12,406.5,1161.9)" />
<use xlink:href="#f2_2h" transform="matrix(12,0,0,12,415.6,1161.9)" />
<use xlink:href="#f2_23" transform="matrix(12,0,0,12,424.7,1161.9)" />
<use xlink:href="#f2_24" transform="matrix(12,0,0,12,433.9,1161.9)" />
<use xlink:href="#f2_1j" transform="matrix(12,0,0,12,447.7,1161.9)" />
<use xlink:href="#f2_l" transform="matrix(10.5,0,0,10.5,457.8,1163.4)" />
<use xlink:href="#f2_20" transform="matrix(12,0,0,12,470.5,1161.9)" />
<use xlink:href="#f2_21" transform="matrix(12,0,0,12,479.7,1161.9)" />
<use xlink:href="#f2_1z" transform="matrix(12,0,0,12,487.8,1161.9)" />
<use xlink:href="#f2_2e" transform="matrix(12,0,0,12,495.9,1161.9)" />
<use xlink:href="#f2_21" transform="matrix(12,0,0,12,502,1161.9)" />
<use xlink:href="#f2_1x" transform="matrix(12,0,0,12,510.2,1161.9)" />
<use xlink:href="#f2_2f" transform="matrix(12,0,0,12,518.3,1161.9)" />
<use xlink:href="#f2_21" transform="matrix(12,0,0,12,525.5,1161.9)" />
<use xlink:href="#f2_2f" transform="matrix(12,0,0,12,533.6,1161.9)" />
<use xlink:href="#f2_g" transform="matrix(12,0,0,12,540.8,1161.9)" />
<use xlink:href="#f2_1x" transform="matrix(12,0,0,12,549.9,1161.9)" />
<use xlink:href="#f2_2j" transform="matrix(12,0,0,12,558.1,1161.9)" />
<use xlink:href="#f2_1x" transform="matrix(12,0,0,12,571.3,1161.9)" />
<use xlink:href="#f2_2e" transform="matrix(12,0,0,12,579.4,1161.9)" />
<use xlink:href="#f2_20" transform="matrix(12,0,0,12,585.6,1161.9)" />
<use xlink:href="#f2_3k" transform="matrix(12,0,0,12,599.2,1161.9)" />
<use xlink:href="#f2_29" transform="matrix(12,0,0,12,613.1,1161.9)" />
<use xlink:href="#f2_1x" transform="matrix(12,0,0,12,627.2,1161.9)" />
<use xlink:href="#f2_2e" transform="matrix(12,0,0,12,635.3,1161.9)" />
<use xlink:href="#f2_27" transform="matrix(12,0,0,12,641.4,1161.9)" />
<use xlink:href="#f2_2b" transform="matrix(12,0,0,12,655.2,1161.9)" />
<use xlink:href="#f2_2a" transform="matrix(12,0,0,12,664.4,1161.9)" />
<use xlink:href="#f2_28" transform="matrix(12,0,0,12,673.6,1161.9)" />
<use xlink:href="#f2_2l" transform="matrix(12,0,0,12,678.7,1161.9)" />
<use xlink:href="#f2_i" transform="matrix(12,0,0,12,687.8,1161.9)" />
<use xlink:href="#f2_1t" transform="matrix(12,0,0,12,692.4,1161.9)" />
</g>
<image preserveAspectRatio="none" x="55" y="127" width="417" height="437" xlink:href="img/10.png" />
<path fill-rule="evenodd" d="M37.4,38.1h.7v-.7h-.7v.7Z" class="g8_160" />
<path fill-rule="evenodd" d="M37.4,38.1h.7v-.7h-.7v.7Z" class="g8_160" />
<path fill-rule="evenodd" d="M38.1,38.1H871.5v-.7H38.1v.7Z" class="g8_160" />
<path fill-rule="evenodd" d="M871.5,38.1h.7v-.7h-.7v.7Z" class="g8_160" />
<path fill-rule="evenodd" d="M871.5,38.1h.7v-.7h-.7v.7Z" class="g8_160" />
<path fill-rule="evenodd" d="M37.4,1248.2h.7V38.1h-.7V1248.2Z" class="g8_160" />
<path fill-rule="evenodd" d="M872.2,1248.2h.8V38.1h-.8V1248.2Z" class="g8_160" />
<path fill-rule="evenodd" d="M871.5,1248.2h.7V38.1h-.7V1248.2Z" class="g8_160" />
<path fill-rule="evenodd" d="M37.4,1249h.7v-.8h-.7v.8Z" class="g8_160" />
<path fill-rule="evenodd" d="M37.4,1249h.7v-.8h-.7v.8Z" class="g8_160" />
<path fill-rule="evenodd" d="M38.1,1249.7H871.5v-.7H38.1v.7Z" class="g8_160" />
<path fill-rule="evenodd" d="M38.1,1249H871.5v-.8H38.1v.8Z" class="g8_160" />
<path fill-rule="evenodd" d="M872.2,1249.7h.8v-1.5h-.8v1.5Z" class="g8_160" />
<path fill-rule="evenodd" d="M871.5,1249.7H873v-.7h-1.5v.7Z" class="g8_160" />
<path fill-rule="evenodd" d="M871.5,1249h.7v-.8h-.7v.8Z" class="g8_160" />
<path fill-rule="evenodd" d="M871.5,1249h.7v-.8h-.7v.8Z" class="g8_160" />
<defs>
<path d="M489,-15c0,0,-99,0,-179,30c0,0,-80,30,-136,91c0,0,-56,61,-85,152c0,0,-30,91,-30,212c0,0,0,123,32,218c0,0,33,96,92,161c0,0,59,65,142,98c0,0,82,34,181,34c0,0,40,0,78,-7c0,0,37,-7,69,-18c0,0,31,-11,57,-25c0,0,25,-14,35,-24c0,0,10,-10,14,-17c0,0,4,-7,6,-17c0,0,2,-11,3,-25c0,0,2,-14,2,-35c0,0,0,-22,-2,-38c0,0,-1,-15,-5,-25c0,0,-4,-10,-9,-14c0,0,-5,-5,-12,-5c0,0,-11,0,-28,13c0,0,-18,13,-45,29c0,0,-27,16,-65,29c0,0,-37,13,-89,13c0,0,-58,0,-103,-23c0,0,-45,-23,-77,-67c0,0,-31,-44,-48,-106c0,0,-16,-61,-16,-139c0,0,0,-85,17,-147c0,0,18,-62,50,-103c0,0,33,-40,79,-60c0,0,45,-19,103,-19c0,0,52,0,90,12c0,0,38,12,65,27c0,0,27,15,45,27c0,0,17,12,27,12c0,0,8,0,12,-3c0,0,4,-3,7,-12c0,0,3,-9,5,-25c0,0,1,-16,1,-43c0,0,0,-18,-1,-31c0,0,-1,-14,-3,-23c0,0,-2,-9,-6,-16c0,0,-4,-7,-12,-15c0,0,-8,-9,-32,-22c0,0,-23,-14,-57,-26C661,13,627,1,583,-6c0,0,-43,-9,-94,-9Z" 
id="f0_j"
transform="scale(0.001,-0.001)" />

<path d="M440,150c0,0,41,0,68,8c0,0,28,9,49,26c0,0,20,16,32,41c0,0,11,25,11,58c0,0,0,33,-11,60c0,0,-11,26,-33,44c0,0,-21,18,-55,28c0,0,-33,9,-87,9H298V150ZM407,567c0,0,42,0,68,10c0,0,25,10,42,28c0,0,16,17,24,41c0,0,9,24,9,50c0,0,0,29,-9,52c0,0,-9,23,-27,39c0,0,-18,15,-45,23c0,0,-27,8,-72,8H298V567ZM164,0c0,0,-25,0,-42,15c0,0,-16,14,-16,47V903c0,0,0,33,16,48c0,0,17,14,42,14H406c0,0,88,0,150,-15c0,0,61,-15,103,-45c0,0,42,-30,65,-77c0,0,22,-46,22,-108c0,0,0,-36,-9,-67c0,0,-9,-31,-26,-56c0,0,-17,-25,-42,-45c0,0,-25,-19,-57,-31c0,0,41,-7,76,-26c0,0,34,-19,60,-48c0,0,26,-30,41,-69c0,0,15,-40,15,-89c0,0,0,-51,-14,-93c0,0,-15,-42,-40,-74c0,0,-25,-32,-59,-55c0,0,-35,-23,-77,-38C614,29,573,14,525,7C525,7,478,0,420,0Z" 
id="f0_i"
transform="scale(0.001,-0.001)" />

<path d="M320,-17c0,0,-50,0,-93,9c0,0,-43,8,-76,19c0,0,-32,11,-54,24C97,35,75,48,65,58c0,0,-10,9,-14,28c0,0,-4,18,-4,52c0,0,0,23,1,39c0,0,2,15,5,25c0,0,4,10,9,14c0,0,6,4,13,4c0,0,11,0,30,-12c0,0,19,-13,49,-28c0,0,30,-15,71,-27c0,0,42,-12,96,-12c0,0,36,0,64,8c0,0,29,9,49,25c0,0,19,15,30,38c0,0,10,23,10,52c0,0,0,33,-18,56c0,0,-18,24,-46,42c0,0,-29,18,-66,34c0,0,-36,16,-75,34c0,0,-39,18,-76,41c0,0,-36,23,-65,54c0,0,-29,32,-47,75c0,0,-17,44,-17,104c0,0,0,70,25,122c0,0,26,53,70,88c0,0,43,34,103,51c0,0,59,18,125,18c0,0,35,0,69,-6c0,0,34,-5,64,-14c0,0,30,-9,53,-20c0,0,23,-11,31,-18c0,0,7,-8,10,-13c0,0,3,-5,4,-14c0,0,2,-8,3,-21c0,0,1,-13,1,-33c0,0,0,-21,-1,-36c0,0,-1,-15,-4,-25c0,0,-3,-9,-7,-14c0,0,-5,-4,-14,-4c0,0,-8,0,-26,10c0,0,-18,10,-44,23c0,0,-26,12,-60,22c0,0,-34,10,-75,10c0,0,-32,0,-56,-8c0,0,-24,-8,-40,-21c0,0,-16,-14,-24,-34c0,0,-8,-19,-8,-41c0,0,0,-32,18,-56c0,0,17,-23,46,-42c0,0,30,-18,67,-34c0,0,38,-16,76,-34c0,0,39,-18,76,-41c0,0,38,-22,67,-54c0,0,29,-32,47,-75c0,0,18,-43,18,-101c0,0,0,-76,-29,-133c0,0,-28,-58,-77,-96C572,60,524,21,459,2c0,0,-65,-19,-139,-19Z" 
id="f0_2n"
transform="scale(0.001,-0.001)" />

<path d="M164,0c0,0,-25,0,-42,15c0,0,-16,14,-16,47V903c0,0,0,33,16,48c0,0,17,14,42,14H645c0,0,7,0,12,-4c0,0,5,-3,9,-13c0,0,4,-9,6,-24c0,0,2,-14,2,-36c0,0,0,-21,-2,-36c0,0,-2,-14,-6,-23c0,0,-4,-9,-9,-13c0,0,-5,-4,-12,-4H301V576H593c0,0,6,0,12,-4c0,0,6,-4,9,-13c0,0,4,-8,6,-23c0,0,2,-14,2,-35c0,0,0,-22,-2,-36c0,0,-2,-14,-6,-23c0,0,-3,-8,-9,-12c0,0,-6,-4,-12,-4H301V154H649c0,0,6,0,12,-5c0,0,5,-4,9,-13c0,0,4,-9,6,-23c0,0,2,-15,2,-36c0,0,0,-22,-2,-36c0,0,-2,-15,-6,-24c0,0,-4,-9,-9,-13c0,0,-6,-4,-12,-4Z" 
id="f0_t"
transform="scale(0.001,-0.001)" />

<path d="M79,297c0,0,-19,0,-27,18c0,0,-8,17,-8,60c0,0,0,41,8,59c0,0,8,17,27,17H389c0,0,9,0,15,-4c0,0,7,-4,11,-13c0,0,5,-9,7,-23c0,0,1,-15,1,-36c0,0,0,-43,-8,-61c0,0,-8,-17,-26,-17Z" 
id="f0_oj"
transform="scale(0.001,-0.001)" />

<path d="M121,-4c0,0,-39,0,-60,2C61,-2,39,0,32,8c0,0,-8,8,-3,24c0,0,4,15,18,41L279,495L64,892c0,0,-14,26,-19,42c0,0,-5,17,4,24c0,0,9,8,32,10c0,0,23,2,65,2c0,0,35,0,56,-2c0,0,20,-1,32,-4c0,0,12,-4,17,-10c0,0,5,-6,9,-15L431,620L595,939c0,0,5,9,10,15c0,0,5,6,16,10c0,0,10,3,29,4c0,0,19,2,53,2c0,0,37,0,59,-2c0,0,22,-2,30,-10c0,0,8,-8,4,-24c0,0,-4,-16,-17,-42L564,497L793,73c0,0,14,-26,18,-41c0,0,4,-16,-5,-24c0,0,-9,-8,-32,-10c0,0,-24,-2,-65,-2c0,0,-36,0,-56,2c0,0,-20,1,-31,3c0,0,-12,4,-17,10c0,0,-5,6,-9,15L414,374L233,26c0,0,-4,-9,-9,-15c0,0,-6,-6,-17,-10c0,0,-12,-2,-32,-3c0,0,-21,-2,-54,-2Z" 
id="f0_3e"
transform="scale(0.001,-0.001)" />

<path d="M204,-4c0,0,-28,0,-47,2c0,0,-19,2,-31,5c0,0,-11,4,-16,10c0,0,-4,6,-4,13V939c0,0,0,7,4,13c0,0,5,6,17,10c0,0,11,3,30,6c0,0,19,2,47,2c0,0,29,0,48,-2c0,0,18,-3,29,-6c0,0,11,-4,16,-10c0,0,5,-6,5,-13V26c0,0,0,-7,-5,-13c0,0,-5,-6,-16,-10c0,0,-11,-3,-29,-5c0,0,-19,-2,-48,-2Z" 
id="f0_1c"
transform="scale(0.001,-0.001)" />

<path d="M127,0c0,0,-16,0,-28,3C99,3,87,6,80,15c0,0,-8,8,-11,25c0,0,-3,16,-3,42c0,0,0,25,2,42c0,0,2,18,8,32c0,0,6,14,15,27c0,0,9,13,24,29L282,390c0,0,50,53,81,95c0,0,30,43,47,79c0,0,17,35,24,65c0,0,6,30,6,57c0,0,0,24,-8,46c0,0,-8,22,-23,39c0,0,-15,16,-38,25c0,0,-23,10,-55,10c0,0,-44,0,-78,-12c0,0,-33,-11,-59,-25c0,0,-26,-13,-43,-25c0,0,-17,-12,-27,-12c0,0,-7,0,-11,5c0,0,-5,4,-8,15c0,0,-3,10,-5,28c0,0,-2,17,-2,42c0,0,0,18,1,29c0,0,1,12,4,20c0,0,2,9,6,15c0,0,3,6,13,15c0,0,9,9,34,23c0,0,25,14,61,27c0,0,37,14,81,23c0,0,44,9,92,9c0,0,75,0,131,-19c0,0,57,-19,94,-53c0,0,37,-34,55,-81c0,0,19,-47,19,-100c0,0,0,-47,-9,-93c0,0,-9,-45,-37,-98c0,0,-29,-52,-80,-116c0,0,-52,-64,-136,-148L299,159H679c0,0,8,0,14,-4c0,0,6,-5,11,-14c0,0,4,-9,7,-25c0,0,2,-15,2,-36c0,0,0,-22,-2,-37c0,0,-2,-15,-6,-25c0,0,-3,-10,-9,-14c0,0,-6,-4,-14,-4Z" 
id="f0_rz"
transform="scale(0.001,-0.001)" />

<path d="M385,138c0,0,29,0,52,9c0,0,22,10,39,28c0,0,17,19,28,47c0,0,11,29,19,66c0,0,7,37,9,84c0,0,3,47,3,104c0,0,0,69,-4,122c0,0,-4,52,-11,91c0,0,-8,39,-20,66c0,0,-12,27,-28,43c0,0,-16,16,-37,22c0,0,-21,7,-47,7c0,0,-44,0,-73,-21c0,0,-28,-21,-45,-64c0,0,-17,-42,-24,-106c0,0,-6,-63,-6,-148c0,0,0,-103,8,-171c0,0,8,-67,26,-107c0,0,17,-40,45,-56c0,0,27,-16,66,-16ZM378,-17c0,0,-99,0,-164,33c0,0,-65,34,-103,98c0,0,-38,64,-54,156c0,0,-15,92,-15,209c0,0,0,115,19,208c0,0,19,94,61,160c0,0,42,65,110,101c0,0,68,35,165,35c0,0,99,0,164,-34c0,0,65,-34,103,-98c0,0,39,-64,53,-156c0,0,15,-92,15,-209c0,0,0,-115,-18,-209c0,0,-19,-93,-61,-159C653,118,611,53,543,17c0,0,-67,-34,-165,-34Z" 
id="f0_rx"
transform="scale(0.001,-0.001)" />

<path d="M142,0c0,0,-6,0,-12,4c0,0,-5,3,-9,12c0,0,-4,9,-6,23c0,0,-3,15,-3,36c0,0,0,21,2,36c0,0,2,14,6,23c0,0,4,9,10,13c0,0,5,5,12,5H322V779L166,693c0,0,-17,-8,-28,-10c0,0,-1,0,-3,0c-4,0,-10,1,-14,5c0,0,-6,6,-8,22c0,0,-2,15,-2,44c0,0,0,18,0,29c0,0,1,12,4,20c0,0,3,8,8,14c0,0,5,5,14,11L345,962c0,0,4,3,9,5c0,0,6,2,15,3c0,0,9,1,23,2c0,0,15,0,38,0c0,0,28,0,46,-1c0,0,17,-1,26,-4c0,0,9,-3,12,-7c0,0,3,-4,3,-11V152H675c0,0,7,0,12,-5c0,0,6,-4,10,-13c0,0,4,-9,6,-23c0,0,2,-15,2,-36c0,0,0,-21,-2,-36c0,0,-3,-14,-7,-23c0,0,-4,-9,-9,-12c0,0,-5,-4,-12,-4Z" 
id="f0_ry"
transform="scale(0.001,-0.001)" />

<path d="M439,356V801h-1L183,356ZM532,-4c0,0,-27,0,-45,2c0,0,-18,2,-29,5c0,0,-11,3,-15,9c0,0,-4,5,-4,13V199H70c0,0,-11,0,-19,3c0,0,-8,3,-14,12c0,0,-5,9,-8,27c0,0,-3,17,-3,46c0,0,0,24,2,42c0,0,1,17,3,31c0,0,3,15,8,27c0,0,5,13,12,27L351,944c0,0,4,7,13,11c0,0,9,5,25,9c0,0,16,3,40,4c0,0,25,2,60,2c0,0,38,0,65,-2c0,0,27,-2,43,-6c0,0,16,-4,23,-10c0,0,8,-6,8,-14V356h85c0,0,12,0,21,-18c0,0,8,-19,8,-61c0,0,0,-38,-8,-58c0,0,-7,-20,-21,-20H628V25c0,0,0,-8,-5,-13c0,0,-4,-6,-15,-9c0,0,-12,-3,-29,-5c0,0,-18,-2,-47,-2Z" 
id="f0_s1"
transform="scale(0.001,-0.001)" />

<path d="M589,371L453,782h-1L317,371ZM106,-4c0,0,-35,0,-54,2C52,-2,32,0,25,8c0,0,-7,9,-5,24c0,0,2,16,11,42L329,931c0,0,4,13,10,21c0,0,6,7,19,12c0,0,13,4,36,5c0,0,23,1,61,1c0,0,44,0,71,-1c0,0,26,-1,40,-5c0,0,15,-5,21,-13c0,0,6,-8,11,-22L896,73c0,0,9,-27,11,-43c0,0,3,-15,-6,-23c0,0,-8,-7,-29,-9c0,0,-21,-2,-57,-2c0,0,-38,0,-59,1c0,0,-22,1,-33,4c0,0,-11,3,-16,9c0,0,-4,6,-7,16L635,220H272L211,31c0,0,-2,-11,-7,-18c0,0,-5,-7,-16,-11c0,0,-11,-3,-31,-4c0,0,-19,-2,-51,-2Z" 
id="f0_5"
transform="scale(0.001,-0.001)" />

<path d="M198,-4c0,0,-27,0,-45,2c0,0,-18,2,-28,5c0,0,-11,4,-15,10c0,0,-4,6,-4,13V887c0,0,0,38,20,58c0,0,20,20,53,20H308c0,0,34,0,59,-6c0,0,24,-5,42,-18c0,0,18,-13,30,-35c0,0,12,-21,21,-52L669,279h3L889,852c0,0,9,32,21,53c0,0,11,22,27,35c0,0,15,14,36,19c0,0,21,6,48,6h132c0,0,21,0,35,-5c0,0,15,-5,24,-15c0,0,9,-11,14,-25c0,0,5,-15,5,-33V26c0,0,0,-7,-4,-13c0,0,-4,-6,-15,-10c0,0,-11,-3,-29,-5c0,0,-18,-2,-45,-2c0,0,-27,0,-45,2c0,0,-18,2,-28,5c0,0,-11,4,-15,10c0,0,-5,6,-5,13V813h-1L764,27c0,0,-3,-10,-10,-16c0,0,-6,-6,-18,-10c0,0,-12,-3,-29,-4c0,0,-18,-1,-44,-1c0,0,-25,0,-43,2c0,0,-18,2,-29,5c0,0,-12,4,-19,10c0,0,-6,6,-9,14L293,813h-2V26c0,0,0,-7,-4,-13c0,0,-4,-6,-15,-10c0,0,-11,-3,-29,-5c0,0,-17,-2,-45,-2Z" 
id="f0_1x"
transform="scale(0.001,-0.001)" />

<path d="M193,-4c0,0,-26,0,-43,2c0,0,-18,2,-27,6c0,0,-10,4,-14,10c0,0,-3,6,-3,13V895c0,0,0,35,20,53c0,0,21,17,50,17H282c0,0,28,0,47,-5c0,0,20,-5,35,-16c0,0,15,-11,29,-31c0,0,13,-20,27,-49L608,511c0,0,17,-32,33,-63c0,0,16,-31,31,-62c0,0,14,-31,29,-60c0,0,14,-30,27,-60h1c0,0,-2,52,-3,109c0,0,-1,57,-1,108V936c0,0,0,7,4,13c0,0,5,6,15,11c0,0,10,4,28,6c0,0,17,2,44,2c0,0,25,0,42,-2c0,0,17,-2,27,-6c0,0,9,-5,13,-11c0,0,4,-6,4,-13V68c0,0,0,-17,-6,-30c0,0,-6,-14,-17,-23C879,15,869,6,856,2c0,0,-14,-3,-28,-3H744c0,0,-26,0,-45,4c0,0,-19,5,-35,19c0,0,-16,14,-31,38c0,0,-15,23,-34,60L359,572c0,0,-21,40,-43,86c0,0,-21,47,-38,91h-2c0,0,3,-54,5,-107c0,0,2,-53,2,-110V27c0,0,0,-7,-5,-13c0,0,-4,-6,-14,-10c0,0,-10,-4,-27,-6c0,0,-17,-2,-44,-2Z" 
id="f0_1y"
transform="scale(0.001,-0.001)" />

<path d="M378,-4c0,0,-28,0,-47,2c0,0,-19,2,-31,5c0,0,-11,4,-16,10c0,0,-4,6,-4,13V805H38c0,0,-8,0,-13,4c0,0,-5,5,-9,14c0,0,-3,9,-5,25c0,0,-2,15,-2,37c0,0,0,22,2,38c0,0,2,15,5,25c0,0,4,9,9,13c0,0,5,4,13,4H718c0,0,7,0,12,-4c0,0,6,-4,10,-13c0,0,3,-10,5,-25c0,0,2,-16,2,-38c0,0,0,-22,-2,-37c0,0,-2,-16,-5,-25c0,0,-4,-9,-10,-14c0,0,-5,-4,-12,-4H476V26c0,0,0,-7,-5,-13c0,0,-5,-6,-16,-10c0,0,-11,-3,-30,-5c0,0,-19,-2,-47,-2Z" 
id="f0_2t"
transform="scale(0.001,-0.001)" />

<path d="M514,145c0,0,72,0,121,27c0,0,48,26,78,73c0,0,30,46,42,107c0,0,13,62,13,131c0,0,0,76,-12,139c0,0,-12,62,-41,106c0,0,-29,45,-76,69c0,0,-48,24,-120,24c0,0,-72,0,-120,-27c0,0,-49,-27,-79,-73c0,0,-29,-45,-42,-106c0,0,-12,-61,-12,-129c0,0,0,-79,12,-142c0,0,12,-63,40,-108c0,0,28,-44,76,-68c0,0,48,-23,120,-23ZM508,-17c0,0,-113,0,-196,29c0,0,-84,29,-140,90c0,0,-56,60,-84,154c0,0,-28,93,-28,221c0,0,0,117,29,210c0,0,30,94,89,160c0,0,59,65,146,101c0,0,87,35,202,35c0,0,110,0,194,-29c0,0,84,-30,140,-90c0,0,56,-60,85,-153c0,0,29,-92,29,-217c0,0,0,-120,-30,-215c0,0,-30,-95,-89,-161C855,118,796,52,709,17c0,0,-87,-34,-201,-34Z" 
id="f0_24"
transform="scale(0.001,-0.001)" />

<path d="M299,0V777H162l36,173H508V0Z" 
id="f1_l"
transform="scale(0.001,-0.001)" />

<path d="M403,168c0,0,50,0,85,37c0,0,35,36,35,89c0,0,0,50,-35,85c0,0,-35,36,-85,36c0,0,-47,0,-81,-37c0,0,-35,-37,-35,-89c0,0,0,-47,36,-84c0,0,35,-37,80,-37Zm3,426c0,0,39,0,70,28c0,0,31,29,31,65c0,0,0,46,-28,77c0,0,-29,31,-73,31c0,0,-42,0,-71,-29c0,0,-28,-29,-28,-70c0,0,0,-44,28,-73c0,0,29,-29,71,-29Zm2,-605c0,0,-145,0,-234,75c0,0,-90,76,-90,197c0,0,0,150,140,239c0,0,-59,52,-87,101c0,0,-27,49,-27,112c0,0,0,103,77,179c0,0,77,75,216,75c0,0,136,0,217,-68c0,0,81,-68,81,-180c0,0,0,-130,-115,-217c0,0,140,-90,140,-237c0,0,0,-124,-89,-200c0,0,-88,-76,-229,-76Z" 
id="f1_s"
transform="scale(0.001,-0.001)" />

<path d="M44,-281L425,1053H537L156,-281Z" 
id="f1_j"
transform="scale(0.001,-0.001)" />

<path d="M75,0L400,413c0,0,71,91,101,149c0,0,30,58,30,109c0,0,0,55,-36,91c0,0,-36,36,-91,36c0,0,-63,0,-91,-45c0,0,-28,-46,-34,-142H67c0,0,0,173,102,268c0,0,102,95,253,95c0,0,140,0,229,-82c0,0,89,-82,89,-209c0,0,0,-125,-104,-276L580,324c0,0,-34,-50,-85,-114L468,178H740V0Z" 
id="f1_m"
transform="scale(0.001,-0.001)" />

<path d="M404,-11c0,0,-136,0,-225,76c0,0,-90,78,-111,215H265c0,0,35,-136,135,-136c0,0,50,0,85,35c0,0,34,36,34,88c0,0,0,64,-41,105c0,0,-42,41,-107,41H336V573h21c0,0,68,0,109,33c0,0,41,34,41,89c0,0,0,50,-32,85c0,0,-32,35,-79,35c0,0,-110,0,-127,-135H76c0,0,9,130,96,209c0,0,87,79,208,79c0,0,134,0,227,-76c0,0,94,-75,94,-182c0,0,0,-116,-115,-210c0,0,73,-46,107,-96c0,0,34,-51,34,-121c0,0,0,-134,-88,-214c0,0,-89,-80,-235,-80Z" 
id="f1_n"
transform="scale(0.001,-0.001)" />

<path d="M235,0V40L394,60V936H356c0,0,-189,0,-258,-15L78,766H28v234H908V766H857L837,921c0,0,-22,5,-98,9c0,0,-75,4,-165,4H538V60L697,40V0Z" 
id="f2_1k"
transform="scale(0.001,-0.001)" />

<path d="M442,0V33l93,19V504c0,0,0,129,-124,129c0,0,-70,0,-168,-22V52L338,33V0H31V33l88,19v956L15,1026v34H243V756c0,0,0,-77,-5,-112c0,0,54,31,122,53c0,0,68,23,115,23c0,0,91,0,137,-53c0,0,47,-53,47,-154V52L744,33V0Z" 
id="f2_24"
transform="scale(0.001,-0.001)" />

<path d="M495,413c0,0,0,133,-34,190c0,0,-34,57,-105,57c0,0,-78,0,-119,-63c0,0,-42,-62,-42,-184ZM374,-14c0,0,-163,0,-239,87c0,0,-75,88,-75,283c0,0,0,183,77,273c0,0,76,91,219,91c0,0,269,0,269,-306V353H194V340c0,0,0,-103,23,-160c0,0,22,-57,70,-87c0,0,47,-29,124,-29c0,0,40,0,96,6c0,0,55,7,91,15V43C598,43,562,20,500,3c0,0,-61,-17,-126,-17Z" 
id="f2_21"
transform="scale(0.001,-0.001)" />

<path d="M439,0V33l93,19V500c0,0,0,62,-30,97c0,0,-31,36,-94,36c0,0,-67,0,-165,-22V52L338,33V0H35V33l84,19V649L35,668v33H235l7,-57c0,0,57,33,122,54c0,0,65,22,108,22c0,0,91,0,137,-53c0,0,47,-53,47,-154V52L741,33V0Z" 
id="f2_2a"
transform="scale(0.001,-0.001)" />

<path d="M249,-14c0,0,-71,0,-107,42c0,0,-35,42,-35,119V639H15v33l93,29l76,159h47V701H391V639H231V161c0,0,0,-48,22,-73c0,0,22,-24,57,-24c0,0,44,0,106,12V26C416,26,389,8,340,-2c0,0,-49,-12,-91,-12Z" 
id="f2_2g"
transform="scale(0.001,-0.001)" />

<path d="M64,0V34L168,59V639H47v36l121,29v49c0,0,0,155,61,239c0,0,62,84,173,84c0,0,58,0,107,-15V908H472l-33,92c0,0,-26,16,-62,16c0,0,-47,0,-66,-42c0,0,-19,-42,-19,-157V701H478V639H292V59L443,34V0Z" 
id="f2_22"
transform="scale(0.001,-0.001)" />

<path d="M377,45c0,0,99,0,147,73c0,0,47,73,47,237c0,0,0,161,-47,233c0,0,-47,72,-147,72c0,0,-97,0,-141,-69c0,0,-44,-69,-44,-236c0,0,0,-169,45,-240c0,0,44,-70,140,-70Zm0,-59c0,0,-158,0,-238,94c0,0,-81,95,-81,274c0,0,0,178,81,272c0,0,80,94,244,94c0,0,160,0,241,-92c0,0,82,-92,82,-274c0,0,0,-368,-329,-368Z" 
id="f2_2b"
transform="scale(0.001,-0.001)" />

<path d="M31,0V33l88,19V649L31,668v33H235l7,-87c0,0,44,37,121,71c0,0,76,35,121,35h11V530H463l-43,82c0,0,-37,0,-88,-10c0,0,-52,-10,-89,-26V52L363,33V0Z" 
id="f2_2e"
transform="scale(0.001,-0.001)" />

<path d="M399,-14c0,0,-341,0,-341,370c0,0,0,175,87,269c0,0,87,95,249,95c0,0,101,0,220,-23V501H573L541,625c0,0,-62,35,-149,35c0,0,-200,0,-200,-304c0,0,0,-158,61,-225c0,0,61,-67,189,-67c0,0,109,0,189,24V43C631,43,595,16,530,1c0,0,-64,-15,-131,-15Z" 
id="f2_1z"
transform="scale(0.001,-0.001)" />

<path d="M383,64c0,0,85,0,152,28V645c0,0,-67,13,-152,13c0,0,-194,0,-194,-314c0,0,0,-141,48,-211c0,0,48,-69,146,-69ZM342,-14c0,0,-287,0,-287,358c0,0,0,184,82,280c0,0,81,96,239,96c0,0,81,0,163,-18c0,0,-4,25,-4,124v182l-118,18v34H659V52L745,33V0H548l-9,52c0,0,-84,-66,-197,-66Z" 
id="f2_20"
transform="scale(0.001,-0.001)" />

<path d="M32,0V33L151,52V649L52,668v33H275V52L395,33V0ZM201,850c0,0,-32,0,-56,24c0,0,-24,24,-24,56c0,0,0,34,24,58c0,0,24,24,56,24c0,0,34,0,58,-24c0,0,24,-24,24,-58c0,0,0,-32,-24,-56c0,0,-24,-24,-58,-24Z" 
id="f2_25"
transform="scale(0.001,-0.001)" />

<path d="M382,45c0,0,188,0,188,314c0,0,0,143,-47,213c0,0,-46,69,-141,69c0,0,-87,0,-146,-24V58c0,0,67,-13,146,-13ZM25,-325v35l88,18V649L34,668v33H231l1,-41c0,0,31,27,84,43c0,0,53,17,107,17c0,0,134,0,208,-94c0,0,73,-93,73,-267c0,0,0,-178,-80,-276c0,0,-80,-97,-232,-97c0,0,-84,0,-160,16c0,0,4,-53,4,-84V-272l123,-18v-35Z" 
id="f2_2c"
transform="scale(0.001,-0.001)" />

<path d="M31,0V33L150,52v956L31,1026v34H274V52L394,33V0Z" 
id="f2_28"
transform="scale(0.001,-0.001)" />

<path d="M278,-14c0,0,-52,0,-115,11c0,0,-63,10,-99,23V193H98L134,95c0,0,56,-50,146,-50c0,0,144,0,144,123c0,0,0,91,-114,130l-66,21c0,0,-75,25,-110,50c0,0,-34,26,-53,63c0,0,-18,36,-18,89c0,0,0,92,63,145c0,0,63,54,170,54c0,0,77,0,193,-23V544H454l-32,81c0,0,-39,35,-124,35c0,0,-61,0,-92,-30c0,0,-32,-30,-32,-80c0,0,0,-43,29,-72c0,0,28,-29,86,-48c0,0,110,-38,144,-55c0,0,33,-17,57,-42c0,0,23,-25,36,-57c0,0,13,-32,13,-79c0,0,0,-104,-66,-158c0,0,-66,-53,-195,-53Z" 
id="f2_2f"
transform="scale(0.001,-0.001)" />

<path d="M41,0V34L426,641H261c0,0,-42,0,-80,-7c0,0,-39,-7,-54,-19L104,515H69V701H586V665L201,60H407c0,0,42,0,89,10c0,0,47,10,66,25l39,147h35L617,0Z" 
id="f2_2m"
transform="scale(0.001,-0.001)" />

<path d="M191,-20c0,0,-39,0,-65,25c0,0,-25,27,-25,64c0,0,0,38,26,64c0,0,26,26,64,26c0,0,38,0,64,-26c0,0,26,-26,26,-64c0,0,0,-37,-25,-64c0,0,-26,-25,-65,-25Z" 
id="f2_i"
transform="scale(0.001,-0.001)" />

<path d="M327,-14L84,649L1,668v33H335V668L219,648L385,174L554,632h63L786,171L944,649L830,668v33h267V668l-78,-16L784,-14H726L553,448L382,-14Z" 
id="f2_2j"
transform="scale(0.001,-0.001)" />

<path d="M284,67c0,0,51,0,88,12c0,0,37,12,74,30V358l-98,-3c0,0,-100,-4,-135,-39c0,0,-35,-35,-35,-117c0,0,0,-132,106,-132ZM233,-14c0,0,-179,0,-179,208c0,0,0,70,27,116c0,0,27,46,87,70c0,0,60,24,173,27l105,3V519c0,0,0,72,-26,107c0,0,-27,34,-82,34c0,0,-75,0,-137,-35L176,538H134V691c0,0,121,26,213,26c0,0,115,0,169,-47c0,0,54,-47,54,-144V52L657,33V0H465L451,70c0,0,-85,-84,-218,-84Z" 
id="f2_1x"
transform="scale(0.001,-0.001)" />

<path d="M58,-234v58c0,0,131,42,131,125c0,0,0,15,-11,27c0,0,-11,12,-38,25C140,1,89,27,89,75c0,0,0,40,25,61c0,0,26,21,65,21c0,0,48,0,77,-34c0,0,30,-34,30,-86c0,0,0,-101,-60,-170c0,0,-59,-69,-168,-101Z" 
id="f2_g"
transform="scale(0.001,-0.001)" />

<path d="M360,-14L72,649L0,668v33H327V668L216,648L420,164L615,649L504,668v33H764V668L697,652L416,-14Z" 
id="f2_2i"
transform="scale(0.001,-0.001)" />

<path d="M383,64c0,0,44,0,87,7c0,0,43,7,65,17V645c0,0,-67,13,-152,13c0,0,-194,0,-194,-309c0,0,0,-143,48,-214c0,0,47,-71,146,-71Zm56,-389v35l96,18V-77c0,0,0,73,7,124c0,0,-79,-61,-200,-61c0,0,-287,0,-287,362c0,0,0,180,81,276c0,0,81,96,237,96c0,0,84,0,166,-18l67,33h53V-272l77,-18v-35Z" 
id="f2_2d"
transform="scale(0.001,-0.001)" />

<path d="M289,-14c0,0,-179,0,-179,205V649L20,668v33H233V200c0,0,0,-128,120,-128c0,0,92,0,173,23V649L420,668v33H649V52L738,33V0H533l-6,57C527,57,474,28,405,7c0,0,-69,-21,-116,-21Z" 
id="f2_2h"
transform="scale(0.001,-0.001)" />

<path d="M359,-270c0,0,124,0,192,46c0,0,67,47,67,129c0,0,0,43,-26,67c0,0,-26,24,-79,24H242c0,0,-32,-27,-51,-69c0,0,-20,-41,-20,-77c0,0,0,-64,46,-92c0,0,46,-28,142,-28Zm11,561c0,0,81,0,115,47c0,0,34,47,34,141c0,0,0,100,-35,142c0,0,-35,42,-113,42c0,0,-78,0,-114,-43c0,0,-37,-42,-37,-141c0,0,0,-98,36,-143c0,0,36,-45,114,-45ZM359,-329c0,0,-143,0,-218,44c0,0,-75,43,-75,125c0,0,0,39,27,78c0,0,26,38,98,89c0,0,-43,14,-72,48c0,0,-29,35,-29,74L208,262c0,0,-118,55,-118,217c0,0,0,115,73,178c0,0,73,63,211,63c0,0,28,0,71,-6c0,0,44,-6,67,-13l165,83l26,-32L599,644c0,0,50,-56,50,-165c0,0,0,-120,-72,-182c0,0,-73,-62,-208,-62c0,0,-62,0,-114,11L208,148c0,0,2,-13,29,-24c0,0,27,-12,67,-12H512c0,0,113,0,168,-49c0,0,55,-49,55,-134c0,0,0,-79,-44,-137c0,0,-43,-58,-128,-90c0,0,-84,-31,-204,-31Z" 
id="f2_23"
transform="scale(0.001,-0.001)" />

<path d="M431,0V33L535,52V499c0,0,0,62,-32,96c0,0,-32,33,-95,33c0,0,-66,0,-163,-22V52L350,33V0H32V33l89,19V649L32,668v33H237l6,-57c0,0,56,32,119,54c0,0,62,22,110,22c0,0,52,0,95,-20c0,0,44,-19,66,-62c0,0,57,32,134,57c0,0,77,25,128,25c0,0,179,0,179,-207V52l90,-19V0H846V33L950,52V499c0,0,0,129,-119,129c0,0,-19,0,-45,-3c0,0,-26,-3,-52,-7c0,0,-25,-4,-49,-8c0,0,-23,-5,-39,-8c0,0,13,-41,13,-89V52L764,33V0Z" 
id="f2_29"
transform="scale(0.001,-0.001)" />

<path d="M322,-11c0,0,-53,0,-84,34c0,0,-31,35,-31,91c0,0,0,50,21,145l11,47c0,0,12,54,35,143c0,0,24,89,48,159l-4,7H254c0,0,-50,0,-76,-8c0,0,-27,-8,-52,-27c0,0,-25,-19,-53,-55L26,565c0,0,40,50,71,78c0,0,30,28,57,43c0,0,28,14,60,21c0,0,32,6,84,6H689L667,615H433L349,241c0,0,-16,-73,-16,-110c0,0,0,-30,9,-44c0,0,10,-13,31,-13c0,0,25,0,55,21c0,0,30,21,68,66l43,-40C539,121,475,49,425,19c0,0,-51,-30,-103,-30Z" 
id="f3_1kd"
transform="scale(0.001,-0.001)" />

<path d="M174,316v76H885V316Zm0,306v76H885V622Z" 
id="f4_x"
transform="scale(0.001,-0.001)" />

<path d="M343,-325c0,0,-154,91,-222,206c0,0,-67,114,-67,278c0,0,0,131,34,283c0,0,34,152,95,263c0,0,62,112,156,196c0,0,95,84,248,159L576,997c0,0,-99,-52,-166,-131c0,0,-68,-80,-112,-187c0,0,-44,-106,-77,-290c0,0,-34,-183,-34,-292c0,0,0,-252,167,-359l-11,-63Z" 
id="f4_c"
transform="scale(0.001,-0.001)" />

<path d="M313,80c0,0,53,0,105,15c0,0,52,15,87,38l90,509c0,0,-76,20,-152,20c0,0,-74,0,-134,-54c0,0,-60,-54,-94,-149c0,0,-34,-95,-34,-203c0,0,0,-86,34,-131c0,0,34,-45,98,-45ZM421,-325l52,285c0,0,12,64,28,120C501,80,443,37,380,11c0,0,-64,-25,-119,-25c0,0,-102,0,-156,63c0,0,-54,63,-54,188c0,0,0,137,53,248c0,0,54,112,152,173c0,0,97,62,220,62c0,0,52,0,129,-10c0,0,76,-11,123,-22L554,-273l91,-17l-6,-35Z" 
id="f4_2d"
transform="scale(0.001,-0.001)" />

<path d="M-17,0l8,40L120,60L276,941L151,960l7,40H909L866,761H817l4,161c0,0,-81,11,-239,11H419L349,543H619l45,119h48L657,354H609l-1,121H338L266,67H463c0,0,190,0,254,12l75,185h49L780,0Z" 
id="f4_15"
transform="scale(0.001,-0.001)" />

<path d="M-71,-325l11,63c0,0,97,51,163,130c0,0,66,78,109,179c0,0,43,103,79,285c0,0,36,183,36,305c0,0,0,130,-42,218c0,0,-41,89,-125,142l11,63c0,0,158,-94,224,-208c0,0,67,-113,67,-276c0,0,0,-125,-34,-278c0,0,-34,-153,-96,-267c0,0,-62,-112,-157,-197c0,0,-96,-85,-246,-159Z" 
id="f4_d"
transform="scale(0.001,-0.001)" />

<path d="M631,416L539,902L283,416ZM576,0l8,40L691,60L643,348H249L96,60L197,40L189,0H-83l8,40L7,60l509,949H659L845,60L938,40L930,0Z" 
id="f4_11"
transform="scale(0.001,-0.001)" />

<path d="M521,-14c0,0,-205,0,-320,107C201,93,85,200,85,390c0,0,0,185,77,326c0,0,77,142,220,219c0,0,142,76,324,76c0,0,158,0,327,-38L1000,755H951V884c0,0,-46,32,-112,50c0,0,-65,17,-137,17c0,0,-135,0,-242,-72c0,0,-107,-72,-166,-203c0,0,-60,-132,-60,-301c0,0,0,-160,78,-244c0,0,78,-84,222,-84c0,0,85,0,166,25c0,0,82,26,133,65l53,149h49L889,52C889,52,803,20,705,3c0,0,-99,-17,-184,-17Z" 
id="f4_13"
transform="scale(0.001,-0.001)" />

<path d="M154,-20c0,0,-39,0,-65,25C89,5,63,32,63,69c0,0,0,38,27,64c0,0,26,26,64,26c0,0,38,0,64,-26c0,0,26,-26,26,-64c0,0,0,-37,-26,-64c0,0,-26,-25,-64,-25Z" 
id="f4_i"
transform="scale(0.001,-0.001)" />

<path d="M1,0L20,109L178,225c0,0,164,116,252,199c0,0,87,83,129,175c0,0,42,91,42,197c0,0,0,80,-43,117c0,0,-43,36,-127,36c0,0,-41,0,-86,-11c0,0,-45,-12,-76,-28L222,787H172l34,193c0,0,142,32,236,32c0,0,139,0,214,-57c0,0,74,-57,74,-159c0,0,0,-98,-46,-188c0,0,-46,-90,-141,-177c0,0,-94,-86,-261,-203L124,114H633L612,0Z" 
id="f4_m"
transform="scale(0.001,-0.001)" />

<path d="M301,78c0,0,85,0,185,104l81,442c0,0,-29,20,-55,28c0,0,-25,8,-62,8c0,0,-75,0,-137,-56c0,0,-62,-56,-98,-152c0,0,-36,-95,-36,-199c0,0,0,-79,33,-127c0,0,33,-48,89,-48ZM245,-14c0,0,-90,0,-145,66c0,0,-54,66,-54,182c0,0,0,131,57,244c0,0,57,114,152,178c0,0,96,64,208,64c0,0,90,0,170,-33l33,26h40L589,52L673,33L667,0H454l22,117C476,117,350,-14,245,-14Z" 
id="f4_1x"
transform="scale(0.001,-0.001)" />

<path d="M292,14c0,0,50,0,94,40c0,0,44,40,103,162c0,0,59,122,111,295H239c0,0,-69,-214,-69,-328c0,0,0,-75,31,-122c0,0,30,-47,91,-47ZM614,553c0,0,50,158,50,306c0,0,0,171,-96,171c0,0,-85,0,-166,-128c0,0,-81,-127,-149,-349ZM278,-17c0,0,-93,0,-152,79c0,0,-59,79,-59,198c0,0,0,76,34,210c0,0,34,134,101,271c0,0,67,137,168,229c0,0,101,91,198,91c0,0,207,0,207,-284c0,0,0,-172,-84,-380C691,397,608,188,500,85C500,85,392,-17,278,-17Z" 
id="f5_ey"
transform="scale(0.001,-0.001)" />

<path d="M317,45c0,0,74,0,134,54c0,0,60,55,97,153c0,0,36,98,36,200c0,0,0,82,-33,129c0,0,-33,46,-89,46c0,0,-40,0,-93,-29c0,0,-54,-29,-96,-75L192,81c0,0,46,-36,125,-36ZM-88,-325l5,35l90,17L170,649L93,668l6,33H297L283,588c0,0,130,132,235,132c0,0,90,0,145,-67c0,0,55,-66,55,-182c0,0,0,-132,-56,-244C662,227,606,114,510,49c0,0,-97,-63,-209,-63c0,0,-35,0,-72,5c0,0,-37,5,-55,11l-8,-67L130,-273l119,-17l-6,-35Z" 
id="f4_2c"
transform="scale(0.001,-0.001)" />

<path d="M412,-328c0,0,-195,96,-303,284C109,-44,0,142,0,365c0,0,0,232,114,422c0,0,114,191,298,273v-31c0,0,-92,-51,-151,-139c0,0,-59,-88,-88,-223c0,0,-29,-136,-29,-282c0,0,0,-167,27,-301c0,0,26,-133,82,-221c0,0,55,-89,159,-159v-32Z" 
id="f6_c"
transform="scale(0.001,-0.001)" />

<path d="M34,-328v32c0,0,92,50,151,138c0,0,59,88,88,222c0,0,29,135,29,283c0,0,0,165,-27,300c0,0,-26,134,-82,222c0,0,-56,89,-159,160v31c0,0,194,-96,303,-284c0,0,108,-187,108,-410c0,0,0,-232,-114,-422c0,0,-114,-191,-297,-272Z" 
id="f6_d"
transform="scale(0.001,-0.001)" />

<path d="M52,62L0,114L278,390L0,667l52,52L330,442L608,719l51,-51L382,390L659,114L608,62L330,338L52,62Z" 
id="f6_3a"
transform="scale(0.001,-0.001)" />

<path d="M44,0V40L172,60V941L44,960v40H445V960L316,941V549H787V941L659,960v40h400V960L930,941V60L1059,40V0H659V40L787,60V481H316V60L445,40V0Z" 
id="f2_18"
transform="scale(0.001,-0.001)" />

<path d="M376,50c0,0,103,0,149,80c0,0,46,81,46,240c0,0,0,137,-47,204c0,0,-48,67,-148,67c0,0,-44,0,-87,-7c0,0,-44,-8,-63,-17V62c0,0,63,-12,150,-12Zm3,-64c0,0,-64,0,-141,14c0,0,-78,14,-136,37v971L0,1026v34H226V809c0,0,0,-40,-4,-148c0,0,74,59,188,59c0,0,143,0,219,-87c0,0,77,-87,77,-263c0,0,0,-189,-84,-287c0,0,-84,-97,-243,-97Z" 
id="f2_1y"
transform="scale(0.001,-0.001)" />

<path d="M148,-329c0,0,-58,0,-114,13v151H69l24,-71c0,0,23,-17,64,-17c0,0,39,0,72,22c0,0,33,23,60,67c0,0,27,44,68,157L90,649L19,668v33H344V668L233,648L423,158L606,649L497,668v33H758V668L685,652L411,-43c0,0,-48,-124,-84,-177c0,0,-36,-54,-79,-82c0,0,-44,-27,-100,-27Z" 
id="f2_2l"
transform="scale(0.001,-0.001)" />

<path d="M270,-17c0,0,-47,0,-82,30c0,0,-34,31,-34,100c0,0,0,61,46,222l62,216c0,0,-92,0,-139,-11c0,0,-47,-12,-80,-73H17c0,0,21,62,55,107c0,0,34,45,81,64c0,0,46,19,131,19H594L563,551H359L282,273c0,0,-23,-82,-23,-130c0,0,0,-71,67,-71c0,0,61,0,101,99h31c0,0,-60,-188,-188,-188Z" 
id="f7_8j"
transform="scale(0.001,-0.001)" />

<path d="M289,23c0,0,39,0,79,22c0,0,40,22,78,64c0,0,39,43,69,98c0,0,31,56,55,131c0,0,24,75,24,149c0,0,0,60,-27,91c0,0,-27,32,-64,32c0,0,-81,0,-160,-92c0,0,-78,-93,-114,-217L165,78c0,0,46,-55,124,-55ZM-167,-326l7,27c0,0,70,3,94,24c0,0,24,21,51,116L172,494c0,0,17,61,17,76c0,0,0,20,-12,31c0,0,-11,11,-35,11c0,0,-22,0,-60,-5v30l254,38L286,503c0,0,81,96,145,134c0,0,64,38,130,38c0,0,67,0,114,-53c0,0,47,-52,47,-137c0,0,0,-164,-134,-333C588,152,455,-17,278,-17c0,0,-37,0,-66,8c0,0,-28,9,-64,28L93,-172c0,0,-17,-57,-17,-75c0,0,0,-16,9,-28c0,0,9,-11,28,-18c0,0,19,-6,77,-6l-7,-27Z" 
id="f7_2c"
transform="scale(0.001,-0.001)" />

<path d="M-33,0l9,26c0,0,58,2,78,11c0,0,30,13,43,34c0,0,20,31,48,130L318,812c0,0,21,74,21,113c0,0,0,28,-20,45c0,0,-20,16,-77,16H226l9,26H966L904,769H878c0,0,5,34,5,57c0,0,0,39,-20,66c0,0,-25,34,-74,52c0,0,-36,13,-166,13H488L374,557h99c0,0,102,0,148,31c0,0,46,31,79,115h26L623,336H593c0,0,13,46,13,79c0,0,0,32,-13,52c0,0,-13,19,-36,28c0,0,-23,10,-95,10H361L263,156c0,0,-14,-43,-14,-66c0,0,0,-17,19,-30c0,0,13,-9,65,-9h93c0,0,145,0,233,51c0,0,87,52,157,180h27L747,0Z" 
id="f7_15"
transform="scale(0.001,-0.001)" />

<path d="M0,214v74H784V214ZM0,494v72H784V494Z" 
id="f6_x"
transform="scale(0.001,-0.001)" />

<path d="M460,-325c0,0,-148,79,-231,172c0,0,-84,93,-123,217c0,0,-39,126,-39,304c0,0,0,178,39,303c0,0,39,125,122,217c0,0,82,93,232,172V997c0,0,-91,-52,-145,-134c0,0,-54,-81,-79,-190c0,0,-25,-109,-25,-305c0,0,0,-194,26,-309c0,0,26,-114,82,-193c0,0,56,-79,141,-128v-63Z" 
id="f2_c"
transform="scale(0.001,-0.001)" />

<path d="M49,-325v63c0,0,85,49,140,128c0,0,56,79,83,194c0,0,26,115,26,308c0,0,0,196,-25,305c0,0,-25,109,-79,190c0,0,-54,82,-145,134v63c0,0,149,-80,232,-172c0,0,83,-92,122,-217c0,0,39,-125,39,-303c0,0,0,-177,-39,-303c0,0,-39,-125,-122,-217c0,0,-83,-93,-232,-173Z" 
id="f2_d"
transform="scale(0.001,-0.001)" />

<path d="M681,416L504,902L333,416ZM669,0V40L803,60L704,348H310L210,60L344,40V0H15V40L128,60l341,949H611L965,60L1092,40V0Z" 
id="f2_11"
transform="scale(0.001,-0.001)" />

<path d="M613,-21c0,0,-293,0,-445,186C168,165,54,306,54,490c0,0,0,134,64,256c0,0,76,145,209,224c0,0,111,64,262,64c0,0,55,0,100,-9c0,0,45,-9,128,-39c0,0,42,-16,56,-16c0,0,14,0,24,13c0,0,10,13,12,51h28L963,715H937c0,0,-40,119,-102,179c0,0,-91,88,-232,88c0,0,-193,0,-294,-153c0,0,-84,-129,-84,-307c0,0,0,-144,56,-263c0,0,56,-120,146,-175c0,0,91,-56,186,-56c0,0,56,0,109,15c0,0,52,14,100,41V376c0,0,0,77,-11,101c0,0,-12,23,-36,36c0,0,-24,12,-86,12v27h392V525h-18c0,0,-58,0,-80,-39c0,0,-15,-28,-15,-110V67C968,67,882,21,799,0c0,0,-84,-21,-186,-21Z" 
id="f8_17"
transform="scale(0.001,-0.001)" />

<path d="M286,72c0,0,57,0,149,75V407c0,0,-113,-45,-145,-64c0,0,-59,-32,-85,-68c0,0,-25,-36,-25,-78c0,0,0,-54,32,-89c0,0,32,-36,74,-36ZM217,-13c0,0,-71,0,-116,48c0,0,-46,48,-46,127c0,0,0,50,22,87c0,0,31,50,106,95c0,0,76,45,252,109v26c0,0,0,102,-32,140c0,0,-32,38,-94,38c0,0,-47,0,-74,-25c0,0,-28,-25,-28,-58l1,-43c0,0,0,-34,-17,-53c0,0,-18,-18,-47,-18c0,0,-28,0,-45,19c0,0,-18,19,-18,53c0,0,0,64,66,117c0,0,65,54,184,54c0,0,91,0,149,-31c0,0,44,-23,65,-72c0,0,13,-32,13,-131V238c0,0,0,-98,4,-120c0,0,4,-22,12,-29c0,0,9,-8,20,-8c0,0,12,0,21,5c0,0,16,10,61,55V99C676,99,592,-12,516,-12c0,0,-37,0,-58,24c0,0,-22,26,-23,86C435,98,330,17,303,5c0,0,-40,-18,-86,-18Z" 
id="f8_1x"
transform="scale(0.001,-0.001)" />

<path d="M292,-20c0,0,-57,0,-100,33c0,0,-42,33,-58,85c0,0,-17,52,-17,148V551c0,0,0,49,-10,68c0,0,-11,18,-31,29c0,0,-19,9,-68,9c-2,0,-4,0,-6,0v26H242V226c0,0,0,-95,33,-125c0,0,33,-30,80,-30c0,0,32,0,73,21c0,0,40,20,96,76V555c0,0,0,59,-21,80c0,0,-22,21,-89,22v26H647V269c0,0,0,-119,6,-145c0,0,6,-27,18,-37c0,0,12,-11,29,-11c0,0,23,0,52,13L763,63L558,-20H524V124C524,124,436,29,390,4c0,0,-47,-24,-98,-24Z" 
id="f8_2h"
transform="scale(0.001,-0.001)" />

<path d="M312,-20c0,0,-62,0,-143,22c0,0,-25,8,-40,8c0,0,-18,0,-27,-19H77V234h25c0,0,21,-105,80,-158c0,0,59,-53,132,-53c0,0,51,0,84,31c0,0,32,30,32,72c0,0,0,52,-36,87c0,0,-36,35,-144,88c0,0,-109,54,-142,97c0,0,-34,43,-34,107c0,0,0,85,58,141c0,0,58,57,150,57c0,0,40,0,97,-17c0,0,38,-11,51,-11c0,0,12,0,19,5c0,0,7,5,15,23h25V470H464c0,0,-28,110,-72,149c0,0,-45,40,-113,40c0,0,-53,0,-85,-28c0,0,-32,-27,-32,-61c0,0,0,-41,24,-71c0,0,23,-31,94,-65L389,381c0,0,152,-74,152,-194c0,0,0,-94,-71,-151c0,0,-70,-56,-158,-56Z" 
id="f8_2f"
transform="scale(0.001,-0.001)" />

<path d="M177,647v35c0,0,77,46,105,86c0,0,19,28,19,68c0,0,0,23,-8,34c0,0,-9,11,-19,11c0,0,-9,0,-22,-5c0,0,-19,-7,-32,-7c0,0,-30,0,-53,23c0,0,-23,22,-23,56c0,0,0,37,23,58c0,0,31,28,75,28c0,0,50,0,90,-42c0,0,40,-42,40,-105c0,0,0,-88,-67,-160c0,0,-44,-48,-128,-80Z" 
id="f8_53"
transform="scale(0.001,-0.001)" />

<path d="M44,0V40L172,60V941L44,960v40H794V760H745L721,922c0,0,-83,11,-241,11H316V543H586l23,119h48V354H609L586,475H316V67H513c0,0,193,0,252,12l43,185h49L843,0Z" 
id="f2_15"
transform="scale(0.001,-0.001)" />

<path d="M54,0V40L172,60V941L44,960v40H794V760H745L721,922c0,0,-83,11,-241,11H316V516H611l23,120h46V328H634L611,449H316V60L483,40V0Z" 
id="f2_16"
transform="scale(0.001,-0.001)" />

<path d="M13,0V34L95,46L325,350L122,649L40,668v33H357V668L264,648L399,446L554,649l-96,19v33H710V668L630,652L433,397L663,50L745,34V0H427V34l94,17L359,299L169,50L266,34V0Z" 
id="f2_2k"
transform="scale(0.001,-0.001)" />

<path d="M188,355c0,0,148,11,236,69c0,0,89,58,89,143c0,0,0,41,-23,68c0,0,-22,27,-66,27c0,0,-52,0,-101,-43c0,0,-49,-42,-85,-114c0,0,-36,-71,-50,-150ZM298,-14c0,0,-120,0,-186,67c0,0,-65,67,-65,193c0,0,0,125,53,232c0,0,52,108,145,175c0,0,94,67,196,67c0,0,92,0,147,-42c0,0,56,-43,56,-111c0,0,0,-102,-126,-173c0,0,-125,-72,-336,-86l-3,-54c0,0,0,-95,40,-143c0,0,40,-47,118,-47c0,0,67,0,124,22c0,0,57,23,106,52l22,-32c0,0,-69,-58,-146,-89c0,0,-76,-31,-145,-31Z" 
id="f4_21"
transform="scale(0.001,-0.001)" />

<path d="M54,0L169,649L81,668l6,33H294L274,558c0,0,62,81,130,121c0,0,67,41,132,41c0,0,75,0,113,-41c0,0,38,-41,38,-117c0,0,0,-10,-3,-32c0,0,-3,-21,-81,-478L700,34L695,0H470l76,434c0,0,17,94,17,123c0,0,0,34,-18,55c0,0,-18,21,-56,21c0,0,-56,0,-121,-47c0,0,-65,-47,-108,-117L178,0Z" 
id="f4_2a"
transform="scale(0.001,-0.001)" />

<path d="M298,-14c0,0,-120,0,-185,69c0,0,-66,69,-66,191c0,0,0,130,52,237c0,0,52,107,149,172c0,0,97,65,203,65c0,0,53,0,112,-12c0,0,60,-11,99,-27L628,485H587L575,615c0,0,-47,47,-125,47c0,0,-72,0,-134,-53c0,0,-62,-53,-100,-147c0,0,-37,-95,-37,-208c0,0,0,-190,154,-190c0,0,106,0,222,74l22,-32c0,0,-60,-56,-135,-88c0,0,-76,-32,-144,-32Z" 
id="f4_1z"
transform="scale(0.001,-0.001)" />

<path d="M81,0L258,1008l-96,18l6,34H391L214,52L331,33L325,0Z" 
id="f4_28"
transform="scale(0.001,-0.001)" />

<path d="M325,47c0,0,68,0,130,54c0,0,61,55,97,149c0,0,36,94,36,202c0,0,0,103,-39,156c0,0,-39,53,-113,53c0,0,-67,0,-128,-54c0,0,-61,-55,-96,-149c0,0,-35,-94,-35,-204c0,0,0,-101,39,-154c0,0,39,-53,109,-53Zm-6,-61c0,0,-124,0,-199,79c0,0,-74,79,-74,214c0,0,0,120,51,222c0,0,51,102,143,160c0,0,91,59,205,59c0,0,124,0,199,-80c0,0,74,-79,74,-214c0,0,0,-120,-51,-222C667,204,615,102,524,43c0,0,-91,-57,-205,-57Z" 
id="f4_2b"
transform="scale(0.001,-0.001)" />

<path d="M228,-14c0,0,-103,0,-209,46L49,200H83L95,99c0,0,20,-21,55,-38c0,0,36,-16,81,-16c0,0,163,0,163,133c0,0,0,44,-35,78c0,0,-34,34,-113,72c0,0,-75,37,-112,81c0,0,-36,45,-36,104c0,0,0,99,66,153c0,0,67,54,184,54c0,0,85,0,200,-26L521,538H486l-11,80c0,0,-47,42,-124,42c0,0,-61,0,-97,-28c0,0,-37,-28,-37,-87c0,0,0,-40,31,-71c0,0,32,-30,119,-75c0,0,78,-40,113,-86c0,0,36,-47,36,-107c0,0,0,-113,-71,-167c0,0,-72,-53,-217,-53Z" 
id="f4_2f"
transform="scale(0.001,-0.001)" />

<path d="M301,78c0,0,41,0,90,27c0,0,49,28,95,77l81,442c0,0,-26,18,-54,27c0,0,-27,10,-67,10c0,0,-70,0,-131,-55c0,0,-61,-55,-99,-152c0,0,-37,-97,-37,-201c0,0,0,-79,33,-127c0,0,33,-48,89,-48ZM245,-14c0,0,-91,0,-145,68c0,0,-54,69,-54,183c0,0,0,128,55,240c0,0,55,112,150,177c0,0,96,66,210,66c0,0,70,0,123,-18c0,0,3,36,51,306l-115,18l6,34H768L589,52L673,33L667,0H454l22,117C476,117,350,-14,245,-14Z" 
id="f4_20"
transform="scale(0.001,-0.001)" />

<path d="M311,-14c0,0,-94,0,-169,18C142,4,67,23,18,55L57,277h48l1,-143c0,0,25,-37,84,-63c0,0,59,-26,126,-26c0,0,122,0,188,58c0,0,66,58,66,162c0,0,0,40,-18,70c0,0,-18,30,-48,54c0,0,-30,23,-67,44c0,0,-38,20,-77,40c0,0,-40,21,-78,44c0,0,-37,24,-67,55c0,0,-30,31,-48,71c0,0,-18,40,-18,94c0,0,0,133,90,204c0,0,91,70,259,70c0,0,128,0,241,-28L703,774H654l-4,128c0,0,-23,20,-66,33c0,0,-42,13,-98,13c0,0,-99,0,-153,-48c0,0,-53,-48,-53,-136c0,0,0,-47,33,-85c0,0,34,-39,100,-73c0,0,102,-53,146,-80c0,0,45,-28,75,-59c0,0,31,-31,49,-72c0,0,18,-40,18,-92c0,0,0,-154,-100,-236c0,0,-100,-81,-290,-81Z" 
id="f4_1j"
transform="scale(0.001,-0.001)" />

<path d="M398,0C398,0,266,0,185,39c0,0,-82,39,-133,124C52,163,0,248,0,342c0,0,0,144,103,243c0,0,103,98,292,98H694V611H387c0,0,-99,0,-166,-32c0,0,-68,-32,-105,-88c0,0,-26,-40,-41,-113H694V304H75c0,0,30,-120,103,-176c0,0,73,-56,210,-56H694V0Z" 
id="f6_40"
transform="scale(0.001,-0.001)" />

<path d="M88,-163c0,0,-39,0,-63,25c0,0,-25,26,-25,65c0,0,0,34,19,54c0,0,19,19,48,19c0,0,30,0,51,-23c0,0,22,-24,37,-24c0,0,12,0,21,11c0,0,8,10,8,35c0,0,0,30,-7,88c0,0,-27,235,-27,620c0,0,13,411,17,446c0,0,17,139,60,188c0,0,43,48,98,48c0,0,37,0,65,-25c0,0,28,-25,28,-54c0,0,0,-35,-19,-57c0,0,-20,-21,-49,-21c0,0,-26,0,-57,27c0,0,-17,15,-30,15c0,0,-12,0,-21,-11c0,0,-8,-11,-8,-37c0,0,0,-31,6,-108c0,0,28,-306,28,-496c0,0,0,-50,-12,-439c0,0,-6,-219,-67,-296c0,0,-41,-50,-101,-50Z" 
id="f6_50"
transform="scale(0.001,-0.001)" />

<path d="M83,0C83,0,48,0,24,24C24,24,0,49,0,83c0,0,0,34,24,58c0,0,24,24,59,24c0,0,34,0,58,-24c0,0,24,-24,24,-58c0,0,0,-34,-24,-59C141,24,117,0,83,0ZM695,0c0,0,-34,0,-58,24c0,0,-25,25,-25,59c0,0,0,34,25,58c0,0,24,24,58,24c0,0,34,0,58,-24c0,0,24,-24,24,-58c0,0,0,-34,-24,-59C753,24,729,0,695,0ZM388,594c0,0,-34,0,-59,23c0,0,-24,24,-24,59c0,0,0,34,24,58c0,0,25,25,59,25c0,0,34,0,58,-25c0,0,24,-24,24,-58c0,0,0,-35,-24,-59c0,0,-24,-23,-58,-23Z" 
id="f6_1s"
transform="scale(0.001,-0.001)" />

<path d="M410,-14c0,0,-80,0,-162,14c0,0,-81,14,-144,38V270h48L178,134c0,0,28,-35,95,-62c0,0,68,-27,134,-27c0,0,104,0,163,53c0,0,58,54,58,148c0,0,0,54,-23,89c0,0,-22,35,-59,59c0,0,-37,24,-84,41c0,0,-47,17,-97,34c0,0,-49,17,-96,38c0,0,-47,21,-84,53c0,0,-37,32,-60,79c0,0,-23,48,-23,117c0,0,0,119,90,187c0,0,89,68,248,68c0,0,121,0,263,-32V771H654L628,893c0,0,-76,55,-188,55c0,0,-100,0,-156,-40c0,0,-56,-41,-56,-112c0,0,0,-49,22,-81c0,0,23,-32,60,-55c0,0,37,-22,84,-39c0,0,48,-16,97,-34c0,0,50,-17,97,-39c0,0,48,-22,85,-56c0,0,36,-34,59,-83c0,0,23,-49,23,-120c0,0,0,-145,-89,-224c0,0,-89,-79,-256,-79Z" 
id="f2_1j"
transform="scale(0.001,-0.001)" />

<path d="M134,0V40L339,60V876L137,804v39l292,166h39V60L672,40V0Z" 
id="f2_l"
transform="scale(0.001,-0.001)" />

<path d="M76,316v76H787V316Zm0,306v76H787V622Z" 
id="f2_x"
transform="scale(0.001,-0.001)" />

<path d="M395,49L530,665c0,0,-132,-7,-228,-114c0,0,-97,-108,-97,-265c0,0,0,-97,52,-163c0,0,51,-66,138,-74Zm117,1v0c0,0,92,4,166,54c0,0,75,51,117,138c0,0,43,86,43,188c0,0,0,59,-21,111c0,0,-21,51,-65,85c0,0,-43,34,-104,40L512,50ZM313,-320L380,-9C380,-9,233,1,153,78c0,0,-79,77,-79,209c0,0,0,113,58,213c0,0,59,101,163,162c0,0,104,62,250,64l69,320H732L662,726c0,0,150,-11,229,-88c0,0,79,-77,79,-208c0,0,0,-100,-35,-180c0,0,-35,-81,-103,-142c0,0,-68,-61,-145,-90C687,18,609,-9,498,-9L430,-320Z" 
id="f3_1kn"
transform="scale(0.001,-0.001)" />

<path d="M67,0V109L206,235c0,0,133,118,196,190c0,0,63,72,90,149c0,0,27,77,27,177c0,0,0,97,-44,148c0,0,-44,50,-144,50c0,0,-39,0,-81,-10c0,0,-42,-11,-74,-29L150,787H101V980c0,0,135,32,230,32c0,0,164,0,247,-68c0,0,82,-69,82,-193c0,0,0,-84,-32,-158c0,0,-33,-75,-100,-148c0,0,-67,-74,-222,-206c0,0,-67,-57,-141,-125H680V0Z" 
id="f2_m"
transform="scale(0.001,-0.001)" />

<path d="M507,49c0,0,111,0,206,75c0,0,94,75,153,216c0,0,60,140,60,280c0,0,0,150,-77,240c0,0,-76,91,-201,91c0,0,-112,0,-205,-75c0,0,-92,-76,-151,-217c0,0,-59,-141,-59,-284c0,0,0,-147,75,-237c0,0,75,-89,199,-89ZM770,-246c0,0,-76,0,-128,39c0,0,-51,39,-124,158l-22,35c0,0,-119,1,-214,51c0,0,-94,51,-146,142c0,0,-52,90,-52,204c0,0,0,180,75,326c0,0,74,145,204,224c0,0,129,78,294,78c0,0,120,0,216,-50c0,0,96,-51,149,-142c0,0,53,-91,53,-206c0,0,0,-148,-53,-278c0,0,-53,-131,-148,-216C874,119,778,33,650,2c0,0,64,-91,92,-120c0,0,29,-28,59,-41c0,0,30,-13,67,-13l62,3l-9,-50c0,0,-18,-7,-67,-17c0,0,-49,-10,-84,-10Z" 
id="f4_1h"
transform="scale(0.001,-0.001)" />

<path d="M410,45c0,0,90,0,130,58c0,0,40,59,40,193c0,0,0,122,-38,177c0,0,-38,54,-122,54c0,0,-102,0,-217,-37c0,0,0,-227,51,-336c0,0,52,-109,156,-109Zm3,-59c0,0,-169,0,-258,131c0,0,-89,131,-89,377c0,0,0,161,47,278c0,0,47,117,131,178c0,0,85,61,196,61c0,0,109,0,217,-26V813H608L582,915c0,0,-25,13,-67,23c0,0,-41,10,-75,10c0,0,-109,0,-170,-105c0,0,-60,-106,-66,-308c0,0,121,63,244,63c0,0,132,0,201,-74c0,0,69,-74,69,-214c0,0,0,-156,-78,-240c0,0,-79,-84,-227,-84Z" 
id="f2_q"
transform="scale(0.001,-0.001)" />

<path d="M490,152V469H174v77H490V863h77V546H885V469H567V152Z" 
id="f4_f"
transform="scale(0.001,-0.001)" />

<path d="M458,327l71,403l32,150L111,327ZM401,0l41,230H4l15,89l560,686H698L579,327H730L713,230H562L521,0Z" 
id="f4_o"
transform="scale(0.001,-0.001)" />

<path d="M350,-14c0,0,-142,0,-269,31L73,228h49L156,87c0,0,29,-16,82,-28c0,0,54,-12,100,-12c0,0,117,0,173,54c0,0,56,53,56,178c0,0,0,99,-52,150c0,0,-51,51,-159,56l-107,6v61l107,7c0,0,84,5,124,52c0,0,41,48,41,145c0,0,0,101,-44,147c0,0,-44,45,-139,45c0,0,-40,0,-83,-10c0,0,-43,-11,-76,-29L153,786H104V979c0,0,74,19,127,26c0,0,54,6,107,6c0,0,321,0,321,-246c0,0,0,-104,-57,-165c0,0,-57,-62,-162,-77c0,0,136,-16,200,-78c0,0,64,-62,64,-173c0,0,0,-135,-92,-211c0,0,-93,-75,-262,-75Z" 
id="f2_n"
transform="scale(0.001,-0.001)" />

<path d="M304,24V657c0,0,-49,-12,-76,-33c0,0,-42,-33,-68,-96c0,0,-26,-62,-26,-168c0,0,0,-118,30,-192c0,0,31,-75,76,-113c0,0,21,-19,64,-31Zm83,0c0,0,46,10,71,30c0,0,46,35,71,98c0,0,25,64,25,177c0,0,0,103,-23,175c0,0,-23,72,-64,110c0,0,-26,26,-80,43V24ZM304,-328V-20c0,0,-113,12,-182,70C122,50,0,154,0,339c0,0,0,73,19,131c0,0,18,58,50,102c0,0,32,44,70,72c0,0,37,28,80,42c0,0,31,10,85,17v358h83V703c0,0,149,-16,226,-117c0,0,78,-101,78,-241c0,0,0,-64,-18,-124c0,0,-19,-60,-49,-105c0,0,-30,-45,-68,-74c0,0,-37,-30,-82,-44c0,0,-31,-11,-87,-18V-328Z" 
id="f6_22"
transform="scale(0.001,-0.001)" />

<path d="M420,-22L89,941L1,960v40H383V960L236,941L474,236L744,930h33L1037,236l227,705l-156,19v40h331V960l-87,-19L1025,-22H985L726,666L460,-22Z" 
id="f2_1n"
transform="scale(0.001,-0.001)" />

<path d="M524,0c0,0,-73,0,-127,9c0,0,-54,9,-97,29c0,0,-43,20,-82,61c0,0,-38,41,-62,90c0,0,-24,49,-36,111c0,0,-12,62,-12,134c0,0,0,118,23,195c0,0,23,77,78,138c0,0,54,60,130,86c0,0,77,26,197,26H842V775H536c0,0,-74,0,-120,-8c0,0,-46,-8,-77,-27c0,0,-30,-18,-55,-51c0,0,-25,-34,-39,-83c0,0,-14,-49,-18,-111H842V392H226c0,0,4,-70,20,-123c0,0,17,-54,50,-92c0,0,33,-37,86,-55c0,0,52,-18,145,-18H842V0Z" 
id="f3_15d"
transform="scale(0.001,-0.001)" />

<path d="M95,0L203,473c0,0,10,45,13,69c0,0,3,25,3,41c0,0,0,30,-9,44c0,0,-10,13,-31,13c0,0,-23,0,-49,-19c0,0,-26,-19,-70,-69L17,594c0,0,69,71,115,102c0,0,46,30,102,30c0,0,47,0,74,-31c0,0,28,-31,28,-81c0,0,0,-37,-14,-77l9,-4c0,0,73,100,141,146c0,0,67,46,137,46c0,0,54,0,91,-8L664,550H587c0,0,-4,31,-13,48c0,0,-8,17,-19,24c0,0,-11,7,-28,7c0,0,-27,0,-59,-23c0,0,-32,-23,-71,-73c0,0,-40,-49,-63,-94c0,0,-24,-46,-39,-116L224,0Z" 
id="f3_1fz"
transform="scale(0.001,-0.001)" />

<path d="M0,598L23,819c0,0,10,95,20,127c0,0,14,47,39,68c0,0,26,20,58,20c0,0,27,0,43,-14c0,0,15,-15,15,-39c0,0,0,-17,-7,-38c0,0,-10,-28,-55,-124L33,598Z" 
id="f6_2s"
transform="scale(0.001,-0.001)" />

<path d="M113,-203V1060H454v-35L232,994V-138l222,-30v-35Z" 
id="f2_1r"
transform="scale(0.001,-0.001)" />

<path d="M477,0V33l64,19L348,354L257,254V52L331,33V0H44V33l89,19v956L29,1026v34H257V338L544,647l-73,20v34H718V667L631,650L431,446L688,50L764,33V0Z" 
id="f2_27"
transform="scale(0.001,-0.001)" />

<path d="M55,-203v35l222,30V994L55,1025v35H395V-203Z" 
id="f2_1t"
transform="scale(0.001,-0.001)" />

<path d="M868,0L251,900V60L385,40V0H44V40L172,60V941L44,960v40H347L862,259V941L727,960v40h341V960L940,941V0Z" 
id="f2_1e"
transform="scale(0.001,-0.001)" />

<path d="M211,-20c0,0,-39,0,-64,25c0,0,-26,27,-26,64c0,0,0,38,26,64c0,0,26,26,64,26c0,0,37,0,64,-25c0,0,26,-26,26,-65c0,0,0,-37,-26,-64c0,0,-26,-25,-64,-25Zm0,556c0,0,-38,0,-64,26c0,0,-26,26,-26,64c0,0,0,37,26,64c0,0,25,27,64,27c0,0,38,0,64,-27c0,0,26,-27,26,-64c0,0,0,-38,-26,-64c0,0,-27,-26,-64,-26Z" 
id="f2_u"
transform="scale(0.001,-0.001)" />

<path d="M55,0V40L184,60V941L55,960v40H455V960L327,941V60L455,40V0Z" 
id="f2_19"
transform="scale(0.001,-0.001)" />

<path d="M64,-325c0,0,-46,0,-107,14v148H-8l19,-81c0,0,25,-21,62,-21c0,0,44,0,67,47c0,0,22,47,22,152V649L57,668v33H286V-28c0,0,0,-146,-57,-221c0,0,-56,-76,-165,-76ZM213,850c0,0,-34,0,-58,24c0,0,-24,24,-24,56c0,0,0,34,24,58c0,0,24,24,58,24c0,0,32,0,56,-24c0,0,24,-24,24,-58c0,0,0,-32,-24,-56c0,0,-24,-24,-56,-24Z" 
id="f2_26"
transform="scale(0.001,-0.001)" />

<path d="M715,0V72l82,74c0,0,75,68,109,110c0,0,34,42,48,88c0,0,15,46,15,107c0,0,0,106,-98,106c0,0,-46,0,-85,-24L770,460H729V588c0,0,82,20,142,20c0,0,100,0,152,-41c0,0,53,-42,53,-116c0,0,0,-73,-34,-129c0,0,-34,-57,-124,-136L799,81h289V0ZM175,0L894,1000h74L251,0ZM49,399v37l123,10V912L52,869v35l174,100h54V446L404,436V399Z" 
id="f2_3k"
transform="scale(0.001,-0.001)" />


</defs>
</svg>