<?xml version="1.0" encoding="UTF-8" standalone="no"?>
<!DOCTYPE svg PUBLIC "-//W3C//DTD SVG 1.1//EN"
"http://www.w3.org/Graphics/SVG/1.1/DTD/svg11.dtd">
<svg viewBox="0 0 909 1286" version="1.1" xmlns="http://www.w3.org/2000/svg" xmlns:xlink="http://www.w3.org/1999/xlink">
<defs>
<clipPath id="c0_45"><path d="M99.9,265.6V212.5H421v53.1Z" /></clipPath>
<clipPath id="c1_45"><path d="M55.2,339V280H433.3v59Z" /></clipPath>
<clipPath id="c2_45"><path d="M108.7,406.1V352.9H382.1v53.2Z" /></clipPath>
<clipPath id="c3_45"><path d="M170.7,473.2V420H332.5v53.2Z" /></clipPath>
<clipPath id="c4_45"><path d="M55.2,576.9V523.8H195.5v53.1Z" /></clipPath>
<clipPath id="c5_45"><path d="M434.3,641.1V592.3h42v48.8Z" /></clipPath>
<style type="text/css"><![CDATA[
.g0_45{
fill: #D9D9D9;
}
.g1_45{
fill: none;
stroke: #000000;
stroke-width: 0.7638889;
stroke-linecap: butt;
stroke-linejoin: miter;
}
.g2_45{
fill: none;
stroke: #000000;
stroke-width: 0.9116826;
stroke-linecap: butt;
stroke-linejoin: round;
}
.g3_45{
fill: none;
stroke: #000000;
stroke-width: 0.9134966;
stroke-linecap: butt;
stroke-linejoin: round;
}
.g4_45{
fill: none;
stroke: #000000;
stroke-width: 0.9098751;
stroke-linecap: butt;
stroke-linejoin: round;
}
.g5_45{
fill: none;
stroke: #000000;
stroke-width: 0.9059143;
stroke-linecap: butt;
stroke-linejoin: round;
}
.g6_45{
fill: none;
stroke: #000000;
stroke-width: 0.9037496;
stroke-linecap: butt;
stroke-linejoin: round;
}
.g7_45{
fill: none;
stroke: #000000;
stroke-width: 0.89925474;
stroke-linecap: butt;
stroke-linejoin: round;
}
.g8_45{
}
]]></style>
</defs>
<image preserveAspectRatio="none" x="747" y="1196" width="96" height="59" xlink:href="img/1.png" />
<image preserveAspectRatio="none" x="336" y="41" width="259" height="51" xlink:href="img/2.png" />
<image preserveAspectRatio="none" x="342" y="50" width="247" height="27" xlink:href="img/3.png" />
<image preserveAspectRatio="none" x="341" y="45" width="239" height="42" xlink:href="img/4.png" />
<g fill="#FFFFFF" >
<use xlink:href="#f0_j" transform="matrix(11.5,0,0,11.5,355.1,70.1)" />
<use xlink:href="#f0_i" transform="matrix(11.5,0,0,11.5,364.3,70.1)" />
<use xlink:href="#f0_2n" transform="matrix(11.5,0,0,11.5,374.1,70.1)" />
<use xlink:href="#f0_t" transform="matrix(11.5,0,0,11.5,382.6,70.1)" />
<use xlink:href="#f0_oj" transform="matrix(11.5,0,0,11.5,391,70.1)" />
<use xlink:href="#f0_3e" transform="matrix(11.5,0,0,11.5,396.5,70.1)" />
<use xlink:href="#f0_1c" transform="matrix(11.5,0,0,11.5,406.1,70.1)" />
<use xlink:href="#f0_1c" transform="matrix(11.5,0,0,11.5,410.8,70.1)" />
<use xlink:href="#f0_oj" transform="matrix(11.5,0,0,11.5,415.6,70.1)" />
<use xlink:href="#f0_rz" transform="matrix(11.5,0,0,11.5,421.1,70.1)" />
<use xlink:href="#f0_rx" transform="matrix(11.5,0,0,11.5,429.9,70.1)" />
<use xlink:href="#f0_ry" transform="matrix(11.5,0,0,11.5,438.7,70.1)" />
<use xlink:href="#f0_s4" transform="matrix(11.5,0,0,11.5,447.5,70.1)" />
<use xlink:href="#f0_t" transform="matrix(11.5,0,0,11.5,460.4,70.1)" />
<use xlink:href="#f0_3e" transform="matrix(11.5,0,0,11.5,468.8,70.1)" />
<use xlink:href="#f0_5" transform="matrix(11.5,0,0,11.5,478.3,70.1)" />
<use xlink:href="#f0_1x" transform="matrix(11.5,0,0,11.5,489,70.1)" />
<use xlink:href="#f0_1c" transform="matrix(11.5,0,0,11.5,504.4,70.1)" />
<use xlink:href="#f0_1y" transform="matrix(11.5,0,0,11.5,509.1,70.1)" />
<use xlink:href="#f0_5" transform="matrix(11.5,0,0,11.5,520.8,70.1)" />
<use xlink:href="#f0_2t" transform="matrix(11.5,0,0,11.5,531.5,70.1)" />
<use xlink:href="#f0_1c" transform="matrix(11.5,0,0,11.5,540.2,70.1)" />
<use xlink:href="#f0_24" transform="matrix(11.5,0,0,11.5,545,70.1)" />
<use xlink:href="#f0_1y" transform="matrix(11.5,0,0,11.5,556.7,70.1)" />
</g>
<image preserveAspectRatio="none" x="554" y="45" width="36" height="42" xlink:href="img/5.png" />
<g fill="#FFFFFF" >
<use xlink:href="#f1_m" transform="matrix(11,0,0,11,770.3,1227.6)" />
<use xlink:href="#f1_k" transform="matrix(11,0,0,11,779.1,1227.6)" />
<use xlink:href="#f1_j" transform="matrix(11,0,0,11,792.3,1227.6)" />
<use xlink:href="#f1_m" transform="matrix(11,0,0,11,802.9,1227.6)" />
<use xlink:href="#f1_s" transform="matrix(11,0,0,11,811.7,1227.6)" />
</g>
<path fill-rule="evenodd" d="M52.8,1193.5H856.9v-.8H52.8v.8Z" class="g0_45" />
<path d="M37.9,99.4L873,98.5" class="g1_45" />
<g fill="#000000" >
<use xlink:href="#f2_1i" transform="matrix(12,0,0,12,55,144.1)" />
<use xlink:href="#f2_21" transform="matrix(12,0,0,12,67.1,144.1)" />
<use xlink:href="#f2_2f" transform="matrix(12,0,0,12,75.2,144.1)" />
<use xlink:href="#f2_2h" transform="matrix(12,0,0,12,82.2,144.1)" />
<use xlink:href="#f2_28" transform="matrix(12,0,0,12,91.7,144.1)" />
<use xlink:href="#f2_2g" transform="matrix(12,0,0,12,96.1,144.1)" />
<use xlink:href="#f2_1x" transform="matrix(12,0,0,12,101.6,144.1)" />
<use xlink:href="#f2_2a" transform="matrix(12,0,0,12,110,144.1)" />
<use xlink:href="#f2_2g" transform="matrix(12,0,0,12,118.8,144.1)" />
<use xlink:href="#f2_21" transform="matrix(12,0,0,12,129,144.1)" />
<use xlink:href="#f2_28" transform="matrix(12,0,0,12,137.1,144.1)" />
<use xlink:href="#f2_21" transform="matrix(12,0,0,12,141.8,144.1)" />
<use xlink:href="#f2_1z" transform="matrix(12,0,0,12,149.9,144.1)" />
<use xlink:href="#f2_2g" transform="matrix(12,0,0,12,158,144.1)" />
<use xlink:href="#f2_2e" transform="matrix(12,0,0,12,163.5,144.1)" />
<use xlink:href="#f2_25" transform="matrix(12,0,0,12,169.7,144.1)" />
<use xlink:href="#f2_1z" transform="matrix(12,0,0,12,174.1,144.1)" />
<use xlink:href="#f2_22" transform="matrix(12,0,0,12,187.3,144.1)" />
<use xlink:href="#f2_25" transform="matrix(12,0,0,12,193.1,144.1)" />
<use xlink:href="#f2_21" transform="matrix(12,0,0,12,197.9,144.1)" />
<use xlink:href="#f2_28" transform="matrix(12,0,0,12,206.7,144.1)" />
<use xlink:href="#f2_20" transform="matrix(12,0,0,12,211.4,144.1)" />
<use xlink:href="#f2_25" transform="matrix(12,0,0,12,225.7,144.1)" />
<use xlink:href="#f2_2a" transform="matrix(12,0,0,12,230.5,144.1)" />
<use xlink:href="#f2_2g" transform="matrix(12,0,0,12,239.3,144.1)" />
<use xlink:href="#f2_21" transform="matrix(12,0,0,12,244.8,144.1)" />
<use xlink:href="#f2_2a" transform="matrix(12,0,0,12,252.8,144.1)" />
<use xlink:href="#f2_2f" transform="matrix(12,0,0,12,261.6,144.1)" />
<use xlink:href="#f2_25" transform="matrix(12,0,0,12,268.9,144.1)" />
<use xlink:href="#f2_2g" transform="matrix(12,0,0,12,273.3,144.1)" />
<use xlink:href="#f2_2l" transform="matrix(12,0,0,12,279.2,144.1)" />
<use xlink:href="#f2_1x" transform="matrix(12,0,0,12,292.7,144.1)" />
<use xlink:href="#f2_2g" transform="matrix(12,0,0,12,300.8,144.1)" />
<use xlink:href="#f2_2g" transform="matrix(12,0,0,12,310.7,144.1)" />
<use xlink:href="#f2_24" transform="matrix(12,0,0,12,316.2,144.1)" />
<use xlink:href="#f2_21" transform="matrix(12,0,0,12,325,144.1)" />
<use xlink:href="#f2_2c" transform="matrix(12,0,0,12,337.8,144.1)" />
<use xlink:href="#f2_2b" transform="matrix(12,0,0,12,347,144.1)" />
<use xlink:href="#f2_25" transform="matrix(12,0,0,12,356.5,144.1)" />
<use xlink:href="#f2_2a" transform="matrix(12,0,0,12,361.2,144.1)" />
<use xlink:href="#f2_2g" transform="matrix(12,0,0,12,370,144.1)" />
<use xlink:href="#f2_1g" transform="matrix(12,0,0,12,380.3,144.1)" />
<use xlink:href="#f2_g" transform="matrix(12,0,0,12,390.2,144.1)" />
<use xlink:href="#f2_15" transform="matrix(12,0,0,12,399.3,144.1)" />
<use xlink:href="#f2_1g" transform="matrix(7.9,0,0,7.9,411.2,145.6)" />
<use xlink:href="#f2_x" transform="matrix(12,0,0,12,422.2,144.1)" />
<use xlink:href="#f2_15" transform="matrix(12,0,0,12,437.2,144.1)" />
<use xlink:href="#f2_11" transform="matrix(7.9,0,0,7.9,448.6,145.6)" />
<use xlink:href="#f2_f" transform="matrix(12,0,0,12,461.8,144.1)" />
<use xlink:href="#f2_15" transform="matrix(12,0,0,12,476.8,144.1)" />
<use xlink:href="#f2_12" transform="matrix(7.9,0,0,7.9,488.2,145.6)" />
<use xlink:href="#f2_1k" transform="matrix(12,0,0,12,55,168.3)" />
<use xlink:href="#f2_24" transform="matrix(12,0,0,12,66.4,168.3)" />
<use xlink:href="#f2_21" transform="matrix(12,0,0,12,75.2,168.3)" />
<use xlink:href="#f2_2i" transform="matrix(12,0,0,12,88,168.3)" />
<use xlink:href="#f2_21" transform="matrix(12,0,0,12,96.8,168.3)" />
<use xlink:href="#f2_1z" transform="matrix(12,0,0,12,105.2,168.3)" />
<use xlink:href="#f2_2g" transform="matrix(12,0,0,12,113.3,168.3)" />
<use xlink:href="#f2_2b" transform="matrix(12,0,0,12,118.4,168.3)" />
<use xlink:href="#f2_2e" transform="matrix(12,0,0,12,127.9,168.3)" />
<use xlink:href="#f2_2f" transform="matrix(12,0,0,12,134.2,168.3)" />
<use xlink:href="#f2_15" transform="matrix(12,0,0,12,145.9,168.3)" />
<use xlink:href="#f2_11" transform="matrix(12,0,0,12,157.2,168.3)" />
<use xlink:href="#f2_1x" transform="matrix(12,0,0,12,174.8,168.3)" />
<use xlink:href="#f2_2a" transform="matrix(12,0,0,12,182.9,168.3)" />
<use xlink:href="#f2_20" transform="matrix(12,0,0,12,191.7,168.3)" />
<use xlink:href="#f2_15" transform="matrix(12,0,0,12,205.6,168.3)" />
<use xlink:href="#f2_12" transform="matrix(12,0,0,12,216.9,168.3)" />
<use xlink:href="#f2_1x" transform="matrix(12,0,0,12,233.8,168.3)" />
<use xlink:href="#f2_2e" transform="matrix(12,0,0,12,241.9,168.3)" />
<use xlink:href="#f2_21" transform="matrix(12,0,0,12,248.1,168.3)" />
<use xlink:href="#f2_1z" transform="matrix(12,0,0,12,260.9,168.3)" />
<use xlink:href="#f2_2b" transform="matrix(12,0,0,12,268.6,168.3)" />
<use xlink:href="#f2_28" transform="matrix(12,0,0,12,278.1,168.3)" />
<use xlink:href="#f2_28" transform="matrix(12,0,0,12,282.9,168.3)" />
<use xlink:href="#f2_25" transform="matrix(12,0,0,12,288,168.3)" />
<use xlink:href="#f2_2a" transform="matrix(12,0,0,12,292.8,168.3)" />
<use xlink:href="#f2_21" transform="matrix(12,0,0,12,301.9,168.3)" />
<use xlink:href="#f2_1x" transform="matrix(12,0,0,12,310,168.3)" />
<use xlink:href="#f2_2e" transform="matrix(12,0,0,12,318.1,168.3)" />
<use xlink:href="#f2_1x" transform="matrix(12,0,0,12,329,168.3)" />
<use xlink:href="#f2_2g" transform="matrix(12,0,0,12,337.1,168.3)" />
<use xlink:href="#f2_2b" transform="matrix(12,0,0,12,347,168.3)" />
<use xlink:href="#f2_2c" transform="matrix(12,0,0,12,356.5,168.3)" />
<use xlink:href="#f2_2c" transform="matrix(12,0,0,12,365.7,168.3)" />
<use xlink:href="#f2_2b" transform="matrix(12,0,0,12,374.5,168.3)" />
<use xlink:href="#f2_2f" transform="matrix(12,0,0,12,384,168.3)" />
<use xlink:href="#f2_25" transform="matrix(12,0,0,12,390.9,168.3)" />
<use xlink:href="#f2_2g" transform="matrix(12,0,0,12,395.3,168.3)" />
<use xlink:href="#f2_21" transform="matrix(12,0,0,12,400.8,168.3)" />
<use xlink:href="#f2_i" transform="matrix(12,0,0,12,408.9,168.3)" />
<use xlink:href="#f3_1s" transform="matrix(12,0,0,12,55,193.6)" />
<use xlink:href="#f2_15" transform="matrix(12,0,0,12,75.6,193.6)" />
<use xlink:href="#f2_1g" transform="matrix(7.9,0,0,7.9,86.9,195.1)" />
<use xlink:href="#f2_x" transform="matrix(12,0,0,12,98.3,193.6)" />
<use xlink:href="#f2_15" transform="matrix(12,0,0,12,113,193.6)" />
<use xlink:href="#f2_11" transform="matrix(7.9,0,0,7.9,124.3,195.1)" />
<use xlink:href="#f2_f" transform="matrix(12,0,0,12,137.5,193.6)" />
<use xlink:href="#f2_15" transform="matrix(12,0,0,12,152.6,193.6)" />
<use xlink:href="#f2_12" transform="matrix(7.9,0,0,7.9,164,195.1)" />
<use xlink:href="#f2_18" transform="matrix(12,0,0,12,55,242.4)" />
<use xlink:href="#f2_21" transform="matrix(12,0,0,12,68.3,242.4)" />
<use xlink:href="#f2_2e" transform="matrix(12,0,0,12,76.3,242.4)" />
<use xlink:href="#f2_21" transform="matrix(12,0,0,12,82.5,242.4)" />
<use xlink:href="#f2_g" transform="matrix(12,0,0,12,90.6,242.4)" />
</g>
<path d="M144.3,238.3H181m7.5,0H243m75.6,0h36.6m7.5,0h54.5" class="g2_45" />
<g clip-path="url(#c0_45)">
<g fill="#000000" >
<use xlink:href="#f2_m" transform="matrix(7.3,0,0,7.1,235.3,249.3)" />
<use xlink:href="#f2_m" transform="matrix(7.3,0,0,7.1,409.5,249.3)" />
<use xlink:href="#f2_k" transform="matrix(7.3,0,0,7.1,173.2,262.3)" />
<use xlink:href="#f2_k" transform="matrix(7.3,0,0,7.1,347.5,262.3)" />
<use xlink:href="#f2_l" transform="matrix(12.7,0,0,12.3,158.1,231)" />
<use xlink:href="#f2_l" transform="matrix(12.7,0,0,12.3,332.3,231)" />
<use xlink:href="#f2_i" transform="matrix(12.7,0,0,12.3,182.6,242.9)" />
<use xlink:href="#f2_1x" transform="matrix(12.7,0,0,12.3,247.8,242.9)" />
<use xlink:href="#f2_2a" transform="matrix(12.7,0,0,12.3,255.8,242.9)" />
<use xlink:href="#f2_20" transform="matrix(12.7,0,0,12.3,265,242.9)" />
<use xlink:href="#f2_i" transform="matrix(12.7,0,0,12.3,356.8,242.9)" />
<use xlink:href="#f2_o" transform="matrix(12.7,0,0,12.3,145.5,257.6)" />
<use xlink:href="#f2_c" transform="matrix(12.7,0,0,12.3,189.3,257.6)" />
<use xlink:href="#f2_d" transform="matrix(12.7,0,0,12.3,228.5,257.6)" />
<use xlink:href="#f2_o" transform="matrix(12.7,0,0,12.3,319.6,257.6)" />
<use xlink:href="#f2_c" transform="matrix(12.7,0,0,12.3,363.5,257.6)" />
<use xlink:href="#f2_d" transform="matrix(12.7,0,0,12.3,402.7,257.6)" />
<use xlink:href="#f4_12" transform="matrix(7.3,0,0,7.1,290.9,247.7)" />
<use xlink:href="#f4_2d" transform="matrix(12.7,0,0,12.3,211.2,231)" />
<use xlink:href="#f4_2d" transform="matrix(12.7,0,0,12.3,385.4,231)" />
<use xlink:href="#f4_15" transform="matrix(12.7,0,0,12.3,103.3,242.9)" />
<use xlink:href="#f4_11" transform="matrix(12.7,0,0,12.3,114.5,242.9)" />
<use xlink:href="#f4_15" transform="matrix(12.7,0,0,12.3,279.5,242.9)" />
<use xlink:href="#f4_2k" transform="matrix(12.7,0,0,12.3,196.8,257.6)" />
<use xlink:href="#f4_28" transform="matrix(12.7,0,0,12.3,222.3,257.6)" />
<use xlink:href="#f4_2k" transform="matrix(12.7,0,0,12.3,371,257.6)" />
<use xlink:href="#f4_28" transform="matrix(12.7,0,0,12.3,396.5,257.6)" />
<use xlink:href="#f3_x" transform="matrix(12.7,0,0,12.3,129.5,242.9)" />
<use xlink:href="#f3_x" transform="matrix(12.7,0,0,12.3,303.8,242.9)" />
<use xlink:href="#f3_2c" transform="matrix(12.7,0,0,12.3,154.9,257.6)" />
<use xlink:href="#f3_21" transform="matrix(12.7,0,0,12.3,164.6,257.6)" />
<use xlink:href="#f3_f" transform="matrix(12.7,0,0,12.3,208.8,257.6)" />
<use xlink:href="#f3_2c" transform="matrix(12.7,0,0,12.3,329.1,257.6)" />
<use xlink:href="#f3_21" transform="matrix(12.7,0,0,12.3,338.9,257.6)" />
<use xlink:href="#f3_f" transform="matrix(12.7,0,0,12.3,383,257.6)" />
</g>
</g>
<path d="M112.4,310.3H149m11.2,0h54.3m18.3,0h54.6m28.2,0h36.7m7.5,0h69.5" class="g3_45" />
<g clip-path="url(#c1_45)">
<g fill="#000000" >
<use xlink:href="#f2_m" transform="matrix(7.3,0,0,7.1,206.7,321.2)" />
<use xlink:href="#f2_m" transform="matrix(7.3,0,0,7.1,279.6,321.2)" />
<use xlink:href="#f2_m" transform="matrix(7.3,0,0,7.1,377.1,321.2)" />
<use xlink:href="#f2_m" transform="matrix(7.3,0,0,7.1,407.6,321.2)" />
<use xlink:href="#f2_m" transform="matrix(7.3,0,0,7.1,421.5,321.2)" />
<use xlink:href="#f2_k" transform="matrix(7.3,0,0,7.1,141.3,334.2)" />
<use xlink:href="#f2_k" transform="matrix(7.3,0,0,7.1,344.5,334.2)" />
<use xlink:href="#f2_l" transform="matrix(12.7,0,0,12.3,126.1,303)" />
<use xlink:href="#f2_l" transform="matrix(12.7,0,0,12.3,329.3,303)" />
<use xlink:href="#f2_o" transform="matrix(12.7,0,0,12.3,378.6,303)" />
<use xlink:href="#f2_i" transform="matrix(12.7,0,0,12.3,353.9,314.9)" />
<use xlink:href="#f2_o" transform="matrix(12.7,0,0,12.3,113.5,329.4)" />
<use xlink:href="#f2_c" transform="matrix(12.7,0,0,12.3,161.1,329.4)" />
<use xlink:href="#f2_d" transform="matrix(12.7,0,0,12.3,200,329.4)" />
<use xlink:href="#f2_c" transform="matrix(12.7,0,0,12.3,233.6,329.4)" />
<use xlink:href="#f2_d" transform="matrix(12.7,0,0,12.3,272.8,329.4)" />
<use xlink:href="#f2_o" transform="matrix(12.7,0,0,12.3,316.7,329.4)" />
<use xlink:href="#f2_c" transform="matrix(12.7,0,0,12.3,360.6,329.4)" />
<use xlink:href="#f2_d" transform="matrix(12.7,0,0,12.3,414.7,329.4)" />
<use xlink:href="#f4_1g" transform="matrix(7.3,0,0,7.1,84.8,319.6)" />
<use xlink:href="#f4_2d" transform="matrix(12.7,0,0,12.3,182.8,303)" />
<use xlink:href="#f4_2d" transform="matrix(12.7,0,0,12.3,255.5,303)" />
<use xlink:href="#f4_2d" transform="matrix(12.7,0,0,12.3,388,303)" />
<use xlink:href="#f4_28" transform="matrix(12.7,0,0,12.3,397.2,303)" />
<use xlink:href="#f4_2k" transform="matrix(12.7,0,0,12.3,402.3,303)" />
<use xlink:href="#f4_15" transform="matrix(12.7,0,0,12.3,73.3,314.9)" />
<use xlink:href="#f4_2k" transform="matrix(12.7,0,0,12.3,168.5,329.4)" />
<use xlink:href="#f4_28" transform="matrix(12.7,0,0,12.3,193.7,329.4)" />
<use xlink:href="#f4_2k" transform="matrix(12.7,0,0,12.3,241.1,329.4)" />
<use xlink:href="#f4_28" transform="matrix(12.7,0,0,12.3,266.6,329.4)" />
<use xlink:href="#f4_2k" transform="matrix(12.7,0,0,12.3,368.1,329.4)" />
<use xlink:href="#f4_28" transform="matrix(12.7,0,0,12.3,400.8,329.4)" />
<use xlink:href="#f3_4r" transform="matrix(12.7,0,0,12.3,152.1,302.6)" />
<use xlink:href="#f3_57" transform="matrix(12.7,0,0,12.3,288.9,302.6)" />
<use xlink:href="#f3_1s" transform="matrix(12.7,0,0,12.3,55.1,314.9)" />
<use xlink:href="#f3_x" transform="matrix(12.7,0,0,12.3,97.6,314.9)" />
<use xlink:href="#f3_h" transform="matrix(12.7,0,0,12.3,218.8,314.9)" />
<use xlink:href="#f3_x" transform="matrix(12.7,0,0,12.3,300.8,314.9)" />
<use xlink:href="#f3_4s" transform="matrix(12.7,0,0,12.3,152.1,320.2)" />
<use xlink:href="#f3_58" transform="matrix(12.7,0,0,12.3,288.9,320.2)" />
<use xlink:href="#f3_2c" transform="matrix(12.7,0,0,12.3,123,329.4)" />
<use xlink:href="#f3_21" transform="matrix(12.7,0,0,12.3,132.8,329.4)" />
<use xlink:href="#f3_h" transform="matrix(12.7,0,0,12.3,180.6,329.4)" />
<use xlink:href="#f3_f" transform="matrix(12.7,0,0,12.3,253.1,329.4)" />
<use xlink:href="#f3_2c" transform="matrix(12.7,0,0,12.3,326.2,329.4)" />
<use xlink:href="#f3_21" transform="matrix(12.7,0,0,12.3,335.9,329.4)" />
<use xlink:href="#f3_h" transform="matrix(12.7,0,0,12.3,387.7,329.4)" />
<use xlink:href="#f3_4t" transform="matrix(12.7,0,0,12.3,152.1,333.5)" />
<use xlink:href="#f3_59" transform="matrix(12.7,0,0,12.3,288.9,333.5)" />
</g>
</g>
<g fill="#000000" >
<use xlink:href="#f5_18" transform="matrix(12,0,0,12,55,382.9)" />
<use xlink:href="#f5_21" transform="matrix(12,0,0,12,66,382.9)" />
<use xlink:href="#f5_2a" transform="matrix(12,0,0,12,75.2,382.9)" />
<use xlink:href="#f5_1z" transform="matrix(12,0,0,12,83.2,382.9)" />
<use xlink:href="#f5_21" transform="matrix(12,0,0,12,90.2,382.9)" />
<use xlink:href="#f5_g" transform="matrix(12,0,0,12,99.4,382.9)" />
</g>
<path d="M151.2,378.7h36.7m7.6,0H265" class="g4_45" />
<g clip-path="url(#c2_45)">
<g fill="#000000" >
<use xlink:href="#f2_m" transform="matrix(7.3,0,0,7.1,212.8,389.7)" />
<use xlink:href="#f2_m" transform="matrix(7.3,0,0,7.1,243.3,389.7)" />
<use xlink:href="#f2_m" transform="matrix(7.3,0,0,7.1,257.2,389.7)" />
<use xlink:href="#f2_k" transform="matrix(7.3,0,0,7.1,180.2,402.8)" />
<use xlink:href="#f2_l" transform="matrix(12.7,0,0,12.3,165,371.5)" />
<use xlink:href="#f2_m" transform="matrix(12.7,0,0,12.3,215.8,371.5)" />
<use xlink:href="#f2_i" transform="matrix(12.7,0,0,12.3,189.6,383.4)" />
<use xlink:href="#f2_1r" transform="matrix(12.7,0,0,12.3,274,383.4)" />
<use xlink:href="#f2_m" transform="matrix(12.7,0,0,12.3,356.7,383.4)" />
<use xlink:href="#f2_1t" transform="matrix(12.7,0,0,12.3,371.9,383.4)" />
<use xlink:href="#f2_o" transform="matrix(12.7,0,0,12.3,152.4,398.1)" />
<use xlink:href="#f2_c" transform="matrix(12.7,0,0,12.3,196.3,398.1)" />
<use xlink:href="#f2_d" transform="matrix(12.7,0,0,12.3,250.5,398.1)" />
<use xlink:href="#f4_1g" transform="matrix(7.3,0,0,7.1,123.6,388.1)" />
<use xlink:href="#f4_2c" transform="matrix(12.7,0,0,12.3,227.5,371.5)" />
<use xlink:href="#f4_2k" transform="matrix(12.7,0,0,12.3,236.6,371.5)" />
<use xlink:href="#f4_15" transform="matrix(12.7,0,0,12.3,112.1,383.4)" />
<use xlink:href="#f4_2c" transform="matrix(12.7,0,0,12.3,303,383.4)" />
<use xlink:href="#f4_2d" transform="matrix(12.7,0,0,12.3,331.5,383.4)" />
<use xlink:href="#f4_28" transform="matrix(12.7,0,0,12.3,365.6,383.4)" />
<use xlink:href="#f4_2k" transform="matrix(12.7,0,0,12.3,203.8,398.1)" />
<use xlink:href="#f4_28" transform="matrix(12.7,0,0,12.3,236.6,398.1)" />
<use xlink:href="#f3_x" transform="matrix(12.7,0,0,12.3,136.4,383.4)" />
<use xlink:href="#f3_1s" transform="matrix(12.7,0,0,12.3,277.7,383.4)" />
<use xlink:href="#f3_x" transform="matrix(12.7,0,0,12.3,316.9,383.4)" />
<use xlink:href="#f3_3a" transform="matrix(12.7,0,0,12.3,343.5,383.4)" />
<use xlink:href="#f3_2c" transform="matrix(12.7,0,0,12.3,161.8,398.1)" />
<use xlink:href="#f3_21" transform="matrix(12.7,0,0,12.3,171.6,398.1)" />
<use xlink:href="#f3_h" transform="matrix(12.7,0,0,12.3,223.4,398.1)" />
</g>
</g>
<g fill="#000000" >
<use xlink:href="#f2_19" transform="matrix(12,0,0,12,55,450)" />
<use xlink:href="#f2_2a" transform="matrix(12,0,0,12,61.3,450)" />
<use xlink:href="#f2_2i" transform="matrix(12,0,0,12,74.8,450)" />
<use xlink:href="#f2_21" transform="matrix(12,0,0,12,83.6,450)" />
<use xlink:href="#f2_1z" transform="matrix(12,0,0,12,92,450)" />
<use xlink:href="#f2_2g" transform="matrix(12,0,0,12,100.1,450)" />
<use xlink:href="#f2_2b" transform="matrix(12,0,0,12,105.2,450)" />
<use xlink:href="#f2_2e" transform="matrix(12,0,0,12,114.7,450)" />
<use xlink:href="#f2_22" transform="matrix(12,0,0,12,125.7,450)" />
<use xlink:href="#f2_2e" transform="matrix(12,0,0,12,131.2,450)" />
<use xlink:href="#f2_2b" transform="matrix(12,0,0,12,137.4,450)" />
<use xlink:href="#f2_29" transform="matrix(12,0,0,12,146.9,450)" />
<use xlink:href="#f2_g" transform="matrix(12,0,0,12,160.5,450)" />
</g>
<path d="M213.5,445.8h36.9m7.6,0h70" class="g5_45" />
<g clip-path="url(#c3_45)">
<g fill="#000000" >
<use xlink:href="#f2_m" transform="matrix(7.3,0,0,7.1,275.5,456.8)" />
<use xlink:href="#f2_m" transform="matrix(7.3,0,0,7.1,306.2,456.8)" />
<use xlink:href="#f2_m" transform="matrix(7.3,0,0,7.1,320.2,456.8)" />
<use xlink:href="#f2_k" transform="matrix(7.3,0,0,7.1,242.6,469.9)" />
<use xlink:href="#f2_l" transform="matrix(12.6,0,0,12.3,227.3,438.5)" />
<use xlink:href="#f2_m" transform="matrix(12.6,0,0,12.3,278.4,438.5)" />
<use xlink:href="#f2_i" transform="matrix(12.6,0,0,12.3,252,450.5)" />
<use xlink:href="#f2_o" transform="matrix(12.6,0,0,12.3,214.6,465.1)" />
<use xlink:href="#f2_c" transform="matrix(12.6,0,0,12.3,258.8,465.1)" />
<use xlink:href="#f2_d" transform="matrix(12.6,0,0,12.3,313.3,465.1)" />
<use xlink:href="#f4_1g" transform="matrix(7.3,0,0,7.1,185.6,455.2)" />
<use xlink:href="#f4_2c" transform="matrix(12.6,0,0,12.3,290.2,438.5)" />
<use xlink:href="#f4_2k" transform="matrix(12.6,0,0,12.3,299.5,438.5)" />
<use xlink:href="#f4_15" transform="matrix(12.6,0,0,12.3,174,450.5)" />
<use xlink:href="#f4_2k" transform="matrix(12.6,0,0,12.3,266.4,465.1)" />
<use xlink:href="#f4_28" transform="matrix(12.6,0,0,12.3,299.4,465.1)" />
<use xlink:href="#f3_x" transform="matrix(12.6,0,0,12.3,198.5,450.5)" />
<use xlink:href="#f3_2c" transform="matrix(12.6,0,0,12.3,224.1,465.1)" />
<use xlink:href="#f3_21" transform="matrix(12.6,0,0,12.3,233.9,465.1)" />
<use xlink:href="#f3_h" transform="matrix(12.6,0,0,12.3,286.1,465.1)" />
</g>
</g>
<g fill="#000000" >
<use xlink:href="#f2_19" transform="matrix(12,0,0,12,55,505.8)" />
<use xlink:href="#f2_22" transform="matrix(12,0,0,12,61.3,505.8)" />
<use xlink:href="#f2_20" transform="matrix(12,0,0,12,71.5,505.8)" />
<use xlink:href="#f2_25" transform="matrix(12,0,0,12,81,505.8)" />
<use xlink:href="#f2_2c" transform="matrix(12,0,0,12,85.8,505.8)" />
<use xlink:href="#f2_2b" transform="matrix(12,0,0,12,94.9,505.8)" />
<use xlink:href="#f2_28" transform="matrix(12,0,0,12,104.8,505.8)" />
<use xlink:href="#f2_21" transform="matrix(12,0,0,12,109.2,505.8)" />
<use xlink:href="#f2_25" transform="matrix(12,0,0,12,122.4,505.8)" />
<use xlink:href="#f2_2f" transform="matrix(12,0,0,12,127.2,505.8)" />
<use xlink:href="#f2_2f" transform="matrix(12,0,0,12,138.9,505.8)" />
<use xlink:href="#f2_24" transform="matrix(12,0,0,12,146.2,505.8)" />
<use xlink:href="#f2_2b" transform="matrix(12,0,0,12,155,505.8)" />
<use xlink:href="#f2_2e" transform="matrix(12,0,0,12,164.5,505.8)" />
<use xlink:href="#f2_2g" transform="matrix(12,0,0,12,170.4,505.8)" />
<use xlink:href="#f2_g" transform="matrix(12,0,0,12,175.9,505.8)" />
<use xlink:href="#f2_25" transform="matrix(12,0,0,12,185,505.8)" />
<use xlink:href="#f2_i" transform="matrix(12,0,0,12,189.4,505.8)" />
<use xlink:href="#f2_21" transform="matrix(12,0,0,12,194.2,505.8)" />
<use xlink:href="#f2_i" transform="matrix(12,0,0,12,202.2,505.8)" />
<use xlink:href="#f2_g" transform="matrix(12,0,0,12,207,505.8)" />
<use xlink:href="#f2_m" transform="matrix(12,0,0,12,216.5,505.8)" />
<use xlink:href="#f4_28" transform="matrix(12,0,0,12,225.9,505.8)" />
<use xlink:href="#f2_w" transform="matrix(12,0,0,12,235.1,505.8)" />
<use xlink:href="#f2_w" transform="matrix(12,0,0,12,245.4,505.8)" />
<use xlink:href="#f2_2k" transform="matrix(12,0,0,12,260.4,505.8)" />
<use xlink:href="#f2_g" transform="matrix(12,0,0,12,269.2,505.8)" />
<use xlink:href="#f2_2g" transform="matrix(12,0,0,12,278.3,505.8)" />
<use xlink:href="#f2_24" transform="matrix(12,0,0,12,283.8,505.8)" />
<use xlink:href="#f2_21" transform="matrix(12,0,0,12,292.6,505.8)" />
<use xlink:href="#f2_2a" transform="matrix(12,0,0,12,300.7,505.8)" />
</g>
<path d="M97.7,549.6h51.9" class="g6_45" />
<g clip-path="url(#c4_45)">
<g fill="#000000" >
<use xlink:href="#f2_n" transform="matrix(7.3,0,0,7.1,142.2,560.6)" />
<use xlink:href="#f2_k" transform="matrix(7.3,0,0,7.1,126.6,573.6)" />
<use xlink:href="#f2_m" transform="matrix(12.6,0,0,12.3,104.8,542.3)" />
<use xlink:href="#f2_2o" transform="matrix(12.6,0,0,12.3,117,542.3)" />
<use xlink:href="#f2_2o" transform="matrix(12.6,0,0,12.3,139.8,542.3)" />
<use xlink:href="#f2_i" transform="matrix(12.6,0,0,12.3,151.2,554.2)" />
<use xlink:href="#f2_i" transform="matrix(12.6,0,0,12.3,155.8,554.2)" />
<use xlink:href="#f2_i" transform="matrix(12.6,0,0,12.3,160.4,554.2)" />
<use xlink:href="#f2_i" transform="matrix(12.6,0,0,12.3,165,554.2)" />
<use xlink:href="#f2_i" transform="matrix(12.6,0,0,12.3,169.6,554.2)" />
<use xlink:href="#f2_c" transform="matrix(12.6,0,0,12.3,174.2,554.2)" />
<use xlink:href="#f2_25" transform="matrix(12.6,0,0,12.3,180.2,554.2)" />
<use xlink:href="#f2_d" transform="matrix(12.6,0,0,12.3,185.7,554.2)" />
<use xlink:href="#f2_o" transform="matrix(12.6,0,0,12.3,98.8,568.9)" />
<use xlink:href="#f4_1g" transform="matrix(7.3,0,0,7.1,70,559)" />
<use xlink:href="#f4_1g" transform="matrix(12.6,0,0,12.3,125,542.3)" />
<use xlink:href="#f4_15" transform="matrix(12.6,0,0,12.3,58.5,554.2)" />
<use xlink:href="#f4_2k" transform="matrix(12.6,0,0,12.3,133.5,568.9)" />
<use xlink:href="#f3_x" transform="matrix(12.6,0,0,12.3,82.9,554.2)" />
<use xlink:href="#f3_2c" transform="matrix(12.6,0,0,12.3,108.3,568.9)" />
<use xlink:href="#f3_21" transform="matrix(12.6,0,0,12.3,118,568.9)" />
</g>
</g>
<g fill="#000000" >
<use xlink:href="#f2_1k" transform="matrix(12,0,0,12,55,621.3)" />
<use xlink:href="#f2_24" transform="matrix(12,0,0,12,66.4,621.3)" />
<use xlink:href="#f2_21" transform="matrix(12,0,0,12,75.2,621.3)" />
<use xlink:href="#f2_20" transform="matrix(12,0,0,12,88,621.3)" />
<use xlink:href="#f2_25" transform="matrix(12,0,0,12,97.5,621.3)" />
<use xlink:href="#f2_2e" transform="matrix(12,0,0,12,101.9,621.3)" />
<use xlink:href="#f2_21" transform="matrix(12,0,0,12,108.1,621.3)" />
<use xlink:href="#f2_1z" transform="matrix(12,0,0,12,116.2,621.3)" />
<use xlink:href="#f2_2g" transform="matrix(12,0,0,12,124.3,621.3)" />
<use xlink:href="#f2_25" transform="matrix(12,0,0,12,130.1,621.3)" />
<use xlink:href="#f2_2b" transform="matrix(12,0,0,12,134.5,621.3)" />
<use xlink:href="#f2_2a" transform="matrix(12,0,0,12,144,621.3)" />
<use xlink:href="#f2_2b" transform="matrix(12,0,0,12,157.6,621.3)" />
<use xlink:href="#f2_22" transform="matrix(12,0,0,12,167.1,621.3)" />
<use xlink:href="#f2_15" transform="matrix(12,0,0,12,177.3,621.3)" />
<use xlink:href="#f2_1g" transform="matrix(7.9,0,0,7.9,188.9,622.8)" />
<use xlink:href="#f2_25" transform="matrix(12,0,0,12,200.6,621.3)" />
<use xlink:href="#f2_2f" transform="matrix(12,0,0,12,205,621.3)" />
<use xlink:href="#f2_28" transform="matrix(12,0,0,12,217.1,621.3)" />
<use xlink:href="#f2_2b" transform="matrix(12,0,0,12,221.5,621.3)" />
<use xlink:href="#f2_2a" transform="matrix(12,0,0,12,231.4,621.3)" />
<use xlink:href="#f2_23" transform="matrix(12,0,0,12,240.2,621.3)" />
<use xlink:href="#f2_12" transform="matrix(12,0,0,12,254.1,621.3)" />
<use xlink:href="#f2_1g" transform="matrix(12,0,0,12,266.2,621.3)" />
<use xlink:href="#f2_2c" transform="matrix(12,0,0,12,281.2,621.3)" />
<use xlink:href="#f2_2e" transform="matrix(12,0,0,12,290.4,621.3)" />
<use xlink:href="#f2_2b" transform="matrix(12,0,0,12,296.6,621.3)" />
<use xlink:href="#f2_20" transform="matrix(12,0,0,12,306.1,621.3)" />
<use xlink:href="#f2_2h" transform="matrix(12,0,0,12,315.3,621.3)" />
<use xlink:href="#f2_1z" transform="matrix(12,0,0,12,324.4,621.3)" />
<use xlink:href="#f2_21" transform="matrix(12,0,0,12,332.5,621.3)" />
<use xlink:href="#f2_20" transform="matrix(12,0,0,12,340.6,621.3)" />
<use xlink:href="#f2_1z" transform="matrix(12,0,0,12,354.1,621.3)" />
<use xlink:href="#f2_28" transform="matrix(12,0,0,12,362.5,621.3)" />
<use xlink:href="#f2_21" transform="matrix(12,0,0,12,366.9,621.3)" />
<use xlink:href="#f2_1x" transform="matrix(12,0,0,12,375,621.3)" />
<use xlink:href="#f2_2e" transform="matrix(12,0,0,12,383.1,621.3)" />
<use xlink:href="#f2_28" transform="matrix(12,0,0,12,389.7,621.3)" />
<use xlink:href="#f2_2l" transform="matrix(12,0,0,12,394.4,621.3)" />
<use xlink:href="#f2_g" transform="matrix(12,0,0,12,403.2,621.3)" />
<use xlink:href="#f2_15" transform="matrix(12,0,0,12,412.7,621.3)" />
<use xlink:href="#f2_1g" transform="matrix(7.9,0,0,7.9,424.4,622.8)" />
</g>
<path d="M454,618.2h18" class="g7_45" />
<g clip-path="url(#c5_45)">
<g fill="#000000" >
<use xlink:href="#f2_n" transform="matrix(7.3,0,0,7.1,464.6,629.3)" />
<use xlink:href="#f2_l" transform="matrix(12.6,0,0,12.4,458.4,611)" />
<use xlink:href="#f4_2k" transform="matrix(12.6,0,0,12.4,456,637.6)" />
<use xlink:href="#f3_3b" transform="matrix(12.6,0,0,12.4,436.5,622.9)" />
</g>
</g>
<g fill="#000000" >
<use xlink:href="#f2_c" transform="matrix(12,0,0,12,55,672.3)" />
<use xlink:href="#f2_1y" transform="matrix(12,0,0,12,61.3,672.3)" />
<use xlink:href="#f2_d" transform="matrix(12,0,0,12,70.1,672.3)" />
<use xlink:href="#f2_23" transform="matrix(12,0,0,12,81,672.3)" />
<use xlink:href="#f2_2e" transform="matrix(12,0,0,12,90.2,672.3)" />
<use xlink:href="#f2_1x" transform="matrix(12,0,0,12,96.4,672.3)" />
<use xlink:href="#f2_2c" transform="matrix(12,0,0,12,104.5,672.3)" />
<use xlink:href="#f2_24" transform="matrix(12,0,0,12,113.6,672.3)" />
<use xlink:href="#f2_2b" transform="matrix(12,0,0,12,127.2,672.3)" />
<use xlink:href="#f2_22" transform="matrix(12,0,0,12,136.7,672.3)" />
<use xlink:href="#f2_15" transform="matrix(12,0,0,12,146.9,672.3)" />
<use xlink:href="#f2_2i" transform="matrix(12,0,0,12,163,672.3)" />
<use xlink:href="#f2_21" transform="matrix(12,0,0,12,171.8,672.3)" />
<use xlink:href="#f2_2e" transform="matrix(12,0,0,12,179.9,672.3)" />
<use xlink:href="#f2_2f" transform="matrix(12,0,0,12,186.1,672.3)" />
<use xlink:href="#f2_2h" transform="matrix(12,0,0,12,193.1,672.3)" />
<use xlink:href="#f2_2f" transform="matrix(12,0,0,12,202.3,672.3)" />
<use xlink:href="#f2_2e" transform="matrix(12,0,0,12,214,672.3)" />
<use xlink:href="#f2_22" transform="matrix(12,0,0,12,224.9,672.3)" />
<use xlink:href="#f2_2b" transform="matrix(12,0,0,12,230.4,672.3)" />
<use xlink:href="#f2_2e" transform="matrix(12,0,0,12,239.9,672.3)" />
<use xlink:href="#f2_2e" transform="matrix(12,0,0,12,250.9,672.3)" />
<use xlink:href="#f2_y" transform="matrix(12,0,0,12,261.9,672.3)" />
<use xlink:href="#f2_y" transform="matrix(12,0,0,12,272.1,672.3)" />
<use xlink:href="#f2_1x" transform="matrix(12,0,0,12,286.8,672.3)" />
<use xlink:href="#f2_c" transform="matrix(12,0,0,12,55,903)" />
<use xlink:href="#f2_1z" transform="matrix(12,0,0,12,61.3,903)" />
<use xlink:href="#f2_d" transform="matrix(12,0,0,12,69.3,903)" />
<use xlink:href="#f2_2g" transform="matrix(12,0,0,12,79.9,903)" />
<use xlink:href="#f2_2b" transform="matrix(12,0,0,12,85,903)" />
<use xlink:href="#f2_2e" transform="matrix(12,0,0,12,94.6,903)" />
<use xlink:href="#f2_2d" transform="matrix(12,0,0,12,100.8,903)" />
<use xlink:href="#f2_2h" transform="matrix(12,0,0,12,110,903)" />
<use xlink:href="#f2_21" transform="matrix(12,0,0,12,119.1,903)" />
<use xlink:href="#f2_2b" transform="matrix(12,0,0,12,131.2,903)" />
<use xlink:href="#f2_2a" transform="matrix(12,0,0,12,140.7,903)" />
<use xlink:href="#f2_1x" transform="matrix(12,0,0,12,154.3,903)" />
<use xlink:href="#f2_2a" transform="matrix(12,0,0,12,162.4,903)" />
<use xlink:href="#f2_21" transform="matrix(12,0,0,12,175.9,903)" />
<use xlink:href="#f2_28" transform="matrix(12,0,0,12,184.3,903)" />
<use xlink:href="#f2_21" transform="matrix(12,0,0,12,189.1,903)" />
<use xlink:href="#f2_1z" transform="matrix(12,0,0,12,197.2,903)" />
<use xlink:href="#f2_2g" transform="matrix(12,0,0,12,205.2,903)" />
<use xlink:href="#f2_2e" transform="matrix(12,0,0,12,210.7,903)" />
<use xlink:href="#f2_25" transform="matrix(12,0,0,12,216.9,903)" />
<use xlink:href="#f2_1z" transform="matrix(12,0,0,12,221.3,903)" />
<use xlink:href="#f2_20" transform="matrix(12,0,0,12,234.1,903)" />
<use xlink:href="#f2_25" transform="matrix(12,0,0,12,243.7,903)" />
<use xlink:href="#f2_2c" transform="matrix(12,0,0,12,248.4,903)" />
<use xlink:href="#f2_2b" transform="matrix(12,0,0,12,257.6,903)" />
<use xlink:href="#f2_28" transform="matrix(12,0,0,12,267.5,903)" />
<use xlink:href="#f2_21" transform="matrix(12,0,0,12,271.9,903)" />
<use xlink:href="#f2_25" transform="matrix(12,0,0,12,285,903)" />
<use xlink:href="#f2_2a" transform="matrix(12,0,0,12,289.8,903)" />
<use xlink:href="#f2_2h" transform="matrix(12,0,0,12,303.4,903)" />
<use xlink:href="#f2_2a" transform="matrix(12,0,0,12,312.9,903)" />
<use xlink:href="#f2_25" transform="matrix(12,0,0,12,322,903)" />
<use xlink:href="#f2_22" transform="matrix(12,0,0,12,326.8,903)" />
<use xlink:href="#f2_2b" transform="matrix(12,0,0,12,332.3,903)" />
<use xlink:href="#f2_2e" transform="matrix(12,0,0,12,341.8,903)" />
<use xlink:href="#f2_29" transform="matrix(12,0,0,12,348.4,903)" />
<use xlink:href="#f2_21" transform="matrix(12,0,0,12,367.1,903)" />
<use xlink:href="#f2_28" transform="matrix(12,0,0,12,375.5,903)" />
<use xlink:href="#f2_21" transform="matrix(12,0,0,12,380.3,903)" />
<use xlink:href="#f2_1z" transform="matrix(12,0,0,12,388.3,903)" />
<use xlink:href="#f2_2g" transform="matrix(12,0,0,12,396.4,903)" />
<use xlink:href="#f2_2e" transform="matrix(12,0,0,12,401.9,903)" />
<use xlink:href="#f2_25" transform="matrix(12,0,0,12,408.1,903)" />
<use xlink:href="#f2_1z" transform="matrix(12,0,0,12,412.5,903)" />
<use xlink:href="#f2_22" transform="matrix(12,0,0,12,425.7,903)" />
<use xlink:href="#f2_25" transform="matrix(12,0,0,12,431.9,903)" />
<use xlink:href="#f2_21" transform="matrix(12,0,0,12,436.7,903)" />
<use xlink:href="#f2_28" transform="matrix(12,0,0,12,445.1,903)" />
<use xlink:href="#f2_20" transform="matrix(12,0,0,12,449.8,903)" />
<use xlink:href="#f2_u" transform="matrix(12,0,0,12,463.8,903)" />
<use xlink:href="#f2_h" transform="matrix(12,0,0,12,469.5,903)" />
<use xlink:href="#f2_1z" transform="matrix(12,0,0,12,55,1116.1)" />
<use xlink:href="#f2_2b" transform="matrix(12,0,0,12,63.1,1116.1)" />
<use xlink:href="#f2_2a" transform="matrix(12,0,0,12,72.6,1116.1)" />
<use xlink:href="#f2_2f" transform="matrix(12,0,0,12,81.4,1116.1)" />
<use xlink:href="#f2_25" transform="matrix(12,0,0,12,88.7,1116.1)" />
<use xlink:href="#f2_20" transform="matrix(12,0,0,12,93.5,1116.1)" />
<use xlink:href="#f2_21" transform="matrix(12,0,0,12,102.7,1116.1)" />
<use xlink:href="#f2_2e" transform="matrix(12,0,0,12,110.7,1116.1)" />
<use xlink:href="#f2_1x" transform="matrix(12,0,0,12,121.8,1116.1)" />
<use xlink:href="#f2_2a" transform="matrix(12,0,0,12,129.8,1116.1)" />
<use xlink:href="#f2_21" transform="matrix(12,0,0,12,143.4,1116.1)" />
<use xlink:href="#f2_28" transform="matrix(12,0,0,12,151.8,1116.1)" />
<use xlink:href="#f2_21" transform="matrix(12,0,0,12,156.6,1116.1)" />
<use xlink:href="#f2_1z" transform="matrix(12,0,0,12,164.6,1116.1)" />
<use xlink:href="#f2_2g" transform="matrix(12,0,0,12,172.7,1116.1)" />
<use xlink:href="#f2_2e" transform="matrix(12,0,0,12,178.2,1116.1)" />
<use xlink:href="#f2_25" transform="matrix(12,0,0,12,184.4,1116.1)" />
<use xlink:href="#f2_1z" transform="matrix(12,0,0,12,189.2,1116.1)" />
<use xlink:href="#f2_20" transform="matrix(12,0,0,12,202,1116.1)" />
<use xlink:href="#f2_25" transform="matrix(12,0,0,12,211.5,1116.1)" />
<use xlink:href="#f2_2c" transform="matrix(12,0,0,12,215.9,1116.1)" />
<use xlink:href="#f2_2b" transform="matrix(12,0,0,12,225.1,1116.1)" />
<use xlink:href="#f2_28" transform="matrix(12,0,0,12,234.9,1116.1)" />
<use xlink:href="#f2_21" transform="matrix(12,0,0,12,239.3,1116.1)" />
<use xlink:href="#f2_1z" transform="matrix(12,0,0,12,252.2,1116.1)" />
<use xlink:href="#f2_2b" transform="matrix(12,0,0,12,260.2,1116.1)" />
<use xlink:href="#f2_2a" transform="matrix(12,0,0,12,269.7,1116.1)" />
<use xlink:href="#f2_2f" transform="matrix(12,0,0,12,278.5,1116.1)" />
<use xlink:href="#f2_25" transform="matrix(12,0,0,12,285.9,1116.1)" />
<use xlink:href="#f2_20" transform="matrix(12,0,0,12,290.6,1116.1)" />
<use xlink:href="#f2_21" transform="matrix(12,0,0,12,299.8,1116.1)" />
<use xlink:href="#f2_2e" transform="matrix(12,0,0,12,307.9,1116.1)" />
<use xlink:href="#f2_25" transform="matrix(12,0,0,12,314.4,1116.1)" />
<use xlink:href="#f2_2a" transform="matrix(12,0,0,12,319.2,1116.1)" />
<use xlink:href="#f2_23" transform="matrix(12,0,0,12,328.4,1116.1)" />
<use xlink:href="#f2_2b" transform="matrix(12,0,0,12,342.3,1116.1)" />
<use xlink:href="#f2_22" transform="matrix(12,0,0,12,351.8,1116.1)" />
<use xlink:href="#f2_2g" transform="matrix(12,0,0,12,362,1116.1)" />
<use xlink:href="#f2_2j" transform="matrix(12,0,0,12,367.5,1116.1)" />
<use xlink:href="#f2_2b" transform="matrix(12,0,0,12,380.4,1116.1)" />
<use xlink:href="#f2_1z" transform="matrix(12,0,0,12,394.6,1116.1)" />
<use xlink:href="#f2_24" transform="matrix(12,0,0,12,402.7,1116.1)" />
<use xlink:href="#f2_1x" transform="matrix(12,0,0,12,411.5,1116.1)" />
<use xlink:href="#f2_2a" transform="matrix(12,0,0,12,419.6,1116.1)" />
<use xlink:href="#f2_23" transform="matrix(12,0,0,12,428.7,1116.1)" />
<use xlink:href="#f2_21" transform="matrix(12,0,0,12,437.9,1116.1)" />
<use xlink:href="#f2_2f" transform="matrix(12,0,0,12,446,1116.1)" />
<use xlink:href="#f6_4y" transform="matrix(12,0,0,12,458.1,1116.1)" />
<use xlink:href="#f2_2d" transform="matrix(12,0,0,12,467.3,1116.1)" />
<use xlink:href="#f2_1x" transform="matrix(12,0,0,12,481.2,1116.1)" />
<use xlink:href="#f2_2a" transform="matrix(12,0,0,12,489.3,1116.1)" />
<use xlink:href="#f2_20" transform="matrix(12,0,0,12,498.1,1116.1)" />
<use xlink:href="#f2_f" transform="matrix(12,0,0,12,512,1116.1)" />
<use xlink:href="#f2_2d" transform="matrix(12,0,0,12,522.3,1116.1)" />
<use xlink:href="#f2_2c" transform="matrix(12,0,0,12,536.2,1116.1)" />
<use xlink:href="#f2_28" transform="matrix(12,0,0,12,545.7,1116.1)" />
<use xlink:href="#f2_1x" transform="matrix(12,0,0,12,550.1,1116.1)" />
<use xlink:href="#f2_1z" transform="matrix(12,0,0,12,558.2,1116.1)" />
<use xlink:href="#f2_21" transform="matrix(12,0,0,12,566.2,1116.1)" />
<use xlink:href="#f2_20" transform="matrix(12,0,0,12,574.3,1116.1)" />
<use xlink:href="#f2_25" transform="matrix(12,0,0,12,588.6,1116.1)" />
<use xlink:href="#f2_2f" transform="matrix(12,0,0,12,593.4,1116.1)" />
<use xlink:href="#f2_1x" transform="matrix(12,0,0,12,605.1,1116.1)" />
<use xlink:href="#f2_2h" transform="matrix(12,0,0,12,617.9,1116.1)" />
<use xlink:href="#f2_2a" transform="matrix(12,0,0,12,627.1,1116.1)" />
<use xlink:href="#f2_25" transform="matrix(12,0,0,12,636.2,1116.1)" />
<use xlink:href="#f2_22" transform="matrix(12,0,0,12,641.3,1116.1)" />
<use xlink:href="#f2_2b" transform="matrix(12,0,0,12,646.9,1116.1)" />
<use xlink:href="#f2_2e" transform="matrix(12,0,0,12,656.4,1116.1)" />
<use xlink:href="#f2_29" transform="matrix(12,0,0,12,663,1116.1)" />
<use xlink:href="#f2_21" transform="matrix(12,0,0,12,681.3,1116.1)" />
<use xlink:href="#f2_2k" transform="matrix(12,0,0,12,689.7,1116.1)" />
<use xlink:href="#f2_2g" transform="matrix(12,0,0,12,698.5,1116.1)" />
<use xlink:href="#f2_21" transform="matrix(12,0,0,12,704,1116.1)" />
<use xlink:href="#f2_2e" transform="matrix(12,0,0,12,712,1116.1)" />
<use xlink:href="#f2_2a" transform="matrix(12,0,0,12,718.2,1116.1)" />
<use xlink:href="#f2_1x" transform="matrix(12,0,0,12,727,1116.1)" />
<use xlink:href="#f2_28" transform="matrix(12,0,0,12,735.5,1116.1)" />
<use xlink:href="#f2_21" transform="matrix(12,0,0,12,745,1116.1)" />
<use xlink:href="#f2_28" transform="matrix(12,0,0,12,753.4,1116.1)" />
<use xlink:href="#f2_21" transform="matrix(12,0,0,12,758.2,1116.1)" />
<use xlink:href="#f2_1z" transform="matrix(12,0,0,12,766.2,1116.1)" />
<use xlink:href="#f2_2g" transform="matrix(12,0,0,12,774.3,1116.1)" />
<use xlink:href="#f2_2e" transform="matrix(12,0,0,12,779.8,1116.1)" />
<use xlink:href="#f2_25" transform="matrix(12,0,0,12,786,1116.1)" />
<use xlink:href="#f2_1z" transform="matrix(12,0,0,12,790.8,1116.1)" />
<use xlink:href="#f2_22" transform="matrix(12,0,0,12,803.6,1116.1)" />
<use xlink:href="#f2_25" transform="matrix(12,0,0,12,809.8,1116.1)" />
<use xlink:href="#f2_21" transform="matrix(12,0,0,12,814.6,1116.1)" />
<use xlink:href="#f2_28" transform="matrix(12,0,0,12,823,1116.1)" />
<use xlink:href="#f2_20" transform="matrix(12,0,0,12,827.7,1116.1)" />
<use xlink:href="#f2_2b" transform="matrix(12,0,0,12,55,1141.4)" />
<use xlink:href="#f2_22" transform="matrix(12,0,0,12,64.6,1141.4)" />
<use xlink:href="#f2_25" transform="matrix(12,0,0,12,75.2,1141.4)" />
<use xlink:href="#f2_2a" transform="matrix(12,0,0,12,79.9,1141.4)" />
<use xlink:href="#f2_2g" transform="matrix(12,0,0,12,88.7,1141.4)" />
<use xlink:href="#f2_21" transform="matrix(12,0,0,12,94.2,1141.4)" />
<use xlink:href="#f2_2a" transform="matrix(12,0,0,12,102.3,1141.4)" />
<use xlink:href="#f2_2f" transform="matrix(12,0,0,12,111.4,1141.4)" />
<use xlink:href="#f2_25" transform="matrix(12,0,0,12,118.8,1141.4)" />
<use xlink:href="#f2_2g" transform="matrix(12,0,0,12,123.2,1141.4)" />
<use xlink:href="#f2_2l" transform="matrix(12,0,0,12,129,1141.4)" />
<use xlink:href="#f2_15" transform="matrix(12,0,0,12,142.2,1141.4)" />
<use xlink:href="#f2_i" transform="matrix(12,0,0,12,153.5,1141.4)" />
<use xlink:href="#f2_1k" transform="matrix(12,0,0,12,163,1141.4)" />
<use xlink:href="#f2_24" transform="matrix(12,0,0,12,174.4,1141.4)" />
<use xlink:href="#f2_21" transform="matrix(12,0,0,12,183.2,1141.4)" />
<use xlink:href="#f2_20" transform="matrix(12,0,0,12,196,1141.4)" />
<use xlink:href="#f2_25" transform="matrix(12,0,0,12,205.2,1141.4)" />
<use xlink:href="#f2_2c" transform="matrix(12,0,0,12,209.6,1141.4)" />
<use xlink:href="#f2_2b" transform="matrix(12,0,0,12,218.7,1141.4)" />
<use xlink:href="#f2_28" transform="matrix(12,0,0,12,228.6,1141.4)" />
<use xlink:href="#f2_21" transform="matrix(12,0,0,12,233.4,1141.4)" />
<use xlink:href="#f2_29" transform="matrix(12,0,0,12,246.6,1141.4)" />
<use xlink:href="#f2_2b" transform="matrix(12,0,0,12,260.1,1141.4)" />
<use xlink:href="#f2_29" transform="matrix(12,0,0,12,270,1141.4)" />
<use xlink:href="#f2_21" transform="matrix(12,0,0,12,283.6,1141.4)" />
<use xlink:href="#f2_2a" transform="matrix(12,0,0,12,292,1141.4)" />
<use xlink:href="#f2_2g" transform="matrix(12,0,0,12,300.8,1141.4)" />
<use xlink:href="#f2_1g" transform="matrix(12,0,0,12,311,1141.4)" />
<use xlink:href="#f2_29" transform="matrix(12,0,0,12,326,1141.4)" />
<use xlink:href="#f2_1x" transform="matrix(12,0,0,12,339.6,1141.4)" />
<use xlink:href="#f2_27" transform="matrix(12,0,0,12,347.7,1141.4)" />
<use xlink:href="#f2_21" transform="matrix(12,0,0,12,356.8,1141.4)" />
<use xlink:href="#f2_2f" transform="matrix(12,0,0,12,364.9,1141.4)" />
<use xlink:href="#f2_1x" transform="matrix(12,0,0,12,376.6,1141.4)" />
<use xlink:href="#f2_2a" transform="matrix(12,0,0,12,385,1141.4)" />
<use xlink:href="#f2_1x" transform="matrix(12,0,0,12,398.6,1141.4)" />
<use xlink:href="#f2_2a" transform="matrix(12,0,0,12,407,1141.4)" />
<use xlink:href="#f2_23" transform="matrix(12,0,0,12,415.8,1141.4)" />
<use xlink:href="#f2_28" transform="matrix(12,0,0,12,425.3,1141.4)" />
<use xlink:href="#f2_21" transform="matrix(12,0,0,12,430.1,1141.4)" />
<use xlink:href="#f3_2d" transform="matrix(12,0,0,12,443.5,1141.4)" />
<use xlink:href="#f2_2j" transform="matrix(12,0,0,12,457.8,1141.4)" />
<use xlink:href="#f2_25" transform="matrix(12,0,0,12,471.3,1141.4)" />
<use xlink:href="#f2_2g" transform="matrix(12,0,0,12,475.7,1141.4)" />
<use xlink:href="#f2_24" transform="matrix(12,0,0,12,481.2,1141.4)" />
<use xlink:href="#f2_2g" transform="matrix(12,0,0,12,494.8,1141.4)" />
<use xlink:href="#f2_24" transform="matrix(12,0,0,12,500.2,1141.4)" />
<use xlink:href="#f2_21" transform="matrix(12,0,0,12,509,1141.4)" />
<use xlink:href="#f2_20" transform="matrix(12,0,0,12,521.9,1141.4)" />
<use xlink:href="#f2_25" transform="matrix(12,0,0,12,531.4,1141.4)" />
<use xlink:href="#f2_2e" transform="matrix(12,0,0,12,535.8,1141.4)" />
<use xlink:href="#f2_21" transform="matrix(12,0,0,12,542,1141.4)" />
<use xlink:href="#f2_1z" transform="matrix(12,0,0,12,550.1,1141.4)" />
<use xlink:href="#f2_2g" transform="matrix(12,0,0,12,558.1,1141.4)" />
<use xlink:href="#f2_25" transform="matrix(12,0,0,12,564,1141.4)" />
<use xlink:href="#f2_2b" transform="matrix(12,0,0,12,568.4,1141.4)" />
<use xlink:href="#f2_2a" transform="matrix(12,0,0,12,577.9,1141.4)" />
<use xlink:href="#f2_2b" transform="matrix(12,0,0,12,591.4,1141.4)" />
<use xlink:href="#f2_22" transform="matrix(12,0,0,12,600.9,1141.4)" />
<use xlink:href="#f2_2g" transform="matrix(12,0,0,12,611.2,1141.4)" />
<use xlink:href="#f2_24" transform="matrix(12,0,0,12,616.7,1141.4)" />
<use xlink:href="#f2_21" transform="matrix(12,0,0,12,625.5,1141.4)" />
<use xlink:href="#f2_21" transform="matrix(12,0,0,12,638.3,1141.4)" />
<use xlink:href="#f2_28" transform="matrix(12,0,0,12,646.7,1141.4)" />
<use xlink:href="#f2_21" transform="matrix(12,0,0,12,651.1,1141.4)" />
<use xlink:href="#f2_1z" transform="matrix(12,0,0,12,659.2,1141.4)" />
<use xlink:href="#f2_2g" transform="matrix(12,0,0,12,667.2,1141.4)" />
<use xlink:href="#f2_2e" transform="matrix(12,0,0,12,672.7,1141.4)" />
<use xlink:href="#f2_25" transform="matrix(12,0,0,12,679.3,1141.4)" />
<use xlink:href="#f2_1z" transform="matrix(12,0,0,12,683.7,1141.4)" />
<use xlink:href="#f2_22" transform="matrix(12,0,0,12,696.9,1141.4)" />
<use xlink:href="#f2_25" transform="matrix(12,0,0,12,702.8,1141.4)" />
<use xlink:href="#f2_21" transform="matrix(12,0,0,12,707.5,1141.4)" />
<use xlink:href="#f2_28" transform="matrix(12,0,0,12,715.9,1141.4)" />
<use xlink:href="#f2_20" transform="matrix(12,0,0,12,720.7,1141.4)" />
<use xlink:href="#f2_i" transform="matrix(12,0,0,12,729.9,1141.4)" />
<use xlink:href="#f2_1k" transform="matrix(12,0,0,12,739.4,1141.4)" />
<use xlink:href="#f2_24" transform="matrix(12,0,0,12,750.7,1141.4)" />
<use xlink:href="#f2_21" transform="matrix(12,0,0,12,759.5,1141.4)" />
<use xlink:href="#f2_2a" transform="matrix(12,0,0,12,772.3,1141.4)" />
<use xlink:href="#f2_21" transform="matrix(12,0,0,12,781.5,1141.4)" />
<use xlink:href="#f2_2g" transform="matrix(12,0,0,12,789.6,1141.4)" />
<use xlink:href="#f2_22" transform="matrix(12,0,0,12,799.4,1141.4)" />
<use xlink:href="#f2_2b" transform="matrix(12,0,0,12,804.9,1141.4)" />
<use xlink:href="#f2_2e" transform="matrix(12,0,0,12,814.5,1141.4)" />
<use xlink:href="#f2_1z" transform="matrix(12,0,0,12,820.7,1141.4)" />
<use xlink:href="#f2_21" transform="matrix(12,0,0,12,828.7,1141.4)" />
<use xlink:href="#f2_25" transform="matrix(12,0,0,12,841.9,1141.4)" />
<use xlink:href="#f2_2f" transform="matrix(12,0,0,12,846.7,1141.4)" />
<use xlink:href="#f2_2m" transform="matrix(12,0,0,12,55,1166)" />
<use xlink:href="#f2_21" transform="matrix(12,0,0,12,63.1,1166)" />
<use xlink:href="#f2_2e" transform="matrix(12,0,0,12,71.2,1166)" />
<use xlink:href="#f2_2b" transform="matrix(12,0,0,12,77.4,1166)" />
<use xlink:href="#f2_i" transform="matrix(12,0,0,12,86.9,1166)" />
<use xlink:href="#f2_1j" transform="matrix(12,0,0,12,96,1166)" />
<use xlink:href="#f2_25" transform="matrix(12,0,0,12,106.3,1166)" />
<use xlink:href="#f2_2a" transform="matrix(12,0,0,12,111.1,1166)" />
<use xlink:href="#f2_1z" transform="matrix(12,0,0,12,119.9,1166)" />
<use xlink:href="#f2_21" transform="matrix(12,0,0,12,127.9,1166)" />
<use xlink:href="#f2_g" transform="matrix(12,0,0,12,136,1166)" />
<use xlink:href="#f2_2g" transform="matrix(12,0,0,12,145.5,1166)" />
<use xlink:href="#f2_24" transform="matrix(12,0,0,12,151,1166)" />
<use xlink:href="#f2_21" transform="matrix(12,0,0,12,159.8,1166)" />
<use xlink:href="#f2_2g" transform="matrix(12,0,0,12,172.6,1166)" />
<use xlink:href="#f2_2j" transform="matrix(12,0,0,12,178.1,1166)" />
<use xlink:href="#f2_2b" transform="matrix(12,0,0,12,190.9,1166)" />
<use xlink:href="#f2_22" transform="matrix(12,0,0,12,204.8,1166)" />
<use xlink:href="#f2_2b" transform="matrix(12,0,0,12,210.3,1166)" />
<use xlink:href="#f2_2e" transform="matrix(12,0,0,12,219.8,1166)" />
<use xlink:href="#f2_1z" transform="matrix(12,0,0,12,226,1166)" />
<use xlink:href="#f2_21" transform="matrix(12,0,0,12,234.1,1166)" />
<use xlink:href="#f2_2f" transform="matrix(12,0,0,12,242.2,1166)" />
<use xlink:href="#f2_1x" transform="matrix(12,0,0,12,253.9,1166)" />
<use xlink:href="#f2_2e" transform="matrix(12,0,0,12,262,1166)" />
<use xlink:href="#f2_21" transform="matrix(12,0,0,12,268.2,1166)" />
<use xlink:href="#f2_21" transform="matrix(12,0,0,12,281,1166)" />
<use xlink:href="#f2_2d" transform="matrix(12,0,0,12,289.1,1166)" />
<use xlink:href="#f2_2h" transform="matrix(12,0,0,12,298.2,1166)" />
<use xlink:href="#f2_1x" transform="matrix(12,0,0,12,307.4,1166)" />
<use xlink:href="#f2_28" transform="matrix(12,0,0,12,315.8,1166)" />
<use xlink:href="#f2_25" transform="matrix(12,0,0,12,325.3,1166)" />
<use xlink:href="#f2_2a" transform="matrix(12,0,0,12,330.1,1166)" />
<use xlink:href="#f2_29" transform="matrix(12,0,0,12,344,1166)" />
<use xlink:href="#f2_1x" transform="matrix(12,0,0,12,357.9,1166)" />
<use xlink:href="#f2_23" transform="matrix(12,0,0,12,366.5,1166)" />
<use xlink:href="#f2_2a" transform="matrix(12,0,0,12,375.6,1166)" />
<use xlink:href="#f2_25" transform="matrix(12,0,0,12,384.8,1166)" />
<use xlink:href="#f2_2g" transform="matrix(12,0,0,12,389.2,1166)" />
<use xlink:href="#f2_2h" transform="matrix(12,0,0,12,394.7,1166)" />
<use xlink:href="#f2_20" transform="matrix(12,0,0,12,403.8,1166)" />
<use xlink:href="#f2_21" transform="matrix(12,0,0,12,413,1166)" />
<use xlink:href="#f2_1x" transform="matrix(12,0,0,12,426.2,1166)" />
<use xlink:href="#f2_2a" transform="matrix(12,0,0,12,434.2,1166)" />
<use xlink:href="#f2_20" transform="matrix(12,0,0,12,443,1166)" />
<use xlink:href="#f2_2b" transform="matrix(12,0,0,12,457,1166)" />
<use xlink:href="#f2_2c" transform="matrix(12,0,0,12,466.5,1166)" />
<use xlink:href="#f2_2c" transform="matrix(12,0,0,12,475.6,1166)" />
<use xlink:href="#f2_2b" transform="matrix(12,0,0,12,484.8,1166)" />
<use xlink:href="#f2_2f" transform="matrix(12,0,0,12,494.3,1166)" />
<use xlink:href="#f2_25" transform="matrix(12,0,0,12,501.3,1166)" />
<use xlink:href="#f2_2g" transform="matrix(12,0,0,12,505.7,1166)" />
<use xlink:href="#f2_21" transform="matrix(12,0,0,12,511.2,1166)" />
<use xlink:href="#f2_25" transform="matrix(12,0,0,12,524,1166)" />
<use xlink:href="#f2_2a" transform="matrix(12,0,0,12,528.8,1166)" />
<use xlink:href="#f2_20" transform="matrix(12,0,0,12,542.3,1166)" />
<use xlink:href="#f2_25" transform="matrix(12,0,0,12,551.8,1166)" />
<use xlink:href="#f2_2e" transform="matrix(12,0,0,12,556.6,1166)" />
<use xlink:href="#f2_21" transform="matrix(12,0,0,12,562.8,1166)" />
<use xlink:href="#f2_1z" transform="matrix(12,0,0,12,570.9,1166)" />
<use xlink:href="#f2_2g" transform="matrix(12,0,0,12,578.9,1166)" />
<use xlink:href="#f2_25" transform="matrix(12,0,0,12,584.8,1166)" />
<use xlink:href="#f2_2b" transform="matrix(12,0,0,12,589.2,1166)" />
<use xlink:href="#f2_2a" transform="matrix(12,0,0,12,598.7,1166)" />
<use xlink:href="#f2_1x" transform="matrix(12,0,0,12,612.2,1166)" />
<use xlink:href="#f2_2a" transform="matrix(12,0,0,12,620.3,1166)" />
<use xlink:href="#f2_20" transform="matrix(12,0,0,12,629.1,1166)" />
<use xlink:href="#f2_1x" transform="matrix(12,0,0,12,643,1166)" />
<use xlink:href="#f2_1z" transform="matrix(12,0,0,12,651.1,1166)" />
<use xlink:href="#f2_2g" transform="matrix(12,0,0,12,659.2,1166)" />
<use xlink:href="#f2_1x" transform="matrix(12,0,0,12,669.4,1166)" />
<use xlink:href="#f2_2g" transform="matrix(12,0,0,12,677.5,1166)" />
<use xlink:href="#f2_20" transform="matrix(12,0,0,12,687.3,1166)" />
<use xlink:href="#f2_25" transform="matrix(12,0,0,12,696.5,1166)" />
<use xlink:href="#f2_22" transform="matrix(12,0,0,12,701.3,1166)" />
<use xlink:href="#f2_22" transform="matrix(12,0,0,12,707.1,1166)" />
<use xlink:href="#f2_21" transform="matrix(12,0,0,12,713,1166)" />
<use xlink:href="#f2_2e" transform="matrix(12,0,0,12,721.1,1166)" />
<use xlink:href="#f2_21" transform="matrix(12,0,0,12,727.3,1166)" />
<use xlink:href="#f2_2a" transform="matrix(12,0,0,12,735.7,1166)" />
<use xlink:href="#f2_2g" transform="matrix(12,0,0,12,744.5,1166)" />
<use xlink:href="#f2_2c" transform="matrix(12,0,0,12,754.7,1166)" />
<use xlink:href="#f2_2b" transform="matrix(12,0,0,12,763.9,1166)" />
<use xlink:href="#f2_25" transform="matrix(12,0,0,12,773.4,1166)" />
<use xlink:href="#f2_2a" transform="matrix(12,0,0,12,778.2,1166)" />
<use xlink:href="#f2_2g" transform="matrix(12,0,0,12,787,1166)" />
<use xlink:href="#f2_2f" transform="matrix(12,0,0,12,792.5,1166)" />
</g>
<image preserveAspectRatio="none" x="362" y="691" width="185" height="178" xlink:href="img/6.png" />
<image preserveAspectRatio="none" x="338" y="922" width="233" height="161" xlink:href="img/7.png" />
<path fill-rule="evenodd" d="M37.4,38.1h.7v-.7h-.7v.7Z" class="g8_45" />
<path fill-rule="evenodd" d="M37.4,38.1h.7v-.7h-.7v.7Z" class="g8_45" />
<path fill-rule="evenodd" d="M38.1,38.1H871.5v-.7H38.1v.7Z" class="g8_45" />
<path fill-rule="evenodd" d="M871.5,38.1h.8v-.7h-.8v.7Z" class="g8_45" />
<path fill-rule="evenodd" d="M871.5,38.1h.8v-.7h-.8v.7Z" class="g8_45" />
<path fill-rule="evenodd" d="M37.4,1248.5h.7V38.1h-.7V1248.5Z" class="g8_45" />
<path fill-rule="evenodd" d="M872.3,1248.5h.7V38.1h-.7V1248.5Z" class="g8_45" />
<path fill-rule="evenodd" d="M871.5,1248.5h.8V38.1h-.8V1248.5Z" class="g8_45" />
<path fill-rule="evenodd" d="M37.4,1249.2h.7v-.7h-.7v.7Z" class="g8_45" />
<path fill-rule="evenodd" d="M37.4,1249.2h.7v-.7h-.7v.7Z" class="g8_45" />
<path fill-rule="evenodd" d="M38.1,1249.9H871.5v-.7H38.1v.7Z" class="g8_45" />
<path fill-rule="evenodd" d="M38.1,1249.2H871.5v-.7H38.1v.7Z" class="g8_45" />
<path fill-rule="evenodd" d="M872.3,1249.9h.7v-1.4h-.7v1.4Z" class="g8_45" />
<path fill-rule="evenodd" d="M871.5,1249.9H873v-.7h-1.5v.7Z" class="g8_45" />
<path fill-rule="evenodd" d="M871.5,1249.2h.8v-.7h-.8v.7Z" class="g8_45" />
<path fill-rule="evenodd" d="M871.5,1249.2h.8v-.7h-.8v.7Z" class="g8_45" />
<defs>
<path d="M489,-15c0,0,-99,0,-179,30c0,0,-80,30,-136,91c0,0,-56,61,-85,152c0,0,-30,91,-30,212c0,0,0,123,32,218c0,0,33,96,92,161c0,0,59,65,142,98c0,0,82,34,181,34c0,0,40,0,78,-7c0,0,37,-7,69,-18c0,0,31,-11,57,-25c0,0,25,-14,35,-24c0,0,10,-10,14,-17c0,0,4,-7,6,-17c0,0,2,-11,3,-25c0,0,2,-14,2,-35c0,0,0,-22,-2,-38c0,0,-1,-15,-5,-25c0,0,-4,-10,-9,-14c0,0,-5,-5,-12,-5c0,0,-11,0,-28,13c0,0,-18,13,-45,29c0,0,-27,16,-65,29c0,0,-37,13,-89,13c0,0,-58,0,-103,-23c0,0,-45,-23,-77,-67c0,0,-31,-44,-48,-106c0,0,-16,-61,-16,-139c0,0,0,-85,17,-147c0,0,18,-62,50,-103c0,0,33,-40,79,-60c0,0,45,-19,103,-19c0,0,52,0,90,12c0,0,38,12,65,27c0,0,27,15,45,27c0,0,17,12,27,12c0,0,8,0,12,-3c0,0,4,-3,7,-12c0,0,3,-9,5,-25c0,0,1,-16,1,-43c0,0,0,-18,-1,-31c0,0,-1,-14,-3,-23c0,0,-2,-9,-6,-16c0,0,-4,-7,-12,-15c0,0,-8,-9,-32,-22c0,0,-23,-14,-57,-26C661,13,627,1,583,-6c0,0,-43,-9,-94,-9Z" 
id="f0_j"
transform="scale(0.001,-0.001)" />

<path d="M440,150c0,0,41,0,68,8c0,0,28,9,49,26c0,0,20,16,32,41c0,0,11,25,11,58c0,0,0,33,-11,60c0,0,-11,26,-33,44c0,0,-21,18,-55,28c0,0,-33,9,-87,9H298V150ZM407,567c0,0,42,0,68,10c0,0,25,10,42,28c0,0,16,17,24,41c0,0,9,24,9,50c0,0,0,29,-9,52c0,0,-9,23,-27,39c0,0,-18,15,-45,23c0,0,-27,8,-72,8H298V567ZM164,0c0,0,-25,0,-42,15c0,0,-16,14,-16,47V903c0,0,0,33,16,48c0,0,17,14,42,14H406c0,0,88,0,150,-15c0,0,61,-15,103,-45c0,0,42,-30,65,-77c0,0,22,-46,22,-108c0,0,0,-36,-9,-67c0,0,-9,-31,-26,-56c0,0,-17,-25,-42,-45c0,0,-25,-19,-57,-31c0,0,41,-7,76,-26c0,0,34,-19,60,-48c0,0,26,-30,41,-69c0,0,15,-40,15,-89c0,0,0,-51,-14,-93c0,0,-15,-42,-40,-74c0,0,-25,-32,-59,-55c0,0,-35,-23,-77,-38C614,29,573,14,525,7C525,7,478,0,420,0Z" 
id="f0_i"
transform="scale(0.001,-0.001)" />

<path d="M320,-17c0,0,-50,0,-93,9c0,0,-43,8,-76,19c0,0,-32,11,-54,24C97,35,75,48,65,58c0,0,-10,9,-14,28c0,0,-4,18,-4,52c0,0,0,23,1,39c0,0,2,15,5,25c0,0,4,10,9,14c0,0,6,4,13,4c0,0,11,0,30,-12c0,0,19,-13,49,-28c0,0,30,-15,71,-27c0,0,42,-12,96,-12c0,0,36,0,64,8c0,0,29,9,49,25c0,0,19,15,30,38c0,0,10,23,10,52c0,0,0,33,-18,56c0,0,-18,24,-46,42c0,0,-29,18,-66,34c0,0,-36,16,-75,34c0,0,-39,18,-76,41c0,0,-36,23,-65,54c0,0,-29,32,-47,75c0,0,-17,44,-17,104c0,0,0,70,25,122c0,0,26,53,70,88c0,0,43,34,103,51c0,0,59,18,125,18c0,0,35,0,69,-6c0,0,34,-5,64,-14c0,0,30,-9,53,-20c0,0,23,-11,31,-18c0,0,7,-8,10,-13c0,0,3,-5,4,-14c0,0,2,-8,3,-21c0,0,1,-13,1,-33c0,0,0,-21,-1,-36c0,0,-1,-15,-4,-25c0,0,-3,-9,-7,-14c0,0,-5,-4,-14,-4c0,0,-8,0,-26,10c0,0,-18,10,-44,23c0,0,-26,12,-60,22c0,0,-34,10,-75,10c0,0,-32,0,-56,-8c0,0,-24,-8,-40,-21c0,0,-16,-14,-24,-34c0,0,-8,-19,-8,-41c0,0,0,-32,18,-56c0,0,17,-23,46,-42c0,0,30,-18,67,-34c0,0,38,-16,76,-34c0,0,39,-18,76,-41c0,0,38,-22,67,-54c0,0,29,-32,47,-75c0,0,18,-43,18,-101c0,0,0,-76,-29,-133c0,0,-28,-58,-77,-96C572,60,524,21,459,2c0,0,-65,-19,-139,-19Z" 
id="f0_2n"
transform="scale(0.001,-0.001)" />

<path d="M164,0c0,0,-25,0,-42,15c0,0,-16,14,-16,47V903c0,0,0,33,16,48c0,0,17,14,42,14H645c0,0,7,0,12,-4c0,0,5,-3,9,-13c0,0,4,-9,6,-24c0,0,2,-14,2,-36c0,0,0,-21,-2,-36c0,0,-2,-14,-6,-23c0,0,-4,-9,-9,-13c0,0,-5,-4,-12,-4H301V576H593c0,0,6,0,12,-4c0,0,6,-4,9,-13c0,0,4,-8,6,-23c0,0,2,-14,2,-35c0,0,0,-22,-2,-36c0,0,-2,-14,-6,-23c0,0,-3,-8,-9,-12c0,0,-6,-4,-12,-4H301V154H649c0,0,6,0,12,-5c0,0,5,-4,9,-13c0,0,4,-9,6,-23c0,0,2,-15,2,-36c0,0,0,-22,-2,-36c0,0,-2,-15,-6,-24c0,0,-4,-9,-9,-13c0,0,-6,-4,-12,-4Z" 
id="f0_t"
transform="scale(0.001,-0.001)" />

<path d="M79,297c0,0,-19,0,-27,18c0,0,-8,17,-8,60c0,0,0,41,8,59c0,0,8,17,27,17H389c0,0,9,0,15,-4c0,0,7,-4,11,-13c0,0,5,-9,7,-23c0,0,1,-15,1,-36c0,0,0,-43,-8,-61c0,0,-8,-17,-26,-17Z" 
id="f0_oj"
transform="scale(0.001,-0.001)" />

<path d="M121,-4c0,0,-39,0,-60,2C61,-2,39,0,32,8c0,0,-8,8,-3,24c0,0,4,15,18,41L279,495L64,892c0,0,-14,26,-19,42c0,0,-5,17,4,24c0,0,9,8,32,10c0,0,23,2,65,2c0,0,35,0,56,-2c0,0,20,-1,32,-4c0,0,12,-4,17,-10c0,0,5,-6,9,-15L431,620L595,939c0,0,5,9,10,15c0,0,5,6,16,10c0,0,10,3,29,4c0,0,19,2,53,2c0,0,37,0,59,-2c0,0,22,-2,30,-10c0,0,8,-8,4,-24c0,0,-4,-16,-17,-42L564,497L793,73c0,0,14,-26,18,-41c0,0,4,-16,-5,-24c0,0,-9,-8,-32,-10c0,0,-24,-2,-65,-2c0,0,-36,0,-56,2c0,0,-20,1,-31,3c0,0,-12,4,-17,10c0,0,-5,6,-9,15L414,374L233,26c0,0,-4,-9,-9,-15c0,0,-6,-6,-17,-10c0,0,-12,-2,-32,-3c0,0,-21,-2,-54,-2Z" 
id="f0_3e"
transform="scale(0.001,-0.001)" />

<path d="M204,-4c0,0,-28,0,-47,2c0,0,-19,2,-31,5c0,0,-11,4,-16,10c0,0,-4,6,-4,13V939c0,0,0,7,4,13c0,0,5,6,17,10c0,0,11,3,30,6c0,0,19,2,47,2c0,0,29,0,48,-2c0,0,18,-3,29,-6c0,0,11,-4,16,-10c0,0,5,-6,5,-13V26c0,0,0,-7,-5,-13c0,0,-5,-6,-16,-10c0,0,-11,-3,-29,-5c0,0,-19,-2,-48,-2Z" 
id="f0_1c"
transform="scale(0.001,-0.001)" />

<path d="M127,0c0,0,-16,0,-28,3C99,3,87,6,80,15c0,0,-8,8,-11,25c0,0,-3,16,-3,42c0,0,0,25,2,42c0,0,2,18,8,32c0,0,6,14,15,27c0,0,9,13,24,29L282,390c0,0,50,53,81,95c0,0,30,43,47,79c0,0,17,35,24,65c0,0,6,30,6,57c0,0,0,24,-8,46c0,0,-8,22,-23,39c0,0,-15,16,-38,25c0,0,-23,10,-55,10c0,0,-44,0,-78,-12c0,0,-33,-11,-59,-25c0,0,-26,-13,-43,-25c0,0,-17,-12,-27,-12c0,0,-7,0,-11,5c0,0,-5,4,-8,15c0,0,-3,10,-5,28c0,0,-2,17,-2,42c0,0,0,18,1,29c0,0,1,12,4,20c0,0,2,9,6,15c0,0,3,6,13,15c0,0,9,9,34,23c0,0,25,14,61,27c0,0,37,14,81,23c0,0,44,9,92,9c0,0,75,0,131,-19c0,0,57,-19,94,-53c0,0,37,-34,55,-81c0,0,19,-47,19,-100c0,0,0,-47,-9,-93c0,0,-9,-45,-37,-98c0,0,-29,-52,-80,-116c0,0,-52,-64,-136,-148L299,159H679c0,0,8,0,14,-4c0,0,6,-5,11,-14c0,0,4,-9,7,-25c0,0,2,-15,2,-36c0,0,0,-22,-2,-37c0,0,-2,-15,-6,-25c0,0,-3,-10,-9,-14c0,0,-6,-4,-14,-4Z" 
id="f0_rz"
transform="scale(0.001,-0.001)" />

<path d="M385,138c0,0,29,0,52,9c0,0,22,10,39,28c0,0,17,19,28,47c0,0,11,29,19,66c0,0,7,37,9,84c0,0,3,47,3,104c0,0,0,69,-4,122c0,0,-4,52,-11,91c0,0,-8,39,-20,66c0,0,-12,27,-28,43c0,0,-16,16,-37,22c0,0,-21,7,-47,7c0,0,-44,0,-73,-21c0,0,-28,-21,-45,-64c0,0,-17,-42,-24,-106c0,0,-6,-63,-6,-148c0,0,0,-103,8,-171c0,0,8,-67,26,-107c0,0,17,-40,45,-56c0,0,27,-16,66,-16ZM378,-17c0,0,-99,0,-164,33c0,0,-65,34,-103,98c0,0,-38,64,-54,156c0,0,-15,92,-15,209c0,0,0,115,19,208c0,0,19,94,61,160c0,0,42,65,110,101c0,0,68,35,165,35c0,0,99,0,164,-34c0,0,65,-34,103,-98c0,0,39,-64,53,-156c0,0,15,-92,15,-209c0,0,0,-115,-18,-209c0,0,-19,-93,-61,-159C653,118,611,53,543,17c0,0,-67,-34,-165,-34Z" 
id="f0_rx"
transform="scale(0.001,-0.001)" />

<path d="M142,0c0,0,-6,0,-12,4c0,0,-5,3,-9,12c0,0,-4,9,-6,23c0,0,-3,15,-3,36c0,0,0,21,2,36c0,0,2,14,6,23c0,0,4,9,10,13c0,0,5,5,12,5H322V779L166,693c0,0,-17,-8,-28,-10c0,0,-1,0,-3,0c-4,0,-10,1,-14,5c0,0,-6,6,-8,22c0,0,-2,15,-2,44c0,0,0,18,0,29c0,0,1,12,4,20c0,0,3,8,8,14c0,0,5,5,14,11L345,962c0,0,4,3,9,5c0,0,6,2,15,3c0,0,9,1,23,2c0,0,15,0,38,0c0,0,28,0,46,-1c0,0,17,-1,26,-4c0,0,9,-3,12,-7c0,0,3,-4,3,-11V152H675c0,0,7,0,12,-5c0,0,6,-4,10,-13c0,0,4,-9,6,-23c0,0,2,-15,2,-36c0,0,0,-21,-2,-36c0,0,-3,-14,-7,-23c0,0,-4,-9,-9,-12c0,0,-5,-4,-12,-4Z" 
id="f0_ry"
transform="scale(0.001,-0.001)" />

<path d="M259,-4c0,0,-39,0,-62,3c0,0,-23,1,-34,7c0,0,-11,6,-12,14c0,0,-1,9,5,21L498,796H92c0,0,-16,0,-24,20c0,0,-7,21,-7,65c0,0,0,22,2,38c0,0,2,16,6,27c0,0,4,10,10,15c0,0,6,4,13,4H666c0,0,13,0,22,-3c0,0,9,-2,14,-11c0,0,6,-9,8,-25c0,0,3,-17,3,-43c0,0,0,-22,-2,-38c0,0,-1,-16,-4,-30c0,0,-2,-13,-7,-26c0,0,-4,-12,-10,-26L372,26c0,0,-5,-10,-12,-16c0,0,-7,-6,-20,-9c0,0,-12,-3,-32,-4c0,0,-20,-1,-49,-1Z" 
id="f0_s4"
transform="scale(0.001,-0.001)" />

<path d="M589,371L453,782h-1L317,371ZM106,-4c0,0,-35,0,-54,2C52,-2,32,0,25,8c0,0,-7,9,-5,24c0,0,2,16,11,42L329,931c0,0,4,13,10,21c0,0,6,7,19,12c0,0,13,4,36,5c0,0,23,1,61,1c0,0,44,0,71,-1c0,0,26,-1,40,-5c0,0,15,-5,21,-13c0,0,6,-8,11,-22L896,73c0,0,9,-27,11,-43c0,0,3,-15,-6,-23c0,0,-8,-7,-29,-9c0,0,-21,-2,-57,-2c0,0,-38,0,-59,1c0,0,-22,1,-33,4c0,0,-11,3,-16,9c0,0,-4,6,-7,16L635,220H272L211,31c0,0,-2,-11,-7,-18c0,0,-5,-7,-16,-11c0,0,-11,-3,-31,-4c0,0,-19,-2,-51,-2Z" 
id="f0_5"
transform="scale(0.001,-0.001)" />

<path d="M198,-4c0,0,-27,0,-45,2c0,0,-18,2,-28,5c0,0,-11,4,-15,10c0,0,-4,6,-4,13V887c0,0,0,38,20,58c0,0,20,20,53,20H308c0,0,34,0,59,-6c0,0,24,-5,42,-18c0,0,18,-13,30,-35c0,0,12,-21,21,-52L669,279h3L889,852c0,0,9,32,21,53c0,0,11,22,27,35c0,0,15,14,36,19c0,0,21,6,48,6h132c0,0,21,0,35,-5c0,0,15,-5,24,-15c0,0,9,-11,14,-25c0,0,5,-15,5,-33V26c0,0,0,-7,-4,-13c0,0,-4,-6,-15,-10c0,0,-11,-3,-29,-5c0,0,-18,-2,-45,-2c0,0,-27,0,-45,2c0,0,-18,2,-28,5c0,0,-11,4,-15,10c0,0,-5,6,-5,13V813h-1L764,27c0,0,-3,-10,-10,-16c0,0,-6,-6,-18,-10c0,0,-12,-3,-29,-4c0,0,-18,-1,-44,-1c0,0,-25,0,-43,2c0,0,-18,2,-29,5c0,0,-12,4,-19,10c0,0,-6,6,-9,14L293,813h-2V26c0,0,0,-7,-4,-13c0,0,-4,-6,-15,-10c0,0,-11,-3,-29,-5c0,0,-17,-2,-45,-2Z" 
id="f0_1x"
transform="scale(0.001,-0.001)" />

<path d="M193,-4c0,0,-26,0,-43,2c0,0,-18,2,-27,6c0,0,-10,4,-14,10c0,0,-3,6,-3,13V895c0,0,0,35,20,53c0,0,21,17,50,17H282c0,0,28,0,47,-5c0,0,20,-5,35,-16c0,0,15,-11,29,-31c0,0,13,-20,27,-49L608,511c0,0,17,-32,33,-63c0,0,16,-31,31,-62c0,0,14,-31,29,-60c0,0,14,-30,27,-60h1c0,0,-2,52,-3,109c0,0,-1,57,-1,108V936c0,0,0,7,4,13c0,0,5,6,15,11c0,0,10,4,28,6c0,0,17,2,44,2c0,0,25,0,42,-2c0,0,17,-2,27,-6c0,0,9,-5,13,-11c0,0,4,-6,4,-13V68c0,0,0,-17,-6,-30c0,0,-6,-14,-17,-23C879,15,869,6,856,2c0,0,-14,-3,-28,-3H744c0,0,-26,0,-45,4c0,0,-19,5,-35,19c0,0,-16,14,-31,38c0,0,-15,23,-34,60L359,572c0,0,-21,40,-43,86c0,0,-21,47,-38,91h-2c0,0,3,-54,5,-107c0,0,2,-53,2,-110V27c0,0,0,-7,-5,-13c0,0,-4,-6,-14,-10c0,0,-10,-4,-27,-6c0,0,-17,-2,-44,-2Z" 
id="f0_1y"
transform="scale(0.001,-0.001)" />

<path d="M378,-4c0,0,-28,0,-47,2c0,0,-19,2,-31,5c0,0,-11,4,-16,10c0,0,-4,6,-4,13V805H38c0,0,-8,0,-13,4c0,0,-5,5,-9,14c0,0,-3,9,-5,25c0,0,-2,15,-2,37c0,0,0,22,2,38c0,0,2,15,5,25c0,0,4,9,9,13c0,0,5,4,13,4H718c0,0,7,0,12,-4c0,0,6,-4,10,-13c0,0,3,-10,5,-25c0,0,2,-16,2,-38c0,0,0,-22,-2,-37c0,0,-2,-16,-5,-25c0,0,-4,-9,-10,-14c0,0,-5,-4,-12,-4H476V26c0,0,0,-7,-5,-13c0,0,-5,-6,-16,-10c0,0,-11,-3,-30,-5c0,0,-19,-2,-47,-2Z" 
id="f0_2t"
transform="scale(0.001,-0.001)" />

<path d="M514,145c0,0,72,0,121,27c0,0,48,26,78,73c0,0,30,46,42,107c0,0,13,62,13,131c0,0,0,76,-12,139c0,0,-12,62,-41,106c0,0,-29,45,-76,69c0,0,-48,24,-120,24c0,0,-72,0,-120,-27c0,0,-49,-27,-79,-73c0,0,-29,-45,-42,-106c0,0,-12,-61,-12,-129c0,0,0,-79,12,-142c0,0,12,-63,40,-108c0,0,28,-44,76,-68c0,0,48,-23,120,-23ZM508,-17c0,0,-113,0,-196,29c0,0,-84,29,-140,90c0,0,-56,60,-84,154c0,0,-28,93,-28,221c0,0,0,117,29,210c0,0,30,94,89,160c0,0,59,65,146,101c0,0,87,35,202,35c0,0,110,0,194,-29c0,0,84,-30,140,-90c0,0,56,-60,85,-153c0,0,29,-92,29,-217c0,0,0,-120,-30,-215c0,0,-30,-95,-89,-161C855,118,796,52,709,17c0,0,-87,-34,-201,-34Z" 
id="f0_24"
transform="scale(0.001,-0.001)" />

<path d="M75,0L400,413c0,0,71,91,101,149c0,0,30,58,30,109c0,0,0,55,-36,91c0,0,-36,36,-91,36c0,0,-63,0,-91,-45c0,0,-28,-46,-34,-142H67c0,0,0,173,102,268c0,0,102,95,253,95c0,0,140,0,229,-82c0,0,89,-82,89,-209c0,0,0,-125,-104,-276L580,324c0,0,-34,-50,-85,-114L468,178H740V0Z" 
id="f1_m"
transform="scale(0.001,-0.001)" />

<path d="M403,172c0,0,80,0,127,81c0,0,48,80,48,218c0,0,0,145,-47,227c0,0,-46,83,-125,83c0,0,-82,0,-129,-83c0,0,-47,-82,-47,-230c0,0,0,-135,48,-215c0,0,48,-81,125,-81Zm3,-182c0,0,-167,0,-272,130C134,120,30,251,30,464c0,0,0,227,102,364c0,0,102,137,268,137h6c0,0,170,0,271,-130c0,0,100,-130,100,-347c0,0,0,-253,-112,-376C665,112,553,-10,406,-10Z" 
id="f1_k"
transform="scale(0.001,-0.001)" />

<path d="M44,-281L425,1053H537L156,-281Z" 
id="f1_j"
transform="scale(0.001,-0.001)" />

<path d="M403,168c0,0,50,0,85,37c0,0,35,36,35,89c0,0,0,50,-35,85c0,0,-35,36,-85,36c0,0,-47,0,-81,-37c0,0,-35,-37,-35,-89c0,0,0,-47,36,-84c0,0,35,-37,80,-37Zm3,426c0,0,39,0,70,28c0,0,31,29,31,65c0,0,0,46,-28,77c0,0,-29,31,-73,31c0,0,-42,0,-71,-29c0,0,-28,-29,-28,-70c0,0,0,-44,28,-73c0,0,29,-29,71,-29Zm2,-605c0,0,-145,0,-234,75c0,0,-90,76,-90,197c0,0,0,150,140,239c0,0,-59,52,-87,101c0,0,-27,49,-27,112c0,0,0,103,77,179c0,0,77,75,216,75c0,0,136,0,217,-68c0,0,81,-68,81,-180c0,0,0,-130,-115,-217c0,0,140,-90,140,-237c0,0,0,-124,-89,-200c0,0,-88,-76,-229,-76Z" 
id="f1_s"
transform="scale(0.001,-0.001)" />

<path d="M448,506c0,0,134,0,190,49c0,0,57,50,57,168c0,0,0,114,-56,162c0,0,-56,48,-195,48H316V506ZM777,0L496,438H316V60L468,40V0H54V40L172,60V941L44,960v40H476c0,0,188,0,277,-63c0,0,90,-64,90,-204c0,0,0,-100,-54,-173c0,0,-55,-73,-151,-101L909,60L1017,40V0Z" 
id="f2_1i"
transform="scale(0.001,-0.001)" />

<path d="M495,413c0,0,0,133,-34,190c0,0,-34,57,-105,57c0,0,-78,0,-119,-63c0,0,-42,-62,-42,-184ZM374,-14c0,0,-163,0,-239,87c0,0,-75,88,-75,283c0,0,0,183,77,273c0,0,76,91,219,91c0,0,269,0,269,-306V353H194V340c0,0,0,-103,23,-160c0,0,22,-57,70,-87c0,0,47,-29,124,-29c0,0,40,0,96,6c0,0,55,7,91,15V43C598,43,562,20,500,3c0,0,-61,-17,-126,-17Z" 
id="f2_21"
transform="scale(0.001,-0.001)" />

<path d="M278,-14c0,0,-52,0,-115,11c0,0,-63,10,-99,23V193H98L134,95c0,0,56,-50,146,-50c0,0,144,0,144,123c0,0,0,91,-114,130l-66,21c0,0,-75,25,-110,50c0,0,-34,26,-53,63c0,0,-18,36,-18,89c0,0,0,92,63,145c0,0,63,54,170,54c0,0,77,0,193,-23V544H454l-32,81c0,0,-39,35,-124,35c0,0,-61,0,-92,-30c0,0,-32,-30,-32,-80c0,0,0,-43,29,-72c0,0,28,-29,86,-48c0,0,110,-38,144,-55c0,0,33,-17,57,-42c0,0,23,-25,36,-57c0,0,13,-32,13,-79c0,0,0,-104,-66,-158c0,0,-66,-53,-195,-53Z" 
id="f2_2f"
transform="scale(0.001,-0.001)" />

<path d="M289,-14c0,0,-179,0,-179,205V649L20,668v33H233V200c0,0,0,-128,120,-128c0,0,92,0,173,23V649L420,668v33H649V52L738,33V0H533l-6,57C527,57,474,28,405,7c0,0,-69,-21,-116,-21Z" 
id="f2_2h"
transform="scale(0.001,-0.001)" />

<path d="M31,0V33L150,52v956L31,1026v34H274V52L394,33V0Z" 
id="f2_28"
transform="scale(0.001,-0.001)" />

<path d="M249,-14c0,0,-71,0,-107,42c0,0,-35,42,-35,119V639H15v33l93,29l76,159h47V701H391V639H231V161c0,0,0,-48,22,-73c0,0,22,-24,57,-24c0,0,44,0,106,12V26C416,26,389,8,340,-2c0,0,-49,-12,-91,-12Z" 
id="f2_2g"
transform="scale(0.001,-0.001)" />

<path d="M284,67c0,0,51,0,88,12c0,0,37,12,74,30V358l-98,-3c0,0,-100,-4,-135,-39c0,0,-35,-35,-35,-117c0,0,0,-132,106,-132ZM233,-14c0,0,-179,0,-179,208c0,0,0,70,27,116c0,0,27,46,87,70c0,0,60,24,173,27l105,3V519c0,0,0,72,-26,107c0,0,-27,34,-82,34c0,0,-75,0,-137,-35L176,538H134V691c0,0,121,26,213,26c0,0,115,0,169,-47c0,0,54,-47,54,-144V52L657,33V0H465L451,70c0,0,-85,-84,-218,-84Z" 
id="f2_1x"
transform="scale(0.001,-0.001)" />

<path d="M439,0V33l93,19V500c0,0,0,62,-30,97c0,0,-31,36,-94,36c0,0,-67,0,-165,-22V52L338,33V0H35V33l84,19V649L35,668v33H235l7,-57c0,0,57,33,122,54c0,0,65,22,108,22c0,0,91,0,137,-53c0,0,47,-53,47,-154V52L741,33V0Z" 
id="f2_2a"
transform="scale(0.001,-0.001)" />

<path d="M399,-14c0,0,-341,0,-341,370c0,0,0,175,87,269c0,0,87,95,249,95c0,0,101,0,220,-23V501H573L541,625c0,0,-62,35,-149,35c0,0,-200,0,-200,-304c0,0,0,-158,61,-225c0,0,61,-67,189,-67c0,0,109,0,189,24V43C631,43,595,16,530,1c0,0,-64,-15,-131,-15Z" 
id="f2_1z"
transform="scale(0.001,-0.001)" />

<path d="M31,0V33l88,19V649L31,668v33H235l7,-87c0,0,44,37,121,71c0,0,76,35,121,35h11V530H463l-43,82c0,0,-37,0,-88,-10c0,0,-52,-10,-89,-26V52L363,33V0Z" 
id="f2_2e"
transform="scale(0.001,-0.001)" />

<path d="M32,0V33L151,52V649L52,668v33H275V52L395,33V0ZM201,850c0,0,-32,0,-56,24c0,0,-24,24,-24,56c0,0,0,34,24,58c0,0,24,24,56,24c0,0,34,0,58,-24c0,0,24,-24,24,-58c0,0,0,-32,-24,-56c0,0,-24,-24,-58,-24Z" 
id="f2_25"
transform="scale(0.001,-0.001)" />

<path d="M64,0V34L168,59V639H47v36l121,29v49c0,0,0,155,61,239c0,0,62,84,173,84c0,0,58,0,107,-15V908H472l-33,92c0,0,-26,16,-62,16c0,0,-47,0,-66,-42c0,0,-19,-42,-19,-157V701H478V639H292V59L443,34V0Z" 
id="f2_22"
transform="scale(0.001,-0.001)" />

<path d="M383,64c0,0,85,0,152,28V645c0,0,-67,13,-152,13c0,0,-194,0,-194,-314c0,0,0,-141,48,-211c0,0,48,-69,146,-69ZM342,-14c0,0,-287,0,-287,358c0,0,0,184,82,280c0,0,81,96,239,96c0,0,81,0,163,-18c0,0,-4,25,-4,124v182l-118,18v34H659V52L745,33V0H548l-9,52c0,0,-84,-66,-197,-66Z" 
id="f2_20"
transform="scale(0.001,-0.001)" />

<path d="M148,-329c0,0,-58,0,-114,13v151H69l24,-71c0,0,23,-17,64,-17c0,0,39,0,72,22c0,0,33,23,60,67c0,0,27,44,68,157L90,649L19,668v33H344V668L233,648L423,158L606,649L497,668v33H758V668L685,652L411,-43c0,0,-48,-124,-84,-177c0,0,-36,-54,-79,-82c0,0,-44,-27,-100,-27Z" 
id="f2_2l"
transform="scale(0.001,-0.001)" />

<path d="M442,0V33l93,19V504c0,0,0,129,-124,129c0,0,-70,0,-168,-22V52L338,33V0H31V33l88,19v956L15,1026v34H243V756c0,0,0,-77,-5,-112c0,0,54,31,122,53c0,0,68,23,115,23c0,0,91,0,137,-53c0,0,47,-53,47,-154V52L744,33V0Z" 
id="f2_24"
transform="scale(0.001,-0.001)" />

<path d="M382,45c0,0,188,0,188,314c0,0,0,143,-47,213c0,0,-46,69,-141,69c0,0,-87,0,-146,-24V58c0,0,67,-13,146,-13ZM25,-325v35l88,18V649L34,668v33H231l1,-41c0,0,31,27,84,43c0,0,53,17,107,17c0,0,134,0,208,-94c0,0,73,-93,73,-267c0,0,0,-178,-80,-276c0,0,-80,-97,-232,-97c0,0,-84,0,-160,16c0,0,4,-53,4,-84V-272l123,-18v-35Z" 
id="f2_2c"
transform="scale(0.001,-0.001)" />

<path d="M377,45c0,0,99,0,147,73c0,0,47,73,47,237c0,0,0,161,-47,233c0,0,-47,72,-147,72c0,0,-97,0,-141,-69c0,0,-44,-69,-44,-236c0,0,0,-169,45,-240c0,0,44,-70,140,-70Zm0,-59c0,0,-158,0,-238,94c0,0,-81,95,-81,274c0,0,0,178,81,272c0,0,80,94,244,94c0,0,160,0,241,-92c0,0,82,-92,82,-274c0,0,0,-368,-329,-368Z" 
id="f2_2b"
transform="scale(0.001,-0.001)" />

<path d="M394,460c0,0,126,0,186,57c0,0,60,57,60,187c0,0,0,123,-57,176c0,0,-58,53,-194,53H316V460ZM54,0V40L172,60V941L44,960v40H421c0,0,368,0,368,-295c0,0,0,-153,-93,-233c0,0,-93,-80,-267,-80H316V60L475,40V0Z" 
id="f2_1g"
transform="scale(0.001,-0.001)" />

<path d="M58,-234v58c0,0,131,42,131,125c0,0,0,15,-11,27c0,0,-11,12,-38,25C140,1,89,27,89,75c0,0,0,40,25,61c0,0,26,21,65,21c0,0,48,0,77,-34c0,0,30,-34,30,-86c0,0,0,-101,-60,-170c0,0,-59,-69,-168,-101Z" 
id="f2_g"
transform="scale(0.001,-0.001)" />

<path d="M44,0V40L172,60V941L44,960v40H794V760H745L721,922c0,0,-83,11,-241,11H316V543H586l23,119h48V354H609L586,475H316V67H513c0,0,193,0,252,12l43,185h49L843,0Z" 
id="f2_15"
transform="scale(0.001,-0.001)" />

<path d="M76,316v76H787V316Zm0,306v76H787V622Z" 
id="f2_x"
transform="scale(0.001,-0.001)" />

<path d="M681,416L504,902L333,416ZM669,0V40L803,60L704,348H310L210,60L344,40V0H15V40L128,60l341,949H611L965,60L1092,40V0Z" 
id="f2_11"
transform="scale(0.001,-0.001)" />

<path d="M392,152V469H76v77H392V863h77V546H787V469H469V152Z" 
id="f2_f"
transform="scale(0.001,-0.001)" />

<path d="M536,63c0,0,127,0,191,54c0,0,63,54,63,168c0,0,0,105,-70,154c0,0,-70,49,-225,49H316V67c0,0,103,-4,220,-4ZM480,555c0,0,121,0,178,48c0,0,57,48,57,155c0,0,0,91,-58,133c0,0,-57,42,-186,42H316V555ZM554,-4L235,0H44V40L172,60V941L44,960v40H501c0,0,191,0,279,-56c0,0,88,-56,88,-179c0,0,0,-88,-55,-149c0,0,-54,-62,-151,-83c0,0,135,-14,209,-79c0,0,73,-65,73,-166c0,0,0,-144,-99,-219C845,69,745,-4,554,-4Z" 
id="f2_12"
transform="scale(0.001,-0.001)" />

<path d="M235,0V40L394,60V936H356c0,0,-189,0,-258,-15L78,766H28v234H908V766H857L837,921c0,0,-22,5,-98,9c0,0,-75,4,-165,4H538V60L697,40V0Z" 
id="f2_1k"
transform="scale(0.001,-0.001)" />

<path d="M360,-14L72,649L0,668v33H327V668L216,648L420,164L615,649L504,668v33H764V668L697,652L416,-14Z" 
id="f2_2i"
transform="scale(0.001,-0.001)" />

<path d="M191,-20c0,0,-39,0,-65,25c0,0,-25,27,-25,64c0,0,0,38,26,64c0,0,26,26,64,26c0,0,38,0,64,-26c0,0,26,-26,26,-64c0,0,0,-37,-25,-64c0,0,-26,-25,-65,-25Z" 
id="f2_i"
transform="scale(0.001,-0.001)" />

<path d="M83,0C83,0,48,0,24,24C24,24,0,49,0,83c0,0,0,34,24,58c0,0,24,24,59,24c0,0,34,0,58,-24c0,0,24,-24,24,-58c0,0,0,-34,-24,-59C141,24,117,0,83,0ZM695,0c0,0,-34,0,-58,24c0,0,-25,25,-25,59c0,0,0,34,25,58c0,0,24,24,58,24c0,0,34,0,58,-24c0,0,24,-24,24,-58c0,0,0,-34,-24,-59C753,24,729,0,695,0ZM388,594c0,0,-34,0,-59,23c0,0,-24,24,-24,59c0,0,0,34,24,58c0,0,25,25,59,25c0,0,34,0,58,-25c0,0,24,-24,24,-58c0,0,0,-35,-24,-59c0,0,-24,-23,-58,-23Z" 
id="f3_1s"
transform="scale(0.001,-0.001)" />

<path d="M44,0V40L172,60V941L44,960v40H445V960L316,941V549H787V941L659,960v40h400V960L930,941V60L1059,40V0H659V40L787,60V481H316V60L445,40V0Z" 
id="f2_18"
transform="scale(0.001,-0.001)" />

<path d="M67,0V109L206,235c0,0,133,118,196,190c0,0,63,72,90,149c0,0,27,77,27,177c0,0,0,97,-44,148c0,0,-44,50,-144,50c0,0,-39,0,-81,-10c0,0,-42,-11,-74,-29L150,787H101V980c0,0,135,32,230,32c0,0,164,0,247,-68c0,0,82,-69,82,-193c0,0,0,-84,-32,-158c0,0,-33,-75,-100,-148c0,0,-67,-74,-222,-206c0,0,-67,-57,-141,-125H680V0Z" 
id="f2_m"
transform="scale(0.001,-0.001)" />

<path d="M377,45c0,0,99,0,145,108c0,0,46,109,46,352c0,0,0,240,-45,345c0,0,-46,106,-146,106c0,0,-97,0,-139,-100c0,0,-43,-99,-43,-351c0,0,0,-254,44,-357c0,0,43,-103,138,-103Zm0,-59c0,0,-158,0,-238,132c0,0,-81,133,-81,386c0,0,0,249,81,380c0,0,80,132,244,132c0,0,159,0,241,-130c0,0,82,-130,82,-382c0,0,0,-518,-329,-518Z" 
id="f2_k"
transform="scale(0.001,-0.001)" />

<path d="M134,0V40L339,60V876L137,804v39l292,166h39V60L672,40V0Z" 
id="f2_l"
transform="scale(0.001,-0.001)" />

<path d="M476,327V830h-4L114,327ZM476,0V220H30v99l488,686h86V327H740V220H604V0Z" 
id="f2_o"
transform="scale(0.001,-0.001)" />

<path d="M460,-325c0,0,-148,79,-231,172c0,0,-84,93,-123,217c0,0,-39,126,-39,304c0,0,0,178,39,303c0,0,39,125,122,217c0,0,82,93,232,172V997c0,0,-91,-52,-145,-134c0,0,-54,-81,-79,-190c0,0,-25,-109,-25,-305c0,0,0,-194,26,-309c0,0,26,-114,82,-193c0,0,56,-79,141,-128v-63Z" 
id="f2_c"
transform="scale(0.001,-0.001)" />

<path d="M49,-325v63c0,0,85,49,140,128c0,0,56,79,83,194c0,0,26,115,26,308c0,0,0,196,-25,305c0,0,-25,109,-79,190c0,0,-54,82,-145,134v63c0,0,149,-80,232,-172c0,0,83,-92,122,-217c0,0,39,-125,39,-303c0,0,0,-177,-39,-303c0,0,-39,-125,-122,-217c0,0,-83,-93,-232,-173Z" 
id="f2_d"
transform="scale(0.001,-0.001)" />

<path d="M459,63c0,0,143,0,210,55c0,0,67,56,67,185c0,0,0,101,-66,146c0,0,-66,46,-190,46H341L266,67c0,0,114,-4,193,-4Zm18,499c0,0,144,0,206,49c0,0,61,48,61,170c0,0,0,77,-48,115c0,0,-48,37,-160,37H419L353,562ZM459,-4L173,0H14l8,40l99,20L277,941L151,960l8,40H570c0,0,330,0,330,-210c0,0,0,-105,-66,-174c0,0,-66,-69,-184,-85c0,0,115,-9,179,-69c0,0,63,-59,63,-157c0,0,0,-160,-108,-235C784,70,675,-4,459,-4Z" 
id="f4_12"
transform="scale(0.001,-0.001)" />

<path d="M313,80c0,0,53,0,105,15c0,0,52,15,87,38l90,509c0,0,-76,20,-152,20c0,0,-74,0,-134,-54c0,0,-60,-54,-94,-149c0,0,-34,-95,-34,-203c0,0,0,-86,34,-131c0,0,34,-45,98,-45ZM421,-325l52,285c0,0,12,64,28,120C501,80,443,37,380,11c0,0,-64,-25,-119,-25c0,0,-102,0,-156,63c0,0,-54,63,-54,188c0,0,0,137,53,248c0,0,54,112,152,173c0,0,97,62,220,62c0,0,52,0,129,-10c0,0,76,-11,123,-22L554,-273l91,-17l-6,-35Z" 
id="f4_2d"
transform="scale(0.001,-0.001)" />

<path d="M-17,0l8,40L120,60L276,941L151,960l7,40H909L866,761H817l4,161c0,0,-81,11,-239,11H419L349,543H619l45,119h48L657,354H609l-1,121H338L266,67H463c0,0,190,0,254,12l75,185h49L780,0Z" 
id="f4_15"
transform="scale(0.001,-0.001)" />

<path d="M631,416L539,902L283,416ZM576,0l8,40L691,60L643,348H249L96,60L197,40L189,0H-83l8,40L7,60l509,949H659L845,60L938,40L930,0Z" 
id="f4_11"
transform="scale(0.001,-0.001)" />

<path d="M-6,0c0,0,-12,10,-12,32c0,0,0,21,23,51c0,0,23,31,79,82L287,354L159,649L79,668l6,33H270L378,434l93,88c0,0,47,46,67,72c0,0,19,26,19,44c0,0,0,8,-6,13c0,0,-7,6,-38,17l6,33H651c0,0,16,-12,16,-32c0,0,0,-44,-103,-142L404,377L548,49L634,33L628,0H437L313,298L185,176c0,0,-41,-40,-60,-65c0,0,-19,-26,-19,-48c0,0,0,-21,31,-29L131,0Z" 
id="f4_2k"
transform="scale(0.001,-0.001)" />

<path d="M81,0L258,1008l-96,18l6,34H391L214,52L331,33L325,0Z" 
id="f4_28"
transform="scale(0.001,-0.001)" />

<path d="M0,214v74H784V214ZM0,494v72H784V494Z" 
id="f3_x"
transform="scale(0.001,-0.001)" />

<path d="M140,-21c0,0,-26,0,-44,17C96,-4,79,13,79,40c0,0,0,19,6,33c0,0,8,20,34,55c0,0,46,60,64,126c0,0,32,114,41,321H190c0,0,-55,0,-81,-18c0,0,-44,-26,-80,-89H0c0,0,42,129,98,178c0,0,43,37,120,37H743V575H562c0,0,-27,-171,-27,-327c0,0,0,-77,27,-110c0,0,27,-33,67,-33c0,0,33,0,56,22c0,0,24,22,31,65h27C743,192,730,74,686,26c0,0,-44,-47,-98,-47c0,0,-58,0,-97,51c0,0,-39,53,-39,198c0,0,0,91,28,347H286c0,0,-23,-390,-56,-494c0,0,-33,-102,-90,-102Z" 
id="f3_2c"
transform="scale(0.001,-0.001)" />

<path d="M291,-21c0,0,-140,0,-216,60C75,39,0,101,0,176c0,0,0,54,40,102c0,0,41,49,147,88c0,0,-89,33,-118,70c0,0,-30,38,-30,89c0,0,0,69,58,116c0,0,79,63,208,63c0,0,77,0,138,-18c0,0,61,-18,83,-47c0,0,22,-28,22,-54c0,0,0,-23,-19,-42c0,0,-20,-19,-45,-19c0,0,-41,0,-68,53c0,0,-27,54,-45,66c0,0,-29,19,-72,19c0,0,-67,0,-106,-39c0,0,-40,-39,-40,-106c0,0,0,-66,33,-101c0,0,33,-35,90,-35c0,0,20,0,43,3c0,0,37,5,57,5c0,0,33,0,44,-8c0,0,12,-8,12,-19c0,0,0,-12,-10,-18c0,0,-13,-10,-47,-10c0,0,-8,0,-25,3c0,0,-39,5,-63,5c0,0,-63,0,-103,-41c0,0,-40,-41,-40,-108c0,0,0,-78,42,-121c0,0,41,-44,107,-44c0,0,53,0,86,32c0,0,20,19,41,78c0,0,14,39,23,47c0,0,24,24,51,24c0,0,31,0,53,-21c0,0,22,-22,22,-54c0,0,0,-51,-59,-95c0,0,-86,-60,-219,-60Z" 
id="f3_21"
transform="scale(0.001,-0.001)" />

<path d="M355,0V355H0v72H355V784h72V427H782V355H427V0Z" 
id="f3_f"
transform="scale(0.001,-0.001)" />

<path d="M457,460c0,0,289,0,289,266c0,0,0,106,-54,157c0,0,-54,50,-163,50H419L335,460ZM-7,0L0,40L120,60L276,941L151,960l7,40H559c0,0,161,0,248,-67c0,0,87,-66,87,-198c0,0,0,-167,-109,-255c0,0,-109,-88,-312,-88H323L264,60L427,40L420,0Z" 
id="f4_1g"
transform="scale(0.001,-0.001)" />

<path d="M0,-123V1415H525v-72H72V-123Z" 
id="f3_4r"
transform="scale(0.001,-0.001)" />

<path d="M478,-123V1343H26v72H550V-123Z" 
id="f3_57"
transform="scale(0.001,-0.001)" />

<path d="M0,356v74H784V356Z" 
id="f3_h"
transform="scale(0.001,-0.001)" />

<path d="M0,-123V1415H72V-123Z" 
id="f3_4s"
transform="scale(0.001,-0.001)" />

<path d="M0,-123V1415H72V-123Z" 
id="f3_58"
transform="scale(0.001,-0.001)" />

<path d="M0,-123V1415H72V-51H525v-72Z" 
id="f3_4t"
transform="scale(0.001,-0.001)" />

<path d="M26,-123v72H478V1415h72V-123Z" 
id="f3_59"
transform="scale(0.001,-0.001)" />

<path d="M104,0V950H234V585H688V950H816V0H688V457H234V0Z" 
id="f5_18"
transform="scale(0.001,-0.001)" />

<path d="M565,387c0,0,-62,127,-184,127c0,0,-133,0,-190,-127ZM380,-17c0,0,-137,0,-229,94c0,0,-92,94,-92,234c0,0,0,130,93,227c0,0,94,96,229,96c0,0,132,0,227,-98c0,0,95,-97,93,-252H177c0,0,17,-96,78,-139c0,0,60,-44,132,-44c0,0,110,0,184,91l95,-72C666,120,559,-17,380,-17Z" 
id="f5_21"
transform="scale(0.001,-0.001)" />

<path d="M63,0V615H189V513c0,0,56,62,101,91c0,0,46,30,102,30c0,0,84,0,143,-56c0,0,60,-55,60,-133V0H465V407c0,0,0,50,-33,83c0,0,-32,33,-82,33c0,0,-65,0,-112,-55c0,0,-47,-55,-47,-132V0Z" 
id="f5_2a"
transform="scale(0.001,-0.001)" />

<path d="M356,-17c0,0,-128,0,-224,95c0,0,-96,97,-96,223c0,0,0,143,96,238c0,0,95,95,240,95c0,0,85,0,177,-45V444c0,0,-98,63,-186,63c0,0,-81,0,-141,-57c0,0,-61,-57,-61,-133c0,0,0,-86,57,-145c0,0,57,-59,139,-59c0,0,84,0,192,75V39c0,0,-100,-56,-193,-56Z" 
id="f5_1z"
transform="scale(0.001,-0.001)" />

<path d="M136,-256L21,-211L152,188L312,125L136,-256Z" 
id="f5_g"
transform="scale(0.001,-0.001)" />

<path d="M113,-203V1060H454v-35L232,994V-138l222,-30v-35Z" 
id="f2_1r"
transform="scale(0.001,-0.001)" />

<path d="M55,-203v35l222,30V994L55,1025v35H395V-203Z" 
id="f2_1t"
transform="scale(0.001,-0.001)" />

<path d="M317,45c0,0,74,0,134,54c0,0,60,55,97,153c0,0,36,98,36,200c0,0,0,82,-33,129c0,0,-33,46,-89,46c0,0,-40,0,-93,-29c0,0,-54,-29,-96,-75L192,81c0,0,46,-36,125,-36ZM-88,-325l5,35l90,17L170,649L93,668l6,33H297L283,588c0,0,130,132,235,132c0,0,90,0,145,-67c0,0,55,-66,55,-182c0,0,0,-132,-56,-244C662,227,606,114,510,49c0,0,-97,-63,-209,-63c0,0,-35,0,-72,5c0,0,-37,5,-55,11l-8,-67L130,-273l119,-17l-6,-35Z" 
id="f4_2c"
transform="scale(0.001,-0.001)" />

<path d="M52,62L0,114L278,390L0,667l52,52L330,442L608,719l51,-51L382,390L659,114L608,62L330,338L52,62Z" 
id="f3_3a"
transform="scale(0.001,-0.001)" />

<path d="M55,0V40L184,60V941L55,960v40H455V960L327,941V60L455,40V0Z" 
id="f2_19"
transform="scale(0.001,-0.001)" />

<path d="M431,0V33L535,52V499c0,0,0,62,-32,96c0,0,-32,33,-95,33c0,0,-66,0,-163,-22V52L350,33V0H32V33l89,19V649L32,668v33H237l6,-57c0,0,56,32,119,54c0,0,62,22,110,22c0,0,52,0,95,-20c0,0,44,-19,66,-62c0,0,57,32,134,57c0,0,77,25,128,25c0,0,179,0,179,-207V52l90,-19V0H846V33L950,52V499c0,0,0,129,-119,129c0,0,-19,0,-45,-3c0,0,-26,-3,-52,-7c0,0,-25,-4,-49,-8c0,0,-23,-5,-39,-8c0,0,13,-41,13,-89V52L764,33V0Z" 
id="f2_29"
transform="scale(0.001,-0.001)" />

<path d="M787,139L76,488v38L787,875V798L184,507L787,216V139Z" 
id="f2_w"
transform="scale(0.001,-0.001)" />

<path d="M13,0V34L95,46L325,350L122,649L40,668v33H357V668L264,648L399,446L554,649l-96,19v33H710V668L630,652L433,397L663,50L745,34V0H427V34l94,17L359,299L169,50L266,34V0Z" 
id="f2_2k"
transform="scale(0.001,-0.001)" />

<path d="M350,-14c0,0,-142,0,-269,31L73,228h49L156,87c0,0,29,-16,82,-28c0,0,54,-12,100,-12c0,0,117,0,173,54c0,0,56,53,56,178c0,0,0,99,-52,150c0,0,-51,51,-159,56l-107,6v61l107,7c0,0,84,5,124,52c0,0,41,48,41,145c0,0,0,101,-44,147c0,0,-44,45,-139,45c0,0,-40,0,-83,-10c0,0,-43,-11,-76,-29L153,786H104V979c0,0,74,19,127,26c0,0,54,6,107,6c0,0,321,0,321,-246c0,0,0,-104,-57,-165c0,0,-57,-62,-162,-77c0,0,136,-16,200,-78c0,0,64,-62,64,-173c0,0,0,-135,-92,-211c0,0,-93,-75,-262,-75Z" 
id="f2_n"
transform="scale(0.001,-0.001)" />

<path d="M115,-329V1060h76V-329Z" 
id="f2_2o"
transform="scale(0.001,-0.001)" />

<path d="M359,-270c0,0,124,0,192,46c0,0,67,47,67,129c0,0,0,43,-26,67c0,0,-26,24,-79,24H242c0,0,-32,-27,-51,-69c0,0,-20,-41,-20,-77c0,0,0,-64,46,-92c0,0,46,-28,142,-28Zm11,561c0,0,81,0,115,47c0,0,34,47,34,141c0,0,0,100,-35,142c0,0,-35,42,-113,42c0,0,-78,0,-114,-43c0,0,-37,-42,-37,-141c0,0,0,-98,36,-143c0,0,36,-45,114,-45ZM359,-329c0,0,-143,0,-218,44c0,0,-75,43,-75,125c0,0,0,39,27,78c0,0,26,38,98,89c0,0,-43,14,-72,48c0,0,-29,35,-29,74L208,262c0,0,-118,55,-118,217c0,0,0,115,73,178c0,0,73,63,211,63c0,0,28,0,71,-6c0,0,44,-6,67,-13l165,83l26,-32L599,644c0,0,50,-56,50,-165c0,0,0,-120,-72,-182c0,0,-73,-62,-208,-62c0,0,-62,0,-114,11L208,148c0,0,2,-13,29,-24c0,0,27,-12,67,-12H512c0,0,113,0,168,-49c0,0,55,-49,55,-134c0,0,0,-79,-44,-137c0,0,-43,-58,-128,-90c0,0,-84,-31,-204,-31Z" 
id="f2_23"
transform="scale(0.001,-0.001)" />

<path d="M212,177c0,0,71,0,126,63c0,0,35,42,88,200c0,0,-37,82,-84,121c0,0,-47,38,-115,38c0,0,-80,0,-133,-55C94,544,41,488,41,395c0,0,0,-99,52,-159c0,0,53,-59,119,-59ZM754,79c0,0,-68,0,-124,40c0,0,-56,39,-132,175c0,0,-44,-89,-102,-132c0,0,-58,-43,-142,-43c0,0,-106,0,-180,78C74,197,0,275,0,395c0,0,0,122,69,197c0,0,69,76,162,76c0,0,67,0,116,-37c0,0,50,-36,101,-134c0,0,46,110,108,158c0,0,63,49,164,49c0,0,60,0,110,-19c0,0,51,-18,107,-60V581c0,0,-88,66,-174,66c0,0,-53,0,-91,-24c0,0,-37,-24,-71,-81c0,0,-24,-42,-81,-196c0,0,90,-205,250,-205c0,0,93,0,167,61V159c0,0,-83,-80,-183,-80Z" 
id="f3_3b"
transform="scale(0.001,-0.001)" />

<path d="M376,50c0,0,103,0,149,80c0,0,46,81,46,240c0,0,0,137,-47,204c0,0,-48,67,-148,67c0,0,-44,0,-87,-7c0,0,-44,-8,-63,-17V62c0,0,63,-12,150,-12Zm3,-64c0,0,-64,0,-141,14c0,0,-78,14,-136,37v971L0,1026v34H226V809c0,0,0,-40,-4,-148c0,0,74,59,188,59c0,0,143,0,219,-87c0,0,77,-87,77,-263c0,0,0,-189,-84,-287c0,0,-84,-97,-243,-97Z" 
id="f2_1y"
transform="scale(0.001,-0.001)" />

<path d="M78,139v77L681,507L78,798v77L789,526V488L78,139Z" 
id="f2_y"
transform="scale(0.001,-0.001)" />

<path d="M383,64c0,0,44,0,87,7c0,0,43,7,65,17V645c0,0,-67,13,-152,13c0,0,-194,0,-194,-309c0,0,0,-143,48,-214c0,0,47,-71,146,-71Zm56,-389v35l96,18V-77c0,0,0,73,7,124c0,0,-79,-61,-200,-61c0,0,-287,0,-287,362c0,0,0,180,81,276c0,0,81,96,237,96c0,0,84,0,166,-18l67,33h53V-272l77,-18v-35Z" 
id="f2_2d"
transform="scale(0.001,-0.001)" />

<path d="M211,-20c0,0,-39,0,-64,25c0,0,-26,27,-26,64c0,0,0,38,26,64c0,0,26,26,64,26c0,0,37,0,64,-25c0,0,26,-26,26,-65c0,0,0,-37,-26,-64c0,0,-26,-25,-64,-25Zm0,556c0,0,-38,0,-64,26c0,0,-26,26,-26,64c0,0,0,37,26,64c0,0,25,27,64,27c0,0,38,0,64,-27c0,0,26,-27,26,-64c0,0,0,-38,-26,-64c0,0,-27,-26,-64,-26Z" 
id="f2_u"
transform="scale(0.001,-0.001)" />

<path d="M57,302V417H454V302Z" 
id="f2_h"
transform="scale(0.001,-0.001)" />

<path d="M327,-14L84,649L1,668v33H335V668L219,648L385,174L554,632h63L786,171L944,649L830,668v33h267V668l-78,-16L784,-14H726L553,448L382,-14Z" 
id="f2_2j"
transform="scale(0.001,-0.001)" />

<path d="M-12,338v55H777V338Z" 
id="f6_4y"
transform="scale(0.001,-0.001)" />

<path d="M477,0V33l64,19L348,354L257,254V52L331,33V0H44V33l89,19v956L29,1026v34H257V338L544,647l-73,20v34H718V667L631,650L431,446L688,50L764,33V0Z" 
id="f2_27"
transform="scale(0.001,-0.001)" />

<path d="M338,28c0,0,48,0,91,45c0,0,43,45,65,144c0,0,22,99,26,276H143c0,0,3,-133,20,-239c0,0,13,-80,44,-140c0,0,19,-36,54,-61c0,0,36,-25,77,-25ZM522,543c0,0,-1,194,-37,312c0,0,-29,90,-76,129c0,0,-34,28,-79,28c0,0,-51,0,-93,-39c0,0,-43,-40,-65,-132c0,0,-22,-93,-29,-298ZM329,-21c0,0,-68,0,-124,31c0,0,-56,33,-99,95c0,0,-43,62,-66,131C40,236,0,356,0,489c0,0,0,294,119,453c0,0,91,119,217,119c0,0,122,0,209,-115c0,0,121,-160,121,-436c0,0,0,-263,-119,-415C547,95,455,-21,329,-21Z" 
id="f3_2d"
transform="scale(0.001,-0.001)" />

<path d="M41,0V34L426,641H261c0,0,-42,0,-80,-7c0,0,-39,-7,-54,-19L104,515H69V701H586V665L201,60H407c0,0,42,0,89,10c0,0,47,10,66,25l39,147h35L617,0Z" 
id="f2_2m"
transform="scale(0.001,-0.001)" />

<path d="M410,-14c0,0,-80,0,-162,14c0,0,-81,14,-144,38V270h48L178,134c0,0,28,-35,95,-62c0,0,68,-27,134,-27c0,0,104,0,163,53c0,0,58,54,58,148c0,0,0,54,-23,89c0,0,-22,35,-59,59c0,0,-37,24,-84,41c0,0,-47,17,-97,34c0,0,-49,17,-96,38c0,0,-47,21,-84,53c0,0,-37,32,-60,79c0,0,-23,48,-23,117c0,0,0,119,90,187c0,0,89,68,248,68c0,0,121,0,263,-32V771H654L628,893c0,0,-76,55,-188,55c0,0,-100,0,-156,-40c0,0,-56,-41,-56,-112c0,0,0,-49,22,-81c0,0,23,-32,60,-55c0,0,37,-22,84,-39c0,0,48,-16,97,-34c0,0,50,-17,97,-39c0,0,48,-22,85,-56c0,0,36,-34,59,-83c0,0,23,-49,23,-120c0,0,0,-145,-89,-224c0,0,-89,-79,-256,-79Z" 
id="f2_1j"
transform="scale(0.001,-0.001)" />


</defs>
</svg>