<?xml version="1.0" encoding="UTF-8" standalone="no"?>
<!DOCTYPE svg PUBLIC "-//W3C//DTD SVG 1.1//EN"
"http://www.w3.org/Graphics/SVG/1.1/DTD/svg11.dtd">
<svg viewBox="0 0 909 1286" version="1.1" xmlns="http://www.w3.org/2000/svg" xmlns:xlink="http://www.w3.org/1999/xlink">
<defs>
<clipPath id="c0_21"><path d="M210.1,118.6V97.7h20.2v20.9Z" /></clipPath>
<clipPath id="c1_21"><path d="M118.8,118.2V95.8H230.3v22.4Z" /></clipPath>
<clipPath id="c2_21"><path d="M163.5,150.5V133.6h15.1v16.9Z" /></clipPath>
<clipPath id="c3_21"><path d="M622.6,183.5V166.6h13.2v16.9Z" /></clipPath>
<clipPath id="c4_21"><path d="M772.2,185.3V173.2h8.4v12.1Z" /></clipPath>
<clipPath id="c5_21"><path d="M762.7,182V159.6h17.9V182Z" /></clipPath>
<clipPath id="c6_21"><path d="M752.8,182V159.6h27.8V182Z" /></clipPath>
<clipPath id="c7_21"><path d="M836,185.3V173.2h8.8v12.1Z" /></clipPath>
<clipPath id="c8_21"><path d="M826.5,182V159.6h18.3V182Z" /></clipPath>
<clipPath id="c9_21"><path d="M816.9,182V159.6h27.9V182Z" /></clipPath>
<clipPath id="c10_21"><path d="M205.7,787.4V768.7h33.7v18.7Z" /></clipPath>
<clipPath id="c11_21"><path d="M158.4,787.4V768.7h81v18.7Z" /></clipPath>
<clipPath id="c12_21"><path d="M255.9,785.2V764.3H523.6v20.9Z" /></clipPath>
<clipPath id="c13_21"><path d="M408.1,799.1V778.6h45.8v20.5Z" /></clipPath>
<clipPath id="c14_21"><path d="M507.1,785.2V764.3h16.5v20.9Z" /></clipPath>
<clipPath id="c15_21"><path d="M556.2,940.3V919.4h45.1v20.9Z" /></clipPath>
<clipPath id="c16_21"><path d="M506.4,940.3V919.4h94.9v20.9Z" /></clipPath>
<clipPath id="c17_21"><path d="M579.7,939.9V917.5h21.6v22.4Z" /></clipPath>
<clipPath id="c18_21"><path d="M234.7,1001.9V981h23.1v20.9Z" /></clipPath>
<clipPath id="c19_21"><path d="M232.1,975.8V953.5h25.7v22.3Z" /></clipPath>
<clipPath id="c20_21"><path d="M187.7,976.9V954.6h70.1v22.3Z" /></clipPath>
<clipPath id="c21_21"><path d="M187.7,992V969.6h70.1V992Z" /></clipPath>
<clipPath id="c22_21"><path d="M187.7,1003.7V981.3h70.1v22.4Z" /></clipPath>
<clipPath id="c23_21"><path d="M216.3,1099v-20.9h30.1V1099Z" /></clipPath>
<clipPath id="c24_21"><path d="M220.4,1125.4v-21.2h26v21.2Z" /></clipPath>
<style type="text/css"><![CDATA[
.g0_21{
fill: none;
stroke: #FFFFFF;
stroke-width: 0.77152777;
stroke-linecap: round;
stroke-linejoin: round;
}
.g1_21{
fill: #F3F5F6;
}
.g2_21{
fill: none;
stroke: #000000;
stroke-width: 0.9029167;
stroke-linecap: round;
stroke-linejoin: round;
}
.g3_21{
fill: none;
stroke: #000000;
stroke-width: 0.9059723;
stroke-linecap: round;
stroke-linejoin: round;
}
.g4_21{
fill: none;
stroke: #000000;
stroke-width: 0.8998611;
stroke-linecap: round;
stroke-linejoin: round;
}
]]></style>
</defs>
<path d="M542.7,525l7.5,9.7l5.1,9.5l4.4,9.5l2,7.7l1.1,8.5l1,7l-1,7.4l-2.1,5.9l-2.1,5.7l-3.3,5.6l-3.1,4.9l-3,4.9l-7.5,6.7l-7.2,4.6L524,629.3l-8.5,5.9L505,641.9l-14.7,8.5l-8.2,5.9l-7.4,5.6l-6.2,6.7l-6.4,7.7L458,683l-4.4,7.7l-3.1,7.7l-2,6.7l-3.1,-12.6l-2.1,-11.3L441,669.7V659.1l1,-8.7l2.4,-8.5l3,-4.9l2.1,-3.9l4.1,-3.8l4.4,-3.6l16.7,-12.6l16.7,-9.5L506,594.9l14.9,-8.5l6.2,-4.9l5.3,-6.7l4.2,-6.7l4.1,-7.7l2,-7.7l2.3,-8.5v-9.5L542.7,525" class="g0_21" />
<path fill-rule="evenodd" d="M394.3,532.7v-46H412l4.4,1l3,1l2.1,1l2,2.9l2.1,1.8v3.8l1.3,2.9l-1.3,4.8l-2.1,3.9l-3,2.8l-4.1,1.8L429,532.7H415.3L404.8,514.4v18.3H394.3Zm10.5,-23.9h2.1l4.1,-1.1l2,-.7l1.3,-1.1v-5.6L413,498.2l-2,-1l-3.1,-.8h-3.1v12.4Zm28.3,23.9v-46h12.5v46H433.1Zm22,0v-46h12.6v46H455.1Zm28.3,0V498.2h-9.5V486.7h31.6v11.5H496v34.5H483.4Z" class="g1_21" />
<g fill="#000000" >
<use xlink:href="#f0_k" transform="matrix(6.9,0,0,6.9,152.9,118.9)" />
<use xlink:href="#f0_2f" transform="matrix(12,0,0,12,162.1,114.2)" />
<use xlink:href="#f0_25" transform="matrix(12,0,0,12,169.4,114.2)" />
<use xlink:href="#f0_2a" transform="matrix(12,0,0,12,174.5,114.2)" />
<use xlink:href="#f0_m" transform="matrix(12,0,0,12,187,114.2)" />
</g>
<g clip-path="url(#c0_21)">
<g fill="#000000" >
<use xlink:href="#f1_2i" transform="matrix(12,0,0,12,210.1,114.2)" />
<use xlink:href="#f1_2g" transform="matrix(12,0,0,12,220.4,114.2)" />
</g>
</g>
<g clip-path="url(#c1_21)">
<g fill="#000000" >
<use xlink:href="#f2_21" transform="matrix(12,0,-3.2,12,118.8,114.2)" />
<use xlink:href="#f2_21" transform="matrix(12,0,-3.2,12,143.7,114.2)" />
<use xlink:href="#f2_2c" transform="matrix(12,0,-3.2,12,195.1,114.2)" />
</g>
</g>
<g fill="#000000" >
<use xlink:href="#f3_x" transform="matrix(12,0,0,12,131.6,114.2)" />
<use xlink:href="#f0_i" transform="matrix(12,0,0,12,445.9,114.2)" />
<use xlink:href="#f0_i" transform="matrix(12,0,0,12,450.3,114.2)" />
<use xlink:href="#f0_i" transform="matrix(12,0,0,12,454.7,114.2)" />
<use xlink:href="#f0_c" transform="matrix(12,0,0,12,459.5,114.2)" />
<use xlink:href="#f0_n" transform="matrix(12,0,0,12,465.4,114.2)" />
<use xlink:href="#f0_d" transform="matrix(12,0,0,12,474.2,114.2)" />
<use xlink:href="#f0_2j" transform="matrix(12,0,0,12,117,145)" />
<use xlink:href="#f0_24" transform="matrix(12,0,0,12,129.8,145)" />
<use xlink:href="#f0_21" transform="matrix(12,0,0,12,138.6,145)" />
<use xlink:href="#f0_2e" transform="matrix(12,0,0,12,146.3,145)" />
<use xlink:href="#f0_21" transform="matrix(12,0,0,12,152.2,145)" />
</g>
<g clip-path="url(#c2_21)">
<g fill="#000000" >
<use xlink:href="#f2_2a" transform="matrix(12.3,0,-3.3,12.3,163.5,146.1)" />
</g>
</g>
<g fill="#000000" >
<use xlink:href="#f0_25" transform="matrix(12,0,0,12,181.5,145)" />
<use xlink:href="#f0_2f" transform="matrix(12,0,0,12,185.9,145)" />
<use xlink:href="#f0_2g" transform="matrix(12,0,0,12,195.9,145)" />
<use xlink:href="#f0_24" transform="matrix(12,0,0,12,201,145)" />
<use xlink:href="#f0_21" transform="matrix(12,0,0,12,209.8,145)" />
<use xlink:href="#f0_22" transform="matrix(12,0,0,12,220.5,145)" />
<use xlink:href="#f0_2e" transform="matrix(12,0,0,12,225.6,145)" />
<use xlink:href="#f0_21" transform="matrix(12,0,0,12,231.9,145)" />
<use xlink:href="#f0_2d" transform="matrix(12,0,0,12,239.6,145)" />
<use xlink:href="#f0_2h" transform="matrix(12,0,0,12,248.4,145)" />
<use xlink:href="#f0_21" transform="matrix(12,0,0,12,257.2,145)" />
<use xlink:href="#f0_2a" transform="matrix(12,0,0,12,265.3,145)" />
<use xlink:href="#f0_1z" transform="matrix(12,0,0,12,273.8,145)" />
<use xlink:href="#f0_2l" transform="matrix(12,0,0,12,281.5,145)" />
<use xlink:href="#f0_2b" transform="matrix(12,0,0,12,293.2,145)" />
<use xlink:href="#f0_22" transform="matrix(12,0,0,12,302.4,145)" />
<use xlink:href="#f0_2e" transform="matrix(12,0,0,12,310.9,145)" />
<use xlink:href="#f0_21" transform="matrix(12,0,0,12,317.1,145)" />
<use xlink:href="#f0_2i" transform="matrix(12,0,0,12,324.8,145)" />
<use xlink:href="#f0_2b" transform="matrix(12,0,0,12,333.3,145)" />
<use xlink:href="#f0_28" transform="matrix(12,0,0,12,342.4,145)" />
<use xlink:href="#f0_2h" transform="matrix(12,0,0,12,346.9,145)" />
<use xlink:href="#f0_2g" transform="matrix(12,0,0,12,355.7,145)" />
<use xlink:href="#f0_25" transform="matrix(12,0,0,12,360.8,145)" />
<use xlink:href="#f0_2b" transform="matrix(12,0,0,12,364.9,145)" />
<use xlink:href="#f0_2a" transform="matrix(12,0,0,12,374.4,145)" />
<use xlink:href="#f0_2b" transform="matrix(12,0,0,12,386.2,145)" />
<use xlink:href="#f0_22" transform="matrix(12,0,0,12,395.3,145)" />
<use xlink:href="#f0_2g" transform="matrix(12,0,0,12,403.8,145)" />
<use xlink:href="#f0_24" transform="matrix(12,0,0,12,408.9,145)" />
<use xlink:href="#f0_21" transform="matrix(12,0,0,12,417.4,145)" />
<use xlink:href="#f0_23" transform="matrix(12,0,0,12,428.8,145)" />
<use xlink:href="#f0_21" transform="matrix(12,0,0,12,437.6,145)" />
<use xlink:href="#f0_2a" transform="matrix(12,0,0,12,445.3,145)" />
<use xlink:href="#f0_21" transform="matrix(12,0,0,12,454.1,145)" />
<use xlink:href="#f0_2e" transform="matrix(12,0,0,12,461.8,145)" />
<use xlink:href="#f0_1x" transform="matrix(12,0,0,12,467.7,145)" />
<use xlink:href="#f0_2g" transform="matrix(12,0,0,12,475.4,145)" />
<use xlink:href="#f0_2b" transform="matrix(12,0,0,12,480.9,145)" />
<use xlink:href="#f0_2e" transform="matrix(12,0,0,12,490.1,145)" />
<use xlink:href="#f0_53" transform="matrix(12,0,0,12,496.7,145)" />
<use xlink:href="#f0_2f" transform="matrix(12,0,0,12,501.1,145)" />
<use xlink:href="#f0_1z" transform="matrix(12,0,0,12,511.4,145)" />
<use xlink:href="#f0_2b" transform="matrix(12,0,0,12,519.1,145)" />
<use xlink:href="#f0_25" transform="matrix(12,0,0,12,528.3,145)" />
<use xlink:href="#f0_28" transform="matrix(12,0,0,12,532.7,145)" />
<use xlink:href="#f0_i" transform="matrix(12,0,0,12,536.8,145)" />
<use xlink:href="#f0_1e" transform="matrix(12,0,0,12,117,178)" />
<use xlink:href="#f0_2b" transform="matrix(12,0,0,12,130.2,178)" />
<use xlink:href="#f0_2g" transform="matrix(12,0,0,12,139.7,178)" />
<use xlink:href="#f0_21" transform="matrix(12,0,0,12,145.2,178)" />
<use xlink:href="#f0_2g" transform="matrix(12,0,0,12,157,178)" />
<use xlink:href="#f0_24" transform="matrix(12,0,0,12,162.5,178)" />
<use xlink:href="#f0_1x" transform="matrix(12,0,0,12,171.3,178)" />
<use xlink:href="#f0_2g" transform="matrix(12,0,0,12,179.4,178)" />
<use xlink:href="#f0_21" transform="matrix(12,0,0,12,188.6,178)" />
<use xlink:href="#f0_2d" transform="matrix(12,0,0,12,196.6,178)" />
<use xlink:href="#f0_2h" transform="matrix(12,0,0,12,205.8,178)" />
<use xlink:href="#f0_1x" transform="matrix(12,0,0,12,215,178)" />
<use xlink:href="#f0_2g" transform="matrix(12,0,0,12,223.1,178)" />
<use xlink:href="#f0_25" transform="matrix(12,0,0,12,228.6,178)" />
<use xlink:href="#f0_2b" transform="matrix(12,0,0,12,233,178)" />
<use xlink:href="#f0_2a" transform="matrix(12,0,0,12,242.5,178)" />
<use xlink:href="#f0_m" transform="matrix(12,0,0,12,255,178)" />
<use xlink:href="#f0_1x" transform="matrix(12,0,0,12,268.2,178)" />
<use xlink:href="#f0_2a" transform="matrix(12,0,0,12,276.3,178)" />
<use xlink:href="#f0_20" transform="matrix(12,0,0,12,285.1,178)" />
<use xlink:href="#f0_n" transform="matrix(12,0,0,12,298,178)" />
<use xlink:href="#f0_23" transform="matrix(12,0,0,12,310.8,178)" />
<use xlink:href="#f0_25" transform="matrix(12,0,0,12,320,178)" />
<use xlink:href="#f0_2i" transform="matrix(12,0,0,12,324.4,178)" />
<use xlink:href="#f0_21" transform="matrix(12,0,0,12,333.2,178)" />
<use xlink:href="#f0_2g" transform="matrix(12,0,0,12,345,178)" />
<use xlink:href="#f0_24" transform="matrix(12,0,0,12,350.5,178)" />
<use xlink:href="#f0_21" transform="matrix(12,0,0,12,359.3,178)" />
<use xlink:href="#f0_25" transform="matrix(12,0,0,12,371.1,178)" />
<use xlink:href="#f0_2a" transform="matrix(12,0,0,12,375.5,178)" />
<use xlink:href="#f0_2f" transform="matrix(12,0,0,12,384.3,178)" />
<use xlink:href="#f0_2g" transform="matrix(12,0,0,12,391.3,178)" />
<use xlink:href="#f0_1x" transform="matrix(12,0,0,12,396.8,178)" />
<use xlink:href="#f0_2a" transform="matrix(12,0,0,12,404.9,178)" />
<use xlink:href="#f0_2g" transform="matrix(12,0,0,12,413.7,178)" />
<use xlink:href="#f0_1x" transform="matrix(12,0,0,12,419.2,178)" />
<use xlink:href="#f0_2a" transform="matrix(12,0,0,12,427.3,178)" />
<use xlink:href="#f0_21" transform="matrix(12,0,0,12,436.1,178)" />
<use xlink:href="#f0_2b" transform="matrix(12,0,0,12,444.2,178)" />
<use xlink:href="#f0_2h" transform="matrix(12,0,0,12,453.7,178)" />
<use xlink:href="#f0_2f" transform="matrix(12,0,0,12,462.9,178)" />
<use xlink:href="#f0_2i" transform="matrix(12,0,0,12,473.5,178)" />
<use xlink:href="#f0_1x" transform="matrix(12,0,0,12,482.4,178)" />
<use xlink:href="#f0_28" transform="matrix(12,0,0,12,490.4,178)" />
<use xlink:href="#f0_2h" transform="matrix(12,0,0,12,494.9,178)" />
<use xlink:href="#f0_21" transform="matrix(12,0,0,12,504,178)" />
<use xlink:href="#f0_2b" transform="matrix(12,0,0,12,515.8,178)" />
<use xlink:href="#f0_22" transform="matrix(12,0,0,12,525.3,178)" />
<use xlink:href="#f0_2g" transform="matrix(12,0,0,12,534.9,178)" />
<use xlink:href="#f0_24" transform="matrix(12,0,0,12,540.4,178)" />
<use xlink:href="#f0_21" transform="matrix(12,0,0,12,549.2,178)" />
<use xlink:href="#f0_21" transform="matrix(12,0,0,12,561,178)" />
<use xlink:href="#f0_29" transform="matrix(12,0,0,12,569,178)" />
<use xlink:href="#f0_22" transform="matrix(12,0,0,12,582.6,178)" />
<use xlink:href="#f0_1x" transform="matrix(12,0,0,12,591.8,178)" />
<use xlink:href="#f0_2a" transform="matrix(12,0,0,12,599.9,178)" />
<use xlink:href="#f0_20" transform="matrix(12,0,0,12,608.7,178)" />
</g>
<g clip-path="url(#c3_21)">
<g fill="#000000" >
<use xlink:href="#f2_21" transform="matrix(12.3,0,-3.3,12.3,622.6,179.1)" />
</g>
</g>
<g fill="#000000" >
<use xlink:href="#f0_2i" transform="matrix(12,0,0,12,639.5,178)" />
<use xlink:href="#f0_1x" transform="matrix(12,0,0,12,648.3,178)" />
<use xlink:href="#f0_2e" transform="matrix(12,0,0,12,656.4,178)" />
<use xlink:href="#f0_25" transform="matrix(12,0,0,12,662.6,178)" />
<use xlink:href="#f0_21" transform="matrix(12,0,0,12,667,178)" />
<use xlink:href="#f0_2f" transform="matrix(12,0,0,12,675.1,178)" />
<use xlink:href="#f0_1y" transform="matrix(12,0,0,12,685.8,178)" />
<use xlink:href="#f0_21" transform="matrix(12,0,0,12,694.6,178)" />
<use xlink:href="#f0_2g" transform="matrix(12,0,0,12,702.7,178)" />
<use xlink:href="#f0_2j" transform="matrix(12,0,0,12,708.2,178)" />
<use xlink:href="#f0_21" transform="matrix(12,0,0,12,721.4,178)" />
<use xlink:href="#f0_21" transform="matrix(12,0,0,12,729.5,178)" />
<use xlink:href="#f0_2a" transform="matrix(12,0,0,12,737.6,178)" />
</g>
<g clip-path="url(#c4_21)">
<g fill="#000000" >
<use xlink:href="#f0_k" transform="matrix(6.9,0,0,6.9,772.2,182.7)" />
</g>
</g>
<g clip-path="url(#c5_21)">
<g fill="#000000" >
<use xlink:href="#f2_21" transform="matrix(12,0,-3.2,12,762.7,178)" />
</g>
</g>
<g clip-path="url(#c6_21)">
<g fill="#000000" >
<use xlink:href="#f3_f" transform="matrix(12,0,0,12,752.8,178)" />
</g>
</g>
<g fill="#000000" >
<use xlink:href="#f0_1x" transform="matrix(12,0,0,12,784.3,178)" />
<use xlink:href="#f0_2a" transform="matrix(12,0,0,12,792.4,178)" />
<use xlink:href="#f0_20" transform="matrix(12,0,0,12,801.2,178)" />
</g>
<g clip-path="url(#c7_21)">
<g fill="#000000" >
<use xlink:href="#f0_k" transform="matrix(6.9,0,0,6.9,836,182.7)" />
</g>
</g>
<g clip-path="url(#c8_21)">
<g fill="#000000" >
<use xlink:href="#f2_21" transform="matrix(12,0,-3.2,12,826.5,178)" />
</g>
</g>
<g clip-path="url(#c9_21)">
<g fill="#000000" >
<use xlink:href="#f3_h" transform="matrix(12,0,0,12,816.9,178)" />
</g>
</g>
<g fill="#000000" >
<use xlink:href="#f0_2c" transform="matrix(12,0,0,12,117,204.4)" />
<use xlink:href="#f0_21" transform="matrix(12,0,0,12,125.8,204.4)" />
<use xlink:href="#f0_2e" transform="matrix(12,0,0,12,133.5,204.4)" />
<use xlink:href="#f0_25" transform="matrix(12,0,0,12,139.4,204.4)" />
<use xlink:href="#f0_2b" transform="matrix(12,0,0,12,143.4,204.4)" />
<use xlink:href="#f0_20" transform="matrix(12,0,0,12,152.3,204.4)" />
<use xlink:href="#f0_25" transform="matrix(12,0,0,12,161.1,204.4)" />
<use xlink:href="#f0_1z" transform="matrix(12,0,0,12,165.1,204.4)" />
<use xlink:href="#f0_1x" transform="matrix(12,0,0,12,172.8,204.4)" />
<use xlink:href="#f0_28" transform="matrix(12,0,0,12,180.6,204.4)" />
<use xlink:href="#f0_28" transform="matrix(12,0,0,12,184.6,204.4)" />
<use xlink:href="#f0_2l" transform="matrix(12,0,0,12,188.7,204.4)" />
<use xlink:href="#f0_i" transform="matrix(12,0,0,12,195.6,204.4)" />
<use xlink:href="#f0_1n" transform="matrix(12,0,0,12,202.6,204.4)" />
<use xlink:href="#f0_21" transform="matrix(12,0,0,12,217.7,204.4)" />
<use xlink:href="#f0_2f" transform="matrix(12,0,0,12,228.4,204.4)" />
<use xlink:href="#f0_24" transform="matrix(12,0,0,12,235,204.4)" />
<use xlink:href="#f0_1x" transform="matrix(12,0,0,12,243.4,204.4)" />
<use xlink:href="#f0_28" transform="matrix(12,0,0,12,251.1,204.4)" />
<use xlink:href="#f0_28" transform="matrix(12,0,0,12,254.8,204.4)" />
<use xlink:href="#f0_28" transform="matrix(12,0,0,12,262.2,204.4)" />
<use xlink:href="#f0_21" transform="matrix(12,0,0,12,266.2,204.4)" />
<use xlink:href="#f0_1x" transform="matrix(12,0,0,12,274,204.4)" />
<use xlink:href="#f0_2e" transform="matrix(12,0,0,12,281.7,204.4)" />
<use xlink:href="#f0_2a" transform="matrix(12,0,0,12,287.6,204.4)" />
<use xlink:href="#f0_24" transform="matrix(12,0,0,12,299.3,204.4)" />
<use xlink:href="#f0_2b" transform="matrix(12,0,0,12,307.4,204.4)" />
<use xlink:href="#f0_2j" transform="matrix(12,0,0,12,316.6,204.4)" />
<use xlink:href="#f0_2g" transform="matrix(12,0,0,12,332.7,204.4)" />
<use xlink:href="#f0_2b" transform="matrix(12,0,0,12,337.9,204.4)" />
<use xlink:href="#f0_20" transform="matrix(12,0,0,12,350,204.4)" />
<use xlink:href="#f0_21" transform="matrix(12,0,0,12,358.8,204.4)" />
<use xlink:href="#f0_2g" transform="matrix(12,0,0,12,366.2,204.4)" />
<use xlink:href="#f0_21" transform="matrix(12,0,0,12,371.3,204.4)" />
<use xlink:href="#f0_2e" transform="matrix(12,0,0,12,379,204.4)" />
<use xlink:href="#f0_29" transform="matrix(12,0,0,12,384.9,204.4)" />
<use xlink:href="#f0_25" transform="matrix(12,0,0,12,398.1,204.4)" />
<use xlink:href="#f0_2a" transform="matrix(12,0,0,12,402.2,204.4)" />
<use xlink:href="#f0_21" transform="matrix(12,0,0,12,410.6,204.4)" />
<use xlink:href="#f0_2g" transform="matrix(12,0,0,12,421.6,204.4)" />
<use xlink:href="#f0_24" transform="matrix(12,0,0,12,426.4,204.4)" />
<use xlink:href="#f0_21" transform="matrix(12,0,0,12,434.9,204.4)" />
<use xlink:href="#f0_2g" transform="matrix(12,0,0,12,445.9,204.4)" />
<use xlink:href="#f0_25" transform="matrix(12,0,0,12,451,204.4)" />
<use xlink:href="#f0_29" transform="matrix(12,0,0,12,455.1,204.4)" />
<use xlink:href="#f0_21" transform="matrix(12,0,0,12,468.3,204.4)" />
<use xlink:href="#f0_h" transform="matrix(12,0,0,12,476,204.4)" />
<use xlink:href="#f0_1x" transform="matrix(12,0,0,12,481.5,204.4)" />
<use xlink:href="#f0_2i" transform="matrix(12,0,0,12,489.3,204.4)" />
<use xlink:href="#f0_21" transform="matrix(12,0,0,12,497.7,204.4)" />
<use xlink:href="#f0_2e" transform="matrix(12,0,0,12,505.4,204.4)" />
<use xlink:href="#f0_1x" transform="matrix(12,0,0,12,511.3,204.4)" />
<use xlink:href="#f0_23" transform="matrix(12,0,0,12,519,204.4)" />
<use xlink:href="#f0_21" transform="matrix(12,0,0,12,527.8,204.4)" />
<use xlink:href="#f0_20" transform="matrix(12,0,0,12,535.6,204.4)" />
<use xlink:href="#f0_2i" transform="matrix(12,0,0,12,547.3,204.4)" />
<use xlink:href="#f0_1x" transform="matrix(12,0,0,12,555.8,204.4)" />
<use xlink:href="#f0_28" transform="matrix(12,0,0,12,563.5,204.4)" />
<use xlink:href="#f0_2h" transform="matrix(12,0,0,12,567.5,204.4)" />
<use xlink:href="#f0_21" transform="matrix(12,0,0,12,576.4,204.4)" />
<use xlink:href="#f0_22" transform="matrix(12,0,0,12,587,204.4)" />
<use xlink:href="#f0_2b" transform="matrix(12,0,0,12,592.2,204.4)" />
<use xlink:href="#f0_2e" transform="matrix(12,0,0,12,601,204.4)" />
<use xlink:href="#f0_2g" transform="matrix(12,0,0,12,610.2,204.4)" />
<use xlink:href="#f0_24" transform="matrix(12,0,0,12,615.3,204.4)" />
<use xlink:href="#f0_21" transform="matrix(12,0,0,12,623.8,204.4)" />
<use xlink:href="#f0_1x" transform="matrix(12,0,0,12,634.8,204.4)" />
<use xlink:href="#f0_28" transform="matrix(12,0,0,12,642.5,204.4)" />
<use xlink:href="#f0_2g" transform="matrix(12,0,0,12,646.2,204.4)" />
<use xlink:href="#f0_21" transform="matrix(12,0,0,12,651.3,204.4)" />
<use xlink:href="#f0_2e" transform="matrix(12,0,0,12,659.1,204.4)" />
<use xlink:href="#f0_2a" transform="matrix(12,0,0,12,665,204.4)" />
<use xlink:href="#f0_1x" transform="matrix(12,0,0,12,673.4,204.4)" />
<use xlink:href="#f0_2g" transform="matrix(12,0,0,12,681.1,204.4)" />
<use xlink:href="#f0_25" transform="matrix(12,0,0,12,686.2,204.4)" />
<use xlink:href="#f0_2a" transform="matrix(12,0,0,12,690.3,204.4)" />
<use xlink:href="#f0_23" transform="matrix(12,0,0,12,698.8,204.4)" />
<use xlink:href="#f0_2i" transform="matrix(12,0,0,12,710.5,204.4)" />
<use xlink:href="#f0_2b" transform="matrix(12,0,0,12,719,204.4)" />
<use xlink:href="#f0_28" transform="matrix(12,0,0,12,728.1,204.4)" />
<use xlink:href="#f0_2g" transform="matrix(12,0,0,12,732.2,204.4)" />
<use xlink:href="#f0_1x" transform="matrix(12,0,0,12,737.3,204.4)" />
<use xlink:href="#f0_23" transform="matrix(12,0,0,12,745,204.4)" />
<use xlink:href="#f0_21" transform="matrix(12,0,0,12,753.8,204.4)" />
<use xlink:href="#f0_1x" transform="matrix(12,0,0,12,764.2,204.4)" />
<use xlink:href="#f0_2a" transform="matrix(12,0,0,12,771.9,204.4)" />
<use xlink:href="#f0_20" transform="matrix(12,0,0,12,778.8,204.4)" />
<use xlink:href="#f0_1z" transform="matrix(12,0,0,12,790.9,204.4)" />
<use xlink:href="#f0_2h" transform="matrix(12,0,0,12,798.7,204.4)" />
<use xlink:href="#f0_2e" transform="matrix(12,0,0,12,807.5,204.4)" />
<use xlink:href="#f0_2e" transform="matrix(12,0,0,12,813,204.4)" />
<use xlink:href="#f0_21" transform="matrix(12,0,0,12,818.9,204.4)" />
<use xlink:href="#f0_2a" transform="matrix(12,0,0,12,826.6,204.4)" />
<use xlink:href="#f0_2g" transform="matrix(12,0,0,12,835,204.4)" />
<use xlink:href="#f0_i" transform="matrix(12,0,0,12,840.2,204.4)" />
</g>
<image preserveAspectRatio="none" x="119" y="220" width="684" height="394" xlink:href="img/1.png" />
<g fill="#000000" >
<use xlink:href="#f0_c" transform="matrix(12,0,0,12,117,685.8)" />
<use xlink:href="#f0_1y" transform="matrix(12,0,0,12,122.9,685.8)" />
<use xlink:href="#f0_d" transform="matrix(12,0,0,12,131.3,685.8)" />
<use xlink:href="#f0_11" transform="matrix(12,0,0,12,155.8,685.8)" />
<use xlink:href="#f0_2a" transform="matrix(12,0,0,12,168.7,685.8)" />
<use xlink:href="#f0_1x" transform="matrix(12,0,0,12,180.8,685.8)" />
<use xlink:href="#f0_21" transform="matrix(12,0,0,12,188.9,685.8)" />
<use xlink:href="#f0_2e" transform="matrix(12,0,0,12,197,685.8)" />
<use xlink:href="#f0_2b" transform="matrix(12,0,0,12,203.2,685.8)" />
<use xlink:href="#f0_2c" transform="matrix(12,0,0,12,212.7,685.8)" />
<use xlink:href="#f0_28" transform="matrix(12,0,0,12,221.9,685.8)" />
<use xlink:href="#f0_1x" transform="matrix(12,0,0,12,226,685.8)" />
<use xlink:href="#f0_2a" transform="matrix(12,0,0,12,234,685.8)" />
<use xlink:href="#f0_21" transform="matrix(12,0,0,12,242.9,685.8)" />
<use xlink:href="#f0_25" transform="matrix(12,0,0,12,254.3,685.8)" />
<use xlink:href="#f0_2f" transform="matrix(12,0,0,12,258.7,685.8)" />
<use xlink:href="#f0_22" transform="matrix(12,0,0,12,269,685.8)" />
<use xlink:href="#f0_28" transform="matrix(12,0,0,12,274.5,685.8)" />
<use xlink:href="#f0_2l" transform="matrix(12,0,0,12,278.9,685.8)" />
<use xlink:href="#f0_25" transform="matrix(12,0,0,12,287.4,685.8)" />
<use xlink:href="#f0_2a" transform="matrix(12,0,0,12,291.8,685.8)" />
<use xlink:href="#f0_23" transform="matrix(12,0,0,12,300.2,685.8)" />
<use xlink:href="#f0_24" transform="matrix(12,0,0,12,313.1,685.8)" />
<use xlink:href="#f0_2b" transform="matrix(12,0,0,12,321.9,685.8)" />
<use xlink:href="#f0_2e" transform="matrix(12,0,0,12,331.4,685.8)" />
<use xlink:href="#f0_25" transform="matrix(12,0,0,12,337.3,685.8)" />
<use xlink:href="#f0_2m" transform="matrix(12,0,0,12,341.7,685.8)" />
<use xlink:href="#f0_2b" transform="matrix(12,0,0,12,349.8,685.8)" />
<use xlink:href="#f0_2a" transform="matrix(12,0,0,12,359.3,685.8)" />
<use xlink:href="#f0_2g" transform="matrix(12,0,0,12,368.2,685.8)" />
<use xlink:href="#f0_1x" transform="matrix(12,0,0,12,373.7,685.8)" />
<use xlink:href="#f0_28" transform="matrix(12,0,0,12,381.4,685.8)" />
<use xlink:href="#f0_28" transform="matrix(12,0,0,12,385.8,685.8)" />
<use xlink:href="#f0_2l" transform="matrix(12,0,0,12,390.2,685.8)" />
<use xlink:href="#f0_22" transform="matrix(12,0,0,12,402.3,685.8)" />
<use xlink:href="#f0_2e" transform="matrix(12,0,0,12,407.9,685.8)" />
<use xlink:href="#f0_2b" transform="matrix(12,0,0,12,413.7,685.8)" />
<use xlink:href="#f0_29" transform="matrix(12,0,0,12,423.3,685.8)" />
<use xlink:href="#f0_2j" transform="matrix(12,0,0,12,440.2,685.8)" />
<use xlink:href="#f0_21" transform="matrix(12,0,0,12,453.4,685.8)" />
<use xlink:href="#f0_2f" transform="matrix(12,0,0,12,461.5,685.8)" />
<use xlink:href="#f0_2g" transform="matrix(12,0,0,12,468.1,685.8)" />
<use xlink:href="#f0_2g" transform="matrix(12,0,0,12,477.3,685.8)" />
<use xlink:href="#f0_2b" transform="matrix(12,0,0,12,482.8,685.8)" />
<use xlink:href="#f0_21" transform="matrix(12,0,0,12,495.6,685.8)" />
<use xlink:href="#f0_1x" transform="matrix(12,0,0,12,503.7,685.8)" />
<use xlink:href="#f0_2f" transform="matrix(12,0,0,12,511.8,685.8)" />
<use xlink:href="#f0_2g" transform="matrix(12,0,0,12,518.8,685.8)" />
<use xlink:href="#f0_2j" transform="matrix(12,0,0,12,528,685.8)" />
<use xlink:href="#f0_25" transform="matrix(12,0,0,12,540.8,685.8)" />
<use xlink:href="#f0_2g" transform="matrix(12,0,0,12,545.2,685.8)" />
<use xlink:href="#f0_24" transform="matrix(12,0,0,12,550.7,685.8)" />
<use xlink:href="#f0_1x" transform="matrix(12,0,0,12,562.9,685.8)" />
<use xlink:href="#f0_2i" transform="matrix(12,0,0,12,574.3,685.8)" />
<use xlink:href="#f0_21" transform="matrix(12,0,0,12,583.1,685.8)" />
<use xlink:href="#f0_28" transform="matrix(12,0,0,12,591.2,685.8)" />
<use xlink:href="#f0_2b" transform="matrix(12,0,0,12,595.6,685.8)" />
<use xlink:href="#f0_1z" transform="matrix(12,0,0,12,605.1,685.8)" />
<use xlink:href="#f0_25" transform="matrix(12,0,0,12,613.2,685.8)" />
<use xlink:href="#f0_2g" transform="matrix(12,0,0,12,617.2,685.8)" />
<use xlink:href="#f0_2l" transform="matrix(12,0,0,12,622.7,685.8)" />
<use xlink:href="#f0_2b" transform="matrix(12,0,0,12,634.9,685.8)" />
<use xlink:href="#f0_22" transform="matrix(12,0,0,12,644.4,685.8)" />
<use xlink:href="#f0_t" transform="matrix(12,0,0,12,653.2,685.8)" />
<use xlink:href="#f0_k" transform="matrix(12,0,0,12,662.4,685.8)" />
<use xlink:href="#f0_k" transform="matrix(12,0,0,12,671.6,685.8)" />
<use xlink:href="#f0_27" transform="matrix(12,0,0,12,684.1,685.8)" />
<use xlink:href="#f0_29" transform="matrix(12,0,0,12,692.9,685.8)" />
<use xlink:href="#f0_j" transform="matrix(12,0,0,12,706.5,685.8)" />
<use xlink:href="#f0_24" transform="matrix(12,0,0,12,711.6,685.8)" />
<use xlink:href="#f0_2b" transform="matrix(12,0,0,12,720.4,685.8)" />
<use xlink:href="#f0_2h" transform="matrix(12,0,0,12,729.9,685.8)" />
<use xlink:href="#f0_2e" transform="matrix(12,0,0,12,739.1,685.8)" />
<use xlink:href="#f0_i" transform="matrix(12,0,0,12,743.9,685.8)" />
<use xlink:href="#f0_13" transform="matrix(12,0,0,12,752.3,685.8)" />
<use xlink:href="#f0_1x" transform="matrix(12,0,0,12,764.5,685.8)" />
<use xlink:href="#f0_28" transform="matrix(12,0,0,12,772.5,685.8)" />
<use xlink:href="#f0_1z" transform="matrix(12,0,0,12,777,685.8)" />
<use xlink:href="#f0_2h" transform="matrix(12,0,0,12,784.7,685.8)" />
<use xlink:href="#f0_28" transform="matrix(12,0,0,12,793.8,685.8)" />
<use xlink:href="#f0_1x" transform="matrix(12,0,0,12,798.3,685.8)" />
<use xlink:href="#f0_2g" transform="matrix(12,0,0,12,806.3,685.8)" />
<use xlink:href="#f0_21" transform="matrix(12,0,0,12,811.8,685.8)" />
<use xlink:href="#f0_2g" transform="matrix(12,0,0,12,823.2,685.8)" />
<use xlink:href="#f0_24" transform="matrix(12,0,0,12,828.7,685.8)" />
<use xlink:href="#f0_21" transform="matrix(12,0,0,12,837.6,685.8)" />
<use xlink:href="#f0_2c" transform="matrix(12,0,0,12,155.8,710)" />
<use xlink:href="#f0_2b" transform="matrix(12,0,0,12,165,710)" />
<use xlink:href="#f0_2g" transform="matrix(12,0,0,12,174.2,710)" />
<use xlink:href="#f0_21" transform="matrix(12,0,0,12,179.7,710)" />
<use xlink:href="#f0_2a" transform="matrix(12,0,0,12,187.7,710)" />
<use xlink:href="#f0_2g" transform="matrix(12,0,0,12,196.2,710)" />
<use xlink:href="#f0_25" transform="matrix(12,0,0,12,201.7,710)" />
<use xlink:href="#f0_1x" transform="matrix(12,0,0,12,206.1,710)" />
<use xlink:href="#f0_28" transform="matrix(12,0,0,12,214.2,710)" />
<use xlink:href="#f0_20" transform="matrix(12,0,0,12,221.9,710)" />
<use xlink:href="#f0_25" transform="matrix(12,0,0,12,231.1,710)" />
<use xlink:href="#f0_22" transform="matrix(12,0,0,12,235.1,710)" />
<use xlink:href="#f0_22" transform="matrix(12,0,0,12,240.7,710)" />
<use xlink:href="#f0_21" transform="matrix(12,0,0,12,246.2,710)" />
<use xlink:href="#f0_2e" transform="matrix(12,0,0,12,253.9,710)" />
<use xlink:href="#f0_21" transform="matrix(12,0,0,12,260.1,710)" />
<use xlink:href="#f0_2a" transform="matrix(12,0,0,12,268.2,710)" />
<use xlink:href="#f0_1z" transform="matrix(12,0,0,12,276.7,710)" />
<use xlink:href="#f0_21" transform="matrix(12,0,0,12,284.7,710)" />
<use xlink:href="#f0_20" transform="matrix(12,0,0,12,296.1,710)" />
<use xlink:href="#f0_21" transform="matrix(12,0,0,12,305,710)" />
<use xlink:href="#f0_2i" transform="matrix(12,0,0,12,313,710)" />
<use xlink:href="#f0_21" transform="matrix(12,0,0,12,321.9,710)" />
<use xlink:href="#f0_28" transform="matrix(12,0,0,12,329.6,710)" />
<use xlink:href="#f0_2b" transform="matrix(12,0,0,12,334,710)" />
<use xlink:href="#f0_2c" transform="matrix(12,0,0,12,343.5,710)" />
<use xlink:href="#f0_21" transform="matrix(12,0,0,12,352.3,710)" />
<use xlink:href="#f0_20" transform="matrix(12,0,0,12,360.4,710)" />
<use xlink:href="#f0_1y" transform="matrix(12,0,0,12,372.9,710)" />
<use xlink:href="#f0_21" transform="matrix(12,0,0,12,381.7,710)" />
<use xlink:href="#f0_2g" transform="matrix(12,0,0,12,389.8,710)" />
<use xlink:href="#f0_2j" transform="matrix(12,0,0,12,394.9,710)" />
<use xlink:href="#f0_21" transform="matrix(12,0,0,12,408.2,710)" />
<use xlink:href="#f0_21" transform="matrix(12,0,0,12,416.2,710)" />
<use xlink:href="#f0_2a" transform="matrix(12,0,0,12,424.3,710)" />
<use xlink:href="#f0_2g" transform="matrix(12,0,0,12,436.5,710)" />
<use xlink:href="#f0_24" transform="matrix(12,0,0,12,442,710)" />
<use xlink:href="#f0_21" transform="matrix(12,0,0,12,450.4,710)" />
<use xlink:href="#f0_21" transform="matrix(12,0,0,12,462.2,710)" />
<use xlink:href="#f0_2a" transform="matrix(12,0,0,12,469.9,710)" />
<use xlink:href="#f0_20" transform="matrix(12,0,0,12,478.7,710)" />
<use xlink:href="#f0_2f" transform="matrix(12,0,0,12,487.9,710)" />
<use xlink:href="#f0_2b" transform="matrix(12,0,0,12,497.8,710)" />
<use xlink:href="#f0_22" transform="matrix(12,0,0,12,507.3,710)" />
<use xlink:href="#f0_25" transform="matrix(12,0,0,12,516.2,710)" />
<use xlink:href="#f0_2g" transform="matrix(12,0,0,12,520.6,710)" />
<use xlink:href="#f0_2f" transform="matrix(12,0,0,12,526.1,710)" />
<use xlink:href="#f0_2j" transform="matrix(12,0,0,12,536.4,710)" />
<use xlink:href="#f0_25" transform="matrix(12,0,0,12,549.6,710)" />
<use xlink:href="#f0_2a" transform="matrix(12,0,0,12,553.7,710)" />
<use xlink:href="#f0_23" transform="matrix(12,0,0,12,562.5,710)" />
<use xlink:href="#f0_2f" transform="matrix(12,0,0,12,571.6,710)" />
<use xlink:href="#f0_24" transform="matrix(12,0,0,12,581.9,710)" />
<use xlink:href="#f0_1x" transform="matrix(12,0,0,12,590.8,710)" />
<use xlink:href="#f0_2i" transform="matrix(12,0,0,12,598.8,710)" />
<use xlink:href="#f0_25" transform="matrix(12,0,0,12,607.3,710)" />
<use xlink:href="#f0_2a" transform="matrix(12,0,0,12,611.7,710)" />
<use xlink:href="#f0_23" transform="matrix(12,0,0,12,620.5,710)" />
<use xlink:href="#f0_1x" transform="matrix(12,0,0,12,632.7,710)" />
<use xlink:href="#f0_2f" transform="matrix(12,0,0,12,644.1,710)" />
<use xlink:href="#f0_2c" transform="matrix(12,0,0,12,651,710)" />
<use xlink:href="#f0_1x" transform="matrix(12,0,0,12,660.2,710)" />
<use xlink:href="#f0_2a" transform="matrix(12,0,0,12,667.9,710)" />
<use xlink:href="#f0_2b" transform="matrix(12,0,0,12,680.4,710)" />
<use xlink:href="#f0_22" transform="matrix(12,0,0,12,689.6,710)" />
<use xlink:href="#f0_m" transform="matrix(12,0,0,12,698.8,710)" />
<use xlink:href="#f0_k" transform="matrix(12,0,0,12,708,710)" />
<use xlink:href="#f0_29" transform="matrix(12,0,0,12,720.1,710)" />
<use xlink:href="#f0_i" transform="matrix(12,0,0,12,733.7,710)" />
<use xlink:href="#f0_1k" transform="matrix(12,0,0,12,741.8,710)" />
<use xlink:href="#f0_24" transform="matrix(12,0,0,12,753.1,710)" />
<use xlink:href="#f0_21" transform="matrix(12,0,0,12,761.6,710)" />
<use xlink:href="#f0_24" transform="matrix(12,0,0,12,773.4,710)" />
<use xlink:href="#f0_2b" transform="matrix(12,0,0,12,781.8,710)" />
<use xlink:href="#f0_2e" transform="matrix(12,0,0,12,791.3,710)" />
<use xlink:href="#f0_25" transform="matrix(12,0,0,12,797.6,710)" />
<use xlink:href="#f0_2m" transform="matrix(12,0,0,12,802,710)" />
<use xlink:href="#f0_2b" transform="matrix(12,0,0,12,809.7,710)" />
<use xlink:href="#f0_2a" transform="matrix(12,0,0,12,819.2,710)" />
<use xlink:href="#f0_2g" transform="matrix(12,0,0,12,828.1,710)" />
<use xlink:href="#f0_1x" transform="matrix(12,0,0,12,833.2,710)" />
<use xlink:href="#f0_28" transform="matrix(12,0,0,12,841.3,710)" />
<use xlink:href="#f0_1z" transform="matrix(12,0,0,12,155.8,734.6)" />
<use xlink:href="#f0_2b" transform="matrix(12,0,0,12,163.9,734.6)" />
<use xlink:href="#f0_29" transform="matrix(12,0,0,12,173.1,734.6)" />
<use xlink:href="#f0_2c" transform="matrix(12,0,0,12,186.7,734.6)" />
<use xlink:href="#f0_2b" transform="matrix(12,0,0,12,195.8,734.6)" />
<use xlink:href="#f0_2a" transform="matrix(12,0,0,12,205,734.6)" />
<use xlink:href="#f0_21" transform="matrix(12,0,0,12,213.8,734.6)" />
<use xlink:href="#f0_2a" transform="matrix(12,0,0,12,221.5,734.6)" />
<use xlink:href="#f0_2g" transform="matrix(12,0,0,12,230.3,734.6)" />
<use xlink:href="#f0_2b" transform="matrix(12,0,0,12,239.2,734.6)" />
<use xlink:href="#f0_22" transform="matrix(12,0,0,12,248.7,734.6)" />
<use xlink:href="#f0_2g" transform="matrix(12,0,0,12,257.5,734.6)" />
<use xlink:href="#f0_24" transform="matrix(12,0,0,12,263,734.6)" />
<use xlink:href="#f0_21" transform="matrix(12,0,0,12,271.5,734.6)" />
<use xlink:href="#f0_15" transform="matrix(12,0,0,12,282.9,734.6)" />
<use xlink:href="#f0_1x" transform="matrix(12,0,0,12,293.9,734.6)" />
<use xlink:href="#f0_2e" transform="matrix(12,0,0,12,302,734.6)" />
<use xlink:href="#f0_2g" transform="matrix(12,0,0,12,308.2,734.6)" />
<use xlink:href="#f0_24" transform="matrix(12,0,0,12,313.3,734.6)" />
<use xlink:href="#f0_53" transform="matrix(12,0,0,12,322.2,734.6)" />
<use xlink:href="#f0_2f" transform="matrix(12,0,0,12,326.9,734.6)" />
<use xlink:href="#f0_29" transform="matrix(12,0,0,12,337.2,734.6)" />
<use xlink:href="#f0_1x" transform="matrix(12,0,0,12,350.5,734.6)" />
<use xlink:href="#f0_23" transform="matrix(12,0,0,12,358.5,734.6)" />
<use xlink:href="#f0_2a" transform="matrix(12,0,0,12,367.7,734.6)" />
<use xlink:href="#f0_21" transform="matrix(12,0,0,12,376.2,734.6)" />
<use xlink:href="#f0_2g" transform="matrix(12,0,0,12,384.2,734.6)" />
<use xlink:href="#f0_25" transform="matrix(12,0,0,12,389.7,734.6)" />
<use xlink:href="#f0_1z" transform="matrix(12,0,0,12,393.8,734.6)" />
<use xlink:href="#f0_22" transform="matrix(12,0,0,12,405.6,734.6)" />
<use xlink:href="#f0_25" transform="matrix(12,0,0,12,410.7,734.6)" />
<use xlink:href="#f0_21" transform="matrix(12,0,0,12,415.1,734.6)" />
<use xlink:href="#f0_28" transform="matrix(12,0,0,12,422.8,734.6)" />
<use xlink:href="#f0_20" transform="matrix(12,0,0,12,427.3,734.6)" />
<use xlink:href="#f0_25" transform="matrix(12,0,0,12,439.7,734.6)" />
<use xlink:href="#f0_2f" transform="matrix(12,0,0,12,444.2,734.6)" />
<use xlink:href="#f0_p" transform="matrix(12,0,0,12,454.1,734.6)" />
<use xlink:href="#f0_6n" transform="matrix(12,0,0,12,466.6,734.6)" />
<use xlink:href="#f0_l" transform="matrix(12,0,0,12,480.5,734.6)" />
<use xlink:href="#f0_k" transform="matrix(12,0,0,12,489.4,734.6)" />
<use xlink:href="#f0_4y" transform="matrix(7,0,0,7,497.9,728.3)" />
<use xlink:href="#f0_o" transform="matrix(7,0,0,7,503.1,728.3)" />
<use xlink:href="#f0_1k" transform="matrix(12,0,0,12,511.5,734.6)" />
<use xlink:href="#f0_1x" transform="matrix(12,0,0,12,525.5,734.6)" />
<use xlink:href="#f0_2a" transform="matrix(12,0,0,12,533.2,734.6)" />
<use xlink:href="#f0_20" transform="matrix(12,0,0,12,542,734.6)" />
<use xlink:href="#f0_2g" transform="matrix(12,0,0,12,554.5,734.6)" />
<use xlink:href="#f0_24" transform="matrix(12,0,0,12,560,734.6)" />
<use xlink:href="#f0_21" transform="matrix(12,0,0,12,568.4,734.6)" />
<use xlink:href="#f0_1x" transform="matrix(12,0,0,12,580.2,734.6)" />
<use xlink:href="#f0_2a" transform="matrix(12,0,0,12,587.9,734.6)" />
<use xlink:href="#f0_23" transform="matrix(12,0,0,12,596.8,734.6)" />
<use xlink:href="#f0_28" transform="matrix(12,0,0,12,605.6,734.6)" />
<use xlink:href="#f0_21" transform="matrix(12,0,0,12,610,734.6)" />
<use xlink:href="#f0_2b" transform="matrix(12,0,0,12,621.4,734.6)" />
<use xlink:href="#f0_22" transform="matrix(12,0,0,12,630.9,734.6)" />
<use xlink:href="#f0_20" transform="matrix(12,0,0,12,639.4,734.6)" />
<use xlink:href="#f0_25" transform="matrix(12,0,0,12,648.6,734.6)" />
<use xlink:href="#f0_2c" transform="matrix(12,0,0,12,652.6,734.6)" />
<use xlink:href="#f0_25" transform="matrix(12,0,0,12,665.1,734.6)" />
<use xlink:href="#f0_2f" transform="matrix(12,0,0,12,669.5,734.6)" />
<use xlink:href="#f0_n" transform="matrix(12,0,0,12,679.8,734.6)" />
<use xlink:href="#f0_k" transform="matrix(12,0,0,12,689,734.6)" />
<use xlink:href="#f0_3o" transform="matrix(12,0,0,12,697.8,734.6)" />
<use xlink:href="#f0_i" transform="matrix(12,0,0,12,704.8,734.6)" />
<use xlink:href="#f0_11" transform="matrix(12,0,0,12,64.9,783.3)" />
<use xlink:href="#f0_2a" transform="matrix(12,0,0,12,77.4,783.3)" />
<use xlink:href="#f0_2f" transform="matrix(12,0,0,12,85.8,783.3)" />
<use xlink:href="#f0_i" transform="matrix(12,0,0,12,92.4,783.3)" />
</g>
<g clip-path="url(#c10_21)">
<g fill="#000000" >
<use xlink:href="#f0_76" transform="matrix(10.6,0,0,10.6,205.7,783.3)" />
<use xlink:href="#f0_76" transform="matrix(10.6,0,0,10.6,225.1,783.3)" />
</g>
</g>
<g fill="#000000" >
<use xlink:href="#f1_1m" transform="matrix(6.1,0,0,6.1,195.1,787.4)" />
</g>
<g clip-path="url(#c11_21)">
<g fill="#000000" >
<use xlink:href="#f1_21" transform="matrix(10.6,0,0,10.6,158.4,783.3)" />
<use xlink:href="#f1_12" transform="matrix(10.6,0,0,10.6,185.5,783.3)" />
<use xlink:href="#f1_1m" transform="matrix(10.6,0,0,10.6,210.5,783.3)" />
<use xlink:href="#f1_28" transform="matrix(10.6,0,0,10.6,231,783.3)" />
</g>
</g>
<g fill="#000000" >
<use xlink:href="#f3_x" transform="matrix(10.6,0,0,10.6,170.5,783.3)" />
</g>
<path d="M409,776.4h17.8" class="g2_21" />
<g fill="#000000" >
<use xlink:href="#f0_o" transform="matrix(6.9,0,0,6.9,301.8,772.7)" />
<use xlink:href="#f0_p" transform="matrix(11.9,0,0,11.9,413.6,769.4)" />
</g>
<g clip-path="url(#c12_21)">
<g fill="#000000" >
<use xlink:href="#f0_p" transform="matrix(11.9,0,0,11.9,255.9,780.8)" />
<use xlink:href="#f0_l" transform="matrix(11.9,0,0,11.9,277.2,780.8)" />
<use xlink:href="#f0_k" transform="matrix(11.9,0,0,11.9,286.3,780.8)" />
<use xlink:href="#f0_2f" transform="matrix(11.9,0,0,11.9,310.9,780.8)" />
<use xlink:href="#f0_25" transform="matrix(11.9,0,0,11.9,317.9,780.8)" />
<use xlink:href="#f0_2a" transform="matrix(11.9,0,0,11.9,323,780.8)" />
<use xlink:href="#f0_n" transform="matrix(11.9,0,0,11.9,334.7,780.8)" />
<use xlink:href="#f0_k" transform="matrix(11.9,0,0,11.9,343.9,780.8)" />
<use xlink:href="#f0_t" transform="matrix(11.9,0,0,11.9,367,780.8)" />
<use xlink:href="#f0_k" transform="matrix(11.9,0,0,11.9,376.1,780.8)" />
<use xlink:href="#f0_k" transform="matrix(11.9,0,0,11.9,385.3,780.8)" />
<use xlink:href="#f0_m" transform="matrix(11.9,0,0,11.9,441.7,780.8)" />
<use xlink:href="#f0_k" transform="matrix(11.9,0,0,11.9,450.9,780.8)" />
<use xlink:href="#f0_l" transform="matrix(11.9,0,0,11.9,476.5,780.8)" />
<use xlink:href="#f0_i" transform="matrix(11.9,0,0,11.9,485.7,780.8)" />
<use xlink:href="#f0_m" transform="matrix(11.9,0,0,11.9,490.1,780.8)" />
<use xlink:href="#f0_p" transform="matrix(11.9,0,0,11.9,499.2,780.8)" />
</g>
</g>
<g clip-path="url(#c13_21)">
<g fill="#000000" >
<use xlink:href="#f0_l" transform="matrix(11.9,0,0,11.9,408.1,795.1)" />
<use xlink:href="#f0_s" transform="matrix(11.9,0,0,11.9,417.3,795.1)" />
</g>
</g>
<g clip-path="url(#c14_21)">
<g fill="#000000" >
<use xlink:href="#f1_1m" transform="matrix(11.9,0,0,11.9,507.1,780.8)" />
</g>
</g>
<g fill="#000000" >
<use xlink:href="#f3_h" transform="matrix(6.9,0,0,6.9,295.9,772.7)" />
<use xlink:href="#f3_x" transform="matrix(11.9,0,0,11.9,242.4,780.8)" />
<use xlink:href="#f3_3a" transform="matrix(11.9,0,0,11.9,266.6,780.8)" />
<use xlink:href="#f3_3a" transform="matrix(11.9,0,0,11.9,354.9,780.8)" />
<use xlink:href="#f3_3a" transform="matrix(11.9,0,0,11.9,396,780.8)" />
<use xlink:href="#f3_3a" transform="matrix(11.9,0,0,11.9,429.3,780.8)" />
<use xlink:href="#f3_x" transform="matrix(11.9,0,0,11.9,464.1,780.8)" />
<use xlink:href="#f4_c" transform="matrix(12,0,0,12,435.2,901.8)" />
<use xlink:href="#f4_1f" transform="matrix(12,0,0,12,441.1,901.8)" />
<use xlink:href="#f4_1i" transform="matrix(12,0,0,12,455.1,901.8)" />
<use xlink:href="#f4_d" transform="matrix(12,0,0,12,467.9,901.8)" />
<use xlink:href="#f0_11" transform="matrix(12,0,0,12,117,935.9)" />
<use xlink:href="#f0_20" transform="matrix(12,0,0,12,133.5,935.9)" />
<use xlink:href="#f0_21" transform="matrix(12,0,0,12,142.3,935.9)" />
<use xlink:href="#f0_2i" transform="matrix(12,0,0,12,150.4,935.9)" />
<use xlink:href="#f0_25" transform="matrix(12,0,0,12,159.2,935.9)" />
<use xlink:href="#f0_1z" transform="matrix(12,0,0,12,163.6,935.9)" />
<use xlink:href="#f0_21" transform="matrix(12,0,0,12,171.3,935.9)" />
<use xlink:href="#f0_1o" transform="matrix(12,0,0,12,182.7,935.9)" />
<use xlink:href="#f0_25" transform="matrix(12,0,0,12,199.6,935.9)" />
<use xlink:href="#f0_2f" transform="matrix(12,0,0,12,203.7,935.9)" />
<use xlink:href="#f0_1z" transform="matrix(12,0,0,12,214.4,935.9)" />
<use xlink:href="#f0_2b" transform="matrix(12,0,0,12,222.4,935.9)" />
<use xlink:href="#f0_2a" transform="matrix(12,0,0,12,232,935.9)" />
<use xlink:href="#f0_2a" transform="matrix(12,0,0,12,240.4,935.9)" />
<use xlink:href="#f0_21" transform="matrix(12,0,0,12,249.2,935.9)" />
<use xlink:href="#f0_1z" transform="matrix(12,0,0,12,257.3,935.9)" />
<use xlink:href="#f0_2g" transform="matrix(12,0,0,12,265.4,935.9)" />
<use xlink:href="#f0_21" transform="matrix(12,0,0,12,270.5,935.9)" />
<use xlink:href="#f0_20" transform="matrix(12,0,0,12,278.6,935.9)" />
<use xlink:href="#f0_1x" transform="matrix(12,0,0,12,291.5,935.9)" />
<use xlink:href="#f0_1z" transform="matrix(12,0,0,12,299.5,935.9)" />
<use xlink:href="#f0_2e" transform="matrix(12,0,0,12,307.3,935.9)" />
<use xlink:href="#f0_2b" transform="matrix(12,0,0,12,313.5,935.9)" />
<use xlink:href="#f0_2f" transform="matrix(12,0,0,12,323,935.9)" />
<use xlink:href="#f0_2f" transform="matrix(12,0,0,12,330,935.9)" />
<use xlink:href="#f0_1x" transform="matrix(12,0,0,12,339.9,935.9)" />
<use xlink:href="#f0_2a" transform="matrix(12,0,0,12,348,935.9)" />
<use xlink:href="#f0_1x" transform="matrix(12,0,0,12,360.5,935.9)" />
<use xlink:href="#f0_1z" transform="matrix(12,0,0,12,368.2,935.9)" />
<use xlink:href="#f0_2f" transform="matrix(12,0,0,12,380,935.9)" />
<use xlink:href="#f0_2b" transform="matrix(12,0,0,12,387,935.9)" />
<use xlink:href="#f0_2h" transform="matrix(12,0,0,12,396.2,935.9)" />
<use xlink:href="#f0_2e" transform="matrix(12,0,0,12,405.3,935.9)" />
<use xlink:href="#f0_1z" transform="matrix(12,0,0,12,411.6,935.9)" />
<use xlink:href="#f0_21" transform="matrix(12,0,0,12,419.6,935.9)" />
<use xlink:href="#f0_2b" transform="matrix(12,0,0,12,431,935.9)" />
<use xlink:href="#f0_22" transform="matrix(12,0,0,12,440.6,935.9)" />
<use xlink:href="#f0_2i" transform="matrix(12,0,0,12,449.4,935.9)" />
<use xlink:href="#f0_2b" transform="matrix(12,0,0,12,458.2,935.9)" />
<use xlink:href="#f0_28" transform="matrix(12,0,0,12,467.4,935.9)" />
<use xlink:href="#f0_2g" transform="matrix(12,0,0,12,471.8,935.9)" />
<use xlink:href="#f0_1x" transform="matrix(12,0,0,12,477.3,935.9)" />
<use xlink:href="#f0_23" transform="matrix(12,0,0,12,485.4,935.9)" />
<use xlink:href="#f0_21" transform="matrix(12,0,0,12,494.2,935.9)" />
<use xlink:href="#f0_k" transform="matrix(6.9,0,0,6.9,547.4,940.6)" />
</g>
<g clip-path="url(#c15_21)">
<g fill="#000000" >
<use xlink:href="#f0_2f" transform="matrix(12,0,0,12,556.2,935.9)" />
<use xlink:href="#f0_25" transform="matrix(12,0,0,12,563.6,935.9)" />
<use xlink:href="#f0_2a" transform="matrix(12,0,0,12,568.7,935.9)" />
</g>
</g>
<g clip-path="url(#c16_21)">
<g fill="#000000" >
<use xlink:href="#f1_1m" transform="matrix(12,0,0,12,506.4,935.9)" />
<use xlink:href="#f1_1m" transform="matrix(12,0,0,12,536.8,935.9)" />
<use xlink:href="#f1_2g" transform="matrix(12,0,0,12,592.9,935.9)" />
</g>
</g>
<g clip-path="url(#c17_21)">
<g fill="#000000" >
<use xlink:href="#f2_2j" transform="matrix(12,0,-3.2,12,579.7,935.9)" />
</g>
</g>
<g fill="#000000" >
<use xlink:href="#f3_x" transform="matrix(12,0,0,12,524.3,935.9)" />
<use xlink:href="#f0_i" transform="matrix(12,0,0,12,601.7,935.9)" />
<use xlink:href="#f0_1k" transform="matrix(12,0,0,12,610.1,935.9)" />
<use xlink:href="#f0_24" transform="matrix(12,0,0,12,621.2,935.9)" />
<use xlink:href="#f0_21" transform="matrix(12,0,0,12,630,935.9)" />
<use xlink:href="#f0_1z" transform="matrix(12,0,0,12,641.4,935.9)" />
<use xlink:href="#f0_2h" transform="matrix(12,0,0,12,649.1,935.9)" />
<use xlink:href="#f0_2e" transform="matrix(12,0,0,12,658.3,935.9)" />
<use xlink:href="#f0_2e" transform="matrix(12,0,0,12,664.5,935.9)" />
<use xlink:href="#f0_21" transform="matrix(12,0,0,12,670.7,935.9)" />
<use xlink:href="#f0_2a" transform="matrix(12,0,0,12,678.4,935.9)" />
<use xlink:href="#f0_2g" transform="matrix(12,0,0,12,687.3,935.9)" />
<use xlink:href="#f0_2g" transform="matrix(12,0,0,12,696.4,935.9)" />
<use xlink:href="#f0_24" transform="matrix(12,0,0,12,701.6,935.9)" />
<use xlink:href="#f0_2e" transform="matrix(12,0,0,12,710.4,935.9)" />
<use xlink:href="#f0_2b" transform="matrix(12,0,0,12,716.6,935.9)" />
<use xlink:href="#f0_2h" transform="matrix(12,0,0,12,726.2,935.9)" />
<use xlink:href="#f0_23" transform="matrix(12,0,0,12,735.3,935.9)" />
<use xlink:href="#f0_24" transform="matrix(12,0,0,12,744.1,935.9)" />
<use xlink:href="#f0_1o" transform="matrix(12,0,0,12,756.6,935.9)" />
<use xlink:href="#f0_25" transform="matrix(12,0,0,12,773.2,935.9)" />
<use xlink:href="#f0_2f" transform="matrix(12,0,0,12,777.6,935.9)" />
<use xlink:href="#f0_23" transform="matrix(12,0,0,12,787.9,935.9)" />
<use xlink:href="#f0_25" transform="matrix(12,0,0,12,796.7,935.9)" />
<use xlink:href="#f0_2i" transform="matrix(12,0,0,12,801.1,935.9)" />
<use xlink:href="#f0_21" transform="matrix(12,0,0,12,809.9,935.9)" />
<use xlink:href="#f0_2a" transform="matrix(12,0,0,12,818,935.9)" />
<use xlink:href="#f0_1x" transform="matrix(12,0,0,12,830.2,935.9)" />
<use xlink:href="#f0_2f" transform="matrix(12,0,0,12,838.2,935.9)" />
</g>
<path d="M232.1,978.6h13.5" class="g3_21" />
<g fill="#000000" >
<use xlink:href="#f0_k" transform="matrix(6.9,0,0,6.9,154.7,987.6)" />
<use xlink:href="#f0_2f" transform="matrix(11.9,0,0,11.9,163.5,983.2)" />
<use xlink:href="#f0_25" transform="matrix(11.9,0,0,11.9,170.8,983.2)" />
<use xlink:href="#f0_2a" transform="matrix(11.9,0,0,11.9,176,983.2)" />
</g>
<g clip-path="url(#c18_21)">
<g fill="#000000" >
<use xlink:href="#f0_m" transform="matrix(11.9,0,0,11.9,234.7,997.5)" />
</g>
</g>
<g fill="#000000" >
<use xlink:href="#f1_19" transform="matrix(11.9,0,0,11.9,120.3,983.2)" />
<use xlink:href="#f1_19" transform="matrix(11.9,0,0,11.9,147.8,983.2)" />
<use xlink:href="#f1_2g" transform="matrix(11.9,0,0,11.9,209,983.2)" />
</g>
<g clip-path="url(#c19_21)">
<g fill="#000000" >
<use xlink:href="#f2_2c" transform="matrix(11.9,0,-3.2,11.9,232.1,971.8)" />
</g>
</g>
<g fill="#000000" >
<use xlink:href="#f2_2j" transform="matrix(11.9,0,-3.2,11.9,196.2,983.2)" />
</g>
<g clip-path="url(#c20_21)">
<g fill="#000000" >
<use xlink:href="#f3_4o" transform="matrix(11.9,0,0,11.9,187.7,972.9)" />
<use xlink:href="#f3_54" transform="matrix(11.9,0,0,11.9,248.2,972.9)" />
</g>
</g>
<g fill="#000000" >
<use xlink:href="#f3_x" transform="matrix(11.9,0,0,11.9,132.7,983.2)" />
<use xlink:href="#f3_f" transform="matrix(11.9,0,0,11.9,218.1,983.2)" />
</g>
<g clip-path="url(#c21_21)">
<g fill="#000000" >
<use xlink:href="#f3_4p" transform="matrix(11.9,0,0,11.9,187.7,987.9)" />
<use xlink:href="#f3_55" transform="matrix(11.9,0,0,11.9,248.2,987.9)" />
</g>
</g>
<g clip-path="url(#c22_21)">
<g fill="#000000" >
<use xlink:href="#f3_4q" transform="matrix(11.9,0,0,11.9,187.7,999.7)" />
<use xlink:href="#f3_56" transform="matrix(11.9,0,0,11.9,248.2,999.7)" />
</g>
</g>
<g fill="#000000" >
<use xlink:href="#f0_c" transform="matrix(12,0,0,12,117,1030.1)" />
<use xlink:href="#f0_1x" transform="matrix(12,0,0,12,122.5,1030.1)" />
<use xlink:href="#f0_d" transform="matrix(12,0,0,12,130.2,1030.1)" />
<use xlink:href="#f0_19" transform="matrix(12,0,0,12,155.8,1030.1)" />
<use xlink:href="#f0_20" transform="matrix(12,0,0,12,161.7,1030.1)" />
<use xlink:href="#f0_21" transform="matrix(12,0,0,12,170.9,1030.1)" />
<use xlink:href="#f0_2a" transform="matrix(12,0,0,12,178.6,1030.1)" />
<use xlink:href="#f0_2g" transform="matrix(12,0,0,12,187,1030.1)" />
<use xlink:href="#f0_25" transform="matrix(12,0,0,12,192.5,1030.1)" />
<use xlink:href="#f0_22" transform="matrix(12,0,0,12,196.6,1030.1)" />
<use xlink:href="#f0_2l" transform="matrix(12,0,0,12,202.1,1030.1)" />
<use xlink:href="#f0_2g" transform="matrix(12,0,0,12,213.5,1030.1)" />
<use xlink:href="#f0_24" transform="matrix(12,0,0,12,219,1030.1)" />
<use xlink:href="#f0_21" transform="matrix(12,0,0,12,227.5,1030.1)" />
<use xlink:href="#f0_20" transform="matrix(12,0,0,12,238.9,1030.1)" />
<use xlink:href="#f0_21" transform="matrix(12,0,0,12,247.7,1030.1)" />
<use xlink:href="#f0_2i" transform="matrix(12,0,0,12,255.8,1030.1)" />
<use xlink:href="#f0_25" transform="matrix(12,0,0,12,264.2,1030.1)" />
<use xlink:href="#f0_1z" transform="matrix(12,0,0,12,268.3,1030.1)" />
<use xlink:href="#f0_21" transform="matrix(12,0,0,12,276.4,1030.1)" />
<use xlink:href="#f0_1o" transform="matrix(12,0,0,12,287,1030.1)" />
<use xlink:href="#f0_1x" transform="matrix(12,0,0,12,303.6,1030.1)" />
<use xlink:href="#f0_2a" transform="matrix(12,0,0,12,311.6,1030.1)" />
<use xlink:href="#f0_20" transform="matrix(12,0,0,12,320.1,1030.1)" />
<use xlink:href="#f0_2j" transform="matrix(12,0,0,12,332.6,1030.1)" />
<use xlink:href="#f0_2e" transform="matrix(12,0,0,12,345.4,1030.1)" />
<use xlink:href="#f0_25" transform="matrix(12,0,0,12,351.3,1030.1)" />
<use xlink:href="#f0_2g" transform="matrix(12,0,0,12,355.7,1030.1)" />
<use xlink:href="#f0_21" transform="matrix(12,0,0,12,360.9,1030.1)" />
<use xlink:href="#f0_2g" transform="matrix(12,0,0,12,372.3,1030.1)" />
<use xlink:href="#f0_24" transform="matrix(12,0,0,12,377.4,1030.1)" />
<use xlink:href="#f0_21" transform="matrix(12,0,0,12,386.2,1030.1)" />
<use xlink:href="#f0_21" transform="matrix(12,0,0,12,397.3,1030.1)" />
<use xlink:href="#f0_2k" transform="matrix(12,0,0,12,405.3,1030.1)" />
<use xlink:href="#f0_2c" transform="matrix(12,0,0,12,413.8,1030.1)" />
<use xlink:href="#f0_2e" transform="matrix(12,0,0,12,423,1030.1)" />
<use xlink:href="#f0_21" transform="matrix(12,0,0,12,428.8,1030.1)" />
<use xlink:href="#f0_2f" transform="matrix(12,0,0,12,436.6,1030.1)" />
<use xlink:href="#f0_2f" transform="matrix(12,0,0,12,443.5,1030.1)" />
<use xlink:href="#f0_25" transform="matrix(12,0,0,12,450.2,1030.1)" />
<use xlink:href="#f0_2b" transform="matrix(12,0,0,12,454.2,1030.1)" />
<use xlink:href="#f0_2a" transform="matrix(12,0,0,12,463.7,1030.1)" />
<use xlink:href="#f0_22" transform="matrix(12,0,0,12,475.5,1030.1)" />
<use xlink:href="#f0_2b" transform="matrix(12,0,0,12,480.7,1030.1)" />
<use xlink:href="#f0_2e" transform="matrix(12,0,0,12,489.8,1030.1)" />
<use xlink:href="#f0_25" transform="matrix(12,0,0,12,499.4,1030.1)" />
<use xlink:href="#f0_2g" transform="matrix(12,0,0,12,503.4,1030.1)" />
<use xlink:href="#f0_2f" transform="matrix(12,0,0,12,508.9,1030.1)" />
<use xlink:href="#f0_2e" transform="matrix(12,0,0,12,519.2,1030.1)" />
<use xlink:href="#f0_21" transform="matrix(12,0,0,12,525.1,1030.1)" />
<use xlink:href="#f0_1x" transform="matrix(12,0,0,12,532.8,1030.1)" />
<use xlink:href="#f0_1z" transform="matrix(12,0,0,12,540.9,1030.1)" />
<use xlink:href="#f0_2g" transform="matrix(12,0,0,12,548.6,1030.1)" />
<use xlink:href="#f0_1x" transform="matrix(12,0,0,12,553.8,1030.1)" />
<use xlink:href="#f0_2a" transform="matrix(12,0,0,12,561.8,1030.1)" />
<use xlink:href="#f0_1z" transform="matrix(12,0,0,12,570.3,1030.1)" />
<use xlink:href="#f0_21" transform="matrix(12,0,0,12,578.4,1030.1)" />
<use xlink:href="#f0_i" transform="matrix(12,0,0,12,586.1,1030.1)" />
<use xlink:href="#f0_11" transform="matrix(12,0,0,12,64.9,1058.7)" />
<use xlink:href="#f0_2a" transform="matrix(12,0,0,12,77.4,1058.7)" />
<use xlink:href="#f0_2f" transform="matrix(12,0,0,12,85.8,1058.7)" />
<use xlink:href="#f0_i" transform="matrix(12,0,0,12,92.4,1058.7)" />
<use xlink:href="#f0_1o" transform="matrix(12,0,0,12,155.8,1058.7)" />
<use xlink:href="#f0_h" transform="matrix(12,0,0,12,172.7,1058.7)" />
<use xlink:href="#f0_13" transform="matrix(12,0,0,12,182.6,1058.7)" />
<use xlink:href="#f0_1x" transform="matrix(12,0,0,12,194.8,1058.7)" />
<use xlink:href="#f0_2c" transform="matrix(12,0,0,12,202.5,1058.7)" />
<use xlink:href="#f0_1x" transform="matrix(12,0,0,12,211.6,1058.7)" />
<use xlink:href="#f0_1z" transform="matrix(12,0,0,12,219.7,1058.7)" />
<use xlink:href="#f0_25" transform="matrix(12,0,0,12,227.8,1058.7)" />
<use xlink:href="#f0_2g" transform="matrix(12,0,0,12,232.2,1058.7)" />
<use xlink:href="#f0_2b" transform="matrix(12,0,0,12,237.7,1058.7)" />
<use xlink:href="#f0_2e" transform="matrix(12,0,0,12,247.3,1058.7)" />
</g>
<path d="M199.3,1101.7h42.8" class="g4_21" />
<g clip-path="url(#c23_21)">
<g fill="#000000" >
<use xlink:href="#f0_l" transform="matrix(12.3,0,0,12.3,216.3,1094.6)" />
</g>
</g>
<g fill="#000000" >
<use xlink:href="#f1_1o" transform="matrix(12.3,0,0,12.3,159.9,1106.4)" />
</g>
<g clip-path="url(#c24_21)">
<g fill="#000000" >
<use xlink:href="#f1_22" transform="matrix(12.3,0,0,12.3,223.7,1121)" />
<use xlink:href="#f1_13" transform="matrix(12.3,0,0,12.3,228.8,1121)" />
</g>
</g>
<g fill="#000000" >
<use xlink:href="#f2_2c" transform="matrix(12.3,0,-3.3,12.3,208.3,1121)" />
<use xlink:href="#f3_x" transform="matrix(12.3,0,0,12.3,185.5,1106.4)" />
<use xlink:href="#f1_13" transform="matrix(7.1,0,0,7.1,172,1111.9)" />
<use xlink:href="#f0_m" transform="matrix(12.3,0,0,12.3,200.6,1121.8)" />
<use xlink:href="#f5_m" transform="matrix(8,0,0,8,785.4,1264.3)" />
<use xlink:href="#f5_l" transform="matrix(8,0,0,8,792.2,1264.3)" />
</g>
<defs>
<path d="M379,29c0,0,41,0,84,37c0,0,43,36,65,121c0,0,34,128,34,362c0,0,0,173,-35,288c0,0,-27,86,-69,122c0,0,-31,25,-74,25c0,0,-51,0,-90,-46c0,0,-54,-62,-73,-195c0,0,-20,-132,-20,-261c0,0,0,-209,52,-341c0,0,42,-112,126,-112Zm-2,-46c0,0,-145,0,-241,170c0,0,-81,144,-81,347c0,0,0,173,52,298c0,0,52,125,139,186c0,0,67,49,139,49c0,0,116,0,208,-119c0,0,116,-147,116,-398c0,0,0,-176,-51,-299C658,217,608,94,529,38c0,0,-79,-55,-152,-55Z" 
id="f0_k"
transform="scale(0.001,-0.001)" />

<path d="M312,-20c0,0,-62,0,-143,22c0,0,-25,8,-40,8c0,0,-18,0,-27,-19H77V234h25c0,0,21,-105,80,-158c0,0,59,-53,132,-53c0,0,51,0,84,31c0,0,32,30,32,72c0,0,0,52,-36,87c0,0,-36,35,-144,88c0,0,-109,54,-142,97c0,0,-34,43,-34,107c0,0,0,85,58,141c0,0,58,57,150,57c0,0,40,0,97,-17c0,0,38,-11,51,-11c0,0,12,0,19,5c0,0,7,5,15,23h25V470H464c0,0,-28,110,-72,149c0,0,-45,40,-113,40c0,0,-53,0,-85,-28c0,0,-32,-27,-32,-61c0,0,0,-41,24,-71c0,0,23,-31,94,-65L389,381c0,0,152,-74,152,-194c0,0,0,-94,-71,-151c0,0,-70,-56,-158,-56Z" 
id="f0_2f"
transform="scale(0.001,-0.001)" />

<path d="M55,0V26c0,0,50,0,67,10c0,0,17,10,27,32c0,0,10,23,10,86V418c0,0,0,111,-6,144c0,0,-6,24,-17,33c0,0,-11,10,-30,10c0,0,-21,0,-51,-11L45,620l206,83h33V154c0,0,0,-64,9,-85c0,0,9,-22,27,-32c0,0,19,-11,67,-11V0ZM222,909c0,0,-32,0,-54,23c0,0,-22,22,-22,53c0,0,0,32,22,54c0,0,22,22,54,22c0,0,31,0,53,-22c0,0,22,-22,22,-54c0,0,0,-31,-22,-53c0,0,-22,-23,-53,-23Z" 
id="f0_25"
transform="scale(0.001,-0.001)" />

<path d="M21,0V26H35c0,0,53,0,71,27c0,0,18,27,18,101V408c0,0,0,123,-5,150c0,0,-6,27,-17,37c0,0,-12,10,-31,10c0,0,-21,0,-50,-11L10,620l206,83h32V558c0,0,120,145,229,145c0,0,56,0,96,-28c0,0,40,-28,64,-92c0,0,16,-45,16,-137V154c0,0,0,-65,11,-88c0,0,8,-19,26,-29c0,0,18,-11,68,-11V0H419V26h14c0,0,47,0,66,15c0,0,20,15,27,43c0,0,3,11,3,70V434c0,0,0,93,-24,135c0,0,-24,42,-81,42c0,0,-88,0,-176,-97V154c0,0,0,-69,9,-86c0,0,10,-21,28,-31c0,0,19,-11,75,-11V0Z" 
id="f0_2a"
transform="scale(0.001,-0.001)" />

<path d="M33,0V27c0,0,264,241,371,393c0,0,108,152,108,278c0,0,0,96,-59,158c0,0,-59,62,-141,62c0,0,-75,0,-134,-43c0,0,-59,-44,-88,-128H63c0,0,18,138,95,212c0,0,77,74,193,74c0,0,123,0,205,-80c0,0,83,-79,83,-186c0,0,0,-77,-36,-154c0,0,-55,-121,-179,-256C424,357,238,154,191,112H455c0,0,81,0,114,6c0,0,32,6,58,25c0,0,27,18,46,52h27L630,0Z" 
id="f0_m"
transform="scale(0.001,-0.001)" />

<path d="M228,-17c0,0,-18,471,-75,588c0,0,-19,38,-62,38c0,0,-19,0,-53,-7l-5,27l216,46c0,0,23,-55,37,-113c0,0,20,-84,33,-199c0,0,6,-58,16,-246c0,0,94,103,111,127c0,0,99,133,114,157c0,0,24,39,34,69c0,0,8,22,8,42c0,0,0,20,-35,45c0,0,-35,25,-35,57c0,0,0,23,20,42c0,0,19,19,45,19c0,0,31,0,55,-26c0,0,24,-26,24,-64c0,0,0,-38,-12,-73c0,0,-19,-56,-72,-138c0,0,-53,-82,-171,-219c0,0,-15,-17,-166,-172Z" 
id="f1_2i"
transform="scale(0.001,-0.001)" />

<path d="M133,-17c0,0,-31,0,-50,20C83,3,63,23,63,55c0,0,0,40,25,123L228,609H104l8,30c0,0,82,23,139,67c0,0,57,44,128,154h33L351,657H456L443,609H337L203,171c0,0,-25,-75,-25,-97c0,0,0,-12,5,-19c0,0,5,-6,13,-6c0,0,16,0,44,25c0,0,15,15,71,92l24,-19C335,147,270,48,213,9c0,0,-40,-26,-80,-26Z" 
id="f1_2g"
transform="scale(0.001,-0.001)" />

<path d="M291,-21c0,0,-140,0,-216,60C75,39,0,101,0,176c0,0,0,54,40,102c0,0,41,49,147,88c0,0,-89,33,-118,70c0,0,-30,38,-30,89c0,0,0,69,58,116c0,0,79,63,208,63c0,0,77,0,138,-18c0,0,61,-18,83,-47c0,0,22,-28,22,-54c0,0,0,-23,-19,-42c0,0,-20,-19,-45,-19c0,0,-41,0,-68,53c0,0,-27,54,-45,66c0,0,-29,19,-72,19c0,0,-67,0,-106,-39c0,0,-40,-39,-40,-106c0,0,0,-66,33,-101c0,0,33,-35,90,-35c0,0,20,0,43,3c0,0,37,5,57,5c0,0,33,0,44,-8c0,0,12,-8,12,-19c0,0,0,-12,-10,-18c0,0,-13,-10,-47,-10c0,0,-8,0,-25,3c0,0,-39,5,-63,5c0,0,-63,0,-103,-41c0,0,-40,-41,-40,-108c0,0,0,-78,42,-121c0,0,41,-44,107,-44c0,0,53,0,86,32c0,0,20,19,41,78c0,0,14,39,23,47c0,0,24,24,51,24c0,0,31,0,53,-21c0,0,22,-22,22,-54c0,0,0,-51,-59,-95c0,0,-86,-60,-219,-60Z" 
id="f2_21"
transform="scale(0.001,-0.001)" />

<path d="M140,-21c0,0,-26,0,-44,17C96,-4,79,13,79,40c0,0,0,19,6,33c0,0,8,20,34,55c0,0,46,60,64,126c0,0,32,114,41,321H190c0,0,-55,0,-81,-18c0,0,-44,-26,-80,-89H0c0,0,42,129,98,178c0,0,43,37,120,37H743V575H562c0,0,-27,-171,-27,-327c0,0,0,-77,27,-110c0,0,27,-33,67,-33c0,0,33,0,56,22c0,0,24,22,31,65h27C743,192,730,74,686,26c0,0,-44,-47,-98,-47c0,0,-58,0,-97,51c0,0,-39,53,-39,198c0,0,0,91,28,347H286c0,0,-23,-390,-56,-494c0,0,-33,-102,-90,-102Z" 
id="f2_2c"
transform="scale(0.001,-0.001)" />

<path d="M0,214v74H784V214ZM0,494v72H784V494Z" 
id="f3_x"
transform="scale(0.001,-0.001)" />

<path d="M191,-20c0,0,-34,0,-58,24c0,0,-24,24,-24,58c0,0,0,35,24,59c0,0,24,24,58,24c0,0,35,0,59,-24c0,0,24,-25,24,-59c0,0,0,-34,-24,-58c0,0,-25,-24,-59,-24Z" 
id="f0_i"
transform="scale(0.001,-0.001)" />

<path d="M474,-326c0,0,-112,57,-188,133c0,0,-107,108,-165,254c0,0,-58,147,-58,305c0,0,0,231,114,421c0,0,114,191,297,273v-31c0,0,-92,-51,-151,-139c0,0,-59,-88,-88,-223c0,0,-30,-135,-30,-281c0,0,0,-160,25,-290c0,0,20,-102,47,-164c0,0,28,-62,75,-120c0,0,47,-57,122,-109v-29Z" 
id="f0_c"
transform="scale(0.001,-0.001)" />

<path d="M238,-17c0,0,-103,0,-139,25C99,8,62,33,62,62c0,0,0,22,17,38c0,0,18,16,42,16c0,0,19,0,38,-6c0,0,13,-3,58,-27c0,0,45,-23,62,-28c0,0,27,-8,59,-8c0,0,76,0,132,59c0,0,56,59,56,140c0,0,0,59,-26,115c0,0,-19,41,-42,63c0,0,-32,30,-88,54c0,0,-56,25,-114,25H232v22c0,0,59,8,118,42c0,0,59,35,86,85c0,0,27,49,27,108c0,0,0,76,-48,124c0,0,-48,47,-120,47c0,0,-116,0,-193,-124L77,819c0,0,44,102,110,158c0,0,66,56,164,56c0,0,122,0,187,-80c0,0,49,-58,49,-126c0,0,0,-110,-139,-228c0,0,93,-36,141,-104c0,0,48,-68,48,-160c0,0,0,-131,-84,-227C553,108,444,-17,238,-17Z" 
id="f0_n"
transform="scale(0.001,-0.001)" />

<path d="M35,-326v29c0,0,92,51,151,139c0,0,60,87,89,221c0,0,28,136,28,282c0,0,0,159,-24,290c0,0,-19,103,-47,165c0,0,-28,62,-75,119c0,0,-46,57,-122,110v31c0,0,113,-56,188,-132c0,0,107,-109,165,-255c0,0,58,-147,58,-306c0,0,0,-231,-114,-420c0,0,-113,-191,-297,-273Z" 
id="f0_d"
transform="scale(0.001,-0.001)" />

<path d="M336,-20L117,554c0,0,-21,55,-42,74c0,0,-21,19,-66,29v26H296V657c0,0,-40,-3,-52,-14c0,0,-13,-12,-13,-33c0,0,0,-23,13,-56L390,162L537,481L498,581c0,0,-18,46,-47,63c0,0,-17,11,-61,13v26H716V657c0,0,-54,-2,-77,-20c0,0,-15,-12,-15,-39c0,0,0,-15,6,-30L785,177L929,554c0,0,15,40,15,65c0,0,0,14,-15,25c0,0,-14,12,-57,13v26h216V657c0,0,-65,-10,-95,-89L764,-20H733L563,415L363,-20Z" 
id="f0_2j"
transform="scale(0.001,-0.001)" />

<path d="M20,0V26c0,0,45,0,71,15c0,0,15,7,24,28c0,0,9,21,9,85V773c0,0,0,117,-5,144c0,0,-6,27,-17,37c0,0,-12,9,-31,9c0,0,-16,0,-51,-12L10,978l204,83h34V561c0,0,83,91,131,116c0,0,49,26,97,26c0,0,58,0,100,-32c0,0,42,-32,62,-101c0,0,14,-47,14,-174V154c0,0,0,-65,11,-89c0,0,7,-18,25,-28c0,0,18,-11,66,-11V0H418V26h15c0,0,48,0,67,15c0,0,18,15,26,43c0,0,2,12,2,70V396c0,0,0,112,-12,147c0,0,-11,35,-36,53c0,0,-26,17,-61,17c0,0,-37,0,-76,-19c0,0,-40,-20,-95,-79V154c0,0,0,-70,8,-87c0,0,8,-17,29,-29c0,0,22,-12,74,-12V0Z" 
id="f0_24"
transform="scale(0.001,-0.001)" />

<path d="M479,469c0,0,-4,66,-16,93c0,0,-18,42,-55,65c0,0,-37,24,-78,24c0,0,-62,0,-111,-48c0,0,-48,-48,-57,-134ZM355,-20c0,0,-123,0,-211,95c0,0,-87,96,-87,258c0,0,0,175,90,273c0,0,89,98,225,98c0,0,115,0,189,-76c0,0,74,-75,74,-202H162c0,0,0,-152,74,-239c0,0,75,-86,175,-86c0,0,67,0,117,36c0,0,50,37,83,127l24,-15c0,0,-16,-102,-91,-186c0,0,-76,-83,-189,-83Z" 
id="f0_21"
transform="scale(0.001,-0.001)" />

<path d="M17,0V26c0,0,52,0,77,17c0,0,19,12,26,38c0,0,4,13,4,73V419c0,0,0,119,-5,142c0,0,-4,23,-17,33c0,0,-13,11,-33,11c0,0,-23,0,-52,-11l-7,26l207,83h31V549c0,0,86,154,176,154c0,0,41,0,68,-25c0,0,27,-25,27,-58c0,0,0,-29,-20,-49c0,0,-19,-20,-46,-20c0,0,-26,0,-58,25c0,0,-33,26,-48,26c0,0,-14,0,-29,-15c0,0,-34,-30,-70,-101V159c0,0,0,-56,15,-85c0,0,9,-20,34,-34c0,0,24,-14,71,-14V0Z" 
id="f0_2e"
transform="scale(0.001,-0.001)" />

<path d="M355,-20L162,453c0,0,-46,113,-66,138c0,0,-32,39,-68,39c0,0,-11,0,-28,-4v28l165,49h23c0,0,42,-77,75,-164L419,139L555,382c0,0,35,62,35,113c0,0,0,23,-7,61c0,0,-10,48,-10,67c0,0,0,37,20,59c0,0,20,22,51,22c0,0,34,0,54,-21c0,0,20,-20,20,-57c0,0,0,-29,-8,-54c0,0,-15,-46,-53,-116L547,264L386,-20Z" 
id="f2_2a"
transform="scale(0.001,-0.001)" />

<path d="M255,-10c0,0,-35,0,-68,18c0,0,-32,19,-48,55c0,0,-16,35,-16,109V632H15v24c0,0,41,16,84,56c0,0,43,39,77,92c0,0,17,29,48,104h23V683H407V632H247V188c0,0,0,-66,19,-90c0,0,19,-23,49,-23c0,0,24,0,47,16c0,0,23,15,36,45h29c0,0,-26,-73,-74,-110c0,0,-47,-36,-98,-36Z" 
id="f0_2g"
transform="scale(0.001,-0.001)" />

<path d="M63,0V26H93c0,0,30,0,54,15c0,0,25,15,34,41c0,0,10,25,10,99V630H58v53H191v45c0,0,0,102,33,173c0,0,32,71,100,114c0,0,68,44,152,44c0,0,79,0,145,-51c0,0,43,-33,43,-75c0,0,0,-22,-19,-42c0,0,-20,-20,-42,-20c0,0,-17,0,-36,12c0,0,-19,13,-47,53c0,0,-28,41,-51,55c0,0,-23,14,-51,14c0,0,-35,0,-58,-18c0,0,-24,-18,-35,-57c0,0,-10,-38,-10,-197V683H491V630H315V181c0,0,0,-96,21,-122c0,0,27,-33,73,-33h62V0Z" 
id="f0_22"
transform="scale(0.001,-0.001)" />

<path d="M384,85c0,0,44,0,78,19c0,0,35,19,68,62V487c0,0,0,55,-15,87c0,0,-14,33,-51,55c0,0,-38,22,-85,22c0,0,-84,0,-143,-71c0,0,-60,-70,-60,-214c0,0,0,-138,61,-209c0,0,61,-72,147,-72Zm35,-411v27h15c0,0,41,0,63,12c0,0,15,8,24,30c0,0,9,21,9,83V119C530,119,462,39,411,9c0,0,-50,-29,-105,-29c0,0,-99,0,-177,90c0,0,-78,90,-78,241c0,0,0,174,103,283c0,0,103,109,248,109c0,0,43,0,78,-12c0,0,36,-12,65,-35c0,0,43,20,83,47h25V-174c0,0,0,-66,9,-85c0,0,9,-19,28,-30c0,0,19,-10,74,-10v-27Z" 
id="f0_2d"
transform="scale(0.001,-0.001)" />

<path d="M292,-20c0,0,-57,0,-100,33c0,0,-42,33,-58,85c0,0,-17,52,-17,148V551c0,0,0,49,-10,68c0,0,-11,18,-31,29c0,0,-19,9,-68,9c-2,0,-4,0,-6,0v26H242V226c0,0,0,-95,33,-125c0,0,33,-30,80,-30c0,0,32,0,73,21c0,0,40,20,96,76V555c0,0,0,59,-21,80c0,0,-22,21,-89,22v26H647V269c0,0,0,-119,6,-145c0,0,6,-27,18,-37c0,0,12,-11,29,-11c0,0,23,0,52,13L763,63L558,-20H524V124C524,124,436,29,390,4c0,0,-47,-24,-98,-24Z" 
id="f0_2h"
transform="scale(0.001,-0.001)" />

<path d="M342,-20c0,0,-116,0,-203,97c0,0,-86,98,-86,264c0,0,0,161,96,261c0,0,95,101,230,101c0,0,100,0,165,-53c0,0,65,-54,65,-111c0,0,0,-29,-18,-46c0,0,-18,-18,-51,-18c0,0,-44,0,-66,29c0,0,-13,15,-17,59c0,0,-4,45,-30,68c0,0,-26,22,-73,22c0,0,-74,0,-120,-55c0,0,-60,-73,-60,-193c0,0,0,-122,60,-216c0,0,60,-93,162,-93c0,0,73,0,131,49c0,0,41,35,80,126l22,-10C629,261,601,125,521,52c0,0,-81,-72,-179,-72Z" 
id="f0_1z"
transform="scale(0.001,-0.001)" />

<path d="M145,-328c0,0,-44,0,-73,25c0,0,-28,25,-28,58c0,0,0,31,21,50c0,0,20,19,56,19c0,0,25,0,67,-16c0,0,30,-11,38,-11c0,0,22,0,49,23c0,0,26,23,53,89L376,28L131,542c0,0,-11,24,-36,58c0,0,-19,27,-30,36c0,0,-18,12,-56,21v26H328V657H312c0,0,-33,0,-50,-15c0,0,-17,-14,-17,-36c0,0,0,-30,25,-81L437,179L589,557c0,0,12,31,12,62c0,0,0,13,-5,20c0,0,-6,8,-19,13c0,0,-12,5,-44,5v26H754V657c0,0,-27,-3,-42,-12c0,0,-15,-9,-33,-34c0,0,-7,-10,-25,-58L376,-128c0,0,-40,-99,-105,-150c0,0,-66,-50,-126,-50Z" 
id="f0_2l"
transform="scale(0.001,-0.001)" />

<path d="M406,32c0,0,72,0,119,60c0,0,47,59,47,205c0,0,0,181,-78,286c0,0,-53,71,-135,71c0,0,-40,0,-79,-23c0,0,-40,-24,-65,-83c0,0,-24,-58,-24,-151c0,0,0,-149,59,-257c0,0,59,-108,156,-108ZM374,-20c0,0,-154,0,-245,122c0,0,-77,104,-77,233c0,0,0,94,46,187c0,0,47,92,123,137c0,0,76,44,161,44c0,0,155,0,249,-118c0,0,80,-100,80,-231c0,0,0,-91,-44,-185C667,169,623,75,546,27c0,0,-77,-47,-172,-47Z" 
id="f0_2b"
transform="scale(0.001,-0.001)" />

<path d="M376,-20L133,556c0,0,-17,41,-31,58c0,0,-15,18,-39,30c0,0,-12,7,-50,13v26H335V657H314c0,0,-29,0,-44,-14c0,0,-16,-14,-15,-38c0,0,-1,-26,15,-62L429,165L588,557c0,0,17,42,17,64c0,0,0,10,-6,17c0,0,-8,11,-21,15c0,0,-13,4,-52,4v26H750V657c0,0,-39,-3,-54,-16c0,0,-26,-23,-47,-76L409,-20Z" 
id="f0_2i"
transform="scale(0.001,-0.001)" />

<path d="M58,0V26c0,0,47,0,64,10c0,0,18,10,28,32c0,0,9,23,9,86V775c0,0,0,116,-5,142c0,0,-5,27,-17,37c0,0,-11,9,-29,9c0,0,-20,0,-49,-12L46,978l204,83h34V154c0,0,0,-64,9,-85c0,0,9,-21,29,-32c0,0,19,-11,72,-11V0Z" 
id="f0_28"
transform="scale(0.001,-0.001)" />

<path d="M411,-239c0,0,134,0,198,48c0,0,64,47,64,100c0,0,0,39,-38,55c0,0,-39,16,-154,19c0,0,-167,5,-258,17c0,0,-35,-37,-53,-70c0,0,-17,-32,-17,-60c0,0,0,-36,43,-62c0,0,74,-47,215,-47ZM380,257c0,0,56,0,93,43c0,0,36,42,36,133c0,0,0,118,-51,185c0,0,-38,49,-98,49c0,0,-55,0,-92,-44c0,0,-37,-44,-37,-135c0,0,0,-117,50,-182c0,0,39,-49,99,-49ZM345,-328c0,0,-144,0,-243,64c0,0,-56,38,-56,78c0,0,0,18,8,36c0,0,13,27,52,76c0,0,5,7,76,80c0,0,-39,23,-55,41c0,0,-16,19,-16,42c0,0,0,26,22,61c0,0,21,35,98,100c0,0,-63,30,-97,85c0,0,-33,55,-33,121c0,0,0,101,76,174c0,0,77,73,196,73c0,0,98,0,170,-48H688c0,0,32,0,37,-2c0,0,6,-2,8,-6c0,0,4,-7,4,-24c0,0,0,-20,-4,-27c0,0,-2,-4,-7,-6c0,0,-6,-2,-38,-2H599c0,0,41,-54,41,-137c0,0,0,-96,-73,-163c0,0,-73,-68,-196,-68c0,0,-51,0,-104,15c0,0,-33,-28,-44,-49c0,0,-12,-22,-12,-37c0,0,0,-12,13,-24c0,0,12,-12,48,-17c0,0,21,-4,104,-6c0,0,154,-4,199,-11c0,0,70,-10,111,-51c0,0,42,-41,42,-102c0,0,0,-84,-79,-158c0,0,-117,-108,-304,-108Z" 
id="f0_23"
transform="scale(0.001,-0.001)" />

<path d="M286,72c0,0,57,0,149,75V407c0,0,-113,-45,-145,-64c0,0,-59,-32,-85,-68c0,0,-25,-36,-25,-78c0,0,0,-54,32,-89c0,0,32,-36,74,-36ZM217,-13c0,0,-71,0,-116,48c0,0,-46,48,-46,127c0,0,0,50,22,87c0,0,31,50,106,95c0,0,76,45,252,109v26c0,0,0,102,-32,140c0,0,-32,38,-94,38c0,0,-47,0,-74,-25c0,0,-28,-25,-28,-58l1,-43c0,0,0,-34,-17,-53c0,0,-18,-18,-47,-18c0,0,-28,0,-45,19c0,0,-18,19,-18,53c0,0,0,64,66,117c0,0,65,54,184,54c0,0,91,0,149,-31c0,0,44,-23,65,-72c0,0,13,-32,13,-131V238c0,0,0,-98,4,-120c0,0,4,-22,12,-29c0,0,9,-8,20,-8c0,0,12,0,21,5c0,0,16,10,61,55V99C676,99,592,-12,516,-12c0,0,-37,0,-58,24c0,0,-22,26,-23,86C435,98,330,17,303,5c0,0,-40,-18,-86,-18Z" 
id="f0_1x"
transform="scale(0.001,-0.001)" />

<path d="M177,647v35c0,0,77,46,105,86c0,0,19,28,19,68c0,0,0,23,-8,34c0,0,-9,11,-19,11c0,0,-9,0,-22,-5c0,0,-19,-7,-32,-7c0,0,-30,0,-53,23c0,0,-23,22,-23,56c0,0,0,37,23,58c0,0,31,28,75,28c0,0,50,0,90,-42c0,0,40,-42,40,-105c0,0,0,-88,-67,-160c0,0,-44,-48,-128,-80Z" 
id="f0_53"
transform="scale(0.001,-0.001)" />

<path d="M911,-16L244,799V175c0,0,0,-93,21,-116c0,0,28,-32,86,-32h36V0H36V27H71c0,0,65,0,92,39c0,0,16,24,16,109V879c0,0,-44,52,-67,68c0,0,-23,17,-67,31c0,0,-21,7,-64,7v27H253L873,253V837c0,0,0,93,-21,116c0,0,-28,32,-87,32H730v27h351V985h-36c0,0,-64,0,-91,-39c0,0,-16,-24,-16,-109V-16Z" 
id="f0_1e"
transform="scale(0.001,-0.001)" />

<path d="M399,62c0,0,68,0,131,68V481c0,0,-5,51,-27,93c0,0,-22,42,-59,63c0,0,-37,21,-72,21c0,0,-65,0,-117,-59c0,0,-67,-77,-67,-226c0,0,0,-151,65,-231c0,0,66,-80,146,-80ZM330,-20c0,0,-112,0,-196,93c0,0,-83,94,-83,240c0,0,0,147,92,269c0,0,93,122,238,122c0,0,90,0,149,-58V773c0,0,0,117,-6,144c0,0,-5,27,-17,37c0,0,-12,9,-30,9c0,0,-20,0,-52,-12l-9,27l204,83h33V270c0,0,0,-120,6,-146c0,0,5,-27,18,-37c0,0,12,-11,28,-11c0,0,21,0,54,13l9,-26L564,-20H530V78C530,78,480,25,432,2c0,0,-47,-22,-102,-22Z" 
id="f0_20"
transform="scale(0.001,-0.001)" />

<path d="M23,0V26c0,0,47,0,66,10c0,0,19,11,28,33c0,0,10,22,10,85V416c0,0,0,112,-7,145c0,0,-5,25,-16,34c0,0,-11,10,-31,10c0,0,-21,0,-50,-11L12,620l207,83h32V557c0,0,75,75,88,86c0,0,34,29,72,44c0,0,39,16,77,16c0,0,64,0,110,-37c0,0,47,-38,62,-109c0,0,77,90,130,118c0,0,53,28,109,28c0,0,54,0,96,-28c0,0,42,-28,67,-91c0,0,16,-43,16,-136V154c0,0,0,-64,10,-88c0,0,8,-16,28,-28c0,0,20,-12,65,-12V0H844V26h14c0,0,44,0,69,18c0,0,17,12,24,38c0,0,3,13,3,72V448c0,0,0,83,-20,117c0,0,-29,48,-93,48c0,0,-39,0,-79,-20c0,0,-40,-19,-97,-73l-1,-8l2,-32V154c0,0,0,-70,8,-87c0,0,7,-17,29,-29c0,0,21,-12,73,-12V0H431V26c0,0,57,0,78,14c0,0,21,13,29,40c0,0,4,13,4,74V448c0,0,0,83,-25,120c0,0,-33,48,-91,48c0,0,-40,0,-80,-22c0,0,-61,-33,-95,-74V154c0,0,0,-67,10,-87c0,0,9,-20,27,-30c0,0,18,-11,74,-11V0Z" 
id="f0_29"
transform="scale(0.001,-0.001)" />

<path d="M397,34c0,0,67,0,126,75c0,0,58,74,58,216c0,0,0,131,-58,201c0,0,-59,70,-133,70c0,0,-39,0,-79,-20c0,0,-29,-14,-75,-59V109c0,0,37,-37,78,-56c0,0,40,-19,83,-19ZM358,-20c0,0,-59,0,-121,21c0,0,-61,22,-126,65V773c0,0,0,117,-5,144c0,0,-6,27,-18,37c0,0,-12,9,-29,9c0,0,-21,0,-53,-12l-9,27l205,83h34V564c0,0,98,139,213,139c0,0,105,0,183,-90c0,0,78,-90,78,-245c0,0,0,-182,-121,-293c0,0,-103,-95,-231,-95Z" 
id="f0_1y"
transform="scale(0.001,-0.001)" />

<path d="M355,0V355H0v72H355V784h72V427H782V355H427V0Z" 
id="f3_f"
transform="scale(0.001,-0.001)" />

<path d="M0,356v74H784V356Z" 
id="f3_h"
transform="scale(0.001,-0.001)" />

<path d="M398,24c0,0,74,0,120,58c0,0,61,76,61,214c0,0,0,156,-69,240c0,0,-47,59,-113,59c0,0,-36,0,-71,-18c0,0,-27,-14,-88,-81V242c0,0,0,-83,6,-109c0,0,11,-43,51,-76c0,0,41,-33,103,-33ZM-4,-326v27H15c5,0,42,0,69,16c0,0,14,8,22,26c0,0,7,19,7,94V481c0,0,0,67,-6,85c0,0,-5,18,-18,27c0,0,-13,9,-36,9c0,0,-18,0,-45,-10L0,615l209,85h29V540c0,0,53,91,106,127c0,0,53,36,112,36c0,0,103,0,172,-80c0,0,84,-99,84,-257c0,0,0,-176,-102,-292c0,0,-83,-94,-210,-94c0,0,-55,0,-95,16c0,0,-30,10,-67,44V-167c0,0,0,-71,8,-90c0,0,9,-20,30,-31c0,0,21,-11,77,-11v-27Z" 
id="f0_2c"
transform="scale(0.001,-0.001)" />

<path d="M474,-21L174,817c0,0,-34,94,-42,112c0,0,-15,28,-41,42c0,0,-26,14,-70,14v27H395V985H377c0,0,-40,0,-60,-18c0,0,-21,-18,-21,-44c0,0,0,-26,33,-120L528,235L696,718l-30,85l-24,68c0,0,-16,37,-35,66c0,0,-10,14,-24,24c0,0,-19,13,-38,19c0,0,-14,5,-44,5v27H894V985H867c0,0,-41,0,-61,-18c0,0,-19,-18,-19,-49c0,0,0,-38,33,-133L1015,235l193,557c0,0,32,93,32,129c0,0,0,17,-10,32c0,0,-11,15,-28,21c0,0,-28,11,-74,11v27h302V985c0,0,-39,0,-64,-15c0,0,-25,-14,-47,-53c0,0,-15,-26,-47,-124L990,-21H960L729,624L501,-21Z" 
id="f0_1n"
transform="scale(0.001,-0.001)" />

<path d="M62,286V399H448V286Z" 
id="f0_h"
transform="scale(0.001,-0.001)" />

<path d="M678,393L506,802L330,393ZM11,0V27c0,0,63,12,82,30c0,0,38,35,84,145l356,832h27L912,193c0,0,43,-101,77,-132c0,0,35,-30,97,-34V0H687V27c0,0,60,3,82,21c0,0,21,17,21,41c0,0,0,33,-30,104L700,338H307L239,179c0,0,-26,-59,-26,-88c0,0,0,-23,22,-41c0,0,22,-17,95,-23V0Z" 
id="f0_11"
transform="scale(0.001,-0.001)" />

<path d="M30,0V27L485,632H260c0,0,-72,0,-94,-10c0,0,-22,-9,-36,-35c0,0,-20,-37,-23,-92H76l5,188H654V656L196,51H445c0,0,79,0,106,13c0,0,28,13,45,46c0,0,12,23,21,100h25L634,0Z" 
id="f0_2m"
transform="scale(0.001,-0.001)" />

<path d="M379,437c0,0,34,0,81,16c0,0,47,17,83,47c0,0,14,97,14,155c0,0,0,72,-25,156c0,0,-25,83,-70,128c0,0,-45,45,-103,45c0,0,-66,0,-116,-60c0,0,-50,-59,-50,-177c0,0,0,-157,66,-246c0,0,49,-64,120,-64ZM80,-20V7c0,0,97,1,181,45c0,0,83,44,161,153c0,0,78,109,109,240c0,0,-117,-75,-212,-75c0,0,-107,0,-183,82c0,0,-76,82,-76,219c0,0,0,132,76,236c0,0,92,126,240,126c0,0,124,0,213,-103c0,0,109,-128,109,-315c0,0,0,-169,-82,-314C616,301,533,155,385,59c0,0,-120,-79,-262,-79Z" 
id="f0_t"
transform="scale(0.001,-0.001)" />

<path d="M13,0V26c0,0,52,0,78,13c0,0,16,8,24,25c0,0,11,25,11,86V773c0,0,0,118,-5,145c0,0,-5,26,-17,36c0,0,-12,10,-32,10c0,0,-15,0,-47,-13L13,978l203,83h34V381L424,540c0,0,55,50,64,64c0,0,6,9,6,18c0,0,0,15,-12,26c0,0,-13,11,-41,12v23H738V660c0,0,-61,-2,-102,-19c0,0,-40,-17,-89,-62L372,418L547,196c0,0,73,-92,98,-117c0,0,36,-35,63,-45c0,0,18,-8,65,-8V0H441V26c0,0,28,1,38,9c0,0,10,8,10,22c0,0,0,17,-29,56L250,381V154c0,0,0,-67,10,-88c0,0,9,-21,26,-30c0,0,17,-9,75,-10V0Z" 
id="f0_27"
transform="scale(0.001,-0.001)" />

<path d="M2,-20L369,1061h59L62,-20Z" 
id="f0_j"
transform="scale(0.001,-0.001)" />

<path d="M548,-21c0,0,-251,0,-389,185C159,164,56,303,56,490c0,0,0,152,68,278c0,0,67,127,186,197c0,0,119,69,260,69c0,0,109,0,216,-53c0,0,31,-17,44,-17c0,0,20,0,35,14c0,0,20,21,28,56h26L943,690H919c0,0,-46,155,-131,224c0,0,-86,68,-206,68c0,0,-100,0,-181,-51c0,0,-81,-52,-128,-163c0,0,-46,-112,-46,-279c0,0,0,-137,44,-238c0,0,44,-101,132,-154c0,0,88,-54,201,-54c0,0,99,0,174,42c0,0,75,42,165,167l23,-14C966,238,890,103,789,40c0,0,-102,-61,-241,-61Z" 
id="f0_13"
transform="scale(0.001,-0.001)" />

<path d="M253,0V27h36c0,0,64,0,91,39c0,0,16,24,16,109V948H274c0,0,-71,0,-100,-10c0,0,-39,-14,-67,-54c0,0,-27,-41,-33,-109H46l12,237H883L894,775H865c0,0,-8,62,-22,89c0,0,-23,43,-61,64c0,0,-39,20,-101,20H539V175c0,0,0,-93,20,-116c0,0,28,-32,87,-32h36V0Z" 
id="f0_1k"
transform="scale(0.001,-0.001)" />

<path d="M31,0V27H67c0,0,36,0,68,18c0,0,24,12,32,36c0,0,9,24,9,98V836c0,0,0,96,-19,119c0,0,-27,30,-90,30H31v27H811L822,790H792c0,0,-15,80,-34,110c0,0,-19,30,-57,46c0,0,-29,11,-105,11H319V557H541c0,0,87,0,116,26c0,0,39,35,44,121h27V352H701c0,0,-11,74,-21,95c0,0,-14,26,-45,41c0,0,-30,15,-94,15H319V168c0,0,0,-67,6,-81c0,0,6,-15,21,-24c0,0,15,-8,56,-8H574c0,0,86,0,124,12c0,0,39,12,75,47c0,0,46,46,95,139h30L811,0Z" 
id="f0_15"
transform="scale(0.001,-0.001)" />

<path d="M247,-17c0,0,-91,0,-132,30c0,0,-42,31,-42,68c0,0,0,21,17,37c0,0,18,16,44,17c0,0,19,0,34,-6c0,0,14,-7,49,-31c0,0,56,-39,113,-39c0,0,88,0,154,66c0,0,66,66,66,161c0,0,0,92,-59,171c0,0,-59,80,-163,123c0,0,-81,34,-221,39l194,393H663L605,885H301L234,750c0,0,198,-29,313,-147c0,0,100,-102,100,-239c0,0,0,-80,-33,-148c0,0,-32,-68,-81,-116c0,0,-50,-47,-110,-77c0,0,-86,-40,-176,-40Z" 
id="f0_p"
transform="scale(0.001,-0.001)" />

<path d="M693,201L428,466L166,203l-44,41L386,509L122,772l45,42L429,552L692,816l43,-43L471,510L736,245L693,201Z" 
id="f0_6n"
transform="scale(0.001,-0.001)" />

<path d="M197,0V27c0,0,71,2,92,13c0,0,21,10,29,29c0,0,9,18,9,109V725c0,0,0,110,-8,141c0,0,-5,24,-19,35c0,0,-14,11,-33,11c0,0,-28,0,-77,-23l-11,23l246,121h25V178c0,0,0,-85,7,-106c0,0,7,-21,29,-32c0,0,23,-11,91,-13V0Z" 
id="f0_l"
transform="scale(0.001,-0.001)" />

<path d="M-12,338v55H777V338Z" 
id="f0_4y"
transform="scale(0.001,-0.001)" />

<path d="M452,373V875L97,373ZM452,0V267H23v95l470,671h82V373H711V267H575V0Z" 
id="f0_o"
transform="scale(0.001,-0.001)" />

<path d="M302,639c0,0,69,0,118,49c0,0,48,49,48,118c0,0,0,69,-48,117c0,0,-49,49,-118,49c0,0,-69,0,-118,-49c0,0,-48,-48,-48,-117c0,0,0,-69,48,-118c0,0,49,-49,118,-49Zm0,-63c0,0,-94,0,-162,67c0,0,-67,67,-67,162c0,0,0,95,67,162c0,0,67,67,162,67c0,0,96,0,163,-67c0,0,67,-67,67,-162c0,0,0,-95,-67,-162c0,0,-67,-67,-163,-67Z" 
id="f0_3o"
transform="scale(0.001,-0.001)" />

<path d="M254,446c0,0,-32,0,-55,23c0,0,-23,23,-23,55c0,0,0,33,23,56c0,0,22,22,55,22c0,0,33,0,56,-22c0,0,22,-23,22,-56c0,0,0,-32,-23,-55c0,0,-23,-23,-55,-23Z" 
id="f0_76"
transform="scale(0.001,-0.001)" />

<path d="M232,-21l84,842c0,0,6,64,6,86c0,0,0,34,-25,56c0,0,-25,23,-79,23H191l7,26H598l-9,-26c0,0,-64,-1,-89,-14c0,0,-24,-13,-38,-44c0,0,-8,-16,-16,-94L387,231L781,769c0,0,65,88,81,123c0,0,11,23,11,40c0,0,0,20,-17,36c0,0,-17,15,-64,18l9,26h304l-8,-26c0,0,-36,-3,-58,-15c0,0,-41,-19,-82,-59c0,0,-40,-39,-128,-159L259,-21Z" 
id="f1_1m"
transform="scale(0.001,-0.001)" />

<path d="M187,318c0,0,111,12,181,43c0,0,92,41,138,98c0,0,46,57,46,108c0,0,0,32,-20,51c0,0,-20,20,-56,20c0,0,-77,0,-163,-81c0,0,-85,-81,-126,-239ZM268,-17c0,0,-110,0,-165,68c0,0,-55,69,-55,151c0,0,0,111,69,228c0,0,68,116,172,180c0,0,104,65,213,65c0,0,79,0,118,-32c0,0,38,-32,38,-76c0,0,0,-62,-50,-119c0,0,-65,-73,-191,-119c0,0,-84,-30,-235,-47c0,0,-5,-38,-5,-62c0,0,0,-67,47,-114c0,0,47,-46,114,-46c0,0,54,0,104,22c0,0,50,22,148,97l15,-21C605,158,428,-17,268,-17Z" 
id="f1_21"
transform="scale(0.001,-0.001)" />

<path d="M357,55c0,0,117,0,206,70c0,0,90,70,90,191c0,0,0,92,-56,144c0,0,-57,51,-182,51c0,0,-24,0,-59,-3L231,65c0,0,81,-10,126,-10Zm86,508c0,0,158,0,234,68c0,0,77,67,77,169c0,0,0,76,-48,119c0,0,-48,43,-153,43c0,0,-28,0,-71,-9L372,564c0,0,49,-1,71,-1ZM-34,0l10,26c0,0,57,2,78,12c0,0,30,12,42,33c0,0,18,29,48,131L318,816c0,0,23,78,23,109c0,0,0,28,-20,44c0,0,-21,16,-78,16c0,0,-13,0,-24,1l10,26H594c0,0,92,0,164,-28c0,0,72,-29,108,-79c0,0,36,-51,36,-108c0,0,0,-87,-66,-157c0,0,-66,-71,-216,-104c0,0,99,-35,146,-91c0,0,46,-57,46,-125c0,0,0,-76,-39,-144c0,0,-39,-69,-99,-107C674,69,613,31,527,13C527,13,466,0,336,0Z" 
id="f1_12"
transform="scale(0.001,-0.001)" />

<path d="M122,-17c0,0,-27,0,-45,19C77,2,59,21,59,46c0,0,0,27,25,111L291,859c0,0,25,86,25,98c0,0,0,18,-14,30c0,0,-14,12,-44,12c0,0,-18,0,-53,-6v27l257,42L200,170c0,0,-19,-67,-19,-82c0,0,0,-11,6,-18c0,0,7,-8,16,-8c0,0,13,0,28,13c0,0,35,31,73,98l22,-23C326,150,259,50,202,11c0,0,-42,-28,-80,-28Z" 
id="f1_28"
transform="scale(0.001,-0.001)" />

<path d="M394,23c0,0,80,0,129,45c0,0,48,45,48,110c0,0,0,54,-28,97c0,0,-53,79,-214,206c0,0,-62,-52,-92,-114c0,0,-30,-61,-30,-133c0,0,0,-96,53,-154c0,0,52,-57,134,-57Zm17,566c0,0,90,81,114,128c0,0,24,46,24,105c0,0,0,79,-44,123c0,0,-44,45,-121,45c0,0,-76,0,-124,-45c0,0,-48,-44,-48,-103c0,0,0,-38,20,-77c0,0,20,-39,56,-74L411,589ZM382,-17c0,0,-144,0,-225,90c0,0,-64,72,-64,158c0,0,0,67,45,133c0,0,45,66,156,146c0,0,-121,98,-156,158c0,0,-34,59,-34,124c0,0,0,98,76,169c0,0,76,72,202,72c0,0,123,0,198,-67c0,0,74,-66,74,-151c0,0,0,-57,-40,-116c0,0,-40,-59,-168,-139c0,0,132,-101,174,-159c0,0,57,-76,57,-161c0,0,0,-106,-82,-182c0,0,-81,-75,-213,-75Z" 
id="f0_s"
transform="scale(0.001,-0.001)" />

<path d="M52,62L0,114L278,390L0,667l52,52L330,442L608,719l51,-51L382,390L659,114L608,62L330,338L52,62Z" 
id="f3_3a"
transform="scale(0.001,-0.001)" />

<path d="M491,-305c0,0,-180,60,-305,247C186,-58,61,127,61,368c0,0,0,239,124,423c0,0,125,184,306,243v-34c0,0,-78,-50,-115,-99c0,0,-50,-67,-79,-172c0,0,-36,-131,-36,-365c0,0,0,-221,33,-343c0,0,32,-122,88,-197c0,0,39,-52,109,-92v-37Z" 
id="f4_c"
transform="scale(0.001,-0.001)" />

<path d="M597,33c0,0,77,0,129,38c0,0,65,47,102,152c0,0,36,105,36,273c0,0,0,201,-37,300c0,0,-37,100,-95,141c0,0,-58,41,-133,41c0,0,-139,0,-211,-142c0,0,-59,-116,-59,-334c0,0,0,-259,91,-382c0,0,63,-87,177,-87Zm3,-54c0,0,-273,0,-423,183C177,162,60,309,60,509c0,0,0,225,153,375c0,0,144,142,358,142c6,0,12,0,19,0c0,0,3,0,8,0c42,0,250,-7,385,-141c0,0,151,-150,151,-375c0,0,0,-193,-113,-339c0,0,-149,-192,-421,-192Z" 
id="f4_1f"
transform="scale(0.001,-0.001)" />

<path d="M448,514c0,0,104,0,155,19c0,0,52,19,81,69c0,0,30,50,30,129c0,0,0,116,-54,171c0,0,-54,55,-174,55H406V514ZM28,0V27c0,0,70,0,95,13c0,0,25,14,35,35c0,0,10,21,10,103V834c0,0,0,82,-10,104c0,0,-10,21,-35,34c0,0,-25,13,-95,13v27H498c0,0,184,0,269,-25c0,0,85,-26,138,-94c0,0,54,-68,54,-160c0,0,0,-112,-80,-185c0,0,-52,-46,-145,-69L977,135c0,0,48,-66,68,-82c0,0,31,-23,72,-26V0H798L472,462H406V178c0,0,0,-82,10,-104c0,0,10,-21,35,-34c0,0,25,-13,95,-13V0Z" 
id="f4_1i"
transform="scale(0.001,-0.001)" />

<path d="M19,-305v34c0,0,77,52,114,100c0,0,50,67,79,171c0,0,36,131,36,365c0,0,0,221,-33,343c0,0,-32,122,-88,198c0,0,-39,52,-108,91v37c0,0,179,-60,304,-246c0,0,125,-186,125,-428c0,0,0,-238,-125,-421c0,0,-125,-184,-304,-244Z" 
id="f4_d"
transform="scale(0.001,-0.001)" />

<path d="M12,0V27c0,0,38,4,66,16c0,0,46,19,88,52c0,0,41,33,95,101L496,496L300,789c0,0,-81,119,-138,156c0,0,-57,37,-130,40v27H499V985c0,0,-59,-3,-81,-20c0,0,-22,-17,-22,-38c0,0,0,-28,35,-81L588,613L767,841c0,0,31,41,38,56c0,0,7,15,7,31c0,0,0,15,-9,27c0,0,-11,16,-28,22c0,0,-17,7,-71,8v27h359V985c0,0,-42,-3,-69,-14c0,0,-40,-17,-74,-46c0,0,-34,-29,-95,-108L624,560L842,236c0,0,90,-134,134,-169c0,0,43,-36,111,-40V0H652V27c0,0,43,1,64,9c0,0,16,7,26,21c0,0,10,14,10,28c0,0,0,17,-7,35c0,0,-5,12,-41,66L532,443L320,173c0,0,-33,-44,-40,-58c0,0,-7,-15,-7,-30c0,0,0,-24,21,-40c0,0,20,-15,76,-18V0Z" 
id="f0_1o"
transform="scale(0.001,-0.001)" />

<path d="M256,-21c0,0,-56,0,-118,38C138,17,76,57,38,140C38,140,0,223,0,320c0,0,0,105,43,192c0,0,32,67,83,111c0,0,52,44,109,62c0,0,58,18,146,18V677c0,0,-103,-11,-171,-98c0,0,-67,-88,-67,-258c0,0,0,-167,51,-246c0,0,31,-47,88,-47c0,0,47,0,89,39c0,0,42,39,72,140c0,0,-33,87,-43,130c0,0,-10,42,-10,81c0,0,0,72,34,124c0,0,16,26,38,26c0,0,23,0,40,-26c0,0,32,-49,32,-120c0,0,0,-86,-49,-215c0,0,29,-102,68,-137c0,0,39,-36,89,-36c0,0,58,0,94,46c0,0,48,61,48,228c0,0,0,204,-90,301c0,0,-54,59,-149,68v26c0,0,125,0,205,-43c0,0,79,-43,128,-138c0,0,49,-95,49,-208c0,0,0,-96,-38,-176C889,138,851,59,785,18c0,0,-66,-39,-126,-39c0,0,-65,0,-111,36c0,0,-46,37,-83,115c0,0,-41,-79,-93,-116c0,0,-52,-35,-116,-35Z" 
id="f2_2j"
transform="scale(0.001,-0.001)" />

<path d="M-46,0l10,26c0,0,62,2,82,11c0,0,33,13,48,35c0,0,25,36,51,126L318,810c0,0,23,76,23,115c0,0,0,20,-10,33c0,0,-10,13,-29,21c0,0,-20,7,-78,7l9,26H619l-8,-26h-2c-8,0,-48,-1,-69,-12c0,0,-33,-16,-51,-46c0,0,-17,-30,-45,-132L271,185c0,0,-23,-78,-23,-100c0,0,0,-17,9,-29c0,0,9,-12,30,-19c0,0,20,-6,85,-11L364,0Z" 
id="f1_19"
transform="scale(0.001,-0.001)" />

<path d="M62,-123V268c0,0,0,230,56,452c0,0,47,190,134,334c0,0,87,144,204,242c0,0,85,73,194,119l18,-16c0,0,-211,-145,-335,-339c0,0,-98,-156,-149,-374c0,0,-50,-218,-50,-403V-123Z" 
id="f3_4o"
transform="scale(0.001,-0.001)" />

<path d="M617,-123V283c0,0,0,236,-63,459c0,0,-63,223,-188,392c0,0,-108,146,-282,265l17,16c0,0,180,-76,320,-248c0,0,139,-172,204,-417c0,0,64,-245,64,-482V-123Z" 
id="f3_54"
transform="scale(0.001,-0.001)" />

<path d="M62,-123V1415h72V-123Z" 
id="f3_4p"
transform="scale(0.001,-0.001)" />

<path d="M617,-123V1415h72V-123Z" 
id="f3_55"
transform="scale(0.001,-0.001)" />

<path d="M650,-123c0,0,-180,75,-319,246c0,0,-140,172,-205,418c0,0,-64,245,-64,481v393h72V1007c0,0,0,-236,63,-459c0,0,63,-223,189,-391c0,0,108,-145,282,-265l-18,-15Z" 
id="f3_4q"
transform="scale(0.001,-0.001)" />

<path d="M101,-123l-17,15c0,0,210,144,334,339c0,0,99,156,149,373c0,0,50,218,50,403v408h72V1022c0,0,0,-230,-56,-451c0,0,-48,-191,-134,-335C499,236,412,92,295,-5c0,0,-84,-73,-194,-118Z" 
id="f3_56"
transform="scale(0.001,-0.001)" />

<path d="M38,0V27H74c0,0,63,0,91,37c0,0,18,24,18,115V833c0,0,0,77,-10,102c0,0,-7,18,-30,32c0,0,-33,18,-69,18H38v27H470V985H434c0,0,-62,0,-90,-37c0,0,-18,-24,-18,-115V179c0,0,0,-77,9,-102c0,0,8,-18,31,-32c0,0,32,-18,68,-18h36V0Z" 
id="f0_19"
transform="scale(0.001,-0.001)" />

<path d="M25,0V26c0,0,27,4,47,19c0,0,29,22,96,111L311,346L182,535c0,0,-55,81,-86,102c0,0,-30,20,-75,20v26H341V657c0,0,-30,0,-42,-10c0,0,-13,-11,-13,-28c0,0,0,-19,27,-56c0,0,8,-12,25,-37l48,-78l56,77c0,0,55,74,55,94c0,0,0,16,0,27c0,0,0,11,0,11v26H674V657c0,0,-37,-2,-64,-20c0,0,-37,-26,-100,-111L416,402L587,156c0,0,63,-91,89,-109c0,0,27,-18,70,-21V0H423V26c0,0,34,0,53,15c0,0,14,11,14,28c0,0,0,17,-48,87L341,302L232,157c0,0,-50,-69,-50,-82c0,0,0,-18,17,-32c0,0,17,-15,50,-17V0Z" 
id="f0_2k"
transform="scale(0.001,-0.001)" />

<path d="M-102,0l8,27c0,0,64,6,103,29c0,0,59,36,163,140L467,492L386,784c0,0,-37,135,-64,166c0,0,-27,31,-95,36l7,26H596l-9,-26c0,0,-50,0,-67,-7c0,0,-18,-6,-27,-19c0,0,-9,-14,-9,-30c0,0,0,-18,18,-84L571,596L729,755c0,0,94,94,129,151c0,0,13,20,13,36c0,0,0,18,-15,28c0,0,-20,13,-75,16l8,26h343l-8,-26c0,0,-73,-11,-127,-44c0,0,-54,-34,-147,-134L588,541L662,269c0,0,10,-39,38,-120c0,0,18,-53,36,-75c0,0,17,-22,45,-34c0,0,27,-11,82,-14L855,0H458l8,26c0,0,61,3,88,24c0,0,20,15,20,39c0,0,0,21,-19,92L483,436L247,196c0,0,-69,-71,-83,-94c0,0,-8,-13,-8,-26c0,0,0,-23,22,-37c0,0,11,-6,64,-13L234,0Z" 
id="f1_1o"
transform="scale(0.001,-0.001)" />

<path d="M-162,-328c0,0,-45,0,-77,26c0,0,-23,19,-23,49c0,0,0,23,19,41c0,0,19,17,47,17c0,0,20,0,34,-12c0,0,13,-13,13,-29c0,0,0,-17,-15,-31c0,0,-12,-10,-12,-16c0,0,0,-6,5,-10c0,0,7,-5,21,-5c0,0,32,0,67,20c0,0,36,20,63,60c0,0,27,40,52,115c0,0,10,32,58,205L233,608H89l10,49c0,0,69,0,96,9c0,0,28,8,50,32c0,0,23,25,55,91c0,0,42,90,81,139c0,0,53,66,112,100c0,0,58,33,110,33c0,0,54,0,88,-29c0,0,33,-28,33,-62c0,0,0,-26,-18,-44c0,0,-17,-18,-44,-18c0,0,-23,0,-37,14c0,0,-15,13,-15,32c0,0,0,12,10,29c0,0,10,18,10,24c0,0,0,10,-6,15c0,0,-9,8,-27,8c0,0,-43,0,-77,-31c0,0,-46,-41,-83,-127c0,0,-18,-45,-74,-215H473L460,608H350L260,279C260,279,201,65,145,-51c0,0,-79,-166,-169,-229c0,0,-69,-48,-138,-48Z" 
id="f1_22"
transform="scale(0.001,-0.001)" />

<path d="M518,-21c0,0,-124,0,-220,50c0,0,-95,52,-145,146c0,0,-50,94,-50,202c0,0,0,166,88,322c0,0,89,157,244,246c0,0,155,89,312,89c0,0,74,0,166,-34c0,0,40,-15,58,-15c0,0,18,0,31,7c0,0,14,8,45,42h28L999,707H972l-3,82c0,0,-4,45,-17,80c0,0,-14,35,-40,61c0,0,-27,26,-68,40c0,0,-41,15,-91,15c0,0,-134,0,-234,-73c0,0,-127,-94,-199,-264c0,0,-60,-140,-60,-284c0,0,0,-147,86,-234c0,0,86,-88,223,-88c0,0,104,0,185,46c0,0,81,47,151,143h35C940,231,858,100,757,39c0,0,-100,-60,-239,-60Z" 
id="f1_13"
transform="scale(0.001,-0.001)" />

<path d="M46,0c0,0,-2,48,16,93c0,0,27,74,88,146c0,0,61,71,176,165c0,0,178,146,241,232c0,0,63,85,63,161c0,0,0,80,-57,135c0,0,-58,55,-149,55c0,0,-98,0,-156,-59c0,0,-58,-58,-59,-160L71,782c0,0,15,154,107,235c0,0,93,81,249,81c0,0,157,0,249,-87c0,0,92,-88,92,-217c0,0,0,-65,-27,-129c0,0,-27,-63,-89,-133c0,0,-62,-70,-207,-193C445,339,324,238,290,202c0,0,-35,-36,-57,-73H770V0Z" 
id="f5_m"
transform="scale(0.001,-0.001)" />

<path d="M435,0V856c0,0,-48,-47,-127,-93c0,0,-79,-46,-142,-69V824c0,0,113,52,197,128c0,0,85,75,120,146h86V0Z" 
id="f5_l"
transform="scale(0.001,-0.001)" />


</defs>
</svg>