<?xml version="1.0" encoding="UTF-8" standalone="no"?>
<!DOCTYPE svg PUBLIC "-//W3C//DTD SVG 1.1//EN"
"http://www.w3.org/Graphics/SVG/1.1/DTD/svg11.dtd">
<svg viewBox="0 0 935 1210" version="1.1" xmlns="http://www.w3.org/2000/svg" xmlns:xlink="http://www.w3.org/1999/xlink">
<defs>
<style type="text/css"><![CDATA[
.g0_131{
fill: #FFFFFF;
}
.g1_131{
}
]]></style>
</defs>
<path fill-rule="evenodd" d="M52.8,77.4H882.4V55H52.8V77.4Z" class="g0_131" />
<g fill="#000000" >
<use xlink:href="#f0_39" transform="matrix(12,0,0,12,55,72.4)" />
<use xlink:href="#f0_7z" transform="matrix(12,0,0,12,71.3,72.4)" />
<use xlink:href="#f0_a5" transform="matrix(12,0,0,12,84.7,72.4)" />
<use xlink:href="#f0_af" transform="matrix(12,0,0,12,92.9,72.4)" />
<use xlink:href="#f0_am" transform="matrix(12,0,0,12,102.6,72.4)" />
<use xlink:href="#f0_ci" transform="matrix(12,0,0,12,112.3,72.4)" />
<use xlink:href="#f0_bf" transform="matrix(12,0,0,12,129.5,72.4)" />
<use xlink:href="#f0_9n" transform="matrix(12,0,0,12,135.7,72.4)" />
<use xlink:href="#f0_77" transform="matrix(12,0,0,12,145.3,72.4)" />
<use xlink:href="#f0_bf" transform="matrix(12,0,0,12,154.1,72.4)" />
<use xlink:href="#f1_2j" transform="matrix(12,0,0,12,164.5,72.4)" />
<use xlink:href="#f1_7z" transform="matrix(12,0,0,12,174.7,72.4)" />
<use xlink:href="#f1_7l" transform="matrix(12,0,0,12,183.9,72.4)" />
<use xlink:href="#f1_bf" transform="matrix(12,0,0,12,191.6,72.4)" />
<use xlink:href="#f1_9q" transform="matrix(12,0,0,12,198,72.4)" />
<use xlink:href="#f1_89" transform="matrix(12,0,0,12,202.6,72.4)" />
<use xlink:href="#f1_9q" transform="matrix(12,0,0,12,208.3,72.4)" />
<use xlink:href="#f1_7z" transform="matrix(12,0,0,12,212.8,72.4)" />
<use xlink:href="#f1_b1" transform="matrix(12,0,0,12,222,72.4)" />
<use xlink:href="#f0_7l" transform="matrix(12,0,0,12,232.9,72.4)" />
<use xlink:href="#f0_am" transform="matrix(12,0,0,12,240.4,72.4)" />
<use xlink:href="#f0_af" transform="matrix(12,0,0,12,250,72.4)" />
<use xlink:href="#f0_b5" transform="matrix(12,0,0,12,259.8,72.4)" />
<use xlink:href="#f0_9q" transform="matrix(12,0,0,12,267,72.4)" />
<use xlink:href="#f0_b5" transform="matrix(12,0,0,12,271.2,72.4)" />
<use xlink:href="#f0_bf" transform="matrix(12,0,0,12,278.3,72.4)" />
<use xlink:href="#f0_b5" transform="matrix(12,0,0,12,284.5,72.4)" />
<use xlink:href="#f0_am" transform="matrix(12,0,0,12,295.7,72.4)" />
<use xlink:href="#f0_89" transform="matrix(12,0,0,12,305.4,72.4)" />
<use xlink:href="#f0_77" transform="matrix(12,0,0,12,315.1,72.4)" />
<use xlink:href="#f0_b5" transform="matrix(12,0,0,12,328.1,72.4)" />
<use xlink:href="#f0_9q" transform="matrix(12,0,0,12,335.3,72.4)" />
<use xlink:href="#f0_ae" transform="matrix(12,0,0,12,339.5,72.4)" />
<use xlink:href="#f0_ay" transform="matrix(12,0,0,12,354.2,72.4)" />
<use xlink:href="#f0_a8" transform="matrix(12,0,0,12,363.9,72.4)" />
<use xlink:href="#f0_7z" transform="matrix(12,0,0,12,367.9,72.4)" />
<use xlink:href="#f0_7l" transform="matrix(12,0,0,12,381.3,72.4)" />
<use xlink:href="#f0_9q" transform="matrix(12,0,0,12,389,72.4)" />
<use xlink:href="#f0_b1" transform="matrix(12,0,0,12,393.2,72.4)" />
<use xlink:href="#f0_7l" transform="matrix(12,0,0,12,399.6,72.4)" />
<use xlink:href="#f0_c6" transform="matrix(12,0,0,12,407.3,72.4)" />
<use xlink:href="#f0_9q" transform="matrix(12,0,0,12,417,72.4)" />
<use xlink:href="#f0_bf" transform="matrix(12,0,0,12,421,72.4)" />
<use xlink:href="#f0_nq" transform="matrix(12,0,0,12,427.1,72.4)" />
<use xlink:href="#f0_ci" transform="matrix(12,0,0,12,435.9,72.4)" />
<use xlink:href="#f0_9n" transform="matrix(12,0,0,12,448.9,72.4)" />
<use xlink:href="#f0_9q" transform="matrix(12,0,0,12,458.6,72.4)" />
<use xlink:href="#f0_7l" transform="matrix(12,0,0,12,462.8,72.4)" />
<use xlink:href="#f0_9n" transform="matrix(12,0,0,12,470.5,72.4)" />
<use xlink:href="#f0_9d" transform="matrix(12,0,0,12,484.4,72.4)" />
<use xlink:href="#f0_9q" transform="matrix(12,0,0,12,493,72.4)" />
<use xlink:href="#f0_ch" transform="matrix(12,0,0,12,497.2,72.4)" />
<use xlink:href="#f0_7z" transform="matrix(12,0,0,12,505.5,72.4)" />
<use xlink:href="#f0_b5" transform="matrix(12,0,0,12,514.6,72.4)" />
<use xlink:href="#f0_bf" transform="matrix(12,0,0,12,525.8,72.4)" />
<use xlink:href="#f0_9n" transform="matrix(12,0,0,12,532,72.4)" />
<use xlink:href="#f0_7z" transform="matrix(12,0,0,12,541.6,72.4)" />
<use xlink:href="#f0_9q" transform="matrix(12,0,0,12,554.9,72.4)" />
<use xlink:href="#f0_af" transform="matrix(12,0,0,12,559.1,72.4)" />
<use xlink:href="#f0_ay" transform="matrix(12,0,0,12,568.7,72.4)" />
<use xlink:href="#f0_c6" transform="matrix(12,0,0,12,578.4,72.4)" />
<use xlink:href="#f0_bf" transform="matrix(12,0,0,12,587.9,72.4)" />
<use xlink:href="#f0_77" transform="matrix(12,0,0,12,598.7,72.4)" />
<use xlink:href="#f0_af" transform="matrix(12,0,0,12,607.3,72.4)" />
<use xlink:href="#f0_7v" transform="matrix(12,0,0,12,617,72.4)" />
<use xlink:href="#f0_am" transform="matrix(12,0,0,12,630.7,72.4)" />
<use xlink:href="#f0_c6" transform="matrix(12,0,0,12,640.4,72.4)" />
<use xlink:href="#f0_bf" transform="matrix(12,0,0,12,650,72.4)" />
<use xlink:href="#f0_ay" transform="matrix(12,0,0,12,656.2,72.4)" />
<use xlink:href="#f0_c6" transform="matrix(12,0,0,12,665.9,72.4)" />
<use xlink:href="#f0_bf" transform="matrix(12,0,0,12,675.5,72.4)" />
<use xlink:href="#f0_77" transform="matrix(12,0,0,12,685.9,72.4)" />
<use xlink:href="#f0_b5" transform="matrix(12,0,0,12,694.6,72.4)" />
<use xlink:href="#f0_9q" transform="matrix(12,0,0,12,705.8,72.4)" />
<use xlink:href="#f0_af" transform="matrix(12,0,0,12,710,72.4)" />
<use xlink:href="#f0_7v" transform="matrix(12,0,0,12,719.6,72.4)" />
<use xlink:href="#f0_9q" transform="matrix(12,0,0,12,729.3,72.4)" />
<use xlink:href="#f0_7l" transform="matrix(12,0,0,12,733.5,72.4)" />
<use xlink:href="#f0_77" transform="matrix(12,0,0,12,741.2,72.4)" />
<use xlink:href="#f0_bf" transform="matrix(12,0,0,12,750,72.4)" />
<use xlink:href="#f0_7z" transform="matrix(12,0,0,12,756.2,72.4)" />
<use xlink:href="#f0_7v" transform="matrix(12,0,0,12,765.2,72.4)" />
<use xlink:href="#f0_7k" transform="matrix(12,0,0,12,778.9,72.4)" />
<use xlink:href="#f0_7z" transform="matrix(12,0,0,12,788.5,72.4)" />
<use xlink:href="#f0_a8" transform="matrix(12,0,0,12,797.6,72.4)" />
<use xlink:href="#f0_am" transform="matrix(12,0,0,12,801.8,72.4)" />
<use xlink:href="#f0_ci" transform="matrix(12,0,0,12,811.5,72.4)" />
<use xlink:href="#f0_ns" transform="matrix(12,0,0,12,824.6,72.4)" />
</g>
<path fill-rule="evenodd" d="M164.5,75.7h64.1V74.4H164.5v1.3Z" class="g1_131" />
<path fill-rule="evenodd" d="M52.8,164.5H882.4V77.4H52.8v87.1Z" class="g0_131" />
<path fill-rule="evenodd" d="M52.8,186.8H882.4V164.5H52.8v22.3Z" class="g0_131" />
<g fill="#000000" >
<use xlink:href="#f0_2t" transform="matrix(12,0,0,12,55,181.9)" />
<use xlink:href="#f0_9n" transform="matrix(12,0,0,12,63.9,181.9)" />
<use xlink:href="#f0_7z" transform="matrix(12,0,0,12,73.7,181.9)" />
<use xlink:href="#f1_7z" transform="matrix(12,0,0,12,87.1,181.9)" />
<use xlink:href="#f1_af" transform="matrix(12,0,0,12,96.2,181.9)" />
<use xlink:href="#f1_ch" transform="matrix(12,0,0,12,106.1,181.9)" />
<use xlink:href="#f1_7z" transform="matrix(12,0,0,12,114.8,181.9)" />
<use xlink:href="#f1_a8" transform="matrix(12,0,0,12,123.9,181.9)" />
<use xlink:href="#f1_am" transform="matrix(12,0,0,12,128.5,181.9)" />
<use xlink:href="#f1_ay" transform="matrix(12,0,0,12,138.2,181.9)" />
<use xlink:href="#f1_7z" transform="matrix(12,0,0,12,148.1,181.9)" />
<use xlink:href="#f1_7v" transform="matrix(12,0,0,12,161.4,181.9)" />
<use xlink:href="#f1_7z" transform="matrix(12,0,0,12,171.3,181.9)" />
<use xlink:href="#f1_bf" transform="matrix(12,0,0,12,180.5,181.9)" />
<use xlink:href="#f1_7z" transform="matrix(12,0,0,12,186.9,181.9)" />
<use xlink:href="#f1_7l" transform="matrix(12,0,0,12,196.1,181.9)" />
<use xlink:href="#f1_bf" transform="matrix(12,0,0,12,203.7,181.9)" />
<use xlink:href="#f1_am" transform="matrix(12,0,0,12,210.2,181.9)" />
<use xlink:href="#f1_b1" transform="matrix(12,0,0,12,219.9,181.9)" />
<use xlink:href="#f0_9d" transform="matrix(12,0,0,12,230.8,181.9)" />
<use xlink:href="#f0_9q" transform="matrix(12,0,0,12,239.3,181.9)" />
<use xlink:href="#f0_ch" transform="matrix(12,0,0,12,243.5,181.9)" />
<use xlink:href="#f0_7z" transform="matrix(12,0,0,12,251.8,181.9)" />
<use xlink:href="#f0_b5" transform="matrix(12,0,0,12,260.9,181.9)" />
<use xlink:href="#f0_bf" transform="matrix(12,0,0,12,272.3,181.9)" />
<use xlink:href="#f0_9n" transform="matrix(12,0,0,12,278.5,181.9)" />
<use xlink:href="#f0_7z" transform="matrix(12,0,0,12,288,181.9)" />
<use xlink:href="#f0_7z" transform="matrix(12,0,0,12,301.4,181.9)" />
<use xlink:href="#f0_af" transform="matrix(12,0,0,12,310.4,181.9)" />
<use xlink:href="#f0_ch" transform="matrix(12,0,0,12,320.1,181.9)" />
<use xlink:href="#f0_7z" transform="matrix(12,0,0,12,328.3,181.9)" />
<use xlink:href="#f0_a8" transform="matrix(12,0,0,12,337.5,181.9)" />
<use xlink:href="#f0_am" transform="matrix(12,0,0,12,341.7,181.9)" />
<use xlink:href="#f0_ay" transform="matrix(12,0,0,12,351.2,181.9)" />
<use xlink:href="#f0_7z" transform="matrix(12,0,0,12,360.9,181.9)" />
<use xlink:href="#f0_am" transform="matrix(12,0,0,12,374.3,181.9)" />
<use xlink:href="#f0_89" transform="matrix(12,0,0,12,383.8,181.9)" />
<use xlink:href="#f0_bf" transform="matrix(12,0,0,12,393.5,181.9)" />
<use xlink:href="#f0_9n" transform="matrix(12,0,0,12,399.7,181.9)" />
<use xlink:href="#f0_7z" transform="matrix(12,0,0,12,409.4,181.9)" />
<use xlink:href="#f0_9d" transform="matrix(12,0,0,12,422.4,181.9)" />
<use xlink:href="#f0_9q" transform="matrix(12,0,0,12,431.1,181.9)" />
<use xlink:href="#f0_ch" transform="matrix(12,0,0,12,435.3,181.9)" />
<use xlink:href="#f0_7z" transform="matrix(12,0,0,12,443.5,181.9)" />
<use xlink:href="#f0_af" transform="matrix(12,0,0,12,452.7,181.9)" />
<use xlink:href="#f0_b5" transform="matrix(12,0,0,12,466.6,181.9)" />
<use xlink:href="#f0_9q" transform="matrix(12,0,0,12,473.8,181.9)" />
<use xlink:href="#f0_9d" transform="matrix(12,0,0,12,478,181.9)" />
<use xlink:href="#f0_af" transform="matrix(12,0,0,12,486.6,181.9)" />
<use xlink:href="#f0_77" transform="matrix(12,0,0,12,496.3,181.9)" />
<use xlink:href="#f0_a8" transform="matrix(12,0,0,12,505.1,181.9)" />
</g>
<path fill-rule="evenodd" d="M87.1,185.2H226.6v-1.3H87.1v1.3Z" class="g1_131" />
<path fill-rule="evenodd" d="M52.8,309.9H882.4V186.8H52.8V309.9Z" class="g0_131" />
<path fill-rule="evenodd" d="M52.8,332.2H882.4V309.9H52.8v22.3Z" class="g0_131" />
<path fill-rule="evenodd" d="M52.8,354.6H882.4V332.2H52.8v22.4Z" class="g0_131" />
<g fill="#000000" >
<use xlink:href="#f0_i" transform="matrix(12,0,0,12,55,349.6)" />
<use xlink:href="#f0_a8" transform="matrix(12,0,0,12,64.9,349.6)" />
<use xlink:href="#f0_am" transform="matrix(12,0,0,12,69.1,349.6)" />
<use xlink:href="#f0_7l" transform="matrix(12,0,0,12,78.8,349.6)" />
<use xlink:href="#f0_a5" transform="matrix(12,0,0,12,86.5,349.6)" />
<use xlink:href="#f0_p" transform="matrix(12,0,0,12,99,349.6)" />
<use xlink:href="#f0_9q" transform="matrix(12,0,0,12,110.3,349.6)" />
<use xlink:href="#f0_77" transform="matrix(12,0,0,12,114.5,349.6)" />
<use xlink:href="#f0_9d" transform="matrix(12,0,0,12,123.3,349.6)" />
<use xlink:href="#f0_b1" transform="matrix(12,0,0,12,132,349.6)" />
<use xlink:href="#f0_77" transform="matrix(12,0,0,12,138.4,349.6)" />
<use xlink:href="#f0_ae" transform="matrix(12,0,0,12,147.1,349.6)" />
<use xlink:href="#f0_89" transform="matrix(12,0,0,12,166,349.6)" />
<use xlink:href="#f0_am" transform="matrix(12,0,0,12,171.5,349.6)" />
<use xlink:href="#f0_b1" transform="matrix(12,0,0,12,181.2,349.6)" />
<use xlink:href="#f0_p" transform="matrix(12,0,0,12,191.7,349.6)" />
<use xlink:href="#f0_7z" transform="matrix(12,0,0,12,203,349.6)" />
<use xlink:href="#f0_bf" transform="matrix(12,0,0,12,212.2,349.6)" />
<use xlink:href="#f0_7z" transform="matrix(12,0,0,12,218.3,349.6)" />
<use xlink:href="#f0_7l" transform="matrix(12,0,0,12,227.4,349.6)" />
<use xlink:href="#f0_bf" transform="matrix(12,0,0,12,235.1,349.6)" />
<use xlink:href="#f0_9q" transform="matrix(12,0,0,12,241.2,349.6)" />
<use xlink:href="#f0_am" transform="matrix(12,0,0,12,245.4,349.6)" />
<use xlink:href="#f0_af" transform="matrix(12,0,0,12,255,349.6)" />
<use xlink:href="#f0_am" transform="matrix(12,0,0,12,269,349.6)" />
<use xlink:href="#f0_89" transform="matrix(12,0,0,12,278.5,349.6)" />
<use xlink:href="#f0_5" transform="matrix(12,0,0,12,288.4,349.6)" />
<use xlink:href="#f0_ae" transform="matrix(12,0,0,12,298.8,349.6)" />
<use xlink:href="#f0_ay" transform="matrix(12,0,0,12,313.5,349.6)" />
<use xlink:href="#f0_a8" transform="matrix(12,0,0,12,323.2,349.6)" />
<use xlink:href="#f0_9q" transform="matrix(12,0,0,12,327.4,349.6)" />
<use xlink:href="#f0_bf" transform="matrix(12,0,0,12,331.4,349.6)" />
<use xlink:href="#f0_c6" transform="matrix(12,0,0,12,337.7,349.6)" />
<use xlink:href="#f0_7v" transform="matrix(12,0,0,12,347.2,349.6)" />
<use xlink:href="#f0_7z" transform="matrix(12,0,0,12,356.9,349.6)" />
<use xlink:href="#f0_ae" transform="matrix(12,0,0,12,370.3,349.6)" />
<use xlink:href="#f0_am" transform="matrix(12,0,0,12,384.7,349.6)" />
<use xlink:href="#f0_7v" transform="matrix(12,0,0,12,394.4,349.6)" />
<use xlink:href="#f0_c6" transform="matrix(12,0,0,12,404.2,349.6)" />
<use xlink:href="#f0_a8" transform="matrix(12,0,0,12,413.9,349.6)" />
<use xlink:href="#f0_77" transform="matrix(12,0,0,12,417.9,349.6)" />
<use xlink:href="#f0_bf" transform="matrix(12,0,0,12,426.5,349.6)" />
<use xlink:href="#f0_7z" transform="matrix(12,0,0,12,432.7,349.6)" />
<use xlink:href="#f0_7v" transform="matrix(12,0,0,12,441.9,349.6)" />
<use xlink:href="#f0_ci" transform="matrix(12,0,0,12,455.6,349.6)" />
<use xlink:href="#f0_77" transform="matrix(12,0,0,12,468.6,349.6)" />
<use xlink:href="#f0_ch" transform="matrix(12,0,0,12,477.4,349.6)" />
<use xlink:href="#f0_7z" transform="matrix(12,0,0,12,485.7,349.6)" />
</g>
<path fill-rule="evenodd" d="M52.8,588.4H882.4V354.6H52.8V588.4Z" class="g0_131" />
<image preserveAspectRatio="none" x="57" y="77" width="459" height="87" xlink:href="img/1.png" />
<image preserveAspectRatio="none" x="57" y="187" width="448" height="118" xlink:href="img/2.png" />
<image preserveAspectRatio="none" x="57" y="355" width="516" height="233" xlink:href="img/3.png" />
<g fill="#000000" >
<use xlink:href="#f2_l" transform="matrix(8,0,0,8,811.4,1187.9)" />
<use xlink:href="#f2_k" transform="matrix(8,0,0,8,818.2,1187.9)" />
</g>
<defs>
<path d="M398,-4c0,0,-25,0,-41,2c0,0,-17,1,-27,3c0,0,-11,4,-16,10c0,0,-6,6,-8,17L51,920c0,0,-5,17,-5,27c0,0,0,10,6,15c0,0,6,5,20,6c0,0,15,2,38,2c0,0,24,0,37,-1c0,0,13,-1,20,-4c0,0,8,-3,10,-8c0,0,3,-6,4,-14L398,134h1L605,942c0,0,2,8,6,13c0,0,3,6,10,9c0,0,8,3,22,4c0,0,13,2,36,2c0,0,21,0,33,-2c0,0,12,-1,20,-4c0,0,7,-3,11,-9c0,0,3,-5,5,-13L970,134h1l213,808c0,0,2,8,4,13c0,0,3,6,10,9c0,0,7,3,20,4c0,0,13,2,35,2c0,0,22,0,35,-2c0,0,13,-2,19,-7c0,0,6,-5,6,-15c0,0,-1,-10,-5,-27L1053,28c0,0,-3,-11,-9,-17c0,0,-6,-6,-17,-10c0,0,-10,-2,-26,-3c0,0,-15,-2,-37,-2c0,0,-23,0,-39,2c0,0,-16,1,-27,3c0,0,-10,4,-15,10c0,0,-6,6,-9,17L672,757h-1L484,28c0,0,-2,-11,-7,-17c0,0,-6,-6,-15,-10c0,0,-10,-2,-25,-3c0,0,-16,-2,-39,-2Z" 
id="f0_39"
transform="scale(0.001,-0.001)" />

<path d="M564,420c0,0,2,98,-43,153c0,0,-46,56,-134,56c0,0,-46,0,-80,-18c0,0,-35,-17,-58,-45c0,0,-23,-29,-36,-67c0,0,-12,-37,-14,-79ZM405,-13c0,0,-83,0,-145,22c0,0,-62,24,-105,69c0,0,-42,46,-64,114c0,0,-22,69,-22,160c0,0,0,87,23,156c0,0,22,69,64,117c0,0,43,48,102,74c0,0,60,26,134,26c0,0,79,0,135,-26c0,0,55,-25,91,-68c0,0,36,-43,53,-101c0,0,16,-58,16,-123V384c0,0,0,-29,-14,-41c0,0,-15,-13,-33,-13H199c0,0,0,-56,11,-100c0,0,12,-45,38,-77c0,0,26,-33,68,-50c0,0,41,-17,102,-17c0,0,48,0,85,8c0,0,37,8,65,17c0,0,27,10,44,18c0,0,18,8,27,8c0,0,5,0,9,-3c0,0,4,-2,7,-8c0,0,2,-5,3,-14c0,0,1,-9,1,-23c0,0,0,-9,-1,-16c0,0,0,-8,-2,-13c0,0,-1,-6,-3,-10c0,0,-3,-5,-7,-9c0,0,-4,-4,-24,-13c0,0,-20,-10,-53,-18c0,0,-32,-9,-74,-16c0,0,-42,-7,-90,-7Z" 
id="f0_7z"
transform="scale(0.001,-0.001)" />

<path d="M176,-4c0,0,-18,0,-30,2c0,0,-12,1,-19,3c0,0,-7,3,-10,7c0,0,-3,4,-3,10v997c0,0,0,6,3,11c0,0,3,4,10,7c0,0,7,3,19,5c0,0,12,1,30,1c0,0,18,0,30,-1c0,0,12,-2,19,-5c0,0,7,-3,9,-7c0,0,3,-5,3,-11V408L492,687c0,0,6,7,12,12c0,0,7,5,16,8c0,0,10,4,22,5c0,0,13,1,31,1c0,0,19,0,31,-1c0,0,13,-1,21,-4c0,0,8,-3,11,-7c0,0,3,-4,3,-11c0,0,0,-9,-4,-18c0,0,-5,-8,-16,-20L375,408L648,54c0,0,10,-13,14,-20c0,0,4,-8,4,-15c0,0,0,-6,-3,-10c0,0,-3,-5,-10,-8c0,0,-7,-2,-20,-3c0,0,-13,-2,-32,-2c0,0,-20,0,-33,1c0,0,-13,1,-22,3c0,0,-9,3,-15,7c0,0,-5,5,-10,12L237,391V18c0,0,0,-6,-3,-10c0,0,-2,-4,-9,-7c0,0,-7,-2,-19,-3c0,0,-12,-2,-30,-2Z" 
id="f0_a5"
transform="scale(0.001,-0.001)" />

<path d="M176,-4c0,0,-18,0,-30,2c0,0,-12,1,-19,3c0,0,-7,3,-10,7c0,0,-3,4,-3,10V690c0,0,0,6,3,10c0,0,2,4,9,7c0,0,6,4,17,5c0,0,10,1,27,1c0,0,17,0,28,-1c0,0,10,-1,16,-5c0,0,6,-3,9,-7c0,0,3,-4,3,-10V601c0,0,56,64,112,94c0,0,57,30,114,30c0,0,67,0,113,-23c0,0,46,-23,74,-61c0,0,29,-38,41,-89c0,0,12,-52,12,-123V18c0,0,0,-6,-3,-10c0,0,-3,-4,-9,-7c0,0,-7,-2,-19,-3c0,0,-12,-2,-30,-2c0,0,-19,0,-30,2c0,0,-12,1,-19,3c0,0,-7,3,-10,7c0,0,-3,4,-3,10V412c0,0,0,58,-9,93c0,0,-9,35,-26,61c0,0,-17,25,-44,38c0,0,-27,14,-63,14c0,0,-46,0,-93,-33c0,0,-46,-33,-97,-96V18c0,0,0,-6,-3,-10c0,0,-2,-4,-9,-7c0,0,-7,-2,-19,-3c0,0,-12,-2,-30,-2Z" 
id="f0_af"
transform="scale(0.001,-0.001)" />

<path d="M401,90c0,0,54,0,93,19c0,0,40,20,65,55c0,0,26,35,37,84c0,0,12,48,12,106c0,0,0,55,-10,104c0,0,-10,48,-33,85c0,0,-23,36,-62,58c0,0,-40,21,-99,21c0,0,-54,0,-93,-20c0,0,-39,-19,-65,-54c0,0,-25,-36,-37,-85c0,0,-12,-48,-12,-106c0,0,0,-55,10,-103c0,0,10,-49,33,-85c0,0,24,-36,63,-58c0,0,39,-21,98,-21ZM395,-13c0,0,-82,0,-144,24c0,0,-61,25,-102,72c0,0,-41,47,-61,114c0,0,-21,67,-21,152c0,0,0,82,22,151c0,0,21,69,64,119c0,0,43,50,107,78c0,0,64,28,150,28c0,0,82,0,144,-25c0,0,61,-25,102,-72c0,0,41,-47,62,-114c0,0,20,-67,20,-151c0,0,0,-83,-21,-152c0,0,-22,-69,-65,-119C652,92,609,42,545,14c0,0,-65,-27,-150,-27Z" 
id="f0_am"
transform="scale(0.001,-0.001)" />

<path d="M324,-4c0,0,-23,0,-37,2c0,0,-15,1,-24,3c0,0,-9,3,-14,8c0,0,-4,6,-7,13L46,660c0,0,-4,11,-5,18c0,0,-2,8,-2,13c0,0,0,7,3,11c0,0,3,4,10,7c0,0,8,2,19,3c0,0,12,1,30,1c0,0,20,0,33,-1c0,0,13,-1,20,-4c0,0,6,-3,9,-8c0,0,3,-4,5,-11L330,136l2,-7l1,7L482,689c0,0,1,7,5,11c0,0,3,5,10,8c0,0,6,3,18,4c0,0,12,1,31,1c0,0,18,0,29,-1c0,0,12,-1,18,-4c0,0,7,-3,10,-7c0,0,3,-5,5,-11L768,136l1,-7l1,7L930,689c0,0,1,7,5,11c0,0,3,5,10,8c0,0,7,3,20,4c0,0,12,1,31,1c0,0,18,0,29,-1c0,0,11,-1,17,-4c0,0,6,-3,9,-6c0,0,3,-4,3,-11c0,0,0,-5,-2,-13c0,0,-1,-7,-5,-18L849,22c0,0,-2,-8,-7,-13c0,0,-5,-6,-13,-9c0,0,-9,-2,-24,-3c0,0,-15,-1,-37,-1c0,0,-23,0,-39,2c0,0,-15,1,-25,3c0,0,-9,3,-14,8c0,0,-4,6,-6,13L543,510l-2,6l-2,-6L409,22c0,0,-3,-8,-7,-13c0,0,-5,-6,-15,-9c0,0,-10,-2,-25,-3c0,0,-15,-1,-38,-1Z" 
id="f0_ci"
transform="scale(0.001,-0.001)" />

<path d="M339,-13c0,0,-52,0,-90,13c0,0,-37,14,-61,42c0,0,-24,28,-34,71c0,0,-11,43,-11,101V607H49c0,0,-11,0,-18,12c0,0,-7,12,-7,39c0,0,0,14,2,24c0,0,2,10,5,16c0,0,3,7,8,9c0,0,5,3,11,3h93V870c0,0,0,5,2,9c0,0,3,5,10,8c0,0,7,4,19,5c0,0,12,2,30,2c0,0,19,0,31,-2c0,0,11,-1,18,-5c0,0,7,-3,10,-8c0,0,3,-4,3,-9V710H438c0,0,6,0,10,-3c0,0,5,-2,8,-9c0,0,4,-6,5,-16c0,0,1,-10,1,-24c0,0,0,-27,-6,-39c0,0,-7,-12,-18,-12H266V232c0,0,0,-69,20,-105c0,0,21,-35,74,-35c0,0,17,0,30,3c0,0,14,4,24,7c0,0,10,4,18,7c0,0,7,4,13,4c0,0,4,0,7,-2c0,0,4,-2,6,-7c0,0,2,-5,3,-14c0,0,1,-9,1,-23c0,0,0,-22,-2,-34c0,0,-3,-13,-9,-19c0,0,-6,-6,-18,-11c0,0,-12,-4,-28,-8c0,0,-15,-3,-32,-5c0,0,-17,-3,-34,-3Z" 
id="f0_bf"
transform="scale(0.001,-0.001)" />

<path d="M176,-4c0,0,-18,0,-30,2c0,0,-12,1,-19,3c0,0,-7,3,-10,7c0,0,-3,4,-3,10v997c0,0,0,6,3,11c0,0,3,4,10,7c0,0,7,3,19,5c0,0,12,1,30,1c0,0,18,0,30,-1c0,0,12,-2,19,-5c0,0,7,-3,9,-7c0,0,3,-5,3,-10V614c0,0,53,56,107,83c0,0,54,28,108,28c0,0,67,0,113,-23c0,0,46,-23,74,-61c0,0,29,-38,41,-89c0,0,12,-52,12,-124V18c0,0,0,-6,-3,-10c0,0,-3,-4,-9,-7c0,0,-7,-2,-19,-3c0,0,-12,-2,-30,-2c0,0,-19,0,-30,2c0,0,-12,1,-19,3c0,0,-7,3,-10,7c0,0,-3,4,-3,10V412c0,0,0,58,-9,93c0,0,-9,35,-26,61c0,0,-17,25,-44,38c0,0,-27,14,-63,14c0,0,-46,0,-93,-33c0,0,-46,-33,-97,-96V18c0,0,0,-6,-3,-10c0,0,-2,-4,-9,-7c0,0,-7,-2,-19,-3c0,0,-12,-2,-30,-2Z" 
id="f0_9n"
transform="scale(0.001,-0.001)" />

<path d="M321,82c0,0,48,0,90,25c0,0,41,24,87,75V325H392c0,0,-50,0,-88,-9c0,0,-37,-9,-62,-25c0,0,-24,-17,-36,-41c0,0,-11,-23,-11,-54c0,0,0,-52,33,-83c0,0,33,-31,93,-31ZM301,-13c0,0,-53,0,-96,13c0,0,-43,14,-73,40c0,0,-30,26,-47,64c0,0,-17,38,-17,87c0,0,0,56,24,98c0,0,23,42,66,69c0,0,43,28,106,42c0,0,63,14,141,14h93v52c0,0,0,39,-9,69c0,0,-8,30,-26,50c0,0,-18,20,-47,30c0,0,-30,10,-72,10c0,0,-46,0,-82,-11c0,0,-36,-11,-63,-24c0,0,-27,-13,-46,-24c0,0,-18,-11,-27,-11c0,0,-6,0,-10,3c0,0,-5,3,-8,9c0,0,-3,6,-5,16c0,0,-1,9,-1,20c0,0,0,19,2,30c0,0,3,11,13,20c0,0,10,10,35,23c0,0,24,13,56,24c0,0,32,10,70,17c0,0,38,8,77,8c0,0,73,0,123,-17c0,0,51,-16,82,-48c0,0,32,-32,46,-79c0,0,14,-47,14,-110V18c0,0,0,-9,-6,-14c0,0,-6,-4,-16,-6c0,0,-11,-2,-31,-2c0,0,-19,0,-31,2c0,0,-12,2,-17,6c0,0,-5,5,-5,13V85c0,0,-44,-47,-98,-73c0,0,-54,-25,-115,-25Z" 
id="f0_77"
transform="scale(0.001,-0.001)" />

<path d="M402,542c0,0,41,0,72,10c0,0,32,10,52,28c0,0,21,18,32,44c0,0,10,25,10,56c0,0,0,48,-21,81c0,0,-22,33,-71,46c0,0,-15,4,-34,6c0,0,-19,2,-52,2H302V542ZM203,-4c0,0,-28,0,-47,2c0,0,-19,2,-30,5c0,0,-11,4,-16,10c0,0,-4,6,-4,13V903c0,0,0,33,16,48c0,0,17,14,42,14H414c0,0,38,0,62,-1c0,0,25,-2,45,-4c0,0,58,-8,105,-28c0,0,46,-21,79,-53c0,0,32,-32,49,-77c0,0,17,-44,17,-101c0,0,0,-49,-12,-89c0,0,-12,-40,-36,-71c0,0,-24,-31,-59,-54c0,0,-35,-23,-80,-38c0,0,22,-10,41,-25c0,0,19,-15,36,-36c0,0,17,-22,31,-49c0,0,15,-27,30,-61L803,87c0,0,11,-28,15,-41c0,0,3,-14,3,-21c0,0,0,-8,-3,-14c0,0,-3,-5,-14,-9c0,0,-11,-3,-33,-4c0,0,-21,-2,-59,-2c0,0,-31,0,-50,2c0,0,-18,1,-29,4c0,0,-11,4,-15,11c0,0,-5,6,-8,15L524,244c0,0,-16,37,-31,65c0,0,-14,28,-33,48c0,0,-18,19,-42,28c0,0,-24,10,-55,10H302V27c0,0,0,-8,-5,-14c0,0,-5,-6,-16,-10c0,0,-11,-3,-30,-5c0,0,-18,-2,-48,-2Z" 
id="f1_2j"
transform="scale(0.001,-0.001)" />

<path d="M526,431c0,0,2,79,-32,124c0,0,-34,45,-105,45c0,0,-35,0,-62,-13c0,0,-26,-13,-44,-36c0,0,-17,-23,-27,-54c0,0,-9,-31,-11,-66ZM410,-17c0,0,-88,0,-155,22c0,0,-67,22,-112,68c0,0,-44,45,-66,115c0,0,-22,69,-22,162c0,0,0,89,23,161c0,0,23,71,67,120c0,0,44,50,107,76c0,0,63,26,142,26c0,0,84,0,143,-24c0,0,59,-25,97,-69c0,0,38,-43,56,-103c0,0,18,-60,18,-130V377c0,0,0,-34,-15,-51c0,0,-16,-16,-43,-16H245c0,0,0,-43,10,-77c0,0,11,-35,33,-59c0,0,22,-24,56,-37c0,0,35,-13,83,-13c0,0,50,0,87,7c0,0,37,8,65,16c0,0,27,9,45,16c0,0,18,7,29,7c0,0,6,0,11,-2c0,0,4,-3,7,-10c0,0,3,-7,4,-19c0,0,2,-12,2,-31c0,0,0,-16,-1,-28c0,0,-1,-12,-2,-20c0,0,-2,-8,-5,-14c0,0,-3,-5,-8,-10c0,0,-5,-6,-26,-15c0,0,-22,-9,-55,-17c0,0,-34,-8,-77,-14c0,0,-43,-7,-93,-7Z" 
id="f1_7z"
transform="scale(0.001,-0.001)" />

<path d="M371,-16c0,0,-77,0,-136,23c0,0,-60,24,-100,71c0,0,-40,47,-61,114c0,0,-20,67,-20,154c0,0,0,100,25,173c0,0,25,72,69,120c0,0,45,48,106,71c0,0,62,23,135,23c0,0,29,0,58,-5c0,0,29,-5,54,-14c0,0,25,-9,45,-20c0,0,19,-12,28,-20c0,0,8,-8,11,-14c0,0,3,-5,5,-14c0,0,2,-9,3,-22c0,0,1,-13,1,-32c0,0,0,-43,-7,-61c0,0,-7,-18,-19,-18c0,0,-13,0,-27,11c0,0,-14,10,-34,23c0,0,-19,13,-46,23c0,0,-27,11,-64,11c0,0,-73,0,-112,-57c0,0,-39,-56,-39,-165c0,0,0,-54,10,-95c0,0,10,-41,29,-69c0,0,19,-28,47,-41c0,0,29,-14,67,-14c0,0,39,0,67,11c0,0,28,12,49,26c0,0,21,14,35,26c0,0,14,11,24,11c0,0,6,0,11,-4c0,0,4,-3,7,-13c0,0,2,-11,4,-26c0,0,1,-16,1,-41c0,0,0,-19,-1,-32c0,0,-1,-13,-3,-22c0,0,-2,-9,-4,-15c0,0,-3,-5,-12,-14c0,0,-9,-8,-30,-20C547,27,525,14,497,5c0,0,-27,-9,-60,-15c0,0,-32,-6,-66,-6Z" 
id="f1_7l"
transform="scale(0.001,-0.001)" />

<path d="M344,-14c0,0,-56,0,-97,14c0,0,-42,14,-69,43c0,0,-26,29,-39,74c0,0,-13,45,-13,106V563H47c0,0,-15,0,-22,18c0,0,-7,17,-7,58c0,0,0,22,1,37c0,0,2,15,6,24c0,0,4,8,9,12c0,0,6,4,13,4h79V864c0,0,0,8,4,14c0,0,4,6,15,10c0,0,11,4,29,6c0,0,19,2,46,2c0,0,27,0,46,-2c0,0,18,-2,28,-6c0,0,11,-4,15,-10c0,0,5,-6,5,-14V716H459c0,0,7,0,13,-4c0,0,6,-4,9,-12c0,0,4,-9,6,-24c0,0,2,-15,2,-37c0,0,0,-41,-8,-58c0,0,-7,-18,-21,-18H314V251c0,0,0,-54,17,-81c0,0,17,-27,61,-27c0,0,15,0,27,2c0,0,12,3,22,6c0,0,9,4,15,6c0,0,7,3,12,3c0,0,4,0,9,-3c0,0,4,-2,6,-10c0,0,2,-8,4,-21c0,0,2,-14,2,-35c0,0,0,-33,-4,-50c0,0,-4,-18,-11,-25c0,0,-7,-7,-20,-12c0,0,-13,-5,-31,-9c0,0,-17,-4,-38,-6c0,0,-20,-3,-41,-3Z" 
id="f1_bf"
transform="scale(0.001,-0.001)" />

<path d="M188,-4c0,0,-28,0,-46,2c0,0,-18,2,-28,5c0,0,-11,3,-16,9c0,0,-4,5,-4,13V689c0,0,0,8,4,13c0,0,5,6,16,10c0,0,10,4,28,6c0,0,18,3,46,3c0,0,27,0,45,-3c0,0,18,-2,29,-6c0,0,11,-4,15,-10c0,0,5,-5,5,-13V25c0,0,0,-8,-5,-13c0,0,-4,-6,-15,-9c0,0,-11,-3,-29,-5c0,0,-18,-2,-45,-2Zm-1,820c0,0,-63,0,-85,21c0,0,-22,21,-22,75c0,0,0,57,23,79c0,0,23,22,86,22c0,0,63,0,85,-21c0,0,22,-21,22,-76c0,0,0,-56,-23,-78c0,0,-23,-22,-86,-22Z" 
id="f1_9q"
transform="scale(0.001,-0.001)" />

<path d="M224,-4c0,0,-26,0,-45,2c0,0,-18,2,-29,5c0,0,-11,3,-15,9c0,0,-4,5,-4,13V563H48c0,0,-14,0,-21,18c0,0,-7,17,-7,58c0,0,0,22,1,37c0,0,2,15,6,24c0,0,3,8,9,12c0,0,5,4,13,4h82v56c0,0,0,68,13,119c0,0,14,51,43,85c0,0,29,34,73,51c0,0,45,17,105,17c0,0,29,0,55,-5c0,0,27,-4,42,-10c0,0,15,-6,20,-10c0,0,5,-5,8,-15c0,0,4,-9,5,-23c0,0,2,-15,2,-37c0,0,0,-21,-2,-34c0,0,-1,-13,-4,-20c0,0,-3,-7,-7,-10c0,0,-4,-3,-8,-3c0,0,-5,0,-12,3c0,0,-6,3,-16,6c0,0,-9,2,-22,5c0,0,-12,3,-29,3c0,0,-21,0,-35,-7c0,0,-15,-6,-25,-20c0,0,-9,-14,-14,-36c0,0,-4,-22,-4,-54V716H440c0,0,7,0,13,-4c0,0,5,-4,9,-12c0,0,4,-9,5,-24c0,0,2,-15,2,-37c0,0,0,-41,-7,-58c0,0,-8,-18,-22,-18H319V25c0,0,0,-8,-5,-13c0,0,-4,-6,-15,-9c0,0,-10,-3,-29,-5c0,0,-19,-2,-46,-2Z" 
id="f1_89"
transform="scale(0.001,-0.001)" />

<path d="M188,-4c0,0,-28,0,-46,2c0,0,-18,2,-28,5c0,0,-11,3,-16,9c0,0,-4,5,-4,13V691c0,0,0,7,4,13c0,0,3,5,13,9c0,0,10,4,25,6c0,0,15,2,38,2c0,0,24,0,40,-2c0,0,15,-2,24,-6c0,0,9,-4,12,-9c0,0,4,-6,4,-13V608c0,0,26,37,49,61c0,0,23,25,44,39c0,0,21,14,42,20c0,0,21,5,42,5c0,0,10,0,21,-1c0,0,11,-1,23,-4c0,0,12,-2,21,-5c0,0,9,-4,13,-8c0,0,4,-3,6,-8c0,0,2,-4,3,-12c0,0,2,-8,2,-24c0,0,1,-15,1,-42c0,0,0,-27,-1,-44c0,0,-2,-17,-5,-27c0,0,-3,-10,-8,-13c0,0,-5,-4,-12,-4c0,0,-6,0,-13,3c0,0,-8,2,-17,5c0,0,-10,3,-21,6c0,0,-11,2,-24,2c0,0,-16,0,-32,-6c0,0,-15,-6,-32,-20c0,0,-17,-13,-35,-36c0,0,-19,-22,-39,-55V25c0,0,0,-8,-5,-13c0,0,-4,-6,-15,-9c0,0,-11,-3,-29,-5c0,0,-18,-2,-45,-2Z" 
id="f1_b1"
transform="scale(0.001,-0.001)" />

<path d="M367,-13c0,0,-73,0,-129,23c0,0,-56,24,-93,70c0,0,-38,46,-58,112c0,0,-20,67,-20,154c0,0,0,99,25,171c0,0,24,71,66,116c0,0,42,46,99,68c0,0,58,22,124,22c0,0,32,0,62,-6c0,0,31,-6,56,-16c0,0,25,-10,45,-22c0,0,20,-13,29,-22c0,0,9,-9,12,-14c0,0,3,-5,6,-13c0,0,2,-7,3,-16c0,0,0,-9,0,-22c0,0,0,-29,-6,-41c0,0,-7,-11,-17,-11c0,0,-11,0,-25,12c0,0,-15,12,-37,27c0,0,-23,15,-55,28c0,0,-31,12,-75,12c0,0,-88,0,-136,-68c0,0,-47,-68,-47,-198c0,0,0,-65,12,-114c0,0,12,-49,36,-81c0,0,24,-33,59,-49c0,0,35,-16,79,-16c0,0,43,0,75,13c0,0,32,14,56,30c0,0,23,16,39,29c0,0,16,13,25,13c0,0,5,0,9,-3c0,0,4,-3,7,-10c0,0,2,-7,3,-18c0,0,1,-11,1,-26c0,0,0,-12,0,-22c0,0,-1,-9,-3,-15c0,0,-2,-7,-4,-12c0,0,-3,-4,-12,-14c0,0,-10,-9,-32,-23c0,0,-22,-14,-50,-24C496,11,468,0,435,-6c0,0,-33,-7,-68,-7Z" 
id="f0_7l"
transform="scale(0.001,-0.001)" />

<path d="M272,-13c0,0,-35,0,-68,6c0,0,-32,6,-58,13c0,0,-26,9,-44,18c0,0,-17,10,-26,17c0,0,-8,8,-12,21c0,0,-3,14,-3,37c0,0,0,14,1,24c0,0,2,9,4,15c0,0,2,6,6,9c0,0,4,3,10,3c0,0,8,0,24,-11c0,0,16,-10,39,-22c0,0,24,-12,56,-22c0,0,32,-10,74,-10c0,0,31,0,56,7c0,0,26,6,44,19c0,0,19,14,29,34c0,0,10,20,10,47c0,0,0,29,-14,48c0,0,-15,19,-39,34c0,0,-24,15,-53,27c0,0,-30,11,-62,24c0,0,-32,13,-62,29c0,0,-30,16,-54,39c0,0,-24,23,-38,55c0,0,-15,32,-15,77c0,0,0,40,16,76c0,0,15,36,45,63c0,0,31,28,77,44c0,0,46,17,107,17c0,0,27,0,54,-5c0,0,26,-5,48,-11c0,0,22,-7,37,-15c0,0,15,-8,23,-14c0,0,8,-6,11,-11c0,0,2,-4,3,-10c0,0,1,-5,2,-14c0,0,2,-8,2,-20c0,0,0,-12,-2,-22c0,0,-1,-9,-3,-15c0,0,-3,-6,-7,-8c0,0,-3,-3,-8,-3c0,0,-7,0,-19,8c0,0,-13,8,-33,18c0,0,-20,9,-47,17c0,0,-28,9,-63,9c0,0,-31,0,-55,-7c0,0,-24,-7,-39,-20c0,0,-15,-13,-23,-31c0,0,-8,-18,-8,-39c0,0,0,-29,15,-49c0,0,15,-20,39,-35c0,0,24,-15,54,-27c0,0,31,-11,62,-24c0,0,32,-13,63,-29c0,0,31,-15,55,-38c0,0,24,-22,38,-53c0,0,15,-32,15,-75c0,0,0,-51,-19,-92c0,0,-19,-40,-54,-68C463,42,428,15,379,1c0,0,-48,-14,-107,-14Z" 
id="f0_b5"
transform="scale(0.001,-0.001)" />

<path d="M176,-4c0,0,-18,0,-30,2c0,0,-12,1,-19,3c0,0,-7,3,-10,7c0,0,-3,4,-3,10V690c0,0,0,5,3,9c0,0,3,5,10,8c0,0,7,3,19,4c0,0,12,2,30,2c0,0,18,0,30,-2c0,0,12,-1,19,-4c0,0,7,-3,9,-8c0,0,3,-4,3,-9V18c0,0,0,-6,-3,-10c0,0,-2,-4,-9,-7c0,0,-7,-2,-19,-3c0,0,-12,-2,-30,-2Zm-1,846c0,0,-43,0,-59,15c0,0,-16,15,-16,58c0,0,0,43,16,59c0,0,17,16,61,16c0,0,43,0,59,-16c0,0,16,-15,16,-58c0,0,0,-43,-16,-58c0,0,-17,-16,-61,-16Z" 
id="f0_9q"
transform="scale(0.001,-0.001)" />

<path d="M209,-4c0,0,-18,0,-30,2c0,0,-12,1,-19,3c0,0,-7,3,-10,7c0,0,-3,4,-3,10V607H52c0,0,-12,0,-18,12c0,0,-6,12,-6,39c0,0,0,14,2,24c0,0,1,10,4,16c0,0,3,7,8,9c0,0,4,3,10,3h95v69c0,0,0,71,13,121c0,0,13,50,40,82c0,0,27,33,67,48c0,0,41,15,96,15c0,0,26,0,51,-5c0,0,25,-4,38,-10c0,0,13,-6,18,-10c0,0,4,-5,7,-12c0,0,3,-7,5,-17c0,0,1,-10,1,-24c0,0,0,-15,-2,-23c0,0,-1,-9,-3,-14c0,0,-2,-5,-5,-7c0,0,-3,-2,-8,-2c0,0,-5,0,-13,3c0,0,-7,4,-19,8c0,0,-11,4,-26,7c0,0,-15,4,-36,4c0,0,-27,0,-47,-9c0,0,-19,-9,-31,-28c0,0,-12,-19,-17,-50c0,0,-5,-30,-5,-73V710H421c0,0,6,0,10,-3c0,0,4,-2,7,-9c0,0,4,-6,6,-16c0,0,2,-10,2,-24c0,0,0,-27,-7,-39c0,0,-7,-12,-18,-12H271V18c0,0,0,-6,-3,-10c0,0,-3,-4,-11,-7c0,0,-7,-2,-19,-3c0,0,-12,-2,-29,-2Z" 
id="f0_89"
transform="scale(0.001,-0.001)" />

<path d="M176,-4c0,0,-18,0,-30,2c0,0,-12,1,-19,3c0,0,-7,3,-10,7c0,0,-3,4,-3,10V690c0,0,0,6,3,10c0,0,2,4,9,7c0,0,6,4,17,5c0,0,10,1,27,1c0,0,17,0,28,-1c0,0,10,-1,16,-5c0,0,6,-3,9,-7c0,0,3,-4,3,-10V601c0,0,56,64,110,94c0,0,53,30,108,30c0,0,42,0,75,-10c0,0,33,-10,58,-28c0,0,26,-17,44,-42c0,0,18,-24,30,-55c0,0,33,37,63,63c0,0,31,26,59,41c0,0,28,16,54,23c0,0,27,8,53,8c0,0,65,0,109,-23c0,0,44,-23,71,-61c0,0,28,-38,39,-89c0,0,12,-52,12,-108V18c0,0,0,-6,-3,-10c0,0,-3,-4,-10,-7c0,0,-7,-2,-19,-3c0,0,-12,-2,-29,-2c0,0,-19,0,-31,2c0,0,-12,1,-19,3c0,0,-7,3,-10,7c0,0,-3,4,-3,10V427c0,0,0,43,-8,78c0,0,-7,35,-23,61c0,0,-17,25,-42,38c0,0,-25,14,-60,14c0,0,-42,0,-85,-33c0,0,-43,-33,-94,-96V18c0,0,0,-6,-3,-10c0,0,-3,-4,-11,-7c0,0,-7,-2,-19,-3c0,0,-11,-2,-29,-2c0,0,-18,0,-30,2c0,0,-12,1,-19,3c0,0,-7,3,-10,7c0,0,-3,4,-3,10V427c0,0,0,43,-8,78c0,0,-8,35,-24,61c0,0,-17,25,-42,38c0,0,-25,14,-59,14c0,0,-43,0,-86,-33c0,0,-44,-33,-95,-96V18c0,0,0,-6,-3,-10c0,0,-2,-4,-9,-7c0,0,-7,-2,-19,-3c0,0,-12,-2,-30,-2Z" 
id="f0_ae"
transform="scale(0.001,-0.001)" />

<path d="M429,92c0,0,47,0,80,22c0,0,33,23,54,60c0,0,20,38,30,84c0,0,10,46,10,93c0,0,0,52,-8,100c0,0,-8,48,-27,86c0,0,-19,37,-51,60c0,0,-32,22,-80,22c0,0,-24,0,-47,-7c0,0,-23,-7,-47,-23c0,0,-24,-15,-50,-40c0,0,-26,-25,-56,-62V220c0,0,51,-62,97,-95c0,0,45,-33,95,-33ZM176,-271c0,0,-18,0,-30,2c0,0,-12,1,-19,4c0,0,-7,3,-10,8c0,0,-3,4,-3,10V690c0,0,0,6,3,10c0,0,2,5,9,8c0,0,6,3,17,4c0,0,10,1,25,1c0,0,16,0,26,-1c0,0,10,-1,17,-4c0,0,6,-3,9,-7c0,0,3,-4,3,-11V601c0,0,30,31,59,54c0,0,28,23,57,39c0,0,28,15,59,23c0,0,30,8,63,8c0,0,74,0,125,-29c0,0,52,-28,84,-77c0,0,32,-50,47,-115c0,0,15,-65,15,-139c0,0,0,-88,-19,-158c0,0,-19,-70,-56,-119c0,0,-37,-49,-91,-75c0,0,-55,-26,-125,-26c0,0,-30,0,-55,6c0,0,-25,6,-50,18c0,0,-24,13,-48,32c0,0,-24,19,-51,46V-247c0,0,0,-6,-3,-10c0,0,-2,-5,-9,-8c0,0,-7,-3,-19,-4c0,0,-12,-2,-30,-2Z" 
id="f0_ay"
transform="scale(0.001,-0.001)" />

<path d="M176,-4c0,0,-18,0,-30,2c0,0,-12,1,-19,3c0,0,-7,3,-10,7c0,0,-3,4,-3,10v997c0,0,0,6,3,11c0,0,3,4,10,7c0,0,7,3,19,5c0,0,12,1,30,1c0,0,18,0,30,-1c0,0,12,-2,19,-5c0,0,7,-3,9,-7c0,0,3,-5,3,-11V18c0,0,0,-6,-3,-10c0,0,-2,-4,-9,-7c0,0,-7,-2,-19,-3c0,0,-12,-2,-30,-2Z" 
id="f0_a8"
transform="scale(0.001,-0.001)" />

<path d="M176,-4c0,0,-18,0,-30,2c0,0,-12,1,-19,3c0,0,-7,3,-10,7c0,0,-3,4,-3,10V690c0,0,0,6,3,10c0,0,2,4,9,7c0,0,6,4,17,5c0,0,10,1,27,1c0,0,17,0,28,-1c0,0,10,-1,16,-5c0,0,6,-3,9,-7c0,0,3,-4,3,-10V592c0,0,27,41,51,66c0,0,25,26,46,41c0,0,22,14,43,20c0,0,21,6,43,6c0,0,10,0,22,-2c0,0,12,-1,26,-4c0,0,13,-3,24,-6c0,0,11,-4,15,-8c0,0,5,-4,6,-7c0,0,2,-3,3,-9c0,0,1,-5,1,-15c0,0,0,-10,0,-27c0,0,0,-16,0,-28c0,0,-1,-11,-3,-17c0,0,-2,-6,-6,-10c0,0,-3,-3,-9,-3c0,0,-6,0,-15,3c0,0,-8,4,-19,7c0,0,-11,3,-24,6c0,0,-14,3,-29,3c0,0,-19,0,-37,-7c0,0,-18,-8,-37,-25c0,0,-20,-18,-42,-46c0,0,-21,-29,-48,-70V18c0,0,0,-6,-3,-10c0,0,-2,-4,-9,-7c0,0,-7,-2,-19,-3c0,0,-12,-2,-30,-2Z" 
id="f0_b1"
transform="scale(0.001,-0.001)" />

<path d="M351,-13c0,0,-67,0,-113,22c0,0,-46,22,-75,60c0,0,-28,39,-40,90c0,0,-13,51,-13,124V690c0,0,0,6,3,10c0,0,3,4,10,7c0,0,8,4,20,5c0,0,11,1,29,1c0,0,18,0,30,-1c0,0,12,-1,19,-5c0,0,7,-3,10,-7c0,0,3,-4,3,-10V299c0,0,0,-59,9,-94c0,0,8,-36,26,-61c0,0,18,-24,44,-38c0,0,27,-14,63,-14c0,0,46,0,92,33c0,0,46,32,98,95V690c0,0,0,6,2,10c0,0,3,4,10,7c0,0,8,4,19,5c0,0,12,1,30,1c0,0,18,0,30,-1c0,0,12,-1,19,-5c0,0,7,-3,10,-7c0,0,3,-4,3,-10V18c0,0,0,-6,-2,-10c0,0,-3,-4,-10,-7c0,0,-6,-2,-17,-3c0,0,-11,-2,-27,-2c0,0,-17,0,-28,2c0,0,-10,1,-17,3c0,0,-6,3,-8,7c0,0,-3,4,-3,10v89c0,0,-57,-63,-113,-92c0,0,-56,-28,-113,-28Z" 
id="f0_c6"
transform="scale(0.001,-0.001)" />

<path d="M69,-215c0,0,-12,0,-21,1c0,0,-8,1,-12,4c0,0,-4,2,-4,7c0,0,-1,4,2,10L134,11v96c0,0,0,20,4,32c0,0,4,12,13,18c0,0,9,6,22,8c0,0,13,2,33,2c0,0,19,0,32,-2c0,0,13,-2,22,-8c0,0,9,-6,13,-18c0,0,4,-12,4,-32c0,0,0,-23,-2,-43c0,0,-3,-19,-8,-36c0,0,-5,-17,-14,-33c0,0,-8,-17,-21,-36L130,-194c0,0,-4,-5,-9,-9c0,0,-5,-4,-12,-7c0,0,-7,-3,-16,-4c0,0,-9,-1,-24,-1Z" 
id="f0_nq"
transform="scale(0.001,-0.001)" />

<path d="M346,-177c0,0,56,0,94,11c0,0,37,11,60,28c0,0,24,18,34,41c0,0,10,23,10,49c0,0,0,43,-36,65c0,0,-35,23,-95,25L239,48c0,0,-24,-19,-39,-35c0,0,-15,-16,-24,-31c0,0,-9,-16,-12,-30c0,0,-4,-15,-4,-31c0,0,0,-48,49,-73c0,0,50,-25,137,-25Zm-6,512c0,0,36,0,63,12c0,0,27,12,44,32c0,0,18,21,26,48c0,0,9,27,9,56c0,0,0,69,-38,107c0,0,-37,39,-107,39c0,0,-35,0,-62,-12c0,0,-26,-12,-44,-33c0,0,-17,-21,-26,-48c0,0,-8,-28,-8,-58c0,0,0,-66,37,-104c0,0,38,-39,106,-39Zm0,-606c0,0,-81,0,-138,14c0,0,-57,14,-94,38c0,0,-36,24,-52,57c0,0,-17,33,-17,72c0,0,0,24,6,47c0,0,6,24,18,43c0,0,13,21,31,40c0,0,18,19,42,38c0,0,-36,19,-54,47c0,0,-17,28,-17,61c0,0,0,45,18,81c0,0,19,36,46,64c0,0,-23,28,-36,62c0,0,-14,35,-14,84c0,0,0,58,20,104c0,0,19,45,53,77c0,0,35,31,83,48c0,0,48,17,105,17c0,0,30,0,57,-4c0,0,26,-3,49,-9H649c0,0,13,0,19,-12c0,0,7,-13,7,-38c0,0,0,-26,-7,-37c0,0,-7,-12,-19,-12H553c0,0,26,-27,37,-60c0,0,10,-32,10,-68c0,0,0,-58,-18,-103c0,0,-19,-45,-54,-76c0,0,-34,-31,-82,-47c0,0,-48,-16,-106,-16c0,0,-41,0,-78,10c0,0,-37,11,-57,28c0,0,-14,-14,-22,-31c0,0,-9,-17,-9,-39c0,0,0,-27,24,-44c0,0,25,-17,65,-18l175,-8c0,0,50,-1,92,-14c0,0,41,-12,72,-35c0,0,31,-22,48,-55c0,0,17,-34,17,-76c0,0,0,-47,-20,-88c0,0,-19,-42,-59,-74c0,0,-40,-31,-102,-50c0,0,-61,-18,-146,-18Z" 
id="f0_9d"
transform="scale(0.001,-0.001)" />

<path d="M346,-4c0,0,-23,0,-38,2c0,0,-15,1,-24,3c0,0,-9,3,-15,8c0,0,-5,6,-8,13L33,660c0,0,-3,9,-5,15c0,0,-2,7,-2,11c0,0,0,3,0,5c0,0,0,6,3,11c0,0,3,4,10,7c0,0,7,2,18,3c0,0,12,1,29,1c0,0,22,0,35,-1c0,0,13,-1,20,-4c0,0,7,-3,10,-8c0,0,4,-4,7,-11L347,135l3,-9l2,9L540,689c0,0,1,7,5,11c0,0,3,5,11,8c0,0,7,3,19,4c0,0,12,1,32,1c0,0,18,0,29,-1c0,0,11,-1,17,-4c0,0,7,-3,9,-7c0,0,3,-4,3,-10c0,0,0,-3,-1,-6c0,0,0,-4,-1,-7c0,0,0,-4,-2,-8c0,0,-1,-5,-2,-10L430,22c0,0,-3,-8,-8,-13c0,0,-5,-6,-15,-9c0,0,-9,-2,-24,-3c0,0,-15,-1,-37,-1Z" 
id="f0_ch"
transform="scale(0.001,-0.001)" />

<path d="M366,92c0,0,25,0,48,7c0,0,22,6,46,22c0,0,24,16,50,41c0,0,26,24,56,61V492c0,0,-51,62,-97,94c0,0,-47,33,-98,33c0,0,-47,0,-79,-22c0,0,-33,-23,-54,-59c0,0,-20,-37,-30,-83c0,0,-9,-47,-9,-94c0,0,0,-51,8,-100c0,0,8,-48,27,-86c0,0,19,-38,52,-60c0,0,32,-23,80,-23ZM345,-13c0,0,-74,0,-127,28c0,0,-52,29,-84,78c0,0,-33,49,-48,115c0,0,-15,66,-15,139c0,0,0,86,19,156c0,0,19,70,55,119c0,0,37,50,91,76c0,0,54,27,125,27c0,0,59,0,108,-26c0,0,49,-26,97,-76v390c0,0,0,5,2,10c0,0,3,4,10,7c0,0,8,3,19,5c0,0,12,1,30,1c0,0,18,0,30,-1c0,0,12,-2,19,-5c0,0,7,-3,10,-7c0,0,3,-5,3,-10V18c0,0,0,-6,-2,-10c0,0,-3,-5,-9,-7c0,0,-7,-2,-17,-3c0,0,-10,-2,-25,-2c0,0,-16,0,-26,2c0,0,-11,1,-18,3c0,0,-6,2,-9,7c0,0,-3,4,-3,10v90c0,0,-53,-58,-110,-90c0,0,-58,-31,-125,-31Z" 
id="f0_7v"
transform="scale(0.001,-0.001)" />

<path d="M431,92c0,0,46,0,79,22c0,0,33,23,53,60c0,0,21,37,30,83c0,0,10,46,10,93c0,0,0,51,-8,100c0,0,-8,49,-28,86c0,0,-19,37,-51,60c0,0,-32,23,-80,23c0,0,-24,0,-47,-7c0,0,-23,-7,-47,-22c0,0,-24,-16,-50,-41c0,0,-25,-24,-55,-62V219c0,0,51,-62,98,-95c0,0,46,-32,96,-32ZM443,-13c0,0,-32,0,-59,7c0,0,-27,6,-53,19c0,0,-26,14,-52,36c0,0,-27,22,-56,52V18c0,0,0,-6,-3,-10c0,0,-3,-5,-9,-7c0,0,-7,-2,-17,-3c0,0,-10,-2,-26,-2c0,0,-15,0,-25,2c0,0,-11,1,-17,3c0,0,-7,2,-9,7c0,0,-3,4,-3,10v997c0,0,0,6,3,11c0,0,3,4,10,7c0,0,7,3,19,5c0,0,12,1,30,1c0,0,18,0,30,-1c0,0,12,-2,19,-5c0,0,7,-3,9,-7c0,0,3,-5,3,-10V614c0,0,30,31,58,52c0,0,28,20,55,34c0,0,27,13,54,19c0,0,27,6,57,6c0,0,73,0,125,-30c0,0,52,-29,84,-78c0,0,32,-48,47,-114c0,0,15,-66,15,-139c0,0,0,-87,-19,-157c0,0,-19,-70,-56,-119c0,0,-37,-49,-90,-76c0,0,-54,-25,-124,-25Z" 
id="f0_7k"
transform="scale(0.001,-0.001)" />

<path d="M218,-6c0,0,-24,0,-39,4c0,0,-15,3,-24,13c0,0,-8,10,-12,27c0,0,-3,16,-3,41c0,0,0,24,3,41c0,0,4,17,12,27c0,0,9,9,24,14c0,0,15,4,39,4c0,0,23,0,38,-4c0,0,15,-5,24,-14c0,0,10,-10,13,-27c0,0,3,-17,3,-41c0,0,0,-25,-3,-41c0,0,-3,-17,-13,-27c0,0,-9,-10,-24,-13c0,0,-15,-4,-38,-4Zm0,518c0,0,-24,0,-39,4c0,0,-15,5,-24,15c0,0,-8,10,-12,26c0,0,-3,16,-3,40c0,0,0,26,3,42c0,0,4,17,12,27c0,0,9,10,24,14c0,0,15,4,39,4c0,0,23,0,38,-4c0,0,15,-4,24,-14c0,0,10,-10,13,-27c0,0,3,-16,3,-42c0,0,0,-24,-3,-40c0,0,-3,-16,-13,-26c0,0,-9,-10,-24,-15c0,0,-15,-4,-38,-4Z" 
id="f0_ns"
transform="scale(0.001,-0.001)" />

<path d="M372,-4c0,0,-18,0,-30,2c0,0,-13,2,-21,3c0,0,-7,3,-10,8c0,0,-3,4,-3,10V857H36c0,0,-6,0,-11,3c0,0,-5,2,-8,9c0,0,-2,6,-4,17c0,0,-2,10,-2,24c0,0,0,14,2,25c0,0,2,11,4,17c0,0,3,7,8,10c0,0,5,3,11,3H708c0,0,6,0,11,-3c0,0,5,-3,8,-10c0,0,4,-6,5,-17c0,0,2,-11,2,-25c0,0,0,-14,-2,-24c0,0,-1,-11,-5,-17c0,0,-3,-7,-8,-9c0,0,-5,-3,-11,-3H436V19c0,0,0,-6,-3,-10c0,0,-3,-5,-10,-8c0,0,-8,-1,-20,-3c0,0,-12,-2,-31,-2Z" 
id="f0_2t"
transform="scale(0.001,-0.001)" />

<path d="M188,-4c0,0,-28,0,-46,2c0,0,-18,2,-28,5c0,0,-11,3,-16,9c0,0,-4,5,-4,13V691c0,0,0,7,4,13c0,0,3,5,13,9c0,0,10,4,25,6c0,0,15,2,38,2c0,0,24,0,40,-2c0,0,15,-2,24,-6c0,0,9,-4,12,-9c0,0,4,-6,4,-13V614c0,0,55,60,112,89c0,0,57,30,119,30c0,0,68,0,115,-22c0,0,47,-22,75,-61c0,0,29,-38,42,-90c0,0,12,-51,12,-124V25c0,0,0,-8,-4,-13c0,0,-5,-6,-15,-9c0,0,-10,-3,-29,-5c0,0,-18,-2,-45,-2c0,0,-28,0,-46,2c0,0,-18,2,-29,5c0,0,-10,3,-15,9c0,0,-4,6,-4,13V405c0,0,0,49,-7,76c0,0,-7,28,-21,48c0,0,-13,19,-35,30c0,0,-21,11,-49,11c0,0,-36,0,-72,-26c0,0,-37,-26,-76,-76V25c0,0,0,-7,-5,-13c0,0,-4,-6,-15,-9c0,0,-11,-3,-29,-5c0,0,-18,-2,-45,-2Z" 
id="f1_af"
transform="scale(0.001,-0.001)" />

<path d="M361,-4c0,0,-39,0,-64,2c0,0,-25,2,-40,5c0,0,-14,5,-20,13c0,0,-7,7,-10,19L27,638c0,0,-5,15,-7,27c0,0,-3,12,-3,17c0,0,-1,5,-1,10c0,0,0,7,4,13c0,0,4,5,15,9c0,0,10,4,28,5c0,0,19,2,46,2c0,0,31,0,50,-2c0,0,18,-2,29,-5c0,0,11,-4,15,-10c0,0,5,-7,8,-15L363,200l4,-19l5,19L521,689c0,0,2,8,7,15c0,0,5,6,15,10c0,0,10,3,28,5c0,0,18,2,46,2c0,0,28,0,45,-2c0,0,18,-1,27,-5c0,0,10,-4,14,-9c0,0,3,-6,3,-13c0,0,0,-4,0,-9c0,0,0,-6,-1,-12c0,0,-2,-6,-3,-15c0,0,-2,-8,-5,-18L497,35c0,0,-4,-12,-10,-20c0,0,-7,-8,-21,-12c0,0,-15,-4,-40,-5c0,0,-25,-2,-65,-2Z" 
id="f1_ch"
transform="scale(0.001,-0.001)" />

<path d="M188,-4c0,0,-28,0,-46,2c0,0,-18,2,-28,5c0,0,-11,3,-16,9c0,0,-4,5,-4,13v981c0,0,0,8,4,14c0,0,5,6,16,10c0,0,10,4,28,6c0,0,18,2,46,2c0,0,27,0,45,-2c0,0,18,-2,29,-6c0,0,11,-4,15,-10c0,0,5,-6,5,-14V25c0,0,0,-8,-5,-13c0,0,-4,-6,-15,-9c0,0,-11,-3,-29,-5c0,0,-18,-2,-45,-2Z" 
id="f1_a8"
transform="scale(0.001,-0.001)" />

<path d="M409,132c0,0,42,0,73,15c0,0,32,16,52,45c0,0,20,29,29,70c0,0,10,42,10,95c0,0,0,49,-8,91c0,0,-8,41,-26,72c0,0,-19,30,-50,48c0,0,-30,17,-77,17c0,0,-42,0,-73,-16c0,0,-31,-15,-51,-44c0,0,-21,-30,-31,-71c0,0,-10,-42,-10,-95c0,0,0,-49,9,-91c0,0,8,-41,26,-72c0,0,18,-30,49,-47c0,0,32,-17,78,-17ZM402,-17c0,0,-89,0,-154,24c0,0,-66,25,-109,72c0,0,-43,47,-64,115c0,0,-21,69,-21,157c0,0,0,85,23,156c0,0,22,70,68,121c0,0,45,50,113,78c0,0,69,27,160,27c0,0,90,0,155,-24c0,0,66,-24,109,-71c0,0,43,-47,64,-116c0,0,21,-69,21,-157c0,0,0,-86,-23,-156c0,0,-22,-70,-68,-121C676,88,631,38,562,10c0,0,-68,-27,-160,-27Z" 
id="f1_am"
transform="scale(0.001,-0.001)" />

<path d="M432,142c0,0,36,0,62,18c0,0,26,19,42,49c0,0,16,31,24,69c0,0,8,38,8,76c0,0,0,43,-6,82c0,0,-7,39,-22,70c0,0,-15,30,-40,49c0,0,-25,18,-62,18c0,0,-19,0,-37,-6c0,0,-19,-5,-38,-18c0,0,-19,-13,-39,-33c0,0,-20,-20,-42,-50V247c0,0,39,-51,75,-78c0,0,36,-27,75,-27ZM188,-270c0,0,-28,0,-46,2c0,0,-18,3,-28,7c0,0,-11,4,-16,10c0,0,-4,6,-4,13V691c0,0,0,7,4,13c0,0,3,5,13,9c0,0,9,4,24,6c0,0,15,2,39,2c0,0,22,0,37,-2c0,0,15,-2,25,-6c0,0,9,-4,13,-9c0,0,4,-6,4,-13V612c0,0,29,30,57,53c0,0,28,23,57,38c0,0,29,15,60,23c0,0,31,7,66,7c0,0,73,0,124,-28c0,0,52,-29,84,-79c0,0,33,-50,48,-117c0,0,15,-66,15,-141c0,0,0,-89,-19,-161c0,0,-19,-71,-56,-121C689,86,652,36,598,9c0,0,-54,-26,-125,-26c0,0,-29,0,-53,6c0,0,-24,6,-47,16c0,0,-23,12,-45,29c0,0,-23,17,-46,40V-238c0,0,0,-7,-5,-13c0,0,-4,-6,-15,-10c0,0,-11,-4,-29,-7c0,0,-18,-2,-45,-2Z" 
id="f1_ay"
transform="scale(0.001,-0.001)" />

<path d="M380,142c0,0,19,0,37,5c0,0,19,6,38,19c0,0,19,12,39,33c0,0,20,20,44,50V470c0,0,-40,50,-77,77c0,0,-37,27,-77,27c0,0,-37,0,-63,-18c0,0,-27,-19,-43,-49c0,0,-16,-31,-24,-68c0,0,-8,-38,-8,-77c0,0,0,-42,7,-82c0,0,7,-39,22,-70c0,0,15,-31,41,-50c0,0,25,-18,64,-18ZM333,-17c0,0,-76,0,-129,29c0,0,-52,29,-85,79c0,0,-33,50,-48,117c0,0,-15,67,-15,141c0,0,0,89,19,160c0,0,19,71,55,121c0,0,37,50,91,76c0,0,55,27,125,27c0,0,56,0,102,-22c0,0,45,-23,90,-67v360c0,0,0,8,4,14c0,0,4,6,15,10c0,0,11,4,29,6c0,0,18,2,45,2c0,0,28,0,46,-2c0,0,18,-2,28,-6c0,0,11,-4,15,-10c0,0,5,-6,5,-14V25c0,0,0,-8,-4,-14c0,0,-4,-5,-13,-9c0,0,-9,-3,-24,-4c0,0,-15,-2,-38,-2c0,0,-24,0,-39,2c0,0,-15,1,-24,4c0,0,-9,4,-13,9c0,0,-5,6,-5,14V99C565,99,514,44,458,13c0,0,-57,-30,-125,-30Z" 
id="f1_7v"
transform="scale(0.001,-0.001)" />

<path d="M441,106c0,0,45,0,77,10c0,0,33,10,58,31c0,0,25,21,39,51c0,0,15,31,15,71c0,0,0,43,-14,76c0,0,-14,33,-41,55c0,0,-26,23,-66,34c0,0,-40,12,-100,12H255V106ZM401,549c0,0,50,0,81,13c0,0,30,13,50,35c0,0,20,22,30,51c0,0,9,29,9,61c0,0,0,35,-10,63c0,0,-9,28,-30,48c0,0,-21,20,-55,30c0,0,-33,10,-88,10H255V549ZM176,0c0,0,-17,0,-33,12c0,0,-15,11,-15,40V913c0,0,0,29,15,41c0,0,16,11,33,11H395c0,0,87,0,142,-16c0,0,55,-17,92,-48c0,0,37,-31,55,-77c0,0,19,-45,19,-103c0,0,0,-34,-8,-65c0,0,-8,-32,-24,-58c0,0,-16,-27,-41,-47c0,0,-24,-21,-55,-35c0,0,39,-7,74,-27c0,0,34,-20,60,-50c0,0,26,-31,41,-72c0,0,15,-41,15,-90c0,0,0,-46,-12,-84c0,0,-12,-39,-32,-69c0,0,-21,-31,-51,-54c0,0,-29,-23,-66,-39C604,31,567,16,525,8C525,8,483,0,428,0Z" 
id="f0_i"
transform="scale(0.001,-0.001)" />

<path d="M388,108c0,0,93,0,156,23c0,0,64,23,106,71c0,0,43,47,64,119c0,0,21,72,21,171c0,0,0,78,-19,145c0,0,-20,68,-61,117c0,0,-41,49,-105,77c0,0,-63,28,-163,28H256V108ZM176,0c0,0,-17,0,-33,12c0,0,-15,11,-15,40V913c0,0,0,29,15,41c0,0,16,11,33,11H394c0,0,126,0,212,-32c0,0,87,-33,145,-94c0,0,59,-60,89,-147c0,0,30,-86,30,-195c0,0,0,-126,-32,-219c0,0,-32,-94,-93,-155c0,0,-62,-62,-151,-92C594,31,504,0,380,0Z" 
id="f0_p"
transform="scale(0.001,-0.001)" />

<path d="M604,356L436,837h-1L269,356ZM87,-4c0,0,-22,0,-36,2C51,-2,37,0,32,4c0,0,-6,5,-6,15c0,0,1,10,7,27L357,943c0,0,3,8,7,13c0,0,5,6,15,9c0,0,9,3,23,4c0,0,15,1,37,1c0,0,24,0,40,-1c0,0,16,-1,25,-4c0,0,10,-3,15,-9c0,0,5,-5,8,-14L851,45c0,0,6,-16,7,-26c0,0,0,-10,-6,-16c0,0,-6,-4,-20,-5c0,0,-14,-2,-37,-2c0,0,-23,0,-37,1c0,0,-14,1,-21,3c0,0,-7,3,-10,7c0,0,-3,5,-6,11L638,253H236L157,21c0,0,-2,-6,-6,-11c0,0,-3,-5,-10,-9c0,0,-7,-2,-21,-3c0,0,-13,-2,-33,-2Z" 
id="f0_5"
transform="scale(0.001,-0.001)" />

<path d="M435,0V856c0,0,-48,-47,-127,-93c0,0,-79,-46,-142,-69V824c0,0,113,52,197,128c0,0,85,75,120,146h86V0Z" 
id="f2_l"
transform="scale(0.001,-0.001)" />

<path d="M420,92c0,0,92,0,155,89c0,0,64,89,64,358c0,0,0,270,-63,359c0,0,-63,89,-158,89c0,0,-92,0,-147,-79c0,0,-70,-100,-70,-369c0,0,0,-269,63,-358c0,0,63,-89,156,-89Zm0,-110c0,0,-158,0,-248,112C172,94,64,231,64,539c0,0,0,194,39,313c0,0,40,118,119,182c0,0,79,64,198,64c0,0,88,0,155,-35c0,0,66,-36,109,-103c0,0,43,-66,68,-162c0,0,24,-96,24,-259c0,0,0,-192,-39,-311C737,228,697,110,619,46c0,0,-79,-64,-199,-64Z" 
id="f2_k"
transform="scale(0.001,-0.001)" />


</defs>
</svg>