<?xml version="1.0" encoding="UTF-8" standalone="no"?>
<!DOCTYPE svg PUBLIC "-//W3C//DTD SVG 1.1//EN"
"http://www.w3.org/Graphics/SVG/1.1/DTD/svg11.dtd">
<svg viewBox="0 0 909 1286" version="1.1" xmlns="http://www.w3.org/2000/svg" xmlns:xlink="http://www.w3.org/1999/xlink">
<defs>
</defs>
<g fill="#000000" >
<use xlink:href="#f0_11" transform="matrix(12,0,0,12,47.4,219.4)" />
<use xlink:href="#f0_e" transform="matrix(12,0,0,12,54.7,219.4)" />
<use xlink:href="#f0_12" transform="matrix(12,0,0,12,62.1,219.4)" />
</g>
<image preserveAspectRatio="none" x="47" y="229" width="223" height="168" xlink:href="img/1.png" />
<g fill="#000000" >
<use xlink:href="#f0_1a" transform="matrix(12,0,0,12,47.4,437.8)" />
<use xlink:href="#f0_d" transform="matrix(12,0,0,12,61.2,437.8)" />
<use xlink:href="#f0_s" transform="matrix(12,0,0,12,73.4,437.8)" />
<use xlink:href="#f0_n" transform="matrix(12,0,0,12,82.3,437.8)" />
<use xlink:href="#f1_l" transform="matrix(12,0,0,12,92.6,437.8)" />
<use xlink:href="#f1_k" transform="matrix(12,0,0,12,103.8,437.8)" />
<use xlink:href="#f1_9" transform="matrix(12,0,0,12,115.5,437.8)" />
<use xlink:href="#f1_z" transform="matrix(12,0,0,12,130,437.8)" />
<use xlink:href="#f1_b" transform="matrix(12,0,0,12,141.3,437.8)" />
<use xlink:href="#f1_a" transform="matrix(12,0,0,12,147.1,437.8)" />
<use xlink:href="#f1_9" transform="matrix(12,0,0,12,155.7,437.8)" />
<use xlink:href="#f1_f" transform="matrix(12,0,0,12,165.5,437.8)" />
<use xlink:href="#f1_h" transform="matrix(12,0,0,12,174.6,437.8)" />
<use xlink:href="#f1_b" transform="matrix(12,0,0,12,181,437.8)" />
<use xlink:href="#f1_i" transform="matrix(12,0,0,12,186.9,437.8)" />
<use xlink:href="#f1_7" transform="matrix(12,0,0,12,197.4,437.8)" />
<use xlink:href="#f1_i" transform="matrix(12,0,0,12,214,437.8)" />
<use xlink:href="#f1_n" transform="matrix(12,0,0,12,224.6,437.8)" />
<use xlink:href="#f1_h" transform="matrix(12,0,0,12,236.1,437.8)" />
<use xlink:href="#f1_k" transform="matrix(12,0,0,12,242.5,437.8)" />
<use xlink:href="#f1_9" transform="matrix(12,0,0,12,254.2,437.8)" />
<use xlink:href="#f1_b" transform="matrix(12,0,0,12,268.7,437.8)" />
<use xlink:href="#f1_7" transform="matrix(12,0,0,12,274.6,437.8)" />
<use xlink:href="#f1_z" transform="matrix(12,0,0,12,286.4,437.8)" />
<use xlink:href="#f1_g" transform="matrix(12,0,0,12,297.6,437.8)" />
<use xlink:href="#f1_f" transform="matrix(12,0,0,12,309.3,437.8)" />
<use xlink:href="#f1_9" transform="matrix(12,0,0,12,318.3,437.8)" />
<use xlink:href="#f1_z" transform="matrix(12,0,0,12,328.1,437.8)" />
<use xlink:href="#f1_f" transform="matrix(12,0,0,12,344.1,437.8)" />
<use xlink:href="#f1_g" transform="matrix(12,0,0,12,353.1,437.8)" />
<use xlink:href="#f1_a" transform="matrix(12,0,0,12,364.7,437.8)" />
<use xlink:href="#f1_a" transform="matrix(12,0,0,12,373.4,437.8)" />
<use xlink:href="#f1_9" transform="matrix(12,0,0,12,382,437.8)" />
<use xlink:href="#f1_7" transform="matrix(12,0,0,12,391.8,437.8)" />
<use xlink:href="#f1_h" transform="matrix(12,0,0,12,403.6,437.8)" />
<use xlink:href="#f1_b" transform="matrix(12,0,0,12,414.8,437.8)" />
<use xlink:href="#f1_7" transform="matrix(12,0,0,12,420.6,437.8)" />
<use xlink:href="#f1_3" transform="matrix(12,0,0,12,437.2,437.8)" />
<use xlink:href="#f1_f" transform="matrix(12,0,0,12,452.3,437.8)" />
<use xlink:href="#f1_t" transform="matrix(12,0,0,12,461.3,437.8)" />
<use xlink:href="#f1_i" transform="matrix(12,0,0,12,467,437.8)" />
<use xlink:href="#f1_8" transform="matrix(12,0,0,12,477.5,437.8)" />
<use xlink:href="#f1_9" transform="matrix(12,0,0,12,485.8,437.8)" />
<use xlink:href="#f1_z" transform="matrix(12,0,0,12,495.6,437.8)" />
<use xlink:href="#f1_t" transform="matrix(12,0,0,12,511.6,437.8)" />
<use xlink:href="#f1_i" transform="matrix(12,0,0,12,517.3,437.8)" />
<use xlink:href="#f1_i" transform="matrix(12,0,0,12,527.9,437.8)" />
<use xlink:href="#f1_v" transform="matrix(12,0,0,12,538.4,437.8)" />
<use xlink:href="#f1_b" transform="matrix(12,0,0,12,554.4,437.8)" />
<use xlink:href="#f1_8" transform="matrix(12,0,0,12,560.3,437.8)" />
<use xlink:href="#f1_y" transform="matrix(12,0,0,12,573.3,437.8)" />
<use xlink:href="#f1_b" transform="matrix(12,0,0,12,583.2,437.8)" />
<use xlink:href="#f1_m" transform="matrix(12,0,0,12,589,437.8)" />
<use xlink:href="#f1_9" transform="matrix(12,0,0,12,599.6,437.8)" />
<use xlink:href="#f1_7" transform="matrix(12,0,0,12,609.4,437.8)" />
<use xlink:href="#f1_r" transform="matrix(12,0,0,12,626,437.8)" />
<use xlink:href="#f1_p" transform="matrix(12,0,0,12,637.2,437.8)" />
<use xlink:href="#f1_c" transform="matrix(12,0,0,12,652.3,437.8)" />
<use xlink:href="#f1_9" transform="matrix(12,0,0,12,663.7,437.8)" />
<use xlink:href="#f1_7" transform="matrix(12,0,0,12,673.5,437.8)" />
<use xlink:href="#f1_1l" transform="matrix(12,0,0,12,685.4,437.8)" />
<use xlink:href="#f1_1m" transform="matrix(12,0,0,12,694.7,437.8)" />
<use xlink:href="#f1_8" transform="matrix(12,0,0,12,698.7,437.8)" />
<use xlink:href="#f1_t" transform="matrix(12,0,0,12,711.8,437.8)" />
<use xlink:href="#f1_3" transform="matrix(12,0,0,12,717.4,437.8)" />
<use xlink:href="#f1_j" transform="matrix(12,0,0,12,727.7,437.8)" />
<use xlink:href="#f1_q" transform="matrix(12,0,0,12,743.5,437.8)" />
<use xlink:href="#f1_l" transform="matrix(12,0,0,12,753.5,437.8)" />
<use xlink:href="#f1_k" transform="matrix(12,0,0,12,764.7,437.8)" />
<use xlink:href="#f1_9" transform="matrix(12,0,0,12,776.4,437.8)" />
<use xlink:href="#f1_y" transform="matrix(12,0,0,12,790.9,437.8)" />
<use xlink:href="#f1_b" transform="matrix(12,0,0,12,800.8,437.8)" />
<use xlink:href="#f1_m" transform="matrix(12,0,0,12,806.6,437.8)" />
<use xlink:href="#f1_9" transform="matrix(12,0,0,12,817.2,437.8)" />
<use xlink:href="#f1_7" transform="matrix(12,0,0,12,827,437.8)" />
<use xlink:href="#f1_v" transform="matrix(12,0,0,12,47.4,469.9)" />
<use xlink:href="#f1_3" transform="matrix(12,0,0,12,58.6,469.9)" />
<use xlink:href="#f1_b" transform="matrix(12,0,0,12,68.9,469.9)" />
<use xlink:href="#f1_a" transform="matrix(12,0,0,12,74.8,469.9)" />
<use xlink:href="#f1_8" transform="matrix(12,0,0,12,83.4,469.9)" />
<use xlink:href="#f1_i" transform="matrix(12,0,0,12,96.4,469.9)" />
<use xlink:href="#f1_n" transform="matrix(12,0,0,12,107,469.9)" />
<use xlink:href="#f1_n" transform="matrix(12,0,0,12,118.5,469.9)" />
<use xlink:href="#f1_b" transform="matrix(12,0,0,12,125.2,469.9)" />
<use xlink:href="#f1_y" transform="matrix(12,0,0,12,131.1,469.9)" />
<use xlink:href="#f1_g" transform="matrix(12,0,0,12,140.9,469.9)" />
<use xlink:href="#f1_a" transform="matrix(12,0,0,12,152.6,469.9)" />
<use xlink:href="#f1_9" transform="matrix(12,0,0,12,161.2,469.9)" />
<use xlink:href="#f1_8" transform="matrix(12,0,0,12,171,469.9)" />
<use xlink:href="#f1_8" transform="matrix(12,0,0,12,184,469.9)" />
<use xlink:href="#f1_k" transform="matrix(12,0,0,12,192.3,469.9)" />
<use xlink:href="#f1_i" transform="matrix(12,0,0,12,203.9,469.9)" />
<use xlink:href="#f1_j" transform="matrix(12,0,0,12,214.5,469.9)" />
<use xlink:href="#f1_h" transform="matrix(12,0,0,12,235,469.9)" />
<use xlink:href="#f1_k" transform="matrix(12,0,0,12,241.4,469.9)" />
<use xlink:href="#f1_9" transform="matrix(12,0,0,12,253.1,469.9)" />
<use xlink:href="#f1_z" transform="matrix(12,0,0,12,267.6,469.9)" />
<use xlink:href="#f1_b" transform="matrix(12,0,0,12,278.9,469.9)" />
<use xlink:href="#f1_a" transform="matrix(12,0,0,12,284.7,469.9)" />
<use xlink:href="#f1_9" transform="matrix(12,0,0,12,293.3,469.9)" />
<use xlink:href="#f1_f" transform="matrix(12,0,0,12,303.1,469.9)" />
<use xlink:href="#f1_h" transform="matrix(12,0,0,12,312.2,469.9)" />
<use xlink:href="#f1_b" transform="matrix(12,0,0,12,318.6,469.9)" />
<use xlink:href="#f1_i" transform="matrix(12,0,0,12,324.5,469.9)" />
<use xlink:href="#f1_7" transform="matrix(12,0,0,12,335,469.9)" />
<use xlink:href="#f1_i" transform="matrix(12,0,0,12,351.6,469.9)" />
<use xlink:href="#f1_n" transform="matrix(12,0,0,12,362.2,469.9)" />
<use xlink:href="#f1_h" transform="matrix(12,0,0,12,373.7,469.9)" />
<use xlink:href="#f1_k" transform="matrix(12,0,0,12,380.1,469.9)" />
<use xlink:href="#f1_9" transform="matrix(12,0,0,12,391.8,469.9)" />
<use xlink:href="#f1_b" transform="matrix(12,0,0,12,406.3,469.9)" />
<use xlink:href="#f1_7" transform="matrix(12,0,0,12,412.2,469.9)" />
<use xlink:href="#f1_z" transform="matrix(12,0,0,12,424,469.9)" />
<use xlink:href="#f1_g" transform="matrix(12,0,0,12,435.2,469.9)" />
<use xlink:href="#f1_f" transform="matrix(12,0,0,12,446.9,469.9)" />
<use xlink:href="#f1_9" transform="matrix(12,0,0,12,455.9,469.9)" />
<use xlink:href="#f1_z" transform="matrix(12,0,0,12,465.7,469.9)" />
<use xlink:href="#f1_f" transform="matrix(12,0,0,12,481.7,469.9)" />
<use xlink:href="#f1_g" transform="matrix(12,0,0,12,490.7,469.9)" />
<use xlink:href="#f1_a" transform="matrix(12,0,0,12,502.3,469.9)" />
<use xlink:href="#f1_a" transform="matrix(12,0,0,12,510.9,469.9)" />
<use xlink:href="#f1_9" transform="matrix(12,0,0,12,519.6,469.9)" />
<use xlink:href="#f1_7" transform="matrix(12,0,0,12,529.4,469.9)" />
<use xlink:href="#f1_h" transform="matrix(12,0,0,12,541.2,469.9)" />
<use xlink:href="#f1_j" transform="matrix(12,0,0,12,552.4,469.9)" />
<use xlink:href="#f1_k" transform="matrix(12,0,0,12,568.2,469.9)" />
<use xlink:href="#f1_9" transform="matrix(12,0,0,12,579.8,469.9)" />
<use xlink:href="#f1_7" transform="matrix(12,0,0,12,589.6,469.9)" />
<use xlink:href="#f1_h" transform="matrix(12,0,0,12,606.2,469.9)" />
<use xlink:href="#f1_k" transform="matrix(12,0,0,12,612.6,469.9)" />
<use xlink:href="#f1_9" transform="matrix(12,0,0,12,624.2,469.9)" />
<use xlink:href="#f1_19" transform="matrix(12,0,0,12,638.8,469.9)" />
<use xlink:href="#f1_i" transform="matrix(12,0,0,12,652.8,469.9)" />
<use xlink:href="#f1_a" transform="matrix(12,0,0,12,663.4,469.9)" />
<use xlink:href="#f1_h" transform="matrix(12,0,0,12,672,469.9)" />
<use xlink:href="#f1_k" transform="matrix(12,0,0,12,678.4,469.9)" />
<use xlink:href="#f1_v" transform="matrix(12,0,0,12,694.8,469.9)" />
<use xlink:href="#f1_i" transform="matrix(12,0,0,12,706,469.9)" />
<use xlink:href="#f1_t" transform="matrix(12,0,0,12,716.6,469.9)" />
<use xlink:href="#f1_9" transform="matrix(12,0,0,12,722.3,469.9)" />
<use xlink:href="#f1_i" transform="matrix(12,0,0,12,736.9,469.9)" />
<use xlink:href="#f1_n" transform="matrix(12,0,0,12,747.4,469.9)" />
<use xlink:href="#f1_3" transform="matrix(12,0,0,12,758.9,469.9)" />
<use xlink:href="#f1_r" transform="matrix(12,0,0,12,774,469.9)" />
<use xlink:href="#f1_3" transform="matrix(12,0,0,12,785.3,469.9)" />
<use xlink:href="#f1_a" transform="matrix(12,0,0,12,795.6,469.9)" />
<use xlink:href="#f1_w" transform="matrix(12,0,0,12,47.4,502)" />
<use xlink:href="#f1_3" transform="matrix(12,0,0,12,64.7,502)" />
<use xlink:href="#f1_y" transform="matrix(12,0,0,12,75,502)" />
<use xlink:href="#f1_7" transform="matrix(12,0,0,12,84.8,502)" />
<use xlink:href="#f1_9" transform="matrix(12,0,0,12,96.7,502)" />
<use xlink:href="#f1_h" transform="matrix(12,0,0,12,106.5,502)" />
<use xlink:href="#f1_b" transform="matrix(12,0,0,12,117.7,502)" />
<use xlink:href="#f1_8" transform="matrix(12,0,0,12,123.5,502)" />
<use xlink:href="#f1_w" transform="matrix(12,0,0,12,136.5,502)" />
<use xlink:href="#f1_i" transform="matrix(12,0,0,12,153.8,502)" />
<use xlink:href="#f1_m" transform="matrix(12,0,0,12,164.4,502)" />
<use xlink:href="#f1_9" transform="matrix(12,0,0,12,175,502)" />
<use xlink:href="#f1_z" transform="matrix(12,0,0,12,184.8,502)" />
<use xlink:href="#f1_h" transform="matrix(12,0,0,12,200.8,502)" />
<use xlink:href="#f1_i" transform="matrix(12,0,0,12,207.3,502)" />
<use xlink:href="#f1_j" transform="matrix(12,0,0,12,217.8,502)" />
<use xlink:href="#f1_3" transform="matrix(12,0,0,12,233.6,502)" />
<use xlink:href="#f1_a" transform="matrix(12,0,0,12,243.9,502)" />
<use xlink:href="#f1_z" transform="matrix(12,0,0,12,252.5,502)" />
<use xlink:href="#f1_8" transform="matrix(12,0,0,12,263.8,502)" />
<use xlink:href="#f1_3" transform="matrix(12,0,0,12,276.8,502)" />
<use xlink:href="#f1_7" transform="matrix(12,0,0,12,287.1,502)" />
<use xlink:href="#f1_z" transform="matrix(12,0,0,12,298.9,502)" />
<use xlink:href="#f1_3" transform="matrix(12,0,0,12,314.9,502)" />
<use xlink:href="#f1_j" transform="matrix(12,0,0,12,325.2,502)" />
<use xlink:href="#f1_3" transform="matrix(12,0,0,12,341,502)" />
<use xlink:href="#f1_p" transform="matrix(12,0,0,12,351.3,502)" />
<use xlink:href="#f1_n" transform="matrix(12,0,0,12,366.4,502)" />
<use xlink:href="#f1_a" transform="matrix(12,0,0,12,373.2,502)" />
<use xlink:href="#f1_i" transform="matrix(12,0,0,12,381.8,502)" />
<use xlink:href="#f1_w" transform="matrix(12,0,0,12,392.4,502)" />
<use xlink:href="#f1_3" transform="matrix(12,0,0,12,414.4,502)" />
<use xlink:href="#f1_f" transform="matrix(12,0,0,12,429.5,502)" />
<use xlink:href="#f1_t" transform="matrix(12,0,0,12,438.5,502)" />
<use xlink:href="#f1_i" transform="matrix(12,0,0,12,444.2,502)" />
<use xlink:href="#f1_8" transform="matrix(12,0,0,12,454.8,502)" />
<use xlink:href="#f1_9" transform="matrix(12,0,0,12,463,502)" />
<use xlink:href="#f1_z" transform="matrix(12,0,0,12,472.8,502)" />
<use xlink:href="#f1_t" transform="matrix(12,0,0,12,488.8,502)" />
<use xlink:href="#f1_i" transform="matrix(12,0,0,12,494.5,502)" />
<use xlink:href="#f1_i" transform="matrix(12,0,0,12,505.1,502)" />
<use xlink:href="#f1_v" transform="matrix(12,0,0,12,515.6,502)" />
<use xlink:href="#f1_a" transform="matrix(12,0,0,12,531.6,502)" />
<use xlink:href="#f1_9" transform="matrix(12,0,0,12,540.3,502)" />
<use xlink:href="#f1_8" transform="matrix(12,0,0,12,550.1,502)" />
<use xlink:href="#f1_v" transform="matrix(12,0,0,12,558.3,502)" />
<use xlink:href="#f1_9" transform="matrix(12,0,0,12,569.6,502)" />
<use xlink:href="#f1_f" transform="matrix(12,0,0,12,579.4,502)" />
<use xlink:href="#f1_h" transform="matrix(12,0,0,12,588.4,502)" />
<use xlink:href="#f1_b" transform="matrix(12,0,0,12,594.9,502)" />
<use xlink:href="#f1_m" transform="matrix(12,0,0,12,600.7,502)" />
<use xlink:href="#f1_9" transform="matrix(12,0,0,12,611.3,502)" />
<use xlink:href="#f1_t" transform="matrix(12,0,0,12,621.1,502)" />
<use xlink:href="#f1_p" transform="matrix(12,0,0,12,626.8,502)" />
<use xlink:href="#f1_q" transform="matrix(12,0,0,12,637.1,502)" />
<use xlink:href="#f1_1n" transform="matrix(12,0,0,12,647.1,502)" />
<use xlink:href="#f1_8" transform="matrix(12,0,0,12,660.2,502)" />
<use xlink:href="#f1_b" transform="matrix(12,0,0,12,668.5,502)" />
<use xlink:href="#f1_7" transform="matrix(12,0,0,12,674.3,502)" />
<use xlink:href="#f1_y" transform="matrix(12,0,0,12,686.2,502)" />
<use xlink:href="#f1_c" transform="matrix(12,0,0,12,700.8,502)" />
<use xlink:href="#f1_9" transform="matrix(12,0,0,12,712.2,502)" />
<use xlink:href="#f1_7" transform="matrix(12,0,0,12,722,502)" />
<use xlink:href="#f1_1l" transform="matrix(12,0,0,12,733.8,502)" />
<use xlink:href="#f1_1m" transform="matrix(12,0,0,12,743.2,502)" />
<use xlink:href="#f1_8" transform="matrix(12,0,0,12,747.2,502)" />
<use xlink:href="#f1_a" transform="matrix(12,0,0,12,760.2,502)" />
<use xlink:href="#f1_g" transform="matrix(12,0,0,12,768.8,502)" />
<use xlink:href="#f1_t" transform="matrix(12,0,0,12,780.5,502)" />
<use xlink:href="#f1_9" transform="matrix(12,0,0,12,786.1,502)" />
<use xlink:href="#f1_16" transform="matrix(12,0,0,12,795.9,502)" />
<use xlink:href="#f1_h" transform="matrix(12,0,0,12,805.3,502)" />
<use xlink:href="#f1_k" transform="matrix(12,0,0,12,811.7,502)" />
<use xlink:href="#f1_9" transform="matrix(12,0,0,12,823.4,502)" />
<use xlink:href="#f1_z" transform="matrix(12,0,0,12,47.4,534.1)" />
<use xlink:href="#f1_b" transform="matrix(12,0,0,12,58.6,534.1)" />
<use xlink:href="#f1_a" transform="matrix(12,0,0,12,64.5,534.1)" />
<use xlink:href="#f1_9" transform="matrix(12,0,0,12,73.1,534.1)" />
<use xlink:href="#f1_f" transform="matrix(12,0,0,12,82.9,534.1)" />
<use xlink:href="#f1_h" transform="matrix(12,0,0,12,91.9,534.1)" />
<use xlink:href="#f1_b" transform="matrix(12,0,0,12,98.4,534.1)" />
<use xlink:href="#f1_i" transform="matrix(12,0,0,12,104.2,534.1)" />
<use xlink:href="#f1_7" transform="matrix(12,0,0,12,114.8,534.1)" />
<use xlink:href="#f1_i" transform="matrix(12,0,0,12,131.3,534.1)" />
<use xlink:href="#f1_n" transform="matrix(12,0,0,12,141.9,534.1)" />
<use xlink:href="#f1_h" transform="matrix(12,0,0,12,153.4,534.1)" />
<use xlink:href="#f1_k" transform="matrix(12,0,0,12,159.9,534.1)" />
<use xlink:href="#f1_9" transform="matrix(12,0,0,12,171.5,534.1)" />
<use xlink:href="#f1_b" transform="matrix(12,0,0,12,186.1,534.1)" />
<use xlink:href="#f1_7" transform="matrix(12,0,0,12,191.9,534.1)" />
<use xlink:href="#f1_z" transform="matrix(12,0,0,12,203.7,534.1)" />
<use xlink:href="#f1_g" transform="matrix(12,0,0,12,215,534.1)" />
<use xlink:href="#f1_f" transform="matrix(12,0,0,12,226.6,534.1)" />
<use xlink:href="#f1_9" transform="matrix(12,0,0,12,235.6,534.1)" />
<use xlink:href="#f1_z" transform="matrix(12,0,0,12,245.4,534.1)" />
<use xlink:href="#f1_f" transform="matrix(12,0,0,12,261.4,534.1)" />
<use xlink:href="#f1_g" transform="matrix(12,0,0,12,270.4,534.1)" />
<use xlink:href="#f1_a" transform="matrix(12,0,0,12,282.1,534.1)" />
<use xlink:href="#f1_a" transform="matrix(12,0,0,12,290.7,534.1)" />
<use xlink:href="#f1_9" transform="matrix(12,0,0,12,299.3,534.1)" />
<use xlink:href="#f1_7" transform="matrix(12,0,0,12,309.1,534.1)" />
<use xlink:href="#f1_h" transform="matrix(12,0,0,12,320.9,534.1)" />
<use xlink:href="#f1_b" transform="matrix(12,0,0,12,332.1,534.1)" />
<use xlink:href="#f1_7" transform="matrix(12,0,0,12,338,534.1)" />
<use xlink:href="#f1_h" transform="matrix(12,0,0,12,354.5,534.1)" />
<use xlink:href="#f1_k" transform="matrix(12,0,0,12,361,534.1)" />
<use xlink:href="#f1_9" transform="matrix(12,0,0,12,372.6,534.1)" />
<use xlink:href="#f1_y" transform="matrix(12,0,0,12,387.2,534.1)" />
<use xlink:href="#f1_b" transform="matrix(12,0,0,12,397,534.1)" />
<use xlink:href="#f1_m" transform="matrix(12,0,0,12,402.9,534.1)" />
<use xlink:href="#f1_9" transform="matrix(12,0,0,12,413.5,534.1)" />
<use xlink:href="#f1_7" transform="matrix(12,0,0,12,423.3,534.1)" />
<use xlink:href="#f1_8" transform="matrix(12,0,0,12,439.9,534.1)" />
<use xlink:href="#f1_b" transform="matrix(12,0,0,12,448.1,534.1)" />
<use xlink:href="#f1_h" transform="matrix(12,0,0,12,454,534.1)" />
<use xlink:href="#f1_g" transform="matrix(12,0,0,12,460.4,534.1)" />
<use xlink:href="#f1_3" transform="matrix(12,0,0,12,472,534.1)" />
<use xlink:href="#f1_h" transform="matrix(12,0,0,12,482.3,534.1)" />
<use xlink:href="#f1_b" transform="matrix(12,0,0,12,488.8,534.1)" />
<use xlink:href="#f1_i" transform="matrix(12,0,0,12,494.6,534.1)" />
<use xlink:href="#f1_7" transform="matrix(12,0,0,12,505.2,534.1)" />
<use xlink:href="#f1_8" transform="matrix(12,0,0,12,517,534.1)" />
<use xlink:href="#f1_f" transform="matrix(12,0,0,12,530,534.1)" />
<use xlink:href="#f1_3" transform="matrix(12,0,0,12,539.1,534.1)" />
<use xlink:href="#f1_7" transform="matrix(12,0,0,12,549.4,534.1)" />
<use xlink:href="#f1_r" transform="matrix(12,0,0,12,565.9,534.1)" />
<use xlink:href="#f1_9" transform="matrix(12,0,0,12,577.2,534.1)" />
<use xlink:href="#f1_v" transform="matrix(12,0,0,12,591.8,534.1)" />
<use xlink:href="#f1_a" transform="matrix(12,0,0,12,603,534.1)" />
<use xlink:href="#f1_9" transform="matrix(12,0,0,12,611.6,534.1)" />
<use xlink:href="#f1_z" transform="matrix(12,0,0,12,621.4,534.1)" />
<use xlink:href="#f1_b" transform="matrix(12,0,0,12,632.7,534.1)" />
<use xlink:href="#f1_f" transform="matrix(12,0,0,12,638.5,534.1)" />
<use xlink:href="#f1_h" transform="matrix(12,0,0,12,647.5,534.1)" />
<use xlink:href="#f1_9" transform="matrix(12,0,0,12,654,534.1)" />
<use xlink:href="#f1_z" transform="matrix(12,0,0,12,663.8,534.1)" />
<use xlink:href="#f1_3" transform="matrix(12,0,0,12,679.8,534.1)" />
<use xlink:href="#f1_8" transform="matrix(12,0,0,12,690.1,534.1)" />
<use xlink:href="#f1_n" transform="matrix(12,0,0,12,703.1,534.1)" />
<use xlink:href="#f1_i" transform="matrix(12,0,0,12,709.9,534.1)" />
<use xlink:href="#f1_t" transform="matrix(12,0,0,12,720.4,534.1)" />
<use xlink:href="#f1_t" transform="matrix(12,0,0,12,726.1,534.1)" />
<use xlink:href="#f1_i" transform="matrix(12,0,0,12,731.8,534.1)" />
<use xlink:href="#f1_j" transform="matrix(12,0,0,12,742.4,534.1)" />
<use xlink:href="#f1_8" transform="matrix(12,0,0,12,758.2,534.1)" />
<use xlink:href="#f1_1o" transform="matrix(12,0,0,12,766.4,534.1)" />
</g>
<image preserveAspectRatio="none" x="47" y="541" width="401" height="136" xlink:href="img/2.png" />
<g fill="#000000" >
<use xlink:href="#f0_11" transform="matrix(12,0,0,12,47.4,718.1)" />
<use xlink:href="#f0_3" transform="matrix(12,0,0,12,54.7,718.1)" />
<use xlink:href="#f0_12" transform="matrix(12,0,0,12,65.7,718.1)" />
<use xlink:href="#f1_l" transform="matrix(12,0,0,12,77.8,718.1)" />
<use xlink:href="#f1_k" transform="matrix(12,0,0,12,89,718.1)" />
<use xlink:href="#f1_9" transform="matrix(12,0,0,12,100.6,718.1)" />
<use xlink:href="#f1_z" transform="matrix(12,0,0,12,115.2,718.1)" />
<use xlink:href="#f1_b" transform="matrix(12,0,0,12,126.4,718.1)" />
<use xlink:href="#f1_a" transform="matrix(12,0,0,12,132.2,718.1)" />
<use xlink:href="#f1_9" transform="matrix(12,0,0,12,140.9,718.1)" />
<use xlink:href="#f1_f" transform="matrix(12,0,0,12,150.7,718.1)" />
<use xlink:href="#f1_h" transform="matrix(12,0,0,12,159.7,718.1)" />
<use xlink:href="#f1_b" transform="matrix(12,0,0,12,166.1,718.1)" />
<use xlink:href="#f1_i" transform="matrix(12,0,0,12,172,718.1)" />
<use xlink:href="#f1_7" transform="matrix(12,0,0,12,182.6,718.1)" />
<use xlink:href="#f1_i" transform="matrix(12,0,0,12,199.1,718.1)" />
<use xlink:href="#f1_n" transform="matrix(12,0,0,12,209.7,718.1)" />
<use xlink:href="#f1_h" transform="matrix(12,0,0,12,221.2,718.1)" />
<use xlink:href="#f1_k" transform="matrix(12,0,0,12,227.7,718.1)" />
<use xlink:href="#f1_9" transform="matrix(12,0,0,12,239.3,718.1)" />
<use xlink:href="#f1_b" transform="matrix(12,0,0,12,253.9,718.1)" />
<use xlink:href="#f1_7" transform="matrix(12,0,0,12,259.7,718.1)" />
<use xlink:href="#f1_z" transform="matrix(12,0,0,12,271.5,718.1)" />
<use xlink:href="#f1_g" transform="matrix(12,0,0,12,282.8,718.1)" />
<use xlink:href="#f1_f" transform="matrix(12,0,0,12,294.4,718.1)" />
<use xlink:href="#f1_9" transform="matrix(12,0,0,12,303.4,718.1)" />
<use xlink:href="#f1_z" transform="matrix(12,0,0,12,313.2,718.1)" />
<use xlink:href="#f1_f" transform="matrix(12,0,0,12,329.2,718.1)" />
<use xlink:href="#f1_g" transform="matrix(12,0,0,12,338.2,718.1)" />
<use xlink:href="#f1_a" transform="matrix(12,0,0,12,349.9,718.1)" />
<use xlink:href="#f1_a" transform="matrix(12,0,0,12,358.5,718.1)" />
<use xlink:href="#f1_9" transform="matrix(12,0,0,12,367.1,718.1)" />
<use xlink:href="#f1_7" transform="matrix(12,0,0,12,376.9,718.1)" />
<use xlink:href="#f1_h" transform="matrix(12,0,0,12,388.7,718.1)" />
<use xlink:href="#f1_b" transform="matrix(12,0,0,12,399.9,718.1)" />
<use xlink:href="#f1_8" transform="matrix(12,0,0,12,405.8,718.1)" />
<use xlink:href="#f1_3" transform="matrix(12,0,0,12,418.8,718.1)" />
<use xlink:href="#f1_t" transform="matrix(12,0,0,12,429.1,718.1)" />
<use xlink:href="#f1_i" transform="matrix(12,0,0,12,434.8,718.1)" />
<use xlink:href="#f1_7" transform="matrix(12,0,0,12,445.3,718.1)" />
<use xlink:href="#f1_y" transform="matrix(12,0,0,12,457.2,718.1)" />
<use xlink:href="#f0_17" transform="matrix(12,0,0,12,471.8,718.1)" />
<use xlink:href="#f0_6" transform="matrix(12,0,0,12,483.6,718.1)" />
<use xlink:href="#f0_u" transform="matrix(12,0,0,12,493.2,718.1)" />
<use xlink:href="#f0_17" transform="matrix(12,0,0,12,505,718.1)" />
<use xlink:href="#f2_2" transform="matrix(12,0,0,12,516.9,718.1)" />
<use xlink:href="#f0_11" transform="matrix(12,0,0,12,47.4,768.5)" />
<use xlink:href="#f0_18" transform="matrix(12,0,0,12,54.7,768.5)" />
<use xlink:href="#f0_12" transform="matrix(12,0,0,12,66.6,768.5)" />
<use xlink:href="#f1_l" transform="matrix(12,0,0,12,78.7,768.5)" />
<use xlink:href="#f1_k" transform="matrix(12,0,0,12,89.9,768.5)" />
<use xlink:href="#f1_9" transform="matrix(12,0,0,12,101.5,768.5)" />
<use xlink:href="#f1_z" transform="matrix(12,0,0,12,116.1,768.5)" />
<use xlink:href="#f1_b" transform="matrix(12,0,0,12,127.3,768.5)" />
<use xlink:href="#f1_a" transform="matrix(12,0,0,12,133.2,768.5)" />
<use xlink:href="#f1_9" transform="matrix(12,0,0,12,141.8,768.5)" />
<use xlink:href="#f1_f" transform="matrix(12,0,0,12,151.6,768.5)" />
<use xlink:href="#f1_h" transform="matrix(12,0,0,12,160.6,768.5)" />
<use xlink:href="#f1_b" transform="matrix(12,0,0,12,167.1,768.5)" />
<use xlink:href="#f1_i" transform="matrix(12,0,0,12,172.9,768.5)" />
<use xlink:href="#f1_7" transform="matrix(12,0,0,12,183.5,768.5)" />
<use xlink:href="#f1_i" transform="matrix(12,0,0,12,200,768.5)" />
<use xlink:href="#f1_n" transform="matrix(12,0,0,12,210.6,768.5)" />
<use xlink:href="#f1_h" transform="matrix(12,0,0,12,222.1,768.5)" />
<use xlink:href="#f1_k" transform="matrix(12,0,0,12,228.6,768.5)" />
<use xlink:href="#f1_9" transform="matrix(12,0,0,12,240.2,768.5)" />
<use xlink:href="#f1_b" transform="matrix(12,0,0,12,254.8,768.5)" />
<use xlink:href="#f1_7" transform="matrix(12,0,0,12,260.6,768.5)" />
<use xlink:href="#f1_z" transform="matrix(12,0,0,12,272.4,768.5)" />
<use xlink:href="#f1_g" transform="matrix(12,0,0,12,283.7,768.5)" />
<use xlink:href="#f1_f" transform="matrix(12,0,0,12,295.3,768.5)" />
<use xlink:href="#f1_9" transform="matrix(12,0,0,12,304.3,768.5)" />
<use xlink:href="#f1_z" transform="matrix(12,0,0,12,314.1,768.5)" />
<use xlink:href="#f1_f" transform="matrix(12,0,0,12,330.1,768.5)" />
<use xlink:href="#f1_g" transform="matrix(12,0,0,12,339.1,768.5)" />
<use xlink:href="#f1_a" transform="matrix(12,0,0,12,350.8,768.5)" />
<use xlink:href="#f1_a" transform="matrix(12,0,0,12,359.4,768.5)" />
<use xlink:href="#f1_9" transform="matrix(12,0,0,12,368,768.5)" />
<use xlink:href="#f1_7" transform="matrix(12,0,0,12,377.8,768.5)" />
<use xlink:href="#f1_h" transform="matrix(12,0,0,12,389.6,768.5)" />
<use xlink:href="#f1_b" transform="matrix(12,0,0,12,400.8,768.5)" />
<use xlink:href="#f1_8" transform="matrix(12,0,0,12,406.7,768.5)" />
<use xlink:href="#f1_3" transform="matrix(12,0,0,12,419.7,768.5)" />
<use xlink:href="#f1_t" transform="matrix(12,0,0,12,430,768.5)" />
<use xlink:href="#f1_i" transform="matrix(12,0,0,12,435.7,768.5)" />
<use xlink:href="#f1_7" transform="matrix(12,0,0,12,446.3,768.5)" />
<use xlink:href="#f1_y" transform="matrix(12,0,0,12,458.1,768.5)" />
<use xlink:href="#f0_u" transform="matrix(12,0,0,12,472.7,768.5)" />
<use xlink:href="#f0_6" transform="matrix(12,0,0,12,484.5,768.5)" />
<use xlink:href="#f0_17" transform="matrix(12,0,0,12,494.1,768.5)" />
<use xlink:href="#f0_u" transform="matrix(12,0,0,12,505.9,768.5)" />
<use xlink:href="#f1_q" transform="matrix(12,0,0,12,517.7,768.5)" />
<use xlink:href="#f0_11" transform="matrix(12,0,0,12,47.4,818.9)" />
<use xlink:href="#f0_o" transform="matrix(12,0,0,12,54.7,818.9)" />
<use xlink:href="#f0_12" transform="matrix(12,0,0,12,64.3,818.9)" />
<use xlink:href="#f1_l" transform="matrix(12,0,0,12,76.4,818.9)" />
<use xlink:href="#f1_k" transform="matrix(12,0,0,12,87.6,818.9)" />
<use xlink:href="#f1_9" transform="matrix(12,0,0,12,99.3,818.9)" />
<use xlink:href="#f1_z" transform="matrix(12,0,0,12,113.8,818.9)" />
<use xlink:href="#f1_b" transform="matrix(12,0,0,12,125.1,818.9)" />
<use xlink:href="#f1_a" transform="matrix(12,0,0,12,130.9,818.9)" />
<use xlink:href="#f1_9" transform="matrix(12,0,0,12,139.5,818.9)" />
<use xlink:href="#f1_f" transform="matrix(12,0,0,12,149.3,818.9)" />
<use xlink:href="#f1_h" transform="matrix(12,0,0,12,158.4,818.9)" />
<use xlink:href="#f1_b" transform="matrix(12,0,0,12,164.8,818.9)" />
<use xlink:href="#f1_i" transform="matrix(12,0,0,12,170.7,818.9)" />
<use xlink:href="#f1_7" transform="matrix(12,0,0,12,181.2,818.9)" />
<use xlink:href="#f1_i" transform="matrix(12,0,0,12,197.8,818.9)" />
<use xlink:href="#f1_n" transform="matrix(12,0,0,12,208.4,818.9)" />
<use xlink:href="#f1_h" transform="matrix(12,0,0,12,219.9,818.9)" />
<use xlink:href="#f1_k" transform="matrix(12,0,0,12,226.3,818.9)" />
<use xlink:href="#f1_9" transform="matrix(12,0,0,12,238,818.9)" />
<use xlink:href="#f1_b" transform="matrix(12,0,0,12,252.5,818.9)" />
<use xlink:href="#f1_7" transform="matrix(12,0,0,12,258.4,818.9)" />
<use xlink:href="#f1_z" transform="matrix(12,0,0,12,270.2,818.9)" />
<use xlink:href="#f1_g" transform="matrix(12,0,0,12,281.4,818.9)" />
<use xlink:href="#f1_f" transform="matrix(12,0,0,12,293,818.9)" />
<use xlink:href="#f1_9" transform="matrix(12,0,0,12,302.1,818.9)" />
<use xlink:href="#f1_z" transform="matrix(12,0,0,12,311.9,818.9)" />
<use xlink:href="#f1_f" transform="matrix(12,0,0,12,327.9,818.9)" />
<use xlink:href="#f1_g" transform="matrix(12,0,0,12,336.9,818.9)" />
<use xlink:href="#f1_a" transform="matrix(12,0,0,12,348.5,818.9)" />
<use xlink:href="#f1_a" transform="matrix(12,0,0,12,357.1,818.9)" />
<use xlink:href="#f1_9" transform="matrix(12,0,0,12,365.8,818.9)" />
<use xlink:href="#f1_7" transform="matrix(12,0,0,12,375.6,818.9)" />
<use xlink:href="#f1_h" transform="matrix(12,0,0,12,387.4,818.9)" />
<use xlink:href="#f1_b" transform="matrix(12,0,0,12,398.6,818.9)" />
<use xlink:href="#f1_8" transform="matrix(12,0,0,12,404.4,818.9)" />
<use xlink:href="#f1_3" transform="matrix(12,0,0,12,417.4,818.9)" />
<use xlink:href="#f1_t" transform="matrix(12,0,0,12,427.8,818.9)" />
<use xlink:href="#f1_i" transform="matrix(12,0,0,12,433.4,818.9)" />
<use xlink:href="#f1_7" transform="matrix(12,0,0,12,444,818.9)" />
<use xlink:href="#f1_y" transform="matrix(12,0,0,12,455.8,818.9)" />
<use xlink:href="#f3_2" transform="matrix(12,0,0,12,470.4,818.9)" />
<use xlink:href="#f3_3" transform="matrix(12,0,0,12,481.2,818.9)" />
<use xlink:href="#f3_4" transform="matrix(12,0,0,12,491.4,818.9)" />
<use xlink:href="#f3_2" transform="matrix(12,0,0,12,502.4,818.9)" />
<use xlink:href="#f1_q" transform="matrix(12,0,0,12,513.2,818.9)" />
<use xlink:href="#f0_11" transform="matrix(12,0,0,12,47.4,869.3)" />
<use xlink:href="#f0_a" transform="matrix(12,0,0,12,54.7,869.3)" />
<use xlink:href="#f0_12" transform="matrix(12,0,0,12,66.6,869.3)" />
<use xlink:href="#f1_l" transform="matrix(12,0,0,12,78.7,869.3)" />
<use xlink:href="#f1_k" transform="matrix(12,0,0,12,89.9,869.3)" />
<use xlink:href="#f1_9" transform="matrix(12,0,0,12,101.5,869.3)" />
<use xlink:href="#f1_z" transform="matrix(12,0,0,12,116.1,869.3)" />
<use xlink:href="#f1_b" transform="matrix(12,0,0,12,127.3,869.3)" />
<use xlink:href="#f1_a" transform="matrix(12,0,0,12,133.2,869.3)" />
<use xlink:href="#f1_9" transform="matrix(12,0,0,12,141.8,869.3)" />
<use xlink:href="#f1_f" transform="matrix(12,0,0,12,151.6,869.3)" />
<use xlink:href="#f1_h" transform="matrix(12,0,0,12,160.6,869.3)" />
<use xlink:href="#f1_b" transform="matrix(12,0,0,12,167.1,869.3)" />
<use xlink:href="#f1_i" transform="matrix(12,0,0,12,172.9,869.3)" />
<use xlink:href="#f1_7" transform="matrix(12,0,0,12,183.5,869.3)" />
<use xlink:href="#f1_i" transform="matrix(12,0,0,12,200,869.3)" />
<use xlink:href="#f1_n" transform="matrix(12,0,0,12,210.6,869.3)" />
<use xlink:href="#f1_h" transform="matrix(12,0,0,12,222.1,869.3)" />
<use xlink:href="#f1_k" transform="matrix(12,0,0,12,228.6,869.3)" />
<use xlink:href="#f1_9" transform="matrix(12,0,0,12,240.2,869.3)" />
<use xlink:href="#f1_b" transform="matrix(12,0,0,12,254.8,869.3)" />
<use xlink:href="#f1_7" transform="matrix(12,0,0,12,260.6,869.3)" />
<use xlink:href="#f1_z" transform="matrix(12,0,0,12,272.4,869.3)" />
<use xlink:href="#f1_g" transform="matrix(12,0,0,12,283.7,869.3)" />
<use xlink:href="#f1_f" transform="matrix(12,0,0,12,295.3,869.3)" />
<use xlink:href="#f1_9" transform="matrix(12,0,0,12,304.3,869.3)" />
<use xlink:href="#f1_z" transform="matrix(12,0,0,12,314.1,869.3)" />
<use xlink:href="#f1_f" transform="matrix(12,0,0,12,330.1,869.3)" />
<use xlink:href="#f1_g" transform="matrix(12,0,0,12,339.1,869.3)" />
<use xlink:href="#f1_a" transform="matrix(12,0,0,12,350.8,869.3)" />
<use xlink:href="#f1_a" transform="matrix(12,0,0,12,359.4,869.3)" />
<use xlink:href="#f1_9" transform="matrix(12,0,0,12,368,869.3)" />
<use xlink:href="#f1_7" transform="matrix(12,0,0,12,377.8,869.3)" />
<use xlink:href="#f1_h" transform="matrix(12,0,0,12,389.6,869.3)" />
<use xlink:href="#f1_b" transform="matrix(12,0,0,12,400.8,869.3)" />
<use xlink:href="#f1_8" transform="matrix(12,0,0,12,406.7,869.3)" />
<use xlink:href="#f1_3" transform="matrix(12,0,0,12,419.7,869.3)" />
<use xlink:href="#f1_t" transform="matrix(12,0,0,12,430,869.3)" />
<use xlink:href="#f1_i" transform="matrix(12,0,0,12,435.7,869.3)" />
<use xlink:href="#f1_7" transform="matrix(12,0,0,12,446.3,869.3)" />
<use xlink:href="#f1_y" transform="matrix(12,0,0,12,458.1,869.3)" />
<use xlink:href="#f3_3" transform="matrix(12,0,0,12,472.7,869.3)" />
<use xlink:href="#f3_2" transform="matrix(12,0,0,12,482.9,869.3)" />
<use xlink:href="#f3_4" transform="matrix(12,0,0,12,493.6,869.3)" />
<use xlink:href="#f3_3" transform="matrix(12,0,0,12,504.7,869.3)" />
<use xlink:href="#f1_q" transform="matrix(12,0,0,12,514.9,869.3)" />
<use xlink:href="#f0_11" transform="matrix(12,0,0,12,47.4,919.7)" />
<use xlink:href="#f0_5" transform="matrix(12,0,0,12,54.7,919.7)" />
<use xlink:href="#f0_12" transform="matrix(12,0,0,12,65.1,919.7)" />
<use xlink:href="#f1_l" transform="matrix(12,0,0,12,77.2,919.7)" />
<use xlink:href="#f1_k" transform="matrix(12,0,0,12,88.4,919.7)" />
<use xlink:href="#f1_9" transform="matrix(12,0,0,12,100.1,919.7)" />
<use xlink:href="#f1_z" transform="matrix(12,0,0,12,114.6,919.7)" />
<use xlink:href="#f1_b" transform="matrix(12,0,0,12,125.9,919.7)" />
<use xlink:href="#f1_a" transform="matrix(12,0,0,12,131.7,919.7)" />
<use xlink:href="#f1_9" transform="matrix(12,0,0,12,140.3,919.7)" />
<use xlink:href="#f1_f" transform="matrix(12,0,0,12,150.2,919.7)" />
<use xlink:href="#f1_h" transform="matrix(12,0,0,12,159.2,919.7)" />
<use xlink:href="#f1_b" transform="matrix(12,0,0,12,165.6,919.7)" />
<use xlink:href="#f1_i" transform="matrix(12,0,0,12,171.5,919.7)" />
<use xlink:href="#f1_7" transform="matrix(12,0,0,12,182,919.7)" />
<use xlink:href="#f1_i" transform="matrix(12,0,0,12,198.6,919.7)" />
<use xlink:href="#f1_n" transform="matrix(12,0,0,12,209.2,919.7)" />
<use xlink:href="#f1_h" transform="matrix(12,0,0,12,220.7,919.7)" />
<use xlink:href="#f1_k" transform="matrix(12,0,0,12,227.1,919.7)" />
<use xlink:href="#f1_9" transform="matrix(12,0,0,12,238.8,919.7)" />
<use xlink:href="#f1_b" transform="matrix(12,0,0,12,253.3,919.7)" />
<use xlink:href="#f1_7" transform="matrix(12,0,0,12,259.2,919.7)" />
<use xlink:href="#f1_z" transform="matrix(12,0,0,12,271,919.7)" />
<use xlink:href="#f1_g" transform="matrix(12,0,0,12,282.2,919.7)" />
<use xlink:href="#f1_f" transform="matrix(12,0,0,12,293.9,919.7)" />
<use xlink:href="#f1_9" transform="matrix(12,0,0,12,302.9,919.7)" />
<use xlink:href="#f1_z" transform="matrix(12,0,0,12,312.7,919.7)" />
<use xlink:href="#f1_f" transform="matrix(12,0,0,12,328.7,919.7)" />
<use xlink:href="#f1_g" transform="matrix(12,0,0,12,337.7,919.7)" />
<use xlink:href="#f1_a" transform="matrix(12,0,0,12,349.3,919.7)" />
<use xlink:href="#f1_a" transform="matrix(12,0,0,12,358,919.7)" />
<use xlink:href="#f1_9" transform="matrix(12,0,0,12,366.6,919.7)" />
<use xlink:href="#f1_7" transform="matrix(12,0,0,12,376.4,919.7)" />
<use xlink:href="#f1_h" transform="matrix(12,0,0,12,388.2,919.7)" />
<use xlink:href="#f1_b" transform="matrix(12,0,0,12,399.4,919.7)" />
<use xlink:href="#f1_8" transform="matrix(12,0,0,12,405.2,919.7)" />
<use xlink:href="#f1_3" transform="matrix(12,0,0,12,418.3,919.7)" />
<use xlink:href="#f1_t" transform="matrix(12,0,0,12,428.6,919.7)" />
<use xlink:href="#f1_i" transform="matrix(12,0,0,12,434.2,919.7)" />
<use xlink:href="#f1_7" transform="matrix(12,0,0,12,444.8,919.7)" />
<use xlink:href="#f1_y" transform="matrix(12,0,0,12,456.6,919.7)" />
<use xlink:href="#f3_4" transform="matrix(12,0,0,12,471.2,919.7)" />
<use xlink:href="#f3_5" transform="matrix(12,0,0,12,482.3,919.7)" />
<use xlink:href="#f3_2" transform="matrix(12,0,0,12,492.4,919.7)" />
<use xlink:href="#f3_4" transform="matrix(12,0,0,12,503.1,919.7)" />
<use xlink:href="#f1_q" transform="matrix(12,0,0,12,514.2,919.7)" />
<use xlink:href="#f0_11" transform="matrix(12,0,0,12,47.4,970.1)" />
<use xlink:href="#f0_e" transform="matrix(12,0,0,12,54.7,970.1)" />
<use xlink:href="#f0_12" transform="matrix(12,0,0,12,62.1,970.1)" />
<use xlink:href="#f1_19" transform="matrix(12,0,0,12,74.2,970.1)" />
<use xlink:href="#f1_i" transform="matrix(12,0,0,12,88.2,970.1)" />
<use xlink:href="#f1_f" transform="matrix(12,0,0,12,103.5,970.1)" />
<use xlink:href="#f1_g" transform="matrix(12,0,0,12,112.6,970.1)" />
<use xlink:href="#f1_a" transform="matrix(12,0,0,12,124.2,970.1)" />
<use xlink:href="#f1_a" transform="matrix(12,0,0,12,132.8,970.1)" />
<use xlink:href="#f1_9" transform="matrix(12,0,0,12,141.4,970.1)" />
<use xlink:href="#f1_7" transform="matrix(12,0,0,12,151.2,970.1)" />
<use xlink:href="#f1_h" transform="matrix(12,0,0,12,163,970.1)" />
<use xlink:href="#f1_b" transform="matrix(12,0,0,12,174.2,970.1)" />
<use xlink:href="#f1_8" transform="matrix(12,0,0,12,180.1,970.1)" />
<use xlink:href="#f1_b" transform="matrix(12,0,0,12,193.1,970.1)" />
<use xlink:href="#f1_7" transform="matrix(12,0,0,12,198.9,970.1)" />
<use xlink:href="#f1_z" transform="matrix(12,0,0,12,210.8,970.1)" />
<use xlink:href="#f1_g" transform="matrix(12,0,0,12,222,970.1)" />
<use xlink:href="#f1_f" transform="matrix(12,0,0,12,233.6,970.1)" />
<use xlink:href="#f1_9" transform="matrix(12,0,0,12,242.7,970.1)" />
<use xlink:href="#f1_z" transform="matrix(12,0,0,12,252.5,970.1)" />
<use xlink:href="#f1_8" transform="matrix(12,0,0,12,268.5,970.1)" />
<use xlink:href="#f1_b" transform="matrix(12,0,0,12,276.7,970.1)" />
<use xlink:href="#f1_7" transform="matrix(12,0,0,12,282.6,970.1)" />
<use xlink:href="#f1_f" transform="matrix(12,0,0,12,294.4,970.1)" />
<use xlink:href="#f1_9" transform="matrix(12,0,0,12,303.4,970.1)" />
<use xlink:href="#f1_h" transform="matrix(12,0,0,12,318,970.1)" />
<use xlink:href="#f1_k" transform="matrix(12,0,0,12,324.4,970.1)" />
<use xlink:href="#f1_9" transform="matrix(12,0,0,12,336,970.1)" />
<use xlink:href="#f1_n" transform="matrix(12,0,0,12,350.6,970.1)" />
<use xlink:href="#f1_b" transform="matrix(12,0,0,12,357.4,970.1)" />
<use xlink:href="#f1_9" transform="matrix(12,0,0,12,363.2,970.1)" />
<use xlink:href="#f1_t" transform="matrix(12,0,0,12,373,970.1)" />
<use xlink:href="#f1_z" transform="matrix(12,0,0,12,378.7,970.1)" />
<use xlink:href="#f1_t" transform="matrix(12,0,0,12,394.7,970.1)" />
<use xlink:href="#f1_b" transform="matrix(12,0,0,12,400.4,970.1)" />
<use xlink:href="#f1_7" transform="matrix(12,0,0,12,406.2,970.1)" />
<use xlink:href="#f1_9" transform="matrix(12,0,0,12,418,970.1)" />
<use xlink:href="#f1_8" transform="matrix(12,0,0,12,427.8,970.1)" />
<use xlink:href="#f1_3" transform="matrix(12,0,0,12,440.9,970.1)" />
<use xlink:href="#f1_a" transform="matrix(12,0,0,12,451.2,970.1)" />
<use xlink:href="#f1_9" transform="matrix(12,0,0,12,459.8,970.1)" />
<use xlink:href="#f1_t" transform="matrix(12,0,0,12,474.3,970.1)" />
<use xlink:href="#f1_p" transform="matrix(12,0,0,12,480,970.1)" />
<use xlink:href="#f1_b" transform="matrix(12,0,0,12,490.4,970.1)" />
<use xlink:href="#f1_7" transform="matrix(12,0,0,12,496.2,970.1)" />
<use xlink:href="#f1_y" transform="matrix(12,0,0,12,508,970.1)" />
<use xlink:href="#f1_b" transform="matrix(12,0,0,12,522.6,970.1)" />
<use xlink:href="#f1_7" transform="matrix(12,0,0,12,528.5,970.1)" />
<use xlink:href="#f1_h" transform="matrix(12,0,0,12,545.1,970.1)" />
<use xlink:href="#f1_k" transform="matrix(12,0,0,12,551.5,970.1)" />
<use xlink:href="#f1_9" transform="matrix(12,0,0,12,563.1,970.1)" />
<use xlink:href="#f1_v" transform="matrix(12,0,0,12,577.7,970.1)" />
<use xlink:href="#f1_t" transform="matrix(12,0,0,12,588.9,970.1)" />
<use xlink:href="#f1_3" transform="matrix(12,0,0,12,594.6,970.1)" />
<use xlink:href="#f1_7" transform="matrix(12,0,0,12,604.9,970.1)" />
<use xlink:href="#f1_9" transform="matrix(12,0,0,12,616.7,970.1)" />
<use xlink:href="#f1_i" transform="matrix(12,0,0,12,631.3,970.1)" />
<use xlink:href="#f1_n" transform="matrix(12,0,0,12,641.9,970.1)" />
<use xlink:href="#f1_h" transform="matrix(12,0,0,12,653.4,970.1)" />
<use xlink:href="#f1_k" transform="matrix(12,0,0,12,659.8,970.1)" />
<use xlink:href="#f1_9" transform="matrix(12,0,0,12,671.5,970.1)" />
<use xlink:href="#f1_f" transform="matrix(12,0,0,12,686,970.1)" />
<use xlink:href="#f1_t" transform="matrix(12,0,0,12,695,970.1)" />
<use xlink:href="#f1_i" transform="matrix(12,0,0,12,700.7,970.1)" />
<use xlink:href="#f1_8" transform="matrix(12,0,0,12,711.3,970.1)" />
<use xlink:href="#f1_9" transform="matrix(12,0,0,12,719.6,970.1)" />
<use xlink:href="#f1_z" transform="matrix(12,0,0,12,729.4,970.1)" />
<use xlink:href="#f1_t" transform="matrix(12,0,0,12,745.4,970.1)" />
<use xlink:href="#f1_i" transform="matrix(12,0,0,12,751,970.1)" />
<use xlink:href="#f1_i" transform="matrix(12,0,0,12,761.6,970.1)" />
<use xlink:href="#f1_v" transform="matrix(12,0,0,12,772.2,970.1)" />
<use xlink:href="#f1_q" transform="matrix(12,0,0,12,783.4,970.1)" />
<use xlink:href="#f4_m" transform="matrix(8,0,0,8,785.4,1275.3)" />
<use xlink:href="#f4_s" transform="matrix(8,0,0,8,792.2,1275.3)" />
</g>
<defs>
<path d="M562,-212c0,0,-127,52,-217,121c0,0,-91,68,-147,155c0,0,-58,87,-84,193c0,0,-27,104,-27,229c0,0,0,123,27,228c0,0,26,104,84,191c0,0,56,86,147,155c0,0,90,68,217,119v-96c0,0,-70,-47,-115,-112c0,0,-45,-66,-70,-143c0,0,-26,-78,-35,-164c0,0,-10,-88,-9,-178c0,0,-1,-91,9,-179c0,0,9,-88,35,-165c0,0,25,-79,70,-143c0,0,45,-67,115,-113v-98Z" 
id="f0_11"
transform="scale(0.001,-0.001)" />

<path d="M29,0V81H63c0,0,16,0,35,4c0,0,18,3,36,13c0,0,15,10,26,30c0,0,10,19,11,53V715H35V819H171v57c0,0,-1,70,18,127c0,0,18,54,57,94c0,0,37,38,97,58c0,0,59,20,140,20c0,0,74,-1,123,-8c0,0,49,-10,78,-24c0,0,29,-16,42,-36c0,0,12,-21,12,-44c0,0,-1,-52,-46,-75c0,0,-47,-24,-142,-24c0,0,-1,18,-4,40c0,0,-4,21,-13,40c0,0,-9,19,-23,32c0,0,-15,12,-36,12c0,0,-20,0,-32,-10c0,0,-15,-11,-22,-32c0,0,-10,-23,-13,-58c0,0,-3,-35,-3,-85V819H614V715H404V181c0,0,0,-34,11,-53c0,0,9,-20,27,-30c0,0,15,-10,35,-13c0,0,18,-4,35,-4h71V0Z" 
id="f0_e"
transform="scale(0.001,-0.001)" />

<path d="M49,-212v98c0,0,70,46,116,113c0,0,44,64,70,143c0,0,24,77,34,165c0,0,9,88,9,179c0,0,0,90,-9,178c0,0,-10,86,-34,164c0,0,-26,77,-70,143c0,0,-46,65,-116,112v96c0,0,127,-51,218,-119c0,0,90,-69,148,-155c0,0,56,-87,83,-191c0,0,25,-105,26,-228c0,0,-1,-125,-26,-229c0,0,-27,-106,-83,-193c0,0,-58,-87,-148,-155c0,0,-91,-69,-218,-121Z" 
id="f0_12"
transform="scale(0.001,-0.001)" />

<path d="M674,452L593,703c0,0,-9,25,-16,55c0,0,-10,28,-18,58c0,0,-8,29,-16,60c0,0,-9,29,-14,56c0,0,-7,-24,-16,-51c0,0,-9,-28,-18,-57c0,0,-11,-29,-21,-58c0,0,-10,-29,-19,-56L365,452ZM6,0V81H25c0,0,20,0,37,5c0,0,16,4,31,17c0,0,14,12,28,34c0,0,12,20,26,55l331,899H688L1007,191c0,0,11,-33,24,-53c0,0,12,-22,27,-34c0,0,13,-12,30,-17c0,0,15,-6,32,-6c1,0,2,0,3,0h27V0H646V81h60c0,0,10,0,23,4c0,0,11,2,21,10c0,0,9,7,15,18c0,0,6,12,6,27c0,0,0,19,-4,36c0,0,-5,16,-9,30L704,359H333L289,228c0,0,-7,-20,-12,-44c0,0,-7,-26,-7,-44c0,0,0,-15,6,-26c0,0,5,-11,16,-18c0,0,9,-8,22,-11c0,0,12,-4,25,-4h65V0Z" 
id="f0_1a"
transform="scale(0.001,-0.001)" />

<path d="M31,0V81h3c0,0,25,0,47,4c0,0,21,3,38,14c0,0,16,11,25,32c0,0,9,20,9,55V639c0,0,0,32,-8,51c0,0,-8,19,-22,31c0,0,-15,9,-35,14c0,0,-20,3,-45,3H38v81H359L379,710h7c0,0,24,43,50,69c0,0,25,25,54,39c0,0,29,13,62,17c0,0,32,3,68,3c0,0,59,0,106,-17c0,0,47,-17,80,-53c0,0,32,-36,49,-91c0,0,16,-56,17,-133V189c0,0,0,-35,7,-56c0,0,5,-22,18,-33c0,0,12,-12,33,-15c0,0,18,-4,45,-4h4V0H640V503c0,0,-1,48,-6,88c0,0,-7,38,-21,64c0,0,-15,25,-38,40c0,0,-24,14,-57,14c0,0,-38,-1,-64,-20c0,0,-26,-19,-40,-51c0,0,-16,-33,-22,-76c0,0,-7,-44,-7,-90V181c0,0,0,-33,8,-52c0,0,7,-20,22,-30c0,0,13,-11,35,-14c0,0,19,-4,45,-4h5V0Z" 
id="f0_d"
transform="scale(0.001,-0.001)" />

<path d="M357,-14c-1,0,-3,0,-4,0c0,0,-83,0,-141,14c0,0,-60,12,-96,36c0,0,-37,23,-53,57c0,0,-17,32,-17,70c0,0,0,37,14,61c0,0,15,22,37,35c0,0,21,12,46,17c0,0,25,3,45,4c0,0,-1,-49,12,-86c0,0,12,-39,33,-64c0,0,21,-27,53,-41c0,0,28,-14,64,-14c1,0,2,0,3,0c0,0,39,0,68,8c0,0,28,7,47,23c0,0,18,14,27,34c0,0,9,17,9,39c0,0,0,25,-9,46c0,0,-10,18,-31,37c0,0,-22,16,-57,34c0,0,-38,16,-91,35c0,0,-62,21,-109,46c0,0,-48,24,-79,56c0,0,-33,30,-50,71c0,0,-17,38,-17,91c0,0,0,60,24,106c0,0,22,46,66,76c0,0,44,30,104,45c0,0,61,14,134,15c0,0,73,0,123,-12c0,0,50,-13,83,-33c0,0,32,-20,47,-45c0,0,14,-26,15,-52c0,0,0,-51,-36,-78c0,0,-37,-27,-120,-27c0,0,0,76,-33,119c0,0,-35,41,-101,41c0,0,-25,0,-47,-6c0,0,-24,-5,-40,-17c0,0,-17,-13,-26,-30c0,0,-11,-18,-11,-41c0,0,-1,-26,10,-44c0,0,9,-20,33,-37c0,0,23,-18,63,-36c0,0,40,-18,103,-39c0,0,50,-18,94,-40c0,0,43,-24,74,-53c0,0,30,-30,48,-67c0,0,16,-39,17,-86c0,0,-1,-65,-22,-114c0,0,-22,-50,-65,-84C598,56,555,21,494,4c0,0,-60,-18,-137,-18Z" 
id="f0_s"
transform="scale(0.001,-0.001)" />

<path d="M232,-11c0,0,-26,0,-49,7c0,0,-24,4,-40,19c0,0,-17,13,-27,37c0,0,-10,23,-9,58c0,0,-1,34,9,59c0,0,10,22,27,37c0,0,16,14,40,20c0,0,23,5,49,6c0,0,25,-1,48,-6c0,0,23,-6,40,-20c0,0,16,-15,28,-37c0,0,9,-25,9,-59c0,0,0,-35,-9,-58c0,0,-12,-24,-28,-37C320,15,303,0,280,-4c0,0,-23,-7,-48,-7Z" 
id="f0_n"
transform="scale(0.001,-0.001)" />

<path d="M229,0V64h35c0,0,25,0,49,4c0,0,22,3,39,13c0,0,17,10,28,32c0,0,9,20,9,53v849H243c0,0,-33,0,-56,-10c0,0,-24,-11,-37,-28c0,0,-15,-17,-22,-39c0,0,-8,-24,-10,-49l-8,-65H34v267H902V824H827l-8,65c0,0,-4,25,-10,49c0,0,-9,22,-22,39c0,0,-15,17,-37,28c0,0,-24,10,-58,10H544V174c0,0,0,-37,10,-58c0,0,10,-21,27,-32c0,0,16,-13,40,-16c0,0,22,-4,48,-4h35V0Z" 
id="f1_l"
transform="scale(0.001,-0.001)" />

<path d="M28,0V64H40c0,0,25,0,49,4c0,0,22,3,39,16c0,0,17,11,27,32c0,0,10,21,10,58V993c0,0,0,33,-10,54c0,0,-11,21,-27,32c0,0,-18,11,-40,15c0,0,-24,3,-48,3H28v64H308V825c0,0,0,-22,0,-43c0,0,-1,-24,-4,-43c0,0,0,-23,0,-44h6c0,0,68,139,225,139c0,0,65,-1,115,-17c0,0,50,-18,85,-54c0,0,34,-37,52,-93c0,0,18,-58,18,-135V174c0,0,0,-37,9,-58c0,0,9,-21,24,-32c0,0,16,-13,38,-16c0,0,21,-4,47,-4h4V0H662V527c0,0,0,50,-9,89c0,0,-10,39,-29,66c0,0,-20,26,-52,41c0,0,-33,13,-78,13c0,0,-49,0,-82,-17c0,0,-35,-18,-58,-50c0,0,-24,-33,-34,-78c0,0,-11,-46,-11,-102V166c0,0,0,-33,10,-53c0,0,10,-22,27,-32c0,0,17,-10,40,-13c0,0,22,-4,48,-4h5V0Z" 
id="f1_k"
transform="scale(0.001,-0.001)" />

<path d="M586,481c0,0,0,60,-9,111c0,0,-9,50,-29,85c0,0,-19,36,-51,56c0,0,-33,18,-79,19c0,0,-87,-1,-133,-69c0,0,-46,-69,-46,-202ZM439,-14c0,0,-83,0,-149,27c0,0,-66,28,-112,82c0,0,-46,53,-69,132c0,0,-25,77,-25,177c0,0,0,213,88,322c0,0,88,108,251,108c0,0,73,0,133,-23c0,0,58,-24,100,-69c0,0,41,-46,63,-114c0,0,21,-69,22,-159V399H233c0,0,0,-84,15,-143c0,0,15,-61,44,-99c0,0,28,-40,71,-57c0,0,40,-19,93,-19c1,0,2,0,4,0c0,0,38,0,73,9c0,0,33,9,62,24c0,0,26,14,48,34c0,0,21,18,35,40c0,0,10,-4,20,-19c0,0,9,-15,9,-33c0,0,0,-24,-16,-49c0,0,-17,-27,-50,-50C641,37,607,14,557,0c0,0,-50,-14,-118,-14Z" 
id="f1_9"
transform="scale(0.001,-0.001)" />

<path d="M421,83c0,0,59,0,100,20c0,0,39,19,65,60c0,0,23,39,34,101c0,0,10,61,10,144c0,0,0,79,-10,141c0,0,-11,61,-34,103c0,0,-25,41,-65,63c0,0,-41,21,-101,21c0,0,-51,0,-86,-21c0,0,-36,-23,-58,-64c0,0,-24,-42,-34,-103c0,0,-10,-62,-10,-141c0,0,0,-163,44,-244c0,0,43,-80,145,-80ZM395,-14c-8,0,-78,1,-133,24c0,0,-59,24,-98,77c0,0,-39,52,-60,132c0,0,-20,79,-20,189c0,0,0,110,20,191c0,0,21,80,60,133c0,0,39,51,98,77c0,0,58,25,133,25c0,0,44,0,80,-10c0,0,36,-10,65,-27c0,0,28,-18,51,-43c0,0,21,-24,39,-54h4c0,0,0,36,0,70c0,0,0,27,0,57c0,0,0,27,0,41V993c0,0,-1,33,-10,54c0,0,-11,21,-29,32c0,0,-18,11,-41,15c0,0,-24,3,-49,3H492v64H773V168c0,0,0,-34,10,-54c0,0,10,-21,27,-32c0,0,17,-11,40,-14c0,0,22,-4,48,-4h13V0H652L636,137h-6c0,0,-18,-35,-39,-62c0,0,-23,-29,-51,-48C540,27,512,6,476,-3c0,0,-36,-11,-81,-11Z" 
id="f1_z"
transform="scale(0.001,-0.001)" />

<path d="M35,0V64H55c0,0,25,0,49,4c0,0,22,3,39,13c0,0,17,10,28,32c0,0,10,20,10,53V650c0,0,0,33,-10,55c0,0,-11,20,-28,31c0,0,-17,11,-39,15c0,0,-24,3,-49,4H51v64H324V174c0,0,0,-37,10,-58c0,0,10,-21,27,-32c0,0,16,-13,40,-16c0,0,22,-4,48,-4h20V0ZM249,972c-1,0,-2,0,-3,0c0,0,-1,0,-2,0c-5,0,-20,0,-32,5c0,0,-16,5,-28,16c0,0,-12,11,-18,29c0,0,-7,18,-7,45c0,0,0,27,7,45c0,0,6,17,18,29c0,0,12,11,28,15c0,0,15,5,34,5c0,0,18,0,34,-5c0,0,15,-4,27,-15c0,0,11,-12,19,-29c0,0,7,-18,7,-45c0,0,0,-27,-7,-45c0,0,-8,-18,-19,-29c0,0,-12,-11,-27,-16c0,0,-14,-5,-31,-5Z" 
id="f1_b"
transform="scale(0.001,-0.001)" />

<path d="M51,0V64h4c0,0,26,0,49,4c0,0,23,3,40,16c0,0,16,11,27,32c0,0,10,21,10,58V650c0,0,0,33,-10,55c0,0,-11,20,-28,31c0,0,-17,11,-39,15c0,0,-24,3,-49,4H51v64H286L315,668h7c0,0,14,34,31,65c0,0,15,29,39,53c0,0,22,22,56,35c0,0,33,12,84,13c0,0,83,0,124,-29c0,0,41,-30,41,-82c0,0,0,-24,-8,-44c0,0,-9,-20,-25,-34c0,0,-17,-15,-44,-23c0,0,-27,-8,-66,-8c0,0,0,63,-18,92c0,0,-18,27,-62,27c0,0,-29,0,-51,-15c0,0,-22,-18,-39,-43c0,0,-17,-27,-28,-61c0,0,-13,-35,-19,-70c0,0,-8,-37,-10,-73c0,0,-4,-35,-3,-64V166c0,0,0,-33,10,-53c0,0,10,-22,27,-32c0,0,16,-10,40,-13c0,0,22,-4,48,-4h43V0Z" 
id="f1_a"
transform="scale(0.001,-0.001)" />

<path d="M433,-14c0,0,-77,0,-141,23c0,0,-64,23,-110,74c0,0,-46,50,-72,130c0,0,-26,79,-26,192c0,0,0,122,26,205c0,0,26,82,72,132c0,0,46,49,108,71c0,0,61,21,134,21c0,0,47,0,96,-9c0,0,47,-10,85,-29c0,0,38,-19,62,-49c0,0,23,-30,24,-69c0,0,0,-54,-35,-74c0,0,-35,-22,-102,-22c0,0,0,35,-6,68c0,0,-6,32,-20,56c0,0,-15,24,-39,38c0,0,-26,14,-65,14c0,0,-44,0,-79,-16c0,0,-35,-18,-61,-57c0,0,-26,-40,-39,-108c0,0,-13,-69,-13,-170c0,0,-1,-164,54,-243c0,0,54,-80,177,-80h1c6,0,72,1,123,30c0,0,52,30,79,77c0,0,11,-10,19,-24c0,0,7,-15,7,-36c0,0,0,-27,-16,-52c0,0,-17,-26,-49,-47C627,32,594,10,546,0c0,0,-48,-14,-113,-14Z" 
id="f1_f"
transform="scale(0.001,-0.001)" />

<path d="M367,-14c0,0,-59,0,-100,13c0,0,-42,10,-69,38c0,0,-27,27,-39,73c0,0,-14,45,-14,112V732H29v61c0,0,28,0,61,11c0,0,32,11,58,37c0,0,26,28,43,68c0,0,15,38,28,98h70V819H489V732H289V217c0,0,-1,-78,32,-115c0,0,30,-36,83,-36c0,0,1,0,1,0c0,0,2,0,6,0c9,0,28,0,45,3c0,0,23,3,47,7V9C503,9,492,4,477,0c0,0,-15,-3,-33,-6c0,0,-20,-5,-39,-6c0,0,-20,-2,-38,-2Z" 
id="f1_h"
transform="scale(0.001,-0.001)" />

<path d="M442,64c0,0,56,0,97,23c0,0,38,22,64,66c0,0,24,43,36,108c0,0,9,65,10,150c0,0,0,85,-11,149c0,0,-11,64,-36,108c0,0,-25,42,-64,64c0,0,-41,21,-98,21c0,0,-58,0,-97,-21c0,0,-39,-22,-64,-64c0,0,-25,-44,-36,-108c0,0,-11,-64,-11,-149c0,0,0,-85,11,-150c0,0,11,-65,37,-108c0,0,24,-44,65,-66c0,0,38,-23,97,-23Zm-3,-78c0,0,-83,0,-149,25c0,0,-66,26,-111,79c0,0,-47,52,-70,134c0,0,-25,79,-25,187c0,0,0,213,91,319c0,0,90,103,268,104c0,0,82,0,149,-25c0,0,65,-26,111,-79c0,0,46,-53,71,-132c0,0,23,-80,23,-187c0,0,0,-216,-91,-321C706,90,614,-14,439,-14Z" 
id="f1_i"
transform="scale(0.001,-0.001)" />

<path d="M43,0V64H55c0,0,26,0,49,4c0,0,23,3,40,16c0,0,16,11,27,32c0,0,10,21,10,58V650c0,0,0,33,-10,55c0,0,-11,20,-28,31c0,0,-17,11,-39,15c0,0,-24,3,-49,4H51v64H298L318,695h7c0,0,23,42,51,70c0,0,25,27,56,43c0,0,29,14,63,21c0,0,32,5,69,5c0,0,60,-1,108,-17c0,0,47,-18,81,-54c0,0,32,-37,50,-93c0,0,17,-58,18,-135V174c0,0,0,-37,9,-58c0,0,7,-21,23,-32c0,0,16,-13,38,-16c0,0,21,-4,47,-4h5V0H677V527c0,0,0,50,-9,89c0,0,-10,39,-29,66c0,0,-20,26,-52,41c0,0,-33,13,-78,13c0,0,-53,0,-88,-20c0,0,-36,-20,-57,-54c0,0,-22,-35,-31,-79c0,0,-10,-45,-9,-94V166c0,0,0,-33,10,-53c0,0,10,-22,27,-32c0,0,16,-10,40,-13c0,0,22,-4,48,-4h5V0Z" 
id="f1_7"
transform="scale(0.001,-0.001)" />

<path d="M41,0V64H61c0,0,26,0,49,4c0,0,23,3,40,16c0,0,16,11,27,32c0,0,9,21,9,58V747H47v72H186v76c0,0,0,68,19,121c0,0,19,52,54,88c0,0,34,35,85,55c0,0,50,17,113,17c0,0,58,0,100,-7c0,0,41,-8,67,-22c0,0,24,-15,35,-34c0,0,12,-20,12,-43c0,0,0,-22,-9,-37c0,0,-11,-17,-26,-27c0,0,-18,-11,-40,-16c0,0,-24,-6,-51,-6c0,0,0,23,-4,45c0,0,-6,21,-17,39c0,0,-12,17,-31,28c0,0,-19,10,-48,10c0,0,-34,0,-55,-12c0,0,-22,-13,-36,-38c0,0,-13,-26,-18,-62c0,0,-6,-37,-6,-85V819H545V747H330V174c0,0,0,-37,10,-58c0,0,10,-21,27,-32c0,0,16,-13,40,-16c0,0,22,-4,48,-4h58V0Z" 
id="f1_n"
transform="scale(0.001,-0.001)" />

<path d="M417,-14c0,0,-60,0,-107,16c0,0,-47,17,-79,54c0,0,-33,36,-49,93c0,0,-17,57,-17,135V650c0,0,0,33,-10,55c0,0,-11,20,-27,31c0,0,-18,11,-40,15c0,0,-24,3,-48,4H35v64H309V292c0,0,0,-51,8,-89c0,0,7,-40,26,-66c0,0,18,-27,49,-40c0,0,29,-14,74,-14c1,0,2,0,3,0c0,0,50,0,88,18c0,0,35,18,59,50c0,0,23,32,34,78c0,0,12,46,12,101V645c0,0,0,35,-10,58c0,0,-10,21,-27,33c0,0,-17,11,-39,15c0,0,-24,3,-50,4h-4v64H805V166c0,0,0,-33,10,-53c0,0,10,-22,27,-32c0,0,17,-10,41,-13c0,0,21,-4,47,-4h5V0H692L672,124h-7c0,0,-24,-44,-51,-70c0,0,-28,-28,-60,-42c0,0,-31,-15,-65,-20c0,0,-35,-6,-72,-6Z" 
id="f1_g"
transform="scale(0.001,-0.001)" />

<path d="M348,79c0,0,46,0,85,15c0,0,36,14,64,42c0,0,25,27,40,66c0,0,14,39,14,87V412H454c0,0,-65,0,-109,-14c0,0,-44,-13,-70,-36c0,0,-27,-25,-39,-59c0,0,-12,-35,-11,-80c0,0,0,-73,30,-108c0,0,29,-36,93,-36ZM313,-14c0,0,-50,0,-94,14c0,0,-44,14,-75,45c0,0,-33,30,-50,77c0,0,-18,47,-18,109c0,0,0,123,87,182c0,0,85,59,261,60H551v93c0,0,0,42,-4,78c0,0,-5,34,-20,60c0,0,-15,26,-42,40c0,0,-28,14,-75,14c0,0,-44,0,-71,-12c0,0,-29,-13,-43,-35c0,0,-16,-23,-21,-53c0,0,-6,-31,-5,-66c0,0,-64,0,-96,21c0,0,-34,21,-34,75c0,0,0,39,22,67c0,0,21,28,60,45c0,0,36,17,87,26c0,0,49,7,107,8c0,0,69,0,122,-13c0,0,52,-15,87,-46c0,0,34,-31,53,-81c0,0,17,-52,17,-124V174c0,0,0,-33,5,-53c0,0,6,-22,17,-34c0,0,10,-12,30,-18c0,0,15,-5,38,-5c2,0,3,0,5,0h4V0H588L564,131H551c0,0,-24,-33,-46,-59c0,0,-22,-27,-49,-46C456,26,429,6,395,-3c0,0,-35,-11,-82,-11Z" 
id="f1_3"
transform="scale(0.001,-0.001)" />

<path d="M20,0V64H40c0,0,25,0,49,4c0,0,22,3,39,16c0,0,17,11,27,32c0,0,10,21,10,58V993c0,0,0,33,-10,54c0,0,-11,21,-27,32c0,0,-18,11,-40,15c0,0,-24,3,-48,3H20v64H309V174c0,0,-1,-37,10,-58c0,0,9,-21,26,-32c0,0,17,-13,41,-16c0,0,22,-4,48,-4h20V0Z" 
id="f1_t"
transform="scale(0.001,-0.001)" />

<path d="M321,-14c0,0,-58,0,-104,11c0,0,-48,7,-80,29c0,0,-33,20,-50,51c0,0,-18,30,-18,70c0,0,0,30,10,51c0,0,10,20,25,33c0,0,14,11,31,17c0,0,16,4,30,4c0,0,0,-41,8,-75c0,0,8,-36,28,-61c0,0,18,-28,51,-42c0,0,31,-16,78,-16c0,0,41,0,72,11c0,0,31,9,53,28c0,0,21,18,32,44c0,0,11,25,11,56c0,0,0,28,-8,49c0,0,-9,20,-30,38c0,0,-21,17,-58,37c0,0,-37,18,-92,42c0,0,-59,26,-102,51c0,0,-45,23,-72,52c0,0,-29,28,-43,65c0,0,-15,35,-14,86c0,0,-1,52,21,92c0,0,20,40,58,68c0,0,38,26,91,41c0,0,52,15,118,15c0,0,54,0,96,-12c0,0,41,-11,70,-30c0,0,28,-19,43,-44c0,0,14,-27,14,-55c0,0,-1,-42,-28,-66c0,0,-29,-25,-80,-25c-1,0,-2,0,-2,0c0,0,0,76,-32,119c0,0,-32,42,-100,42c0,0,-39,0,-66,-9c0,0,-28,-9,-45,-25c0,0,-18,-17,-26,-39c0,0,-8,-22,-8,-49c0,0,0,-29,10,-50c0,0,10,-22,34,-39c0,0,22,-18,59,-35c0,0,36,-17,86,-38c0,0,60,-26,104,-50c0,0,43,-24,72,-54c0,0,27,-29,41,-65c0,0,13,-37,13,-84c0,0,-1,-60,-21,-105c0,0,-23,-45,-62,-74C539,46,499,14,445,0c0,0,-56,-14,-124,-14Z" 
id="f1_8"
transform="scale(0.001,-0.001)" />

<path d="M518,83c0,0,50,0,86,21c0,0,35,21,58,63c0,0,23,41,33,104c0,0,10,61,11,142c0,0,-1,80,-11,142c0,0,-10,60,-33,101c0,0,-23,40,-58,60c0,0,-38,20,-88,20c0,0,-60,0,-99,-19c0,0,-41,-20,-64,-61c0,0,-24,-40,-34,-101c0,0,-10,-62,-10,-144c0,0,0,-80,10,-141c0,0,10,-62,35,-103c0,0,23,-42,64,-63c0,0,39,-21,100,-21ZM28,-366v64H40c0,0,25,0,49,4c0,0,22,3,39,16c0,0,17,11,27,33c0,0,10,21,10,58V650c0,0,0,33,-10,55c0,0,-11,20,-27,31c0,0,-18,11,-40,15c0,0,-24,3,-48,4H20v64H287L303,681h6c0,0,16,34,39,63c0,0,21,28,50,49c0,0,27,19,64,31c0,0,36,9,80,10c0,0,75,0,134,-25c0,0,58,-26,98,-76c0,0,38,-53,60,-132c0,0,20,-80,20,-190c0,0,0,-111,-20,-191c0,0,-22,-80,-60,-133c0,0,-40,-53,-98,-77c0,0,-57,-24,-131,-24c-1,0,-2,0,-3,0h-2c-8,0,-46,1,-77,10c0,0,-37,8,-65,26c0,0,-29,18,-50,43c0,0,-23,24,-39,54h-3c0,0,0,-39,0,-73c0,0,0,-15,0,-30c0,0,0,-15,0,-28c0,0,0,-14,0,-24c0,0,0,-11,0,-17V-199c0,0,0,-33,10,-54c0,0,10,-21,28,-31c0,0,17,-11,41,-14c0,0,23,-4,49,-4h5v-64Z" 
id="f1_v"
transform="scale(0.001,-0.001)" />

<path d="M351,-291c2,0,3,0,5,0c0,0,1,0,2,0c12,0,84,1,134,15c0,0,52,13,84,38c0,0,31,23,44,58c0,0,12,34,13,74c0,0,0,35,-10,59c0,0,-11,22,-30,35c0,0,-20,12,-49,17c0,0,-29,5,-67,5H327c0,0,-33,0,-62,-5c0,0,-31,-5,-54,-20c0,0,-24,-17,-38,-44c0,0,-15,-29,-14,-74c0,0,0,-34,9,-63c0,0,9,-29,31,-50c0,0,23,-22,61,-33c0,0,35,-12,91,-12Zm34,658c0,0,1,0,1,0c0,0,37,0,64,11c0,0,24,11,42,35c0,0,15,22,23,59c0,0,7,35,7,86c0,0,0,103,-31,152c0,0,-31,49,-106,49c0,0,-74,0,-105,-50c0,0,-33,-50,-32,-153c0,0,0,-98,32,-143c0,0,32,-46,105,-46ZM353,-366c-8,0,-162,1,-239,59c0,0,-80,59,-79,164c0,0,0,45,16,78c0,0,15,34,42,58c0,0,26,22,61,38c0,0,34,14,72,21c0,0,-16,7,-31,18c0,0,-14,11,-26,27c0,0,-13,16,-20,36c0,0,-8,20,-7,45c0,0,0,45,24,79c0,0,23,32,76,64c0,0,-33,13,-58,37c0,0,-27,23,-44,54c0,0,-18,30,-27,65c0,0,-10,36,-9,74c0,0,0,66,18,119c0,0,18,51,53,89c0,0,36,36,90,56c0,0,53,18,126,19c0,0,28,-1,54,-4c0,0,26,-4,50,-11c0,0,22,-8,41,-16c0,0,18,-9,29,-19c0,0,12,12,27,27c0,0,14,14,33,27c0,0,19,12,41,20c0,0,21,7,47,8c0,0,23,-1,40,-6c0,0,17,-7,28,-17c0,0,11,-11,17,-25c0,0,5,-15,5,-31c0,0,0,-17,-4,-31c0,0,-6,-15,-15,-25c0,0,-10,-12,-25,-17c0,0,-15,-7,-36,-7c0,0,0,9,-2,18c0,0,-3,9,-8,17c0,0,-6,7,-16,13c0,0,-10,4,-25,4c0,0,-19,0,-35,-4c0,0,-16,-5,-31,-14c0,0,26,-33,44,-76c0,0,16,-44,16,-109c0,0,-1,-57,-17,-105c0,0,-17,-48,-51,-82c0,0,-35,-36,-86,-56c0,0,-52,-19,-121,-19H348c0,0,-11,0,-21,1c0,0,-10,1,-15,3c0,0,-15,-9,-29,-17c0,0,-13,-9,-23,-20c0,0,-11,-11,-16,-25c0,0,-6,-15,-6,-32c0,0,-1,-19,7,-29c0,0,7,-12,20,-18c0,0,12,-7,30,-8c0,0,17,-2,38,-2H506c0,0,68,-1,116,-17c0,0,48,-17,78,-47c0,0,30,-32,44,-73c0,0,14,-41,14,-90c0,0,-1,-67,-24,-119c0,0,-25,-53,-75,-89c0,0,-50,-38,-126,-58c0,0,-77,-20,-180,-20Z" 
id="f1_y"
transform="scale(0.001,-0.001)" />

<path d="M365,0L119,674c0,0,-9,23,-18,39c0,0,-11,15,-23,26c0,0,-12,8,-29,12c0,0,-17,3,-39,4H6v64H388V755H369c0,0,-47,0,-69,-18c0,0,-24,-18,-23,-56c0,0,-1,-13,3,-25c0,0,3,-14,9,-31L392,336c0,0,10,-26,21,-58c0,0,9,-33,20,-65c0,0,8,-31,16,-59c0,0,7,-29,11,-47h5c0,0,3,16,12,41c0,0,8,23,20,53c0,0,10,27,22,58c0,0,11,29,22,57L650,614c0,0,8,19,12,36c0,0,3,16,3,30c0,0,0,38,-25,57c0,0,-26,18,-76,18H553v64H880V755H862c0,0,-23,0,-38,-5c0,0,-17,-6,-29,-18c0,0,-12,-14,-24,-37c0,0,-12,-24,-26,-59L504,0Z" 
id="f1_m"
transform="scale(0.001,-0.001)" />

<path d="M518,83c0,0,50,0,86,21c0,0,35,21,58,63c0,0,23,41,33,104c0,0,10,61,11,142c0,0,-1,80,-11,142c0,0,-10,60,-33,101c0,0,-23,40,-58,60c0,0,-38,20,-88,20c0,0,-60,0,-99,-19c0,0,-41,-20,-64,-61c0,0,-24,-40,-34,-101c0,0,-10,-62,-10,-144c0,0,0,-80,10,-141c0,0,10,-62,35,-103c0,0,23,-42,64,-63c0,0,39,-21,100,-21Zm27,-97c-1,0,-2,0,-3,0h-2c-8,0,-46,1,-77,10c0,0,-37,8,-65,26c0,0,-29,18,-50,43c0,0,-23,24,-39,54H299L272,0H28V64H40c0,0,25,0,49,4c0,0,22,3,39,16c0,0,17,11,27,32c0,0,10,21,10,58V993c0,0,0,33,-10,54c0,0,-11,21,-27,32c0,0,-18,11,-40,15c0,0,-24,3,-48,3H28v64H306V880c0,0,0,-26,0,-59c0,0,0,-35,0,-66c0,0,0,-36,0,-74h3c0,0,16,34,39,63c0,0,21,28,50,49c0,0,27,19,64,31c0,0,36,9,80,10c0,0,75,0,134,-25c0,0,58,-26,98,-76c0,0,38,-53,60,-132c0,0,20,-80,20,-190c0,0,0,-111,-20,-191c0,0,-22,-80,-60,-133c0,0,-40,-53,-98,-77c0,0,-57,-24,-131,-24Z" 
id="f1_r"
transform="scale(0.001,-0.001)" />

<path d="M58,-366v72h1c8,0,79,1,133,23c0,0,55,24,97,64c0,0,39,40,68,95c0,0,26,55,45,118L119,674c0,0,-10,23,-20,39c0,0,-10,14,-21,25c0,0,-13,9,-29,13c0,0,-17,3,-39,4H6v64H373V755h-4c0,0,-47,0,-69,-18c0,0,-24,-18,-23,-56c0,0,-1,-13,3,-25c0,0,2,-14,9,-31L401,353c0,0,9,-27,22,-57c0,0,11,-31,22,-61c0,0,9,-31,18,-57c0,0,7,-28,11,-47h4c0,0,8,34,23,82c0,0,14,48,34,103L637,614c0,0,7,19,11,36c0,0,2,16,2,30c0,0,0,38,-24,57c0,0,-26,18,-76,18h-5v64H863V755h-4c0,0,-23,0,-38,-5c0,0,-18,-6,-30,-18c0,0,-13,-14,-24,-37c0,0,-11,-24,-25,-59L510,-5c0,0,-27,-74,-50,-130c0,0,-25,-56,-50,-95c0,0,-27,-41,-57,-67c0,0,-32,-26,-71,-41c0,0,-40,-17,-91,-22c0,0,-51,-6,-119,-6Z" 
id="f1_p"
transform="scale(0.001,-0.001)" />

<path d="M58,0V64H78c0,0,25,0,49,4c0,0,22,3,39,16c0,0,17,11,27,32c0,0,10,21,10,58V917c0,0,0,36,-10,57c0,0,-10,21,-27,34c0,0,-17,11,-39,15c0,0,-24,3,-49,3H58v65H503v-65H483c0,0,-26,0,-48,-3c0,0,-24,-3,-40,-14c0,0,-18,-12,-27,-32c0,0,-11,-21,-11,-54V76H659c0,0,34,0,59,13c0,0,23,12,39,32c0,0,16,19,25,44c0,0,7,24,11,49l15,114h75V0Z" 
id="f1_c"
transform="scale(0.001,-0.001)" />

<path d="M64,0V61L507,732H269c0,0,-31,0,-50,-8c0,0,-19,-8,-31,-24c0,0,-13,-15,-20,-38c0,0,-9,-24,-17,-54l-1,-6H93V819H686V756L242,87H519c0,0,27,0,45,11c0,0,16,9,29,27c0,0,11,17,19,41c0,0,6,22,12,47l7,35h61V0Z" 
id="f1_1l"
transform="scale(0.001,-0.001)" />

<path d="M133,732L87,1091H249L203,732Z" 
id="f1_1m"
transform="scale(0.001,-0.001)" />

<path d="M315,0L115,674c0,0,-9,23,-19,39c0,0,-10,15,-22,26c0,0,-13,8,-29,12c0,0,-17,3,-39,4H1v64H379V755H359c0,0,-46,0,-69,-13c0,0,-24,-15,-23,-51c0,0,0,-13,5,-31c0,0,3,-18,8,-35L351,369c0,0,8,-29,16,-61c0,0,7,-33,16,-65c0,0,6,-33,12,-61c0,0,6,-29,10,-48h5c0,0,3,19,10,46c0,0,5,24,15,55c0,0,7,29,18,60c0,0,9,30,19,58L631,815h96L880,362c0,0,9,-29,20,-59c0,0,9,-33,18,-63c0,0,9,-31,17,-59c0,0,7,-28,11,-47h4c0,0,7,38,22,94c0,0,14,55,38,129l76,247c0,0,5,18,11,41c0,0,3,21,3,35c0,0,0,38,-24,57c0,0,-26,18,-77,18H988v64h327V755h-19c0,0,-23,0,-39,-5c0,0,-17,-5,-29,-17c0,0,-14,-13,-25,-36c0,0,-11,-24,-22,-61L984,0H862L680,538L652,639L436,0Z" 
id="f1_j"
transform="scale(0.001,-0.001)" />

<path d="M222,-9c-1,0,-2,0,-3,0c0,0,-1,0,-3,0c-6,0,-22,0,-35,5c0,0,-18,4,-30,16c0,0,-14,12,-21,32c0,0,-8,20,-8,49c0,0,0,30,8,50c0,0,7,19,21,32c0,0,12,11,30,17c0,0,17,5,38,5c0,0,18,0,37,-5c0,0,16,-6,30,-17c0,0,12,-13,21,-32c0,0,8,-20,8,-50c0,0,0,-29,-8,-49c0,0,-9,-20,-21,-32C286,12,272,0,256,-4c0,0,-17,-5,-34,-5Z" 
id="f1_q"
transform="scale(0.001,-0.001)" />

<path d="M58,0V64H78c0,0,25,0,49,4c0,0,22,3,39,16c0,0,17,11,27,32c0,0,10,21,10,58V923c0,0,0,33,-10,54c0,0,-11,20,-27,32c0,0,-18,11,-40,14c0,0,-24,3,-48,3H58v65H338L885,246V923c0,0,0,33,-10,54c0,0,-11,20,-28,32c0,0,-17,11,-39,14c0,0,-24,3,-49,3H739v65h384v-65h-20c0,0,-26,0,-48,-3c0,0,-24,-4,-40,-15c0,0,-18,-13,-27,-34c0,0,-11,-21,-10,-57V0H869L296,880V174c0,0,0,-37,11,-58c0,0,9,-21,26,-32c0,0,16,-13,40,-16c0,0,22,-4,48,-4h21V0Z" 
id="f1_19"
transform="scale(0.001,-0.001)" />

<path d="M43,0V64H63c0,0,25,0,47,4c0,0,21,3,38,16c0,0,15,11,24,32c0,0,8,21,9,58V650c0,0,0,33,-9,55c0,0,-9,20,-25,31c0,0,-16,11,-37,15c0,0,-22,3,-47,4H58v64H298L318,695h7c0,0,23,42,49,70c0,0,25,27,54,43c0,0,28,14,61,21c0,0,31,5,67,5c0,0,36,0,71,-7c0,0,33,-9,62,-24c0,0,28,-17,52,-43c0,0,21,-27,36,-65h13c0,0,23,42,50,70c0,0,27,27,57,43c0,0,30,14,64,21c0,0,32,5,68,5c0,0,59,-1,105,-17c0,0,45,-18,78,-54c0,0,32,-37,49,-93c0,0,17,-58,18,-135V174c0,0,0,-37,9,-58c0,0,9,-21,24,-32c0,0,16,-13,37,-16c0,0,21,-4,47,-4h5V0H1135V527c0,0,0,50,-8,89c0,0,-9,39,-27,66c0,0,-21,26,-50,41c0,0,-32,13,-75,13c0,0,-48,0,-80,-18c0,0,-33,-19,-53,-50c0,0,-21,-31,-28,-72c0,0,-9,-42,-9,-87V174c0,0,0,-37,9,-58c0,0,9,-21,24,-32c0,0,16,-13,38,-16c0,0,21,-4,47,-4h4V0H662V527c0,0,-1,50,-9,89c0,0,-8,39,-27,66c0,0,-20,26,-50,41c0,0,-31,13,-75,13c0,0,-50,0,-83,-20c0,0,-35,-20,-55,-54c0,0,-22,-35,-30,-79c0,0,-9,-45,-9,-94V166c0,0,0,-33,10,-53c0,0,10,-22,27,-32c0,0,16,-10,40,-13c0,0,22,-4,48,-4h5V0Z" 
id="f1_w"
transform="scale(0.001,-0.001)" />

<path d="M553,-14c0,0,-91,0,-162,18c0,0,-72,19,-121,61c0,0,-51,40,-76,107c0,0,-26,64,-26,158V923c0,0,0,33,-10,54c0,0,-11,20,-27,32c0,0,-18,11,-40,14c0,0,-24,3,-48,3H23v65H468v-65H448c0,0,-27,0,-49,-3c0,0,-24,-4,-39,-15c0,0,-18,-13,-27,-34c0,0,-11,-21,-11,-57V321c0,0,0,-67,20,-113c0,0,18,-47,53,-76c0,0,33,-29,80,-42c0,0,46,-14,102,-14c0,0,66,0,115,18c0,0,47,17,80,50c0,0,31,31,47,75c0,0,14,43,15,96V923c0,0,0,33,-10,54c0,0,-11,20,-27,32c0,0,-17,11,-40,14c0,0,-24,3,-48,3H689v65h384v-65h-20c0,0,-27,0,-49,-3c0,0,-24,-4,-39,-15c0,0,-18,-13,-27,-34c0,0,-11,-21,-11,-57V312c0,0,0,-76,-24,-137c0,0,-24,-62,-71,-103C832,72,783,30,714,7c0,0,-71,-21,-161,-21Z" 
id="f1_1n"
transform="scale(0.001,-0.001)" />

<path d="M46,-234v64c0,0,74,23,110,58c0,0,34,35,35,79c0,0,-1,15,-8,26c0,0,-9,8,-21,17c0,0,-13,6,-27,15c0,0,-15,7,-27,18c0,0,-13,9,-21,26c0,0,-8,14,-8,38c0,0,0,43,29,67c0,0,28,23,71,23c0,0,23,-1,45,-8c0,0,20,-9,37,-26c0,0,16,-17,26,-41c0,0,9,-27,9,-58c0,0,0,-48,-13,-93c0,0,-14,-46,-44,-84c0,0,-30,-40,-77,-70c0,0,-49,-31,-116,-51Z" 
id="f1_16"
transform="scale(0.001,-0.001)" />

<path d="M223,-9c-1,0,-2,0,-3,0c0,0,-1,0,-2,0c-6,0,-22,0,-35,5c0,0,-19,4,-31,16c0,0,-13,12,-21,32c0,0,-8,20,-7,49c0,0,-1,30,7,50c0,0,8,19,21,32c0,0,12,11,31,17c0,0,16,5,37,5c0,0,19,0,37,-5c0,0,17,-6,31,-17c0,0,12,-13,21,-32c0,0,7,-20,7,-50c0,0,0,-29,-7,-49c0,0,-9,-20,-21,-32C288,12,274,0,257,-4c0,0,-16,-5,-34,-5Zm0,627c-1,0,-2,0,-3,0c0,0,-1,0,-2,0c-6,0,-22,1,-35,6c0,0,-19,5,-31,18c0,0,-13,11,-21,32c0,0,-8,20,-7,49c0,0,-1,30,7,50c0,0,8,18,21,31c0,0,12,11,31,17c0,0,16,6,37,6c0,0,19,0,37,-6c0,0,17,-6,31,-17c0,0,12,-13,21,-31c0,0,7,-20,7,-50c0,0,0,-29,-7,-49c0,0,-9,-21,-21,-32c0,0,-14,-13,-31,-18c0,0,-16,-6,-34,-6Z" 
id="f1_1o"
transform="scale(0.001,-0.001)" />

<path d="M392,96c0,0,32,0,60,14c0,0,25,13,46,38c0,0,18,26,29,62c0,0,9,35,9,79V403H468c0,0,-47,-1,-77,-13c0,0,-31,-13,-50,-34c0,0,-19,-22,-27,-53c0,0,-8,-33,-8,-74c0,0,-1,-67,21,-100c0,0,21,-33,65,-33ZM314,-14c-2,0,-3,0,-5,0c0,0,-51,0,-94,14c0,0,-44,15,-76,46c0,0,-33,32,-52,79c0,0,-19,47,-18,111c0,0,-1,125,85,185c0,0,85,61,257,61H536v86c0,0,0,38,-3,71c0,0,-3,32,-12,57c0,0,-11,23,-29,37c0,0,-19,11,-50,12c0,0,-30,0,-49,-12c0,0,-20,-13,-32,-34c0,0,-13,-22,-16,-52c0,0,-6,-31,-6,-67h-1c-11,0,-105,1,-153,24c0,0,-53,23,-52,79c0,0,-1,41,25,71c0,0,24,29,68,49c0,0,43,18,100,27c0,0,57,8,122,8c0,0,80,0,141,-13c0,0,59,-15,100,-45c0,0,38,-30,59,-80c0,0,20,-50,20,-121V189c0,0,0,-31,6,-52c0,0,4,-21,15,-33c0,0,9,-12,28,-17c0,0,15,-6,39,-6c1,0,3,0,4,0h6V0H582L550,105H536c0,0,-26,-30,-47,-53c0,0,-23,-24,-48,-38C441,14,415,0,384,-6c0,0,-30,-8,-70,-8Z" 
id="f0_3"
transform="scale(0.001,-0.001)" />

<path d="M448,98c0,0,45,0,76,20c0,0,29,20,48,60c0,0,17,38,26,97c0,0,7,56,7,133c0,0,0,78,-7,138c0,0,-9,58,-26,97c0,0,-19,39,-48,58c0,0,-31,19,-76,19c0,0,-78,0,-109,-77c0,0,-33,-78,-33,-233c0,0,0,-154,33,-232c0,0,31,-80,109,-80Zm6,-464v81h27c0,0,2,0,6,0c8,0,26,1,42,3c0,0,22,3,39,13c0,0,17,10,27,29c0,0,10,19,10,50V-78c0,0,0,7,0,18c0,0,0,11,2,26c0,0,2,13,2,31c0,0,0,14,0,30c0,0,6,36,6,80h-9c0,0,-16,-26,-37,-49c0,0,-21,-22,-49,-38C520,20,492,3,457,-4c0,0,-32,-10,-74,-10c-1,0,-3,0,-4,0h-1c-7,0,-77,1,-130,24c0,0,-59,24,-97,77c0,0,-40,53,-60,133c0,0,-22,80,-21,191c0,0,-1,110,21,190c0,0,20,79,60,132c0,0,39,50,98,76c0,0,58,25,133,25c0,0,45,0,81,-9c0,0,35,-10,64,-27c0,0,28,-18,51,-42c0,0,21,-25,39,-56h14l31,119H970V738h-6c0,0,-26,-1,-48,-4c0,0,-24,-4,-40,-15c0,0,-19,-11,-29,-32c0,0,-10,-22,-10,-56V-190c0,0,0,-31,10,-50c0,0,10,-19,27,-29c0,0,17,-10,39,-13c0,0,18,-3,41,-3c2,0,4,0,7,0h27v-81Z" 
id="f0_17"
transform="scale(0.001,-0.001)" />

<path d="M31,0V81h4c0,0,25,0,48,4c0,0,21,3,37,16c0,0,16,11,25,33c0,0,7,20,8,57V634c0,0,0,33,-8,55c0,0,-8,20,-22,31c0,0,-15,11,-35,15c0,0,-20,3,-45,3H38v81H347L377,700h8c0,0,14,34,33,60c0,0,17,26,43,43c0,0,24,16,59,26c0,0,34,7,81,8c0,0,90,0,132,-31c0,0,43,-33,43,-93c0,0,-1,-71,-51,-109c0,0,-50,-39,-141,-39c0,0,-1,0,-2,0c0,0,-1,32,-4,56c0,0,-4,23,-12,39c0,0,-9,16,-23,24c0,0,-15,8,-36,8c0,0,-28,0,-47,-13c0,0,-20,-14,-33,-34c0,0,-14,-22,-22,-49c0,0,-9,-27,-13,-54c0,0,-6,-28,-6,-52c0,0,0,-25,0,-42V184c0,0,0,-34,9,-54c0,0,7,-22,22,-32c0,0,13,-10,34,-13c0,0,18,-4,41,-4h49V0Z" 
id="f0_6"
transform="scale(0.001,-0.001)" />

<path d="M535,95c0,0,77,0,110,77c0,0,32,77,33,233c0,0,-1,152,-33,234c0,0,-34,81,-109,81c0,0,-46,0,-76,-20c0,0,-30,-22,-48,-61c0,0,-18,-40,-26,-98c0,0,-8,-60,-7,-134c0,0,-1,-80,7,-138c0,0,8,-59,26,-97c0,0,17,-40,48,-58c0,0,29,-19,75,-19ZM20,-366v81H38c0,0,16,0,37,4c0,0,18,3,35,13c0,0,15,10,27,30c0,0,9,19,10,53V631c0,0,0,34,-7,56c0,0,-9,21,-22,32c0,0,-15,11,-33,15c0,0,-20,3,-41,4H34v81H333L360,700h7c0,0,16,30,39,54c0,0,21,25,51,43c0,0,27,17,64,27c0,0,36,10,80,10c0,0,75,0,135,-25c0,0,58,-26,97,-77c0,0,39,-53,61,-134c0,0,20,-81,20,-191c0,0,0,-112,-20,-191c0,0,-20,-80,-59,-132C835,84,795,31,739,7c0,0,-56,-25,-129,-25c-1,0,-2,0,-4,0c0,0,-87,0,-141,33c0,0,-55,32,-88,89H367c0,0,3,-35,7,-69c0,0,3,-28,3,-59c0,0,0,-33,0,-56V-185c0,0,0,-34,11,-53c0,0,11,-20,27,-30c0,0,16,-10,36,-13c0,0,18,-4,35,-4h35v-81Z" 
id="f0_u"
transform="scale(0.001,-0.001)" />

<path d="M163,-11c0,0,-1,0,-1,0c0,0,-96,0,-95,92c0,0,-1,53,28,85c0,0,27,32,73,32c0,0,95,0,95,-93c0,0,0,-54,-27,-85c0,0,-28,-31,-73,-31Z" 
id="f2_2"
transform="scale(0.001,-0.001)" />

<path d="M540,99c1,0,2,0,2,0c3,0,76,1,109,82c0,0,34,81,34,233c0,0,0,155,-34,234c0,0,-33,76,-110,76c0,0,-46,0,-76,-18c0,0,-30,-20,-47,-58c0,0,-18,-40,-26,-97c0,0,-8,-60,-7,-138c0,0,-1,-76,7,-134c0,0,8,-60,26,-98c0,0,18,-41,48,-61c0,0,29,-21,74,-21ZM610,-14c-1,0,-2,0,-4,0h-1c-9,0,-47,1,-78,10c0,0,-37,8,-64,26c0,0,-30,18,-51,43c0,0,-23,24,-39,54H359L316,0H26V81H37c0,0,20,0,42,4c0,0,20,3,37,15c0,0,17,10,27,32c0,0,10,21,10,56V978c0,0,0,32,-10,53c0,0,-10,19,-26,31c0,0,-17,11,-38,14c0,0,-22,3,-47,4H26v81H383V900c0,0,0,-24,0,-56c0,0,0,-33,-3,-61c0,0,-4,-34,-7,-68h10c0,0,33,56,88,89c0,0,55,32,141,33c0,0,75,0,132,-25c0,0,57,-26,97,-76c0,0,39,-53,59,-132c0,0,20,-81,20,-191c0,0,0,-112,-20,-192c0,0,-22,-81,-61,-133c0,0,-39,-53,-97,-78c0,0,-59,-24,-132,-24Z" 
id="f0_18"
transform="scale(0.001,-0.001)" />

<path d="M451,-14c0,0,-85,0,-154,21c0,0,-71,21,-120,71c0,0,-51,50,-78,131c0,0,-28,80,-27,198c0,0,0,123,29,206c0,0,27,82,79,133c0,0,50,50,118,72c0,0,68,20,148,20c0,0,73,0,131,-11c0,0,56,-14,94,-35c0,0,38,-21,59,-50c0,0,18,-31,19,-64c0,0,-1,-25,-8,-48c0,0,-10,-24,-31,-41c0,0,-22,-18,-60,-30c0,0,-40,-11,-99,-11c0,0,0,39,-4,76c0,0,-6,35,-17,62c0,0,-11,26,-29,44c0,0,-20,15,-49,15c0,0,-34,0,-60,-15c0,0,-26,-18,-45,-56c0,0,-20,-39,-29,-103c0,0,-11,-66,-11,-163c0,0,0,-156,43,-232c0,0,42,-77,137,-77q1,0,2,0h1c8,0,42,1,73,10c0,0,35,9,63,26c0,0,27,16,50,40c0,0,21,22,34,48c0,0,19,-11,28,-30c0,0,9,-19,9,-40c0,0,-1,-29,-17,-59c0,0,-18,-31,-53,-54C677,40,639,15,584,1c0,0,-57,-15,-133,-15Z" 
id="f0_o"
transform="scale(0.001,-0.001)" />

<path d="M-100,-366c-10,0,-47,1,-82,7c0,0,-42,8,-74,21l24,85c0,0,17,-6,50,-12c0,0,30,-8,73,-8c2,0,4,0,6,0c0,0,1,0,1,0c9,0,74,1,127,19c0,0,57,18,108,51c0,0,49,31,93,73c0,0,43,43,84,91L119,657c0,0,-13,46,-36,64c0,0,-25,16,-70,17H0l17,81H316L417,423c0,0,7,-31,16,-69c0,0,7,-41,15,-80c0,0,7,-41,13,-75c0,0,5,-35,7,-54h4c0,0,46,62,86,124c0,0,40,61,71,120c0,0,30,59,48,112c0,0,16,52,17,97c0,0,0,51,-25,78c0,0,-26,27,-70,27c0,0,-1,30,10,54c0,0,8,23,25,41c0,0,16,17,39,27c0,0,22,9,48,9c0,0,62,0,94,-34c0,0,32,-35,32,-96c0,0,0,-60,-20,-126c0,0,-21,-66,-58,-141c0,0,-38,-75,-90,-158c0,0,-54,-84,-121,-177c0,0,-56,-77,-104,-141c0,0,-49,-65,-94,-117c0,0,-47,-53,-95,-91c0,0,-49,-41,-102,-66c0,0,-56,-28,-118,-40c0,0,-63,-13,-142,-13c0,0,-1,0,-3,0Z" 
id="f3_2"
transform="scale(0.001,-0.001)" />

<path d="M0,0L17,78L527,715H333c0,0,-31,0,-52,-10c0,0,-21,-10,-36,-28c0,0,-17,-18,-29,-44c0,0,-14,-26,-28,-56l-3,-6H92l67,248H815L797,739L286,104H533c0,0,26,0,47,12c0,0,20,12,35,32c0,0,15,19,27,44c0,0,12,25,23,50l15,35h88L703,0Z" 
id="f3_3"
transform="scale(0.001,-0.001)" />

<path d="M-30,0l16,81H4c0,0,21,0,40,4c0,0,16,3,35,13c0,0,16,10,38,30c0,0,21,19,49,51L359,391L254,645c0,0,-13,29,-23,47c0,0,-13,17,-26,28c0,0,-13,10,-30,14c0,0,-17,3,-38,4H119l15,81H421L529,529L741,819H927L912,738H885c0,0,-23,0,-40,-5c0,0,-18,-4,-35,-16c0,0,-19,-13,-37,-34c0,0,-20,-21,-47,-55L568,446L680,189c0,0,14,-32,26,-52c0,0,12,-22,26,-33c0,0,12,-13,30,-17c0,0,14,-6,35,-6c1,0,2,0,3,0h21L805,0H509L394,309L156,0Z" 
id="f3_4"
transform="scale(0.001,-0.001)" />

<path d="M448,99c0,0,45,0,76,20c0,0,29,18,48,57c0,0,17,38,26,98c0,0,7,57,7,137c0,0,0,75,-7,134c0,0,-9,59,-26,99c0,0,-19,39,-48,60c0,0,-31,20,-76,20c0,0,-38,0,-65,-20c0,0,-29,-21,-44,-61c0,0,-17,-40,-25,-98c0,0,-8,-60,-8,-135c0,0,0,-156,33,-233c0,0,31,-78,109,-78ZM386,-14c-1,0,-3,0,-4,0h-1c-7,0,-77,1,-132,24c0,0,-59,24,-98,77c0,0,-40,52,-60,132c0,0,-22,79,-21,189c0,0,-1,110,21,192c0,0,20,80,60,133c0,0,38,53,97,79c0,0,56,25,131,25c0,0,43,0,78,-9c0,0,35,-10,63,-25c0,0,28,-17,49,-39c0,0,21,-22,37,-49h9c0,0,0,42,-6,79c0,0,0,15,0,33c0,0,0,16,-2,31c0,0,-2,14,-2,25c0,0,0,11,0,18v84c0,0,0,32,-10,51c0,0,-10,18,-27,29c0,0,-17,8,-39,12c0,0,-22,3,-48,3H469v81H837V188c0,0,0,-35,10,-56c0,0,10,-22,29,-32c0,0,16,-12,40,-15c0,0,22,-4,48,-4h6V0H674L631,119H617c0,0,-18,-31,-39,-56c0,0,-23,-25,-51,-41C527,22,498,4,463,-4c0,0,-34,-10,-77,-10Z" 
id="f0_a"
transform="scale(0.001,-0.001)" />

<path d="M574,490c0,0,0,58,-6,105c0,0,-8,45,-22,78c0,0,-15,32,-37,49c0,0,-24,17,-56,17c0,0,-65,0,-103,-63c0,0,-38,-64,-38,-186ZM468,-14c0,0,-98,0,-171,27c0,0,-75,28,-125,82c0,0,-50,54,-75,133c0,0,-26,76,-25,177c0,0,-1,107,25,189c0,0,25,80,74,136c0,0,48,53,119,82c0,0,70,26,161,26c0,0,82,0,149,-23c0,0,65,-24,112,-70c0,0,46,-47,71,-115c0,0,25,-69,25,-159V392H308c0,0,0,-77,15,-132c0,0,14,-55,40,-91c0,0,26,-36,63,-53c0,0,37,-17,85,-17c0,0,1,0,2,0c8,0,41,1,71,10c0,0,34,9,61,26c0,0,28,16,48,40c0,0,21,22,34,48c0,0,41,-22,41,-75c0,0,0,-32,-18,-61c0,0,-18,-31,-55,-53C695,34,658,12,602,0c0,0,-57,-14,-134,-14Z" 
id="f0_5"
transform="scale(0.001,-0.001)" />

<path d="M57,0L186,614c0,0,3,12,6,34c0,0,3,20,3,37c0,0,0,27,-18,41c0,0,-20,12,-62,12H87l14,81H439L407,609h7c0,0,25,55,53,97c0,0,25,41,58,71c0,0,32,27,72,43c0,0,40,14,94,14c0,0,81,-1,121,-31c0,0,38,-30,39,-88c0,0,-1,-80,-46,-118c0,0,-45,-39,-132,-39c-1,0,-2,0,-2,0c0,0,0,34,-3,63c0,0,-5,27,-12,47c0,0,-9,19,-23,30c0,0,-16,10,-37,11c0,0,-22,-1,-45,-17c0,0,-25,-19,-48,-49c0,0,-24,-31,-46,-72c0,0,-24,-43,-44,-92c0,0,-22,-51,-39,-105c0,0,-17,-55,-29,-110L287,0Z" 
id="f3_5"
transform="scale(0.001,-0.001)" />

<path d="M46,0c0,0,-2,48,16,93c0,0,27,74,88,146c0,0,61,71,176,165c0,0,178,146,241,232c0,0,63,85,63,161c0,0,0,80,-57,135c0,0,-58,55,-149,55c0,0,-98,0,-156,-59c0,0,-58,-58,-59,-160L71,782c0,0,15,154,107,235c0,0,93,81,249,81c0,0,157,0,249,-87c0,0,92,-88,92,-217c0,0,0,-65,-27,-129c0,0,-27,-63,-89,-133c0,0,-62,-70,-207,-193C445,339,324,238,290,202c0,0,-35,-36,-57,-73H770V0Z" 
id="f4_m"
transform="scale(0.001,-0.001)" />

<path d="M423,92c0,0,97,0,159,62c0,0,62,62,62,157c0,0,0,97,-64,160c0,0,-64,64,-161,64c0,0,-96,0,-158,-63c0,0,-62,-62,-62,-156c0,0,0,-58,27,-111c0,0,27,-54,81,-84c0,0,54,-29,116,-29Zm0,552c0,0,78,0,127,49c0,0,49,49,49,120c0,0,0,74,-50,124c0,0,-51,51,-128,51c0,0,-77,0,-127,-50c0,0,-51,-49,-51,-118c0,0,0,-77,50,-126c0,0,50,-50,130,-50ZM422,-18c0,0,-162,0,-261,95c0,0,-99,96,-99,239c0,0,0,107,54,179c0,0,54,72,154,98c0,0,-84,31,-124,87c0,0,-40,57,-40,136c0,0,0,119,85,201c0,0,86,81,229,81c0,0,143,0,230,-83c0,0,87,-83,87,-203c0,0,0,-76,-40,-132c0,0,-39,-56,-121,-87c0,0,101,-33,154,-106c0,0,52,-73,52,-174c0,0,0,-141,-99,-236c0,0,-99,-95,-261,-95Z" 
id="f4_s"
transform="scale(0.001,-0.001)" />


</defs>
</svg>