<?xml version="1.0" encoding="UTF-8" standalone="no"?>
<!DOCTYPE svg PUBLIC "-//W3C//DTD SVG 1.1//EN"
"http://www.w3.org/Graphics/SVG/1.1/DTD/svg11.dtd">
<svg viewBox="0 0 909 1286" version="1.1" xmlns="http://www.w3.org/2000/svg" xmlns:xlink="http://www.w3.org/1999/xlink">
<defs>
<clipPath id="c0_31"><path d="M55.2,444.6V392.5h62.4v52.1Z" /></clipPath>
<clipPath id="c1_31"><path d="M55.2,495.6V443.5H222v52.1Z" /></clipPath>
<clipPath id="c2_31"><path d="M55.2,595.3V539.2h93.2v56.1Z" /></clipPath>
<clipPath id="c3_31"><path d="M55.2,626.4V594H160.7v32.4Z" /></clipPath>
<clipPath id="c4_31"><path d="M147.9,989.8V941H367.1v48.8Z" /></clipPath>
<clipPath id="c5_31"><path d="M135.1,1036v-26.1H247.8V1036Z" /></clipPath>
<clipPath id="c6_31"><path d="M55.2,1056.9v-22.1H178.9v22.1Z" /></clipPath>
<clipPath id="c7_31"><path d="M55.2,1081.8v-26.1H199.4v26.1Z" /></clipPath>
<style type="text/css"><![CDATA[
.g0_31{
fill: #D9D9D9;
}
.g1_31{
fill: none;
stroke: #000000;
stroke-width: 0.7638889;
stroke-linecap: butt;
stroke-linejoin: miter;
}
.g2_31{
fill: none;
stroke: #000000;
stroke-width: 0.88996106;
stroke-linecap: butt;
stroke-linejoin: round;
}
.g3_31{
fill: none;
stroke: #000000;
stroke-width: 0.90850097;
stroke-linecap: butt;
stroke-linejoin: round;
}
.g4_31{
fill: none;
stroke: #000000;
stroke-width: 0.92394716;
stroke-linecap: butt;
stroke-linejoin: round;
}
.g5_31{
fill: none;
stroke: #000000;
stroke-width: 0.90569746;
stroke-linecap: butt;
stroke-linejoin: round;
}
.g6_31{
}
]]></style>
</defs>
<image preserveAspectRatio="none" x="747" y="1196" width="96" height="59" xlink:href="img/1.png" />
<image preserveAspectRatio="none" x="336" y="41" width="259" height="51" xlink:href="img/2.png" />
<image preserveAspectRatio="none" x="342" y="50" width="247" height="27" xlink:href="img/3.png" />
<image preserveAspectRatio="none" x="341" y="45" width="239" height="42" xlink:href="img/4.png" />
<g fill="#FFFFFF" >
<use xlink:href="#f0_j" transform="matrix(11.5,0,0,11.5,355.1,70.1)" />
<use xlink:href="#f0_i" transform="matrix(11.5,0,0,11.5,364.3,70.1)" />
<use xlink:href="#f0_2n" transform="matrix(11.5,0,0,11.5,374.1,70.1)" />
<use xlink:href="#f0_t" transform="matrix(11.5,0,0,11.5,382.6,70.1)" />
<use xlink:href="#f0_oj" transform="matrix(11.5,0,0,11.5,391,70.1)" />
<use xlink:href="#f0_3e" transform="matrix(11.5,0,0,11.5,396.5,70.1)" />
<use xlink:href="#f0_1c" transform="matrix(11.5,0,0,11.5,406.1,70.1)" />
<use xlink:href="#f0_1c" transform="matrix(11.5,0,0,11.5,410.8,70.1)" />
<use xlink:href="#f0_oj" transform="matrix(11.5,0,0,11.5,415.6,70.1)" />
<use xlink:href="#f0_rz" transform="matrix(11.5,0,0,11.5,421.1,70.1)" />
<use xlink:href="#f0_rx" transform="matrix(11.5,0,0,11.5,429.9,70.1)" />
<use xlink:href="#f0_ry" transform="matrix(11.5,0,0,11.5,438.7,70.1)" />
<use xlink:href="#f0_s4" transform="matrix(11.5,0,0,11.5,447.5,70.1)" />
<use xlink:href="#f0_t" transform="matrix(11.5,0,0,11.5,460.4,70.1)" />
<use xlink:href="#f0_3e" transform="matrix(11.5,0,0,11.5,468.8,70.1)" />
<use xlink:href="#f0_5" transform="matrix(11.5,0,0,11.5,478.3,70.1)" />
<use xlink:href="#f0_1x" transform="matrix(11.5,0,0,11.5,489,70.1)" />
<use xlink:href="#f0_1c" transform="matrix(11.5,0,0,11.5,504.4,70.1)" />
<use xlink:href="#f0_1y" transform="matrix(11.5,0,0,11.5,509.1,70.1)" />
<use xlink:href="#f0_5" transform="matrix(11.5,0,0,11.5,520.8,70.1)" />
<use xlink:href="#f0_2t" transform="matrix(11.5,0,0,11.5,531.5,70.1)" />
<use xlink:href="#f0_1c" transform="matrix(11.5,0,0,11.5,540.2,70.1)" />
<use xlink:href="#f0_24" transform="matrix(11.5,0,0,11.5,545,70.1)" />
<use xlink:href="#f0_1y" transform="matrix(11.5,0,0,11.5,556.7,70.1)" />
</g>
<image preserveAspectRatio="none" x="554" y="45" width="36" height="42" xlink:href="img/5.png" />
<g fill="#FFFFFF" >
<use xlink:href="#f1_q" transform="matrix(11,0,0,11,770.3,1227.6)" />
<use xlink:href="#f1_j" transform="matrix(11,0,0,11,783.5,1227.6)" />
<use xlink:href="#f1_m" transform="matrix(11,0,0,11,794.1,1227.6)" />
<use xlink:href="#f1_s" transform="matrix(11,0,0,11,802.9,1227.6)" />
</g>
<path fill-rule="evenodd" d="M52.8,1193.5H856.9v-.8H52.8v.8Z" class="g0_31" />
<path d="M37.9,99.4L873,98.5" class="g1_31" />
<g fill="#000000" >
<use xlink:href="#f2_1j" transform="matrix(12,0,0,12,55,368.2)" />
<use xlink:href="#f2_2b" transform="matrix(12,0,0,12,65.3,368.2)" />
<use xlink:href="#f2_28" transform="matrix(12,0,0,12,74.5,368.2)" />
<use xlink:href="#f2_2h" transform="matrix(12,0,0,12,79.2,368.2)" />
<use xlink:href="#f2_2g" transform="matrix(12,0,0,12,89.5,368.2)" />
<use xlink:href="#f2_25" transform="matrix(12,0,0,12,95.7,368.2)" />
<use xlink:href="#f2_2b" transform="matrix(12,0,0,12,100.8,368.2)" />
<use xlink:href="#f2_2a" transform="matrix(12,0,0,12,109.9,368.2)" />
<use xlink:href="#f2_u" transform="matrix(12,0,0,12,120.2,368.2)" />
<use xlink:href="#f3_c" transform="matrix(12,0,0,12,55,389.5)" />
<use xlink:href="#f3_1x" transform="matrix(12,0,0,12,61.3,389.5)" />
<use xlink:href="#f3_d" transform="matrix(12,0,0,12,69.3,389.5)" />
<use xlink:href="#f3_1c" transform="matrix(12,0,0,12,80.3,389.5)" />
<use xlink:href="#f3_21" transform="matrix(12,0,0,12,91.3,389.5)" />
<use xlink:href="#f3_2g" transform="matrix(12,0,0,12,99.4,389.5)" />
<use xlink:href="#f3_2g" transform="matrix(12,0,0,12,108.9,389.5)" />
<use xlink:href="#f3_24" transform="matrix(12,0,0,12,114.4,389.5)" />
<use xlink:href="#f3_21" transform="matrix(12,0,0,12,123.2,389.5)" />
<use xlink:href="#f3_24" transform="matrix(12,0,0,12,136,389.5)" />
<use xlink:href="#f3_21" transform="matrix(12,0,0,12,144.8,389.5)" />
<use xlink:href="#f3_1x" transform="matrix(12,0,0,12,152.9,389.5)" />
<use xlink:href="#f3_2g" transform="matrix(12,0,0,12,161,389.5)" />
<use xlink:href="#f3_20" transform="matrix(12,0,0,12,171.2,389.5)" />
<use xlink:href="#f3_25" transform="matrix(12,0,0,12,180.4,389.5)" />
<use xlink:href="#f3_2f" transform="matrix(12,0,0,12,185.1,389.5)" />
<use xlink:href="#f3_2f" transform="matrix(12,0,0,12,192.1,389.5)" />
<use xlink:href="#f3_25" transform="matrix(12,0,0,12,199.4,389.5)" />
<use xlink:href="#f3_2c" transform="matrix(12,0,0,12,204.2,389.5)" />
<use xlink:href="#f3_1x" transform="matrix(12,0,0,12,213.3,389.5)" />
<use xlink:href="#f3_2g" transform="matrix(12,0,0,12,221.4,389.5)" />
<use xlink:href="#f3_21" transform="matrix(12,0,0,12,226.9,389.5)" />
<use xlink:href="#f3_20" transform="matrix(12,0,0,12,235,389.5)" />
<use xlink:href="#f3_2c" transform="matrix(12,0,0,12,248.9,389.5)" />
<use xlink:href="#f3_21" transform="matrix(12,0,0,12,258,389.5)" />
<use xlink:href="#f3_2e" transform="matrix(12,0,0,12,266.1,389.5)" />
<use xlink:href="#f3_2h" transform="matrix(12,0,0,12,277.1,389.5)" />
<use xlink:href="#f3_2a" transform="matrix(12,0,0,12,286.2,389.5)" />
<use xlink:href="#f3_25" transform="matrix(12,0,0,12,295.4,389.5)" />
<use xlink:href="#f3_2g" transform="matrix(12,0,0,12,299.8,389.5)" />
<use xlink:href="#f3_2g" transform="matrix(12,0,0,12,309.7,389.5)" />
<use xlink:href="#f3_25" transform="matrix(12,0,0,12,315.2,389.5)" />
<use xlink:href="#f3_29" transform="matrix(12,0,0,12,319.9,389.5)" />
<use xlink:href="#f3_21" transform="matrix(12,0,0,12,333.9,389.5)" />
</g>
<path d="M92.7,421.6h21.7" class="g2_31" />
<g clip-path="url(#c0_31)">
<g fill="#000000" >
<use xlink:href="#f3_m" transform="matrix(7.2,0,0,7.2,106.5,406.1)" />
<use xlink:href="#f4_1m" transform="matrix(12.4,0,0,12.4,92.1,414.5)" />
<use xlink:href="#f4_18" transform="matrix(12.4,0,0,12.4,58.5,426.3)" />
<use xlink:href="#f4_1i" transform="matrix(12.4,0,0,12.4,98.2,440.9)" />
<use xlink:href="#f5_x" transform="matrix(12.4,0,0,12.4,78.1,426.3)" />
</g>
</g>
<path d="M92.6,472.6h38.2" class="g3_31" />
<g clip-path="url(#c1_31)">
<g fill="#000000" >
<use xlink:href="#f3_m" transform="matrix(7.3,0,0,7.2,122.9,457.2)" />
<use xlink:href="#f3_c" transform="matrix(12.7,0,0,12.4,93.5,465.5)" />
<use xlink:href="#f3_l" transform="matrix(12.7,0,0,12.4,98,465.5)" />
<use xlink:href="#f3_m" transform="matrix(12.7,0,0,12.4,107.1,465.5)" />
<use xlink:href="#f3_d" transform="matrix(12.7,0,0,12.4,116.2,465.5)" />
<use xlink:href="#f3_m" transform="matrix(12.7,0,0,12.4,149.8,477.3)" />
<use xlink:href="#f3_o" transform="matrix(12.7,0,0,12.4,158.9,477.3)" />
<use xlink:href="#f3_j" transform="matrix(12.7,0,0,12.4,186.5,477.3)" />
<use xlink:href="#f3_2f" transform="matrix(12.7,0,0,12.4,194.7,477.3)" />
<use xlink:href="#f3_21" transform="matrix(12.7,0,0,12.4,201.9,477.3)" />
<use xlink:href="#f3_1z" transform="matrix(12.7,0,0,12.4,209.8,477.3)" />
<use xlink:href="#f3_q" transform="matrix(12.7,0,0,12.4,107.3,491.9)" />
<use xlink:href="#f4_18" transform="matrix(12.7,0,0,12.4,58.5,477.3)" />
<use xlink:href="#f4_1a" transform="matrix(12.7,0,0,12.4,172.9,477.3)" />
<use xlink:href="#f5_x" transform="matrix(12.7,0,0,12.4,78.1,477.3)" />
<use xlink:href="#f5_x" transform="matrix(12.7,0,0,12.4,135.6,477.3)" />
</g>
</g>
<g fill="#000000" >
<use xlink:href="#f3_1k" transform="matrix(12,0,0,12,55,513.9)" />
<use xlink:href="#f3_24" transform="matrix(12,0,0,12,66.4,513.9)" />
<use xlink:href="#f3_21" transform="matrix(12,0,0,12,75.2,513.9)" />
<use xlink:href="#f3_2a" transform="matrix(12,0,0,12,88,513.9)" />
<use xlink:href="#f3_21" transform="matrix(12,0,0,12,96.8,513.9)" />
<use xlink:href="#f3_2j" transform="matrix(12,0,0,12,105.2,513.9)" />
<use xlink:href="#f3_24" transform="matrix(12,0,0,12,123.2,513.9)" />
<use xlink:href="#f3_21" transform="matrix(12,0,0,12,132,513.9)" />
<use xlink:href="#f3_1x" transform="matrix(12,0,0,12,140,513.9)" />
<use xlink:href="#f3_2g" transform="matrix(12,0,0,12,148.1,513.9)" />
<use xlink:href="#f3_20" transform="matrix(12,0,0,12,158.3,513.9)" />
<use xlink:href="#f3_25" transform="matrix(12,0,0,12,167.8,513.9)" />
<use xlink:href="#f3_2f" transform="matrix(12,0,0,12,172.2,513.9)" />
<use xlink:href="#f3_2f" transform="matrix(12,0,0,12,179.6,513.9)" />
<use xlink:href="#f3_25" transform="matrix(12,0,0,12,186.9,513.9)" />
<use xlink:href="#f3_2c" transform="matrix(12,0,0,12,191.3,513.9)" />
<use xlink:href="#f3_1x" transform="matrix(12,0,0,12,200.8,513.9)" />
<use xlink:href="#f3_2g" transform="matrix(12,0,0,12,208.9,513.9)" />
<use xlink:href="#f3_21" transform="matrix(12,0,0,12,214.3,513.9)" />
<use xlink:href="#f3_20" transform="matrix(12,0,0,12,222.4,513.9)" />
<use xlink:href="#f3_2c" transform="matrix(12,0,0,12,236.3,513.9)" />
<use xlink:href="#f3_21" transform="matrix(12,0,0,12,245.5,513.9)" />
<use xlink:href="#f3_2e" transform="matrix(12,0,0,12,253.6,513.9)" />
<use xlink:href="#f3_2h" transform="matrix(12,0,0,12,264.5,513.9)" />
<use xlink:href="#f3_2a" transform="matrix(12,0,0,12,273.7,513.9)" />
<use xlink:href="#f3_25" transform="matrix(12,0,0,12,282.5,513.9)" />
<use xlink:href="#f3_2g" transform="matrix(12,0,0,12,286.9,513.9)" />
<use xlink:href="#f3_2g" transform="matrix(12,0,0,12,297.1,513.9)" />
<use xlink:href="#f3_25" transform="matrix(12,0,0,12,302.6,513.9)" />
<use xlink:href="#f3_29" transform="matrix(12,0,0,12,307.4,513.9)" />
<use xlink:href="#f3_21" transform="matrix(12,0,0,12,321.3,513.9)" />
<use xlink:href="#f3_c" transform="matrix(12,0,0,12,334.1,513.9)" />
<use xlink:href="#f3_18" transform="matrix(12,0,0,12,340.3,513.9)" />
<use xlink:href="#f5_2s" transform="matrix(12,0,0,12,354,513.9)" />
<use xlink:href="#f3_d" transform="matrix(12,0,0,12,358.8,513.9)" />
<use xlink:href="#f3_x" transform="matrix(12,0,0,12,369.4,513.9)" />
<use xlink:href="#f3_18" transform="matrix(12,0,0,12,384.4,513.9)" />
<use xlink:href="#f3_4a" transform="matrix(12,0,0,12,402.3,513.9)" />
<use xlink:href="#f3_t" transform="matrix(12,0,0,12,417,513.9)" />
<use xlink:href="#f3_x" transform="matrix(12,0,0,12,430.5,513.9)" />
<use xlink:href="#f3_m" transform="matrix(12,0,0,12,445.5,513.9)" />
<use xlink:href="#f3_l" transform="matrix(12,0,0,12,454.7,513.9)" />
<use xlink:href="#f3_q" transform="matrix(12,0,0,12,463.9,513.9)" />
<use xlink:href="#f3_1a" transform="matrix(12,0,0,12,477.8,513.9)" />
<use xlink:href="#f3_j" transform="matrix(12,0,0,12,484.8,513.9)" />
<use xlink:href="#f3_2f" transform="matrix(12,0,0,12,489.9,513.9)" />
<use xlink:href="#f3_21" transform="matrix(12,0,0,12,496.9,513.9)" />
<use xlink:href="#f3_1z" transform="matrix(12,0,0,12,504.9,513.9)" />
<use xlink:href="#f3_1c" transform="matrix(12,0,0,12,55,536.2)" />
<use xlink:href="#f3_21" transform="matrix(12,0,0,12,66,536.2)" />
<use xlink:href="#f3_2g" transform="matrix(12,0,0,12,74.1,536.2)" />
<use xlink:href="#f3_2g" transform="matrix(12,0,0,12,84,536.2)" />
<use xlink:href="#f3_24" transform="matrix(12,0,0,12,89.5,536.2)" />
<use xlink:href="#f3_21" transform="matrix(12,0,0,12,98.3,536.2)" />
<use xlink:href="#f3_2a" transform="matrix(12,0,0,12,111.1,536.2)" />
<use xlink:href="#f3_21" transform="matrix(12,0,0,12,119.9,536.2)" />
<use xlink:href="#f3_2j" transform="matrix(12,0,0,12,127.9,536.2)" />
<use xlink:href="#f3_2i" transform="matrix(12,0,0,12,145.9,536.2)" />
<use xlink:href="#f3_2b" transform="matrix(12,0,0,12,154.7,536.2)" />
<use xlink:href="#f3_28" transform="matrix(12,0,0,12,164.6,536.2)" />
<use xlink:href="#f3_2g" transform="matrix(12,0,0,12,169,536.2)" />
<use xlink:href="#f3_1x" transform="matrix(12,0,0,12,174.5,536.2)" />
<use xlink:href="#f3_23" transform="matrix(12,0,0,12,182.5,536.2)" />
<use xlink:href="#f3_21" transform="matrix(12,0,0,12,191.7,536.2)" />
<use xlink:href="#f3_1y" transform="matrix(12,0,0,12,204.5,536.2)" />
<use xlink:href="#f3_21" transform="matrix(12,0,0,12,213.3,536.2)" />
<use xlink:href="#f3_1m" transform="matrix(12,0,0,12,226.1,536.2)" />
<use xlink:href="#f5_2s" transform="matrix(12,0,0,12,239.5,536.2)" />
</g>
<g clip-path="url(#c2_31)">
<g fill="#000000" >
<use xlink:href="#f5_c" transform="matrix(12.1,0,0,16.1,58.8,565.3)" />
<use xlink:href="#f5_d" transform="matrix(12.1,0,0,16.1,84.5,565.3)" />
</g>
</g>
<path d="M58.3,572.6H98.9" class="g4_31" />
<g clip-path="url(#c2_31)">
<g fill="#000000" >
<use xlink:href="#f3_m" transform="matrix(7.1,0,0,7.1,91,552.9)" />
<use xlink:href="#f3_b" transform="matrix(12.3,0,0,12.3,80.7,564)" />
<use xlink:href="#f3_m" transform="matrix(12.3,0,0,12.3,118.1,577.2)" />
<use xlink:href="#f3_l" transform="matrix(12.3,0,0,12.3,127.3,577.2)" />
<use xlink:href="#f3_q" transform="matrix(12.3,0,0,12.3,136.4,577.2)" />
<use xlink:href="#f4_1m" transform="matrix(12.3,0,0,12.3,64.7,564)" />
<use xlink:href="#f4_1i" transform="matrix(12.3,0,0,12.3,73.3,591.7)" />
<use xlink:href="#f5_x" transform="matrix(12.3,0,0,12.3,103.8,577.2)" />
</g>
</g>
<g clip-path="url(#c3_31)">
<g fill="#000000" >
<use xlink:href="#f5_c" transform="matrix(12.6,0,0,16.4,57.4,617)" />
<use xlink:href="#f5_d" transform="matrix(12.6,0,0,16.4,82.8,617)" />
<use xlink:href="#f3_b" transform="matrix(12.8,0,0,12.5,79,615.7)" />
<use xlink:href="#f3_m" transform="matrix(12.8,0,0,12.5,106.9,615.7)" />
<use xlink:href="#f3_l" transform="matrix(12.8,0,0,12.5,116,615.7)" />
<use xlink:href="#f3_q" transform="matrix(12.8,0,0,12.5,125.1,615.7)" />
<use xlink:href="#f3_q" transform="matrix(12.8,0,0,12.5,148,615.7)" />
<use xlink:href="#f4_1m" transform="matrix(12.8,0,0,12.5,63.2,615.7)" />
<use xlink:href="#f5_x" transform="matrix(12.8,0,0,12.5,92.8,615.7)" />
<use xlink:href="#f5_3a" transform="matrix(12.8,0,0,12.5,135.8,615.7)" />
</g>
</g>
<g fill="#000000" >
<use xlink:href="#f3_1f" transform="matrix(12,0,0,12,110,643.3)" />
<use xlink:href="#f3_2e" transform="matrix(12,0,0,12,123.2,643.3)" />
<use xlink:href="#f3_1m" transform="matrix(12,0,0,12,55,666.1)" />
<use xlink:href="#f5_2s" transform="matrix(12,0,0,12,68.2,666.1)" />
<use xlink:href="#f3_x" transform="matrix(12,0,0,12,77.8,666.1)" />
<use xlink:href="#f3_n" transform="matrix(12,0,0,12,92.8,666.1)" />
<use xlink:href="#f3_q" transform="matrix(12,0,0,12,102,666.1)" />
<use xlink:href="#f3_2i" transform="matrix(12,0,0,12,115.5,666.1)" />
<use xlink:href="#f3_2b" transform="matrix(12,0,0,12,124.3,666.1)" />
<use xlink:href="#f3_28" transform="matrix(12,0,0,12,133.8,666.1)" />
<use xlink:href="#f3_2g" transform="matrix(12,0,0,12,138.2,666.1)" />
<use xlink:href="#f3_c" transform="matrix(12,0,0,12,55,687)" />
<use xlink:href="#f3_1y" transform="matrix(12,0,0,12,61.3,687)" />
<use xlink:href="#f3_d" transform="matrix(12,0,0,12,70.1,687)" />
<use xlink:href="#f3_i" transform="matrix(12,0,0,12,76.3,687)" />
<use xlink:href="#f3_1i" transform="matrix(12,0,0,12,55,872.1)" />
<use xlink:href="#f3_x" transform="matrix(12,0,0,12,71.9,872.1)" />
<use xlink:href="#f3_o" transform="matrix(12,0,0,12,86.9,872.1)" />
<use xlink:href="#f5_1n" transform="matrix(12,0,0,12,100.5,872.1)" />
<use xlink:href="#f3_21" transform="matrix(12,0,0,12,55,893.1)" />
<use xlink:href="#f3_29" transform="matrix(12,0,0,12,63.5,893.1)" />
<use xlink:href="#f3_22" transform="matrix(12,0,0,12,77.4,893.1)" />
<use xlink:href="#f3_c" transform="matrix(12,0,0,12,87.6,893.1)" />
<use xlink:href="#f3_15" transform="matrix(12,0,0,12,93.8,893.1)" />
<use xlink:href="#f3_d" transform="matrix(12,0,0,12,105.2,893.1)" />
<use xlink:href="#f3_x" transform="matrix(12,0,0,12,116.2,893.1)" />
<use xlink:href="#f3_l" transform="matrix(12,0,0,12,131.2,893.1)" />
<use xlink:href="#f3_m" transform="matrix(12,0,0,12,140.3,893.1)" />
<use xlink:href="#f3_1m" transform="matrix(12,0,0,12,154.3,893.1)" />
<use xlink:href="#f3_25" transform="matrix(12,0,0,12,55,915.8)" />
<use xlink:href="#f3_2a" transform="matrix(12,0,0,12,59.8,915.8)" />
<use xlink:href="#f3_2g" transform="matrix(12,0,0,12,68.6,915.8)" />
<use xlink:href="#f3_21" transform="matrix(12,0,0,12,74.1,915.8)" />
<use xlink:href="#f3_2e" transform="matrix(12,0,0,12,82.2,915.8)" />
<use xlink:href="#f3_2a" transform="matrix(12,0,0,12,88.7,915.8)" />
<use xlink:href="#f3_1x" transform="matrix(12,0,0,12,97.5,915.8)" />
<use xlink:href="#f3_28" transform="matrix(12,0,0,12,105.9,915.8)" />
<use xlink:href="#f3_2e" transform="matrix(12,0,0,12,115.1,915.8)" />
<use xlink:href="#f3_21" transform="matrix(12,0,0,12,121.3,915.8)" />
<use xlink:href="#f3_2f" transform="matrix(12,0,0,12,129.4,915.8)" />
<use xlink:href="#f3_25" transform="matrix(12,0,0,12,136.7,915.8)" />
<use xlink:href="#f3_2f" transform="matrix(12,0,0,12,141.5,915.8)" />
<use xlink:href="#f3_2g" transform="matrix(12,0,0,12,148.4,915.8)" />
<use xlink:href="#f3_1x" transform="matrix(12,0,0,12,153.9,915.8)" />
<use xlink:href="#f3_2a" transform="matrix(12,0,0,12,162.3,915.8)" />
<use xlink:href="#f3_1z" transform="matrix(12,0,0,12,171.1,915.8)" />
<use xlink:href="#f3_21" transform="matrix(12,0,0,12,179.2,915.8)" />
<use xlink:href="#f3_c" transform="matrix(12,0,0,12,192,915.8)" />
<use xlink:href="#f3_2e" transform="matrix(12,0,0,12,198.2,915.8)" />
<use xlink:href="#f3_d" transform="matrix(12,0,0,12,204.4,915.8)" />
<use xlink:href="#f3_x" transform="matrix(12,0,0,12,215.4,915.8)" />
<use xlink:href="#f3_m" transform="matrix(12,0,0,12,230.4,915.8)" />
<use xlink:href="#f5_1n" transform="matrix(12,0,0,12,239.5,915.8)" />
<use xlink:href="#f3_21" transform="matrix(12,0,0,12,55,938.2)" />
<use xlink:href="#f3_2k" transform="matrix(12,0,0,12,63.1,938.2)" />
<use xlink:href="#f3_2g" transform="matrix(12,0,0,12,71.9,938.2)" />
<use xlink:href="#f3_21" transform="matrix(12,0,0,12,77.4,938.2)" />
<use xlink:href="#f3_2e" transform="matrix(12,0,0,12,85.5,938.2)" />
<use xlink:href="#f3_2a" transform="matrix(12,0,0,12,91.7,938.2)" />
<use xlink:href="#f3_1x" transform="matrix(12,0,0,12,100.5,938.2)" />
<use xlink:href="#f3_28" transform="matrix(12,0,0,12,108.9,938.2)" />
<use xlink:href="#f3_2e" transform="matrix(12,0,0,12,118,938.2)" />
<use xlink:href="#f3_21" transform="matrix(12,0,0,12,124.2,938.2)" />
<use xlink:href="#f3_2f" transform="matrix(12,0,0,12,132.7,938.2)" />
<use xlink:href="#f3_25" transform="matrix(12,0,0,12,140,938.2)" />
<use xlink:href="#f3_2f" transform="matrix(12,0,0,12,144.7,938.2)" />
<use xlink:href="#f3_2g" transform="matrix(12,0,0,12,151.7,938.2)" />
<use xlink:href="#f3_1x" transform="matrix(12,0,0,12,157.2,938.2)" />
<use xlink:href="#f3_2a" transform="matrix(12,0,0,12,165.3,938.2)" />
<use xlink:href="#f3_1z" transform="matrix(12,0,0,12,174.1,938.2)" />
<use xlink:href="#f3_21" transform="matrix(12,0,0,12,182.5,938.2)" />
<use xlink:href="#f3_c" transform="matrix(12,0,0,12,195.3,938.2)" />
<use xlink:href="#f3_1i" transform="matrix(12,0,0,12,201.5,938.2)" />
<use xlink:href="#f3_d" transform="matrix(12,0,0,12,213.6,938.2)" />
<use xlink:href="#f3_x" transform="matrix(12,0,0,12,224.6,938.2)" />
<use xlink:href="#f3_o" transform="matrix(12,0,0,12,239.6,938.2)" />
<use xlink:href="#f5_1n" transform="matrix(12,0,0,12,248.7,938.2)" />
<use xlink:href="#f3_2g" transform="matrix(12,0,0,12,55,971.6)" />
<use xlink:href="#f3_24" transform="matrix(12,0,0,12,60.5,971.6)" />
<use xlink:href="#f3_21" transform="matrix(12,0,0,12,69.3,971.6)" />
<use xlink:href="#f3_2a" transform="matrix(12,0,0,12,77.4,971.6)" />
<use xlink:href="#f3_1z" transform="matrix(12,0,0,12,90.9,971.6)" />
<use xlink:href="#f3_2h" transform="matrix(12,0,0,12,99,971.6)" />
<use xlink:href="#f3_2e" transform="matrix(12,0,0,12,108.2,971.6)" />
<use xlink:href="#f3_2e" transform="matrix(12,0,0,12,114.4,971.6)" />
<use xlink:href="#f3_21" transform="matrix(12,0,0,12,120.6,971.6)" />
<use xlink:href="#f3_2a" transform="matrix(12,0,0,12,128.7,971.6)" />
<use xlink:href="#f3_2g" transform="matrix(12,0,0,12,137.5,971.6)" />
</g>
<path d="M190.9,966.9h38.7m19.5,0h36.4m19.5,0h18.1" class="g5_31" />
<g clip-path="url(#c4_31)">
<g fill="#000000" >
<use xlink:href="#f3_l" transform="matrix(12.6,0,0,12.4,257.4,959.9)" />
<use xlink:href="#f3_m" transform="matrix(12.6,0,0,12.4,266.6,959.9)" />
<use xlink:href="#f3_l" transform="matrix(12.6,0,0,12.4,304.1,959.9)" />
<use xlink:href="#f3_m" transform="matrix(12.6,0,0,12.4,313.3,959.9)" />
<use xlink:href="#f3_c" transform="matrix(12.6,0,0,12.4,150.4,971.6)" />
<use xlink:href="#f3_d" transform="matrix(12.6,0,0,12.4,165.9,971.6)" />
<use xlink:href="#f3_m" transform="matrix(12.6,0,0,12.4,342.2,971.6)" />
<use xlink:href="#f3_o" transform="matrix(12.6,0,0,12.4,250.2,986.1)" />
<use xlink:href="#f3_m" transform="matrix(12.6,0,0,12.4,275.7,986.1)" />
<use xlink:href="#f3_q" transform="matrix(12.6,0,0,12.4,309.5,986.1)" />
<use xlink:href="#f4_16" transform="matrix(12.6,0,0,12.4,204.2,959.9)" />
<use xlink:href="#f4_19" transform="matrix(12.6,0,0,12.4,157.6,971.6)" />
<use xlink:href="#f4_11" transform="matrix(12.6,0,0,12.4,353.2,971.6)" />
<use xlink:href="#f4_1i" transform="matrix(12.6,0,0,12.4,192.6,986.1)" />
<use xlink:href="#f4_2e" transform="matrix(12.6,0,0,12.4,220.7,986.1)" />
<use xlink:href="#f5_x" transform="matrix(12.6,0,0,12.4,176.2,971.6)" />
<use xlink:href="#f5_x" transform="matrix(12.6,0,0,12.4,234.4,971.6)" />
<use xlink:href="#f5_x" transform="matrix(12.6,0,0,12.4,290.4,971.6)" />
<use xlink:href="#f5_x" transform="matrix(12.6,0,0,12.4,327.9,971.6)" />
<use xlink:href="#f5_f" transform="matrix(12.6,0,0,12.4,207.2,986.1)" />
<use xlink:href="#f5_f" transform="matrix(12.6,0,0,12.4,262.3,986.1)" />
</g>
</g>
<g fill="#000000" >
<use xlink:href="#f3_2f" transform="matrix(12,0,0,12,55,1006.8)" />
<use xlink:href="#f3_2b" transform="matrix(12,0,0,12,62,1006.8)" />
<use xlink:href="#f3_2e" transform="matrix(12,0,0,12,76.3,1006.8)" />
<use xlink:href="#f3_21" transform="matrix(12,0,0,12,82.5,1006.8)" />
<use xlink:href="#f3_1x" transform="matrix(12,0,0,12,90.5,1006.8)" />
<use xlink:href="#f3_20" transform="matrix(12,0,0,12,98.6,1006.8)" />
<use xlink:href="#f3_25" transform="matrix(12,0,0,12,107.8,1006.8)" />
<use xlink:href="#f3_2a" transform="matrix(12,0,0,12,112.5,1006.8)" />
<use xlink:href="#f3_23" transform="matrix(12,0,0,12,121.3,1006.8)" />
<use xlink:href="#f3_2b" transform="matrix(12,0,0,12,135.3,1006.8)" />
<use xlink:href="#f3_22" transform="matrix(12,0,0,12,144.8,1006.8)" />
<use xlink:href="#f3_1x" transform="matrix(12,0,0,12,155,1006.8)" />
<use xlink:href="#f3_29" transform="matrix(12,0,0,12,163.4,1006.8)" />
<use xlink:href="#f3_29" transform="matrix(12,0,0,12,177.4,1006.8)" />
<use xlink:href="#f3_21" transform="matrix(12,0,0,12,191.3,1006.8)" />
<use xlink:href="#f3_2g" transform="matrix(12,0,0,12,199.4,1006.8)" />
<use xlink:href="#f3_21" transform="matrix(12,0,0,12,204.9,1006.8)" />
<use xlink:href="#f3_2e" transform="matrix(12,0,0,12,212.9,1006.8)" />
<use xlink:href="#f3_2j" transform="matrix(12,0,0,12,223.9,1006.8)" />
<use xlink:href="#f3_25" transform="matrix(12,0,0,12,237.4,1006.8)" />
<use xlink:href="#f3_28" transform="matrix(12,0,0,12,242.2,1006.8)" />
<use xlink:href="#f3_28" transform="matrix(12,0,0,12,247.3,1006.8)" />
<use xlink:href="#f3_1y" transform="matrix(12,0,0,12,256.9,1006.8)" />
<use xlink:href="#f3_21" transform="matrix(12,0,0,12,265.7,1006.8)" />
<use xlink:href="#f3_m" transform="matrix(12,0,0,12,278.5,1006.8)" />
<use xlink:href="#f3_11" transform="matrix(12,0,0,12,288,1006.8)" />
<use xlink:href="#f3_i" transform="matrix(12,0,0,12,300.8,1006.8)" />
<use xlink:href="#f3_1n" transform="matrix(12,0,0,12,55,1028.4)" />
<use xlink:href="#f3_21" transform="matrix(12,0,0,12,71.9,1028.4)" />
<use xlink:href="#f3_27" transform="matrix(12,0,0,12,84.7,1028.4)" />
<use xlink:href="#f3_2a" transform="matrix(12,0,0,12,94.2,1028.4)" />
<use xlink:href="#f3_2b" transform="matrix(12,0,0,12,103,1028.4)" />
<use xlink:href="#f3_2j" transform="matrix(12,0,0,12,112.5,1028.4)" />
</g>
<g clip-path="url(#c5_31)">
<g fill="#000000" >
<use xlink:href="#f4_1m" transform="matrix(13.1,0,0,12.5,167.1,1028.4)" />
<use xlink:href="#f4_15" transform="matrix(13.1,0,0,12.5,200.1,1028.4)" />
<use xlink:href="#f4_19" transform="matrix(13.1,0,0,12.5,229.1,1028.4)" />
<use xlink:href="#f4_2e" transform="matrix(13.1,0,0,12.5,235.2,1028.4)" />
<use xlink:href="#f5_x" transform="matrix(13.1,0,0,12.5,185.2,1028.4)" />
<use xlink:href="#f5_h" transform="matrix(13.1,0,0,12.5,215.4,1028.4)" />
</g>
</g>
<g clip-path="url(#c6_31)">
<g fill="#000000" >
<use xlink:href="#f3_l" transform="matrix(13.1,0,0,12,108.2,1052.6)" />
<use xlink:href="#f3_m" transform="matrix(13.1,0,0,12,117.4,1052.6)" />
<use xlink:href="#f3_m" transform="matrix(13.1,0,0,12,142.5,1052.6)" />
<use xlink:href="#f3_m" transform="matrix(13.1,0,0,12,165.9,1052.6)" />
<use xlink:href="#f4_1m" transform="matrix(13.1,0,0,12,77.9,1052.6)" />
<use xlink:href="#f5_4g" transform="matrix(13.1,0,0,12,57.4,1052.6)" />
<use xlink:href="#f5_x" transform="matrix(13.1,0,0,12,95.9,1052.6)" />
<use xlink:href="#f5_h" transform="matrix(13.1,0,0,12,129.3,1052.6)" />
<use xlink:href="#f5_3a" transform="matrix(13.1,0,0,12,153.3,1052.6)" />
</g>
</g>
<g clip-path="url(#c7_31)">
<g fill="#000000" >
<use xlink:href="#f3_l" transform="matrix(12.9,0,0,12.5,113.4,1074.2)" />
<use xlink:href="#f3_m" transform="matrix(12.9,0,0,12.5,122.5,1074.2)" />
<use xlink:href="#f3_o" transform="matrix(12.9,0,0,12.5,147.7,1074.2)" />
<use xlink:href="#f3_s" transform="matrix(12.9,0,0,12.5,174.2,1074.2)" />
<use xlink:href="#f4_1m" transform="matrix(12.9,0,0,12.5,83.1,1074.2)" />
<use xlink:href="#f4_1m" transform="matrix(12.9,0,0,12.5,181.7,1074.2)" />
<use xlink:href="#f5_4g" transform="matrix(12.9,0,0,12.5,57.4,1074.2)" />
<use xlink:href="#f5_x" transform="matrix(12.9,0,0,12.5,101.1,1074.2)" />
<use xlink:href="#f5_h" transform="matrix(12.9,0,0,12.5,134.5,1074.2)" />
<use xlink:href="#f5_x" transform="matrix(12.9,0,0,12.5,160.8,1074.2)" />
</g>
</g>
<g fill="#000000" >
<use xlink:href="#f3_1j" transform="matrix(12,0,0,12,55,1098.8)" />
<use xlink:href="#f3_2b" transform="matrix(12,0,0,12,65.3,1098.8)" />
<use xlink:href="#f3_2e" transform="matrix(12,0,0,12,79.2,1098.8)" />
<use xlink:href="#f3_21" transform="matrix(12,0,0,12,85.4,1098.8)" />
<use xlink:href="#f3_1x" transform="matrix(12,0,0,12,93.5,1098.8)" />
<use xlink:href="#f3_20" transform="matrix(12,0,0,12,101.5,1098.8)" />
<use xlink:href="#f3_25" transform="matrix(12,0,0,12,110.7,1098.8)" />
<use xlink:href="#f3_2a" transform="matrix(12,0,0,12,115.5,1098.8)" />
<use xlink:href="#f3_23" transform="matrix(12,0,0,12,124.3,1098.8)" />
<use xlink:href="#f3_25" transform="matrix(12,0,0,12,138.6,1098.8)" />
<use xlink:href="#f3_2a" transform="matrix(12,0,0,12,143.4,1098.8)" />
<use xlink:href="#f3_2i" transform="matrix(12,0,0,12,157.3,1098.8)" />
<use xlink:href="#f3_2b" transform="matrix(12,0,0,12,166.1,1098.8)" />
<use xlink:href="#f3_28" transform="matrix(12,0,0,12,176,1098.8)" />
<use xlink:href="#f3_2g" transform="matrix(12,0,0,12,180.4,1098.8)" />
<use xlink:href="#f3_29" transform="matrix(12,0,0,12,186.2,1098.8)" />
<use xlink:href="#f3_21" transform="matrix(12,0,0,12,199.8,1098.8)" />
<use xlink:href="#f3_2g" transform="matrix(12,0,0,12,207.9,1098.8)" />
<use xlink:href="#f3_21" transform="matrix(12,0,0,12,213.4,1098.8)" />
<use xlink:href="#f3_2e" transform="matrix(12,0,0,12,221.4,1098.8)" />
<use xlink:href="#f3_2j" transform="matrix(12,0,0,12,232.4,1098.8)" />
<use xlink:href="#f3_25" transform="matrix(12,0,0,12,245.6,1098.8)" />
<use xlink:href="#f3_28" transform="matrix(12,0,0,12,250.4,1098.8)" />
<use xlink:href="#f3_28" transform="matrix(12,0,0,12,255.5,1098.8)" />
<use xlink:href="#f3_1y" transform="matrix(12,0,0,12,265,1098.8)" />
<use xlink:href="#f3_21" transform="matrix(12,0,0,12,274.2,1098.8)" />
<use xlink:href="#f3_s" transform="matrix(12,0,0,12,287,1098.8)" />
<use xlink:href="#f3_1m" transform="matrix(12,0,0,12,296.2,1098.8)" />
<use xlink:href="#f3_i" transform="matrix(12,0,0,12,309.4,1098.8)" />
<use xlink:href="#f2_l" transform="matrix(12,0,0,12,55,1141)" />
<use xlink:href="#f2_m" transform="matrix(12,0,0,12,64.2,1141)" />
<use xlink:href="#f2_i" transform="matrix(12,0,0,12,73.4,1141)" />
<use xlink:href="#f3_c" transform="matrix(12,0,0,12,82.9,1141)" />
<use xlink:href="#f3_1x" transform="matrix(12,0,0,12,89.1,1141)" />
<use xlink:href="#f3_d" transform="matrix(12,0,0,12,96.8,1141)" />
<use xlink:href="#f3_18" transform="matrix(12,0,0,12,107.8,1141)" />
<use xlink:href="#f3_2b" transform="matrix(12,0,0,12,120.6,1141)" />
<use xlink:href="#f3_2j" transform="matrix(12,0,0,12,130.1,1141)" />
<use xlink:href="#f3_25" transform="matrix(12,0,0,12,148.1,1141)" />
<use xlink:href="#f3_2f" transform="matrix(12,0,0,12,152.5,1141)" />
<use xlink:href="#f3_1x" transform="matrix(12,0,0,12,164.2,1141)" />
<use xlink:href="#f3_29" transform="matrix(12,0,0,12,172.6,1141)" />
<use xlink:href="#f3_2c" transform="matrix(12,0,0,12,186.5,1141)" />
<use xlink:href="#f3_28" transform="matrix(12,0,0,12,196.1,1141)" />
<use xlink:href="#f3_25" transform="matrix(12,0,0,12,200.8,1141)" />
<use xlink:href="#f3_2g" transform="matrix(12,0,0,12,205.2,1141)" />
<use xlink:href="#f3_2h" transform="matrix(12,0,0,12,210.7,1141)" />
<use xlink:href="#f3_20" transform="matrix(12,0,0,12,219.9,1141)" />
<use xlink:href="#f3_21" transform="matrix(12,0,0,12,229,1141)" />
<use xlink:href="#f3_29" transform="matrix(12,0,0,12,242.2,1141)" />
<use xlink:href="#f3_2b" transform="matrix(12,0,0,12,255.8,1141)" />
<use xlink:href="#f3_20" transform="matrix(12,0,0,12,265.3,1141)" />
<use xlink:href="#f3_2h" transform="matrix(12,0,0,12,274.5,1141)" />
<use xlink:href="#f3_28" transform="matrix(12,0,0,12,284,1141)" />
<use xlink:href="#f3_1x" transform="matrix(12,0,0,12,288.8,1141)" />
<use xlink:href="#f3_2g" transform="matrix(12,0,0,12,296.8,1141)" />
<use xlink:href="#f3_25" transform="matrix(12,0,0,12,302.7,1141)" />
<use xlink:href="#f3_2b" transform="matrix(12,0,0,12,307.1,1141)" />
<use xlink:href="#f3_2a" transform="matrix(12,0,0,12,316.6,1141)" />
<use xlink:href="#f3_1x" transform="matrix(12,0,0,12,330.1,1141)" />
<use xlink:href="#f3_1z" transform="matrix(12,0,0,12,338.2,1141)" />
<use xlink:href="#f3_24" transform="matrix(12,0,0,12,346.6,1141)" />
<use xlink:href="#f3_25" transform="matrix(12,0,0,12,355.8,1141)" />
<use xlink:href="#f3_21" transform="matrix(12,0,0,12,360.5,1141)" />
<use xlink:href="#f3_2i" transform="matrix(12,0,0,12,369,1141)" />
<use xlink:href="#f3_21" transform="matrix(12,0,0,12,377.8,1141)" />
<use xlink:href="#f3_20" transform="matrix(12,0,0,12,385.8,1141)" />
<use xlink:href="#f3_z" transform="matrix(12,0,0,12,399.7,1141)" />
<use xlink:href="#f3_c" transform="matrix(12,0,0,12,55,1162.3)" />
<use xlink:href="#f3_1y" transform="matrix(12,0,0,12,61.3,1162.3)" />
<use xlink:href="#f3_d" transform="matrix(12,0,0,12,70.1,1162.3)" />
<use xlink:href="#f3_1k" transform="matrix(12,0,0,12,81,1162.3)" />
<use xlink:href="#f3_24" transform="matrix(12,0,0,12,92.4,1162.3)" />
<use xlink:href="#f3_21" transform="matrix(12,0,0,12,101.2,1162.3)" />
<use xlink:href="#f3_22" transform="matrix(12,0,0,12,114.3,1162.3)" />
<use xlink:href="#f3_2e" transform="matrix(12,0,0,12,119.8,1162.3)" />
<use xlink:href="#f3_21" transform="matrix(12,0,0,12,126.1,1162.3)" />
<use xlink:href="#f3_2d" transform="matrix(12,0,0,12,134.1,1162.3)" />
<use xlink:href="#f3_2h" transform="matrix(12,0,0,12,143.3,1162.3)" />
<use xlink:href="#f3_21" transform="matrix(12,0,0,12,152.5,1162.3)" />
<use xlink:href="#f3_2a" transform="matrix(12,0,0,12,160.9,1162.3)" />
<use xlink:href="#f3_1z" transform="matrix(12,0,0,12,169.7,1162.3)" />
<use xlink:href="#f3_25" transform="matrix(12,0,0,12,178.1,1162.3)" />
<use xlink:href="#f3_21" transform="matrix(12,0,0,12,182.9,1162.3)" />
<use xlink:href="#f3_2f" transform="matrix(12,0,0,12,190.9,1162.3)" />
<use xlink:href="#f3_2b" transform="matrix(12,0,0,12,202.6,1162.3)" />
<use xlink:href="#f3_22" transform="matrix(12,0,0,12,212.5,1162.3)" />
<use xlink:href="#f3_2g" transform="matrix(12,0,0,12,222.8,1162.3)" />
<use xlink:href="#f3_2j" transform="matrix(12,0,0,12,228.3,1162.3)" />
<use xlink:href="#f3_2b" transform="matrix(12,0,0,12,241.1,1162.3)" />
<use xlink:href="#f3_2f" transform="matrix(12,0,0,12,255.3,1162.3)" />
<use xlink:href="#f3_25" transform="matrix(12,0,0,12,262.3,1162.3)" />
<use xlink:href="#f3_20" transform="matrix(12,0,0,12,266.7,1162.3)" />
<use xlink:href="#f3_21" transform="matrix(12,0,0,12,275.9,1162.3)" />
<use xlink:href="#f3_1y" transform="matrix(12,0,0,12,289.1,1162.3)" />
<use xlink:href="#f3_1x" transform="matrix(12,0,0,12,297.9,1162.3)" />
<use xlink:href="#f3_2a" transform="matrix(12,0,0,12,306.3,1162.3)" />
<use xlink:href="#f3_20" transform="matrix(12,0,0,12,315.1,1162.3)" />
<use xlink:href="#f3_2f" transform="matrix(12,0,0,12,324.2,1162.3)" />
<use xlink:href="#f3_25" transform="matrix(12,0,0,12,336.3,1162.3)" />
<use xlink:href="#f3_2a" transform="matrix(12,0,0,12,341.1,1162.3)" />
<use xlink:href="#f3_1x" transform="matrix(12,0,0,12,354.6,1162.3)" />
<use xlink:href="#f3_2a" transform="matrix(12,0,0,12,363.1,1162.3)" />
<use xlink:href="#f3_11" transform="matrix(12,0,0,12,377,1162.3)" />
<use xlink:href="#f3_1d" transform="matrix(12,0,0,12,389.8,1162.3)" />
<use xlink:href="#f3_2j" transform="matrix(12,0,0,12,410.7,1162.3)" />
<use xlink:href="#f3_1x" transform="matrix(12,0,0,12,424.2,1162.3)" />
<use xlink:href="#f3_2i" transform="matrix(12,0,0,12,432.3,1162.3)" />
<use xlink:href="#f3_21" transform="matrix(12,0,0,12,441.1,1162.3)" />
<use xlink:href="#f3_1x" transform="matrix(12,0,0,12,453.9,1162.3)" />
<use xlink:href="#f3_2e" transform="matrix(12,0,0,12,462,1162.3)" />
<use xlink:href="#f3_21" transform="matrix(12,0,0,12,468.2,1162.3)" />
<use xlink:href="#f3_q" transform="matrix(12,0,0,12,481,1162.3)" />
<use xlink:href="#f3_o" transform="matrix(12,0,0,12,490.2,1162.3)" />
<use xlink:href="#f3_k" transform="matrix(12,0,0,12,499.3,1162.3)" />
<use xlink:href="#f3_27" transform="matrix(12,0,0,12,513.3,1162.3)" />
<use xlink:href="#f3_18" transform="matrix(12,0,0,12,522.4,1162.3)" />
<use xlink:href="#f3_2m" transform="matrix(12,0,0,12,535.7,1162.3)" />
<use xlink:href="#f3_1x" transform="matrix(12,0,0,12,548.4,1162.3)" />
<use xlink:href="#f3_2a" transform="matrix(12,0,0,12,556.5,1162.3)" />
<use xlink:href="#f3_20" transform="matrix(12,0,0,12,565.3,1162.3)" />
<use xlink:href="#f3_q" transform="matrix(12,0,0,12,579.2,1162.3)" />
<use xlink:href="#f3_q" transform="matrix(12,0,0,12,588.4,1162.3)" />
<use xlink:href="#f3_k" transform="matrix(12,0,0,12,597.6,1162.3)" />
<use xlink:href="#f3_27" transform="matrix(12,0,0,12,611.5,1162.3)" />
<use xlink:href="#f3_18" transform="matrix(12,0,0,12,620.6,1162.3)" />
<use xlink:href="#f3_2m" transform="matrix(12,0,0,12,633.9,1162.3)" />
<use xlink:href="#f3_2e" transform="matrix(12,0,0,12,646.7,1162.3)" />
<use xlink:href="#f3_21" transform="matrix(12,0,0,12,652.9,1162.3)" />
<use xlink:href="#f3_2f" transform="matrix(12,0,0,12,660.9,1162.3)" />
<use xlink:href="#f3_2c" transform="matrix(12,0,0,12,667.9,1162.3)" />
<use xlink:href="#f3_21" transform="matrix(12,0,0,12,677.1,1162.3)" />
<use xlink:href="#f3_1z" transform="matrix(12,0,0,12,685.1,1162.3)" />
<use xlink:href="#f3_2g" transform="matrix(12,0,0,12,693.2,1162.3)" />
<use xlink:href="#f3_25" transform="matrix(12,0,0,12,698.7,1162.3)" />
<use xlink:href="#f3_2i" transform="matrix(12,0,0,12,703.5,1162.3)" />
<use xlink:href="#f3_21" transform="matrix(12,0,0,12,712.3,1162.3)" />
<use xlink:href="#f3_28" transform="matrix(12,0,0,12,720.7,1162.3)" />
<use xlink:href="#f3_2l" transform="matrix(12,0,0,12,725.8,1162.3)" />
<use xlink:href="#f3_i" transform="matrix(12,0,0,12,734.6,1162.3)" />
<use xlink:href="#f3_16" transform="matrix(12,0,0,12,744.1,1162.3)" />
<use xlink:href="#f3_25" transform="matrix(12,0,0,12,754.3,1162.3)" />
<use xlink:href="#f3_2a" transform="matrix(12,0,0,12,759.1,1162.3)" />
<use xlink:href="#f3_20" transform="matrix(12,0,0,12,768.3,1162.3)" />
<use xlink:href="#f3_2g" transform="matrix(12,0,0,12,782.2,1162.3)" />
<use xlink:href="#f3_24" transform="matrix(12,0,0,12,787.7,1162.3)" />
<use xlink:href="#f3_21" transform="matrix(12,0,0,12,796.5,1162.3)" />
<use xlink:href="#f3_22" transform="matrix(12,0,0,12,55,1183.2)" />
<use xlink:href="#f3_2e" transform="matrix(12,0,0,12,60.5,1183.2)" />
<use xlink:href="#f3_21" transform="matrix(12,0,0,12,66.8,1183.2)" />
<use xlink:href="#f3_2d" transform="matrix(12,0,0,12,74.8,1183.2)" />
<use xlink:href="#f3_2h" transform="matrix(12,0,0,12,84,1183.2)" />
<use xlink:href="#f3_21" transform="matrix(12,0,0,12,93.5,1183.2)" />
<use xlink:href="#f3_2a" transform="matrix(12,0,0,12,101.9,1183.2)" />
<use xlink:href="#f3_1z" transform="matrix(12,0,0,12,110.7,1183.2)" />
<use xlink:href="#f3_25" transform="matrix(12,0,0,12,119.1,1183.2)" />
<use xlink:href="#f3_21" transform="matrix(12,0,0,12,123.9,1183.2)" />
<use xlink:href="#f3_2f" transform="matrix(12,0,0,12,132,1183.2)" />
<use xlink:href="#f3_1z" transform="matrix(12,0,0,12,143.7,1183.2)" />
<use xlink:href="#f3_1x" transform="matrix(12,0,0,12,151.7,1183.2)" />
<use xlink:href="#f3_2e" transform="matrix(12,0,0,12,159.8,1183.2)" />
<use xlink:href="#f3_2e" transform="matrix(12,0,0,12,166,1183.2)" />
<use xlink:href="#f3_25" transform="matrix(12,0,0,12,172.6,1183.2)" />
<use xlink:href="#f3_21" transform="matrix(12,0,0,12,177.4,1183.2)" />
<use xlink:href="#f3_2e" transform="matrix(12,0,0,12,185.4,1183.2)" />
<use xlink:href="#f3_1x" transform="matrix(12,0,0,12,196.4,1183.2)" />
<use xlink:href="#f3_2a" transform="matrix(12,0,0,12,204.5,1183.2)" />
<use xlink:href="#f3_20" transform="matrix(12,0,0,12,213.3,1183.2)" />
<use xlink:href="#f3_29" transform="matrix(12,0,0,12,227.6,1183.2)" />
<use xlink:href="#f3_2b" transform="matrix(12,0,0,12,241.1,1183.2)" />
<use xlink:href="#f3_20" transform="matrix(12,0,0,12,250.6,1183.2)" />
<use xlink:href="#f3_2h" transform="matrix(12,0,0,12,259.8,1183.2)" />
<use xlink:href="#f3_28" transform="matrix(12,0,0,12,269.3,1183.2)" />
<use xlink:href="#f3_1x" transform="matrix(12,0,0,12,273.7,1183.2)" />
<use xlink:href="#f3_2g" transform="matrix(12,0,0,12,281.8,1183.2)" />
<use xlink:href="#f3_25" transform="matrix(12,0,0,12,287.6,1183.2)" />
<use xlink:href="#f3_2a" transform="matrix(12,0,0,12,292.4,1183.2)" />
<use xlink:href="#f3_23" transform="matrix(12,0,0,12,301.2,1183.2)" />
<use xlink:href="#f3_2f" transform="matrix(12,0,0,12,315.1,1183.2)" />
<use xlink:href="#f3_25" transform="matrix(12,0,0,12,322.4,1183.2)" />
<use xlink:href="#f3_23" transform="matrix(12,0,0,12,327.2,1183.2)" />
<use xlink:href="#f3_2a" transform="matrix(12,0,0,12,336.7,1183.2)" />
<use xlink:href="#f3_1x" transform="matrix(12,0,0,12,345.5,1183.2)" />
<use xlink:href="#f3_28" transform="matrix(12,0,0,12,353.9,1183.2)" />
<use xlink:href="#f3_i" transform="matrix(12,0,0,12,358.7,1183.2)" />
<use xlink:href="#f3_1n" transform="matrix(12,0,0,12,368.2,1183.2)" />
<use xlink:href="#f3_24" transform="matrix(12,0,0,12,385.4,1183.2)" />
<use xlink:href="#f3_1x" transform="matrix(12,0,0,12,394.2,1183.2)" />
<use xlink:href="#f3_2g" transform="matrix(12,0,0,12,402.3,1183.2)" />
<use xlink:href="#f3_25" transform="matrix(12,0,0,12,412.9,1183.2)" />
<use xlink:href="#f3_2f" transform="matrix(12,0,0,12,417.3,1183.2)" />
<use xlink:href="#f3_2g" transform="matrix(12,0,0,12,429.4,1183.2)" />
<use xlink:href="#f3_24" transform="matrix(12,0,0,12,434.8,1183.2)" />
<use xlink:href="#f3_21" transform="matrix(12,0,0,12,443.6,1183.2)" />
<use xlink:href="#f3_1y" transform="matrix(12,0,0,12,456.5,1183.2)" />
<use xlink:href="#f3_1x" transform="matrix(12,0,0,12,465.3,1183.2)" />
<use xlink:href="#f3_2a" transform="matrix(12,0,0,12,473.7,1183.2)" />
<use xlink:href="#f3_20" transform="matrix(12,0,0,12,482.5,1183.2)" />
<use xlink:href="#f3_2j" transform="matrix(12,0,0,12,491.6,1183.2)" />
<use xlink:href="#f3_25" transform="matrix(12,0,0,12,505.2,1183.2)" />
<use xlink:href="#f3_20" transform="matrix(12,0,0,12,510,1183.2)" />
<use xlink:href="#f3_2g" transform="matrix(12,0,0,12,519.1,1183.2)" />
<use xlink:href="#f3_24" transform="matrix(12,0,0,12,524.6,1183.2)" />
<use xlink:href="#f3_2e" transform="matrix(12,0,0,12,538.2,1183.2)" />
<use xlink:href="#f3_21" transform="matrix(12,0,0,12,544.4,1183.2)" />
<use xlink:href="#f3_2d" transform="matrix(12,0,0,12,552.4,1183.2)" />
<use xlink:href="#f3_2h" transform="matrix(12,0,0,12,561.6,1183.2)" />
<use xlink:href="#f3_25" transform="matrix(12,0,0,12,571.1,1183.2)" />
<use xlink:href="#f3_2e" transform="matrix(12,0,0,12,575.5,1183.2)" />
<use xlink:href="#f3_21" transform="matrix(12,0,0,12,581.7,1183.2)" />
<use xlink:href="#f3_20" transform="matrix(12,0,0,12,589.8,1183.2)" />
<use xlink:href="#f3_22" transform="matrix(12,0,0,12,604.1,1183.2)" />
<use xlink:href="#f3_2b" transform="matrix(12,0,0,12,609.6,1183.2)" />
<use xlink:href="#f3_2e" transform="matrix(12,0,0,12,619.1,1183.2)" />
<use xlink:href="#f3_1x" transform="matrix(12,0,0,12,630.1,1183.2)" />
<use xlink:href="#f3_29" transform="matrix(12,0,0,12,638.1,1183.2)" />
<use xlink:href="#f3_2c" transform="matrix(12,0,0,12,651.7,1183.2)" />
<use xlink:href="#f3_28" transform="matrix(12,0,0,12,661.2,1183.2)" />
<use xlink:href="#f3_25" transform="matrix(12,0,0,12,666.3,1183.2)" />
<use xlink:href="#f3_2g" transform="matrix(12,0,0,12,671.6,1183.2)" />
<use xlink:href="#f3_2h" transform="matrix(12,0,0,12,677.1,1183.2)" />
<use xlink:href="#f3_20" transform="matrix(12,0,0,12,686.3,1183.2)" />
<use xlink:href="#f3_21" transform="matrix(12,0,0,12,695.4,1183.2)" />
<use xlink:href="#f3_29" transform="matrix(12,0,0,12,708.6,1183.2)" />
<use xlink:href="#f3_2b" transform="matrix(12,0,0,12,722.2,1183.2)" />
<use xlink:href="#f3_20" transform="matrix(12,0,0,12,731.7,1183.2)" />
<use xlink:href="#f3_2h" transform="matrix(12,0,0,12,740.9,1183.2)" />
<use xlink:href="#f3_28" transform="matrix(12,0,0,12,750.4,1183.2)" />
<use xlink:href="#f3_1x" transform="matrix(12,0,0,12,754.8,1183.2)" />
<use xlink:href="#f3_2g" transform="matrix(12,0,0,12,762.9,1183.2)" />
<use xlink:href="#f3_25" transform="matrix(12,0,0,12,768.7,1183.2)" />
<use xlink:href="#f3_2b" transform="matrix(12,0,0,12,773.1,1183.2)" />
<use xlink:href="#f3_2a" transform="matrix(12,0,0,12,782.6,1183.2)" />
<use xlink:href="#f3_z" transform="matrix(12,0,0,12,796.5,1183.2)" />
</g>
<image preserveAspectRatio="none" x="300" y="127" width="308" height="224" xlink:href="img/6.png" />
<image preserveAspectRatio="none" x="322" y="691" width="267" height="163" xlink:href="img/7.png" />
<path fill-rule="evenodd" d="M37.4,38.1h.7v-.7h-.7v.7Z" class="g6_31" />
<path fill-rule="evenodd" d="M37.4,38.1h.7v-.7h-.7v.7Z" class="g6_31" />
<path fill-rule="evenodd" d="M38.1,38.1H871.5v-.7H38.1v.7Z" class="g6_31" />
<path fill-rule="evenodd" d="M871.5,38.1h.8v-.7h-.8v.7Z" class="g6_31" />
<path fill-rule="evenodd" d="M871.5,38.1h.8v-.7h-.8v.7Z" class="g6_31" />
<path fill-rule="evenodd" d="M37.4,1248.5h.7V38.1h-.7V1248.5Z" class="g6_31" />
<path fill-rule="evenodd" d="M872.3,1248.5h.7V38.1h-.7V1248.5Z" class="g6_31" />
<path fill-rule="evenodd" d="M871.5,1248.5h.8V38.1h-.8V1248.5Z" class="g6_31" />
<path fill-rule="evenodd" d="M37.4,1249.2h.7v-.7h-.7v.7Z" class="g6_31" />
<path fill-rule="evenodd" d="M37.4,1249.2h.7v-.7h-.7v.7Z" class="g6_31" />
<path fill-rule="evenodd" d="M38.1,1249.9H871.5v-.7H38.1v.7Z" class="g6_31" />
<path fill-rule="evenodd" d="M38.1,1249.2H871.5v-.7H38.1v.7Z" class="g6_31" />
<path fill-rule="evenodd" d="M872.3,1249.9h.7v-1.4h-.7v1.4Z" class="g6_31" />
<path fill-rule="evenodd" d="M871.5,1249.9H873v-.7h-1.5v.7Z" class="g6_31" />
<path fill-rule="evenodd" d="M871.5,1249.2h.8v-.7h-.8v.7Z" class="g6_31" />
<path fill-rule="evenodd" d="M871.5,1249.2h.8v-.7h-.8v.7Z" class="g6_31" />
<defs>
<path d="M489,-15c0,0,-99,0,-179,30c0,0,-80,30,-136,91c0,0,-56,61,-85,152c0,0,-30,91,-30,212c0,0,0,123,32,218c0,0,33,96,92,161c0,0,59,65,142,98c0,0,82,34,181,34c0,0,40,0,78,-7c0,0,37,-7,69,-18c0,0,31,-11,57,-25c0,0,25,-14,35,-24c0,0,10,-10,14,-17c0,0,4,-7,6,-17c0,0,2,-11,3,-25c0,0,2,-14,2,-35c0,0,0,-22,-2,-38c0,0,-1,-15,-5,-25c0,0,-4,-10,-9,-14c0,0,-5,-5,-12,-5c0,0,-11,0,-28,13c0,0,-18,13,-45,29c0,0,-27,16,-65,29c0,0,-37,13,-89,13c0,0,-58,0,-103,-23c0,0,-45,-23,-77,-67c0,0,-31,-44,-48,-106c0,0,-16,-61,-16,-139c0,0,0,-85,17,-147c0,0,18,-62,50,-103c0,0,33,-40,79,-60c0,0,45,-19,103,-19c0,0,52,0,90,12c0,0,38,12,65,27c0,0,27,15,45,27c0,0,17,12,27,12c0,0,8,0,12,-3c0,0,4,-3,7,-12c0,0,3,-9,5,-25c0,0,1,-16,1,-43c0,0,0,-18,-1,-31c0,0,-1,-14,-3,-23c0,0,-2,-9,-6,-16c0,0,-4,-7,-12,-15c0,0,-8,-9,-32,-22c0,0,-23,-14,-57,-26C661,13,627,1,583,-6c0,0,-43,-9,-94,-9Z" 
id="f0_j"
transform="scale(0.001,-0.001)" />

<path d="M440,150c0,0,41,0,68,8c0,0,28,9,49,26c0,0,20,16,32,41c0,0,11,25,11,58c0,0,0,33,-11,60c0,0,-11,26,-33,44c0,0,-21,18,-55,28c0,0,-33,9,-87,9H298V150ZM407,567c0,0,42,0,68,10c0,0,25,10,42,28c0,0,16,17,24,41c0,0,9,24,9,50c0,0,0,29,-9,52c0,0,-9,23,-27,39c0,0,-18,15,-45,23c0,0,-27,8,-72,8H298V567ZM164,0c0,0,-25,0,-42,15c0,0,-16,14,-16,47V903c0,0,0,33,16,48c0,0,17,14,42,14H406c0,0,88,0,150,-15c0,0,61,-15,103,-45c0,0,42,-30,65,-77c0,0,22,-46,22,-108c0,0,0,-36,-9,-67c0,0,-9,-31,-26,-56c0,0,-17,-25,-42,-45c0,0,-25,-19,-57,-31c0,0,41,-7,76,-26c0,0,34,-19,60,-48c0,0,26,-30,41,-69c0,0,15,-40,15,-89c0,0,0,-51,-14,-93c0,0,-15,-42,-40,-74c0,0,-25,-32,-59,-55c0,0,-35,-23,-77,-38C614,29,573,14,525,7C525,7,478,0,420,0Z" 
id="f0_i"
transform="scale(0.001,-0.001)" />

<path d="M320,-17c0,0,-50,0,-93,9c0,0,-43,8,-76,19c0,0,-32,11,-54,24C97,35,75,48,65,58c0,0,-10,9,-14,28c0,0,-4,18,-4,52c0,0,0,23,1,39c0,0,2,15,5,25c0,0,4,10,9,14c0,0,6,4,13,4c0,0,11,0,30,-12c0,0,19,-13,49,-28c0,0,30,-15,71,-27c0,0,42,-12,96,-12c0,0,36,0,64,8c0,0,29,9,49,25c0,0,19,15,30,38c0,0,10,23,10,52c0,0,0,33,-18,56c0,0,-18,24,-46,42c0,0,-29,18,-66,34c0,0,-36,16,-75,34c0,0,-39,18,-76,41c0,0,-36,23,-65,54c0,0,-29,32,-47,75c0,0,-17,44,-17,104c0,0,0,70,25,122c0,0,26,53,70,88c0,0,43,34,103,51c0,0,59,18,125,18c0,0,35,0,69,-6c0,0,34,-5,64,-14c0,0,30,-9,53,-20c0,0,23,-11,31,-18c0,0,7,-8,10,-13c0,0,3,-5,4,-14c0,0,2,-8,3,-21c0,0,1,-13,1,-33c0,0,0,-21,-1,-36c0,0,-1,-15,-4,-25c0,0,-3,-9,-7,-14c0,0,-5,-4,-14,-4c0,0,-8,0,-26,10c0,0,-18,10,-44,23c0,0,-26,12,-60,22c0,0,-34,10,-75,10c0,0,-32,0,-56,-8c0,0,-24,-8,-40,-21c0,0,-16,-14,-24,-34c0,0,-8,-19,-8,-41c0,0,0,-32,18,-56c0,0,17,-23,46,-42c0,0,30,-18,67,-34c0,0,38,-16,76,-34c0,0,39,-18,76,-41c0,0,38,-22,67,-54c0,0,29,-32,47,-75c0,0,18,-43,18,-101c0,0,0,-76,-29,-133c0,0,-28,-58,-77,-96C572,60,524,21,459,2c0,0,-65,-19,-139,-19Z" 
id="f0_2n"
transform="scale(0.001,-0.001)" />

<path d="M164,0c0,0,-25,0,-42,15c0,0,-16,14,-16,47V903c0,0,0,33,16,48c0,0,17,14,42,14H645c0,0,7,0,12,-4c0,0,5,-3,9,-13c0,0,4,-9,6,-24c0,0,2,-14,2,-36c0,0,0,-21,-2,-36c0,0,-2,-14,-6,-23c0,0,-4,-9,-9,-13c0,0,-5,-4,-12,-4H301V576H593c0,0,6,0,12,-4c0,0,6,-4,9,-13c0,0,4,-8,6,-23c0,0,2,-14,2,-35c0,0,0,-22,-2,-36c0,0,-2,-14,-6,-23c0,0,-3,-8,-9,-12c0,0,-6,-4,-12,-4H301V154H649c0,0,6,0,12,-5c0,0,5,-4,9,-13c0,0,4,-9,6,-23c0,0,2,-15,2,-36c0,0,0,-22,-2,-36c0,0,-2,-15,-6,-24c0,0,-4,-9,-9,-13c0,0,-6,-4,-12,-4Z" 
id="f0_t"
transform="scale(0.001,-0.001)" />

<path d="M79,297c0,0,-19,0,-27,18c0,0,-8,17,-8,60c0,0,0,41,8,59c0,0,8,17,27,17H389c0,0,9,0,15,-4c0,0,7,-4,11,-13c0,0,5,-9,7,-23c0,0,1,-15,1,-36c0,0,0,-43,-8,-61c0,0,-8,-17,-26,-17Z" 
id="f0_oj"
transform="scale(0.001,-0.001)" />

<path d="M121,-4c0,0,-39,0,-60,2C61,-2,39,0,32,8c0,0,-8,8,-3,24c0,0,4,15,18,41L279,495L64,892c0,0,-14,26,-19,42c0,0,-5,17,4,24c0,0,9,8,32,10c0,0,23,2,65,2c0,0,35,0,56,-2c0,0,20,-1,32,-4c0,0,12,-4,17,-10c0,0,5,-6,9,-15L431,620L595,939c0,0,5,9,10,15c0,0,5,6,16,10c0,0,10,3,29,4c0,0,19,2,53,2c0,0,37,0,59,-2c0,0,22,-2,30,-10c0,0,8,-8,4,-24c0,0,-4,-16,-17,-42L564,497L793,73c0,0,14,-26,18,-41c0,0,4,-16,-5,-24c0,0,-9,-8,-32,-10c0,0,-24,-2,-65,-2c0,0,-36,0,-56,2c0,0,-20,1,-31,3c0,0,-12,4,-17,10c0,0,-5,6,-9,15L414,374L233,26c0,0,-4,-9,-9,-15c0,0,-6,-6,-17,-10c0,0,-12,-2,-32,-3c0,0,-21,-2,-54,-2Z" 
id="f0_3e"
transform="scale(0.001,-0.001)" />

<path d="M204,-4c0,0,-28,0,-47,2c0,0,-19,2,-31,5c0,0,-11,4,-16,10c0,0,-4,6,-4,13V939c0,0,0,7,4,13c0,0,5,6,17,10c0,0,11,3,30,6c0,0,19,2,47,2c0,0,29,0,48,-2c0,0,18,-3,29,-6c0,0,11,-4,16,-10c0,0,5,-6,5,-13V26c0,0,0,-7,-5,-13c0,0,-5,-6,-16,-10c0,0,-11,-3,-29,-5c0,0,-19,-2,-48,-2Z" 
id="f0_1c"
transform="scale(0.001,-0.001)" />

<path d="M127,0c0,0,-16,0,-28,3C99,3,87,6,80,15c0,0,-8,8,-11,25c0,0,-3,16,-3,42c0,0,0,25,2,42c0,0,2,18,8,32c0,0,6,14,15,27c0,0,9,13,24,29L282,390c0,0,50,53,81,95c0,0,30,43,47,79c0,0,17,35,24,65c0,0,6,30,6,57c0,0,0,24,-8,46c0,0,-8,22,-23,39c0,0,-15,16,-38,25c0,0,-23,10,-55,10c0,0,-44,0,-78,-12c0,0,-33,-11,-59,-25c0,0,-26,-13,-43,-25c0,0,-17,-12,-27,-12c0,0,-7,0,-11,5c0,0,-5,4,-8,15c0,0,-3,10,-5,28c0,0,-2,17,-2,42c0,0,0,18,1,29c0,0,1,12,4,20c0,0,2,9,6,15c0,0,3,6,13,15c0,0,9,9,34,23c0,0,25,14,61,27c0,0,37,14,81,23c0,0,44,9,92,9c0,0,75,0,131,-19c0,0,57,-19,94,-53c0,0,37,-34,55,-81c0,0,19,-47,19,-100c0,0,0,-47,-9,-93c0,0,-9,-45,-37,-98c0,0,-29,-52,-80,-116c0,0,-52,-64,-136,-148L299,159H679c0,0,8,0,14,-4c0,0,6,-5,11,-14c0,0,4,-9,7,-25c0,0,2,-15,2,-36c0,0,0,-22,-2,-37c0,0,-2,-15,-6,-25c0,0,-3,-10,-9,-14c0,0,-6,-4,-14,-4Z" 
id="f0_rz"
transform="scale(0.001,-0.001)" />

<path d="M385,138c0,0,29,0,52,9c0,0,22,10,39,28c0,0,17,19,28,47c0,0,11,29,19,66c0,0,7,37,9,84c0,0,3,47,3,104c0,0,0,69,-4,122c0,0,-4,52,-11,91c0,0,-8,39,-20,66c0,0,-12,27,-28,43c0,0,-16,16,-37,22c0,0,-21,7,-47,7c0,0,-44,0,-73,-21c0,0,-28,-21,-45,-64c0,0,-17,-42,-24,-106c0,0,-6,-63,-6,-148c0,0,0,-103,8,-171c0,0,8,-67,26,-107c0,0,17,-40,45,-56c0,0,27,-16,66,-16ZM378,-17c0,0,-99,0,-164,33c0,0,-65,34,-103,98c0,0,-38,64,-54,156c0,0,-15,92,-15,209c0,0,0,115,19,208c0,0,19,94,61,160c0,0,42,65,110,101c0,0,68,35,165,35c0,0,99,0,164,-34c0,0,65,-34,103,-98c0,0,39,-64,53,-156c0,0,15,-92,15,-209c0,0,0,-115,-18,-209c0,0,-19,-93,-61,-159C653,118,611,53,543,17c0,0,-67,-34,-165,-34Z" 
id="f0_rx"
transform="scale(0.001,-0.001)" />

<path d="M142,0c0,0,-6,0,-12,4c0,0,-5,3,-9,12c0,0,-4,9,-6,23c0,0,-3,15,-3,36c0,0,0,21,2,36c0,0,2,14,6,23c0,0,4,9,10,13c0,0,5,5,12,5H322V779L166,693c0,0,-17,-8,-28,-10c0,0,-1,0,-3,0c-4,0,-10,1,-14,5c0,0,-6,6,-8,22c0,0,-2,15,-2,44c0,0,0,18,0,29c0,0,1,12,4,20c0,0,3,8,8,14c0,0,5,5,14,11L345,962c0,0,4,3,9,5c0,0,6,2,15,3c0,0,9,1,23,2c0,0,15,0,38,0c0,0,28,0,46,-1c0,0,17,-1,26,-4c0,0,9,-3,12,-7c0,0,3,-4,3,-11V152H675c0,0,7,0,12,-5c0,0,6,-4,10,-13c0,0,4,-9,6,-23c0,0,2,-15,2,-36c0,0,0,-21,-2,-36c0,0,-3,-14,-7,-23c0,0,-4,-9,-9,-12c0,0,-5,-4,-12,-4Z" 
id="f0_ry"
transform="scale(0.001,-0.001)" />

<path d="M259,-4c0,0,-39,0,-62,3c0,0,-23,1,-34,7c0,0,-11,6,-12,14c0,0,-1,9,5,21L498,796H92c0,0,-16,0,-24,20c0,0,-7,21,-7,65c0,0,0,22,2,38c0,0,2,16,6,27c0,0,4,10,10,15c0,0,6,4,13,4H666c0,0,13,0,22,-3c0,0,9,-2,14,-11c0,0,6,-9,8,-25c0,0,3,-17,3,-43c0,0,0,-22,-2,-38c0,0,-1,-16,-4,-30c0,0,-2,-13,-7,-26c0,0,-4,-12,-10,-26L372,26c0,0,-5,-10,-12,-16c0,0,-7,-6,-20,-9c0,0,-12,-3,-32,-4c0,0,-20,-1,-49,-1Z" 
id="f0_s4"
transform="scale(0.001,-0.001)" />

<path d="M589,371L453,782h-1L317,371ZM106,-4c0,0,-35,0,-54,2C52,-2,32,0,25,8c0,0,-7,9,-5,24c0,0,2,16,11,42L329,931c0,0,4,13,10,21c0,0,6,7,19,12c0,0,13,4,36,5c0,0,23,1,61,1c0,0,44,0,71,-1c0,0,26,-1,40,-5c0,0,15,-5,21,-13c0,0,6,-8,11,-22L896,73c0,0,9,-27,11,-43c0,0,3,-15,-6,-23c0,0,-8,-7,-29,-9c0,0,-21,-2,-57,-2c0,0,-38,0,-59,1c0,0,-22,1,-33,4c0,0,-11,3,-16,9c0,0,-4,6,-7,16L635,220H272L211,31c0,0,-2,-11,-7,-18c0,0,-5,-7,-16,-11c0,0,-11,-3,-31,-4c0,0,-19,-2,-51,-2Z" 
id="f0_5"
transform="scale(0.001,-0.001)" />

<path d="M198,-4c0,0,-27,0,-45,2c0,0,-18,2,-28,5c0,0,-11,4,-15,10c0,0,-4,6,-4,13V887c0,0,0,38,20,58c0,0,20,20,53,20H308c0,0,34,0,59,-6c0,0,24,-5,42,-18c0,0,18,-13,30,-35c0,0,12,-21,21,-52L669,279h3L889,852c0,0,9,32,21,53c0,0,11,22,27,35c0,0,15,14,36,19c0,0,21,6,48,6h132c0,0,21,0,35,-5c0,0,15,-5,24,-15c0,0,9,-11,14,-25c0,0,5,-15,5,-33V26c0,0,0,-7,-4,-13c0,0,-4,-6,-15,-10c0,0,-11,-3,-29,-5c0,0,-18,-2,-45,-2c0,0,-27,0,-45,2c0,0,-18,2,-28,5c0,0,-11,4,-15,10c0,0,-5,6,-5,13V813h-1L764,27c0,0,-3,-10,-10,-16c0,0,-6,-6,-18,-10c0,0,-12,-3,-29,-4c0,0,-18,-1,-44,-1c0,0,-25,0,-43,2c0,0,-18,2,-29,5c0,0,-12,4,-19,10c0,0,-6,6,-9,14L293,813h-2V26c0,0,0,-7,-4,-13c0,0,-4,-6,-15,-10c0,0,-11,-3,-29,-5c0,0,-17,-2,-45,-2Z" 
id="f0_1x"
transform="scale(0.001,-0.001)" />

<path d="M193,-4c0,0,-26,0,-43,2c0,0,-18,2,-27,6c0,0,-10,4,-14,10c0,0,-3,6,-3,13V895c0,0,0,35,20,53c0,0,21,17,50,17H282c0,0,28,0,47,-5c0,0,20,-5,35,-16c0,0,15,-11,29,-31c0,0,13,-20,27,-49L608,511c0,0,17,-32,33,-63c0,0,16,-31,31,-62c0,0,14,-31,29,-60c0,0,14,-30,27,-60h1c0,0,-2,52,-3,109c0,0,-1,57,-1,108V936c0,0,0,7,4,13c0,0,5,6,15,11c0,0,10,4,28,6c0,0,17,2,44,2c0,0,25,0,42,-2c0,0,17,-2,27,-6c0,0,9,-5,13,-11c0,0,4,-6,4,-13V68c0,0,0,-17,-6,-30c0,0,-6,-14,-17,-23C879,15,869,6,856,2c0,0,-14,-3,-28,-3H744c0,0,-26,0,-45,4c0,0,-19,5,-35,19c0,0,-16,14,-31,38c0,0,-15,23,-34,60L359,572c0,0,-21,40,-43,86c0,0,-21,47,-38,91h-2c0,0,3,-54,5,-107c0,0,2,-53,2,-110V27c0,0,0,-7,-5,-13c0,0,-4,-6,-14,-10c0,0,-10,-4,-27,-6c0,0,-17,-2,-44,-2Z" 
id="f0_1y"
transform="scale(0.001,-0.001)" />

<path d="M378,-4c0,0,-28,0,-47,2c0,0,-19,2,-31,5c0,0,-11,4,-16,10c0,0,-4,6,-4,13V805H38c0,0,-8,0,-13,4c0,0,-5,5,-9,14c0,0,-3,9,-5,25c0,0,-2,15,-2,37c0,0,0,22,2,38c0,0,2,15,5,25c0,0,4,9,9,13c0,0,5,4,13,4H718c0,0,7,0,12,-4c0,0,6,-4,10,-13c0,0,3,-10,5,-25c0,0,2,-16,2,-38c0,0,0,-22,-2,-37c0,0,-2,-16,-5,-25c0,0,-4,-9,-10,-14c0,0,-5,-4,-12,-4H476V26c0,0,0,-7,-5,-13c0,0,-5,-6,-16,-10c0,0,-11,-3,-30,-5c0,0,-19,-2,-47,-2Z" 
id="f0_2t"
transform="scale(0.001,-0.001)" />

<path d="M514,145c0,0,72,0,121,27c0,0,48,26,78,73c0,0,30,46,42,107c0,0,13,62,13,131c0,0,0,76,-12,139c0,0,-12,62,-41,106c0,0,-29,45,-76,69c0,0,-48,24,-120,24c0,0,-72,0,-120,-27c0,0,-49,-27,-79,-73c0,0,-29,-45,-42,-106c0,0,-12,-61,-12,-129c0,0,0,-79,12,-142c0,0,12,-63,40,-108c0,0,28,-44,76,-68c0,0,48,-23,120,-23ZM508,-17c0,0,-113,0,-196,29c0,0,-84,29,-140,90c0,0,-56,60,-84,154c0,0,-28,93,-28,221c0,0,0,117,29,210c0,0,30,94,89,160c0,0,59,65,146,101c0,0,87,35,202,35c0,0,110,0,194,-29c0,0,84,-30,140,-90c0,0,56,-60,85,-153c0,0,29,-92,29,-217c0,0,0,-120,-30,-215c0,0,-30,-95,-89,-161C855,118,796,52,709,17c0,0,-87,-34,-201,-34Z" 
id="f0_24"
transform="scale(0.001,-0.001)" />

<path d="M402,179c0,0,58,0,100,45c0,0,42,45,42,107c0,0,0,65,-41,108c0,0,-41,44,-101,44c0,0,-65,0,-110,-44c0,0,-45,-45,-45,-109c0,0,0,-64,45,-107c0,0,44,-44,110,-44ZM390,-11c0,0,-150,0,-247,94c0,0,-97,96,-97,243c0,0,0,106,48,217c0,0,49,111,108,194L356,952H605L372,631c0,0,48,9,88,9c0,0,123,0,212,-91c0,0,89,-92,89,-219c0,0,0,-148,-105,-245c0,0,-105,-96,-266,-96Z" 
id="f1_q"
transform="scale(0.001,-0.001)" />

<path d="M44,-281L425,1053H537L156,-281Z" 
id="f1_j"
transform="scale(0.001,-0.001)" />

<path d="M75,0L400,413c0,0,71,91,101,149c0,0,30,58,30,109c0,0,0,55,-36,91c0,0,-36,36,-91,36c0,0,-63,0,-91,-45c0,0,-28,-46,-34,-142H67c0,0,0,173,102,268c0,0,102,95,253,95c0,0,140,0,229,-82c0,0,89,-82,89,-209c0,0,0,-125,-104,-276L580,324c0,0,-34,-50,-85,-114L468,178H740V0Z" 
id="f1_m"
transform="scale(0.001,-0.001)" />

<path d="M403,168c0,0,50,0,85,37c0,0,35,36,35,89c0,0,0,50,-35,85c0,0,-35,36,-85,36c0,0,-47,0,-81,-37c0,0,-35,-37,-35,-89c0,0,0,-47,36,-84c0,0,35,-37,80,-37Zm3,426c0,0,39,0,70,28c0,0,31,29,31,65c0,0,0,46,-28,77c0,0,-29,31,-73,31c0,0,-42,0,-71,-29c0,0,-28,-29,-28,-70c0,0,0,-44,28,-73c0,0,29,-29,71,-29Zm2,-605c0,0,-145,0,-234,75c0,0,-90,76,-90,197c0,0,0,150,140,239c0,0,-59,52,-87,101c0,0,-27,49,-27,112c0,0,0,103,77,179c0,0,77,75,216,75c0,0,136,0,217,-68c0,0,81,-68,81,-180c0,0,0,-130,-115,-217c0,0,140,-90,140,-237c0,0,0,-124,-89,-200c0,0,-88,-76,-229,-76Z" 
id="f1_s"
transform="scale(0.001,-0.001)" />

<path d="M410,-14c0,0,-86,0,-175,14C235,0,145,14,81,38V307h66L181,146c0,0,31,-37,94,-62c0,0,64,-24,132,-24c0,0,214,0,214,177c0,0,0,55,-41,93c0,0,-41,38,-128,68c0,0,-128,42,-185,68c0,0,-56,27,-95,63c0,0,-38,36,-62,87c0,0,-23,51,-23,125c0,0,0,132,90,201c0,0,90,69,263,69c0,0,125,0,278,-32V741H651L618,878c0,0,-76,56,-178,56c0,0,-92,0,-141,-34c0,0,-49,-34,-49,-104c0,0,0,-50,41,-86c0,0,41,-35,128,-63c0,0,171,-56,235,-97c0,0,64,-41,97,-103c0,0,34,-61,34,-143c0,0,0,-318,-375,-318Z" 
id="f2_1j"
transform="scale(0.001,-0.001)" />

<path d="M379,60c0,0,59,0,84,64c0,0,24,65,24,231c0,0,0,164,-24,227c0,0,-24,63,-84,63c0,0,-57,0,-80,-60c0,0,-22,-61,-22,-230c0,0,0,-173,23,-234c0,0,22,-61,79,-61Zm-2,-74c0,0,-161,0,-240,91c0,0,-79,91,-79,277c0,0,0,186,80,276c0,0,81,90,245,90c0,0,167,0,245,-93c0,0,78,-93,78,-273c0,0,0,-188,-81,-278c0,0,-81,-90,-248,-90Z" 
id="f2_2b"
transform="scale(0.001,-0.001)" />

<path d="M30,0V49l76,18V992l-72,18v50H322V67L398,49V0Z" 
id="f2_28"
transform="scale(0.001,-0.001)" />

<path d="M287,-18c0,0,-194,0,-194,206V634L23,652v49H309V217c0,0,0,-63,26,-98c0,0,27,-35,76,-35c0,0,57,0,113,25V634l-64,18v49H740V67L809,49V0H536L526,61L475,35c0,0,-104,-53,-188,-53Z" 
id="f2_2h"
transform="scale(0.001,-0.001)" />

<path d="M327,-14c0,0,-101,0,-156,45c0,0,-55,45,-55,131V624H25v48l108,29l87,159H332V701H480V624H332V176c0,0,0,-49,20,-73c0,0,20,-25,53,-25c0,0,40,0,97,12V26c0,0,-22,-15,-76,-27c0,0,-55,-13,-99,-13Z" 
id="f2_2g"
transform="scale(0.001,-0.001)" />

<path d="M34,0V49l76,18V634L38,652v49H325V67L402,49V0ZM217,831c0,0,-48,0,-81,33c0,0,-34,33,-34,82c0,0,0,48,34,81c0,0,34,33,81,33c0,0,48,0,81,-33c0,0,33,-33,33,-81c0,0,0,-47,-33,-81c0,0,-32,-34,-81,-34Z" 
id="f2_25"
transform="scale(0.001,-0.001)" />

<path d="M41,0V49l69,18V634L41,652v49H313l11,-61l50,26c0,0,105,54,188,54c0,0,194,0,194,-207V67L827,49V0H478V49l63,18V484c0,0,0,63,-27,98c0,0,-26,35,-75,35c0,0,-57,0,-114,-25V67L389,49V0Z" 
id="f2_2a"
transform="scale(0.001,-0.001)" />

<path d="M248,-20c0,0,-52,0,-87,34c0,0,-36,36,-36,88c0,0,0,52,36,88c0,0,35,36,87,36c0,0,52,0,88,-36c0,0,36,-36,36,-88c0,0,0,-51,-36,-87c0,0,-35,-35,-88,-35Zm0,488c0,0,-52,0,-87,36c0,0,-36,36,-36,88c0,0,0,52,35,88c0,0,35,36,88,36c0,0,53,0,89,-36c0,0,35,-37,35,-88c0,0,0,-51,-36,-87c0,0,-35,-37,-88,-37Z" 
id="f2_u"
transform="scale(0.001,-0.001)" />

<path d="M460,-325c0,0,-148,79,-231,172c0,0,-84,93,-123,217c0,0,-39,126,-39,304c0,0,0,178,39,303c0,0,39,125,122,217c0,0,82,93,232,172V997c0,0,-91,-52,-145,-134c0,0,-54,-81,-79,-190c0,0,-25,-109,-25,-305c0,0,0,-194,26,-309c0,0,26,-114,82,-193c0,0,56,-79,141,-128v-63Z" 
id="f3_c"
transform="scale(0.001,-0.001)" />

<path d="M284,67c0,0,51,0,88,12c0,0,37,12,74,30V358l-98,-3c0,0,-100,-4,-135,-39c0,0,-35,-35,-35,-117c0,0,0,-132,106,-132ZM233,-14c0,0,-179,0,-179,208c0,0,0,70,27,116c0,0,27,46,87,70c0,0,60,24,173,27l105,3V519c0,0,0,72,-26,107c0,0,-27,34,-82,34c0,0,-75,0,-137,-35L176,538H134V691c0,0,121,26,213,26c0,0,115,0,169,-47c0,0,54,-47,54,-144V52L657,33V0H465L451,70c0,0,-85,-84,-218,-84Z" 
id="f3_1x"
transform="scale(0.001,-0.001)" />

<path d="M49,-325v63c0,0,85,49,140,128c0,0,56,79,83,194c0,0,26,115,26,308c0,0,0,196,-25,305c0,0,-25,109,-79,190c0,0,-54,82,-145,134v63c0,0,149,-80,232,-172c0,0,83,-92,122,-217c0,0,39,-125,39,-303c0,0,0,-177,-39,-303c0,0,-39,-125,-122,-217c0,0,-83,-93,-232,-173Z" 
id="f3_d"
transform="scale(0.001,-0.001)" />

<path d="M44,0V40L172,60V941L44,960v40H471V960L316,941V65H513c0,0,159,0,234,14l46,208h48L828,0Z" 
id="f3_1c"
transform="scale(0.001,-0.001)" />

<path d="M495,413c0,0,0,133,-34,190c0,0,-34,57,-105,57c0,0,-78,0,-119,-63c0,0,-42,-62,-42,-184ZM374,-14c0,0,-163,0,-239,87c0,0,-75,88,-75,283c0,0,0,183,77,273c0,0,76,91,219,91c0,0,269,0,269,-306V353H194V340c0,0,0,-103,23,-160c0,0,22,-57,70,-87c0,0,47,-29,124,-29c0,0,40,0,96,6c0,0,55,7,91,15V43C598,43,562,20,500,3c0,0,-61,-17,-126,-17Z" 
id="f3_21"
transform="scale(0.001,-0.001)" />

<path d="M249,-14c0,0,-71,0,-107,42c0,0,-35,42,-35,119V639H15v33l93,29l76,159h47V701H391V639H231V161c0,0,0,-48,22,-73c0,0,22,-24,57,-24c0,0,44,0,106,12V26C416,26,389,8,340,-2c0,0,-49,-12,-91,-12Z" 
id="f3_2g"
transform="scale(0.001,-0.001)" />

<path d="M442,0V33l93,19V504c0,0,0,129,-124,129c0,0,-70,0,-168,-22V52L338,33V0H31V33l88,19v956L15,1026v34H243V756c0,0,0,-77,-5,-112c0,0,54,31,122,53c0,0,68,23,115,23c0,0,91,0,137,-53c0,0,47,-53,47,-154V52L744,33V0Z" 
id="f3_24"
transform="scale(0.001,-0.001)" />

<path d="M383,64c0,0,85,0,152,28V645c0,0,-67,13,-152,13c0,0,-194,0,-194,-314c0,0,0,-141,48,-211c0,0,48,-69,146,-69ZM342,-14c0,0,-287,0,-287,358c0,0,0,184,82,280c0,0,81,96,239,96c0,0,81,0,163,-18c0,0,-4,25,-4,124v182l-118,18v34H659V52L745,33V0H548l-9,52c0,0,-84,-66,-197,-66Z" 
id="f3_20"
transform="scale(0.001,-0.001)" />

<path d="M32,0V33L151,52V649L52,668v33H275V52L395,33V0ZM201,850c0,0,-32,0,-56,24c0,0,-24,24,-24,56c0,0,0,34,24,58c0,0,24,24,56,24c0,0,34,0,58,-24c0,0,24,-24,24,-58c0,0,0,-32,-24,-56c0,0,-24,-24,-58,-24Z" 
id="f3_25"
transform="scale(0.001,-0.001)" />

<path d="M278,-14c0,0,-52,0,-115,11c0,0,-63,10,-99,23V193H98L134,95c0,0,56,-50,146,-50c0,0,144,0,144,123c0,0,0,91,-114,130l-66,21c0,0,-75,25,-110,50c0,0,-34,26,-53,63c0,0,-18,36,-18,89c0,0,0,92,63,145c0,0,63,54,170,54c0,0,77,0,193,-23V544H454l-32,81c0,0,-39,35,-124,35c0,0,-61,0,-92,-30c0,0,-32,-30,-32,-80c0,0,0,-43,29,-72c0,0,28,-29,86,-48c0,0,110,-38,144,-55c0,0,33,-17,57,-42c0,0,23,-25,36,-57c0,0,13,-32,13,-79c0,0,0,-104,-66,-158c0,0,-66,-53,-195,-53Z" 
id="f3_2f"
transform="scale(0.001,-0.001)" />

<path d="M382,45c0,0,188,0,188,314c0,0,0,143,-47,213c0,0,-46,69,-141,69c0,0,-87,0,-146,-24V58c0,0,67,-13,146,-13ZM25,-325v35l88,18V649L34,668v33H231l1,-41c0,0,31,27,84,43c0,0,53,17,107,17c0,0,134,0,208,-94c0,0,73,-93,73,-267c0,0,0,-178,-80,-276c0,0,-80,-97,-232,-97c0,0,-84,0,-160,16c0,0,4,-53,4,-84V-272l123,-18v-35Z" 
id="f3_2c"
transform="scale(0.001,-0.001)" />

<path d="M31,0V33l88,19V649L31,668v33H235l7,-87c0,0,44,37,121,71c0,0,76,35,121,35h11V530H463l-43,82c0,0,-37,0,-88,-10c0,0,-52,-10,-89,-26V52L363,33V0Z" 
id="f3_2e"
transform="scale(0.001,-0.001)" />

<path d="M289,-14c0,0,-179,0,-179,205V649L20,668v33H233V200c0,0,0,-128,120,-128c0,0,92,0,173,23V649L420,668v33H649V52L738,33V0H533l-6,57C527,57,474,28,405,7c0,0,-69,-21,-116,-21Z" 
id="f3_2h"
transform="scale(0.001,-0.001)" />

<path d="M439,0V33l93,19V500c0,0,0,62,-30,97c0,0,-31,36,-94,36c0,0,-67,0,-165,-22V52L338,33V0H35V33l84,19V649L35,668v33H235l7,-57c0,0,57,33,122,54c0,0,65,22,108,22c0,0,91,0,137,-53c0,0,47,-53,47,-154V52L741,33V0Z" 
id="f3_2a"
transform="scale(0.001,-0.001)" />

<path d="M431,0V33L535,52V499c0,0,0,62,-32,96c0,0,-32,33,-95,33c0,0,-66,0,-163,-22V52L350,33V0H32V33l89,19V649L32,668v33H237l6,-57c0,0,56,32,119,54c0,0,62,22,110,22c0,0,52,0,95,-20c0,0,44,-19,66,-62c0,0,57,32,134,57c0,0,77,25,128,25c0,0,179,0,179,-207V52l90,-19V0H846V33L950,52V499c0,0,0,129,-119,129c0,0,-19,0,-45,-3c0,0,-26,-3,-52,-7c0,0,-25,-4,-49,-8c0,0,-23,-5,-39,-8c0,0,13,-41,13,-89V52L764,33V0Z" 
id="f3_29"
transform="scale(0.001,-0.001)" />

<path d="M67,0V109L206,235c0,0,133,118,196,190c0,0,63,72,90,149c0,0,27,77,27,177c0,0,0,97,-44,148c0,0,-44,50,-144,50c0,0,-39,0,-81,-10c0,0,-42,-11,-74,-29L150,787H101V980c0,0,135,32,230,32c0,0,164,0,247,-68c0,0,82,-69,82,-193c0,0,0,-84,-32,-158c0,0,-33,-75,-100,-148c0,0,-67,-74,-222,-206c0,0,-67,-57,-141,-125H680V0Z" 
id="f3_m"
transform="scale(0.001,-0.001)" />

<path d="M395,-22L175,941L80,960l7,40H455l-7,-40L322,941L484,211L885,941L771,960l9,40h300l-7,-40L975,941L433,-22Z" 
id="f4_1m"
transform="scale(0.001,-0.001)" />

<path d="M-15,0l6,40L121,60L275,941L151,960l6,40H558l-6,-40L419,941L350,549H821l68,392L765,960l6,40h401l-6,-40L1033,941L879,60L1003,40L996,0H596l6,40L735,60l74,421H338L264,60L388,40L382,0Z" 
id="f4_18"
transform="scale(0.001,-0.001)" />

<path d="M460,506c0,0,135,0,209,64c0,0,73,65,73,183c0,0,0,180,-213,180H419L343,506ZM671,0L487,438H331L264,60L398,40L390,0H-7L0,40L120,60L276,941L151,960l7,40H555c0,0,163,0,249,-62c0,0,86,-62,86,-180c0,0,0,-236,-261,-299L798,60L908,40L900,0Z" 
id="f4_1i"
transform="scale(0.001,-0.001)" />

<path d="M0,214v74H784V214ZM0,494v72H784V494Z" 
id="f5_x"
transform="scale(0.001,-0.001)" />

<path d="M134,0V40L339,60V876L137,804v39l292,166h39V60L672,40V0Z" 
id="f3_l"
transform="scale(0.001,-0.001)" />

<path d="M476,327V830h-4L114,327ZM476,0V220H30v99l488,686h86V327H740V220H604V0Z" 
id="f3_o"
transform="scale(0.001,-0.001)" />

<path d="M0,-14L351,1007h73L75,-14Z" 
id="f3_j"
transform="scale(0.001,-0.001)" />

<path d="M399,-14c0,0,-341,0,-341,370c0,0,0,175,87,269c0,0,87,95,249,95c0,0,101,0,220,-23V501H573L541,625c0,0,-62,35,-149,35c0,0,-200,0,-200,-304c0,0,0,-158,61,-225c0,0,61,-67,189,-67c0,0,109,0,189,24V43C631,43,595,16,530,1c0,0,-64,-15,-131,-15Z" 
id="f3_1z"
transform="scale(0.001,-0.001)" />

<path d="M410,45c0,0,90,0,130,58c0,0,40,59,40,193c0,0,0,122,-38,177c0,0,-38,54,-122,54c0,0,-102,0,-217,-37c0,0,0,-227,51,-336c0,0,52,-109,156,-109Zm3,-59c0,0,-169,0,-258,131c0,0,-89,131,-89,377c0,0,0,161,47,278c0,0,47,117,131,178c0,0,85,61,196,61c0,0,109,0,217,-26V813H608L582,915c0,0,-25,13,-67,23c0,0,-41,10,-75,10c0,0,-109,0,-170,-105c0,0,-60,-106,-66,-308c0,0,121,63,244,63c0,0,132,0,201,-74c0,0,69,-74,69,-214c0,0,0,-156,-78,-240c0,0,-79,-84,-227,-84Z" 
id="f3_q"
transform="scale(0.001,-0.001)" />

<path d="M199,-14c0,0,-51,0,-98,10c0,0,-47,9,-78,24L54,193h49L107,89c0,0,9,-16,40,-28c0,0,31,-11,63,-11c0,0,104,0,129,141L471,941L346,960l7,40H738l-7,-40L614,941L505,322c0,0,-60,-336,-306,-336Z" 
id="f4_1a"
transform="scale(0.001,-0.001)" />

<path d="M235,0V40L394,60V936H356c0,0,-189,0,-258,-15L78,766H28v234H908V766H857L837,921c0,0,-22,5,-98,9c0,0,-75,4,-165,4H538V60L697,40V0Z" 
id="f3_1k"
transform="scale(0.001,-0.001)" />

<path d="M327,-14L84,649L1,668v33H335V668L219,648L385,174L554,632h63L786,171L944,649L830,668v33h267V668l-78,-16L784,-14H726L553,448L382,-14Z" 
id="f3_2j"
transform="scale(0.001,-0.001)" />

<path d="M44,0V40L172,60V941L44,960v40H445V960L316,941V549H787V941L659,960v40h400V960L930,941V60L1059,40V0H659V40L787,60V481H316V60L445,40V0Z" 
id="f3_18"
transform="scale(0.001,-0.001)" />

<path d="M0,598L23,819c0,0,10,95,20,127c0,0,14,47,39,68c0,0,26,20,58,20c0,0,27,0,43,-14c0,0,15,-15,15,-39c0,0,0,-17,-7,-38c0,0,-10,-28,-55,-124L33,598Z" 
id="f5_2s"
transform="scale(0.001,-0.001)" />

<path d="M76,316v76H787V316Zm0,306v76H787V622Z" 
id="f3_x"
transform="scale(0.001,-0.001)" />

<path d="M174,197l-53,54L377,509L121,764l55,55L431,563L689,819l53,-53L486,509L742,251L689,197L431,454L174,197Z" 
id="f3_4a"
transform="scale(0.001,-0.001)" />

<path d="M370,468c0,0,96,0,194,40c0,0,0,229,-45,336c0,0,-45,107,-146,107c0,0,-187,0,-187,-259c0,0,0,-115,45,-169c0,0,45,-55,139,-55ZM312,-14c0,0,-122,0,-223,25V184h48L163,76c0,0,24,-11,65,-20c0,0,40,-9,81,-9c0,0,119,0,183,105c0,0,65,104,71,307c0,0,-113,-62,-230,-62c0,0,-132,0,-208,79c0,0,-76,78,-76,219c0,0,0,151,85,233c0,0,84,83,237,83c0,0,171,0,251,-123c0,0,79,-123,79,-385c0,0,0,-252,-102,-385C599,118,497,-14,312,-14Z" 
id="f3_t"
transform="scale(0.001,-0.001)" />

<path d="M186,-14c0,0,-95,0,-154,22V190H81L104,86c0,0,14,-17,40,-26c0,0,26,-10,57,-10c0,0,105,0,105,141V941L178,960v40H562V960L449,941V322c0,0,0,-100,-30,-175c0,0,-31,-74,-93,-118c0,0,-63,-43,-140,-43Z" 
id="f3_1a"
transform="scale(0.001,-0.001)" />

<path d="M360,-14L72,649L0,668v33H327V668L216,648L420,164L615,649L504,668v33H764V668L697,652L416,-14Z" 
id="f3_2i"
transform="scale(0.001,-0.001)" />

<path d="M377,45c0,0,99,0,147,73c0,0,47,73,47,237c0,0,0,161,-47,233c0,0,-47,72,-147,72c0,0,-97,0,-141,-69c0,0,-44,-69,-44,-236c0,0,0,-169,45,-240c0,0,44,-70,140,-70Zm0,-59c0,0,-158,0,-238,94c0,0,-81,95,-81,274c0,0,0,178,81,272c0,0,80,94,244,94c0,0,160,0,241,-92c0,0,82,-92,82,-274c0,0,0,-368,-329,-368Z" 
id="f3_2b"
transform="scale(0.001,-0.001)" />

<path d="M31,0V33L150,52v956L31,1026v34H274V52L394,33V0Z" 
id="f3_28"
transform="scale(0.001,-0.001)" />

<path d="M359,-270c0,0,124,0,192,46c0,0,67,47,67,129c0,0,0,43,-26,67c0,0,-26,24,-79,24H242c0,0,-32,-27,-51,-69c0,0,-20,-41,-20,-77c0,0,0,-64,46,-92c0,0,46,-28,142,-28Zm11,561c0,0,81,0,115,47c0,0,34,47,34,141c0,0,0,100,-35,142c0,0,-35,42,-113,42c0,0,-78,0,-114,-43c0,0,-37,-42,-37,-141c0,0,0,-98,36,-143c0,0,36,-45,114,-45ZM359,-329c0,0,-143,0,-218,44c0,0,-75,43,-75,125c0,0,0,39,27,78c0,0,26,38,98,89c0,0,-43,14,-72,48c0,0,-29,35,-29,74L208,262c0,0,-118,55,-118,217c0,0,0,115,73,178c0,0,73,63,211,63c0,0,28,0,71,-6c0,0,44,-6,67,-13l165,83l26,-32L599,644c0,0,50,-56,50,-165c0,0,0,-120,-72,-182c0,0,-73,-62,-208,-62c0,0,-62,0,-114,11L208,148c0,0,2,-13,29,-24c0,0,27,-12,67,-12H512c0,0,113,0,168,-49c0,0,55,-49,55,-134c0,0,0,-79,-44,-137c0,0,-43,-58,-128,-90c0,0,-84,-31,-204,-31Z" 
id="f3_23"
transform="scale(0.001,-0.001)" />

<path d="M376,50c0,0,103,0,149,80c0,0,46,81,46,240c0,0,0,137,-47,204c0,0,-48,67,-148,67c0,0,-44,0,-87,-7c0,0,-44,-8,-63,-17V62c0,0,63,-12,150,-12Zm3,-64c0,0,-64,0,-141,14c0,0,-78,14,-136,37v971L0,1026v34H226V809c0,0,0,-40,-4,-148c0,0,74,59,188,59c0,0,143,0,219,-87c0,0,77,-87,77,-263c0,0,0,-189,-84,-287c0,0,-84,-97,-243,-97Z" 
id="f3_1y"
transform="scale(0.001,-0.001)" />

<path d="M536,-22L130,941L17,960v40H421V960L287,941L590,205L892,941L761,960v40h325V960L976,941L574,-22Z" 
id="f3_1m"
transform="scale(0.001,-0.001)" />

<path d="M412,-328c0,0,-195,96,-303,284C109,-44,0,142,0,365c0,0,0,232,114,422c0,0,114,191,298,273v-31c0,0,-92,-51,-151,-139c0,0,-59,-88,-88,-223c0,0,-29,-136,-29,-282c0,0,0,-167,27,-301c0,0,26,-133,82,-221c0,0,55,-89,159,-159v-32Z" 
id="f5_c"
transform="scale(0.001,-0.001)" />

<path d="M34,-328v32c0,0,92,50,151,138c0,0,59,88,88,222c0,0,29,135,29,283c0,0,0,165,-27,300c0,0,-26,134,-82,222c0,0,-56,89,-159,160v31c0,0,194,-96,303,-284c0,0,108,-187,108,-410c0,0,0,-232,-114,-422c0,0,-114,-191,-297,-272Z" 
id="f5_d"
transform="scale(0.001,-0.001)" />

<path d="M110,641L64,1000H211L165,641Z" 
id="f3_b"
transform="scale(0.001,-0.001)" />

<path d="M52,62L0,114L278,390L0,667l52,52L330,442L608,719l51,-51L382,390L659,114L608,62L330,338L52,62Z" 
id="f5_3a"
transform="scale(0.001,-0.001)" />

<path d="M551,45c0,0,171,0,252,108c0,0,82,108,82,349c0,0,0,239,-81,344c0,0,-81,105,-253,105c0,0,-172,0,-252,-105c0,0,-80,-105,-80,-344c0,0,0,-241,80,-349c0,0,81,-108,252,-108Zm0,-59c0,0,-238,0,-363,129C188,115,63,245,63,501c0,0,0,510,488,510c0,0,242,0,366,-129c0,0,124,-130,124,-381c0,0,0,-255,-126,-385C915,116,790,-14,551,-14Z" 
id="f3_1f"
transform="scale(0.001,-0.001)" />

<path d="M350,-14c0,0,-142,0,-269,31L73,228h49L156,87c0,0,29,-16,82,-28c0,0,54,-12,100,-12c0,0,117,0,173,54c0,0,56,53,56,178c0,0,0,99,-52,150c0,0,-51,51,-159,56l-107,6v61l107,7c0,0,84,5,124,52c0,0,41,48,41,145c0,0,0,101,-44,147c0,0,-44,45,-139,45c0,0,-40,0,-83,-10c0,0,-43,-11,-76,-29L153,786H104V979c0,0,74,19,127,26c0,0,54,6,107,6c0,0,321,0,321,-246c0,0,0,-104,-57,-165c0,0,-57,-62,-162,-77c0,0,136,-16,200,-78c0,0,64,-62,64,-173c0,0,0,-135,-92,-211c0,0,-93,-75,-262,-75Z" 
id="f3_n"
transform="scale(0.001,-0.001)" />

<path d="M191,-20c0,0,-39,0,-65,25c0,0,-25,27,-25,64c0,0,0,38,26,64c0,0,26,26,64,26c0,0,38,0,64,-26c0,0,26,-26,26,-64c0,0,0,-37,-25,-64c0,0,-26,-25,-65,-25Z" 
id="f3_i"
transform="scale(0.001,-0.001)" />

<path d="M448,506c0,0,134,0,190,49c0,0,57,50,57,168c0,0,0,114,-56,162c0,0,-56,48,-195,48H316V506ZM777,0L496,438H316V60L468,40V0H54V40L172,60V941L44,960v40H476c0,0,188,0,277,-63c0,0,90,-64,90,-204c0,0,0,-100,-54,-173c0,0,-55,-73,-151,-101L909,60L1017,40V0Z" 
id="f3_1i"
transform="scale(0.001,-0.001)" />

<path d="M0,0V208H26c0,0,2,-45,24,-62c0,0,33,-26,101,-26H353v52c0,0,-156,46,-242,156c0,0,-85,111,-85,261c0,0,0,187,139,316c0,0,139,129,376,129c0,0,146,0,268,-54c0,0,122,-55,188,-160c0,0,66,-105,66,-231c0,0,0,-155,-91,-269c0,0,-91,-115,-238,-148l-5,-52H933c0,0,70,0,97,21c0,0,27,21,32,67h27V0H666l18,208c0,0,105,44,155,126c0,0,49,81,49,228c0,0,0,203,-98,311c0,0,-99,109,-249,109c0,0,-144,0,-244,-110C297,872,197,762,197,572c0,0,0,-149,51,-238c0,0,51,-88,154,-126L420,0Z" 
id="f5_1n"
transform="scale(0.001,-0.001)" />

<path d="M64,0V34L168,59V639H47v36l121,29v49c0,0,0,155,61,239c0,0,62,84,173,84c0,0,58,0,107,-15V908H472l-33,92c0,0,-26,16,-62,16c0,0,-47,0,-66,-42c0,0,-19,-42,-19,-157V701H478V639H292V59L443,34V0Z" 
id="f3_22"
transform="scale(0.001,-0.001)" />

<path d="M44,0V40L172,60V941L44,960v40H794V760H745L721,922c0,0,-83,11,-241,11H316V543H586l23,119h48V354H609L586,475H316V67H513c0,0,193,0,252,12l43,185h49L843,0Z" 
id="f3_15"
transform="scale(0.001,-0.001)" />

<path d="M13,0V34L95,46L325,350L122,649L40,668v33H357V668L264,648L399,446L554,649l-96,19v33H710V668L630,652L433,397L663,50L745,34V0H427V34l94,17L359,299L169,50L266,34V0Z" 
id="f3_2k"
transform="scale(0.001,-0.001)" />

<path d="M-7,0L0,40L120,60L276,941L151,960l7,40H946L903,761H854l5,161c0,0,-81,11,-240,11H419L345,516H677l44,120h45L712,328H667l-2,121H333L264,60L427,40L420,0Z" 
id="f4_16"
transform="scale(0.001,-0.001)" />

<path d="M-5,0L0,40L131,60L286,941L162,960l6,40H568l-6,-40L430,941L275,60L399,40L393,0Z" 
id="f4_19"
transform="scale(0.001,-0.001)" />

<path d="M631,416L539,902L283,416ZM576,0l8,40L691,60L643,348H249L96,60L197,40L189,0H-83l8,40L7,60l509,949H659L845,60L938,40L930,0Z" 
id="f4_11"
transform="scale(0.001,-0.001)" />

<path d="M62,0L176,649L88,668l6,33H301L278,543c0,0,55,84,124,130c0,0,69,47,138,47c0,0,37,0,59,-6L566,530H534l-28,95c0,0,-60,0,-124,-46c0,0,-63,-45,-116,-120L186,0Z" 
id="f4_2e"
transform="scale(0.001,-0.001)" />

<path d="M355,0V355H0v72H355V784h72V427H782V355H427V0Z" 
id="f5_f"
transform="scale(0.001,-0.001)" />

<path d="M681,416L504,902L333,416ZM669,0V40L803,60L704,348H310L210,60L344,40V0H15V40L128,60l341,949H611L965,60L1092,40V0Z" 
id="f3_11"
transform="scale(0.001,-0.001)" />

<path d="M420,-22L89,941L1,960v40H383V960L236,941L474,236L744,930h33L1037,236l227,705l-156,19v40h331V960l-87,-19L1025,-22H985L726,666L460,-22Z" 
id="f3_1n"
transform="scale(0.001,-0.001)" />

<path d="M477,0V33l64,19L348,354L257,254V52L331,33V0H44V33l89,19v956L29,1026v34H257V338L544,647l-73,20v34H718V667L631,650L431,446L688,50L764,33V0Z" 
id="f3_27"
transform="scale(0.001,-0.001)" />

<path d="M-17,0l8,40L120,60L276,941L151,960l7,40H909L866,761H817l4,161c0,0,-81,11,-239,11H419L349,543H619l45,119h48L657,354H609l-1,121H338L266,67H463c0,0,190,0,254,12l75,185h49L780,0Z" 
id="f4_15"
transform="scale(0.001,-0.001)" />

<path d="M0,356v74H784V356Z" 
id="f5_h"
transform="scale(0.001,-0.001)" />

<path d="M945,-20c0,0,47,75,125,153H57v74H1147l108,91c0,0,23,19,95,72c0,0,-134,103,-203,166H57v72H1070c0,0,-78,78,-125,154h85c0,0,88,-107,217,-217c0,0,130,-110,206,-154V349c0,0,-101,-58,-219,-162c0,0,-118,-103,-204,-207Z" 
id="f5_4g"
transform="scale(0.001,-0.001)" />

<path d="M377,45c0,0,100,0,147,52c0,0,47,52,47,174c0,0,0,119,-46,173c0,0,-47,54,-148,54c0,0,-98,0,-141,-51c0,0,-44,-51,-44,-176c0,0,0,-126,44,-176c0,0,44,-50,141,-50Zm2,518c0,0,84,0,123,46c0,0,39,46,39,148c0,0,0,102,-40,151c0,0,-41,48,-122,48c0,0,-79,0,-118,-47c0,0,-38,-47,-38,-152c0,0,0,-104,37,-149c0,0,38,-45,119,-45ZM377,-14c0,0,-319,0,-319,285c0,0,0,99,48,164c0,0,48,66,129,96c0,0,-65,30,-106,87c0,0,-40,56,-40,139c0,0,0,123,75,191c0,0,76,68,219,68c0,0,139,0,216,-67c0,0,76,-68,76,-192c0,0,0,-82,-40,-139c0,0,-40,-57,-108,-87c0,0,85,-31,132,-98c0,0,47,-67,47,-162c0,0,0,-142,-80,-214c0,0,-80,-71,-249,-71Z" 
id="f3_s"
transform="scale(0.001,-0.001)" />

<path d="M410,-14c0,0,-80,0,-162,14c0,0,-81,14,-144,38V270h48L178,134c0,0,28,-35,95,-62c0,0,68,-27,134,-27c0,0,104,0,163,53c0,0,58,54,58,148c0,0,0,54,-23,89c0,0,-22,35,-59,59c0,0,-37,24,-84,41c0,0,-47,17,-97,34c0,0,-49,17,-96,38c0,0,-47,21,-84,53c0,0,-37,32,-60,79c0,0,-23,48,-23,117c0,0,0,119,90,187c0,0,89,68,248,68c0,0,121,0,263,-32V771H654L628,893c0,0,-76,55,-188,55c0,0,-100,0,-156,-40c0,0,-56,-41,-56,-112c0,0,0,-49,22,-81c0,0,23,-32,60,-55c0,0,37,-22,84,-39c0,0,48,-16,97,-34c0,0,50,-17,97,-39c0,0,48,-22,85,-56c0,0,36,-34,59,-83c0,0,23,-49,23,-120c0,0,0,-145,-89,-224c0,0,-89,-79,-256,-79Z" 
id="f3_1j"
transform="scale(0.001,-0.001)" />

<path d="M122,0V64L295,82V837L123,780v64l282,165H511V82L685,64V0Z" 
id="f2_l"
transform="scale(0.001,-0.001)" />

<path d="M64,0V141c0,0,64,68,119,123c0,0,119,118,174,185c0,0,56,68,81,140c0,0,26,72,26,165c0,0,0,81,-40,131c0,0,-39,50,-105,50c0,0,-46,0,-74,-10c0,0,-27,-10,-50,-29L163,751H98V979c0,0,59,13,116,23c0,0,58,9,125,9c0,0,165,0,252,-68c0,0,88,-68,88,-193c0,0,0,-78,-26,-142c0,0,-26,-64,-83,-124c0,0,-56,-61,-224,-197c0,0,-64,-52,-139,-119H698V0Z" 
id="f2_m"
transform="scale(0.001,-0.001)" />

<path d="M191,-20c0,0,-51,0,-88,34c0,0,-36,36,-36,88c0,0,0,52,36,88c0,0,36,36,88,36c0,0,51,0,88,-36c0,0,36,-36,36,-88c0,0,0,-51,-36,-87c0,0,-36,-35,-88,-35Z" 
id="f2_i"
transform="scale(0.001,-0.001)" />

<path d="M306,-20c0,0,-39,0,-65,25c0,0,-25,27,-25,64c0,0,0,38,26,64c0,0,26,26,64,26c0,0,37,0,63,-25c0,0,26,-26,26,-65c0,0,0,-37,-25,-64c0,0,-26,-25,-64,-25ZM269,261L249,510l107,22c0,0,64,13,93,65c0,0,29,52,29,152c0,0,0,109,-39,154c0,0,-40,45,-140,45c0,0,-83,0,-145,-36L128,789H79V979c0,0,118,32,220,32c0,0,316,0,316,-253c0,0,0,-121,-60,-195c0,0,-60,-74,-175,-98l-42,-9L328,261Z" 
id="f3_z"
transform="scale(0.001,-0.001)" />

<path d="M383,64c0,0,44,0,87,7c0,0,43,7,65,17V645c0,0,-67,13,-152,13c0,0,-194,0,-194,-309c0,0,0,-143,48,-214c0,0,47,-71,146,-71Zm56,-389v35l96,18V-77c0,0,0,73,7,124c0,0,-79,-61,-200,-61c0,0,-287,0,-287,362c0,0,0,180,81,276c0,0,81,96,237,96c0,0,84,0,166,-18l67,33h53V-272l77,-18v-35Z" 
id="f3_2d"
transform="scale(0.001,-0.001)" />

<path d="M617,0L251,860V60L385,40V0H44V40L172,60V941L44,960v40H347L672,239l355,761h287V960L1185,941V60L1314,40V0H908V40l134,20V859L643,0Z" 
id="f3_1d"
transform="scale(0.001,-0.001)" />

<path d="M377,45c0,0,99,0,145,108c0,0,46,109,46,352c0,0,0,240,-45,345c0,0,-46,106,-146,106c0,0,-97,0,-139,-100c0,0,-43,-99,-43,-351c0,0,0,-254,44,-357c0,0,43,-103,138,-103Zm0,-59c0,0,-158,0,-238,132c0,0,-81,133,-81,386c0,0,0,249,81,380c0,0,80,132,244,132c0,0,159,0,241,-130c0,0,82,-130,82,-382c0,0,0,-518,-329,-518Z" 
id="f3_k"
transform="scale(0.001,-0.001)" />

<path d="M41,0V34L426,641H261c0,0,-42,0,-80,-7c0,0,-39,-7,-54,-19L104,515H69V701H586V665L201,60H407c0,0,42,0,89,10c0,0,47,10,66,25l39,147h35L617,0Z" 
id="f3_2m"
transform="scale(0.001,-0.001)" />

<path d="M148,-329c0,0,-58,0,-114,13v151H69l24,-71c0,0,23,-17,64,-17c0,0,39,0,72,22c0,0,33,23,60,67c0,0,27,44,68,157L90,649L19,668v33H344V668L233,648L423,158L606,649L497,668v33H758V668L685,652L411,-43c0,0,-48,-124,-84,-177c0,0,-36,-54,-79,-82c0,0,-44,-27,-100,-27Z" 
id="f3_2l"
transform="scale(0.001,-0.001)" />

<path d="M54,0V40L172,60V941L44,960v40H794V760H745L721,922c0,0,-83,11,-241,11H316V516H611l23,120h46V328H634L611,449H316V60L483,40V0Z" 
id="f3_16"
transform="scale(0.001,-0.001)" />


</defs>
</svg>