<?xml version="1.0" encoding="UTF-8" standalone="no"?>
<!DOCTYPE svg PUBLIC "-//W3C//DTD SVG 1.1//EN"
"http://www.w3.org/Graphics/SVG/1.1/DTD/svg11.dtd">
<svg viewBox="0 0 935 1210" version="1.1" xmlns="http://www.w3.org/2000/svg" xmlns:xlink="http://www.w3.org/1999/xlink">
<defs>
<clipPath id="c0_70"><path d="M0,1210V0H935V1210Z" /></clipPath>
<style type="text/css"><![CDATA[
.g0_70{
fill: #FFFFFF;
}
.g1_70{
}
]]></style>
</defs>
<path fill-rule="evenodd" d="M52.8,77.4H882.4V55H52.8V77.4Z" class="g0_70" />
<g clip-path="url(#c0_70)">
<g fill="#000000" >
<use xlink:href="#f0_s1" transform="matrix(12,0,0,12,55,72.4)" />
<use xlink:href="#f0_nt" transform="matrix(12,0,0,12,64.4,72.4)" />
<use xlink:href="#f0_t" transform="matrix(12,0,0,12,82.5,72.4)" />
<use xlink:href="#f0_1x" transform="matrix(12,0,0,12,91.4,72.4)" />
<use xlink:href="#f0_ci" transform="matrix(12,0,0,12,111.4,72.4)" />
<use xlink:href="#f0_77" transform="matrix(12,0,0,12,124.4,72.4)" />
<use xlink:href="#f0_ch" transform="matrix(12,0,0,12,133.2,72.4)" />
<use xlink:href="#f0_7z" transform="matrix(12,0,0,12,141.5,72.4)" />
<use xlink:href="#f0_b5" transform="matrix(12,0,0,12,150.6,72.4)" />
<use xlink:href="#f0_7z" transform="matrix(12,0,0,12,162,72.4)" />
<use xlink:href="#f0_cn" transform="matrix(12,0,0,12,171.1,72.4)" />
<use xlink:href="#f0_7z" transform="matrix(12,0,0,12,179.1,72.4)" />
<use xlink:href="#f0_b1" transform="matrix(12,0,0,12,188.2,72.4)" />
<use xlink:href="#f0_bf" transform="matrix(12,0,0,12,194.5,72.4)" />
<use xlink:href="#f0_ay" transform="matrix(12,0,0,12,204.7,72.4)" />
<use xlink:href="#f0_b1" transform="matrix(12,0,0,12,214.4,72.4)" />
<use xlink:href="#f0_7z" transform="matrix(12,0,0,12,220.8,72.4)" />
<use xlink:href="#f0_b5" transform="matrix(12,0,0,12,230,72.4)" />
<use xlink:href="#f0_b5" transform="matrix(12,0,0,12,237.1,72.4)" />
<use xlink:href="#f0_c6" transform="matrix(12,0,0,12,244.3,72.4)" />
<use xlink:href="#f0_b1" transform="matrix(12,0,0,12,254,72.4)" />
<use xlink:href="#f0_7z" transform="matrix(12,0,0,12,260.2,72.4)" />
<use xlink:href="#f0_nt" transform="matrix(12,0,0,12,269.2,72.4)" />
<use xlink:href="#f0_5" transform="matrix(12,0,0,12,278,72.4)" />
<use xlink:href="#f0_b5" transform="matrix(12,0,0,12,288.6,72.4)" />
<use xlink:href="#f0_bf" transform="matrix(12,0,0,12,300,72.4)" />
<use xlink:href="#f0_9n" transform="matrix(12,0,0,12,306,72.4)" />
<use xlink:href="#f0_7z" transform="matrix(12,0,0,12,315.7,72.4)" />
<use xlink:href="#f0_co" transform="matrix(12,0,0,12,324.8,72.4)" />
<use xlink:href="#f0_7l" transform="matrix(12,0,0,12,337.3,72.4)" />
<use xlink:href="#f0_77" transform="matrix(12,0,0,12,345,72.4)" />
<use xlink:href="#f0_b1" transform="matrix(12,0,0,12,353.8,72.4)" />
<use xlink:href="#f0_b1" transform="matrix(12,0,0,12,360.2,72.4)" />
<use xlink:href="#f0_co" transform="matrix(12,0,0,12,366.6,72.4)" />
<use xlink:href="#f0_7z" transform="matrix(12,0,0,12,379.1,72.4)" />
<use xlink:href="#f0_af" transform="matrix(12,0,0,12,388.1,72.4)" />
<use xlink:href="#f0_7z" transform="matrix(12,0,0,12,397.8,72.4)" />
<use xlink:href="#f0_b1" transform="matrix(12,0,0,12,406.9,72.4)" />
<use xlink:href="#f0_9d" transform="matrix(12,0,0,12,413.3,72.4)" />
<use xlink:href="#f0_co" transform="matrix(12,0,0,12,422,72.4)" />
<use xlink:href="#f0_77" transform="matrix(12,0,0,12,434.4,72.4)" />
<use xlink:href="#f0_af" transform="matrix(12,0,0,12,443,72.4)" />
<use xlink:href="#f0_7v" transform="matrix(12,0,0,12,452.6,72.4)" />
<use xlink:href="#f0_ae" transform="matrix(12,0,0,12,466.5,72.4)" />
<use xlink:href="#f0_am" transform="matrix(12,0,0,12,481.1,72.4)" />
<use xlink:href="#f0_ae" transform="matrix(12,0,0,12,490.8,72.4)" />
<use xlink:href="#f0_7z" transform="matrix(12,0,0,12,505.3,72.4)" />
<use xlink:href="#f0_af" transform="matrix(12,0,0,12,514.4,72.4)" />
<use xlink:href="#f0_bf" transform="matrix(12,0,0,12,524,72.4)" />
<use xlink:href="#f0_c6" transform="matrix(12,0,0,12,530.2,72.4)" />
<use xlink:href="#f0_ae" transform="matrix(12,0,0,12,539.9,72.4)" />
<use xlink:href="#f0_nq" transform="matrix(12,0,0,12,554.6,72.4)" />
<use xlink:href="#f0_bf" transform="matrix(12,0,0,12,563.2,72.4)" />
<use xlink:href="#f0_9n" transform="matrix(12,0,0,12,569.4,72.4)" />
<use xlink:href="#f0_7z" transform="matrix(12,0,0,12,578.9,72.4)" />
<use xlink:href="#f0_co" transform="matrix(12,0,0,12,588.6,72.4)" />
<use xlink:href="#f0_7z" transform="matrix(12,0,0,12,601.1,72.4)" />
<use xlink:href="#f0_cn" transform="matrix(12,0,0,12,610.2,72.4)" />
<use xlink:href="#f0_7z" transform="matrix(12,0,0,12,618.1,72.4)" />
<use xlink:href="#f0_b1" transform="matrix(12,0,0,12,627.2,72.4)" />
<use xlink:href="#f0_bf" transform="matrix(12,0,0,12,633.5,72.4)" />
<use xlink:href="#f0_ay" transform="matrix(12,0,0,12,643.8,72.4)" />
<use xlink:href="#f0_b1" transform="matrix(12,0,0,12,653.5,72.4)" />
<use xlink:href="#f0_7z" transform="matrix(12,0,0,12,659.9,72.4)" />
<use xlink:href="#f0_b5" transform="matrix(12,0,0,12,669,72.4)" />
<use xlink:href="#f0_b5" transform="matrix(12,0,0,12,676.2,72.4)" />
<use xlink:href="#f0_c6" transform="matrix(12,0,0,12,683.4,72.4)" />
<use xlink:href="#f0_b1" transform="matrix(12,0,0,12,692.9,72.4)" />
<use xlink:href="#f0_7z" transform="matrix(12,0,0,12,699.2,72.4)" />
<use xlink:href="#f0_nt" transform="matrix(12,0,0,12,708.4,72.4)" />
<use xlink:href="#f0_2t" transform="matrix(12,0,0,12,717.4,72.4)" />
<use xlink:href="#f0_9n" transform="matrix(12,0,0,12,726.2,72.4)" />
<use xlink:href="#f0_7z" transform="matrix(12,0,0,12,735.9,72.4)" />
<use xlink:href="#f0_ay" transform="matrix(12,0,0,12,749.1,72.4)" />
<use xlink:href="#f0_b1" transform="matrix(12,0,0,12,758.7,72.4)" />
<use xlink:href="#f0_7z" transform="matrix(12,0,0,12,765.1,72.4)" />
<use xlink:href="#f0_b5" transform="matrix(12,0,0,12,774.3,72.4)" />
<use xlink:href="#f0_b5" transform="matrix(12,0,0,12,781.5,72.4)" />
<use xlink:href="#f0_c6" transform="matrix(12,0,0,12,788.7,72.4)" />
<use xlink:href="#f0_b1" transform="matrix(12,0,0,12,798.1,72.4)" />
<use xlink:href="#f0_7z" transform="matrix(12,0,0,12,804.5,72.4)" />
<use xlink:href="#f0_7z" transform="matrix(12,0,0,12,817.9,72.4)" />
<use xlink:href="#f0_cn" transform="matrix(12,0,0,12,826.9,72.4)" />
<use xlink:href="#f0_7z" transform="matrix(12,0,0,12,834.8,72.4)" />
<use xlink:href="#f0_b1" transform="matrix(12,0,0,12,843.9,72.4)" />
<use xlink:href="#f0_bf" transform="matrix(12,0,0,12,850.3,72.4)" />
<use xlink:href="#f0_7z" transform="matrix(12,0,0,12,856.6,72.4)" />
<use xlink:href="#f0_7v" transform="matrix(12,0,0,12,865.7,72.4)" />
</g>
</g>
<path fill-rule="evenodd" d="M52.8,99.7H882.4V77.4H52.8V99.7Z" class="g0_70" />
<g clip-path="url(#c0_70)">
<g fill="#000000" >
<use xlink:href="#f0_7k" transform="matrix(12,0,0,12,82.5,94.8)" />
<use xlink:href="#f0_co" transform="matrix(12,0,0,12,92.2,94.8)" />
<use xlink:href="#f0_t" transform="matrix(12,0,0,12,104.6,94.8)" />
<use xlink:href="#f0_1x" transform="matrix(12,0,0,12,113.6,94.8)" />
<use xlink:href="#f0_ci" transform="matrix(12,0,0,12,133.4,94.8)" />
<use xlink:href="#f0_77" transform="matrix(12,0,0,12,146.5,94.8)" />
<use xlink:href="#f0_ch" transform="matrix(12,0,0,12,155.2,94.8)" />
<use xlink:href="#f0_7z" transform="matrix(12,0,0,12,163.5,94.8)" />
<use xlink:href="#f0_b5" transform="matrix(12,0,0,12,172.7,94.8)" />
<use xlink:href="#f0_9q" transform="matrix(12,0,0,12,184,94.8)" />
<use xlink:href="#f0_b5" transform="matrix(12,0,0,12,188.2,94.8)" />
<use xlink:href="#f0_a5" transform="matrix(12,0,0,12,199.6,94.8)" />
<use xlink:href="#f0_af" transform="matrix(12,0,0,12,207.8,94.8)" />
<use xlink:href="#f0_am" transform="matrix(12,0,0,12,217.5,94.8)" />
<use xlink:href="#f0_ci" transform="matrix(12,0,0,12,227.2,94.8)" />
<use xlink:href="#f0_af" transform="matrix(12,0,0,12,240.3,94.8)" />
<use xlink:href="#f0_77" transform="matrix(12,0,0,12,254,94.8)" />
<use xlink:href="#f0_b5" transform="matrix(12,0,0,12,262.8,94.8)" />
<use xlink:href="#f0_2j" transform="matrix(12,0,0,12,274.1,94.8)" />
<use xlink:href="#f0_77" transform="matrix(12,0,0,12,284.1,94.8)" />
<use xlink:href="#f0_7v" transform="matrix(12,0,0,12,292.9,94.8)" />
<use xlink:href="#f0_9q" transform="matrix(12,0,0,12,302.5,94.8)" />
<use xlink:href="#f0_77" transform="matrix(12,0,0,12,306.7,94.8)" />
<use xlink:href="#f0_bf" transform="matrix(12,0,0,12,315.5,94.8)" />
<use xlink:href="#f0_9q" transform="matrix(12,0,0,12,321.7,94.8)" />
<use xlink:href="#f0_am" transform="matrix(12,0,0,12,325.8,94.8)" />
<use xlink:href="#f0_af" transform="matrix(12,0,0,12,335.4,94.8)" />
<use xlink:href="#f0_ay" transform="matrix(12,0,0,12,349.3,94.8)" />
<use xlink:href="#f0_b1" transform="matrix(12,0,0,12,359,94.8)" />
<use xlink:href="#f0_7z" transform="matrix(12,0,0,12,365.4,94.8)" />
<use xlink:href="#f0_b5" transform="matrix(12,0,0,12,374.6,94.8)" />
<use xlink:href="#f0_b5" transform="matrix(12,0,0,12,381.8,94.8)" />
<use xlink:href="#f0_c6" transform="matrix(12,0,0,12,388.7,94.8)" />
<use xlink:href="#f0_b1" transform="matrix(12,0,0,12,398.4,94.8)" />
<use xlink:href="#f0_7z" transform="matrix(12,0,0,12,404.8,94.8)" />
<use xlink:href="#f0_nt" transform="matrix(12,0,0,12,414,94.8)" />
</g>
</g>
<path fill-rule="evenodd" d="M274.1,98.1H414V96.8H274.1v1.3Z" class="g1_70" />
<path fill-rule="evenodd" d="M80.3,128H876.7V105.4H80.3V128Z" class="g0_70" />
<g clip-path="url(#c0_70)">
<g fill="#000000" >
<use xlink:href="#f0_13" transform="matrix(12,0,0,12,82.5,123)" />
<use xlink:href="#f0_am" transform="matrix(12,0,0,12,90.9,123)" />
<use xlink:href="#f0_b1" transform="matrix(12,0,0,12,100.6,123)" />
<use xlink:href="#f0_7z" transform="matrix(12,0,0,12,111.2,123)" />
<use xlink:href="#f0_cn" transform="matrix(12,0,0,12,120.4,123)" />
<use xlink:href="#f0_77" transform="matrix(12,0,0,12,128.3,123)" />
<use xlink:href="#f0_ae" transform="matrix(12,0,0,12,137.1,123)" />
<use xlink:href="#f0_ay" transform="matrix(12,0,0,12,151.7,123)" />
<use xlink:href="#f0_a8" transform="matrix(12,0,0,12,161.5,123)" />
<use xlink:href="#f0_7z" transform="matrix(12,0,0,12,165.5,123)" />
<use xlink:href="#f0_ns" transform="matrix(12,0,0,12,174.6,123)" />
<use xlink:href="#f0_oj" transform="matrix(12,0,0,12,183.7,123)" />
</g>
</g>
<path fill-rule="evenodd" d="M80.3,156H871V133.7H80.3V156Z" class="g0_70" />
<g clip-path="url(#c0_70)">
<g fill="#000000" >
<use xlink:href="#f0_2t" transform="matrix(12,0,0,12,82.5,151.1)" />
<use xlink:href="#f0_9n" transform="matrix(12,0,0,12,91.4,151.1)" />
<use xlink:href="#f0_7z" transform="matrix(12,0,0,12,101.2,151.1)" />
<use xlink:href="#f0_b5" transform="matrix(12,0,0,12,114.5,151.1)" />
<use xlink:href="#f0_c6" transform="matrix(12,0,0,12,121.5,151.1)" />
<use xlink:href="#f0_af" transform="matrix(12,0,0,12,131.2,151.1)" />
<use xlink:href="#f0_a8" transform="matrix(12,0,0,12,140.9,151.1)" />
<use xlink:href="#f0_9q" transform="matrix(12,0,0,12,145.1,151.1)" />
<use xlink:href="#f0_9d" transform="matrix(12,0,0,12,149.3,151.1)" />
<use xlink:href="#f0_9n" transform="matrix(12,0,0,12,157.8,151.1)" />
<use xlink:href="#f0_bf" transform="matrix(12,0,0,12,167.5,151.1)" />
<use xlink:href="#f0_ci" transform="matrix(12,0,0,12,177.7,151.1)" />
<use xlink:href="#f0_9n" transform="matrix(12,0,0,12,190.7,151.1)" />
<use xlink:href="#f0_9q" transform="matrix(12,0,0,12,200.4,151.1)" />
<use xlink:href="#f0_7l" transform="matrix(12,0,0,12,204.7,151.1)" />
<use xlink:href="#f0_9n" transform="matrix(12,0,0,12,212.4,151.1)" />
<use xlink:href="#f0_ci" transform="matrix(12,0,0,12,226.3,151.1)" />
<use xlink:href="#f0_7z" transform="matrix(12,0,0,12,239.3,151.1)" />
<use xlink:href="#f0_9d" transform="matrix(12,0,0,12,252.6,151.1)" />
<use xlink:href="#f0_7z" transform="matrix(12,0,0,12,261.1,151.1)" />
<use xlink:href="#f0_bf" transform="matrix(12,0,0,12,270.2,151.1)" />
<use xlink:href="#f0_89" transform="matrix(12,0,0,12,280.5,151.1)" />
<use xlink:href="#f0_b1" transform="matrix(12,0,0,12,286.1,151.1)" />
<use xlink:href="#f0_am" transform="matrix(12,0,0,12,292.5,151.1)" />
<use xlink:href="#f0_ae" transform="matrix(12,0,0,12,302.3,151.1)" />
<use xlink:href="#f0_b5" transform="matrix(12,0,0,12,320.9,151.1)" />
<use xlink:href="#f0_c6" transform="matrix(12,0,0,12,328.1,151.1)" />
<use xlink:href="#f0_af" transform="matrix(12,0,0,12,337.8,151.1)" />
<use xlink:href="#f0_9q" transform="matrix(12,0,0,12,351.5,151.1)" />
<use xlink:href="#f0_b5" transform="matrix(12,0,0,12,355.7,151.1)" />
<use xlink:href="#f0_9q" transform="matrix(12,0,0,12,367.1,151.1)" />
<use xlink:href="#f0_af" transform="matrix(12,0,0,12,371.1,151.1)" />
<use xlink:href="#f0_bf" transform="matrix(12,0,0,12,385,151.1)" />
<use xlink:href="#f0_9n" transform="matrix(12,0,0,12,391.1,151.1)" />
<use xlink:href="#f0_7z" transform="matrix(12,0,0,12,400.8,151.1)" />
<use xlink:href="#f0_89" transform="matrix(12,0,0,12,413.9,151.1)" />
<use xlink:href="#f0_am" transform="matrix(12,0,0,12,419.6,151.1)" />
<use xlink:href="#f0_b1" transform="matrix(12,0,0,12,429.3,151.1)" />
<use xlink:href="#f0_ae" transform="matrix(12,0,0,12,435.6,151.1)" />
<use xlink:href="#f0_am" transform="matrix(12,0,0,12,454.4,151.1)" />
<use xlink:href="#f0_89" transform="matrix(12,0,0,12,464.1,151.1)" />
<use xlink:href="#f0_ch" transform="matrix(12,0,0,12,473.8,151.1)" />
<use xlink:href="#f0_9q" transform="matrix(12,0,0,12,482.1,151.1)" />
<use xlink:href="#f0_b5" transform="matrix(12,0,0,12,486.3,151.1)" />
<use xlink:href="#f0_9q" transform="matrix(12,0,0,12,493.5,151.1)" />
<use xlink:href="#f0_7k" transform="matrix(12,0,0,12,497.7,151.1)" />
<use xlink:href="#f0_a8" transform="matrix(12,0,0,12,507.4,151.1)" />
<use xlink:href="#f0_7z" transform="matrix(12,0,0,12,511.6,151.1)" />
<use xlink:href="#f0_a8" transform="matrix(12,0,0,12,524.8,151.1)" />
<use xlink:href="#f0_9q" transform="matrix(12,0,0,12,529,151.1)" />
<use xlink:href="#f0_9d" transform="matrix(12,0,0,12,533.2,151.1)" />
<use xlink:href="#f0_9n" transform="matrix(12,0,0,12,541.9,151.1)" />
<use xlink:href="#f0_bf" transform="matrix(12,0,0,12,551.4,151.1)" />
<use xlink:href="#f0_b1" transform="matrix(12,0,0,12,561.8,151.1)" />
<use xlink:href="#f0_77" transform="matrix(12,0,0,12,568.2,151.1)" />
<use xlink:href="#f0_co" transform="matrix(12,0,0,12,577,151.1)" />
<use xlink:href="#f0_b5" transform="matrix(12,0,0,12,585.3,151.1)" />
<use xlink:href="#f0_nt" transform="matrix(12,0,0,12,592.4,151.1)" />
<use xlink:href="#f0_2t" transform="matrix(12,0,0,12,601.8,151.1)" />
<use xlink:href="#f0_9n" transform="matrix(12,0,0,12,610.6,151.1)" />
<use xlink:href="#f0_7z" transform="matrix(12,0,0,12,620.1,151.1)" />
<use xlink:href="#f0_b5" transform="matrix(12,0,0,12,629.3,151.1)" />
<use xlink:href="#f0_7z" transform="matrix(12,0,0,12,636.4,151.1)" />
<use xlink:href="#f0_a8" transform="matrix(12,0,0,12,649.8,151.1)" />
<use xlink:href="#f0_9q" transform="matrix(12,0,0,12,654,151.1)" />
<use xlink:href="#f0_9d" transform="matrix(12,0,0,12,658.2,151.1)" />
<use xlink:href="#f0_9n" transform="matrix(12,0,0,12,666.9,151.1)" />
<use xlink:href="#f0_bf" transform="matrix(12,0,0,12,676.4,151.1)" />
<use xlink:href="#f0_b1" transform="matrix(12,0,0,12,686.8,151.1)" />
<use xlink:href="#f0_77" transform="matrix(12,0,0,12,693.2,151.1)" />
<use xlink:href="#f0_co" transform="matrix(12,0,0,12,702,151.1)" />
<use xlink:href="#f0_b5" transform="matrix(12,0,0,12,710.3,151.1)" />
<use xlink:href="#f0_77" transform="matrix(12,0,0,12,721.6,151.1)" />
<use xlink:href="#f0_b1" transform="matrix(12,0,0,12,730.3,151.1)" />
<use xlink:href="#f0_7z" transform="matrix(12,0,0,12,736.6,151.1)" />
<use xlink:href="#f0_77" transform="matrix(12,0,0,12,750,151.1)" />
<use xlink:href="#f0_a8" transform="matrix(12,0,0,12,758.8,151.1)" />
<use xlink:href="#f0_b5" transform="matrix(12,0,0,12,763,151.1)" />
<use xlink:href="#f0_am" transform="matrix(12,0,0,12,770,151.1)" />
<use xlink:href="#f0_ay" transform="matrix(12,0,0,12,783.9,151.1)" />
<use xlink:href="#f0_77" transform="matrix(12,0,0,12,793.6,151.1)" />
<use xlink:href="#f0_b1" transform="matrix(12,0,0,12,802.2,151.1)" />
<use xlink:href="#f0_bf" transform="matrix(12,0,0,12,808.6,151.1)" />
<use xlink:href="#f0_am" transform="matrix(12,0,0,12,819.1,151.1)" />
<use xlink:href="#f0_89" transform="matrix(12,0,0,12,828.6,151.1)" />
<use xlink:href="#f0_t" transform="matrix(12,0,0,12,838.5,151.1)" />
<use xlink:href="#f0_1x" transform="matrix(12,0,0,12,847.3,151.1)" />
</g>
</g>
<path fill-rule="evenodd" d="M80.3,178.4H871V156H80.3v22.4Z" class="g0_70" />
<g clip-path="url(#c0_70)">
<g fill="#000000" >
<use xlink:href="#f0_ci" transform="matrix(12,0,0,12,82.5,173.5)" />
<use xlink:href="#f0_77" transform="matrix(12,0,0,12,95.5,173.5)" />
<use xlink:href="#f0_ch" transform="matrix(12,0,0,12,104.3,173.5)" />
<use xlink:href="#f0_7z" transform="matrix(12,0,0,12,112.6,173.5)" />
<use xlink:href="#f0_b5" transform="matrix(12,0,0,12,121.7,173.5)" />
<use xlink:href="#f0_nt" transform="matrix(12,0,0,12,128.9,173.5)" />
<use xlink:href="#f0_1c" transform="matrix(12,0,0,12,137.7,173.5)" />
<use xlink:href="#f0_89" transform="matrix(12,0,0,12,142.3,173.5)" />
<use xlink:href="#f0_ci" transform="matrix(12,0,0,12,152.2,173.5)" />
<use xlink:href="#f0_7z" transform="matrix(12,0,0,12,165.2,173.5)" />
<use xlink:href="#f0_a5" transform="matrix(12,0,0,12,178.6,173.5)" />
<use xlink:href="#f0_7z" transform="matrix(12,0,0,12,186.8,173.5)" />
<use xlink:href="#f0_7z" transform="matrix(12,0,0,12,195.9,173.5)" />
<use xlink:href="#f0_ay" transform="matrix(12,0,0,12,205.1,173.5)" />
<use xlink:href="#f0_am" transform="matrix(12,0,0,12,218.9,173.5)" />
<use xlink:href="#f0_c6" transform="matrix(12,0,0,12,228.5,173.5)" />
<use xlink:href="#f0_b1" transform="matrix(12,0,0,12,238.3,173.5)" />
<use xlink:href="#f0_ay" transform="matrix(12,0,0,12,248.7,173.5)" />
<use xlink:href="#f0_77" transform="matrix(12,0,0,12,258.4,173.5)" />
<use xlink:href="#f0_a8" transform="matrix(12,0,0,12,267,173.5)" />
<use xlink:href="#f0_ae" transform="matrix(12,0,0,12,271.2,173.5)" />
<use xlink:href="#f0_9q" transform="matrix(12,0,0,12,290.1,173.5)" />
<use xlink:href="#f0_af" transform="matrix(12,0,0,12,294.3,173.5)" />
<use xlink:href="#f0_b5" transform="matrix(12,0,0,12,308.2,173.5)" />
<use xlink:href="#f0_c6" transform="matrix(12,0,0,12,315.2,173.5)" />
<use xlink:href="#f0_af" transform="matrix(12,0,0,12,324.9,173.5)" />
<use xlink:href="#f0_nq" transform="matrix(12,0,0,12,334.6,173.5)" />
<use xlink:href="#f0_77" transform="matrix(12,0,0,12,343.5,173.5)" />
<use xlink:href="#f0_89" transform="matrix(12,0,0,12,352.2,173.5)" />
<use xlink:href="#f0_bf" transform="matrix(12,0,0,12,357.8,173.5)" />
<use xlink:href="#f0_7z" transform="matrix(12,0,0,12,364,173.5)" />
<use xlink:href="#f0_b1" transform="matrix(12,0,0,12,373.1,173.5)" />
<use xlink:href="#f0_b5" transform="matrix(12,0,0,12,383.6,173.5)" />
<use xlink:href="#f0_am" transform="matrix(12,0,0,12,390.7,173.5)" />
<use xlink:href="#f0_ae" transform="matrix(12,0,0,12,400.4,173.5)" />
<use xlink:href="#f0_7z" transform="matrix(12,0,0,12,415.1,173.5)" />
<use xlink:href="#f0_bf" transform="matrix(12,0,0,12,428.3,173.5)" />
<use xlink:href="#f0_9q" transform="matrix(12,0,0,12,434.6,173.5)" />
<use xlink:href="#f0_ae" transform="matrix(12,0,0,12,438.8,173.5)" />
<use xlink:href="#f0_7z" transform="matrix(12,0,0,12,453.3,173.5)" />
<use xlink:href="#f0_nq" transform="matrix(12,0,0,12,462.4,173.5)" />
<use xlink:href="#f0_ay" transform="matrix(12,0,0,12,471.2,173.5)" />
<use xlink:href="#f0_77" transform="matrix(12,0,0,12,480.9,173.5)" />
<use xlink:href="#f0_a8" transform="matrix(12,0,0,12,489.7,173.5)" />
<use xlink:href="#f0_ae" transform="matrix(12,0,0,12,493.9,173.5)" />
<use xlink:href="#f0_7k" transform="matrix(12,0,0,12,512.6,173.5)" />
<use xlink:href="#f0_7z" transform="matrix(12,0,0,12,522.3,173.5)" />
<use xlink:href="#f0_7l" transform="matrix(12,0,0,12,531.4,173.5)" />
<use xlink:href="#f0_am" transform="matrix(12,0,0,12,539.2,173.5)" />
<use xlink:href="#f0_ae" transform="matrix(12,0,0,12,548.7,173.5)" />
<use xlink:href="#f0_7z" transform="matrix(12,0,0,12,563.3,173.5)" />
<use xlink:href="#f0_b5" transform="matrix(12,0,0,12,572.5,173.5)" />
<use xlink:href="#f0_ci" transform="matrix(12,0,0,12,583.9,173.5)" />
<use xlink:href="#f0_77" transform="matrix(12,0,0,12,596.9,173.5)" />
<use xlink:href="#f0_b1" transform="matrix(12,0,0,12,605.7,173.5)" />
<use xlink:href="#f0_ae" transform="matrix(12,0,0,12,612.1,173.5)" />
<use xlink:href="#f0_77" transform="matrix(12,0,0,12,631,173.5)" />
<use xlink:href="#f0_af" transform="matrix(12,0,0,12,639.6,173.5)" />
<use xlink:href="#f0_7v" transform="matrix(12,0,0,12,649.3,173.5)" />
<use xlink:href="#f0_b5" transform="matrix(12,0,0,12,663.2,173.5)" />
<use xlink:href="#f0_bf" transform="matrix(12,0,0,12,670.2,173.5)" />
<use xlink:href="#f0_77" transform="matrix(12,0,0,12,676.4,173.5)" />
<use xlink:href="#f0_b1" transform="matrix(12,0,0,12,685.2,173.5)" />
<use xlink:href="#f0_bf" transform="matrix(12,0,0,12,691.6,173.5)" />
<use xlink:href="#f0_b5" transform="matrix(12,0,0,12,697.8,173.5)" />
<use xlink:href="#f0_b5" transform="matrix(12,0,0,12,709,173.5)" />
<use xlink:href="#f0_ci" transform="matrix(12,0,0,12,716.1,173.5)" />
<use xlink:href="#f0_7z" transform="matrix(12,0,0,12,729.1,173.5)" />
<use xlink:href="#f0_77" transform="matrix(12,0,0,12,738.3,173.5)" />
<use xlink:href="#f0_bf" transform="matrix(12,0,0,12,747.1,173.5)" />
<use xlink:href="#f0_9q" transform="matrix(12,0,0,12,753.3,173.5)" />
<use xlink:href="#f0_af" transform="matrix(12,0,0,12,757.5,173.5)" />
<use xlink:href="#f0_9d" transform="matrix(12,0,0,12,767.2,173.5)" />
<use xlink:href="#f0_nt" transform="matrix(12,0,0,12,775.9,173.5)" />
<use xlink:href="#f0_2t" transform="matrix(12,0,0,12,784.8,173.5)" />
<use xlink:href="#f0_9n" transform="matrix(12,0,0,12,793.7,173.5)" />
<use xlink:href="#f0_9q" transform="matrix(12,0,0,12,803.5,173.5)" />
<use xlink:href="#f0_b5" transform="matrix(12,0,0,12,807.7,173.5)" />
</g>
</g>
<path fill-rule="evenodd" d="M80.3,200.8H871V178.4H80.3v22.4Z" class="g0_70" />
<g clip-path="url(#c0_70)">
<g fill="#000000" >
<use xlink:href="#f0_9n" transform="matrix(12,0,0,12,82.5,195.8)" />
<use xlink:href="#f0_77" transform="matrix(12,0,0,12,92.2,195.8)" />
<use xlink:href="#f0_ay" transform="matrix(12,0,0,12,101,195.8)" />
<use xlink:href="#f0_ay" transform="matrix(12,0,0,12,110.7,195.8)" />
<use xlink:href="#f0_7z" transform="matrix(12,0,0,12,120.2,195.8)" />
<use xlink:href="#f0_af" transform="matrix(12,0,0,12,129.4,195.8)" />
<use xlink:href="#f0_b5" transform="matrix(12,0,0,12,139.1,195.8)" />
<use xlink:href="#f0_7k" transform="matrix(12,0,0,12,150.3,195.8)" />
<use xlink:href="#f0_7z" transform="matrix(12,0,0,12,160,195.8)" />
<use xlink:href="#f0_7l" transform="matrix(12,0,0,12,169.1,195.8)" />
<use xlink:href="#f0_77" transform="matrix(12,0,0,12,176.9,195.8)" />
<use xlink:href="#f0_c6" transform="matrix(12,0,0,12,185.6,195.8)" />
<use xlink:href="#f0_b5" transform="matrix(12,0,0,12,195.3,195.8)" />
<use xlink:href="#f0_7z" transform="matrix(12,0,0,12,202.3,195.8)" />
<use xlink:href="#f0_b5" transform="matrix(12,0,0,12,215.7,195.8)" />
<use xlink:href="#f0_c6" transform="matrix(12,0,0,12,222.8,195.8)" />
<use xlink:href="#f0_af" transform="matrix(12,0,0,12,232.4,195.8)" />
<use xlink:href="#f0_a8" transform="matrix(12,0,0,12,242.1,195.8)" />
<use xlink:href="#f0_9q" transform="matrix(12,0,0,12,246.3,195.8)" />
<use xlink:href="#f0_9d" transform="matrix(12,0,0,12,250.5,195.8)" />
<use xlink:href="#f0_9n" transform="matrix(12,0,0,12,259.1,195.8)" />
<use xlink:href="#f0_bf" transform="matrix(12,0,0,12,268.6,195.8)" />
<use xlink:href="#f0_9q" transform="matrix(12,0,0,12,279.1,195.8)" />
<use xlink:href="#f0_b5" transform="matrix(12,0,0,12,283.3,195.8)" />
<use xlink:href="#f0_9d" transform="matrix(12,0,0,12,294.6,195.8)" />
<use xlink:href="#f0_7z" transform="matrix(12,0,0,12,303.3,195.8)" />
<use xlink:href="#f0_bf" transform="matrix(12,0,0,12,312.2,195.8)" />
<use xlink:href="#f0_bf" transform="matrix(12,0,0,12,318.4,195.8)" />
<use xlink:href="#f0_9q" transform="matrix(12,0,0,12,324.6,195.8)" />
<use xlink:href="#f0_af" transform="matrix(12,0,0,12,328.7,195.8)" />
<use xlink:href="#f0_9d" transform="matrix(12,0,0,12,338.4,195.8)" />
<use xlink:href="#f0_bf" transform="matrix(12,0,0,12,351,195.8)" />
<use xlink:href="#f0_b1" transform="matrix(12,0,0,12,357.2,195.8)" />
<use xlink:href="#f0_77" transform="matrix(12,0,0,12,363.6,195.8)" />
<use xlink:href="#f0_af" transform="matrix(12,0,0,12,372.4,195.8)" />
<use xlink:href="#f0_b5" transform="matrix(12,0,0,12,382.2,195.8)" />
<use xlink:href="#f0_89" transform="matrix(12,0,0,12,389.1,195.8)" />
<use xlink:href="#f0_7z" transform="matrix(12,0,0,12,394.8,195.8)" />
<use xlink:href="#f0_b1" transform="matrix(12,0,0,12,403.9,195.8)" />
<use xlink:href="#f0_b1" transform="matrix(12,0,0,12,410.4,195.8)" />
<use xlink:href="#f0_7z" transform="matrix(12,0,0,12,416.6,195.8)" />
<use xlink:href="#f0_7v" transform="matrix(12,0,0,12,425.7,195.8)" />
<use xlink:href="#f0_9q" transform="matrix(12,0,0,12,439.7,195.8)" />
<use xlink:href="#f0_af" transform="matrix(12,0,0,12,443.7,195.8)" />
<use xlink:href="#f0_bf" transform="matrix(12,0,0,12,457.4,195.8)" />
<use xlink:href="#f0_9n" transform="matrix(12,0,0,12,463.6,195.8)" />
<use xlink:href="#f0_7z" transform="matrix(12,0,0,12,473.2,195.8)" />
<use xlink:href="#f0_89" transform="matrix(12,0,0,12,486.5,195.8)" />
<use xlink:href="#f0_am" transform="matrix(12,0,0,12,492,195.8)" />
<use xlink:href="#f0_b1" transform="matrix(12,0,0,12,501.7,195.8)" />
<use xlink:href="#f0_ae" transform="matrix(12,0,0,12,508.1,195.8)" />
<use xlink:href="#f0_am" transform="matrix(12,0,0,12,526.8,195.8)" />
<use xlink:href="#f0_89" transform="matrix(12,0,0,12,536.5,195.8)" />
<use xlink:href="#f0_t" transform="matrix(12,0,0,12,546.3,195.8)" />
<use xlink:href="#f0_1x" transform="matrix(12,0,0,12,555.2,195.8)" />
<use xlink:href="#f0_ci" transform="matrix(12,0,0,12,575,195.8)" />
<use xlink:href="#f0_77" transform="matrix(12,0,0,12,588,195.8)" />
<use xlink:href="#f0_ch" transform="matrix(12,0,0,12,596.8,195.8)" />
<use xlink:href="#f0_7z" transform="matrix(12,0,0,12,605.1,195.8)" />
<use xlink:href="#f0_b5" transform="matrix(12,0,0,12,614.2,195.8)" />
<use xlink:href="#f0_77" transform="matrix(12,0,0,12,625.6,195.8)" />
<use xlink:href="#f0_af" transform="matrix(12,0,0,12,634.2,195.8)" />
<use xlink:href="#f0_7v" transform="matrix(12,0,0,12,643.9,195.8)" />
<use xlink:href="#f0_bf" transform="matrix(12,0,0,12,657.7,195.8)" />
<use xlink:href="#f0_9n" transform="matrix(12,0,0,12,663.9,195.8)" />
<use xlink:href="#f0_7z" transform="matrix(12,0,0,12,673.4,195.8)" />
<use xlink:href="#f0_b5" transform="matrix(12,0,0,12,682.5,195.8)" />
<use xlink:href="#f0_7z" transform="matrix(12,0,0,12,689.7,195.8)" />
<use xlink:href="#f0_t" transform="matrix(12,0,0,12,703.1,195.8)" />
<use xlink:href="#f0_1x" transform="matrix(12,0,0,12,711.9,195.8)" />
<use xlink:href="#f0_ci" transform="matrix(12,0,0,12,731.8,195.8)" />
<use xlink:href="#f0_77" transform="matrix(12,0,0,12,744.8,195.8)" />
<use xlink:href="#f0_ch" transform="matrix(12,0,0,12,753.6,195.8)" />
<use xlink:href="#f0_7z" transform="matrix(12,0,0,12,761.9,195.8)" />
<use xlink:href="#f0_b5" transform="matrix(12,0,0,12,771,195.8)" />
<use xlink:href="#f0_7l" transform="matrix(12,0,0,12,782.4,195.8)" />
<use xlink:href="#f0_77" transform="matrix(12,0,0,12,790.1,195.8)" />
<use xlink:href="#f0_b1" transform="matrix(12,0,0,12,798.9,195.8)" />
<use xlink:href="#f0_b1" transform="matrix(12,0,0,12,805.3,195.8)" />
<use xlink:href="#f0_co" transform="matrix(12,0,0,12,811.7,195.8)" />
</g>
</g>
<path fill-rule="evenodd" d="M80.3,228.8H871v-28H80.3v28Z" class="g0_70" />
<g clip-path="url(#c0_70)">
<g fill="#000000" >
<use xlink:href="#f0_7z" transform="matrix(12,0,0,12,82.5,218.2)" />
<use xlink:href="#f0_af" transform="matrix(12,0,0,12,91.6,218.2)" />
<use xlink:href="#f0_7z" transform="matrix(12,0,0,12,101.4,218.2)" />
<use xlink:href="#f0_b1" transform="matrix(12,0,0,12,110.5,218.2)" />
<use xlink:href="#f0_9d" transform="matrix(12,0,0,12,116.9,218.2)" />
<use xlink:href="#f0_co" transform="matrix(12,0,0,12,125.6,218.2)" />
<use xlink:href="#f0_nt" transform="matrix(12,0,0,12,133.8,218.2)" />
</g>
</g>
<path fill-rule="evenodd" d="M80.3,257.1H871V228.8H80.3v28.3Z" class="g0_70" />
<g clip-path="url(#c0_70)">
<g fill="#000000" >
<use xlink:href="#f0_2n" transform="matrix(12,0,0,12,82.5,246.2)" />
<use xlink:href="#f0_c6" transform="matrix(12,0,0,12,90.9,246.2)" />
<use xlink:href="#f0_ay" transform="matrix(12,0,0,12,100.6,246.2)" />
<use xlink:href="#f0_ay" transform="matrix(12,0,0,12,110.3,246.2)" />
<use xlink:href="#f0_am" transform="matrix(12,0,0,12,119.9,246.2)" />
<use xlink:href="#f0_b5" transform="matrix(12,0,0,12,129.5,246.2)" />
<use xlink:href="#f0_7z" transform="matrix(12,0,0,12,136.7,246.2)" />
<use xlink:href="#f0_bf" transform="matrix(12,0,0,12,149.9,246.2)" />
<use xlink:href="#f0_am" transform="matrix(12,0,0,12,156.1,246.2)" />
<use xlink:href="#f0_bf" transform="matrix(12,0,0,12,165.8,246.2)" />
<use xlink:href="#f0_77" transform="matrix(12,0,0,12,171.9,246.2)" />
<use xlink:href="#f0_a8" transform="matrix(12,0,0,12,180.7,246.2)" />
<use xlink:href="#f0_7z" transform="matrix(12,0,0,12,189.1,246.2)" />
<use xlink:href="#f0_af" transform="matrix(12,0,0,12,198.1,246.2)" />
<use xlink:href="#f0_7z" transform="matrix(12,0,0,12,207.8,246.2)" />
<use xlink:href="#f0_b1" transform="matrix(12,0,0,12,216.9,246.2)" />
<use xlink:href="#f0_9d" transform="matrix(12,0,0,12,223.4,246.2)" />
<use xlink:href="#f0_co" transform="matrix(12,0,0,12,232,246.2)" />
<use xlink:href="#f0_bf" transform="matrix(12,0,0,12,244.3,246.2)" />
<use xlink:href="#f0_b1" transform="matrix(12,0,0,12,250.5,246.2)" />
<use xlink:href="#f0_77" transform="matrix(12,0,0,12,256.9,246.2)" />
<use xlink:href="#f0_af" transform="matrix(12,0,0,12,265.5,246.2)" />
<use xlink:href="#f0_b5" transform="matrix(12,0,0,12,275.2,246.2)" />
<use xlink:href="#f0_89" transform="matrix(12,0,0,12,282.4,246.2)" />
<use xlink:href="#f0_7z" transform="matrix(12,0,0,12,288,246.2)" />
<use xlink:href="#f0_b1" transform="matrix(12,0,0,12,297.1,246.2)" />
<use xlink:href="#f0_b1" transform="matrix(12,0,0,12,303.6,246.2)" />
<use xlink:href="#f0_7z" transform="matrix(12,0,0,12,309.8,246.2)" />
<use xlink:href="#f0_7v" transform="matrix(12,0,0,12,318.9,246.2)" />
<use xlink:href="#f0_bf" transform="matrix(12,0,0,12,332.7,246.2)" />
<use xlink:href="#f0_am" transform="matrix(12,0,0,12,338.9,246.2)" />
<use xlink:href="#f0_bf" transform="matrix(12,0,0,12,352.7,246.2)" />
<use xlink:href="#f0_9n" transform="matrix(12,0,0,12,358.7,246.2)" />
<use xlink:href="#f0_7z" transform="matrix(12,0,0,12,368.4,246.2)" />
<use xlink:href="#f0_9n" transform="matrix(12,0,0,12,381.6,246.2)" />
<use xlink:href="#f0_77" transform="matrix(12,0,0,12,391.3,246.2)" />
<use xlink:href="#f0_af" transform="matrix(12,0,0,12,400.1,246.2)" />
<use xlink:href="#f0_7v" transform="matrix(12,0,0,12,409.6,246.2)" />
<use xlink:href="#f0_ua" transform="matrix(12,0,0,12,423.5,246.2)" />
<use xlink:href="#f0_t" transform="matrix(12,0,0,12,432.7,246.2)" />
<use xlink:href="#f0_nt" transform="matrix(12,0,0,12,441.7,246.2)" />
</g>
</g>
<path fill-rule="evenodd" d="M80.3,279.4H871V257.1H80.3v22.3Z" class="g0_70" />
<g clip-path="url(#c0_70)">
<g fill="#000000" >
<use xlink:href="#f0_1x" transform="matrix(12,0,0,12,82.5,274.5)" />
<use xlink:href="#f0_am" transform="matrix(12,0,0,12,98.2,274.5)" />
<use xlink:href="#f0_ae" transform="matrix(12,0,0,12,107.9,274.5)" />
<use xlink:href="#f0_7z" transform="matrix(12,0,0,12,122.6,274.5)" />
<use xlink:href="#f0_af" transform="matrix(12,0,0,12,131.6,274.5)" />
<use xlink:href="#f0_bf" transform="matrix(12,0,0,12,141.3,274.5)" />
<use xlink:href="#f0_c6" transform="matrix(12,0,0,12,147.3,274.5)" />
<use xlink:href="#f0_ae" transform="matrix(12,0,0,12,157,274.5)" />
<use xlink:href="#f0_ua" transform="matrix(12,0,0,12,175.9,274.5)" />
<use xlink:href="#f0_ov" transform="matrix(12,0,0,12,189.1,274.5)" />
<use xlink:href="#f0_t" transform="matrix(12,0,0,12,194.6,274.5)" />
<use xlink:href="#f0_od" transform="matrix(12,0,0,12,203.6,274.5)" />
<use xlink:href="#f0_7l" transform="matrix(12,0,0,12,210.7,274.5)" />
<use xlink:href="#f0_ow" transform="matrix(12,0,0,12,218.4,274.5)" />
<use xlink:href="#f0_77" transform="matrix(12,0,0,12,228.1,274.5)" />
<use xlink:href="#f0_b5" transform="matrix(12,0,0,12,236.9,274.5)" />
<use xlink:href="#f0_7l" transform="matrix(12,0,0,12,248.3,274.5)" />
<use xlink:href="#f0_9q" transform="matrix(12,0,0,12,260.2,274.5)" />
<use xlink:href="#f0_b5" transform="matrix(12,0,0,12,264.2,274.5)" />
<use xlink:href="#f0_7z" transform="matrix(12,0,0,12,275.6,274.5)" />
<use xlink:href="#f0_cn" transform="matrix(12,0,0,12,284.7,274.5)" />
<use xlink:href="#f0_bf" transform="matrix(12,0,0,12,292.6,274.5)" />
<use xlink:href="#f0_b1" transform="matrix(12,0,0,12,298.8,274.5)" />
<use xlink:href="#f0_7z" transform="matrix(12,0,0,12,305.2,274.5)" />
<use xlink:href="#f0_ae" transform="matrix(12,0,0,12,314.4,274.5)" />
<use xlink:href="#f0_7z" transform="matrix(12,0,0,12,329,274.5)" />
<use xlink:href="#f0_a8" transform="matrix(12,0,0,12,338.2,274.5)" />
<use xlink:href="#f0_co" transform="matrix(12,0,0,12,342.4,274.5)" />
<use xlink:href="#f0_9n" transform="matrix(12,0,0,12,354.7,274.5)" />
<use xlink:href="#f0_9q" transform="matrix(12,0,0,12,364.4,274.5)" />
<use xlink:href="#f0_9d" transform="matrix(12,0,0,12,368.6,274.5)" />
<use xlink:href="#f0_9n" transform="matrix(12,0,0,12,377.2,274.5)" />
<use xlink:href="#f0_nq" transform="matrix(12,0,0,12,386.8,274.5)" />
<use xlink:href="#f0_bf" transform="matrix(12,0,0,12,395.5,274.5)" />
<use xlink:href="#f0_9n" transform="matrix(12,0,0,12,401.6,274.5)" />
<use xlink:href="#f0_7z" transform="matrix(12,0,0,12,411.3,274.5)" />
<use xlink:href="#f0_b1" transform="matrix(12,0,0,12,420.4,274.5)" />
<use xlink:href="#f0_7z" transform="matrix(12,0,0,12,426.7,274.5)" />
<use xlink:href="#f0_89" transform="matrix(12,0,0,12,435.8,274.5)" />
<use xlink:href="#f0_am" transform="matrix(12,0,0,12,441.5,274.5)" />
<use xlink:href="#f0_b1" transform="matrix(12,0,0,12,451.1,274.5)" />
<use xlink:href="#f0_7z" transform="matrix(12,0,0,12,457.5,274.5)" />
<use xlink:href="#f0_ae" transform="matrix(12,0,0,12,470.8,274.5)" />
<use xlink:href="#f0_am" transform="matrix(12,0,0,12,485.9,274.5)" />
<use xlink:href="#f0_ae" transform="matrix(12,0,0,12,495.6,274.5)" />
<use xlink:href="#f0_7z" transform="matrix(12,0,0,12,510.3,274.5)" />
<use xlink:href="#f0_af" transform="matrix(12,0,0,12,519.3,274.5)" />
<use xlink:href="#f0_bf" transform="matrix(12,0,0,12,529,274.5)" />
<use xlink:href="#f0_c6" transform="matrix(12,0,0,12,535,274.5)" />
<use xlink:href="#f0_ae" transform="matrix(12,0,0,12,544.7,274.5)" />
<use xlink:href="#f0_9q" transform="matrix(12,0,0,12,563.6,274.5)" />
<use xlink:href="#f0_b5" transform="matrix(12,0,0,12,567.8,274.5)" />
<use xlink:href="#f0_ch" transform="matrix(12,0,0,12,579,274.5)" />
<use xlink:href="#f0_7z" transform="matrix(12,0,0,12,587.2,274.5)" />
<use xlink:href="#f0_b1" transform="matrix(12,0,0,12,596.4,274.5)" />
<use xlink:href="#f0_co" transform="matrix(12,0,0,12,602.8,274.5)" />
<use xlink:href="#f0_b5" transform="matrix(12,0,0,12,615.2,274.5)" />
<use xlink:href="#f0_ae" transform="matrix(12,0,0,12,622.4,274.5)" />
<use xlink:href="#f0_77" transform="matrix(12,0,0,12,636.9,274.5)" />
<use xlink:href="#f0_a8" transform="matrix(12,0,0,12,645.7,274.5)" />
<use xlink:href="#f0_a8" transform="matrix(12,0,0,12,649.9,274.5)" />
<use xlink:href="#f0_nt" transform="matrix(12,0,0,12,654.1,274.5)" />
<use xlink:href="#f0_5" transform="matrix(12,0,0,12,663,274.5)" />
<use xlink:href="#f0_b5" transform="matrix(12,0,0,12,673.7,274.5)" />
<use xlink:href="#f0_ae" transform="matrix(12,0,0,12,685,274.5)" />
<use xlink:href="#f0_am" transform="matrix(12,0,0,12,699.7,274.5)" />
<use xlink:href="#f0_ae" transform="matrix(12,0,0,12,709.4,274.5)" />
<use xlink:href="#f0_7z" transform="matrix(12,0,0,12,724,274.5)" />
<use xlink:href="#f0_af" transform="matrix(12,0,0,12,733,274.5)" />
<use xlink:href="#f0_bf" transform="matrix(12,0,0,12,742.7,274.5)" />
<use xlink:href="#f0_c6" transform="matrix(12,0,0,12,748.8,274.5)" />
<use xlink:href="#f0_ae" transform="matrix(12,0,0,12,758.5,274.5)" />
<use xlink:href="#f0_9q" transform="matrix(12,0,0,12,777.3,274.5)" />
<use xlink:href="#f0_b5" transform="matrix(12,0,0,12,781.6,274.5)" />
<use xlink:href="#f0_ch" transform="matrix(12,0,0,12,792.7,274.5)" />
<use xlink:href="#f0_7z" transform="matrix(12,0,0,12,801,274.5)" />
<use xlink:href="#f0_b1" transform="matrix(12,0,0,12,810.1,274.5)" />
<use xlink:href="#f0_co" transform="matrix(12,0,0,12,816.4,274.5)" />
<use xlink:href="#f0_a8" transform="matrix(12,0,0,12,828.8,274.5)" />
<use xlink:href="#f0_7z" transform="matrix(12,0,0,12,833,274.5)" />
<use xlink:href="#f0_b5" transform="matrix(12,0,0,12,842.2,274.5)" />
<use xlink:href="#f0_b5" transform="matrix(12,0,0,12,849.4,274.5)" />
<use xlink:href="#f0_nq" transform="matrix(12,0,0,12,856.5,274.5)" />
</g>
</g>
<path fill-rule="evenodd" d="M80.3,301.8H871V279.4H80.3v22.4Z" class="g0_70" />
<g clip-path="url(#c0_70)">
<g fill="#000000" >
<use xlink:href="#f0_ay" transform="matrix(12,0,0,12,82.5,296.8)" />
<use xlink:href="#f0_b1" transform="matrix(12,0,0,12,92.2,296.8)" />
<use xlink:href="#f0_7z" transform="matrix(12,0,0,12,98.6,296.8)" />
<use xlink:href="#f0_b5" transform="matrix(12,0,0,12,107.8,296.8)" />
<use xlink:href="#f0_b5" transform="matrix(12,0,0,12,114.9,296.8)" />
<use xlink:href="#f0_c6" transform="matrix(12,0,0,12,122.1,296.8)" />
<use xlink:href="#f0_b1" transform="matrix(12,0,0,12,131.8,296.8)" />
<use xlink:href="#f0_7z" transform="matrix(12,0,0,12,138.2,296.8)" />
<use xlink:href="#f0_7z" transform="matrix(12,0,0,12,151.4,296.8)" />
<use xlink:href="#f0_cn" transform="matrix(12,0,0,12,160.5,296.8)" />
<use xlink:href="#f0_ay" transform="matrix(12,0,0,12,168.4,296.8)" />
<use xlink:href="#f0_7z" transform="matrix(12,0,0,12,178.1,296.8)" />
<use xlink:href="#f0_b1" transform="matrix(12,0,0,12,187.1,296.8)" />
<use xlink:href="#f0_9q" transform="matrix(12,0,0,12,193.5,296.8)" />
<use xlink:href="#f0_7z" transform="matrix(12,0,0,12,197.7,296.8)" />
<use xlink:href="#f0_af" transform="matrix(12,0,0,12,206.8,296.8)" />
<use xlink:href="#f0_7l" transform="matrix(12,0,0,12,216.6,296.8)" />
<use xlink:href="#f0_7z" transform="matrix(12,0,0,12,224.3,296.8)" />
<use xlink:href="#f0_7v" transform="matrix(12,0,0,12,233.3,296.8)" />
<use xlink:href="#f0_9q" transform="matrix(12,0,0,12,247.3,296.8)" />
<use xlink:href="#f0_b5" transform="matrix(12,0,0,12,251.6,296.8)" />
<use xlink:href="#f0_77" transform="matrix(12,0,0,12,262.7,296.8)" />
<use xlink:href="#f0_a8" transform="matrix(12,0,0,12,271.5,296.8)" />
<use xlink:href="#f0_b5" transform="matrix(12,0,0,12,275.7,296.8)" />
<use xlink:href="#f0_am" transform="matrix(12,0,0,12,282.9,296.8)" />
<use xlink:href="#f0_ch" transform="matrix(12,0,0,12,296.8,296.8)" />
<use xlink:href="#f0_7z" transform="matrix(12,0,0,12,305.1,296.8)" />
<use xlink:href="#f0_b1" transform="matrix(12,0,0,12,314.2,296.8)" />
<use xlink:href="#f0_co" transform="matrix(12,0,0,12,320.6,296.8)" />
<use xlink:href="#f0_a8" transform="matrix(12,0,0,12,333.1,296.8)" />
<use xlink:href="#f0_7z" transform="matrix(12,0,0,12,337.3,296.8)" />
<use xlink:href="#f0_b5" transform="matrix(12,0,0,12,346.5,296.8)" />
<use xlink:href="#f0_b5" transform="matrix(12,0,0,12,353.7,296.8)" />
<use xlink:href="#f0_nt" transform="matrix(12,0,0,12,360.8,296.8)" />
<use xlink:href="#f0_2t" transform="matrix(12,0,0,12,369.7,296.8)" />
<use xlink:href="#f0_9n" transform="matrix(12,0,0,12,378.5,296.8)" />
<use xlink:href="#f0_9q" transform="matrix(12,0,0,12,388.2,296.8)" />
<use xlink:href="#f0_b5" transform="matrix(12,0,0,12,392.4,296.8)" />
<use xlink:href="#f0_9q" transform="matrix(12,0,0,12,403.7,296.8)" />
<use xlink:href="#f0_b5" transform="matrix(12,0,0,12,408,296.8)" />
<use xlink:href="#f0_bf" transform="matrix(12,0,0,12,419.1,296.8)" />
<use xlink:href="#f0_9n" transform="matrix(12,0,0,12,425.2,296.8)" />
<use xlink:href="#f0_7z" transform="matrix(12,0,0,12,434.9,296.8)" />
<use xlink:href="#f0_b1" transform="matrix(12,0,0,12,448.1,296.8)" />
<use xlink:href="#f0_7z" transform="matrix(12,0,0,12,454.5,296.8)" />
<use xlink:href="#f0_77" transform="matrix(12,0,0,12,463.6,296.8)" />
<use xlink:href="#f0_b5" transform="matrix(12,0,0,12,472.4,296.8)" />
<use xlink:href="#f0_am" transform="matrix(12,0,0,12,479.6,296.8)" />
<use xlink:href="#f0_af" transform="matrix(12,0,0,12,489.2,296.8)" />
<use xlink:href="#f0_7v" transform="matrix(12,0,0,12,503,296.8)" />
<use xlink:href="#f0_c6" transform="matrix(12,0,0,12,512.7,296.8)" />
<use xlink:href="#f0_7z" transform="matrix(12,0,0,12,522.3,296.8)" />
<use xlink:href="#f0_bf" transform="matrix(12,0,0,12,535.5,296.8)" />
<use xlink:href="#f0_am" transform="matrix(12,0,0,12,541.7,296.8)" />
<use xlink:href="#f0_ci" transform="matrix(12,0,0,12,555.6,296.8)" />
<use xlink:href="#f0_9n" transform="matrix(12,0,0,12,568.6,296.8)" />
<use xlink:href="#f0_9q" transform="matrix(12,0,0,12,578.3,296.8)" />
<use xlink:href="#f0_7l" transform="matrix(12,0,0,12,582.5,296.8)" />
<use xlink:href="#f0_9n" transform="matrix(12,0,0,12,590.2,296.8)" />
<use xlink:href="#f0_bf" transform="matrix(12,0,0,12,604,296.8)" />
<use xlink:href="#f0_9n" transform="matrix(12,0,0,12,610,296.8)" />
<use xlink:href="#f0_7z" transform="matrix(12,0,0,12,619.7,296.8)" />
<use xlink:href="#f0_ay" transform="matrix(12,0,0,12,632.9,296.8)" />
<use xlink:href="#f0_b1" transform="matrix(12,0,0,12,642.6,296.8)" />
<use xlink:href="#f0_7z" transform="matrix(12,0,0,12,649,296.8)" />
<use xlink:href="#f0_b5" transform="matrix(12,0,0,12,658.2,296.8)" />
<use xlink:href="#f0_b5" transform="matrix(12,0,0,12,665.3,296.8)" />
<use xlink:href="#f0_c6" transform="matrix(12,0,0,12,672.5,296.8)" />
<use xlink:href="#f0_b1" transform="matrix(12,0,0,12,682.2,296.8)" />
<use xlink:href="#f0_7z" transform="matrix(12,0,0,12,688.6,296.8)" />
<use xlink:href="#f0_7z" transform="matrix(12,0,0,12,701.8,296.8)" />
<use xlink:href="#f0_cn" transform="matrix(12,0,0,12,710.9,296.8)" />
<use xlink:href="#f0_7z" transform="matrix(12,0,0,12,718.8,296.8)" />
<use xlink:href="#f0_b1" transform="matrix(12,0,0,12,728,296.8)" />
<use xlink:href="#f0_bf" transform="matrix(12,0,0,12,734.2,296.8)" />
<use xlink:href="#f0_7z" transform="matrix(12,0,0,12,740.4,296.8)" />
<use xlink:href="#f0_7v" transform="matrix(12,0,0,12,749.6,296.8)" />
<use xlink:href="#f0_7k" transform="matrix(12,0,0,12,763.3,296.8)" />
<use xlink:href="#f0_co" transform="matrix(12,0,0,12,773,296.8)" />
<use xlink:href="#f0_bf" transform="matrix(12,0,0,12,785.3,296.8)" />
<use xlink:href="#f0_9n" transform="matrix(12,0,0,12,791.5,296.8)" />
<use xlink:href="#f0_7z" transform="matrix(12,0,0,12,801.2,296.8)" />
<use xlink:href="#f0_b5" transform="matrix(12,0,0,12,814.2,296.8)" />
<use xlink:href="#f0_c6" transform="matrix(12,0,0,12,821.4,296.8)" />
<use xlink:href="#f0_af" transform="matrix(12,0,0,12,831.1,296.8)" />
<use xlink:href="#f0_9q" transform="matrix(12,0,0,12,845,296.8)" />
<use xlink:href="#f0_b5" transform="matrix(12,0,0,12,849.2,296.8)" />
</g>
</g>
<path fill-rule="evenodd" d="M80.3,324.2H871V301.8H80.3v22.4Z" class="g0_70" />
<g clip-path="url(#c0_70)">
<g fill="#000000" >
<use xlink:href="#f0_af" transform="matrix(12,0,0,12,82.5,319.2)" />
<use xlink:href="#f0_am" transform="matrix(12,0,0,12,92.2,319.2)" />
<use xlink:href="#f0_bf" transform="matrix(12,0,0,12,101.9,319.2)" />
<use xlink:href="#f0_7z" transform="matrix(12,0,0,12,112.1,319.2)" />
<use xlink:href="#f0_cn" transform="matrix(12,0,0,12,121.3,319.2)" />
<use xlink:href="#f0_ay" transform="matrix(12,0,0,12,129.2,319.2)" />
<use xlink:href="#f0_7z" transform="matrix(12,0,0,12,138.9,319.2)" />
<use xlink:href="#f0_b1" transform="matrix(12,0,0,12,148,319.2)" />
<use xlink:href="#f0_9q" transform="matrix(12,0,0,12,154.5,319.2)" />
<use xlink:href="#f0_7z" transform="matrix(12,0,0,12,158.5,319.2)" />
<use xlink:href="#f0_af" transform="matrix(12,0,0,12,167.6,319.2)" />
<use xlink:href="#f0_7l" transform="matrix(12,0,0,12,177.4,319.2)" />
<use xlink:href="#f0_7z" transform="matrix(12,0,0,12,185.1,319.2)" />
<use xlink:href="#f0_7v" transform="matrix(12,0,0,12,194.1,319.2)" />
<use xlink:href="#f0_7k" transform="matrix(12,0,0,12,208,319.2)" />
<use xlink:href="#f0_co" transform="matrix(12,0,0,12,217.7,319.2)" />
<use xlink:href="#f0_bf" transform="matrix(12,0,0,12,229.9,319.2)" />
<use xlink:href="#f0_9n" transform="matrix(12,0,0,12,236.2,319.2)" />
<use xlink:href="#f0_7z" transform="matrix(12,0,0,12,245.7,319.2)" />
<use xlink:href="#f0_9n" transform="matrix(12,0,0,12,258.9,319.2)" />
<use xlink:href="#f0_77" transform="matrix(12,0,0,12,268.4,319.2)" />
<use xlink:href="#f0_af" transform="matrix(12,0,0,12,277.2,319.2)" />
<use xlink:href="#f0_7v" transform="matrix(12,0,0,12,286.9,319.2)" />
<use xlink:href="#f0_nt" transform="matrix(12,0,0,12,296.6,319.2)" />
</g>
</g>
<g fill="#000000" >
<use xlink:href="#f1_l" transform="matrix(8,0,0,8,811.4,1187.9)" />
<use xlink:href="#f1_l" transform="matrix(8,0,0,8,818.2,1187.9)" />
</g>
<defs>
<path d="M469,327V857h-2L153,327ZM530,-4c0,0,-18,0,-30,2c0,0,-12,1,-19,3c0,0,-7,3,-9,7c0,0,-3,4,-3,10V221H71c0,0,-9,0,-15,2c0,0,-6,2,-11,8c0,0,-5,6,-7,17c0,0,-2,12,-2,30c0,0,0,14,1,25c0,0,1,11,3,20c0,0,2,10,6,18c0,0,4,9,9,18L403,947c0,0,3,6,10,10c0,0,7,5,19,8c0,0,11,3,27,4c0,0,17,1,39,1c0,0,25,0,43,-2c0,0,18,-2,29,-5c0,0,12,-3,18,-8c0,0,6,-4,6,-11V327H702c0,0,13,0,21,-13c0,0,8,-13,8,-40c0,0,0,-25,-8,-39c0,0,-7,-14,-21,-14H594V18c0,0,0,-6,-3,-10c0,0,-3,-4,-11,-7c0,0,-7,-2,-19,-3c0,0,-12,-2,-31,-2Z" 
id="f0_s1"
transform="scale(0.001,-0.001)" />

<path d="M192,-6c0,0,-45,0,-62,16c0,0,-18,18,-18,69c0,0,0,53,18,71c0,0,18,17,64,17c0,0,45,0,62,-17c0,0,17,-17,17,-69c0,0,0,-53,-18,-70c0,0,-17,-17,-63,-17Z" 
id="f0_nt"
transform="scale(0.001,-0.001)" />

<path d="M176,0c0,0,-17,0,-33,12c0,0,-15,11,-15,40V913c0,0,0,29,15,41c0,0,16,11,33,11H635c0,0,6,0,10,-3c0,0,5,-3,8,-10c0,0,3,-6,5,-16c0,0,2,-10,2,-25c0,0,0,-14,-2,-24c0,0,-2,-10,-5,-16c0,0,-3,-7,-8,-10c0,0,-4,-2,-10,-2H256V555H581c0,0,6,0,11,-3c0,0,5,-3,8,-9c0,0,3,-6,5,-17c0,0,1,-10,1,-24c0,0,0,-14,-1,-23c0,0,-2,-10,-5,-16c0,0,-3,-6,-8,-9c0,0,-5,-2,-11,-2H256V107H640c0,0,6,0,11,-3c0,0,4,-3,8,-10c0,0,4,-6,5,-16c0,0,2,-10,2,-25c0,0,0,-14,-2,-24c0,0,-1,-10,-5,-16c0,0,-4,-7,-8,-10c0,0,-5,-3,-11,-3Z" 
id="f0_t"
transform="scale(0.001,-0.001)" />

<path d="M189,-4c0,0,-18,0,-30,2c0,0,-12,2,-19,3c0,0,-7,3,-9,8c0,0,-3,4,-3,10V907c0,0,0,31,16,45c0,0,17,13,37,13h78c0,0,24,0,41,-4c0,0,18,-5,32,-15c0,0,13,-9,22,-24c0,0,9,-15,16,-35L649,188h4L944,884c0,0,8,23,18,39c0,0,9,15,21,25c0,0,11,9,26,13c0,0,14,4,32,4h82c0,0,11,0,21,-3c0,0,10,-4,17,-11c0,0,7,-7,12,-18c0,0,4,-10,4,-26V19c0,0,0,-6,-3,-10c0,0,-3,-5,-10,-8c0,0,-8,-1,-19,-3c0,0,-12,-2,-30,-2c0,0,-18,0,-30,2c0,0,-12,2,-19,3c0,0,-7,3,-10,8c0,0,-3,4,-3,10V860h-2L707,15c0,0,-2,-5,-6,-9c0,0,-4,-3,-12,-6c0,0,-8,-2,-18,-3c0,0,-11,-1,-26,-1c0,0,-16,0,-27,2c0,0,-11,1,-19,3c0,0,-7,2,-11,6c0,0,-4,4,-6,8L253,860V19c0,0,0,-6,-3,-10c0,0,-3,-5,-11,-8c0,0,-7,-1,-19,-3c0,0,-12,-2,-31,-2Z" 
id="f0_1x"
transform="scale(0.001,-0.001)" />

<path d="M324,-4c0,0,-23,0,-37,2c0,0,-15,1,-24,3c0,0,-9,3,-14,8c0,0,-4,6,-7,13L46,660c0,0,-4,11,-5,18c0,0,-2,8,-2,13c0,0,0,7,3,11c0,0,3,4,10,7c0,0,8,2,19,3c0,0,12,1,30,1c0,0,20,0,33,-1c0,0,13,-1,20,-4c0,0,6,-3,9,-8c0,0,3,-4,5,-11L330,136l2,-7l1,7L482,689c0,0,1,7,5,11c0,0,3,5,10,8c0,0,6,3,18,4c0,0,12,1,31,1c0,0,18,0,29,-1c0,0,12,-1,18,-4c0,0,7,-3,10,-7c0,0,3,-5,5,-11L768,136l1,-7l1,7L930,689c0,0,1,7,5,11c0,0,3,5,10,8c0,0,7,3,20,4c0,0,12,1,31,1c0,0,18,0,29,-1c0,0,11,-1,17,-4c0,0,6,-3,9,-6c0,0,3,-4,3,-11c0,0,0,-5,-2,-13c0,0,-1,-7,-5,-18L849,22c0,0,-2,-8,-7,-13c0,0,-5,-6,-13,-9c0,0,-9,-2,-24,-3c0,0,-15,-1,-37,-1c0,0,-23,0,-39,2c0,0,-15,1,-25,3c0,0,-9,3,-14,8c0,0,-4,6,-6,13L543,510l-2,6l-2,-6L409,22c0,0,-3,-8,-7,-13c0,0,-5,-6,-15,-9c0,0,-10,-2,-25,-3c0,0,-15,-1,-38,-1Z" 
id="f0_ci"
transform="scale(0.001,-0.001)" />

<path d="M321,82c0,0,48,0,90,25c0,0,41,24,87,75V325H392c0,0,-50,0,-88,-9c0,0,-37,-9,-62,-25c0,0,-24,-17,-36,-41c0,0,-11,-23,-11,-54c0,0,0,-52,33,-83c0,0,33,-31,93,-31ZM301,-13c0,0,-53,0,-96,13c0,0,-43,14,-73,40c0,0,-30,26,-47,64c0,0,-17,38,-17,87c0,0,0,56,24,98c0,0,23,42,66,69c0,0,43,28,106,42c0,0,63,14,141,14h93v52c0,0,0,39,-9,69c0,0,-8,30,-26,50c0,0,-18,20,-47,30c0,0,-30,10,-72,10c0,0,-46,0,-82,-11c0,0,-36,-11,-63,-24c0,0,-27,-13,-46,-24c0,0,-18,-11,-27,-11c0,0,-6,0,-10,3c0,0,-5,3,-8,9c0,0,-3,6,-5,16c0,0,-1,9,-1,20c0,0,0,19,2,30c0,0,3,11,13,20c0,0,10,10,35,23c0,0,24,13,56,24c0,0,32,10,70,17c0,0,38,8,77,8c0,0,73,0,123,-17c0,0,51,-16,82,-48c0,0,32,-32,46,-79c0,0,14,-47,14,-110V18c0,0,0,-9,-6,-14c0,0,-6,-4,-16,-6c0,0,-11,-2,-31,-2c0,0,-19,0,-31,2c0,0,-12,2,-17,6c0,0,-5,5,-5,13V85c0,0,-44,-47,-98,-73c0,0,-54,-25,-115,-25Z" 
id="f0_77"
transform="scale(0.001,-0.001)" />

<path d="M346,-4c0,0,-23,0,-38,2c0,0,-15,1,-24,3c0,0,-9,3,-15,8c0,0,-5,6,-8,13L33,660c0,0,-3,9,-5,15c0,0,-2,7,-2,11c0,0,0,3,0,5c0,0,0,6,3,11c0,0,3,4,10,7c0,0,7,2,18,3c0,0,12,1,29,1c0,0,22,0,35,-1c0,0,13,-1,20,-4c0,0,7,-3,10,-8c0,0,4,-4,7,-11L347,135l3,-9l2,9L540,689c0,0,1,7,5,11c0,0,3,5,11,8c0,0,7,3,19,4c0,0,12,1,32,1c0,0,18,0,29,-1c0,0,11,-1,17,-4c0,0,7,-3,9,-7c0,0,3,-4,3,-10c0,0,0,-3,-1,-6c0,0,0,-4,-1,-7c0,0,0,-4,-2,-8c0,0,-1,-5,-2,-10L430,22c0,0,-3,-8,-8,-13c0,0,-5,-6,-15,-9c0,0,-9,-2,-24,-3c0,0,-15,-1,-37,-1Z" 
id="f0_ch"
transform="scale(0.001,-0.001)" />

<path d="M564,420c0,0,2,98,-43,153c0,0,-46,56,-134,56c0,0,-46,0,-80,-18c0,0,-35,-17,-58,-45c0,0,-23,-29,-36,-67c0,0,-12,-37,-14,-79ZM405,-13c0,0,-83,0,-145,22c0,0,-62,24,-105,69c0,0,-42,46,-64,114c0,0,-22,69,-22,160c0,0,0,87,23,156c0,0,22,69,64,117c0,0,43,48,102,74c0,0,60,26,134,26c0,0,79,0,135,-26c0,0,55,-25,91,-68c0,0,36,-43,53,-101c0,0,16,-58,16,-123V384c0,0,0,-29,-14,-41c0,0,-15,-13,-33,-13H199c0,0,0,-56,11,-100c0,0,12,-45,38,-77c0,0,26,-33,68,-50c0,0,41,-17,102,-17c0,0,48,0,85,8c0,0,37,8,65,17c0,0,27,10,44,18c0,0,18,8,27,8c0,0,5,0,9,-3c0,0,4,-2,7,-8c0,0,2,-5,3,-14c0,0,1,-9,1,-23c0,0,0,-9,-1,-16c0,0,0,-8,-2,-13c0,0,-1,-6,-3,-10c0,0,-3,-5,-7,-9c0,0,-4,-4,-24,-13c0,0,-20,-10,-53,-18c0,0,-32,-9,-74,-16c0,0,-42,-7,-90,-7Z" 
id="f0_7z"
transform="scale(0.001,-0.001)" />

<path d="M272,-13c0,0,-35,0,-68,6c0,0,-32,6,-58,13c0,0,-26,9,-44,18c0,0,-17,10,-26,17c0,0,-8,8,-12,21c0,0,-3,14,-3,37c0,0,0,14,1,24c0,0,2,9,4,15c0,0,2,6,6,9c0,0,4,3,10,3c0,0,8,0,24,-11c0,0,16,-10,39,-22c0,0,24,-12,56,-22c0,0,32,-10,74,-10c0,0,31,0,56,7c0,0,26,6,44,19c0,0,19,14,29,34c0,0,10,20,10,47c0,0,0,29,-14,48c0,0,-15,19,-39,34c0,0,-24,15,-53,27c0,0,-30,11,-62,24c0,0,-32,13,-62,29c0,0,-30,16,-54,39c0,0,-24,23,-38,55c0,0,-15,32,-15,77c0,0,0,40,16,76c0,0,15,36,45,63c0,0,31,28,77,44c0,0,46,17,107,17c0,0,27,0,54,-5c0,0,26,-5,48,-11c0,0,22,-7,37,-15c0,0,15,-8,23,-14c0,0,8,-6,11,-11c0,0,2,-4,3,-10c0,0,1,-5,2,-14c0,0,2,-8,2,-20c0,0,0,-12,-2,-22c0,0,-1,-9,-3,-15c0,0,-3,-6,-7,-8c0,0,-3,-3,-8,-3c0,0,-7,0,-19,8c0,0,-13,8,-33,18c0,0,-20,9,-47,17c0,0,-28,9,-63,9c0,0,-31,0,-55,-7c0,0,-24,-7,-39,-20c0,0,-15,-13,-23,-31c0,0,-8,-18,-8,-39c0,0,0,-29,15,-49c0,0,15,-20,39,-35c0,0,24,-15,54,-27c0,0,31,-11,62,-24c0,0,32,-13,63,-29c0,0,31,-15,55,-38c0,0,24,-22,38,-53c0,0,15,-32,15,-75c0,0,0,-51,-19,-92c0,0,-19,-40,-54,-68C463,42,428,15,379,1c0,0,-48,-14,-107,-14Z" 
id="f0_b5"
transform="scale(0.001,-0.001)" />

<path d="M92,-4c0,0,-22,0,-35,2C57,-2,43,0,37,3c0,0,-7,5,-6,12c0,0,0,7,7,17L247,360L49,675c0,0,-6,11,-6,18c0,0,-1,7,6,12c0,0,7,5,22,6c0,0,14,2,38,2c0,0,22,0,35,-1c0,0,13,-1,20,-4c0,0,8,-2,12,-6c0,0,3,-3,6,-9L335,443L490,693c0,0,3,5,7,9c0,0,4,3,10,6c0,0,7,3,18,4c0,0,12,1,32,1c0,0,21,0,35,-2c0,0,14,-1,21,-5c0,0,7,-4,6,-12c0,0,-1,-7,-8,-19L415,364L622,32c0,0,6,-10,6,-17c0,0,0,-7,-7,-12c0,0,-7,-3,-21,-5c0,0,-15,-2,-38,-2c0,0,-22,0,-35,1c0,0,-13,1,-21,3c0,0,-8,3,-12,7c0,0,-4,4,-7,9L326,282L165,16c0,0,-3,-5,-7,-9c0,0,-4,-4,-12,-7c0,0,-8,-2,-20,-3c0,0,-13,-1,-34,-1Z" 
id="f0_cn"
transform="scale(0.001,-0.001)" />

<path d="M176,-4c0,0,-18,0,-30,2c0,0,-12,1,-19,3c0,0,-7,3,-10,7c0,0,-3,4,-3,10V690c0,0,0,6,3,10c0,0,2,4,9,7c0,0,6,4,17,5c0,0,10,1,27,1c0,0,17,0,28,-1c0,0,10,-1,16,-5c0,0,6,-3,9,-7c0,0,3,-4,3,-10V592c0,0,27,41,51,66c0,0,25,26,46,41c0,0,22,14,43,20c0,0,21,6,43,6c0,0,10,0,22,-2c0,0,12,-1,26,-4c0,0,13,-3,24,-6c0,0,11,-4,15,-8c0,0,5,-4,6,-7c0,0,2,-3,3,-9c0,0,1,-5,1,-15c0,0,0,-10,0,-27c0,0,0,-16,0,-28c0,0,-1,-11,-3,-17c0,0,-2,-6,-6,-10c0,0,-3,-3,-9,-3c0,0,-6,0,-15,3c0,0,-8,4,-19,7c0,0,-11,3,-24,6c0,0,-14,3,-29,3c0,0,-19,0,-37,-7c0,0,-18,-8,-37,-25c0,0,-20,-18,-42,-46c0,0,-21,-29,-48,-70V18c0,0,0,-6,-3,-10c0,0,-2,-4,-9,-7c0,0,-7,-2,-19,-3c0,0,-12,-2,-30,-2Z" 
id="f0_b1"
transform="scale(0.001,-0.001)" />

<path d="M339,-13c0,0,-52,0,-90,13c0,0,-37,14,-61,42c0,0,-24,28,-34,71c0,0,-11,43,-11,101V607H49c0,0,-11,0,-18,12c0,0,-7,12,-7,39c0,0,0,14,2,24c0,0,2,10,5,16c0,0,3,7,8,9c0,0,5,3,11,3h93V870c0,0,0,5,2,9c0,0,3,5,10,8c0,0,7,4,19,5c0,0,12,2,30,2c0,0,19,0,31,-2c0,0,11,-1,18,-5c0,0,7,-3,10,-8c0,0,3,-4,3,-9V710H438c0,0,6,0,10,-3c0,0,5,-2,8,-9c0,0,4,-6,5,-16c0,0,1,-10,1,-24c0,0,0,-27,-6,-39c0,0,-7,-12,-18,-12H266V232c0,0,0,-69,20,-105c0,0,21,-35,74,-35c0,0,17,0,30,3c0,0,14,4,24,7c0,0,10,4,18,7c0,0,7,4,13,4c0,0,4,0,7,-2c0,0,4,-2,6,-7c0,0,2,-5,3,-14c0,0,1,-9,1,-23c0,0,0,-22,-2,-34c0,0,-3,-13,-9,-19c0,0,-6,-6,-18,-11c0,0,-12,-4,-28,-8c0,0,-15,-3,-32,-5c0,0,-17,-3,-34,-3Z" 
id="f0_bf"
transform="scale(0.001,-0.001)" />

<path d="M429,92c0,0,47,0,80,22c0,0,33,23,54,60c0,0,20,38,30,84c0,0,10,46,10,93c0,0,0,52,-8,100c0,0,-8,48,-27,86c0,0,-19,37,-51,60c0,0,-32,22,-80,22c0,0,-24,0,-47,-7c0,0,-23,-7,-47,-23c0,0,-24,-15,-50,-40c0,0,-26,-25,-56,-62V220c0,0,51,-62,97,-95c0,0,45,-33,95,-33ZM176,-271c0,0,-18,0,-30,2c0,0,-12,1,-19,4c0,0,-7,3,-10,8c0,0,-3,4,-3,10V690c0,0,0,6,3,10c0,0,2,5,9,8c0,0,6,3,17,4c0,0,10,1,25,1c0,0,16,0,26,-1c0,0,10,-1,17,-4c0,0,6,-3,9,-7c0,0,3,-4,3,-11V601c0,0,30,31,59,54c0,0,28,23,57,39c0,0,28,15,59,23c0,0,30,8,63,8c0,0,74,0,125,-29c0,0,52,-28,84,-77c0,0,32,-50,47,-115c0,0,15,-65,15,-139c0,0,0,-88,-19,-158c0,0,-19,-70,-56,-119c0,0,-37,-49,-91,-75c0,0,-55,-26,-125,-26c0,0,-30,0,-55,6c0,0,-25,6,-50,18c0,0,-24,13,-48,32c0,0,-24,19,-51,46V-247c0,0,0,-6,-3,-10c0,0,-2,-5,-9,-8c0,0,-7,-3,-19,-4c0,0,-12,-2,-30,-2Z" 
id="f0_ay"
transform="scale(0.001,-0.001)" />

<path d="M351,-13c0,0,-67,0,-113,22c0,0,-46,22,-75,60c0,0,-28,39,-40,90c0,0,-13,51,-13,124V690c0,0,0,6,3,10c0,0,3,4,10,7c0,0,8,4,20,5c0,0,11,1,29,1c0,0,18,0,30,-1c0,0,12,-1,19,-5c0,0,7,-3,10,-7c0,0,3,-4,3,-10V299c0,0,0,-59,9,-94c0,0,8,-36,26,-61c0,0,18,-24,44,-38c0,0,27,-14,63,-14c0,0,46,0,92,33c0,0,46,32,98,95V690c0,0,0,6,2,10c0,0,3,4,10,7c0,0,8,4,19,5c0,0,12,1,30,1c0,0,18,0,30,-1c0,0,12,-1,19,-5c0,0,7,-3,10,-7c0,0,3,-4,3,-10V18c0,0,0,-6,-2,-10c0,0,-3,-4,-10,-7c0,0,-6,-2,-17,-3c0,0,-11,-2,-27,-2c0,0,-17,0,-28,2c0,0,-10,1,-17,3c0,0,-6,3,-8,7c0,0,-3,4,-3,10v89c0,0,-57,-63,-113,-92c0,0,-56,-28,-113,-28Z" 
id="f0_c6"
transform="scale(0.001,-0.001)" />

<path d="M604,356L436,837h-1L269,356ZM87,-4c0,0,-22,0,-36,2C51,-2,37,0,32,4c0,0,-6,5,-6,15c0,0,1,10,7,27L357,943c0,0,3,8,7,13c0,0,5,6,15,9c0,0,9,3,23,4c0,0,15,1,37,1c0,0,24,0,40,-1c0,0,16,-1,25,-4c0,0,10,-3,15,-9c0,0,5,-5,8,-14L851,45c0,0,6,-16,7,-26c0,0,0,-10,-6,-16c0,0,-6,-4,-20,-5c0,0,-14,-2,-37,-2c0,0,-23,0,-37,1c0,0,-14,1,-21,3c0,0,-7,3,-10,7c0,0,-3,5,-6,11L638,253H236L157,21c0,0,-2,-6,-6,-11c0,0,-3,-5,-10,-9c0,0,-7,-2,-21,-3c0,0,-13,-2,-33,-2Z" 
id="f0_5"
transform="scale(0.001,-0.001)" />

<path d="M176,-4c0,0,-18,0,-30,2c0,0,-12,1,-19,3c0,0,-7,3,-10,7c0,0,-3,4,-3,10v997c0,0,0,6,3,11c0,0,3,4,10,7c0,0,7,3,19,5c0,0,12,1,30,1c0,0,18,0,30,-1c0,0,12,-2,19,-5c0,0,7,-3,9,-7c0,0,3,-5,3,-10V614c0,0,53,56,107,83c0,0,54,28,108,28c0,0,67,0,113,-23c0,0,46,-23,74,-61c0,0,29,-38,41,-89c0,0,12,-52,12,-124V18c0,0,0,-6,-3,-10c0,0,-3,-4,-9,-7c0,0,-7,-2,-19,-3c0,0,-12,-2,-30,-2c0,0,-19,0,-30,2c0,0,-12,1,-19,3c0,0,-7,3,-10,7c0,0,-3,4,-3,10V412c0,0,0,58,-9,93c0,0,-9,35,-26,61c0,0,-17,25,-44,38c0,0,-27,14,-63,14c0,0,-46,0,-93,-33c0,0,-46,-33,-97,-96V18c0,0,0,-6,-3,-10c0,0,-2,-4,-9,-7c0,0,-7,-2,-19,-3c0,0,-12,-2,-30,-2Z" 
id="f0_9n"
transform="scale(0.001,-0.001)" />

<path d="M252,-271c0,0,-19,0,-31,2c0,0,-12,2,-18,6c0,0,-7,5,-8,12c0,0,0,8,4,18L292,0c0,0,-7,3,-13,10c0,0,-6,6,-8,14L31,665c0,0,-6,16,-6,25c0,0,0,9,6,14c0,0,6,5,20,7c0,0,13,2,36,2c0,0,22,0,35,-1c0,0,12,-1,20,-4c0,0,7,-3,11,-9c0,0,3,-6,7,-15L351,145h3L539,687c0,0,4,14,10,18c0,0,7,4,19,6c0,0,13,2,37,2c0,0,21,0,34,-2c0,0,14,-2,20,-7c0,0,6,-5,6,-14c0,0,0,-9,-4,-23L420,0L330,-246c0,0,-4,-12,-22,-18c0,0,-19,-7,-56,-7Z" 
id="f0_co"
transform="scale(0.001,-0.001)" />

<path d="M367,-13c0,0,-73,0,-129,23c0,0,-56,24,-93,70c0,0,-38,46,-58,112c0,0,-20,67,-20,154c0,0,0,99,25,171c0,0,24,71,66,116c0,0,42,46,99,68c0,0,58,22,124,22c0,0,32,0,62,-6c0,0,31,-6,56,-16c0,0,25,-10,45,-22c0,0,20,-13,29,-22c0,0,9,-9,12,-14c0,0,3,-5,6,-13c0,0,2,-7,3,-16c0,0,0,-9,0,-22c0,0,0,-29,-6,-41c0,0,-7,-11,-17,-11c0,0,-11,0,-25,12c0,0,-15,12,-37,27c0,0,-23,15,-55,28c0,0,-31,12,-75,12c0,0,-88,0,-136,-68c0,0,-47,-68,-47,-198c0,0,0,-65,12,-114c0,0,12,-49,36,-81c0,0,24,-33,59,-49c0,0,35,-16,79,-16c0,0,43,0,75,13c0,0,32,14,56,30c0,0,23,16,39,29c0,0,16,13,25,13c0,0,5,0,9,-3c0,0,4,-3,7,-10c0,0,2,-7,3,-18c0,0,1,-11,1,-26c0,0,0,-12,0,-22c0,0,-1,-9,-3,-15c0,0,-2,-7,-4,-12c0,0,-3,-4,-12,-14c0,0,-10,-9,-32,-23c0,0,-22,-14,-50,-24C496,11,468,0,435,-6c0,0,-33,-7,-68,-7Z" 
id="f0_7l"
transform="scale(0.001,-0.001)" />

<path d="M176,-4c0,0,-18,0,-30,2c0,0,-12,1,-19,3c0,0,-7,3,-10,7c0,0,-3,4,-3,10V690c0,0,0,6,3,10c0,0,2,4,9,7c0,0,6,4,17,5c0,0,10,1,27,1c0,0,17,0,28,-1c0,0,10,-1,16,-5c0,0,6,-3,9,-7c0,0,3,-4,3,-10V601c0,0,56,64,112,94c0,0,57,30,114,30c0,0,67,0,113,-23c0,0,46,-23,74,-61c0,0,29,-38,41,-89c0,0,12,-52,12,-123V18c0,0,0,-6,-3,-10c0,0,-3,-4,-9,-7c0,0,-7,-2,-19,-3c0,0,-12,-2,-30,-2c0,0,-19,0,-30,2c0,0,-12,1,-19,3c0,0,-7,3,-10,7c0,0,-3,4,-3,10V412c0,0,0,58,-9,93c0,0,-9,35,-26,61c0,0,-17,25,-44,38c0,0,-27,14,-63,14c0,0,-46,0,-93,-33c0,0,-46,-33,-97,-96V18c0,0,0,-6,-3,-10c0,0,-2,-4,-9,-7c0,0,-7,-2,-19,-3c0,0,-12,-2,-30,-2Z" 
id="f0_af"
transform="scale(0.001,-0.001)" />

<path d="M346,-177c0,0,56,0,94,11c0,0,37,11,60,28c0,0,24,18,34,41c0,0,10,23,10,49c0,0,0,43,-36,65c0,0,-35,23,-95,25L239,48c0,0,-24,-19,-39,-35c0,0,-15,-16,-24,-31c0,0,-9,-16,-12,-30c0,0,-4,-15,-4,-31c0,0,0,-48,49,-73c0,0,50,-25,137,-25Zm-6,512c0,0,36,0,63,12c0,0,27,12,44,32c0,0,18,21,26,48c0,0,9,27,9,56c0,0,0,69,-38,107c0,0,-37,39,-107,39c0,0,-35,0,-62,-12c0,0,-26,-12,-44,-33c0,0,-17,-21,-26,-48c0,0,-8,-28,-8,-58c0,0,0,-66,37,-104c0,0,38,-39,106,-39Zm0,-606c0,0,-81,0,-138,14c0,0,-57,14,-94,38c0,0,-36,24,-52,57c0,0,-17,33,-17,72c0,0,0,24,6,47c0,0,6,24,18,43c0,0,13,21,31,40c0,0,18,19,42,38c0,0,-36,19,-54,47c0,0,-17,28,-17,61c0,0,0,45,18,81c0,0,19,36,46,64c0,0,-23,28,-36,62c0,0,-14,35,-14,84c0,0,0,58,20,104c0,0,19,45,53,77c0,0,35,31,83,48c0,0,48,17,105,17c0,0,30,0,57,-4c0,0,26,-3,49,-9H649c0,0,13,0,19,-12c0,0,7,-13,7,-38c0,0,0,-26,-7,-37c0,0,-7,-12,-19,-12H553c0,0,26,-27,37,-60c0,0,10,-32,10,-68c0,0,0,-58,-18,-103c0,0,-19,-45,-54,-76c0,0,-34,-31,-82,-47c0,0,-48,-16,-106,-16c0,0,-41,0,-78,10c0,0,-37,11,-57,28c0,0,-14,-14,-22,-31c0,0,-9,-17,-9,-39c0,0,0,-27,24,-44c0,0,25,-17,65,-18l175,-8c0,0,50,-1,92,-14c0,0,41,-12,72,-35c0,0,31,-22,48,-55c0,0,17,-34,17,-76c0,0,0,-47,-20,-88c0,0,-19,-42,-59,-74c0,0,-40,-31,-102,-50c0,0,-61,-18,-146,-18Z" 
id="f0_9d"
transform="scale(0.001,-0.001)" />

<path d="M366,92c0,0,25,0,48,7c0,0,22,6,46,22c0,0,24,16,50,41c0,0,26,24,56,61V492c0,0,-51,62,-97,94c0,0,-47,33,-98,33c0,0,-47,0,-79,-22c0,0,-33,-23,-54,-59c0,0,-20,-37,-30,-83c0,0,-9,-47,-9,-94c0,0,0,-51,8,-100c0,0,8,-48,27,-86c0,0,19,-38,52,-60c0,0,32,-23,80,-23ZM345,-13c0,0,-74,0,-127,28c0,0,-52,29,-84,78c0,0,-33,49,-48,115c0,0,-15,66,-15,139c0,0,0,86,19,156c0,0,19,70,55,119c0,0,37,50,91,76c0,0,54,27,125,27c0,0,59,0,108,-26c0,0,49,-26,97,-76v390c0,0,0,5,2,10c0,0,3,4,10,7c0,0,8,3,19,5c0,0,12,1,30,1c0,0,18,0,30,-1c0,0,12,-2,19,-5c0,0,7,-3,10,-7c0,0,3,-5,3,-10V18c0,0,0,-6,-2,-10c0,0,-3,-5,-9,-7c0,0,-7,-2,-17,-3c0,0,-10,-2,-25,-2c0,0,-16,0,-26,2c0,0,-11,1,-18,3c0,0,-6,2,-9,7c0,0,-3,4,-3,10v90c0,0,-53,-58,-110,-90c0,0,-58,-31,-125,-31Z" 
id="f0_7v"
transform="scale(0.001,-0.001)" />

<path d="M176,-4c0,0,-18,0,-30,2c0,0,-12,1,-19,3c0,0,-7,3,-10,7c0,0,-3,4,-3,10V690c0,0,0,6,3,10c0,0,2,4,9,7c0,0,6,4,17,5c0,0,10,1,27,1c0,0,17,0,28,-1c0,0,10,-1,16,-5c0,0,6,-3,9,-7c0,0,3,-4,3,-10V601c0,0,56,64,110,94c0,0,53,30,108,30c0,0,42,0,75,-10c0,0,33,-10,58,-28c0,0,26,-17,44,-42c0,0,18,-24,30,-55c0,0,33,37,63,63c0,0,31,26,59,41c0,0,28,16,54,23c0,0,27,8,53,8c0,0,65,0,109,-23c0,0,44,-23,71,-61c0,0,28,-38,39,-89c0,0,12,-52,12,-108V18c0,0,0,-6,-3,-10c0,0,-3,-4,-10,-7c0,0,-7,-2,-19,-3c0,0,-12,-2,-29,-2c0,0,-19,0,-31,2c0,0,-12,1,-19,3c0,0,-7,3,-10,7c0,0,-3,4,-3,10V427c0,0,0,43,-8,78c0,0,-7,35,-23,61c0,0,-17,25,-42,38c0,0,-25,14,-60,14c0,0,-42,0,-85,-33c0,0,-43,-33,-94,-96V18c0,0,0,-6,-3,-10c0,0,-3,-4,-11,-7c0,0,-7,-2,-19,-3c0,0,-11,-2,-29,-2c0,0,-18,0,-30,2c0,0,-12,1,-19,3c0,0,-7,3,-10,7c0,0,-3,4,-3,10V427c0,0,0,43,-8,78c0,0,-8,35,-24,61c0,0,-17,25,-42,38c0,0,-25,14,-59,14c0,0,-43,0,-86,-33c0,0,-44,-33,-95,-96V18c0,0,0,-6,-3,-10c0,0,-2,-4,-9,-7c0,0,-7,-2,-19,-3c0,0,-12,-2,-30,-2Z" 
id="f0_ae"
transform="scale(0.001,-0.001)" />

<path d="M401,90c0,0,54,0,93,19c0,0,40,20,65,55c0,0,26,35,37,84c0,0,12,48,12,106c0,0,0,55,-10,104c0,0,-10,48,-33,85c0,0,-23,36,-62,58c0,0,-40,21,-99,21c0,0,-54,0,-93,-20c0,0,-39,-19,-65,-54c0,0,-25,-36,-37,-85c0,0,-12,-48,-12,-106c0,0,0,-55,10,-103c0,0,10,-49,33,-85c0,0,24,-36,63,-58c0,0,39,-21,98,-21ZM395,-13c0,0,-82,0,-144,24c0,0,-61,25,-102,72c0,0,-41,47,-61,114c0,0,-21,67,-21,152c0,0,0,82,22,151c0,0,21,69,64,119c0,0,43,50,107,78c0,0,64,28,150,28c0,0,82,0,144,-25c0,0,61,-25,102,-72c0,0,41,-47,62,-114c0,0,20,-67,20,-151c0,0,0,-83,-21,-152c0,0,-22,-69,-65,-119C652,92,609,42,545,14c0,0,-65,-27,-150,-27Z" 
id="f0_am"
transform="scale(0.001,-0.001)" />

<path d="M69,-215c0,0,-12,0,-21,1c0,0,-8,1,-12,4c0,0,-4,2,-4,7c0,0,-1,4,2,10L134,11v96c0,0,0,20,4,32c0,0,4,12,13,18c0,0,9,6,22,8c0,0,13,2,33,2c0,0,19,0,32,-2c0,0,13,-2,22,-8c0,0,9,-6,13,-18c0,0,4,-12,4,-32c0,0,0,-23,-2,-43c0,0,-3,-19,-8,-36c0,0,-5,-17,-14,-33c0,0,-8,-17,-21,-36L130,-194c0,0,-4,-5,-9,-9c0,0,-5,-4,-12,-7c0,0,-7,-3,-16,-4c0,0,-9,-1,-24,-1Z" 
id="f0_nq"
transform="scale(0.001,-0.001)" />

<path d="M372,-4c0,0,-18,0,-30,2c0,0,-13,2,-21,3c0,0,-7,3,-10,8c0,0,-3,4,-3,10V857H36c0,0,-6,0,-11,3c0,0,-5,2,-8,9c0,0,-2,6,-4,17c0,0,-2,10,-2,24c0,0,0,14,2,25c0,0,2,11,4,17c0,0,3,7,8,10c0,0,5,3,11,3H708c0,0,6,0,11,-3c0,0,5,-3,8,-10c0,0,4,-6,5,-17c0,0,2,-11,2,-25c0,0,0,-14,-2,-24c0,0,-1,-11,-5,-17c0,0,-3,-7,-8,-9c0,0,-5,-3,-11,-3H436V19c0,0,0,-6,-3,-10c0,0,-3,-5,-10,-8c0,0,-8,-1,-20,-3c0,0,-12,-2,-31,-2Z" 
id="f0_2t"
transform="scale(0.001,-0.001)" />

<path d="M431,92c0,0,46,0,79,22c0,0,33,23,53,60c0,0,21,37,30,83c0,0,10,46,10,93c0,0,0,51,-8,100c0,0,-8,49,-28,86c0,0,-19,37,-51,60c0,0,-32,23,-80,23c0,0,-24,0,-47,-7c0,0,-23,-7,-47,-22c0,0,-24,-16,-50,-41c0,0,-25,-24,-55,-62V219c0,0,51,-62,98,-95c0,0,46,-32,96,-32ZM443,-13c0,0,-32,0,-59,7c0,0,-27,6,-53,19c0,0,-26,14,-52,36c0,0,-27,22,-56,52V18c0,0,0,-6,-3,-10c0,0,-3,-5,-9,-7c0,0,-7,-2,-17,-3c0,0,-10,-2,-26,-2c0,0,-15,0,-25,2c0,0,-11,1,-17,3c0,0,-7,2,-9,7c0,0,-3,4,-3,10v997c0,0,0,6,3,11c0,0,3,4,10,7c0,0,7,3,19,5c0,0,12,1,30,1c0,0,18,0,30,-1c0,0,12,-2,19,-5c0,0,7,-3,9,-7c0,0,3,-5,3,-10V614c0,0,30,31,58,52c0,0,28,20,55,34c0,0,27,13,54,19c0,0,27,6,57,6c0,0,73,0,125,-30c0,0,52,-29,84,-78c0,0,32,-48,47,-114c0,0,15,-66,15,-139c0,0,0,-87,-19,-157c0,0,-19,-70,-56,-119c0,0,-37,-49,-90,-76c0,0,-54,-25,-124,-25Z" 
id="f0_7k"
transform="scale(0.001,-0.001)" />

<path d="M176,-4c0,0,-18,0,-30,2c0,0,-12,1,-19,3c0,0,-7,3,-10,7c0,0,-3,4,-3,10V690c0,0,0,5,3,9c0,0,3,5,10,8c0,0,7,3,19,4c0,0,12,2,30,2c0,0,18,0,30,-2c0,0,12,-1,19,-4c0,0,7,-3,9,-8c0,0,3,-4,3,-9V18c0,0,0,-6,-3,-10c0,0,-2,-4,-9,-7c0,0,-7,-2,-19,-3c0,0,-12,-2,-30,-2Zm-1,846c0,0,-43,0,-59,15c0,0,-16,15,-16,58c0,0,0,43,16,59c0,0,17,16,61,16c0,0,43,0,59,-16c0,0,16,-15,16,-58c0,0,0,-43,-16,-58c0,0,-17,-16,-61,-16Z" 
id="f0_9q"
transform="scale(0.001,-0.001)" />

<path d="M176,-4c0,0,-18,0,-30,2c0,0,-12,1,-19,3c0,0,-7,3,-10,7c0,0,-3,4,-3,10v997c0,0,0,6,3,11c0,0,3,4,10,7c0,0,7,3,19,5c0,0,12,1,30,1c0,0,18,0,30,-1c0,0,12,-2,19,-5c0,0,7,-3,9,-7c0,0,3,-5,3,-11V408L492,687c0,0,6,7,12,12c0,0,7,5,16,8c0,0,10,4,22,5c0,0,13,1,31,1c0,0,19,0,31,-1c0,0,13,-1,21,-4c0,0,8,-3,11,-7c0,0,3,-4,3,-11c0,0,0,-9,-4,-18c0,0,-5,-8,-16,-20L375,408L648,54c0,0,10,-13,14,-20c0,0,4,-8,4,-15c0,0,0,-6,-3,-10c0,0,-3,-5,-10,-8c0,0,-7,-2,-20,-3c0,0,-13,-2,-32,-2c0,0,-20,0,-33,1c0,0,-13,1,-22,3c0,0,-9,3,-15,7c0,0,-5,5,-10,12L237,391V18c0,0,0,-6,-3,-10c0,0,-2,-4,-9,-7c0,0,-7,-2,-19,-3c0,0,-12,-2,-30,-2Z" 
id="f0_a5"
transform="scale(0.001,-0.001)" />

<path d="M382,534c0,0,51,0,88,12c0,0,37,12,61,35c0,0,25,22,36,51c0,0,12,30,12,65c0,0,0,57,-25,96c0,0,-26,40,-86,57c0,0,-18,5,-42,7c0,0,-23,2,-61,2H256V534ZM192,-4c0,0,-18,0,-31,2c0,0,-12,2,-19,3c0,0,-8,3,-11,8c0,0,-3,4,-3,10V913c0,0,0,29,15,40c0,0,16,12,33,12H381c0,0,37,0,61,-2c0,0,24,-2,44,-4c0,0,56,-10,98,-30c0,0,43,-21,73,-53c0,0,29,-33,43,-74c0,0,15,-41,15,-91c0,0,0,-49,-13,-87c0,0,-13,-39,-38,-68c0,0,-25,-30,-59,-51c0,0,-34,-22,-77,-37c0,0,24,-10,43,-26c0,0,20,-16,37,-39c0,0,16,-22,31,-51c0,0,15,-29,30,-66L756,73c0,0,10,-26,13,-37c0,0,3,-11,3,-17c0,0,0,-6,-2,-10c0,0,-2,-5,-10,-8c0,0,-7,-2,-21,-3c0,0,-13,-2,-36,-2c0,0,-19,0,-31,2c0,0,-13,1,-20,3c0,0,-7,4,-12,10c0,0,-4,6,-7,15L545,253c0,0,-16,39,-33,72c0,0,-17,32,-40,56c0,0,-23,23,-54,36c0,0,-32,13,-76,13H256V19c0,0,0,-6,-3,-10c0,0,-3,-5,-10,-8c0,0,-7,-1,-20,-3c0,0,-12,-2,-31,-2Z" 
id="f0_2j"
transform="scale(0.001,-0.001)" />

<path d="M192,-4c0,0,-18,0,-30,2c0,0,-13,2,-20,3c0,0,-8,3,-11,8c0,0,-3,5,-3,10V913c0,0,0,29,15,40c0,0,16,12,33,12H610c0,0,5,0,10,-3c0,0,5,-3,9,-10c0,0,4,-6,5,-17c0,0,2,-11,2,-25c0,0,0,-14,-2,-24c0,0,-1,-11,-5,-17c0,0,-4,-7,-9,-9c0,0,-5,-3,-10,-3H256V528H591c0,0,5,0,10,-3c0,0,5,-2,8,-8c0,0,4,-6,6,-16c0,0,1,-10,1,-26c0,0,0,-14,-1,-24c0,0,-2,-10,-6,-17c0,0,-3,-6,-8,-9c0,0,-5,-4,-10,-4H256V19c0,0,0,-5,-3,-10c0,0,-3,-5,-10,-8c0,0,-7,-1,-19,-3c0,0,-12,-2,-32,-2Z" 
id="f0_13"
transform="scale(0.001,-0.001)" />

<path d="M176,-4c0,0,-18,0,-30,2c0,0,-12,1,-19,3c0,0,-7,3,-10,7c0,0,-3,4,-3,10v997c0,0,0,6,3,11c0,0,3,4,10,7c0,0,7,3,19,5c0,0,12,1,30,1c0,0,18,0,30,-1c0,0,12,-2,19,-5c0,0,7,-3,9,-7c0,0,3,-5,3,-11V18c0,0,0,-6,-3,-10c0,0,-2,-4,-9,-7c0,0,-7,-2,-19,-3c0,0,-12,-2,-30,-2Z" 
id="f0_a8"
transform="scale(0.001,-0.001)" />

<path d="M218,-6c0,0,-24,0,-39,4c0,0,-15,3,-24,13c0,0,-8,10,-12,27c0,0,-3,16,-3,41c0,0,0,24,3,41c0,0,4,17,12,27c0,0,9,9,24,14c0,0,15,4,39,4c0,0,23,0,38,-4c0,0,15,-5,24,-14c0,0,10,-10,13,-27c0,0,3,-17,3,-41c0,0,0,-25,-3,-41c0,0,-3,-17,-13,-27c0,0,-9,-10,-24,-13c0,0,-15,-4,-38,-4Zm0,518c0,0,-24,0,-39,4c0,0,-15,5,-24,15c0,0,-8,10,-12,26c0,0,-3,16,-3,40c0,0,0,26,3,42c0,0,4,17,12,27c0,0,9,10,24,14c0,0,15,4,39,4c0,0,23,0,38,-4c0,0,15,-4,24,-14c0,0,10,-10,13,-27c0,0,3,-16,3,-42c0,0,0,-24,-3,-40c0,0,-3,-16,-13,-26c0,0,-9,-10,-24,-15c0,0,-15,-4,-38,-4Z" 
id="f0_ns"
transform="scale(0.001,-0.001)" />

<path d="M79,326c0,0,-14,0,-20,11c0,0,-7,12,-7,40c0,0,0,29,7,40c0,0,6,11,20,11H390c0,0,6,0,11,-2c0,0,5,-2,8,-9c0,0,4,-6,6,-16c0,0,2,-9,2,-24c0,0,0,-29,-7,-40c0,0,-7,-11,-20,-11Z" 
id="f0_oj"
transform="scale(0.001,-0.001)" />

<path d="M209,-4c0,0,-18,0,-30,2c0,0,-12,1,-19,3c0,0,-7,3,-10,7c0,0,-3,4,-3,10V607H52c0,0,-12,0,-18,12c0,0,-6,12,-6,39c0,0,0,14,2,24c0,0,1,10,4,16c0,0,3,7,8,9c0,0,4,3,10,3h95v69c0,0,0,71,13,121c0,0,13,50,40,82c0,0,27,33,67,48c0,0,41,15,96,15c0,0,26,0,51,-5c0,0,25,-4,38,-10c0,0,13,-6,18,-10c0,0,4,-5,7,-12c0,0,3,-7,5,-17c0,0,1,-10,1,-24c0,0,0,-15,-2,-23c0,0,-1,-9,-3,-14c0,0,-2,-5,-5,-7c0,0,-3,-2,-8,-2c0,0,-5,0,-13,3c0,0,-7,4,-19,8c0,0,-11,4,-26,7c0,0,-15,4,-36,4c0,0,-27,0,-47,-9c0,0,-19,-9,-31,-28c0,0,-12,-19,-17,-50c0,0,-5,-30,-5,-73V710H421c0,0,6,0,10,-3c0,0,4,-2,7,-9c0,0,4,-6,6,-16c0,0,2,-10,2,-24c0,0,0,-27,-7,-39c0,0,-7,-12,-18,-12H271V18c0,0,0,-6,-3,-10c0,0,-3,-4,-11,-7c0,0,-7,-2,-19,-3c0,0,-12,-2,-29,-2Z" 
id="f0_89"
transform="scale(0.001,-0.001)" />

<path d="M192,-4c0,0,-18,0,-30,2c0,0,-13,2,-20,3c0,0,-8,3,-11,8c0,0,-3,4,-3,10V946c0,0,0,6,3,11c0,0,4,4,12,7c0,0,7,2,20,4c0,0,12,2,29,2c0,0,19,0,31,-2c0,0,13,-2,20,-4c0,0,7,-3,10,-7c0,0,3,-5,3,-11V19c0,0,0,-6,-3,-10c0,0,-3,-5,-10,-8c0,0,-7,-1,-20,-3c0,0,-12,-2,-31,-2Z" 
id="f0_1c"
transform="scale(0.001,-0.001)" />

<path d="M318,-13c0,0,-48,0,-90,8c0,0,-41,8,-73,19c0,0,-33,12,-55,25c0,0,-22,13,-30,22c0,0,-9,8,-13,22c0,0,-4,14,-4,37c0,0,0,17,1,27c0,0,2,11,5,18c0,0,3,7,7,9c0,0,5,3,11,3c0,0,10,0,29,-13c0,0,19,-12,49,-27c0,0,30,-15,72,-28c0,0,42,-13,97,-13c0,0,42,0,77,11c0,0,34,11,59,32c0,0,25,20,39,50c0,0,13,30,13,68c0,0,0,41,-19,70c0,0,-18,29,-49,51c0,0,-30,22,-70,41c0,0,-39,18,-80,37c0,0,-41,19,-80,42c0,0,-39,23,-69,54c0,0,-31,32,-50,74c0,0,-19,42,-19,101c0,0,0,60,22,108c0,0,22,47,61,79c0,0,40,32,94,49c0,0,54,17,116,17c0,0,32,0,65,-6c0,0,32,-5,61,-15c0,0,29,-9,51,-20c0,0,22,-12,30,-19c0,0,7,-7,9,-11c0,0,2,-4,4,-10c0,0,1,-7,2,-16c0,0,1,-9,1,-23c0,0,0,-13,-2,-24c0,0,-1,-10,-3,-17c0,0,-2,-8,-6,-11c0,0,-4,-3,-10,-3c0,0,-8,0,-25,10c0,0,-18,11,-43,24c0,0,-26,13,-60,23c0,0,-35,11,-78,11c0,0,-40,0,-70,-11c0,0,-30,-10,-49,-28c0,0,-20,-18,-29,-43c0,0,-10,-25,-10,-52c0,0,0,-40,18,-70c0,0,19,-29,50,-51c0,0,31,-22,71,-41c0,0,39,-19,80,-38c0,0,41,-19,81,-41c0,0,39,-23,70,-54c0,0,31,-31,50,-73c0,0,19,-42,19,-100c0,0,0,-68,-25,-121c0,0,-25,-53,-69,-89C552,61,508,24,448,5c0,0,-60,-18,-130,-18Z" 
id="f0_2n"
transform="scale(0.001,-0.001)" />

<path d="M98,233c0,0,-11,0,-19,11c0,0,-9,11,-9,41c0,0,0,28,8,41c0,0,7,12,20,12H662c0,0,13,0,21,-12c0,0,7,-13,7,-41c0,0,0,-30,-8,-41c0,0,-9,-11,-20,-11Zm0,289c0,0,-11,0,-19,12c0,0,-9,11,-9,41c0,0,0,27,8,40c0,0,7,13,20,13H662c0,0,13,0,21,-13c0,0,7,-13,7,-40c0,0,0,-30,-8,-41c0,0,-9,-12,-20,-12Z" 
id="f0_ua"
transform="scale(0.001,-0.001)" />

<path d="M321,-256c0,0,-13,0,-23,1c0,0,-10,0,-17,3c0,0,-7,2,-11,5c0,0,-5,3,-7,7c0,0,-40,76,-71,154c0,0,-31,78,-51,157c0,0,-21,81,-32,163c0,0,-10,83,-10,167c0,0,0,84,11,166c0,0,12,82,33,163c0,0,21,81,52,160c0,0,31,78,69,155c0,0,0,3,4,5c0,0,3,2,9,4c0,0,6,3,16,4c0,0,11,1,27,1c0,0,17,0,28,-2c0,0,10,-3,16,-6c0,0,6,-4,7,-10c0,0,1,-6,-2,-13c0,0,-71,-150,-106,-307c0,0,-34,-158,-34,-318c0,0,0,-160,35,-318c0,0,35,-156,103,-308c0,0,4,-9,4,-15c0,0,1,-6,-4,-10c0,0,-6,-4,-16,-6c0,0,-11,-2,-30,-2Z" 
id="f0_ov"
transform="scale(0.001,-0.001)" />

<path d="M60,-208c0,0,-18,0,-31,2c0,0,-12,3,-19,8c0,0,-6,5,-8,12c0,0,-1,7,3,17L457,1067c0,0,3,10,7,16c0,0,5,5,12,8c0,0,7,4,19,5c0,0,11,1,26,1c0,0,19,0,31,-3c0,0,12,-2,19,-7c0,0,6,-4,8,-12c0,0,1,-7,-2,-17L125,-178c0,0,-3,-10,-7,-16c0,0,-5,-5,-13,-8c0,0,-7,-3,-18,-5c0,0,-11,-1,-27,-1Z" 
id="f0_od"
transform="scale(0.001,-0.001)" />

<path d="M142,-256c0,0,-19,0,-30,2c0,0,-11,2,-16,6c0,0,-5,4,-4,10c0,0,0,6,4,15c0,0,69,151,104,308c0,0,35,158,35,318c0,0,0,160,-35,318c0,0,-35,157,-106,307c0,0,-3,7,-2,13c0,0,1,6,7,10c0,0,6,3,16,6c0,0,11,2,28,2c0,0,16,0,26,-1c0,0,10,-1,17,-4c0,0,6,-2,9,-4c0,0,3,-2,5,-5c0,0,76,-153,120,-315c0,0,44,-161,44,-329c0,0,0,-84,-11,-167c0,0,-10,-82,-31,-163c0,0,-21,-79,-51,-157c0,0,-30,-78,-71,-154c0,0,-2,-4,-6,-7c0,0,-5,-3,-12,-5c0,0,-7,-3,-17,-3c0,0,-9,-1,-23,-1Z" 
id="f0_ow"
transform="scale(0.001,-0.001)" />

<path d="M435,0V856c0,0,-48,-47,-127,-93c0,0,-79,-46,-142,-69V824c0,0,113,52,197,128c0,0,85,75,120,146h86V0Z" 
id="f1_l"
transform="scale(0.001,-0.001)" />


</defs>
</svg>