<?xml version="1.0" encoding="UTF-8" standalone="no"?>
<!DOCTYPE svg PUBLIC "-//W3C//DTD SVG 1.1//EN"
"http://www.w3.org/Graphics/SVG/1.1/DTD/svg11.dtd">
<svg viewBox="0 0 909 1286" version="1.1" xmlns="http://www.w3.org/2000/svg" xmlns:xlink="http://www.w3.org/1999/xlink">
<defs>
<clipPath id="c0_13"><path d="M186.3,136.2V115.6h23.4v20.6Z" /></clipPath>
<clipPath id="c1_13"><path d="M187.4,110.9V90h22.3v20.9Z" /></clipPath>
<clipPath id="c2_13"><path d="M194,136.2V113.8h15.7v22.4Z" /></clipPath>
<clipPath id="c3_13"><path d="M230.6,274V253.1h21.3V274Z" /></clipPath>
<clipPath id="c4_13"><path d="M235,299.3V278.8h16.9v20.5Z" /></clipPath>
<clipPath id="c5_13"><path d="M183.3,363.5V343H368.1v20.5Z" /></clipPath>
<clipPath id="c6_13"><path d="M363.7,337.5V315.1h16.5v22.4Z" /></clipPath>
<clipPath id="c7_13"><path d="M304.3,337.5V315.1h75.9v22.4Z" /></clipPath>
<clipPath id="c8_13"><path d="M447.3,316.9V298.6H583.4v18.3Z" /></clipPath>
<clipPath id="c9_13"><path d="M447.3,370.8V352.9H583.4v17.9Z" /></clipPath>
<clipPath id="c10_13"><path d="M342.8,414.8V392.5h14.7v22.3Z" /></clipPath>
<clipPath id="c11_13"><path d="M176.4,497.3V476.8h132v20.5Z" /></clipPath>
<clipPath id="c12_13"><path d="M314.2,483V460.7H330V483Z" /></clipPath>
<clipPath id="c13_13"><path d="M302.5,483V460.7H330V483Z" /></clipPath>
<clipPath id="c14_13"><path d="M279,533.6V512.7h24.6v20.9Z" /></clipPath>
<clipPath id="c15_13"><path d="M196.2,724.3V704.1H530.6v20.2Z" /></clipPath>
<clipPath id="c16_13"><path d="M195.1,816.3V795.4H458.3v20.9Z" /></clipPath>
<style type="text/css"><![CDATA[
.g0_13{
fill: none;
stroke: #FFFFFF;
stroke-width: 0.77152777;
stroke-linecap: round;
stroke-linejoin: round;
}
.g1_13{
fill: none;
stroke: #000000;
stroke-width: 0.86013895;
stroke-linecap: round;
stroke-linejoin: round;
}
.g2_13{
fill: none;
stroke: #000000;
stroke-width: 0.90138894;
stroke-linecap: round;
stroke-linejoin: round;
}
.g3_13{
fill: none;
stroke: #000000;
stroke-width: 0.91208345;
stroke-linecap: round;
stroke-linejoin: round;
}
.g4_13{
fill: #1F1A17;
}
.g5_13{
fill: none;
stroke: #000000;
stroke-width: 0.9105556;
stroke-linecap: round;
stroke-linejoin: round;
}
.g6_13{
fill: none;
stroke: #000000;
stroke-width: 0.9090278;
stroke-linecap: round;
stroke-linejoin: round;
}
]]></style>
</defs>
<path d="M512.4,486.7l6.2,9.7l5.4,8.5l4.1,8.7l2,8.5l1.1,7.7l1.2,6.7l-1.2,6.7l-2.1,6.7l-2,4.9l-3.1,5.6l-3.1,4.9l-3.4,3.9l-7.1,6.6l-6.5,4.7l-11.5,6.9l-10.3,6.7l-11.6,5.6L459,606.4l-6.4,3.9l-6.2,4.9l-5.4,4.6l-5.1,5.9l-4.1,6.7l-3.4,7.4l-1,9.8l-1,10.5l-6.2,-10.5l-5.4,-10.5l-3.1,-10.6l-1,-10.5v-4.9l1,-4.9l1.1,-4.6l2,-3.9l2.1,-4.8l3.3,-3.9l3.1,-3.6l4.1,-3.8l17,-11.6l16.7,-9.5l14.6,-8.8L489.3,546l6.4,-4.6l5.2,-6.7L505,528l3.3,-7.7l2.1,-8.7l2,-7.7V486.7" class="g0_13" />
<path d="M185.3,113.4H206" class="g1_13" />
<g clip-path="url(#c0_13)">
<g fill="#000000" >
<use xlink:href="#f0_m" transform="matrix(11.9,0,0,11.9,186.3,132.1)" />
</g>
</g>
<g clip-path="url(#c1_13)">
<g fill="#000000" >
<use xlink:href="#f1_2a" transform="matrix(11.9,0,0,11.9,187.4,106.5)" />
<use xlink:href="#f1_24" transform="matrix(11.9,0,0,11.9,195.8,106.5)" />
</g>
</g>
<g fill="#000000" >
<use xlink:href="#f1_1c" transform="matrix(11.9,0,0,11.9,158.8,117.8)" />
</g>
<g clip-path="url(#c2_13)">
<g fill="#000000" >
<use xlink:href="#f2_2c" transform="matrix(11.9,0,-3.2,11.9,194,132.1)" />
</g>
</g>
<g fill="#000000" >
<use xlink:href="#f3_x" transform="matrix(11.9,0,0,11.9,172,117.8)" />
<use xlink:href="#f0_c" transform="matrix(12,0,0,12,117,210.2)" />
<use xlink:href="#f0_1y" transform="matrix(12,0,0,12,122.9,210.2)" />
<use xlink:href="#f0_d" transform="matrix(12,0,0,12,131.3,210.2)" />
<use xlink:href="#f0_11" transform="matrix(12,0,0,12,158.4,210.2)" />
<use xlink:href="#f0_24" transform="matrix(12,0,0,12,173.5,210.2)" />
<use xlink:href="#f0_2l" transform="matrix(12,0,0,12,182.3,210.2)" />
<use xlink:href="#f0_20" transform="matrix(12,0,0,12,190.8,210.2)" />
<use xlink:href="#f0_2e" transform="matrix(12,0,0,12,199.9,210.2)" />
<use xlink:href="#f0_2b" transform="matrix(12,0,0,12,206.1,210.2)" />
<use xlink:href="#f0_23" transform="matrix(12,0,0,12,215.7,210.2)" />
<use xlink:href="#f0_21" transform="matrix(12,0,0,12,224.5,210.2)" />
<use xlink:href="#f0_2a" transform="matrix(12,0,0,12,232.6,210.2)" />
<use xlink:href="#f0_1x" transform="matrix(12,0,0,12,245.1,210.2)" />
<use xlink:href="#f0_2g" transform="matrix(12,0,0,12,253.2,210.2)" />
<use xlink:href="#f0_2b" transform="matrix(12,0,0,12,258.7,210.2)" />
<use xlink:href="#f0_29" transform="matrix(12,0,0,12,268.2,210.2)" />
<use xlink:href="#f0_25" transform="matrix(12,0,0,12,289.1,210.2)" />
<use xlink:href="#f0_2a" transform="matrix(12,0,0,12,293.6,210.2)" />
<use xlink:href="#f0_25" transform="matrix(12,0,0,12,302.4,210.2)" />
<use xlink:href="#f0_2g" transform="matrix(12,0,0,12,306.8,210.2)" />
<use xlink:href="#f0_25" transform="matrix(12,0,0,12,312.3,210.2)" />
<use xlink:href="#f0_1x" transform="matrix(12,0,0,12,316.7,210.2)" />
<use xlink:href="#f0_28" transform="matrix(12,0,0,12,324.8,210.2)" />
<use xlink:href="#f0_28" transform="matrix(12,0,0,12,329.2,210.2)" />
<use xlink:href="#f0_2l" transform="matrix(12,0,0,12,333.6,210.2)" />
<use xlink:href="#f0_25" transform="matrix(12,0,0,12,345,210.2)" />
<use xlink:href="#f0_2a" transform="matrix(12,0,0,12,349.4,210.2)" />
<use xlink:href="#f0_2g" transform="matrix(12,0,0,12,365.6,210.2)" />
<use xlink:href="#f0_24" transform="matrix(12,0,0,12,371.1,210.2)" />
<use xlink:href="#f0_21" transform="matrix(12,0,0,12,380,210.2)" />
<use xlink:href="#f0_23" transform="matrix(12,0,0,12,391.7,210.2)" />
<use xlink:href="#f0_2e" transform="matrix(12,0,0,12,400.9,210.2)" />
<use xlink:href="#f0_2b" transform="matrix(12,0,0,12,407.1,210.2)" />
<use xlink:href="#f0_2h" transform="matrix(12,0,0,12,416.6,210.2)" />
<use xlink:href="#f0_2a" transform="matrix(12,0,0,12,425.8,210.2)" />
<use xlink:href="#f0_20" transform="matrix(12,0,0,12,434.6,210.2)" />
<use xlink:href="#f0_2f" transform="matrix(12,0,0,12,447.1,210.2)" />
<use xlink:href="#f0_2g" transform="matrix(12,0,0,12,454.1,210.2)" />
<use xlink:href="#f0_1x" transform="matrix(12,0,0,12,459.2,210.2)" />
<use xlink:href="#f0_2g" transform="matrix(12,0,0,12,467.3,210.2)" />
<use xlink:href="#f0_21" transform="matrix(12,0,0,12,472.8,210.2)" />
<use xlink:href="#f0_1x" transform="matrix(12,0,0,12,484.6,210.2)" />
<use xlink:href="#f0_1y" transform="matrix(12,0,0,12,492.7,210.2)" />
<use xlink:href="#f0_2f" transform="matrix(12,0,0,12,501.5,210.2)" />
<use xlink:href="#f0_2b" transform="matrix(12,0,0,12,508.5,210.2)" />
<use xlink:href="#f0_2e" transform="matrix(12,0,0,12,518,210.2)" />
<use xlink:href="#f0_1y" transform="matrix(12,0,0,12,524.2,210.2)" />
<use xlink:href="#f0_2f" transform="matrix(12,0,0,12,533,210.2)" />
<use xlink:href="#f0_1x" transform="matrix(12,0,0,12,543.7,210.2)" />
<use xlink:href="#f0_2c" transform="matrix(12,0,0,12,555.5,210.2)" />
<use xlink:href="#f0_24" transform="matrix(12,0,0,12,564.6,210.2)" />
<use xlink:href="#f0_2b" transform="matrix(12,0,0,12,573.5,210.2)" />
<use xlink:href="#f0_2g" transform="matrix(12,0,0,12,583,210.2)" />
<use xlink:href="#f0_2b" transform="matrix(12,0,0,12,588.1,210.2)" />
<use xlink:href="#f0_2a" transform="matrix(12,0,0,12,597.7,210.2)" />
<use xlink:href="#f0_2j" transform="matrix(12,0,0,12,609.8,210.2)" />
<use xlink:href="#f0_24" transform="matrix(12,0,0,12,623,210.2)" />
<use xlink:href="#f0_25" transform="matrix(12,0,0,12,631.8,210.2)" />
<use xlink:href="#f0_1z" transform="matrix(12,0,0,12,636.2,210.2)" />
<use xlink:href="#f0_24" transform="matrix(12,0,0,12,644.3,210.2)" />
<use xlink:href="#f0_21" transform="matrix(12,0,0,12,656.8,210.2)" />
<use xlink:href="#f0_2k" transform="matrix(12,0,0,12,664.9,210.2)" />
<use xlink:href="#f0_1z" transform="matrix(12,0,0,12,673.7,210.2)" />
<use xlink:href="#f0_25" transform="matrix(12,0,0,12,681.8,210.2)" />
<use xlink:href="#f0_2g" transform="matrix(12,0,0,12,686.2,210.2)" />
<use xlink:href="#f0_21" transform="matrix(12,0,0,12,691.7,210.2)" />
<use xlink:href="#f0_2f" transform="matrix(12,0,0,12,699.8,210.2)" />
<use xlink:href="#f0_25" transform="matrix(12,0,0,12,710.5,210.2)" />
<use xlink:href="#f0_2g" transform="matrix(12,0,0,12,714.5,210.2)" />
<use xlink:href="#f0_2g" transform="matrix(12,0,0,12,723.7,210.2)" />
<use xlink:href="#f0_2b" transform="matrix(12,0,0,12,729.2,210.2)" />
<use xlink:href="#f0_2g" transform="matrix(12,0,0,12,742.1,210.2)" />
<use xlink:href="#f0_24" transform="matrix(12,0,0,12,747.6,210.2)" />
<use xlink:href="#f0_21" transform="matrix(12,0,0,12,756.4,210.2)" />
<use xlink:href="#f1_2a" transform="matrix(12,0,0,12,767.1,210.2)" />
<use xlink:href="#f0_x" transform="matrix(12,0,0,12,779.9,210.2)" />
<use xlink:href="#f0_o" transform="matrix(12,0,0,12,793.5,210.2)" />
<use xlink:href="#f0_28" transform="matrix(12,0,0,12,806,210.2)" />
<use xlink:href="#f0_21" transform="matrix(12,0,0,12,810.4,210.2)" />
<use xlink:href="#f0_2i" transform="matrix(12,0,0,12,818.5,210.2)" />
<use xlink:href="#f0_21" transform="matrix(12,0,0,12,827.3,210.2)" />
<use xlink:href="#f0_28" transform="matrix(12,0,0,12,835.4,210.2)" />
<use xlink:href="#f0_i" transform="matrix(12,0,0,12,839.8,210.2)" />
<use xlink:href="#f0_15" transform="matrix(12,0,0,12,155.8,234.4)" />
<use xlink:href="#f0_2f" transform="matrix(12,0,0,12,166.8,234.4)" />
<use xlink:href="#f0_2g" transform="matrix(12,0,0,12,173.5,234.4)" />
<use xlink:href="#f0_25" transform="matrix(12,0,0,12,178.6,234.4)" />
<use xlink:href="#f0_29" transform="matrix(12,0,0,12,182.6,234.4)" />
<use xlink:href="#f0_1x" transform="matrix(12,0,0,12,195.9,234.4)" />
<use xlink:href="#f0_2g" transform="matrix(12,0,0,12,203.6,234.4)" />
<use xlink:href="#f0_21" transform="matrix(12,0,0,12,209.1,234.4)" />
<use xlink:href="#f0_2g" transform="matrix(12,0,0,12,220.1,234.4)" />
<use xlink:href="#f0_24" transform="matrix(12,0,0,12,225.2,234.4)" />
<use xlink:href="#f0_21" transform="matrix(12,0,0,12,233.7,234.4)" />
<use xlink:href="#f0_22" transform="matrix(12,0,0,12,244.7,234.4)" />
<use xlink:href="#f0_2e" transform="matrix(12,0,0,12,249.9,234.4)" />
<use xlink:href="#f0_21" transform="matrix(12,0,0,12,255.8,234.4)" />
<use xlink:href="#f0_2d" transform="matrix(12,0,0,12,263.5,234.4)" />
<use xlink:href="#f0_2h" transform="matrix(12,0,0,12,272.3,234.4)" />
<use xlink:href="#f0_21" transform="matrix(12,0,0,12,281.1,234.4)" />
<use xlink:href="#f0_2a" transform="matrix(12,0,0,12,289.2,234.4)" />
<use xlink:href="#f0_1z" transform="matrix(12,0,0,12,297.7,234.4)" />
<use xlink:href="#f0_2l" transform="matrix(12,0,0,12,305.4,234.4)" />
<use xlink:href="#f0_2b" transform="matrix(12,0,0,12,316.4,234.4)" />
<use xlink:href="#f0_22" transform="matrix(12,0,0,12,325.6,234.4)" />
<use xlink:href="#f0_2g" transform="matrix(12,0,0,12,334,234.4)" />
<use xlink:href="#f0_24" transform="matrix(12,0,0,12,339.2,234.4)" />
<use xlink:href="#f0_21" transform="matrix(12,0,0,12,347.6,234.4)" />
<use xlink:href="#f0_2c" transform="matrix(12,0,0,12,358.7,234.4)" />
<use xlink:href="#f0_24" transform="matrix(12,0,0,12,367.8,234.4)" />
<use xlink:href="#f0_2b" transform="matrix(12,0,0,12,376.3,234.4)" />
<use xlink:href="#f0_2g" transform="matrix(12,0,0,12,385.4,234.4)" />
<use xlink:href="#f0_2b" transform="matrix(12,0,0,12,390.6,234.4)" />
<use xlink:href="#f0_2a" transform="matrix(12,0,0,12,399.7,234.4)" />
<use xlink:href="#f0_i" transform="matrix(12,0,0,12,408.2,234.4)" />
<use xlink:href="#f0_11" transform="matrix(12,0,0,12,64.9,283.6)" />
<use xlink:href="#f0_2a" transform="matrix(12,0,0,12,77.4,283.6)" />
<use xlink:href="#f0_2f" transform="matrix(12,0,0,12,85.8,283.6)" />
<use xlink:href="#f0_i" transform="matrix(12,0,0,12,92.4,283.6)" />
</g>
<path d="M229.3,276.6h19.5" class="g2_13" />
<g fill="#000000" >
<use xlink:href="#f0_o" transform="matrix(6.9,0,0,6.9,170.5,285.8)" />
<use xlink:href="#f0_l" transform="matrix(6.9,0,0,6.9,204.2,285.8)" />
</g>
<g clip-path="url(#c3_13)">
<g fill="#000000" >
<use xlink:href="#f1_24" transform="matrix(11.9,0,0,11.9,230.6,269.6)" />
<use xlink:href="#f1_2i" transform="matrix(11.9,0,0,11.9,239.8,269.6)" />
</g>
</g>
<g fill="#000000" >
<use xlink:href="#f1_15" transform="matrix(11.9,0,0,11.9,159.1,281)" />
<use xlink:href="#f1_15" transform="matrix(11.9,0,0,11.9,194.3,281)" />
</g>
<g clip-path="url(#c4_13)">
<g fill="#000000" >
<use xlink:href="#f1_21" transform="matrix(11.9,0,0,11.9,235,295.3)" />
</g>
</g>
<g fill="#000000" >
<use xlink:href="#f3_h" transform="matrix(11.9,0,0,11.9,180.4,281)" />
<use xlink:href="#f3_x" transform="matrix(11.9,0,0,11.9,214.9,281)" />
</g>
<path d="M171.6,340.5h32m66.3,0H377" class="g3_13" />
<g fill="#000000" >
<use xlink:href="#f0_n" transform="matrix(7,0,0,7,339.5,325.4)" />
<use xlink:href="#f0_o" transform="matrix(7,0,0,7,345,325.4)" />
<use xlink:href="#f0_l" transform="matrix(7,0,0,7,346.5,351.4)" />
<use xlink:href="#f0_t" transform="matrix(7,0,0,7,351.6,351.4)" />
<use xlink:href="#f0_l" transform="matrix(12,0,0,12,170.9,333.4)" />
<use xlink:href="#f0_n" transform="matrix(12,0,0,12,180,333.4)" />
<use xlink:href="#f0_i" transform="matrix(12,0,0,12,189.2,333.4)" />
<use xlink:href="#f0_q" transform="matrix(12,0,0,12,194,333.4)" />
<use xlink:href="#f0_q" transform="matrix(12,0,0,12,270.6,333.4)" />
<use xlink:href="#f0_i" transform="matrix(12,0,0,12,280.1,333.4)" />
<use xlink:href="#f0_q" transform="matrix(12,0,0,12,284.6,333.4)" />
<use xlink:href="#f0_n" transform="matrix(12,0,0,12,293.7,333.4)" />
<use xlink:href="#f0_l" transform="matrix(12,0,0,12,315,333.4)" />
<use xlink:href="#f0_k" transform="matrix(12,0,0,12,324.2,333.4)" />
<use xlink:href="#f0_l" transform="matrix(12,0,0,12,218.9,345.2)" />
<use xlink:href="#f0_n" transform="matrix(12,0,0,12,228.1,345.2)" />
<use xlink:href="#f0_i" transform="matrix(12,0,0,12,237.3,345.2)" />
<use xlink:href="#f0_q" transform="matrix(12,0,0,12,242,345.2)" />
</g>
<g clip-path="url(#c5_13)">
<g fill="#000000" >
<use xlink:href="#f0_o" transform="matrix(12,0,0,12,183.3,359.5)" />
<use xlink:href="#f0_l" transform="matrix(12,0,0,12,286.4,359.5)" />
<use xlink:href="#f0_i" transform="matrix(12,0,0,12,295.5,359.5)" />
<use xlink:href="#f0_q" transform="matrix(12,0,0,12,300.3,359.5)" />
<use xlink:href="#f0_l" transform="matrix(12,0,0,12,321.5,359.5)" />
<use xlink:href="#f0_k" transform="matrix(12,0,0,12,331.1,359.5)" />
</g>
</g>
<g clip-path="url(#c6_13)">
<g fill="#000000" >
<use xlink:href="#f2_2a" transform="matrix(12,0,-3.2,12,363.7,333.4)" />
</g>
</g>
<g fill="#000000" >
<use xlink:href="#f3_h" transform="matrix(7,0,0,7,333.7,325.4)" />
<use xlink:href="#f3_h" transform="matrix(7,0,0,7,340.6,351.4)" />
</g>
<g clip-path="url(#c7_13)">
<g fill="#000000" >
<use xlink:href="#f3_3a" transform="matrix(12,0,0,12,304.3,333.4)" />
<use xlink:href="#f3_3a" transform="matrix(12,0,0,12,353.8,333.4)" />
</g>
</g>
<g fill="#000000" >
<use xlink:href="#f3_h" transform="matrix(12,0,0,12,158.8,345.2)" />
<use xlink:href="#f3_f" transform="matrix(12,0,0,12,207.2,345.2)" />
<use xlink:href="#f3_x" transform="matrix(12,0,0,12,255.2,345.2)" />
<use xlink:href="#f3_3a" transform="matrix(12,0,0,12,310.9,359.5)" />
</g>
<path d="M633.6,307H478.9v-1.4H633.6V307Z" class="g4_13" />
<path d="M634.7,364.6H480v-1.5H634.7v1.5Z" class="g4_13" />
<path d="M562.3,310v53.9h-1.4V310h1.4Zm-.3,-1.9l-1.1,1.1H562l-3.7,5.9l-1.5,-.7l4.1,-6.3H562Zm0,0h-1.1l.7,-.7l.4,.7Zm3.3,6.6l-.4,.4l-4,-5.9l1.1,-1.1l4,6.3l-.7,.3Z" class="g4_13" />
<g clip-path="url(#c8_13)">
<g fill="#1F1A17" >
<use xlink:href="#f0_2a" transform="matrix(12,0,0,12,447.3,312.5)" />
<use xlink:href="#f0_x" transform="matrix(12,0,0,12,456.5,312.5)" />
<use xlink:href="#f0_o" transform="matrix(12,0,0,12,466.8,312.5)" />
</g>
</g>
<g clip-path="url(#c9_13)">
<g fill="#1F1A17" >
<use xlink:href="#f0_2a" transform="matrix(12,0,0,12,447.3,369.4)" />
<use xlink:href="#f0_x" transform="matrix(12,0,0,12,456.5,369.4)" />
<use xlink:href="#f0_l" transform="matrix(12,0,0,12,466.8,369.4)" />
</g>
</g>
<path d="M552.4,336.4H519.3v-1.9h33.1v1.9Zm1.5,-.4l-.8,-1.1V336l-6.2,-3.7l.7,-1.4l6.3,4V336Zm0,0v-1.1l1.1,.7l-1.1,.4Zm-6.6,3.3l-.4,-.4l6.2,-4l.8,1.1l-6.3,4l-.3,-.7Z" class="g4_13" />
<g fill="#1F1A17" >
<use xlink:href="#f1_24" transform="matrix(12,0,0,12,585.2,342.2)" />
<use xlink:href="#f1_2i" transform="matrix(12,0,0,12,594.4,342.2)" />
</g>
<path d="M221.1,406.3H232m27.9,0h82.5" class="g5_13" />
<g fill="#000000" >
<use xlink:href="#f0_n" transform="matrix(7,0,0,7,329.3,391)" />
<use xlink:href="#f0_o" transform="matrix(7,0,0,7,334.4,391)" />
<use xlink:href="#f0_l" transform="matrix(7,0,0,7,324.1,417)" />
<use xlink:href="#f0_t" transform="matrix(7,0,0,7,329.3,417)" />
<use xlink:href="#f0_l" transform="matrix(12.1,0,0,12.1,222.2,399.1)" />
<use xlink:href="#f0_q" transform="matrix(12.1,0,0,12.1,260.7,399.1)" />
<use xlink:href="#f0_i" transform="matrix(12.1,0,0,12.1,269.9,399.1)" />
<use xlink:href="#f0_q" transform="matrix(12.1,0,0,12.1,274.6,399.1)" />
<use xlink:href="#f0_n" transform="matrix(12.1,0,0,12.1,283.8,399.1)" />
<use xlink:href="#f0_l" transform="matrix(12.1,0,0,12.1,304.7,399.1)" />
<use xlink:href="#f0_k" transform="matrix(12.1,0,0,12.1,313.9,399.1)" />
<use xlink:href="#f0_l" transform="matrix(12.1,0,0,12.1,156.6,410.8)" />
<use xlink:href="#f0_n" transform="matrix(12.1,0,0,12.1,165.7,410.8)" />
<use xlink:href="#f0_i" transform="matrix(12.1,0,0,12.1,174.9,410.8)" />
<use xlink:href="#f0_q" transform="matrix(12.1,0,0,12.1,179.7,410.8)" />
<use xlink:href="#f0_l" transform="matrix(12.1,0,0,12.1,197.3,410.8)" />
<use xlink:href="#f0_o" transform="matrix(12.1,0,0,12.1,222.2,425.5)" />
<use xlink:href="#f0_l" transform="matrix(12.1,0,0,12.1,264.4,425.5)" />
<use xlink:href="#f0_i" transform="matrix(12.1,0,0,12.1,273.5,425.5)" />
<use xlink:href="#f0_q" transform="matrix(12.1,0,0,12.1,278,425.5)" />
<use xlink:href="#f0_l" transform="matrix(12.1,0,0,12.1,299.6,425.5)" />
<use xlink:href="#f0_k" transform="matrix(12.1,0,0,12.1,308.8,425.5)" />
</g>
<g clip-path="url(#c10_13)">
<g fill="#000000" >
<use xlink:href="#f2_2a" transform="matrix(12.1,0,-3.2,12.1,342.8,410.8)" />
</g>
</g>
<g fill="#000000" >
<use xlink:href="#f3_h" transform="matrix(7,0,0,7,323.4,391)" />
<use xlink:href="#f3_h" transform="matrix(7,0,0,7,318.3,417)" />
<use xlink:href="#f3_3a" transform="matrix(12.1,0,0,12.1,294.1,399.1)" />
<use xlink:href="#f3_4r" transform="matrix(12.1,0,0,12.1,191.4,400.5)" />
<use xlink:href="#f3_57" transform="matrix(12.1,0,0,12.1,233.6,400.5)" />
<use xlink:href="#f3_h" transform="matrix(12.1,0,0,12.1,207.5,410.8)" />
<use xlink:href="#f3_x" transform="matrix(12.1,0,0,12.1,245.3,410.8)" />
<use xlink:href="#f3_4s" transform="matrix(12.1,0,0,12.1,191.4,418.5)" />
<use xlink:href="#f3_58" transform="matrix(12.1,0,0,12.1,233.6,418.5)" />
<use xlink:href="#f3_3a" transform="matrix(12.1,0,0,12.1,288.9,425.5)" />
<use xlink:href="#f3_4t" transform="matrix(12.1,0,0,12.1,191.4,427.3)" />
<use xlink:href="#f3_59" transform="matrix(12.1,0,0,12.1,233.6,427.3)" />
</g>
<path d="M158.9,474.3H297.8" class="g6_13" />
<g fill="#000000" >
<use xlink:href="#f0_l" transform="matrix(7,0,0,7,217.8,459.2)" />
<use xlink:href="#f0_t" transform="matrix(7,0,0,7,222.9,459.2)" />
<use xlink:href="#f0_n" transform="matrix(7,0,0,7,244.6,485.2)" />
<use xlink:href="#f0_o" transform="matrix(7,0,0,7,250.1,485.2)" />
<use xlink:href="#f0_l" transform="matrix(12,0,0,12,158,467.3)" />
<use xlink:href="#f0_i" transform="matrix(12,0,0,12,167.2,467.3)" />
<use xlink:href="#f0_q" transform="matrix(12,0,0,12,172,467.3)" />
<use xlink:href="#f0_l" transform="matrix(12,0,0,12,193.2,467.3)" />
<use xlink:href="#f0_k" transform="matrix(12,0,0,12,202.4,467.3)" />
<use xlink:href="#f0_l" transform="matrix(12,0,0,12,242.7,467.3)" />
<use xlink:href="#f0_n" transform="matrix(12,0,0,12,251.9,467.3)" />
<use xlink:href="#f0_i" transform="matrix(12,0,0,12,261.1,467.3)" />
<use xlink:href="#f0_q" transform="matrix(12,0,0,12,265.9,467.3)" />
<use xlink:href="#f0_n" transform="matrix(12,0,0,12,288.6,467.3)" />
</g>
<g clip-path="url(#c11_13)">
<g fill="#000000" >
<use xlink:href="#f0_q" transform="matrix(12,0,0,12,176.4,493.3)" />
<use xlink:href="#f0_i" transform="matrix(12,0,0,12,185.5,493.3)" />
<use xlink:href="#f0_q" transform="matrix(12,0,0,12,190,493.3)" />
<use xlink:href="#f0_n" transform="matrix(12,0,0,12,199.1,493.3)" />
<use xlink:href="#f0_l" transform="matrix(12,0,0,12,220,493.3)" />
<use xlink:href="#f0_k" transform="matrix(12,0,0,12,229.2,493.3)" />
<use xlink:href="#f0_o" transform="matrix(12,0,0,12,271.7,493.3)" />
</g>
</g>
<g clip-path="url(#c12_13)">
<g fill="#000000" >
<use xlink:href="#f2_2a" transform="matrix(12,0,-3.2,12,314.2,479)" />
</g>
</g>
<g fill="#000000" >
<use xlink:href="#f3_h" transform="matrix(7,0,0,7,211.9,459.2)" />
<use xlink:href="#f3_h" transform="matrix(7,0,0,7,238.7,485.2)" />
<use xlink:href="#f3_3a" transform="matrix(12,0,0,12,182.6,467.3)" />
<use xlink:href="#f3_3a" transform="matrix(12,0,0,12,232.1,467.3)" />
<use xlink:href="#f3_3a" transform="matrix(12,0,0,12,276.4,467.3)" />
</g>
<g clip-path="url(#c13_13)">
<g fill="#000000" >
<use xlink:href="#f3_x" transform="matrix(12,0,0,12,302.5,479)" />
</g>
</g>
<g fill="#000000" >
<use xlink:href="#f3_3a" transform="matrix(12,0,0,12,209.4,493.3)" />
<use xlink:href="#f3_3a" transform="matrix(12,0,0,12,258.9,493.3)" />
<use xlink:href="#f0_l" transform="matrix(6.9,0,0,6.9,266.6,520.8)" />
<use xlink:href="#f0_p" transform="matrix(6.9,0,0,6.9,271.7,520.8)" />
<use xlink:href="#f0_m" transform="matrix(11.9,0,0,11.9,186.6,529.2)" />
<use xlink:href="#f0_i" transform="matrix(11.9,0,0,11.9,195.8,529.2)" />
<use xlink:href="#f0_o" transform="matrix(11.9,0,0,11.9,200.2,529.2)" />
<use xlink:href="#f0_q" transform="matrix(11.9,0,0,11.9,209.4,529.2)" />
<use xlink:href="#f0_l" transform="matrix(11.9,0,0,11.9,218.5,529.2)" />
<use xlink:href="#f0_p" transform="matrix(11.9,0,0,11.9,227.7,529.2)" />
<use xlink:href="#f0_l" transform="matrix(11.9,0,0,11.9,248.9,529.2)" />
<use xlink:href="#f0_k" transform="matrix(11.9,0,0,11.9,258.1,529.2)" />
</g>
<g clip-path="url(#c14_13)">
<g fill="#000000" >
<use xlink:href="#f1_18" transform="matrix(11.9,0,0,11.9,279.8,529.2)" />
<use xlink:href="#f1_2m" transform="matrix(11.9,0,0,11.9,293,529.2)" />
</g>
</g>
<g fill="#000000" >
<use xlink:href="#f2_2a" transform="matrix(11.9,0,-3.2,11.9,155.8,529.2)" />
<use xlink:href="#f3_x" transform="matrix(11.9,0,0,11.9,172.3,529.2)" />
<use xlink:href="#f3_3a" transform="matrix(11.9,0,0,11.9,238.3,529.2)" />
<use xlink:href="#f0_l" transform="matrix(12,0,0,12,64.9,605.5)" />
<use xlink:href="#f0_t" transform="matrix(12,0,0,12,74.1,605.5)" />
<use xlink:href="#f0_i" transform="matrix(12,0,0,12,83.2,605.5)" />
<use xlink:href="#f0_c" transform="matrix(12,0,0,12,117,605.5)" />
<use xlink:href="#f0_1x" transform="matrix(12,0,0,12,122.5,605.5)" />
<use xlink:href="#f0_d" transform="matrix(12,0,0,12,130.2,605.5)" />
<use xlink:href="#f0_15" transform="matrix(12,0,0,12,155.8,605.5)" />
<use xlink:href="#f0_2k" transform="matrix(12,0,0,12,167.2,605.5)" />
<use xlink:href="#f0_2c" transform="matrix(12,0,0,12,176,605.5)" />
<use xlink:href="#f0_28" transform="matrix(12,0,0,12,185.2,605.5)" />
<use xlink:href="#f0_1x" transform="matrix(12,0,0,12,189.6,605.5)" />
<use xlink:href="#f0_25" transform="matrix(12,0,0,12,197.7,605.5)" />
<use xlink:href="#f0_2a" transform="matrix(12,0,0,12,202.1,605.5)" />
<use xlink:href="#f0_2g" transform="matrix(12,0,0,12,214.6,605.5)" />
<use xlink:href="#f0_24" transform="matrix(12,0,0,12,220.1,605.5)" />
<use xlink:href="#f0_21" transform="matrix(12,0,0,12,228.9,605.5)" />
<use xlink:href="#f0_2c" transform="matrix(12,0,0,12,240.7,605.5)" />
<use xlink:href="#f0_2e" transform="matrix(12,0,0,12,249.8,605.5)" />
<use xlink:href="#f0_2b" transform="matrix(12,0,0,12,256.1,605.5)" />
<use xlink:href="#f0_1z" transform="matrix(12,0,0,12,265.6,605.5)" />
<use xlink:href="#f0_21" transform="matrix(12,0,0,12,273.7,605.5)" />
<use xlink:href="#f0_2f" transform="matrix(12,0,0,12,281.8,605.5)" />
<use xlink:href="#f0_2f" transform="matrix(12,0,0,12,288.8,605.5)" />
<use xlink:href="#f0_21" transform="matrix(12,0,0,12,295.7,605.5)" />
<use xlink:href="#f0_2f" transform="matrix(12,0,0,12,303.8,605.5)" />
<use xlink:href="#f0_2b" transform="matrix(12,0,0,12,314.5,605.5)" />
<use xlink:href="#f0_22" transform="matrix(12,0,0,12,324,605.5)" />
<use xlink:href="#f0_2a" transform="matrix(12,0,0,12,333.2,605.5)" />
<use xlink:href="#f0_2h" transform="matrix(12,0,0,12,342,605.5)" />
<use xlink:href="#f0_1z" transform="matrix(12,0,0,12,351.2,605.5)" />
<use xlink:href="#f0_28" transform="matrix(12,0,0,12,359.3,605.5)" />
<use xlink:href="#f0_21" transform="matrix(12,0,0,12,363.7,605.5)" />
<use xlink:href="#f0_1x" transform="matrix(12,0,0,12,371.8,605.5)" />
<use xlink:href="#f0_2e" transform="matrix(12,0,0,12,379.9,605.5)" />
<use xlink:href="#f0_22" transform="matrix(12,0,0,12,389.8,605.5)" />
<use xlink:href="#f0_25" transform="matrix(12,0,0,12,395.3,605.5)" />
<use xlink:href="#f0_2f" transform="matrix(12,0,0,12,399.7,605.5)" />
<use xlink:href="#f0_2f" transform="matrix(12,0,0,12,406.7,605.5)" />
<use xlink:href="#f0_25" transform="matrix(12,0,0,12,413.7,605.5)" />
<use xlink:href="#f0_2b" transform="matrix(12,0,0,12,418.1,605.5)" />
<use xlink:href="#f0_2a" transform="matrix(12,0,0,12,427.6,605.5)" />
<use xlink:href="#f0_1x" transform="matrix(12,0,0,12,440.1,605.5)" />
<use xlink:href="#f0_2a" transform="matrix(12,0,0,12,448.2,605.5)" />
<use xlink:href="#f0_2f" transform="matrix(12,0,0,12,457,605.5)" />
<use xlink:href="#f0_2a" transform="matrix(12,0,0,12,467.7,605.5)" />
<use xlink:href="#f0_2h" transform="matrix(12,0,0,12,476.5,605.5)" />
<use xlink:href="#f0_1z" transform="matrix(12,0,0,12,485.7,605.5)" />
<use xlink:href="#f0_28" transform="matrix(12,0,0,12,493.8,605.5)" />
<use xlink:href="#f0_21" transform="matrix(12,0,0,12,498.2,605.5)" />
<use xlink:href="#f0_1x" transform="matrix(12,0,0,12,506.3,605.5)" />
<use xlink:href="#f0_2e" transform="matrix(12,0,0,12,514.4,605.5)" />
<use xlink:href="#f0_22" transform="matrix(12,0,0,12,523.9,605.5)" />
<use xlink:href="#f0_2h" transform="matrix(12,0,0,12,529.4,605.5)" />
<use xlink:href="#f0_2f" transform="matrix(12,0,0,12,538.6,605.5)" />
<use xlink:href="#f0_25" transform="matrix(12,0,0,12,545.6,605.5)" />
<use xlink:href="#f0_2b" transform="matrix(12,0,0,12,550,605.5)" />
<use xlink:href="#f0_2a" transform="matrix(12,0,0,12,559.5,605.5)" />
<use xlink:href="#f0_1y" transform="matrix(12,0,0,12,572,605.5)" />
<use xlink:href="#f0_2l" transform="matrix(12,0,0,12,580.8,605.5)" />
<use xlink:href="#f0_2h" transform="matrix(12,0,0,12,593,605.5)" />
<use xlink:href="#f0_2f" transform="matrix(12,0,0,12,602.1,605.5)" />
<use xlink:href="#f0_25" transform="matrix(12,0,0,12,609.1,605.5)" />
<use xlink:href="#f0_2a" transform="matrix(12,0,0,12,613.5,605.5)" />
<use xlink:href="#f0_23" transform="matrix(12,0,0,12,622.4,605.5)" />
<use xlink:href="#f0_2g" transform="matrix(12,0,0,12,635.2,605.5)" />
<use xlink:href="#f0_24" transform="matrix(12,0,0,12,640.7,605.5)" />
<use xlink:href="#f0_21" transform="matrix(12,0,0,12,649.5,605.5)" />
<use xlink:href="#f0_2c" transform="matrix(12,0,0,12,661.3,605.5)" />
<use xlink:href="#f0_28" transform="matrix(12,0,0,12,670.5,605.5)" />
<use xlink:href="#f0_2b" transform="matrix(12,0,0,12,674.9,605.5)" />
<use xlink:href="#f0_2g" transform="matrix(12,0,0,12,684.4,605.5)" />
<use xlink:href="#f0_2b" transform="matrix(12,0,0,12,693.6,605.5)" />
<use xlink:href="#f0_22" transform="matrix(12,0,0,12,703.1,605.5)" />
<use xlink:href="#f0_1y" transform="matrix(12,0,0,12,712.3,605.5)" />
<use xlink:href="#f0_25" transform="matrix(12,0,0,12,721.1,605.5)" />
<use xlink:href="#f0_2a" transform="matrix(12,0,0,12,725.6,605.5)" />
<use xlink:href="#f0_20" transform="matrix(12,0,0,12,734.4,605.5)" />
<use xlink:href="#f0_25" transform="matrix(12,0,0,12,743.5,605.5)" />
<use xlink:href="#f0_2a" transform="matrix(12,0,0,12,748,605.5)" />
<use xlink:href="#f0_23" transform="matrix(12,0,0,12,756.8,605.5)" />
<use xlink:href="#f0_21" transform="matrix(12,0,0,12,769.6,605.5)" />
<use xlink:href="#f0_2a" transform="matrix(12,0,0,12,777.7,605.5)" />
<use xlink:href="#f0_21" transform="matrix(12,0,0,12,786.5,605.5)" />
<use xlink:href="#f0_2e" transform="matrix(12,0,0,12,794.6,605.5)" />
<use xlink:href="#f0_23" transform="matrix(12,0,0,12,800.8,605.5)" />
<use xlink:href="#f0_2l" transform="matrix(12,0,0,12,810,605.5)" />
<use xlink:href="#f0_2c" transform="matrix(12,0,0,12,822.1,605.5)" />
<use xlink:href="#f0_21" transform="matrix(12,0,0,12,831.3,605.5)" />
<use xlink:href="#f0_2e" transform="matrix(12,0,0,12,839.4,605.5)" />
<use xlink:href="#f0_2a" transform="matrix(12,0,0,12,155.8,629.7)" />
<use xlink:href="#f0_2h" transform="matrix(12,0,0,12,164.3,629.7)" />
<use xlink:href="#f0_1z" transform="matrix(12,0,0,12,173.1,629.7)" />
<use xlink:href="#f0_28" transform="matrix(12,0,0,12,181.2,629.7)" />
<use xlink:href="#f0_21" transform="matrix(12,0,0,12,185.2,629.7)" />
<use xlink:href="#f0_2b" transform="matrix(12,0,0,12,193,629.7)" />
<use xlink:href="#f0_2a" transform="matrix(12,0,0,12,202.1,629.7)" />
<use xlink:href="#f0_c" transform="matrix(12,0,0,12,214.3,629.7)" />
<use xlink:href="#f0_12" transform="matrix(12,0,0,12,220.1,629.7)" />
<use xlink:href="#f0_15" transform="matrix(12,0,0,12,231.9,629.7)" />
<use xlink:href="#f0_j" transform="matrix(12,0,0,12,243.2,629.7)" />
<use xlink:href="#f0_11" transform="matrix(12,0,0,12,248,629.7)" />
<use xlink:href="#f0_d" transform="matrix(12,0,0,12,260.5,629.7)" />
<use xlink:href="#f0_2i" transform="matrix(12,0,0,12,269.7,629.7)" />
<use xlink:href="#f0_21" transform="matrix(12,0,0,12,278.5,629.7)" />
<use xlink:href="#f0_2e" transform="matrix(12,0,0,12,286.2,629.7)" />
<use xlink:href="#f0_2f" transform="matrix(12,0,0,12,292.1,629.7)" />
<use xlink:href="#f0_2h" transform="matrix(12,0,0,12,298.7,629.7)" />
<use xlink:href="#f0_2f" transform="matrix(12,0,0,12,307.9,629.7)" />
<use xlink:href="#f0_2g" transform="matrix(12,0,0,12,317.5,629.7)" />
<use xlink:href="#f0_24" transform="matrix(12,0,0,12,322.6,629.7)" />
<use xlink:href="#f0_21" transform="matrix(12,0,0,12,331.4,629.7)" />
<use xlink:href="#f0_29" transform="matrix(12,0,0,12,342.5,629.7)" />
<use xlink:href="#f0_1x" transform="matrix(12,0,0,12,355.7,629.7)" />
<use xlink:href="#f0_2f" transform="matrix(12,0,0,12,363.4,629.7)" />
<use xlink:href="#f0_2f" transform="matrix(12,0,0,12,370.4,629.7)" />
<use xlink:href="#f0_2a" transform="matrix(12,0,0,12,380.3,629.7)" />
<use xlink:href="#f0_2h" transform="matrix(12,0,0,12,388.8,629.7)" />
<use xlink:href="#f0_29" transform="matrix(12,0,0,12,397.9,629.7)" />
<use xlink:href="#f0_1y" transform="matrix(12,0,0,12,411.1,629.7)" />
<use xlink:href="#f0_21" transform="matrix(12,0,0,12,419.6,629.7)" />
<use xlink:href="#f0_2e" transform="matrix(12,0,0,12,427.3,629.7)" />
<use xlink:href="#f0_11" transform="matrix(12,0,0,12,435.8,629.7)" />
<use xlink:href="#f0_i" transform="matrix(12,0,0,12,448.2,629.7)" />
<use xlink:href="#f0_11" transform="matrix(12,0,0,12,64.9,658.7)" />
<use xlink:href="#f0_2a" transform="matrix(12,0,0,12,77.4,658.7)" />
<use xlink:href="#f0_2f" transform="matrix(12,0,0,12,85.8,658.7)" />
<use xlink:href="#f0_i" transform="matrix(12,0,0,12,92.4,658.7)" />
<use xlink:href="#f4_1e" transform="matrix(12,0,0,12,155.8,658.7)" />
<use xlink:href="#f4_2h" transform="matrix(12,0,0,12,169,658.7)" />
<use xlink:href="#f4_1z" transform="matrix(12,0,0,12,179.3,658.7)" />
<use xlink:href="#f4_28" transform="matrix(12,0,0,12,187.4,658.7)" />
<use xlink:href="#f4_21" transform="matrix(12,0,0,12,192.2,658.7)" />
<use xlink:href="#f4_1x" transform="matrix(12,0,0,12,200.3,658.7)" />
<use xlink:href="#f4_2e" transform="matrix(12,0,0,12,209.4,658.7)" />
<use xlink:href="#f4_16" transform="matrix(12,0,0,12,220.8,658.7)" />
<use xlink:href="#f4_25" transform="matrix(12,0,0,12,231.8,658.7)" />
<use xlink:href="#f4_2f" transform="matrix(12,0,0,12,237,658.7)" />
<use xlink:href="#f4_2f" transform="matrix(12,0,0,12,244,658.7)" />
<use xlink:href="#f4_25" transform="matrix(12,0,0,12,250.9,658.7)" />
<use xlink:href="#f4_2b" transform="matrix(12,0,0,12,256.1,658.7)" />
<use xlink:href="#f4_2a" transform="matrix(12,0,0,12,265.2,658.7)" />
<use xlink:href="#f4_u" transform="matrix(12,0,0,12,279.2,658.7)" />
<use xlink:href="#f0_1n" transform="matrix(12,0,0,12,155.8,686.2)" />
<use xlink:href="#f0_24" transform="matrix(12,0,0,12,172.3,686.2)" />
<use xlink:href="#f0_21" transform="matrix(12,0,0,12,181.2,686.2)" />
<use xlink:href="#f0_2a" transform="matrix(12,0,0,12,188.9,686.2)" />
<use xlink:href="#f0_24" transform="matrix(12,0,0,12,201,686.2)" />
<use xlink:href="#f0_21" transform="matrix(12,0,0,12,209.5,686.2)" />
<use xlink:href="#f0_1x" transform="matrix(12,0,0,12,217.2,686.2)" />
<use xlink:href="#f0_2i" transform="matrix(12,0,0,12,224.9,686.2)" />
<use xlink:href="#f0_2l" transform="matrix(12,0,0,12,233.7,686.2)" />
<use xlink:href="#f0_2a" transform="matrix(12,0,0,12,245.1,686.2)" />
<use xlink:href="#f0_2h" transform="matrix(12,0,0,12,253.9,686.2)" />
<use xlink:href="#f0_1z" transform="matrix(12,0,0,12,262.8,686.2)" />
<use xlink:href="#f0_28" transform="matrix(12,0,0,12,270.5,686.2)" />
<use xlink:href="#f0_21" transform="matrix(12,0,0,12,274.9,686.2)" />
<use xlink:href="#f0_2h" transform="matrix(12,0,0,12,282.6,686.2)" />
<use xlink:href="#f0_2f" transform="matrix(12,0,0,12,291.4,686.2)" />
<use xlink:href="#f0_1y" transform="matrix(12,0,0,12,301.4,686.2)" />
<use xlink:href="#f0_2b" transform="matrix(12,0,0,12,309.8,686.2)" />
<use xlink:href="#f0_29" transform="matrix(12,0,0,12,319.3,686.2)" />
<use xlink:href="#f0_1y" transform="matrix(12,0,0,12,332.5,686.2)" />
<use xlink:href="#f0_1x" transform="matrix(12,0,0,12,341,686.2)" />
<use xlink:href="#f0_2e" transform="matrix(12,0,0,12,348.7,686.2)" />
<use xlink:href="#f0_20" transform="matrix(12,0,0,12,354.9,686.2)" />
<use xlink:href="#f0_21" transform="matrix(12,0,0,12,363.8,686.2)" />
<use xlink:href="#f0_20" transform="matrix(12,0,0,12,371.5,686.2)" />
<use xlink:href="#f0_2j" transform="matrix(12,0,0,12,384,686.2)" />
<use xlink:href="#f0_25" transform="matrix(12,0,0,12,396.8,686.2)" />
<use xlink:href="#f0_2g" transform="matrix(12,0,0,12,401.2,686.2)" />
<use xlink:href="#f0_24" transform="matrix(12,0,0,12,406.4,686.2)" />
<use xlink:href="#f0_2a" transform="matrix(12,0,0,12,418.5,686.2)" />
<use xlink:href="#f0_21" transform="matrix(12,0,0,12,426.9,686.2)" />
<use xlink:href="#f0_2h" transform="matrix(12,0,0,12,434.7,686.2)" />
<use xlink:href="#f0_2g" transform="matrix(12,0,0,12,443.8,686.2)" />
<use xlink:href="#f0_2e" transform="matrix(12,0,0,12,449,686.2)" />
<use xlink:href="#f0_2b" transform="matrix(12,0,0,12,454.8,686.2)" />
<use xlink:href="#f0_2a" transform="matrix(12,0,0,12,464,686.2)" />
<use xlink:href="#f0_2f" transform="matrix(12,0,0,12,472.8,686.2)" />
<use xlink:href="#f0_a" transform="matrix(12,0,0,12,482.8,686.2)" />
<use xlink:href="#f0_25" transform="matrix(12,0,0,12,499.7,686.2)" />
<use xlink:href="#f0_2g" transform="matrix(12,0,0,12,503.7,686.2)" />
<use xlink:href="#f0_2f" transform="matrix(12,0,0,12,512.5,686.2)" />
<use xlink:href="#f0_2c" transform="matrix(12,0,0,12,519.1,686.2)" />
<use xlink:href="#f0_28" transform="matrix(12,0,0,12,528.3,686.2)" />
<use xlink:href="#f0_25" transform="matrix(12,0,0,12,532.4,686.2)" />
<use xlink:href="#f0_2g" transform="matrix(12,0,0,12,536.4,686.2)" />
<use xlink:href="#f0_2f" transform="matrix(12,0,0,12,541.9,686.2)" />
<use xlink:href="#f0_25" transform="matrix(12,0,0,12,551.8,686.2)" />
<use xlink:href="#f0_2a" transform="matrix(12,0,0,12,555.9,686.2)" />
<use xlink:href="#f0_2g" transform="matrix(12,0,0,12,564.7,686.2)" />
<use xlink:href="#f0_2b" transform="matrix(12,0,0,12,569.8,686.2)" />
<use xlink:href="#f0_2f" transform="matrix(12,0,0,12,582.7,686.2)" />
<use xlink:href="#f0_29" transform="matrix(12,0,0,12,589.3,686.2)" />
<use xlink:href="#f0_1x" transform="matrix(12,0,0,12,602.5,686.2)" />
<use xlink:href="#f0_28" transform="matrix(12,0,0,12,610.6,686.2)" />
<use xlink:href="#f0_28" transform="matrix(12,0,0,12,614.7,686.2)" />
<use xlink:href="#f0_21" transform="matrix(12,0,0,12,618.7,686.2)" />
<use xlink:href="#f0_2e" transform="matrix(12,0,0,12,626.8,686.2)" />
<use xlink:href="#f0_2a" transform="matrix(12,0,0,12,636,686.2)" />
<use xlink:href="#f0_2h" transform="matrix(12,0,0,12,644.8,686.2)" />
<use xlink:href="#f0_1z" transform="matrix(12,0,0,12,653.6,686.2)" />
<use xlink:href="#f0_28" transform="matrix(12,0,0,12,661.3,686.2)" />
<use xlink:href="#f0_21" transform="matrix(12,0,0,12,665.4,686.2)" />
<use xlink:href="#f0_2h" transform="matrix(12,0,0,12,673.5,686.2)" />
<use xlink:href="#f0_2f" transform="matrix(12,0,0,12,682.3,686.2)" />
<use xlink:href="#f0_a" transform="matrix(12,0,0,12,692.2,686.2)" />
<use xlink:href="#f0_21" transform="matrix(12,0,0,12,709.1,686.2)" />
<use xlink:href="#f0_2a" transform="matrix(12,0,0,12,717.2,686.2)" />
<use xlink:href="#f0_21" transform="matrix(12,0,0,12,725.7,686.2)" />
<use xlink:href="#f0_2e" transform="matrix(12,0,0,12,733.4,686.2)" />
<use xlink:href="#f0_23" transform="matrix(12,0,0,12,739.6,686.2)" />
<use xlink:href="#f0_2l" transform="matrix(12,0,0,12,748.4,686.2)" />
<use xlink:href="#f0_2e" transform="matrix(12,0,0,12,760.2,686.2)" />
<use xlink:href="#f0_21" transform="matrix(12,0,0,12,766.1,686.2)" />
<use xlink:href="#f0_28" transform="matrix(12,0,0,12,773.8,686.2)" />
<use xlink:href="#f0_21" transform="matrix(12,0,0,12,777.9,686.2)" />
<use xlink:href="#f0_1x" transform="matrix(12,0,0,12,785.9,686.2)" />
<use xlink:href="#f0_2f" transform="matrix(12,0,0,12,793.7,686.2)" />
<use xlink:href="#f0_21" transform="matrix(12,0,0,12,800.3,686.2)" />
<use xlink:href="#f0_20" transform="matrix(12,0,0,12,808.4,686.2)" />
<use xlink:href="#f0_i" transform="matrix(12,0,0,12,817.2,686.2)" />
<use xlink:href="#f0_15" transform="matrix(12,0,0,12,155.8,719.5)" />
<use xlink:href="#f0_2k" transform="matrix(12,0,0,12,166.5,719.5)" />
<use xlink:href="#f0_u" transform="matrix(12,0,0,12,174.6,719.5)" />
<use xlink:href="#f0_m" transform="matrix(6.8,0,0,6.8,212.3,711.8)" />
<use xlink:href="#f0_n" transform="matrix(6.8,0,0,6.8,217.4,711.8)" />
<use xlink:href="#f0_p" transform="matrix(6.8,0,0,6.8,222.9,711.8)" />
<use xlink:href="#f0_l" transform="matrix(6.8,0,0,6.8,262.9,711.8)" />
<use xlink:href="#f0_l" transform="matrix(6.8,0,0,6.8,328.5,711.8)" />
<use xlink:href="#f0_o" transform="matrix(6.8,0,0,6.8,334,711.8)" />
<use xlink:href="#f0_o" transform="matrix(6.8,0,0,6.8,339.1,711.8)" />
<use xlink:href="#f0_s" transform="matrix(6.8,0,0,6.8,396.7,711.8)" />
<use xlink:href="#f0_t" transform="matrix(6.8,0,0,6.8,401.8,711.8)" />
<use xlink:href="#f0_l" transform="matrix(6.8,0,0,6.8,450.2,711.8)" />
<use xlink:href="#f0_t" transform="matrix(6.8,0,0,6.8,184.8,724.7)" />
<use xlink:href="#f0_m" transform="matrix(6.8,0,0,6.8,189.9,724.7)" />
<use xlink:href="#f0_p" transform="matrix(6.8,0,0,6.8,291.1,724.7)" />
<use xlink:href="#f0_q" transform="matrix(6.8,0,0,6.8,296.3,724.7)" />
<use xlink:href="#f0_n" transform="matrix(6.8,0,0,6.8,360.1,724.7)" />
<use xlink:href="#f0_q" transform="matrix(6.8,0,0,6.8,365.2,724.7)" />
<use xlink:href="#f0_k" transform="matrix(6.8,0,0,6.8,434.1,724.7)" />
<use xlink:href="#f0_n" transform="matrix(11.8,0,0,11.8,425.3,719.9)" />
</g>
<g clip-path="url(#c15_13)">
<g fill="#000000" >
<use xlink:href="#f1_1l" transform="matrix(11.8,0,0,11.8,196.2,719.9)" />
<use xlink:href="#f1_2a" transform="matrix(11.8,0,0,11.8,254.1,719.9)" />
<use xlink:href="#f1_12" transform="matrix(11.8,0,0,11.8,308.3,719.9)" />
<use xlink:href="#f1_1x" transform="matrix(11.8,0,0,11.8,319.7,719.9)" />
<use xlink:href="#f1_1b" transform="matrix(11.8,0,0,11.8,376.1,719.9)" />
<use xlink:href="#f1_2e" transform="matrix(11.8,0,0,11.8,388.6,719.9)" />
<use xlink:href="#f1_2a" transform="matrix(11.8,0,0,11.8,441.8,719.9)" />
<use xlink:href="#f1_15" transform="matrix(11.8,0,0,11.8,473.6,719.9)" />
<use xlink:href="#f1_2a" transform="matrix(11.8,0,0,11.8,485,719.9)" />
<use xlink:href="#f1_21" transform="matrix(11.8,0,0,11.8,494.2,719.9)" />
<use xlink:href="#f1_2e" transform="matrix(11.8,0,0,11.8,502.2,719.9)" />
<use xlink:href="#f1_23" transform="matrix(11.8,0,0,11.8,509.2,719.9)" />
<use xlink:href="#f1_2l" transform="matrix(11.8,0,0,11.8,518.3,719.9)" />
</g>
</g>
<g fill="#000000" >
<use xlink:href="#f3_f" transform="matrix(11.8,0,0,11.8,232.8,719.9)" />
<use xlink:href="#f3_34" transform="matrix(11.8,0,0,11.8,273.2,719.9)" />
<use xlink:href="#f3_f" transform="matrix(11.8,0,0,11.8,349.4,719.9)" />
<use xlink:href="#f3_f" transform="matrix(11.8,0,0,11.8,412.1,719.9)" />
<use xlink:href="#f3_f" transform="matrix(11.8,0,0,11.8,459.7,719.9)" />
<use xlink:href="#f4_1e" transform="matrix(12,0,0,12,155.8,751.1)" />
<use xlink:href="#f4_2h" transform="matrix(12,0,0,12,169,751.1)" />
<use xlink:href="#f4_1z" transform="matrix(12,0,0,12,179,751.1)" />
<use xlink:href="#f4_28" transform="matrix(12,0,0,12,187,751.1)" />
<use xlink:href="#f4_21" transform="matrix(12,0,0,12,191.8,751.1)" />
<use xlink:href="#f4_1x" transform="matrix(12,0,0,12,199.9,751.1)" />
<use xlink:href="#f4_2e" transform="matrix(12,0,0,12,208.7,751.1)" />
<use xlink:href="#f4_16" transform="matrix(12,0,0,12,220.1,751.1)" />
<use xlink:href="#f4_2h" transform="matrix(12,0,0,12,231.2,751.1)" />
<use xlink:href="#f4_2f" transform="matrix(12,0,0,12,241.1,751.1)" />
<use xlink:href="#f4_25" transform="matrix(12,0,0,12,248.1,751.1)" />
<use xlink:href="#f4_2b" transform="matrix(12,0,0,12,253.2,751.1)" />
<use xlink:href="#f4_2a" transform="matrix(12,0,0,12,262.3,751.1)" />
<use xlink:href="#f4_u" transform="matrix(12,0,0,12,275.9,751.1)" />
<use xlink:href="#f0_1n" transform="matrix(12,0,0,12,155.8,777.5)" />
<use xlink:href="#f0_24" transform="matrix(12,0,0,12,172.3,777.5)" />
<use xlink:href="#f0_21" transform="matrix(12,0,0,12,181.2,777.5)" />
<use xlink:href="#f0_2a" transform="matrix(12,0,0,12,188.9,777.5)" />
<use xlink:href="#f0_m" transform="matrix(12,0,0,12,201,777.5)" />
<use xlink:href="#f0_2f" transform="matrix(12,0,0,12,212.8,777.5)" />
<use xlink:href="#f0_29" transform="matrix(12,0,0,12,219.8,777.5)" />
<use xlink:href="#f0_1x" transform="matrix(12,0,0,12,233,777.5)" />
<use xlink:href="#f0_28" transform="matrix(12,0,0,12,240.7,777.5)" />
<use xlink:href="#f0_28" transform="matrix(12,0,0,12,244.8,777.5)" />
<use xlink:href="#f0_21" transform="matrix(12,0,0,12,249.2,777.5)" />
<use xlink:href="#f0_2e" transform="matrix(12,0,0,12,256.9,777.5)" />
<use xlink:href="#f0_2a" transform="matrix(12,0,0,12,266.5,777.5)" />
<use xlink:href="#f0_2h" transform="matrix(12,0,0,12,274.9,777.5)" />
<use xlink:href="#f0_1z" transform="matrix(12,0,0,12,283.7,777.5)" />
<use xlink:href="#f0_28" transform="matrix(12,0,0,12,291.8,777.5)" />
<use xlink:href="#f0_21" transform="matrix(12,0,0,12,295.9,777.5)" />
<use xlink:href="#f0_2h" transform="matrix(12,0,0,12,303.6,777.5)" />
<use xlink:href="#f0_2f" transform="matrix(12,0,0,12,312.7,777.5)" />
<use xlink:href="#f0_22" transform="matrix(12,0,0,12,322.7,777.5)" />
<use xlink:href="#f0_2h" transform="matrix(12,0,0,12,328.2,777.5)" />
<use xlink:href="#f0_2f" transform="matrix(12,0,0,12,337,777.5)" />
<use xlink:href="#f0_21" transform="matrix(12,0,0,12,343.6,777.5)" />
<use xlink:href="#f0_2g" transform="matrix(12,0,0,12,355,777.5)" />
<use xlink:href="#f0_2b" transform="matrix(12,0,0,12,360.2,777.5)" />
<use xlink:href="#f0_22" transform="matrix(12,0,0,12,372.6,777.5)" />
<use xlink:href="#f0_2b" transform="matrix(12,0,0,12,377.8,777.5)" />
<use xlink:href="#f0_2e" transform="matrix(12,0,0,12,387,777.5)" />
<use xlink:href="#f0_29" transform="matrix(12,0,0,12,393.2,777.5)" />
<use xlink:href="#f0_21" transform="matrix(12,0,0,12,406.4,777.5)" />
<use xlink:href="#f0_20" transform="matrix(12,0,0,12,414.1,777.5)" />
<use xlink:href="#f0_24" transform="matrix(12,0,0,12,426.6,777.5)" />
<use xlink:href="#f0_21" transform="matrix(12,0,0,12,435,777.5)" />
<use xlink:href="#f0_1x" transform="matrix(12,0,0,12,443.1,777.5)" />
<use xlink:href="#f0_2i" transform="matrix(12,0,0,12,450.8,777.5)" />
<use xlink:href="#f0_2l" transform="matrix(12,0,0,12,459.3,777.5)" />
<use xlink:href="#f0_2a" transform="matrix(12,0,0,12,471.1,777.5)" />
<use xlink:href="#f0_2h" transform="matrix(12,0,0,12,479.5,777.5)" />
<use xlink:href="#f0_1z" transform="matrix(12,0,0,12,488.3,777.5)" />
<use xlink:href="#f0_28" transform="matrix(12,0,0,12,496.4,777.5)" />
<use xlink:href="#f0_21" transform="matrix(12,0,0,12,500.5,777.5)" />
<use xlink:href="#f0_2h" transform="matrix(12,0,0,12,508.2,777.5)" />
<use xlink:href="#f0_2f" transform="matrix(12,0,0,12,517.3,777.5)" />
<use xlink:href="#f0_1x" transform="matrix(12,0,0,12,527.3,777.5)" />
<use xlink:href="#f0_23" transform="matrix(12,0,0,12,535.4,777.5)" />
<use xlink:href="#f0_1x" transform="matrix(12,0,0,12,544.2,777.5)" />
<use xlink:href="#f0_25" transform="matrix(12,0,0,12,551.9,777.5)" />
<use xlink:href="#f0_2a" transform="matrix(12,0,0,12,556.3,777.5)" />
<use xlink:href="#f0_21" transform="matrix(12,0,0,12,567.7,777.5)" />
<use xlink:href="#f0_2a" transform="matrix(12,0,0,12,575.8,777.5)" />
<use xlink:href="#f0_21" transform="matrix(12,0,0,12,584.3,777.5)" />
<use xlink:href="#f0_2e" transform="matrix(12,0,0,12,592,777.5)" />
<use xlink:href="#f0_23" transform="matrix(12,0,0,12,598.2,777.5)" />
<use xlink:href="#f0_2l" transform="matrix(12,0,0,12,607,777.5)" />
<use xlink:href="#f0_2e" transform="matrix(12,0,0,12,618.4,777.5)" />
<use xlink:href="#f0_21" transform="matrix(12,0,0,12,624.7,777.5)" />
<use xlink:href="#f0_28" transform="matrix(12,0,0,12,632.4,777.5)" />
<use xlink:href="#f0_21" transform="matrix(12,0,0,12,636.4,777.5)" />
<use xlink:href="#f0_1x" transform="matrix(12,0,0,12,644.5,777.5)" />
<use xlink:href="#f0_2f" transform="matrix(12,0,0,12,652.2,777.5)" />
<use xlink:href="#f0_21" transform="matrix(12,0,0,12,658.8,777.5)" />
<use xlink:href="#f0_20" transform="matrix(12,0,0,12,666.9,777.5)" />
<use xlink:href="#f0_i" transform="matrix(12,0,0,12,675.7,777.5)" />
<use xlink:href="#f0_15" transform="matrix(12,0,0,12,155.8,810.5)" />
<use xlink:href="#f0_2k" transform="matrix(12,0,0,12,166.8,810.5)" />
<use xlink:href="#f0_u" transform="matrix(12,0,0,12,178.6,810.5)" />
<use xlink:href="#f0_m" transform="matrix(6.9,0,0,6.9,211.9,803.9)" />
<use xlink:href="#f0_m" transform="matrix(6.9,0,0,6.9,258.1,803.9)" />
<use xlink:href="#f0_o" transform="matrix(6.9,0,0,6.9,321.5,803.9)" />
<use xlink:href="#f0_l" transform="matrix(6.9,0,0,6.9,188.5,816.7)" />
<use xlink:href="#f0_l" transform="matrix(6.9,0,0,6.9,232.1,816.7)" />
<use xlink:href="#f0_m" transform="matrix(6.9,0,0,6.9,287.8,816.7)" />
<use xlink:href="#f0_i" transform="matrix(12,0,0,12,396.7,811.9)" />
<use xlink:href="#f0_m" transform="matrix(12,0,0,12,402.6,811.9)" />
<use xlink:href="#f0_q" transform="matrix(12,0,0,12,411.8,811.9)" />
</g>
<g clip-path="url(#c16_13)">
<g fill="#000000" >
<use xlink:href="#f1_18" transform="matrix(12,0,0,12,195.8,811.9)" />
<use xlink:href="#f1_18" transform="matrix(12,0,0,12,242,811.9)" />
<use xlink:href="#f1_18" transform="matrix(12,0,0,12,299.5,811.9)" />
<use xlink:href="#f1_21" transform="matrix(12,0,0,12,312.8,811.9)" />
<use xlink:href="#f1_1x" transform="matrix(12,0,0,12,345,811.9)" />
<use xlink:href="#f1_2c" transform="matrix(12,0,0,12,354.2,811.9)" />
<use xlink:href="#f1_2c" transform="matrix(12,0,0,12,363.4,811.9)" />
<use xlink:href="#f1_2e" transform="matrix(12,0,0,12,372.5,811.9)" />
<use xlink:href="#f1_2b" transform="matrix(12,0,0,12,379.8,811.9)" />
<use xlink:href="#f1_2k" transform="matrix(12,0,0,12,389,811.9)" />
<use xlink:href="#f1_1d" transform="matrix(12,0,0,12,423.5,811.9)" />
<use xlink:href="#f1_21" transform="matrix(12,0,0,12,438.9,811.9)" />
<use xlink:href="#f1_2i" transform="matrix(12,0,0,12,447,811.9)" />
</g>
</g>
<g fill="#000000" >
<use xlink:href="#f3_f" transform="matrix(12,0,0,12,222.2,811.9)" />
<use xlink:href="#f3_34" transform="matrix(12,0,0,12,269.1,811.9)" />
<use xlink:href="#f3_f" transform="matrix(12,0,0,12,331.8,811.9)" />
<use xlink:href="#f0_12" transform="matrix(12,0,0,12,155.8,841.3)" />
<use xlink:href="#f0_15" transform="matrix(12,0,0,12,167.6,841.3)" />
<use xlink:href="#f0_17" transform="matrix(12,0,0,12,181.9,841.3)" />
<use xlink:href="#f0_2e" transform="matrix(12,0,0,12,194.8,841.3)" />
<use xlink:href="#f0_1x" transform="matrix(12,0,0,12,200.6,841.3)" />
<use xlink:href="#f0_2c" transform="matrix(12,0,0,12,208.4,841.3)" />
<use xlink:href="#f0_24" transform="matrix(12,0,0,12,217.2,841.3)" />
<use xlink:href="#f0_u" transform="matrix(12,0,0,12,228.9,841.3)" />
</g>
<image preserveAspectRatio="none" x="122" y="856" width="483" height="264" xlink:href="img/1.png" />
<g fill="#000000" >
<use xlink:href="#f5_l" transform="matrix(8,0,0,8,785.4,1264.3)" />
<use xlink:href="#f5_n" transform="matrix(8,0,0,8,792.2,1264.3)" />
</g>
<defs>
<path d="M33,0V27c0,0,264,241,371,393c0,0,108,152,108,278c0,0,0,96,-59,158c0,0,-59,62,-141,62c0,0,-75,0,-134,-43c0,0,-59,-44,-88,-128H63c0,0,18,138,95,212c0,0,77,74,193,74c0,0,123,0,205,-80c0,0,83,-79,83,-186c0,0,0,-77,-36,-154c0,0,-55,-121,-179,-256C424,357,238,154,191,112H455c0,0,81,0,114,6c0,0,32,6,58,25c0,0,27,18,46,52h27L630,0Z" 
id="f0_m"
transform="scale(0.001,-0.001)" />

<path d="M504,-17c0,0,-27,0,-42,17c0,0,-16,16,-16,44c0,0,0,36,29,123l98,300c0,0,18,56,18,87c0,0,0,15,-10,24c0,0,-11,10,-26,10c0,0,-23,0,-54,-18c0,0,-60,-34,-124,-111c0,0,-65,-77,-137,-197c0,0,-38,-63,-63,-139L141,0H29L163,467c0,0,24,85,24,102c0,0,0,16,-13,28c0,0,-13,13,-32,13c0,0,-9,0,-30,-3L84,602l-7,27l257,46L238,340c0,0,149,205,228,270c0,0,79,65,152,65c0,0,40,0,66,-27c0,0,26,-27,26,-70c0,0,0,-44,-25,-118L584,149c0,0,-17,-54,-17,-66c0,0,0,-10,5,-17c0,0,5,-7,11,-7c0,0,8,0,20,9c0,0,35,31,77,95l23,-14C703,149,637,51,578,10c0,0,-42,-27,-74,-27Z" 
id="f1_2a"
transform="scale(0.001,-0.001)" />

<path d="M505,-17c0,0,-26,0,-43,17c0,0,-17,17,-17,45c0,0,0,33,30,122l97,298c0,0,18,56,18,88c0,0,0,15,-10,24c0,0,-10,9,-26,9c0,0,-24,0,-54,-17c0,0,-55,-31,-127,-116c0,0,-20,-23,-130,-186c0,0,-34,-52,-54,-114L142,0H30L274,854l27,92c0,0,0,19,-16,34c0,0,-17,15,-40,15c0,0,-13,0,-41,-4l-16,-2v29l257,43L239,338c0,0,144,203,225,270c0,0,81,67,155,67c0,0,38,0,63,-27c0,0,26,-27,26,-71c0,0,0,-49,-24,-118L583,149c0,0,-19,-57,-19,-62c0,0,0,-11,6,-17c0,0,5,-6,13,-6c0,0,8,0,20,9c0,0,38,32,75,90l23,-14c0,0,-24,-39,-67,-85C634,64,591,18,560,0c0,0,-31,-17,-55,-17Z" 
id="f1_24"
transform="scale(0.001,-0.001)" />

<path d="M-47,0l10,26c0,0,59,2,79,10c0,0,31,14,46,35c0,0,23,35,49,125L312,813c0,0,22,76,22,112c0,0,0,28,-20,44c0,0,-21,16,-77,16c0,0,-13,0,-20,1l9,26H637l-6,-26c0,0,-69,0,-98,-14c0,0,-29,-13,-49,-44c0,0,-13,-20,-44,-126L264,183c0,0,-20,-63,-20,-87c0,0,0,-16,20,-31c0,0,13,-10,59,-10h98c0,0,108,0,172,27c0,0,46,20,85,60c0,0,21,23,74,112l19,33h28L700,0Z" 
id="f1_1c"
transform="scale(0.001,-0.001)" />

<path d="M140,-21c0,0,-26,0,-44,17C96,-4,79,13,79,40c0,0,0,19,6,33c0,0,8,20,34,55c0,0,46,60,64,126c0,0,32,114,41,321H190c0,0,-55,0,-81,-18c0,0,-44,-26,-80,-89H0c0,0,42,129,98,178c0,0,43,37,120,37H743V575H562c0,0,-27,-171,-27,-327c0,0,0,-77,27,-110c0,0,27,-33,67,-33c0,0,33,0,56,22c0,0,24,22,31,65h27C743,192,730,74,686,26c0,0,-44,-47,-98,-47c0,0,-58,0,-97,51c0,0,-39,53,-39,198c0,0,0,91,28,347H286c0,0,-23,-390,-56,-494c0,0,-33,-102,-90,-102Z" 
id="f2_2c"
transform="scale(0.001,-0.001)" />

<path d="M0,214v74H784V214ZM0,494v72H784V494Z" 
id="f3_x"
transform="scale(0.001,-0.001)" />

<path d="M474,-326c0,0,-112,57,-188,133c0,0,-107,108,-165,254c0,0,-58,147,-58,305c0,0,0,231,114,421c0,0,114,191,297,273v-31c0,0,-92,-51,-151,-139c0,0,-59,-88,-88,-223c0,0,-30,-135,-30,-281c0,0,0,-160,25,-290c0,0,20,-102,47,-164c0,0,28,-62,75,-120c0,0,47,-57,122,-109v-29Z" 
id="f0_c"
transform="scale(0.001,-0.001)" />

<path d="M397,34c0,0,67,0,126,75c0,0,58,74,58,216c0,0,0,131,-58,201c0,0,-59,70,-133,70c0,0,-39,0,-79,-20c0,0,-29,-14,-75,-59V109c0,0,37,-37,78,-56c0,0,40,-19,83,-19ZM358,-20c0,0,-59,0,-121,21c0,0,-61,22,-126,65V773c0,0,0,117,-5,144c0,0,-6,27,-18,37c0,0,-12,9,-29,9c0,0,-21,0,-53,-12l-9,27l205,83h34V564c0,0,98,139,213,139c0,0,105,0,183,-90c0,0,78,-90,78,-245c0,0,0,-182,-121,-293c0,0,-103,-95,-231,-95Z" 
id="f0_1y"
transform="scale(0.001,-0.001)" />

<path d="M35,-326v29c0,0,92,51,151,139c0,0,60,87,89,221c0,0,28,136,28,282c0,0,0,159,-24,290c0,0,-19,103,-47,165c0,0,-28,62,-75,119c0,0,-46,57,-122,110v31c0,0,113,-56,188,-132c0,0,107,-109,165,-255c0,0,58,-147,58,-306c0,0,0,-231,-114,-420c0,0,-113,-191,-297,-273Z" 
id="f0_d"
transform="scale(0.001,-0.001)" />

<path d="M678,393L506,802L330,393ZM11,0V27c0,0,63,12,82,30c0,0,38,35,84,145l356,832h27L912,193c0,0,43,-101,77,-132c0,0,35,-30,97,-34V0H687V27c0,0,60,3,82,21c0,0,21,17,21,41c0,0,0,33,-30,104L700,338H307L239,179c0,0,-26,-59,-26,-88c0,0,0,-23,22,-41c0,0,22,-17,95,-23V0Z" 
id="f0_11"
transform="scale(0.001,-0.001)" />

<path d="M20,0V26c0,0,45,0,71,15c0,0,15,7,24,28c0,0,9,21,9,85V773c0,0,0,117,-5,144c0,0,-6,27,-17,37c0,0,-12,9,-31,9c0,0,-16,0,-51,-12L10,978l204,83h34V561c0,0,83,91,131,116c0,0,49,26,97,26c0,0,58,0,100,-32c0,0,42,-32,62,-101c0,0,14,-47,14,-174V154c0,0,0,-65,11,-89c0,0,7,-18,25,-28c0,0,18,-11,66,-11V0H418V26h15c0,0,48,0,67,15c0,0,18,15,26,43c0,0,2,12,2,70V396c0,0,0,112,-12,147c0,0,-11,35,-36,53c0,0,-26,17,-61,17c0,0,-37,0,-76,-19c0,0,-40,-20,-95,-79V154c0,0,0,-70,8,-87c0,0,8,-17,29,-29c0,0,22,-12,74,-12V0Z" 
id="f0_24"
transform="scale(0.001,-0.001)" />

<path d="M145,-328c0,0,-44,0,-73,25c0,0,-28,25,-28,58c0,0,0,31,21,50c0,0,20,19,56,19c0,0,25,0,67,-16c0,0,30,-11,38,-11c0,0,22,0,49,23c0,0,26,23,53,89L376,28L131,542c0,0,-11,24,-36,58c0,0,-19,27,-30,36c0,0,-18,12,-56,21v26H328V657H312c0,0,-33,0,-50,-15c0,0,-17,-14,-17,-36c0,0,0,-30,25,-81L437,179L589,557c0,0,12,31,12,62c0,0,0,13,-5,20c0,0,-6,8,-19,13c0,0,-12,5,-44,5v26H754V657c0,0,-27,-3,-42,-12c0,0,-15,-9,-33,-34c0,0,-7,-10,-25,-58L376,-128c0,0,-40,-99,-105,-150c0,0,-66,-50,-126,-50Z" 
id="f0_2l"
transform="scale(0.001,-0.001)" />

<path d="M399,62c0,0,68,0,131,68V481c0,0,-5,51,-27,93c0,0,-22,42,-59,63c0,0,-37,21,-72,21c0,0,-65,0,-117,-59c0,0,-67,-77,-67,-226c0,0,0,-151,65,-231c0,0,66,-80,146,-80ZM330,-20c0,0,-112,0,-196,93c0,0,-83,94,-83,240c0,0,0,147,92,269c0,0,93,122,238,122c0,0,90,0,149,-58V773c0,0,0,117,-6,144c0,0,-5,27,-17,37c0,0,-12,9,-30,9c0,0,-20,0,-52,-12l-9,27l204,83h33V270c0,0,0,-120,6,-146c0,0,5,-27,18,-37c0,0,12,-11,28,-11c0,0,21,0,54,13l9,-26L564,-20H530V78C530,78,480,25,432,2c0,0,-47,-22,-102,-22Z" 
id="f0_20"
transform="scale(0.001,-0.001)" />

<path d="M17,0V26c0,0,52,0,77,17c0,0,19,12,26,38c0,0,4,13,4,73V419c0,0,0,119,-5,142c0,0,-4,23,-17,33c0,0,-13,11,-33,11c0,0,-23,0,-52,-11l-7,26l207,83h31V549c0,0,86,154,176,154c0,0,41,0,68,-25c0,0,27,-25,27,-58c0,0,0,-29,-20,-49c0,0,-19,-20,-46,-20c0,0,-26,0,-58,25c0,0,-33,26,-48,26c0,0,-14,0,-29,-15c0,0,-34,-30,-70,-101V159c0,0,0,-56,15,-85c0,0,9,-20,34,-34c0,0,24,-14,71,-14V0Z" 
id="f0_2e"
transform="scale(0.001,-0.001)" />

<path d="M406,32c0,0,72,0,119,60c0,0,47,59,47,205c0,0,0,181,-78,286c0,0,-53,71,-135,71c0,0,-40,0,-79,-23c0,0,-40,-24,-65,-83c0,0,-24,-58,-24,-151c0,0,0,-149,59,-257c0,0,59,-108,156,-108ZM374,-20c0,0,-154,0,-245,122c0,0,-77,104,-77,233c0,0,0,94,46,187c0,0,47,92,123,137c0,0,76,44,161,44c0,0,155,0,249,-118c0,0,80,-100,80,-231c0,0,0,-91,-44,-185C667,169,623,75,546,27c0,0,-77,-47,-172,-47Z" 
id="f0_2b"
transform="scale(0.001,-0.001)" />

<path d="M411,-239c0,0,134,0,198,48c0,0,64,47,64,100c0,0,0,39,-38,55c0,0,-39,16,-154,19c0,0,-167,5,-258,17c0,0,-35,-37,-53,-70c0,0,-17,-32,-17,-60c0,0,0,-36,43,-62c0,0,74,-47,215,-47ZM380,257c0,0,56,0,93,43c0,0,36,42,36,133c0,0,0,118,-51,185c0,0,-38,49,-98,49c0,0,-55,0,-92,-44c0,0,-37,-44,-37,-135c0,0,0,-117,50,-182c0,0,39,-49,99,-49ZM345,-328c0,0,-144,0,-243,64c0,0,-56,38,-56,78c0,0,0,18,8,36c0,0,13,27,52,76c0,0,5,7,76,80c0,0,-39,23,-55,41c0,0,-16,19,-16,42c0,0,0,26,22,61c0,0,21,35,98,100c0,0,-63,30,-97,85c0,0,-33,55,-33,121c0,0,0,101,76,174c0,0,77,73,196,73c0,0,98,0,170,-48H688c0,0,32,0,37,-2c0,0,6,-2,8,-6c0,0,4,-7,4,-24c0,0,0,-20,-4,-27c0,0,-2,-4,-7,-6c0,0,-6,-2,-38,-2H599c0,0,41,-54,41,-137c0,0,0,-96,-73,-163c0,0,-73,-68,-196,-68c0,0,-51,0,-104,15c0,0,-33,-28,-44,-49c0,0,-12,-22,-12,-37c0,0,0,-12,13,-24c0,0,12,-12,48,-17c0,0,21,-4,104,-6c0,0,154,-4,199,-11c0,0,70,-10,111,-51c0,0,42,-41,42,-102c0,0,0,-84,-79,-158c0,0,-117,-108,-304,-108Z" 
id="f0_23"
transform="scale(0.001,-0.001)" />

<path d="M479,469c0,0,-4,66,-16,93c0,0,-18,42,-55,65c0,0,-37,24,-78,24c0,0,-62,0,-111,-48c0,0,-48,-48,-57,-134ZM355,-20c0,0,-123,0,-211,95c0,0,-87,96,-87,258c0,0,0,175,90,273c0,0,89,98,225,98c0,0,115,0,189,-76c0,0,74,-75,74,-202H162c0,0,0,-152,74,-239c0,0,75,-86,175,-86c0,0,67,0,117,36c0,0,50,37,83,127l24,-15c0,0,-16,-102,-91,-186c0,0,-76,-83,-189,-83Z" 
id="f0_21"
transform="scale(0.001,-0.001)" />

<path d="M21,0V26H35c0,0,53,0,71,27c0,0,18,27,18,101V408c0,0,0,123,-5,150c0,0,-6,27,-17,37c0,0,-12,10,-31,10c0,0,-21,0,-50,-11L10,620l206,83h32V558c0,0,120,145,229,145c0,0,56,0,96,-28c0,0,40,-28,64,-92c0,0,16,-45,16,-137V154c0,0,0,-65,11,-88c0,0,8,-19,26,-29c0,0,18,-11,68,-11V0H419V26h14c0,0,47,0,66,15c0,0,20,15,27,43c0,0,3,11,3,70V434c0,0,0,93,-24,135c0,0,-24,42,-81,42c0,0,-88,0,-176,-97V154c0,0,0,-69,9,-86c0,0,10,-21,28,-31c0,0,19,-11,75,-11V0Z" 
id="f0_2a"
transform="scale(0.001,-0.001)" />

<path d="M286,72c0,0,57,0,149,75V407c0,0,-113,-45,-145,-64c0,0,-59,-32,-85,-68c0,0,-25,-36,-25,-78c0,0,0,-54,32,-89c0,0,32,-36,74,-36ZM217,-13c0,0,-71,0,-116,48c0,0,-46,48,-46,127c0,0,0,50,22,87c0,0,31,50,106,95c0,0,76,45,252,109v26c0,0,0,102,-32,140c0,0,-32,38,-94,38c0,0,-47,0,-74,-25c0,0,-28,-25,-28,-58l1,-43c0,0,0,-34,-17,-53c0,0,-18,-18,-47,-18c0,0,-28,0,-45,19c0,0,-18,19,-18,53c0,0,0,64,66,117c0,0,65,54,184,54c0,0,91,0,149,-31c0,0,44,-23,65,-72c0,0,13,-32,13,-131V238c0,0,0,-98,4,-120c0,0,4,-22,12,-29c0,0,9,-8,20,-8c0,0,12,0,21,5c0,0,16,10,61,55V99C676,99,592,-12,516,-12c0,0,-37,0,-58,24c0,0,-22,26,-23,86C435,98,330,17,303,5c0,0,-40,-18,-86,-18Z" 
id="f0_1x"
transform="scale(0.001,-0.001)" />

<path d="M255,-10c0,0,-35,0,-68,18c0,0,-32,19,-48,55c0,0,-16,35,-16,109V632H15v24c0,0,41,16,84,56c0,0,43,39,77,92c0,0,17,29,48,104h23V683H407V632H247V188c0,0,0,-66,19,-90c0,0,19,-23,49,-23c0,0,24,0,47,16c0,0,23,15,36,45h29c0,0,-26,-73,-74,-110c0,0,-47,-36,-98,-36Z" 
id="f0_2g"
transform="scale(0.001,-0.001)" />

<path d="M23,0V26c0,0,47,0,66,10c0,0,19,11,28,33c0,0,10,22,10,85V416c0,0,0,112,-7,145c0,0,-5,25,-16,34c0,0,-11,10,-31,10c0,0,-21,0,-50,-11L12,620l207,83h32V557c0,0,75,75,88,86c0,0,34,29,72,44c0,0,39,16,77,16c0,0,64,0,110,-37c0,0,47,-38,62,-109c0,0,77,90,130,118c0,0,53,28,109,28c0,0,54,0,96,-28c0,0,42,-28,67,-91c0,0,16,-43,16,-136V154c0,0,0,-64,10,-88c0,0,8,-16,28,-28c0,0,20,-12,65,-12V0H844V26h14c0,0,44,0,69,18c0,0,17,12,24,38c0,0,3,13,3,72V448c0,0,0,83,-20,117c0,0,-29,48,-93,48c0,0,-39,0,-79,-20c0,0,-40,-19,-97,-73l-1,-8l2,-32V154c0,0,0,-70,8,-87c0,0,7,-17,29,-29c0,0,21,-12,73,-12V0H431V26c0,0,57,0,78,14c0,0,21,13,29,40c0,0,4,13,4,74V448c0,0,0,83,-25,120c0,0,-33,48,-91,48c0,0,-40,0,-80,-22c0,0,-61,-33,-95,-74V154c0,0,0,-67,10,-87c0,0,9,-20,27,-30c0,0,18,-11,74,-11V0Z" 
id="f0_29"
transform="scale(0.001,-0.001)" />

<path d="M55,0V26c0,0,50,0,67,10c0,0,17,10,27,32c0,0,10,23,10,86V418c0,0,0,111,-6,144c0,0,-6,24,-17,33c0,0,-11,10,-30,10c0,0,-21,0,-51,-11L45,620l206,83h33V154c0,0,0,-64,9,-85c0,0,9,-22,27,-32c0,0,19,-11,67,-11V0ZM222,909c0,0,-32,0,-54,23c0,0,-22,22,-22,53c0,0,0,32,22,54c0,0,22,22,54,22c0,0,31,0,53,-22c0,0,22,-22,22,-54c0,0,0,-31,-22,-53c0,0,-22,-23,-53,-23Z" 
id="f0_25"
transform="scale(0.001,-0.001)" />

<path d="M58,0V26c0,0,47,0,64,10c0,0,18,10,28,32c0,0,9,23,9,86V775c0,0,0,116,-5,142c0,0,-5,27,-17,37c0,0,-11,9,-29,9c0,0,-20,0,-49,-12L46,978l204,83h34V154c0,0,0,-64,9,-85c0,0,9,-21,29,-32c0,0,19,-11,72,-11V0Z" 
id="f0_28"
transform="scale(0.001,-0.001)" />

<path d="M292,-20c0,0,-57,0,-100,33c0,0,-42,33,-58,85c0,0,-17,52,-17,148V551c0,0,0,49,-10,68c0,0,-11,18,-31,29c0,0,-19,9,-68,9c-2,0,-4,0,-6,0v26H242V226c0,0,0,-95,33,-125c0,0,33,-30,80,-30c0,0,32,0,73,21c0,0,40,20,96,76V555c0,0,0,59,-21,80c0,0,-22,21,-89,22v26H647V269c0,0,0,-119,6,-145c0,0,6,-27,18,-37c0,0,12,-11,29,-11c0,0,23,0,52,13L763,63L558,-20H524V124C524,124,436,29,390,4c0,0,-47,-24,-98,-24Z" 
id="f0_2h"
transform="scale(0.001,-0.001)" />

<path d="M312,-20c0,0,-62,0,-143,22c0,0,-25,8,-40,8c0,0,-18,0,-27,-19H77V234h25c0,0,21,-105,80,-158c0,0,59,-53,132,-53c0,0,51,0,84,31c0,0,32,30,32,72c0,0,0,52,-36,87c0,0,-36,35,-144,88c0,0,-109,54,-142,97c0,0,-34,43,-34,107c0,0,0,85,58,141c0,0,58,57,150,57c0,0,40,0,97,-17c0,0,38,-11,51,-11c0,0,12,0,19,5c0,0,7,5,15,23h25V470H464c0,0,-28,110,-72,149c0,0,-45,40,-113,40c0,0,-53,0,-85,-28c0,0,-32,-27,-32,-61c0,0,0,-41,24,-71c0,0,23,-31,94,-65L389,381c0,0,152,-74,152,-194c0,0,0,-94,-71,-151c0,0,-70,-56,-158,-56Z" 
id="f0_2f"
transform="scale(0.001,-0.001)" />

<path d="M398,24c0,0,74,0,120,58c0,0,61,76,61,214c0,0,0,156,-69,240c0,0,-47,59,-113,59c0,0,-36,0,-71,-18c0,0,-27,-14,-88,-81V242c0,0,0,-83,6,-109c0,0,11,-43,51,-76c0,0,41,-33,103,-33ZM-4,-326v27H15c5,0,42,0,69,16c0,0,14,8,22,26c0,0,7,19,7,94V481c0,0,0,67,-6,85c0,0,-5,18,-18,27c0,0,-13,9,-36,9c0,0,-18,0,-45,-10L0,615l209,85h29V540c0,0,53,91,106,127c0,0,53,36,112,36c0,0,103,0,172,-80c0,0,84,-99,84,-257c0,0,0,-176,-102,-292c0,0,-83,-94,-210,-94c0,0,-55,0,-95,16c0,0,-30,10,-67,44V-167c0,0,0,-71,8,-90c0,0,9,-20,30,-31c0,0,21,-11,77,-11v-27Z" 
id="f0_2c"
transform="scale(0.001,-0.001)" />

<path d="M336,-20L117,554c0,0,-21,55,-42,74c0,0,-21,19,-66,29v26H296V657c0,0,-40,-3,-52,-14c0,0,-13,-12,-13,-33c0,0,0,-23,13,-56L390,162L537,481L498,581c0,0,-18,46,-47,63c0,0,-17,11,-61,13v26H716V657c0,0,-54,-2,-77,-20c0,0,-15,-12,-15,-39c0,0,0,-15,6,-30L785,177L929,554c0,0,15,40,15,65c0,0,0,14,-15,25c0,0,-14,12,-57,13v26h216V657c0,0,-65,-10,-95,-89L764,-20H733L563,415L363,-20Z" 
id="f0_2j"
transform="scale(0.001,-0.001)" />

<path d="M342,-20c0,0,-116,0,-203,97c0,0,-86,98,-86,264c0,0,0,161,96,261c0,0,95,101,230,101c0,0,100,0,165,-53c0,0,65,-54,65,-111c0,0,0,-29,-18,-46c0,0,-18,-18,-51,-18c0,0,-44,0,-66,29c0,0,-13,15,-17,59c0,0,-4,45,-30,68c0,0,-26,22,-73,22c0,0,-74,0,-120,-55c0,0,-60,-73,-60,-193c0,0,0,-122,60,-216c0,0,60,-93,162,-93c0,0,73,0,131,49c0,0,41,35,80,126l22,-10C629,261,601,125,521,52c0,0,-81,-72,-179,-72Z" 
id="f0_1z"
transform="scale(0.001,-0.001)" />

<path d="M25,0V26c0,0,27,4,47,19c0,0,29,22,96,111L311,346L182,535c0,0,-55,81,-86,102c0,0,-30,20,-75,20v26H341V657c0,0,-30,0,-42,-10c0,0,-13,-11,-13,-28c0,0,0,-19,27,-56c0,0,8,-12,25,-37l48,-78l56,77c0,0,55,74,55,94c0,0,0,16,0,27c0,0,0,11,0,11v26H674V657c0,0,-37,-2,-64,-20c0,0,-37,-26,-100,-111L416,402L587,156c0,0,63,-91,89,-109c0,0,27,-18,70,-21V0H423V26c0,0,34,0,53,15c0,0,14,11,14,28c0,0,0,17,-48,87L341,302L232,157c0,0,-50,-69,-50,-82c0,0,0,-18,17,-32c0,0,17,-15,50,-17V0Z" 
id="f0_2k"
transform="scale(0.001,-0.001)" />

<path d="M27,354v62H831V354Zm0,243v62H831V597Z" 
id="f0_x"
transform="scale(0.001,-0.001)" />

<path d="M452,373V875L97,373ZM452,0V267H23v95l470,671h82V373H711V267H575V0Z" 
id="f0_o"
transform="scale(0.001,-0.001)" />

<path d="M376,-20L133,556c0,0,-17,41,-31,58c0,0,-15,18,-39,30c0,0,-12,7,-50,13v26H335V657H314c0,0,-29,0,-44,-14c0,0,-16,-14,-15,-38c0,0,-1,-26,15,-62L429,165L588,557c0,0,17,42,17,64c0,0,0,10,-6,17c0,0,-8,11,-21,15c0,0,-13,4,-52,4v26H750V657c0,0,-39,-3,-54,-16c0,0,-26,-23,-47,-76L409,-20Z" 
id="f0_2i"
transform="scale(0.001,-0.001)" />

<path d="M191,-20c0,0,-34,0,-58,24c0,0,-24,24,-24,58c0,0,0,35,24,59c0,0,24,24,58,24c0,0,35,0,59,-24c0,0,24,-25,24,-59c0,0,0,-34,-24,-58c0,0,-25,-24,-59,-24Z" 
id="f0_i"
transform="scale(0.001,-0.001)" />

<path d="M31,0V27H67c0,0,36,0,68,18c0,0,24,12,32,36c0,0,9,24,9,98V836c0,0,0,96,-19,119c0,0,-27,30,-90,30H31v27H811L822,790H792c0,0,-15,80,-34,110c0,0,-19,30,-57,46c0,0,-29,11,-105,11H319V557H541c0,0,87,0,116,26c0,0,39,35,44,121h27V352H701c0,0,-11,74,-21,95c0,0,-14,26,-45,41c0,0,-30,15,-94,15H319V168c0,0,0,-67,6,-81c0,0,6,-15,21,-24c0,0,15,-8,56,-8H574c0,0,86,0,124,12c0,0,39,12,75,47c0,0,46,46,95,139h30L811,0Z" 
id="f0_15"
transform="scale(0.001,-0.001)" />

<path d="M63,0V26H93c0,0,30,0,54,15c0,0,25,15,34,41c0,0,10,25,10,99V630H58v53H191v45c0,0,0,102,33,173c0,0,32,71,100,114c0,0,68,44,152,44c0,0,79,0,145,-51c0,0,43,-33,43,-75c0,0,0,-22,-19,-42c0,0,-20,-20,-42,-20c0,0,-17,0,-36,12c0,0,-19,13,-47,53c0,0,-28,41,-51,55c0,0,-23,14,-51,14c0,0,-35,0,-58,-18c0,0,-24,-18,-35,-57c0,0,-10,-38,-10,-197V683H491V630H315V181c0,0,0,-96,21,-122c0,0,27,-33,73,-33h62V0Z" 
id="f0_22"
transform="scale(0.001,-0.001)" />

<path d="M384,85c0,0,44,0,78,19c0,0,35,19,68,62V487c0,0,0,55,-15,87c0,0,-14,33,-51,55c0,0,-38,22,-85,22c0,0,-84,0,-143,-71c0,0,-60,-70,-60,-214c0,0,0,-138,61,-209c0,0,61,-72,147,-72Zm35,-411v27h15c0,0,41,0,63,12c0,0,15,8,24,30c0,0,9,21,9,83V119C530,119,462,39,411,9c0,0,-50,-29,-105,-29c0,0,-99,0,-177,90c0,0,-78,90,-78,241c0,0,0,174,103,283c0,0,103,109,248,109c0,0,43,0,78,-12c0,0,36,-12,65,-35c0,0,43,20,83,47h25V-174c0,0,0,-66,9,-85c0,0,9,-19,28,-30c0,0,19,-10,74,-10v-27Z" 
id="f0_2d"
transform="scale(0.001,-0.001)" />

<path d="M197,0V27c0,0,71,2,92,13c0,0,21,10,29,29c0,0,9,18,9,109V725c0,0,0,110,-8,141c0,0,-5,24,-19,35c0,0,-14,11,-33,11c0,0,-28,0,-77,-23l-11,23l246,121h25V178c0,0,0,-85,7,-106c0,0,7,-21,29,-32c0,0,23,-11,91,-13V0Z" 
id="f0_l"
transform="scale(0.001,-0.001)" />

<path d="M228,-17c0,0,-18,471,-75,588c0,0,-19,38,-62,38c0,0,-19,0,-53,-7l-5,27l216,46c0,0,23,-55,37,-113c0,0,20,-84,33,-199c0,0,6,-58,16,-246c0,0,94,103,111,127c0,0,99,133,114,157c0,0,24,39,34,69c0,0,8,22,8,42c0,0,0,20,-35,45c0,0,-35,25,-35,57c0,0,0,23,20,42c0,0,19,19,45,19c0,0,31,0,55,-26c0,0,24,-26,24,-64c0,0,0,-38,-12,-73c0,0,-19,-56,-72,-138c0,0,-53,-82,-171,-219c0,0,-15,-17,-166,-172Z" 
id="f1_2i"
transform="scale(0.001,-0.001)" />

<path d="M-33,0l9,26c0,0,58,2,78,11c0,0,30,13,43,34c0,0,20,31,48,130L318,812c0,0,21,74,21,113c0,0,0,28,-20,45c0,0,-20,16,-77,16H226l9,26H966L904,769H878c0,0,5,34,5,57c0,0,0,39,-20,66c0,0,-25,34,-74,52c0,0,-36,13,-166,13H488L374,557h99c0,0,102,0,148,31c0,0,46,31,79,115h26L623,336H593c0,0,13,46,13,79c0,0,0,32,-13,52c0,0,-13,19,-36,28c0,0,-23,10,-95,10H361L263,156c0,0,-14,-43,-14,-66c0,0,0,-17,19,-30c0,0,13,-9,65,-9h93c0,0,145,0,233,51c0,0,87,52,157,180h27L747,0Z" 
id="f1_15"
transform="scale(0.001,-0.001)" />

<path d="M187,318c0,0,111,12,181,43c0,0,92,41,138,98c0,0,46,57,46,108c0,0,0,32,-20,51c0,0,-20,20,-56,20c0,0,-77,0,-163,-81c0,0,-85,-81,-126,-239ZM268,-17c0,0,-110,0,-165,68c0,0,-55,69,-55,151c0,0,0,111,69,228c0,0,68,116,172,180c0,0,104,65,213,65c0,0,79,0,118,-32c0,0,38,-32,38,-76c0,0,0,-62,-50,-119c0,0,-65,-73,-191,-119c0,0,-84,-30,-235,-47c0,0,-5,-38,-5,-62c0,0,0,-67,47,-114c0,0,47,-46,114,-46c0,0,54,0,104,22c0,0,50,22,148,97l15,-21C605,158,428,-17,268,-17Z" 
id="f1_21"
transform="scale(0.001,-0.001)" />

<path d="M0,356v74H784V356Z" 
id="f3_h"
transform="scale(0.001,-0.001)" />

<path d="M238,-17c0,0,-103,0,-139,25C99,8,62,33,62,62c0,0,0,22,17,38c0,0,18,16,42,16c0,0,19,0,38,-6c0,0,13,-3,58,-27c0,0,45,-23,62,-28c0,0,27,-8,59,-8c0,0,76,0,132,59c0,0,56,59,56,140c0,0,0,59,-26,115c0,0,-19,41,-42,63c0,0,-32,30,-88,54c0,0,-56,25,-114,25H232v22c0,0,59,8,118,42c0,0,59,35,86,85c0,0,27,49,27,108c0,0,0,76,-48,124c0,0,-48,47,-120,47c0,0,-116,0,-193,-124L77,819c0,0,44,102,110,158c0,0,66,56,164,56c0,0,122,0,187,-80c0,0,49,-58,49,-126c0,0,0,-110,-139,-228c0,0,93,-36,141,-104c0,0,48,-68,48,-160c0,0,0,-131,-84,-227C553,108,444,-17,238,-17Z" 
id="f0_n"
transform="scale(0.001,-0.001)" />

<path d="M379,437c0,0,34,0,81,16c0,0,47,17,83,47c0,0,14,97,14,155c0,0,0,72,-25,156c0,0,-25,83,-70,128c0,0,-45,45,-103,45c0,0,-66,0,-116,-60c0,0,-50,-59,-50,-177c0,0,0,-157,66,-246c0,0,49,-64,120,-64ZM80,-20V7c0,0,97,1,181,45c0,0,83,44,161,153c0,0,78,109,109,240c0,0,-117,-75,-212,-75c0,0,-107,0,-183,82c0,0,-76,82,-76,219c0,0,0,132,76,236c0,0,92,126,240,126c0,0,124,0,213,-103c0,0,109,-128,109,-315c0,0,0,-169,-82,-314C616,301,533,155,385,59c0,0,-120,-79,-262,-79Z" 
id="f0_t"
transform="scale(0.001,-0.001)" />

<path d="M405,24c0,0,65,0,116,62c0,0,51,61,51,174c0,0,0,128,-50,221c0,0,-51,93,-144,93c0,0,-29,0,-61,-12c0,0,-33,-12,-96,-51c0,0,-14,-101,-14,-163c0,0,0,-72,27,-155c0,0,26,-84,79,-134c0,0,38,-35,92,-35ZM384,-17c0,0,-104,0,-177,68C207,51,66,185,66,397c0,0,0,136,54,258c0,0,54,122,156,217c0,0,101,95,193,128c0,0,93,33,172,33h44v-28c0,0,-99,-10,-161,-39c0,0,-62,-29,-123,-90c0,0,-61,-60,-101,-135c0,0,-39,-74,-66,-176c0,0,107,73,215,73c0,0,104,0,180,-83c0,0,76,-84,76,-215c0,0,0,-126,-77,-231c0,0,-92,-126,-244,-126Z" 
id="f0_q"
transform="scale(0.001,-0.001)" />

<path d="M379,29c0,0,41,0,84,37c0,0,43,36,65,121c0,0,34,128,34,362c0,0,0,173,-35,288c0,0,-27,86,-69,122c0,0,-31,25,-74,25c0,0,-51,0,-90,-46c0,0,-54,-62,-73,-195c0,0,-20,-132,-20,-261c0,0,0,-209,52,-341c0,0,42,-112,126,-112Zm-2,-46c0,0,-145,0,-241,170c0,0,-81,144,-81,347c0,0,0,173,52,298c0,0,52,125,139,186c0,0,67,49,139,49c0,0,116,0,208,-119c0,0,116,-147,116,-398c0,0,0,-176,-51,-299C658,217,608,94,529,38c0,0,-79,-55,-152,-55Z" 
id="f0_k"
transform="scale(0.001,-0.001)" />

<path d="M355,-20L162,453c0,0,-46,113,-66,138c0,0,-32,39,-68,39c0,0,-11,0,-28,-4v28l165,49h23c0,0,42,-77,75,-164L419,139L555,382c0,0,35,62,35,113c0,0,0,23,-7,61c0,0,-10,48,-10,67c0,0,0,37,20,59c0,0,20,22,51,22c0,0,34,0,54,-21c0,0,20,-20,20,-57c0,0,0,-29,-8,-54c0,0,-15,-46,-53,-116L547,264L386,-20Z" 
id="f2_2a"
transform="scale(0.001,-0.001)" />

<path d="M52,62L0,114L278,390L0,667l52,52L330,442L608,719l51,-51L382,390L659,114L608,62L330,338L52,62Z" 
id="f3_3a"
transform="scale(0.001,-0.001)" />

<path d="M355,0V355H0v72H355V784h72V427H782V355H427V0Z" 
id="f3_f"
transform="scale(0.001,-0.001)" />

<path d="M0,-123V1415H525v-72H72V-123Z" 
id="f3_4r"
transform="scale(0.001,-0.001)" />

<path d="M478,-123V1343H26v72H550V-123Z" 
id="f3_57"
transform="scale(0.001,-0.001)" />

<path d="M0,-123V1415H72V-123Z" 
id="f3_4s"
transform="scale(0.001,-0.001)" />

<path d="M0,-123V1415H72V-123Z" 
id="f3_58"
transform="scale(0.001,-0.001)" />

<path d="M0,-123V1415H72V-51H525v-72Z" 
id="f3_4t"
transform="scale(0.001,-0.001)" />

<path d="M26,-123v72H478V1415h72V-123Z" 
id="f3_59"
transform="scale(0.001,-0.001)" />

<path d="M247,-17c0,0,-91,0,-132,30c0,0,-42,31,-42,68c0,0,0,21,17,37c0,0,18,16,44,17c0,0,19,0,34,-6c0,0,14,-7,49,-31c0,0,56,-39,113,-39c0,0,88,0,154,66c0,0,66,66,66,161c0,0,0,92,-59,171c0,0,-59,80,-163,123c0,0,-81,34,-221,39l194,393H663L605,885H301L234,750c0,0,198,-29,313,-147c0,0,100,-102,100,-239c0,0,0,-80,-33,-148c0,0,-32,-68,-81,-116c0,0,-50,-47,-110,-77c0,0,-86,-40,-176,-40Z" 
id="f0_p"
transform="scale(0.001,-0.001)" />

<path d="M-39,0l10,26c0,0,58,2,77,11c0,0,30,13,44,34c0,0,20,31,48,128L314,811c0,0,21,75,21,114c0,0,0,20,-9,33c0,0,-9,14,-29,21c0,0,-20,7,-77,7l9,26H626l-8,-26c0,0,-1,0,-2,0c-9,0,-51,-1,-72,-11c0,0,-35,-15,-51,-39c0,0,-23,-33,-50,-124L372,560H843l72,251c0,0,21,74,21,114c0,0,0,19,-9,33c0,0,-10,14,-29,21c0,0,-20,7,-76,7l7,26h405l-9,-26h-2c-9,0,-52,-1,-74,-11c0,0,-36,-16,-53,-40c0,0,-25,-35,-50,-124L867,186c0,0,-22,-71,-22,-101c0,0,0,-27,19,-40c0,0,20,-14,95,-19L950,0H563l10,26c0,0,58,2,78,11c0,0,29,13,43,34c0,0,19,30,48,128l88,309H357L266,186c0,0,-22,-70,-22,-101c0,0,0,-27,19,-40c0,0,20,-14,94,-19L351,0Z" 
id="f1_18"
transform="scale(0.001,-0.001)" />

<path d="M-41,0V22L474,558H259c0,0,-68,0,-82,-3c0,0,-21,-5,-41,-24c0,0,-21,-19,-42,-63H66l63,189H602V639L86,102H306c0,0,78,0,99,6c0,0,21,6,39,25c0,0,17,20,39,70h26L444,0Z" 
id="f1_2m"
transform="scale(0.001,-0.001)" />

<path d="M485,53c0,0,135,0,206,61c0,0,71,60,71,150c0,0,0,59,-32,114c0,0,-33,54,-105,85c0,0,-72,32,-179,32c0,0,-46,0,-79,-2c0,0,-33,-1,-53,-5V73c0,0,86,-20,171,-20ZM455,547c0,0,109,0,164,23c0,0,55,24,84,72c0,0,29,49,29,106c0,0,0,89,-72,151c0,0,-73,63,-212,63c0,0,-74,0,-134,-16V557c0,0,27,-5,63,-8c0,0,35,-2,78,-2ZM24,0V27H63c0,0,63,0,91,41c0,0,17,26,17,111V833c0,0,0,94,-22,119c0,0,-29,33,-86,33H24v27H462c0,0,122,0,196,-18c0,0,112,-27,171,-95c0,0,59,-68,59,-157c0,0,0,-76,-46,-136c0,0,-47,-60,-137,-89c0,0,105,-23,157,-72c0,0,73,-69,73,-168c0,0,0,-75,-48,-145C887,132,839,63,756,32C756,32,673,0,502,0Z" 
id="f0_12"
transform="scale(0.001,-0.001)" />

<path d="M2,-20L369,1061h59L62,-20Z" 
id="f0_j"
transform="scale(0.001,-0.001)" />

<path d="M910,-21L225,820V176c0,0,0,-87,40,-118c0,0,40,-31,91,-31h24V0H21V27c0,0,83,1,116,35c0,0,33,33,33,114V891l-21,26c0,0,-32,41,-57,53c0,0,-24,13,-71,15v27H380L880,385V819c0,0,0,92,-26,124c0,0,-34,42,-116,42c-1,0,-3,0,-4,0v27h334V985c0,0,-64,-9,-86,-22c0,0,-22,-13,-35,-42c0,0,-12,-30,-12,-102V-21Z" 
id="f4_1e"
transform="scale(0.001,-0.001)" />

<path d="M304,-20c0,0,-59,0,-105,36c0,0,-45,36,-61,84c0,0,-16,49,-16,169V546c0,0,0,79,-14,98c0,0,-15,20,-61,26v27H331V221c0,0,0,-74,8,-96c0,0,7,-21,22,-33c0,0,15,-11,35,-11c0,0,27,0,49,14c0,0,30,20,71,78V546c0,0,0,79,-14,98c0,0,-15,20,-61,26v27H726V152c0,0,0,-81,14,-100c0,0,15,-20,61,-26V0H516V93C516,93,466,34,416,7c0,0,-50,-27,-112,-27Z" 
id="f4_2h"
transform="scale(0.001,-0.001)" />

<path d="M365,-20c0,0,-139,0,-223,105c0,0,-83,105,-83,253c0,0,0,142,76,250c0,0,92,131,253,131c0,0,108,0,172,-55c0,0,63,-54,63,-121c0,0,0,-43,-25,-68c0,0,-26,-25,-68,-25c0,0,-44,0,-73,29c0,0,-28,29,-35,104c0,0,-5,47,-22,65c0,0,-17,19,-40,19c0,0,-36,0,-61,-38c0,0,-39,-58,-39,-176c0,0,0,-99,31,-188c0,0,32,-90,86,-134c0,0,41,-32,97,-32c0,0,36,0,69,17c0,0,33,17,78,65l23,-18C644,163,595,70,521,25c0,0,-73,-45,-156,-45Z" 
id="f4_1z"
transform="scale(0.001,-0.001)" />

<path d="M32,0V26c0,0,46,2,69,27c0,0,14,18,14,92V867c0,0,0,74,-17,94c0,0,-17,21,-66,24v27H325V145c0,0,0,-74,17,-95c0,0,17,-21,68,-24V0Z" 
id="f4_28"
transform="scale(0.001,-0.001)" />

<path d="M458,424c0,0,0,120,-13,165c0,0,-13,44,-40,67c0,0,-16,14,-42,14c0,0,-39,0,-63,-38c0,0,-44,-66,-44,-182V424ZM358,-20c0,0,-155,0,-235,119c0,0,-64,96,-64,239c0,0,0,174,94,277c0,0,94,104,221,104c0,0,106,0,184,-87c0,0,78,-87,84,-257H259c0,0,7,-139,74,-220c0,0,51,-62,124,-62c0,0,45,0,81,25c0,0,37,25,79,90l25,-16C642,192,585,76,517,28c0,0,-69,-48,-159,-48Z" 
id="f4_21"
transform="scale(0.001,-0.001)" />

<path d="M350,115c0,0,37,0,86,42V391c0,0,-90,-53,-134,-113c0,0,-29,-41,-29,-82c0,0,0,-34,24,-60c0,0,19,-21,53,-21ZM207,-9c0,0,-59,0,-99,38c0,0,-40,40,-40,99c0,0,0,80,69,143c0,0,69,64,299,170v70c0,0,0,79,-8,100c0,0,-9,20,-33,36c0,0,-23,15,-53,15c0,0,-49,0,-80,-22c0,0,-19,-13,-19,-31c0,0,0,-16,21,-39c0,0,28,-32,28,-62c0,0,0,-36,-27,-62c0,0,-27,-26,-71,-26c0,0,-47,0,-79,29c0,0,-32,28,-32,66c0,0,0,54,43,103c0,0,42,48,118,75c0,0,76,26,158,26c0,0,99,0,157,-42c0,0,58,-43,75,-92c0,0,11,-31,11,-144V170c0,0,0,-47,3,-60c0,0,4,-12,11,-18c0,0,8,-6,18,-6c0,0,19,0,39,28L738,96c0,0,-37,-56,-77,-81c0,0,-40,-24,-90,-24c0,0,-60,0,-94,27c0,0,-33,28,-41,85C436,103,309,-9,207,-9Z" 
id="f4_1x"
transform="scale(0.001,-0.001)" />

<path d="M57,0V26c0,0,45,4,61,25c0,0,16,22,16,113V550c0,0,0,59,-6,76c0,0,-7,21,-22,30c0,0,-14,10,-49,14v27H342l1,-158c0,0,69,109,121,144c0,0,52,36,100,36c0,0,42,0,66,-26c0,0,25,-26,25,-73c0,0,0,-50,-24,-77c0,0,-25,-28,-59,-28c0,0,-39,0,-68,25c0,0,-28,26,-33,29c0,0,-8,4,-17,4c0,0,-22,0,-41,-16c0,0,-31,-26,-46,-73c0,0,-24,-72,-24,-159V122c0,0,0,-42,5,-54c0,0,9,-21,27,-30c0,0,17,-9,59,-12V0Z" 
id="f4_2e"
transform="scale(0.001,-0.001)" />

<path d="M34,0V27H68c0,0,44,0,71,16c0,0,19,11,30,36c0,0,8,18,8,94V839c0,0,0,78,-8,97c0,0,-8,20,-33,34c0,0,-26,15,-68,15H34v27H887V722H857c0,0,-10,102,-53,151c0,0,-43,49,-125,69c0,0,-44,11,-165,11H420V538h29c0,0,67,0,109,20c0,0,43,20,72,68c0,0,30,48,39,129h26V247H669c0,0,-14,144,-77,190c0,0,-63,46,-143,46H420V173c0,0,0,-78,9,-97c0,0,9,-20,33,-34c0,0,25,-15,68,-15h33V0Z" 
id="f4_16"
transform="scale(0.001,-0.001)" />

<path d="M32,0V26c0,0,46,2,69,27c0,0,14,18,14,92V551c0,0,0,75,-17,95c0,0,-17,21,-66,24v27H325V145c0,0,0,-74,17,-95c0,0,17,-21,68,-24V0ZM220,804c0,0,-48,0,-82,33c0,0,-33,34,-33,82c0,0,0,48,33,82c0,0,34,33,82,33c0,0,48,0,82,-33c0,0,33,-34,33,-82c0,0,0,-48,-34,-82c0,0,-34,-33,-81,-33Z" 
id="f4_25"
transform="scale(0.001,-0.001)" />

<path d="M312,-20c0,0,-50,0,-134,30c0,0,-22,9,-30,9c0,0,-25,0,-41,-37H82L70,232H97c0,0,33,-99,91,-148c0,0,59,-49,111,-49c0,0,35,0,58,22c0,0,22,22,22,54c0,0,0,35,-22,61c0,0,-22,27,-100,80c0,0,-114,79,-147,120c0,0,-49,62,-49,136c0,0,0,80,55,145c0,0,56,66,161,66c0,0,56,0,109,-28c0,0,20,-11,33,-11c0,0,13,0,21,5c0,0,9,6,27,32h26L504,479H477c0,0,-45,106,-94,145c0,0,-48,39,-96,39c0,0,-31,0,-52,-21c0,0,-22,-20,-22,-47c0,0,0,-20,15,-39c0,0,24,-30,133,-105c0,0,110,-74,144,-126c0,0,35,-52,35,-116c0,0,0,-58,-29,-114C511,95,482,39,429,9c0,0,-53,-29,-117,-29Z" 
id="f4_2f"
transform="scale(0.001,-0.001)" />

<path d="M381,31c0,0,33,0,56,19c0,0,29,25,38,71c0,0,15,71,15,286c0,0,0,127,-14,174c0,0,-14,48,-42,69c0,0,-19,16,-50,16c0,0,-38,0,-65,-29c0,0,-27,-29,-36,-113c0,0,-8,-85,-8,-235c0,0,0,-80,10,-150c0,0,8,-53,35,-80c0,0,27,-28,61,-28Zm2,-51c0,0,-157,0,-242,110c0,0,-85,110,-85,256c0,0,0,150,87,261c0,0,86,112,238,112c0,0,90,0,169,-47c0,0,78,-47,119,-134c0,0,40,-86,40,-189c0,0,0,-149,-75,-249c0,0,-91,-120,-251,-120Z" 
id="f4_2b"
transform="scale(0.001,-0.001)" />

<path d="M52,0V26c0,0,44,5,62,29c0,0,13,16,13,97V546c0,0,0,79,-14,98c0,0,-15,20,-61,26v27H336V607c0,0,54,59,104,85c0,0,49,27,106,27c0,0,68,0,113,-38c0,0,44,-38,59,-94c0,0,12,-42,12,-163V152c0,0,0,-81,15,-101c0,0,14,-19,61,-25V0H452V26c0,0,40,6,57,33c0,0,12,19,12,93V462c0,0,0,86,-7,109c0,0,-6,22,-22,35c0,0,-16,12,-36,12c0,0,-64,0,-120,-92V152c0,0,0,-79,15,-100c0,0,15,-20,55,-26V0Z" 
id="f4_2a"
transform="scale(0.001,-0.001)" />

<path d="M254,-18c0,0,-51,0,-88,36c0,0,-36,36,-36,87c0,0,0,52,36,88c0,0,37,37,88,37c0,0,53,0,89,-37c0,0,36,-36,36,-88c0,0,0,-51,-36,-87c0,0,-37,-36,-89,-36Zm2,488c0,0,-52,0,-88,36c0,0,-36,37,-36,88c0,0,0,51,36,88c0,0,36,36,88,36c0,0,51,0,87,-36c0,0,36,-37,36,-88c0,0,0,-51,-36,-88c0,0,-36,-36,-87,-36Z" 
id="f4_u"
transform="scale(0.001,-0.001)" />

<path d="M474,-21L174,817c0,0,-34,94,-42,112c0,0,-15,28,-41,42c0,0,-26,14,-70,14v27H395V985H377c0,0,-40,0,-60,-18c0,0,-21,-18,-21,-44c0,0,0,-26,33,-120L528,235L696,718l-30,85l-24,68c0,0,-16,37,-35,66c0,0,-10,14,-24,24c0,0,-19,13,-38,19c0,0,-14,5,-44,5v27H894V985H867c0,0,-41,0,-61,-18c0,0,-19,-18,-19,-49c0,0,0,-38,33,-133L1015,235l193,557c0,0,32,93,32,129c0,0,0,17,-10,32c0,0,-11,15,-28,21c0,0,-28,11,-74,11v27h302V985c0,0,-39,0,-64,-15c0,0,-25,-14,-47,-53c0,0,-15,-26,-47,-124L990,-21H960L729,624L501,-21Z" 
id="f0_1n"
transform="scale(0.001,-0.001)" />

<path d="M400,67c0,0,47,0,91,18c0,0,44,19,119,80c0,0,-98,134,-136,196c0,0,-38,62,-84,154c0,0,-89,-51,-135,-113c0,0,-45,-62,-45,-135c0,0,0,-80,52,-140c0,0,51,-60,138,-60Zm95,565c0,0,92,44,138,100c0,0,46,56,46,124c0,0,0,54,-34,89c0,0,-33,35,-82,35c0,0,-65,0,-99,-45c0,0,-33,-45,-33,-89c0,0,0,-36,13,-81c0,0,13,-45,51,-133ZM324,-22c0,0,-124,0,-196,64c0,0,-72,66,-72,157c0,0,0,90,65,180c0,0,65,90,244,186c0,0,-35,78,-48,127c0,0,-13,50,-13,96c0,0,0,127,94,194c0,0,73,52,167,52c0,0,89,0,145,-52c0,0,56,-53,56,-130c0,0,0,-79,-54,-138c0,0,-55,-60,-192,-131c0,0,95,-169,198,-309c0,0,131,157,131,264c0,0,0,34,-23,61c0,0,-16,20,-47,24v28h313V623c0,0,-65,-5,-96,-29c0,0,-30,-23,-96,-142c0,0,-65,-119,-147,-221c0,0,66,-78,118,-109c0,0,52,-31,105,-31c0,0,52,0,88,28c0,0,36,28,50,82l28,-20c0,0,-28,-105,-89,-155c0,0,-61,-48,-142,-48c0,0,-61,0,-124,32c0,0,-63,33,-138,112C649,122,556,40,482,8c0,0,-74,-30,-158,-30Z" 
id="f0_a"
transform="scale(0.001,-0.001)" />

<path d="M213,-20c0,0,-34,0,-58,24c0,0,-24,24,-24,58c0,0,0,34,24,58c0,0,24,25,58,25c0,0,35,0,59,-25c0,0,24,-24,24,-58c0,0,0,-34,-24,-58c0,0,-25,-24,-59,-24Zm3,559c0,0,-35,0,-59,24c0,0,-24,24,-24,58c0,0,0,35,24,59c0,0,24,24,59,24c0,0,34,0,58,-24c0,0,24,-24,24,-59c0,0,0,-34,-24,-58c0,0,-24,-24,-58,-24Z" 
id="f0_u"
transform="scale(0.001,-0.001)" />

<path d="M394,23c0,0,80,0,129,45c0,0,48,45,48,110c0,0,0,54,-28,97c0,0,-53,79,-214,206c0,0,-62,-52,-92,-114c0,0,-30,-61,-30,-133c0,0,0,-96,53,-154c0,0,52,-57,134,-57Zm17,566c0,0,90,81,114,128c0,0,24,46,24,105c0,0,0,79,-44,123c0,0,-44,45,-121,45c0,0,-76,0,-124,-45c0,0,-48,-44,-48,-103c0,0,0,-38,20,-77c0,0,20,-39,56,-74L411,589ZM382,-17c0,0,-144,0,-225,90c0,0,-64,72,-64,158c0,0,0,67,45,133c0,0,45,66,156,146c0,0,-121,98,-156,158c0,0,-34,59,-34,124c0,0,0,98,76,169c0,0,76,72,202,72c0,0,123,0,198,-67c0,0,74,-66,74,-151c0,0,0,-57,-40,-116c0,0,-40,-59,-168,-139c0,0,132,-101,174,-159c0,0,57,-76,57,-161c0,0,0,-106,-82,-182c0,0,-81,-75,-213,-75Z" 
id="f0_s"
transform="scale(0.001,-0.001)" />

<path d="M505,-21c0,0,-153,0,-247,85c0,0,-94,86,-94,197c0,0,0,43,8,93c0,0,6,33,29,114L301,813c0,0,21,75,21,110c0,0,0,27,-21,43c0,0,-21,15,-107,20l7,26H626l-8,-26c0,0,-66,-2,-94,-13c0,0,-28,-11,-47,-39c0,0,-20,-27,-42,-103L326,455c0,0,-29,-100,-34,-131c0,0,-9,-44,-9,-82c0,0,0,-83,70,-140c0,0,69,-57,187,-57c0,0,76,0,135,28c0,0,59,28,100,78c0,0,42,50,77,136c0,0,34,86,60,174l86,310c0,0,34,116,34,151c0,0,0,25,-23,42c0,0,-23,18,-92,22l8,26h319l-8,-26c0,0,-57,0,-82,-11c0,0,-25,-11,-43,-40c0,0,-19,-28,-42,-109L958,433c0,0,-54,-191,-97,-270C861,163,818,84,728,31c0,0,-90,-52,-223,-52Z" 
id="f1_1l"
transform="scale(0.001,-0.001)" />

<path d="M357,55c0,0,117,0,206,70c0,0,90,70,90,191c0,0,0,92,-56,144c0,0,-57,51,-182,51c0,0,-24,0,-59,-3L231,65c0,0,81,-10,126,-10Zm86,508c0,0,158,0,234,68c0,0,77,67,77,169c0,0,0,76,-48,119c0,0,-48,43,-153,43c0,0,-28,0,-71,-9L372,564c0,0,49,-1,71,-1ZM-34,0l10,26c0,0,57,2,78,12c0,0,30,12,42,33c0,0,18,29,48,131L318,816c0,0,23,78,23,109c0,0,0,28,-20,44c0,0,-21,16,-78,16c0,0,-13,0,-24,1l10,26H594c0,0,92,0,164,-28c0,0,72,-29,108,-79c0,0,36,-51,36,-108c0,0,0,-87,-66,-157c0,0,-66,-71,-216,-104c0,0,99,-35,146,-91c0,0,46,-57,46,-125c0,0,0,-76,-39,-144c0,0,-39,-69,-99,-107C674,69,613,31,527,13C527,13,466,0,336,0Z" 
id="f1_12"
transform="scale(0.001,-0.001)" />

<path d="M251,69c0,0,93,0,201,118c0,0,131,157,126,322c0,0,0,62,-26,90c0,0,-27,28,-74,28c0,0,-52,0,-110,-44c0,0,-83,-62,-148,-185c0,0,-64,-122,-64,-221c0,0,0,-50,28,-79c0,0,29,-29,67,-29ZM183,-17c0,0,-60,0,-103,44C80,27,36,71,36,149c0,0,0,117,77,247c0,0,77,130,195,208c0,0,92,62,174,62c0,0,49,0,82,-22c0,0,32,-22,49,-73l24,77l115,18L609,160L593,92c0,0,-2,-10,-2,-17c0,0,0,-10,5,-19c0,0,4,-6,11,-6c0,0,6,0,17,11c0,0,21,20,55,88l25,-18c0,0,-43,-75,-89,-112c0,0,-45,-36,-84,-36c0,0,-27,0,-42,16c0,0,-15,15,-15,46c0,0,0,36,17,96l16,55C507,196,399,69,309,19c0,0,-64,-36,-126,-36Z" 
id="f1_1x"
transform="scale(0.001,-0.001)" />

<path d="M-40,0l10,26c0,0,57,2,77,11c0,0,30,13,44,34c0,0,20,31,48,128L313,811c0,0,20,71,20,113c0,0,0,30,-19,46c0,0,-19,16,-74,16H225l9,26H614l-8,-26h-1c-9,0,-48,-1,-69,-11c0,0,-32,-16,-47,-40c0,0,-15,-25,-44,-124L369,549L729,821c0,0,72,54,94,86c0,0,14,20,14,36c0,0,0,13,-14,26c0,0,-14,13,-42,17l7,26h325l-7,-26c0,0,-53,-9,-89,-24c0,0,-36,-15,-74,-41c0,0,-11,-7,-146,-112L485,573L738,188c0,0,67,-104,111,-133c0,0,44,-29,116,-29L956,0H524l7,26c0,0,52,6,73,25c0,0,21,20,21,44c0,0,0,23,-7,44c0,0,-6,15,-44,74L367,533L267,185c0,0,-25,-75,-25,-100c0,0,0,-26,21,-40c0,0,21,-14,103,-19L354,0Z" 
id="f1_1b"
transform="scale(0.001,-0.001)" />

<path d="M31,0L164,463c0,0,24,81,24,115c0,0,0,14,-12,23c0,0,-14,12,-37,12c0,0,-15,0,-54,-7L74,633l255,42L220,312c0,0,134,223,243,312c0,0,62,51,102,51c0,0,25,0,39,-15c0,0,15,-15,15,-42c0,0,0,-50,-25,-94c0,0,-18,-34,-52,-34c0,0,-17,0,-30,11c0,0,-12,11,-15,35c0,0,-1,14,-7,18c0,0,-6,6,-14,6c0,0,-13,0,-24,-6c0,0,-19,-10,-59,-58c0,0,-62,-73,-134,-189c0,0,-32,-49,-54,-111c0,0,-32,-85,-36,-102L145,0Z" 
id="f1_2e"
transform="scale(0.001,-0.001)" />

<path d="M290,-283c0,0,107,0,183,37c0,0,76,36,76,93c0,0,0,29,-28,55c0,0,-28,27,-109,43c0,0,-44,9,-232,55c0,0,-60,-27,-91,-70c0,0,-31,-43,-31,-85c0,0,0,-49,44,-81c0,0,65,-47,188,-47Zm53,531c0,0,39,0,76,22c0,0,37,22,63,60c0,0,25,38,40,96c0,0,15,59,15,85c0,0,0,60,-33,94c0,0,-33,34,-87,34c0,0,-85,0,-139,-84c0,0,-55,-85,-55,-176c0,0,0,-58,35,-94c0,0,35,-37,85,-37ZM269,-328c0,0,-92,0,-168,21c0,0,-76,22,-108,60c0,0,-33,37,-33,76c0,0,0,32,21,67c0,0,21,35,53,57c0,0,20,14,114,66c0,0,-35,27,-35,59c0,0,0,30,31,63c0,0,30,34,127,74c0,0,-82,16,-130,69c0,0,-48,53,-48,118c0,0,0,106,93,189c0,0,93,84,247,84c0,0,56,0,92,-11c0,0,36,-12,70,-35H796L774,551H650c0,0,14,-40,14,-75c0,0,0,-99,-84,-176c0,0,-84,-77,-231,-85c0,0,-79,-24,-118,-57c0,0,-15,-12,-15,-25c0,0,0,-14,13,-27c0,0,14,-12,68,-25L442,48c0,0,120,-28,159,-66c0,0,38,-39,38,-91c0,0,0,-61,-46,-111c0,0,-45,-51,-132,-80c0,0,-87,-28,-192,-28Z" 
id="f1_23"
transform="scale(0.001,-0.001)" />

<path d="M-60,-328c0,0,-23,0,-41,17c0,0,-17,18,-17,41c0,0,0,29,24,53c0,0,24,23,53,23c0,0,15,0,24,-6c0,0,6,-4,13,-21c0,0,6,-18,12,-24c0,0,4,-3,9,-3c0,0,5,0,16,7c0,0,41,25,96,81c0,0,71,72,106,119L193,430c0,0,-11,117,-32,142c0,0,-20,25,-70,25c0,0,-15,0,-56,-4l-7,28l219,54c0,0,25,-43,35,-81c0,0,10,-38,20,-148L334,80c0,0,45,54,130,170c0,0,41,56,102,154c0,0,36,59,45,83c0,0,4,12,4,25c0,0,0,8,-5,13c0,0,-6,5,-28,12c0,0,-21,7,-36,26c0,0,-15,19,-15,44c0,0,0,30,18,49c0,0,18,19,45,19c0,0,33,0,56,-28c0,0,23,-27,23,-74c0,0,0,-59,-40,-135c0,0,-40,-76,-155,-232C478,206,363,49,200,-135c0,0,-113,-127,-168,-160c0,0,-53,-33,-92,-33Z" 
id="f1_2l"
transform="scale(0.001,-0.001)" />

<path d="M968,-20c0,0,42,100,87,170c0,0,45,70,144,184H56v73H1199c0,0,-106,122,-148,189c0,0,-43,67,-83,166h60c0,0,87,-108,217,-218c0,0,130,-110,206,-154V349c0,0,-99,-56,-217,-159c0,0,-117,-102,-206,-210Z" 
id="f3_34"
transform="scale(0.001,-0.001)" />

<path d="M289,23c0,0,39,0,79,22c0,0,40,22,78,64c0,0,39,43,69,98c0,0,31,56,55,131c0,0,24,75,24,149c0,0,0,60,-27,91c0,0,-27,32,-64,32c0,0,-81,0,-160,-92c0,0,-78,-93,-114,-217L165,78c0,0,46,-55,124,-55ZM-167,-326l7,27c0,0,70,3,94,24c0,0,24,21,51,116L172,494c0,0,17,61,17,76c0,0,0,20,-12,31c0,0,-11,11,-35,11c0,0,-22,0,-60,-5v30l254,38L286,503c0,0,81,96,145,134c0,0,64,38,130,38c0,0,67,0,114,-53c0,0,47,-52,47,-137c0,0,0,-164,-134,-333C588,152,455,-17,278,-17c0,0,-37,0,-66,8c0,0,-28,9,-64,28L93,-172c0,0,-17,-57,-17,-75c0,0,0,-16,9,-28c0,0,9,-11,28,-18c0,0,19,-6,77,-6l-7,-27Z" 
id="f1_2c"
transform="scale(0.001,-0.001)" />

<path d="M293,20c0,0,105,0,197,156c0,0,92,156,92,317c0,0,0,69,-34,106c0,0,-33,37,-87,37c0,0,-110,0,-202,-157c0,0,-92,-157,-92,-312c0,0,0,-71,36,-109c0,0,36,-38,90,-38ZM276,-17c0,0,-102,0,-167,65c0,0,-64,65,-64,168c0,0,0,110,63,220c0,0,63,111,168,175c0,0,106,64,204,64c0,0,99,0,162,-65c0,0,64,-65,64,-169c0,0,0,-111,-59,-221C647,220,588,111,482,46c0,0,-106,-63,-206,-63Z" 
id="f1_2b"
transform="scale(0.001,-0.001)" />

<path d="M22,-17c0,0,-29,0,-54,21c0,0,-18,16,-18,44c0,0,0,25,17,41c0,0,16,17,39,17c0,0,24,0,50,-24C56,82,76,65,86,65c0,0,9,0,23,11c0,0,35,28,95,122c0,0,61,93,79,134c0,0,-46,182,-49,193c0,0,-17,49,-45,69c0,0,-27,20,-81,20c0,0,-17,0,-40,-1v26l199,36c0,0,37,-39,55,-78c0,0,14,-26,44,-141l66,99c0,0,26,35,64,68c0,0,37,32,65,44c0,0,18,8,40,8c0,0,32,0,51,-17c0,0,19,-18,19,-42c0,0,0,-29,-11,-39c0,0,-21,-19,-48,-19c0,0,-16,0,-34,7c0,0,-35,12,-47,12c0,0,-18,0,-43,-21c0,0,-46,-39,-111,-150L439,150c0,0,14,-59,24,-71c0,0,10,-11,20,-11c0,0,15,0,37,17c0,0,41,34,70,89l27,-13C617,161,569,73,497,15c0,0,-41,-32,-70,-32c0,0,-42,0,-66,46c0,0,-16,29,-64,251C297,280,180,78,110,20c0,0,-46,-37,-88,-37Z" 
id="f1_2k"
transform="scale(0.001,-0.001)" />

<path d="M2,0l8,26H31c0,0,73,0,106,35c0,0,24,24,50,107L403,923c0,0,-25,33,-47,44c0,0,-22,12,-83,19l8,26H536L637,193l595,819h239V986c0,0,-80,-6,-94,-12c0,0,-25,-11,-46,-43c0,0,-20,-32,-44,-124L1102,165c0,0,-16,-50,-16,-79c0,0,0,-27,20,-40c0,0,28,-20,89,-20h18L1206,0H787l7,26h20c0,0,57,0,87,17c0,0,23,12,41,45c0,0,18,34,51,148l166,587L564,0H533L431,823L254,197c0,0,-23,-80,-23,-108c0,0,0,-28,20,-43c0,0,20,-14,97,-20L340,0Z" 
id="f1_1d"
transform="scale(0.001,-0.001)" />

<path d="M613,-21c0,0,-293,0,-445,186C168,165,54,306,54,490c0,0,0,134,64,256c0,0,76,145,209,224c0,0,111,64,262,64c0,0,55,0,100,-9c0,0,45,-9,128,-39c0,0,42,-16,56,-16c0,0,14,0,24,13c0,0,10,13,12,51h28L963,715H937c0,0,-40,119,-102,179c0,0,-91,88,-232,88c0,0,-193,0,-294,-153c0,0,-84,-129,-84,-307c0,0,0,-144,56,-263c0,0,56,-120,146,-175c0,0,91,-56,186,-56c0,0,56,0,109,15c0,0,52,14,100,41V376c0,0,0,77,-11,101c0,0,-12,23,-36,36c0,0,-24,12,-86,12v27h392V525h-18c0,0,-58,0,-80,-39c0,0,-15,-28,-15,-110V67C968,67,882,21,799,0c0,0,-84,-21,-186,-21Z" 
id="f0_17"
transform="scale(0.001,-0.001)" />

<path d="M435,0V856c0,0,-48,-47,-127,-93c0,0,-79,-46,-142,-69V824c0,0,113,52,197,128c0,0,85,75,120,146h86V0Z" 
id="f5_l"
transform="scale(0.001,-0.001)" />

<path d="M412,-18c0,0,-144,0,-239,85c0,0,-95,86,-108,222l133,18c0,0,24,-114,79,-164c0,0,55,-50,135,-50c0,0,96,0,161,65c0,0,65,66,65,163c0,0,0,92,-61,152c0,0,-60,60,-153,60c0,0,-38,0,-95,-15l15,119c0,0,13,-2,21,-2c0,0,86,0,155,45c0,0,69,44,69,137c0,0,0,74,-50,122c0,0,-50,49,-129,49c0,0,-79,0,-131,-50c0,0,-52,-49,-67,-147L78,815c0,0,25,135,112,209c0,0,87,74,217,74c0,0,89,0,164,-38c0,0,76,-39,116,-105c0,0,40,-66,40,-141c0,0,0,-70,-39,-129c0,0,-38,-58,-112,-92c0,0,97,-22,151,-93c0,0,53,-70,53,-176c0,0,0,-143,-104,-243c0,0,-105,-99,-264,-99Z" 
id="f5_n"
transform="scale(0.001,-0.001)" />


</defs>
</svg>