<?xml version="1.0" encoding="UTF-8" standalone="no"?>
<!DOCTYPE svg PUBLIC "-//W3C//DTD SVG 1.1//EN"
"http://www.w3.org/Graphics/SVG/1.1/DTD/svg11.dtd">
<svg viewBox="0 0 909 1286" version="1.1" xmlns="http://www.w3.org/2000/svg" xmlns:xlink="http://www.w3.org/1999/xlink">
<defs>
<clipPath id="c0_136"><path d="M582.3,412.9v-52h24.1v52Z" /></clipPath>
<clipPath id="c1_136"><path d="M55,506.5V454.6H226.1v51.9Z" /></clipPath>
<clipPath id="c2_136"><path d="M55,895.5V843.6h61.2v51.9Z" /></clipPath>
<clipPath id="c3_136"><path d="M55,968V916.1h61.2V968Z" /></clipPath>
<style type="text/css"><![CDATA[
.g0_136{
fill: #D9D9D9;
}
.g1_136{
fill: none;
stroke: #000000;
stroke-width: 0.7638889;
stroke-linecap: butt;
stroke-linejoin: miter;
}
.g2_136{
fill: none;
stroke: #000000;
stroke-width: 0.8846495;
stroke-linecap: butt;
stroke-linejoin: round;
}
.g3_136{
fill: none;
stroke: #000000;
stroke-width: 0.90689015;
stroke-linecap: butt;
stroke-linejoin: round;
}
.g4_136{
fill: none;
stroke: #000000;
stroke-width: 0.8941892;
stroke-linecap: butt;
stroke-linejoin: round;
}
.g5_136{
fill: #FFFFFF;
}
.g6_136{
fill: none;
stroke: #ED7D31;
stroke-width: 1.5277778;
stroke-linecap: butt;
stroke-linejoin: miter;
}
.g7_136{
fill: none;
stroke: #4472C4;
stroke-width: 0.7638889;
stroke-linecap: butt;
stroke-linejoin: miter;
}
.g8_136{
fill: #4472C4;
}
.g9_136{
fill: none;
stroke: #2F528F;
stroke-width: 1.5277778;
stroke-linecap: butt;
stroke-linejoin: miter;
}
.g10_136{
}
]]></style>
</defs>
<image preserveAspectRatio="none" x="336" y="42" width="259" height="49" xlink:href="img/1.png" />
<image preserveAspectRatio="none" x="342" y="50" width="247" height="27" xlink:href="img/2.png" />
<image preserveAspectRatio="none" x="341" y="46" width="238" height="41" xlink:href="img/3.png" />
<g fill="#FFFFFF" >
<use xlink:href="#f0_j" transform="matrix(11.5,0,0,11.5,354.9,70)" />
<use xlink:href="#f0_i" transform="matrix(11.5,0,0,11.5,364.2,70)" />
<use xlink:href="#f0_2n" transform="matrix(11.5,0,0,11.5,374.1,70)" />
<use xlink:href="#f0_t" transform="matrix(11.5,0,0,11.5,382.4,70)" />
<use xlink:href="#f0_oj" transform="matrix(11.5,0,0,11.5,391,70)" />
<use xlink:href="#f0_3e" transform="matrix(11.5,0,0,11.5,396.3,70)" />
<use xlink:href="#f0_1c" transform="matrix(11.5,0,0,11.5,406,70)" />
<use xlink:href="#f0_1c" transform="matrix(11.5,0,0,11.5,410.7,70)" />
<use xlink:href="#f0_oj" transform="matrix(11.5,0,0,11.5,415.4,70)" />
<use xlink:href="#f0_rz" transform="matrix(11.5,0,0,11.5,420.8,70)" />
<use xlink:href="#f0_rx" transform="matrix(11.5,0,0,11.5,429.7,70)" />
<use xlink:href="#f0_ry" transform="matrix(11.5,0,0,11.5,438.6,70)" />
<use xlink:href="#f0_s2" transform="matrix(11.5,0,0,11.5,447.4,70)" />
<use xlink:href="#f0_t" transform="matrix(11.5,0,0,11.5,460.2,70)" />
<use xlink:href="#f0_3e" transform="matrix(11.5,0,0,11.5,468.8,70)" />
<use xlink:href="#f0_5" transform="matrix(11.5,0,0,11.5,478.5,70)" />
<use xlink:href="#f0_1x" transform="matrix(11.5,0,0,11.5,489.2,70)" />
<use xlink:href="#f0_1c" transform="matrix(11.5,0,0,11.5,504.6,70)" />
<use xlink:href="#f0_1y" transform="matrix(11.5,0,0,11.5,509.3,70)" />
<use xlink:href="#f0_5" transform="matrix(11.5,0,0,11.5,520.9,70)" />
<use xlink:href="#f0_2t" transform="matrix(11.5,0,0,11.5,531.5,70)" />
<use xlink:href="#f0_1c" transform="matrix(11.5,0,0,11.5,540.2,70)" />
<use xlink:href="#f0_24" transform="matrix(11.5,0,0,11.5,544.9,70)" />
<use xlink:href="#f0_1y" transform="matrix(11.5,0,0,11.5,556.8,70)" />
</g>
<image preserveAspectRatio="none" x="554" y="46" width="36" height="41" xlink:href="img/4.png" />
<image preserveAspectRatio="none" x="748" y="1196" width="94" height="58" xlink:href="img/5.png" />
<g fill="#FFFFFF" >
<use xlink:href="#f1_l" transform="matrix(11,0,0,11,770.1,1227.7)" />
<use xlink:href="#f1_t" transform="matrix(11,0,0,11,779,1227.7)" />
<use xlink:href="#f1_j" transform="matrix(11,0,0,11,792.4,1227.7)" />
<use xlink:href="#f1_m" transform="matrix(11,0,0,11,803,1227.7)" />
<use xlink:href="#f1_o" transform="matrix(11,0,0,11,811.9,1227.7)" />
</g>
<path fill-rule="evenodd" d="M52.7,1193.2H856.9v-.7H52.7v.7Z" class="g0_136" />
<path d="M37.9,99.4L873,98.5" class="g1_136" />
<g fill="#000000" >
<use xlink:href="#f2_c" transform="matrix(12,0,0,12,55,294)" />
<use xlink:href="#f2_1y" transform="matrix(12,0,0,12,61.1,294)" />
<use xlink:href="#f2_d" transform="matrix(12,0,0,12,70.3,294)" />
<use xlink:href="#f2_14" transform="matrix(12,0,0,12,81,294)" />
<use xlink:href="#f2_21" transform="matrix(12,0,0,12,94.3,294)" />
<use xlink:href="#f2_2c" transform="matrix(12,0,0,12,102.4,294)" />
<use xlink:href="#f2_25" transform="matrix(12,0,0,12,111.6,294)" />
<use xlink:href="#f2_1z" transform="matrix(12,0,0,12,116.7,294)" />
<use xlink:href="#f2_2g" transform="matrix(12,0,0,12,124.7,294)" />
<use xlink:href="#f2_2g" transform="matrix(12,0,0,12,134.4,294)" />
<use xlink:href="#f2_24" transform="matrix(12,0,0,12,139.6,294)" />
<use xlink:href="#f2_21" transform="matrix(12,0,0,12,148.6,294)" />
<use xlink:href="#f2_21" transform="matrix(12,0,0,12,161.4,294)" />
<use xlink:href="#f2_2d" transform="matrix(12,0,0,12,169.5,294)" />
<use xlink:href="#f2_2h" transform="matrix(12,0,0,12,178.7,294)" />
<use xlink:href="#f2_25" transform="matrix(12,0,0,12,187.8,294)" />
<use xlink:href="#f2_2c" transform="matrix(12,0,0,12,193,294)" />
<use xlink:href="#f2_2b" transform="matrix(12,0,0,12,202.2,294)" />
<use xlink:href="#f2_2g" transform="matrix(12,0,0,12,211.3,294)" />
<use xlink:href="#f2_21" transform="matrix(12,0,0,12,216.4,294)" />
<use xlink:href="#f2_2a" transform="matrix(12,0,0,12,224.5,294)" />
<use xlink:href="#f2_2g" transform="matrix(12,0,0,12,233.7,294)" />
<use xlink:href="#f2_25" transform="matrix(12,0,0,12,238.8,294)" />
<use xlink:href="#f2_1x" transform="matrix(12,0,0,12,243.9,294)" />
<use xlink:href="#f2_28" transform="matrix(12,0,0,12,252,294)" />
<use xlink:href="#f2_2f" transform="matrix(12,0,0,12,261.7,294)" />
<use xlink:href="#f2_2h" transform="matrix(12,0,0,12,268.9,294)" />
<use xlink:href="#f2_2e" transform="matrix(12,0,0,12,278,294)" />
<use xlink:href="#f2_22" transform="matrix(12,0,0,12,284.1,294)" />
<use xlink:href="#f2_1x" transform="matrix(12,0,0,12,290.2,294)" />
<use xlink:href="#f2_1z" transform="matrix(12,0,0,12,298.3,294)" />
<use xlink:href="#f2_21" transform="matrix(12,0,0,12,306.4,294)" />
<use xlink:href="#f2_20" transform="matrix(12,0,0,12,319.2,294)" />
<use xlink:href="#f2_2h" transform="matrix(12,0,0,12,328.3,294)" />
<use xlink:href="#f2_21" transform="matrix(12,0,0,12,337.4,294)" />
<use xlink:href="#f2_2g" transform="matrix(12,0,0,12,350.2,294)" />
<use xlink:href="#f2_2b" transform="matrix(12,0,0,12,355.3,294)" />
<use xlink:href="#f2_c" transform="matrix(12,0,0,12,55,315.1)" />
<use xlink:href="#f2_25" transform="matrix(12,0,0,12,61.1,315.1)" />
<use xlink:href="#f2_d" transform="matrix(12,0,0,12,66.3,315.1)" />
<use xlink:href="#f2_1x" transform="matrix(12,0,0,12,76.9,315.1)" />
<use xlink:href="#f2_2a" transform="matrix(12,0,0,12,85.1,315.1)" />
<use xlink:href="#f2_21" transform="matrix(12,0,0,12,98.8,315.1)" />
<use xlink:href="#f2_28" transform="matrix(12,0,0,12,106.9,315.1)" />
<use xlink:href="#f2_21" transform="matrix(12,0,0,12,112,315.1)" />
<use xlink:href="#f2_1z" transform="matrix(12,0,0,12,120.2,315.1)" />
<use xlink:href="#f2_2g" transform="matrix(12,0,0,12,128.3,315.1)" />
<use xlink:href="#f2_2e" transform="matrix(12,0,0,12,133.4,315.1)" />
<use xlink:href="#f2_25" transform="matrix(12,0,0,12,139.5,315.1)" />
<use xlink:href="#f2_1z" transform="matrix(12,0,0,12,144.5,315.1)" />
<use xlink:href="#f2_20" transform="matrix(12,0,0,12,157.2,315.1)" />
<use xlink:href="#f2_25" transform="matrix(12,0,0,12,166.4,315.1)" />
<use xlink:href="#f2_2c" transform="matrix(12,0,0,12,171.5,315.1)" />
<use xlink:href="#f2_2b" transform="matrix(12,0,0,12,180.7,315.1)" />
<use xlink:href="#f2_28" transform="matrix(12,0,0,12,189.8,315.1)" />
<use xlink:href="#f2_21" transform="matrix(12,0,0,12,195,315.1)" />
<use xlink:href="#f2_g" transform="matrix(12,0,0,12,203.2,315.1)" />
<use xlink:href="#f2_c" transform="matrix(12,0,0,12,55,336.2)" />
<use xlink:href="#f2_25" transform="matrix(12,0,0,12,61.1,336.2)" />
<use xlink:href="#f2_25" transform="matrix(12,0,0,12,66.3,336.2)" />
<use xlink:href="#f2_d" transform="matrix(12,0,0,12,71.4,336.2)" />
<use xlink:href="#f2_2g" transform="matrix(12,0,0,12,82,336.2)" />
<use xlink:href="#f2_2j" transform="matrix(12,0,0,12,87.1,336.2)" />
<use xlink:href="#f2_2b" transform="matrix(12,0,0,12,100.4,336.2)" />
<use xlink:href="#f2_25" transform="matrix(12,0,0,12,114.1,336.2)" />
<use xlink:href="#f2_20" transform="matrix(12,0,0,12,119.2,336.2)" />
<use xlink:href="#f2_21" transform="matrix(12,0,0,12,128.4,336.2)" />
<use xlink:href="#f2_2a" transform="matrix(12,0,0,12,136.5,336.2)" />
<use xlink:href="#f2_2g" transform="matrix(12,0,0,12,145.6,336.2)" />
<use xlink:href="#f2_25" transform="matrix(12,0,0,12,150.7,336.2)" />
<use xlink:href="#f2_1z" transform="matrix(12,0,0,12,155.9,336.2)" />
<use xlink:href="#f2_1x" transform="matrix(12,0,0,12,164,336.2)" />
<use xlink:href="#f2_28" transform="matrix(12,0,0,12,172.1,336.2)" />
<use xlink:href="#f2_2c" transform="matrix(12,0,0,12,181.8,336.2)" />
<use xlink:href="#f2_2b" transform="matrix(12,0,0,12,191,336.2)" />
<use xlink:href="#f2_2f" transform="matrix(12,0,0,12,200.1,336.2)" />
<use xlink:href="#f2_25" transform="matrix(12,0,0,12,207.3,336.2)" />
<use xlink:href="#f2_2g" transform="matrix(12,0,0,12,212.4,336.2)" />
<use xlink:href="#f2_25" transform="matrix(12,0,0,12,217.5,336.2)" />
<use xlink:href="#f2_2i" transform="matrix(12,0,0,12,222.6,336.2)" />
<use xlink:href="#f2_21" transform="matrix(12,0,0,12,231.7,336.2)" />
<use xlink:href="#f2_1z" transform="matrix(12,0,0,12,244.4,336.2)" />
<use xlink:href="#f2_24" transform="matrix(12,0,0,12,252.5,336.2)" />
<use xlink:href="#f2_1x" transform="matrix(12,0,0,12,261.7,336.2)" />
<use xlink:href="#f2_2e" transform="matrix(12,0,0,12,269.8,336.2)" />
<use xlink:href="#f2_23" transform="matrix(12,0,0,12,276,336.2)" />
<use xlink:href="#f2_21" transform="matrix(12,0,0,12,285.2,336.2)" />
<use xlink:href="#f2_2f" transform="matrix(12,0,0,12,293.3,336.2)" />
<use xlink:href="#f2_2f" transform="matrix(12,0,0,12,305,336.2)" />
<use xlink:href="#f2_21" transform="matrix(12,0,0,12,312.1,336.2)" />
<use xlink:href="#f2_2c" transform="matrix(12,0,0,12,320.2,336.2)" />
<use xlink:href="#f2_1x" transform="matrix(12,0,0,12,329.4,336.2)" />
<use xlink:href="#f2_2e" transform="matrix(12,0,0,12,337.6,336.2)" />
<use xlink:href="#f2_1x" transform="matrix(12,0,0,12,343.7,336.2)" />
<use xlink:href="#f2_2g" transform="matrix(12,0,0,12,351.8,336.2)" />
<use xlink:href="#f2_21" transform="matrix(12,0,0,12,356.9,336.2)" />
<use xlink:href="#f2_20" transform="matrix(12,0,0,12,365,336.2)" />
<use xlink:href="#f2_1y" transform="matrix(12,0,0,12,378.8,336.2)" />
<use xlink:href="#f2_2l" transform="matrix(12,0,0,12,388,336.2)" />
<use xlink:href="#f2_1x" transform="matrix(12,0,0,12,401.7,336.2)" />
<use xlink:href="#f2_20" transform="matrix(12,0,0,12,414.4,336.2)" />
<use xlink:href="#f2_25" transform="matrix(12,0,0,12,423.5,336.2)" />
<use xlink:href="#f2_2f" transform="matrix(12,0,0,12,428.6,336.2)" />
<use xlink:href="#f2_2g" transform="matrix(12,0,0,12,435.7,336.2)" />
<use xlink:href="#f2_1x" transform="matrix(12,0,0,12,440.9,336.2)" />
<use xlink:href="#f2_2a" transform="matrix(12,0,0,12,449.1,336.2)" />
<use xlink:href="#f2_1z" transform="matrix(12,0,0,12,458.2,336.2)" />
<use xlink:href="#f2_21" transform="matrix(12,0,0,12,466.3,336.2)" />
<use xlink:href="#f2_i" transform="matrix(12,0,0,12,474.4,336.2)" />
<use xlink:href="#f3_1j" transform="matrix(12,0,0,12,55,357.3)" />
<use xlink:href="#f3_2b" transform="matrix(12,0,0,12,65.2,357.3)" />
<use xlink:href="#f3_28" transform="matrix(12,0,0,12,74.4,357.3)" />
<use xlink:href="#f3_2h" transform="matrix(12,0,0,12,79.5,357.3)" />
<use xlink:href="#f3_2g" transform="matrix(12,0,0,12,89.7,357.3)" />
<use xlink:href="#f3_25" transform="matrix(12,0,0,12,95.8,357.3)" />
<use xlink:href="#f3_2b" transform="matrix(12,0,0,12,100.9,357.3)" />
<use xlink:href="#f3_2a" transform="matrix(12,0,0,12,110.1,357.3)" />
<use xlink:href="#f3_u" transform="matrix(12,0,0,12,120.3,357.3)" />
<use xlink:href="#f2_c" transform="matrix(12,0,0,12,55,389.9)" />
<use xlink:href="#f2_1x" transform="matrix(12,0,0,12,61.1,389.9)" />
<use xlink:href="#f2_d" transform="matrix(12,0,0,12,69.2,389.9)" />
<use xlink:href="#f2_1j" transform="matrix(12,0,0,12,80,389.9)" />
<use xlink:href="#f2_2g" transform="matrix(12,0,0,12,90.2,389.9)" />
<use xlink:href="#f2_1x" transform="matrix(12,0,0,12,95.3,389.9)" />
<use xlink:href="#f2_2g" transform="matrix(12,0,0,12,103.4,389.9)" />
<use xlink:href="#f2_21" transform="matrix(12,0,0,12,108.5,389.9)" />
<use xlink:href="#f2_29" transform="matrix(12,0,0,12,116.6,389.9)" />
<use xlink:href="#f2_21" transform="matrix(12,0,0,12,130.8,389.9)" />
<use xlink:href="#f2_2a" transform="matrix(12,0,0,12,138.9,389.9)" />
<use xlink:href="#f2_2g" transform="matrix(12,0,0,12,148.1,389.9)" />
<use xlink:href="#f2_u" transform="matrix(12,0,0,12,157.8,389.9)" />
<use xlink:href="#f2_1k" transform="matrix(12,0,0,12,167.5,389.9)" />
<use xlink:href="#f2_24" transform="matrix(12,0,0,12,178.7,389.9)" />
<use xlink:href="#f2_21" transform="matrix(12,0,0,12,187.9,389.9)" />
<use xlink:href="#f2_21" transform="matrix(12,0,0,12,200.6,389.9)" />
<use xlink:href="#f2_28" transform="matrix(12,0,0,12,208.7,389.9)" />
<use xlink:href="#f2_21" transform="matrix(12,0,0,12,213.8,389.9)" />
<use xlink:href="#f2_1z" transform="matrix(12,0,0,12,221.9,389.9)" />
<use xlink:href="#f2_2g" transform="matrix(12,0,0,12,230.1,389.9)" />
<use xlink:href="#f2_2e" transform="matrix(12,0,0,12,235.2,389.9)" />
<use xlink:href="#f2_25" transform="matrix(12,0,0,12,241.3,389.9)" />
<use xlink:href="#f2_1z" transform="matrix(12,0,0,12,246.4,389.9)" />
<use xlink:href="#f2_22" transform="matrix(12,0,0,12,259.1,389.9)" />
<use xlink:href="#f2_28" transform="matrix(12,0,0,12,265.2,389.9)" />
<use xlink:href="#f2_2h" transform="matrix(12,0,0,12,270.3,389.9)" />
<use xlink:href="#f2_2k" transform="matrix(12,0,0,12,279.5,389.9)" />
<use xlink:href="#f2_28" transform="matrix(12,0,0,12,293.2,389.9)" />
<use xlink:href="#f2_25" transform="matrix(12,0,0,12,298.3,389.9)" />
<use xlink:href="#f2_2a" transform="matrix(12,0,0,12,303.5,389.9)" />
<use xlink:href="#f2_27" transform="matrix(12,0,0,12,312.6,389.9)" />
<use xlink:href="#f2_21" transform="matrix(12,0,0,12,321.7,389.9)" />
<use xlink:href="#f2_20" transform="matrix(12,0,0,12,329.8,389.9)" />
<use xlink:href="#f2_2j" transform="matrix(12,0,0,12,343.5,389.9)" />
<use xlink:href="#f2_25" transform="matrix(12,0,0,12,356.7,389.9)" />
<use xlink:href="#f2_2g" transform="matrix(12,0,0,12,361.8,389.9)" />
<use xlink:href="#f2_24" transform="matrix(12,0,0,12,366.9,389.9)" />
<use xlink:href="#f2_1x" transform="matrix(12,0,0,12,380.7,389.9)" />
<use xlink:href="#f2_1z" transform="matrix(12,0,0,12,393.5,389.9)" />
<use xlink:href="#f2_28" transform="matrix(12,0,0,12,401.6,389.9)" />
<use xlink:href="#f2_2b" transform="matrix(12,0,0,12,406.7,389.9)" />
<use xlink:href="#f2_2f" transform="matrix(12,0,0,12,415.9,389.9)" />
<use xlink:href="#f2_21" transform="matrix(12,0,0,12,422.9,389.9)" />
<use xlink:href="#f2_20" transform="matrix(12,0,0,12,431,389.9)" />
<use xlink:href="#f2_2f" transform="matrix(12,0,0,12,444.8,389.9)" />
<use xlink:href="#f2_2h" transform="matrix(12,0,0,12,451.9,389.9)" />
<use xlink:href="#f2_2e" transform="matrix(12,0,0,12,461.1,389.9)" />
<use xlink:href="#f2_22" transform="matrix(12,0,0,12,467.2,389.9)" />
<use xlink:href="#f2_1x" transform="matrix(12,0,0,12,473.3,389.9)" />
<use xlink:href="#f2_1z" transform="matrix(12,0,0,12,481.5,389.9)" />
<use xlink:href="#f2_21" transform="matrix(12,0,0,12,489.6,389.9)" />
<use xlink:href="#f2_25" transform="matrix(12,0,0,12,502.3,389.9)" />
<use xlink:href="#f2_2f" transform="matrix(12,0,0,12,507.4,389.9)" />
<use xlink:href="#f2_21" transform="matrix(12,0,0,12,519,389.9)" />
<use xlink:href="#f2_2d" transform="matrix(12,0,0,12,527.2,389.9)" />
<use xlink:href="#f2_2h" transform="matrix(12,0,0,12,536.3,389.9)" />
<use xlink:href="#f2_1x" transform="matrix(12,0,0,12,545.5,389.9)" />
<use xlink:href="#f2_28" transform="matrix(12,0,0,12,553.6,389.9)" />
<use xlink:href="#f2_2g" transform="matrix(12,0,0,12,563.4,389.9)" />
<use xlink:href="#f2_2b" transform="matrix(12,0,0,12,568.5,389.9)" />
</g>
<path d="M585.3,385.5h17.4" class="g2_136" />
<g clip-path="url(#c0_136)">
<g fill="#000000" >
<use xlink:href="#f2_k" transform="matrix(6.6,0,0,6.9,595,409.2)" />
<use xlink:href="#f2_l" transform="matrix(11.4,0,0,11.9,589.4,378.4)" />
<use xlink:href="#f4_21" transform="matrix(11.4,0,-3.8,11.9,585.6,404.5)" />
</g>
</g>
<g fill="#000000" >
<use xlink:href="#f2_2g" transform="matrix(12,0,0,12,610.9,389.9)" />
<use xlink:href="#f2_25" transform="matrix(12,0,0,12,616,389.9)" />
<use xlink:href="#f2_29" transform="matrix(12,0,0,12,621.1,389.9)" />
<use xlink:href="#f2_21" transform="matrix(12,0,0,12,635.2,389.9)" />
<use xlink:href="#f2_2f" transform="matrix(12,0,0,12,643.4,389.9)" />
<use xlink:href="#f2_2g" transform="matrix(12,0,0,12,655.1,389.9)" />
<use xlink:href="#f2_24" transform="matrix(12,0,0,12,660.2,389.9)" />
<use xlink:href="#f2_21" transform="matrix(12,0,0,12,669.4,389.9)" />
<use xlink:href="#f2_2a" transform="matrix(12,0,0,12,682.1,389.9)" />
<use xlink:href="#f2_21" transform="matrix(12,0,0,12,691.3,389.9)" />
<use xlink:href="#f2_2g" transform="matrix(12,0,0,12,699.4,389.9)" />
<use xlink:href="#f2_1z" transform="matrix(12,0,0,12,709.2,389.9)" />
<use xlink:href="#f2_24" transform="matrix(12,0,0,12,717.3,389.9)" />
<use xlink:href="#f2_1x" transform="matrix(12,0,0,12,726.5,389.9)" />
<use xlink:href="#f2_2e" transform="matrix(12,0,0,12,734.6,389.9)" />
<use xlink:href="#f2_23" transform="matrix(12,0,0,12,740.8,389.9)" />
<use xlink:href="#f2_21" transform="matrix(12,0,0,12,749.9,389.9)" />
<use xlink:href="#f2_21" transform="matrix(12,0,0,12,762.7,389.9)" />
<use xlink:href="#f2_2a" transform="matrix(12,0,0,12,770.8,389.9)" />
<use xlink:href="#f2_1z" transform="matrix(12,0,0,12,779.9,389.9)" />
<use xlink:href="#f2_28" transform="matrix(12,0,0,12,788,389.9)" />
<use xlink:href="#f2_2b" transform="matrix(12,0,0,12,793.1,389.9)" />
<use xlink:href="#f2_2f" transform="matrix(12,0,0,12,802.3,389.9)" />
<use xlink:href="#f2_21" transform="matrix(12,0,0,12,809.4,389.9)" />
<use xlink:href="#f2_20" transform="matrix(12,0,0,12,817.6,389.9)" />
<use xlink:href="#f2_1y" transform="matrix(12,0,0,12,831.3,389.9)" />
<use xlink:href="#f2_2l" transform="matrix(12,0,0,12,840.5,389.9)" />
<use xlink:href="#f2_1x" transform="matrix(12,0,0,12,55,429.9)" />
<use xlink:href="#f2_1z" transform="matrix(12,0,0,12,67.7,429.9)" />
<use xlink:href="#f2_28" transform="matrix(12,0,0,12,75.9,429.9)" />
<use xlink:href="#f2_2b" transform="matrix(12,0,0,12,81,429.9)" />
<use xlink:href="#f2_2f" transform="matrix(12,0,0,12,90.2,429.9)" />
<use xlink:href="#f2_21" transform="matrix(12,0,0,12,97.3,429.9)" />
<use xlink:href="#f2_20" transform="matrix(12,0,0,12,105.5,429.9)" />
<use xlink:href="#f2_2f" transform="matrix(12,0,0,12,119.2,429.9)" />
<use xlink:href="#f2_2h" transform="matrix(12,0,0,12,126.4,429.9)" />
<use xlink:href="#f2_2e" transform="matrix(12,0,0,12,135.4,429.9)" />
<use xlink:href="#f2_22" transform="matrix(12,0,0,12,141.6,429.9)" />
<use xlink:href="#f2_1x" transform="matrix(12,0,0,12,147.7,429.9)" />
<use xlink:href="#f2_1z" transform="matrix(12,0,0,12,155.8,429.9)" />
<use xlink:href="#f2_21" transform="matrix(12,0,0,12,163.9,429.9)" />
<use xlink:href="#f2_i" transform="matrix(12,0,0,12,172.1,429.9)" />
<use xlink:href="#f2_1d" transform="matrix(12,0,0,12,55,451)" />
<use xlink:href="#f2_1x" transform="matrix(12,0,0,12,71.3,451)" />
<use xlink:href="#f2_2g" transform="matrix(12,0,0,12,79.4,451)" />
<use xlink:href="#f2_24" transform="matrix(12,0,0,12,84.6,451)" />
<use xlink:href="#f2_21" transform="matrix(12,0,0,12,93.8,451)" />
<use xlink:href="#f2_29" transform="matrix(12,0,0,12,101.9,451)" />
<use xlink:href="#f2_1x" transform="matrix(12,0,0,12,116,451)" />
<use xlink:href="#f2_2g" transform="matrix(12,0,0,12,124.2,451)" />
<use xlink:href="#f2_25" transform="matrix(12,0,0,12,129.3,451)" />
<use xlink:href="#f2_1z" transform="matrix(12,0,0,12,134.4,451)" />
<use xlink:href="#f2_1x" transform="matrix(12,0,0,12,142.5,451)" />
<use xlink:href="#f2_28" transform="matrix(12,0,0,12,150.6,451)" />
<use xlink:href="#f2_21" transform="matrix(12,0,0,12,160.3,451)" />
<use xlink:href="#f2_2k" transform="matrix(12,0,0,12,168.5,451)" />
<use xlink:href="#f2_2c" transform="matrix(12,0,0,12,177.7,451)" />
<use xlink:href="#f2_2e" transform="matrix(12,0,0,12,186.9,451)" />
<use xlink:href="#f2_21" transform="matrix(12,0,0,12,193,451)" />
<use xlink:href="#f2_2f" transform="matrix(12,0,0,12,201.1,451)" />
<use xlink:href="#f2_2f" transform="matrix(12,0,0,12,208.2,451)" />
<use xlink:href="#f2_25" transform="matrix(12,0,0,12,215.4,451)" />
<use xlink:href="#f2_2b" transform="matrix(12,0,0,12,220.5,451)" />
<use xlink:href="#f2_2a" transform="matrix(12,0,0,12,229.6,451)" />
<use xlink:href="#f2_u" transform="matrix(12,0,0,12,243.4,451)" />
</g>
<path d="M162.9,479.2h17.4" class="g3_136" />
<g clip-path="url(#c1_136)">
<g fill="#000000" >
<use xlink:href="#f4_c" transform="matrix(12,0,0,15.6,182.5,485.1)" />
<use xlink:href="#f4_d" transform="matrix(12,0,0,15.6,215.7,485.1)" />
<use xlink:href="#f2_k" transform="matrix(7,0,0,6.9,172.6,502.8)" />
<use xlink:href="#f2_l" transform="matrix(12.2,0,0,11.9,167,472.1)" />
<use xlink:href="#f2_i" transform="matrix(12.2,0,0,11.9,120.3,483.7)" />
<use xlink:href="#f5_15" transform="matrix(7,0,0,6.9,66.2,488.4)" />
<use xlink:href="#f5_2a" transform="matrix(7,0,0,6.9,199.3,488.4)" />
<use xlink:href="#f5_21" transform="matrix(7,0,0,6.9,204.6,488.4)" />
<use xlink:href="#f5_2g" transform="matrix(7,0,0,6.9,209.3,488.4)" />
<use xlink:href="#f5_15" transform="matrix(12.2,0,0,11.9,108.8,483.7)" />
<use xlink:href="#f5_20" transform="matrix(12.2,0,0,11.9,124.2,483.7)" />
<use xlink:href="#f5_2f" transform="matrix(12.2,0,0,11.9,136,483.7)" />
<use xlink:href="#f5_2d" transform="matrix(12.2,0,0,11.9,190.1,483.7)" />
<use xlink:href="#f4_22" transform="matrix(12.2,0,-4.1,11.9,56.4,483.7)" />
<use xlink:href="#f4_21" transform="matrix(12.2,0,-4.1,11.9,163.1,498.1)" />
<use xlink:href="#f4_x" transform="matrix(12.2,0,0,11.9,79.4,483.7)" />
<use xlink:href="#f4_x" transform="matrix(12.2,0,0,11.9,148,483.7)" />
<use xlink:href="#f4_50" transform="matrix(18.3,0,0,17.9,96.2,490.3)" />
</g>
</g>
<image preserveAspectRatio="none" x="108" y="446" width="86" height="32" xlink:href="img/6.png" />
<image preserveAspectRatio="none" x="94" y="459" width="110" height="47" xlink:href="img/7.png" />
<g fill="#000000" >
<use xlink:href="#f2_13" transform="matrix(12,0,0,12,55,523.6)" />
<use xlink:href="#f2_2b" transform="matrix(12,0,0,12,67.2,523.6)" />
<use xlink:href="#f2_2a" transform="matrix(12,0,0,12,76.4,523.6)" />
<use xlink:href="#f2_2f" transform="matrix(12,0,0,12,85.6,523.6)" />
<use xlink:href="#f2_25" transform="matrix(12,0,0,12,92.7,523.6)" />
<use xlink:href="#f2_20" transform="matrix(12,0,0,12,97.8,523.6)" />
<use xlink:href="#f2_21" transform="matrix(12,0,0,12,107,523.6)" />
<use xlink:href="#f2_2e" transform="matrix(12,0,0,12,115.1,523.6)" />
<use xlink:href="#f2_2g" transform="matrix(12,0,0,12,125.8,523.6)" />
<use xlink:href="#f2_2j" transform="matrix(12,0,0,12,130.9,523.6)" />
<use xlink:href="#f2_2b" transform="matrix(12,0,0,12,144.1,523.6)" />
<use xlink:href="#f2_2f" transform="matrix(12,0,0,12,157.8,523.6)" />
<use xlink:href="#f2_2c" transform="matrix(12,0,0,12,165,523.6)" />
<use xlink:href="#f2_24" transform="matrix(12,0,0,12,174.1,523.6)" />
<use xlink:href="#f2_21" transform="matrix(12,0,0,12,183.3,523.6)" />
<use xlink:href="#f2_2e" transform="matrix(12,0,0,12,191.4,523.6)" />
<use xlink:href="#f2_25" transform="matrix(12,0,0,12,197.6,523.6)" />
<use xlink:href="#f2_1z" transform="matrix(12,0,0,12,202.7,523.6)" />
<use xlink:href="#f2_1x" transform="matrix(12,0,0,12,210.8,523.6)" />
<use xlink:href="#f2_28" transform="matrix(12,0,0,12,219,523.6)" />
<use xlink:href="#f2_2f" transform="matrix(12,0,0,12,228.7,523.6)" />
<use xlink:href="#f2_2h" transform="matrix(12,0,0,12,235.7,523.6)" />
<use xlink:href="#f2_2e" transform="matrix(12,0,0,12,244.9,523.6)" />
<use xlink:href="#f2_22" transform="matrix(12,0,0,12,251,523.6)" />
<use xlink:href="#f2_1x" transform="matrix(12,0,0,12,257.1,523.6)" />
<use xlink:href="#f2_1z" transform="matrix(12,0,0,12,265.2,523.6)" />
<use xlink:href="#f2_21" transform="matrix(12,0,0,12,273.4,523.6)" />
<use xlink:href="#f2_2b" transform="matrix(12,0,0,12,286.2,523.6)" />
<use xlink:href="#f2_22" transform="matrix(12,0,0,12,295.4,523.6)" />
<use xlink:href="#f2_2e" transform="matrix(12,0,0,12,306.1,523.6)" />
<use xlink:href="#f2_1x" transform="matrix(12,0,0,12,312.2,523.6)" />
<use xlink:href="#f2_20" transform="matrix(12,0,0,12,320.3,523.6)" />
<use xlink:href="#f2_25" transform="matrix(12,0,0,12,329.4,523.6)" />
<use xlink:href="#f2_2h" transform="matrix(12,0,0,12,334.5,523.6)" />
<use xlink:href="#f2_2f" transform="matrix(12,0,0,12,343.7,523.6)" />
<use xlink:href="#f2_2e" transform="matrix(12,0,0,12,355.4,523.6)" />
<use xlink:href="#f2_1x" transform="matrix(12,0,0,12,366.1,523.6)" />
<use xlink:href="#f2_2a" transform="matrix(12,0,0,12,374.3,523.6)" />
<use xlink:href="#f2_20" transform="matrix(12,0,0,12,383.4,523.6)" />
<use xlink:href="#f2_m" transform="matrix(12,0,0,12,397.2,523.6)" />
<use xlink:href="#f2_2e" transform="matrix(12,0,0,12,406.3,523.6)" />
<use xlink:href="#f2_2e" transform="matrix(12,0,0,12,417,523.6)" />
<use xlink:href="#f2_21" transform="matrix(12,0,0,12,423.1,523.6)" />
<use xlink:href="#f2_2f" transform="matrix(12,0,0,12,431.2,523.6)" />
<use xlink:href="#f2_2c" transform="matrix(12,0,0,12,438.3,523.6)" />
<use xlink:href="#f2_21" transform="matrix(12,0,0,12,447.5,523.6)" />
<use xlink:href="#f2_1z" transform="matrix(12,0,0,12,455.7,523.6)" />
<use xlink:href="#f2_2g" transform="matrix(12,0,0,12,463.8,523.6)" />
<use xlink:href="#f2_25" transform="matrix(12,0,0,12,468.9,523.6)" />
<use xlink:href="#f2_2i" transform="matrix(12,0,0,12,474,523.6)" />
<use xlink:href="#f2_21" transform="matrix(12,0,0,12,483.2,523.6)" />
<use xlink:href="#f2_28" transform="matrix(12,0,0,12,491.3,523.6)" />
<use xlink:href="#f2_2l" transform="matrix(12,0,0,12,496.5,523.6)" />
<use xlink:href="#f2_1x" transform="matrix(12,0,0,12,510.1,523.6)" />
<use xlink:href="#f2_2a" transform="matrix(12,0,0,12,518.3,523.6)" />
<use xlink:href="#f2_20" transform="matrix(12,0,0,12,527.4,523.6)" />
<use xlink:href="#f2_1x" transform="matrix(12,0,0,12,541.2,523.6)" />
<use xlink:href="#f2_1z" transform="matrix(12,0,0,12,553.9,523.6)" />
<use xlink:href="#f2_24" transform="matrix(12,0,0,12,562,523.6)" />
<use xlink:href="#f2_1x" transform="matrix(12,0,0,12,571.2,523.6)" />
<use xlink:href="#f2_2e" transform="matrix(12,0,0,12,579.4,523.6)" />
<use xlink:href="#f2_23" transform="matrix(12,0,0,12,585.5,523.6)" />
<use xlink:href="#f2_21" transform="matrix(12,0,0,12,594.7,523.6)" />
<use xlink:href="#f2_l" transform="matrix(12,0,0,12,607.3,523.6)" />
<use xlink:href="#f2_25" transform="matrix(12,0,0,12,621,523.6)" />
<use xlink:href="#f2_2f" transform="matrix(12,0,0,12,626.1,523.6)" />
<use xlink:href="#f2_21" transform="matrix(12,0,0,12,637.8,523.6)" />
<use xlink:href="#f2_2a" transform="matrix(12,0,0,12,646,523.6)" />
<use xlink:href="#f2_1z" transform="matrix(12,0,0,12,655.2,523.6)" />
<use xlink:href="#f2_28" transform="matrix(12,0,0,12,663.3,523.6)" />
<use xlink:href="#f2_2b" transform="matrix(12,0,0,12,668.4,523.6)" />
<use xlink:href="#f2_2f" transform="matrix(12,0,0,12,677.5,523.6)" />
<use xlink:href="#f2_21" transform="matrix(12,0,0,12,684.7,523.6)" />
<use xlink:href="#f2_20" transform="matrix(12,0,0,12,692.8,523.6)" />
<use xlink:href="#f2_25" transform="matrix(12,0,0,12,706.5,523.6)" />
<use xlink:href="#f2_2a" transform="matrix(12,0,0,12,711.6,523.6)" />
<use xlink:href="#f2_25" transform="matrix(12,0,0,12,725.4,523.6)" />
<use xlink:href="#f2_2g" transform="matrix(12,0,0,12,730.5,523.6)" />
<use xlink:href="#f2_i" transform="matrix(12,0,0,12,735.6,523.6)" />
<use xlink:href="#f2_11" transform="matrix(12,0,0,12,744.8,523.6)" />
<use xlink:href="#f2_1z" transform="matrix(12,0,0,12,758,523.6)" />
<use xlink:href="#f2_1z" transform="matrix(12,0,0,12,766.2,523.6)" />
<use xlink:href="#f2_2b" transform="matrix(12,0,0,12,774.3,523.6)" />
<use xlink:href="#f2_2e" transform="matrix(12,0,0,12,783.4,523.6)" />
<use xlink:href="#f2_20" transform="matrix(12,0,0,12,789.5,523.6)" />
<use xlink:href="#f2_25" transform="matrix(12,0,0,12,798.7,523.6)" />
<use xlink:href="#f2_2a" transform="matrix(12,0,0,12,803.8,523.6)" />
<use xlink:href="#f2_23" transform="matrix(12,0,0,12,813,523.6)" />
<use xlink:href="#f2_2g" transform="matrix(12,0,0,12,826.8,523.6)" />
<use xlink:href="#f2_2b" transform="matrix(12,0,0,12,831.9,523.6)" />
<use xlink:href="#f2_23" transform="matrix(12,0,0,12,55,544.7)" />
<use xlink:href="#f2_1x" transform="matrix(12,0,0,12,64.2,544.7)" />
<use xlink:href="#f2_2h" transform="matrix(12,0,0,12,72.3,544.7)" />
<use xlink:href="#f2_2f" transform="matrix(12,0,0,12,81.5,544.7)" />
<use xlink:href="#f2_2f" transform="matrix(12,0,0,12,88.6,544.7)" />
<use xlink:href="#f2_2g" transform="matrix(12,0,0,12,100.4,544.7)" />
<use xlink:href="#f2_24" transform="matrix(12,0,0,12,105.5,544.7)" />
<use xlink:href="#f2_21" transform="matrix(12,0,0,12,114.6,544.7)" />
<use xlink:href="#f2_2b" transform="matrix(12,0,0,12,122.8,544.7)" />
<use xlink:href="#f2_2e" transform="matrix(12,0,0,12,131.9,544.7)" />
<use xlink:href="#f2_21" transform="matrix(12,0,0,12,138,544.7)" />
<use xlink:href="#f2_29" transform="matrix(12,0,0,12,146.1,544.7)" />
<use xlink:href="#f2_2g" transform="matrix(12,0,0,12,164.9,544.7)" />
<use xlink:href="#f2_24" transform="matrix(12,0,0,12,170,544.7)" />
<use xlink:href="#f2_21" transform="matrix(12,0,0,12,179.2,544.7)" />
<use xlink:href="#f2_2g" transform="matrix(12,0,0,12,191.9,544.7)" />
<use xlink:href="#f2_2b" transform="matrix(12,0,0,12,197,544.7)" />
<use xlink:href="#f2_2g" transform="matrix(12,0,0,12,206.2,544.7)" />
<use xlink:href="#f2_1x" transform="matrix(12,0,0,12,211.3,544.7)" />
<use xlink:href="#f2_28" transform="matrix(12,0,0,12,219.5,544.7)" />
<use xlink:href="#f2_21" transform="matrix(12,0,0,12,229.1,544.7)" />
<use xlink:href="#f2_28" transform="matrix(12,0,0,12,237.2,544.7)" />
<use xlink:href="#f2_21" transform="matrix(12,0,0,12,242.3,544.7)" />
<use xlink:href="#f2_1z" transform="matrix(12,0,0,12,250.4,544.7)" />
<use xlink:href="#f2_2g" transform="matrix(12,0,0,12,258.6,544.7)" />
<use xlink:href="#f2_2e" transform="matrix(12,0,0,12,263.7,544.7)" />
<use xlink:href="#f2_25" transform="matrix(12,0,0,12,269.8,544.7)" />
<use xlink:href="#f2_1z" transform="matrix(12,0,0,12,274.9,544.7)" />
<use xlink:href="#f2_22" transform="matrix(12,0,0,12,287.7,544.7)" />
<use xlink:href="#f2_28" transform="matrix(12,0,0,12,293.8,544.7)" />
<use xlink:href="#f2_2h" transform="matrix(12,0,0,12,298.9,544.7)" />
<use xlink:href="#f2_2k" transform="matrix(12,0,0,12,308,544.7)" />
<use xlink:href="#f2_28" transform="matrix(12,0,0,12,321.7,544.7)" />
<use xlink:href="#f2_25" transform="matrix(12,0,0,12,326.8,544.7)" />
<use xlink:href="#f2_2a" transform="matrix(12,0,0,12,331.9,544.7)" />
<use xlink:href="#f2_27" transform="matrix(12,0,0,12,341.1,544.7)" />
<use xlink:href="#f2_21" transform="matrix(12,0,0,12,350.2,544.7)" />
<use xlink:href="#f2_20" transform="matrix(12,0,0,12,358.4,544.7)" />
<use xlink:href="#f2_2j" transform="matrix(12,0,0,12,372.1,544.7)" />
<use xlink:href="#f2_25" transform="matrix(12,0,0,12,385.3,544.7)" />
<use xlink:href="#f2_2g" transform="matrix(12,0,0,12,390.4,544.7)" />
<use xlink:href="#f2_24" transform="matrix(12,0,0,12,395.5,544.7)" />
<use xlink:href="#f2_1x" transform="matrix(12,0,0,12,409.3,544.7)" />
<use xlink:href="#f2_1z" transform="matrix(12,0,0,12,422,544.7)" />
<use xlink:href="#f2_28" transform="matrix(12,0,0,12,430.2,544.7)" />
<use xlink:href="#f2_2b" transform="matrix(12,0,0,12,435.3,544.7)" />
<use xlink:href="#f2_2f" transform="matrix(12,0,0,12,444.4,544.7)" />
<use xlink:href="#f2_21" transform="matrix(12,0,0,12,451.6,544.7)" />
<use xlink:href="#f2_20" transform="matrix(12,0,0,12,459.7,544.7)" />
<use xlink:href="#f2_2f" transform="matrix(12,0,0,12,473.5,544.7)" />
<use xlink:href="#f2_2h" transform="matrix(12,0,0,12,480.6,544.7)" />
<use xlink:href="#f2_2e" transform="matrix(12,0,0,12,489.7,544.7)" />
<use xlink:href="#f2_22" transform="matrix(12,0,0,12,495.8,544.7)" />
<use xlink:href="#f2_1x" transform="matrix(12,0,0,12,501.9,544.7)" />
<use xlink:href="#f2_1z" transform="matrix(12,0,0,12,510.1,544.7)" />
<use xlink:href="#f2_21" transform="matrix(12,0,0,12,518.2,544.7)" />
<use xlink:href="#f2_20" transform="matrix(12,0,0,12,530.9,544.7)" />
<use xlink:href="#f2_21" transform="matrix(12,0,0,12,540.1,544.7)" />
<use xlink:href="#f2_2c" transform="matrix(12,0,0,12,548.2,544.7)" />
<use xlink:href="#f2_21" transform="matrix(12,0,0,12,557.4,544.7)" />
<use xlink:href="#f2_2a" transform="matrix(12,0,0,12,565.6,544.7)" />
<use xlink:href="#f2_20" transform="matrix(12,0,0,12,574.8,544.7)" />
<use xlink:href="#f2_2f" transform="matrix(12,0,0,12,583.9,544.7)" />
<use xlink:href="#f2_2b" transform="matrix(12,0,0,12,595.6,544.7)" />
<use xlink:href="#f2_2a" transform="matrix(12,0,0,12,604.7,544.7)" />
<use xlink:href="#f2_2g" transform="matrix(12,0,0,12,618.5,544.7)" />
<use xlink:href="#f2_24" transform="matrix(12,0,0,12,623.6,544.7)" />
<use xlink:href="#f2_21" transform="matrix(12,0,0,12,632.7,544.7)" />
<use xlink:href="#f2_1z" transform="matrix(12,0,0,12,645.5,544.7)" />
<use xlink:href="#f2_24" transform="matrix(12,0,0,12,653.6,544.7)" />
<use xlink:href="#f2_1x" transform="matrix(12,0,0,12,662.8,544.7)" />
<use xlink:href="#f2_2e" transform="matrix(12,0,0,12,670.9,544.7)" />
<use xlink:href="#f2_23" transform="matrix(12,0,0,12,677,544.7)" />
<use xlink:href="#f2_21" transform="matrix(12,0,0,12,686.2,544.7)" />
<use xlink:href="#f2_21" transform="matrix(12,0,0,12,698.9,544.7)" />
<use xlink:href="#f2_2a" transform="matrix(12,0,0,12,707,544.7)" />
<use xlink:href="#f2_1z" transform="matrix(12,0,0,12,716.2,544.7)" />
<use xlink:href="#f2_28" transform="matrix(12,0,0,12,724.3,544.7)" />
<use xlink:href="#f2_2b" transform="matrix(12,0,0,12,729.4,544.7)" />
<use xlink:href="#f2_2f" transform="matrix(12,0,0,12,738.6,544.7)" />
<use xlink:href="#f2_21" transform="matrix(12,0,0,12,745.7,544.7)" />
<use xlink:href="#f2_20" transform="matrix(12,0,0,12,753.9,544.7)" />
<use xlink:href="#f2_25" transform="matrix(12,0,0,12,767.6,544.7)" />
<use xlink:href="#f2_2a" transform="matrix(12,0,0,12,772.6,544.7)" />
<use xlink:href="#f2_25" transform="matrix(12,0,0,12,786.4,544.7)" />
<use xlink:href="#f2_2g" transform="matrix(12,0,0,12,791.5,544.7)" />
<use xlink:href="#f2_2f" transform="matrix(12,0,0,12,801.2,544.7)" />
<use xlink:href="#f2_2b" transform="matrix(12,0,0,12,808.4,544.7)" />
<use xlink:href="#f2_c" transform="matrix(12,0,0,12,220,797.7)" />
<use xlink:href="#f2_1x" transform="matrix(12,0,0,12,226.1,797.7)" />
<use xlink:href="#f2_d" transform="matrix(12,0,0,12,234.3,797.7)" />
</g>
<path d="M93.6,868.1h17.6" class="g4_136" />
<g clip-path="url(#c2_136)">
<g fill="#000000" >
<use xlink:href="#f2_k" transform="matrix(6.9,0,0,6.9,103.3,891.6)" />
<use xlink:href="#f5_15" transform="matrix(6.9,0,0,6.9,66.1,877.4)" />
<use xlink:href="#f5_2d" transform="matrix(12,0,0,11.9,97.9,861.2)" />
<use xlink:href="#f4_22" transform="matrix(12,0,-4,11.9,56.4,872.7)" />
<use xlink:href="#f4_21" transform="matrix(12,0,-4,11.9,93.9,886.9)" />
<use xlink:href="#f4_x" transform="matrix(12,0,0,11.9,79.2,872.7)" />
</g>
</g>
<g fill="#000000" >
<use xlink:href="#f2_c" transform="matrix(12,0,0,12,605.1,872.5)" />
<use xlink:href="#f2_1y" transform="matrix(12,0,0,12,611.2,872.5)" />
<use xlink:href="#f2_d" transform="matrix(12,0,0,12,620.3,872.5)" />
<use xlink:href="#f2_1x" transform="matrix(12,0,0,12,55,912.6)" />
<use xlink:href="#f2_2a" transform="matrix(12,0,0,12,63.1,912.6)" />
<use xlink:href="#f2_20" transform="matrix(12,0,0,12,72.3,912.6)" />
<use xlink:href="#f2_22" transform="matrix(12,0,0,12,86.1,912.6)" />
<use xlink:href="#f2_2b" transform="matrix(12,0,0,12,92.2,912.6)" />
<use xlink:href="#f2_2e" transform="matrix(12,0,0,12,101.3,912.6)" />
<use xlink:href="#f2_22" transform="matrix(12,0,0,12,112,912.6)" />
<use xlink:href="#f2_25" transform="matrix(12,0,0,12,118.1,912.6)" />
<use xlink:href="#f2_23" transform="matrix(12,0,0,12,123.2,912.6)" />
<use xlink:href="#f2_c" transform="matrix(12,0,0,12,136.9,912.6)" />
<use xlink:href="#f2_1y" transform="matrix(12,0,0,12,143.1,912.6)" />
<use xlink:href="#f2_d" transform="matrix(12,0,0,12,152.2,912.6)" />
</g>
<path d="M93.6,940.7h17.6" class="g4_136" />
<g clip-path="url(#c3_136)">
<g fill="#000000" >
<use xlink:href="#f2_k" transform="matrix(6.9,0,0,6.9,103.3,964.2)" />
<use xlink:href="#f5_15" transform="matrix(6.9,0,0,6.9,66.1,949.9)" />
<use xlink:href="#f5_2d" transform="matrix(12,0,0,11.9,97.9,933.8)" />
<use xlink:href="#f4_22" transform="matrix(12,0,-4,11.9,56.4,945.2)" />
<use xlink:href="#f4_21" transform="matrix(12,0,-4,11.9,93.9,959.5)" />
<use xlink:href="#f4_x" transform="matrix(12,0,0,11.9,79.2,945.2)" />
</g>
</g>
<g fill="#000000" >
<use xlink:href="#f2_1n" transform="matrix(12,0,0,12,55,985.2)" />
<use xlink:href="#f2_24" transform="matrix(12,0,0,12,72.2,985.2)" />
<use xlink:href="#f2_25" transform="matrix(12,0,0,12,81.4,985.2)" />
<use xlink:href="#f2_1z" transform="matrix(12,0,0,12,86.5,985.2)" />
<use xlink:href="#f2_24" transform="matrix(12,0,0,12,94.6,985.2)" />
<use xlink:href="#f2_25" transform="matrix(12,0,0,12,108.4,985.2)" />
<use xlink:href="#f2_2f" transform="matrix(12,0,0,12,113.6,985.2)" />
<use xlink:href="#f2_2f" transform="matrix(12,0,0,12,125.3,985.2)" />
<use xlink:href="#f2_1x" transform="matrix(12,0,0,12,132.4,985.2)" />
<use xlink:href="#f2_29" transform="matrix(12,0,0,12,140.5,985.2)" />
<use xlink:href="#f2_21" transform="matrix(12,0,0,12,154.6,985.2)" />
<use xlink:href="#f2_25" transform="matrix(12,0,0,12,167.3,985.2)" />
<use xlink:href="#f2_2a" transform="matrix(12,0,0,12,172.4,985.2)" />
<use xlink:href="#f2_1y" transform="matrix(12,0,0,12,186.2,985.2)" />
<use xlink:href="#f2_2b" transform="matrix(12,0,0,12,195.4,985.2)" />
<use xlink:href="#f2_2g" transform="matrix(12,0,0,12,204.5,985.2)" />
<use xlink:href="#f2_24" transform="matrix(12,0,0,12,209.7,985.2)" />
<use xlink:href="#f2_2g" transform="matrix(12,0,0,12,223.4,985.2)" />
<use xlink:href="#f2_24" transform="matrix(12,0,0,12,228.5,985.2)" />
<use xlink:href="#f2_21" transform="matrix(12,0,0,12,237.7,985.2)" />
<use xlink:href="#f2_1z" transform="matrix(12,0,0,12,250.4,985.2)" />
<use xlink:href="#f2_1x" transform="matrix(12,0,0,12,258.6,985.2)" />
<use xlink:href="#f2_2f" transform="matrix(12,0,0,12,266.8,985.2)" />
<use xlink:href="#f2_21" transform="matrix(12,0,0,12,273.9,985.2)" />
<use xlink:href="#f2_2f" transform="matrix(12,0,0,12,286.6,985.2)" />
<use xlink:href="#f2_2b" transform="matrix(12,0,0,12,293.8,985.2)" />
<use xlink:href="#f2_25" transform="matrix(12,0,0,12,307.5,985.2)" />
<use xlink:href="#f2_2g" transform="matrix(12,0,0,12,312.6,985.2)" />
<use xlink:href="#f2_25" transform="matrix(12,0,0,12,322.2,985.2)" />
<use xlink:href="#f2_2f" transform="matrix(12,0,0,12,327.3,985.2)" />
<use xlink:href="#f2_25" transform="matrix(12,0,0,12,339,985.2)" />
<use xlink:href="#f2_2a" transform="matrix(12,0,0,12,344.2,985.2)" />
<use xlink:href="#f2_20" transform="matrix(12,0,0,12,353.4,985.2)" />
<use xlink:href="#f2_21" transform="matrix(12,0,0,12,362.5,985.2)" />
<use xlink:href="#f2_2c" transform="matrix(12,0,0,12,370.7,985.2)" />
<use xlink:href="#f2_21" transform="matrix(12,0,0,12,379.8,985.2)" />
<use xlink:href="#f2_2a" transform="matrix(12,0,0,12,387.9,985.2)" />
<use xlink:href="#f2_20" transform="matrix(12,0,0,12,397.1,985.2)" />
<use xlink:href="#f2_21" transform="matrix(12,0,0,12,406.2,985.2)" />
<use xlink:href="#f2_2a" transform="matrix(12,0,0,12,414.3,985.2)" />
<use xlink:href="#f2_2g" transform="matrix(12,0,0,12,423.5,985.2)" />
<use xlink:href="#f2_2b" transform="matrix(12,0,0,12,433.2,985.2)" />
<use xlink:href="#f2_22" transform="matrix(12,0,0,12,442.3,985.2)" />
<use xlink:href="#f2_2f" transform="matrix(12,0,0,12,453,985.2)" />
<use xlink:href="#f2_25" transform="matrix(12,0,0,12,460.1,985.2)" />
<use xlink:href="#f2_2m" transform="matrix(12,0,0,12,465.2,985.2)" />
<use xlink:href="#f2_21" transform="matrix(12,0,0,12,473.4,985.2)" />
<use xlink:href="#f2_1x" transform="matrix(12,0,0,12,486.1,985.2)" />
<use xlink:href="#f2_2a" transform="matrix(12,0,0,12,494.3,985.2)" />
<use xlink:href="#f2_20" transform="matrix(12,0,0,12,503.4,985.2)" />
<use xlink:href="#f2_2f" transform="matrix(12,0,0,12,517.3,985.2)" />
<use xlink:href="#f2_24" transform="matrix(12,0,0,12,524.5,985.2)" />
<use xlink:href="#f2_1x" transform="matrix(12,0,0,12,533.6,985.2)" />
<use xlink:href="#f2_2c" transform="matrix(12,0,0,12,541.8,985.2)" />
<use xlink:href="#f2_21" transform="matrix(12,0,0,12,550.9,985.2)" />
<use xlink:href="#f2_2b" transform="matrix(12,0,0,12,563.7,985.2)" />
<use xlink:href="#f2_22" transform="matrix(12,0,0,12,572.9,985.2)" />
<use xlink:href="#f2_1z" transform="matrix(12,0,0,12,583.6,985.2)" />
<use xlink:href="#f2_28" transform="matrix(12,0,0,12,591.7,985.2)" />
<use xlink:href="#f2_2b" transform="matrix(12,0,0,12,596.7,985.2)" />
<use xlink:href="#f2_2f" transform="matrix(12,0,0,12,605.9,985.2)" />
<use xlink:href="#f2_21" transform="matrix(12,0,0,12,613,985.2)" />
<use xlink:href="#f2_20" transform="matrix(12,0,0,12,621.1,985.2)" />
<use xlink:href="#f2_2f" transform="matrix(12,0,0,12,634.9,985.2)" />
<use xlink:href="#f2_2h" transform="matrix(12,0,0,12,642.1,985.2)" />
<use xlink:href="#f2_2e" transform="matrix(12,0,0,12,651.2,985.2)" />
<use xlink:href="#f2_22" transform="matrix(12,0,0,12,657.3,985.2)" />
<use xlink:href="#f2_1x" transform="matrix(12,0,0,12,663.4,985.2)" />
<use xlink:href="#f2_1z" transform="matrix(12,0,0,12,671.6,985.2)" />
<use xlink:href="#f2_21" transform="matrix(12,0,0,12,679.7,985.2)" />
<use xlink:href="#f2_i" transform="matrix(12,0,0,12,687.9,985.2)" />
</g>
<image preserveAspectRatio="none" x="294" y="127" width="322" height="150" xlink:href="img/8.png" />
<image preserveAspectRatio="none" x="55" y="989" width="256" height="181" xlink:href="img/9.png" />
<path fill-rule="evenodd" d="M160,679c0,-48.4,39.3,-87.7,87.7,-87.7c48.4,0,87.6,39.3,87.6,87.7c0,48.4,-39.2,87.7,-87.6,87.7C199.3,766.7,160,727.4,160,679Z" class="g5_136" />
<path d="M160,679c0,-48.4,39.3,-87.7,87.7,-87.7c48.4,0,87.6,39.3,87.6,87.7c0,48.4,-39.2,87.7,-87.6,87.7C199.3,766.7,160,727.4,160,679Z" class="g6_136" />
<path d="M244.1,678.4h88.2" class="g7_136" />
<path fill-rule="evenodd" d="M240.6,679.1c0,-1.5,1.3,-2.7,2.9,-2.7c1.6,0,2.9,1.2,2.9,2.7c0,1.5,-1.3,2.7,-2.9,2.7c-1.6,0,-2.9,-1.2,-2.9,-2.7Z" class="g8_136" />
<path d="M240.6,679.1c0,-1.5,1.3,-2.7,2.9,-2.7c1.6,0,2.9,1.2,2.9,2.7c0,1.5,-1.3,2.7,-2.9,2.7c-1.6,0,-2.9,-1.2,-2.9,-2.7Z" class="g9_136" />
<image preserveAspectRatio="none" x="263" y="651" width="31" height="31" xlink:href="img/10.png" />
<image preserveAspectRatio="none" x="260" y="645" width="49" height="51" xlink:href="img/11.png" />
<g fill="#000000" >
<use xlink:href="#f2_2e" transform="matrix(16,0,0,16,274.5,674.8)" />
</g>
<image preserveAspectRatio="none" x="199" y="675" width="50" height="31" xlink:href="img/12.png" />
<image preserveAspectRatio="none" x="195" y="669" width="70" height="51" xlink:href="img/13.png" />
<g fill="#000000" >
<use xlink:href="#f2_c" transform="matrix(16,0,0,16,209.6,699)" />
<use xlink:href="#f2_2d" transform="matrix(16,0,0,16,217.7,699)" />
<use xlink:href="#f2_d" transform="matrix(16,0,0,16,230,699)" />
</g>
<path fill-rule="evenodd" d="M494.9,699.4c0,-71.1,57.6,-128.7,128.7,-128.7c71.1,0,128.7,57.6,128.7,128.7c0,71.1,-57.6,128.7,-128.7,128.7c-71.1,0,-128.7,-57.6,-128.7,-128.7Z" class="g5_136" />
<path d="M494.9,699.4c0,-71.1,57.6,-128.7,128.7,-128.7c71.1,0,128.7,57.6,128.7,128.7c0,71.1,-57.6,128.7,-128.7,128.7c-71.1,0,-128.7,-57.6,-128.7,-128.7Z" class="g6_136" />
<image preserveAspectRatio="none" x="573" y="694" width="51" height="32" xlink:href="img/14.png" />
<image preserveAspectRatio="none" x="569" y="689" width="70" height="50" xlink:href="img/15.png" />
<g fill="#000000" >
<use xlink:href="#f2_c" transform="matrix(16,0,0,16,584.2,718.4)" />
<use xlink:href="#f2_2d" transform="matrix(16,0,0,16,592.3,718.4)" />
<use xlink:href="#f2_d" transform="matrix(16,0,0,16,604.5,718.4)" />
</g>
<image preserveAspectRatio="none" x="676" y="660" width="42" height="31" xlink:href="img/16.png" />
<image preserveAspectRatio="none" x="672" y="654" width="62" height="51" xlink:href="img/17.png" />
<g fill="#000000" >
<use xlink:href="#f2_m" transform="matrix(16,0,0,16,686.9,684.2)" />
<use xlink:href="#f2_2e" transform="matrix(16,0,0,16,699.1,684.2)" />
</g>
<path d="M628.1,693.1H753.3" class="g7_136" />
<path fill-rule="evenodd" d="M622,692.8c0,-1.5,1.3,-2.7,2.9,-2.7c1.6,0,2.9,1.2,2.9,2.7c0,1.5,-1.3,2.7,-2.9,2.7c-1.6,0,-2.9,-1.2,-2.9,-2.7Z" class="g8_136" />
<path d="M622,692.8c0,-1.5,1.3,-2.7,2.9,-2.7c1.6,0,2.9,1.2,2.9,2.7c0,1.5,-1.3,2.7,-2.9,2.7c-1.6,0,-2.9,-1.2,-2.9,-2.7Z" class="g9_136" />
<path fill-rule="evenodd" d="M37.4,38.1h.7v-.7h-.7v.7Z" class="g10_136" />
<path fill-rule="evenodd" d="M37.4,38.1h.7v-.7h-.7v.7Z" class="g10_136" />
<path fill-rule="evenodd" d="M38.1,38.1H871.5v-.7H38.1v.7Z" class="g10_136" />
<path fill-rule="evenodd" d="M871.5,38.1h.7v-.7h-.7v.7Z" class="g10_136" />
<path fill-rule="evenodd" d="M871.5,38.1h.7v-.7h-.7v.7Z" class="g10_136" />
<path fill-rule="evenodd" d="M37.4,1248.2h.7V38.1h-.7V1248.2Z" class="g10_136" />
<path fill-rule="evenodd" d="M872.2,1248.2h.8V38.1h-.8V1248.2Z" class="g10_136" />
<path fill-rule="evenodd" d="M871.5,1248.2h.7V38.1h-.7V1248.2Z" class="g10_136" />
<path fill-rule="evenodd" d="M37.4,1249h.7v-.8h-.7v.8Z" class="g10_136" />
<path fill-rule="evenodd" d="M37.4,1249h.7v-.8h-.7v.8Z" class="g10_136" />
<path fill-rule="evenodd" d="M38.1,1249.7H871.5v-.7H38.1v.7Z" class="g10_136" />
<path fill-rule="evenodd" d="M38.1,1249H871.5v-.8H38.1v.8Z" class="g10_136" />
<path fill-rule="evenodd" d="M872.2,1249.7h.8v-1.5h-.8v1.5Z" class="g10_136" />
<path fill-rule="evenodd" d="M871.5,1249.7H873v-.7h-1.5v.7Z" class="g10_136" />
<path fill-rule="evenodd" d="M871.5,1249h.7v-.8h-.7v.8Z" class="g10_136" />
<path fill-rule="evenodd" d="M871.5,1249h.7v-.8h-.7v.8Z" class="g10_136" />
<defs>
<path d="M489,-15c0,0,-99,0,-179,30c0,0,-80,30,-136,91c0,0,-56,61,-85,152c0,0,-30,91,-30,212c0,0,0,123,32,218c0,0,33,96,92,161c0,0,59,65,142,98c0,0,82,34,181,34c0,0,40,0,78,-7c0,0,37,-7,69,-18c0,0,31,-11,57,-25c0,0,25,-14,35,-24c0,0,10,-10,14,-17c0,0,4,-7,6,-17c0,0,2,-11,3,-25c0,0,2,-14,2,-35c0,0,0,-22,-2,-38c0,0,-1,-15,-5,-25c0,0,-4,-10,-9,-14c0,0,-5,-5,-12,-5c0,0,-11,0,-28,13c0,0,-18,13,-45,29c0,0,-27,16,-65,29c0,0,-37,13,-89,13c0,0,-58,0,-103,-23c0,0,-45,-23,-77,-67c0,0,-31,-44,-48,-106c0,0,-16,-61,-16,-139c0,0,0,-85,17,-147c0,0,18,-62,50,-103c0,0,33,-40,79,-60c0,0,45,-19,103,-19c0,0,52,0,90,12c0,0,38,12,65,27c0,0,27,15,45,27c0,0,17,12,27,12c0,0,8,0,12,-3c0,0,4,-3,7,-12c0,0,3,-9,5,-25c0,0,1,-16,1,-43c0,0,0,-18,-1,-31c0,0,-1,-14,-3,-23c0,0,-2,-9,-6,-16c0,0,-4,-7,-12,-15c0,0,-8,-9,-32,-22c0,0,-23,-14,-57,-26C661,13,627,1,583,-6c0,0,-43,-9,-94,-9Z" 
id="f0_j"
transform="scale(0.001,-0.001)" />

<path d="M440,150c0,0,41,0,68,8c0,0,28,9,49,26c0,0,20,16,32,41c0,0,11,25,11,58c0,0,0,33,-11,60c0,0,-11,26,-33,44c0,0,-21,18,-55,28c0,0,-33,9,-87,9H298V150ZM407,567c0,0,42,0,68,10c0,0,25,10,42,28c0,0,16,17,24,41c0,0,9,24,9,50c0,0,0,29,-9,52c0,0,-9,23,-27,39c0,0,-18,15,-45,23c0,0,-27,8,-72,8H298V567ZM164,0c0,0,-25,0,-42,15c0,0,-16,14,-16,47V903c0,0,0,33,16,48c0,0,17,14,42,14H406c0,0,88,0,150,-15c0,0,61,-15,103,-45c0,0,42,-30,65,-77c0,0,22,-46,22,-108c0,0,0,-36,-9,-67c0,0,-9,-31,-26,-56c0,0,-17,-25,-42,-45c0,0,-25,-19,-57,-31c0,0,41,-7,76,-26c0,0,34,-19,60,-48c0,0,26,-30,41,-69c0,0,15,-40,15,-89c0,0,0,-51,-14,-93c0,0,-15,-42,-40,-74c0,0,-25,-32,-59,-55c0,0,-35,-23,-77,-38C614,29,573,14,525,7C525,7,478,0,420,0Z" 
id="f0_i"
transform="scale(0.001,-0.001)" />

<path d="M320,-17c0,0,-50,0,-93,9c0,0,-43,8,-76,19c0,0,-32,11,-54,24C97,35,75,48,65,58c0,0,-10,9,-14,28c0,0,-4,18,-4,52c0,0,0,23,1,39c0,0,2,15,5,25c0,0,4,10,9,14c0,0,6,4,13,4c0,0,11,0,30,-12c0,0,19,-13,49,-28c0,0,30,-15,71,-27c0,0,42,-12,96,-12c0,0,36,0,64,8c0,0,29,9,49,25c0,0,19,15,30,38c0,0,10,23,10,52c0,0,0,33,-18,56c0,0,-18,24,-46,42c0,0,-29,18,-66,34c0,0,-36,16,-75,34c0,0,-39,18,-76,41c0,0,-36,23,-65,54c0,0,-29,32,-47,75c0,0,-17,44,-17,104c0,0,0,70,25,122c0,0,26,53,70,88c0,0,43,34,103,51c0,0,59,18,125,18c0,0,35,0,69,-6c0,0,34,-5,64,-14c0,0,30,-9,53,-20c0,0,23,-11,31,-18c0,0,7,-8,10,-13c0,0,3,-5,4,-14c0,0,2,-8,3,-21c0,0,1,-13,1,-33c0,0,0,-21,-1,-36c0,0,-1,-15,-4,-25c0,0,-3,-9,-7,-14c0,0,-5,-4,-14,-4c0,0,-8,0,-26,10c0,0,-18,10,-44,23c0,0,-26,12,-60,22c0,0,-34,10,-75,10c0,0,-32,0,-56,-8c0,0,-24,-8,-40,-21c0,0,-16,-14,-24,-34c0,0,-8,-19,-8,-41c0,0,0,-32,18,-56c0,0,17,-23,46,-42c0,0,30,-18,67,-34c0,0,38,-16,76,-34c0,0,39,-18,76,-41c0,0,38,-22,67,-54c0,0,29,-32,47,-75c0,0,18,-43,18,-101c0,0,0,-76,-29,-133c0,0,-28,-58,-77,-96C572,60,524,21,459,2c0,0,-65,-19,-139,-19Z" 
id="f0_2n"
transform="scale(0.001,-0.001)" />

<path d="M164,0c0,0,-25,0,-42,15c0,0,-16,14,-16,47V903c0,0,0,33,16,48c0,0,17,14,42,14H645c0,0,7,0,12,-4c0,0,5,-3,9,-13c0,0,4,-9,6,-24c0,0,2,-14,2,-36c0,0,0,-21,-2,-36c0,0,-2,-14,-6,-23c0,0,-4,-9,-9,-13c0,0,-5,-4,-12,-4H301V576H593c0,0,6,0,12,-4c0,0,6,-4,9,-13c0,0,4,-8,6,-23c0,0,2,-14,2,-35c0,0,0,-22,-2,-36c0,0,-2,-14,-6,-23c0,0,-3,-8,-9,-12c0,0,-6,-4,-12,-4H301V154H649c0,0,6,0,12,-5c0,0,5,-4,9,-13c0,0,4,-9,6,-23c0,0,2,-15,2,-36c0,0,0,-22,-2,-36c0,0,-2,-15,-6,-24c0,0,-4,-9,-9,-13c0,0,-6,-4,-12,-4Z" 
id="f0_t"
transform="scale(0.001,-0.001)" />

<path d="M79,297c0,0,-19,0,-27,18c0,0,-8,17,-8,60c0,0,0,41,8,59c0,0,8,17,27,17H389c0,0,9,0,15,-4c0,0,7,-4,11,-13c0,0,5,-9,7,-23c0,0,1,-15,1,-36c0,0,0,-43,-8,-61c0,0,-8,-17,-26,-17Z" 
id="f0_oj"
transform="scale(0.001,-0.001)" />

<path d="M121,-4c0,0,-39,0,-60,2C61,-2,39,0,32,8c0,0,-8,8,-3,24c0,0,4,15,18,41L279,495L64,892c0,0,-14,26,-19,42c0,0,-5,17,4,24c0,0,9,8,32,10c0,0,23,2,65,2c0,0,35,0,56,-2c0,0,20,-1,32,-4c0,0,12,-4,17,-10c0,0,5,-6,9,-15L431,620L595,939c0,0,5,9,10,15c0,0,5,6,16,10c0,0,10,3,29,4c0,0,19,2,53,2c0,0,37,0,59,-2c0,0,22,-2,30,-10c0,0,8,-8,4,-24c0,0,-4,-16,-17,-42L564,497L793,73c0,0,14,-26,18,-41c0,0,4,-16,-5,-24c0,0,-9,-8,-32,-10c0,0,-24,-2,-65,-2c0,0,-36,0,-56,2c0,0,-20,1,-31,3c0,0,-12,4,-17,10c0,0,-5,6,-9,15L414,374L233,26c0,0,-4,-9,-9,-15c0,0,-6,-6,-17,-10c0,0,-12,-2,-32,-3c0,0,-21,-2,-54,-2Z" 
id="f0_3e"
transform="scale(0.001,-0.001)" />

<path d="M204,-4c0,0,-28,0,-47,2c0,0,-19,2,-31,5c0,0,-11,4,-16,10c0,0,-4,6,-4,13V939c0,0,0,7,4,13c0,0,5,6,17,10c0,0,11,3,30,6c0,0,19,2,47,2c0,0,29,0,48,-2c0,0,18,-3,29,-6c0,0,11,-4,16,-10c0,0,5,-6,5,-13V26c0,0,0,-7,-5,-13c0,0,-5,-6,-16,-10c0,0,-11,-3,-29,-5c0,0,-19,-2,-48,-2Z" 
id="f0_1c"
transform="scale(0.001,-0.001)" />

<path d="M127,0c0,0,-16,0,-28,3C99,3,87,6,80,15c0,0,-8,8,-11,25c0,0,-3,16,-3,42c0,0,0,25,2,42c0,0,2,18,8,32c0,0,6,14,15,27c0,0,9,13,24,29L282,390c0,0,50,53,81,95c0,0,30,43,47,79c0,0,17,35,24,65c0,0,6,30,6,57c0,0,0,24,-8,46c0,0,-8,22,-23,39c0,0,-15,16,-38,25c0,0,-23,10,-55,10c0,0,-44,0,-78,-12c0,0,-33,-11,-59,-25c0,0,-26,-13,-43,-25c0,0,-17,-12,-27,-12c0,0,-7,0,-11,5c0,0,-5,4,-8,15c0,0,-3,10,-5,28c0,0,-2,17,-2,42c0,0,0,18,1,29c0,0,1,12,4,20c0,0,2,9,6,15c0,0,3,6,13,15c0,0,9,9,34,23c0,0,25,14,61,27c0,0,37,14,81,23c0,0,44,9,92,9c0,0,75,0,131,-19c0,0,57,-19,94,-53c0,0,37,-34,55,-81c0,0,19,-47,19,-100c0,0,0,-47,-9,-93c0,0,-9,-45,-37,-98c0,0,-29,-52,-80,-116c0,0,-52,-64,-136,-148L299,159H679c0,0,8,0,14,-4c0,0,6,-5,11,-14c0,0,4,-9,7,-25c0,0,2,-15,2,-36c0,0,0,-22,-2,-37c0,0,-2,-15,-6,-25c0,0,-3,-10,-9,-14c0,0,-6,-4,-14,-4Z" 
id="f0_rz"
transform="scale(0.001,-0.001)" />

<path d="M385,138c0,0,29,0,52,9c0,0,22,10,39,28c0,0,17,19,28,47c0,0,11,29,19,66c0,0,7,37,9,84c0,0,3,47,3,104c0,0,0,69,-4,122c0,0,-4,52,-11,91c0,0,-8,39,-20,66c0,0,-12,27,-28,43c0,0,-16,16,-37,22c0,0,-21,7,-47,7c0,0,-44,0,-73,-21c0,0,-28,-21,-45,-64c0,0,-17,-42,-24,-106c0,0,-6,-63,-6,-148c0,0,0,-103,8,-171c0,0,8,-67,26,-107c0,0,17,-40,45,-56c0,0,27,-16,66,-16ZM378,-17c0,0,-99,0,-164,33c0,0,-65,34,-103,98c0,0,-38,64,-54,156c0,0,-15,92,-15,209c0,0,0,115,19,208c0,0,19,94,61,160c0,0,42,65,110,101c0,0,68,35,165,35c0,0,99,0,164,-34c0,0,65,-34,103,-98c0,0,39,-64,53,-156c0,0,15,-92,15,-209c0,0,0,-115,-18,-209c0,0,-19,-93,-61,-159C653,118,611,53,543,17c0,0,-67,-34,-165,-34Z" 
id="f0_rx"
transform="scale(0.001,-0.001)" />

<path d="M142,0c0,0,-6,0,-12,4c0,0,-5,3,-9,12c0,0,-4,9,-6,23c0,0,-3,15,-3,36c0,0,0,21,2,36c0,0,2,14,6,23c0,0,4,9,10,13c0,0,5,5,12,5H322V779L166,693c0,0,-17,-8,-28,-10c0,0,-1,0,-3,0c-4,0,-10,1,-14,5c0,0,-6,6,-8,22c0,0,-2,15,-2,44c0,0,0,18,0,29c0,0,1,12,4,20c0,0,3,8,8,14c0,0,5,5,14,11L345,962c0,0,4,3,9,5c0,0,6,2,15,3c0,0,9,1,23,2c0,0,15,0,38,0c0,0,28,0,46,-1c0,0,17,-1,26,-4c0,0,9,-3,12,-7c0,0,3,-4,3,-11V152H675c0,0,7,0,12,-5c0,0,6,-4,10,-13c0,0,4,-9,6,-23c0,0,2,-15,2,-36c0,0,0,-21,-2,-36c0,0,-3,-14,-7,-23c0,0,-4,-9,-9,-12c0,0,-5,-4,-12,-4Z" 
id="f0_ry"
transform="scale(0.001,-0.001)" />

<path d="M326,-17c0,0,-45,0,-85,6c0,0,-41,5,-73,13c0,0,-32,8,-52,17c0,0,-21,8,-27,14c0,0,-6,6,-9,12c0,0,-3,7,-5,16c0,0,-2,10,-3,24c0,0,-1,14,-1,33c0,0,0,21,2,36c0,0,1,14,5,23c0,0,3,9,8,13c0,0,4,4,10,4c0,0,7,0,23,-9c0,0,15,-8,40,-19c0,0,25,-10,61,-19c0,0,36,-8,86,-8c0,0,43,0,78,9c0,0,36,9,60,29c0,0,25,19,38,49c0,0,14,30,14,72c0,0,0,36,-11,64c0,0,-12,28,-35,47c0,0,-24,19,-62,29c0,0,-38,10,-93,10c0,0,-43,0,-78,-5c0,0,-36,-4,-67,-4c0,0,-22,0,-31,11c0,0,-9,11,-9,40V909c0,0,0,30,11,43c0,0,12,13,37,13H615c0,0,6,0,12,-4c0,0,6,-5,10,-15c0,0,5,-9,6,-25c0,0,2,-16,2,-39c0,0,0,-45,-7,-65c0,0,-8,-20,-23,-20H272V590c0,0,26,3,52,4c0,0,25,0,54,0c0,0,78,0,139,-18c0,0,61,-18,102,-53c0,0,42,-36,63,-88c0,0,22,-53,22,-122c0,0,0,-79,-27,-140c0,0,-27,-62,-77,-104C600,69,550,27,481,5c0,0,-70,-22,-155,-22Z" 
id="f0_s2"
transform="scale(0.001,-0.001)" />

<path d="M589,371L453,782h-1L317,371ZM106,-4c0,0,-35,0,-54,2C52,-2,32,0,25,8c0,0,-7,9,-5,24c0,0,2,16,11,42L329,931c0,0,4,13,10,21c0,0,6,7,19,12c0,0,13,4,36,5c0,0,23,1,61,1c0,0,44,0,71,-1c0,0,26,-1,40,-5c0,0,15,-5,21,-13c0,0,6,-8,11,-22L896,73c0,0,9,-27,11,-43c0,0,3,-15,-6,-23c0,0,-8,-7,-29,-9c0,0,-21,-2,-57,-2c0,0,-38,0,-59,1c0,0,-22,1,-33,4c0,0,-11,3,-16,9c0,0,-4,6,-7,16L635,220H272L211,31c0,0,-2,-11,-7,-18c0,0,-5,-7,-16,-11c0,0,-11,-3,-31,-4c0,0,-19,-2,-51,-2Z" 
id="f0_5"
transform="scale(0.001,-0.001)" />

<path d="M198,-4c0,0,-27,0,-45,2c0,0,-18,2,-28,5c0,0,-11,4,-15,10c0,0,-4,6,-4,13V887c0,0,0,38,20,58c0,0,20,20,53,20H308c0,0,34,0,59,-6c0,0,24,-5,42,-18c0,0,18,-13,30,-35c0,0,12,-21,21,-52L669,279h3L889,852c0,0,9,32,21,53c0,0,11,22,27,35c0,0,15,14,36,19c0,0,21,6,48,6h132c0,0,21,0,35,-5c0,0,15,-5,24,-15c0,0,9,-11,14,-25c0,0,5,-15,5,-33V26c0,0,0,-7,-4,-13c0,0,-4,-6,-15,-10c0,0,-11,-3,-29,-5c0,0,-18,-2,-45,-2c0,0,-27,0,-45,2c0,0,-18,2,-28,5c0,0,-11,4,-15,10c0,0,-5,6,-5,13V813h-1L764,27c0,0,-3,-10,-10,-16c0,0,-6,-6,-18,-10c0,0,-12,-3,-29,-4c0,0,-18,-1,-44,-1c0,0,-25,0,-43,2c0,0,-18,2,-29,5c0,0,-12,4,-19,10c0,0,-6,6,-9,14L293,813h-2V26c0,0,0,-7,-4,-13c0,0,-4,-6,-15,-10c0,0,-11,-3,-29,-5c0,0,-17,-2,-45,-2Z" 
id="f0_1x"
transform="scale(0.001,-0.001)" />

<path d="M193,-4c0,0,-26,0,-43,2c0,0,-18,2,-27,6c0,0,-10,4,-14,10c0,0,-3,6,-3,13V895c0,0,0,35,20,53c0,0,21,17,50,17H282c0,0,28,0,47,-5c0,0,20,-5,35,-16c0,0,15,-11,29,-31c0,0,13,-20,27,-49L608,511c0,0,17,-32,33,-63c0,0,16,-31,31,-62c0,0,14,-31,29,-60c0,0,14,-30,27,-60h1c0,0,-2,52,-3,109c0,0,-1,57,-1,108V936c0,0,0,7,4,13c0,0,5,6,15,11c0,0,10,4,28,6c0,0,17,2,44,2c0,0,25,0,42,-2c0,0,17,-2,27,-6c0,0,9,-5,13,-11c0,0,4,-6,4,-13V68c0,0,0,-17,-6,-30c0,0,-6,-14,-17,-23C879,15,869,6,856,2c0,0,-14,-3,-28,-3H744c0,0,-26,0,-45,4c0,0,-19,5,-35,19c0,0,-16,14,-31,38c0,0,-15,23,-34,60L359,572c0,0,-21,40,-43,86c0,0,-21,47,-38,91h-2c0,0,3,-54,5,-107c0,0,2,-53,2,-110V27c0,0,0,-7,-5,-13c0,0,-4,-6,-14,-10c0,0,-10,-4,-27,-6c0,0,-17,-2,-44,-2Z" 
id="f0_1y"
transform="scale(0.001,-0.001)" />

<path d="M378,-4c0,0,-28,0,-47,2c0,0,-19,2,-31,5c0,0,-11,4,-16,10c0,0,-4,6,-4,13V805H38c0,0,-8,0,-13,4c0,0,-5,5,-9,14c0,0,-3,9,-5,25c0,0,-2,15,-2,37c0,0,0,22,2,38c0,0,2,15,5,25c0,0,4,9,9,13c0,0,5,4,13,4H718c0,0,7,0,12,-4c0,0,6,-4,10,-13c0,0,3,-10,5,-25c0,0,2,-16,2,-38c0,0,0,-22,-2,-37c0,0,-2,-16,-5,-25c0,0,-4,-9,-10,-14c0,0,-5,-4,-12,-4H476V26c0,0,0,-7,-5,-13c0,0,-5,-6,-16,-10c0,0,-11,-3,-30,-5c0,0,-19,-2,-47,-2Z" 
id="f0_2t"
transform="scale(0.001,-0.001)" />

<path d="M514,145c0,0,72,0,121,27c0,0,48,26,78,73c0,0,30,46,42,107c0,0,13,62,13,131c0,0,0,76,-12,139c0,0,-12,62,-41,106c0,0,-29,45,-76,69c0,0,-48,24,-120,24c0,0,-72,0,-120,-27c0,0,-49,-27,-79,-73c0,0,-29,-45,-42,-106c0,0,-12,-61,-12,-129c0,0,0,-79,12,-142c0,0,12,-63,40,-108c0,0,28,-44,76,-68c0,0,48,-23,120,-23ZM508,-17c0,0,-113,0,-196,29c0,0,-84,29,-140,90c0,0,-56,60,-84,154c0,0,-28,93,-28,221c0,0,0,117,29,210c0,0,30,94,89,160c0,0,59,65,146,101c0,0,87,35,202,35c0,0,110,0,194,-29c0,0,84,-30,140,-90c0,0,56,-60,85,-153c0,0,29,-92,29,-217c0,0,0,-120,-30,-215c0,0,-30,-95,-89,-161C855,118,796,52,709,17c0,0,-87,-34,-201,-34Z" 
id="f0_24"
transform="scale(0.001,-0.001)" />

<path d="M299,0V777H162l36,173H508V0Z" 
id="f1_l"
transform="scale(0.001,-0.001)" />

<path d="M407,475c0,0,61,0,105,44c0,0,44,43,44,103c0,0,0,64,-43,108c0,0,-44,43,-109,43c0,0,-57,0,-99,-44c0,0,-42,-45,-42,-107c0,0,0,-62,42,-104c0,0,42,-43,102,-43ZM195,0L430,323c0,0,-67,-8,-85,-8c0,0,-126,0,-212,92c0,0,-87,92,-87,227c0,0,0,141,107,237c0,0,106,96,264,96c0,0,151,0,246,-97c0,0,95,-96,95,-250c0,0,0,-112,-56,-223c0,0,-55,-112,-94,-168L448,0Z" 
id="f1_t"
transform="scale(0.001,-0.001)" />

<path d="M44,-281L425,1053H537L156,-281Z" 
id="f1_j"
transform="scale(0.001,-0.001)" />

<path d="M75,0L400,413c0,0,71,91,101,149c0,0,30,58,30,109c0,0,0,55,-36,91c0,0,-36,36,-91,36c0,0,-63,0,-91,-45c0,0,-28,-46,-34,-142H67c0,0,0,173,102,268c0,0,102,95,253,95c0,0,140,0,229,-82c0,0,89,-82,89,-209c0,0,0,-125,-104,-276L580,324c0,0,-34,-50,-85,-114L468,178H740V0Z" 
id="f1_m"
transform="scale(0.001,-0.001)" />

<path d="M441,402V711h-3L193,402ZM441,0V227H19V404L457,952H650V402h90V227H650V0Z" 
id="f1_o"
transform="scale(0.001,-0.001)" />

<path d="M460,-325c0,0,-148,79,-231,172c0,0,-84,93,-123,217c0,0,-39,126,-39,304c0,0,0,178,39,303c0,0,39,125,122,217c0,0,82,93,232,172V997c0,0,-91,-52,-145,-134c0,0,-54,-81,-79,-190c0,0,-25,-109,-25,-305c0,0,0,-194,26,-309c0,0,26,-114,82,-193c0,0,56,-79,141,-128v-63Z" 
id="f2_c"
transform="scale(0.001,-0.001)" />

<path d="M376,50c0,0,103,0,149,80c0,0,46,81,46,240c0,0,0,137,-47,204c0,0,-48,67,-148,67c0,0,-44,0,-87,-7c0,0,-44,-8,-63,-17V62c0,0,63,-12,150,-12Zm3,-64c0,0,-64,0,-141,14c0,0,-78,14,-136,37v971L0,1026v34H226V809c0,0,0,-40,-4,-148c0,0,74,59,188,59c0,0,143,0,219,-87c0,0,77,-87,77,-263c0,0,0,-189,-84,-287c0,0,-84,-97,-243,-97Z" 
id="f2_1y"
transform="scale(0.001,-0.001)" />

<path d="M49,-325v63c0,0,85,49,140,128c0,0,56,79,83,194c0,0,26,115,26,308c0,0,0,196,-25,305c0,0,-25,109,-79,190c0,0,-54,82,-145,134v63c0,0,149,-80,232,-172c0,0,83,-92,122,-217c0,0,39,-125,39,-303c0,0,0,-177,-39,-303c0,0,-39,-125,-122,-217c0,0,-83,-93,-232,-173Z" 
id="f2_d"
transform="scale(0.001,-0.001)" />

<path d="M529,65c0,0,183,0,270,108c0,0,87,108,87,334c0,0,0,210,-113,318c0,0,-113,108,-322,108H316V71c0,0,90,-6,213,-6Zm0,-67L172,0H44V40L172,60V941L44,960v40H498c0,0,277,0,411,-123c0,0,133,-124,133,-371c0,0,0,-251,-129,-380C913,126,785,-2,529,-2Z" 
id="f2_14"
transform="scale(0.001,-0.001)" />

<path d="M495,413c0,0,0,133,-34,190c0,0,-34,57,-105,57c0,0,-78,0,-119,-63c0,0,-42,-62,-42,-184ZM374,-14c0,0,-163,0,-239,87c0,0,-75,88,-75,283c0,0,0,183,77,273c0,0,76,91,219,91c0,0,269,0,269,-306V353H194V340c0,0,0,-103,23,-160c0,0,22,-57,70,-87c0,0,47,-29,124,-29c0,0,40,0,96,6c0,0,55,7,91,15V43C598,43,562,20,500,3c0,0,-61,-17,-126,-17Z" 
id="f2_21"
transform="scale(0.001,-0.001)" />

<path d="M382,45c0,0,188,0,188,314c0,0,0,143,-47,213c0,0,-46,69,-141,69c0,0,-87,0,-146,-24V58c0,0,67,-13,146,-13ZM25,-325v35l88,18V649L34,668v33H231l1,-41c0,0,31,27,84,43c0,0,53,17,107,17c0,0,134,0,208,-94c0,0,73,-93,73,-267c0,0,0,-178,-80,-276c0,0,-80,-97,-232,-97c0,0,-84,0,-160,16c0,0,4,-53,4,-84V-272l123,-18v-35Z" 
id="f2_2c"
transform="scale(0.001,-0.001)" />

<path d="M32,0V33L151,52V649L52,668v33H275V52L395,33V0ZM201,850c0,0,-32,0,-56,24c0,0,-24,24,-24,56c0,0,0,34,24,58c0,0,24,24,56,24c0,0,34,0,58,-24c0,0,24,-24,24,-58c0,0,0,-32,-24,-56c0,0,-24,-24,-58,-24Z" 
id="f2_25"
transform="scale(0.001,-0.001)" />

<path d="M399,-14c0,0,-341,0,-341,370c0,0,0,175,87,269c0,0,87,95,249,95c0,0,101,0,220,-23V501H573L541,625c0,0,-62,35,-149,35c0,0,-200,0,-200,-304c0,0,0,-158,61,-225c0,0,61,-67,189,-67c0,0,109,0,189,24V43C631,43,595,16,530,1c0,0,-64,-15,-131,-15Z" 
id="f2_1z"
transform="scale(0.001,-0.001)" />

<path d="M249,-14c0,0,-71,0,-107,42c0,0,-35,42,-35,119V639H15v33l93,29l76,159h47V701H391V639H231V161c0,0,0,-48,22,-73c0,0,22,-24,57,-24c0,0,44,0,106,12V26C416,26,389,8,340,-2c0,0,-49,-12,-91,-12Z" 
id="f2_2g"
transform="scale(0.001,-0.001)" />

<path d="M442,0V33l93,19V504c0,0,0,129,-124,129c0,0,-70,0,-168,-22V52L338,33V0H31V33l88,19v956L15,1026v34H243V756c0,0,0,-77,-5,-112c0,0,54,31,122,53c0,0,68,23,115,23c0,0,91,0,137,-53c0,0,47,-53,47,-154V52L744,33V0Z" 
id="f2_24"
transform="scale(0.001,-0.001)" />

<path d="M383,64c0,0,44,0,87,7c0,0,43,7,65,17V645c0,0,-67,13,-152,13c0,0,-194,0,-194,-309c0,0,0,-143,48,-214c0,0,47,-71,146,-71Zm56,-389v35l96,18V-77c0,0,0,73,7,124c0,0,-79,-61,-200,-61c0,0,-287,0,-287,362c0,0,0,180,81,276c0,0,81,96,237,96c0,0,84,0,166,-18l67,33h53V-272l77,-18v-35Z" 
id="f2_2d"
transform="scale(0.001,-0.001)" />

<path d="M289,-14c0,0,-179,0,-179,205V649L20,668v33H233V200c0,0,0,-128,120,-128c0,0,92,0,173,23V649L420,668v33H649V52L738,33V0H533l-6,57C527,57,474,28,405,7c0,0,-69,-21,-116,-21Z" 
id="f2_2h"
transform="scale(0.001,-0.001)" />

<path d="M377,45c0,0,99,0,147,73c0,0,47,73,47,237c0,0,0,161,-47,233c0,0,-47,72,-147,72c0,0,-97,0,-141,-69c0,0,-44,-69,-44,-236c0,0,0,-169,45,-240c0,0,44,-70,140,-70Zm0,-59c0,0,-158,0,-238,94c0,0,-81,95,-81,274c0,0,0,178,81,272c0,0,80,94,244,94c0,0,160,0,241,-92c0,0,82,-92,82,-274c0,0,0,-368,-329,-368Z" 
id="f2_2b"
transform="scale(0.001,-0.001)" />

<path d="M439,0V33l93,19V500c0,0,0,62,-30,97c0,0,-31,36,-94,36c0,0,-67,0,-165,-22V52L338,33V0H35V33l84,19V649L35,668v33H235l7,-57c0,0,57,33,122,54c0,0,65,22,108,22c0,0,91,0,137,-53c0,0,47,-53,47,-154V52L741,33V0Z" 
id="f2_2a"
transform="scale(0.001,-0.001)" />

<path d="M284,67c0,0,51,0,88,12c0,0,37,12,74,30V358l-98,-3c0,0,-100,-4,-135,-39c0,0,-35,-35,-35,-117c0,0,0,-132,106,-132ZM233,-14c0,0,-179,0,-179,208c0,0,0,70,27,116c0,0,27,46,87,70c0,0,60,24,173,27l105,3V519c0,0,0,72,-26,107c0,0,-27,34,-82,34c0,0,-75,0,-137,-35L176,538H134V691c0,0,121,26,213,26c0,0,115,0,169,-47c0,0,54,-47,54,-144V52L657,33V0H465L451,70c0,0,-85,-84,-218,-84Z" 
id="f2_1x"
transform="scale(0.001,-0.001)" />

<path d="M31,0V33L150,52v956L31,1026v34H274V52L394,33V0Z" 
id="f2_28"
transform="scale(0.001,-0.001)" />

<path d="M278,-14c0,0,-52,0,-115,11c0,0,-63,10,-99,23V193H98L134,95c0,0,56,-50,146,-50c0,0,144,0,144,123c0,0,0,91,-114,130l-66,21c0,0,-75,25,-110,50c0,0,-34,26,-53,63c0,0,-18,36,-18,89c0,0,0,92,63,145c0,0,63,54,170,54c0,0,77,0,193,-23V544H454l-32,81c0,0,-39,35,-124,35c0,0,-61,0,-92,-30c0,0,-32,-30,-32,-80c0,0,0,-43,29,-72c0,0,28,-29,86,-48c0,0,110,-38,144,-55c0,0,33,-17,57,-42c0,0,23,-25,36,-57c0,0,13,-32,13,-79c0,0,0,-104,-66,-158c0,0,-66,-53,-195,-53Z" 
id="f2_2f"
transform="scale(0.001,-0.001)" />

<path d="M31,0V33l88,19V649L31,668v33H235l7,-87c0,0,44,37,121,71c0,0,76,35,121,35h11V530H463l-43,82c0,0,-37,0,-88,-10c0,0,-52,-10,-89,-26V52L363,33V0Z" 
id="f2_2e"
transform="scale(0.001,-0.001)" />

<path d="M64,0V34L168,59V639H47v36l121,29v49c0,0,0,155,61,239c0,0,62,84,173,84c0,0,58,0,107,-15V908H472l-33,92c0,0,-26,16,-62,16c0,0,-47,0,-66,-42c0,0,-19,-42,-19,-157V701H478V639H292V59L443,34V0Z" 
id="f2_22"
transform="scale(0.001,-0.001)" />

<path d="M383,64c0,0,85,0,152,28V645c0,0,-67,13,-152,13c0,0,-194,0,-194,-314c0,0,0,-141,48,-211c0,0,48,-69,146,-69ZM342,-14c0,0,-287,0,-287,358c0,0,0,184,82,280c0,0,81,96,239,96c0,0,81,0,163,-18c0,0,-4,25,-4,124v182l-118,18v34H659V52L745,33V0H548l-9,52c0,0,-84,-66,-197,-66Z" 
id="f2_20"
transform="scale(0.001,-0.001)" />

<path d="M58,-234v58c0,0,131,42,131,125c0,0,0,15,-11,27c0,0,-11,12,-38,25C140,1,89,27,89,75c0,0,0,40,25,61c0,0,26,21,65,21c0,0,48,0,77,-34c0,0,30,-34,30,-86c0,0,0,-101,-60,-170c0,0,-59,-69,-168,-101Z" 
id="f2_g"
transform="scale(0.001,-0.001)" />

<path d="M327,-14L84,649L1,668v33H335V668L219,648L385,174L554,632h63L786,171L944,649L830,668v33h267V668l-78,-16L784,-14H726L553,448L382,-14Z" 
id="f2_2j"
transform="scale(0.001,-0.001)" />

<path d="M360,-14L72,649L0,668v33H327V668L216,648L420,164L615,649L504,668v33H764V668L697,652L416,-14Z" 
id="f2_2i"
transform="scale(0.001,-0.001)" />

<path d="M359,-270c0,0,124,0,192,46c0,0,67,47,67,129c0,0,0,43,-26,67c0,0,-26,24,-79,24H242c0,0,-32,-27,-51,-69c0,0,-20,-41,-20,-77c0,0,0,-64,46,-92c0,0,46,-28,142,-28Zm11,561c0,0,81,0,115,47c0,0,34,47,34,141c0,0,0,100,-35,142c0,0,-35,42,-113,42c0,0,-78,0,-114,-43c0,0,-37,-42,-37,-141c0,0,0,-98,36,-143c0,0,36,-45,114,-45ZM359,-329c0,0,-143,0,-218,44c0,0,-75,43,-75,125c0,0,0,39,27,78c0,0,26,38,98,89c0,0,-43,14,-72,48c0,0,-29,35,-29,74L208,262c0,0,-118,55,-118,217c0,0,0,115,73,178c0,0,73,63,211,63c0,0,28,0,71,-6c0,0,44,-6,67,-13l165,83l26,-32L599,644c0,0,50,-56,50,-165c0,0,0,-120,-72,-182c0,0,-73,-62,-208,-62c0,0,-62,0,-114,11L208,148c0,0,2,-13,29,-24c0,0,27,-12,67,-12H512c0,0,113,0,168,-49c0,0,55,-49,55,-134c0,0,0,-79,-44,-137c0,0,-43,-58,-128,-90c0,0,-84,-31,-204,-31Z" 
id="f2_23"
transform="scale(0.001,-0.001)" />

<path d="M148,-329c0,0,-58,0,-114,13v151H69l24,-71c0,0,23,-17,64,-17c0,0,39,0,72,22c0,0,33,23,60,67c0,0,27,44,68,157L90,649L19,668v33H344V668L233,648L423,158L606,649L497,668v33H758V668L685,652L411,-43c0,0,-48,-124,-84,-177c0,0,-36,-54,-79,-82c0,0,-44,-27,-100,-27Z" 
id="f2_2l"
transform="scale(0.001,-0.001)" />

<path d="M191,-20c0,0,-39,0,-65,25c0,0,-25,27,-25,64c0,0,0,38,26,64c0,0,26,26,64,26c0,0,38,0,64,-26c0,0,26,-26,26,-64c0,0,0,-37,-25,-64c0,0,-26,-25,-65,-25Z" 
id="f2_i"
transform="scale(0.001,-0.001)" />

<path d="M410,-14c0,0,-86,0,-175,14C235,0,145,14,81,38V307h66L181,146c0,0,31,-37,94,-62c0,0,64,-24,132,-24c0,0,214,0,214,177c0,0,0,55,-41,93c0,0,-41,38,-128,68c0,0,-128,42,-185,68c0,0,-56,27,-95,63c0,0,-38,36,-62,87c0,0,-23,51,-23,125c0,0,0,132,90,201c0,0,90,69,263,69c0,0,125,0,278,-32V741H651L618,878c0,0,-76,56,-178,56c0,0,-92,0,-141,-34c0,0,-49,-34,-49,-104c0,0,0,-50,41,-86c0,0,41,-35,128,-63c0,0,171,-56,235,-97c0,0,64,-41,97,-103c0,0,34,-61,34,-143c0,0,0,-318,-375,-318Z" 
id="f3_1j"
transform="scale(0.001,-0.001)" />

<path d="M379,60c0,0,59,0,84,64c0,0,24,65,24,231c0,0,0,164,-24,227c0,0,-24,63,-84,63c0,0,-57,0,-80,-60c0,0,-22,-61,-22,-230c0,0,0,-173,23,-234c0,0,22,-61,79,-61Zm-2,-74c0,0,-161,0,-240,91c0,0,-79,91,-79,277c0,0,0,186,80,276c0,0,81,90,245,90c0,0,167,0,245,-93c0,0,78,-93,78,-273c0,0,0,-188,-81,-278c0,0,-81,-90,-248,-90Z" 
id="f3_2b"
transform="scale(0.001,-0.001)" />

<path d="M30,0V49l76,18V992l-72,18v50H322V67L398,49V0Z" 
id="f3_28"
transform="scale(0.001,-0.001)" />

<path d="M287,-18c0,0,-194,0,-194,206V634L23,652v49H309V217c0,0,0,-63,26,-98c0,0,27,-35,76,-35c0,0,57,0,113,25V634l-64,18v49H740V67L809,49V0H536L526,61L475,35c0,0,-104,-53,-188,-53Z" 
id="f3_2h"
transform="scale(0.001,-0.001)" />

<path d="M327,-14c0,0,-101,0,-156,45c0,0,-55,45,-55,131V624H25v48l108,29l87,159H332V701H480V624H332V176c0,0,0,-49,20,-73c0,0,20,-25,53,-25c0,0,40,0,97,12V26c0,0,-22,-15,-76,-27c0,0,-55,-13,-99,-13Z" 
id="f3_2g"
transform="scale(0.001,-0.001)" />

<path d="M34,0V49l76,18V634L38,652v49H325V67L402,49V0ZM217,831c0,0,-48,0,-81,33c0,0,-34,33,-34,82c0,0,0,48,34,81c0,0,34,33,81,33c0,0,48,0,81,-33c0,0,33,-33,33,-81c0,0,0,-47,-33,-81c0,0,-32,-34,-81,-34Z" 
id="f3_25"
transform="scale(0.001,-0.001)" />

<path d="M41,0V49l69,18V634L41,652v49H313l11,-61l50,26c0,0,105,54,188,54c0,0,194,0,194,-207V67L827,49V0H478V49l63,18V484c0,0,0,63,-27,98c0,0,-26,35,-75,35c0,0,-57,0,-114,-25V67L389,49V0Z" 
id="f3_2a"
transform="scale(0.001,-0.001)" />

<path d="M248,-20c0,0,-52,0,-87,34c0,0,-36,36,-36,88c0,0,0,52,36,88c0,0,35,36,87,36c0,0,52,0,88,-36c0,0,36,-36,36,-88c0,0,0,-51,-36,-87c0,0,-35,-35,-88,-35Zm0,488c0,0,-52,0,-87,36c0,0,-36,36,-36,88c0,0,0,52,35,88c0,0,35,36,88,36c0,0,53,0,89,-36c0,0,35,-37,35,-88c0,0,0,-51,-36,-87c0,0,-35,-37,-88,-37Z" 
id="f3_u"
transform="scale(0.001,-0.001)" />

<path d="M410,-14c0,0,-80,0,-162,14c0,0,-81,14,-144,38V270h48L178,134c0,0,28,-35,95,-62c0,0,68,-27,134,-27c0,0,104,0,163,53c0,0,58,54,58,148c0,0,0,54,-23,89c0,0,-22,35,-59,59c0,0,-37,24,-84,41c0,0,-47,17,-97,34c0,0,-49,17,-96,38c0,0,-47,21,-84,53c0,0,-37,32,-60,79c0,0,-23,48,-23,117c0,0,0,119,90,187c0,0,89,68,248,68c0,0,121,0,263,-32V771H654L628,893c0,0,-76,55,-188,55c0,0,-100,0,-156,-40c0,0,-56,-41,-56,-112c0,0,0,-49,22,-81c0,0,23,-32,60,-55c0,0,37,-22,84,-39c0,0,48,-16,97,-34c0,0,50,-17,97,-39c0,0,48,-22,85,-56c0,0,36,-34,59,-83c0,0,23,-49,23,-120c0,0,0,-145,-89,-224c0,0,-89,-79,-256,-79Z" 
id="f2_1j"
transform="scale(0.001,-0.001)" />

<path d="M431,0V33L535,52V499c0,0,0,62,-32,96c0,0,-32,33,-95,33c0,0,-66,0,-163,-22V52L350,33V0H32V33l89,19V649L32,668v33H237l6,-57c0,0,56,32,119,54c0,0,62,22,110,22c0,0,52,0,95,-20c0,0,44,-19,66,-62c0,0,57,32,134,57c0,0,77,25,128,25c0,0,179,0,179,-207V52l90,-19V0H846V33L950,52V499c0,0,0,129,-119,129c0,0,-19,0,-45,-3c0,0,-26,-3,-52,-7c0,0,-25,-4,-49,-8c0,0,-23,-5,-39,-8c0,0,13,-41,13,-89V52L764,33V0Z" 
id="f2_29"
transform="scale(0.001,-0.001)" />

<path d="M211,-20c0,0,-39,0,-64,25c0,0,-26,27,-26,64c0,0,0,38,26,64c0,0,26,26,64,26c0,0,37,0,64,-25c0,0,26,-26,26,-65c0,0,0,-37,-26,-64c0,0,-26,-25,-64,-25Zm0,556c0,0,-38,0,-64,26c0,0,-26,26,-26,64c0,0,0,37,26,64c0,0,25,27,64,27c0,0,38,0,64,-27c0,0,26,-27,26,-64c0,0,0,-38,-26,-64c0,0,-27,-26,-64,-26Z" 
id="f2_u"
transform="scale(0.001,-0.001)" />

<path d="M235,0V40L394,60V936H356c0,0,-189,0,-258,-15L78,766H28v234H908V766H857L837,921c0,0,-22,5,-98,9c0,0,-75,4,-165,4H538V60L697,40V0Z" 
id="f2_1k"
transform="scale(0.001,-0.001)" />

<path d="M13,0V34L95,46L325,350L122,649L40,668v33H357V668L264,648L399,446L554,649l-96,19v33H710V668L630,652L433,397L663,50L745,34V0H427V34l94,17L359,299L169,50L266,34V0Z" 
id="f2_2k"
transform="scale(0.001,-0.001)" />

<path d="M477,0V33l64,19L348,354L257,254V52L331,33V0H44V33l89,19v956L29,1026v34H257V338L544,647l-73,20v34H718V667L631,650L431,446L688,50L764,33V0Z" 
id="f2_27"
transform="scale(0.001,-0.001)" />

<path d="M377,45c0,0,99,0,145,108c0,0,46,109,46,352c0,0,0,240,-45,345c0,0,-46,106,-146,106c0,0,-97,0,-139,-100c0,0,-43,-99,-43,-351c0,0,0,-254,44,-357c0,0,43,-103,138,-103Zm0,-59c0,0,-158,0,-238,132c0,0,-81,133,-81,386c0,0,0,249,81,380c0,0,80,132,244,132c0,0,159,0,241,-130c0,0,82,-130,82,-382c0,0,0,-518,-329,-518Z" 
id="f2_k"
transform="scale(0.001,-0.001)" />

<path d="M134,0V40L339,60V876L137,804v39l292,166h39V60L672,40V0Z" 
id="f2_l"
transform="scale(0.001,-0.001)" />

<path d="M291,-21c0,0,-140,0,-216,60C75,39,0,101,0,176c0,0,0,54,40,102c0,0,41,49,147,88c0,0,-89,33,-118,70c0,0,-30,38,-30,89c0,0,0,69,58,116c0,0,79,63,208,63c0,0,77,0,138,-18c0,0,61,-18,83,-47c0,0,22,-28,22,-54c0,0,0,-23,-19,-42c0,0,-20,-19,-45,-19c0,0,-41,0,-68,53c0,0,-27,54,-45,66c0,0,-29,19,-72,19c0,0,-67,0,-106,-39c0,0,-40,-39,-40,-106c0,0,0,-66,33,-101c0,0,33,-35,90,-35c0,0,20,0,43,3c0,0,37,5,57,5c0,0,33,0,44,-8c0,0,12,-8,12,-19c0,0,0,-12,-10,-18c0,0,-13,-10,-47,-10c0,0,-8,0,-25,3c0,0,-39,5,-63,5c0,0,-63,0,-103,-41c0,0,-40,-41,-40,-108c0,0,0,-78,42,-121c0,0,41,-44,107,-44c0,0,53,0,86,32c0,0,20,19,41,78c0,0,14,39,23,47c0,0,24,24,51,24c0,0,31,0,53,-21c0,0,22,-22,22,-54c0,0,0,-51,-59,-95c0,0,-86,-60,-219,-60Z" 
id="f4_21"
transform="scale(0.001,-0.001)" />

<path d="M617,0L251,860V60L385,40V0H44V40L172,60V941L44,960v40H347L672,239l355,761h287V960L1185,941V60L1314,40V0H908V40l134,20V859L643,0Z" 
id="f2_1d"
transform="scale(0.001,-0.001)" />

<path d="M412,-328c0,0,-195,96,-303,284C109,-44,0,142,0,365c0,0,0,232,114,422c0,0,114,191,298,273v-31c0,0,-92,-51,-151,-139c0,0,-59,-88,-88,-223c0,0,-29,-136,-29,-282c0,0,0,-167,27,-301c0,0,26,-133,82,-221c0,0,55,-89,159,-159v-32Z" 
id="f4_c"
transform="scale(0.001,-0.001)" />

<path d="M34,-328v32c0,0,92,50,151,138c0,0,59,88,88,222c0,0,29,135,29,283c0,0,0,165,-27,300c0,0,-26,134,-82,222c0,0,-56,89,-159,160v31c0,0,194,-96,303,-284c0,0,108,-187,108,-410c0,0,0,-232,-114,-422c0,0,-114,-191,-297,-272Z" 
id="f4_d"
transform="scale(0.001,-0.001)" />

<path d="M-17,0l8,40L120,60L276,941L151,960l7,40H909L866,761H817l4,161c0,0,-81,11,-239,11H419L349,543H619l45,119h48L657,354H609l-1,121H338L266,67H463c0,0,190,0,254,12l75,185h49L780,0Z" 
id="f5_15"
transform="scale(0.001,-0.001)" />

<path d="M54,0L169,649L81,668l6,33H294L274,558c0,0,62,81,130,121c0,0,67,41,132,41c0,0,75,0,113,-41c0,0,38,-41,38,-117c0,0,0,-10,-3,-32c0,0,-3,-21,-81,-478L700,34L695,0H470l76,434c0,0,17,94,17,123c0,0,0,34,-18,55c0,0,-18,21,-56,21c0,0,-56,0,-121,-47c0,0,-65,-47,-108,-117L178,0Z" 
id="f5_2a"
transform="scale(0.001,-0.001)" />

<path d="M188,355c0,0,148,11,236,69c0,0,89,58,89,143c0,0,0,41,-23,68c0,0,-22,27,-66,27c0,0,-52,0,-101,-43c0,0,-49,-42,-85,-114c0,0,-36,-71,-50,-150ZM298,-14c0,0,-120,0,-186,67c0,0,-65,67,-65,193c0,0,0,125,53,232c0,0,52,108,145,175c0,0,94,67,196,67c0,0,92,0,147,-42c0,0,56,-43,56,-111c0,0,0,-102,-126,-173c0,0,-125,-72,-336,-86l-3,-54c0,0,0,-95,40,-143c0,0,40,-47,118,-47c0,0,67,0,124,22c0,0,57,23,106,52l22,-32c0,0,-69,-58,-146,-89c0,0,-76,-31,-145,-31Z" 
id="f5_21"
transform="scale(0.001,-0.001)" />

<path d="M200,-14c0,0,-59,0,-93,35c0,0,-34,36,-34,100c0,0,0,22,4,51c0,0,4,30,82,467H67l6,33l99,29L275,860h47L295,701H455L443,639H283L210,230c0,0,-13,-69,-13,-99c0,0,0,-34,17,-51c0,0,17,-16,43,-16c0,0,54,0,113,21L386,50c0,0,-92,-64,-186,-64Z" 
id="f5_2g"
transform="scale(0.001,-0.001)" />

<path d="M301,78c0,0,41,0,90,27c0,0,49,28,95,77l81,442c0,0,-26,18,-54,27c0,0,-27,10,-67,10c0,0,-70,0,-131,-55c0,0,-61,-55,-99,-152c0,0,-37,-97,-37,-201c0,0,0,-79,33,-127c0,0,33,-48,89,-48ZM245,-14c0,0,-91,0,-145,68c0,0,-54,69,-54,183c0,0,0,128,55,240c0,0,55,112,150,177c0,0,96,66,210,66c0,0,70,0,123,-18c0,0,3,36,51,306l-115,18l6,34H768L589,52L673,33L667,0H454l22,117C476,117,350,-14,245,-14Z" 
id="f5_20"
transform="scale(0.001,-0.001)" />

<path d="M228,-14c0,0,-103,0,-209,46L49,200H83L95,99c0,0,20,-21,55,-38c0,0,36,-16,81,-16c0,0,163,0,163,133c0,0,0,44,-35,78c0,0,-34,34,-113,72c0,0,-75,37,-112,81c0,0,-36,45,-36,104c0,0,0,99,66,153c0,0,67,54,184,54c0,0,85,0,200,-26L521,538H486l-11,80c0,0,-47,42,-124,42c0,0,-61,0,-97,-28c0,0,-37,-28,-37,-87c0,0,0,-40,31,-71c0,0,32,-30,119,-75c0,0,78,-40,113,-86c0,0,36,-47,36,-107c0,0,0,-113,-71,-167c0,0,-72,-53,-217,-53Z" 
id="f5_2f"
transform="scale(0.001,-0.001)" />

<path d="M313,80c0,0,53,0,105,15c0,0,52,15,87,38l90,509c0,0,-76,20,-152,20c0,0,-74,0,-134,-54c0,0,-60,-54,-94,-149c0,0,-34,-95,-34,-203c0,0,0,-86,34,-131c0,0,34,-45,98,-45ZM421,-325l52,285c0,0,12,64,28,120C501,80,443,37,380,11c0,0,-64,-25,-119,-25c0,0,-102,0,-156,63c0,0,-54,63,-54,188c0,0,0,137,53,248c0,0,54,112,152,173c0,0,97,62,220,62c0,0,52,0,129,-10c0,0,76,-11,123,-22L554,-273l91,-17l-6,-35Z" 
id="f5_2d"
transform="scale(0.001,-0.001)" />

<path d="M304,24V657c0,0,-49,-12,-76,-33c0,0,-42,-33,-68,-96c0,0,-26,-62,-26,-168c0,0,0,-118,30,-192c0,0,31,-75,76,-113c0,0,21,-19,64,-31Zm83,0c0,0,46,10,71,30c0,0,46,35,71,98c0,0,25,64,25,177c0,0,0,103,-23,175c0,0,-23,72,-64,110c0,0,-26,26,-80,43V24ZM304,-328V-20c0,0,-113,12,-182,70C122,50,0,154,0,339c0,0,0,73,19,131c0,0,18,58,50,102c0,0,32,44,70,72c0,0,37,28,80,42c0,0,31,10,85,17v358h83V703c0,0,149,-16,226,-117c0,0,78,-101,78,-241c0,0,0,-64,-18,-124c0,0,-19,-60,-49,-105c0,0,-30,-45,-68,-74c0,0,-37,-30,-82,-44c0,0,-31,-11,-87,-18V-328Z" 
id="f4_22"
transform="scale(0.001,-0.001)" />

<path d="M0,214v74H784V214ZM0,494v72H784V494Z" 
id="f4_x"
transform="scale(0.001,-0.001)" />

<path d="M88,-163c0,0,-39,0,-63,25c0,0,-25,26,-25,65c0,0,0,34,19,54c0,0,19,19,48,19c0,0,30,0,51,-23c0,0,22,-24,37,-24c0,0,12,0,21,11c0,0,8,10,8,35c0,0,0,30,-7,88c0,0,-27,235,-27,620c0,0,13,411,17,446c0,0,17,139,60,188c0,0,43,48,98,48c0,0,37,0,65,-25c0,0,28,-25,28,-54c0,0,0,-35,-19,-57c0,0,-20,-21,-49,-21c0,0,-26,0,-57,27c0,0,-17,15,-30,15c0,0,-12,0,-21,-11c0,0,-8,-11,-8,-37c0,0,0,-31,6,-108c0,0,28,-306,28,-496c0,0,0,-50,-12,-439c0,0,-6,-219,-67,-296c0,0,-41,-50,-101,-50Z" 
id="f4_50"
transform="scale(0.001,-0.001)" />

<path d="M577,-14c0,0,-243,0,-379,132C198,118,63,250,63,488c0,0,0,258,130,391c0,0,131,132,387,132c0,0,156,0,335,-38l5,-218H871L848,884c0,0,-52,32,-121,50c0,0,-69,17,-141,17c0,0,-191,0,-279,-112c0,0,-88,-113,-88,-349c0,0,0,-217,92,-332c0,0,92,-115,268,-115c0,0,85,0,160,20c0,0,76,21,120,55l27,149h49L930,32c0,0,-164,-46,-353,-46Z" 
id="f2_13"
transform="scale(0.001,-0.001)" />

<path d="M67,0V109L206,235c0,0,133,118,196,190c0,0,63,72,90,149c0,0,27,77,27,177c0,0,0,97,-44,148c0,0,-44,50,-144,50c0,0,-39,0,-81,-10c0,0,-42,-11,-74,-29L150,787H101V980c0,0,135,32,230,32c0,0,164,0,247,-68c0,0,82,-69,82,-193c0,0,0,-84,-32,-158c0,0,-33,-75,-100,-148c0,0,-67,-74,-222,-206c0,0,-67,-57,-141,-125H680V0Z" 
id="f2_m"
transform="scale(0.001,-0.001)" />

<path d="M681,416L504,902L333,416ZM669,0V40L803,60L704,348H310L210,60L344,40V0H15V40L128,60l341,949H611L965,60L1092,40V0Z" 
id="f2_11"
transform="scale(0.001,-0.001)" />

<path d="M420,-22L89,941L1,960v40H383V960L236,941L474,236L744,930h33L1037,236l227,705l-156,19v40h331V960l-87,-19L1025,-22H985L726,666L460,-22Z" 
id="f2_1n"
transform="scale(0.001,-0.001)" />

<path d="M41,0V34L426,641H261c0,0,-42,0,-80,-7c0,0,-39,-7,-54,-19L104,515H69V701H586V665L201,60H407c0,0,42,0,89,10c0,0,47,10,66,25l39,147h35L617,0Z" 
id="f2_2m"
transform="scale(0.001,-0.001)" />


</defs>
</svg>