<?xml version="1.0" encoding="UTF-8" standalone="no"?>
<!DOCTYPE svg PUBLIC "-//W3C//DTD SVG 1.1//EN"
"http://www.w3.org/Graphics/SVG/1.1/DTD/svg11.dtd">
<svg viewBox="0 0 909 1286" version="1.1" xmlns="http://www.w3.org/2000/svg" xmlns:xlink="http://www.w3.org/1999/xlink">
<defs>
</defs>
<g fill="#000000" >
<use xlink:href="#f0_e" transform="matrix(12,0,0,12,449,1140.7)" />
<use xlink:href="#f0_a" transform="matrix(12,0,0,12,86.4,1140.7)" />
<use xlink:href="#f0_a" transform="matrix(12,0,0,12,96.4,1140.7)" />
<use xlink:href="#f1_8" transform="matrix(12,0,0,12,106.7,1140.7)" />
<use xlink:href="#f0_6" transform="matrix(12,0,0,12,111.3,1140.7)" />
<use xlink:href="#f1_8" transform="matrix(12,0,0,12,121.5,1140.7)" />
<use xlink:href="#f0_l" transform="matrix(12,0,0,12,126.1,1140.7)" />
<use xlink:href="#f0_n" transform="matrix(12,0,0,12,766.5,1140.7)" />
<use xlink:href="#f0_4" transform="matrix(12,0,0,12,780.1,1140.7)" />
<use xlink:href="#f0_q" transform="matrix(12,0,0,12,784.9,1140.7)" />
<use xlink:href="#f0_4" transform="matrix(12,0,0,12,797.8,1140.7)" />
<use xlink:href="#f0_m" transform="matrix(12,0,0,12,802.5,1140.7)" />
<use xlink:href="#f0_4" transform="matrix(12,0,0,12,817.5,1140.7)" />
<use xlink:href="#f0_6" transform="matrix(12,0,0,12,86.4,168)" />
<use xlink:href="#f0_d" transform="matrix(12,0,0,12,96.4,168)" />
<use xlink:href="#f0_4" transform="matrix(12,0,0,12,106.5,168)" />
<use xlink:href="#f1_3" transform="matrix(12,0,0,12,129.7,168)" />
<use xlink:href="#f1_1h" transform="matrix(12,0,0,12,135.4,168)" />
<use xlink:href="#f1_4" transform="matrix(12,0,0,12,140.7,168)" />
<use xlink:href="#f2_17" transform="matrix(16,0,0,16,173,168)" />
<use xlink:href="#f2_20" transform="matrix(16,0,0,16,182.9,168)" />
<use xlink:href="#f2_1s" transform="matrix(16,0,0,16,201.9,168)" />
<use xlink:href="#f2_29" transform="matrix(16,0,0,16,211.9,168)" />
<use xlink:href="#f2_2f" transform="matrix(16,0,0,16,216.3,168)" />
<use xlink:href="#f2_1y" transform="matrix(16,0,0,16,225.5,168)" />
<use xlink:href="#f2_28" transform="matrix(16,0,0,16,237,168)" />
<use xlink:href="#f2_q" transform="matrix(16,0,0,16,246.6,168)" />
<use xlink:href="#f2_24" transform="matrix(16,0,0,16,252.5,168)" />
<use xlink:href="#f2_1i" transform="matrix(16,0,0,16,263.9,168)" />
<use xlink:href="#f2_2d" transform="matrix(16,0,0,16,274.2,168)" />
<use xlink:href="#f2_p" transform="matrix(16,0,0,16,274.4,168)" />
<use xlink:href="#f2_29" transform="matrix(16,0,0,16,282.9,168)" />
<use xlink:href="#f2_2k" transform="matrix(16,0,0,16,287.3,168)" />
<use xlink:href="#f2_1i" transform="matrix(16,0,0,16,296.5,168)" />
<use xlink:href="#f2_2l" transform="matrix(16,0,0,16,306.8,168)" />
<use xlink:href="#f2_2a" transform="matrix(16,0,0,16,307.1,168)" />
<use xlink:href="#f2_1b" transform="matrix(16,0,0,16,312.3,168)" />
<use xlink:href="#f2_2l" transform="matrix(16,0,0,16,322.3,168)" />
<use xlink:href="#f2_1z" transform="matrix(16,0,0,16,327.3,168)" />
<use xlink:href="#f2_29" transform="matrix(16,0,0,16,338.6,168)" />
<use xlink:href="#f2_15" transform="matrix(16,0,0,16,343,168)" />
<use xlink:href="#f2_29" transform="matrix(16,0,0,16,357.8,168)" />
<use xlink:href="#f2_2f" transform="matrix(16,0,0,16,362.3,168)" />
<use xlink:href="#f2_1a" transform="matrix(16,0,0,16,362.5,168)" />
<use xlink:href="#f2_1b" transform="matrix(16,0,0,16,371.7,168)" />
<use xlink:href="#f2_29" transform="matrix(16,0,0,16,386.5,168)" />
<use xlink:href="#f2_20" transform="matrix(16,0,0,16,399.8,168)" />
<use xlink:href="#f2_29" transform="matrix(16,0,0,16,410,168)" />
<use xlink:href="#f2_1y" transform="matrix(16,0,0,16,414.4,168)" />
<use xlink:href="#f2_2a" transform="matrix(16,0,0,16,434.8,168)" />
<use xlink:href="#f2_23" transform="matrix(16,0,0,16,440.1,168)" />
<use xlink:href="#f2_2a" transform="matrix(16,0,0,16,453.9,168)" />
<use xlink:href="#f2_1d" transform="matrix(16,0,0,16,459.2,168)" />
<use xlink:href="#f2_19" transform="matrix(16,0,0,16,474.6,168)" />
<use xlink:href="#f2_1h" transform="matrix(16,0,0,16,494.2,168)" />
<use xlink:href="#f2_29" transform="matrix(16,0,0,16,507.4,168)" />
<use xlink:href="#f2_2f" transform="matrix(16,0,0,16,511.8,168)" />
<use xlink:href="#f1_1o" transform="matrix(12,0,0,12,520.8,168)" />
<use xlink:href="#f1_1m" transform="matrix(12,0,0,12,531.3,168)" />
<use xlink:href="#f2_27" transform="matrix(16,0,0,16,549.5,168)" />
<use xlink:href="#f2_1a" transform="matrix(16,0,0,16,562.2,168)" />
<use xlink:href="#f2_2a" transform="matrix(16,0,0,16,562.5,168)" />
<use xlink:href="#f2_1t" transform="matrix(16,0,0,16,567.7,168)" />
<use xlink:href="#f2_1w" transform="matrix(16,0,0,16,588.9,168)" />
<use xlink:href="#f2_20" transform="matrix(16,0,0,16,600.5,168)" />
<use xlink:href="#f2_1q" transform="matrix(16,0,0,16,610.6,168)" />
<use xlink:href="#f2_2f" transform="matrix(16,0,0,16,620.7,168)" />
<use xlink:href="#f2_27" transform="matrix(16,0,0,16,629.9,168)" />
<use xlink:href="#f2_1y" transform="matrix(16,0,0,16,642.6,168)" />
<use xlink:href="#f2_1z" transform="matrix(16,0,0,16,654.1,168)" />
<use xlink:href="#f2_28" transform="matrix(16,0,0,16,674.3,168)" />
<use xlink:href="#f2_29" transform="matrix(16,0,0,16,683.9,168)" />
<use xlink:href="#f2_2f" transform="matrix(16,0,0,16,688.3,168)" />
<use xlink:href="#f2_1q" transform="matrix(16,0,0,16,688.6,168)" />
<use xlink:href="#f2_2b" transform="matrix(16,0,0,16,698.7,168)" />
<use xlink:href="#f2_28" transform="matrix(16,0,0,16,712.9,168)" />
<use xlink:href="#f2_2g" transform="matrix(16,0,0,16,722.5,168)" />
<use xlink:href="#f2_1a" transform="matrix(16,0,0,16,722.8,168)" />
<use xlink:href="#f2_1u" transform="matrix(16,0,0,16,723,168)" />
<use xlink:href="#f1_3" transform="matrix(12,0,0,12,129.7,235.9)" />
<use xlink:href="#f1_1h" transform="matrix(12,0,0,12,135.5,235.9)" />
<use xlink:href="#f1_1h" transform="matrix(12,0,0,12,141,235.9)" />
<use xlink:href="#f1_4" transform="matrix(12,0,0,12,146.5,235.9)" />
<use xlink:href="#f2_1i" transform="matrix(16,0,0,16,173,235.9)" />
<use xlink:href="#f2_2d" transform="matrix(16,0,0,16,183.4,235.9)" />
<use xlink:href="#f2_p" transform="matrix(16,0,0,16,183.7,235.9)" />
<use xlink:href="#f2_29" transform="matrix(16,0,0,16,192.2,235.9)" />
<use xlink:href="#f2_2k" transform="matrix(16,0,0,16,196.7,235.9)" />
<use xlink:href="#f2_1q" transform="matrix(16,0,0,16,206.9,235.9)" />
<use xlink:href="#f2_21" transform="matrix(16,0,0,16,217.1,235.9)" />
<use xlink:href="#f2_1a" transform="matrix(16,0,0,16,223.7,235.9)" />
<use xlink:href="#f2_1e" transform="matrix(16,0,0,16,225.1,235.9)" />
<use xlink:href="#f2_2a" transform="matrix(16,0,0,16,246,235.9)" />
<use xlink:href="#f2_1s" transform="matrix(16,0,0,16,251.3,235.9)" />
<use xlink:href="#f2_e" transform="matrix(16,0,0,16,261.3,235.9)" />
<use xlink:href="#f2_1k" transform="matrix(16,0,0,16,267.3,235.9)" />
<use xlink:href="#f2_1b" transform="matrix(16,0,0,16,277.3,235.9)" />
<use xlink:href="#f2_29" transform="matrix(16,0,0,16,292.2,235.9)" />
<use xlink:href="#f2_21" transform="matrix(16,0,0,16,296.7,235.9)" />
<use xlink:href="#f2_2b" transform="matrix(16,0,0,16,304.4,235.9)" />
<use xlink:href="#f2_1b" transform="matrix(16,0,0,16,319.7,235.9)" />
<use xlink:href="#f2_29" transform="matrix(16,0,0,16,334.6,235.9)" />
<use xlink:href="#f2_2a" transform="matrix(16,0,0,16,349,235.9)" />
<use xlink:href="#f2_24" transform="matrix(16,0,0,16,354.3,235.9)" />
<use xlink:href="#f2_h" transform="matrix(16,0,0,16,365.8,235.9)" />
<use xlink:href="#f2_2c" transform="matrix(16,0,0,16,378.6,235.9)" />
<use xlink:href="#f2_1q" transform="matrix(16,0,0,16,378.9,235.9)" />
<use xlink:href="#f2_2j" transform="matrix(16,0,0,16,389.1,235.9)" />
<use xlink:href="#f2_1i" transform="matrix(16,0,0,16,399.4,235.9)" />
<use xlink:href="#f2_2a" transform="matrix(16,0,0,16,409.7,235.9)" />
<use xlink:href="#f2_21" transform="matrix(16,0,0,16,415.1,235.9)" />
<use xlink:href="#f2_1i" transform="matrix(16,0,0,16,422.8,235.9)" />
<use xlink:href="#f2_1r" transform="matrix(16,0,0,16,433.1,235.9)" />
<use xlink:href="#f2_2a" transform="matrix(16,0,0,16,455.3,235.9)" />
<use xlink:href="#f2_20" transform="matrix(16,0,0,16,460.7,235.9)" />
<use xlink:href="#f2_24" transform="matrix(16,0,0,16,470.9,235.9)" />
<use xlink:href="#f2_2f" transform="matrix(16,0,0,16,482.4,235.9)" />
<use xlink:href="#f2_25" transform="matrix(16,0,0,16,482.7,235.9)" />
<use xlink:href="#f2_29" transform="matrix(16,0,0,16,491.1,235.9)" />
<use xlink:href="#f2_2b" transform="matrix(16,0,0,16,495.6,235.9)" />
<use xlink:href="#f2_15" transform="matrix(16,0,0,16,510.8,235.9)" />
<use xlink:href="#f2_29" transform="matrix(16,0,0,16,525.8,235.9)" />
<use xlink:href="#f2_2g" transform="matrix(16,0,0,16,530.3,235.9)" />
<use xlink:href="#f2_21" transform="matrix(16,0,0,16,530.6,235.9)" />
<use xlink:href="#f2_2a" transform="matrix(16,0,0,16,548.2,235.9)" />
<use xlink:href="#f2_20" transform="matrix(16,0,0,16,553.5,235.9)" />
<use xlink:href="#f2_1e" transform="matrix(16,0,0,16,563.7,235.9)" />
<use xlink:href="#f2_2k" transform="matrix(16,0,0,16,574.6,235.9)" />
<use xlink:href="#f2_1q" transform="matrix(16,0,0,16,574.9,235.9)" />
<use xlink:href="#f2_1q" transform="matrix(16,0,0,16,595,235.9)" />
<use xlink:href="#f2_21" transform="matrix(16,0,0,16,605.2,235.9)" />
<use xlink:href="#f2_1a" transform="matrix(16,0,0,16,611.8,235.9)" />
<use xlink:href="#f2_1e" transform="matrix(16,0,0,16,613.3,235.9)" />
<use xlink:href="#f2_9" transform="matrix(16,0,0,16,634.1,235.9)" />
<use xlink:href="#f2_1i" transform="matrix(16,0,0,16,647.9,235.9)" />
<use xlink:href="#f2_29" transform="matrix(16,0,0,16,658.3,235.9)" />
<use xlink:href="#f2_2f" transform="matrix(16,0,0,16,662.8,235.9)" />
<use xlink:href="#f2_1a" transform="matrix(16,0,0,16,663.1,235.9)" />
<use xlink:href="#f2_27" transform="matrix(16,0,0,16,673.3,235.9)" />
<use xlink:href="#f2_2a" transform="matrix(16,0,0,16,686.1,235.9)" />
<use xlink:href="#f2_28" transform="matrix(16,0,0,16,691.4,235.9)" />
<use xlink:href="#f2_1q" transform="matrix(16,0,0,16,701.1,235.9)" />
<use xlink:href="#f2_1d" transform="matrix(16,0,0,16,721.2,235.9)" />
<use xlink:href="#f2_2b" transform="matrix(16,0,0,16,736.8,235.9)" />
<use xlink:href="#f2_1a" transform="matrix(16,0,0,16,742.1,235.9)" />
<use xlink:href="#f2_2a" transform="matrix(16,0,0,16,742.4,235.9)" />
<use xlink:href="#f2_1f" transform="matrix(16,0,0,16,747.7,235.9)" />
<use xlink:href="#f2_19" transform="matrix(16,0,0,16,761,235.9)" />
<use xlink:href="#f2_1u" transform="matrix(16,0,0,16,771.7,235.9)" />
<use xlink:href="#f2_27" transform="matrix(16,0,0,16,173,270.2)" />
<use xlink:href="#f2_1a" transform="matrix(16,0,0,16,185.7,270.2)" />
<use xlink:href="#f2_2n" transform="matrix(16,0,0,16,186,270.2)" />
<use xlink:href="#f2_29" transform="matrix(16,0,0,16,194.7,270.2)" />
<use xlink:href="#f2_2f" transform="matrix(16,0,0,16,199.1,270.2)" />
<use xlink:href="#f2_1i" transform="matrix(16,0,0,16,199.4,270.2)" />
<use xlink:href="#f2_1y" transform="matrix(16,0,0,16,219.1,270.2)" />
<use xlink:href="#f2_2f" transform="matrix(16,0,0,16,230.6,270.2)" />
<use xlink:href="#f2_1a" transform="matrix(16,0,0,16,230.8,270.2)" />
<use xlink:href="#f2_1j" transform="matrix(16,0,0,16,240.6,270.2)" />
<use xlink:href="#f2_1z" transform="matrix(16,0,0,16,247.3,270.2)" />
<use xlink:href="#f2_29" transform="matrix(16,0,0,16,258.5,270.2)" />
<use xlink:href="#f2_m" transform="matrix(16,0,0,16,262.9,270.2)" />
<use xlink:href="#f2_1z" transform="matrix(16,0,0,16,273.7,270.2)" />
<use xlink:href="#f2_29" transform="matrix(16,0,0,16,284.9,270.2)" />
<use xlink:href="#f2_1b" transform="matrix(16,0,0,16,298.8,270.2)" />
<use xlink:href="#f2_2b" transform="matrix(16,0,0,16,313.6,270.2)" />
<use xlink:href="#f2_2a" transform="matrix(16,0,0,16,318.8,270.2)" />
<use xlink:href="#f2_1h" transform="matrix(16,0,0,16,324.1,270.2)" />
<use xlink:href="#f2_19" transform="matrix(16,0,0,16,337.3,270.2)" />
<use xlink:href="#f2_2a" transform="matrix(16,0,0,16,357.4,270.2)" />
<use xlink:href="#f2_1b" transform="matrix(16,0,0,16,362.6,270.2)" />
<use xlink:href="#f2_2a" transform="matrix(16,0,0,16,386.8,270.2)" />
<use xlink:href="#f2_20" transform="matrix(16,0,0,16,392.1,270.2)" />
<use xlink:href="#f2_1e" transform="matrix(16,0,0,16,402.2,270.2)" />
<use xlink:href="#f2_2k" transform="matrix(16,0,0,16,413,270.2)" />
<use xlink:href="#f2_1q" transform="matrix(16,0,0,16,413.3,270.2)" />
<use xlink:href="#f2_24" transform="matrix(16,0,0,16,432.9,270.2)" />
<use xlink:href="#f2_29" transform="matrix(16,0,0,16,444.3,270.2)" />
<use xlink:href="#f2_2f" transform="matrix(16,0,0,16,448.7,270.2)" />
<use xlink:href="#f2_1p" transform="matrix(16,0,0,16,448.9,270.2)" />
<use xlink:href="#f2_1k" transform="matrix(16,0,0,16,458.5,270.2)" />
<use xlink:href="#f2_1q" transform="matrix(16,0,0,16,468.3,270.2)" />
<use xlink:href="#f2_29" transform="matrix(16,0,0,16,478.4,270.2)" />
<use xlink:href="#f1_8" transform="matrix(12,0,0,12,482.7,270.2)" />
<use xlink:href="#f2_1t" transform="matrix(16,0,0,16,487.8,270.2)" />
<use xlink:href="#f2_29" transform="matrix(16,0,0,16,500,270.2)" />
<use xlink:href="#f2_21" transform="matrix(16,0,0,16,504.5,270.2)" />
<use xlink:href="#f2_29" transform="matrix(16,0,0,16,512.1,270.2)" />
<use xlink:href="#f2_2a" transform="matrix(16,0,0,16,525.9,270.2)" />
<use xlink:href="#f2_1b" transform="matrix(16,0,0,16,531.2,270.2)" />
<use xlink:href="#f2_27" transform="matrix(16,0,0,16,546,270.2)" />
<use xlink:href="#f2_1i" transform="matrix(16,0,0,16,568.2,270.2)" />
<use xlink:href="#f2_2l" transform="matrix(16,0,0,16,578.5,270.2)" />
<use xlink:href="#f2_1b" transform="matrix(16,0,0,16,578.7,270.2)" />
<use xlink:href="#f2_29" transform="matrix(16,0,0,16,593.5,270.2)" />
<use xlink:href="#f2_21" transform="matrix(16,0,0,16,597.9,270.2)" />
<use xlink:href="#f2_19" transform="matrix(16,0,0,16,615,270.2)" />
<use xlink:href="#f2_1b" transform="matrix(16,0,0,16,625.6,270.2)" />
<use xlink:href="#f2_2a" transform="matrix(16,0,0,16,649.9,270.2)" />
<use xlink:href="#f2_1s" transform="matrix(16,0,0,16,655.1,270.2)" />
<use xlink:href="#f2_2a" transform="matrix(16,0,0,16,665.1,270.2)" />
<use xlink:href="#f2_25" transform="matrix(16,0,0,16,670.3,270.2)" />
<use xlink:href="#f2_29" transform="matrix(16,0,0,16,678.7,270.2)" />
<use xlink:href="#f2_1b" transform="matrix(16,0,0,16,683.2,270.2)" />
<use xlink:href="#f2_28" transform="matrix(16,0,0,16,707.4,270.2)" />
<use xlink:href="#f2_29" transform="matrix(16,0,0,16,717,270.2)" />
<use xlink:href="#f2_2f" transform="matrix(16,0,0,16,721.4,270.2)" />
<use xlink:href="#f2_1q" transform="matrix(16,0,0,16,721.7,270.2)" />
<use xlink:href="#f2_2b" transform="matrix(16,0,0,16,731.8,270.2)" />
<use xlink:href="#f2_28" transform="matrix(16,0,0,16,746.5,270.2)" />
<use xlink:href="#f2_2g" transform="matrix(16,0,0,16,756.2,270.2)" />
<use xlink:href="#f2_1u" transform="matrix(16,0,0,16,756.4,270.2)" />
<use xlink:href="#f1_3" transform="matrix(12,0,0,12,129.7,332.4)" />
<use xlink:href="#f1_1h" transform="matrix(12,0,0,12,135.4,332.4)" />
<use xlink:href="#f1_4" transform="matrix(12,0,0,12,140.7,332.4)" />
<use xlink:href="#f1_y" transform="matrix(12,0,0,12,173,332.4)" />
<use xlink:href="#f1_19" transform="matrix(12,0,0,12,187.9,332.4)" />
<use xlink:href="#f1_1l" transform="matrix(12,0,0,12,198.2,332.4)" />
<use xlink:href="#f1_1d" transform="matrix(12,0,0,12,214.5,332.4)" />
<use xlink:href="#f1_1s" transform="matrix(12,0,0,12,229.6,332.4)" />
<use xlink:href="#f1_1v" transform="matrix(12,0,0,12,236.7,332.4)" />
<use xlink:href="#f1_1n" transform="matrix(12,0,0,12,251,332.4)" />
<use xlink:href="#f1_1h" transform="matrix(12,0,0,12,266.1,332.4)" />
<use xlink:href="#f1_1l" transform="matrix(12,0,0,12,271.8,332.4)" />
<use xlink:href="#f1_1o" transform="matrix(12,0,0,12,288.2,332.4)" />
<use xlink:href="#f1_1n" transform="matrix(12,0,0,12,298.7,332.4)" />
<use xlink:href="#f1_1q" transform="matrix(12,0,0,12,307.9,332.4)" />
<use xlink:href="#f1_1s" transform="matrix(12,0,0,12,316,332.4)" />
<use xlink:href="#f1_19" transform="matrix(12,0,0,12,323.2,332.4)" />
<use xlink:href="#f1_1m" transform="matrix(12,0,0,12,333.4,332.4)" />
<use xlink:href="#f1_1s" transform="matrix(12,0,0,12,344.6,332.4)" />
<use xlink:href="#f1_1o" transform="matrix(12,0,0,12,357.6,332.4)" />
<use xlink:href="#f1_1q" transform="matrix(12,0,0,12,368.2,332.4)" />
<use xlink:href="#f1_1n" transform="matrix(12,0,0,12,376.3,332.4)" />
<use xlink:href="#f1_1b" transform="matrix(12,0,0,12,385.5,332.4)" />
<use xlink:href="#f1_1d" transform="matrix(12,0,0,12,393.6,332.4)" />
<use xlink:href="#f1_1r" transform="matrix(12,0,0,12,402.8,332.4)" />
<use xlink:href="#f1_1r" transform="matrix(12,0,0,12,411.3,332.4)" />
<use xlink:href="#f1_1d" transform="matrix(12,0,0,12,419.7,332.4)" />
<use xlink:href="#f1_1r" transform="matrix(12,0,0,12,428.9,332.4)" />
<use xlink:href="#f1_1s" transform="matrix(12,0,0,12,443.2,332.4)" />
<use xlink:href="#f1_1g" transform="matrix(12,0,0,12,450.4,332.4)" />
<use xlink:href="#f1_19" transform="matrix(12,0,0,12,461.6,332.4)" />
<use xlink:href="#f1_1s" transform="matrix(12,0,0,12,471.8,332.4)" />
<use xlink:href="#f1_1n" transform="matrix(12,0,0,12,484.8,332.4)" />
<use xlink:href="#f1_1b" transform="matrix(12,0,0,12,494,332.4)" />
<use xlink:href="#f1_1b" transform="matrix(12,0,0,12,502.1,332.4)" />
<use xlink:href="#f1_1t" transform="matrix(12,0,0,12,510.2,332.4)" />
<use xlink:href="#f1_1q" transform="matrix(12,0,0,12,521.4,332.4)" />
<use xlink:href="#f1_1c" transform="matrix(12,0,0,12,535.4,332.4)" />
<use xlink:href="#f1_1t" transform="matrix(12,0,0,12,545.9,332.4)" />
<use xlink:href="#f1_1q" transform="matrix(12,0,0,12,557.1,332.4)" />
<use xlink:href="#f1_1h" transform="matrix(12,0,0,12,565.2,332.4)" />
<use xlink:href="#f1_1m" transform="matrix(12,0,0,12,571,332.4)" />
<use xlink:href="#f1_1f" transform="matrix(12,0,0,12,582.2,332.4)" />
<use xlink:href="#f1_1s" transform="matrix(12,0,0,12,597.9,332.4)" />
<use xlink:href="#f1_1g" transform="matrix(12,0,0,12,605.1,332.4)" />
<use xlink:href="#f1_1d" transform="matrix(12,0,0,12,616.2,332.4)" />
<use xlink:href="#f1_1e" transform="matrix(12,0,0,12,631.2,332.4)" />
<use xlink:href="#f1_1n" transform="matrix(12,0,0,12,637.4,332.4)" />
<use xlink:href="#f1_1q" transform="matrix(12,0,0,12,646.5,332.4)" />
<use xlink:href="#f1_1l" transform="matrix(12,0,0,12,654.7,332.4)" />
<use xlink:href="#f1_19" transform="matrix(12,0,0,12,671,332.4)" />
<use xlink:href="#f1_1s" transform="matrix(12,0,0,12,681.2,332.4)" />
<use xlink:href="#f1_1h" transform="matrix(12,0,0,12,688.4,332.4)" />
<use xlink:href="#f1_1n" transform="matrix(12,0,0,12,694.2,332.4)" />
<use xlink:href="#f1_1m" transform="matrix(12,0,0,12,703.4,332.4)" />
<use xlink:href="#f1_1n" transform="matrix(12,0,0,12,720.4,332.4)" />
<use xlink:href="#f1_1e" transform="matrix(12,0,0,12,729.6,332.4)" />
<use xlink:href="#f1_19" transform="matrix(12,0,0,12,741.5,332.4)" />
<use xlink:href="#f1_1o" transform="matrix(12,0,0,12,757.6,332.4)" />
<use xlink:href="#f1_1m" transform="matrix(12,0,0,12,768.2,332.4)" />
<use xlink:href="#f1_1i" transform="matrix(12,0,0,12,173,358.1)" />
<use xlink:href="#f1_1t" transform="matrix(12,0,0,12,178.5,358.1)" />
<use xlink:href="#f1_1m" transform="matrix(12,0,0,12,189.6,358.1)" />
<use xlink:href="#f1_1b" transform="matrix(12,0,0,12,200.8,358.1)" />
<use xlink:href="#f1_1s" transform="matrix(12,0,0,12,209,358.1)" />
<use xlink:href="#f1_1h" transform="matrix(12,0,0,12,216.2,358.1)" />
<use xlink:href="#f1_1n" transform="matrix(12,0,0,12,222,358.1)" />
<use xlink:href="#f1_1m" transform="matrix(12,0,0,12,231.2,358.1)" />
<use xlink:href="#f1_7" transform="matrix(12,0,0,12,242.3,358.1)" />
<use xlink:href="#f1_3" transform="matrix(12,0,0,12,129.7,417.6)" />
<use xlink:href="#f1_1h" transform="matrix(12,0,0,12,135.5,417.6)" />
<use xlink:href="#f1_1h" transform="matrix(12,0,0,12,141,417.6)" />
<use xlink:href="#f1_4" transform="matrix(12,0,0,12,146.5,417.6)" />
<use xlink:href="#f1_o" transform="matrix(12,0,0,12,173,417.6)" />
<use xlink:href="#f1_1q" transform="matrix(12,0,0,12,187.1,417.6)" />
<use xlink:href="#f1_19" transform="matrix(12,0,0,12,195,417.6)" />
<use xlink:href="#f1_1v" transform="matrix(12,0,0,12,205,417.6)" />
<use xlink:href="#f1_1s" transform="matrix(12,0,0,12,224,417.6)" />
<use xlink:href="#f1_1g" transform="matrix(12,0,0,12,230.9,417.6)" />
<use xlink:href="#f1_1d" transform="matrix(12,0,0,12,241.9,417.6)" />
<use xlink:href="#f1_1b" transform="matrix(12,0,0,12,255.7,417.6)" />
<use xlink:href="#f1_1h" transform="matrix(12,0,0,12,263.7,417.6)" />
<use xlink:href="#f1_1q" transform="matrix(12,0,0,12,269.2,417.6)" />
<use xlink:href="#f1_1b" transform="matrix(12,0,0,12,277.1,417.6)" />
<use xlink:href="#f1_1t" transform="matrix(12,0,0,12,285.1,417.6)" />
<use xlink:href="#f1_1h" transform="matrix(12,0,0,12,296,417.6)" />
<use xlink:href="#f1_1s" transform="matrix(12,0,0,12,301.6,417.6)" />
<use xlink:href="#f1_1c" transform="matrix(12,0,0,12,313.4,417.6)" />
<use xlink:href="#f1_1h" transform="matrix(12,0,0,12,323.8,417.6)" />
<use xlink:href="#f1_19" transform="matrix(12,0,0,12,329.3,417.6)" />
<use xlink:href="#f1_1f" transform="matrix(12,0,0,12,339.4,417.6)" />
<use xlink:href="#f1_1q" transform="matrix(12,0,0,12,349,417.6)" />
<use xlink:href="#f1_19" transform="matrix(12,0,0,12,356.9,417.6)" />
<use xlink:href="#f1_1l" transform="matrix(12,0,0,12,366.9,417.6)" />
<use xlink:href="#f1_1n" transform="matrix(12,0,0,12,388,417.6)" />
<use xlink:href="#f1_1e" transform="matrix(12,0,0,12,396.9,417.6)" />
<use xlink:href="#f1_19" transform="matrix(12,0,0,12,407.8,417.6)" />
<use xlink:href="#f1_1e" transform="matrix(12,0,0,12,422.7,417.6)" />
<use xlink:href="#f1_1t" transform="matrix(12,0,0,12,428.6,417.6)" />
<use xlink:href="#f1_1k" transform="matrix(12,0,0,12,439.5,417.6)" />
<use xlink:href="#f1_1k" transform="matrix(12,0,0,12,445.1,417.6)" />
<use xlink:href="#f1_1v" transform="matrix(12,0,0,12,455.6,417.6)" />
<use xlink:href="#f1_19" transform="matrix(12,0,0,12,469.6,417.6)" />
<use xlink:href="#f1_1u" transform="matrix(12,0,0,12,479.6,417.6)" />
<use xlink:href="#f1_1d" transform="matrix(12,0,0,12,489.3,417.6)" />
<use xlink:href="#f1_1q" transform="matrix(12,0,0,12,503.2,417.6)" />
<use xlink:href="#f1_1d" transform="matrix(12,0,0,12,511.1,417.6)" />
<use xlink:href="#f1_1b" transform="matrix(12,0,0,12,520,417.6)" />
<use xlink:href="#f1_1s" transform="matrix(12,0,0,12,528,417.6)" />
<use xlink:href="#f1_1h" transform="matrix(12,0,0,12,534.9,417.6)" />
<use xlink:href="#f1_1e" transform="matrix(12,0,0,12,540.5,417.6)" />
<use xlink:href="#f1_1h" transform="matrix(12,0,0,12,546.4,417.6)" />
<use xlink:href="#f1_1d" transform="matrix(12,0,0,12,552,417.6)" />
<use xlink:href="#f1_1q" transform="matrix(12,0,0,12,561,417.6)" />
<use xlink:href="#f1_19" transform="matrix(12,0,0,12,573.8,417.6)" />
<use xlink:href="#f1_1k" transform="matrix(12,0,0,12,583.8,417.6)" />
<use xlink:href="#f1_1n" transform="matrix(12,0,0,12,589.3,417.6)" />
<use xlink:href="#f1_1m" transform="matrix(12,0,0,12,598.3,417.6)" />
<use xlink:href="#f1_1f" transform="matrix(12,0,0,12,609.3,417.6)" />
<use xlink:href="#f1_1v" transform="matrix(12,0,0,12,623.8,417.6)" />
<use xlink:href="#f1_1h" transform="matrix(12,0,0,12,637.9,417.6)" />
<use xlink:href="#f1_1s" transform="matrix(12,0,0,12,643.5,417.6)" />
<use xlink:href="#f1_1g" transform="matrix(12,0,0,12,650.4,417.6)" />
<use xlink:href="#f1_1s" transform="matrix(12,0,0,12,666.3,417.6)" />
<use xlink:href="#f1_1g" transform="matrix(12,0,0,12,673.2,417.6)" />
<use xlink:href="#f1_1d" transform="matrix(12,0,0,12,684.2,417.6)" />
<use xlink:href="#f1_1h" transform="matrix(12,0,0,12,698,417.6)" />
<use xlink:href="#f1_1m" transform="matrix(12,0,0,12,703.6,417.6)" />
<use xlink:href="#f1_1o" transform="matrix(12,0,0,12,714.5,417.6)" />
<use xlink:href="#f1_1t" transform="matrix(12,0,0,12,724.9,417.6)" />
<use xlink:href="#f1_1s" transform="matrix(12,0,0,12,735.8,417.6)" />
<use xlink:href="#f1_19" transform="matrix(12,0,0,12,747.7,417.6)" />
<use xlink:href="#f1_1m" transform="matrix(12,0,0,12,757.7,417.6)" />
<use xlink:href="#f1_1c" transform="matrix(12,0,0,12,768.6,417.6)" />
<use xlink:href="#f1_1n" transform="matrix(12,0,0,12,173,443.2)" />
<use xlink:href="#f1_1t" transform="matrix(12,0,0,12,182.2,443.2)" />
<use xlink:href="#f1_1s" transform="matrix(12,0,0,12,193.4,443.2)" />
<use xlink:href="#f1_1o" transform="matrix(12,0,0,12,200.6,443.2)" />
<use xlink:href="#f1_1t" transform="matrix(12,0,0,12,211.1,443.2)" />
<use xlink:href="#f1_1s" transform="matrix(12,0,0,12,222.3,443.2)" />
<use xlink:href="#f1_1v" transform="matrix(12,0,0,12,237.2,443.2)" />
<use xlink:href="#f1_19" transform="matrix(12,0,0,12,251.5,443.2)" />
<use xlink:href="#f1_1u" transform="matrix(12,0,0,12,261.7,443.2)" />
<use xlink:href="#f1_1d" transform="matrix(12,0,0,12,271.6,443.2)" />
<use xlink:href="#f1_1e" transform="matrix(12,0,0,12,280.8,443.2)" />
<use xlink:href="#f1_1n" transform="matrix(12,0,0,12,286.9,443.2)" />
<use xlink:href="#f1_1q" transform="matrix(12,0,0,12,296.1,443.2)" />
<use xlink:href="#f1_1l" transform="matrix(12,0,0,12,304.3,443.2)" />
<use xlink:href="#f1_1r" transform="matrix(12,0,0,12,320.6,443.2)" />
<use xlink:href="#f1_7" transform="matrix(12,0,0,12,329.1,443.2)" />
<use xlink:href="#f1_m" transform="matrix(12,0,0,12,349.6,443.2)" />
<use xlink:href="#f1_1q" transform="matrix(12,0,0,12,362.9,443.2)" />
<use xlink:href="#f1_1h" transform="matrix(12,0,0,12,371,443.2)" />
<use xlink:href="#f1_1d" transform="matrix(12,0,0,12,376.8,443.2)" />
<use xlink:href="#f1_1e" transform="matrix(12,0,0,12,386,443.2)" />
<use xlink:href="#f1_1k" transform="matrix(12,0,0,12,392.2,443.2)" />
<use xlink:href="#f1_1x" transform="matrix(12,0,0,12,398,443.2)" />
<use xlink:href="#f1_1d" transform="matrix(12,0,0,12,415.5,443.2)" />
<use xlink:href="#f1_1w" transform="matrix(12,0,0,12,424.7,443.2)" />
<use xlink:href="#f1_1o" transform="matrix(12,0,0,12,434.6,443.2)" />
<use xlink:href="#f1_1k" transform="matrix(12,0,0,12,445.2,443.2)" />
<use xlink:href="#f1_19" transform="matrix(12,0,0,12,451,443.2)" />
<use xlink:href="#f1_1h" transform="matrix(12,0,0,12,461.2,443.2)" />
<use xlink:href="#f1_1m" transform="matrix(12,0,0,12,467,443.2)" />
<use xlink:href="#f1_1g" transform="matrix(12,0,0,12,485.9,443.2)" />
<use xlink:href="#f1_1n" transform="matrix(12,0,0,12,497,443.2)" />
<use xlink:href="#f1_1v" transform="matrix(12,0,0,12,506.2,443.2)" />
<use xlink:href="#f1_1s" transform="matrix(12,0,0,12,528.2,443.2)" />
<use xlink:href="#f1_1g" transform="matrix(12,0,0,12,535.4,443.2)" />
<use xlink:href="#f1_1d" transform="matrix(12,0,0,12,546.6,443.2)" />
<use xlink:href="#f1_1n" transform="matrix(12,0,0,12,563.5,443.2)" />
<use xlink:href="#f1_1t" transform="matrix(12,0,0,12,572.6,443.2)" />
<use xlink:href="#f1_1s" transform="matrix(12,0,0,12,583.8,443.2)" />
<use xlink:href="#f1_1o" transform="matrix(12,0,0,12,591,443.2)" />
<use xlink:href="#f1_1t" transform="matrix(12,0,0,12,601.6,443.2)" />
<use xlink:href="#f1_1s" transform="matrix(12,0,0,12,612.7,443.2)" />
<use xlink:href="#f1_1u" transform="matrix(12,0,0,12,627.6,443.2)" />
<use xlink:href="#f1_1n" transform="matrix(12,0,0,12,637.5,443.2)" />
<use xlink:href="#f1_1k" transform="matrix(12,0,0,12,646.7,443.2)" />
<use xlink:href="#f1_1s" transform="matrix(12,0,0,12,652.5,443.2)" />
<use xlink:href="#f1_19" transform="matrix(12,0,0,12,659.7,443.2)" />
<use xlink:href="#f1_1f" transform="matrix(12,0,0,12,669.9,443.2)" />
<use xlink:href="#f1_1d" transform="matrix(12,0,0,12,679.8,443.2)" />
<use xlink:href="#f1_8" transform="matrix(12,0,0,12,689,443.2)" />
<use xlink:href="#f1_1b" transform="matrix(12,0,0,12,694.1,443.2)" />
<use xlink:href="#f1_1t" transform="matrix(12,0,0,12,702.3,443.2)" />
<use xlink:href="#f1_1q" transform="matrix(12,0,0,12,713.4,443.2)" />
<use xlink:href="#f1_1q" transform="matrix(12,0,0,12,721.6,443.2)" />
<use xlink:href="#f1_1d" transform="matrix(12,0,0,12,729.7,443.2)" />
<use xlink:href="#f1_1m" transform="matrix(12,0,0,12,738.9,443.2)" />
<use xlink:href="#f1_1s" transform="matrix(12,0,0,12,750.1,443.2)" />
<use xlink:href="#f1_1h" transform="matrix(12,0,0,12,765,443.2)" />
<use xlink:href="#f1_1r" transform="matrix(12,0,0,12,770.8,443.2)" />
<use xlink:href="#f1_1t" transform="matrix(12,0,0,12,173,468.8)" />
<use xlink:href="#f1_1m" transform="matrix(12,0,0,12,184.1,468.8)" />
<use xlink:href="#f1_1h" transform="matrix(12,0,0,12,195.2,468.8)" />
<use xlink:href="#f1_1c" transform="matrix(12,0,0,12,201,468.8)" />
<use xlink:href="#f1_1h" transform="matrix(12,0,0,12,211.5,468.8)" />
<use xlink:href="#f1_1q" transform="matrix(12,0,0,12,217.2,468.8)" />
<use xlink:href="#f1_1d" transform="matrix(12,0,0,12,225.3,468.8)" />
<use xlink:href="#f1_1b" transform="matrix(12,0,0,12,234.5,468.8)" />
<use xlink:href="#f1_1s" transform="matrix(12,0,0,12,242.5,468.8)" />
<use xlink:href="#f1_1h" transform="matrix(12,0,0,12,249.7,468.8)" />
<use xlink:href="#f1_1n" transform="matrix(12,0,0,12,255.4,468.8)" />
<use xlink:href="#f1_1m" transform="matrix(12,0,0,12,264.6,468.8)" />
<use xlink:href="#f1_19" transform="matrix(12,0,0,12,275.7,468.8)" />
<use xlink:href="#f1_1k" transform="matrix(12,0,0,12,285.9,468.8)" />
<use xlink:href="#f1_7" transform="matrix(12,0,0,12,291.6,468.8)" />
<use xlink:href="#f0_6" transform="matrix(12,0,0,12,86.4,593.5)" />
<use xlink:href="#f0_e" transform="matrix(12,0,0,12,96.4,593.5)" />
<use xlink:href="#f0_4" transform="matrix(12,0,0,12,106.5,593.5)" />
<use xlink:href="#f1_3" transform="matrix(12,0,0,12,129.7,593.5)" />
<use xlink:href="#f1_1h" transform="matrix(12,0,0,12,135.4,593.5)" />
<use xlink:href="#f1_4" transform="matrix(12,0,0,12,140.7,593.5)" />
<use xlink:href="#f2_18" transform="matrix(16,0,0,16,173,593.5)" />
<use xlink:href="#f2_1h" transform="matrix(16,0,0,16,187.1,593.5)" />
<use xlink:href="#f2_29" transform="matrix(16,0,0,16,200.3,593.5)" />
<use xlink:href="#f2_2k" transform="matrix(16,0,0,16,204.7,593.5)" />
<use xlink:href="#f2_1w" transform="matrix(16,0,0,16,211.5,593.5)" />
<use xlink:href="#f2_2g" transform="matrix(16,0,0,16,223.1,593.5)" />
<use xlink:href="#f2_p" transform="matrix(16,0,0,16,223.4,593.5)" />
<use xlink:href="#f2_1m" transform="matrix(16,0,0,16,231.9,593.5)" />
<use xlink:href="#f2_15" transform="matrix(16,0,0,16,250.7,593.5)" />
<use xlink:href="#f2_29" transform="matrix(16,0,0,16,265.6,593.5)" />
<use xlink:href="#f2_21" transform="matrix(16,0,0,16,270,593.5)" />
<use xlink:href="#f2_2f" transform="matrix(16,0,0,16,276.5,593.5)" />
<use xlink:href="#f2_1d" transform="matrix(16,0,0,16,277.9,593.5)" />
<use xlink:href="#f2_1b" transform="matrix(16,0,0,16,300,593.5)" />
<use xlink:href="#f2_2f" transform="matrix(16,0,0,16,310,593.5)" />
<use xlink:href="#f2_15" transform="matrix(16,0,0,16,321.6,593.5)" />
<use xlink:href="#f2_29" transform="matrix(16,0,0,16,336.5,593.5)" />
<use xlink:href="#f2_1t" transform="matrix(16,0,0,16,340.9,593.5)" />
<use xlink:href="#f2_29" transform="matrix(16,0,0,16,353.2,593.5)" />
<use xlink:href="#f2_21" transform="matrix(16,0,0,16,357.6,593.5)" />
<use xlink:href="#f2_1i" transform="matrix(16,0,0,16,371.8,593.5)" />
<use xlink:href="#f2_21" transform="matrix(16,0,0,16,382.1,593.5)" />
<use xlink:href="#f2_2a" transform="matrix(16,0,0,16,396.3,593.5)" />
<use xlink:href="#f2_1b" transform="matrix(16,0,0,16,401.6,593.5)" />
<use xlink:href="#f2_27" transform="matrix(16,0,0,16,416.4,593.5)" />
<use xlink:href="#f2_2b" transform="matrix(16,0,0,16,429.1,593.5)" />
<use xlink:href="#f2_1f" transform="matrix(16,0,0,16,440.9,593.5)" />
<use xlink:href="#f2_29" transform="matrix(16,0,0,16,454.1,593.5)" />
<use xlink:href="#f2_23" transform="matrix(16,0,0,16,458.5,593.5)" />
<use xlink:href="#f2_1b" transform="matrix(16,0,0,16,472.4,593.5)" />
<use xlink:href="#f2_15" transform="matrix(16,0,0,16,493.8,593.5)" />
<use xlink:href="#f2_29" transform="matrix(16,0,0,16,508.6,593.5)" />
<use xlink:href="#f2_2g" transform="matrix(16,0,0,16,513.1,593.5)" />
<use xlink:href="#f2_21" transform="matrix(16,0,0,16,513.3,593.5)" />
<use xlink:href="#f2_15" transform="matrix(16,0,0,16,527.5,593.5)" />
<use xlink:href="#f2_1t" transform="matrix(16,0,0,16,542.4,593.5)" />
<use xlink:href="#f2_2k" transform="matrix(16,0,0,16,554.6,593.5)" />
<use xlink:href="#f2_1f" transform="matrix(16,0,0,16,554.9,593.5)" />
<use xlink:href="#f2_29" transform="matrix(16,0,0,16,568.1,593.5)" />
<use xlink:href="#f2_23" transform="matrix(16,0,0,16,572.5,593.5)" />
<use xlink:href="#f2_1b" transform="matrix(16,0,0,16,586.3,593.5)" />
<use xlink:href="#f2_1b" transform="matrix(16,0,0,16,607.7,593.5)" />
<use xlink:href="#f2_2f" transform="matrix(16,0,0,16,617.7,593.5)" />
<use xlink:href="#f2_1w" transform="matrix(16,0,0,16,629.4,593.5)" />
<use xlink:href="#f2_2b" transform="matrix(16,0,0,16,641,593.5)" />
<use xlink:href="#f2_1f" transform="matrix(16,0,0,16,646.2,593.5)" />
<use xlink:href="#f2_2a" transform="matrix(16,0,0,16,666,593.5)" />
<use xlink:href="#f2_24" transform="matrix(16,0,0,16,671.3,593.5)" />
<use xlink:href="#f2_1x" transform="matrix(16,0,0,16,682.7,593.5)" />
<use xlink:href="#f2_2f" transform="matrix(16,0,0,16,695.3,593.5)" />
<use xlink:href="#f2_1s" transform="matrix(16,0,0,16,695.5,593.5)" />
<use xlink:href="#f2_20" transform="matrix(16,0,0,16,705.5,593.5)" />
<use xlink:href="#f2_1b" transform="matrix(16,0,0,16,722.2,593.5)" />
<use xlink:href="#f2_2b" transform="matrix(16,0,0,16,737,593.5)" />
<use xlink:href="#f2_2a" transform="matrix(16,0,0,16,742.3,593.5)" />
<use xlink:href="#f2_1h" transform="matrix(16,0,0,16,747.6,593.5)" />
<use xlink:href="#f2_19" transform="matrix(16,0,0,16,760.7,593.5)" />
<use xlink:href="#f2_1u" transform="matrix(16,0,0,16,771.4,593.5)" />
<use xlink:href="#f1_3" transform="matrix(12,0,0,12,129.7,661.5)" />
<use xlink:href="#f1_1h" transform="matrix(12,0,0,12,135.5,661.5)" />
<use xlink:href="#f1_1h" transform="matrix(12,0,0,12,141,661.5)" />
<use xlink:href="#f1_4" transform="matrix(12,0,0,12,146.5,661.5)" />
<use xlink:href="#f2_20" transform="matrix(16,0,0,16,173,661.5)" />
<use xlink:href="#f2_2b" transform="matrix(16,0,0,16,183.1,661.5)" />
<use xlink:href="#f2_1f" transform="matrix(16,0,0,16,188.4,661.5)" />
<use xlink:href="#f2_2f" transform="matrix(16,0,0,16,201.5,661.5)" />
<use xlink:href="#f2_2a" transform="matrix(16,0,0,16,209.1,661.5)" />
<use xlink:href="#f2_1s" transform="matrix(16,0,0,16,214.3,661.5)" />
<use xlink:href="#f2_19" transform="matrix(16,0,0,16,224.3,661.5)" />
<use xlink:href="#f2_1e" transform="matrix(16,0,0,16,242.2,661.5)" />
<use xlink:href="#f2_19" transform="matrix(16,0,0,16,253,661.5)" />
<use xlink:href="#f2_15" transform="matrix(16,0,0,16,271,661.5)" />
<use xlink:href="#f2_29" transform="matrix(16,0,0,16,285.8,661.5)" />
<use xlink:href="#f2_21" transform="matrix(16,0,0,16,290.2,661.5)" />
<use xlink:href="#f2_2f" transform="matrix(16,0,0,16,296.7,661.5)" />
<use xlink:href="#f2_1d" transform="matrix(16,0,0,16,298.1,661.5)" />
<use xlink:href="#f2_1y" transform="matrix(16,0,0,16,320.8,661.5)" />
<use xlink:href="#f2_2f" transform="matrix(16,0,0,16,332.3,661.5)" />
<use xlink:href="#f2_1a" transform="matrix(16,0,0,16,332.6,661.5)" />
<use xlink:href="#f2_2a" transform="matrix(16,0,0,16,340.1,661.5)" />
<use xlink:href="#f2_1b" transform="matrix(16,0,0,16,345.4,661.5)" />
<use xlink:href="#f2_27" transform="matrix(16,0,0,16,360.1,661.5)" />
<use xlink:href="#f2_2b" transform="matrix(16,0,0,16,372.9,661.5)" />
<use xlink:href="#f2_1e" transform="matrix(16,0,0,16,385.4,661.5)" />
<use xlink:href="#f2_2f" transform="matrix(16,0,0,16,396.2,661.5)" />
<use xlink:href="#f2_1k" transform="matrix(16,0,0,16,396.5,661.5)" />
<use xlink:href="#f2_1b" transform="matrix(16,0,0,16,413.6,661.5)" />
<use xlink:href="#f2_2f" transform="matrix(16,0,0,16,423.6,661.5)" />
<use xlink:href="#f2_2a" transform="matrix(16,0,0,16,435.9,661.5)" />
<use xlink:href="#f2_20" transform="matrix(16,0,0,16,441.2,661.5)" />
<use xlink:href="#f2_24" transform="matrix(16,0,0,16,451.3,661.5)" />
<use xlink:href="#f2_2f" transform="matrix(16,0,0,16,462.7,661.5)" />
<use xlink:href="#f2_25" transform="matrix(16,0,0,16,463,661.5)" />
<use xlink:href="#f2_29" transform="matrix(16,0,0,16,471.3,661.5)" />
<use xlink:href="#f2_2b" transform="matrix(16,0,0,16,475.7,661.5)" />
<use xlink:href="#f2_1q" transform="matrix(16,0,0,16,488.3,661.5)" />
<use xlink:href="#f2_21" transform="matrix(16,0,0,16,498.4,661.5)" />
<use xlink:href="#f2_1a" transform="matrix(16,0,0,16,504.9,661.5)" />
<use xlink:href="#f2_1e" transform="matrix(16,0,0,16,506.3,661.5)" />
<use xlink:href="#f2_9" transform="matrix(16,0,0,16,524.4,661.5)" />
<use xlink:href="#f2_1i" transform="matrix(16,0,0,16,538.1,661.5)" />
<use xlink:href="#f1_3" transform="matrix(12,0,0,12,553.9,661.5)" />
<use xlink:href="#f1_l" transform="matrix(12,0,0,12,560,661.5)" />
<use xlink:href="#f1_5" transform="matrix(12,0,0,12,573.3,661.5)" />
<use xlink:href="#f1_m" transform="matrix(12,0,0,12,584,661.5)" />
<use xlink:href="#f1_4" transform="matrix(12,0,0,12,597.3,661.5)" />
<use xlink:href="#f2_1q" transform="matrix(16,0,0,16,609.1,661.5)" />
<use xlink:href="#f2_1r" transform="matrix(16,0,0,16,619.2,661.5)" />
<use xlink:href="#f2_29" transform="matrix(16,0,0,16,631.4,661.5)" />
<use xlink:href="#f2_2a" transform="matrix(16,0,0,16,643.1,661.5)" />
<use xlink:href="#f2_20" transform="matrix(16,0,0,16,648.4,661.5)" />
<use xlink:href="#f2_1e" transform="matrix(16,0,0,16,658.5,661.5)" />
<use xlink:href="#f2_2k" transform="matrix(16,0,0,16,669.3,661.5)" />
<use xlink:href="#f2_1q" transform="matrix(16,0,0,16,669.5,661.5)" />
<use xlink:href="#f2_1q" transform="matrix(16,0,0,16,687,661.5)" />
<use xlink:href="#f2_21" transform="matrix(16,0,0,16,697.1,661.5)" />
<use xlink:href="#f2_1a" transform="matrix(16,0,0,16,703.5,661.5)" />
<use xlink:href="#f2_1e" transform="matrix(16,0,0,16,704.9,661.5)" />
<use xlink:href="#f2_9" transform="matrix(16,0,0,16,723,661.5)" />
<use xlink:href="#f2_1i" transform="matrix(16,0,0,16,736.7,661.5)" />
<use xlink:href="#f1_3" transform="matrix(12,0,0,12,754.2,661.5)" />
<use xlink:href="#f1_18" transform="matrix(12,0,0,12,760.3,661.5)" />
<use xlink:href="#f1_4" transform="matrix(12,0,0,12,773.1,661.5)" />
<use xlink:href="#f2_1s" transform="matrix(16,0,0,16,173,695.7)" />
<use xlink:href="#f2_25" transform="matrix(16,0,0,16,183,695.7)" />
<use xlink:href="#f2_29" transform="matrix(16,0,0,16,191.3,695.7)" />
<use xlink:href="#f2_29" transform="matrix(16,0,0,16,195.7,695.7)" />
<use xlink:href="#f2_2k" transform="matrix(16,0,0,16,200.2,695.7)" />
<use xlink:href="#f2_19" transform="matrix(16,0,0,16,200.4,695.7)" />
<use xlink:href="#f2_1e" transform="matrix(16,0,0,16,219.3,695.7)" />
<use xlink:href="#f2_19" transform="matrix(16,0,0,16,230.1,695.7)" />
<use xlink:href="#f2_28" transform="matrix(16,0,0,16,249,695.7)" />
<use xlink:href="#f2_2g" transform="matrix(16,0,0,16,258.6,695.7)" />
<use xlink:href="#f2_1a" transform="matrix(16,0,0,16,258.8,695.7)" />
<use xlink:href="#f2_1u" transform="matrix(16,0,0,16,259.1,695.7)" />
<use xlink:href="#f2_16" transform="matrix(16,0,0,16,283.6,695.7)" />
<use xlink:href="#f2_27" transform="matrix(16,0,0,16,292,695.7)" />
<use xlink:href="#f2_1e" transform="matrix(16,0,0,16,313,695.7)" />
<use xlink:href="#f2_2f" transform="matrix(16,0,0,16,323.8,695.7)" />
<use xlink:href="#f2_1k" transform="matrix(16,0,0,16,324,695.7)" />
<use xlink:href="#f2_1b" transform="matrix(16,0,0,16,342.1,695.7)" />
<use xlink:href="#f2_29" transform="matrix(16,0,0,16,356.9,695.7)" />
<use xlink:href="#f2_2f" transform="matrix(16,0,0,16,361.3,695.7)" />
<use xlink:href="#f2_1i" transform="matrix(16,0,0,16,369.8,695.7)" />
<use xlink:href="#f2_28" transform="matrix(16,0,0,16,380.1,695.7)" />
<use xlink:href="#f2_1f" transform="matrix(16,0,0,16,389.7,695.7)" />
<use xlink:href="#f2_29" transform="matrix(16,0,0,16,402.8,695.7)" />
<use xlink:href="#f2_2a" transform="matrix(16,0,0,16,407.2,695.7)" />
<use xlink:href="#f2_20" transform="matrix(16,0,0,16,412.5,695.7)" />
<use xlink:href="#f2_19" transform="matrix(16,0,0,16,422.6,695.7)" />
<use xlink:href="#f2_6" transform="matrix(16,0,0,16,433.3,695.7)" />
<use xlink:href="#f2_16" transform="matrix(16,0,0,16,446.9,695.7)" />
<use xlink:href="#f2_27" transform="matrix(16,0,0,16,455.4,695.7)" />
<use xlink:href="#f2_1b" transform="matrix(16,0,0,16,468.1,695.7)" />
<use xlink:href="#f2_2b" transform="matrix(16,0,0,16,482.9,695.7)" />
<use xlink:href="#f2_27" transform="matrix(16,0,0,16,496.4,695.7)" />
<use xlink:href="#f2_q" transform="matrix(16,0,0,16,509.1,695.7)" />
<use xlink:href="#f2_1z" transform="matrix(16,0,0,16,515,695.7)" />
<use xlink:href="#f2_1y" transform="matrix(16,0,0,16,526.2,695.7)" />
<use xlink:href="#f2_29" transform="matrix(16,0,0,16,537.7,695.7)" />
<use xlink:href="#f2_20" transform="matrix(16,0,0,16,542.1,695.7)" />
<use xlink:href="#f2_27" transform="matrix(16,0,0,16,560.4,695.7)" />
<use xlink:href="#f2_29" transform="matrix(16,0,0,16,573.2,695.7)" />
<use xlink:href="#f2_21" transform="matrix(16,0,0,16,577.6,695.7)" />
<use xlink:href="#f2_p" transform="matrix(16,0,0,16,585.2,695.7)" />
<use xlink:href="#f2_29" transform="matrix(16,0,0,16,593.6,695.7)" />
<use xlink:href="#f2_2b" transform="matrix(16,0,0,16,598,695.7)" />
<use xlink:href="#f2_2a" transform="matrix(16,0,0,16,611.5,695.7)" />
<use xlink:href="#f2_23" transform="matrix(16,0,0,16,616.8,695.7)" />
<use xlink:href="#f2_2a" transform="matrix(16,0,0,16,630.6,695.7)" />
<use xlink:href="#f2_1d" transform="matrix(16,0,0,16,635.9,695.7)" />
<use xlink:href="#f2_19" transform="matrix(16,0,0,16,651.4,695.7)" />
<use xlink:href="#f2_15" transform="matrix(16,0,0,16,670.2,695.7)" />
<use xlink:href="#f2_29" transform="matrix(16,0,0,16,685.1,695.7)" />
<use xlink:href="#f2_2g" transform="matrix(16,0,0,16,689.5,695.7)" />
<use xlink:href="#f2_21" transform="matrix(16,0,0,16,689.8,695.7)" />
<use xlink:href="#f2_1q" transform="matrix(16,0,0,16,705.6,695.7)" />
<use xlink:href="#f2_1b" transform="matrix(16,0,0,16,715.7,695.7)" />
<use xlink:href="#f2_2k" transform="matrix(16,0,0,16,725.6,695.7)" />
<use xlink:href="#f2_1i" transform="matrix(16,0,0,16,739,695.7)" />
<use xlink:href="#f2_2l" transform="matrix(16,0,0,16,749.2,695.7)" />
<use xlink:href="#f2_1q" transform="matrix(16,0,0,16,749.5,695.7)" />
<use xlink:href="#f2_2b" transform="matrix(16,0,0,16,759.6,695.7)" />
<use xlink:href="#f2_1b" transform="matrix(16,0,0,16,764.9,695.7)" />
<use xlink:href="#f2_1d" transform="matrix(16,0,0,16,173,729.9)" />
<use xlink:href="#f2_2b" transform="matrix(16,0,0,16,188.3,729.9)" />
<use xlink:href="#f2_1a" transform="matrix(16,0,0,16,193.5,729.9)" />
<use xlink:href="#f2_2a" transform="matrix(16,0,0,16,193.6,729.9)" />
<use xlink:href="#f2_1f" transform="matrix(16,0,0,16,198.7,729.9)" />
<use xlink:href="#f2_19" transform="matrix(16,0,0,16,211.7,729.9)" />
<use xlink:href="#f2_1u" transform="matrix(16,0,0,16,222.2,729.9)" />
</g>
<image preserveAspectRatio="none" x="173" y="782" width="401" height="293" xlink:href="img/1.png" />
<g fill="#000000" >
<use xlink:href="#f0_8" transform="matrix(12,0,0,12,812.3,162.2)" />
<use xlink:href="#f0_8" transform="matrix(12,0,0,12,812.3,590.4)" />
</g>
<defs>
<path d="M872,1021c2,0,3,0,5,0c1,0,3,0,4,0c84,0,154,42,213,128c59,85,89,217,89,394c0,177,-34,307,-101,390c-49,61,-110,91,-181,93c-84,-2,-151,-43,-203,-122c-52,-80,-78,-219,-78,-414c0,-173,25,-294,71,-364c44,-70,105,-105,181,-105ZM775,-59C623,-59,500,-19,400,60C301,139,252,231,252,330c0,75,23,138,69,188c47,47,105,72,174,73c60,-1,112,-23,153,-64c41,-43,61,-93,61,-154c0,-35,-15,-78,-46,-130C645,211,636,186,636,170c0,-23,9,-42,27,-54C689,98,719,88,757,88c3,0,5,1,8,1c2,0,4,0,6,0c66,0,130,29,193,84c66,55,118,151,157,285c39,135,60,320,62,553l-25,-19C1025,871,888,813,743,813C607,813,487,856,382,943C246,1056,177,1215,177,1421c0,148,31,279,92,396c61,114,145,203,254,264c110,61,236,92,380,92c223,0,399,-80,524,-236c153,-192,229,-447,229,-767c0,-380,-93,-687,-278,-919C1215,43,1013,-59,775,-59Z" 
id="f0_e"
transform="scale(4.8828125E-4,-4.8828125E-4)" />

<path d="M798,-59C611,-59,460,-10,347,87C235,183,177,303,177,440c0,92,25,163,75,218c49,54,110,80,185,81c67,-1,121,-22,163,-65c45,-41,65,-93,65,-155c0,-44,-10,-84,-29,-114C616,371,578,341,521,310C480,286,458,263,458,241c0,-35,22,-67,66,-93C586,108,659,89,742,89c3,0,7,0,10,0c1,0,3,0,5,0c106,0,191,47,254,137c66,92,98,249,98,474c0,188,-30,325,-93,411c-61,87,-141,130,-237,131c-44,-1,-91,-11,-143,-27c-52,-17,-107,-43,-167,-77c0,-81,-11,-134,-31,-163C420,947,394,932,359,932c-1,0,-3,0,-5,0c-2,0,-5,0,-7,0c-29,0,-51,7,-67,23c-19,17,-28,38,-28,64c0,38,29,98,89,177l73,977c217,-48,411,-74,584,-74c5,0,10,0,15,0c7,0,13,0,20,0c127,0,233,14,318,41c35,11,56,17,62,19c14,-2,22,-12,22,-31c0,-69,-26,-140,-78,-215c-52,-77,-119,-133,-204,-171c-79,-37,-179,-57,-301,-57c-4,0,-9,0,-13,0c-6,0,-12,0,-19,0c-91,0,-194,11,-307,31L481,1303c77,34,147,58,214,75c66,17,128,26,187,26c192,0,359,-66,495,-194c137,-130,204,-302,204,-516c0,-223,-70,-405,-215,-544C1222,9,1033,-59,798,-59Z" 
id="f0_a"
transform="scale(4.8828125E-4,-4.8828125E-4)" />

<path d="M8,0L681,2261H880L205,0Z" 
id="f1_8"
transform="scale(4.8828125E-4,-4.8828125E-4)" />

<path d="M354,0V148H581c3,0,6,0,9,0c52,0,91,12,113,35c24,25,36,66,36,124V1688c0,31,-9,57,-30,74c-20,16,-49,26,-90,27H296v148c161,9,295,28,404,58c110,29,221,74,334,133h119V261c0,-36,10,-65,31,-85c18,-19,45,-28,77,-28c2,0,5,0,7,0h284V0Z" 
id="f0_6"
transform="scale(4.8828125E-4,-4.8828125E-4)" />

<path d="M104,0V148h63c1,0,3,0,5,0c88,0,162,34,224,103c61,68,91,158,91,268V1943c-71,113,-165,170,-278,171H104v147H816L2055,713V1762c0,102,-29,184,-89,247c-59,61,-142,96,-252,105v147h828V2114c-120,-13,-208,-48,-259,-103c-54,-58,-80,-141,-80,-251V0H2043L636,1758V545c0,-139,32,-239,94,-304c63,-61,140,-93,231,-93c2,0,4,0,6,0h38V0Z" 
id="f0_l"
transform="scale(4.8828125E-4,-4.8828125E-4)" />

<path d="M1291,1153c92,0,174,20,246,62c75,39,128,90,160,149c32,58,48,155,48,286c0,180,-49,307,-147,383c-70,52,-192,80,-365,81c-98,-1,-160,-9,-188,-26c-26,-16,-40,-45,-40,-85V1153h275c4,0,7,0,11,0ZM193,0V148H394c3,0,6,0,9,0c41,0,74,11,95,32c23,22,34,54,34,95V1989c0,37,-11,67,-35,90c-23,23,-52,34,-86,35H193v147H1506c223,0,402,-61,538,-182c136,-120,203,-267,203,-441c0,-135,-39,-251,-117,-349c-78,-100,-184,-172,-317,-218c-127,-43,-254,-66,-380,-66c-4,0,-8,0,-12,0H1005V275c0,-41,13,-73,35,-95c23,-21,50,-32,84,-32c2,0,4,0,7,0h259V0Z" 
id="f0_n"
transform="scale(4.8828125E-4,-4.8828125E-4)" />

<path d="M420,-59c-70,0,-131,26,-182,74C188,66,162,127,162,200c0,70,26,130,76,182c51,49,112,75,182,76c72,-1,133,-27,185,-76c50,-52,75,-112,75,-182C680,127,655,66,605,15C553,-33,492,-59,420,-59Z" 
id="f0_4"
transform="scale(4.8828125E-4,-4.8828125E-4)" />

<path d="M532,0V148H781c2,0,4,0,7,0c33,0,61,11,81,31c23,20,32,47,32,82V1995c0,40,-9,69,-32,89c-21,18,-55,29,-101,30C513,2113,342,1876,252,1404H118l44,857H2114l45,-857H2026c-34,182,-75,324,-127,426c-50,101,-110,174,-176,219c-65,43,-137,64,-217,65c-45,-1,-79,-10,-100,-29c-20,-19,-31,-45,-31,-81V261c0,-33,11,-61,32,-82c20,-20,43,-31,71,-31c2,0,4,0,5,0h262V0Z" 
id="f0_q"
transform="scale(4.8828125E-4,-4.8828125E-4)" />

<path d="M1296,89c3,0,6,0,9,0c1,0,3,0,5,0c185,0,333,79,444,235c113,157,168,432,168,825c0,272,-24,477,-72,614c-49,138,-121,240,-215,309c-95,65,-207,101,-332,101c-124,0,-232,-36,-324,-101C888,2003,814,1894,761,1745C707,1593,680,1389,680,1128c0,-275,24,-485,75,-624C805,361,877,257,972,189C1066,122,1173,89,1296,89Zm-2,-148C1077,-59,880,-7,707,95C535,199,397,338,298,515C197,691,148,894,148,1128c0,345,110,629,329,855c220,225,492,336,814,338c214,-2,411,-52,591,-156c181,-104,321,-246,422,-425c101,-179,150,-380,150,-605C2454,793,2344,509,2122,281C1899,53,1624,-59,1294,-59Z" 
id="f0_m"
transform="scale(4.8828125E-4,-4.8828125E-4)" />

<path d="M970,89c130,0,232,36,312,108c82,72,122,164,122,278c0,110,-40,197,-122,261c-81,65,-234,141,-459,231C729,924,658,869,614,801C570,730,547,639,547,526C547,387,585,280,660,203C735,127,833,89,955,89c3,0,5,0,8,0c2,0,5,0,7,0Zm115,1222c85,59,142,114,171,168c30,52,46,118,46,195c0,104,-34,188,-101,253c-66,65,-154,97,-266,99c-102,-2,-186,-31,-249,-87c-63,-57,-95,-129,-95,-214c0,-83,32,-151,93,-209c62,-58,196,-126,401,-205ZM927,-59C703,-59,526,-7,399,96C270,202,206,336,206,501c0,119,35,222,106,306c70,82,197,157,379,221c-156,69,-263,147,-323,232c-58,84,-87,185,-87,306c0,165,64,307,190,428c126,117,285,179,476,179c190,0,344,-46,460,-135c116,-90,174,-194,174,-312c0,-88,-26,-169,-81,-243c-55,-73,-154,-145,-296,-216c186,-81,315,-170,380,-263c68,-96,101,-214,101,-356c0,-211,-67,-381,-205,-512C1346,6,1161,-59,927,-59Z" 
id="f0_d"
transform="scale(4.8828125E-4,-4.8828125E-4)" />

<path d="M993,-606C830,-460,706,-338,622,-236C486,-72,382,99,312,280C241,461,206,651,206,848c0,194,34,377,100,553c65,174,163,342,290,501c88,109,221,243,397,403l41,-84C886,2067,776,1930,704,1806C634,1681,581,1540,544,1383C506,1225,487,1043,487,839c0,-200,20,-378,58,-532C585,151,642,8,715,-118c73,-130,179,-266,319,-408l-41,-80Z" 
id="f1_3"
transform="scale(4.8828125E-4,-4.8828125E-4)" />

<path d="M89,0V118H248c47,0,80,9,103,32c22,20,34,52,34,93v875c0,54,-17,97,-49,124c-33,28,-81,43,-145,44H73v118l578,31V218c0,-33,9,-58,26,-70c26,-21,56,-30,95,-30H946V0ZM474,1922c-43,0,-81,17,-113,47c-33,31,-51,71,-51,115c0,41,18,79,52,113c34,32,73,49,118,50c46,-1,85,-18,119,-50c35,-34,52,-72,52,-116c0,-44,-17,-81,-51,-112c-32,-30,-70,-47,-114,-47c-2,0,-4,0,-6,0c-2,0,-4,0,-6,0Z" 
id="f1_1h"
transform="scale(4.8828125E-4,-4.8828125E-4)" />

<path d="M70,-606l-41,80c141,142,246,278,321,406C423,8,480,151,518,307c40,154,58,332,58,530c0,206,-18,388,-55,546c-38,157,-93,298,-165,423C287,1930,177,2069,29,2221l41,84C249,2143,379,2012,461,1913C590,1754,689,1586,756,1409C823,1230,857,1043,857,848C857,654,825,471,759,301C695,128,597,-39,466,-204C373,-320,241,-454,70,-606Z" 
id="f1_4"
transform="scale(4.8828125E-4,-4.8828125E-4)" />

<path d="M882,112c-75,0,-150,19,-225,59C588,206,523,254,463,315C341,440,248,579,183,733l106,51C387,594,475,460,556,380C632,304,721,267,818,267c2,0,3,0,5,0c85,0,150,29,198,89c47,53,73,116,74,188c-1,84,-33,150,-94,197c-28,20,-61,41,-104,60c-44,15,-90,29,-142,41C668,821,609,809,577,809c-4,0,-7,0,-10,1c-3,-1,-6,-1,-9,-1c-18,0,-35,8,-49,21c-8,12,-25,36,-51,74c-27,39,-44,68,-47,88c0,16,8,30,23,39c12,6,26,9,41,9c25,0,61,-3,112,-6c52,-6,93,-15,122,-26c177,34,264,100,261,194c0,58,-18,112,-52,161c-30,44,-64,78,-99,101H-23l-92,177H1390l93,-177H981c52,-65,93,-129,124,-188c32,-64,48,-124,48,-179c0,-26,-19,-58,-62,-96C1051,961,985,930,897,911v-7C1147,801,1274,662,1276,484C1271,356,1227,261,1143,202C1060,141,973,112,882,112Z" 
id="f2_17"
transform="scale(4.8828125E-4,-4.8828125E-4)" />

<path d="M1118,0L937,110l6,755H539c-16,0,-30,0,-42,-2c-16,-3,-25,-14,-25,-27V671c-4,-43,-21,-66,-48,-66c-2,0,-4,0,-5,0c-1,0,-2,0,-2,0c-14,0,-32,17,-56,50c-25,29,-52,65,-81,106c-26,44,-49,82,-69,117c-22,34,-32,59,-32,72c0,32,14,57,43,72c27,12,82,18,163,18H943v424H-5l-90,177H1259l90,-177H1118V0Z" 
id="f2_20"
transform="scale(4.8828125E-4,-4.8828125E-4)" />

<path d="M1146,-170C1082,-48,1014,90,941,246C899,230,856,222,813,222c-7,0,-14,1,-22,1C666,223,536,289,400,414C336,475,284,547,244,629c-44,78,-65,165,-65,260c-2,98,33,180,105,246c74,61,211,93,414,95H911v234H-5l-90,177H1250l90,-177H1089V1106c-3,-35,-23,-53,-61,-53c-142,0,-269,-5,-380,-13C541,1028,472,1011,442,990C377,940,345,863,345,764c0,-96,38,-179,115,-249C532,438,626,399,743,397c38,0,71,5,102,16c-43,56,-66,114,-69,171c0,21,8,42,23,64c12,15,32,23,63,23c13,0,35,-5,64,-13c27,-10,56,-24,88,-44c33,-18,60,-40,81,-64c22,-26,33,-52,33,-81c0,-26,-5,-55,-17,-89c-14,-36,-40,-64,-77,-85c29,-51,63,-115,101,-194c37,-80,73,-149,115,-212l-104,-59Z" 
id="f2_1s"
transform="scale(4.8828125E-4,-4.8828125E-4)" />

<path d="M431,0L249,110l6,1354H21l-89,177H570l90,-177H431V0Z" 
id="f2_29"
transform="scale(4.8828125E-4,-4.8828125E-4)" />

<path d="M-274,1578c-47,80,-99,161,-157,245c-57,82,-103,139,-135,168c-47,58,-104,90,-171,94c-15,-1,-40,-4,-69,-12c-29,-12,-58,-23,-88,-32c-14,20,-38,63,-74,130c-38,63,-58,104,-61,124c3,9,11,17,23,24c12,6,25,9,40,12c37,3,67,7,92,7c1,0,2,0,3,0c88,0,189,-60,305,-179c70,-78,142,-174,214,-292c75,-121,124,-203,147,-251l-69,-38Z" 
id="f2_2f"
transform="scale(4.8828125E-4,-4.8828125E-4)" />

<path d="M1105,842v622H553V842ZM1285,0L1098,110l7,556H553V523c0,-52,-19,-78,-56,-78c-1,0,-2,0,-4,0c0,0,-1,-1,-2,-1c-15,0,-37,16,-65,46c-33,29,-70,63,-107,104c-38,39,-70,77,-96,113c-29,32,-44,54,-44,66c0,15,6,31,17,46c10,14,24,21,42,23H374v622H2l-90,177H1425l91,-177H1285V0Z" 
id="f2_1y"
transform="scale(4.8828125E-4,-4.8828125E-4)" />

<path d="M1016,-158C825,-111,651,-33,495,73C420,125,361,185,316,251c-47,64,-72,132,-72,209c0,55,11,105,33,150c18,42,41,78,68,105C237,837,180,941,179,1025c0,67,18,122,53,165c37,41,96,63,177,63H851v211H-7l-88,177H1326l90,-177H1030V1138c0,-41,-17,-63,-54,-63c-2,0,-3,1,-4,1H443c-30,-2,-58,-13,-84,-34c-31,-23,-46,-54,-46,-90c0,-29,11,-58,34,-87c20,-31,41,-58,66,-78c30,23,59,41,90,56c30,13,61,22,90,29c59,10,113,14,159,16c84,-3,171,-42,259,-115c40,-35,74,-76,101,-119c25,-44,37,-90,37,-138c0,-65,-17,-122,-54,-168C1056,299,988,261,895,231L796,391c127,25,191,86,192,185c-1,53,-21,96,-61,128c-38,31,-79,46,-126,46C688,747,597,709,533,633C463,556,429,483,429,409c0,-74,52,-158,158,-249C688,66,839,-14,1039,-85l-23,-73Z" 
id="f2_28"
transform="scale(4.8828125E-4,-4.8828125E-4)" />

<path d="M576,44C429,237,327,394,266,521C206,645,177,756,179,853c0,56,10,108,32,152c21,42,47,75,78,101c69,46,139,69,212,69H992V998H619c-2,0,-3,0,-5,0C435,998,345,914,345,744c-1,-70,23,-153,74,-246C466,402,550,278,674,127L576,44ZM-2,1464l-90,177H761l90,-177Z" 
id="f2_q"
transform="scale(4.8828125E-4,-4.8828125E-4)" />

<path d="M585,544c73,0,158,30,252,93c96,55,181,127,255,219c-45,47,-107,94,-181,139c-77,42,-156,67,-242,70C564,1062,483,1036,428,985C373,932,345,874,345,811C351,633,431,544,585,544ZM1274,0L1089,110l13,501C967,478,817,413,649,411c-1,0,-3,0,-4,0c-97,0,-196,46,-295,133c-51,40,-90,90,-122,151c-34,55,-49,118,-49,187c-2,90,29,171,93,246c35,35,79,64,134,85c55,18,123,28,199,29c9,-1,19,-1,29,-1c11,0,21,0,32,1c23,-1,46,-3,70,-6c52,-9,100,-28,144,-55c46,-28,86,-63,119,-105c34,-43,64,-84,90,-126h6v514H-2l-90,177H1413l92,-177H1274V0Z" 
id="f2_24"
transform="scale(4.8828125E-4,-4.8828125E-4)" />

<path d="M614,710c1,0,2,0,3,0c55,0,115,16,177,49c62,26,114,54,158,83v622H455V952C458,790,511,710,614,710ZM1129,0L946,110l10,513C935,610,900,596,851,582C801,564,753,555,707,555c-32,0,-71,10,-117,33c-46,23,-93,54,-142,92c-46,38,-86,81,-118,130c-35,47,-52,98,-52,149v505H-4l-90,177H1270l91,-177H1129V0Z" 
id="f2_1i"
transform="scale(4.8828125E-4,-4.8828125E-4)" />

<path d="M440,-668C241,-453,95,-305,-1,-222c-94,73,-181,110,-260,110c-2,0,-4,0,-5,0c-2,0,-4,0,-5,0c-37,0,-73,-17,-108,-52c-39,-37,-58,-92,-62,-165c5,-81,43,-122,115,-124c43,2,87,16,138,41c48,22,85,43,111,65L15,-499c-38,-24,-80,-44,-122,-58c-40,-12,-85,-18,-137,-18c-6,0,-12,0,-18,0c-35,5,-72,17,-108,38c-35,17,-69,41,-101,74c-67,64,-101,132,-104,204c3,103,34,179,93,229c60,48,125,73,196,73c32,0,65,-6,101,-20c38,-15,82,-42,134,-85C49,-141,237,-318,510,-590l-70,-78Z" 
id="f2_2d"
transform="scale(4.8828125E-4,-4.8828125E-4)" />

<path d="M619,634c140,0,211,76,211,234v596H457V801c1,-57,23,-100,61,-127c38,-28,72,-40,101,-40ZM709,500c-32,0,-72,10,-118,33c-46,23,-94,54,-143,93c-45,37,-84,80,-118,129c-35,49,-52,98,-52,148v561H-4l-90,177H1135l90,-177H1008V759C1007,681,976,620,918,574C863,524,793,500,709,500Z" 
id="f2_p"
transform="scale(4.8828125E-4,-4.8828125E-4)" />

<path d="M-222,1523c-40,66,-86,155,-136,263c-54,108,-81,206,-84,296c3,74,29,136,78,190c49,49,105,75,169,78c49,0,97,-19,143,-58C-7,2250,31,2171,63,2053L6,2037c-25,58,-49,99,-75,123c-26,22,-55,32,-87,32c-42,-1,-77,-23,-106,-62c-27,-40,-44,-87,-47,-142c1,-31,7,-66,18,-106c11,-39,25,-79,37,-122c32,-82,61,-154,85,-214l-53,-23Z" 
id="f2_2k"
transform="scale(4.8828125E-4,-4.8828125E-4)" />

<path d="M-943,-10l-138,122l807,560V519L-943,-10Z" 
id="f2_2l"
transform="scale(4.8828125E-4,-4.8828125E-4)" />

<path d="M455,0L275,110l6,1354H-4l-90,177H293c-62,69,-94,153,-94,249c0,30,7,67,24,108c14,40,37,78,67,116c29,39,69,71,121,97c50,24,112,38,183,38c103,-3,220,-34,350,-96c132,-66,246,-142,344,-230V1812c-99,82,-205,150,-312,203c-110,51,-204,78,-285,78C591,2090,512,2056,452,1991c-62,-64,-93,-133,-93,-203c0,-69,9,-117,28,-147H648l90,-177H455V0Z" 
id="f2_2a"
transform="scale(4.8828125E-4,-4.8828125E-4)" />

<path d="M510,588c121,2,265,74,433,216C889,886,834,944,778,979c-54,34,-126,51,-213,52c-59,-1,-117,-21,-171,-61C342,927,315,865,313,781c0,-58,20,-103,61,-138c34,-36,80,-55,136,-55ZM1118,0L933,110l13,460C892,532,839,500,787,472C735,446,677,432,613,432C493,434,391,480,309,570C225,655,180,762,179,888c0,20,6,49,17,85c9,34,24,69,48,104c25,37,62,69,110,96c45,23,103,35,176,35c40,0,83,-4,127,-9c44,-9,84,-29,119,-61c23,-17,46,-40,72,-67c26,-29,55,-72,85,-124h8v517H0l-89,177H1923l92,-177H1118V924c100,94,194,142,286,144c29,0,63,-8,101,-21c38,-20,75,-49,110,-88c35,-39,66,-90,90,-152c23,-63,34,-139,34,-226c0,-124,-52,-266,-158,-427L1422,299c54,74,100,149,135,230c32,76,49,146,49,207c0,49,-14,87,-43,117c-28,24,-64,36,-110,38c-40,-2,-87,-19,-147,-51C1247,804,1184,758,1118,701V0Z" 
id="f2_1b"
transform="scale(4.8828125E-4,-4.8828125E-4)" />

<path d="M591,611c97,2,184,28,263,78c78,46,151,99,220,164v611H622c70,-127,108,-234,113,-323c-3,-70,-35,-128,-99,-172C574,923,492,882,391,849c0,-67,17,-122,51,-165c33,-48,82,-73,149,-73ZM1251,0L1068,110l11,518C1033,585,981,548,923,521C865,492,808,477,755,477C588,478,458,533,368,642C277,741,214,859,182,993c117,23,211,58,281,107c69,43,104,96,104,157c0,32,-11,69,-32,107c-20,39,-37,71,-54,100H0l-89,177H1392l91,-177H1251V0Z" 
id="f2_1z"
transform="scale(4.8828125E-4,-4.8828125E-4)" />

<path d="M1707,0L1522,110l12,610c-38,-16,-75,-23,-110,-25c-37,-6,-66,-9,-87,-9c-26,0,-63,8,-110,24c-46,17,-92,39,-135,68l-4,-6c29,-52,44,-106,46,-159C1132,498,1092,408,1018,344C944,276,848,243,730,243c-2,0,-5,0,-7,0C474,246,263,445,90,839l83,49C305,576,469,420,665,420c3,0,6,0,9,0c2,0,4,0,6,0c89,0,157,32,209,96c52,57,78,126,78,205c-1,58,-17,107,-44,147c-31,40,-69,64,-116,78C772,930,724,914,668,895C613,866,573,854,545,854c-4,0,-15,8,-30,24c-15,13,-32,26,-49,43c-35,38,-53,66,-57,83c0,33,17,50,51,52c3,-1,5,-1,8,-1c14,0,29,3,47,7c23,3,46,6,69,9c53,9,91,14,116,14c26,0,59,21,99,67c43,43,66,101,67,176c0,64,-17,114,-52,152c-35,31,-78,46,-130,48c-36,-2,-73,-8,-110,-20c-36,-12,-71,-31,-105,-50c-66,-48,-107,-72,-124,-74q-1,0,-2,0c-16,0,-30,14,-44,38c-21,42,-41,86,-59,133c58,32,118,58,177,78c58,22,112,31,159,32c38,-1,86,-13,144,-38c61,-26,120,-66,175,-119c55,-54,93,-99,113,-139c17,-43,25,-87,25,-133c0,-47,-14,-90,-40,-133c-29,-43,-64,-73,-105,-95C1021,898,1147,845,1262,845c3,0,6,0,9,0c2,0,4,0,6,0c40,0,85,14,138,41c58,23,94,46,113,69v509H1149l-93,177h790l91,-177H1707V0Z" 
id="f2_15"
transform="scale(4.8828125E-4,-4.8828125E-4)" />

<path d="M-77,1864l-203,203l200,200L122,2064L-77,1864Z" 
id="f2_1a"
transform="scale(4.8828125E-4,-4.8828125E-4)" />

<path d="M843,-22C665,92,509,223,377,374C318,449,270,526,235,603c-38,80,-56,159,-56,237c0,80,27,162,81,248c29,38,64,70,107,96c41,23,88,35,145,35c90,-4,160,-32,209,-79c60,-60,115,-121,162,-182c98,136,196,203,293,203c1,0,2,0,3,0c43,-3,84,-14,124,-35c41,-21,72,-43,92,-63v401H0l-89,177H1711l93,-177H1574V0L1389,112l12,838c-44,34,-90,52,-138,54c-30,-2,-58,-5,-84,-12c-27,-10,-55,-29,-84,-59c-26,-25,-55,-64,-85,-113C978,772,941,710,903,636L762,739c25,49,51,94,74,132c-26,44,-61,82,-106,117c-44,34,-87,51,-125,54c-53,0,-107,-21,-160,-63C388,932,359,859,358,759c0,-52,6,-104,19,-152c16,-51,42,-104,81,-159C535,335,689,209,921,72L843,-22Z" 
id="f2_23"
transform="scale(4.8828125E-4,-4.8828125E-4)" />

<path d="M1186,649c117,2,258,72,423,210c-54,81,-107,140,-161,177c-53,33,-123,50,-209,52c-60,-2,-115,-22,-166,-61C1021,984,993,921,990,840c0,-58,20,-102,61,-136c34,-36,78,-55,135,-55ZM1004,212c3,0,6,0,9,0c122,2,232,34,333,98c101,55,186,113,260,171V631c-52,-38,-103,-72,-152,-99c-50,-28,-106,-40,-171,-40c-117,1,-218,46,-299,136C900,713,857,819,854,944c0,20,8,49,20,86c8,32,23,67,46,104c26,35,61,67,108,96c45,23,103,33,174,33c40,0,81,-4,126,-12c42,-9,81,-27,117,-58c22,-15,45,-36,71,-65c24,-30,52,-71,84,-124h6v460H629c10,-182,14,-349,16,-500C645,814,576,692,435,594C495,501,576,417,680,341c49,-38,102,-69,157,-90c54,-25,109,-39,167,-39ZM1783,0L1604,115l8,169C1409,128,1221,52,1047,52c-4,0,-7,0,-10,0C830,52,614,197,385,487C310,594,257,686,228,761c-34,73,-49,113,-49,122c0,18,7,37,26,54c15,16,27,26,36,29c11,0,31,-5,62,-14c29,-12,68,-29,119,-49c16,26,27,64,35,111c6,49,9,101,9,156c0,112,-3,210,-11,294H-8l-92,177H1922l92,-177H1783V0Z" 
id="f2_1d"
transform="scale(4.8828125E-4,-4.8828125E-4)" />

<path d="M1349,-364l-157,140c39,39,59,72,62,104c0,25,-26,55,-79,90L373,480c-63,44,-95,113,-95,206v778H-4l-90,177H1306l90,-177H1108V662c0,-86,-35,-129,-102,-129c-2,0,-4,0,-7,0c-5,0,-10,0,-15,0c-65,0,-136,9,-212,28L665,718c68,-8,126,-9,175,-9c4,0,8,0,12,0c50,0,75,20,75,59v696H455V665c0,-26,6,-51,17,-72c6,-25,14,-40,23,-48L1291,26c67,-43,112,-78,134,-104c17,-29,26,-59,26,-86c-1,-44,-36,-110,-102,-200Z" 
id="f2_19"
transform="scale(4.8828125E-4,-4.8828125E-4)" />

<path d="M1496,0L1311,112l6,886H866C937,927,993,862,1033,799c35,-61,52,-128,52,-203c-2,-89,-32,-154,-92,-197C937,354,878,331,817,331c-2,0,-4,0,-6,1c-2,-1,-5,-1,-7,-1c-77,0,-144,23,-205,68C536,440,478,495,426,565C327,706,238,865,163,1042l103,43C327,937,393,813,463,713c38,-55,85,-99,142,-134c53,-40,101,-58,145,-58c55,0,95,17,121,52c26,34,40,76,40,128c0,42,-11,83,-31,124c-21,37,-50,73,-84,107c-75,73,-151,131,-231,177l26,66h726v289H-11l-92,177H1635l91,-177H1496V0Z" 
id="f2_1h"
transform="scale(4.8828125E-4,-4.8828125E-4)" />

<path d="M1006,89c105,0,187,42,242,128c75,111,112,278,112,495c0,226,-34,388,-101,486c-66,98,-151,146,-257,146c-110,0,-203,-55,-281,-165C645,1069,607,911,607,704C607,493,643,338,717,238C790,139,883,89,996,89c1,0,3,0,5,0c2,0,3,0,5,0ZM89,-590v117H193c48,0,87,10,110,29c25,19,38,45,38,75V1121c0,68,-17,117,-51,147c-33,28,-101,44,-201,47v120l463,29c22,-103,36,-201,39,-294c71,112,144,190,220,237c78,46,162,70,252,72c98,-2,191,-32,280,-93c89,-61,159,-150,215,-268c55,-119,83,-252,83,-398c0,-237,-67,-431,-202,-579C1326,17,1193,-43,1037,-43c-88,0,-169,21,-241,67C726,69,662,138,607,229V-343c0,-44,10,-76,30,-93c28,-24,67,-37,115,-37H857V-590Z" 
id="f1_1o"
transform="scale(4.8828125E-4,-4.8828125E-4)" />

<path d="M118,0V118h99c50,0,89,9,115,30c24,19,38,45,38,75v909c0,58,-16,106,-48,136c-30,31,-76,47,-134,47H118v120l473,29c20,-89,35,-191,45,-307c62,105,137,186,223,239c87,54,184,81,293,83c93,-2,173,-21,235,-58c63,-38,115,-98,153,-179c38,-81,57,-173,57,-273V263c0,-54,12,-90,35,-112c23,-23,62,-33,116,-33h101V0H1079V118h71c68,0,115,9,141,32c26,21,40,53,40,96V863c0,133,-20,234,-60,300c-55,91,-137,137,-249,137c-110,0,-202,-47,-275,-139C672,1066,636,946,636,796V263c0,-54,12,-92,36,-112c23,-23,63,-33,116,-33H888V0Z" 
id="f1_1m"
transform="scale(4.8828125E-4,-4.8828125E-4)" />

<path d="M972,819c44,0,94,12,148,38c55,21,102,47,142,80v527H680V924c33,-21,76,-44,130,-67c52,-26,107,-38,162,-38ZM837,0C591,280,419,483,321,610C225,735,177,820,179,866c0,28,9,52,27,77c17,20,37,30,58,32c11,-2,26,-5,45,-9c16,-13,35,-25,53,-36c46,-30,78,-47,96,-48c1,-1,2,-1,3,-1c14,0,25,20,29,62c7,45,10,155,10,333c0,67,-3,130,-13,188H-1l-91,177H1581l90,-177H1441V0L1256,110l12,591c-95,-36,-174,-56,-238,-58c-2,0,-4,0,-6,0c-27,0,-74,10,-139,32c-34,13,-71,29,-106,54c-36,23,-72,50,-105,84C657,793,636,770,611,744C582,717,555,695,532,680C464,645,434,620,438,608c4,-15,62,-78,173,-188C717,307,822,196,924,87L837,0Z" 
id="f2_27"
transform="scale(4.8828125E-4,-4.8828125E-4)" />

<path d="M419,1208c71,8,123,33,155,72c25,38,37,75,37,113c-4,84,-47,129,-128,135c-45,-2,-77,-15,-100,-41c-24,-31,-38,-65,-38,-100c0,-24,6,-52,17,-82c11,-32,29,-66,57,-97ZM1373,0L1189,113l12,478C1126,521,1057,471,995,443C935,415,874,400,811,400c-3,0,-6,0,-9,0C694,402,585,442,480,519c-49,39,-89,81,-119,130c-33,46,-49,98,-49,153c0,38,12,80,33,122c26,42,69,77,130,104c-46,31,-87,61,-124,90c-38,28,-68,57,-94,89c-52,56,-78,133,-78,229c0,70,24,130,73,180c46,45,102,68,171,69c87,-3,158,-29,211,-76c50,-52,78,-119,79,-205c0,-69,-19,-124,-61,-168c-42,-50,-100,-81,-177,-93c11,-14,29,-28,55,-41c26,-16,58,-23,95,-23c40,0,93,1,159,6c47,0,84,-3,113,-9c46,-68,70,-117,72,-147c0,-12,-2,-20,-6,-25c-7,-6,-17,-9,-34,-9c-3,0,-7,0,-11,0c-73,3,-139,8,-200,14C654,909,599,894,555,863C507,831,483,776,483,701c3,-58,26,-104,72,-137c45,-34,91,-52,139,-52c2,0,4,0,6,0c2,0,3,0,5,0c74,0,153,29,236,84c87,53,171,127,254,220v648H961l-95,177h648l90,-177H1373V0Z" 
id="f2_1t"
transform="scale(4.8828125E-4,-4.8828125E-4)" />

<path d="M577,534c4,0,9,0,14,1c3,0,6,0,9,0c50,0,105,12,168,35L498,1013C468,996,435,964,403,918C365,871,345,817,345,758c3,-84,31,-142,83,-176c45,-32,95,-48,149,-48Zm279,83c97,51,148,121,152,208c-1,98,-29,168,-79,211c-49,38,-101,58,-154,58c-48,0,-84,-3,-110,-8c-26,-6,-52,-15,-80,-24L856,617ZM1296,0L1112,110l11,498h-8c-17,-23,-38,-46,-61,-69c-24,-24,-53,-49,-85,-70C906,423,820,400,709,400c-4,0,-7,0,-11,0C544,402,419,452,324,553C229,651,180,756,179,869c0,40,9,81,29,124c20,41,47,81,87,118c79,76,200,117,362,119c105,0,194,-25,266,-72c70,-55,133,-124,189,-209h6v515H-8l-92,177H1436l90,-177H1296V0Z" 
id="f2_1w"
transform="scale(4.8828125E-4,-4.8828125E-4)" />

<path d="M1118,0L933,113l13,885H620c-1,0,-3,0,-5,0C435,998,345,912,345,743c-1,-72,25,-155,77,-248C471,400,558,277,684,127L584,46C434,234,328,391,269,518C206,643,177,753,179,851c0,58,10,108,32,154c21,40,47,75,79,101c69,46,141,69,214,69H941v289H-2l-90,177H1257l92,-177H1118V0Z" 
id="f2_1q"
transform="scale(4.8828125E-4,-4.8828125E-4)" />

<path d="M464,0L283,110l6,1354H0l-89,177H328c-27,174,-74,299,-143,377c-73,74,-154,110,-239,112c-127,-5,-189,-103,-188,-295l-64,-25c-9,14,-23,40,-41,78c-17,37,-25,72,-28,106c3,96,34,174,95,230c56,52,130,80,217,81c240,0,399,-220,479,-664H654l92,-177H464V0Z" 
id="f2_2b"
transform="scale(4.8828125E-4,-4.8828125E-4)" />

<path d="M-303,1509c-64,69,-139,133,-225,191c-84,58,-152,101,-203,132c-50,40,-91,59,-122,59c-14,0,-35,-4,-66,-15c-29,-12,-52,-23,-72,-32c-22,47,-47,104,-74,170c-26,64,-42,104,-45,119c2,21,19,32,52,32c51,0,95,-11,135,-31c39,-23,79,-53,117,-88c63,-48,144,-113,243,-193c100,-85,196,-183,289,-299h37c-14,43,-37,114,-72,212c-35,98,-70,176,-109,235c-23,42,-52,72,-88,97c-35,21,-89,30,-162,32c-19,108,-31,188,-35,240c1,30,13,45,38,45c24,0,58,-12,99,-33c43,-25,87,-70,132,-132c30,-36,58,-84,82,-143c25,-63,49,-129,72,-197c24,-72,47,-136,66,-197c19,-63,33,-115,42,-153l17,-38l-148,-13Z" 
id="f2_2g"
transform="scale(4.8828125E-4,-4.8828125E-4)" />

<path d="M1001,-11L820,107V1633l181,-119V-11Z" 
id="f2_1u"
transform="scale(4.8828125E-4,-4.8828125E-4)" />

<path d="M883,-22C668,208,478,423,313,626C255,700,218,755,202,791c-16,36,-23,60,-23,75c0,28,7,52,26,77c18,20,36,30,59,32c11,-2,25,-5,43,-9c17,-13,35,-25,54,-36c44,-30,76,-47,94,-48c2,-1,3,-1,4,-1c14,0,23,20,27,62c7,44,9,155,9,333c0,67,-5,130,-15,188H-2l-90,177H947l90,-177H677V924c0,-49,-11,-93,-35,-131C620,750,596,720,568,703C500,655,468,625,472,611c0,-8,18,-29,52,-64c34,-35,73,-79,122,-134C753,301,860,191,966,79L883,-22Z" 
id="f2_21"
transform="scale(4.8828125E-4,-4.8828125E-4)" />

<path d="M1196,0L1014,112l7,1352H567V665C564,585,530,545,464,544c-15,0,-39,15,-71,50c-34,29,-69,63,-104,103C214,776,179,836,180,875c0,22,6,39,22,51c9,12,20,20,30,20H371c2,-1,3,-1,4,-1c8,0,13,11,13,31v488H-4l-90,177H1335l92,-177H1196V0Z" 
id="f2_1e"
transform="scale(4.8828125E-4,-4.8828125E-4)" />

<path d="M585,611c41,0,80,8,116,23c37,11,69,24,100,44c65,40,113,83,146,127L455,1315V811C457,683,501,616,585,611ZM669,477c-67,0,-146,38,-237,117c-42,35,-78,78,-105,127c-32,46,-49,96,-49,153v590H-4l-90,177H796l90,-177H438L999,880l46,55V663C988,603,924,558,849,527C776,493,715,477,669,477Z" 
id="f2_e"
transform="scale(4.8828125E-4,-4.8828125E-4)" />

<path d="M759,134c-4,0,-8,0,-12,0C591,134,458,196,351,313C238,425,180,552,179,694c0,76,18,136,53,178c35,40,86,69,151,87c121,33,242,63,366,91c24,3,42,18,55,44c10,24,15,79,15,166c-2,110,-5,179,-9,204H-5l-90,177H1216l92,-177H988c5,-83,7,-204,8,-364c0,-75,-6,-125,-20,-153C959,920,933,903,897,892C804,865,678,834,521,804C406,782,348,709,345,584c0,-40,9,-77,28,-112c15,-34,36,-66,62,-93c56,-58,120,-89,191,-89c1,0,3,0,5,0c2,0,4,0,6,0c145,0,322,55,530,164l78,-170c-55,-33,-125,-66,-212,-98C951,153,858,134,759,134Z" 
id="f2_1k"
transform="scale(4.8828125E-4,-4.8828125E-4)" />

<path d="M668,267c117,2,227,39,331,110c101,66,193,142,274,231v856H908V1138c0,-41,-18,-63,-53,-63c-2,0,-3,1,-4,1H527c-4,0,-9,0,-13,0C398,1076,341,1036,345,958c0,-50,26,-90,77,-119c42,-34,93,-51,154,-51c2,0,5,0,8,0c3,0,7,0,11,0c26,0,56,5,93,13c39,4,97,7,174,9c18,-2,33,-6,47,-17c17,-12,29,-29,37,-47c20,-39,30,-72,30,-98c0,-19,-6,-29,-15,-35C950,603,940,597,930,597c-2,0,-3,0,-4,0c-6,0,-12,0,-18,0c-62,0,-111,8,-146,19c-38,10,-71,15,-100,17C607,629,565,610,539,573C513,533,500,490,500,443c0,-63,19,-107,58,-131c33,-31,70,-45,110,-45ZM1451,0L1267,112l6,270C1227,327,1157,273,1063,222C969,165,872,134,776,131c-99,7,-195,46,-287,120c-41,33,-78,74,-107,125c-31,44,-46,92,-46,142c0,37,9,75,29,113c15,34,43,64,81,93C393,750,336,798,277,865c-65,62,-97,139,-98,227c-2,42,9,78,36,113c25,29,77,45,155,48H730v211H-2l-90,177H1590l92,-177H1451V0Z" 
id="f2_h"
transform="scale(4.8828125E-4,-4.8828125E-4)" />

<path d="M-217,-599c-282,4,-558,142,-833,412l59,80c141,-129,262,-217,361,-265c101,-46,215,-69,341,-69c84,2,151,29,201,83c52,49,77,98,75,147c2,27,-9,55,-30,79c-23,25,-60,43,-107,52c-29,-31,-61,-60,-95,-87c-34,-26,-60,-41,-75,-41c-6,0,-15,7,-30,23c-17,12,-34,27,-51,47c-40,41,-59,73,-62,98c3,15,22,32,62,52c40,20,87,31,142,31C-150,40,-62,8,9,-54c74,-64,110,-144,112,-237c0,-70,-26,-137,-78,-201c-56,-69,-143,-104,-260,-107Z" 
id="f2_2c"
transform="scale(4.8828125E-4,-4.8828125E-4)" />

<path d="M400,-651C267,-514,139,-393,15,-288c-26,25,-60,45,-98,61c-37,17,-70,26,-98,26c-61,0,-114,-4,-159,-12c-35,40,-64,80,-88,119c-22,35,-34,58,-37,71c2,7,12,13,34,19c19,2,47,3,82,3c73,0,136,-9,188,-27c49,-21,98,-54,150,-96c98,-84,191,-174,280,-266c85,-92,147,-159,185,-202l-54,-59Z" 
id="f2_2j"
transform="scale(4.8828125E-4,-4.8828125E-4)" />

<path d="M636,1069c58,62,85,141,85,239c-4,145,-56,218,-154,220c-51,-3,-93,-23,-130,-58c-41,-35,-61,-81,-61,-135c6,-64,33,-117,79,-163c26,-23,54,-41,84,-57c31,-20,63,-33,97,-46ZM1387,0L1202,110l10,484C1167,548,1109,510,1037,477C966,440,895,422,827,422c-124,1,-225,26,-301,73C448,536,390,579,350,623C248,717,196,776,196,799c-3,8,41,32,134,72c89,35,163,78,225,127c-252,82,-378,197,-376,343c0,69,23,139,72,211c48,74,120,110,215,113c24,-1,61,-6,107,-15c47,-15,95,-38,145,-69c50,-33,95,-75,127,-123c35,-54,53,-118,55,-196C898,1144,859,1045,778,964C695,880,593,807,472,746c11,-69,35,-118,73,-146c37,-29,89,-42,158,-42c95,1,189,33,282,97c91,60,164,124,222,194v615H1022l-96,177h600l90,-177H1387V0Z" 
id="f2_1r"
transform="scale(4.8828125E-4,-4.8828125E-4)" />

<path d="M814,984c16,49,25,105,26,169c0,115,-18,204,-56,263c-41,57,-93,86,-156,86c-70,-3,-115,-32,-133,-86c-21,-59,-32,-102,-31,-133c0,-134,117,-235,350,-299ZM810,-57L526,387c-28,51,-80,77,-158,81C289,483,237,519,214,578c-23,55,-34,94,-32,122c0,72,41,108,124,111c1,0,2,0,3,0c19,0,39,-12,62,-33c23,-29,55,-75,100,-138c42,11,94,38,155,78c57,38,109,98,158,176C669,924,578,961,509,999c-69,34,-121,70,-158,110c-33,37,-56,74,-70,109c-9,32,-14,65,-14,96c0,34,8,63,22,89c10,24,20,44,29,61H-2l-90,177H1124l91,-177H872c57,-75,97,-141,120,-196c18,-60,27,-110,27,-150C1019,998,984,885,914,778C843,666,733,570,582,489L930,38L810,-57Z" 
id="f2_25"
transform="scale(4.8828125E-4,-4.8828125E-4)" />

<path d="M903,-22C672,208,475,423,313,626C255,700,218,755,202,791c-16,36,-23,60,-23,75c0,28,9,52,27,77c17,20,37,30,58,32c11,-2,26,-5,45,-9c16,-13,35,-25,53,-36c46,-30,78,-47,96,-48c2,-1,3,-1,5,-1c13,0,23,20,27,62c7,44,10,155,10,333c0,67,-7,130,-20,188H0l-89,177H1804l92,-177H681V1131c23,-5,57,-13,97,-25c39,-17,70,-29,88,-40c29,45,69,83,118,112c46,27,98,41,154,41c72,0,138,-21,200,-62c65,-46,120,-107,167,-185c70,-107,130,-214,180,-320c46,-107,80,-191,101,-255L1678,336c-83,255,-167,436,-250,539c-85,104,-166,155,-244,155c-82,-3,-147,-31,-194,-80C941,901,917,849,917,794c0,-50,16,-85,49,-103c30,-19,59,-28,85,-28c31,0,64,11,102,31c42,15,68,26,81,35L1361,579c-30,-24,-70,-44,-119,-60c-49,-20,-92,-30,-132,-30c-3,0,-6,0,-8,0c-83,1,-153,46,-213,131c-58,81,-79,178,-66,289c-13,9,-36,20,-67,31c-32,6,-55,9,-72,10C672,877,657,822,642,787C625,750,602,724,576,709C504,662,471,628,472,610c0,-7,18,-28,52,-63c34,-35,75,-81,124,-136C759,299,872,188,987,78L903,-22Z" 
id="f2_9"
transform="scale(4.8828125E-4,-4.8828125E-4)" />

<path d="M1496,0L1311,108l12,439C1208,440,1091,388,967,388C814,390,698,432,619,518C539,597,500,683,500,773c0,43,7,81,21,112c12,29,29,56,50,81H277l-91,175h981l93,-166c-13,-1,-27,-1,-43,-1c-37,0,-80,1,-128,2c-93,0,-162,-1,-204,-4c-42,-8,-74,-17,-97,-31C756,924,730,895,707,851C680,804,666,753,666,700C669,568,732,503,854,501c2,0,3,0,5,0c19,0,40,7,68,18c28,10,61,26,100,48c79,44,175,117,290,221v676H3l-89,177H1635l91,-177H1496V0Z" 
id="f2_1f"
transform="scale(4.8828125E-4,-4.8828125E-4)" />

<path d="M548,1089c126,64,191,142,196,237c0,57,-12,102,-35,138c-25,35,-61,52,-112,53c-56,-1,-107,-18,-152,-53c-51,-34,-78,-84,-78,-150c0,-109,59,-183,181,-225ZM1051,-123L839,278c-20,-8,-47,-12,-80,-12c-11,0,-23,1,-35,1c-46,3,-93,13,-140,26c-48,16,-104,43,-167,83C335,431,275,492,235,559c-38,67,-58,125,-58,173c3,90,100,189,289,299c-29,17,-60,37,-92,58c-32,20,-62,45,-90,72c-61,51,-93,121,-95,208c2,89,37,157,106,208c63,47,133,71,211,73c68,-2,151,-37,249,-104c46,-37,84,-76,114,-119c28,-46,42,-95,42,-148c0,-49,-11,-93,-37,-136C845,1098,796,1051,727,999c52,-44,115,-67,187,-69c5,0,10,0,15,0c88,0,173,12,258,36c87,16,144,30,171,39V828c-86,-35,-173,-54,-260,-54c-3,0,-7,1,-10,1c-4,0,-7,-1,-10,-1c-83,0,-160,19,-232,54C773,859,707,900,649,950C532,880,454,822,411,778C373,732,354,686,356,639c3,-94,32,-155,90,-188c47,-33,91,-50,129,-50c4,0,7,1,10,1c4,0,7,0,11,0c46,0,94,9,142,24c-44,64,-66,118,-66,159c0,26,11,44,34,57c17,10,35,15,55,15c59,-2,116,-24,169,-69c54,-43,81,-76,83,-104c0,-27,-11,-55,-32,-82C964,367,941,339,914,318L1160,-54l-109,-69Z" 
id="f2_2n"
transform="scale(4.8828125E-4,-4.8828125E-4)" />

<path d="M585,544c73,0,158,30,251,93c96,55,180,127,255,219c-46,47,-107,94,-182,139c-76,42,-156,67,-241,70C562,1062,483,1036,428,985C373,932,345,874,345,811C351,633,431,544,585,544ZM660,411c-3,0,-6,0,-9,0c-2,0,-3,0,-5,0c-96,0,-195,46,-296,133c-51,40,-90,90,-122,151c-34,55,-49,118,-49,187c-2,90,29,171,93,246c35,35,79,64,133,85c56,18,122,28,200,29c37,-1,81,-4,136,-12c55,-11,101,-26,137,-49c45,-28,86,-66,123,-112c38,-47,82,-110,136,-186V643C1062,573,985,516,906,477C832,434,749,411,660,411ZM-2,1464l-90,177H903l92,-177Z" 
id="f2_1j"
transform="scale(4.8828125E-4,-4.8828125E-4)" />

<path d="M1198,669c91,0,170,26,234,80c62,49,94,107,96,175c0,46,-19,87,-57,121c-38,32,-98,49,-180,49c-90,-3,-165,-32,-222,-87C1008,953,976,897,976,839c2,-113,72,-170,209,-170c1,0,3,0,5,0c3,0,5,0,8,0Zm93,-159c-121,2,-226,45,-313,129C888,718,843,817,840,938c0,84,37,159,107,222c67,59,159,90,278,93c106,-3,199,-46,280,-129c81,-79,122,-166,124,-261c0,-50,-11,-98,-32,-140c-22,-45,-51,-83,-86,-113C1439,544,1366,510,1291,510ZM1031,67C826,67,611,212,383,504C309,607,257,694,226,767c-32,70,-47,111,-47,121c0,18,7,36,26,52c15,16,27,27,36,29c11,0,31,-5,62,-14c29,-12,68,-29,119,-49c16,26,27,63,35,112c6,48,9,99,9,154c0,111,-3,208,-12,292H-11l-93,177H1448l89,-177H629c10,-182,14,-349,16,-500C645,813,576,692,435,603C542,466,645,370,741,312c90,-59,202,-89,334,-89c6,0,12,0,19,0c162,2,359,92,591,269l75,-144C1508,160,1268,67,1040,67c-3,0,-6,0,-9,0Z" 
id="f2_m"
transform="scale(4.8828125E-4,-4.8828125E-4)" />

<path d="M843,-22C665,92,510,223,379,374C319,449,270,526,235,603c-38,80,-56,159,-56,237c0,80,26,162,81,248c29,38,64,70,107,96c39,23,88,35,143,35c89,-4,158,-32,208,-79c60,-60,113,-121,162,-182c98,137,196,205,292,205c47,-2,93,-16,140,-43c42,-31,80,-64,115,-104V872c-63,87,-121,130,-171,132c-31,-2,-58,-5,-84,-12c-26,-10,-54,-28,-83,-57c-26,-27,-53,-66,-84,-115C973,773,938,710,898,637L759,739c25,51,49,94,72,133c-24,43,-59,81,-104,116c-44,34,-85,51,-124,54c-53,0,-106,-21,-158,-63C388,932,359,859,358,759c0,-52,7,-104,21,-152c14,-51,41,-104,81,-159C535,335,689,209,923,72L843,-22ZM2,1464l-90,177H1239l90,-177Z" 
id="f2_1p"
transform="scale(4.8828125E-4,-4.8828125E-4)" />

<path d="M133,0V118c108,3,195,38,260,107c64,65,94,149,94,247V2018l-13,17c-36,46,-66,76,-92,87c-32,14,-76,20,-131,21H133v118H680L2040,460V1762c0,129,-28,227,-87,291c-54,57,-133,87,-239,90v118h784V2143c-80,-1,-139,-12,-177,-33c-40,-25,-74,-64,-104,-124c-29,-59,-44,-124,-44,-192V0H2027L620,1867V492c0,-127,34,-219,98,-280c64,-61,165,-93,303,-94V0Z" 
id="f1_y"
transform="scale(4.8828125E-4,-4.8828125E-4)" />

<path d="M652,60c2,0,4,0,6,0c2,0,4,0,6,0c119,0,224,45,311,137c90,92,134,208,134,348V753C846,717,660,658,550,576C469,513,429,426,429,313c0,-81,22,-143,63,-188C533,82,586,60,652,60ZM597,-43C451,-43,339,-13,263,49C186,112,148,193,148,292c0,148,87,270,263,368c174,98,408,163,698,197v226c0,80,-30,147,-93,205c-61,56,-139,85,-234,87c-87,-2,-163,-20,-227,-58c-45,-29,-68,-57,-68,-83c0,-16,13,-41,34,-74c27,-43,41,-81,41,-112c0,-49,-15,-87,-44,-116C489,903,453,888,407,888c-2,0,-4,0,-7,0c-2,0,-4,0,-6,0c-48,0,-88,16,-121,50c-33,35,-51,80,-51,135c0,100,58,192,172,278c115,84,264,126,451,128c173,-2,304,-40,394,-113c90,-77,136,-168,136,-275V295c0,-72,11,-124,32,-156c22,-34,48,-50,81,-50c2,0,3,0,5,0c1,0,3,0,5,0c38,0,78,15,118,44l54,-76C1595,-10,1513,-43,1421,-43c-70,0,-130,16,-177,51c-48,35,-91,99,-126,189C1022,99,937,35,863,3C788,-28,701,-43,597,-43Z" 
id="f1_19"
transform="scale(4.8828125E-4,-4.8828125E-4)" />

<path d="M133,0V118H249c44,0,78,9,101,30c23,19,35,45,35,78v926c0,50,-14,89,-40,113c-26,26,-76,43,-152,50v120l414,29c21,-104,36,-202,44,-294c75,112,151,191,227,239c75,45,159,68,250,70c97,-2,178,-29,241,-80c63,-53,111,-139,145,-255c67,110,142,194,225,251c84,55,172,82,270,84c130,-2,228,-41,290,-119c84,-104,126,-237,126,-399V241c0,-44,12,-73,33,-88c32,-23,78,-35,139,-35h78V0H1907V118h76c64,0,110,9,136,30c26,22,40,52,40,93V963c0,106,-26,189,-75,249c-51,58,-116,88,-199,88c-61,0,-116,-18,-166,-52c-51,-35,-90,-85,-119,-148c-42,-92,-63,-171,-63,-234V241c0,-42,12,-74,37,-93c24,-21,61,-30,110,-30h105V0H1021V118h87c55,0,96,9,123,30c28,22,40,48,40,80V897c0,139,-23,243,-70,307c-48,64,-112,96,-193,96c-104,0,-183,-37,-240,-111C691,1083,651,959,651,820V241c0,-44,11,-74,30,-90c31,-23,78,-33,141,-33h79V0Z" 
id="f1_1l"
transform="scale(4.8828125E-4,-4.8828125E-4)" />

<path d="M1060,798c40,0,71,12,92,38c20,24,31,67,31,130c0,113,-36,209,-109,288c-73,80,-159,119,-258,121C704,1373,611,1326,535,1230C457,1134,417,990,414,798ZM816,-43C623,-43,461,24,330,163C199,303,133,480,133,698c0,231,66,420,195,564c132,144,292,215,483,217c141,-2,263,-38,364,-110c102,-73,180,-179,231,-313c36,-97,56,-217,58,-361H414C420,478,461,325,539,238C627,139,739,89,874,89c2,0,4,0,6,0c1,0,3,0,4,0c201,0,363,114,486,340l94,-44C1314,98,1098,-43,816,-43Z" 
id="f1_1d"
transform="scale(4.8828125E-4,-4.8828125E-4)" />

<path d="M706,-14C587,-14,493,17,426,81C359,147,325,231,325,338v962H73v101c118,18,207,67,268,144c90,113,139,273,146,481H591V1435h459V1300H591V368c0,-82,20,-143,57,-186c36,-43,84,-64,140,-64c69,0,129,33,176,99c49,66,78,176,86,330h103C1147,356,1103,214,1022,122C941,31,836,-14,706,-14Z" 
id="f1_1s"
transform="scale(4.8828125E-4,-4.8828125E-4)" />

<path d="M730,-43L232,1224c-15,35,-35,58,-55,70c-20,11,-55,18,-104,21v120H697V1315H614c-40,0,-70,-7,-87,-18c-17,-12,-26,-27,-26,-46c0,-21,5,-44,15,-65L836,373l278,768c-34,84,-66,136,-96,152c-30,15,-81,22,-156,22v120h687V1315h-58c-52,0,-88,-7,-108,-19c-22,-13,-31,-31,-31,-51c0,-20,5,-38,14,-59L1693,373l260,722c18,45,25,83,25,117c0,30,-12,53,-39,73c-26,15,-77,27,-150,30v120h558V1315c-69,-10,-123,-32,-158,-61c-35,-32,-65,-78,-90,-139L1681,-43h-91L1189,955L825,-43Z" 
id="f1_1v"
transform="scale(4.8828125E-4,-4.8828125E-4)" />

<path d="M784,60c117,0,215,53,287,157c75,105,112,280,112,522c0,224,-36,384,-110,485c-74,101,-172,149,-294,151C665,1373,570,1322,495,1216C422,1111,385,947,385,721C385,490,422,322,495,217C567,113,660,60,774,60c2,0,4,0,5,0c2,0,3,0,5,0ZM770,-43C585,-43,426,24,298,167C168,307,104,490,104,717c0,224,66,407,194,548c131,141,290,212,481,214c194,-2,356,-72,488,-211c131,-140,197,-324,197,-551c0,-158,-29,-292,-89,-402C1317,203,1233,116,1123,52C1014,-11,897,-43,770,-43Z" 
id="f1_1n"
transform="scale(4.8828125E-4,-4.8828125E-4)" />

<path d="M104,0V118H241c48,0,83,9,107,27c25,18,37,41,37,69v903c0,67,-14,117,-43,150c-27,32,-67,48,-120,48H104v120l503,29V889c55,193,120,339,197,440c78,98,172,148,287,150c76,-2,139,-26,185,-73c46,-49,70,-115,70,-194c0,-66,-15,-117,-46,-153c-29,-36,-66,-54,-111,-54c-1,0,-3,0,-5,0c-2,0,-4,0,-5,0c-42,0,-76,17,-102,46c-29,31,-43,73,-43,127c0,34,6,66,16,98c10,24,15,41,15,47c0,15,-9,21,-28,23c-39,-2,-85,-26,-137,-73C830,1202,776,1108,738,987C680,799,651,649,651,536V226c0,-35,12,-63,38,-81c26,-18,67,-27,128,-27h188V0Z" 
id="f1_1q"
transform="scale(4.8828125E-4,-4.8828125E-4)" />

<path d="M778,-43C579,-43,417,20,292,153C167,284,104,460,104,678c0,254,69,450,205,590c137,139,298,209,482,211c139,-2,254,-40,344,-115c92,-78,136,-162,136,-255c0,-56,-17,-102,-52,-139c-32,-35,-72,-53,-117,-53c-1,0,-3,0,-5,0c-2,0,-4,0,-6,0c-43,0,-81,16,-112,46c-30,30,-47,68,-47,113c0,42,17,85,49,126c17,19,24,34,24,46c0,28,-18,57,-56,84c-40,28,-92,41,-158,43C671,1373,579,1329,518,1238C429,1105,385,930,385,715C385,509,425,351,504,246C583,142,683,89,805,89c1,0,3,0,5,0c1,0,2,0,3,0c170,0,295,114,377,340l112,-30C1222,102,1047,-43,778,-43Z" 
id="f1_1b"
transform="scale(4.8828125E-4,-4.8828125E-4)" />

<path d="M784,-43C642,-43,509,2,387,96L275,-28H193L162,532H266C332,353,406,229,489,160C571,93,672,60,791,60c3,0,5,0,8,0c3,0,7,0,10,0c110,0,193,24,253,71c61,49,91,113,91,190c0,43,-12,79,-33,113c-23,32,-54,56,-92,73c-40,16,-142,40,-307,72C564,611,454,643,391,678C328,712,280,759,244,820c-35,60,-51,126,-51,198c0,106,35,204,105,293c90,111,217,166,380,168c126,-2,240,-52,346,-154l100,110h63l40,-518H1123c-44,160,-105,278,-180,350c-77,71,-170,106,-280,108c-96,-2,-171,-27,-226,-79c-55,-51,-83,-115,-83,-187c0,-67,26,-122,75,-163C480,900,579,866,726,842c172,-29,284,-54,336,-74c81,-30,143,-76,188,-139c44,-62,65,-140,65,-229C1315,275,1267,170,1166,84C1066,-1,938,-43,784,-43Z" 
id="f1_1r"
transform="scale(4.8828125E-4,-4.8828125E-4)" />

<path d="M104,0V118h87c60,0,102,10,127,33c24,23,36,58,36,107V1962c0,59,-15,105,-48,136c-33,29,-80,44,-141,45H60v118l560,31V1186c75,96,156,169,242,218c85,49,175,73,270,75c92,-2,174,-25,246,-66c57,-36,104,-98,144,-183c41,-87,59,-190,59,-307V243c0,-44,12,-76,34,-96c21,-20,55,-29,99,-29h119V0H1065V118h82c65,0,109,9,133,30c23,22,35,52,35,95V923c0,117,-27,209,-82,278c-57,66,-128,99,-215,99c-68,0,-130,-20,-188,-56C772,1205,723,1147,681,1071C642,995,620,914,620,828V258c0,-52,13,-88,32,-108c20,-23,55,-32,103,-32H872V0Z" 
id="f1_1g"
transform="scale(4.8828125E-4,-4.8828125E-4)" />

<path d="M788,-14C663,-14,556,28,471,115C383,200,341,345,341,550v622c0,53,-22,95,-66,124c-31,19,-92,30,-186,35v117l518,16V523c0,-117,27,-205,84,-268c56,-62,128,-93,217,-93c108,0,201,44,279,136c76,92,115,206,115,344v530c0,49,-17,85,-52,113c-35,26,-103,41,-200,46v117l518,16V286c0,-55,13,-97,42,-126c29,-29,71,-42,123,-42h85V0L1331,-14l-29,312C1216,193,1132,115,1048,63C963,11,877,-14,788,-14Z" 
id="f1_1t"
transform="scale(4.8828125E-4,-4.8828125E-4)" />

<path d="M781,118c111,0,206,52,284,159c79,105,118,261,118,466c0,192,-42,343,-127,455c-72,98,-162,146,-271,146c-108,0,-195,-45,-259,-136C461,1118,429,966,429,752c0,-234,32,-398,98,-492C593,165,677,118,781,118ZM726,-14C565,-14,429,52,316,188C205,324,148,504,148,729c0,241,72,434,216,579c113,113,243,169,389,171c90,-2,171,-26,243,-72c72,-47,135,-118,187,-211v808c0,42,-16,75,-48,101c-32,25,-82,37,-150,38H888v118l560,31V330c0,-76,17,-131,48,-163c32,-34,79,-49,140,-49h109V0H1227l-44,292C1126,188,1059,112,982,61C906,9,820,-14,726,-14Z" 
id="f1_1c"
transform="scale(4.8828125E-4,-4.8828125E-4)" />

<path d="M801,-502c175,0,308,29,397,86c88,58,133,121,133,191c0,41,-14,79,-42,116c-27,35,-71,63,-132,81C1097,-10,1008,0,892,0C704,0,570,-25,490,-77C411,-129,370,-190,370,-262c0,-69,30,-122,90,-162c79,-52,194,-78,341,-78Zm4,1108c87,0,160,34,217,100c58,67,87,163,87,290c0,115,-30,208,-88,277c-60,67,-133,100,-223,102c-91,-2,-164,-35,-222,-99c-58,-66,-89,-158,-89,-274c0,-127,31,-224,89,-293C633,640,704,606,793,606c2,0,4,0,6,1c2,-1,4,-1,6,-1ZM764,-606c-220,0,-384,40,-491,121c-82,61,-125,132,-125,211c0,58,26,113,80,163c53,49,143,88,269,111C396,24,319,60,269,108c-51,49,-76,110,-76,182c0,66,21,124,64,174c41,49,114,91,220,129C387,639,319,695,275,762c-44,68,-69,144,-69,233c0,136,57,250,165,343c109,94,252,139,427,141c71,-2,140,-12,206,-31c67,-18,131,-47,194,-87c105,97,201,145,290,147c52,-2,96,-17,131,-47c36,-31,51,-69,51,-110c0,-37,-11,-66,-35,-91c-22,-21,-48,-33,-76,-33c-2,0,-4,0,-5,0c-1,0,-3,0,-4,0c-57,0,-96,35,-115,104c-10,29,-25,42,-45,44c-35,-2,-75,-24,-119,-70c46,-61,77,-115,93,-159c17,-46,26,-93,26,-144c0,-91,-21,-171,-64,-240C1283,694,1212,633,1112,581C1016,529,923,503,836,503c-3,0,-5,0,-8,0H662C544,501,466,489,426,464C390,437,370,399,370,350c0,-43,15,-75,47,-96c31,-22,92,-32,177,-32l378,15c189,-2,327,-34,411,-96c84,-65,125,-151,125,-261c0,-122,-47,-226,-145,-308C1230,-547,1030,-606,764,-606Z" 
id="f1_1f"
transform="scale(4.8828125E-4,-4.8828125E-4)" />

<path d="M73,0V118H194c55,0,93,9,113,27c23,17,34,46,34,86V1300H89v135H341v102c0,254,53,448,160,582c107,133,238,200,396,202c119,-2,211,-29,275,-86c67,-58,99,-133,99,-223c0,-61,-15,-108,-46,-144c-30,-35,-68,-50,-117,-50c-43,0,-78,12,-106,40c-27,27,-41,62,-41,104c0,47,17,85,49,117c27,23,40,42,40,55c0,17,-11,31,-34,46c-23,14,-57,22,-102,23c-87,-1,-159,-40,-219,-116c-59,-76,-88,-189,-88,-339V1435H961V1300H607V257c0,-49,10,-83,33,-101c29,-26,72,-38,127,-38H961V0Z" 
id="f1_1e"
transform="scale(4.8828125E-4,-4.8828125E-4)" />

<path d="M112,-606c-69,0,-120,17,-158,49c-37,31,-55,75,-57,130c2,48,15,87,43,118c29,29,62,44,104,44c69,0,113,-46,133,-139c8,-30,16,-50,23,-56c8,-8,20,-13,35,-13c22,0,40,10,58,26c26,26,48,71,61,132c22,85,31,168,31,252V1131c0,53,-17,96,-50,125c-34,29,-83,44,-150,44H60v119l591,29V86c0,-200,-57,-365,-168,-496C373,-540,249,-606,112,-606ZM517,1937c-2,0,-4,0,-7,0c-2,0,-4,0,-6,0c-43,0,-81,15,-113,48c-33,32,-50,70,-50,114c0,43,17,80,50,113c34,32,73,49,119,49c49,0,90,-15,123,-46c32,-30,47,-68,47,-114c0,-49,-15,-89,-47,-119c-31,-30,-70,-45,-116,-45Z" 
id="f1_1i"
transform="scale(4.8828125E-4,-4.8828125E-4)" />

<path d="M443,-43c-52,0,-98,16,-136,52C270,44,252,89,252,141c0,50,18,93,55,129c38,36,84,54,138,55c53,-1,99,-19,136,-55c36,-36,55,-79,55,-129C636,89,617,44,581,9C544,-27,497,-43,443,-43Z" 
id="f1_7"
transform="scale(4.8828125E-4,-4.8828125E-4)" />

<path d="M1143,118c172,0,322,44,452,133c84,58,148,140,193,249c61,142,90,342,90,597c0,374,-66,649,-197,825c-112,147,-282,220,-508,221H918c-46,-1,-79,-10,-101,-29c-23,-21,-33,-48,-33,-87V229c0,-36,12,-64,38,-82c26,-20,67,-29,128,-29ZM104,0V118H315c53,0,91,7,111,26c22,16,32,44,32,81V2040c0,30,-10,56,-33,74c-22,19,-54,28,-93,29H104v118H1274c174,0,321,-30,443,-92c151,-77,280,-207,385,-386c107,-182,159,-396,159,-642c0,-204,-30,-388,-95,-550C2119,466,2044,356,1945,263C1846,168,1723,98,1581,52C1474,17,1331,0,1152,0Z" 
id="f1_o"
transform="scale(4.8828125E-4,-4.8828125E-4)" />

<path d="M89,0V118H238c51,0,86,10,110,33c25,22,37,54,37,95V1983c0,49,-14,87,-40,112c-36,30,-81,47,-133,48H89v118l562,31V214c0,-29,7,-51,24,-66c26,-21,57,-30,93,-30H917V0Z" 
id="f1_1k"
transform="scale(4.8828125E-4,-4.8828125E-4)" />

<path d="M799,-43L241,1207c-19,44,-44,75,-74,93c-29,18,-74,29,-138,31v104H739V1331c-94,-5,-155,-13,-181,-28c-26,-14,-40,-35,-40,-62c0,-25,5,-48,14,-69L909,325l359,819c5,14,8,28,8,45c0,74,-75,120,-226,142v104h591V1331c-60,-8,-109,-25,-144,-51c-35,-27,-62,-64,-81,-108L883,-43Z" 
id="f1_1u"
transform="scale(4.8828125E-4,-4.8828125E-4)" />

<path d="M1262,118c179,0,313,39,399,119c85,79,128,203,128,373c0,152,-44,275,-133,365c-88,88,-212,133,-368,134H828V240c0,-41,12,-72,35,-92c25,-21,67,-30,129,-30Zm0,1109c128,0,231,38,307,113c78,76,116,202,116,377c0,107,-18,191,-55,252c-37,60,-92,104,-162,132c-70,27,-192,41,-368,42c-122,-1,-199,-10,-228,-27c-29,-18,-44,-49,-44,-92V1227h426c3,0,5,0,8,0ZM148,0V118H338c56,0,99,9,125,27c27,17,40,38,40,63V2014c0,42,-13,74,-39,96c-26,21,-64,32,-114,33H148v118H1325c230,0,409,-50,531,-153c122,-102,184,-229,184,-382c0,-128,-43,-238,-127,-327c-86,-90,-213,-160,-384,-210c214,-48,376,-118,483,-214c107,-98,161,-219,161,-365c0,-113,-31,-213,-91,-300C2021,223,1920,150,1778,90C1636,29,1476,0,1296,0Z" 
id="f1_m"
transform="scale(4.8828125E-4,-4.8828125E-4)" />

<path d="M316,-606c-73,0,-131,22,-175,65c-45,42,-68,96,-68,159c0,45,14,85,43,116c28,30,63,45,104,45c38,0,70,-13,96,-39c26,-26,38,-58,38,-93c0,-13,-1,-28,-6,-48c-3,-15,-6,-27,-6,-33c0,-26,17,-39,48,-39c33,0,71,13,114,37c41,24,81,64,118,118c36,55,102,175,195,361L267,1199c-18,35,-41,61,-70,80c-27,17,-69,29,-124,36v120H755V1315H691c-60,0,-100,-7,-121,-21c-22,-15,-34,-35,-34,-60c0,-13,3,-24,8,-35L943,361l308,692c23,47,34,93,34,140c0,35,-15,63,-44,83c-31,20,-89,32,-176,39v120h591V1315c-116,-10,-195,-58,-237,-139L871,-49C775,-265,684,-412,597,-489C510,-566,416,-606,316,-606Z" 
id="f1_1x"
transform="scale(4.8828125E-4,-4.8828125E-4)" />

<path d="M73,0V118c78,6,138,21,179,47c70,41,133,96,188,165L727,684L299,1221c-47,59,-122,91,-226,94v120H784V1315c-116,-4,-174,-22,-174,-55c0,-15,9,-35,27,-56L888,882l243,299c18,20,26,40,26,60c0,38,-60,64,-181,74v120h592V1315c-146,-21,-256,-77,-334,-165L949,802L1401,225c29,-40,60,-68,92,-84c33,-16,84,-23,148,-23V0H901V118h58c62,0,106,4,133,16c17,8,25,19,25,31c0,11,-9,31,-29,58L788,603L555,315C523,270,506,235,506,209c0,-29,12,-49,33,-61c32,-21,84,-30,156,-30V0Z" 
id="f1_1w"
transform="scale(4.8828125E-4,-4.8828125E-4)" />

<path d="M882,112c-75,0,-150,19,-225,59C588,206,523,254,463,315C341,440,248,579,183,733l106,51C387,594,475,460,556,380C632,304,721,267,818,267c2,0,3,0,5,0c85,0,150,29,198,89c47,53,73,118,74,188c-1,85,-33,151,-94,199c-28,21,-61,39,-104,59c-44,15,-90,29,-142,41C668,823,609,811,577,811c-4,0,-7,0,-10,0c-3,0,-6,0,-9,0c-18,0,-35,7,-49,20c-8,12,-25,37,-51,77c-27,38,-44,67,-47,87c0,18,8,32,23,41c12,6,26,7,41,9c25,-2,61,-3,112,-6c52,-6,93,-15,122,-26c177,34,264,98,261,192c0,57,-18,110,-52,159c-30,43,-64,77,-99,100H3l-91,177H1830l90,-177H981c52,-69,93,-133,124,-191c32,-65,48,-124,48,-179c0,-26,-19,-58,-62,-95C1051,958,985,927,897,909v-6c36,-9,69,-23,95,-40c26,-15,56,-36,90,-65c113,93,197,154,253,181c50,20,98,31,140,31c3,0,6,0,8,0c23,-2,51,-8,83,-22c32,-19,63,-45,93,-79c34,-34,61,-78,83,-131c20,-57,30,-124,30,-202C1771,423,1720,278,1623,142l-161,78c54,84,98,173,135,264c36,94,55,165,56,214c-1,49,-15,89,-43,118c-26,26,-58,38,-94,38c-39,-3,-88,-21,-147,-60C1311,756,1262,718,1219,680c19,-20,34,-52,44,-93c8,-43,13,-77,13,-103C1271,356,1227,261,1143,202C1060,141,973,112,882,112Z" 
id="f2_18"
transform="scale(4.8828125E-4,-4.8828125E-4)" />

<path d="M1057,67C885,69,724,127,574,244C426,351,295,489,180,652l87,65C402,526,524,399,637,335C742,273,857,243,981,243c6,0,12,0,18,0c4,0,8,0,12,0c50,0,95,9,133,24c42,16,75,36,103,61c53,52,81,107,81,169c-3,81,-32,122,-84,122c-65,-3,-139,-11,-230,-25C924,578,859,567,820,567c-5,0,-10,-1,-15,-1c-44,0,-85,13,-122,37c-44,28,-93,80,-147,158c-59,88,-90,169,-91,241c0,60,21,116,64,167c41,46,96,70,166,73h420v222H5l-90,177H1592l90,-177H1274V1131c0,-17,-6,-33,-15,-43c-10,-16,-24,-23,-41,-23c-2,0,-3,0,-5,0H758C655,1059,607,1013,611,924c0,-81,14,-131,38,-152c25,-21,52,-32,83,-32c4,0,8,1,12,1c17,0,41,5,76,14c34,4,71,9,109,17c85,13,154,21,206,24c63,-3,121,-29,171,-78C1409,611,1461,513,1464,428C1462,316,1424,229,1346,165C1268,99,1172,67,1057,67Z" 
id="f2_1m"
transform="scale(4.8828125E-4,-4.8828125E-4)" />

<path d="M619,1134c6,62,9,125,9,186c0,52,-8,99,-21,144c-17,39,-54,61,-114,64c-41,-3,-73,-22,-97,-55c-26,-34,-38,-70,-38,-112c1,-64,30,-116,90,-156c50,-42,108,-65,171,-71ZM1418,0L1234,113l5,573H776V526c-3,-36,-21,-54,-56,-54c-10,0,-32,14,-65,41c-36,23,-73,51,-111,84c-40,36,-75,69,-104,101c-32,32,-49,57,-49,75c0,15,8,31,22,46c10,14,24,21,41,23H597l8,180c-89,28,-162,58,-217,89c-60,32,-102,62,-133,94c-53,68,-78,132,-76,196c-2,61,17,119,55,176c35,56,99,85,189,88c2,0,4,0,6,0c89,0,170,-35,239,-104c71,-73,108,-200,108,-377V842h463v622H1005l-94,177h644l89,-177H1418V0Z" 
id="f2_1x"
transform="scale(4.8828125E-4,-4.8828125E-4)" />

<path d="M1442,857L1042,1875L634,857ZM-28,0V118c86,0,155,18,205,56c49,37,95,109,138,216l768,1915h106L2000,241c33,-84,102,-123,205,-123h71V0H1375V118h70c95,0,162,9,199,30c27,12,40,35,40,64c0,17,-2,34,-10,55L1488,739H587L478,469C451,396,437,338,437,296c0,-50,23,-91,69,-126c47,-36,114,-52,201,-52h77V0Z" 
id="f1_l"
transform="scale(4.8828125E-4,-4.8828125E-4)" />

<path d="M234,-502l-57,72c208,145,310,274,310,385c0,14,-1,26,-7,34C474,-4,466,0,455,0L422,-5c-19,-5,-35,-5,-46,-5C332,-10,292,6,258,43c-33,35,-52,79,-52,131c0,49,19,92,52,127c34,35,78,53,132,53c65,0,120,-26,165,-77C599,223,620,153,620,64C620,-132,492,-320,234,-502Z" 
id="f1_5"
transform="scale(4.8828125E-4,-4.8828125E-4)" />

<path d="M636,0V118H837c55,0,93,9,118,30c23,19,35,48,35,84V932L287,2014c-30,47,-67,79,-108,97c-41,19,-112,29,-207,32v118H976V2143H859c-95,-1,-158,-7,-187,-22c-27,-14,-43,-34,-43,-58c0,-28,8,-51,22,-71l580,-894l421,764c18,32,27,68,27,109c0,52,-17,93,-52,125c-34,31,-82,46,-148,47H1375v118h857V2143c-98,-1,-174,-18,-231,-51c-56,-36,-111,-100,-163,-194L1315,950V232c0,-39,11,-67,33,-81c29,-23,73,-33,129,-33h193V0Z" 
id="f1_18"
transform="scale(4.8828125E-4,-4.8828125E-4)" />

<path d="M869,-320C790,-214,712,-118,639,-33C564,49,513,96,486,112c-34,4,-70,12,-109,22c-39,8,-67,16,-84,22c-24,20,-47,50,-68,92c-23,42,-36,85,-36,132c0,14,13,34,36,55c19,20,47,33,84,34c33,-1,70,-23,108,-63c41,-41,69,-78,83,-108c6,-1,12,-1,18,-1c60,0,127,21,203,64c41,19,73,48,99,87c26,33,40,75,40,126c0,48,-9,81,-24,98c-17,14,-37,20,-63,20C739,689,698,678,651,660C602,640,555,629,509,629c-45,0,-87,19,-129,55c-39,34,-76,74,-107,123c-64,110,-94,207,-94,291c0,57,14,97,41,124c26,20,69,31,130,31H730v211H-8l-92,177H1056l90,-177H897V1135c0,-27,-20,-40,-60,-40H443c-50,0,-84,-9,-99,-26c-22,-18,-31,-39,-31,-65c0,-52,15,-101,46,-144c28,-47,64,-73,109,-75c42,0,88,11,137,31c46,20,90,29,131,32c34,0,68,-12,100,-35c32,-25,59,-57,84,-96c50,-81,76,-149,78,-201C996,405,955,321,874,263C798,202,704,162,597,141L958,-239l-89,-81Z" 
id="f2_16"
transform="scale(4.8828125E-4,-4.8828125E-4)" />

<path d="M157,-396l-35,93c51,55,93,111,127,170c35,55,52,97,54,128c0,33,-39,98,-115,199L332,364c38,-36,71,-75,99,-120c27,-48,43,-96,44,-140C475,60,451,0,403,-77C353,-153,272,-259,157,-396Z" 
id="f2_6"
transform="scale(4.8828125E-4,-4.8828125E-4)" />

<path d="M865,-59C655,-59,493,-10,379,89C264,188,206,315,206,469c0,93,25,165,71,220c47,52,106,79,178,79c66,0,119,-21,162,-64c43,-42,63,-96,63,-157C680,461,640,394,561,344C527,321,506,306,500,295c-8,-9,-13,-22,-13,-37c0,-38,23,-72,69,-102C623,111,695,89,776,89c3,0,5,0,8,0c2,0,4,0,6,0c107,0,192,39,253,116c65,78,95,200,95,365c0,162,-29,283,-87,362c-58,76,-133,116,-223,118c-21,-2,-50,-3,-85,-8c-34,-6,-60,-8,-78,-8c-28,0,-49,8,-65,23c-15,14,-24,35,-24,64c0,29,9,51,26,68c17,13,44,23,79,23c14,0,34,-2,60,-7c27,-5,49,-8,67,-8c4,0,7,1,11,1c2,0,4,0,6,0c89,0,157,32,208,95c50,62,76,166,76,314c0,145,-29,252,-87,318c-56,66,-137,99,-241,101c-72,-2,-126,-14,-162,-37c-38,-24,-57,-47,-57,-73c0,-15,3,-26,8,-34c6,-6,20,-20,44,-39c51,-39,84,-72,101,-100c17,-29,24,-61,24,-98c0,-61,-19,-113,-62,-152c-41,-39,-93,-58,-154,-58c-2,0,-4,0,-7,0c-2,0,-3,0,-5,0c-64,0,-118,24,-161,71c-46,49,-69,112,-69,191c0,110,41,211,125,301c107,116,263,175,468,175c139,0,258,-25,357,-72c100,-48,178,-112,230,-193c50,-81,76,-168,76,-264c0,-106,-32,-199,-98,-283c-66,-82,-176,-154,-328,-215c166,-46,290,-121,374,-222c84,-102,127,-223,127,-363c0,-187,-66,-336,-197,-449C1283,-2,1100,-59,865,-59Z" 
id="f0_8"
transform="scale(4.8828125E-4,-4.8828125E-4)" />


</defs>
</svg>