<?xml version="1.0" encoding="UTF-8" standalone="no"?>
<!DOCTYPE svg PUBLIC "-//W3C//DTD SVG 1.1//EN"
"http://www.w3.org/Graphics/SVG/1.1/DTD/svg11.dtd">
<svg viewBox="0 0 909 1286" version="1.1" xmlns="http://www.w3.org/2000/svg" xmlns:xlink="http://www.w3.org/1999/xlink">
<defs>
</defs>
<g fill="#000000" >
<use xlink:href="#f0_7" transform="matrix(12,0,0,12,443.8,1140.7)" />
<use xlink:href="#f0_9" transform="matrix(12,0,0,12,454.7,1140.7)" />
<use xlink:href="#f0_b" transform="matrix(12,0,0,12,86.4,1140.7)" />
<use xlink:href="#f0_b" transform="matrix(12,0,0,12,96.5,1140.7)" />
<use xlink:href="#f0_5" transform="matrix(12,0,0,12,106.7,1140.7)" />
<use xlink:href="#f0_7" transform="matrix(12,0,0,12,111.4,1140.7)" />
<use xlink:href="#f0_5" transform="matrix(12,0,0,12,121.6,1140.7)" />
<use xlink:href="#f0_k" transform="matrix(12,0,0,12,126.3,1140.7)" />
<use xlink:href="#f0_o" transform="matrix(12,0,0,12,766.5,1140.7)" />
<use xlink:href="#f0_4" transform="matrix(12,0,0,12,780.1,1140.7)" />
<use xlink:href="#f0_r" transform="matrix(12,0,0,12,784.9,1140.7)" />
<use xlink:href="#f0_4" transform="matrix(12,0,0,12,797.8,1140.7)" />
<use xlink:href="#f0_n" transform="matrix(12,0,0,12,802.5,1140.7)" />
<use xlink:href="#f0_4" transform="matrix(12,0,0,12,817.5,1140.7)" />
<use xlink:href="#f1_3" transform="matrix(12,0,0,12,129.7,159.8)" />
<use xlink:href="#f1_1i" transform="matrix(12,0,0,12,135.4,159.8)" />
<use xlink:href="#f1_4" transform="matrix(12,0,0,12,140.7,159.8)" />
<use xlink:href="#f1_o" transform="matrix(12,0,0,12,173,159.8)" />
<use xlink:href="#f1_1r" transform="matrix(12,0,0,12,187.3,159.8)" />
<use xlink:href="#f1_1a" transform="matrix(12,0,0,12,195.4,159.8)" />
<use xlink:href="#f1_1w" transform="matrix(12,0,0,12,205.6,159.8)" />
<use xlink:href="#f1_1a" transform="matrix(12,0,0,12,225.2,159.8)" />
<use xlink:href="#f1_1n" transform="matrix(12,0,0,12,240.7,159.8)" />
<use xlink:href="#f1_1e" transform="matrix(12,0,0,12,251.9,159.8)" />
<use xlink:href="#f1_1a" transform="matrix(12,0,0,12,261,159.8)" />
<use xlink:href="#f1_1t" transform="matrix(12,0,0,12,271.3,159.8)" />
<use xlink:href="#f1_1l" transform="matrix(12,0,0,12,283.7,159.8)" />
<use xlink:href="#f1_1a" transform="matrix(12,0,0,12,289.5,159.8)" />
<use xlink:href="#f1_1b" transform="matrix(12,0,0,12,299.7,159.8)" />
<use xlink:href="#f1_1e" transform="matrix(12,0,0,12,310,159.8)" />
<use xlink:href="#f1_1l" transform="matrix(12,0,0,12,319.1,159.8)" />
<use xlink:href="#f1_1e" transform="matrix(12,0,0,12,324.9,159.8)" />
<use xlink:href="#f1_1d" transform="matrix(12,0,0,12,334.1,159.8)" />
<use xlink:href="#f1_1d" transform="matrix(12,0,0,12,349.9,159.8)" />
<use xlink:href="#f1_1i" transform="matrix(12,0,0,12,360.5,159.8)" />
<use xlink:href="#f1_1a" transform="matrix(12,0,0,12,366.2,159.8)" />
<use xlink:href="#f1_1g" transform="matrix(12,0,0,12,376.5,159.8)" />
<use xlink:href="#f1_1r" transform="matrix(12,0,0,12,386.3,159.8)" />
<use xlink:href="#f1_1a" transform="matrix(12,0,0,12,394.4,159.8)" />
<use xlink:href="#f1_1m" transform="matrix(12,0,0,12,404.7,159.8)" />
<use xlink:href="#f1_1o" transform="matrix(12,0,0,12,426.3,159.8)" />
<use xlink:href="#f1_1f" transform="matrix(12,0,0,12,435.5,159.8)" />
<use xlink:href="#f1_1a" transform="matrix(12,0,0,12,446.9,159.8)" />
<use xlink:href="#f1_1c" transform="matrix(12,0,0,12,462.5,159.8)" />
<use xlink:href="#f1_1y" transform="matrix(12,0,0,12,470.6,159.8)" />
<use xlink:href="#f1_1c" transform="matrix(12,0,0,12,480.5,159.8)" />
<use xlink:href="#f1_1l" transform="matrix(12,0,0,12,488.6,159.8)" />
<use xlink:href="#f1_1o" transform="matrix(12,0,0,12,494.4,159.8)" />
<use xlink:href="#f1_1t" transform="matrix(12,0,0,12,503.5,159.8)" />
<use xlink:href="#f1_1r" transform="matrix(12,0,0,12,510.7,159.8)" />
<use xlink:href="#f1_1o" transform="matrix(12,0,0,12,518.8,159.8)" />
<use xlink:href="#f1_1n" transform="matrix(12,0,0,12,528,159.8)" />
<use xlink:href="#f1_7" transform="matrix(12,0,0,12,539.1,159.8)" />
<use xlink:href="#f1_3" transform="matrix(12,0,0,12,129.7,216.5)" />
<use xlink:href="#f1_1i" transform="matrix(12,0,0,12,135.5,216.5)" />
<use xlink:href="#f1_1i" transform="matrix(12,0,0,12,140.9,216.5)" />
<use xlink:href="#f1_4" transform="matrix(12,0,0,12,146.3,216.5)" />
<use xlink:href="#f1_12" transform="matrix(12,0,0,12,172.8,216.5)" />
<use xlink:href="#f1_1h" transform="matrix(12,0,0,12,184.1,216.5)" />
<use xlink:href="#f1_1o" transform="matrix(12,0,0,12,194.9,216.5)" />
<use xlink:href="#f1_1w" transform="matrix(12,0,0,12,203.7,216.5)" />
<use xlink:href="#f1_1t" transform="matrix(12,0,0,12,222.4,216.5)" />
<use xlink:href="#f1_1h" transform="matrix(12,0,0,12,229.3,216.5)" />
<use xlink:href="#f1_1a" transform="matrix(12,0,0,12,240.1,216.5)" />
<use xlink:href="#f1_1t" transform="matrix(12,0,0,12,249.9,216.5)" />
<use xlink:href="#f1_1t" transform="matrix(12,0,0,12,261.5,216.5)" />
<use xlink:href="#f1_1i" transform="matrix(12,0,0,12,268.4,216.5)" />
<use xlink:href="#f1_1m" transform="matrix(12,0,0,12,273.8,216.5)" />
<use xlink:href="#f1_1e" transform="matrix(12,0,0,12,289.8,216.5)" />
<use xlink:href="#f1_1p" transform="matrix(12,0,0,12,303.4,216.5)" />
<use xlink:href="#f1_1e" transform="matrix(12,0,0,12,313.6,216.5)" />
<use xlink:href="#f1_1r" transform="matrix(12,0,0,12,322.4,216.5)" />
<use xlink:href="#f1_1i" transform="matrix(12,0,0,12,330.2,216.5)" />
<use xlink:href="#f1_1o" transform="matrix(12,0,0,12,335.6,216.5)" />
<use xlink:href="#f1_1d" transform="matrix(12,0,0,12,344.5,216.5)" />
<use xlink:href="#f1_1o" transform="matrix(12,0,0,12,359.4,216.5)" />
<use xlink:href="#f1_1f" transform="matrix(12,0,0,12,368.3,216.5)" />
<use xlink:href="#f1_1i" transform="matrix(12,0,0,12,378.8,216.5)" />
<use xlink:href="#f1_1o" transform="matrix(12,0,0,12,384.2,216.5)" />
<use xlink:href="#f1_1n" transform="matrix(12,0,0,12,393.1,216.5)" />
<use xlink:href="#f1_1s" transform="matrix(12,0,0,12,403.9,216.5)" />
<use xlink:href="#f1_1i" transform="matrix(12,0,0,12,416.8,216.5)" />
<use xlink:href="#f1_1n" transform="matrix(12,0,0,12,422.2,216.5)" />
<use xlink:href="#f1_1c" transform="matrix(12,0,0,12,437.8,216.5)" />
<use xlink:href="#f1_1y" transform="matrix(12,0,0,12,445.5,216.5)" />
<use xlink:href="#f1_1c" transform="matrix(12,0,0,12,455.1,216.5)" />
<use xlink:href="#f1_1l" transform="matrix(12,0,0,12,462.8,216.5)" />
<use xlink:href="#f1_1o" transform="matrix(12,0,0,12,468.3,216.5)" />
<use xlink:href="#f1_1t" transform="matrix(12,0,0,12,477.1,216.5)" />
<use xlink:href="#f1_1r" transform="matrix(12,0,0,12,483.9,216.5)" />
<use xlink:href="#f1_1o" transform="matrix(12,0,0,12,491.7,216.5)" />
<use xlink:href="#f1_1n" transform="matrix(12,0,0,12,500.5,216.5)" />
<use xlink:href="#f1_1i" transform="matrix(12,0,0,12,516.1,216.5)" />
<use xlink:href="#f1_1s" transform="matrix(12,0,0,12,521.5,216.5)" />
<use xlink:href="#f1_1i" transform="matrix(12,0,0,12,534.4,216.5)" />
<use xlink:href="#f1_1n" transform="matrix(12,0,0,12,539.9,216.5)" />
<use xlink:href="#f1_1d" transform="matrix(12,0,0,12,550.7,216.5)" />
<use xlink:href="#f1_1e" transform="matrix(12,0,0,12,560.9,216.5)" />
<use xlink:href="#f1_1p" transform="matrix(12,0,0,12,569.7,216.5)" />
<use xlink:href="#f1_1e" transform="matrix(12,0,0,12,579.9,216.5)" />
<use xlink:href="#f1_1n" transform="matrix(12,0,0,12,588.7,216.5)" />
<use xlink:href="#f1_1d" transform="matrix(12,0,0,12,599.5,216.5)" />
<use xlink:href="#f1_1e" transform="matrix(12,0,0,12,609.7,216.5)" />
<use xlink:href="#f1_1n" transform="matrix(12,0,0,12,618.6,216.5)" />
<use xlink:href="#f1_1t" transform="matrix(12,0,0,12,629.4,216.5)" />
<use xlink:href="#f1_1o" transform="matrix(12,0,0,12,641,216.5)" />
<use xlink:href="#f1_1f" transform="matrix(12,0,0,12,649.8,216.5)" />
<use xlink:href="#f1_1b" transform="matrix(12,0,0,12,660.3,216.5)" />
<use xlink:href="#f1_1o" transform="matrix(12,0,0,12,670.2,216.5)" />
<use xlink:href="#f1_1t" transform="matrix(12,0,0,12,679,216.5)" />
<use xlink:href="#f1_1h" transform="matrix(12,0,0,12,685.9,216.5)" />
<use xlink:href="#f1_1t" transform="matrix(12,0,0,12,701.4,216.5)" />
<use xlink:href="#f1_1h" transform="matrix(12,0,0,12,708.3,216.5)" />
<use xlink:href="#f1_1e" transform="matrix(12,0,0,12,719.1,216.5)" />
<use xlink:href="#f1_1s" transform="matrix(12,0,0,12,732.7,216.5)" />
<use xlink:href="#f1_1p" transform="matrix(12,0,0,12,740.8,216.5)" />
<use xlink:href="#f1_1e" transform="matrix(12,0,0,12,751,216.5)" />
<use xlink:href="#f1_1e" transform="matrix(12,0,0,12,759.8,216.5)" />
<use xlink:href="#f1_1d" transform="matrix(12,0,0,12,768.6,216.5)" />
<use xlink:href="#f1_1o" transform="matrix(12,0,0,12,173,238.5)" />
<use xlink:href="#f1_1f" transform="matrix(12,0,0,12,182.4,238.5)" />
<use xlink:href="#f1_1i" transform="matrix(12,0,0,12,196.8,238.5)" />
<use xlink:href="#f1_1o" transform="matrix(12,0,0,12,202.8,238.5)" />
<use xlink:href="#f1_1n" transform="matrix(12,0,0,12,212.2,238.5)" />
<use xlink:href="#f1_1a" transform="matrix(12,0,0,12,231.6,238.5)" />
<use xlink:href="#f1_1n" transform="matrix(12,0,0,12,242.1,238.5)" />
<use xlink:href="#f1_1d" transform="matrix(12,0,0,12,253.5,238.5)" />
<use xlink:href="#f1_1r" transform="matrix(12,0,0,12,272.2,238.5)" />
<use xlink:href="#f1_1a" transform="matrix(12,0,0,12,280.6,238.5)" />
<use xlink:href="#f1_1d" transform="matrix(12,0,0,12,291.1,238.5)" />
<use xlink:href="#f1_1i" transform="matrix(12,0,0,12,301.9,238.5)" />
<use xlink:href="#f1_1u" transform="matrix(12,0,0,12,308,238.5)" />
<use xlink:href="#f1_1s" transform="matrix(12,0,0,12,319.4,238.5)" />
<use xlink:href="#f1_1o" transform="matrix(12,0,0,12,336.1,238.5)" />
<use xlink:href="#f1_1f" transform="matrix(12,0,0,12,345.5,238.5)" />
<use xlink:href="#f1_1c" transform="matrix(12,0,0,12,359.8,238.5)" />
<use xlink:href="#f1_1i" transform="matrix(12,0,0,12,368.2,238.5)" />
<use xlink:href="#f1_1r" transform="matrix(12,0,0,12,374.3,238.5)" />
<use xlink:href="#f1_1c" transform="matrix(12,0,0,12,382.7,238.5)" />
<use xlink:href="#f1_1u" transform="matrix(12,0,0,12,391,238.5)" />
<use xlink:href="#f1_1l" transform="matrix(12,0,0,12,402.5,238.5)" />
<use xlink:href="#f1_1a" transform="matrix(12,0,0,12,408.5,238.5)" />
<use xlink:href="#f1_1r" transform="matrix(12,0,0,12,419,238.5)" />
<use xlink:href="#f1_1p" transform="matrix(12,0,0,12,435.3,238.5)" />
<use xlink:href="#f1_1a" transform="matrix(12,0,0,12,446.1,238.5)" />
<use xlink:href="#f1_1t" transform="matrix(12,0,0,12,456.6,238.5)" />
<use xlink:href="#f1_1h" transform="matrix(12,0,0,12,464.1,238.5)" />
<use xlink:href="#f1_7" transform="matrix(12,0,0,12,475.5,238.5)" />
<use xlink:href="#f1_16" transform="matrix(12,0,0,12,496.7,238.5)" />
<use xlink:href="#f1_1h" transform="matrix(12,0,0,12,515,238.5)" />
<use xlink:href="#f1_1a" transform="matrix(12,0,0,12,526.4,238.5)" />
<use xlink:href="#f1_1t" transform="matrix(12,0,0,12,536.9,238.5)" />
<use xlink:href="#f1_1i" transform="matrix(12,0,0,12,552.2,238.5)" />
<use xlink:href="#f1_1s" transform="matrix(12,0,0,12,558.3,238.5)" />
<use xlink:href="#f1_1t" transform="matrix(12,0,0,12,575,238.5)" />
<use xlink:href="#f1_1h" transform="matrix(12,0,0,12,582.4,238.5)" />
<use xlink:href="#f1_1e" transform="matrix(12,0,0,12,593.8,238.5)" />
<use xlink:href="#f1_1s" transform="matrix(12,0,0,12,611.2,238.5)" />
<use xlink:href="#f1_1i" transform="matrix(12,0,0,12,619.9,238.5)" />
<use xlink:href="#f1_1g" transform="matrix(12,0,0,12,626,238.5)" />
<use xlink:href="#f1_1n" transform="matrix(12,0,0,12,636.1,238.5)" />
<use xlink:href="#f1_1i" transform="matrix(12,0,0,12,647.5,238.5)" />
<use xlink:href="#f1_1f" transform="matrix(12,0,0,12,653.6,238.5)" />
<use xlink:href="#f1_1i" transform="matrix(12,0,0,12,660,238.5)" />
<use xlink:href="#f1_1c" transform="matrix(12,0,0,12,666,238.5)" />
<use xlink:href="#f1_1a" transform="matrix(12,0,0,12,674.4,238.5)" />
<use xlink:href="#f1_1n" transform="matrix(12,0,0,12,684.9,238.5)" />
<use xlink:href="#f1_1c" transform="matrix(12,0,0,12,696.3,238.5)" />
<use xlink:href="#f1_1e" transform="matrix(12,0,0,12,704.7,238.5)" />
<use xlink:href="#f1_1o" transform="matrix(12,0,0,12,722.1,238.5)" />
<use xlink:href="#f1_1f" transform="matrix(12,0,0,12,731.5,238.5)" />
<use xlink:href="#f1_1t" transform="matrix(12,0,0,12,745.8,238.5)" />
<use xlink:href="#f1_1h" transform="matrix(12,0,0,12,753.3,238.5)" />
<use xlink:href="#f1_1i" transform="matrix(12,0,0,12,764.7,238.5)" />
<use xlink:href="#f1_1s" transform="matrix(12,0,0,12,770.7,238.5)" />
<use xlink:href="#f1_1p" transform="matrix(12,0,0,12,173,260.5)" />
<use xlink:href="#f1_1r" transform="matrix(12,0,0,12,183.5,260.5)" />
<use xlink:href="#f1_1o" transform="matrix(12,0,0,12,191.7,260.5)" />
<use xlink:href="#f1_1p" transform="matrix(12,0,0,12,200.8,260.5)" />
<use xlink:href="#f1_1e" transform="matrix(12,0,0,12,211.4,260.5)" />
<use xlink:href="#f1_1r" transform="matrix(12,0,0,12,220.5,260.5)" />
<use xlink:href="#f1_1t" transform="matrix(12,0,0,12,228.6,260.5)" />
<use xlink:href="#f1_1y" transform="matrix(12,0,0,12,235.8,260.5)" />
<use xlink:href="#f1_k" transform="matrix(12,0,0,12,250.8,260.5)" />
<use xlink:href="#f1_3" transform="matrix(12,0,0,12,129.7,317.2)" />
<use xlink:href="#f1_1i" transform="matrix(12,0,0,12,135.6,317.2)" />
<use xlink:href="#f1_1i" transform="matrix(12,0,0,12,141.1,317.2)" />
<use xlink:href="#f1_1i" transform="matrix(12,0,0,12,146.6,317.2)" />
<use xlink:href="#f1_4" transform="matrix(12,0,0,12,152.2,317.2)" />
<use xlink:href="#f1_l" transform="matrix(12,0,0,12,173,317.2)" />
<use xlink:href="#f1_1n" transform="matrix(12,0,0,12,186.3,317.2)" />
<use xlink:href="#f1_1e" transform="matrix(12,0,0,12,205.5,317.2)" />
<use xlink:href="#f1_1l" transform="matrix(12,0,0,12,214.8,317.2)" />
<use xlink:href="#f1_1e" transform="matrix(12,0,0,12,220.7,317.2)" />
<use xlink:href="#f1_1c" transform="matrix(12,0,0,12,230,317.2)" />
<use xlink:href="#f1_1t" transform="matrix(12,0,0,12,238.2,317.2)" />
<use xlink:href="#f1_1r" transform="matrix(12,0,0,12,245.6,317.2)" />
<use xlink:href="#f1_1o" transform="matrix(12,0,0,12,253.8,317.2)" />
<use xlink:href="#f1_1n" transform="matrix(12,0,0,12,263.1,317.2)" />
<use xlink:href="#f1_1a" transform="matrix(12,0,0,12,282.2,317.2)" />
<use xlink:href="#f1_1f" transform="matrix(12,0,0,12,292.6,317.2)" />
<use xlink:href="#f1_1t" transform="matrix(12,0,0,12,298.8,317.2)" />
<use xlink:href="#f1_1e" transform="matrix(12,0,0,12,306.1,317.2)" />
<use xlink:href="#f1_1r" transform="matrix(12,0,0,12,315.4,317.2)" />
<use xlink:href="#f1_1b" transform="matrix(12,0,0,12,331.5,317.2)" />
<use xlink:href="#f1_1e" transform="matrix(12,0,0,12,341.8,317.2)" />
<use xlink:href="#f1_1i" transform="matrix(12,0,0,12,351.1,317.2)" />
<use xlink:href="#f1_1n" transform="matrix(12,0,0,12,357.1,317.2)" />
<use xlink:href="#f1_1g" transform="matrix(12,0,0,12,368.3,317.2)" />
<use xlink:href="#f1_1a" transform="matrix(12,0,0,12,386.2,317.2)" />
<use xlink:href="#f1_1c" transform="matrix(12,0,0,12,396.5,317.2)" />
<use xlink:href="#f1_1c" transform="matrix(12,0,0,12,404.8,317.2)" />
<use xlink:href="#f1_1e" transform="matrix(12,0,0,12,413,317.2)" />
<use xlink:href="#f1_1l" transform="matrix(12,0,0,12,422.3,317.2)" />
<use xlink:href="#f1_1e" transform="matrix(12,0,0,12,428.2,317.2)" />
<use xlink:href="#f1_1r" transform="matrix(12,0,0,12,437.6,317.2)" />
<use xlink:href="#f1_1a" transform="matrix(12,0,0,12,445.8,317.2)" />
<use xlink:href="#f1_1t" transform="matrix(12,0,0,12,456.2,317.2)" />
<use xlink:href="#f1_1e" transform="matrix(12,0,0,12,463.5,317.2)" />
<use xlink:href="#f1_1d" transform="matrix(12,0,0,12,472.8,317.2)" />
<use xlink:href="#f1_1t" transform="matrix(12,0,0,12,491.3,317.2)" />
<use xlink:href="#f1_1h" transform="matrix(12,0,0,12,498.6,317.2)" />
<use xlink:href="#f1_1r" transform="matrix(12,0,0,12,509.8,317.2)" />
<use xlink:href="#f1_1o" transform="matrix(12,0,0,12,518.1,317.2)" />
<use xlink:href="#f1_1u" transform="matrix(12,0,0,12,527.4,317.2)" />
<use xlink:href="#f1_1g" transform="matrix(12,0,0,12,538.7,317.2)" />
<use xlink:href="#f1_1h" transform="matrix(12,0,0,12,548.7,317.2)" />
<use xlink:href="#f1_1a" transform="matrix(12,0,0,12,567.8,317.2)" />
<use xlink:href="#f1_1p" transform="matrix(12,0,0,12,585.9,317.2)" />
<use xlink:href="#f1_1o" transform="matrix(12,0,0,12,596.6,317.2)" />
<use xlink:href="#f1_1t" transform="matrix(12,0,0,12,605.9,317.2)" />
<use xlink:href="#f1_1e" transform="matrix(12,0,0,12,613.2,317.2)" />
<use xlink:href="#f1_1n" transform="matrix(12,0,0,12,622.5,317.2)" />
<use xlink:href="#f1_1t" transform="matrix(12,0,0,12,633.8,317.2)" />
<use xlink:href="#f1_1i" transform="matrix(12,0,0,12,641.1,317.2)" />
<use xlink:href="#f1_1a" transform="matrix(12,0,0,12,647,317.2)" />
<use xlink:href="#f1_1l" transform="matrix(12,0,0,12,657.4,317.2)" />
<use xlink:href="#f1_1d" transform="matrix(12,0,0,12,671.1,317.2)" />
<use xlink:href="#f1_1i" transform="matrix(12,0,0,12,681.8,317.2)" />
<use xlink:href="#f1_1f" transform="matrix(12,0,0,12,687.7,317.2)" />
<use xlink:href="#f1_1f" transform="matrix(12,0,0,12,694,317.2)" />
<use xlink:href="#f1_1e" transform="matrix(12,0,0,12,700.2,317.2)" />
<use xlink:href="#f1_1r" transform="matrix(12,0,0,12,709.5,317.2)" />
<use xlink:href="#f1_1e" transform="matrix(12,0,0,12,717.8,317.2)" />
<use xlink:href="#f1_1n" transform="matrix(12,0,0,12,727.1,317.2)" />
<use xlink:href="#f1_1c" transform="matrix(12,0,0,12,738.4,317.2)" />
<use xlink:href="#f1_1e" transform="matrix(12,0,0,12,746.7,317.2)" />
<use xlink:href="#f1_1o" transform="matrix(12,0,0,12,763.8,317.2)" />
<use xlink:href="#f1_1f" transform="matrix(12,0,0,12,773.1,317.2)" />
<use xlink:href="#f1_a" transform="matrix(12,0,0,12,173,339.2)" />
<use xlink:href="#f1_9" transform="matrix(12,0,0,12,183.2,339.2)" />
<use xlink:href="#f1_9" transform="matrix(12,0,0,12,193.4,339.2)" />
<use xlink:href="#f1_15" transform="matrix(12,0,0,12,210.8,339.2)" />
<use xlink:href="#f1_1e" transform="matrix(12,0,0,12,231.2,339.2)" />
<use xlink:href="#f1_1n" transform="matrix(12,0,0,12,240.4,339.2)" />
<use xlink:href="#f1_1t" transform="matrix(12,0,0,12,251.6,339.2)" />
<use xlink:href="#f1_1e" transform="matrix(12,0,0,12,258.7,339.2)" />
<use xlink:href="#f1_1r" transform="matrix(12,0,0,12,267.9,339.2)" />
<use xlink:href="#f1_1s" transform="matrix(12,0,0,12,276,339.2)" />
<use xlink:href="#f1_1a" transform="matrix(12,0,0,12,291.7,339.2)" />
<use xlink:href="#f1_1u" transform="matrix(12,0,0,12,309.1,339.2)" />
<use xlink:href="#f1_1n" transform="matrix(12,0,0,12,320.2,339.2)" />
<use xlink:href="#f1_1i" transform="matrix(12,0,0,12,331.4,339.2)" />
<use xlink:href="#f1_1f" transform="matrix(12,0,0,12,337.1,339.2)" />
<use xlink:href="#f1_1o" transform="matrix(12,0,0,12,343.3,339.2)" />
<use xlink:href="#f1_1r" transform="matrix(12,0,0,12,352.4,339.2)" />
<use xlink:href="#f1_1m" transform="matrix(12,0,0,12,360.6,339.2)" />
<use xlink:href="#f1_1m" transform="matrix(12,0,0,12,384.1,339.2)" />
<use xlink:href="#f1_1a" transform="matrix(12,0,0,12,400.5,339.2)" />
<use xlink:href="#f1_1g" transform="matrix(12,0,0,12,410.7,339.2)" />
<use xlink:href="#f1_1n" transform="matrix(12,0,0,12,420.5,339.2)" />
<use xlink:href="#f1_1e" transform="matrix(12,0,0,12,431.7,339.2)" />
<use xlink:href="#f1_1t" transform="matrix(12,0,0,12,440.9,339.2)" />
<use xlink:href="#f1_1i" transform="matrix(12,0,0,12,448,339.2)" />
<use xlink:href="#f1_1c" transform="matrix(12,0,0,12,453.8,339.2)" />
<use xlink:href="#f1_1f" transform="matrix(12,0,0,12,469.1,339.2)" />
<use xlink:href="#f1_1i" transform="matrix(12,0,0,12,475.2,339.2)" />
<use xlink:href="#f1_1e" transform="matrix(12,0,0,12,481,339.2)" />
<use xlink:href="#f1_1l" transform="matrix(12,0,0,12,490.2,339.2)" />
<use xlink:href="#f1_1d" transform="matrix(12,0,0,12,496,339.2)" />
<use xlink:href="#f1_1o" transform="matrix(12,0,0,12,513.7,339.2)" />
<use xlink:href="#f1_1f" transform="matrix(12,0,0,12,522.9,339.2)" />
<use xlink:href="#f1_9" transform="matrix(12,0,0,12,536.2,339.2)" />
<use xlink:href="#f1_7" transform="matrix(12,0,0,12,546.4,339.2)" />
<use xlink:href="#f1_9" transform="matrix(12,0,0,12,551.5,339.2)" />
<use xlink:href="#f1_9" transform="matrix(12,0,0,12,561.7,339.2)" />
<use xlink:href="#f1_d" transform="matrix(12,0,0,12,571.9,339.2)" />
<use xlink:href="#f1_13" transform="matrix(12,0,0,12,589.3,339.2)" />
<use xlink:href="#f1_1p" transform="matrix(12,0,0,12,608.7,339.2)" />
<use xlink:href="#f1_1e" transform="matrix(12,0,0,12,619.2,339.2)" />
<use xlink:href="#f1_1r" transform="matrix(12,0,0,12,628.4,339.2)" />
<use xlink:href="#f1_1p" transform="matrix(12,0,0,12,636.5,339.2)" />
<use xlink:href="#f1_1e" transform="matrix(12,0,0,12,647.1,339.2)" />
<use xlink:href="#f1_1n" transform="matrix(12,0,0,12,656.2,339.2)" />
<use xlink:href="#f1_1d" transform="matrix(12,0,0,12,667.4,339.2)" />
<use xlink:href="#f1_1i" transform="matrix(12,0,0,12,677.9,339.2)" />
<use xlink:href="#f1_1c" transform="matrix(12,0,0,12,683.7,339.2)" />
<use xlink:href="#f1_1u" transform="matrix(12,0,0,12,691.8,339.2)" />
<use xlink:href="#f1_1l" transform="matrix(12,0,0,12,703,339.2)" />
<use xlink:href="#f1_1a" transform="matrix(12,0,0,12,708.8,339.2)" />
<use xlink:href="#f1_1r" transform="matrix(12,0,0,12,719,339.2)" />
<use xlink:href="#f1_1t" transform="matrix(12,0,0,12,734.3,339.2)" />
<use xlink:href="#f1_1o" transform="matrix(12,0,0,12,741.4,339.2)" />
<use xlink:href="#f1_1i" transform="matrix(12,0,0,12,757.8,339.2)" />
<use xlink:href="#f1_1t" transform="matrix(12,0,0,12,763.6,339.2)" />
<use xlink:href="#f1_1s" transform="matrix(12,0,0,12,770.7,339.2)" />
<use xlink:href="#f1_1d" transform="matrix(12,0,0,12,173,361.2)" />
<use xlink:href="#f1_1i" transform="matrix(12,0,0,12,183.5,361.2)" />
<use xlink:href="#f1_1r" transform="matrix(12,0,0,12,189.3,361.2)" />
<use xlink:href="#f1_1e" transform="matrix(12,0,0,12,197.5,361.2)" />
<use xlink:href="#f1_1c" transform="matrix(12,0,0,12,206.6,361.2)" />
<use xlink:href="#f1_1t" transform="matrix(12,0,0,12,214.8,361.2)" />
<use xlink:href="#f1_1i" transform="matrix(12,0,0,12,221.9,361.2)" />
<use xlink:href="#f1_1o" transform="matrix(12,0,0,12,227.7,361.2)" />
<use xlink:href="#f1_1n" transform="matrix(12,0,0,12,236.9,361.2)" />
<use xlink:href="#f1_1o" transform="matrix(12,0,0,12,254.7,361.2)" />
<use xlink:href="#f1_1f" transform="matrix(12,0,0,12,263.9,361.2)" />
<use xlink:href="#f1_1m" transform="matrix(12,0,0,12,276.6,361.2)" />
<use xlink:href="#f1_1o" transform="matrix(12,0,0,12,293,361.2)" />
<use xlink:href="#f1_1t" transform="matrix(12,0,0,12,302.2,361.2)" />
<use xlink:href="#f1_1i" transform="matrix(12,0,0,12,309.3,361.2)" />
<use xlink:href="#f1_1o" transform="matrix(12,0,0,12,315.1,361.2)" />
<use xlink:href="#f1_1n" transform="matrix(12,0,0,12,324.3,361.2)" />
<use xlink:href="#f1_7" transform="matrix(12,0,0,12,335.4,361.2)" />
<use xlink:href="#f1_n" transform="matrix(12,0,0,12,353.8,361.2)" />
<use xlink:href="#f1_1a" transform="matrix(12,0,0,12,367,361.2)" />
<use xlink:href="#f1_1l" transform="matrix(12,0,0,12,377.3,361.2)" />
<use xlink:href="#f1_1c" transform="matrix(12,0,0,12,383,361.2)" />
<use xlink:href="#f1_1u" transform="matrix(12,0,0,12,391.2,361.2)" />
<use xlink:href="#f1_1l" transform="matrix(12,0,0,12,402.3,361.2)" />
<use xlink:href="#f1_1a" transform="matrix(12,0,0,12,408.1,361.2)" />
<use xlink:href="#f1_1t" transform="matrix(12,0,0,12,418.3,361.2)" />
<use xlink:href="#f1_1e" transform="matrix(12,0,0,12,425.5,361.2)" />
<use xlink:href="#f1_1t" transform="matrix(12,0,0,12,441.3,361.2)" />
<use xlink:href="#f1_1h" transform="matrix(12,0,0,12,448.5,361.2)" />
<use xlink:href="#f1_1e" transform="matrix(12,0,0,12,459.6,361.2)" />
<use xlink:href="#f1_1r" transform="matrix(12,0,0,12,475.4,361.2)" />
<use xlink:href="#f1_1a" transform="matrix(12,0,0,12,483.6,361.2)" />
<use xlink:href="#f1_1d" transform="matrix(12,0,0,12,493.8,361.2)" />
<use xlink:href="#f1_1i" transform="matrix(12,0,0,12,504.3,361.2)" />
<use xlink:href="#f1_1u" transform="matrix(12,0,0,12,510.1,361.2)" />
<use xlink:href="#f1_1s" transform="matrix(12,0,0,12,521.3,361.2)" />
<use xlink:href="#f1_1o" transform="matrix(12,0,0,12,536.4,361.2)" />
<use xlink:href="#f1_1f" transform="matrix(12,0,0,12,545.6,361.2)" />
<use xlink:href="#f1_1t" transform="matrix(12,0,0,12,558.3,361.2)" />
<use xlink:href="#f1_1h" transform="matrix(12,0,0,12,565.5,361.2)" />
<use xlink:href="#f1_1e" transform="matrix(12,0,0,12,576.7,361.2)" />
<use xlink:href="#f1_1p" transform="matrix(12,0,0,12,592.5,361.2)" />
<use xlink:href="#f1_1a" transform="matrix(12,0,0,12,603,361.2)" />
<use xlink:href="#f1_1t" transform="matrix(12,0,0,12,613.2,361.2)" />
<use xlink:href="#f1_1h" transform="matrix(12,0,0,12,620.4,361.2)" />
<use xlink:href="#f1_1d" transform="matrix(12,0,0,12,638.2,361.2)" />
<use xlink:href="#f1_1e" transform="matrix(12,0,0,12,648.7,361.2)" />
<use xlink:href="#f1_1s" transform="matrix(12,0,0,12,657.9,361.2)" />
<use xlink:href="#f1_1c" transform="matrix(12,0,0,12,666.4,361.2)" />
<use xlink:href="#f1_1r" transform="matrix(12,0,0,12,674.5,361.2)" />
<use xlink:href="#f1_1i" transform="matrix(12,0,0,12,682.6,361.2)" />
<use xlink:href="#f1_1b" transform="matrix(12,0,0,12,688.4,361.2)" />
<use xlink:href="#f1_1e" transform="matrix(12,0,0,12,698.7,361.2)" />
<use xlink:href="#f1_1d" transform="matrix(12,0,0,12,707.8,361.2)" />
<use xlink:href="#f1_1b" transform="matrix(12,0,0,12,725,361.2)" />
<use xlink:href="#f1_1y" transform="matrix(12,0,0,12,735.2,361.2)" />
<use xlink:href="#f1_1t" transform="matrix(12,0,0,12,751.7,361.2)" />
<use xlink:href="#f1_1h" transform="matrix(12,0,0,12,758.9,361.2)" />
<use xlink:href="#f1_1e" transform="matrix(12,0,0,12,770.1,361.2)" />
<use xlink:href="#f1_1e" transform="matrix(12,0,0,12,173,383.2)" />
<use xlink:href="#f1_1l" transform="matrix(12,0,0,12,182.1,383.2)" />
<use xlink:href="#f1_1e" transform="matrix(12,0,0,12,187.7,383.2)" />
<use xlink:href="#f1_1c" transform="matrix(12,0,0,12,196.8,383.2)" />
<use xlink:href="#f1_1t" transform="matrix(12,0,0,12,204.8,383.2)" />
<use xlink:href="#f1_1r" transform="matrix(12,0,0,12,211.9,383.2)" />
<use xlink:href="#f1_1o" transform="matrix(12,0,0,12,219.9,383.2)" />
<use xlink:href="#f1_1n" transform="matrix(12,0,0,12,229,383.2)" />
<use xlink:href="#f1_7" transform="matrix(12,0,0,12,240,383.2)" />
<use xlink:href="#f0_n" transform="matrix(12,0,0,12,439.6,439.8)" />
<use xlink:href="#f0_p" transform="matrix(12,0,0,12,454.4,439.8)" />
<use xlink:href="#f1_3" transform="matrix(12,0,0,12,129.7,496.6)" />
<use xlink:href="#f1_1i" transform="matrix(12,0,0,12,135.4,496.6)" />
<use xlink:href="#f1_4" transform="matrix(12,0,0,12,140.7,496.6)" />
<use xlink:href="#f1_o" transform="matrix(12,0,0,12,173,496.6)" />
<use xlink:href="#f1_1e" transform="matrix(12,0,0,12,187.2,496.6)" />
<use xlink:href="#f1_1p" transform="matrix(12,0,0,12,196.3,496.6)" />
<use xlink:href="#f1_1i" transform="matrix(12,0,0,12,206.8,496.6)" />
<use xlink:href="#f1_1c" transform="matrix(12,0,0,12,212.5,496.6)" />
<use xlink:href="#f1_1t" transform="matrix(12,0,0,12,220.6,496.6)" />
<use xlink:href="#f1_1m" transform="matrix(12,0,0,12,232.7,496.6)" />
<use xlink:href="#f1_1a" transform="matrix(12,0,0,12,249,496.6)" />
<use xlink:href="#f1_1g" transform="matrix(12,0,0,12,259.2,496.6)" />
<use xlink:href="#f1_1n" transform="matrix(12,0,0,12,269,496.6)" />
<use xlink:href="#f1_1e" transform="matrix(12,0,0,12,280.1,496.6)" />
<use xlink:href="#f1_1t" transform="matrix(12,0,0,12,289.2,496.6)" />
<use xlink:href="#f1_1i" transform="matrix(12,0,0,12,296.3,496.6)" />
<use xlink:href="#f1_1c" transform="matrix(12,0,0,12,302,496.6)" />
<use xlink:href="#f1_1f" transform="matrix(12,0,0,12,315.2,496.6)" />
<use xlink:href="#f1_1i" transform="matrix(12,0,0,12,321.2,496.6)" />
<use xlink:href="#f1_1e" transform="matrix(12,0,0,12,326.9,496.6)" />
<use xlink:href="#f1_1l" transform="matrix(12,0,0,12,336.1,496.6)" />
<use xlink:href="#f1_1d" transform="matrix(12,0,0,12,341.8,496.6)" />
<use xlink:href="#f1_1l" transform="matrix(12,0,0,12,357.3,496.6)" />
<use xlink:href="#f1_1i" transform="matrix(12,0,0,12,363,496.6)" />
<use xlink:href="#f1_1n" transform="matrix(12,0,0,12,368.7,496.6)" />
<use xlink:href="#f1_1e" transform="matrix(12,0,0,12,379.8,496.6)" />
<use xlink:href="#f1_1s" transform="matrix(12,0,0,12,388.9,496.6)" />
<use xlink:href="#f1_1d" transform="matrix(12,0,0,12,402.4,496.6)" />
<use xlink:href="#f1_1u" transform="matrix(12,0,0,12,412.9,496.6)" />
<use xlink:href="#f1_1e" transform="matrix(12,0,0,12,424,496.6)" />
<use xlink:href="#f1_1t" transform="matrix(12,0,0,12,438.1,496.6)" />
<use xlink:href="#f1_1o" transform="matrix(12,0,0,12,445.2,496.6)" />
<use xlink:href="#f1_1t" transform="matrix(12,0,0,12,459.4,496.6)" />
<use xlink:href="#f1_1w" transform="matrix(12,0,0,12,466.5,496.6)" />
<use xlink:href="#f1_1o" transform="matrix(12,0,0,12,480.7,496.6)" />
<use xlink:href="#f1_1s" transform="matrix(12,0,0,12,494.9,496.6)" />
<use xlink:href="#f1_1t" transform="matrix(12,0,0,12,503.3,496.6)" />
<use xlink:href="#f1_1r" transform="matrix(12,0,0,12,510.4,496.6)" />
<use xlink:href="#f1_1a" transform="matrix(12,0,0,12,518.5,496.6)" />
<use xlink:href="#f1_1i" transform="matrix(12,0,0,12,528.6,496.6)" />
<use xlink:href="#f1_1g" transform="matrix(12,0,0,12,534.4,496.6)" />
<use xlink:href="#f1_1h" transform="matrix(12,0,0,12,544.2,496.6)" />
<use xlink:href="#f1_1t" transform="matrix(12,0,0,12,555.3,496.6)" />
<use xlink:href="#f1_5" transform="matrix(12,0,0,12,562.4,496.6)" />
<use xlink:href="#f1_1l" transform="matrix(12,0,0,12,572.5,496.6)" />
<use xlink:href="#f1_1o" transform="matrix(12,0,0,12,578.2,496.6)" />
<use xlink:href="#f1_1n" transform="matrix(12,0,0,12,587.3,496.6)" />
<use xlink:href="#f1_1g" transform="matrix(12,0,0,12,598.4,496.6)" />
<use xlink:href="#f1_5" transform="matrix(12,0,0,12,608.2,496.6)" />
<use xlink:href="#f1_1p" transform="matrix(12,0,0,12,618.3,496.6)" />
<use xlink:href="#f1_1a" transform="matrix(12,0,0,12,628.8,496.6)" />
<use xlink:href="#f1_1r" transform="matrix(12,0,0,12,638.9,496.6)" />
<use xlink:href="#f1_1a" transform="matrix(12,0,0,12,647,496.6)" />
<use xlink:href="#f1_1l" transform="matrix(12,0,0,12,657.1,496.6)" />
<use xlink:href="#f1_1l" transform="matrix(12,0,0,12,662.9,496.6)" />
<use xlink:href="#f1_1e" transform="matrix(12,0,0,12,668.6,496.6)" />
<use xlink:href="#f1_1l" transform="matrix(12,0,0,12,677.7,496.6)" />
<use xlink:href="#f1_1c" transform="matrix(12,0,0,12,688.5,496.6)" />
<use xlink:href="#f1_1o" transform="matrix(12,0,0,12,696.5,496.6)" />
<use xlink:href="#f1_1n" transform="matrix(12,0,0,12,705.6,496.6)" />
<use xlink:href="#f1_1d" transform="matrix(12,0,0,12,716.7,496.6)" />
<use xlink:href="#f1_1u" transform="matrix(12,0,0,12,727.2,496.6)" />
<use xlink:href="#f1_1c" transform="matrix(12,0,0,12,738.3,496.6)" />
<use xlink:href="#f1_1t" transform="matrix(12,0,0,12,746.4,496.6)" />
<use xlink:href="#f1_1o" transform="matrix(12,0,0,12,753.5,496.6)" />
<use xlink:href="#f1_1r" transform="matrix(12,0,0,12,762.6,496.6)" />
<use xlink:href="#f1_1s" transform="matrix(12,0,0,12,770.7,496.6)" />
<use xlink:href="#f1_1c" transform="matrix(12,0,0,12,173,518.6)" />
<use xlink:href="#f1_1a" transform="matrix(12,0,0,12,181.1,518.6)" />
<use xlink:href="#f1_1r" transform="matrix(12,0,0,12,191.4,518.6)" />
<use xlink:href="#f1_1r" transform="matrix(12,0,0,12,199.5,518.6)" />
<use xlink:href="#f1_1y" transform="matrix(12,0,0,12,207.7,518.6)" />
<use xlink:href="#f1_1i" transform="matrix(12,0,0,12,217.5,518.6)" />
<use xlink:href="#f1_1n" transform="matrix(12,0,0,12,223.3,518.6)" />
<use xlink:href="#f1_1g" transform="matrix(12,0,0,12,234.5,518.6)" />
<use xlink:href="#f1_1s" transform="matrix(12,0,0,12,250,518.6)" />
<use xlink:href="#f1_1t" transform="matrix(12,0,0,12,258.5,518.6)" />
<use xlink:href="#f1_1e" transform="matrix(12,0,0,12,265.7,518.6)" />
<use xlink:href="#f1_1a" transform="matrix(12,0,0,12,274.9,518.6)" />
<use xlink:href="#f1_1d" transform="matrix(12,0,0,12,285.1,518.6)" />
<use xlink:href="#f1_1y" transform="matrix(12,0,0,12,295.6,518.6)" />
<use xlink:href="#f1_1c" transform="matrix(12,0,0,12,311.2,518.6)" />
<use xlink:href="#f1_1u" transform="matrix(12,0,0,12,319.3,518.6)" />
<use xlink:href="#f1_1r" transform="matrix(12,0,0,12,330.5,518.6)" />
<use xlink:href="#f1_1r" transform="matrix(12,0,0,12,338.6,518.6)" />
<use xlink:href="#f1_1e" transform="matrix(12,0,0,12,346.7,518.6)" />
<use xlink:href="#f1_1n" transform="matrix(12,0,0,12,355.9,518.6)" />
<use xlink:href="#f1_1t" transform="matrix(12,0,0,12,367.1,518.6)" />
<use xlink:href="#f1_1s" transform="matrix(12,0,0,12,374.3,518.6)" />
<use xlink:href="#f1_t" transform="matrix(12,0,0,12,388.4,518.6)" />
<use xlink:href="#f2_4" transform="matrix(9.6,0,0,9.6,395.9,524.6)" />
<use xlink:href="#f1_1a" transform="matrix(12,0,0,12,409.6,518.6)" />
<use xlink:href="#f1_1n" transform="matrix(12,0,0,12,419.9,518.6)" />
<use xlink:href="#f1_1d" transform="matrix(12,0,0,12,431,518.6)" />
<use xlink:href="#f1_t" transform="matrix(12,0,0,12,447.2,518.6)" />
<use xlink:href="#f2_5" transform="matrix(9.6,0,0,9.6,454.7,524.6)" />
<use xlink:href="#f1_1i" transform="matrix(12,0,0,12,468.4,518.6)" />
<use xlink:href="#f1_1n" transform="matrix(12,0,0,12,474.2,518.6)" />
<use xlink:href="#f1_1t" transform="matrix(12,0,0,12,491,518.6)" />
<use xlink:href="#f1_1h" transform="matrix(12,0,0,12,498.2,518.6)" />
<use xlink:href="#f1_1e" transform="matrix(12,0,0,12,509.3,518.6)" />
<use xlink:href="#f1_1s" transform="matrix(12,0,0,12,524.1,518.6)" />
<use xlink:href="#f1_1a" transform="matrix(12,0,0,12,532.6,518.6)" />
<use xlink:href="#f1_1m" transform="matrix(12,0,0,12,542.8,518.6)" />
<use xlink:href="#f1_1e" transform="matrix(12,0,0,12,559.2,518.6)" />
<use xlink:href="#f1_1d" transform="matrix(12,0,0,12,574,518.6)" />
<use xlink:href="#f1_1i" transform="matrix(12,0,0,12,584.6,518.6)" />
<use xlink:href="#f1_1r" transform="matrix(12,0,0,12,590.3,518.6)" />
<use xlink:href="#f1_1e" transform="matrix(12,0,0,12,598.5,518.6)" />
<use xlink:href="#f1_1c" transform="matrix(12,0,0,12,607.7,518.6)" />
<use xlink:href="#f1_1t" transform="matrix(12,0,0,12,615.8,518.6)" />
<use xlink:href="#f1_1i" transform="matrix(12,0,0,12,623,518.6)" />
<use xlink:href="#f1_1o" transform="matrix(12,0,0,12,628.8,518.6)" />
<use xlink:href="#f1_1n" transform="matrix(12,0,0,12,637.9,518.6)" />
<use xlink:href="#f1_7" transform="matrix(12,0,0,12,649.1,518.6)" />
<use xlink:href="#f1_3" transform="matrix(12,0,0,12,129.7,575.2)" />
<use xlink:href="#f1_1i" transform="matrix(12,0,0,12,135.5,575.2)" />
<use xlink:href="#f1_1i" transform="matrix(12,0,0,12,141,575.2)" />
<use xlink:href="#f1_4" transform="matrix(12,0,0,12,146.5,575.2)" />
<use xlink:href="#f1_16" transform="matrix(12,0,0,12,173,575.2)" />
<use xlink:href="#f1_1r" transform="matrix(12,0,0,12,191.3,575.2)" />
<use xlink:href="#f1_1i" transform="matrix(12,0,0,12,199.8,575.2)" />
<use xlink:href="#f1_1t" transform="matrix(12,0,0,12,205.8,575.2)" />
<use xlink:href="#f1_1e" transform="matrix(12,0,0,12,213.3,575.2)" />
<use xlink:href="#f1_1t" transform="matrix(12,0,0,12,230.8,575.2)" />
<use xlink:href="#f1_1h" transform="matrix(12,0,0,12,238.3,575.2)" />
<use xlink:href="#f1_1e" transform="matrix(12,0,0,12,249.7,575.2)" />
<use xlink:href="#f1_1e" transform="matrix(12,0,0,12,267.2,575.2)" />
<use xlink:href="#f1_1x" transform="matrix(12,0,0,12,276.7,575.2)" />
<use xlink:href="#f1_1p" transform="matrix(12,0,0,12,286.9,575.2)" />
<use xlink:href="#f1_1r" transform="matrix(12,0,0,12,297.7,575.2)" />
<use xlink:href="#f1_1e" transform="matrix(12,0,0,12,306.2,575.2)" />
<use xlink:href="#f1_1s" transform="matrix(12,0,0,12,315.6,575.2)" />
<use xlink:href="#f1_1s" transform="matrix(12,0,0,12,324.4,575.2)" />
<use xlink:href="#f1_1i" transform="matrix(12,0,0,12,333.2,575.2)" />
<use xlink:href="#f1_1o" transform="matrix(12,0,0,12,339.3,575.2)" />
<use xlink:href="#f1_1n" transform="matrix(12,0,0,12,348.8,575.2)" />
<use xlink:href="#f1_1f" transform="matrix(12,0,0,12,368.2,575.2)" />
<use xlink:href="#f1_1o" transform="matrix(12,0,0,12,374.7,575.2)" />
<use xlink:href="#f1_1r" transform="matrix(12,0,0,12,384.2,575.2)" />
<use xlink:href="#f1_1t" transform="matrix(12,0,0,12,400.6,575.2)" />
<use xlink:href="#f1_1h" transform="matrix(12,0,0,12,408.1,575.2)" />
<use xlink:href="#f1_1e" transform="matrix(12,0,0,12,419.5,575.2)" />
<use xlink:href="#f1_1m" transform="matrix(12,0,0,12,437,575.2)" />
<use xlink:href="#f1_1a" transform="matrix(12,0,0,12,453.7,575.2)" />
<use xlink:href="#f1_1g" transform="matrix(12,0,0,12,464.2,575.2)" />
<use xlink:href="#f1_1n" transform="matrix(12,0,0,12,474.4,575.2)" />
<use xlink:href="#f1_1e" transform="matrix(12,0,0,12,485.8,575.2)" />
<use xlink:href="#f1_1t" transform="matrix(12,0,0,12,495.3,575.2)" />
<use xlink:href="#f1_1i" transform="matrix(12,0,0,12,502.8,575.2)" />
<use xlink:href="#f1_1c" transform="matrix(12,0,0,12,508.9,575.2)" />
<use xlink:href="#f1_1f" transform="matrix(12,0,0,12,525.3,575.2)" />
<use xlink:href="#f1_1i" transform="matrix(12,0,0,12,531.7,575.2)" />
<use xlink:href="#f1_1e" transform="matrix(12,0,0,12,537.8,575.2)" />
<use xlink:href="#f1_1l" transform="matrix(12,0,0,12,547.3,575.2)" />
<use xlink:href="#f1_1d" transform="matrix(12,0,0,12,553.4,575.2)" />
<use xlink:href="#f1_1p" transform="matrix(12,0,0,12,572.2,575.2)" />
<use xlink:href="#f1_1r" transform="matrix(12,0,0,12,583.1,575.2)" />
<use xlink:href="#f1_1o" transform="matrix(12,0,0,12,591.5,575.2)" />
<use xlink:href="#f1_1d" transform="matrix(12,0,0,12,601,575.2)" />
<use xlink:href="#f1_1u" transform="matrix(12,0,0,12,611.9,575.2)" />
<use xlink:href="#f1_1c" transform="matrix(12,0,0,12,623.3,575.2)" />
<use xlink:href="#f1_1e" transform="matrix(12,0,0,12,631.8,575.2)" />
<use xlink:href="#f1_1d" transform="matrix(12,0,0,12,641.3,575.2)" />
<use xlink:href="#f1_1b" transform="matrix(12,0,0,12,660.1,575.2)" />
<use xlink:href="#f1_1y" transform="matrix(12,0,0,12,670.6,575.2)" />
<use xlink:href="#f1_1o" transform="matrix(12,0,0,12,688.8,575.2)" />
<use xlink:href="#f1_1n" transform="matrix(12,0,0,12,698.3,575.2)" />
<use xlink:href="#f1_1e" transform="matrix(12,0,0,12,709.7,575.2)" />
<use xlink:href="#f1_1o" transform="matrix(12,0,0,12,727.2,575.2)" />
<use xlink:href="#f1_1f" transform="matrix(12,0,0,12,736.7,575.2)" />
<use xlink:href="#f1_1t" transform="matrix(12,0,0,12,751.1,575.2)" />
<use xlink:href="#f1_1h" transform="matrix(12,0,0,12,758.6,575.2)" />
<use xlink:href="#f1_1e" transform="matrix(12,0,0,12,770,575.2)" />
<use xlink:href="#f1_1c" transform="matrix(12,0,0,12,173,597.2)" />
<use xlink:href="#f1_1o" transform="matrix(12,0,0,12,181.1,597.2)" />
<use xlink:href="#f1_1n" transform="matrix(12,0,0,12,190.3,597.2)" />
<use xlink:href="#f1_1d" transform="matrix(12,0,0,12,201.5,597.2)" />
<use xlink:href="#f1_1u" transform="matrix(12,0,0,12,212,597.2)" />
<use xlink:href="#f1_1c" transform="matrix(12,0,0,12,223.2,597.2)" />
<use xlink:href="#f1_1t" transform="matrix(12,0,0,12,231.4,597.2)" />
<use xlink:href="#f1_1o" transform="matrix(12,0,0,12,238.5,597.2)" />
<use xlink:href="#f1_1r" transform="matrix(12,0,0,12,247.7,597.2)" />
<use xlink:href="#f1_1o" transform="matrix(12,0,0,12,262.6,597.2)" />
<use xlink:href="#f1_1v" transform="matrix(12,0,0,12,271.8,597.2)" />
<use xlink:href="#f1_1e" transform="matrix(12,0,0,12,281.6,597.2)" />
<use xlink:href="#f1_1r" transform="matrix(12,0,0,12,290.8,597.2)" />
<use xlink:href="#f1_1t" transform="matrix(12,0,0,12,305.7,597.2)" />
<use xlink:href="#f1_1h" transform="matrix(12,0,0,12,312.9,597.2)" />
<use xlink:href="#f1_1e" transform="matrix(12,0,0,12,324,597.2)" />
<use xlink:href="#f1_1o" transform="matrix(12,0,0,12,339.9,597.2)" />
<use xlink:href="#f1_1t" transform="matrix(12,0,0,12,349.1,597.2)" />
<use xlink:href="#f1_1h" transform="matrix(12,0,0,12,356.3,597.2)" />
<use xlink:href="#f1_1e" transform="matrix(12,0,0,12,367.4,597.2)" />
<use xlink:href="#f1_1r" transform="matrix(12,0,0,12,376.6,597.2)" />
<use xlink:href="#f1_7" transform="matrix(12,0,0,12,384.8,597.2)" />
<use xlink:href="#f1_o" transform="matrix(12,0,0,12,403.3,597.2)" />
<use xlink:href="#f1_1e" transform="matrix(12,0,0,12,417.6,597.2)" />
<use xlink:href="#f1_1d" transform="matrix(12,0,0,12,426.8,597.2)" />
<use xlink:href="#f1_1u" transform="matrix(12,0,0,12,437.3,597.2)" />
<use xlink:href="#f1_1c" transform="matrix(12,0,0,12,448.5,597.2)" />
<use xlink:href="#f1_1e" transform="matrix(12,0,0,12,456.7,597.2)" />
<use xlink:href="#f1_1a" transform="matrix(12,0,0,12,472.5,597.2)" />
<use xlink:href="#f1_1n" transform="matrix(12,0,0,12,482.8,597.2)" />
<use xlink:href="#f1_1e" transform="matrix(12,0,0,12,500.6,597.2)" />
<use xlink:href="#f1_1x" transform="matrix(12,0,0,12,509.8,597.2)" />
<use xlink:href="#f1_1p" transform="matrix(12,0,0,12,519.7,597.2)" />
<use xlink:href="#f1_1r" transform="matrix(12,0,0,12,530.3,597.2)" />
<use xlink:href="#f1_1e" transform="matrix(12,0,0,12,538.4,597.2)" />
<use xlink:href="#f1_1s" transform="matrix(12,0,0,12,547.6,597.2)" />
<use xlink:href="#f1_1s" transform="matrix(12,0,0,12,556.1,597.2)" />
<use xlink:href="#f1_1i" transform="matrix(12,0,0,12,564.6,597.2)" />
<use xlink:href="#f1_1o" transform="matrix(12,0,0,12,570.4,597.2)" />
<use xlink:href="#f1_1n" transform="matrix(12,0,0,12,579.6,597.2)" />
<use xlink:href="#f1_1f" transform="matrix(12,0,0,12,597.4,597.2)" />
<use xlink:href="#f1_1o" transform="matrix(12,0,0,12,603.6,597.2)" />
<use xlink:href="#f1_1r" transform="matrix(12,0,0,12,612.7,597.2)" />
<use xlink:href="#f1_1t" transform="matrix(12,0,0,12,627.6,597.2)" />
<use xlink:href="#f1_1h" transform="matrix(12,0,0,12,634.8,597.2)" />
<use xlink:href="#f1_1e" transform="matrix(12,0,0,12,645.9,597.2)" />
<use xlink:href="#f1_1f" transform="matrix(12,0,0,12,661.8,597.2)" />
<use xlink:href="#f1_1o" transform="matrix(12,0,0,12,668,597.2)" />
<use xlink:href="#f1_1r" transform="matrix(12,0,0,12,677.2,597.2)" />
<use xlink:href="#f1_1c" transform="matrix(12,0,0,12,685.3,597.2)" />
<use xlink:href="#f1_1e" transform="matrix(12,0,0,12,693.4,597.2)" />
<use xlink:href="#f1_1p" transform="matrix(12,0,0,12,709.3,597.2)" />
<use xlink:href="#f1_1e" transform="matrix(12,0,0,12,719.9,597.2)" />
<use xlink:href="#f1_1r" transform="matrix(12,0,0,12,729.1,597.2)" />
<use xlink:href="#f1_1u" transform="matrix(12,0,0,12,743.9,597.2)" />
<use xlink:href="#f1_1n" transform="matrix(12,0,0,12,755.1,597.2)" />
<use xlink:href="#f1_1i" transform="matrix(12,0,0,12,766.3,597.2)" />
<use xlink:href="#f1_1t" transform="matrix(12,0,0,12,772.1,597.2)" />
<use xlink:href="#f1_1l" transform="matrix(12,0,0,12,173,619.2)" />
<use xlink:href="#f1_1e" transform="matrix(12,0,0,12,178.8,619.2)" />
<use xlink:href="#f1_1n" transform="matrix(12,0,0,12,188,619.2)" />
<use xlink:href="#f1_1g" transform="matrix(12,0,0,12,199.2,619.2)" />
<use xlink:href="#f1_1t" transform="matrix(12,0,0,12,209.1,619.2)" />
<use xlink:href="#f1_1h" transform="matrix(12,0,0,12,216.3,619.2)" />
<use xlink:href="#f1_7" transform="matrix(12,0,0,12,227.5,619.2)" />
<use xlink:href="#f1_3" transform="matrix(12,0,0,12,129.7,675.8)" />
<use xlink:href="#f1_1i" transform="matrix(12,0,0,12,135.6,675.8)" />
<use xlink:href="#f1_1i" transform="matrix(12,0,0,12,141.1,675.8)" />
<use xlink:href="#f1_1i" transform="matrix(12,0,0,12,146.6,675.8)" />
<use xlink:href="#f1_4" transform="matrix(12,0,0,12,152.2,675.8)" />
<use xlink:href="#f1_o" transform="matrix(12,0,0,12,173,675.8)" />
<use xlink:href="#f1_1e" transform="matrix(12,0,0,12,187.3,675.8)" />
<use xlink:href="#f1_1t" transform="matrix(12,0,0,12,196.4,675.8)" />
<use xlink:href="#f1_1e" transform="matrix(12,0,0,12,203.6,675.8)" />
<use xlink:href="#f1_1r" transform="matrix(12,0,0,12,212.7,675.8)" />
<use xlink:href="#f1_1m" transform="matrix(12,0,0,12,220.8,675.8)" />
<use xlink:href="#f1_1i" transform="matrix(12,0,0,12,237.2,675.8)" />
<use xlink:href="#f1_1n" transform="matrix(12,0,0,12,243,675.8)" />
<use xlink:href="#f1_1e" transform="matrix(12,0,0,12,254.1,675.8)" />
<use xlink:href="#f1_1t" transform="matrix(12,0,0,12,268.3,675.8)" />
<use xlink:href="#f1_1h" transform="matrix(12,0,0,12,275.5,675.8)" />
<use xlink:href="#f1_1e" transform="matrix(12,0,0,12,286.6,675.8)" />
<use xlink:href="#f1_1d" transform="matrix(12,0,0,12,300.9,675.8)" />
<use xlink:href="#f1_1i" transform="matrix(12,0,0,12,311.4,675.8)" />
<use xlink:href="#f1_1r" transform="matrix(12,0,0,12,317.2,675.8)" />
<use xlink:href="#f1_1e" transform="matrix(12,0,0,12,325.3,675.8)" />
<use xlink:href="#f1_1c" transform="matrix(12,0,0,12,334.4,675.8)" />
<use xlink:href="#f1_1t" transform="matrix(12,0,0,12,342.5,675.8)" />
<use xlink:href="#f1_1i" transform="matrix(12,0,0,12,349.7,675.8)" />
<use xlink:href="#f1_1o" transform="matrix(12,0,0,12,355.5,675.8)" />
<use xlink:href="#f1_1n" transform="matrix(12,0,0,12,364.6,675.8)" />
<use xlink:href="#f1_1o" transform="matrix(12,0,0,12,380.8,675.8)" />
<use xlink:href="#f1_1f" transform="matrix(12,0,0,12,390,675.8)" />
<use xlink:href="#f1_1t" transform="matrix(12,0,0,12,401.2,675.8)" />
<use xlink:href="#f1_1h" transform="matrix(12,0,0,12,408.3,675.8)" />
<use xlink:href="#f1_1i" transform="matrix(12,0,0,12,419.5,675.8)" />
<use xlink:href="#f1_1s" transform="matrix(12,0,0,12,425.2,675.8)" />
<use xlink:href="#f1_1f" transform="matrix(12,0,0,12,438.8,675.8)" />
<use xlink:href="#f1_1o" transform="matrix(12,0,0,12,444.9,675.8)" />
<use xlink:href="#f1_1r" transform="matrix(12,0,0,12,454.1,675.8)" />
<use xlink:href="#f1_1c" transform="matrix(12,0,0,12,462.2,675.8)" />
<use xlink:href="#f1_1e" transform="matrix(12,0,0,12,470.3,675.8)" />
<use xlink:href="#f1_7" transform="matrix(12,0,0,12,479.4,675.8)" />
<use xlink:href="#f1_3" transform="matrix(12,0,0,12,129.7,732.6)" />
<use xlink:href="#f1_1i" transform="matrix(12,0,0,12,135.7,732.6)" />
<use xlink:href="#f1_1v" transform="matrix(12,0,0,12,141.4,732.6)" />
<use xlink:href="#f1_4" transform="matrix(12,0,0,12,151.2,732.6)" />
<use xlink:href="#f1_t" transform="matrix(12,0,0,12,173.2,732.6)" />
<use xlink:href="#f1_1n" transform="matrix(12,0,0,12,180.5,732.6)" />
<use xlink:href="#f1_1f" transform="matrix(12,0,0,12,198.1,732.6)" />
<use xlink:href="#f1_1i" transform="matrix(12,0,0,12,204.2,732.6)" />
<use xlink:href="#f1_1g" transform="matrix(12,0,0,12,210,732.6)" />
<use xlink:href="#f1_1u" transform="matrix(12,0,0,12,219.9,732.6)" />
<use xlink:href="#f1_1r" transform="matrix(12,0,0,12,231,732.6)" />
<use xlink:href="#f1_1e" transform="matrix(12,0,0,12,239.2,732.6)" />
<use xlink:href="#f1_1g" transform="matrix(12,0,0,12,254.8,732.6)" />
<use xlink:href="#f1_1i" transform="matrix(12,0,0,12,264.7,732.6)" />
<use xlink:href="#f1_1v" transform="matrix(12,0,0,12,270.5,732.6)" />
<use xlink:href="#f1_1e" transform="matrix(12,0,0,12,280.3,732.6)" />
<use xlink:href="#f1_1n" transform="matrix(12,0,0,12,289.5,732.6)" />
<use xlink:href="#f1_1b" transform="matrix(12,0,0,12,307.1,732.6)" />
<use xlink:href="#f1_1e" transform="matrix(12,0,0,12,317.3,732.6)" />
<use xlink:href="#f1_1l" transform="matrix(12,0,0,12,326.5,732.6)" />
<use xlink:href="#f1_1o" transform="matrix(12,0,0,12,332.3,732.6)" />
<use xlink:href="#f1_1w" transform="matrix(12,0,0,12,341.5,732.6)" />
<use xlink:href="#f1_5" transform="matrix(12,0,0,12,355.8,732.6)" />
<use xlink:href="#f1_1w" transform="matrix(12,0,0,12,367.3,732.6)" />
<use xlink:href="#f1_1i" transform="matrix(12,0,0,12,381.6,732.6)" />
<use xlink:href="#f1_1r" transform="matrix(12,0,0,12,387.4,732.6)" />
<use xlink:href="#f1_1e" transform="matrix(12,0,0,12,395.6,732.6)" />
<use xlink:href="#f1_z" transform="matrix(12,0,0,12,411.2,732.6)" />
<use xlink:href="#f1_10" transform="matrix(12,0,0,12,423.4,732.6)" />
<use xlink:href="#f1_1i" transform="matrix(12,0,0,12,444.1,732.6)" />
<use xlink:href="#f1_1s" transform="matrix(12,0,0,12,449.9,732.6)" />
<use xlink:href="#f1_1f" transform="matrix(12,0,0,12,464.9,732.6)" />
<use xlink:href="#f1_1i" transform="matrix(12,0,0,12,471,732.6)" />
<use xlink:href="#f1_1x" transform="matrix(12,0,0,12,476.8,732.6)" />
<use xlink:href="#f1_1e" transform="matrix(12,0,0,12,486.7,732.6)" />
<use xlink:href="#f1_1d" transform="matrix(12,0,0,12,495.9,732.6)" />
<use xlink:href="#f1_1w" transform="matrix(12,0,0,12,512.9,732.6)" />
<use xlink:href="#f1_1h" transform="matrix(12,0,0,12,527.2,732.6)" />
<use xlink:href="#f1_1i" transform="matrix(12,0,0,12,538.3,732.6)" />
<use xlink:href="#f1_1l" transform="matrix(12,0,0,12,544.1,732.6)" />
<use xlink:href="#f1_1e" transform="matrix(12,0,0,12,549.9,732.6)" />
<use xlink:href="#f1_1t" transform="matrix(12,0,0,12,565.5,732.6)" />
<use xlink:href="#f1_1h" transform="matrix(12,0,0,12,572.7,732.6)" />
<use xlink:href="#f1_1e" transform="matrix(12,0,0,12,583.9,732.6)" />
<use xlink:href="#f1_1s" transform="matrix(12,0,0,12,599.5,732.6)" />
<use xlink:href="#f1_1q" transform="matrix(12,0,0,12,608,732.6)" />
<use xlink:href="#f1_1u" transform="matrix(12,0,0,12,618.2,732.6)" />
<use xlink:href="#f1_1a" transform="matrix(12,0,0,12,629.4,732.6)" />
<use xlink:href="#f1_1r" transform="matrix(12,0,0,12,639.6,732.6)" />
<use xlink:href="#f1_1e" transform="matrix(12,0,0,12,647.7,732.6)" />
<use xlink:href="#f1_1l" transform="matrix(12,0,0,12,663.4,732.6)" />
<use xlink:href="#f1_1o" transform="matrix(12,0,0,12,669.1,732.6)" />
<use xlink:href="#f1_1o" transform="matrix(12,0,0,12,678.3,732.6)" />
<use xlink:href="#f1_1p" transform="matrix(12,0,0,12,687.5,732.6)" />
<use xlink:href="#f1_l" transform="matrix(12,0,0,12,704.5,732.6)" />
<use xlink:href="#f1_m" transform="matrix(12,0,0,12,717.8,732.6)" />
<use xlink:href="#f1_n" transform="matrix(12,0,0,12,731,732.6)" />
<use xlink:href="#f1_o" transform="matrix(12,0,0,12,744.3,732.6)" />
<use xlink:href="#f1_1i" transform="matrix(12,0,0,12,765,732.6)" />
<use xlink:href="#f1_1s" transform="matrix(12,0,0,12,770.8,732.6)" />
<use xlink:href="#f1_1f" transform="matrix(12,0,0,12,173,754.6)" />
<use xlink:href="#f1_1r" transform="matrix(12,0,0,12,179,754.6)" />
<use xlink:href="#f1_1e" transform="matrix(12,0,0,12,187,754.6)" />
<use xlink:href="#f1_1e" transform="matrix(12,0,0,12,196.1,754.6)" />
<use xlink:href="#f1_1t" transform="matrix(12,0,0,12,210.2,754.6)" />
<use xlink:href="#f1_1o" transform="matrix(12,0,0,12,217.2,754.6)" />
<use xlink:href="#f1_1m" transform="matrix(12,0,0,12,231.3,754.6)" />
<use xlink:href="#f1_1o" transform="matrix(12,0,0,12,247.6,754.6)" />
<use xlink:href="#f1_1v" transform="matrix(12,0,0,12,256.6,754.6)" />
<use xlink:href="#f1_1e" transform="matrix(12,0,0,12,266.4,754.6)" />
<use xlink:href="#f1_1u" transform="matrix(12,0,0,12,280.5,754.6)" />
<use xlink:href="#f1_1n" transform="matrix(12,0,0,12,291.5,754.6)" />
<use xlink:href="#f1_1d" transform="matrix(12,0,0,12,302.6,754.6)" />
<use xlink:href="#f1_1e" transform="matrix(12,0,0,12,313,754.6)" />
<use xlink:href="#f1_1r" transform="matrix(12,0,0,12,322.1,754.6)" />
<use xlink:href="#f1_1t" transform="matrix(12,0,0,12,335.1,754.6)" />
<use xlink:href="#f1_1h" transform="matrix(12,0,0,12,342.2,754.6)" />
<use xlink:href="#f1_1e" transform="matrix(12,0,0,12,353.2,754.6)" />
<use xlink:href="#f1_1i" transform="matrix(12,0,0,12,367.3,754.6)" />
<use xlink:href="#f1_1n" transform="matrix(12,0,0,12,372.9,754.6)" />
<use xlink:href="#f1_1f" transform="matrix(12,0,0,12,384,754.6)" />
<use xlink:href="#f1_1l" transform="matrix(12,0,0,12,390,754.6)" />
<use xlink:href="#f1_1u" transform="matrix(12,0,0,12,395.7,754.6)" />
<use xlink:href="#f1_1e" transform="matrix(12,0,0,12,406.7,754.6)" />
<use xlink:href="#f1_1n" transform="matrix(12,0,0,12,415.8,754.6)" />
<use xlink:href="#f1_1c" transform="matrix(12,0,0,12,426.9,754.6)" />
<use xlink:href="#f1_1e" transform="matrix(12,0,0,12,434.9,754.6)" />
<use xlink:href="#f1_1o" transform="matrix(12,0,0,12,448.9,754.6)" />
<use xlink:href="#f1_1f" transform="matrix(12,0,0,12,458,754.6)" />
<use xlink:href="#f1_1c" transform="matrix(12,0,0,12,469,754.6)" />
<use xlink:href="#f1_1u" transform="matrix(12,0,0,12,477.1,754.6)" />
<use xlink:href="#f1_1r" transform="matrix(12,0,0,12,488.1,754.6)" />
<use xlink:href="#f1_1r" transform="matrix(12,0,0,12,496.1,754.6)" />
<use xlink:href="#f1_1e" transform="matrix(12,0,0,12,504.2,754.6)" />
<use xlink:href="#f1_1n" transform="matrix(12,0,0,12,513.2,754.6)" />
<use xlink:href="#f1_1t" transform="matrix(12,0,0,12,524.3,754.6)" />
<use xlink:href="#f1_1s" transform="matrix(12,0,0,12,531.3,754.6)" />
<use xlink:href="#f1_1f" transform="matrix(12,0,0,12,544.7,754.6)" />
<use xlink:href="#f1_1l" transform="matrix(12,0,0,12,550.7,754.6)" />
<use xlink:href="#f1_1o" transform="matrix(12,0,0,12,556.4,754.6)" />
<use xlink:href="#f1_1w" transform="matrix(12,0,0,12,565.5,754.6)" />
<use xlink:href="#f1_1i" transform="matrix(12,0,0,12,579.7,754.6)" />
<use xlink:href="#f1_1n" transform="matrix(12,0,0,12,585.3,754.6)" />
<use xlink:href="#f1_1g" transform="matrix(12,0,0,12,596.4,754.6)" />
<use xlink:href="#f1_1i" transform="matrix(12,0,0,12,611.1,754.6)" />
<use xlink:href="#f1_1n" transform="matrix(12,0,0,12,616.8,754.6)" />
<use xlink:href="#f1_1t" transform="matrix(12,0,0,12,632.9,754.6)" />
<use xlink:href="#f1_1h" transform="matrix(12,0,0,12,639.9,754.6)" />
<use xlink:href="#f1_1e" transform="matrix(12,0,0,12,651,754.6)" />
<use xlink:href="#f1_1m" transform="matrix(12,0,0,12,660,754.6)" />
<use xlink:href="#f1_7" transform="matrix(12,0,0,12,676.3,754.6)" />
<use xlink:href="#f1_12" transform="matrix(12,0,0,12,691.3,754.6)" />
<use xlink:href="#f1_1t" transform="matrix(12,0,0,12,702.8,754.6)" />
<use xlink:href="#f1_1a" transform="matrix(12,0,0,12,709.9,754.6)" />
<use xlink:href="#f1_1t" transform="matrix(12,0,0,12,720,754.6)" />
<use xlink:href="#f1_1e" transform="matrix(12,0,0,12,727,754.6)" />
<use xlink:href="#f1_1w" transform="matrix(12,0,0,12,741.1,754.6)" />
<use xlink:href="#f1_1i" transform="matrix(12,0,0,12,755.3,754.6)" />
<use xlink:href="#f1_1t" transform="matrix(12,0,0,12,761,754.6)" />
<use xlink:href="#f1_1h" transform="matrix(12,0,0,12,768,754.6)" />
<use xlink:href="#f1_1r" transform="matrix(12,0,0,12,173,776.6)" />
<use xlink:href="#f1_1e" transform="matrix(12,0,0,12,181.1,776.6)" />
<use xlink:href="#f1_1a" transform="matrix(12,0,0,12,190.3,776.6)" />
<use xlink:href="#f1_1s" transform="matrix(12,0,0,12,200.5,776.6)" />
<use xlink:href="#f1_1o" transform="matrix(12,0,0,12,209,776.6)" />
<use xlink:href="#f1_1n" transform="matrix(12,0,0,12,218.2,776.6)" />
<use xlink:href="#f1_5" transform="matrix(12,0,0,12,229.3,776.6)" />
<use xlink:href="#f1_1i" transform="matrix(12,0,0,12,239.9,776.6)" />
<use xlink:href="#f1_1n" transform="matrix(12,0,0,12,245.6,776.6)" />
<use xlink:href="#f1_1w" transform="matrix(12,0,0,12,262.2,776.6)" />
<use xlink:href="#f1_1h" transform="matrix(12,0,0,12,276.5,776.6)" />
<use xlink:href="#f1_1i" transform="matrix(12,0,0,12,287.7,776.6)" />
<use xlink:href="#f1_1c" transform="matrix(12,0,0,12,293.4,776.6)" />
<use xlink:href="#f1_1h" transform="matrix(12,0,0,12,301.6,776.6)" />
<use xlink:href="#f1_1d" transform="matrix(12,0,0,12,318.1,776.6)" />
<use xlink:href="#f1_1i" transform="matrix(12,0,0,12,328.7,776.6)" />
<use xlink:href="#f1_1r" transform="matrix(12,0,0,12,334.5,776.6)" />
<use xlink:href="#f1_1e" transform="matrix(12,0,0,12,342.6,776.6)" />
<use xlink:href="#f1_1c" transform="matrix(12,0,0,12,351.8,776.6)" />
<use xlink:href="#f1_1t" transform="matrix(12,0,0,12,359.9,776.6)" />
<use xlink:href="#f1_1i" transform="matrix(12,0,0,12,367.1,776.6)" />
<use xlink:href="#f1_1o" transform="matrix(12,0,0,12,372.9,776.6)" />
<use xlink:href="#f1_1n" transform="matrix(12,0,0,12,382.1,776.6)" />
<use xlink:href="#f1_1d" transform="matrix(12,0,0,12,398.6,776.6)" />
<use xlink:href="#f1_1o" transform="matrix(12,0,0,12,409.2,776.6)" />
<use xlink:href="#f1_1e" transform="matrix(12,0,0,12,418.4,776.6)" />
<use xlink:href="#f1_1s" transform="matrix(12,0,0,12,427.5,776.6)" />
<use xlink:href="#f1_1t" transform="matrix(12,0,0,12,441.4,776.6)" />
<use xlink:href="#f1_1h" transform="matrix(12,0,0,12,448.6,776.6)" />
<use xlink:href="#f1_1e" transform="matrix(12,0,0,12,459.8,776.6)" />
<use xlink:href="#f1_1l" transform="matrix(12,0,0,12,474.4,776.6)" />
<use xlink:href="#f1_1o" transform="matrix(12,0,0,12,480.1,776.6)" />
<use xlink:href="#f1_1o" transform="matrix(12,0,0,12,489.3,776.6)" />
<use xlink:href="#f1_1p" transform="matrix(12,0,0,12,498.5,776.6)" />
<use xlink:href="#f1_1b" transform="matrix(12,0,0,12,514.5,776.6)" />
<use xlink:href="#f1_1e" transform="matrix(12,0,0,12,524.7,776.6)" />
<use xlink:href="#f1_1g" transform="matrix(12,0,0,12,533.9,776.6)" />
<use xlink:href="#f1_1i" transform="matrix(12,0,0,12,543.7,776.6)" />
<use xlink:href="#f1_1n" transform="matrix(12,0,0,12,549.5,776.6)" />
<use xlink:href="#f1_1t" transform="matrix(12,0,0,12,566.1,776.6)" />
<use xlink:href="#f1_1o" transform="matrix(12,0,0,12,573.3,776.6)" />
<use xlink:href="#f1_1m" transform="matrix(12,0,0,12,587.8,776.6)" />
<use xlink:href="#f1_1o" transform="matrix(12,0,0,12,604.2,776.6)" />
<use xlink:href="#f1_1v" transform="matrix(12,0,0,12,613.4,776.6)" />
<use xlink:href="#f1_1e" transform="matrix(12,0,0,12,623.3,776.6)" />
<use xlink:href="#f1_1o" transform="matrix(12,0,0,12,637.8,776.6)" />
<use xlink:href="#f1_1r" transform="matrix(12,0,0,12,647,776.6)" />
<use xlink:href="#f1_1r" transform="matrix(12,0,0,12,660.6,776.6)" />
<use xlink:href="#f1_1o" transform="matrix(12,0,0,12,668.7,776.6)" />
<use xlink:href="#f1_1t" transform="matrix(12,0,0,12,677.9,776.6)" />
<use xlink:href="#f1_1a" transform="matrix(12,0,0,12,685,776.6)" />
<use xlink:href="#f1_1t" transform="matrix(12,0,0,12,695.3,776.6)" />
<use xlink:href="#f1_1e" transform="matrix(12,0,0,12,702.4,776.6)" />
<use xlink:href="#f1_k" transform="matrix(12,0,0,12,717,776.6)" />
</g>
<image preserveAspectRatio="none" x="173" y="825" width="204" height="259" xlink:href="img/1.png" />
<defs>
<path d="M354,0V148H581c3,0,6,0,9,0c52,0,91,12,113,35c24,25,36,66,36,124V1688c0,31,-9,57,-30,74c-20,16,-49,26,-90,27H296v148c161,9,295,28,404,58c110,29,221,74,334,133h119V261c0,-36,10,-65,31,-85c18,-19,45,-28,77,-28c2,0,5,0,7,0h284V0Z" 
id="f0_7"
transform="scale(4.8828125E-4,-4.8828125E-4)" />

<path d="M865,-59C655,-59,493,-10,379,89C264,188,206,315,206,469c0,93,25,165,71,220c47,52,106,79,178,79c66,0,119,-21,162,-64c43,-42,63,-96,63,-157C680,461,640,394,561,344C527,321,506,306,500,295c-8,-9,-13,-22,-13,-37c0,-38,23,-72,69,-102C623,111,695,89,776,89c3,0,5,0,8,0c2,0,4,0,6,0c107,0,192,39,253,116c65,78,95,200,95,365c0,162,-29,283,-87,362c-58,76,-133,116,-223,118c-21,-2,-50,-3,-85,-8c-34,-6,-60,-8,-78,-8c-28,0,-49,8,-65,23c-15,14,-24,35,-24,64c0,29,9,51,26,68c17,13,44,23,79,23c14,0,34,-2,60,-7c27,-5,49,-8,67,-8c4,0,7,1,11,1c2,0,4,0,6,0c89,0,157,32,208,95c50,62,76,166,76,314c0,145,-29,252,-87,318c-56,66,-137,99,-241,101c-72,-2,-126,-14,-162,-37c-38,-24,-57,-47,-57,-73c0,-15,3,-26,8,-34c6,-6,20,-20,44,-39c51,-39,84,-72,101,-100c17,-29,24,-61,24,-98c0,-61,-19,-113,-62,-152c-41,-39,-93,-58,-154,-58c-2,0,-4,0,-7,0c-2,0,-3,0,-5,0c-64,0,-118,24,-161,71c-46,49,-69,112,-69,191c0,110,41,211,125,301c107,116,263,175,468,175c139,0,258,-25,357,-72c100,-48,178,-112,230,-193c50,-81,76,-168,76,-264c0,-106,-32,-199,-98,-283c-66,-82,-176,-154,-328,-215c166,-46,290,-121,374,-222c84,-102,127,-223,127,-363c0,-187,-66,-336,-197,-449C1283,-2,1100,-59,865,-59Z" 
id="f0_9"
transform="scale(4.8828125E-4,-4.8828125E-4)" />

<path d="M798,-59C611,-59,460,-10,347,87C235,183,177,303,177,440c0,92,25,163,75,218c49,54,110,80,185,81c67,-1,121,-22,163,-65c45,-41,65,-93,65,-155c0,-44,-10,-84,-29,-114C616,371,578,341,521,310C480,286,458,263,458,241c0,-35,22,-67,66,-93C586,108,659,89,742,89c3,0,7,0,10,0c1,0,3,0,5,0c106,0,191,47,254,137c66,92,98,249,98,474c0,188,-30,325,-93,411c-61,87,-141,130,-237,131c-44,-1,-91,-11,-143,-27c-52,-17,-107,-43,-167,-77c0,-81,-11,-134,-31,-163C420,947,394,932,359,932c-1,0,-3,0,-5,0c-2,0,-5,0,-7,0c-29,0,-51,7,-67,23c-19,17,-28,38,-28,64c0,38,29,98,89,177l73,977c217,-48,411,-74,584,-74c5,0,10,0,15,0c7,0,13,0,20,0c127,0,233,14,318,41c35,11,56,17,62,19c14,-2,22,-12,22,-31c0,-69,-26,-140,-78,-215c-52,-77,-119,-133,-204,-171c-79,-37,-179,-57,-301,-57c-4,0,-9,0,-13,0c-6,0,-12,0,-19,0c-91,0,-194,11,-307,31L481,1303c77,34,147,58,214,75c66,17,128,26,187,26c192,0,359,-66,495,-194c137,-130,204,-302,204,-516c0,-223,-70,-405,-215,-544C1222,9,1033,-59,798,-59Z" 
id="f0_b"
transform="scale(4.8828125E-4,-4.8828125E-4)" />

<path d="M-51,0L631,2261H924L241,0Z" 
id="f0_5"
transform="scale(4.8828125E-4,-4.8828125E-4)" />

<path d="M118,0V148H319c3,0,6,0,9,0c41,0,72,11,95,34c25,23,35,55,35,95V2006c0,37,-10,64,-35,81c-24,17,-67,26,-128,27H118v147H2099l44,-797H2011c-33,184,-74,319,-123,403c-47,81,-111,144,-191,185c-78,41,-181,61,-310,62H1071c-49,-1,-84,-10,-107,-29c-21,-18,-32,-44,-32,-76V1242h107c2,0,5,0,8,0c120,0,213,35,281,104c68,69,108,182,120,339h133V620H1448c-9,173,-49,295,-117,367c-68,70,-173,105,-310,107H932V258c0,-36,11,-62,32,-78c32,-21,75,-32,131,-32c4,0,7,0,11,0h277c2,0,4,0,7,0c186,0,338,58,456,176c120,116,195,295,224,533h133L2173,0Z" 
id="f0_k"
transform="scale(4.8828125E-4,-4.8828125E-4)" />

<path d="M1291,1153c92,0,174,20,246,62c75,39,128,90,160,149c32,58,48,155,48,286c0,180,-49,307,-147,383c-70,52,-192,80,-365,81c-98,-1,-160,-9,-188,-26c-26,-16,-40,-45,-40,-85V1153h275c4,0,7,0,11,0ZM193,0V148H394c3,0,6,0,9,0c41,0,74,11,95,32c23,22,34,54,34,95V1989c0,37,-11,67,-35,90c-23,23,-52,34,-86,35H193v147H1506c223,0,402,-61,538,-182c136,-120,203,-267,203,-441c0,-135,-39,-251,-117,-349c-78,-100,-184,-172,-317,-218c-127,-43,-254,-66,-380,-66c-4,0,-8,0,-12,0H1005V275c0,-41,13,-73,35,-95c23,-21,50,-32,84,-32c2,0,4,0,7,0h259V0Z" 
id="f0_o"
transform="scale(4.8828125E-4,-4.8828125E-4)" />

<path d="M420,-59c-70,0,-131,26,-182,74C188,66,162,127,162,200c0,70,26,130,76,182c51,49,112,75,182,76c72,-1,133,-27,185,-76c50,-52,75,-112,75,-182C680,127,655,66,605,15C553,-33,492,-59,420,-59Z" 
id="f0_4"
transform="scale(4.8828125E-4,-4.8828125E-4)" />

<path d="M532,0V148H781c2,0,4,0,7,0c33,0,61,11,81,31c23,20,32,47,32,82V1995c0,40,-9,69,-32,89c-21,18,-55,29,-101,30C513,2113,342,1876,252,1404H118l44,857H2114l45,-857H2026c-34,182,-75,324,-127,426c-50,101,-110,174,-176,219c-65,43,-137,64,-217,65c-45,-1,-79,-10,-100,-29c-20,-19,-31,-45,-31,-81V261c0,-33,11,-61,32,-82c20,-20,43,-31,71,-31c2,0,4,0,5,0h262V0Z" 
id="f0_r"
transform="scale(4.8828125E-4,-4.8828125E-4)" />

<path d="M1296,89c3,0,6,0,9,0c1,0,3,0,5,0c185,0,333,79,444,235c113,157,168,432,168,825c0,272,-24,477,-72,614c-49,138,-121,240,-215,309c-95,65,-207,101,-332,101c-124,0,-232,-36,-324,-101C888,2003,814,1894,761,1745C707,1593,680,1389,680,1128c0,-275,24,-485,75,-624C805,361,877,257,972,189C1066,122,1173,89,1296,89Zm-2,-148C1077,-59,880,-7,707,95C535,199,397,338,298,515C197,691,148,894,148,1128c0,345,110,629,329,855c220,225,492,336,814,338c214,-2,411,-52,591,-156c181,-104,321,-246,422,-425c101,-179,150,-380,150,-605C2454,793,2344,509,2122,281C1899,53,1624,-59,1294,-59Z" 
id="f0_n"
transform="scale(4.8828125E-4,-4.8828125E-4)" />

<path d="M993,-606C830,-460,706,-338,622,-236C486,-72,382,99,312,280C241,461,206,651,206,848c0,194,34,377,100,553c65,174,163,342,290,501c88,109,221,243,397,403l41,-84C886,2067,776,1930,704,1806C634,1681,581,1540,544,1383C506,1225,487,1043,487,839c0,-200,20,-378,58,-532C585,151,642,8,715,-118c73,-130,179,-266,319,-408l-41,-80Z" 
id="f1_3"
transform="scale(4.8828125E-4,-4.8828125E-4)" />

<path d="M89,0V118H248c47,0,80,9,103,32c22,20,34,52,34,93v875c0,54,-17,97,-49,124c-33,28,-81,43,-145,44H73v118l578,31V218c0,-33,9,-58,26,-70c26,-21,56,-30,95,-30H946V0ZM474,1922c-43,0,-81,17,-113,47c-33,31,-51,71,-51,115c0,41,18,79,52,113c34,32,73,49,118,50c46,-1,85,-18,119,-50c35,-34,52,-72,52,-116c0,-44,-17,-81,-51,-112c-32,-30,-70,-47,-114,-47c-2,0,-4,0,-6,0c-2,0,-4,0,-6,0Z" 
id="f1_1i"
transform="scale(4.8828125E-4,-4.8828125E-4)" />

<path d="M70,-606l-41,80c141,142,246,278,321,406C423,8,480,151,518,307c40,154,58,332,58,530c0,206,-18,388,-55,546c-38,157,-93,298,-165,423C287,1930,177,2069,29,2221l41,84C249,2143,379,2012,461,1913C590,1754,689,1586,756,1409C823,1230,857,1043,857,848C857,654,825,471,759,301C695,128,597,-39,466,-204C373,-320,241,-454,70,-606Z" 
id="f1_4"
transform="scale(4.8828125E-4,-4.8828125E-4)" />

<path d="M1143,118c172,0,322,44,452,133c84,58,148,140,193,249c61,142,90,342,90,597c0,374,-66,649,-197,825c-112,147,-282,220,-508,221H918c-46,-1,-79,-10,-101,-29c-23,-21,-33,-48,-33,-87V229c0,-36,12,-64,38,-82c26,-20,67,-29,128,-29ZM104,0V118H315c53,0,91,7,111,26c22,16,32,44,32,81V2040c0,30,-10,56,-33,74c-22,19,-54,28,-93,29H104v118H1274c174,0,321,-30,443,-92c151,-77,280,-207,385,-386c107,-182,159,-396,159,-642c0,-204,-30,-388,-95,-550C2119,466,2044,356,1945,263C1846,168,1723,98,1581,52C1474,17,1331,0,1152,0Z" 
id="f1_o"
transform="scale(4.8828125E-4,-4.8828125E-4)" />

<path d="M104,0V118H241c48,0,83,9,107,27c25,18,37,41,37,69v903c0,67,-14,117,-43,150c-27,32,-67,48,-120,48H104v120l503,29V889c55,193,120,339,197,440c78,98,172,148,287,150c76,-2,139,-26,185,-73c46,-49,70,-115,70,-194c0,-66,-15,-117,-46,-153c-29,-36,-66,-54,-111,-54c-1,0,-3,0,-5,0c-2,0,-4,0,-5,0c-42,0,-76,17,-102,46c-29,31,-43,73,-43,127c0,34,6,66,16,98c10,24,15,41,15,47c0,15,-9,21,-28,23c-39,-2,-85,-26,-137,-73C830,1202,776,1108,738,987C680,799,651,649,651,536V226c0,-35,12,-63,38,-81c26,-18,67,-27,128,-27h188V0Z" 
id="f1_1r"
transform="scale(4.8828125E-4,-4.8828125E-4)" />

<path d="M652,60c2,0,4,0,6,0c2,0,4,0,6,0c119,0,224,45,311,137c90,92,134,208,134,348V753C846,717,660,658,550,576C469,513,429,426,429,313c0,-81,22,-143,63,-188C533,82,586,60,652,60ZM597,-43C451,-43,339,-13,263,49C186,112,148,193,148,292c0,148,87,270,263,368c174,98,408,163,698,197v226c0,80,-30,147,-93,205c-61,56,-139,85,-234,87c-87,-2,-163,-20,-227,-58c-45,-29,-68,-57,-68,-83c0,-16,13,-41,34,-74c27,-43,41,-81,41,-112c0,-49,-15,-87,-44,-116C489,903,453,888,407,888c-2,0,-4,0,-7,0c-2,0,-4,0,-6,0c-48,0,-88,16,-121,50c-33,35,-51,80,-51,135c0,100,58,192,172,278c115,84,264,126,451,128c173,-2,304,-40,394,-113c90,-77,136,-168,136,-275V295c0,-72,11,-124,32,-156c22,-34,48,-50,81,-50c2,0,3,0,5,0c1,0,3,0,5,0c38,0,78,15,118,44l54,-76C1595,-10,1513,-43,1421,-43c-70,0,-130,16,-177,51c-48,35,-91,99,-126,189C1022,99,937,35,863,3C788,-28,701,-43,597,-43Z" 
id="f1_1a"
transform="scale(4.8828125E-4,-4.8828125E-4)" />

<path d="M730,-43L232,1224c-15,35,-35,58,-55,70c-20,11,-55,18,-104,21v120H697V1315H614c-40,0,-70,-7,-87,-18c-17,-12,-26,-27,-26,-46c0,-21,5,-44,15,-65L836,373l278,768c-34,84,-66,136,-96,152c-30,15,-81,22,-156,22v120h687V1315h-58c-52,0,-88,-7,-108,-19c-22,-13,-31,-31,-31,-51c0,-20,5,-38,14,-59L1693,373l260,722c18,45,25,83,25,117c0,30,-12,53,-39,73c-26,15,-77,27,-150,30v120h558V1315c-69,-10,-123,-32,-158,-61c-35,-32,-65,-78,-90,-139L1681,-43h-91L1189,955L825,-43Z" 
id="f1_1w"
transform="scale(4.8828125E-4,-4.8828125E-4)" />

<path d="M118,0V118h99c50,0,89,9,115,30c24,19,38,45,38,75v909c0,58,-16,106,-48,136c-30,31,-76,47,-134,47H118v120l473,29c20,-89,35,-191,45,-307c62,105,137,186,223,239c87,54,184,81,293,83c93,-2,173,-21,235,-58c63,-38,115,-98,153,-179c38,-81,57,-173,57,-273V263c0,-54,12,-90,35,-112c23,-23,62,-33,116,-33h101V0H1079V118h71c68,0,115,9,141,32c26,21,40,53,40,96V863c0,133,-20,234,-60,300c-55,91,-137,137,-249,137c-110,0,-202,-47,-275,-139C672,1066,636,946,636,796V263c0,-54,12,-92,36,-112c23,-23,63,-33,116,-33H888V0Z" 
id="f1_1n"
transform="scale(4.8828125E-4,-4.8828125E-4)" />

<path d="M1060,798c40,0,71,12,92,38c20,24,31,67,31,130c0,113,-36,209,-109,288c-73,80,-159,119,-258,121C704,1373,611,1326,535,1230C457,1134,417,990,414,798ZM816,-43C623,-43,461,24,330,163C199,303,133,480,133,698c0,231,66,420,195,564c132,144,292,215,483,217c141,-2,263,-38,364,-110c102,-73,180,-179,231,-313c36,-97,56,-217,58,-361H414C420,478,461,325,539,238C627,139,739,89,874,89c2,0,4,0,6,0c1,0,3,0,4,0c201,0,363,114,486,340l94,-44C1314,98,1098,-43,816,-43Z" 
id="f1_1e"
transform="scale(4.8828125E-4,-4.8828125E-4)" />

<path d="M706,-14C587,-14,493,17,426,81C359,147,325,231,325,338v962H73v101c118,18,207,67,268,144c90,113,139,273,146,481H591V1435h459V1300H591V368c0,-82,20,-143,57,-186c36,-43,84,-64,140,-64c69,0,129,33,176,99c49,66,78,176,86,330h103C1147,356,1103,214,1022,122C941,31,836,-14,706,-14Z" 
id="f1_1t"
transform="scale(4.8828125E-4,-4.8828125E-4)" />

<path d="M89,0V118H238c51,0,86,10,110,33c25,22,37,54,37,95V1983c0,49,-14,87,-40,112c-36,30,-81,47,-133,48H89v118l562,31V214c0,-29,7,-51,24,-66c26,-21,57,-30,93,-30H917V0Z" 
id="f1_1l"
transform="scale(4.8828125E-4,-4.8828125E-4)" />

<path d="M952,89c102,0,183,47,244,139c80,117,119,285,119,504c0,214,-33,370,-103,467c-71,97,-156,145,-262,145c-114,0,-207,-50,-281,-149C597,1094,562,929,562,700C562,480,597,324,668,229C738,136,830,89,942,89c2,0,3,0,5,0c2,0,3,0,5,0ZM325,-14L266,0c21,116,30,238,30,365V1983c0,49,-16,87,-50,118c-34,27,-81,41,-142,42H44v118l518,31V1228c60,83,127,145,199,187c73,41,153,62,238,64c168,-2,309,-67,425,-199c116,-131,173,-304,173,-518c0,-233,-62,-421,-187,-563C1285,55,1131,-14,946,-14C859,-14,779,2,707,37C637,72,564,131,487,215C431,121,377,44,325,-14Z" 
id="f1_1b"
transform="scale(4.8828125E-4,-4.8828125E-4)" />

<path d="M781,118c111,0,206,52,284,159c79,105,118,261,118,466c0,192,-42,343,-127,455c-72,98,-162,146,-271,146c-108,0,-195,-45,-259,-136C461,1118,429,966,429,752c0,-234,32,-398,98,-492C593,165,677,118,781,118ZM726,-14C565,-14,429,52,316,188C205,324,148,504,148,729c0,241,72,434,216,579c113,113,243,169,389,171c90,-2,171,-26,243,-72c72,-47,135,-118,187,-211v808c0,42,-16,75,-48,101c-32,25,-82,37,-150,38H888v118l560,31V330c0,-76,17,-131,48,-163c32,-34,79,-49,140,-49h109V0H1227l-44,292C1126,188,1059,112,982,61C906,9,820,-14,726,-14Z" 
id="f1_1d"
transform="scale(4.8828125E-4,-4.8828125E-4)" />

<path d="M801,-502c175,0,308,29,397,86c88,58,133,121,133,191c0,41,-14,79,-42,116c-27,35,-71,63,-132,81C1097,-10,1008,0,892,0C704,0,570,-25,490,-77C411,-129,370,-190,370,-262c0,-69,30,-122,90,-162c79,-52,194,-78,341,-78Zm4,1108c87,0,160,34,217,100c58,67,87,163,87,290c0,115,-30,208,-88,277c-60,67,-133,100,-223,102c-91,-2,-164,-35,-222,-99c-58,-66,-89,-158,-89,-274c0,-127,31,-224,89,-293C633,640,704,606,793,606c2,0,4,0,6,1c2,-1,4,-1,6,-1ZM764,-606c-220,0,-384,40,-491,121c-82,61,-125,132,-125,211c0,58,26,113,80,163c53,49,143,88,269,111C396,24,319,60,269,108c-51,49,-76,110,-76,182c0,66,21,124,64,174c41,49,114,91,220,129C387,639,319,695,275,762c-44,68,-69,144,-69,233c0,136,57,250,165,343c109,94,252,139,427,141c71,-2,140,-12,206,-31c67,-18,131,-47,194,-87c105,97,201,145,290,147c52,-2,96,-17,131,-47c36,-31,51,-69,51,-110c0,-37,-11,-66,-35,-91c-22,-21,-48,-33,-76,-33c-2,0,-4,0,-5,0c-1,0,-3,0,-4,0c-57,0,-96,35,-115,104c-10,29,-25,42,-45,44c-35,-2,-75,-24,-119,-70c46,-61,77,-115,93,-159c17,-46,26,-93,26,-144c0,-91,-21,-171,-64,-240C1283,694,1212,633,1112,581C1016,529,923,503,836,503c-3,0,-5,0,-8,0H662C544,501,466,489,426,464C390,437,370,399,370,350c0,-43,15,-75,47,-96c31,-22,92,-32,177,-32l378,15c189,-2,327,-34,411,-96c84,-65,125,-151,125,-261c0,-122,-47,-226,-145,-308C1230,-547,1030,-606,764,-606Z" 
id="f1_1g"
transform="scale(4.8828125E-4,-4.8828125E-4)" />

<path d="M133,0V118H249c44,0,78,9,101,30c23,19,35,45,35,78v926c0,50,-14,89,-40,113c-26,26,-76,43,-152,50v120l414,29c21,-104,36,-202,44,-294c75,112,151,191,227,239c75,45,159,68,250,70c97,-2,178,-29,241,-80c63,-53,111,-139,145,-255c67,110,142,194,225,251c84,55,172,82,270,84c130,-2,228,-41,290,-119c84,-104,126,-237,126,-399V241c0,-44,12,-73,33,-88c32,-23,78,-35,139,-35h78V0H1907V118h76c64,0,110,9,136,30c26,22,40,52,40,93V963c0,106,-26,189,-75,249c-51,58,-116,88,-199,88c-61,0,-116,-18,-166,-52c-51,-35,-90,-85,-119,-148c-42,-92,-63,-171,-63,-234V241c0,-42,12,-74,37,-93c24,-21,61,-30,110,-30h105V0H1021V118h87c55,0,96,9,123,30c28,22,40,48,40,80V897c0,139,-23,243,-70,307c-48,64,-112,96,-193,96c-104,0,-183,-37,-240,-111C691,1083,651,959,651,820V241c0,-44,11,-74,30,-90c31,-23,78,-33,141,-33h79V0Z" 
id="f1_1m"
transform="scale(4.8828125E-4,-4.8828125E-4)" />

<path d="M784,60c117,0,215,53,287,157c75,105,112,280,112,522c0,224,-36,384,-110,485c-74,101,-172,149,-294,151C665,1373,570,1322,495,1216C422,1111,385,947,385,721C385,490,422,322,495,217C567,113,660,60,774,60c2,0,4,0,5,0c2,0,3,0,5,0ZM770,-43C585,-43,426,24,298,167C168,307,104,490,104,717c0,224,66,407,194,548c131,141,290,212,481,214c194,-2,356,-72,488,-211c131,-140,197,-324,197,-551c0,-158,-29,-292,-89,-402C1317,203,1233,116,1123,52C1014,-11,897,-43,770,-43Z" 
id="f1_1o"
transform="scale(4.8828125E-4,-4.8828125E-4)" />

<path d="M73,0V118H194c55,0,93,9,113,27c23,17,34,46,34,86V1300H89v135H341v102c0,254,53,448,160,582c107,133,238,200,396,202c119,-2,211,-29,275,-86c67,-58,99,-133,99,-223c0,-61,-15,-108,-46,-144c-30,-35,-68,-50,-117,-50c-43,0,-78,12,-106,40c-27,27,-41,62,-41,104c0,47,17,85,49,117c27,23,40,42,40,55c0,17,-11,31,-34,46c-23,14,-57,22,-102,23c-87,-1,-159,-40,-219,-116c-59,-76,-88,-189,-88,-339V1435H961V1300H607V257c0,-49,10,-83,33,-101c29,-26,72,-38,127,-38H961V0Z" 
id="f1_1f"
transform="scale(4.8828125E-4,-4.8828125E-4)" />

<path d="M778,-43C579,-43,417,20,292,153C167,284,104,460,104,678c0,254,69,450,205,590c137,139,298,209,482,211c139,-2,254,-40,344,-115c92,-78,136,-162,136,-255c0,-56,-17,-102,-52,-139c-32,-35,-72,-53,-117,-53c-1,0,-3,0,-5,0c-2,0,-4,0,-6,0c-43,0,-81,16,-112,46c-30,30,-47,68,-47,113c0,42,17,85,49,126c17,19,24,34,24,46c0,28,-18,57,-56,84c-40,28,-92,41,-158,43C671,1373,579,1329,518,1238C429,1105,385,930,385,715C385,509,425,351,504,246C583,142,683,89,805,89c1,0,3,0,5,0c1,0,2,0,3,0c170,0,295,114,377,340l112,-30C1222,102,1047,-43,778,-43Z" 
id="f1_1c"
transform="scale(4.8828125E-4,-4.8828125E-4)" />

<path d="M316,-606c-73,0,-131,22,-175,65c-45,42,-68,96,-68,159c0,45,14,85,43,116c28,30,63,45,104,45c38,0,70,-13,96,-39c26,-26,38,-58,38,-93c0,-13,-1,-28,-6,-48c-3,-15,-6,-27,-6,-33c0,-26,17,-39,48,-39c33,0,71,13,114,37c41,24,81,64,118,118c36,55,102,175,195,361L267,1199c-18,35,-41,61,-70,80c-27,17,-69,29,-124,36v120H755V1315H691c-60,0,-100,-7,-121,-21c-22,-15,-34,-35,-34,-60c0,-13,3,-24,8,-35L943,361l308,692c23,47,34,93,34,140c0,35,-15,63,-44,83c-31,20,-89,32,-176,39v120h591V1315c-116,-10,-195,-58,-237,-139L871,-49C775,-265,684,-412,597,-489C510,-566,416,-606,316,-606Z" 
id="f1_1y"
transform="scale(4.8828125E-4,-4.8828125E-4)" />

<path d="M443,-43c-52,0,-98,16,-136,52C270,44,252,89,252,141c0,50,18,93,55,129c38,36,84,54,138,55c53,-1,99,-19,136,-55c36,-36,55,-79,55,-129C636,89,617,44,581,9C544,-27,497,-43,443,-43Z" 
id="f1_7"
transform="scale(4.8828125E-4,-4.8828125E-4)" />

<path d="M1073,-43C836,-43,629,29,455,177L281,-28H177V842H281C324,603,422,416,571,280C721,141,891,73,1079,73c152,0,278,45,374,133c96,87,144,194,144,323c0,70,-17,133,-52,188c-36,53,-92,99,-170,137c-76,37,-228,83,-454,136c-247,58,-417,125,-508,199C286,1291,222,1439,222,1630c0,197,65,358,194,486c129,125,293,189,495,189c96,0,189,-18,276,-50c86,-35,177,-92,269,-171l141,208h103V1464H1597c-63,250,-158,434,-282,550c-123,114,-267,172,-427,174C753,2186,643,2147,558,2067C472,1988,429,1890,429,1777c0,-72,17,-136,49,-190c32,-55,80,-97,145,-131c65,-34,185,-72,362,-110c251,-57,427,-115,529,-170c102,-58,179,-128,229,-212c51,-87,75,-186,75,-299c0,-205,-69,-375,-208,-509C1471,21,1291,-43,1073,-43Z" 
id="f1_12"
transform="scale(4.8828125E-4,-4.8828125E-4)" />

<path d="M104,0V118h87c60,0,102,10,127,33c24,23,36,58,36,107V1962c0,59,-15,105,-48,136c-33,29,-80,44,-141,45H60v118l560,31V1186c75,96,156,169,242,218c85,49,175,73,270,75c92,-2,174,-25,246,-66c57,-36,104,-98,144,-183c41,-87,59,-190,59,-307V243c0,-44,12,-76,34,-96c21,-20,55,-29,99,-29h119V0H1065V118h82c65,0,109,9,133,30c23,22,35,52,35,95V923c0,117,-27,209,-82,278c-57,66,-128,99,-215,99c-68,0,-130,-20,-188,-56C772,1205,723,1147,681,1071C642,995,620,914,620,828V258c0,-52,13,-88,32,-108c20,-23,55,-32,103,-32H872V0Z" 
id="f1_1h"
transform="scale(4.8828125E-4,-4.8828125E-4)" />

<path d="M1006,89c105,0,187,42,242,128c75,111,112,278,112,495c0,226,-34,388,-101,486c-66,98,-151,146,-257,146c-110,0,-203,-55,-281,-165C645,1069,607,911,607,704C607,493,643,338,717,238C790,139,883,89,996,89c1,0,3,0,5,0c2,0,3,0,5,0ZM89,-590v117H193c48,0,87,10,110,29c25,19,38,45,38,75V1121c0,68,-17,117,-51,147c-33,28,-101,44,-201,47v120l463,29c22,-103,36,-201,39,-294c71,112,144,190,220,237c78,46,162,70,252,72c98,-2,191,-32,280,-93c89,-61,159,-150,215,-268c55,-119,83,-252,83,-398c0,-237,-67,-431,-202,-579C1326,17,1193,-43,1037,-43c-88,0,-169,21,-241,67C726,69,662,138,607,229V-343c0,-44,10,-76,30,-93c28,-24,67,-37,115,-37H857V-590Z" 
id="f1_1p"
transform="scale(4.8828125E-4,-4.8828125E-4)" />

<path d="M784,-43C642,-43,509,2,387,96L275,-28H193L162,532H266C332,353,406,229,489,160C571,93,672,60,791,60c3,0,5,0,8,0c3,0,7,0,10,0c110,0,193,24,253,71c61,49,91,113,91,190c0,43,-12,79,-33,113c-23,32,-54,56,-92,73c-40,16,-142,40,-307,72C564,611,454,643,391,678C328,712,280,759,244,820c-35,60,-51,126,-51,198c0,106,35,204,105,293c90,111,217,166,380,168c126,-2,240,-52,346,-154l100,110h63l40,-518H1123c-44,160,-105,278,-180,350c-77,71,-170,106,-280,108c-96,-2,-171,-27,-226,-79c-55,-51,-83,-115,-83,-187c0,-67,26,-122,75,-163C480,900,579,866,726,842c172,-29,284,-54,336,-74c81,-30,143,-76,188,-139c44,-62,65,-140,65,-229C1315,275,1267,170,1166,84C1066,-1,938,-43,784,-43Z" 
id="f1_1s"
transform="scale(4.8828125E-4,-4.8828125E-4)" />

<path d="M788,-14C663,-14,556,28,471,115C383,200,341,345,341,550v622c0,53,-22,95,-66,124c-31,19,-92,30,-186,35v117l518,16V523c0,-117,27,-205,84,-268c56,-62,128,-93,217,-93c108,0,201,44,279,136c76,92,115,206,115,344v530c0,49,-17,85,-52,113c-35,26,-103,41,-200,46v117l518,16V286c0,-55,13,-97,42,-126c29,-29,71,-42,123,-42h85V0L1331,-14l-29,312C1216,193,1132,115,1048,63C963,11,877,-14,788,-14Z" 
id="f1_1u"
transform="scale(4.8828125E-4,-4.8828125E-4)" />

<path d="M929,-43L296,1956c-24,76,-53,125,-84,151c-32,24,-82,35,-152,36v118H813V2143H759c-79,-1,-131,-7,-154,-18c-21,-14,-34,-32,-34,-56c0,-19,10,-48,23,-84l11,-29L1057,526l410,1326c-46,143,-81,229,-107,253c-26,25,-78,37,-155,38H1065v118h961V2143H1925c-86,-1,-142,-7,-168,-19c-26,-14,-38,-34,-38,-60c0,-23,3,-41,9,-58L2195,526l379,1281c17,48,25,95,25,141c0,66,-17,115,-48,148c-32,31,-79,46,-143,47h-72v118h709V2143c-60,-9,-107,-24,-144,-45c-35,-22,-67,-52,-93,-92c-24,-41,-52,-107,-79,-199L2180,-43H2066L1545,1607L1033,-43Z" 
id="f1_16"
transform="scale(4.8828125E-4,-4.8828125E-4)" />

<path d="M636,-43C582,-43,536,-27,500,9C463,46,443,90,443,145c0,51,20,92,57,127c36,35,82,52,136,53c53,-1,99,-18,136,-53c38,-37,56,-79,56,-127C828,92,810,46,772,11C735,-27,689,-43,636,-43ZM576,665c0,119,8,213,20,284c14,69,29,124,49,165c20,39,72,113,154,221c64,83,112,162,138,236c26,73,39,155,39,246c0,119,-33,215,-101,290c-65,73,-148,110,-244,110c-83,0,-153,-22,-208,-64c-55,-43,-82,-86,-82,-130c0,-26,18,-54,58,-84c59,-48,88,-100,88,-155c0,-50,-15,-91,-47,-123c-29,-33,-68,-49,-113,-49c-2,0,-4,0,-6,0c-2,0,-4,0,-5,0c-55,0,-100,23,-139,67c-38,47,-59,107,-59,183c0,116,55,223,160,318c107,93,241,139,403,141c167,-2,304,-54,413,-158c108,-104,162,-230,162,-379c0,-96,-17,-183,-54,-259c-27,-60,-97,-141,-207,-245C849,1146,762,1047,730,982C700,917,683,811,680,665Z" 
id="f1_k"
transform="scale(4.8828125E-4,-4.8828125E-4)" />

<path d="M1442,857L1042,1875L634,857ZM-28,0V118c86,0,155,18,205,56c49,37,95,109,138,216l768,1915h106L2000,241c33,-84,102,-123,205,-123h71V0H1375V118h70c95,0,162,9,199,30c27,12,40,35,40,64c0,17,-2,34,-10,55L1488,739H587L478,469C451,396,437,338,437,296c0,-50,23,-91,69,-126c47,-36,114,-52,201,-52h77V0Z" 
id="f1_l"
transform="scale(4.8828125E-4,-4.8828125E-4)" />

<path d="M414,0V118H660c52,0,92,12,116,36c25,25,37,57,37,100V1684c0,29,-11,53,-34,73c-23,21,-53,31,-90,32H354v118c158,20,286,49,382,84c98,35,184,81,259,137h70V215c0,-29,9,-50,30,-65c31,-23,68,-32,110,-32h303V0Z" 
id="f1_a"
transform="scale(4.8828125E-4,-4.8828125E-4)" />

<path d="M883,60c132,0,233,61,304,183c86,147,128,412,128,800c0,402,-39,670,-119,807c-81,136,-188,203,-321,205C739,2053,634,1989,558,1859C483,1729,443,1462,443,1056C443,655,483,391,562,258C639,127,743,60,874,60c2,0,3,0,4,0c2,0,4,0,5,0ZM880,-43C686,-43,523,34,391,193C229,390,148,677,148,1053c0,356,78,640,231,851c124,168,286,253,489,255c200,-2,365,-80,496,-234c165,-191,248,-480,248,-866c0,-361,-72,-634,-216,-822C1254,47,1082,-43,880,-43Z" 
id="f1_9"
transform="scale(4.8828125E-4,-4.8828125E-4)" />

<path d="M1140,-43L313,1975c-27,63,-61,106,-99,132c-37,24,-89,35,-153,36H-14v118H932V2143H767c-67,-1,-113,-9,-138,-24c-24,-17,-36,-38,-36,-63c0,-23,9,-52,27,-91l13,-31L1250,429l545,1436c11,26,15,62,15,101c0,55,-15,100,-48,130c-33,31,-77,46,-133,47H1479v118h813V2143h-68c-48,-1,-97,-24,-148,-68c-50,-48,-94,-124,-137,-234L1222,-43Z" 
id="f1_15"
transform="scale(4.8828125E-4,-4.8828125E-4)" />

<path d="M1021,665V1702L275,665ZM709,0V118H866c54,0,92,10,116,33c26,22,39,54,39,98V547H148V684L1184,2128h102V665h355V547H1286V222c0,-29,13,-52,34,-69c34,-23,72,-35,115,-35h133V0Z" 
id="f1_d"
transform="scale(4.8828125E-4,-4.8828125E-4)" />

<path d="M532,0V118H784c33,0,59,7,76,26c18,16,28,38,28,67V2026c0,38,-13,67,-35,87c-25,20,-63,29,-115,30C590,2142,468,2075,368,1937C287,1824,228,1647,193,1404H73l52,857H1975l51,-857H1907c-69,492,-249,738,-541,739c-60,-1,-99,-10,-121,-32c-21,-19,-33,-53,-33,-97V223c0,-37,12,-63,32,-79c19,-19,55,-26,102,-26h222V0Z" 
id="f1_13"
transform="scale(4.8828125E-4,-4.8828125E-4)" />

<path d="M1259,-43C1071,-43,898,2,741,96C584,189,457,324,364,501C269,678,222,872,222,1083c0,225,48,434,146,631c96,196,220,344,371,443c153,98,317,148,491,148c98,0,192,-16,284,-48c90,-33,191,-89,298,-170l95,218h119l44,-915H1951c-66,255,-151,445,-252,569c-127,151,-277,227,-452,229c-190,-2,-344,-86,-463,-254C666,1763,607,1479,607,1076C607,735,674,477,811,299C929,148,1092,73,1303,73c185,0,339,58,463,176c125,118,206,296,245,535h103C2082,516,1991,312,1836,170C1684,26,1493,-43,1259,-43Z" 
id="f1_n"
transform="scale(4.8828125E-4,-4.8828125E-4)" />

<path d="M1158,1242c164,0,294,43,388,128c73,65,110,175,110,330c0,143,-35,248,-107,314c-73,65,-197,99,-374,100c-93,-1,-154,-12,-177,-32c-25,-21,-37,-67,-37,-139V1242h188c3,0,6,0,9,0ZM1957,-14c-95,0,-173,17,-231,57c-56,40,-100,98,-131,174c-18,43,-43,144,-76,306c-37,187,-71,314,-101,378c-29,66,-67,113,-116,146c-48,30,-106,45,-176,47H961V269c0,-37,11,-64,32,-83c28,-24,61,-38,98,-38c2,0,4,0,6,0h205V0H177V148H351c3,0,5,0,8,0c41,0,73,12,95,35c23,23,33,57,33,100V1978c0,46,-9,80,-30,103c-22,21,-52,32,-90,33H177v147H1341c190,0,344,-26,463,-75c119,-49,208,-116,266,-201c60,-86,89,-179,89,-283c0,-168,-75,-303,-223,-403c-112,-80,-286,-132,-520,-153c121,-20,216,-52,281,-95c66,-43,124,-107,175,-189c61,-110,110,-242,146,-393c25,-99,46,-160,64,-183c19,-23,40,-35,63,-35c66,0,104,88,116,267h135C2385,325,2344,189,2269,108C2195,24,2092,-14,1957,-14Z" 
id="f0_p"
transform="scale(4.8828125E-4,-4.8828125E-4)" />

<path d="M234,-502l-57,72c208,145,310,274,310,385c0,14,-1,26,-7,34C474,-4,466,0,455,0L422,-5c-19,-5,-35,-5,-46,-5C332,-10,292,6,258,43c-33,35,-52,79,-52,131c0,49,19,92,52,127c34,35,78,53,132,53c65,0,120,-26,165,-77C599,223,620,153,620,64C620,-132,492,-320,234,-502Z" 
id="f1_5"
transform="scale(4.8828125E-4,-4.8828125E-4)" />

<path d="M104,0V118H296c69,0,112,9,133,30c20,20,29,64,29,133V1988c0,64,-9,104,-27,120c-28,23,-80,34,-154,35H104v118H1138V2143H963c-78,-1,-129,-10,-149,-30c-20,-20,-30,-63,-30,-125V281c0,-69,9,-111,26,-128c24,-23,68,-35,131,-35h197V0Z" 
id="f1_t"
transform="scale(4.8828125E-4,-4.8828125E-4)" />

<path d="M406,0V112H658c4,-1,7,-1,10,-1c49,0,84,11,107,36c26,24,38,58,38,99V1668c0,28,-11,54,-34,75c-24,20,-53,29,-90,31H351v111c159,20,288,48,387,83c99,35,188,81,263,139h72V208c0,-31,9,-52,30,-66c29,-20,63,-31,102,-31c3,0,5,0,8,1h303V0Z" 
id="f2_4"
transform="scale(4.8828125E-4,-4.8828125E-4)" />

<path d="M148,0V81L597,590c252,270,402,440,451,512c73,97,127,194,159,287c34,93,49,179,49,255c0,125,-34,224,-104,298c-69,72,-165,108,-290,110C723,2050,608,2017,521,1949C434,1881,388,1810,388,1736c0,-28,8,-48,20,-58c12,-16,40,-28,81,-37c105,-25,157,-87,157,-183c0,-54,-17,-98,-52,-132c-33,-34,-77,-50,-129,-50c-2,0,-4,0,-7,0c-1,0,-3,0,-4,0c-61,0,-114,29,-161,84c-47,56,-71,133,-71,227c0,103,27,197,79,283c53,84,134,153,243,209c108,54,224,81,348,83c122,-2,237,-28,342,-81c107,-54,185,-124,239,-209c53,-88,79,-181,79,-283c0,-72,-12,-144,-39,-214c-26,-75,-66,-142,-118,-205C1308,1060,1218,967,1124,891L720,550C617,461,542,390,495,330c-45,-60,174,-90,655,-90c12,0,24,0,36,0c2,0,5,0,8,0c72,0,124,20,155,58c32,40,69,150,112,330h110L1517,0Z" 
id="f2_5"
transform="scale(4.8828125E-4,-4.8828125E-4)" />

<path d="M73,0V118c78,6,138,21,179,47c70,41,133,96,188,165L727,684L299,1221c-47,59,-122,91,-226,94v120H784V1315c-116,-4,-174,-22,-174,-55c0,-15,9,-35,27,-56L888,882l243,299c18,20,26,40,26,60c0,38,-60,64,-181,74v120h592V1315c-146,-21,-256,-77,-334,-165L949,802L1401,225c29,-40,60,-68,92,-84c33,-16,84,-23,148,-23V0H901V118h58c62,0,106,4,133,16c17,8,25,19,25,31c0,11,-9,31,-29,58L788,603L555,315C523,270,506,235,506,209c0,-29,12,-49,33,-61c32,-21,84,-30,156,-30V0Z" 
id="f1_1x"
transform="scale(4.8828125E-4,-4.8828125E-4)" />

<path d="M799,-43L241,1207c-19,44,-44,75,-74,93c-29,18,-74,29,-138,31v104H739V1331c-94,-5,-155,-13,-181,-28c-26,-14,-40,-35,-40,-62c0,-25,5,-48,14,-69L909,325l359,819c5,14,8,28,8,45c0,74,-75,120,-226,142v104h591V1331c-60,-8,-109,-25,-144,-51c-35,-27,-62,-64,-81,-108L883,-43Z" 
id="f1_1v"
transform="scale(4.8828125E-4,-4.8828125E-4)" />

<path d="M1102,1138c188,0,325,40,409,118c87,79,130,211,130,392c0,127,-20,225,-58,294c-38,67,-95,119,-170,151c-75,32,-198,49,-370,50c-113,-1,-184,-12,-215,-32c-29,-21,-44,-58,-44,-108V1138h307c3,0,7,0,11,0ZM104,0V118H328c45,0,78,7,98,26c22,16,32,42,32,73V2014c0,44,-12,78,-39,97c-26,22,-77,31,-150,32H104v118H1219c252,0,445,-58,578,-171c133,-115,198,-264,198,-448c0,-184,-61,-327,-183,-423C1646,1088,1441,1021,1197,1021c-3,0,-6,0,-8,0H784V251c0,-46,10,-78,30,-97c29,-24,68,-36,115,-36h254V0Z" 
id="f1_z"
transform="scale(4.8828125E-4,-4.8828125E-4)" />

<path d="M1198,73c61,0,119,8,172,22c54,15,104,36,153,67c-3,179,-26,309,-73,391c-57,104,-147,156,-266,156c-96,0,-174,-31,-235,-90C888,558,857,481,857,387c0,-95,38,-184,113,-266c72,-32,148,-48,228,-48ZM755,289v0c-3,46,-5,82,-5,111c0,124,41,225,122,307c81,80,188,120,320,121c133,-1,244,-44,333,-131c68,-68,131,-182,189,-346c57,104,99,216,124,338c26,119,40,272,40,455c0,255,-28,456,-84,605c-57,150,-136,260,-239,332c-102,70,-217,105,-347,107c-125,-2,-239,-37,-340,-107C768,2009,689,1898,633,1748C576,1595,547,1392,547,1134c0,-184,17,-341,50,-471C629,532,683,406,755,289ZM1910,-606c-106,0,-191,42,-255,126c-66,82,-110,244,-132,482c-58,-15,-113,-27,-165,-35c-52,-7,-104,-10,-151,-10C1018,-43,845,3,684,102C526,200,399,341,304,526C209,709,162,917,162,1149c0,327,108,608,321,840c194,211,435,316,722,316c194,0,370,-48,529,-145c160,-97,287,-237,384,-417c96,-183,143,-385,143,-608c0,-206,-37,-389,-113,-550C2072,425,1953,278,1789,147c15,-45,32,-103,49,-174c34,-137,66,-226,98,-267c32,-41,68,-59,108,-59c40,0,72,21,99,64c28,42,43,114,45,217h104c-2,-184,-37,-318,-107,-405c-71,-86,-162,-129,-275,-129Z" 
id="f1_10"
transform="scale(4.8828125E-4,-4.8828125E-4)" />

<path d="M813,89c65,0,125,21,182,64c59,44,105,110,137,198c34,87,51,207,51,356c0,175,-16,306,-46,395c-29,88,-75,157,-135,203c-59,46,-124,68,-192,70C704,1373,619,1322,548,1218C478,1112,443,950,443,730C443,504,478,341,548,240C618,139,702,89,802,89c2,0,3,0,5,0c2,0,4,0,6,0ZM917,-590v117h99c61,0,104,13,128,36c26,21,39,58,39,108V202C1123,119,1057,57,985,17C914,-23,834,-43,749,-43C585,-43,443,26,325,168C206,310,148,489,148,706c0,143,31,276,90,399c61,119,141,212,240,276c101,64,206,96,316,98c81,-2,159,-20,231,-55c72,-35,150,-96,231,-182c55,86,113,164,179,237l44,-44c-20,-123,-31,-251,-31,-388V-326c0,-53,11,-90,31,-108c29,-26,72,-39,131,-39h60V-590Z" 
id="f1_1q"
transform="scale(4.8828125E-4,-4.8828125E-4)" />

<path d="M1262,118c179,0,313,39,399,119c85,79,128,203,128,373c0,152,-44,275,-133,365c-88,88,-212,133,-368,134H828V240c0,-41,12,-72,35,-92c25,-21,67,-30,129,-30Zm0,1109c128,0,231,38,307,113c78,76,116,202,116,377c0,107,-18,191,-55,252c-37,60,-92,104,-162,132c-70,27,-192,41,-368,42c-122,-1,-199,-10,-228,-27c-29,-18,-44,-49,-44,-92V1227h426c3,0,5,0,8,0ZM148,0V118H338c56,0,99,9,125,27c27,17,40,38,40,63V2014c0,42,-13,74,-39,96c-26,21,-64,32,-114,33H148v118H1325c230,0,409,-50,531,-153c122,-102,184,-229,184,-382c0,-128,-43,-238,-127,-327c-86,-90,-213,-160,-384,-210c214,-48,376,-118,483,-214c107,-98,161,-219,161,-365c0,-113,-31,-213,-91,-300C2021,223,1920,150,1778,90C1636,29,1476,0,1296,0Z" 
id="f1_m"
transform="scale(4.8828125E-4,-4.8828125E-4)" />


</defs>
</svg>