<?xml version="1.0" encoding="UTF-8" standalone="no"?>
<!DOCTYPE svg PUBLIC "-//W3C//DTD SVG 1.1//EN"
"http://www.w3.org/Graphics/SVG/1.1/DTD/svg11.dtd">
<svg viewBox="0 0 909 1286" version="1.1" xmlns="http://www.w3.org/2000/svg" xmlns:xlink="http://www.w3.org/1999/xlink">
<defs>
<clipPath id="c0_160"><path d="M35.1,1194.7V113.1H873.9V1194.7Z" /></clipPath>
</defs>
<g clip-path="url(#c0_160)">
<g fill="#000000" >
<use xlink:href="#f0_1i" transform="matrix(12,0,0,12,47.4,136)" />
<use xlink:href="#f0_d" transform="matrix(12,0,0,12,61.2,136)" />
<use xlink:href="#f0_t" transform="matrix(12,0,0,12,73.4,136)" />
<use xlink:href="#f0_n" transform="matrix(12,0,0,12,82.3,136)" />
<use xlink:href="#f0_1c" transform="matrix(12,0,0,12,87.9,136)" />
<use xlink:href="#f0_3" transform="matrix(12,0,0,12,95.2,136)" />
<use xlink:href="#f0_1d" transform="matrix(12,0,0,12,106.2,136)" />
<use xlink:href="#f1_p" transform="matrix(12,0,0,12,113.5,136)" />
<use xlink:href="#f1_c" transform="matrix(12,0,0,12,124.6,136)" />
<use xlink:href="#f1_9" transform="matrix(12,0,0,12,135.1,136)" />
<use xlink:href="#f1_5" transform="matrix(12,0,0,12,141.6,136)" />
<use xlink:href="#f1_7" transform="matrix(12,0,0,12,151.4,136)" />
<use xlink:href="#f1_9" transform="matrix(12,0,0,12,163.2,136)" />
<use xlink:href="#f1_h" transform="matrix(12,0,0,12,169.7,136)" />
<use xlink:href="#f1_3" transform="matrix(12,0,0,12,175.5,136)" />
<use xlink:href="#f1_6" transform="matrix(12,0,0,12,185.8,136)" />
<use xlink:href="#f1_r" transform="matrix(12,0,0,12,196.2,136)" />
<use xlink:href="#f1_h" transform="matrix(12,0,0,12,207.5,136)" />
<use xlink:href="#f1_d" transform="matrix(12,0,0,12,213.3,136)" />
<use xlink:href="#f1_d" transform="matrix(12,0,0,12,220.1,136)" />
<use xlink:href="#f1_5" transform="matrix(12,0,0,12,226.9,136)" />
<use xlink:href="#f1_g" transform="matrix(12,0,0,12,236.7,136)" />
<use xlink:href="#f1_5" transform="matrix(12,0,0,12,245.3,136)" />
<use xlink:href="#f1_7" transform="matrix(12,0,0,12,255.1,136)" />
<use xlink:href="#f1_f" transform="matrix(12,0,0,12,266.9,136)" />
<use xlink:href="#f1_5" transform="matrix(12,0,0,12,275.9,136)" />
<use xlink:href="#f1_3" transform="matrix(12,0,0,12,290.5,136)" />
<use xlink:href="#f1_f" transform="matrix(12,0,0,12,300.8,136)" />
<use xlink:href="#f1_g" transform="matrix(12,0,0,12,309.8,136)" />
<use xlink:href="#f1_c" transform="matrix(12,0,0,12,318.4,136)" />
<use xlink:href="#f1_u" transform="matrix(12,0,0,12,329,136)" />
<use xlink:href="#f1_u" transform="matrix(12,0,0,12,337.3,136)" />
<use xlink:href="#f1_9" transform="matrix(12,0,0,12,350.3,136)" />
<use xlink:href="#f1_a" transform="matrix(12,0,0,12,356.7,136)" />
<use xlink:href="#f1_5" transform="matrix(12,0,0,12,368.4,136)" />
<use xlink:href="#f1_5" transform="matrix(12,0,0,12,382.9,136)" />
<use xlink:href="#f1_4" transform="matrix(12,0,0,12,392.7,136)" />
<use xlink:href="#f1_3" transform="matrix(12,0,0,12,403.3,136)" />
<use xlink:href="#f1_f" transform="matrix(12,0,0,12,413.6,136)" />
<use xlink:href="#f1_16" transform="matrix(12,0,0,12,422.7,136)" />
<use xlink:href="#f1_3" transform="matrix(12,0,0,12,434.3,136)" />
<use xlink:href="#f1_9" transform="matrix(12,0,0,12,444.6,136)" />
<use xlink:href="#f1_5" transform="matrix(12,0,0,12,451.1,136)" />
<use xlink:href="#f1_r" transform="matrix(12,0,0,12,460.9,136)" />
<use xlink:href="#f1_9" transform="matrix(12,0,0,12,476.9,136)" />
<use xlink:href="#f1_16" transform="matrix(12,0,0,12,483.3,136)" />
<use xlink:href="#f1_s" transform="matrix(12,0,0,12,494.9,136)" />
<use xlink:href="#f1_5" transform="matrix(12,0,0,12,506.2,136)" />
<use xlink:href="#f1_i" transform="matrix(12,0,0,12,516,136)" />
<use xlink:href="#f2_a" transform="matrix(12,0,0,12,525.3,136)" />
<use xlink:href="#f1_j" transform="matrix(12,0,0,12,537.7,136)" />
<use xlink:href="#f1_1k" transform="matrix(12,0,0,12,552.7,136)" />
<use xlink:href="#f1_1e" transform="matrix(12,0,0,12,562.9,136)" />
<use xlink:href="#f1_1e" transform="matrix(12,0,0,12,573.2,136)" />
<use xlink:href="#f1_1f" transform="matrix(12,0,0,12,588.1,136)" />
<use xlink:href="#f1_10" transform="matrix(12,0,0,12,47.4,186.4)" />
<use xlink:href="#f1_11" transform="matrix(12,0,0,12,57.3,186.4)" />
<use xlink:href="#f1_5" transform="matrix(12,0,0,12,68.6,186.4)" />
<use xlink:href="#f1_f" transform="matrix(12,0,0,12,78.4,186.4)" />
<use xlink:href="#f1_h" transform="matrix(12,0,0,12,87.4,186.4)" />
<use xlink:href="#f1_d" transform="matrix(12,0,0,12,93.2,186.4)" />
<use xlink:href="#f1_h" transform="matrix(12,0,0,12,100,186.4)" />
<use xlink:href="#f1_f" transform="matrix(12,0,0,12,105.8,186.4)" />
<use xlink:href="#f1_f" transform="matrix(12,0,0,12,119.6,186.4)" />
<use xlink:href="#f1_a" transform="matrix(12,0,0,12,128.6,186.4)" />
<use xlink:href="#f1_3" transform="matrix(12,0,0,12,140.3,186.4)" />
<use xlink:href="#f1_g" transform="matrix(12,0,0,12,150.6,186.4)" />
<use xlink:href="#f1_8" transform="matrix(12,0,0,12,159.2,186.4)" />
<use xlink:href="#f1_5" transform="matrix(12,0,0,12,169.1,186.4)" />
<use xlink:href="#f1_c" transform="matrix(12,0,0,12,183.6,186.4)" />
<use xlink:href="#f1_d" transform="matrix(12,0,0,12,194.2,186.4)" />
<use xlink:href="#f1_3" transform="matrix(12,0,0,12,205.7,186.4)" />
<use xlink:href="#f1_7" transform="matrix(12,0,0,12,216,186.4)" />
<use xlink:href="#f1_5" transform="matrix(12,0,0,12,232.6,186.4)" />
<use xlink:href="#f1_6" transform="matrix(12,0,0,12,242.4,186.4)" />
<use xlink:href="#f1_5" transform="matrix(12,0,0,12,248.1,186.4)" />
<use xlink:href="#f1_f" transform="matrix(12,0,0,12,257.9,186.4)" />
<use xlink:href="#f1_9" transform="matrix(12,0,0,12,266.9,186.4)" />
<use xlink:href="#f1_g" transform="matrix(12,0,0,12,273.4,186.4)" />
<use xlink:href="#f1_c" transform="matrix(12,0,0,12,282,186.4)" />
<use xlink:href="#f1_7" transform="matrix(12,0,0,12,292.5,186.4)" />
<use xlink:href="#f1_i" transform="matrix(12,0,0,12,304.4,186.4)" />
<use xlink:href="#f2_9" transform="matrix(12,0,0,12,313.7,186.4)" />
<use xlink:href="#f2_h" transform="matrix(12,0,0,12,322.7,186.4)" />
<use xlink:href="#f2_5" transform="matrix(12,0,0,12,328,186.4)" />
<use xlink:href="#f1_j" transform="matrix(12,0,0,12,344.4,186.4)" />
</g>
</g>
<image preserveAspectRatio="none" x="359" y="163" width="196" height="37" xlink:href="img/1.png" />
<g clip-path="url(#c0_160)">
<g fill="#000000" >
<use xlink:href="#f1_14" transform="matrix(12,0,0,12,47.4,241.4)" />
<use xlink:href="#f1_a" transform="matrix(12,0,0,12,58.6,241.4)" />
<use xlink:href="#f1_5" transform="matrix(12,0,0,12,70.2,241.4)" />
<use xlink:href="#f1_u" transform="matrix(12,0,0,12,84.8,241.4)" />
<use xlink:href="#f1_11" transform="matrix(12,0,0,12,93,241.4)" />
<use xlink:href="#f1_5" transform="matrix(12,0,0,12,104.3,241.4)" />
<use xlink:href="#f1_5" transform="matrix(12,0,0,12,114.1,241.4)" />
<use xlink:href="#f1_r" transform="matrix(12,0,0,12,123.9,241.4)" />
<use xlink:href="#f1_c" transform="matrix(12,0,0,12,139.9,241.4)" />
<use xlink:href="#f1_d" transform="matrix(12,0,0,12,150.5,241.4)" />
<use xlink:href="#f1_5" transform="matrix(12,0,0,12,162,241.4)" />
<use xlink:href="#f1_3" transform="matrix(12,0,0,12,171.8,241.4)" />
<use xlink:href="#f1_f" transform="matrix(12,0,0,12,182.1,241.4)" />
<use xlink:href="#f1_a" transform="matrix(12,0,0,12,191.1,241.4)" />
<use xlink:href="#f1_5" transform="matrix(12,0,0,12,207.5,241.4)" />
<use xlink:href="#f1_e" transform="matrix(12,0,0,12,217.3,241.4)" />
<use xlink:href="#f1_h" transform="matrix(12,0,0,12,234.6,241.4)" />
<use xlink:href="#f1_9" transform="matrix(12,0,0,12,240.5,241.4)" />
<use xlink:href="#f1_9" transform="matrix(12,0,0,12,246.9,241.4)" />
<use xlink:href="#f1_5" transform="matrix(12,0,0,12,253.3,241.4)" />
<use xlink:href="#f1_r" transform="matrix(12,0,0,12,263.2,241.4)" />
<use xlink:href="#f1_5" transform="matrix(12,0,0,12,279.2,241.4)" />
<use xlink:href="#f1_6" transform="matrix(12,0,0,12,289,241.4)" />
<use xlink:href="#f1_5" transform="matrix(12,0,0,12,294.6,241.4)" />
<use xlink:href="#f1_f" transform="matrix(12,0,0,12,304.5,241.4)" />
<use xlink:href="#f1_9" transform="matrix(12,0,0,12,313.5,241.4)" />
<use xlink:href="#f1_g" transform="matrix(12,0,0,12,319.9,241.4)" />
<use xlink:href="#f1_c" transform="matrix(12,0,0,12,328.5,241.4)" />
<use xlink:href="#f1_7" transform="matrix(12,0,0,12,339.1,241.4)" />
<use xlink:href="#f1_h" transform="matrix(12,0,0,12,355.7,241.4)" />
<use xlink:href="#f1_u" transform="matrix(12,0,0,12,361.5,241.4)" />
<use xlink:href="#f1_8" transform="matrix(12,0,0,12,374.5,241.4)" />
<use xlink:href="#f1_h" transform="matrix(12,0,0,12,384.4,241.4)" />
<use xlink:href="#f1_4" transform="matrix(12,0,0,12,390.3,241.4)" />
<use xlink:href="#f1_5" transform="matrix(12,0,0,12,400.9,241.4)" />
<use xlink:href="#f1_7" transform="matrix(12,0,0,12,410.7,241.4)" />
<use xlink:href="#f1_s" transform="matrix(12,0,0,12,427.2,241.4)" />
<use xlink:href="#f1_t" transform="matrix(12,0,0,12,438.5,241.4)" />
<use xlink:href="#f1_9" transform="matrix(12,0,0,12,453.6,241.4)" />
<use xlink:href="#f1_a" transform="matrix(12,0,0,12,460,241.4)" />
<use xlink:href="#f1_5" transform="matrix(12,0,0,12,471.6,241.4)" />
<use xlink:href="#f1_g" transform="matrix(12,0,0,12,486.2,241.4)" />
<use xlink:href="#f1_5" transform="matrix(12,0,0,12,494.8,241.4)" />
<use xlink:href="#f1_6" transform="matrix(12,0,0,12,504.6,241.4)" />
<use xlink:href="#f1_3" transform="matrix(12,0,0,12,510.3,241.4)" />
<use xlink:href="#f1_9" transform="matrix(12,0,0,12,520.6,241.4)" />
<use xlink:href="#f1_h" transform="matrix(12,0,0,12,527.1,241.4)" />
<use xlink:href="#f1_c" transform="matrix(12,0,0,12,532.9,241.4)" />
<use xlink:href="#f1_7" transform="matrix(12,0,0,12,543.5,241.4)" />
<use xlink:href="#f1_d" transform="matrix(12,0,0,12,560.1,241.4)" />
<use xlink:href="#f1_c" transform="matrix(12,0,0,12,566.8,241.4)" />
<use xlink:href="#f1_g" transform="matrix(12,0,0,12,577.4,241.4)" />
<use xlink:href="#f1_x" transform="matrix(12,0,0,12,590.7,241.4)" />
<use xlink:href="#f1_h" transform="matrix(12,0,0,12,601.5,241.4)" />
<use xlink:href="#f1_7" transform="matrix(12,0,0,12,607.3,241.4)" />
<use xlink:href="#f1_5" transform="matrix(12,0,0,12,619.1,241.4)" />
<use xlink:href="#f1_9" transform="matrix(12,0,0,12,628.9,241.4)" />
<use xlink:href="#f1_h" transform="matrix(12,0,0,12,635.4,241.4)" />
<use xlink:href="#f1_f" transform="matrix(12,0,0,12,641.2,241.4)" />
<use xlink:href="#f1_5" transform="matrix(12,0,0,12,655,241.4)" />
<use xlink:href="#f1_7" transform="matrix(12,0,0,12,664.8,241.4)" />
<use xlink:href="#f1_5" transform="matrix(12,0,0,12,676.6,241.4)" />
<use xlink:href="#f1_g" transform="matrix(12,0,0,12,686.4,241.4)" />
<use xlink:href="#f1_8" transform="matrix(12,0,0,12,695.1,241.4)" />
<use xlink:href="#f1_t" transform="matrix(12,0,0,12,704.9,241.4)" />
<use xlink:href="#f1_3" transform="matrix(12,0,0,12,720,241.4)" />
<use xlink:href="#f1_u" transform="matrix(12,0,0,12,730.3,241.4)" />
<use xlink:href="#f1_15" transform="matrix(12,0,0,12,738.6,241.4)" />
</g>
</g>
<image preserveAspectRatio="none" x="47" y="269" width="182" height="64" xlink:href="img/2.png" />
<image preserveAspectRatio="none" x="47" y="351" width="254" height="75" xlink:href="img/3.png" />
<image preserveAspectRatio="none" x="47" y="445" width="407" height="58" xlink:href="img/4.png" />
<g clip-path="url(#c0_160)">
<g fill="#000000" >
<use xlink:href="#f1_14" transform="matrix(12,0,0,12,47.4,543.9)" />
<use xlink:href="#f1_a" transform="matrix(12,0,0,12,58.6,543.9)" />
<use xlink:href="#f1_5" transform="matrix(12,0,0,12,70.2,543.9)" />
<use xlink:href="#f1_g" transform="matrix(12,0,0,12,80,543.9)" />
<use xlink:href="#f1_5" transform="matrix(12,0,0,12,88.6,543.9)" />
<use xlink:href="#f1_d" transform="matrix(12,0,0,12,98.4,543.9)" />
<use xlink:href="#f1_c" transform="matrix(12,0,0,12,105.2,543.9)" />
<use xlink:href="#f1_g" transform="matrix(12,0,0,12,115.8,543.9)" />
<use xlink:href="#f1_5" transform="matrix(12,0,0,12,124.4,543.9)" />
<use xlink:href="#f1_i" transform="matrix(12,0,0,12,134.2,543.9)" />
<use xlink:href="#f1_9" transform="matrix(12,0,0,12,143.5,543.9)" />
<use xlink:href="#f1_a" transform="matrix(12,0,0,12,150,543.9)" />
<use xlink:href="#f1_5" transform="matrix(12,0,0,12,161.6,543.9)" />
<use xlink:href="#f1_u" transform="matrix(12,0,0,12,176.2,543.9)" />
<use xlink:href="#f1_11" transform="matrix(12,0,0,12,184.4,543.9)" />
<use xlink:href="#f1_5" transform="matrix(12,0,0,12,195.7,543.9)" />
<use xlink:href="#f1_5" transform="matrix(12,0,0,12,205.5,543.9)" />
<use xlink:href="#f1_r" transform="matrix(12,0,0,12,215.3,543.9)" />
<use xlink:href="#f1_c" transform="matrix(12,0,0,12,231.3,543.9)" />
<use xlink:href="#f1_d" transform="matrix(12,0,0,12,241.9,543.9)" />
<use xlink:href="#f1_5" transform="matrix(12,0,0,12,253.4,543.9)" />
<use xlink:href="#f1_3" transform="matrix(12,0,0,12,263.2,543.9)" />
<use xlink:href="#f1_f" transform="matrix(12,0,0,12,273.5,543.9)" />
<use xlink:href="#f1_a" transform="matrix(12,0,0,12,282.5,543.9)" />
<use xlink:href="#f1_5" transform="matrix(12,0,0,12,298.9,543.9)" />
<use xlink:href="#f1_e" transform="matrix(12,0,0,12,308.7,543.9)" />
<use xlink:href="#f1_h" transform="matrix(12,0,0,12,326,543.9)" />
<use xlink:href="#f1_9" transform="matrix(12,0,0,12,331.9,543.9)" />
<use xlink:href="#f1_9" transform="matrix(12,0,0,12,338.3,543.9)" />
<use xlink:href="#f1_5" transform="matrix(12,0,0,12,344.8,543.9)" />
<use xlink:href="#f1_r" transform="matrix(12,0,0,12,354.6,543.9)" />
<use xlink:href="#f1_5" transform="matrix(12,0,0,12,370.6,543.9)" />
<use xlink:href="#f1_6" transform="matrix(12,0,0,12,380.4,543.9)" />
<use xlink:href="#f1_5" transform="matrix(12,0,0,12,386.1,543.9)" />
<use xlink:href="#f1_f" transform="matrix(12,0,0,12,395.9,543.9)" />
<use xlink:href="#f1_9" transform="matrix(12,0,0,12,404.9,543.9)" />
<use xlink:href="#f1_g" transform="matrix(12,0,0,12,411.3,543.9)" />
<use xlink:href="#f1_c" transform="matrix(12,0,0,12,419.9,543.9)" />
<use xlink:href="#f1_7" transform="matrix(12,0,0,12,430.5,543.9)" />
<use xlink:href="#f1_h" transform="matrix(12,0,0,12,447.1,543.9)" />
<use xlink:href="#f1_u" transform="matrix(12,0,0,12,452.9,543.9)" />
</g>
</g>
<image preserveAspectRatio="none" x="466" y="521" width="156" height="37" xlink:href="img/5.png" />
<g clip-path="url(#c0_160)">
<g fill="#000000" >
<use xlink:href="#f0_1c" transform="matrix(12,0,0,12,47.4,598.9)" />
<use xlink:href="#f0_17" transform="matrix(12,0,0,12,54.7,598.9)" />
<use xlink:href="#f0_1d" transform="matrix(12,0,0,12,66.6,598.9)" />
<use xlink:href="#f1_p" transform="matrix(12,0,0,12,73.9,598.9)" />
<use xlink:href="#f1_c" transform="matrix(12,0,0,12,85,598.9)" />
<use xlink:href="#f1_9" transform="matrix(12,0,0,12,95.5,598.9)" />
<use xlink:href="#f1_5" transform="matrix(12,0,0,12,102,598.9)" />
<use xlink:href="#f1_7" transform="matrix(12,0,0,12,111.8,598.9)" />
<use xlink:href="#f1_9" transform="matrix(12,0,0,12,123.6,598.9)" />
<use xlink:href="#f1_h" transform="matrix(12,0,0,12,130.1,598.9)" />
<use xlink:href="#f1_3" transform="matrix(12,0,0,12,135.9,598.9)" />
<use xlink:href="#f1_6" transform="matrix(12,0,0,12,146.2,598.9)" />
<use xlink:href="#f1_c" transform="matrix(12,0,0,12,156.6,598.9)" />
<use xlink:href="#f1_d" transform="matrix(12,0,0,12,167.2,598.9)" />
<use xlink:href="#f1_9" transform="matrix(12,0,0,12,178.7,598.9)" />
<use xlink:href="#f1_a" transform="matrix(12,0,0,12,185.2,598.9)" />
<use xlink:href="#f1_5" transform="matrix(12,0,0,12,196.8,598.9)" />
<use xlink:href="#f1_3" transform="matrix(12,0,0,12,211.4,598.9)" />
<use xlink:href="#f1_7" transform="matrix(12,0,0,12,221.7,598.9)" />
<use xlink:href="#f1_c" transform="matrix(12,0,0,12,233.5,598.9)" />
<use xlink:href="#f1_r" transform="matrix(12,0,0,12,244.1,598.9)" />
<use xlink:href="#f1_5" transform="matrix(12,0,0,12,255.3,598.9)" />
<use xlink:href="#f1_i" transform="matrix(12,0,0,12,265.1,598.9)" />
<use xlink:href="#f2_a" transform="matrix(12,0,0,12,274.5,598.9)" />
<use xlink:href="#f1_j" transform="matrix(12,0,0,12,286.8,598.9)" />
<use xlink:href="#f1_1g" transform="matrix(12,0,0,12,301.8,598.9)" />
<use xlink:href="#f1_1e" transform="matrix(12,0,0,12,312,598.9)" />
<use xlink:href="#f1_13" transform="matrix(12,0,0,12,327,598.9)" />
<use xlink:href="#f1_1f" transform="matrix(12,0,0,12,344.2,598.9)" />
<use xlink:href="#f1_j" transform="matrix(12,0,0,12,361.3,598.9)" />
</g>
</g>
<image preserveAspectRatio="none" x="371" y="578" width="89" height="33" xlink:href="img/6.png" />
<g clip-path="url(#c0_160)">
<g fill="#000000" >
<use xlink:href="#f1_1f" transform="matrix(12,0,0,12,464.9,598.9)" />
<use xlink:href="#f1_14" transform="matrix(12,0,0,12,47.4,652.4)" />
<use xlink:href="#f1_a" transform="matrix(12,0,0,12,58.6,652.4)" />
<use xlink:href="#f1_5" transform="matrix(12,0,0,12,70.2,652.4)" />
<use xlink:href="#f1_u" transform="matrix(12,0,0,12,84.8,652.4)" />
<use xlink:href="#f1_11" transform="matrix(12,0,0,12,93,652.4)" />
<use xlink:href="#f1_5" transform="matrix(12,0,0,12,104.3,652.4)" />
<use xlink:href="#f1_5" transform="matrix(12,0,0,12,114.1,652.4)" />
<use xlink:href="#f1_r" transform="matrix(12,0,0,12,123.9,652.4)" />
<use xlink:href="#f1_c" transform="matrix(12,0,0,12,139.9,652.4)" />
<use xlink:href="#f1_d" transform="matrix(12,0,0,12,150.5,652.4)" />
<use xlink:href="#f1_5" transform="matrix(12,0,0,12,162,652.4)" />
<use xlink:href="#f1_3" transform="matrix(12,0,0,12,171.8,652.4)" />
<use xlink:href="#f1_f" transform="matrix(12,0,0,12,182.1,652.4)" />
<use xlink:href="#f1_a" transform="matrix(12,0,0,12,191.1,652.4)" />
<use xlink:href="#f1_5" transform="matrix(12,0,0,12,207.5,652.4)" />
<use xlink:href="#f1_6" transform="matrix(12,0,0,12,217.3,652.4)" />
<use xlink:href="#f1_5" transform="matrix(12,0,0,12,223,652.4)" />
<use xlink:href="#f1_f" transform="matrix(12,0,0,12,232.8,652.4)" />
<use xlink:href="#f1_9" transform="matrix(12,0,0,12,241.8,652.4)" />
<use xlink:href="#f1_g" transform="matrix(12,0,0,12,248.3,652.4)" />
<use xlink:href="#f1_c" transform="matrix(12,0,0,12,256.9,652.4)" />
<use xlink:href="#f1_7" transform="matrix(12,0,0,12,267.5,652.4)" />
<use xlink:href="#f1_h" transform="matrix(12,0,0,12,284,652.4)" />
<use xlink:href="#f1_u" transform="matrix(12,0,0,12,289.9,652.4)" />
<use xlink:href="#f1_8" transform="matrix(12,0,0,12,302.9,652.4)" />
<use xlink:href="#f1_h" transform="matrix(12,0,0,12,312.7,652.4)" />
<use xlink:href="#f1_4" transform="matrix(12,0,0,12,318.6,652.4)" />
<use xlink:href="#f1_5" transform="matrix(12,0,0,12,329.2,652.4)" />
<use xlink:href="#f1_7" transform="matrix(12,0,0,12,339,652.4)" />
<use xlink:href="#f1_3" transform="matrix(12,0,0,12,355.6,652.4)" />
<use xlink:href="#f1_u" transform="matrix(12,0,0,12,365.9,652.4)" />
<use xlink:href="#f1_15" transform="matrix(12,0,0,12,374.1,652.4)" />
</g>
</g>
<image preserveAspectRatio="none" x="47" y="680" width="152" height="82" xlink:href="img/7.png" />
<image preserveAspectRatio="none" x="47" y="781" width="240" height="58" xlink:href="img/8.png" />
<image preserveAspectRatio="none" x="47" y="857" width="161" height="37" xlink:href="img/9.png" />
<g clip-path="url(#c0_160)">
<g fill="#000000" >
<use xlink:href="#f1_14" transform="matrix(12,0,0,12,47.4,935)" />
<use xlink:href="#f1_a" transform="matrix(12,0,0,12,58.6,935)" />
<use xlink:href="#f1_h" transform="matrix(12,0,0,12,70.2,935)" />
<use xlink:href="#f1_u" transform="matrix(12,0,0,12,76.1,935)" />
<use xlink:href="#f1_g" transform="matrix(12,0,0,12,89.1,935)" />
<use xlink:href="#f1_5" transform="matrix(12,0,0,12,97.7,935)" />
<use xlink:href="#f1_u" transform="matrix(12,0,0,12,107.5,935)" />
<use xlink:href="#f1_16" transform="matrix(12,0,0,12,115.8,935)" />
<use xlink:href="#f1_6" transform="matrix(12,0,0,12,127.4,935)" />
<use xlink:href="#f1_9" transform="matrix(12,0,0,12,133.1,935)" />
<use xlink:href="#f1_h" transform="matrix(12,0,0,12,144.3,935)" />
<use xlink:href="#f1_u" transform="matrix(12,0,0,12,150.1,935)" />
<use xlink:href="#f1_q" transform="matrix(12,0,0,12,163.1,935)" />
<use xlink:href="#f1_g" transform="matrix(12,0,0,12,178.9,935)" />
<use xlink:href="#f1_c" transform="matrix(12,0,0,12,187.5,935)" />
<use xlink:href="#f1_7" transform="matrix(12,0,0,12,198.1,935)" />
<use xlink:href="#f1_8" transform="matrix(12,0,0,12,209.9,935)" />
<use xlink:href="#f1_s" transform="matrix(12,0,0,12,224.5,935)" />
<use xlink:href="#f1_5" transform="matrix(12,0,0,12,235.8,935)" />
<use xlink:href="#f1_f" transform="matrix(12,0,0,12,245.6,935)" />
<use xlink:href="#f1_3" transform="matrix(12,0,0,12,254.6,935)" />
<use xlink:href="#f1_16" transform="matrix(12,0,0,12,264.9,935)" />
<use xlink:href="#f1_u" transform="matrix(12,0,0,12,276.5,935)" />
<use xlink:href="#f1_5" transform="matrix(12,0,0,12,284.8,935)" />
<use xlink:href="#f1_7" transform="matrix(12,0,0,12,299.3,935)" />
<use xlink:href="#f1_c" transform="matrix(12,0,0,12,311.2,935)" />
<use xlink:href="#f1_9" transform="matrix(12,0,0,12,321.7,935)" />
<use xlink:href="#f1_a" transform="matrix(12,0,0,12,328.2,935)" />
<use xlink:href="#f1_h" transform="matrix(12,0,0,12,339.8,935)" />
<use xlink:href="#f1_7" transform="matrix(12,0,0,12,345.7,935)" />
<use xlink:href="#f1_8" transform="matrix(12,0,0,12,357.5,935)" />
<use xlink:href="#f1_f" transform="matrix(12,0,0,12,372.1,935)" />
<use xlink:href="#f1_3" transform="matrix(12,0,0,12,381.1,935)" />
<use xlink:href="#f1_7" transform="matrix(12,0,0,12,391.4,935)" />
<use xlink:href="#f1_e" transform="matrix(12,0,0,12,408,935)" />
<use xlink:href="#f1_c" transform="matrix(12,0,0,12,425.3,935)" />
<use xlink:href="#f1_4" transform="matrix(12,0,0,12,435.9,935)" />
<use xlink:href="#f1_5" transform="matrix(12,0,0,12,446.5,935)" />
<use xlink:href="#f1_d" transform="matrix(12,0,0,12,461,935)" />
<use xlink:href="#f1_3" transform="matrix(12,0,0,12,467.8,935)" />
<use xlink:href="#f1_u" transform="matrix(12,0,0,12,478.1,935)" />
<use xlink:href="#f1_9" transform="matrix(12,0,0,12,486.4,935)" />
<use xlink:href="#f1_5" transform="matrix(12,0,0,12,492.8,935)" />
<use xlink:href="#f1_g" transform="matrix(12,0,0,12,502.6,935)" />
<use xlink:href="#f1_9" transform="matrix(12,0,0,12,516,935)" />
<use xlink:href="#f1_a" transform="matrix(12,0,0,12,522.4,935)" />
<use xlink:href="#f1_3" transform="matrix(12,0,0,12,534.1,935)" />
<use xlink:href="#f1_7" transform="matrix(12,0,0,12,544.4,935)" />
<use xlink:href="#f1_6" transform="matrix(12,0,0,12,560.9,935)" />
<use xlink:href="#f1_h" transform="matrix(12,0,0,12,566.6,935)" />
<use xlink:href="#f1_8" transform="matrix(12,0,0,12,572.5,935)" />
<use xlink:href="#f1_a" transform="matrix(12,0,0,12,582.3,935)" />
<use xlink:href="#f1_9" transform="matrix(12,0,0,12,593.9,935)" />
<use xlink:href="#f1_n" transform="matrix(12,0,0,12,600.4,935)" />
<use xlink:href="#f1_1r" transform="matrix(12,0,0,12,610.4,935)" />
<use xlink:href="#f1_7" transform="matrix(12,0,0,12,617.1,935)" />
<use xlink:href="#f1_9" transform="matrix(12,0,0,12,633.7,935)" />
<use xlink:href="#f1_a" transform="matrix(12,0,0,12,640.1,935)" />
<use xlink:href="#f1_5" transform="matrix(12,0,0,12,651.7,935)" />
<use xlink:href="#f1_3" transform="matrix(12,0,0,12,666.3,935)" />
<use xlink:href="#f1_s" transform="matrix(12,0,0,12,676.6,935)" />
<use xlink:href="#f1_c" transform="matrix(12,0,0,12,687.9,935)" />
<use xlink:href="#f1_4" transform="matrix(12,0,0,12,698.4,935)" />
<use xlink:href="#f1_5" transform="matrix(12,0,0,12,709,935)" />
<use xlink:href="#f1_d" transform="matrix(12,0,0,12,723.6,935)" />
<use xlink:href="#f1_c" transform="matrix(12,0,0,12,730.3,935)" />
<use xlink:href="#f1_g" transform="matrix(12,0,0,12,740.9,935)" />
<use xlink:href="#f1_e" transform="matrix(12,0,0,12,749.5,935)" />
<use xlink:href="#f1_16" transform="matrix(12,0,0,12,766.8,935)" />
<use xlink:href="#f1_6" transform="matrix(12,0,0,12,778.5,935)" />
<use xlink:href="#f1_3" transform="matrix(12,0,0,12,784.2,935)" />
<use xlink:href="#f1_i" transform="matrix(12,0,0,12,794.5,935)" />
<use xlink:href="#f1_9" transform="matrix(12,0,0,12,803.8,935)" />
<use xlink:href="#f1_a" transform="matrix(12,0,0,12,810.2,935)" />
<use xlink:href="#f1_5" transform="matrix(12,0,0,12,821.9,935)" />
<use xlink:href="#f1_5" transform="matrix(12,0,0,12,47.4,971.7)" />
<use xlink:href="#f1_1d" transform="matrix(12,0,0,12,57.2,971.7)" />
<use xlink:href="#f1_11" transform="matrix(12,0,0,12,67.8,971.7)" />
<use xlink:href="#f1_g" transform="matrix(12,0,0,12,79,971.7)" />
<use xlink:href="#f1_5" transform="matrix(12,0,0,12,87.6,971.7)" />
<use xlink:href="#f1_u" transform="matrix(12,0,0,12,97.4,971.7)" />
<use xlink:href="#f1_u" transform="matrix(12,0,0,12,105.7,971.7)" />
<use xlink:href="#f1_h" transform="matrix(12,0,0,12,114,971.7)" />
<use xlink:href="#f1_c" transform="matrix(12,0,0,12,119.8,971.7)" />
<use xlink:href="#f1_7" transform="matrix(12,0,0,12,130.4,971.7)" />
</g>
</g>
<image preserveAspectRatio="none" x="147" y="944" width="94" height="44" xlink:href="img/10.png" />
<g clip-path="url(#c0_160)">
<g fill="#000000" >
<use xlink:href="#f1_d" transform="matrix(12,0,0,12,241.7,971.7)" />
<use xlink:href="#f1_c" transform="matrix(12,0,0,12,248.4,971.7)" />
<use xlink:href="#f1_g" transform="matrix(12,0,0,12,259,971.7)" />
<use xlink:href="#f1_5" transform="matrix(12,0,0,12,272.4,971.7)" />
<use xlink:href="#f1_7" transform="matrix(12,0,0,12,282.2,971.7)" />
<use xlink:href="#f1_5" transform="matrix(12,0,0,12,294,971.7)" />
<use xlink:href="#f1_g" transform="matrix(12,0,0,12,303.8,971.7)" />
<use xlink:href="#f1_8" transform="matrix(12,0,0,12,312.4,971.7)" />
<use xlink:href="#f1_t" transform="matrix(12,0,0,12,322.3,971.7)" />
<use xlink:href="#f1_f" transform="matrix(12,0,0,12,337.4,971.7)" />
<use xlink:href="#f1_3" transform="matrix(12,0,0,12,346.4,971.7)" />
<use xlink:href="#f1_7" transform="matrix(12,0,0,12,356.7,971.7)" />
<use xlink:href="#f1_c" transform="matrix(12,0,0,12,373.3,971.7)" />
<use xlink:href="#f1_7" transform="matrix(12,0,0,12,383.9,971.7)" />
<use xlink:href="#f1_6" transform="matrix(12,0,0,12,395.7,971.7)" />
<use xlink:href="#f1_t" transform="matrix(12,0,0,12,401.4,971.7)" />
<use xlink:href="#f1_s" transform="matrix(12,0,0,12,416.4,971.7)" />
<use xlink:href="#f1_5" transform="matrix(12,0,0,12,427.7,971.7)" />
<use xlink:href="#f1_16" transform="matrix(12,0,0,12,442.2,971.7)" />
<use xlink:href="#f1_u" transform="matrix(12,0,0,12,453.9,971.7)" />
<use xlink:href="#f1_5" transform="matrix(12,0,0,12,462.1,971.7)" />
<use xlink:href="#f1_r" transform="matrix(12,0,0,12,471.9,971.7)" />
<use xlink:href="#f1_h" transform="matrix(12,0,0,12,487.9,971.7)" />
<use xlink:href="#f1_7" transform="matrix(12,0,0,12,493.8,971.7)" />
<use xlink:href="#f1_9" transform="matrix(12,0,0,12,510.3,971.7)" />
<use xlink:href="#f1_a" transform="matrix(12,0,0,12,516.8,971.7)" />
<use xlink:href="#f1_5" transform="matrix(12,0,0,12,528.4,971.7)" />
<use xlink:href="#f1_7" transform="matrix(12,0,0,12,543,971.7)" />
<use xlink:href="#f1_c" transform="matrix(12,0,0,12,554.8,971.7)" />
<use xlink:href="#f1_7" transform="matrix(12,0,0,12,565.4,971.7)" />
<use xlink:href="#f1_19" transform="matrix(12,0,0,12,577.2,971.7)" />
<use xlink:href="#f1_g" transform="matrix(12,0,0,12,582.9,971.7)" />
<use xlink:href="#f1_5" transform="matrix(12,0,0,12,591.5,971.7)" />
<use xlink:href="#f1_6" transform="matrix(12,0,0,12,601.3,971.7)" />
<use xlink:href="#f1_3" transform="matrix(12,0,0,12,607,971.7)" />
<use xlink:href="#f1_9" transform="matrix(12,0,0,12,617.3,971.7)" />
<use xlink:href="#f1_h" transform="matrix(12,0,0,12,623.7,971.7)" />
<use xlink:href="#f1_4" transform="matrix(12,0,0,12,629.6,971.7)" />
<use xlink:href="#f1_h" transform="matrix(12,0,0,12,640.2,971.7)" />
<use xlink:href="#f1_u" transform="matrix(12,0,0,12,646,971.7)" />
<use xlink:href="#f1_9" transform="matrix(12,0,0,12,654.3,971.7)" />
<use xlink:href="#f1_h" transform="matrix(12,0,0,12,660.7,971.7)" />
<use xlink:href="#f1_f" transform="matrix(12,0,0,12,666.6,971.7)" />
<use xlink:href="#f1_6" transform="matrix(12,0,0,12,680.4,971.7)" />
<use xlink:href="#f1_h" transform="matrix(12,0,0,12,686,971.7)" />
<use xlink:href="#f1_e" transform="matrix(12,0,0,12,691.9,971.7)" />
<use xlink:href="#f1_h" transform="matrix(12,0,0,12,709.2,971.7)" />
<use xlink:href="#f1_9" transform="matrix(12,0,0,12,715,971.7)" />
<use xlink:href="#f1_i" transform="matrix(12,0,0,12,721.5,971.7)" />
<use xlink:href="#f1_h" transform="matrix(12,0,0,12,730.8,971.7)" />
<use xlink:href="#f1_n" transform="matrix(12,0,0,12,736.7,971.7)" />
<use xlink:href="#f1_5" transform="matrix(12,0,0,12,741.9,971.7)" />
<use xlink:href="#f1_n" transform="matrix(12,0,0,12,751.7,971.7)" />
<use xlink:href="#f1_i" transform="matrix(12,0,0,12,756.9,971.7)" />
<use xlink:href="#f1_d" transform="matrix(12,0,0,12,766.3,971.7)" />
<use xlink:href="#f1_c" transform="matrix(12,0,0,12,773,971.7)" />
<use xlink:href="#f1_g" transform="matrix(12,0,0,12,783.6,971.7)" />
<use xlink:href="#f2_7" transform="matrix(12,0,0,12,797,971.7)" />
<use xlink:href="#f1_1v" transform="matrix(12,0,0,12,811.6,971.7)" />
<use xlink:href="#f1_1v" transform="matrix(12,0,0,12,821.8,971.7)" />
<use xlink:href="#f2_4" transform="matrix(12,0,0,12,836.8,971.7)" />
<use xlink:href="#f1_n" transform="matrix(12,0,0,12,845.7,971.7)" />
<use xlink:href="#f1_1c" transform="matrix(12,0,0,12,47.4,1029.7)" />
<use xlink:href="#f1_c" transform="matrix(12,0,0,12,58.2,1029.7)" />
<use xlink:href="#f1_g" transform="matrix(12,0,0,12,68.8,1029.7)" />
<use xlink:href="#f1_4" transform="matrix(12,0,0,12,82.1,1029.7)" />
<use xlink:href="#f1_5" transform="matrix(12,0,0,12,92.7,1029.7)" />
<use xlink:href="#f1_g" transform="matrix(12,0,0,12,102.5,1029.7)" />
<use xlink:href="#f1_t" transform="matrix(12,0,0,12,111.1,1029.7)" />
<use xlink:href="#f1_a" transform="matrix(12,0,0,12,126.2,1029.7)" />
<use xlink:href="#f1_h" transform="matrix(12,0,0,12,137.9,1029.7)" />
<use xlink:href="#f1_8" transform="matrix(12,0,0,12,143.7,1029.7)" />
<use xlink:href="#f1_a" transform="matrix(12,0,0,12,153.6,1029.7)" />
<use xlink:href="#f1_u" transform="matrix(12,0,0,12,169.9,1029.7)" />
<use xlink:href="#f1_11" transform="matrix(12,0,0,12,178.2,1029.7)" />
<use xlink:href="#f1_5" transform="matrix(12,0,0,12,189.4,1029.7)" />
<use xlink:href="#f1_5" transform="matrix(12,0,0,12,199.3,1029.7)" />
<use xlink:href="#f1_r" transform="matrix(12,0,0,12,209.1,1029.7)" />
<use xlink:href="#f1_11" transform="matrix(12,0,0,12,225.1,1029.7)" />
<use xlink:href="#f1_g" transform="matrix(12,0,0,12,236.3,1029.7)" />
<use xlink:href="#f1_c" transform="matrix(12,0,0,12,244.9,1029.7)" />
<use xlink:href="#f1_s" transform="matrix(12,0,0,12,255.5,1029.7)" />
<use xlink:href="#f1_6" transform="matrix(12,0,0,12,266.7,1029.7)" />
<use xlink:href="#f1_5" transform="matrix(12,0,0,12,272.4,1029.7)" />
<use xlink:href="#f1_e" transform="matrix(12,0,0,12,282.2,1029.7)" />
<use xlink:href="#f1_u" transform="matrix(12,0,0,12,299.5,1029.7)" />
<use xlink:href="#f1_i" transform="matrix(12,0,0,12,307.8,1029.7)" />
<use xlink:href="#f1_g" transform="matrix(12,0,0,12,317.1,1029.7)" />
<use xlink:href="#f1_5" transform="matrix(12,0,0,12,325.8,1029.7)" />
<use xlink:href="#f1_6" transform="matrix(12,0,0,12,335.6,1029.7)" />
<use xlink:href="#f1_3" transform="matrix(12,0,0,12,341.2,1029.7)" />
<use xlink:href="#f1_9" transform="matrix(12,0,0,12,351.6,1029.7)" />
<use xlink:href="#f1_h" transform="matrix(12,0,0,12,358,1029.7)" />
<use xlink:href="#f1_4" transform="matrix(12,0,0,12,363.8,1029.7)" />
<use xlink:href="#f1_h" transform="matrix(12,0,0,12,374.4,1029.7)" />
<use xlink:href="#f1_u" transform="matrix(12,0,0,12,380.3,1029.7)" />
<use xlink:href="#f1_9" transform="matrix(12,0,0,12,388.6,1029.7)" />
<use xlink:href="#f1_h" transform="matrix(12,0,0,12,395,1029.7)" />
<use xlink:href="#f1_f" transform="matrix(12,0,0,12,400.9,1029.7)" />
<use xlink:href="#f1_5" transform="matrix(12,0,0,12,414.6,1029.7)" />
<use xlink:href="#f1_1b" transform="matrix(12,0,0,12,424.4,1029.7)" />
<use xlink:href="#f1_16" transform="matrix(12,0,0,12,435.7,1029.7)" />
<use xlink:href="#f1_3" transform="matrix(12,0,0,12,447.3,1029.7)" />
<use xlink:href="#f1_9" transform="matrix(12,0,0,12,457.6,1029.7)" />
<use xlink:href="#f1_h" transform="matrix(12,0,0,12,464.1,1029.7)" />
<use xlink:href="#f1_c" transform="matrix(12,0,0,12,469.9,1029.7)" />
<use xlink:href="#f1_7" transform="matrix(12,0,0,12,480.5,1029.7)" />
<use xlink:href="#f1_u" transform="matrix(12,0,0,12,492.3,1029.7)" />
<use xlink:href="#f1_e" transform="matrix(12,0,0,12,505.3,1029.7)" />
<use xlink:href="#f1_16" transform="matrix(12,0,0,12,522.6,1029.7)" />
<use xlink:href="#f1_u" transform="matrix(12,0,0,12,534.2,1029.7)" />
<use xlink:href="#f1_9" transform="matrix(12,0,0,12,542.5,1029.7)" />
<use xlink:href="#f1_s" transform="matrix(12,0,0,12,553.7,1029.7)" />
<use xlink:href="#f1_5" transform="matrix(12,0,0,12,564.9,1029.7)" />
<use xlink:href="#f1_f" transform="matrix(12,0,0,12,579.5,1029.7)" />
<use xlink:href="#f1_c" transform="matrix(12,0,0,12,588.5,1029.7)" />
<use xlink:href="#f1_7" transform="matrix(12,0,0,12,599.1,1029.7)" />
<use xlink:href="#f1_u" transform="matrix(12,0,0,12,610.9,1029.7)" />
<use xlink:href="#f1_h" transform="matrix(12,0,0,12,619.2,1029.7)" />
<use xlink:href="#f1_r" transform="matrix(12,0,0,12,625,1029.7)" />
<use xlink:href="#f1_5" transform="matrix(12,0,0,12,636.3,1029.7)" />
<use xlink:href="#f1_g" transform="matrix(12,0,0,12,646.1,1029.7)" />
<use xlink:href="#f1_5" transform="matrix(12,0,0,12,654.7,1029.7)" />
<use xlink:href="#f1_r" transform="matrix(12,0,0,12,664.5,1029.7)" />
<use xlink:href="#f1_d" transform="matrix(12,0,0,12,680.5,1029.7)" />
<use xlink:href="#f1_c" transform="matrix(12,0,0,12,687.3,1029.7)" />
<use xlink:href="#f1_g" transform="matrix(12,0,0,12,697.8,1029.7)" />
<use xlink:href="#f1_u" transform="matrix(12,0,0,12,711.2,1029.7)" />
<use xlink:href="#f1_c" transform="matrix(12,0,0,12,719.5,1029.7)" />
<use xlink:href="#f1_6" transform="matrix(12,0,0,12,730,1029.7)" />
<use xlink:href="#f1_4" transform="matrix(12,0,0,12,735.7,1029.7)" />
<use xlink:href="#f1_h" transform="matrix(12,0,0,12,746.3,1029.7)" />
<use xlink:href="#f1_7" transform="matrix(12,0,0,12,752.2,1029.7)" />
<use xlink:href="#f1_8" transform="matrix(12,0,0,12,764,1029.7)" />
<use xlink:href="#f1_9" transform="matrix(12,0,0,12,778.6,1029.7)" />
<use xlink:href="#f1_a" transform="matrix(12,0,0,12,785,1029.7)" />
<use xlink:href="#f1_5" transform="matrix(12,0,0,12,796.7,1029.7)" />
<use xlink:href="#f1_e" transform="matrix(12,0,0,12,806.5,1029.7)" />
<use xlink:href="#f1_n" transform="matrix(12,0,0,12,823.8,1029.7)" />
<use xlink:href="#f1_1r" transform="matrix(12,0,0,12,833.8,1029.7)" />
<use xlink:href="#f1_7" transform="matrix(12,0,0,12,840.5,1029.7)" />
<use xlink:href="#f1_9" transform="matrix(12,0,0,12,47.4,1061.8)" />
<use xlink:href="#f1_a" transform="matrix(12,0,0,12,53.8,1061.8)" />
<use xlink:href="#f1_5" transform="matrix(12,0,0,12,65.4,1061.8)" />
<use xlink:href="#f1_g" transform="matrix(12,0,0,12,80,1061.8)" />
<use xlink:href="#f1_5" transform="matrix(12,0,0,12,88.6,1061.8)" />
<use xlink:href="#f1_6" transform="matrix(12,0,0,12,98.4,1061.8)" />
<use xlink:href="#f1_3" transform="matrix(12,0,0,12,104.1,1061.8)" />
<use xlink:href="#f1_9" transform="matrix(12,0,0,12,114.4,1061.8)" />
<use xlink:href="#f1_h" transform="matrix(12,0,0,12,120.9,1061.8)" />
<use xlink:href="#f1_4" transform="matrix(12,0,0,12,126.7,1061.8)" />
<use xlink:href="#f1_h" transform="matrix(12,0,0,12,137.3,1061.8)" />
<use xlink:href="#f1_u" transform="matrix(12,0,0,12,143.2,1061.8)" />
<use xlink:href="#f1_9" transform="matrix(12,0,0,12,151.4,1061.8)" />
<use xlink:href="#f1_h" transform="matrix(12,0,0,12,157.9,1061.8)" />
<use xlink:href="#f1_f" transform="matrix(12,0,0,12,163.7,1061.8)" />
<use xlink:href="#f1_6" transform="matrix(12,0,0,12,177.5,1061.8)" />
<use xlink:href="#f1_h" transform="matrix(12,0,0,12,183.2,1061.8)" />
<use xlink:href="#f1_e" transform="matrix(12,0,0,12,189,1061.8)" />
<use xlink:href="#f1_h" transform="matrix(12,0,0,12,206.3,1061.8)" />
<use xlink:href="#f1_9" transform="matrix(12,0,0,12,212.2,1061.8)" />
<use xlink:href="#f1_i" transform="matrix(12,0,0,12,218.6,1061.8)" />
<use xlink:href="#f1_9" transform="matrix(12,0,0,12,227.9,1061.8)" />
<use xlink:href="#f1_a" transform="matrix(12,0,0,12,234.4,1061.8)" />
<use xlink:href="#f1_5" transform="matrix(12,0,0,12,246,1061.8)" />
<use xlink:href="#f1_9" transform="matrix(12,0,0,12,260.6,1061.8)" />
<use xlink:href="#f1_c" transform="matrix(12,0,0,12,267,1061.8)" />
<use xlink:href="#f1_9" transform="matrix(12,0,0,12,277.6,1061.8)" />
<use xlink:href="#f1_3" transform="matrix(12,0,0,12,284,1061.8)" />
<use xlink:href="#f1_6" transform="matrix(12,0,0,12,294.4,1061.8)" />
<use xlink:href="#f1_5" transform="matrix(12,0,0,12,304.8,1061.8)" />
<use xlink:href="#f1_7" transform="matrix(12,0,0,12,314.6,1061.8)" />
<use xlink:href="#f1_5" transform="matrix(12,0,0,12,326.4,1061.8)" />
<use xlink:href="#f1_g" transform="matrix(12,0,0,12,336.2,1061.8)" />
<use xlink:href="#f1_8" transform="matrix(12,0,0,12,344.8,1061.8)" />
<use xlink:href="#f1_t" transform="matrix(12,0,0,12,354.7,1061.8)" />
<use xlink:href="#f1_h" transform="matrix(12,0,0,12,369.8,1061.8)" />
<use xlink:href="#f1_u" transform="matrix(12,0,0,12,375.6,1061.8)" />
<use xlink:href="#f1_8" transform="matrix(12,0,0,12,388.7,1061.8)" />
<use xlink:href="#f1_h" transform="matrix(12,0,0,12,398.5,1061.8)" />
<use xlink:href="#f1_4" transform="matrix(12,0,0,12,404.4,1061.8)" />
<use xlink:href="#f1_5" transform="matrix(12,0,0,12,415,1061.8)" />
<use xlink:href="#f1_7" transform="matrix(12,0,0,12,424.8,1061.8)" />
<use xlink:href="#f1_3" transform="matrix(12,0,0,12,441.3,1061.8)" />
<use xlink:href="#f1_u" transform="matrix(12,0,0,12,451.6,1061.8)" />
<use xlink:href="#f1_15" transform="matrix(12,0,0,12,459.9,1061.8)" />
<use xlink:href="#f2_c" transform="matrix(12,0,0,12,47.4,1112.2)" />
<use xlink:href="#f1_j" transform="matrix(12,0,0,12,58.8,1112.2)" />
</g>
</g>
<image preserveAspectRatio="none" x="73" y="1091" width="48" height="32" xlink:href="img/11.png" />
<g clip-path="url(#c0_160)">
<g fill="#000000" >
<use xlink:href="#f1_2" transform="matrix(12,0,0,12,47.4,1164.2)" />
<use xlink:href="#f1_a" transform="matrix(12,0,0,12,66.6,1164.2)" />
<use xlink:href="#f1_5" transform="matrix(12,0,0,12,78.2,1164.2)" />
<use xlink:href="#f1_g" transform="matrix(12,0,0,12,88,1164.2)" />
<use xlink:href="#f1_5" transform="matrix(12,0,0,12,96.6,1164.2)" />
<use xlink:href="#f1_i" transform="matrix(12,0,0,12,106.4,1164.2)" />
</g>
</g>
<g fill="#000000" >
<use xlink:href="#f3_n" transform="matrix(8,0,0,8,785.4,1275.3)" />
<use xlink:href="#f3_s" transform="matrix(8,0,0,8,792.2,1275.3)" />
</g>
<defs>
<path d="M674,452L593,703c0,0,-9,25,-16,55c0,0,-10,28,-18,58c0,0,-8,29,-16,60c0,0,-9,29,-14,56c0,0,-7,-24,-16,-51c0,0,-9,-28,-18,-57c0,0,-11,-29,-21,-58c0,0,-10,-29,-19,-56L365,452ZM6,0V81H25c0,0,20,0,37,5c0,0,16,4,31,17c0,0,14,12,28,34c0,0,12,20,26,55l331,899H688L1007,191c0,0,11,-33,24,-53c0,0,12,-22,27,-34c0,0,13,-12,30,-17c0,0,15,-6,32,-6c1,0,2,0,3,0h27V0H646V81h60c0,0,10,0,23,4c0,0,11,2,21,10c0,0,9,7,15,18c0,0,6,12,6,27c0,0,0,19,-4,36c0,0,-5,16,-9,30L704,359H333L289,228c0,0,-7,-20,-12,-44c0,0,-7,-26,-7,-44c0,0,0,-15,6,-26c0,0,5,-11,16,-18c0,0,9,-8,22,-11c0,0,12,-4,25,-4h65V0Z" 
id="f0_1i"
transform="scale(0.001,-0.001)" />

<path d="M31,0V81h3c0,0,25,0,47,4c0,0,21,3,38,14c0,0,16,11,25,32c0,0,9,20,9,55V639c0,0,0,32,-8,51c0,0,-8,19,-22,31c0,0,-15,9,-35,14c0,0,-20,3,-45,3H38v81H359L379,710h7c0,0,24,43,50,69c0,0,25,25,54,39c0,0,29,13,62,17c0,0,32,3,68,3c0,0,59,0,106,-17c0,0,47,-17,80,-53c0,0,32,-36,49,-91c0,0,16,-56,17,-133V189c0,0,0,-35,7,-56c0,0,5,-22,18,-33c0,0,12,-12,33,-15c0,0,18,-4,45,-4h4V0H640V503c0,0,-1,48,-6,88c0,0,-7,38,-21,64c0,0,-15,25,-38,40c0,0,-24,14,-57,14c0,0,-38,-1,-64,-20c0,0,-26,-19,-40,-51c0,0,-16,-33,-22,-76c0,0,-7,-44,-7,-90V181c0,0,0,-33,8,-52c0,0,7,-20,22,-30c0,0,13,-11,35,-14c0,0,19,-4,45,-4h5V0Z" 
id="f0_d"
transform="scale(0.001,-0.001)" />

<path d="M357,-14c-1,0,-3,0,-4,0c0,0,-83,0,-141,14c0,0,-60,12,-96,36c0,0,-37,23,-53,57c0,0,-17,32,-17,70c0,0,0,37,14,61c0,0,15,22,37,35c0,0,21,12,46,17c0,0,25,3,45,4c0,0,-1,-49,12,-86c0,0,12,-39,33,-64c0,0,21,-27,53,-41c0,0,28,-14,64,-14c1,0,2,0,3,0c0,0,39,0,68,8c0,0,28,7,47,23c0,0,18,14,27,34c0,0,9,17,9,39c0,0,0,25,-9,46c0,0,-10,18,-31,37c0,0,-22,16,-57,34c0,0,-38,16,-91,35c0,0,-62,21,-109,46c0,0,-48,24,-79,56c0,0,-33,30,-50,71c0,0,-17,38,-17,91c0,0,0,60,24,106c0,0,22,46,66,76c0,0,44,30,104,45c0,0,61,14,134,15c0,0,73,0,123,-12c0,0,50,-13,83,-33c0,0,32,-20,47,-45c0,0,14,-26,15,-52c0,0,0,-51,-36,-78c0,0,-37,-27,-120,-27c0,0,0,76,-33,119c0,0,-35,41,-101,41c0,0,-25,0,-47,-6c0,0,-24,-5,-40,-17c0,0,-17,-13,-26,-30c0,0,-11,-18,-11,-41c0,0,-1,-26,10,-44c0,0,9,-20,33,-37c0,0,23,-18,63,-36c0,0,40,-18,103,-39c0,0,50,-18,94,-40c0,0,43,-24,74,-53c0,0,30,-30,48,-67c0,0,16,-39,17,-86c0,0,-1,-65,-22,-114c0,0,-22,-50,-65,-84C598,56,555,21,494,4c0,0,-60,-18,-137,-18Z" 
id="f0_t"
transform="scale(0.001,-0.001)" />

<path d="M232,-11c0,0,-26,0,-49,7c0,0,-24,4,-40,19c0,0,-17,13,-27,37c0,0,-10,23,-9,58c0,0,-1,34,9,59c0,0,10,22,27,37c0,0,16,14,40,20c0,0,23,5,49,6c0,0,25,-1,48,-6c0,0,23,-6,40,-20c0,0,16,-15,28,-37c0,0,9,-25,9,-59c0,0,0,-35,-9,-58c0,0,-12,-24,-28,-37C320,15,303,0,280,-4c0,0,-23,-7,-48,-7Z" 
id="f0_n"
transform="scale(0.001,-0.001)" />

<path d="M562,-212c0,0,-127,52,-217,121c0,0,-91,68,-147,155c0,0,-58,87,-84,193c0,0,-27,104,-27,229c0,0,0,123,27,228c0,0,26,104,84,191c0,0,56,86,147,155c0,0,90,68,217,119v-96c0,0,-70,-47,-115,-112c0,0,-45,-66,-70,-143c0,0,-26,-78,-35,-164c0,0,-10,-88,-9,-178c0,0,-1,-91,9,-179c0,0,9,-88,35,-165c0,0,25,-79,70,-143c0,0,45,-67,115,-113v-98Z" 
id="f0_1c"
transform="scale(0.001,-0.001)" />

<path d="M392,96c0,0,32,0,60,14c0,0,25,13,46,38c0,0,18,26,29,62c0,0,9,35,9,79V403H468c0,0,-47,-1,-77,-13c0,0,-31,-13,-50,-34c0,0,-19,-22,-27,-53c0,0,-8,-33,-8,-74c0,0,-1,-67,21,-100c0,0,21,-33,65,-33ZM314,-14c-2,0,-3,0,-5,0c0,0,-51,0,-94,14c0,0,-44,15,-76,46c0,0,-33,32,-52,79c0,0,-19,47,-18,111c0,0,-1,125,85,185c0,0,85,61,257,61H536v86c0,0,0,38,-3,71c0,0,-3,32,-12,57c0,0,-11,23,-29,37c0,0,-19,11,-50,12c0,0,-30,0,-49,-12c0,0,-20,-13,-32,-34c0,0,-13,-22,-16,-52c0,0,-6,-31,-6,-67h-1c-11,0,-105,1,-153,24c0,0,-53,23,-52,79c0,0,-1,41,25,71c0,0,24,29,68,49c0,0,43,18,100,27c0,0,57,8,122,8c0,0,80,0,141,-13c0,0,59,-15,100,-45c0,0,38,-30,59,-80c0,0,20,-50,20,-121V189c0,0,0,-31,6,-52c0,0,4,-21,15,-33c0,0,9,-12,28,-17c0,0,15,-6,39,-6c1,0,3,0,4,0h6V0H582L550,105H536c0,0,-26,-30,-47,-53c0,0,-23,-24,-48,-38C441,14,415,0,384,-6c0,0,-30,-8,-70,-8Z" 
id="f0_3"
transform="scale(0.001,-0.001)" />

<path d="M49,-212v98c0,0,70,46,116,113c0,0,44,64,70,143c0,0,24,77,34,165c0,0,9,88,9,179c0,0,0,90,-9,178c0,0,-10,86,-34,164c0,0,-26,77,-70,143c0,0,-46,65,-116,112v96c0,0,127,-51,218,-119c0,0,90,-69,148,-155c0,0,56,-87,83,-191c0,0,25,-105,26,-228c0,0,-1,-125,-26,-229c0,0,-27,-106,-83,-193c0,0,-58,-87,-148,-155c0,0,-91,-69,-218,-121Z" 
id="f0_1d"
transform="scale(0.001,-0.001)" />

<path d="M439,497c0,0,69,0,118,15c0,0,49,14,81,47c0,0,31,32,46,83c0,0,14,50,14,123c0,0,-1,64,-12,112c0,0,-14,47,-41,79c0,0,-29,31,-74,47c0,0,-46,14,-110,15H357V497ZM58,0V64H78c0,0,25,0,49,4c0,0,22,3,39,16c0,0,17,11,27,32c0,0,10,21,10,58V923c0,0,0,33,-10,54c0,0,-11,20,-27,32c0,0,-18,11,-40,14c0,0,-24,3,-48,3H58v65H487c0,0,96,-1,167,-22c0,0,70,-22,117,-63c0,0,46,-42,70,-101c0,0,22,-60,22,-134c0,0,0,-68,-21,-130c0,0,-22,-63,-70,-111c0,0,-48,-49,-127,-76c0,0,-79,-30,-191,-30H357V166c0,0,0,-33,11,-53c0,0,9,-22,27,-32c0,0,16,-10,40,-13c0,0,22,-4,48,-4h50V0Z" 
id="f1_p"
transform="scale(0.001,-0.001)" />

<path d="M442,64c0,0,56,0,97,23c0,0,38,22,64,66c0,0,24,43,36,108c0,0,9,65,10,150c0,0,0,85,-11,149c0,0,-11,64,-36,108c0,0,-25,42,-64,64c0,0,-41,21,-98,21c0,0,-58,0,-97,-21c0,0,-39,-22,-64,-64c0,0,-25,-44,-36,-108c0,0,-11,-64,-11,-149c0,0,0,-85,11,-150c0,0,11,-65,37,-108c0,0,24,-44,65,-66c0,0,38,-23,97,-23Zm-3,-78c0,0,-83,0,-149,25c0,0,-66,26,-111,79c0,0,-47,52,-70,134c0,0,-25,79,-25,187c0,0,0,213,91,319c0,0,90,103,268,104c0,0,82,0,149,-25c0,0,65,-26,111,-79c0,0,46,-53,71,-132c0,0,23,-80,23,-187c0,0,0,-216,-91,-321C706,90,614,-14,439,-14Z" 
id="f1_c"
transform="scale(0.001,-0.001)" />

<path d="M367,-14c0,0,-59,0,-100,13c0,0,-42,10,-69,38c0,0,-27,27,-39,73c0,0,-14,45,-14,112V732H29v61c0,0,28,0,61,11c0,0,32,11,58,37c0,0,26,28,43,68c0,0,15,38,28,98h70V819H489V732H289V217c0,0,-1,-78,32,-115c0,0,30,-36,83,-36c0,0,1,0,1,0c0,0,2,0,6,0c9,0,28,0,45,3c0,0,23,3,47,7V9C503,9,492,4,477,0c0,0,-15,-3,-33,-6c0,0,-20,-5,-39,-6c0,0,-20,-2,-38,-2Z" 
id="f1_9"
transform="scale(0.001,-0.001)" />

<path d="M586,481c0,0,0,60,-9,111c0,0,-9,50,-29,85c0,0,-19,36,-51,56c0,0,-33,18,-79,19c0,0,-87,-1,-133,-69c0,0,-46,-69,-46,-202ZM439,-14c0,0,-83,0,-149,27c0,0,-66,28,-112,82c0,0,-46,53,-69,132c0,0,-25,77,-25,177c0,0,0,213,88,322c0,0,88,108,251,108c0,0,73,0,133,-23c0,0,58,-24,100,-69c0,0,41,-46,63,-114c0,0,21,-69,22,-159V399H233c0,0,0,-84,15,-143c0,0,15,-61,44,-99c0,0,28,-40,71,-57c0,0,40,-19,93,-19c1,0,2,0,4,0c0,0,38,0,73,9c0,0,33,9,62,24c0,0,26,14,48,34c0,0,21,18,35,40c0,0,10,-4,20,-19c0,0,9,-15,9,-33c0,0,0,-24,-16,-49c0,0,-17,-27,-50,-50C641,37,607,14,557,0c0,0,-50,-14,-118,-14Z" 
id="f1_5"
transform="scale(0.001,-0.001)" />

<path d="M43,0V64H55c0,0,26,0,49,4c0,0,23,3,40,16c0,0,16,11,27,32c0,0,10,21,10,58V650c0,0,0,33,-10,55c0,0,-11,20,-28,31c0,0,-17,11,-39,15c0,0,-24,3,-49,4H51v64H298L318,695h7c0,0,23,42,51,70c0,0,25,27,56,43c0,0,29,14,63,21c0,0,32,5,69,5c0,0,60,-1,108,-17c0,0,47,-18,81,-54c0,0,32,-37,50,-93c0,0,17,-58,18,-135V174c0,0,0,-37,9,-58c0,0,7,-21,23,-32c0,0,16,-13,38,-16c0,0,21,-4,47,-4h5V0H677V527c0,0,0,50,-9,89c0,0,-10,39,-29,66c0,0,-20,26,-52,41c0,0,-33,13,-78,13c0,0,-53,0,-88,-20c0,0,-36,-20,-57,-54c0,0,-22,-35,-31,-79c0,0,-10,-45,-9,-94V166c0,0,0,-33,10,-53c0,0,10,-22,27,-32c0,0,16,-10,40,-13c0,0,22,-4,48,-4h5V0Z" 
id="f1_7"
transform="scale(0.001,-0.001)" />

<path d="M35,0V64H55c0,0,25,0,49,4c0,0,22,3,39,13c0,0,17,10,28,32c0,0,10,20,10,53V650c0,0,0,33,-10,55c0,0,-11,20,-28,31c0,0,-17,11,-39,15c0,0,-24,3,-49,4H51v64H324V174c0,0,0,-37,10,-58c0,0,10,-21,27,-32c0,0,16,-13,40,-16c0,0,22,-4,48,-4h20V0ZM249,972c-1,0,-2,0,-3,0c0,0,-1,0,-2,0c-5,0,-20,0,-32,5c0,0,-16,5,-28,16c0,0,-12,11,-18,29c0,0,-7,18,-7,45c0,0,0,27,7,45c0,0,6,17,18,29c0,0,12,11,28,15c0,0,15,5,34,5c0,0,18,0,34,-5c0,0,15,-4,27,-15c0,0,11,-12,19,-29c0,0,7,-18,7,-45c0,0,0,-27,-7,-45c0,0,-8,-18,-19,-29c0,0,-12,-11,-27,-16c0,0,-14,-5,-31,-5Z" 
id="f1_h"
transform="scale(0.001,-0.001)" />

<path d="M348,79c0,0,46,0,85,15c0,0,36,14,64,42c0,0,25,27,40,66c0,0,14,39,14,87V412H454c0,0,-65,0,-109,-14c0,0,-44,-13,-70,-36c0,0,-27,-25,-39,-59c0,0,-12,-35,-11,-80c0,0,0,-73,30,-108c0,0,29,-36,93,-36ZM313,-14c0,0,-50,0,-94,14c0,0,-44,14,-75,45c0,0,-33,30,-50,77c0,0,-18,47,-18,109c0,0,0,123,87,182c0,0,85,59,261,60H551v93c0,0,0,42,-4,78c0,0,-5,34,-20,60c0,0,-15,26,-42,40c0,0,-28,14,-75,14c0,0,-44,0,-71,-12c0,0,-29,-13,-43,-35c0,0,-16,-23,-21,-53c0,0,-6,-31,-5,-66c0,0,-64,0,-96,21c0,0,-34,21,-34,75c0,0,0,39,22,67c0,0,21,28,60,45c0,0,36,17,87,26c0,0,49,7,107,8c0,0,69,0,122,-13c0,0,52,-15,87,-46c0,0,34,-31,53,-81c0,0,17,-52,17,-124V174c0,0,0,-33,5,-53c0,0,6,-22,17,-34c0,0,10,-12,30,-18c0,0,15,-5,38,-5c2,0,3,0,5,0h4V0H588L564,131H551c0,0,-24,-33,-46,-59c0,0,-22,-27,-49,-46C456,26,429,6,395,-3c0,0,-35,-11,-82,-11Z" 
id="f1_3"
transform="scale(0.001,-0.001)" />

<path d="M20,0V64H40c0,0,25,0,49,4c0,0,22,3,39,16c0,0,17,11,27,32c0,0,10,21,10,58V993c0,0,0,33,-10,54c0,0,-11,21,-27,32c0,0,-18,11,-40,15c0,0,-24,3,-48,3H20v64H309V174c0,0,-1,-37,10,-58c0,0,9,-21,26,-32c0,0,17,-13,41,-16c0,0,22,-4,48,-4h20V0Z" 
id="f1_6"
transform="scale(0.001,-0.001)" />

<path d="M421,83c0,0,59,0,100,20c0,0,39,19,65,60c0,0,23,39,34,101c0,0,10,61,10,144c0,0,0,79,-10,141c0,0,-11,61,-34,103c0,0,-25,41,-65,63c0,0,-41,21,-101,21c0,0,-51,0,-86,-21c0,0,-36,-23,-58,-64c0,0,-24,-42,-34,-103c0,0,-10,-62,-10,-141c0,0,0,-163,44,-244c0,0,43,-80,145,-80ZM395,-14c-8,0,-78,1,-133,24c0,0,-59,24,-98,77c0,0,-39,52,-60,132c0,0,-20,79,-20,189c0,0,0,110,20,191c0,0,21,80,60,133c0,0,39,51,98,77c0,0,58,25,133,25c0,0,44,0,80,-10c0,0,36,-10,65,-27c0,0,28,-18,51,-43c0,0,21,-24,39,-54h4c0,0,0,36,0,70c0,0,0,27,0,57c0,0,0,27,0,41V993c0,0,-1,33,-10,54c0,0,-11,21,-29,32c0,0,-18,11,-41,15c0,0,-24,3,-49,3H492v64H773V168c0,0,0,-34,10,-54c0,0,10,-21,27,-32c0,0,17,-11,40,-14c0,0,22,-4,48,-4h13V0H652L636,137h-6c0,0,-18,-35,-39,-62c0,0,-23,-29,-51,-48C540,27,512,6,476,-3c0,0,-36,-11,-81,-11Z" 
id="f1_r"
transform="scale(0.001,-0.001)" />

<path d="M41,0V64H61c0,0,26,0,49,4c0,0,23,3,40,16c0,0,16,11,27,32c0,0,9,21,9,58V747H47v72H186v76c0,0,0,68,19,121c0,0,19,52,54,88c0,0,34,35,85,55c0,0,50,17,113,17c0,0,58,0,100,-7c0,0,41,-8,67,-22c0,0,24,-15,35,-34c0,0,12,-20,12,-43c0,0,0,-22,-9,-37c0,0,-11,-17,-26,-27c0,0,-18,-11,-40,-16c0,0,-24,-6,-51,-6c0,0,0,23,-4,45c0,0,-6,21,-17,39c0,0,-12,17,-31,28c0,0,-19,10,-48,10c0,0,-34,0,-55,-12c0,0,-22,-13,-36,-38c0,0,-13,-26,-18,-62c0,0,-6,-37,-6,-85V819H545V747H330V174c0,0,0,-37,10,-58c0,0,10,-21,27,-32c0,0,16,-13,40,-16c0,0,22,-4,48,-4h58V0Z" 
id="f1_d"
transform="scale(0.001,-0.001)" />

<path d="M51,0V64h4c0,0,26,0,49,4c0,0,23,3,40,16c0,0,16,11,27,32c0,0,10,21,10,58V650c0,0,0,33,-10,55c0,0,-11,20,-28,31c0,0,-17,11,-39,15c0,0,-24,3,-49,4H51v64H286L315,668h7c0,0,14,34,31,65c0,0,15,29,39,53c0,0,22,22,56,35c0,0,33,12,84,13c0,0,83,0,124,-29c0,0,41,-30,41,-82c0,0,0,-24,-8,-44c0,0,-9,-20,-25,-34c0,0,-17,-15,-44,-23c0,0,-27,-8,-66,-8c0,0,0,63,-18,92c0,0,-18,27,-62,27c0,0,-29,0,-51,-15c0,0,-22,-18,-39,-43c0,0,-17,-27,-28,-61c0,0,-13,-35,-19,-70c0,0,-8,-37,-10,-73c0,0,-4,-35,-3,-64V166c0,0,0,-33,10,-53c0,0,10,-22,27,-32c0,0,16,-10,40,-13c0,0,22,-4,48,-4h43V0Z" 
id="f1_g"
transform="scale(0.001,-0.001)" />

<path d="M433,-14c0,0,-77,0,-141,23c0,0,-64,23,-110,74c0,0,-46,50,-72,130c0,0,-26,79,-26,192c0,0,0,122,26,205c0,0,26,82,72,132c0,0,46,49,108,71c0,0,61,21,134,21c0,0,47,0,96,-9c0,0,47,-10,85,-29c0,0,38,-19,62,-49c0,0,23,-30,24,-69c0,0,0,-54,-35,-74c0,0,-35,-22,-102,-22c0,0,0,35,-6,68c0,0,-6,32,-20,56c0,0,-15,24,-39,38c0,0,-26,14,-65,14c0,0,-44,0,-79,-16c0,0,-35,-18,-61,-57c0,0,-26,-40,-39,-108c0,0,-13,-69,-13,-170c0,0,-1,-164,54,-243c0,0,54,-80,177,-80h1c6,0,72,1,123,30c0,0,52,30,79,77c0,0,11,-10,19,-24c0,0,7,-15,7,-36c0,0,0,-27,-16,-52c0,0,-17,-26,-49,-47C627,32,594,10,546,0c0,0,-48,-14,-113,-14Z" 
id="f1_f"
transform="scale(0.001,-0.001)" />

<path d="M321,-14c0,0,-58,0,-104,11c0,0,-48,7,-80,29c0,0,-33,20,-50,51c0,0,-18,30,-18,70c0,0,0,30,10,51c0,0,10,20,25,33c0,0,14,11,31,17c0,0,16,4,30,4c0,0,0,-41,8,-75c0,0,8,-36,28,-61c0,0,18,-28,51,-42c0,0,31,-16,78,-16c0,0,41,0,72,11c0,0,31,9,53,28c0,0,21,18,32,44c0,0,11,25,11,56c0,0,0,28,-8,49c0,0,-9,20,-30,38c0,0,-21,17,-58,37c0,0,-37,18,-92,42c0,0,-59,26,-102,51c0,0,-45,23,-72,52c0,0,-29,28,-43,65c0,0,-15,35,-14,86c0,0,-1,52,21,92c0,0,20,40,58,68c0,0,38,26,91,41c0,0,52,15,118,15c0,0,54,0,96,-12c0,0,41,-11,70,-30c0,0,28,-19,43,-44c0,0,14,-27,14,-55c0,0,-1,-42,-28,-66c0,0,-29,-25,-80,-25c-1,0,-2,0,-2,0c0,0,0,76,-32,119c0,0,-32,42,-100,42c0,0,-39,0,-66,-9c0,0,-28,-9,-45,-25c0,0,-18,-17,-26,-39c0,0,-8,-22,-8,-49c0,0,0,-29,10,-50c0,0,10,-22,34,-39c0,0,22,-18,59,-35c0,0,36,-17,86,-38c0,0,60,-26,104,-50c0,0,43,-24,72,-54c0,0,27,-29,41,-65c0,0,13,-37,13,-84c0,0,-1,-60,-21,-105c0,0,-23,-45,-62,-74C539,46,499,14,445,0c0,0,-56,-14,-124,-14Z" 
id="f1_u"
transform="scale(0.001,-0.001)" />

<path d="M28,0V64H40c0,0,25,0,49,4c0,0,22,3,39,16c0,0,17,11,27,32c0,0,10,21,10,58V993c0,0,0,33,-10,54c0,0,-11,21,-27,32c0,0,-18,11,-40,15c0,0,-24,3,-48,3H28v64H308V825c0,0,0,-22,0,-43c0,0,-1,-24,-4,-43c0,0,0,-23,0,-44h6c0,0,68,139,225,139c0,0,65,-1,115,-17c0,0,50,-18,85,-54c0,0,34,-37,52,-93c0,0,18,-58,18,-135V174c0,0,0,-37,9,-58c0,0,9,-21,24,-32c0,0,16,-13,38,-16c0,0,21,-4,47,-4h4V0H662V527c0,0,0,50,-9,89c0,0,-10,39,-29,66c0,0,-20,26,-52,41c0,0,-33,13,-78,13c0,0,-49,0,-82,-17c0,0,-35,-18,-58,-50c0,0,-24,-33,-34,-78c0,0,-11,-46,-11,-102V166c0,0,0,-33,10,-53c0,0,10,-22,27,-32c0,0,17,-10,40,-13c0,0,22,-4,48,-4h5V0Z" 
id="f1_a"
transform="scale(0.001,-0.001)" />

<path d="M365,0L119,674c0,0,-9,23,-18,39c0,0,-11,15,-23,26c0,0,-12,8,-29,12c0,0,-17,3,-39,4H6v64H388V755H369c0,0,-47,0,-69,-18c0,0,-24,-18,-23,-56c0,0,-1,-13,3,-25c0,0,3,-14,9,-31L392,336c0,0,10,-26,21,-58c0,0,9,-33,20,-65c0,0,8,-31,16,-59c0,0,7,-29,11,-47h5c0,0,3,16,12,41c0,0,8,23,20,53c0,0,10,27,22,58c0,0,11,29,22,57L650,614c0,0,8,19,12,36c0,0,3,16,3,30c0,0,0,38,-25,57c0,0,-26,18,-76,18H553v64H880V755H862c0,0,-23,0,-38,-5c0,0,-17,-6,-29,-18c0,0,-12,-14,-24,-37c0,0,-12,-24,-26,-59L504,0Z" 
id="f1_4"
transform="scale(0.001,-0.001)" />

<path d="M417,-14c0,0,-60,0,-107,16c0,0,-47,17,-79,54c0,0,-33,36,-49,93c0,0,-17,57,-17,135V650c0,0,0,33,-10,55c0,0,-11,20,-27,31c0,0,-18,11,-40,15c0,0,-24,3,-48,4H35v64H309V292c0,0,0,-51,8,-89c0,0,7,-40,26,-66c0,0,18,-27,49,-40c0,0,29,-14,74,-14c1,0,2,0,3,0c0,0,50,0,88,18c0,0,35,18,59,50c0,0,23,32,34,78c0,0,12,46,12,101V645c0,0,0,35,-10,58c0,0,-10,21,-27,33c0,0,-17,11,-39,15c0,0,-24,3,-50,4h-4v64H805V166c0,0,0,-33,10,-53c0,0,10,-22,27,-32c0,0,17,-10,41,-13c0,0,21,-4,47,-4h5V0H692L672,124h-7c0,0,-24,-44,-51,-70c0,0,-28,-28,-60,-42c0,0,-31,-15,-65,-20c0,0,-35,-6,-72,-6Z" 
id="f1_16"
transform="scale(0.001,-0.001)" />

<path d="M518,83c0,0,50,0,86,21c0,0,35,21,58,63c0,0,23,41,33,104c0,0,10,61,11,142c0,0,-1,80,-11,142c0,0,-10,60,-33,101c0,0,-23,40,-58,60c0,0,-38,20,-88,20c0,0,-60,0,-99,-19c0,0,-41,-20,-64,-61c0,0,-24,-40,-34,-101c0,0,-10,-62,-10,-144c0,0,0,-80,10,-141c0,0,10,-62,35,-103c0,0,23,-42,64,-63c0,0,39,-21,100,-21Zm27,-97c-1,0,-2,0,-3,0h-2c-8,0,-46,1,-77,10c0,0,-37,8,-65,26c0,0,-29,18,-50,43c0,0,-23,24,-39,54H299L272,0H28V64H40c0,0,25,0,49,4c0,0,22,3,39,16c0,0,17,11,27,32c0,0,10,21,10,58V993c0,0,0,33,-10,54c0,0,-11,21,-27,32c0,0,-18,11,-40,15c0,0,-24,3,-48,3H28v64H306V880c0,0,0,-26,0,-59c0,0,0,-35,0,-66c0,0,0,-36,0,-74h3c0,0,16,34,39,63c0,0,21,28,50,49c0,0,27,19,64,31c0,0,36,9,80,10c0,0,75,0,134,-25c0,0,58,-26,98,-76c0,0,38,-53,60,-132c0,0,20,-80,20,-190c0,0,0,-111,-20,-191c0,0,-22,-80,-60,-133c0,0,-40,-53,-98,-77c0,0,-57,-24,-131,-24Z" 
id="f1_s"
transform="scale(0.001,-0.001)" />

<path d="M46,-234v64c0,0,74,23,110,58c0,0,34,35,35,79c0,0,-1,15,-8,26c0,0,-9,8,-21,17c0,0,-13,6,-27,15c0,0,-15,7,-27,18c0,0,-13,9,-21,26c0,0,-8,14,-8,38c0,0,0,43,29,67c0,0,28,23,71,23c0,0,23,-1,45,-8c0,0,20,-9,37,-26c0,0,16,-17,26,-41c0,0,9,-27,9,-58c0,0,0,-48,-13,-93c0,0,-14,-46,-44,-84c0,0,-30,-40,-77,-70c0,0,-49,-31,-116,-51Z" 
id="f1_i"
transform="scale(0.001,-0.001)" />

<path d="M367,0L236,946c0,0,-5,45,-24,63c0,0,-20,17,-67,17H125l14,65H554l-12,-65H507c0,0,-50,0,-80,-20c0,0,-30,-21,-30,-57c0,0,0,-27,4,-52L461,401c0,0,16,-129,16,-251c0,0,56,132,124,251L872,886c0,0,29,52,29,86c0,0,0,54,-85,54H781l12,65h377l-14,-65h-29c0,0,-51,0,-77,-26c0,0,-27,-26,-63,-92L478,0Z" 
id="f2_a"
transform="scale(0.001,-0.001)" />

<path d="M99,350v90H755V350Zm0,300v91H755V650Z" 
id="f1_j"
transform="scale(0.001,-0.001)" />

<path d="M377,-14c-2,0,-3,0,-4,0c0,0,-86,0,-140,14c0,0,-57,14,-89,37c0,0,-33,21,-46,50c0,0,-14,26,-14,52c0,0,0,42,24,66c0,0,23,23,73,24c0,0,-1,-34,11,-61c0,0,11,-28,35,-49c0,0,22,-21,57,-32c0,0,33,-12,77,-12c1,0,2,0,4,0c0,0,47,0,87,13c0,0,39,12,69,43c0,0,29,29,46,80c0,0,16,49,16,122c0,0,0,60,-16,105c0,0,-17,44,-47,74c0,0,-31,30,-73,45c0,0,-43,14,-96,14c0,0,-40,0,-68,-3c0,0,-29,-3,-50,-7c0,0,-23,-6,-39,-11c0,0,-17,-7,-31,-12l-36,10l49,541H690V859H630l-6,45c0,0,-3,16,-6,28c0,0,-5,12,-14,20c0,0,-9,7,-24,11c0,0,-16,3,-39,4H245L216,631c0,0,23,8,67,17c0,0,42,7,111,8c0,0,74,0,138,-20c0,0,63,-21,110,-61c0,0,47,-40,74,-101c0,0,26,-61,26,-141c0,0,0,-79,-24,-142c0,0,-26,-64,-73,-110C645,81,597,35,529,10c0,0,-67,-24,-152,-24Z" 
id="f1_1k"
transform="scale(0.001,-0.001)" />

<path d="M427,67c0,0,56,0,94,33c0,0,38,32,62,94c0,0,23,61,34,151c0,0,10,88,10,202c0,0,0,112,-10,202c0,0,-11,88,-34,150c0,0,-24,60,-61,93c0,0,-39,31,-93,31c0,0,-56,0,-94,-31c0,0,-40,-33,-63,-93c0,0,-24,-62,-34,-150c0,0,-10,-90,-10,-202c0,0,0,-114,10,-202c0,0,10,-90,34,-151c0,0,23,-62,62,-94c0,0,38,-33,93,-33Zm0,-81c0,0,-94,0,-161,39c0,0,-69,41,-112,115c0,0,-44,73,-64,178c0,0,-22,103,-21,230c0,0,-1,126,21,230c0,0,20,103,64,176c0,0,44,72,112,113c0,0,67,39,163,39c0,0,89,0,157,-39c0,0,65,-41,111,-113c0,0,45,-73,67,-176c0,0,21,-104,22,-231c0,0,-1,-127,-22,-230c0,0,-22,-104,-67,-177C697,140,652,66,585,25c0,0,-67,-39,-158,-39Z" 
id="f1_1e"
transform="scale(0.001,-0.001)" />

<path d="M458,0L128,946c0,0,-8,23,-18,39c0,0,-10,16,-22,25c0,0,-13,9,-29,13c0,0,-17,3,-39,3H0v65H420v-65H385c0,0,-46,0,-69,-17c0,0,-24,-18,-23,-56c0,0,0,-12,4,-26c0,0,3,-14,9,-30L474,401c0,0,22,-69,39,-132c0,0,17,-65,29,-119c0,0,12,54,29,117c0,0,15,61,41,134L781,886c0,0,5,19,10,36c0,0,3,16,3,30c0,0,0,39,-24,57c0,0,-26,17,-76,17H659v65h372v-65h-29c0,0,-23,0,-38,-4c0,0,-17,-5,-29,-17c0,0,-14,-14,-25,-37c0,0,-12,-24,-24,-60L570,0Z" 
id="f1_1f"
transform="scale(0.001,-0.001)" />

<path d="M382,-14c-2,0,-3,0,-5,0c0,0,-75,0,-131,15c0,0,-57,15,-95,44c0,0,-40,27,-58,68c0,0,-20,38,-20,87c0,0,0,45,29,75c0,0,29,27,82,28c0,0,0,-49,13,-92c0,0,12,-44,36,-77c0,0,24,-34,64,-54c0,0,38,-20,92,-20c6,0,104,0,161,50c0,0,58,49,58,142c0,0,0,41,-12,74c0,0,-13,31,-39,60c0,0,-29,26,-73,52c0,0,-46,24,-113,52c0,0,-71,29,-123,63c0,0,-54,32,-88,74c0,0,-36,39,-53,90c0,0,-17,50,-17,113c0,0,0,65,26,117c0,0,24,51,69,87c0,0,44,34,106,54c0,0,60,18,133,18c0,0,68,0,122,-14c0,0,52,-15,90,-38c0,0,36,-25,56,-54c0,0,18,-32,18,-65c0,0,0,-50,-32,-74c0,0,-33,-26,-86,-26c0,0,-1,1,-2,1c0,0,-1,35,-8,70c0,0,-9,34,-29,62c0,0,-21,27,-53,44c0,0,-34,17,-81,17c0,0,-45,0,-79,-11c0,0,-36,-13,-59,-36c0,0,-24,-23,-36,-55c0,0,-13,-33,-13,-71c0,0,-1,-47,12,-80c0,0,12,-35,40,-63c0,0,27,-28,73,-53c0,0,46,-26,112,-52c0,0,67,-28,120,-58c0,0,52,-32,89,-68c0,0,37,-39,56,-84c0,0,19,-47,19,-106c0,0,0,-73,-26,-129c0,0,-27,-59,-76,-97C651,66,602,26,533,6c0,0,-67,-20,-151,-20Z" 
id="f1_10"
transform="scale(0.001,-0.001)" />

<path d="M518,83c0,0,50,0,86,21c0,0,35,21,58,63c0,0,23,41,33,104c0,0,10,61,11,142c0,0,-1,80,-11,142c0,0,-10,60,-33,101c0,0,-23,40,-58,60c0,0,-38,20,-88,20c0,0,-60,0,-99,-19c0,0,-41,-20,-64,-61c0,0,-24,-40,-34,-101c0,0,-10,-62,-10,-144c0,0,0,-80,10,-141c0,0,10,-62,35,-103c0,0,23,-42,64,-63c0,0,39,-21,100,-21ZM28,-366v64H40c0,0,25,0,49,4c0,0,22,3,39,16c0,0,17,11,27,33c0,0,10,21,10,58V650c0,0,0,33,-10,55c0,0,-11,20,-27,31c0,0,-18,11,-40,15c0,0,-24,3,-48,4H20v64H287L303,681h6c0,0,16,34,39,63c0,0,21,28,50,49c0,0,27,19,64,31c0,0,36,9,80,10c0,0,75,0,134,-25c0,0,58,-26,98,-76c0,0,38,-53,60,-132c0,0,20,-80,20,-190c0,0,0,-111,-20,-191c0,0,-22,-80,-60,-133c0,0,-40,-53,-98,-77c0,0,-57,-24,-131,-24c-1,0,-2,0,-3,0h-2c-8,0,-46,1,-77,10c0,0,-37,8,-65,26c0,0,-29,18,-50,43c0,0,-23,24,-39,54h-3c0,0,0,-39,0,-73c0,0,0,-15,0,-30c0,0,0,-15,0,-28c0,0,0,-14,0,-24c0,0,0,-11,0,-17V-199c0,0,0,-33,10,-54c0,0,10,-21,28,-31c0,0,17,-11,41,-14c0,0,23,-4,49,-4h5v-64Z" 
id="f1_11"
transform="scale(0.001,-0.001)" />

<path d="M351,-291c2,0,3,0,5,0c0,0,1,0,2,0c12,0,84,1,134,15c0,0,52,13,84,38c0,0,31,23,44,58c0,0,12,34,13,74c0,0,0,35,-10,59c0,0,-11,22,-30,35c0,0,-20,12,-49,17c0,0,-29,5,-67,5H327c0,0,-33,0,-62,-5c0,0,-31,-5,-54,-20c0,0,-24,-17,-38,-44c0,0,-15,-29,-14,-74c0,0,0,-34,9,-63c0,0,9,-29,31,-50c0,0,23,-22,61,-33c0,0,35,-12,91,-12Zm34,658c0,0,1,0,1,0c0,0,37,0,64,11c0,0,24,11,42,35c0,0,15,22,23,59c0,0,7,35,7,86c0,0,0,103,-31,152c0,0,-31,49,-106,49c0,0,-74,0,-105,-50c0,0,-33,-50,-32,-153c0,0,0,-98,32,-143c0,0,32,-46,105,-46ZM353,-366c-8,0,-162,1,-239,59c0,0,-80,59,-79,164c0,0,0,45,16,78c0,0,15,34,42,58c0,0,26,22,61,38c0,0,34,14,72,21c0,0,-16,7,-31,18c0,0,-14,11,-26,27c0,0,-13,16,-20,36c0,0,-8,20,-7,45c0,0,0,45,24,79c0,0,23,32,76,64c0,0,-33,13,-58,37c0,0,-27,23,-44,54c0,0,-18,30,-27,65c0,0,-10,36,-9,74c0,0,0,66,18,119c0,0,18,51,53,89c0,0,36,36,90,56c0,0,53,18,126,19c0,0,28,-1,54,-4c0,0,26,-4,50,-11c0,0,22,-8,41,-16c0,0,18,-9,29,-19c0,0,12,12,27,27c0,0,14,14,33,27c0,0,19,12,41,20c0,0,21,7,47,8c0,0,23,-1,40,-6c0,0,17,-7,28,-17c0,0,11,-11,17,-25c0,0,5,-15,5,-31c0,0,0,-17,-4,-31c0,0,-6,-15,-15,-25c0,0,-10,-12,-25,-17c0,0,-15,-7,-36,-7c0,0,0,9,-2,18c0,0,-3,9,-8,17c0,0,-6,7,-16,13c0,0,-10,4,-25,4c0,0,-19,0,-35,-4c0,0,-16,-5,-31,-14c0,0,26,-33,44,-76c0,0,16,-44,16,-109c0,0,-1,-57,-17,-105c0,0,-17,-48,-51,-82c0,0,-35,-36,-86,-56c0,0,-52,-19,-121,-19H348c0,0,-11,0,-21,1c0,0,-10,1,-15,3c0,0,-15,-9,-29,-17c0,0,-13,-9,-23,-20c0,0,-11,-11,-16,-25c0,0,-6,-15,-6,-32c0,0,-1,-19,7,-29c0,0,7,-12,20,-18c0,0,12,-7,30,-8c0,0,17,-2,38,-2H506c0,0,68,-1,116,-17c0,0,48,-17,78,-47c0,0,30,-32,44,-73c0,0,14,-41,14,-90c0,0,-1,-67,-24,-119c0,0,-25,-53,-75,-89c0,0,-50,-38,-126,-58c0,0,-77,-20,-180,-20Z" 
id="f1_8"
transform="scale(0.001,-0.001)" />

<path d="M257,423c6,0,136,1,223,66c0,0,87,65,87,170c0,0,-1,101,-89,102c0,0,-74,0,-138,-93c0,0,-64,-93,-98,-245h15ZM363,-14c0,0,-134,0,-215,83c0,0,-82,84,-82,232c0,0,0,200,129,367c0,0,128,166,326,166c0,0,97,-1,150,-46c0,0,53,-46,53,-129c0,0,0,-125,-128,-216c0,0,-129,-92,-315,-92H255c0,0,-13,0,-27,2c0,0,-4,-22,-3,-64c0,0,0,-208,167,-208c0,0,131,0,220,110c0,0,16,-10,16,-38c0,0,0,-62,-71,-114c0,0,-74,-53,-194,-53Z" 
id="f2_9"
transform="scale(0.001,-0.001)" />

<path d="M-141,-184L486,1161h96L-44,-184Z" 
id="f2_h"
transform="scale(0.001,-0.001)" />

<path d="M1156,-14c-4,0,-64,1,-100,40c0,0,-38,40,-38,111c0,0,0,70,29,207l26,119c0,0,32,146,32,182c0,0,-1,90,-71,90c0,0,-78,-1,-162,-100c0,0,-84,-101,-117,-211L730,315c0,0,-10,-42,-27,-164C703,151,686,29,686,0H541c0,0,0,34,19,159c0,0,19,123,33,185l35,158c0,0,22,92,22,143c0,0,0,90,-70,90c0,0,-85,-1,-174,-116c0,0,-91,-116,-114,-228L210,0H67L195,614c0,0,9,42,9,69c0,0,0,72,-106,72H86l13,64H382L341,627h15c0,0,124,206,278,206c0,0,163,-1,163,-170c0,0,0,-19,-3,-36h15c0,0,124,206,279,206c0,0,163,-1,163,-170c0,0,0,-48,-28,-168L1184,315c0,0,-20,-89,-20,-161c0,0,0,-73,53,-73c0,0,44,0,98,35l28,-44c0,0,-98,-86,-187,-86Z" 
id="f2_5"
transform="scale(0.001,-0.001)" />

<path d="M229,0V64h35c0,0,25,0,49,4c0,0,22,3,39,13c0,0,17,10,28,32c0,0,9,20,9,53v849H243c0,0,-33,0,-56,-10c0,0,-24,-11,-37,-28c0,0,-15,-17,-22,-39c0,0,-8,-24,-10,-49l-8,-65H34v267H902V824H827l-8,65c0,0,-4,25,-10,49c0,0,-9,22,-22,39c0,0,-15,17,-37,28c0,0,-24,10,-58,10H544V174c0,0,0,-37,10,-58c0,0,10,-21,27,-32c0,0,16,-13,40,-16c0,0,22,-4,48,-4h35V0Z" 
id="f1_14"
transform="scale(0.001,-0.001)" />

<path d="M43,0V64H63c0,0,25,0,47,4c0,0,21,3,38,16c0,0,15,11,24,32c0,0,8,21,9,58V650c0,0,0,33,-9,55c0,0,-9,20,-25,31c0,0,-16,11,-37,15c0,0,-22,3,-47,4H58v64H298L318,695h7c0,0,23,42,49,70c0,0,25,27,54,43c0,0,28,14,61,21c0,0,31,5,67,5c0,0,36,0,71,-7c0,0,33,-9,62,-24c0,0,28,-17,52,-43c0,0,21,-27,36,-65h13c0,0,23,42,50,70c0,0,27,27,57,43c0,0,30,14,64,21c0,0,32,5,68,5c0,0,59,-1,105,-17c0,0,45,-18,78,-54c0,0,32,-37,49,-93c0,0,17,-58,18,-135V174c0,0,0,-37,9,-58c0,0,9,-21,24,-32c0,0,16,-13,37,-16c0,0,21,-4,47,-4h5V0H1135V527c0,0,0,50,-8,89c0,0,-9,39,-27,66c0,0,-21,26,-50,41c0,0,-32,13,-75,13c0,0,-48,0,-80,-18c0,0,-33,-19,-53,-50c0,0,-21,-31,-28,-72c0,0,-9,-42,-9,-87V174c0,0,0,-37,9,-58c0,0,9,-21,24,-32c0,0,16,-13,38,-16c0,0,21,-4,47,-4h4V0H662V527c0,0,-1,50,-9,89c0,0,-8,39,-27,66c0,0,-20,26,-50,41c0,0,-31,13,-75,13c0,0,-50,0,-83,-20c0,0,-35,-20,-55,-54c0,0,-22,-35,-30,-79c0,0,-9,-45,-9,-94V166c0,0,0,-33,10,-53c0,0,10,-22,27,-32c0,0,16,-10,40,-13c0,0,22,-4,48,-4h5V0Z" 
id="f1_e"
transform="scale(0.001,-0.001)" />

<path d="M58,-366v72h1c8,0,79,1,133,23c0,0,55,24,97,64c0,0,39,40,68,95c0,0,26,55,45,118L119,674c0,0,-10,23,-20,39c0,0,-10,14,-21,25c0,0,-13,9,-29,13c0,0,-17,3,-39,4H6v64H373V755h-4c0,0,-47,0,-69,-18c0,0,-24,-18,-23,-56c0,0,-1,-13,3,-25c0,0,2,-14,9,-31L401,353c0,0,9,-27,22,-57c0,0,11,-31,22,-61c0,0,9,-31,18,-57c0,0,7,-28,11,-47h4c0,0,8,34,23,82c0,0,14,48,34,103L637,614c0,0,7,19,11,36c0,0,2,16,2,30c0,0,0,38,-24,57c0,0,-26,18,-76,18h-5v64H863V755h-4c0,0,-23,0,-38,-5c0,0,-18,-6,-30,-18c0,0,-13,-14,-24,-37c0,0,-11,-24,-25,-59L510,-5c0,0,-27,-74,-50,-130c0,0,-25,-56,-50,-95c0,0,-27,-41,-57,-67c0,0,-32,-26,-71,-41c0,0,-40,-17,-91,-22c0,0,-51,-6,-119,-6Z" 
id="f1_t"
transform="scale(0.001,-0.001)" />

<path d="M28,0V64H40c0,0,25,0,49,4c0,0,22,3,39,16c0,0,17,11,27,32c0,0,10,21,10,58V993c0,0,0,33,-10,54c0,0,-11,21,-27,32c0,0,-18,11,-40,15c0,0,-24,3,-48,3H28v64H306V571c0,0,0,-21,0,-53c0,0,0,-32,0,-64c0,0,0,-36,0,-75L495,588c0,0,24,27,40,48c0,0,16,21,25,37c0,0,10,16,14,28c0,0,3,12,3,23c0,0,0,19,-18,26c0,0,-19,5,-56,5v64H840V755c0,0,-54,-1,-104,-37c0,0,-52,-38,-111,-106L518,492L721,189c0,0,39,-61,79,-93c0,0,38,-32,89,-32q1,0,2,0h4V0H874c0,0,-67,0,-109,4c0,0,-44,3,-75,20c0,0,-32,14,-57,45c0,0,-27,29,-59,79L421,388L309,304V166c0,0,0,-33,10,-53c0,0,10,-22,27,-32c0,0,17,-10,40,-13c0,0,22,-4,48,-4h5V0Z" 
id="f1_x"
transform="scale(0.001,-0.001)" />

<path d="M223,-9c-1,0,-2,0,-3,0c0,0,-1,0,-2,0c-6,0,-22,0,-35,5c0,0,-19,4,-31,16c0,0,-13,12,-21,32c0,0,-8,20,-7,49c0,0,-1,30,7,50c0,0,8,19,21,32c0,0,12,11,31,17c0,0,16,5,37,5c0,0,19,0,37,-5c0,0,17,-6,31,-17c0,0,12,-13,21,-32c0,0,7,-20,7,-50c0,0,0,-29,-7,-49c0,0,-9,-20,-21,-32C288,12,274,0,257,-4c0,0,-16,-5,-34,-5Zm0,627c-1,0,-2,0,-3,0c0,0,-1,0,-2,0c-6,0,-22,1,-35,6c0,0,-19,5,-31,18c0,0,-13,11,-21,32c0,0,-8,20,-7,49c0,0,-1,30,7,50c0,0,8,18,21,31c0,0,12,11,31,17c0,0,16,6,37,6c0,0,19,0,37,-6c0,0,17,-6,31,-17c0,0,12,-13,21,-31c0,0,7,-20,7,-50c0,0,0,-29,-7,-49c0,0,-9,-21,-21,-32c0,0,-14,-13,-31,-18c0,0,-16,-6,-34,-6Z" 
id="f1_15"
transform="scale(0.001,-0.001)" />

<path d="M540,99c1,0,2,0,2,0c3,0,76,1,109,82c0,0,34,81,34,233c0,0,0,155,-34,234c0,0,-33,76,-110,76c0,0,-46,0,-76,-18c0,0,-30,-20,-47,-58c0,0,-18,-40,-26,-97c0,0,-8,-60,-7,-138c0,0,-1,-76,7,-134c0,0,8,-60,26,-98c0,0,18,-41,48,-61c0,0,29,-21,74,-21ZM610,-14c-1,0,-2,0,-4,0h-1c-9,0,-47,1,-78,10c0,0,-37,8,-64,26c0,0,-30,18,-51,43c0,0,-23,24,-39,54H359L316,0H26V81H37c0,0,20,0,42,4c0,0,20,3,37,15c0,0,17,10,27,32c0,0,10,21,10,56V978c0,0,0,32,-10,53c0,0,-10,19,-26,31c0,0,-17,11,-38,14c0,0,-22,3,-47,4H26v81H383V900c0,0,0,-24,0,-56c0,0,0,-33,-3,-61c0,0,-4,-34,-7,-68h10c0,0,33,56,88,89c0,0,55,32,141,33c0,0,75,0,132,-25c0,0,57,-26,97,-76c0,0,39,-53,59,-132c0,0,20,-81,20,-191c0,0,0,-112,-20,-192c0,0,-22,-81,-61,-133c0,0,-39,-53,-97,-78c0,0,-59,-24,-132,-24Z" 
id="f0_17"
transform="scale(0.001,-0.001)" />

<path d="M147,0V64H249c0,0,26,0,49,4c0,0,23,3,40,16c0,0,16,11,27,32c0,0,9,21,9,58V976c0,0,-29,-35,-55,-64c0,0,-27,-29,-50,-50c0,0,-24,-22,-46,-32c0,0,-22,-12,-44,-12c0,0,-1,0,-1,0c0,0,-1,0,-1,0c-3,0,-35,0,-55,23c0,0,-21,21,-21,59c0,0,23,5,47,15c0,0,23,7,50,22c0,0,25,13,57,34c0,0,30,18,69,47l107,79h98V174c0,0,-1,-37,10,-58c0,0,9,-21,26,-32c0,0,17,-13,41,-16c0,0,22,-4,48,-4h75V0Z" 
id="f1_1g"
transform="scale(0.001,-0.001)" />

<path d="M58,0V64H78c0,0,24,0,48,4c0,0,22,3,40,13c0,0,16,10,27,32c0,0,10,20,10,53V923c0,0,0,33,-10,54c0,0,-11,20,-27,32c0,0,-18,11,-40,14c0,0,-24,3,-48,3H58v65H407L723,217l313,874h339v-65h-20c0,0,-26,0,-48,-3c0,0,-24,-4,-40,-15c0,0,-17,-13,-27,-34c0,0,-11,-21,-10,-57V174c0,0,-1,-37,10,-58c0,0,10,-21,27,-32c0,0,16,-13,40,-16c0,0,22,-4,48,-4h20V0H968V64h6c0,0,24,0,44,4c0,0,20,3,34,13c0,0,14,10,22,29c0,0,8,19,8,50V976L733,0H650L296,974V174c0,0,-1,-37,8,-58c0,0,7,-21,22,-32c0,0,13,-13,35,-16c0,0,19,-4,46,-4h4V0Z" 
id="f1_13"
transform="scale(0.001,-0.001)" />

<path d="M315,0L115,674c0,0,-9,23,-19,39c0,0,-10,15,-22,26c0,0,-13,8,-29,12c0,0,-17,3,-39,4H1v64H379V755H359c0,0,-46,0,-69,-13c0,0,-24,-15,-23,-51c0,0,0,-13,5,-31c0,0,3,-18,8,-35L351,369c0,0,8,-29,16,-61c0,0,7,-33,16,-65c0,0,6,-33,12,-61c0,0,6,-29,10,-48h5c0,0,3,19,10,46c0,0,5,24,15,55c0,0,7,29,18,60c0,0,9,30,19,58L631,815h96L880,362c0,0,9,-29,20,-59c0,0,9,-33,18,-63c0,0,9,-31,17,-59c0,0,7,-28,11,-47h4c0,0,7,38,22,94c0,0,14,55,38,129l76,247c0,0,5,18,11,41c0,0,3,21,3,35c0,0,0,38,-24,57c0,0,-26,18,-77,18H988v64h327V755h-19c0,0,-23,0,-39,-5c0,0,-17,-5,-29,-17c0,0,-14,-13,-25,-36c0,0,-11,-24,-22,-61L984,0H862L680,538L652,639L436,0Z" 
id="f1_q"
transform="scale(0.001,-0.001)" />

<path d="M222,-9c-1,0,-2,0,-3,0c0,0,-1,0,-3,0c-6,0,-22,0,-35,5c0,0,-18,4,-30,16c0,0,-14,12,-21,32c0,0,-8,20,-8,49c0,0,0,30,8,50c0,0,7,19,21,32c0,0,12,11,30,17c0,0,17,5,38,5c0,0,18,0,37,-5c0,0,16,-6,30,-17c0,0,12,-13,21,-32c0,0,8,-20,8,-50c0,0,0,-29,-8,-49c0,0,-9,-20,-21,-32C286,12,272,0,256,-4c0,0,-17,-5,-34,-5Z" 
id="f1_n"
transform="scale(0.001,-0.001)" />

<path d="M58,0V64H78c0,0,25,0,49,4c0,0,22,3,39,16c0,0,17,11,27,32c0,0,10,21,10,58V917c0,0,0,36,-10,57c0,0,-10,21,-27,34c0,0,-17,11,-39,15c0,0,-24,3,-49,3H58v65H503v-65H483c0,0,-26,0,-49,-3c0,0,-24,-4,-39,-15c0,0,-18,-13,-27,-34c0,0,-11,-21,-11,-57V174c0,0,0,-37,11,-58c0,0,9,-21,27,-32c0,0,15,-13,39,-16c0,0,23,-4,49,-4h20V0Z" 
id="f1_1r"
transform="scale(0.001,-0.001)" />

<path d="M7,0V64H22c0,0,26,0,48,5c0,0,20,4,40,15c0,0,18,11,37,31c0,0,19,19,41,47L380,411L188,674c0,0,-34,38,-65,60c0,0,-33,21,-66,21H37v64H424V755h-4c0,0,-27,0,-43,-3c0,0,-17,-5,-27,-10c0,0,-11,-7,-14,-15c0,0,-3,-8,-3,-17c0,0,-1,-16,9,-30c0,0,9,-17,27,-40L469,503l79,114c0,0,17,25,28,49c0,0,10,23,10,44c0,0,0,28,-23,37c0,0,-24,7,-59,8h-4v64H834V755H821c0,0,-23,-1,-41,-4c0,0,-19,-4,-36,-14c0,0,-17,-11,-36,-30c0,0,-19,-20,-42,-50L509,448L733,145c0,0,34,-44,64,-62c0,0,29,-19,57,-19q1,0,2,0h20V0H481V64h8c0,0,91,0,91,51c0,0,0,7,-2,17c0,0,-2,8,-9,20c0,0,-7,11,-18,28c0,0,-11,16,-29,40L420,357L313,208c0,0,-6,-9,-14,-21c0,0,-8,-12,-13,-24c0,0,-7,-14,-10,-26c0,0,-4,-13,-4,-25c0,0,0,-27,22,-37c0,0,21,-11,73,-11h4V0Z" 
id="f1_1d"
transform="scale(0.001,-0.001)" />

<path d="M38,359V474H436V359Z" 
id="f1_19"
transform="scale(0.001,-0.001)" />

<path d="M254,-12L147,674c0,0,-13,81,-106,81H26l12,64H267L338,367c0,0,27,-174,35,-271h4c0,0,114,110,198,257c0,0,84,146,84,235c0,0,-1,54,-26,85c0,0,-27,31,-69,31c0,0,-1,55,30,89c0,0,30,34,74,34c0,0,103,0,103,-142c0,0,0,-139,-105,-325C666,360,559,173,391,1L254,-12Z" 
id="f2_7"
transform="scale(0.001,-0.001)" />

<path d="M755,168L99,519v54L755,926V824L242,545L755,270V168Z" 
id="f1_1v"
transform="scale(0.001,-0.001)" />

<path d="M363,-14c0,0,-134,0,-215,83c0,0,-82,84,-82,232c0,0,0,200,129,367c0,0,128,166,326,166c0,0,104,-1,164,-42c0,0,59,-42,59,-104c0,0,0,-47,-37,-77c0,0,-38,-31,-99,-31c0,0,0,81,-31,132c0,0,-32,49,-87,49c0,0,-107,0,-186,-160c0,0,-79,-160,-79,-312c0,0,0,-208,167,-208c0,0,133,0,220,110c0,0,16,-10,16,-38c0,0,0,-62,-71,-114c0,0,-74,-53,-194,-53Z" 
id="f2_4"
transform="scale(0.001,-0.001)" />

<path d="M58,0V64H78c0,0,24,0,48,4c0,0,22,3,40,13c0,0,16,10,27,32c0,0,10,20,10,53V923c0,0,0,33,-10,54c0,0,-11,20,-27,32c0,0,-18,11,-40,14c0,0,-24,3,-48,3H58v65H832V824H756l-7,65c0,0,-4,26,-12,49c0,0,-9,23,-25,40c0,0,-17,16,-43,27c0,0,-26,10,-61,10H357V573H726V498H357V174c0,0,0,-37,11,-58c0,0,9,-21,27,-32c0,0,15,-13,39,-16c0,0,23,-4,49,-4h50V0Z" 
id="f1_1c"
transform="scale(0.001,-0.001)" />

<path d="M421,83c0,0,59,0,100,20c0,0,39,19,65,60c0,0,23,39,34,101c0,0,10,61,10,144c0,0,0,79,-10,141c0,0,-11,61,-34,103c0,0,-25,41,-65,63c0,0,-41,21,-101,21c0,0,-51,0,-86,-21c0,0,-36,-23,-58,-64c0,0,-24,-42,-34,-103c0,0,-10,-62,-10,-141c0,0,0,-163,44,-244c0,0,43,-80,145,-80Zm33,-449v64h51c0,0,26,0,50,4c0,0,22,3,40,16c0,0,17,11,27,33c0,0,10,21,11,58V-60c0,0,0,25,0,60c0,0,0,33,0,64c0,0,0,36,0,73h-3c0,0,-18,-35,-39,-62c0,0,-23,-29,-51,-48C540,27,512,6,476,-3c0,0,-36,-11,-81,-11c-8,0,-78,1,-133,24c0,0,-59,24,-98,77c0,0,-39,52,-60,132c0,0,-20,79,-20,189c0,0,0,110,20,191c0,0,21,80,60,133c0,0,39,51,98,77c0,0,58,25,133,25c0,0,44,0,80,-10c0,0,36,-10,65,-27c0,0,28,-18,51,-43c0,0,21,-24,39,-54h9l27,119H911V755H898c0,0,-26,-1,-48,-4c0,0,-24,-4,-40,-15c0,0,-17,-12,-27,-33c0,0,-10,-23,-10,-58V-197c0,0,0,-34,10,-54c0,0,10,-22,27,-32c0,0,17,-12,40,-15c0,0,22,-4,48,-4h13v-64Z" 
id="f1_1b"
transform="scale(0.001,-0.001)" />

<path d="M-31,0l12,64H1c7,0,77,1,107,28c0,0,30,26,40,74L307,917c0,0,5,21,5,36c0,0,0,35,-21,55c0,0,-22,18,-87,18H185l13,65H968L920,824H840l4,47c0,0,3,35,4,41c0,0,-1,102,-109,103H483L395,608H764L749,533H380L283,76H577c0,0,129,0,173,125l24,66h80L787,0Z" 
id="f2_c"
transform="scale(0.001,-0.001)" />

<path d="M421,0L142,946c0,0,-8,23,-17,39c0,0,-10,16,-22,25c0,0,-13,9,-30,13c0,0,-17,3,-39,3H13v65H434v-65H399c0,0,-46,0,-69,-17c0,0,-23,-18,-23,-56c0,0,0,-12,4,-26c0,0,3,-14,8,-30L460,408c0,0,18,-70,36,-136c0,0,16,-68,30,-122c0,0,11,59,27,130c0,0,14,71,35,144l182,656H880L1071,419c0,0,21,-77,39,-146c0,0,16,-71,27,-123c0,0,11,54,26,116c0,0,13,61,35,135l134,471c0,0,2,9,6,20c0,0,3,11,5,23c0,0,2,10,4,20c0,0,1,10,2,17c0,0,0,39,-25,57c0,0,-26,17,-76,17h-35v65h373v-65h-29c0,0,-23,0,-39,-4c0,0,-17,-5,-31,-17c0,0,-13,-13,-24,-36c0,0,-11,-24,-23,-61L1182,0H1045L796,856L562,0Z" 
id="f1_2"
transform="scale(0.001,-0.001)" />

<path d="M412,-18c0,0,-144,0,-239,85c0,0,-95,86,-108,222l133,18c0,0,24,-114,79,-164c0,0,55,-50,135,-50c0,0,96,0,161,65c0,0,65,66,65,163c0,0,0,92,-61,152c0,0,-60,60,-153,60c0,0,-38,0,-95,-15l15,119c0,0,13,-2,21,-2c0,0,86,0,155,45c0,0,69,44,69,137c0,0,0,74,-50,122c0,0,-50,49,-129,49c0,0,-79,0,-131,-50c0,0,-52,-49,-67,-147L78,815c0,0,25,135,112,209c0,0,87,74,217,74c0,0,89,0,164,-38c0,0,76,-39,116,-105c0,0,40,-66,40,-141c0,0,0,-70,-39,-129c0,0,-38,-58,-112,-92c0,0,97,-22,151,-93c0,0,53,-70,53,-176c0,0,0,-143,-104,-243c0,0,-105,-99,-264,-99Z" 
id="f3_n"
transform="scale(0.001,-0.001)" />

<path d="M423,92c0,0,97,0,159,62c0,0,62,62,62,157c0,0,0,97,-64,160c0,0,-64,64,-161,64c0,0,-96,0,-158,-63c0,0,-62,-62,-62,-156c0,0,0,-58,27,-111c0,0,27,-54,81,-84c0,0,54,-29,116,-29Zm0,552c0,0,78,0,127,49c0,0,49,49,49,120c0,0,0,74,-50,124c0,0,-51,51,-128,51c0,0,-77,0,-127,-50c0,0,-51,-49,-51,-118c0,0,0,-77,50,-126c0,0,50,-50,130,-50ZM422,-18c0,0,-162,0,-261,95c0,0,-99,96,-99,239c0,0,0,107,54,179c0,0,54,72,154,98c0,0,-84,31,-124,87c0,0,-40,57,-40,136c0,0,0,119,85,201c0,0,86,81,229,81c0,0,143,0,230,-83c0,0,87,-83,87,-203c0,0,0,-76,-40,-132c0,0,-39,-56,-121,-87c0,0,101,-33,154,-106c0,0,52,-73,52,-174c0,0,0,-141,-99,-236c0,0,-99,-95,-261,-95Z" 
id="f3_s"
transform="scale(0.001,-0.001)" />


</defs>
</svg>