<?xml version="1.0" encoding="UTF-8" standalone="no"?>
<!DOCTYPE svg PUBLIC "-//W3C//DTD SVG 1.1//EN"
"http://www.w3.org/Graphics/SVG/1.1/DTD/svg11.dtd">
<svg viewBox="0 0 909 1286" version="1.1" xmlns="http://www.w3.org/2000/svg" xmlns:xlink="http://www.w3.org/1999/xlink">
<defs>
<style type="text/css"><![CDATA[
.g0_164{
fill: #D9D9D9;
}
.g1_164{
fill: none;
stroke: #000000;
stroke-width: 0.7638889;
stroke-linecap: butt;
stroke-linejoin: miter;
}
.g2_164{
}
]]></style>
</defs>
<image preserveAspectRatio="none" x="748" y="1196" width="94" height="58" xlink:href="img/1.png" />
<image preserveAspectRatio="none" x="336" y="42" width="259" height="49" xlink:href="img/2.png" />
<image preserveAspectRatio="none" x="342" y="50" width="247" height="27" xlink:href="img/3.png" />
<image preserveAspectRatio="none" x="341" y="46" width="238" height="41" xlink:href="img/4.png" />
<g fill="#FFFFFF" >
<use xlink:href="#f0_j" transform="matrix(11.5,0,0,11.5,354.9,70)" />
<use xlink:href="#f0_i" transform="matrix(11.5,0,0,11.5,364.2,70)" />
<use xlink:href="#f0_2n" transform="matrix(11.5,0,0,11.5,374.1,70)" />
<use xlink:href="#f0_t" transform="matrix(11.5,0,0,11.5,382.4,70)" />
<use xlink:href="#f0_oj" transform="matrix(11.5,0,0,11.5,391,70)" />
<use xlink:href="#f0_3e" transform="matrix(11.5,0,0,11.5,396.3,70)" />
<use xlink:href="#f0_1c" transform="matrix(11.5,0,0,11.5,406,70)" />
<use xlink:href="#f0_1c" transform="matrix(11.5,0,0,11.5,410.7,70)" />
<use xlink:href="#f0_oj" transform="matrix(11.5,0,0,11.5,415.4,70)" />
<use xlink:href="#f0_rz" transform="matrix(11.5,0,0,11.5,420.8,70)" />
<use xlink:href="#f0_rx" transform="matrix(11.5,0,0,11.5,429.7,70)" />
<use xlink:href="#f0_ry" transform="matrix(11.5,0,0,11.5,438.6,70)" />
<use xlink:href="#f0_s1" transform="matrix(11.5,0,0,11.5,447.4,70)" />
<use xlink:href="#f0_t" transform="matrix(11.5,0,0,11.5,460.2,70)" />
<use xlink:href="#f0_3e" transform="matrix(11.5,0,0,11.5,468.8,70)" />
<use xlink:href="#f0_5" transform="matrix(11.5,0,0,11.5,478.5,70)" />
<use xlink:href="#f0_1x" transform="matrix(11.5,0,0,11.5,489.2,70)" />
<use xlink:href="#f0_1c" transform="matrix(11.5,0,0,11.5,504.6,70)" />
<use xlink:href="#f0_1y" transform="matrix(11.5,0,0,11.5,509.3,70)" />
<use xlink:href="#f0_5" transform="matrix(11.5,0,0,11.5,520.9,70)" />
<use xlink:href="#f0_2t" transform="matrix(11.5,0,0,11.5,531.5,70)" />
<use xlink:href="#f0_1c" transform="matrix(11.5,0,0,11.5,540.2,70)" />
<use xlink:href="#f0_24" transform="matrix(11.5,0,0,11.5,544.9,70)" />
<use xlink:href="#f0_1y" transform="matrix(11.5,0,0,11.5,556.8,70)" />
</g>
<image preserveAspectRatio="none" x="554" y="46" width="36" height="41" xlink:href="img/5.png" />
<g fill="#FFFFFF" >
<use xlink:href="#f1_m" transform="matrix(11,0,0,11,770.1,1227.7)" />
<use xlink:href="#f1_m" transform="matrix(11,0,0,11,779,1227.7)" />
<use xlink:href="#f1_j" transform="matrix(11,0,0,11,792.4,1227.7)" />
<use xlink:href="#f1_m" transform="matrix(11,0,0,11,803,1227.7)" />
<use xlink:href="#f1_n" transform="matrix(11,0,0,11,811.9,1227.7)" />
</g>
<path fill-rule="evenodd" d="M52.7,1193.2H856.9v-.7H52.7v.7Z" class="g0_164" />
<path d="M37.9,99.4L873,98.5" class="g1_164" />
<g fill="#000000" >
<use xlink:href="#f2_13" transform="matrix(12,0,0,12,55,525.8)" />
<use xlink:href="#f2_2b" transform="matrix(12,0,0,12,68.2,525.8)" />
<use xlink:href="#f2_2a" transform="matrix(12,0,0,12,77.4,525.8)" />
<use xlink:href="#f2_2f" transform="matrix(12,0,0,12,87.6,525.8)" />
<use xlink:href="#f2_2g" transform="matrix(12,0,0,12,94.7,525.8)" />
<use xlink:href="#f2_2e" transform="matrix(12,0,0,12,100.8,525.8)" />
<use xlink:href="#f2_2h" transform="matrix(12,0,0,12,109,525.8)" />
<use xlink:href="#f2_1z" transform="matrix(12,0,0,12,119.2,525.8)" />
<use xlink:href="#f2_2g" transform="matrix(12,0,0,12,127.3,525.8)" />
<use xlink:href="#f2_25" transform="matrix(12,0,0,12,133.4,525.8)" />
<use xlink:href="#f2_2b" transform="matrix(12,0,0,12,138.6,525.8)" />
<use xlink:href="#f2_2a" transform="matrix(12,0,0,12,147.7,525.8)" />
<use xlink:href="#f2_u" transform="matrix(12,0,0,12,157.9,525.8)" />
<use xlink:href="#f3_1k" transform="matrix(12,0,0,12,168.6,525.8)" />
<use xlink:href="#f3_24" transform="matrix(12,0,0,12,179.8,525.8)" />
<use xlink:href="#f3_21" transform="matrix(12,0,0,12,189,525.8)" />
<use xlink:href="#f3_1z" transform="matrix(12,0,0,12,201.7,525.8)" />
<use xlink:href="#f3_2l" transform="matrix(12,0,0,12,209.8,525.8)" />
<use xlink:href="#f3_1z" transform="matrix(12,0,0,12,219,525.8)" />
<use xlink:href="#f3_28" transform="matrix(12,0,0,12,227.1,525.8)" />
<use xlink:href="#f3_2b" transform="matrix(12,0,0,12,232.3,525.8)" />
<use xlink:href="#f3_2g" transform="matrix(12,0,0,12,241.4,525.8)" />
<use xlink:href="#f3_2e" transform="matrix(12,0,0,12,246.5,525.8)" />
<use xlink:href="#f3_2b" transform="matrix(12,0,0,12,252.6,525.8)" />
<use xlink:href="#f3_2a" transform="matrix(12,0,0,12,261.8,525.8)" />
<use xlink:href="#f3_25" transform="matrix(12,0,0,12,275.5,525.8)" />
<use xlink:href="#f3_2f" transform="matrix(12,0,0,12,280.6,525.8)" />
<use xlink:href="#f3_29" transform="matrix(12,0,0,12,292.4,525.8)" />
<use xlink:href="#f3_1x" transform="matrix(12,0,0,12,306.5,525.8)" />
<use xlink:href="#f3_20" transform="matrix(12,0,0,12,314.6,525.8)" />
<use xlink:href="#f3_21" transform="matrix(12,0,0,12,323.8,525.8)" />
<use xlink:href="#f3_2h" transform="matrix(12,0,0,12,336.5,525.8)" />
<use xlink:href="#f3_2c" transform="matrix(12,0,0,12,345.7,525.8)" />
<use xlink:href="#f3_2b" transform="matrix(12,0,0,12,359.5,525.8)" />
<use xlink:href="#f3_22" transform="matrix(12,0,0,12,368.6,525.8)" />
<use xlink:href="#f3_2g" transform="matrix(12,0,0,12,379.3,525.8)" />
<use xlink:href="#f3_2j" transform="matrix(12,0,0,12,384.4,525.8)" />
<use xlink:href="#f3_2b" transform="matrix(12,0,0,12,397.6,525.8)" />
<use xlink:href="#f3_24" transform="matrix(12,0,0,12,411.4,525.8)" />
<use xlink:href="#f3_2b" transform="matrix(12,0,0,12,420.6,525.8)" />
<use xlink:href="#f3_28" transform="matrix(12,0,0,12,429.8,525.8)" />
<use xlink:href="#f3_28" transform="matrix(12,0,0,12,434.9,525.8)" />
<use xlink:href="#f3_2b" transform="matrix(12,0,0,12,440,525.8)" />
<use xlink:href="#f3_2j" transform="matrix(12,0,0,12,449.2,525.8)" />
<use xlink:href="#f3_2f" transform="matrix(12,0,0,12,467,525.8)" />
<use xlink:href="#f3_21" transform="matrix(12,0,0,12,474.1,525.8)" />
<use xlink:href="#f3_29" transform="matrix(12,0,0,12,482.3,525.8)" />
<use xlink:href="#f3_25" transform="matrix(12,0,0,12,496.4,525.8)" />
<use xlink:href="#f3_h" transform="matrix(12,0,0,12,501.7,525.8)" />
<use xlink:href="#f3_1z" transform="matrix(12,0,0,12,507.8,525.8)" />
<use xlink:href="#f3_25" transform="matrix(12,0,0,12,515.9,525.8)" />
<use xlink:href="#f3_2e" transform="matrix(12,0,0,12,521,525.8)" />
<use xlink:href="#f3_1z" transform="matrix(12,0,0,12,527.2,525.8)" />
<use xlink:href="#f3_2h" transform="matrix(12,0,0,12,535.4,525.8)" />
<use xlink:href="#f3_28" transform="matrix(12,0,0,12,544.5,525.8)" />
<use xlink:href="#f3_1x" transform="matrix(12,0,0,12,549.5,525.8)" />
<use xlink:href="#f3_2e" transform="matrix(12,0,0,12,557.7,525.8)" />
<use xlink:href="#f3_20" transform="matrix(12,0,0,12,568.4,525.8)" />
<use xlink:href="#f3_25" transform="matrix(12,0,0,12,577.5,525.8)" />
<use xlink:href="#f3_2f" transform="matrix(12,0,0,12,582.6,525.8)" />
<use xlink:href="#f3_1z" transform="matrix(12,0,0,12,589.8,525.8)" />
<use xlink:href="#f3_28" transform="matrix(12,0,0,12,602.5,525.8)" />
<use xlink:href="#f3_25" transform="matrix(12,0,0,12,607.6,525.8)" />
<use xlink:href="#f3_27" transform="matrix(12,0,0,12,612.7,525.8)" />
<use xlink:href="#f3_21" transform="matrix(12,0,0,12,621.8,525.8)" />
<use xlink:href="#f3_29" transform="matrix(12,0,0,12,634.7,525.8)" />
<use xlink:href="#f3_21" transform="matrix(12,0,0,12,648.8,525.8)" />
<use xlink:href="#f3_2g" transform="matrix(12,0,0,12,657,525.8)" />
<use xlink:href="#f3_1x" transform="matrix(12,0,0,12,662.1,525.8)" />
<use xlink:href="#f3_28" transform="matrix(12,0,0,12,670.2,525.8)" />
<use xlink:href="#f3_1z" transform="matrix(12,0,0,12,679.9,525.8)" />
<use xlink:href="#f3_2b" transform="matrix(12,0,0,12,688.1,525.8)" />
<use xlink:href="#f3_2a" transform="matrix(12,0,0,12,697.2,525.8)" />
<use xlink:href="#f3_2g" transform="matrix(12,0,0,12,706.4,525.8)" />
<use xlink:href="#f3_1x" transform="matrix(12,0,0,12,711.5,525.8)" />
<use xlink:href="#f3_25" transform="matrix(12,0,0,12,719.6,525.8)" />
<use xlink:href="#f3_2a" transform="matrix(12,0,0,12,724.7,525.8)" />
<use xlink:href="#f3_21" transform="matrix(12,0,0,12,733.9,525.8)" />
<use xlink:href="#f3_2e" transform="matrix(12,0,0,12,742,525.8)" />
<use xlink:href="#f3_2f" transform="matrix(12,0,0,12,748.1,525.8)" />
<use xlink:href="#f3_g" transform="matrix(12,0,0,12,755.3,525.8)" />
<use xlink:href="#f3_14" transform="matrix(12,0,0,12,764.4,525.8)" />
<use xlink:href="#f3_l" transform="matrix(8,0,0,8,777.7,526.6)" />
<use xlink:href="#f3_1x" transform="matrix(12,0,0,12,788.4,525.8)" />
<use xlink:href="#f3_2a" transform="matrix(12,0,0,12,796.6,525.8)" />
<use xlink:href="#f3_20" transform="matrix(12,0,0,12,805.7,525.8)" />
<use xlink:href="#f3_14" transform="matrix(12,0,0,12,819.5,525.8)" />
<use xlink:href="#f3_m" transform="matrix(8,0,0,8,832.7,526.6)" />
<use xlink:href="#f3_g" transform="matrix(12,0,0,12,838.8,525.8)" />
</g>
<path fill-rule="evenodd" d="M55,529.6H157.9v-1.8H55v1.8Z" class="g2_164" />
<g fill="#000000" >
<use xlink:href="#f3_1z" transform="matrix(12,0,0,12,55,548.6)" />
<use xlink:href="#f3_1x" transform="matrix(12,0,0,12,63.1,548.6)" />
<use xlink:href="#f3_28" transform="matrix(12,0,0,12,71.3,548.6)" />
<use xlink:href="#f3_28" transform="matrix(12,0,0,12,76.4,548.6)" />
<use xlink:href="#f3_21" transform="matrix(12,0,0,12,81.5,548.6)" />
<use xlink:href="#f3_20" transform="matrix(12,0,0,12,89.7,548.6)" />
<use xlink:href="#f3_20" transform="matrix(12,0,0,12,103.4,548.6)" />
<use xlink:href="#f3_21" transform="matrix(12,0,0,12,112.6,548.6)" />
<use xlink:href="#f3_21" transform="matrix(12,0,0,12,120.7,548.6)" />
<use xlink:href="#f3_2f" transform="matrix(12,0,0,12,128.9,548.6)" />
<use xlink:href="#f3_i" transform="matrix(12,0,0,12,136,548.6)" />
<use xlink:href="#f3_19" transform="matrix(12,0,0,12,145.1,548.6)" />
<use xlink:href="#f3_2g" transform="matrix(12,0,0,12,151.2,548.6)" />
<use xlink:href="#f3_2h" transform="matrix(12,0,0,12,161,548.6)" />
<use xlink:href="#f3_2f" transform="matrix(12,0,0,12,170.1,548.6)" />
<use xlink:href="#f3_21" transform="matrix(12,0,0,12,177.3,548.6)" />
<use xlink:href="#f3_2f" transform="matrix(12,0,0,12,185.4,548.6)" />
<use xlink:href="#f3_1z" transform="matrix(12,0,0,12,197.1,548.6)" />
<use xlink:href="#f3_2e" transform="matrix(12,0,0,12,205.2,548.6)" />
<use xlink:href="#f3_2b" transform="matrix(12,0,0,12,211.3,548.6)" />
<use xlink:href="#f3_2f" transform="matrix(12,0,0,12,220.5,548.6)" />
<use xlink:href="#f3_2f" transform="matrix(12,0,0,12,227.7,548.6)" />
<use xlink:href="#f3_21" transform="matrix(12,0,0,12,234.7,548.6)" />
<use xlink:href="#f3_20" transform="matrix(12,0,0,12,242.9,548.6)" />
<use xlink:href="#f3_21" transform="matrix(12,0,0,12,256.6,548.6)" />
<use xlink:href="#f3_28" transform="matrix(12,0,0,12,264.8,548.6)" />
<use xlink:href="#f3_21" transform="matrix(12,0,0,12,269.9,548.6)" />
<use xlink:href="#f3_1z" transform="matrix(12,0,0,12,278.1,548.6)" />
<use xlink:href="#f3_2g" transform="matrix(12,0,0,12,286.1,548.6)" />
<use xlink:href="#f3_2e" transform="matrix(12,0,0,12,291.2,548.6)" />
<use xlink:href="#f3_25" transform="matrix(12,0,0,12,297.3,548.6)" />
<use xlink:href="#f3_1z" transform="matrix(12,0,0,12,302.4,548.6)" />
<use xlink:href="#f3_1x" transform="matrix(12,0,0,12,315.2,548.6)" />
<use xlink:href="#f3_2a" transform="matrix(12,0,0,12,323.3,548.6)" />
<use xlink:href="#f3_20" transform="matrix(12,0,0,12,332.5,548.6)" />
<use xlink:href="#f3_29" transform="matrix(12,0,0,12,346.2,548.6)" />
<use xlink:href="#f3_1x" transform="matrix(12,0,0,12,360.4,548.6)" />
<use xlink:href="#f3_23" transform="matrix(12,0,0,12,368.5,548.6)" />
<use xlink:href="#f3_2a" transform="matrix(12,0,0,12,377.7,548.6)" />
<use xlink:href="#f3_21" transform="matrix(12,0,0,12,386.9,548.6)" />
<use xlink:href="#f3_2g" transform="matrix(12,0,0,12,395,548.6)" />
<use xlink:href="#f3_25" transform="matrix(12,0,0,12,400.2,548.6)" />
<use xlink:href="#f3_1z" transform="matrix(12,0,0,12,405.3,548.6)" />
<use xlink:href="#f3_22" transform="matrix(12,0,0,12,418,548.6)" />
<use xlink:href="#f3_25" transform="matrix(12,0,0,12,424,548.6)" />
<use xlink:href="#f3_21" transform="matrix(12,0,0,12,429.1,548.6)" />
<use xlink:href="#f3_28" transform="matrix(12,0,0,12,437.2,548.6)" />
<use xlink:href="#f3_20" transform="matrix(12,0,0,12,442.4,548.6)" />
<use xlink:href="#f3_2f" transform="matrix(12,0,0,12,451.6,548.6)" />
<use xlink:href="#f3_i" transform="matrix(12,0,0,12,458.7,548.6)" />
<use xlink:href="#f3_1k" transform="matrix(12,0,0,12,467.9,548.6)" />
<use xlink:href="#f3_24" transform="matrix(12,0,0,12,479.1,548.6)" />
<use xlink:href="#f3_21" transform="matrix(12,0,0,12,488.2,548.6)" />
<use xlink:href="#f3_21" transform="matrix(12,0,0,12,500.9,548.6)" />
<use xlink:href="#f3_28" transform="matrix(12,0,0,12,509,548.6)" />
<use xlink:href="#f3_21" transform="matrix(12,0,0,12,514.1,548.6)" />
<use xlink:href="#f3_1z" transform="matrix(12,0,0,12,522.3,548.6)" />
<use xlink:href="#f3_2g" transform="matrix(12,0,0,12,530.4,548.6)" />
<use xlink:href="#f3_2e" transform="matrix(12,0,0,12,535.5,548.6)" />
<use xlink:href="#f3_25" transform="matrix(12,0,0,12,541.6,548.6)" />
<use xlink:href="#f3_1z" transform="matrix(12,0,0,12,546.7,548.6)" />
<use xlink:href="#f3_22" transform="matrix(12,0,0,12,559.5,548.6)" />
<use xlink:href="#f3_25" transform="matrix(12,0,0,12,565.5,548.6)" />
<use xlink:href="#f3_21" transform="matrix(12,0,0,12,570.6,548.6)" />
<use xlink:href="#f3_28" transform="matrix(12,0,0,12,578.7,548.6)" />
<use xlink:href="#f3_20" transform="matrix(12,0,0,12,583.9,548.6)" />
<use xlink:href="#f3_25" transform="matrix(12,0,0,12,597.5,548.6)" />
<use xlink:href="#f3_2f" transform="matrix(12,0,0,12,602.6,548.6)" />
<use xlink:href="#f3_2c" transform="matrix(12,0,0,12,614.3,548.6)" />
<use xlink:href="#f3_2e" transform="matrix(12,0,0,12,623.5,548.6)" />
<use xlink:href="#f3_2b" transform="matrix(12,0,0,12,629.7,548.6)" />
<use xlink:href="#f3_2i" transform="matrix(12,0,0,12,638.9,548.6)" />
<use xlink:href="#f3_25" transform="matrix(12,0,0,12,648,548.6)" />
<use xlink:href="#f3_20" transform="matrix(12,0,0,12,653.1,548.6)" />
<use xlink:href="#f3_21" transform="matrix(12,0,0,12,662.2,548.6)" />
<use xlink:href="#f3_20" transform="matrix(12,0,0,12,670.4,548.6)" />
<use xlink:href="#f3_1y" transform="matrix(12,0,0,12,684,548.6)" />
<use xlink:href="#f3_2l" transform="matrix(12,0,0,12,693.2,548.6)" />
<use xlink:href="#f3_1x" transform="matrix(12,0,0,12,707.2,548.6)" />
<use xlink:href="#f3_2a" transform="matrix(12,0,0,12,715.3,548.6)" />
<use xlink:href="#f3_2b" transform="matrix(12,0,0,12,729.1,548.6)" />
<use xlink:href="#f3_2f" transform="matrix(12,0,0,12,738.3,548.6)" />
<use xlink:href="#f3_1z" transform="matrix(12,0,0,12,745.4,548.6)" />
<use xlink:href="#f3_25" transform="matrix(12,0,0,12,753.6,548.6)" />
<use xlink:href="#f3_28" transform="matrix(12,0,0,12,758.7,548.6)" />
<use xlink:href="#f3_28" transform="matrix(12,0,0,12,763.8,548.6)" />
<use xlink:href="#f3_1x" transform="matrix(12,0,0,12,768.9,548.6)" />
<use xlink:href="#f3_2g" transform="matrix(12,0,0,12,776.9,548.6)" />
<use xlink:href="#f3_2b" transform="matrix(12,0,0,12,782,548.6)" />
<use xlink:href="#f3_2e" transform="matrix(12,0,0,12,791.2,548.6)" />
<use xlink:href="#f3_2b" transform="matrix(12,0,0,12,802,548.6)" />
<use xlink:href="#f3_22" transform="matrix(12,0,0,12,811.1,548.6)" />
<use xlink:href="#f3_1x" transform="matrix(12,0,0,12,55,571.3)" />
<use xlink:href="#f3_20" transform="matrix(12,0,0,12,63.1,571.3)" />
<use xlink:href="#f3_26" transform="matrix(12,0,0,12,72.3,571.3)" />
<use xlink:href="#f3_2h" transform="matrix(12,0,0,12,77.4,571.3)" />
<use xlink:href="#f3_2f" transform="matrix(12,0,0,12,86.6,571.3)" />
<use xlink:href="#f3_2g" transform="matrix(12,0,0,12,93.8,571.3)" />
<use xlink:href="#f3_1x" transform="matrix(12,0,0,12,98.9,571.3)" />
<use xlink:href="#f3_1y" transform="matrix(12,0,0,12,107,571.3)" />
<use xlink:href="#f3_28" transform="matrix(12,0,0,12,116.2,571.3)" />
<use xlink:href="#f3_21" transform="matrix(12,0,0,12,121.3,571.3)" />
<use xlink:href="#f3_22" transform="matrix(12,0,0,12,134,571.3)" />
<use xlink:href="#f3_2e" transform="matrix(12,0,0,12,140.1,571.3)" />
<use xlink:href="#f3_21" transform="matrix(12,0,0,12,146.1,571.3)" />
<use xlink:href="#f3_2d" transform="matrix(12,0,0,12,154.2,571.3)" />
<use xlink:href="#f3_2h" transform="matrix(12,0,0,12,163.4,571.3)" />
<use xlink:href="#f3_21" transform="matrix(12,0,0,12,172.6,571.3)" />
<use xlink:href="#f3_2a" transform="matrix(12,0,0,12,180.7,571.3)" />
<use xlink:href="#f3_1z" transform="matrix(12,0,0,12,189.9,571.3)" />
<use xlink:href="#f3_2l" transform="matrix(12,0,0,12,198,571.3)" />
<use xlink:href="#f3_i" transform="matrix(12,0,0,12,207.2,571.3)" />
<use xlink:href="#f2_1r" transform="matrix(12,0,0,12,55,616.9)" />
<use xlink:href="#f2_1e" transform="matrix(12,0,0,12,61.1,616.9)" />
<use xlink:href="#f2_2b" transform="matrix(12,0,0,12,74.3,616.9)" />
<use xlink:href="#f2_2g" transform="matrix(12,0,0,12,83.5,616.9)" />
<use xlink:href="#f2_21" transform="matrix(12,0,0,12,89.6,616.9)" />
<use xlink:href="#f2_u" transform="matrix(12,0,0,12,97.8,616.9)" />
<use xlink:href="#f3_11" transform="matrix(12,0,0,12,108.5,616.9)" />
<use xlink:href="#f3_2j" transform="matrix(12,0,0,12,121.8,616.9)" />
<use xlink:href="#f3_1x" transform="matrix(12,0,0,12,134.9,616.9)" />
<use xlink:href="#f3_2e" transform="matrix(12,0,0,12,143.1,616.9)" />
<use xlink:href="#f3_20" transform="matrix(12,0,0,12,149.2,616.9)" />
<use xlink:href="#f3_2g" transform="matrix(12,0,0,12,163,616.9)" />
<use xlink:href="#f3_24" transform="matrix(12,0,0,12,168.1,616.9)" />
<use xlink:href="#f3_25" transform="matrix(12,0,0,12,177.2,616.9)" />
<use xlink:href="#f3_2f" transform="matrix(12,0,0,12,182.4,616.9)" />
<use xlink:href="#f3_29" transform="matrix(12,0,0,12,194.2,616.9)" />
<use xlink:href="#f3_1x" transform="matrix(12,0,0,12,208.3,616.9)" />
<use xlink:href="#f3_2e" transform="matrix(12,0,0,12,216.4,616.9)" />
<use xlink:href="#f3_27" transform="matrix(12,0,0,12,222.5,616.9)" />
<use xlink:href="#f3_21" transform="matrix(12,0,0,12,236.2,616.9)" />
<use xlink:href="#f3_2i" transform="matrix(12,0,0,12,244.4,616.9)" />
<use xlink:href="#f3_21" transform="matrix(12,0,0,12,253.5,616.9)" />
<use xlink:href="#f3_2a" transform="matrix(12,0,0,12,261.7,616.9)" />
<use xlink:href="#f3_25" transform="matrix(12,0,0,12,275.4,616.9)" />
<use xlink:href="#f3_22" transform="matrix(12,0,0,12,280.6,616.9)" />
<use xlink:href="#f3_2g" transform="matrix(12,0,0,12,291.3,616.9)" />
<use xlink:href="#f3_24" transform="matrix(12,0,0,12,296.4,616.9)" />
<use xlink:href="#f3_21" transform="matrix(12,0,0,12,305.5,616.9)" />
<use xlink:href="#f3_2f" transform="matrix(12,0,0,12,318.3,616.9)" />
<use xlink:href="#f3_2g" transform="matrix(12,0,0,12,325.3,616.9)" />
<use xlink:href="#f3_2h" transform="matrix(12,0,0,12,330.4,616.9)" />
<use xlink:href="#f3_20" transform="matrix(12,0,0,12,339.6,616.9)" />
<use xlink:href="#f3_21" transform="matrix(12,0,0,12,348.7,616.9)" />
<use xlink:href="#f3_2a" transform="matrix(12,0,0,12,356.9,616.9)" />
<use xlink:href="#f3_2g" transform="matrix(12,0,0,12,366.1,616.9)" />
<use xlink:href="#f3_28" transform="matrix(12,0,0,12,375.7,616.9)" />
<use xlink:href="#f3_1x" transform="matrix(12,0,0,12,380.8,616.9)" />
<use xlink:href="#f3_1y" transform="matrix(12,0,0,12,389,616.9)" />
<use xlink:href="#f3_21" transform="matrix(12,0,0,12,398.1,616.9)" />
<use xlink:href="#f3_28" transform="matrix(12,0,0,12,406.3,616.9)" />
<use xlink:href="#f3_2f" transform="matrix(12,0,0,12,411.4,616.9)" />
<use xlink:href="#f3_2g" transform="matrix(12,0,0,12,423,616.9)" />
<use xlink:href="#f3_24" transform="matrix(12,0,0,12,428.1,616.9)" />
<use xlink:href="#f3_21" transform="matrix(12,0,0,12,437.3,616.9)" />
<use xlink:href="#f3_20" transform="matrix(12,0,0,12,450,616.9)" />
<use xlink:href="#f3_25" transform="matrix(12,0,0,12,459.2,616.9)" />
<use xlink:href="#f3_1x" transform="matrix(12,0,0,12,464.3,616.9)" />
<use xlink:href="#f3_23" transform="matrix(12,0,0,12,472.5,616.9)" />
<use xlink:href="#f3_2e" transform="matrix(12,0,0,12,481.6,616.9)" />
<use xlink:href="#f3_1x" transform="matrix(12,0,0,12,487.7,616.9)" />
<use xlink:href="#f3_29" transform="matrix(12,0,0,12,495.8,616.9)" />
<use xlink:href="#f3_2c" transform="matrix(12,0,0,12,514.6,616.9)" />
<use xlink:href="#f3_2e" transform="matrix(12,0,0,12,523.8,616.9)" />
<use xlink:href="#f3_2b" transform="matrix(12,0,0,12,529.9,616.9)" />
<use xlink:href="#f3_2c" transform="matrix(12,0,0,12,539.1,616.9)" />
<use xlink:href="#f3_21" transform="matrix(12,0,0,12,548.3,616.9)" />
<use xlink:href="#f3_2e" transform="matrix(12,0,0,12,556.4,616.9)" />
<use xlink:href="#f3_28" transform="matrix(12,0,0,12,562.5,616.9)" />
<use xlink:href="#f3_2l" transform="matrix(12,0,0,12,567.7,616.9)" />
<use xlink:href="#f3_2j" transform="matrix(12,0,0,12,581.6,616.9)" />
<use xlink:href="#f3_25" transform="matrix(12,0,0,12,594.8,616.9)" />
<use xlink:href="#f3_2g" transform="matrix(12,0,0,12,599.8,616.9)" />
<use xlink:href="#f3_24" transform="matrix(12,0,0,12,604.9,616.9)" />
<use xlink:href="#f3_2b" transform="matrix(12,0,0,12,614.1,616.9)" />
<use xlink:href="#f3_2h" transform="matrix(12,0,0,12,623.3,616.9)" />
<use xlink:href="#f3_2g" transform="matrix(12,0,0,12,632.4,616.9)" />
<use xlink:href="#f3_2j" transform="matrix(12,0,0,12,642.2,616.9)" />
<use xlink:href="#f3_2e" transform="matrix(12,0,0,12,655.4,616.9)" />
<use xlink:href="#f3_25" transform="matrix(12,0,0,12,661.5,616.9)" />
<use xlink:href="#f3_2g" transform="matrix(12,0,0,12,666.6,616.9)" />
<use xlink:href="#f3_25" transform="matrix(12,0,0,12,671.6,616.9)" />
<use xlink:href="#f3_2a" transform="matrix(12,0,0,12,676.8,616.9)" />
<use xlink:href="#f3_23" transform="matrix(12,0,0,12,685.9,616.9)" />
<use xlink:href="#f3_2g" transform="matrix(12,0,0,12,699.6,616.9)" />
<use xlink:href="#f3_24" transform="matrix(12,0,0,12,704.7,616.9)" />
<use xlink:href="#f3_21" transform="matrix(12,0,0,12,713.9,616.9)" />
<use xlink:href="#f3_20" transform="matrix(12,0,0,12,726.6,616.9)" />
<use xlink:href="#f3_21" transform="matrix(12,0,0,12,735.8,616.9)" />
<use xlink:href="#f3_2g" transform="matrix(12,0,0,12,744,616.9)" />
<use xlink:href="#f3_1x" transform="matrix(12,0,0,12,749.1,616.9)" />
<use xlink:href="#f3_25" transform="matrix(12,0,0,12,757.2,616.9)" />
<use xlink:href="#f3_28" transform="matrix(12,0,0,12,762.3,616.9)" />
<use xlink:href="#f3_2f" transform="matrix(12,0,0,12,767.3,616.9)" />
<use xlink:href="#f3_2b" transform="matrix(12,0,0,12,779,616.9)" />
<use xlink:href="#f3_22" transform="matrix(12,0,0,12,788.2,616.9)" />
<use xlink:href="#f3_2g" transform="matrix(12,0,0,12,798.8,616.9)" />
<use xlink:href="#f3_24" transform="matrix(12,0,0,12,803.9,616.9)" />
<use xlink:href="#f3_21" transform="matrix(12,0,0,12,813.1,616.9)" />
<use xlink:href="#f3_1z" transform="matrix(12,0,0,12,55,639.6)" />
<use xlink:href="#f3_2b" transform="matrix(12,0,0,12,63.1,639.6)" />
<use xlink:href="#f3_2a" transform="matrix(12,0,0,12,72.3,639.6)" />
<use xlink:href="#f3_2f" transform="matrix(12,0,0,12,81.5,639.6)" />
<use xlink:href="#f3_2g" transform="matrix(12,0,0,12,88.6,639.6)" />
<use xlink:href="#f3_2e" transform="matrix(12,0,0,12,93.8,639.6)" />
<use xlink:href="#f3_2h" transform="matrix(12,0,0,12,99.9,639.6)" />
<use xlink:href="#f3_1z" transform="matrix(12,0,0,12,109,639.6)" />
<use xlink:href="#f3_2g" transform="matrix(12,0,0,12,117.2,639.6)" />
<use xlink:href="#f3_25" transform="matrix(12,0,0,12,122.3,639.6)" />
<use xlink:href="#f3_2b" transform="matrix(12,0,0,12,127.4,639.6)" />
<use xlink:href="#f3_2a" transform="matrix(12,0,0,12,136.5,639.6)" />
<use xlink:href="#f3_i" transform="matrix(12,0,0,12,145.6,639.6)" />
<use xlink:href="#f3_1t" transform="matrix(12,0,0,12,150.2,639.6)" />
<use xlink:href="#f2_1n" transform="matrix(12,0,0,12,55,685.1)" />
<use xlink:href="#f2_2b" transform="matrix(12,0,0,12,73.3,685.1)" />
<use xlink:href="#f2_2e" transform="matrix(12,0,0,12,82.5,685.1)" />
<use xlink:href="#f2_27" transform="matrix(12,0,0,12,90.6,685.1)" />
<use xlink:href="#f2_25" transform="matrix(12,0,0,12,100.9,685.1)" />
<use xlink:href="#f2_2a" transform="matrix(12,0,0,12,106,685.1)" />
<use xlink:href="#f2_23" transform="matrix(12,0,0,12,116.2,685.1)" />
<use xlink:href="#f2_u" transform="matrix(12,0,0,12,125.3,685.1)" />
<use xlink:href="#f3_19" transform="matrix(12,0,0,12,136.1,685.1)" />
<use xlink:href="#f3_2a" transform="matrix(12,0,0,12,142.2,685.1)" />
<use xlink:href="#f3_1x" transform="matrix(12,0,0,12,155.9,685.1)" />
<use xlink:href="#f3_1z" transform="matrix(12,0,0,12,168.6,685.1)" />
<use xlink:href="#f3_2l" transform="matrix(12,0,0,12,176.8,685.1)" />
<use xlink:href="#f3_1z" transform="matrix(12,0,0,12,185.9,685.1)" />
<use xlink:href="#f3_28" transform="matrix(12,0,0,12,194.1,685.1)" />
<use xlink:href="#f3_2b" transform="matrix(12,0,0,12,199.2,685.1)" />
<use xlink:href="#f3_2g" transform="matrix(12,0,0,12,208.4,685.1)" />
<use xlink:href="#f3_2e" transform="matrix(12,0,0,12,213.4,685.1)" />
<use xlink:href="#f3_2b" transform="matrix(12,0,0,12,219.6,685.1)" />
<use xlink:href="#f3_2a" transform="matrix(12,0,0,12,228.6,685.1)" />
<use xlink:href="#f3_g" transform="matrix(12,0,0,12,237.8,685.1)" />
<use xlink:href="#f3_2g" transform="matrix(12,0,0,12,247,685.1)" />
<use xlink:href="#f3_24" transform="matrix(12,0,0,12,252.1,685.1)" />
<use xlink:href="#f3_21" transform="matrix(12,0,0,12,261.2,685.1)" />
<use xlink:href="#f3_22" transform="matrix(12,0,0,12,274,685.1)" />
<use xlink:href="#f3_2e" transform="matrix(12,0,0,12,280.1,685.1)" />
<use xlink:href="#f3_21" transform="matrix(12,0,0,12,286.2,685.1)" />
<use xlink:href="#f3_2d" transform="matrix(12,0,0,12,294.3,685.1)" />
<use xlink:href="#f3_2h" transform="matrix(12,0,0,12,303.5,685.1)" />
<use xlink:href="#f3_21" transform="matrix(12,0,0,12,312.7,685.1)" />
<use xlink:href="#f3_2a" transform="matrix(12,0,0,12,320.8,685.1)" />
<use xlink:href="#f3_1z" transform="matrix(12,0,0,12,329.9,685.1)" />
<use xlink:href="#f3_2l" transform="matrix(12,0,0,12,338.1,685.1)" />
<use xlink:href="#f3_2b" transform="matrix(12,0,0,12,351.8,685.1)" />
<use xlink:href="#f3_22" transform="matrix(12,0,0,12,361,685.1)" />
<use xlink:href="#f3_2g" transform="matrix(12,0,0,12,371.7,685.1)" />
<use xlink:href="#f3_24" transform="matrix(12,0,0,12,376.8,685.1)" />
<use xlink:href="#f3_21" transform="matrix(12,0,0,12,385.9,685.1)" />
<use xlink:href="#f3_1x" transform="matrix(12,0,0,12,398.7,685.1)" />
<use xlink:href="#f3_2c" transform="matrix(12,0,0,12,406.8,685.1)" />
<use xlink:href="#f3_2c" transform="matrix(12,0,0,12,416,685.1)" />
<use xlink:href="#f3_28" transform="matrix(12,0,0,12,425.1,685.1)" />
<use xlink:href="#f3_25" transform="matrix(12,0,0,12,430.2,685.1)" />
<use xlink:href="#f3_21" transform="matrix(12,0,0,12,435.3,685.1)" />
<use xlink:href="#f3_20" transform="matrix(12,0,0,12,443.5,685.1)" />
<use xlink:href="#f3_1x" transform="matrix(12,0,0,12,457.2,685.1)" />
<use xlink:href="#f3_28" transform="matrix(12,0,0,12,465.3,685.1)" />
<use xlink:href="#f3_2g" transform="matrix(12,0,0,12,470.4,685.1)" />
<use xlink:href="#f3_21" transform="matrix(12,0,0,12,475.5,685.1)" />
<use xlink:href="#f3_2e" transform="matrix(12,0,0,12,483.7,685.1)" />
<use xlink:href="#f3_2a" transform="matrix(12,0,0,12,489.8,685.1)" />
<use xlink:href="#f3_1x" transform="matrix(12,0,0,12,498.9,685.1)" />
<use xlink:href="#f3_2g" transform="matrix(12,0,0,12,507,685.1)" />
<use xlink:href="#f3_25" transform="matrix(12,0,0,12,512.1,685.1)" />
<use xlink:href="#f3_2a" transform="matrix(12,0,0,12,517.3,685.1)" />
<use xlink:href="#f3_23" transform="matrix(12,0,0,12,526.4,685.1)" />
<use xlink:href="#f3_22" transform="matrix(12,0,0,12,540.2,685.1)" />
<use xlink:href="#f3_25" transform="matrix(12,0,0,12,546.3,685.1)" />
<use xlink:href="#f3_21" transform="matrix(12,0,0,12,551.4,685.1)" />
<use xlink:href="#f3_28" transform="matrix(12,0,0,12,559.4,685.1)" />
<use xlink:href="#f3_20" transform="matrix(12,0,0,12,564.5,685.1)" />
<use xlink:href="#f3_25" transform="matrix(12,0,0,12,578.3,685.1)" />
<use xlink:href="#f3_2f" transform="matrix(12,0,0,12,583.4,685.1)" />
<use xlink:href="#f3_1x" transform="matrix(12,0,0,12,595.2,685.1)" />
<use xlink:href="#f3_20" transform="matrix(12,0,0,12,603.3,685.1)" />
<use xlink:href="#f3_26" transform="matrix(12,0,0,12,612.5,685.1)" />
<use xlink:href="#f3_2h" transform="matrix(12,0,0,12,617.6,685.1)" />
<use xlink:href="#f3_2f" transform="matrix(12,0,0,12,626.7,685.1)" />
<use xlink:href="#f3_2g" transform="matrix(12,0,0,12,633.9,685.1)" />
<use xlink:href="#f3_21" transform="matrix(12,0,0,12,639,685.1)" />
<use xlink:href="#f3_20" transform="matrix(12,0,0,12,647.2,685.1)" />
<use xlink:href="#f3_2g" transform="matrix(12,0,0,12,660.9,685.1)" />
<use xlink:href="#f3_2b" transform="matrix(12,0,0,12,666,685.1)" />
<use xlink:href="#f3_1y" transform="matrix(12,0,0,12,679.7,685.1)" />
<use xlink:href="#f3_21" transform="matrix(12,0,0,12,688.8,685.1)" />
<use xlink:href="#f3_21" transform="matrix(12,0,0,12,701.5,685.1)" />
<use xlink:href="#f3_2d" transform="matrix(12,0,0,12,709.7,685.1)" />
<use xlink:href="#f3_2h" transform="matrix(12,0,0,12,718.9,685.1)" />
<use xlink:href="#f3_1x" transform="matrix(12,0,0,12,728,685.1)" />
<use xlink:href="#f3_28" transform="matrix(12,0,0,12,736.2,685.1)" />
<use xlink:href="#f3_2g" transform="matrix(12,0,0,12,745.8,685.1)" />
<use xlink:href="#f3_2b" transform="matrix(12,0,0,12,750.9,685.1)" />
<use xlink:href="#f3_2g" transform="matrix(12,0,0,12,764.7,685.1)" />
<use xlink:href="#f3_24" transform="matrix(12,0,0,12,769.8,685.1)" />
<use xlink:href="#f3_21" transform="matrix(12,0,0,12,778.9,685.1)" />
</g>
<path fill-rule="evenodd" d="M55,688.8h70.3v-1.7H55v1.7Z" class="g2_164" />
<g fill="#000000" >
<use xlink:href="#f3_22" transform="matrix(12,0,0,12,55,707.8)" />
<use xlink:href="#f3_2e" transform="matrix(12,0,0,12,61.1,707.8)" />
<use xlink:href="#f3_21" transform="matrix(12,0,0,12,67.2,707.8)" />
<use xlink:href="#f3_2d" transform="matrix(12,0,0,12,75.3,707.8)" />
<use xlink:href="#f3_2h" transform="matrix(12,0,0,12,84.5,707.8)" />
<use xlink:href="#f3_21" transform="matrix(12,0,0,12,93.7,707.8)" />
<use xlink:href="#f3_2a" transform="matrix(12,0,0,12,101.8,707.8)" />
<use xlink:href="#f3_1z" transform="matrix(12,0,0,12,111,707.8)" />
<use xlink:href="#f3_2l" transform="matrix(12,0,0,12,119.1,707.8)" />
<use xlink:href="#f3_2b" transform="matrix(12,0,0,12,132.9,707.8)" />
<use xlink:href="#f3_22" transform="matrix(12,0,0,12,142,707.8)" />
<use xlink:href="#f3_2e" transform="matrix(12,0,0,12,152.7,707.8)" />
<use xlink:href="#f3_21" transform="matrix(12,0,0,12,158.8,707.8)" />
<use xlink:href="#f3_2i" transform="matrix(12,0,0,12,167,707.8)" />
<use xlink:href="#f3_2b" transform="matrix(12,0,0,12,176.1,707.8)" />
<use xlink:href="#f3_28" transform="matrix(12,0,0,12,185.3,707.8)" />
<use xlink:href="#f3_2h" transform="matrix(12,0,0,12,190.5,707.8)" />
<use xlink:href="#f3_2g" transform="matrix(12,0,0,12,199.5,707.8)" />
<use xlink:href="#f3_25" transform="matrix(12,0,0,12,204.6,707.8)" />
<use xlink:href="#f3_2b" transform="matrix(12,0,0,12,209.8,707.8)" />
<use xlink:href="#f3_2a" transform="matrix(12,0,0,12,219,707.8)" />
<use xlink:href="#f3_2b" transform="matrix(12,0,0,12,232.7,707.8)" />
<use xlink:href="#f3_22" transform="matrix(12,0,0,12,241.8,707.8)" />
<use xlink:href="#f3_2g" transform="matrix(12,0,0,12,252.5,707.8)" />
<use xlink:href="#f3_24" transform="matrix(12,0,0,12,257.6,707.8)" />
<use xlink:href="#f3_21" transform="matrix(12,0,0,12,266.7,707.8)" />
<use xlink:href="#f3_1z" transform="matrix(12,0,0,12,279.5,707.8)" />
<use xlink:href="#f3_24" transform="matrix(12,0,0,12,287.6,707.8)" />
<use xlink:href="#f3_1x" transform="matrix(12,0,0,12,296.8,707.8)" />
<use xlink:href="#f3_2e" transform="matrix(12,0,0,12,304.9,707.8)" />
<use xlink:href="#f3_23" transform="matrix(12,0,0,12,311.1,707.8)" />
<use xlink:href="#f3_21" transform="matrix(12,0,0,12,320.2,707.8)" />
<use xlink:href="#f3_20" transform="matrix(12,0,0,12,328.3,707.8)" />
<use xlink:href="#f3_2c" transform="matrix(12,0,0,12,342,707.8)" />
<use xlink:href="#f3_1x" transform="matrix(12,0,0,12,351.2,707.8)" />
<use xlink:href="#f3_2e" transform="matrix(12,0,0,12,359.4,707.8)" />
<use xlink:href="#f3_2g" transform="matrix(12,0,0,12,365.5,707.8)" />
<use xlink:href="#f3_25" transform="matrix(12,0,0,12,370.6,707.8)" />
<use xlink:href="#f3_1z" transform="matrix(12,0,0,12,375.7,707.8)" />
<use xlink:href="#f3_28" transform="matrix(12,0,0,12,383.8,707.8)" />
<use xlink:href="#f3_21" transform="matrix(12,0,0,12,388.9,707.8)" />
<use xlink:href="#f3_2f" transform="matrix(12,0,0,12,397.1,707.8)" />
<use xlink:href="#f3_25" transform="matrix(12,0,0,12,408.9,707.8)" />
<use xlink:href="#f3_2a" transform="matrix(12,0,0,12,413.9,707.8)" />
<use xlink:href="#f3_2g" transform="matrix(12,0,0,12,427.7,707.8)" />
<use xlink:href="#f3_24" transform="matrix(12,0,0,12,432.8,707.8)" />
<use xlink:href="#f3_21" transform="matrix(12,0,0,12,441.9,707.8)" />
<use xlink:href="#f3_29" transform="matrix(12,0,0,12,454.7,707.8)" />
<use xlink:href="#f3_1x" transform="matrix(12,0,0,12,468.8,707.8)" />
<use xlink:href="#f3_23" transform="matrix(12,0,0,12,477,707.8)" />
<use xlink:href="#f3_2a" transform="matrix(12,0,0,12,486.2,707.8)" />
<use xlink:href="#f3_21" transform="matrix(12,0,0,12,495.3,707.8)" />
<use xlink:href="#f3_2g" transform="matrix(12,0,0,12,503.5,707.8)" />
<use xlink:href="#f3_25" transform="matrix(12,0,0,12,508.6,707.8)" />
<use xlink:href="#f3_1z" transform="matrix(12,0,0,12,513.7,707.8)" />
<use xlink:href="#f3_22" transform="matrix(12,0,0,12,526.4,707.8)" />
<use xlink:href="#f3_25" transform="matrix(12,0,0,12,532.5,707.8)" />
<use xlink:href="#f3_21" transform="matrix(12,0,0,12,537.6,707.8)" />
<use xlink:href="#f3_28" transform="matrix(12,0,0,12,545.8,707.8)" />
<use xlink:href="#f3_20" transform="matrix(12,0,0,12,550.9,707.8)" />
<use xlink:href="#f3_i" transform="matrix(12,0,0,12,560,707.8)" />
<use xlink:href="#f3_1k" transform="matrix(12,0,0,12,569.2,707.8)" />
<use xlink:href="#f3_24" transform="matrix(12,0,0,12,580.4,707.8)" />
<use xlink:href="#f3_25" transform="matrix(12,0,0,12,589.6,707.8)" />
<use xlink:href="#f3_2f" transform="matrix(12,0,0,12,594.6,707.8)" />
<use xlink:href="#f3_21" transform="matrix(12,0,0,12,606.3,707.8)" />
<use xlink:href="#f3_2a" transform="matrix(12,0,0,12,614.4,707.8)" />
<use xlink:href="#f3_2f" transform="matrix(12,0,0,12,623.6,707.8)" />
<use xlink:href="#f3_2h" transform="matrix(12,0,0,12,630.8,707.8)" />
<use xlink:href="#f3_2e" transform="matrix(12,0,0,12,639.9,707.8)" />
<use xlink:href="#f3_21" transform="matrix(12,0,0,12,646.1,707.8)" />
<use xlink:href="#f3_2f" transform="matrix(12,0,0,12,654.2,707.8)" />
<use xlink:href="#f3_2g" transform="matrix(12,0,0,12,665.9,707.8)" />
<use xlink:href="#f3_24" transform="matrix(12,0,0,12,671,707.8)" />
<use xlink:href="#f3_1x" transform="matrix(12,0,0,12,680.1,707.8)" />
<use xlink:href="#f3_2g" transform="matrix(12,0,0,12,688.3,707.8)" />
<use xlink:href="#f3_2g" transform="matrix(12,0,0,12,698,707.8)" />
<use xlink:href="#f3_24" transform="matrix(12,0,0,12,703.1,707.8)" />
<use xlink:href="#f3_21" transform="matrix(12,0,0,12,712.2,707.8)" />
<use xlink:href="#f3_2c" transform="matrix(12,0,0,12,725,707.8)" />
<use xlink:href="#f3_1x" transform="matrix(12,0,0,12,734.1,707.8)" />
<use xlink:href="#f3_2e" transform="matrix(12,0,0,12,742.2,707.8)" />
<use xlink:href="#f3_2g" transform="matrix(12,0,0,12,748.3,707.8)" />
<use xlink:href="#f3_25" transform="matrix(12,0,0,12,753.4,707.8)" />
<use xlink:href="#f3_1z" transform="matrix(12,0,0,12,758.5,707.8)" />
<use xlink:href="#f3_28" transform="matrix(12,0,0,12,766.7,707.8)" />
<use xlink:href="#f3_21" transform="matrix(12,0,0,12,771.7,707.8)" />
<use xlink:href="#f3_2f" transform="matrix(12,0,0,12,779.8,707.8)" />
<use xlink:href="#f3_23" transform="matrix(12,0,0,12,791.5,707.8)" />
<use xlink:href="#f3_21" transform="matrix(12,0,0,12,800.7,707.8)" />
<use xlink:href="#f3_2g" transform="matrix(12,0,0,12,808.8,707.8)" />
<use xlink:href="#f3_1x" transform="matrix(12,0,0,12,55,730.6)" />
<use xlink:href="#f3_1z" transform="matrix(12,0,0,12,63.1,730.6)" />
<use xlink:href="#f3_1z" transform="matrix(12,0,0,12,71.3,730.6)" />
<use xlink:href="#f3_21" transform="matrix(12,0,0,12,79.4,730.6)" />
<use xlink:href="#f3_28" transform="matrix(12,0,0,12,87.6,730.6)" />
<use xlink:href="#f3_21" transform="matrix(12,0,0,12,92.7,730.6)" />
<use xlink:href="#f3_2e" transform="matrix(12,0,0,12,100.9,730.6)" />
<use xlink:href="#f3_1x" transform="matrix(12,0,0,12,107,730.6)" />
<use xlink:href="#f3_2g" transform="matrix(12,0,0,12,115,730.6)" />
<use xlink:href="#f3_21" transform="matrix(12,0,0,12,120.1,730.6)" />
<use xlink:href="#f3_20" transform="matrix(12,0,0,12,128.3,730.6)" />
<use xlink:href="#f3_21" transform="matrix(12,0,0,12,142,730.6)" />
<use xlink:href="#f3_2i" transform="matrix(12,0,0,12,150.2,730.6)" />
<use xlink:href="#f3_21" transform="matrix(12,0,0,12,159.3,730.6)" />
<use xlink:href="#f3_2e" transform="matrix(12,0,0,12,167.5,730.6)" />
<use xlink:href="#f3_2l" transform="matrix(12,0,0,12,173.6,730.6)" />
<use xlink:href="#f3_2g" transform="matrix(12,0,0,12,187.3,730.6)" />
<use xlink:href="#f3_25" transform="matrix(12,0,0,12,192.4,730.6)" />
<use xlink:href="#f3_29" transform="matrix(12,0,0,12,197.5,730.6)" />
<use xlink:href="#f3_21" transform="matrix(12,0,0,12,211.6,730.6)" />
<use xlink:href="#f3_2g" transform="matrix(12,0,0,12,224.4,730.6)" />
<use xlink:href="#f3_24" transform="matrix(12,0,0,12,229.5,730.6)" />
<use xlink:href="#f3_21" transform="matrix(12,0,0,12,238.7,730.6)" />
<use xlink:href="#f3_2l" transform="matrix(12,0,0,12,246.8,730.6)" />
<use xlink:href="#f3_1z" transform="matrix(12,0,0,12,260.6,730.6)" />
<use xlink:href="#f3_2e" transform="matrix(12,0,0,12,268.8,730.6)" />
<use xlink:href="#f3_2b" transform="matrix(12,0,0,12,274.9,730.6)" />
<use xlink:href="#f3_2f" transform="matrix(12,0,0,12,284.1,730.6)" />
<use xlink:href="#f3_2f" transform="matrix(12,0,0,12,291.2,730.6)" />
<use xlink:href="#f3_2g" transform="matrix(12,0,0,12,302.9,730.6)" />
<use xlink:href="#f3_24" transform="matrix(12,0,0,12,308,730.6)" />
<use xlink:href="#f3_21" transform="matrix(12,0,0,12,317.1,730.6)" />
<use xlink:href="#f3_2f" transform="matrix(12,0,0,12,329.8,730.6)" />
<use xlink:href="#f3_2c" transform="matrix(12,0,0,12,336.9,730.6)" />
<use xlink:href="#f3_1x" transform="matrix(12,0,0,12,346.1,730.6)" />
<use xlink:href="#f3_1z" transform="matrix(12,0,0,12,354.3,730.6)" />
<use xlink:href="#f3_21" transform="matrix(12,0,0,12,362.4,730.6)" />
<use xlink:href="#f3_1y" transform="matrix(12,0,0,12,375.1,730.6)" />
<use xlink:href="#f3_21" transform="matrix(12,0,0,12,384.3,730.6)" />
<use xlink:href="#f3_2g" transform="matrix(12,0,0,12,392.4,730.6)" />
<use xlink:href="#f3_2j" transform="matrix(12,0,0,12,397.5,730.6)" />
<use xlink:href="#f3_21" transform="matrix(12,0,0,12,410.8,730.6)" />
<use xlink:href="#f3_21" transform="matrix(12,0,0,12,418.9,730.6)" />
<use xlink:href="#f3_2a" transform="matrix(12,0,0,12,427.1,730.6)" />
<use xlink:href="#f3_2g" transform="matrix(12,0,0,12,440.8,730.6)" />
<use xlink:href="#f3_24" transform="matrix(12,0,0,12,445.9,730.6)" />
<use xlink:href="#f3_21" transform="matrix(12,0,0,12,455.1,730.6)" />
<use xlink:href="#f3_2g" transform="matrix(12,0,0,12,467.8,730.6)" />
<use xlink:href="#f3_2j" transform="matrix(12,0,0,12,472.9,730.6)" />
<use xlink:href="#f3_2b" transform="matrix(12,0,0,12,486.1,730.6)" />
<use xlink:href="#f3_20" transform="matrix(12,0,0,12,499.9,730.6)" />
<use xlink:href="#f3_21" transform="matrix(12,0,0,12,509,730.6)" />
<use xlink:href="#f3_21" transform="matrix(12,0,0,12,517.2,730.6)" />
<use xlink:href="#f3_2f" transform="matrix(12,0,0,12,525.3,730.6)" />
<use xlink:href="#f3_i" transform="matrix(12,0,0,12,532.4,730.6)" />
<use xlink:href="#f3_1k" transform="matrix(12,0,0,12,541.6,730.6)" />
<use xlink:href="#f3_24" transform="matrix(12,0,0,12,552.8,730.6)" />
<use xlink:href="#f3_21" transform="matrix(12,0,0,12,562,730.6)" />
<use xlink:href="#f3_2e" transform="matrix(12,0,0,12,574.7,730.6)" />
<use xlink:href="#f3_1x" transform="matrix(12,0,0,12,580.8,730.6)" />
<use xlink:href="#f3_20" transform="matrix(12,0,0,12,589,730.6)" />
<use xlink:href="#f3_25" transform="matrix(12,0,0,12,598.1,730.6)" />
<use xlink:href="#f3_2h" transform="matrix(12,0,0,12,603.2,730.6)" />
<use xlink:href="#f3_2f" transform="matrix(12,0,0,12,612.4,730.6)" />
<use xlink:href="#f3_2b" transform="matrix(12,0,0,12,624.1,730.6)" />
<use xlink:href="#f3_22" transform="matrix(12,0,0,12,633.3,730.6)" />
<use xlink:href="#f3_2g" transform="matrix(12,0,0,12,644,730.6)" />
<use xlink:href="#f3_24" transform="matrix(12,0,0,12,649,730.6)" />
<use xlink:href="#f3_21" transform="matrix(12,0,0,12,658.2,730.6)" />
<use xlink:href="#f3_25" transform="matrix(12,0,0,12,666.4,730.6)" />
<use xlink:href="#f3_2e" transform="matrix(12,0,0,12,671.5,730.6)" />
<use xlink:href="#f3_2c" transform="matrix(12,0,0,12,682.1,730.6)" />
<use xlink:href="#f3_1x" transform="matrix(12,0,0,12,691.2,730.6)" />
<use xlink:href="#f3_2g" transform="matrix(12,0,0,12,699.4,730.6)" />
<use xlink:href="#f3_24" transform="matrix(12,0,0,12,704.5,730.6)" />
<use xlink:href="#f3_25" transform="matrix(12,0,0,12,718.2,730.6)" />
<use xlink:href="#f3_2a" transform="matrix(12,0,0,12,723.4,730.6)" />
<use xlink:href="#f3_1z" transform="matrix(12,0,0,12,732.6,730.6)" />
<use xlink:href="#f3_2e" transform="matrix(12,0,0,12,740.6,730.6)" />
<use xlink:href="#f3_21" transform="matrix(12,0,0,12,746.7,730.6)" />
<use xlink:href="#f3_1x" transform="matrix(12,0,0,12,754.9,730.6)" />
<use xlink:href="#f3_2f" transform="matrix(12,0,0,12,763.1,730.6)" />
<use xlink:href="#f3_21" transform="matrix(12,0,0,12,770.1,730.6)" />
<use xlink:href="#f3_2f" transform="matrix(12,0,0,12,778.3,730.6)" />
<use xlink:href="#f3_2j" transform="matrix(12,0,0,12,790.2,730.6)" />
<use xlink:href="#f3_25" transform="matrix(12,0,0,12,803.4,730.6)" />
<use xlink:href="#f3_2g" transform="matrix(12,0,0,12,808.5,730.6)" />
<use xlink:href="#f3_24" transform="matrix(12,0,0,12,813.6,730.6)" />
<use xlink:href="#f3_25" transform="matrix(12,0,0,12,55,753.4)" />
<use xlink:href="#f3_2a" transform="matrix(12,0,0,12,60.1,753.4)" />
<use xlink:href="#f3_1z" transform="matrix(12,0,0,12,69.3,753.4)" />
<use xlink:href="#f3_2e" transform="matrix(12,0,0,12,77.4,753.4)" />
<use xlink:href="#f3_21" transform="matrix(12,0,0,12,83.6,753.4)" />
<use xlink:href="#f3_1x" transform="matrix(12,0,0,12,91.6,753.4)" />
<use xlink:href="#f3_2f" transform="matrix(12,0,0,12,99.8,753.4)" />
<use xlink:href="#f3_21" transform="matrix(12,0,0,12,106.9,753.4)" />
<use xlink:href="#f3_25" transform="matrix(12,0,0,12,119.6,753.4)" />
<use xlink:href="#f3_2a" transform="matrix(12,0,0,12,124.8,753.4)" />
<use xlink:href="#f3_21" transform="matrix(12,0,0,12,138.5,753.4)" />
<use xlink:href="#f3_2a" transform="matrix(12,0,0,12,146.5,753.4)" />
<use xlink:href="#f3_21" transform="matrix(12,0,0,12,155.7,753.4)" />
<use xlink:href="#f3_2e" transform="matrix(12,0,0,12,163.8,753.4)" />
<use xlink:href="#f3_23" transform="matrix(12,0,0,12,170,753.4)" />
<use xlink:href="#f3_2l" transform="matrix(12,0,0,12,179.2,753.4)" />
<use xlink:href="#f3_1x" transform="matrix(12,0,0,12,192.9,753.4)" />
<use xlink:href="#f3_2a" transform="matrix(12,0,0,12,201,753.4)" />
<use xlink:href="#f3_20" transform="matrix(12,0,0,12,210.2,753.4)" />
<use xlink:href="#f3_2g" transform="matrix(12,0,0,12,224,753.4)" />
<use xlink:href="#f3_24" transform="matrix(12,0,0,12,229.1,753.4)" />
<use xlink:href="#f3_21" transform="matrix(12,0,0,12,238.2,753.4)" />
<use xlink:href="#f3_2l" transform="matrix(12,0,0,12,246.4,753.4)" />
<use xlink:href="#f3_1x" transform="matrix(12,0,0,12,260.1,753.4)" />
<use xlink:href="#f3_2e" transform="matrix(12,0,0,12,268.3,753.4)" />
<use xlink:href="#f3_21" transform="matrix(12,0,0,12,274.4,753.4)" />
<use xlink:href="#f3_22" transform="matrix(12,0,0,12,287.1,753.4)" />
<use xlink:href="#f3_25" transform="matrix(12,0,0,12,293.2,753.4)" />
<use xlink:href="#f3_2a" transform="matrix(12,0,0,12,298.3,753.4)" />
<use xlink:href="#f3_1x" transform="matrix(12,0,0,12,307.4,753.4)" />
<use xlink:href="#f3_28" transform="matrix(12,0,0,12,315.6,753.4)" />
<use xlink:href="#f3_28" transform="matrix(12,0,0,12,320.7,753.4)" />
<use xlink:href="#f3_2l" transform="matrix(12,0,0,12,325.7,753.4)" />
<use xlink:href="#f3_29" transform="matrix(12,0,0,12,339.6,753.4)" />
<use xlink:href="#f3_1x" transform="matrix(12,0,0,12,353.7,753.4)" />
<use xlink:href="#f3_20" transform="matrix(12,0,0,12,361.8,753.4)" />
<use xlink:href="#f3_21" transform="matrix(12,0,0,12,371,753.4)" />
<use xlink:href="#f3_2g" transform="matrix(12,0,0,12,383.7,753.4)" />
<use xlink:href="#f3_2b" transform="matrix(12,0,0,12,388.8,753.4)" />
<use xlink:href="#f3_28" transform="matrix(12,0,0,12,402.6,753.4)" />
<use xlink:href="#f3_21" transform="matrix(12,0,0,12,407.7,753.4)" />
<use xlink:href="#f3_1x" transform="matrix(12,0,0,12,415.8,753.4)" />
<use xlink:href="#f3_2i" transform="matrix(12,0,0,12,424,753.4)" />
<use xlink:href="#f3_21" transform="matrix(12,0,0,12,433.1,753.4)" />
<use xlink:href="#f3_2g" transform="matrix(12,0,0,12,445.9,753.4)" />
<use xlink:href="#f3_24" transform="matrix(12,0,0,12,451,753.4)" />
<use xlink:href="#f3_21" transform="matrix(12,0,0,12,460.1,753.4)" />
<use xlink:href="#f3_2f" transform="matrix(12,0,0,12,472.9,753.4)" />
<use xlink:href="#f3_2l" transform="matrix(12,0,0,12,480,753.4)" />
<use xlink:href="#f3_2f" transform="matrix(12,0,0,12,489.2,753.4)" />
<use xlink:href="#f3_2g" transform="matrix(12,0,0,12,496.3,753.4)" />
<use xlink:href="#f3_21" transform="matrix(12,0,0,12,501.4,753.4)" />
<use xlink:href="#f3_29" transform="matrix(12,0,0,12,509.5,753.4)" />
<use xlink:href="#f3_2i" transform="matrix(12,0,0,12,528.3,753.4)" />
<use xlink:href="#f3_25" transform="matrix(12,0,0,12,537.4,753.4)" />
<use xlink:href="#f3_1x" transform="matrix(12,0,0,12,542.5,753.4)" />
<use xlink:href="#f3_1x" transform="matrix(12,0,0,12,555.2,753.4)" />
<use xlink:href="#f3_2a" transform="matrix(12,0,0,12,563.4,753.4)" />
<use xlink:href="#f3_21" transform="matrix(12,0,0,12,577.4,753.4)" />
<use xlink:href="#f3_2k" transform="matrix(12,0,0,12,585.5,753.4)" />
<use xlink:href="#f3_25" transform="matrix(12,0,0,12,594.7,753.4)" />
<use xlink:href="#f3_2g" transform="matrix(12,0,0,12,599.8,753.4)" />
<use xlink:href="#f3_2f" transform="matrix(12,0,0,12,609.5,753.4)" />
<use xlink:href="#f3_28" transform="matrix(12,0,0,12,616.6,753.4)" />
<use xlink:href="#f3_25" transform="matrix(12,0,0,12,621.7,753.4)" />
<use xlink:href="#f3_2g" transform="matrix(12,0,0,12,626.8,753.4)" />
<use xlink:href="#f3_i" transform="matrix(12,0,0,12,631.9,753.4)" />
<use xlink:href="#f3_1f" transform="matrix(12,0,0,12,442.1,776.1)" />
<use xlink:href="#f3_1i" transform="matrix(12,0,0,12,455.3,776.1)" />
<use xlink:href="#f3_c" transform="matrix(12,0,0,12,55,798.8)" />
<use xlink:href="#f3_1x" transform="matrix(12,0,0,12,61.1,798.8)" />
<use xlink:href="#f3_d" transform="matrix(12,0,0,12,69.2,798.8)" />
<use xlink:href="#f3_1c" transform="matrix(12,0,0,12,80,798.8)" />
<use xlink:href="#f3_1x" transform="matrix(12,0,0,12,91.2,798.8)" />
<use xlink:href="#f3_1y" transform="matrix(12,0,0,12,99.3,798.8)" />
<use xlink:href="#f3_21" transform="matrix(12,0,0,12,108.5,798.8)" />
<use xlink:href="#f3_28" transform="matrix(12,0,0,12,116.6,798.8)" />
<use xlink:href="#f3_28" transform="matrix(12,0,0,12,121.7,798.8)" />
<use xlink:href="#f3_21" transform="matrix(12,0,0,12,126.8,798.8)" />
<use xlink:href="#f3_20" transform="matrix(12,0,0,12,135,798.8)" />
<use xlink:href="#f3_20" transform="matrix(12,0,0,12,148.6,798.8)" />
<use xlink:href="#f3_25" transform="matrix(12,0,0,12,157.8,798.8)" />
<use xlink:href="#f3_1x" transform="matrix(12,0,0,12,162.9,798.8)" />
<use xlink:href="#f3_23" transform="matrix(12,0,0,12,171,798.8)" />
<use xlink:href="#f3_2e" transform="matrix(12,0,0,12,180.2,798.8)" />
<use xlink:href="#f3_1x" transform="matrix(12,0,0,12,186.4,798.8)" />
<use xlink:href="#f3_29" transform="matrix(12,0,0,12,194.5,798.8)" />
<use xlink:href="#f3_1g" transform="matrix(12,0,0,12,55,821.6)" />
<use xlink:href="#f3_2e" transform="matrix(12,0,0,12,65.2,821.6)" />
<use xlink:href="#f3_25" transform="matrix(12,0,0,12,71.3,821.6)" />
<use xlink:href="#f3_2a" transform="matrix(12,0,0,12,76.4,821.6)" />
<use xlink:href="#f3_1z" transform="matrix(12,0,0,12,85.6,821.6)" />
<use xlink:href="#f3_25" transform="matrix(12,0,0,12,93.8,821.6)" />
<use xlink:href="#f3_2c" transform="matrix(12,0,0,12,98.9,821.6)" />
<use xlink:href="#f3_28" transform="matrix(12,0,0,12,108,821.6)" />
<use xlink:href="#f3_21" transform="matrix(12,0,0,12,113.1,821.6)" />
<use xlink:href="#f3_1x" transform="matrix(12,0,0,12,125.8,821.6)" />
<use xlink:href="#f3_2a" transform="matrix(12,0,0,12,134,821.6)" />
<use xlink:href="#f3_20" transform="matrix(12,0,0,12,143.1,821.6)" />
<use xlink:href="#f3_2j" transform="matrix(12,0,0,12,156.8,821.6)" />
<use xlink:href="#f3_2b" transform="matrix(12,0,0,12,170,821.6)" />
<use xlink:href="#f3_2e" transform="matrix(12,0,0,12,179.2,821.6)" />
<use xlink:href="#f3_27" transform="matrix(12,0,0,12,185.3,821.6)" />
<use xlink:href="#f3_25" transform="matrix(12,0,0,12,194.5,821.6)" />
<use xlink:href="#f3_2a" transform="matrix(12,0,0,12,199.6,821.6)" />
<use xlink:href="#f3_23" transform="matrix(12,0,0,12,208.7,821.6)" />
<use xlink:href="#f3_c" transform="matrix(12,0,0,12,55,844.4)" />
<use xlink:href="#f3_1y" transform="matrix(12,0,0,12,61.1,844.4)" />
<use xlink:href="#f3_d" transform="matrix(12,0,0,12,70.3,844.4)" />
<use xlink:href="#f3_25" transform="matrix(12,0,0,12,81,844.4)" />
<use xlink:href="#f3_d" transform="matrix(12,0,0,12,86.1,844.4)" />
<use xlink:href="#f3_1i" transform="matrix(12,0,0,12,96.7,844.4)" />
<use xlink:href="#f3_21" transform="matrix(12,0,0,12,109,844.4)" />
<use xlink:href="#f3_1x" transform="matrix(12,0,0,12,117.1,844.4)" />
<use xlink:href="#f3_2f" transform="matrix(12,0,0,12,125.3,844.4)" />
<use xlink:href="#f3_2b" transform="matrix(12,0,0,12,132.4,844.4)" />
<use xlink:href="#f3_2a" transform="matrix(12,0,0,12,141.6,844.4)" />
<use xlink:href="#f3_22" transform="matrix(12,0,0,12,155.3,844.4)" />
<use xlink:href="#f3_2b" transform="matrix(12,0,0,12,161.4,844.4)" />
<use xlink:href="#f3_2e" transform="matrix(12,0,0,12,170.6,844.4)" />
<use xlink:href="#f3_1z" transform="matrix(12,0,0,12,181.3,844.4)" />
<use xlink:href="#f3_2l" transform="matrix(12,0,0,12,189.4,844.4)" />
<use xlink:href="#f3_28" transform="matrix(12,0,0,12,198.6,844.4)" />
<use xlink:href="#f3_25" transform="matrix(12,0,0,12,203.7,844.4)" />
<use xlink:href="#f3_2a" transform="matrix(12,0,0,12,208.8,844.4)" />
<use xlink:href="#f3_20" transform="matrix(12,0,0,12,218,844.4)" />
<use xlink:href="#f3_2e" transform="matrix(12,0,0,12,227.2,844.4)" />
<use xlink:href="#f3_25" transform="matrix(12,0,0,12,233.3,844.4)" />
<use xlink:href="#f3_1z" transform="matrix(12,0,0,12,238.4,844.4)" />
<use xlink:href="#f3_1x" transform="matrix(12,0,0,12,246.5,844.4)" />
<use xlink:href="#f3_28" transform="matrix(12,0,0,12,254.6,844.4)" />
<use xlink:href="#f3_2f" transform="matrix(12,0,0,12,264.3,844.4)" />
<use xlink:href="#f3_2b" transform="matrix(12,0,0,12,271.4,844.4)" />
<use xlink:href="#f3_22" transform="matrix(12,0,0,12,280.6,844.4)" />
<use xlink:href="#f3_2g" transform="matrix(12,0,0,12,286.7,844.4)" />
<use xlink:href="#f3_25" transform="matrix(12,0,0,12,296.4,844.4)" />
<use xlink:href="#f3_2e" transform="matrix(12,0,0,12,301.4,844.4)" />
<use xlink:href="#f3_2b" transform="matrix(12,0,0,12,307.6,844.4)" />
<use xlink:href="#f3_2a" transform="matrix(12,0,0,12,316.8,844.4)" />
<use xlink:href="#f3_1z" transform="matrix(12,0,0,12,330.4,844.4)" />
<use xlink:href="#f3_2b" transform="matrix(12,0,0,12,338.6,844.4)" />
<use xlink:href="#f3_2e" transform="matrix(12,0,0,12,347.7,844.4)" />
<use xlink:href="#f3_21" transform="matrix(12,0,0,12,353.9,844.4)" />
<use xlink:href="#f3_25" transform="matrix(12,0,0,12,55,867.1)" />
<use xlink:href="#f3_25" transform="matrix(12,0,0,12,60.1,867.1)" />
<use xlink:href="#f3_d" transform="matrix(12,0,0,12,65.2,867.1)" />
<use xlink:href="#f3_13" transform="matrix(12,0,0,12,75.9,867.1)" />
<use xlink:href="#f3_2b" transform="matrix(12,0,0,12,88.2,867.1)" />
<use xlink:href="#f3_29" transform="matrix(12,0,0,12,97.3,867.1)" />
<use xlink:href="#f3_2c" transform="matrix(12,0,0,12,111.4,867.1)" />
<use xlink:href="#f3_1x" transform="matrix(12,0,0,12,120.6,867.1)" />
<use xlink:href="#f3_2e" transform="matrix(12,0,0,12,128.8,867.1)" />
<use xlink:href="#f3_25" transform="matrix(12,0,0,12,134.9,867.1)" />
<use xlink:href="#f3_2f" transform="matrix(12,0,0,12,140,867.1)" />
<use xlink:href="#f3_2b" transform="matrix(12,0,0,12,147.1,867.1)" />
<use xlink:href="#f3_2a" transform="matrix(12,0,0,12,156.3,867.1)" />
<use xlink:href="#f3_2b" transform="matrix(12,0,0,12,170,867.1)" />
<use xlink:href="#f3_22" transform="matrix(12,0,0,12,179.2,867.1)" />
<use xlink:href="#f3_1z" transform="matrix(12,0,0,12,189.8,867.1)" />
<use xlink:href="#f3_2h" transform="matrix(12,0,0,12,197.9,867.1)" />
<use xlink:href="#f3_2e" transform="matrix(12,0,0,12,207.1,867.1)" />
<use xlink:href="#f3_2e" transform="matrix(12,0,0,12,213.3,867.1)" />
<use xlink:href="#f3_21" transform="matrix(12,0,0,12,219.4,867.1)" />
<use xlink:href="#f3_2a" transform="matrix(12,0,0,12,227.5,867.1)" />
<use xlink:href="#f3_2g" transform="matrix(12,0,0,12,236.7,867.1)" />
<use xlink:href="#f3_2f" transform="matrix(12,0,0,12,246.3,867.1)" />
<use xlink:href="#f3_21" transform="matrix(12,0,0,12,253.5,867.1)" />
<use xlink:href="#f3_2a" transform="matrix(12,0,0,12,261.6,867.1)" />
<use xlink:href="#f3_2f" transform="matrix(12,0,0,12,270.8,867.1)" />
<use xlink:href="#f3_25" transform="matrix(12,0,0,12,277.9,867.1)" />
<use xlink:href="#f3_2g" transform="matrix(12,0,0,12,283,867.1)" />
<use xlink:href="#f3_25" transform="matrix(12,0,0,12,288.1,867.1)" />
<use xlink:href="#f3_2i" transform="matrix(12,0,0,12,293.3,867.1)" />
<use xlink:href="#f3_25" transform="matrix(12,0,0,12,302.3,867.1)" />
<use xlink:href="#f3_2g" transform="matrix(12,0,0,12,307.4,867.1)" />
<use xlink:href="#f3_2l" transform="matrix(12,0,0,12,312.6,867.1)" />
<use xlink:href="#f3_1x" transform="matrix(12,0,0,12,326.2,867.1)" />
<use xlink:href="#f3_2a" transform="matrix(12,0,0,12,334.4,867.1)" />
<use xlink:href="#f3_20" transform="matrix(12,0,0,12,343.5,867.1)" />
<use xlink:href="#f3_2i" transform="matrix(12,0,0,12,357.3,867.1)" />
<use xlink:href="#f3_2b" transform="matrix(12,0,0,12,366.5,867.1)" />
<use xlink:href="#f3_28" transform="matrix(12,0,0,12,375.6,867.1)" />
<use xlink:href="#f3_2g" transform="matrix(12,0,0,12,380.7,867.1)" />
<use xlink:href="#f3_1x" transform="matrix(12,0,0,12,385.9,867.1)" />
<use xlink:href="#f3_23" transform="matrix(12,0,0,12,394,867.1)" />
<use xlink:href="#f3_21" transform="matrix(12,0,0,12,403.1,867.1)" />
<use xlink:href="#f3_2f" transform="matrix(12,0,0,12,415.8,867.1)" />
<use xlink:href="#f3_21" transform="matrix(12,0,0,12,422.9,867.1)" />
<use xlink:href="#f3_2a" transform="matrix(12,0,0,12,431.1,867.1)" />
<use xlink:href="#f3_2f" transform="matrix(12,0,0,12,440.2,867.1)" />
<use xlink:href="#f3_25" transform="matrix(12,0,0,12,447.4,867.1)" />
<use xlink:href="#f3_2g" transform="matrix(12,0,0,12,452.5,867.1)" />
<use xlink:href="#f3_25" transform="matrix(12,0,0,12,457.6,867.1)" />
<use xlink:href="#f3_2i" transform="matrix(12,0,0,12,462.7,867.1)" />
<use xlink:href="#f3_25" transform="matrix(12,0,0,12,471.8,867.1)" />
<use xlink:href="#f3_2g" transform="matrix(12,0,0,12,476.9,867.1)" />
<use xlink:href="#f3_2l" transform="matrix(12,0,0,12,482,867.1)" />
</g>
<image preserveAspectRatio="none" x="55" y="127" width="356" height="357" xlink:href="img/6.png" />
<image preserveAspectRatio="none" x="306" y="873" width="298" height="286" xlink:href="img/7.png" />
<path fill-rule="evenodd" d="M37.4,38.1h.7v-.7h-.7v.7Z" class="g2_164" />
<path fill-rule="evenodd" d="M37.4,38.1h.7v-.7h-.7v.7Z" class="g2_164" />
<path fill-rule="evenodd" d="M38.1,38.1H871.5v-.7H38.1v.7Z" class="g2_164" />
<path fill-rule="evenodd" d="M871.5,38.1h.7v-.7h-.7v.7Z" class="g2_164" />
<path fill-rule="evenodd" d="M871.5,38.1h.7v-.7h-.7v.7Z" class="g2_164" />
<path fill-rule="evenodd" d="M37.4,1248.2h.7V38.1h-.7V1248.2Z" class="g2_164" />
<path fill-rule="evenodd" d="M872.2,1248.2h.8V38.1h-.8V1248.2Z" class="g2_164" />
<path fill-rule="evenodd" d="M871.5,1248.2h.7V38.1h-.7V1248.2Z" class="g2_164" />
<path fill-rule="evenodd" d="M37.4,1249h.7v-.8h-.7v.8Z" class="g2_164" />
<path fill-rule="evenodd" d="M37.4,1249h.7v-.8h-.7v.8Z" class="g2_164" />
<path fill-rule="evenodd" d="M38.1,1249.7H871.5v-.7H38.1v.7Z" class="g2_164" />
<path fill-rule="evenodd" d="M38.1,1249H871.5v-.8H38.1v.8Z" class="g2_164" />
<path fill-rule="evenodd" d="M872.2,1249.7h.8v-1.5h-.8v1.5Z" class="g2_164" />
<path fill-rule="evenodd" d="M871.5,1249.7H873v-.7h-1.5v.7Z" class="g2_164" />
<path fill-rule="evenodd" d="M871.5,1249h.7v-.8h-.7v.8Z" class="g2_164" />
<path fill-rule="evenodd" d="M871.5,1249h.7v-.8h-.7v.8Z" class="g2_164" />
<defs>
<path d="M489,-15c0,0,-99,0,-179,30c0,0,-80,30,-136,91c0,0,-56,61,-85,152c0,0,-30,91,-30,212c0,0,0,123,32,218c0,0,33,96,92,161c0,0,59,65,142,98c0,0,82,34,181,34c0,0,40,0,78,-7c0,0,37,-7,69,-18c0,0,31,-11,57,-25c0,0,25,-14,35,-24c0,0,10,-10,14,-17c0,0,4,-7,6,-17c0,0,2,-11,3,-25c0,0,2,-14,2,-35c0,0,0,-22,-2,-38c0,0,-1,-15,-5,-25c0,0,-4,-10,-9,-14c0,0,-5,-5,-12,-5c0,0,-11,0,-28,13c0,0,-18,13,-45,29c0,0,-27,16,-65,29c0,0,-37,13,-89,13c0,0,-58,0,-103,-23c0,0,-45,-23,-77,-67c0,0,-31,-44,-48,-106c0,0,-16,-61,-16,-139c0,0,0,-85,17,-147c0,0,18,-62,50,-103c0,0,33,-40,79,-60c0,0,45,-19,103,-19c0,0,52,0,90,12c0,0,38,12,65,27c0,0,27,15,45,27c0,0,17,12,27,12c0,0,8,0,12,-3c0,0,4,-3,7,-12c0,0,3,-9,5,-25c0,0,1,-16,1,-43c0,0,0,-18,-1,-31c0,0,-1,-14,-3,-23c0,0,-2,-9,-6,-16c0,0,-4,-7,-12,-15c0,0,-8,-9,-32,-22c0,0,-23,-14,-57,-26C661,13,627,1,583,-6c0,0,-43,-9,-94,-9Z" 
id="f0_j"
transform="scale(0.001,-0.001)" />

<path d="M440,150c0,0,41,0,68,8c0,0,28,9,49,26c0,0,20,16,32,41c0,0,11,25,11,58c0,0,0,33,-11,60c0,0,-11,26,-33,44c0,0,-21,18,-55,28c0,0,-33,9,-87,9H298V150ZM407,567c0,0,42,0,68,10c0,0,25,10,42,28c0,0,16,17,24,41c0,0,9,24,9,50c0,0,0,29,-9,52c0,0,-9,23,-27,39c0,0,-18,15,-45,23c0,0,-27,8,-72,8H298V567ZM164,0c0,0,-25,0,-42,15c0,0,-16,14,-16,47V903c0,0,0,33,16,48c0,0,17,14,42,14H406c0,0,88,0,150,-15c0,0,61,-15,103,-45c0,0,42,-30,65,-77c0,0,22,-46,22,-108c0,0,0,-36,-9,-67c0,0,-9,-31,-26,-56c0,0,-17,-25,-42,-45c0,0,-25,-19,-57,-31c0,0,41,-7,76,-26c0,0,34,-19,60,-48c0,0,26,-30,41,-69c0,0,15,-40,15,-89c0,0,0,-51,-14,-93c0,0,-15,-42,-40,-74c0,0,-25,-32,-59,-55c0,0,-35,-23,-77,-38C614,29,573,14,525,7C525,7,478,0,420,0Z" 
id="f0_i"
transform="scale(0.001,-0.001)" />

<path d="M320,-17c0,0,-50,0,-93,9c0,0,-43,8,-76,19c0,0,-32,11,-54,24C97,35,75,48,65,58c0,0,-10,9,-14,28c0,0,-4,18,-4,52c0,0,0,23,1,39c0,0,2,15,5,25c0,0,4,10,9,14c0,0,6,4,13,4c0,0,11,0,30,-12c0,0,19,-13,49,-28c0,0,30,-15,71,-27c0,0,42,-12,96,-12c0,0,36,0,64,8c0,0,29,9,49,25c0,0,19,15,30,38c0,0,10,23,10,52c0,0,0,33,-18,56c0,0,-18,24,-46,42c0,0,-29,18,-66,34c0,0,-36,16,-75,34c0,0,-39,18,-76,41c0,0,-36,23,-65,54c0,0,-29,32,-47,75c0,0,-17,44,-17,104c0,0,0,70,25,122c0,0,26,53,70,88c0,0,43,34,103,51c0,0,59,18,125,18c0,0,35,0,69,-6c0,0,34,-5,64,-14c0,0,30,-9,53,-20c0,0,23,-11,31,-18c0,0,7,-8,10,-13c0,0,3,-5,4,-14c0,0,2,-8,3,-21c0,0,1,-13,1,-33c0,0,0,-21,-1,-36c0,0,-1,-15,-4,-25c0,0,-3,-9,-7,-14c0,0,-5,-4,-14,-4c0,0,-8,0,-26,10c0,0,-18,10,-44,23c0,0,-26,12,-60,22c0,0,-34,10,-75,10c0,0,-32,0,-56,-8c0,0,-24,-8,-40,-21c0,0,-16,-14,-24,-34c0,0,-8,-19,-8,-41c0,0,0,-32,18,-56c0,0,17,-23,46,-42c0,0,30,-18,67,-34c0,0,38,-16,76,-34c0,0,39,-18,76,-41c0,0,38,-22,67,-54c0,0,29,-32,47,-75c0,0,18,-43,18,-101c0,0,0,-76,-29,-133c0,0,-28,-58,-77,-96C572,60,524,21,459,2c0,0,-65,-19,-139,-19Z" 
id="f0_2n"
transform="scale(0.001,-0.001)" />

<path d="M164,0c0,0,-25,0,-42,15c0,0,-16,14,-16,47V903c0,0,0,33,16,48c0,0,17,14,42,14H645c0,0,7,0,12,-4c0,0,5,-3,9,-13c0,0,4,-9,6,-24c0,0,2,-14,2,-36c0,0,0,-21,-2,-36c0,0,-2,-14,-6,-23c0,0,-4,-9,-9,-13c0,0,-5,-4,-12,-4H301V576H593c0,0,6,0,12,-4c0,0,6,-4,9,-13c0,0,4,-8,6,-23c0,0,2,-14,2,-35c0,0,0,-22,-2,-36c0,0,-2,-14,-6,-23c0,0,-3,-8,-9,-12c0,0,-6,-4,-12,-4H301V154H649c0,0,6,0,12,-5c0,0,5,-4,9,-13c0,0,4,-9,6,-23c0,0,2,-15,2,-36c0,0,0,-22,-2,-36c0,0,-2,-15,-6,-24c0,0,-4,-9,-9,-13c0,0,-6,-4,-12,-4Z" 
id="f0_t"
transform="scale(0.001,-0.001)" />

<path d="M79,297c0,0,-19,0,-27,18c0,0,-8,17,-8,60c0,0,0,41,8,59c0,0,8,17,27,17H389c0,0,9,0,15,-4c0,0,7,-4,11,-13c0,0,5,-9,7,-23c0,0,1,-15,1,-36c0,0,0,-43,-8,-61c0,0,-8,-17,-26,-17Z" 
id="f0_oj"
transform="scale(0.001,-0.001)" />

<path d="M121,-4c0,0,-39,0,-60,2C61,-2,39,0,32,8c0,0,-8,8,-3,24c0,0,4,15,18,41L279,495L64,892c0,0,-14,26,-19,42c0,0,-5,17,4,24c0,0,9,8,32,10c0,0,23,2,65,2c0,0,35,0,56,-2c0,0,20,-1,32,-4c0,0,12,-4,17,-10c0,0,5,-6,9,-15L431,620L595,939c0,0,5,9,10,15c0,0,5,6,16,10c0,0,10,3,29,4c0,0,19,2,53,2c0,0,37,0,59,-2c0,0,22,-2,30,-10c0,0,8,-8,4,-24c0,0,-4,-16,-17,-42L564,497L793,73c0,0,14,-26,18,-41c0,0,4,-16,-5,-24c0,0,-9,-8,-32,-10c0,0,-24,-2,-65,-2c0,0,-36,0,-56,2c0,0,-20,1,-31,3c0,0,-12,4,-17,10c0,0,-5,6,-9,15L414,374L233,26c0,0,-4,-9,-9,-15c0,0,-6,-6,-17,-10c0,0,-12,-2,-32,-3c0,0,-21,-2,-54,-2Z" 
id="f0_3e"
transform="scale(0.001,-0.001)" />

<path d="M204,-4c0,0,-28,0,-47,2c0,0,-19,2,-31,5c0,0,-11,4,-16,10c0,0,-4,6,-4,13V939c0,0,0,7,4,13c0,0,5,6,17,10c0,0,11,3,30,6c0,0,19,2,47,2c0,0,29,0,48,-2c0,0,18,-3,29,-6c0,0,11,-4,16,-10c0,0,5,-6,5,-13V26c0,0,0,-7,-5,-13c0,0,-5,-6,-16,-10c0,0,-11,-3,-29,-5c0,0,-19,-2,-48,-2Z" 
id="f0_1c"
transform="scale(0.001,-0.001)" />

<path d="M127,0c0,0,-16,0,-28,3C99,3,87,6,80,15c0,0,-8,8,-11,25c0,0,-3,16,-3,42c0,0,0,25,2,42c0,0,2,18,8,32c0,0,6,14,15,27c0,0,9,13,24,29L282,390c0,0,50,53,81,95c0,0,30,43,47,79c0,0,17,35,24,65c0,0,6,30,6,57c0,0,0,24,-8,46c0,0,-8,22,-23,39c0,0,-15,16,-38,25c0,0,-23,10,-55,10c0,0,-44,0,-78,-12c0,0,-33,-11,-59,-25c0,0,-26,-13,-43,-25c0,0,-17,-12,-27,-12c0,0,-7,0,-11,5c0,0,-5,4,-8,15c0,0,-3,10,-5,28c0,0,-2,17,-2,42c0,0,0,18,1,29c0,0,1,12,4,20c0,0,2,9,6,15c0,0,3,6,13,15c0,0,9,9,34,23c0,0,25,14,61,27c0,0,37,14,81,23c0,0,44,9,92,9c0,0,75,0,131,-19c0,0,57,-19,94,-53c0,0,37,-34,55,-81c0,0,19,-47,19,-100c0,0,0,-47,-9,-93c0,0,-9,-45,-37,-98c0,0,-29,-52,-80,-116c0,0,-52,-64,-136,-148L299,159H679c0,0,8,0,14,-4c0,0,6,-5,11,-14c0,0,4,-9,7,-25c0,0,2,-15,2,-36c0,0,0,-22,-2,-37c0,0,-2,-15,-6,-25c0,0,-3,-10,-9,-14c0,0,-6,-4,-14,-4Z" 
id="f0_rz"
transform="scale(0.001,-0.001)" />

<path d="M385,138c0,0,29,0,52,9c0,0,22,10,39,28c0,0,17,19,28,47c0,0,11,29,19,66c0,0,7,37,9,84c0,0,3,47,3,104c0,0,0,69,-4,122c0,0,-4,52,-11,91c0,0,-8,39,-20,66c0,0,-12,27,-28,43c0,0,-16,16,-37,22c0,0,-21,7,-47,7c0,0,-44,0,-73,-21c0,0,-28,-21,-45,-64c0,0,-17,-42,-24,-106c0,0,-6,-63,-6,-148c0,0,0,-103,8,-171c0,0,8,-67,26,-107c0,0,17,-40,45,-56c0,0,27,-16,66,-16ZM378,-17c0,0,-99,0,-164,33c0,0,-65,34,-103,98c0,0,-38,64,-54,156c0,0,-15,92,-15,209c0,0,0,115,19,208c0,0,19,94,61,160c0,0,42,65,110,101c0,0,68,35,165,35c0,0,99,0,164,-34c0,0,65,-34,103,-98c0,0,39,-64,53,-156c0,0,15,-92,15,-209c0,0,0,-115,-18,-209c0,0,-19,-93,-61,-159C653,118,611,53,543,17c0,0,-67,-34,-165,-34Z" 
id="f0_rx"
transform="scale(0.001,-0.001)" />

<path d="M142,0c0,0,-6,0,-12,4c0,0,-5,3,-9,12c0,0,-4,9,-6,23c0,0,-3,15,-3,36c0,0,0,21,2,36c0,0,2,14,6,23c0,0,4,9,10,13c0,0,5,5,12,5H322V779L166,693c0,0,-17,-8,-28,-10c0,0,-1,0,-3,0c-4,0,-10,1,-14,5c0,0,-6,6,-8,22c0,0,-2,15,-2,44c0,0,0,18,0,29c0,0,1,12,4,20c0,0,3,8,8,14c0,0,5,5,14,11L345,962c0,0,4,3,9,5c0,0,6,2,15,3c0,0,9,1,23,2c0,0,15,0,38,0c0,0,28,0,46,-1c0,0,17,-1,26,-4c0,0,9,-3,12,-7c0,0,3,-4,3,-11V152H675c0,0,7,0,12,-5c0,0,6,-4,10,-13c0,0,4,-9,6,-23c0,0,2,-15,2,-36c0,0,0,-21,-2,-36c0,0,-3,-14,-7,-23c0,0,-4,-9,-9,-12c0,0,-5,-4,-12,-4Z" 
id="f0_ry"
transform="scale(0.001,-0.001)" />

<path d="M439,356V801h-1L183,356ZM532,-4c0,0,-27,0,-45,2c0,0,-18,2,-29,5c0,0,-11,3,-15,9c0,0,-4,5,-4,13V199H70c0,0,-11,0,-19,3c0,0,-8,3,-14,12c0,0,-5,9,-8,27c0,0,-3,17,-3,46c0,0,0,24,2,42c0,0,1,17,3,31c0,0,3,15,8,27c0,0,5,13,12,27L351,944c0,0,4,7,13,11c0,0,9,5,25,9c0,0,16,3,40,4c0,0,25,2,60,2c0,0,38,0,65,-2c0,0,27,-2,43,-6c0,0,16,-4,23,-10c0,0,8,-6,8,-14V356h85c0,0,12,0,21,-18c0,0,8,-19,8,-61c0,0,0,-38,-8,-58c0,0,-7,-20,-21,-20H628V25c0,0,0,-8,-5,-13c0,0,-4,-6,-15,-9c0,0,-12,-3,-29,-5c0,0,-18,-2,-47,-2Z" 
id="f0_s1"
transform="scale(0.001,-0.001)" />

<path d="M589,371L453,782h-1L317,371ZM106,-4c0,0,-35,0,-54,2C52,-2,32,0,25,8c0,0,-7,9,-5,24c0,0,2,16,11,42L329,931c0,0,4,13,10,21c0,0,6,7,19,12c0,0,13,4,36,5c0,0,23,1,61,1c0,0,44,0,71,-1c0,0,26,-1,40,-5c0,0,15,-5,21,-13c0,0,6,-8,11,-22L896,73c0,0,9,-27,11,-43c0,0,3,-15,-6,-23c0,0,-8,-7,-29,-9c0,0,-21,-2,-57,-2c0,0,-38,0,-59,1c0,0,-22,1,-33,4c0,0,-11,3,-16,9c0,0,-4,6,-7,16L635,220H272L211,31c0,0,-2,-11,-7,-18c0,0,-5,-7,-16,-11c0,0,-11,-3,-31,-4c0,0,-19,-2,-51,-2Z" 
id="f0_5"
transform="scale(0.001,-0.001)" />

<path d="M198,-4c0,0,-27,0,-45,2c0,0,-18,2,-28,5c0,0,-11,4,-15,10c0,0,-4,6,-4,13V887c0,0,0,38,20,58c0,0,20,20,53,20H308c0,0,34,0,59,-6c0,0,24,-5,42,-18c0,0,18,-13,30,-35c0,0,12,-21,21,-52L669,279h3L889,852c0,0,9,32,21,53c0,0,11,22,27,35c0,0,15,14,36,19c0,0,21,6,48,6h132c0,0,21,0,35,-5c0,0,15,-5,24,-15c0,0,9,-11,14,-25c0,0,5,-15,5,-33V26c0,0,0,-7,-4,-13c0,0,-4,-6,-15,-10c0,0,-11,-3,-29,-5c0,0,-18,-2,-45,-2c0,0,-27,0,-45,2c0,0,-18,2,-28,5c0,0,-11,4,-15,10c0,0,-5,6,-5,13V813h-1L764,27c0,0,-3,-10,-10,-16c0,0,-6,-6,-18,-10c0,0,-12,-3,-29,-4c0,0,-18,-1,-44,-1c0,0,-25,0,-43,2c0,0,-18,2,-29,5c0,0,-12,4,-19,10c0,0,-6,6,-9,14L293,813h-2V26c0,0,0,-7,-4,-13c0,0,-4,-6,-15,-10c0,0,-11,-3,-29,-5c0,0,-17,-2,-45,-2Z" 
id="f0_1x"
transform="scale(0.001,-0.001)" />

<path d="M193,-4c0,0,-26,0,-43,2c0,0,-18,2,-27,6c0,0,-10,4,-14,10c0,0,-3,6,-3,13V895c0,0,0,35,20,53c0,0,21,17,50,17H282c0,0,28,0,47,-5c0,0,20,-5,35,-16c0,0,15,-11,29,-31c0,0,13,-20,27,-49L608,511c0,0,17,-32,33,-63c0,0,16,-31,31,-62c0,0,14,-31,29,-60c0,0,14,-30,27,-60h1c0,0,-2,52,-3,109c0,0,-1,57,-1,108V936c0,0,0,7,4,13c0,0,5,6,15,11c0,0,10,4,28,6c0,0,17,2,44,2c0,0,25,0,42,-2c0,0,17,-2,27,-6c0,0,9,-5,13,-11c0,0,4,-6,4,-13V68c0,0,0,-17,-6,-30c0,0,-6,-14,-17,-23C879,15,869,6,856,2c0,0,-14,-3,-28,-3H744c0,0,-26,0,-45,4c0,0,-19,5,-35,19c0,0,-16,14,-31,38c0,0,-15,23,-34,60L359,572c0,0,-21,40,-43,86c0,0,-21,47,-38,91h-2c0,0,3,-54,5,-107c0,0,2,-53,2,-110V27c0,0,0,-7,-5,-13c0,0,-4,-6,-14,-10c0,0,-10,-4,-27,-6c0,0,-17,-2,-44,-2Z" 
id="f0_1y"
transform="scale(0.001,-0.001)" />

<path d="M378,-4c0,0,-28,0,-47,2c0,0,-19,2,-31,5c0,0,-11,4,-16,10c0,0,-4,6,-4,13V805H38c0,0,-8,0,-13,4c0,0,-5,5,-9,14c0,0,-3,9,-5,25c0,0,-2,15,-2,37c0,0,0,22,2,38c0,0,2,15,5,25c0,0,4,9,9,13c0,0,5,4,13,4H718c0,0,7,0,12,-4c0,0,6,-4,10,-13c0,0,3,-10,5,-25c0,0,2,-16,2,-38c0,0,0,-22,-2,-37c0,0,-2,-16,-5,-25c0,0,-4,-9,-10,-14c0,0,-5,-4,-12,-4H476V26c0,0,0,-7,-5,-13c0,0,-5,-6,-16,-10c0,0,-11,-3,-30,-5c0,0,-19,-2,-47,-2Z" 
id="f0_2t"
transform="scale(0.001,-0.001)" />

<path d="M514,145c0,0,72,0,121,27c0,0,48,26,78,73c0,0,30,46,42,107c0,0,13,62,13,131c0,0,0,76,-12,139c0,0,-12,62,-41,106c0,0,-29,45,-76,69c0,0,-48,24,-120,24c0,0,-72,0,-120,-27c0,0,-49,-27,-79,-73c0,0,-29,-45,-42,-106c0,0,-12,-61,-12,-129c0,0,0,-79,12,-142c0,0,12,-63,40,-108c0,0,28,-44,76,-68c0,0,48,-23,120,-23ZM508,-17c0,0,-113,0,-196,29c0,0,-84,29,-140,90c0,0,-56,60,-84,154c0,0,-28,93,-28,221c0,0,0,117,29,210c0,0,30,94,89,160c0,0,59,65,146,101c0,0,87,35,202,35c0,0,110,0,194,-29c0,0,84,-30,140,-90c0,0,56,-60,85,-153c0,0,29,-92,29,-217c0,0,0,-120,-30,-215c0,0,-30,-95,-89,-161C855,118,796,52,709,17c0,0,-87,-34,-201,-34Z" 
id="f0_24"
transform="scale(0.001,-0.001)" />

<path d="M75,0L400,413c0,0,71,91,101,149c0,0,30,58,30,109c0,0,0,55,-36,91c0,0,-36,36,-91,36c0,0,-63,0,-91,-45c0,0,-28,-46,-34,-142H67c0,0,0,173,102,268c0,0,102,95,253,95c0,0,140,0,229,-82c0,0,89,-82,89,-209c0,0,0,-125,-104,-276L580,324c0,0,-34,-50,-85,-114L468,178H740V0Z" 
id="f1_m"
transform="scale(0.001,-0.001)" />

<path d="M44,-281L425,1053H537L156,-281Z" 
id="f1_j"
transform="scale(0.001,-0.001)" />

<path d="M404,-11c0,0,-136,0,-225,76c0,0,-90,78,-111,215H265c0,0,35,-136,135,-136c0,0,50,0,85,35c0,0,34,36,34,88c0,0,0,64,-41,105c0,0,-42,41,-107,41H336V573h21c0,0,68,0,109,33c0,0,41,34,41,89c0,0,0,50,-32,85c0,0,-32,35,-79,35c0,0,-110,0,-127,-135H76c0,0,9,130,96,209c0,0,87,79,208,79c0,0,134,0,227,-76c0,0,94,-75,94,-182c0,0,0,-116,-115,-210c0,0,73,-46,107,-96c0,0,34,-51,34,-121c0,0,0,-134,-88,-214c0,0,-89,-80,-235,-80Z" 
id="f1_n"
transform="scale(0.001,-0.001)" />

<path d="M608,-14c0,0,-251,0,-392,133C216,119,75,252,75,488c0,0,0,257,134,390c0,0,135,133,398,133c0,0,174,0,361,-50l4,-240H905L884,866c0,0,-98,67,-229,67c0,0,-173,0,-253,-108c0,0,-80,-108,-80,-334c0,0,0,-209,84,-319c0,0,83,-109,243,-109c0,0,84,0,147,22c0,0,63,22,99,53l24,164h68L982,48C982,48,915,22,808,4C808,4,700,-14,608,-14Z" 
id="f2_13"
transform="scale(0.001,-0.001)" />

<path d="M379,60c0,0,59,0,84,64c0,0,24,65,24,231c0,0,0,164,-24,227c0,0,-24,63,-84,63c0,0,-57,0,-80,-60c0,0,-22,-61,-22,-230c0,0,0,-173,23,-234c0,0,22,-61,79,-61Zm-2,-74c0,0,-161,0,-240,91c0,0,-79,91,-79,277c0,0,0,186,80,276c0,0,81,90,245,90c0,0,167,0,245,-93c0,0,78,-93,78,-273c0,0,0,-188,-81,-278c0,0,-81,-90,-248,-90Z" 
id="f2_2b"
transform="scale(0.001,-0.001)" />

<path d="M41,0V49l69,18V634L41,652v49H313l11,-61l50,26c0,0,105,54,188,54c0,0,194,0,194,-207V67L827,49V0H478V49l63,18V484c0,0,0,63,-27,98c0,0,-26,35,-75,35c0,0,-57,0,-114,-25V67L389,49V0Z" 
id="f2_2a"
transform="scale(0.001,-0.001)" />

<path d="M276,-14c0,0,-57,0,-125,13C151,-1,83,10,48,23V214H97l28,-98c0,0,26,-26,69,-44c0,0,42,-17,86,-17c0,0,65,0,97,28c0,0,32,28,32,71c0,0,0,41,-31,65c0,0,-30,25,-133,57c0,0,-108,34,-154,92c0,0,-45,58,-45,143c0,0,0,95,71,152c0,0,71,57,183,57c0,0,77,0,207,-22V518H457l-24,82c0,0,-21,22,-60,35c0,0,-40,14,-75,14c0,0,-53,0,-79,-22c0,0,-26,-22,-26,-59c0,0,0,-40,32,-65c0,0,32,-26,132,-55c0,0,109,-34,155,-89c0,0,45,-55,45,-137c0,0,0,-117,-72,-177c0,0,-72,-59,-209,-59Z" 
id="f2_2f"
transform="scale(0.001,-0.001)" />

<path d="M327,-14c0,0,-101,0,-156,45c0,0,-55,45,-55,131V624H25v48l108,29l87,159H332V701H480V624H332V176c0,0,0,-49,20,-73c0,0,20,-25,53,-25c0,0,40,0,97,12V26c0,0,-22,-15,-76,-27c0,0,-55,-13,-99,-13Z" 
id="f2_2g"
transform="scale(0.001,-0.001)" />

<path d="M41,0V49l91,18V634L41,652v49H336l8,-145c0,0,80,89,144,128c0,0,64,40,117,40h40V468H604l-45,94c0,0,-47,0,-106,-21c0,0,-60,-20,-105,-48V67L460,49V0Z" 
id="f2_2e"
transform="scale(0.001,-0.001)" />

<path d="M287,-18c0,0,-194,0,-194,206V634L23,652v49H309V217c0,0,0,-63,26,-98c0,0,27,-35,76,-35c0,0,57,0,113,25V634l-64,18v49H740V67L809,49V0H536L526,61L475,35c0,0,-104,-53,-188,-53Z" 
id="f2_2h"
transform="scale(0.001,-0.001)" />

<path d="M425,-14c0,0,-187,0,-280,90c0,0,-93,90,-93,276c0,0,0,115,42,198c0,0,43,82,121,126c0,0,78,44,182,44c0,0,104,0,227,-26V486H571L539,609c0,0,-25,19,-50,26c0,0,-24,7,-65,7c0,0,-44,0,-79,-35c0,0,-36,-35,-56,-98c0,0,-20,-64,-20,-153c0,0,0,-150,47,-214c0,0,47,-64,148,-64c0,0,103,0,176,21V42C640,42,606,15,547,0c0,0,-59,-14,-122,-14Z" 
id="f2_1z"
transform="scale(0.001,-0.001)" />

<path d="M34,0V49l76,18V634L38,652v49H325V67L402,49V0ZM217,831c0,0,-48,0,-81,33c0,0,-34,33,-34,82c0,0,0,48,34,81c0,0,34,33,81,33c0,0,48,0,81,-33c0,0,33,-33,33,-81c0,0,0,-47,-33,-81c0,0,-32,-34,-81,-34Z" 
id="f2_25"
transform="scale(0.001,-0.001)" />

<path d="M248,-20c0,0,-52,0,-87,34c0,0,-36,36,-36,88c0,0,0,52,36,88c0,0,35,36,87,36c0,0,52,0,88,-36c0,0,36,-36,36,-88c0,0,0,-51,-36,-87c0,0,-35,-35,-88,-35Zm0,488c0,0,-52,0,-87,36c0,0,-36,36,-36,88c0,0,0,52,35,88c0,0,35,36,88,36c0,0,53,0,89,-36c0,0,35,-37,35,-88c0,0,0,-51,-36,-87c0,0,-35,-37,-88,-37Z" 
id="f2_u"
transform="scale(0.001,-0.001)" />

<path d="M235,0V40L394,60V936H356c0,0,-189,0,-258,-15L78,766H28v234H908V766H857L837,921c0,0,-22,5,-98,9c0,0,-75,4,-165,4H538V60L697,40V0Z" 
id="f3_1k"
transform="scale(0.001,-0.001)" />

<path d="M442,0V33l93,19V504c0,0,0,129,-124,129c0,0,-70,0,-168,-22V52L338,33V0H31V33l88,19v956L15,1026v34H243V756c0,0,0,-77,-5,-112c0,0,54,31,122,53c0,0,68,23,115,23c0,0,91,0,137,-53c0,0,47,-53,47,-154V52L744,33V0Z" 
id="f3_24"
transform="scale(0.001,-0.001)" />

<path d="M495,413c0,0,0,133,-34,190c0,0,-34,57,-105,57c0,0,-78,0,-119,-63c0,0,-42,-62,-42,-184ZM374,-14c0,0,-163,0,-239,87c0,0,-75,88,-75,283c0,0,0,183,77,273c0,0,76,91,219,91c0,0,269,0,269,-306V353H194V340c0,0,0,-103,23,-160c0,0,22,-57,70,-87c0,0,47,-29,124,-29c0,0,40,0,96,6c0,0,55,7,91,15V43C598,43,562,20,500,3c0,0,-61,-17,-126,-17Z" 
id="f3_21"
transform="scale(0.001,-0.001)" />

<path d="M399,-14c0,0,-341,0,-341,370c0,0,0,175,87,269c0,0,87,95,249,95c0,0,101,0,220,-23V501H573L541,625c0,0,-62,35,-149,35c0,0,-200,0,-200,-304c0,0,0,-158,61,-225c0,0,61,-67,189,-67c0,0,109,0,189,24V43C631,43,595,16,530,1c0,0,-64,-15,-131,-15Z" 
id="f3_1z"
transform="scale(0.001,-0.001)" />

<path d="M148,-329c0,0,-58,0,-114,13v151H69l24,-71c0,0,23,-17,64,-17c0,0,39,0,72,22c0,0,33,23,60,67c0,0,27,44,68,157L90,649L19,668v33H344V668L233,648L423,158L606,649L497,668v33H758V668L685,652L411,-43c0,0,-48,-124,-84,-177c0,0,-36,-54,-79,-82c0,0,-44,-27,-100,-27Z" 
id="f3_2l"
transform="scale(0.001,-0.001)" />

<path d="M31,0V33L150,52v956L31,1026v34H274V52L394,33V0Z" 
id="f3_28"
transform="scale(0.001,-0.001)" />

<path d="M377,45c0,0,99,0,147,73c0,0,47,73,47,237c0,0,0,161,-47,233c0,0,-47,72,-147,72c0,0,-97,0,-141,-69c0,0,-44,-69,-44,-236c0,0,0,-169,45,-240c0,0,44,-70,140,-70Zm0,-59c0,0,-158,0,-238,94c0,0,-81,95,-81,274c0,0,0,178,81,272c0,0,80,94,244,94c0,0,160,0,241,-92c0,0,82,-92,82,-274c0,0,0,-368,-329,-368Z" 
id="f3_2b"
transform="scale(0.001,-0.001)" />

<path d="M249,-14c0,0,-71,0,-107,42c0,0,-35,42,-35,119V639H15v33l93,29l76,159h47V701H391V639H231V161c0,0,0,-48,22,-73c0,0,22,-24,57,-24c0,0,44,0,106,12V26C416,26,389,8,340,-2c0,0,-49,-12,-91,-12Z" 
id="f3_2g"
transform="scale(0.001,-0.001)" />

<path d="M31,0V33l88,19V649L31,668v33H235l7,-87c0,0,44,37,121,71c0,0,76,35,121,35h11V530H463l-43,82c0,0,-37,0,-88,-10c0,0,-52,-10,-89,-26V52L363,33V0Z" 
id="f3_2e"
transform="scale(0.001,-0.001)" />

<path d="M439,0V33l93,19V500c0,0,0,62,-30,97c0,0,-31,36,-94,36c0,0,-67,0,-165,-22V52L338,33V0H35V33l84,19V649L35,668v33H235l7,-57c0,0,57,33,122,54c0,0,65,22,108,22c0,0,91,0,137,-53c0,0,47,-53,47,-154V52L741,33V0Z" 
id="f3_2a"
transform="scale(0.001,-0.001)" />

<path d="M32,0V33L151,52V649L52,668v33H275V52L395,33V0ZM201,850c0,0,-32,0,-56,24c0,0,-24,24,-24,56c0,0,0,34,24,58c0,0,24,24,56,24c0,0,34,0,58,-24c0,0,24,-24,24,-58c0,0,0,-32,-24,-56c0,0,-24,-24,-58,-24Z" 
id="f3_25"
transform="scale(0.001,-0.001)" />

<path d="M278,-14c0,0,-52,0,-115,11c0,0,-63,10,-99,23V193H98L134,95c0,0,56,-50,146,-50c0,0,144,0,144,123c0,0,0,91,-114,130l-66,21c0,0,-75,25,-110,50c0,0,-34,26,-53,63c0,0,-18,36,-18,89c0,0,0,92,63,145c0,0,63,54,170,54c0,0,77,0,193,-23V544H454l-32,81c0,0,-39,35,-124,35c0,0,-61,0,-92,-30c0,0,-32,-30,-32,-80c0,0,0,-43,29,-72c0,0,28,-29,86,-48c0,0,110,-38,144,-55c0,0,33,-17,57,-42c0,0,23,-25,36,-57c0,0,13,-32,13,-79c0,0,0,-104,-66,-158c0,0,-66,-53,-195,-53Z" 
id="f3_2f"
transform="scale(0.001,-0.001)" />

<path d="M431,0V33L535,52V499c0,0,0,62,-32,96c0,0,-32,33,-95,33c0,0,-66,0,-163,-22V52L350,33V0H32V33l89,19V649L32,668v33H237l6,-57c0,0,56,32,119,54c0,0,62,22,110,22c0,0,52,0,95,-20c0,0,44,-19,66,-62c0,0,57,32,134,57c0,0,77,25,128,25c0,0,179,0,179,-207V52l90,-19V0H846V33L950,52V499c0,0,0,129,-119,129c0,0,-19,0,-45,-3c0,0,-26,-3,-52,-7c0,0,-25,-4,-49,-8c0,0,-23,-5,-39,-8c0,0,13,-41,13,-89V52L764,33V0Z" 
id="f3_29"
transform="scale(0.001,-0.001)" />

<path d="M284,67c0,0,51,0,88,12c0,0,37,12,74,30V358l-98,-3c0,0,-100,-4,-135,-39c0,0,-35,-35,-35,-117c0,0,0,-132,106,-132ZM233,-14c0,0,-179,0,-179,208c0,0,0,70,27,116c0,0,27,46,87,70c0,0,60,24,173,27l105,3V519c0,0,0,72,-26,107c0,0,-27,34,-82,34c0,0,-75,0,-137,-35L176,538H134V691c0,0,121,26,213,26c0,0,115,0,169,-47c0,0,54,-47,54,-144V52L657,33V0H465L451,70c0,0,-85,-84,-218,-84Z" 
id="f3_1x"
transform="scale(0.001,-0.001)" />

<path d="M383,64c0,0,85,0,152,28V645c0,0,-67,13,-152,13c0,0,-194,0,-194,-314c0,0,0,-141,48,-211c0,0,48,-69,146,-69ZM342,-14c0,0,-287,0,-287,358c0,0,0,184,82,280c0,0,81,96,239,96c0,0,81,0,163,-18c0,0,-4,25,-4,124v182l-118,18v34H659V52L745,33V0H548l-9,52c0,0,-84,-66,-197,-66Z" 
id="f3_20"
transform="scale(0.001,-0.001)" />

<path d="M289,-14c0,0,-179,0,-179,205V649L20,668v33H233V200c0,0,0,-128,120,-128c0,0,92,0,173,23V649L420,668v33H649V52L738,33V0H533l-6,57C527,57,474,28,405,7c0,0,-69,-21,-116,-21Z" 
id="f3_2h"
transform="scale(0.001,-0.001)" />

<path d="M382,45c0,0,188,0,188,314c0,0,0,143,-47,213c0,0,-46,69,-141,69c0,0,-87,0,-146,-24V58c0,0,67,-13,146,-13ZM25,-325v35l88,18V649L34,668v33H231l1,-41c0,0,31,27,84,43c0,0,53,17,107,17c0,0,134,0,208,-94c0,0,73,-93,73,-267c0,0,0,-178,-80,-276c0,0,-80,-97,-232,-97c0,0,-84,0,-160,16c0,0,4,-53,4,-84V-272l123,-18v-35Z" 
id="f3_2c"
transform="scale(0.001,-0.001)" />

<path d="M64,0V34L168,59V639H47v36l121,29v49c0,0,0,155,61,239c0,0,62,84,173,84c0,0,58,0,107,-15V908H472l-33,92c0,0,-26,16,-62,16c0,0,-47,0,-66,-42c0,0,-19,-42,-19,-157V701H478V639H292V59L443,34V0Z" 
id="f3_22"
transform="scale(0.001,-0.001)" />

<path d="M327,-14L84,649L1,668v33H335V668L219,648L385,174L554,632h63L786,171L944,649L830,668v33h267V668l-78,-16L784,-14H726L553,448L382,-14Z" 
id="f3_2j"
transform="scale(0.001,-0.001)" />

<path d="M57,302V417H454V302Z" 
id="f3_h"
transform="scale(0.001,-0.001)" />

<path d="M477,0V33l64,19L348,354L257,254V52L331,33V0H44V33l89,19v956L29,1026v34H257V338L544,647l-73,20v34H718V667L631,650L431,446L688,50L764,33V0Z" 
id="f3_27"
transform="scale(0.001,-0.001)" />

<path d="M58,-234v58c0,0,131,42,131,125c0,0,0,15,-11,27c0,0,-11,12,-38,25C140,1,89,27,89,75c0,0,0,40,25,61c0,0,26,21,65,21c0,0,48,0,77,-34c0,0,30,-34,30,-86c0,0,0,-101,-60,-170c0,0,-59,-69,-168,-101Z" 
id="f3_g"
transform="scale(0.001,-0.001)" />

<path d="M529,65c0,0,183,0,270,108c0,0,87,108,87,334c0,0,0,210,-113,318c0,0,-113,108,-322,108H316V71c0,0,90,-6,213,-6Zm0,-67L172,0H44V40L172,60V941L44,960v40H498c0,0,277,0,411,-123c0,0,133,-124,133,-371c0,0,0,-251,-129,-380C913,126,785,-2,529,-2Z" 
id="f3_14"
transform="scale(0.001,-0.001)" />

<path d="M134,0V40L339,60V876L137,804v39l292,166h39V60L672,40V0Z" 
id="f3_l"
transform="scale(0.001,-0.001)" />

<path d="M67,0V109L206,235c0,0,133,118,196,190c0,0,63,72,90,149c0,0,27,77,27,177c0,0,0,97,-44,148c0,0,-44,50,-144,50c0,0,-39,0,-81,-10c0,0,-42,-11,-74,-29L150,787H101V980c0,0,135,32,230,32c0,0,164,0,247,-68c0,0,82,-69,82,-193c0,0,0,-84,-32,-158c0,0,-33,-75,-100,-148c0,0,-67,-74,-222,-206c0,0,-67,-57,-141,-125H680V0Z" 
id="f3_m"
transform="scale(0.001,-0.001)" />

<path d="M191,-20c0,0,-39,0,-65,25c0,0,-25,27,-25,64c0,0,0,38,26,64c0,0,26,26,64,26c0,0,38,0,64,-26c0,0,26,-26,26,-64c0,0,0,-37,-25,-64c0,0,-26,-25,-65,-25Z" 
id="f3_i"
transform="scale(0.001,-0.001)" />

<path d="M55,0V40L184,60V941L55,960v40H455V960L327,941V60L455,40V0Z" 
id="f3_19"
transform="scale(0.001,-0.001)" />

<path d="M359,-270c0,0,124,0,192,46c0,0,67,47,67,129c0,0,0,43,-26,67c0,0,-26,24,-79,24H242c0,0,-32,-27,-51,-69c0,0,-20,-41,-20,-77c0,0,0,-64,46,-92c0,0,46,-28,142,-28Zm11,561c0,0,81,0,115,47c0,0,34,47,34,141c0,0,0,100,-35,142c0,0,-35,42,-113,42c0,0,-78,0,-114,-43c0,0,-37,-42,-37,-141c0,0,0,-98,36,-143c0,0,36,-45,114,-45ZM359,-329c0,0,-143,0,-218,44c0,0,-75,43,-75,125c0,0,0,39,27,78c0,0,26,38,98,89c0,0,-43,14,-72,48c0,0,-29,35,-29,74L208,262c0,0,-118,55,-118,217c0,0,0,115,73,178c0,0,73,63,211,63c0,0,28,0,71,-6c0,0,44,-6,67,-13l165,83l26,-32L599,644c0,0,50,-56,50,-165c0,0,0,-120,-72,-182c0,0,-73,-62,-208,-62c0,0,-62,0,-114,11L208,148c0,0,2,-13,29,-24c0,0,27,-12,67,-12H512c0,0,113,0,168,-49c0,0,55,-49,55,-134c0,0,0,-79,-44,-137c0,0,-43,-58,-128,-90c0,0,-84,-31,-204,-31Z" 
id="f3_23"
transform="scale(0.001,-0.001)" />

<path d="M360,-14L72,649L0,668v33H327V668L216,648L420,164L615,649L504,668v33H764V668L697,652L416,-14Z" 
id="f3_2i"
transform="scale(0.001,-0.001)" />

<path d="M376,50c0,0,103,0,149,80c0,0,46,81,46,240c0,0,0,137,-47,204c0,0,-48,67,-148,67c0,0,-44,0,-87,-7c0,0,-44,-8,-63,-17V62c0,0,63,-12,150,-12Zm3,-64c0,0,-64,0,-141,14c0,0,-78,14,-136,37v971L0,1026v34H226V809c0,0,0,-40,-4,-148c0,0,74,59,188,59c0,0,143,0,219,-87c0,0,77,-87,77,-263c0,0,0,-189,-84,-287c0,0,-84,-97,-243,-97Z" 
id="f3_1y"
transform="scale(0.001,-0.001)" />

<path d="M64,-325c0,0,-46,0,-107,14v148H-8l19,-81c0,0,25,-21,62,-21c0,0,44,0,67,47c0,0,22,47,22,152V649L57,668v33H286V-28c0,0,0,-146,-57,-221c0,0,-56,-76,-165,-76ZM213,850c0,0,-34,0,-58,24c0,0,-24,24,-24,56c0,0,0,34,24,58c0,0,24,24,58,24c0,0,32,0,56,-24c0,0,24,-24,24,-58c0,0,0,-32,-24,-56c0,0,-24,-24,-56,-24Z" 
id="f3_26"
transform="scale(0.001,-0.001)" />

<path d="M383,64c0,0,44,0,87,7c0,0,43,7,65,17V645c0,0,-67,13,-152,13c0,0,-194,0,-194,-309c0,0,0,-143,48,-214c0,0,47,-71,146,-71Zm56,-389v35l96,18V-77c0,0,0,73,7,124c0,0,-79,-61,-200,-61c0,0,-287,0,-287,362c0,0,0,180,81,276c0,0,81,96,237,96c0,0,84,0,166,-18l67,33h53V-272l77,-18v-35Z" 
id="f3_2d"
transform="scale(0.001,-0.001)" />

<path d="M113,-203V1060H454v-50L302,980V-123l152,-31v-49Z" 
id="f2_1r"
transform="scale(0.001,-0.001)" />

<path d="M868,0L251,804V74L385,54V0H29V54L157,74V926L29,945v55H371L862,361V926L727,945v55h356V945L955,926V0Z" 
id="f2_1e"
transform="scale(0.001,-0.001)" />

<path d="M434,423c0,0,0,101,-7,142c0,0,-6,40,-22,60c0,0,-16,19,-45,19c0,0,-44,0,-66,-48c0,0,-22,-49,-22,-173ZM389,-14c0,0,-172,0,-254,89c0,0,-83,90,-83,279c0,0,0,184,79,274c0,0,79,91,238,91c0,0,142,0,206,-76c0,0,64,-76,64,-237V345H271V333c0,0,0,-111,18,-158c0,0,18,-47,58,-72c0,0,40,-25,110,-25c0,0,66,0,166,22V42C623,42,582,18,517,1c0,0,-66,-15,-128,-15Z" 
id="f2_21"
transform="scale(0.001,-0.001)" />

<path d="M681,416L504,902L333,416ZM669,0V40L803,60L704,348H310L210,60L344,40V0H15V40L128,60l341,949H611L965,60L1092,40V0Z" 
id="f3_11"
transform="scale(0.001,-0.001)" />

<path d="M55,-203v35l222,30V994L55,1025v35H395V-203Z" 
id="f3_1t"
transform="scale(0.001,-0.001)" />

<path d="M440,-22L109,926L22,945v55H471V945L354,926L567,330L801,915h93L1129,332l177,594l-126,19v55h324V945l-87,-19L1120,-22h-92L779,594L532,-22Z" 
id="f2_1n"
transform="scale(0.001,-0.001)" />

<path d="M43,0V49l67,18V992l-72,18v50H325V336L599,635l-75,17v49H791V652L711,636L544,460L785,67L847,50V0H510V50l41,17L411,313L325,253V67L395,49V0Z" 
id="f2_27"
transform="scale(0.001,-0.001)" />

<path d="M360,-256c0,0,108,0,167,35c0,0,59,35,59,98c0,0,0,70,-95,70H254c0,0,-65,-47,-65,-108c0,0,0,-47,46,-71c0,0,45,-24,125,-24Zm9,561c0,0,55,0,79,43c0,0,25,43,25,129c0,0,0,87,-24,127c0,0,-25,41,-80,41c0,0,-52,0,-75,-41c0,0,-24,-40,-24,-127c0,0,0,-86,23,-129c0,0,23,-43,76,-43Zm-9,-641c0,0,-153,0,-236,43c0,0,-84,44,-84,120c0,0,0,33,28,65c0,0,27,31,105,76c0,0,-44,17,-75,59c0,0,-31,43,-31,90L192,258c0,0,-133,56,-133,219c0,0,0,116,81,180c0,0,82,63,233,63c0,0,32,0,82,-6c0,0,51,-6,74,-13l168,83l26,-32L638,631c0,0,46,-57,46,-154c0,0,0,-119,-80,-182c0,0,-80,-64,-234,-64c0,0,-59,0,-114,9L238,183c0,0,1,-22,28,-41c0,0,26,-19,64,-19H493c0,0,256,0,256,-196c0,0,0,-81,-44,-139c0,0,-45,-59,-131,-92c0,0,-86,-32,-214,-32Z" 
id="f2_23"
transform="scale(0.001,-0.001)" />

<path d="M13,0V34L95,46L325,350L122,649L40,668v33H357V668L264,648L399,446L554,649l-96,19v33H710V668L630,652L433,397L663,50L745,34V0H427V34l94,17L359,299L169,50L266,34V0Z" 
id="f3_2k"
transform="scale(0.001,-0.001)" />

<path d="M551,45c0,0,171,0,252,108c0,0,82,108,82,349c0,0,0,239,-81,344c0,0,-81,105,-253,105c0,0,-172,0,-252,-105c0,0,-80,-105,-80,-344c0,0,0,-241,80,-349c0,0,81,-108,252,-108Zm0,-59c0,0,-238,0,-363,129C188,115,63,245,63,501c0,0,0,510,488,510c0,0,242,0,366,-129c0,0,124,-130,124,-381c0,0,0,-255,-126,-385C915,116,790,-14,551,-14Z" 
id="f3_1f"
transform="scale(0.001,-0.001)" />

<path d="M448,506c0,0,134,0,190,49c0,0,57,50,57,168c0,0,0,114,-56,162c0,0,-56,48,-195,48H316V506ZM777,0L496,438H316V60L468,40V0H54V40L172,60V941L44,960v40H476c0,0,188,0,277,-63c0,0,90,-64,90,-204c0,0,0,-100,-54,-173c0,0,-55,-73,-151,-101L909,60L1017,40V0Z" 
id="f3_1i"
transform="scale(0.001,-0.001)" />

<path d="M460,-325c0,0,-148,79,-231,172c0,0,-84,93,-123,217c0,0,-39,126,-39,304c0,0,0,178,39,303c0,0,39,125,122,217c0,0,82,93,232,172V997c0,0,-91,-52,-145,-134c0,0,-54,-81,-79,-190c0,0,-25,-109,-25,-305c0,0,0,-194,26,-309c0,0,26,-114,82,-193c0,0,56,-79,141,-128v-63Z" 
id="f3_c"
transform="scale(0.001,-0.001)" />

<path d="M49,-325v63c0,0,85,49,140,128c0,0,56,79,83,194c0,0,26,115,26,308c0,0,0,196,-25,305c0,0,-25,109,-79,190c0,0,-54,82,-145,134v63c0,0,149,-80,232,-172c0,0,83,-92,122,-217c0,0,39,-125,39,-303c0,0,0,-177,-39,-303c0,0,-39,-125,-122,-217c0,0,-83,-93,-232,-173Z" 
id="f3_d"
transform="scale(0.001,-0.001)" />

<path d="M44,0V40L172,60V941L44,960v40H471V960L316,941V65H513c0,0,159,0,234,14l46,208h48L828,0Z" 
id="f3_1c"
transform="scale(0.001,-0.001)" />

<path d="M394,460c0,0,126,0,186,57c0,0,60,57,60,187c0,0,0,123,-57,176c0,0,-58,53,-194,53H316V460ZM54,0V40L172,60V941L44,960v40H421c0,0,368,0,368,-295c0,0,0,-153,-93,-233c0,0,-93,-80,-267,-80H316V60L475,40V0Z" 
id="f3_1g"
transform="scale(0.001,-0.001)" />

<path d="M577,-14c0,0,-243,0,-379,132C198,118,63,250,63,488c0,0,0,258,130,391c0,0,131,132,387,132c0,0,156,0,335,-38l5,-218H871L848,884c0,0,-52,32,-121,50c0,0,-69,17,-141,17c0,0,-191,0,-279,-112c0,0,-88,-113,-88,-349c0,0,0,-217,92,-332c0,0,92,-115,268,-115c0,0,85,0,160,20c0,0,76,21,120,55l27,149h49L930,32c0,0,-164,-46,-353,-46Z" 
id="f3_13"
transform="scale(0.001,-0.001)" />


</defs>
</svg>