<?xml version="1.0" encoding="UTF-8" standalone="no"?>
<!DOCTYPE svg PUBLIC "-//W3C//DTD SVG 1.1//EN"
"http://www.w3.org/Graphics/SVG/1.1/DTD/svg11.dtd">
<svg viewBox="0 0 909 1286" version="1.1" xmlns="http://www.w3.org/2000/svg" xmlns:xlink="http://www.w3.org/1999/xlink">
<defs>
<clipPath id="c0_101"><path d="M764.5,824.6v-22h14.8v22Z" /></clipPath>
<clipPath id="c1_101"><path d="M213.8,864.4V844.7h14.8v19.7Z" /></clipPath>
<clipPath id="c2_101"><path d="M213.8,887.2v-22h14.8v22Z" /></clipPath>
<style type="text/css"><![CDATA[
.g0_101{
fill: none;
stroke: #000000;
stroke-width: 0.81125;
stroke-linecap: round;
stroke-linejoin: round;
}
.g1_101{
fill: none;
stroke: #000000;
stroke-width: 0.81430554;
stroke-linecap: round;
stroke-linejoin: round;
}
]]></style>
</defs>
<g fill="#000000" >
<use xlink:href="#f0_6" transform="matrix(12,0,0,12,443.8,1140.7)" />
<use xlink:href="#f0_b" transform="matrix(12,0,0,12,454.6,1140.7)" />
<use xlink:href="#f0_a" transform="matrix(12,0,0,12,86.5,1140.7)" />
<use xlink:href="#f0_a" transform="matrix(12,0,0,12,96.6,1140.7)" />
<use xlink:href="#f1_8" transform="matrix(12,0,0,12,106.7,1140.7)" />
<use xlink:href="#f0_6" transform="matrix(12,0,0,12,111.5,1140.7)" />
<use xlink:href="#f1_8" transform="matrix(12,0,0,12,121.6,1140.7)" />
<use xlink:href="#f0_l" transform="matrix(12,0,0,12,126.2,1140.7)" />
<use xlink:href="#f1_3" transform="matrix(12,0,0,12,129.7,162.2)" />
<use xlink:href="#f1_19" transform="matrix(12,0,0,12,135.5,162.2)" />
<use xlink:href="#f1_4" transform="matrix(12,0,0,12,145.3,162.2)" />
<use xlink:href="#f1_17" transform="matrix(12,0,0,12,173,162.2)" />
<use xlink:href="#f1_1g" transform="matrix(12,0,0,12,191,162.2)" />
<use xlink:href="#f1_1x" transform="matrix(12,0,0,12,202.2,162.2)" />
<use xlink:href="#f1_1c" transform="matrix(12,0,0,12,217.7,162.2)" />
<use xlink:href="#f1_1n" transform="matrix(12,0,0,12,228.3,162.2)" />
<use xlink:href="#f1_1d" transform="matrix(12,0,0,12,237.4,162.2)" />
<use xlink:href="#f1_1r" transform="matrix(12,0,0,12,246.6,162.2)" />
<use xlink:href="#f1_1t" transform="matrix(12,0,0,12,260.7,162.2)" />
<use xlink:href="#f1_1m" transform="matrix(12,0,0,12,271.9,162.2)" />
<use xlink:href="#f1_1o" transform="matrix(12,0,0,12,283,162.2)" />
<use xlink:href="#f1_1n" transform="matrix(12,0,0,12,293.6,162.2)" />
<use xlink:href="#f1_1k" transform="matrix(12,0,0,12,302.8,162.2)" />
<use xlink:href="#f1_19" transform="matrix(12,0,0,12,308.6,162.2)" />
<use xlink:href="#f1_1q" transform="matrix(12,0,0,12,318.8,162.2)" />
<use xlink:href="#f1_1h" transform="matrix(12,0,0,12,326.9,162.2)" />
<use xlink:href="#f1_1r" transform="matrix(12,0,0,12,332.7,162.2)" />
<use xlink:href="#f1_1d" transform="matrix(12,0,0,12,341.2,162.2)" />
<use xlink:href="#f1_1c" transform="matrix(12,0,0,12,350.4,162.2)" />
<use xlink:href="#f1_1k" transform="matrix(12,0,0,12,366.6,162.2)" />
<use xlink:href="#f1_1h" transform="matrix(12,0,0,12,372.3,162.2)" />
<use xlink:href="#f1_1f" transform="matrix(12,0,0,12,378.1,162.2)" />
<use xlink:href="#f1_1g" transform="matrix(12,0,0,12,388,162.2)" />
<use xlink:href="#f1_1s" transform="matrix(12,0,0,12,399.2,162.2)" />
<use xlink:href="#f1_1e" transform="matrix(12,0,0,12,412,162.2)" />
<use xlink:href="#f1_1q" transform="matrix(12,0,0,12,418.1,162.2)" />
<use xlink:href="#f1_1n" transform="matrix(12,0,0,12,426.2,162.2)" />
<use xlink:href="#f1_1l" transform="matrix(12,0,0,12,435.4,162.2)" />
<use xlink:href="#f1_19" transform="matrix(12,0,0,12,457.4,162.2)" />
<use xlink:href="#f1_1r" transform="matrix(12,0,0,12,473.3,162.2)" />
<use xlink:href="#f1_1n" transform="matrix(12,0,0,12,481.7,162.2)" />
<use xlink:href="#f1_1t" transform="matrix(12,0,0,12,490.9,162.2)" />
<use xlink:href="#f1_1q" transform="matrix(12,0,0,12,502.1,162.2)" />
<use xlink:href="#f1_1b" transform="matrix(12,0,0,12,510.2,162.2)" />
<use xlink:href="#f1_1d" transform="matrix(12,0,0,12,518.3,162.2)" />
<use xlink:href="#f1_1r" transform="matrix(12,0,0,12,533.1,162.2)" />
<use xlink:href="#f1_1g" transform="matrix(12,0,0,12,541.6,162.2)" />
<use xlink:href="#f1_1n" transform="matrix(12,0,0,12,552.8,162.2)" />
<use xlink:href="#f1_1v" transform="matrix(12,0,0,12,562,162.2)" />
<use xlink:href="#f1_19" transform="matrix(12,0,0,12,581.9,162.2)" />
<use xlink:href="#f1_1u" transform="matrix(12,0,0,12,597.7,162.2)" />
<use xlink:href="#f1_19" transform="matrix(12,0,0,12,607.6,162.2)" />
<use xlink:href="#f1_1q" transform="matrix(12,0,0,12,617.8,162.2)" />
<use xlink:href="#f1_1h" transform="matrix(12,0,0,12,626,162.2)" />
<use xlink:href="#f1_19" transform="matrix(12,0,0,12,631.8,162.2)" />
<use xlink:href="#f1_1s" transform="matrix(12,0,0,12,642,162.2)" />
<use xlink:href="#f1_1h" transform="matrix(12,0,0,12,649.2,162.2)" />
<use xlink:href="#f1_1n" transform="matrix(12,0,0,12,654.9,162.2)" />
<use xlink:href="#f1_1m" transform="matrix(12,0,0,12,664.1,162.2)" />
<use xlink:href="#f1_1h" transform="matrix(12,0,0,12,680.9,162.2)" />
<use xlink:href="#f1_1m" transform="matrix(12,0,0,12,686.7,162.2)" />
<use xlink:href="#f1_1h" transform="matrix(12,0,0,12,703.5,162.2)" />
<use xlink:href="#f1_1m" transform="matrix(12,0,0,12,709.3,162.2)" />
<use xlink:href="#f1_1s" transform="matrix(12,0,0,12,720.4,162.2)" />
<use xlink:href="#f1_1d" transform="matrix(12,0,0,12,727.6,162.2)" />
<use xlink:href="#f1_1m" transform="matrix(12,0,0,12,736.8,162.2)" />
<use xlink:href="#f1_1r" transform="matrix(12,0,0,12,747.9,162.2)" />
<use xlink:href="#f1_1h" transform="matrix(12,0,0,12,756.4,162.2)" />
<use xlink:href="#f1_1s" transform="matrix(12,0,0,12,762.2,162.2)" />
<use xlink:href="#f1_1x" transform="matrix(12,0,0,12,769.4,162.2)" />
<use xlink:href="#f1_1v" transform="matrix(12,0,0,12,173,188)" />
<use xlink:href="#f1_1g" transform="matrix(12,0,0,12,187.1,188)" />
<use xlink:href="#f1_1d" transform="matrix(12,0,0,12,198,188)" />
<use xlink:href="#f1_1m" transform="matrix(12,0,0,12,207,188)" />
<use xlink:href="#f1_1u" transform="matrix(12,0,0,12,222.8,188)" />
<use xlink:href="#f1_1h" transform="matrix(12,0,0,12,232.4,188)" />
<use xlink:href="#f1_1d" transform="matrix(12,0,0,12,238,188)" />
<use xlink:href="#f1_1v" transform="matrix(12,0,0,12,246.9,188)" />
<use xlink:href="#f1_1d" transform="matrix(12,0,0,12,261,188)" />
<use xlink:href="#f1_1c" transform="matrix(12,0,0,12,270,188)" />
<use xlink:href="#f1_1s" transform="matrix(12,0,0,12,285.2,188)" />
<use xlink:href="#f1_1g" transform="matrix(12,0,0,12,292.1,188)" />
<use xlink:href="#f1_1q" transform="matrix(12,0,0,12,303.1,188)" />
<use xlink:href="#f1_1n" transform="matrix(12,0,0,12,311,188)" />
<use xlink:href="#f1_1t" transform="matrix(12,0,0,12,319.9,188)" />
<use xlink:href="#f1_1f" transform="matrix(12,0,0,12,330.8,188)" />
<use xlink:href="#f1_1g" transform="matrix(12,0,0,12,340.5,188)" />
<use xlink:href="#f1_19" transform="matrix(12,0,0,12,356.3,188)" />
<use xlink:href="#f1_1o" transform="matrix(12,0,0,12,371.2,188)" />
<use xlink:href="#f1_1n" transform="matrix(12,0,0,12,381.5,188)" />
<use xlink:href="#f1_1k" transform="matrix(12,0,0,12,390.4,188)" />
<use xlink:href="#f1_19" transform="matrix(12,0,0,12,396,188)" />
<use xlink:href="#f1_1q" transform="matrix(12,0,0,12,406,188)" />
<use xlink:href="#f1_1n" transform="matrix(12,0,0,12,413.9,188)" />
<use xlink:href="#f1_1h" transform="matrix(12,0,0,12,422.9,188)" />
<use xlink:href="#f1_1c" transform="matrix(12,0,0,12,428.4,188)" />
<use xlink:href="#f1_1v" transform="matrix(12,0,0,12,443.6,188)" />
<use xlink:href="#f1_1g" transform="matrix(12,0,0,12,457.7,188)" />
<use xlink:href="#f1_1h" transform="matrix(12,0,0,12,468.6,188)" />
<use xlink:href="#f1_1b" transform="matrix(12,0,0,12,474.2,188)" />
<use xlink:href="#f1_1g" transform="matrix(12,0,0,12,482.1,188)" />
<use xlink:href="#f1_1h" transform="matrix(12,0,0,12,497.9,188)" />
<use xlink:href="#f1_1r" transform="matrix(12,0,0,12,503.5,188)" />
<use xlink:href="#f1_1q" transform="matrix(12,0,0,12,516.6,188)" />
<use xlink:href="#f1_1n" transform="matrix(12,0,0,12,524.5,188)" />
<use xlink:href="#f1_1s" transform="matrix(12,0,0,12,533.4,188)" />
<use xlink:href="#f1_19" transform="matrix(12,0,0,12,540.4,188)" />
<use xlink:href="#f1_1s" transform="matrix(12,0,0,12,550.4,188)" />
<use xlink:href="#f1_1d" transform="matrix(12,0,0,12,557.3,188)" />
<use xlink:href="#f1_1c" transform="matrix(12,0,0,12,566.3,188)" />
<use xlink:href="#f1_k" transform="matrix(12,0,0,12,581.5,188)" />
<use xlink:href="#f1_13" transform="matrix(12,0,0,12,599.2,188)" />
<use xlink:href="#f1_1g" transform="matrix(12,0,0,12,610.5,188)" />
<use xlink:href="#f1_1n" transform="matrix(12,0,0,12,621.5,188)" />
<use xlink:href="#f1_1v" transform="matrix(12,0,0,12,630.4,188)" />
<use xlink:href="#f1_1v" transform="matrix(12,0,0,12,649.4,188)" />
<use xlink:href="#f1_1h" transform="matrix(12,0,0,12,663.4,188)" />
<use xlink:href="#f1_1s" transform="matrix(12,0,0,12,669,188)" />
<use xlink:href="#f1_1g" transform="matrix(12,0,0,12,675.9,188)" />
<use xlink:href="#f1_1s" transform="matrix(12,0,0,12,691.7,188)" />
<use xlink:href="#f1_1g" transform="matrix(12,0,0,12,698.7,188)" />
<use xlink:href="#f1_1d" transform="matrix(12,0,0,12,709.6,188)" />
<use xlink:href="#f1_1g" transform="matrix(12,0,0,12,723.5,188)" />
<use xlink:href="#f1_1d" transform="matrix(12,0,0,12,734.4,188)" />
<use xlink:href="#f1_1k" transform="matrix(12,0,0,12,743.3,188)" />
<use xlink:href="#f1_1o" transform="matrix(12,0,0,12,748.9,188)" />
<use xlink:href="#f1_1n" transform="matrix(12,0,0,12,764.1,188)" />
<use xlink:href="#f1_1e" transform="matrix(12,0,0,12,773.1,188)" />
<use xlink:href="#f1_19" transform="matrix(12,0,0,12,173,213.6)" />
<use xlink:href="#f1_1c" transform="matrix(12,0,0,12,190.9,213.6)" />
<use xlink:href="#f1_1h" transform="matrix(12,0,0,12,201.4,213.6)" />
<use xlink:href="#f1_19" transform="matrix(12,0,0,12,207.2,213.6)" />
<use xlink:href="#f1_1f" transform="matrix(12,0,0,12,217.4,213.6)" />
<use xlink:href="#f1_1q" transform="matrix(12,0,0,12,227.3,213.6)" />
<use xlink:href="#f1_19" transform="matrix(12,0,0,12,235.4,213.6)" />
<use xlink:href="#f1_1l" transform="matrix(12,0,0,12,245.6,213.6)" />
<use xlink:href="#f1_5" transform="matrix(12,0,0,12,262,213.6)" />
<use xlink:href="#f1_1g" transform="matrix(12,0,0,12,274.7,213.6)" />
<use xlink:href="#f1_1n" transform="matrix(12,0,0,12,285.9,213.6)" />
<use xlink:href="#f1_1v" transform="matrix(12,0,0,12,295,213.6)" />
<use xlink:href="#f1_1t" transform="matrix(12,0,0,12,316.9,213.6)" />
<use xlink:href="#f1_1m" transform="matrix(12,0,0,12,328.1,213.6)" />
<use xlink:href="#f1_1o" transform="matrix(12,0,0,12,339.3,213.6)" />
<use xlink:href="#f1_1n" transform="matrix(12,0,0,12,349.8,213.6)" />
<use xlink:href="#f1_1k" transform="matrix(12,0,0,12,359,213.6)" />
<use xlink:href="#f1_19" transform="matrix(12,0,0,12,364.8,213.6)" />
<use xlink:href="#f1_1q" transform="matrix(12,0,0,12,375,213.6)" />
<use xlink:href="#f1_1h" transform="matrix(12,0,0,12,383.1,213.6)" />
<use xlink:href="#f1_1r" transform="matrix(12,0,0,12,388.9,213.6)" />
<use xlink:href="#f1_1d" transform="matrix(12,0,0,12,397.4,213.6)" />
<use xlink:href="#f1_1c" transform="matrix(12,0,0,12,406.6,213.6)" />
<use xlink:href="#f1_1k" transform="matrix(12,0,0,12,424.7,213.6)" />
<use xlink:href="#f1_1h" transform="matrix(12,0,0,12,430.5,213.6)" />
<use xlink:href="#f1_1f" transform="matrix(12,0,0,12,436.3,213.6)" />
<use xlink:href="#f1_1g" transform="matrix(12,0,0,12,446.2,213.6)" />
<use xlink:href="#f1_1s" transform="matrix(12,0,0,12,457.3,213.6)" />
<use xlink:href="#f1_1e" transform="matrix(12,0,0,12,472.1,213.6)" />
<use xlink:href="#f1_1q" transform="matrix(12,0,0,12,478.2,213.6)" />
<use xlink:href="#f1_1n" transform="matrix(12,0,0,12,486.4,213.6)" />
<use xlink:href="#f1_1l" transform="matrix(12,0,0,12,495.5,213.6)" />
<use xlink:href="#f1_1r" transform="matrix(12,0,0,12,519.5,213.6)" />
<use xlink:href="#f1_1t" transform="matrix(12,0,0,12,528,213.6)" />
<use xlink:href="#f1_1m" transform="matrix(12,0,0,12,539.1,213.6)" />
<use xlink:href="#f1_1f" transform="matrix(12,0,0,12,557.9,213.6)" />
<use xlink:href="#f1_1d" transform="matrix(12,0,0,12,567.8,213.6)" />
<use xlink:href="#f1_1s" transform="matrix(12,0,0,12,576.9,213.6)" />
<use xlink:href="#f1_1r" transform="matrix(12,0,0,12,584.1,213.6)" />
<use xlink:href="#f1_1k" transform="matrix(12,0,0,12,600.2,213.6)" />
<use xlink:href="#f1_1h" transform="matrix(12,0,0,12,606,213.6)" />
<use xlink:href="#f1_1m" transform="matrix(12,0,0,12,611.8,213.6)" />
<use xlink:href="#f1_1d" transform="matrix(12,0,0,12,622.9,213.6)" />
<use xlink:href="#f1_19" transform="matrix(12,0,0,12,632.1,213.6)" />
<use xlink:href="#f1_1q" transform="matrix(12,0,0,12,642.3,213.6)" />
<use xlink:href="#f1_1k" transform="matrix(12,0,0,12,650.5,213.6)" />
<use xlink:href="#f1_1x" transform="matrix(12,0,0,12,656.2,213.6)" />
<use xlink:href="#f1_1o" transform="matrix(12,0,0,12,673.7,213.6)" />
<use xlink:href="#f1_1n" transform="matrix(12,0,0,12,684.3,213.6)" />
<use xlink:href="#f1_1k" transform="matrix(12,0,0,12,693.4,213.6)" />
<use xlink:href="#f1_19" transform="matrix(12,0,0,12,699.2,213.6)" />
<use xlink:href="#f1_1q" transform="matrix(12,0,0,12,709.4,213.6)" />
<use xlink:href="#f1_1h" transform="matrix(12,0,0,12,717.6,213.6)" />
<use xlink:href="#f1_1r" transform="matrix(12,0,0,12,723.4,213.6)" />
<use xlink:href="#f1_1d" transform="matrix(12,0,0,12,731.8,213.6)" />
<use xlink:href="#f1_1c" transform="matrix(12,0,0,12,741,213.6)" />
<use xlink:href="#f1_1a" transform="matrix(12,0,0,12,759.2,213.6)" />
<use xlink:href="#f1_1x" transform="matrix(12,0,0,12,769.4,213.6)" />
<use xlink:href="#f1_1r" transform="matrix(12,0,0,12,173,239.2)" />
<use xlink:href="#f1_1b" transform="matrix(12,0,0,12,181.4,239.2)" />
<use xlink:href="#f1_19" transform="matrix(12,0,0,12,189.4,239.2)" />
<use xlink:href="#f1_1s" transform="matrix(12,0,0,12,199.6,239.2)" />
<use xlink:href="#f1_1s" transform="matrix(12,0,0,12,206.6,239.2)" />
<use xlink:href="#f1_1d" transform="matrix(12,0,0,12,213.7,239.2)" />
<use xlink:href="#f1_1q" transform="matrix(12,0,0,12,222.8,239.2)" />
<use xlink:href="#f1_1h" transform="matrix(12,0,0,12,230.8,239.2)" />
<use xlink:href="#f1_1m" transform="matrix(12,0,0,12,236.5,239.2)" />
<use xlink:href="#f1_1f" transform="matrix(12,0,0,12,247.5,239.2)" />
<use xlink:href="#f1_7" transform="matrix(12,0,0,12,257.3,239.2)" />
<use xlink:href="#f1_3" transform="matrix(12,0,0,12,129.7,273.5)" />
<use xlink:href="#f1_1a" transform="matrix(12,0,0,12,135.6,273.5)" />
<use xlink:href="#f1_4" transform="matrix(12,0,0,12,145.5,273.5)" />
<use xlink:href="#f1_14" transform="matrix(12,0,0,12,173.2,273.5)" />
<use xlink:href="#f1_1g" transform="matrix(12,0,0,12,185.1,273.5)" />
<use xlink:href="#f1_1q" transform="matrix(12,0,0,12,196,273.5)" />
<use xlink:href="#f1_1d" transform="matrix(12,0,0,12,203.8,273.5)" />
<use xlink:href="#f1_1d" transform="matrix(12,0,0,12,212.7,273.5)" />
<use xlink:href="#f1_1h" transform="matrix(12,0,0,12,226.4,273.5)" />
<use xlink:href="#f1_1c" transform="matrix(12,0,0,12,231.8,273.5)" />
<use xlink:href="#f1_1d" transform="matrix(12,0,0,12,242.1,273.5)" />
<use xlink:href="#f1_1m" transform="matrix(12,0,0,12,251,273.5)" />
<use xlink:href="#f1_1s" transform="matrix(12,0,0,12,261.8,273.5)" />
<use xlink:href="#f1_1h" transform="matrix(12,0,0,12,268.7,273.5)" />
<use xlink:href="#f1_1b" transform="matrix(12,0,0,12,274.2,273.5)" />
<use xlink:href="#f1_19" transform="matrix(12,0,0,12,282,273.5)" />
<use xlink:href="#f1_1k" transform="matrix(12,0,0,12,292,273.5)" />
<use xlink:href="#f1_1o" transform="matrix(12,0,0,12,302.3,273.5)" />
<use xlink:href="#f1_1n" transform="matrix(12,0,0,12,312.5,273.5)" />
<use xlink:href="#f1_1k" transform="matrix(12,0,0,12,321.4,273.5)" />
<use xlink:href="#f1_19" transform="matrix(12,0,0,12,326.9,273.5)" />
<use xlink:href="#f1_1q" transform="matrix(12,0,0,12,336.8,273.5)" />
<use xlink:href="#f1_1n" transform="matrix(12,0,0,12,344.6,273.5)" />
<use xlink:href="#f1_1h" transform="matrix(12,0,0,12,353.5,273.5)" />
<use xlink:href="#f1_1c" transform="matrix(12,0,0,12,359,273.5)" />
<use xlink:href="#f1_1r" transform="matrix(12,0,0,12,374.1,273.5)" />
<use xlink:href="#f1_1g" transform="matrix(12,0,0,12,382.2,273.5)" />
<use xlink:href="#f1_1d" transform="matrix(12,0,0,12,393.1,273.5)" />
<use xlink:href="#f1_1d" transform="matrix(12,0,0,12,402,273.5)" />
<use xlink:href="#f1_1s" transform="matrix(12,0,0,12,410.9,273.5)" />
<use xlink:href="#f1_1r" transform="matrix(12,0,0,12,417.7,273.5)" />
<use xlink:href="#f1_10" transform="matrix(12,0,0,12,430.7,273.5)" />
<use xlink:href="#f2_4" transform="matrix(9.6,0,0,9.6,442.8,279.7)" />
<use xlink:href="#f1_5" transform="matrix(12,0,0,12,450.8,273.5)" />
<use xlink:href="#f1_10" transform="matrix(12,0,0,12,460.5,273.5)" />
<use xlink:href="#f2_5" transform="matrix(9.6,0,0,9.6,472.4,279.7)" />
<use xlink:href="#f1_19" transform="matrix(12,0,0,12,485.2,273.5)" />
<use xlink:href="#f1_1m" transform="matrix(12,0,0,12,495.1,273.5)" />
<use xlink:href="#f1_1c" transform="matrix(12,0,0,12,506,273.5)" />
<use xlink:href="#f1_10" transform="matrix(12,0,0,12,521.1,273.5)" />
<use xlink:href="#f2_6" transform="matrix(9.6,0,0,9.6,533,279.7)" />
<use xlink:href="#f1_19" transform="matrix(12,0,0,12,545.7,273.5)" />
<use xlink:href="#f1_1q" transform="matrix(12,0,0,12,555.6,273.5)" />
<use xlink:href="#f1_1d" transform="matrix(12,0,0,12,563.4,273.5)" />
<use xlink:href="#f1_1n" transform="matrix(12,0,0,12,577.1,273.5)" />
<use xlink:href="#f1_1q" transform="matrix(12,0,0,12,586,273.5)" />
<use xlink:href="#f1_1h" transform="matrix(12,0,0,12,593.8,273.5)" />
<use xlink:href="#f1_1d" transform="matrix(12,0,0,12,599.3,273.5)" />
<use xlink:href="#f1_1m" transform="matrix(12,0,0,12,608.2,273.5)" />
<use xlink:href="#f1_1s" transform="matrix(12,0,0,12,619,273.5)" />
<use xlink:href="#f1_1d" transform="matrix(12,0,0,12,625.9,273.5)" />
<use xlink:href="#f1_1c" transform="matrix(12,0,0,12,634.8,273.5)" />
<use xlink:href="#f1_1r" transform="matrix(12,0,0,12,649.8,273.5)" />
<use xlink:href="#f1_1n" transform="matrix(12,0,0,12,658,273.5)" />
<use xlink:href="#f1_1s" transform="matrix(12,0,0,12,671.7,273.5)" />
<use xlink:href="#f1_1g" transform="matrix(12,0,0,12,678.6,273.5)" />
<use xlink:href="#f1_19" transform="matrix(12,0,0,12,689.4,273.5)" />
<use xlink:href="#f1_1s" transform="matrix(12,0,0,12,699.3,273.5)" />
<use xlink:href="#f1_1s" transform="matrix(12,0,0,12,711,273.5)" />
<use xlink:href="#f1_1g" transform="matrix(12,0,0,12,717.9,273.5)" />
<use xlink:href="#f1_1d" transform="matrix(12,0,0,12,728.7,273.5)" />
<use xlink:href="#f1_1o" transform="matrix(12,0,0,12,742.4,273.5)" />
<use xlink:href="#f1_19" transform="matrix(12,0,0,12,752.7,273.5)" />
<use xlink:href="#f1_1r" transform="matrix(12,0,0,12,762.6,273.5)" />
<use xlink:href="#f1_1r" transform="matrix(12,0,0,12,770.8,273.5)" />
<use xlink:href="#f1_19" transform="matrix(12,0,0,12,173,299.2)" />
<use xlink:href="#f1_1w" transform="matrix(12,0,0,12,183.2,299.2)" />
<use xlink:href="#f1_1h" transform="matrix(12,0,0,12,193.1,299.2)" />
<use xlink:href="#f1_1r" transform="matrix(12,0,0,12,198.9,299.2)" />
<use xlink:href="#f1_1n" transform="matrix(12,0,0,12,212.8,299.2)" />
<use xlink:href="#f1_1e" transform="matrix(12,0,0,12,222,299.2)" />
<use xlink:href="#f1_10" transform="matrix(12,0,0,12,233.6,299.2)" />
<use xlink:href="#f2_5" transform="matrix(9.6,0,0,9.6,245.8,305.3)" />
<use xlink:href="#f1_19" transform="matrix(12,0,0,12,259.5,299.2)" />
<use xlink:href="#f1_1m" transform="matrix(12,0,0,12,269.8,299.2)" />
<use xlink:href="#f1_1c" transform="matrix(12,0,0,12,280.9,299.2)" />
<use xlink:href="#f1_10" transform="matrix(12,0,0,12,297,299.2)" />
<use xlink:href="#f2_6" transform="matrix(9.6,0,0,9.6,309.2,305.3)" />
<use xlink:href="#f1_19" transform="matrix(12,0,0,12,322.8,299.2)" />
<use xlink:href="#f1_1q" transform="matrix(12,0,0,12,333.1,299.2)" />
<use xlink:href="#f1_1d" transform="matrix(12,0,0,12,341.2,299.2)" />
<use xlink:href="#f1_1h" transform="matrix(12,0,0,12,355.9,299.2)" />
<use xlink:href="#f1_1m" transform="matrix(12,0,0,12,361.6,299.2)" />
<use xlink:href="#f1_1b" transform="matrix(12,0,0,12,372.8,299.2)" />
<use xlink:href="#f1_1k" transform="matrix(12,0,0,12,380.9,299.2)" />
<use xlink:href="#f1_1h" transform="matrix(12,0,0,12,386.7,299.2)" />
<use xlink:href="#f1_1m" transform="matrix(12,0,0,12,392.5,299.2)" />
<use xlink:href="#f1_1d" transform="matrix(12,0,0,12,403.6,299.2)" />
<use xlink:href="#f1_1c" transform="matrix(12,0,0,12,412.8,299.2)" />
<use xlink:href="#f1_19" transform="matrix(12,0,0,12,428.9,299.2)" />
<use xlink:href="#f1_1s" transform="matrix(12,0,0,12,439.1,299.2)" />
<use xlink:href="#f1_19" transform="matrix(12,0,0,12,451.8,299.2)" />
<use xlink:href="#f1_1m" transform="matrix(12,0,0,12,462,299.2)" />
<use xlink:href="#f1_1f" transform="matrix(12,0,0,12,473.1,299.2)" />
<use xlink:href="#f1_1k" transform="matrix(12,0,0,12,483,299.2)" />
<use xlink:href="#f1_1d" transform="matrix(12,0,0,12,488.8,299.2)" />
<use xlink:href="#f1_1r" transform="matrix(12,0,0,12,498,299.2)" />
<use xlink:href="#f1_1n" transform="matrix(12,0,0,12,511.9,299.2)" />
<use xlink:href="#f1_1e" transform="matrix(12,0,0,12,521.1,299.2)" />
<use xlink:href="#f1_f" transform="matrix(12,0,0,12,532.7,299.2)" />
<use xlink:href="#f1_9" transform="matrix(12,0,0,12,542.9,299.2)" />
<use xlink:href="#f3_6" transform="matrix(12,0,0,12,553.2,299.2)" />
<use xlink:href="#f1_19" transform="matrix(12,0,0,12,564.8,299.2)" />
<use xlink:href="#f1_1m" transform="matrix(12,0,0,12,575,299.2)" />
<use xlink:href="#f1_1c" transform="matrix(12,0,0,12,586.2,299.2)" />
<use xlink:href="#f1_i" transform="matrix(12,0,0,12,602.2,299.2)" />
<use xlink:href="#f1_9" transform="matrix(12,0,0,12,612.4,299.2)" />
<use xlink:href="#f3_6" transform="matrix(12,0,0,12,622.5,299.2)" />
<use xlink:href="#f1_1q" transform="matrix(12,0,0,12,634.1,299.2)" />
<use xlink:href="#f1_1d" transform="matrix(12,0,0,12,642.2,299.2)" />
<use xlink:href="#f1_1r" transform="matrix(12,0,0,12,651.4,299.2)" />
<use xlink:href="#f1_1o" transform="matrix(12,0,0,12,659.9,299.2)" />
<use xlink:href="#f1_1d" transform="matrix(12,0,0,12,670.4,299.2)" />
<use xlink:href="#f1_1b" transform="matrix(12,0,0,12,679.6,299.2)" />
<use xlink:href="#f1_1s" transform="matrix(12,0,0,12,687.7,299.2)" />
<use xlink:href="#f1_1h" transform="matrix(12,0,0,12,694.9,299.2)" />
<use xlink:href="#f1_1u" transform="matrix(12,0,0,12,700.7,299.2)" />
<use xlink:href="#f1_1d" transform="matrix(12,0,0,12,710.5,299.2)" />
<use xlink:href="#f1_1k" transform="matrix(12,0,0,12,719.7,299.2)" />
<use xlink:href="#f1_1x" transform="matrix(12,0,0,12,725.5,299.2)" />
<use xlink:href="#f1_1v" transform="matrix(12,0,0,12,740.9,299.2)" />
<use xlink:href="#f1_1h" transform="matrix(12,0,0,12,755.2,299.2)" />
<use xlink:href="#f1_1s" transform="matrix(12,0,0,12,761,299.2)" />
<use xlink:href="#f1_1g" transform="matrix(12,0,0,12,768.2,299.2)" />
<use xlink:href="#f1_1s" transform="matrix(12,0,0,12,173,324.9)" />
<use xlink:href="#f1_1g" transform="matrix(12,0,0,12,180.2,324.9)" />
<use xlink:href="#f1_1d" transform="matrix(12,0,0,12,191.4,324.9)" />
<use xlink:href="#f1_1o" transform="matrix(12,0,0,12,207.1,324.9)" />
<use xlink:href="#f1_19" transform="matrix(12,0,0,12,217.6,324.9)" />
<use xlink:href="#f1_1r" transform="matrix(12,0,0,12,227.9,324.9)" />
<use xlink:href="#f1_1r" transform="matrix(12,0,0,12,236.3,324.9)" />
<use xlink:href="#f1_19" transform="matrix(12,0,0,12,251.4,324.9)" />
<use xlink:href="#f1_1w" transform="matrix(12,0,0,12,261.6,324.9)" />
<use xlink:href="#f1_1h" transform="matrix(12,0,0,12,271.5,324.9)" />
<use xlink:href="#f1_1r" transform="matrix(12,0,0,12,277.2,324.9)" />
<use xlink:href="#f1_1n" transform="matrix(12,0,0,12,292.3,324.9)" />
<use xlink:href="#f1_1e" transform="matrix(12,0,0,12,301.5,324.9)" />
<use xlink:href="#f1_10" transform="matrix(12,0,0,12,314.2,324.9)" />
<use xlink:href="#f2_4" transform="matrix(9.6,0,0,9.6,326.3,331)" />
<use xlink:href="#f1_7" transform="matrix(12,0,0,12,334.5,324.9)" />
<use xlink:href="#f1_l" transform="matrix(12,0,0,12,352.8,324.9)" />
<use xlink:href="#f1_1l" transform="matrix(12,0,0,12,372.6,324.9)" />
<use xlink:href="#f1_1n" transform="matrix(12,0,0,12,389,324.9)" />
<use xlink:href="#f1_1m" transform="matrix(12,0,0,12,398.2,324.9)" />
<use xlink:href="#f1_1n" transform="matrix(12,0,0,12,409.3,324.9)" />
<use xlink:href="#f1_1b" transform="matrix(12,0,0,12,418.5,324.9)" />
<use xlink:href="#f1_1g" transform="matrix(12,0,0,12,426.6,324.9)" />
<use xlink:href="#f1_1q" transform="matrix(12,0,0,12,437.8,324.9)" />
<use xlink:href="#f1_1n" transform="matrix(12,0,0,12,445.9,324.9)" />
<use xlink:href="#f1_1l" transform="matrix(12,0,0,12,455.1,324.9)" />
<use xlink:href="#f1_19" transform="matrix(12,0,0,12,471.5,324.9)" />
<use xlink:href="#f1_1s" transform="matrix(12,0,0,12,481.7,324.9)" />
<use xlink:href="#f1_1h" transform="matrix(12,0,0,12,488.9,324.9)" />
<use xlink:href="#f1_1b" transform="matrix(12,0,0,12,494.6,324.9)" />
<use xlink:href="#f1_1r" transform="matrix(12,0,0,12,509.4,324.9)" />
<use xlink:href="#f1_1n" transform="matrix(12,0,0,12,517.9,324.9)" />
<use xlink:href="#f1_1t" transform="matrix(12,0,0,12,527,324.9)" />
<use xlink:href="#f1_1q" transform="matrix(12,0,0,12,538.2,324.9)" />
<use xlink:href="#f1_1b" transform="matrix(12,0,0,12,546.3,324.9)" />
<use xlink:href="#f1_1d" transform="matrix(12,0,0,12,554.4,324.9)" />
<use xlink:href="#f1_13" transform="matrix(12,0,0,12,570.2,324.9)" />
<use xlink:href="#f1_1n" transform="matrix(12,0,0,12,588.4,324.9)" />
<use xlink:href="#f1_1e" transform="matrix(12,0,0,12,597.6,324.9)" />
<use xlink:href="#f1_1t" transform="matrix(12,0,0,12,610.3,324.9)" />
<use xlink:href="#f1_1m" transform="matrix(12,0,0,12,621.5,324.9)" />
<use xlink:href="#f1_1o" transform="matrix(12,0,0,12,632.6,324.9)" />
<use xlink:href="#f1_1n" transform="matrix(12,0,0,12,643.2,324.9)" />
<use xlink:href="#f1_1k" transform="matrix(12,0,0,12,652.4,324.9)" />
<use xlink:href="#f1_19" transform="matrix(12,0,0,12,658.2,324.9)" />
<use xlink:href="#f1_1q" transform="matrix(12,0,0,12,668.4,324.9)" />
<use xlink:href="#f1_1h" transform="matrix(12,0,0,12,676.5,324.9)" />
<use xlink:href="#f1_1y" transform="matrix(12,0,0,12,682.3,324.9)" />
<use xlink:href="#f1_1d" transform="matrix(12,0,0,12,691.1,324.9)" />
<use xlink:href="#f1_1c" transform="matrix(12,0,0,12,700.3,324.9)" />
<use xlink:href="#f1_1k" transform="matrix(12,0,0,12,717.4,324.9)" />
<use xlink:href="#f1_1h" transform="matrix(12,0,0,12,723.2,324.9)" />
<use xlink:href="#f1_1f" transform="matrix(12,0,0,12,729,324.9)" />
<use xlink:href="#f1_1g" transform="matrix(12,0,0,12,738.9,324.9)" />
<use xlink:href="#f1_1s" transform="matrix(12,0,0,12,750,324.9)" />
<use xlink:href="#f1_1n" transform="matrix(12,0,0,12,763.8,324.9)" />
<use xlink:href="#f1_1e" transform="matrix(12,0,0,12,773,324.9)" />
<use xlink:href="#f1_1h" transform="matrix(12,0,0,12,173,350.5)" />
<use xlink:href="#f1_1m" transform="matrix(12,0,0,12,178.5,350.5)" />
<use xlink:href="#f1_1s" transform="matrix(12,0,0,12,189.4,350.5)" />
<use xlink:href="#f1_1d" transform="matrix(12,0,0,12,196.3,350.5)" />
<use xlink:href="#f1_1m" transform="matrix(12,0,0,12,205.2,350.5)" />
<use xlink:href="#f1_1r" transform="matrix(12,0,0,12,216,350.5)" />
<use xlink:href="#f1_1h" transform="matrix(12,0,0,12,224.2,350.5)" />
<use xlink:href="#f1_1s" transform="matrix(12,0,0,12,229.7,350.5)" />
<use xlink:href="#f1_1x" transform="matrix(12,0,0,12,236.6,350.5)" />
<use xlink:href="#f1_t" transform="matrix(12,0,0,12,251,350.5)" />
<use xlink:href="#f2_3" transform="matrix(9.6,0,0,9.6,258.1,356.7)" />
<use xlink:href="#f1_1h" transform="matrix(12,0,0,12,270.8,350.5)" />
<use xlink:href="#f1_1r" transform="matrix(12,0,0,12,276.3,350.5)" />
<use xlink:href="#f1_1j" transform="matrix(12,0,0,12,289.2,350.5)" />
<use xlink:href="#f1_1d" transform="matrix(12,0,0,12,299.8,350.5)" />
<use xlink:href="#f1_1o" transform="matrix(12,0,0,12,308.7,350.5)" />
<use xlink:href="#f1_1s" transform="matrix(12,0,0,12,318.9,350.5)" />
<use xlink:href="#f1_1h" transform="matrix(12,0,0,12,330.6,350.5)" />
<use xlink:href="#f1_1m" transform="matrix(12,0,0,12,336.1,350.5)" />
<use xlink:href="#f1_1e" transform="matrix(12,0,0,12,351.8,350.5)" />
<use xlink:href="#f1_1q" transform="matrix(12,0,0,12,357.6,350.5)" />
<use xlink:href="#f1_1n" transform="matrix(12,0,0,12,365.4,350.5)" />
<use xlink:href="#f1_1m" transform="matrix(12,0,0,12,374.3,350.5)" />
<use xlink:href="#f1_1s" transform="matrix(12,0,0,12,385.1,350.5)" />
<use xlink:href="#f1_1n" transform="matrix(12,0,0,12,396.8,350.5)" />
<use xlink:href="#f1_1e" transform="matrix(12,0,0,12,405.7,350.5)" />
<use xlink:href="#f1_1s" transform="matrix(12,0,0,12,416.3,350.5)" />
<use xlink:href="#f1_1g" transform="matrix(12,0,0,12,423.2,350.5)" />
<use xlink:href="#f1_1d" transform="matrix(12,0,0,12,434,350.5)" />
<use xlink:href="#f1_1o" transform="matrix(12,0,0,12,447.7,350.5)" />
<use xlink:href="#f1_1n" transform="matrix(12,0,0,12,457.9,350.5)" />
<use xlink:href="#f1_1k" transform="matrix(12,0,0,12,466.8,350.5)" />
<use xlink:href="#f1_19" transform="matrix(12,0,0,12,472.3,350.5)" />
<use xlink:href="#f1_1q" transform="matrix(12,0,0,12,482.2,350.5)" />
<use xlink:href="#f1_1n" transform="matrix(12,0,0,12,490,350.5)" />
<use xlink:href="#f1_1h" transform="matrix(12,0,0,12,498.9,350.5)" />
<use xlink:href="#f1_1c" transform="matrix(12,0,0,12,504.4,350.5)" />
<use xlink:href="#f1_1r" transform="matrix(12,0,0,12,519.4,350.5)" />
<use xlink:href="#f1_1g" transform="matrix(12,0,0,12,527.6,350.5)" />
<use xlink:href="#f1_1d" transform="matrix(12,0,0,12,538.5,350.5)" />
<use xlink:href="#f1_1d" transform="matrix(12,0,0,12,547.3,350.5)" />
<use xlink:href="#f1_1s" transform="matrix(12,0,0,12,556.2,350.5)" />
<use xlink:href="#f1_10" transform="matrix(12,0,0,12,567.9,350.5)" />
<use xlink:href="#f2_4" transform="matrix(9.6,0,0,9.6,579.9,356.7)" />
<use xlink:href="#f1_19" transform="matrix(12,0,0,12,592.6,350.5)" />
<use xlink:href="#f1_1r" transform="matrix(12,0,0,12,602.5,350.5)" />
<use xlink:href="#f1_1r" transform="matrix(12,0,0,12,615.5,350.5)" />
<use xlink:href="#f1_1g" transform="matrix(12,0,0,12,623.7,350.5)" />
<use xlink:href="#f1_1n" transform="matrix(12,0,0,12,634.5,350.5)" />
<use xlink:href="#f1_1v" transform="matrix(12,0,0,12,643.4,350.5)" />
<use xlink:href="#f1_1m" transform="matrix(12,0,0,12,657.4,350.5)" />
<use xlink:href="#f1_1h" transform="matrix(12,0,0,12,673.1,350.5)" />
<use xlink:href="#f1_1m" transform="matrix(12,0,0,12,678.6,350.5)" />
<use xlink:href="#f1_1s" transform="matrix(12,0,0,12,694.3,350.5)" />
<use xlink:href="#f1_1g" transform="matrix(12,0,0,12,701.1,350.5)" />
<use xlink:href="#f1_1d" transform="matrix(12,0,0,12,712,350.5)" />
<use xlink:href="#f1_1e" transform="matrix(12,0,0,12,725.7,350.5)" />
<use xlink:href="#f1_1h" transform="matrix(12,0,0,12,731.5,350.5)" />
<use xlink:href="#f1_1f" transform="matrix(12,0,0,12,737,350.5)" />
<use xlink:href="#f1_1t" transform="matrix(12,0,0,12,746.6,350.5)" />
<use xlink:href="#f1_1q" transform="matrix(12,0,0,12,757.5,350.5)" />
<use xlink:href="#f1_1d" transform="matrix(12,0,0,12,765.3,350.5)" />
<use xlink:href="#f1_7" transform="matrix(12,0,0,12,774.2,350.5)" />
<use xlink:href="#f1_o" transform="matrix(12,0,0,12,173,376.3)" />
<use xlink:href="#f1_1d" transform="matrix(12,0,0,12,187.1,376.3)" />
<use xlink:href="#f1_1s" transform="matrix(12,0,0,12,196,376.3)" />
<use xlink:href="#f1_1d" transform="matrix(12,0,0,12,202.9,376.3)" />
<use xlink:href="#f1_1q" transform="matrix(12,0,0,12,211.8,376.3)" />
<use xlink:href="#f1_1l" transform="matrix(12,0,0,12,219.7,376.3)" />
<use xlink:href="#f1_1h" transform="matrix(12,0,0,12,235.8,376.3)" />
<use xlink:href="#f1_1m" transform="matrix(12,0,0,12,241.4,376.3)" />
<use xlink:href="#f1_1d" transform="matrix(12,0,0,12,252.3,376.3)" />
<use xlink:href="#f1_1s" transform="matrix(12,0,0,12,266,376.3)" />
<use xlink:href="#f1_1g" transform="matrix(12,0,0,12,273,376.3)" />
<use xlink:href="#f1_1d" transform="matrix(12,0,0,12,283.9,376.3)" />
<use xlink:href="#f1_1h" transform="matrix(12,0,0,12,297.6,376.3)" />
<use xlink:href="#f1_1m" transform="matrix(12,0,0,12,303.2,376.3)" />
<use xlink:href="#f1_1s" transform="matrix(12,0,0,12,314.1,376.3)" />
<use xlink:href="#f1_1d" transform="matrix(12,0,0,12,321,376.3)" />
<use xlink:href="#f1_1m" transform="matrix(12,0,0,12,329.9,376.3)" />
<use xlink:href="#f1_1r" transform="matrix(12,0,0,12,340.8,376.3)" />
<use xlink:href="#f1_1h" transform="matrix(12,0,0,12,349.1,376.3)" />
<use xlink:href="#f1_1s" transform="matrix(12,0,0,12,354.6,376.3)" />
<use xlink:href="#f1_1h" transform="matrix(12,0,0,12,361.5,376.3)" />
<use xlink:href="#f1_1d" transform="matrix(12,0,0,12,367,376.3)" />
<use xlink:href="#f1_1r" transform="matrix(12,0,0,12,376,376.3)" />
<use xlink:href="#f1_1n" transform="matrix(12,0,0,12,389,376.3)" />
<use xlink:href="#f1_1e" transform="matrix(12,0,0,12,398,376.3)" />
<use xlink:href="#f1_1k" transform="matrix(12,0,0,12,408.7,376.3)" />
<use xlink:href="#f1_1h" transform="matrix(12,0,0,12,414.2,376.3)" />
<use xlink:href="#f1_1f" transform="matrix(12,0,0,12,419.8,376.3)" />
<use xlink:href="#f1_1g" transform="matrix(12,0,0,12,429.4,376.3)" />
<use xlink:href="#f1_1s" transform="matrix(12,0,0,12,440.3,376.3)" />
<use xlink:href="#f1_19" transform="matrix(12,0,0,12,452.1,376.3)" />
<use xlink:href="#f1_1r" transform="matrix(12,0,0,12,462,376.3)" />
<use xlink:href="#f1_1n" transform="matrix(12,0,0,12,475.1,376.3)" />
<use xlink:href="#f1_1a" transform="matrix(12,0,0,12,484,376.3)" />
<use xlink:href="#f1_1r" transform="matrix(12,0,0,12,494,376.3)" />
<use xlink:href="#f1_1d" transform="matrix(12,0,0,12,502.2,376.3)" />
<use xlink:href="#f1_1q" transform="matrix(12,0,0,12,511.1,376.3)" />
<use xlink:href="#f1_1u" transform="matrix(12,0,0,12,519,376.3)" />
<use xlink:href="#f1_1d" transform="matrix(12,0,0,12,528.6,376.3)" />
<use xlink:href="#f1_1c" transform="matrix(12,0,0,12,537.6,376.3)" />
<use xlink:href="#f1_1a" transform="matrix(12,0,0,12,552.7,376.3)" />
<use xlink:href="#f1_1x" transform="matrix(12,0,0,12,562.7,376.3)" />
<use xlink:href="#f1_1s" transform="matrix(12,0,0,12,577.2,376.3)" />
<use xlink:href="#f1_1g" transform="matrix(12,0,0,12,584.1,376.3)" />
<use xlink:href="#f1_1d" transform="matrix(12,0,0,12,595,376.3)" />
<use xlink:href="#f1_1n" transform="matrix(12,0,0,12,608.8,376.3)" />
<use xlink:href="#f1_1a" transform="matrix(12,0,0,12,617.7,376.3)" />
<use xlink:href="#f1_1r" transform="matrix(12,0,0,12,627.7,376.3)" />
<use xlink:href="#f1_1d" transform="matrix(12,0,0,12,635.9,376.3)" />
<use xlink:href="#f1_1q" transform="matrix(12,0,0,12,644.8,376.3)" />
<use xlink:href="#f1_1u" transform="matrix(12,0,0,12,652.7,376.3)" />
<use xlink:href="#f1_1d" transform="matrix(12,0,0,12,662.3,376.3)" />
<use xlink:href="#f1_1q" transform="matrix(12,0,0,12,671.2,376.3)" />
<use xlink:href="#f1_19" transform="matrix(12,0,0,12,684,376.3)" />
<use xlink:href="#f1_1s" transform="matrix(12,0,0,12,693.9,376.3)" />
<use xlink:href="#f1_z" transform="matrix(12,0,0,12,705.7,376.3)" />
<use xlink:href="#f1_5" transform="matrix(12,0,0,12,719.7,376.3)" />
<use xlink:href="#f1_1v" transform="matrix(12,0,0,12,734.3,376.3)" />
<use xlink:href="#f1_1g" transform="matrix(12,0,0,12,748.3,376.3)" />
<use xlink:href="#f1_1d" transform="matrix(12,0,0,12,759.2,376.3)" />
<use xlink:href="#f1_1m" transform="matrix(12,0,0,12,768.2,376.3)" />
<use xlink:href="#f1_1o" transform="matrix(12,0,0,12,173,401.9)" />
<use xlink:href="#f1_1n" transform="matrix(12,0,0,12,183.6,401.9)" />
<use xlink:href="#f1_1k" transform="matrix(12,0,0,12,192.8,401.9)" />
<use xlink:href="#f1_19" transform="matrix(12,0,0,12,198.6,401.9)" />
<use xlink:href="#f1_1q" transform="matrix(12,0,0,12,208.8,401.9)" />
<use xlink:href="#f1_1n" transform="matrix(12,0,0,12,216.9,401.9)" />
<use xlink:href="#f1_1h" transform="matrix(12,0,0,12,226.1,401.9)" />
<use xlink:href="#f1_1c" transform="matrix(12,0,0,12,231.9,401.9)" />
<use xlink:href="#f1_10" transform="matrix(12,0,0,12,247.8,401.9)" />
<use xlink:href="#f2_6" transform="matrix(9.6,0,0,9.6,260,408)" />
<use xlink:href="#f1_1h" transform="matrix(12,0,0,12,273.5,401.9)" />
<use xlink:href="#f1_1r" transform="matrix(12,0,0,12,279.2,401.9)" />
<use xlink:href="#f1_1q" transform="matrix(12,0,0,12,293,401.9)" />
<use xlink:href="#f1_1n" transform="matrix(12,0,0,12,301.2,401.9)" />
<use xlink:href="#f1_1s" transform="matrix(12,0,0,12,310.3,401.9)" />
<use xlink:href="#f1_19" transform="matrix(12,0,0,12,317.5,401.9)" />
<use xlink:href="#f1_1s" transform="matrix(12,0,0,12,327.7,401.9)" />
<use xlink:href="#f1_1d" transform="matrix(12,0,0,12,334.9,401.9)" />
<use xlink:href="#f1_1c" transform="matrix(12,0,0,12,344.1,401.9)" />
<use xlink:href="#f1_1v" transform="matrix(12,0,0,12,359.9,401.9)" />
<use xlink:href="#f1_1h" transform="matrix(12,0,0,12,374.2,401.9)" />
<use xlink:href="#f1_1s" transform="matrix(12,0,0,12,380,401.9)" />
<use xlink:href="#f1_1g" transform="matrix(12,0,0,12,387.2,401.9)" />
<use xlink:href="#f1_1q" transform="matrix(12,0,0,12,403.6,401.9)" />
<use xlink:href="#f1_1d" transform="matrix(12,0,0,12,411.8,401.9)" />
<use xlink:href="#f1_1r" transform="matrix(12,0,0,12,420.9,401.9)" />
<use xlink:href="#f1_1o" transform="matrix(12,0,0,12,429.4,401.9)" />
<use xlink:href="#f1_1d" transform="matrix(12,0,0,12,439.9,401.9)" />
<use xlink:href="#f1_1b" transform="matrix(12,0,0,12,449.1,401.9)" />
<use xlink:href="#f1_1s" transform="matrix(12,0,0,12,457.2,401.9)" />
<use xlink:href="#f1_1s" transform="matrix(12,0,0,12,469.7,401.9)" />
<use xlink:href="#f1_1n" transform="matrix(12,0,0,12,476.9,401.9)" />
<use xlink:href="#f1_10" transform="matrix(12,0,0,12,491.4,401.9)" />
<use xlink:href="#f2_5" transform="matrix(9.6,0,0,9.6,503.6,408)" />
<use xlink:href="#f1_19" transform="matrix(12,0,0,12,517.1,401.9)" />
<use xlink:href="#f1_1s" transform="matrix(12,0,0,12,527.3,401.9)" />
<use xlink:href="#f1_19" transform="matrix(12,0,0,12,539.8,401.9)" />
<use xlink:href="#f1_1m" transform="matrix(12,0,0,12,550,401.9)" />
<use xlink:href="#f1_1f" transform="matrix(12,0,0,12,561.2,401.9)" />
<use xlink:href="#f1_1k" transform="matrix(12,0,0,12,571.1,401.9)" />
<use xlink:href="#f1_1d" transform="matrix(12,0,0,12,576.8,401.9)" />
<use xlink:href="#f1_1r" transform="matrix(12,0,0,12,586,401.9)" />
<use xlink:href="#f3_c" transform="matrix(12,0,0,12,599.8,401.9)" />
<use xlink:href="#f3_5" transform="matrix(12,0,0,12,608.8,401.9)" />
<use xlink:href="#f1_c" transform="matrix(12,0,0,12,627.2,401.9)" />
<use xlink:href="#f1_9" transform="matrix(12,0,0,12,637.3,401.9)" />
<use xlink:href="#f3_6" transform="matrix(12,0,0,12,647.5,401.9)" />
<use xlink:href="#f1_19" transform="matrix(12,0,0,12,658.8,401.9)" />
<use xlink:href="#f1_1m" transform="matrix(12,0,0,12,669,401.9)" />
<use xlink:href="#f1_1c" transform="matrix(12,0,0,12,680.2,401.9)" />
<use xlink:href="#f1_f" transform="matrix(12,0,0,12,696,401.9)" />
<use xlink:href="#f1_9" transform="matrix(12,0,0,12,706.2,401.9)" />
<use xlink:href="#f3_6" transform="matrix(12,0,0,12,716.5,401.9)" />
<use xlink:href="#f1_7" transform="matrix(12,0,0,12,722.5,401.9)" />
</g>
<image preserveAspectRatio="none" x="173" y="424" width="255" height="188" xlink:href="img/1.png" />
<g fill="#000000" >
<use xlink:href="#f0_m" transform="matrix(12,0,0,12,439.6,642.3)" />
<use xlink:href="#f0_o" transform="matrix(12,0,0,12,454.4,642.3)" />
<use xlink:href="#f1_3" transform="matrix(12,0,0,12,129.7,676.6)" />
<use xlink:href="#f1_19" transform="matrix(12,0,0,12,135.6,676.6)" />
<use xlink:href="#f1_4" transform="matrix(12,0,0,12,145.5,676.6)" />
<use xlink:href="#f1_o" transform="matrix(12,0,0,12,173.2,676.6)" />
<use xlink:href="#f1_1d" transform="matrix(12,0,0,12,187.2,676.6)" />
<use xlink:href="#f1_1q" transform="matrix(12,0,0,12,196,676.6)" />
<use xlink:href="#f1_1h" transform="matrix(12,0,0,12,203.9,676.6)" />
<use xlink:href="#f1_1u" transform="matrix(12,0,0,12,209.3,676.6)" />
<use xlink:href="#f1_1d" transform="matrix(12,0,0,12,218.9,676.6)" />
<use xlink:href="#f1_19" transform="matrix(12,0,0,12,232.6,676.6)" />
<use xlink:href="#f1_1m" transform="matrix(12,0,0,12,242.5,676.6)" />
<use xlink:href="#f1_1d" transform="matrix(12,0,0,12,258.2,676.6)" />
<use xlink:href="#f1_1w" transform="matrix(12,0,0,12,267,676.6)" />
<use xlink:href="#f1_1o" transform="matrix(12,0,0,12,276.6,676.6)" />
<use xlink:href="#f1_1q" transform="matrix(12,0,0,12,286.8,676.6)" />
<use xlink:href="#f1_1d" transform="matrix(12,0,0,12,294.7,676.6)" />
<use xlink:href="#f1_1r" transform="matrix(12,0,0,12,303.5,676.6)" />
<use xlink:href="#f1_1r" transform="matrix(12,0,0,12,311.7,676.6)" />
<use xlink:href="#f1_1h" transform="matrix(12,0,0,12,319.9,676.6)" />
<use xlink:href="#f1_1n" transform="matrix(12,0,0,12,325.4,676.6)" />
<use xlink:href="#f1_1m" transform="matrix(12,0,0,12,334.2,676.6)" />
<use xlink:href="#f1_1e" transform="matrix(12,0,0,12,349.9,676.6)" />
<use xlink:href="#f1_1n" transform="matrix(12,0,0,12,355.7,676.6)" />
<use xlink:href="#f1_1q" transform="matrix(12,0,0,12,364.6,676.6)" />
<use xlink:href="#f1_1o" transform="matrix(12,0,0,12,377.2,676.6)" />
<use xlink:href="#f1_19" transform="matrix(12,0,0,12,387.5,676.6)" />
<use xlink:href="#f1_1s" transform="matrix(12,0,0,12,397.4,676.6)" />
<use xlink:href="#f1_1g" transform="matrix(12,0,0,12,404.3,676.6)" />
<use xlink:href="#f1_1c" transform="matrix(12,0,0,12,419.9,676.6)" />
<use xlink:href="#f1_1h" transform="matrix(12,0,0,12,430.2,676.6)" />
<use xlink:href="#f1_1e" transform="matrix(12,0,0,12,435.6,676.6)" />
<use xlink:href="#f1_1e" transform="matrix(12,0,0,12,441.5,676.6)" />
<use xlink:href="#f1_1d" transform="matrix(12,0,0,12,447.3,676.6)" />
<use xlink:href="#f1_1q" transform="matrix(12,0,0,12,456.2,676.6)" />
<use xlink:href="#f1_1d" transform="matrix(12,0,0,12,464,676.6)" />
<use xlink:href="#f1_1m" transform="matrix(12,0,0,12,472.9,676.6)" />
<use xlink:href="#f1_1b" transform="matrix(12,0,0,12,483.7,676.6)" />
<use xlink:href="#f1_1d" transform="matrix(12,0,0,12,491.5,676.6)" />
<use xlink:href="#f1_1h" transform="matrix(12,0,0,12,505.2,676.6)" />
<use xlink:href="#f1_1m" transform="matrix(12,0,0,12,510.7,676.6)" />
<use xlink:href="#f1_18" transform="matrix(12,0,0,12,526.3,676.6)" />
<use xlink:href="#f1_1n" transform="matrix(12,0,0,12,538.9,676.6)" />
<use xlink:href="#f1_1t" transform="matrix(12,0,0,12,547.8,676.6)" />
<use xlink:href="#f1_1m" transform="matrix(12,0,0,12,558.7,676.6)" />
<use xlink:href="#f1_1f" transform="matrix(12,0,0,12,569.5,676.6)" />
<use xlink:href="#f1_20" transform="matrix(12,0,0,12,579.1,676.6)" />
<use xlink:href="#f1_1r" transform="matrix(12,0,0,12,582.5,676.6)" />
<use xlink:href="#f1_1c" transform="matrix(12,0,0,12,595.5,676.6)" />
<use xlink:href="#f1_1n" transform="matrix(12,0,0,12,605.7,676.6)" />
<use xlink:href="#f1_1t" transform="matrix(12,0,0,12,614.6,676.6)" />
<use xlink:href="#f1_1a" transform="matrix(12,0,0,12,625.4,676.6)" />
<use xlink:href="#f1_1k" transform="matrix(12,0,0,12,635.4,676.6)" />
<use xlink:href="#f1_1d" transform="matrix(12,0,0,12,640.8,676.6)" />
<use xlink:href="#f1_1r" transform="matrix(12,0,0,12,654.5,676.6)" />
<use xlink:href="#f1_1k" transform="matrix(12,0,0,12,662.7,676.6)" />
<use xlink:href="#f1_1h" transform="matrix(12,0,0,12,668.2,676.6)" />
<use xlink:href="#f1_1s" transform="matrix(12,0,0,12,673.6,676.6)" />
<use xlink:href="#f1_1d" transform="matrix(12,0,0,12,685.3,676.6)" />
<use xlink:href="#f1_1w" transform="matrix(12,0,0,12,694.2,676.6)" />
<use xlink:href="#f1_1o" transform="matrix(12,0,0,12,703.8,676.6)" />
<use xlink:href="#f1_1d" transform="matrix(12,0,0,12,714,676.6)" />
<use xlink:href="#f1_1q" transform="matrix(12,0,0,12,722.9,676.6)" />
<use xlink:href="#f1_1h" transform="matrix(12,0,0,12,730.7,676.6)" />
<use xlink:href="#f1_1l" transform="matrix(12,0,0,12,736.2,676.6)" />
<use xlink:href="#f1_1d" transform="matrix(12,0,0,12,752.2,676.6)" />
<use xlink:href="#f1_1m" transform="matrix(12,0,0,12,761.1,676.6)" />
<use xlink:href="#f1_1s" transform="matrix(12,0,0,12,772,676.6)" />
<use xlink:href="#f1_19" transform="matrix(12,0,0,12,173,702.4)" />
<use xlink:href="#f1_1m" transform="matrix(12,0,0,12,183.3,702.4)" />
<use xlink:href="#f1_1c" transform="matrix(12,0,0,12,194.4,702.4)" />
<use xlink:href="#f1_1n" transform="matrix(12,0,0,12,211.2,702.4)" />
<use xlink:href="#f1_1a" transform="matrix(12,0,0,12,220.4,702.4)" />
<use xlink:href="#f1_1s" transform="matrix(12,0,0,12,230.6,702.4)" />
<use xlink:href="#f1_19" transform="matrix(12,0,0,12,237.8,702.4)" />
<use xlink:href="#f1_1h" transform="matrix(12,0,0,12,248,702.4)" />
<use xlink:href="#f1_1m" transform="matrix(12,0,0,12,253.8,702.4)" />
<use xlink:href="#f1_1s" transform="matrix(12,0,0,12,271.2,702.4)" />
<use xlink:href="#f1_1g" transform="matrix(12,0,0,12,278.4,702.4)" />
<use xlink:href="#f1_1d" transform="matrix(12,0,0,12,289.6,702.4)" />
<use xlink:href="#f1_1b" transform="matrix(12,0,0,12,305,702.4)" />
<use xlink:href="#f1_1n" transform="matrix(12,0,0,12,313.1,702.4)" />
<use xlink:href="#f1_1m" transform="matrix(12,0,0,12,322.3,702.4)" />
<use xlink:href="#f1_1c" transform="matrix(12,0,0,12,333.5,702.4)" />
<use xlink:href="#f1_1h" transform="matrix(12,0,0,12,344,702.4)" />
<use xlink:href="#f1_1s" transform="matrix(12,0,0,12,349.8,702.4)" />
<use xlink:href="#f1_1h" transform="matrix(12,0,0,12,357,702.4)" />
<use xlink:href="#f1_1n" transform="matrix(12,0,0,12,362.8,702.4)" />
<use xlink:href="#f1_1m" transform="matrix(12,0,0,12,372,702.4)" />
<use xlink:href="#f1_1r" transform="matrix(12,0,0,12,383.1,702.4)" />
<use xlink:href="#f1_1e" transform="matrix(12,0,0,12,397.8,702.4)" />
<use xlink:href="#f1_1n" transform="matrix(12,0,0,12,404,702.4)" />
<use xlink:href="#f1_1q" transform="matrix(12,0,0,12,413.2,702.4)" />
<use xlink:href="#f1_1b" transform="matrix(12,0,0,12,427.5,702.4)" />
<use xlink:href="#f1_1n" transform="matrix(12,0,0,12,435.7,702.4)" />
<use xlink:href="#f1_1m" transform="matrix(12,0,0,12,444.9,702.4)" />
<use xlink:href="#f1_1r" transform="matrix(12,0,0,12,456,702.4)" />
<use xlink:href="#f1_1s" transform="matrix(12,0,0,12,464.5,702.4)" />
<use xlink:href="#f1_1q" transform="matrix(12,0,0,12,471.7,702.4)" />
<use xlink:href="#f1_1t" transform="matrix(12,0,0,12,479.8,702.4)" />
<use xlink:href="#f1_1b" transform="matrix(12,0,0,12,491,702.4)" />
<use xlink:href="#f1_1s" transform="matrix(12,0,0,12,499.1,702.4)" />
<use xlink:href="#f1_1h" transform="matrix(12,0,0,12,506.3,702.4)" />
<use xlink:href="#f1_1u" transform="matrix(12,0,0,12,512.1,702.4)" />
<use xlink:href="#f1_1d" transform="matrix(12,0,0,12,522,702.4)" />
<use xlink:href="#f1_19" transform="matrix(12,0,0,12,537.4,702.4)" />
<use xlink:href="#f1_1m" transform="matrix(12,0,0,12,547.6,702.4)" />
<use xlink:href="#f1_1c" transform="matrix(12,0,0,12,558.8,702.4)" />
<use xlink:href="#f1_1c" transform="matrix(12,0,0,12,575.6,702.4)" />
<use xlink:href="#f1_1d" transform="matrix(12,0,0,12,586.1,702.4)" />
<use xlink:href="#f1_1r" transform="matrix(12,0,0,12,595.3,702.4)" />
<use xlink:href="#f1_1s" transform="matrix(12,0,0,12,603.8,702.4)" />
<use xlink:href="#f1_1q" transform="matrix(12,0,0,12,611,702.4)" />
<use xlink:href="#f1_1t" transform="matrix(12,0,0,12,619.1,702.4)" />
<use xlink:href="#f1_1b" transform="matrix(12,0,0,12,630.3,702.4)" />
<use xlink:href="#f1_1s" transform="matrix(12,0,0,12,638.4,702.4)" />
<use xlink:href="#f1_1h" transform="matrix(12,0,0,12,645.6,702.4)" />
<use xlink:href="#f1_1u" transform="matrix(12,0,0,12,651.4,702.4)" />
<use xlink:href="#f1_1d" transform="matrix(12,0,0,12,661.2,702.4)" />
<use xlink:href="#f1_1h" transform="matrix(12,0,0,12,676.7,702.4)" />
<use xlink:href="#f1_1m" transform="matrix(12,0,0,12,682.4,702.4)" />
<use xlink:href="#f1_1s" transform="matrix(12,0,0,12,693.6,702.4)" />
<use xlink:href="#f1_1d" transform="matrix(12,0,0,12,700.8,702.4)" />
<use xlink:href="#f1_1q" transform="matrix(12,0,0,12,710,702.4)" />
<use xlink:href="#f1_1e" transform="matrix(12,0,0,12,718.1,702.4)" />
<use xlink:href="#f1_1d" transform="matrix(12,0,0,12,724.2,702.4)" />
<use xlink:href="#f1_1q" transform="matrix(12,0,0,12,733.4,702.4)" />
<use xlink:href="#f1_1d" transform="matrix(12,0,0,12,741.6,702.4)" />
<use xlink:href="#f1_1m" transform="matrix(12,0,0,12,750.7,702.4)" />
<use xlink:href="#f1_1b" transform="matrix(12,0,0,12,761.9,702.4)" />
<use xlink:href="#f1_1d" transform="matrix(12,0,0,12,770,702.4)" />
<use xlink:href="#f1_19" transform="matrix(12,0,0,12,173,728)" />
<use xlink:href="#f1_1s" transform="matrix(12,0,0,12,183.3,728)" />
<use xlink:href="#f1_19" transform="matrix(12,0,0,12,195.9,728)" />
<use xlink:href="#f1_1o" transform="matrix(12,0,0,12,211.7,728)" />
<use xlink:href="#f1_1n" transform="matrix(12,0,0,12,222.2,728)" />
<use xlink:href="#f1_1h" transform="matrix(12,0,0,12,231.4,728)" />
<use xlink:href="#f1_1m" transform="matrix(12,0,0,12,237.2,728)" />
<use xlink:href="#f1_1s" transform="matrix(12,0,0,12,248.4,728)" />
<use xlink:href="#f1_1n" transform="matrix(12,0,0,12,261,728)" />
<use xlink:href="#f1_1m" transform="matrix(12,0,0,12,270.2,728)" />
<use xlink:href="#f1_1s" transform="matrix(12,0,0,12,286.9,728)" />
<use xlink:href="#f1_1g" transform="matrix(12,0,0,12,294.1,728)" />
<use xlink:href="#f1_1d" transform="matrix(12,0,0,12,305.2,728)" />
<use xlink:href="#f1_1r" transform="matrix(12,0,0,12,319.9,728)" />
<use xlink:href="#f1_1b" transform="matrix(12,0,0,12,328.4,728)" />
<use xlink:href="#f1_1q" transform="matrix(12,0,0,12,336.5,728)" />
<use xlink:href="#f1_1d" transform="matrix(12,0,0,12,344.7,728)" />
<use xlink:href="#f1_1d" transform="matrix(12,0,0,12,353.8,728)" />
<use xlink:href="#f1_1m" transform="matrix(12,0,0,12,363,728)" />
<use xlink:href="#f1_7" transform="matrix(12,0,0,12,374.2,728)" />
<use xlink:href="#f1_3" transform="matrix(12,0,0,12,129.7,762.3)" />
<use xlink:href="#f1_1a" transform="matrix(12,0,0,12,135.5,762.3)" />
<use xlink:href="#f1_4" transform="matrix(12,0,0,12,145.3,762.3)" />
<use xlink:href="#f1_14" transform="matrix(12,0,0,12,173,762.3)" />
<use xlink:href="#f1_1g" transform="matrix(12,0,0,12,185.2,762.3)" />
<use xlink:href="#f1_1d" transform="matrix(12,0,0,12,196.4,762.3)" />
<use xlink:href="#f1_1h" transform="matrix(12,0,0,12,211.7,762.3)" />
<use xlink:href="#f1_1m" transform="matrix(12,0,0,12,217.5,762.3)" />
<use xlink:href="#f1_1s" transform="matrix(12,0,0,12,228.6,762.3)" />
<use xlink:href="#f1_1d" transform="matrix(12,0,0,12,235.8,762.3)" />
<use xlink:href="#f1_1m" transform="matrix(12,0,0,12,245,762.3)" />
<use xlink:href="#f1_1r" transform="matrix(12,0,0,12,256.1,762.3)" />
<use xlink:href="#f1_1h" transform="matrix(12,0,0,12,264.6,762.3)" />
<use xlink:href="#f1_1s" transform="matrix(12,0,0,12,270.4,762.3)" />
<use xlink:href="#f1_1x" transform="matrix(12,0,0,12,277.6,762.3)" />
<use xlink:href="#f1_19" transform="matrix(12,0,0,12,293.6,762.3)" />
<use xlink:href="#f1_1s" transform="matrix(12,0,0,12,303.8,762.3)" />
<use xlink:href="#f1_1s" transform="matrix(12,0,0,12,317.1,762.3)" />
<use xlink:href="#f1_1g" transform="matrix(12,0,0,12,324.3,762.3)" />
<use xlink:href="#f1_1d" transform="matrix(12,0,0,12,335.4,762.3)" />
<use xlink:href="#f1_1b" transform="matrix(12,0,0,12,350.7,762.3)" />
<use xlink:href="#f1_1d" transform="matrix(12,0,0,12,358.8,762.3)" />
<use xlink:href="#f1_1m" transform="matrix(12,0,0,12,368,762.3)" />
<use xlink:href="#f1_1s" transform="matrix(12,0,0,12,379.2,762.3)" />
<use xlink:href="#f1_1q" transform="matrix(12,0,0,12,386.3,762.3)" />
<use xlink:href="#f1_19" transform="matrix(12,0,0,12,394.5,762.3)" />
<use xlink:href="#f1_1k" transform="matrix(12,0,0,12,404.7,762.3)" />
<use xlink:href="#f1_1l" transform="matrix(12,0,0,12,416.6,762.3)" />
<use xlink:href="#f1_19" transform="matrix(12,0,0,12,433,762.3)" />
<use xlink:href="#f1_1w" transform="matrix(12,0,0,12,443.2,762.3)" />
<use xlink:href="#f1_1h" transform="matrix(12,0,0,12,453,762.3)" />
<use xlink:href="#f1_1l" transform="matrix(12,0,0,12,458.8,762.3)" />
<use xlink:href="#f1_19" transform="matrix(12,0,0,12,475.2,762.3)" />
<use xlink:href="#f1_1h" transform="matrix(12,0,0,12,491.5,762.3)" />
<use xlink:href="#f1_1m" transform="matrix(12,0,0,12,497.3,762.3)" />
<use xlink:href="#f1_18" transform="matrix(12,0,0,12,514.6,762.3)" />
<use xlink:href="#f1_1n" transform="matrix(12,0,0,12,527.5,762.3)" />
<use xlink:href="#f1_1t" transform="matrix(12,0,0,12,536.7,762.3)" />
<use xlink:href="#f1_1m" transform="matrix(12,0,0,12,547.8,762.3)" />
<use xlink:href="#f1_1f" transform="matrix(12,0,0,12,559,762.3)" />
<use xlink:href="#f1_20" transform="matrix(12,0,0,12,568.9,762.3)" />
<use xlink:href="#f1_1r" transform="matrix(12,0,0,12,572.6,762.3)" />
<use xlink:href="#f1_1c" transform="matrix(12,0,0,12,587.2,762.3)" />
<use xlink:href="#f1_1n" transform="matrix(12,0,0,12,597.7,762.3)" />
<use xlink:href="#f1_1t" transform="matrix(12,0,0,12,606.9,762.3)" />
<use xlink:href="#f1_1a" transform="matrix(12,0,0,12,618,762.3)" />
<use xlink:href="#f1_1k" transform="matrix(12,0,0,12,628.3,762.3)" />
<use xlink:href="#f1_1d" transform="matrix(12,0,0,12,634,762.3)" />
<use xlink:href="#f1_1r" transform="matrix(12,0,0,12,649.3,762.3)" />
<use xlink:href="#f1_1k" transform="matrix(12,0,0,12,657.8,762.3)" />
<use xlink:href="#f1_1h" transform="matrix(12,0,0,12,663.6,762.3)" />
<use xlink:href="#f1_1s" transform="matrix(12,0,0,12,669.4,762.3)" />
<use xlink:href="#f1_1d" transform="matrix(12,0,0,12,682.7,762.3)" />
<use xlink:href="#f1_1w" transform="matrix(12,0,0,12,691.9,762.3)" />
<use xlink:href="#f1_1o" transform="matrix(12,0,0,12,701.7,762.3)" />
<use xlink:href="#f1_1d" transform="matrix(12,0,0,12,712.3,762.3)" />
<use xlink:href="#f1_1q" transform="matrix(12,0,0,12,721.5,762.3)" />
<use xlink:href="#f1_1h" transform="matrix(12,0,0,12,729.6,762.3)" />
<use xlink:href="#f1_1l" transform="matrix(12,0,0,12,735.4,762.3)" />
<use xlink:href="#f1_1d" transform="matrix(12,0,0,12,751.7,762.3)" />
<use xlink:href="#f1_1m" transform="matrix(12,0,0,12,760.9,762.3)" />
<use xlink:href="#f1_1s" transform="matrix(12,0,0,12,772.1,762.3)" />
<use xlink:href="#f1_1h" transform="matrix(12,0,0,12,173,807.3)" />
<use xlink:href="#f1_1r" transform="matrix(12,0,0,12,178.7,807.3)" />
<use xlink:href="#f1_t" transform="matrix(12,0,0,12,192.1,807.3)" />
<use xlink:href="#f2_3" transform="matrix(9.6,0,0,9.6,199.4,813.5)" />
<use xlink:href="#f1_7" transform="matrix(12,0,0,12,207.4,807.3)" />
<use xlink:href="#f1_q" transform="matrix(12,0,0,12,222.3,807.3)" />
<use xlink:href="#f1_1h" transform="matrix(12,0,0,12,234.4,807.3)" />
<use xlink:href="#f1_1m" transform="matrix(12,0,0,12,240,807.3)" />
<use xlink:href="#f1_1c" transform="matrix(12,0,0,12,251,807.3)" />
<use xlink:href="#f1_1n" transform="matrix(12,0,0,12,266.4,807.3)" />
<use xlink:href="#f1_1t" transform="matrix(12,0,0,12,275.4,807.3)" />
<use xlink:href="#f1_1s" transform="matrix(12,0,0,12,286.4,807.3)" />
<use xlink:href="#f1_1s" transform="matrix(12,0,0,12,298.4,807.3)" />
<use xlink:href="#f1_1g" transform="matrix(12,0,0,12,305.5,807.3)" />
<use xlink:href="#f1_1d" transform="matrix(12,0,0,12,316.5,807.3)" />
<use xlink:href="#f1_1h" transform="matrix(12,0,0,12,330.5,807.3)" />
<use xlink:href="#f1_1m" transform="matrix(12,0,0,12,336.1,807.3)" />
<use xlink:href="#f1_1s" transform="matrix(12,0,0,12,347.1,807.3)" />
<use xlink:href="#f1_1d" transform="matrix(12,0,0,12,354.2,807.3)" />
<use xlink:href="#f1_1m" transform="matrix(12,0,0,12,363.2,807.3)" />
<use xlink:href="#f1_1r" transform="matrix(12,0,0,12,374.2,807.3)" />
<use xlink:href="#f1_1h" transform="matrix(12,0,0,12,382.5,807.3)" />
<use xlink:href="#f1_1s" transform="matrix(12,0,0,12,388.2,807.3)" />
<use xlink:href="#f1_1x" transform="matrix(12,0,0,12,395.2,807.3)" />
<use xlink:href="#f1_19" transform="matrix(12,0,0,12,409.9,807.3)" />
<use xlink:href="#f1_1s" transform="matrix(12,0,0,12,420,807.3)" />
<use xlink:href="#f1_19" transform="matrix(12,0,0,12,432,807.3)" />
<use xlink:href="#f1_1o" transform="matrix(12,0,0,12,447,807.3)" />
<use xlink:href="#f1_1n" transform="matrix(12,0,0,12,457.4,807.3)" />
<use xlink:href="#f1_1h" transform="matrix(12,0,0,12,466.5,807.3)" />
<use xlink:href="#f1_1m" transform="matrix(12,0,0,12,472.1,807.3)" />
<use xlink:href="#f1_1s" transform="matrix(12,0,0,12,483.1,807.3)" />
<use xlink:href="#f1_1v" transform="matrix(12,0,0,12,495.1,807.3)" />
<use xlink:href="#f1_1g" transform="matrix(12,0,0,12,509.3,807.3)" />
<use xlink:href="#f1_1d" transform="matrix(12,0,0,12,520.3,807.3)" />
<use xlink:href="#f1_1q" transform="matrix(12,0,0,12,529.3,807.3)" />
<use xlink:href="#f1_1d" transform="matrix(12,0,0,12,537.3,807.3)" />
<use xlink:href="#f1_1s" transform="matrix(12,0,0,12,551.3,807.3)" />
<use xlink:href="#f1_1g" transform="matrix(12,0,0,12,558.3,807.3)" />
<use xlink:href="#f1_1d" transform="matrix(12,0,0,12,569.3,807.3)" />
<use xlink:href="#f1_1o" transform="matrix(12,0,0,12,583.3,807.3)" />
<use xlink:href="#f1_19" transform="matrix(12,0,0,12,593.8,807.3)" />
<use xlink:href="#f1_1s" transform="matrix(12,0,0,12,603.8,807.3)" />
<use xlink:href="#f1_1g" transform="matrix(12,0,0,12,610.9,807.3)" />
<use xlink:href="#f1_1c" transform="matrix(12,0,0,12,626.8,807.3)" />
<use xlink:href="#f1_1h" transform="matrix(12,0,0,12,637.2,807.3)" />
<use xlink:href="#f1_1e" transform="matrix(12,0,0,12,642.9,807.3)" />
<use xlink:href="#f1_1e" transform="matrix(12,0,0,12,648.9,807.3)" />
<use xlink:href="#f1_1d" transform="matrix(12,0,0,12,654.9,807.3)" />
<use xlink:href="#f1_1q" transform="matrix(12,0,0,12,663.9,807.3)" />
<use xlink:href="#f1_1d" transform="matrix(12,0,0,12,671.9,807.3)" />
<use xlink:href="#f1_1m" transform="matrix(12,0,0,12,680.9,807.3)" />
<use xlink:href="#f1_1b" transform="matrix(12,0,0,12,691.9,807.3)" />
<use xlink:href="#f1_1d" transform="matrix(12,0,0,12,699.9,807.3)" />
<use xlink:href="#f1_1h" transform="matrix(12,0,0,12,713.9,807.3)" />
<use xlink:href="#f1_1r" transform="matrix(12,0,0,12,719.6,807.3)" />
</g>
<path d="M735.9,804.5h11.3" class="g0_101" />
<g fill="#000000" >
<use xlink:href="#f4_2" transform="matrix(12.1,0,0,12.1,736.5,798)" />
<use xlink:href="#f5_q" transform="matrix(12.1,0,0,12.1,736.5,822.1)" />
<use xlink:href="#f1_5" transform="matrix(12,0,0,12,751.1,807.3)" />
</g>
<path d="M764,803.3h11.6" class="g1_101" />
<g fill="#000000" >
<use xlink:href="#f4_2" transform="matrix(12.1,0,0,12.1,764.7,796.8)" />
</g>
<g clip-path="url(#c0_101)">
<g fill="#000000" >
<use xlink:href="#f5_o" transform="matrix(12.1,0,0,12.1,764.5,820.9)" />
</g>
</g>
<g fill="#000000" >
<use xlink:href="#f1_19" transform="matrix(12,0,0,12,173,870)" />
<use xlink:href="#f1_1m" transform="matrix(12,0,0,12,183.2,870)" />
<use xlink:href="#f1_1c" transform="matrix(12,0,0,12,194.4,870)" />
</g>
<path d="M213.3,866h11.4" class="g1_101" />
<g clip-path="url(#c1_101)">
<g fill="#000000" >
<use xlink:href="#f4_2" transform="matrix(12.1,0,0,12.1,213.8,859.5)" />
</g>
</g>
<g clip-path="url(#c2_101)">
<g fill="#000000" >
<use xlink:href="#f5_n" transform="matrix(12.1,0,0,12.1,213.8,883.5)" />
</g>
</g>
<g fill="#000000" >
<use xlink:href="#f1_7" transform="matrix(12,0,0,12,228.6,870)" />
</g>
<defs>
<path d="M354,0V148H581c3,0,6,0,9,0c52,0,91,12,113,35c24,25,36,66,36,124V1688c0,31,-9,57,-30,74c-20,16,-49,26,-90,27H296v148c161,9,295,28,404,58c110,29,221,74,334,133h119V261c0,-36,10,-65,31,-85c18,-19,45,-28,77,-28c2,0,5,0,7,0h284V0Z" 
id="f0_6"
transform="scale(4.8828125E-4,-4.8828125E-4)" />

<path d="M932,89c2,0,3,0,5,0c1,0,2,0,4,0c77,0,142,39,193,119c53,79,78,217,78,408c0,185,-23,313,-72,385c-48,70,-112,107,-190,108C874,1108,805,1065,743,982C681,897,651,778,651,622c0,-179,33,-321,98,-423C795,127,856,89,932,89Zm9,-148C717,-59,538,21,406,183C254,373,177,633,177,963c0,372,93,675,278,904c165,203,368,306,611,306c156,0,280,-40,375,-117c94,-78,140,-166,140,-267c0,-75,-21,-136,-67,-182c-44,-47,-101,-70,-168,-70c-60,0,-108,18,-148,60c-40,39,-60,90,-60,151c0,44,14,87,37,131c15,25,23,46,23,63c0,23,-11,43,-34,59c-23,16,-55,23,-101,25C932,2024,834,1954,768,1813C686,1639,648,1403,651,1100c66,72,136,125,208,160c71,36,146,55,224,55c148,0,280,-53,397,-157c118,-104,176,-260,176,-467c0,-227,-66,-408,-198,-544C1326,8,1153,-59,941,-59Z" 
id="f0_b"
transform="scale(4.8828125E-4,-4.8828125E-4)" />

<path d="M798,-59C611,-59,460,-10,347,87C235,183,177,303,177,440c0,92,25,163,75,218c49,54,110,80,185,81c67,-1,121,-22,163,-65c45,-41,65,-93,65,-155c0,-44,-10,-84,-29,-114C616,371,578,341,521,310C480,286,458,263,458,241c0,-35,22,-67,66,-93C586,108,659,89,742,89c3,0,7,0,10,0c1,0,3,0,5,0c106,0,191,47,254,137c66,92,98,249,98,474c0,188,-30,325,-93,411c-61,87,-141,130,-237,131c-44,-1,-91,-11,-143,-27c-52,-17,-107,-43,-167,-77c0,-81,-11,-134,-31,-163C420,947,394,932,359,932c-1,0,-3,0,-5,0c-2,0,-5,0,-7,0c-29,0,-51,7,-67,23c-19,17,-28,38,-28,64c0,38,29,98,89,177l73,977c217,-48,411,-74,584,-74c5,0,10,0,15,0c7,0,13,0,20,0c127,0,233,14,318,41c35,11,56,17,62,19c14,-2,22,-12,22,-31c0,-69,-26,-140,-78,-215c-52,-77,-119,-133,-204,-171c-79,-37,-179,-57,-301,-57c-4,0,-9,0,-13,0c-6,0,-12,0,-19,0c-91,0,-194,11,-307,31L481,1303c77,34,147,58,214,75c66,17,128,26,187,26c192,0,359,-66,495,-194c137,-130,204,-302,204,-516c0,-223,-70,-405,-215,-544C1222,9,1033,-59,798,-59Z" 
id="f0_a"
transform="scale(4.8828125E-4,-4.8828125E-4)" />

<path d="M8,0L681,2261H880L205,0Z" 
id="f1_8"
transform="scale(4.8828125E-4,-4.8828125E-4)" />

<path d="M104,0V148h63c1,0,3,0,5,0c88,0,162,34,224,103c61,68,91,158,91,268V1943c-71,113,-165,170,-278,171H104v147H816L2055,713V1762c0,102,-29,184,-89,247c-59,61,-142,96,-252,105v147h828V2114c-120,-13,-208,-48,-259,-103c-54,-58,-80,-141,-80,-251V0H2043L636,1758V545c0,-139,32,-239,94,-304c63,-61,140,-93,231,-93c2,0,4,0,6,0h38V0Z" 
id="f0_l"
transform="scale(4.8828125E-4,-4.8828125E-4)" />

<path d="M993,-606C830,-460,706,-338,622,-236C486,-72,382,99,312,280C241,461,206,651,206,848c0,194,34,377,100,553c65,174,163,342,290,501c88,109,221,243,397,403l41,-84C886,2067,776,1930,704,1806C634,1681,581,1540,544,1383C506,1225,487,1043,487,839c0,-200,20,-378,58,-532C585,151,642,8,715,-118c73,-130,179,-266,319,-408l-41,-80Z" 
id="f1_3"
transform="scale(4.8828125E-4,-4.8828125E-4)" />

<path d="M652,60c2,0,4,0,6,0c2,0,4,0,6,0c119,0,224,45,311,137c90,92,134,208,134,348V753C846,717,660,658,550,576C469,513,429,426,429,313c0,-81,22,-143,63,-188C533,82,586,60,652,60ZM597,-43C451,-43,339,-13,263,49C186,112,148,193,148,292c0,148,87,270,263,368c174,98,408,163,698,197v226c0,80,-30,147,-93,205c-61,56,-139,85,-234,87c-87,-2,-163,-20,-227,-58c-45,-29,-68,-57,-68,-83c0,-16,13,-41,34,-74c27,-43,41,-81,41,-112c0,-49,-15,-87,-44,-116C489,903,453,888,407,888c-2,0,-4,0,-7,0c-2,0,-4,0,-6,0c-48,0,-88,16,-121,50c-33,35,-51,80,-51,135c0,100,58,192,172,278c115,84,264,126,451,128c173,-2,304,-40,394,-113c90,-77,136,-168,136,-275V295c0,-72,11,-124,32,-156c22,-34,48,-50,81,-50c2,0,3,0,5,0c1,0,3,0,5,0c38,0,78,15,118,44l54,-76C1595,-10,1513,-43,1421,-43c-70,0,-130,16,-177,51c-48,35,-91,99,-126,189C1022,99,937,35,863,3C788,-28,701,-43,597,-43Z" 
id="f1_19"
transform="scale(4.8828125E-4,-4.8828125E-4)" />

<path d="M70,-606l-41,80c141,142,246,278,321,406C423,8,480,151,518,307c40,154,58,332,58,530c0,206,-18,388,-55,546c-38,157,-93,298,-165,423C287,1930,177,2069,29,2221l41,84C249,2143,379,2012,461,1913C590,1754,689,1586,756,1409C823,1230,857,1043,857,848C857,654,825,471,759,301C695,128,597,-39,466,-204C373,-320,241,-454,70,-606Z" 
id="f1_4"
transform="scale(4.8828125E-4,-4.8828125E-4)" />

<path d="M929,-43L296,1956c-24,76,-53,125,-84,151c-32,24,-82,35,-152,36v118H813V2143H759c-79,-1,-131,-7,-154,-18c-21,-14,-34,-32,-34,-56c0,-19,10,-48,23,-84l11,-29L1057,526l410,1326c-46,143,-81,229,-107,253c-26,25,-78,37,-155,38H1065v118h961V2143H1925c-86,-1,-142,-7,-168,-19c-26,-14,-38,-34,-38,-60c0,-23,3,-41,9,-58L2195,526l379,1281c17,48,25,95,25,141c0,66,-17,115,-48,148c-32,31,-79,46,-143,47h-72v118h709V2143c-60,-9,-107,-24,-144,-45c-35,-22,-67,-52,-93,-92c-24,-41,-52,-107,-79,-199L2180,-43H2066L1545,1607L1033,-43Z" 
id="f1_17"
transform="scale(4.8828125E-4,-4.8828125E-4)" />

<path d="M104,0V118h87c60,0,102,10,127,33c24,23,36,58,36,107V1962c0,59,-15,105,-48,136c-33,29,-80,44,-141,45H60v118l560,31V1186c75,96,156,169,242,218c85,49,175,73,270,75c92,-2,174,-25,246,-66c57,-36,104,-98,144,-183c41,-87,59,-190,59,-307V243c0,-44,12,-76,34,-96c21,-20,55,-29,99,-29h119V0H1065V118h82c65,0,109,9,133,30c23,22,35,52,35,95V923c0,117,-27,209,-82,278c-57,66,-128,99,-215,99c-68,0,-130,-20,-188,-56C772,1205,723,1147,681,1071C642,995,620,914,620,828V258c0,-52,13,-88,32,-108c20,-23,55,-32,103,-32H872V0Z" 
id="f1_1g"
transform="scale(4.8828125E-4,-4.8828125E-4)" />

<path d="M316,-606c-73,0,-131,22,-175,65c-45,42,-68,96,-68,159c0,45,14,85,43,116c28,30,63,45,104,45c38,0,70,-13,96,-39c26,-26,38,-58,38,-93c0,-13,-1,-28,-6,-48c-3,-15,-6,-27,-6,-33c0,-26,17,-39,48,-39c33,0,71,13,114,37c41,24,81,64,118,118c36,55,102,175,195,361L267,1199c-18,35,-41,61,-70,80c-27,17,-69,29,-124,36v120H755V1315H691c-60,0,-100,-7,-121,-21c-22,-15,-34,-35,-34,-60c0,-13,3,-24,8,-35L943,361l308,692c23,47,34,93,34,140c0,35,-15,63,-44,83c-31,20,-89,32,-176,39v120h591V1315c-116,-10,-195,-58,-237,-139L871,-49C775,-265,684,-412,597,-489C510,-566,416,-606,316,-606Z" 
id="f1_1x"
transform="scale(4.8828125E-4,-4.8828125E-4)" />

<path d="M781,118c111,0,206,52,284,159c79,105,118,261,118,466c0,192,-42,343,-127,455c-72,98,-162,146,-271,146c-108,0,-195,-45,-259,-136C461,1118,429,966,429,752c0,-234,32,-398,98,-492C593,165,677,118,781,118ZM726,-14C565,-14,429,52,316,188C205,324,148,504,148,729c0,241,72,434,216,579c113,113,243,169,389,171c90,-2,171,-26,243,-72c72,-47,135,-118,187,-211v808c0,42,-16,75,-48,101c-32,25,-82,37,-150,38H888v118l560,31V330c0,-76,17,-131,48,-163c32,-34,79,-49,140,-49h109V0H1227l-44,292C1126,188,1059,112,982,61C906,9,820,-14,726,-14Z" 
id="f1_1c"
transform="scale(4.8828125E-4,-4.8828125E-4)" />

<path d="M784,60c117,0,215,53,287,157c75,105,112,280,112,522c0,224,-36,384,-110,485c-74,101,-172,149,-294,151C665,1373,570,1322,495,1216C422,1111,385,947,385,721C385,490,422,322,495,217C567,113,660,60,774,60c2,0,4,0,5,0c2,0,3,0,5,0ZM770,-43C585,-43,426,24,298,167C168,307,104,490,104,717c0,224,66,407,194,548c131,141,290,212,481,214c194,-2,356,-72,488,-211c131,-140,197,-324,197,-551c0,-158,-29,-292,-89,-402C1317,203,1233,116,1123,52C1014,-11,897,-43,770,-43Z" 
id="f1_1n"
transform="scale(4.8828125E-4,-4.8828125E-4)" />

<path d="M1060,798c40,0,71,12,92,38c20,24,31,67,31,130c0,113,-36,209,-109,288c-73,80,-159,119,-258,121C704,1373,611,1326,535,1230C457,1134,417,990,414,798ZM816,-43C623,-43,461,24,330,163C199,303,133,480,133,698c0,231,66,420,195,564c132,144,292,215,483,217c141,-2,263,-38,364,-110c102,-73,180,-179,231,-313c36,-97,56,-217,58,-361H414C420,478,461,325,539,238C627,139,739,89,874,89c2,0,4,0,6,0c1,0,3,0,4,0c201,0,363,114,486,340l94,-44C1314,98,1098,-43,816,-43Z" 
id="f1_1d"
transform="scale(4.8828125E-4,-4.8828125E-4)" />

<path d="M784,-43C642,-43,509,2,387,96L275,-28H193L162,532H266C332,353,406,229,489,160C571,93,672,60,791,60c3,0,5,0,8,0c3,0,7,0,10,0c110,0,193,24,253,71c61,49,91,113,91,190c0,43,-12,79,-33,113c-23,32,-54,56,-92,73c-40,16,-142,40,-307,72C564,611,454,643,391,678C328,712,280,759,244,820c-35,60,-51,126,-51,198c0,106,35,204,105,293c90,111,217,166,380,168c126,-2,240,-52,346,-154l100,110h63l40,-518H1123c-44,160,-105,278,-180,350c-77,71,-170,106,-280,108c-96,-2,-171,-27,-226,-79c-55,-51,-83,-115,-83,-187c0,-67,26,-122,75,-163C480,900,579,866,726,842c172,-29,284,-54,336,-74c81,-30,143,-76,188,-139c44,-62,65,-140,65,-229C1315,275,1267,170,1166,84C1066,-1,938,-43,784,-43Z" 
id="f1_1r"
transform="scale(4.8828125E-4,-4.8828125E-4)" />

<path d="M788,-14C663,-14,556,28,471,115C383,200,341,345,341,550v622c0,53,-22,95,-66,124c-31,19,-92,30,-186,35v117l518,16V523c0,-117,27,-205,84,-268c56,-62,128,-93,217,-93c108,0,201,44,279,136c76,92,115,206,115,344v530c0,49,-17,85,-52,113c-35,26,-103,41,-200,46v117l518,16V286c0,-55,13,-97,42,-126c29,-29,71,-42,123,-42h85V0L1331,-14l-29,312C1216,193,1132,115,1048,63C963,11,877,-14,788,-14Z" 
id="f1_1t"
transform="scale(4.8828125E-4,-4.8828125E-4)" />

<path d="M118,0V118h99c50,0,89,9,115,30c24,19,38,45,38,75v909c0,58,-16,106,-48,136c-30,31,-76,47,-134,47H118v120l473,29c20,-89,35,-191,45,-307c62,105,137,186,223,239c87,54,184,81,293,83c93,-2,173,-21,235,-58c63,-38,115,-98,153,-179c38,-81,57,-173,57,-273V263c0,-54,12,-90,35,-112c23,-23,62,-33,116,-33h101V0H1079V118h71c68,0,115,9,141,32c26,21,40,53,40,96V863c0,133,-20,234,-60,300c-55,91,-137,137,-249,137c-110,0,-202,-47,-275,-139C672,1066,636,946,636,796V263c0,-54,12,-92,36,-112c23,-23,63,-33,116,-33H888V0Z" 
id="f1_1m"
transform="scale(4.8828125E-4,-4.8828125E-4)" />

<path d="M1006,89c105,0,187,42,242,128c75,111,112,278,112,495c0,226,-34,388,-101,486c-66,98,-151,146,-257,146c-110,0,-203,-55,-281,-165C645,1069,607,911,607,704C607,493,643,338,717,238C790,139,883,89,996,89c1,0,3,0,5,0c2,0,3,0,5,0ZM89,-590v117H193c48,0,87,10,110,29c25,19,38,45,38,75V1121c0,68,-17,117,-51,147c-33,28,-101,44,-201,47v120l463,29c22,-103,36,-201,39,-294c71,112,144,190,220,237c78,46,162,70,252,72c98,-2,191,-32,280,-93c89,-61,159,-150,215,-268c55,-119,83,-252,83,-398c0,-237,-67,-431,-202,-579C1326,17,1193,-43,1037,-43c-88,0,-169,21,-241,67C726,69,662,138,607,229V-343c0,-44,10,-76,30,-93c28,-24,67,-37,115,-37H857V-590Z" 
id="f1_1o"
transform="scale(4.8828125E-4,-4.8828125E-4)" />

<path d="M89,0V118H238c51,0,86,10,110,33c25,22,37,54,37,95V1983c0,49,-14,87,-40,112c-36,30,-81,47,-133,48H89v118l562,31V214c0,-29,7,-51,24,-66c26,-21,57,-30,93,-30H917V0Z" 
id="f1_1k"
transform="scale(4.8828125E-4,-4.8828125E-4)" />

<path d="M104,0V118H241c48,0,83,9,107,27c25,18,37,41,37,69v903c0,67,-14,117,-43,150c-27,32,-67,48,-120,48H104v120l503,29V889c55,193,120,339,197,440c78,98,172,148,287,150c76,-2,139,-26,185,-73c46,-49,70,-115,70,-194c0,-66,-15,-117,-46,-153c-29,-36,-66,-54,-111,-54c-1,0,-3,0,-5,0c-2,0,-4,0,-5,0c-42,0,-76,17,-102,46c-29,31,-43,73,-43,127c0,34,6,66,16,98c10,24,15,41,15,47c0,15,-9,21,-28,23c-39,-2,-85,-26,-137,-73C830,1202,776,1108,738,987C680,799,651,649,651,536V226c0,-35,12,-63,38,-81c26,-18,67,-27,128,-27h188V0Z" 
id="f1_1q"
transform="scale(4.8828125E-4,-4.8828125E-4)" />

<path d="M89,0V118H248c47,0,80,9,103,32c22,20,34,52,34,93v875c0,54,-17,97,-49,124c-33,28,-81,43,-145,44H73v118l578,31V218c0,-33,9,-58,26,-70c26,-21,56,-30,95,-30H946V0ZM474,1922c-43,0,-81,17,-113,47c-33,31,-51,71,-51,115c0,41,18,79,52,113c34,32,73,49,118,50c46,-1,85,-18,119,-50c35,-34,52,-72,52,-116c0,-44,-17,-81,-51,-112c-32,-30,-70,-47,-114,-47c-2,0,-4,0,-6,0c-2,0,-4,0,-6,0Z" 
id="f1_1h"
transform="scale(4.8828125E-4,-4.8828125E-4)" />

<path d="M801,-502c175,0,308,29,397,86c88,58,133,121,133,191c0,41,-14,79,-42,116c-27,35,-71,63,-132,81C1097,-10,1008,0,892,0C704,0,570,-25,490,-77C411,-129,370,-190,370,-262c0,-69,30,-122,90,-162c79,-52,194,-78,341,-78Zm4,1108c87,0,160,34,217,100c58,67,87,163,87,290c0,115,-30,208,-88,277c-60,67,-133,100,-223,102c-91,-2,-164,-35,-222,-99c-58,-66,-89,-158,-89,-274c0,-127,31,-224,89,-293C633,640,704,606,793,606c2,0,4,0,6,1c2,-1,4,-1,6,-1ZM764,-606c-220,0,-384,40,-491,121c-82,61,-125,132,-125,211c0,58,26,113,80,163c53,49,143,88,269,111C396,24,319,60,269,108c-51,49,-76,110,-76,182c0,66,21,124,64,174c41,49,114,91,220,129C387,639,319,695,275,762c-44,68,-69,144,-69,233c0,136,57,250,165,343c109,94,252,139,427,141c71,-2,140,-12,206,-31c67,-18,131,-47,194,-87c105,97,201,145,290,147c52,-2,96,-17,131,-47c36,-31,51,-69,51,-110c0,-37,-11,-66,-35,-91c-22,-21,-48,-33,-76,-33c-2,0,-4,0,-5,0c-1,0,-3,0,-4,0c-57,0,-96,35,-115,104c-10,29,-25,42,-45,44c-35,-2,-75,-24,-119,-70c46,-61,77,-115,93,-159c17,-46,26,-93,26,-144c0,-91,-21,-171,-64,-240C1283,694,1212,633,1112,581C1016,529,923,503,836,503c-3,0,-5,0,-8,0H662C544,501,466,489,426,464C390,437,370,399,370,350c0,-43,15,-75,47,-96c31,-22,92,-32,177,-32l378,15c189,-2,327,-34,411,-96c84,-65,125,-151,125,-261c0,-122,-47,-226,-145,-308C1230,-547,1030,-606,764,-606Z" 
id="f1_1f"
transform="scale(4.8828125E-4,-4.8828125E-4)" />

<path d="M706,-14C587,-14,493,17,426,81C359,147,325,231,325,338v962H73v101c118,18,207,67,268,144c90,113,139,273,146,481H591V1435h459V1300H591V368c0,-82,20,-143,57,-186c36,-43,84,-64,140,-64c69,0,129,33,176,99c49,66,78,176,86,330h103C1147,356,1103,214,1022,122C941,31,836,-14,706,-14Z" 
id="f1_1s"
transform="scale(4.8828125E-4,-4.8828125E-4)" />

<path d="M73,0V118H194c55,0,93,9,113,27c23,17,34,46,34,86V1300H89v135H341v102c0,254,53,448,160,582c107,133,238,200,396,202c119,-2,211,-29,275,-86c67,-58,99,-133,99,-223c0,-61,-15,-108,-46,-144c-30,-35,-68,-50,-117,-50c-43,0,-78,12,-106,40c-27,27,-41,62,-41,104c0,47,17,85,49,117c27,23,40,42,40,55c0,17,-11,31,-34,46c-23,14,-57,22,-102,23c-87,-1,-159,-40,-219,-116c-59,-76,-88,-189,-88,-339V1435H961V1300H607V257c0,-49,10,-83,33,-101c29,-26,72,-38,127,-38H961V0Z" 
id="f1_1e"
transform="scale(4.8828125E-4,-4.8828125E-4)" />

<path d="M133,0V118H249c44,0,78,9,101,30c23,19,35,45,35,78v926c0,50,-14,89,-40,113c-26,26,-76,43,-152,50v120l414,29c21,-104,36,-202,44,-294c75,112,151,191,227,239c75,45,159,68,250,70c97,-2,178,-29,241,-80c63,-53,111,-139,145,-255c67,110,142,194,225,251c84,55,172,82,270,84c130,-2,228,-41,290,-119c84,-104,126,-237,126,-399V241c0,-44,12,-73,33,-88c32,-23,78,-35,139,-35h78V0H1907V118h76c64,0,110,9,136,30c26,22,40,52,40,93V963c0,106,-26,189,-75,249c-51,58,-116,88,-199,88c-61,0,-116,-18,-166,-52c-51,-35,-90,-85,-119,-148c-42,-92,-63,-171,-63,-234V241c0,-42,12,-74,37,-93c24,-21,61,-30,110,-30h105V0H1021V118h87c55,0,96,9,123,30c28,22,40,48,40,80V897c0,139,-23,243,-70,307c-48,64,-112,96,-193,96c-104,0,-183,-37,-240,-111C691,1083,651,959,651,820V241c0,-44,11,-74,30,-90c31,-23,78,-33,141,-33h79V0Z" 
id="f1_1l"
transform="scale(4.8828125E-4,-4.8828125E-4)" />

<path d="M778,-43C579,-43,417,20,292,153C167,284,104,460,104,678c0,254,69,450,205,590c137,139,298,209,482,211c139,-2,254,-40,344,-115c92,-78,136,-162,136,-255c0,-56,-17,-102,-52,-139c-32,-35,-72,-53,-117,-53c-1,0,-3,0,-5,0c-2,0,-4,0,-6,0c-43,0,-81,16,-112,46c-30,30,-47,68,-47,113c0,42,17,85,49,126c17,19,24,34,24,46c0,28,-18,57,-56,84c-40,28,-92,41,-158,43C671,1373,579,1329,518,1238C429,1105,385,930,385,715C385,509,425,351,504,246C583,142,683,89,805,89c1,0,3,0,5,0c1,0,2,0,3,0c170,0,295,114,377,340l112,-30C1222,102,1047,-43,778,-43Z" 
id="f1_1b"
transform="scale(4.8828125E-4,-4.8828125E-4)" />

<path d="M730,-43L232,1224c-15,35,-35,58,-55,70c-20,11,-55,18,-104,21v120H697V1315H614c-40,0,-70,-7,-87,-18c-17,-12,-26,-27,-26,-46c0,-21,5,-44,15,-65L836,373l278,768c-34,84,-66,136,-96,152c-30,15,-81,22,-156,22v120h687V1315h-58c-52,0,-88,-7,-108,-19c-22,-13,-31,-31,-31,-51c0,-20,5,-38,14,-59L1693,373l260,722c18,45,25,83,25,117c0,30,-12,53,-39,73c-26,15,-77,27,-150,30v120h558V1315c-69,-10,-123,-32,-158,-61c-35,-32,-65,-78,-90,-139L1681,-43h-91L1189,955L825,-43Z" 
id="f1_1v"
transform="scale(4.8828125E-4,-4.8828125E-4)" />

<path d="M799,-43L241,1207c-19,44,-44,75,-74,93c-29,18,-74,29,-138,31v104H739V1331c-94,-5,-155,-13,-181,-28c-26,-14,-40,-35,-40,-62c0,-25,5,-48,14,-69L909,325l359,819c5,14,8,28,8,45c0,74,-75,120,-226,142v104h591V1331c-60,-8,-109,-25,-144,-51c-35,-27,-62,-64,-81,-108L883,-43Z" 
id="f1_1u"
transform="scale(4.8828125E-4,-4.8828125E-4)" />

<path d="M636,-43C582,-43,536,-27,500,9C463,46,443,90,443,145c0,51,20,92,57,127c36,35,82,52,136,53c53,-1,99,-18,136,-53c38,-37,56,-79,56,-127C828,92,810,46,772,11C735,-27,689,-43,636,-43ZM576,665c0,119,8,213,20,284c14,69,29,124,49,165c20,39,72,113,154,221c64,83,112,162,138,236c26,73,39,155,39,246c0,119,-33,215,-101,290c-65,73,-148,110,-244,110c-83,0,-153,-22,-208,-64c-55,-43,-82,-86,-82,-130c0,-26,18,-54,58,-84c59,-48,88,-100,88,-155c0,-50,-15,-91,-47,-123c-29,-33,-68,-49,-113,-49c-2,0,-4,0,-6,0c-2,0,-4,0,-5,0c-55,0,-100,23,-139,67c-38,47,-59,107,-59,183c0,116,55,223,160,318c107,93,241,139,403,141c167,-2,304,-54,413,-158c108,-104,162,-230,162,-379c0,-96,-17,-183,-54,-259c-27,-60,-97,-141,-207,-245C849,1146,762,1047,730,982C700,917,683,811,680,665Z" 
id="f1_k"
transform="scale(4.8828125E-4,-4.8828125E-4)" />

<path d="M1073,-43C836,-43,629,29,455,177L281,-28H177V842H281C324,603,422,416,571,280C721,141,891,73,1079,73c152,0,278,45,374,133c96,87,144,194,144,323c0,70,-17,133,-52,188c-36,53,-92,99,-170,137c-76,37,-228,83,-454,136c-247,58,-417,125,-508,199C286,1291,222,1439,222,1630c0,197,65,358,194,486c129,125,293,189,495,189c96,0,189,-18,276,-50c86,-35,177,-92,269,-171l141,208h103V1464H1597c-63,250,-158,434,-282,550c-123,114,-267,172,-427,174C753,2186,643,2147,558,2067C472,1988,429,1890,429,1777c0,-72,17,-136,49,-190c32,-55,80,-97,145,-131c65,-34,185,-72,362,-110c251,-57,427,-115,529,-170c102,-58,179,-128,229,-212c51,-87,75,-186,75,-299c0,-205,-69,-375,-208,-509C1471,21,1291,-43,1073,-43Z" 
id="f1_13"
transform="scale(4.8828125E-4,-4.8828125E-4)" />

<path d="M234,-502l-57,72c208,145,310,274,310,385c0,14,-1,26,-7,34C474,-4,466,0,455,0L422,-5c-19,-5,-35,-5,-46,-5C332,-10,292,6,258,43c-33,35,-52,79,-52,131c0,49,19,92,52,127c34,35,78,53,132,53c65,0,120,-26,165,-77C599,223,620,153,620,64C620,-132,492,-320,234,-502Z" 
id="f1_5"
transform="scale(4.8828125E-4,-4.8828125E-4)" />

<path d="M952,89c102,0,183,47,244,139c80,117,119,285,119,504c0,214,-33,370,-103,467c-71,97,-156,145,-262,145c-114,0,-207,-50,-281,-149C597,1094,562,929,562,700C562,480,597,324,668,229C738,136,830,89,942,89c2,0,3,0,5,0c2,0,3,0,5,0ZM325,-14L266,0c21,116,30,238,30,365V1983c0,49,-16,87,-50,118c-34,27,-81,41,-142,42H44v118l518,31V1228c60,83,127,145,199,187c73,41,153,62,238,64c168,-2,309,-67,425,-199c116,-131,173,-304,173,-518c0,-233,-62,-421,-187,-563C1285,55,1131,-14,946,-14C859,-14,779,2,707,37C637,72,564,131,487,215C431,121,377,44,325,-14Z" 
id="f1_1a"
transform="scale(4.8828125E-4,-4.8828125E-4)" />

<path d="M443,-43c-52,0,-98,16,-136,52C270,44,252,89,252,141c0,50,18,93,55,129c38,36,84,54,138,55c53,-1,99,-19,136,-55c36,-36,55,-79,55,-129C636,89,617,44,581,9C544,-27,497,-43,443,-43Z" 
id="f1_7"
transform="scale(4.8828125E-4,-4.8828125E-4)" />

<path d="M532,0V118H784c33,0,59,7,76,26c18,16,28,38,28,67V2026c0,38,-13,67,-35,87c-25,20,-63,29,-115,30C590,2142,468,2075,368,1937C287,1824,228,1647,193,1404H73l52,857H1975l51,-857H1907c-69,492,-249,738,-541,739c-60,-1,-99,-10,-121,-32c-21,-19,-33,-53,-33,-97V223c0,-37,12,-63,32,-79c19,-19,55,-26,102,-26h222V0Z" 
id="f1_14"
transform="scale(4.8828125E-4,-4.8828125E-4)" />

<path d="M1102,1138c188,0,325,40,409,118c87,79,130,211,130,392c0,127,-20,225,-58,294c-38,67,-95,119,-170,151c-75,32,-198,49,-370,50c-113,-1,-184,-12,-215,-32c-29,-21,-44,-58,-44,-108V1138h307c3,0,7,0,11,0ZM104,0V118H328c45,0,78,7,98,26c22,16,32,42,32,73V2014c0,44,-12,78,-39,97c-26,22,-77,31,-150,32H104v118H1219c252,0,445,-58,578,-171c133,-115,198,-264,198,-448c0,-184,-61,-327,-183,-423C1646,1088,1441,1021,1197,1021c-3,0,-6,0,-8,0H784V251c0,-46,10,-78,30,-97c29,-24,68,-36,115,-36h254V0Z" 
id="f1_10"
transform="scale(4.8828125E-4,-4.8828125E-4)" />

<path d="M406,0V112H658c4,-1,7,-1,10,-1c49,0,84,11,107,36c26,24,38,58,38,99V1668c0,28,-11,54,-34,75c-24,20,-53,29,-90,31H351v111c159,20,288,48,387,83c99,35,188,81,263,139h72V208c0,-31,9,-52,30,-66c29,-20,63,-31,102,-31c3,0,5,0,8,1h303V0Z" 
id="f2_4"
transform="scale(4.8828125E-4,-4.8828125E-4)" />

<path d="M148,0V81L597,590c252,270,402,440,451,512c73,97,127,194,159,287c34,93,49,179,49,255c0,125,-34,224,-104,298c-69,72,-165,108,-290,110C723,2050,608,2017,521,1949C434,1881,388,1810,388,1736c0,-28,8,-48,20,-58c12,-16,40,-28,81,-37c105,-25,157,-87,157,-183c0,-54,-17,-98,-52,-132c-33,-34,-77,-50,-129,-50c-2,0,-4,0,-7,0c-1,0,-3,0,-4,0c-61,0,-114,29,-161,84c-47,56,-71,133,-71,227c0,103,27,197,79,283c53,84,134,153,243,209c108,54,224,81,348,83c122,-2,237,-28,342,-81c107,-54,185,-124,239,-209c53,-88,79,-181,79,-283c0,-72,-12,-144,-39,-214c-26,-75,-66,-142,-118,-205C1308,1060,1218,967,1124,891L720,550C617,461,542,390,495,330c-45,-60,174,-90,655,-90c12,0,24,0,36,0c2,0,5,0,8,0c72,0,124,20,155,58c32,40,69,150,112,330h110L1517,0Z" 
id="f2_5"
transform="scale(4.8828125E-4,-4.8828125E-4)" />

<path d="M840,-36C707,-36,590,-14,493,29C396,73,324,134,277,211c-49,75,-74,162,-74,260c0,76,20,136,57,181c36,45,84,68,140,69c52,-1,95,-18,126,-52c32,-35,47,-81,47,-137c0,-39,-9,-71,-28,-95C527,411,493,387,445,367C396,342,370,319,370,299c0,-32,17,-65,47,-103c31,-37,78,-68,138,-89C614,83,692,73,784,73c160,0,279,39,357,118c78,78,115,203,115,379c0,180,-31,308,-95,386c-63,77,-157,115,-283,115c-33,0,-74,-5,-125,-11c-41,-6,-69,-7,-88,-7c-28,0,-52,6,-68,20c-16,13,-24,32,-24,55c0,21,8,38,24,53c16,12,42,18,77,20l82,-9l75,-9c3,-1,6,-1,9,-1c124,0,219,33,281,98c66,66,98,165,98,304c0,168,-32,288,-96,359c-66,71,-162,107,-292,109c-118,-2,-212,-23,-283,-63C480,1946,443,1910,443,1876c0,-24,23,-53,69,-90c66,-52,98,-105,98,-160c0,-43,-16,-78,-45,-106c-29,-27,-66,-41,-110,-41c-3,0,-5,0,-7,0c-2,0,-4,0,-6,0c-48,0,-86,18,-118,56c-31,39,-47,92,-47,162c0,107,39,202,116,288c111,117,267,175,473,177c191,-2,346,-52,460,-153c115,-104,171,-229,171,-379c0,-108,-30,-203,-93,-281c-61,-79,-166,-148,-318,-208c142,-36,254,-98,332,-178C1520,857,1571,726,1571,570c0,-176,-62,-316,-185,-423C1247,23,1065,-36,840,-36Z" 
id="f2_6"
transform="scale(4.8828125E-4,-4.8828125E-4)" />

<path d="M73,0V118c78,6,138,21,179,47c70,41,133,96,188,165L727,684L299,1221c-47,59,-122,91,-226,94v120H784V1315c-116,-4,-174,-22,-174,-55c0,-15,9,-35,27,-56L888,882l243,299c18,20,26,40,26,60c0,38,-60,64,-181,74v120h592V1315c-146,-21,-256,-77,-334,-165L949,802L1401,225c29,-40,60,-68,92,-84c33,-16,84,-23,148,-23V0H901V118h58c62,0,106,4,133,16c17,8,25,19,25,31c0,11,-9,31,-29,58L788,603L555,315C523,270,506,235,506,209c0,-29,12,-49,33,-61c32,-21,84,-30,156,-30V0Z" 
id="f1_1w"
transform="scale(4.8828125E-4,-4.8828125E-4)" />

<path d="M945,60c120,0,216,45,288,136c75,90,113,226,113,409c0,193,-35,332,-104,417c-67,87,-163,130,-286,131C828,1152,723,1105,640,1013C559,920,518,788,518,622C518,438,558,299,637,203C715,108,814,60,934,60c2,0,4,0,6,0c2,0,4,0,5,0ZM932,-43C790,-43,665,-7,553,67C443,141,353,258,283,417C212,576,177,762,177,975c0,227,45,435,130,623c86,186,196,325,329,420c134,92,273,139,420,141c149,-2,276,-43,380,-124c87,-69,132,-148,132,-240c0,-64,-19,-116,-57,-154c-37,-41,-81,-60,-136,-60c-49,0,-90,17,-125,52c-35,32,-52,74,-52,121c0,30,9,66,30,107c19,35,28,64,28,85c0,28,-14,52,-41,72c-37,23,-87,35,-153,37c-98,-2,-188,-32,-271,-95C709,1898,640,1791,584,1639C527,1488,498,1317,498,1129c0,-27,2,-69,5,-124c79,104,163,181,252,226c87,46,183,69,287,69c170,0,313,-58,428,-172c114,-115,171,-260,171,-436c0,-212,-67,-388,-205,-527C1302,24,1132,-43,932,-43Z" 
id="f1_f"
transform="scale(4.8828125E-4,-4.8828125E-4)" />

<path d="M883,60c132,0,233,61,304,183c86,147,128,412,128,800c0,402,-39,670,-119,807c-81,136,-188,203,-321,205C739,2053,634,1989,558,1859C483,1729,443,1462,443,1056C443,655,483,391,562,258C639,127,743,60,874,60c2,0,3,0,4,0c2,0,4,0,5,0ZM880,-43C686,-43,523,34,391,193C229,390,148,677,148,1053c0,356,78,640,231,851c124,168,286,253,489,255c200,-2,365,-80,496,-234c165,-191,248,-480,248,-866c0,-361,-72,-634,-216,-822C1254,47,1082,-43,880,-43Z" 
id="f1_9"
transform="scale(4.8828125E-4,-4.8828125E-4)" />

<path d="M524,1435c84,0,154,30,214,90c61,59,90,133,90,218c0,84,-29,158,-90,219c-60,61,-133,91,-217,93c-86,-2,-159,-32,-220,-93c-63,-61,-95,-135,-95,-219c0,-85,31,-159,92,-218c60,-60,131,-90,214,-90c2,0,4,0,6,0c2,0,4,0,6,0Zm-9,-135c-122,0,-226,43,-313,128C118,1514,73,1618,73,1743c0,121,45,226,132,313c87,87,191,130,313,132c122,-2,226,-46,313,-132c87,-88,130,-192,130,-313c0,-122,-43,-227,-130,-313C744,1343,640,1300,515,1300Z" 
id="f3_6"
transform="scale(4.8828125E-4,-4.8828125E-4)" />

<path d="M892,961c2,0,4,0,6,0c2,0,4,0,6,0c120,0,220,47,301,139c84,92,126,222,126,390c0,171,-43,308,-130,412c-86,101,-188,151,-309,153C775,2053,677,2006,602,1911C526,1815,487,1673,487,1482c0,-177,39,-307,115,-393C676,1004,774,961,892,961ZM761,-43C602,-43,477,-10,387,58C296,127,252,209,252,306c0,62,18,114,54,152c36,39,81,58,136,60c50,-2,93,-18,128,-52c35,-35,50,-75,50,-121c0,-35,-13,-73,-46,-113C556,205,547,183,547,165c0,-29,18,-55,53,-75C632,70,684,59,754,59c5,0,10,0,14,1c3,0,6,0,9,0c106,0,200,29,280,87c84,59,153,156,205,291c50,136,76,311,76,526l-3,138C1268,1001,1189,924,1098,874C1008,822,906,798,794,798C639,798,497,849,368,956C241,1063,177,1221,177,1430c0,200,71,373,211,515c141,140,307,212,501,214c216,-2,396,-89,538,-265c142,-175,214,-421,214,-737c0,-265,-40,-486,-119,-667C1442,310,1335,174,1205,87C1074,-1,924,-43,761,-43Z" 
id="f1_i"
transform="scale(4.8828125E-4,-4.8828125E-4)" />

<path d="M1442,857L1042,1875L634,857ZM-28,0V118c86,0,155,18,205,56c49,37,95,109,138,216l768,1915h106L2000,241c33,-84,102,-123,205,-123h71V0H1375V118h70c95,0,162,9,199,30c27,12,40,35,40,64c0,17,-2,34,-10,55L1488,739H587L478,469C451,396,437,338,437,296c0,-50,23,-91,69,-126c47,-36,114,-52,201,-52h77V0Z" 
id="f1_l"
transform="scale(4.8828125E-4,-4.8828125E-4)" />

<path d="M148,0V95l908,1236H657c-83,-2,-147,-14,-186,-35c-42,-23,-77,-60,-107,-112C335,1132,307,1042,281,917H177l32,518H1375v-89L461,104H911c2,0,4,0,7,0c100,0,180,32,240,96c61,64,110,185,144,362h102L1370,0Z" 
id="f1_1y"
transform="scale(4.8828125E-4,-4.8828125E-4)" />

<path d="M104,0V118H296c69,0,112,9,133,30c20,20,29,64,29,133V1988c0,64,-9,104,-27,120c-28,23,-80,34,-154,35H104v118H1138V2143H963c-78,-1,-129,-10,-149,-30c-20,-20,-30,-63,-30,-125V281c0,-69,9,-111,26,-128c24,-23,68,-35,131,-35h197V0Z" 
id="f1_t"
transform="scale(4.8828125E-4,-4.8828125E-4)" />

<path d="M877,73c133,0,235,61,307,184c86,143,128,408,128,793c0,395,-39,661,-120,797c-80,135,-187,203,-318,205C739,2050,634,1985,558,1858C481,1728,443,1462,443,1060C443,665,483,402,561,270C640,139,746,73,877,73Zm1,-109C684,-36,523,40,391,199C229,396,148,683,148,1057c0,356,77,639,229,851c124,168,288,252,489,254c199,-2,364,-78,495,-232c165,-191,246,-480,246,-865c0,-361,-70,-634,-214,-822C1251,55,1080,-36,878,-36Z" 
id="f2_3"
transform="scale(4.8828125E-4,-4.8828125E-4)" />

<path d="M89,0V118H222c55,0,97,9,123,32c26,20,40,49,40,85V1997c0,44,-15,78,-44,101c-43,29,-101,44,-174,45H89v118l562,31V723l463,403c44,38,65,72,65,101c0,23,-12,41,-39,56c-38,19,-103,29,-194,32v120h754V1315c-149,-7,-262,-44,-342,-108L1021,914L1560,180c33,-42,88,-62,166,-62h77V0H1021V118h76c60,0,98,4,118,15c19,9,29,23,29,37c0,13,-5,27,-16,42L831,749L651,590V215c0,-30,9,-53,29,-67c29,-21,69,-30,119,-30H901V0Z" 
id="f1_1j"
transform="scale(4.8828125E-4,-4.8828125E-4)" />

<path d="M1143,118c172,0,322,44,452,133c84,58,148,140,193,249c61,142,90,342,90,597c0,374,-66,649,-197,825c-112,147,-282,220,-508,221H918c-46,-1,-79,-10,-101,-29c-23,-21,-33,-48,-33,-87V229c0,-36,12,-64,38,-82c26,-20,67,-29,128,-29ZM104,0V118H315c53,0,91,7,111,26c22,16,32,44,32,81V2040c0,30,-10,56,-33,74c-22,19,-54,28,-93,29H104v118H1274c174,0,321,-30,443,-92c151,-77,280,-207,385,-386c107,-182,159,-396,159,-642c0,-204,-30,-388,-95,-550C2119,466,2044,356,1945,263C1846,168,1723,98,1581,52C1474,17,1331,0,1152,0Z" 
id="f1_o"
transform="scale(4.8828125E-4,-4.8828125E-4)" />

<path d="M1207,73c131,0,246,35,345,106c100,69,179,180,237,331c60,153,89,352,89,599c0,269,-28,480,-84,631c-55,151,-133,264,-236,338c-100,72,-215,108,-342,110c-198,-2,-359,-83,-483,-246C610,1777,547,1509,547,1140C547,736,611,457,738,304C863,150,1021,73,1207,73Zm-6,-116C1021,-43,849,3,691,102C532,200,403,342,307,527C212,709,162,914,162,1140c0,220,47,418,141,596c93,177,221,316,383,418c162,101,330,151,506,151c191,0,371,-50,537,-149c165,-100,297,-240,392,-419c94,-179,140,-380,140,-602c0,-226,-46,-428,-142,-608C2026,347,1894,206,1729,107C1563,5,1387,-43,1201,-43Z" 
id="f1_z"
transform="scale(4.8828125E-4,-4.8828125E-4)" />

<path d="M772,44c1,0,2,0,3,0c1,0,2,0,2,0c100,0,172,78,218,231c45,153,68,406,70,759H487V996c0,-333,23,-574,71,-726C603,121,674,44,772,44Zm293,1109c-6,303,-32,521,-77,656c-45,133,-116,200,-210,202c-95,-2,-165,-69,-211,-204C521,1673,495,1454,487,1153ZM778,-43C597,-43,452,52,342,248C232,442,177,703,177,1031c0,326,55,584,165,778c112,192,255,289,436,290c178,-1,322,-98,432,-290c110,-194,165,-452,165,-778c0,-327,-55,-588,-165,-782C1100,52,956,-43,778,-43Z" 
id="f3_c"
transform="scale(4.8828125E-4,-4.8828125E-4)" />

<path d="M651,576V753H2484V576Zm0,547v177H2484V1123Z" 
id="f3_5"
transform="scale(4.8828125E-4,-4.8828125E-4)" />

<path d="M848,-43C713,-43,597,-22,500,21C400,66,328,125,280,202c-48,76,-74,162,-74,258c0,76,20,137,57,182c38,44,84,67,142,67c52,0,93,-17,125,-51c31,-33,46,-77,46,-134c0,-37,-8,-69,-24,-93C535,405,506,382,464,361C422,338,399,316,399,295c0,-29,17,-63,47,-99c29,-39,75,-68,135,-89C640,84,717,73,807,73c157,0,275,39,351,118c75,76,113,202,113,374c0,179,-32,307,-96,385c-66,75,-161,113,-287,115c-34,-2,-77,-5,-129,-9c-32,-4,-59,-7,-77,-7c-4,0,-8,0,-11,1c-3,-1,-5,-1,-8,-1c-25,0,-46,8,-61,20c-17,14,-26,33,-26,54c0,23,9,41,24,53c16,14,42,20,77,22l85,-8l74,-7c3,-1,5,-1,8,-1c126,0,221,34,284,98c67,63,99,164,99,300c0,165,-31,284,-95,354c-63,70,-156,106,-283,106c-114,0,-204,-22,-273,-62C507,1939,474,1902,474,1868c0,-22,19,-51,61,-88c58,-52,85,-102,85,-156c0,-43,-13,-76,-46,-104c-29,-27,-66,-41,-111,-41c-3,0,-5,0,-8,0c-2,0,-4,0,-6,0c-49,0,-88,18,-119,55c-32,38,-49,92,-49,162c0,107,38,202,116,286c112,116,271,175,477,177c192,-2,347,-52,461,-155c115,-102,173,-227,173,-377c0,-108,-31,-203,-93,-281c-63,-79,-170,-148,-321,-208c144,-36,255,-96,334,-179C1531,853,1581,721,1581,567c0,-177,-61,-321,-185,-426C1256,17,1074,-43,848,-43Z" 
id="f1_c"
transform="scale(4.8828125E-4,-4.8828125E-4)" />

<path d="M1296,89c3,0,6,0,9,0c1,0,3,0,5,0c185,0,333,79,444,235c113,157,168,432,168,825c0,272,-24,477,-72,614c-49,138,-121,240,-215,309c-95,65,-207,101,-332,101c-124,0,-232,-36,-324,-101C888,2003,814,1894,761,1745C707,1593,680,1389,680,1128c0,-275,24,-485,75,-624C805,361,877,257,972,189C1066,122,1173,89,1296,89Zm-2,-148C1077,-59,880,-7,707,95C535,199,397,338,298,515C197,691,148,894,148,1128c0,345,110,629,329,855c220,225,492,336,814,338c214,-2,411,-52,591,-156c181,-104,321,-246,422,-425c101,-179,150,-380,150,-605C2454,793,2344,509,2122,281C1899,53,1624,-59,1294,-59Z" 
id="f0_m"
transform="scale(4.8828125E-4,-4.8828125E-4)" />

<path d="M1158,1242c164,0,294,43,388,128c73,65,110,175,110,330c0,143,-35,248,-107,314c-73,65,-197,99,-374,100c-93,-1,-154,-12,-177,-32c-25,-21,-37,-67,-37,-139V1242h188c3,0,6,0,9,0ZM1957,-14c-95,0,-173,17,-231,57c-56,40,-100,98,-131,174c-18,43,-43,144,-76,306c-37,187,-71,314,-101,378c-29,66,-67,113,-116,146c-48,30,-106,45,-176,47H961V269c0,-37,11,-64,32,-83c28,-24,61,-38,98,-38c2,0,4,0,6,0h205V0H177V148H351c3,0,5,0,8,0c41,0,73,12,95,35c23,23,33,57,33,100V1978c0,46,-9,80,-30,103c-22,21,-52,32,-90,33H177v147H1341c190,0,344,-26,463,-75c119,-49,208,-116,266,-201c60,-86,89,-179,89,-283c0,-168,-75,-303,-223,-403c-112,-80,-286,-132,-520,-153c121,-20,216,-52,281,-95c66,-43,124,-107,175,-189c61,-110,110,-242,146,-393c25,-99,46,-160,64,-183c19,-23,40,-35,63,-35c66,0,104,88,116,267h135C2385,325,2344,189,2269,108C2195,24,2092,-14,1957,-14Z" 
id="f0_o"
transform="scale(4.8828125E-4,-4.8828125E-4)" />

<path d="M636,0V118H837c55,0,93,9,118,30c23,19,35,48,35,84V932L287,2014c-30,47,-67,79,-108,97c-41,19,-112,29,-207,32v118H976V2143H859c-95,-1,-158,-7,-187,-22c-27,-14,-43,-34,-43,-58c0,-28,8,-51,22,-71l580,-894l421,764c18,32,27,68,27,109c0,52,-17,93,-52,125c-34,31,-82,46,-148,47H1375v118h857V2143c-98,-1,-174,-18,-231,-51c-56,-36,-111,-100,-163,-194L1315,950V232c0,-39,11,-67,33,-81c29,-23,73,-33,129,-33h193V0Z" 
id="f1_18"
transform="scale(4.8828125E-4,-4.8828125E-4)" />

<path d="M124,1448l-51,69c109,70,187,141,237,212c49,71,75,130,75,182c0,17,-3,29,-9,38c-5,8,-15,13,-28,14l-15,-3c-24,-7,-46,-9,-64,-9c-46,0,-84,15,-116,49c-32,30,-49,70,-49,118c0,50,17,94,50,132c34,37,74,55,118,55c64,0,122,-27,171,-81c50,-56,75,-125,75,-210c0,-103,-31,-201,-90,-292C368,1630,266,1538,124,1448Z" 
id="f1_20"
transform="scale(4.8828125E-4,-4.8828125E-4)" />

<path d="M177,0V118H405c46,0,78,9,98,29c20,18,29,49,29,91V2030c0,40,-9,69,-31,86c-20,17,-55,26,-107,27H177v118H2011l29,-782H1922c-46,266,-112,441,-196,522c-96,95,-232,141,-409,142H958c-35,-1,-60,-9,-76,-25c-16,-17,-25,-42,-25,-74V1242h196c2,0,4,0,6,0c107,0,192,37,255,109c64,71,99,183,105,334h104V651H1419c-7,168,-42,290,-105,362c-63,73,-150,110,-261,110H857V258c0,-52,14,-88,37,-110c24,-21,67,-30,127,-30h235V0Z" 
id="f1_q"
transform="scale(4.8828125E-4,-4.8828125E-4)" />

<path d="M1366,-14C1210,-14,1016,319,785,988c-17,51,-29,88,-38,115H721L448,0H131L665,1291c-40,115,-83,223,-130,322c-48,100,-97,185,-147,260c-29,44,-64,84,-105,122c-42,38,-63,64,-63,78c0,11,3,20,11,28c6,4,17,9,32,9c101,0,223,-96,366,-289c143,-192,286,-455,428,-790c57,-133,119,-296,191,-490c93,-254,167,-381,222,-381c27,0,53,14,76,45c23,29,40,43,52,44c9,-1,15,-6,21,-15c7,-9,8,-20,8,-34c0,-56,-24,-105,-75,-150C1503,6,1441,-14,1366,-14Z" 
id="f4_2"
transform="scale(4.8828125E-4,-4.8828125E-4)" />

<path d="M445,40c0,0,81,0,121,61c0,0,39,60,52,134c0,0,4,24,6,49c0,0,3,26,3,48c0,0,0,88,-41,160c0,0,-42,73,-141,73c0,0,-112,-1,-157,-81c0,0,-46,-81,-46,-178c0,0,0,-14,1,-29c0,0,2,-16,3,-31c0,0,5,-27,14,-53c0,0,9,-26,21,-49c0,0,30,-52,67,-78c0,0,37,-26,97,-26Zm-3,-61c0,0,-180,0,-271,130c0,0,-90,131,-103,288c0,0,-2,16,-3,31c0,0,0,15,0,31c0,0,0,108,23,212c0,0,24,104,77,197c0,0,55,93,142,150c0,0,88,58,198,58c0,0,15,0,31,-2c0,0,16,-1,31,-3c0,0,72,-12,132,-55c0,0,61,-43,61,-125c0,0,0,-43,-29,-74c0,0,-28,-32,-72,-32c0,0,-37,0,-63,27c0,0,-26,27,-26,64c0,0,0,12,3,23c0,0,3,12,8,22c0,0,1,5,4,9c0,0,2,4,4,7c0,0,1,3,3,6c0,0,1,3,3,6c0,0,0,3,1,7c0,0,2,4,3,7c0,0,0,1,0,2c0,0,0,1,0,2v1c0,0,0,1,0,2c0,0,0,17,-15,26c0,0,-15,8,-34,11c0,0,-10,2,-19,2c0,0,-8,1,-16,1c0,0,-84,0,-140,-45c0,0,-55,-45,-87,-118c0,0,-29,-65,-40,-129c0,0,-11,-65,-17,-136c0,0,0,-9,-1,-19c0,0,0,-10,0,-19c0,0,-2,-9,-2,-19c0,0,0,-9,0,-18c0,0,44,71,108,109c0,0,63,38,147,38c0,0,136,0,221,-90c0,0,85,-90,85,-223c0,0,0,-151,-96,-257C693,84,598,-21,442,-21Z" 
id="f5_q"
transform="scale(0.001,-0.001)" />

<path d="M473,350V827L131,350ZM313,0V66c0,0,15,-2,30,-2h61c0,0,14,2,28,5c0,0,14,3,24,12c0,0,11,12,14,28c0,0,3,16,3,33c0,0,0,5,0,8c0,0,0,4,0,7c0,0,0,3,0,7c0,0,0,4,0,7v98H42v82l523,727h63c0,0,-2,-20,-4,-38c0,0,-1,-18,-3,-36c0,0,-1,-18,-2,-36c0,0,-1,-17,-1,-36l-3,-84V350H805V267H615c0,0,0,-10,0,-20c0,0,0,-10,0,-19c0,0,0,-10,0,-19c0,0,0,-10,0,-20c0,0,0,-4,0,-9c0,0,0,-4,0,-9c0,0,0,-8,0,-14c0,0,-1,-6,0,-13c0,0,0,-17,3,-34c0,0,3,-17,14,-31c0,0,17,-9,37,-12c0,0,20,-3,40,-3h42c0,0,4,1,7,1c2,0,4,-1,5,-2c0,0,1,-2,-1,-16c0,0,0,-4,0,-10c0,0,0,-5,0,-11V0Z" 
id="f5_o"
transform="scale(0.001,-0.001)" />

<path d="M387,-21c0,0,-8,0,-16,1c0,0,-114,6,-210,63c0,0,-96,58,-96,193c0,0,0,46,27,83c0,0,28,37,76,37c0,0,37,0,68,-24c0,0,30,-24,30,-64c0,0,0,-31,-7,-45c0,0,-7,-15,-23,-27c0,0,-5,-5,-13,-9c0,0,-7,-5,-15,-9c0,0,-3,-2,-5,-3c0,0,-2,-2,-6,-3c0,0,-7,-5,-13,-10c0,0,-5,-6,-8,-15c0,0,-1,-1,-2,-4c0,0,-1,-2,1,-5c0,0,0,-2,0,-4c0,0,0,-2,1,-4c0,0,3,-15,18,-28c0,0,14,-13,32,-22c0,0,10,-6,19,-11c0,0,10,-4,18,-7c0,0,8,-4,15,-6c0,0,8,-2,14,-4c0,0,23,-4,45,-6c0,0,22,-1,46,-1c0,0,113,0,163,69c0,0,49,69,49,173c0,0,0,95,-40,170c0,0,-36,68,-134,68c-5,0,-10,-1,-16,-1l-73,-1c0,0,-3,-2,-5,-2h-6c0,0,-3,-1,-5,-1h-5c0,0,-7,0,-12,1c0,0,-5,2,-11,3c0,0,-8,2,-14,8c0,0,-6,7,-9,15c0,0,-2,1,-2,3c0,0,0,2,0,4c0,0,0,30,18,37c0,0,15,5,35,5c2,0,4,0,7,0h13c0,0,4,-2,7,-2h7c0,0,3,0,7,0c0,0,4,-1,9,-1c0,0,5,0,15,0c16,0,44,0,72,4c0,0,42,5,74,42c0,0,23,26,35,60c0,0,11,33,14,68c0,0,0,11,1,22c0,0,1,10,1,21c0,0,0,89,-40,143c0,0,-40,54,-136,54c0,0,-14,0,-31,-1c0,0,-16,-2,-33,-5c0,0,-31,-6,-60,-20c0,0,-29,-14,-44,-38c0,0,-2,0,-3,-4c0,0,-2,-4,-3,-7c0,0,0,-3,-1,-6c0,0,-1,-3,-1,-4c0,0,0,-5,2,-8c0,0,1,-3,3,-6c0,0,1,-2,3,-4c0,0,1,-2,3,-4l12,-7c0,0,17,-13,30,-33c0,0,13,-19,13,-41c0,0,0,-38,-23,-66c0,0,-23,-28,-64,-28c0,0,-46,0,-73,32c0,0,-26,33,-26,76c0,0,0,20,6,46c0,0,7,27,23,55c0,0,29,53,97,97c0,0,68,45,188,45c0,0,123,0,217,-66c0,0,95,-66,95,-200c0,0,0,-99,-63,-164c0,0,-64,-64,-155,-85v-2c0,0,113,-18,180,-90c0,0,66,-72,66,-188c0,0,0,-151,-108,-227c0,0,-108,-75,-249,-75Z" 
id="f5_n"
transform="scale(0.001,-0.001)" />


</defs>
</svg>