<?xml version="1.0" encoding="UTF-8" standalone="no"?>
<!DOCTYPE svg PUBLIC "-//W3C//DTD SVG 1.1//EN"
"http://www.w3.org/Graphics/SVG/1.1/DTD/svg11.dtd">
<svg viewBox="0 0 909 1286" version="1.1" xmlns="http://www.w3.org/2000/svg" xmlns:xlink="http://www.w3.org/1999/xlink">
<defs>
<clipPath id="c0_246"><path d="M35.1,1194.7V113.1H873.9V1194.7Z" /></clipPath>
</defs>
<g clip-path="url(#c0_246)">
<g fill="#000000" >
<use xlink:href="#f0_u" transform="matrix(12,0,0,12,47.4,136)" />
<use xlink:href="#f0_b" transform="matrix(12,0,0,12,59.4,136)" />
<use xlink:href="#f0_f" transform="matrix(12,0,0,12,69.2,136)" />
<use xlink:href="#f0_8" transform="matrix(12,0,0,12,77.4,136)" />
<use xlink:href="#f0_f" transform="matrix(12,0,0,12,83.3,136)" />
<use xlink:href="#f0_7" transform="matrix(12,0,0,12,91.5,136)" />
<use xlink:href="#f0_5" transform="matrix(12,0,0,12,98,136)" />
<use xlink:href="#f0_i" transform="matrix(12,0,0,12,108.3,136)" />
<use xlink:href="#f0_9" transform="matrix(12,0,0,12,120.1,136)" />
<use xlink:href="#f0_b" transform="matrix(12,0,0,12,129.1,136)" />
<use xlink:href="#f0_c" transform="matrix(12,0,0,12,143.7,136)" />
<use xlink:href="#f0_d" transform="matrix(12,0,0,12,154.3,136)" />
<use xlink:href="#f0_5" transform="matrix(12,0,0,12,165.8,136)" />
<use xlink:href="#f0_l" transform="matrix(12,0,0,12,180.9,136)" />
<use xlink:href="#f0_5" transform="matrix(12,0,0,12,190.7,136)" />
<use xlink:href="#f0_a" transform="matrix(12,0,0,12,201,136)" />
<use xlink:href="#f0_n" transform="matrix(12,0,0,12,206.7,136)" />
<use xlink:href="#f0_5" transform="matrix(12,0,0,12,217.3,136)" />
<use xlink:href="#f0_i" transform="matrix(12,0,0,12,227.6,136)" />
<use xlink:href="#f0_c" transform="matrix(12,0,0,12,239.4,136)" />
<use xlink:href="#f0_e" transform="matrix(12,0,0,12,250,136)" />
<use xlink:href="#f0_b" transform="matrix(12,0,0,12,267.3,136)" />
<use xlink:href="#f0_7" transform="matrix(12,0,0,12,277.1,136)" />
<use xlink:href="#f0_b" transform="matrix(12,0,0,12,283.6,136)" />
<use xlink:href="#f0_6" transform="matrix(12,0,0,12,293.4,136)" />
<use xlink:href="#f0_8" transform="matrix(12,0,0,12,306.7,136)" />
<use xlink:href="#f0_i" transform="matrix(12,0,0,12,312.6,136)" />
<use xlink:href="#f0_9" transform="matrix(12,0,0,12,324.4,136)" />
<use xlink:href="#f0_6" transform="matrix(12,0,0,12,333.4,136)" />
<use xlink:href="#f0_b" transform="matrix(12,0,0,12,342.1,136)" />
<use xlink:href="#f0_5" transform="matrix(12,0,0,12,351.9,136)" />
<use xlink:href="#f0_f" transform="matrix(12,0,0,12,362.2,136)" />
<use xlink:href="#f0_b" transform="matrix(12,0,0,12,370.4,136)" />
<use xlink:href="#f0_f" transform="matrix(12,0,0,12,380.2,136)" />
<use xlink:href="#f0_o" transform="matrix(12,0,0,12,393.3,136)" />
<use xlink:href="#f0_k" transform="matrix(12,0,0,12,409,136)" />
<use xlink:href="#f0_b" transform="matrix(12,0,0,12,420.7,136)" />
<use xlink:href="#f0_i" transform="matrix(12,0,0,12,430.5,136)" />
<use xlink:href="#f0_i" transform="matrix(12,0,0,12,447,136)" />
<use xlink:href="#f0_5" transform="matrix(12,0,0,12,463.6,136)" />
<use xlink:href="#f0_i" transform="matrix(12,0,0,12,473.9,136)" />
<use xlink:href="#f0_j" transform="matrix(12,0,0,12,485.7,136)" />
<use xlink:href="#f0_3" transform="matrix(12,0,0,12,501.7,136)" />
<use xlink:href="#f0_5" transform="matrix(12,0,0,12,519.4,136)" />
<use xlink:href="#f0_6" transform="matrix(12,0,0,12,529.7,136)" />
<use xlink:href="#f0_b" transform="matrix(12,0,0,12,538.3,136)" />
<use xlink:href="#f0_9" transform="matrix(12,0,0,12,552.9,136)" />
<use xlink:href="#f0_k" transform="matrix(12,0,0,12,561.9,136)" />
<use xlink:href="#f0_5" transform="matrix(12,0,0,12,573.5,136)" />
<use xlink:href="#f0_i" transform="matrix(12,0,0,12,583.8,136)" />
<use xlink:href="#f0_l" transform="matrix(12,0,0,12,595.7,136)" />
<use xlink:href="#f0_b" transform="matrix(12,0,0,12,605.5,136)" />
<use xlink:href="#f0_j" transform="matrix(12,0,0,12,615.3,136)" />
<use xlink:href="#f0_1f" transform="matrix(12,0,0,12,47.4,186.4)" />
<use xlink:href="#f0_8" transform="matrix(12,0,0,12,60.4,186.4)" />
<use xlink:href="#f0_n" transform="matrix(12,0,0,12,66.3,186.4)" />
<use xlink:href="#f0_b" transform="matrix(12,0,0,12,76.9,186.4)" />
<use xlink:href="#f0_i" transform="matrix(12,0,0,12,86.7,186.4)" />
</g>
</g>
<image preserveAspectRatio="none" x="104" y="168" width="29" height="28" xlink:href="img/1.png" />
<g clip-path="url(#c0_246)">
<g fill="#000000" >
<use xlink:href="#f0_w" transform="matrix(12,0,0,12,137,186.4)" />
<use xlink:href="#f0_1g" transform="matrix(12,0,0,12,152,186.4)" />
<use xlink:href="#f0_u" transform="matrix(12,0,0,12,162.3,186.4)" />
<use xlink:href="#f0_t" transform="matrix(12,0,0,12,47.4,236.8)" />
<use xlink:href="#f0_k" transform="matrix(12,0,0,12,58.6,236.8)" />
<use xlink:href="#f0_b" transform="matrix(12,0,0,12,70.2,236.8)" />
<use xlink:href="#f0_i" transform="matrix(12,0,0,12,80,236.8)" />
<use xlink:href="#f0_i" transform="matrix(12,0,0,12,96.6,236.8)" />
<use xlink:href="#f0_w" transform="matrix(12,0,0,12,113.2,236.8)" />
</g>
</g>
<image preserveAspectRatio="none" x="128" y="217" width="28" height="29" xlink:href="img/2.png" />
<g clip-path="url(#c0_246)">
<g fill="#000000" >
<use xlink:href="#f0_5" transform="matrix(12,0,0,12,160.4,236.8)" />
<use xlink:href="#f0_i" transform="matrix(12,0,0,12,170.7,236.8)" />
<use xlink:href="#f0_j" transform="matrix(12,0,0,12,182.5,236.8)" />
<use xlink:href="#f0_3" transform="matrix(12,0,0,12,198.5,236.8)" />
<use xlink:href="#f0_w" transform="matrix(12,0,0,12,216.2,236.8)" />
</g>
</g>
<image preserveAspectRatio="none" x="231" y="218" width="29" height="28" xlink:href="img/3.png" />
<g clip-path="url(#c0_246)">
<g fill="#000000" >
<use xlink:href="#f0_1h" transform="matrix(12,0,0,12,47.4,287.2)" />
<use xlink:href="#f0_b" transform="matrix(12,0,0,12,61.3,287.2)" />
<use xlink:href="#f0_o" transform="matrix(12,0,0,12,71.2,287.2)" />
<use xlink:href="#f0_9" transform="matrix(12,0,0,12,91.7,287.2)" />
<use xlink:href="#f0_r" transform="matrix(12,0,0,12,100.7,287.2)" />
<use xlink:href="#f0_6" transform="matrix(12,0,0,12,112.3,287.2)" />
<use xlink:href="#f0_6" transform="matrix(12,0,0,12,121,287.2)" />
<use xlink:href="#f0_b" transform="matrix(12,0,0,12,129.6,287.2)" />
<use xlink:href="#f0_i" transform="matrix(12,0,0,12,139.4,287.2)" />
<use xlink:href="#f0_7" transform="matrix(12,0,0,12,151.2,287.2)" />
<use xlink:href="#f0_f" transform="matrix(12,0,0,12,162.4,287.2)" />
<use xlink:href="#f0_b" transform="matrix(12,0,0,12,170.7,287.2)" />
<use xlink:href="#f0_i" transform="matrix(12,0,0,12,180.5,287.2)" />
<use xlink:href="#f0_f" transform="matrix(12,0,0,12,192.3,287.2)" />
<use xlink:href="#f0_8" transform="matrix(12,0,0,12,200.5,287.2)" />
<use xlink:href="#f0_7" transform="matrix(12,0,0,12,206.4,287.2)" />
<use xlink:href="#f0_8" transform="matrix(12,0,0,12,212.8,287.2)" />
<use xlink:href="#f0_n" transform="matrix(12,0,0,12,218.7,287.2)" />
<use xlink:href="#f0_8" transform="matrix(12,0,0,12,229.3,287.2)" />
<use xlink:href="#f0_7" transform="matrix(12,0,0,12,235.1,287.2)" />
<use xlink:href="#f0_p" transform="matrix(12,0,0,12,241.6,287.2)" />
</g>
</g>
<image preserveAspectRatio="none" x="47" y="315" width="271" height="62" xlink:href="img/4.png" />
<g clip-path="url(#c0_246)">
<g fill="#000000" >
<use xlink:href="#f0_1h" transform="matrix(12,0,0,12,47.4,418.6)" />
<use xlink:href="#f0_b" transform="matrix(12,0,0,12,61.3,418.6)" />
<use xlink:href="#f0_o" transform="matrix(12,0,0,12,71.2,418.6)" />
<use xlink:href="#f0_n" transform="matrix(12,0,0,12,91.7,418.6)" />
<use xlink:href="#f0_c" transform="matrix(12,0,0,12,102.3,418.6)" />
<use xlink:href="#f0_a" transform="matrix(12,0,0,12,112.9,418.6)" />
<use xlink:href="#f0_7" transform="matrix(12,0,0,12,118.5,418.6)" />
<use xlink:href="#f0_5" transform="matrix(12,0,0,12,125,418.6)" />
<use xlink:href="#f0_l" transform="matrix(12,0,0,12,135.3,418.6)" />
<use xlink:href="#f0_b" transform="matrix(12,0,0,12,145.2,418.6)" />
<use xlink:href="#f0_f" transform="matrix(12,0,0,12,159.7,418.6)" />
<use xlink:href="#f0_b" transform="matrix(12,0,0,12,168,418.6)" />
<use xlink:href="#f0_i" transform="matrix(12,0,0,12,177.8,418.6)" />
<use xlink:href="#f0_f" transform="matrix(12,0,0,12,189.6,418.6)" />
<use xlink:href="#f0_8" transform="matrix(12,0,0,12,197.9,418.6)" />
<use xlink:href="#f0_7" transform="matrix(12,0,0,12,203.7,418.6)" />
<use xlink:href="#f0_8" transform="matrix(12,0,0,12,210.2,418.6)" />
<use xlink:href="#f0_n" transform="matrix(12,0,0,12,216,418.6)" />
<use xlink:href="#f0_8" transform="matrix(12,0,0,12,226.6,418.6)" />
<use xlink:href="#f0_7" transform="matrix(12,0,0,12,232.5,418.6)" />
<use xlink:href="#f0_p" transform="matrix(12,0,0,12,238.9,418.6)" />
</g>
</g>
<image preserveAspectRatio="none" x="47" y="446" width="327" height="63" xlink:href="img/5.png" />
<image preserveAspectRatio="none" x="47" y="527" width="309" height="63" xlink:href="img/6.png" />
<g clip-path="url(#c0_246)">
<g fill="#000000" >
<use xlink:href="#f0_11" transform="matrix(12,0,0,12,47.4,631)" />
<use xlink:href="#f0_6" transform="matrix(12,0,0,12,58.2,631)" />
<use xlink:href="#f0_c" transform="matrix(12,0,0,12,66.8,631)" />
<use xlink:href="#f0_e" transform="matrix(12,0,0,12,77.4,631)" />
<use xlink:href="#f0_g" transform="matrix(12,0,0,12,99.4,631)" />
<use xlink:href="#f0_8" transform="matrix(12,0,0,12,105.8,631)" />
<use xlink:href="#f0_h" transform="matrix(12,0,0,12,111.6,631)" />
<use xlink:href="#f0_5" transform="matrix(12,0,0,12,122.7,631)" />
<use xlink:href="#f0_i" transform="matrix(12,0,0,12,133,631)" />
<use xlink:href="#f0_j" transform="matrix(12,0,0,12,144.8,631)" />
<use xlink:href="#f0_g" transform="matrix(12,0,0,12,160.8,631)" />
<use xlink:href="#f0_8" transform="matrix(12,0,0,12,167.1,631)" />
<use xlink:href="#f0_8" transform="matrix(12,0,0,12,173,631)" />
<use xlink:href="#f0_8" transform="matrix(12,0,0,12,178.8,631)" />
<use xlink:href="#f0_h" transform="matrix(12,0,0,12,184.7,631)" />
</g>
</g>
<image preserveAspectRatio="none" x="47" y="658" width="161" height="63" xlink:href="img/7.png" />
<image preserveAspectRatio="none" x="47" y="739" width="199" height="71" xlink:href="img/8.png" />
<g clip-path="url(#c0_246)">
<g fill="#000000" >
<use xlink:href="#f0_i" transform="matrix(12,0,0,12,47.4,864.7)" />
<use xlink:href="#f0_15" transform="matrix(12,0,0,12,59.2,864.7)" />
<use xlink:href="#f0_3" transform="matrix(12,0,0,12,63.8,864.7)" />
<use xlink:href="#f0_15" transform="matrix(12,0,0,12,76.7,864.7)" />
<use xlink:href="#f0_w" transform="matrix(12,0,0,12,81.3,864.7)" />
</g>
</g>
<image preserveAspectRatio="none" x="92" y="828" width="52" height="63" xlink:href="img/9.png" />
<g clip-path="url(#c0_246)">
<g fill="#000000" >
<use xlink:href="#f0_1i" transform="matrix(12,0,0,12,47.4,931.9)" />
<use xlink:href="#f0_f" transform="matrix(12,0,0,12,60.5,931.9)" />
<use xlink:href="#f0_8" transform="matrix(12,0,0,12,68.8,931.9)" />
<use xlink:href="#f0_i" transform="matrix(12,0,0,12,74.6,931.9)" />
<use xlink:href="#f0_l" transform="matrix(12,0,0,12,86.4,931.9)" />
<use xlink:href="#f0_b" transform="matrix(12,0,0,12,101,931.9)" />
<use xlink:href="#f0_m" transform="matrix(12,0,0,12,110.8,931.9)" />
<use xlink:href="#f0_r" transform="matrix(12,0,0,12,122.1,931.9)" />
<use xlink:href="#f0_5" transform="matrix(12,0,0,12,133.7,931.9)" />
<use xlink:href="#f0_7" transform="matrix(12,0,0,12,144,931.9)" />
<use xlink:href="#f0_8" transform="matrix(12,0,0,12,150.5,931.9)" />
<use xlink:href="#f0_c" transform="matrix(12,0,0,12,156.3,931.9)" />
<use xlink:href="#f0_i" transform="matrix(12,0,0,12,166.9,931.9)" />
<use xlink:href="#f0_g" transform="matrix(12,0,0,12,183.5,931.9)" />
<use xlink:href="#f0_8" transform="matrix(12,0,0,12,189.8,931.9)" />
<use xlink:href="#f0_n" transform="matrix(12,0,0,12,195.6,931.9)" />
<use xlink:href="#f0_h" transform="matrix(12,0,0,12,206.2,931.9)" />
</g>
</g>
<image preserveAspectRatio="none" x="47" y="959" width="124" height="63" xlink:href="img/10.png" />
<image preserveAspectRatio="none" x="47" y="1040" width="116" height="63" xlink:href="img/11.png" />
<image preserveAspectRatio="none" x="47" y="1121" width="98" height="63" xlink:href="img/12.png" />
<g fill="#000000" >
<use xlink:href="#f1_m" transform="matrix(8,0,0,8,785.4,1275.3)" />
<use xlink:href="#f1_s" transform="matrix(8,0,0,8,792.2,1275.3)" />
</g>
<defs>
<path d="M465,553c0,0,67,0,112,15c0,0,44,14,71,44c0,0,26,30,39,75c0,0,11,45,11,104c0,0,-1,61,-12,105c0,0,-14,42,-41,70c0,0,-29,27,-74,40c0,0,-46,12,-110,12H357V553ZM982,0C963,0,909,0,873,5c0,0,-46,5,-79,20c0,0,-32,15,-54,42c0,0,-24,26,-49,70L484,481H357V166c0,0,0,-33,11,-53c0,0,9,-22,27,-32c0,0,16,-10,40,-13c0,0,22,-4,48,-4h20V0H58V64H78c0,0,24,0,48,4c0,0,22,3,40,13c0,0,16,10,27,32c0,0,10,20,10,53V923c0,0,0,33,-10,54c0,0,-11,20,-27,32c0,0,-18,11,-40,14c0,0,-24,3,-48,3H58v65H469c0,0,198,-1,296,-73c0,0,97,-74,97,-222c0,0,-1,-62,-20,-107c0,0,-20,-46,-52,-80c0,0,-33,-33,-72,-55c0,0,-41,-23,-81,-36L847,186c0,0,38,-61,75,-91c0,0,37,-31,85,-31h5V0H990c0,0,-3,0,-8,0Z" 
id="f0_u"
transform="scale(0.001,-0.001)" />

<path d="M586,481c0,0,0,60,-9,111c0,0,-9,50,-29,85c0,0,-19,36,-51,56c0,0,-33,18,-79,19c0,0,-87,-1,-133,-69c0,0,-46,-69,-46,-202ZM439,-14c0,0,-83,0,-149,27c0,0,-66,28,-112,82c0,0,-46,53,-69,132c0,0,-25,77,-25,177c0,0,0,213,88,322c0,0,88,108,251,108c0,0,73,0,133,-23c0,0,58,-24,100,-69c0,0,41,-46,63,-114c0,0,21,-69,22,-159V399H233c0,0,0,-84,15,-143c0,0,15,-61,44,-99c0,0,28,-40,71,-57c0,0,40,-19,93,-19c1,0,2,0,4,0c0,0,38,0,73,9c0,0,33,9,62,24c0,0,26,14,48,34c0,0,21,18,35,40c0,0,10,-4,20,-19c0,0,9,-15,9,-33c0,0,0,-24,-16,-49c0,0,-17,-27,-50,-50C641,37,607,14,557,0c0,0,-50,-14,-118,-14Z" 
id="f0_b"
transform="scale(0.001,-0.001)" />

<path d="M321,-14c0,0,-58,0,-104,11c0,0,-48,7,-80,29c0,0,-33,20,-50,51c0,0,-18,30,-18,70c0,0,0,30,10,51c0,0,10,20,25,33c0,0,14,11,31,17c0,0,16,4,30,4c0,0,0,-41,8,-75c0,0,8,-36,28,-61c0,0,18,-28,51,-42c0,0,31,-16,78,-16c0,0,41,0,72,11c0,0,31,9,53,28c0,0,21,18,32,44c0,0,11,25,11,56c0,0,0,28,-8,49c0,0,-9,20,-30,38c0,0,-21,17,-58,37c0,0,-37,18,-92,42c0,0,-59,26,-102,51c0,0,-45,23,-72,52c0,0,-29,28,-43,65c0,0,-15,35,-14,86c0,0,-1,52,21,92c0,0,20,40,58,68c0,0,38,26,91,41c0,0,52,15,118,15c0,0,54,0,96,-12c0,0,41,-11,70,-30c0,0,28,-19,43,-44c0,0,14,-27,14,-55c0,0,-1,-42,-28,-66c0,0,-29,-25,-80,-25c-1,0,-2,0,-2,0c0,0,0,76,-32,119c0,0,-32,42,-100,42c0,0,-39,0,-66,-9c0,0,-28,-9,-45,-25c0,0,-18,-17,-26,-39c0,0,-8,-22,-8,-49c0,0,0,-29,10,-50c0,0,10,-22,34,-39c0,0,22,-18,59,-35c0,0,36,-17,86,-38c0,0,60,-26,104,-50c0,0,43,-24,72,-54c0,0,27,-29,41,-65c0,0,13,-37,13,-84c0,0,-1,-60,-21,-105c0,0,-23,-45,-62,-74C539,46,499,14,445,0c0,0,-56,-14,-124,-14Z" 
id="f0_f"
transform="scale(0.001,-0.001)" />

<path d="M35,0V64H55c0,0,25,0,49,4c0,0,22,3,39,13c0,0,17,10,28,32c0,0,10,20,10,53V650c0,0,0,33,-10,55c0,0,-11,20,-28,31c0,0,-17,11,-39,15c0,0,-24,3,-49,4H51v64H324V174c0,0,0,-37,10,-58c0,0,10,-21,27,-32c0,0,16,-13,40,-16c0,0,22,-4,48,-4h20V0ZM249,972c-1,0,-2,0,-3,0c0,0,-1,0,-2,0c-5,0,-20,0,-32,5c0,0,-16,5,-28,16c0,0,-12,11,-18,29c0,0,-7,18,-7,45c0,0,0,27,7,45c0,0,6,17,18,29c0,0,12,11,28,15c0,0,15,5,34,5c0,0,18,0,34,-5c0,0,15,-4,27,-15c0,0,11,-12,19,-29c0,0,7,-18,7,-45c0,0,0,-27,-7,-45c0,0,-8,-18,-19,-29c0,0,-12,-11,-27,-16c0,0,-14,-5,-31,-5Z" 
id="f0_8"
transform="scale(0.001,-0.001)" />

<path d="M367,-14c0,0,-59,0,-100,13c0,0,-42,10,-69,38c0,0,-27,27,-39,73c0,0,-14,45,-14,112V732H29v61c0,0,28,0,61,11c0,0,32,11,58,37c0,0,26,28,43,68c0,0,15,38,28,98h70V819H489V732H289V217c0,0,-1,-78,32,-115c0,0,30,-36,83,-36c0,0,1,0,1,0c0,0,2,0,6,0c9,0,28,0,45,3c0,0,23,3,47,7V9C503,9,492,4,477,0c0,0,-15,-3,-33,-6c0,0,-20,-5,-39,-6c0,0,-20,-2,-38,-2Z" 
id="f0_7"
transform="scale(0.001,-0.001)" />

<path d="M348,79c0,0,46,0,85,15c0,0,36,14,64,42c0,0,25,27,40,66c0,0,14,39,14,87V412H454c0,0,-65,0,-109,-14c0,0,-44,-13,-70,-36c0,0,-27,-25,-39,-59c0,0,-12,-35,-11,-80c0,0,0,-73,30,-108c0,0,29,-36,93,-36ZM313,-14c0,0,-50,0,-94,14c0,0,-44,14,-75,45c0,0,-33,30,-50,77c0,0,-18,47,-18,109c0,0,0,123,87,182c0,0,85,59,261,60H551v93c0,0,0,42,-4,78c0,0,-5,34,-20,60c0,0,-15,26,-42,40c0,0,-28,14,-75,14c0,0,-44,0,-71,-12c0,0,-29,-13,-43,-35c0,0,-16,-23,-21,-53c0,0,-6,-31,-5,-66c0,0,-64,0,-96,21c0,0,-34,21,-34,75c0,0,0,39,22,67c0,0,21,28,60,45c0,0,36,17,87,26c0,0,49,7,107,8c0,0,69,0,122,-13c0,0,52,-15,87,-46c0,0,34,-31,53,-81c0,0,17,-52,17,-124V174c0,0,0,-33,5,-53c0,0,6,-22,17,-34c0,0,10,-12,30,-18c0,0,15,-5,38,-5c2,0,3,0,5,0h4V0H588L564,131H551c0,0,-24,-33,-46,-59c0,0,-22,-27,-49,-46C456,26,429,6,395,-3c0,0,-35,-11,-82,-11Z" 
id="f0_5"
transform="scale(0.001,-0.001)" />

<path d="M43,0V64H55c0,0,26,0,49,4c0,0,23,3,40,16c0,0,16,11,27,32c0,0,10,21,10,58V650c0,0,0,33,-10,55c0,0,-11,20,-28,31c0,0,-17,11,-39,15c0,0,-24,3,-49,4H51v64H298L318,695h7c0,0,23,42,51,70c0,0,25,27,56,43c0,0,29,14,63,21c0,0,32,5,69,5c0,0,60,-1,108,-17c0,0,47,-18,81,-54c0,0,32,-37,50,-93c0,0,17,-58,18,-135V174c0,0,0,-37,9,-58c0,0,7,-21,23,-32c0,0,16,-13,38,-16c0,0,21,-4,47,-4h5V0H677V527c0,0,0,50,-9,89c0,0,-10,39,-29,66c0,0,-20,26,-52,41c0,0,-33,13,-78,13c0,0,-53,0,-88,-20c0,0,-36,-20,-57,-54c0,0,-22,-35,-31,-79c0,0,-10,-45,-9,-94V166c0,0,0,-33,10,-53c0,0,10,-22,27,-32c0,0,16,-10,40,-13c0,0,22,-4,48,-4h5V0Z" 
id="f0_i"
transform="scale(0.001,-0.001)" />

<path d="M433,-14c0,0,-77,0,-141,23c0,0,-64,23,-110,74c0,0,-46,50,-72,130c0,0,-26,79,-26,192c0,0,0,122,26,205c0,0,26,82,72,132c0,0,46,49,108,71c0,0,61,21,134,21c0,0,47,0,96,-9c0,0,47,-10,85,-29c0,0,38,-19,62,-49c0,0,23,-30,24,-69c0,0,0,-54,-35,-74c0,0,-35,-22,-102,-22c0,0,0,35,-6,68c0,0,-6,32,-20,56c0,0,-15,24,-39,38c0,0,-26,14,-65,14c0,0,-44,0,-79,-16c0,0,-35,-18,-61,-57c0,0,-26,-40,-39,-108c0,0,-13,-69,-13,-170c0,0,-1,-164,54,-243c0,0,54,-80,177,-80h1c6,0,72,1,123,30c0,0,52,30,79,77c0,0,11,-10,19,-24c0,0,7,-15,7,-36c0,0,0,-27,-16,-52c0,0,-17,-26,-49,-47C627,32,594,10,546,0c0,0,-48,-14,-113,-14Z" 
id="f0_9"
transform="scale(0.001,-0.001)" />

<path d="M442,64c0,0,56,0,97,23c0,0,38,22,64,66c0,0,24,43,36,108c0,0,9,65,10,150c0,0,0,85,-11,149c0,0,-11,64,-36,108c0,0,-25,42,-64,64c0,0,-41,21,-98,21c0,0,-58,0,-97,-21c0,0,-39,-22,-64,-64c0,0,-25,-44,-36,-108c0,0,-11,-64,-11,-149c0,0,0,-85,11,-150c0,0,11,-65,37,-108c0,0,24,-44,65,-66c0,0,38,-23,97,-23Zm-3,-78c0,0,-83,0,-149,25c0,0,-66,26,-111,79c0,0,-47,52,-70,134c0,0,-25,79,-25,187c0,0,0,213,91,319c0,0,90,103,268,104c0,0,82,0,149,-25c0,0,65,-26,111,-79c0,0,46,-53,71,-132c0,0,23,-80,23,-187c0,0,0,-216,-91,-321C706,90,614,-14,439,-14Z" 
id="f0_c"
transform="scale(0.001,-0.001)" />

<path d="M41,0V64H61c0,0,26,0,49,4c0,0,23,3,40,16c0,0,16,11,27,32c0,0,9,21,9,58V747H47v72H186v76c0,0,0,68,19,121c0,0,19,52,54,88c0,0,34,35,85,55c0,0,50,17,113,17c0,0,58,0,100,-7c0,0,41,-8,67,-22c0,0,24,-15,35,-34c0,0,12,-20,12,-43c0,0,0,-22,-9,-37c0,0,-11,-17,-26,-27c0,0,-18,-11,-40,-16c0,0,-24,-6,-51,-6c0,0,0,23,-4,45c0,0,-6,21,-17,39c0,0,-12,17,-31,28c0,0,-19,10,-48,10c0,0,-34,0,-55,-12c0,0,-22,-13,-36,-38c0,0,-13,-26,-18,-62c0,0,-6,-37,-6,-85V819H545V747H330V174c0,0,0,-37,10,-58c0,0,10,-21,27,-32c0,0,16,-13,40,-16c0,0,22,-4,48,-4h58V0Z" 
id="f0_d"
transform="scale(0.001,-0.001)" />

<path d="M351,-291c2,0,3,0,5,0c0,0,1,0,2,0c12,0,84,1,134,15c0,0,52,13,84,38c0,0,31,23,44,58c0,0,12,34,13,74c0,0,0,35,-10,59c0,0,-11,22,-30,35c0,0,-20,12,-49,17c0,0,-29,5,-67,5H327c0,0,-33,0,-62,-5c0,0,-31,-5,-54,-20c0,0,-24,-17,-38,-44c0,0,-15,-29,-14,-74c0,0,0,-34,9,-63c0,0,9,-29,31,-50c0,0,23,-22,61,-33c0,0,35,-12,91,-12Zm34,658c0,0,1,0,1,0c0,0,37,0,64,11c0,0,24,11,42,35c0,0,15,22,23,59c0,0,7,35,7,86c0,0,0,103,-31,152c0,0,-31,49,-106,49c0,0,-74,0,-105,-50c0,0,-33,-50,-32,-153c0,0,0,-98,32,-143c0,0,32,-46,105,-46ZM353,-366c-8,0,-162,1,-239,59c0,0,-80,59,-79,164c0,0,0,45,16,78c0,0,15,34,42,58c0,0,26,22,61,38c0,0,34,14,72,21c0,0,-16,7,-31,18c0,0,-14,11,-26,27c0,0,-13,16,-20,36c0,0,-8,20,-7,45c0,0,0,45,24,79c0,0,23,32,76,64c0,0,-33,13,-58,37c0,0,-27,23,-44,54c0,0,-18,30,-27,65c0,0,-10,36,-9,74c0,0,0,66,18,119c0,0,18,51,53,89c0,0,36,36,90,56c0,0,53,18,126,19c0,0,28,-1,54,-4c0,0,26,-4,50,-11c0,0,22,-8,41,-16c0,0,18,-9,29,-19c0,0,12,12,27,27c0,0,14,14,33,27c0,0,19,12,41,20c0,0,21,7,47,8c0,0,23,-1,40,-6c0,0,17,-7,28,-17c0,0,11,-11,17,-25c0,0,5,-15,5,-31c0,0,0,-17,-4,-31c0,0,-6,-15,-15,-25c0,0,-10,-12,-25,-17c0,0,-15,-7,-36,-7c0,0,0,9,-2,18c0,0,-3,9,-8,17c0,0,-6,7,-16,13c0,0,-10,4,-25,4c0,0,-19,0,-35,-4c0,0,-16,-5,-31,-14c0,0,26,-33,44,-76c0,0,16,-44,16,-109c0,0,-1,-57,-17,-105c0,0,-17,-48,-51,-82c0,0,-35,-36,-86,-56c0,0,-52,-19,-121,-19H348c0,0,-11,0,-21,1c0,0,-10,1,-15,3c0,0,-15,-9,-29,-17c0,0,-13,-9,-23,-20c0,0,-11,-11,-16,-25c0,0,-6,-15,-6,-32c0,0,-1,-19,7,-29c0,0,7,-12,20,-18c0,0,12,-7,30,-8c0,0,17,-2,38,-2H506c0,0,68,-1,116,-17c0,0,48,-17,78,-47c0,0,30,-32,44,-73c0,0,14,-41,14,-90c0,0,-1,-67,-24,-119c0,0,-25,-53,-75,-89c0,0,-50,-38,-126,-58c0,0,-77,-20,-180,-20Z" 
id="f0_l"
transform="scale(0.001,-0.001)" />

<path d="M20,0V64H40c0,0,25,0,49,4c0,0,22,3,39,16c0,0,17,11,27,32c0,0,10,21,10,58V993c0,0,0,33,-10,54c0,0,-11,21,-27,32c0,0,-18,11,-40,15c0,0,-24,3,-48,3H20v64H309V174c0,0,-1,-37,10,-58c0,0,9,-21,26,-32c0,0,17,-13,41,-16c0,0,22,-4,48,-4h20V0Z" 
id="f0_a"
transform="scale(0.001,-0.001)" />

<path d="M365,0L119,674c0,0,-9,23,-18,39c0,0,-11,15,-23,26c0,0,-12,8,-29,12c0,0,-17,3,-39,4H6v64H388V755H369c0,0,-47,0,-69,-18c0,0,-24,-18,-23,-56c0,0,-1,-13,3,-25c0,0,3,-14,9,-31L392,336c0,0,10,-26,21,-58c0,0,9,-33,20,-65c0,0,8,-31,16,-59c0,0,7,-29,11,-47h5c0,0,3,16,12,41c0,0,8,23,20,53c0,0,10,27,22,58c0,0,11,29,22,57L650,614c0,0,8,19,12,36c0,0,3,16,3,30c0,0,0,38,-25,57c0,0,-26,18,-76,18H553v64H880V755H862c0,0,-23,0,-38,-5c0,0,-17,-6,-29,-18c0,0,-12,-14,-24,-37c0,0,-12,-24,-26,-59L504,0Z" 
id="f0_n"
transform="scale(0.001,-0.001)" />

<path d="M43,0V64H63c0,0,25,0,47,4c0,0,21,3,38,16c0,0,15,11,24,32c0,0,8,21,9,58V650c0,0,0,33,-9,55c0,0,-9,20,-25,31c0,0,-16,11,-37,15c0,0,-22,3,-47,4H58v64H298L318,695h7c0,0,23,42,49,70c0,0,25,27,54,43c0,0,28,14,61,21c0,0,31,5,67,5c0,0,36,0,71,-7c0,0,33,-9,62,-24c0,0,28,-17,52,-43c0,0,21,-27,36,-65h13c0,0,23,42,50,70c0,0,27,27,57,43c0,0,30,14,64,21c0,0,32,5,68,5c0,0,59,-1,105,-17c0,0,45,-18,78,-54c0,0,32,-37,49,-93c0,0,17,-58,18,-135V174c0,0,0,-37,9,-58c0,0,9,-21,24,-32c0,0,16,-13,37,-16c0,0,21,-4,47,-4h5V0H1135V527c0,0,0,50,-8,89c0,0,-9,39,-27,66c0,0,-21,26,-50,41c0,0,-32,13,-75,13c0,0,-48,0,-80,-18c0,0,-33,-19,-53,-50c0,0,-21,-31,-28,-72c0,0,-9,-42,-9,-87V174c0,0,0,-37,9,-58c0,0,9,-21,24,-32c0,0,16,-13,38,-16c0,0,21,-4,47,-4h4V0H662V527c0,0,-1,50,-9,89c0,0,-8,39,-27,66c0,0,-20,26,-50,41c0,0,-31,13,-75,13c0,0,-50,0,-83,-20c0,0,-35,-20,-55,-54c0,0,-22,-35,-30,-79c0,0,-9,-45,-9,-94V166c0,0,0,-33,10,-53c0,0,10,-22,27,-32c0,0,16,-10,40,-13c0,0,22,-4,48,-4h5V0Z" 
id="f0_e"
transform="scale(0.001,-0.001)" />

<path d="M51,0V64h4c0,0,26,0,49,4c0,0,23,3,40,16c0,0,16,11,27,32c0,0,10,21,10,58V650c0,0,0,33,-10,55c0,0,-11,20,-28,31c0,0,-17,11,-39,15c0,0,-24,3,-49,4H51v64H286L315,668h7c0,0,14,34,31,65c0,0,15,29,39,53c0,0,22,22,56,35c0,0,33,12,84,13c0,0,83,0,124,-29c0,0,41,-30,41,-82c0,0,0,-24,-8,-44c0,0,-9,-20,-25,-34c0,0,-17,-15,-44,-23c0,0,-27,-8,-66,-8c0,0,0,63,-18,92c0,0,-18,27,-62,27c0,0,-29,0,-51,-15c0,0,-22,-18,-39,-43c0,0,-17,-27,-28,-61c0,0,-13,-35,-19,-70c0,0,-8,-37,-10,-73c0,0,-4,-35,-3,-64V166c0,0,0,-33,10,-53c0,0,10,-22,27,-32c0,0,16,-10,40,-13c0,0,22,-4,48,-4h43V0Z" 
id="f0_6"
transform="scale(0.001,-0.001)" />

<path d="M315,0L115,674c0,0,-9,23,-19,39c0,0,-10,15,-22,26c0,0,-13,8,-29,12c0,0,-17,3,-39,4H1v64H379V755H359c0,0,-46,0,-69,-13c0,0,-24,-15,-23,-51c0,0,0,-13,5,-31c0,0,3,-18,8,-35L351,369c0,0,8,-29,16,-61c0,0,7,-33,16,-65c0,0,6,-33,12,-61c0,0,6,-29,10,-48h5c0,0,3,19,10,46c0,0,5,24,15,55c0,0,7,29,18,60c0,0,9,30,19,58L631,815h96L880,362c0,0,9,-29,20,-59c0,0,9,-33,18,-63c0,0,9,-31,17,-59c0,0,7,-28,11,-47h4c0,0,7,38,22,94c0,0,14,55,38,129l76,247c0,0,5,18,11,41c0,0,3,21,3,35c0,0,0,38,-24,57c0,0,-26,18,-77,18H988v64h327V755h-19c0,0,-23,0,-39,-5c0,0,-17,-5,-29,-17c0,0,-14,-13,-25,-36c0,0,-11,-24,-22,-61L984,0H862L680,538L652,639L436,0Z" 
id="f0_o"
transform="scale(0.001,-0.001)" />

<path d="M28,0V64H40c0,0,25,0,49,4c0,0,22,3,39,16c0,0,17,11,27,32c0,0,10,21,10,58V993c0,0,0,33,-10,54c0,0,-11,21,-27,32c0,0,-18,11,-40,15c0,0,-24,3,-48,3H28v64H308V825c0,0,0,-22,0,-43c0,0,-1,-24,-4,-43c0,0,0,-23,0,-44h6c0,0,68,139,225,139c0,0,65,-1,115,-17c0,0,50,-18,85,-54c0,0,34,-37,52,-93c0,0,18,-58,18,-135V174c0,0,0,-37,9,-58c0,0,9,-21,24,-32c0,0,16,-13,38,-16c0,0,21,-4,47,-4h4V0H662V527c0,0,0,50,-9,89c0,0,-10,39,-29,66c0,0,-20,26,-52,41c0,0,-33,13,-78,13c0,0,-49,0,-82,-17c0,0,-35,-18,-58,-50c0,0,-24,-33,-34,-78c0,0,-11,-46,-11,-102V166c0,0,0,-33,10,-53c0,0,10,-22,27,-32c0,0,17,-10,40,-13c0,0,22,-4,48,-4h5V0Z" 
id="f0_k"
transform="scale(0.001,-0.001)" />

<path d="M421,83c0,0,59,0,100,20c0,0,39,19,65,60c0,0,23,39,34,101c0,0,10,61,10,144c0,0,0,79,-10,141c0,0,-11,61,-34,103c0,0,-25,41,-65,63c0,0,-41,21,-101,21c0,0,-51,0,-86,-21c0,0,-36,-23,-58,-64c0,0,-24,-42,-34,-103c0,0,-10,-62,-10,-141c0,0,0,-163,44,-244c0,0,43,-80,145,-80ZM395,-14c-8,0,-78,1,-133,24c0,0,-59,24,-98,77c0,0,-39,52,-60,132c0,0,-20,79,-20,189c0,0,0,110,20,191c0,0,21,80,60,133c0,0,39,51,98,77c0,0,58,25,133,25c0,0,44,0,80,-10c0,0,36,-10,65,-27c0,0,28,-18,51,-43c0,0,21,-24,39,-54h4c0,0,0,36,0,70c0,0,0,27,0,57c0,0,0,27,0,41V993c0,0,-1,33,-10,54c0,0,-11,21,-29,32c0,0,-18,11,-41,15c0,0,-24,3,-49,3H492v64H773V168c0,0,0,-34,10,-54c0,0,10,-21,27,-32c0,0,17,-11,40,-14c0,0,22,-4,48,-4h13V0H652L636,137h-6c0,0,-18,-35,-39,-62c0,0,-23,-29,-51,-48C540,27,512,6,476,-3c0,0,-36,-11,-81,-11Z" 
id="f0_j"
transform="scale(0.001,-0.001)" />

<path d="M683,442L588,709c0,0,-25,68,-43,127c0,0,-21,59,-33,114c0,0,-6,-28,-12,-53c0,0,-8,-26,-16,-53c0,0,-9,-26,-19,-55c0,0,-10,-31,-23,-66L338,442ZM0,0V64H29c0,0,1,0,3,0c6,0,23,1,35,5c0,0,16,5,28,18c0,0,12,13,25,37c0,0,11,22,25,60l339,907H604L949,145c0,0,8,-23,19,-39c0,0,8,-16,21,-25c0,0,12,-10,29,-13c0,0,17,-4,39,-4h20V0H657V64h35c0,0,92,0,92,73c0,0,0,12,-3,26c0,0,-4,14,-10,31L710,365H309L251,204c0,0,-8,-18,-11,-35c0,0,-4,-18,-4,-30c0,0,0,-40,26,-57c0,0,24,-18,76,-18h35V0Z" 
id="f0_3"
transform="scale(0.001,-0.001)" />

<path d="M612,-14c0,0,-133,0,-231,39c0,0,-100,41,-164,115c0,0,-66,73,-98,177c0,0,-32,103,-32,230c0,0,0,124,35,227c0,0,32,103,101,176c0,0,67,73,167,115c0,0,99,41,232,41c0,0,84,0,149,-12c0,0,62,-14,105,-37c0,0,41,-24,62,-54c0,0,21,-32,21,-68c0,0,0,-26,-11,-44c0,0,-11,-20,-30,-34c0,0,-19,-15,-44,-21c0,0,-24,-8,-53,-8c-1,0,-2,0,-3,0c0,0,-1,36,-11,71c0,0,-11,34,-34,63c0,0,-24,28,-63,46c0,0,-39,16,-95,17c0,0,-97,0,-164,-31c0,0,-69,-33,-112,-93c0,0,-44,-62,-63,-150c0,0,-19,-89,-19,-204c0,0,0,-115,20,-203c0,0,19,-89,65,-149c0,0,45,-61,118,-92c0,0,73,-31,177,-31c0,0,43,0,86,4c0,0,40,4,73,14V336c0,0,0,33,-10,55c0,0,-11,20,-27,31c0,0,-17,10,-40,14c0,0,-24,3,-48,4h-6v64h397V440h-6c0,0,-23,-1,-41,-4c0,0,-20,-3,-34,-15c0,0,-15,-12,-22,-33c0,0,-9,-22,-9,-58V55C950,55,873,19,792,2c0,0,-82,-16,-180,-16Z" 
id="f0_1f"
transform="scale(0.001,-0.001)" />

<path d="M99,350v90H755V350Zm0,300v91H755V650Z" 
id="f0_w"
transform="scale(0.001,-0.001)" />

<path d="M78,0V112L333,407c0,0,61,70,103,126c0,0,40,56,66,106c0,0,25,49,37,97c0,0,11,47,11,100c0,0,0,43,-9,79c0,0,-11,35,-29,61c0,0,-19,25,-48,40c0,0,-31,13,-70,13c0,0,-53,0,-84,-18c0,0,-33,-20,-52,-50c0,0,-19,-31,-25,-73c0,0,-7,-41,-7,-86c0,0,-28,0,-51,4c0,0,-24,4,-42,17c0,0,-18,11,-28,30c0,0,-10,19,-10,48c0,0,0,43,19,82c0,0,19,37,57,65c0,0,36,28,93,43c0,0,56,15,130,15c0,0,72,0,130,-18c0,0,56,-19,97,-51c0,0,41,-34,62,-81c0,0,21,-47,21,-105c0,0,-1,-54,-17,-104c0,0,-18,-52,-50,-104c0,0,-33,-54,-80,-111c0,0,-48,-58,-108,-124L191,122H545c7,0,36,1,56,10c0,0,21,10,36,25c0,0,14,15,22,37c0,0,7,20,13,42l6,28h61V0Z" 
id="f0_1g"
transform="scale(0.001,-0.001)" />

<path d="M229,0V64h35c0,0,25,0,49,4c0,0,22,3,39,13c0,0,17,10,28,32c0,0,9,20,9,53v849H243c0,0,-33,0,-56,-10c0,0,-24,-11,-37,-28c0,0,-15,-17,-22,-39c0,0,-8,-24,-10,-49l-8,-65H34v267H902V824H827l-8,65c0,0,-4,25,-10,49c0,0,-9,22,-22,39c0,0,-15,17,-37,28c0,0,-24,10,-58,10H544V174c0,0,0,-37,10,-58c0,0,10,-21,27,-32c0,0,16,-13,40,-16c0,0,22,-4,48,-4h35V0Z" 
id="f0_t"
transform="scale(0.001,-0.001)" />

<path d="M58,0V64H78c0,0,25,0,49,4c0,0,22,3,39,16c0,0,17,11,27,32c0,0,10,21,10,58V923c0,0,0,33,-10,54c0,0,-11,20,-27,32c0,0,-18,11,-40,14c0,0,-24,3,-48,3H58v65H338L885,246V923c0,0,0,33,-10,54c0,0,-11,20,-28,32c0,0,-17,11,-39,14c0,0,-24,3,-49,3H739v65h384v-65h-20c0,0,-26,0,-48,-3c0,0,-24,-4,-40,-15c0,0,-18,-13,-27,-34c0,0,-11,-21,-10,-57V0H869L296,880V174c0,0,0,-37,11,-58c0,0,9,-21,26,-32c0,0,16,-13,40,-16c0,0,22,-4,48,-4h21V0Z" 
id="f0_1h"
transform="scale(0.001,-0.001)" />

<path d="M417,-14c0,0,-60,0,-107,16c0,0,-47,17,-79,54c0,0,-33,36,-49,93c0,0,-17,57,-17,135V650c0,0,0,33,-10,55c0,0,-11,20,-27,31c0,0,-18,11,-40,15c0,0,-24,3,-48,4H35v64H309V292c0,0,0,-51,8,-89c0,0,7,-40,26,-66c0,0,18,-27,49,-40c0,0,29,-14,74,-14c1,0,2,0,3,0c0,0,50,0,88,18c0,0,35,18,59,50c0,0,23,32,34,78c0,0,12,46,12,101V645c0,0,0,35,-10,58c0,0,-10,21,-27,33c0,0,-17,11,-39,15c0,0,-24,3,-50,4h-4v64H805V166c0,0,0,-33,10,-53c0,0,10,-22,27,-32c0,0,17,-10,41,-13c0,0,21,-4,47,-4h5V0H692L672,124h-7c0,0,-24,-44,-51,-70c0,0,-28,-28,-60,-42c0,0,-31,-15,-65,-20c0,0,-35,-6,-72,-6Z" 
id="f0_r"
transform="scale(0.001,-0.001)" />

<path d="M58,-366v72h1c8,0,79,1,133,23c0,0,55,24,97,64c0,0,39,40,68,95c0,0,26,55,45,118L119,674c0,0,-10,23,-20,39c0,0,-10,14,-21,25c0,0,-13,9,-29,13c0,0,-17,3,-39,4H6v64H373V755h-4c0,0,-47,0,-69,-18c0,0,-24,-18,-23,-56c0,0,-1,-13,3,-25c0,0,2,-14,9,-31L401,353c0,0,9,-27,22,-57c0,0,11,-31,22,-61c0,0,9,-31,18,-57c0,0,7,-28,11,-47h4c0,0,8,34,23,82c0,0,14,48,34,103L637,614c0,0,7,19,11,36c0,0,2,16,2,30c0,0,0,38,-24,57c0,0,-26,18,-76,18h-5v64H863V755h-4c0,0,-23,0,-38,-5c0,0,-18,-6,-30,-18c0,0,-13,-14,-24,-37c0,0,-11,-24,-25,-59L510,-5c0,0,-27,-74,-50,-130c0,0,-25,-56,-50,-95c0,0,-27,-41,-57,-67c0,0,-32,-26,-71,-41c0,0,-40,-17,-91,-22c0,0,-51,-6,-119,-6Z" 
id="f0_p"
transform="scale(0.001,-0.001)" />

<path d="M58,0V64H78c0,0,24,0,48,4c0,0,22,3,40,13c0,0,16,10,27,32c0,0,10,20,10,53V923c0,0,0,33,-10,54c0,0,-11,20,-27,32c0,0,-18,11,-40,14c0,0,-24,3,-48,3H58v65H832V824H756l-7,65c0,0,-4,26,-12,49c0,0,-9,23,-25,40c0,0,-17,16,-43,27c0,0,-26,10,-61,10H357V573H726V498H357V174c0,0,0,-37,11,-58c0,0,9,-21,27,-32c0,0,15,-13,39,-16c0,0,23,-4,49,-4h50V0Z" 
id="f0_11"
transform="scale(0.001,-0.001)" />

<path d="M480,-194c0,0,-106,41,-180,101c0,0,-75,59,-122,141c0,0,-48,82,-69,191c0,0,-22,107,-22,245c0,0,0,137,22,246c0,0,21,106,69,188c0,0,47,82,122,142c0,0,74,59,180,101v-69c0,0,-79,-48,-125,-114c0,0,-48,-67,-71,-146c0,0,-24,-80,-30,-168c0,0,-9,-90,-8,-180c0,0,-1,-92,8,-180c0,0,6,-88,30,-167c0,0,23,-80,71,-146c0,0,46,-68,125,-115v-70Z" 
id="f0_g"
transform="scale(0.001,-0.001)" />

<path d="M49,-194v70c0,0,79,47,125,115c0,0,45,66,71,146c0,0,23,79,31,167c0,0,7,88,7,180c0,0,0,90,-7,180c0,0,-8,88,-31,168c0,0,-26,79,-71,146c0,0,-46,66,-125,114v69c0,0,105,-42,180,-101c0,0,75,-60,122,-142c0,0,47,-82,69,-188c0,0,21,-109,22,-246c0,0,-1,-138,-22,-245c0,0,-22,-109,-69,-191c0,0,-47,-82,-122,-141c0,0,-75,-60,-180,-101Z" 
id="f0_h"
transform="scale(0.001,-0.001)" />

<path d="M46,659v64c0,0,74,23,110,58c0,0,34,34,35,79c0,0,-1,14,-8,25c0,0,-9,10,-21,18c0,0,-13,7,-27,15c0,0,-15,8,-27,18c0,0,-13,10,-21,26c0,0,-8,14,-8,38c0,0,0,44,29,68c0,0,28,23,71,23c0,0,23,-1,45,-9c0,0,20,-9,37,-25c0,0,16,-17,26,-42c0,0,9,-26,9,-57c0,0,0,-49,-13,-94c0,0,-14,-46,-44,-84c0,0,-30,-40,-77,-70c0,0,-49,-31,-116,-51Z" 
id="f0_15"
transform="scale(0.001,-0.001)" />

<path d="M553,-14c0,0,-91,0,-162,18c0,0,-72,19,-121,61c0,0,-51,40,-76,107c0,0,-26,64,-26,158V923c0,0,0,33,-10,54c0,0,-11,20,-27,32c0,0,-18,11,-40,14c0,0,-24,3,-48,3H23v65H468v-65H448c0,0,-27,0,-49,-3c0,0,-24,-4,-39,-15c0,0,-18,-13,-27,-34c0,0,-11,-21,-11,-57V321c0,0,0,-67,20,-113c0,0,18,-47,53,-76c0,0,33,-29,80,-42c0,0,46,-14,102,-14c0,0,66,0,115,18c0,0,47,17,80,50c0,0,31,31,47,75c0,0,14,43,15,96V923c0,0,0,33,-10,54c0,0,-11,20,-27,32c0,0,-17,11,-40,14c0,0,-24,3,-48,3H689v65h384v-65h-20c0,0,-27,0,-49,-3c0,0,-24,-4,-39,-15c0,0,-18,-13,-27,-34c0,0,-11,-21,-11,-57V312c0,0,0,-76,-24,-137c0,0,-24,-62,-71,-103C832,72,783,30,714,7c0,0,-71,-21,-161,-21Z" 
id="f0_1i"
transform="scale(0.001,-0.001)" />

<path d="M421,83c0,0,59,0,100,20c0,0,39,19,65,60c0,0,23,39,34,101c0,0,10,61,10,144c0,0,0,79,-10,141c0,0,-11,61,-34,103c0,0,-25,41,-65,63c0,0,-41,21,-101,21c0,0,-51,0,-86,-21c0,0,-36,-23,-58,-64c0,0,-24,-42,-34,-103c0,0,-10,-62,-10,-141c0,0,0,-163,44,-244c0,0,43,-80,145,-80Zm33,-449v64h51c0,0,26,0,50,4c0,0,22,3,40,16c0,0,17,11,27,33c0,0,10,21,11,58V-60c0,0,0,25,0,60c0,0,0,33,0,64c0,0,0,36,0,73h-3c0,0,-18,-35,-39,-62c0,0,-23,-29,-51,-48C540,27,512,6,476,-3c0,0,-36,-11,-81,-11c-8,0,-78,1,-133,24c0,0,-59,24,-98,77c0,0,-39,52,-60,132c0,0,-20,79,-20,189c0,0,0,110,20,191c0,0,21,80,60,133c0,0,39,51,98,77c0,0,58,25,133,25c0,0,44,0,80,-10c0,0,36,-10,65,-27c0,0,28,-18,51,-43c0,0,21,-24,39,-54h9l27,119H911V755H898c0,0,-26,-1,-48,-4c0,0,-24,-4,-40,-15c0,0,-17,-12,-27,-33c0,0,-10,-23,-10,-58V-197c0,0,0,-34,10,-54c0,0,10,-22,27,-32c0,0,17,-12,40,-15c0,0,22,-4,48,-4h13v-64Z" 
id="f0_m"
transform="scale(0.001,-0.001)" />

<path d="M46,0c0,0,-2,48,16,93c0,0,27,74,88,146c0,0,61,71,176,165c0,0,178,146,241,232c0,0,63,85,63,161c0,0,0,80,-57,135c0,0,-58,55,-149,55c0,0,-98,0,-156,-59c0,0,-58,-58,-59,-160L71,782c0,0,15,154,107,235c0,0,93,81,249,81c0,0,157,0,249,-87c0,0,92,-88,92,-217c0,0,0,-65,-27,-129c0,0,-27,-63,-89,-133c0,0,-62,-70,-207,-193C445,339,324,238,290,202c0,0,-35,-36,-57,-73H770V0Z" 
id="f1_m"
transform="scale(0.001,-0.001)" />

<path d="M423,92c0,0,97,0,159,62c0,0,62,62,62,157c0,0,0,97,-64,160c0,0,-64,64,-161,64c0,0,-96,0,-158,-63c0,0,-62,-62,-62,-156c0,0,0,-58,27,-111c0,0,27,-54,81,-84c0,0,54,-29,116,-29Zm0,552c0,0,78,0,127,49c0,0,49,49,49,120c0,0,0,74,-50,124c0,0,-51,51,-128,51c0,0,-77,0,-127,-50c0,0,-51,-49,-51,-118c0,0,0,-77,50,-126c0,0,50,-50,130,-50ZM422,-18c0,0,-162,0,-261,95c0,0,-99,96,-99,239c0,0,0,107,54,179c0,0,54,72,154,98c0,0,-84,31,-124,87c0,0,-40,57,-40,136c0,0,0,119,85,201c0,0,86,81,229,81c0,0,143,0,230,-83c0,0,87,-83,87,-203c0,0,0,-76,-40,-132c0,0,-39,-56,-121,-87c0,0,101,-33,154,-106c0,0,52,-73,52,-174c0,0,0,-141,-99,-236c0,0,-99,-95,-261,-95Z" 
id="f1_s"
transform="scale(0.001,-0.001)" />


</defs>
</svg>