<?xml version="1.0" encoding="UTF-8" standalone="no"?>
<!DOCTYPE svg PUBLIC "-//W3C//DTD SVG 1.1//EN"
"http://www.w3.org/Graphics/SVG/1.1/DTD/svg11.dtd">
<svg viewBox="0 0 909 1286" version="1.1" xmlns="http://www.w3.org/2000/svg" xmlns:xlink="http://www.w3.org/1999/xlink">
<defs>
</defs>
<image preserveAspectRatio="none" x="47" y="113" width="136" height="67" xlink:href="img/1.png" />
<image preserveAspectRatio="none" x="47" y="199" width="260" height="36" xlink:href="img/2.png" />
<image preserveAspectRatio="none" x="47" y="255" width="159" height="34" xlink:href="img/3.png" />
<image preserveAspectRatio="none" x="47" y="307" width="116" height="67" xlink:href="img/4.png" />
<image preserveAspectRatio="none" x="47" y="393" width="164" height="65" xlink:href="img/5.png" />
<image preserveAspectRatio="none" x="47" y="477" width="142" height="96" xlink:href="img/6.png" />
<image preserveAspectRatio="none" x="47" y="591" width="161" height="37" xlink:href="img/7.png" />
<image preserveAspectRatio="none" x="47" y="646" width="144" height="67" xlink:href="img/8.png" />
<image preserveAspectRatio="none" x="47" y="732" width="317" height="61" xlink:href="img/9.png" />
<image preserveAspectRatio="none" x="47" y="811" width="89" height="64" xlink:href="img/10.png" />
<image preserveAspectRatio="none" x="47" y="894" width="159" height="69" xlink:href="img/11.png" />
<image preserveAspectRatio="none" x="47" y="981" width="179" height="73" xlink:href="img/12.png" />
<image preserveAspectRatio="none" x="47" y="1074" width="144" height="34" xlink:href="img/13.png" />
<image preserveAspectRatio="none" x="47" y="1147" width="61" height="28" xlink:href="img/14.png" />
<image preserveAspectRatio="none" x="108" y="1126" width="320" height="69" xlink:href="img/15.png" />
<g fill="#000000" >
<use xlink:href="#f0_p" transform="matrix(8,0,0,8,785.4,1275.3)" />
<use xlink:href="#f0_m" transform="matrix(8,0,0,8,792.2,1275.3)" />
</g>
<defs>
<path d="M415,-18c0,0,-149,0,-244,83c0,0,-94,84,-107,222l140,11c0,0,16,-103,73,-154c0,0,56,-52,137,-52c0,0,98,0,165,73c0,0,66,73,66,194c0,0,0,115,-64,182c0,0,-64,66,-169,66c0,0,-65,0,-117,-29c0,0,-52,-30,-82,-77L87,517l106,562H736V951H300L241,657c0,0,99,69,207,69c0,0,143,0,242,-100c0,0,98,-99,98,-255c0,0,0,-149,-86,-257C702,114,597,-18,415,-18Z" 
id="f0_p"
transform="scale(0.001,-0.001)" />

<path d="M46,0c0,0,-2,48,16,93c0,0,27,74,88,146c0,0,61,71,176,165c0,0,178,146,241,232c0,0,63,85,63,161c0,0,0,80,-57,135c0,0,-58,55,-149,55c0,0,-98,0,-156,-59c0,0,-58,-58,-59,-160L71,782c0,0,15,154,107,235c0,0,93,81,249,81c0,0,157,0,249,-87c0,0,92,-88,92,-217c0,0,0,-65,-27,-129c0,0,-27,-63,-89,-133c0,0,-62,-70,-207,-193C445,339,324,238,290,202c0,0,-35,-36,-57,-73H770V0Z" 
id="f0_m"
transform="scale(0.001,-0.001)" />


</defs>
</svg>