<?xml version="1.0" encoding="UTF-8" standalone="no"?>
<!DOCTYPE svg PUBLIC "-//W3C//DTD SVG 1.1//EN"
"http://www.w3.org/Graphics/SVG/1.1/DTD/svg11.dtd">
<svg viewBox="0 0 909 1286" version="1.1" xmlns="http://www.w3.org/2000/svg" xmlns:xlink="http://www.w3.org/1999/xlink">
<defs>
<style type="text/css"><![CDATA[
.g0_40{
fill: #D9D9D9;
}
.g1_40{
fill: none;
stroke: #000000;
stroke-width: 0.7638889;
stroke-linecap: butt;
stroke-linejoin: miter;
}
.g2_40{
}
]]></style>
</defs>
<image preserveAspectRatio="none" x="747" y="1196" width="96" height="59" xlink:href="img/1.png" />
<image preserveAspectRatio="none" x="336" y="41" width="259" height="51" xlink:href="img/2.png" />
<image preserveAspectRatio="none" x="342" y="50" width="247" height="27" xlink:href="img/3.png" />
<image preserveAspectRatio="none" x="341" y="45" width="239" height="42" xlink:href="img/4.png" />
<g fill="#FFFFFF" >
<use xlink:href="#f0_j" transform="matrix(11.5,0,0,11.5,355.1,70.1)" />
<use xlink:href="#f0_i" transform="matrix(11.5,0,0,11.5,364.3,70.1)" />
<use xlink:href="#f0_2n" transform="matrix(11.5,0,0,11.5,374.1,70.1)" />
<use xlink:href="#f0_t" transform="matrix(11.5,0,0,11.5,382.6,70.1)" />
<use xlink:href="#f0_oj" transform="matrix(11.5,0,0,11.5,391,70.1)" />
<use xlink:href="#f0_3e" transform="matrix(11.5,0,0,11.5,396.5,70.1)" />
<use xlink:href="#f0_1c" transform="matrix(11.5,0,0,11.5,406.1,70.1)" />
<use xlink:href="#f0_1c" transform="matrix(11.5,0,0,11.5,410.8,70.1)" />
<use xlink:href="#f0_oj" transform="matrix(11.5,0,0,11.5,415.6,70.1)" />
<use xlink:href="#f0_rz" transform="matrix(11.5,0,0,11.5,421.1,70.1)" />
<use xlink:href="#f0_rx" transform="matrix(11.5,0,0,11.5,429.9,70.1)" />
<use xlink:href="#f0_ry" transform="matrix(11.5,0,0,11.5,438.7,70.1)" />
<use xlink:href="#f0_s4" transform="matrix(11.5,0,0,11.5,447.5,70.1)" />
<use xlink:href="#f0_t" transform="matrix(11.5,0,0,11.5,460.4,70.1)" />
<use xlink:href="#f0_3e" transform="matrix(11.5,0,0,11.5,468.8,70.1)" />
<use xlink:href="#f0_5" transform="matrix(11.5,0,0,11.5,478.3,70.1)" />
<use xlink:href="#f0_1x" transform="matrix(11.5,0,0,11.5,489,70.1)" />
<use xlink:href="#f0_1c" transform="matrix(11.5,0,0,11.5,504.4,70.1)" />
<use xlink:href="#f0_1y" transform="matrix(11.5,0,0,11.5,509.1,70.1)" />
<use xlink:href="#f0_5" transform="matrix(11.5,0,0,11.5,520.8,70.1)" />
<use xlink:href="#f0_2t" transform="matrix(11.5,0,0,11.5,531.5,70.1)" />
<use xlink:href="#f0_1c" transform="matrix(11.5,0,0,11.5,540.2,70.1)" />
<use xlink:href="#f0_24" transform="matrix(11.5,0,0,11.5,545,70.1)" />
<use xlink:href="#f0_1y" transform="matrix(11.5,0,0,11.5,556.7,70.1)" />
</g>
<image preserveAspectRatio="none" x="554" y="45" width="36" height="42" xlink:href="img/5.png" />
<g fill="#FFFFFF" >
<use xlink:href="#f1_l" transform="matrix(11,0,0,11,770.3,1227.6)" />
<use xlink:href="#f1_p" transform="matrix(11,0,0,11,779.1,1227.6)" />
<use xlink:href="#f1_j" transform="matrix(11,0,0,11,792.3,1227.6)" />
<use xlink:href="#f1_m" transform="matrix(11,0,0,11,802.9,1227.6)" />
<use xlink:href="#f1_s" transform="matrix(11,0,0,11,811.7,1227.6)" />
</g>
<path fill-rule="evenodd" d="M52.8,1193.5H856.9v-.8H52.8v.8Z" class="g0_40" />
<path d="M37.9,99.4L873,98.5" class="g1_40" />
<g fill="#000000" >
<use xlink:href="#f2_1j" transform="matrix(12,0,0,12,55,391.3)" />
<use xlink:href="#f2_2b" transform="matrix(12,0,0,12,65.3,391.3)" />
<use xlink:href="#f2_28" transform="matrix(12,0,0,12,74.5,391.3)" />
<use xlink:href="#f2_2h" transform="matrix(12,0,0,12,79.2,391.3)" />
<use xlink:href="#f2_2g" transform="matrix(12,0,0,12,89.5,391.3)" />
<use xlink:href="#f2_25" transform="matrix(12,0,0,12,95.7,391.3)" />
<use xlink:href="#f2_2b" transform="matrix(12,0,0,12,100.8,391.3)" />
<use xlink:href="#f2_2a" transform="matrix(12,0,0,12,109.9,391.3)" />
<use xlink:href="#f2_u" transform="matrix(12,0,0,12,120.2,391.3)" />
<use xlink:href="#f3_c" transform="matrix(12,0,0,12,55,412.2)" />
<use xlink:href="#f3_1x" transform="matrix(12,0,0,12,61.3,412.2)" />
<use xlink:href="#f3_d" transform="matrix(12,0,0,12,69.3,412.2)" />
<use xlink:href="#f3_1k" transform="matrix(12,0,0,12,80.3,412.2)" />
<use xlink:href="#f3_24" transform="matrix(12,0,0,12,91.6,412.2)" />
<use xlink:href="#f3_21" transform="matrix(12,0,0,12,100.4,412.2)" />
<use xlink:href="#f3_2f" transform="matrix(12,0,0,12,108.5,412.2)" />
<use xlink:href="#f3_21" transform="matrix(12,0,0,12,115.5,412.2)" />
<use xlink:href="#f3_2f" transform="matrix(12,0,0,12,128.3,412.2)" />
<use xlink:href="#f3_21" transform="matrix(12,0,0,12,135.2,412.2)" />
<use xlink:href="#f3_23" transform="matrix(12,0,0,12,143.3,412.2)" />
<use xlink:href="#f3_29" transform="matrix(12,0,0,12,152.8,412.2)" />
<use xlink:href="#f3_21" transform="matrix(12,0,0,12,166.8,412.2)" />
<use xlink:href="#f3_2a" transform="matrix(12,0,0,12,175.2,412.2)" />
<use xlink:href="#f3_2g" transform="matrix(12,0,0,12,184,412.2)" />
<use xlink:href="#f3_2f" transform="matrix(12,0,0,12,189.5,412.2)" />
<use xlink:href="#f3_2b" transform="matrix(12,0,0,12,200.8,412.2)" />
<use xlink:href="#f3_22" transform="matrix(12,0,0,12,210.3,412.2)" />
<use xlink:href="#f3_1x" transform="matrix(12,0,0,12,220.6,412.2)" />
<use xlink:href="#f3_2g" transform="matrix(12,0,0,12,233.4,412.2)" />
<use xlink:href="#f3_2e" transform="matrix(12,0,0,12,238.9,412.2)" />
<use xlink:href="#f3_1x" transform="matrix(12,0,0,12,245.1,412.2)" />
<use xlink:href="#f3_2a" transform="matrix(12,0,0,12,253.2,412.2)" />
<use xlink:href="#f3_2f" transform="matrix(12,0,0,12,262,412.2)" />
<use xlink:href="#f3_29" transform="matrix(12,0,0,12,269.3,412.2)" />
<use xlink:href="#f3_25" transform="matrix(12,0,0,12,283.2,412.2)" />
<use xlink:href="#f3_2g" transform="matrix(12,0,0,12,287.6,412.2)" />
<use xlink:href="#f3_2g" transform="matrix(12,0,0,12,293.1,412.2)" />
<use xlink:href="#f3_21" transform="matrix(12,0,0,12,298.6,412.2)" />
<use xlink:href="#f3_2e" transform="matrix(12,0,0,12,306.6,412.2)" />
<use xlink:href="#f3_1x" transform="matrix(12,0,0,12,317.6,412.2)" />
<use xlink:href="#f3_2e" transform="matrix(12,0,0,12,325.7,412.2)" />
<use xlink:href="#f3_21" transform="matrix(12,0,0,12,331.9,412.2)" />
<use xlink:href="#f3_1z" transform="matrix(12,0,0,12,344.7,412.2)" />
<use xlink:href="#f3_1x" transform="matrix(12,0,0,12,352.8,412.2)" />
<use xlink:href="#f3_28" transform="matrix(12,0,0,12,360.8,412.2)" />
<use xlink:href="#f3_28" transform="matrix(12,0,0,12,365.6,412.2)" />
<use xlink:href="#f3_21" transform="matrix(12,0,0,12,370.4,412.2)" />
<use xlink:href="#f3_20" transform="matrix(12,0,0,12,378.4,412.2)" />
<use xlink:href="#f3_21" transform="matrix(12,0,0,12,392.4,412.2)" />
<use xlink:href="#f3_29" transform="matrix(12,0,0,12,400.8,412.2)" />
<use xlink:href="#f3_25" transform="matrix(12,0,0,12,415,412.2)" />
<use xlink:href="#f3_2g" transform="matrix(12,0,0,12,419.5,412.2)" />
<use xlink:href="#f3_2g" transform="matrix(12,0,0,12,425.3,412.2)" />
<use xlink:href="#f3_21" transform="matrix(12,0,0,12,430.8,412.2)" />
<use xlink:href="#f3_2e" transform="matrix(12,0,0,12,438.9,412.2)" />
<use xlink:href="#f3_c" transform="matrix(12,0,0,12,449.5,412.2)" />
<use xlink:href="#f3_15" transform="matrix(12,0,0,12,455.3,412.2)" />
<use xlink:href="#f3_d" transform="matrix(12,0,0,12,466.7,412.2)" />
<use xlink:href="#f3_g" transform="matrix(12,0,0,12,472.9,412.2)" />
<use xlink:href="#f3_12" transform="matrix(12,0,0,12,482.1,412.2)" />
<use xlink:href="#f3_1x" transform="matrix(12,0,0,12,494.2,412.2)" />
<use xlink:href="#f3_2f" transform="matrix(12,0,0,12,502.2,412.2)" />
<use xlink:href="#f3_21" transform="matrix(12,0,0,12,509.2,412.2)" />
<use xlink:href="#f3_c" transform="matrix(12,0,0,12,522,412.2)" />
<use xlink:href="#f3_12" transform="matrix(12,0,0,12,528.2,412.2)" />
<use xlink:href="#f3_d" transform="matrix(12,0,0,12,540.3,412.2)" />
<use xlink:href="#f3_1x" transform="matrix(12,0,0,12,551.3,412.2)" />
<use xlink:href="#f3_2a" transform="matrix(12,0,0,12,559.4,412.2)" />
<use xlink:href="#f3_20" transform="matrix(12,0,0,12,568.1,412.2)" />
<use xlink:href="#f3_1z" transform="matrix(12,0,0,12,582.1,412.2)" />
<use xlink:href="#f3_2b" transform="matrix(12,0,0,12,590.1,412.2)" />
<use xlink:href="#f3_28" transform="matrix(12,0,0,12,599.6,412.2)" />
<use xlink:href="#f3_28" transform="matrix(12,0,0,12,604.4,412.2)" />
<use xlink:href="#f3_21" transform="matrix(12,0,0,12,609.2,412.2)" />
<use xlink:href="#f3_1z" transform="matrix(12,0,0,12,617.2,412.2)" />
<use xlink:href="#f3_2g" transform="matrix(12,0,0,12,625.3,412.2)" />
<use xlink:href="#f3_2b" transform="matrix(12,0,0,12,630.8,412.2)" />
<use xlink:href="#f3_2e" transform="matrix(12,0,0,12,640,412.2)" />
<use xlink:href="#f3_c" transform="matrix(12,0,0,12,650.9,412.2)" />
<use xlink:href="#f3_13" transform="matrix(12,0,0,12,657.1,412.2)" />
<use xlink:href="#f3_d" transform="matrix(12,0,0,12,669.2,412.2)" />
<use xlink:href="#f3_15" transform="matrix(12,0,0,12,55,433.5)" />
<use xlink:href="#f3_29" transform="matrix(12,0,0,12,66.4,433.5)" />
<use xlink:href="#f3_25" transform="matrix(12,0,0,12,80.3,433.5)" />
<use xlink:href="#f3_2g" transform="matrix(12,0,0,12,84.7,433.5)" />
<use xlink:href="#f3_2g" transform="matrix(12,0,0,12,90.2,433.5)" />
<use xlink:href="#f3_21" transform="matrix(12,0,0,12,95.7,433.5)" />
<use xlink:href="#f3_2e" transform="matrix(12,0,0,12,103.7,433.5)" />
<use xlink:href="#f3_u" transform="matrix(12,0,0,12,114.7,433.5)" />
<use xlink:href="#f3_19" transform="matrix(12,0,0,12,124.2,433.5)" />
<use xlink:href="#f3_2g" transform="matrix(12,0,0,12,130.1,433.5)" />
<use xlink:href="#f3_25" transform="matrix(12,0,0,12,140.3,433.5)" />
<use xlink:href="#f3_2f" transform="matrix(12,0,0,12,144.7,433.5)" />
<use xlink:href="#f3_2b" transform="matrix(12,0,0,12,156.5,433.5)" />
<use xlink:href="#f3_22" transform="matrix(12,0,0,12,166,433.5)" />
<use xlink:href="#f3_29" transform="matrix(12,0,0,12,176.6,433.5)" />
<use xlink:href="#f3_2b" transform="matrix(12,0,0,12,190.2,433.5)" />
<use xlink:href="#f3_20" transform="matrix(12,0,0,12,199.7,433.5)" />
<use xlink:href="#f3_21" transform="matrix(12,0,0,12,208.8,433.5)" />
<use xlink:href="#f3_2e" transform="matrix(12,0,0,12,216.9,433.5)" />
<use xlink:href="#f3_1x" transform="matrix(12,0,0,12,223.1,433.5)" />
<use xlink:href="#f3_2g" transform="matrix(12,0,0,12,231.2,433.5)" />
<use xlink:href="#f3_21" transform="matrix(12,0,0,12,236.7,433.5)" />
<use xlink:href="#f3_2f" transform="matrix(12,0,0,12,249.5,433.5)" />
<use xlink:href="#f3_25" transform="matrix(12,0,0,12,256.8,433.5)" />
<use xlink:href="#f3_2m" transform="matrix(12,0,0,12,261.2,433.5)" />
<use xlink:href="#f3_21" transform="matrix(12,0,0,12,269.3,433.5)" />
<use xlink:href="#f3_1x" transform="matrix(12,0,0,12,282.1,433.5)" />
<use xlink:href="#f3_2a" transform="matrix(12,0,0,12,290.5,433.5)" />
<use xlink:href="#f3_20" transform="matrix(12,0,0,12,299.3,433.5)" />
<use xlink:href="#f3_24" transform="matrix(12,0,0,12,313.2,433.5)" />
<use xlink:href="#f3_21" transform="matrix(12,0,0,12,322,433.5)" />
<use xlink:href="#f3_1x" transform="matrix(12,0,0,12,330.4,433.5)" />
<use xlink:href="#f3_2i" transform="matrix(12,0,0,12,338.8,433.5)" />
<use xlink:href="#f3_25" transform="matrix(12,0,0,12,348,433.5)" />
<use xlink:href="#f3_28" transform="matrix(12,0,0,12,352.8,433.5)" />
<use xlink:href="#f3_2l" transform="matrix(12,0,0,12,357.9,433.5)" />
<use xlink:href="#f3_20" transform="matrix(12,0,0,12,371.5,433.5)" />
<use xlink:href="#f3_2b" transform="matrix(12,0,0,12,380.6,433.5)" />
<use xlink:href="#f3_2c" transform="matrix(12,0,0,12,390.1,433.5)" />
<use xlink:href="#f3_21" transform="matrix(12,0,0,12,399.3,433.5)" />
<use xlink:href="#f3_20" transform="matrix(12,0,0,12,407.4,433.5)" />
<use xlink:href="#f3_i" transform="matrix(12,0,0,12,416.5,433.5)" />
<use xlink:href="#f3_19" transform="matrix(12,0,0,12,425.7,433.5)" />
<use xlink:href="#f3_2g" transform="matrix(12,0,0,12,431.9,433.5)" />
<use xlink:href="#f3_2f" transform="matrix(12,0,0,12,441.8,433.5)" />
<use xlink:href="#f3_2h" transform="matrix(12,0,0,12,448.7,433.5)" />
<use xlink:href="#f3_2c" transform="matrix(12,0,0,12,457.9,433.5)" />
<use xlink:href="#f3_2c" transform="matrix(12,0,0,12,467.1,433.5)" />
<use xlink:href="#f3_28" transform="matrix(12,0,0,12,476.2,433.5)" />
<use xlink:href="#f3_25" transform="matrix(12,0,0,12,481,433.5)" />
<use xlink:href="#f3_21" transform="matrix(12,0,0,12,485.8,433.5)" />
<use xlink:href="#f3_2f" transform="matrix(12,0,0,12,494.2,433.5)" />
<use xlink:href="#f3_1x" transform="matrix(12,0,0,12,505.9,433.5)" />
<use xlink:href="#f3_28" transform="matrix(12,0,0,12,519.8,433.5)" />
<use xlink:href="#f3_1x" transform="matrix(12,0,0,12,524.1,433.5)" />
<use xlink:href="#f3_2e" transform="matrix(12,0,0,12,532.2,433.5)" />
<use xlink:href="#f3_23" transform="matrix(12,0,0,12,538.4,433.5)" />
<use xlink:href="#f3_21" transform="matrix(12,0,0,12,547.6,433.5)" />
<use xlink:href="#f3_2a" transform="matrix(12,0,0,12,560.4,433.5)" />
<use xlink:href="#f3_2h" transform="matrix(12,0,0,12,569.2,433.5)" />
<use xlink:href="#f3_29" transform="matrix(12,0,0,12,578.7,433.5)" />
<use xlink:href="#f3_1y" transform="matrix(12,0,0,12,592.7,433.5)" />
<use xlink:href="#f3_21" transform="matrix(12,0,0,12,601.8,433.5)" />
<use xlink:href="#f3_2e" transform="matrix(12,0,0,12,609.9,433.5)" />
<use xlink:href="#f3_2b" transform="matrix(12,0,0,12,620.9,433.5)" />
<use xlink:href="#f3_22" transform="matrix(12,0,0,12,630.4,433.5)" />
<use xlink:href="#f3_29" transform="matrix(12,0,0,12,641,433.5)" />
<use xlink:href="#f3_1x" transform="matrix(12,0,0,12,654.9,433.5)" />
<use xlink:href="#f3_26" transform="matrix(12,0,0,12,663.3,433.5)" />
<use xlink:href="#f3_2b" transform="matrix(12,0,0,12,667.7,433.5)" />
<use xlink:href="#f3_2e" transform="matrix(12,0,0,12,677.3,433.5)" />
<use xlink:href="#f3_25" transform="matrix(12,0,0,12,683.8,433.5)" />
<use xlink:href="#f3_2g" transform="matrix(12,0,0,12,688.2,433.5)" />
<use xlink:href="#f3_2l" transform="matrix(12,0,0,12,694.1,433.5)" />
<use xlink:href="#f3_1z" transform="matrix(12,0,0,12,707.3,433.5)" />
<use xlink:href="#f3_1x" transform="matrix(12,0,0,12,715.3,433.5)" />
<use xlink:href="#f3_2e" transform="matrix(12,0,0,12,723.4,433.5)" />
<use xlink:href="#f3_2e" transform="matrix(12,0,0,12,729.6,433.5)" />
<use xlink:href="#f3_25" transform="matrix(12,0,0,12,736.2,433.5)" />
<use xlink:href="#f3_21" transform="matrix(12,0,0,12,740.6,433.5)" />
<use xlink:href="#f3_2e" transform="matrix(12,0,0,12,748.7,433.5)" />
<use xlink:href="#f3_22" transform="matrix(12,0,0,12,760,433.5)" />
<use xlink:href="#f3_2b" transform="matrix(12,0,0,12,765.5,433.5)" />
<use xlink:href="#f3_2e" transform="matrix(12,0,0,12,775,433.5)" />
<use xlink:href="#f3_2g" transform="matrix(12,0,0,12,785.6,433.5)" />
<use xlink:href="#f3_24" transform="matrix(12,0,0,12,791.1,433.5)" />
<use xlink:href="#f3_21" transform="matrix(12,0,0,12,799.9,433.5)" />
<use xlink:href="#f3_1z" transform="matrix(12,0,0,12,55,454.4)" />
<use xlink:href="#f3_2h" transform="matrix(12,0,0,12,63.1,454.4)" />
<use xlink:href="#f3_2e" transform="matrix(12,0,0,12,72.3,454.4)" />
<use xlink:href="#f3_2e" transform="matrix(12,0,0,12,78.5,454.4)" />
<use xlink:href="#f3_21" transform="matrix(12,0,0,12,84.7,454.4)" />
<use xlink:href="#f3_2a" transform="matrix(12,0,0,12,92.8,454.4)" />
<use xlink:href="#f3_2g" transform="matrix(12,0,0,12,101.6,454.4)" />
<use xlink:href="#f3_22" transform="matrix(12,0,0,12,111.8,454.4)" />
<use xlink:href="#f3_28" transform="matrix(12,0,0,12,117.7,454.4)" />
<use xlink:href="#f3_2b" transform="matrix(12,0,0,12,122.1,454.4)" />
<use xlink:href="#f3_2j" transform="matrix(12,0,0,12,131.6,454.4)" />
<use xlink:href="#f3_2g" transform="matrix(12,0,0,12,149.5,454.4)" />
<use xlink:href="#f3_24" transform="matrix(12,0,0,12,155,454.4)" />
<use xlink:href="#f3_2e" transform="matrix(12,0,0,12,163.8,454.4)" />
<use xlink:href="#f3_2b" transform="matrix(12,0,0,12,170,454.4)" />
<use xlink:href="#f3_2h" transform="matrix(12,0,0,12,179.5,454.4)" />
<use xlink:href="#f3_23" transform="matrix(12,0,0,12,188.7,454.4)" />
<use xlink:href="#f3_24" transform="matrix(12,0,0,12,197.9,454.4)" />
<use xlink:href="#f3_2g" transform="matrix(12,0,0,12,211.1,454.4)" />
<use xlink:href="#f3_24" transform="matrix(12,0,0,12,216.6,454.4)" />
<use xlink:href="#f3_21" transform="matrix(12,0,0,12,225.4,454.4)" />
<use xlink:href="#f3_2g" transform="matrix(12,0,0,12,238.2,454.4)" />
<use xlink:href="#f3_2e" transform="matrix(12,0,0,12,243.3,454.4)" />
<use xlink:href="#f3_1x" transform="matrix(12,0,0,12,249.5,454.4)" />
<use xlink:href="#f3_2a" transform="matrix(12,0,0,12,257.6,454.4)" />
<use xlink:href="#f3_2f" transform="matrix(12,0,0,12,266.4,454.4)" />
<use xlink:href="#f3_25" transform="matrix(12,0,0,12,273.7,454.4)" />
<use xlink:href="#f3_2f" transform="matrix(12,0,0,12,278.5,454.4)" />
<use xlink:href="#f3_2g" transform="matrix(12,0,0,12,285.4,454.4)" />
<use xlink:href="#f3_2b" transform="matrix(12,0,0,12,290.9,454.4)" />
<use xlink:href="#f3_2e" transform="matrix(12,0,0,12,300.4,454.4)" />
<use xlink:href="#f3_12" transform="matrix(12,0,0,12,55,475.7)" />
<use xlink:href="#f3_1x" transform="matrix(12,0,0,12,67.1,475.7)" />
<use xlink:href="#f3_2f" transform="matrix(12,0,0,12,75.2,475.7)" />
<use xlink:href="#f3_21" transform="matrix(12,0,0,12,82.2,475.7)" />
<use xlink:href="#f3_u" transform="matrix(12,0,0,12,95,475.7)" />
<use xlink:href="#f3_12" transform="matrix(12,0,0,12,104.9,475.7)" />
<use xlink:href="#f3_1x" transform="matrix(12,0,0,12,117,475.7)" />
<use xlink:href="#f3_2f" transform="matrix(12,0,0,12,125,475.7)" />
<use xlink:href="#f3_21" transform="matrix(12,0,0,12,132,475.7)" />
<use xlink:href="#f3_25" transform="matrix(12,0,0,12,145.2,475.7)" />
<use xlink:href="#f3_2f" transform="matrix(12,0,0,12,149.9,475.7)" />
<use xlink:href="#f3_2g" transform="matrix(12,0,0,12,161.7,475.7)" />
<use xlink:href="#f3_24" transform="matrix(12,0,0,12,167.1,475.7)" />
<use xlink:href="#f3_21" transform="matrix(12,0,0,12,175.9,475.7)" />
<use xlink:href="#f3_1z" transform="matrix(12,0,0,12,188.8,475.7)" />
<use xlink:href="#f3_2b" transform="matrix(12,0,0,12,196.8,475.7)" />
<use xlink:href="#f3_2a" transform="matrix(12,0,0,12,206.3,475.7)" />
<use xlink:href="#f3_2g" transform="matrix(12,0,0,12,215.1,475.7)" />
<use xlink:href="#f3_2e" transform="matrix(12,0,0,12,220.6,475.7)" />
<use xlink:href="#f3_2b" transform="matrix(12,0,0,12,226.5,475.7)" />
<use xlink:href="#f3_28" transform="matrix(12,0,0,12,236,475.7)" />
<use xlink:href="#f3_2f" transform="matrix(12,0,0,12,245.2,475.7)" />
<use xlink:href="#f3_21" transform="matrix(12,0,0,12,252.1,475.7)" />
<use xlink:href="#f3_23" transform="matrix(12,0,0,12,260.2,475.7)" />
<use xlink:href="#f3_29" transform="matrix(12,0,0,12,269.7,475.7)" />
<use xlink:href="#f3_21" transform="matrix(12,0,0,12,283.6,475.7)" />
<use xlink:href="#f3_2a" transform="matrix(12,0,0,12,292,475.7)" />
<use xlink:href="#f3_2g" transform="matrix(12,0,0,12,300.8,475.7)" />
<use xlink:href="#f3_1x" transform="matrix(12,0,0,12,311.1,475.7)" />
<use xlink:href="#f3_2a" transform="matrix(12,0,0,12,319.1,475.7)" />
<use xlink:href="#f3_20" transform="matrix(12,0,0,12,327.9,475.7)" />
<use xlink:href="#f3_25" transform="matrix(12,0,0,12,342.2,475.7)" />
<use xlink:href="#f3_2g" transform="matrix(12,0,0,12,346.6,475.7)" />
<use xlink:href="#f3_25" transform="matrix(12,0,0,12,356.9,475.7)" />
<use xlink:href="#f3_2f" transform="matrix(12,0,0,12,361.6,475.7)" />
<use xlink:href="#f3_2i" transform="matrix(12,0,0,12,373.3,475.7)" />
<use xlink:href="#f3_21" transform="matrix(12,0,0,12,382.1,475.7)" />
<use xlink:href="#f3_2e" transform="matrix(12,0,0,12,390.2,475.7)" />
<use xlink:href="#f3_2l" transform="matrix(12,0,0,12,396.8,475.7)" />
<use xlink:href="#f3_2g" transform="matrix(12,0,0,12,410,475.7)" />
<use xlink:href="#f3_24" transform="matrix(12,0,0,12,415.5,475.7)" />
<use xlink:href="#f3_25" transform="matrix(12,0,0,12,424.6,475.7)" />
<use xlink:href="#f3_2a" transform="matrix(12,0,0,12,429.7,475.7)" />
<use xlink:href="#f3_1x" transform="matrix(12,0,0,12,443.3,475.7)" />
<use xlink:href="#f3_2a" transform="matrix(12,0,0,12,451.7,475.7)" />
<use xlink:href="#f3_20" transform="matrix(12,0,0,12,460.5,475.7)" />
<use xlink:href="#f3_28" transform="matrix(12,0,0,12,474.8,475.7)" />
<use xlink:href="#f3_25" transform="matrix(12,0,0,12,479.6,475.7)" />
<use xlink:href="#f3_23" transform="matrix(12,0,0,12,484.3,475.7)" />
<use xlink:href="#f3_24" transform="matrix(12,0,0,12,493.8,475.7)" />
<use xlink:href="#f3_2g" transform="matrix(12,0,0,12,502.6,475.7)" />
<use xlink:href="#f3_28" transform="matrix(12,0,0,12,508.5,475.7)" />
<use xlink:href="#f3_2l" transform="matrix(12,0,0,12,513.3,475.7)" />
<use xlink:href="#f3_20" transform="matrix(12,0,0,12,526.4,475.7)" />
<use xlink:href="#f3_2b" transform="matrix(12,0,0,12,535.6,475.7)" />
<use xlink:href="#f3_2c" transform="matrix(12,0,0,12,545.1,475.7)" />
<use xlink:href="#f3_21" transform="matrix(12,0,0,12,554.3,475.7)" />
<use xlink:href="#f3_20" transform="matrix(12,0,0,12,562.4,475.7)" />
<use xlink:href="#f3_i" transform="matrix(12,0,0,12,571.5,475.7)" />
<use xlink:href="#f3_13" transform="matrix(12,0,0,12,55,496.6)" />
<use xlink:href="#f3_2b" transform="matrix(12,0,0,12,67.1,496.6)" />
<use xlink:href="#f3_28" transform="matrix(12,0,0,12,76.7,496.6)" />
<use xlink:href="#f3_28" transform="matrix(12,0,0,12,81.4,496.6)" />
<use xlink:href="#f3_21" transform="matrix(12,0,0,12,86.2,496.6)" />
<use xlink:href="#f3_1z" transform="matrix(12,0,0,12,94.3,496.6)" />
<use xlink:href="#f3_2g" transform="matrix(12,0,0,12,102.3,496.6)" />
<use xlink:href="#f3_2b" transform="matrix(12,0,0,12,107.8,496.6)" />
<use xlink:href="#f3_2e" transform="matrix(12,0,0,12,117.3,496.6)" />
<use xlink:href="#f3_u" transform="matrix(12,0,0,12,127.9,496.6)" />
<use xlink:href="#f3_19" transform="matrix(12,0,0,12,137.8,496.6)" />
<use xlink:href="#f3_2g" transform="matrix(12,0,0,12,143.7,496.6)" />
<use xlink:href="#f3_25" transform="matrix(12,0,0,12,153.6,496.6)" />
<use xlink:href="#f3_2f" transform="matrix(12,0,0,12,158,496.6)" />
<use xlink:href="#f3_2g" transform="matrix(12,0,0,12,169.7,496.6)" />
<use xlink:href="#f3_24" transform="matrix(12,0,0,12,175.2,496.6)" />
<use xlink:href="#f3_21" transform="matrix(12,0,0,12,184,496.6)" />
<use xlink:href="#f3_2f" transform="matrix(12,0,0,12,196.8,496.6)" />
<use xlink:href="#f3_21" transform="matrix(12,0,0,12,203.7,496.6)" />
<use xlink:href="#f3_23" transform="matrix(12,0,0,12,211.8,496.6)" />
<use xlink:href="#f3_29" transform="matrix(12,0,0,12,221.3,496.6)" />
<use xlink:href="#f3_21" transform="matrix(12,0,0,12,235.3,496.6)" />
<use xlink:href="#f3_2a" transform="matrix(12,0,0,12,243.7,496.6)" />
<use xlink:href="#f3_2g" transform="matrix(12,0,0,12,252.5,496.6)" />
<use xlink:href="#f3_2g" transform="matrix(12,0,0,12,262.3,496.6)" />
<use xlink:href="#f3_24" transform="matrix(12,0,0,12,267.8,496.6)" />
<use xlink:href="#f3_1x" transform="matrix(12,0,0,12,276.6,496.6)" />
<use xlink:href="#f3_2g" transform="matrix(12,0,0,12,284.7,496.6)" />
<use xlink:href="#f3_1z" transform="matrix(12,0,0,12,294.9,496.6)" />
<use xlink:href="#f3_2b" transform="matrix(12,0,0,12,302.6,496.6)" />
<use xlink:href="#f3_28" transform="matrix(12,0,0,12,312.1,496.6)" />
<use xlink:href="#f3_28" transform="matrix(12,0,0,12,316.9,496.6)" />
<use xlink:href="#f3_21" transform="matrix(12,0,0,12,321.7,496.6)" />
<use xlink:href="#f3_1z" transform="matrix(12,0,0,12,329.7,496.6)" />
<use xlink:href="#f3_2g" transform="matrix(12,0,0,12,337.8,496.6)" />
<use xlink:href="#f3_2f" transform="matrix(12,0,0,12,343.3,496.6)" />
<use xlink:href="#f3_29" transform="matrix(12,0,0,12,355.4,496.6)" />
<use xlink:href="#f3_1x" transform="matrix(12,0,0,12,368.9,496.6)" />
<use xlink:href="#f3_26" transform="matrix(12,0,0,12,377.4,496.6)" />
<use xlink:href="#f3_2b" transform="matrix(12,0,0,12,381.8,496.6)" />
<use xlink:href="#f3_2e" transform="matrix(12,0,0,12,391.3,496.6)" />
<use xlink:href="#f3_2c" transform="matrix(12,0,0,12,402.2,496.6)" />
<use xlink:href="#f3_2b" transform="matrix(12,0,0,12,411.4,496.6)" />
<use xlink:href="#f3_2e" transform="matrix(12,0,0,12,420.9,496.6)" />
<use xlink:href="#f3_2g" transform="matrix(12,0,0,12,426.8,496.6)" />
<use xlink:href="#f3_25" transform="matrix(12,0,0,12,432.3,496.6)" />
<use xlink:href="#f3_2b" transform="matrix(12,0,0,12,436.7,496.6)" />
<use xlink:href="#f3_2a" transform="matrix(12,0,0,12,446.2,496.6)" />
<use xlink:href="#f3_2b" transform="matrix(12,0,0,12,459.7,496.6)" />
<use xlink:href="#f3_22" transform="matrix(12,0,0,12,469.2,496.6)" />
<use xlink:href="#f3_2g" transform="matrix(12,0,0,12,479.5,496.6)" />
<use xlink:href="#f3_24" transform="matrix(12,0,0,12,485,496.6)" />
<use xlink:href="#f3_21" transform="matrix(12,0,0,12,493.8,496.6)" />
<use xlink:href="#f3_29" transform="matrix(12,0,0,12,507,496.6)" />
<use xlink:href="#f3_1x" transform="matrix(12,0,0,12,520.5,496.6)" />
<use xlink:href="#f3_26" transform="matrix(12,0,0,12,528.9,496.6)" />
<use xlink:href="#f3_2b" transform="matrix(12,0,0,12,533.3,496.6)" />
<use xlink:href="#f3_2e" transform="matrix(12,0,0,12,542.9,496.6)" />
<use xlink:href="#f3_25" transform="matrix(12,0,0,12,549.4,496.6)" />
<use xlink:href="#f3_2g" transform="matrix(12,0,0,12,553.8,496.6)" />
<use xlink:href="#f3_2l" transform="matrix(12,0,0,12,559.7,496.6)" />
<use xlink:href="#f3_1z" transform="matrix(12,0,0,12,572.9,496.6)" />
<use xlink:href="#f3_1x" transform="matrix(12,0,0,12,580.9,496.6)" />
<use xlink:href="#f3_2e" transform="matrix(12,0,0,12,589,496.6)" />
<use xlink:href="#f3_2e" transform="matrix(12,0,0,12,595.2,496.6)" />
<use xlink:href="#f3_25" transform="matrix(12,0,0,12,601.8,496.6)" />
<use xlink:href="#f3_21" transform="matrix(12,0,0,12,606.6,496.6)" />
<use xlink:href="#f3_2f" transform="matrix(12,0,0,12,614.6,496.6)" />
<use xlink:href="#f3_2f" transform="matrix(12,0,0,12,626.3,496.6)" />
<use xlink:href="#f3_2h" transform="matrix(12,0,0,12,633.3,496.6)" />
<use xlink:href="#f3_2c" transform="matrix(12,0,0,12,642.5,496.6)" />
<use xlink:href="#f3_2c" transform="matrix(12,0,0,12,651.6,496.6)" />
<use xlink:href="#f3_28" transform="matrix(12,0,0,12,661.2,496.6)" />
<use xlink:href="#f3_2l" transform="matrix(12,0,0,12,666.3,496.6)" />
<use xlink:href="#f3_1y" transform="matrix(12,0,0,12,679.8,496.6)" />
<use xlink:href="#f3_2l" transform="matrix(12,0,0,12,689,496.6)" />
<use xlink:href="#f3_2g" transform="matrix(12,0,0,12,702.6,496.6)" />
<use xlink:href="#f3_24" transform="matrix(12,0,0,12,708,496.6)" />
<use xlink:href="#f3_21" transform="matrix(12,0,0,12,716.8,496.6)" />
<use xlink:href="#f3_21" transform="matrix(12,0,0,12,729.6,496.6)" />
<use xlink:href="#f3_29" transform="matrix(12,0,0,12,738.1,496.6)" />
<use xlink:href="#f3_25" transform="matrix(12,0,0,12,752,496.6)" />
<use xlink:href="#f3_2g" transform="matrix(12,0,0,12,756.4,496.6)" />
<use xlink:href="#f3_2g" transform="matrix(12,0,0,12,761.9,496.6)" />
<use xlink:href="#f3_21" transform="matrix(12,0,0,12,767.4,496.6)" />
<use xlink:href="#f3_2e" transform="matrix(12,0,0,12,775.4,496.6)" />
<use xlink:href="#f3_i" transform="matrix(12,0,0,12,781.6,496.6)" />
<use xlink:href="#f3_19" transform="matrix(12,0,0,12,792.3,496.6)" />
<use xlink:href="#f3_2g" transform="matrix(12,0,0,12,798.2,496.6)" />
<use xlink:href="#f3_25" transform="matrix(12,0,0,12,808,496.6)" />
<use xlink:href="#f3_2f" transform="matrix(12,0,0,12,812.8,496.6)" />
<use xlink:href="#f3_29" transform="matrix(12,0,0,12,55,517.9)" />
<use xlink:href="#f3_2b" transform="matrix(12,0,0,12,68.6,517.9)" />
<use xlink:href="#f3_20" transform="matrix(12,0,0,12,78.1,517.9)" />
<use xlink:href="#f3_21" transform="matrix(12,0,0,12,87.3,517.9)" />
<use xlink:href="#f3_2e" transform="matrix(12,0,0,12,95.4,517.9)" />
<use xlink:href="#f3_1x" transform="matrix(12,0,0,12,101.6,517.9)" />
<use xlink:href="#f3_2g" transform="matrix(12,0,0,12,109.6,517.9)" />
<use xlink:href="#f3_21" transform="matrix(12,0,0,12,115.1,517.9)" />
<use xlink:href="#f3_28" transform="matrix(12,0,0,12,123.5,517.9)" />
<use xlink:href="#f3_2l" transform="matrix(12,0,0,12,128.3,517.9)" />
<use xlink:href="#f3_20" transform="matrix(12,0,0,12,141.5,517.9)" />
<use xlink:href="#f3_2b" transform="matrix(12,0,0,12,150.6,517.9)" />
<use xlink:href="#f3_2c" transform="matrix(12,0,0,12,160.2,517.9)" />
<use xlink:href="#f3_21" transform="matrix(12,0,0,12,169.3,517.9)" />
<use xlink:href="#f3_20" transform="matrix(12,0,0,12,177.4,517.9)" />
<use xlink:href="#f3_1x" transform="matrix(12,0,0,12,191.3,517.9)" />
<use xlink:href="#f3_2a" transform="matrix(12,0,0,12,199.4,517.9)" />
<use xlink:href="#f3_20" transform="matrix(12,0,0,12,208.2,517.9)" />
<use xlink:href="#f3_28" transform="matrix(12,0,0,12,222.5,517.9)" />
<use xlink:href="#f3_1x" transform="matrix(12,0,0,12,227.2,517.9)" />
<use xlink:href="#f3_2e" transform="matrix(12,0,0,12,235.3,517.9)" />
<use xlink:href="#f3_23" transform="matrix(12,0,0,12,241.5,517.9)" />
<use xlink:href="#f3_21" transform="matrix(12,0,0,12,250.7,517.9)" />
<use xlink:href="#f3_25" transform="matrix(12,0,0,12,263.9,517.9)" />
<use xlink:href="#f3_2a" transform="matrix(12,0,0,12,268.6,517.9)" />
<use xlink:href="#f3_2f" transform="matrix(12,0,0,12,282.2,517.9)" />
<use xlink:href="#f3_25" transform="matrix(12,0,0,12,289.5,517.9)" />
<use xlink:href="#f3_2m" transform="matrix(12,0,0,12,294.2,517.9)" />
<use xlink:href="#f3_21" transform="matrix(12,0,0,12,302.3,517.9)" />
<use xlink:href="#f3_1x" transform="matrix(12,0,0,12,315.1,517.9)" />
<use xlink:href="#f3_2f" transform="matrix(12,0,0,12,323.2,517.9)" />
<use xlink:href="#f3_1z" transform="matrix(12,0,0,12,334.9,517.9)" />
<use xlink:href="#f3_2b" transform="matrix(12,0,0,12,343,517.9)" />
<use xlink:href="#f3_29" transform="matrix(12,0,0,12,352.9,517.9)" />
<use xlink:href="#f3_2c" transform="matrix(12,0,0,12,366.4,517.9)" />
<use xlink:href="#f3_1x" transform="matrix(12,0,0,12,375.6,517.9)" />
<use xlink:href="#f3_2e" transform="matrix(12,0,0,12,383.7,517.9)" />
<use xlink:href="#f3_21" transform="matrix(12,0,0,12,389.9,517.9)" />
<use xlink:href="#f3_20" transform="matrix(12,0,0,12,397.9,517.9)" />
<use xlink:href="#f3_2g" transform="matrix(12,0,0,12,411.9,517.9)" />
<use xlink:href="#f3_2b" transform="matrix(12,0,0,12,417,517.9)" />
<use xlink:href="#f3_2g" transform="matrix(12,0,0,12,430.6,517.9)" />
<use xlink:href="#f3_24" transform="matrix(12,0,0,12,436,517.9)" />
<use xlink:href="#f3_21" transform="matrix(12,0,0,12,444.8,517.9)" />
<use xlink:href="#f3_21" transform="matrix(12,0,0,12,457.7,517.9)" />
<use xlink:href="#f3_29" transform="matrix(12,0,0,12,466.1,517.9)" />
<use xlink:href="#f3_25" transform="matrix(12,0,0,12,480,517.9)" />
<use xlink:href="#f3_2g" transform="matrix(12,0,0,12,484.4,517.9)" />
<use xlink:href="#f3_2g" transform="matrix(12,0,0,12,489.9,517.9)" />
<use xlink:href="#f3_21" transform="matrix(12,0,0,12,495.4,517.9)" />
<use xlink:href="#f3_2e" transform="matrix(12,0,0,12,503.4,517.9)" />
<use xlink:href="#f3_i" transform="matrix(12,0,0,12,509.6,517.9)" />
<use xlink:href="#f3_19" transform="matrix(12,0,0,12,55,538.8)" />
<use xlink:href="#f3_2a" transform="matrix(12,0,0,12,61.3,538.8)" />
<use xlink:href="#f3_2c" transform="matrix(12,0,0,12,70.1,538.8)" />
<use xlink:href="#f3_2h" transform="matrix(12,0,0,12,79.2,538.8)" />
<use xlink:href="#f3_2g" transform="matrix(12,0,0,12,88.4,538.8)" />
<use xlink:href="#f3_2b" transform="matrix(12,0,0,12,98.3,538.8)" />
<use xlink:href="#f3_22" transform="matrix(12,0,0,12,107.8,538.8)" />
<use xlink:href="#f3_11" transform="matrix(12,0,0,12,118,538.8)" />
<use xlink:href="#f3_1e" transform="matrix(12,0,0,12,130.9,538.8)" />
<use xlink:href="#f3_14" transform="matrix(12,0,0,12,144.1,538.8)" />
<use xlink:href="#f3_23" transform="matrix(12,0,0,12,162,538.8)" />
<use xlink:href="#f3_1x" transform="matrix(12,0,0,12,171.2,538.8)" />
<use xlink:href="#f3_2g" transform="matrix(12,0,0,12,179.2,538.8)" />
<use xlink:href="#f3_21" transform="matrix(12,0,0,12,184.7,538.8)" />
<use xlink:href="#f3_25" transform="matrix(12,0,0,12,197.9,538.8)" />
<use xlink:href="#f3_2f" transform="matrix(12,0,0,12,202.3,538.8)" />
<use xlink:href="#f3_1p" transform="matrix(12,0,0,12,214,538.8)" />
<use xlink:href="#f3_x" transform="matrix(12,0,0,12,232,538.8)" />
<use xlink:href="#f3_11" transform="matrix(12,0,0,12,247,538.8)" />
<use xlink:href="#f3_i" transform="matrix(12,0,0,12,259.8,538.8)" />
<use xlink:href="#f3_12" transform="matrix(12,0,0,12,264.6,538.8)" />
<use xlink:href="#f3_25" transform="matrix(12,0,0,12,281.8,538.8)" />
<use xlink:href="#f3_2a" transform="matrix(12,0,0,12,286.5,538.8)" />
<use xlink:href="#f3_2g" transform="matrix(12,0,0,12,300.1,538.8)" />
<use xlink:href="#f3_24" transform="matrix(12,0,0,12,305.6,538.8)" />
<use xlink:href="#f3_25" transform="matrix(12,0,0,12,314.7,538.8)" />
<use xlink:href="#f3_2f" transform="matrix(12,0,0,12,319.5,538.8)" />
<use xlink:href="#f3_1z" transform="matrix(12,0,0,12,331.2,538.8)" />
<use xlink:href="#f3_1x" transform="matrix(12,0,0,12,339.3,538.8)" />
<use xlink:href="#f3_2f" transform="matrix(12,0,0,12,347.4,538.8)" />
<use xlink:href="#f3_21" transform="matrix(12,0,0,12,354.3,538.8)" />
<use xlink:href="#f3_2b" transform="matrix(12,0,0,12,367.1,538.8)" />
<use xlink:href="#f3_2h" transform="matrix(12,0,0,12,376.7,538.8)" />
<use xlink:href="#f3_2g" transform="matrix(12,0,0,12,385.8,538.8)" />
<use xlink:href="#f3_2c" transform="matrix(12,0,0,12,391.3,538.8)" />
<use xlink:href="#f3_2h" transform="matrix(12,0,0,12,400.5,538.8)" />
<use xlink:href="#f3_2g" transform="matrix(12,0,0,12,409.3,538.8)" />
<use xlink:href="#f3_g" transform="matrix(12,0,0,12,414.4,538.8)" />
<use xlink:href="#f3_2j" transform="matrix(12,0,0,12,423.6,538.8)" />
<use xlink:href="#f3_25" transform="matrix(12,0,0,12,437.1,538.8)" />
<use xlink:href="#f3_28" transform="matrix(12,0,0,12,441.9,538.8)" />
<use xlink:href="#f3_28" transform="matrix(12,0,0,12,447,538.8)" />
<use xlink:href="#f3_1y" transform="matrix(12,0,0,12,456.5,538.8)" />
<use xlink:href="#f3_21" transform="matrix(12,0,0,12,465.3,538.8)" />
<use xlink:href="#f3_l" transform="matrix(12,0,0,12,478.1,538.8)" />
<use xlink:href="#f3_2b" transform="matrix(12,0,0,12,492,538.8)" />
<use xlink:href="#f3_2a" transform="matrix(12,0,0,12,501.6,538.8)" />
<use xlink:href="#f3_28" transform="matrix(12,0,0,12,510.7,538.8)" />
<use xlink:href="#f3_2l" transform="matrix(12,0,0,12,515.5,538.8)" />
<use xlink:href="#f3_2j" transform="matrix(12,0,0,12,529,538.8)" />
<use xlink:href="#f3_24" transform="matrix(12,0,0,12,542.6,538.8)" />
<use xlink:href="#f3_21" transform="matrix(12,0,0,12,551.4,538.8)" />
<use xlink:href="#f3_2a" transform="matrix(12,0,0,12,559.8,538.8)" />
<use xlink:href="#f3_1y" transform="matrix(12,0,0,12,573.7,538.8)" />
<use xlink:href="#f3_2b" transform="matrix(12,0,0,12,582.5,538.8)" />
<use xlink:href="#f3_2g" transform="matrix(12,0,0,12,591.7,538.8)" />
<use xlink:href="#f3_24" transform="matrix(12,0,0,12,597.2,538.8)" />
<use xlink:href="#f3_25" transform="matrix(12,0,0,12,611.1,538.8)" />
<use xlink:href="#f3_2a" transform="matrix(12,0,0,12,615.9,538.8)" />
<use xlink:href="#f3_2c" transform="matrix(12,0,0,12,624.7,538.8)" />
<use xlink:href="#f3_2h" transform="matrix(12,0,0,12,633.8,538.8)" />
<use xlink:href="#f3_2g" transform="matrix(12,0,0,12,643,538.8)" />
<use xlink:href="#f3_2f" transform="matrix(12,0,0,12,648.5,538.8)" />
<use xlink:href="#f3_1x" transform="matrix(12,0,0,12,660.2,538.8)" />
<use xlink:href="#f3_2e" transform="matrix(12,0,0,12,668.3,538.8)" />
<use xlink:href="#f3_21" transform="matrix(12,0,0,12,674.5,538.8)" />
<use xlink:href="#f3_l" transform="matrix(12,0,0,12,687.3,538.8)" />
<use xlink:href="#f3_c" transform="matrix(12,0,0,12,55,560.1)" />
<use xlink:href="#f3_1y" transform="matrix(12,0,0,12,61.3,560.1)" />
<use xlink:href="#f3_d" transform="matrix(12,0,0,12,70.1,560.1)" />
<use xlink:href="#f2_m" transform="matrix(12,0,0,12,55,1026.6)" />
<use xlink:href="#f2_k" transform="matrix(12,0,0,12,64.2,1026.6)" />
<use xlink:href="#f2_i" transform="matrix(12,0,0,12,73.4,1026.6)" />
<use xlink:href="#f3_c" transform="matrix(12,0,0,12,82.9,1026.6)" />
<use xlink:href="#f3_1x" transform="matrix(12,0,0,12,89.1,1026.6)" />
<use xlink:href="#f3_d" transform="matrix(12,0,0,12,96.8,1026.6)" />
<use xlink:href="#f3_14" transform="matrix(12,0,0,12,107.8,1026.6)" />
<use xlink:href="#f3_2e" transform="matrix(12,0,0,12,121,1026.6)" />
<use xlink:href="#f3_1x" transform="matrix(12,0,0,12,127.2,1026.6)" />
<use xlink:href="#f3_2j" transform="matrix(12,0,0,12,135.3,1026.6)" />
<use xlink:href="#f3_1x" transform="matrix(12,0,0,12,153.2,1026.6)" />
<use xlink:href="#f3_2e" transform="matrix(12,0,0,12,165.7,1026.6)" />
<use xlink:href="#f3_1x" transform="matrix(12,0,0,12,171.9,1026.6)" />
<use xlink:href="#f3_2l" transform="matrix(12,0,0,12,180,1026.6)" />
<use xlink:href="#f3_20" transform="matrix(12,0,0,12,193.1,1026.6)" />
<use xlink:href="#f3_25" transform="matrix(12,0,0,12,202.7,1026.6)" />
<use xlink:href="#f3_1x" transform="matrix(12,0,0,12,207.4,1026.6)" />
<use xlink:href="#f3_23" transform="matrix(12,0,0,12,215.5,1026.6)" />
<use xlink:href="#f3_2e" transform="matrix(12,0,0,12,224.7,1026.6)" />
<use xlink:href="#f3_1x" transform="matrix(12,0,0,12,230.9,1026.6)" />
<use xlink:href="#f3_29" transform="matrix(12,0,0,12,239.3,1026.6)" />
<use xlink:href="#f3_20" transform="matrix(12,0,0,12,257.6,1026.6)" />
<use xlink:href="#f3_21" transform="matrix(12,0,0,12,266.8,1026.6)" />
<use xlink:href="#f3_2c" transform="matrix(12,0,0,12,274.8,1026.6)" />
<use xlink:href="#f3_25" transform="matrix(12,0,0,12,284.3,1026.6)" />
<use xlink:href="#f3_1z" transform="matrix(12,0,0,12,289.1,1026.6)" />
<use xlink:href="#f3_2g" transform="matrix(12,0,0,12,297.2,1026.6)" />
<use xlink:href="#f3_25" transform="matrix(12,0,0,12,303,1026.6)" />
<use xlink:href="#f3_2a" transform="matrix(12,0,0,12,307.8,1026.6)" />
<use xlink:href="#f3_23" transform="matrix(12,0,0,12,316.6,1026.6)" />
<use xlink:href="#f3_2g" transform="matrix(12,0,0,12,330.5,1026.6)" />
<use xlink:href="#f3_24" transform="matrix(12,0,0,12,336,1026.6)" />
<use xlink:href="#f3_21" transform="matrix(12,0,0,12,344.8,1026.6)" />
<use xlink:href="#f3_22" transform="matrix(12,0,0,12,358,1026.6)" />
<use xlink:href="#f3_2b" transform="matrix(12,0,0,12,363.5,1026.6)" />
<use xlink:href="#f3_2e" transform="matrix(12,0,0,12,373,1026.6)" />
<use xlink:href="#f3_29" transform="matrix(12,0,0,12,379.2,1026.6)" />
<use xlink:href="#f3_1x" transform="matrix(12,0,0,12,392.8,1026.6)" />
<use xlink:href="#f3_2g" transform="matrix(12,0,0,12,400.8,1026.6)" />
<use xlink:href="#f3_25" transform="matrix(12,0,0,12,406.7,1026.6)" />
<use xlink:href="#f3_2b" transform="matrix(12,0,0,12,411.1,1026.6)" />
<use xlink:href="#f3_2a" transform="matrix(12,0,0,12,420.6,1026.6)" />
<use xlink:href="#f3_2b" transform="matrix(12,0,0,12,434.2,1026.6)" />
<use xlink:href="#f3_22" transform="matrix(12,0,0,12,443.7,1026.6)" />
<use xlink:href="#f3_2g" transform="matrix(12,0,0,12,453.9,1026.6)" />
<use xlink:href="#f3_24" transform="matrix(12,0,0,12,459.4,1026.6)" />
<use xlink:href="#f3_21" transform="matrix(12,0,0,12,468.2,1026.6)" />
<use xlink:href="#f3_25" transform="matrix(12,0,0,12,481.4,1026.6)" />
<use xlink:href="#f3_29" transform="matrix(12,0,0,12,486.2,1026.6)" />
<use xlink:href="#f3_1x" transform="matrix(12,0,0,12,500.1,1026.6)" />
<use xlink:href="#f3_23" transform="matrix(12,0,0,12,508.2,1026.6)" />
<use xlink:href="#f3_21" transform="matrix(12,0,0,12,517.3,1026.6)" />
<use xlink:href="#f3_1y" transform="matrix(12,0,0,12,530.5,1026.6)" />
<use xlink:href="#f3_2l" transform="matrix(12,0,0,12,539.7,1026.6)" />
<use xlink:href="#f3_1x" transform="matrix(12,0,0,12,553.2,1026.6)" />
<use xlink:href="#f3_2a" transform="matrix(12,0,0,12,561.6,1026.6)" />
<use xlink:href="#f3_1x" transform="matrix(12,0,0,12,575.2,1026.6)" />
<use xlink:href="#f3_2f" transform="matrix(12,0,0,12,583.3,1026.6)" />
<use xlink:href="#f3_2g" transform="matrix(12,0,0,12,590.2,1026.6)" />
<use xlink:href="#f3_2e" transform="matrix(12,0,0,12,595.7,1026.6)" />
<use xlink:href="#f3_2b" transform="matrix(12,0,0,12,601.6,1026.6)" />
<use xlink:href="#f3_2a" transform="matrix(12,0,0,12,611.1,1026.6)" />
<use xlink:href="#f3_2b" transform="matrix(12,0,0,12,619.9,1026.6)" />
<use xlink:href="#f3_29" transform="matrix(12,0,0,12,629.4,1026.6)" />
<use xlink:href="#f3_25" transform="matrix(12,0,0,12,643.3,1026.6)" />
<use xlink:href="#f3_1z" transform="matrix(12,0,0,12,648.1,1026.6)" />
<use xlink:href="#f3_1x" transform="matrix(12,0,0,12,656.2,1026.6)" />
<use xlink:href="#f3_28" transform="matrix(12,0,0,12,664.6,1026.6)" />
<use xlink:href="#f3_2g" transform="matrix(12,0,0,12,674.1,1026.6)" />
<use xlink:href="#f3_21" transform="matrix(12,0,0,12,679.6,1026.6)" />
<use xlink:href="#f3_28" transform="matrix(12,0,0,12,688,1026.6)" />
<use xlink:href="#f3_21" transform="matrix(12,0,0,12,692.4,1026.6)" />
<use xlink:href="#f3_2f" transform="matrix(12,0,0,12,700.5,1026.6)" />
<use xlink:href="#f3_1z" transform="matrix(12,0,0,12,707.8,1026.6)" />
<use xlink:href="#f3_2b" transform="matrix(12,0,0,12,715.8,1026.6)" />
<use xlink:href="#f3_2c" transform="matrix(12,0,0,12,725.4,1026.6)" />
<use xlink:href="#f3_21" transform="matrix(12,0,0,12,734.5,1026.6)" />
<use xlink:href="#f3_25" transform="matrix(12,0,0,12,747.3,1026.6)" />
<use xlink:href="#f3_2a" transform="matrix(12,0,0,12,752.1,1026.6)" />
<use xlink:href="#f3_2a" transform="matrix(12,0,0,12,766,1026.6)" />
<use xlink:href="#f3_2b" transform="matrix(12,0,0,12,774.8,1026.6)" />
<use xlink:href="#f3_2e" transform="matrix(12,0,0,12,784.3,1026.6)" />
<use xlink:href="#f3_29" transform="matrix(12,0,0,12,790.6,1026.6)" />
<use xlink:href="#f3_1x" transform="matrix(12,0,0,12,804.5,1026.6)" />
<use xlink:href="#f3_28" transform="matrix(12,0,0,12,812.9,1026.6)" />
<use xlink:href="#f3_1x" transform="matrix(12,0,0,12,55,1050.8)" />
<use xlink:href="#f3_20" transform="matrix(12,0,0,12,63.1,1050.8)" />
<use xlink:href="#f3_26" transform="matrix(12,0,0,12,72.6,1050.8)" />
<use xlink:href="#f3_2h" transform="matrix(12,0,0,12,77,1050.8)" />
<use xlink:href="#f3_2f" transform="matrix(12,0,0,12,86.5,1050.8)" />
<use xlink:href="#f3_2g" transform="matrix(12,0,0,12,93.5,1050.8)" />
<use xlink:href="#f3_29" transform="matrix(12,0,0,12,99,1050.8)" />
<use xlink:href="#f3_21" transform="matrix(12,0,0,12,112.5,1050.8)" />
<use xlink:href="#f3_2a" transform="matrix(12,0,0,12,121,1050.8)" />
<use xlink:href="#f3_2g" transform="matrix(12,0,0,12,129.8,1050.8)" />
<use xlink:href="#f3_c" transform="matrix(12,0,0,12,55,1075)" />
<use xlink:href="#f3_1y" transform="matrix(12,0,0,12,61.3,1075)" />
<use xlink:href="#f3_d" transform="matrix(12,0,0,12,70.1,1075)" />
<use xlink:href="#f3_1p" transform="matrix(12,0,0,12,81,1075)" />
<use xlink:href="#f3_2b" transform="matrix(12,0,0,12,94.3,1075)" />
<use xlink:href="#f3_2h" transform="matrix(12,0,0,12,103.7,1075)" />
<use xlink:href="#f3_1x" transform="matrix(12,0,0,12,117.3,1075)" />
<use xlink:href="#f3_2e" transform="matrix(12,0,0,12,125.3,1075)" />
<use xlink:href="#f3_21" transform="matrix(12,0,0,12,131.6,1075)" />
<use xlink:href="#f3_23" transform="matrix(12,0,0,12,144.4,1075)" />
<use xlink:href="#f3_25" transform="matrix(12,0,0,12,153.5,1075)" />
<use xlink:href="#f3_2i" transform="matrix(12,0,0,12,158.3,1075)" />
<use xlink:href="#f3_21" transform="matrix(12,0,0,12,167.1,1075)" />
<use xlink:href="#f3_2a" transform="matrix(12,0,0,12,175.5,1075)" />
<use xlink:href="#f3_2g" transform="matrix(12,0,0,12,189.1,1075)" />
<use xlink:href="#f3_24" transform="matrix(12,0,0,12,194.6,1075)" />
<use xlink:href="#f3_21" transform="matrix(12,0,0,12,203.4,1075)" />
<use xlink:href="#f3_22" transform="matrix(12,0,0,12,216.5,1075)" />
<use xlink:href="#f3_2b" transform="matrix(12,0,0,12,222,1075)" />
<use xlink:href="#f3_28" transform="matrix(12,0,0,12,231.9,1075)" />
<use xlink:href="#f3_28" transform="matrix(12,0,0,12,236.7,1075)" />
<use xlink:href="#f3_2b" transform="matrix(12,0,0,12,241.1,1075)" />
<use xlink:href="#f3_2j" transform="matrix(12,0,0,12,250.6,1075)" />
<use xlink:href="#f3_25" transform="matrix(12,0,0,12,264.1,1075)" />
<use xlink:href="#f3_2a" transform="matrix(12,0,0,12,268.9,1075)" />
<use xlink:href="#f3_23" transform="matrix(12,0,0,12,277.7,1075)" />
<use xlink:href="#f3_2g" transform="matrix(12,0,0,12,291.6,1075)" />
<use xlink:href="#f3_24" transform="matrix(12,0,0,12,297.1,1075)" />
<use xlink:href="#f3_2e" transform="matrix(12,0,0,12,305.9,1075)" />
<use xlink:href="#f3_21" transform="matrix(12,0,0,12,312.1,1075)" />
<use xlink:href="#f3_21" transform="matrix(12,0,0,12,320.2,1075)" />
<use xlink:href="#f3_28" transform="matrix(12,0,0,12,333.4,1075)" />
<use xlink:href="#f3_21" transform="matrix(12,0,0,12,337.8,1075)" />
<use xlink:href="#f3_2a" transform="matrix(12,0,0,12,346.2,1075)" />
<use xlink:href="#f3_2f" transform="matrix(12,0,0,12,355.4,1075)" />
<use xlink:href="#f3_21" transform="matrix(12,0,0,12,362.3,1075)" />
<use xlink:href="#f3_2f" transform="matrix(12,0,0,12,370.7,1075)" />
<use xlink:href="#f3_i" transform="matrix(12,0,0,12,377.7,1075)" />
<use xlink:href="#f3_1n" transform="matrix(12,0,0,12,387.2,1075)" />
<use xlink:href="#f3_24" transform="matrix(12,0,0,12,404.4,1075)" />
<use xlink:href="#f3_25" transform="matrix(12,0,0,12,413.6,1075)" />
<use xlink:href="#f3_1z" transform="matrix(12,0,0,12,418.4,1075)" />
<use xlink:href="#f3_24" transform="matrix(12,0,0,12,426.8,1075)" />
<use xlink:href="#f3_2g" transform="matrix(12,0,0,12,440.3,1075)" />
<use xlink:href="#f3_2j" transform="matrix(12,0,0,12,445.8,1075)" />
<use xlink:href="#f3_2b" transform="matrix(12,0,0,12,458.6,1075)" />
<use xlink:href="#f3_28" transform="matrix(12,0,0,12,472.9,1075)" />
<use xlink:href="#f3_21" transform="matrix(12,0,0,12,477.3,1075)" />
<use xlink:href="#f3_2a" transform="matrix(12,0,0,12,485.7,1075)" />
<use xlink:href="#f3_2f" transform="matrix(12,0,0,12,494.9,1075)" />
<use xlink:href="#f3_21" transform="matrix(12,0,0,12,501.9,1075)" />
<use xlink:href="#f3_2f" transform="matrix(12,0,0,12,509.9,1075)" />
<use xlink:href="#f3_2j" transform="matrix(12,0,0,12,521.6,1075)" />
<use xlink:href="#f3_25" transform="matrix(12,0,0,12,535.2,1075)" />
<use xlink:href="#f3_28" transform="matrix(12,0,0,12,540.3,1075)" />
<use xlink:href="#f3_28" transform="matrix(12,0,0,12,545.1,1075)" />
<use xlink:href="#f3_2l" transform="matrix(12,0,0,12,555,1075)" />
<use xlink:href="#f3_2b" transform="matrix(12,0,0,12,563.4,1075)" />
<use xlink:href="#f3_2h" transform="matrix(12,0,0,12,572.9,1075)" />
<use xlink:href="#f3_2h" transform="matrix(12,0,0,12,586.8,1075)" />
<use xlink:href="#f3_2f" transform="matrix(12,0,0,12,596,1075)" />
<use xlink:href="#f3_21" transform="matrix(12,0,0,12,603,1075)" />
<use xlink:href="#f3_1x" transform="matrix(12,0,0,12,615.8,1075)" />
<use xlink:href="#f3_2f" transform="matrix(12,0,0,12,623.8,1075)" />
<use xlink:href="#f3_1x" transform="matrix(12,0,0,12,635.6,1075)" />
<use xlink:href="#f3_2a" transform="matrix(12,0,0,12,644,1075)" />
<use xlink:href="#f3_21" transform="matrix(12,0,0,12,657.5,1075)" />
<use xlink:href="#f3_2l" transform="matrix(12,0,0,12,665.9,1075)" />
<use xlink:href="#f3_21" transform="matrix(12,0,0,12,674.7,1075)" />
<use xlink:href="#f3_2c" transform="matrix(12,0,0,12,682.8,1075)" />
<use xlink:href="#f3_25" transform="matrix(12,0,0,12,692.3,1075)" />
<use xlink:href="#f3_21" transform="matrix(12,0,0,12,697.1,1075)" />
<use xlink:href="#f3_1z" transform="matrix(12,0,0,12,705.2,1075)" />
<use xlink:href="#f3_21" transform="matrix(12,0,0,12,713.2,1075)" />
<use xlink:href="#f3_1x" transform="matrix(12,0,0,12,726,1075)" />
<use xlink:href="#f3_2a" transform="matrix(12,0,0,12,734.5,1075)" />
<use xlink:href="#f3_20" transform="matrix(12,0,0,12,743.3,1075)" />
<use xlink:href="#f3_1x" transform="matrix(12,0,0,12,757.2,1075)" />
<use xlink:href="#f3_2f" transform="matrix(12,0,0,12,765.2,1075)" />
<use xlink:href="#f3_1x" transform="matrix(12,0,0,12,776.9,1075)" />
<use xlink:href="#f3_2a" transform="matrix(12,0,0,12,785.4,1075)" />
<use xlink:href="#f3_2b" transform="matrix(12,0,0,12,55,1099.2)" />
<use xlink:href="#f3_1y" transform="matrix(12,0,0,12,64.6,1099.2)" />
<use xlink:href="#f3_26" transform="matrix(12,0,0,12,73.7,1099.2)" />
<use xlink:href="#f3_21" transform="matrix(12,0,0,12,78.1,1099.2)" />
<use xlink:href="#f3_1z" transform="matrix(12,0,0,12,86.2,1099.2)" />
<use xlink:href="#f3_2g" transform="matrix(12,0,0,12,94.3,1099.2)" />
<use xlink:href="#f3_25" transform="matrix(12,0,0,12,100.1,1099.2)" />
<use xlink:href="#f3_2i" transform="matrix(12,0,0,12,104.9,1099.2)" />
<use xlink:href="#f3_21" transform="matrix(12,0,0,12,113.7,1099.2)" />
<use xlink:href="#f3_2g" transform="matrix(12,0,0,12,126.5,1099.2)" />
<use xlink:href="#f3_2b" transform="matrix(12,0,0,12,132,1099.2)" />
<use xlink:href="#f3_1z" transform="matrix(12,0,0,12,145.9,1099.2)" />
<use xlink:href="#f3_2b" transform="matrix(12,0,0,12,153.6,1099.2)" />
<use xlink:href="#f3_2a" transform="matrix(12,0,0,12,163.1,1099.2)" />
<use xlink:href="#f3_2f" transform="matrix(12,0,0,12,171.9,1099.2)" />
<use xlink:href="#f3_2g" transform="matrix(12,0,0,12,178.9,1099.2)" />
<use xlink:href="#f3_2e" transform="matrix(12,0,0,12,184.3,1099.2)" />
<use xlink:href="#f3_2h" transform="matrix(12,0,0,12,190.6,1099.2)" />
<use xlink:href="#f3_1z" transform="matrix(12,0,0,12,199.7,1099.2)" />
<use xlink:href="#f3_2g" transform="matrix(12,0,0,12,207.4,1099.2)" />
<use xlink:href="#f3_1x" transform="matrix(12,0,0,12,217.7,1099.2)" />
<use xlink:href="#f3_2a" transform="matrix(12,0,0,12,225.7,1099.2)" />
<use xlink:href="#f3_1x" transform="matrix(12,0,0,12,239.3,1099.2)" />
<use xlink:href="#f3_2f" transform="matrix(12,0,0,12,247.3,1099.2)" />
<use xlink:href="#f3_2g" transform="matrix(12,0,0,12,254.3,1099.2)" />
<use xlink:href="#f3_2e" transform="matrix(12,0,0,12,259.8,1099.2)" />
<use xlink:href="#f3_2b" transform="matrix(12,0,0,12,265.6,1099.2)" />
<use xlink:href="#f3_2a" transform="matrix(12,0,0,12,275.2,1099.2)" />
<use xlink:href="#f3_2b" transform="matrix(12,0,0,12,284,1099.2)" />
<use xlink:href="#f3_29" transform="matrix(12,0,0,12,293.5,1099.2)" />
<use xlink:href="#f3_25" transform="matrix(12,0,0,12,307.4,1099.2)" />
<use xlink:href="#f3_1z" transform="matrix(12,0,0,12,312.2,1099.2)" />
<use xlink:href="#f3_1x" transform="matrix(12,0,0,12,320.2,1099.2)" />
<use xlink:href="#f3_28" transform="matrix(12,0,0,12,328.7,1099.2)" />
<use xlink:href="#f3_2g" transform="matrix(12,0,0,12,337.8,1099.2)" />
<use xlink:href="#f3_21" transform="matrix(12,0,0,12,343.3,1099.2)" />
<use xlink:href="#f3_28" transform="matrix(12,0,0,12,351.7,1099.2)" />
<use xlink:href="#f3_21" transform="matrix(12,0,0,12,356.1,1099.2)" />
<use xlink:href="#f3_2f" transform="matrix(12,0,0,12,364.5,1099.2)" />
<use xlink:href="#f3_1z" transform="matrix(12,0,0,12,371.5,1099.2)" />
<use xlink:href="#f3_2b" transform="matrix(12,0,0,12,379.6,1099.2)" />
<use xlink:href="#f3_2c" transform="matrix(12,0,0,12,389.6,1099.2)" />
<use xlink:href="#f3_21" transform="matrix(12,0,0,12,398.7,1099.2)" />
<use xlink:href="#f3_z" transform="matrix(12,0,0,12,406.8,1099.2)" />
<use xlink:href="#f3_17" transform="matrix(12,0,0,12,419.6,1099.2)" />
<use xlink:href="#f3_25" transform="matrix(12,0,0,12,433.1,1099.2)" />
<use xlink:href="#f3_2i" transform="matrix(12,0,0,12,437.9,1099.2)" />
<use xlink:href="#f3_21" transform="matrix(12,0,0,12,446.7,1099.2)" />
<use xlink:href="#f3_2e" transform="matrix(12,0,0,12,459.5,1099.2)" />
<use xlink:href="#f3_21" transform="matrix(12,0,0,12,465.7,1099.2)" />
<use xlink:href="#f3_1x" transform="matrix(12,0,0,12,473.8,1099.2)" />
<use xlink:href="#f3_2f" transform="matrix(12,0,0,12,481.9,1099.2)" />
<use xlink:href="#f3_2b" transform="matrix(12,0,0,12,488.8,1099.2)" />
<use xlink:href="#f3_2a" transform="matrix(12,0,0,12,498.4,1099.2)" />
<use xlink:href="#f3_i" transform="matrix(12,0,0,12,507.2,1099.2)" />
</g>
<image preserveAspectRatio="none" x="271" y="127" width="367" height="247" xlink:href="img/6.png" />
<image preserveAspectRatio="none" x="248" y="564" width="413" height="423" xlink:href="img/7.png" />
<path fill-rule="evenodd" d="M37.4,38.1h.7v-.7h-.7v.7Z" class="g2_40" />
<path fill-rule="evenodd" d="M37.4,38.1h.7v-.7h-.7v.7Z" class="g2_40" />
<path fill-rule="evenodd" d="M38.1,38.1H871.5v-.7H38.1v.7Z" class="g2_40" />
<path fill-rule="evenodd" d="M871.5,38.1h.8v-.7h-.8v.7Z" class="g2_40" />
<path fill-rule="evenodd" d="M871.5,38.1h.8v-.7h-.8v.7Z" class="g2_40" />
<path fill-rule="evenodd" d="M37.4,1248.5h.7V38.1h-.7V1248.5Z" class="g2_40" />
<path fill-rule="evenodd" d="M872.3,1248.5h.7V38.1h-.7V1248.5Z" class="g2_40" />
<path fill-rule="evenodd" d="M871.5,1248.5h.8V38.1h-.8V1248.5Z" class="g2_40" />
<path fill-rule="evenodd" d="M37.4,1249.2h.7v-.7h-.7v.7Z" class="g2_40" />
<path fill-rule="evenodd" d="M37.4,1249.2h.7v-.7h-.7v.7Z" class="g2_40" />
<path fill-rule="evenodd" d="M38.1,1249.9H871.5v-.7H38.1v.7Z" class="g2_40" />
<path fill-rule="evenodd" d="M38.1,1249.2H871.5v-.7H38.1v.7Z" class="g2_40" />
<path fill-rule="evenodd" d="M872.3,1249.9h.7v-1.4h-.7v1.4Z" class="g2_40" />
<path fill-rule="evenodd" d="M871.5,1249.9H873v-.7h-1.5v.7Z" class="g2_40" />
<path fill-rule="evenodd" d="M871.5,1249.2h.8v-.7h-.8v.7Z" class="g2_40" />
<path fill-rule="evenodd" d="M871.5,1249.2h.8v-.7h-.8v.7Z" class="g2_40" />
<defs>
<path d="M489,-15c0,0,-99,0,-179,30c0,0,-80,30,-136,91c0,0,-56,61,-85,152c0,0,-30,91,-30,212c0,0,0,123,32,218c0,0,33,96,92,161c0,0,59,65,142,98c0,0,82,34,181,34c0,0,40,0,78,-7c0,0,37,-7,69,-18c0,0,31,-11,57,-25c0,0,25,-14,35,-24c0,0,10,-10,14,-17c0,0,4,-7,6,-17c0,0,2,-11,3,-25c0,0,2,-14,2,-35c0,0,0,-22,-2,-38c0,0,-1,-15,-5,-25c0,0,-4,-10,-9,-14c0,0,-5,-5,-12,-5c0,0,-11,0,-28,13c0,0,-18,13,-45,29c0,0,-27,16,-65,29c0,0,-37,13,-89,13c0,0,-58,0,-103,-23c0,0,-45,-23,-77,-67c0,0,-31,-44,-48,-106c0,0,-16,-61,-16,-139c0,0,0,-85,17,-147c0,0,18,-62,50,-103c0,0,33,-40,79,-60c0,0,45,-19,103,-19c0,0,52,0,90,12c0,0,38,12,65,27c0,0,27,15,45,27c0,0,17,12,27,12c0,0,8,0,12,-3c0,0,4,-3,7,-12c0,0,3,-9,5,-25c0,0,1,-16,1,-43c0,0,0,-18,-1,-31c0,0,-1,-14,-3,-23c0,0,-2,-9,-6,-16c0,0,-4,-7,-12,-15c0,0,-8,-9,-32,-22c0,0,-23,-14,-57,-26C661,13,627,1,583,-6c0,0,-43,-9,-94,-9Z" 
id="f0_j"
transform="scale(0.001,-0.001)" />

<path d="M440,150c0,0,41,0,68,8c0,0,28,9,49,26c0,0,20,16,32,41c0,0,11,25,11,58c0,0,0,33,-11,60c0,0,-11,26,-33,44c0,0,-21,18,-55,28c0,0,-33,9,-87,9H298V150ZM407,567c0,0,42,0,68,10c0,0,25,10,42,28c0,0,16,17,24,41c0,0,9,24,9,50c0,0,0,29,-9,52c0,0,-9,23,-27,39c0,0,-18,15,-45,23c0,0,-27,8,-72,8H298V567ZM164,0c0,0,-25,0,-42,15c0,0,-16,14,-16,47V903c0,0,0,33,16,48c0,0,17,14,42,14H406c0,0,88,0,150,-15c0,0,61,-15,103,-45c0,0,42,-30,65,-77c0,0,22,-46,22,-108c0,0,0,-36,-9,-67c0,0,-9,-31,-26,-56c0,0,-17,-25,-42,-45c0,0,-25,-19,-57,-31c0,0,41,-7,76,-26c0,0,34,-19,60,-48c0,0,26,-30,41,-69c0,0,15,-40,15,-89c0,0,0,-51,-14,-93c0,0,-15,-42,-40,-74c0,0,-25,-32,-59,-55c0,0,-35,-23,-77,-38C614,29,573,14,525,7C525,7,478,0,420,0Z" 
id="f0_i"
transform="scale(0.001,-0.001)" />

<path d="M320,-17c0,0,-50,0,-93,9c0,0,-43,8,-76,19c0,0,-32,11,-54,24C97,35,75,48,65,58c0,0,-10,9,-14,28c0,0,-4,18,-4,52c0,0,0,23,1,39c0,0,2,15,5,25c0,0,4,10,9,14c0,0,6,4,13,4c0,0,11,0,30,-12c0,0,19,-13,49,-28c0,0,30,-15,71,-27c0,0,42,-12,96,-12c0,0,36,0,64,8c0,0,29,9,49,25c0,0,19,15,30,38c0,0,10,23,10,52c0,0,0,33,-18,56c0,0,-18,24,-46,42c0,0,-29,18,-66,34c0,0,-36,16,-75,34c0,0,-39,18,-76,41c0,0,-36,23,-65,54c0,0,-29,32,-47,75c0,0,-17,44,-17,104c0,0,0,70,25,122c0,0,26,53,70,88c0,0,43,34,103,51c0,0,59,18,125,18c0,0,35,0,69,-6c0,0,34,-5,64,-14c0,0,30,-9,53,-20c0,0,23,-11,31,-18c0,0,7,-8,10,-13c0,0,3,-5,4,-14c0,0,2,-8,3,-21c0,0,1,-13,1,-33c0,0,0,-21,-1,-36c0,0,-1,-15,-4,-25c0,0,-3,-9,-7,-14c0,0,-5,-4,-14,-4c0,0,-8,0,-26,10c0,0,-18,10,-44,23c0,0,-26,12,-60,22c0,0,-34,10,-75,10c0,0,-32,0,-56,-8c0,0,-24,-8,-40,-21c0,0,-16,-14,-24,-34c0,0,-8,-19,-8,-41c0,0,0,-32,18,-56c0,0,17,-23,46,-42c0,0,30,-18,67,-34c0,0,38,-16,76,-34c0,0,39,-18,76,-41c0,0,38,-22,67,-54c0,0,29,-32,47,-75c0,0,18,-43,18,-101c0,0,0,-76,-29,-133c0,0,-28,-58,-77,-96C572,60,524,21,459,2c0,0,-65,-19,-139,-19Z" 
id="f0_2n"
transform="scale(0.001,-0.001)" />

<path d="M164,0c0,0,-25,0,-42,15c0,0,-16,14,-16,47V903c0,0,0,33,16,48c0,0,17,14,42,14H645c0,0,7,0,12,-4c0,0,5,-3,9,-13c0,0,4,-9,6,-24c0,0,2,-14,2,-36c0,0,0,-21,-2,-36c0,0,-2,-14,-6,-23c0,0,-4,-9,-9,-13c0,0,-5,-4,-12,-4H301V576H593c0,0,6,0,12,-4c0,0,6,-4,9,-13c0,0,4,-8,6,-23c0,0,2,-14,2,-35c0,0,0,-22,-2,-36c0,0,-2,-14,-6,-23c0,0,-3,-8,-9,-12c0,0,-6,-4,-12,-4H301V154H649c0,0,6,0,12,-5c0,0,5,-4,9,-13c0,0,4,-9,6,-23c0,0,2,-15,2,-36c0,0,0,-22,-2,-36c0,0,-2,-15,-6,-24c0,0,-4,-9,-9,-13c0,0,-6,-4,-12,-4Z" 
id="f0_t"
transform="scale(0.001,-0.001)" />

<path d="M79,297c0,0,-19,0,-27,18c0,0,-8,17,-8,60c0,0,0,41,8,59c0,0,8,17,27,17H389c0,0,9,0,15,-4c0,0,7,-4,11,-13c0,0,5,-9,7,-23c0,0,1,-15,1,-36c0,0,0,-43,-8,-61c0,0,-8,-17,-26,-17Z" 
id="f0_oj"
transform="scale(0.001,-0.001)" />

<path d="M121,-4c0,0,-39,0,-60,2C61,-2,39,0,32,8c0,0,-8,8,-3,24c0,0,4,15,18,41L279,495L64,892c0,0,-14,26,-19,42c0,0,-5,17,4,24c0,0,9,8,32,10c0,0,23,2,65,2c0,0,35,0,56,-2c0,0,20,-1,32,-4c0,0,12,-4,17,-10c0,0,5,-6,9,-15L431,620L595,939c0,0,5,9,10,15c0,0,5,6,16,10c0,0,10,3,29,4c0,0,19,2,53,2c0,0,37,0,59,-2c0,0,22,-2,30,-10c0,0,8,-8,4,-24c0,0,-4,-16,-17,-42L564,497L793,73c0,0,14,-26,18,-41c0,0,4,-16,-5,-24c0,0,-9,-8,-32,-10c0,0,-24,-2,-65,-2c0,0,-36,0,-56,2c0,0,-20,1,-31,3c0,0,-12,4,-17,10c0,0,-5,6,-9,15L414,374L233,26c0,0,-4,-9,-9,-15c0,0,-6,-6,-17,-10c0,0,-12,-2,-32,-3c0,0,-21,-2,-54,-2Z" 
id="f0_3e"
transform="scale(0.001,-0.001)" />

<path d="M204,-4c0,0,-28,0,-47,2c0,0,-19,2,-31,5c0,0,-11,4,-16,10c0,0,-4,6,-4,13V939c0,0,0,7,4,13c0,0,5,6,17,10c0,0,11,3,30,6c0,0,19,2,47,2c0,0,29,0,48,-2c0,0,18,-3,29,-6c0,0,11,-4,16,-10c0,0,5,-6,5,-13V26c0,0,0,-7,-5,-13c0,0,-5,-6,-16,-10c0,0,-11,-3,-29,-5c0,0,-19,-2,-48,-2Z" 
id="f0_1c"
transform="scale(0.001,-0.001)" />

<path d="M127,0c0,0,-16,0,-28,3C99,3,87,6,80,15c0,0,-8,8,-11,25c0,0,-3,16,-3,42c0,0,0,25,2,42c0,0,2,18,8,32c0,0,6,14,15,27c0,0,9,13,24,29L282,390c0,0,50,53,81,95c0,0,30,43,47,79c0,0,17,35,24,65c0,0,6,30,6,57c0,0,0,24,-8,46c0,0,-8,22,-23,39c0,0,-15,16,-38,25c0,0,-23,10,-55,10c0,0,-44,0,-78,-12c0,0,-33,-11,-59,-25c0,0,-26,-13,-43,-25c0,0,-17,-12,-27,-12c0,0,-7,0,-11,5c0,0,-5,4,-8,15c0,0,-3,10,-5,28c0,0,-2,17,-2,42c0,0,0,18,1,29c0,0,1,12,4,20c0,0,2,9,6,15c0,0,3,6,13,15c0,0,9,9,34,23c0,0,25,14,61,27c0,0,37,14,81,23c0,0,44,9,92,9c0,0,75,0,131,-19c0,0,57,-19,94,-53c0,0,37,-34,55,-81c0,0,19,-47,19,-100c0,0,0,-47,-9,-93c0,0,-9,-45,-37,-98c0,0,-29,-52,-80,-116c0,0,-52,-64,-136,-148L299,159H679c0,0,8,0,14,-4c0,0,6,-5,11,-14c0,0,4,-9,7,-25c0,0,2,-15,2,-36c0,0,0,-22,-2,-37c0,0,-2,-15,-6,-25c0,0,-3,-10,-9,-14c0,0,-6,-4,-14,-4Z" 
id="f0_rz"
transform="scale(0.001,-0.001)" />

<path d="M385,138c0,0,29,0,52,9c0,0,22,10,39,28c0,0,17,19,28,47c0,0,11,29,19,66c0,0,7,37,9,84c0,0,3,47,3,104c0,0,0,69,-4,122c0,0,-4,52,-11,91c0,0,-8,39,-20,66c0,0,-12,27,-28,43c0,0,-16,16,-37,22c0,0,-21,7,-47,7c0,0,-44,0,-73,-21c0,0,-28,-21,-45,-64c0,0,-17,-42,-24,-106c0,0,-6,-63,-6,-148c0,0,0,-103,8,-171c0,0,8,-67,26,-107c0,0,17,-40,45,-56c0,0,27,-16,66,-16ZM378,-17c0,0,-99,0,-164,33c0,0,-65,34,-103,98c0,0,-38,64,-54,156c0,0,-15,92,-15,209c0,0,0,115,19,208c0,0,19,94,61,160c0,0,42,65,110,101c0,0,68,35,165,35c0,0,99,0,164,-34c0,0,65,-34,103,-98c0,0,39,-64,53,-156c0,0,15,-92,15,-209c0,0,0,-115,-18,-209c0,0,-19,-93,-61,-159C653,118,611,53,543,17c0,0,-67,-34,-165,-34Z" 
id="f0_rx"
transform="scale(0.001,-0.001)" />

<path d="M142,0c0,0,-6,0,-12,4c0,0,-5,3,-9,12c0,0,-4,9,-6,23c0,0,-3,15,-3,36c0,0,0,21,2,36c0,0,2,14,6,23c0,0,4,9,10,13c0,0,5,5,12,5H322V779L166,693c0,0,-17,-8,-28,-10c0,0,-1,0,-3,0c-4,0,-10,1,-14,5c0,0,-6,6,-8,22c0,0,-2,15,-2,44c0,0,0,18,0,29c0,0,1,12,4,20c0,0,3,8,8,14c0,0,5,5,14,11L345,962c0,0,4,3,9,5c0,0,6,2,15,3c0,0,9,1,23,2c0,0,15,0,38,0c0,0,28,0,46,-1c0,0,17,-1,26,-4c0,0,9,-3,12,-7c0,0,3,-4,3,-11V152H675c0,0,7,0,12,-5c0,0,6,-4,10,-13c0,0,4,-9,6,-23c0,0,2,-15,2,-36c0,0,0,-21,-2,-36c0,0,-3,-14,-7,-23c0,0,-4,-9,-9,-12c0,0,-5,-4,-12,-4Z" 
id="f0_ry"
transform="scale(0.001,-0.001)" />

<path d="M259,-4c0,0,-39,0,-62,3c0,0,-23,1,-34,7c0,0,-11,6,-12,14c0,0,-1,9,5,21L498,796H92c0,0,-16,0,-24,20c0,0,-7,21,-7,65c0,0,0,22,2,38c0,0,2,16,6,27c0,0,4,10,10,15c0,0,6,4,13,4H666c0,0,13,0,22,-3c0,0,9,-2,14,-11c0,0,6,-9,8,-25c0,0,3,-17,3,-43c0,0,0,-22,-2,-38c0,0,-1,-16,-4,-30c0,0,-2,-13,-7,-26c0,0,-4,-12,-10,-26L372,26c0,0,-5,-10,-12,-16c0,0,-7,-6,-20,-9c0,0,-12,-3,-32,-4c0,0,-20,-1,-49,-1Z" 
id="f0_s4"
transform="scale(0.001,-0.001)" />

<path d="M589,371L453,782h-1L317,371ZM106,-4c0,0,-35,0,-54,2C52,-2,32,0,25,8c0,0,-7,9,-5,24c0,0,2,16,11,42L329,931c0,0,4,13,10,21c0,0,6,7,19,12c0,0,13,4,36,5c0,0,23,1,61,1c0,0,44,0,71,-1c0,0,26,-1,40,-5c0,0,15,-5,21,-13c0,0,6,-8,11,-22L896,73c0,0,9,-27,11,-43c0,0,3,-15,-6,-23c0,0,-8,-7,-29,-9c0,0,-21,-2,-57,-2c0,0,-38,0,-59,1c0,0,-22,1,-33,4c0,0,-11,3,-16,9c0,0,-4,6,-7,16L635,220H272L211,31c0,0,-2,-11,-7,-18c0,0,-5,-7,-16,-11c0,0,-11,-3,-31,-4c0,0,-19,-2,-51,-2Z" 
id="f0_5"
transform="scale(0.001,-0.001)" />

<path d="M198,-4c0,0,-27,0,-45,2c0,0,-18,2,-28,5c0,0,-11,4,-15,10c0,0,-4,6,-4,13V887c0,0,0,38,20,58c0,0,20,20,53,20H308c0,0,34,0,59,-6c0,0,24,-5,42,-18c0,0,18,-13,30,-35c0,0,12,-21,21,-52L669,279h3L889,852c0,0,9,32,21,53c0,0,11,22,27,35c0,0,15,14,36,19c0,0,21,6,48,6h132c0,0,21,0,35,-5c0,0,15,-5,24,-15c0,0,9,-11,14,-25c0,0,5,-15,5,-33V26c0,0,0,-7,-4,-13c0,0,-4,-6,-15,-10c0,0,-11,-3,-29,-5c0,0,-18,-2,-45,-2c0,0,-27,0,-45,2c0,0,-18,2,-28,5c0,0,-11,4,-15,10c0,0,-5,6,-5,13V813h-1L764,27c0,0,-3,-10,-10,-16c0,0,-6,-6,-18,-10c0,0,-12,-3,-29,-4c0,0,-18,-1,-44,-1c0,0,-25,0,-43,2c0,0,-18,2,-29,5c0,0,-12,4,-19,10c0,0,-6,6,-9,14L293,813h-2V26c0,0,0,-7,-4,-13c0,0,-4,-6,-15,-10c0,0,-11,-3,-29,-5c0,0,-17,-2,-45,-2Z" 
id="f0_1x"
transform="scale(0.001,-0.001)" />

<path d="M193,-4c0,0,-26,0,-43,2c0,0,-18,2,-27,6c0,0,-10,4,-14,10c0,0,-3,6,-3,13V895c0,0,0,35,20,53c0,0,21,17,50,17H282c0,0,28,0,47,-5c0,0,20,-5,35,-16c0,0,15,-11,29,-31c0,0,13,-20,27,-49L608,511c0,0,17,-32,33,-63c0,0,16,-31,31,-62c0,0,14,-31,29,-60c0,0,14,-30,27,-60h1c0,0,-2,52,-3,109c0,0,-1,57,-1,108V936c0,0,0,7,4,13c0,0,5,6,15,11c0,0,10,4,28,6c0,0,17,2,44,2c0,0,25,0,42,-2c0,0,17,-2,27,-6c0,0,9,-5,13,-11c0,0,4,-6,4,-13V68c0,0,0,-17,-6,-30c0,0,-6,-14,-17,-23C879,15,869,6,856,2c0,0,-14,-3,-28,-3H744c0,0,-26,0,-45,4c0,0,-19,5,-35,19c0,0,-16,14,-31,38c0,0,-15,23,-34,60L359,572c0,0,-21,40,-43,86c0,0,-21,47,-38,91h-2c0,0,3,-54,5,-107c0,0,2,-53,2,-110V27c0,0,0,-7,-5,-13c0,0,-4,-6,-14,-10c0,0,-10,-4,-27,-6c0,0,-17,-2,-44,-2Z" 
id="f0_1y"
transform="scale(0.001,-0.001)" />

<path d="M378,-4c0,0,-28,0,-47,2c0,0,-19,2,-31,5c0,0,-11,4,-16,10c0,0,-4,6,-4,13V805H38c0,0,-8,0,-13,4c0,0,-5,5,-9,14c0,0,-3,9,-5,25c0,0,-2,15,-2,37c0,0,0,22,2,38c0,0,2,15,5,25c0,0,4,9,9,13c0,0,5,4,13,4H718c0,0,7,0,12,-4c0,0,6,-4,10,-13c0,0,3,-10,5,-25c0,0,2,-16,2,-38c0,0,0,-22,-2,-37c0,0,-2,-16,-5,-25c0,0,-4,-9,-10,-14c0,0,-5,-4,-12,-4H476V26c0,0,0,-7,-5,-13c0,0,-5,-6,-16,-10c0,0,-11,-3,-30,-5c0,0,-19,-2,-47,-2Z" 
id="f0_2t"
transform="scale(0.001,-0.001)" />

<path d="M514,145c0,0,72,0,121,27c0,0,48,26,78,73c0,0,30,46,42,107c0,0,13,62,13,131c0,0,0,76,-12,139c0,0,-12,62,-41,106c0,0,-29,45,-76,69c0,0,-48,24,-120,24c0,0,-72,0,-120,-27c0,0,-49,-27,-79,-73c0,0,-29,-45,-42,-106c0,0,-12,-61,-12,-129c0,0,0,-79,12,-142c0,0,12,-63,40,-108c0,0,28,-44,76,-68c0,0,48,-23,120,-23ZM508,-17c0,0,-113,0,-196,29c0,0,-84,29,-140,90c0,0,-56,60,-84,154c0,0,-28,93,-28,221c0,0,0,117,29,210c0,0,30,94,89,160c0,0,59,65,146,101c0,0,87,35,202,35c0,0,110,0,194,-29c0,0,84,-30,140,-90c0,0,56,-60,85,-153c0,0,29,-92,29,-217c0,0,0,-120,-30,-215c0,0,-30,-95,-89,-161C855,118,796,52,709,17c0,0,-87,-34,-201,-34Z" 
id="f0_24"
transform="scale(0.001,-0.001)" />

<path d="M299,0V777H162l36,173H508V0Z" 
id="f1_l"
transform="scale(0.001,-0.001)" />

<path d="M340,-13c0,0,-73,0,-129,20C211,7,155,27,86,74l22,217c0,0,156,-103,245,-103c0,0,64,0,112,45c0,0,47,46,47,107c0,0,0,68,-47,113c0,0,-48,46,-121,46c0,0,-85,0,-184,-42l48,495H681V777H393L382,665c0,0,163,0,251,-95c0,0,88,-95,88,-224c0,0,0,-146,-113,-253C608,93,494,-13,340,-13Z" 
id="f1_p"
transform="scale(0.001,-0.001)" />

<path d="M44,-281L425,1053H537L156,-281Z" 
id="f1_j"
transform="scale(0.001,-0.001)" />

<path d="M75,0L400,413c0,0,71,91,101,149c0,0,30,58,30,109c0,0,0,55,-36,91c0,0,-36,36,-91,36c0,0,-63,0,-91,-45c0,0,-28,-46,-34,-142H67c0,0,0,173,102,268c0,0,102,95,253,95c0,0,140,0,229,-82c0,0,89,-82,89,-209c0,0,0,-125,-104,-276L580,324c0,0,-34,-50,-85,-114L468,178H740V0Z" 
id="f1_m"
transform="scale(0.001,-0.001)" />

<path d="M403,168c0,0,50,0,85,37c0,0,35,36,35,89c0,0,0,50,-35,85c0,0,-35,36,-85,36c0,0,-47,0,-81,-37c0,0,-35,-37,-35,-89c0,0,0,-47,36,-84c0,0,35,-37,80,-37Zm3,426c0,0,39,0,70,28c0,0,31,29,31,65c0,0,0,46,-28,77c0,0,-29,31,-73,31c0,0,-42,0,-71,-29c0,0,-28,-29,-28,-70c0,0,0,-44,28,-73c0,0,29,-29,71,-29Zm2,-605c0,0,-145,0,-234,75c0,0,-90,76,-90,197c0,0,0,150,140,239c0,0,-59,52,-87,101c0,0,-27,49,-27,112c0,0,0,103,77,179c0,0,77,75,216,75c0,0,136,0,217,-68c0,0,81,-68,81,-180c0,0,0,-130,-115,-217c0,0,140,-90,140,-237c0,0,0,-124,-89,-200c0,0,-88,-76,-229,-76Z" 
id="f1_s"
transform="scale(0.001,-0.001)" />

<path d="M410,-14c0,0,-86,0,-175,14C235,0,145,14,81,38V307h66L181,146c0,0,31,-37,94,-62c0,0,64,-24,132,-24c0,0,214,0,214,177c0,0,0,55,-41,93c0,0,-41,38,-128,68c0,0,-128,42,-185,68c0,0,-56,27,-95,63c0,0,-38,36,-62,87c0,0,-23,51,-23,125c0,0,0,132,90,201c0,0,90,69,263,69c0,0,125,0,278,-32V741H651L618,878c0,0,-76,56,-178,56c0,0,-92,0,-141,-34c0,0,-49,-34,-49,-104c0,0,0,-50,41,-86c0,0,41,-35,128,-63c0,0,171,-56,235,-97c0,0,64,-41,97,-103c0,0,34,-61,34,-143c0,0,0,-318,-375,-318Z" 
id="f2_1j"
transform="scale(0.001,-0.001)" />

<path d="M379,60c0,0,59,0,84,64c0,0,24,65,24,231c0,0,0,164,-24,227c0,0,-24,63,-84,63c0,0,-57,0,-80,-60c0,0,-22,-61,-22,-230c0,0,0,-173,23,-234c0,0,22,-61,79,-61Zm-2,-74c0,0,-161,0,-240,91c0,0,-79,91,-79,277c0,0,0,186,80,276c0,0,81,90,245,90c0,0,167,0,245,-93c0,0,78,-93,78,-273c0,0,0,-188,-81,-278c0,0,-81,-90,-248,-90Z" 
id="f2_2b"
transform="scale(0.001,-0.001)" />

<path d="M30,0V49l76,18V992l-72,18v50H322V67L398,49V0Z" 
id="f2_28"
transform="scale(0.001,-0.001)" />

<path d="M287,-18c0,0,-194,0,-194,206V634L23,652v49H309V217c0,0,0,-63,26,-98c0,0,27,-35,76,-35c0,0,57,0,113,25V634l-64,18v49H740V67L809,49V0H536L526,61L475,35c0,0,-104,-53,-188,-53Z" 
id="f2_2h"
transform="scale(0.001,-0.001)" />

<path d="M327,-14c0,0,-101,0,-156,45c0,0,-55,45,-55,131V624H25v48l108,29l87,159H332V701H480V624H332V176c0,0,0,-49,20,-73c0,0,20,-25,53,-25c0,0,40,0,97,12V26c0,0,-22,-15,-76,-27c0,0,-55,-13,-99,-13Z" 
id="f2_2g"
transform="scale(0.001,-0.001)" />

<path d="M34,0V49l76,18V634L38,652v49H325V67L402,49V0ZM217,831c0,0,-48,0,-81,33c0,0,-34,33,-34,82c0,0,0,48,34,81c0,0,34,33,81,33c0,0,48,0,81,-33c0,0,33,-33,33,-81c0,0,0,-47,-33,-81c0,0,-32,-34,-81,-34Z" 
id="f2_25"
transform="scale(0.001,-0.001)" />

<path d="M41,0V49l69,18V634L41,652v49H313l11,-61l50,26c0,0,105,54,188,54c0,0,194,0,194,-207V67L827,49V0H478V49l63,18V484c0,0,0,63,-27,98c0,0,-26,35,-75,35c0,0,-57,0,-114,-25V67L389,49V0Z" 
id="f2_2a"
transform="scale(0.001,-0.001)" />

<path d="M248,-20c0,0,-52,0,-87,34c0,0,-36,36,-36,88c0,0,0,52,36,88c0,0,35,36,87,36c0,0,52,0,88,-36c0,0,36,-36,36,-88c0,0,0,-51,-36,-87c0,0,-35,-35,-88,-35Zm0,488c0,0,-52,0,-87,36c0,0,-36,36,-36,88c0,0,0,52,35,88c0,0,35,36,88,36c0,0,53,0,89,-36c0,0,35,-37,35,-88c0,0,0,-51,-36,-87c0,0,-35,-37,-88,-37Z" 
id="f2_u"
transform="scale(0.001,-0.001)" />

<path d="M460,-325c0,0,-148,79,-231,172c0,0,-84,93,-123,217c0,0,-39,126,-39,304c0,0,0,178,39,303c0,0,39,125,122,217c0,0,82,93,232,172V997c0,0,-91,-52,-145,-134c0,0,-54,-81,-79,-190c0,0,-25,-109,-25,-305c0,0,0,-194,26,-309c0,0,26,-114,82,-193c0,0,56,-79,141,-128v-63Z" 
id="f3_c"
transform="scale(0.001,-0.001)" />

<path d="M284,67c0,0,51,0,88,12c0,0,37,12,74,30V358l-98,-3c0,0,-100,-4,-135,-39c0,0,-35,-35,-35,-117c0,0,0,-132,106,-132ZM233,-14c0,0,-179,0,-179,208c0,0,0,70,27,116c0,0,27,46,87,70c0,0,60,24,173,27l105,3V519c0,0,0,72,-26,107c0,0,-27,34,-82,34c0,0,-75,0,-137,-35L176,538H134V691c0,0,121,26,213,26c0,0,115,0,169,-47c0,0,54,-47,54,-144V52L657,33V0H465L451,70c0,0,-85,-84,-218,-84Z" 
id="f3_1x"
transform="scale(0.001,-0.001)" />

<path d="M49,-325v63c0,0,85,49,140,128c0,0,56,79,83,194c0,0,26,115,26,308c0,0,0,196,-25,305c0,0,-25,109,-79,190c0,0,-54,82,-145,134v63c0,0,149,-80,232,-172c0,0,83,-92,122,-217c0,0,39,-125,39,-303c0,0,0,-177,-39,-303c0,0,-39,-125,-122,-217c0,0,-83,-93,-232,-173Z" 
id="f3_d"
transform="scale(0.001,-0.001)" />

<path d="M235,0V40L394,60V936H356c0,0,-189,0,-258,-15L78,766H28v234H908V766H857L837,921c0,0,-22,5,-98,9c0,0,-75,4,-165,4H538V60L697,40V0Z" 
id="f3_1k"
transform="scale(0.001,-0.001)" />

<path d="M442,0V33l93,19V504c0,0,0,129,-124,129c0,0,-70,0,-168,-22V52L338,33V0H31V33l88,19v956L15,1026v34H243V756c0,0,0,-77,-5,-112c0,0,54,31,122,53c0,0,68,23,115,23c0,0,91,0,137,-53c0,0,47,-53,47,-154V52L744,33V0Z" 
id="f3_24"
transform="scale(0.001,-0.001)" />

<path d="M495,413c0,0,0,133,-34,190c0,0,-34,57,-105,57c0,0,-78,0,-119,-63c0,0,-42,-62,-42,-184ZM374,-14c0,0,-163,0,-239,87c0,0,-75,88,-75,283c0,0,0,183,77,273c0,0,76,91,219,91c0,0,269,0,269,-306V353H194V340c0,0,0,-103,23,-160c0,0,22,-57,70,-87c0,0,47,-29,124,-29c0,0,40,0,96,6c0,0,55,7,91,15V43C598,43,562,20,500,3c0,0,-61,-17,-126,-17Z" 
id="f3_21"
transform="scale(0.001,-0.001)" />

<path d="M278,-14c0,0,-52,0,-115,11c0,0,-63,10,-99,23V193H98L134,95c0,0,56,-50,146,-50c0,0,144,0,144,123c0,0,0,91,-114,130l-66,21c0,0,-75,25,-110,50c0,0,-34,26,-53,63c0,0,-18,36,-18,89c0,0,0,92,63,145c0,0,63,54,170,54c0,0,77,0,193,-23V544H454l-32,81c0,0,-39,35,-124,35c0,0,-61,0,-92,-30c0,0,-32,-30,-32,-80c0,0,0,-43,29,-72c0,0,28,-29,86,-48c0,0,110,-38,144,-55c0,0,33,-17,57,-42c0,0,23,-25,36,-57c0,0,13,-32,13,-79c0,0,0,-104,-66,-158c0,0,-66,-53,-195,-53Z" 
id="f3_2f"
transform="scale(0.001,-0.001)" />

<path d="M359,-270c0,0,124,0,192,46c0,0,67,47,67,129c0,0,0,43,-26,67c0,0,-26,24,-79,24H242c0,0,-32,-27,-51,-69c0,0,-20,-41,-20,-77c0,0,0,-64,46,-92c0,0,46,-28,142,-28Zm11,561c0,0,81,0,115,47c0,0,34,47,34,141c0,0,0,100,-35,142c0,0,-35,42,-113,42c0,0,-78,0,-114,-43c0,0,-37,-42,-37,-141c0,0,0,-98,36,-143c0,0,36,-45,114,-45ZM359,-329c0,0,-143,0,-218,44c0,0,-75,43,-75,125c0,0,0,39,27,78c0,0,26,38,98,89c0,0,-43,14,-72,48c0,0,-29,35,-29,74L208,262c0,0,-118,55,-118,217c0,0,0,115,73,178c0,0,73,63,211,63c0,0,28,0,71,-6c0,0,44,-6,67,-13l165,83l26,-32L599,644c0,0,50,-56,50,-165c0,0,0,-120,-72,-182c0,0,-73,-62,-208,-62c0,0,-62,0,-114,11L208,148c0,0,2,-13,29,-24c0,0,27,-12,67,-12H512c0,0,113,0,168,-49c0,0,55,-49,55,-134c0,0,0,-79,-44,-137c0,0,-43,-58,-128,-90c0,0,-84,-31,-204,-31Z" 
id="f3_23"
transform="scale(0.001,-0.001)" />

<path d="M431,0V33L535,52V499c0,0,0,62,-32,96c0,0,-32,33,-95,33c0,0,-66,0,-163,-22V52L350,33V0H32V33l89,19V649L32,668v33H237l6,-57c0,0,56,32,119,54c0,0,62,22,110,22c0,0,52,0,95,-20c0,0,44,-19,66,-62c0,0,57,32,134,57c0,0,77,25,128,25c0,0,179,0,179,-207V52l90,-19V0H846V33L950,52V499c0,0,0,129,-119,129c0,0,-19,0,-45,-3c0,0,-26,-3,-52,-7c0,0,-25,-4,-49,-8c0,0,-23,-5,-39,-8c0,0,13,-41,13,-89V52L764,33V0Z" 
id="f3_29"
transform="scale(0.001,-0.001)" />

<path d="M439,0V33l93,19V500c0,0,0,62,-30,97c0,0,-31,36,-94,36c0,0,-67,0,-165,-22V52L338,33V0H35V33l84,19V649L35,668v33H235l7,-57c0,0,57,33,122,54c0,0,65,22,108,22c0,0,91,0,137,-53c0,0,47,-53,47,-154V52L741,33V0Z" 
id="f3_2a"
transform="scale(0.001,-0.001)" />

<path d="M249,-14c0,0,-71,0,-107,42c0,0,-35,42,-35,119V639H15v33l93,29l76,159h47V701H391V639H231V161c0,0,0,-48,22,-73c0,0,22,-24,57,-24c0,0,44,0,106,12V26C416,26,389,8,340,-2c0,0,-49,-12,-91,-12Z" 
id="f3_2g"
transform="scale(0.001,-0.001)" />

<path d="M377,45c0,0,99,0,147,73c0,0,47,73,47,237c0,0,0,161,-47,233c0,0,-47,72,-147,72c0,0,-97,0,-141,-69c0,0,-44,-69,-44,-236c0,0,0,-169,45,-240c0,0,44,-70,140,-70Zm0,-59c0,0,-158,0,-238,94c0,0,-81,95,-81,274c0,0,0,178,81,272c0,0,80,94,244,94c0,0,160,0,241,-92c0,0,82,-92,82,-274c0,0,0,-368,-329,-368Z" 
id="f3_2b"
transform="scale(0.001,-0.001)" />

<path d="M64,0V34L168,59V639H47v36l121,29v49c0,0,0,155,61,239c0,0,62,84,173,84c0,0,58,0,107,-15V908H472l-33,92c0,0,-26,16,-62,16c0,0,-47,0,-66,-42c0,0,-19,-42,-19,-157V701H478V639H292V59L443,34V0Z" 
id="f3_22"
transform="scale(0.001,-0.001)" />

<path d="M31,0V33l88,19V649L31,668v33H235l7,-87c0,0,44,37,121,71c0,0,76,35,121,35h11V530H463l-43,82c0,0,-37,0,-88,-10c0,0,-52,-10,-89,-26V52L363,33V0Z" 
id="f3_2e"
transform="scale(0.001,-0.001)" />

<path d="M32,0V33L151,52V649L52,668v33H275V52L395,33V0ZM201,850c0,0,-32,0,-56,24c0,0,-24,24,-24,56c0,0,0,34,24,58c0,0,24,24,56,24c0,0,34,0,58,-24c0,0,24,-24,24,-58c0,0,0,-32,-24,-56c0,0,-24,-24,-58,-24Z" 
id="f3_25"
transform="scale(0.001,-0.001)" />

<path d="M399,-14c0,0,-341,0,-341,370c0,0,0,175,87,269c0,0,87,95,249,95c0,0,101,0,220,-23V501H573L541,625c0,0,-62,35,-149,35c0,0,-200,0,-200,-304c0,0,0,-158,61,-225c0,0,61,-67,189,-67c0,0,109,0,189,24V43C631,43,595,16,530,1c0,0,-64,-15,-131,-15Z" 
id="f3_1z"
transform="scale(0.001,-0.001)" />

<path d="M31,0V33L150,52v956L31,1026v34H274V52L394,33V0Z" 
id="f3_28"
transform="scale(0.001,-0.001)" />

<path d="M383,64c0,0,85,0,152,28V645c0,0,-67,13,-152,13c0,0,-194,0,-194,-314c0,0,0,-141,48,-211c0,0,48,-69,146,-69ZM342,-14c0,0,-287,0,-287,358c0,0,0,184,82,280c0,0,81,96,239,96c0,0,81,0,163,-18c0,0,-4,25,-4,124v182l-118,18v34H659V52L745,33V0H548l-9,52c0,0,-84,-66,-197,-66Z" 
id="f3_20"
transform="scale(0.001,-0.001)" />

<path d="M44,0V40L172,60V941L44,960v40H794V760H745L721,922c0,0,-83,11,-241,11H316V543H586l23,119h48V354H609L586,475H316V67H513c0,0,193,0,252,12l43,185h49L843,0Z" 
id="f3_15"
transform="scale(0.001,-0.001)" />

<path d="M58,-234v58c0,0,131,42,131,125c0,0,0,15,-11,27c0,0,-11,12,-38,25C140,1,89,27,89,75c0,0,0,40,25,61c0,0,26,21,65,21c0,0,48,0,77,-34c0,0,30,-34,30,-86c0,0,0,-101,-60,-170c0,0,-59,-69,-168,-101Z" 
id="f3_g"
transform="scale(0.001,-0.001)" />

<path d="M536,63c0,0,127,0,191,54c0,0,63,54,63,168c0,0,0,105,-70,154c0,0,-70,49,-225,49H316V67c0,0,103,-4,220,-4ZM480,555c0,0,121,0,178,48c0,0,57,48,57,155c0,0,0,91,-58,133c0,0,-57,42,-186,42H316V555ZM554,-4L235,0H44V40L172,60V941L44,960v40H501c0,0,191,0,279,-56c0,0,88,-56,88,-179c0,0,0,-88,-55,-149c0,0,-54,-62,-151,-83c0,0,135,-14,209,-79c0,0,73,-65,73,-166c0,0,0,-144,-99,-219C845,69,745,-4,554,-4Z" 
id="f3_12"
transform="scale(0.001,-0.001)" />

<path d="M577,-14c0,0,-243,0,-379,132C198,118,63,250,63,488c0,0,0,258,130,391c0,0,131,132,387,132c0,0,156,0,335,-38l5,-218H871L848,884c0,0,-52,32,-121,50c0,0,-69,17,-141,17c0,0,-191,0,-279,-112c0,0,-88,-113,-88,-349c0,0,0,-217,92,-332c0,0,92,-115,268,-115c0,0,85,0,160,20c0,0,76,21,120,55l27,149h49L930,32c0,0,-164,-46,-353,-46Z" 
id="f3_13"
transform="scale(0.001,-0.001)" />

<path d="M211,-20c0,0,-39,0,-64,25c0,0,-26,27,-26,64c0,0,0,38,26,64c0,0,26,26,64,26c0,0,37,0,64,-25c0,0,26,-26,26,-65c0,0,0,-37,-26,-64c0,0,-26,-25,-64,-25Zm0,556c0,0,-38,0,-64,26c0,0,-26,26,-26,64c0,0,0,37,26,64c0,0,25,27,64,27c0,0,38,0,64,-27c0,0,26,-27,26,-64c0,0,0,-38,-26,-64c0,0,-27,-26,-64,-26Z" 
id="f3_u"
transform="scale(0.001,-0.001)" />

<path d="M55,0V40L184,60V941L55,960v40H455V960L327,941V60L455,40V0Z" 
id="f3_19"
transform="scale(0.001,-0.001)" />

<path d="M41,0V34L426,641H261c0,0,-42,0,-80,-7c0,0,-39,-7,-54,-19L104,515H69V701H586V665L201,60H407c0,0,42,0,89,10c0,0,47,10,66,25l39,147h35L617,0Z" 
id="f3_2m"
transform="scale(0.001,-0.001)" />

<path d="M360,-14L72,649L0,668v33H327V668L216,648L420,164L615,649L504,668v33H764V668L697,652L416,-14Z" 
id="f3_2i"
transform="scale(0.001,-0.001)" />

<path d="M148,-329c0,0,-58,0,-114,13v151H69l24,-71c0,0,23,-17,64,-17c0,0,39,0,72,22c0,0,33,23,60,67c0,0,27,44,68,157L90,649L19,668v33H344V668L233,648L423,158L606,649L497,668v33H758V668L685,652L411,-43c0,0,-48,-124,-84,-177c0,0,-36,-54,-79,-82c0,0,-44,-27,-100,-27Z" 
id="f3_2l"
transform="scale(0.001,-0.001)" />

<path d="M382,45c0,0,188,0,188,314c0,0,0,143,-47,213c0,0,-46,69,-141,69c0,0,-87,0,-146,-24V58c0,0,67,-13,146,-13ZM25,-325v35l88,18V649L34,668v33H231l1,-41c0,0,31,27,84,43c0,0,53,17,107,17c0,0,134,0,208,-94c0,0,73,-93,73,-267c0,0,0,-178,-80,-276c0,0,-80,-97,-232,-97c0,0,-84,0,-160,16c0,0,4,-53,4,-84V-272l123,-18v-35Z" 
id="f3_2c"
transform="scale(0.001,-0.001)" />

<path d="M191,-20c0,0,-39,0,-65,25c0,0,-25,27,-25,64c0,0,0,38,26,64c0,0,26,26,64,26c0,0,38,0,64,-26c0,0,26,-26,26,-64c0,0,0,-37,-25,-64c0,0,-26,-25,-65,-25Z" 
id="f3_i"
transform="scale(0.001,-0.001)" />

<path d="M289,-14c0,0,-179,0,-179,205V649L20,668v33H233V200c0,0,0,-128,120,-128c0,0,92,0,173,23V649L420,668v33H649V52L738,33V0H533l-6,57C527,57,474,28,405,7c0,0,-69,-21,-116,-21Z" 
id="f3_2h"
transform="scale(0.001,-0.001)" />

<path d="M376,50c0,0,103,0,149,80c0,0,46,81,46,240c0,0,0,137,-47,204c0,0,-48,67,-148,67c0,0,-44,0,-87,-7c0,0,-44,-8,-63,-17V62c0,0,63,-12,150,-12Zm3,-64c0,0,-64,0,-141,14c0,0,-78,14,-136,37v971L0,1026v34H226V809c0,0,0,-40,-4,-148c0,0,74,59,188,59c0,0,143,0,219,-87c0,0,77,-87,77,-263c0,0,0,-189,-84,-287c0,0,-84,-97,-243,-97Z" 
id="f3_1y"
transform="scale(0.001,-0.001)" />

<path d="M64,-325c0,0,-46,0,-107,14v148H-8l19,-81c0,0,25,-21,62,-21c0,0,44,0,67,47c0,0,22,47,22,152V649L57,668v33H286V-28c0,0,0,-146,-57,-221c0,0,-56,-76,-165,-76ZM213,850c0,0,-34,0,-58,24c0,0,-24,24,-24,56c0,0,0,34,24,58c0,0,24,24,58,24c0,0,32,0,56,-24c0,0,24,-24,24,-58c0,0,0,-32,-24,-56c0,0,-24,-24,-56,-24Z" 
id="f3_26"
transform="scale(0.001,-0.001)" />

<path d="M327,-14L84,649L1,668v33H335V668L219,648L385,174L554,632h63L786,171L944,649L830,668v33h267V668l-78,-16L784,-14H726L553,448L382,-14Z" 
id="f3_2j"
transform="scale(0.001,-0.001)" />

<path d="M681,416L504,902L333,416ZM669,0V40L803,60L704,348H310L210,60L344,40V0H15V40L128,60l341,949H611L965,60L1092,40V0Z" 
id="f3_11"
transform="scale(0.001,-0.001)" />

<path d="M868,0L251,900V60L385,40V0H44V40L172,60V941L44,960v40H347L862,259V941L727,960v40h341V960L940,941V0Z" 
id="f3_1e"
transform="scale(0.001,-0.001)" />

<path d="M529,65c0,0,183,0,270,108c0,0,87,108,87,334c0,0,0,210,-113,318c0,0,-113,108,-322,108H316V71c0,0,90,-6,213,-6Zm0,-67L172,0H44V40L172,60V941L44,960v40H498c0,0,277,0,411,-123c0,0,133,-124,133,-371c0,0,0,-251,-129,-380C913,126,785,-2,529,-2Z" 
id="f3_14"
transform="scale(0.001,-0.001)" />

<path d="M322,0V40L481,60V389L130,941L17,960v40H440V960L306,941L593,480L866,941L739,960v40h326V960L955,941L625,394V60L784,40V0Z" 
id="f3_1p"
transform="scale(0.001,-0.001)" />

<path d="M76,316v76H787V316Zm0,306v76H787V622Z" 
id="f3_x"
transform="scale(0.001,-0.001)" />

<path d="M134,0V40L339,60V876L137,804v39l292,166h39V60L672,40V0Z" 
id="f3_l"
transform="scale(0.001,-0.001)" />

<path d="M64,0V141c0,0,64,68,119,123c0,0,119,118,174,185c0,0,56,68,81,140c0,0,26,72,26,165c0,0,0,81,-40,131c0,0,-39,50,-105,50c0,0,-46,0,-74,-10c0,0,-27,-10,-50,-29L163,751H98V979c0,0,59,13,116,23c0,0,58,9,125,9c0,0,165,0,252,-68c0,0,88,-68,88,-193c0,0,0,-78,-26,-142c0,0,-26,-64,-83,-124c0,0,-56,-61,-224,-197c0,0,-64,-52,-139,-119H698V0Z" 
id="f2_m"
transform="scale(0.001,-0.001)" />

<path d="M379,60c0,0,55,0,82,103c0,0,26,104,26,342c0,0,0,233,-26,335c0,0,-26,102,-82,102c0,0,-55,0,-79,-99c0,0,-23,-99,-23,-338c0,0,0,-244,24,-345c0,0,24,-100,78,-100Zm-2,-74c0,0,-158,0,-238,132c0,0,-81,133,-81,386c0,0,0,249,81,380c0,0,80,132,244,132c0,0,159,0,241,-130c0,0,82,-130,82,-382c0,0,0,-518,-329,-518Z" 
id="f2_k"
transform="scale(0.001,-0.001)" />

<path d="M191,-20c0,0,-51,0,-88,34c0,0,-36,36,-36,88c0,0,0,52,36,88c0,0,36,36,88,36c0,0,51,0,88,-36c0,0,36,-36,36,-88c0,0,0,-51,-36,-87c0,0,-36,-35,-88,-35Z" 
id="f2_i"
transform="scale(0.001,-0.001)" />

<path d="M420,-22L89,941L1,960v40H383V960L236,941L474,236L744,930h33L1037,236l227,705l-156,19v40h331V960l-87,-19L1025,-22H985L726,666L460,-22Z" 
id="f3_1n"
transform="scale(0.001,-0.001)" />

<path d="M306,-20c0,0,-39,0,-65,25c0,0,-25,27,-25,64c0,0,0,38,26,64c0,0,26,26,64,26c0,0,37,0,63,-25c0,0,26,-26,26,-65c0,0,0,-37,-25,-64c0,0,-26,-25,-64,-25ZM269,261L249,510l107,22c0,0,64,13,93,65c0,0,29,52,29,152c0,0,0,109,-39,154c0,0,-40,45,-140,45c0,0,-83,0,-145,-36L128,789H79V979c0,0,118,32,220,32c0,0,316,0,316,-253c0,0,0,-121,-60,-195c0,0,-60,-74,-175,-98l-42,-9L328,261Z" 
id="f3_z"
transform="scale(0.001,-0.001)" />

<path d="M577,-14c0,0,-243,0,-379,131C198,117,63,248,63,488c0,0,0,263,131,393c0,0,132,130,386,130c0,0,182,0,352,-45V751H882L862,875c0,0,-52,37,-124,57c0,0,-72,19,-152,19c0,0,-191,0,-279,-113c0,0,-88,-114,-88,-348c0,0,0,-220,91,-333c0,0,91,-114,269,-114c0,0,63,0,131,15c0,0,69,15,105,36V377L686,397v40h370V397L958,377V52C958,52,871,24,778,5c0,0,-93,-19,-201,-19Z" 
id="f3_17"
transform="scale(0.001,-0.001)" />


</defs>
</svg>