<?xml version="1.0" encoding="UTF-8" standalone="no"?>
<!DOCTYPE svg PUBLIC "-//W3C//DTD SVG 1.1//EN"
"http://www.w3.org/Graphics/SVG/1.1/DTD/svg11.dtd">
<svg viewBox="0 0 909 1286" version="1.1" xmlns="http://www.w3.org/2000/svg" xmlns:xlink="http://www.w3.org/1999/xlink">
<defs>
<clipPath id="c0_3"><path d="M321.6,709.3V686.9h18.7v22.4Z" /></clipPath>
<clipPath id="c1_3"><path d="M321.6,749.6V727.2h18.7v22.4Z" /></clipPath>
<clipPath id="c2_3"><path d="M321.6,789.6V767.2h18.7v22.4Z" /></clipPath>
<clipPath id="c3_3"><path d="M320.8,829.5V807.2h17.3v22.3Z" /></clipPath>
<style type="text/css"><![CDATA[
.g0_3{
fill: none;
stroke: #000000;
stroke-width: 0.90444446;
stroke-linecap: round;
stroke-linejoin: round;
}
.g1_3{
fill: none;
stroke: #000000;
stroke-width: 0.90138894;
stroke-linecap: round;
stroke-linejoin: round;
}
.g2_3{
fill: none;
stroke: #000000;
stroke-width: 0.9059723;
stroke-linecap: round;
stroke-linejoin: round;
}
]]></style>
</defs>
<g fill="#000000" >
<use xlink:href="#f0_c" transform="matrix(12,0,0,12,117,102.4)" />
<use xlink:href="#f0_1y" transform="matrix(12,0,0,12,122.9,102.4)" />
<use xlink:href="#f0_d" transform="matrix(12,0,0,12,131.3,102.4)" />
<use xlink:href="#f0_1n" transform="matrix(12,0,0,12,140.9,102.4)" />
<use xlink:href="#f0_24" transform="matrix(12,0,0,12,157.4,102.4)" />
<use xlink:href="#f0_1x" transform="matrix(12,0,0,12,165.8,102.4)" />
<use xlink:href="#f0_2g" transform="matrix(12,0,0,12,173.5,102.4)" />
<use xlink:href="#f0_20" transform="matrix(12,0,0,12,181.6,102.4)" />
<use xlink:href="#f0_2b" transform="matrix(12,0,0,12,190.4,102.4)" />
<use xlink:href="#f0_2l" transform="matrix(12,0,0,12,203.3,102.4)" />
<use xlink:href="#f0_2b" transform="matrix(12,0,0,12,211.4,102.4)" />
<use xlink:href="#f0_2h" transform="matrix(12,0,0,12,220.5,102.4)" />
<use xlink:href="#f0_2h" transform="matrix(12,0,0,12,232.7,102.4)" />
<use xlink:href="#f0_2a" transform="matrix(12,0,0,12,241.5,102.4)" />
<use xlink:href="#f0_20" transform="matrix(12,0,0,12,249.9,102.4)" />
<use xlink:href="#f0_21" transform="matrix(12,0,0,12,259.1,102.4)" />
<use xlink:href="#f0_2e" transform="matrix(12,0,0,12,266.8,102.4)" />
<use xlink:href="#f0_2f" transform="matrix(12,0,0,12,272.7,102.4)" />
<use xlink:href="#f0_2g" transform="matrix(12,0,0,12,279.3,102.4)" />
<use xlink:href="#f0_1x" transform="matrix(12,0,0,12,284.5,102.4)" />
<use xlink:href="#f0_2a" transform="matrix(12,0,0,12,292.2,102.4)" />
<use xlink:href="#f0_20" transform="matrix(12,0,0,12,300.6,102.4)" />
<use xlink:href="#f0_1y" transform="matrix(12,0,0,12,313.1,102.4)" />
<use xlink:href="#f0_2l" transform="matrix(12,0,0,12,321.6,102.4)" />
<use xlink:href="#f0_2g" transform="matrix(12,0,0,12,332.6,102.4)" />
<use xlink:href="#f0_24" transform="matrix(12,0,0,12,337.7,102.4)" />
<use xlink:href="#f0_21" transform="matrix(12,0,0,12,346.2,102.4)" />
<use xlink:href="#f0_2f" transform="matrix(12,0,0,12,357.6,102.4)" />
<use xlink:href="#f0_2g" transform="matrix(12,0,0,12,364.2,102.4)" />
<use xlink:href="#f0_1x" transform="matrix(12,0,0,12,369.3,102.4)" />
<use xlink:href="#f0_2g" transform="matrix(12,0,0,12,377,102.4)" />
<use xlink:href="#f0_21" transform="matrix(12,0,0,12,382.2,102.4)" />
<use xlink:href="#f0_29" transform="matrix(12,0,0,12,389.9,102.4)" />
<use xlink:href="#f0_21" transform="matrix(12,0,0,12,403.5,102.4)" />
<use xlink:href="#f0_2a" transform="matrix(12,0,0,12,411.2,102.4)" />
<use xlink:href="#f0_2g" transform="matrix(12,0,0,12,419.6,102.4)" />
<use xlink:href="#f0_g" transform="matrix(12,0,0,12,424.8,102.4)" />
<use xlink:href="#f0_6" transform="matrix(12,0,0,12,432.5,102.4)" />
<use xlink:href="#f0_15" transform="matrix(12,0,0,12,439.5,102.4)" />
<use xlink:href="#f0_28" transform="matrix(12,0,0,12,450.5,102.4)" />
<use xlink:href="#f0_21" transform="matrix(12,0,0,12,454.9,102.4)" />
<use xlink:href="#f0_1z" transform="matrix(12,0,0,12,462.6,102.4)" />
<use xlink:href="#f0_2g" transform="matrix(12,0,0,12,470.4,102.4)" />
<use xlink:href="#f0_2e" transform="matrix(12,0,0,12,475.5,102.4)" />
<use xlink:href="#f0_2b" transform="matrix(12,0,0,12,481.4,102.4)" />
<use xlink:href="#f0_29" transform="matrix(12,0,0,12,490.5,102.4)" />
<use xlink:href="#f0_1x" transform="matrix(12,0,0,12,503.8,102.4)" />
<use xlink:href="#f0_23" transform="matrix(12,0,0,12,511.8,102.4)" />
<use xlink:href="#f0_2a" transform="matrix(12,0,0,12,520.7,102.4)" />
<use xlink:href="#f0_21" transform="matrix(12,0,0,12,529.1,102.4)" />
<use xlink:href="#f0_2g" transform="matrix(12,0,0,12,536.8,102.4)" />
<use xlink:href="#f0_25" transform="matrix(12,0,0,12,542,102.4)" />
<use xlink:href="#f0_1z" transform="matrix(12,0,0,12,546,102.4)" />
<use xlink:href="#f0_2j" transform="matrix(12,0,0,12,557.4,102.4)" />
<use xlink:href="#f0_1x" transform="matrix(12,0,0,12,570.3,102.4)" />
<use xlink:href="#f0_2i" transform="matrix(12,0,0,12,578,102.4)" />
<use xlink:href="#f0_21" transform="matrix(12,0,0,12,586.4,102.4)" />
<use xlink:href="#f0_2f" transform="matrix(12,0,0,12,594.1,102.4)" />
<use xlink:href="#f0_2g" transform="matrix(12,0,0,12,603.7,102.4)" />
<use xlink:href="#f0_2e" transform="matrix(12,0,0,12,609.2,102.4)" />
<use xlink:href="#f0_1x" transform="matrix(12,0,0,12,615.1,102.4)" />
<use xlink:href="#f0_2a" transform="matrix(12,0,0,12,622.8,102.4)" />
<use xlink:href="#f0_2f" transform="matrix(12,0,0,12,631.3,102.4)" />
<use xlink:href="#f0_2c" transform="matrix(12,0,0,12,637.9,102.4)" />
<use xlink:href="#f0_2b" transform="matrix(12,0,0,12,646.7,102.4)" />
<use xlink:href="#f0_2e" transform="matrix(12,0,0,12,655.9,102.4)" />
<use xlink:href="#f0_2g" transform="matrix(12,0,0,12,661.7,102.4)" />
<use xlink:href="#f0_29" transform="matrix(12,0,0,12,670.6,102.4)" />
<use xlink:href="#f0_2b" transform="matrix(12,0,0,12,683.8,102.4)" />
<use xlink:href="#f0_29" transform="matrix(12,0,0,12,692.9,102.4)" />
<use xlink:href="#f0_21" transform="matrix(12,0,0,12,706.2,102.4)" />
<use xlink:href="#f0_2a" transform="matrix(12,0,0,12,713.9,102.4)" />
<use xlink:href="#f0_2g" transform="matrix(12,0,0,12,722.3,102.4)" />
<use xlink:href="#f0_2h" transform="matrix(12,0,0,12,727.8,102.4)" />
<use xlink:href="#f0_29" transform="matrix(12,0,0,12,736.6,102.4)" />
<use xlink:href="#f0_6" transform="matrix(12,0,0,12,749.9,102.4)" />
<use xlink:href="#f0_z" transform="matrix(12,0,0,12,756.8,102.4)" />
<use xlink:href="#f0_11" transform="matrix(12,0,0,12,64.9,131.4)" />
<use xlink:href="#f0_2a" transform="matrix(12,0,0,12,77.4,131.4)" />
<use xlink:href="#f0_2f" transform="matrix(12,0,0,12,85.8,131.4)" />
<use xlink:href="#f0_i" transform="matrix(12,0,0,12,92.4,131.4)" />
<use xlink:href="#f0_1n" transform="matrix(12,0,0,12,155.8,131.4)" />
<use xlink:href="#f0_24" transform="matrix(12,0,0,12,172.3,131.4)" />
<use xlink:href="#f0_21" transform="matrix(12,0,0,12,180.8,131.4)" />
<use xlink:href="#f0_2a" transform="matrix(12,0,0,12,188.9,131.4)" />
<use xlink:href="#f0_21" transform="matrix(12,0,0,12,200.6,131.4)" />
<use xlink:href="#f0_28" transform="matrix(12,0,0,12,208.4,131.4)" />
<use xlink:href="#f0_21" transform="matrix(12,0,0,12,212.4,131.4)" />
<use xlink:href="#f0_1z" transform="matrix(12,0,0,12,220.5,131.4)" />
<use xlink:href="#f0_2g" transform="matrix(12,0,0,12,228.2,131.4)" />
<use xlink:href="#f0_2e" transform="matrix(12,0,0,12,233.3,131.4)" />
<use xlink:href="#f0_2b" transform="matrix(12,0,0,12,239.2,131.4)" />
<use xlink:href="#f0_29" transform="matrix(12,0,0,12,248.4,131.4)" />
<use xlink:href="#f0_1x" transform="matrix(12,0,0,12,262,131.4)" />
<use xlink:href="#f0_23" transform="matrix(12,0,0,12,269.7,131.4)" />
<use xlink:href="#f0_2a" transform="matrix(12,0,0,12,278.5,131.4)" />
<use xlink:href="#f0_21" transform="matrix(12,0,0,12,287,131.4)" />
<use xlink:href="#f0_2g" transform="matrix(12,0,0,12,294.7,131.4)" />
<use xlink:href="#f0_25" transform="matrix(12,0,0,12,299.8,131.4)" />
<use xlink:href="#f0_1z" transform="matrix(12,0,0,12,304.2,131.4)" />
<use xlink:href="#f0_2j" transform="matrix(12,0,0,12,314.9,131.4)" />
<use xlink:href="#f0_1x" transform="matrix(12,0,0,12,327.7,131.4)" />
<use xlink:href="#f0_2i" transform="matrix(12,0,0,12,335.5,131.4)" />
<use xlink:href="#f0_21" transform="matrix(12,0,0,12,344.3,131.4)" />
<use xlink:href="#f0_2f" transform="matrix(12,0,0,12,352,131.4)" />
<use xlink:href="#f0_24" transform="matrix(12,0,0,12,361.9,131.4)" />
<use xlink:href="#f0_25" transform="matrix(12,0,0,12,370.4,131.4)" />
<use xlink:href="#f0_2g" transform="matrix(12,0,0,12,374.8,131.4)" />
<use xlink:href="#f0_1y" transform="matrix(12,0,0,12,383.2,131.4)" />
<use xlink:href="#f0_2b" transform="matrix(12,0,0,12,391.7,131.4)" />
<use xlink:href="#f0_20" transform="matrix(12,0,0,12,400.9,131.4)" />
<use xlink:href="#f0_2l" transform="matrix(12,0,0,12,410,131.4)" />
<use xlink:href="#f0_2g" transform="matrix(12,0,0,12,421.4,131.4)" />
<use xlink:href="#f0_24" transform="matrix(12,0,0,12,426.6,131.4)" />
<use xlink:href="#f0_21" transform="matrix(12,0,0,12,435,131.4)" />
<use xlink:href="#f0_29" transform="matrix(12,0,0,12,446,131.4)" />
<use xlink:href="#f0_1x" transform="matrix(12,0,0,12,459.3,131.4)" />
<use xlink:href="#f0_2f" transform="matrix(12,0,0,12,467,131.4)" />
<use xlink:href="#f0_2f" transform="matrix(12,0,0,12,473.6,131.4)" />
<use xlink:href="#f0_25" transform="matrix(12,0,0,12,483.9,131.4)" />
<use xlink:href="#f0_2f" transform="matrix(12,0,0,12,487.9,131.4)" />
<use xlink:href="#f0_28" transform="matrix(12,0,0,12,497.9,131.4)" />
<use xlink:href="#f0_2b" transform="matrix(12,0,0,12,501.9,131.4)" />
<use xlink:href="#f0_2f" transform="matrix(12,0,0,12,511.5,131.4)" />
<use xlink:href="#f0_2g" transform="matrix(12,0,0,12,518.1,131.4)" />
<use xlink:href="#f0_1y" transform="matrix(12,0,0,12,526.5,131.4)" />
<use xlink:href="#f0_2l" transform="matrix(12,0,0,12,535,131.4)" />
<use xlink:href="#f0_2g" transform="matrix(12,0,0,12,546.4,131.4)" />
<use xlink:href="#f0_24" transform="matrix(12,0,0,12,551.5,131.4)" />
<use xlink:href="#f0_21" transform="matrix(12,0,0,12,560,131.4)" />
<use xlink:href="#f0_29" transform="matrix(12,0,0,12,571.4,131.4)" />
<use xlink:href="#f0_2b" transform="matrix(12,0,0,12,584.6,131.4)" />
<use xlink:href="#f0_29" transform="matrix(12,0,0,12,593.7,131.4)" />
<use xlink:href="#f0_21" transform="matrix(12,0,0,12,607,131.4)" />
<use xlink:href="#f0_2a" transform="matrix(12,0,0,12,614.7,131.4)" />
<use xlink:href="#f0_2g" transform="matrix(12,0,0,12,623.5,131.4)" />
<use xlink:href="#f0_2h" transform="matrix(12,0,0,12,628.6,131.4)" />
<use xlink:href="#f0_29" transform="matrix(12,0,0,12,637.4,131.4)" />
<use xlink:href="#f0_25" transform="matrix(12,0,0,12,654,131.4)" />
<use xlink:href="#f0_2f" transform="matrix(12,0,0,12,658.4,131.4)" />
<use xlink:href="#f0_1z" transform="matrix(12,0,0,12,668.3,131.4)" />
<use xlink:href="#f0_2b" transform="matrix(12,0,0,12,676,131.4)" />
<use xlink:href="#f0_2a" transform="matrix(12,0,0,12,685.2,131.4)" />
<use xlink:href="#f0_2f" transform="matrix(12,0,0,12,694,131.4)" />
<use xlink:href="#f0_21" transform="matrix(12,0,0,12,700.6,131.4)" />
<use xlink:href="#f0_2e" transform="matrix(12,0,0,12,708.4,131.4)" />
<use xlink:href="#f0_2i" transform="matrix(12,0,0,12,714.2,131.4)" />
<use xlink:href="#f0_21" transform="matrix(12,0,0,12,722.7,131.4)" />
<use xlink:href="#f0_20" transform="matrix(12,0,0,12,730.8,131.4)" />
<use xlink:href="#f0_i" transform="matrix(12,0,0,12,739.6,131.4)" />
<use xlink:href="#f0_25" transform="matrix(12,0,0,12,747,131.4)" />
<use xlink:href="#f0_i" transform="matrix(12,0,0,12,751,131.4)" />
<use xlink:href="#f0_21" transform="matrix(12,0,0,12,755.4,131.4)" />
<use xlink:href="#f0_i" transform="matrix(12,0,0,12,763.5,131.4)" />
<use xlink:href="#f0_g" transform="matrix(12,0,0,12,767.9,131.4)" />
<use xlink:href="#f0_2g" transform="matrix(12,0,0,12,775.7,131.4)" />
<use xlink:href="#f0_2e" transform="matrix(12,0,0,12,780.8,131.4)" />
<use xlink:href="#f0_1x" transform="matrix(12,0,0,12,787,131.4)" />
<use xlink:href="#f0_2a" transform="matrix(12,0,0,12,794.7,131.4)" />
<use xlink:href="#f0_2f" transform="matrix(12,0,0,12,803.2,131.4)" />
<use xlink:href="#f0_22" transform="matrix(12,0,0,12,809.8,131.4)" />
<use xlink:href="#f0_21" transform="matrix(12,0,0,12,815,131.4)" />
<use xlink:href="#f0_2e" transform="matrix(12,0,0,12,823.1,131.4)" />
<use xlink:href="#f0_21" transform="matrix(12,0,0,12,828.9,131.4)" />
<use xlink:href="#f0_20" transform="matrix(12,0,0,12,836.7,131.4)" />
<use xlink:href="#f0_22" transform="matrix(12,0,0,12,155.8,155.6)" />
<use xlink:href="#f0_2e" transform="matrix(12,0,0,12,161.3,155.6)" />
<use xlink:href="#f0_2b" transform="matrix(12,0,0,12,167.2,155.6)" />
<use xlink:href="#f0_29" transform="matrix(12,0,0,12,176.8,155.6)" />
<use xlink:href="#f0_15" transform="matrix(12,0,0,12,193.7,155.6)" />
<use xlink:href="#f0_1d" transform="matrix(12,0,0,12,205,155.6)" />
<use xlink:href="#f0_1n" transform="matrix(12,0,0,12,221.2,155.6)" />
<use xlink:href="#f0_2g" transform="matrix(12,0,0,12,240.6,155.6)" />
<use xlink:href="#f0_2b" transform="matrix(12,0,0,12,246.1,155.6)" />
<use xlink:href="#f0_1y" transform="matrix(12,0,0,12,259,155.6)" />
<use xlink:href="#f0_2b" transform="matrix(12,0,0,12,267.8,155.6)" />
<use xlink:href="#f0_20" transform="matrix(12,0,0,12,277.3,155.6)" />
<use xlink:href="#f0_2l" transform="matrix(12,0,0,12,286.2,155.6)" />
<use xlink:href="#f0_i" transform="matrix(12,0,0,12,293.5,155.6)" />
<use xlink:href="#f1_1s" transform="matrix(11.8,0,0,11.8,155.8,186.8)" />
<use xlink:href="#f0_15" transform="matrix(12,0,0,12,176.4,184.6)" />
<use xlink:href="#f0_1d" transform="matrix(12,0,0,12,187.6,184.6)" />
<use xlink:href="#f0_1n" transform="matrix(12,0,0,12,203.9,184.6)" />
<use xlink:href="#f0_2g" transform="matrix(12,0,0,12,223.3,184.6)" />
<use xlink:href="#f0_2e" transform="matrix(12,0,0,12,228.4,184.6)" />
<use xlink:href="#f0_1x" transform="matrix(12,0,0,12,234.5,184.6)" />
<use xlink:href="#f0_2a" transform="matrix(12,0,0,12,242.7,184.6)" />
<use xlink:href="#f0_2f" transform="matrix(12,0,0,12,251.8,184.6)" />
<use xlink:href="#f0_2c" transform="matrix(12,0,0,12,259,184.6)" />
<use xlink:href="#f0_2b" transform="matrix(12,0,0,12,268.1,184.6)" />
<use xlink:href="#f0_2e" transform="matrix(12,0,0,12,277.3,184.6)" />
<use xlink:href="#f0_2g" transform="matrix(12,0,0,12,283.4,184.6)" />
<use xlink:href="#f0_2f" transform="matrix(12,0,0,12,288.5,184.6)" />
<use xlink:href="#f0_29" transform="matrix(12,0,0,12,298.4,184.6)" />
<use xlink:href="#f0_2b" transform="matrix(12,0,0,12,312.7,184.6)" />
<use xlink:href="#f0_29" transform="matrix(12,0,0,12,321.9,184.6)" />
<use xlink:href="#f0_21" transform="matrix(12,0,0,12,336.1,184.6)" />
<use xlink:href="#f0_2a" transform="matrix(12,0,0,12,344.3,184.6)" />
<use xlink:href="#f0_2g" transform="matrix(12,0,0,12,353.4,184.6)" />
<use xlink:href="#f0_2h" transform="matrix(12,0,0,12,358.5,184.6)" />
<use xlink:href="#f0_29" transform="matrix(12,0,0,12,367.7,184.6)" />
<use xlink:href="#f0_i" transform="matrix(12,0,0,12,381.9,184.6)" />
<use xlink:href="#f0_t" transform="matrix(12,0,0,12,64.9,262.3)" />
<use xlink:href="#f0_i" transform="matrix(12,0,0,12,74.1,262.3)" />
<use xlink:href="#f0_19" transform="matrix(12,0,0,12,117,262.3)" />
<use xlink:href="#f0_22" transform="matrix(12,0,0,12,122.5,262.3)" />
<use xlink:href="#f0_28" transform="matrix(12,0,0,12,130.6,262.3)" />
<use xlink:href="#f0_25" transform="matrix(12,0,0,12,134.3,262.3)" />
<use xlink:href="#f0_23" transform="matrix(12,0,0,12,138,262.3)" />
<use xlink:href="#f0_24" transform="matrix(12,0,0,12,146.4,262.3)" />
<use xlink:href="#f0_2g" transform="matrix(12,0,0,12,154.5,262.3)" />
<use xlink:href="#f0_2b" transform="matrix(12,0,0,12,162.2,262.3)" />
<use xlink:href="#f0_22" transform="matrix(12,0,0,12,171,262.3)" />
<use xlink:href="#f0_2j" transform="matrix(12,0,0,12,179.1,262.3)" />
<use xlink:href="#f0_1x" transform="matrix(12,0,0,12,191.6,262.3)" />
<use xlink:href="#f0_2i" transform="matrix(12,0,0,12,199,262.3)" />
<use xlink:href="#f0_21" transform="matrix(12,0,0,12,207,262.3)" />
<use xlink:href="#f0_28" transform="matrix(12,0,0,12,214.4,262.3)" />
<use xlink:href="#f0_21" transform="matrix(12,0,0,12,218.4,262.3)" />
<use xlink:href="#f0_2a" transform="matrix(12,0,0,12,225.8,262.3)" />
<use xlink:href="#f0_23" transform="matrix(12,0,0,12,233.9,262.3)" />
<use xlink:href="#f0_2g" transform="matrix(12,0,0,12,242.3,262.3)" />
<use xlink:href="#f0_24" transform="matrix(12,0,0,12,247.1,262.3)" />
<use xlink:href="#f0_o" transform="matrix(12,0,0,12,258.5,262.3)" />
<use xlink:href="#f0_l" transform="matrix(12,0,0,12,267,262.3)" />
<use xlink:href="#f0_m" transform="matrix(12,0,0,12,275.4,262.3)" />
<use xlink:href="#f0_i" transform="matrix(12,0,0,12,284.2,262.3)" />
<use xlink:href="#f0_p" transform="matrix(12,0,0,12,288.3,262.3)" />
<use xlink:href="#f0_2a" transform="matrix(12,0,0,12,299.7,262.3)" />
<use xlink:href="#f0_29" transform="matrix(12,0,0,12,307.8,262.3)" />
<use xlink:href="#f0_25" transform="matrix(12,0,0,12,323.6,262.3)" />
<use xlink:href="#f0_2f" transform="matrix(12,0,0,12,327.2,262.3)" />
<use xlink:href="#f0_25" transform="matrix(12,0,0,12,336.4,262.3)" />
<use xlink:href="#f0_2a" transform="matrix(12,0,0,12,340.5,262.3)" />
<use xlink:href="#f0_1z" transform="matrix(12,0,0,12,348.6,262.3)" />
<use xlink:href="#f0_25" transform="matrix(12,0,0,12,355.9,262.3)" />
<use xlink:href="#f0_20" transform="matrix(12,0,0,12,359.6,262.3)" />
<use xlink:href="#f0_21" transform="matrix(12,0,0,12,368.4,262.3)" />
<use xlink:href="#f0_2a" transform="matrix(12,0,0,12,375.8,262.3)" />
<use xlink:href="#f0_2g" transform="matrix(12,0,0,12,383.9,262.3)" />
<use xlink:href="#f0_2b" transform="matrix(12,0,0,12,391.6,262.3)" />
<use xlink:href="#f0_2a" transform="matrix(12,0,0,12,400.8,262.3)" />
<use xlink:href="#f0_21" transform="matrix(12,0,0,12,411.8,262.3)" />
<use xlink:href="#f0_1x" transform="matrix(12,0,0,12,419.1,262.3)" />
<use xlink:href="#f0_1z" transform="matrix(12,0,0,12,426.5,262.3)" />
<use xlink:href="#f0_24" transform="matrix(12,0,0,12,434.2,262.3)" />
<use xlink:href="#f0_2b" transform="matrix(12,0,0,12,444.9,262.3)" />
<use xlink:href="#f0_22" transform="matrix(12,0,0,12,453.7,262.3)" />
<use xlink:href="#f0_2g" transform="matrix(12,0,0,12,461.8,262.3)" />
<use xlink:href="#f0_24" transform="matrix(12,0,0,12,466.6,262.3)" />
<use xlink:href="#f0_21" transform="matrix(12,0,0,12,474.7,262.3)" />
<use xlink:href="#f0_29" transform="matrix(12,0,0,12,485.3,262.3)" />
<use xlink:href="#f0_21" transform="matrix(12,0,0,12,498.2,262.3)" />
<use xlink:href="#f0_2g" transform="matrix(12,0,0,12,505.5,262.3)" />
<use xlink:href="#f0_1x" transform="matrix(12,0,0,12,510.3,262.3)" />
<use xlink:href="#f0_28" transform="matrix(12,0,0,12,517.7,262.3)" />
<use xlink:href="#f0_2f" transform="matrix(12,0,0,12,521.7,262.3)" />
<use xlink:href="#f0_23" transform="matrix(12,0,0,12,530.9,262.3)" />
<use xlink:href="#f0_25" transform="matrix(12,0,0,12,539.4,262.3)" />
<use xlink:href="#f0_2i" transform="matrix(12,0,0,12,543.4,262.3)" />
<use xlink:href="#f0_21" transform="matrix(12,0,0,12,551.5,262.3)" />
<use xlink:href="#f0_2a" transform="matrix(12,0,0,12,558.9,262.3)" />
<use xlink:href="#f0_1y" transform="matrix(12,0,0,12,569.5,262.3)" />
<use xlink:href="#f0_21" transform="matrix(12,0,0,12,578,262.3)" />
<use xlink:href="#f0_28" transform="matrix(12,0,0,12,585.3,262.3)" />
<use xlink:href="#f0_2b" transform="matrix(12,0,0,12,589,262.3)" />
<use xlink:href="#f0_2j" transform="matrix(12,0,0,12,597.8,262.3)" />
<use xlink:href="#f0_g" transform="matrix(12,0,0,12,609.2,262.3)" />
<use xlink:href="#f0_2j" transform="matrix(12,0,0,12,616.6,262.3)" />
<use xlink:href="#f0_24" transform="matrix(12,0,0,12,629.1,262.3)" />
<use xlink:href="#f0_25" transform="matrix(12,0,0,12,637.1,262.3)" />
<use xlink:href="#f0_1z" transform="matrix(12,0,0,12,641.2,262.3)" />
<use xlink:href="#f0_24" transform="matrix(12,0,0,12,648.5,262.3)" />
<use xlink:href="#f0_2b" transform="matrix(12,0,0,12,659.6,262.3)" />
<use xlink:href="#f0_2a" transform="matrix(12,0,0,12,668.4,262.3)" />
<use xlink:href="#f0_21" transform="matrix(12,0,0,12,676.8,262.3)" />
<use xlink:href="#f0_2f" transform="matrix(12,0,0,12,684.2,262.3)" />
<use xlink:href="#f0_2j" transform="matrix(12,0,0,12,693.4,262.3)" />
<use xlink:href="#f0_25" transform="matrix(12,0,0,12,705.9,262.3)" />
<use xlink:href="#f0_28" transform="matrix(12,0,0,12,709.9,262.3)" />
<use xlink:href="#f0_28" transform="matrix(12,0,0,12,713.6,262.3)" />
<use xlink:href="#f0_2f" transform="matrix(12,0,0,12,719.9,262.3)" />
<use xlink:href="#f0_24" transform="matrix(12,0,0,12,726.5,262.3)" />
<use xlink:href="#f0_2b" transform="matrix(12,0,0,12,734.6,262.3)" />
<use xlink:href="#f0_2j" transform="matrix(12,0,0,12,743.4,262.3)" />
<use xlink:href="#f0_2c" transform="matrix(12,0,0,12,757.2,262.3)" />
<use xlink:href="#f0_24" transform="matrix(12,0,0,12,766,262.3)" />
<use xlink:href="#f0_2b" transform="matrix(12,0,0,12,774.1,262.3)" />
<use xlink:href="#f0_2g" transform="matrix(12,0,0,12,782.9,262.3)" />
<use xlink:href="#f0_2b" transform="matrix(12,0,0,12,787.7,262.3)" />
<use xlink:href="#f0_21" transform="matrix(12,0,0,12,796.5,262.3)" />
<use xlink:href="#f0_28" transform="matrix(12,0,0,12,804.2,262.3)" />
<use xlink:href="#f0_21" transform="matrix(12,0,0,12,807.9,262.3)" />
<use xlink:href="#f0_1z" transform="matrix(12,0,0,12,815.2,262.3)" />
<use xlink:href="#f0_2g" transform="matrix(12,0,0,12,822.6,262.3)" />
<use xlink:href="#f0_2e" transform="matrix(12,0,0,12,827.7,262.3)" />
<use xlink:href="#f0_25" transform="matrix(12,0,0,12,833.2,262.3)" />
<use xlink:href="#f0_1z" transform="matrix(12,0,0,12,836.9,262.3)" />
<use xlink:href="#f0_21" transform="matrix(12,0,0,12,117,286.9)" />
<use xlink:href="#f0_29" transform="matrix(12,0,0,12,124.7,286.9)" />
<use xlink:href="#f0_25" transform="matrix(12,0,0,12,138.3,286.9)" />
<use xlink:href="#f0_2f" transform="matrix(12,0,0,12,142.3,286.9)" />
<use xlink:href="#f0_2f" transform="matrix(12,0,0,12,149.3,286.9)" />
<use xlink:href="#f0_25" transform="matrix(12,0,0,12,155.9,286.9)" />
<use xlink:href="#f0_2b" transform="matrix(12,0,0,12,160.3,286.9)" />
<use xlink:href="#f0_2a" transform="matrix(12,0,0,12,169.5,286.9)" />
<use xlink:href="#f0_1x" transform="matrix(12,0,0,12,181.6,286.9)" />
<use xlink:href="#f0_2a" transform="matrix(12,0,0,12,189.7,286.9)" />
<use xlink:href="#f0_20" transform="matrix(12,0,0,12,198.2,286.9)" />
<use xlink:href="#f0_2j" transform="matrix(12,0,0,12,210.3,286.9)" />
<use xlink:href="#f0_24" transform="matrix(12,0,0,12,223.5,286.9)" />
<use xlink:href="#f0_2l" transform="matrix(12,0,0,12,231.9,286.9)" />
<use xlink:href="#f0_z" transform="matrix(12,0,0,12,243.7,286.9)" />
</g>
<path d="M120,309.4H338.9M120,336.8H338.9M120,364.2H338.9M120,391.5H338.9M120,418.9H338.9M120,445.4H338.9M120.4,309V445.9M180.3,309V445.9M338.5,309V445.9" class="g0_3" />
<g fill="#000000" >
<use xlink:href="#f0_1d" transform="matrix(11.9,0,0,11.9,129.1,327.6)" />
<use xlink:href="#f0_21" transform="matrix(11.9,0,0,11.9,145.2,327.6)" />
<use xlink:href="#f0_2g" transform="matrix(11.9,0,0,11.9,153.3,327.6)" />
<use xlink:href="#f0_1x" transform="matrix(11.9,0,0,11.9,158.4,327.6)" />
<use xlink:href="#f0_28" transform="matrix(11.9,0,0,11.9,166.5,327.6)" />
<use xlink:href="#f0_1n" transform="matrix(11.9,0,0,11.9,188.8,327.6)" />
<use xlink:href="#f0_2b" transform="matrix(11.9,0,0,11.9,206.1,327.6)" />
<use xlink:href="#f0_2e" transform="matrix(11.9,0,0,11.9,215.2,327.6)" />
<use xlink:href="#f0_27" transform="matrix(11.9,0,0,11.9,221.4,327.6)" />
<use xlink:href="#f0_22" transform="matrix(11.9,0,0,11.9,233.2,327.6)" />
<use xlink:href="#f0_2h" transform="matrix(11.9,0,0,11.9,239.4,327.6)" />
<use xlink:href="#f0_2a" transform="matrix(11.9,0,0,11.9,248.5,327.6)" />
<use xlink:href="#f0_1z" transform="matrix(11.9,0,0,11.9,257.7,327.6)" />
<use xlink:href="#f0_2g" transform="matrix(11.9,0,0,11.9,265.8,327.6)" />
<use xlink:href="#f0_25" transform="matrix(11.9,0,0,11.9,270.9,327.6)" />
<use xlink:href="#f0_2b" transform="matrix(11.9,0,0,11.9,276,327.6)" />
<use xlink:href="#f0_2a" transform="matrix(11.9,0,0,11.9,285.2,327.6)" />
<use xlink:href="#f0_c" transform="matrix(11.9,0,0,11.9,296.9,327.6)" />
<use xlink:href="#f0_21" transform="matrix(11.9,0,0,11.9,303.1,327.6)" />
<use xlink:href="#f0_1m" transform="matrix(11.9,0,0,11.9,311.2,327.6)" />
<use xlink:href="#f0_d" transform="matrix(11.9,0,0,11.9,324.4,327.6)" />
<use xlink:href="#f0_l" transform="matrix(11.9,0,0,11.9,242.7,355.1)" />
<use xlink:href="#f0_i" transform="matrix(11.9,0,0,11.9,251.9,355.1)" />
<use xlink:href="#f0_t" transform="matrix(11.9,0,0,11.9,256.3,355.1)" />
<use xlink:href="#f0_m" transform="matrix(11.9,0,0,11.9,265.5,355.1)" />
<use xlink:href="#f0_m" transform="matrix(11.9,0,0,11.9,243.8,382.2)" />
<use xlink:href="#f0_i" transform="matrix(11.9,0,0,11.9,253,382.2)" />
<use xlink:href="#f0_l" transform="matrix(11.9,0,0,11.9,257.4,382.2)" />
<use xlink:href="#f0_p" transform="matrix(11.9,0,0,11.9,266.6,382.2)" />
<use xlink:href="#f0_n" transform="matrix(11.9,0,0,11.9,243.5,409.7)" />
<use xlink:href="#f0_i" transform="matrix(11.9,0,0,11.9,252.6,409.7)" />
<use xlink:href="#f0_m" transform="matrix(11.9,0,0,11.9,257,409.7)" />
<use xlink:href="#f0_k" transform="matrix(11.9,0,0,11.9,266.2,409.7)" />
<use xlink:href="#f0_o" transform="matrix(11.9,0,0,11.9,243.5,437.2)" />
<use xlink:href="#f0_i" transform="matrix(11.9,0,0,11.9,252.6,437.2)" />
<use xlink:href="#f0_l" transform="matrix(11.9,0,0,11.9,257.4,437.2)" />
<use xlink:href="#f0_r" transform="matrix(11.9,0,0,11.9,266.6,437.2)" />
<use xlink:href="#f2_1e" transform="matrix(11.9,0,0,11.9,139.7,355.1)" />
<use xlink:href="#f2_1x" transform="matrix(11.9,0,0,11.9,151.8,355.1)" />
<use xlink:href="#f2_1b" transform="matrix(11.9,0,0,11.9,143.4,382.2)" />
<use xlink:href="#f2_13" transform="matrix(11.9,0,0,11.9,139,409.7)" />
<use xlink:href="#f2_1x" transform="matrix(11.9,0,0,11.9,151.1,409.7)" />
<use xlink:href="#f2_1d" transform="matrix(11.9,0,0,11.9,138.2,437.2)" />
<use xlink:href="#f2_2b" transform="matrix(11.9,0,0,11.9,153.3,437.2)" />
<use xlink:href="#f0_11" transform="matrix(12,0,0,12,64.9,495.1)" />
<use xlink:href="#f0_2a" transform="matrix(12,0,0,12,77.4,495.1)" />
<use xlink:href="#f0_2f" transform="matrix(12,0,0,12,85.8,495.1)" />
<use xlink:href="#f0_i" transform="matrix(12,0,0,12,92.4,495.1)" />
</g>
<path d="M182.1,488.2h19.4" class="g1_3" />
<g fill="#000000" >
<use xlink:href="#f0_c" transform="matrix(11.9,0,0,11.9,204.2,492.6)" />
<use xlink:href="#f0_d" transform="matrix(11.9,0,0,11.9,222.6,492.6)" />
<use xlink:href="#f2_24" transform="matrix(11.9,0,0,11.9,183.3,481.2)" />
<use xlink:href="#f2_1z" transform="matrix(11.9,0,0,11.9,192.5,481.2)" />
<use xlink:href="#f2_15" transform="matrix(11.9,0,0,11.9,120.3,492.6)" />
<use xlink:href="#f2_24" transform="matrix(11.9,0,0,11.9,147.4,492.6)" />
<use xlink:href="#f2_2i" transform="matrix(11.9,0,0,11.9,156.5,492.6)" />
<use xlink:href="#f2_1a" transform="matrix(11.9,0,0,11.9,211.9,492.6)" />
<use xlink:href="#f3_28" transform="matrix(11.9,0,-3.2,11.9,186.3,506.9)" />
<use xlink:href="#f4_x" transform="matrix(11.9,0,0,11.9,134.9,492.6)" />
<use xlink:href="#f4_x" transform="matrix(11.9,0,0,11.9,167.6,492.6)" />
</g>
<path d="M180.7,545h20.7" class="g0_3" />
<g fill="#000000" >
<use xlink:href="#f0_c" transform="matrix(11.9,0,0,11.9,204.2,549.4)" />
<use xlink:href="#f0_d" transform="matrix(11.9,0,0,11.9,232.8,549.4)" />
<use xlink:href="#f2_24" transform="matrix(11.9,0,0,11.9,182.6,538)" />
<use xlink:href="#f2_1z" transform="matrix(11.9,0,0,11.9,191.8,538)" />
<use xlink:href="#f2_21" transform="matrix(11.9,0,0,11.9,210.5,549.4)" />
<use xlink:href="#f2_1m" transform="matrix(11.9,0,0,11.9,218.5,549.4)" />
<use xlink:href="#f2_21" transform="matrix(11.9,0,0,11.9,192.5,563.7)" />
<use xlink:href="#f3_28" transform="matrix(11.9,0,-3.2,11.9,181.5,563.7)" />
<use xlink:href="#f4_x" transform="matrix(11.9,0,0,11.9,167.9,549.4)" />
</g>
<path d="M178.5,607.3h168" class="g2_3" />
<g fill="#000000" >
<use xlink:href="#f0_n" transform="matrix(6.9,0,0,6.9,256.7,592.3)" />
<use xlink:href="#f0_o" transform="matrix(6.9,0,0,6.9,261.8,592.3)" />
<use xlink:href="#f0_s" transform="matrix(6.9,0,0,6.9,320.1,592.3)" />
<use xlink:href="#f0_t" transform="matrix(6.9,0,0,6.9,256.3,618)" />
<use xlink:href="#f0_l" transform="matrix(6.9,0,0,6.9,333.3,618)" />
<use xlink:href="#f0_t" transform="matrix(6.9,0,0,6.9,338.4,618)" />
<use xlink:href="#f0_q" transform="matrix(12,0,0,12,198,600.4)" />
<use xlink:href="#f0_i" transform="matrix(12,0,0,12,207.2,600.4)" />
<use xlink:href="#f0_q" transform="matrix(12,0,0,12,211.9,600.4)" />
<use xlink:href="#f0_l" transform="matrix(12,0,0,12,232.1,600.4)" />
<use xlink:href="#f0_k" transform="matrix(12,0,0,12,241.3,600.4)" />
<use xlink:href="#f0_n" transform="matrix(12,0,0,12,281.9,600.4)" />
<use xlink:href="#f0_l" transform="matrix(12,0,0,12,301.7,600.4)" />
<use xlink:href="#f0_k" transform="matrix(12,0,0,12,310.9,600.4)" />
<use xlink:href="#f0_o" transform="matrix(12,0,0,12,179.7,626.4)" />
<use xlink:href="#f0_l" transform="matrix(12,0,0,12,188.8,626.4)" />
<use xlink:href="#f0_m" transform="matrix(12,0,0,12,198,626.4)" />
<use xlink:href="#f0_i" transform="matrix(12,0,0,12,207.2,626.4)" />
<use xlink:href="#f0_p" transform="matrix(12,0,0,12,211.6,626.4)" />
<use xlink:href="#f0_l" transform="matrix(12,0,0,12,231.7,626.4)" />
<use xlink:href="#f0_k" transform="matrix(12,0,0,12,240.9,626.4)" />
<use xlink:href="#f0_l" transform="matrix(12,0,0,12,274.6,626.4)" />
<use xlink:href="#f0_i" transform="matrix(12,0,0,12,283.8,626.4)" />
<use xlink:href="#f0_q" transform="matrix(12,0,0,12,288.6,626.4)" />
<use xlink:href="#f0_l" transform="matrix(12,0,0,12,308.7,626.4)" />
<use xlink:href="#f0_k" transform="matrix(12,0,0,12,317.9,626.4)" />
<use xlink:href="#f4_h" transform="matrix(6.9,0,0,6.9,250.8,592.3)" />
<use xlink:href="#f4_h" transform="matrix(6.9,0,0,6.9,250.4,618)" />
<use xlink:href="#f4_h" transform="matrix(6.9,0,0,6.9,327.4,618)" />
<use xlink:href="#f4_3a" transform="matrix(12,0,0,12,222.2,600.4)" />
<use xlink:href="#f4_3a" transform="matrix(12,0,0,12,270.6,600.4)" />
<use xlink:href="#f4_3a" transform="matrix(12,0,0,12,291.5,600.4)" />
<use xlink:href="#f4_x" transform="matrix(12,0,0,12,165.7,612.1)" />
<use xlink:href="#f4_3a" transform="matrix(12,0,0,12,221.8,626.4)" />
<use xlink:href="#f4_3a" transform="matrix(12,0,0,12,264.7,626.4)" />
<use xlink:href="#f4_3a" transform="matrix(12,0,0,12,298.8,626.4)" />
<use xlink:href="#f0_n" transform="matrix(11.9,0,0,11.9,174.2,667.5)" />
<use xlink:href="#f2_15" transform="matrix(11.9,0,0,11.9,147.8,667.5)" />
<use xlink:href="#f2_21" transform="matrix(11.9,0,0,11.9,184.8,667.5)" />
<use xlink:href="#f2_1m" transform="matrix(11.9,0,0,11.9,192.8,667.5)" />
<use xlink:href="#f4_x" transform="matrix(11.9,0,0,11.9,162.4,667.5)" />
<use xlink:href="#f0_k" transform="matrix(6.9,0,0,6.9,331.1,710)" />
<use xlink:href="#f0_21" transform="matrix(12,0,0,12,171.6,705.2)" />
<use xlink:href="#f0_29" transform="matrix(12,0,0,12,179.7,705.2)" />
<use xlink:href="#f0_25" transform="matrix(12,0,0,12,193.6,705.2)" />
<use xlink:href="#f0_2f" transform="matrix(12,0,0,12,198.8,705.2)" />
<use xlink:href="#f0_2f" transform="matrix(12,0,0,12,206.1,705.2)" />
<use xlink:href="#f0_25" transform="matrix(12,0,0,12,213.4,705.2)" />
<use xlink:href="#f0_2b" transform="matrix(12,0,0,12,218.6,705.2)" />
<use xlink:href="#f0_2a" transform="matrix(12,0,0,12,227.7,705.2)" />
<use xlink:href="#f2_1e" transform="matrix(12,0,0,12,120.6,705.2)" />
<use xlink:href="#f2_1x" transform="matrix(12,0,0,12,133.1,705.2)" />
<use xlink:href="#f2_15" transform="matrix(12,0,0,12,295.9,705.2)" />
</g>
<g clip-path="url(#c0_3)">
<g fill="#000000" >
<use xlink:href="#f3_22" transform="matrix(12,0,-3.2,12,321.6,705.2)" />
</g>
</g>
<g fill="#000000" >
<use xlink:href="#f4_34" transform="matrix(12,0,0,12,148.1,705.2)" />
<use xlink:href="#f4_y" transform="matrix(12,0,0,12,310.6,705.2)" />
<use xlink:href="#f0_k" transform="matrix(6.9,0,0,6.9,331.1,750.3)" />
<use xlink:href="#f0_21" transform="matrix(12,0,0,12,173.8,745.6)" />
<use xlink:href="#f0_29" transform="matrix(12,0,0,12,181.9,745.6)" />
<use xlink:href="#f0_25" transform="matrix(12,0,0,12,196.2,745.6)" />
<use xlink:href="#f0_2f" transform="matrix(12,0,0,12,201.3,745.6)" />
<use xlink:href="#f0_2f" transform="matrix(12,0,0,12,208.3,745.6)" />
<use xlink:href="#f0_25" transform="matrix(12,0,0,12,215.6,745.6)" />
<use xlink:href="#f0_2b" transform="matrix(12,0,0,12,220.8,745.6)" />
<use xlink:href="#f0_2a" transform="matrix(12,0,0,12,229.9,745.6)" />
<use xlink:href="#f2_1b" transform="matrix(12,0,0,12,120.3,745.6)" />
<use xlink:href="#f2_15" transform="matrix(12,0,0,12,295.9,745.6)" />
</g>
<g clip-path="url(#c1_3)">
<g fill="#000000" >
<use xlink:href="#f3_22" transform="matrix(12,0,-3.2,12,321.6,745.6)" />
</g>
</g>
<g fill="#000000" >
<use xlink:href="#f4_34" transform="matrix(12,0,0,12,150.3,745.6)" />
<use xlink:href="#f4_y" transform="matrix(12,0,0,12,310.6,745.6)" />
<use xlink:href="#f0_k" transform="matrix(6.9,0,0,6.9,331.1,790.3)" />
<use xlink:href="#f0_1e" transform="matrix(12,0,0,12,175.6,785.5)" />
<use xlink:href="#f0_2b" transform="matrix(12,0,0,12,188.8,785.5)" />
<use xlink:href="#f0_21" transform="matrix(12,0,0,12,200.2,785.5)" />
<use xlink:href="#f0_29" transform="matrix(12,0,0,12,208.3,785.5)" />
<use xlink:href="#f0_25" transform="matrix(12,0,0,12,222.6,785.5)" />
<use xlink:href="#f0_2f" transform="matrix(12,0,0,12,227.7,785.5)" />
<use xlink:href="#f0_2f" transform="matrix(12,0,0,12,234.7,785.5)" />
<use xlink:href="#f0_25" transform="matrix(12,0,0,12,242,785.5)" />
<use xlink:href="#f0_2b" transform="matrix(12,0,0,12,247.2,785.5)" />
<use xlink:href="#f0_2a" transform="matrix(12,0,0,12,256.3,785.5)" />
<use xlink:href="#f2_1b" transform="matrix(12,0,0,12,120.3,785.5)" />
<use xlink:href="#f2_1x" transform="matrix(12,0,0,12,132.7,785.5)" />
<use xlink:href="#f2_15" transform="matrix(12,0,0,12,295.9,785.5)" />
</g>
<g clip-path="url(#c2_3)">
<g fill="#000000" >
<use xlink:href="#f3_22" transform="matrix(12,0,-3.2,12,321.6,785.5)" />
</g>
</g>
<g fill="#000000" >
<use xlink:href="#f4_34" transform="matrix(12,0,0,12,151.4,785.5)" />
<use xlink:href="#f4_y" transform="matrix(12,0,0,12,310.6,785.5)" />
<use xlink:href="#f0_k" transform="matrix(6.9,0,0,6.9,330,830.3)" />
<use xlink:href="#f0_1e" transform="matrix(12,0,0,12,174.2,825.5)" />
<use xlink:href="#f0_2b" transform="matrix(12,0,0,12,187.4,825.5)" />
<use xlink:href="#f0_21" transform="matrix(12,0,0,12,199.1,825.5)" />
<use xlink:href="#f0_29" transform="matrix(12,0,0,12,206.8,825.5)" />
<use xlink:href="#f0_25" transform="matrix(12,0,0,12,221.1,825.5)" />
<use xlink:href="#f0_2f" transform="matrix(12,0,0,12,226.3,825.5)" />
<use xlink:href="#f0_2f" transform="matrix(12,0,0,12,233.2,825.5)" />
<use xlink:href="#f0_25" transform="matrix(12,0,0,12,240.6,825.5)" />
<use xlink:href="#f0_2b" transform="matrix(12,0,0,12,245.7,825.5)" />
<use xlink:href="#f0_2a" transform="matrix(12,0,0,12,254.9,825.5)" />
<use xlink:href="#f2_1d" transform="matrix(12,0,0,12,119.9,825.5)" />
<use xlink:href="#f2_2b" transform="matrix(12,0,0,12,135.3,825.5)" />
<use xlink:href="#f2_15" transform="matrix(12,0,0,12,295.2,825.5)" />
</g>
<g clip-path="url(#c3_3)">
<g fill="#000000" >
<use xlink:href="#f3_22" transform="matrix(12,0,-3.2,12,320.8,825.5)" />
</g>
</g>
<g fill="#000000" >
<use xlink:href="#f4_34" transform="matrix(12,0,0,12,150,825.5)" />
<use xlink:href="#f4_w" transform="matrix(12,0,0,12,309.5,825.5)" />
<use xlink:href="#f0_l" transform="matrix(12,0,0,12,64.9,908.4)" />
<use xlink:href="#f0_k" transform="matrix(12,0,0,12,74.1,908.4)" />
<use xlink:href="#f0_i" transform="matrix(12,0,0,12,83.2,908.4)" />
<use xlink:href="#f0_11" transform="matrix(12,0,0,12,117,908.4)" />
<use xlink:href="#f0_1z" transform="matrix(12,0,0,12,133.9,908.4)" />
<use xlink:href="#f0_1x" transform="matrix(12,0,0,12,141.9,908.4)" />
<use xlink:href="#f0_2e" transform="matrix(12,0,0,12,150,908.4)" />
<use xlink:href="#f0_2e" transform="matrix(12,0,0,12,156.3,908.4)" />
<use xlink:href="#f0_25" transform="matrix(12,0,0,12,162.5,908.4)" />
<use xlink:href="#f0_21" transform="matrix(12,0,0,12,166.9,908.4)" />
<use xlink:href="#f0_2e" transform="matrix(12,0,0,12,175,908.4)" />
<use xlink:href="#f0_2j" transform="matrix(12,0,0,12,185.3,908.4)" />
<use xlink:href="#f0_1x" transform="matrix(12,0,0,12,198.5,908.4)" />
<use xlink:href="#f0_2i" transform="matrix(12,0,0,12,206.6,908.4)" />
<use xlink:href="#f0_21" transform="matrix(12,0,0,12,215.4,908.4)" />
<use xlink:href="#f0_2b" transform="matrix(12,0,0,12,227.5,908.4)" />
<use xlink:href="#f0_22" transform="matrix(12,0,0,12,237.1,908.4)" />
<use xlink:href="#f0_2c" transform="matrix(12,0,0,12,246.6,908.4)" />
<use xlink:href="#f0_21" transform="matrix(12,0,0,12,255.8,908.4)" />
<use xlink:href="#f0_1x" transform="matrix(12,0,0,12,263.9,908.4)" />
<use xlink:href="#f0_27" transform="matrix(12,0,0,12,272,908.4)" />
<use xlink:href="#f0_2i" transform="matrix(12,0,0,12,285.2,908.4)" />
<use xlink:href="#f0_2b" transform="matrix(12,0,0,12,294,908.4)" />
<use xlink:href="#f0_28" transform="matrix(12,0,0,12,303.5,908.4)" />
<use xlink:href="#f0_2g" transform="matrix(12,0,0,12,307.9,908.4)" />
<use xlink:href="#f0_1x" transform="matrix(12,0,0,12,313.4,908.4)" />
<use xlink:href="#f0_23" transform="matrix(12,0,0,12,321.5,908.4)" />
<use xlink:href="#f0_21" transform="matrix(12,0,0,12,330.7,908.4)" />
<use xlink:href="#f0_l" transform="matrix(12,0,0,12,342.8,908.4)" />
<use xlink:href="#f0_p" transform="matrix(12,0,0,12,352,908.4)" />
<use xlink:href="#f0_1m" transform="matrix(12,0,0,12,365.2,908.4)" />
<use xlink:href="#f0_25" transform="matrix(12,0,0,12,382.5,908.4)" />
<use xlink:href="#f0_2f" transform="matrix(12,0,0,12,386.9,908.4)" />
<use xlink:href="#f0_2h" transform="matrix(12,0,0,12,397.9,908.4)" />
<use xlink:href="#f0_2f" transform="matrix(12,0,0,12,407.1,908.4)" />
<use xlink:href="#f0_21" transform="matrix(12,0,0,12,414.1,908.4)" />
<use xlink:href="#f0_20" transform="matrix(12,0,0,12,422.2,908.4)" />
<use xlink:href="#f0_2g" transform="matrix(12,0,0,12,435.4,908.4)" />
<use xlink:href="#f0_2b" transform="matrix(12,0,0,12,440.9,908.4)" />
<use xlink:href="#f0_2g" transform="matrix(12,0,0,12,454.5,908.4)" />
<use xlink:href="#f0_2e" transform="matrix(12,0,0,12,460,908.4)" />
<use xlink:href="#f0_1x" transform="matrix(12,0,0,12,466.2,908.4)" />
<use xlink:href="#f0_2a" transform="matrix(12,0,0,12,474.3,908.4)" />
<use xlink:href="#f0_2f" transform="matrix(12,0,0,12,483.1,908.4)" />
<use xlink:href="#f0_29" transform="matrix(12,0,0,12,490.1,908.4)" />
<use xlink:href="#f0_25" transform="matrix(12,0,0,12,503.6,908.4)" />
<use xlink:href="#f0_2g" transform="matrix(12,0,0,12,508.1,908.4)" />
<use xlink:href="#f0_1x" transform="matrix(12,0,0,12,517.6,908.4)" />
<use xlink:href="#f0_29" transform="matrix(12,0,0,12,529.8,908.4)" />
<use xlink:href="#f0_21" transform="matrix(12,0,0,12,543.3,908.4)" />
<use xlink:href="#f0_2f" transform="matrix(12,0,0,12,551.4,908.4)" />
<use xlink:href="#f0_2f" transform="matrix(12,0,0,12,558.4,908.4)" />
<use xlink:href="#f0_1x" transform="matrix(12,0,0,12,565.4,908.4)" />
<use xlink:href="#f0_23" transform="matrix(12,0,0,12,573.5,908.4)" />
<use xlink:href="#f0_21" transform="matrix(12,0,0,12,582.6,908.4)" />
<use xlink:href="#f0_2f" transform="matrix(12,0,0,12,594.8,908.4)" />
<use xlink:href="#f0_25" transform="matrix(12,0,0,12,601.7,908.4)" />
<use xlink:href="#f0_23" transform="matrix(12,0,0,12,606.2,908.4)" />
<use xlink:href="#f0_2a" transform="matrix(12,0,0,12,615.3,908.4)" />
<use xlink:href="#f0_1x" transform="matrix(12,0,0,12,624.1,908.4)" />
<use xlink:href="#f0_28" transform="matrix(12,0,0,12,632.2,908.4)" />
<use xlink:href="#f0_i" transform="matrix(12,0,0,12,636.6,908.4)" />
<use xlink:href="#f0_16" transform="matrix(12,0,0,12,645.5,908.4)" />
<use xlink:href="#f0_25" transform="matrix(12,0,0,12,655.4,908.4)" />
<use xlink:href="#f0_2a" transform="matrix(12,0,0,12,659.8,908.4)" />
<use xlink:href="#f0_20" transform="matrix(12,0,0,12,668.6,908.4)" />
<use xlink:href="#f0_2g" transform="matrix(12,0,0,12,681.8,908.4)" />
<use xlink:href="#f0_24" transform="matrix(12,0,0,12,687.3,908.4)" />
<use xlink:href="#f0_21" transform="matrix(12,0,0,12,696.1,908.4)" />
<use xlink:href="#f0_2c" transform="matrix(12,0,0,12,708.3,908.4)" />
<use xlink:href="#f0_21" transform="matrix(12,0,0,12,717.4,908.4)" />
<use xlink:href="#f0_1x" transform="matrix(12,0,0,12,725.5,908.4)" />
<use xlink:href="#f0_27" transform="matrix(12,0,0,12,733.6,908.4)" />
<use xlink:href="#f0_2i" transform="matrix(12,0,0,12,746.8,908.4)" />
<use xlink:href="#f0_2b" transform="matrix(12,0,0,12,755.6,908.4)" />
<use xlink:href="#f0_28" transform="matrix(12,0,0,12,765.2,908.4)" />
<use xlink:href="#f0_2g" transform="matrix(12,0,0,12,769.6,908.4)" />
<use xlink:href="#f0_1x" transform="matrix(12,0,0,12,775.1,908.4)" />
<use xlink:href="#f0_23" transform="matrix(12,0,0,12,783.2,908.4)" />
<use xlink:href="#f0_21" transform="matrix(12,0,0,12,792.3,908.4)" />
<use xlink:href="#f0_2b" transform="matrix(12,0,0,12,804.5,908.4)" />
<use xlink:href="#f0_22" transform="matrix(12,0,0,12,814,908.4)" />
<use xlink:href="#f0_2g" transform="matrix(12,0,0,12,823.6,908.4)" />
<use xlink:href="#f0_24" transform="matrix(12,0,0,12,827.9,908.4)" />
<use xlink:href="#f0_21" transform="matrix(12,0,0,12,836.7,908.4)" />
<use xlink:href="#f0_29" transform="matrix(12,0,0,12,117,932.9)" />
<use xlink:href="#f0_2b" transform="matrix(12,0,0,12,130.2,932.9)" />
<use xlink:href="#f0_20" transform="matrix(12,0,0,12,139.3,932.9)" />
<use xlink:href="#f0_2h" transform="matrix(12,0,0,12,148.2,932.9)" />
<use xlink:href="#f0_28" transform="matrix(12,0,0,12,157.3,932.9)" />
<use xlink:href="#f0_1x" transform="matrix(12,0,0,12,161.4,932.9)" />
<use xlink:href="#f0_2g" transform="matrix(12,0,0,12,169.1,932.9)" />
<use xlink:href="#f0_25" transform="matrix(12,0,0,12,174.2,932.9)" />
<use xlink:href="#f0_2a" transform="matrix(12,0,0,12,178.3,932.9)" />
<use xlink:href="#f0_23" transform="matrix(12,0,0,12,186.7,932.9)" />
<use xlink:href="#f0_2f" transform="matrix(12,0,0,12,199.2,932.9)" />
<use xlink:href="#f0_25" transform="matrix(12,0,0,12,205.8,932.9)" />
<use xlink:href="#f0_23" transform="matrix(12,0,0,12,209.9,932.9)" />
<use xlink:href="#f0_2a" transform="matrix(12,0,0,12,218.7,932.9)" />
<use xlink:href="#f0_1x" transform="matrix(12,0,0,12,227.2,932.9)" />
<use xlink:href="#f0_28" transform="matrix(12,0,0,12,234.9,932.9)" />
<use xlink:href="#f0_25" transform="matrix(12,0,0,12,242.6,932.9)" />
<use xlink:href="#f0_2a" transform="matrix(12,0,0,12,246.7,932.9)" />
<use xlink:href="#f0_2b" transform="matrix(12,0,0,12,258.1,932.9)" />
<use xlink:href="#f0_2e" transform="matrix(12,0,0,12,267.2,932.9)" />
<use xlink:href="#f0_20" transform="matrix(12,0,0,12,273.1,932.9)" />
<use xlink:href="#f0_21" transform="matrix(12,0,0,12,282.3,932.9)" />
<use xlink:href="#f0_2e" transform="matrix(12,0,0,12,290,932.9)" />
<use xlink:href="#f0_2g" transform="matrix(12,0,0,12,299.2,932.9)" />
<use xlink:href="#f0_2b" transform="matrix(12,0,0,12,304.3,932.9)" />
<use xlink:href="#f0_24" transform="matrix(12,0,0,12,316.8,932.9)" />
<use xlink:href="#f0_1x" transform="matrix(12,0,0,12,325.6,932.9)" />
<use xlink:href="#f0_2i" transform="matrix(12,0,0,12,333.3,932.9)" />
<use xlink:href="#f0_21" transform="matrix(12,0,0,12,341.8,932.9)" />
<use xlink:href="#f0_1x" transform="matrix(12,0,0,12,352.8,932.9)" />
<use xlink:href="#f0_29" transform="matrix(12,0,0,12,364.2,932.9)" />
<use xlink:href="#f0_2b" transform="matrix(12,0,0,12,377.4,932.9)" />
<use xlink:href="#f0_20" transform="matrix(12,0,0,12,386.6,932.9)" />
<use xlink:href="#f0_2h" transform="matrix(12,0,0,12,395.4,932.9)" />
<use xlink:href="#f0_28" transform="matrix(12,0,0,12,404.2,932.9)" />
<use xlink:href="#f0_1x" transform="matrix(12,0,0,12,408.3,932.9)" />
<use xlink:href="#f0_2g" transform="matrix(12,0,0,12,416,932.9)" />
<use xlink:href="#f0_25" transform="matrix(12,0,0,12,421.5,932.9)" />
<use xlink:href="#f0_2b" transform="matrix(12,0,0,12,425.6,932.9)" />
<use xlink:href="#f0_2a" transform="matrix(12,0,0,12,434.7,932.9)" />
<use xlink:href="#f0_25" transform="matrix(12,0,0,12,446.1,932.9)" />
<use xlink:href="#f0_2a" transform="matrix(12,0,0,12,450.2,932.9)" />
<use xlink:href="#f0_20" transform="matrix(12,0,0,12,458.6,932.9)" />
<use xlink:href="#f0_21" transform="matrix(12,0,0,12,467.8,932.9)" />
<use xlink:href="#f0_2k" transform="matrix(12,0,0,12,475.5,932.9)" />
<use xlink:href="#f0_2b" transform="matrix(12,0,0,12,487.3,932.9)" />
<use xlink:href="#f0_22" transform="matrix(12,0,0,12,496.4,932.9)" />
<use xlink:href="#f0_q" transform="matrix(12,0,0,12,505.3,932.9)" />
<use xlink:href="#f0_k" transform="matrix(12,0,0,12,514.1,932.9)" />
<use xlink:href="#f0_9" transform="matrix(12,0,0,12,522.9,932.9)" />
<use xlink:href="#f0_i" transform="matrix(12,0,0,12,538,932.9)" />
<use xlink:href="#f0_11" transform="matrix(12,0,0,12,64.9,987.6)" />
<use xlink:href="#f0_2a" transform="matrix(12,0,0,12,77.4,987.6)" />
<use xlink:href="#f0_2f" transform="matrix(12,0,0,12,85.8,987.6)" />
<use xlink:href="#f0_i" transform="matrix(12,0,0,12,92.4,987.6)" />
</g>
<path d="M147,977.4h22.6" class="g1_3" />
<g fill="#000000" >
<use xlink:href="#f2_29" transform="matrix(6.9,0,0,6.9,159.1,975.1)" />
<use xlink:href="#f2_1z" transform="matrix(6.9,0,0,6.9,160.6,1000.8)" />
<use xlink:href="#f2_11" transform="matrix(11.9,0,0,11.9,149.6,970.3)" />
<use xlink:href="#f2_11" transform="matrix(11.9,0,0,11.9,151.1,996.4)" />
<use xlink:href="#f3_29" transform="matrix(11.9,0,-3.2,11.9,119.9,982.1)" />
<use xlink:href="#f4_x" transform="matrix(11.9,0,0,11.9,134.2,982.1)" />
</g>
<path d="M168.5,1048.9h30.4m45.4,0h19.8" class="g2_3" />
<g fill="#000000" >
<use xlink:href="#f0_l" transform="matrix(11.9,0,0,11.9,167.6,1041.8)" />
<use xlink:href="#f0_p" transform="matrix(11.9,0,0,11.9,176.7,1041.8)" />
<use xlink:href="#f0_l" transform="matrix(11.9,0,0,11.9,244.6,1041.8)" />
<use xlink:href="#f0_p" transform="matrix(11.9,0,0,11.9,253.7,1041.8)" />
<use xlink:href="#f0_q" transform="matrix(11.9,0,0,11.9,119.5,1053.6)" />
<use xlink:href="#f0_k" transform="matrix(11.9,0,0,11.9,128.7,1053.6)" />
<use xlink:href="#f0_9" transform="matrix(11.9,0,0,11.9,137.8,1053.6)" />
<use xlink:href="#f0_g" transform="matrix(11.9,0,0,11.9,201.6,1053.6)" />
<use xlink:href="#f0_l" transform="matrix(11.9,0,0,11.9,276.1,1053.6)" />
<use xlink:href="#f0_k" transform="matrix(11.9,0,0,11.9,285.2,1053.6)" />
<use xlink:href="#f0_k" transform="matrix(11.9,0,0,11.9,294.4,1053.6)" />
<use xlink:href="#f0_m" transform="matrix(11.9,0,0,11.9,318.6,1053.6)" />
<use xlink:href="#f0_p" transform="matrix(11.9,0,0,11.9,327.7,1053.6)" />
<use xlink:href="#f0_q" transform="matrix(11.9,0,0,11.9,245.3,1067.9)" />
<use xlink:href="#f0_k" transform="matrix(11.9,0,0,11.9,254.5,1067.9)" />
<use xlink:href="#f2_13" transform="matrix(6.9,0,0,6.9,219.3,1058)" />
<use xlink:href="#f2_13" transform="matrix(6.9,0,0,6.9,184.4,1072.3)" />
<use xlink:href="#f2_1m" transform="matrix(11.9,0,0,11.9,184.4,1041.8)" />
<use xlink:href="#f2_11" transform="matrix(11.9,0,0,11.9,209.7,1053.6)" />
<use xlink:href="#f2_1m" transform="matrix(11.9,0,0,11.9,337.3,1053.6)" />
<use xlink:href="#f2_11" transform="matrix(11.9,0,0,11.9,175.3,1067.9)" />
<use xlink:href="#f4_x" transform="matrix(11.9,0,0,11.9,155.5,1053.6)" />
<use xlink:href="#f4_x" transform="matrix(11.9,0,0,11.9,231.4,1053.6)" />
<use xlink:href="#f4_3a" transform="matrix(11.9,0,0,11.9,266.2,1053.6)" />
<use xlink:href="#f4_x" transform="matrix(11.9,0,0,11.9,306.1,1053.6)" />
<use xlink:href="#f5_n" transform="matrix(8,0,0,8,792.2,1264.2)" />
</g>
<defs>
<path d="M474,-326c0,0,-112,57,-188,133c0,0,-107,108,-165,254c0,0,-58,147,-58,305c0,0,0,231,114,421c0,0,114,191,297,273v-31c0,0,-92,-51,-151,-139c0,0,-59,-88,-88,-223c0,0,-30,-135,-30,-281c0,0,0,-160,25,-290c0,0,20,-102,47,-164c0,0,28,-62,75,-120c0,0,47,-57,122,-109v-29Z" 
id="f0_c"
transform="scale(0.001,-0.001)" />

<path d="M397,34c0,0,67,0,126,75c0,0,58,74,58,216c0,0,0,131,-58,201c0,0,-59,70,-133,70c0,0,-39,0,-79,-20c0,0,-29,-14,-75,-59V109c0,0,37,-37,78,-56c0,0,40,-19,83,-19ZM358,-20c0,0,-59,0,-121,21c0,0,-61,22,-126,65V773c0,0,0,117,-5,144c0,0,-6,27,-18,37c0,0,-12,9,-29,9c0,0,-21,0,-53,-12l-9,27l205,83h34V564c0,0,98,139,213,139c0,0,105,0,183,-90c0,0,78,-90,78,-245c0,0,0,-182,-121,-293c0,0,-103,-95,-231,-95Z" 
id="f0_1y"
transform="scale(0.001,-0.001)" />

<path d="M35,-326v29c0,0,92,51,151,139c0,0,60,87,89,221c0,0,28,136,28,282c0,0,0,159,-24,290c0,0,-19,103,-47,165c0,0,-28,62,-75,119c0,0,-46,57,-122,110v31c0,0,113,-56,188,-132c0,0,107,-109,165,-255c0,0,58,-147,58,-306c0,0,0,-231,-114,-420c0,0,-113,-191,-297,-273Z" 
id="f0_d"
transform="scale(0.001,-0.001)" />

<path d="M474,-21L174,817c0,0,-34,94,-42,112c0,0,-15,28,-41,42c0,0,-26,14,-70,14v27H395V985H377c0,0,-40,0,-60,-18c0,0,-21,-18,-21,-44c0,0,0,-26,33,-120L528,235L696,718l-30,85l-24,68c0,0,-16,37,-35,66c0,0,-10,14,-24,24c0,0,-19,13,-38,19c0,0,-14,5,-44,5v27H894V985H867c0,0,-41,0,-61,-18c0,0,-19,-18,-19,-49c0,0,0,-38,33,-133L1015,235l193,557c0,0,32,93,32,129c0,0,0,17,-10,32c0,0,-11,15,-28,21c0,0,-28,11,-74,11v27h302V985c0,0,-39,0,-64,-15c0,0,-25,-14,-47,-53c0,0,-15,-26,-47,-124L990,-21H960L729,624L501,-21Z" 
id="f0_1n"
transform="scale(0.001,-0.001)" />

<path d="M20,0V26c0,0,45,0,71,15c0,0,15,7,24,28c0,0,9,21,9,85V773c0,0,0,117,-5,144c0,0,-6,27,-17,37c0,0,-12,9,-31,9c0,0,-16,0,-51,-12L10,978l204,83h34V561c0,0,83,91,131,116c0,0,49,26,97,26c0,0,58,0,100,-32c0,0,42,-32,62,-101c0,0,14,-47,14,-174V154c0,0,0,-65,11,-89c0,0,7,-18,25,-28c0,0,18,-11,66,-11V0H418V26h15c0,0,48,0,67,15c0,0,18,15,26,43c0,0,2,12,2,70V396c0,0,0,112,-12,147c0,0,-11,35,-36,53c0,0,-26,17,-61,17c0,0,-37,0,-76,-19c0,0,-40,-20,-95,-79V154c0,0,0,-70,8,-87c0,0,8,-17,29,-29c0,0,22,-12,74,-12V0Z" 
id="f0_24"
transform="scale(0.001,-0.001)" />

<path d="M286,72c0,0,57,0,149,75V407c0,0,-113,-45,-145,-64c0,0,-59,-32,-85,-68c0,0,-25,-36,-25,-78c0,0,0,-54,32,-89c0,0,32,-36,74,-36ZM217,-13c0,0,-71,0,-116,48c0,0,-46,48,-46,127c0,0,0,50,22,87c0,0,31,50,106,95c0,0,76,45,252,109v26c0,0,0,102,-32,140c0,0,-32,38,-94,38c0,0,-47,0,-74,-25c0,0,-28,-25,-28,-58l1,-43c0,0,0,-34,-17,-53c0,0,-18,-18,-47,-18c0,0,-28,0,-45,19c0,0,-18,19,-18,53c0,0,0,64,66,117c0,0,65,54,184,54c0,0,91,0,149,-31c0,0,44,-23,65,-72c0,0,13,-32,13,-131V238c0,0,0,-98,4,-120c0,0,4,-22,12,-29c0,0,9,-8,20,-8c0,0,12,0,21,5c0,0,16,10,61,55V99C676,99,592,-12,516,-12c0,0,-37,0,-58,24c0,0,-22,26,-23,86C435,98,330,17,303,5c0,0,-40,-18,-86,-18Z" 
id="f0_1x"
transform="scale(0.001,-0.001)" />

<path d="M255,-10c0,0,-35,0,-68,18c0,0,-32,19,-48,55c0,0,-16,35,-16,109V632H15v24c0,0,41,16,84,56c0,0,43,39,77,92c0,0,17,29,48,104h23V683H407V632H247V188c0,0,0,-66,19,-90c0,0,19,-23,49,-23c0,0,24,0,47,16c0,0,23,15,36,45h29c0,0,-26,-73,-74,-110c0,0,-47,-36,-98,-36Z" 
id="f0_2g"
transform="scale(0.001,-0.001)" />

<path d="M399,62c0,0,68,0,131,68V481c0,0,-5,51,-27,93c0,0,-22,42,-59,63c0,0,-37,21,-72,21c0,0,-65,0,-117,-59c0,0,-67,-77,-67,-226c0,0,0,-151,65,-231c0,0,66,-80,146,-80ZM330,-20c0,0,-112,0,-196,93c0,0,-83,94,-83,240c0,0,0,147,92,269c0,0,93,122,238,122c0,0,90,0,149,-58V773c0,0,0,117,-6,144c0,0,-5,27,-17,37c0,0,-12,9,-30,9c0,0,-20,0,-52,-12l-9,27l204,83h33V270c0,0,0,-120,6,-146c0,0,5,-27,18,-37c0,0,12,-11,28,-11c0,0,21,0,54,13l9,-26L564,-20H530V78C530,78,480,25,432,2c0,0,-47,-22,-102,-22Z" 
id="f0_20"
transform="scale(0.001,-0.001)" />

<path d="M406,32c0,0,72,0,119,60c0,0,47,59,47,205c0,0,0,181,-78,286c0,0,-53,71,-135,71c0,0,-40,0,-79,-23c0,0,-40,-24,-65,-83c0,0,-24,-58,-24,-151c0,0,0,-149,59,-257c0,0,59,-108,156,-108ZM374,-20c0,0,-154,0,-245,122c0,0,-77,104,-77,233c0,0,0,94,46,187c0,0,47,92,123,137c0,0,76,44,161,44c0,0,155,0,249,-118c0,0,80,-100,80,-231c0,0,0,-91,-44,-185C667,169,623,75,546,27c0,0,-77,-47,-172,-47Z" 
id="f0_2b"
transform="scale(0.001,-0.001)" />

<path d="M145,-328c0,0,-44,0,-73,25c0,0,-28,25,-28,58c0,0,0,31,21,50c0,0,20,19,56,19c0,0,25,0,67,-16c0,0,30,-11,38,-11c0,0,22,0,49,23c0,0,26,23,53,89L376,28L131,542c0,0,-11,24,-36,58c0,0,-19,27,-30,36c0,0,-18,12,-56,21v26H328V657H312c0,0,-33,0,-50,-15c0,0,-17,-14,-17,-36c0,0,0,-30,25,-81L437,179L589,557c0,0,12,31,12,62c0,0,0,13,-5,20c0,0,-6,8,-19,13c0,0,-12,5,-44,5v26H754V657c0,0,-27,-3,-42,-12c0,0,-15,-9,-33,-34c0,0,-7,-10,-25,-58L376,-128c0,0,-40,-99,-105,-150c0,0,-66,-50,-126,-50Z" 
id="f0_2l"
transform="scale(0.001,-0.001)" />

<path d="M292,-20c0,0,-57,0,-100,33c0,0,-42,33,-58,85c0,0,-17,52,-17,148V551c0,0,0,49,-10,68c0,0,-11,18,-31,29c0,0,-19,9,-68,9c-2,0,-4,0,-6,0v26H242V226c0,0,0,-95,33,-125c0,0,33,-30,80,-30c0,0,32,0,73,21c0,0,40,20,96,76V555c0,0,0,59,-21,80c0,0,-22,21,-89,22v26H647V269c0,0,0,-119,6,-145c0,0,6,-27,18,-37c0,0,12,-11,29,-11c0,0,23,0,52,13L763,63L558,-20H524V124C524,124,436,29,390,4c0,0,-47,-24,-98,-24Z" 
id="f0_2h"
transform="scale(0.001,-0.001)" />

<path d="M21,0V26H35c0,0,53,0,71,27c0,0,18,27,18,101V408c0,0,0,123,-5,150c0,0,-6,27,-17,37c0,0,-12,10,-31,10c0,0,-21,0,-50,-11L10,620l206,83h32V558c0,0,120,145,229,145c0,0,56,0,96,-28c0,0,40,-28,64,-92c0,0,16,-45,16,-137V154c0,0,0,-65,11,-88c0,0,8,-19,26,-29c0,0,18,-11,68,-11V0H419V26h14c0,0,47,0,66,15c0,0,20,15,27,43c0,0,3,11,3,70V434c0,0,0,93,-24,135c0,0,-24,42,-81,42c0,0,-88,0,-176,-97V154c0,0,0,-69,9,-86c0,0,10,-21,28,-31c0,0,19,-11,75,-11V0Z" 
id="f0_2a"
transform="scale(0.001,-0.001)" />

<path d="M479,469c0,0,-4,66,-16,93c0,0,-18,42,-55,65c0,0,-37,24,-78,24c0,0,-62,0,-111,-48c0,0,-48,-48,-57,-134ZM355,-20c0,0,-123,0,-211,95c0,0,-87,96,-87,258c0,0,0,175,90,273c0,0,89,98,225,98c0,0,115,0,189,-76c0,0,74,-75,74,-202H162c0,0,0,-152,74,-239c0,0,75,-86,175,-86c0,0,67,0,117,36c0,0,50,37,83,127l24,-15c0,0,-16,-102,-91,-186c0,0,-76,-83,-189,-83Z" 
id="f0_21"
transform="scale(0.001,-0.001)" />

<path d="M17,0V26c0,0,52,0,77,17c0,0,19,12,26,38c0,0,4,13,4,73V419c0,0,0,119,-5,142c0,0,-4,23,-17,33c0,0,-13,11,-33,11c0,0,-23,0,-52,-11l-7,26l207,83h31V549c0,0,86,154,176,154c0,0,41,0,68,-25c0,0,27,-25,27,-58c0,0,0,-29,-20,-49c0,0,-19,-20,-46,-20c0,0,-26,0,-58,25c0,0,-33,26,-48,26c0,0,-14,0,-29,-15c0,0,-34,-30,-70,-101V159c0,0,0,-56,15,-85c0,0,9,-20,34,-34c0,0,24,-14,71,-14V0Z" 
id="f0_2e"
transform="scale(0.001,-0.001)" />

<path d="M312,-20c0,0,-62,0,-143,22c0,0,-25,8,-40,8c0,0,-18,0,-27,-19H77V234h25c0,0,21,-105,80,-158c0,0,59,-53,132,-53c0,0,51,0,84,31c0,0,32,30,32,72c0,0,0,52,-36,87c0,0,-36,35,-144,88c0,0,-109,54,-142,97c0,0,-34,43,-34,107c0,0,0,85,58,141c0,0,58,57,150,57c0,0,40,0,97,-17c0,0,38,-11,51,-11c0,0,12,0,19,5c0,0,7,5,15,23h25V470H464c0,0,-28,110,-72,149c0,0,-45,40,-113,40c0,0,-53,0,-85,-28c0,0,-32,-27,-32,-61c0,0,0,-41,24,-71c0,0,23,-31,94,-65L389,381c0,0,152,-74,152,-194c0,0,0,-94,-71,-151c0,0,-70,-56,-158,-56Z" 
id="f0_2f"
transform="scale(0.001,-0.001)" />

<path d="M23,0V26c0,0,47,0,66,10c0,0,19,11,28,33c0,0,10,22,10,85V416c0,0,0,112,-7,145c0,0,-5,25,-16,34c0,0,-11,10,-31,10c0,0,-21,0,-50,-11L12,620l207,83h32V557c0,0,75,75,88,86c0,0,34,29,72,44c0,0,39,16,77,16c0,0,64,0,110,-37c0,0,47,-38,62,-109c0,0,77,90,130,118c0,0,53,28,109,28c0,0,54,0,96,-28c0,0,42,-28,67,-91c0,0,16,-43,16,-136V154c0,0,0,-64,10,-88c0,0,8,-16,28,-28c0,0,20,-12,65,-12V0H844V26h14c0,0,44,0,69,18c0,0,17,12,24,38c0,0,3,13,3,72V448c0,0,0,83,-20,117c0,0,-29,48,-93,48c0,0,-39,0,-79,-20c0,0,-40,-19,-97,-73l-1,-8l2,-32V154c0,0,0,-70,8,-87c0,0,7,-17,29,-29c0,0,21,-12,73,-12V0H431V26c0,0,57,0,78,14c0,0,21,13,29,40c0,0,4,13,4,74V448c0,0,0,83,-25,120c0,0,-33,48,-91,48c0,0,-40,0,-80,-22c0,0,-61,-33,-95,-74V154c0,0,0,-67,10,-87c0,0,9,-20,27,-30c0,0,18,-11,74,-11V0Z" 
id="f0_29"
transform="scale(0.001,-0.001)" />

<path d="M82,-253v33c0,0,77,25,119,78c0,0,42,54,42,114c0,0,0,14,-7,23c0,0,-5,6,-11,6c0,0,-8,0,-35,-14c0,0,-14,-7,-28,-7c0,0,-37,0,-58,21C104,1,82,23,82,61c0,0,0,36,28,62c0,0,28,27,68,27c0,0,49,0,88,-43c0,0,38,-43,38,-113c0,0,0,-77,-53,-143c0,0,-53,-66,-169,-104Z" 
id="f0_g"
transform="scale(0.001,-0.001)" />

<path d="M156,598L115,819c0,0,-16,92,-16,124c0,0,0,48,20,70c0,0,19,21,53,21c0,0,33,0,55,-22c0,0,21,-22,21,-58c0,0,0,-29,-19,-135L189,598Zm274,0L390,816l-16,91c0,0,-1,18,-1,37c0,0,0,47,20,69c0,0,21,21,56,21c0,0,32,0,53,-21c0,0,21,-22,21,-58c0,0,0,-64,-14,-138L466,598Z" 
id="f0_6"
transform="scale(0.001,-0.001)" />

<path d="M31,0V27H67c0,0,36,0,68,18c0,0,24,12,32,36c0,0,9,24,9,98V836c0,0,0,96,-19,119c0,0,-27,30,-90,30H31v27H811L822,790H792c0,0,-15,80,-34,110c0,0,-19,30,-57,46c0,0,-29,11,-105,11H319V557H541c0,0,87,0,116,26c0,0,39,35,44,121h27V352H701c0,0,-11,74,-21,95c0,0,-14,26,-45,41c0,0,-30,15,-94,15H319V168c0,0,0,-67,6,-81c0,0,6,-15,21,-24c0,0,15,-8,56,-8H574c0,0,86,0,124,12c0,0,39,12,75,47c0,0,46,46,95,139h30L811,0Z" 
id="f0_15"
transform="scale(0.001,-0.001)" />

<path d="M58,0V26c0,0,47,0,64,10c0,0,18,10,28,32c0,0,9,23,9,86V775c0,0,0,116,-5,142c0,0,-5,27,-17,37c0,0,-11,9,-29,9c0,0,-20,0,-49,-12L46,978l204,83h34V154c0,0,0,-64,9,-85c0,0,9,-21,29,-32c0,0,19,-11,72,-11V0Z" 
id="f0_28"
transform="scale(0.001,-0.001)" />

<path d="M342,-20c0,0,-116,0,-203,97c0,0,-86,98,-86,264c0,0,0,161,96,261c0,0,95,101,230,101c0,0,100,0,165,-53c0,0,65,-54,65,-111c0,0,0,-29,-18,-46c0,0,-18,-18,-51,-18c0,0,-44,0,-66,29c0,0,-13,15,-17,59c0,0,-4,45,-30,68c0,0,-26,22,-73,22c0,0,-74,0,-120,-55c0,0,-60,-73,-60,-193c0,0,0,-122,60,-216c0,0,60,-93,162,-93c0,0,73,0,131,49c0,0,41,35,80,126l22,-10C629,261,601,125,521,52c0,0,-81,-72,-179,-72Z" 
id="f0_1z"
transform="scale(0.001,-0.001)" />

<path d="M411,-239c0,0,134,0,198,48c0,0,64,47,64,100c0,0,0,39,-38,55c0,0,-39,16,-154,19c0,0,-167,5,-258,17c0,0,-35,-37,-53,-70c0,0,-17,-32,-17,-60c0,0,0,-36,43,-62c0,0,74,-47,215,-47ZM380,257c0,0,56,0,93,43c0,0,36,42,36,133c0,0,0,118,-51,185c0,0,-38,49,-98,49c0,0,-55,0,-92,-44c0,0,-37,-44,-37,-135c0,0,0,-117,50,-182c0,0,39,-49,99,-49ZM345,-328c0,0,-144,0,-243,64c0,0,-56,38,-56,78c0,0,0,18,8,36c0,0,13,27,52,76c0,0,5,7,76,80c0,0,-39,23,-55,41c0,0,-16,19,-16,42c0,0,0,26,22,61c0,0,21,35,98,100c0,0,-63,30,-97,85c0,0,-33,55,-33,121c0,0,0,101,76,174c0,0,77,73,196,73c0,0,98,0,170,-48H688c0,0,32,0,37,-2c0,0,6,-2,8,-6c0,0,4,-7,4,-24c0,0,0,-20,-4,-27c0,0,-2,-4,-7,-6c0,0,-6,-2,-38,-2H599c0,0,41,-54,41,-137c0,0,0,-96,-73,-163c0,0,-73,-68,-196,-68c0,0,-51,0,-104,15c0,0,-33,-28,-44,-49c0,0,-12,-22,-12,-37c0,0,0,-12,13,-24c0,0,12,-12,48,-17c0,0,21,-4,104,-6c0,0,154,-4,199,-11c0,0,70,-10,111,-51c0,0,42,-41,42,-102c0,0,0,-84,-79,-158c0,0,-117,-108,-304,-108Z" 
id="f0_23"
transform="scale(0.001,-0.001)" />

<path d="M55,0V26c0,0,50,0,67,10c0,0,17,10,27,32c0,0,10,23,10,86V418c0,0,0,111,-6,144c0,0,-6,24,-17,33c0,0,-11,10,-30,10c0,0,-21,0,-51,-11L45,620l206,83h33V154c0,0,0,-64,9,-85c0,0,9,-22,27,-32c0,0,19,-11,67,-11V0ZM222,909c0,0,-32,0,-54,23c0,0,-22,22,-22,53c0,0,0,32,22,54c0,0,22,22,54,22c0,0,31,0,53,-22c0,0,22,-22,22,-54c0,0,0,-31,-22,-53c0,0,-22,-23,-53,-23Z" 
id="f0_25"
transform="scale(0.001,-0.001)" />

<path d="M336,-20L117,554c0,0,-21,55,-42,74c0,0,-21,19,-66,29v26H296V657c0,0,-40,-3,-52,-14c0,0,-13,-12,-13,-33c0,0,0,-23,13,-56L390,162L537,481L498,581c0,0,-18,46,-47,63c0,0,-17,11,-61,13v26H716V657c0,0,-54,-2,-77,-20c0,0,-15,-12,-15,-39c0,0,0,-15,6,-30L785,177L929,554c0,0,15,40,15,65c0,0,0,14,-15,25c0,0,-14,12,-57,13v26h216V657c0,0,-65,-10,-95,-89L764,-20H733L563,415L363,-20Z" 
id="f0_2j"
transform="scale(0.001,-0.001)" />

<path d="M376,-20L133,556c0,0,-17,41,-31,58c0,0,-15,18,-39,30c0,0,-12,7,-50,13v26H335V657H314c0,0,-29,0,-44,-14c0,0,-16,-14,-15,-38c0,0,-1,-26,15,-62L429,165L588,557c0,0,17,42,17,64c0,0,0,10,-6,17c0,0,-8,11,-21,15c0,0,-13,4,-52,4v26H750V657c0,0,-39,-3,-54,-16c0,0,-26,-23,-47,-76L409,-20Z" 
id="f0_2i"
transform="scale(0.001,-0.001)" />

<path d="M398,24c0,0,74,0,120,58c0,0,61,76,61,214c0,0,0,156,-69,240c0,0,-47,59,-113,59c0,0,-36,0,-71,-18c0,0,-27,-14,-88,-81V242c0,0,0,-83,6,-109c0,0,11,-43,51,-76c0,0,41,-33,103,-33ZM-4,-326v27H15c5,0,42,0,69,16c0,0,14,8,22,26c0,0,7,19,7,94V481c0,0,0,67,-6,85c0,0,-5,18,-18,27c0,0,-13,9,-36,9c0,0,-18,0,-45,-10L0,615l209,85h29V540c0,0,53,91,106,127c0,0,53,36,112,36c0,0,103,0,172,-80c0,0,84,-99,84,-257c0,0,0,-176,-102,-292c0,0,-83,-94,-210,-94c0,0,-55,0,-95,16c0,0,-30,10,-67,44V-167c0,0,0,-71,8,-90c0,0,9,-20,30,-31c0,0,21,-11,77,-11v-27Z" 
id="f0_2c"
transform="scale(0.001,-0.001)" />

<path d="M328,-20c0,0,-34,0,-58,24c0,0,-25,24,-25,58c0,0,0,35,25,59c0,0,24,24,58,24c0,0,34,0,59,-24c0,0,24,-24,24,-59c0,0,0,-34,-25,-58c0,0,-24,-24,-58,-24ZM308,238c0,0,5,94,23,155c0,0,18,62,76,172c0,0,44,84,58,129c0,0,13,46,13,92c0,0,0,95,-50,150c0,0,-50,56,-123,56c0,0,-65,0,-102,-30c0,0,-38,-31,-38,-67c0,0,0,-27,23,-67c0,0,22,-41,22,-62c0,0,0,-26,-17,-45c0,0,-17,-18,-42,-18c0,0,-31,0,-57,31c0,0,-26,31,-26,86c0,0,0,85,73,150c0,0,72,64,196,64c0,0,153,0,225,-89c0,0,54,-66,54,-146c0,0,0,-54,-24,-112c0,0,-25,-57,-92,-135C500,552,391,430,367,378c0,0,-24,-51,-29,-140Z" 
id="f0_z"
transform="scale(0.001,-0.001)" />

<path d="M678,393L506,802L330,393ZM11,0V27c0,0,63,12,82,30c0,0,38,35,84,145l356,832h27L912,193c0,0,43,-101,77,-132c0,0,35,-30,97,-34V0H687V27c0,0,60,3,82,21c0,0,21,17,21,41c0,0,0,33,-30,104L700,338H307L239,179c0,0,-26,-59,-26,-88c0,0,0,-23,22,-41c0,0,22,-17,95,-23V0Z" 
id="f0_11"
transform="scale(0.001,-0.001)" />

<path d="M191,-20c0,0,-34,0,-58,24c0,0,-24,24,-24,58c0,0,0,35,24,59c0,0,24,24,58,24c0,0,35,0,59,-24c0,0,24,-25,24,-59c0,0,0,-34,-24,-58c0,0,-25,-24,-59,-24Z" 
id="f0_i"
transform="scale(0.001,-0.001)" />

<path d="M63,0V26H93c0,0,30,0,54,15c0,0,25,15,34,41c0,0,10,25,10,99V630H58v53H191v45c0,0,0,102,33,173c0,0,32,71,100,114c0,0,68,44,152,44c0,0,79,0,145,-51c0,0,43,-33,43,-75c0,0,0,-22,-19,-42c0,0,-20,-20,-42,-20c0,0,-17,0,-36,12c0,0,-19,13,-47,53c0,0,-28,41,-51,55c0,0,-23,14,-51,14c0,0,-35,0,-58,-18c0,0,-24,-18,-35,-57c0,0,-10,-38,-10,-197V683H491V630H315V181c0,0,0,-96,21,-122c0,0,27,-33,73,-33h62V0Z" 
id="f0_22"
transform="scale(0.001,-0.001)" />

<path d="M25,0V27H61c0,0,64,0,91,39c0,0,16,24,16,109V837c0,0,0,67,-15,97c0,0,-10,22,-38,36c0,0,-28,15,-90,15v27H312L678,220l363,792h285V985h-35c0,0,-64,0,-91,-39c0,0,-17,-24,-17,-109V175c0,0,0,-93,21,-116c0,0,28,-32,87,-32h35V0H898V27h36c0,0,64,0,90,39c0,0,17,24,17,109V852L649,0H625L234,852V175c0,0,0,-93,20,-116c0,0,27,-32,87,-32h35V0Z" 
id="f0_1d"
transform="scale(0.001,-0.001)" />

<path d="M83,0C83,0,48,0,24,24C24,24,0,49,0,83c0,0,0,34,24,58c0,0,24,24,59,24c0,0,34,0,58,-24c0,0,24,-24,24,-58c0,0,0,-34,-24,-59C141,24,117,0,83,0ZM695,0c0,0,-34,0,-58,24c0,0,-25,25,-25,59c0,0,0,34,25,58c0,0,24,24,58,24c0,0,34,0,58,-24c0,0,24,-24,24,-58c0,0,0,-34,-24,-59C753,24,729,0,695,0ZM388,594c0,0,-34,0,-59,23c0,0,-24,24,-24,59c0,0,0,34,24,58c0,0,25,25,59,25c0,0,34,0,58,-25c0,0,24,-24,24,-58c0,0,0,-35,-24,-59c0,0,-24,-23,-58,-23Z" 
id="f1_1s"
transform="scale(0.001,-0.001)" />

<path d="M379,437c0,0,34,0,81,16c0,0,47,17,83,47c0,0,14,97,14,155c0,0,0,72,-25,156c0,0,-25,83,-70,128c0,0,-45,45,-103,45c0,0,-66,0,-116,-60c0,0,-50,-59,-50,-177c0,0,0,-157,66,-246c0,0,49,-64,120,-64ZM80,-20V7c0,0,97,1,181,45c0,0,83,44,161,153c0,0,78,109,109,240c0,0,-117,-75,-212,-75c0,0,-107,0,-183,82c0,0,-76,82,-76,219c0,0,0,132,76,236c0,0,92,126,240,126c0,0,124,0,213,-103c0,0,109,-128,109,-315c0,0,0,-169,-82,-314C616,301,533,155,385,59c0,0,-120,-79,-262,-79Z" 
id="f0_t"
transform="scale(0.001,-0.001)" />

<path d="M38,0V27H74c0,0,63,0,91,37c0,0,18,24,18,115V833c0,0,0,77,-10,102c0,0,-7,18,-30,32c0,0,-33,18,-69,18H38v27H470V985H434c0,0,-62,0,-90,-37c0,0,-18,-24,-18,-115V179c0,0,0,-77,9,-102c0,0,8,-18,31,-32c0,0,32,-18,68,-18h36V0Z" 
id="f0_19"
transform="scale(0.001,-0.001)" />

<path d="M452,373V875L97,373ZM452,0V267H23v95l470,671h82V373H711V267H575V0Z" 
id="f0_o"
transform="scale(0.001,-0.001)" />

<path d="M197,0V27c0,0,71,2,92,13c0,0,21,10,29,29c0,0,9,18,9,109V725c0,0,0,110,-8,141c0,0,-5,24,-19,35c0,0,-14,11,-33,11c0,0,-28,0,-77,-23l-11,23l246,121h25V178c0,0,0,-85,7,-106c0,0,7,-21,29,-32c0,0,23,-11,91,-13V0Z" 
id="f0_l"
transform="scale(0.001,-0.001)" />

<path d="M33,0V27c0,0,264,241,371,393c0,0,108,152,108,278c0,0,0,96,-59,158c0,0,-59,62,-141,62c0,0,-75,0,-134,-43c0,0,-59,-44,-88,-128H63c0,0,18,138,95,212c0,0,77,74,193,74c0,0,123,0,205,-80c0,0,83,-79,83,-186c0,0,0,-77,-36,-154c0,0,-55,-121,-179,-256C424,357,238,154,191,112H455c0,0,81,0,114,6c0,0,32,6,58,25c0,0,27,18,46,52h27L630,0Z" 
id="f0_m"
transform="scale(0.001,-0.001)" />

<path d="M247,-17c0,0,-91,0,-132,30c0,0,-42,31,-42,68c0,0,0,21,17,37c0,0,18,16,44,17c0,0,19,0,34,-6c0,0,14,-7,49,-31c0,0,56,-39,113,-39c0,0,88,0,154,66c0,0,66,66,66,161c0,0,0,92,-59,171c0,0,-59,80,-163,123c0,0,-81,34,-221,39l194,393H663L605,885H301L234,750c0,0,198,-29,313,-147c0,0,100,-102,100,-239c0,0,0,-80,-33,-148c0,0,-32,-68,-81,-116c0,0,-50,-47,-110,-77c0,0,-86,-40,-176,-40Z" 
id="f0_p"
transform="scale(0.001,-0.001)" />

<path d="M13,0V26c0,0,52,0,78,13c0,0,16,8,24,25c0,0,11,25,11,86V773c0,0,0,118,-5,145c0,0,-5,26,-17,36c0,0,-12,10,-32,10c0,0,-15,0,-47,-13L13,978l203,83h34V381L424,540c0,0,55,50,64,64c0,0,6,9,6,18c0,0,0,15,-12,26c0,0,-13,11,-41,12v23H738V660c0,0,-61,-2,-102,-19c0,0,-40,-17,-89,-62L372,418L547,196c0,0,73,-92,98,-117c0,0,36,-35,63,-45c0,0,18,-8,65,-8V0H441V26c0,0,28,1,38,9c0,0,10,8,10,22c0,0,0,17,-29,56L250,381V154c0,0,0,-67,10,-88c0,0,9,-21,26,-30c0,0,17,-9,75,-10V0Z" 
id="f0_27"
transform="scale(0.001,-0.001)" />

<path d="M553,-21L174,849c0,0,-29,67,-41,82c0,0,-19,24,-46,37c0,0,-27,13,-73,17v27H427V985c0,0,-70,-7,-91,-24c0,0,-21,-17,-21,-44c0,0,0,-38,34,-117L607,207L846,793c0,0,35,86,35,120c0,0,0,22,-22,41c0,0,-21,20,-73,28c0,0,-4,1,-13,3v27h311V985c0,0,-53,-10,-81,-35c0,0,-39,-37,-70,-112L581,-21Z" 
id="f0_1m"
transform="scale(0.001,-0.001)" />

<path d="M238,-17c0,0,-103,0,-139,25C99,8,62,33,62,62c0,0,0,22,17,38c0,0,18,16,42,16c0,0,19,0,38,-6c0,0,13,-3,58,-27c0,0,45,-23,62,-28c0,0,27,-8,59,-8c0,0,76,0,132,59c0,0,56,59,56,140c0,0,0,59,-26,115c0,0,-19,41,-42,63c0,0,-32,30,-88,54c0,0,-56,25,-114,25H232v22c0,0,59,8,118,42c0,0,59,35,86,85c0,0,27,49,27,108c0,0,0,76,-48,124c0,0,-48,47,-120,47c0,0,-116,0,-193,-124L77,819c0,0,44,102,110,158c0,0,66,56,164,56c0,0,122,0,187,-80c0,0,49,-58,49,-126c0,0,0,-110,-139,-228c0,0,93,-36,141,-104c0,0,48,-68,48,-160c0,0,0,-131,-84,-227C553,108,444,-17,238,-17Z" 
id="f0_n"
transform="scale(0.001,-0.001)" />

<path d="M379,29c0,0,41,0,84,37c0,0,43,36,65,121c0,0,34,128,34,362c0,0,0,173,-35,288c0,0,-27,86,-69,122c0,0,-31,25,-74,25c0,0,-51,0,-90,-46c0,0,-54,-62,-73,-195c0,0,-20,-132,-20,-261c0,0,0,-209,52,-341c0,0,42,-112,126,-112Zm-2,-46c0,0,-145,0,-241,170c0,0,-81,144,-81,347c0,0,0,173,52,298c0,0,52,125,139,186c0,0,67,49,139,49c0,0,116,0,208,-119c0,0,116,-147,116,-398c0,0,0,-176,-51,-299C658,217,608,94,529,38c0,0,-79,-55,-152,-55Z" 
id="f0_k"
transform="scale(0.001,-0.001)" />

<path d="M275,-20L578,891H299c0,0,-84,0,-120,-20c0,0,-63,-35,-101,-106l-21,8l97,239H696V983L359,-20Z" 
id="f0_r"
transform="scale(0.001,-0.001)" />

<path d="M714,-21L378,830L198,200c0,0,-20,-72,-20,-111c0,0,0,-28,19,-43c0,0,18,-14,86,-20L276,0H-46l11,26c0,0,59,2,79,10c0,0,30,12,45,32c0,0,22,31,49,117L342,903c0,0,-29,46,-62,63c0,0,-33,17,-104,20l9,26H438L746,229L913,813c0,0,21,73,21,113c0,0,0,28,-19,43c0,0,-19,16,-72,16c0,0,-9,0,-19,1l8,26h325l-9,-26c0,0,-1,0,-2,0c-9,0,-51,-1,-73,-11c0,0,-35,-16,-52,-40c0,0,-24,-35,-49,-123L733,-21Z" 
id="f2_1e"
transform="scale(0.001,-0.001)" />

<path d="M251,69c0,0,93,0,201,118c0,0,131,157,126,322c0,0,0,62,-26,90c0,0,-27,28,-74,28c0,0,-52,0,-110,-44c0,0,-83,-62,-148,-185c0,0,-64,-122,-64,-221c0,0,0,-50,28,-79c0,0,29,-29,67,-29ZM183,-17c0,0,-60,0,-103,44C80,27,36,71,36,149c0,0,0,117,77,247c0,0,77,130,195,208c0,0,92,62,174,62c0,0,49,0,82,-22c0,0,32,-22,49,-73l24,77l115,18L609,160L593,92c0,0,-2,-10,-2,-17c0,0,0,-10,5,-19c0,0,4,-6,11,-6c0,0,6,0,17,11c0,0,21,20,55,88l25,-18c0,0,-43,-75,-89,-112c0,0,-45,-36,-84,-36c0,0,-27,0,-42,16c0,0,-15,15,-15,46c0,0,0,36,17,96l16,55C507,196,399,69,309,19c0,0,-64,-36,-126,-36Z" 
id="f2_1x"
transform="scale(0.001,-0.001)" />

<path d="M-40,0l10,26c0,0,57,2,77,11c0,0,30,13,44,34c0,0,20,31,48,128L313,811c0,0,20,71,20,113c0,0,0,30,-19,46c0,0,-19,16,-74,16H225l9,26H614l-8,-26h-1c-9,0,-48,-1,-69,-11c0,0,-32,-16,-47,-40c0,0,-15,-25,-44,-124L369,549L729,821c0,0,72,54,94,86c0,0,14,20,14,36c0,0,0,13,-14,26c0,0,-14,13,-42,17l7,26h325l-7,-26c0,0,-53,-9,-89,-24c0,0,-36,-15,-74,-41c0,0,-11,-7,-146,-112L485,573L738,188c0,0,67,-104,111,-133c0,0,44,-29,116,-29L956,0H524l7,26c0,0,52,6,73,25c0,0,21,20,21,44c0,0,0,23,-7,44c0,0,-6,15,-44,74L367,533L267,185c0,0,-25,-75,-25,-100c0,0,0,-26,21,-40c0,0,21,-14,103,-19L354,0Z" 
id="f2_1b"
transform="scale(0.001,-0.001)" />

<path d="M518,-21c0,0,-124,0,-220,50c0,0,-95,52,-145,146c0,0,-50,94,-50,202c0,0,0,166,88,322c0,0,89,157,244,246c0,0,155,89,312,89c0,0,74,0,166,-34c0,0,40,-15,58,-15c0,0,18,0,31,7c0,0,14,8,45,42h28L999,707H972l-3,82c0,0,-4,45,-17,80c0,0,-14,35,-40,61c0,0,-27,26,-68,40c0,0,-41,15,-91,15c0,0,-134,0,-234,-73c0,0,-127,-94,-199,-264c0,0,-60,-140,-60,-284c0,0,0,-147,86,-234c0,0,86,-88,223,-88c0,0,104,0,185,46c0,0,81,47,151,143h35C940,231,858,100,757,39c0,0,-100,-60,-239,-60Z" 
id="f2_13"
transform="scale(0.001,-0.001)" />

<path d="M2,0l8,26H31c0,0,73,0,106,35c0,0,24,24,50,107L403,923c0,0,-25,33,-47,44c0,0,-22,12,-83,19l8,26H536L637,193l595,819h239V986c0,0,-80,-6,-94,-12c0,0,-25,-11,-46,-43c0,0,-20,-32,-44,-124L1102,165c0,0,-16,-50,-16,-79c0,0,0,-27,20,-40c0,0,28,-20,89,-20h18L1206,0H787l7,26h20c0,0,57,0,87,17c0,0,23,12,41,45c0,0,18,34,51,148l166,587L564,0H533L431,823L254,197c0,0,-23,-80,-23,-108c0,0,0,-28,20,-43c0,0,20,-14,97,-20L340,0Z" 
id="f2_1d"
transform="scale(0.001,-0.001)" />

<path d="M293,20c0,0,105,0,197,156c0,0,92,156,92,317c0,0,0,69,-34,106c0,0,-33,37,-87,37c0,0,-110,0,-202,-157c0,0,-92,-157,-92,-312c0,0,0,-71,36,-109c0,0,36,-38,90,-38ZM276,-17c0,0,-102,0,-167,65c0,0,-64,65,-64,168c0,0,0,110,63,220c0,0,63,111,168,175c0,0,106,64,204,64c0,0,99,0,162,-65c0,0,64,-65,64,-169c0,0,0,-111,-59,-221C647,220,588,111,482,46c0,0,-106,-63,-206,-63Z" 
id="f2_2b"
transform="scale(0.001,-0.001)" />

<path d="M505,-17c0,0,-26,0,-43,17c0,0,-17,17,-17,45c0,0,0,33,30,122l97,298c0,0,18,56,18,88c0,0,0,15,-10,24c0,0,-10,9,-26,9c0,0,-24,0,-54,-17c0,0,-55,-31,-127,-116c0,0,-20,-23,-130,-186c0,0,-34,-52,-54,-114L142,0H30L274,854l27,92c0,0,0,19,-16,34c0,0,-17,15,-40,15c0,0,-13,0,-41,-4l-16,-2v29l257,43L239,338c0,0,144,203,225,270c0,0,81,67,155,67c0,0,38,0,63,-27c0,0,26,-27,26,-71c0,0,0,-49,-24,-118L583,149c0,0,-19,-57,-19,-62c0,0,0,-11,6,-17c0,0,5,-6,13,-6c0,0,8,0,20,9c0,0,38,32,75,90l23,-14c0,0,-24,-39,-67,-85C634,64,591,18,560,0c0,0,-31,-17,-55,-17Z" 
id="f2_24"
transform="scale(0.001,-0.001)" />

<path d="M269,-17c0,0,-105,0,-165,59c0,0,-59,60,-59,160c0,0,0,114,64,225c0,0,64,110,171,179c0,0,108,69,212,69c0,0,81,0,121,-34c0,0,41,-34,41,-83c0,0,0,-46,-29,-79c0,0,-21,-25,-51,-25c0,0,-24,0,-39,15c0,0,-15,14,-15,37c0,0,0,14,5,26c0,0,6,12,23,29c0,0,18,16,22,24c0,0,4,7,4,15c0,0,0,16,-15,27c0,0,-21,14,-61,14c0,0,-73,0,-144,-51c0,0,-72,-51,-123,-146c0,0,-61,-115,-61,-229c0,0,0,-76,44,-121c0,0,43,-44,117,-44c0,0,58,0,114,29c0,0,56,28,126,104l22,-20C593,163,515,70,436,26c0,0,-79,-43,-167,-43Z" 
id="f2_1z"
transform="scale(0.001,-0.001)" />

<path d="M-33,0l9,26c0,0,58,2,78,11c0,0,30,13,43,34c0,0,20,31,48,130L318,812c0,0,21,74,21,113c0,0,0,28,-20,45c0,0,-20,16,-77,16H226l9,26H966L904,769H878c0,0,5,34,5,57c0,0,0,39,-20,66c0,0,-25,34,-74,52c0,0,-36,13,-166,13H488L374,557h99c0,0,102,0,148,31c0,0,46,31,79,115h26L623,336H593c0,0,13,46,13,79c0,0,0,32,-13,52c0,0,-13,19,-36,28c0,0,-23,10,-95,10H361L263,156c0,0,-14,-43,-14,-66c0,0,0,-17,19,-30c0,0,13,-9,65,-9h93c0,0,145,0,233,51c0,0,87,52,157,180h27L747,0Z" 
id="f2_15"
transform="scale(0.001,-0.001)" />

<path d="M228,-17c0,0,-18,471,-75,588c0,0,-19,38,-62,38c0,0,-19,0,-53,-7l-5,27l216,46c0,0,23,-55,37,-113c0,0,20,-84,33,-199c0,0,6,-58,16,-246c0,0,94,103,111,127c0,0,99,133,114,157c0,0,24,39,34,69c0,0,8,22,8,42c0,0,0,20,-35,45c0,0,-35,25,-35,57c0,0,0,23,20,42c0,0,19,19,45,19c0,0,31,0,55,-26c0,0,24,-26,24,-64c0,0,0,-38,-12,-73c0,0,-19,-56,-72,-138c0,0,-53,-82,-171,-219c0,0,-15,-17,-166,-172Z" 
id="f2_2i"
transform="scale(0.001,-0.001)" />

<path d="M125,-21c0,0,-86,0,-130,38c0,0,-46,40,-46,97c0,0,0,44,28,74c0,0,27,30,66,30c0,0,34,0,55,-20c0,0,21,-20,21,-49c0,0,0,-24,-19,-46C100,103,75,75,75,64c0,0,0,-15,14,-28c0,0,15,-13,39,-13c0,0,34,0,71,17c0,0,37,16,69,50c0,0,33,33,57,80c0,0,24,47,49,128l37,129L519,811c0,0,25,85,25,106c0,0,0,28,-23,46c0,0,-22,18,-95,23l9,26H825l-8,-26c0,0,-77,-1,-109,-32c0,0,-31,-30,-65,-163L518,344c0,0,-36,-119,-73,-182C445,162,396,78,312,28c0,0,-83,-49,-187,-49Z" 
id="f2_1a"
transform="scale(0.001,-0.001)" />

<path d="M620,-14c0,0,-52,0,-93,43c0,0,-41,45,-77,203L384,522L132,0H0L340,703l-12,66c0,0,-23,107,-61,146c0,0,-37,38,-83,38c0,0,-42,0,-74,-30c0,0,-31,-31,-41,-100H43c0,0,2,117,57,187c0,0,40,51,96,51c0,0,50,0,86,-40c0,0,54,-60,88,-213L489,283c0,0,27,-118,62,-153c0,0,33,-36,79,-36c0,0,43,0,71,29c0,0,28,29,33,94h30c0,0,1,-19,1,-29c0,0,0,-98,-49,-158c0,0,-37,-44,-96,-44Z" 
id="f3_28"
transform="scale(0.001,-0.001)" />

<path d="M0,214v74H784V214ZM0,494v72H784V494Z" 
id="f4_x"
transform="scale(0.001,-0.001)" />

<path d="M187,318c0,0,111,12,181,43c0,0,92,41,138,98c0,0,46,57,46,108c0,0,0,32,-20,51c0,0,-20,20,-56,20c0,0,-77,0,-163,-81c0,0,-85,-81,-126,-239ZM268,-17c0,0,-110,0,-165,68c0,0,-55,69,-55,151c0,0,0,111,69,228c0,0,68,116,172,180c0,0,104,65,213,65c0,0,79,0,118,-32c0,0,38,-32,38,-76c0,0,0,-62,-50,-119c0,0,-65,-73,-191,-119c0,0,-84,-30,-235,-47c0,0,-5,-38,-5,-62c0,0,0,-67,47,-114c0,0,47,-46,114,-46c0,0,54,0,104,22c0,0,50,22,148,97l15,-21C605,158,428,-17,268,-17Z" 
id="f2_21"
transform="scale(0.001,-0.001)" />

<path d="M232,-21l84,842c0,0,6,64,6,86c0,0,0,34,-25,56c0,0,-25,23,-79,23H191l7,26H598l-9,-26c0,0,-64,-1,-89,-14c0,0,-24,-13,-38,-44c0,0,-8,-16,-16,-94L387,231L781,769c0,0,65,88,81,123c0,0,11,23,11,40c0,0,0,20,-17,36c0,0,-17,15,-64,18l9,26h304l-8,-26c0,0,-36,-3,-58,-15c0,0,-41,-19,-82,-59c0,0,-40,-39,-128,-159L259,-21Z" 
id="f2_1m"
transform="scale(0.001,-0.001)" />

<path d="M394,23c0,0,80,0,129,45c0,0,48,45,48,110c0,0,0,54,-28,97c0,0,-53,79,-214,206c0,0,-62,-52,-92,-114c0,0,-30,-61,-30,-133c0,0,0,-96,53,-154c0,0,52,-57,134,-57Zm17,566c0,0,90,81,114,128c0,0,24,46,24,105c0,0,0,79,-44,123c0,0,-44,45,-121,45c0,0,-76,0,-124,-45c0,0,-48,-44,-48,-103c0,0,0,-38,20,-77c0,0,20,-39,56,-74L411,589ZM382,-17c0,0,-144,0,-225,90c0,0,-64,72,-64,158c0,0,0,67,45,133c0,0,45,66,156,146c0,0,-121,98,-156,158c0,0,-34,59,-34,124c0,0,0,98,76,169c0,0,76,72,202,72c0,0,123,0,198,-67c0,0,74,-66,74,-151c0,0,0,-57,-40,-116c0,0,-40,-59,-168,-139c0,0,132,-101,174,-159c0,0,57,-76,57,-161c0,0,0,-106,-82,-182c0,0,-81,-75,-213,-75Z" 
id="f0_s"
transform="scale(0.001,-0.001)" />

<path d="M405,24c0,0,65,0,116,62c0,0,51,61,51,174c0,0,0,128,-50,221c0,0,-51,93,-144,93c0,0,-29,0,-61,-12c0,0,-33,-12,-96,-51c0,0,-14,-101,-14,-163c0,0,0,-72,27,-155c0,0,26,-84,79,-134c0,0,38,-35,92,-35ZM384,-17c0,0,-104,0,-177,68C207,51,66,185,66,397c0,0,0,136,54,258c0,0,54,122,156,217c0,0,101,95,193,128c0,0,93,33,172,33h44v-28c0,0,-99,-10,-161,-39c0,0,-62,-29,-123,-90c0,0,-61,-60,-101,-135c0,0,-39,-74,-66,-176c0,0,107,73,215,73c0,0,104,0,180,-83c0,0,76,-84,76,-215c0,0,0,-126,-77,-231c0,0,-92,-126,-244,-126Z" 
id="f0_q"
transform="scale(0.001,-0.001)" />

<path d="M0,356v74H784V356Z" 
id="f4_h"
transform="scale(0.001,-0.001)" />

<path d="M52,62L0,114L278,390L0,667l52,52L330,442L608,719l51,-51L382,390L659,114L608,62L330,338L52,62Z" 
id="f4_3a"
transform="scale(0.001,-0.001)" />

<path d="M304,24V657c0,0,-49,-12,-76,-33c0,0,-42,-33,-68,-96c0,0,-26,-62,-26,-168c0,0,0,-118,30,-192c0,0,31,-75,76,-113c0,0,21,-19,64,-31Zm83,0c0,0,46,10,71,30c0,0,46,35,71,98c0,0,25,64,25,177c0,0,0,103,-23,175c0,0,-23,72,-64,110c0,0,-26,26,-80,43V24ZM304,-328V-20c0,0,-113,12,-182,70C122,50,0,154,0,339c0,0,0,73,19,131c0,0,18,58,50,102c0,0,32,44,70,72c0,0,37,28,80,42c0,0,31,10,85,17v358h83V703c0,0,149,-16,226,-117c0,0,78,-101,78,-241c0,0,0,-64,-18,-124c0,0,-19,-60,-49,-105c0,0,-30,-45,-68,-74c0,0,-37,-30,-82,-44c0,0,-31,-11,-87,-18V-328Z" 
id="f3_22"
transform="scale(0.001,-0.001)" />

<path d="M968,-20c0,0,42,100,87,170c0,0,45,70,144,184H56v73H1199c0,0,-106,122,-148,189c0,0,-43,67,-83,166h60c0,0,87,-108,217,-218c0,0,130,-110,206,-154V349c0,0,-99,-56,-217,-159c0,0,-117,-102,-206,-210Z" 
id="f4_34"
transform="scale(0.001,-0.001)" />

<path d="M45,0V81L673,391L45,704v80L795,412V374L45,0Z" 
id="f4_y"
transform="scale(0.001,-0.001)" />

<path d="M911,-16L244,799V175c0,0,0,-93,21,-116c0,0,28,-32,86,-32h36V0H36V27H71c0,0,65,0,92,39c0,0,16,24,16,109V879c0,0,-44,52,-67,68c0,0,-23,17,-67,31c0,0,-21,7,-64,7v27H253L873,253V837c0,0,0,93,-21,116c0,0,-28,32,-87,32H730v27h351V985h-36c0,0,-64,0,-91,-39c0,0,-16,-24,-16,-109V-16Z" 
id="f0_1e"
transform="scale(0.001,-0.001)" />

<path d="M751,0L0,371v39L751,783V702L122,392L751,80V0Z" 
id="f4_w"
transform="scale(0.001,-0.001)" />

<path d="M24,0V27H60c0,0,63,0,91,37c0,0,18,24,18,115V833c0,0,0,77,-10,102c0,0,-7,18,-30,32c0,0,-32,18,-69,18H24v27H776L787,790H761c0,0,-20,71,-45,104c0,0,-26,33,-64,48c0,0,-37,15,-117,15H312V558H497c0,0,63,0,93,28c0,0,29,28,39,111h27V355H629c0,0,-1,59,-16,87c0,0,-14,27,-40,41c0,0,-26,14,-76,14H312V179c0,0,0,-77,10,-102c0,0,7,-18,31,-32c0,0,33,-18,69,-18h37V0Z" 
id="f0_16"
transform="scale(0.001,-0.001)" />

<path d="M25,0V26c0,0,27,4,47,19c0,0,29,22,96,111L311,346L182,535c0,0,-55,81,-86,102c0,0,-30,20,-75,20v26H341V657c0,0,-30,0,-42,-10c0,0,-13,-11,-13,-28c0,0,0,-19,27,-56c0,0,8,-12,25,-37l48,-78l56,77c0,0,55,74,55,94c0,0,0,16,0,27c0,0,0,11,0,11v26H674V657c0,0,-37,-2,-64,-20c0,0,-37,-26,-100,-111L416,402L587,156c0,0,63,-91,89,-109c0,0,27,-18,70,-21V0H423V26c0,0,34,0,53,15c0,0,14,11,14,28c0,0,0,17,-48,87L341,302L232,157c0,0,-50,-69,-50,-82c0,0,0,-18,17,-32c0,0,17,-15,50,-17V0Z" 
id="f0_2k"
transform="scale(0.001,-0.001)" />

<path d="M1005,0c0,0,34,0,61,41c0,0,36,55,36,187c0,0,0,141,-36,196c0,0,-25,39,-61,39c0,0,-36,0,-62,-41c0,0,-34,-52,-34,-197c0,0,0,-134,35,-187c0,0,25,-38,61,-38Zm2,-41c0,0,-55,0,-106,34c0,0,-51,32,-80,94c0,0,-30,63,-30,142c0,0,0,79,29,144c0,0,30,64,81,97c0,0,51,32,104,32c0,0,53,0,105,-34c0,0,53,-33,82,-98c0,0,28,-64,28,-141c0,0,0,-132,-63,-201c0,0,-64,-69,-150,-69ZM267,524c0,0,36,0,61,39c0,0,38,57,38,192c0,0,0,142,-37,199c0,0,-24,38,-60,38c0,0,-38,0,-67,-44c0,0,-30,-45,-30,-189c0,0,0,-103,17,-158c0,0,12,-41,39,-63c0,0,16,-14,39,-14Zm3,-37c0,0,-59,0,-108,32c0,0,-49,33,-79,97c0,0,-29,64,-29,143c0,0,0,78,30,144c0,0,30,66,81,99c0,0,52,32,107,32c0,0,101,0,156,-83c0,0,56,-84,56,-192c0,0,0,-130,-63,-201c0,0,-62,-71,-151,-71ZM235,-41L972,1034h67L301,-41Z" 
id="f0_9"
transform="scale(0.001,-0.001)" />

<path d="M839,-17c0,0,-25,0,-42,17c0,0,-17,18,-17,44c0,0,0,36,35,144l78,239c0,0,26,83,28,92c0,0,3,14,3,27c0,0,0,19,-9,29c0,0,-10,11,-22,11c0,0,-34,0,-71,-32c0,0,-111,-95,-208,-266C614,288,551,176,495,0H382L517,451c0,0,22,73,22,97c0,0,0,20,-8,30c0,0,-9,10,-21,10c0,0,-25,0,-53,-18c0,0,-46,-29,-118,-125c0,0,-72,-95,-112,-182c0,0,-19,-41,-91,-263H26L165,483l17,63c0,0,6,14,6,21c0,0,0,17,-15,30c0,0,-15,13,-38,13c0,0,-10,0,-54,-9l-7,27l256,47L234,338c0,0,67,119,113,178c0,0,73,93,141,135c0,0,41,24,85,24c0,0,38,0,63,-25c0,0,25,-24,25,-62c0,0,0,-36,-18,-95L587,305c0,0,129,227,244,319c0,0,64,51,126,51c0,0,36,0,60,-26c0,0,23,-25,23,-78c0,0,0,-43,-15,-91L933,192c0,0,-31,-94,-31,-104c0,0,0,-10,6,-17c0,0,4,-5,11,-5c0,0,7,0,23,13c0,0,38,33,71,87l24,-16c0,0,-17,-30,-62,-81C975,69,929,18,898,0c0,0,-32,-17,-59,-17Z" 
id="f2_29"
transform="scale(0.001,-0.001)" />

<path d="M600,387l39,398L345,387ZM-74,0l8,26c0,0,55,3,97,37c0,0,42,35,125,149l605,822h26L710,193c0,0,-6,-59,-6,-78c0,0,0,-30,11,-46c0,0,14,-22,39,-32c0,0,24,-11,81,-11L827,0H429l8,26h17c0,0,49,0,79,21c0,0,22,15,34,48c0,0,8,23,15,109l13,128H305L202,193c0,0,-35,-47,-44,-68c0,0,-9,-20,-9,-38c0,0,0,-25,20,-42c0,0,19,-17,64,-19L225,0Z" 
id="f2_11"
transform="scale(0.001,-0.001)" />

<path d="M68,-328c0,0,-27,0,-44,20c0,0,-23,29,-23,71c0,0,0,21,9,52c0,0,20,71,25,123c0,0,9,88,9,151V683H168V253c0,0,0,-76,13,-109c0,0,13,-34,46,-53c0,0,33,-20,65,-20c0,0,39,0,92,23c0,0,53,24,108,75V683H616V234c0,0,0,-89,8,-125c0,0,7,-26,21,-37c0,0,13,-11,28,-11c0,0,19,0,35,18c0,0,16,19,24,75h30C762,154,749,54,713,16c0,0,-37,-37,-93,-37c0,0,-55,0,-88,32c0,0,-33,34,-40,116C492,127,416,43,348,10c0,0,-68,-32,-118,-32c0,0,-34,0,-66,13c0,0,-32,12,-62,37c0,0,-2,-107,19,-188c0,0,14,-57,14,-80c0,0,0,-41,-20,-65c0,0,-21,-23,-47,-23Z" 
id="f3_29"
transform="scale(0.001,-0.001)" />

<path d="M412,-18c0,0,-144,0,-239,85c0,0,-95,86,-108,222l133,18c0,0,24,-114,79,-164c0,0,55,-50,135,-50c0,0,96,0,161,65c0,0,65,66,65,163c0,0,0,92,-61,152c0,0,-60,60,-153,60c0,0,-38,0,-95,-15l15,119c0,0,13,-2,21,-2c0,0,86,0,155,45c0,0,69,44,69,137c0,0,0,74,-50,122c0,0,-50,49,-129,49c0,0,-79,0,-131,-50c0,0,-52,-49,-67,-147L78,815c0,0,25,135,112,209c0,0,87,74,217,74c0,0,89,0,164,-38c0,0,76,-39,116,-105c0,0,40,-66,40,-141c0,0,0,-70,-39,-129c0,0,-38,-58,-112,-92c0,0,97,-22,151,-93c0,0,53,-70,53,-176c0,0,0,-143,-104,-243c0,0,-105,-99,-264,-99Z" 
id="f5_n"
transform="scale(0.001,-0.001)" />


</defs>
</svg>