<?xml version="1.0" encoding="UTF-8" standalone="no"?>
<!DOCTYPE svg PUBLIC "-//W3C//DTD SVG 1.1//EN"
"http://www.w3.org/Graphics/SVG/1.1/DTD/svg11.dtd">
<svg viewBox="0 0 909 1286" version="1.1" xmlns="http://www.w3.org/2000/svg" xmlns:xlink="http://www.w3.org/1999/xlink">
<defs>
<clipPath id="c0_22"><path d="M361.5,249.1V228.2h40.7v20.9Z" /></clipPath>
<clipPath id="c1_22"><path d="M206.1,363.9V343h15v20.9Z" /></clipPath>
<clipPath id="c2_22"><path d="M204.6,389.9V369h16.5v20.9Z" /></clipPath>
<clipPath id="c3_22"><path d="M185.9,374.9V352.5h35.2v22.4Z" /></clipPath>
<clipPath id="c4_22"><path d="M299.2,710.7V689.8h20.5v20.9Z" /></clipPath>
<clipPath id="c5_22"><path d="M427.2,1003.7V982.8H565.4v20.9Z" /></clipPath>
<clipPath id="c6_22"><path d="M429,919.7V898.8H565.4v20.9Z" /></clipPath>
<clipPath id="c7_22"><path d="M519.9,985.7V964.8h45.5v20.9Z" /></clipPath>
<clipPath id="c8_22"><path d="M513.7,997.5V976.6h51.7v20.9Z" /></clipPath>
<clipPath id="c9_22"><path d="M379.9,982.4V961.5H565.4v20.9Z" /></clipPath>
<clipPath id="c10_22"><path d="M395.3,982.4V961.5H565.4v20.9Z" /></clipPath>
<clipPath id="c11_22"><path d="M461.3,978V957.1H565.4V978Z" /></clipPath>
<style type="text/css"><![CDATA[
.g0_22{
fill: none;
stroke: #FFFFFF;
stroke-width: 0.77152777;
stroke-linecap: round;
stroke-linejoin: round;
}
.g1_22{
fill: #FFFFFF;
}
.g2_22{
fill: #1F1A17;
}
.g3_22{
fill: none;
stroke: #000000;
stroke-width: 0.9059723;
stroke-linecap: round;
stroke-linejoin: round;
}
]]></style>
</defs>
<path d="M542.7,525l7.5,9.7l5.1,9.5l4.4,9.5l2,7.7l1.1,8.5l1,7l-1,7.4l-2.1,5.9l-2.1,5.7l-3.3,5.6l-3.1,4.9l-3,4.9l-7.5,6.7l-7.2,4.6L524,629.3l-8.5,5.9L505,641.9l-14.7,8.5l-8.2,5.9l-7.4,5.6l-6.2,6.7l-6.4,7.7L458,683l-4.4,7.7l-3.1,7.7l-2,6.7l-3.1,-12.6l-2.1,-11.3L441,669.7V659.1l1,-8.7l2.4,-8.5l3,-4.9l2.1,-3.9l4.1,-3.8l4.4,-3.6l16.7,-12.6l16.7,-9.5L506,594.9l14.9,-8.5l6.2,-4.9l5.3,-6.7l4.2,-6.7l4.1,-7.7l2,-7.7l2.3,-8.5v-9.5L542.7,525" class="g0_22" />
<path fill-rule="evenodd" d="M279.7,577.6L310,573.8l1.1,9.8v9.5l-1.1,1l-1,1.8l-2.1,1.8h-2l-2.1,1h-3.3l-2,-1l-2.1,-1.8l-2.1,-2.8l-11.5,9.5l-1,-9.5l11.5,-8.8l-11.5,1l-1.1,-7.7Zm16.7,6v1.7l1.1,2.1l1,1.8l1,1h3.3l1.1,-1l1,-1.8v-4.9l-8.5,1.1Zm2.1,36.2l2,8.7l9.5,-6.6l1.1,-1.1h1l1,-1H298.5Zm-14.7,-7.7l32.7,1l3.1,10.5l-26.3,20.1l-2,-8.5l4.1,-2.8l-3.1,-12.6h-5.4l-3.1,-7.7ZM329,673.5l-2.3,.8l-3,1l-3.1,1l-3.1,-1l-3.4,-1l-3,-.8L309,670.7l-2.1,-2.1l-2,-3.8l-1,-2.9v-6.6l1,-2.9l2,-2.8l1.1,-3.1l3.1,-1.8l2,-1.8l3.4,-1h6.1l3.1,1l3.3,1.8l2.1,1.8l2.1,3.1l2,2.8l1,2.9v6.6l-1,3.9l-1,2.8l-2.1,2.1l-3.1,2.8ZM312.1,664l3.3,2.8l3.1,.8h3.1l3.1,-1.8l2,-2.8l2.3,-2.9v-3.8l-1,-2.8l-2.3,-2.1l-3.1,-1h-4.1l-3.1,1l-2.3,2.8l-2,2.9v3.8l1,3.1Zm31.6,45l18.7,-26l6.4,5.7l-19,25.9L343.7,709Zm20.8,15.2l14.9,-28.9l7.2,4.9L371.9,728l-7.4,-3.8Zm26.2,12.5l7.4,-23.1L392,710.8l3.1,-6.7l19.7,7.7l-2,6.7l-6.2,-2.1l-8.5,23.2l-7.4,-2.9Zm58.8,-1H458l-4.4,-10.5v-2.9l-1,-2v3.9l-1,1l-2.1,10.5Zm-11.6,11.6l9.5,-31.7H458l11.5,31.7h-8.4L459,741.4H447.4l-1,5.9h-8.5ZM494.7,709l2.1,9.5l-2.1,-2.1h-5.4l-3.1,1.1l-2,2.8l-1,3.9l1,2.8l1,3.8l2.1,2.1l3,.7h3.1l2.3,-.7l1.1,-1l2,-1.1l1,-2.8l2.1,9.5l-1,1l-2.1,2.1l-2,.8h-2.1l-2.3,1h-4.1l-2.1,-1l-4.1,-1.8l-2.3,-2.9l-3.1,-3.1l-1,-3.6l-1,-3.8v-3.1l1,-3.6l1,-3.1l2.1,-2.8l2.3,-1.8l2.1,-1l3,-1.8h8.5Zm22.9,10.5l7.4,-4.9l-7.4,-7.7h-1.1v-1l-1,-.8l-1,-1v1l1,.8v2l2.1,11.6Zm-5.2,15.2l-4.1,-33.4l8.2,-4.9l24.2,23.9l-7.2,3.9l-4.4,-4.7l-10.5,5.7l1.3,5.6l-7.5,3.9Zm37.8,-22.1L529.1,689.7l5.4,-4.9l4.1,-4.6l3.1,-2.1l3.3,-1.8h6.2l3.1,1.1l3.1,.7l3.3,3.1l2.1,3.6l1,3.1l1,3.8v3.6l-1,2.1l-1,2.8l-3.1,2.9l-3.4,3.8l-1,1l-5.1,4.7Zm2,-11.3l1.1,-1.1l2,-2.8l1,-3.8v-2.9l-2,-2.8l-3.1,-3.1l-3.1,-.8l-3.1,.8l-3.3,3.1l-1,.8l11.5,12.6Zm28.3,-20.1L555.3,663l11.6,-16.5l5.4,3.9l-6.5,9.7L570,663l6.4,-8.8l5.1,3.9l-6.2,8.7l4.1,3.9l6.5,-9.8l6.1,4.9l-11.5,15.4ZM613.1,618l-3.1,7.7l-13.6,-3.8h-1.3l-1,-1.1l-2.1,-1h-2l2,1l2.1,1.8l1,1l11.6,9.5l-2.1,4.9L590,637h-1l-3.1,-1h-2.1l2.1,1h1l2.1,1l1,1.1l11.5,7.4l-3,7L572.3,637l3,-7.7l16.7,1v1.1h4.4h-1.3l-1,-1.1l-1,-1l-1.1,-.8L579.4,618l3.1,-7.7l30.6,7.7Zm2.1,-21.1l-13.7,-2l-17.7,8.7l1.1,-9.5l8.2,-3.1l2,-.8h1.3l-1.3,-1h-1l-1,-1l-6.2,-4.6l1,-10.6l14.7,14.4l13.6,1.8l-1,7.7Z" class="g1_22" />
<g fill="#000000" >
<use xlink:href="#f0_c" transform="matrix(12,0,0,12,117,109)" />
<use xlink:href="#f0_1y" transform="matrix(12,0,0,12,122.9,109)" />
<use xlink:href="#f0_d" transform="matrix(12,0,0,12,131.3,109)" />
<use xlink:href="#f0_14" transform="matrix(12,0,0,12,155.8,109)" />
<use xlink:href="#f0_2e" transform="matrix(12,0,0,12,168.7,109)" />
<use xlink:href="#f0_1x" transform="matrix(12,0,0,12,174.9,109)" />
<use xlink:href="#f0_2j" transform="matrix(12,0,0,12,182.6,109)" />
<use xlink:href="#f0_23" transform="matrix(12,0,0,12,198.8,109)" />
<use xlink:href="#f0_2e" transform="matrix(12,0,0,12,208,109)" />
<use xlink:href="#f0_1x" transform="matrix(12,0,0,12,213.8,109)" />
<use xlink:href="#f0_2c" transform="matrix(12,0,0,12,221.6,109)" />
<use xlink:href="#f0_24" transform="matrix(12,0,0,12,230.7,109)" />
<use xlink:href="#f0_2f" transform="matrix(12,0,0,12,239.2,109)" />
<use xlink:href="#f0_2f" transform="matrix(12,0,0,12,248.7,109)" />
<use xlink:href="#f0_24" transform="matrix(12,0,0,12,255.7,109)" />
<use xlink:href="#f0_2b" transform="matrix(12,0,0,12,264.2,109)" />
<use xlink:href="#f0_2j" transform="matrix(12,0,0,12,273.3,109)" />
<use xlink:href="#f0_25" transform="matrix(12,0,0,12,286.6,109)" />
<use xlink:href="#f0_2a" transform="matrix(12,0,0,12,290.6,109)" />
<use xlink:href="#f0_23" transform="matrix(12,0,0,12,299.1,109)" />
<use xlink:href="#f0_2i" transform="matrix(12,0,0,12,311.6,109)" />
<use xlink:href="#f0_1x" transform="matrix(12,0,0,12,320,109)" />
<use xlink:href="#f0_2e" transform="matrix(12,0,0,12,327.7,109)" />
<use xlink:href="#f0_25" transform="matrix(12,0,0,12,334,109)" />
<use xlink:href="#f0_1x" transform="matrix(12,0,0,12,338,109)" />
<use xlink:href="#f0_2g" transform="matrix(12,0,0,12,345.7,109)" />
<use xlink:href="#f0_25" transform="matrix(12,0,0,12,350.9,109)" />
<use xlink:href="#f0_2b" transform="matrix(12,0,0,12,355.3,109)" />
<use xlink:href="#f0_2a" transform="matrix(12,0,0,12,364.4,109)" />
<use xlink:href="#f0_2b" transform="matrix(12,0,0,12,376.6,109)" />
<use xlink:href="#f0_22" transform="matrix(12,0,0,12,385.7,109)" />
<use xlink:href="#f0_2i" transform="matrix(12,0,0,12,394.2,109)" />
<use xlink:href="#f0_2b" transform="matrix(12,0,0,12,403,109)" />
<use xlink:href="#f0_28" transform="matrix(12,0,0,12,412.2,109)" />
<use xlink:href="#f0_2g" transform="matrix(12,0,0,12,416.2,109)" />
<use xlink:href="#f0_1x" transform="matrix(12,0,0,12,421.7,109)" />
<use xlink:href="#f0_23" transform="matrix(12,0,0,12,429.5,109)" />
<use xlink:href="#f0_21" transform="matrix(12,0,0,12,438.3,109)" />
<use xlink:href="#f0_1x" transform="matrix(12,0,0,12,449.3,109)" />
<use xlink:href="#f0_2a" transform="matrix(12,0,0,12,457,109)" />
<use xlink:href="#f0_20" transform="matrix(12,0,0,12,465.5,109)" />
<use xlink:href="#f0_1z" transform="matrix(12,0,0,12,478,109)" />
<use xlink:href="#f0_2h" transform="matrix(12,0,0,12,485.7,109)" />
<use xlink:href="#f0_2e" transform="matrix(12,0,0,12,494.8,109)" />
<use xlink:href="#f0_2e" transform="matrix(12,0,0,12,500.7,109)" />
<use xlink:href="#f0_21" transform="matrix(12,0,0,12,506.6,109)" />
<use xlink:href="#f0_2a" transform="matrix(12,0,0,12,514.3,109)" />
<use xlink:href="#f0_2g" transform="matrix(12,0,0,12,523.1,109)" />
<use xlink:href="#f0_2j" transform="matrix(12,0,0,12,531.6,109)" />
<use xlink:href="#f0_25" transform="matrix(12,0,0,12,544.8,109)" />
<use xlink:href="#f0_2g" transform="matrix(12,0,0,12,548.9,109)" />
<use xlink:href="#f0_24" transform="matrix(12,0,0,12,554,109)" />
<use xlink:href="#f0_2g" transform="matrix(12,0,0,12,566.1,109)" />
<use xlink:href="#f0_25" transform="matrix(12,0,0,12,571.3,109)" />
<use xlink:href="#f0_29" transform="matrix(12,0,0,12,575.3,109)" />
<use xlink:href="#f0_21" transform="matrix(12,0,0,12,588.9,109)" />
<use xlink:href="#f0_2b" transform="matrix(12,0,0,12,599.6,109)" />
<use xlink:href="#f0_2i" transform="matrix(12,0,0,12,608.7,109)" />
<use xlink:href="#f0_21" transform="matrix(12,0,0,12,617.5,109)" />
<use xlink:href="#f0_2e" transform="matrix(12,0,0,12,625.3,109)" />
<use xlink:href="#f0_2b" transform="matrix(12,0,0,12,634.8,109)" />
<use xlink:href="#f0_2a" transform="matrix(12,0,0,12,644,109)" />
<use xlink:href="#f0_21" transform="matrix(12,0,0,12,652.4,109)" />
<use xlink:href="#f0_1z" transform="matrix(12,0,0,12,663.8,109)" />
<use xlink:href="#f0_2l" transform="matrix(12,0,0,12,671.6,109)" />
<use xlink:href="#f0_1z" transform="matrix(12,0,0,12,679.6,109)" />
<use xlink:href="#f0_28" transform="matrix(12,0,0,12,687.7,109)" />
<use xlink:href="#f0_21" transform="matrix(12,0,0,12,691.8,109)" />
<use xlink:href="#f0_1x" transform="matrix(12,0,0,12,702.8,109)" />
<use xlink:href="#f0_1z" transform="matrix(12,0,0,12,710.9,109)" />
<use xlink:href="#f0_g" transform="matrix(12,0,0,12,718.6,109)" />
<use xlink:href="#f0_22" transform="matrix(12,0,0,12,726.3,109)" />
<use xlink:href="#f0_2b" transform="matrix(12,0,0,12,731.5,109)" />
<use xlink:href="#f0_2e" transform="matrix(12,0,0,12,740.7,109)" />
<use xlink:href="#f0_1o" transform="matrix(12,0,0,12,750.2,109)" />
<use xlink:href="#f0_i" transform="matrix(12,0,0,12,763.1,109)" />
<use xlink:href="#f0_11" transform="matrix(12,0,0,12,64.9,138)" />
<use xlink:href="#f0_2a" transform="matrix(12,0,0,12,77.4,138)" />
<use xlink:href="#f0_2f" transform="matrix(12,0,0,12,85.8,138)" />
<use xlink:href="#f0_i" transform="matrix(12,0,0,12,92.4,138)" />
</g>
<path d="M184,278.1V151.2h1.5V278.1H184Z" class="g2_22" />
<path d="M400.4,215.5H184.8v-1.4H400.4v1.4Z" class="g2_22" />
<path d="M262.7,214.4l-1.8,.4l-.4,-2.9l-.3,-2.6l-.8,-2.9l-.3,-2.6l-.8,-2.5l-.7,-2.6l-.7,-2.5l-1.1,-2.6l-.7,-2.2l-.8,-2.6l-1.1,-2.2l-1.1,-2.1l-.7,-1.9l-1.1,-2.2l-1.1,-1.8l-1.1,-2.2L246.6,175l-1.1,-1.9l-1.1,-1.8L243,169.8l-1.1,-1.4l-1.5,-1.5l-1.1,-1.1l-1.4,-1.1l-1.5,-1.1l-1.1,-1.1l-1.5,-1.1l-1.4,-.7l-1.5,-.7l-1.5,-.8l-1.4,-.3l-1.1,-.4l-1.5,-.4h-5.9l-1.4,.4l-1.5,.4l-1.5,.3l-1.4,.8l-1.5,.7l-1.1,1.1l-1.4,1.1l-1.5,1.1l-1.5,1.1l-1.4,1.4l-1.1,1.9l-1.5,1.4l-1.5,1.9l-1.1,2.2l-1.4,2.2l-1.1,2.2l-1.5,2.5l-1.1,2.6l-1.1,2.9l-1.1,2.9l-1.1,2.9l-1.1,3.3l-1.1,3.7l-1.1,3.7l-1.1,3.6l-.7,4l-1.1,4l-1.5,-.3l1.1,-4l.8,-4.1l1.1,-3.6l1.1,-3.7l1.1,-3.6l1.1,-3.3l1.1,-3.3l1.1,-2.9l1.1,-3l1.4,-2.5l1.1,-2.6l1.5,-2.2l1.1,-2.2l1.4,-2.2l1.5,-1.8l1.1,-1.8l1.5,-1.9l1.4,-1.4l1.5,-1.1l1.5,-1.5l1.4,-1.1l1.5,-.7l1.8,-1.1l1.5,-.4l1.4,-.7l1.5,-.4l1.5,-.3H221l1.5,-.4l1.4,.4h1.5l1.8,.3l1.5,.4l1.5,.7l1.4,.4l1.5,.7l1.5,1.1l1.4,.8l1.5,1l1.5,1.1l1.4,1.5l1.1,1.1l1.5,1.5l1.4,1.4l1.1,1.9l1.1,1.4l1.5,1.9l1.1,1.8l1.1,2.2l1.1,1.8l1.1,2.2l1.1,2.2l1.1,2.2l.7,2.2l1.1,2.2l.7,2.5l1.1,2.6l.8,2.6l.7,2.5l.7,2.6l.4,2.5l.7,3l.4,2.5l.7,2.9Zm0,0v0Zm60.8,23.1l1.5,.3l-1.1,3.3l-.8,2.9l-1.1,3.3l-1.1,2.6l-1.1,2.9l-1.1,2.6l-1.1,2.2l-1,2.2l-1.1,2.2l-1.1,2.2l-1.1,1.8l-1.5,1.5l-1.1,1.8l-1.1,1.4l-1.1,1.1l-1.5,1.5l-1.1,1.1l-1.1,.7l-1.4,1.1l-1.1,.8l-1.5,.3l-1.1,.8h-1.4l-1.1,.3h-1.5l-1.1,.4l-1.5,-.4H292l-1.1,-.3l-1.4,-.4l-1.1,-.7l-1.1,-.8l-1.5,-.7l-1.1,-.7l-1.1,-.8l-1.1,-1.1l-1.1,-1.1l-1.1,-1.1l-1.1,-1.4l-1.1,-1.5L277,266.4l-1.1,-1.5l-.7,-1.5l-1.1,-1.8L273,259.8l-.7,-1.8l-1.1,-1.9l-.8,-1.8l-.7,-2.2l-.7,-1.8l-1.1,-2.2l-.8,-2.2l-.7,-2.6l-.4,-2.2l-.7,-2.5l-.7,-2.2l-.8,-2.6l-.3,-2.5l-.4,-3l-.7,-2.5l-.4,-2.6l-.4,-2.9l-.3,-2.9l-.4,-2.6l1.8,-.4v3l.4,2.9l.4,2.5l.3,2.6l.8,2.9l.3,2.6l.8,2.6l.3,2.5l.8,2.2l.7,2.6l.4,2.2l.7,2.1l.7,2.2l.8,2.2l1.1,2.2l.7,1.9l.7,2.2l1.1,1.8l.8,1.8l1.1,1.5l.7,1.8l1.1,1.5l1.1,1.4l.7,1.5l1.1,1.1l1.1,1.4l1.1,1.1l1.1,1.1l1.1,.8l1.1,1.1l1.1,.7l1.1,.7l1.1,.4l1.1,.7l1.1,.4l1.1,.4h4.4l1.1,-.4H299l1.5,-.7l1.1,-.4l1,-.7l1.1,-.8l1.1,-1.1l1.1,-.7l1.5,-1.1l1.1,-1.5l1.1,-1.4l1.1,-1.5l1.1,-1.8l1.1,-1.8l1.1,-1.9l1.1,-2.1l1.1,-2.2l1.1,-2.2l1.1,-2.6l1.1,-2.6l1.1,-2.9l1.1,-2.9l.7,-2.9l1.1,-3.3Zm8.1,-23.1L325,237.8l-1.5,-.3l6.6,-23.4l1.5,.3Z" class="g2_22" />
<path d="M188.1,172.4v1.5l-1.5,-.4h-1.8V172h1.8l1.5,.4Zm4.4,.7v1.5l-.8,-.4l-1.8,-.3h-.4v-1.5h.8l1.8,.4l.4,.3Zm4.7,1.1l-.7,1.5h-.4l-1.5,-.7h-.7l.4,-1.5h.7l1.8,.7h.4Zm4,1.9l-.3,1.4h-.4l-1.5,-.7l-1.1,-.4l.8,-1.4l1.1,.3l1.4,.8Zm4.1,2.5l-.8,1.1h-.3l-1.1,-1.1l-1.1,-.3l.7,-1.5l1.1,.7l1.1,.8l.4,.3Zm3.6,2.9l-.7,1.1l-.7,-.3l-1.1,-1.1l-.8,-.4l1.1,-1.5l.8,.8l1.1,1.1l.3,.3Zm3.3,3.3l-1.1,1.1l-.4,-.7l-1,-1.1l-.4,-.4l.7,-1.1l.7,.8l1.1,1.1l.4,.3Zm2.9,3.7l-1.1,.7l-.3,-.4l-1.1,-1.4l-.4,-.4l1.1,-1.1l.7,.7l.8,1.1l.3,.8Zm2.6,3.6l-1.1,.8l-.4,-.4l-.7,-1.5l-.7,-.3l1.4,-1.1l.4,.7l.7,1.5l.4,.3Zm2.6,4.1l-1.5,.7v-.4l-1.1,-1.4l-.4,-.8l1.5,-.7l.4,.7l.7,1.5l.4,.4Zm2.2,4l-1.5,.7l-.7,-1.8l-.8,-.7l1.5,-.8l.4,1.1l1.1,1.5Zm1.8,4.4l-1.5,.3l-1.1,-2.5l1.1,-.7l1.5,2.9Zm1.8,4l-1.4,.7l-.4,-1.1l-.7,-1.8l1.4,-.7l.8,1.8l.3,1.1Zm1.5,4.4l-1.1,.3l-1.1,-2.2v-.3l1.1,-.7l.4,.3l.7,2.6Zm1.8,4.4l-1.4,.3l-1.1,-2.9l1.4,-.4l1.1,3Zm1.5,4l-1.5,.7l-.3,-1.8l-.8,-1.1l1.5,-.7l.4,1.4l.7,1.5Zm1.5,4.4l-1.1,.3l-1.1,-2.5l1.4,-.8l.8,3Zm1.8,4.4l-1.5,.3l-.3,-1.1l-.8,-1.8l1.5,-.4l.7,1.9l.4,1.1Zm1.5,4l-1.5,.7l-.7,-2.5l-.4,-.4l1.5,-.4l.3,.4l.8,2.2Zm1.8,4.4l-1.5,.3l-.3,-.7l-.8,-1.8l1.5,-.8l.7,1.9l.4,1.1Zm1.8,4l-1.1,.7l-1.1,-2.2l-.3,-.7l1.4,-.4v.4l1.1,2.2Zm2.2,4l-1.1,.7l-.7,-1.1l-.7,-1.4l1.1,-.8l.7,1.5l.7,1.1Zm2.6,3.7l-1.1,1.1l-1.1,-1.5l-.8,-1.1l1.1,-1.1l.8,1.5l1.1,1.1Zm3.3,2.9l-1.1,1.5l-1.1,-1.1l-1.1,-1.1l1.1,-1.1l1.1,1.1l1.1,.7Zm3.6,2.6l-.7,1.4l-1.1,-.7l-1.5,-1.1h-.3l1.1,-1.1l1.4,.7l1.1,.8Zm4.1,1.8l-.4,1.5l-1.1,-.4l-1.5,-.7h-.3l.7,-1.5l1.5,.7l1.1,.4Zm4.3,1.1l-.3,1.4l-.8,-.3l-1.8,-.4h-.4l.4,-1.4h.4l1.4,.3l1.1,.4Zm4.4,.4v1.4h-2.5l-.8,-.4l.4,-1.4h.7l1.5,.4h.7Zm4.4,-.4l.4,1.4h-.7l-1.5,.4h-1.1v-1.4l1.1,-.4h1.8Zm4.4,-1.1l.4,1.5h-.4l-1.4,.3l-1.1,.4l-.4,-1.5l1.1,-.3l1.4,-.4h.4Zm4.1,-1.8l.7,1.4l-1.5,.8l-1.4,.3l-.4,-1.1l1.1,-.7l1.5,-.7Zm3.6,-2.6l1.1,1.5l-1.5,.7l-1.1,1.1l-.7,-1.5l1.1,-.7l1.1,-1.1Zm3.3,-2.9l1.1,1.1l-.7,.7l-1.5,1.5l-1.1,-1.1h.4l1.1,-1.1l.7,-1.1Zm1.1,-1.5l1.1,.7v.4l-1.5,-.7l.4,-.4Zm1.5,-2.2l1.1,.7l-.4,1.1l-1.1,1.1l-1.1,-.7l.7,-1.1l.8,-1.1Zm2.2,-4l1.1,.7l-.4,1.1l-.7,1.5l-.4,.3l-1.1,-1.1l.7,-1.4l.8,-1.1Zm1.8,-4l1.5,.7l-.8,1.1l-.3,1.1l-.4,.4l-1.5,-.4l.4,-.4l.7,-1.4l.4,-1.1Zm1.5,-4.4l1.4,.7l-.3,1.1l-.8,1.8l-1.4,-.7l.7,-1.8l.4,-1.1Zm1.4,-4l1.5,.3l-.7,2.2l-.4,.8l-1.5,-.8l.4,-.3l.7,-2.2Zm1.1,-4.4l1.5,.3v.4l-.7,2.6l-1.5,-.4l.7,-2.6v-.3Zm1.1,-4.8l1.5,.4l-.4,2.2l-.3,1.1l-1.5,-.4l.4,-1.1l.3,-2.2Zm.8,-4.4l1.8,.4l-.7,2.9l-1.5,-.4l.4,-2.9Zm1.1,-4.4l1.4,.4l-.3,1.1l-.4,1.8l-1.5,-.3l.4,-1.5l.4,-1.5Zm.7,-4.3l1.5,.3l-.4,2.9l-1.5,-.3l.4,-2.9Zm1.1,-4.8l1.5,.4l-.8,2.9h-1.4l.7,-3.3Zm.7,-4.4l1.5,.4l-.4,2.2l-.3,.7l-1.5,-.3l.4,-.8l.3,-2.2Zm1.1,-4.4l1.5,.4v.4l-.7,2.5l-1.5,-.3l.4,-2.6l.3,-.4Zm1.1,-4.4l1.5,.4l-.4,1.8l-.4,1.1l-1.4,-.3v-1.1l.7,-1.9Zm1.5,-4.3l1.4,.3l-.3,.7l-.8,2.2l-1.4,-.3l.7,-2.2l.4,-.7Zm1.4,-4.4l1.5,.3l-.4,1.1l-.7,1.5v.4l-1.5,-.4l.4,-.7l.4,-1.1l.3,-1.1Zm2.2,-4.4l1.1,.7v.4l-.7,1.1l-.4,1.4l-1.4,-.7l.7,-1.4l.4,-1.1l.3,-.4Zm2.6,-3.7l1.1,.8l-.7,.7l-.8,1.1l-.3,.7l-1.1,-.7l.3,-.7l.8,-1.1l.7,-.8Zm2.9,-3.6l1.1,1.1l-.3,.3l-1.1,1.1l-.8,.8l-1.1,-1.1l.8,-.8l1.1,-1.1l.3,-.3Zm3.7,-3l.7,1.5l-1.1,.7l-1.1,.8l-1.1,-1.1h.4l1.1,-.8l.7,-.7l.4,-.4Zm4.4,-2.2l.3,1.5l-1.1,.4l-1.1,.7l-.3,.4l-.8,-1.5l.4,-.4l1.5,-.3l1.1,-.8Zm4.4,-1.1l.3,1.5l-1.1,.4l-1.4,.3h-.4L322,164l1.9,-.4l1.1,-.4Zm4.7,-.7V164h-1.1l-1.4,.3h-.4l-.4,-1.4h.4l1.5,-.4h1.4Zm4.8,.4l-.4,1.4h-.3l-1.5,-.3h-1.1v-1.5h1.5l1.1,.4h.7Zm4.4,1.1l-.4,1.4l-1.1,-.3l-1.1,-.4h-.7l.4,-1.5h.7l1.1,.4l1.1,.4Zm4.4,2.2l-.7,1.1l-.8,-.4l-1.1,-.4l-1.1,-.3l.8,-1.5l1.1,.4l1.1,.7l.7,.4Zm3.7,2.5l-1.1,1.1l-.8,-.7l-1.1,-.7h-.3l.7,-1.5l.4,.4l1.1,.7l1.1,.7Zm3.2,3.3l-1.1,1.1l-.3,-.3l-1.1,-1.1l-.7,-.8l1.1,-1.1l.7,.8l1.1,1.1l.3,.3Zm3,3.7l-1.1,1.1l-.8,-1.1l-.7,-1.1l-.4,-.4l1.1,-1.1l.4,.8l.7,.7l.8,1.1Zm2.5,4l-1.1,.7l-.3,-.3l-.8,-1.1l-.7,-1.1l1.5,-1.1v.4l.7,1.1l.7,1v.4Zm2.6,4l-1.5,.8l-1.1,-1.9l-.3,-1.1l1.4,-.7l.4,1.1l1.1,1.8Zm1.8,4l-1.4,.8l-.4,-1.1l-.7,-1.8l1.4,-.8l.8,1.8l.3,1.1Zm1.9,4.1l-1.5,.7l-1.1,-2.6v-.3l1.5,-.4l1.1,2.6Zm1.8,4.4l-1.5,.7l-.7,-1.8l-.4,-1.1l1.5,-.8l.4,1.1l.7,1.9Zm1.1,4.4l-1.5,.3l-.3,-1.1l-.4,-1.4l1.4,-.8l.4,1.9l.4,1.1Zm1.4,4.3l-1.4,.4l-.4,-.7l-.4,-2.2l1.5,-.4l.4,2.2l.3,.7Zm1.1,4.8H366l-.4,-1.1l-.4,-1.8l1.5,-.4l.4,1.8l.3,1.5Zm.8,4.4l-1.5,.3v-.7l-.4,-1.5l-.3,-1.1h1.8v.8l.4,1.4v.8Zm0,1.4l-1.5,.4l1.5,-.4Z" class="g2_22" />
<g fill="#1F1A17" >
<use xlink:href="#f0_19" transform="matrix(12,0,0,12,236.1,189.7)" />
<use xlink:href="#f0_15" transform="matrix(12,0,0,12,276.5,193.7)" />
</g>
<path d="M221.4,188.5l11,-4l.7,1.4l-11,4l-.7,-1.4Zm-1.5,.7l1.5,1.1l-.8,-1.5l7.4,1.9l-.4,1.4l-7,-1.4l-.7,-1.5Zm0,0l.7,1.5l-1.4,-.4l.7,-1.1Zm5.1,-5.1l.8,.4l-4.4,5.8l-1.5,-1.1l4.4,-5.8l.7,.7Z" class="g2_22" />
<path d="M261.3,192.1l10.9,-4l.8,1.5l-11,4l-.7,-1.5Zm-1.5,.8l1.5,.7l-.8,-1.1l7.4,1.5l-.4,1.4l-7,-1.4l-.7,-1.1Zm0,0l.7,1.1l-1.4,-.4l.7,-.7Zm5.1,-5.5l.8,.7l-4.4,5.5l-1.5,-.7l4.4,-5.9l.7,.4Z" class="g2_22" />
<path d="M353.2,240.8H340.4v-1.5h12.8v1.5Zm1.8,0l-.7,-1.5v1.5l-6.2,-4.1l.7,-1.1l6.2,3.7v1.5Zm0,0v-1.5l1.1,.7l-1.1,.8Zm-6.6,3.2l-.3,-.7l6.2,-4l.7,1.5l-6.2,4l-.4,-.8Z" class="g2_22" />
<g clip-path="url(#c0_22)">
<g fill="#1F1A17" >
<use xlink:href="#f0_2g" transform="matrix(12,0,0,12,361.5,244.7)" />
</g>
</g>
<g fill="#1F1A17" >
<use xlink:href="#f0_15" transform="matrix(12,0,0,12,157.7,177.6)" />
<use xlink:href="#f0_2b" transform="matrix(12,0,0,12,157.7,197.8)" />
<use xlink:href="#f0_2e" transform="matrix(12,0,0,12,166.8,197.8)" />
<use xlink:href="#f0_19" transform="matrix(12,0,0,12,157.7,218.3)" />
</g>
<path d="M178.5,154.5v15.7h-1.8V154.5h1.8Zm-.3,-1.5l-1.1,.8h1.1l-3.7,6.2L173,158.9l4.1,-5.9h1.1Zm0,0h-1.1l.7,-1.1l.4,1.1Zm3.3,6.6l-.8,.4l-3.6,-6.2l1.1,-.8l4,5.9l-.7,.7Z" class="g2_22" />
<g fill="#000000" >
<use xlink:href="#f0_c" transform="matrix(12,0,0,12,117,324.6)" />
<use xlink:href="#f0_1z" transform="matrix(12,0,0,12,122.5,324.6)" />
<use xlink:href="#f0_d" transform="matrix(12,0,0,12,130.2,324.6)" />
<use xlink:href="#f0_18" transform="matrix(12,0,0,12,155.8,324.6)" />
<use xlink:href="#f0_2b" transform="matrix(12,0,0,12,168.7,324.6)" />
<use xlink:href="#f0_2j" transform="matrix(12,0,0,12,177.8,324.6)" />
<use xlink:href="#f0_20" transform="matrix(12,0,0,12,193.6,324.6)" />
<use xlink:href="#f0_2b" transform="matrix(12,0,0,12,202.5,324.6)" />
<use xlink:href="#f0_21" transform="matrix(12,0,0,12,211.6,324.6)" />
<use xlink:href="#f0_2f" transform="matrix(12,0,0,12,219.3,324.6)" />
<use xlink:href="#f0_2g" transform="matrix(12,0,0,12,228.9,324.6)" />
<use xlink:href="#f0_24" transform="matrix(12,0,0,12,234,324.6)" />
<use xlink:href="#f0_21" transform="matrix(12,0,0,12,242.5,324.6)" />
<use xlink:href="#f0_2e" transform="matrix(12,0,0,12,253.2,324.6)" />
<use xlink:href="#f0_21" transform="matrix(12,0,0,12,258.7,324.6)" />
<use xlink:href="#f0_1x" transform="matrix(12,0,0,12,266.4,324.6)" />
<use xlink:href="#f0_1z" transform="matrix(12,0,0,12,274.1,324.6)" />
<use xlink:href="#f0_2g" transform="matrix(12,0,0,12,281.8,324.6)" />
<use xlink:href="#f0_1x" transform="matrix(12,0,0,12,287,324.6)" />
<use xlink:href="#f0_2a" transform="matrix(12,0,0,12,294.3,324.6)" />
<use xlink:href="#f0_1z" transform="matrix(12,0,0,12,302.8,324.6)" />
<use xlink:href="#f0_21" transform="matrix(12,0,0,12,310.5,324.6)" />
<use xlink:href="#f0_2b" transform="matrix(12,0,0,12,321.5,324.6)" />
<use xlink:href="#f0_22" transform="matrix(12,0,0,12,330.7,324.6)" />
<use xlink:href="#f0_2g" transform="matrix(12,0,0,12,338.8,324.6)" />
<use xlink:href="#f0_24" transform="matrix(12,0,0,12,343.9,324.6)" />
<use xlink:href="#f0_21" transform="matrix(12,0,0,12,352.4,324.6)" />
<use xlink:href="#f0_20" transform="matrix(12,0,0,12,363,324.6)" />
<use xlink:href="#f0_21" transform="matrix(12,0,0,12,371.8,324.6)" />
<use xlink:href="#f0_2i" transform="matrix(12,0,0,12,379.6,324.6)" />
<use xlink:href="#f0_25" transform="matrix(12,0,0,12,388,324.6)" />
<use xlink:href="#f0_1z" transform="matrix(12,0,0,12,392.1,324.6)" />
<use xlink:href="#f0_21" transform="matrix(12,0,0,12,399.4,324.6)" />
<use xlink:href="#f0_1o" transform="matrix(12,0,0,12,410.1,324.6)" />
<use xlink:href="#f0_2i" transform="matrix(12,0,0,12,426.3,324.6)" />
<use xlink:href="#f0_1x" transform="matrix(12,0,0,12,434.7,324.6)" />
<use xlink:href="#f0_2e" transform="matrix(12,0,0,12,442.1,324.6)" />
<use xlink:href="#f0_2l" transform="matrix(12,0,0,12,447.9,324.6)" />
<use xlink:href="#f0_2j" transform="matrix(12,0,0,12,459.3,324.6)" />
<use xlink:href="#f0_25" transform="matrix(12,0,0,12,472.2,324.6)" />
<use xlink:href="#f0_2g" transform="matrix(12,0,0,12,475.9,324.6)" />
<use xlink:href="#f0_24" transform="matrix(12,0,0,12,481,324.6)" />
<use xlink:href="#f0_22" transform="matrix(12,0,0,12,492.8,324.6)" />
<use xlink:href="#f0_2e" transform="matrix(12,0,0,12,497.9,324.6)" />
<use xlink:href="#f0_21" transform="matrix(12,0,0,12,503.4,324.6)" />
<use xlink:href="#f0_2d" transform="matrix(12,0,0,12,511.2,324.6)" />
<use xlink:href="#f0_2h" transform="matrix(12,0,0,12,520,324.6)" />
<use xlink:href="#f0_21" transform="matrix(12,0,0,12,528.8,324.6)" />
<use xlink:href="#f0_2a" transform="matrix(12,0,0,12,536.5,324.6)" />
<use xlink:href="#f0_1z" transform="matrix(12,0,0,12,545,324.6)" />
<use xlink:href="#f0_2l" transform="matrix(12,0,0,12,552.3,324.6)" />
<use xlink:href="#f0_2b" transform="matrix(12,0,0,12,563.7,324.6)" />
<use xlink:href="#f0_22" transform="matrix(12,0,0,12,572.9,324.6)" />
<use xlink:href="#f0_2g" transform="matrix(12,0,0,12,580.6,324.6)" />
<use xlink:href="#f0_24" transform="matrix(12,0,0,12,585.7,324.6)" />
<use xlink:href="#f0_21" transform="matrix(12,0,0,12,594.2,324.6)" />
<use xlink:href="#f0_1x" transform="matrix(12,0,0,12,605.2,324.6)" />
<use xlink:href="#f0_1z" transform="matrix(12,0,0,12,612.9,324.6)" />
<use xlink:href="#f0_z" transform="matrix(12,0,0,12,623.6,324.6)" />
<use xlink:href="#f0_1j" transform="matrix(12,0,0,12,634.3,324.6)" />
<use xlink:href="#f0_24" transform="matrix(12,0,0,12,644.2,324.6)" />
<use xlink:href="#f0_2b" transform="matrix(12,0,0,12,652.3,324.6)" />
<use xlink:href="#f0_2j" transform="matrix(12,0,0,12,661.4,324.6)" />
<use xlink:href="#f0_2g" transform="matrix(12,0,0,12,677.2,324.6)" />
<use xlink:href="#f0_24" transform="matrix(12,0,0,12,682.4,324.6)" />
<use xlink:href="#f0_25" transform="matrix(12,0,0,12,690.5,324.6)" />
<use xlink:href="#f0_2f" transform="matrix(12,0,0,12,694.5,324.6)" />
<use xlink:href="#f0_2i" transform="matrix(12,0,0,12,704.4,324.6)" />
<use xlink:href="#f0_1x" transform="matrix(12,0,0,12,712.9,324.6)" />
<use xlink:href="#f0_2e" transform="matrix(12,0,0,12,720.6,324.6)" />
<use xlink:href="#f0_25" transform="matrix(12,0,0,12,726.1,324.6)" />
<use xlink:href="#f0_1x" transform="matrix(12,0,0,12,730.2,324.6)" />
<use xlink:href="#f0_2g" transform="matrix(12,0,0,12,737.9,324.6)" />
<use xlink:href="#f0_25" transform="matrix(12,0,0,12,743,324.6)" />
<use xlink:href="#f0_2b" transform="matrix(12,0,0,12,747.1,324.6)" />
<use xlink:href="#f0_2a" transform="matrix(12,0,0,12,755.9,324.6)" />
<use xlink:href="#f0_23" transform="matrix(12,0,0,12,767.7,324.6)" />
<use xlink:href="#f0_2e" transform="matrix(12,0,0,12,776.5,324.6)" />
<use xlink:href="#f0_1x" transform="matrix(12,0,0,12,782.4,324.6)" />
<use xlink:href="#f0_2c" transform="matrix(12,0,0,12,789.7,324.6)" />
<use xlink:href="#f0_24" transform="matrix(12,0,0,12,798.5,324.6)" />
<use xlink:href="#f0_25" transform="matrix(12,0,0,12,807,324.6)" />
<use xlink:href="#f0_1z" transform="matrix(12,0,0,12,811,324.6)" />
<use xlink:href="#f0_1x" transform="matrix(12,0,0,12,818.7,324.6)" />
<use xlink:href="#f0_28" transform="matrix(12,0,0,12,826.5,324.6)" />
<use xlink:href="#f0_28" transform="matrix(12,0,0,12,828.7,324.6)" />
<use xlink:href="#f0_2l" transform="matrix(12,0,0,12,832.7,324.6)" />
<use xlink:href="#f0_i" transform="matrix(12,0,0,12,839.7,324.6)" />
<use xlink:href="#f0_11" transform="matrix(12,0,0,12,64.9,372.3)" />
<use xlink:href="#f0_2a" transform="matrix(12,0,0,12,77.4,372.3)" />
<use xlink:href="#f0_2f" transform="matrix(12,0,0,12,85.8,372.3)" />
<use xlink:href="#f0_i" transform="matrix(12,0,0,12,92.4,372.3)" />
</g>
<path d="M203.3,366.4h14.5" class="g3_22" />
<g clip-path="url(#c1_22)">
<g fill="#000000" >
<use xlink:href="#f0_l" transform="matrix(12,0,0,12,206.1,359.5)" />
</g>
</g>
<g fill="#000000" >
<use xlink:href="#f1_13" transform="matrix(7,0,0,7,172.7,375.6)" />
<use xlink:href="#f1_1o" transform="matrix(12,0,0,12,159.9,370.8)" />
</g>
<g clip-path="url(#c2_22)">
<g fill="#000000" >
<use xlink:href="#f1_22" transform="matrix(12,0,0,12,207.9,385.5)" />
</g>
</g>
<g clip-path="url(#c3_22)">
<g fill="#000000" >
<use xlink:href="#f2_3b" transform="matrix(12,0,0,12,185.9,370.8)" />
</g>
</g>
<path d="M184.4,501.8l-.7,-.7V402.7h1.5v98.4l-.8,.7Zm0,0h-.7v-.7l.7,.7Zm124.3,0H184.4v-1.5H308.7v1.5Z" class="g2_22" />
<path d="M284.5,490.1v1.5l-4.4,-.4l-4.4,-.7l-4,-.4l-4,-1.1l-2.2,-.4l-1.9,-.3l-1.8,-.4l-2.2,-.7l-1.8,-.4l-1.9,-.7l-1.8,-.4l-1.8,-.7l-1.9,-.7l-1.8,-.8l-1.8,-.7l-1.9,-.7l-1.4,-.8l-1.9,-.7l-1.4,-1.1l-1.9,-.7l-1.4,-1.1l-1.9,-.8l-1.4,-1.1l-1.5,-1.1l-1.5,-1.1l-1.4,-1.1l-1.5,-1.1l-1.5,-1.1l-1.4,-1.4l-1.1,-1.1l-1.5,-1.5l-1.1,-1.1l-1.5,-1.4l-1.1,-1.5l-1.1,-1.5l-1.1,-1.4l-1.4,-1.5l-1.1,-1.4L213,455l-1.1,-1.8l-1.1,-1.8l-1.1,-1.5l-.7,-1.8l-.7,-1.9l-1.1,-1.8l-.8,-1.8l-.7,-2.2l-.7,-1.9l-.8,-2.1l-.7,-1.9l-.7,-2.2l-.4,-2.2l-.7,-2.1l-.4,-2.2l-.7,-2.2l-.4,-2.6l-.4,-2.2l-.3,-2.6l-.4,-2.5l-.4,-2.2l1.5,-.4l.4,2.6l.3,2.5l.4,2.2l.4,2.6l.3,2.2l.8,2.2l.3,2.2l.8,2.2l.3,2.2l.8,2.2l.7,1.8l.7,2.2l.8,1.8l.7,1.8l.7,1.9l.8,1.8l1.1,1.8l.7,1.9l1.1,1.4l.7,1.9l1.1,1.4l1.1,1.8l1.1,1.5l1.1,1.5l1.1,1.4l1.1,1.5l1.1,1.1l1.5,1.4l1.1,1.5l1.5,1.1l1.1,1.1l1.4,1.4l1.5,1.1l1.5,1.1l1.1,1.1l1.4,1.1l1.9,.8l1.4,1.1l1.5,1.1l1.5,.7l1.8,1.1l1.5,.7l1.8,.8l1.5,.7l1.8,.7l1.8,.8l1.5,.7l1.8,.7l1.9,.8l1.8,.3l1.8,.7l1.9,.4l2.2,.7l1.8,.4l1.8,.4l2.2,.3l4.1,1.1l4,.4l4,.7l4.4,.4Z" class="g2_22" />
<g fill="#1F1A17" >
<use xlink:href="#f0_1o" transform="matrix(12,0,0,12,157.7,450)" />
<use xlink:href="#f0_13" transform="matrix(6,0,0,6,170.9,453.7)" />
<use xlink:href="#f1_22" transform="matrix(11.9,0,0,12,248.6,522.6)" />
</g>
<g fill="#000000" >
<use xlink:href="#f0_c" transform="matrix(12,0,0,12,117,572.1)" />
<use xlink:href="#f0_20" transform="matrix(12,0,0,12,122.5,572.1)" />
<use xlink:href="#f0_d" transform="matrix(12,0,0,12,131.3,572.1)" />
<use xlink:href="#f0_14" transform="matrix(12,0,0,12,155.8,572.1)" />
<use xlink:href="#f0_2e" transform="matrix(12,0,0,12,168.7,572.1)" />
<use xlink:href="#f0_1x" transform="matrix(12,0,0,12,174.9,572.1)" />
<use xlink:href="#f0_2j" transform="matrix(12,0,0,12,182.6,572.1)" />
<use xlink:href="#f0_2g" transform="matrix(12,0,0,12,199.2,572.1)" />
<use xlink:href="#f0_24" transform="matrix(12,0,0,12,204.7,572.1)" />
<use xlink:href="#f0_21" transform="matrix(12,0,0,12,213.1,572.1)" />
<use xlink:href="#f0_2c" transform="matrix(12,0,0,12,224.1,572.1)" />
<use xlink:href="#f0_24" transform="matrix(12,0,0,12,233,572.1)" />
<use xlink:href="#f0_1x" transform="matrix(12,0,0,12,241.8,572.1)" />
<use xlink:href="#f0_2f" transform="matrix(12,0,0,12,249.5,572.1)" />
<use xlink:href="#f0_2b" transform="matrix(12,0,0,12,256.5,572.1)" />
<use xlink:href="#f0_2e" transform="matrix(12,0,0,12,265.6,572.1)" />
<use xlink:href="#f0_20" transform="matrix(12,0,0,12,275.2,572.1)" />
<use xlink:href="#f0_25" transform="matrix(12,0,0,12,284.4,572.1)" />
<use xlink:href="#f0_1x" transform="matrix(12,0,0,12,288.4,572.1)" />
<use xlink:href="#f0_23" transform="matrix(12,0,0,12,296.5,572.1)" />
<use xlink:href="#f0_2e" transform="matrix(12,0,0,12,305.3,572.1)" />
<use xlink:href="#f0_1x" transform="matrix(12,0,0,12,311.2,572.1)" />
<use xlink:href="#f0_29" transform="matrix(12,0,0,12,319.3,572.1)" />
<use xlink:href="#f0_22" transform="matrix(12,0,0,12,336.2,572.1)" />
<use xlink:href="#f0_2b" transform="matrix(12,0,0,12,341.3,572.1)" />
<use xlink:href="#f0_2e" transform="matrix(12,0,0,12,350.9,572.1)" />
<use xlink:href="#f0_2g" transform="matrix(12,0,0,12,360.4,572.1)" />
<use xlink:href="#f0_24" transform="matrix(12,0,0,12,365.6,572.1)" />
<use xlink:href="#f0_21" transform="matrix(12,0,0,12,374,572.1)" />
<use xlink:href="#f0_20" transform="matrix(12,0,0,12,385,572.1)" />
<use xlink:href="#f0_21" transform="matrix(12,0,0,12,394.2,572.1)" />
<use xlink:href="#f0_2i" transform="matrix(12,0,0,12,401.9,572.1)" />
<use xlink:href="#f0_25" transform="matrix(12,0,0,12,410.7,572.1)" />
<use xlink:href="#f0_1z" transform="matrix(12,0,0,12,414.8,572.1)" />
<use xlink:href="#f0_21" transform="matrix(12,0,0,12,422.9,572.1)" />
<use xlink:href="#f0_1o" transform="matrix(12,0,0,12,434.3,572.1)" />
<use xlink:href="#f0_i" transform="matrix(12,0,0,12,447.1,572.1)" />
<use xlink:href="#f0_11" transform="matrix(12,0,0,12,64.9,601.1)" />
<use xlink:href="#f0_2a" transform="matrix(12,0,0,12,77.4,601.1)" />
<use xlink:href="#f0_2f" transform="matrix(12,0,0,12,85.8,601.1)" />
<use xlink:href="#f0_i" transform="matrix(12,0,0,12,92.4,601.1)" />
</g>
<path d="M182.3,615h1.5l4,6.3l-1.5,.7l-4,-5.9h1.5L182.3,615Zm0,0l.7,-.7l.8,.7h-1.5Zm-3.3,6.6l-.4,-.3l3.7,-6.3l1.5,1.1l-4.1,5.9l-.7,-.4Zm3.3,135.3v-140h1.5v140h-1.5Zm0,1.9l1.5,-1.1h-1.5l4,-5.9l1.5,.7l-4,6.3h-1.5Zm0,0h1.5l-.8,.7l-.7,-.7ZM179,752.1l.7,-.3l4.1,5.9l-1.5,1.1l-3.7,-6.3l.4,-.4Z" class="g2_22" />
<path d="M315.3,687.8H183V686H315.3v1.8Zm1.9,-.4l-1.1,-1.1v1.1l-5.9,-3.6l.7,-1.5l6.3,4v1.1Zm0,0v-1.1l.7,.4l-.7,.7Zm-6.7,3.3l-.3,-.7l5.9,-3.7l1.1,1.1l-6.3,4.1l-.4,-.8Z" class="g2_22" />
<path d="M202.5,691.5l1.5,.4l-.8,1.8l-.3,1.5l-.8,1.4l-1.1,1.5l-.7,1.1l-1.1,1.1l-1.1,1.5l-1.1,.7l-1.1,1.1l-1.5,1.1l-1.4,.8l-1.5,.7l-1.5,.7l-1.5,.4l-1.8,.7l-1.8,.4l-.4,-1.5l1.8,-.3l1.5,-.8l1.8,-.3l1.5,-.8l1.1,-.7l1.5,-.7l1.1,-.8l1.5,-1.1l1.1,-.7l.7,-1.1l1.1,-1.1l.7,-1.5l.8,-1.1l.7,-1.5l.4,-1.4l.7,-1.5Zm1.8,-1.1l-1.4,.3l1.1,.4l-5.5,4.8l-1.1,-1.1l5.5,-4.8l1.4,.4Zm0,0l-1.4,-.4l1.1,-.7l.3,1.1Zm1.1,7.3h-.7l-1.8,-7l1.4,-.3l1.9,7l-.8,.3Z" class="g2_22" />
<g clip-path="url(#c4_22)">
<g fill="#1F1A17" >
<use xlink:href="#f0_19" transform="matrix(12,0,0,12,299.2,706.3)" />
</g>
</g>
<g fill="#1F1A17" >
<use xlink:href="#f2_2c" transform="matrix(12,0,0,12,198,716.6)" />
<use xlink:href="#f0_j" transform="matrix(12,0,0,12,207.9,716.6)" />
<use xlink:href="#f0_m" transform="matrix(12,0,0,12,213,716.6)" />
<use xlink:href="#f0_15" transform="matrix(12,0,0,12,157.7,755.1)" />
<use xlink:href="#f0_13" transform="matrix(6,0,0,6,168.9,758.8)" />
</g>
<g fill="#000000" >
<use xlink:href="#f0_1h" transform="matrix(12,0,0,12,64.9,830.6)" />
<use xlink:href="#f0_i" transform="matrix(12,0,0,12,78.1,830.6)" />
<use xlink:href="#f0_m" transform="matrix(12,0,0,12,83.3,830.6)" />
<use xlink:href="#f0_q" transform="matrix(12,0,0,12,92.4,830.6)" />
<use xlink:href="#f0_c" transform="matrix(12,0,0,12,117,830.6)" />
<use xlink:href="#f0_1x" transform="matrix(12,0,0,12,122.5,830.6)" />
<use xlink:href="#f0_d" transform="matrix(12,0,0,12,130.2,830.6)" />
<use xlink:href="#f0_14" transform="matrix(12,0,0,12,155.8,830.6)" />
<use xlink:href="#f0_2e" transform="matrix(12,0,0,12,168.7,830.6)" />
<use xlink:href="#f0_1x" transform="matrix(12,0,0,12,174.9,830.6)" />
<use xlink:href="#f0_2j" transform="matrix(12,0,0,12,182.6,830.6)" />
<use xlink:href="#f0_1x" transform="matrix(12,0,0,12,199.2,830.6)" />
<use xlink:href="#f0_2e" transform="matrix(12,0,0,12,210.2,830.6)" />
<use xlink:href="#f0_1x" transform="matrix(12,0,0,12,216.1,830.6)" />
<use xlink:href="#f0_2l" transform="matrix(12,0,0,12,223.8,830.6)" />
<use xlink:href="#f0_20" transform="matrix(12,0,0,12,235.6,830.6)" />
<use xlink:href="#f0_25" transform="matrix(12,0,0,12,244.4,830.6)" />
<use xlink:href="#f0_1x" transform="matrix(12,0,0,12,248.8,830.6)" />
<use xlink:href="#f0_23" transform="matrix(12,0,0,12,256.5,830.6)" />
<use xlink:href="#f0_2e" transform="matrix(12,0,0,12,265.3,830.6)" />
<use xlink:href="#f0_1x" transform="matrix(12,0,0,12,271.6,830.6)" />
<use xlink:href="#f0_29" transform="matrix(12,0,0,12,279.3,830.6)" />
<use xlink:href="#f0_2g" transform="matrix(12,0,0,12,296.2,830.6)" />
<use xlink:href="#f0_2b" transform="matrix(12,0,0,12,301.3,830.6)" />
<use xlink:href="#f0_2f" transform="matrix(12,0,0,12,314.1,830.6)" />
<use xlink:href="#f0_24" transform="matrix(12,0,0,12,320.8,830.6)" />
<use xlink:href="#f0_2b" transform="matrix(12,0,0,12,329.6,830.6)" />
<use xlink:href="#f0_2j" transform="matrix(12,0,0,12,338.7,830.6)" />
<use xlink:href="#f0_25" transform="matrix(12,0,0,12,354.9,830.6)" />
<use xlink:href="#f0_29" transform="matrix(12,0,0,12,359,830.6)" />
<use xlink:href="#f0_1x" transform="matrix(12,0,0,12,372.5,830.6)" />
<use xlink:href="#f0_23" transform="matrix(12,0,0,12,380.3,830.6)" />
<use xlink:href="#f0_21" transform="matrix(12,0,0,12,389.1,830.6)" />
<use xlink:href="#f0_22" transform="matrix(12,0,0,12,400.5,830.6)" />
<use xlink:href="#f0_2b" transform="matrix(12,0,0,12,405.6,830.6)" />
<use xlink:href="#f0_2e" transform="matrix(12,0,0,12,415.2,830.6)" />
<use xlink:href="#f0_29" transform="matrix(12,0,0,12,421,830.6)" />
<use xlink:href="#f0_1x" transform="matrix(12,0,0,12,434.3,830.6)" />
<use xlink:href="#f0_2g" transform="matrix(12,0,0,12,442.3,830.6)" />
<use xlink:href="#f0_25" transform="matrix(12,0,0,12,447.5,830.6)" />
<use xlink:href="#f0_2b" transform="matrix(12,0,0,12,451.9,830.6)" />
<use xlink:href="#f0_2a" transform="matrix(12,0,0,12,461,830.6)" />
<use xlink:href="#f0_2j" transform="matrix(12,0,0,12,473.2,830.6)" />
<use xlink:href="#f0_24" transform="matrix(12,0,0,12,486,830.6)" />
<use xlink:href="#f0_21" transform="matrix(12,0,0,12,494.5,830.6)" />
<use xlink:href="#f0_2a" transform="matrix(12,0,0,12,502.6,830.6)" />
<use xlink:href="#f0_2g" transform="matrix(12,0,0,12,514.3,830.6)" />
<use xlink:href="#f0_24" transform="matrix(12,0,0,12,519.8,830.6)" />
<use xlink:href="#f0_21" transform="matrix(12,0,0,12,528.3,830.6)" />
<use xlink:href="#f0_1z" transform="matrix(12,0,0,12,539.3,830.6)" />
<use xlink:href="#f0_2b" transform="matrix(12,0,0,12,547,830.6)" />
<use xlink:href="#f0_2a" transform="matrix(12,0,0,12,556.5,830.6)" />
<use xlink:href="#f0_1z" transform="matrix(12,0,0,12,565,830.6)" />
<use xlink:href="#f0_1x" transform="matrix(12,0,0,12,572.7,830.6)" />
<use xlink:href="#f0_2i" transform="matrix(12,0,0,12,580.8,830.6)" />
<use xlink:href="#f0_21" transform="matrix(12,0,0,12,589.2,830.6)" />
<use xlink:href="#f0_29" transform="matrix(12,0,0,12,600.6,830.6)" />
<use xlink:href="#f0_25" transform="matrix(12,0,0,12,613.9,830.6)" />
<use xlink:href="#f0_2e" transform="matrix(12,0,0,12,617.9,830.6)" />
<use xlink:href="#f0_2e" transform="matrix(12,0,0,12,624.1,830.6)" />
<use xlink:href="#f0_2b" transform="matrix(12,0,0,12,630,830.6)" />
<use xlink:href="#f0_2e" transform="matrix(12,0,0,12,639.5,830.6)" />
<use xlink:href="#f0_2c" transform="matrix(12,0,0,12,648.7,830.6)" />
<use xlink:href="#f0_2e" transform="matrix(12,0,0,12,657.9,830.6)" />
<use xlink:href="#f0_2b" transform="matrix(12,0,0,12,663.8,830.6)" />
<use xlink:href="#f0_20" transform="matrix(12,0,0,12,673,830.6)" />
<use xlink:href="#f0_2h" transform="matrix(12,0,0,12,682.1,830.6)" />
<use xlink:href="#f0_1z" transform="matrix(12,0,0,12,690.9,830.6)" />
<use xlink:href="#f0_21" transform="matrix(12,0,0,12,698.7,830.6)" />
<use xlink:href="#f0_2f" transform="matrix(12,0,0,12,706.7,830.6)" />
<use xlink:href="#f0_1x" transform="matrix(12,0,0,12,717,830.6)" />
<use xlink:href="#f0_2e" transform="matrix(12,0,0,12,727.7,830.6)" />
<use xlink:href="#f0_21" transform="matrix(12,0,0,12,733.9,830.6)" />
<use xlink:href="#f0_1x" transform="matrix(12,0,0,12,741.7,830.6)" />
<use xlink:href="#f0_28" transform="matrix(12,0,0,12,749.4,830.6)" />
<use xlink:href="#f0_g" transform="matrix(12,0,0,12,753.8,830.6)" />
<use xlink:href="#f0_25" transform="matrix(12,0,0,12,761.5,830.6)" />
<use xlink:href="#f0_2a" transform="matrix(12,0,0,12,765.9,830.6)" />
<use xlink:href="#f0_2i" transform="matrix(12,0,0,12,774.4,830.6)" />
<use xlink:href="#f0_21" transform="matrix(12,0,0,12,783.2,830.6)" />
<use xlink:href="#f0_2e" transform="matrix(12,0,0,12,790.9,830.6)" />
<use xlink:href="#f0_2g" transform="matrix(12,0,0,12,796.8,830.6)" />
<use xlink:href="#f0_21" transform="matrix(12,0,0,12,802.3,830.6)" />
<use xlink:href="#f0_20" transform="matrix(12,0,0,12,810,830.6)" />
<use xlink:href="#f0_1x" transform="matrix(12,0,0,12,155.8,854.8)" />
<use xlink:href="#f0_2a" transform="matrix(12,0,0,12,163.6,854.8)" />
<use xlink:href="#f0_20" transform="matrix(12,0,0,12,172.4,854.8)" />
<use xlink:href="#f0_29" transform="matrix(12,0,0,12,184.5,854.8)" />
<use xlink:href="#f0_1x" transform="matrix(12,0,0,12,197.7,854.8)" />
<use xlink:href="#f0_23" transform="matrix(12,0,0,12,205.8,854.8)" />
<use xlink:href="#f0_2a" transform="matrix(12,0,0,12,214.6,854.8)" />
<use xlink:href="#f0_25" transform="matrix(12,0,0,12,223.1,854.8)" />
<use xlink:href="#f0_22" transform="matrix(12,0,0,12,227.1,854.8)" />
<use xlink:href="#f0_25" transform="matrix(12,0,0,12,232.6,854.8)" />
<use xlink:href="#f0_21" transform="matrix(12,0,0,12,236.7,854.8)" />
<use xlink:href="#f0_20" transform="matrix(12,0,0,12,244.4,854.8)" />
<use xlink:href="#f0_25" transform="matrix(12,0,0,12,256.9,854.8)" />
<use xlink:href="#f0_29" transform="matrix(12,0,0,12,260.9,854.8)" />
<use xlink:href="#f0_1x" transform="matrix(12,0,0,12,274.2,854.8)" />
<use xlink:href="#f0_23" transform="matrix(12,0,0,12,282.2,854.8)" />
<use xlink:href="#f0_21" transform="matrix(12,0,0,12,291.1,854.8)" />
<use xlink:href="#f0_2b" transform="matrix(12,0,0,12,301.7,854.8)" />
<use xlink:href="#f0_22" transform="matrix(12,0,0,12,311.3,854.8)" />
<use xlink:href="#f0_2g" transform="matrix(12,0,0,12,319.7,854.8)" />
<use xlink:href="#f0_24" transform="matrix(12,0,0,12,325.2,854.8)" />
<use xlink:href="#f0_21" transform="matrix(12,0,0,12,333.7,854.8)" />
<use xlink:href="#f0_2b" transform="matrix(12,0,0,12,344.7,854.8)" />
<use xlink:href="#f0_1y" transform="matrix(12,0,0,12,354.2,854.8)" />
<use xlink:href="#f0_26" transform="matrix(12,0,0,12,362.7,854.8)" />
<use xlink:href="#f0_21" transform="matrix(12,0,0,12,366.7,854.8)" />
<use xlink:href="#f0_1z" transform="matrix(12,0,0,12,374.5,854.8)" />
<use xlink:href="#f0_2g" transform="matrix(12,0,0,12,382.5,854.8)" />
<use xlink:href="#f0_i" transform="matrix(12,0,0,12,387.7,854.8)" />
<use xlink:href="#f0_11" transform="matrix(12,0,0,12,64.9,883.8)" />
<use xlink:href="#f0_2a" transform="matrix(12,0,0,12,77.4,883.8)" />
<use xlink:href="#f0_2f" transform="matrix(12,0,0,12,85.8,883.8)" />
<use xlink:href="#f0_i" transform="matrix(12,0,0,12,92.4,883.8)" />
</g>
<path d="M537.9,1067.5l-1.4,-.4l1.1,-2.5l1.1,-2.6l1.1,-2.6l.7,-2.6l1.1,-2.5l1.1,-2.6l.7,-2.6l.8,-2.6l1.1,-2.5l.7,-2.6l.7,-2.9l.8,-2.6l.7,-2.9l.4,-2.6l.7,-3l.7,-2.5l.4,-3l.4,-2.6l.7,-2.9l.4,-2.6l.3,-2.9l.4,-2.9l.4,-2.6l.3,-2.9v-3l.4,-2.9V994l.4,-2.9v-5.6l.3,-2.9v-5.9l-.3,-2.6v-5.5l-.4,-2.9v-2.9l-.4,-2.6v-2.9l-.3,-2.6l-.4,-3l-.4,-2.5l-.3,-2.6l-.4,-3l-.7,-2.5l-.4,-2.6l-.7,-2.6l-.4,-2.5l-.7,-2.6l-.4,-2.6l-.7,-2.5l-.8,-2.6l-.7,-2.6l-.7,-2.2l-1.1,-2.6l-.8,-2.2l-.7,-2.6l-1.1,-2.2l-1.1,-2.2l-.7,-2.5l-1.1,-2.2l-1.1,-2.2l-1.1,-2.2l1.4,-.4l1.1,1.8l1.1,2.2l1.1,2.6l.8,2.2l1.1,2.2l.7,2.6l1.1,2.2l.7,2.6l.8,2.2l1.1,2.5l.7,2.6l.7,2.6l.8,2.6l.3,2.5l.8,2.6l.7,2.6l.4,2.5l.3,2.6l.8,2.9l.3,2.6l.4,2.6l.4,2.9l.3,2.6l.4,3v2.5l.4,3l.3,2.9v5.5l.4,2.9v11.4l-.4,2.6V994l-.3,2.9l-.4,2.6v3l-.4,2.9l-.3,2.9l-.4,2.6l-.4,2.9l-.3,3l-.8,2.9l-.3,2.6l-.4,2.9l-.7,2.6l-.8,2.9l-.3,2.6l-.8,3l-.7,2.5l-.7,3l-.8,2.5l-1.1,2.6l-.7,2.9l-1.1,2.6l-.7,2.6l-1.1,2.6l-.8,2.5l-1.1,2.6l-1.1,2.6l-1.1,2.2Z" class="g2_22" />
<path d="M346.5,981.5H555.2V983H346.5v-1.5Z" class="g2_22" />
<path d="M434.3,923.8v58.4h-1.4V923.8h1.4Zm0,-1.8l-1.4,1.1h1.4l-4,5.9l-1.1,-.8l3.7,-6.2h1.4Zm0,0h-1.4l.7,-.8l.7,.8Zm3.3,6.6l-.7,.4l-4,-5.9l1.4,-1.1l4.1,6.2l-.8,.4Z" class="g2_22" />
<path d="M433.6,922H547.5v1.5H433.6V922Z" class="g2_22" />
<path d="M386,1040.7V982.2h1.5v58.5H386Zm0,1.4l1.1,-.7H386l4.1,-6.2l1.1,1.1l-4.1,5.8H386Zm0,0h1.1l-.3,1.1l-.8,-1.1Zm-3.3,-6.2l.8,-.7l3.6,6.2l-1.1,.7l-4,-5.8l.7,-.4Z" class="g2_22" />
<path d="M354.2,1064.6L546.7,922l1.1,1.1L355.3,1065.7l-1.1,-1.1Z" class="g2_22" />
<path d="M434,922l121.5,59.5l-.7,1.5L433.3,923.5L434,922Z" class="g2_22" />
<path d="M477.2,944.8L443.1,928.2l.8,-1.4l34,16.8l-.7,1.2Zm1.8,.7l-.4,-1.5l-.3,1.1l-4,-6.2l1.4,-.8l3.7,6.3l-.4,1.1Zm0,0l.4,-1.1l.7,1.1H479Zm-7.3,0l-.4,-.7l7.3,-.8l.4,1.5l-7.3,.7v-.7Z" class="g2_22" />
<path d="M491.8,923.5H445V922h46.8v1.5Zm1.5,0l-.8,-1.5v1.5l-6.2,-4.1l1.1,-1.5l5.9,4.1v1.5Zm0,0V922l1.1,.7l-1.1,.8Zm-6.6,3.3l-.4,-.8l6.2,-4l.8,1.5l-5.9,3.6l-.7,-.3Z" class="g2_22" />
<path d="M428.5,1009.4l38.1,-27.9l.7,1.1l-38.1,28.3l-.7,-1.5Zm-1.1,1.1l1.5,.8l-1.1,-1.1l7.3,-.4v1.5l-7,.3l-.7,-1.1Zm0,0l.7,1.1h-1.4l.7,-1.1Zm3.3,-6.2h.4l-2.2,7l-1.5,-.8l2.6,-6.6l.7,.4Z" class="g2_22" />
<path d="M345.8,1054.6l209,-73.1l.4,1.5l-208.7,73.1l-.7,-1.5Z" class="g2_22" />
<path d="M443.1,1020.5l43.6,-15.1l.4,1.5l-43.6,15l-.4,-1.4Zm-1.4,.7l1.1,.7l-.4,-1.1l6.9,1.9l-.3,1.4l-7,-1.8l-.3,-1.1Zm0,0l.3,1.1l-1.1,-.4l.8,-.7Zm5.1,-5.2l.4,.4l-4.4,5.5l-1.1,-.7l4.4,-5.9l.7,.7Z" class="g2_22" />
<path d="M551.9,902.1l-7.7,9.6l-1.5,-1.1l7.7,-9.6l1.5,1.1Z" class="g2_22" />
<path d="M554.8,910.9l-7.7,9.6L546,919.4l7.7,-9.6l1.1,1.1Z" class="g2_22" />
<path d="M557,919.4l-7.7,9.6l-1.1,-.8l7.7,-9.5l1.1,.7Z" class="g2_22" />
<path d="M559.2,929.7l-7.7,9.5l-1.1,-.7l7.7,-9.5l1.1,.7Z" class="g2_22" />
<path d="M561.4,939.2l-7.7,9.6l-1.1,-1.1l7.7,-9.6l1.1,1.1Z" class="g2_22" />
<path d="M562.5,948.1l-7.7,9.5l-1.1,-.7l7.7,-9.6l1.1,.8Z" class="g2_22" />
<path d="M562.8,956.2l-7.3,9.5l-1.4,-.7l7.6,-9.6l1.1,.8Z" class="g2_22" />
<path d="M563.6,965.3l-7.7,9.6l-1.5,-1.1l7.7,-9.6l1.5,1.1Z" class="g2_22" />
<path d="M563.9,973l-7.6,9.6l-1.5,-1.1l7.7,-9.6l1.4,1.1Z" class="g2_22" />
<path d="M563.6,981.9l-7.7,9.5l-1.1,-.7l7.7,-9.6l1.1,.8Z" class="g2_22" />
<path d="M562.5,990.3l-7.7,9.6l-1.1,-.7l7.7,-9.6l1.1,.7Z" class="g2_22" />
<path d="M561.7,999.9l-7.6,9.5l-1.5,-1.1l7.7,-9.5l1.4,1.1Z" class="g2_22" />
<path d="M559.5,1011.3l-7.3,9.5l-1.4,-1.1l7.7,-9.5l1,1.1Z" class="g2_22" />
<path d="M559.9,1021.9l-10.2,9.6l-1.1,-1.1l10.2,-9.6l1.1,1.1Z" class="g2_22" />
<path d="M558.1,1031.1l-10.3,9.6l-1.1,-1.1l10.7,-9.6l.7,1.1Z" class="g2_22" />
<path d="M555.9,1044l-11.4,7.3l-.7,-1.5l11,-7.3l1.1,1.5Z" class="g2_22" />
<path d="M552.6,1053.5l-11.4,7.4l-1.1,-1.1l11.4,-7.4l1.1,1.1Z" class="g2_22" />
<path fill-rule="evenodd" d="M409.1,980.8h.7l.4,.3l.4,.4V983l-.4,.3l-.4,.4h-1.4l-.4,-.4l-.4,-.3v-1.5l.4,-.4l.4,-.3h.7Z" class="g2_22" />
<path d="M411.3,982.2h-1.5v-.3h-.3v-.4h-.4V980h.7l.4,.4l.4,.4l.3,.3l.4,.4v.7Zm-2.2,2.6V983h.4l.3,-.4v-.4h1.5v1.1l-.4,.4l-.3,.4h-.4l-.4,.3h-.3l-.4,.4Zm-2.6,-2.6h1.9v.8h.7v1.8l-.4,-.4H408l-.4,-.3h-.3v-.4l-.4,-.4v-.7l-.4,-.4Zm2.6,-2.2v1.5h-.4l-.3,.4v.3h-1.9l.4,-.3v-.4l.4,-.4v-.3l.3,-.4l.4,-.4h1.1Z" class="g2_22" />
<path fill-rule="evenodd" d="M466.9,980.4l.4,.4l.7,.3l.4,.4v1.1l-.4,.7l-.7,.4h-1.1l-.4,-.4l-.3,-.7l-.4,-.4l.4,-.7l.3,-.4l.4,-.3l.7,-.4Z" class="g2_22" />
<path d="M469.1,982.2h-1.4v-.7h-.8v-1.8h.4l.4,.3h.3l.4,.4l.4,.4l.3,.3v1.1Zm-2.2,2.2V983h.4v-.4h.4v-.4h1.4v.8l-.3,.3l-.4,.4l-.4,.4l-.3,.3h-.8Zm-2.5,-2.2h1.8v.4l.4,.4h.3v1.4h-1.1l-.3,-.3l-.4,-.4l-.4,-.4v-.7l-.3,-.4Zm2.5,-2.5v1.8h-.7v.7h-1.8l.3,-.7v-.7l.4,-.4l.4,-.4h.3l.8,-.3h.3Z" class="g2_22" />
<path d="M537.2,973.4l1.5,.7l-.4,.8l-.4,1.1l-.3,1.1l-.4,.7v1.1l-.4,1.1v2.2h-1.4v-3.3l.3,-1.1l.4,-1.1l.4,-1.1l.3,-1.1l.4,-1.1Z" class="g2_22" />
<path d="M532.1,982.2l1.4,-.3v.7l.4,1.1v.7l.4,.8l.3,1.1l.4,.7l.7,.8l.4,.7l-1.5,1.1l-.3,-1.1l-.4,-.7l-.4,-1.2l-.7,-.7v-1.1l-.4,-.7l-.3,-1.1v-.8Z" class="g2_22" />
<g clip-path="url(#c5_22)">
<g fill="#1F1A17" >
<use xlink:href="#f0_11" transform="matrix(12,0,0,12,427.2,999.3)" />
</g>
</g>
<g clip-path="url(#c6_22)">
<g fill="#1F1A17" >
<use xlink:href="#f0_12" transform="matrix(12,0,0,12,429,915.3)" />
</g>
</g>
<g clip-path="url(#c7_22)">
<g fill="#1F1A17" >
<use xlink:href="#f1_25" transform="matrix(11.9,0,0,12,519.9,981.3)" />
</g>
</g>
<g clip-path="url(#c8_22)">
<g fill="#1F1A17" >
<use xlink:href="#f0_2e" transform="matrix(12,0,0,12,513.7,993.1)" />
</g>
</g>
<g clip-path="url(#c9_22)">
<g fill="#000000" >
<use xlink:href="#f0_11" transform="matrix(12,0,0,12,379.9,978)" />
</g>
</g>
<g clip-path="url(#c10_22)">
<g fill="#000000" >
<use xlink:href="#f0_b" transform="matrix(12,0,0,12,395.3,978)" />
</g>
</g>
<g clip-path="url(#c11_22)">
<g fill="#1F1A17" >
<use xlink:href="#f0_16" transform="matrix(12,0,0,12,461.3,973.6)" />
</g>
</g>
<g fill="#000000" >
<use xlink:href="#f0_12" transform="matrix(12,0,0,12,385,1060.9)" />
<use xlink:href="#f0_b" transform="matrix(12,0,0,12,398.9,1060.9)" />
<use xlink:href="#f3_m" transform="matrix(8,0,0,8,785.4,1264.3)" />
<use xlink:href="#f3_m" transform="matrix(8,0,0,8,792.2,1264.3)" />
</g>
<defs>
<path d="M474,-326c0,0,-112,57,-188,133c0,0,-107,108,-165,254c0,0,-58,147,-58,305c0,0,0,231,114,421c0,0,114,191,297,273v-31c0,0,-92,-51,-151,-139c0,0,-59,-88,-88,-223c0,0,-30,-135,-30,-281c0,0,0,-160,25,-290c0,0,20,-102,47,-164c0,0,28,-62,75,-120c0,0,47,-57,122,-109v-29Z" 
id="f0_c"
transform="scale(0.001,-0.001)" />

<path d="M397,34c0,0,67,0,126,75c0,0,58,74,58,216c0,0,0,131,-58,201c0,0,-59,70,-133,70c0,0,-39,0,-79,-20c0,0,-29,-14,-75,-59V109c0,0,37,-37,78,-56c0,0,40,-19,83,-19ZM358,-20c0,0,-59,0,-121,21c0,0,-61,22,-126,65V773c0,0,0,117,-5,144c0,0,-6,27,-18,37c0,0,-12,9,-29,9c0,0,-21,0,-53,-12l-9,27l205,83h34V564c0,0,98,139,213,139c0,0,105,0,183,-90c0,0,78,-90,78,-245c0,0,0,-182,-121,-293c0,0,-103,-95,-231,-95Z" 
id="f0_1y"
transform="scale(0.001,-0.001)" />

<path d="M35,-326v29c0,0,92,51,151,139c0,0,60,87,89,221c0,0,28,136,28,282c0,0,0,159,-24,290c0,0,-19,103,-47,165c0,0,-28,62,-75,119c0,0,-46,57,-122,110v31c0,0,113,-56,188,-132c0,0,107,-109,165,-255c0,0,58,-147,58,-306c0,0,0,-231,-114,-420c0,0,-113,-191,-297,-273Z" 
id="f0_d"
transform="scale(0.001,-0.001)" />

<path d="M473,53c0,0,173,0,287,121c0,0,114,122,114,330c0,0,0,210,-114,330c0,0,-114,121,-293,121c0,0,-67,0,-153,-21V74c0,0,95,-21,159,-21ZM26,0V27H64c0,0,64,0,91,41c0,0,16,25,16,111V833c0,0,0,95,-21,119c0,0,-29,33,-86,33H26v27H438c0,0,226,0,345,-51c0,0,118,-52,190,-172c0,0,72,-120,72,-278c0,0,0,-211,-129,-353C916,158,773,0,478,0Z" 
id="f0_14"
transform="scale(0.001,-0.001)" />

<path d="M17,0V26c0,0,52,0,77,17c0,0,19,12,26,38c0,0,4,13,4,73V419c0,0,0,119,-5,142c0,0,-4,23,-17,33c0,0,-13,11,-33,11c0,0,-23,0,-52,-11l-7,26l207,83h31V549c0,0,86,154,176,154c0,0,41,0,68,-25c0,0,27,-25,27,-58c0,0,0,-29,-20,-49c0,0,-19,-20,-46,-20c0,0,-26,0,-58,25c0,0,-33,26,-48,26c0,0,-14,0,-29,-15c0,0,-34,-30,-70,-101V159c0,0,0,-56,15,-85c0,0,9,-20,34,-34c0,0,24,-14,71,-14V0Z" 
id="f0_2e"
transform="scale(0.001,-0.001)" />

<path d="M286,72c0,0,57,0,149,75V407c0,0,-113,-45,-145,-64c0,0,-59,-32,-85,-68c0,0,-25,-36,-25,-78c0,0,0,-54,32,-89c0,0,32,-36,74,-36ZM217,-13c0,0,-71,0,-116,48c0,0,-46,48,-46,127c0,0,0,50,22,87c0,0,31,50,106,95c0,0,76,45,252,109v26c0,0,0,102,-32,140c0,0,-32,38,-94,38c0,0,-47,0,-74,-25c0,0,-28,-25,-28,-58l1,-43c0,0,0,-34,-17,-53c0,0,-18,-18,-47,-18c0,0,-28,0,-45,19c0,0,-18,19,-18,53c0,0,0,64,66,117c0,0,65,54,184,54c0,0,91,0,149,-31c0,0,44,-23,65,-72c0,0,13,-32,13,-131V238c0,0,0,-98,4,-120c0,0,4,-22,12,-29c0,0,9,-8,20,-8c0,0,12,0,21,5c0,0,16,10,61,55V99C676,99,592,-12,516,-12c0,0,-37,0,-58,24c0,0,-22,26,-23,86C435,98,330,17,303,5c0,0,-40,-18,-86,-18Z" 
id="f0_1x"
transform="scale(0.001,-0.001)" />

<path d="M336,-20L117,554c0,0,-21,55,-42,74c0,0,-21,19,-66,29v26H296V657c0,0,-40,-3,-52,-14c0,0,-13,-12,-13,-33c0,0,0,-23,13,-56L390,162L537,481L498,581c0,0,-18,46,-47,63c0,0,-17,11,-61,13v26H716V657c0,0,-54,-2,-77,-20c0,0,-15,-12,-15,-39c0,0,0,-15,6,-30L785,177L929,554c0,0,15,40,15,65c0,0,0,14,-15,25c0,0,-14,12,-57,13v26h216V657c0,0,-65,-10,-95,-89L764,-20H733L563,415L363,-20Z" 
id="f0_2j"
transform="scale(0.001,-0.001)" />

<path d="M411,-239c0,0,134,0,198,48c0,0,64,47,64,100c0,0,0,39,-38,55c0,0,-39,16,-154,19c0,0,-167,5,-258,17c0,0,-35,-37,-53,-70c0,0,-17,-32,-17,-60c0,0,0,-36,43,-62c0,0,74,-47,215,-47ZM380,257c0,0,56,0,93,43c0,0,36,42,36,133c0,0,0,118,-51,185c0,0,-38,49,-98,49c0,0,-55,0,-92,-44c0,0,-37,-44,-37,-135c0,0,0,-117,50,-182c0,0,39,-49,99,-49ZM345,-328c0,0,-144,0,-243,64c0,0,-56,38,-56,78c0,0,0,18,8,36c0,0,13,27,52,76c0,0,5,7,76,80c0,0,-39,23,-55,41c0,0,-16,19,-16,42c0,0,0,26,22,61c0,0,21,35,98,100c0,0,-63,30,-97,85c0,0,-33,55,-33,121c0,0,0,101,76,174c0,0,77,73,196,73c0,0,98,0,170,-48H688c0,0,32,0,37,-2c0,0,6,-2,8,-6c0,0,4,-7,4,-24c0,0,0,-20,-4,-27c0,0,-2,-4,-7,-6c0,0,-6,-2,-38,-2H599c0,0,41,-54,41,-137c0,0,0,-96,-73,-163c0,0,-73,-68,-196,-68c0,0,-51,0,-104,15c0,0,-33,-28,-44,-49c0,0,-12,-22,-12,-37c0,0,0,-12,13,-24c0,0,12,-12,48,-17c0,0,21,-4,104,-6c0,0,154,-4,199,-11c0,0,70,-10,111,-51c0,0,42,-41,42,-102c0,0,0,-84,-79,-158c0,0,-117,-108,-304,-108Z" 
id="f0_23"
transform="scale(0.001,-0.001)" />

<path d="M398,24c0,0,74,0,120,58c0,0,61,76,61,214c0,0,0,156,-69,240c0,0,-47,59,-113,59c0,0,-36,0,-71,-18c0,0,-27,-14,-88,-81V242c0,0,0,-83,6,-109c0,0,11,-43,51,-76c0,0,41,-33,103,-33ZM-4,-326v27H15c5,0,42,0,69,16c0,0,14,8,22,26c0,0,7,19,7,94V481c0,0,0,67,-6,85c0,0,-5,18,-18,27c0,0,-13,9,-36,9c0,0,-18,0,-45,-10L0,615l209,85h29V540c0,0,53,91,106,127c0,0,53,36,112,36c0,0,103,0,172,-80c0,0,84,-99,84,-257c0,0,0,-176,-102,-292c0,0,-83,-94,-210,-94c0,0,-55,0,-95,16c0,0,-30,10,-67,44V-167c0,0,0,-71,8,-90c0,0,9,-20,30,-31c0,0,21,-11,77,-11v-27Z" 
id="f0_2c"
transform="scale(0.001,-0.001)" />

<path d="M20,0V26c0,0,45,0,71,15c0,0,15,7,24,28c0,0,9,21,9,85V773c0,0,0,117,-5,144c0,0,-6,27,-17,37c0,0,-12,9,-31,9c0,0,-16,0,-51,-12L10,978l204,83h34V561c0,0,83,91,131,116c0,0,49,26,97,26c0,0,58,0,100,-32c0,0,42,-32,62,-101c0,0,14,-47,14,-174V154c0,0,0,-65,11,-89c0,0,7,-18,25,-28c0,0,18,-11,66,-11V0H418V26h15c0,0,48,0,67,15c0,0,18,15,26,43c0,0,2,12,2,70V396c0,0,0,112,-12,147c0,0,-11,35,-36,53c0,0,-26,17,-61,17c0,0,-37,0,-76,-19c0,0,-40,-20,-95,-79V154c0,0,0,-70,8,-87c0,0,8,-17,29,-29c0,0,22,-12,74,-12V0Z" 
id="f0_24"
transform="scale(0.001,-0.001)" />

<path d="M312,-20c0,0,-62,0,-143,22c0,0,-25,8,-40,8c0,0,-18,0,-27,-19H77V234h25c0,0,21,-105,80,-158c0,0,59,-53,132,-53c0,0,51,0,84,31c0,0,32,30,32,72c0,0,0,52,-36,87c0,0,-36,35,-144,88c0,0,-109,54,-142,97c0,0,-34,43,-34,107c0,0,0,85,58,141c0,0,58,57,150,57c0,0,40,0,97,-17c0,0,38,-11,51,-11c0,0,12,0,19,5c0,0,7,5,15,23h25V470H464c0,0,-28,110,-72,149c0,0,-45,40,-113,40c0,0,-53,0,-85,-28c0,0,-32,-27,-32,-61c0,0,0,-41,24,-71c0,0,23,-31,94,-65L389,381c0,0,152,-74,152,-194c0,0,0,-94,-71,-151c0,0,-70,-56,-158,-56Z" 
id="f0_2f"
transform="scale(0.001,-0.001)" />

<path d="M406,32c0,0,72,0,119,60c0,0,47,59,47,205c0,0,0,181,-78,286c0,0,-53,71,-135,71c0,0,-40,0,-79,-23c0,0,-40,-24,-65,-83c0,0,-24,-58,-24,-151c0,0,0,-149,59,-257c0,0,59,-108,156,-108ZM374,-20c0,0,-154,0,-245,122c0,0,-77,104,-77,233c0,0,0,94,46,187c0,0,47,92,123,137c0,0,76,44,161,44c0,0,155,0,249,-118c0,0,80,-100,80,-231c0,0,0,-91,-44,-185C667,169,623,75,546,27c0,0,-77,-47,-172,-47Z" 
id="f0_2b"
transform="scale(0.001,-0.001)" />

<path d="M55,0V26c0,0,50,0,67,10c0,0,17,10,27,32c0,0,10,23,10,86V418c0,0,0,111,-6,144c0,0,-6,24,-17,33c0,0,-11,10,-30,10c0,0,-21,0,-51,-11L45,620l206,83h33V154c0,0,0,-64,9,-85c0,0,9,-22,27,-32c0,0,19,-11,67,-11V0ZM222,909c0,0,-32,0,-54,23c0,0,-22,22,-22,53c0,0,0,32,22,54c0,0,22,22,54,22c0,0,31,0,53,-22c0,0,22,-22,22,-54c0,0,0,-31,-22,-53c0,0,-22,-23,-53,-23Z" 
id="f0_25"
transform="scale(0.001,-0.001)" />

<path d="M21,0V26H35c0,0,53,0,71,27c0,0,18,27,18,101V408c0,0,0,123,-5,150c0,0,-6,27,-17,37c0,0,-12,10,-31,10c0,0,-21,0,-50,-11L10,620l206,83h32V558c0,0,120,145,229,145c0,0,56,0,96,-28c0,0,40,-28,64,-92c0,0,16,-45,16,-137V154c0,0,0,-65,11,-88c0,0,8,-19,26,-29c0,0,18,-11,68,-11V0H419V26h14c0,0,47,0,66,15c0,0,20,15,27,43c0,0,3,11,3,70V434c0,0,0,93,-24,135c0,0,-24,42,-81,42c0,0,-88,0,-176,-97V154c0,0,0,-69,9,-86c0,0,10,-21,28,-31c0,0,19,-11,75,-11V0Z" 
id="f0_2a"
transform="scale(0.001,-0.001)" />

<path d="M376,-20L133,556c0,0,-17,41,-31,58c0,0,-15,18,-39,30c0,0,-12,7,-50,13v26H335V657H314c0,0,-29,0,-44,-14c0,0,-16,-14,-15,-38c0,0,-1,-26,15,-62L429,165L588,557c0,0,17,42,17,64c0,0,0,10,-6,17c0,0,-8,11,-21,15c0,0,-13,4,-52,4v26H750V657c0,0,-39,-3,-54,-16c0,0,-26,-23,-47,-76L409,-20Z" 
id="f0_2i"
transform="scale(0.001,-0.001)" />

<path d="M255,-10c0,0,-35,0,-68,18c0,0,-32,19,-48,55c0,0,-16,35,-16,109V632H15v24c0,0,41,16,84,56c0,0,43,39,77,92c0,0,17,29,48,104h23V683H407V632H247V188c0,0,0,-66,19,-90c0,0,19,-23,49,-23c0,0,24,0,47,16c0,0,23,15,36,45h29c0,0,-26,-73,-74,-110c0,0,-47,-36,-98,-36Z" 
id="f0_2g"
transform="scale(0.001,-0.001)" />

<path d="M63,0V26H93c0,0,30,0,54,15c0,0,25,15,34,41c0,0,10,25,10,99V630H58v53H191v45c0,0,0,102,33,173c0,0,32,71,100,114c0,0,68,44,152,44c0,0,79,0,145,-51c0,0,43,-33,43,-75c0,0,0,-22,-19,-42c0,0,-20,-20,-42,-20c0,0,-17,0,-36,12c0,0,-19,13,-47,53c0,0,-28,41,-51,55c0,0,-23,14,-51,14c0,0,-35,0,-58,-18c0,0,-24,-18,-35,-57c0,0,-10,-38,-10,-197V683H491V630H315V181c0,0,0,-96,21,-122c0,0,27,-33,73,-33h62V0Z" 
id="f0_22"
transform="scale(0.001,-0.001)" />

<path d="M58,0V26c0,0,47,0,64,10c0,0,18,10,28,32c0,0,9,23,9,86V775c0,0,0,116,-5,142c0,0,-5,27,-17,37c0,0,-11,9,-29,9c0,0,-20,0,-49,-12L46,978l204,83h34V154c0,0,0,-64,9,-85c0,0,9,-21,29,-32c0,0,19,-11,72,-11V0Z" 
id="f0_28"
transform="scale(0.001,-0.001)" />

<path d="M479,469c0,0,-4,66,-16,93c0,0,-18,42,-55,65c0,0,-37,24,-78,24c0,0,-62,0,-111,-48c0,0,-48,-48,-57,-134ZM355,-20c0,0,-123,0,-211,95c0,0,-87,96,-87,258c0,0,0,175,90,273c0,0,89,98,225,98c0,0,115,0,189,-76c0,0,74,-75,74,-202H162c0,0,0,-152,74,-239c0,0,75,-86,175,-86c0,0,67,0,117,36c0,0,50,37,83,127l24,-15c0,0,-16,-102,-91,-186c0,0,-76,-83,-189,-83Z" 
id="f0_21"
transform="scale(0.001,-0.001)" />

<path d="M399,62c0,0,68,0,131,68V481c0,0,-5,51,-27,93c0,0,-22,42,-59,63c0,0,-37,21,-72,21c0,0,-65,0,-117,-59c0,0,-67,-77,-67,-226c0,0,0,-151,65,-231c0,0,66,-80,146,-80ZM330,-20c0,0,-112,0,-196,93c0,0,-83,94,-83,240c0,0,0,147,92,269c0,0,93,122,238,122c0,0,90,0,149,-58V773c0,0,0,117,-6,144c0,0,-5,27,-17,37c0,0,-12,9,-30,9c0,0,-20,0,-52,-12l-9,27l204,83h33V270c0,0,0,-120,6,-146c0,0,5,-27,18,-37c0,0,12,-11,28,-11c0,0,21,0,54,13l9,-26L564,-20H530V78C530,78,480,25,432,2c0,0,-47,-22,-102,-22Z" 
id="f0_20"
transform="scale(0.001,-0.001)" />

<path d="M342,-20c0,0,-116,0,-203,97c0,0,-86,98,-86,264c0,0,0,161,96,261c0,0,95,101,230,101c0,0,100,0,165,-53c0,0,65,-54,65,-111c0,0,0,-29,-18,-46c0,0,-18,-18,-51,-18c0,0,-44,0,-66,29c0,0,-13,15,-17,59c0,0,-4,45,-30,68c0,0,-26,22,-73,22c0,0,-74,0,-120,-55c0,0,-60,-73,-60,-193c0,0,0,-122,60,-216c0,0,60,-93,162,-93c0,0,73,0,131,49c0,0,41,35,80,126l22,-10C629,261,601,125,521,52c0,0,-81,-72,-179,-72Z" 
id="f0_1z"
transform="scale(0.001,-0.001)" />

<path d="M292,-20c0,0,-57,0,-100,33c0,0,-42,33,-58,85c0,0,-17,52,-17,148V551c0,0,0,49,-10,68c0,0,-11,18,-31,29c0,0,-19,9,-68,9c-2,0,-4,0,-6,0v26H242V226c0,0,0,-95,33,-125c0,0,33,-30,80,-30c0,0,32,0,73,21c0,0,40,20,96,76V555c0,0,0,59,-21,80c0,0,-22,21,-89,22v26H647V269c0,0,0,-119,6,-145c0,0,6,-27,18,-37c0,0,12,-11,29,-11c0,0,23,0,52,13L763,63L558,-20H524V124C524,124,436,29,390,4c0,0,-47,-24,-98,-24Z" 
id="f0_2h"
transform="scale(0.001,-0.001)" />

<path d="M23,0V26c0,0,47,0,66,10c0,0,19,11,28,33c0,0,10,22,10,85V416c0,0,0,112,-7,145c0,0,-5,25,-16,34c0,0,-11,10,-31,10c0,0,-21,0,-50,-11L12,620l207,83h32V557c0,0,75,75,88,86c0,0,34,29,72,44c0,0,39,16,77,16c0,0,64,0,110,-37c0,0,47,-38,62,-109c0,0,77,90,130,118c0,0,53,28,109,28c0,0,54,0,96,-28c0,0,42,-28,67,-91c0,0,16,-43,16,-136V154c0,0,0,-64,10,-88c0,0,8,-16,28,-28c0,0,20,-12,65,-12V0H844V26h14c0,0,44,0,69,18c0,0,17,12,24,38c0,0,3,13,3,72V448c0,0,0,83,-20,117c0,0,-29,48,-93,48c0,0,-39,0,-79,-20c0,0,-40,-19,-97,-73l-1,-8l2,-32V154c0,0,0,-70,8,-87c0,0,7,-17,29,-29c0,0,21,-12,73,-12V0H431V26c0,0,57,0,78,14c0,0,21,13,29,40c0,0,4,13,4,74V448c0,0,0,83,-25,120c0,0,-33,48,-91,48c0,0,-40,0,-80,-22c0,0,-61,-33,-95,-74V154c0,0,0,-67,10,-87c0,0,9,-20,27,-30c0,0,18,-11,74,-11V0Z" 
id="f0_29"
transform="scale(0.001,-0.001)" />

<path d="M145,-328c0,0,-44,0,-73,25c0,0,-28,25,-28,58c0,0,0,31,21,50c0,0,20,19,56,19c0,0,25,0,67,-16c0,0,30,-11,38,-11c0,0,22,0,49,23c0,0,26,23,53,89L376,28L131,542c0,0,-11,24,-36,58c0,0,-19,27,-30,36c0,0,-18,12,-56,21v26H328V657H312c0,0,-33,0,-50,-15c0,0,-17,-14,-17,-36c0,0,0,-30,25,-81L437,179L589,557c0,0,12,31,12,62c0,0,0,13,-5,20c0,0,-6,8,-19,13c0,0,-12,5,-44,5v26H754V657c0,0,-27,-3,-42,-12c0,0,-15,-9,-33,-34c0,0,-7,-10,-25,-58L376,-128c0,0,-40,-99,-105,-150c0,0,-66,-50,-126,-50Z" 
id="f0_2l"
transform="scale(0.001,-0.001)" />

<path d="M82,-253v33c0,0,77,25,119,78c0,0,42,54,42,114c0,0,0,14,-7,23c0,0,-5,6,-11,6c0,0,-8,0,-35,-14c0,0,-14,-7,-28,-7c0,0,-37,0,-58,21C104,1,82,23,82,61c0,0,0,36,28,62c0,0,28,27,68,27c0,0,49,0,88,-43c0,0,38,-43,38,-113c0,0,0,-77,-53,-143c0,0,-53,-66,-169,-104Z" 
id="f0_g"
transform="scale(0.001,-0.001)" />

<path d="M12,0V27c0,0,38,4,66,16c0,0,46,19,88,52c0,0,41,33,95,101L496,496L300,789c0,0,-81,119,-138,156c0,0,-57,37,-130,40v27H499V985c0,0,-59,-3,-81,-20c0,0,-22,-17,-22,-38c0,0,0,-28,35,-81L588,613L767,841c0,0,31,41,38,56c0,0,7,15,7,31c0,0,0,15,-9,27c0,0,-11,16,-28,22c0,0,-17,7,-71,8v27h359V985c0,0,-42,-3,-69,-14c0,0,-40,-17,-74,-46c0,0,-34,-29,-95,-108L624,560L842,236c0,0,90,-134,134,-169c0,0,43,-36,111,-40V0H652V27c0,0,43,1,64,9c0,0,16,7,26,21c0,0,10,14,10,28c0,0,0,17,-7,35c0,0,-5,12,-41,66L532,443L320,173c0,0,-33,-44,-40,-58c0,0,-7,-15,-7,-30c0,0,0,-24,21,-40c0,0,20,-15,76,-18V0Z" 
id="f0_1o"
transform="scale(0.001,-0.001)" />

<path d="M191,-20c0,0,-34,0,-58,24c0,0,-24,24,-24,58c0,0,0,35,24,59c0,0,24,24,58,24c0,0,35,0,59,-24c0,0,24,-25,24,-59c0,0,0,-34,-24,-58c0,0,-25,-24,-59,-24Z" 
id="f0_i"
transform="scale(0.001,-0.001)" />

<path d="M678,393L506,802L330,393ZM11,0V27c0,0,63,12,82,30c0,0,38,35,84,145l356,832h27L912,193c0,0,43,-101,77,-132c0,0,35,-30,97,-34V0H687V27c0,0,60,3,82,21c0,0,21,17,21,41c0,0,0,33,-30,104L700,338H307L239,179c0,0,-26,-59,-26,-88c0,0,0,-23,22,-41c0,0,22,-17,95,-23V0Z" 
id="f0_11"
transform="scale(0.001,-0.001)" />

<path d="M38,0V27H74c0,0,63,0,91,37c0,0,18,24,18,115V833c0,0,0,77,-10,102c0,0,-7,18,-30,32c0,0,-33,18,-69,18H38v27H470V985H434c0,0,-62,0,-90,-37c0,0,-18,-24,-18,-115V179c0,0,0,-77,9,-102c0,0,8,-18,31,-32c0,0,32,-18,68,-18h36V0Z" 
id="f0_19"
transform="scale(0.001,-0.001)" />

<path d="M31,0V27H67c0,0,36,0,68,18c0,0,24,12,32,36c0,0,9,24,9,98V836c0,0,0,96,-19,119c0,0,-27,30,-90,30H31v27H811L822,790H792c0,0,-15,80,-34,110c0,0,-19,30,-57,46c0,0,-29,11,-105,11H319V557H541c0,0,87,0,116,26c0,0,39,35,44,121h27V352H701c0,0,-11,74,-21,95c0,0,-14,26,-45,41c0,0,-30,15,-94,15H319V168c0,0,0,-67,6,-81c0,0,6,-15,21,-24c0,0,15,-8,56,-8H574c0,0,86,0,124,12c0,0,39,12,75,47c0,0,46,46,95,139h30L811,0Z" 
id="f0_15"
transform="scale(0.001,-0.001)" />

<path d="M26,0V27H62c0,0,63,0,91,37c0,0,18,24,18,115V833c0,0,0,77,-10,102c0,0,-7,18,-30,32c0,0,-33,18,-69,18H26v27H459V985H422c0,0,-35,0,-67,-17c0,0,-23,-12,-32,-36c0,0,-9,-25,-9,-99V542H784V833c0,0,0,77,-10,102c0,0,-8,18,-31,32c0,0,-33,18,-68,18H639v27h432V985h-36c0,0,-36,0,-68,-17c0,0,-24,-12,-32,-36c0,0,-9,-25,-9,-99V179c0,0,0,-77,10,-102c0,0,7,-18,31,-32c0,0,32,-18,68,-18h36V0H639V27h36c0,0,62,0,90,37c0,0,19,24,19,115V487H314V179c0,0,0,-77,9,-102c0,0,8,-18,32,-32c0,0,32,-18,67,-18h37V0Z" 
id="f0_18"
transform="scale(0.001,-0.001)" />

<path d="M384,85c0,0,44,0,78,19c0,0,35,19,68,62V487c0,0,0,55,-15,87c0,0,-14,33,-51,55c0,0,-38,22,-85,22c0,0,-84,0,-143,-71c0,0,-60,-70,-60,-214c0,0,0,-138,61,-209c0,0,61,-72,147,-72Zm35,-411v27h15c0,0,41,0,63,12c0,0,15,8,24,30c0,0,9,21,9,83V119C530,119,462,39,411,9c0,0,-50,-29,-105,-29c0,0,-99,0,-177,90c0,0,-78,90,-78,241c0,0,0,174,103,283c0,0,103,109,248,109c0,0,43,0,78,-12c0,0,36,-12,65,-35c0,0,43,20,83,47h25V-174c0,0,0,-66,9,-85c0,0,9,-19,28,-30c0,0,19,-10,74,-10v-27Z" 
id="f0_2d"
transform="scale(0.001,-0.001)" />

<path d="M328,-20c0,0,-34,0,-58,24c0,0,-25,24,-25,58c0,0,0,35,25,59c0,0,24,24,58,24c0,0,34,0,59,-24c0,0,24,-24,24,-59c0,0,0,-34,-25,-58c0,0,-24,-24,-58,-24ZM308,238c0,0,5,94,23,155c0,0,18,62,76,172c0,0,44,84,58,129c0,0,13,46,13,92c0,0,0,95,-50,150c0,0,-50,56,-123,56c0,0,-65,0,-102,-30c0,0,-38,-31,-38,-67c0,0,0,-27,23,-67c0,0,22,-41,22,-62c0,0,0,-26,-17,-45c0,0,-17,-18,-42,-18c0,0,-31,0,-57,31c0,0,-26,31,-26,86c0,0,0,85,73,150c0,0,72,64,196,64c0,0,153,0,225,-89c0,0,54,-66,54,-146c0,0,0,-54,-24,-112c0,0,-25,-57,-92,-135C500,552,391,430,367,378c0,0,-24,-51,-29,-140Z" 
id="f0_z"
transform="scale(0.001,-0.001)" />

<path d="M107,-21V325h27c0,0,19,-109,52,-163c0,0,33,-54,100,-90c0,0,68,-36,148,-36c0,0,93,0,148,49c0,0,54,50,54,117c0,0,0,37,-21,75c0,0,-20,38,-64,71c0,0,-29,22,-159,95c0,0,-130,72,-185,115c0,0,-55,44,-83,96c0,0,-28,52,-28,114c0,0,0,109,83,188c0,0,84,78,213,78c0,0,81,0,171,-39c0,0,42,-19,59,-19c0,0,20,0,32,11c0,0,12,12,20,47h27V684H674c0,0,-14,101,-48,161c0,0,-35,60,-100,95c0,0,-64,35,-133,35c0,0,-77,0,-128,-47c0,0,-51,-48,-51,-108c0,0,0,-46,32,-84c0,0,47,-56,221,-149c0,0,142,-76,194,-117c0,0,51,-41,80,-96c0,0,28,-55,28,-115c0,0,0,-115,-90,-198c0,0,-89,-82,-229,-82c0,0,-44,0,-83,6c0,0,-23,4,-95,27c0,0,-73,24,-93,24c0,0,-18,0,-29,-11c0,0,-11,-12,-16,-46Z" 
id="f0_1j"
transform="scale(0.001,-0.001)" />

<path d="M197,0V27c0,0,71,2,92,13c0,0,21,10,29,29c0,0,9,18,9,109V725c0,0,0,110,-8,141c0,0,-5,24,-19,35c0,0,-14,11,-33,11c0,0,-28,0,-77,-23l-11,23l246,121h25V178c0,0,0,-85,7,-106c0,0,7,-21,29,-32c0,0,23,-11,91,-13V0Z" 
id="f0_l"
transform="scale(0.001,-0.001)" />

<path d="M518,-21c0,0,-124,0,-220,50c0,0,-95,52,-145,146c0,0,-50,94,-50,202c0,0,0,166,88,322c0,0,89,157,244,246c0,0,155,89,312,89c0,0,74,0,166,-34c0,0,40,-15,58,-15c0,0,18,0,31,7c0,0,14,8,45,42h28L999,707H972l-3,82c0,0,-4,45,-17,80c0,0,-14,35,-40,61c0,0,-27,26,-68,40c0,0,-41,15,-91,15c0,0,-134,0,-234,-73c0,0,-127,-94,-199,-264c0,0,-60,-140,-60,-284c0,0,0,-147,86,-234c0,0,86,-88,223,-88c0,0,104,0,185,46c0,0,81,47,151,143h35C940,231,858,100,757,39c0,0,-100,-60,-239,-60Z" 
id="f1_13"
transform="scale(0.001,-0.001)" />

<path d="M-102,0l8,27c0,0,64,6,103,29c0,0,59,36,163,140L467,492L386,784c0,0,-37,135,-64,166c0,0,-27,31,-95,36l7,26H596l-9,-26c0,0,-50,0,-67,-7c0,0,-18,-6,-27,-19c0,0,-9,-14,-9,-30c0,0,0,-18,18,-84L571,596L729,755c0,0,94,94,129,151c0,0,13,20,13,36c0,0,0,18,-15,28c0,0,-20,13,-75,16l8,26h343l-8,-26c0,0,-73,-11,-127,-44c0,0,-54,-34,-147,-134L588,541L662,269c0,0,10,-39,38,-120c0,0,18,-53,36,-75c0,0,17,-22,45,-34c0,0,27,-11,82,-14L855,0H458l8,26c0,0,61,3,88,24c0,0,20,15,20,39c0,0,0,21,-19,92L483,436L247,196c0,0,-69,-71,-83,-94c0,0,-8,-13,-8,-26c0,0,0,-23,22,-37c0,0,11,-6,64,-13L234,0Z" 
id="f1_1o"
transform="scale(0.001,-0.001)" />

<path d="M-162,-328c0,0,-45,0,-77,26c0,0,-23,19,-23,49c0,0,0,23,19,41c0,0,19,17,47,17c0,0,20,0,34,-12c0,0,13,-13,13,-29c0,0,0,-17,-15,-31c0,0,-12,-10,-12,-16c0,0,0,-6,5,-10c0,0,7,-5,21,-5c0,0,32,0,67,20c0,0,36,20,63,60c0,0,27,40,52,115c0,0,10,32,58,205L233,608H89l10,49c0,0,69,0,96,9c0,0,28,8,50,32c0,0,23,25,55,91c0,0,42,90,81,139c0,0,53,66,112,100c0,0,58,33,110,33c0,0,54,0,88,-29c0,0,33,-28,33,-62c0,0,0,-26,-18,-44c0,0,-17,-18,-44,-18c0,0,-23,0,-37,14c0,0,-15,13,-15,32c0,0,0,12,10,29c0,0,10,18,10,24c0,0,0,10,-6,15c0,0,-9,8,-27,8c0,0,-43,0,-77,-31c0,0,-46,-41,-83,-127c0,0,-18,-45,-74,-215H473L460,608H350L260,279C260,279,201,65,145,-51c0,0,-79,-166,-169,-229c0,0,-69,-48,-138,-48Z" 
id="f1_22"
transform="scale(0.001,-0.001)" />

<path d="M212,177c0,0,71,0,126,63c0,0,35,42,88,200c0,0,-37,82,-84,121c0,0,-47,38,-115,38c0,0,-80,0,-133,-55C94,544,41,488,41,395c0,0,0,-99,52,-159c0,0,53,-59,119,-59ZM754,79c0,0,-68,0,-124,40c0,0,-56,39,-132,175c0,0,-44,-89,-102,-132c0,0,-58,-43,-142,-43c0,0,-106,0,-180,78C74,197,0,275,0,395c0,0,0,122,69,197c0,0,69,76,162,76c0,0,67,0,116,-37c0,0,50,-36,101,-134c0,0,46,110,108,158c0,0,63,49,164,49c0,0,60,0,110,-19c0,0,51,-18,107,-60V581c0,0,-88,66,-174,66c0,0,-53,0,-91,-24c0,0,-37,-24,-71,-81c0,0,-24,-42,-81,-196c0,0,90,-205,250,-205c0,0,93,0,167,61V159c0,0,-83,-80,-183,-80Z" 
id="f2_3b"
transform="scale(0.001,-0.001)" />

<path d="M548,-21c0,0,-251,0,-389,185C159,164,56,303,56,490c0,0,0,152,68,278c0,0,67,127,186,197c0,0,119,69,260,69c0,0,109,0,216,-53c0,0,31,-17,44,-17c0,0,20,0,35,14c0,0,20,21,28,56h26L943,690H919c0,0,-46,155,-131,224c0,0,-86,68,-206,68c0,0,-100,0,-181,-51c0,0,-81,-52,-128,-163c0,0,-46,-112,-46,-279c0,0,0,-137,44,-238c0,0,44,-101,132,-154c0,0,88,-54,201,-54c0,0,99,0,174,42c0,0,75,42,165,167l23,-14C966,238,890,103,789,40c0,0,-102,-61,-241,-61Z" 
id="f0_13"
transform="scale(0.001,-0.001)" />

<path d="M140,-21c0,0,-26,0,-44,17C96,-4,79,13,79,40c0,0,0,19,6,33c0,0,8,20,34,55c0,0,46,60,64,126c0,0,32,114,41,321H190c0,0,-55,0,-81,-18c0,0,-44,-26,-80,-89H0c0,0,42,129,98,178c0,0,43,37,120,37H743V575H562c0,0,-27,-171,-27,-327c0,0,0,-77,27,-110c0,0,27,-33,67,-33c0,0,33,0,56,22c0,0,24,22,31,65h27C743,192,730,74,686,26c0,0,-44,-47,-98,-47c0,0,-58,0,-97,51c0,0,-39,53,-39,198c0,0,0,91,28,347H286c0,0,-23,-390,-56,-494c0,0,-33,-102,-90,-102Z" 
id="f2_2c"
transform="scale(0.001,-0.001)" />

<path d="M2,-20L369,1061h59L62,-20Z" 
id="f0_j"
transform="scale(0.001,-0.001)" />

<path d="M33,0V27c0,0,264,241,371,393c0,0,108,152,108,278c0,0,0,96,-59,158c0,0,-59,62,-141,62c0,0,-75,0,-134,-43c0,0,-59,-44,-88,-128H63c0,0,18,138,95,212c0,0,77,74,193,74c0,0,123,0,205,-80c0,0,83,-79,83,-186c0,0,0,-77,-36,-154c0,0,-55,-121,-179,-256C424,357,238,154,191,112H455c0,0,81,0,114,6c0,0,32,6,58,25c0,0,27,18,46,52h27L630,0Z" 
id="f0_m"
transform="scale(0.001,-0.001)" />

<path d="M547,28c0,0,140,0,226,102c0,0,101,121,101,357c0,0,0,181,-56,304c0,0,-42,96,-112,141c0,0,-71,45,-159,45c0,0,-135,0,-218,-97C329,880,225,758,225,508c0,0,0,-245,106,-378c0,0,82,-102,216,-102Zm491,-326c0,0,-103,4,-220,41c0,0,-117,38,-222,105c0,0,-104,67,-180,142c0,0,-108,42,-171,91c0,0,-91,72,-141,178c0,0,-50,105,-50,249c0,0,0,227,147,377c0,0,147,149,355,149c0,0,199,0,344,-150c0,0,145,-150,145,-379c0,0,0,-185,-104,-326C941,179,838,39,673,-10c0,0,76,-131,164,-194c0,0,88,-62,201,-71v-23Z" 
id="f0_1h"
transform="scale(0.001,-0.001)" />

<path d="M405,24c0,0,65,0,116,62c0,0,51,61,51,174c0,0,0,128,-50,221c0,0,-51,93,-144,93c0,0,-29,0,-61,-12c0,0,-33,-12,-96,-51c0,0,-14,-101,-14,-163c0,0,0,-72,27,-155c0,0,26,-84,79,-134c0,0,38,-35,92,-35ZM384,-17c0,0,-104,0,-177,68C207,51,66,185,66,397c0,0,0,136,54,258c0,0,54,122,156,217c0,0,101,95,193,128c0,0,93,33,172,33h44v-28c0,0,-99,-10,-161,-39c0,0,-62,-29,-123,-90c0,0,-61,-60,-101,-135c0,0,-39,-74,-66,-176c0,0,107,73,215,73c0,0,104,0,180,-83c0,0,76,-84,76,-215c0,0,0,-126,-77,-231c0,0,-92,-126,-244,-126Z" 
id="f0_q"
transform="scale(0.001,-0.001)" />

<path d="M17,-328c0,0,-67,0,-100,24c0,0,-33,25,-33,51c0,0,0,26,18,45c0,0,18,18,43,18c0,0,19,0,40,-9c0,0,12,-6,48,-38c0,0,37,-33,61,-33c0,0,18,0,35,14c0,0,17,14,25,46c0,0,8,33,8,141V416c0,0,0,113,-6,145c0,0,-6,25,-17,34c0,0,-11,10,-31,10c0,0,-21,0,-51,-11L47,620l207,83h32V16c0,0,0,-175,-74,-260c0,0,-75,-84,-195,-84ZM223,908c0,0,-32,0,-54,23c0,0,-22,22,-22,53c0,0,0,32,22,55c0,0,22,22,54,22c0,0,32,0,54,-22c0,0,22,-23,22,-55c0,0,0,-31,-22,-53c0,0,-22,-23,-54,-23Z" 
id="f0_26"
transform="scale(0.001,-0.001)" />

<path d="M485,53c0,0,135,0,206,61c0,0,71,60,71,150c0,0,0,59,-32,114c0,0,-33,54,-105,85c0,0,-72,32,-179,32c0,0,-46,0,-79,-2c0,0,-33,-1,-53,-5V73c0,0,86,-20,171,-20ZM455,547c0,0,109,0,164,23c0,0,55,24,84,72c0,0,29,49,29,106c0,0,0,89,-72,151c0,0,-73,63,-212,63c0,0,-74,0,-134,-16V557c0,0,27,-5,63,-8c0,0,35,-2,78,-2ZM24,0V27H63c0,0,63,0,91,41c0,0,17,26,17,111V833c0,0,0,94,-22,119c0,0,-29,33,-86,33H24v27H462c0,0,122,0,196,-18c0,0,112,-27,171,-95c0,0,59,-68,59,-157c0,0,0,-76,-46,-136c0,0,-47,-60,-137,-89c0,0,105,-23,157,-72c0,0,73,-69,73,-168c0,0,0,-75,-48,-145C887,132,839,63,756,32C756,32,673,0,502,0Z" 
id="f0_12"
transform="scale(0.001,-0.001)" />

<path d="M145,-17c0,0,-29,0,-48,18C97,1,79,19,79,46c0,0,0,28,20,93L201,475c0,0,24,82,24,103c0,0,0,17,-11,27c0,0,-12,10,-32,10c0,0,-16,0,-68,-8v30l260,42L218,149c0,0,-16,-53,-16,-64c0,0,0,-11,6,-19c0,0,7,-7,15,-7c0,0,11,0,25,12c0,0,39,33,78,95l26,-17C352,149,304,72,238,20c0,0,-49,-37,-93,-37ZM342,825c0,0,-31,0,-53,22c0,0,-22,22,-22,53c0,0,0,31,22,53c0,0,21,22,53,22c0,0,31,0,53,-22c0,0,22,-22,22,-53c0,0,0,-31,-23,-53c0,0,-22,-22,-52,-22Z" 
id="f1_25"
transform="scale(0.001,-0.001)" />

<path d="M118,598L78,819c0,0,-17,92,-17,124c0,0,0,48,19,70c0,0,20,21,53,21c0,0,34,0,56,-22c0,0,22,-22,22,-57c0,0,0,-28,-19,-136L152,598Z" 
id="f0_b"
transform="scale(0.001,-0.001)" />

<path d="M24,0V27H60c0,0,63,0,91,37c0,0,18,24,18,115V833c0,0,0,77,-10,102c0,0,-7,18,-30,32c0,0,-32,18,-69,18H24v27H776L787,790H761c0,0,-20,71,-45,104c0,0,-26,33,-64,48c0,0,-37,15,-117,15H312V558H497c0,0,63,0,93,28c0,0,29,28,39,111h27V355H629c0,0,-1,59,-16,87c0,0,-14,27,-40,41c0,0,-26,14,-76,14H312V179c0,0,0,-77,10,-102c0,0,7,-18,31,-32c0,0,33,-18,69,-18h37V0Z" 
id="f0_16"
transform="scale(0.001,-0.001)" />

<path d="M46,0c0,0,-2,48,16,93c0,0,27,74,88,146c0,0,61,71,176,165c0,0,178,146,241,232c0,0,63,85,63,161c0,0,0,80,-57,135c0,0,-58,55,-149,55c0,0,-98,0,-156,-59c0,0,-58,-58,-59,-160L71,782c0,0,15,154,107,235c0,0,93,81,249,81c0,0,157,0,249,-87c0,0,92,-88,92,-217c0,0,0,-65,-27,-129c0,0,-27,-63,-89,-133c0,0,-62,-70,-207,-193C445,339,324,238,290,202c0,0,-35,-36,-57,-73H770V0Z" 
id="f3_m"
transform="scale(0.001,-0.001)" />


</defs>
</svg>