<?xml version="1.0" encoding="UTF-8" standalone="no"?>
<!DOCTYPE svg PUBLIC "-//W3C//DTD SVG 1.1//EN"
"http://www.w3.org/Graphics/SVG/1.1/DTD/svg11.dtd">
<svg viewBox="0 0 909 1286" version="1.1" xmlns="http://www.w3.org/2000/svg" xmlns:xlink="http://www.w3.org/1999/xlink">
<defs>
<clipPath id="c0_52"><path d="M55.2,179.1V126H202.6v53.1Z" /></clipPath>
<clipPath id="c1_52"><path d="M55.2,257.9V204.8H207.6v53.1Z" /></clipPath>
<clipPath id="c2_52"><path d="M55.2,337.1V284H237v53.1Z" /></clipPath>
<clipPath id="c3_52"><path d="M55.2,416.3V363.2H196.6v53.1Z" /></clipPath>
<clipPath id="c4_52"><path d="M55.2,504.7V442.5H213.7v62.2Z" /></clipPath>
<clipPath id="c5_52"><path d="M55.2,593.1V530.8H283.3v62.3Z" /></clipPath>
<clipPath id="c6_52"><path d="M216.1,716.6V667.9h46.3v48.7Z" /></clipPath>
<clipPath id="c7_52"><path d="M55.2,767.6V718.8h66.7v48.8Z" /></clipPath>
<clipPath id="c8_52"><path d="M100.6,1019.1V922H351v97.1Z" /></clipPath>
<clipPath id="c9_52"><path d="M55.2,1151.1V1021.9h179v129.2Z" /></clipPath>
<style type="text/css"><![CDATA[
.g0_52{
fill: #D9D9D9;
}
.g1_52{
fill: none;
stroke: #000000;
stroke-width: 0.7638889;
stroke-linecap: butt;
stroke-linejoin: miter;
}
.g2_52{
fill: none;
stroke: #000000;
stroke-width: 0.9013848;
stroke-linecap: butt;
stroke-linejoin: round;
}
.g3_52{
fill: none;
stroke: #000000;
stroke-width: 0.9043501;
stroke-linecap: butt;
stroke-linejoin: round;
}
.g4_52{
fill: none;
stroke: #000000;
stroke-width: 0.9080574;
stroke-linecap: butt;
stroke-linejoin: round;
}
.g5_52{
fill: none;
stroke: #000000;
stroke-width: 0.90117514;
stroke-linecap: butt;
stroke-linejoin: round;
}
.g6_52{
fill: none;
stroke: #000000;
stroke-width: 0.9048006;
stroke-linecap: butt;
stroke-linejoin: round;
}
.g7_52{
fill: none;
stroke: #000000;
stroke-width: 0.90526366;
stroke-linecap: butt;
stroke-linejoin: round;
}
.g8_52{
fill: none;
stroke: #000000;
stroke-width: 0.8943053;
stroke-linecap: butt;
stroke-linejoin: round;
}
.g9_52{
fill: none;
stroke: #000000;
stroke-width: 0.88808334;
stroke-linecap: butt;
stroke-linejoin: round;
}
.g10_52{
fill: none;
stroke: #000000;
stroke-width: 0.4167585;
stroke-linecap: butt;
stroke-linejoin: round;
}
.g11_52{
fill: none;
stroke: #000000;
stroke-width: 0.90928715;
stroke-linecap: butt;
stroke-linejoin: round;
}
.g12_52{
fill: none;
stroke: #000000;
stroke-width: 0.909075;
stroke-linecap: butt;
stroke-linejoin: round;
}
.g13_52{
fill: none;
stroke: #000000;
stroke-width: 0.21240424;
stroke-linecap: square;
stroke-linejoin: round;
}
.g14_52{
}
.g15_52{
fill: none;
stroke: #000000;
stroke-width: 0.41666126;
stroke-linecap: butt;
stroke-linejoin: round;
}
]]></style>
</defs>
<image preserveAspectRatio="none" x="747" y="1196" width="96" height="59" xlink:href="img/1.png" />
<image preserveAspectRatio="none" x="336" y="41" width="259" height="51" xlink:href="img/2.png" />
<image preserveAspectRatio="none" x="342" y="50" width="247" height="27" xlink:href="img/3.png" />
<image preserveAspectRatio="none" x="341" y="45" width="239" height="42" xlink:href="img/4.png" />
<g fill="#FFFFFF" >
<use xlink:href="#f0_j" transform="matrix(11.5,0,0,11.5,355.1,70.1)" />
<use xlink:href="#f0_i" transform="matrix(11.5,0,0,11.5,364.3,70.1)" />
<use xlink:href="#f0_2n" transform="matrix(11.5,0,0,11.5,374.1,70.1)" />
<use xlink:href="#f0_t" transform="matrix(11.5,0,0,11.5,382.6,70.1)" />
<use xlink:href="#f0_oj" transform="matrix(11.5,0,0,11.5,391,70.1)" />
<use xlink:href="#f0_3e" transform="matrix(11.5,0,0,11.5,396.5,70.1)" />
<use xlink:href="#f0_1c" transform="matrix(11.5,0,0,11.5,406.1,70.1)" />
<use xlink:href="#f0_1c" transform="matrix(11.5,0,0,11.5,410.8,70.1)" />
<use xlink:href="#f0_oj" transform="matrix(11.5,0,0,11.5,415.6,70.1)" />
<use xlink:href="#f0_rz" transform="matrix(11.5,0,0,11.5,421.1,70.1)" />
<use xlink:href="#f0_rx" transform="matrix(11.5,0,0,11.5,429.9,70.1)" />
<use xlink:href="#f0_ry" transform="matrix(11.5,0,0,11.5,438.7,70.1)" />
<use xlink:href="#f0_s4" transform="matrix(11.5,0,0,11.5,447.5,70.1)" />
<use xlink:href="#f0_t" transform="matrix(11.5,0,0,11.5,460.4,70.1)" />
<use xlink:href="#f0_3e" transform="matrix(11.5,0,0,11.5,468.8,70.1)" />
<use xlink:href="#f0_5" transform="matrix(11.5,0,0,11.5,478.3,70.1)" />
<use xlink:href="#f0_1x" transform="matrix(11.5,0,0,11.5,489,70.1)" />
<use xlink:href="#f0_1c" transform="matrix(11.5,0,0,11.5,504.4,70.1)" />
<use xlink:href="#f0_1y" transform="matrix(11.5,0,0,11.5,509.1,70.1)" />
<use xlink:href="#f0_5" transform="matrix(11.5,0,0,11.5,520.8,70.1)" />
<use xlink:href="#f0_2t" transform="matrix(11.5,0,0,11.5,531.5,70.1)" />
<use xlink:href="#f0_1c" transform="matrix(11.5,0,0,11.5,540.2,70.1)" />
<use xlink:href="#f0_24" transform="matrix(11.5,0,0,11.5,545,70.1)" />
<use xlink:href="#f0_1y" transform="matrix(11.5,0,0,11.5,556.7,70.1)" />
</g>
<image preserveAspectRatio="none" x="554" y="45" width="36" height="42" xlink:href="img/5.png" />
<g fill="#FFFFFF" >
<use xlink:href="#f1_m" transform="matrix(11,0,0,11,770.3,1227.6)" />
<use xlink:href="#f1_r" transform="matrix(11,0,0,11,779.1,1227.6)" />
<use xlink:href="#f1_j" transform="matrix(11,0,0,11,792.3,1227.6)" />
<use xlink:href="#f1_m" transform="matrix(11,0,0,11,802.9,1227.6)" />
<use xlink:href="#f1_s" transform="matrix(11,0,0,11,811.7,1227.6)" />
</g>
<path fill-rule="evenodd" d="M52.8,1193.5H856.9v-.8H52.8v.8Z" class="g0_52" />
<path d="M37.9,99.4L873,98.5" class="g1_52" />
<path d="M58.2,151.8H72.8m18.4,0h11.2m19.8,0h16.4" class="g2_52" />
<g clip-path="url(#c0_52)">
<g fill="#000000" >
<use xlink:href="#f2_l" transform="matrix(7.3,0,0,7.1,65.9,175.9)" />
<use xlink:href="#f2_l" transform="matrix(7.3,0,0,7.1,131.7,175.9)" />
<use xlink:href="#f2_l" transform="matrix(12.6,0,0,12.3,61,144.5)" />
<use xlink:href="#f2_l" transform="matrix(12.6,0,0,12.3,92.2,144.5)" />
<use xlink:href="#f2_l" transform="matrix(12.6,0,0,12.3,125.8,144.5)" />
<use xlink:href="#f2_i" transform="matrix(12.6,0,0,12.3,158.5,156.4)" />
<use xlink:href="#f2_i" transform="matrix(12.6,0,0,12.3,163.1,156.4)" />
<use xlink:href="#f2_i" transform="matrix(12.6,0,0,12.3,167.7,156.4)" />
<use xlink:href="#f2_i" transform="matrix(12.6,0,0,12.3,172.3,156.4)" />
<use xlink:href="#f2_i" transform="matrix(12.6,0,0,12.3,176.9,156.4)" />
<use xlink:href="#f2_c" transform="matrix(12.6,0,0,12.3,181.4,156.4)" />
<use xlink:href="#f2_25" transform="matrix(12.6,0,0,12.3,187.4,156.4)" />
<use xlink:href="#f2_d" transform="matrix(12.6,0,0,12.3,192.9,156.4)" />
<use xlink:href="#f3_2i" transform="matrix(12.6,0,0,12.3,59.1,171.1)" />
<use xlink:href="#f3_2h" transform="matrix(12.6,0,0,12.3,91.8,171.1)" />
<use xlink:href="#f3_22" transform="matrix(12.6,0,0,12.3,126.8,171.1)" />
<use xlink:href="#f4_h" transform="matrix(12.6,0,0,12.3,77.2,156.4)" />
<use xlink:href="#f4_x" transform="matrix(12.6,0,0,12.3,107.4,156.4)" />
</g>
</g>
<g fill="#000000" >
<use xlink:href="#f2_16" transform="matrix(12,0,0,12,55,198.8)" />
<use xlink:href="#f2_2b" transform="matrix(12,0,0,12,64.9,198.8)" />
<use xlink:href="#f2_2e" transform="matrix(12,0,0,12,74.5,198.8)" />
<use xlink:href="#f2_2g" transform="matrix(12,0,0,12,85.1,198.8)" />
<use xlink:href="#f2_24" transform="matrix(12,0,0,12,90.5,198.8)" />
<use xlink:href="#f2_21" transform="matrix(12,0,0,12,99.3,198.8)" />
<use xlink:href="#f2_25" transform="matrix(12,0,0,12,112.2,198.8)" />
<use xlink:href="#f2_29" transform="matrix(12,0,0,12,116.9,198.8)" />
<use xlink:href="#f2_1x" transform="matrix(12,0,0,12,130.9,198.8)" />
<use xlink:href="#f2_23" transform="matrix(12,0,0,12,138.9,198.8)" />
<use xlink:href="#f2_21" transform="matrix(12,0,0,12,148.4,198.8)" />
<use xlink:href="#f2_22" transform="matrix(12,0,0,12,161.6,198.8)" />
<use xlink:href="#f2_2b" transform="matrix(12,0,0,12,167.1,198.8)" />
<use xlink:href="#f2_2e" transform="matrix(12,0,0,12,176.6,198.8)" />
<use xlink:href="#f2_29" transform="matrix(12,0,0,12,182.9,198.8)" />
<use xlink:href="#f2_21" transform="matrix(12,0,0,12,196.8,198.8)" />
<use xlink:href="#f2_20" transform="matrix(12,0,0,12,204.9,198.8)" />
<use xlink:href="#f2_1y" transform="matrix(12,0,0,12,218.8,198.8)" />
<use xlink:href="#f2_2l" transform="matrix(12,0,0,12,227.9,198.8)" />
<use xlink:href="#f2_2g" transform="matrix(12,0,0,12,241.5,198.8)" />
<use xlink:href="#f2_24" transform="matrix(12,0,0,12,247,198.8)" />
<use xlink:href="#f2_21" transform="matrix(12,0,0,12,255.8,198.8)" />
<use xlink:href="#f2_2f" transform="matrix(12,0,0,12,268.6,198.8)" />
<use xlink:href="#f2_21" transform="matrix(12,0,0,12,275.6,198.8)" />
<use xlink:href="#f2_1z" transform="matrix(12,0,0,12,283.6,198.8)" />
<use xlink:href="#f2_2b" transform="matrix(12,0,0,12,291.7,198.8)" />
<use xlink:href="#f2_2a" transform="matrix(12,0,0,12,301.2,198.8)" />
<use xlink:href="#f2_20" transform="matrix(12,0,0,12,310,198.8)" />
<use xlink:href="#f2_28" transform="matrix(12,0,0,12,324.3,198.8)" />
<use xlink:href="#f2_21" transform="matrix(12,0,0,12,328.7,198.8)" />
<use xlink:href="#f2_2a" transform="matrix(12,0,0,12,337.1,198.8)" />
<use xlink:href="#f2_2f" transform="matrix(12,0,0,12,346.3,198.8)" />
<use xlink:href="#f2_12" transform="matrix(12,0,0,12,358,198.8)" />
<use xlink:href="#f2_g" transform="matrix(12,0,0,12,370.1,198.8)" />
<use xlink:href="#f2_2j" transform="matrix(12,0,0,12,379.6,198.8)" />
<use xlink:href="#f2_21" transform="matrix(12,0,0,12,392.8,198.8)" />
<use xlink:href="#f2_2b" transform="matrix(12,0,0,12,405.6,198.8)" />
<use xlink:href="#f2_1y" transform="matrix(12,0,0,12,415.1,198.8)" />
<use xlink:href="#f2_2g" transform="matrix(12,0,0,12,423.5,198.8)" />
<use xlink:href="#f2_1x" transform="matrix(12,0,0,12,428.6,198.8)" />
<use xlink:href="#f2_25" transform="matrix(12,0,0,12,437.1,198.8)" />
<use xlink:href="#f2_2a" transform="matrix(12,0,0,12,441.9,198.8)" />
</g>
<path d="M58.2,230.6H68.3m18.4,0h14.7m20,0h16.3" class="g3_52" />
<g clip-path="url(#c1_52)">
<g fill="#000000" >
<use xlink:href="#f2_l" transform="matrix(7.3,0,0,7.1,94.4,254.6)" />
<use xlink:href="#f2_l" transform="matrix(7.3,0,0,7.1,130.8,254.6)" />
<use xlink:href="#f2_l" transform="matrix(12.6,0,0,12.3,58.7,223.3)" />
<use xlink:href="#f2_l" transform="matrix(12.6,0,0,12.3,89.5,223.3)" />
<use xlink:href="#f2_l" transform="matrix(12.6,0,0,12.3,124.9,223.3)" />
<use xlink:href="#f2_i" transform="matrix(12.6,0,0,12.3,157.8,235.2)" />
<use xlink:href="#f2_i" transform="matrix(12.6,0,0,12.3,162.4,235.2)" />
<use xlink:href="#f2_i" transform="matrix(12.6,0,0,12.3,167,235.2)" />
<use xlink:href="#f2_i" transform="matrix(12.6,0,0,12.3,171.6,235.2)" />
<use xlink:href="#f2_i" transform="matrix(12.6,0,0,12.3,176.2,235.2)" />
<use xlink:href="#f2_c" transform="matrix(12.6,0,0,12.3,180.8,235.2)" />
<use xlink:href="#f2_25" transform="matrix(12.6,0,0,12.3,186.8,235.2)" />
<use xlink:href="#f2_25" transform="matrix(12.6,0,0,12.3,192,235.2)" />
<use xlink:href="#f2_d" transform="matrix(12.6,0,0,12.3,197.4,235.2)" />
<use xlink:href="#f3_2i" transform="matrix(12.6,0,0,12.3,59.1,249.9)" />
<use xlink:href="#f3_2i" transform="matrix(12.6,0,0,12.3,87.6,249.9)" />
<use xlink:href="#f3_22" transform="matrix(12.6,0,0,12.3,125.9,249.9)" />
<use xlink:href="#f4_h" transform="matrix(12.6,0,0,12.3,72.6,235.2)" />
<use xlink:href="#f4_x" transform="matrix(12.6,0,0,12.3,106.5,235.2)" />
</g>
</g>
<g fill="#000000" >
<use xlink:href="#f2_1x" transform="matrix(12,0,0,12,55,278)" />
<use xlink:href="#f2_20" transform="matrix(12,0,0,12,63.1,278)" />
<use xlink:href="#f2_20" transform="matrix(12,0,0,12,72.3,278)" />
<use xlink:href="#f2_25" transform="matrix(12,0,0,12,81.8,278)" />
<use xlink:href="#f2_2a" transform="matrix(12,0,0,12,86.6,278)" />
<use xlink:href="#f2_23" transform="matrix(12,0,0,12,95.4,278)" />
<use xlink:href="#f2_21" transform="matrix(12,0,0,12,109.3,278)" />
<use xlink:href="#f2_2d" transform="matrix(12,0,0,12,117.3,278)" />
<use xlink:href="#f2_i" transform="matrix(12,0,0,12,126.5,278)" />
<use xlink:href="#f2_c" transform="matrix(12,0,0,12,136,278)" />
<use xlink:href="#f2_25" transform="matrix(12,0,0,12,142.2,278)" />
<use xlink:href="#f2_d" transform="matrix(12,0,0,12,146.6,278)" />
<use xlink:href="#f2_1x" transform="matrix(12,0,0,12,157.6,278)" />
<use xlink:href="#f2_2a" transform="matrix(12,0,0,12,166,278)" />
<use xlink:href="#f2_20" transform="matrix(12,0,0,12,174.8,278)" />
<use xlink:href="#f2_c" transform="matrix(12,0,0,12,188.7,278)" />
<use xlink:href="#f2_25" transform="matrix(12,0,0,12,195.3,278)" />
<use xlink:href="#f2_25" transform="matrix(12,0,0,12,200.1,278)" />
<use xlink:href="#f2_d" transform="matrix(12,0,0,12,204.5,278)" />
<use xlink:href="#f2_2j" transform="matrix(12,0,0,12,215.4,278)" />
<use xlink:href="#f2_21" transform="matrix(12,0,0,12,228.7,278)" />
<use xlink:href="#f2_2b" transform="matrix(12,0,0,12,241.4,278)" />
<use xlink:href="#f2_1y" transform="matrix(12,0,0,12,250.9,278)" />
<use xlink:href="#f2_2g" transform="matrix(12,0,0,12,259.7,278)" />
<use xlink:href="#f2_1x" transform="matrix(12,0,0,12,265.2,278)" />
<use xlink:href="#f2_25" transform="matrix(12,0,0,12,273.3,278)" />
<use xlink:href="#f2_2a" transform="matrix(12,0,0,12,278.1,278)" />
</g>
<path d="M58.2,309.8h10m18.3,0H97.6m19.8,0h18.2m18.6,0h18.2" class="g4_52" />
<g clip-path="url(#c2_52)">
<g fill="#000000" >
<use xlink:href="#f2_m" transform="matrix(7.3,0,0,7.1,127.9,333.8)" />
<use xlink:href="#f2_m" transform="matrix(7.3,0,0,7.1,164.7,333.8)" />
<use xlink:href="#f2_l" transform="matrix(12.7,0,0,12.3,58.7,302.5)" />
<use xlink:href="#f2_l" transform="matrix(12.7,0,0,12.3,87.5,302.5)" />
<use xlink:href="#f2_l" transform="matrix(12.7,0,0,12.3,121.9,302.5)" />
<use xlink:href="#f2_l" transform="matrix(12.7,0,0,12.3,158.6,302.5)" />
<use xlink:href="#f2_i" transform="matrix(12.7,0,0,12.3,186.9,314.4)" />
<use xlink:href="#f2_i" transform="matrix(12.7,0,0,12.3,191.5,314.4)" />
<use xlink:href="#f2_i" transform="matrix(12.7,0,0,12.3,196.1,314.4)" />
<use xlink:href="#f2_i" transform="matrix(12.7,0,0,12.3,200.7,314.4)" />
<use xlink:href="#f2_c" transform="matrix(12.7,0,0,12.3,205.3,314.4)" />
<use xlink:href="#f2_25" transform="matrix(12.7,0,0,12.3,211.2,314.4)" />
<use xlink:href="#f2_25" transform="matrix(12.7,0,0,12.3,216.4,314.4)" />
<use xlink:href="#f2_25" transform="matrix(12.7,0,0,12.3,221.5,314.4)" />
<use xlink:href="#f2_d" transform="matrix(12.7,0,0,12.3,226.9,314.4)" />
<use xlink:href="#f3_2i" transform="matrix(12.7,0,0,12.3,59.1,329.1)" />
<use xlink:href="#f3_2h" transform="matrix(12.7,0,0,12.3,87,329.1)" />
<use xlink:href="#f3_22" transform="matrix(12.7,0,0,12.3,121.9,329.1)" />
<use xlink:href="#f3_22" transform="matrix(12.7,0,0,12.3,158.7,329.1)" />
<use xlink:href="#f4_h" transform="matrix(12.7,0,0,12.3,72.5,314.4)" />
<use xlink:href="#f4_x" transform="matrix(12.7,0,0,12.3,102.7,314.4)" />
<use xlink:href="#f4_f" transform="matrix(12.7,0,0,12.3,139.9,314.4)" />
</g>
</g>
<g fill="#000000" >
<use xlink:href="#f2_19" transform="matrix(12,0,0,12,55,357.2)" />
<use xlink:href="#f2_22" transform="matrix(12,0,0,12,61.3,357.2)" />
<use xlink:href="#f2_2g" transform="matrix(12,0,0,12,71.5,357.2)" />
<use xlink:href="#f2_24" transform="matrix(12,0,0,12,77,357.2)" />
<use xlink:href="#f2_21" transform="matrix(12,0,0,12,85.8,357.2)" />
<use xlink:href="#f2_2g" transform="matrix(12,0,0,12,98.6,357.2)" />
<use xlink:href="#f2_2j" transform="matrix(12,0,0,12,104.1,357.2)" />
<use xlink:href="#f2_2b" transform="matrix(12,0,0,12,116.9,357.2)" />
<use xlink:href="#f2_28" transform="matrix(12,0,0,12,131.2,357.2)" />
<use xlink:href="#f2_21" transform="matrix(12,0,0,12,135.6,357.2)" />
<use xlink:href="#f2_2a" transform="matrix(12,0,0,12,144,357.2)" />
<use xlink:href="#f2_2f" transform="matrix(12,0,0,12,152.8,357.2)" />
<use xlink:href="#f2_2f" transform="matrix(12,0,0,12,164.5,357.2)" />
<use xlink:href="#f2_2l" transform="matrix(12,0,0,12,171.8,357.2)" />
<use xlink:href="#f2_2f" transform="matrix(12,0,0,12,180.6,357.2)" />
<use xlink:href="#f2_2g" transform="matrix(12,0,0,12,187.6,357.2)" />
<use xlink:href="#f2_21" transform="matrix(12,0,0,12,193.1,357.2)" />
<use xlink:href="#f2_29" transform="matrix(12,0,0,12,201.5,357.2)" />
<use xlink:href="#f2_25" transform="matrix(12,0,0,12,220.2,357.2)" />
<use xlink:href="#f2_2f" transform="matrix(12,0,0,12,224.9,357.2)" />
<use xlink:href="#f2_2e" transform="matrix(12,0,0,12,236.6,357.2)" />
<use xlink:href="#f2_21" transform="matrix(12,0,0,12,242.9,357.2)" />
<use xlink:href="#f2_23" transform="matrix(12,0,0,12,250.9,357.2)" />
<use xlink:href="#f2_1x" transform="matrix(12,0,0,12,260.1,357.2)" />
<use xlink:href="#f2_2e" transform="matrix(12,0,0,12,268.2,357.2)" />
<use xlink:href="#f2_20" transform="matrix(12,0,0,12,274.4,357.2)" />
<use xlink:href="#f2_21" transform="matrix(12,0,0,12,283.5,357.2)" />
<use xlink:href="#f2_20" transform="matrix(12,0,0,12,291.6,357.2)" />
<use xlink:href="#f2_1x" transform="matrix(12,0,0,12,305.5,357.2)" />
<use xlink:href="#f2_2f" transform="matrix(12,0,0,12,313.6,357.2)" />
<use xlink:href="#f2_21" transform="matrix(12,0,0,12,325.3,357.2)" />
<use xlink:href="#f2_2d" transform="matrix(12,0,0,12,333.4,357.2)" />
<use xlink:href="#f2_2h" transform="matrix(12,0,0,12,342.5,357.2)" />
<use xlink:href="#f2_25" transform="matrix(12,0,0,12,352.1,357.2)" />
<use xlink:href="#f2_2i" transform="matrix(12,0,0,12,356.8,357.2)" />
<use xlink:href="#f2_1x" transform="matrix(12,0,0,12,366,357.2)" />
<use xlink:href="#f2_28" transform="matrix(12,0,0,12,374.4,357.2)" />
<use xlink:href="#f2_21" transform="matrix(12,0,0,12,379.2,357.2)" />
<use xlink:href="#f2_2a" transform="matrix(12,0,0,12,387.6,357.2)" />
<use xlink:href="#f2_2g" transform="matrix(12,0,0,12,396.4,357.2)" />
<use xlink:href="#f2_2g" transform="matrix(12,0,0,12,406.3,357.2)" />
<use xlink:href="#f2_2b" transform="matrix(12,0,0,12,411.4,357.2)" />
<use xlink:href="#f2_1x" transform="matrix(12,0,0,12,425.3,357.2)" />
<use xlink:href="#f2_2f" transform="matrix(12,0,0,12,438.1,357.2)" />
<use xlink:href="#f2_25" transform="matrix(12,0,0,12,445.4,357.2)" />
<use xlink:href="#f2_2a" transform="matrix(12,0,0,12,450.8,357.2)" />
<use xlink:href="#f2_23" transform="matrix(12,0,0,12,459.6,357.2)" />
<use xlink:href="#f2_28" transform="matrix(12,0,0,12,469.1,357.2)" />
<use xlink:href="#f2_21" transform="matrix(12,0,0,12,473.9,357.2)" />
<use xlink:href="#f2_28" transform="matrix(12,0,0,12,487.1,357.2)" />
<use xlink:href="#f2_21" transform="matrix(12,0,0,12,491.8,357.2)" />
<use xlink:href="#f2_2a" transform="matrix(12,0,0,12,500.3,357.2)" />
<use xlink:href="#f2_2f" transform="matrix(12,0,0,12,509.1,357.2)" />
<use xlink:href="#f2_21" transform="matrix(12,0,0,12,516,357.2)" />
<use xlink:href="#f2_2b" transform="matrix(12,0,0,12,528.8,357.2)" />
<use xlink:href="#f2_22" transform="matrix(12,0,0,12,538.4,357.2)" />
<use xlink:href="#f2_22" transform="matrix(12,0,0,12,549,357.2)" />
<use xlink:href="#f2_2b" transform="matrix(12,0,0,12,554.5,357.2)" />
<use xlink:href="#f2_1z" transform="matrix(12,0,0,12,564,357.2)" />
<use xlink:href="#f2_1x" transform="matrix(12,0,0,12,572.1,357.2)" />
<use xlink:href="#f2_28" transform="matrix(12,0,0,12,580.5,357.2)" />
<use xlink:href="#f2_28" transform="matrix(12,0,0,12,590,357.2)" />
<use xlink:href="#f2_21" transform="matrix(12,0,0,12,594.8,357.2)" />
<use xlink:href="#f2_2a" transform="matrix(12,0,0,12,603.2,357.2)" />
<use xlink:href="#f2_23" transform="matrix(12,0,0,12,612,357.2)" />
<use xlink:href="#f2_2g" transform="matrix(12,0,0,12,621.1,357.2)" />
<use xlink:href="#f2_24" transform="matrix(12,0,0,12,626.6,357.2)" />
<use xlink:href="#f2_22" transform="matrix(12,0,0,12,640.5,357.2)" />
<use xlink:href="#f2_g" transform="matrix(12,0,0,12,646,357.2)" />
<use xlink:href="#f2_2j" transform="matrix(12,0,0,12,655.5,357.2)" />
<use xlink:href="#f2_21" transform="matrix(12,0,0,12,668.8,357.2)" />
<use xlink:href="#f2_24" transform="matrix(12,0,0,12,681.5,357.2)" />
<use xlink:href="#f2_1x" transform="matrix(12,0,0,12,690.3,357.2)" />
<use xlink:href="#f2_2i" transform="matrix(12,0,0,12,698.8,357.2)" />
<use xlink:href="#f2_21" transform="matrix(12,0,0,12,707.9,357.2)" />
<use xlink:href="#f2_g" transform="matrix(12,0,0,12,716,357.2)" />
</g>
<path d="M58.2,389H68.3m18.2,0H97.7m19.9,0h14.5" class="g5_52" />
<g clip-path="url(#c3_52)">
<g fill="#000000" >
<use xlink:href="#f2_l" transform="matrix(12.6,0,0,12.3,58.7,381.8)" />
<use xlink:href="#f2_l" transform="matrix(12.6,0,0,12.3,87.5,381.8)" />
<use xlink:href="#f2_l" transform="matrix(12.6,0,0,12.3,120.2,381.8)" />
<use xlink:href="#f2_i" transform="matrix(12.6,0,0,12.3,146.7,393.6)" />
<use xlink:href="#f2_i" transform="matrix(12.6,0,0,12.3,151.3,393.6)" />
<use xlink:href="#f2_i" transform="matrix(12.6,0,0,12.3,155.9,393.6)" />
<use xlink:href="#f2_i" transform="matrix(12.6,0,0,12.3,160.5,393.6)" />
<use xlink:href="#f2_c" transform="matrix(12.6,0,0,12.3,165.1,393.6)" />
<use xlink:href="#f2_25" transform="matrix(12.6,0,0,12.3,171.1,393.6)" />
<use xlink:href="#f2_2i" transform="matrix(12.6,0,0,12.3,176.2,393.6)" />
<use xlink:href="#f2_d" transform="matrix(12.6,0,0,12.3,185.6,393.6)" />
<use xlink:href="#f3_2i" transform="matrix(12.6,0,0,12.3,59.1,408.3)" />
<use xlink:href="#f3_2h" transform="matrix(12.6,0,0,12.3,87.1,408.3)" />
<use xlink:href="#f3_22" transform="matrix(12.6,0,0,12.3,122.1,408.3)" />
<use xlink:href="#f4_h" transform="matrix(12.6,0,0,12.3,72.5,393.6)" />
<use xlink:href="#f4_x" transform="matrix(12.6,0,0,12.3,102.8,393.6)" />
</g>
</g>
<g fill="#000000" >
<use xlink:href="#f2_22" transform="matrix(12,0,0,12,55,436.4)" />
<use xlink:href="#f2_2e" transform="matrix(12,0,0,12,60.5,436.4)" />
<use xlink:href="#f2_2b" transform="matrix(12,0,0,12,66.8,436.4)" />
<use xlink:href="#f2_29" transform="matrix(12,0,0,12,76.6,436.4)" />
<use xlink:href="#f2_21" transform="matrix(12,0,0,12,94.9,436.4)" />
<use xlink:href="#f2_2d" transform="matrix(12,0,0,12,103,436.4)" />
<use xlink:href="#f2_i" transform="matrix(12,0,0,12,112.2,436.4)" />
<use xlink:href="#f2_c" transform="matrix(12,0,0,12,121.7,436.4)" />
<use xlink:href="#f2_25" transform="matrix(12,0,0,12,127.9,436.4)" />
<use xlink:href="#f2_25" transform="matrix(12,0,0,12,132.7,436.4)" />
<use xlink:href="#f2_25" transform="matrix(12,0,0,12,137.8,436.4)" />
<use xlink:href="#f2_d" transform="matrix(12,0,0,12,142.6,436.4)" />
<use xlink:href="#f2_1x" transform="matrix(12,0,0,12,153.5,436.4)" />
<use xlink:href="#f2_2a" transform="matrix(12,0,0,12,161.9,436.4)" />
<use xlink:href="#f2_20" transform="matrix(12,0,0,12,170.7,436.4)" />
<use xlink:href="#f2_c" transform="matrix(12,0,0,12,184.7,436.4)" />
<use xlink:href="#f2_25" transform="matrix(12,0,0,12,191.2,436.4)" />
<use xlink:href="#f2_2i" transform="matrix(12,0,0,12,196,436.4)" />
<use xlink:href="#f2_d" transform="matrix(12,0,0,12,204.8,436.4)" />
<use xlink:href="#f2_g" transform="matrix(12,0,0,12,211,436.4)" />
<use xlink:href="#f2_2j" transform="matrix(12,0,0,12,220.5,436.4)" />
<use xlink:href="#f2_21" transform="matrix(12,0,0,12,233.8,436.4)" />
<use xlink:href="#f2_2b" transform="matrix(12,0,0,12,246.2,436.4)" />
<use xlink:href="#f2_1y" transform="matrix(12,0,0,12,255.7,436.4)" />
<use xlink:href="#f2_2g" transform="matrix(12,0,0,12,264.5,436.4)" />
<use xlink:href="#f2_1x" transform="matrix(12,0,0,12,270,436.4)" />
<use xlink:href="#f2_25" transform="matrix(12,0,0,12,278,436.4)" />
<use xlink:href="#f2_2a" transform="matrix(12,0,0,12,282.8,436.4)" />
</g>
<path d="M62.3,472.8H77m20,0h16.4m18.7,0h18.4M58.7,447.3v53.6M164.8,447.3v53.6M58.3,447.8h107m-107,52.6h107" class="g6_52" />
<g clip-path="url(#c4_52)">
<g fill="#000000" >
<use xlink:href="#f2_l" transform="matrix(7.3,0,0,7.1,106.4,496.9)" />
<use xlink:href="#f2_m" transform="matrix(7.3,0,0,7.1,142.7,496.9)" />
<use xlink:href="#f2_l" transform="matrix(12.5,0,0,12.3,65,465.6)" />
<use xlink:href="#f2_l" transform="matrix(12.5,0,0,12.3,100.5,465.6)" />
<use xlink:href="#f2_l" transform="matrix(12.5,0,0,12.3,136.7,465.6)" />
<use xlink:href="#f2_i" transform="matrix(12.5,0,0,12.3,169.2,477.4)" />
<use xlink:href="#f2_i" transform="matrix(12.5,0,0,12.3,173.8,477.4)" />
<use xlink:href="#f2_i" transform="matrix(12.5,0,0,12.3,178.4,477.4)" />
<use xlink:href="#f2_i" transform="matrix(12.5,0,0,12.3,183,477.4)" />
<use xlink:href="#f2_c" transform="matrix(12.5,0,0,12.3,187.6,477.4)" />
<use xlink:href="#f2_2i" transform="matrix(12.5,0,0,12.3,194.5,477.4)" />
<use xlink:href="#f2_d" transform="matrix(12.5,0,0,12.3,204,477.4)" />
<use xlink:href="#f3_22" transform="matrix(12.5,0,0,12.3,66.9,492.1)" />
<use xlink:href="#f3_22" transform="matrix(12.5,0,0,12.3,101.6,492.1)" />
<use xlink:href="#f3_22" transform="matrix(12.5,0,0,12.3,136.7,492.1)" />
<use xlink:href="#f4_x" transform="matrix(12.5,0,0,12.3,82.1,477.4)" />
<use xlink:href="#f4_f" transform="matrix(12.5,0,0,12.3,117.7,477.4)" />
</g>
</g>
<g fill="#000000" >
<use xlink:href="#f2_16" transform="matrix(12,0,0,12,55,524.9)" />
<use xlink:href="#f2_2b" transform="matrix(12,0,0,12,64.9,524.9)" />
<use xlink:href="#f2_2e" transform="matrix(12,0,0,12,74.5,524.9)" />
<use xlink:href="#f2_2b" transform="matrix(12,0,0,12,85.1,524.9)" />
<use xlink:href="#f2_2i" transform="matrix(12,0,0,12,94.6,524.9)" />
<use xlink:href="#f2_21" transform="matrix(12,0,0,12,103.4,524.9)" />
<use xlink:href="#f2_2e" transform="matrix(12,0,0,12,111.4,524.9)" />
<use xlink:href="#f2_1x" transform="matrix(12,0,0,12,117.7,524.9)" />
<use xlink:href="#f2_28" transform="matrix(12,0,0,12,126.1,524.9)" />
<use xlink:href="#f2_28" transform="matrix(12,0,0,12,130.8,524.9)" />
<use xlink:href="#f2_2g" transform="matrix(12,0,0,12,140,524.9)" />
<use xlink:href="#f2_24" transform="matrix(12,0,0,12,145.5,524.9)" />
<use xlink:href="#f2_25" transform="matrix(12,0,0,12,154.6,524.9)" />
<use xlink:href="#f2_2f" transform="matrix(12,0,0,12,159.4,524.9)" />
<use xlink:href="#f2_28" transform="matrix(12,0,0,12,171.5,524.9)" />
<use xlink:href="#f2_21" transform="matrix(12,0,0,12,176.3,524.9)" />
<use xlink:href="#f2_2a" transform="matrix(12,0,0,12,184.7,524.9)" />
<use xlink:href="#f2_2f" transform="matrix(12,0,0,12,193.5,524.9)" />
<use xlink:href="#f2_21" transform="matrix(12,0,0,12,200.8,524.9)" />
<use xlink:href="#f2_2f" transform="matrix(12,0,0,12,208.9,524.9)" />
<use xlink:href="#f2_2b" transform="matrix(12,0,0,12,220.6,524.9)" />
<use xlink:href="#f2_22" transform="matrix(12,0,0,12,230.1,524.9)" />
<use xlink:href="#f2_22" transform="matrix(12,0,0,12,240.7,524.9)" />
<use xlink:href="#f2_2b" transform="matrix(12,0,0,12,246.2,524.9)" />
<use xlink:href="#f2_1z" transform="matrix(12,0,0,12,255.7,524.9)" />
<use xlink:href="#f2_1x" transform="matrix(12,0,0,12,263.8,524.9)" />
<use xlink:href="#f2_28" transform="matrix(12,0,0,12,272.2,524.9)" />
<use xlink:href="#f2_28" transform="matrix(12,0,0,12,281.7,524.9)" />
<use xlink:href="#f2_21" transform="matrix(12,0,0,12,286.5,524.9)" />
<use xlink:href="#f2_2a" transform="matrix(12,0,0,12,294.9,524.9)" />
<use xlink:href="#f2_23" transform="matrix(12,0,0,12,303.7,524.9)" />
<use xlink:href="#f2_2g" transform="matrix(12,0,0,12,312.9,524.9)" />
<use xlink:href="#f2_24" transform="matrix(12,0,0,12,318.3,524.9)" />
<use xlink:href="#f2_2f" transform="matrix(12,0,0,12,327.5,524.9)" />
<use xlink:href="#f2_22" transform="matrix(12,0,0,12,339.6,524.9)" />
<use xlink:href="#f2_l" transform="matrix(7.9,0,0,7.9,345.6,526.3)" />
<use xlink:href="#f2_g" transform="matrix(12,0,0,12,351.8,524.9)" />
<use xlink:href="#f2_22" transform="matrix(12,0,0,12,361.3,524.9)" />
<use xlink:href="#f2_m" transform="matrix(7.9,0,0,7.9,366.8,526.3)" />
<use xlink:href="#f2_g" transform="matrix(12,0,0,12,373.1,524.9)" />
<use xlink:href="#f2_22" transform="matrix(12,0,0,12,382.6,524.9)" />
<use xlink:href="#f2_n" transform="matrix(7.9,0,0,7.9,388.1,526.3)" />
<use xlink:href="#f2_i" transform="matrix(12,0,0,12,399.1,524.9)" />
<use xlink:href="#f2_i" transform="matrix(12,0,0,12,403.8,524.9)" />
<use xlink:href="#f2_i" transform="matrix(12,0,0,12,408.6,524.9)" />
<use xlink:href="#f2_i" transform="matrix(12,0,0,12,413.3,524.9)" />
<use xlink:href="#f2_i" transform="matrix(12,0,0,12,417.7,524.9)" />
<use xlink:href="#f2_i" transform="matrix(12,0,0,12,422.5,524.9)" />
<use xlink:href="#f2_2g" transform="matrix(12,0,0,12,431.3,524.9)" />
<use xlink:href="#f2_24" transform="matrix(12,0,0,12,436.8,524.9)" />
<use xlink:href="#f2_21" transform="matrix(12,0,0,12,445.6,524.9)" />
<use xlink:href="#f2_21" transform="matrix(12,0,0,12,458.4,524.9)" />
<use xlink:href="#f2_22" transform="matrix(12,0,0,12,466.8,524.9)" />
<use xlink:href="#f2_22" transform="matrix(12,0,0,12,472.7,524.9)" />
<use xlink:href="#f2_21" transform="matrix(12,0,0,12,478.5,524.9)" />
<use xlink:href="#f2_1z" transform="matrix(12,0,0,12,486.6,524.9)" />
<use xlink:href="#f2_2g" transform="matrix(12,0,0,12,494.7,524.9)" />
<use xlink:href="#f2_25" transform="matrix(12,0,0,12,500.5,524.9)" />
<use xlink:href="#f2_2i" transform="matrix(12,0,0,12,505.3,524.9)" />
<use xlink:href="#f2_21" transform="matrix(12,0,0,12,514.1,524.9)" />
<use xlink:href="#f2_22" transform="matrix(12,0,0,12,527.3,524.9)" />
<use xlink:href="#f2_2b" transform="matrix(12,0,0,12,532.8,524.9)" />
<use xlink:href="#f2_1z" transform="matrix(12,0,0,12,542.3,524.9)" />
<use xlink:href="#f2_1x" transform="matrix(12,0,0,12,550.3,524.9)" />
<use xlink:href="#f2_28" transform="matrix(12,0,0,12,558.8,524.9)" />
<use xlink:href="#f2_28" transform="matrix(12,0,0,12,568.3,524.9)" />
<use xlink:href="#f2_21" transform="matrix(12,0,0,12,573,524.9)" />
<use xlink:href="#f2_2a" transform="matrix(12,0,0,12,581.4,524.9)" />
<use xlink:href="#f2_23" transform="matrix(12,0,0,12,590.2,524.9)" />
<use xlink:href="#f2_2g" transform="matrix(12,0,0,12,599.4,524.9)" />
<use xlink:href="#f2_24" transform="matrix(12,0,0,12,604.9,524.9)" />
<use xlink:href="#f2_25" transform="matrix(12,0,0,12,618.8,524.9)" />
<use xlink:href="#f2_2f" transform="matrix(12,0,0,12,623.6,524.9)" />
</g>
<path d="M62.3,561.2H76.9m19.9,0h16.4m18.6,0h18.3m18.7,0h17.6M58.7,535.7v53.8M229.9,535.7v53.8M58.2,536.2H230.4M58.2,589H230.4" class="g7_52" />
<g clip-path="url(#c5_52)">
<g fill="#000000" >
<use xlink:href="#f2_l" transform="matrix(7.3,0,0,7.1,106.2,585.2)" />
<use xlink:href="#f2_m" transform="matrix(7.3,0,0,7.1,142.4,585.2)" />
<use xlink:href="#f2_n" transform="matrix(7.3,0,0,7.1,179,585.2)" />
<use xlink:href="#f2_l" transform="matrix(12.5,0,0,12.3,65,553.9)" />
<use xlink:href="#f2_l" transform="matrix(12.5,0,0,12.3,100.3,553.9)" />
<use xlink:href="#f2_l" transform="matrix(12.5,0,0,12.3,136.3,553.9)" />
<use xlink:href="#f2_l" transform="matrix(12.5,0,0,12.3,172.9,553.9)" />
<use xlink:href="#f2_i" transform="matrix(12.5,0,0,12.3,203.6,565.8)" />
<use xlink:href="#f2_i" transform="matrix(12.5,0,0,12.3,208.2,565.8)" />
<use xlink:href="#f2_i" transform="matrix(12.5,0,0,12.3,212.8,565.8)" />
<use xlink:href="#f2_i" transform="matrix(12.5,0,0,12.3,234.4,565.8)" />
<use xlink:href="#f2_i" transform="matrix(12.5,0,0,12.3,239,565.8)" />
<use xlink:href="#f2_i" transform="matrix(12.5,0,0,12.3,243.6,565.8)" />
<use xlink:href="#f2_i" transform="matrix(12.5,0,0,12.3,248.2,565.8)" />
<use xlink:href="#f2_c" transform="matrix(12.5,0,0,12.3,252.8,565.8)" />
<use xlink:href="#f2_2i" transform="matrix(12.5,0,0,12.3,259.6,565.8)" />
<use xlink:href="#f2_25" transform="matrix(12.5,0,0,12.3,268.5,565.8)" />
<use xlink:href="#f2_d" transform="matrix(12.5,0,0,12.3,274,565.8)" />
<use xlink:href="#f3_22" transform="matrix(12.5,0,0,12.3,66.8,580.5)" />
<use xlink:href="#f3_22" transform="matrix(12.5,0,0,12.3,101.3,580.5)" />
<use xlink:href="#f3_22" transform="matrix(12.5,0,0,12.3,136.3,580.5)" />
<use xlink:href="#f3_22" transform="matrix(12.5,0,0,12.3,173.3,580.5)" />
<use xlink:href="#f4_x" transform="matrix(12.5,0,0,12.3,82,565.8)" />
<use xlink:href="#f4_f" transform="matrix(12.5,0,0,12.3,117.4,565.8)" />
<use xlink:href="#f4_f" transform="matrix(12.5,0,0,12.3,154.4,565.8)" />
<use xlink:href="#f4_f" transform="matrix(12.5,0,0,12.3,190.6,565.8)" />
</g>
</g>
<g fill="#000000" >
<use xlink:href="#f2_19" transform="matrix(12,0,0,12,55,613.6)" />
<use xlink:href="#f2_2a" transform="matrix(12,0,0,12,61.3,613.6)" />
<use xlink:href="#f2_2g" transform="matrix(12,0,0,12,74.8,613.6)" />
<use xlink:href="#f2_21" transform="matrix(12,0,0,12,80.3,613.6)" />
<use xlink:href="#f2_2e" transform="matrix(12,0,0,12,88.3,613.6)" />
<use xlink:href="#f2_29" transform="matrix(12,0,0,12,94.6,613.6)" />
<use xlink:href="#f2_2f" transform="matrix(12,0,0,12,108.1,613.6)" />
<use xlink:href="#f2_2b" transform="matrix(12,0,0,12,119.9,613.6)" />
<use xlink:href="#f2_22" transform="matrix(12,0,0,12,129.5,613.6)" />
<use xlink:href="#f2_2c" transform="matrix(12,0,0,12,139.7,613.6)" />
<use xlink:href="#f2_2b" transform="matrix(12,0,0,12,148.9,613.6)" />
<use xlink:href="#f2_2j" transform="matrix(12,0,0,12,158.4,613.6)" />
<use xlink:href="#f2_21" transform="matrix(12,0,0,12,171.6,613.6)" />
<use xlink:href="#f2_2e" transform="matrix(12,0,0,12,179.6,613.6)" />
<use xlink:href="#f2_g" transform="matrix(12,0,0,12,185.9,613.6)" />
<use xlink:href="#f2_21" transform="matrix(12,0,0,12,195.4,613.6)" />
<use xlink:href="#f2_2d" transform="matrix(12,0,0,12,203.4,613.6)" />
<use xlink:href="#f2_i" transform="matrix(12,0,0,12,212.2,613.6)" />
<use xlink:href="#f2_c" transform="matrix(12,0,0,12,221.7,613.6)" />
<use xlink:href="#f2_2i" transform="matrix(12,0,0,12,227.9,613.6)" />
<use xlink:href="#f2_25" transform="matrix(12,0,0,12,236.7,613.6)" />
<use xlink:href="#f2_d" transform="matrix(12,0,0,12,241.1,613.6)" />
<use xlink:href="#f2_1z" transform="matrix(12,0,0,12,252.1,613.6)" />
<use xlink:href="#f2_1x" transform="matrix(12,0,0,12,260.2,613.6)" />
<use xlink:href="#f2_2a" transform="matrix(12,0,0,12,268.6,613.6)" />
<use xlink:href="#f2_1y" transform="matrix(12,0,0,12,282.5,613.6)" />
<use xlink:href="#f2_21" transform="matrix(12,0,0,12,291.3,613.6)" />
<use xlink:href="#f2_2j" transform="matrix(12,0,0,12,304.1,613.6)" />
<use xlink:href="#f2_2e" transform="matrix(12,0,0,12,317.3,613.6)" />
<use xlink:href="#f2_25" transform="matrix(12,0,0,12,323.9,613.6)" />
<use xlink:href="#f2_2g" transform="matrix(12,0,0,12,328.3,613.6)" />
<use xlink:href="#f2_2g" transform="matrix(12,0,0,12,333.8,613.6)" />
<use xlink:href="#f2_21" transform="matrix(12,0,0,12,339.3,613.6)" />
<use xlink:href="#f2_2a" transform="matrix(12,0,0,12,347.3,613.6)" />
<use xlink:href="#f2_1x" transform="matrix(12,0,0,12,360.9,613.6)" />
<use xlink:href="#f2_2f" transform="matrix(12,0,0,12,368.9,613.6)" />
<use xlink:href="#f2_1g" transform="matrix(12,0,0,12,55,637.8)" />
<use xlink:href="#f2_x" transform="matrix(12,0,0,12,70,637.8)" />
<use xlink:href="#f2_1g" transform="matrix(12,0,0,12,85,637.8)" />
<use xlink:href="#f2_l" transform="matrix(7.9,0,0,7.9,95,639.3)" />
<use xlink:href="#f2_f" transform="matrix(12,0,0,12,106,637.8)" />
<use xlink:href="#f2_1g" transform="matrix(12,0,0,12,120.7,637.8)" />
<use xlink:href="#f2_m" transform="matrix(7.9,0,0,7.9,130.9,639.3)" />
<use xlink:href="#f2_f" transform="matrix(12,0,0,12,141.9,637.8)" />
<use xlink:href="#f2_1g" transform="matrix(12,0,0,12,156.6,637.8)" />
<use xlink:href="#f2_n" transform="matrix(7.9,0,0,7.9,166.9,639.3)" />
<use xlink:href="#f2_f" transform="matrix(12,0,0,12,177.5,637.8)" />
<use xlink:href="#f2_i" transform="matrix(12,0,0,12,192.2,637.8)" />
<use xlink:href="#f2_i" transform="matrix(12,0,0,12,197,637.8)" />
<use xlink:href="#f2_i" transform="matrix(12,0,0,12,201.4,637.8)" />
<use xlink:href="#f2_i" transform="matrix(12,0,0,12,206.1,637.8)" />
<use xlink:href="#f2_i" transform="matrix(12,0,0,12,210.5,637.8)" />
<use xlink:href="#f2_i" transform="matrix(12,0,0,12,215.3,637.8)" />
<use xlink:href="#f2_c" transform="matrix(12,0,0,12,55,662)" />
<use xlink:href="#f2_1y" transform="matrix(12,0,0,12,61.3,662)" />
<use xlink:href="#f2_d" transform="matrix(12,0,0,12,70.1,662)" />
<use xlink:href="#f2_17" transform="matrix(12,0,0,12,81,662)" />
<use xlink:href="#f2_25" transform="matrix(12,0,0,12,94.6,662)" />
<use xlink:href="#f2_2i" transform="matrix(12,0,0,12,99.3,662)" />
<use xlink:href="#f2_21" transform="matrix(12,0,0,12,108.1,662)" />
<use xlink:href="#f2_2a" transform="matrix(12,0,0,12,116.5,662)" />
<use xlink:href="#f2_1x" transform="matrix(12,0,0,12,130.1,662)" />
<use xlink:href="#f2_2a" transform="matrix(12,0,0,12,138.5,662)" />
<use xlink:href="#f2_23" transform="matrix(12,0,0,12,147.3,662)" />
<use xlink:href="#f2_28" transform="matrix(12,0,0,12,156.8,662)" />
<use xlink:href="#f2_21" transform="matrix(12,0,0,12,161.6,662)" />
<use xlink:href="#f2_2b" transform="matrix(12,0,0,12,174.4,662)" />
<use xlink:href="#f2_22" transform="matrix(12,0,0,12,183.9,662)" />
<use xlink:href="#f2_2c" transform="matrix(12,0,0,12,194.2,662)" />
<use xlink:href="#f2_2e" transform="matrix(12,0,0,12,203.3,662)" />
<use xlink:href="#f2_25" transform="matrix(12,0,0,12,209.9,662)" />
<use xlink:href="#f2_2f" transform="matrix(12,0,0,12,214.3,662)" />
<use xlink:href="#f2_29" transform="matrix(12,0,0,12,221.6,662)" />
<use xlink:href="#f2_c" transform="matrix(12,0,0,12,240.3,662)" />
<use xlink:href="#f2_11" transform="matrix(12,0,0,12,246.5,662)" />
<use xlink:href="#f2_d" transform="matrix(12,0,0,12,259.4,662)" />
<use xlink:href="#f2_x" transform="matrix(12,0,0,12,270.3,662)" />
<use xlink:href="#f2_q" transform="matrix(12,0,0,12,285.3,662)" />
<use xlink:href="#f2_k" transform="matrix(12,0,0,12,294.5,662)" />
<use xlink:href="#f2_37" transform="matrix(12,0,0,12,303.7,662)" />
<use xlink:href="#f2_1x" transform="matrix(12,0,0,12,55,698.3)" />
<use xlink:href="#f2_2a" transform="matrix(12,0,0,12,63.1,698.3)" />
<use xlink:href="#f2_23" transform="matrix(12,0,0,12,71.9,698.3)" />
<use xlink:href="#f2_28" transform="matrix(12,0,0,12,81.4,698.3)" />
<use xlink:href="#f2_21" transform="matrix(12,0,0,12,86.2,698.3)" />
<use xlink:href="#f2_2b" transform="matrix(12,0,0,12,99,698.3)" />
<use xlink:href="#f2_22" transform="matrix(12,0,0,12,108.5,698.3)" />
<use xlink:href="#f2_25" transform="matrix(12,0,0,12,119.1,698.3)" />
<use xlink:href="#f2_2a" transform="matrix(12,0,0,12,123.9,698.3)" />
<use xlink:href="#f2_1z" transform="matrix(12,0,0,12,133.1,698.3)" />
<use xlink:href="#f2_25" transform="matrix(12,0,0,12,141.5,698.3)" />
<use xlink:href="#f2_20" transform="matrix(12,0,0,12,146.2,698.3)" />
<use xlink:href="#f2_21" transform="matrix(12,0,0,12,155.4,698.3)" />
<use xlink:href="#f2_2a" transform="matrix(12,0,0,12,163.8,698.3)" />
<use xlink:href="#f2_1z" transform="matrix(12,0,0,12,172.6,698.3)" />
<use xlink:href="#f2_21" transform="matrix(12,0,0,12,180.7,698.3)" />
<use xlink:href="#f2_c" transform="matrix(12,0,0,12,193.5,698.3)" />
<use xlink:href="#f2_25" transform="matrix(12,0,0,12,200.1,698.3)" />
<use xlink:href="#f2_d" transform="matrix(12,0,0,12,204.5,698.3)" />
</g>
<path d="M233.5,693.8h10.8" class="g8_52" />
<g clip-path="url(#c6_52)">
<g fill="#000000" >
<use xlink:href="#f2_n" transform="matrix(12.5,0,0,12.4,234.7,686.5)" />
<use xlink:href="#f2_o" transform="matrix(12.5,0,0,12.4,234.7,713.1)" />
<use xlink:href="#f3_11" transform="matrix(12.5,0,0,12.4,248.5,698.4)" />
<use xlink:href="#f4_x" transform="matrix(12.5,0,0,12.4,218.9,698.4)" />
</g>
</g>
<path d="M72.6,744.7H83.5" class="g9_52" />
<g clip-path="url(#c7_52)">
<g fill="#000000" >
<use xlink:href="#f2_n" transform="matrix(12.4,0,0,12.4,73.8,737.5)" />
<use xlink:href="#f2_q" transform="matrix(12.4,0,0,12.4,99.4,749.4)" />
<use xlink:href="#f2_k" transform="matrix(12.4,0,0,12.4,108.5,749.4)" />
<use xlink:href="#f2_o" transform="matrix(12.4,0,0,12.4,73.8,764.1)" />
<use xlink:href="#f4_x" transform="matrix(12.4,0,0,12.4,57.9,749.4)" />
<use xlink:href="#f4_3a" transform="matrix(12.4,0,0,12.4,86.6,749.4)" />
</g>
</g>
<g fill="#000000" >
<use xlink:href="#f2_25" transform="matrix(12,0,0,12,55,787.8)" />
<use xlink:href="#f2_x" transform="matrix(12,0,0,12,64.6,787.8)" />
<use xlink:href="#f2_o" transform="matrix(12,0,0,12,79.6,787.8)" />
<use xlink:href="#f2_p" transform="matrix(12,0,0,12,88.7,787.8)" />
<use xlink:href="#f2_37" transform="matrix(12,0,0,12,97.9,787.8)" />
<use xlink:href="#f2_22" transform="matrix(12,0,0,12,55,812)" />
<use xlink:href="#f2_2b" transform="matrix(12,0,0,12,60.5,812)" />
<use xlink:href="#f2_2e" transform="matrix(12,0,0,12,70.1,812)" />
<use xlink:href="#f2_29" transform="matrix(12,0,0,12,81.4,812)" />
<use xlink:href="#f2_25" transform="matrix(12,0,0,12,95.3,812)" />
<use xlink:href="#f2_2a" transform="matrix(12,0,0,12,100.1,812)" />
<use xlink:href="#f2_25" transform="matrix(12,0,0,12,109.2,812)" />
<use xlink:href="#f2_29" transform="matrix(12,0,0,12,114.3,812)" />
<use xlink:href="#f2_2h" transform="matrix(12,0,0,12,128.3,812)" />
<use xlink:href="#f2_29" transform="matrix(12,0,0,12,137.8,812)" />
<use xlink:href="#f2_20" transform="matrix(12,0,0,12,156.5,812)" />
<use xlink:href="#f2_21" transform="matrix(12,0,0,12,165.7,812)" />
<use xlink:href="#f2_2i" transform="matrix(12,0,0,12,174.1,812)" />
<use xlink:href="#f2_25" transform="matrix(12,0,0,12,183.3,812)" />
<use xlink:href="#f2_1x" transform="matrix(12,0,0,12,188,812)" />
<use xlink:href="#f2_2g" transform="matrix(12,0,0,12,196.1,812)" />
<use xlink:href="#f2_25" transform="matrix(12,0,0,12,201.9,812)" />
<use xlink:href="#f2_2b" transform="matrix(12,0,0,12,206.3,812)" />
<use xlink:href="#f2_2a" transform="matrix(12,0,0,12,215.9,812)" />
<use xlink:href="#f2_c" transform="matrix(12,0,0,12,229.4,812)" />
<use xlink:href="#f2_25" transform="matrix(12,0,0,12,236,812)" />
<use xlink:href="#f2_x" transform="matrix(12,0,0,12,245.1,812)" />
<use xlink:href="#f2_21" transform="matrix(12,0,0,12,260.2,812)" />
<use xlink:href="#f2_g" transform="matrix(12,0,0,12,268.2,812)" />
<use xlink:href="#f2_2e" transform="matrix(12,0,0,12,277.7,812)" />
<use xlink:href="#f2_l" transform="matrix(7.9,0,0,7.9,283.9,813.5)" />
<use xlink:href="#f2_x" transform="matrix(12,0,0,12,294.9,812)" />
<use xlink:href="#f2_2e" transform="matrix(12,0,0,12,309.6,812)" />
<use xlink:href="#f2_m" transform="matrix(7.9,0,0,7.9,315.8,813.5)" />
<use xlink:href="#f2_d" transform="matrix(12,0,0,12,322,812)" />
<use xlink:href="#f4_20" transform="matrix(12,0,0,12,55,837.3)" />
<use xlink:href="#f2_29" transform="matrix(7.9,0,0,7.9,64.2,838.8)" />
<use xlink:href="#f2_x" transform="matrix(12,0,0,12,78.1,837.3)" />
<use xlink:href="#f2_25" transform="matrix(12,0,0,12,93.5,837.3)" />
<use xlink:href="#f2_f" transform="matrix(12,0,0,12,102.7,837.3)" />
<use xlink:href="#f2_21" transform="matrix(12,0,0,12,117.7,837.3)" />
<use xlink:href="#f5_4y" transform="matrix(12,0,0,12,130.6,837.3)" />
<use xlink:href="#f2_11" transform="matrix(12,0,0,12,144.5,837.3)" />
<use xlink:href="#f4_20" transform="matrix(12,0,0,12,55,863.3)" />
<use xlink:href="#f2_29" transform="matrix(7.9,0,0,7.9,64.2,864.8)" />
<use xlink:href="#f2_x" transform="matrix(12,0,0,12,78.1,863.3)" />
<use xlink:href="#f2_m" transform="matrix(12,0,0,12,93.2,863.3)" />
<use xlink:href="#f2_25" transform="matrix(12,0,0,12,102.7,863.3)" />
<use xlink:href="#f5_4y" transform="matrix(12,0,0,12,111.9,863.3)" />
<use xlink:href="#f2_11" transform="matrix(12,0,0,12,125.8,863.3)" />
<use xlink:href="#f4_20" transform="matrix(12,0,0,12,55,889.1)" />
<use xlink:href="#f2_29" transform="matrix(7.9,0,0,7.9,64.2,890.5)" />
<use xlink:href="#f2_x" transform="matrix(12,0,0,12,78.1,889.1)" />
<use xlink:href="#f2_m" transform="matrix(12,0,0,12,93.2,889.1)" />
<use xlink:href="#f2_4a" transform="matrix(12,0,0,12,107.1,889.1)" />
<use xlink:href="#f2_o" transform="matrix(12,0,0,12,122.1,889.1)" />
<use xlink:href="#f2_p" transform="matrix(12,0,0,12,131.2,889.1)" />
<use xlink:href="#f2_37" transform="matrix(12,0,0,12,140.4,889.1)" />
<use xlink:href="#f5_4y" transform="matrix(12,0,0,12,152.2,889.1)" />
<use xlink:href="#f2_11" transform="matrix(12,0,0,12,166.2,889.1)" />
<use xlink:href="#f2_x" transform="matrix(12,0,0,12,183.8,889.1)" />
<use xlink:href="#f2_t" transform="matrix(12,0,0,12,198.8,889.1)" />
<use xlink:href="#f2_k" transform="matrix(12,0,0,12,207.9,889.1)" />
<use xlink:href="#f2_37" transform="matrix(12,0,0,12,217.1,889.1)" />
<use xlink:href="#f5_4y" transform="matrix(12,0,0,12,228.9,889.1)" />
<use xlink:href="#f2_q" transform="matrix(12,0,0,12,242.8,889.1)" />
<use xlink:href="#f2_k" transform="matrix(12,0,0,12,252,889.1)" />
<use xlink:href="#f2_37" transform="matrix(12,0,0,12,261.2,889.1)" />
<use xlink:href="#f2_x" transform="matrix(12,0,0,12,272.9,889.1)" />
<use xlink:href="#f2_n" transform="matrix(12,0,0,12,287.9,889.1)" />
<use xlink:href="#f2_k" transform="matrix(12,0,0,12,297.1,889.1)" />
<use xlink:href="#f2_37" transform="matrix(12,0,0,12,306.2,889.1)" />
<use xlink:href="#f4_20" transform="matrix(12,0,0,12,55,915.1)" />
<use xlink:href="#f2_29" transform="matrix(7.9,0,0,7.9,64.2,916.6)" />
<use xlink:href="#f2_x" transform="matrix(12,0,0,12,78.1,915.1)" />
<use xlink:href="#f2_n" transform="matrix(12,0,0,12,93.2,915.1)" />
<use xlink:href="#f2_k" transform="matrix(12,0,0,12,102.3,915.1)" />
<use xlink:href="#f2_37" transform="matrix(12,0,0,12,111.5,915.1)" />
<use xlink:href="#f2_g" transform="matrix(12,0,0,12,118.5,915.1)" />
<use xlink:href="#f2_25" transform="matrix(12,0,0,12,128.3,915.1)" />
<use xlink:href="#f2_x" transform="matrix(12,0,0,12,137.5,915.1)" />
<use xlink:href="#f2_o" transform="matrix(12,0,0,12,152.5,915.1)" />
<use xlink:href="#f2_p" transform="matrix(12,0,0,12,161.6,915.1)" />
<use xlink:href="#f2_37" transform="matrix(12,0,0,12,170.8,915.1)" />
<use xlink:href="#f2_11" transform="matrix(12,0,0,12,182.5,915.1)" />
<use xlink:href="#f2_x" transform="matrix(12,0,0,12,200.1,915.1)" />
<use xlink:href="#f2_q" transform="matrix(12,0,0,12,215.1,915.1)" />
<use xlink:href="#f2_k" transform="matrix(12,0,0,12,224.3,915.1)" />
<use xlink:href="#f2_37" transform="matrix(12,0,0,12,233.8,915.1)" />
<use xlink:href="#f2_1j" transform="matrix(12,0,0,12,55,977.8)" />
<use xlink:href="#f2_25" transform="matrix(12,0,0,12,65.7,977.8)" />
<use xlink:href="#f2_2a" transform="matrix(12,0,0,12,70.4,977.8)" />
<use xlink:href="#f2_1z" transform="matrix(12,0,0,12,79.2,977.8)" />
<use xlink:href="#f2_21" transform="matrix(12,0,0,12,87.3,977.8)" />
</g>
<path d="M166.6,948.4h50.3m-32.2,47.4h14" class="g10_52" />
<path d="M132.6,972.8h94.7" class="g11_52" />
<path d="M281.1,948.4h54.8m-37.3,47.4h19.7" class="g10_52" />
<path d="M247.1,972.8h99.2" class="g11_52" />
<g clip-path="url(#c8_52)">
<g fill="#000000" >
<use xlink:href="#f2_n" transform="matrix(12.1,0,0,12.1,281.6,941.7)" />
<use xlink:href="#f2_k" transform="matrix(12.1,0,0,12.1,290.7,941.7)" />
<use xlink:href="#f2_q" transform="matrix(12.1,0,0,12.1,317,941.7)" />
<use xlink:href="#f2_k" transform="matrix(12.1,0,0,12.1,326.1,941.7)" />
<use xlink:href="#f2_2f" transform="matrix(12.1,0,0,12.1,133.2,953)" />
<use xlink:href="#f2_25" transform="matrix(12.1,0,0,12.1,140.3,953)" />
<use xlink:href="#f2_2a" transform="matrix(12.1,0,0,12.1,145.4,953)" />
<use xlink:href="#f2_2f" transform="matrix(12.1,0,0,12.1,247.6,953)" />
<use xlink:href="#f2_25" transform="matrix(12.1,0,0,12.1,254.7,953)" />
<use xlink:href="#f2_2a" transform="matrix(12.1,0,0,12.1,259.9,953)" />
<use xlink:href="#f2_m" transform="matrix(12.1,0,0,12.1,187.4,967)" />
<use xlink:href="#f2_m" transform="matrix(12.1,0,0,12.1,304.2,967)" />
<use xlink:href="#f2_q" transform="matrix(12.1,0,0,12.1,299.5,989.1)" />
<use xlink:href="#f2_k" transform="matrix(12.1,0,0,12.1,308.6,989.1)" />
<use xlink:href="#f2_2f" transform="matrix(12.1,0,0,12.1,160.3,1000.4)" />
<use xlink:href="#f2_25" transform="matrix(12.1,0,0,12.1,167.4,1000.4)" />
<use xlink:href="#f2_2a" transform="matrix(12.1,0,0,12.1,172.5,1000.4)" />
<use xlink:href="#f2_2f" transform="matrix(12.1,0,0,12.1,274.1,1000.4)" />
<use xlink:href="#f2_25" transform="matrix(12.1,0,0,12.1,281.3,1000.4)" />
<use xlink:href="#f2_2a" transform="matrix(12.1,0,0,12.1,286.4,1000.4)" />
<use xlink:href="#f2_m" transform="matrix(12.1,0,0,12.1,187.4,1014.4)" />
<use xlink:href="#f2_m" transform="matrix(12.1,0,0,12.1,304.2,1014.4)" />
<use xlink:href="#f3_29" transform="matrix(7,0,0,7,177,946.4)" />
<use xlink:href="#f3_11" transform="matrix(12.1,0,0,12.1,205.5,941.7)" />
<use xlink:href="#f3_11" transform="matrix(12.1,0,0,12.1,187.3,989.1)" />
<use xlink:href="#f4_20" transform="matrix(12.1,0,0,12.1,167.5,941.7)" />
<use xlink:href="#f4_f" transform="matrix(12.1,0,0,12.1,190.1,941.7)" />
<use xlink:href="#f4_f" transform="matrix(12.1,0,0,12.1,303.3,941.7)" />
<use xlink:href="#f4_4o" transform="matrix(12.1,0,0,12.1,156.8,943.1)" />
<use xlink:href="#f4_54" transform="matrix(12.1,0,0,12.1,219.5,943.1)" />
<use xlink:href="#f4_4o" transform="matrix(12.1,0,0,12.1,271.2,943.1)" />
<use xlink:href="#f4_54" transform="matrix(12.1,0,0,12.1,338.5,943.1)" />
<use xlink:href="#f4_4p" transform="matrix(12.1,0,0,12.1,156.8,957.7)" />
<use xlink:href="#f4_55" transform="matrix(12.1,0,0,12.1,219.5,957.7)" />
<use xlink:href="#f4_4p" transform="matrix(12.1,0,0,12.1,271.2,957.7)" />
<use xlink:href="#f4_55" transform="matrix(12.1,0,0,12.1,338.5,957.7)" />
<use xlink:href="#f4_4q" transform="matrix(12.1,0,0,12.1,156.8,969.1)" />
<use xlink:href="#f4_56" transform="matrix(12.1,0,0,12.1,219.5,969.1)" />
<use xlink:href="#f4_4q" transform="matrix(12.1,0,0,12.1,271.2,969.1)" />
<use xlink:href="#f4_56" transform="matrix(12.1,0,0,12.1,338.5,969.1)" />
<use xlink:href="#f4_29" transform="matrix(12.1,0,0,12.1,102.8,977.4)" />
<use xlink:href="#f4_x" transform="matrix(12.1,0,0,12.1,117.9,977.4)" />
<use xlink:href="#f4_x" transform="matrix(12.1,0,0,12.1,232.3,977.4)" />
</g>
</g>
<path d="M87.2,1047.4h50.7" class="g12_52" />
<path d="M161.5,1063.8l1.8,-1m0,0l4.4,7.1m0,0l4.9,-19m0,0h10.5" class="g13_52" />
<path fill-rule="evenodd" d="M160.5,1062.8l2.6,-1.4l3.9,5.9l4.5,-17.6h10.8v.9H172.2l-4.8,18.6h-.9l-4.4,-6.6l-1.3,.7l-.3,-.5Z" class="g14_52" />
<path d="M166,1097.2h10.8m-17.7,-22.7h24.6" class="g15_52" />
<path d="M157.7,1047.4h27.5" class="g12_52" />
<path d="M207.3,1063.8l1.9,-1m0,0l4.4,7.1m0,0l4.9,-19m0,0H229" class="g13_52" />
<path fill-rule="evenodd" d="M206.4,1062.8l2.5,-1.4l4,5.9l4.4,-17.6h10.9v.9H218l-4.7,18.6h-.9l-4.4,-6.6l-1.3,.7l-.3,-.5Z" class="g14_52" />
<path d="M205,1047.4h24.6" class="g12_52" />
<path d="M88.1,1139.1l1.8,-1m.1,0l4.4,7.1m0,.1l4.8,-19m0,0h10.5" class="g13_52" />
<path fill-rule="evenodd" d="M87.2,1138.1l2.5,-1.4l3.9,5.9L98.1,1125H109v.9H98.8L94,1144.5h-.9L88.7,1138l-1.2,.7l-.3,-.6Z" class="g14_52" />
<g clip-path="url(#c9_52)">
<g fill="#000000" >
<use xlink:href="#f2_2f" transform="matrix(12.1,0,0,12.2,87.7,1040.2)" />
<use xlink:href="#f2_25" transform="matrix(12.1,0,0,12.2,94.8,1040.2)" />
<use xlink:href="#f2_2a" transform="matrix(12.1,0,0,12.2,100,1040.2)" />
<use xlink:href="#f2_o" transform="matrix(12.1,0,0,12.2,111.9,1040.2)" />
<use xlink:href="#f2_p" transform="matrix(12.1,0,0,12.2,121,1040.2)" />
<use xlink:href="#f2_l" transform="matrix(12.1,0,0,12.2,166.8,1040.2)" />
<use xlink:href="#f2_m" transform="matrix(12.1,0,0,12.2,213,1040.2)" />
<use xlink:href="#f2_2f" transform="matrix(12.1,0,0,12.2,88,1066.5)" />
<use xlink:href="#f2_25" transform="matrix(12.1,0,0,12.2,95.2,1066.5)" />
<use xlink:href="#f2_2a" transform="matrix(12.1,0,0,12.2,100.3,1066.5)" />
<use xlink:href="#f2_n" transform="matrix(12.1,0,0,12.2,111.6,1066.5)" />
<use xlink:href="#f2_k" transform="matrix(12.1,0,0,12.2,120.7,1066.5)" />
<use xlink:href="#f2_m" transform="matrix(12.1,0,0,12.2,172.6,1067.7)" />
<use xlink:href="#f2_m" transform="matrix(12.1,0,0,12.2,218.5,1067.7)" />
<use xlink:href="#f2_l" transform="matrix(12.1,0,0,12.2,166.8,1090.4)" />
<use xlink:href="#f2_m" transform="matrix(12.1,0,0,12.2,167.2,1115.9)" />
<use xlink:href="#f2_m" transform="matrix(12.1,0,0,12.2,99.2,1143.1)" />
<use xlink:href="#f4_36" transform="matrix(12.1,0,0,12.2,130.2,1040.2)" />
<use xlink:href="#f4_29" transform="matrix(12.1,0,0,12.2,57.4,1052)" />
<use xlink:href="#f4_x" transform="matrix(12.1,0,0,12.2,72.4,1052)" />
<use xlink:href="#f4_x" transform="matrix(12.1,0,0,12.2,142.9,1052)" />
<use xlink:href="#f4_x" transform="matrix(12.1,0,0,12.2,190.2,1052)" />
<use xlink:href="#f4_36" transform="matrix(12.1,0,0,12.2,129.9,1066.5)" />
<use xlink:href="#f4_29" transform="matrix(12.1,0,0,12.2,57.4,1143.1)" />
<use xlink:href="#f4_x" transform="matrix(12.1,0,0,12.2,72.4,1143.1)" />
</g>
</g>
<path fill-rule="evenodd" d="M37.4,38.1h.7v-.7h-.7v.7Z" class="g14_52" />
<path fill-rule="evenodd" d="M37.4,38.1h.7v-.7h-.7v.7Z" class="g14_52" />
<path fill-rule="evenodd" d="M38.1,38.1H871.5v-.7H38.1v.7Z" class="g14_52" />
<path fill-rule="evenodd" d="M871.5,38.1h.8v-.7h-.8v.7Z" class="g14_52" />
<path fill-rule="evenodd" d="M871.5,38.1h.8v-.7h-.8v.7Z" class="g14_52" />
<path fill-rule="evenodd" d="M37.4,1248.5h.7V38.1h-.7V1248.5Z" class="g14_52" />
<path fill-rule="evenodd" d="M872.3,1248.5h.7V38.1h-.7V1248.5Z" class="g14_52" />
<path fill-rule="evenodd" d="M871.5,1248.5h.8V38.1h-.8V1248.5Z" class="g14_52" />
<path fill-rule="evenodd" d="M37.4,1249.2h.7v-.7h-.7v.7Z" class="g14_52" />
<path fill-rule="evenodd" d="M37.4,1249.2h.7v-.7h-.7v.7Z" class="g14_52" />
<path fill-rule="evenodd" d="M38.1,1249.9H871.5v-.7H38.1v.7Z" class="g14_52" />
<path fill-rule="evenodd" d="M38.1,1249.2H871.5v-.7H38.1v.7Z" class="g14_52" />
<path fill-rule="evenodd" d="M872.3,1249.9h.7v-1.4h-.7v1.4Z" class="g14_52" />
<path fill-rule="evenodd" d="M871.5,1249.9H873v-.7h-1.5v.7Z" class="g14_52" />
<path fill-rule="evenodd" d="M871.5,1249.2h.8v-.7h-.8v.7Z" class="g14_52" />
<path fill-rule="evenodd" d="M871.5,1249.2h.8v-.7h-.8v.7Z" class="g14_52" />
<defs>
<path d="M489,-15c0,0,-99,0,-179,30c0,0,-80,30,-136,91c0,0,-56,61,-85,152c0,0,-30,91,-30,212c0,0,0,123,32,218c0,0,33,96,92,161c0,0,59,65,142,98c0,0,82,34,181,34c0,0,40,0,78,-7c0,0,37,-7,69,-18c0,0,31,-11,57,-25c0,0,25,-14,35,-24c0,0,10,-10,14,-17c0,0,4,-7,6,-17c0,0,2,-11,3,-25c0,0,2,-14,2,-35c0,0,0,-22,-2,-38c0,0,-1,-15,-5,-25c0,0,-4,-10,-9,-14c0,0,-5,-5,-12,-5c0,0,-11,0,-28,13c0,0,-18,13,-45,29c0,0,-27,16,-65,29c0,0,-37,13,-89,13c0,0,-58,0,-103,-23c0,0,-45,-23,-77,-67c0,0,-31,-44,-48,-106c0,0,-16,-61,-16,-139c0,0,0,-85,17,-147c0,0,18,-62,50,-103c0,0,33,-40,79,-60c0,0,45,-19,103,-19c0,0,52,0,90,12c0,0,38,12,65,27c0,0,27,15,45,27c0,0,17,12,27,12c0,0,8,0,12,-3c0,0,4,-3,7,-12c0,0,3,-9,5,-25c0,0,1,-16,1,-43c0,0,0,-18,-1,-31c0,0,-1,-14,-3,-23c0,0,-2,-9,-6,-16c0,0,-4,-7,-12,-15c0,0,-8,-9,-32,-22c0,0,-23,-14,-57,-26C661,13,627,1,583,-6c0,0,-43,-9,-94,-9Z" 
id="f0_j"
transform="scale(0.001,-0.001)" />

<path d="M440,150c0,0,41,0,68,8c0,0,28,9,49,26c0,0,20,16,32,41c0,0,11,25,11,58c0,0,0,33,-11,60c0,0,-11,26,-33,44c0,0,-21,18,-55,28c0,0,-33,9,-87,9H298V150ZM407,567c0,0,42,0,68,10c0,0,25,10,42,28c0,0,16,17,24,41c0,0,9,24,9,50c0,0,0,29,-9,52c0,0,-9,23,-27,39c0,0,-18,15,-45,23c0,0,-27,8,-72,8H298V567ZM164,0c0,0,-25,0,-42,15c0,0,-16,14,-16,47V903c0,0,0,33,16,48c0,0,17,14,42,14H406c0,0,88,0,150,-15c0,0,61,-15,103,-45c0,0,42,-30,65,-77c0,0,22,-46,22,-108c0,0,0,-36,-9,-67c0,0,-9,-31,-26,-56c0,0,-17,-25,-42,-45c0,0,-25,-19,-57,-31c0,0,41,-7,76,-26c0,0,34,-19,60,-48c0,0,26,-30,41,-69c0,0,15,-40,15,-89c0,0,0,-51,-14,-93c0,0,-15,-42,-40,-74c0,0,-25,-32,-59,-55c0,0,-35,-23,-77,-38C614,29,573,14,525,7C525,7,478,0,420,0Z" 
id="f0_i"
transform="scale(0.001,-0.001)" />

<path d="M320,-17c0,0,-50,0,-93,9c0,0,-43,8,-76,19c0,0,-32,11,-54,24C97,35,75,48,65,58c0,0,-10,9,-14,28c0,0,-4,18,-4,52c0,0,0,23,1,39c0,0,2,15,5,25c0,0,4,10,9,14c0,0,6,4,13,4c0,0,11,0,30,-12c0,0,19,-13,49,-28c0,0,30,-15,71,-27c0,0,42,-12,96,-12c0,0,36,0,64,8c0,0,29,9,49,25c0,0,19,15,30,38c0,0,10,23,10,52c0,0,0,33,-18,56c0,0,-18,24,-46,42c0,0,-29,18,-66,34c0,0,-36,16,-75,34c0,0,-39,18,-76,41c0,0,-36,23,-65,54c0,0,-29,32,-47,75c0,0,-17,44,-17,104c0,0,0,70,25,122c0,0,26,53,70,88c0,0,43,34,103,51c0,0,59,18,125,18c0,0,35,0,69,-6c0,0,34,-5,64,-14c0,0,30,-9,53,-20c0,0,23,-11,31,-18c0,0,7,-8,10,-13c0,0,3,-5,4,-14c0,0,2,-8,3,-21c0,0,1,-13,1,-33c0,0,0,-21,-1,-36c0,0,-1,-15,-4,-25c0,0,-3,-9,-7,-14c0,0,-5,-4,-14,-4c0,0,-8,0,-26,10c0,0,-18,10,-44,23c0,0,-26,12,-60,22c0,0,-34,10,-75,10c0,0,-32,0,-56,-8c0,0,-24,-8,-40,-21c0,0,-16,-14,-24,-34c0,0,-8,-19,-8,-41c0,0,0,-32,18,-56c0,0,17,-23,46,-42c0,0,30,-18,67,-34c0,0,38,-16,76,-34c0,0,39,-18,76,-41c0,0,38,-22,67,-54c0,0,29,-32,47,-75c0,0,18,-43,18,-101c0,0,0,-76,-29,-133c0,0,-28,-58,-77,-96C572,60,524,21,459,2c0,0,-65,-19,-139,-19Z" 
id="f0_2n"
transform="scale(0.001,-0.001)" />

<path d="M164,0c0,0,-25,0,-42,15c0,0,-16,14,-16,47V903c0,0,0,33,16,48c0,0,17,14,42,14H645c0,0,7,0,12,-4c0,0,5,-3,9,-13c0,0,4,-9,6,-24c0,0,2,-14,2,-36c0,0,0,-21,-2,-36c0,0,-2,-14,-6,-23c0,0,-4,-9,-9,-13c0,0,-5,-4,-12,-4H301V576H593c0,0,6,0,12,-4c0,0,6,-4,9,-13c0,0,4,-8,6,-23c0,0,2,-14,2,-35c0,0,0,-22,-2,-36c0,0,-2,-14,-6,-23c0,0,-3,-8,-9,-12c0,0,-6,-4,-12,-4H301V154H649c0,0,6,0,12,-5c0,0,5,-4,9,-13c0,0,4,-9,6,-23c0,0,2,-15,2,-36c0,0,0,-22,-2,-36c0,0,-2,-15,-6,-24c0,0,-4,-9,-9,-13c0,0,-6,-4,-12,-4Z" 
id="f0_t"
transform="scale(0.001,-0.001)" />

<path d="M79,297c0,0,-19,0,-27,18c0,0,-8,17,-8,60c0,0,0,41,8,59c0,0,8,17,27,17H389c0,0,9,0,15,-4c0,0,7,-4,11,-13c0,0,5,-9,7,-23c0,0,1,-15,1,-36c0,0,0,-43,-8,-61c0,0,-8,-17,-26,-17Z" 
id="f0_oj"
transform="scale(0.001,-0.001)" />

<path d="M121,-4c0,0,-39,0,-60,2C61,-2,39,0,32,8c0,0,-8,8,-3,24c0,0,4,15,18,41L279,495L64,892c0,0,-14,26,-19,42c0,0,-5,17,4,24c0,0,9,8,32,10c0,0,23,2,65,2c0,0,35,0,56,-2c0,0,20,-1,32,-4c0,0,12,-4,17,-10c0,0,5,-6,9,-15L431,620L595,939c0,0,5,9,10,15c0,0,5,6,16,10c0,0,10,3,29,4c0,0,19,2,53,2c0,0,37,0,59,-2c0,0,22,-2,30,-10c0,0,8,-8,4,-24c0,0,-4,-16,-17,-42L564,497L793,73c0,0,14,-26,18,-41c0,0,4,-16,-5,-24c0,0,-9,-8,-32,-10c0,0,-24,-2,-65,-2c0,0,-36,0,-56,2c0,0,-20,1,-31,3c0,0,-12,4,-17,10c0,0,-5,6,-9,15L414,374L233,26c0,0,-4,-9,-9,-15c0,0,-6,-6,-17,-10c0,0,-12,-2,-32,-3c0,0,-21,-2,-54,-2Z" 
id="f0_3e"
transform="scale(0.001,-0.001)" />

<path d="M204,-4c0,0,-28,0,-47,2c0,0,-19,2,-31,5c0,0,-11,4,-16,10c0,0,-4,6,-4,13V939c0,0,0,7,4,13c0,0,5,6,17,10c0,0,11,3,30,6c0,0,19,2,47,2c0,0,29,0,48,-2c0,0,18,-3,29,-6c0,0,11,-4,16,-10c0,0,5,-6,5,-13V26c0,0,0,-7,-5,-13c0,0,-5,-6,-16,-10c0,0,-11,-3,-29,-5c0,0,-19,-2,-48,-2Z" 
id="f0_1c"
transform="scale(0.001,-0.001)" />

<path d="M127,0c0,0,-16,0,-28,3C99,3,87,6,80,15c0,0,-8,8,-11,25c0,0,-3,16,-3,42c0,0,0,25,2,42c0,0,2,18,8,32c0,0,6,14,15,27c0,0,9,13,24,29L282,390c0,0,50,53,81,95c0,0,30,43,47,79c0,0,17,35,24,65c0,0,6,30,6,57c0,0,0,24,-8,46c0,0,-8,22,-23,39c0,0,-15,16,-38,25c0,0,-23,10,-55,10c0,0,-44,0,-78,-12c0,0,-33,-11,-59,-25c0,0,-26,-13,-43,-25c0,0,-17,-12,-27,-12c0,0,-7,0,-11,5c0,0,-5,4,-8,15c0,0,-3,10,-5,28c0,0,-2,17,-2,42c0,0,0,18,1,29c0,0,1,12,4,20c0,0,2,9,6,15c0,0,3,6,13,15c0,0,9,9,34,23c0,0,25,14,61,27c0,0,37,14,81,23c0,0,44,9,92,9c0,0,75,0,131,-19c0,0,57,-19,94,-53c0,0,37,-34,55,-81c0,0,19,-47,19,-100c0,0,0,-47,-9,-93c0,0,-9,-45,-37,-98c0,0,-29,-52,-80,-116c0,0,-52,-64,-136,-148L299,159H679c0,0,8,0,14,-4c0,0,6,-5,11,-14c0,0,4,-9,7,-25c0,0,2,-15,2,-36c0,0,0,-22,-2,-37c0,0,-2,-15,-6,-25c0,0,-3,-10,-9,-14c0,0,-6,-4,-14,-4Z" 
id="f0_rz"
transform="scale(0.001,-0.001)" />

<path d="M385,138c0,0,29,0,52,9c0,0,22,10,39,28c0,0,17,19,28,47c0,0,11,29,19,66c0,0,7,37,9,84c0,0,3,47,3,104c0,0,0,69,-4,122c0,0,-4,52,-11,91c0,0,-8,39,-20,66c0,0,-12,27,-28,43c0,0,-16,16,-37,22c0,0,-21,7,-47,7c0,0,-44,0,-73,-21c0,0,-28,-21,-45,-64c0,0,-17,-42,-24,-106c0,0,-6,-63,-6,-148c0,0,0,-103,8,-171c0,0,8,-67,26,-107c0,0,17,-40,45,-56c0,0,27,-16,66,-16ZM378,-17c0,0,-99,0,-164,33c0,0,-65,34,-103,98c0,0,-38,64,-54,156c0,0,-15,92,-15,209c0,0,0,115,19,208c0,0,19,94,61,160c0,0,42,65,110,101c0,0,68,35,165,35c0,0,99,0,164,-34c0,0,65,-34,103,-98c0,0,39,-64,53,-156c0,0,15,-92,15,-209c0,0,0,-115,-18,-209c0,0,-19,-93,-61,-159C653,118,611,53,543,17c0,0,-67,-34,-165,-34Z" 
id="f0_rx"
transform="scale(0.001,-0.001)" />

<path d="M142,0c0,0,-6,0,-12,4c0,0,-5,3,-9,12c0,0,-4,9,-6,23c0,0,-3,15,-3,36c0,0,0,21,2,36c0,0,2,14,6,23c0,0,4,9,10,13c0,0,5,5,12,5H322V779L166,693c0,0,-17,-8,-28,-10c0,0,-1,0,-3,0c-4,0,-10,1,-14,5c0,0,-6,6,-8,22c0,0,-2,15,-2,44c0,0,0,18,0,29c0,0,1,12,4,20c0,0,3,8,8,14c0,0,5,5,14,11L345,962c0,0,4,3,9,5c0,0,6,2,15,3c0,0,9,1,23,2c0,0,15,0,38,0c0,0,28,0,46,-1c0,0,17,-1,26,-4c0,0,9,-3,12,-7c0,0,3,-4,3,-11V152H675c0,0,7,0,12,-5c0,0,6,-4,10,-13c0,0,4,-9,6,-23c0,0,2,-15,2,-36c0,0,0,-21,-2,-36c0,0,-3,-14,-7,-23c0,0,-4,-9,-9,-12c0,0,-5,-4,-12,-4Z" 
id="f0_ry"
transform="scale(0.001,-0.001)" />

<path d="M259,-4c0,0,-39,0,-62,3c0,0,-23,1,-34,7c0,0,-11,6,-12,14c0,0,-1,9,5,21L498,796H92c0,0,-16,0,-24,20c0,0,-7,21,-7,65c0,0,0,22,2,38c0,0,2,16,6,27c0,0,4,10,10,15c0,0,6,4,13,4H666c0,0,13,0,22,-3c0,0,9,-2,14,-11c0,0,6,-9,8,-25c0,0,3,-17,3,-43c0,0,0,-22,-2,-38c0,0,-1,-16,-4,-30c0,0,-2,-13,-7,-26c0,0,-4,-12,-10,-26L372,26c0,0,-5,-10,-12,-16c0,0,-7,-6,-20,-9c0,0,-12,-3,-32,-4c0,0,-20,-1,-49,-1Z" 
id="f0_s4"
transform="scale(0.001,-0.001)" />

<path d="M589,371L453,782h-1L317,371ZM106,-4c0,0,-35,0,-54,2C52,-2,32,0,25,8c0,0,-7,9,-5,24c0,0,2,16,11,42L329,931c0,0,4,13,10,21c0,0,6,7,19,12c0,0,13,4,36,5c0,0,23,1,61,1c0,0,44,0,71,-1c0,0,26,-1,40,-5c0,0,15,-5,21,-13c0,0,6,-8,11,-22L896,73c0,0,9,-27,11,-43c0,0,3,-15,-6,-23c0,0,-8,-7,-29,-9c0,0,-21,-2,-57,-2c0,0,-38,0,-59,1c0,0,-22,1,-33,4c0,0,-11,3,-16,9c0,0,-4,6,-7,16L635,220H272L211,31c0,0,-2,-11,-7,-18c0,0,-5,-7,-16,-11c0,0,-11,-3,-31,-4c0,0,-19,-2,-51,-2Z" 
id="f0_5"
transform="scale(0.001,-0.001)" />

<path d="M198,-4c0,0,-27,0,-45,2c0,0,-18,2,-28,5c0,0,-11,4,-15,10c0,0,-4,6,-4,13V887c0,0,0,38,20,58c0,0,20,20,53,20H308c0,0,34,0,59,-6c0,0,24,-5,42,-18c0,0,18,-13,30,-35c0,0,12,-21,21,-52L669,279h3L889,852c0,0,9,32,21,53c0,0,11,22,27,35c0,0,15,14,36,19c0,0,21,6,48,6h132c0,0,21,0,35,-5c0,0,15,-5,24,-15c0,0,9,-11,14,-25c0,0,5,-15,5,-33V26c0,0,0,-7,-4,-13c0,0,-4,-6,-15,-10c0,0,-11,-3,-29,-5c0,0,-18,-2,-45,-2c0,0,-27,0,-45,2c0,0,-18,2,-28,5c0,0,-11,4,-15,10c0,0,-5,6,-5,13V813h-1L764,27c0,0,-3,-10,-10,-16c0,0,-6,-6,-18,-10c0,0,-12,-3,-29,-4c0,0,-18,-1,-44,-1c0,0,-25,0,-43,2c0,0,-18,2,-29,5c0,0,-12,4,-19,10c0,0,-6,6,-9,14L293,813h-2V26c0,0,0,-7,-4,-13c0,0,-4,-6,-15,-10c0,0,-11,-3,-29,-5c0,0,-17,-2,-45,-2Z" 
id="f0_1x"
transform="scale(0.001,-0.001)" />

<path d="M193,-4c0,0,-26,0,-43,2c0,0,-18,2,-27,6c0,0,-10,4,-14,10c0,0,-3,6,-3,13V895c0,0,0,35,20,53c0,0,21,17,50,17H282c0,0,28,0,47,-5c0,0,20,-5,35,-16c0,0,15,-11,29,-31c0,0,13,-20,27,-49L608,511c0,0,17,-32,33,-63c0,0,16,-31,31,-62c0,0,14,-31,29,-60c0,0,14,-30,27,-60h1c0,0,-2,52,-3,109c0,0,-1,57,-1,108V936c0,0,0,7,4,13c0,0,5,6,15,11c0,0,10,4,28,6c0,0,17,2,44,2c0,0,25,0,42,-2c0,0,17,-2,27,-6c0,0,9,-5,13,-11c0,0,4,-6,4,-13V68c0,0,0,-17,-6,-30c0,0,-6,-14,-17,-23C879,15,869,6,856,2c0,0,-14,-3,-28,-3H744c0,0,-26,0,-45,4c0,0,-19,5,-35,19c0,0,-16,14,-31,38c0,0,-15,23,-34,60L359,572c0,0,-21,40,-43,86c0,0,-21,47,-38,91h-2c0,0,3,-54,5,-107c0,0,2,-53,2,-110V27c0,0,0,-7,-5,-13c0,0,-4,-6,-14,-10c0,0,-10,-4,-27,-6c0,0,-17,-2,-44,-2Z" 
id="f0_1y"
transform="scale(0.001,-0.001)" />

<path d="M378,-4c0,0,-28,0,-47,2c0,0,-19,2,-31,5c0,0,-11,4,-16,10c0,0,-4,6,-4,13V805H38c0,0,-8,0,-13,4c0,0,-5,5,-9,14c0,0,-3,9,-5,25c0,0,-2,15,-2,37c0,0,0,22,2,38c0,0,2,15,5,25c0,0,4,9,9,13c0,0,5,4,13,4H718c0,0,7,0,12,-4c0,0,6,-4,10,-13c0,0,3,-10,5,-25c0,0,2,-16,2,-38c0,0,0,-22,-2,-37c0,0,-2,-16,-5,-25c0,0,-4,-9,-10,-14c0,0,-5,-4,-12,-4H476V26c0,0,0,-7,-5,-13c0,0,-5,-6,-16,-10c0,0,-11,-3,-30,-5c0,0,-19,-2,-47,-2Z" 
id="f0_2t"
transform="scale(0.001,-0.001)" />

<path d="M514,145c0,0,72,0,121,27c0,0,48,26,78,73c0,0,30,46,42,107c0,0,13,62,13,131c0,0,0,76,-12,139c0,0,-12,62,-41,106c0,0,-29,45,-76,69c0,0,-48,24,-120,24c0,0,-72,0,-120,-27c0,0,-49,-27,-79,-73c0,0,-29,-45,-42,-106c0,0,-12,-61,-12,-129c0,0,0,-79,12,-142c0,0,12,-63,40,-108c0,0,28,-44,76,-68c0,0,48,-23,120,-23ZM508,-17c0,0,-113,0,-196,29c0,0,-84,29,-140,90c0,0,-56,60,-84,154c0,0,-28,93,-28,221c0,0,0,117,29,210c0,0,30,94,89,160c0,0,59,65,146,101c0,0,87,35,202,35c0,0,110,0,194,-29c0,0,84,-30,140,-90c0,0,56,-60,85,-153c0,0,29,-92,29,-217c0,0,0,-120,-30,-215c0,0,-30,-95,-89,-161C855,118,796,52,709,17c0,0,-87,-34,-201,-34Z" 
id="f0_24"
transform="scale(0.001,-0.001)" />

<path d="M75,0L400,413c0,0,71,91,101,149c0,0,30,58,30,109c0,0,0,55,-36,91c0,0,-36,36,-91,36c0,0,-63,0,-91,-45c0,0,-28,-46,-34,-142H67c0,0,0,173,102,268c0,0,102,95,253,95c0,0,140,0,229,-82c0,0,89,-82,89,-209c0,0,0,-125,-104,-276L580,324c0,0,-34,-50,-85,-114L468,178H740V0Z" 
id="f1_m"
transform="scale(0.001,-0.001)" />

<path d="M186,-28L17,77L450,779H39V952H793L186,-28Z" 
id="f1_r"
transform="scale(0.001,-0.001)" />

<path d="M44,-281L425,1053H537L156,-281Z" 
id="f1_j"
transform="scale(0.001,-0.001)" />

<path d="M403,168c0,0,50,0,85,37c0,0,35,36,35,89c0,0,0,50,-35,85c0,0,-35,36,-85,36c0,0,-47,0,-81,-37c0,0,-35,-37,-35,-89c0,0,0,-47,36,-84c0,0,35,-37,80,-37Zm3,426c0,0,39,0,70,28c0,0,31,29,31,65c0,0,0,46,-28,77c0,0,-29,31,-73,31c0,0,-42,0,-71,-29c0,0,-28,-29,-28,-70c0,0,0,-44,28,-73c0,0,29,-29,71,-29Zm2,-605c0,0,-145,0,-234,75c0,0,-90,76,-90,197c0,0,0,150,140,239c0,0,-59,52,-87,101c0,0,-27,49,-27,112c0,0,0,103,77,179c0,0,77,75,216,75c0,0,136,0,217,-68c0,0,81,-68,81,-180c0,0,0,-130,-115,-217c0,0,140,-90,140,-237c0,0,0,-124,-89,-200c0,0,-88,-76,-229,-76Z" 
id="f1_s"
transform="scale(0.001,-0.001)" />

<path d="M134,0V40L339,60V876L137,804v39l292,166h39V60L672,40V0Z" 
id="f2_l"
transform="scale(0.001,-0.001)" />

<path d="M191,-20c0,0,-39,0,-65,25c0,0,-25,27,-25,64c0,0,0,38,26,64c0,0,26,26,64,26c0,0,38,0,64,-26c0,0,26,-26,26,-64c0,0,0,-37,-25,-64c0,0,-26,-25,-65,-25Z" 
id="f2_i"
transform="scale(0.001,-0.001)" />

<path d="M460,-325c0,0,-148,79,-231,172c0,0,-84,93,-123,217c0,0,-39,126,-39,304c0,0,0,178,39,303c0,0,39,125,122,217c0,0,82,93,232,172V997c0,0,-91,-52,-145,-134c0,0,-54,-81,-79,-190c0,0,-25,-109,-25,-305c0,0,0,-194,26,-309c0,0,26,-114,82,-193c0,0,56,-79,141,-128v-63Z" 
id="f2_c"
transform="scale(0.001,-0.001)" />

<path d="M32,0V33L151,52V649L52,668v33H275V52L395,33V0ZM201,850c0,0,-32,0,-56,24c0,0,-24,24,-24,56c0,0,0,34,24,58c0,0,24,24,56,24c0,0,34,0,58,-24c0,0,24,-24,24,-58c0,0,0,-32,-24,-56c0,0,-24,-24,-58,-24Z" 
id="f2_25"
transform="scale(0.001,-0.001)" />

<path d="M49,-325v63c0,0,85,49,140,128c0,0,56,79,83,194c0,0,26,115,26,308c0,0,0,196,-25,305c0,0,-25,109,-79,190c0,0,-54,82,-145,134v63c0,0,149,-80,232,-172c0,0,83,-92,122,-217c0,0,39,-125,39,-303c0,0,0,-177,-39,-303c0,0,-39,-125,-122,-217c0,0,-83,-93,-232,-173Z" 
id="f2_d"
transform="scale(0.001,-0.001)" />

<path d="M246,-14L105,649L21,668l7,33H219L327,155L512,458c0,0,48,78,48,144c0,0,0,28,-15,44c0,0,-16,16,-34,22l6,33H659c0,0,19,-17,19,-47c0,0,0,-66,-62,-164L301,-14Z" 
id="f3_2i"
transform="scale(0.001,-0.001)" />

<path d="M228,-17c0,0,-76,0,-114,40c0,0,-38,41,-38,117c0,0,0,11,4,39c0,0,4,29,80,470L78,667l6,34H293L217,268c0,0,-17,-94,-17,-124c0,0,0,-34,18,-55c0,0,18,-21,57,-21c0,0,55,0,120,47c0,0,65,47,107,115l83,471H709L595,52L683,33L677,0H469l20,144C489,144,427,64,360,23c0,0,-67,-40,-132,-40Z" 
id="f3_2h"
transform="scale(0.001,-0.001)" />

<path d="M17,-325L185,639H64l6,36l127,29l9,49c0,0,30,167,100,245c0,0,71,78,191,78c0,0,57,0,104,-15L574,915H538l-14,85c0,0,-22,16,-63,16c0,0,-45,0,-72,-39c0,0,-26,-39,-48,-160L319,701H475L465,639H309L141,-325Z" 
id="f3_22"
transform="scale(0.001,-0.001)" />

<path d="M0,356v74H784V356Z" 
id="f4_h"
transform="scale(0.001,-0.001)" />

<path d="M0,214v74H784V214ZM0,494v72H784V494Z" 
id="f4_x"
transform="scale(0.001,-0.001)" />

<path d="M54,0V40L172,60V941L44,960v40H794V760H745L721,922c0,0,-83,11,-241,11H316V516H611l23,120h46V328H634L611,449H316V60L483,40V0Z" 
id="f2_16"
transform="scale(0.001,-0.001)" />

<path d="M377,45c0,0,99,0,147,73c0,0,47,73,47,237c0,0,0,161,-47,233c0,0,-47,72,-147,72c0,0,-97,0,-141,-69c0,0,-44,-69,-44,-236c0,0,0,-169,45,-240c0,0,44,-70,140,-70Zm0,-59c0,0,-158,0,-238,94c0,0,-81,95,-81,274c0,0,0,178,81,272c0,0,80,94,244,94c0,0,160,0,241,-92c0,0,82,-92,82,-274c0,0,0,-368,-329,-368Z" 
id="f2_2b"
transform="scale(0.001,-0.001)" />

<path d="M31,0V33l88,19V649L31,668v33H235l7,-87c0,0,44,37,121,71c0,0,76,35,121,35h11V530H463l-43,82c0,0,-37,0,-88,-10c0,0,-52,-10,-89,-26V52L363,33V0Z" 
id="f2_2e"
transform="scale(0.001,-0.001)" />

<path d="M249,-14c0,0,-71,0,-107,42c0,0,-35,42,-35,119V639H15v33l93,29l76,159h47V701H391V639H231V161c0,0,0,-48,22,-73c0,0,22,-24,57,-24c0,0,44,0,106,12V26C416,26,389,8,340,-2c0,0,-49,-12,-91,-12Z" 
id="f2_2g"
transform="scale(0.001,-0.001)" />

<path d="M442,0V33l93,19V504c0,0,0,129,-124,129c0,0,-70,0,-168,-22V52L338,33V0H31V33l88,19v956L15,1026v34H243V756c0,0,0,-77,-5,-112c0,0,54,31,122,53c0,0,68,23,115,23c0,0,91,0,137,-53c0,0,47,-53,47,-154V52L744,33V0Z" 
id="f2_24"
transform="scale(0.001,-0.001)" />

<path d="M495,413c0,0,0,133,-34,190c0,0,-34,57,-105,57c0,0,-78,0,-119,-63c0,0,-42,-62,-42,-184ZM374,-14c0,0,-163,0,-239,87c0,0,-75,88,-75,283c0,0,0,183,77,273c0,0,76,91,219,91c0,0,269,0,269,-306V353H194V340c0,0,0,-103,23,-160c0,0,22,-57,70,-87c0,0,47,-29,124,-29c0,0,40,0,96,6c0,0,55,7,91,15V43C598,43,562,20,500,3c0,0,-61,-17,-126,-17Z" 
id="f2_21"
transform="scale(0.001,-0.001)" />

<path d="M431,0V33L535,52V499c0,0,0,62,-32,96c0,0,-32,33,-95,33c0,0,-66,0,-163,-22V52L350,33V0H32V33l89,19V649L32,668v33H237l6,-57c0,0,56,32,119,54c0,0,62,22,110,22c0,0,52,0,95,-20c0,0,44,-19,66,-62c0,0,57,32,134,57c0,0,77,25,128,25c0,0,179,0,179,-207V52l90,-19V0H846V33L950,52V499c0,0,0,129,-119,129c0,0,-19,0,-45,-3c0,0,-26,-3,-52,-7c0,0,-25,-4,-49,-8c0,0,-23,-5,-39,-8c0,0,13,-41,13,-89V52L764,33V0Z" 
id="f2_29"
transform="scale(0.001,-0.001)" />

<path d="M284,67c0,0,51,0,88,12c0,0,37,12,74,30V358l-98,-3c0,0,-100,-4,-135,-39c0,0,-35,-35,-35,-117c0,0,0,-132,106,-132ZM233,-14c0,0,-179,0,-179,208c0,0,0,70,27,116c0,0,27,46,87,70c0,0,60,24,173,27l105,3V519c0,0,0,72,-26,107c0,0,-27,34,-82,34c0,0,-75,0,-137,-35L176,538H134V691c0,0,121,26,213,26c0,0,115,0,169,-47c0,0,54,-47,54,-144V52L657,33V0H465L451,70c0,0,-85,-84,-218,-84Z" 
id="f2_1x"
transform="scale(0.001,-0.001)" />

<path d="M359,-270c0,0,124,0,192,46c0,0,67,47,67,129c0,0,0,43,-26,67c0,0,-26,24,-79,24H242c0,0,-32,-27,-51,-69c0,0,-20,-41,-20,-77c0,0,0,-64,46,-92c0,0,46,-28,142,-28Zm11,561c0,0,81,0,115,47c0,0,34,47,34,141c0,0,0,100,-35,142c0,0,-35,42,-113,42c0,0,-78,0,-114,-43c0,0,-37,-42,-37,-141c0,0,0,-98,36,-143c0,0,36,-45,114,-45ZM359,-329c0,0,-143,0,-218,44c0,0,-75,43,-75,125c0,0,0,39,27,78c0,0,26,38,98,89c0,0,-43,14,-72,48c0,0,-29,35,-29,74L208,262c0,0,-118,55,-118,217c0,0,0,115,73,178c0,0,73,63,211,63c0,0,28,0,71,-6c0,0,44,-6,67,-13l165,83l26,-32L599,644c0,0,50,-56,50,-165c0,0,0,-120,-72,-182c0,0,-73,-62,-208,-62c0,0,-62,0,-114,11L208,148c0,0,2,-13,29,-24c0,0,27,-12,67,-12H512c0,0,113,0,168,-49c0,0,55,-49,55,-134c0,0,0,-79,-44,-137c0,0,-43,-58,-128,-90c0,0,-84,-31,-204,-31Z" 
id="f2_23"
transform="scale(0.001,-0.001)" />

<path d="M64,0V34L168,59V639H47v36l121,29v49c0,0,0,155,61,239c0,0,62,84,173,84c0,0,58,0,107,-15V908H472l-33,92c0,0,-26,16,-62,16c0,0,-47,0,-66,-42c0,0,-19,-42,-19,-157V701H478V639H292V59L443,34V0Z" 
id="f2_22"
transform="scale(0.001,-0.001)" />

<path d="M383,64c0,0,85,0,152,28V645c0,0,-67,13,-152,13c0,0,-194,0,-194,-314c0,0,0,-141,48,-211c0,0,48,-69,146,-69ZM342,-14c0,0,-287,0,-287,358c0,0,0,184,82,280c0,0,81,96,239,96c0,0,81,0,163,-18c0,0,-4,25,-4,124v182l-118,18v34H659V52L745,33V0H548l-9,52c0,0,-84,-66,-197,-66Z" 
id="f2_20"
transform="scale(0.001,-0.001)" />

<path d="M376,50c0,0,103,0,149,80c0,0,46,81,46,240c0,0,0,137,-47,204c0,0,-48,67,-148,67c0,0,-44,0,-87,-7c0,0,-44,-8,-63,-17V62c0,0,63,-12,150,-12Zm3,-64c0,0,-64,0,-141,14c0,0,-78,14,-136,37v971L0,1026v34H226V809c0,0,0,-40,-4,-148c0,0,74,59,188,59c0,0,143,0,219,-87c0,0,77,-87,77,-263c0,0,0,-189,-84,-287c0,0,-84,-97,-243,-97Z" 
id="f2_1y"
transform="scale(0.001,-0.001)" />

<path d="M148,-329c0,0,-58,0,-114,13v151H69l24,-71c0,0,23,-17,64,-17c0,0,39,0,72,22c0,0,33,23,60,67c0,0,27,44,68,157L90,649L19,668v33H344V668L233,648L423,158L606,649L497,668v33H758V668L685,652L411,-43c0,0,-48,-124,-84,-177c0,0,-36,-54,-79,-82c0,0,-44,-27,-100,-27Z" 
id="f2_2l"
transform="scale(0.001,-0.001)" />

<path d="M278,-14c0,0,-52,0,-115,11c0,0,-63,10,-99,23V193H98L134,95c0,0,56,-50,146,-50c0,0,144,0,144,123c0,0,0,91,-114,130l-66,21c0,0,-75,25,-110,50c0,0,-34,26,-53,63c0,0,-18,36,-18,89c0,0,0,92,63,145c0,0,63,54,170,54c0,0,77,0,193,-23V544H454l-32,81c0,0,-39,35,-124,35c0,0,-61,0,-92,-30c0,0,-32,-30,-32,-80c0,0,0,-43,29,-72c0,0,28,-29,86,-48c0,0,110,-38,144,-55c0,0,33,-17,57,-42c0,0,23,-25,36,-57c0,0,13,-32,13,-79c0,0,0,-104,-66,-158c0,0,-66,-53,-195,-53Z" 
id="f2_2f"
transform="scale(0.001,-0.001)" />

<path d="M399,-14c0,0,-341,0,-341,370c0,0,0,175,87,269c0,0,87,95,249,95c0,0,101,0,220,-23V501H573L541,625c0,0,-62,35,-149,35c0,0,-200,0,-200,-304c0,0,0,-158,61,-225c0,0,61,-67,189,-67c0,0,109,0,189,24V43C631,43,595,16,530,1c0,0,-64,-15,-131,-15Z" 
id="f2_1z"
transform="scale(0.001,-0.001)" />

<path d="M439,0V33l93,19V500c0,0,0,62,-30,97c0,0,-31,36,-94,36c0,0,-67,0,-165,-22V52L338,33V0H35V33l84,19V649L35,668v33H235l7,-57c0,0,57,33,122,54c0,0,65,22,108,22c0,0,91,0,137,-53c0,0,47,-53,47,-154V52L741,33V0Z" 
id="f2_2a"
transform="scale(0.001,-0.001)" />

<path d="M31,0V33L150,52v956L31,1026v34H274V52L394,33V0Z" 
id="f2_28"
transform="scale(0.001,-0.001)" />

<path d="M536,63c0,0,127,0,191,54c0,0,63,54,63,168c0,0,0,105,-70,154c0,0,-70,49,-225,49H316V67c0,0,103,-4,220,-4ZM480,555c0,0,121,0,178,48c0,0,57,48,57,155c0,0,0,91,-58,133c0,0,-57,42,-186,42H316V555ZM554,-4L235,0H44V40L172,60V941L44,960v40H501c0,0,191,0,279,-56c0,0,88,-56,88,-179c0,0,0,-88,-55,-149c0,0,-54,-62,-151,-83c0,0,135,-14,209,-79c0,0,73,-65,73,-166c0,0,0,-144,-99,-219C845,69,745,-4,554,-4Z" 
id="f2_12"
transform="scale(0.001,-0.001)" />

<path d="M58,-234v58c0,0,131,42,131,125c0,0,0,15,-11,27c0,0,-11,12,-38,25C140,1,89,27,89,75c0,0,0,40,25,61c0,0,26,21,65,21c0,0,48,0,77,-34c0,0,30,-34,30,-86c0,0,0,-101,-60,-170c0,0,-59,-69,-168,-101Z" 
id="f2_g"
transform="scale(0.001,-0.001)" />

<path d="M327,-14L84,649L1,668v33H335V668L219,648L385,174L554,632h63L786,171L944,649L830,668v33h267V668l-78,-16L784,-14H726L553,448L382,-14Z" 
id="f2_2j"
transform="scale(0.001,-0.001)" />

<path d="M383,64c0,0,44,0,87,7c0,0,43,7,65,17V645c0,0,-67,13,-152,13c0,0,-194,0,-194,-309c0,0,0,-143,48,-214c0,0,47,-71,146,-71Zm56,-389v35l96,18V-77c0,0,0,73,7,124c0,0,-79,-61,-200,-61c0,0,-287,0,-287,362c0,0,0,180,81,276c0,0,81,96,237,96c0,0,84,0,166,-18l67,33h53V-272l77,-18v-35Z" 
id="f2_2d"
transform="scale(0.001,-0.001)" />

<path d="M67,0V109L206,235c0,0,133,118,196,190c0,0,63,72,90,149c0,0,27,77,27,177c0,0,0,97,-44,148c0,0,-44,50,-144,50c0,0,-39,0,-81,-10c0,0,-42,-11,-74,-29L150,787H101V980c0,0,135,32,230,32c0,0,164,0,247,-68c0,0,82,-69,82,-193c0,0,0,-84,-32,-158c0,0,-33,-75,-100,-148c0,0,-67,-74,-222,-206c0,0,-67,-57,-141,-125H680V0Z" 
id="f2_m"
transform="scale(0.001,-0.001)" />

<path d="M355,0V355H0v72H355V784h72V427H782V355H427V0Z" 
id="f4_f"
transform="scale(0.001,-0.001)" />

<path d="M55,0V40L184,60V941L55,960v40H455V960L327,941V60L455,40V0Z" 
id="f2_19"
transform="scale(0.001,-0.001)" />

<path d="M289,-14c0,0,-179,0,-179,205V649L20,668v33H233V200c0,0,0,-128,120,-128c0,0,92,0,173,23V649L420,668v33H649V52L738,33V0H533l-6,57C527,57,474,28,405,7c0,0,-69,-21,-116,-21Z" 
id="f2_2h"
transform="scale(0.001,-0.001)" />

<path d="M360,-14L72,649L0,668v33H327V668L216,648L420,164L615,649L504,668v33H764V668L697,652L416,-14Z" 
id="f2_2i"
transform="scale(0.001,-0.001)" />

<path d="M350,-14c0,0,-142,0,-269,31L73,228h49L156,87c0,0,29,-16,82,-28c0,0,54,-12,100,-12c0,0,117,0,173,54c0,0,56,53,56,178c0,0,0,99,-52,150c0,0,-51,51,-159,56l-107,6v61l107,7c0,0,84,5,124,52c0,0,41,48,41,145c0,0,0,101,-44,147c0,0,-44,45,-139,45c0,0,-40,0,-83,-10c0,0,-43,-11,-76,-29L153,786H104V979c0,0,74,19,127,26c0,0,54,6,107,6c0,0,321,0,321,-246c0,0,0,-104,-57,-165c0,0,-57,-62,-162,-77c0,0,136,-16,200,-78c0,0,64,-62,64,-173c0,0,0,-135,-92,-211c0,0,-93,-75,-262,-75Z" 
id="f2_n"
transform="scale(0.001,-0.001)" />

<path d="M382,45c0,0,188,0,188,314c0,0,0,143,-47,213c0,0,-46,69,-141,69c0,0,-87,0,-146,-24V58c0,0,67,-13,146,-13ZM25,-325v35l88,18V649L34,668v33H231l1,-41c0,0,31,27,84,43c0,0,53,17,107,17c0,0,134,0,208,-94c0,0,73,-93,73,-267c0,0,0,-178,-80,-276c0,0,-80,-97,-232,-97c0,0,-84,0,-160,16c0,0,4,-53,4,-84V-272l123,-18v-35Z" 
id="f2_2c"
transform="scale(0.001,-0.001)" />

<path d="M394,460c0,0,126,0,186,57c0,0,60,57,60,187c0,0,0,123,-57,176c0,0,-58,53,-194,53H316V460ZM54,0V40L172,60V941L44,960v40H421c0,0,368,0,368,-295c0,0,0,-153,-93,-233c0,0,-93,-80,-267,-80H316V60L475,40V0Z" 
id="f2_1g"
transform="scale(0.001,-0.001)" />

<path d="M76,316v76H787V316Zm0,306v76H787V622Z" 
id="f2_x"
transform="scale(0.001,-0.001)" />

<path d="M392,152V469H76v77H392V863h77V546H787V469H469V152Z" 
id="f2_f"
transform="scale(0.001,-0.001)" />

<path d="M577,-14c0,0,-243,0,-379,131C198,117,63,248,63,488c0,0,0,263,131,393c0,0,132,130,386,130c0,0,182,0,352,-45V751H882L862,875c0,0,-52,37,-124,57c0,0,-72,19,-152,19c0,0,-191,0,-279,-113c0,0,-88,-114,-88,-348c0,0,0,-220,91,-333c0,0,91,-114,269,-114c0,0,63,0,131,15c0,0,69,15,105,36V377L686,397v40h370V397L958,377V52C958,52,871,24,778,5c0,0,-93,-19,-201,-19Z" 
id="f2_17"
transform="scale(0.001,-0.001)" />

<path d="M681,416L504,902L333,416ZM669,0V40L803,60L704,348H310L210,60L344,40V0H15V40L128,60l341,949H611L965,60L1092,40V0Z" 
id="f2_11"
transform="scale(0.001,-0.001)" />

<path d="M410,45c0,0,90,0,130,58c0,0,40,59,40,193c0,0,0,122,-38,177c0,0,-38,54,-122,54c0,0,-102,0,-217,-37c0,0,0,-227,51,-336c0,0,52,-109,156,-109Zm3,-59c0,0,-169,0,-258,131c0,0,-89,131,-89,377c0,0,0,161,47,278c0,0,47,117,131,178c0,0,85,61,196,61c0,0,109,0,217,-26V813H608L582,915c0,0,-25,13,-67,23c0,0,-41,10,-75,10c0,0,-109,0,-170,-105c0,0,-60,-106,-66,-308c0,0,121,63,244,63c0,0,132,0,201,-74c0,0,69,-74,69,-214c0,0,0,-156,-78,-240c0,0,-79,-84,-227,-84Z" 
id="f2_q"
transform="scale(0.001,-0.001)" />

<path d="M377,45c0,0,99,0,145,108c0,0,46,109,46,352c0,0,0,240,-45,345c0,0,-46,106,-146,106c0,0,-97,0,-139,-100c0,0,-43,-99,-43,-351c0,0,0,-254,44,-357c0,0,43,-103,138,-103Zm0,-59c0,0,-158,0,-238,132c0,0,-81,133,-81,386c0,0,0,249,81,380c0,0,80,132,244,132c0,0,159,0,241,-130c0,0,82,-130,82,-382c0,0,0,-518,-329,-518Z" 
id="f2_k"
transform="scale(0.001,-0.001)" />

<path d="M304,627c0,0,66,0,111,45c0,0,45,46,45,112c0,0,0,66,-45,112c0,0,-45,46,-111,46c0,0,-63,0,-109,-46c0,0,-46,-45,-46,-112c0,0,0,-67,46,-112c0,0,46,-45,109,-45Zm0,-75c0,0,-97,0,-164,68c0,0,-67,67,-67,164c0,0,0,62,31,115c0,0,30,54,84,86c0,0,54,31,116,31c0,0,62,0,116,-31c0,0,54,-31,85,-85c0,0,31,-54,31,-116c0,0,0,-63,-31,-117c0,0,-32,-54,-86,-84c0,0,-53,-31,-115,-31Z" 
id="f2_37"
transform="scale(0.001,-0.001)" />

<path d="M476,327V830h-4L114,327ZM476,0V220H30v99l488,686h86V327H740V220H604V0Z" 
id="f2_o"
transform="scale(0.001,-0.001)" />

<path d="M631,416L539,902L283,416ZM576,0l8,40L691,60L643,348H249L96,60L197,40L189,0H-83l8,40L7,60l509,949H659L845,60L938,40L930,0Z" 
id="f3_11"
transform="scale(0.001,-0.001)" />

<path d="M52,62L0,114L278,390L0,667l52,52L330,442L608,719l51,-51L382,390L659,114L608,62L330,338L52,62Z" 
id="f4_3a"
transform="scale(0.001,-0.001)" />

<path d="M350,-14c0,0,-142,0,-253,31L89,228h49L172,87c0,0,32,-18,78,-29c0,0,46,-11,88,-11c0,0,118,0,173,56c0,0,56,55,56,187c0,0,0,93,-24,140c0,0,-24,47,-76,70c0,0,-52,22,-140,22c0,0,-68,0,-133,-18H122v496H630V886H189V567c0,0,81,18,173,18c0,0,173,0,258,-71c0,0,84,-71,84,-216c0,0,0,-151,-92,-232c0,0,-91,-80,-262,-80Z" 
id="f2_p"
transform="scale(0.001,-0.001)" />

<path d="M326,28c0,0,92,0,144,75c0,0,52,74,52,189c0,0,0,62,-18,117c0,0,-17,54,-43,90c0,0,-19,27,-94,109c0,0,-116,-19,-175,-92c0,0,-58,-72,-58,-209c0,0,0,-136,58,-207c0,0,58,-72,134,-72ZM302,-21c0,0,-128,0,-215,88C87,67,0,156,0,288c0,0,0,78,35,153c0,0,35,75,105,123c0,0,70,49,188,80c0,0,-30,29,-64,55c0,0,-110,85,-142,130c0,0,-32,46,-32,86c0,0,0,58,56,102c0,0,56,44,178,44c0,0,141,0,220,-54c0,0,49,-33,49,-80c0,0,0,-25,-18,-43c0,0,-18,-18,-46,-18c0,0,-17,0,-29,8c0,0,-19,11,-65,61c0,0,-46,49,-73,63c0,0,-35,17,-83,17c0,0,-66,0,-102,-29c0,0,-36,-28,-36,-63c0,0,0,-32,40,-73c0,0,40,-40,176,-122c0,0,172,-102,234,-190c0,0,61,-88,61,-192c0,0,0,-153,-104,-261C548,85,444,-21,302,-21Z" 
id="f4_20"
transform="scale(0.001,-0.001)" />

<path d="M-12,338v55H777V338Z" 
id="f5_4y"
transform="scale(0.001,-0.001)" />

<path d="M174,197l-53,54L377,509L121,764l55,55L431,563L689,819l53,-53L486,509L742,251L689,197L431,454L174,197Z" 
id="f2_4a"
transform="scale(0.001,-0.001)" />

<path d="M370,468c0,0,96,0,194,40c0,0,0,229,-45,336c0,0,-45,107,-146,107c0,0,-187,0,-187,-259c0,0,0,-115,45,-169c0,0,45,-55,139,-55ZM312,-14c0,0,-122,0,-223,25V184h48L163,76c0,0,24,-11,65,-20c0,0,40,-9,81,-9c0,0,119,0,183,105c0,0,65,104,71,307c0,0,-113,-62,-230,-62c0,0,-132,0,-208,79c0,0,-76,78,-76,219c0,0,0,151,85,233c0,0,84,83,237,83c0,0,171,0,251,-123c0,0,79,-123,79,-385c0,0,0,-252,-102,-385C599,118,497,-14,312,-14Z" 
id="f2_t"
transform="scale(0.001,-0.001)" />

<path d="M410,-14c0,0,-80,0,-162,14c0,0,-81,14,-144,38V270h48L178,134c0,0,28,-35,95,-62c0,0,68,-27,134,-27c0,0,104,0,163,53c0,0,58,54,58,148c0,0,0,54,-23,89c0,0,-22,35,-59,59c0,0,-37,24,-84,41c0,0,-47,17,-97,34c0,0,-49,17,-96,38c0,0,-47,21,-84,53c0,0,-37,32,-60,79c0,0,-23,48,-23,117c0,0,0,119,90,187c0,0,89,68,248,68c0,0,121,0,263,-32V771H654L628,893c0,0,-76,55,-188,55c0,0,-100,0,-156,-40c0,0,-56,-41,-56,-112c0,0,0,-49,22,-81c0,0,23,-32,60,-55c0,0,37,-22,84,-39c0,0,48,-16,97,-34c0,0,50,-17,97,-39c0,0,48,-22,85,-56c0,0,36,-34,59,-83c0,0,23,-49,23,-120c0,0,0,-145,-89,-224c0,0,-89,-79,-256,-79Z" 
id="f2_1j"
transform="scale(0.001,-0.001)" />

<path d="M55,0L169,649L81,668l6,33H295L274,557c0,0,52,73,117,118c0,0,65,45,122,45c0,0,66,0,102,-42c0,0,36,-41,36,-121c0,0,51,72,115,117c0,0,64,46,123,46c0,0,63,0,99,-40c0,0,36,-40,36,-116c0,0,0,-16,-3,-42c0,0,-3,-27,-80,-470l98,-19L1032,0H808l77,434c0,0,17,90,17,124c0,0,0,34,-16,54c0,0,-15,21,-49,21c0,0,-33,0,-78,-32c0,0,-46,-31,-83,-80c0,0,-37,-49,-44,-91L558,0H434l76,434c0,0,19,98,19,124c0,0,0,34,-17,54c0,0,-16,21,-51,21c0,0,-33,0,-81,-34c0,0,-47,-33,-84,-80c0,0,-36,-48,-43,-89L179,0Z" 
id="f3_29"
transform="scale(0.001,-0.001)" />

<path d="M62,-123V268c0,0,0,230,56,452c0,0,47,190,134,334c0,0,87,144,204,242c0,0,85,73,194,119l18,-16c0,0,-211,-145,-335,-339c0,0,-98,-156,-149,-374c0,0,-50,-218,-50,-403V-123Z" 
id="f4_4o"
transform="scale(0.001,-0.001)" />

<path d="M617,-123V283c0,0,0,236,-63,459c0,0,-63,223,-188,392c0,0,-108,146,-282,265l17,16c0,0,180,-76,320,-248c0,0,139,-172,204,-417c0,0,64,-245,64,-482V-123Z" 
id="f4_54"
transform="scale(0.001,-0.001)" />

<path d="M62,-123V1415h72V-123Z" 
id="f4_4p"
transform="scale(0.001,-0.001)" />

<path d="M617,-123V1415h72V-123Z" 
id="f4_55"
transform="scale(0.001,-0.001)" />

<path d="M650,-123c0,0,-180,75,-319,246c0,0,-140,172,-205,418c0,0,-64,245,-64,481v393h72V1007c0,0,0,-236,63,-459c0,0,63,-223,189,-391c0,0,108,-145,282,-265l-18,-15Z" 
id="f4_4q"
transform="scale(0.001,-0.001)" />

<path d="M101,-123l-17,15c0,0,210,144,334,339c0,0,99,156,149,373c0,0,50,218,50,403v408h72V1022c0,0,0,-230,-56,-451c0,0,-48,-191,-134,-335C499,236,412,92,295,-5c0,0,-84,-73,-194,-118Z" 
id="f4_56"
transform="scale(0.001,-0.001)" />

<path d="M68,-328c0,0,-27,0,-44,20c0,0,-23,29,-23,71c0,0,0,21,9,52c0,0,20,71,25,123c0,0,9,88,9,151V683H168V253c0,0,0,-76,13,-109c0,0,13,-34,46,-53c0,0,33,-20,65,-20c0,0,39,0,92,23c0,0,53,24,108,75V683H616V234c0,0,0,-89,8,-125c0,0,7,-26,21,-37c0,0,13,-11,28,-11c0,0,19,0,35,18c0,0,16,19,24,75h30C762,154,749,54,713,16c0,0,-37,-37,-93,-37c0,0,-55,0,-88,32c0,0,-33,34,-40,116C492,127,416,43,348,10c0,0,-68,-32,-118,-32c0,0,-34,0,-66,13c0,0,-32,12,-62,37c0,0,-2,-107,19,-188c0,0,14,-57,14,-80c0,0,0,-41,-20,-65c0,0,-21,-23,-47,-23Z" 
id="f4_29"
transform="scale(0.001,-0.001)" />

<path d="M230,639c0,0,69,0,118,48c0,0,48,49,48,118c0,0,0,69,-48,118c0,0,-49,49,-118,49c0,0,-69,0,-118,-49c0,0,-48,-49,-48,-118c0,0,0,-69,48,-118c0,0,49,-48,118,-48Zm1,-64c0,0,-96,0,-163,67C68,642,1,709,1,804c0,0,0,95,67,162c0,0,67,68,163,68c0,0,94,0,161,-68c0,0,68,-67,68,-162c0,0,0,-95,-68,-162c0,0,-67,-67,-161,-67Z" 
id="f4_36"
transform="scale(0.001,-0.001)" />


</defs>
</svg>