<?xml version="1.0" encoding="UTF-8" standalone="no"?>
<!DOCTYPE svg PUBLIC "-//W3C//DTD SVG 1.1//EN"
"http://www.w3.org/Graphics/SVG/1.1/DTD/svg11.dtd">
<svg viewBox="0 0 909 1286" version="1.1" xmlns="http://www.w3.org/2000/svg" xmlns:xlink="http://www.w3.org/1999/xlink">
<defs>
</defs>
<g fill="#000000" >
<use xlink:href="#f0_6" transform="matrix(12,0,0,12,47.4,198.6)" />
<use xlink:href="#f0_8" transform="matrix(12,0,0,12,58.8,198.6)" />
</g>
<image preserveAspectRatio="none" x="69" y="159" width="88" height="69" xlink:href="img/1.png" />
<g fill="#000000" >
<use xlink:href="#f0_9" transform="matrix(12,0,0,12,47.4,268.9)" />
<use xlink:href="#f0_a" transform="matrix(12,0,0,12,66.5,268.9)" />
<use xlink:href="#f0_b" transform="matrix(12,0,0,12,77.5,268.9)" />
<use xlink:href="#f0_c" transform="matrix(12,0,0,12,86.5,268.9)" />
<use xlink:href="#f0_b" transform="matrix(12,0,0,12,95.1,268.9)" />
<use xlink:href="#f0_d" transform="matrix(12,0,0,12,104.1,268.9)" />
</g>
<image preserveAspectRatio="none" x="47" y="296" width="28" height="37" xlink:href="img/2.png" />
<g fill="#000000" >
<use xlink:href="#f0_f" transform="matrix(12,0,0,12,79.6,319.3)" />
<use xlink:href="#f0_g" transform="matrix(12,0,0,12,94.6,319.3)" />
<use xlink:href="#f0_h" transform="matrix(12,0,0,12,107.5,319.3)" />
<use xlink:href="#f0_i" transform="matrix(12,0,0,12,118.5,319.3)" />
<use xlink:href="#f0_j" transform="matrix(12,0,0,12,128.7,319.3)" />
<use xlink:href="#f0_k" transform="matrix(12,0,0,12,139.7,319.3)" />
<use xlink:href="#f0_l" transform="matrix(12,0,0,12,145.2,319.3)" />
<use xlink:href="#f0_c" transform="matrix(12,0,0,12,155.8,319.3)" />
<use xlink:href="#f0_m" transform="matrix(12,0,0,12,169.2,319.3)" />
<use xlink:href="#f0_c" transform="matrix(12,0,0,12,175,319.3)" />
<use xlink:href="#f0_b" transform="matrix(12,0,0,12,183.5,319.3)" />
<use xlink:href="#f0_n" transform="matrix(12,0,0,12,192.6,319.3)" />
<use xlink:href="#f0_j" transform="matrix(12,0,0,12,202.8,319.3)" />
<use xlink:href="#f0_b" transform="matrix(12,0,0,12,213.8,319.3)" />
<use xlink:href="#f0_h" transform="matrix(12,0,0,12,222.8,319.3)" />
<use xlink:href="#f0_o" transform="matrix(12,0,0,12,233.8,319.3)" />
<use xlink:href="#f0_p" transform="matrix(12,0,0,12,242.7,319.3)" />
<use xlink:href="#f0_m" transform="matrix(12,0,0,12,257.1,319.3)" />
<use xlink:href="#f0_q" transform="matrix(12,0,0,12,263,319.3)" />
<use xlink:href="#f0_c" transform="matrix(12,0,0,12,273.5,319.3)" />
<use xlink:href="#f0_o" transform="matrix(12,0,0,12,286.8,319.3)" />
<use xlink:href="#f0_l" transform="matrix(12,0,0,12,295.7,319.3)" />
<use xlink:href="#f0_r" transform="matrix(12,0,0,12,306.3,319.3)" />
<use xlink:href="#f0_l" transform="matrix(12,0,0,12,316.9,319.3)" />
<use xlink:href="#f0_o" transform="matrix(12,0,0,12,327.5,319.3)" />
<use xlink:href="#f0_s" transform="matrix(12,0,0,12,336.4,319.3)" />
<use xlink:href="#f0_t" transform="matrix(12,0,0,12,342,319.3)" />
<use xlink:href="#f0_q" transform="matrix(12,0,0,12,348.7,319.3)" />
<use xlink:href="#f0_c" transform="matrix(12,0,0,12,359.2,319.3)" />
<use xlink:href="#f0_6" transform="matrix(12,0,0,12,372.5,319.3)" />
<use xlink:href="#f0_8" transform="matrix(12,0,0,12,384,319.3)" />
</g>
<image preserveAspectRatio="none" x="47" y="351" width="300" height="39" xlink:href="img/3.png" />
<image preserveAspectRatio="none" x="47" y="408" width="352" height="66" xlink:href="img/4.png" />
<image preserveAspectRatio="none" x="47" y="492" width="289" height="37" xlink:href="img/5.png" />
<g fill="#000000" >
<use xlink:href="#f0_6" transform="matrix(12,0,0,12,47.4,569.9)" />
<use xlink:href="#f0_l" transform="matrix(12,0,0,12,58.8,569.9)" />
<use xlink:href="#f0_r" transform="matrix(12,0,0,12,69.4,569.9)" />
<use xlink:href="#f0_l" transform="matrix(12,0,0,12,80,569.9)" />
<use xlink:href="#f0_o" transform="matrix(12,0,0,12,90.6,569.9)" />
<use xlink:href="#f0_s" transform="matrix(12,0,0,12,99.5,569.9)" />
<use xlink:href="#f0_t" transform="matrix(12,0,0,12,105.1,569.9)" />
<use xlink:href="#f0_l" transform="matrix(12,0,0,12,111.8,569.9)" />
<use xlink:href="#f0_h" transform="matrix(12,0,0,12,122.4,569.9)" />
<use xlink:href="#f0_o" transform="matrix(12,0,0,12,133.4,569.9)" />
<use xlink:href="#f0_b" transform="matrix(12,0,0,12,142.3,569.9)" />
<use xlink:href="#f0_q" transform="matrix(12,0,0,12,156.1,569.9)" />
<use xlink:href="#f0_m" transform="matrix(12,0,0,12,166.6,569.9)" />
<use xlink:href="#f0_u" transform="matrix(12,0,0,12,177.2,569.9)" />
<use xlink:href="#f0_l" transform="matrix(12,0,0,12,187,569.9)" />
<use xlink:href="#f0_c" transform="matrix(12,0,0,12,197.6,569.9)" />
<use xlink:href="#f0_s" transform="matrix(12,0,0,12,206.2,569.9)" />
<use xlink:href="#f0_l" transform="matrix(12,0,0,12,211.8,569.9)" />
<use xlink:href="#f0_v" transform="matrix(12,0,0,12,222.4,569.9)" />
<use xlink:href="#f0_k" transform="matrix(12,0,0,12,232.7,569.9)" />
<use xlink:href="#f0_b" transform="matrix(12,0,0,12,238.2,569.9)" />
<use xlink:href="#f0_o" transform="matrix(12,0,0,12,252,569.9)" />
<use xlink:href="#f0_l" transform="matrix(12,0,0,12,260.9,569.9)" />
<use xlink:href="#f0_r" transform="matrix(12,0,0,12,271.5,569.9)" />
<use xlink:href="#f0_l" transform="matrix(12,0,0,12,282.1,569.9)" />
<use xlink:href="#f0_o" transform="matrix(12,0,0,12,292.7,569.9)" />
<use xlink:href="#f0_s" transform="matrix(12,0,0,12,301.6,569.9)" />
<use xlink:href="#f0_t" transform="matrix(12,0,0,12,307.1,569.9)" />
<use xlink:href="#f0_q" transform="matrix(12,0,0,12,313.9,569.9)" />
<use xlink:href="#f0_c" transform="matrix(12,0,0,12,324.4,569.9)" />
<use xlink:href="#f0_m" transform="matrix(12,0,0,12,337.7,569.9)" />
<use xlink:href="#f0_q" transform="matrix(12,0,0,12,343.5,569.9)" />
<use xlink:href="#f0_c" transform="matrix(12,0,0,12,354.1,569.9)" />
</g>
<image preserveAspectRatio="none" x="362" y="547" width="23" height="37" xlink:href="img/6.png" />
<g fill="#000000" >
<use xlink:href="#f0_d" transform="matrix(12,0,0,12,390.3,569.9)" />
<use xlink:href="#f0_6" transform="matrix(12,0,0,12,47.4,641.7)" />
<use xlink:href="#f0_w" transform="matrix(12,0,0,12,58.8,641.7)" />
</g>
<image preserveAspectRatio="none" x="73" y="602" width="89" height="69" xlink:href="img/7.png" />
<g fill="#000000" >
<use xlink:href="#f0_9" transform="matrix(12,0,0,12,47.4,711.9)" />
<use xlink:href="#f0_a" transform="matrix(12,0,0,12,66.5,711.9)" />
<use xlink:href="#f0_b" transform="matrix(12,0,0,12,77.5,711.9)" />
<use xlink:href="#f0_c" transform="matrix(12,0,0,12,86.5,711.9)" />
<use xlink:href="#f0_b" transform="matrix(12,0,0,12,95.1,711.9)" />
<use xlink:href="#f0_d" transform="matrix(12,0,0,12,104.1,711.9)" />
</g>
<image preserveAspectRatio="none" x="47" y="739" width="31" height="37" xlink:href="img/8.png" />
<g fill="#000000" >
<use xlink:href="#f0_f" transform="matrix(12,0,0,12,82.7,762.4)" />
<use xlink:href="#f0_g" transform="matrix(12,0,0,12,97.7,762.4)" />
<use xlink:href="#f0_h" transform="matrix(12,0,0,12,110.6,762.4)" />
<use xlink:href="#f0_i" transform="matrix(12,0,0,12,121.6,762.4)" />
<use xlink:href="#f0_j" transform="matrix(12,0,0,12,131.7,762.4)" />
<use xlink:href="#f0_k" transform="matrix(12,0,0,12,142.7,762.4)" />
<use xlink:href="#f0_l" transform="matrix(12,0,0,12,148.3,762.4)" />
<use xlink:href="#f0_c" transform="matrix(12,0,0,12,158.9,762.4)" />
<use xlink:href="#f0_m" transform="matrix(12,0,0,12,172.2,762.4)" />
<use xlink:href="#f0_c" transform="matrix(12,0,0,12,178,762.4)" />
<use xlink:href="#f0_b" transform="matrix(12,0,0,12,186.6,762.4)" />
<use xlink:href="#f0_n" transform="matrix(12,0,0,12,195.6,762.4)" />
<use xlink:href="#f0_j" transform="matrix(12,0,0,12,205.9,762.4)" />
<use xlink:href="#f0_b" transform="matrix(12,0,0,12,216.9,762.4)" />
<use xlink:href="#f0_h" transform="matrix(12,0,0,12,225.9,762.4)" />
<use xlink:href="#f0_o" transform="matrix(12,0,0,12,236.9,762.4)" />
<use xlink:href="#f0_p" transform="matrix(12,0,0,12,245.8,762.4)" />
<use xlink:href="#f0_m" transform="matrix(12,0,0,12,260.2,762.4)" />
<use xlink:href="#f0_q" transform="matrix(12,0,0,12,266,762.4)" />
<use xlink:href="#f0_c" transform="matrix(12,0,0,12,276.6,762.4)" />
<use xlink:href="#f0_o" transform="matrix(12,0,0,12,289.9,762.4)" />
<use xlink:href="#f0_l" transform="matrix(12,0,0,12,298.8,762.4)" />
<use xlink:href="#f0_r" transform="matrix(12,0,0,12,309.4,762.4)" />
<use xlink:href="#f0_l" transform="matrix(12,0,0,12,320,762.4)" />
<use xlink:href="#f0_o" transform="matrix(12,0,0,12,330.5,762.4)" />
<use xlink:href="#f0_s" transform="matrix(12,0,0,12,339.5,762.4)" />
<use xlink:href="#f0_t" transform="matrix(12,0,0,12,345,762.4)" />
<use xlink:href="#f0_q" transform="matrix(12,0,0,12,351.7,762.4)" />
<use xlink:href="#f0_c" transform="matrix(12,0,0,12,362.3,762.4)" />
</g>
<image preserveAspectRatio="none" x="376" y="739" width="30" height="37" xlink:href="img/9.png" />
<image preserveAspectRatio="none" x="47" y="794" width="320" height="39" xlink:href="img/10.png" />
<image preserveAspectRatio="none" x="47" y="851" width="379" height="69" xlink:href="img/11.png" />
<image preserveAspectRatio="none" x="47" y="938" width="112" height="35" xlink:href="img/12.png" />
<g fill="#000000" >
<use xlink:href="#f0_x" transform="matrix(12,0,0,12,158.9,961)" />
<use xlink:href="#f0_y" transform="matrix(12,0,0,12,47.4,1014.4)" />
<use xlink:href="#f0_b" transform="matrix(12,0,0,12,61.9,1014.4)" />
<use xlink:href="#f0_h" transform="matrix(12,0,0,12,70.9,1014.4)" />
<use xlink:href="#f0_o" transform="matrix(12,0,0,12,81.9,1014.4)" />
<use xlink:href="#f0_b" transform="matrix(12,0,0,12,90.8,1014.4)" />
<use xlink:href="#f0_d" transform="matrix(12,0,0,12,99.8,1014.4)" />
<use xlink:href="#f0_t" transform="matrix(12,0,0,12,109.2,1014.4)" />
<use xlink:href="#f0_a" transform="matrix(12,0,0,12,115.9,1014.4)" />
<use xlink:href="#f0_b" transform="matrix(12,0,0,12,126.9,1014.4)" />
<use xlink:href="#f0_c" transform="matrix(12,0,0,12,140.7,1014.4)" />
<use xlink:href="#f0_l" transform="matrix(12,0,0,12,149.2,1014.4)" />
<use xlink:href="#f0_h" transform="matrix(12,0,0,12,159.8,1014.4)" />
<use xlink:href="#f0_i" transform="matrix(12,0,0,12,170.8,1014.4)" />
<use xlink:href="#f0_b" transform="matrix(12,0,0,12,181,1014.4)" />
<use xlink:href="#f0_q" transform="matrix(12,0,0,12,194.8,1014.4)" />
<use xlink:href="#f0_m" transform="matrix(12,0,0,12,205.3,1014.4)" />
<use xlink:href="#f0_t" transform="matrix(12,0,0,12,215.9,1014.4)" />
<use xlink:href="#f0_a" transform="matrix(12,0,0,12,222.6,1014.4)" />
<use xlink:href="#f0_b" transform="matrix(12,0,0,12,233.6,1014.4)" />
<use xlink:href="#f0_u" transform="matrix(12,0,0,12,247.4,1014.4)" />
<use xlink:href="#f0_l" transform="matrix(12,0,0,12,257.2,1014.4)" />
<use xlink:href="#f0_c" transform="matrix(12,0,0,12,267.8,1014.4)" />
<use xlink:href="#f0_s" transform="matrix(12,0,0,12,276.4,1014.4)" />
<use xlink:href="#f0_l" transform="matrix(12,0,0,12,281.9,1014.4)" />
<use xlink:href="#f0_v" transform="matrix(12,0,0,12,292.5,1014.4)" />
<use xlink:href="#f0_k" transform="matrix(12,0,0,12,302.8,1014.4)" />
<use xlink:href="#f0_b" transform="matrix(12,0,0,12,308.4,1014.4)" />
<use xlink:href="#f0_o" transform="matrix(12,0,0,12,322.2,1014.4)" />
<use xlink:href="#f0_l" transform="matrix(12,0,0,12,331.1,1014.4)" />
<use xlink:href="#f0_r" transform="matrix(12,0,0,12,341.7,1014.4)" />
<use xlink:href="#f0_l" transform="matrix(12,0,0,12,352.2,1014.4)" />
<use xlink:href="#f0_o" transform="matrix(12,0,0,12,362.8,1014.4)" />
<use xlink:href="#f0_s" transform="matrix(12,0,0,12,371.8,1014.4)" />
<use xlink:href="#f0_t" transform="matrix(12,0,0,12,377.3,1014.4)" />
<use xlink:href="#f0_q" transform="matrix(12,0,0,12,384,1014.4)" />
<use xlink:href="#f0_c" transform="matrix(12,0,0,12,394.6,1014.4)" />
<use xlink:href="#f0_s" transform="matrix(12,0,0,12,407.9,1014.4)" />
<use xlink:href="#f0_x" transform="matrix(12,0,0,12,413.5,1014.4)" />
<use xlink:href="#f0_m" transform="matrix(12,0,0,12,426.7,1014.4)" />
<use xlink:href="#f0_c" transform="matrix(12,0,0,12,432.5,1014.4)" />
<use xlink:href="#f0_q" transform="matrix(12,0,0,12,441.1,1014.4)" />
<use xlink:href="#f0_z" transform="matrix(12,0,0,12,451.6,1014.4)" />
<use xlink:href="#f0_10" transform="matrix(12,0,0,12,472.8,1014.4)" />
<use xlink:href="#f0_10" transform="matrix(12,0,0,12,483,1014.4)" />
<use xlink:href="#f0_11" transform="matrix(12,0,0,12,493.3,1014.4)" />
<use xlink:href="#f0_12" transform="matrix(12,0,0,12,498.5,1014.4)" />
<use xlink:href="#f0_13" transform="matrix(12,0,0,12,508.8,1014.4)" />
<use xlink:href="#f0_r" transform="matrix(12,0,0,12,523.7,1014.4)" />
<use xlink:href="#f0_14" transform="matrix(12,0,0,12,534.3,1014.4)" />
<use xlink:href="#f0_t" transform="matrix(12,0,0,12,549.9,1014.4)" />
<use xlink:href="#f0_q" transform="matrix(12,0,0,12,556.6,1014.4)" />
<use xlink:href="#f0_8" transform="matrix(12,0,0,12,571.9,1014.4)" />
<use xlink:href="#f0_15" transform="matrix(12,0,0,12,582.1,1014.4)" />
<use xlink:href="#f0_10" transform="matrix(12,0,0,12,592.4,1014.4)" />
<use xlink:href="#f0_11" transform="matrix(12,0,0,12,602.6,1014.4)" />
<use xlink:href="#f0_8" transform="matrix(12,0,0,12,607.8,1014.4)" />
<use xlink:href="#f0_r" transform="matrix(12,0,0,12,622.8,1014.4)" />
<use xlink:href="#f0_14" transform="matrix(12,0,0,12,633.4,1014.4)" />
<use xlink:href="#f0_11" transform="matrix(12,0,0,12,644.2,1014.4)" />
<use xlink:href="#f1_l" transform="matrix(8,0,0,8,785.4,1275.3)" />
<use xlink:href="#f1_s" transform="matrix(8,0,0,8,792.2,1275.3)" />
</g>
<defs>
<path d="M501,-14c0,0,-200,0,-310,106C191,92,79,198,79,394c0,0,0,289,181,501c0,0,179,211,449,211c0,0,132,0,208,-45c0,0,74,-46,74,-125c0,0,0,-55,-41,-86c0,0,-40,-32,-106,-32c-1,0,-2,0,-3,0c0,0,0,206,-152,207c0,0,-189,-1,-315,-205C374,820,246,614,246,370c0,0,-1,-286,272,-286c0,0,176,0,282,139c0,0,21,-15,21,-51c0,0,0,-73,-85,-129c0,0,-86,-57,-235,-57Z" 
id="f0_6"
transform="scale(0.001,-0.001)" />

<path d="M58,0L70,64h81c0,0,1,0,1,0c7,0,73,1,105,28c0,0,32,27,44,82L420,736c0,0,25,122,57,240h-6c0,0,-97,-95,-144,-126c0,0,-45,-32,-85,-32q-1,0,-2,0c0,0,-62,0,-61,82c0,0,104,24,250,118l124,79h97L454,168c0,0,-6,-28,-6,-43c0,0,-1,-61,108,-61q1,0,2,0h82L627,0Z" 
id="f0_8"
transform="scale(0.001,-0.001)" />

<path d="M327,0L248,946c0,0,-4,41,-23,61c0,0,-19,19,-69,19H136l14,65H565l-14,-65H516c0,0,-109,0,-109,-77c0,0,-1,-31,3,-52L446,408c0,0,10,-140,11,-258c0,0,63,150,125,274l321,656h110l50,-661c0,0,11,-150,8,-269c0,0,67,155,114,251l244,485c0,0,29,58,29,86c0,0,0,54,-86,54h-37l12,65h373l-13,-65h-29c0,0,-50,0,-77,-23c0,0,-28,-25,-64,-95L1086,0H946L877,847L466,0Z" 
id="f0_9"
transform="scale(0.001,-0.001)" />

<path d="M702,-14c-4,0,-65,1,-100,40c0,0,-38,40,-38,111c0,0,0,70,29,207l35,158c0,0,22,92,22,143c0,0,0,90,-70,90c0,0,-85,-1,-174,-116c0,0,-91,-116,-114,-228L210,0H67L266,944c0,0,14,68,14,81c0,0,0,72,-108,72H160l14,64H455L395,880c0,0,-26,-125,-60,-253h16c0,0,126,206,283,206c0,0,163,-1,163,-170c0,0,0,-48,-27,-168L730,315c0,0,-20,-93,-20,-161c0,0,0,-73,54,-73c0,0,43,0,98,35L889,72c0,0,-100,-86,-186,-86h-1Z" 
id="f0_a"
transform="scale(0.001,-0.001)" />

<path d="M257,423c6,0,136,1,223,66c0,0,87,65,87,170c0,0,-1,101,-89,102c0,0,-74,0,-138,-93c0,0,-64,-93,-98,-245h15ZM363,-14c0,0,-134,0,-215,83c0,0,-82,84,-82,232c0,0,0,200,129,367c0,0,128,166,326,166c0,0,97,-1,150,-46c0,0,53,-46,53,-129c0,0,0,-125,-128,-216c0,0,-129,-92,-315,-92H255c0,0,-13,0,-27,2c0,0,-4,-22,-3,-64c0,0,0,-208,167,-208c0,0,131,0,220,110c0,0,16,-10,16,-38c0,0,0,-62,-71,-114c0,0,-74,-53,-194,-53Z" 
id="f0_b"
transform="scale(0.001,-0.001)" />

<path d="M67,0L195,614c0,0,9,42,9,69c0,0,0,72,-121,72H70l14,64H354L322,599h16c0,0,61,137,121,186c0,0,59,49,139,49c0,0,125,0,125,-105c0,0,-1,-117,-127,-117c0,0,0,121,-61,121c0,0,-71,0,-150,-139c0,0,-80,-140,-118,-316L210,0Z" 
id="f0_c"
transform="scale(0.001,-0.001)" />

<path d="M-42,-222l6,64c0,0,155,34,155,128c0,0,0,27,-49,58c0,0,-51,31,-50,77c0,0,0,41,26,66c0,0,26,24,69,24c0,0,51,0,85,-33c0,0,33,-35,33,-92c0,0,0,-111,-70,-188c0,0,-71,-77,-205,-104Z" 
id="f0_d"
transform="scale(0.001,-0.001)" />

<path d="M112,350v90H767V350Zm0,300v91H767V650Z" 
id="f0_f"
transform="scale(0.001,-0.001)" />

<path d="M695,442L657,709c0,0,-24,162,-24,241c0,0,-36,-83,-120,-227L350,442ZM-85,0l13,64h29c0,0,40,0,68,22c0,0,26,20,73,98l532,907H749L894,145c0,0,6,-48,26,-64c0,0,18,-17,64,-17h20L991,0H576l12,64h36c0,0,109,0,109,78c0,0,0,30,-3,52L706,365H304L213,204c0,0,-29,-50,-29,-85c0,0,0,-55,85,-55h35L292,0Z" 
id="f0_g"
transform="scale(0.001,-0.001)" />

<path d="M702,-14c-4,0,-65,1,-100,40c0,0,-38,40,-38,111c0,0,0,70,29,207l35,158c0,0,22,92,22,143c0,0,0,90,-70,90c0,0,-85,0,-173,-115c0,0,-90,-116,-115,-229L210,0H67L195,614c0,0,9,42,9,69c0,0,0,72,-106,72H86l13,64H382L341,627h15c0,0,124,206,278,206c0,0,163,-1,163,-170c0,0,0,-48,-27,-168L730,315c0,0,-20,-93,-20,-161c0,0,0,-73,54,-73c0,0,43,0,98,35L889,72c0,0,-100,-86,-186,-86h-1Z" 
id="f0_h"
transform="scale(0.001,-0.001)" />

<path d="M284,-291q1,0,2,0c7,0,136,1,205,50c0,0,70,50,70,134c0,0,-1,99,-142,111L270,19c0,0,-11,0,-66,-16c0,0,-56,-15,-94,-57c0,0,-40,-43,-40,-104c0,0,-1,-133,214,-133ZM407,362c0,0,87,0,141,87c0,0,52,86,53,190c0,0,0,125,-106,125c0,0,-89,0,-141,-87c0,0,-53,-89,-53,-190c0,0,-1,-125,106,-125ZM280,-366c0,0,-333,0,-333,199c0,0,0,81,66,140c0,0,66,56,182,79c0,0,-73,36,-73,105c0,0,0,47,31,80c0,0,30,32,114,76c0,0,-107,50,-107,181c0,0,0,128,98,235c0,0,96,105,257,105c0,0,97,-1,157,-48c0,0,72,108,165,108c0,0,77,0,77,-70c0,0,0,-95,-89,-95q-1,0,-1,0c0,0,0,54,-43,55c0,0,-31,-1,-75,-35c0,0,33,-49,33,-118c0,0,0,-129,-96,-235c0,0,-96,-107,-254,-107c0,0,-2,0,-7,0c-11,0,-31,0,-41,3c0,0,-109,-44,-109,-97c0,0,0,-38,78,-45L457,134c0,0,237,-26,237,-199c0,0,0,-142,-108,-221c0,0,-107,-80,-306,-80Z" 
id="f0_i"
transform="scale(0.001,-0.001)" />

<path d="M697,-14c-4,0,-60,1,-93,40c0,0,-36,41,-36,104c0,0,0,39,8,90H564C564,220,481,83,416,35c0,0,-66,-47,-147,-47c0,0,-164,0,-164,168c0,0,-1,48,28,168l59,268c0,0,14,60,14,91c0,0,-1,72,-107,72H87l14,64H385L284,362c0,0,-30,-139,-30,-184c0,0,-1,-94,74,-94c0,0,79,0,170,114c0,0,89,112,117,241l80,380H843L738,328c0,0,-24,-109,-23,-169c0,0,0,-78,50,-78c0,0,43,0,98,34L891,70c0,0,-98,-84,-194,-84Z" 
id="f0_j"
transform="scale(0.001,-0.001)" />

<path d="M238,-14c0,0,-56,0,-90,39c0,0,-36,41,-36,105c0,0,0,72,33,240L270,956c0,0,10,45,10,69c0,0,0,72,-108,72H154l14,64H457L280,328c0,0,-24,-109,-23,-169c0,0,0,-78,50,-78c0,0,44,0,110,40L445,76c0,0,-107,-90,-207,-90Z" 
id="f0_k"
transform="scale(0.001,-0.001)" />

<path d="M318,81c2,0,76,1,159,113c0,0,84,113,111,246l57,270c0,0,-36,55,-116,55c0,0,-131,0,-219,-165c0,0,-88,-167,-88,-342c0,0,0,-177,96,-177ZM263,-14c0,0,-94,0,-145,73c0,0,-53,72,-52,205c0,0,0,210,131,390c0,0,130,180,324,180c0,0,103,-1,179,-55l67,39h49L712,328c0,0,-23,-106,-23,-169c0,0,0,-78,50,-78c0,0,44,0,111,40L877,76c0,0,-109,-90,-215,-90c0,0,-120,0,-120,126c0,0,0,48,16,119H548C548,231,438,-14,263,-14Z" 
id="f0_l"
transform="scale(0.001,-0.001)" />

<path d="M-123,-366c0,0,-1,0,-1,0c0,0,-44,0,-89,13l14,70c0,0,37,-11,70,-11c4,0,75,1,117,64c0,0,41,63,75,218L223,732H84l9,55l147,32l17,84c0,0,53,273,290,273c0,0,97,0,148,-30c0,0,49,-32,49,-83c0,0,-1,-99,-126,-99c0,0,-1,0,-1,0c0,0,-1,142,-78,142c0,0,-56,0,-86,-46c0,0,-32,-46,-49,-143L383,819H553L536,732H365L206,-11c0,0,-40,-185,-116,-269c0,0,-75,-86,-213,-86Z" 
id="f0_m"
transform="scale(0.001,-0.001)" />

<path d="M317,81c0,0,1,0,1,0c0,0,74,0,158,111c0,0,83,110,112,248l57,270c0,0,-35,55,-116,55c0,0,-132,0,-219,-168c0,0,-89,-170,-88,-340c0,0,0,-176,95,-176ZM426,-366l64,306c0,0,5,28,68,291H548C548,231,437,-14,263,-14c0,0,-94,0,-145,73c0,0,-53,72,-52,205c0,0,0,210,131,390c0,0,130,180,324,180c0,0,94,0,170,-41l37,21c0,0,35,20,39,20h54L609,-161c0,0,-8,-43,-8,-68c0,0,0,-73,103,-73q1,0,2,0h12l-14,-64Z" 
id="f0_n"
transform="scale(0.001,-0.001)" />

<path d="M363,-14c0,0,-134,0,-215,83c0,0,-82,84,-82,232c0,0,0,200,129,367c0,0,128,166,326,166c0,0,104,-1,164,-42c0,0,59,-42,59,-104c0,0,0,-47,-37,-77c0,0,-38,-31,-99,-31c0,0,0,81,-31,132c0,0,-32,49,-87,49c0,0,-107,0,-186,-160c0,0,-79,-160,-79,-312c0,0,0,-208,167,-208c0,0,133,0,220,110c0,0,16,-10,16,-38c0,0,0,-62,-71,-114c0,0,-74,-53,-194,-53Z" 
id="f0_o"
transform="scale(0.001,-0.001)" />

<path d="M-103,-366c-8,0,-83,1,-144,28l23,76c0,0,53,-17,120,-17c2,0,218,1,428,279L122,674c0,0,-13,44,-36,63c0,0,-24,18,-69,18H1l12,64H236L356,407c0,0,54,-192,64,-277h4c0,0,207,313,207,507c0,0,-1,83,-75,83c0,0,-1,51,30,82c0,0,29,30,70,31c0,0,103,0,103,-129c0,0,0,-185,-205,-518c0,0,-206,-333,-330,-442c0,0,-126,-110,-327,-110Z" 
id="f0_p"
transform="scale(0.001,-0.001)" />

<path d="M376,60c0,0,126,0,201,150c0,0,75,148,75,331c0,0,-1,212,-149,212c0,0,-125,0,-202,-149c0,0,-77,-150,-76,-334c0,0,0,-210,151,-210ZM359,-14c-5,0,-140,1,-216,83c0,0,-77,82,-77,232c0,0,-1,205,126,370c0,0,125,163,329,163c0,0,135,0,212,-81c0,0,77,-82,78,-235c0,0,-1,-204,-125,-368C686,150,561,-14,359,-14Z" 
id="f0_q"
transform="scale(0.001,-0.001)" />

<path d="M354,54q1,0,2,0c0,0,127,0,216,167c0,0,88,166,88,338c0,0,0,178,-96,179c0,0,-80,0,-160,-110c0,0,-81,-111,-106,-229L235,108c0,0,49,-54,119,-54ZM-9,-366L192,602c0,0,14,63,14,81c0,0,-1,72,-107,72H87l14,64H371L335,615h7c0,0,111,218,280,219c0,0,93,-1,144,-71c0,0,50,-71,50,-205c0,0,0,-205,-127,-389C689,169,560,-14,361,-14h-1c0,0,-88,0,-149,34c0,0,-7,-48,-13,-73l-20,-93c0,0,-15,-64,-15,-85c0,0,0,-71,107,-71h20l-13,-64Z" 
id="f0_r"
transform="scale(0.001,-0.001)" />

<path d="M236,-14c-3,0,-58,1,-91,40c0,0,-35,41,-35,104c0,0,-1,68,34,240l59,280c0,0,5,25,5,41c0,0,-1,63,-93,64H95l13,64H382L278,328c0,0,-24,-110,-23,-169c0,0,0,-78,51,-78c0,0,43,0,110,40L443,76c0,0,-107,-90,-207,-90ZM344,972q-1,0,-2,0c-3,0,-86,1,-85,84c0,0,-1,47,25,78c0,0,25,29,66,29c0,0,86,-1,86,-84c0,0,0,-53,-25,-79c0,0,-26,-28,-65,-28Z" 
id="f0_s"
transform="scale(0.001,-0.001)" />

<path d="M280,-14c0,0,-167,0,-167,177c0,0,0,57,15,129l94,440H105l14,61c0,0,149,0,234,214h70L383,819H568L550,732H365L272,296c0,0,-19,-89,-18,-131c0,0,-1,-84,80,-84c0,0,1,0,1,0c0,0,61,0,125,34L486,58c0,0,-103,-72,-206,-72Z" 
id="f0_t"
transform="scale(0.001,-0.001)" />

<path d="M254,-12L147,674c0,0,-13,81,-106,81H26l12,64H267L338,367c0,0,27,-174,35,-271h4c0,0,114,110,198,257c0,0,84,146,84,235c0,0,-1,54,-26,85c0,0,-27,31,-69,31c0,0,-1,55,30,89c0,0,30,34,74,34c0,0,103,0,103,-142c0,0,0,-139,-105,-325C666,360,559,173,391,1L254,-12Z" 
id="f0_u"
transform="scale(0.001,-0.001)" />

<path d="M330,54c0,0,1,0,1,0c0,0,133,0,220,169c0,0,85,169,86,336c0,0,0,178,-96,179c0,0,-84,-1,-163,-116c0,0,-80,-116,-100,-211L213,108c0,0,45,-54,117,-54Zm8,-68c-6,0,-112,1,-179,54L90,-3H41L243,944c0,0,14,63,14,81c0,0,-1,72,-107,72H137l14,64H440L367,818c0,0,-16,-74,-55,-203h7c0,0,113,218,280,219c0,0,90,0,143,-70c0,0,51,-71,51,-206c0,0,-1,-213,-131,-392C662,166,530,-14,338,-14Z" 
id="f0_v"
transform="scale(0.001,-0.001)" />

<path d="M-25,0L6,124L365,448c0,0,142,128,200,222c0,0,56,94,57,206c0,0,0,70,-38,112c0,0,-38,41,-103,41c0,0,-176,0,-217,-230c0,0,-109,0,-108,98c0,0,-1,85,92,147c0,0,91,62,241,62c0,0,137,0,213,-58c0,0,75,-59,75,-165c0,0,0,-91,-65,-187c0,0,-64,-98,-252,-265L116,122H471c6,0,52,1,86,23c0,0,34,23,65,91l11,25h64L636,0Z" 
id="f0_w"
transform="scale(0.001,-0.001)" />

<path d="M290,-14c0,0,-115,0,-183,46c0,0,-69,46,-69,125c0,0,-1,50,28,76c0,0,27,25,68,25c0,0,0,-95,47,-147c0,0,45,-53,128,-53c3,0,164,1,165,142c0,0,-1,54,-35,92c0,0,-36,37,-120,77c0,0,-110,52,-147,108c0,0,-38,54,-38,128c0,0,0,99,82,164c0,0,82,64,213,64c0,0,112,-1,176,-42c0,0,63,-42,63,-103c0,0,0,-95,-114,-95c0,0,-1,0,-1,0c0,0,0,77,-36,123c0,0,-37,46,-101,46c0,0,-70,0,-109,-36c0,0,-40,-38,-40,-95c0,0,0,-51,38,-86c0,0,38,-37,118,-71c0,0,183,-82,183,-238c0,0,0,-113,-86,-182c0,0,-87,-68,-230,-68Z" 
id="f0_x"
transform="scale(0.001,-0.001)" />

<path d="M-31,0l12,64H0c0,0,73,0,106,29c0,0,31,27,44,81L309,923c0,0,5,27,6,42c0,0,0,61,-111,61H185l13,65H643l-13,-65H609c0,0,-73,0,-105,-27c0,0,-33,-28,-43,-82L395,608H892l67,315c0,0,6,27,6,42c0,0,0,61,-109,61H836l14,65h444l-14,-65h-19c0,0,-73,0,-105,-27c0,0,-33,-28,-44,-82L953,168c0,0,-6,-28,-6,-43c0,0,0,-61,108,-61q1,0,2,0h20L1063,0H618l13,64h19c0,0,1,0,1,0c7,0,74,1,105,28c0,0,33,27,44,82l76,358H379L303,168c0,0,-7,-33,-7,-43c0,0,-1,-61,109,-61c0,0,1,0,2,0h19L413,0Z" 
id="f0_y"
transform="scale(0.001,-0.001)" />

<path d="M1156,-14c-4,0,-64,1,-100,40c0,0,-38,40,-38,111c0,0,0,70,29,207l26,119c0,0,32,146,32,182c0,0,-1,90,-71,90c0,0,-78,-1,-162,-100c0,0,-84,-101,-117,-211L730,315c0,0,-10,-42,-27,-164C703,151,686,29,686,0H541c0,0,0,34,19,159c0,0,19,123,33,185l35,158c0,0,22,92,22,143c0,0,0,90,-70,90c0,0,-85,-1,-174,-116c0,0,-91,-116,-114,-228L210,0H67L195,614c0,0,9,42,9,69c0,0,0,72,-106,72H86l13,64H382L341,627h15c0,0,124,206,278,206c0,0,163,-1,163,-170c0,0,0,-19,-3,-36h15c0,0,124,206,279,206c0,0,163,-1,163,-170c0,0,0,-48,-28,-168L1184,315c0,0,-20,-89,-20,-161c0,0,0,-73,53,-73c0,0,44,0,98,35l28,-44c0,0,-98,-86,-187,-86Z" 
id="f0_z"
transform="scale(0.001,-0.001)" />

<path d="M357,60c0,0,1,0,2,0c5,0,108,0,173,56c0,0,66,56,66,156c0,0,-1,79,-51,136c0,0,-51,56,-159,110c0,0,-226,-83,-226,-273c0,0,0,-87,53,-135c0,0,51,-50,142,-50ZM475,618c0,0,202,86,203,254c0,0,-1,75,-42,116c0,0,-41,41,-115,41c0,0,-94,0,-150,-55c0,0,-57,-56,-56,-146c0,0,0,-124,160,-210ZM339,-14c0,0,-147,0,-235,72c0,0,-89,73,-89,190c0,0,0,106,67,177c0,0,66,71,236,133c0,0,-150,107,-150,253c0,0,-1,139,95,218c0,0,94,77,270,77c0,0,130,0,206,-61c0,0,75,-63,76,-162c0,0,-1,-99,-60,-169c0,0,-60,-72,-207,-132c0,0,194,-114,194,-273c0,0,0,-156,-108,-240c0,0,-109,-83,-295,-83Z" 
id="f0_10"
transform="scale(0.001,-0.001)" />

<path d="M163,-11c0,0,-1,0,-1,0c0,0,-96,0,-95,92c0,0,-1,53,28,85c0,0,27,32,73,32c0,0,95,0,95,-93c0,0,0,-54,-27,-85c0,0,-28,-31,-73,-31Z" 
id="f0_11"
transform="scale(0.001,-0.001)" />

<path d="M369,67c0,0,132,0,213,221c0,0,79,220,80,499c0,0,0,238,-158,238c0,0,-133,0,-214,-222c0,0,-80,-221,-80,-494c0,0,0,-242,159,-242ZM356,-16c0,0,-137,0,-216,97c0,0,-80,97,-79,272c0,0,0,294,127,524c0,0,126,231,331,231c0,0,134,0,213,-92c0,0,77,-92,77,-258c0,0,0,-295,-124,-534C685,224,560,-16,356,-16Z" 
id="f0_12"
transform="scale(0.001,-0.001)" />

<path d="M468,385l59,286c0,0,37,173,75,296c0,0,-64,-96,-134,-176L121,385ZM195,0l13,64h68c6,0,73,1,104,28c0,0,33,27,44,82l25,125H-21l15,63l624,729H765L614,385H803L786,299H596L570,168c0,0,-6,-31,-6,-43c0,0,0,-61,108,-61c0,0,1,0,2,0h35L695,0Z" 
id="f0_13"
transform="scale(0.001,-0.001)" />

<path d="M-31,0l12,64H0c0,0,72,0,103,25c0,0,31,24,45,77L309,923c0,0,5,27,6,42c0,0,0,61,-111,61H185l13,65H968L920,824H840l3,26c0,0,1,15,2,27c0,0,3,25,3,35c0,0,0,102,-115,103H483L388,573H756L741,498H373L304,174c0,0,-6,-25,-5,-38c0,0,-1,-72,106,-72h50L443,0Z" 
id="f0_14"
transform="scale(0.001,-0.001)" />

<path d="M408,504c0,0,122,0,220,130c0,0,23,99,24,181c0,0,0,206,-142,207c0,0,-100,0,-173,-107c0,0,-73,-109,-73,-246c0,0,0,-82,40,-123c0,0,38,-42,104,-42ZM267,-14c-4,0,-214,1,-213,136c0,0,0,38,24,64c0,0,23,25,66,25c0,0,2,-69,40,-110c0,0,35,-41,94,-41q1,0,2,0c0,0,106,0,182,109c0,0,74,107,142,355C604,524,504,420,371,420c0,0,-1,0,-1,0c0,0,-119,0,-188,69c0,0,-71,69,-70,185c0,0,0,186,118,309c0,0,117,123,285,123c0,0,128,0,204,-79c0,0,75,-80,75,-222c0,0,0,-295,-140,-557C654,248,514,-14,267,-14Z" 
id="f0_15"
transform="scale(0.001,-0.001)" />

<path d="M435,0V856c0,0,-48,-47,-127,-93c0,0,-79,-46,-142,-69V824c0,0,113,52,197,128c0,0,85,75,120,146h86V0Z" 
id="f1_l"
transform="scale(0.001,-0.001)" />

<path d="M423,92c0,0,97,0,159,62c0,0,62,62,62,157c0,0,0,97,-64,160c0,0,-64,64,-161,64c0,0,-96,0,-158,-63c0,0,-62,-62,-62,-156c0,0,0,-58,27,-111c0,0,27,-54,81,-84c0,0,54,-29,116,-29Zm0,552c0,0,78,0,127,49c0,0,49,49,49,120c0,0,0,74,-50,124c0,0,-51,51,-128,51c0,0,-77,0,-127,-50c0,0,-51,-49,-51,-118c0,0,0,-77,50,-126c0,0,50,-50,130,-50ZM422,-18c0,0,-162,0,-261,95c0,0,-99,96,-99,239c0,0,0,107,54,179c0,0,54,72,154,98c0,0,-84,31,-124,87c0,0,-40,57,-40,136c0,0,0,119,85,201c0,0,86,81,229,81c0,0,143,0,230,-83c0,0,87,-83,87,-203c0,0,0,-76,-40,-132c0,0,-39,-56,-121,-87c0,0,101,-33,154,-106c0,0,52,-73,52,-174c0,0,0,-141,-99,-236c0,0,-99,-95,-261,-95Z" 
id="f1_s"
transform="scale(0.001,-0.001)" />


</defs>
</svg>