<?xml version="1.0" encoding="UTF-8" standalone="no"?>
<!DOCTYPE svg PUBLIC "-//W3C//DTD SVG 1.1//EN"
"http://www.w3.org/Graphics/SVG/1.1/DTD/svg11.dtd">
<svg viewBox="0 0 909 1286" version="1.1" xmlns="http://www.w3.org/2000/svg" xmlns:xlink="http://www.w3.org/1999/xlink">
<defs>
<clipPath id="c0_170"><path d="M55,499.3V447.5H165.1v51.8Z" /></clipPath>
<clipPath id="c1_170"><path d="M55,552.6V500.7h80.8v51.9Z" /></clipPath>
<clipPath id="c2_170"><path d="M55,605.9V554h76v51.9Z" /></clipPath>
<clipPath id="c3_170"><path d="M182.8,919.1V867.2h57.3v51.9Z" /></clipPath>
<style type="text/css"><![CDATA[
.g0_170{
fill: #D9D9D9;
}
.g1_170{
fill: none;
stroke: #000000;
stroke-width: 0.7638889;
stroke-linecap: butt;
stroke-linejoin: miter;
}
.g2_170{
fill: none;
stroke: #000000;
stroke-width: 0.9028772;
stroke-linecap: butt;
stroke-linejoin: round;
}
.g3_170{
fill: none;
stroke: #000000;
stroke-width: 0.9132231;
stroke-linecap: butt;
stroke-linejoin: round;
}
.g4_170{
fill: none;
stroke: #000000;
stroke-width: 0.8919779;
stroke-linecap: butt;
stroke-linejoin: round;
}
.g5_170{
fill: none;
stroke: #000000;
stroke-width: 0.9161838;
stroke-linecap: butt;
stroke-linejoin: round;
}
.g6_170{
}
]]></style>
</defs>
<image preserveAspectRatio="none" x="748" y="1196" width="94" height="58" xlink:href="img/1.png" />
<image preserveAspectRatio="none" x="336" y="42" width="259" height="49" xlink:href="img/2.png" />
<image preserveAspectRatio="none" x="342" y="50" width="247" height="27" xlink:href="img/3.png" />
<image preserveAspectRatio="none" x="341" y="46" width="238" height="41" xlink:href="img/4.png" />
<g fill="#FFFFFF" >
<use xlink:href="#f0_j" transform="matrix(11.5,0,0,11.5,354.9,70)" />
<use xlink:href="#f0_i" transform="matrix(11.5,0,0,11.5,364.2,70)" />
<use xlink:href="#f0_2n" transform="matrix(11.5,0,0,11.5,374.1,70)" />
<use xlink:href="#f0_t" transform="matrix(11.5,0,0,11.5,382.4,70)" />
<use xlink:href="#f0_oj" transform="matrix(11.5,0,0,11.5,391,70)" />
<use xlink:href="#f0_3e" transform="matrix(11.5,0,0,11.5,396.3,70)" />
<use xlink:href="#f0_1c" transform="matrix(11.5,0,0,11.5,406,70)" />
<use xlink:href="#f0_1c" transform="matrix(11.5,0,0,11.5,410.7,70)" />
<use xlink:href="#f0_oj" transform="matrix(11.5,0,0,11.5,415.4,70)" />
<use xlink:href="#f0_rz" transform="matrix(11.5,0,0,11.5,420.8,70)" />
<use xlink:href="#f0_rx" transform="matrix(11.5,0,0,11.5,429.7,70)" />
<use xlink:href="#f0_ry" transform="matrix(11.5,0,0,11.5,438.6,70)" />
<use xlink:href="#f0_s0" transform="matrix(11.5,0,0,11.5,447.4,70)" />
<use xlink:href="#f0_t" transform="matrix(11.5,0,0,11.5,460.2,70)" />
<use xlink:href="#f0_3e" transform="matrix(11.5,0,0,11.5,468.8,70)" />
<use xlink:href="#f0_5" transform="matrix(11.5,0,0,11.5,478.5,70)" />
<use xlink:href="#f0_1x" transform="matrix(11.5,0,0,11.5,489.2,70)" />
<use xlink:href="#f0_1c" transform="matrix(11.5,0,0,11.5,504.6,70)" />
<use xlink:href="#f0_1y" transform="matrix(11.5,0,0,11.5,509.3,70)" />
<use xlink:href="#f0_5" transform="matrix(11.5,0,0,11.5,520.9,70)" />
<use xlink:href="#f0_2t" transform="matrix(11.5,0,0,11.5,531.5,70)" />
<use xlink:href="#f0_1c" transform="matrix(11.5,0,0,11.5,540.2,70)" />
<use xlink:href="#f0_24" transform="matrix(11.5,0,0,11.5,544.9,70)" />
<use xlink:href="#f0_1y" transform="matrix(11.5,0,0,11.5,556.8,70)" />
</g>
<image preserveAspectRatio="none" x="554" y="46" width="36" height="41" xlink:href="img/5.png" />
<g fill="#FFFFFF" >
<use xlink:href="#f1_p" transform="matrix(11,0,0,11,770.1,1227.7)" />
<use xlink:href="#f1_j" transform="matrix(11,0,0,11,783.5,1227.7)" />
<use xlink:href="#f1_l" transform="matrix(11,0,0,11,794.1,1227.7)" />
<use xlink:href="#f1_r" transform="matrix(11,0,0,11,803,1227.7)" />
</g>
<path fill-rule="evenodd" d="M52.7,1193.2H856.9v-.7H52.7v.7Z" class="g0_170" />
<path d="M37.9,99.4L873,98.5" class="g1_170" />
<g fill="#000000" >
<use xlink:href="#f2_1j" transform="matrix(12,0,0,12,55,282.9)" />
<use xlink:href="#f2_2b" transform="matrix(12,0,0,12,65.2,282.9)" />
<use xlink:href="#f2_28" transform="matrix(12,0,0,12,74.4,282.9)" />
<use xlink:href="#f2_2h" transform="matrix(12,0,0,12,79.5,282.9)" />
<use xlink:href="#f2_2g" transform="matrix(12,0,0,12,89.7,282.9)" />
<use xlink:href="#f2_25" transform="matrix(12,0,0,12,95.8,282.9)" />
<use xlink:href="#f2_2b" transform="matrix(12,0,0,12,100.9,282.9)" />
<use xlink:href="#f2_2a" transform="matrix(12,0,0,12,110.1,282.9)" />
<use xlink:href="#f2_u" transform="matrix(12,0,0,12,120.3,282.9)" />
<use xlink:href="#f3_19" transform="matrix(12,0,0,12,55,305.6)" />
<use xlink:href="#f3_2a" transform="matrix(12,0,0,12,61.1,305.6)" />
<use xlink:href="#f3_2g" transform="matrix(12,0,0,12,74.9,305.6)" />
<use xlink:href="#f3_24" transform="matrix(12,0,0,12,80,305.6)" />
<use xlink:href="#f3_21" transform="matrix(12,0,0,12,89.2,305.6)" />
<use xlink:href="#f3_23" transform="matrix(12,0,0,12,101.9,305.6)" />
<use xlink:href="#f3_25" transform="matrix(12,0,0,12,111,305.6)" />
<use xlink:href="#f3_2i" transform="matrix(12,0,0,12,116.1,305.6)" />
<use xlink:href="#f3_21" transform="matrix(12,0,0,12,125.3,305.6)" />
<use xlink:href="#f3_2a" transform="matrix(12,0,0,12,133.4,305.6)" />
<use xlink:href="#f3_1y" transform="matrix(12,0,0,12,147.1,305.6)" />
<use xlink:href="#f3_28" transform="matrix(12,0,0,12,156.3,305.6)" />
<use xlink:href="#f3_2b" transform="matrix(12,0,0,12,161.4,305.6)" />
<use xlink:href="#f3_1z" transform="matrix(12,0,0,12,170.6,305.6)" />
<use xlink:href="#f3_27" transform="matrix(12,0,0,12,178.7,305.6)" />
<use xlink:href="#f3_20" transform="matrix(12,0,0,12,192.5,305.6)" />
<use xlink:href="#f3_25" transform="matrix(12,0,0,12,201.6,305.6)" />
<use xlink:href="#f3_1x" transform="matrix(12,0,0,12,206.7,305.6)" />
<use xlink:href="#f3_23" transform="matrix(12,0,0,12,214.9,305.6)" />
<use xlink:href="#f3_2e" transform="matrix(12,0,0,12,224,305.6)" />
<use xlink:href="#f3_1x" transform="matrix(12,0,0,12,230.1,305.6)" />
<use xlink:href="#f3_29" transform="matrix(12,0,0,12,238.2,305.6)" />
<use xlink:href="#f3_g" transform="matrix(12,0,0,12,252.4,305.6)" />
<use xlink:href="#f3_1y" transform="matrix(12,0,0,12,261.6,305.6)" />
<use xlink:href="#f3_28" transform="matrix(12,0,0,12,270.7,305.6)" />
<use xlink:href="#f3_2b" transform="matrix(12,0,0,12,275.8,305.6)" />
<use xlink:href="#f3_1z" transform="matrix(12,0,0,12,285,305.6)" />
<use xlink:href="#f3_27" transform="matrix(12,0,0,12,293.2,305.6)" />
<use xlink:href="#f3_c" transform="matrix(12,0,0,12,306.9,305.6)" />
<use xlink:href="#f3_11" transform="matrix(12,0,0,12,313.1,305.6)" />
<use xlink:href="#f3_d" transform="matrix(12,0,0,12,326.3,305.6)" />
<use xlink:href="#f3_25" transform="matrix(12,0,0,12,337,305.6)" />
<use xlink:href="#f3_2f" transform="matrix(12,0,0,12,342.1,305.6)" />
<use xlink:href="#f3_29" transform="matrix(12,0,0,12,353.8,305.6)" />
<use xlink:href="#f3_2b" transform="matrix(12,0,0,12,368,305.6)" />
<use xlink:href="#f3_20" transform="matrix(12,0,0,12,377.2,305.6)" />
<use xlink:href="#f3_2h" transform="matrix(12,0,0,12,386.3,305.6)" />
<use xlink:href="#f3_28" transform="matrix(12,0,0,12,395.5,305.6)" />
<use xlink:href="#f3_1x" transform="matrix(12,0,0,12,400.6,305.6)" />
<use xlink:href="#f3_2g" transform="matrix(12,0,0,12,408.7,305.6)" />
<use xlink:href="#f3_2b" transform="matrix(12,0,0,12,413.8,305.6)" />
<use xlink:href="#f3_2e" transform="matrix(12,0,0,12,423,305.6)" />
<use xlink:href="#f3_1x" transform="matrix(12,0,0,12,433.7,305.6)" />
<use xlink:href="#f3_2a" transform="matrix(12,0,0,12,441.9,305.6)" />
<use xlink:href="#f3_20" transform="matrix(12,0,0,12,451,305.6)" />
<use xlink:href="#f3_12" transform="matrix(12,0,0,12,464.8,305.6)" />
<use xlink:href="#f3_28" transform="matrix(12,0,0,12,477,305.6)" />
<use xlink:href="#f3_2b" transform="matrix(12,0,0,12,482.1,305.6)" />
<use xlink:href="#f3_1z" transform="matrix(12,0,0,12,491.3,305.6)" />
<use xlink:href="#f3_27" transform="matrix(12,0,0,12,499.3,305.6)" />
<use xlink:href="#f3_c" transform="matrix(12,0,0,12,513.1,305.6)" />
<use xlink:href="#f3_12" transform="matrix(12,0,0,12,519.2,305.6)" />
<use xlink:href="#f3_d" transform="matrix(12,0,0,12,531.4,305.6)" />
<use xlink:href="#f3_25" transform="matrix(12,0,0,12,542.1,305.6)" />
<use xlink:href="#f3_2f" transform="matrix(12,0,0,12,547.3,305.6)" />
<use xlink:href="#f3_2c" transform="matrix(12,0,0,12,559,305.6)" />
<use xlink:href="#f3_2b" transform="matrix(12,0,0,12,568.1,305.6)" />
<use xlink:href="#f3_2j" transform="matrix(12,0,0,12,577.3,305.6)" />
<use xlink:href="#f3_21" transform="matrix(12,0,0,12,590.4,305.6)" />
<use xlink:href="#f3_2e" transform="matrix(12,0,0,12,598.6,305.6)" />
<use xlink:href="#f3_1x" transform="matrix(12,0,0,12,609.3,305.6)" />
<use xlink:href="#f3_29" transform="matrix(12,0,0,12,617.4,305.6)" />
<use xlink:href="#f3_2c" transform="matrix(12,0,0,12,631.6,305.6)" />
<use xlink:href="#f3_28" transform="matrix(12,0,0,12,640.7,305.6)" />
<use xlink:href="#f3_25" transform="matrix(12,0,0,12,645.8,305.6)" />
<use xlink:href="#f3_22" transform="matrix(12,0,0,12,651,305.6)" />
<use xlink:href="#f3_25" transform="matrix(12,0,0,12,657.1,305.6)" />
<use xlink:href="#f3_21" transform="matrix(12,0,0,12,662.2,305.6)" />
<use xlink:href="#f3_2e" transform="matrix(12,0,0,12,670.3,305.6)" />
<use xlink:href="#f3_c" transform="matrix(12,0,0,12,55,328.4)" />
<use xlink:href="#f3_11" transform="matrix(12,0,0,12,61.1,328.4)" />
<use xlink:href="#f3_d" transform="matrix(12,0,0,12,74.3,328.4)" />
<use xlink:href="#f3_x" transform="matrix(12,0,0,12,85,328.4)" />
<use xlink:href="#f3_29" transform="matrix(12,0,0,12,100,328.4)" />
<use xlink:href="#f3_2b" transform="matrix(12,0,0,12,114.1,328.4)" />
<use xlink:href="#f3_20" transform="matrix(12,0,0,12,123.3,328.4)" />
<use xlink:href="#f3_2h" transform="matrix(12,0,0,12,132.5,328.4)" />
<use xlink:href="#f3_28" transform="matrix(12,0,0,12,141.6,328.4)" />
<use xlink:href="#f3_1x" transform="matrix(12,0,0,12,146.8,328.4)" />
<use xlink:href="#f3_2g" transform="matrix(12,0,0,12,155,328.4)" />
<use xlink:href="#f3_2b" transform="matrix(12,0,0,12,160.1,328.4)" />
<use xlink:href="#f3_2e" transform="matrix(12,0,0,12,169.2,328.4)" />
<use xlink:href="#f3_1z" transform="matrix(12,0,0,12,180,328.4)" />
<use xlink:href="#f3_24" transform="matrix(12,0,0,12,188.1,328.4)" />
<use xlink:href="#f3_1x" transform="matrix(12,0,0,12,197.2,328.4)" />
<use xlink:href="#f3_2a" transform="matrix(12,0,0,12,205.4,328.4)" />
<use xlink:href="#f3_23" transform="matrix(12,0,0,12,214.5,328.4)" />
<use xlink:href="#f3_21" transform="matrix(12,0,0,12,223.7,328.4)" />
<use xlink:href="#f3_2f" transform="matrix(12,0,0,12,231.8,328.4)" />
<use xlink:href="#f3_2g" transform="matrix(12,0,0,12,243.6,328.4)" />
<use xlink:href="#f3_24" transform="matrix(12,0,0,12,248.7,328.4)" />
<use xlink:href="#f3_21" transform="matrix(12,0,0,12,257.8,328.4)" />
<use xlink:href="#f3_1x" transform="matrix(12,0,0,12,270.5,328.4)" />
<use xlink:href="#f3_29" transform="matrix(12,0,0,12,278.7,328.4)" />
<use xlink:href="#f3_2c" transform="matrix(12,0,0,12,292.8,328.4)" />
<use xlink:href="#f3_28" transform="matrix(12,0,0,12,302,328.4)" />
<use xlink:href="#f3_25" transform="matrix(12,0,0,12,307.1,328.4)" />
<use xlink:href="#f3_2g" transform="matrix(12,0,0,12,312.3,328.4)" />
<use xlink:href="#f3_2h" transform="matrix(12,0,0,12,317.4,328.4)" />
<use xlink:href="#f3_20" transform="matrix(12,0,0,12,326.5,328.4)" />
<use xlink:href="#f3_21" transform="matrix(12,0,0,12,335.6,328.4)" />
<use xlink:href="#f3_2b" transform="matrix(12,0,0,12,348.4,328.4)" />
<use xlink:href="#f3_22" transform="matrix(12,0,0,12,357.5,328.4)" />
<use xlink:href="#f3_1z" transform="matrix(12,0,0,12,368.2,328.4)" />
<use xlink:href="#f3_1x" transform="matrix(12,0,0,12,376.3,328.4)" />
<use xlink:href="#f3_2e" transform="matrix(12,0,0,12,384.5,328.4)" />
<use xlink:href="#f3_2e" transform="matrix(12,0,0,12,390.6,328.4)" />
<use xlink:href="#f3_25" transform="matrix(12,0,0,12,396.8,328.4)" />
<use xlink:href="#f3_21" transform="matrix(12,0,0,12,401.8,328.4)" />
<use xlink:href="#f3_2e" transform="matrix(12,0,0,12,410,328.4)" />
<use xlink:href="#f3_2j" transform="matrix(12,0,0,12,420.6,328.4)" />
<use xlink:href="#f3_1x" transform="matrix(12,0,0,12,433.8,328.4)" />
<use xlink:href="#f3_2i" transform="matrix(12,0,0,12,442,328.4)" />
<use xlink:href="#f3_21" transform="matrix(12,0,0,12,451.1,328.4)" />
<use xlink:href="#f3_1x" transform="matrix(12,0,0,12,463.9,328.4)" />
<use xlink:href="#f3_1z" transform="matrix(12,0,0,12,472,328.4)" />
<use xlink:href="#f3_1z" transform="matrix(12,0,0,12,480.1,328.4)" />
<use xlink:href="#f3_2b" transform="matrix(12,0,0,12,488.3,328.4)" />
<use xlink:href="#f3_2e" transform="matrix(12,0,0,12,497.4,328.4)" />
<use xlink:href="#f3_20" transform="matrix(12,0,0,12,503.5,328.4)" />
<use xlink:href="#f3_25" transform="matrix(12,0,0,12,512.7,328.4)" />
<use xlink:href="#f3_2a" transform="matrix(12,0,0,12,517.8,328.4)" />
<use xlink:href="#f3_23" transform="matrix(12,0,0,12,527,328.4)" />
<use xlink:href="#f3_2g" transform="matrix(12,0,0,12,540.7,328.4)" />
<use xlink:href="#f3_2b" transform="matrix(12,0,0,12,545.9,328.4)" />
<use xlink:href="#f3_29" transform="matrix(12,0,0,12,559.6,328.4)" />
<use xlink:href="#f3_2b" transform="matrix(12,0,0,12,573.7,328.4)" />
<use xlink:href="#f3_20" transform="matrix(12,0,0,12,582.9,328.4)" />
<use xlink:href="#f3_2h" transform="matrix(12,0,0,12,592.1,328.4)" />
<use xlink:href="#f3_28" transform="matrix(12,0,0,12,601.3,328.4)" />
<use xlink:href="#f3_1x" transform="matrix(12,0,0,12,606.4,328.4)" />
<use xlink:href="#f3_2g" transform="matrix(12,0,0,12,614.6,328.4)" />
<use xlink:href="#f3_25" transform="matrix(12,0,0,12,619.6,328.4)" />
<use xlink:href="#f3_2a" transform="matrix(12,0,0,12,624.7,328.4)" />
<use xlink:href="#f3_23" transform="matrix(12,0,0,12,633.9,328.4)" />
<use xlink:href="#f3_2f" transform="matrix(12,0,0,12,647.7,328.4)" />
<use xlink:href="#f3_25" transform="matrix(12,0,0,12,654.8,328.4)" />
<use xlink:href="#f3_23" transform="matrix(12,0,0,12,660,328.4)" />
<use xlink:href="#f3_2a" transform="matrix(12,0,0,12,669.1,328.4)" />
<use xlink:href="#f3_1x" transform="matrix(12,0,0,12,678.2,328.4)" />
<use xlink:href="#f3_28" transform="matrix(12,0,0,12,686.3,328.4)" />
<use xlink:href="#f3_2f" transform="matrix(12,0,0,12,691.4,328.4)" />
<use xlink:href="#f3_c" transform="matrix(12,0,0,12,55,351.1)" />
<use xlink:href="#f3_12" transform="matrix(12,0,0,12,61.1,351.1)" />
<use xlink:href="#f3_d" transform="matrix(12,0,0,12,73.3,351.1)" />
<use xlink:href="#f3_x" transform="matrix(12,0,0,12,84,351.1)" />
<use xlink:href="#f3_1g" transform="matrix(12,0,0,12,99,351.1)" />
<use xlink:href="#f3_2b" transform="matrix(12,0,0,12,109.2,351.1)" />
<use xlink:href="#f3_2j" transform="matrix(12,0,0,12,118.3,351.1)" />
<use xlink:href="#f3_21" transform="matrix(12,0,0,12,131.6,351.1)" />
<use xlink:href="#f3_2e" transform="matrix(12,0,0,12,139.7,351.1)" />
<use xlink:href="#f3_1x" transform="matrix(12,0,0,12,150.3,351.1)" />
<use xlink:href="#f3_29" transform="matrix(12,0,0,12,158.5,351.1)" />
<use xlink:href="#f3_2c" transform="matrix(12,0,0,12,172.6,351.1)" />
<use xlink:href="#f3_28" transform="matrix(12,0,0,12,181.8,351.1)" />
<use xlink:href="#f3_25" transform="matrix(12,0,0,12,186.9,351.1)" />
<use xlink:href="#f3_22" transform="matrix(12,0,0,12,192,351.1)" />
<use xlink:href="#f3_25" transform="matrix(12,0,0,12,198.1,351.1)" />
<use xlink:href="#f3_21" transform="matrix(12,0,0,12,203.2,351.1)" />
<use xlink:href="#f3_2e" transform="matrix(12,0,0,12,211.3,351.1)" />
<use xlink:href="#f3_21" transform="matrix(12,0,0,12,222,351.1)" />
<use xlink:href="#f3_2a" transform="matrix(12,0,0,12,230.2,351.1)" />
<use xlink:href="#f3_24" transform="matrix(12,0,0,12,239.4,351.1)" />
<use xlink:href="#f3_1x" transform="matrix(12,0,0,12,248.5,351.1)" />
<use xlink:href="#f3_2a" transform="matrix(12,0,0,12,256.7,351.1)" />
<use xlink:href="#f3_1z" transform="matrix(12,0,0,12,265.9,351.1)" />
<use xlink:href="#f3_21" transform="matrix(12,0,0,12,274,351.1)" />
<use xlink:href="#f3_2g" transform="matrix(12,0,0,12,286.7,351.1)" />
<use xlink:href="#f3_24" transform="matrix(12,0,0,12,291.9,351.1)" />
<use xlink:href="#f3_21" transform="matrix(12,0,0,12,301.1,351.1)" />
<use xlink:href="#f3_2i" transform="matrix(12,0,0,12,313.8,351.1)" />
<use xlink:href="#f3_2b" transform="matrix(12,0,0,12,322.9,351.1)" />
<use xlink:href="#f3_28" transform="matrix(12,0,0,12,332,351.1)" />
<use xlink:href="#f3_2g" transform="matrix(12,0,0,12,337.1,351.1)" />
<use xlink:href="#f3_1x" transform="matrix(12,0,0,12,342.3,351.1)" />
<use xlink:href="#f3_23" transform="matrix(12,0,0,12,350.4,351.1)" />
<use xlink:href="#f3_21" transform="matrix(12,0,0,12,359.6,351.1)" />
<use xlink:href="#f3_1x" transform="matrix(12,0,0,12,372.3,351.1)" />
<use xlink:href="#f3_2a" transform="matrix(12,0,0,12,380.4,351.1)" />
<use xlink:href="#f3_20" transform="matrix(12,0,0,12,389.6,351.1)" />
<use xlink:href="#f3_21" transform="matrix(12,0,0,12,403.5,351.1)" />
<use xlink:href="#f3_2a" transform="matrix(12,0,0,12,411.6,351.1)" />
<use xlink:href="#f3_24" transform="matrix(12,0,0,12,420.7,351.1)" />
<use xlink:href="#f3_1x" transform="matrix(12,0,0,12,429.9,351.1)" />
<use xlink:href="#f3_2a" transform="matrix(12,0,0,12,438,351.1)" />
<use xlink:href="#f3_1z" transform="matrix(12,0,0,12,447.2,351.1)" />
<use xlink:href="#f3_21" transform="matrix(12,0,0,12,455.3,351.1)" />
<use xlink:href="#f3_2c" transform="matrix(12,0,0,12,468.1,351.1)" />
<use xlink:href="#f3_2b" transform="matrix(12,0,0,12,477.2,351.1)" />
<use xlink:href="#f3_2j" transform="matrix(12,0,0,12,486.4,351.1)" />
<use xlink:href="#f3_21" transform="matrix(12,0,0,12,499.6,351.1)" />
<use xlink:href="#f3_2e" transform="matrix(12,0,0,12,507.8,351.1)" />
<use xlink:href="#f3_2b" transform="matrix(12,0,0,12,518.5,351.1)" />
<use xlink:href="#f3_22" transform="matrix(12,0,0,12,527.6,351.1)" />
<use xlink:href="#f3_29" transform="matrix(12,0,0,12,538.3,351.1)" />
<use xlink:href="#f3_2b" transform="matrix(12,0,0,12,552.4,351.1)" />
<use xlink:href="#f3_20" transform="matrix(12,0,0,12,561.6,351.1)" />
<use xlink:href="#f3_2h" transform="matrix(12,0,0,12,570.8,351.1)" />
<use xlink:href="#f3_28" transform="matrix(12,0,0,12,579.9,351.1)" />
<use xlink:href="#f3_1x" transform="matrix(12,0,0,12,585,351.1)" />
<use xlink:href="#f3_2g" transform="matrix(12,0,0,12,593.2,351.1)" />
<use xlink:href="#f3_21" transform="matrix(12,0,0,12,598.3,351.1)" />
<use xlink:href="#f3_20" transform="matrix(12,0,0,12,606.5,351.1)" />
<use xlink:href="#f3_2f" transform="matrix(12,0,0,12,620.2,351.1)" />
<use xlink:href="#f3_25" transform="matrix(12,0,0,12,627.4,351.1)" />
<use xlink:href="#f3_23" transform="matrix(12,0,0,12,632.5,351.1)" />
<use xlink:href="#f3_2a" transform="matrix(12,0,0,12,641.7,351.1)" />
<use xlink:href="#f3_1x" transform="matrix(12,0,0,12,650.8,351.1)" />
<use xlink:href="#f3_28" transform="matrix(12,0,0,12,659,351.1)" />
<use xlink:href="#f3_2f" transform="matrix(12,0,0,12,664.1,351.1)" />
<use xlink:href="#f3_l" transform="matrix(12,0,0,12,55,396.7)" />
<use xlink:href="#f3_n" transform="matrix(12,0,0,12,64.2,396.7)" />
<use xlink:href="#f3_i" transform="matrix(12,0,0,12,73.3,396.7)" />
<use xlink:href="#f3_11" transform="matrix(12,0,0,12,82.5,396.7)" />
<use xlink:href="#f3_1z" transform="matrix(12,0,0,12,100.3,396.7)" />
<use xlink:href="#f3_2b" transform="matrix(12,0,0,12,108.5,396.7)" />
<use xlink:href="#f3_2a" transform="matrix(12,0,0,12,117.6,396.7)" />
<use xlink:href="#f3_2i" transform="matrix(12,0,0,12,126.8,396.7)" />
<use xlink:href="#f3_21" transform="matrix(12,0,0,12,136,396.7)" />
<use xlink:href="#f3_2k" transform="matrix(12,0,0,12,144.1,396.7)" />
<use xlink:href="#f3_28" transform="matrix(12,0,0,12,157.9,396.7)" />
<use xlink:href="#f3_21" transform="matrix(12,0,0,12,162.9,396.7)" />
<use xlink:href="#f3_2a" transform="matrix(12,0,0,12,171.1,396.7)" />
<use xlink:href="#f3_2f" transform="matrix(12,0,0,12,180.3,396.7)" />
<use xlink:href="#f3_2b" transform="matrix(12,0,0,12,192,396.7)" />
<use xlink:href="#f3_22" transform="matrix(12,0,0,12,201.2,396.7)" />
<use xlink:href="#f3_22" transform="matrix(12,0,0,12,211.9,396.7)" />
<use xlink:href="#f3_2b" transform="matrix(12,0,0,12,217.9,396.7)" />
<use xlink:href="#f3_1z" transform="matrix(12,0,0,12,227,396.7)" />
<use xlink:href="#f3_1x" transform="matrix(12,0,0,12,235.2,396.7)" />
<use xlink:href="#f3_28" transform="matrix(12,0,0,12,243.3,396.7)" />
<use xlink:href="#f3_28" transform="matrix(12,0,0,12,253.1,396.7)" />
<use xlink:href="#f3_21" transform="matrix(12,0,0,12,258.2,396.7)" />
<use xlink:href="#f3_2a" transform="matrix(12,0,0,12,266.3,396.7)" />
<use xlink:href="#f3_23" transform="matrix(12,0,0,12,275.5,396.7)" />
<use xlink:href="#f3_2g" transform="matrix(12,0,0,12,284.6,396.7)" />
<use xlink:href="#f3_24" transform="matrix(12,0,0,12,289.7,396.7)" />
<use xlink:href="#f3_22" transform="matrix(12,0,0,12,303.5,396.7)" />
<use xlink:href="#f3_l" transform="matrix(8,0,0,8,309.6,397.4)" />
<use xlink:href="#f3_25" transform="matrix(12,0,0,12,320.3,396.7)" />
<use xlink:href="#f3_2f" transform="matrix(12,0,0,12,325.4,396.7)" />
<use xlink:href="#f3_27" transform="matrix(12,0,0,12,337.1,396.7)" />
<use xlink:href="#f3_21" transform="matrix(12,0,0,12,346.3,396.7)" />
<use xlink:href="#f3_2c" transform="matrix(12,0,0,12,354.4,396.7)" />
<use xlink:href="#f3_2g" transform="matrix(12,0,0,12,363.6,396.7)" />
<use xlink:href="#f3_25" transform="matrix(12,0,0,12,373.3,396.7)" />
<use xlink:href="#f3_2a" transform="matrix(12,0,0,12,378.4,396.7)" />
<use xlink:href="#f3_1z" transform="matrix(12,0,0,12,392.1,396.7)" />
<use xlink:href="#f3_2b" transform="matrix(12,0,0,12,400.2,396.7)" />
<use xlink:href="#f3_2a" transform="matrix(12,0,0,12,409.4,396.7)" />
<use xlink:href="#f3_2g" transform="matrix(12,0,0,12,418.5,396.7)" />
<use xlink:href="#f3_1x" transform="matrix(12,0,0,12,423.6,396.7)" />
<use xlink:href="#f3_1z" transform="matrix(12,0,0,12,431.7,396.7)" />
<use xlink:href="#f3_2g" transform="matrix(12,0,0,12,439.9,396.7)" />
<use xlink:href="#f3_2j" transform="matrix(12,0,0,12,449.6,396.7)" />
<use xlink:href="#f3_25" transform="matrix(12,0,0,12,462.8,396.7)" />
<use xlink:href="#f3_2g" transform="matrix(12,0,0,12,467.9,396.7)" />
<use xlink:href="#f3_24" transform="matrix(12,0,0,12,473,396.7)" />
<use xlink:href="#f3_1x" transform="matrix(12,0,0,12,486.7,396.7)" />
<use xlink:href="#f3_1z" transform="matrix(12,0,0,12,499.4,396.7)" />
<use xlink:href="#f3_2b" transform="matrix(12,0,0,12,507.6,396.7)" />
<use xlink:href="#f3_2a" transform="matrix(12,0,0,12,516.7,396.7)" />
<use xlink:href="#f3_1z" transform="matrix(12,0,0,12,525.9,396.7)" />
<use xlink:href="#f3_1x" transform="matrix(12,0,0,12,534,396.7)" />
<use xlink:href="#f3_2i" transform="matrix(12,0,0,12,542.2,396.7)" />
<use xlink:href="#f3_21" transform="matrix(12,0,0,12,551.4,396.7)" />
<use xlink:href="#f3_28" transform="matrix(12,0,0,12,564.1,396.7)" />
<use xlink:href="#f3_21" transform="matrix(12,0,0,12,569.2,396.7)" />
<use xlink:href="#f3_2a" transform="matrix(12,0,0,12,577.4,396.7)" />
<use xlink:href="#f3_2f" transform="matrix(12,0,0,12,586.5,396.7)" />
<use xlink:href="#f3_2b" transform="matrix(12,0,0,12,598.1,396.7)" />
<use xlink:href="#f3_22" transform="matrix(12,0,0,12,607.3,396.7)" />
<use xlink:href="#f3_22" transform="matrix(12,0,0,12,618,396.7)" />
<use xlink:href="#f3_2b" transform="matrix(12,0,0,12,624,396.7)" />
<use xlink:href="#f3_1z" transform="matrix(12,0,0,12,633.1,396.7)" />
<use xlink:href="#f3_1x" transform="matrix(12,0,0,12,641.3,396.7)" />
<use xlink:href="#f3_28" transform="matrix(12,0,0,12,649.4,396.7)" />
<use xlink:href="#f3_28" transform="matrix(12,0,0,12,659.1,396.7)" />
<use xlink:href="#f3_21" transform="matrix(12,0,0,12,664.2,396.7)" />
<use xlink:href="#f3_2a" transform="matrix(12,0,0,12,672.4,396.7)" />
<use xlink:href="#f3_23" transform="matrix(12,0,0,12,681.5,396.7)" />
<use xlink:href="#f3_2g" transform="matrix(12,0,0,12,690.7,396.7)" />
<use xlink:href="#f3_24" transform="matrix(12,0,0,12,695.9,396.7)" />
<use xlink:href="#f3_22" transform="matrix(12,0,0,12,709.6,396.7)" />
<use xlink:href="#f3_m" transform="matrix(8,0,0,8,715.8,397.4)" />
<use xlink:href="#f3_i" transform="matrix(12,0,0,12,722,396.7)" />
<use xlink:href="#f3_16" transform="matrix(12,0,0,12,731.1,396.7)" />
<use xlink:href="#f3_25" transform="matrix(12,0,0,12,741.3,396.7)" />
<use xlink:href="#f3_2a" transform="matrix(12,0,0,12,746.4,396.7)" />
<use xlink:href="#f3_20" transform="matrix(12,0,0,12,755.6,396.7)" />
<use xlink:href="#f3_2g" transform="matrix(12,0,0,12,769.3,396.7)" />
<use xlink:href="#f3_24" transform="matrix(12,0,0,12,774.5,396.7)" />
<use xlink:href="#f3_21" transform="matrix(12,0,0,12,783.5,396.7)" />
<use xlink:href="#f3_22" transform="matrix(12,0,0,12,796.3,396.7)" />
<use xlink:href="#f3_2b" transform="matrix(12,0,0,12,802.4,396.7)" />
<use xlink:href="#f3_1z" transform="matrix(12,0,0,12,811.5,396.7)" />
<use xlink:href="#f3_1x" transform="matrix(12,0,0,12,819.7,396.7)" />
<use xlink:href="#f3_28" transform="matrix(12,0,0,12,827.8,396.7)" />
<use xlink:href="#f3_28" transform="matrix(12,0,0,12,55,419.4)" />
<use xlink:href="#f3_21" transform="matrix(12,0,0,12,60.1,419.4)" />
<use xlink:href="#f3_2a" transform="matrix(12,0,0,12,68.2,419.4)" />
<use xlink:href="#f3_23" transform="matrix(12,0,0,12,77.4,419.4)" />
<use xlink:href="#f3_2g" transform="matrix(12,0,0,12,86.6,419.4)" />
<use xlink:href="#f3_24" transform="matrix(12,0,0,12,91.7,419.4)" />
<use xlink:href="#f3_2b" transform="matrix(12,0,0,12,105.5,419.4)" />
<use xlink:href="#f3_22" transform="matrix(12,0,0,12,114.7,419.4)" />
<use xlink:href="#f3_2g" transform="matrix(12,0,0,12,125.4,419.4)" />
<use xlink:href="#f3_24" transform="matrix(12,0,0,12,130.5,419.4)" />
<use xlink:href="#f3_21" transform="matrix(12,0,0,12,139.6,419.4)" />
<use xlink:href="#f3_1z" transform="matrix(12,0,0,12,152.3,419.4)" />
<use xlink:href="#f3_2b" transform="matrix(12,0,0,12,160.4,419.4)" />
<use xlink:href="#f3_29" transform="matrix(12,0,0,12,169.6,419.4)" />
<use xlink:href="#f3_1y" transform="matrix(12,0,0,12,183.7,419.4)" />
<use xlink:href="#f3_25" transform="matrix(12,0,0,12,192.9,419.4)" />
<use xlink:href="#f3_2a" transform="matrix(12,0,0,12,198,419.4)" />
<use xlink:href="#f3_1x" transform="matrix(12,0,0,12,207.1,419.4)" />
<use xlink:href="#f3_2g" transform="matrix(12,0,0,12,215.3,419.4)" />
<use xlink:href="#f3_25" transform="matrix(12,0,0,12,220.4,419.4)" />
<use xlink:href="#f3_2b" transform="matrix(12,0,0,12,225.5,419.4)" />
<use xlink:href="#f3_2a" transform="matrix(12,0,0,12,234.7,419.4)" />
<use xlink:href="#f3_i" transform="matrix(12,0,0,12,243.9,419.4)" />
<use xlink:href="#f2_1j" transform="matrix(12,0,0,12,55,442.1)" />
<use xlink:href="#f2_2b" transform="matrix(12,0,0,12,65.2,442.1)" />
<use xlink:href="#f2_28" transform="matrix(12,0,0,12,74.4,442.1)" />
<use xlink:href="#f2_2h" transform="matrix(12,0,0,12,79.5,442.1)" />
<use xlink:href="#f2_2g" transform="matrix(12,0,0,12,89.6,442.1)" />
<use xlink:href="#f2_25" transform="matrix(12,0,0,12,95.8,442.1)" />
<use xlink:href="#f2_2b" transform="matrix(12,0,0,12,100.9,442.1)" />
<use xlink:href="#f2_2a" transform="matrix(12,0,0,12,110.1,442.1)" />
<use xlink:href="#f2_u" transform="matrix(12,0,0,12,120.3,442.1)" />
</g>
<path d="M58.1,472H68.4M88,472h26.7m17.5,0h28.5" class="g2_170" />
<g clip-path="url(#c0_170)">
<g fill="#000000" >
<use xlink:href="#f3_l" transform="matrix(7,0,0,6.9,107.6,495.4)" />
<use xlink:href="#f3_m" transform="matrix(7,0,0,6.9,152.7,495.4)" />
<use xlink:href="#f3_l" transform="matrix(12.1,0,0,11.9,58.7,465.1)" />
<use xlink:href="#f3_l" transform="matrix(12.1,0,0,11.9,96.8,465.1)" />
<use xlink:href="#f3_l" transform="matrix(12.1,0,0,11.9,141.8,465.1)" />
<use xlink:href="#f3_22" transform="matrix(12.1,0,0,11.9,59,490.7)" />
<use xlink:href="#f3_22" transform="matrix(12.1,0,0,11.9,101.7,490.7)" />
<use xlink:href="#f3_22" transform="matrix(12.1,0,0,11.9,145.7,490.7)" />
<use xlink:href="#f4_x" transform="matrix(12.1,0,0,11.9,73.3,476.5)" />
<use xlink:href="#f4_f" transform="matrix(12.1,0,0,11.9,118.5,476.5)" />
<use xlink:href="#f4_f" transform="matrix(12.1,0,0,11.9,89.1,490.7)" />
<use xlink:href="#f4_h" transform="matrix(12.1,0,0,11.9,133.4,490.7)" />
</g>
</g>
<path d="M58.1,525.3H68.5m19.6,0h43.4" class="g3_170" />
<g clip-path="url(#c1_170)">
<g fill="#000000" >
<use xlink:href="#f3_m" transform="matrix(7.1,0,0,6.9,96.9,523)" />
<use xlink:href="#f3_l" transform="matrix(7.1,0,0,6.9,123.4,523)" />
<use xlink:href="#f3_l" transform="matrix(7.1,0,0,6.9,107.8,548.8)" />
<use xlink:href="#f3_m" transform="matrix(7.1,0,0,6.9,123.5,548.8)" />
<use xlink:href="#f3_22" transform="matrix(12.3,0,0,11.9,89.8,518.3)" />
<use xlink:href="#f3_22" transform="matrix(12.3,0,0,11.9,117.5,518.3)" />
<use xlink:href="#f3_l" transform="matrix(12.3,0,0,11.9,58.7,518.4)" />
<use xlink:href="#f3_22" transform="matrix(12.3,0,0,11.9,59,544.1)" />
<use xlink:href="#f3_22" transform="matrix(12.3,0,0,11.9,101.9,544.1)" />
<use xlink:href="#f3_22" transform="matrix(12.3,0,0,11.9,116.4,544.1)" />
<use xlink:href="#f4_h" transform="matrix(12.3,0,0,11.9,104.6,518.3)" />
<use xlink:href="#f4_x" transform="matrix(12.3,0,0,11.9,73.4,529.9)" />
<use xlink:href="#f4_f" transform="matrix(12.3,0,0,11.9,89.3,544.1)" />
</g>
</g>
<path d="M85.1,578.5h41.4" class="g4_170" />
<g clip-path="url(#c2_170)">
<g fill="#000000" >
<use xlink:href="#f3_l" transform="matrix(6.9,0,0,6.9,97.4,576.3)" />
<use xlink:href="#f3_m" transform="matrix(6.9,0,0,6.9,113,576.3)" />
<use xlink:href="#f3_m" transform="matrix(6.9,0,0,6.9,93,602)" />
<use xlink:href="#f3_l" transform="matrix(6.9,0,0,6.9,119.4,602)" />
<use xlink:href="#f3_22" transform="matrix(12,0,0,11.9,91.5,571.6)" />
<use xlink:href="#f3_22" transform="matrix(12,0,0,11.9,106,571.6)" />
<use xlink:href="#f3_22" transform="matrix(12,0,0,11.9,57.5,583.1)" />
<use xlink:href="#f3_22" transform="matrix(12,0,0,11.9,85.9,597.3)" />
<use xlink:href="#f3_22" transform="matrix(12,0,0,11.9,113.5,597.3)" />
<use xlink:href="#f4_x" transform="matrix(12,0,0,11.9,70.4,583.1)" />
<use xlink:href="#f4_h" transform="matrix(12,0,0,11.9,100.6,597.3)" />
</g>
</g>
<g fill="#000000" >
<use xlink:href="#f3_l" transform="matrix(12,0,0,12,55,647.4)" />
<use xlink:href="#f3_o" transform="matrix(12,0,0,12,64.2,647.4)" />
<use xlink:href="#f3_i" transform="matrix(12,0,0,12,73.3,647.4)" />
<use xlink:href="#f3_14" transform="matrix(12,0,0,12,82.5,647.4)" />
<use xlink:href="#f3_2e" transform="matrix(12,0,0,12,95.7,647.4)" />
<use xlink:href="#f3_1x" transform="matrix(12,0,0,12,101.8,647.4)" />
<use xlink:href="#f3_2j" transform="matrix(12,0,0,12,110,647.4)" />
<use xlink:href="#f3_2g" transform="matrix(12,0,0,12,127.8,647.4)" />
<use xlink:href="#f3_2l" transform="matrix(12,0,0,12,132.9,647.4)" />
<use xlink:href="#f3_2c" transform="matrix(12,0,0,12,142.1,647.4)" />
<use xlink:href="#f3_25" transform="matrix(12,0,0,12,151.2,647.4)" />
<use xlink:href="#f3_1z" transform="matrix(12,0,0,12,156.4,647.4)" />
<use xlink:href="#f3_1x" transform="matrix(12,0,0,12,164.5,647.4)" />
<use xlink:href="#f3_28" transform="matrix(12,0,0,12,172.6,647.4)" />
<use xlink:href="#f3_2b" transform="matrix(12,0,0,12,182.4,647.4)" />
<use xlink:href="#f3_2h" transform="matrix(12,0,0,12,191.5,647.4)" />
<use xlink:href="#f3_2g" transform="matrix(12,0,0,12,200.6,647.4)" />
<use xlink:href="#f3_2c" transform="matrix(12,0,0,12,205.7,647.4)" />
<use xlink:href="#f3_2h" transform="matrix(12,0,0,12,214.9,647.4)" />
<use xlink:href="#f3_2g" transform="matrix(12,0,0,12,224.1,647.4)" />
<use xlink:href="#f3_1z" transform="matrix(12,0,0,12,233.7,647.4)" />
<use xlink:href="#f3_24" transform="matrix(12,0,0,12,241.8,647.4)" />
<use xlink:href="#f3_1x" transform="matrix(12,0,0,12,251,647.4)" />
<use xlink:href="#f3_2e" transform="matrix(12,0,0,12,259.1,647.4)" />
<use xlink:href="#f3_1x" transform="matrix(12,0,0,12,265.3,647.4)" />
<use xlink:href="#f3_1z" transform="matrix(12,0,0,12,273.4,647.4)" />
<use xlink:href="#f3_2g" transform="matrix(12,0,0,12,281.5,647.4)" />
<use xlink:href="#f3_21" transform="matrix(12,0,0,12,286.6,647.4)" />
<use xlink:href="#f3_2e" transform="matrix(12,0,0,12,294.8,647.4)" />
<use xlink:href="#f3_25" transform="matrix(12,0,0,12,300.9,647.4)" />
<use xlink:href="#f3_2f" transform="matrix(12,0,0,12,306,647.4)" />
<use xlink:href="#f3_2g" transform="matrix(12,0,0,12,313.1,647.4)" />
<use xlink:href="#f3_25" transform="matrix(12,0,0,12,318.2,647.4)" />
<use xlink:href="#f3_1z" transform="matrix(12,0,0,12,323.2,647.4)" />
<use xlink:href="#f3_2f" transform="matrix(12,0,0,12,331.4,647.4)" />
<use xlink:href="#f3_2b" transform="matrix(12,0,0,12,343.1,647.4)" />
<use xlink:href="#f3_22" transform="matrix(12,0,0,12,352.3,647.4)" />
<use xlink:href="#f3_1x" transform="matrix(12,0,0,12,362.9,647.4)" />
<use xlink:href="#f3_2a" transform="matrix(12,0,0,12,371.1,647.4)" />
<use xlink:href="#f3_2a" transform="matrix(12,0,0,12,384.8,647.4)" />
<use xlink:href="#f3_h" transform="matrix(12,0,0,12,394.1,647.4)" />
<use xlink:href="#f3_2c" transform="matrix(12,0,0,12,400.3,647.4)" />
<use xlink:href="#f3_h" transform="matrix(12,0,0,12,409.4,647.4)" />
<use xlink:href="#f3_2a" transform="matrix(12,0,0,12,415.5,647.4)" />
<use xlink:href="#f3_2g" transform="matrix(12,0,0,12,429.2,647.4)" />
<use xlink:href="#f3_2e" transform="matrix(12,0,0,12,434.3,647.4)" />
<use xlink:href="#f3_1x" transform="matrix(12,0,0,12,440.5,647.4)" />
<use xlink:href="#f3_2a" transform="matrix(12,0,0,12,448.6,647.4)" />
<use xlink:href="#f3_2f" transform="matrix(12,0,0,12,457.8,647.4)" />
<use xlink:href="#f3_25" transform="matrix(12,0,0,12,464.9,647.4)" />
<use xlink:href="#f3_2f" transform="matrix(12,0,0,12,470,647.4)" />
<use xlink:href="#f3_2g" transform="matrix(12,0,0,12,477.1,647.4)" />
<use xlink:href="#f3_2b" transform="matrix(12,0,0,12,482.3,647.4)" />
<use xlink:href="#f3_2e" transform="matrix(12,0,0,12,491.4,647.4)" />
<use xlink:href="#f3_25" transform="matrix(12,0,0,12,502,647.4)" />
<use xlink:href="#f3_2a" transform="matrix(12,0,0,12,507.1,647.4)" />
<use xlink:href="#f3_13" transform="matrix(12,0,0,12,520.9,647.4)" />
<use xlink:href="#f3_15" transform="matrix(12,0,0,12,533.1,647.4)" />
<use xlink:href="#f3_1z" transform="matrix(12,0,0,12,548.9,647.4)" />
<use xlink:href="#f3_2b" transform="matrix(12,0,0,12,557,647.4)" />
<use xlink:href="#f3_2a" transform="matrix(12,0,0,12,566.2,647.4)" />
<use xlink:href="#f3_22" transform="matrix(12,0,0,12,575.3,647.4)" />
<use xlink:href="#f3_25" transform="matrix(12,0,0,12,581.4,647.4)" />
<use xlink:href="#f3_23" transform="matrix(12,0,0,12,586.5,647.4)" />
<use xlink:href="#f3_2h" transform="matrix(12,0,0,12,595.6,647.4)" />
<use xlink:href="#f3_2e" transform="matrix(12,0,0,12,604.8,647.4)" />
<use xlink:href="#f3_1x" transform="matrix(12,0,0,12,611,647.4)" />
<use xlink:href="#f3_2g" transform="matrix(12,0,0,12,619.1,647.4)" />
<use xlink:href="#f3_25" transform="matrix(12,0,0,12,624.2,647.4)" />
<use xlink:href="#f3_2b" transform="matrix(12,0,0,12,629.3,647.4)" />
<use xlink:href="#f3_2a" transform="matrix(12,0,0,12,638.5,647.4)" />
<use xlink:href="#f3_i" transform="matrix(12,0,0,12,647.6,647.4)" />
<use xlink:href="#f3_1j" transform="matrix(12,0,0,12,656.8,647.4)" />
<use xlink:href="#f3_24" transform="matrix(12,0,0,12,667,647.4)" />
<use xlink:href="#f3_2b" transform="matrix(12,0,0,12,676.2,647.4)" />
<use xlink:href="#f3_2j" transform="matrix(12,0,0,12,685.3,647.4)" />
<use xlink:href="#f3_24" transform="matrix(12,0,0,12,703.1,647.4)" />
<use xlink:href="#f3_2b" transform="matrix(12,0,0,12,712.3,647.4)" />
<use xlink:href="#f3_2j" transform="matrix(12,0,0,12,721.5,647.4)" />
<use xlink:href="#f3_2g" transform="matrix(12,0,0,12,739.2,647.4)" />
<use xlink:href="#f3_24" transform="matrix(12,0,0,12,744.3,647.4)" />
<use xlink:href="#f3_21" transform="matrix(12,0,0,12,753.5,647.4)" />
<use xlink:href="#f3_2f" transform="matrix(12,0,0,12,761.6,647.4)" />
<use xlink:href="#f3_21" transform="matrix(12,0,0,12,768.8,647.4)" />
<use xlink:href="#f3_1z" transform="matrix(12,0,0,12,55,670.1)" />
<use xlink:href="#f3_24" transform="matrix(12,0,0,12,63.1,670.1)" />
<use xlink:href="#f3_1x" transform="matrix(12,0,0,12,72.3,670.1)" />
<use xlink:href="#f3_2e" transform="matrix(12,0,0,12,80.4,670.1)" />
<use xlink:href="#f3_1x" transform="matrix(12,0,0,12,86.6,670.1)" />
<use xlink:href="#f3_1z" transform="matrix(12,0,0,12,94.7,670.1)" />
<use xlink:href="#f3_2g" transform="matrix(12,0,0,12,102.8,670.1)" />
<use xlink:href="#f3_21" transform="matrix(12,0,0,12,107.9,670.1)" />
<use xlink:href="#f3_2e" transform="matrix(12,0,0,12,116.1,670.1)" />
<use xlink:href="#f3_25" transform="matrix(12,0,0,12,122.2,670.1)" />
<use xlink:href="#f3_2f" transform="matrix(12,0,0,12,127.3,670.1)" />
<use xlink:href="#f3_2g" transform="matrix(12,0,0,12,134.4,670.1)" />
<use xlink:href="#f3_25" transform="matrix(12,0,0,12,139.5,670.1)" />
<use xlink:href="#f3_1z" transform="matrix(12,0,0,12,144.5,670.1)" />
<use xlink:href="#f3_2f" transform="matrix(12,0,0,12,152.7,670.1)" />
<use xlink:href="#f3_1z" transform="matrix(12,0,0,12,164.5,670.1)" />
<use xlink:href="#f3_1x" transform="matrix(12,0,0,12,172.6,670.1)" />
<use xlink:href="#f3_2a" transform="matrix(12,0,0,12,180.8,670.1)" />
<use xlink:href="#f3_1y" transform="matrix(12,0,0,12,194.5,670.1)" />
<use xlink:href="#f3_21" transform="matrix(12,0,0,12,203.7,670.1)" />
<use xlink:href="#f3_2h" transform="matrix(12,0,0,12,216.4,670.1)" />
<use xlink:href="#f3_2f" transform="matrix(12,0,0,12,225.6,670.1)" />
<use xlink:href="#f3_21" transform="matrix(12,0,0,12,232.7,670.1)" />
<use xlink:href="#f3_20" transform="matrix(12,0,0,12,240.8,670.1)" />
<use xlink:href="#f3_2g" transform="matrix(12,0,0,12,254.6,670.1)" />
<use xlink:href="#f3_2b" transform="matrix(12,0,0,12,259.7,670.1)" />
<use xlink:href="#f3_20" transform="matrix(12,0,0,12,273.4,670.1)" />
<use xlink:href="#f3_21" transform="matrix(12,0,0,12,282.6,670.1)" />
<use xlink:href="#f3_2g" transform="matrix(12,0,0,12,290.8,670.1)" />
<use xlink:href="#f3_21" transform="matrix(12,0,0,12,295.9,670.1)" />
<use xlink:href="#f3_2e" transform="matrix(12,0,0,12,304,670.1)" />
<use xlink:href="#f3_29" transform="matrix(12,0,0,12,310.1,670.1)" />
<use xlink:href="#f3_25" transform="matrix(12,0,0,12,324.3,670.1)" />
<use xlink:href="#f3_2a" transform="matrix(12,0,0,12,329.4,670.1)" />
<use xlink:href="#f3_21" transform="matrix(12,0,0,12,338.6,670.1)" />
<use xlink:href="#f3_2b" transform="matrix(12,0,0,12,351.3,670.1)" />
<use xlink:href="#f3_2h" transform="matrix(12,0,0,12,360.5,670.1)" />
<use xlink:href="#f3_2g" transform="matrix(12,0,0,12,369.6,670.1)" />
<use xlink:href="#f3_2c" transform="matrix(12,0,0,12,374.8,670.1)" />
<use xlink:href="#f3_2h" transform="matrix(12,0,0,12,384,670.1)" />
<use xlink:href="#f3_2g" transform="matrix(12,0,0,12,393.1,670.1)" />
<use xlink:href="#f3_2e" transform="matrix(12,0,0,12,402.7,670.1)" />
<use xlink:href="#f3_21" transform="matrix(12,0,0,12,408.9,670.1)" />
<use xlink:href="#f3_2f" transform="matrix(12,0,0,12,417,670.1)" />
<use xlink:href="#f3_25" transform="matrix(12,0,0,12,424.1,670.1)" />
<use xlink:href="#f3_2f" transform="matrix(12,0,0,12,429.2,670.1)" />
<use xlink:href="#f3_2g" transform="matrix(12,0,0,12,436.4,670.1)" />
<use xlink:href="#f3_1x" transform="matrix(12,0,0,12,441.5,670.1)" />
<use xlink:href="#f3_2a" transform="matrix(12,0,0,12,449.6,670.1)" />
<use xlink:href="#f3_1z" transform="matrix(12,0,0,12,458.8,670.1)" />
<use xlink:href="#f3_21" transform="matrix(12,0,0,12,466.9,670.1)" />
<use xlink:href="#f3_i" transform="matrix(12,0,0,12,475.1,670.1)" />
<use xlink:href="#f2_1j" transform="matrix(12,0,0,12,55,693)" />
<use xlink:href="#f2_2b" transform="matrix(12,0,0,12,65.2,693)" />
<use xlink:href="#f2_28" transform="matrix(12,0,0,12,74.4,693)" />
<use xlink:href="#f2_2h" transform="matrix(12,0,0,12,79.5,693)" />
<use xlink:href="#f2_2g" transform="matrix(12,0,0,12,89.7,693)" />
<use xlink:href="#f2_25" transform="matrix(12,0,0,12,95.8,693)" />
<use xlink:href="#f2_2b" transform="matrix(12,0,0,12,100.9,693)" />
<use xlink:href="#f2_2a" transform="matrix(12,0,0,12,110,693)" />
<use xlink:href="#f2_u" transform="matrix(12,0,0,12,120.2,693)" />
<use xlink:href="#f3_1f" transform="matrix(12,0,0,12,55,896.2)" />
<use xlink:href="#f3_2h" transform="matrix(12,0,0,12,68.2,896.2)" />
<use xlink:href="#f3_2g" transform="matrix(12,0,0,12,77.4,896.2)" />
<use xlink:href="#f3_2c" transform="matrix(12,0,0,12,82.5,896.2)" />
<use xlink:href="#f3_2h" transform="matrix(12,0,0,12,91.7,896.2)" />
<use xlink:href="#f3_2g" transform="matrix(12,0,0,12,100.8,896.2)" />
<use xlink:href="#f3_2e" transform="matrix(12,0,0,12,110.5,896.2)" />
<use xlink:href="#f3_21" transform="matrix(12,0,0,12,116.7,896.2)" />
<use xlink:href="#f3_2f" transform="matrix(12,0,0,12,124.8,896.2)" />
<use xlink:href="#f3_25" transform="matrix(12,0,0,12,131.9,896.2)" />
<use xlink:href="#f3_2f" transform="matrix(12,0,0,12,137,896.2)" />
<use xlink:href="#f3_2g" transform="matrix(12,0,0,12,144.1,896.2)" />
<use xlink:href="#f3_1x" transform="matrix(12,0,0,12,149.2,896.2)" />
<use xlink:href="#f3_2a" transform="matrix(12,0,0,12,157.4,896.2)" />
<use xlink:href="#f3_1z" transform="matrix(12,0,0,12,166.5,896.2)" />
<use xlink:href="#f3_21" transform="matrix(12,0,0,12,174.7,896.2)" />
</g>
<path d="M200.3,891.8h34.9" class="g5_170" />
<g clip-path="url(#c3_170)">
<g fill="#000000" >
<use xlink:href="#f3_k" transform="matrix(6.8,0,0,6.9,227.3,889.4)" />
<use xlink:href="#f3_k" transform="matrix(6.8,0,0,6.9,224.7,915.2)" />
<use xlink:href="#f3_1m" transform="matrix(11.8,0,0,11.9,215.5,884.7)" />
<use xlink:href="#f3_19" transform="matrix(11.8,0,0,11.9,218.1,910.5)" />
<use xlink:href="#f4_14" transform="matrix(11.8,0,0,11.9,201.4,884.7)" />
<use xlink:href="#f4_x" transform="matrix(11.8,0,0,11.9,185.6,896.3)" />
<use xlink:href="#f4_14" transform="matrix(11.8,0,0,11.9,204,910.5)" />
</g>
</g>
<g fill="#000000" >
<use xlink:href="#f3_l" transform="matrix(12,0,0,12,55,960.6)" />
<use xlink:href="#f3_p" transform="matrix(12,0,0,12,64.2,960.6)" />
<use xlink:href="#f3_i" transform="matrix(12,0,0,12,73.3,960.6)" />
<use xlink:href="#f3_11" transform="matrix(12,0,0,12,82.5,960.6)" />
<use xlink:href="#f3_2f" transform="matrix(12,0,0,12,100.3,960.6)" />
<use xlink:href="#f3_28" transform="matrix(12,0,0,12,107.5,960.6)" />
<use xlink:href="#f3_1x" transform="matrix(12,0,0,12,112.5,960.6)" />
<use xlink:href="#f3_1y" transform="matrix(12,0,0,12,120.7,960.6)" />
<use xlink:href="#f3_2b" transform="matrix(12,0,0,12,134.4,960.6)" />
<use xlink:href="#f3_22" transform="matrix(12,0,0,12,143.6,960.6)" />
<use xlink:href="#f3_29" transform="matrix(12,0,0,12,154.3,960.6)" />
<use xlink:href="#f3_1x" transform="matrix(12,0,0,12,168.5,960.6)" />
<use xlink:href="#f3_2g" transform="matrix(12,0,0,12,176.6,960.6)" />
<use xlink:href="#f3_21" transform="matrix(12,0,0,12,181.7,960.6)" />
<use xlink:href="#f3_2e" transform="matrix(12,0,0,12,189.9,960.6)" />
<use xlink:href="#f3_25" transform="matrix(12,0,0,12,196,960.6)" />
<use xlink:href="#f3_1x" transform="matrix(12,0,0,12,201.2,960.6)" />
<use xlink:href="#f3_28" transform="matrix(12,0,0,12,209.3,960.6)" />
<use xlink:href="#f3_2b" transform="matrix(12,0,0,12,219,960.6)" />
<use xlink:href="#f3_22" transform="matrix(12,0,0,12,228.1,960.6)" />
<use xlink:href="#f3_20" transform="matrix(12,0,0,12,238.7,960.6)" />
<use xlink:href="#f3_25" transform="matrix(12,0,0,12,247.9,960.6)" />
<use xlink:href="#f3_21" transform="matrix(12,0,0,12,253,960.6)" />
<use xlink:href="#f3_28" transform="matrix(12,0,0,12,261.3,960.6)" />
<use xlink:href="#f3_21" transform="matrix(12,0,0,12,266.4,960.6)" />
<use xlink:href="#f3_1z" transform="matrix(12,0,0,12,274.5,960.6)" />
<use xlink:href="#f3_2g" transform="matrix(12,0,0,12,282.7,960.6)" />
<use xlink:href="#f3_2e" transform="matrix(12,0,0,12,287.8,960.6)" />
<use xlink:href="#f3_25" transform="matrix(12,0,0,12,293.9,960.6)" />
<use xlink:href="#f3_1z" transform="matrix(12,0,0,12,299,960.6)" />
<use xlink:href="#f3_1z" transform="matrix(12,0,0,12,311.7,960.6)" />
<use xlink:href="#f3_2b" transform="matrix(12,0,0,12,319.8,960.6)" />
<use xlink:href="#f3_2a" transform="matrix(12,0,0,12,329,960.6)" />
<use xlink:href="#f3_2f" transform="matrix(12,0,0,12,338.2,960.6)" />
<use xlink:href="#f3_2g" transform="matrix(12,0,0,12,345.3,960.6)" />
<use xlink:href="#f3_1x" transform="matrix(12,0,0,12,350.4,960.6)" />
<use xlink:href="#f3_2a" transform="matrix(12,0,0,12,358.5,960.6)" />
<use xlink:href="#f3_2g" transform="matrix(12,0,0,12,367.7,960.6)" />
<use xlink:href="#f3_1b" transform="matrix(12,0,0,12,377.4,960.6)" />
<use xlink:href="#f3_24" transform="matrix(12,0,0,12,395.2,960.6)" />
<use xlink:href="#f3_1x" transform="matrix(12,0,0,12,404.4,960.6)" />
<use xlink:href="#f3_2f" transform="matrix(12,0,0,12,412.4,960.6)" />
<use xlink:href="#f3_2g" transform="matrix(12,0,0,12,424.1,960.6)" />
<use xlink:href="#f3_24" transform="matrix(12,0,0,12,429.2,960.6)" />
<use xlink:href="#f3_21" transform="matrix(12,0,0,12,438.4,960.6)" />
<use xlink:href="#f3_2f" transform="matrix(12,0,0,12,451.2,960.6)" />
<use xlink:href="#f3_1x" transform="matrix(12,0,0,12,458.3,960.6)" />
<use xlink:href="#f3_29" transform="matrix(12,0,0,12,466.4,960.6)" />
<use xlink:href="#f3_21" transform="matrix(12,0,0,12,480.6,960.6)" />
<use xlink:href="#f3_1x" transform="matrix(12,0,0,12,493.3,960.6)" />
<use xlink:href="#f3_2e" transform="matrix(12,0,0,12,501.5,960.6)" />
<use xlink:href="#f3_21" transform="matrix(12,0,0,12,507.6,960.6)" />
<use xlink:href="#f3_1x" transform="matrix(12,0,0,12,515.8,960.6)" />
<use xlink:href="#f3_1x" transform="matrix(12,0,0,12,528.5,960.6)" />
<use xlink:href="#f3_2f" transform="matrix(12,0,0,12,536.6,960.6)" />
<use xlink:href="#f3_2g" transform="matrix(12,0,0,12,548.3,960.6)" />
<use xlink:href="#f3_24" transform="matrix(12,0,0,12,553.4,960.6)" />
<use xlink:href="#f3_1x" transform="matrix(12,0,0,12,562.6,960.6)" />
<use xlink:href="#f3_2g" transform="matrix(12,0,0,12,570.7,960.6)" />
<use xlink:href="#f3_2b" transform="matrix(12,0,0,12,580.5,960.6)" />
<use xlink:href="#f3_22" transform="matrix(12,0,0,12,589.5,960.6)" />
<use xlink:href="#f3_2g" transform="matrix(12,0,0,12,600.2,960.6)" />
<use xlink:href="#f3_24" transform="matrix(12,0,0,12,605.3,960.6)" />
<use xlink:href="#f3_21" transform="matrix(12,0,0,12,614.5,960.6)" />
<use xlink:href="#f3_2c" transform="matrix(12,0,0,12,627.2,960.6)" />
<use xlink:href="#f3_28" transform="matrix(12,0,0,12,636.4,960.6)" />
<use xlink:href="#f3_1x" transform="matrix(12,0,0,12,641.5,960.6)" />
<use xlink:href="#f3_2g" transform="matrix(12,0,0,12,649.6,960.6)" />
<use xlink:href="#f3_21" transform="matrix(12,0,0,12,654.8,960.6)" />
<use xlink:href="#f3_2f" transform="matrix(12,0,0,12,662.9,960.6)" />
<use xlink:href="#f3_2b" transform="matrix(12,0,0,12,674.5,960.6)" />
<use xlink:href="#f3_22" transform="matrix(12,0,0,12,683.7,960.6)" />
<use xlink:href="#f3_1x" transform="matrix(12,0,0,12,694.4,960.6)" />
<use xlink:href="#f3_2c" transform="matrix(12,0,0,12,707.1,960.6)" />
<use xlink:href="#f3_1x" transform="matrix(12,0,0,12,716.2,960.6)" />
<use xlink:href="#f3_2e" transform="matrix(12,0,0,12,724.4,960.6)" />
<use xlink:href="#f3_1x" transform="matrix(12,0,0,12,730.5,960.6)" />
<use xlink:href="#f3_28" transform="matrix(12,0,0,12,738.6,960.6)" />
<use xlink:href="#f3_28" transform="matrix(12,0,0,12,743.8,960.6)" />
<use xlink:href="#f3_21" transform="matrix(12,0,0,12,748.9,960.6)" />
<use xlink:href="#f3_28" transform="matrix(12,0,0,12,757,960.6)" />
<use xlink:href="#f3_2c" transform="matrix(12,0,0,12,766.6,960.6)" />
<use xlink:href="#f3_28" transform="matrix(12,0,0,12,775.8,960.6)" />
<use xlink:href="#f3_1x" transform="matrix(12,0,0,12,780.9,960.6)" />
<use xlink:href="#f3_2g" transform="matrix(12,0,0,12,789,960.6)" />
<use xlink:href="#f3_21" transform="matrix(12,0,0,12,794.2,960.6)" />
<use xlink:href="#f3_1z" transform="matrix(12,0,0,12,55,983.4)" />
<use xlink:href="#f3_1x" transform="matrix(12,0,0,12,63.1,983.4)" />
<use xlink:href="#f3_2c" transform="matrix(12,0,0,12,71.3,983.4)" />
<use xlink:href="#f3_1x" transform="matrix(12,0,0,12,80.4,983.4)" />
<use xlink:href="#f3_1z" transform="matrix(12,0,0,12,88.6,983.4)" />
<use xlink:href="#f3_25" transform="matrix(12,0,0,12,96.8,983.4)" />
<use xlink:href="#f3_2g" transform="matrix(12,0,0,12,101.9,983.4)" />
<use xlink:href="#f3_2b" transform="matrix(12,0,0,12,107,983.4)" />
<use xlink:href="#f3_2e" transform="matrix(12,0,0,12,116.1,983.4)" />
<use xlink:href="#f3_1y" transform="matrix(12,0,0,12,126.9,983.4)" />
<use xlink:href="#f3_2h" transform="matrix(12,0,0,12,136.1,983.4)" />
<use xlink:href="#f3_2g" transform="matrix(12,0,0,12,145.1,983.4)" />
<use xlink:href="#f3_24" transform="matrix(12,0,0,12,154.8,983.4)" />
<use xlink:href="#f3_1x" transform="matrix(12,0,0,12,164,983.4)" />
<use xlink:href="#f3_2f" transform="matrix(12,0,0,12,172.1,983.4)" />
<use xlink:href="#f3_2g" transform="matrix(12,0,0,12,183.9,983.4)" />
<use xlink:href="#f3_24" transform="matrix(12,0,0,12,189,983.4)" />
<use xlink:href="#f3_21" transform="matrix(12,0,0,12,198.1,983.4)" />
<use xlink:href="#f3_2g" transform="matrix(12,0,0,12,210.8,983.4)" />
<use xlink:href="#f3_24" transform="matrix(12,0,0,12,215.9,983.4)" />
<use xlink:href="#f3_25" transform="matrix(12,0,0,12,225.1,983.4)" />
<use xlink:href="#f3_1z" transform="matrix(12,0,0,12,230.2,983.4)" />
<use xlink:href="#f3_27" transform="matrix(12,0,0,12,238.3,983.4)" />
<use xlink:href="#f3_2a" transform="matrix(12,0,0,12,247.4,983.4)" />
<use xlink:href="#f3_21" transform="matrix(12,0,0,12,256.6,983.4)" />
<use xlink:href="#f3_2f" transform="matrix(12,0,0,12,264.7,983.4)" />
<use xlink:href="#f3_2f" transform="matrix(12,0,0,12,271.9,983.4)" />
<use xlink:href="#f3_m" transform="matrix(12,0,0,12,283.6,983.4)" />
<use xlink:href="#f3_20" transform="matrix(12,0,0,12,292.8,983.4)" />
<use xlink:href="#f3_j" transform="matrix(12,0,0,12,301.9,983.4)" />
<use xlink:href="#f3_n" transform="matrix(12,0,0,12,307,983.4)" />
<use xlink:href="#f3_g" transform="matrix(12,0,0,12,316.2,983.4)" />
<use xlink:href="#f3_2j" transform="matrix(12,0,0,12,325.3,983.4)" />
<use xlink:href="#f3_24" transform="matrix(12,0,0,12,338.6,983.4)" />
<use xlink:href="#f3_21" transform="matrix(12,0,0,12,347.7,983.4)" />
<use xlink:href="#f3_2e" transform="matrix(12,0,0,12,355.9,983.4)" />
<use xlink:href="#f3_21" transform="matrix(12,0,0,12,362,983.4)" />
<use xlink:href="#f3_20" transform="matrix(12,0,0,12,374.7,983.4)" />
<use xlink:href="#f3_25" transform="matrix(12,0,0,12,388.4,983.4)" />
<use xlink:href="#f3_2f" transform="matrix(12,0,0,12,393.6,983.4)" />
<use xlink:href="#f3_2g" transform="matrix(12,0,0,12,405.3,983.4)" />
<use xlink:href="#f3_24" transform="matrix(12,0,0,12,410.4,983.4)" />
<use xlink:href="#f3_21" transform="matrix(12,0,0,12,419.6,983.4)" />
<use xlink:href="#f3_2f" transform="matrix(12,0,0,12,432.3,983.4)" />
<use xlink:href="#f3_21" transform="matrix(12,0,0,12,439.4,983.4)" />
<use xlink:href="#f3_2c" transform="matrix(12,0,0,12,447.6,983.4)" />
<use xlink:href="#f3_1x" transform="matrix(12,0,0,12,456.7,983.4)" />
<use xlink:href="#f3_2e" transform="matrix(12,0,0,12,464.9,983.4)" />
<use xlink:href="#f3_1x" transform="matrix(12,0,0,12,471,983.4)" />
<use xlink:href="#f3_2g" transform="matrix(12,0,0,12,479.1,983.4)" />
<use xlink:href="#f3_25" transform="matrix(12,0,0,12,484.2,983.4)" />
<use xlink:href="#f3_2b" transform="matrix(12,0,0,12,489.4,983.4)" />
<use xlink:href="#f3_2a" transform="matrix(12,0,0,12,498.4,983.4)" />
<use xlink:href="#f3_1y" transform="matrix(12,0,0,12,512.2,983.4)" />
<use xlink:href="#f3_21" transform="matrix(12,0,0,12,521.4,983.4)" />
<use xlink:href="#f3_2g" transform="matrix(12,0,0,12,529.5,983.4)" />
<use xlink:href="#f3_2j" transform="matrix(12,0,0,12,534.6,983.4)" />
<use xlink:href="#f3_21" transform="matrix(12,0,0,12,547.8,983.4)" />
<use xlink:href="#f3_21" transform="matrix(12,0,0,12,556,983.4)" />
<use xlink:href="#f3_2a" transform="matrix(12,0,0,12,564.1,983.4)" />
<use xlink:href="#f3_2g" transform="matrix(12,0,0,12,577.9,983.4)" />
<use xlink:href="#f3_24" transform="matrix(12,0,0,12,583,983.4)" />
<use xlink:href="#f3_21" transform="matrix(12,0,0,12,592.1,983.4)" />
<use xlink:href="#f3_2c" transform="matrix(12,0,0,12,604.8,983.4)" />
<use xlink:href="#f3_28" transform="matrix(12,0,0,12,614,983.4)" />
<use xlink:href="#f3_1x" transform="matrix(12,0,0,12,619.1,983.4)" />
<use xlink:href="#f3_2g" transform="matrix(12,0,0,12,627.3,983.4)" />
<use xlink:href="#f3_21" transform="matrix(12,0,0,12,632.4,983.4)" />
<use xlink:href="#f3_2f" transform="matrix(12,0,0,12,640.5,983.4)" />
<use xlink:href="#f3_i" transform="matrix(12,0,0,12,647.7,983.4)" />
<use xlink:href="#f3_16" transform="matrix(12,0,0,12,656.8,983.4)" />
<use xlink:href="#f3_25" transform="matrix(12,0,0,12,667,983.4)" />
<use xlink:href="#f3_2a" transform="matrix(12,0,0,12,672.1,983.4)" />
<use xlink:href="#f3_20" transform="matrix(12,0,0,12,681.2,983.4)" />
<use xlink:href="#f3_2b" transform="matrix(12,0,0,12,694.9,983.4)" />
<use xlink:href="#f3_2h" transform="matrix(12,0,0,12,704.1,983.4)" />
<use xlink:href="#f3_2g" transform="matrix(12,0,0,12,713.3,983.4)" />
<use xlink:href="#f3_2g" transform="matrix(12,0,0,12,723,983.4)" />
<use xlink:href="#f3_24" transform="matrix(12,0,0,12,728.1,983.4)" />
<use xlink:href="#f3_21" transform="matrix(12,0,0,12,737.3,983.4)" />
<use xlink:href="#f3_21" transform="matrix(12,0,0,12,750,983.4)" />
<use xlink:href="#f3_2k" transform="matrix(12,0,0,12,758.1,983.4)" />
<use xlink:href="#f3_2c" transform="matrix(12,0,0,12,767.2,983.4)" />
<use xlink:href="#f3_2e" transform="matrix(12,0,0,12,776.4,983.4)" />
<use xlink:href="#f3_21" transform="matrix(12,0,0,12,782.5,983.4)" />
<use xlink:href="#f3_2f" transform="matrix(12,0,0,12,790.7,983.4)" />
<use xlink:href="#f3_2f" transform="matrix(12,0,0,12,797.8,983.4)" />
<use xlink:href="#f3_25" transform="matrix(12,0,0,12,805,983.4)" />
<use xlink:href="#f3_2b" transform="matrix(12,0,0,12,810.1,983.4)" />
<use xlink:href="#f3_2a" transform="matrix(12,0,0,12,819.3,983.4)" />
<use xlink:href="#f3_22" transform="matrix(12,0,0,12,833.3,983.4)" />
<use xlink:href="#f3_2b" transform="matrix(12,0,0,12,839.4,983.4)" />
<use xlink:href="#f3_2e" transform="matrix(12,0,0,12,848.5,983.4)" />
<use xlink:href="#f3_25" transform="matrix(12,0,0,12,55,1006.2)" />
<use xlink:href="#f3_2g" transform="matrix(12,0,0,12,60.1,1006.2)" />
<use xlink:href="#f3_2f" transform="matrix(12,0,0,12,65.3,1006.2)" />
<use xlink:href="#f3_1z" transform="matrix(12,0,0,12,77,1006.2)" />
<use xlink:href="#f3_1x" transform="matrix(12,0,0,12,85.1,1006.2)" />
<use xlink:href="#f3_2c" transform="matrix(12,0,0,12,93.3,1006.2)" />
<use xlink:href="#f3_1x" transform="matrix(12,0,0,12,102.4,1006.2)" />
<use xlink:href="#f3_1z" transform="matrix(12,0,0,12,110.6,1006.2)" />
<use xlink:href="#f3_25" transform="matrix(12,0,0,12,118.7,1006.2)" />
<use xlink:href="#f3_2g" transform="matrix(12,0,0,12,123.8,1006.2)" />
<use xlink:href="#f3_1x" transform="matrix(12,0,0,12,128.9,1006.2)" />
<use xlink:href="#f3_2a" transform="matrix(12,0,0,12,137.1,1006.2)" />
<use xlink:href="#f3_1z" transform="matrix(12,0,0,12,146.1,1006.2)" />
<use xlink:href="#f3_21" transform="matrix(12,0,0,12,154.3,1006.2)" />
<use xlink:href="#f3_2j" transform="matrix(12,0,0,12,167,1006.2)" />
<use xlink:href="#f3_24" transform="matrix(12,0,0,12,180.2,1006.2)" />
<use xlink:href="#f3_21" transform="matrix(12,0,0,12,189.4,1006.2)" />
<use xlink:href="#f3_2a" transform="matrix(12,0,0,12,197.5,1006.2)" />
<use xlink:href="#f3_2g" transform="matrix(12,0,0,12,211.3,1006.2)" />
<use xlink:href="#f3_24" transform="matrix(12,0,0,12,216.4,1006.2)" />
<use xlink:href="#f3_21" transform="matrix(12,0,0,12,225.5,1006.2)" />
<use xlink:href="#f3_2f" transform="matrix(12,0,0,12,238.2,1006.2)" />
<use xlink:href="#f3_28" transform="matrix(12,0,0,12,245.4,1006.2)" />
<use xlink:href="#f3_1x" transform="matrix(12,0,0,12,250.5,1006.2)" />
<use xlink:href="#f3_1y" transform="matrix(12,0,0,12,258.6,1006.2)" />
<use xlink:href="#f3_25" transform="matrix(12,0,0,12,272.4,1006.2)" />
<use xlink:href="#f3_2f" transform="matrix(12,0,0,12,277.5,1006.2)" />
<use xlink:href="#f3_25" transform="matrix(12,0,0,12,289.2,1006.2)" />
<use xlink:href="#f3_2a" transform="matrix(12,0,0,12,294.3,1006.2)" />
<use xlink:href="#f3_2f" transform="matrix(12,0,0,12,303.5,1006.2)" />
<use xlink:href="#f3_21" transform="matrix(12,0,0,12,310.6,1006.2)" />
<use xlink:href="#f3_2e" transform="matrix(12,0,0,12,318.7,1006.2)" />
<use xlink:href="#f3_2g" transform="matrix(12,0,0,12,324.8,1006.2)" />
<use xlink:href="#f3_21" transform="matrix(12,0,0,12,329.9,1006.2)" />
<use xlink:href="#f3_20" transform="matrix(12,0,0,12,338,1006.2)" />
<use xlink:href="#f3_1y" transform="matrix(12,0,0,12,351.8,1006.2)" />
<use xlink:href="#f3_21" transform="matrix(12,0,0,12,360.9,1006.2)" />
<use xlink:href="#f3_2g" transform="matrix(12,0,0,12,369.1,1006.2)" />
<use xlink:href="#f3_2j" transform="matrix(12,0,0,12,374.2,1006.2)" />
<use xlink:href="#f3_21" transform="matrix(12,0,0,12,387.4,1006.2)" />
<use xlink:href="#f3_21" transform="matrix(12,0,0,12,395.6,1006.2)" />
<use xlink:href="#f3_2a" transform="matrix(12,0,0,12,403.7,1006.2)" />
<use xlink:href="#f3_2g" transform="matrix(12,0,0,12,417.5,1006.2)" />
<use xlink:href="#f3_24" transform="matrix(12,0,0,12,422.5,1006.2)" />
<use xlink:href="#f3_21" transform="matrix(12,0,0,12,431.7,1006.2)" />
<use xlink:href="#f3_2c" transform="matrix(12,0,0,12,444.4,1006.2)" />
<use xlink:href="#f3_28" transform="matrix(12,0,0,12,453.6,1006.2)" />
<use xlink:href="#f3_1x" transform="matrix(12,0,0,12,458.7,1006.2)" />
<use xlink:href="#f3_2g" transform="matrix(12,0,0,12,466.9,1006.2)" />
<use xlink:href="#f3_21" transform="matrix(12,0,0,12,472,1006.2)" />
<use xlink:href="#f3_2f" transform="matrix(12,0,0,12,480.1,1006.2)" />
<use xlink:href="#f3_2b" transform="matrix(12,0,0,12,491.8,1006.2)" />
<use xlink:href="#f3_22" transform="matrix(12,0,0,12,501,1006.2)" />
<use xlink:href="#f3_2g" transform="matrix(12,0,0,12,511.6,1006.2)" />
<use xlink:href="#f3_24" transform="matrix(12,0,0,12,516.9,1006.2)" />
<use xlink:href="#f3_21" transform="matrix(12,0,0,12,526,1006.2)" />
<use xlink:href="#f3_1z" transform="matrix(12,0,0,12,538.8,1006.2)" />
<use xlink:href="#f3_1x" transform="matrix(12,0,0,12,546.9,1006.2)" />
<use xlink:href="#f3_2c" transform="matrix(12,0,0,12,555,1006.2)" />
<use xlink:href="#f3_1x" transform="matrix(12,0,0,12,564.2,1006.2)" />
<use xlink:href="#f3_1z" transform="matrix(12,0,0,12,572.4,1006.2)" />
<use xlink:href="#f3_25" transform="matrix(12,0,0,12,580.5,1006.2)" />
<use xlink:href="#f3_2g" transform="matrix(12,0,0,12,585.6,1006.2)" />
<use xlink:href="#f3_2b" transform="matrix(12,0,0,12,590.7,1006.2)" />
<use xlink:href="#f3_2e" transform="matrix(12,0,0,12,599.8,1006.2)" />
<use xlink:href="#f2_1j" transform="matrix(12,0,0,12,55,1028.9)" />
<use xlink:href="#f2_2b" transform="matrix(12,0,0,12,65.2,1028.9)" />
<use xlink:href="#f2_28" transform="matrix(12,0,0,12,74.4,1028.9)" />
<use xlink:href="#f2_2h" transform="matrix(12,0,0,12,79.5,1028.9)" />
<use xlink:href="#f2_2g" transform="matrix(12,0,0,12,89.7,1028.9)" />
<use xlink:href="#f2_25" transform="matrix(12,0,0,12,95.8,1028.9)" />
<use xlink:href="#f2_2b" transform="matrix(12,0,0,12,100.9,1028.9)" />
<use xlink:href="#f2_2a" transform="matrix(12,0,0,12,110.1,1028.9)" />
<use xlink:href="#f2_u" transform="matrix(12,0,0,12,120.3,1028.9)" />
</g>
<image preserveAspectRatio="none" x="55" y="127" width="377" height="114" xlink:href="img/6.png" />
<image preserveAspectRatio="none" x="55" y="698" width="217" height="167" xlink:href="img/7.png" />
<image preserveAspectRatio="none" x="55" y="1034" width="91" height="145" xlink:href="img/8.png" />
<path fill-rule="evenodd" d="M37.4,38.1h.7v-.7h-.7v.7Z" class="g6_170" />
<path fill-rule="evenodd" d="M37.4,38.1h.7v-.7h-.7v.7Z" class="g6_170" />
<path fill-rule="evenodd" d="M38.1,38.1H871.5v-.7H38.1v.7Z" class="g6_170" />
<path fill-rule="evenodd" d="M871.5,38.1h.7v-.7h-.7v.7Z" class="g6_170" />
<path fill-rule="evenodd" d="M871.5,38.1h.7v-.7h-.7v.7Z" class="g6_170" />
<path fill-rule="evenodd" d="M37.4,1248.2h.7V38.1h-.7V1248.2Z" class="g6_170" />
<path fill-rule="evenodd" d="M872.2,1248.2h.8V38.1h-.8V1248.2Z" class="g6_170" />
<path fill-rule="evenodd" d="M871.5,1248.2h.7V38.1h-.7V1248.2Z" class="g6_170" />
<path fill-rule="evenodd" d="M37.4,1249h.7v-.8h-.7v.8Z" class="g6_170" />
<path fill-rule="evenodd" d="M37.4,1249h.7v-.8h-.7v.8Z" class="g6_170" />
<path fill-rule="evenodd" d="M38.1,1249.7H871.5v-.7H38.1v.7Z" class="g6_170" />
<path fill-rule="evenodd" d="M38.1,1249H871.5v-.8H38.1v.8Z" class="g6_170" />
<path fill-rule="evenodd" d="M872.2,1249.7h.8v-1.5h-.8v1.5Z" class="g6_170" />
<path fill-rule="evenodd" d="M871.5,1249.7H873v-.7h-1.5v.7Z" class="g6_170" />
<path fill-rule="evenodd" d="M871.5,1249h.7v-.8h-.7v.8Z" class="g6_170" />
<path fill-rule="evenodd" d="M871.5,1249h.7v-.8h-.7v.8Z" class="g6_170" />
<defs>
<path d="M489,-15c0,0,-99,0,-179,30c0,0,-80,30,-136,91c0,0,-56,61,-85,152c0,0,-30,91,-30,212c0,0,0,123,32,218c0,0,33,96,92,161c0,0,59,65,142,98c0,0,82,34,181,34c0,0,40,0,78,-7c0,0,37,-7,69,-18c0,0,31,-11,57,-25c0,0,25,-14,35,-24c0,0,10,-10,14,-17c0,0,4,-7,6,-17c0,0,2,-11,3,-25c0,0,2,-14,2,-35c0,0,0,-22,-2,-38c0,0,-1,-15,-5,-25c0,0,-4,-10,-9,-14c0,0,-5,-5,-12,-5c0,0,-11,0,-28,13c0,0,-18,13,-45,29c0,0,-27,16,-65,29c0,0,-37,13,-89,13c0,0,-58,0,-103,-23c0,0,-45,-23,-77,-67c0,0,-31,-44,-48,-106c0,0,-16,-61,-16,-139c0,0,0,-85,17,-147c0,0,18,-62,50,-103c0,0,33,-40,79,-60c0,0,45,-19,103,-19c0,0,52,0,90,12c0,0,38,12,65,27c0,0,27,15,45,27c0,0,17,12,27,12c0,0,8,0,12,-3c0,0,4,-3,7,-12c0,0,3,-9,5,-25c0,0,1,-16,1,-43c0,0,0,-18,-1,-31c0,0,-1,-14,-3,-23c0,0,-2,-9,-6,-16c0,0,-4,-7,-12,-15c0,0,-8,-9,-32,-22c0,0,-23,-14,-57,-26C661,13,627,1,583,-6c0,0,-43,-9,-94,-9Z" 
id="f0_j"
transform="scale(0.001,-0.001)" />

<path d="M440,150c0,0,41,0,68,8c0,0,28,9,49,26c0,0,20,16,32,41c0,0,11,25,11,58c0,0,0,33,-11,60c0,0,-11,26,-33,44c0,0,-21,18,-55,28c0,0,-33,9,-87,9H298V150ZM407,567c0,0,42,0,68,10c0,0,25,10,42,28c0,0,16,17,24,41c0,0,9,24,9,50c0,0,0,29,-9,52c0,0,-9,23,-27,39c0,0,-18,15,-45,23c0,0,-27,8,-72,8H298V567ZM164,0c0,0,-25,0,-42,15c0,0,-16,14,-16,47V903c0,0,0,33,16,48c0,0,17,14,42,14H406c0,0,88,0,150,-15c0,0,61,-15,103,-45c0,0,42,-30,65,-77c0,0,22,-46,22,-108c0,0,0,-36,-9,-67c0,0,-9,-31,-26,-56c0,0,-17,-25,-42,-45c0,0,-25,-19,-57,-31c0,0,41,-7,76,-26c0,0,34,-19,60,-48c0,0,26,-30,41,-69c0,0,15,-40,15,-89c0,0,0,-51,-14,-93c0,0,-15,-42,-40,-74c0,0,-25,-32,-59,-55c0,0,-35,-23,-77,-38C614,29,573,14,525,7C525,7,478,0,420,0Z" 
id="f0_i"
transform="scale(0.001,-0.001)" />

<path d="M320,-17c0,0,-50,0,-93,9c0,0,-43,8,-76,19c0,0,-32,11,-54,24C97,35,75,48,65,58c0,0,-10,9,-14,28c0,0,-4,18,-4,52c0,0,0,23,1,39c0,0,2,15,5,25c0,0,4,10,9,14c0,0,6,4,13,4c0,0,11,0,30,-12c0,0,19,-13,49,-28c0,0,30,-15,71,-27c0,0,42,-12,96,-12c0,0,36,0,64,8c0,0,29,9,49,25c0,0,19,15,30,38c0,0,10,23,10,52c0,0,0,33,-18,56c0,0,-18,24,-46,42c0,0,-29,18,-66,34c0,0,-36,16,-75,34c0,0,-39,18,-76,41c0,0,-36,23,-65,54c0,0,-29,32,-47,75c0,0,-17,44,-17,104c0,0,0,70,25,122c0,0,26,53,70,88c0,0,43,34,103,51c0,0,59,18,125,18c0,0,35,0,69,-6c0,0,34,-5,64,-14c0,0,30,-9,53,-20c0,0,23,-11,31,-18c0,0,7,-8,10,-13c0,0,3,-5,4,-14c0,0,2,-8,3,-21c0,0,1,-13,1,-33c0,0,0,-21,-1,-36c0,0,-1,-15,-4,-25c0,0,-3,-9,-7,-14c0,0,-5,-4,-14,-4c0,0,-8,0,-26,10c0,0,-18,10,-44,23c0,0,-26,12,-60,22c0,0,-34,10,-75,10c0,0,-32,0,-56,-8c0,0,-24,-8,-40,-21c0,0,-16,-14,-24,-34c0,0,-8,-19,-8,-41c0,0,0,-32,18,-56c0,0,17,-23,46,-42c0,0,30,-18,67,-34c0,0,38,-16,76,-34c0,0,39,-18,76,-41c0,0,38,-22,67,-54c0,0,29,-32,47,-75c0,0,18,-43,18,-101c0,0,0,-76,-29,-133c0,0,-28,-58,-77,-96C572,60,524,21,459,2c0,0,-65,-19,-139,-19Z" 
id="f0_2n"
transform="scale(0.001,-0.001)" />

<path d="M164,0c0,0,-25,0,-42,15c0,0,-16,14,-16,47V903c0,0,0,33,16,48c0,0,17,14,42,14H645c0,0,7,0,12,-4c0,0,5,-3,9,-13c0,0,4,-9,6,-24c0,0,2,-14,2,-36c0,0,0,-21,-2,-36c0,0,-2,-14,-6,-23c0,0,-4,-9,-9,-13c0,0,-5,-4,-12,-4H301V576H593c0,0,6,0,12,-4c0,0,6,-4,9,-13c0,0,4,-8,6,-23c0,0,2,-14,2,-35c0,0,0,-22,-2,-36c0,0,-2,-14,-6,-23c0,0,-3,-8,-9,-12c0,0,-6,-4,-12,-4H301V154H649c0,0,6,0,12,-5c0,0,5,-4,9,-13c0,0,4,-9,6,-23c0,0,2,-15,2,-36c0,0,0,-22,-2,-36c0,0,-2,-15,-6,-24c0,0,-4,-9,-9,-13c0,0,-6,-4,-12,-4Z" 
id="f0_t"
transform="scale(0.001,-0.001)" />

<path d="M79,297c0,0,-19,0,-27,18c0,0,-8,17,-8,60c0,0,0,41,8,59c0,0,8,17,27,17H389c0,0,9,0,15,-4c0,0,7,-4,11,-13c0,0,5,-9,7,-23c0,0,1,-15,1,-36c0,0,0,-43,-8,-61c0,0,-8,-17,-26,-17Z" 
id="f0_oj"
transform="scale(0.001,-0.001)" />

<path d="M121,-4c0,0,-39,0,-60,2C61,-2,39,0,32,8c0,0,-8,8,-3,24c0,0,4,15,18,41L279,495L64,892c0,0,-14,26,-19,42c0,0,-5,17,4,24c0,0,9,8,32,10c0,0,23,2,65,2c0,0,35,0,56,-2c0,0,20,-1,32,-4c0,0,12,-4,17,-10c0,0,5,-6,9,-15L431,620L595,939c0,0,5,9,10,15c0,0,5,6,16,10c0,0,10,3,29,4c0,0,19,2,53,2c0,0,37,0,59,-2c0,0,22,-2,30,-10c0,0,8,-8,4,-24c0,0,-4,-16,-17,-42L564,497L793,73c0,0,14,-26,18,-41c0,0,4,-16,-5,-24c0,0,-9,-8,-32,-10c0,0,-24,-2,-65,-2c0,0,-36,0,-56,2c0,0,-20,1,-31,3c0,0,-12,4,-17,10c0,0,-5,6,-9,15L414,374L233,26c0,0,-4,-9,-9,-15c0,0,-6,-6,-17,-10c0,0,-12,-2,-32,-3c0,0,-21,-2,-54,-2Z" 
id="f0_3e"
transform="scale(0.001,-0.001)" />

<path d="M204,-4c0,0,-28,0,-47,2c0,0,-19,2,-31,5c0,0,-11,4,-16,10c0,0,-4,6,-4,13V939c0,0,0,7,4,13c0,0,5,6,17,10c0,0,11,3,30,6c0,0,19,2,47,2c0,0,29,0,48,-2c0,0,18,-3,29,-6c0,0,11,-4,16,-10c0,0,5,-6,5,-13V26c0,0,0,-7,-5,-13c0,0,-5,-6,-16,-10c0,0,-11,-3,-29,-5c0,0,-19,-2,-48,-2Z" 
id="f0_1c"
transform="scale(0.001,-0.001)" />

<path d="M127,0c0,0,-16,0,-28,3C99,3,87,6,80,15c0,0,-8,8,-11,25c0,0,-3,16,-3,42c0,0,0,25,2,42c0,0,2,18,8,32c0,0,6,14,15,27c0,0,9,13,24,29L282,390c0,0,50,53,81,95c0,0,30,43,47,79c0,0,17,35,24,65c0,0,6,30,6,57c0,0,0,24,-8,46c0,0,-8,22,-23,39c0,0,-15,16,-38,25c0,0,-23,10,-55,10c0,0,-44,0,-78,-12c0,0,-33,-11,-59,-25c0,0,-26,-13,-43,-25c0,0,-17,-12,-27,-12c0,0,-7,0,-11,5c0,0,-5,4,-8,15c0,0,-3,10,-5,28c0,0,-2,17,-2,42c0,0,0,18,1,29c0,0,1,12,4,20c0,0,2,9,6,15c0,0,3,6,13,15c0,0,9,9,34,23c0,0,25,14,61,27c0,0,37,14,81,23c0,0,44,9,92,9c0,0,75,0,131,-19c0,0,57,-19,94,-53c0,0,37,-34,55,-81c0,0,19,-47,19,-100c0,0,0,-47,-9,-93c0,0,-9,-45,-37,-98c0,0,-29,-52,-80,-116c0,0,-52,-64,-136,-148L299,159H679c0,0,8,0,14,-4c0,0,6,-5,11,-14c0,0,4,-9,7,-25c0,0,2,-15,2,-36c0,0,0,-22,-2,-37c0,0,-2,-15,-6,-25c0,0,-3,-10,-9,-14c0,0,-6,-4,-14,-4Z" 
id="f0_rz"
transform="scale(0.001,-0.001)" />

<path d="M385,138c0,0,29,0,52,9c0,0,22,10,39,28c0,0,17,19,28,47c0,0,11,29,19,66c0,0,7,37,9,84c0,0,3,47,3,104c0,0,0,69,-4,122c0,0,-4,52,-11,91c0,0,-8,39,-20,66c0,0,-12,27,-28,43c0,0,-16,16,-37,22c0,0,-21,7,-47,7c0,0,-44,0,-73,-21c0,0,-28,-21,-45,-64c0,0,-17,-42,-24,-106c0,0,-6,-63,-6,-148c0,0,0,-103,8,-171c0,0,8,-67,26,-107c0,0,17,-40,45,-56c0,0,27,-16,66,-16ZM378,-17c0,0,-99,0,-164,33c0,0,-65,34,-103,98c0,0,-38,64,-54,156c0,0,-15,92,-15,209c0,0,0,115,19,208c0,0,19,94,61,160c0,0,42,65,110,101c0,0,68,35,165,35c0,0,99,0,164,-34c0,0,65,-34,103,-98c0,0,39,-64,53,-156c0,0,15,-92,15,-209c0,0,0,-115,-18,-209c0,0,-19,-93,-61,-159C653,118,611,53,543,17c0,0,-67,-34,-165,-34Z" 
id="f0_rx"
transform="scale(0.001,-0.001)" />

<path d="M142,0c0,0,-6,0,-12,4c0,0,-5,3,-9,12c0,0,-4,9,-6,23c0,0,-3,15,-3,36c0,0,0,21,2,36c0,0,2,14,6,23c0,0,4,9,10,13c0,0,5,5,12,5H322V779L166,693c0,0,-17,-8,-28,-10c0,0,-1,0,-3,0c-4,0,-10,1,-14,5c0,0,-6,6,-8,22c0,0,-2,15,-2,44c0,0,0,18,0,29c0,0,1,12,4,20c0,0,3,8,8,14c0,0,5,5,14,11L345,962c0,0,4,3,9,5c0,0,6,2,15,3c0,0,9,1,23,2c0,0,15,0,38,0c0,0,28,0,46,-1c0,0,17,-1,26,-4c0,0,9,-3,12,-7c0,0,3,-4,3,-11V152H675c0,0,7,0,12,-5c0,0,6,-4,10,-13c0,0,4,-9,6,-23c0,0,2,-15,2,-36c0,0,0,-21,-2,-36c0,0,-3,-14,-7,-23c0,0,-4,-9,-9,-12c0,0,-5,-4,-12,-4Z" 
id="f0_ry"
transform="scale(0.001,-0.001)" />

<path d="M337,-17c0,0,-50,0,-93,8c0,0,-43,7,-76,16c0,0,-34,11,-55,22c0,0,-22,11,-29,17c0,0,-6,6,-10,13c0,0,-3,8,-6,18c0,0,-2,10,-3,25c0,0,-1,16,-1,37c0,0,0,36,6,50c0,0,6,13,17,13c0,0,8,0,26,-10c0,0,18,-10,47,-21c0,0,28,-12,66,-22c0,0,38,-10,87,-10c0,0,41,0,72,10c0,0,31,9,53,27c0,0,22,17,33,42c0,0,11,25,11,56c0,0,0,34,-13,61c0,0,-13,26,-39,45c0,0,-26,20,-65,30c0,0,-39,10,-92,10H189c0,0,-9,0,-16,3c0,0,-7,3,-11,11c0,0,-5,8,-7,23c0,0,-1,14,-1,37c0,0,0,22,1,36c0,0,2,13,6,21c0,0,4,7,11,10c0,0,6,3,15,3h85c0,0,43,0,77,10c0,0,33,10,56,29c0,0,23,19,35,45c0,0,12,27,12,59c0,0,0,25,-8,47c0,0,-9,22,-25,38c0,0,-16,16,-41,26c0,0,-26,9,-60,9c0,0,-39,0,-73,-11c0,0,-34,-12,-62,-26c0,0,-27,-13,-46,-25c0,0,-19,-12,-28,-12c0,0,-6,0,-10,2c0,0,-5,3,-8,11c0,0,-3,7,-4,21c0,0,-2,14,-2,37c0,0,0,18,1,31c0,0,1,12,3,20c0,0,2,8,5,14c0,0,4,6,11,13c0,0,8,7,31,21c0,0,23,14,58,28c0,0,35,13,81,22c0,0,46,10,100,10c0,0,70,0,124,-17c0,0,54,-16,91,-47c0,0,37,-31,56,-76c0,0,19,-46,19,-102c0,0,0,-44,-11,-83c0,0,-12,-38,-33,-68c0,0,-22,-29,-54,-50c0,0,-33,-21,-75,-32v-2c0,0,50,-6,91,-26c0,0,40,-19,68,-49c0,0,28,-30,43,-68c0,0,15,-37,15,-81c0,0,0,-72,-28,-128c0,0,-27,-56,-77,-94C604,60,555,22,487,2c0,0,-69,-19,-150,-19Z" 
id="f0_s0"
transform="scale(0.001,-0.001)" />

<path d="M589,371L453,782h-1L317,371ZM106,-4c0,0,-35,0,-54,2C52,-2,32,0,25,8c0,0,-7,9,-5,24c0,0,2,16,11,42L329,931c0,0,4,13,10,21c0,0,6,7,19,12c0,0,13,4,36,5c0,0,23,1,61,1c0,0,44,0,71,-1c0,0,26,-1,40,-5c0,0,15,-5,21,-13c0,0,6,-8,11,-22L896,73c0,0,9,-27,11,-43c0,0,3,-15,-6,-23c0,0,-8,-7,-29,-9c0,0,-21,-2,-57,-2c0,0,-38,0,-59,1c0,0,-22,1,-33,4c0,0,-11,3,-16,9c0,0,-4,6,-7,16L635,220H272L211,31c0,0,-2,-11,-7,-18c0,0,-5,-7,-16,-11c0,0,-11,-3,-31,-4c0,0,-19,-2,-51,-2Z" 
id="f0_5"
transform="scale(0.001,-0.001)" />

<path d="M198,-4c0,0,-27,0,-45,2c0,0,-18,2,-28,5c0,0,-11,4,-15,10c0,0,-4,6,-4,13V887c0,0,0,38,20,58c0,0,20,20,53,20H308c0,0,34,0,59,-6c0,0,24,-5,42,-18c0,0,18,-13,30,-35c0,0,12,-21,21,-52L669,279h3L889,852c0,0,9,32,21,53c0,0,11,22,27,35c0,0,15,14,36,19c0,0,21,6,48,6h132c0,0,21,0,35,-5c0,0,15,-5,24,-15c0,0,9,-11,14,-25c0,0,5,-15,5,-33V26c0,0,0,-7,-4,-13c0,0,-4,-6,-15,-10c0,0,-11,-3,-29,-5c0,0,-18,-2,-45,-2c0,0,-27,0,-45,2c0,0,-18,2,-28,5c0,0,-11,4,-15,10c0,0,-5,6,-5,13V813h-1L764,27c0,0,-3,-10,-10,-16c0,0,-6,-6,-18,-10c0,0,-12,-3,-29,-4c0,0,-18,-1,-44,-1c0,0,-25,0,-43,2c0,0,-18,2,-29,5c0,0,-12,4,-19,10c0,0,-6,6,-9,14L293,813h-2V26c0,0,0,-7,-4,-13c0,0,-4,-6,-15,-10c0,0,-11,-3,-29,-5c0,0,-17,-2,-45,-2Z" 
id="f0_1x"
transform="scale(0.001,-0.001)" />

<path d="M193,-4c0,0,-26,0,-43,2c0,0,-18,2,-27,6c0,0,-10,4,-14,10c0,0,-3,6,-3,13V895c0,0,0,35,20,53c0,0,21,17,50,17H282c0,0,28,0,47,-5c0,0,20,-5,35,-16c0,0,15,-11,29,-31c0,0,13,-20,27,-49L608,511c0,0,17,-32,33,-63c0,0,16,-31,31,-62c0,0,14,-31,29,-60c0,0,14,-30,27,-60h1c0,0,-2,52,-3,109c0,0,-1,57,-1,108V936c0,0,0,7,4,13c0,0,5,6,15,11c0,0,10,4,28,6c0,0,17,2,44,2c0,0,25,0,42,-2c0,0,17,-2,27,-6c0,0,9,-5,13,-11c0,0,4,-6,4,-13V68c0,0,0,-17,-6,-30c0,0,-6,-14,-17,-23C879,15,869,6,856,2c0,0,-14,-3,-28,-3H744c0,0,-26,0,-45,4c0,0,-19,5,-35,19c0,0,-16,14,-31,38c0,0,-15,23,-34,60L359,572c0,0,-21,40,-43,86c0,0,-21,47,-38,91h-2c0,0,3,-54,5,-107c0,0,2,-53,2,-110V27c0,0,0,-7,-5,-13c0,0,-4,-6,-14,-10c0,0,-10,-4,-27,-6c0,0,-17,-2,-44,-2Z" 
id="f0_1y"
transform="scale(0.001,-0.001)" />

<path d="M378,-4c0,0,-28,0,-47,2c0,0,-19,2,-31,5c0,0,-11,4,-16,10c0,0,-4,6,-4,13V805H38c0,0,-8,0,-13,4c0,0,-5,5,-9,14c0,0,-3,9,-5,25c0,0,-2,15,-2,37c0,0,0,22,2,38c0,0,2,15,5,25c0,0,4,9,9,13c0,0,5,4,13,4H718c0,0,7,0,12,-4c0,0,6,-4,10,-13c0,0,3,-10,5,-25c0,0,2,-16,2,-38c0,0,0,-22,-2,-37c0,0,-2,-16,-5,-25c0,0,-4,-9,-10,-14c0,0,-5,-4,-12,-4H476V26c0,0,0,-7,-5,-13c0,0,-5,-6,-16,-10c0,0,-11,-3,-30,-5c0,0,-19,-2,-47,-2Z" 
id="f0_2t"
transform="scale(0.001,-0.001)" />

<path d="M514,145c0,0,72,0,121,27c0,0,48,26,78,73c0,0,30,46,42,107c0,0,13,62,13,131c0,0,0,76,-12,139c0,0,-12,62,-41,106c0,0,-29,45,-76,69c0,0,-48,24,-120,24c0,0,-72,0,-120,-27c0,0,-49,-27,-79,-73c0,0,-29,-45,-42,-106c0,0,-12,-61,-12,-129c0,0,0,-79,12,-142c0,0,12,-63,40,-108c0,0,28,-44,76,-68c0,0,48,-23,120,-23ZM508,-17c0,0,-113,0,-196,29c0,0,-84,29,-140,90c0,0,-56,60,-84,154c0,0,-28,93,-28,221c0,0,0,117,29,210c0,0,30,94,89,160c0,0,59,65,146,101c0,0,87,35,202,35c0,0,110,0,194,-29c0,0,84,-30,140,-90c0,0,56,-60,85,-153c0,0,29,-92,29,-217c0,0,0,-120,-30,-215c0,0,-30,-95,-89,-161C855,118,796,52,709,17c0,0,-87,-34,-201,-34Z" 
id="f0_24"
transform="scale(0.001,-0.001)" />

<path d="M340,-13c0,0,-73,0,-129,20C211,7,155,27,86,74l22,217c0,0,156,-103,245,-103c0,0,64,0,112,45c0,0,47,46,47,107c0,0,0,68,-47,113c0,0,-48,46,-121,46c0,0,-85,0,-184,-42l48,495H681V777H393L382,665c0,0,163,0,251,-95c0,0,88,-95,88,-224c0,0,0,-146,-113,-253C608,93,494,-13,340,-13Z" 
id="f1_p"
transform="scale(0.001,-0.001)" />

<path d="M44,-281L425,1053H537L156,-281Z" 
id="f1_j"
transform="scale(0.001,-0.001)" />

<path d="M299,0V777H162l36,173H508V0Z" 
id="f1_l"
transform="scale(0.001,-0.001)" />

<path d="M186,-28L17,77L450,779H39V952H793L186,-28Z" 
id="f1_r"
transform="scale(0.001,-0.001)" />

<path d="M410,-14c0,0,-86,0,-175,14C235,0,145,14,81,38V307h66L181,146c0,0,31,-37,94,-62c0,0,64,-24,132,-24c0,0,214,0,214,177c0,0,0,55,-41,93c0,0,-41,38,-128,68c0,0,-128,42,-185,68c0,0,-56,27,-95,63c0,0,-38,36,-62,87c0,0,-23,51,-23,125c0,0,0,132,90,201c0,0,90,69,263,69c0,0,125,0,278,-32V741H651L618,878c0,0,-76,56,-178,56c0,0,-92,0,-141,-34c0,0,-49,-34,-49,-104c0,0,0,-50,41,-86c0,0,41,-35,128,-63c0,0,171,-56,235,-97c0,0,64,-41,97,-103c0,0,34,-61,34,-143c0,0,0,-318,-375,-318Z" 
id="f2_1j"
transform="scale(0.001,-0.001)" />

<path d="M379,60c0,0,59,0,84,64c0,0,24,65,24,231c0,0,0,164,-24,227c0,0,-24,63,-84,63c0,0,-57,0,-80,-60c0,0,-22,-61,-22,-230c0,0,0,-173,23,-234c0,0,22,-61,79,-61Zm-2,-74c0,0,-161,0,-240,91c0,0,-79,91,-79,277c0,0,0,186,80,276c0,0,81,90,245,90c0,0,167,0,245,-93c0,0,78,-93,78,-273c0,0,0,-188,-81,-278c0,0,-81,-90,-248,-90Z" 
id="f2_2b"
transform="scale(0.001,-0.001)" />

<path d="M30,0V49l76,18V992l-72,18v50H322V67L398,49V0Z" 
id="f2_28"
transform="scale(0.001,-0.001)" />

<path d="M287,-18c0,0,-194,0,-194,206V634L23,652v49H309V217c0,0,0,-63,26,-98c0,0,27,-35,76,-35c0,0,57,0,113,25V634l-64,18v49H740V67L809,49V0H536L526,61L475,35c0,0,-104,-53,-188,-53Z" 
id="f2_2h"
transform="scale(0.001,-0.001)" />

<path d="M327,-14c0,0,-101,0,-156,45c0,0,-55,45,-55,131V624H25v48l108,29l87,159H332V701H480V624H332V176c0,0,0,-49,20,-73c0,0,20,-25,53,-25c0,0,40,0,97,12V26c0,0,-22,-15,-76,-27c0,0,-55,-13,-99,-13Z" 
id="f2_2g"
transform="scale(0.001,-0.001)" />

<path d="M34,0V49l76,18V634L38,652v49H325V67L402,49V0ZM217,831c0,0,-48,0,-81,33c0,0,-34,33,-34,82c0,0,0,48,34,81c0,0,34,33,81,33c0,0,48,0,81,-33c0,0,33,-33,33,-81c0,0,0,-47,-33,-81c0,0,-32,-34,-81,-34Z" 
id="f2_25"
transform="scale(0.001,-0.001)" />

<path d="M41,0V49l69,18V634L41,652v49H313l11,-61l50,26c0,0,105,54,188,54c0,0,194,0,194,-207V67L827,49V0H478V49l63,18V484c0,0,0,63,-27,98c0,0,-26,35,-75,35c0,0,-57,0,-114,-25V67L389,49V0Z" 
id="f2_2a"
transform="scale(0.001,-0.001)" />

<path d="M248,-20c0,0,-52,0,-87,34c0,0,-36,36,-36,88c0,0,0,52,36,88c0,0,35,36,87,36c0,0,52,0,88,-36c0,0,36,-36,36,-88c0,0,0,-51,-36,-87c0,0,-35,-35,-88,-35Zm0,488c0,0,-52,0,-87,36c0,0,-36,36,-36,88c0,0,0,52,35,88c0,0,35,36,88,36c0,0,53,0,89,-36c0,0,35,-37,35,-88c0,0,0,-51,-36,-87c0,0,-35,-37,-88,-37Z" 
id="f2_u"
transform="scale(0.001,-0.001)" />

<path d="M55,0V40L184,60V941L55,960v40H455V960L327,941V60L455,40V0Z" 
id="f3_19"
transform="scale(0.001,-0.001)" />

<path d="M439,0V33l93,19V500c0,0,0,62,-30,97c0,0,-31,36,-94,36c0,0,-67,0,-165,-22V52L338,33V0H35V33l84,19V649L35,668v33H235l7,-57c0,0,57,33,122,54c0,0,65,22,108,22c0,0,91,0,137,-53c0,0,47,-53,47,-154V52L741,33V0Z" 
id="f3_2a"
transform="scale(0.001,-0.001)" />

<path d="M249,-14c0,0,-71,0,-107,42c0,0,-35,42,-35,119V639H15v33l93,29l76,159h47V701H391V639H231V161c0,0,0,-48,22,-73c0,0,22,-24,57,-24c0,0,44,0,106,12V26C416,26,389,8,340,-2c0,0,-49,-12,-91,-12Z" 
id="f3_2g"
transform="scale(0.001,-0.001)" />

<path d="M442,0V33l93,19V504c0,0,0,129,-124,129c0,0,-70,0,-168,-22V52L338,33V0H31V33l88,19v956L15,1026v34H243V756c0,0,0,-77,-5,-112c0,0,54,31,122,53c0,0,68,23,115,23c0,0,91,0,137,-53c0,0,47,-53,47,-154V52L744,33V0Z" 
id="f3_24"
transform="scale(0.001,-0.001)" />

<path d="M495,413c0,0,0,133,-34,190c0,0,-34,57,-105,57c0,0,-78,0,-119,-63c0,0,-42,-62,-42,-184ZM374,-14c0,0,-163,0,-239,87c0,0,-75,88,-75,283c0,0,0,183,77,273c0,0,76,91,219,91c0,0,269,0,269,-306V353H194V340c0,0,0,-103,23,-160c0,0,22,-57,70,-87c0,0,47,-29,124,-29c0,0,40,0,96,6c0,0,55,7,91,15V43C598,43,562,20,500,3c0,0,-61,-17,-126,-17Z" 
id="f3_21"
transform="scale(0.001,-0.001)" />

<path d="M359,-270c0,0,124,0,192,46c0,0,67,47,67,129c0,0,0,43,-26,67c0,0,-26,24,-79,24H242c0,0,-32,-27,-51,-69c0,0,-20,-41,-20,-77c0,0,0,-64,46,-92c0,0,46,-28,142,-28Zm11,561c0,0,81,0,115,47c0,0,34,47,34,141c0,0,0,100,-35,142c0,0,-35,42,-113,42c0,0,-78,0,-114,-43c0,0,-37,-42,-37,-141c0,0,0,-98,36,-143c0,0,36,-45,114,-45ZM359,-329c0,0,-143,0,-218,44c0,0,-75,43,-75,125c0,0,0,39,27,78c0,0,26,38,98,89c0,0,-43,14,-72,48c0,0,-29,35,-29,74L208,262c0,0,-118,55,-118,217c0,0,0,115,73,178c0,0,73,63,211,63c0,0,28,0,71,-6c0,0,44,-6,67,-13l165,83l26,-32L599,644c0,0,50,-56,50,-165c0,0,0,-120,-72,-182c0,0,-73,-62,-208,-62c0,0,-62,0,-114,11L208,148c0,0,2,-13,29,-24c0,0,27,-12,67,-12H512c0,0,113,0,168,-49c0,0,55,-49,55,-134c0,0,0,-79,-44,-137c0,0,-43,-58,-128,-90c0,0,-84,-31,-204,-31Z" 
id="f3_23"
transform="scale(0.001,-0.001)" />

<path d="M32,0V33L151,52V649L52,668v33H275V52L395,33V0ZM201,850c0,0,-32,0,-56,24c0,0,-24,24,-24,56c0,0,0,34,24,58c0,0,24,24,56,24c0,0,34,0,58,-24c0,0,24,-24,24,-58c0,0,0,-32,-24,-56c0,0,-24,-24,-58,-24Z" 
id="f3_25"
transform="scale(0.001,-0.001)" />

<path d="M360,-14L72,649L0,668v33H327V668L216,648L420,164L615,649L504,668v33H764V668L697,652L416,-14Z" 
id="f3_2i"
transform="scale(0.001,-0.001)" />

<path d="M376,50c0,0,103,0,149,80c0,0,46,81,46,240c0,0,0,137,-47,204c0,0,-48,67,-148,67c0,0,-44,0,-87,-7c0,0,-44,-8,-63,-17V62c0,0,63,-12,150,-12Zm3,-64c0,0,-64,0,-141,14c0,0,-78,14,-136,37v971L0,1026v34H226V809c0,0,0,-40,-4,-148c0,0,74,59,188,59c0,0,143,0,219,-87c0,0,77,-87,77,-263c0,0,0,-189,-84,-287c0,0,-84,-97,-243,-97Z" 
id="f3_1y"
transform="scale(0.001,-0.001)" />

<path d="M31,0V33L150,52v956L31,1026v34H274V52L394,33V0Z" 
id="f3_28"
transform="scale(0.001,-0.001)" />

<path d="M377,45c0,0,99,0,147,73c0,0,47,73,47,237c0,0,0,161,-47,233c0,0,-47,72,-147,72c0,0,-97,0,-141,-69c0,0,-44,-69,-44,-236c0,0,0,-169,45,-240c0,0,44,-70,140,-70Zm0,-59c0,0,-158,0,-238,94c0,0,-81,95,-81,274c0,0,0,178,81,272c0,0,80,94,244,94c0,0,160,0,241,-92c0,0,82,-92,82,-274c0,0,0,-368,-329,-368Z" 
id="f3_2b"
transform="scale(0.001,-0.001)" />

<path d="M399,-14c0,0,-341,0,-341,370c0,0,0,175,87,269c0,0,87,95,249,95c0,0,101,0,220,-23V501H573L541,625c0,0,-62,35,-149,35c0,0,-200,0,-200,-304c0,0,0,-158,61,-225c0,0,61,-67,189,-67c0,0,109,0,189,24V43C631,43,595,16,530,1c0,0,-64,-15,-131,-15Z" 
id="f3_1z"
transform="scale(0.001,-0.001)" />

<path d="M477,0V33l64,19L348,354L257,254V52L331,33V0H44V33l89,19v956L29,1026v34H257V338L544,647l-73,20v34H718V667L631,650L431,446L688,50L764,33V0Z" 
id="f3_27"
transform="scale(0.001,-0.001)" />

<path d="M383,64c0,0,85,0,152,28V645c0,0,-67,13,-152,13c0,0,-194,0,-194,-314c0,0,0,-141,48,-211c0,0,48,-69,146,-69ZM342,-14c0,0,-287,0,-287,358c0,0,0,184,82,280c0,0,81,96,239,96c0,0,81,0,163,-18c0,0,-4,25,-4,124v182l-118,18v34H659V52L745,33V0H548l-9,52c0,0,-84,-66,-197,-66Z" 
id="f3_20"
transform="scale(0.001,-0.001)" />

<path d="M284,67c0,0,51,0,88,12c0,0,37,12,74,30V358l-98,-3c0,0,-100,-4,-135,-39c0,0,-35,-35,-35,-117c0,0,0,-132,106,-132ZM233,-14c0,0,-179,0,-179,208c0,0,0,70,27,116c0,0,27,46,87,70c0,0,60,24,173,27l105,3V519c0,0,0,72,-26,107c0,0,-27,34,-82,34c0,0,-75,0,-137,-35L176,538H134V691c0,0,121,26,213,26c0,0,115,0,169,-47c0,0,54,-47,54,-144V52L657,33V0H465L451,70c0,0,-85,-84,-218,-84Z" 
id="f3_1x"
transform="scale(0.001,-0.001)" />

<path d="M31,0V33l88,19V649L31,668v33H235l7,-87c0,0,44,37,121,71c0,0,76,35,121,35h11V530H463l-43,82c0,0,-37,0,-88,-10c0,0,-52,-10,-89,-26V52L363,33V0Z" 
id="f3_2e"
transform="scale(0.001,-0.001)" />

<path d="M431,0V33L535,52V499c0,0,0,62,-32,96c0,0,-32,33,-95,33c0,0,-66,0,-163,-22V52L350,33V0H32V33l89,19V649L32,668v33H237l6,-57c0,0,56,32,119,54c0,0,62,22,110,22c0,0,52,0,95,-20c0,0,44,-19,66,-62c0,0,57,32,134,57c0,0,77,25,128,25c0,0,179,0,179,-207V52l90,-19V0H846V33L950,52V499c0,0,0,129,-119,129c0,0,-19,0,-45,-3c0,0,-26,-3,-52,-7c0,0,-25,-4,-49,-8c0,0,-23,-5,-39,-8c0,0,13,-41,13,-89V52L764,33V0Z" 
id="f3_29"
transform="scale(0.001,-0.001)" />

<path d="M58,-234v58c0,0,131,42,131,125c0,0,0,15,-11,27c0,0,-11,12,-38,25C140,1,89,27,89,75c0,0,0,40,25,61c0,0,26,21,65,21c0,0,48,0,77,-34c0,0,30,-34,30,-86c0,0,0,-101,-60,-170c0,0,-59,-69,-168,-101Z" 
id="f3_g"
transform="scale(0.001,-0.001)" />

<path d="M460,-325c0,0,-148,79,-231,172c0,0,-84,93,-123,217c0,0,-39,126,-39,304c0,0,0,178,39,303c0,0,39,125,122,217c0,0,82,93,232,172V997c0,0,-91,-52,-145,-134c0,0,-54,-81,-79,-190c0,0,-25,-109,-25,-305c0,0,0,-194,26,-309c0,0,26,-114,82,-193c0,0,56,-79,141,-128v-63Z" 
id="f3_c"
transform="scale(0.001,-0.001)" />

<path d="M681,416L504,902L333,416ZM669,0V40L803,60L704,348H310L210,60L344,40V0H15V40L128,60l341,949H611L965,60L1092,40V0Z" 
id="f3_11"
transform="scale(0.001,-0.001)" />

<path d="M49,-325v63c0,0,85,49,140,128c0,0,56,79,83,194c0,0,26,115,26,308c0,0,0,196,-25,305c0,0,-25,109,-79,190c0,0,-54,82,-145,134v63c0,0,149,-80,232,-172c0,0,83,-92,122,-217c0,0,39,-125,39,-303c0,0,0,-177,-39,-303c0,0,-39,-125,-122,-217c0,0,-83,-93,-232,-173Z" 
id="f3_d"
transform="scale(0.001,-0.001)" />

<path d="M278,-14c0,0,-52,0,-115,11c0,0,-63,10,-99,23V193H98L134,95c0,0,56,-50,146,-50c0,0,144,0,144,123c0,0,0,91,-114,130l-66,21c0,0,-75,25,-110,50c0,0,-34,26,-53,63c0,0,-18,36,-18,89c0,0,0,92,63,145c0,0,63,54,170,54c0,0,77,0,193,-23V544H454l-32,81c0,0,-39,35,-124,35c0,0,-61,0,-92,-30c0,0,-32,-30,-32,-80c0,0,0,-43,29,-72c0,0,28,-29,86,-48c0,0,110,-38,144,-55c0,0,33,-17,57,-42c0,0,23,-25,36,-57c0,0,13,-32,13,-79c0,0,0,-104,-66,-158c0,0,-66,-53,-195,-53Z" 
id="f3_2f"
transform="scale(0.001,-0.001)" />

<path d="M289,-14c0,0,-179,0,-179,205V649L20,668v33H233V200c0,0,0,-128,120,-128c0,0,92,0,173,23V649L420,668v33H649V52L738,33V0H533l-6,57C527,57,474,28,405,7c0,0,-69,-21,-116,-21Z" 
id="f3_2h"
transform="scale(0.001,-0.001)" />

<path d="M536,63c0,0,127,0,191,54c0,0,63,54,63,168c0,0,0,105,-70,154c0,0,-70,49,-225,49H316V67c0,0,103,-4,220,-4ZM480,555c0,0,121,0,178,48c0,0,57,48,57,155c0,0,0,91,-58,133c0,0,-57,42,-186,42H316V555ZM554,-4L235,0H44V40L172,60V941L44,960v40H501c0,0,191,0,279,-56c0,0,88,-56,88,-179c0,0,0,-88,-55,-149c0,0,-54,-62,-151,-83c0,0,135,-14,209,-79c0,0,73,-65,73,-166c0,0,0,-144,-99,-219C845,69,745,-4,554,-4Z" 
id="f3_12"
transform="scale(0.001,-0.001)" />

<path d="M382,45c0,0,188,0,188,314c0,0,0,143,-47,213c0,0,-46,69,-141,69c0,0,-87,0,-146,-24V58c0,0,67,-13,146,-13ZM25,-325v35l88,18V649L34,668v33H231l1,-41c0,0,31,27,84,43c0,0,53,17,107,17c0,0,134,0,208,-94c0,0,73,-93,73,-267c0,0,0,-178,-80,-276c0,0,-80,-97,-232,-97c0,0,-84,0,-160,16c0,0,4,-53,4,-84V-272l123,-18v-35Z" 
id="f3_2c"
transform="scale(0.001,-0.001)" />

<path d="M327,-14L84,649L1,668v33H335V668L219,648L385,174L554,632h63L786,171L944,649L830,668v33h267V668l-78,-16L784,-14H726L553,448L382,-14Z" 
id="f3_2j"
transform="scale(0.001,-0.001)" />

<path d="M64,0V34L168,59V639H47v36l121,29v49c0,0,0,155,61,239c0,0,62,84,173,84c0,0,58,0,107,-15V908H472l-33,92c0,0,-26,16,-62,16c0,0,-47,0,-66,-42c0,0,-19,-42,-19,-157V701H478V639H292V59L443,34V0Z" 
id="f3_22"
transform="scale(0.001,-0.001)" />

<path d="M76,316v76H787V316Zm0,306v76H787V622Z" 
id="f3_x"
transform="scale(0.001,-0.001)" />

<path d="M394,460c0,0,126,0,186,57c0,0,60,57,60,187c0,0,0,123,-57,176c0,0,-58,53,-194,53H316V460ZM54,0V40L172,60V941L44,960v40H421c0,0,368,0,368,-295c0,0,0,-153,-93,-233c0,0,-93,-80,-267,-80H316V60L475,40V0Z" 
id="f3_1g"
transform="scale(0.001,-0.001)" />

<path d="M134,0V40L339,60V876L137,804v39l292,166h39V60L672,40V0Z" 
id="f3_l"
transform="scale(0.001,-0.001)" />

<path d="M350,-14c0,0,-142,0,-269,31L73,228h49L156,87c0,0,29,-16,82,-28c0,0,54,-12,100,-12c0,0,117,0,173,54c0,0,56,53,56,178c0,0,0,99,-52,150c0,0,-51,51,-159,56l-107,6v61l107,7c0,0,84,5,124,52c0,0,41,48,41,145c0,0,0,101,-44,147c0,0,-44,45,-139,45c0,0,-40,0,-83,-10c0,0,-43,-11,-76,-29L153,786H104V979c0,0,74,19,127,26c0,0,54,6,107,6c0,0,321,0,321,-246c0,0,0,-104,-57,-165c0,0,-57,-62,-162,-77c0,0,136,-16,200,-78c0,0,64,-62,64,-173c0,0,0,-135,-92,-211c0,0,-93,-75,-262,-75Z" 
id="f3_n"
transform="scale(0.001,-0.001)" />

<path d="M191,-20c0,0,-39,0,-65,25c0,0,-25,27,-25,64c0,0,0,38,26,64c0,0,26,26,64,26c0,0,38,0,64,-26c0,0,26,-26,26,-64c0,0,0,-37,-25,-64c0,0,-26,-25,-65,-25Z" 
id="f3_i"
transform="scale(0.001,-0.001)" />

<path d="M13,0V34L95,46L325,350L122,649L40,668v33H357V668L264,648L399,446L554,649l-96,19v33H710V668L630,652L433,397L663,50L745,34V0H427V34l94,17L359,299L169,50L266,34V0Z" 
id="f3_2k"
transform="scale(0.001,-0.001)" />

<path d="M67,0V109L206,235c0,0,133,118,196,190c0,0,63,72,90,149c0,0,27,77,27,177c0,0,0,97,-44,148c0,0,-44,50,-144,50c0,0,-39,0,-81,-10c0,0,-42,-11,-74,-29L150,787H101V980c0,0,135,32,230,32c0,0,164,0,247,-68c0,0,82,-69,82,-193c0,0,0,-84,-32,-158c0,0,-33,-75,-100,-148c0,0,-67,-74,-222,-206c0,0,-67,-57,-141,-125H680V0Z" 
id="f3_m"
transform="scale(0.001,-0.001)" />

<path d="M54,0V40L172,60V941L44,960v40H794V760H745L721,922c0,0,-83,11,-241,11H316V516H611l23,120h46V328H634L611,449H316V60L483,40V0Z" 
id="f3_16"
transform="scale(0.001,-0.001)" />

<path d="M0,214v74H784V214ZM0,494v72H784V494Z" 
id="f4_x"
transform="scale(0.001,-0.001)" />

<path d="M355,0V355H0v72H355V784h72V427H782V355H427V0Z" 
id="f4_f"
transform="scale(0.001,-0.001)" />

<path d="M0,356v74H784V356Z" 
id="f4_h"
transform="scale(0.001,-0.001)" />

<path d="M476,327V830h-4L114,327ZM476,0V220H30v99l488,686h86V327H740V220H604V0Z" 
id="f3_o"
transform="scale(0.001,-0.001)" />

<path d="M529,65c0,0,183,0,270,108c0,0,87,108,87,334c0,0,0,210,-113,318c0,0,-113,108,-322,108H316V71c0,0,90,-6,213,-6Zm0,-67L172,0H44V40L172,60V941L44,960v40H498c0,0,277,0,411,-123c0,0,133,-124,133,-371c0,0,0,-251,-129,-380C913,126,785,-2,529,-2Z" 
id="f3_14"
transform="scale(0.001,-0.001)" />

<path d="M148,-329c0,0,-58,0,-114,13v151H69l24,-71c0,0,23,-17,64,-17c0,0,39,0,72,22c0,0,33,23,60,67c0,0,27,44,68,157L90,649L19,668v33H344V668L233,648L423,158L606,649L497,668v33H758V668L685,652L411,-43c0,0,-48,-124,-84,-177c0,0,-36,-54,-79,-82c0,0,-44,-27,-100,-27Z" 
id="f3_2l"
transform="scale(0.001,-0.001)" />

<path d="M57,302V417H454V302Z" 
id="f3_h"
transform="scale(0.001,-0.001)" />

<path d="M577,-14c0,0,-243,0,-379,132C198,118,63,250,63,488c0,0,0,258,130,391c0,0,131,132,387,132c0,0,156,0,335,-38l5,-218H871L848,884c0,0,-52,32,-121,50c0,0,-69,17,-141,17c0,0,-191,0,-279,-112c0,0,-88,-113,-88,-349c0,0,0,-217,92,-332c0,0,92,-115,268,-115c0,0,85,0,160,20c0,0,76,21,120,55l27,149h49L930,32c0,0,-164,-46,-353,-46Z" 
id="f3_13"
transform="scale(0.001,-0.001)" />

<path d="M44,0V40L172,60V941L44,960v40H794V760H745L721,922c0,0,-83,11,-241,11H316V543H586l23,119h48V354H609L586,475H316V67H513c0,0,193,0,252,12l43,185h49L843,0Z" 
id="f3_15"
transform="scale(0.001,-0.001)" />

<path d="M410,-14c0,0,-80,0,-162,14c0,0,-81,14,-144,38V270h48L178,134c0,0,28,-35,95,-62c0,0,68,-27,134,-27c0,0,104,0,163,53c0,0,58,54,58,148c0,0,0,54,-23,89c0,0,-22,35,-59,59c0,0,-37,24,-84,41c0,0,-47,17,-97,34c0,0,-49,17,-96,38c0,0,-47,21,-84,53c0,0,-37,32,-60,79c0,0,-23,48,-23,117c0,0,0,119,90,187c0,0,89,68,248,68c0,0,121,0,263,-32V771H654L628,893c0,0,-76,55,-188,55c0,0,-100,0,-156,-40c0,0,-56,-41,-56,-112c0,0,0,-49,22,-81c0,0,23,-32,60,-55c0,0,37,-22,84,-39c0,0,48,-16,97,-34c0,0,50,-17,97,-39c0,0,48,-22,85,-56c0,0,36,-34,59,-83c0,0,23,-49,23,-120c0,0,0,-145,-89,-224c0,0,-89,-79,-256,-79Z" 
id="f3_1j"
transform="scale(0.001,-0.001)" />

<path d="M551,45c0,0,171,0,252,108c0,0,82,108,82,349c0,0,0,239,-81,344c0,0,-81,105,-253,105c0,0,-172,0,-252,-105c0,0,-80,-105,-80,-344c0,0,0,-241,80,-349c0,0,81,-108,252,-108Zm0,-59c0,0,-238,0,-363,129C188,115,63,245,63,501c0,0,0,510,488,510c0,0,242,0,366,-129c0,0,124,-130,124,-381c0,0,0,-255,-126,-385C915,116,790,-14,551,-14Z" 
id="f3_1f"
transform="scale(0.001,-0.001)" />

<path d="M377,45c0,0,99,0,145,108c0,0,46,109,46,352c0,0,0,240,-45,345c0,0,-46,106,-146,106c0,0,-97,0,-139,-100c0,0,-43,-99,-43,-351c0,0,0,-254,44,-357c0,0,43,-103,138,-103Zm0,-59c0,0,-158,0,-238,132c0,0,-81,133,-81,386c0,0,0,249,81,380c0,0,80,132,244,132c0,0,159,0,241,-130c0,0,82,-130,82,-382c0,0,0,-518,-329,-518Z" 
id="f3_k"
transform="scale(0.001,-0.001)" />

<path d="M536,-22L130,941L17,960v40H421V960L287,941L590,205L892,941L761,960v40h325V960L976,941L574,-22Z" 
id="f3_1m"
transform="scale(0.001,-0.001)" />

<path d="M719,62L422,783L93,62ZM0,0L469,1034L896,0Z" 
id="f4_14"
transform="scale(0.001,-0.001)" />

<path d="M350,-14c0,0,-142,0,-253,31L89,228h49L172,87c0,0,32,-18,78,-29c0,0,46,-11,88,-11c0,0,118,0,173,56c0,0,56,55,56,187c0,0,0,93,-24,140c0,0,-24,47,-76,70c0,0,-52,22,-140,22c0,0,-68,0,-133,-18H122v496H630V886H189V567c0,0,81,18,173,18c0,0,173,0,258,-71c0,0,84,-71,84,-216c0,0,0,-151,-92,-232c0,0,-91,-80,-262,-80Z" 
id="f3_p"
transform="scale(0.001,-0.001)" />

<path d="M843,0L451,506L316,398V60L460,40V0H44V40L172,60V941L44,960v40H445V960L316,941V470L795,941l-99,19v40h313V960L894,941L552,607L979,60L1088,40V0Z" 
id="f3_1b"
transform="scale(0.001,-0.001)" />

<path d="M0,-14L351,1007h73L75,-14Z" 
id="f3_j"
transform="scale(0.001,-0.001)" />


</defs>
</svg>