<?xml version="1.0" encoding="UTF-8" standalone="no"?>
<!DOCTYPE svg PUBLIC "-//W3C//DTD SVG 1.1//EN"
"http://www.w3.org/Graphics/SVG/1.1/DTD/svg11.dtd">
<svg viewBox="0 0 909 1286" version="1.1" xmlns="http://www.w3.org/2000/svg" xmlns:xlink="http://www.w3.org/1999/xlink">
<defs>
<clipPath id="c0_6"><path d="M167.6,118.2V106.1h49.1v12.1Z" /></clipPath>
<clipPath id="c1_6"><path d="M189.2,115.3V94.4h27.5v20.9Z" /></clipPath>
<clipPath id="c2_6"><path d="M158.8,115.3V94h57.9v21.3Z" /></clipPath>
<clipPath id="c3_6"><path d="M199.5,157.4V136.9H395.3v20.5Z" /></clipPath>
<clipPath id="c4_6"><path d="M174.5,157.1v-22H395.3v22Z" /></clipPath>
<clipPath id="c5_6"><path d="M223.3,191.9V179.8h94.2v12.1Z" /></clipPath>
<clipPath id="c6_6"><path d="M219.3,204.7V192.6h98.2v12.1Z" /></clipPath>
<clipPath id="c7_6"><path d="M199.5,201.8V181.3h118v20.5Z" /></clipPath>
<clipPath id="c8_6"><path d="M158.4,201.8V181.6H317.5v20.2Z" /></clipPath>
<clipPath id="c9_6"><path d="M221.8,236.3V224.2h11.8v12.1Z" /></clipPath>
<clipPath id="c10_6"><path d="M218.2,249.1V237h15.4v12.1Z" /></clipPath>
<clipPath id="c11_6"><path d="M199.1,246.2V225.6h34.5v20.6Z" /></clipPath>
<clipPath id="c12_6"><path d="M158.4,246.2V226h75.2v20.2Z" /></clipPath>
<clipPath id="c13_6"><path d="M218.2,289.8V277.7h7.7v12.1Z" /></clipPath>
<clipPath id="c14_6"><path d="M199.1,287.2V266.7h26.8v20.5Z" /></clipPath>
<clipPath id="c15_6"><path d="M158.4,287.2V267.1h67.5v20.1Z" /></clipPath>
<clipPath id="c16_6"><path d="M267.3,321.7V309.6h15.8v12.1Z" /></clipPath>
<clipPath id="c17_6"><path d="M266.6,347.7V335.6h16.5v12.1Z" /></clipPath>
<clipPath id="c18_6"><path d="M257,332V311.1h26.1V332Z" /></clipPath>
<clipPath id="c19_6"><path d="M257.8,364.2V332.3h25.3v31.9Z" /></clipPath>
<clipPath id="c20_6"><path d="M263.3,519.7V498.8H473.4v20.9Z" /></clipPath>
<clipPath id="c21_6"><path d="M156.9,519.7V498.8H473.4v20.9Z" /></clipPath>
<clipPath id="c22_6"><path d="M222.6,538V508.7h36.6V538Z" /></clipPath>
<clipPath id="c23_6"><path d="M272.4,576.2V564.1H374.7v12.1Z" /></clipPath>
<clipPath id="c24_6"><path d="M156.9,586.1V565.2H374.7v20.9Z" /></clipPath>
<clipPath id="c25_6"><path d="M235,585V562.6H374.7V585Z" /></clipPath>
<clipPath id="c26_6"><path d="M235,592.7V570.3H374.7v22.4Z" /></clipPath>
<clipPath id="c27_6"><path d="M222.6,604.4V575.1h37v29.3Z" /></clipPath>
<clipPath id="c28_6"><path d="M281.2,642.5V630.4h18v12.1Z" /></clipPath>
<clipPath id="c29_6"><path d="M156.9,652.4V631.5H299.2v20.9Z" /></clipPath>
<clipPath id="c30_6"><path d="M234.7,651.3V629h64.5v22.3Z" /></clipPath>
<clipPath id="c31_6"><path d="M234.7,659V636.7h64.5V659Z" /></clipPath>
<clipPath id="c32_6"><path d="M222.2,670.8V641.4h36.7v29.4Z" /></clipPath>
<clipPath id="c33_6"><path d="M156.9,719.2V698.3H316.1v20.9Z" /></clipPath>
<clipPath id="c34_6"><path d="M235,737.5V708.2h36.7v29.3Z" /></clipPath>
<clipPath id="c35_6"><path d="M191,896.3V875.7h20.9v20.6Z" /></clipPath>
<clipPath id="c36_6"><path d="M187.4,870.6V849.3h24.5v21.3Z" /></clipPath>
<clipPath id="c37_6"><path d="M198.7,876.8V849.3h13.2v27.5Z" /></clipPath>
<clipPath id="c38_6"><path d="M187.4,931.8V910.9h26.7v20.9Z" /></clipPath>
<clipPath id="c39_6"><path d="M194.3,957.1V932.2h19.8v24.9Z" /></clipPath>
<clipPath id="c40_6"><path d="M455.4,912.4V894.1H473v18.3Z" /></clipPath>
<clipPath id="c41_6"><path d="M190.3,1018.7V997.8h37.8v20.9Z" /></clipPath>
<clipPath id="c42_6"><path d="M204.6,1018.4V996h23.5v22.4Z" /></clipPath>
<clipPath id="c43_6"><path d="M202.8,998.9V970.7h25.3v28.2Z" /></clipPath>
<clipPath id="c44_6"><path d="M187.7,1083.6v-20.9h31.2v20.9Z" /></clipPath>
<clipPath id="c45_6"><path d="M196.9,1063.5V1036h22v27.5Z" /></clipPath>
<clipPath id="c46_6"><path d="M251.2,1150v-20.9H275V1150Z" /></clipPath>
<clipPath id="c47_6"><path d="M217.1,1150v-21.3H275V1150Z" /></clipPath>
<style type="text/css"><![CDATA[
.g0_6{
fill: none;
stroke: #FFFFFF;
stroke-width: 0.36666667;
stroke-linecap: butt;
stroke-linejoin: miter;
stroke-miterlimit: 2;
}
.g1_6{
fill: none;
stroke: #000000;
stroke-width: 0.36666667;
stroke-linecap: butt;
stroke-linejoin: miter;
stroke-miterlimit: 2;
}
.g2_6{
}
.g3_6{
fill: none;
stroke: #000000;
stroke-width: 0.91208345;
stroke-linecap: round;
stroke-linejoin: round;
}
.g4_6{
fill: none;
stroke: #000000;
stroke-width: 0.90444446;
stroke-linecap: round;
stroke-linejoin: round;
}
.g5_6{
fill: none;
stroke: #000000;
stroke-width: 0.9059723;
stroke-linecap: round;
stroke-linejoin: round;
}
.g6_6{
fill: none;
stroke: #000000;
stroke-width: 0.8998611;
stroke-linecap: round;
stroke-linejoin: round;
}
.g7_6{
fill: #1F1A17;
}
.g8_6{
fill: none;
stroke: #000000;
stroke-width: 0.9105556;
stroke-linecap: round;
stroke-linejoin: round;
}
.g9_6{
fill: none;
stroke: #000000;
stroke-width: 0.9075001;
stroke-linecap: round;
stroke-linejoin: round;
}
]]></style>
</defs>
<path d="M454.6,618.8l4.4,3.8l3.1,3.9l2,3.8l2.1,4.9l2.3,5.7l1,5.6l1,5.9v7.7l5.2,-8.7l4.1,-7.7l3.4,-7.7l2,-7.5l1,-7.7v-6.7l-1,-7.7l-2,-6.7l-28.6,19.1" class="g0_6" />
<g clip-path="url(#c0_6)">
<g fill="#000000" >
<use xlink:href="#f0_l" transform="matrix(7.1,0,0,7.1,167.6,115.6)" />
<use xlink:href="#f0_m" transform="matrix(7.1,0,0,7.1,208.6,115.6)" />
</g>
</g>
<g clip-path="url(#c1_6)">
<g fill="#000000" >
<use xlink:href="#f0_m" transform="matrix(12.2,0,0,12.2,189.2,110.9)" />
</g>
</g>
<g clip-path="url(#c2_6)">
<g fill="#000000" >
<use xlink:href="#f1_16" transform="matrix(12.2,0,0,12.2,159.1,110.9)" />
<use xlink:href="#f1_16" transform="matrix(12.2,0,0,12.2,199.1,110.9)" />
</g>
</g>
<g fill="#000000" >
<use xlink:href="#f2_x" transform="matrix(12.2,0,0,12.2,176.4,110.9)" />
</g>
<path d="M187.6,150.8l1.9,-1.4m0,0l4.4,9.7m0,0l4.9,-25.4m0,0h193" class="g1_6" />
<path fill-rule="evenodd" d="M187.5,150.6l2.5,-1.8l3.9,8l4.5,-23.5H391.8v.9H199.1l-4.7,24.9h-.9l-4.5,-9l-1.2,1Z" class="g2_6" />
<g fill="#000000" >
<use xlink:href="#f0_m" transform="matrix(6.8,0,0,6.8,239.8,145)" />
<use xlink:href="#f0_m" transform="matrix(6.8,0,0,6.8,276.5,145)" />
<use xlink:href="#f0_m" transform="matrix(6.8,0,0,6.8,322.3,145)" />
<use xlink:href="#f0_m" transform="matrix(6.8,0,0,6.8,225.5,157.8)" />
<use xlink:href="#f0_m" transform="matrix(6.8,0,0,6.8,272.4,157.8)" />
<use xlink:href="#f0_m" transform="matrix(6.8,0,0,6.8,318.6,157.8)" />
</g>
<g clip-path="url(#c3_6)">
<g fill="#000000" >
<use xlink:href="#f0_c" transform="matrix(11.8,0,0,11.8,199.5,153)" />
<use xlink:href="#f0_m" transform="matrix(11.8,0,0,11.8,206.1,153)" />
<use xlink:href="#f0_d" transform="matrix(11.8,0,0,11.8,232.8,153)" />
<use xlink:href="#f0_o" transform="matrix(11.8,0,0,11.8,298.8,153)" />
<use xlink:href="#f0_1z" transform="matrix(11.8,0,0,11.8,331.8,153)" />
<use xlink:href="#f0_2b" transform="matrix(11.8,0,0,11.8,339.9,153)" />
<use xlink:href="#f0_2f" transform="matrix(11.8,0,0,11.8,349,153)" />
<use xlink:href="#f0_l" transform="matrix(11.8,0,0,11.8,356.7,153)" />
<use xlink:href="#f0_m" transform="matrix(11.8,0,0,11.8,365.9,153)" />
<use xlink:href="#f0_k" transform="matrix(11.8,0,0,11.8,375,153)" />
</g>
</g>
<g fill="#000000" >
<use xlink:href="#f1_16" transform="matrix(11.8,0,0,11.8,159.1,153)" />
<use xlink:href="#f1_16" transform="matrix(11.8,0,0,11.8,215.9,153)" />
<use xlink:href="#f1_16" transform="matrix(11.8,0,0,11.8,262.9,153)" />
<use xlink:href="#f1_16" transform="matrix(11.8,0,0,11.8,308.7,153)" />
</g>
<g clip-path="url(#c4_6)">
<g fill="#000000" >
<use xlink:href="#f2_x" transform="matrix(11.8,0,0,11.8,174.5,153)" />
<use xlink:href="#f2_f" transform="matrix(11.8,0,0,11.8,249.3,153)" />
<use xlink:href="#f2_f" transform="matrix(11.8,0,0,11.8,286,153)" />
<use xlink:href="#f2_36" transform="matrix(11.8,0,0,11.8,383.9,153)" />
</g>
</g>
<path d="M187.6,195.2l1.9,-1.4m0,0l4.4,9.7m0,0L198.8,178m0,0H313.6" class="g1_6" />
<path fill-rule="evenodd" d="M187.5,195l2.5,-1.9l3.9,8.1l4.6,-23.6H313.6v.9H199.2l-4.8,25h-.9l-4.5,-9l-1.2,.9Z" class="g2_6" />
<g clip-path="url(#c5_6)">
<g fill="#000000" >
<use xlink:href="#f0_m" transform="matrix(6.8,0,0,6.8,223.3,189.3)" />
<use xlink:href="#f0_m" transform="matrix(6.8,0,0,6.8,260,189.3)" />
<use xlink:href="#f0_m" transform="matrix(6.8,0,0,6.8,305.8,189.3)" />
</g>
</g>
<g clip-path="url(#c6_6)">
<g fill="#000000" >
<use xlink:href="#f0_m" transform="matrix(6.8,0,0,6.8,219.3,202.2)" />
<use xlink:href="#f0_m" transform="matrix(6.8,0,0,6.8,255.9,202.2)" />
<use xlink:href="#f0_m" transform="matrix(6.8,0,0,6.8,301.8,202.2)" />
</g>
</g>
<g clip-path="url(#c7_6)">
<g fill="#000000" >
<use xlink:href="#f0_o" transform="matrix(11.8,0,0,11.8,199.5,197.4)" />
<use xlink:href="#f0_m" transform="matrix(11.8,0,0,11.8,282,197.4)" />
</g>
</g>
<g clip-path="url(#c8_6)">
<g fill="#000000" >
<use xlink:href="#f1_16" transform="matrix(11.8,0,0,11.8,159.1,197.4)" />
<use xlink:href="#f1_16" transform="matrix(11.8,0,0,11.8,209.7,197.4)" />
<use xlink:href="#f1_16" transform="matrix(11.8,0,0,11.8,246.4,197.4)" />
<use xlink:href="#f1_16" transform="matrix(11.8,0,0,11.8,292.2,197.4)" />
</g>
</g>
<g fill="#000000" >
<use xlink:href="#f2_x" transform="matrix(11.8,0,0,11.8,174.5,197.4)" />
<use xlink:href="#f2_f" transform="matrix(11.8,0,0,11.8,232.8,197.4)" />
<use xlink:href="#f2_h" transform="matrix(11.8,0,0,11.8,269.5,197.4)" />
</g>
<path d="M187.6,239.6l1.9,-1.4m0,0l4.4,9.6m0,0l4.9,-25.4m0,0h31.1" class="g1_6" />
<path fill-rule="evenodd" d="M187.5,239.3l2.5,-1.8l3.9,8.1L198.4,222h31.5v.9H199.1l-4.7,24.9h-.9L189,238.9l-1.2,.9Z" class="g2_6" />
<g clip-path="url(#c9_6)">
<g fill="#000000" >
<use xlink:href="#f0_m" transform="matrix(6.8,0,0,6.8,221.8,233.7)" />
</g>
</g>
<g clip-path="url(#c10_6)">
<g fill="#000000" >
<use xlink:href="#f0_m" transform="matrix(6.8,0,0,6.8,218.2,246.5)" />
</g>
</g>
<g clip-path="url(#c11_6)">
<g fill="#000000" >
<use xlink:href="#f0_n" transform="matrix(11.8,0,0,11.8,199.1,241.8)" />
</g>
</g>
<g clip-path="url(#c12_6)">
<g fill="#000000" >
<use xlink:href="#f1_16" transform="matrix(11.8,0,0,11.8,159.1,241.8)" />
<use xlink:href="#f1_16" transform="matrix(11.8,0,0,11.8,208.3,241.8)" />
</g>
</g>
<g fill="#000000" >
<use xlink:href="#f2_x" transform="matrix(11.8,0,0,11.8,174.5,241.8)" />
</g>
<path d="M187.6,278.2l1.8,-1.1m0,0l4.5,7.2m0,0l4.8,-19m0,0h9.4" class="g1_6" />
<path fill-rule="evenodd" d="M187.4,277.9l2.6,-1.3l3.9,5.8l4.5,-17.5h9.7v.8H199l-4.7,18.6h-.9l-4.5,-6.6l-1.2,.7Z" class="g2_6" />
<g clip-path="url(#c13_6)">
<g fill="#000000" >
<use xlink:href="#f0_m" transform="matrix(6.8,0,0,6.8,218.2,287.2)" />
</g>
</g>
<g clip-path="url(#c14_6)">
<g fill="#000000" >
<use xlink:href="#f0_n" transform="matrix(11.8,0,0,11.8,199.1,282.8)" />
</g>
</g>
<g clip-path="url(#c15_6)">
<g fill="#000000" >
<use xlink:href="#f1_16" transform="matrix(11.8,0,0,11.8,159.1,282.8)" />
<use xlink:href="#f1_16" transform="matrix(11.8,0,0,11.8,208.3,282.8)" />
</g>
</g>
<g fill="#000000" >
<use xlink:href="#f2_x" transform="matrix(11.8,0,0,11.8,174.5,282.8)" />
</g>
<path d="M191.8,334.5l1.9,-1m0,0l4.4,7.3m0,0L203,321.4m0,0h9.5" class="g1_6" />
<path fill-rule="evenodd" d="M191.7,334.3l2.5,-1.4l4,6l4.5,-18h9.8v.9h-9.1l-4.8,19h-.9l-4.5,-6.7l-1.2,.7Z" class="g2_6" />
<path d="M215.9,334.5h36.7m3.4,0h19.3M159.3,307v55.3M278.9,307v55.3m-120,-54.8H279.4M158.9,361.8H279.4" class="g3_6" />
<g clip-path="url(#c16_6)">
<g fill="#000000" >
<use xlink:href="#f0_m" transform="matrix(7,0,0,7,267.3,319.1)" />
</g>
</g>
<g clip-path="url(#c17_6)">
<g fill="#000000" >
<use xlink:href="#f0_m" transform="matrix(7,0,0,7,266.6,345.2)" />
</g>
</g>
<g fill="#000000" >
<use xlink:href="#f0_k" transform="matrix(7,0,0,7,244.6,358)" />
<use xlink:href="#f0_l" transform="matrix(12.1,0,0,12.1,229.5,327.6)" />
<use xlink:href="#f0_n" transform="matrix(12.1,0,0,12.1,203.1,339.3)" />
<use xlink:href="#f0_m" transform="matrix(12.1,0,0,12.1,217.1,353.6)" />
</g>
<g clip-path="url(#c18_6)">
<g fill="#000000" >
<use xlink:href="#f1_2d" transform="matrix(12.1,0,0,12.1,257,327.6)" />
</g>
</g>
<g fill="#000000" >
<use xlink:href="#f1_16" transform="matrix(12.1,0,0,12.1,163.2,339.3)" />
<use xlink:href="#f3_2c" transform="matrix(12.1,0,-3.2,12.1,225.5,353.6)" />
<use xlink:href="#f3_21" transform="matrix(12.1,0,-3.2,12.1,235,353.6)" />
<use xlink:href="#f2_x" transform="matrix(12.1,0,0,12.1,178.6,339.3)" />
</g>
<g clip-path="url(#c19_6)">
<g fill="#000000" >
<use xlink:href="#f4_1u" transform="matrix(12.1,0,0,12.1,257.8,353.6)" />
</g>
</g>
<g fill="#000000" >
<use xlink:href="#f0_c" transform="matrix(12,0,0,12,117,440.9)" />
<use xlink:href="#f0_1y" transform="matrix(12,0,0,12,122.9,440.9)" />
<use xlink:href="#f0_d" transform="matrix(12,0,0,12,131.3,440.9)" />
<use xlink:href="#f0_16" transform="matrix(12,0,0,12,155.8,440.9)" />
<use xlink:href="#f0_25" transform="matrix(12,0,0,12,165.4,440.9)" />
<use xlink:href="#f0_2a" transform="matrix(12,0,0,12,169.8,440.9)" />
<use xlink:href="#f0_20" transform="matrix(12,0,0,12,178.3,440.9)" />
<use xlink:href="#f0_2b" transform="matrix(12,0,0,12,190.8,440.9)" />
<use xlink:href="#f0_2h" transform="matrix(12,0,0,12,199.9,440.9)" />
<use xlink:href="#f0_2g" transform="matrix(12,0,0,12,209.1,440.9)" />
<use xlink:href="#f0_2g" transform="matrix(12,0,0,12,217.5,440.9)" />
<use xlink:href="#f0_24" transform="matrix(12,0,0,12,223,440.9)" />
<use xlink:href="#f0_21" transform="matrix(12,0,0,12,231.5,440.9)" />
<use xlink:href="#f0_1x" transform="matrix(12,0,0,12,242.5,440.9)" />
<use xlink:href="#f0_29" transform="matrix(12,0,0,12,250.2,440.9)" />
<use xlink:href="#f0_2b" transform="matrix(12,0,0,12,263.4,440.9)" />
<use xlink:href="#f0_2h" transform="matrix(12,0,0,12,273,440.9)" />
<use xlink:href="#f0_2a" transform="matrix(12,0,0,12,281.8,440.9)" />
<use xlink:href="#f0_2g" transform="matrix(12,0,0,12,290.2,440.9)" />
<use xlink:href="#f0_2b" transform="matrix(12,0,0,12,299.1,440.9)" />
<use xlink:href="#f0_22" transform="matrix(12,0,0,12,308.6,440.9)" />
<use xlink:href="#f0_2g" transform="matrix(12,0,0,12,317.1,440.9)" />
<use xlink:href="#f0_24" transform="matrix(12,0,0,12,322.6,440.9)" />
<use xlink:href="#f0_21" transform="matrix(12,0,0,12,331,440.9)" />
<use xlink:href="#f0_2j" transform="matrix(12,0,0,12,342.4,440.9)" />
<use xlink:href="#f0_2b" transform="matrix(12,0,0,12,355.3,440.9)" />
<use xlink:href="#f0_2e" transform="matrix(12,0,0,12,364.4,440.9)" />
<use xlink:href="#f0_27" transform="matrix(12,0,0,12,370.7,440.9)" />
<use xlink:href="#f0_20" transform="matrix(12,0,0,12,382.4,440.9)" />
<use xlink:href="#f0_2b" transform="matrix(12,0,0,12,391.6,440.9)" />
<use xlink:href="#f0_2a" transform="matrix(12,0,0,12,400.8,440.9)" />
<use xlink:href="#f0_21" transform="matrix(12,0,0,12,409.6,440.9)" />
<use xlink:href="#f0_2g" transform="matrix(12,0,0,12,420.6,440.9)" />
<use xlink:href="#f0_2b" transform="matrix(12,0,0,12,426.1,440.9)" />
<use xlink:href="#f0_2f" transform="matrix(12,0,0,12,438.6,440.9)" />
<use xlink:href="#f0_21" transform="matrix(12,0,0,12,445.6,440.9)" />
<use xlink:href="#f0_2c" transform="matrix(12,0,0,12,453.3,440.9)" />
<use xlink:href="#f0_1x" transform="matrix(12,0,0,12,462.1,440.9)" />
<use xlink:href="#f0_2e" transform="matrix(12,0,0,12,470.2,440.9)" />
<use xlink:href="#f0_1x" transform="matrix(12,0,0,12,476.1,440.9)" />
<use xlink:href="#f0_2g" transform="matrix(12,0,0,12,483.8,440.9)" />
<use xlink:href="#f0_21" transform="matrix(12,0,0,12,489.3,440.9)" />
<use xlink:href="#f0_2g" transform="matrix(12,0,0,12,500.7,440.9)" />
<use xlink:href="#f0_24" transform="matrix(12,0,0,12,505.8,440.9)" />
<use xlink:href="#f0_21" transform="matrix(12,0,0,12,514.3,440.9)" />
<use xlink:href="#f0_1z" transform="matrix(12,0,0,12,525.7,440.9)" />
<use xlink:href="#f0_24" transform="matrix(12,0,0,12,533.4,440.9)" />
<use xlink:href="#f0_1x" transform="matrix(12,0,0,12,542.2,440.9)" />
<use xlink:href="#f0_2e" transform="matrix(12,0,0,12,549.9,440.9)" />
<use xlink:href="#f0_23" transform="matrix(12,0,0,12,555.8,440.9)" />
<use xlink:href="#f0_21" transform="matrix(12,0,0,12,565,440.9)" />
<use xlink:href="#f0_2f" transform="matrix(12,0,0,12,572.7,440.9)" />
<use xlink:href="#f0_1x" transform="matrix(12,0,0,12,582.6,440.9)" />
<use xlink:href="#f0_2g" transform="matrix(12,0,0,12,590.3,440.9)" />
<use xlink:href="#f0_25" transform="matrix(12,0,0,12,599.2,440.9)" />
<use xlink:href="#f0_2a" transform="matrix(12,0,0,12,603.2,440.9)" />
<use xlink:href="#f0_22" transform="matrix(12,0,0,12,612,440.9)" />
<use xlink:href="#f0_25" transform="matrix(12,0,0,12,617.2,440.9)" />
<use xlink:href="#f0_2a" transform="matrix(12,0,0,12,621.2,440.9)" />
<use xlink:href="#f0_25" transform="matrix(12,0,0,12,630,440.9)" />
<use xlink:href="#f0_2g" transform="matrix(12,0,0,12,634.1,440.9)" />
<use xlink:href="#f0_21" transform="matrix(12,0,0,12,639.2,440.9)" />
<use xlink:href="#f0_20" transform="matrix(12,0,0,12,650.6,440.9)" />
<use xlink:href="#f0_25" transform="matrix(12,0,0,12,659.4,440.9)" />
<use xlink:href="#f0_2f" transform="matrix(12,0,0,12,663.9,440.9)" />
<use xlink:href="#f0_2g" transform="matrix(12,0,0,12,670.5,440.9)" />
<use xlink:href="#f0_1x" transform="matrix(12,0,0,12,676,440.9)" />
<use xlink:href="#f0_2a" transform="matrix(12,0,0,12,683.7,440.9)" />
<use xlink:href="#f0_1z" transform="matrix(12,0,0,12,692.1,440.9)" />
<use xlink:href="#f0_21" transform="matrix(12,0,0,12,700.2,440.9)" />
<use xlink:href="#f0_i" transform="matrix(12,0,0,12,707.9,440.9)" />
<use xlink:href="#f0_11" transform="matrix(12,0,0,12,64.9,468.7)" />
<use xlink:href="#f0_2a" transform="matrix(12,0,0,12,77.4,468.7)" />
<use xlink:href="#f0_2f" transform="matrix(12,0,0,12,85.8,468.7)" />
<use xlink:href="#f0_i" transform="matrix(12,0,0,12,92.4,468.7)" />
<use xlink:href="#f0_1k" transform="matrix(12,0,0,12,155.8,468.7)" />
<use xlink:href="#f0_24" transform="matrix(12,0,0,12,166.8,468.7)" />
<use xlink:href="#f0_21" transform="matrix(12,0,0,12,175.7,468.7)" />
<use xlink:href="#f0_1x" transform="matrix(12,0,0,12,186.7,468.7)" />
<use xlink:href="#f0_29" transform="matrix(12,0,0,12,194.4,468.7)" />
<use xlink:href="#f0_2b" transform="matrix(12,0,0,12,208,468.7)" />
<use xlink:href="#f0_2a" transform="matrix(12,0,0,12,217.2,468.7)" />
<use xlink:href="#f0_2g" transform="matrix(12,0,0,12,225.6,468.7)" />
<use xlink:href="#f0_2j" transform="matrix(12,0,0,12,234.4,468.7)" />
<use xlink:href="#f0_2b" transform="matrix(12,0,0,12,247.3,468.7)" />
<use xlink:href="#f0_2e" transform="matrix(12,0,0,12,256.8,468.7)" />
<use xlink:href="#f0_27" transform="matrix(12,0,0,12,262.7,468.7)" />
<use xlink:href="#f0_20" transform="matrix(12,0,0,12,271.5,468.7)" />
<use xlink:href="#f0_2b" transform="matrix(12,0,0,12,280.3,468.7)" />
<use xlink:href="#f0_2a" transform="matrix(12,0,0,12,289.9,468.7)" />
<use xlink:href="#f0_21" transform="matrix(12,0,0,12,298.3,468.7)" />
<use xlink:href="#f0_2g" transform="matrix(12,0,0,12,309.3,468.7)" />
<use xlink:href="#f0_2b" transform="matrix(12,0,0,12,314.5,468.7)" />
<use xlink:href="#f0_2f" transform="matrix(12,0,0,12,327,468.7)" />
<use xlink:href="#f0_21" transform="matrix(12,0,0,12,333.9,468.7)" />
<use xlink:href="#f0_2c" transform="matrix(12,0,0,12,341.7,468.7)" />
<use xlink:href="#f0_1x" transform="matrix(12,0,0,12,350.5,468.7)" />
<use xlink:href="#f0_2e" transform="matrix(12,0,0,12,358.6,468.7)" />
<use xlink:href="#f0_1x" transform="matrix(12,0,0,12,364.4,468.7)" />
<use xlink:href="#f0_2g" transform="matrix(12,0,0,12,372.2,468.7)" />
<use xlink:href="#f0_21" transform="matrix(12,0,0,12,377.7,468.7)" />
<use xlink:href="#f0_2g" transform="matrix(12,0,0,12,388.7,468.7)" />
<use xlink:href="#f0_24" transform="matrix(12,0,0,12,393.8,468.7)" />
<use xlink:href="#f0_21" transform="matrix(12,0,0,12,402.6,468.7)" />
<use xlink:href="#f0_1z" transform="matrix(12,0,0,12,413.7,468.7)" />
<use xlink:href="#f0_24" transform="matrix(12,0,0,12,421.8,468.7)" />
<use xlink:href="#f0_1x" transform="matrix(12,0,0,12,430.2,468.7)" />
<use xlink:href="#f0_2e" transform="matrix(12,0,0,12,437.9,468.7)" />
<use xlink:href="#f0_23" transform="matrix(12,0,0,12,443.8,468.7)" />
<use xlink:href="#f0_21" transform="matrix(12,0,0,12,452.6,468.7)" />
<use xlink:href="#f0_2f" transform="matrix(12,0,0,12,460.3,468.7)" />
<use xlink:href="#f0_1x" transform="matrix(12,0,0,12,470.3,468.7)" />
<use xlink:href="#f0_2g" transform="matrix(12,0,0,12,478,468.7)" />
<use xlink:href="#f0_25" transform="matrix(12,0,0,12,486.8,468.7)" />
<use xlink:href="#f0_2a" transform="matrix(12,0,0,12,490.9,468.7)" />
<use xlink:href="#f0_22" transform="matrix(12,0,0,12,499.3,468.7)" />
<use xlink:href="#f0_25" transform="matrix(12,0,0,12,504.5,468.7)" />
<use xlink:href="#f0_2a" transform="matrix(12,0,0,12,508.9,468.7)" />
<use xlink:href="#f0_25" transform="matrix(12,0,0,12,517.3,468.7)" />
<use xlink:href="#f0_2g" transform="matrix(12,0,0,12,521.4,468.7)" />
<use xlink:href="#f0_2l" transform="matrix(12,0,0,12,526.9,468.7)" />
<use xlink:href="#f0_2j" transform="matrix(12,0,0,12,538.3,468.7)" />
<use xlink:href="#f0_25" transform="matrix(12,0,0,12,551.5,468.7)" />
<use xlink:href="#f0_28" transform="matrix(12,0,0,12,555.5,468.7)" />
<use xlink:href="#f0_28" transform="matrix(12,0,0,12,559.6,468.7)" />
<use xlink:href="#f0_1y" transform="matrix(12,0,0,12,567.3,468.7)" />
<use xlink:href="#f0_21" transform="matrix(12,0,0,12,575.8,468.7)" />
<use xlink:href="#f0_21" transform="matrix(12,0,0,12,587.2,468.7)" />
<use xlink:href="#f0_2d" transform="matrix(12,0,0,12,594.9,468.7)" />
<use xlink:href="#f0_2h" transform="matrix(12,0,0,12,603.7,468.7)" />
<use xlink:href="#f0_1x" transform="matrix(12,0,0,12,612.5,468.7)" />
<use xlink:href="#f0_28" transform="matrix(12,0,0,12,620.6,468.7)" />
<use xlink:href="#f0_2g" transform="matrix(12,0,0,12,627.6,468.7)" />
<use xlink:href="#f0_2b" transform="matrix(12,0,0,12,633.1,468.7)" />
<use xlink:href="#f0_2c" transform="matrix(12,0,0,12,645.6,468.7)" />
<use xlink:href="#f0_2b" transform="matrix(12,0,0,12,654.8,468.7)" />
<use xlink:href="#f0_2g" transform="matrix(12,0,0,12,663.9,468.7)" />
<use xlink:href="#f0_21" transform="matrix(12,0,0,12,669.1,468.7)" />
<use xlink:href="#f0_2a" transform="matrix(12,0,0,12,676.8,468.7)" />
<use xlink:href="#f0_2g" transform="matrix(12,0,0,12,685.6,468.7)" />
<use xlink:href="#f0_25" transform="matrix(12,0,0,12,690.7,468.7)" />
<use xlink:href="#f0_1x" transform="matrix(12,0,0,12,694.8,468.7)" />
<use xlink:href="#f0_28" transform="matrix(12,0,0,12,702.9,468.7)" />
<use xlink:href="#f0_21" transform="matrix(12,0,0,12,710.2,468.7)" />
<use xlink:href="#f0_2a" transform="matrix(12,0,0,12,718.3,468.7)" />
<use xlink:href="#f0_21" transform="matrix(12,0,0,12,726.8,468.7)" />
<use xlink:href="#f0_2e" transform="matrix(12,0,0,12,734.5,468.7)" />
<use xlink:href="#f0_23" transform="matrix(12,0,0,12,740,468.7)" />
<use xlink:href="#f0_2l" transform="matrix(12,0,0,12,749.2,468.7)" />
<use xlink:href="#f0_i" transform="matrix(12,0,0,12,756.1,468.7)" />
</g>
<path d="M187.8,510.7h43.7" class="g4_6" />
<g fill="#000000" >
<use xlink:href="#f2_1r" transform="matrix(11.8,0,0,16.2,233.6,516.8)" />
<use xlink:href="#f2_1t" transform="matrix(11.8,0,0,16.2,464.6,516.8)" />
<use xlink:href="#f0_k" transform="matrix(6.9,0,0,6.9,216.7,534)" />
<use xlink:href="#f0_l" transform="matrix(11.9,0,0,11.9,205,503.6)" />
</g>
<g clip-path="url(#c20_6)">
<g fill="#000000" >
<use xlink:href="#f0_c" transform="matrix(11.9,0,0,11.9,263.3,515.3)" />
<use xlink:href="#f0_o" transform="matrix(11.9,0,0,11.9,279.8,515.3)" />
<use xlink:href="#f0_d" transform="matrix(11.9,0,0,11.9,298.8,515.3)" />
<use xlink:href="#f0_c" transform="matrix(11.9,0,0,11.9,320.1,515.3)" />
<use xlink:href="#f0_m" transform="matrix(11.9,0,0,11.9,349.4,515.3)" />
<use xlink:href="#f0_d" transform="matrix(11.9,0,0,11.9,368.8,515.3)" />
<use xlink:href="#f0_c" transform="matrix(11.9,0,0,11.9,389.7,515.3)" />
<use xlink:href="#f0_o" transform="matrix(11.9,0,0,11.9,406.6,515.3)" />
<use xlink:href="#f0_m" transform="matrix(11.9,0,0,11.9,438.8,515.3)" />
<use xlink:href="#f0_d" transform="matrix(11.9,0,0,11.9,457.9,515.3)" />
</g>
</g>
<g clip-path="url(#c21_6)">
<g fill="#000000" >
<use xlink:href="#f1_1l" transform="matrix(11.9,0,0,11.9,156.9,515.3)" />
<use xlink:href="#f1_2d" transform="matrix(11.9,0,0,11.9,240.5,515.3)" />
<use xlink:href="#f1_2d" transform="matrix(11.9,0,0,11.9,289.3,515.3)" />
<use xlink:href="#f1_2d" transform="matrix(11.9,0,0,11.9,326.7,515.3)" />
<use xlink:href="#f1_2d" transform="matrix(11.9,0,0,11.9,358.9,515.3)" />
<use xlink:href="#f1_2d" transform="matrix(11.9,0,0,11.9,416.1,515.3)" />
<use xlink:href="#f1_2d" transform="matrix(11.9,0,0,11.9,448.4,515.3)" />
</g>
</g>
<g fill="#000000" >
<use xlink:href="#f3_2c" transform="matrix(11.9,0,-3.2,11.9,197.6,529.6)" />
<use xlink:href="#f3_21" transform="matrix(11.9,0,-3.2,11.9,207.2,529.6)" />
<use xlink:href="#f2_x" transform="matrix(11.9,0,0,11.9,174.9,515.3)" />
<use xlink:href="#f2_3a" transform="matrix(11.9,0,0,11.9,251.5,515.3)" />
<use xlink:href="#f2_h" transform="matrix(11.9,0,0,11.9,269.8,515.3)" />
<use xlink:href="#f2_f" transform="matrix(11.9,0,0,11.9,307.6,515.3)" />
<use xlink:href="#f2_3a" transform="matrix(11.9,0,0,11.9,337.7,515.3)" />
<use xlink:href="#f2_f" transform="matrix(11.9,0,0,11.9,377.2,515.3)" />
<use xlink:href="#f2_h" transform="matrix(11.9,0,0,11.9,396.3,515.3)" />
<use xlink:href="#f2_3a" transform="matrix(11.9,0,0,11.9,426.7,515.3)" />
<use xlink:href="#f2_o" transform="matrix(11.9,0,0,11.9,188.8,529.6)" />
</g>
<g clip-path="url(#c22_6)">
<g fill="#000000" >
<use xlink:href="#f4_1u" transform="matrix(11.9,0,0,11.9,222.6,529.6)" />
</g>
</g>
<path d="M187.9,577h43.5" class="g5_6" />
<g clip-path="url(#c23_6)">
<g fill="#000000" >
<use xlink:href="#f0_m" transform="matrix(6.9,0,0,6.9,272.4,573.6)" />
<use xlink:href="#f0_m" transform="matrix(6.9,0,0,6.9,314.6,573.6)" />
<use xlink:href="#f0_m" transform="matrix(6.9,0,0,6.9,355.3,573.6)" />
</g>
</g>
<g fill="#000000" >
<use xlink:href="#f0_k" transform="matrix(6.9,0,0,6.9,216.7,600.4)" />
<use xlink:href="#f0_l" transform="matrix(11.9,0,0,11.9,205,569.9)" />
<use xlink:href="#f0_o" transform="matrix(11.9,0,0,11.9,252.6,581.7)" />
<use xlink:href="#f0_m" transform="matrix(11.9,0,0,11.9,295.2,581.7)" />
<use xlink:href="#f0_s" transform="matrix(11.9,0,0,11.9,336.2,581.7)" />
<use xlink:href="#f0_o" transform="matrix(11.9,0,0,11.9,189.2,596)" />
</g>
<g clip-path="url(#c24_6)">
<g fill="#000000" >
<use xlink:href="#f1_1l" transform="matrix(11.9,0,0,11.9,156.9,581.7)" />
<use xlink:href="#f1_2d" transform="matrix(11.9,0,0,11.9,262.2,581.7)" />
<use xlink:href="#f1_2d" transform="matrix(11.9,0,0,11.9,304.3,581.7)" />
<use xlink:href="#f1_2d" transform="matrix(11.9,0,0,11.9,345.4,581.7)" />
</g>
</g>
<g fill="#000000" >
<use xlink:href="#f3_2c" transform="matrix(11.9,0,-3.2,11.9,197.3,596)" />
<use xlink:href="#f3_21" transform="matrix(11.9,0,-3.2,11.9,207.2,596)" />
</g>
<g clip-path="url(#c25_6)">
<g fill="#000000" >
<use xlink:href="#f2_4r" transform="matrix(11.9,0,0,11.9,235,580.9)" />
<use xlink:href="#f2_57" transform="matrix(11.9,0,0,11.9,363.4,580.9)" />
</g>
</g>
<g fill="#000000" >
<use xlink:href="#f2_x" transform="matrix(11.9,0,0,11.9,174.9,581.7)" />
<use xlink:href="#f2_h" transform="matrix(11.9,0,0,11.9,242.7,581.7)" />
<use xlink:href="#f2_f" transform="matrix(11.9,0,0,11.9,281.9,581.7)" />
<use xlink:href="#f2_h" transform="matrix(11.9,0,0,11.9,324.5,581.7)" />
</g>
<g clip-path="url(#c26_6)">
<g fill="#000000" >
<use xlink:href="#f2_4t" transform="matrix(11.9,0,0,11.9,235,588.6)" />
<use xlink:href="#f2_59" transform="matrix(11.9,0,0,11.9,363.4,588.6)" />
</g>
</g>
<g clip-path="url(#c27_6)">
<g fill="#000000" >
<use xlink:href="#f4_1u" transform="matrix(11.9,0,0,11.9,222.6,596)" />
</g>
</g>
<path d="M187.8,643.4h43.3" class="g4_6" />
<g clip-path="url(#c28_6)">
<g fill="#000000" >
<use xlink:href="#f0_m" transform="matrix(6.9,0,0,6.9,281.2,640)" />
</g>
</g>
<g fill="#000000" >
<use xlink:href="#f0_k" transform="matrix(6.9,0,0,6.9,216.3,666.7)" />
<use xlink:href="#f0_l" transform="matrix(11.9,0,0,11.9,205,636.3)" />
<use xlink:href="#f0_l" transform="matrix(11.9,0,0,11.9,252.3,648)" />
<use xlink:href="#f0_k" transform="matrix(11.9,0,0,11.9,261.4,648)" />
<use xlink:href="#f0_o" transform="matrix(11.9,0,0,11.9,188.8,662.3)" />
</g>
<g clip-path="url(#c29_6)">
<g fill="#000000" >
<use xlink:href="#f1_1l" transform="matrix(11.9,0,0,11.9,156.9,648)" />
<use xlink:href="#f1_2d" transform="matrix(11.9,0,0,11.9,271,648)" />
</g>
</g>
<g fill="#000000" >
<use xlink:href="#f3_2c" transform="matrix(11.9,0,-3.2,11.9,197.3,662.3)" />
<use xlink:href="#f3_21" transform="matrix(11.9,0,-3.2,11.9,206.8,662.3)" />
</g>
<g clip-path="url(#c30_6)">
<g fill="#000000" >
<use xlink:href="#f2_4r" transform="matrix(11.9,0,0,11.9,234.7,647.3)" />
<use xlink:href="#f2_57" transform="matrix(11.9,0,0,11.9,289.3,647.3)" />
</g>
</g>
<g fill="#000000" >
<use xlink:href="#f2_x" transform="matrix(11.9,0,0,11.9,174.9,648)" />
<use xlink:href="#f2_h" transform="matrix(11.9,0,0,11.9,242.4,648)" />
</g>
<g clip-path="url(#c31_6)">
<g fill="#000000" >
<use xlink:href="#f2_4t" transform="matrix(11.9,0,0,11.9,234.7,655)" />
<use xlink:href="#f2_59" transform="matrix(11.9,0,0,11.9,289.3,655)" />
</g>
</g>
<g clip-path="url(#c32_6)">
<g fill="#000000" >
<use xlink:href="#f4_1u" transform="matrix(11.9,0,0,11.9,222.2,662.3)" />
</g>
</g>
<path d="M200.4,710.1h43.4" class="g4_6" />
<g fill="#000000" >
<use xlink:href="#f0_m" transform="matrix(6.9,0,0,6.9,273.5,706.7)" />
<use xlink:href="#f0_k" transform="matrix(6.9,0,0,6.9,229.2,733.5)" />
<use xlink:href="#f0_l" transform="matrix(11.9,0,0,11.9,217.4,703)" />
<use xlink:href="#f0_l" transform="matrix(11.9,0,0,11.9,244.9,714.8)" />
<use xlink:href="#f0_k" transform="matrix(11.9,0,0,11.9,254.1,714.8)" />
<use xlink:href="#f0_o" transform="matrix(11.9,0,0,11.9,201.7,729.1)" />
</g>
<g clip-path="url(#c33_6)">
<g fill="#000000" >
<use xlink:href="#f1_1l" transform="matrix(11.9,0,0,11.9,156.9,714.8)" />
<use xlink:href="#f1_2d" transform="matrix(11.9,0,0,11.9,263.6,714.8)" />
<use xlink:href="#f1_2h" transform="matrix(11.9,0,0,11.9,282.7,714.8)" />
<use xlink:href="#f1_2a" transform="matrix(11.9,0,0,11.9,291.8,714.8)" />
<use xlink:href="#f1_25" transform="matrix(11.9,0,0,11.9,301,714.8)" />
<use xlink:href="#f1_2g" transform="matrix(11.9,0,0,11.9,306.1,714.8)" />
</g>
</g>
<g fill="#000000" >
<use xlink:href="#f3_2c" transform="matrix(11.9,0,-3.2,11.9,209.7,729.1)" />
<use xlink:href="#f3_21" transform="matrix(11.9,0,-3.2,11.9,219.6,729.1)" />
<use xlink:href="#f2_x" transform="matrix(11.9,0,0,11.9,174.9,714.8)" />
<use xlink:href="#f2_h" transform="matrix(11.9,0,0,11.9,187.4,714.8)" />
</g>
<g clip-path="url(#c34_6)">
<g fill="#000000" >
<use xlink:href="#f4_1u" transform="matrix(11.9,0,0,11.9,235,729.1)" />
</g>
</g>
<g fill="#000000" >
<use xlink:href="#f0_l" transform="matrix(12,0,0,12,64.9,802.8)" />
<use xlink:href="#f0_m" transform="matrix(12,0,0,12,74.1,802.8)" />
<use xlink:href="#f0_c" transform="matrix(12,0,0,12,117,802.8)" />
<use xlink:href="#f0_1x" transform="matrix(12,0,0,12,122.5,802.8)" />
<use xlink:href="#f0_d" transform="matrix(12,0,0,12,130.2,802.8)" />
<use xlink:href="#f0_14" transform="matrix(12,0,0,12,155.8,802.8)" />
<use xlink:href="#f0_21" transform="matrix(12,0,0,12,168.7,802.8)" />
<use xlink:href="#f0_22" transform="matrix(12,0,0,12,176.8,802.8)" />
<use xlink:href="#f0_25" transform="matrix(12,0,0,12,181.9,802.8)" />
<use xlink:href="#f0_2a" transform="matrix(12,0,0,12,186,802.8)" />
<use xlink:href="#f0_21" transform="matrix(12,0,0,12,194.4,802.8)" />
<use xlink:href="#f0_2g" transform="matrix(12,0,0,12,205.8,802.8)" />
<use xlink:href="#f0_24" transform="matrix(12,0,0,12,211,802.8)" />
<use xlink:href="#f0_21" transform="matrix(12,0,0,12,219.4,802.8)" />
<use xlink:href="#f0_2g" transform="matrix(12,0,0,12,230.4,802.8)" />
<use xlink:href="#f0_21" transform="matrix(12,0,0,12,235.6,802.8)" />
<use xlink:href="#f0_2e" transform="matrix(12,0,0,12,243.3,802.8)" />
<use xlink:href="#f0_29" transform="matrix(12,0,0,12,249.5,802.8)" />
<use xlink:href="#f0_b" transform="matrix(12,0,0,12,266,802.8)" />
<use xlink:href="#f0_1z" transform="matrix(12,0,0,12,268.6,802.8)" />
<use xlink:href="#f0_2b" transform="matrix(12,0,0,12,276.7,802.8)" />
<use xlink:href="#f0_2a" transform="matrix(12,0,0,12,285.9,802.8)" />
<use xlink:href="#f0_20" transform="matrix(12,0,0,12,294.3,802.8)" />
<use xlink:href="#f0_2h" transform="matrix(12,0,0,12,303.5,802.8)" />
<use xlink:href="#f0_1z" transform="matrix(12,0,0,12,312.3,802.8)" />
<use xlink:href="#f0_2g" transform="matrix(12,0,0,12,320,802.8)" />
<use xlink:href="#f0_25" transform="matrix(12,0,0,12,325.2,802.8)" />
<use xlink:href="#f0_2i" transform="matrix(12,0,0,12,329.6,802.8)" />
<use xlink:href="#f0_25" transform="matrix(12,0,0,12,338,802.8)" />
<use xlink:href="#f0_2g" transform="matrix(12,0,0,12,342.1,802.8)" />
<use xlink:href="#f0_2l" transform="matrix(12,0,0,12,347.2,802.8)" />
<use xlink:href="#f0_b" transform="matrix(12,0,0,12,355.7,802.8)" />
<use xlink:href="#f0_2b" transform="matrix(12,0,0,12,361.6,802.8)" />
<use xlink:href="#f0_22" transform="matrix(12,0,0,12,370.7,802.8)" />
<use xlink:href="#f0_1x" transform="matrix(12,0,0,12,379.6,802.8)" />
<use xlink:href="#f0_29" transform="matrix(12,0,0,12,390.2,802.8)" />
<use xlink:href="#f0_21" transform="matrix(12,0,0,12,403.8,802.8)" />
<use xlink:href="#f0_2g" transform="matrix(12,0,0,12,411.5,802.8)" />
<use xlink:href="#f0_1x" transform="matrix(12,0,0,12,416.7,802.8)" />
<use xlink:href="#f0_28" transform="matrix(12,0,0,12,424.7,802.8)" />
<use xlink:href="#f0_28" transform="matrix(12,0,0,12,428.8,802.8)" />
<use xlink:href="#f0_25" transform="matrix(12,0,0,12,432.8,802.8)" />
<use xlink:href="#f0_1z" transform="matrix(12,0,0,12,436.9,802.8)" />
<use xlink:href="#f0_2j" transform="matrix(12,0,0,12,448.3,802.8)" />
<use xlink:href="#f0_25" transform="matrix(12,0,0,12,461.2,802.8)" />
<use xlink:href="#f0_2e" transform="matrix(12,0,0,12,465.2,802.8)" />
<use xlink:href="#f0_21" transform="matrix(12,0,0,12,471.4,802.8)" />
<use xlink:href="#f0_i" transform="matrix(12,0,0,12,479.2,802.8)" />
<use xlink:href="#f0_1n" transform="matrix(12,0,0,12,486.5,802.8)" />
<use xlink:href="#f0_2e" transform="matrix(12,0,0,12,502.7,802.8)" />
<use xlink:href="#f0_25" transform="matrix(12,0,0,12,508.6,802.8)" />
<use xlink:href="#f0_2g" transform="matrix(12,0,0,12,512.6,802.8)" />
<use xlink:href="#f0_21" transform="matrix(12,0,0,12,518.1,802.8)" />
<use xlink:href="#f0_25" transform="matrix(12,0,0,12,529.1,802.8)" />
<use xlink:href="#f0_2g" transform="matrix(12,0,0,12,533.2,802.8)" />
<use xlink:href="#f0_2f" transform="matrix(12,0,0,12,538.7,802.8)" />
<use xlink:href="#f0_1j" transform="matrix(12,0,0,12,548.3,802.8)" />
<use xlink:href="#f0_19" transform="matrix(12,0,0,12,558.2,802.8)" />
<use xlink:href="#f0_2h" transform="matrix(12,0,0,12,567.7,802.8)" />
<use xlink:href="#f0_2a" transform="matrix(12,0,0,12,576.5,802.8)" />
<use xlink:href="#f0_25" transform="matrix(12,0,0,12,585,802.8)" />
<use xlink:href="#f0_2g" transform="matrix(12,0,0,12,589.4,802.8)" />
<use xlink:href="#f0_i" transform="matrix(12,0,0,12,594.5,802.8)" />
<use xlink:href="#f0_c" transform="matrix(12,0,0,12,602.3,802.8)" />
<use xlink:href="#f0_1y" transform="matrix(12,0,0,12,608.5,802.8)" />
<use xlink:href="#f0_d" transform="matrix(12,0,0,12,617,802.8)" />
<use xlink:href="#f0_11" transform="matrix(12,0,0,12,64.9,831.4)" />
<use xlink:href="#f0_2a" transform="matrix(12,0,0,12,77.4,831.4)" />
<use xlink:href="#f0_2f" transform="matrix(12,0,0,12,85.8,831.4)" />
<use xlink:href="#f0_i" transform="matrix(12,0,0,12,92.4,831.4)" />
<use xlink:href="#f0_13" transform="matrix(12,0,0,12,155.8,831.4)" />
<use xlink:href="#f0_2b" transform="matrix(12,0,0,12,167.2,831.4)" />
<use xlink:href="#f0_2a" transform="matrix(12,0,0,12,176.4,831.4)" />
<use xlink:href="#f0_20" transform="matrix(12,0,0,12,184.5,831.4)" />
<use xlink:href="#f0_2h" transform="matrix(12,0,0,12,192.9,831.4)" />
<use xlink:href="#f0_1z" transform="matrix(12,0,0,12,201.7,831.4)" />
<use xlink:href="#f0_2g" transform="matrix(12,0,0,12,209.1,831.4)" />
<use xlink:href="#f0_25" transform="matrix(12,0,0,12,214.2,831.4)" />
<use xlink:href="#f0_2i" transform="matrix(12,0,0,12,217.9,831.4)" />
<use xlink:href="#f0_25" transform="matrix(12,0,0,12,226,831.4)" />
<use xlink:href="#f0_2g" transform="matrix(12,0,0,12,230,831.4)" />
<use xlink:href="#f0_2l" transform="matrix(12,0,0,12,234.8,831.4)" />
</g>
<path d="M185.9,873.5h21.6" class="g6_6" />
<g fill="#000000" >
<use xlink:href="#f1_1i" transform="matrix(11.9,0,0,11.9,159.1,877.9)" />
</g>
<g clip-path="url(#c35_6)">
<g fill="#000000" >
<use xlink:href="#f1_11" transform="matrix(11.9,0,0,11.9,192.1,892.2)" />
</g>
</g>
<g clip-path="url(#c36_6)">
<g fill="#000000" >
<use xlink:href="#f3_2e" transform="matrix(11.9,0,-3.2,11.9,187.7,866.6)" />
</g>
</g>
<g fill="#000000" >
<use xlink:href="#f2_x" transform="matrix(11.9,0,0,11.9,173.1,877.9)" />
</g>
<g clip-path="url(#c37_6)">
<g fill="#000000" >
<use xlink:href="#f4_1u" transform="matrix(11.9,0,0,11.9,198.7,866.6)" />
</g>
</g>
<path d="M186.2,934.4h24.5" class="g4_6" />
<g clip-path="url(#c38_6)">
<g fill="#000000" >
<use xlink:href="#f1_1i" transform="matrix(11.9,0,0,11.9,188.1,927.4)" />
<use xlink:href="#f1_11" transform="matrix(11.9,0,0,11.9,199.1,927.4)" />
</g>
</g>
<g fill="#000000" >
<use xlink:href="#f3_2e" transform="matrix(11.9,0,-3.2,11.9,159.1,938.8)" />
<use xlink:href="#f2_x" transform="matrix(11.9,0,0,11.9,173.4,938.8)" />
</g>
<g clip-path="url(#c39_6)">
<g fill="#000000" >
<use xlink:href="#f4_1u" transform="matrix(11.9,0,0,11.9,194.3,953.1)" />
</g>
</g>
<path d="M467.5,927.3H466v-1.9l-.3,-1.1v-1.4l-.4,-1.5v-1.1l-.4,-1.1l-.3,-1.1l-.4,-1.1l-.4,-1.1l-.3,-.7l-.4,-.7l-.7,-.4l-.4,-.3l-.4,-.4h-.3V913h-.4v-1.4h.7l.4,.3h.4l.7,.4l.4,.7l.7,.8l.4,.7l.7,1.1l.4,.7l.3,1.1l.4,1.1l.4,1.5l.3,1.1v1.4l.4,1.5v3.3Zm-6.6,15.3v-1.5h.4v-.4h.3l.4,-.3l.4,-.4l.7,-.3l.4,-.8l.3,-.7l.4,-1.1l.4,-1.1l.3,-.7l.4,-1.5v-1.1l.4,-1.4v-1.5l.3,-1.1v-1.4h1.5v2.9l-.4,1.4v1.5l-.3,1.1l-.4,1.4l-.4,1.1l-.3,1.1l-.4,1.1l-.7,.8l-.4,.7l-.7,.7l-.4,.7l-.7,.4H462l-.4,.4h-.7Zm-7,-15.3h1.5v1.4l.4,1.1v1.5l.3,1.4v1.1l.4,1.5l.4,.7l.3,1.1l.4,1.1l.4,.7l.3,.8l.8,.3l.3,.4l.4,.3h.4v.4h.7v1.5h-1.1l-.4,-.4h-.3l-.8,-.4l-.3,-.7l-.8,-.7l-.3,-.7l-.8,-.8l-.3,-1.1l-.4,-1.1l-.4,-1.1l-.3,-1.4l-.4,-1.1v-1.5l-.4,-1.4v-2.9Zm7,-15.7V913h-.7v.4h-.4l-.4,.4l-.3,.3l-.8,.4l-.3,.7l-.4,.7l-.4,1.1l-.3,1.1l-.4,1.1l-.4,1.1v1.1l-.3,1.5v1.4l-.4,1.1v1.9h-1.5V924l.4,-1.5v-1.4l.4,-1.1l.3,-1.5l.4,-1.1l.4,-1.1l.3,-.7l.8,-1.1l.3,-.7l.8,-.8l.3,-.7l.8,-.4h.3l.4,-.3h1.1Z" class="g7_6" />
<path d="M602.1,927.3h-1.5v-4.4l-.4,-1.5l-.3,-1.1v-1.1l-.4,-1.1l-.4,-1.1l-.3,-1.1l-.8,-.7l-.3,-.7l-.4,-.4l-.4,-.3l-.7,-.4l-.4,-.4h-.3v-1.4h.7l.4,.3h.3l.8,.4l.7,.7l.7,.8l.4,.7l.4,1.1l.7,.7l.4,1.1l.3,1.1V920l.4,1.1l.4,1.4v4.8Zm-6.6,15.3v-1.5h.3l.4,-.4l.7,-.3l.4,-.4l.4,-.3l.3,-.8l.8,-.7l.3,-1.1l.4,-1.1l.4,-.7v-1.5l.3,-1.1l.4,-1.4v-4h1.5v4.3l-.4,1.5l-.4,1.1v1.4l-.3,1.1l-.4,1.1l-.7,1.1l-.4,.8l-.4,.7l-.7,.7l-.7,.7l-.8,.4h-.3l-.4,.4h-.7Zm-6.6,-15.3h1.4v2.5l.4,1.5v1.4l.4,1.1l.3,1.5l.4,.7l.4,1.1l.3,1.1l.4,.7l.4,.8l.3,.3l.8,.4l.3,.3l.4,.4h.4v1.5h-.8l-.3,-.4H594l-.7,-.4l-.8,-.7l-.3,-.7l-.8,-.7l-.3,-.8l-.4,-1.1l-.4,-1.1l-.3,-1.1l-.4,-1.4l-.4,-1.1l-.3,-1.5v-4.3Zm6.6,-15.7V913h-.4l-.4,.4l-.3,.4l-.8,.3l-.3,.4l-.4,.7l-.4,.7l-.3,1.1l-.4,1.1l-.4,1.1l-.3,1.1l-.4,1.1v1.5l-.4,1.4v3h-1.4v-4.8l.3,-1.4l.4,-1.1l.4,-1.5l.3,-1.1l.4,-1.1l.4,-.7l.3,-1.1l.8,-.7l.3,-.8l.8,-.7l.7,-.4h.4l.3,-.3h.8Z" class="g7_6" />
<path d="M595.5,913H460.9v-1.4H595.5V913Z" class="g7_6" />
<path d="M595.5,942.6H460.9v-1.5H595.5v1.5Z" class="g7_6" />
<path d="M466.8,948.8v8l-7.4,-4l7.4,-4Zm54.2,4.7H466v-1.4h55v1.4Z" class="g7_6" />
<path d="M594,956.8v-8l7.3,4l-7.3,4Zm-54.3,-4.7h55v1.4h-55v-1.4Z" class="g7_6" />
<path fill-rule="evenodd" d="M532.8,951v-2.6h-.4L532,948l-.7,.4l-.4,.4l-.7,.7l-.4,.7l-.7,1.1l-.4,1.1l-.3,1.1l-.4,.7v1.5l-.4,1.1v.7l-.3,.4l-.4,.4l-.4,.3l-.3,.4v.3l.3,-.3l.4,-.4h.4v-.3h.3v-.4h.4V959l.4,.3v.4l.3,.7l.4,.4h1.1l.7,-.4l.8,-.3l.3,-.8V959h-.3l-.4,.3v.4h-.4v.4h-.3l-.4,.3h-.7l-.4,-.3l-.4,-.4v-2.5l.8,-.8l.3,-.7l.8,-.7l.3,-.8l.8,-.7l.3,-.7l.4,-1.1l.4,-.7Zm-.4,-.4l-.4,.7l-.3,.8l-.4,.7l-.4,.7l-.3,.7l-.8,.8l-.3,.7l-.8,.7v-.3l.4,-.8v-.7l.4,-1.1l.3,-.7l.4,-1.1l.4,-1.1l.3,-.7l.4,-.8l.4,-.3l.3,-.4v.4h.4v1.8Z" class="g2_6" />
<path d="M463.5,929.1l-.4,1.4l-2.6,-.7l-2.5,-.4l-1.1,-.3l-1.1,-.4l-.8,-.4l-1.1,-.3l-.7,-.7l-1.1,-.4l-.7,-.4l-.8,-.3l-.7,-.8l-.4,-.7l-.7,-.4l-.4,-.7l-.3,-.7l-.4,-1.1V917l.4,-1.1v-1.1l.3,-1.4l.4,-1.5l.7,-1.4l.8,-1.5l.3,-1.4l.8,-1.9l1.1,-1.8l1.4,.7l-1.1,1.9l-.7,1.8l-.7,1.4l-.4,1.5l-.7,1.5l-.4,1.1l-.4,1.4v1.1l-.3,1.1v4l.3,.8l.4,.7l.4,.3l.3,.8l.4,.3l.7,.4l.4,.4l.7,.7l.8,.4l1.1,.3l.7,.4l1.1,.4l1.1,.3l1.1,.4l2.2,.3l2.6,.8Z" class="g7_6" />
<g clip-path="url(#c40_6)">
<g fill="#1F1A17" >
<use xlink:href="#f0_11" transform="matrix(12,0,0,11.9,455.4,908)" />
</g>
</g>
<path d="M158.9,995.2H173m16.2,0h35.4" class="g8_6" />
<g fill="#000000" >
<use xlink:href="#f0_l" transform="matrix(12,0,0,12,161.3,988.3)" />
</g>
<g clip-path="url(#c41_6)">
<g fill="#000000" >
<use xlink:href="#f1_1i" transform="matrix(12,0,0,12,191,1014.3)" />
<use xlink:href="#f1_11" transform="matrix(12,0,0,12,213,1014.3)" />
</g>
</g>
<g fill="#000000" >
<use xlink:href="#f3_2e" transform="matrix(12,0,-3.2,12,160.6,1014.3)" />
<use xlink:href="#f2_x" transform="matrix(12,0,0,12,176.4,999.7)" />
</g>
<g clip-path="url(#c42_6)">
<g fill="#000000" >
<use xlink:href="#f2_49" transform="matrix(12,0,0,12,204.6,1014.3)" />
</g>
</g>
<g clip-path="url(#c43_6)">
<g fill="#000000" >
<use xlink:href="#f4_1u" transform="matrix(12,0,0,12,202.8,988.3)" />
</g>
</g>
<path d="M186.6,1060.3h28.8" class="g9_6" />
<g clip-path="url(#c44_6)">
<g fill="#000000" >
<use xlink:href="#f1_1i" transform="matrix(11.9,0,0,11.9,188.5,1079.2)" />
<use xlink:href="#f1_11" transform="matrix(11.9,0,0,11.9,203.9,1079.2)" />
</g>
</g>
<g fill="#000000" >
<use xlink:href="#f3_2f" transform="matrix(11.9,0,-3.2,11.9,157.3,1064.9)" />
<use xlink:href="#f2_x" transform="matrix(11.9,0,0,11.9,173.8,1064.9)" />
</g>
<g clip-path="url(#c45_6)">
<g fill="#000000" >
<use xlink:href="#f4_1u" transform="matrix(11.9,0,0,11.9,196.9,1053.2)" />
</g>
</g>
<g fill="#000000" >
<use xlink:href="#f0_13" transform="matrix(12,0,0,12,155.8,1113.3)" />
<use xlink:href="#f0_2b" transform="matrix(12,0,0,12,167.6,1113.3)" />
<use xlink:href="#f0_2a" transform="matrix(12,0,0,12,177.1,1113.3)" />
<use xlink:href="#f0_20" transform="matrix(12,0,0,12,185.6,1113.3)" />
<use xlink:href="#f0_2h" transform="matrix(12,0,0,12,194.4,1113.3)" />
<use xlink:href="#f0_1z" transform="matrix(12,0,0,12,203.2,1113.3)" />
<use xlink:href="#f0_2g" transform="matrix(12,0,0,12,211.3,1113.3)" />
<use xlink:href="#f0_25" transform="matrix(12,0,0,12,216.4,1113.3)" />
<use xlink:href="#f0_2i" transform="matrix(12,0,0,12,220.5,1113.3)" />
<use xlink:href="#f0_25" transform="matrix(12,0,0,12,228.9,1113.3)" />
<use xlink:href="#f0_2g" transform="matrix(12,0,0,12,233.3,1113.3)" />
<use xlink:href="#f0_2l" transform="matrix(12,0,0,12,238.5,1113.3)" />
<use xlink:href="#f0_2b" transform="matrix(12,0,0,12,249.9,1113.3)" />
<use xlink:href="#f0_22" transform="matrix(12,0,0,12,259.4,1113.3)" />
<use xlink:href="#f0_1x" transform="matrix(12,0,0,12,267.9,1113.3)" />
<use xlink:href="#f0_2j" transform="matrix(12,0,0,12,278.9,1113.3)" />
<use xlink:href="#f0_25" transform="matrix(12,0,0,12,291.7,1113.3)" />
<use xlink:href="#f0_2e" transform="matrix(12,0,0,12,295.8,1113.3)" />
<use xlink:href="#f0_21" transform="matrix(12,0,0,12,301.7,1113.3)" />
<use xlink:href="#f0_25" transform="matrix(12,0,0,12,313.1,1113.3)" />
<use xlink:href="#f0_2f" transform="matrix(12,0,0,12,317.1,1113.3)" />
<use xlink:href="#f0_20" transform="matrix(12,0,0,12,327.4,1113.3)" />
<use xlink:href="#f0_21" transform="matrix(12,0,0,12,336.3,1113.3)" />
<use xlink:href="#f0_22" transform="matrix(12,0,0,12,344,1113.3)" />
<use xlink:href="#f0_25" transform="matrix(12,0,0,12,349.1,1113.3)" />
<use xlink:href="#f0_2a" transform="matrix(12,0,0,12,353.5,1113.3)" />
<use xlink:href="#f0_21" transform="matrix(12,0,0,12,362,1113.3)" />
<use xlink:href="#f0_20" transform="matrix(12,0,0,12,369.7,1113.3)" />
<use xlink:href="#f0_1x" transform="matrix(12,0,0,12,382.2,1113.3)" />
<use xlink:href="#f0_2f" transform="matrix(12,0,0,12,389.9,1113.3)" />
<use xlink:href="#f0_2e" transform="matrix(12,0,0,12,399.8,1113.3)" />
<use xlink:href="#f0_21" transform="matrix(12,0,0,12,405.7,1113.3)" />
<use xlink:href="#f0_2f" transform="matrix(12,0,0,12,413.4,1113.3)" />
<use xlink:href="#f0_25" transform="matrix(12,0,0,12,420.1,1113.3)" />
<use xlink:href="#f0_2c" transform="matrix(12,0,0,12,424.5,1113.3)" />
<use xlink:href="#f0_2e" transform="matrix(12,0,0,12,433.3,1113.3)" />
<use xlink:href="#f0_2b" transform="matrix(12,0,0,12,439.2,1113.3)" />
<use xlink:href="#f0_1z" transform="matrix(12,0,0,12,448.3,1113.3)" />
<use xlink:href="#f0_1x" transform="matrix(12,0,0,12,456.4,1113.3)" />
<use xlink:href="#f0_28" transform="matrix(12,0,0,12,464.1,1113.3)" />
<use xlink:href="#f0_2b" transform="matrix(12,0,0,12,471.5,1113.3)" />
<use xlink:href="#f0_22" transform="matrix(12,0,0,12,481,1113.3)" />
<use xlink:href="#f0_2e" transform="matrix(12,0,0,12,489.5,1113.3)" />
<use xlink:href="#f0_21" transform="matrix(12,0,0,12,495.4,1113.3)" />
<use xlink:href="#f0_2f" transform="matrix(12,0,0,12,503.5,1113.3)" />
<use xlink:href="#f0_25" transform="matrix(12,0,0,12,510.1,1113.3)" />
<use xlink:href="#f0_2f" transform="matrix(12,0,0,12,514.1,1113.3)" />
<use xlink:href="#f0_2g" transform="matrix(12,0,0,12,520.8,1113.3)" />
<use xlink:href="#f0_25" transform="matrix(12,0,0,12,526.3,1113.3)" />
<use xlink:href="#f0_2i" transform="matrix(12,0,0,12,530.3,1113.3)" />
<use xlink:href="#f0_25" transform="matrix(12,0,0,12,538.8,1113.3)" />
<use xlink:href="#f0_2g" transform="matrix(12,0,0,12,542.8,1113.3)" />
<use xlink:href="#f0_2l" transform="matrix(12,0,0,12,548.3,1113.3)" />
<use xlink:href="#f0_i" transform="matrix(12,0,0,12,555.3,1113.3)" />
<use xlink:href="#f0_1j" transform="matrix(12,0,0,12,155.8,1145.6)" />
<use xlink:href="#f0_i" transform="matrix(12,0,0,12,165.7,1145.6)" />
<use xlink:href="#f0_19" transform="matrix(12,0,0,12,170.2,1145.6)" />
<use xlink:href="#f0_i" transform="matrix(12,0,0,12,176.4,1145.6)" />
<use xlink:href="#f0_2h" transform="matrix(12,0,0,12,184.1,1145.6)" />
<use xlink:href="#f0_2a" transform="matrix(12,0,0,12,193,1145.6)" />
<use xlink:href="#f0_25" transform="matrix(12,0,0,12,201.4,1145.6)" />
<use xlink:href="#f0_2g" transform="matrix(12,0,0,12,205.8,1145.6)" />
</g>
<g clip-path="url(#c46_6)">
<g fill="#000000" >
<use xlink:href="#f0_j" transform="matrix(12.1,0,0,12.1,251.2,1145.6)" />
</g>
</g>
<g clip-path="url(#c47_6)">
<g fill="#000000" >
<use xlink:href="#f1_29" transform="matrix(12.1,0,0,12.1,217.1,1145.6)" />
<use xlink:href="#f1_24" transform="matrix(12.1,0,0,12.1,229.9,1145.6)" />
<use xlink:href="#f1_2b" transform="matrix(12.1,0,0,12.1,239.1,1145.6)" />
<use xlink:href="#f1_29" transform="matrix(12.1,0,0,12.1,259.2,1145.6)" />
</g>
</g>
<g fill="#000000" >
<use xlink:href="#f5_q" transform="matrix(8,0,0,8,792.2,1264.3)" />
</g>
<defs>
<path d="M197,0V27c0,0,71,2,92,13c0,0,21,10,29,29c0,0,9,18,9,109V725c0,0,0,110,-8,141c0,0,-5,24,-19,35c0,0,-14,11,-33,11c0,0,-28,0,-77,-23l-11,23l246,121h25V178c0,0,0,-85,7,-106c0,0,7,-21,29,-32c0,0,23,-11,91,-13V0Z" 
id="f0_l"
transform="scale(0.001,-0.001)" />

<path d="M33,0V27c0,0,264,241,371,393c0,0,108,152,108,278c0,0,0,96,-59,158c0,0,-59,62,-141,62c0,0,-75,0,-134,-43c0,0,-59,-44,-88,-128H63c0,0,18,138,95,212c0,0,77,74,193,74c0,0,123,0,205,-80c0,0,83,-79,83,-186c0,0,0,-77,-36,-154c0,0,-55,-121,-179,-256C424,357,238,154,191,112H455c0,0,81,0,114,6c0,0,32,6,58,25c0,0,27,18,46,52h27L630,0Z" 
id="f0_m"
transform="scale(0.001,-0.001)" />

<path d="M-36,0l10,26c0,0,57,2,76,11c0,0,30,13,44,34c0,0,20,31,48,127L315,809c0,0,22,74,22,116c0,0,0,20,-10,33c0,0,-10,14,-29,21c0,0,-19,7,-75,7l9,26h789L947,757H919c0,0,8,46,8,76c0,0,0,49,-27,78c0,0,-28,29,-70,41c0,0,-30,7,-133,7H489L375,556H511c0,0,90,0,134,28c0,0,44,28,91,118h29L659,334H629c0,0,11,45,11,74c0,0,0,46,-30,71c0,0,-30,25,-112,25H360L270,185c0,0,-24,-76,-24,-100c0,0,0,-26,20,-40c0,0,21,-14,101,-19L358,0Z" 
id="f1_16"
transform="scale(0.001,-0.001)" />

<path d="M0,214v74H784V214ZM0,494v72H784V494Z" 
id="f2_x"
transform="scale(0.001,-0.001)" />

<path d="M474,-326c0,0,-112,57,-188,133c0,0,-107,108,-165,254c0,0,-58,147,-58,305c0,0,0,231,114,421c0,0,114,191,297,273v-31c0,0,-92,-51,-151,-139c0,0,-59,-88,-88,-223c0,0,-30,-135,-30,-281c0,0,0,-160,25,-290c0,0,20,-102,47,-164c0,0,28,-62,75,-120c0,0,47,-57,122,-109v-29Z" 
id="f0_c"
transform="scale(0.001,-0.001)" />

<path d="M35,-326v29c0,0,92,51,151,139c0,0,60,87,89,221c0,0,28,136,28,282c0,0,0,159,-24,290c0,0,-19,103,-47,165c0,0,-28,62,-75,119c0,0,-46,57,-122,110v31c0,0,113,-56,188,-132c0,0,107,-109,165,-255c0,0,58,-147,58,-306c0,0,0,-231,-114,-420c0,0,-113,-191,-297,-273Z" 
id="f0_d"
transform="scale(0.001,-0.001)" />

<path d="M452,373V875L97,373ZM452,0V267H23v95l470,671h82V373H711V267H575V0Z" 
id="f0_o"
transform="scale(0.001,-0.001)" />

<path d="M342,-20c0,0,-116,0,-203,97c0,0,-86,98,-86,264c0,0,0,161,96,261c0,0,95,101,230,101c0,0,100,0,165,-53c0,0,65,-54,65,-111c0,0,0,-29,-18,-46c0,0,-18,-18,-51,-18c0,0,-44,0,-66,29c0,0,-13,15,-17,59c0,0,-4,45,-30,68c0,0,-26,22,-73,22c0,0,-74,0,-120,-55c0,0,-60,-73,-60,-193c0,0,0,-122,60,-216c0,0,60,-93,162,-93c0,0,73,0,131,49c0,0,41,35,80,126l22,-10C629,261,601,125,521,52c0,0,-81,-72,-179,-72Z" 
id="f0_1z"
transform="scale(0.001,-0.001)" />

<path d="M406,32c0,0,72,0,119,60c0,0,47,59,47,205c0,0,0,181,-78,286c0,0,-53,71,-135,71c0,0,-40,0,-79,-23c0,0,-40,-24,-65,-83c0,0,-24,-58,-24,-151c0,0,0,-149,59,-257c0,0,59,-108,156,-108ZM374,-20c0,0,-154,0,-245,122c0,0,-77,104,-77,233c0,0,0,94,46,187c0,0,47,92,123,137c0,0,76,44,161,44c0,0,155,0,249,-118c0,0,80,-100,80,-231c0,0,0,-91,-44,-185C667,169,623,75,546,27c0,0,-77,-47,-172,-47Z" 
id="f0_2b"
transform="scale(0.001,-0.001)" />

<path d="M312,-20c0,0,-62,0,-143,22c0,0,-25,8,-40,8c0,0,-18,0,-27,-19H77V234h25c0,0,21,-105,80,-158c0,0,59,-53,132,-53c0,0,51,0,84,31c0,0,32,30,32,72c0,0,0,52,-36,87c0,0,-36,35,-144,88c0,0,-109,54,-142,97c0,0,-34,43,-34,107c0,0,0,85,58,141c0,0,58,57,150,57c0,0,40,0,97,-17c0,0,38,-11,51,-11c0,0,12,0,19,5c0,0,7,5,15,23h25V470H464c0,0,-28,110,-72,149c0,0,-45,40,-113,40c0,0,-53,0,-85,-28c0,0,-32,-27,-32,-61c0,0,0,-41,24,-71c0,0,23,-31,94,-65L389,381c0,0,152,-74,152,-194c0,0,0,-94,-71,-151c0,0,-70,-56,-158,-56Z" 
id="f0_2f"
transform="scale(0.001,-0.001)" />

<path d="M379,29c0,0,41,0,84,37c0,0,43,36,65,121c0,0,34,128,34,362c0,0,0,173,-35,288c0,0,-27,86,-69,122c0,0,-31,25,-74,25c0,0,-51,0,-90,-46c0,0,-54,-62,-73,-195c0,0,-20,-132,-20,-261c0,0,0,-209,52,-341c0,0,42,-112,126,-112Zm-2,-46c0,0,-145,0,-241,170c0,0,-81,144,-81,347c0,0,0,173,52,298c0,0,52,125,139,186c0,0,67,49,139,49c0,0,116,0,208,-119c0,0,116,-147,116,-398c0,0,0,-176,-51,-299C658,217,608,94,529,38c0,0,-79,-55,-152,-55Z" 
id="f0_k"
transform="scale(0.001,-0.001)" />

<path d="M355,0V355H0v72H355V784h72V427H782V355H427V0Z" 
id="f2_f"
transform="scale(0.001,-0.001)" />

<path d="M230,639c0,0,69,0,118,48c0,0,48,49,48,118c0,0,0,69,-48,118c0,0,-49,49,-118,49c0,0,-69,0,-118,-49c0,0,-48,-49,-48,-118c0,0,0,-69,48,-118c0,0,49,-48,118,-48Zm1,-64c0,0,-96,0,-163,67C68,642,1,709,1,804c0,0,0,95,67,162c0,0,67,68,163,68c0,0,94,0,161,-68c0,0,68,-67,68,-162c0,0,0,-95,-68,-162c0,0,-67,-67,-161,-67Z" 
id="f2_36"
transform="scale(0.001,-0.001)" />

<path d="M0,356v74H784V356Z" 
id="f2_h"
transform="scale(0.001,-0.001)" />

<path d="M238,-17c0,0,-103,0,-139,25C99,8,62,33,62,62c0,0,0,22,17,38c0,0,18,16,42,16c0,0,19,0,38,-6c0,0,13,-3,58,-27c0,0,45,-23,62,-28c0,0,27,-8,59,-8c0,0,76,0,132,59c0,0,56,59,56,140c0,0,0,59,-26,115c0,0,-19,41,-42,63c0,0,-32,30,-88,54c0,0,-56,25,-114,25H232v22c0,0,59,8,118,42c0,0,59,35,86,85c0,0,27,49,27,108c0,0,0,76,-48,124c0,0,-48,47,-120,47c0,0,-116,0,-193,-124L77,819c0,0,44,102,110,158c0,0,66,56,164,56c0,0,122,0,187,-80c0,0,49,-58,49,-126c0,0,0,-110,-139,-228c0,0,93,-36,141,-104c0,0,48,-68,48,-160c0,0,0,-131,-84,-227C553,108,444,-17,238,-17Z" 
id="f0_n"
transform="scale(0.001,-0.001)" />

<path d="M247,72c0,0,46,0,103,51c0,0,88,77,145,198c0,0,58,120,58,208c0,0,0,48,-29,78c0,0,-29,31,-72,31c0,0,-90,0,-191,-157C261,481,161,325,161,186c0,0,0,-56,25,-85c0,0,25,-29,61,-29ZM192,-326l8,27c0,0,73,6,91,13c0,0,28,11,46,36c0,0,19,26,41,108L480,224C480,224,381,80,296,22c0,0,-60,-40,-112,-40c0,0,-75,0,-113,60c0,0,-38,61,-38,132c0,0,0,112,69,236c0,0,69,124,182,203c0,0,88,62,159,62c0,0,53,0,87,-26c0,0,34,-26,51,-83l25,84l116,25L481,-167c0,0,-17,-59,-17,-75c0,0,0,-17,9,-30c0,0,8,-12,23,-18c0,0,23,-9,61,-9l-8,-27Z" 
id="f1_2d"
transform="scale(0.001,-0.001)" />

<path d="M140,-21c0,0,-26,0,-44,17C96,-4,79,13,79,40c0,0,0,19,6,33c0,0,8,20,34,55c0,0,46,60,64,126c0,0,32,114,41,321H190c0,0,-55,0,-81,-18c0,0,-44,-26,-80,-89H0c0,0,42,129,98,178c0,0,43,37,120,37H743V575H562c0,0,-27,-171,-27,-327c0,0,0,-77,27,-110c0,0,27,-33,67,-33c0,0,33,0,56,22c0,0,24,22,31,65h27C743,192,730,74,686,26c0,0,-44,-47,-98,-47c0,0,-58,0,-97,51c0,0,-39,53,-39,198c0,0,0,91,28,347H286c0,0,-23,-390,-56,-494c0,0,-33,-102,-90,-102Z" 
id="f3_2c"
transform="scale(0.001,-0.001)" />

<path d="M291,-21c0,0,-140,0,-216,60C75,39,0,101,0,176c0,0,0,54,40,102c0,0,41,49,147,88c0,0,-89,33,-118,70c0,0,-30,38,-30,89c0,0,0,69,58,116c0,0,79,63,208,63c0,0,77,0,138,-18c0,0,61,-18,83,-47c0,0,22,-28,22,-54c0,0,0,-23,-19,-42c0,0,-20,-19,-45,-19c0,0,-41,0,-68,53c0,0,-27,54,-45,66c0,0,-29,19,-72,19c0,0,-67,0,-106,-39c0,0,-40,-39,-40,-106c0,0,0,-66,33,-101c0,0,33,-35,90,-35c0,0,20,0,43,3c0,0,37,5,57,5c0,0,33,0,44,-8c0,0,12,-8,12,-19c0,0,0,-12,-10,-18c0,0,-13,-10,-47,-10c0,0,-8,0,-25,3c0,0,-39,5,-63,5c0,0,-63,0,-103,-41c0,0,-40,-41,-40,-108c0,0,0,-78,42,-121c0,0,41,-44,107,-44c0,0,53,0,86,32c0,0,20,19,41,78c0,0,14,39,23,47c0,0,24,24,51,24c0,0,31,0,53,-21c0,0,22,-22,22,-54c0,0,0,-51,-59,-95c0,0,-86,-60,-219,-60Z" 
id="f3_21"
transform="scale(0.001,-0.001)" />

<path d="M266,336v0c59,64,106,125,106,125c47,62,82,121,82,121c35,60,62,118,62,118c28,58,49,116,49,116c5,14,10,45,10,45c6,31,5,63,5,63c-1,31,-12,55,-12,55c-12,23,-39,23,-39,23c-25,0,-57,-52,-57,-52C440,898,408,822,408,822C376,746,347,658,347,658C318,570,299,497,299,497c-9,-36,-17,-77,-17,-77c-9,-41,-16,-84,-16,-84ZM342,-19c-44,0,-74,35,-74,35C238,51,221,94,221,94c-18,44,-25,83,-25,83c-8,40,-10,48,-10,48C171,211,158,199,158,199C145,187,131,174,131,174C118,161,101,145,101,145C84,130,61,110,61,110v-1c0,-3,-1,-4,-3,-4c-2,0,-5,1,-5,1q-7,4,-7,4c0,0,-3,9,-3,9c-3,8,3,13,3,13c30,26,67,60,67,60c37,34,72,63,72,63c1,67,10,135,10,135c8,68,19,126,19,126c14,75,50,165,50,165c37,90,83,168,83,168c46,78,94,131,94,131c48,53,85,53,85,53c45,0,64,-29,64,-29c20,-29,23,-68,23,-68c4,-38,-3,-74,-3,-74c-7,-36,-11,-51,-11,-51C571,727,537,658,537,658C503,588,461,527,461,527C420,466,370,410,370,410C321,353,261,295,261,295c-7,-55,-9,-106,-9,-106c-1,-51,7,-91,7,-91c8,-39,28,-64,28,-64C307,10,342,10,342,10c29,0,52,8,52,8c23,9,43,23,43,23c20,15,38,33,38,33c18,18,40,40,40,40c4,4,8,5,11,5c3,0,4,-1,4,-1q8,-3,8,-3c0,0,4,-7,4,-7c3,-7,-1,-13,-1,-13C495,37,451,9,451,9C408,-19,342,-19,342,-19Z" 
id="f4_1u"
transform="scale(0.001,-0.001)" />

<path d="M397,34c0,0,67,0,126,75c0,0,58,74,58,216c0,0,0,131,-58,201c0,0,-59,70,-133,70c0,0,-39,0,-79,-20c0,0,-29,-14,-75,-59V109c0,0,37,-37,78,-56c0,0,40,-19,83,-19ZM358,-20c0,0,-59,0,-121,21c0,0,-61,22,-126,65V773c0,0,0,117,-5,144c0,0,-6,27,-18,37c0,0,-12,9,-29,9c0,0,-21,0,-53,-12l-9,27l205,83h34V564c0,0,98,139,213,139c0,0,105,0,183,-90c0,0,78,-90,78,-245c0,0,0,-182,-121,-293c0,0,-103,-95,-231,-95Z" 
id="f0_1y"
transform="scale(0.001,-0.001)" />

<path d="M24,0V27H60c0,0,63,0,91,37c0,0,18,24,18,115V833c0,0,0,77,-10,102c0,0,-7,18,-30,32c0,0,-32,18,-69,18H24v27H776L787,790H761c0,0,-20,71,-45,104c0,0,-26,33,-64,48c0,0,-37,15,-117,15H312V558H497c0,0,63,0,93,28c0,0,29,28,39,111h27V355H629c0,0,-1,59,-16,87c0,0,-14,27,-40,41c0,0,-26,14,-76,14H312V179c0,0,0,-77,10,-102c0,0,7,-18,31,-32c0,0,33,-18,69,-18h37V0Z" 
id="f0_16"
transform="scale(0.001,-0.001)" />

<path d="M55,0V26c0,0,50,0,67,10c0,0,17,10,27,32c0,0,10,23,10,86V418c0,0,0,111,-6,144c0,0,-6,24,-17,33c0,0,-11,10,-30,10c0,0,-21,0,-51,-11L45,620l206,83h33V154c0,0,0,-64,9,-85c0,0,9,-22,27,-32c0,0,19,-11,67,-11V0ZM222,909c0,0,-32,0,-54,23c0,0,-22,22,-22,53c0,0,0,32,22,54c0,0,22,22,54,22c0,0,31,0,53,-22c0,0,22,-22,22,-54c0,0,0,-31,-22,-53c0,0,-22,-23,-53,-23Z" 
id="f0_25"
transform="scale(0.001,-0.001)" />

<path d="M21,0V26H35c0,0,53,0,71,27c0,0,18,27,18,101V408c0,0,0,123,-5,150c0,0,-6,27,-17,37c0,0,-12,10,-31,10c0,0,-21,0,-50,-11L10,620l206,83h32V558c0,0,120,145,229,145c0,0,56,0,96,-28c0,0,40,-28,64,-92c0,0,16,-45,16,-137V154c0,0,0,-65,11,-88c0,0,8,-19,26,-29c0,0,18,-11,68,-11V0H419V26h14c0,0,47,0,66,15c0,0,20,15,27,43c0,0,3,11,3,70V434c0,0,0,93,-24,135c0,0,-24,42,-81,42c0,0,-88,0,-176,-97V154c0,0,0,-69,9,-86c0,0,10,-21,28,-31c0,0,19,-11,75,-11V0Z" 
id="f0_2a"
transform="scale(0.001,-0.001)" />

<path d="M399,62c0,0,68,0,131,68V481c0,0,-5,51,-27,93c0,0,-22,42,-59,63c0,0,-37,21,-72,21c0,0,-65,0,-117,-59c0,0,-67,-77,-67,-226c0,0,0,-151,65,-231c0,0,66,-80,146,-80ZM330,-20c0,0,-112,0,-196,93c0,0,-83,94,-83,240c0,0,0,147,92,269c0,0,93,122,238,122c0,0,90,0,149,-58V773c0,0,0,117,-6,144c0,0,-5,27,-17,37c0,0,-12,9,-30,9c0,0,-20,0,-52,-12l-9,27l204,83h33V270c0,0,0,-120,6,-146c0,0,5,-27,18,-37c0,0,12,-11,28,-11c0,0,21,0,54,13l9,-26L564,-20H530V78C530,78,480,25,432,2c0,0,-47,-22,-102,-22Z" 
id="f0_20"
transform="scale(0.001,-0.001)" />

<path d="M292,-20c0,0,-57,0,-100,33c0,0,-42,33,-58,85c0,0,-17,52,-17,148V551c0,0,0,49,-10,68c0,0,-11,18,-31,29c0,0,-19,9,-68,9c-2,0,-4,0,-6,0v26H242V226c0,0,0,-95,33,-125c0,0,33,-30,80,-30c0,0,32,0,73,21c0,0,40,20,96,76V555c0,0,0,59,-21,80c0,0,-22,21,-89,22v26H647V269c0,0,0,-119,6,-145c0,0,6,-27,18,-37c0,0,12,-11,29,-11c0,0,23,0,52,13L763,63L558,-20H524V124C524,124,436,29,390,4c0,0,-47,-24,-98,-24Z" 
id="f0_2h"
transform="scale(0.001,-0.001)" />

<path d="M255,-10c0,0,-35,0,-68,18c0,0,-32,19,-48,55c0,0,-16,35,-16,109V632H15v24c0,0,41,16,84,56c0,0,43,39,77,92c0,0,17,29,48,104h23V683H407V632H247V188c0,0,0,-66,19,-90c0,0,19,-23,49,-23c0,0,24,0,47,16c0,0,23,15,36,45h29c0,0,-26,-73,-74,-110c0,0,-47,-36,-98,-36Z" 
id="f0_2g"
transform="scale(0.001,-0.001)" />

<path d="M20,0V26c0,0,45,0,71,15c0,0,15,7,24,28c0,0,9,21,9,85V773c0,0,0,117,-5,144c0,0,-6,27,-17,37c0,0,-12,9,-31,9c0,0,-16,0,-51,-12L10,978l204,83h34V561c0,0,83,91,131,116c0,0,49,26,97,26c0,0,58,0,100,-32c0,0,42,-32,62,-101c0,0,14,-47,14,-174V154c0,0,0,-65,11,-89c0,0,7,-18,25,-28c0,0,18,-11,66,-11V0H418V26h15c0,0,48,0,67,15c0,0,18,15,26,43c0,0,2,12,2,70V396c0,0,0,112,-12,147c0,0,-11,35,-36,53c0,0,-26,17,-61,17c0,0,-37,0,-76,-19c0,0,-40,-20,-95,-79V154c0,0,0,-70,8,-87c0,0,8,-17,29,-29c0,0,22,-12,74,-12V0Z" 
id="f0_24"
transform="scale(0.001,-0.001)" />

<path d="M479,469c0,0,-4,66,-16,93c0,0,-18,42,-55,65c0,0,-37,24,-78,24c0,0,-62,0,-111,-48c0,0,-48,-48,-57,-134ZM355,-20c0,0,-123,0,-211,95c0,0,-87,96,-87,258c0,0,0,175,90,273c0,0,89,98,225,98c0,0,115,0,189,-76c0,0,74,-75,74,-202H162c0,0,0,-152,74,-239c0,0,75,-86,175,-86c0,0,67,0,117,36c0,0,50,37,83,127l24,-15c0,0,-16,-102,-91,-186c0,0,-76,-83,-189,-83Z" 
id="f0_21"
transform="scale(0.001,-0.001)" />

<path d="M286,72c0,0,57,0,149,75V407c0,0,-113,-45,-145,-64c0,0,-59,-32,-85,-68c0,0,-25,-36,-25,-78c0,0,0,-54,32,-89c0,0,32,-36,74,-36ZM217,-13c0,0,-71,0,-116,48c0,0,-46,48,-46,127c0,0,0,50,22,87c0,0,31,50,106,95c0,0,76,45,252,109v26c0,0,0,102,-32,140c0,0,-32,38,-94,38c0,0,-47,0,-74,-25c0,0,-28,-25,-28,-58l1,-43c0,0,0,-34,-17,-53c0,0,-18,-18,-47,-18c0,0,-28,0,-45,19c0,0,-18,19,-18,53c0,0,0,64,66,117c0,0,65,54,184,54c0,0,91,0,149,-31c0,0,44,-23,65,-72c0,0,13,-32,13,-131V238c0,0,0,-98,4,-120c0,0,4,-22,12,-29c0,0,9,-8,20,-8c0,0,12,0,21,5c0,0,16,10,61,55V99C676,99,592,-12,516,-12c0,0,-37,0,-58,24c0,0,-22,26,-23,86C435,98,330,17,303,5c0,0,-40,-18,-86,-18Z" 
id="f0_1x"
transform="scale(0.001,-0.001)" />

<path d="M23,0V26c0,0,47,0,66,10c0,0,19,11,28,33c0,0,10,22,10,85V416c0,0,0,112,-7,145c0,0,-5,25,-16,34c0,0,-11,10,-31,10c0,0,-21,0,-50,-11L12,620l207,83h32V557c0,0,75,75,88,86c0,0,34,29,72,44c0,0,39,16,77,16c0,0,64,0,110,-37c0,0,47,-38,62,-109c0,0,77,90,130,118c0,0,53,28,109,28c0,0,54,0,96,-28c0,0,42,-28,67,-91c0,0,16,-43,16,-136V154c0,0,0,-64,10,-88c0,0,8,-16,28,-28c0,0,20,-12,65,-12V0H844V26h14c0,0,44,0,69,18c0,0,17,12,24,38c0,0,3,13,3,72V448c0,0,0,83,-20,117c0,0,-29,48,-93,48c0,0,-39,0,-79,-20c0,0,-40,-19,-97,-73l-1,-8l2,-32V154c0,0,0,-70,8,-87c0,0,7,-17,29,-29c0,0,21,-12,73,-12V0H431V26c0,0,57,0,78,14c0,0,21,13,29,40c0,0,4,13,4,74V448c0,0,0,83,-25,120c0,0,-33,48,-91,48c0,0,-40,0,-80,-22c0,0,-61,-33,-95,-74V154c0,0,0,-67,10,-87c0,0,9,-20,27,-30c0,0,18,-11,74,-11V0Z" 
id="f0_29"
transform="scale(0.001,-0.001)" />

<path d="M63,0V26H93c0,0,30,0,54,15c0,0,25,15,34,41c0,0,10,25,10,99V630H58v53H191v45c0,0,0,102,33,173c0,0,32,71,100,114c0,0,68,44,152,44c0,0,79,0,145,-51c0,0,43,-33,43,-75c0,0,0,-22,-19,-42c0,0,-20,-20,-42,-20c0,0,-17,0,-36,12c0,0,-19,13,-47,53c0,0,-28,41,-51,55c0,0,-23,14,-51,14c0,0,-35,0,-58,-18c0,0,-24,-18,-35,-57c0,0,-10,-38,-10,-197V683H491V630H315V181c0,0,0,-96,21,-122c0,0,27,-33,73,-33h62V0Z" 
id="f0_22"
transform="scale(0.001,-0.001)" />

<path d="M336,-20L117,554c0,0,-21,55,-42,74c0,0,-21,19,-66,29v26H296V657c0,0,-40,-3,-52,-14c0,0,-13,-12,-13,-33c0,0,0,-23,13,-56L390,162L537,481L498,581c0,0,-18,46,-47,63c0,0,-17,11,-61,13v26H716V657c0,0,-54,-2,-77,-20c0,0,-15,-12,-15,-39c0,0,0,-15,6,-30L785,177L929,554c0,0,15,40,15,65c0,0,0,14,-15,25c0,0,-14,12,-57,13v26h216V657c0,0,-65,-10,-95,-89L764,-20H733L563,415L363,-20Z" 
id="f0_2j"
transform="scale(0.001,-0.001)" />

<path d="M17,0V26c0,0,52,0,77,17c0,0,19,12,26,38c0,0,4,13,4,73V419c0,0,0,119,-5,142c0,0,-4,23,-17,33c0,0,-13,11,-33,11c0,0,-23,0,-52,-11l-7,26l207,83h31V549c0,0,86,154,176,154c0,0,41,0,68,-25c0,0,27,-25,27,-58c0,0,0,-29,-20,-49c0,0,-19,-20,-46,-20c0,0,-26,0,-58,25c0,0,-33,26,-48,26c0,0,-14,0,-29,-15c0,0,-34,-30,-70,-101V159c0,0,0,-56,15,-85c0,0,9,-20,34,-34c0,0,24,-14,71,-14V0Z" 
id="f0_2e"
transform="scale(0.001,-0.001)" />

<path d="M13,0V26c0,0,52,0,78,13c0,0,16,8,24,25c0,0,11,25,11,86V773c0,0,0,118,-5,145c0,0,-5,26,-17,36c0,0,-12,10,-32,10c0,0,-15,0,-47,-13L13,978l203,83h34V381L424,540c0,0,55,50,64,64c0,0,6,9,6,18c0,0,0,15,-12,26c0,0,-13,11,-41,12v23H738V660c0,0,-61,-2,-102,-19c0,0,-40,-17,-89,-62L372,418L547,196c0,0,73,-92,98,-117c0,0,36,-35,63,-45c0,0,18,-8,65,-8V0H441V26c0,0,28,1,38,9c0,0,10,8,10,22c0,0,0,17,-29,56L250,381V154c0,0,0,-67,10,-88c0,0,9,-21,26,-30c0,0,17,-9,75,-10V0Z" 
id="f0_27"
transform="scale(0.001,-0.001)" />

<path d="M398,24c0,0,74,0,120,58c0,0,61,76,61,214c0,0,0,156,-69,240c0,0,-47,59,-113,59c0,0,-36,0,-71,-18c0,0,-27,-14,-88,-81V242c0,0,0,-83,6,-109c0,0,11,-43,51,-76c0,0,41,-33,103,-33ZM-4,-326v27H15c5,0,42,0,69,16c0,0,14,8,22,26c0,0,7,19,7,94V481c0,0,0,67,-6,85c0,0,-5,18,-18,27c0,0,-13,9,-36,9c0,0,-18,0,-45,-10L0,615l209,85h29V540c0,0,53,91,106,127c0,0,53,36,112,36c0,0,103,0,172,-80c0,0,84,-99,84,-257c0,0,0,-176,-102,-292c0,0,-83,-94,-210,-94c0,0,-55,0,-95,16c0,0,-30,10,-67,44V-167c0,0,0,-71,8,-90c0,0,9,-20,30,-31c0,0,21,-11,77,-11v-27Z" 
id="f0_2c"
transform="scale(0.001,-0.001)" />

<path d="M411,-239c0,0,134,0,198,48c0,0,64,47,64,100c0,0,0,39,-38,55c0,0,-39,16,-154,19c0,0,-167,5,-258,17c0,0,-35,-37,-53,-70c0,0,-17,-32,-17,-60c0,0,0,-36,43,-62c0,0,74,-47,215,-47ZM380,257c0,0,56,0,93,43c0,0,36,42,36,133c0,0,0,118,-51,185c0,0,-38,49,-98,49c0,0,-55,0,-92,-44c0,0,-37,-44,-37,-135c0,0,0,-117,50,-182c0,0,39,-49,99,-49ZM345,-328c0,0,-144,0,-243,64c0,0,-56,38,-56,78c0,0,0,18,8,36c0,0,13,27,52,76c0,0,5,7,76,80c0,0,-39,23,-55,41c0,0,-16,19,-16,42c0,0,0,26,22,61c0,0,21,35,98,100c0,0,-63,30,-97,85c0,0,-33,55,-33,121c0,0,0,101,76,174c0,0,77,73,196,73c0,0,98,0,170,-48H688c0,0,32,0,37,-2c0,0,6,-2,8,-6c0,0,4,-7,4,-24c0,0,0,-20,-4,-27c0,0,-2,-4,-7,-6c0,0,-6,-2,-38,-2H599c0,0,41,-54,41,-137c0,0,0,-96,-73,-163c0,0,-73,-68,-196,-68c0,0,-51,0,-104,15c0,0,-33,-28,-44,-49c0,0,-12,-22,-12,-37c0,0,0,-12,13,-24c0,0,12,-12,48,-17c0,0,21,-4,104,-6c0,0,154,-4,199,-11c0,0,70,-10,111,-51c0,0,42,-41,42,-102c0,0,0,-84,-79,-158c0,0,-117,-108,-304,-108Z" 
id="f0_23"
transform="scale(0.001,-0.001)" />

<path d="M191,-20c0,0,-34,0,-58,24c0,0,-24,24,-24,58c0,0,0,35,24,59c0,0,24,24,58,24c0,0,35,0,59,-24c0,0,24,-25,24,-59c0,0,0,-34,-24,-58c0,0,-25,-24,-59,-24Z" 
id="f0_i"
transform="scale(0.001,-0.001)" />

<path d="M678,393L506,802L330,393ZM11,0V27c0,0,63,12,82,30c0,0,38,35,84,145l356,832h27L912,193c0,0,43,-101,77,-132c0,0,35,-30,97,-34V0H687V27c0,0,60,3,82,21c0,0,21,17,21,41c0,0,0,33,-30,104L700,338H307L239,179c0,0,-26,-59,-26,-88c0,0,0,-23,22,-41c0,0,22,-17,95,-23V0Z" 
id="f0_11"
transform="scale(0.001,-0.001)" />

<path d="M253,0V27h36c0,0,64,0,91,39c0,0,16,24,16,109V948H274c0,0,-71,0,-100,-10c0,0,-39,-14,-67,-54c0,0,-27,-41,-33,-109H46l12,237H883L894,775H865c0,0,-8,62,-22,89c0,0,-23,43,-61,64c0,0,-39,20,-101,20H539V175c0,0,0,-93,20,-116c0,0,28,-32,87,-32h36V0Z" 
id="f0_1k"
transform="scale(0.001,-0.001)" />

<path d="M145,-328c0,0,-44,0,-73,25c0,0,-28,25,-28,58c0,0,0,31,21,50c0,0,20,19,56,19c0,0,25,0,67,-16c0,0,30,-11,38,-11c0,0,22,0,49,23c0,0,26,23,53,89L376,28L131,542c0,0,-11,24,-36,58c0,0,-19,27,-30,36c0,0,-18,12,-56,21v26H328V657H312c0,0,-33,0,-50,-15c0,0,-17,-14,-17,-36c0,0,0,-30,25,-81L437,179L589,557c0,0,12,31,12,62c0,0,0,13,-5,20c0,0,-6,8,-19,13c0,0,-12,5,-44,5v26H754V657c0,0,-27,-3,-42,-12c0,0,-15,-9,-33,-34c0,0,-7,-10,-25,-58L376,-128c0,0,-40,-99,-105,-150c0,0,-66,-50,-126,-50Z" 
id="f0_2l"
transform="scale(0.001,-0.001)" />

<path d="M58,0V26c0,0,47,0,64,10c0,0,18,10,28,32c0,0,9,23,9,86V775c0,0,0,116,-5,142c0,0,-5,27,-17,37c0,0,-11,9,-29,9c0,0,-20,0,-49,-12L46,978l204,83h34V154c0,0,0,-64,9,-85c0,0,9,-21,29,-32c0,0,19,-11,72,-11V0Z" 
id="f0_28"
transform="scale(0.001,-0.001)" />

<path d="M384,85c0,0,44,0,78,19c0,0,35,19,68,62V487c0,0,0,55,-15,87c0,0,-14,33,-51,55c0,0,-38,22,-85,22c0,0,-84,0,-143,-71c0,0,-60,-70,-60,-214c0,0,0,-138,61,-209c0,0,61,-72,147,-72Zm35,-411v27h15c0,0,41,0,63,12c0,0,15,8,24,30c0,0,9,21,9,83V119C530,119,462,39,411,9c0,0,-50,-29,-105,-29c0,0,-99,0,-177,90c0,0,-78,90,-78,241c0,0,0,174,103,283c0,0,103,109,248,109c0,0,43,0,78,-12c0,0,36,-12,65,-35c0,0,43,20,83,47h25V-174c0,0,0,-66,9,-85c0,0,9,-19,28,-30c0,0,19,-10,74,-10v-27Z" 
id="f0_2d"
transform="scale(0.001,-0.001)" />

<path d="M0,-302V1034H328V970H119V-238H328v-64Z" 
id="f2_1r"
transform="scale(0.001,-0.001)" />

<path d="M56,-302v64H265V970H56v64H384V-302Z" 
id="f2_1t"
transform="scale(0.001,-0.001)" />

<path d="M505,-21c0,0,-153,0,-247,85c0,0,-94,86,-94,197c0,0,0,43,8,93c0,0,6,33,29,114L301,813c0,0,21,75,21,110c0,0,0,27,-21,43c0,0,-21,15,-107,20l7,26H626l-8,-26c0,0,-66,-2,-94,-13c0,0,-28,-11,-47,-39c0,0,-20,-27,-42,-103L326,455c0,0,-29,-100,-34,-131c0,0,-9,-44,-9,-82c0,0,0,-83,70,-140c0,0,69,-57,187,-57c0,0,76,0,135,28c0,0,59,28,100,78c0,0,42,50,77,136c0,0,34,86,60,174l86,310c0,0,34,116,34,151c0,0,0,25,-23,42c0,0,-23,18,-92,22l8,26h319l-8,-26c0,0,-57,0,-82,-11c0,0,-25,-11,-43,-40c0,0,-19,-28,-42,-109L958,433c0,0,-54,-191,-97,-270C861,163,818,84,728,31c0,0,-90,-52,-223,-52Z" 
id="f1_1l"
transform="scale(0.001,-0.001)" />

<path d="M52,62L0,114L278,390L0,667l52,52L330,442L608,719l51,-51L382,390L659,114L608,62L330,338L52,62Z" 
id="f2_3a"
transform="scale(0.001,-0.001)" />

<path d="M429,373V877L73,373ZM429,0V267H0v95l470,671h82V373H688V267H552V0Z" 
id="f2_o"
transform="scale(0.001,-0.001)" />

<path d="M394,23c0,0,80,0,129,45c0,0,48,45,48,110c0,0,0,54,-28,97c0,0,-53,79,-214,206c0,0,-62,-52,-92,-114c0,0,-30,-61,-30,-133c0,0,0,-96,53,-154c0,0,52,-57,134,-57Zm17,566c0,0,90,81,114,128c0,0,24,46,24,105c0,0,0,79,-44,123c0,0,-44,45,-121,45c0,0,-76,0,-124,-45c0,0,-48,-44,-48,-103c0,0,0,-38,20,-77c0,0,20,-39,56,-74L411,589ZM382,-17c0,0,-144,0,-225,90c0,0,-64,72,-64,158c0,0,0,67,45,133c0,0,45,66,156,146c0,0,-121,98,-156,158c0,0,-34,59,-34,124c0,0,0,98,76,169c0,0,76,72,202,72c0,0,123,0,198,-67c0,0,74,-66,74,-151c0,0,0,-57,-40,-116c0,0,-40,-59,-168,-139c0,0,132,-101,174,-159c0,0,57,-76,57,-161c0,0,0,-106,-82,-182c0,0,-81,-75,-213,-75Z" 
id="f0_s"
transform="scale(0.001,-0.001)" />

<path d="M0,-123V1415H525v-72H72V-123Z" 
id="f2_4r"
transform="scale(0.001,-0.001)" />

<path d="M478,-123V1343H26v72H550V-123Z" 
id="f2_57"
transform="scale(0.001,-0.001)" />

<path d="M0,-123V1415H72V-51H525v-72Z" 
id="f2_4t"
transform="scale(0.001,-0.001)" />

<path d="M26,-123v72H478V1415h72V-123Z" 
id="f2_59"
transform="scale(0.001,-0.001)" />

<path d="M153,-17c0,0,-35,0,-59,23C94,6,69,30,69,66c0,0,0,56,39,172l77,230c0,0,28,83,28,103c0,0,0,9,-8,15c0,0,-7,7,-16,7c0,0,-18,0,-37,-12c0,0,-18,-11,-84,-82L45,515c0,0,61,87,128,128c0,0,52,32,96,32c0,0,30,0,48,-21c0,0,19,-20,19,-53c0,0,0,-40,-34,-142L221,220c0,0,-34,-97,-34,-123c0,0,0,-14,10,-23c0,0,10,-8,26,-8c0,0,26,0,67,24c0,0,41,25,109,110c0,0,69,85,114,159c0,0,44,75,92,237l18,61H735L601,207c0,0,-30,-101,-30,-127c0,0,0,-13,3,-19c0,0,4,-6,10,-6c0,0,10,0,22,11c0,0,12,11,59,91l22,-17C687,140,636,49,581,9c0,0,-35,-26,-69,-26c0,0,-25,0,-40,17c0,0,-15,15,-15,41c0,0,0,25,9,67c0,0,12,52,70,237C536,345,405,137,316,60c0,0,-88,-77,-163,-77Z" 
id="f1_2h"
transform="scale(0.001,-0.001)" />

<path d="M504,-17c0,0,-27,0,-42,17c0,0,-16,16,-16,44c0,0,0,36,29,123l98,300c0,0,18,56,18,87c0,0,0,15,-10,24c0,0,-11,10,-26,10c0,0,-23,0,-54,-18c0,0,-60,-34,-124,-111c0,0,-65,-77,-137,-197c0,0,-38,-63,-63,-139L141,0H29L163,467c0,0,24,85,24,102c0,0,0,16,-13,28c0,0,-13,13,-32,13c0,0,-9,0,-30,-3L84,602l-7,27l257,46L238,340c0,0,149,205,228,270c0,0,79,65,152,65c0,0,40,0,66,-27c0,0,26,-27,26,-70c0,0,0,-44,-25,-118L584,149c0,0,-17,-54,-17,-66c0,0,0,-10,5,-17c0,0,5,-7,11,-7c0,0,8,0,20,9c0,0,35,31,77,95l23,-14C703,149,637,51,578,10c0,0,-42,-27,-74,-27Z" 
id="f1_2a"
transform="scale(0.001,-0.001)" />

<path d="M145,-17c0,0,-29,0,-48,18C97,1,79,19,79,46c0,0,0,28,20,93L201,475c0,0,24,82,24,103c0,0,0,17,-11,27c0,0,-12,10,-32,10c0,0,-16,0,-68,-8v30l260,42L218,149c0,0,-16,-53,-16,-64c0,0,0,-11,6,-19c0,0,7,-7,15,-7c0,0,11,0,25,12c0,0,39,33,78,95l26,-17C352,149,304,72,238,20c0,0,-49,-37,-93,-37ZM342,825c0,0,-31,0,-53,22c0,0,-22,22,-22,53c0,0,0,31,22,53c0,0,21,22,53,22c0,0,31,0,53,-22c0,0,22,-22,22,-53c0,0,0,-31,-23,-53c0,0,-22,-22,-52,-22Z" 
id="f1_25"
transform="scale(0.001,-0.001)" />

<path d="M133,-17c0,0,-31,0,-50,20C83,3,63,23,63,55c0,0,0,40,25,123L228,609H104l8,30c0,0,82,23,139,67c0,0,57,44,128,154h33L351,657H456L443,609H337L203,171c0,0,-25,-75,-25,-97c0,0,0,-12,5,-19c0,0,5,-6,13,-6c0,0,16,0,44,25c0,0,15,15,71,92l24,-19C335,147,270,48,213,9c0,0,-40,-26,-80,-26Z" 
id="f1_2g"
transform="scale(0.001,-0.001)" />

<path d="M473,53c0,0,173,0,287,121c0,0,114,122,114,330c0,0,0,210,-114,330c0,0,-114,121,-293,121c0,0,-67,0,-153,-21V74c0,0,95,-21,159,-21ZM26,0V27H64c0,0,64,0,91,41c0,0,16,25,16,111V833c0,0,0,95,-21,119c0,0,-29,33,-86,33H26v27H438c0,0,226,0,345,-51c0,0,118,-52,190,-172c0,0,72,-120,72,-278c0,0,0,-211,-129,-353C916,158,773,0,478,0Z" 
id="f0_14"
transform="scale(0.001,-0.001)" />

<path d="M118,598L78,819c0,0,-17,92,-17,124c0,0,0,48,19,70c0,0,20,21,53,21c0,0,34,0,56,-22c0,0,22,-22,22,-57c0,0,0,-28,-19,-136L152,598Z" 
id="f0_b"
transform="scale(0.001,-0.001)" />

<path d="M376,-20L133,556c0,0,-17,41,-31,58c0,0,-15,18,-39,30c0,0,-12,7,-50,13v26H335V657H314c0,0,-29,0,-44,-14c0,0,-16,-14,-15,-38c0,0,-1,-26,15,-62L429,165L588,557c0,0,17,42,17,64c0,0,0,10,-6,17c0,0,-8,11,-21,15c0,0,-13,4,-52,4v26H750V657c0,0,-39,-3,-54,-16c0,0,-26,-23,-47,-76L409,-20Z" 
id="f0_2i"
transform="scale(0.001,-0.001)" />

<path d="M474,-21L174,817c0,0,-34,94,-42,112c0,0,-15,28,-41,42c0,0,-26,14,-70,14v27H395V985H377c0,0,-40,0,-60,-18c0,0,-21,-18,-21,-44c0,0,0,-26,33,-120L528,235L696,718l-30,85l-24,68c0,0,-16,37,-35,66c0,0,-10,14,-24,24c0,0,-19,13,-38,19c0,0,-14,5,-44,5v27H894V985H867c0,0,-41,0,-61,-18c0,0,-19,-18,-19,-49c0,0,0,-38,33,-133L1015,235l193,557c0,0,32,93,32,129c0,0,0,17,-10,32c0,0,-11,15,-28,21c0,0,-28,11,-74,11v27h302V985c0,0,-39,0,-64,-15c0,0,-25,-14,-47,-53c0,0,-15,-26,-47,-124L990,-21H960L729,624L501,-21Z" 
id="f0_1n"
transform="scale(0.001,-0.001)" />

<path d="M107,-21V325h27c0,0,19,-109,52,-163c0,0,33,-54,100,-90c0,0,68,-36,148,-36c0,0,93,0,148,49c0,0,54,50,54,117c0,0,0,37,-21,75c0,0,-20,38,-64,71c0,0,-29,22,-159,95c0,0,-130,72,-185,115c0,0,-55,44,-83,96c0,0,-28,52,-28,114c0,0,0,109,83,188c0,0,84,78,213,78c0,0,81,0,171,-39c0,0,42,-19,59,-19c0,0,20,0,32,11c0,0,12,12,20,47h27V684H674c0,0,-14,101,-48,161c0,0,-35,60,-100,95c0,0,-64,35,-133,35c0,0,-77,0,-128,-47c0,0,-51,-48,-51,-108c0,0,0,-46,32,-84c0,0,47,-56,221,-149c0,0,142,-76,194,-117c0,0,51,-41,80,-96c0,0,28,-55,28,-115c0,0,0,-115,-90,-198c0,0,-89,-82,-229,-82c0,0,-44,0,-83,6c0,0,-23,4,-95,27c0,0,-73,24,-93,24c0,0,-18,0,-29,-11c0,0,-11,-12,-16,-46Z" 
id="f0_1j"
transform="scale(0.001,-0.001)" />

<path d="M38,0V27H74c0,0,63,0,91,37c0,0,18,24,18,115V833c0,0,0,77,-10,102c0,0,-7,18,-30,32c0,0,-33,18,-69,18H38v27H470V985H434c0,0,-62,0,-90,-37c0,0,-18,-24,-18,-115V179c0,0,0,-77,9,-102c0,0,8,-18,31,-32c0,0,32,-18,68,-18h36V0Z" 
id="f0_19"
transform="scale(0.001,-0.001)" />

<path d="M548,-21c0,0,-251,0,-389,185C159,164,56,303,56,490c0,0,0,152,68,278c0,0,67,127,186,197c0,0,119,69,260,69c0,0,109,0,216,-53c0,0,31,-17,44,-17c0,0,20,0,35,14c0,0,20,21,28,56h26L943,690H919c0,0,-46,155,-131,224c0,0,-86,68,-206,68c0,0,-100,0,-181,-51c0,0,-81,-52,-128,-163c0,0,-46,-112,-46,-279c0,0,0,-137,44,-238c0,0,44,-101,132,-154c0,0,88,-54,201,-54c0,0,99,0,174,42c0,0,75,42,165,167l23,-14C966,238,890,103,789,40c0,0,-102,-61,-241,-61Z" 
id="f0_13"
transform="scale(0.001,-0.001)" />

<path d="M453,539c0,0,129,0,204,71c0,0,75,72,75,178c0,0,0,83,-48,127c0,0,-48,44,-144,44c0,0,-24,0,-58,-6L367,545c0,0,48,-6,86,-6ZM-34,0l8,26c0,0,54,3,74,12c0,0,30,12,45,34c0,0,24,36,50,125L316,809c0,0,18,61,18,95c0,0,0,35,-28,58c0,0,-27,24,-78,24q-1,0,-2,0l9,26H566c0,0,167,0,240,-63c0,0,73,-62,73,-164c0,0,0,-98,-74,-179c0,0,-75,-81,-204,-102L698,207c0,0,36,-110,72,-143c0,0,36,-33,116,-38L877,0H635L473,492c0,0,-1,0,-2,0c-12,0,-63,0,-117,11L265,184c0,0,-18,-56,-18,-94c0,0,0,-29,22,-46c0,0,16,-12,90,-18L352,0Z" 
id="f1_1i"
transform="scale(0.001,-0.001)" />

<path d="M600,387l39,398L345,387ZM-74,0l8,26c0,0,55,3,97,37c0,0,42,35,125,149l605,822h26L710,193c0,0,-6,-59,-6,-78c0,0,0,-30,11,-46c0,0,14,-22,39,-32c0,0,24,-11,81,-11L827,0H429l8,26h17c0,0,49,0,79,21c0,0,22,15,34,48c0,0,8,23,15,109l13,128H305L202,193c0,0,-35,-47,-44,-68c0,0,-9,-20,-9,-38c0,0,0,-25,20,-42c0,0,19,-17,64,-19L225,0Z" 
id="f1_11"
transform="scale(0.001,-0.001)" />

<path d="M346,28c0,0,93,0,158,73c0,0,65,74,65,200c0,0,0,94,-40,175c0,0,-40,81,-102,120c0,0,-62,39,-130,39c0,0,-86,0,-123,-67c0,0,-23,-39,-23,-175V267c0,0,0,-102,18,-142c0,0,18,-41,67,-69c0,0,48,-28,110,-28ZM0,-328c0,0,16,47,20,77c0,0,7,51,7,128V354c0,0,0,154,97,252c0,0,97,98,245,98c0,0,168,0,256,-121c0,0,68,-94,68,-212c0,0,0,-133,-82,-246C611,125,501,-21,333,-21c0,0,-60,0,-109,17c0,0,-33,12,-73,46V-45c0,0,0,-184,-24,-283Z" 
id="f3_2e"
transform="scale(0.001,-0.001)" />

<path d="M83,308c0,0,-35,0,-59,24c0,0,-24,24,-24,59c0,0,0,34,24,58c0,0,24,24,59,24c0,0,33,0,58,-24c0,0,24,-24,24,-58c0,0,0,-35,-24,-59c0,0,-25,-24,-58,-24Z" 
id="f2_49"
transform="scale(0.001,-0.001)" />

<path d="M391,28c0,0,88,0,144,63c0,0,57,63,57,182c0,0,0,171,-150,298c0,0,-31,1,-47,1c0,0,-134,0,-198,-60c0,0,-65,-59,-65,-168c0,0,0,-143,77,-229c0,0,77,-87,182,-87Zm-4,-49c0,0,-163,0,-275,110C112,89,0,200,0,357c0,0,0,95,47,171c0,0,47,77,119,116c0,0,72,39,221,39H832V571H498c0,0,113,-63,171,-139c0,0,58,-76,58,-176c0,0,0,-114,-93,-196c0,0,-92,-81,-247,-81Z" 
id="f3_2f"
transform="scale(0.001,-0.001)" />

<path d="M2,-20L369,1061h59L62,-20Z" 
id="f0_j"
transform="scale(0.001,-0.001)" />

<path d="M839,-17c0,0,-25,0,-42,17c0,0,-17,18,-17,44c0,0,0,36,35,144l78,239c0,0,26,83,28,92c0,0,3,14,3,27c0,0,0,19,-9,29c0,0,-10,11,-22,11c0,0,-34,0,-71,-32c0,0,-111,-95,-208,-266C614,288,551,176,495,0H382L517,451c0,0,22,73,22,97c0,0,0,20,-8,30c0,0,-9,10,-21,10c0,0,-25,0,-53,-18c0,0,-46,-29,-118,-125c0,0,-72,-95,-112,-182c0,0,-19,-41,-91,-263H26L165,483l17,63c0,0,6,14,6,21c0,0,0,17,-15,30c0,0,-15,13,-38,13c0,0,-10,0,-54,-9l-7,27l256,47L234,338c0,0,67,119,113,178c0,0,73,93,141,135c0,0,41,24,85,24c0,0,38,0,63,-25c0,0,25,-24,25,-62c0,0,0,-36,-18,-95L587,305c0,0,129,227,244,319c0,0,64,51,126,51c0,0,36,0,60,-26c0,0,23,-25,23,-78c0,0,0,-43,-15,-91L933,192c0,0,-31,-94,-31,-104c0,0,0,-10,6,-17c0,0,4,-5,11,-5c0,0,7,0,23,13c0,0,38,33,71,87l24,-16c0,0,-17,-30,-62,-81C975,69,929,18,898,0c0,0,-32,-17,-59,-17Z" 
id="f1_29"
transform="scale(0.001,-0.001)" />

<path d="M505,-17c0,0,-26,0,-43,17c0,0,-17,17,-17,45c0,0,0,33,30,122l97,298c0,0,18,56,18,88c0,0,0,15,-10,24c0,0,-10,9,-26,9c0,0,-24,0,-54,-17c0,0,-55,-31,-127,-116c0,0,-20,-23,-130,-186c0,0,-34,-52,-54,-114L142,0H30L274,854l27,92c0,0,0,19,-16,34c0,0,-17,15,-40,15c0,0,-13,0,-41,-4l-16,-2v29l257,43L239,338c0,0,144,203,225,270c0,0,81,67,155,67c0,0,38,0,63,-27c0,0,26,-27,26,-71c0,0,0,-49,-24,-118L583,149c0,0,-19,-57,-19,-62c0,0,0,-11,6,-17c0,0,5,-6,13,-6c0,0,8,0,20,9c0,0,38,32,75,90l23,-14c0,0,-24,-39,-67,-85C634,64,591,18,560,0c0,0,-31,-17,-55,-17Z" 
id="f1_24"
transform="scale(0.001,-0.001)" />

<path d="M293,20c0,0,105,0,197,156c0,0,92,156,92,317c0,0,0,69,-34,106c0,0,-33,37,-87,37c0,0,-110,0,-202,-157c0,0,-92,-157,-92,-312c0,0,0,-71,36,-109c0,0,36,-38,90,-38ZM276,-17c0,0,-102,0,-167,65c0,0,-64,65,-64,168c0,0,0,110,63,220c0,0,63,111,168,175c0,0,106,64,204,64c0,0,99,0,162,-65c0,0,64,-65,64,-169c0,0,0,-111,-59,-221C647,220,588,111,482,46c0,0,-106,-63,-206,-63Z" 
id="f1_2b"
transform="scale(0.001,-0.001)" />

<path d="M435,92c0,0,86,0,147,69c0,0,60,68,60,186c0,0,0,114,-60,179c0,0,-60,66,-152,66c0,0,-91,0,-154,-66c0,0,-64,-65,-64,-171c0,0,0,-70,30,-133c0,0,29,-64,82,-97c0,0,52,-33,111,-33Zm3,-110c0,0,-168,0,-274,123C164,105,58,228,58,512c0,0,0,317,117,461c0,0,102,125,275,125c0,0,129,0,212,-72c0,0,82,-72,99,-200L627,815c0,0,-18,79,-51,115c0,0,-54,58,-134,58c0,0,-64,0,-113,-36c0,0,-63,-46,-99,-135c0,0,-37,-89,-38,-253c0,0,48,74,118,110c0,0,70,36,147,36c0,0,135,0,229,-99c0,0,94,-99,94,-256c0,0,0,-103,-44,-191C736,164,691,75,614,28c0,0,-78,-46,-176,-46Z" 
id="f5_q"
transform="scale(0.001,-0.001)" />


</defs>
</svg>