<?xml version="1.0" encoding="UTF-8" standalone="no"?>
<!DOCTYPE svg PUBLIC "-//W3C//DTD SVG 1.1//EN"
"http://www.w3.org/Graphics/SVG/1.1/DTD/svg11.dtd">
<svg viewBox="0 0 909 1286" version="1.1" xmlns="http://www.w3.org/2000/svg" xmlns:xlink="http://www.w3.org/1999/xlink">
<defs>
<style type="text/css"><![CDATA[
.g0_5{
fill: none;
stroke: #FFFFFF;
stroke-width: 0.77152777;
stroke-linecap: round;
stroke-linejoin: round;
}
.g1_5{
fill: none;
stroke: #FFFFFF;
stroke-width: 0.36666667;
stroke-linecap: butt;
stroke-linejoin: miter;
stroke-miterlimit: 2;
}
.g2_5{
fill: #1F1A17;
}
.g3_5{
fill: none;
stroke: #000000;
stroke-width: 0.90444446;
stroke-linecap: round;
stroke-linejoin: round;
}
.g4_5{
fill: none;
stroke: #000000;
stroke-width: 0.36666667;
stroke-linecap: butt;
stroke-linejoin: miter;
stroke-miterlimit: 2;
}
.g5_5{
}
.g6_5{
fill: none;
stroke: #000000;
stroke-width: 0.9059723;
stroke-linecap: round;
stroke-linejoin: round;
}
.g7_5{
fill: none;
stroke: #000000;
stroke-width: 0.9029167;
stroke-linecap: round;
stroke-linejoin: round;
}
.g8_5{
fill: none;
stroke: #000000;
stroke-width: 0.9090278;
stroke-linecap: round;
stroke-linejoin: round;
}
]]></style>
</defs>
<path d="M512.4,486.7l6.2,9.7l5.4,8.5l4.1,8.7l2,8.5l1.1,7.7l1.2,6.7l-1.2,6.7l-2.1,6.7l-2,4.9l-3.1,5.6l-3.1,4.9l-3.4,3.9l-7.1,6.6l-6.5,4.7l-11.5,6.9l-10.3,6.7l-11.6,5.6L459,606.4l-6.4,3.9l-6.2,4.9l-5.4,4.6l-5.1,5.9l-4.1,6.7l-3.4,7.4l-1,9.8l-1,10.5l-6.2,-10.5l-5.4,-10.5l-3.1,-10.6l-1,-10.5v-4.9l1,-4.9l1.1,-4.6l2,-3.9l2.1,-4.8l3.3,-3.9l3.1,-3.6l4.1,-3.8l17,-11.6l16.7,-9.5l14.6,-8.8L489.3,546l6.4,-4.6l5.2,-6.7L505,528l3.3,-7.7l2.1,-8.7l2,-7.7V486.7M542.7,525l7.5,9.7l5.1,9.5l4.4,9.5l2,7.7l1.1,8.5l1,7l-1,7.4l-2.1,5.9l-2.1,5.7l-3.3,5.6l-3.1,4.9l-3,4.9l-7.5,6.7l-7.2,4.6L524,629.3l-8.5,5.9L505,641.9l-14.7,8.5l-8.2,5.9l-7.4,5.6l-6.2,6.7l-6.4,7.7L458,683l-4.4,7.7l-3.1,7.7l-2,6.7l-3.1,-12.6l-2.1,-11.3L441,669.7V659.1l1,-8.7l2.4,-8.5l3,-4.9l2.1,-3.9l4.1,-3.8l4.4,-3.6l16.7,-12.6l16.7,-9.5L506,594.9l14.9,-8.5l6.2,-4.9l5.3,-6.7l4.2,-6.7l4.1,-7.7l2,-7.7l2.3,-8.5v-9.5L542.7,525" class="g0_5" />
<path d="M454.6,618.8l4.4,3.8l3.1,3.9l2,3.8l2.1,4.9l2.3,5.7l1,5.6l1,5.9v7.7l5.2,-8.7l4.1,-7.7l3.4,-7.7l2,-7.5l1,-7.7v-6.7l-1,-7.7l-2,-6.7l-28.6,19.1" class="g1_5" />
<g fill="#000000" >
<use xlink:href="#f0_c" transform="matrix(12,0,0,12,117,103.2)" />
<use xlink:href="#f0_1y" transform="matrix(12,0,0,12,122.9,103.2)" />
<use xlink:href="#f0_d" transform="matrix(12,0,0,12,131.3,103.2)" />
<use xlink:href="#f0_2c" transform="matrix(12,0,0,12,155.8,103.2)" />
<use xlink:href="#f0_2b" transform="matrix(12,0,0,12,164.6,103.2)" />
<use xlink:href="#f0_2g" transform="matrix(12,0,0,12,173.8,103.2)" />
<use xlink:href="#f0_21" transform="matrix(12,0,0,12,178.9,103.2)" />
<use xlink:href="#f0_2a" transform="matrix(12,0,0,12,186.7,103.2)" />
<use xlink:href="#f0_2g" transform="matrix(12,0,0,12,195.1,103.2)" />
<use xlink:href="#f0_25" transform="matrix(12,0,0,12,200.2,103.2)" />
<use xlink:href="#f0_1x" transform="matrix(12,0,0,12,204.3,103.2)" />
<use xlink:href="#f0_28" transform="matrix(12,0,0,12,212.4,103.2)" />
<use xlink:href="#f0_21" transform="matrix(12,0,0,12,219.7,103.2)" />
<use xlink:href="#f0_2a" transform="matrix(12,0,0,12,227.5,103.2)" />
<use xlink:href="#f0_21" transform="matrix(12,0,0,12,235.9,103.2)" />
<use xlink:href="#f0_2e" transform="matrix(12,0,0,12,243.6,103.2)" />
<use xlink:href="#f0_23" transform="matrix(12,0,0,12,249.5,103.2)" />
<use xlink:href="#f0_2l" transform="matrix(12,0,0,12,258.3,103.2)" />
<use xlink:href="#f0_2b" transform="matrix(12,0,0,12,269.4,103.2)" />
<use xlink:href="#f0_22" transform="matrix(12,0,0,12,278.5,103.2)" />
<use xlink:href="#f0_2g" transform="matrix(12,0,0,12,287,103.2)" />
<use xlink:href="#f0_24" transform="matrix(12,0,0,12,292.1,103.2)" />
<use xlink:href="#f0_25" transform="matrix(12,0,0,12,300.6,103.2)" />
<use xlink:href="#f0_2f" transform="matrix(12,0,0,12,304.6,103.2)" />
<use xlink:href="#f0_2f" transform="matrix(12,0,0,12,314.9,103.2)" />
<use xlink:href="#f0_2l" transform="matrix(12,0,0,12,321.6,103.2)" />
<use xlink:href="#f0_2f" transform="matrix(12,0,0,12,329.6,103.2)" />
<use xlink:href="#f0_2g" transform="matrix(12,0,0,12,336.3,103.2)" />
<use xlink:href="#f0_21" transform="matrix(12,0,0,12,341.4,103.2)" />
<use xlink:href="#f0_29" transform="matrix(12,0,0,12,349.1,103.2)" />
<use xlink:href="#f0_i" transform="matrix(12,0,0,12,362.3,103.2)" />
<use xlink:href="#f0_11" transform="matrix(12,0,0,12,64.9,202.9)" />
<use xlink:href="#f0_2a" transform="matrix(12,0,0,12,77.4,202.9)" />
<use xlink:href="#f0_2f" transform="matrix(12,0,0,12,85.8,202.9)" />
<use xlink:href="#f0_i" transform="matrix(12,0,0,12,92.4,202.9)" />
</g>
<path d="M269.8,228.2l-.7,.7H174.2v-1.4h94.9l.7,.7Zm0,0v.7h-.7l.7,-.7Zm-.7,-92l.7,.7v91.3h-1.4V136.9l.7,-.7Zm0,0h.7v.7l-.7,-.7Zm-95.6,.7l.7,-.7h94.9v1.4H174.2l-.7,-.7Zm0,0v-.7h.7l-.7,.7Zm.7,92l-.7,-.7V136.9h1.8v91.3l-1.1,.7Zm0,0h-.7v-.7l.7,.7Z" class="g2_5" />
<g fill="#1F1A17" >
<use xlink:href="#f0_1h" transform="matrix(12,0,0,12,157.3,140.6)" />
<use xlink:href="#f0_2d" transform="matrix(12,0,0,12,271.7,136.9)" />
<use xlink:href="#f0_2d" transform="matrix(12,0,0,12,162.1,235.5)" />
<use xlink:href="#f0_1h" transform="matrix(12,0,0,12,271,234.4)" />
</g>
<path d="M190.2,289.9h47.1" class="g3_5" />
<path d="M255.2,305.4l1.9,-.9m0,0l4.4,7.1m0,0l4.9,-18.9m0,0H277" class="g4_5" />
<path fill-rule="evenodd" d="M255.1,305.2l2.5,-1.4l4,5.9l4.5,-17.5H277v.9H266.7L262,311.6h-.9l-4.5,-6.5l-1.2,.6l-.3,-.5Z" class="g5_5" />
<path d="M253.6,289.9h36.9" class="g3_5" />
<path d="M308.4,305.4l1.9,-.9m0,0l4.4,7.1m0,0l4.9,-18.9m0,0h10.6" class="g4_5" />
<path fill-rule="evenodd" d="M308.3,305.2l2.5,-1.4l4,5.9l4.5,-17.5h10.9v.9H320l-4.8,18.5h-.9l-4.4,-6.5l-1.3,.6l-.3,-.5Z" class="g5_5" />
<path d="M306.9,289.9h36.8" class="g3_5" />
<g fill="#000000" >
<use xlink:href="#f0_m" transform="matrix(6.9,0,0,6.9,280.1,274.8)" />
<use xlink:href="#f0_m" transform="matrix(6.9,0,0,6.9,335.5,274.8)" />
<use xlink:href="#f0_o" transform="matrix(11.9,0,0,11.9,191.4,283.2)" />
<use xlink:href="#f0_m" transform="matrix(11.9,0,0,11.9,267.3,310.3)" />
<use xlink:href="#f0_m" transform="matrix(11.9,0,0,11.9,320.5,310.3)" />
<use xlink:href="#f1_1b" transform="matrix(11.9,0,0,11.9,201.3,283.2)" />
<use xlink:href="#f1_1h" transform="matrix(11.9,0,0,11.9,213.8,283.2)" />
<use xlink:href="#f1_2d" transform="matrix(11.9,0,0,11.9,226.9,283.2)" />
<use xlink:href="#f1_1b" transform="matrix(11.9,0,0,11.9,257.7,283.2)" />
<use xlink:href="#f1_2d" transform="matrix(11.9,0,0,11.9,270.2,283.2)" />
<use xlink:href="#f1_1b" transform="matrix(11.9,0,0,11.9,309.1,283.2)" />
<use xlink:href="#f1_1h" transform="matrix(11.9,0,0,11.9,321.2,283.2)" />
<use xlink:href="#f1_1n" transform="matrix(11.9,0,0,11.9,156.9,294.6)" />
<use xlink:href="#f1_1x" transform="matrix(11.9,0,0,11.9,209,308.9)" />
<use xlink:href="#f1_1x" transform="matrix(11.9,0,0,11.9,280.1,310.3)" />
<use xlink:href="#f1_1x" transform="matrix(11.9,0,0,11.9,333.3,310.3)" />
<use xlink:href="#f2_x" transform="matrix(11.9,0,0,11.9,177.1,294.6)" />
<use xlink:href="#f2_f" transform="matrix(11.9,0,0,11.9,240.5,294.6)" />
<use xlink:href="#f2_f" transform="matrix(11.9,0,0,11.9,293.7,294.6)" />
</g>
<path d="M192.2,358.1h36.7" class="g6_5" />
<g fill="#000000" >
<use xlink:href="#f0_k" transform="matrix(6.9,0,0,6.9,221.1,381.5)" />
<use xlink:href="#f0_l" transform="matrix(11.9,0,0,11.9,206.1,351)" />
<use xlink:href="#f0_o" transform="matrix(11.9,0,0,11.9,193.2,377.1)" />
<use xlink:href="#f1_1b" transform="matrix(11.9,0,0,11.9,159.1,362.8)" />
<use xlink:href="#f3_2c" transform="matrix(11.9,0,-3.2,11.9,201.7,377.1)" />
<use xlink:href="#f3_21" transform="matrix(11.9,0,-3.2,11.9,211.6,377.1)" />
<use xlink:href="#f2_x" transform="matrix(11.9,0,0,11.9,177.5,362.8)" />
<use xlink:href="#f4_1f" transform="matrix(12,0,0,12,440.7,459.9)" />
<use xlink:href="#f4_1i" transform="matrix(12,0,0,12,455,459.9)" />
<use xlink:href="#f0_c" transform="matrix(12,0,0,12,117,488.9)" />
<use xlink:href="#f0_1x" transform="matrix(12,0,0,12,122.5,488.9)" />
<use xlink:href="#f0_d" transform="matrix(12,0,0,12,130.2,488.9)" />
<use xlink:href="#f0_1k" transform="matrix(12,0,0,12,155.8,488.9)" />
<use xlink:href="#f0_24" transform="matrix(12,0,0,12,166.8,488.9)" />
<use xlink:href="#f0_2e" transform="matrix(12,0,0,12,175.7,488.9)" />
<use xlink:href="#f0_21" transform="matrix(12,0,0,12,181.5,488.9)" />
<use xlink:href="#f0_21" transform="matrix(12,0,0,12,189.6,488.9)" />
<use xlink:href="#f0_2c" transform="matrix(12,0,0,12,200.7,488.9)" />
<use xlink:href="#f0_2b" transform="matrix(12,0,0,12,209.8,488.9)" />
<use xlink:href="#f0_25" transform="matrix(12,0,0,12,219,488.9)" />
<use xlink:href="#f0_2a" transform="matrix(12,0,0,12,223,488.9)" />
<use xlink:href="#f0_2g" transform="matrix(12,0,0,12,231.9,488.9)" />
<use xlink:href="#f0_1z" transform="matrix(12,0,0,12,240.3,488.9)" />
<use xlink:href="#f0_24" transform="matrix(12,0,0,12,248,488.9)" />
<use xlink:href="#f0_1x" transform="matrix(12,0,0,12,256.5,488.9)" />
<use xlink:href="#f0_2e" transform="matrix(12,0,0,12,264.6,488.9)" />
<use xlink:href="#f0_23" transform="matrix(12,0,0,12,270.1,488.9)" />
<use xlink:href="#f0_21" transform="matrix(12,0,0,12,278.9,488.9)" />
<use xlink:href="#f0_2f" transform="matrix(12,0,0,12,287,488.9)" />
<use xlink:href="#f0_2d" transform="matrix(12,0,0,12,297.3,488.9)" />
<use xlink:href="#f0_g" transform="matrix(12,0,0,12,306.1,488.9)" />
<use xlink:href="#f0_4y" transform="matrix(12,0,0,12,314.2,488.9)" />
<use xlink:href="#f0_o" transform="matrix(12,0,0,12,326.7,488.9)" />
<use xlink:href="#f0_2d" transform="matrix(12,0,0,12,335.5,488.9)" />
<use xlink:href="#f0_1x" transform="matrix(12,0,0,12,347.7,488.9)" />
<use xlink:href="#f0_2a" transform="matrix(12,0,0,12,355.4,488.9)" />
<use xlink:href="#f0_20" transform="matrix(12,0,0,12,363.8,488.9)" />
<use xlink:href="#f0_m" transform="matrix(12,0,0,12,376.3,488.9)" />
<use xlink:href="#f0_2d" transform="matrix(12,0,0,12,385.5,488.9)" />
<use xlink:href="#f0_1x" transform="matrix(12,0,0,12,397.6,488.9)" />
<use xlink:href="#f0_2e" transform="matrix(12,0,0,12,405.7,488.9)" />
<use xlink:href="#f0_21" transform="matrix(12,0,0,12,411.6,488.9)" />
<use xlink:href="#f0_2c" transform="matrix(12,0,0,12,423,488.9)" />
<use xlink:href="#f0_28" transform="matrix(12,0,0,12,431.8,488.9)" />
<use xlink:href="#f0_1x" transform="matrix(12,0,0,12,436.2,488.9)" />
<use xlink:href="#f0_1z" transform="matrix(12,0,0,12,443.9,488.9)" />
<use xlink:href="#f0_21" transform="matrix(12,0,0,12,451.6,488.9)" />
<use xlink:href="#f0_20" transform="matrix(12,0,0,12,459.7,488.9)" />
<use xlink:href="#f0_1x" transform="matrix(12,0,0,12,471.9,488.9)" />
<use xlink:href="#f0_2g" transform="matrix(12,0,0,12,479.6,488.9)" />
<use xlink:href="#f0_2g" transform="matrix(12,0,0,12,488.4,488.9)" />
<use xlink:href="#f0_24" transform="matrix(12,0,0,12,493.5,488.9)" />
<use xlink:href="#f0_21" transform="matrix(12,0,0,12,502,488.9)" />
<use xlink:href="#f0_2i" transform="matrix(12,0,0,12,513.4,488.9)" />
<use xlink:href="#f0_21" transform="matrix(12,0,0,12,522.2,488.9)" />
<use xlink:href="#f0_2e" transform="matrix(12,0,0,12,529.9,488.9)" />
<use xlink:href="#f0_2g" transform="matrix(12,0,0,12,535.8,488.9)" />
<use xlink:href="#f0_25" transform="matrix(12,0,0,12,541.3,488.9)" />
<use xlink:href="#f0_1z" transform="matrix(12,0,0,12,545.3,488.9)" />
<use xlink:href="#f0_21" transform="matrix(12,0,0,12,553.4,488.9)" />
<use xlink:href="#f0_2f" transform="matrix(12,0,0,12,561.1,488.9)" />
<use xlink:href="#f0_2b" transform="matrix(12,0,0,12,571.4,488.9)" />
<use xlink:href="#f0_22" transform="matrix(12,0,0,12,580.6,488.9)" />
<use xlink:href="#f0_1x" transform="matrix(12,0,0,12,589.1,488.9)" />
<use xlink:href="#f0_2a" transform="matrix(12,0,0,12,596.8,488.9)" />
<use xlink:href="#f0_21" transform="matrix(12,0,0,12,608.9,488.9)" />
<use xlink:href="#f0_2d" transform="matrix(12,0,0,12,616.6,488.9)" />
<use xlink:href="#f0_2h" transform="matrix(12,0,0,12,625.8,488.9)" />
<use xlink:href="#f0_25" transform="matrix(12,0,0,12,634.6,488.9)" />
<use xlink:href="#f0_28" transform="matrix(12,0,0,12,639,488.9)" />
<use xlink:href="#f0_1x" transform="matrix(12,0,0,12,643.1,488.9)" />
<use xlink:href="#f0_2g" transform="matrix(12,0,0,12,650.8,488.9)" />
<use xlink:href="#f0_21" transform="matrix(12,0,0,12,656.3,488.9)" />
<use xlink:href="#f0_2e" transform="matrix(12,0,0,12,664,488.9)" />
<use xlink:href="#f0_1x" transform="matrix(12,0,0,12,669.9,488.9)" />
<use xlink:href="#f0_28" transform="matrix(12,0,0,12,678,488.9)" />
<use xlink:href="#f0_2g" transform="matrix(12,0,0,12,685.7,488.9)" />
<use xlink:href="#f0_2e" transform="matrix(12,0,0,12,690.9,488.9)" />
<use xlink:href="#f0_25" transform="matrix(12,0,0,12,696.7,488.9)" />
<use xlink:href="#f0_1x" transform="matrix(12,0,0,12,701.2,488.9)" />
<use xlink:href="#f0_2a" transform="matrix(12,0,0,12,708.9,488.9)" />
<use xlink:href="#f0_23" transform="matrix(12,0,0,12,717.3,488.9)" />
<use xlink:href="#f0_28" transform="matrix(12,0,0,12,726.5,488.9)" />
<use xlink:href="#f0_21" transform="matrix(12,0,0,12,730.5,488.9)" />
<use xlink:href="#f0_11" transform="matrix(12,0,0,12,740.8,488.9)" />
<use xlink:href="#f0_12" transform="matrix(12,0,0,12,753.3,488.9)" />
<use xlink:href="#f0_13" transform="matrix(12,0,0,12,765.4,488.9)" />
<use xlink:href="#f0_2b" transform="matrix(12,0,0,12,780.5,488.9)" />
<use xlink:href="#f0_22" transform="matrix(12,0,0,12,789.7,488.9)" />
<use xlink:href="#f0_2f" transform="matrix(12,0,0,12,798.5,488.9)" />
<use xlink:href="#f0_25" transform="matrix(12,0,0,12,805.1,488.9)" />
<use xlink:href="#f0_20" transform="matrix(12,0,0,12,809.2,488.9)" />
<use xlink:href="#f0_21" transform="matrix(12,0,0,12,818.3,488.9)" />
<use xlink:href="#f0_52" transform="matrix(12,0,0,12,828.3,488.9)" />
<use xlink:href="#f1_28" transform="matrix(12,0,0,12,833.8,488.9)" />
<use xlink:href="#f0_53" transform="matrix(12,0,0,12,838.6,488.9)" />
<use xlink:href="#f0_1x" transform="matrix(12,0,0,12,155.8,513.1)" />
<use xlink:href="#f0_2f" transform="matrix(12,0,0,12,163.6,513.1)" />
<use xlink:href="#f0_2f" transform="matrix(12,0,0,12,173.5,513.1)" />
<use xlink:href="#f0_24" transform="matrix(12,0,0,12,180.1,513.1)" />
<use xlink:href="#f0_2b" transform="matrix(12,0,0,12,188.6,513.1)" />
<use xlink:href="#f0_2j" transform="matrix(12,0,0,12,197.7,513.1)" />
<use xlink:href="#f0_2a" transform="matrix(12,0,0,12,210.2,513.1)" />
<use xlink:href="#f0_25" transform="matrix(12,0,0,12,222,513.1)" />
<use xlink:href="#f0_2a" transform="matrix(12,0,0,12,226,513.1)" />
<use xlink:href="#f0_2g" transform="matrix(12,0,0,12,237.4,513.1)" />
<use xlink:href="#f0_24" transform="matrix(12,0,0,12,242.6,513.1)" />
<use xlink:href="#f0_21" transform="matrix(12,0,0,12,251,513.1)" />
<use xlink:href="#f0_22" transform="matrix(12,0,0,12,262,513.1)" />
<use xlink:href="#f0_25" transform="matrix(12,0,0,12,267.2,513.1)" />
<use xlink:href="#f0_23" transform="matrix(12,0,0,12,271.2,513.1)" />
<use xlink:href="#f0_2h" transform="matrix(12,0,0,12,280.1,513.1)" />
<use xlink:href="#f0_2e" transform="matrix(12,0,0,12,288.5,513.1)" />
<use xlink:href="#f0_21" transform="matrix(12,0,0,12,294.4,513.1)" />
<use xlink:href="#f0_i" transform="matrix(12,0,0,12,302.1,513.1)" />
<use xlink:href="#f0_1f" transform="matrix(12,0,0,12,309.8,513.1)" />
<use xlink:href="#f0_1y" transform="matrix(12,0,0,12,322.7,513.1)" />
<use xlink:href="#f0_2g" transform="matrix(12,0,0,12,331.1,513.1)" />
<use xlink:href="#f0_1x" transform="matrix(12,0,0,12,336.3,513.1)" />
<use xlink:href="#f0_25" transform="matrix(12,0,0,12,344,513.1)" />
<use xlink:href="#f0_2a" transform="matrix(12,0,0,12,348,513.1)" />
<use xlink:href="#f0_2g" transform="matrix(12,0,0,12,359.8,513.1)" />
<use xlink:href="#f0_24" transform="matrix(12,0,0,12,364.9,513.1)" />
<use xlink:href="#f0_21" transform="matrix(12,0,0,12,373,513.1)" />
<use xlink:href="#f0_21" transform="matrix(12,0,0,12,383.7,513.1)" />
<use xlink:href="#f0_2k" transform="matrix(12,0,0,12,391.4,513.1)" />
<use xlink:href="#f0_2c" transform="matrix(12,0,0,12,399.9,513.1)" />
<use xlink:href="#f0_2e" transform="matrix(12,0,0,12,408.7,513.1)" />
<use xlink:href="#f0_21" transform="matrix(12,0,0,12,414.6,513.1)" />
<use xlink:href="#f0_2f" transform="matrix(12,0,0,12,422.3,513.1)" />
<use xlink:href="#f0_2f" transform="matrix(12,0,0,12,428.9,513.1)" />
<use xlink:href="#f0_25" transform="matrix(12,0,0,12,435.5,513.1)" />
<use xlink:href="#f0_2b" transform="matrix(12,0,0,12,439.6,513.1)" />
<use xlink:href="#f0_2a" transform="matrix(12,0,0,12,448.7,513.1)" />
<use xlink:href="#f0_22" transform="matrix(12,0,0,12,460.1,513.1)" />
<use xlink:href="#f0_2b" transform="matrix(12,0,0,12,465.3,513.1)" />
<use xlink:href="#f0_2e" transform="matrix(12,0,0,12,474.4,513.1)" />
<use xlink:href="#f0_2g" transform="matrix(12,0,0,12,487,513.1)" />
<use xlink:href="#f0_24" transform="matrix(12,0,0,12,492.1,513.1)" />
<use xlink:href="#f0_21" transform="matrix(12,0,0,12,500.5,513.1)" />
<use xlink:href="#f0_29" transform="matrix(12,0,0,12,511.6,513.1)" />
<use xlink:href="#f0_1x" transform="matrix(12,0,0,12,524.8,513.1)" />
<use xlink:href="#f0_23" transform="matrix(12,0,0,12,532.5,513.1)" />
<use xlink:href="#f0_2a" transform="matrix(12,0,0,12,541.3,513.1)" />
<use xlink:href="#f0_25" transform="matrix(12,0,0,12,549.8,513.1)" />
<use xlink:href="#f0_2g" transform="matrix(12,0,0,12,553.5,513.1)" />
<use xlink:href="#f0_2h" transform="matrix(12,0,0,12,558.6,513.1)" />
<use xlink:href="#f0_20" transform="matrix(12,0,0,12,567.4,513.1)" />
<use xlink:href="#f0_21" transform="matrix(12,0,0,12,576.2,513.1)" />
<use xlink:href="#f0_2b" transform="matrix(12,0,0,12,586.9,513.1)" />
<use xlink:href="#f0_22" transform="matrix(12,0,0,12,596.1,513.1)" />
<use xlink:href="#f0_2g" transform="matrix(12,0,0,12,604.5,513.1)" />
<use xlink:href="#f0_24" transform="matrix(12,0,0,12,609.7,513.1)" />
<use xlink:href="#f0_21" transform="matrix(12,0,0,12,618.1,513.1)" />
<use xlink:href="#f0_2e" transform="matrix(12,0,0,12,629.1,513.1)" />
<use xlink:href="#f0_21" transform="matrix(12,0,0,12,634.7,513.1)" />
<use xlink:href="#f0_2f" transform="matrix(12,0,0,12,642.4,513.1)" />
<use xlink:href="#f0_2h" transform="matrix(12,0,0,12,649,513.1)" />
<use xlink:href="#f0_28" transform="matrix(12,0,0,12,657.8,513.1)" />
<use xlink:href="#f0_2g" transform="matrix(12,0,0,12,661.9,513.1)" />
<use xlink:href="#f0_1x" transform="matrix(12,0,0,12,667,513.1)" />
<use xlink:href="#f0_2a" transform="matrix(12,0,0,12,674.7,513.1)" />
<use xlink:href="#f0_2g" transform="matrix(12,0,0,12,683.2,513.1)" />
<use xlink:href="#f0_21" transform="matrix(12,0,0,12,691.6,513.1)" />
<use xlink:href="#f0_28" transform="matrix(12,0,0,12,699.3,513.1)" />
<use xlink:href="#f0_21" transform="matrix(12,0,0,12,703.4,513.1)" />
<use xlink:href="#f0_1z" transform="matrix(12,0,0,12,711.1,513.1)" />
<use xlink:href="#f0_2g" transform="matrix(12,0,0,12,718.4,513.1)" />
<use xlink:href="#f0_2e" transform="matrix(12,0,0,12,723.6,513.1)" />
<use xlink:href="#f0_25" transform="matrix(12,0,0,12,729.5,513.1)" />
<use xlink:href="#f0_1z" transform="matrix(12,0,0,12,733.5,513.1)" />
<use xlink:href="#f0_22" transform="matrix(12,0,0,12,744.2,513.1)" />
<use xlink:href="#f0_2b" transform="matrix(12,0,0,12,749.3,513.1)" />
<use xlink:href="#f0_2e" transform="matrix(12,0,0,12,758.5,513.1)" />
<use xlink:href="#f0_1z" transform="matrix(12,0,0,12,764.4,513.1)" />
<use xlink:href="#f0_21" transform="matrix(12,0,0,12,772.1,513.1)" />
<use xlink:href="#f0_1x" transform="matrix(12,0,0,12,783.1,513.1)" />
<use xlink:href="#f0_1z" transform="matrix(12,0,0,12,790.8,513.1)" />
<use xlink:href="#f0_2g" transform="matrix(12,0,0,12,798.2,513.1)" />
<use xlink:href="#f0_25" transform="matrix(12,0,0,12,801.9,513.1)" />
<use xlink:href="#f0_2a" transform="matrix(12,0,0,12,806,513.1)" />
<use xlink:href="#f0_23" transform="matrix(12,0,0,12,814.4,513.1)" />
<use xlink:href="#f0_2b" transform="matrix(12,0,0,12,826.5,513.1)" />
<use xlink:href="#f0_2a" transform="matrix(12,0,0,12,835.7,513.1)" />
<use xlink:href="#f0_2g" transform="matrix(12,0,0,12,155.8,537.7)" />
<use xlink:href="#f0_24" transform="matrix(12,0,0,12,161,537.7)" />
<use xlink:href="#f0_21" transform="matrix(12,0,0,12,169.8,537.7)" />
<use xlink:href="#f0_1z" transform="matrix(12,0,0,12,181.2,537.7)" />
<use xlink:href="#f0_24" transform="matrix(12,0,0,12,188.9,537.7)" />
<use xlink:href="#f0_1x" transform="matrix(12,0,0,12,197.4,537.7)" />
<use xlink:href="#f0_2e" transform="matrix(12,0,0,12,205.4,537.7)" />
<use xlink:href="#f0_23" transform="matrix(12,0,0,12,211.3,537.7)" />
<use xlink:href="#f0_21" transform="matrix(12,0,0,12,220.5,537.7)" />
<use xlink:href="#f0_2d" transform="matrix(12,0,0,12,231.9,537.7)" />
<use xlink:href="#f0_i" transform="matrix(12,0,0,12,240.7,537.7)" />
</g>
<path d="M518.5,693.2l-.8,-.4L458.3,584.5l1.1,-.7l59.8,108.3l-.7,1.1Zm.7,-1.1l.4,1.1h-1.1l.7,-1.1Zm-120.6,0l.7,-.4H518.5v1.5H399.3l-.7,-1.1Zm.7,1.1h-1.5l.8,-1.1l.7,1.1ZM459.4,583.8v.7L400,692.8l-1.4,-.7L458.3,583.8h1.1Zm-1.1,0l.4,-1.1l.7,1.1h-1.1Z" class="g2_5" />
<g fill="#1F1A17" >
<use xlink:href="#f0_11" transform="matrix(12,0,0,12,452.1,580.2)" />
<use xlink:href="#f0_12" transform="matrix(12,0,0,12,394.9,709.6)" />
<use xlink:href="#f0_13" transform="matrix(12,0,0,12,509.3,708.9)" />
<use xlink:href="#f0_2d" transform="matrix(12,0,0,12,440.4,592.7)" />
<use xlink:href="#f0_4y" transform="matrix(12,0,0,12,372.2,681)" />
<use xlink:href="#f0_o" transform="matrix(12,0,0,12,381.3,681)" />
<use xlink:href="#f0_2d" transform="matrix(12,0,0,12,390.5,681)" />
<use xlink:href="#f0_m" transform="matrix(12,0,0,12,518.5,682.9)" />
<use xlink:href="#f0_2d" transform="matrix(12,0,0,12,527.6,682.9)" />
<use xlink:href="#f1_28" transform="matrix(11.9,0,0,12,456.1,720.3)" />
</g>
<path d="M404.8,710.4v8l-7.3,-4l7.3,-4Zm46.9,4.7H404.1v-1.4h47.6v1.4Z" class="g2_5" />
<path d="M511.5,718.4v-8l7.3,4l-7.3,4Zm-46.9,-4.7h47.6v1.4H464.6v-1.4Z" class="g2_5" />
<g fill="#000000" >
<use xlink:href="#f0_11" transform="matrix(12,0,0,12,64.9,781.5)" />
<use xlink:href="#f0_2a" transform="matrix(12,0,0,12,77.4,781.5)" />
<use xlink:href="#f0_2f" transform="matrix(12,0,0,12,85.8,781.5)" />
<use xlink:href="#f0_i" transform="matrix(12,0,0,12,92.4,781.5)" />
</g>
<path d="M159.3,756.8v29.1m19.3,-29.1v29.1m16.7,-14.5h36.5m3.4,0h55.7" class="g7_5" />
<g fill="#000000" >
<use xlink:href="#f0_l" transform="matrix(6.9,0,0,6.9,170.9,780.4)" />
<use xlink:href="#f0_m" transform="matrix(6.9,0,0,6.9,264,781.9)" />
<use xlink:href="#f0_k" transform="matrix(6.9,0,0,6.9,224,794.7)" />
<use xlink:href="#f0_l" transform="matrix(11.9,0,0,11.9,209,764.3)" />
<use xlink:href="#f0_c" transform="matrix(11.9,0,0,11.9,236.1,764.3)" />
<use xlink:href="#f0_o" transform="matrix(11.9,0,0,11.9,242.7,764.3)" />
<use xlink:href="#f0_d" transform="matrix(11.9,0,0,11.9,261.8,764.3)" />
<use xlink:href="#f0_c" transform="matrix(11.9,0,0,11.9,267.6,764.3)" />
<use xlink:href="#f0_d" transform="matrix(11.9,0,0,11.9,284.1,764.3)" />
<use xlink:href="#f0_o" transform="matrix(11.9,0,0,11.9,196.5,790.3)" />
<use xlink:href="#f1_2d" transform="matrix(11.9,0,0,11.9,251.9,764.3)" />
<use xlink:href="#f1_2d" transform="matrix(11.9,0,0,11.9,274.2,764.3)" />
<use xlink:href="#f1_16" transform="matrix(11.9,0,0,11.9,162.1,776)" />
<use xlink:href="#f3_2c" transform="matrix(11.9,0,-3.2,11.9,204.6,790.3)" />
<use xlink:href="#f3_21" transform="matrix(11.9,0,-3.2,11.9,214.5,790.3)" />
<use xlink:href="#f2_x" transform="matrix(11.9,0,0,11.9,182.6,776)" />
<use xlink:href="#f5_23" transform="matrix(11.9,0,0,11.9,161.7,759.9)" />
<use xlink:href="#f5_23" transform="matrix(11.9,0,0,11.9,167.2,759.9)" />
<use xlink:href="#f5_20" transform="matrix(11.9,0,0,11.9,169.1,759.9)" />
<use xlink:href="#f5_1u" transform="matrix(11.9,0,0,11.9,255.2,790.3)" />
</g>
<path d="M189.4,841.3h36.5m3.5,0H258" class="g6_5" />
<g fill="#000000" >
<use xlink:href="#f0_m" transform="matrix(6.9,0,0,6.9,250.1,826.2)" />
<use xlink:href="#f0_l" transform="matrix(6.9,0,0,6.9,167.9,850.4)" />
<use xlink:href="#f0_m" transform="matrix(6.9,0,0,6.9,244.6,851.9)" />
<use xlink:href="#f0_k" transform="matrix(6.9,0,0,6.9,218.2,864.7)" />
<use xlink:href="#f0_l" transform="matrix(12,0,0,12,203.1,834.3)" />
<use xlink:href="#f0_o" transform="matrix(12,0,0,12,230.6,834.3)" />
<use xlink:href="#f0_o" transform="matrix(12,0,0,12,190.7,860.3)" />
<use xlink:href="#f1_2d" transform="matrix(12,0,0,12,239.8,834.3)" />
<use xlink:href="#f1_16" transform="matrix(12,0,0,12,159.1,846)" />
<use xlink:href="#f3_2c" transform="matrix(12,0,-3.2,12,198.7,860.3)" />
<use xlink:href="#f3_21" transform="matrix(12,0,-3.2,12,208.6,860.3)" />
<use xlink:href="#f2_x" transform="matrix(12,0,0,12,176.7,846)" />
<use xlink:href="#f5_1u" transform="matrix(12,0,0,12,235.8,860.3)" />
</g>
<path d="M594,950.8l-.7,-.3L533.9,841.7L535,841l59.7,108.7l-.7,1.1Zm.7,-1.1l.4,1.1H594l.7,-1.1Zm-120.6,0l.7,-.3H594v1.4H474.8l-.7,-1.1Zm.7,1.1h-1.4l.7,-1.1l.7,1.1ZM535,841v.7L475.6,950.5l-1.5,-.8L533.9,841H535Zm-1.1,0l.3,-1.1l.8,1.1h-1.1Z" class="g2_5" />
<g fill="#1F1A17" >
<use xlink:href="#f0_11" transform="matrix(12,0,0,12,541.2,837.2)" />
<use xlink:href="#f0_12" transform="matrix(12,0,0,12,469.7,968.9)" />
<use xlink:href="#f0_13" transform="matrix(12,0,0,12,589.6,969.6)" />
<use xlink:href="#f0_2d" transform="matrix(12,0,0,12,519.2,843.1)" />
<use xlink:href="#f0_4y" transform="matrix(12,0,0,12,447.7,938.8)" />
<use xlink:href="#f0_o" transform="matrix(12,0,0,12,456.9,938.8)" />
<use xlink:href="#f0_2d" transform="matrix(12,0,0,12,466,938.8)" />
<use xlink:href="#f0_m" transform="matrix(12,0,0,12,594,940.6)" />
<use xlink:href="#f0_2d" transform="matrix(12,0,0,12,603.2,940.6)" />
</g>
<path d="M513.7,793.2L535,841l-1.5,.7L512.2,794l1.5,-.8Zm-4,2.6l.7,-8.1l6.6,4.8l-7.3,3.3Z" class="g2_5" />
<path d="M520.3,868.2l-1.5,.7l-.7,-2.2l-.7,-2.2l-.4,-1.8l-.7,-2.2l-.4,-1.9l-.4,-2.2l-.3,-1.8l-.4,-1.8v-1.9l-.4,-1.8v-1.8l-.3,-1.9v-5.1l.3,-1.9V837l.4,-1.9v-1.4l.4,-1.5l.3,-1.5l.4,-1.5l.4,-1.4l.7,-1.5l.4,-1.5l.7,-1.4l.4,-1.5l.7,-1.1l.7,-1.5l.8,-1.1l.7,-1.4l1.1,-1.1l1.1,.7l-.7,1.5l-.8,1.1l-.7,1.1l-.7,1.4l-.8,1.1l-.7,1.5l-.4,1.1l-.3,1.5l-.8,1.4l-.3,1.5l-.4,1.5l-.4,1.4l-.3,1.5v1.5l-.4,1.5v3.3l-.4,1.4v1.9l.4,1.8v3.3l.4,1.9v1.8l.3,1.8l.4,1.9l.4,2.2l.3,1.8l.8,1.8l.3,2.2l.8,2.2l.7,1.9Z" class="g2_5" />
<path fill-rule="evenodd" d="M533.5,837h1.1l.7,.7l.4,.7l.4,1.1l-.4,1.1l-.4,.8l-.7,.3l-1.1,.4l-1.1,-.4l-.7,-.3l-.8,-.8v-2.2l.8,-.7l.7,-.7h1.1Z" class="g2_5" />
<path d="M536.8,839.5h-1.5v-.7l-.3,-.4v-.3h-.4l-.4,-.4h-.7v-1.5H535l.3,.4l.4,.4l.7,.7v.4l.4,.7v.7Zm-3.3,3.3v-1.4h.4l.3,-.4h.4l.4,-.4l.3,-.3v-.8h1.5v.8l-.4,.3v.8l-.7,.3l-.4,.4l-.3,.4l-.8,.3h-.7Zm-3.3,-3.3h1.5v.8l.3,.3l.4,.4h.4l.3,.4h.4v1.4h-.7l-.8,-.3l-.3,-.4l-.8,-.4l-.3,-.3v-.8l-.4,-.3v-.8Zm3.3,-3.3v1.5h-.7l-.4,.4H532v.3l-.3,.4v.7h-1.5v-.7l.4,-.7v-.4l.3,-.7l.8,-.4l.3,-.4h1.5Z" class="g2_5" />
<path fill-rule="evenodd" d="M594,947.5h1.1l.7,.8l.4,.7l.4,1.1l-.4,1.1l-.4,.7l-.7,.4l-1.1,.4l-1.1,-.4l-.7,-.4l-.8,-.7V949l.8,-.7l.7,-.8H594Z" class="g2_5" />
<path d="M597.3,950.1h-1.5v-.7l-.3,-.4l-.4,-.4l-.4,-.3H594v-1.5h1.5l.3,.4l.4,.3l.7,.8v.3l.4,.8v.7Zm-3.3,3.3v-1.5h.4l.3,-.3h.4v-.4h.4l.3,-.4v-.7h1.5v.7l-.4,.4v.7l-.7,.4l-.4,.4l-.3,.3l-.8,.4H594Zm-3.3,-3.3h1.5v.7l.3,.4l.4,.4h.4l.3,.3h.4v1.5h-.7l-.8,-.4l-.3,-.3l-.8,-.4l-.3,-.4l-.4,-.7v-1.1Zm3.3,-3.3v1.5h-.7l-.4,.3h-.4v.4l-.3,.4v.7h-1.5v-1.5l.4,-.3l.3,-.8l.8,-.3l.3,-.4H594Z" class="g2_5" />
<path fill-rule="evenodd" d="M474.8,947.5h.8l1.1,.8l.3,.7l.4,1.1l-.4,1.1l-.3,.7l-1.1,.4l-.8,.4l-1.1,-.4l-.7,-.4l-.7,-.7V949l.7,-.7l.7,-.8h1.1Z" class="g2_5" />
<path d="M478.1,950.1h-1.4v-.4l-.4,-.3V949l-.4,-.4l-.3,-.3h-.8v-1.5h1.1l.8,.4l.3,.3l.4,.8l.4,.3l.3,.8v.7Zm-3.3,3.3v-1.5h.4l.4,-.3h.3v-.4h.4v-.4l.4,-.3v-.4h1.4v.7l-.3,.4l-.4,.7l-.4,.4l-.3,.4l-.8,.3l-.3,.4h-.8Zm-3.3,-3.3H473v.7l.4,.4l.3,.4h.4l.4,.3h.3v1.5h-.7l-.7,-.4l-.4,-.3l-.7,-.4l-.4,-.4l-.4,-.7v-1.1Zm3.3,-3.3v1.5h-.7l-.4,.3h-.3v.4l-.4,.4v.7h-1.5v-1.5l.4,-.3l.4,-.8l.7,-.3l.4,-.4h1.4Z" class="g2_5" />
<path fill-rule="evenodd" d="M540.8,961.9v-2.6h-.3l-.4,-.4l-.7,.4l-.4,.4l-.7,.7l-.4,.7l-.7,1.1l-.4,1.1l-.4,1.1l-.3,.8v2.5l-.4,.8l-.4,.3l-.3,.4l-.4,.4l-.4,.3v.4l.4,-.4l.4,-.3h.3v-.4h.4v-.4h.4v1.1l.3,.4v.4l.4,.7l.4,.4h1.4l.4,-.4l.7,-.3l.4,-.8v-.4h-.4v.4l-.3,.4H539v.4h-.4l-.3,.3h-.8l-.3,-.3l-.4,-.4v-2.6l.7,-.7l.4,-.8l.7,-.7l.4,-.7l.7,-.8l.4,-.7l.4,-1.1l.3,-.7Zm-.3,0l-.4,.3l-.4,.8l-.3,.7l-.4,.7l-.4,.8l-.3,.7l-.8,.7l-.7,.8V967l.4,-.7v-.8l.3,-1.1l.4,-.7l.4,-1.1l.3,-1.1l.4,-.7l.4,-.8l.3,-.3l.4,-.4v.4h.4v2.2Z" class="g5_5" />
<path fill-rule="evenodd" d="M581.5,885.5v0v-2.2l-.3,-.4h-1.1l-.4,.7l-.7,.8l-.4,.7l-.7,1.1l-.4,1.1l-.4,.7l-.3,1.1v1.5l-.4,.7v.8l-.4,.3l-.3,.8l-.4,.3h-.4v.4h.4l.4,-.4l.3,-.3v-.4h.4v-.4v.4l.4,.4v1.1l.3,.3l.4,.4l.4,.4h1.8l.4,-.8l.7,-.3v-.4h-.4l-.3,.4l-.4,.3l-.4,.4h-1.4l-.4,-.4v-2.9l.7,-.7l.4,-.8l.7,-.3l.4,-.8l.7,-1.1l.4,-.7l.4,-.7l.3,-1.1Zm-.3,0l-.4,.7l-.4,.7l-.3,.8l-.4,.7l-.4,.7l-.7,.8l-.4,.7l-.7,.7v-1.1l.4,-.3v-.4l.3,-1.1l.4,-1.1l.4,-.7l.3,-1.1l.4,-.8l.4,-.7l.3,-.7h.4l.4,.3v1.9Z" class="g5_5" />
<path fill-rule="evenodd" d="M480,888h.3v-1.8l-.3,-.4l-.4,-.3h-.4l-.3,.3l-.8,.4l-.3,.7l-.8,.8l-.3,1.1l-.8,1.1l-.3,.7v1.8l-.4,.8V895l-.4,.4l-.3,.4l-.8,.3l-.3,.4h.7v-.4h.4v-.3h.3v-.4h.4v.4l.4,.3v.8l.3,.3l.4,.4l.4,.4l.3,.3l.8,-.3h.7l.4,-.8l.7,-.3v-.4h-.4l-.3,.4h-.4v.3l-.4,.4h-.3l-.4,.4H477l-.3,-.4h-.4v-.4l-.4,-.3v-2.6l.8,-.8l.7,-.7l.7,-.4l.4,-.7l.4,-.7l.3,-1.1l.4,-.8L480,888Zm-.4,0v.8l-.4,.7l-.3,.7l-.4,.8l-.7,.7l-.4,.7l-.7,.8l-.4,.7v-1.5l.4,-.3V891l.3,-1.1l.4,-.8l.4,-1.1l.3,-.7l.4,-.7l.4,-.4l.3,-.4h.4v.4l.4,.4v1.1l-.4,.3Z" class="g5_5" />
<g fill="#1F1A17" >
<use xlink:href="#f0_l" transform="matrix(12,0,0,12,478.9,850.8)" />
<use xlink:href="#f0_m" transform="matrix(12,0,0,12,488,850.8)" />
<use xlink:href="#f0_k" transform="matrix(12,0,0,12,497.2,850.8)" />
<use xlink:href="#f0_3o" transform="matrix(12,0,0,12,506.4,850.8)" />
</g>
<path fill-rule="evenodd" d="M503.8,898l.4,-8.9l7.3,4.4l-7.7,4.5Z" class="g2_5" />
<path d="M504.5,888.4l.4,.7V898h-1.8l.3,-8.9l1.1,-.7Zm-1.1,.7V888l1.1,.4l-1.1,.7Zm8.5,5.2h-.8l-7.3,-4.4l.7,-1.5l7.4,4.8v1.1Zm0,-1.1l1.1,.3l-1.1,.8v-1.1Zm-8.8,4.8l.3,-.8l7.7,-4l.8,1.1l-7.7,4.4l-1.1,-.7Zm1.1,.7l-1.1,.4V898l1.1,.7Z" class="g2_5" />
<g fill="#000000" >
<use xlink:href="#f0_m" transform="matrix(7.2,0,0,7,533.5,802.4)" />
<use xlink:href="#f1_16" transform="matrix(11.9,0,0,12,523.6,797.6)" />
<use xlink:href="#f0_l" transform="matrix(7.2,0,0,7,497.9,895.5)" />
<use xlink:href="#f1_16" transform="matrix(11.9,0,0,12,489.5,891.1)" />
</g>
<path d="M542.7,856.8l1.1,1.5l-1.1,.7l-1.1,.7l-1.1,.4l-1.1,.7l-1.1,.4l-1.1,.4h-1.1l-1.5,.3h-1.1l-1.1,-.3l-1.1,-.4l-1.5,-.4l-1.1,-.3l-1.1,-.8l-1.1,-.7l-1.4,-1.1l1.1,-1.1l1.1,.7l1.1,.8l1.1,.7l1.1,.4l1.1,.3l1.1,.4h4l1.1,-.4l.7,-.3l1.1,-.4l1.1,-.7l.8,-.8l1.1,-.7Z" class="g2_5" />
<g fill="#1F1A17" >
<use xlink:href="#f0_q" transform="matrix(12,0,0,12,521,880.9)" />
<use xlink:href="#f0_k" transform="matrix(12,0,0,12,530.2,880.9)" />
<use xlink:href="#f0_3o" transform="matrix(12,0,0,12,539.4,880.9)" />
</g>
<path d="M189.4,911.7h27.1m3.4,0h19.2" class="g6_5" />
<g fill="#000000" >
<use xlink:href="#f0_m" transform="matrix(6.9,0,0,6.9,231.4,896.6)" />
<use xlink:href="#f0_l" transform="matrix(6.9,0,0,6.9,167.9,920.8)" />
<use xlink:href="#f0_m" transform="matrix(6.9,0,0,6.9,230.3,922.3)" />
<use xlink:href="#f0_k" transform="matrix(6.9,0,0,6.9,208.6,935.1)" />
<use xlink:href="#f0_l" transform="matrix(12,0,0,12,198.4,904.7)" />
<use xlink:href="#f1_2d" transform="matrix(12,0,0,12,221.1,904.7)" />
<use xlink:href="#f1_16" transform="matrix(12,0,0,12,159.1,916.4)" />
<use xlink:href="#f3_2c" transform="matrix(12,0,-3.2,12,189.6,930.7)" />
<use xlink:href="#f3_21" transform="matrix(12,0,-3.2,12,199.1,930.7)" />
<use xlink:href="#f2_x" transform="matrix(12,0,0,12,176.7,916.4)" />
<use xlink:href="#f5_1u" transform="matrix(12,0,0,12,221.5,930.7)" />
</g>
<path d="M159.3,963.6v29.1m21.4,-29.1v29.1m16.8,-14.5h36.6m3.4,0h56" class="g6_5" />
<g fill="#000000" >
<use xlink:href="#f0_m" transform="matrix(6.9,0,0,6.9,172,987.2)" />
<use xlink:href="#f0_m" transform="matrix(6.9,0,0,6.9,266.2,988.7)" />
<use xlink:href="#f0_k" transform="matrix(6.9,0,0,6.9,226.2,1001.5)" />
<use xlink:href="#f0_l" transform="matrix(11.9,0,0,11.9,211.2,971.1)" />
<use xlink:href="#f0_c" transform="matrix(11.9,0,0,11.9,238.3,971.1)" />
<use xlink:href="#f0_d" transform="matrix(11.9,0,0,11.9,254.8,971.1)" />
<use xlink:href="#f0_c" transform="matrix(11.9,0,0,11.9,260.7,971.1)" />
<use xlink:href="#f0_m" transform="matrix(11.9,0,0,11.9,267.3,971.1)" />
<use xlink:href="#f0_d" transform="matrix(11.9,0,0,11.9,286.7,971.1)" />
<use xlink:href="#f0_o" transform="matrix(11.9,0,0,11.9,198.7,997.1)" />
<use xlink:href="#f1_2d" transform="matrix(11.9,0,0,11.9,244.9,971.1)" />
<use xlink:href="#f1_2d" transform="matrix(11.9,0,0,11.9,276.8,971.1)" />
<use xlink:href="#f1_16" transform="matrix(11.9,0,0,11.9,162.1,982.8)" />
<use xlink:href="#f3_2c" transform="matrix(11.9,0,-3.2,11.9,206.8,997.1)" />
<use xlink:href="#f3_21" transform="matrix(11.9,0,-3.2,11.9,216.7,997.1)" />
<use xlink:href="#f2_x" transform="matrix(11.9,0,0,11.9,184.4,982.8)" />
<use xlink:href="#f5_23" transform="matrix(11.9,0,0,11.9,161.7,966.7)" />
<use xlink:href="#f5_23" transform="matrix(11.9,0,0,11.9,168.7,966.7)" />
<use xlink:href="#f5_20" transform="matrix(11.9,0,0,11.9,170.9,966.7)" />
<use xlink:href="#f5_1u" transform="matrix(11.9,0,0,11.9,257.8,997.1)" />
</g>
<path d="M191.6,1048.1h36.7m3.5,0h19.3" class="g8_5" />
<g fill="#000000" >
<use xlink:href="#f0_m" transform="matrix(6.9,0,0,6.9,243.1,1033)" />
<use xlink:href="#f0_m" transform="matrix(6.9,0,0,6.9,169,1057.2)" />
<use xlink:href="#f0_m" transform="matrix(6.9,0,0,6.9,242.4,1058.7)" />
<use xlink:href="#f0_k" transform="matrix(6.9,0,0,6.9,220.4,1071.5)" />
<use xlink:href="#f0_l" transform="matrix(12,0,0,12,205.3,1041.1)" />
<use xlink:href="#f0_m" transform="matrix(12,0,0,12,192.9,1067.1)" />
<use xlink:href="#f1_2d" transform="matrix(12,0,0,12,232.8,1041.1)" />
<use xlink:href="#f1_16" transform="matrix(12,0,0,12,159.1,1052.8)" />
<use xlink:href="#f3_2c" transform="matrix(12,0,-3.2,12,200.9,1067.1)" />
<use xlink:href="#f3_21" transform="matrix(12,0,-3.2,12,210.8,1067.1)" />
<use xlink:href="#f2_x" transform="matrix(12,0,0,12,178.6,1052.8)" />
<use xlink:href="#f5_1u" transform="matrix(12,0,0,12,233.6,1067.1)" />
<use xlink:href="#f0_1x" transform="matrix(12,0,0,12,155.8,1107.5)" />
<use xlink:href="#f0_2a" transform="matrix(12,0,0,12,163.9,1107.5)" />
<use xlink:href="#f0_23" transform="matrix(12,0,0,12,172.7,1107.5)" />
<use xlink:href="#f0_28" transform="matrix(12,0,0,12,181.9,1107.5)" />
<use xlink:href="#f0_21" transform="matrix(12,0,0,12,185.9,1107.5)" />
<use xlink:href="#f0_1y" transform="matrix(12,0,0,12,197.7,1107.5)" />
<use xlink:href="#f0_21" transform="matrix(12,0,0,12,206.5,1107.5)" />
<use xlink:href="#f0_2g" transform="matrix(12,0,0,12,214.6,1107.5)" />
<use xlink:href="#f0_2j" transform="matrix(12,0,0,12,220.1,1107.5)" />
<use xlink:href="#f0_21" transform="matrix(12,0,0,12,233.3,1107.5)" />
<use xlink:href="#f0_21" transform="matrix(12,0,0,12,241,1107.5)" />
<use xlink:href="#f0_2a" transform="matrix(12,0,0,12,249.1,1107.5)" />
<use xlink:href="#f0_l" transform="matrix(6.8,0,0,6.8,273.5,1114.1)" />
<use xlink:href="#f1_16" transform="matrix(11.8,0,0,11.8,264.7,1109.7)" />
<use xlink:href="#f5_23" transform="matrix(11.8,0,0,11.8,264.4,1093.5)" />
<use xlink:href="#f5_23" transform="matrix(11.8,0,0,11.8,269.9,1093.5)" />
<use xlink:href="#f5_20" transform="matrix(11.8,0,0,11.8,271.7,1093.5)" />
<use xlink:href="#f0_1x" transform="matrix(12,0,0,12,286.7,1107.5)" />
<use xlink:href="#f0_2a" transform="matrix(12,0,0,12,294.8,1107.5)" />
<use xlink:href="#f0_20" transform="matrix(12,0,0,12,303.6,1107.5)" />
<use xlink:href="#f0_m" transform="matrix(6.8,0,0,6.8,329.3,1114.1)" />
<use xlink:href="#f1_16" transform="matrix(11.8,0,0,11.8,319.7,1109.7)" />
<use xlink:href="#f5_23" transform="matrix(11.8,0,0,11.8,319.4,1093.5)" />
<use xlink:href="#f5_23" transform="matrix(11.8,0,0,11.8,326,1093.5)" />
<use xlink:href="#f5_20" transform="matrix(11.8,0,0,11.8,328.6,1093.5)" />
<use xlink:href="#f0_25" transform="matrix(12,0,0,12,342.8,1107.5)" />
<use xlink:href="#f0_2f" transform="matrix(12,0,0,12,347.3,1107.5)" />
<use xlink:href="#f0_l" transform="matrix(12,0,0,12,357.6,1107.5)" />
<use xlink:href="#f0_m" transform="matrix(12,0,0,12,366.7,1107.5)" />
<use xlink:href="#f0_k" transform="matrix(12,0,0,12,375.9,1107.5)" />
<use xlink:href="#f0_3o" transform="matrix(12,0,0,12,385,1107.5)" />
</g>
<path d="M187.7,1149.6l1.9,-1.4m0,0l4.5,9.7m0,0l4.8,-25.4m0,0H376" class="g4_5" />
<path fill-rule="evenodd" d="M187.6,1149.4l2.5,-1.8l4,8l4.5,-23.5H376v.9H199.3l-4.8,24.9h-.9l-4.5,-9l-1.2,1l-.3,-.5Z" class="g5_5" />
<g fill="#000000" >
<use xlink:href="#f0_l" transform="matrix(6.8,0,0,6.8,212.7,1143.8)" />
<use xlink:href="#f0_m" transform="matrix(6.8,0,0,6.8,249,1143.8)" />
<use xlink:href="#f0_l" transform="matrix(6.8,0,0,6.8,209,1156.6)" />
<use xlink:href="#f0_m" transform="matrix(6.8,0,0,6.8,244.9,1156.6)" />
<use xlink:href="#f0_l" transform="matrix(6.8,0,0,6.8,290.8,1156.6)" />
<use xlink:href="#f0_m" transform="matrix(6.8,0,0,6.8,306.1,1156.6)" />
<use xlink:href="#f0_m" transform="matrix(11.8,0,0,11.8,272.1,1151.8)" />
<use xlink:href="#f0_1z" transform="matrix(11.8,0,0,11.8,315.7,1151.8)" />
<use xlink:href="#f0_2b" transform="matrix(11.8,0,0,11.8,323.8,1151.8)" />
<use xlink:href="#f0_2f" transform="matrix(11.8,0,0,11.8,332.9,1151.8)" />
<use xlink:href="#f0_l" transform="matrix(11.8,0,0,11.8,340.6,1151.8)" />
<use xlink:href="#f0_m" transform="matrix(11.8,0,0,11.8,349.8,1151.8)" />
<use xlink:href="#f0_k" transform="matrix(11.8,0,0,11.8,358.9,1151.8)" />
<use xlink:href="#f1_16" transform="matrix(11.8,0,0,11.8,159.1,1151.8)" />
<use xlink:href="#f1_16" transform="matrix(11.8,0,0,11.8,200.2,1151.8)" />
<use xlink:href="#f1_16" transform="matrix(11.8,0,0,11.8,235,1151.8)" />
<use xlink:href="#f1_16" transform="matrix(11.8,0,0,11.8,281.9,1151.8)" />
<use xlink:href="#f1_16" transform="matrix(11.8,0,0,11.8,296.6,1151.8)" />
<use xlink:href="#f2_x" transform="matrix(11.8,0,0,11.8,174.5,1151.8)" />
<use xlink:href="#f2_f" transform="matrix(11.8,0,0,11.8,221.8,1151.8)" />
<use xlink:href="#f2_f" transform="matrix(11.8,0,0,11.8,258.8,1151.8)" />
<use xlink:href="#f2_36" transform="matrix(11.8,0,0,11.8,368.1,1151.8)" />
<use xlink:href="#f5_23" transform="matrix(11.8,0,0,11.8,158.8,1136.1)" />
<use xlink:href="#f5_20" transform="matrix(11.8,0,0,11.8,163.9,1136.1)" />
<use xlink:href="#f6_p" transform="matrix(8,0,0,8,792.2,1264.2)" />
</g>
<defs>
<path d="M474,-326c0,0,-112,57,-188,133c0,0,-107,108,-165,254c0,0,-58,147,-58,305c0,0,0,231,114,421c0,0,114,191,297,273v-31c0,0,-92,-51,-151,-139c0,0,-59,-88,-88,-223c0,0,-30,-135,-30,-281c0,0,0,-160,25,-290c0,0,20,-102,47,-164c0,0,28,-62,75,-120c0,0,47,-57,122,-109v-29Z" 
id="f0_c"
transform="scale(0.001,-0.001)" />

<path d="M397,34c0,0,67,0,126,75c0,0,58,74,58,216c0,0,0,131,-58,201c0,0,-59,70,-133,70c0,0,-39,0,-79,-20c0,0,-29,-14,-75,-59V109c0,0,37,-37,78,-56c0,0,40,-19,83,-19ZM358,-20c0,0,-59,0,-121,21c0,0,-61,22,-126,65V773c0,0,0,117,-5,144c0,0,-6,27,-18,37c0,0,-12,9,-29,9c0,0,-21,0,-53,-12l-9,27l205,83h34V564c0,0,98,139,213,139c0,0,105,0,183,-90c0,0,78,-90,78,-245c0,0,0,-182,-121,-293c0,0,-103,-95,-231,-95Z" 
id="f0_1y"
transform="scale(0.001,-0.001)" />

<path d="M35,-326v29c0,0,92,51,151,139c0,0,60,87,89,221c0,0,28,136,28,282c0,0,0,159,-24,290c0,0,-19,103,-47,165c0,0,-28,62,-75,119c0,0,-46,57,-122,110v31c0,0,113,-56,188,-132c0,0,107,-109,165,-255c0,0,58,-147,58,-306c0,0,0,-231,-114,-420c0,0,-113,-191,-297,-273Z" 
id="f0_d"
transform="scale(0.001,-0.001)" />

<path d="M398,24c0,0,74,0,120,58c0,0,61,76,61,214c0,0,0,156,-69,240c0,0,-47,59,-113,59c0,0,-36,0,-71,-18c0,0,-27,-14,-88,-81V242c0,0,0,-83,6,-109c0,0,11,-43,51,-76c0,0,41,-33,103,-33ZM-4,-326v27H15c5,0,42,0,69,16c0,0,14,8,22,26c0,0,7,19,7,94V481c0,0,0,67,-6,85c0,0,-5,18,-18,27c0,0,-13,9,-36,9c0,0,-18,0,-45,-10L0,615l209,85h29V540c0,0,53,91,106,127c0,0,53,36,112,36c0,0,103,0,172,-80c0,0,84,-99,84,-257c0,0,0,-176,-102,-292c0,0,-83,-94,-210,-94c0,0,-55,0,-95,16c0,0,-30,10,-67,44V-167c0,0,0,-71,8,-90c0,0,9,-20,30,-31c0,0,21,-11,77,-11v-27Z" 
id="f0_2c"
transform="scale(0.001,-0.001)" />

<path d="M406,32c0,0,72,0,119,60c0,0,47,59,47,205c0,0,0,181,-78,286c0,0,-53,71,-135,71c0,0,-40,0,-79,-23c0,0,-40,-24,-65,-83c0,0,-24,-58,-24,-151c0,0,0,-149,59,-257c0,0,59,-108,156,-108ZM374,-20c0,0,-154,0,-245,122c0,0,-77,104,-77,233c0,0,0,94,46,187c0,0,47,92,123,137c0,0,76,44,161,44c0,0,155,0,249,-118c0,0,80,-100,80,-231c0,0,0,-91,-44,-185C667,169,623,75,546,27c0,0,-77,-47,-172,-47Z" 
id="f0_2b"
transform="scale(0.001,-0.001)" />

<path d="M255,-10c0,0,-35,0,-68,18c0,0,-32,19,-48,55c0,0,-16,35,-16,109V632H15v24c0,0,41,16,84,56c0,0,43,39,77,92c0,0,17,29,48,104h23V683H407V632H247V188c0,0,0,-66,19,-90c0,0,19,-23,49,-23c0,0,24,0,47,16c0,0,23,15,36,45h29c0,0,-26,-73,-74,-110c0,0,-47,-36,-98,-36Z" 
id="f0_2g"
transform="scale(0.001,-0.001)" />

<path d="M479,469c0,0,-4,66,-16,93c0,0,-18,42,-55,65c0,0,-37,24,-78,24c0,0,-62,0,-111,-48c0,0,-48,-48,-57,-134ZM355,-20c0,0,-123,0,-211,95c0,0,-87,96,-87,258c0,0,0,175,90,273c0,0,89,98,225,98c0,0,115,0,189,-76c0,0,74,-75,74,-202H162c0,0,0,-152,74,-239c0,0,75,-86,175,-86c0,0,67,0,117,36c0,0,50,37,83,127l24,-15c0,0,-16,-102,-91,-186c0,0,-76,-83,-189,-83Z" 
id="f0_21"
transform="scale(0.001,-0.001)" />

<path d="M21,0V26H35c0,0,53,0,71,27c0,0,18,27,18,101V408c0,0,0,123,-5,150c0,0,-6,27,-17,37c0,0,-12,10,-31,10c0,0,-21,0,-50,-11L10,620l206,83h32V558c0,0,120,145,229,145c0,0,56,0,96,-28c0,0,40,-28,64,-92c0,0,16,-45,16,-137V154c0,0,0,-65,11,-88c0,0,8,-19,26,-29c0,0,18,-11,68,-11V0H419V26h14c0,0,47,0,66,15c0,0,20,15,27,43c0,0,3,11,3,70V434c0,0,0,93,-24,135c0,0,-24,42,-81,42c0,0,-88,0,-176,-97V154c0,0,0,-69,9,-86c0,0,10,-21,28,-31c0,0,19,-11,75,-11V0Z" 
id="f0_2a"
transform="scale(0.001,-0.001)" />

<path d="M55,0V26c0,0,50,0,67,10c0,0,17,10,27,32c0,0,10,23,10,86V418c0,0,0,111,-6,144c0,0,-6,24,-17,33c0,0,-11,10,-30,10c0,0,-21,0,-51,-11L45,620l206,83h33V154c0,0,0,-64,9,-85c0,0,9,-22,27,-32c0,0,19,-11,67,-11V0ZM222,909c0,0,-32,0,-54,23c0,0,-22,22,-22,53c0,0,0,32,22,54c0,0,22,22,54,22c0,0,31,0,53,-22c0,0,22,-22,22,-54c0,0,0,-31,-22,-53c0,0,-22,-23,-53,-23Z" 
id="f0_25"
transform="scale(0.001,-0.001)" />

<path d="M286,72c0,0,57,0,149,75V407c0,0,-113,-45,-145,-64c0,0,-59,-32,-85,-68c0,0,-25,-36,-25,-78c0,0,0,-54,32,-89c0,0,32,-36,74,-36ZM217,-13c0,0,-71,0,-116,48c0,0,-46,48,-46,127c0,0,0,50,22,87c0,0,31,50,106,95c0,0,76,45,252,109v26c0,0,0,102,-32,140c0,0,-32,38,-94,38c0,0,-47,0,-74,-25c0,0,-28,-25,-28,-58l1,-43c0,0,0,-34,-17,-53c0,0,-18,-18,-47,-18c0,0,-28,0,-45,19c0,0,-18,19,-18,53c0,0,0,64,66,117c0,0,65,54,184,54c0,0,91,0,149,-31c0,0,44,-23,65,-72c0,0,13,-32,13,-131V238c0,0,0,-98,4,-120c0,0,4,-22,12,-29c0,0,9,-8,20,-8c0,0,12,0,21,5c0,0,16,10,61,55V99C676,99,592,-12,516,-12c0,0,-37,0,-58,24c0,0,-22,26,-23,86C435,98,330,17,303,5c0,0,-40,-18,-86,-18Z" 
id="f0_1x"
transform="scale(0.001,-0.001)" />

<path d="M58,0V26c0,0,47,0,64,10c0,0,18,10,28,32c0,0,9,23,9,86V775c0,0,0,116,-5,142c0,0,-5,27,-17,37c0,0,-11,9,-29,9c0,0,-20,0,-49,-12L46,978l204,83h34V154c0,0,0,-64,9,-85c0,0,9,-21,29,-32c0,0,19,-11,72,-11V0Z" 
id="f0_28"
transform="scale(0.001,-0.001)" />

<path d="M17,0V26c0,0,52,0,77,17c0,0,19,12,26,38c0,0,4,13,4,73V419c0,0,0,119,-5,142c0,0,-4,23,-17,33c0,0,-13,11,-33,11c0,0,-23,0,-52,-11l-7,26l207,83h31V549c0,0,86,154,176,154c0,0,41,0,68,-25c0,0,27,-25,27,-58c0,0,0,-29,-20,-49c0,0,-19,-20,-46,-20c0,0,-26,0,-58,25c0,0,-33,26,-48,26c0,0,-14,0,-29,-15c0,0,-34,-30,-70,-101V159c0,0,0,-56,15,-85c0,0,9,-20,34,-34c0,0,24,-14,71,-14V0Z" 
id="f0_2e"
transform="scale(0.001,-0.001)" />

<path d="M411,-239c0,0,134,0,198,48c0,0,64,47,64,100c0,0,0,39,-38,55c0,0,-39,16,-154,19c0,0,-167,5,-258,17c0,0,-35,-37,-53,-70c0,0,-17,-32,-17,-60c0,0,0,-36,43,-62c0,0,74,-47,215,-47ZM380,257c0,0,56,0,93,43c0,0,36,42,36,133c0,0,0,118,-51,185c0,0,-38,49,-98,49c0,0,-55,0,-92,-44c0,0,-37,-44,-37,-135c0,0,0,-117,50,-182c0,0,39,-49,99,-49ZM345,-328c0,0,-144,0,-243,64c0,0,-56,38,-56,78c0,0,0,18,8,36c0,0,13,27,52,76c0,0,5,7,76,80c0,0,-39,23,-55,41c0,0,-16,19,-16,42c0,0,0,26,22,61c0,0,21,35,98,100c0,0,-63,30,-97,85c0,0,-33,55,-33,121c0,0,0,101,76,174c0,0,77,73,196,73c0,0,98,0,170,-48H688c0,0,32,0,37,-2c0,0,6,-2,8,-6c0,0,4,-7,4,-24c0,0,0,-20,-4,-27c0,0,-2,-4,-7,-6c0,0,-6,-2,-38,-2H599c0,0,41,-54,41,-137c0,0,0,-96,-73,-163c0,0,-73,-68,-196,-68c0,0,-51,0,-104,15c0,0,-33,-28,-44,-49c0,0,-12,-22,-12,-37c0,0,0,-12,13,-24c0,0,12,-12,48,-17c0,0,21,-4,104,-6c0,0,154,-4,199,-11c0,0,70,-10,111,-51c0,0,42,-41,42,-102c0,0,0,-84,-79,-158c0,0,-117,-108,-304,-108Z" 
id="f0_23"
transform="scale(0.001,-0.001)" />

<path d="M145,-328c0,0,-44,0,-73,25c0,0,-28,25,-28,58c0,0,0,31,21,50c0,0,20,19,56,19c0,0,25,0,67,-16c0,0,30,-11,38,-11c0,0,22,0,49,23c0,0,26,23,53,89L376,28L131,542c0,0,-11,24,-36,58c0,0,-19,27,-30,36c0,0,-18,12,-56,21v26H328V657H312c0,0,-33,0,-50,-15c0,0,-17,-14,-17,-36c0,0,0,-30,25,-81L437,179L589,557c0,0,12,31,12,62c0,0,0,13,-5,20c0,0,-6,8,-19,13c0,0,-12,5,-44,5v26H754V657c0,0,-27,-3,-42,-12c0,0,-15,-9,-33,-34c0,0,-7,-10,-25,-58L376,-128c0,0,-40,-99,-105,-150c0,0,-66,-50,-126,-50Z" 
id="f0_2l"
transform="scale(0.001,-0.001)" />

<path d="M63,0V26H93c0,0,30,0,54,15c0,0,25,15,34,41c0,0,10,25,10,99V630H58v53H191v45c0,0,0,102,33,173c0,0,32,71,100,114c0,0,68,44,152,44c0,0,79,0,145,-51c0,0,43,-33,43,-75c0,0,0,-22,-19,-42c0,0,-20,-20,-42,-20c0,0,-17,0,-36,12c0,0,-19,13,-47,53c0,0,-28,41,-51,55c0,0,-23,14,-51,14c0,0,-35,0,-58,-18c0,0,-24,-18,-35,-57c0,0,-10,-38,-10,-197V683H491V630H315V181c0,0,0,-96,21,-122c0,0,27,-33,73,-33h62V0Z" 
id="f0_22"
transform="scale(0.001,-0.001)" />

<path d="M20,0V26c0,0,45,0,71,15c0,0,15,7,24,28c0,0,9,21,9,85V773c0,0,0,117,-5,144c0,0,-6,27,-17,37c0,0,-12,9,-31,9c0,0,-16,0,-51,-12L10,978l204,83h34V561c0,0,83,91,131,116c0,0,49,26,97,26c0,0,58,0,100,-32c0,0,42,-32,62,-101c0,0,14,-47,14,-174V154c0,0,0,-65,11,-89c0,0,7,-18,25,-28c0,0,18,-11,66,-11V0H418V26h15c0,0,48,0,67,15c0,0,18,15,26,43c0,0,2,12,2,70V396c0,0,0,112,-12,147c0,0,-11,35,-36,53c0,0,-26,17,-61,17c0,0,-37,0,-76,-19c0,0,-40,-20,-95,-79V154c0,0,0,-70,8,-87c0,0,8,-17,29,-29c0,0,22,-12,74,-12V0Z" 
id="f0_24"
transform="scale(0.001,-0.001)" />

<path d="M312,-20c0,0,-62,0,-143,22c0,0,-25,8,-40,8c0,0,-18,0,-27,-19H77V234h25c0,0,21,-105,80,-158c0,0,59,-53,132,-53c0,0,51,0,84,31c0,0,32,30,32,72c0,0,0,52,-36,87c0,0,-36,35,-144,88c0,0,-109,54,-142,97c0,0,-34,43,-34,107c0,0,0,85,58,141c0,0,58,57,150,57c0,0,40,0,97,-17c0,0,38,-11,51,-11c0,0,12,0,19,5c0,0,7,5,15,23h25V470H464c0,0,-28,110,-72,149c0,0,-45,40,-113,40c0,0,-53,0,-85,-28c0,0,-32,-27,-32,-61c0,0,0,-41,24,-71c0,0,23,-31,94,-65L389,381c0,0,152,-74,152,-194c0,0,0,-94,-71,-151c0,0,-70,-56,-158,-56Z" 
id="f0_2f"
transform="scale(0.001,-0.001)" />

<path d="M23,0V26c0,0,47,0,66,10c0,0,19,11,28,33c0,0,10,22,10,85V416c0,0,0,112,-7,145c0,0,-5,25,-16,34c0,0,-11,10,-31,10c0,0,-21,0,-50,-11L12,620l207,83h32V557c0,0,75,75,88,86c0,0,34,29,72,44c0,0,39,16,77,16c0,0,64,0,110,-37c0,0,47,-38,62,-109c0,0,77,90,130,118c0,0,53,28,109,28c0,0,54,0,96,-28c0,0,42,-28,67,-91c0,0,16,-43,16,-136V154c0,0,0,-64,10,-88c0,0,8,-16,28,-28c0,0,20,-12,65,-12V0H844V26h14c0,0,44,0,69,18c0,0,17,12,24,38c0,0,3,13,3,72V448c0,0,0,83,-20,117c0,0,-29,48,-93,48c0,0,-39,0,-79,-20c0,0,-40,-19,-97,-73l-1,-8l2,-32V154c0,0,0,-70,8,-87c0,0,7,-17,29,-29c0,0,21,-12,73,-12V0H431V26c0,0,57,0,78,14c0,0,21,13,29,40c0,0,4,13,4,74V448c0,0,0,83,-25,120c0,0,-33,48,-91,48c0,0,-40,0,-80,-22c0,0,-61,-33,-95,-74V154c0,0,0,-67,10,-87c0,0,9,-20,27,-30c0,0,18,-11,74,-11V0Z" 
id="f0_29"
transform="scale(0.001,-0.001)" />

<path d="M191,-20c0,0,-34,0,-58,24c0,0,-24,24,-24,58c0,0,0,35,24,59c0,0,24,24,58,24c0,0,35,0,59,-24c0,0,24,-25,24,-59c0,0,0,-34,-24,-58c0,0,-25,-24,-59,-24Z" 
id="f0_i"
transform="scale(0.001,-0.001)" />

<path d="M678,393L506,802L330,393ZM11,0V27c0,0,63,12,82,30c0,0,38,35,84,145l356,832h27L912,193c0,0,43,-101,77,-132c0,0,35,-30,97,-34V0H687V27c0,0,60,3,82,21c0,0,21,17,21,41c0,0,0,33,-30,104L700,338H307L239,179c0,0,-26,-59,-26,-88c0,0,0,-23,22,-41c0,0,22,-17,95,-23V0Z" 
id="f0_11"
transform="scale(0.001,-0.001)" />

<path d="M547,28c0,0,140,0,226,102c0,0,101,121,101,357c0,0,0,181,-56,304c0,0,-42,96,-112,141c0,0,-71,45,-159,45c0,0,-135,0,-218,-97C329,880,225,758,225,508c0,0,0,-245,106,-378c0,0,82,-102,216,-102Zm491,-326c0,0,-103,4,-220,41c0,0,-117,38,-222,105c0,0,-104,67,-180,142c0,0,-108,42,-171,91c0,0,-91,72,-141,178c0,0,-50,105,-50,249c0,0,0,227,147,377c0,0,147,149,355,149c0,0,199,0,344,-150c0,0,145,-150,145,-379c0,0,0,-185,-104,-326C941,179,838,39,673,-10c0,0,76,-131,164,-194c0,0,88,-62,201,-71v-23Z" 
id="f0_1h"
transform="scale(0.001,-0.001)" />

<path d="M384,85c0,0,44,0,78,19c0,0,35,19,68,62V487c0,0,0,55,-15,87c0,0,-14,33,-51,55c0,0,-38,22,-85,22c0,0,-84,0,-143,-71c0,0,-60,-70,-60,-214c0,0,0,-138,61,-209c0,0,61,-72,147,-72Zm35,-411v27h15c0,0,41,0,63,12c0,0,15,8,24,30c0,0,9,21,9,83V119C530,119,462,39,411,9c0,0,-50,-29,-105,-29c0,0,-99,0,-177,90c0,0,-78,90,-78,241c0,0,0,174,103,283c0,0,103,109,248,109c0,0,43,0,78,-12c0,0,36,-12,65,-35c0,0,43,20,83,47h25V-174c0,0,0,-66,9,-85c0,0,9,-19,28,-30c0,0,19,-10,74,-10v-27Z" 
id="f0_2d"
transform="scale(0.001,-0.001)" />

<path d="M33,0V27c0,0,264,241,371,393c0,0,108,152,108,278c0,0,0,96,-59,158c0,0,-59,62,-141,62c0,0,-75,0,-134,-43c0,0,-59,-44,-88,-128H63c0,0,18,138,95,212c0,0,77,74,193,74c0,0,123,0,205,-80c0,0,83,-79,83,-186c0,0,0,-77,-36,-154c0,0,-55,-121,-179,-256C424,357,238,154,191,112H455c0,0,81,0,114,6c0,0,32,6,58,25c0,0,27,18,46,52h27L630,0Z" 
id="f0_m"
transform="scale(0.001,-0.001)" />

<path d="M452,373V875L97,373ZM452,0V267H23v95l470,671h82V373H711V267H575V0Z" 
id="f0_o"
transform="scale(0.001,-0.001)" />

<path d="M-40,0l10,26c0,0,57,2,77,11c0,0,30,13,44,34c0,0,20,31,48,128L313,811c0,0,20,71,20,113c0,0,0,30,-19,46c0,0,-19,16,-74,16H225l9,26H614l-8,-26h-1c-9,0,-48,-1,-69,-11c0,0,-32,-16,-47,-40c0,0,-15,-25,-44,-124L369,549L729,821c0,0,72,54,94,86c0,0,14,20,14,36c0,0,0,13,-14,26c0,0,-14,13,-42,17l7,26h325l-7,-26c0,0,-53,-9,-89,-24c0,0,-36,-15,-74,-41c0,0,-11,-7,-146,-112L485,573L738,188c0,0,67,-104,111,-133c0,0,44,-29,116,-29L956,0H524l7,26c0,0,52,6,73,25c0,0,21,20,21,44c0,0,0,23,-7,44c0,0,-6,15,-44,74L367,533L267,185c0,0,-25,-75,-25,-100c0,0,0,-26,21,-40c0,0,21,-14,103,-19L354,0Z" 
id="f1_1b"
transform="scale(0.001,-0.001)" />

<path d="M467,25c0,0,67,0,133,34c0,0,65,33,136,114c0,0,89,103,149,261c0,0,61,159,61,296c0,0,0,100,-55,178c0,0,-54,79,-164,79c0,0,-75,0,-146,-37c0,0,-71,-37,-141,-121c0,0,-70,-84,-126,-219c0,0,-68,-167,-68,-316c0,0,0,-105,54,-187c0,0,55,-82,167,-82ZM600,-322c0,0,-65,0,-177,26c0,0,-172,38,-241,38c0,0,-26,0,-42,-4c0,0,-17,-4,-49,-18l-18,21L378,-17c0,0,-141,19,-214,124c0,0,-73,105,-73,224c0,0,0,163,99,338c0,0,98,174,252,270c0,0,154,95,302,95c0,0,111,0,189,-44c0,0,78,-45,120,-130c0,0,43,-86,43,-175c0,0,0,-172,-98,-347C998,338,900,162,755,71c0,0,-145,-89,-308,-92L255,-178c0,0,45,8,84,8c0,0,37,0,69,-5c0,0,32,-4,136,-27c0,0,104,-24,181,-24c0,0,83,0,141,29c0,0,58,28,112,95l25,-11c0,0,-77,-111,-181,-160c0,0,-105,-49,-222,-49Z" 
id="f1_1h"
transform="scale(0.001,-0.001)" />

<path d="M247,72c0,0,46,0,103,51c0,0,88,77,145,198c0,0,58,120,58,208c0,0,0,48,-29,78c0,0,-29,31,-72,31c0,0,-90,0,-191,-157C261,481,161,325,161,186c0,0,0,-56,25,-85c0,0,25,-29,61,-29ZM192,-326l8,27c0,0,73,6,91,13c0,0,28,11,46,36c0,0,19,26,41,108L480,224C480,224,381,80,296,22c0,0,-60,-40,-112,-40c0,0,-75,0,-113,60c0,0,-38,61,-38,132c0,0,0,112,69,236c0,0,69,124,182,203c0,0,88,62,159,62c0,0,53,0,87,-26c0,0,34,-26,51,-83l25,84l116,25L481,-167c0,0,-17,-59,-17,-75c0,0,0,-17,9,-30c0,0,8,-12,23,-18c0,0,23,-9,61,-9l-8,-27Z" 
id="f1_2d"
transform="scale(0.001,-0.001)" />

<path d="M206,-21l88,841c0,0,5,49,5,75c0,0,0,44,-25,67c0,0,-24,22,-89,24l9,26H573l-8,-26h-1c-7,0,-77,-1,-103,-28c0,0,-28,-28,-39,-138L366,274L751,867c0,0,1,15,1,26c0,0,0,42,-25,65c0,0,-24,22,-106,28l6,26h409l-9,-26c0,0,-70,-1,-95,-12c0,0,-18,-9,-30,-27c0,0,-13,-19,-20,-63c0,0,-2,-13,-18,-173c0,0,-16,-161,-48,-437l320,487c0,0,52,80,65,112c0,0,14,32,14,55c0,0,0,21,-18,37c0,0,-18,16,-61,21l6,26h300l-7,-26c0,0,-40,-3,-70,-20c0,0,-31,-16,-73,-63c0,0,-24,-27,-98,-142L685,-21H658l82,782L232,-21Z" 
id="f1_1n"
transform="scale(0.001,-0.001)" />

<path d="M251,69c0,0,93,0,201,118c0,0,131,157,126,322c0,0,0,62,-26,90c0,0,-27,28,-74,28c0,0,-52,0,-110,-44c0,0,-83,-62,-148,-185c0,0,-64,-122,-64,-221c0,0,0,-50,28,-79c0,0,29,-29,67,-29ZM183,-17c0,0,-60,0,-103,44C80,27,36,71,36,149c0,0,0,117,77,247c0,0,77,130,195,208c0,0,92,62,174,62c0,0,49,0,82,-22c0,0,32,-22,49,-73l24,77l115,18L609,160L593,92c0,0,-2,-10,-2,-17c0,0,0,-10,5,-19c0,0,4,-6,11,-6c0,0,6,0,17,11c0,0,21,20,55,88l25,-18c0,0,-43,-75,-89,-112c0,0,-45,-36,-84,-36c0,0,-27,0,-42,16c0,0,-15,15,-15,46c0,0,0,36,17,96l16,55C507,196,399,69,309,19c0,0,-64,-36,-126,-36Z" 
id="f1_1x"
transform="scale(0.001,-0.001)" />

<path d="M0,214v74H784V214ZM0,494v72H784V494Z" 
id="f2_x"
transform="scale(0.001,-0.001)" />

<path d="M355,0V355H0v72H355V784h72V427H782V355H427V0Z" 
id="f2_f"
transform="scale(0.001,-0.001)" />

<path d="M379,29c0,0,41,0,84,37c0,0,43,36,65,121c0,0,34,128,34,362c0,0,0,173,-35,288c0,0,-27,86,-69,122c0,0,-31,25,-74,25c0,0,-51,0,-90,-46c0,0,-54,-62,-73,-195c0,0,-20,-132,-20,-261c0,0,0,-209,52,-341c0,0,42,-112,126,-112Zm-2,-46c0,0,-145,0,-241,170c0,0,-81,144,-81,347c0,0,0,173,52,298c0,0,52,125,139,186c0,0,67,49,139,49c0,0,116,0,208,-119c0,0,116,-147,116,-398c0,0,0,-176,-51,-299C658,217,608,94,529,38c0,0,-79,-55,-152,-55Z" 
id="f0_k"
transform="scale(0.001,-0.001)" />

<path d="M197,0V27c0,0,71,2,92,13c0,0,21,10,29,29c0,0,9,18,9,109V725c0,0,0,110,-8,141c0,0,-5,24,-19,35c0,0,-14,11,-33,11c0,0,-28,0,-77,-23l-11,23l246,121h25V178c0,0,0,-85,7,-106c0,0,7,-21,29,-32c0,0,23,-11,91,-13V0Z" 
id="f0_l"
transform="scale(0.001,-0.001)" />

<path d="M140,-21c0,0,-26,0,-44,17C96,-4,79,13,79,40c0,0,0,19,6,33c0,0,8,20,34,55c0,0,46,60,64,126c0,0,32,114,41,321H190c0,0,-55,0,-81,-18c0,0,-44,-26,-80,-89H0c0,0,42,129,98,178c0,0,43,37,120,37H743V575H562c0,0,-27,-171,-27,-327c0,0,0,-77,27,-110c0,0,27,-33,67,-33c0,0,33,0,56,22c0,0,24,22,31,65h27C743,192,730,74,686,26c0,0,-44,-47,-98,-47c0,0,-58,0,-97,51c0,0,-39,53,-39,198c0,0,0,91,28,347H286c0,0,-23,-390,-56,-494c0,0,-33,-102,-90,-102Z" 
id="f3_2c"
transform="scale(0.001,-0.001)" />

<path d="M291,-21c0,0,-140,0,-216,60C75,39,0,101,0,176c0,0,0,54,40,102c0,0,41,49,147,88c0,0,-89,33,-118,70c0,0,-30,38,-30,89c0,0,0,69,58,116c0,0,79,63,208,63c0,0,77,0,138,-18c0,0,61,-18,83,-47c0,0,22,-28,22,-54c0,0,0,-23,-19,-42c0,0,-20,-19,-45,-19c0,0,-41,0,-68,53c0,0,-27,54,-45,66c0,0,-29,19,-72,19c0,0,-67,0,-106,-39c0,0,-40,-39,-40,-106c0,0,0,-66,33,-101c0,0,33,-35,90,-35c0,0,20,0,43,3c0,0,37,5,57,5c0,0,33,0,44,-8c0,0,12,-8,12,-19c0,0,0,-12,-10,-18c0,0,-13,-10,-47,-10c0,0,-8,0,-25,3c0,0,-39,5,-63,5c0,0,-63,0,-103,-41c0,0,-40,-41,-40,-108c0,0,0,-78,42,-121c0,0,41,-44,107,-44c0,0,53,0,86,32c0,0,20,19,41,78c0,0,14,39,23,47c0,0,24,24,51,24c0,0,31,0,53,-21c0,0,22,-22,22,-54c0,0,0,-51,-59,-95c0,0,-86,-60,-219,-60Z" 
id="f3_21"
transform="scale(0.001,-0.001)" />

<path d="M597,33c0,0,77,0,129,38c0,0,65,47,102,152c0,0,36,105,36,273c0,0,0,201,-37,300c0,0,-37,100,-95,141c0,0,-58,41,-133,41c0,0,-139,0,-211,-142c0,0,-59,-116,-59,-334c0,0,0,-259,91,-382c0,0,63,-87,177,-87Zm3,-54c0,0,-273,0,-423,183C177,162,60,309,60,509c0,0,0,225,153,375c0,0,144,142,358,142c6,0,12,0,19,0c0,0,3,0,8,0c42,0,250,-7,385,-141c0,0,151,-150,151,-375c0,0,0,-193,-113,-339c0,0,-149,-192,-421,-192Z" 
id="f4_1f"
transform="scale(0.001,-0.001)" />

<path d="M448,514c0,0,104,0,155,19c0,0,52,19,81,69c0,0,30,50,30,129c0,0,0,116,-54,171c0,0,-54,55,-174,55H406V514ZM28,0V27c0,0,70,0,95,13c0,0,25,14,35,35c0,0,10,21,10,103V834c0,0,0,82,-10,104c0,0,-10,21,-35,34c0,0,-25,13,-95,13v27H498c0,0,184,0,269,-25c0,0,85,-26,138,-94c0,0,54,-68,54,-160c0,0,0,-112,-80,-185c0,0,-52,-46,-145,-69L977,135c0,0,48,-66,68,-82c0,0,31,-23,72,-26V0H798L472,462H406V178c0,0,0,-82,10,-104c0,0,10,-21,35,-34c0,0,25,-13,95,-13V0Z" 
id="f4_1i"
transform="scale(0.001,-0.001)" />

<path d="M253,0V27h36c0,0,64,0,91,39c0,0,16,24,16,109V948H274c0,0,-71,0,-100,-10c0,0,-39,-14,-67,-54c0,0,-27,-41,-33,-109H46l12,237H883L894,775H865c0,0,-8,62,-22,89c0,0,-23,43,-61,64c0,0,-39,20,-101,20H539V175c0,0,0,-93,20,-116c0,0,28,-32,87,-32h36V0Z" 
id="f0_1k"
transform="scale(0.001,-0.001)" />

<path d="M342,-20c0,0,-116,0,-203,97c0,0,-86,98,-86,264c0,0,0,161,96,261c0,0,95,101,230,101c0,0,100,0,165,-53c0,0,65,-54,65,-111c0,0,0,-29,-18,-46c0,0,-18,-18,-51,-18c0,0,-44,0,-66,29c0,0,-13,15,-17,59c0,0,-4,45,-30,68c0,0,-26,22,-73,22c0,0,-74,0,-120,-55c0,0,-60,-73,-60,-193c0,0,0,-122,60,-216c0,0,60,-93,162,-93c0,0,73,0,131,49c0,0,41,35,80,126l22,-10C629,261,601,125,521,52c0,0,-81,-72,-179,-72Z" 
id="f0_1z"
transform="scale(0.001,-0.001)" />

<path d="M82,-253v33c0,0,77,25,119,78c0,0,42,54,42,114c0,0,0,14,-7,23c0,0,-5,6,-11,6c0,0,-8,0,-35,-14c0,0,-14,-7,-28,-7c0,0,-37,0,-58,21C104,1,82,23,82,61c0,0,0,36,28,62c0,0,28,27,68,27c0,0,49,0,88,-43c0,0,38,-43,38,-113c0,0,0,-77,-53,-143c0,0,-53,-66,-169,-104Z" 
id="f0_g"
transform="scale(0.001,-0.001)" />

<path d="M-12,338v55H777V338Z" 
id="f0_4y"
transform="scale(0.001,-0.001)" />

<path d="M399,62c0,0,68,0,131,68V481c0,0,-5,51,-27,93c0,0,-22,42,-59,63c0,0,-37,21,-72,21c0,0,-65,0,-117,-59c0,0,-67,-77,-67,-226c0,0,0,-151,65,-231c0,0,66,-80,146,-80ZM330,-20c0,0,-112,0,-196,93c0,0,-83,94,-83,240c0,0,0,147,92,269c0,0,93,122,238,122c0,0,90,0,149,-58V773c0,0,0,117,-6,144c0,0,-5,27,-17,37c0,0,-12,9,-30,9c0,0,-20,0,-52,-12l-9,27l204,83h33V270c0,0,0,-120,6,-146c0,0,5,-27,18,-37c0,0,12,-11,28,-11c0,0,21,0,54,13l9,-26L564,-20H530V78C530,78,480,25,432,2c0,0,-47,-22,-102,-22Z" 
id="f0_20"
transform="scale(0.001,-0.001)" />

<path d="M376,-20L133,556c0,0,-17,41,-31,58c0,0,-15,18,-39,30c0,0,-12,7,-50,13v26H335V657H314c0,0,-29,0,-44,-14c0,0,-16,-14,-15,-38c0,0,-1,-26,15,-62L429,165L588,557c0,0,17,42,17,64c0,0,0,10,-6,17c0,0,-8,11,-21,15c0,0,-13,4,-52,4v26H750V657c0,0,-39,-3,-54,-16c0,0,-26,-23,-47,-76L409,-20Z" 
id="f0_2i"
transform="scale(0.001,-0.001)" />

<path d="M292,-20c0,0,-57,0,-100,33c0,0,-42,33,-58,85c0,0,-17,52,-17,148V551c0,0,0,49,-10,68c0,0,-11,18,-31,29c0,0,-19,9,-68,9c-2,0,-4,0,-6,0v26H242V226c0,0,0,-95,33,-125c0,0,33,-30,80,-30c0,0,32,0,73,21c0,0,40,20,96,76V555c0,0,0,59,-21,80c0,0,-22,21,-89,22v26H647V269c0,0,0,-119,6,-145c0,0,6,-27,18,-37c0,0,12,-11,29,-11c0,0,23,0,52,13L763,63L558,-20H524V124C524,124,436,29,390,4c0,0,-47,-24,-98,-24Z" 
id="f0_2h"
transform="scale(0.001,-0.001)" />

<path d="M485,53c0,0,135,0,206,61c0,0,71,60,71,150c0,0,0,59,-32,114c0,0,-33,54,-105,85c0,0,-72,32,-179,32c0,0,-46,0,-79,-2c0,0,-33,-1,-53,-5V73c0,0,86,-20,171,-20ZM455,547c0,0,109,0,164,23c0,0,55,24,84,72c0,0,29,49,29,106c0,0,0,89,-72,151c0,0,-73,63,-212,63c0,0,-74,0,-134,-16V557c0,0,27,-5,63,-8c0,0,35,-2,78,-2ZM24,0V27H63c0,0,63,0,91,41c0,0,17,26,17,111V833c0,0,0,94,-22,119c0,0,-29,33,-86,33H24v27H462c0,0,122,0,196,-18c0,0,112,-27,171,-95c0,0,59,-68,59,-157c0,0,0,-76,-46,-136c0,0,-47,-60,-137,-89c0,0,105,-23,157,-72c0,0,73,-69,73,-168c0,0,0,-75,-48,-145C887,132,839,63,756,32C756,32,673,0,502,0Z" 
id="f0_12"
transform="scale(0.001,-0.001)" />

<path d="M548,-21c0,0,-251,0,-389,185C159,164,56,303,56,490c0,0,0,152,68,278c0,0,67,127,186,197c0,0,119,69,260,69c0,0,109,0,216,-53c0,0,31,-17,44,-17c0,0,20,0,35,14c0,0,20,21,28,56h26L943,690H919c0,0,-46,155,-131,224c0,0,-86,68,-206,68c0,0,-100,0,-181,-51c0,0,-81,-52,-128,-163c0,0,-46,-112,-46,-279c0,0,0,-137,44,-238c0,0,44,-101,132,-154c0,0,88,-54,201,-54c0,0,99,0,174,42c0,0,75,42,165,167l23,-14C966,238,890,103,789,40c0,0,-102,-61,-241,-61Z" 
id="f0_13"
transform="scale(0.001,-0.001)" />

<path d="M268,648c0,0,-51,0,-91,43c0,0,-39,42,-39,105c0,0,0,88,66,160c0,0,44,48,127,78v-32c0,0,-77,-46,-104,-85c0,0,-21,-30,-21,-69c0,0,0,-24,9,-35c0,0,9,-11,20,-11c0,0,7,0,21,5c0,0,20,7,33,7c0,0,30,0,53,-23c0,0,24,-22,24,-56c0,0,0,-38,-23,-58c0,0,-33,-29,-75,-29Z" 
id="f0_52"
transform="scale(0.001,-0.001)" />

<path d="M122,-17c0,0,-27,0,-45,19C77,2,59,21,59,46c0,0,0,27,25,111L291,859c0,0,25,86,25,98c0,0,0,18,-14,30c0,0,-14,12,-44,12c0,0,-18,0,-53,-6v27l257,42L200,170c0,0,-19,-67,-19,-82c0,0,0,-11,6,-18c0,0,7,-8,16,-8c0,0,13,0,28,13c0,0,35,31,73,98l22,-23C326,150,259,50,202,11c0,0,-42,-28,-80,-28Z" 
id="f1_28"
transform="scale(0.001,-0.001)" />

<path d="M177,647v35c0,0,77,46,105,86c0,0,19,28,19,68c0,0,0,23,-8,34c0,0,-9,11,-19,11c0,0,-9,0,-22,-5c0,0,-19,-7,-32,-7c0,0,-30,0,-53,23c0,0,-23,22,-23,56c0,0,0,37,23,58c0,0,31,28,75,28c0,0,50,0,90,-42c0,0,40,-42,40,-105c0,0,0,-88,-67,-160c0,0,-44,-48,-128,-80Z" 
id="f0_53"
transform="scale(0.001,-0.001)" />

<path d="M336,-20L117,554c0,0,-21,55,-42,74c0,0,-21,19,-66,29v26H296V657c0,0,-40,-3,-52,-14c0,0,-13,-12,-13,-33c0,0,0,-23,13,-56L390,162L537,481L498,581c0,0,-18,46,-47,63c0,0,-17,11,-61,13v26H716V657c0,0,-54,-2,-77,-20c0,0,-15,-12,-15,-39c0,0,0,-15,6,-30L785,177L929,554c0,0,15,40,15,65c0,0,0,14,-15,25c0,0,-14,12,-57,13v26h216V657c0,0,-65,-10,-95,-89L764,-20H733L563,415L363,-20Z" 
id="f0_2j"
transform="scale(0.001,-0.001)" />

<path d="M545,30c0,0,143,0,236,111c0,0,93,111,93,351c0,0,0,259,-103,386c0,0,-82,102,-226,102c0,0,-136,0,-218,-101C327,879,225,754,225,512c0,0,0,-247,106,-380c0,0,81,-102,214,-102Zm2,-51c0,0,-209,0,-351,147C196,126,54,274,54,510c0,0,0,240,164,393c0,0,142,131,341,131c0,0,197,0,341,-149c0,0,145,-149,145,-373c0,0,0,-230,-146,-382C899,130,754,-21,547,-21Z" 
id="f0_1f"
transform="scale(0.001,-0.001)" />

<path d="M25,0V26c0,0,27,4,47,19c0,0,29,22,96,111L311,346L182,535c0,0,-55,81,-86,102c0,0,-30,20,-75,20v26H341V657c0,0,-30,0,-42,-10c0,0,-13,-11,-13,-28c0,0,0,-19,27,-56c0,0,8,-12,25,-37l48,-78l56,77c0,0,55,74,55,94c0,0,0,16,0,27c0,0,0,11,0,11v26H674V657c0,0,-37,-2,-64,-20c0,0,-37,-26,-100,-111L416,402L587,156c0,0,63,-91,89,-109c0,0,27,-18,70,-21V0H423V26c0,0,34,0,53,15c0,0,14,11,14,28c0,0,0,17,-48,87L341,302L232,157c0,0,-50,-69,-50,-82c0,0,0,-18,17,-32c0,0,17,-15,50,-17V0Z" 
id="f0_2k"
transform="scale(0.001,-0.001)" />

<path d="M-36,0l10,26c0,0,57,2,76,11c0,0,30,13,44,34c0,0,20,31,48,127L315,809c0,0,22,74,22,116c0,0,0,20,-10,33c0,0,-10,14,-29,21c0,0,-19,7,-75,7l9,26h789L947,757H919c0,0,8,46,8,76c0,0,0,49,-27,78c0,0,-28,29,-70,41c0,0,-30,7,-133,7H489L375,556H511c0,0,90,0,134,28c0,0,44,28,91,118h29L659,334H629c0,0,11,45,11,74c0,0,0,46,-30,71c0,0,-30,25,-112,25H360L270,185c0,0,-24,-76,-24,-100c0,0,0,-26,20,-40c0,0,21,-14,101,-19L358,0Z" 
id="f1_16"
transform="scale(0.001,-0.001)" />

<path d="M0,-26V27H626V-26Z" 
id="f5_23"
transform="scale(0.001,-0.001)" />

<path d="M413,-106l30,80H0V27H443l-30,80L626,0L413,-106Z" 
id="f5_20"
transform="scale(0.001,-0.001)" />

<path d="M266,336v0c59,64,106,125,106,125c47,62,82,121,82,121c35,60,62,118,62,118c28,58,49,116,49,116c5,14,10,45,10,45c6,31,5,63,5,63c-1,31,-12,55,-12,55c-12,23,-39,23,-39,23c-25,0,-57,-52,-57,-52C440,898,408,822,408,822C376,746,347,658,347,658C318,570,299,497,299,497c-9,-36,-17,-77,-17,-77c-9,-41,-16,-84,-16,-84ZM342,-19c-44,0,-74,35,-74,35C238,51,221,94,221,94c-18,44,-25,83,-25,83c-8,40,-10,48,-10,48C171,211,158,199,158,199C145,187,131,174,131,174C118,161,101,145,101,145C84,130,61,110,61,110v-1c0,-3,-1,-4,-3,-4c-2,0,-5,1,-5,1q-7,4,-7,4c0,0,-3,9,-3,9c-3,8,3,13,3,13c30,26,67,60,67,60c37,34,72,63,72,63c1,67,10,135,10,135c8,68,19,126,19,126c14,75,50,165,50,165c37,90,83,168,83,168c46,78,94,131,94,131c48,53,85,53,85,53c45,0,64,-29,64,-29c20,-29,23,-68,23,-68c4,-38,-3,-74,-3,-74c-7,-36,-11,-51,-11,-51C571,727,537,658,537,658C503,588,461,527,461,527C420,466,370,410,370,410C321,353,261,295,261,295c-7,-55,-9,-106,-9,-106c-1,-51,7,-91,7,-91c8,-39,28,-64,28,-64C307,10,342,10,342,10c29,0,52,8,52,8c23,9,43,23,43,23c20,15,38,33,38,33c18,18,40,40,40,40c4,4,8,5,11,5c3,0,4,-1,4,-1q8,-3,8,-3c0,0,4,-7,4,-7c3,-7,-1,-13,-1,-13C495,37,451,9,451,9C408,-19,342,-19,342,-19Z" 
id="f5_1u"
transform="scale(0.001,-0.001)" />

<path d="M302,639c0,0,69,0,118,49c0,0,48,49,48,118c0,0,0,69,-48,117c0,0,-49,49,-118,49c0,0,-69,0,-118,-49c0,0,-48,-48,-48,-117c0,0,0,-69,48,-118c0,0,49,-49,118,-49Zm0,-63c0,0,-94,0,-162,67c0,0,-67,67,-67,162c0,0,0,95,67,162c0,0,67,67,162,67c0,0,96,0,163,-67c0,0,67,-67,67,-162c0,0,0,-95,-67,-162c0,0,-67,-67,-163,-67Z" 
id="f0_3o"
transform="scale(0.001,-0.001)" />

<path d="M405,24c0,0,65,0,116,62c0,0,51,61,51,174c0,0,0,128,-50,221c0,0,-51,93,-144,93c0,0,-29,0,-61,-12c0,0,-33,-12,-96,-51c0,0,-14,-101,-14,-163c0,0,0,-72,27,-155c0,0,26,-84,79,-134c0,0,38,-35,92,-35ZM384,-17c0,0,-104,0,-177,68C207,51,66,185,66,397c0,0,0,136,54,258c0,0,54,122,156,217c0,0,101,95,193,128c0,0,93,33,172,33h44v-28c0,0,-99,-10,-161,-39c0,0,-62,-29,-123,-90c0,0,-61,-60,-101,-135c0,0,-39,-74,-66,-176c0,0,107,73,215,73c0,0,104,0,180,-83c0,0,76,-84,76,-215c0,0,0,-126,-77,-231c0,0,-92,-126,-244,-126Z" 
id="f0_q"
transform="scale(0.001,-0.001)" />

<path d="M230,639c0,0,69,0,118,48c0,0,48,49,48,118c0,0,0,69,-48,118c0,0,-49,49,-118,49c0,0,-69,0,-118,-49c0,0,-48,-49,-48,-118c0,0,0,-69,48,-118c0,0,49,-48,118,-48Zm1,-64c0,0,-96,0,-163,67C68,642,1,709,1,804c0,0,0,95,67,162c0,0,67,68,163,68c0,0,94,0,161,-68c0,0,68,-67,68,-162c0,0,0,-95,-68,-162c0,0,-67,-67,-161,-67Z" 
id="f2_36"
transform="scale(0.001,-0.001)" />

<path d="M415,-18c0,0,-149,0,-244,83c0,0,-94,84,-107,222l140,11c0,0,16,-103,73,-154c0,0,56,-52,137,-52c0,0,98,0,165,73c0,0,66,73,66,194c0,0,0,115,-64,182c0,0,-64,66,-169,66c0,0,-65,0,-117,-29c0,0,-52,-30,-82,-77L87,517l106,562H736V951H300L241,657c0,0,99,69,207,69c0,0,143,0,242,-100c0,0,98,-99,98,-255c0,0,0,-149,-86,-257C702,114,597,-18,415,-18Z" 
id="f6_p"
transform="scale(0.001,-0.001)" />


</defs>
</svg>