<?xml version="1.0" encoding="UTF-8" standalone="no"?>
<!DOCTYPE svg PUBLIC "-//W3C//DTD SVG 1.1//EN"
"http://www.w3.org/Graphics/SVG/1.1/DTD/svg11.dtd">
<svg viewBox="0 0 909 1286" version="1.1" xmlns="http://www.w3.org/2000/svg" xmlns:xlink="http://www.w3.org/1999/xlink">
<defs>
<clipPath id="c0_117"><path d="M173,357.5V308.2H351.8v49.3Z" /></clipPath>
<style type="text/css"><![CDATA[
.g0_117{
fill: none;
stroke: #000000;
stroke-width: 0.9105556;
stroke-linecap: round;
stroke-linejoin: round;
}
]]></style>
</defs>
<g fill="#000000" >
<use xlink:href="#f0_7" transform="matrix(12,0,0,12,443.8,1140.7)" />
<use xlink:href="#f0_c" transform="matrix(12,0,0,12,454.6,1140.7)" />
<use xlink:href="#f0_b" transform="matrix(12,0,0,12,86.5,1140.7)" />
<use xlink:href="#f0_b" transform="matrix(12,0,0,12,96.8,1140.7)" />
<use xlink:href="#f0_5" transform="matrix(12,0,0,12,107.1,1140.7)" />
<use xlink:href="#f0_7" transform="matrix(12,0,0,12,111.9,1140.7)" />
<use xlink:href="#f0_5" transform="matrix(12,0,0,12,122.2,1140.7)" />
<use xlink:href="#f0_q" transform="matrix(12,0,0,12,127,1140.7)" />
<use xlink:href="#f0_n" transform="matrix(12,0,0,12,439.6,159.8)" />
<use xlink:href="#f0_p" transform="matrix(12,0,0,12,454.4,159.8)" />
<use xlink:href="#f1_3" transform="matrix(12,0,0,12,129.7,194.8)" />
<use xlink:href="#f1_1k" transform="matrix(12,0,0,12,135.4,194.8)" />
<use xlink:href="#f1_4" transform="matrix(12,0,0,12,140.7,194.8)" />
<use xlink:href="#f1_q" transform="matrix(12,0,0,12,173,194.8)" />
<use xlink:href="#f1_1t" transform="matrix(12,0,0,12,187.3,194.8)" />
<use xlink:href="#f1_1c" transform="matrix(12,0,0,12,195.4,194.8)" />
<use xlink:href="#f1_1y" transform="matrix(12,0,0,12,205.6,194.8)" />
<use xlink:href="#f1_1c" transform="matrix(12,0,0,12,226.8,194.8)" />
<use xlink:href="#f1_1t" transform="matrix(12,0,0,12,244,194.8)" />
<use xlink:href="#f1_1c" transform="matrix(12,0,0,12,252.1,194.8)" />
<use xlink:href="#f1_20" transform="matrix(12,0,0,12,262.3,194.8)" />
<use xlink:href="#f1_1f" transform="matrix(12,0,0,12,279.1,194.8)" />
<use xlink:href="#f1_1k" transform="matrix(12,0,0,12,289.6,194.8)" />
<use xlink:href="#f1_1c" transform="matrix(12,0,0,12,295.4,194.8)" />
<use xlink:href="#f1_1i" transform="matrix(12,0,0,12,305.6,194.8)" />
<use xlink:href="#f1_1t" transform="matrix(12,0,0,12,315.5,194.8)" />
<use xlink:href="#f1_1c" transform="matrix(12,0,0,12,323.6,194.8)" />
<use xlink:href="#f1_1o" transform="matrix(12,0,0,12,333.8,194.8)" />
<use xlink:href="#f1_1u" transform="matrix(12,0,0,12,357.1,194.8)" />
<use xlink:href="#f1_1j" transform="matrix(12,0,0,12,365.6,194.8)" />
<use xlink:href="#f1_1q" transform="matrix(12,0,0,12,376.7,194.8)" />
<use xlink:href="#f1_1y" transform="matrix(12,0,0,12,385.9,194.8)" />
<use xlink:href="#f1_1k" transform="matrix(12,0,0,12,400.2,194.8)" />
<use xlink:href="#f1_1p" transform="matrix(12,0,0,12,405.9,194.8)" />
<use xlink:href="#f1_1i" transform="matrix(12,0,0,12,417.1,194.8)" />
<use xlink:href="#f1_1v" transform="matrix(12,0,0,12,433.9,194.8)" />
<use xlink:href="#f1_1j" transform="matrix(12,0,0,12,441,194.8)" />
<use xlink:href="#f1_1g" transform="matrix(12,0,0,12,452.2,194.8)" />
<use xlink:href="#f1_1i" transform="matrix(12,0,0,12,468.3,194.8)" />
<use xlink:href="#f1_1g" transform="matrix(12,0,0,12,478.1,194.8)" />
<use xlink:href="#f1_1q" transform="matrix(12,0,0,12,487.3,194.8)" />
<use xlink:href="#f1_1o" transform="matrix(12,0,0,12,496.5,194.8)" />
<use xlink:href="#f1_1g" transform="matrix(12,0,0,12,512.8,194.8)" />
<use xlink:href="#f1_1v" transform="matrix(12,0,0,12,522,194.8)" />
<use xlink:href="#f1_1t" transform="matrix(12,0,0,12,529.2,194.8)" />
<use xlink:href="#f1_20" transform="matrix(12,0,0,12,537.3,194.8)" />
<use xlink:href="#f1_1q" transform="matrix(12,0,0,12,554.1,194.8)" />
<use xlink:href="#f1_1h" transform="matrix(12,0,0,12,563.2,194.8)" />
<use xlink:href="#f1_1h" transform="matrix(12,0,0,12,576.3,194.8)" />
<use xlink:href="#f1_1q" transform="matrix(12,0,0,12,582.4,194.8)" />
<use xlink:href="#f1_1t" transform="matrix(12,0,0,12,591.6,194.8)" />
<use xlink:href="#f1_1o" transform="matrix(12,0,0,12,599.7,194.8)" />
<use xlink:href="#f1_1c" transform="matrix(12,0,0,12,616,194.8)" />
<use xlink:href="#f1_1v" transform="matrix(12,0,0,12,626.2,194.8)" />
<use xlink:href="#f1_1k" transform="matrix(12,0,0,12,633.4,194.8)" />
<use xlink:href="#f1_1q" transform="matrix(12,0,0,12,639.2,194.8)" />
<use xlink:href="#f1_1p" transform="matrix(12,0,0,12,648.4,194.8)" />
<use xlink:href="#f1_1q" transform="matrix(12,0,0,12,666.4,194.8)" />
<use xlink:href="#f1_1h" transform="matrix(12,0,0,12,675.6,194.8)" />
<use xlink:href="#f1_1k" transform="matrix(12,0,0,12,688.6,194.8)" />
<use xlink:href="#f1_1o" transform="matrix(12,0,0,12,694.4,194.8)" />
<use xlink:href="#f1_1c" transform="matrix(12,0,0,12,710.8,194.8)" />
<use xlink:href="#f1_1i" transform="matrix(12,0,0,12,721,194.8)" />
<use xlink:href="#f1_1g" transform="matrix(12,0,0,12,730.8,194.8)" />
<use xlink:href="#f1_1q" transform="matrix(12,0,0,12,746.9,194.8)" />
<use xlink:href="#f1_1h" transform="matrix(12,0,0,12,756.1,194.8)" />
<use xlink:href="#f1_1c" transform="matrix(12,0,0,12,769.1,194.8)" />
<use xlink:href="#f1_1r" transform="matrix(12,0,0,12,173,216.8)" />
<use xlink:href="#f1_1q" transform="matrix(12,0,0,12,183.6,216.8)" />
<use xlink:href="#f1_1k" transform="matrix(12,0,0,12,192.8,216.8)" />
<use xlink:href="#f1_1p" transform="matrix(12,0,0,12,198.5,216.8)" />
<use xlink:href="#f1_1v" transform="matrix(12,0,0,12,209.7,216.8)" />
<use xlink:href="#f1_1q" transform="matrix(12,0,0,12,223.7,216.8)" />
<use xlink:href="#f1_1d" transform="matrix(12,0,0,12,232.9,216.8)" />
<use xlink:href="#f1_1l" transform="matrix(12,0,0,12,243.1,216.8)" />
<use xlink:href="#f1_1g" transform="matrix(12,0,0,12,248.5,216.8)" />
<use xlink:href="#f1_1e" transform="matrix(12,0,0,12,257.7,216.8)" />
<use xlink:href="#f1_1v" transform="matrix(12,0,0,12,265.8,216.8)" />
<use xlink:href="#f1_1u" transform="matrix(12,0,0,12,279.8,216.8)" />
<use xlink:href="#f1_1k" transform="matrix(12,0,0,12,288.3,216.8)" />
<use xlink:href="#f1_1v" transform="matrix(12,0,0,12,294.1,216.8)" />
<use xlink:href="#f1_1w" transform="matrix(12,0,0,12,301.3,216.8)" />
<use xlink:href="#f1_1c" transform="matrix(12,0,0,12,312.4,216.8)" />
<use xlink:href="#f1_1v" transform="matrix(12,0,0,12,322.6,216.8)" />
<use xlink:href="#f1_1g" transform="matrix(12,0,0,12,329.8,216.8)" />
<use xlink:href="#f1_1f" transform="matrix(12,0,0,12,339,216.8)" />
<use xlink:href="#f1_1q" transform="matrix(12,0,0,12,356.3,216.8)" />
<use xlink:href="#f1_1p" transform="matrix(12,0,0,12,365.5,216.8)" />
<use xlink:href="#f1_1v" transform="matrix(12,0,0,12,383.5,216.8)" />
<use xlink:href="#f1_1j" transform="matrix(12,0,0,12,390.6,216.8)" />
<use xlink:href="#f1_1g" transform="matrix(12,0,0,12,401.8,216.8)" />
<use xlink:href="#f1_1r" transform="matrix(12,0,0,12,417.8,216.8)" />
<use xlink:href="#f1_1t" transform="matrix(12,0,0,12,428.3,216.8)" />
<use xlink:href="#f1_1k" transform="matrix(12,0,0,12,436.4,216.8)" />
<use xlink:href="#f1_1p" transform="matrix(12,0,0,12,442.2,216.8)" />
<use xlink:href="#f1_1e" transform="matrix(12,0,0,12,453.4,216.8)" />
<use xlink:href="#f1_1k" transform="matrix(12,0,0,12,461.5,216.8)" />
<use xlink:href="#f1_1r" transform="matrix(12,0,0,12,467.3,216.8)" />
<use xlink:href="#f1_1c" transform="matrix(12,0,0,12,477.9,216.8)" />
<use xlink:href="#f1_1n" transform="matrix(12,0,0,12,488.1,216.8)" />
<use xlink:href="#f1_1c" transform="matrix(12,0,0,12,500.7,216.8)" />
<use xlink:href="#f1_1z" transform="matrix(12,0,0,12,510.9,216.8)" />
<use xlink:href="#f1_1k" transform="matrix(12,0,0,12,520.8,216.8)" />
<use xlink:href="#f1_1u" transform="matrix(12,0,0,12,526.5,216.8)" />
<use xlink:href="#f1_1c" transform="matrix(12,0,0,12,541.8,216.8)" />
<use xlink:href="#f1_1p" transform="matrix(12,0,0,12,552,216.8)" />
<use xlink:href="#f1_1f" transform="matrix(12,0,0,12,563.2,216.8)" />
<use xlink:href="#f1_1q" transform="matrix(12,0,0,12,580.5,216.8)" />
<use xlink:href="#f1_1p" transform="matrix(12,0,0,12,589.7,216.8)" />
<use xlink:href="#f1_1v" transform="matrix(12,0,0,12,607.7,216.8)" />
<use xlink:href="#f1_1j" transform="matrix(12,0,0,12,614.8,216.8)" />
<use xlink:href="#f1_1g" transform="matrix(12,0,0,12,626,216.8)" />
<use xlink:href="#f1_1e" transform="matrix(12,0,0,12,642,216.8)" />
<use xlink:href="#f1_1q" transform="matrix(12,0,0,12,650.1,216.8)" />
<use xlink:href="#f1_1p" transform="matrix(12,0,0,12,659.3,216.8)" />
<use xlink:href="#f1_1x" transform="matrix(12,0,0,12,670.4,216.8)" />
<use xlink:href="#f1_1g" transform="matrix(12,0,0,12,680.3,216.8)" />
<use xlink:href="#f1_1z" transform="matrix(12,0,0,12,689.5,216.8)" />
<use xlink:href="#f1_1u" transform="matrix(12,0,0,12,706.2,216.8)" />
<use xlink:href="#f1_1k" transform="matrix(12,0,0,12,714.6,216.8)" />
<use xlink:href="#f1_1f" transform="matrix(12,0,0,12,720.4,216.8)" />
<use xlink:href="#f1_1g" transform="matrix(12,0,0,12,731,216.8)" />
<use xlink:href="#f1_1q" transform="matrix(12,0,0,12,746.9,216.8)" />
<use xlink:href="#f1_1h" transform="matrix(12,0,0,12,756.1,216.8)" />
<use xlink:href="#f1_1c" transform="matrix(12,0,0,12,769.1,216.8)" />
<use xlink:href="#f1_1u" transform="matrix(12,0,0,12,173,238.8)" />
<use xlink:href="#f1_1r" transform="matrix(12,0,0,12,181.5,238.8)" />
<use xlink:href="#f1_1j" transform="matrix(12,0,0,12,192.1,238.8)" />
<use xlink:href="#f1_1g" transform="matrix(12,0,0,12,203.2,238.8)" />
<use xlink:href="#f1_1t" transform="matrix(12,0,0,12,212.4,238.8)" />
<use xlink:href="#f1_1k" transform="matrix(12,0,0,12,220.6,238.8)" />
<use xlink:href="#f1_1e" transform="matrix(12,0,0,12,226.3,238.8)" />
<use xlink:href="#f1_1c" transform="matrix(12,0,0,12,234.5,238.8)" />
<use xlink:href="#f1_1n" transform="matrix(12,0,0,12,244.7,238.8)" />
<use xlink:href="#f1_1u" transform="matrix(12,0,0,12,256.2,238.8)" />
<use xlink:href="#f1_1w" transform="matrix(12,0,0,12,264.7,238.8)" />
<use xlink:href="#f1_1t" transform="matrix(12,0,0,12,275.9,238.8)" />
<use xlink:href="#f1_1h" transform="matrix(12,0,0,12,284,238.8)" />
<use xlink:href="#f1_1c" transform="matrix(12,0,0,12,290.1,238.8)" />
<use xlink:href="#f1_1e" transform="matrix(12,0,0,12,300.4,238.8)" />
<use xlink:href="#f1_1g" transform="matrix(12,0,0,12,308.5,238.8)" />
<use xlink:href="#f1_1q" transform="matrix(12,0,0,12,323.4,238.8)" />
<use xlink:href="#f1_1h" transform="matrix(12,0,0,12,332.6,238.8)" />
<use xlink:href="#f1_1t" transform="matrix(12,0,0,12,344.4,238.8)" />
<use xlink:href="#f1_1c" transform="matrix(12,0,0,12,352.6,238.8)" />
<use xlink:href="#f1_1f" transform="matrix(12,0,0,12,362.8,238.8)" />
<use xlink:href="#f1_1k" transform="matrix(12,0,0,12,373.4,238.8)" />
<use xlink:href="#f1_1w" transform="matrix(12,0,0,12,379.2,238.8)" />
<use xlink:href="#f1_1u" transform="matrix(12,0,0,12,390.3,238.8)" />
<use xlink:href="#f1_1q" transform="matrix(12,0,0,12,404.5,238.8)" />
<use xlink:href="#f1_1h" transform="matrix(12,0,0,12,413.7,238.8)" />
<use xlink:href="#f1_1e" transform="matrix(12,0,0,12,425.6,238.8)" />
<use xlink:href="#f1_1w" transform="matrix(12,0,0,12,433.7,238.8)" />
<use xlink:href="#f1_1t" transform="matrix(12,0,0,12,444.9,238.8)" />
<use xlink:href="#f1_1x" transform="matrix(12,0,0,12,453,238.8)" />
<use xlink:href="#f1_1c" transform="matrix(12,0,0,12,462.9,238.8)" />
<use xlink:href="#f1_1v" transform="matrix(12,0,0,12,473.1,238.8)" />
<use xlink:href="#f1_1w" transform="matrix(12,0,0,12,480.3,238.8)" />
<use xlink:href="#f1_1t" transform="matrix(12,0,0,12,491.4,238.8)" />
<use xlink:href="#f1_1g" transform="matrix(12,0,0,12,499.6,238.8)" />
<use xlink:href="#f1_14" transform="matrix(12,0,0,12,514.5,238.8)" />
<use xlink:href="#f1_7" transform="matrix(12,0,0,12,527.7,238.8)" />
<use xlink:href="#f1_16" transform="matrix(12,0,0,12,544.3,238.8)" />
<use xlink:href="#f1_1c" transform="matrix(12,0,0,12,556.5,238.8)" />
<use xlink:href="#f1_1m" transform="matrix(12,0,0,12,566.7,238.8)" />
<use xlink:href="#f1_1k" transform="matrix(12,0,0,12,577.6,238.8)" />
<use xlink:href="#f1_1p" transform="matrix(12,0,0,12,583.4,238.8)" />
<use xlink:href="#f1_1i" transform="matrix(12,0,0,12,594.6,238.8)" />
<use xlink:href="#f1_1v" transform="matrix(12,0,0,12,610.2,238.8)" />
<use xlink:href="#f1_1j" transform="matrix(12,0,0,12,617.4,238.8)" />
<use xlink:href="#f1_1g" transform="matrix(12,0,0,12,628.5,238.8)" />
<use xlink:href="#f1_1t" transform="matrix(12,0,0,12,643.4,238.8)" />
<use xlink:href="#f1_1c" transform="matrix(12,0,0,12,651.6,238.8)" />
<use xlink:href="#f1_20" transform="matrix(12,0,0,12,661.8,238.8)" />
<use xlink:href="#f1_1u" transform="matrix(12,0,0,12,671.7,238.8)" />
<use xlink:href="#f1_1c" transform="matrix(12,0,0,12,685.9,238.8)" />
<use xlink:href="#f1_1u" transform="matrix(12,0,0,12,696.1,238.8)" />
<use xlink:href="#f1_1k" transform="matrix(12,0,0,12,710.3,238.8)" />
<use xlink:href="#f1_1p" transform="matrix(12,0,0,12,716.1,238.8)" />
<use xlink:href="#f1_1e" transform="matrix(12,0,0,12,727.3,238.8)" />
<use xlink:href="#f1_1k" transform="matrix(12,0,0,12,735.4,238.8)" />
<use xlink:href="#f1_1f" transform="matrix(12,0,0,12,741.2,238.8)" />
<use xlink:href="#f1_1g" transform="matrix(12,0,0,12,751.7,238.8)" />
<use xlink:href="#f1_1p" transform="matrix(12,0,0,12,760.9,238.8)" />
<use xlink:href="#f1_1v" transform="matrix(12,0,0,12,772.1,238.8)" />
<use xlink:href="#f1_1h" transform="matrix(12,0,0,12,173,260.8)" />
<use xlink:href="#f1_1t" transform="matrix(12,0,0,12,179.5,260.8)" />
<use xlink:href="#f1_1q" transform="matrix(12,0,0,12,187.9,260.8)" />
<use xlink:href="#f1_1o" transform="matrix(12,0,0,12,197.4,260.8)" />
<use xlink:href="#f1_1c" transform="matrix(12,0,0,12,222.1,260.8)" />
<use xlink:href="#f1_1t" transform="matrix(12,0,0,12,240.6,260.8)" />
<use xlink:href="#f1_1c" transform="matrix(12,0,0,12,249.1,260.8)" />
<use xlink:href="#f1_1t" transform="matrix(12,0,0,12,259.6,260.8)" />
<use xlink:href="#f1_1g" transform="matrix(12,0,0,12,268.1,260.8)" />
<use xlink:href="#f1_1t" transform="matrix(12,0,0,12,277.6,260.8)" />
<use xlink:href="#f1_1o" transform="matrix(12,0,0,12,294,260.8)" />
<use xlink:href="#f1_1g" transform="matrix(12,0,0,12,310.7,260.8)" />
<use xlink:href="#f1_1f" transform="matrix(12,0,0,12,320.2,260.8)" />
<use xlink:href="#f1_1k" transform="matrix(12,0,0,12,331.1,260.8)" />
<use xlink:href="#f1_1w" transform="matrix(12,0,0,12,337.2,260.8)" />
<use xlink:href="#f1_1o" transform="matrix(12,0,0,12,348.6,260.8)" />
<use xlink:href="#f1_1q" transform="matrix(12,0,0,12,373.3,260.8)" />
<use xlink:href="#f1_1h" transform="matrix(12,0,0,12,382.8,260.8)" />
<use xlink:href="#f1_1t" transform="matrix(12,0,0,12,397.2,260.8)" />
<use xlink:href="#f1_1g" transform="matrix(12,0,0,12,405.7,260.8)" />
<use xlink:href="#f1_1h" transform="matrix(12,0,0,12,415.2,260.8)" />
<use xlink:href="#f1_1t" transform="matrix(12,0,0,12,421.6,260.8)" />
<use xlink:href="#f1_1c" transform="matrix(12,0,0,12,430.1,260.8)" />
<use xlink:href="#f1_1e" transform="matrix(12,0,0,12,440.6,260.8)" />
<use xlink:href="#f1_1v" transform="matrix(12,0,0,12,449.1,260.8)" />
<use xlink:href="#f1_1k" transform="matrix(12,0,0,12,456.6,260.8)" />
<use xlink:href="#f1_1x" transform="matrix(12,0,0,12,462.7,260.8)" />
<use xlink:href="#f1_1g" transform="matrix(12,0,0,12,472.9,260.8)" />
<use xlink:href="#f1_1k" transform="matrix(12,0,0,12,490.3,260.8)" />
<use xlink:href="#f1_1p" transform="matrix(12,0,0,12,496.5,260.8)" />
<use xlink:href="#f1_1f" transform="matrix(12,0,0,12,507.9,260.8)" />
<use xlink:href="#f1_1g" transform="matrix(12,0,0,12,518.8,260.8)" />
<use xlink:href="#f1_1z" transform="matrix(12,0,0,12,528.3,260.8)" />
<use xlink:href="#f1_1p" transform="matrix(12,0,0,12,546.5,260.8)" />
<use xlink:href="#f2_4" transform="matrix(9.6,0,0,9.6,558,266.9)" />
<use xlink:href="#f1_1v" transform="matrix(12,0,0,12,574.3,260.8)" />
<use xlink:href="#f1_1q" transform="matrix(12,0,0,12,581.8,260.8)" />
<use xlink:href="#f1_1c" transform="matrix(12,0,0,12,599.3,260.8)" />
<use xlink:href="#f1_1f" transform="matrix(12,0,0,12,617.8,260.8)" />
<use xlink:href="#f1_1g" transform="matrix(12,0,0,12,628.7,260.8)" />
<use xlink:href="#f1_1p" transform="matrix(12,0,0,12,638.2,260.8)" />
<use xlink:href="#f1_1u" transform="matrix(12,0,0,12,649.7,260.8)" />
<use xlink:href="#f1_1g" transform="matrix(12,0,0,12,658.5,260.8)" />
<use xlink:href="#f1_1t" transform="matrix(12,0,0,12,668,260.8)" />
<use xlink:href="#f1_1o" transform="matrix(12,0,0,12,684.4,260.8)" />
<use xlink:href="#f1_1g" transform="matrix(12,0,0,12,701.1,260.8)" />
<use xlink:href="#f1_1f" transform="matrix(12,0,0,12,710.6,260.8)" />
<use xlink:href="#f1_1k" transform="matrix(12,0,0,12,721.4,260.8)" />
<use xlink:href="#f1_1w" transform="matrix(12,0,0,12,727.5,260.8)" />
<use xlink:href="#f1_1o" transform="matrix(12,0,0,12,739,260.8)" />
<use xlink:href="#f1_1q" transform="matrix(12,0,0,12,763.7,260.8)" />
<use xlink:href="#f1_1h" transform="matrix(12,0,0,12,773.2,260.8)" />
<use xlink:href="#f1_1t" transform="matrix(12,0,0,12,173,282.8)" />
<use xlink:href="#f1_1g" transform="matrix(12,0,0,12,181.2,282.8)" />
<use xlink:href="#f1_1h" transform="matrix(12,0,0,12,190.4,282.8)" />
<use xlink:href="#f1_1t" transform="matrix(12,0,0,12,196.5,282.8)" />
<use xlink:href="#f1_1c" transform="matrix(12,0,0,12,204.6,282.8)" />
<use xlink:href="#f1_1e" transform="matrix(12,0,0,12,214.8,282.8)" />
<use xlink:href="#f1_1v" transform="matrix(12,0,0,12,223,282.8)" />
<use xlink:href="#f1_1k" transform="matrix(12,0,0,12,230.2,282.8)" />
<use xlink:href="#f1_1x" transform="matrix(12,0,0,12,236,282.8)" />
<use xlink:href="#f1_1g" transform="matrix(12,0,0,12,245.8,282.8)" />
<use xlink:href="#f1_1k" transform="matrix(12,0,0,12,260.5,282.8)" />
<use xlink:href="#f1_1p" transform="matrix(12,0,0,12,266.2,282.8)" />
<use xlink:href="#f1_1f" transform="matrix(12,0,0,12,277.4,282.8)" />
<use xlink:href="#f1_1g" transform="matrix(12,0,0,12,288,282.8)" />
<use xlink:href="#f1_1z" transform="matrix(12,0,0,12,297.1,282.8)" />
<use xlink:href="#f1_1p" transform="matrix(12,0,0,12,312.5,282.8)" />
<use xlink:href="#f2_5" transform="matrix(9.6,0,0,9.6,323.7,288.9)" />
<use xlink:href="#f1_5" transform="matrix(12,0,0,12,331.9,282.8)" />
<use xlink:href="#f1_1f" transform="matrix(12,0,0,12,342.5,282.8)" />
<use xlink:href="#f1_1g" transform="matrix(12,0,0,12,353,282.8)" />
<use xlink:href="#f1_1t" transform="matrix(12,0,0,12,362.2,282.8)" />
<use xlink:href="#f1_1k" transform="matrix(12,0,0,12,370.3,282.8)" />
<use xlink:href="#f1_1x" transform="matrix(12,0,0,12,376.1,282.8)" />
<use xlink:href="#f1_1g" transform="matrix(12,0,0,12,386,282.8)" />
<use xlink:href="#f1_1v" transform="matrix(12,0,0,12,400.6,282.8)" />
<use xlink:href="#f1_1j" transform="matrix(12,0,0,12,407.8,282.8)" />
<use xlink:href="#f1_1g" transform="matrix(12,0,0,12,419,282.8)" />
<use xlink:href="#f1_1t" transform="matrix(12,0,0,12,433.6,282.8)" />
<use xlink:href="#f1_1g" transform="matrix(12,0,0,12,441.7,282.8)" />
<use xlink:href="#f1_1n" transform="matrix(12,0,0,12,450.9,282.8)" />
<use xlink:href="#f1_1c" transform="matrix(12,0,0,12,456.7,282.8)" />
<use xlink:href="#f1_1v" transform="matrix(12,0,0,12,466.9,282.8)" />
<use xlink:href="#f1_1k" transform="matrix(12,0,0,12,474.1,282.8)" />
<use xlink:href="#f1_1q" transform="matrix(12,0,0,12,479.9,282.8)" />
<use xlink:href="#f1_1p" transform="matrix(12,0,0,12,489.1,282.8)" />
<use xlink:href="#f1_7" transform="matrix(12,0,0,12,500.2,282.8)" />
</g>
<path d="M176.1,334.3h22.3m30.9,0h20.8m30.9,0h66.7" class="g0_117" />
<g fill="#000000" >
<use xlink:href="#f3_m" transform="matrix(9.1,0,0,9.1,188.4,332.1)" />
<use xlink:href="#f3_l" transform="matrix(9.1,0,0,9.1,240.3,332.1)" />
<use xlink:href="#f3_m" transform="matrix(9.1,0,0,9.1,293.3,332.1)" />
<use xlink:href="#f3_l" transform="matrix(9.1,0,0,9.1,337.8,332.1)" />
<use xlink:href="#f3_2a" transform="matrix(12.1,0,0,12.1,176.7,327)" />
<use xlink:href="#f3_2a" transform="matrix(12.1,0,0,12.1,229.9,327)" />
<use xlink:href="#f3_2a" transform="matrix(12.1,0,0,12.1,281.7,327)" />
<use xlink:href="#f3_2a" transform="matrix(12.1,0,0,12.1,327.4,327)" />
</g>
<g clip-path="url(#c0_117)">
<g fill="#000000" >
<use xlink:href="#f3_2i" transform="matrix(12.1,0,0,12.1,182.2,353.4)" />
<use xlink:href="#f3_2h" transform="matrix(12.1,0,0,12.1,234.1,353.4)" />
<use xlink:href="#f3_1i" transform="matrix(12.1,0,0,12.1,307.6,353.4)" />
<use xlink:href="#f4_2" transform="matrix(12.1,0,0,12.1,306.2,327)" />
<use xlink:href="#f4_2" transform="matrix(12.1,0,0,12.1,204.7,339)" />
<use xlink:href="#f4_3" transform="matrix(12.1,0,0,12.1,256.4,339)" />
</g>
</g>
<g fill="#000000" >
<use xlink:href="#f1_5" transform="matrix(12,0,0,12,351.8,336.7)" />
<use xlink:href="#f1_1y" transform="matrix(12,0,0,12,362.3,336.7)" />
<use xlink:href="#f1_1j" transform="matrix(12,0,0,12,376.6,336.7)" />
<use xlink:href="#f1_1g" transform="matrix(12,0,0,12,387.8,336.7)" />
<use xlink:href="#f1_1t" transform="matrix(12,0,0,12,397,336.7)" />
<use xlink:href="#f1_1g" transform="matrix(12,0,0,12,405.1,336.7)" />
<use xlink:href="#f1_1u" transform="matrix(12,0,0,12,419.7,336.7)" />
<use xlink:href="#f1_20" transform="matrix(12,0,0,12,428.2,336.7)" />
<use xlink:href="#f1_1o" transform="matrix(12,0,0,12,438.1,336.7)" />
<use xlink:href="#f1_1d" transform="matrix(12,0,0,12,454.4,336.7)" />
<use xlink:href="#f1_1q" transform="matrix(12,0,0,12,464.6,336.7)" />
<use xlink:href="#f1_1n" transform="matrix(12,0,0,12,473.8,336.7)" />
<use xlink:href="#f1_1u" transform="matrix(12,0,0,12,479.6,336.7)" />
<use xlink:href="#f1_1j" transform="matrix(12,0,0,12,493.5,336.7)" />
<use xlink:href="#f1_1c" transform="matrix(12,0,0,12,504.7,336.7)" />
<use xlink:href="#f1_1x" transform="matrix(12,0,0,12,514.9,336.7)" />
<use xlink:href="#f1_1g" transform="matrix(12,0,0,12,524.8,336.7)" />
<use xlink:href="#f1_1v" transform="matrix(12,0,0,12,539.4,336.7)" />
<use xlink:href="#f1_1j" transform="matrix(12,0,0,12,546.5,336.7)" />
<use xlink:href="#f1_1g" transform="matrix(12,0,0,12,557.7,336.7)" />
<use xlink:href="#f1_1k" transform="matrix(12,0,0,12,566.9,336.7)" />
<use xlink:href="#f1_1t" transform="matrix(12,0,0,12,572.7,336.7)" />
<use xlink:href="#f1_1w" transform="matrix(12,0,0,12,586.2,336.7)" />
<use xlink:href="#f1_1u" transform="matrix(12,0,0,12,597.4,336.7)" />
<use xlink:href="#f1_1w" transform="matrix(12,0,0,12,605.9,336.7)" />
<use xlink:href="#f1_1c" transform="matrix(12,0,0,12,617,336.7)" />
<use xlink:href="#f1_1n" transform="matrix(12,0,0,12,627.3,336.7)" />
<use xlink:href="#f1_1o" transform="matrix(12,0,0,12,638.5,336.7)" />
<use xlink:href="#f1_1g" transform="matrix(12,0,0,12,654.8,336.7)" />
<use xlink:href="#f1_1c" transform="matrix(12,0,0,12,664,336.7)" />
<use xlink:href="#f1_1p" transform="matrix(12,0,0,12,674.2,336.7)" />
<use xlink:href="#f1_1k" transform="matrix(12,0,0,12,685.4,336.7)" />
<use xlink:href="#f1_1p" transform="matrix(12,0,0,12,691.2,336.7)" />
<use xlink:href="#f1_1i" transform="matrix(12,0,0,12,702.3,336.7)" />
<use xlink:href="#f1_7" transform="matrix(12,0,0,12,712.2,336.7)" />
<use xlink:href="#f1_3" transform="matrix(12,0,0,12,129.7,390)" />
<use xlink:href="#f1_1k" transform="matrix(12,0,0,12,135.5,390)" />
<use xlink:href="#f1_1k" transform="matrix(12,0,0,12,140.9,390)" />
<use xlink:href="#f1_4" transform="matrix(12,0,0,12,146.3,390)" />
<use xlink:href="#f1_r" transform="matrix(12,0,0,12,172.8,390)" />
<use xlink:href="#f1_1z" transform="matrix(12,0,0,12,185.7,390)" />
<use xlink:href="#f1_1r" transform="matrix(12,0,0,12,195.2,390)" />
<use xlink:href="#f1_1n" transform="matrix(12,0,0,12,205.4,390)" />
<use xlink:href="#f1_1c" transform="matrix(12,0,0,12,210.9,390)" />
<use xlink:href="#f1_1k" transform="matrix(12,0,0,12,220.7,390)" />
<use xlink:href="#f1_1p" transform="matrix(12,0,0,12,226.1,390)" />
<use xlink:href="#f1_1d" transform="matrix(12,0,0,12,241.7,390)" />
<use xlink:href="#f1_1t" transform="matrix(12,0,0,12,251.5,390)" />
<use xlink:href="#f1_1k" transform="matrix(12,0,0,12,259.3,390)" />
<use xlink:href="#f1_1g" transform="matrix(12,0,0,12,264.7,390)" />
<use xlink:href="#f1_1h" transform="matrix(12,0,0,12,273.5,390)" />
<use xlink:href="#f1_1n" transform="matrix(12,0,0,12,279.3,390)" />
<use xlink:href="#f1_20" transform="matrix(12,0,0,12,284.7,390)" />
<use xlink:href="#f1_1j" transform="matrix(12,0,0,12,299,390)" />
<use xlink:href="#f1_1q" transform="matrix(12,0,0,12,309.8,390)" />
<use xlink:href="#f1_1y" transform="matrix(12,0,0,12,318.6,390)" />
<use xlink:href="#f1_1v" transform="matrix(12,0,0,12,337.3,390)" />
<use xlink:href="#f1_1j" transform="matrix(12,0,0,12,344.1,390)" />
<use xlink:href="#f1_1g" transform="matrix(12,0,0,12,354.9,390)" />
<use xlink:href="#f1_1h" transform="matrix(12,0,0,12,368.4,390)" />
<use xlink:href="#f1_1q" transform="matrix(12,0,0,12,374.2,390)" />
<use xlink:href="#f1_1e" transform="matrix(12,0,0,12,383,390)" />
<use xlink:href="#f1_1c" transform="matrix(12,0,0,12,390.8,390)" />
<use xlink:href="#f1_1n" transform="matrix(12,0,0,12,400.7,390)" />
<use xlink:href="#f1_1n" transform="matrix(12,0,0,12,410.8,390)" />
<use xlink:href="#f1_1g" transform="matrix(12,0,0,12,416.2,390)" />
<use xlink:href="#f1_1p" transform="matrix(12,0,0,12,425.1,390)" />
<use xlink:href="#f1_1i" transform="matrix(12,0,0,12,435.9,390)" />
<use xlink:href="#f1_1v" transform="matrix(12,0,0,12,445.4,390)" />
<use xlink:href="#f1_1j" transform="matrix(12,0,0,12,452.2,390)" />
<use xlink:href="#f1_1q" transform="matrix(12,0,0,12,467.7,390)" />
<use xlink:href="#f1_1h" transform="matrix(12,0,0,12,476.5,390)" />
<use xlink:href="#f1_1c" transform="matrix(12,0,0,12,487.1,390)" />
<use xlink:href="#f1_1e" transform="matrix(12,0,0,12,501.7,390)" />
<use xlink:href="#f1_1q" transform="matrix(12,0,0,12,509.4,390)" />
<use xlink:href="#f1_1p" transform="matrix(12,0,0,12,518.2,390)" />
<use xlink:href="#f1_1x" transform="matrix(12,0,0,12,529,390)" />
<use xlink:href="#f1_1g" transform="matrix(12,0,0,12,538.5,390)" />
<use xlink:href="#f1_1z" transform="matrix(12,0,0,12,547.4,390)" />
<use xlink:href="#f1_1n" transform="matrix(12,0,0,12,561.6,390)" />
<use xlink:href="#f1_1g" transform="matrix(12,0,0,12,567,390)" />
<use xlink:href="#f1_1p" transform="matrix(12,0,0,12,575.9,390)" />
<use xlink:href="#f1_1u" transform="matrix(12,0,0,12,586.7,390)" />
<use xlink:href="#f1_1e" transform="matrix(12,0,0,12,599.5,390)" />
<use xlink:href="#f1_1j" transform="matrix(12,0,0,12,607.3,390)" />
<use xlink:href="#f1_1c" transform="matrix(12,0,0,12,618.1,390)" />
<use xlink:href="#f1_1p" transform="matrix(12,0,0,12,627.9,390)" />
<use xlink:href="#f1_1i" transform="matrix(12,0,0,12,638.7,390)" />
<use xlink:href="#f1_1g" transform="matrix(12,0,0,12,648.2,390)" />
<use xlink:href="#f1_1u" transform="matrix(12,0,0,12,657.1,390)" />
<use xlink:href="#f1_1y" transform="matrix(12,0,0,12,669.9,390)" />
<use xlink:href="#f1_1k" transform="matrix(12,0,0,12,683.9,390)" />
<use xlink:href="#f1_1v" transform="matrix(12,0,0,12,689.3,390)" />
<use xlink:href="#f1_1j" transform="matrix(12,0,0,12,696.1,390)" />
<use xlink:href="#f1_1k" transform="matrix(12,0,0,12,711.6,390)" />
<use xlink:href="#f1_1p" transform="matrix(12,0,0,12,717.1,390)" />
<use xlink:href="#f1_1e" transform="matrix(12,0,0,12,727.8,390)" />
<use xlink:href="#f1_1t" transform="matrix(12,0,0,12,735.6,390)" />
<use xlink:href="#f1_1g" transform="matrix(12,0,0,12,743.4,390)" />
<use xlink:href="#f1_1c" transform="matrix(12,0,0,12,752.2,390)" />
<use xlink:href="#f1_1u" transform="matrix(12,0,0,12,762.1,390)" />
<use xlink:href="#f1_1g" transform="matrix(12,0,0,12,770.2,390)" />
<use xlink:href="#f1_1k" transform="matrix(12,0,0,12,173,412)" />
<use xlink:href="#f1_1p" transform="matrix(12,0,0,12,178.8,412)" />
<use xlink:href="#f1_1y" transform="matrix(12,0,0,12,195.4,412)" />
<use xlink:href="#f1_1c" transform="matrix(12,0,0,12,209.7,412)" />
<use xlink:href="#f1_1x" transform="matrix(12,0,0,12,219.9,412)" />
<use xlink:href="#f1_1g" transform="matrix(12,0,0,12,229.8,412)" />
<use xlink:href="#f1_1n" transform="matrix(12,0,0,12,239,412)" />
<use xlink:href="#f1_1g" transform="matrix(12,0,0,12,244.8,412)" />
<use xlink:href="#f1_1p" transform="matrix(12,0,0,12,254,412)" />
<use xlink:href="#f1_1i" transform="matrix(12,0,0,12,265.1,412)" />
<use xlink:href="#f1_1v" transform="matrix(12,0,0,12,275,412)" />
<use xlink:href="#f1_1j" transform="matrix(12,0,0,12,282.2,412)" />
<use xlink:href="#f1_1q" transform="matrix(12,0,0,12,298.8,412)" />
<use xlink:href="#f1_1h" transform="matrix(12,0,0,12,307.9,412)" />
<use xlink:href="#f1_1k" transform="matrix(12,0,0,12,319.5,412)" />
<use xlink:href="#f1_1p" transform="matrix(12,0,0,12,325.3,412)" />
<use xlink:href="#f1_1e" transform="matrix(12,0,0,12,336.4,412)" />
<use xlink:href="#f1_1k" transform="matrix(12,0,0,12,344.6,412)" />
<use xlink:href="#f1_1f" transform="matrix(12,0,0,12,350.4,412)" />
<use xlink:href="#f1_1g" transform="matrix(12,0,0,12,360.9,412)" />
<use xlink:href="#f1_1p" transform="matrix(12,0,0,12,370.1,412)" />
<use xlink:href="#f1_1v" transform="matrix(12,0,0,12,381.3,412)" />
<use xlink:href="#f1_1n" transform="matrix(12,0,0,12,393.9,412)" />
<use xlink:href="#f1_1k" transform="matrix(12,0,0,12,399.7,412)" />
<use xlink:href="#f1_1i" transform="matrix(12,0,0,12,405.5,412)" />
<use xlink:href="#f1_1j" transform="matrix(12,0,0,12,415.3,412)" />
<use xlink:href="#f1_1v" transform="matrix(12,0,0,12,426.5,412)" />
<use xlink:href="#f1_7" transform="matrix(12,0,0,12,433.7,412)" />
<use xlink:href="#f1_3" transform="matrix(12,0,0,12,129.7,447)" />
<use xlink:href="#f1_1k" transform="matrix(12,0,0,12,135.6,447)" />
<use xlink:href="#f1_1k" transform="matrix(12,0,0,12,141.1,447)" />
<use xlink:href="#f1_1k" transform="matrix(12,0,0,12,146.7,447)" />
<use xlink:href="#f1_4" transform="matrix(12,0,0,12,152.2,447)" />
<use xlink:href="#f1_19" transform="matrix(12,0,0,12,173,447)" />
<use xlink:href="#f1_1j" transform="matrix(12,0,0,12,191.1,447)" />
<use xlink:href="#f1_1c" transform="matrix(12,0,0,12,202.2,447)" />
<use xlink:href="#f1_1v" transform="matrix(12,0,0,12,212.4,447)" />
<use xlink:href="#f1_1j" transform="matrix(12,0,0,12,224.9,447)" />
<use xlink:href="#f1_1c" transform="matrix(12,0,0,12,236.1,447)" />
<use xlink:href="#f1_1r" transform="matrix(12,0,0,12,246.3,447)" />
<use xlink:href="#f1_1r" transform="matrix(12,0,0,12,256.9,447)" />
<use xlink:href="#f1_1g" transform="matrix(12,0,0,12,267.4,447)" />
<use xlink:href="#f1_1p" transform="matrix(12,0,0,12,276.6,447)" />
<use xlink:href="#f1_1u" transform="matrix(12,0,0,12,287.8,447)" />
<use xlink:href="#f1_1v" transform="matrix(12,0,0,12,301.6,447)" />
<use xlink:href="#f1_1q" transform="matrix(12,0,0,12,308.8,447)" />
<use xlink:href="#f1_1v" transform="matrix(12,0,0,12,323.3,447)" />
<use xlink:href="#f1_1j" transform="matrix(12,0,0,12,330.5,447)" />
<use xlink:href="#f1_1g" transform="matrix(12,0,0,12,341.6,447)" />
<use xlink:href="#f1_1h" transform="matrix(12,0,0,12,356.1,447)" />
<use xlink:href="#f1_1q" transform="matrix(12,0,0,12,362.3,447)" />
<use xlink:href="#f1_1e" transform="matrix(12,0,0,12,371.4,447)" />
<use xlink:href="#f1_1c" transform="matrix(12,0,0,12,379.6,447)" />
<use xlink:href="#f1_1n" transform="matrix(12,0,0,12,389.8,447)" />
<use xlink:href="#f1_1n" transform="matrix(12,0,0,12,400.9,447)" />
<use xlink:href="#f1_1g" transform="matrix(12,0,0,12,406.7,447)" />
<use xlink:href="#f1_1p" transform="matrix(12,0,0,12,415.9,447)" />
<use xlink:href="#f1_1i" transform="matrix(12,0,0,12,427,447)" />
<use xlink:href="#f1_1v" transform="matrix(12,0,0,12,436.9,447)" />
<use xlink:href="#f1_1j" transform="matrix(12,0,0,12,444.1,447)" />
<use xlink:href="#f1_1q" transform="matrix(12,0,0,12,460.6,447)" />
<use xlink:href="#f1_1h" transform="matrix(12,0,0,12,469.8,447)" />
<use xlink:href="#f1_1e" transform="matrix(12,0,0,12,481.2,447)" />
<use xlink:href="#f1_1q" transform="matrix(12,0,0,12,489.4,447)" />
<use xlink:href="#f1_1p" transform="matrix(12,0,0,12,498.6,447)" />
<use xlink:href="#f1_1x" transform="matrix(12,0,0,12,509.7,447)" />
<use xlink:href="#f1_1g" transform="matrix(12,0,0,12,519.6,447)" />
<use xlink:href="#f1_1z" transform="matrix(12,0,0,12,528.8,447)" />
<use xlink:href="#f1_1n" transform="matrix(12,0,0,12,544,447)" />
<use xlink:href="#f1_1g" transform="matrix(12,0,0,12,549.8,447)" />
<use xlink:href="#f1_1p" transform="matrix(12,0,0,12,558.9,447)" />
<use xlink:href="#f1_1u" transform="matrix(12,0,0,12,570.1,447)" />
<use xlink:href="#f1_1y" transform="matrix(12,0,0,12,583.9,447)" />
<use xlink:href="#f1_1j" transform="matrix(12,0,0,12,598.2,447)" />
<use xlink:href="#f1_1g" transform="matrix(12,0,0,12,609.4,447)" />
<use xlink:href="#f1_1p" transform="matrix(12,0,0,12,618.5,447)" />
<use xlink:href="#f1_1k" transform="matrix(12,0,0,12,635,447)" />
<use xlink:href="#f1_1v" transform="matrix(12,0,0,12,640.8,447)" />
<use xlink:href="#f1_1k" transform="matrix(12,0,0,12,653.3,447)" />
<use xlink:href="#f1_1u" transform="matrix(12,0,0,12,659.1,447)" />
<use xlink:href="#f1_1k" transform="matrix(12,0,0,12,672.9,447)" />
<use xlink:href="#f1_1o" transform="matrix(12,0,0,12,678.7,447)" />
<use xlink:href="#f1_1o" transform="matrix(12,0,0,12,695.1,447)" />
<use xlink:href="#f1_1g" transform="matrix(12,0,0,12,711.5,447)" />
<use xlink:href="#f1_1t" transform="matrix(12,0,0,12,720.6,447)" />
<use xlink:href="#f1_1u" transform="matrix(12,0,0,12,728.8,447)" />
<use xlink:href="#f1_1g" transform="matrix(12,0,0,12,737.2,447)" />
<use xlink:href="#f1_1f" transform="matrix(12,0,0,12,746.4,447)" />
<use xlink:href="#f1_1k" transform="matrix(12,0,0,12,762.3,447)" />
<use xlink:href="#f1_1p" transform="matrix(12,0,0,12,768.1,447)" />
<use xlink:href="#f1_1y" transform="matrix(12,0,0,12,173,469)" />
<use xlink:href="#f1_1c" transform="matrix(12,0,0,12,187.3,469)" />
<use xlink:href="#f1_1v" transform="matrix(12,0,0,12,197.5,469)" />
<use xlink:href="#f1_1g" transform="matrix(12,0,0,12,204.7,469)" />
<use xlink:href="#f1_1t" transform="matrix(12,0,0,12,213.9,469)" />
<use xlink:href="#f1_m" transform="matrix(12,0,0,12,228,469)" />
<use xlink:href="#f1_14" transform="matrix(12,0,0,12,248,469)" />
<use xlink:href="#f1_1g" transform="matrix(12,0,0,12,261.2,469)" />
<use xlink:href="#f1_1h" transform="matrix(12,0,0,12,270.4,469)" />
<use xlink:href="#f1_1t" transform="matrix(12,0,0,12,276.5,469)" />
<use xlink:href="#f1_1c" transform="matrix(12,0,0,12,284.7,469)" />
<use xlink:href="#f1_1e" transform="matrix(12,0,0,12,294.9,469)" />
<use xlink:href="#f1_1v" transform="matrix(12,0,0,12,303,469)" />
<use xlink:href="#f1_1k" transform="matrix(12,0,0,12,310.2,469)" />
<use xlink:href="#f1_1x" transform="matrix(12,0,0,12,316,469)" />
<use xlink:href="#f1_1g" transform="matrix(12,0,0,12,325.8,469)" />
<use xlink:href="#f1_1k" transform="matrix(12,0,0,12,340.9,469)" />
<use xlink:href="#f1_1p" transform="matrix(12,0,0,12,346.7,469)" />
<use xlink:href="#f1_1f" transform="matrix(12,0,0,12,357.9,469)" />
<use xlink:href="#f1_1g" transform="matrix(12,0,0,12,368.4,469)" />
<use xlink:href="#f1_1z" transform="matrix(12,0,0,12,377.6,469)" />
<use xlink:href="#f1_1q" transform="matrix(12,0,0,12,393.4,469)" />
<use xlink:href="#f1_1h" transform="matrix(12,0,0,12,402.6,469)" />
<use xlink:href="#f1_1v" transform="matrix(12,0,0,12,414.7,469)" />
<use xlink:href="#f1_1j" transform="matrix(12,0,0,12,421.8,469)" />
<use xlink:href="#f1_1g" transform="matrix(12,0,0,12,433,469)" />
<use xlink:href="#f1_1o" transform="matrix(12,0,0,12,448.1,469)" />
<use xlink:href="#f1_1c" transform="matrix(12,0,0,12,464.5,469)" />
<use xlink:href="#f1_1v" transform="matrix(12,0,0,12,474.7,469)" />
<use xlink:href="#f1_1g" transform="matrix(12,0,0,12,481.9,469)" />
<use xlink:href="#f1_1t" transform="matrix(12,0,0,12,491,469)" />
<use xlink:href="#f1_1k" transform="matrix(12,0,0,12,499.2,469)" />
<use xlink:href="#f1_1c" transform="matrix(12,0,0,12,504.9,469)" />
<use xlink:href="#f1_1n" transform="matrix(12,0,0,12,515.2,469)" />
<use xlink:href="#f1_1q" transform="matrix(12,0,0,12,526.9,469)" />
<use xlink:href="#f1_1h" transform="matrix(12,0,0,12,536.1,469)" />
<use xlink:href="#f1_1n" transform="matrix(12,0,0,12,548.1,469)" />
<use xlink:href="#f1_1g" transform="matrix(12,0,0,12,553.9,469)" />
<use xlink:href="#f1_1p" transform="matrix(12,0,0,12,563.1,469)" />
<use xlink:href="#f1_1u" transform="matrix(12,0,0,12,574.2,469)" />
<use xlink:href="#f1_1k" transform="matrix(12,0,0,12,588.7,469)" />
<use xlink:href="#f1_1u" transform="matrix(12,0,0,12,594.5,469)" />
<use xlink:href="#f1_1i" transform="matrix(12,0,0,12,608.9,469)" />
<use xlink:href="#f1_1t" transform="matrix(12,0,0,12,618.7,469)" />
<use xlink:href="#f1_1g" transform="matrix(12,0,0,12,626.9,469)" />
<use xlink:href="#f1_1c" transform="matrix(12,0,0,12,636,469)" />
<use xlink:href="#f1_1v" transform="matrix(12,0,0,12,646.3,469)" />
<use xlink:href="#f1_1g" transform="matrix(12,0,0,12,653.4,469)" />
<use xlink:href="#f1_1t" transform="matrix(12,0,0,12,662.6,469)" />
<use xlink:href="#f1_1v" transform="matrix(12,0,0,12,676.7,469)" />
<use xlink:href="#f1_1j" transform="matrix(12,0,0,12,683.9,469)" />
<use xlink:href="#f1_1c" transform="matrix(12,0,0,12,695,469)" />
<use xlink:href="#f1_1p" transform="matrix(12,0,0,12,705.2,469)" />
<use xlink:href="#f1_1v" transform="matrix(12,0,0,12,722.3,469)" />
<use xlink:href="#f1_1j" transform="matrix(12,0,0,12,729.5,469)" />
<use xlink:href="#f1_1c" transform="matrix(12,0,0,12,740.7,469)" />
<use xlink:href="#f1_1v" transform="matrix(12,0,0,12,750.9,469)" />
<use xlink:href="#f1_1q" transform="matrix(12,0,0,12,764,469)" />
<use xlink:href="#f1_1h" transform="matrix(12,0,0,12,773.2,469)" />
<use xlink:href="#f1_1y" transform="matrix(12,0,0,12,173,491)" />
<use xlink:href="#f1_1c" transform="matrix(12,0,0,12,186.8,491)" />
<use xlink:href="#f1_1v" transform="matrix(12,0,0,12,196.5,491)" />
<use xlink:href="#f1_1g" transform="matrix(12,0,0,12,203.2,491)" />
<use xlink:href="#f1_1t" transform="matrix(12,0,0,12,211.8,491)" />
<use xlink:href="#f1_7" transform="matrix(12,0,0,12,219.5,491)" />
</g>
<defs>
<path d="M354,0V148H581c3,0,6,0,9,0c52,0,91,12,113,35c24,25,36,66,36,124V1688c0,31,-9,57,-30,74c-20,16,-49,26,-90,27H296v148c161,9,295,28,404,58c110,29,221,74,334,133h119V261c0,-36,10,-65,31,-85c18,-19,45,-28,77,-28c2,0,5,0,7,0h284V0Z" 
id="f0_7"
transform="scale(4.8828125E-4,-4.8828125E-4)" />

<path d="M932,89c2,0,3,0,5,0c1,0,2,0,4,0c77,0,142,39,193,119c53,79,78,217,78,408c0,185,-23,313,-72,385c-48,70,-112,107,-190,108C874,1108,805,1065,743,982C681,897,651,778,651,622c0,-179,33,-321,98,-423C795,127,856,89,932,89Zm9,-148C717,-59,538,21,406,183C254,373,177,633,177,963c0,372,93,675,278,904c165,203,368,306,611,306c156,0,280,-40,375,-117c94,-78,140,-166,140,-267c0,-75,-21,-136,-67,-182c-44,-47,-101,-70,-168,-70c-60,0,-108,18,-148,60c-40,39,-60,90,-60,151c0,44,14,87,37,131c15,25,23,46,23,63c0,23,-11,43,-34,59c-23,16,-55,23,-101,25C932,2024,834,1954,768,1813C686,1639,648,1403,651,1100c66,72,136,125,208,160c71,36,146,55,224,55c148,0,280,-53,397,-157c118,-104,176,-260,176,-467c0,-227,-66,-408,-198,-544C1326,8,1153,-59,941,-59Z" 
id="f0_c"
transform="scale(4.8828125E-4,-4.8828125E-4)" />

<path d="M798,-59C611,-59,460,-10,347,87C235,183,177,303,177,440c0,92,25,163,75,218c49,54,110,80,185,81c67,-1,121,-22,163,-65c45,-41,65,-93,65,-155c0,-44,-10,-84,-29,-114C616,371,578,341,521,310C480,286,458,263,458,241c0,-35,22,-67,66,-93C586,108,659,89,742,89c3,0,7,0,10,0c1,0,3,0,5,0c106,0,191,47,254,137c66,92,98,249,98,474c0,188,-30,325,-93,411c-61,87,-141,130,-237,131c-44,-1,-91,-11,-143,-27c-52,-17,-107,-43,-167,-77c0,-81,-11,-134,-31,-163C420,947,394,932,359,932c-1,0,-3,0,-5,0c-2,0,-5,0,-7,0c-29,0,-51,7,-67,23c-19,17,-28,38,-28,64c0,38,29,98,89,177l73,977c217,-48,411,-74,584,-74c5,0,10,0,15,0c7,0,13,0,20,0c127,0,233,14,318,41c35,11,56,17,62,19c14,-2,22,-12,22,-31c0,-69,-26,-140,-78,-215c-52,-77,-119,-133,-204,-171c-79,-37,-179,-57,-301,-57c-4,0,-9,0,-13,0c-6,0,-12,0,-19,0c-91,0,-194,11,-307,31L481,1303c77,34,147,58,214,75c66,17,128,26,187,26c192,0,359,-66,495,-194c137,-130,204,-302,204,-516c0,-223,-70,-405,-215,-544C1222,9,1033,-59,798,-59Z" 
id="f0_b"
transform="scale(4.8828125E-4,-4.8828125E-4)" />

<path d="M-51,0L631,2261H924L241,0Z" 
id="f0_5"
transform="scale(4.8828125E-4,-4.8828125E-4)" />

<path d="M1077,-59C840,-59,625,23,431,191L252,-28H148V798H281C412,325,680,89,1082,89c2,0,3,0,4,0c3,0,7,0,10,0c162,0,287,38,378,114c92,77,138,173,138,289c0,79,-20,147,-61,203c-40,54,-103,98,-187,133c-47,17,-162,46,-343,87C775,969,597,1027,490,1086c-108,58,-187,130,-236,217c-51,84,-77,190,-77,313c0,208,71,376,210,508c140,131,328,195,563,197c226,-2,433,-78,621,-233l143,204h89l15,-784H1685c-70,220,-172,386,-304,498c-131,110,-276,167,-435,167c-135,0,-246,-39,-330,-114C530,1983,487,1894,487,1791c0,-63,17,-121,51,-173c33,-50,85,-95,159,-131c73,-37,201,-77,386,-117c217,-48,367,-90,451,-125c134,-59,235,-139,302,-234c68,-97,101,-215,101,-351c0,-209,-73,-374,-217,-497C1546,14,1332,-59,1077,-59Z" 
id="f0_q"
transform="scale(4.8828125E-4,-4.8828125E-4)" />

<path d="M1296,89c3,0,6,0,9,0c1,0,3,0,5,0c185,0,333,79,444,235c113,157,168,432,168,825c0,272,-24,477,-72,614c-49,138,-121,240,-215,309c-95,65,-207,101,-332,101c-124,0,-232,-36,-324,-101C888,2003,814,1894,761,1745C707,1593,680,1389,680,1128c0,-275,24,-485,75,-624C805,361,877,257,972,189C1066,122,1173,89,1296,89Zm-2,-148C1077,-59,880,-7,707,95C535,199,397,338,298,515C197,691,148,894,148,1128c0,345,110,629,329,855c220,225,492,336,814,338c214,-2,411,-52,591,-156c181,-104,321,-246,422,-425c101,-179,150,-380,150,-605C2454,793,2344,509,2122,281C1899,53,1624,-59,1294,-59Z" 
id="f0_n"
transform="scale(4.8828125E-4,-4.8828125E-4)" />

<path d="M1158,1242c164,0,294,43,388,128c73,65,110,175,110,330c0,143,-35,248,-107,314c-73,65,-197,99,-374,100c-93,-1,-154,-12,-177,-32c-25,-21,-37,-67,-37,-139V1242h188c3,0,6,0,9,0ZM1957,-14c-95,0,-173,17,-231,57c-56,40,-100,98,-131,174c-18,43,-43,144,-76,306c-37,187,-71,314,-101,378c-29,66,-67,113,-116,146c-48,30,-106,45,-176,47H961V269c0,-37,11,-64,32,-83c28,-24,61,-38,98,-38c2,0,4,0,6,0h205V0H177V148H351c3,0,5,0,8,0c41,0,73,12,95,35c23,23,33,57,33,100V1978c0,46,-9,80,-30,103c-22,21,-52,32,-90,33H177v147H1341c190,0,344,-26,463,-75c119,-49,208,-116,266,-201c60,-86,89,-179,89,-283c0,-168,-75,-303,-223,-403c-112,-80,-286,-132,-520,-153c121,-20,216,-52,281,-95c66,-43,124,-107,175,-189c61,-110,110,-242,146,-393c25,-99,46,-160,64,-183c19,-23,40,-35,63,-35c66,0,104,88,116,267h135C2385,325,2344,189,2269,108C2195,24,2092,-14,1957,-14Z" 
id="f0_p"
transform="scale(4.8828125E-4,-4.8828125E-4)" />

<path d="M993,-606C830,-460,706,-338,622,-236C486,-72,382,99,312,280C241,461,206,651,206,848c0,194,34,377,100,553c65,174,163,342,290,501c88,109,221,243,397,403l41,-84C886,2067,776,1930,704,1806C634,1681,581,1540,544,1383C506,1225,487,1043,487,839c0,-200,20,-378,58,-532C585,151,642,8,715,-118c73,-130,179,-266,319,-408l-41,-80Z" 
id="f1_3"
transform="scale(4.8828125E-4,-4.8828125E-4)" />

<path d="M89,0V118H248c47,0,80,9,103,32c22,20,34,52,34,93v875c0,54,-17,97,-49,124c-33,28,-81,43,-145,44H73v118l578,31V218c0,-33,9,-58,26,-70c26,-21,56,-30,95,-30H946V0ZM474,1922c-43,0,-81,17,-113,47c-33,31,-51,71,-51,115c0,41,18,79,52,113c34,32,73,49,118,50c46,-1,85,-18,119,-50c35,-34,52,-72,52,-116c0,-44,-17,-81,-51,-112c-32,-30,-70,-47,-114,-47c-2,0,-4,0,-6,0c-2,0,-4,0,-6,0Z" 
id="f1_1k"
transform="scale(4.8828125E-4,-4.8828125E-4)" />

<path d="M70,-606l-41,80c141,142,246,278,321,406C423,8,480,151,518,307c40,154,58,332,58,530c0,206,-18,388,-55,546c-38,157,-93,298,-165,423C287,1930,177,2069,29,2221l41,84C249,2143,379,2012,461,1913C590,1754,689,1586,756,1409C823,1230,857,1043,857,848C857,654,825,471,759,301C695,128,597,-39,466,-204C373,-320,241,-454,70,-606Z" 
id="f1_4"
transform="scale(4.8828125E-4,-4.8828125E-4)" />

<path d="M1143,118c172,0,322,44,452,133c84,58,148,140,193,249c61,142,90,342,90,597c0,374,-66,649,-197,825c-112,147,-282,220,-508,221H918c-46,-1,-79,-10,-101,-29c-23,-21,-33,-48,-33,-87V229c0,-36,12,-64,38,-82c26,-20,67,-29,128,-29ZM104,0V118H315c53,0,91,7,111,26c22,16,32,44,32,81V2040c0,30,-10,56,-33,74c-22,19,-54,28,-93,29H104v118H1274c174,0,321,-30,443,-92c151,-77,280,-207,385,-386c107,-182,159,-396,159,-642c0,-204,-30,-388,-95,-550C2119,466,2044,356,1945,263C1846,168,1723,98,1581,52C1474,17,1331,0,1152,0Z" 
id="f1_q"
transform="scale(4.8828125E-4,-4.8828125E-4)" />

<path d="M104,0V118H241c48,0,83,9,107,27c25,18,37,41,37,69v903c0,67,-14,117,-43,150c-27,32,-67,48,-120,48H104v120l503,29V889c55,193,120,339,197,440c78,98,172,148,287,150c76,-2,139,-26,185,-73c46,-49,70,-115,70,-194c0,-66,-15,-117,-46,-153c-29,-36,-66,-54,-111,-54c-1,0,-3,0,-5,0c-2,0,-4,0,-5,0c-42,0,-76,17,-102,46c-29,31,-43,73,-43,127c0,34,6,66,16,98c10,24,15,41,15,47c0,15,-9,21,-28,23c-39,-2,-85,-26,-137,-73C830,1202,776,1108,738,987C680,799,651,649,651,536V226c0,-35,12,-63,38,-81c26,-18,67,-27,128,-27h188V0Z" 
id="f1_1t"
transform="scale(4.8828125E-4,-4.8828125E-4)" />

<path d="M652,60c2,0,4,0,6,0c2,0,4,0,6,0c119,0,224,45,311,137c90,92,134,208,134,348V753C846,717,660,658,550,576C469,513,429,426,429,313c0,-81,22,-143,63,-188C533,82,586,60,652,60ZM597,-43C451,-43,339,-13,263,49C186,112,148,193,148,292c0,148,87,270,263,368c174,98,408,163,698,197v226c0,80,-30,147,-93,205c-61,56,-139,85,-234,87c-87,-2,-163,-20,-227,-58c-45,-29,-68,-57,-68,-83c0,-16,13,-41,34,-74c27,-43,41,-81,41,-112c0,-49,-15,-87,-44,-116C489,903,453,888,407,888c-2,0,-4,0,-7,0c-2,0,-4,0,-6,0c-48,0,-88,16,-121,50c-33,35,-51,80,-51,135c0,100,58,192,172,278c115,84,264,126,451,128c173,-2,304,-40,394,-113c90,-77,136,-168,136,-275V295c0,-72,11,-124,32,-156c22,-34,48,-50,81,-50c2,0,3,0,5,0c1,0,3,0,5,0c38,0,78,15,118,44l54,-76C1595,-10,1513,-43,1421,-43c-70,0,-130,16,-177,51c-48,35,-91,99,-126,189C1022,99,937,35,863,3C788,-28,701,-43,597,-43Z" 
id="f1_1c"
transform="scale(4.8828125E-4,-4.8828125E-4)" />

<path d="M730,-43L232,1224c-15,35,-35,58,-55,70c-20,11,-55,18,-104,21v120H697V1315H614c-40,0,-70,-7,-87,-18c-17,-12,-26,-27,-26,-46c0,-21,5,-44,15,-65L836,373l278,768c-34,84,-66,136,-96,152c-30,15,-81,22,-156,22v120h687V1315h-58c-52,0,-88,-7,-108,-19c-22,-13,-31,-31,-31,-51c0,-20,5,-38,14,-59L1693,373l260,722c18,45,25,83,25,117c0,30,-12,53,-39,73c-26,15,-77,27,-150,30v120h558V1315c-69,-10,-123,-32,-158,-61c-35,-32,-65,-78,-90,-139L1681,-43h-91L1189,955L825,-43Z" 
id="f1_1y"
transform="scale(4.8828125E-4,-4.8828125E-4)" />

<path d="M316,-606c-73,0,-131,22,-175,65c-45,42,-68,96,-68,159c0,45,14,85,43,116c28,30,63,45,104,45c38,0,70,-13,96,-39c26,-26,38,-58,38,-93c0,-13,-1,-28,-6,-48c-3,-15,-6,-27,-6,-33c0,-26,17,-39,48,-39c33,0,71,13,114,37c41,24,81,64,118,118c36,55,102,175,195,361L267,1199c-18,35,-41,61,-70,80c-27,17,-69,29,-124,36v120H755V1315H691c-60,0,-100,-7,-121,-21c-22,-15,-34,-35,-34,-60c0,-13,3,-24,8,-35L943,361l308,692c23,47,34,93,34,140c0,35,-15,63,-44,83c-31,20,-89,32,-176,39v120h591V1315c-116,-10,-195,-58,-237,-139L871,-49C775,-265,684,-412,597,-489C510,-566,416,-606,316,-606Z" 
id="f1_20"
transform="scale(4.8828125E-4,-4.8828125E-4)" />

<path d="M781,118c111,0,206,52,284,159c79,105,118,261,118,466c0,192,-42,343,-127,455c-72,98,-162,146,-271,146c-108,0,-195,-45,-259,-136C461,1118,429,966,429,752c0,-234,32,-398,98,-492C593,165,677,118,781,118ZM726,-14C565,-14,429,52,316,188C205,324,148,504,148,729c0,241,72,434,216,579c113,113,243,169,389,171c90,-2,171,-26,243,-72c72,-47,135,-118,187,-211v808c0,42,-16,75,-48,101c-32,25,-82,37,-150,38H888v118l560,31V330c0,-76,17,-131,48,-163c32,-34,79,-49,140,-49h109V0H1227l-44,292C1126,188,1059,112,982,61C906,9,820,-14,726,-14Z" 
id="f1_1f"
transform="scale(4.8828125E-4,-4.8828125E-4)" />

<path d="M801,-502c175,0,308,29,397,86c88,58,133,121,133,191c0,41,-14,79,-42,116c-27,35,-71,63,-132,81C1097,-10,1008,0,892,0C704,0,570,-25,490,-77C411,-129,370,-190,370,-262c0,-69,30,-122,90,-162c79,-52,194,-78,341,-78Zm4,1108c87,0,160,34,217,100c58,67,87,163,87,290c0,115,-30,208,-88,277c-60,67,-133,100,-223,102c-91,-2,-164,-35,-222,-99c-58,-66,-89,-158,-89,-274c0,-127,31,-224,89,-293C633,640,704,606,793,606c2,0,4,0,6,1c2,-1,4,-1,6,-1ZM764,-606c-220,0,-384,40,-491,121c-82,61,-125,132,-125,211c0,58,26,113,80,163c53,49,143,88,269,111C396,24,319,60,269,108c-51,49,-76,110,-76,182c0,66,21,124,64,174c41,49,114,91,220,129C387,639,319,695,275,762c-44,68,-69,144,-69,233c0,136,57,250,165,343c109,94,252,139,427,141c71,-2,140,-12,206,-31c67,-18,131,-47,194,-87c105,97,201,145,290,147c52,-2,96,-17,131,-47c36,-31,51,-69,51,-110c0,-37,-11,-66,-35,-91c-22,-21,-48,-33,-76,-33c-2,0,-4,0,-5,0c-1,0,-3,0,-4,0c-57,0,-96,35,-115,104c-10,29,-25,42,-45,44c-35,-2,-75,-24,-119,-70c46,-61,77,-115,93,-159c17,-46,26,-93,26,-144c0,-91,-21,-171,-64,-240C1283,694,1212,633,1112,581C1016,529,923,503,836,503c-3,0,-5,0,-8,0H662C544,501,466,489,426,464C390,437,370,399,370,350c0,-43,15,-75,47,-96c31,-22,92,-32,177,-32l378,15c189,-2,327,-34,411,-96c84,-65,125,-151,125,-261c0,-122,-47,-226,-145,-308C1230,-547,1030,-606,764,-606Z" 
id="f1_1i"
transform="scale(4.8828125E-4,-4.8828125E-4)" />

<path d="M133,0V118H249c44,0,78,9,101,30c23,19,35,45,35,78v926c0,50,-14,89,-40,113c-26,26,-76,43,-152,50v120l414,29c21,-104,36,-202,44,-294c75,112,151,191,227,239c75,45,159,68,250,70c97,-2,178,-29,241,-80c63,-53,111,-139,145,-255c67,110,142,194,225,251c84,55,172,82,270,84c130,-2,228,-41,290,-119c84,-104,126,-237,126,-399V241c0,-44,12,-73,33,-88c32,-23,78,-35,139,-35h78V0H1907V118h76c64,0,110,9,136,30c26,22,40,52,40,93V963c0,106,-26,189,-75,249c-51,58,-116,88,-199,88c-61,0,-116,-18,-166,-52c-51,-35,-90,-85,-119,-148c-42,-92,-63,-171,-63,-234V241c0,-42,12,-74,37,-93c24,-21,61,-30,110,-30h105V0H1021V118h87c55,0,96,9,123,30c28,22,40,48,40,80V897c0,139,-23,243,-70,307c-48,64,-112,96,-193,96c-104,0,-183,-37,-240,-111C691,1083,651,959,651,820V241c0,-44,11,-74,30,-90c31,-23,78,-33,141,-33h79V0Z" 
id="f1_1o"
transform="scale(4.8828125E-4,-4.8828125E-4)" />

<path d="M784,-43C642,-43,509,2,387,96L275,-28H193L162,532H266C332,353,406,229,489,160C571,93,672,60,791,60c3,0,5,0,8,0c3,0,7,0,10,0c110,0,193,24,253,71c61,49,91,113,91,190c0,43,-12,79,-33,113c-23,32,-54,56,-92,73c-40,16,-142,40,-307,72C564,611,454,643,391,678C328,712,280,759,244,820c-35,60,-51,126,-51,198c0,106,35,204,105,293c90,111,217,166,380,168c126,-2,240,-52,346,-154l100,110h63l40,-518H1123c-44,160,-105,278,-180,350c-77,71,-170,106,-280,108c-96,-2,-171,-27,-226,-79c-55,-51,-83,-115,-83,-187c0,-67,26,-122,75,-163C480,900,579,866,726,842c172,-29,284,-54,336,-74c81,-30,143,-76,188,-139c44,-62,65,-140,65,-229C1315,275,1267,170,1166,84C1066,-1,938,-43,784,-43Z" 
id="f1_1u"
transform="scale(4.8828125E-4,-4.8828125E-4)" />

<path d="M104,0V118h87c60,0,102,10,127,33c24,23,36,58,36,107V1962c0,59,-15,105,-48,136c-33,29,-80,44,-141,45H60v118l560,31V1186c75,96,156,169,242,218c85,49,175,73,270,75c92,-2,174,-25,246,-66c57,-36,104,-98,144,-183c41,-87,59,-190,59,-307V243c0,-44,12,-76,34,-96c21,-20,55,-29,99,-29h119V0H1065V118h82c65,0,109,9,133,30c23,22,35,52,35,95V923c0,117,-27,209,-82,278c-57,66,-128,99,-215,99c-68,0,-130,-20,-188,-56C772,1205,723,1147,681,1071C642,995,620,914,620,828V258c0,-52,13,-88,32,-108c20,-23,55,-32,103,-32H872V0Z" 
id="f1_1j"
transform="scale(4.8828125E-4,-4.8828125E-4)" />

<path d="M784,60c117,0,215,53,287,157c75,105,112,280,112,522c0,224,-36,384,-110,485c-74,101,-172,149,-294,151C665,1373,570,1322,495,1216C422,1111,385,947,385,721C385,490,422,322,495,217C567,113,660,60,774,60c2,0,4,0,5,0c2,0,3,0,5,0ZM770,-43C585,-43,426,24,298,167C168,307,104,490,104,717c0,224,66,407,194,548c131,141,290,212,481,214c194,-2,356,-72,488,-211c131,-140,197,-324,197,-551c0,-158,-29,-292,-89,-402C1317,203,1233,116,1123,52C1014,-11,897,-43,770,-43Z" 
id="f1_1q"
transform="scale(4.8828125E-4,-4.8828125E-4)" />

<path d="M118,0V118h99c50,0,89,9,115,30c24,19,38,45,38,75v909c0,58,-16,106,-48,136c-30,31,-76,47,-134,47H118v120l473,29c20,-89,35,-191,45,-307c62,105,137,186,223,239c87,54,184,81,293,83c93,-2,173,-21,235,-58c63,-38,115,-98,153,-179c38,-81,57,-173,57,-273V263c0,-54,12,-90,35,-112c23,-23,62,-33,116,-33h101V0H1079V118h71c68,0,115,9,141,32c26,21,40,53,40,96V863c0,133,-20,234,-60,300c-55,91,-137,137,-249,137c-110,0,-202,-47,-275,-139C672,1066,636,946,636,796V263c0,-54,12,-92,36,-112c23,-23,63,-33,116,-33H888V0Z" 
id="f1_1p"
transform="scale(4.8828125E-4,-4.8828125E-4)" />

<path d="M706,-14C587,-14,493,17,426,81C359,147,325,231,325,338v962H73v101c118,18,207,67,268,144c90,113,139,273,146,481H591V1435h459V1300H591V368c0,-82,20,-143,57,-186c36,-43,84,-64,140,-64c69,0,129,33,176,99c49,66,78,176,86,330h103C1147,356,1103,214,1022,122C941,31,836,-14,706,-14Z" 
id="f1_1v"
transform="scale(4.8828125E-4,-4.8828125E-4)" />

<path d="M1060,798c40,0,71,12,92,38c20,24,31,67,31,130c0,113,-36,209,-109,288c-73,80,-159,119,-258,121C704,1373,611,1326,535,1230C457,1134,417,990,414,798ZM816,-43C623,-43,461,24,330,163C199,303,133,480,133,698c0,231,66,420,195,564c132,144,292,215,483,217c141,-2,263,-38,364,-110c102,-73,180,-179,231,-313c36,-97,56,-217,58,-361H414C420,478,461,325,539,238C627,139,739,89,874,89c2,0,4,0,6,0c1,0,3,0,4,0c201,0,363,114,486,340l94,-44C1314,98,1098,-43,816,-43Z" 
id="f1_1g"
transform="scale(4.8828125E-4,-4.8828125E-4)" />

<path d="M73,0V118H194c55,0,93,9,113,27c23,17,34,46,34,86V1300H89v135H341v102c0,254,53,448,160,582c107,133,238,200,396,202c119,-2,211,-29,275,-86c67,-58,99,-133,99,-223c0,-61,-15,-108,-46,-144c-30,-35,-68,-50,-117,-50c-43,0,-78,12,-106,40c-27,27,-41,62,-41,104c0,47,17,85,49,117c27,23,40,42,40,55c0,17,-11,31,-34,46c-23,14,-57,22,-102,23c-87,-1,-159,-40,-219,-116c-59,-76,-88,-189,-88,-339V1435H961V1300H607V257c0,-49,10,-83,33,-101c29,-26,72,-38,127,-38H961V0Z" 
id="f1_1h"
transform="scale(4.8828125E-4,-4.8828125E-4)" />

<path d="M1006,89c105,0,187,42,242,128c75,111,112,278,112,495c0,226,-34,388,-101,486c-66,98,-151,146,-257,146c-110,0,-203,-55,-281,-165C645,1069,607,911,607,704C607,493,643,338,717,238C790,139,883,89,996,89c1,0,3,0,5,0c2,0,3,0,5,0ZM89,-590v117H193c48,0,87,10,110,29c25,19,38,45,38,75V1121c0,68,-17,117,-51,147c-33,28,-101,44,-201,47v120l463,29c22,-103,36,-201,39,-294c71,112,144,190,220,237c78,46,162,70,252,72c98,-2,191,-32,280,-93c89,-61,159,-150,215,-268c55,-119,83,-252,83,-398c0,-237,-67,-431,-202,-579C1326,17,1193,-43,1037,-43c-88,0,-169,21,-241,67C726,69,662,138,607,229V-343c0,-44,10,-76,30,-93c28,-24,67,-37,115,-37H857V-590Z" 
id="f1_1r"
transform="scale(4.8828125E-4,-4.8828125E-4)" />

<path d="M952,89c102,0,183,47,244,139c80,117,119,285,119,504c0,214,-33,370,-103,467c-71,97,-156,145,-262,145c-114,0,-207,-50,-281,-149C597,1094,562,929,562,700C562,480,597,324,668,229C738,136,830,89,942,89c2,0,3,0,5,0c2,0,3,0,5,0ZM325,-14L266,0c21,116,30,238,30,365V1983c0,49,-16,87,-50,118c-34,27,-81,41,-142,42H44v118l518,31V1228c60,83,127,145,199,187c73,41,153,62,238,64c168,-2,309,-67,425,-199c116,-131,173,-304,173,-518c0,-233,-62,-421,-187,-563C1285,55,1131,-14,946,-14C859,-14,779,2,707,37C637,72,564,131,487,215C431,121,377,44,325,-14Z" 
id="f1_1d"
transform="scale(4.8828125E-4,-4.8828125E-4)" />

<path d="M112,-606c-69,0,-120,17,-158,49c-37,31,-55,75,-57,130c2,48,15,87,43,118c29,29,62,44,104,44c69,0,113,-46,133,-139c8,-30,16,-50,23,-56c8,-8,20,-13,35,-13c22,0,40,10,58,26c26,26,48,71,61,132c22,85,31,168,31,252V1131c0,53,-17,96,-50,125c-34,29,-83,44,-150,44H60v119l591,29V86c0,-200,-57,-365,-168,-496C373,-540,249,-606,112,-606ZM517,1937c-2,0,-4,0,-7,0c-2,0,-4,0,-6,0c-43,0,-81,15,-113,48c-33,32,-50,70,-50,114c0,43,17,80,50,113c34,32,73,49,119,49c49,0,90,-15,123,-46c32,-30,47,-68,47,-114c0,-49,-15,-89,-47,-119c-31,-30,-70,-45,-116,-45Z" 
id="f1_1l"
transform="scale(4.8828125E-4,-4.8828125E-4)" />

<path d="M778,-43C579,-43,417,20,292,153C167,284,104,460,104,678c0,254,69,450,205,590c137,139,298,209,482,211c139,-2,254,-40,344,-115c92,-78,136,-162,136,-255c0,-56,-17,-102,-52,-139c-32,-35,-72,-53,-117,-53c-1,0,-3,0,-5,0c-2,0,-4,0,-6,0c-43,0,-81,16,-112,46c-30,30,-47,68,-47,113c0,42,17,85,49,126c17,19,24,34,24,46c0,28,-18,57,-56,84c-40,28,-92,41,-158,43C671,1373,579,1329,518,1238C429,1105,385,930,385,715C385,509,425,351,504,246C583,142,683,89,805,89c1,0,3,0,5,0c1,0,2,0,3,0c170,0,295,114,377,340l112,-30C1222,102,1047,-43,778,-43Z" 
id="f1_1e"
transform="scale(4.8828125E-4,-4.8828125E-4)" />

<path d="M788,-14C663,-14,556,28,471,115C383,200,341,345,341,550v622c0,53,-22,95,-66,124c-31,19,-92,30,-186,35v117l518,16V523c0,-117,27,-205,84,-268c56,-62,128,-93,217,-93c108,0,201,44,279,136c76,92,115,206,115,344v530c0,49,-17,85,-52,113c-35,26,-103,41,-200,46v117l518,16V286c0,-55,13,-97,42,-126c29,-29,71,-42,123,-42h85V0L1331,-14l-29,312C1216,193,1132,115,1048,63C963,11,877,-14,788,-14Z" 
id="f1_1w"
transform="scale(4.8828125E-4,-4.8828125E-4)" />

<path d="M89,0V118H238c51,0,86,10,110,33c25,22,37,54,37,95V1983c0,49,-14,87,-40,112c-36,30,-81,47,-133,48H89v118l562,31V214c0,-29,7,-51,24,-66c26,-21,57,-30,93,-30H917V0Z" 
id="f1_1n"
transform="scale(4.8828125E-4,-4.8828125E-4)" />

<path d="M73,0V118c78,6,138,21,179,47c70,41,133,96,188,165L727,684L299,1221c-47,59,-122,91,-226,94v120H784V1315c-116,-4,-174,-22,-174,-55c0,-15,9,-35,27,-56L888,882l243,299c18,20,26,40,26,60c0,38,-60,64,-181,74v120h592V1315c-146,-21,-256,-77,-334,-165L949,802L1401,225c29,-40,60,-68,92,-84c33,-16,84,-23,148,-23V0H901V118h58c62,0,106,4,133,16c17,8,25,19,25,31c0,11,-9,31,-29,58L788,603L555,315C523,270,506,235,506,209c0,-29,12,-49,33,-61c32,-21,84,-30,156,-30V0Z" 
id="f1_1z"
transform="scale(4.8828125E-4,-4.8828125E-4)" />

<path d="M799,-43L241,1207c-19,44,-44,75,-74,93c-29,18,-74,29,-138,31v104H739V1331c-94,-5,-155,-13,-181,-28c-26,-14,-40,-35,-40,-62c0,-25,5,-48,14,-69L909,325l359,819c5,14,8,28,8,45c0,74,-75,120,-226,142v104h591V1331c-60,-8,-109,-25,-144,-51c-35,-27,-62,-64,-81,-108L883,-43Z" 
id="f1_1x"
transform="scale(4.8828125E-4,-4.8828125E-4)" />

<path d="M1058,1227c172,0,305,33,404,99c99,67,150,187,150,359c0,116,-19,209,-57,280c-38,67,-88,114,-149,140c-60,25,-181,37,-361,38c-118,-1,-191,-9,-218,-25c-28,-17,-43,-46,-43,-86V1227h263c3,0,7,0,11,0ZM1832,-28c-74,0,-138,18,-194,54c-54,37,-96,93,-124,168c-21,55,-44,200,-72,434c-15,134,-38,232,-72,289c-32,58,-84,104,-154,139c-69,35,-151,52,-249,53H784V226c0,-38,10,-64,29,-79c23,-20,61,-29,111,-29h214V0H104V118H319c49,0,84,9,106,29c23,18,33,44,33,79V2027c0,39,-10,66,-33,87c-25,19,-58,28,-106,29H104v118H1259c224,0,397,-52,521,-154c124,-104,186,-239,186,-405c0,-102,-24,-191,-73,-267c-49,-80,-121,-141,-214,-188c-93,-46,-238,-80,-438,-100c146,-41,246,-81,301,-117c55,-40,97,-89,131,-150c34,-63,69,-186,107,-373c27,-134,59,-226,96,-275c27,-35,56,-55,88,-55c1,0,3,0,4,0c1,0,2,0,3,0c32,0,62,23,90,67c29,46,46,127,53,243h103C2198,142,2070,-28,1832,-28Z" 
id="f1_14"
transform="scale(4.8828125E-4,-4.8828125E-4)" />

<path d="M443,-43c-52,0,-98,16,-136,52C270,44,252,89,252,141c0,50,18,93,55,129c38,36,84,54,138,55c53,-1,99,-19,136,-55c36,-36,55,-79,55,-129C636,89,617,44,581,9C544,-27,497,-43,443,-43Z" 
id="f1_7"
transform="scale(4.8828125E-4,-4.8828125E-4)" />

<path d="M532,0V118H784c33,0,59,7,76,26c18,16,28,38,28,67V2026c0,38,-13,67,-35,87c-25,20,-63,29,-115,30C590,2142,468,2075,368,1937C287,1824,228,1647,193,1404H73l52,857H1975l51,-857H1907c-69,492,-249,738,-541,739c-60,-1,-99,-10,-121,-32c-21,-19,-33,-53,-33,-97V223c0,-37,12,-63,32,-79c19,-19,55,-26,102,-26h222V0Z" 
id="f1_16"
transform="scale(4.8828125E-4,-4.8828125E-4)" />

<path d="M89,0V118H222c55,0,97,9,123,32c26,20,40,49,40,85V1997c0,44,-15,78,-44,101c-43,29,-101,44,-174,45H89v118l562,31V723l463,403c44,38,65,72,65,101c0,23,-12,41,-39,56c-38,19,-103,29,-194,32v120h754V1315c-149,-7,-262,-44,-342,-108L1021,914L1560,180c33,-42,88,-62,166,-62h77V0H1021V118h76c60,0,98,4,118,15c19,9,29,23,29,37c0,13,-5,27,-16,42L831,749L651,590V215c0,-30,9,-53,29,-67c29,-21,69,-30,119,-30H901V0Z" 
id="f1_1m"
transform="scale(4.8828125E-4,-4.8828125E-4)" />

<path d="M406,0V112H658c4,-1,7,-1,10,-1c49,0,84,11,107,36c26,24,38,58,38,99V1668c0,28,-11,54,-34,75c-24,20,-53,29,-90,31H351v111c159,20,288,48,387,83c99,35,188,81,263,139h72V208c0,-31,9,-52,30,-66c29,-20,63,-31,102,-31c3,0,5,0,8,1h303V0Z" 
id="f2_4"
transform="scale(4.8828125E-4,-4.8828125E-4)" />

<path d="M148,0V81L597,590c252,270,402,440,451,512c73,97,127,194,159,287c34,93,49,179,49,255c0,125,-34,224,-104,298c-69,72,-165,108,-290,110C723,2050,608,2017,521,1949C434,1881,388,1810,388,1736c0,-28,8,-48,20,-58c12,-16,40,-28,81,-37c105,-25,157,-87,157,-183c0,-54,-17,-98,-52,-132c-33,-34,-77,-50,-129,-50c-2,0,-4,0,-7,0c-1,0,-3,0,-4,0c-61,0,-114,29,-161,84c-47,56,-71,133,-71,227c0,103,27,197,79,283c53,84,134,153,243,209c108,54,224,81,348,83c122,-2,237,-28,342,-81c107,-54,185,-124,239,-209c53,-88,79,-181,79,-283c0,-72,-12,-144,-39,-214c-26,-75,-66,-142,-118,-205C1308,1060,1218,967,1124,891L720,550C617,461,542,390,495,330c-45,-60,174,-90,655,-90c12,0,24,0,36,0c2,0,5,0,8,0c72,0,124,20,155,58c32,40,69,150,112,330h110L1517,0Z" 
id="f2_5"
transform="scale(4.8828125E-4,-4.8828125E-4)" />

<path d="M234,-502l-57,72c208,145,310,274,310,385c0,14,-1,26,-7,34C474,-4,466,0,455,0L422,-5c-19,-5,-35,-5,-46,-5C332,-10,292,6,258,43c-33,35,-52,79,-52,131c0,49,19,92,52,127c34,35,78,53,132,53c65,0,120,-26,165,-77C599,223,620,153,620,64C620,-132,492,-320,234,-502Z" 
id="f1_5"
transform="scale(4.8828125E-4,-4.8828125E-4)" />

<path d="M53,-5V37L70,60L217,241L437,480c0,0,64,67,111,147c0,0,47,81,47,180c0,0,0,96,-57,148c0,0,-58,52,-153,52c0,0,-12,0,-26,-1c0,0,-14,-2,-26,-5c0,0,-58,-12,-107,-51c0,0,-48,-39,-50,-101c0,0,0,-4,2,-9c0,0,3,-4,4,-7c0,0,5,-2,9,-5c0,0,5,-3,8,-6c0,0,12,-5,25,-10c0,0,13,-5,24,-13c0,0,21,-12,32,-35c0,0,11,-23,11,-49c0,0,0,-41,-31,-64c0,0,-31,-23,-70,-23c0,0,-46,0,-71,34c0,0,-25,34,-35,77c0,0,-3,14,-4,28c0,0,-2,13,-2,26c0,0,0,35,9,65c0,0,10,31,26,60c0,0,20,35,54,65c0,0,33,30,68,50c0,0,7,3,12,5c0,0,5,2,11,5c0,0,22,10,45,17c0,0,24,6,48,9c0,0,20,4,39,5c0,0,19,2,36,2h17c0,0,119,-7,219,-84c0,0,100,-77,100,-207c0,0,0,-111,-54,-187c0,0,-54,-77,-135,-144L343,266L261,187L210,135H569c0,0,3,0,7,0c16,0,60,1,77,11c0,0,20,13,31,65c0,0,2,6,3,13c0,0,2,7,3,15l17,85h64L744,-5c0,0,-80,1,-160,4c0,0,-80,1,-161,1c0,0,-46,0,-93,0c0,0,-46,-1,-92,-1c0,0,-46,-1,-92,-2c0,0,-47,-1,-93,-2Z" 
id="f3_m"
transform="scale(0.001,-0.001)" />

<path d="M163,0V69h72c0,0,3,0,7,0c22,0,91,1,114,14c0,0,27,15,27,68V808c0,0,0,51,-12,71c0,0,-12,20,-84,20H153v65c0,0,4,-1,11,-1c1,0,3,0,5,1c0,0,8,0,16,0c0,0,82,6,160,32c0,0,78,26,141,80l49,2V185c0,0,0,-78,18,-98c0,0,18,-20,93,-20l112,2V0Z" 
id="f3_l"
transform="scale(0.001,-0.001)" />

<path d="M41,0V53h70c0,0,2,2,5,2h4c0,0,10,0,18,2c0,0,8,3,16,7c0,0,5,3,8,9c0,0,3,5,3,11c0,0,1,3,1,5c0,0,0,3,0,6V522c0,0,0,2,0,4c0,0,0,3,0,6c0,0,0,19,-1,38c0,0,0,18,-6,36c0,0,-5,11,-13,13c0,0,-9,3,-18,4h-3c0,0,-2,0,-3,1c0,0,-2,1,-3,1l-78,4v65l263,15V579h3c0,0,26,44,55,73c0,0,29,29,58,46c0,0,32,19,63,25c0,0,30,7,58,7c0,0,20,0,45,-4c0,0,25,-5,51,-16c0,0,38,-15,74,-47c0,0,35,-32,53,-85c0,0,9,-25,15,-59c0,0,5,-35,5,-87V105c0,0,0,-4,0,-7c0,0,0,-3,1,-5c0,0,0,-3,0,-6c0,0,0,-3,0,-6c0,0,2,-9,9,-15c0,0,7,-6,14,-8c0,0,2,-1,3,-1h2c0,0,8,0,16,-1c0,0,8,-1,16,-1c0,0,8,0,16,-1c0,0,8,-1,18,-1h27V0H520V53c0,0,9,-1,19,-1h19c0,0,4,0,9,1c0,0,5,0,9,0c0,0,6,0,11,1c0,0,4,1,9,1c0,0,3,0,8,1c0,0,4,1,7,1c0,0,6,1,13,3c0,0,6,3,9,7c0,0,1,2,3,4c0,0,1,2,3,5v2c0,0,1,0,2,1c0,0,1,2,1,4c0,0,1,6,1,11c0,0,0,5,0,11V438c0,0,0,30,-1,49c0,0,-2,20,-3,36c0,0,-2,4,-3,8c0,0,0,4,0,8c0,0,-6,46,-48,74c0,0,-43,27,-92,27c0,0,-48,0,-91,-29c0,0,-42,-29,-66,-72c0,0,-6,-10,-11,-21c0,0,-4,-11,-7,-21c0,0,-11,-33,-13,-65c0,0,-1,-33,-1,-70V108c0,0,1,-4,1,-8c0,0,0,-4,0,-7c0,0,0,-1,0,-3c0,0,0,-1,2,-3c0,0,0,-1,0,-3c0,0,0,-1,0,-3c0,0,1,-15,17,-21c0,0,15,-5,33,-7h71V0Z" 
id="f3_2a"
transform="scale(0.001,-0.001)" />

<path d="M392,-21L140,564c0,0,-2,3,-5,8c0,0,-3,6,-5,10c0,0,-4,11,-10,21c0,0,-5,10,-11,19c0,0,-6,9,-11,14c0,0,-6,6,-12,9c0,0,-8,6,-18,7c0,0,-9,0,-25,2H31l-18,1v54H373V655H352c0,0,-2,-1,-4,-1H315c0,0,-14,-2,-27,-6c0,0,-13,-5,-17,-14c0,0,-2,-5,-2,-9c0,0,-1,-5,-1,-9c0,0,0,-9,4,-19c0,0,3,-9,8,-18L453,173L584,509c0,0,5,9,9,19c0,0,3,10,6,19c0,0,5,12,7,25c0,0,3,13,3,28c0,0,0,36,-22,42c0,0,-21,7,-47,10h-6l-31,3v54H807V655c0,0,-53,-1,-84,-39c0,0,-30,-37,-52,-81c0,0,-6,-14,-12,-27c0,0,-6,-13,-11,-25L440,-21Z" 
id="f3_2i"
transform="scale(0.001,-0.001)" />

<path d="M397,-22c0,0,-13,0,-45,5c0,0,-31,4,-65,17c0,0,-38,12,-72,41c0,0,-35,28,-44,77c0,0,-6,9,-9,31c0,0,-3,21,-3,46c0,0,-2,13,-2,28c0,0,0,15,0,25V579c0,0,0,2,0,4c0,0,0,2,0,4c0,0,0,7,-2,14c0,0,-2,7,-8,12c0,0,-11,11,-25,14c0,0,-13,3,-27,3H32v64l266,15V272c0,0,0,-12,0,-23c0,0,0,-11,0,-21c0,0,0,-11,1,-22c0,0,1,-10,1,-21c0,0,3,-60,40,-89c0,0,37,-29,94,-29c0,0,55,0,99,27c0,0,43,27,68,76c0,0,10,23,16,44c0,0,6,20,9,40c0,0,4,19,4,37c0,0,1,18,1,38c0,0,0,9,1,19c0,0,1,9,1,18V584c0,0,-2,20,-8,29c0,0,-6,9,-29,12c0,0,-14,3,-28,4c0,0,-13,1,-27,1H484v64l289,15V168c0,0,0,-7,0,-15c0,0,0,-8,2,-15c0,0,0,-13,4,-24c0,0,3,-12,11,-19c0,0,5,-6,11,-9c0,0,6,-3,12,-5c0,0,8,0,15,-1c0,0,8,-1,17,-1c0,0,8,0,15,0c0,0,8,-1,16,-1l32,1V15L633,0V119h-3c0,0,-36,-66,-97,-104c0,0,-61,-37,-136,-37Z" 
id="f3_2h"
transform="scale(0.001,-0.001)" />

<path d="M509,605c0,0,14,0,28,0c0,0,15,1,28,3c0,0,14,1,29,3c0,0,14,1,28,3c0,0,6,0,12,1c0,0,6,2,12,3c0,0,33,6,62,22c0,0,30,15,50,42c0,0,9,14,17,35c0,0,8,21,14,43c0,0,3,16,4,30c0,0,2,15,2,27c0,0,0,83,-35,143c0,0,-34,60,-127,67c0,0,-42,3,-83,4c0,0,-41,2,-84,2c0,0,-5,0,-15,-1c0,0,-10,-1,-20,-2c0,0,-14,-2,-25,-5c0,0,-10,-3,-14,-6c0,0,-6,-9,-8,-19c0,0,-2,-10,-4,-22c0,0,-1,-10,-1,-19c0,0,0,-8,0,-15V609c0,0,17,-3,33,-4c0,0,16,0,32,0ZM897,-22c0,0,-11,0,-23,2c0,0,-12,3,-25,6c0,0,-23,7,-44,19c0,0,-21,13,-34,30c0,0,-19,28,-32,60c0,0,-12,32,-18,65c0,0,-2,16,-3,29c0,0,-2,14,-2,26c0,0,-1,9,-2,18c0,0,-1,8,-2,16c0,0,0,4,-1,8c0,0,-1,4,-1,9c0,0,-10,128,-57,198c0,0,-47,70,-189,72H379V157c0,0,0,-3,0,-5c0,0,0,-1,0,-3v-1c0,0,0,-2,0,-2c0,0,0,-22,4,-42c0,0,3,-20,31,-28c0,0,18,-6,38,-7c0,0,20,0,40,0h30c0,0,11,0,22,-2V0H40V69h62c0,0,26,0,51,3c0,0,24,3,44,19c0,0,3,3,5,6c0,0,3,4,4,9c0,0,0,1,1,3c0,0,1,1,1,3c0,0,1,6,2,12c0,0,1,6,2,12c0,0,0,5,0,11c0,0,0,6,0,12V944c0,0,0,8,0,15c0,0,0,6,-1,13c0,0,0,4,-2,10c0,0,-1,6,-3,14c0,0,-9,21,-22,26c0,0,-13,5,-30,6h-3c0,0,-1,0,-3,1c0,0,-2,1,-3,1h-6l-96,4v69H599c0,0,20,-2,41,-3c0,0,22,-2,42,-5c0,0,111,-13,204,-75c0,0,92,-62,92,-190c0,0,0,-132,-94,-193c0,0,-94,-61,-207,-75c0,0,-13,-1,-27,-3c0,0,-14,-1,-28,-1v-2c0,0,97,-10,154,-62c0,0,57,-52,82,-145l26,-98c0,0,1,-8,3,-14c0,0,1,-6,3,-14c0,0,0,-1,0,-3c0,0,1,-3,1,-4c0,0,6,-31,15,-60c0,0,10,-29,28,-53c0,0,11,-6,19,-9c0,0,8,-3,16,-3c0,0,23,0,35,25c0,0,12,25,17,56c0,0,4,21,5,40c0,0,1,19,1,30l62,1c0,0,0,-6,0,-10c0,0,0,-3,0,-8c0,0,-4,-93,-41,-171c0,0,-37,-76,-151,-76Z" 
id="f3_1i"
transform="scale(0.001,-0.001)" />

<path d="M645,851v176H2478V851Z" 
id="f4_2"
transform="scale(4.8828125E-4,-4.8828125E-4)" />

<path d="M645,571V747H2478V571Zm0,558v176H2478V1129Z" 
id="f4_3"
transform="scale(4.8828125E-4,-4.8828125E-4)" />

<path d="M193,0V118H350c61,0,105,9,130,30c26,22,38,52,38,92V2026c0,40,-11,67,-32,88c-23,19,-57,28,-106,29H193v118H2011l44,-768H1937c-41,240,-105,409,-194,505c-88,97,-205,144,-347,145H952c-37,-1,-63,-10,-81,-29c-18,-21,-28,-48,-28,-88V1227h191c2,0,4,0,6,0c101,0,183,38,245,111c66,75,99,190,105,347h118V620H1390c-6,174,-41,300,-105,375c-66,74,-154,113,-267,114H843V218c0,-33,11,-58,32,-74c23,-19,58,-26,110,-26h350c382,0,602,241,660,724h119L2070,0Z" 
id="f1_r"
transform="scale(4.8828125E-4,-4.8828125E-4)" />

<path d="M929,-43L296,1956c-24,76,-53,125,-84,151c-32,24,-82,35,-152,36v118H813V2143H759c-79,-1,-131,-7,-154,-18c-21,-14,-34,-32,-34,-56c0,-19,10,-48,23,-84l11,-29L1057,526l410,1326c-46,143,-81,229,-107,253c-26,25,-78,37,-155,38H1065v118h961V2143H1925c-86,-1,-142,-7,-168,-19c-26,-14,-38,-34,-38,-60c0,-23,3,-41,9,-58L2195,526l379,1281c17,48,25,95,25,141c0,66,-17,115,-48,148c-32,31,-79,46,-143,47h-72v118h709V2143c-60,-9,-107,-24,-144,-45c-35,-22,-67,-52,-93,-92c-24,-41,-52,-107,-79,-199L2180,-43H2066L1545,1607L1033,-43Z" 
id="f1_19"
transform="scale(4.8828125E-4,-4.8828125E-4)" />

<path d="M636,-43C582,-43,536,-27,500,9C463,46,443,90,443,145c0,51,20,92,57,127c36,35,82,52,136,53c53,-1,99,-18,136,-53c38,-37,56,-79,56,-127C828,92,810,46,772,11C735,-27,689,-43,636,-43ZM576,665c0,119,8,213,20,284c14,69,29,124,49,165c20,39,72,113,154,221c64,83,112,162,138,236c26,73,39,155,39,246c0,119,-33,215,-101,290c-65,73,-148,110,-244,110c-83,0,-153,-22,-208,-64c-55,-43,-82,-86,-82,-130c0,-26,18,-54,58,-84c59,-48,88,-100,88,-155c0,-50,-15,-91,-47,-123c-29,-33,-68,-49,-113,-49c-2,0,-4,0,-6,0c-2,0,-4,0,-5,0c-55,0,-100,23,-139,67c-38,47,-59,107,-59,183c0,116,55,223,160,318c107,93,241,139,403,141c167,-2,304,-54,413,-158c108,-104,162,-230,162,-379c0,-96,-17,-183,-54,-259c-27,-60,-97,-141,-207,-245C849,1146,762,1047,730,982C700,917,683,811,680,665Z" 
id="f1_m"
transform="scale(4.8828125E-4,-4.8828125E-4)" />


</defs>
</svg>