<?xml version="1.0" encoding="UTF-8" standalone="no"?>
<!DOCTYPE svg PUBLIC "-//W3C//DTD SVG 1.1//EN"
"http://www.w3.org/Graphics/SVG/1.1/DTD/svg11.dtd">
<svg viewBox="0 0 909 1286" version="1.1" xmlns="http://www.w3.org/2000/svg" xmlns:xlink="http://www.w3.org/1999/xlink">
<defs>
<clipPath id="c0_139"><path d="M55,173.8v-48H190.4v48Z" /></clipPath>
<clipPath id="c1_139"><path d="M125.8,198.5v-24h59.7v24Z" /></clipPath>
<clipPath id="c2_139"><path d="M430.7,198.5v-24H583.3v24Z" /></clipPath>
<clipPath id="c3_139"><path d="M55,245.6v-48H219.1v48Z" /></clipPath>
<clipPath id="c4_139"><path d="M55,311.7v-24H212.8v24Z" /></clipPath>
<clipPath id="c5_139"><path d="M86.6,358.6V310.8H279.9v47.8Z" /></clipPath>
<clipPath id="c6_139"><path d="M55,532.2v-48H269.4v48Z" /></clipPath>
<clipPath id="c7_139"><path d="M55,642.3V594.5H262.9v47.8Z" /></clipPath>
<style type="text/css"><![CDATA[
.g0_139{
fill: #D9D9D9;
}
.g1_139{
fill: none;
stroke: #000000;
stroke-width: 0.7638889;
stroke-linecap: butt;
stroke-linejoin: miter;
}
.g2_139{
fill: none;
stroke: #000000;
stroke-width: 0.90078986;
stroke-linecap: butt;
stroke-linejoin: round;
}
.g3_139{
fill: none;
stroke: #000000;
stroke-width: 0.91031;
stroke-linecap: butt;
stroke-linejoin: round;
}
.g4_139{
fill: none;
stroke: #000000;
stroke-width: 0.9119616;
stroke-linecap: butt;
stroke-linejoin: round;
}
.g5_139{
fill: none;
stroke: #000000;
stroke-width: 0.9108193;
stroke-linecap: butt;
stroke-linejoin: round;
}
.g6_139{
fill: none;
stroke: #000000;
stroke-width: 0.9089614;
stroke-linecap: butt;
stroke-linejoin: round;
}
.g7_139{
}
]]></style>
</defs>
<image preserveAspectRatio="none" x="336" y="42" width="259" height="49" xlink:href="img/1.png" />
<image preserveAspectRatio="none" x="342" y="50" width="247" height="27" xlink:href="img/2.png" />
<image preserveAspectRatio="none" x="341" y="46" width="238" height="41" xlink:href="img/3.png" />
<g fill="#FFFFFF" >
<use xlink:href="#f0_j" transform="matrix(11.5,0,0,11.5,354.9,70)" />
<use xlink:href="#f0_i" transform="matrix(11.5,0,0,11.5,364.2,70)" />
<use xlink:href="#f0_2n" transform="matrix(11.5,0,0,11.5,374.1,70)" />
<use xlink:href="#f0_t" transform="matrix(11.5,0,0,11.5,382.4,70)" />
<use xlink:href="#f0_oj" transform="matrix(11.5,0,0,11.5,391,70)" />
<use xlink:href="#f0_3e" transform="matrix(11.5,0,0,11.5,396.3,70)" />
<use xlink:href="#f0_1c" transform="matrix(11.5,0,0,11.5,406,70)" />
<use xlink:href="#f0_1c" transform="matrix(11.5,0,0,11.5,410.7,70)" />
<use xlink:href="#f0_oj" transform="matrix(11.5,0,0,11.5,415.4,70)" />
<use xlink:href="#f0_rz" transform="matrix(11.5,0,0,11.5,420.8,70)" />
<use xlink:href="#f0_rx" transform="matrix(11.5,0,0,11.5,429.7,70)" />
<use xlink:href="#f0_ry" transform="matrix(11.5,0,0,11.5,438.6,70)" />
<use xlink:href="#f0_s2" transform="matrix(11.5,0,0,11.5,447.4,70)" />
<use xlink:href="#f0_t" transform="matrix(11.5,0,0,11.5,460.2,70)" />
<use xlink:href="#f0_3e" transform="matrix(11.5,0,0,11.5,468.8,70)" />
<use xlink:href="#f0_5" transform="matrix(11.5,0,0,11.5,478.5,70)" />
<use xlink:href="#f0_1x" transform="matrix(11.5,0,0,11.5,489.2,70)" />
<use xlink:href="#f0_1c" transform="matrix(11.5,0,0,11.5,504.6,70)" />
<use xlink:href="#f0_1y" transform="matrix(11.5,0,0,11.5,509.3,70)" />
<use xlink:href="#f0_5" transform="matrix(11.5,0,0,11.5,520.9,70)" />
<use xlink:href="#f0_2t" transform="matrix(11.5,0,0,11.5,531.5,70)" />
<use xlink:href="#f0_1c" transform="matrix(11.5,0,0,11.5,540.2,70)" />
<use xlink:href="#f0_24" transform="matrix(11.5,0,0,11.5,544.9,70)" />
<use xlink:href="#f0_1y" transform="matrix(11.5,0,0,11.5,556.8,70)" />
</g>
<image preserveAspectRatio="none" x="554" y="46" width="36" height="41" xlink:href="img/4.png" />
<image preserveAspectRatio="none" x="748" y="1196" width="94" height="58" xlink:href="img/5.png" />
<g fill="#FFFFFF" >
<use xlink:href="#f1_m" transform="matrix(11,0,0,11,770.1,1227.7)" />
<use xlink:href="#f1_m" transform="matrix(11,0,0,11,779,1227.7)" />
<use xlink:href="#f1_j" transform="matrix(11,0,0,11,792.4,1227.7)" />
<use xlink:href="#f1_m" transform="matrix(11,0,0,11,803,1227.7)" />
<use xlink:href="#f1_o" transform="matrix(11,0,0,11,811.9,1227.7)" />
</g>
<path fill-rule="evenodd" d="M52.7,1193.2H856.9v-.7H52.7v.7Z" class="g0_139" />
<path d="M37.9,99.4L873,98.5" class="g1_139" />
<path d="M154.4,150.6h31.5" class="g2_139" />
<g clip-path="url(#c0_139)">
<g fill="#000000" >
<use xlink:href="#f2_2g" transform="matrix(11.8,0,0,11.7,58.1,155.2)" />
<use xlink:href="#f2_1x" transform="matrix(11.8,0,0,11.7,63.2,155.2)" />
<use xlink:href="#f2_2a" transform="matrix(11.8,0,0,11.7,71.2,155.2)" />
<use xlink:href="#f3_1d" transform="matrix(11.8,0,0,11.7,155.8,143.8)" />
<use xlink:href="#f3_1e" transform="matrix(11.8,0,0,11.7,171,143.8)" />
<use xlink:href="#f3_1e" transform="matrix(11.8,0,0,11.7,99.1,155.2)" />
<use xlink:href="#f3_19" transform="matrix(11.8,0,0,11.7,111.4,155.2)" />
<use xlink:href="#f3_1d" transform="matrix(11.8,0,0,11.7,117.4,155.2)" />
<use xlink:href="#f3_1d" transform="matrix(11.8,0,0,11.7,158.8,169.2)" />
<use xlink:href="#f3_19" transform="matrix(11.8,0,0,11.7,174,169.2)" />
<use xlink:href="#f4_42" transform="matrix(11.8,0,0,11.7,85,155.2)" />
<use xlink:href="#f4_x" transform="matrix(11.8,0,0,11.7,139.8,155.2)" />
</g>
</g>
<g fill="#000000" >
<use xlink:href="#f2_1e" transform="matrix(12,0,0,12,55,190.8)" />
<use xlink:href="#f2_2b" transform="matrix(12,0,0,12,68.2,190.8)" />
<use xlink:href="#f2_2j" transform="matrix(12,0,0,12,77.4,190.8)" />
<use xlink:href="#f2_g" transform="matrix(12,0,0,12,90.6,190.8)" />
<use xlink:href="#f2_22" transform="matrix(12,0,0,12,99.7,190.8)" />
<use xlink:href="#f2_2b" transform="matrix(12,0,0,12,105.8,190.8)" />
<use xlink:href="#f2_2e" transform="matrix(12,0,0,12,115,190.8)" />
</g>
<g clip-path="url(#c1_139)">
<g fill="#000000" >
<use xlink:href="#f2_g" transform="matrix(12.6,0,0,11.9,178.5,191.2)" />
<use xlink:href="#f3_1e" transform="matrix(12.6,0,0,11.9,139.8,191.2)" />
<use xlink:href="#f3_1f" transform="matrix(12.6,0,0,11.9,152.1,191.2)" />
<use xlink:href="#f3_13" transform="matrix(12.6,0,0,11.9,165.3,191.2)" />
<use xlink:href="#f4_14" transform="matrix(12.6,0,0,11.9,128.5,191.2)" />
</g>
</g>
<g fill="#000000" >
<use xlink:href="#f2_25" transform="matrix(12,0,0,12,185.4,190.8)" />
<use xlink:href="#f2_2f" transform="matrix(12,0,0,12,190.5,190.8)" />
<use xlink:href="#f2_2g" transform="matrix(12,0,0,12,202.2,190.8)" />
<use xlink:href="#f2_24" transform="matrix(12,0,0,12,207.3,190.8)" />
<use xlink:href="#f2_21" transform="matrix(12,0,0,12,216.5,190.8)" />
<use xlink:href="#f2_21" transform="matrix(12,0,0,12,229.2,190.8)" />
<use xlink:href="#f2_2k" transform="matrix(12,0,0,12,237.3,190.8)" />
<use xlink:href="#f2_2g" transform="matrix(12,0,0,12,246.5,190.8)" />
<use xlink:href="#f2_21" transform="matrix(12,0,0,12,251.6,190.8)" />
<use xlink:href="#f2_2e" transform="matrix(12,0,0,12,259.7,190.8)" />
<use xlink:href="#f2_25" transform="matrix(12,0,0,12,265.8,190.8)" />
<use xlink:href="#f2_2b" transform="matrix(12,0,0,12,271,190.8)" />
<use xlink:href="#f2_2e" transform="matrix(12,0,0,12,280.1,190.8)" />
<use xlink:href="#f2_1x" transform="matrix(12,0,0,12,290.8,190.8)" />
<use xlink:href="#f2_2a" transform="matrix(12,0,0,12,298.8,190.8)" />
<use xlink:href="#f2_23" transform="matrix(12,0,0,12,308,190.8)" />
<use xlink:href="#f2_28" transform="matrix(12,0,0,12,317.2,190.8)" />
<use xlink:href="#f2_21" transform="matrix(12,0,0,12,322.3,190.8)" />
<use xlink:href="#f2_i" transform="matrix(12,0,0,12,330.4,190.8)" />
<use xlink:href="#f2_1k" transform="matrix(12,0,0,12,339.6,190.8)" />
<use xlink:href="#f2_24" transform="matrix(12,0,0,12,350.8,190.8)" />
<use xlink:href="#f2_21" transform="matrix(12,0,0,12,359.9,190.8)" />
<use xlink:href="#f2_2e" transform="matrix(12,0,0,12,368.1,190.8)" />
<use xlink:href="#f2_21" transform="matrix(12,0,0,12,374.3,190.8)" />
<use xlink:href="#f2_22" transform="matrix(12,0,0,12,382.4,190.8)" />
<use xlink:href="#f2_2b" transform="matrix(12,0,0,12,388.4,190.8)" />
<use xlink:href="#f2_2e" transform="matrix(12,0,0,12,397.5,190.8)" />
<use xlink:href="#f2_21" transform="matrix(12,0,0,12,403.6,190.8)" />
<use xlink:href="#f2_g" transform="matrix(12,0,0,12,411.8,190.8)" />
<use xlink:href="#f2_25" transform="matrix(12,0,0,12,421,190.8)" />
</g>
<g clip-path="url(#c2_139)">
<g fill="#000000" >
<use xlink:href="#f3_1e" transform="matrix(12.7,0,0,11.9,461.7,191.2)" />
<use xlink:href="#f3_1f" transform="matrix(12.7,0,0,11.9,474,191.2)" />
<use xlink:href="#f3_1d" transform="matrix(12.7,0,0,11.9,487.3,191.2)" />
<use xlink:href="#f3_1e" transform="matrix(12.7,0,0,11.9,535.9,191.2)" />
<use xlink:href="#f3_13" transform="matrix(12.7,0,0,11.9,548.2,191.2)" />
<use xlink:href="#f3_1d" transform="matrix(12.7,0,0,11.9,560.6,191.2)" />
<use xlink:href="#f4_x" transform="matrix(12.7,0,0,11.9,433.5,191.2)" />
<use xlink:href="#f4_42" transform="matrix(12.7,0,0,11.9,447.6,191.2)" />
<use xlink:href="#f4_f" transform="matrix(12.7,0,0,11.9,508.5,191.2)" />
<use xlink:href="#f4_42" transform="matrix(12.7,0,0,11.9,521.8,191.2)" />
</g>
</g>
<path d="M81.6,222.4h32.8m17.5,0h31.5" class="g3_139" />
<g clip-path="url(#c3_139)">
<g fill="#000000" >
<use xlink:href="#f2_i" transform="matrix(11.9,0,0,11.7,165.4,227)" />
<use xlink:href="#f2_i" transform="matrix(11.9,0,0,11.7,170,227)" />
<use xlink:href="#f2_i" transform="matrix(11.9,0,0,11.7,174.6,227)" />
<use xlink:href="#f2_i" transform="matrix(11.9,0,0,11.7,179.2,227)" />
<use xlink:href="#f2_i" transform="matrix(11.9,0,0,11.7,183.8,227)" />
<use xlink:href="#f2_i" transform="matrix(11.9,0,0,11.7,188.4,227)" />
<use xlink:href="#f2_i" transform="matrix(11.9,0,0,11.7,193,227)" />
<use xlink:href="#f2_c" transform="matrix(11.9,0,0,11.7,197.5,227)" />
<use xlink:href="#f2_l" transform="matrix(11.9,0,0,11.7,202.1,227)" />
<use xlink:href="#f2_d" transform="matrix(11.9,0,0,11.7,209.9,227)" />
<use xlink:href="#f3_1d" transform="matrix(11.9,0,0,11.7,83.6,215.6)" />
<use xlink:href="#f3_1e" transform="matrix(11.9,0,0,11.7,98.8,215.6)" />
<use xlink:href="#f3_1d" transform="matrix(11.9,0,0,11.7,133.3,215.6)" />
<use xlink:href="#f3_1e" transform="matrix(11.9,0,0,11.7,148.4,215.6)" />
<use xlink:href="#f3_25" transform="matrix(11.9,0,0,11.7,57.2,227)" />
<use xlink:href="#f3_1f" transform="matrix(11.9,0,0,11.7,82.2,241)" />
<use xlink:href="#f3_1d" transform="matrix(11.9,0,0,11.7,95.4,241)" />
<use xlink:href="#f3_1d" transform="matrix(11.9,0,0,11.7,133.7,241)" />
<use xlink:href="#f3_13" transform="matrix(11.9,0,0,11.7,148.8,241)" />
<use xlink:href="#f4_x" transform="matrix(11.9,0,0,11.7,67,227)" />
<use xlink:href="#f4_f" transform="matrix(11.9,0,0,11.7,118.1,227)" />
</g>
</g>
<g fill="#000000" >
<use xlink:href="#f2_1j" transform="matrix(12,0,0,12,55,283.7)" />
<use xlink:href="#f2_25" transform="matrix(12,0,0,12,65.2,283.7)" />
<use xlink:href="#f2_29" transform="matrix(12,0,0,12,70.3,283.7)" />
<use xlink:href="#f2_25" transform="matrix(12,0,0,12,84.4,283.7)" />
<use xlink:href="#f2_28" transform="matrix(12,0,0,12,89.5,283.7)" />
<use xlink:href="#f2_1x" transform="matrix(12,0,0,12,94.7,283.7)" />
<use xlink:href="#f2_2e" transform="matrix(12,0,0,12,102.8,283.7)" />
<use xlink:href="#f2_28" transform="matrix(12,0,0,12,108.9,283.7)" />
<use xlink:href="#f2_2l" transform="matrix(12,0,0,12,114.1,283.7)" />
<use xlink:href="#f2_g" transform="matrix(12,0,0,12,123.3,283.7)" />
</g>
<g clip-path="url(#c4_139)">
<g fill="#000000" >
<use xlink:href="#f3_2e" transform="matrix(12.8,0,0,11.9,57.8,304.4)" />
<use xlink:href="#f3_1e" transform="matrix(12.8,0,0,11.9,98,304.4)" />
<use xlink:href="#f3_13" transform="matrix(12.8,0,0,11.9,110.3,304.4)" />
<use xlink:href="#f3_1d" transform="matrix(12.8,0,0,11.9,122.5,304.4)" />
<use xlink:href="#f3_1e" transform="matrix(12.8,0,0,11.9,171.6,304.4)" />
<use xlink:href="#f3_19" transform="matrix(12.8,0,0,11.9,183.9,304.4)" />
<use xlink:href="#f3_1d" transform="matrix(12.8,0,0,11.9,189.8,304.4)" />
<use xlink:href="#f4_x" transform="matrix(12.8,0,0,11.9,70.1,304.4)" />
<use xlink:href="#f4_42" transform="matrix(12.8,0,0,11.9,84,304.4)" />
<use xlink:href="#f4_h" transform="matrix(12.8,0,0,11.9,143.6,304.4)" />
<use xlink:href="#f4_42" transform="matrix(12.8,0,0,11.9,157.6,304.4)" />
</g>
</g>
<g fill="#000000" >
<use xlink:href="#f2_25" transform="matrix(12,0,0,12,55,340.3)" />
<use xlink:href="#f2_i" transform="matrix(12,0,0,12,60.1,340.3)" />
<use xlink:href="#f2_21" transform="matrix(12,0,0,12,64.7,340.3)" />
<use xlink:href="#f2_i" transform="matrix(12,0,0,12,72.8,340.3)" />
<use xlink:href="#f2_g" transform="matrix(12,0,0,12,77.4,340.3)" />
</g>
<path d="M116.2,335.5h31.4m17.2,0h31.3" class="g4_139" />
<g clip-path="url(#c5_139)">
<g fill="#000000" >
<use xlink:href="#f2_i" transform="matrix(11.9,0,0,11.7,198.2,340.1)" />
<use xlink:href="#f2_i" transform="matrix(11.9,0,0,11.7,202.7,340.1)" />
<use xlink:href="#f2_i" transform="matrix(11.9,0,0,11.7,207.3,340.1)" />
<use xlink:href="#f2_i" transform="matrix(11.9,0,0,11.7,211.8,340.1)" />
<use xlink:href="#f2_i" transform="matrix(11.9,0,0,11.7,216.4,340.1)" />
<use xlink:href="#f2_i" transform="matrix(11.9,0,0,11.7,221,340.1)" />
<use xlink:href="#f2_i" transform="matrix(11.9,0,0,11.7,225.5,340.1)" />
<use xlink:href="#f2_i" transform="matrix(11.9,0,0,11.7,230.1,340.1)" />
<use xlink:href="#f2_i" transform="matrix(11.9,0,0,11.7,234.6,340.1)" />
<use xlink:href="#f2_i" transform="matrix(11.9,0,0,11.7,239.2,340.1)" />
<use xlink:href="#f2_i" transform="matrix(11.9,0,0,11.7,243.8,340.1)" />
<use xlink:href="#f2_i" transform="matrix(11.9,0,0,11.7,248.3,340.1)" />
<use xlink:href="#f2_c" transform="matrix(11.9,0,0,11.7,252.9,340.1)" />
<use xlink:href="#f2_m" transform="matrix(11.9,0,0,11.7,259.4,340.1)" />
<use xlink:href="#f2_d" transform="matrix(11.9,0,0,11.7,268.5,340.1)" />
<use xlink:href="#f3_1d" transform="matrix(11.9,0,0,11.7,117.6,328.7)" />
<use xlink:href="#f3_1e" transform="matrix(11.9,0,0,11.7,132.8,328.7)" />
<use xlink:href="#f3_1d" transform="matrix(11.9,0,0,11.7,166.1,328.7)" />
<use xlink:href="#f3_1e" transform="matrix(11.9,0,0,11.7,181.3,328.7)" />
<use xlink:href="#f3_2e" transform="matrix(11.9,0,0,11.7,89.4,340.1)" />
<use xlink:href="#f3_1d" transform="matrix(11.9,0,0,11.7,118.1,354.1)" />
<use xlink:href="#f3_13" transform="matrix(11.9,0,0,11.7,133.2,354.1)" />
<use xlink:href="#f3_1d" transform="matrix(11.9,0,0,11.7,169.1,354.1)" />
<use xlink:href="#f3_19" transform="matrix(11.9,0,0,11.7,184.3,354.1)" />
<use xlink:href="#f4_x" transform="matrix(11.9,0,0,11.7,101.6,340.1)" />
<use xlink:href="#f4_h" transform="matrix(11.9,0,0,11.7,151.3,340.1)" />
</g>
</g>
<g fill="#000000" >
<use xlink:href="#f5_1e" transform="matrix(12,0,0,12,55,396.9)" />
<use xlink:href="#f5_2b" transform="matrix(12,0,0,12,68.2,396.9)" />
<use xlink:href="#f5_2j" transform="matrix(12,0,0,12,77.4,396.9)" />
<use xlink:href="#f5_g" transform="matrix(12,0,0,12,90.6,396.9)" />
<use xlink:href="#f5_1y" transform="matrix(12,0,0,12,99.7,396.9)" />
<use xlink:href="#f5_2l" transform="matrix(12,0,0,12,108.9,396.9)" />
<use xlink:href="#f5_1j" transform="matrix(12,0,0,12,122.7,396.9)" />
<use xlink:href="#f5_2a" transform="matrix(12,0,0,12,132.8,396.9)" />
<use xlink:href="#f5_21" transform="matrix(12,0,0,12,142.1,396.9)" />
<use xlink:href="#f5_28" transform="matrix(12,0,0,12,150.2,396.9)" />
<use xlink:href="#f5_28" transform="matrix(12,0,0,12,155.3,396.9)" />
<use xlink:href="#f5_53" transform="matrix(12,0,0,12,160.4,396.9)" />
<use xlink:href="#f5_2f" transform="matrix(12,0,0,12,166.5,396.9)" />
<use xlink:href="#f5_28" transform="matrix(12,0,0,12,178.3,396.9)" />
<use xlink:href="#f5_1x" transform="matrix(12,0,0,12,183.4,396.9)" />
<use xlink:href="#f5_2j" transform="matrix(12,0,0,12,191.5,396.9)" />
<use xlink:href="#f2_2a" transform="matrix(12,0,0,12,55,417.9)" />
<use xlink:href="#f2_l" transform="matrix(8,0,0,8,64.2,418.7)" />
<use xlink:href="#f2_2f" transform="matrix(12,0,0,12,74.9,417.9)" />
<use xlink:href="#f2_25" transform="matrix(12,0,0,12,82,417.9)" />
<use xlink:href="#f2_2a" transform="matrix(12,0,0,12,87.1,417.9)" />
<use xlink:href="#f2_25" transform="matrix(12,0,0,12,100.9,417.9)" />
<use xlink:href="#f2_x" transform="matrix(12,0,0,12,110.5,417.9)" />
<use xlink:href="#f2_2a" transform="matrix(12,0,0,12,125.5,417.9)" />
<use xlink:href="#f2_m" transform="matrix(8,0,0,8,134.7,418.7)" />
<use xlink:href="#f2_2f" transform="matrix(12,0,0,12,145.3,417.9)" />
<use xlink:href="#f2_25" transform="matrix(12,0,0,12,152.5,417.9)" />
<use xlink:href="#f2_2a" transform="matrix(12,0,0,12,157.6,417.9)" />
<use xlink:href="#f2_2e" transform="matrix(12,0,0,12,171.3,417.9)" />
<use xlink:href="#f2_2b" transform="matrix(12,0,0,12,55,439)" />
<use xlink:href="#f2_2e" transform="matrix(12,0,0,12,64.2,439)" />
<use xlink:href="#f2_22" transform="matrix(12,0,0,12,74.9,439)" />
<use xlink:href="#f2_2b" transform="matrix(12,0,0,12,81,439)" />
<use xlink:href="#f2_2e" transform="matrix(12,0,0,12,90.1,439)" />
<use xlink:href="#f2_2f" transform="matrix(12,0,0,12,100.8,439)" />
<use xlink:href="#f2_29" transform="matrix(12,0,0,12,107.9,439)" />
<use xlink:href="#f2_1x" transform="matrix(12,0,0,12,122.1,439)" />
<use xlink:href="#f2_28" transform="matrix(12,0,0,12,130.2,439)" />
<use xlink:href="#f2_28" transform="matrix(12,0,0,12,135.3,439)" />
<use xlink:href="#f2_1x" transform="matrix(12,0,0,12,145.1,439)" />
<use xlink:href="#f2_2a" transform="matrix(12,0,0,12,153.2,439)" />
<use xlink:href="#f2_23" transform="matrix(12,0,0,12,162.4,439)" />
<use xlink:href="#f2_28" transform="matrix(12,0,0,12,171.6,439)" />
<use xlink:href="#f2_21" transform="matrix(12,0,0,12,176.7,439)" />
<use xlink:href="#f2_2f" transform="matrix(12,0,0,12,184.9,439)" />
<use xlink:href="#f2_2a" transform="matrix(12,0,0,12,55,460.1)" />
<use xlink:href="#f2_l" transform="matrix(8,0,0,8,64.2,460.8)" />
<use xlink:href="#f2_25" transform="matrix(12,0,0,12,70.3,460.1)" />
<use xlink:href="#f2_x" transform="matrix(12,0,0,12,80,460.1)" />
<use xlink:href="#f2_2a" transform="matrix(12,0,0,12,94.9,460.1)" />
<use xlink:href="#f2_m" transform="matrix(8,0,0,8,104.1,460.8)" />
<use xlink:href="#f2_2e" transform="matrix(12,0,0,12,110.2,460.1)" />
<use xlink:href="#f2_1j" transform="matrix(12,0,0,12,55,481.2)" />
<use xlink:href="#f2_2h" transform="matrix(12,0,0,12,65.2,481.2)" />
<use xlink:href="#f2_1y" transform="matrix(12,0,0,12,74.4,481.2)" />
<use xlink:href="#f2_2f" transform="matrix(12,0,0,12,83.5,481.2)" />
<use xlink:href="#f2_2g" transform="matrix(12,0,0,12,90.7,481.2)" />
<use xlink:href="#f2_25" transform="matrix(12,0,0,12,95.8,481.2)" />
<use xlink:href="#f2_2g" transform="matrix(12,0,0,12,100.9,481.2)" />
<use xlink:href="#f2_2h" transform="matrix(12,0,0,12,106,481.2)" />
<use xlink:href="#f2_2g" transform="matrix(12,0,0,12,115.1,481.2)" />
<use xlink:href="#f2_25" transform="matrix(12,0,0,12,120.2,481.2)" />
<use xlink:href="#f2_2a" transform="matrix(12,0,0,12,125.4,481.2)" />
<use xlink:href="#f2_23" transform="matrix(12,0,0,12,134.5,481.2)" />
<use xlink:href="#f2_25" transform="matrix(12,0,0,12,148.2,481.2)" />
<use xlink:href="#f2_1x" transform="matrix(12,0,0,12,157.9,481.2)" />
<use xlink:href="#f2_2a" transform="matrix(12,0,0,12,166,481.2)" />
<use xlink:href="#f2_20" transform="matrix(12,0,0,12,175.2,481.2)" />
<use xlink:href="#f2_2e" transform="matrix(12,0,0,12,188.9,481.2)" />
<use xlink:href="#f2_22" transform="matrix(12,0,0,12,199.7,481.2)" />
<use xlink:href="#f2_2e" transform="matrix(12,0,0,12,205.8,481.2)" />
<use xlink:href="#f2_2b" transform="matrix(12,0,0,12,211.9,481.2)" />
<use xlink:href="#f2_29" transform="matrix(12,0,0,12,221.1,481.2)" />
<use xlink:href="#f2_15" transform="matrix(12,0,0,12,239.8,481.2)" />
<use xlink:href="#f2_2d" transform="matrix(12,0,0,12,251,481.2)" />
<use xlink:href="#f2_2f" transform="matrix(12,0,0,12,260.2,481.2)" />
<use xlink:href="#f2_i" transform="matrix(12,0,0,12,267.3,481.2)" />
<use xlink:href="#f2_c" transform="matrix(12,0,0,12,271.9,481.2)" />
<use xlink:href="#f2_l" transform="matrix(12,0,0,12,278,481.2)" />
<use xlink:href="#f2_d" transform="matrix(12,0,0,12,287.2,481.2)" />
<use xlink:href="#f2_1x" transform="matrix(12,0,0,12,297.9,481.2)" />
<use xlink:href="#f2_2a" transform="matrix(12,0,0,12,306.1,481.2)" />
<use xlink:href="#f2_20" transform="matrix(12,0,0,12,315.2,481.2)" />
<use xlink:href="#f2_c" transform="matrix(12,0,0,12,328.9,481.2)" />
<use xlink:href="#f2_m" transform="matrix(12,0,0,12,335,481.2)" />
<use xlink:href="#f2_d" transform="matrix(12,0,0,12,344.2,481.2)" />
<use xlink:href="#f2_g" transform="matrix(12,0,0,12,350.3,481.2)" />
<use xlink:href="#f2_2j" transform="matrix(12,0,0,12,359.5,481.2)" />
<use xlink:href="#f2_21" transform="matrix(12,0,0,12,372.7,481.2)" />
<use xlink:href="#f2_23" transform="matrix(12,0,0,12,385.5,481.2)" />
<use xlink:href="#f2_21" transform="matrix(12,0,0,12,394.6,481.2)" />
<use xlink:href="#f2_2g" transform="matrix(12,0,0,12,402.8,481.2)" />
</g>
<path d="M58.1,509.1H90.8m17.6,0h25.5m19.5,0h48.3" class="g5_139" />
<g clip-path="url(#c6_139)">
<g fill="#000000" >
<use xlink:href="#f2_l" transform="matrix(6.9,0,0,6.8,75.3,506.8)" />
<use xlink:href="#f2_m" transform="matrix(6.9,0,0,6.8,122.2,506.8)" />
<use xlink:href="#f2_m" transform="matrix(6.9,0,0,6.8,163.4,506.8)" />
<use xlink:href="#f2_l" transform="matrix(6.9,0,0,6.8,194.6,506.8)" />
<use xlink:href="#f2_i" transform="matrix(11.9,0,0,11.7,203.7,513.6)" />
<use xlink:href="#f2_i" transform="matrix(11.9,0,0,11.7,208.3,513.6)" />
<use xlink:href="#f2_i" transform="matrix(11.9,0,0,11.7,212.9,513.6)" />
<use xlink:href="#f2_i" transform="matrix(11.9,0,0,11.7,217.5,513.6)" />
<use xlink:href="#f2_i" transform="matrix(11.9,0,0,11.7,222.1,513.6)" />
<use xlink:href="#f2_i" transform="matrix(11.9,0,0,11.7,226.7,513.6)" />
<use xlink:href="#f2_i" transform="matrix(11.9,0,0,11.7,231.3,513.6)" />
<use xlink:href="#f2_i" transform="matrix(11.9,0,0,11.7,235.9,513.6)" />
<use xlink:href="#f2_i" transform="matrix(11.9,0,0,11.7,240.5,513.6)" />
<use xlink:href="#f2_c" transform="matrix(11.9,0,0,11.7,245.1,513.6)" />
<use xlink:href="#f2_n" transform="matrix(11.9,0,0,11.7,251.1,513.6)" />
<use xlink:href="#f2_d" transform="matrix(11.9,0,0,11.7,259.7,513.6)" />
<use xlink:href="#f3_2a" transform="matrix(11.9,0,0,11.7,67.6,502.2)" />
<use xlink:href="#f3_2a" transform="matrix(11.9,0,0,11.7,113.3,502.2)" />
<use xlink:href="#f3_2a" transform="matrix(11.9,0,0,11.7,154.6,502.2)" />
<use xlink:href="#f3_2a" transform="matrix(11.9,0,0,11.7,186.8,502.2)" />
<use xlink:href="#f3_1f" transform="matrix(11.9,0,0,11.7,58.7,527.6)" />
<use xlink:href="#f3_1d" transform="matrix(11.9,0,0,11.7,71.9,527.6)" />
<use xlink:href="#f3_1d" transform="matrix(11.9,0,0,11.7,109.8,527.6)" />
<use xlink:href="#f3_19" transform="matrix(11.9,0,0,11.7,124.9,527.6)" />
<use xlink:href="#f3_1d" transform="matrix(11.9,0,0,11.7,163.6,527.6)" />
<use xlink:href="#f3_13" transform="matrix(11.9,0,0,11.7,178.8,527.6)" />
<use xlink:href="#f4_h" transform="matrix(11.9,0,0,11.7,173.7,502.2)" />
<use xlink:href="#f4_f" transform="matrix(11.9,0,0,11.7,94.6,513.6)" />
<use xlink:href="#f4_x" transform="matrix(11.9,0,0,11.7,138.8,513.6)" />
</g>
</g>
<g fill="#000000" >
<use xlink:href="#f2_18" transform="matrix(12,0,0,12,55,549.3)" />
<use xlink:href="#f2_21" transform="matrix(12,0,0,12,68.2,549.3)" />
<use xlink:href="#f2_2e" transform="matrix(12,0,0,12,76.4,549.3)" />
<use xlink:href="#f2_21" transform="matrix(12,0,0,12,82.5,549.3)" />
<use xlink:href="#f2_g" transform="matrix(12,0,0,12,90.6,549.3)" />
<use xlink:href="#f2_1f" transform="matrix(12,0,0,12,99.8,549.3)" />
<use xlink:href="#f2_1d" transform="matrix(12,0,0,12,113,549.3)" />
<use xlink:href="#f2_g" transform="matrix(12,0,0,12,129.3,549.3)" />
<use xlink:href="#f2_1d" transform="matrix(12,0,0,12,138.5,549.3)" />
<use xlink:href="#f2_19" transform="matrix(12,0,0,12,154.8,549.3)" />
<use xlink:href="#f2_1x" transform="matrix(12,0,0,12,165.5,549.3)" />
<use xlink:href="#f2_2a" transform="matrix(12,0,0,12,173.7,549.3)" />
<use xlink:href="#f2_20" transform="matrix(12,0,0,12,182.8,549.3)" />
<use xlink:href="#f2_1d" transform="matrix(12,0,0,12,196.6,549.3)" />
<use xlink:href="#f2_13" transform="matrix(12,0,0,12,212.9,549.3)" />
<use xlink:href="#f2_2e" transform="matrix(12,0,0,12,229.6,549.3)" />
<use xlink:href="#f2_21" transform="matrix(12,0,0,12,235.7,549.3)" />
<use xlink:href="#f2_2c" transform="matrix(12,0,0,12,243.9,549.3)" />
<use xlink:href="#f2_2e" transform="matrix(12,0,0,12,253.1,549.3)" />
<use xlink:href="#f2_21" transform="matrix(12,0,0,12,259.2,549.3)" />
<use xlink:href="#f2_2f" transform="matrix(12,0,0,12,267.3,549.3)" />
<use xlink:href="#f2_21" transform="matrix(12,0,0,12,274.4,549.3)" />
<use xlink:href="#f2_2a" transform="matrix(12,0,0,12,282.6,549.3)" />
<use xlink:href="#f2_2g" transform="matrix(12,0,0,12,291.7,549.3)" />
<use xlink:href="#f2_29" transform="matrix(12,0,0,12,301.4,549.3)" />
<use xlink:href="#f2_1x" transform="matrix(12,0,0,12,315.6,549.3)" />
<use xlink:href="#f2_23" transform="matrix(12,0,0,12,323.7,549.3)" />
<use xlink:href="#f2_2a" transform="matrix(12,0,0,12,332.9,549.3)" />
<use xlink:href="#f2_25" transform="matrix(12,0,0,12,342,549.3)" />
<use xlink:href="#f2_2g" transform="matrix(12,0,0,12,347.1,549.3)" />
<use xlink:href="#f2_2h" transform="matrix(12,0,0,12,352.3,549.3)" />
<use xlink:href="#f2_20" transform="matrix(12,0,0,12,361.5,549.3)" />
<use xlink:href="#f2_21" transform="matrix(12,0,0,12,370.6,549.3)" />
<use xlink:href="#f2_2f" transform="matrix(12,0,0,12,378.7,549.3)" />
<use xlink:href="#f2_2b" transform="matrix(12,0,0,12,390.4,549.3)" />
<use xlink:href="#f2_22" transform="matrix(12,0,0,12,399.6,549.3)" />
<use xlink:href="#f2_20" transform="matrix(12,0,0,12,410.3,549.3)" />
<use xlink:href="#f2_25" transform="matrix(12,0,0,12,419.4,549.3)" />
<use xlink:href="#f2_2f" transform="matrix(12,0,0,12,424.5,549.3)" />
<use xlink:href="#f2_2g" transform="matrix(12,0,0,12,431.7,549.3)" />
<use xlink:href="#f2_1x" transform="matrix(12,0,0,12,436.8,549.3)" />
<use xlink:href="#f2_2a" transform="matrix(12,0,0,12,445,549.3)" />
<use xlink:href="#f2_1z" transform="matrix(12,0,0,12,454,549.3)" />
<use xlink:href="#f2_21" transform="matrix(12,0,0,12,462.2,549.3)" />
<use xlink:href="#f2_2f" transform="matrix(12,0,0,12,470.3,549.3)" />
<use xlink:href="#f2_i" transform="matrix(12,0,0,12,477.5,549.3)" />
<use xlink:href="#f2_11" transform="matrix(12,0,0,12,486.6,549.3)" />
<use xlink:href="#f2_2c" transform="matrix(12,0,0,12,499.8,549.3)" />
<use xlink:href="#f2_2c" transform="matrix(12,0,0,12,509,549.3)" />
<use xlink:href="#f2_28" transform="matrix(12,0,0,12,518.1,549.3)" />
<use xlink:href="#f2_2l" transform="matrix(12,0,0,12,523.2,549.3)" />
<use xlink:href="#f2_25" transform="matrix(12,0,0,12,532.4,549.3)" />
<use xlink:href="#f2_2a" transform="matrix(12,0,0,12,537.5,549.3)" />
<use xlink:href="#f2_23" transform="matrix(12,0,0,12,546.7,549.3)" />
<use xlink:href="#f2_2g" transform="matrix(12,0,0,12,560.4,549.3)" />
<use xlink:href="#f2_24" transform="matrix(12,0,0,12,565.6,549.3)" />
<use xlink:href="#f2_21" transform="matrix(12,0,0,12,574.6,549.3)" />
<use xlink:href="#f2_13" transform="matrix(12,0,0,12,587.4,549.3)" />
<use xlink:href="#f2_1x" transform="matrix(12,0,0,12,599.6,549.3)" />
<use xlink:href="#f2_2e" transform="matrix(12,0,0,12,607.7,549.3)" />
<use xlink:href="#f2_2g" transform="matrix(12,0,0,12,613.8,549.3)" />
<use xlink:href="#f2_21" transform="matrix(12,0,0,12,619,549.3)" />
<use xlink:href="#f2_2f" transform="matrix(12,0,0,12,627.1,549.3)" />
<use xlink:href="#f2_25" transform="matrix(12,0,0,12,634.2,549.3)" />
<use xlink:href="#f2_1x" transform="matrix(12,0,0,12,639.3,549.3)" />
<use xlink:href="#f2_2a" transform="matrix(12,0,0,12,647.4,549.3)" />
<use xlink:href="#f2_2f" transform="matrix(12,0,0,12,661.2,549.3)" />
<use xlink:href="#f2_25" transform="matrix(12,0,0,12,668.3,549.3)" />
<use xlink:href="#f2_23" transform="matrix(12,0,0,12,673.4,549.3)" />
<use xlink:href="#f2_2a" transform="matrix(12,0,0,12,682.6,549.3)" />
<use xlink:href="#f2_1z" transform="matrix(12,0,0,12,696.3,549.3)" />
<use xlink:href="#f2_2b" transform="matrix(12,0,0,12,704.5,549.3)" />
<use xlink:href="#f2_2a" transform="matrix(12,0,0,12,713.6,549.3)" />
<use xlink:href="#f2_2i" transform="matrix(12,0,0,12,722.8,549.3)" />
<use xlink:href="#f2_21" transform="matrix(12,0,0,12,732,549.3)" />
<use xlink:href="#f2_2a" transform="matrix(12,0,0,12,740.1,549.3)" />
<use xlink:href="#f2_2g" transform="matrix(12,0,0,12,749.3,549.3)" />
<use xlink:href="#f2_25" transform="matrix(12,0,0,12,754.4,549.3)" />
<use xlink:href="#f2_2b" transform="matrix(12,0,0,12,759.5,549.3)" />
<use xlink:href="#f2_2a" transform="matrix(12,0,0,12,768.6,549.3)" />
<use xlink:href="#f2_g" transform="matrix(12,0,0,12,777.8,549.3)" />
<use xlink:href="#f2_1f" transform="matrix(12,0,0,12,55,570.4)" />
<use xlink:href="#f2_1d" transform="matrix(12,0,0,12,68.2,570.4)" />
<use xlink:href="#f2_x" transform="matrix(12,0,0,12,89.1,570.4)" />
<use xlink:href="#f5_4y" transform="matrix(12,0,0,12,104,570.4)" />
<use xlink:href="#f2_2h" transform="matrix(12,0,0,12,117.8,570.4)" />
<use xlink:href="#f2_g" transform="matrix(12,0,0,12,127,570.4)" />
<use xlink:href="#f2_1d" transform="matrix(12,0,0,12,136.1,570.4)" />
<use xlink:href="#f2_19" transform="matrix(12,0,0,12,152.4,570.4)" />
<use xlink:href="#f2_x" transform="matrix(12,0,0,12,163.1,570.4)" />
<use xlink:href="#f2_f" transform="matrix(12,0,0,12,178.1,570.4)" />
<use xlink:href="#f2_2i" transform="matrix(12,0,0,12,188.4,570.4)" />
<use xlink:href="#f2_g" transform="matrix(12,0,0,12,197.6,570.4)" />
<use xlink:href="#f2_1d" transform="matrix(12,0,0,12,206.7,570.4)" />
<use xlink:href="#f2_13" transform="matrix(12,0,0,12,223,570.4)" />
<use xlink:href="#f2_x" transform="matrix(12,0,0,12,239.8,570.4)" />
<use xlink:href="#f2_f" transform="matrix(12,0,0,12,254.7,570.4)" />
<use xlink:href="#f2_1i" transform="matrix(12,0,0,12,265,570.4)" />
<use xlink:href="#f2_1j" transform="matrix(12,0,0,12,55,591.5)" />
<use xlink:href="#f2_2h" transform="matrix(12,0,0,12,65.2,591.5)" />
<use xlink:href="#f2_1y" transform="matrix(12,0,0,12,74.4,591.5)" />
<use xlink:href="#f2_2f" transform="matrix(12,0,0,12,83.5,591.5)" />
<use xlink:href="#f2_2g" transform="matrix(12,0,0,12,90.7,591.5)" />
<use xlink:href="#f2_25" transform="matrix(12,0,0,12,95.8,591.5)" />
<use xlink:href="#f2_2g" transform="matrix(12,0,0,12,100.9,591.5)" />
<use xlink:href="#f2_2h" transform="matrix(12,0,0,12,106,591.5)" />
<use xlink:href="#f2_2g" transform="matrix(12,0,0,12,115.1,591.5)" />
<use xlink:href="#f2_25" transform="matrix(12,0,0,12,120.2,591.5)" />
<use xlink:href="#f2_2a" transform="matrix(12,0,0,12,125.4,591.5)" />
<use xlink:href="#f2_23" transform="matrix(12,0,0,12,134.5,591.5)" />
<use xlink:href="#f2_2g" transform="matrix(12,0,0,12,148.2,591.5)" />
<use xlink:href="#f2_24" transform="matrix(12,0,0,12,153.3,591.5)" />
<use xlink:href="#f2_21" transform="matrix(12,0,0,12,162.5,591.5)" />
<use xlink:href="#f2_2f" transform="matrix(12,0,0,12,170.6,591.5)" />
<use xlink:href="#f2_21" transform="matrix(12,0,0,12,177.8,591.5)" />
<use xlink:href="#f2_25" transform="matrix(12,0,0,12,190.4,591.5)" />
<use xlink:href="#f2_2a" transform="matrix(12,0,0,12,195.5,591.5)" />
<use xlink:href="#f2_15" transform="matrix(12,0,0,12,209.3,591.5)" />
<use xlink:href="#f2_2d" transform="matrix(12,0,0,12,220.5,591.5)" />
<use xlink:href="#f2_i" transform="matrix(12,0,0,12,229.6,591.5)" />
<use xlink:href="#f2_c" transform="matrix(12,0,0,12,234.2,591.5)" />
<use xlink:href="#f2_n" transform="matrix(12,0,0,12,240.3,591.5)" />
<use xlink:href="#f2_d" transform="matrix(12,0,0,12,249.5,591.5)" />
<use xlink:href="#f2_g" transform="matrix(12,0,0,12,255.6,591.5)" />
<use xlink:href="#f2_2j" transform="matrix(12,0,0,12,264.8,591.5)" />
<use xlink:href="#f2_21" transform="matrix(12,0,0,12,278,591.5)" />
<use xlink:href="#f2_23" transform="matrix(12,0,0,12,290.7,591.5)" />
<use xlink:href="#f2_21" transform="matrix(12,0,0,12,299.9,591.5)" />
<use xlink:href="#f2_2g" transform="matrix(12,0,0,12,308,591.5)" />
</g>
<path d="M58.1,619.2H76m17.1,0H109m19.4,0h48" class="g6_139" />
<g clip-path="url(#c7_139)">
<g fill="#000000" >
<use xlink:href="#f2_m" transform="matrix(6.9,0,0,6.8,68,617)" />
<use xlink:href="#f2_l" transform="matrix(6.9,0,0,6.8,101.8,617)" />
<use xlink:href="#f2_m" transform="matrix(6.9,0,0,6.8,138.3,617)" />
<use xlink:href="#f2_l" transform="matrix(6.9,0,0,6.8,169.3,617)" />
<use xlink:href="#f2_i" transform="matrix(11.9,0,0,11.7,178.4,623.8)" />
<use xlink:href="#f2_i" transform="matrix(11.9,0,0,11.7,183,623.8)" />
<use xlink:href="#f2_i" transform="matrix(11.9,0,0,11.7,187.6,623.8)" />
<use xlink:href="#f2_i" transform="matrix(11.9,0,0,11.7,192.1,623.8)" />
<use xlink:href="#f2_i" transform="matrix(11.9,0,0,11.7,196.7,623.8)" />
<use xlink:href="#f2_i" transform="matrix(11.9,0,0,11.7,201.3,623.8)" />
<use xlink:href="#f2_i" transform="matrix(11.9,0,0,11.7,205.9,623.8)" />
<use xlink:href="#f2_i" transform="matrix(11.9,0,0,11.7,210.5,623.8)" />
<use xlink:href="#f2_i" transform="matrix(11.9,0,0,11.7,215.1,623.8)" />
<use xlink:href="#f2_i" transform="matrix(11.9,0,0,11.7,219.6,623.8)" />
<use xlink:href="#f2_i" transform="matrix(11.9,0,0,11.7,224.2,623.8)" />
<use xlink:href="#f2_i" transform="matrix(11.9,0,0,11.7,228.8,623.8)" />
<use xlink:href="#f2_i" transform="matrix(11.9,0,0,11.7,233.4,623.8)" />
<use xlink:href="#f2_c" transform="matrix(11.9,0,0,11.7,238,623.8)" />
<use xlink:href="#f2_o" transform="matrix(11.9,0,0,11.7,244.5,623.8)" />
<use xlink:href="#f2_d" transform="matrix(11.9,0,0,11.7,253.6,623.8)" />
<use xlink:href="#f3_2a" transform="matrix(11.9,0,0,11.7,59.2,612.4)" />
<use xlink:href="#f3_2a" transform="matrix(11.9,0,0,11.7,94.2,612.4)" />
<use xlink:href="#f3_2a" transform="matrix(11.9,0,0,11.7,129.5,612.4)" />
<use xlink:href="#f3_2a" transform="matrix(11.9,0,0,11.7,161.6,612.4)" />
<use xlink:href="#f3_2i" transform="matrix(11.9,0,0,11.7,62.8,637.8)" />
<use xlink:href="#f3_2h" transform="matrix(11.9,0,0,11.7,96,637.8)" />
<use xlink:href="#f3_1i" transform="matrix(11.9,0,0,11.7,147,637.8)" />
<use xlink:href="#f4_h" transform="matrix(11.9,0,0,11.7,148.5,612.4)" />
<use xlink:href="#f4_h" transform="matrix(11.9,0,0,11.7,79.7,623.8)" />
<use xlink:href="#f4_x" transform="matrix(11.9,0,0,11.7,113.8,623.8)" />
</g>
</g>
<g fill="#000000" >
<use xlink:href="#f2_15" transform="matrix(12,0,0,12,55,659.5)" />
<use xlink:href="#f2_2d" transform="matrix(12,0,0,12,66.2,659.5)" />
<use xlink:href="#f2_2h" transform="matrix(12,0,0,12,75.4,659.5)" />
<use xlink:href="#f2_1x" transform="matrix(12,0,0,12,84.5,659.5)" />
<use xlink:href="#f2_2g" transform="matrix(12,0,0,12,92.7,659.5)" />
<use xlink:href="#f2_25" transform="matrix(12,0,0,12,97.8,659.5)" />
<use xlink:href="#f2_2b" transform="matrix(12,0,0,12,102.9,659.5)" />
<use xlink:href="#f2_2a" transform="matrix(12,0,0,12,112.1,659.5)" />
<use xlink:href="#f2_c" transform="matrix(12,0,0,12,125.8,659.5)" />
<use xlink:href="#f2_o" transform="matrix(12,0,0,12,131.9,659.5)" />
<use xlink:href="#f2_d" transform="matrix(12,0,0,12,141.1,659.5)" />
<use xlink:href="#f2_23" transform="matrix(12,0,0,12,151.7,659.5)" />
<use xlink:href="#f2_25" transform="matrix(12,0,0,12,160.9,659.5)" />
<use xlink:href="#f2_2i" transform="matrix(12,0,0,12,166,659.5)" />
<use xlink:href="#f2_21" transform="matrix(12,0,0,12,175.2,659.5)" />
<use xlink:href="#f2_2f" transform="matrix(12,0,0,12,183.3,659.5)" />
<use xlink:href="#f2_2h" transform="matrix(12,0,0,12,195,659.5)" />
<use xlink:href="#f2_2f" transform="matrix(12,0,0,12,204.2,659.5)" />
<use xlink:href="#f2_1x" transform="matrix(12,0,0,12,215.9,659.5)" />
<use xlink:href="#f2_2e" transform="matrix(12,0,0,12,228.6,659.5)" />
<use xlink:href="#f2_21" transform="matrix(12,0,0,12,234.7,659.5)" />
<use xlink:href="#f2_28" transform="matrix(12,0,0,12,242.8,659.5)" />
<use xlink:href="#f2_1x" transform="matrix(12,0,0,12,247.9,659.5)" />
<use xlink:href="#f2_2g" transform="matrix(12,0,0,12,256.1,659.5)" />
<use xlink:href="#f2_25" transform="matrix(12,0,0,12,261.2,659.5)" />
<use xlink:href="#f2_2b" transform="matrix(12,0,0,12,266.3,659.5)" />
<use xlink:href="#f2_2a" transform="matrix(12,0,0,12,275.4,659.5)" />
<use xlink:href="#f2_1y" transform="matrix(12,0,0,12,289.2,659.5)" />
<use xlink:href="#f2_21" transform="matrix(12,0,0,12,298.3,659.5)" />
<use xlink:href="#f2_2g" transform="matrix(12,0,0,12,306.5,659.5)" />
<use xlink:href="#f2_2j" transform="matrix(12,0,0,12,311.6,659.5)" />
<use xlink:href="#f2_21" transform="matrix(12,0,0,12,324.7,659.5)" />
<use xlink:href="#f2_21" transform="matrix(12,0,0,12,332.9,659.5)" />
<use xlink:href="#f2_2a" transform="matrix(12,0,0,12,341,659.5)" />
<use xlink:href="#f2_2b" transform="matrix(12,0,0,12,354.8,659.5)" />
<use xlink:href="#f2_1y" transform="matrix(12,0,0,12,363.9,659.5)" />
<use xlink:href="#f2_26" transform="matrix(12,0,0,12,373.1,659.5)" />
<use xlink:href="#f2_21" transform="matrix(12,0,0,12,378.2,659.5)" />
<use xlink:href="#f2_1z" transform="matrix(12,0,0,12,386.4,659.5)" />
<use xlink:href="#f2_2g" transform="matrix(12,0,0,12,394.5,659.5)" />
<use xlink:href="#f2_1x" transform="matrix(12,0,0,12,404.1,659.5)" />
<use xlink:href="#f2_2a" transform="matrix(12,0,0,12,412.3,659.5)" />
<use xlink:href="#f2_20" transform="matrix(12,0,0,12,421.4,659.5)" />
<use xlink:href="#f2_25" transform="matrix(12,0,0,12,435.2,659.5)" />
<use xlink:href="#f2_29" transform="matrix(12,0,0,12,440.3,659.5)" />
<use xlink:href="#f2_1x" transform="matrix(12,0,0,12,454.4,659.5)" />
<use xlink:href="#f2_23" transform="matrix(12,0,0,12,462.6,659.5)" />
<use xlink:href="#f2_21" transform="matrix(12,0,0,12,471.7,659.5)" />
<use xlink:href="#f2_20" transform="matrix(12,0,0,12,484.4,659.5)" />
<use xlink:href="#f2_25" transform="matrix(12,0,0,12,493.6,659.5)" />
<use xlink:href="#f2_2f" transform="matrix(12,0,0,12,498.8,659.5)" />
<use xlink:href="#f2_2g" transform="matrix(12,0,0,12,505.9,659.5)" />
<use xlink:href="#f2_1x" transform="matrix(12,0,0,12,511,659.5)" />
<use xlink:href="#f2_2a" transform="matrix(12,0,0,12,519.2,659.5)" />
<use xlink:href="#f2_1z" transform="matrix(12,0,0,12,528.3,659.5)" />
<use xlink:href="#f2_21" transform="matrix(12,0,0,12,536.5,659.5)" />
<use xlink:href="#f2_25" transform="matrix(12,0,0,12,549.2,659.5)" />
<use xlink:href="#f2_2a" transform="matrix(12,0,0,12,554.3,659.5)" />
<use xlink:href="#f2_2g" transform="matrix(12,0,0,12,568,659.5)" />
<use xlink:href="#f2_21" transform="matrix(12,0,0,12,573.2,659.5)" />
<use xlink:href="#f2_2e" transform="matrix(12,0,0,12,581.2,659.5)" />
<use xlink:href="#f2_29" transform="matrix(12,0,0,12,587.3,659.5)" />
<use xlink:href="#f2_2f" transform="matrix(12,0,0,12,601.4,659.5)" />
<use xlink:href="#f2_2b" transform="matrix(12,0,0,12,613.1,659.5)" />
<use xlink:href="#f2_22" transform="matrix(12,0,0,12,622.4,659.5)" />
<use xlink:href="#f2_2e" transform="matrix(12,0,0,12,633.1,659.5)" />
<use xlink:href="#f2_21" transform="matrix(12,0,0,12,639.2,659.5)" />
<use xlink:href="#f2_22" transform="matrix(12,0,0,12,647.3,659.5)" />
<use xlink:href="#f2_2e" transform="matrix(12,0,0,12,653.3,659.5)" />
<use xlink:href="#f2_1x" transform="matrix(12,0,0,12,659.5,659.5)" />
<use xlink:href="#f2_1z" transform="matrix(12,0,0,12,667.6,659.5)" />
<use xlink:href="#f2_2g" transform="matrix(12,0,0,12,675.8,659.5)" />
<use xlink:href="#f2_25" transform="matrix(12,0,0,12,680.9,659.5)" />
<use xlink:href="#f2_2i" transform="matrix(12,0,0,12,686,659.5)" />
<use xlink:href="#f2_21" transform="matrix(12,0,0,12,695.2,659.5)" />
<use xlink:href="#f2_25" transform="matrix(12,0,0,12,707.9,659.5)" />
<use xlink:href="#f2_2a" transform="matrix(12,0,0,12,713,659.5)" />
<use xlink:href="#f2_20" transform="matrix(12,0,0,12,722.2,659.5)" />
<use xlink:href="#f2_21" transform="matrix(12,0,0,12,731.4,659.5)" />
<use xlink:href="#f2_2k" transform="matrix(12,0,0,12,739.5,659.5)" />
<use xlink:href="#f2_2b" transform="matrix(12,0,0,12,753.3,659.5)" />
<use xlink:href="#f2_22" transform="matrix(12,0,0,12,762.5,659.5)" />
<use xlink:href="#f2_2g" transform="matrix(12,0,0,12,773,659.5)" />
<use xlink:href="#f2_24" transform="matrix(12,0,0,12,778.1,659.5)" />
<use xlink:href="#f2_21" transform="matrix(12,0,0,12,787.3,659.5)" />
<use xlink:href="#f2_29" transform="matrix(12,0,0,12,55,680.6)" />
<use xlink:href="#f2_21" transform="matrix(12,0,0,12,69.1,680.6)" />
<use xlink:href="#f2_20" transform="matrix(12,0,0,12,77.3,680.6)" />
<use xlink:href="#f2_25" transform="matrix(12,0,0,12,86.4,680.6)" />
<use xlink:href="#f2_2h" transform="matrix(12,0,0,12,91.5,680.6)" />
<use xlink:href="#f2_29" transform="matrix(12,0,0,12,100.8,680.6)" />
<use xlink:href="#f2_1x" transform="matrix(12,0,0,12,119.5,680.6)" />
<use xlink:href="#f2_2a" transform="matrix(12,0,0,12,127.7,680.6)" />
<use xlink:href="#f2_20" transform="matrix(12,0,0,12,136.8,680.6)" />
<use xlink:href="#f2_2g" transform="matrix(12,0,0,12,150.7,680.6)" />
<use xlink:href="#f2_24" transform="matrix(12,0,0,12,155.8,680.6)" />
<use xlink:href="#f2_21" transform="matrix(12,0,0,12,164.9,680.6)" />
<use xlink:href="#f2_2e" transform="matrix(12,0,0,12,177.7,680.6)" />
<use xlink:href="#f2_1x" transform="matrix(12,0,0,12,183.8,680.6)" />
<use xlink:href="#f2_20" transform="matrix(12,0,0,12,192,680.6)" />
<use xlink:href="#f2_25" transform="matrix(12,0,0,12,201.1,680.6)" />
<use xlink:href="#f2_2h" transform="matrix(12,0,0,12,206.2,680.6)" />
<use xlink:href="#f2_2f" transform="matrix(12,0,0,12,215.3,680.6)" />
<use xlink:href="#f2_2b" transform="matrix(12,0,0,12,227,680.6)" />
<use xlink:href="#f2_22" transform="matrix(12,0,0,12,236.2,680.6)" />
<use xlink:href="#f2_1z" transform="matrix(12,0,0,12,246.8,680.6)" />
<use xlink:href="#f2_2h" transform="matrix(12,0,0,12,254.9,680.6)" />
<use xlink:href="#f2_2e" transform="matrix(12,0,0,12,264.1,680.6)" />
<use xlink:href="#f2_2i" transform="matrix(12,0,0,12,270.3,680.6)" />
<use xlink:href="#f2_1x" transform="matrix(12,0,0,12,279.4,680.6)" />
<use xlink:href="#f2_2g" transform="matrix(12,0,0,12,287.6,680.6)" />
<use xlink:href="#f2_2h" transform="matrix(12,0,0,12,292.7,680.6)" />
<use xlink:href="#f2_2e" transform="matrix(12,0,0,12,301.8,680.6)" />
<use xlink:href="#f2_21" transform="matrix(12,0,0,12,308,680.6)" />
<use xlink:href="#f2_2b" transform="matrix(12,0,0,12,320.7,680.6)" />
<use xlink:href="#f2_22" transform="matrix(12,0,0,12,329.8,680.6)" />
<use xlink:href="#f2_2g" transform="matrix(12,0,0,12,340.5,680.6)" />
<use xlink:href="#f2_24" transform="matrix(12,0,0,12,345.6,680.6)" />
<use xlink:href="#f2_21" transform="matrix(12,0,0,12,354.8,680.6)" />
<use xlink:href="#f2_1z" transform="matrix(12,0,0,12,367.5,680.6)" />
<use xlink:href="#f2_2h" transform="matrix(12,0,0,12,375.6,680.6)" />
<use xlink:href="#f2_2e" transform="matrix(12,0,0,12,384.8,680.6)" />
<use xlink:href="#f2_2i" transform="matrix(12,0,0,12,390.9,680.6)" />
<use xlink:href="#f2_21" transform="matrix(12,0,0,12,400.1,680.6)" />
<use xlink:href="#f2_20" transform="matrix(12,0,0,12,408.3,680.6)" />
<use xlink:href="#f2_2f" transform="matrix(12,0,0,12,421.9,680.6)" />
<use xlink:href="#f2_2c" transform="matrix(12,0,0,12,429.1,680.6)" />
<use xlink:href="#f2_24" transform="matrix(12,0,0,12,438.2,680.6)" />
<use xlink:href="#f2_21" transform="matrix(12,0,0,12,447.4,680.6)" />
<use xlink:href="#f2_2e" transform="matrix(12,0,0,12,455.5,680.6)" />
<use xlink:href="#f2_25" transform="matrix(12,0,0,12,461.7,680.6)" />
<use xlink:href="#f2_1z" transform="matrix(12,0,0,12,466.8,680.6)" />
<use xlink:href="#f2_1x" transform="matrix(12,0,0,12,474.9,680.6)" />
<use xlink:href="#f2_28" transform="matrix(12,0,0,12,483.1,680.6)" />
<use xlink:href="#f2_2f" transform="matrix(12,0,0,12,492.7,680.6)" />
<use xlink:href="#f2_2h" transform="matrix(12,0,0,12,499.9,680.6)" />
<use xlink:href="#f2_2e" transform="matrix(12,0,0,12,509,680.6)" />
<use xlink:href="#f2_22" transform="matrix(12,0,0,12,515.1,680.6)" />
<use xlink:href="#f2_1x" transform="matrix(12,0,0,12,521.1,680.6)" />
<use xlink:href="#f2_1z" transform="matrix(12,0,0,12,529.2,680.6)" />
<use xlink:href="#f2_21" transform="matrix(12,0,0,12,537.4,680.6)" />
<use xlink:href="#f2_i" transform="matrix(12,0,0,12,545.5,680.6)" />
<use xlink:href="#f2_19" transform="matrix(12,0,0,12,554.7,680.6)" />
<use xlink:href="#f2_2g" transform="matrix(12,0,0,12,560.9,680.6)" />
<use xlink:href="#f2_24" transform="matrix(12,0,0,12,570.5,680.6)" />
<use xlink:href="#f2_2b" transform="matrix(12,0,0,12,579.7,680.6)" />
<use xlink:href="#f2_28" transform="matrix(12,0,0,12,588.9,680.6)" />
<use xlink:href="#f2_20" transform="matrix(12,0,0,12,594,680.6)" />
<use xlink:href="#f2_2f" transform="matrix(12,0,0,12,603.1,680.6)" />
<use xlink:href="#f2_22" transform="matrix(12,0,0,12,614.8,680.6)" />
<use xlink:href="#f2_2b" transform="matrix(12,0,0,12,620.9,680.6)" />
<use xlink:href="#f2_2e" transform="matrix(12,0,0,12,630.1,680.6)" />
<use xlink:href="#f2_1x" transform="matrix(12,0,0,12,640.8,680.6)" />
<use xlink:href="#f2_2a" transform="matrix(12,0,0,12,648.9,680.6)" />
<use xlink:href="#f2_2l" transform="matrix(12,0,0,12,658.1,680.6)" />
<use xlink:href="#f2_1z" transform="matrix(12,0,0,12,671.8,680.6)" />
<use xlink:href="#f2_2h" transform="matrix(12,0,0,12,680,680.6)" />
<use xlink:href="#f2_2e" transform="matrix(12,0,0,12,689.1,680.6)" />
<use xlink:href="#f2_2i" transform="matrix(12,0,0,12,695.2,680.6)" />
<use xlink:href="#f2_21" transform="matrix(12,0,0,12,704.4,680.6)" />
<use xlink:href="#f2_20" transform="matrix(12,0,0,12,712.5,680.6)" />
<use xlink:href="#f2_2f" transform="matrix(12,0,0,12,726.3,680.6)" />
<use xlink:href="#f2_2c" transform="matrix(12,0,0,12,733.4,680.6)" />
<use xlink:href="#f2_24" transform="matrix(12,0,0,12,742.6,680.6)" />
<use xlink:href="#f2_21" transform="matrix(12,0,0,12,751.8,680.6)" />
<use xlink:href="#f2_2e" transform="matrix(12,0,0,12,759.9,680.6)" />
<use xlink:href="#f2_25" transform="matrix(12,0,0,12,766.1,680.6)" />
<use xlink:href="#f2_1z" transform="matrix(12,0,0,12,771.2,680.6)" />
<use xlink:href="#f2_1x" transform="matrix(12,0,0,12,779.3,680.6)" />
<use xlink:href="#f2_28" transform="matrix(12,0,0,12,787.3,680.6)" />
<use xlink:href="#f2_2f" transform="matrix(12,0,0,12,55,701.7)" />
<use xlink:href="#f2_2h" transform="matrix(12,0,0,12,62.1,701.7)" />
<use xlink:href="#f2_2e" transform="matrix(12,0,0,12,71.3,701.7)" />
<use xlink:href="#f2_22" transform="matrix(12,0,0,12,77.4,701.7)" />
<use xlink:href="#f2_1x" transform="matrix(12,0,0,12,83.5,701.7)" />
<use xlink:href="#f2_1z" transform="matrix(12,0,0,12,91.7,701.7)" />
<use xlink:href="#f2_21" transform="matrix(12,0,0,12,99.8,701.7)" />
<use xlink:href="#f2_i" transform="matrix(12,0,0,12,108,701.7)" />
<use xlink:href="#f2_c" transform="matrix(12,0,0,12,55,722.8)" />
<use xlink:href="#f2_1y" transform="matrix(12,0,0,12,61.1,722.8)" />
<use xlink:href="#f2_d" transform="matrix(12,0,0,12,70.3,722.8)" />
</g>
<image preserveAspectRatio="none" x="289" y="727" width="331" height="213" xlink:href="img/6.png" />
<image preserveAspectRatio="none" x="299" y="940" width="312" height="199" xlink:href="img/7.png" />
<path fill-rule="evenodd" d="M37.4,38.1h.7v-.7h-.7v.7Z" class="g7_139" />
<path fill-rule="evenodd" d="M37.4,38.1h.7v-.7h-.7v.7Z" class="g7_139" />
<path fill-rule="evenodd" d="M38.1,38.1H871.5v-.7H38.1v.7Z" class="g7_139" />
<path fill-rule="evenodd" d="M871.5,38.1h.7v-.7h-.7v.7Z" class="g7_139" />
<path fill-rule="evenodd" d="M871.5,38.1h.7v-.7h-.7v.7Z" class="g7_139" />
<path fill-rule="evenodd" d="M37.4,1248.2h.7V38.1h-.7V1248.2Z" class="g7_139" />
<path fill-rule="evenodd" d="M872.2,1248.2h.8V38.1h-.8V1248.2Z" class="g7_139" />
<path fill-rule="evenodd" d="M871.5,1248.2h.7V38.1h-.7V1248.2Z" class="g7_139" />
<path fill-rule="evenodd" d="M37.4,1249h.7v-.8h-.7v.8Z" class="g7_139" />
<path fill-rule="evenodd" d="M37.4,1249h.7v-.8h-.7v.8Z" class="g7_139" />
<path fill-rule="evenodd" d="M38.1,1249.7H871.5v-.7H38.1v.7Z" class="g7_139" />
<path fill-rule="evenodd" d="M38.1,1249H871.5v-.8H38.1v.8Z" class="g7_139" />
<path fill-rule="evenodd" d="M872.2,1249.7h.8v-1.5h-.8v1.5Z" class="g7_139" />
<path fill-rule="evenodd" d="M871.5,1249.7H873v-.7h-1.5v.7Z" class="g7_139" />
<path fill-rule="evenodd" d="M871.5,1249h.7v-.8h-.7v.8Z" class="g7_139" />
<path fill-rule="evenodd" d="M871.5,1249h.7v-.8h-.7v.8Z" class="g7_139" />
<defs>
<path d="M489,-15c0,0,-99,0,-179,30c0,0,-80,30,-136,91c0,0,-56,61,-85,152c0,0,-30,91,-30,212c0,0,0,123,32,218c0,0,33,96,92,161c0,0,59,65,142,98c0,0,82,34,181,34c0,0,40,0,78,-7c0,0,37,-7,69,-18c0,0,31,-11,57,-25c0,0,25,-14,35,-24c0,0,10,-10,14,-17c0,0,4,-7,6,-17c0,0,2,-11,3,-25c0,0,2,-14,2,-35c0,0,0,-22,-2,-38c0,0,-1,-15,-5,-25c0,0,-4,-10,-9,-14c0,0,-5,-5,-12,-5c0,0,-11,0,-28,13c0,0,-18,13,-45,29c0,0,-27,16,-65,29c0,0,-37,13,-89,13c0,0,-58,0,-103,-23c0,0,-45,-23,-77,-67c0,0,-31,-44,-48,-106c0,0,-16,-61,-16,-139c0,0,0,-85,17,-147c0,0,18,-62,50,-103c0,0,33,-40,79,-60c0,0,45,-19,103,-19c0,0,52,0,90,12c0,0,38,12,65,27c0,0,27,15,45,27c0,0,17,12,27,12c0,0,8,0,12,-3c0,0,4,-3,7,-12c0,0,3,-9,5,-25c0,0,1,-16,1,-43c0,0,0,-18,-1,-31c0,0,-1,-14,-3,-23c0,0,-2,-9,-6,-16c0,0,-4,-7,-12,-15c0,0,-8,-9,-32,-22c0,0,-23,-14,-57,-26C661,13,627,1,583,-6c0,0,-43,-9,-94,-9Z" 
id="f0_j"
transform="scale(0.001,-0.001)" />

<path d="M440,150c0,0,41,0,68,8c0,0,28,9,49,26c0,0,20,16,32,41c0,0,11,25,11,58c0,0,0,33,-11,60c0,0,-11,26,-33,44c0,0,-21,18,-55,28c0,0,-33,9,-87,9H298V150ZM407,567c0,0,42,0,68,10c0,0,25,10,42,28c0,0,16,17,24,41c0,0,9,24,9,50c0,0,0,29,-9,52c0,0,-9,23,-27,39c0,0,-18,15,-45,23c0,0,-27,8,-72,8H298V567ZM164,0c0,0,-25,0,-42,15c0,0,-16,14,-16,47V903c0,0,0,33,16,48c0,0,17,14,42,14H406c0,0,88,0,150,-15c0,0,61,-15,103,-45c0,0,42,-30,65,-77c0,0,22,-46,22,-108c0,0,0,-36,-9,-67c0,0,-9,-31,-26,-56c0,0,-17,-25,-42,-45c0,0,-25,-19,-57,-31c0,0,41,-7,76,-26c0,0,34,-19,60,-48c0,0,26,-30,41,-69c0,0,15,-40,15,-89c0,0,0,-51,-14,-93c0,0,-15,-42,-40,-74c0,0,-25,-32,-59,-55c0,0,-35,-23,-77,-38C614,29,573,14,525,7C525,7,478,0,420,0Z" 
id="f0_i"
transform="scale(0.001,-0.001)" />

<path d="M320,-17c0,0,-50,0,-93,9c0,0,-43,8,-76,19c0,0,-32,11,-54,24C97,35,75,48,65,58c0,0,-10,9,-14,28c0,0,-4,18,-4,52c0,0,0,23,1,39c0,0,2,15,5,25c0,0,4,10,9,14c0,0,6,4,13,4c0,0,11,0,30,-12c0,0,19,-13,49,-28c0,0,30,-15,71,-27c0,0,42,-12,96,-12c0,0,36,0,64,8c0,0,29,9,49,25c0,0,19,15,30,38c0,0,10,23,10,52c0,0,0,33,-18,56c0,0,-18,24,-46,42c0,0,-29,18,-66,34c0,0,-36,16,-75,34c0,0,-39,18,-76,41c0,0,-36,23,-65,54c0,0,-29,32,-47,75c0,0,-17,44,-17,104c0,0,0,70,25,122c0,0,26,53,70,88c0,0,43,34,103,51c0,0,59,18,125,18c0,0,35,0,69,-6c0,0,34,-5,64,-14c0,0,30,-9,53,-20c0,0,23,-11,31,-18c0,0,7,-8,10,-13c0,0,3,-5,4,-14c0,0,2,-8,3,-21c0,0,1,-13,1,-33c0,0,0,-21,-1,-36c0,0,-1,-15,-4,-25c0,0,-3,-9,-7,-14c0,0,-5,-4,-14,-4c0,0,-8,0,-26,10c0,0,-18,10,-44,23c0,0,-26,12,-60,22c0,0,-34,10,-75,10c0,0,-32,0,-56,-8c0,0,-24,-8,-40,-21c0,0,-16,-14,-24,-34c0,0,-8,-19,-8,-41c0,0,0,-32,18,-56c0,0,17,-23,46,-42c0,0,30,-18,67,-34c0,0,38,-16,76,-34c0,0,39,-18,76,-41c0,0,38,-22,67,-54c0,0,29,-32,47,-75c0,0,18,-43,18,-101c0,0,0,-76,-29,-133c0,0,-28,-58,-77,-96C572,60,524,21,459,2c0,0,-65,-19,-139,-19Z" 
id="f0_2n"
transform="scale(0.001,-0.001)" />

<path d="M164,0c0,0,-25,0,-42,15c0,0,-16,14,-16,47V903c0,0,0,33,16,48c0,0,17,14,42,14H645c0,0,7,0,12,-4c0,0,5,-3,9,-13c0,0,4,-9,6,-24c0,0,2,-14,2,-36c0,0,0,-21,-2,-36c0,0,-2,-14,-6,-23c0,0,-4,-9,-9,-13c0,0,-5,-4,-12,-4H301V576H593c0,0,6,0,12,-4c0,0,6,-4,9,-13c0,0,4,-8,6,-23c0,0,2,-14,2,-35c0,0,0,-22,-2,-36c0,0,-2,-14,-6,-23c0,0,-3,-8,-9,-12c0,0,-6,-4,-12,-4H301V154H649c0,0,6,0,12,-5c0,0,5,-4,9,-13c0,0,4,-9,6,-23c0,0,2,-15,2,-36c0,0,0,-22,-2,-36c0,0,-2,-15,-6,-24c0,0,-4,-9,-9,-13c0,0,-6,-4,-12,-4Z" 
id="f0_t"
transform="scale(0.001,-0.001)" />

<path d="M79,297c0,0,-19,0,-27,18c0,0,-8,17,-8,60c0,0,0,41,8,59c0,0,8,17,27,17H389c0,0,9,0,15,-4c0,0,7,-4,11,-13c0,0,5,-9,7,-23c0,0,1,-15,1,-36c0,0,0,-43,-8,-61c0,0,-8,-17,-26,-17Z" 
id="f0_oj"
transform="scale(0.001,-0.001)" />

<path d="M121,-4c0,0,-39,0,-60,2C61,-2,39,0,32,8c0,0,-8,8,-3,24c0,0,4,15,18,41L279,495L64,892c0,0,-14,26,-19,42c0,0,-5,17,4,24c0,0,9,8,32,10c0,0,23,2,65,2c0,0,35,0,56,-2c0,0,20,-1,32,-4c0,0,12,-4,17,-10c0,0,5,-6,9,-15L431,620L595,939c0,0,5,9,10,15c0,0,5,6,16,10c0,0,10,3,29,4c0,0,19,2,53,2c0,0,37,0,59,-2c0,0,22,-2,30,-10c0,0,8,-8,4,-24c0,0,-4,-16,-17,-42L564,497L793,73c0,0,14,-26,18,-41c0,0,4,-16,-5,-24c0,0,-9,-8,-32,-10c0,0,-24,-2,-65,-2c0,0,-36,0,-56,2c0,0,-20,1,-31,3c0,0,-12,4,-17,10c0,0,-5,6,-9,15L414,374L233,26c0,0,-4,-9,-9,-15c0,0,-6,-6,-17,-10c0,0,-12,-2,-32,-3c0,0,-21,-2,-54,-2Z" 
id="f0_3e"
transform="scale(0.001,-0.001)" />

<path d="M204,-4c0,0,-28,0,-47,2c0,0,-19,2,-31,5c0,0,-11,4,-16,10c0,0,-4,6,-4,13V939c0,0,0,7,4,13c0,0,5,6,17,10c0,0,11,3,30,6c0,0,19,2,47,2c0,0,29,0,48,-2c0,0,18,-3,29,-6c0,0,11,-4,16,-10c0,0,5,-6,5,-13V26c0,0,0,-7,-5,-13c0,0,-5,-6,-16,-10c0,0,-11,-3,-29,-5c0,0,-19,-2,-48,-2Z" 
id="f0_1c"
transform="scale(0.001,-0.001)" />

<path d="M127,0c0,0,-16,0,-28,3C99,3,87,6,80,15c0,0,-8,8,-11,25c0,0,-3,16,-3,42c0,0,0,25,2,42c0,0,2,18,8,32c0,0,6,14,15,27c0,0,9,13,24,29L282,390c0,0,50,53,81,95c0,0,30,43,47,79c0,0,17,35,24,65c0,0,6,30,6,57c0,0,0,24,-8,46c0,0,-8,22,-23,39c0,0,-15,16,-38,25c0,0,-23,10,-55,10c0,0,-44,0,-78,-12c0,0,-33,-11,-59,-25c0,0,-26,-13,-43,-25c0,0,-17,-12,-27,-12c0,0,-7,0,-11,5c0,0,-5,4,-8,15c0,0,-3,10,-5,28c0,0,-2,17,-2,42c0,0,0,18,1,29c0,0,1,12,4,20c0,0,2,9,6,15c0,0,3,6,13,15c0,0,9,9,34,23c0,0,25,14,61,27c0,0,37,14,81,23c0,0,44,9,92,9c0,0,75,0,131,-19c0,0,57,-19,94,-53c0,0,37,-34,55,-81c0,0,19,-47,19,-100c0,0,0,-47,-9,-93c0,0,-9,-45,-37,-98c0,0,-29,-52,-80,-116c0,0,-52,-64,-136,-148L299,159H679c0,0,8,0,14,-4c0,0,6,-5,11,-14c0,0,4,-9,7,-25c0,0,2,-15,2,-36c0,0,0,-22,-2,-37c0,0,-2,-15,-6,-25c0,0,-3,-10,-9,-14c0,0,-6,-4,-14,-4Z" 
id="f0_rz"
transform="scale(0.001,-0.001)" />

<path d="M385,138c0,0,29,0,52,9c0,0,22,10,39,28c0,0,17,19,28,47c0,0,11,29,19,66c0,0,7,37,9,84c0,0,3,47,3,104c0,0,0,69,-4,122c0,0,-4,52,-11,91c0,0,-8,39,-20,66c0,0,-12,27,-28,43c0,0,-16,16,-37,22c0,0,-21,7,-47,7c0,0,-44,0,-73,-21c0,0,-28,-21,-45,-64c0,0,-17,-42,-24,-106c0,0,-6,-63,-6,-148c0,0,0,-103,8,-171c0,0,8,-67,26,-107c0,0,17,-40,45,-56c0,0,27,-16,66,-16ZM378,-17c0,0,-99,0,-164,33c0,0,-65,34,-103,98c0,0,-38,64,-54,156c0,0,-15,92,-15,209c0,0,0,115,19,208c0,0,19,94,61,160c0,0,42,65,110,101c0,0,68,35,165,35c0,0,99,0,164,-34c0,0,65,-34,103,-98c0,0,39,-64,53,-156c0,0,15,-92,15,-209c0,0,0,-115,-18,-209c0,0,-19,-93,-61,-159C653,118,611,53,543,17c0,0,-67,-34,-165,-34Z" 
id="f0_rx"
transform="scale(0.001,-0.001)" />

<path d="M142,0c0,0,-6,0,-12,4c0,0,-5,3,-9,12c0,0,-4,9,-6,23c0,0,-3,15,-3,36c0,0,0,21,2,36c0,0,2,14,6,23c0,0,4,9,10,13c0,0,5,5,12,5H322V779L166,693c0,0,-17,-8,-28,-10c0,0,-1,0,-3,0c-4,0,-10,1,-14,5c0,0,-6,6,-8,22c0,0,-2,15,-2,44c0,0,0,18,0,29c0,0,1,12,4,20c0,0,3,8,8,14c0,0,5,5,14,11L345,962c0,0,4,3,9,5c0,0,6,2,15,3c0,0,9,1,23,2c0,0,15,0,38,0c0,0,28,0,46,-1c0,0,17,-1,26,-4c0,0,9,-3,12,-7c0,0,3,-4,3,-11V152H675c0,0,7,0,12,-5c0,0,6,-4,10,-13c0,0,4,-9,6,-23c0,0,2,-15,2,-36c0,0,0,-21,-2,-36c0,0,-3,-14,-7,-23c0,0,-4,-9,-9,-12c0,0,-5,-4,-12,-4Z" 
id="f0_ry"
transform="scale(0.001,-0.001)" />

<path d="M326,-17c0,0,-45,0,-85,6c0,0,-41,5,-73,13c0,0,-32,8,-52,17c0,0,-21,8,-27,14c0,0,-6,6,-9,12c0,0,-3,7,-5,16c0,0,-2,10,-3,24c0,0,-1,14,-1,33c0,0,0,21,2,36c0,0,1,14,5,23c0,0,3,9,8,13c0,0,4,4,10,4c0,0,7,0,23,-9c0,0,15,-8,40,-19c0,0,25,-10,61,-19c0,0,36,-8,86,-8c0,0,43,0,78,9c0,0,36,9,60,29c0,0,25,19,38,49c0,0,14,30,14,72c0,0,0,36,-11,64c0,0,-12,28,-35,47c0,0,-24,19,-62,29c0,0,-38,10,-93,10c0,0,-43,0,-78,-5c0,0,-36,-4,-67,-4c0,0,-22,0,-31,11c0,0,-9,11,-9,40V909c0,0,0,30,11,43c0,0,12,13,37,13H615c0,0,6,0,12,-4c0,0,6,-5,10,-15c0,0,5,-9,6,-25c0,0,2,-16,2,-39c0,0,0,-45,-7,-65c0,0,-8,-20,-23,-20H272V590c0,0,26,3,52,4c0,0,25,0,54,0c0,0,78,0,139,-18c0,0,61,-18,102,-53c0,0,42,-36,63,-88c0,0,22,-53,22,-122c0,0,0,-79,-27,-140c0,0,-27,-62,-77,-104C600,69,550,27,481,5c0,0,-70,-22,-155,-22Z" 
id="f0_s2"
transform="scale(0.001,-0.001)" />

<path d="M589,371L453,782h-1L317,371ZM106,-4c0,0,-35,0,-54,2C52,-2,32,0,25,8c0,0,-7,9,-5,24c0,0,2,16,11,42L329,931c0,0,4,13,10,21c0,0,6,7,19,12c0,0,13,4,36,5c0,0,23,1,61,1c0,0,44,0,71,-1c0,0,26,-1,40,-5c0,0,15,-5,21,-13c0,0,6,-8,11,-22L896,73c0,0,9,-27,11,-43c0,0,3,-15,-6,-23c0,0,-8,-7,-29,-9c0,0,-21,-2,-57,-2c0,0,-38,0,-59,1c0,0,-22,1,-33,4c0,0,-11,3,-16,9c0,0,-4,6,-7,16L635,220H272L211,31c0,0,-2,-11,-7,-18c0,0,-5,-7,-16,-11c0,0,-11,-3,-31,-4c0,0,-19,-2,-51,-2Z" 
id="f0_5"
transform="scale(0.001,-0.001)" />

<path d="M198,-4c0,0,-27,0,-45,2c0,0,-18,2,-28,5c0,0,-11,4,-15,10c0,0,-4,6,-4,13V887c0,0,0,38,20,58c0,0,20,20,53,20H308c0,0,34,0,59,-6c0,0,24,-5,42,-18c0,0,18,-13,30,-35c0,0,12,-21,21,-52L669,279h3L889,852c0,0,9,32,21,53c0,0,11,22,27,35c0,0,15,14,36,19c0,0,21,6,48,6h132c0,0,21,0,35,-5c0,0,15,-5,24,-15c0,0,9,-11,14,-25c0,0,5,-15,5,-33V26c0,0,0,-7,-4,-13c0,0,-4,-6,-15,-10c0,0,-11,-3,-29,-5c0,0,-18,-2,-45,-2c0,0,-27,0,-45,2c0,0,-18,2,-28,5c0,0,-11,4,-15,10c0,0,-5,6,-5,13V813h-1L764,27c0,0,-3,-10,-10,-16c0,0,-6,-6,-18,-10c0,0,-12,-3,-29,-4c0,0,-18,-1,-44,-1c0,0,-25,0,-43,2c0,0,-18,2,-29,5c0,0,-12,4,-19,10c0,0,-6,6,-9,14L293,813h-2V26c0,0,0,-7,-4,-13c0,0,-4,-6,-15,-10c0,0,-11,-3,-29,-5c0,0,-17,-2,-45,-2Z" 
id="f0_1x"
transform="scale(0.001,-0.001)" />

<path d="M193,-4c0,0,-26,0,-43,2c0,0,-18,2,-27,6c0,0,-10,4,-14,10c0,0,-3,6,-3,13V895c0,0,0,35,20,53c0,0,21,17,50,17H282c0,0,28,0,47,-5c0,0,20,-5,35,-16c0,0,15,-11,29,-31c0,0,13,-20,27,-49L608,511c0,0,17,-32,33,-63c0,0,16,-31,31,-62c0,0,14,-31,29,-60c0,0,14,-30,27,-60h1c0,0,-2,52,-3,109c0,0,-1,57,-1,108V936c0,0,0,7,4,13c0,0,5,6,15,11c0,0,10,4,28,6c0,0,17,2,44,2c0,0,25,0,42,-2c0,0,17,-2,27,-6c0,0,9,-5,13,-11c0,0,4,-6,4,-13V68c0,0,0,-17,-6,-30c0,0,-6,-14,-17,-23C879,15,869,6,856,2c0,0,-14,-3,-28,-3H744c0,0,-26,0,-45,4c0,0,-19,5,-35,19c0,0,-16,14,-31,38c0,0,-15,23,-34,60L359,572c0,0,-21,40,-43,86c0,0,-21,47,-38,91h-2c0,0,3,-54,5,-107c0,0,2,-53,2,-110V27c0,0,0,-7,-5,-13c0,0,-4,-6,-14,-10c0,0,-10,-4,-27,-6c0,0,-17,-2,-44,-2Z" 
id="f0_1y"
transform="scale(0.001,-0.001)" />

<path d="M378,-4c0,0,-28,0,-47,2c0,0,-19,2,-31,5c0,0,-11,4,-16,10c0,0,-4,6,-4,13V805H38c0,0,-8,0,-13,4c0,0,-5,5,-9,14c0,0,-3,9,-5,25c0,0,-2,15,-2,37c0,0,0,22,2,38c0,0,2,15,5,25c0,0,4,9,9,13c0,0,5,4,13,4H718c0,0,7,0,12,-4c0,0,6,-4,10,-13c0,0,3,-10,5,-25c0,0,2,-16,2,-38c0,0,0,-22,-2,-37c0,0,-2,-16,-5,-25c0,0,-4,-9,-10,-14c0,0,-5,-4,-12,-4H476V26c0,0,0,-7,-5,-13c0,0,-5,-6,-16,-10c0,0,-11,-3,-30,-5c0,0,-19,-2,-47,-2Z" 
id="f0_2t"
transform="scale(0.001,-0.001)" />

<path d="M514,145c0,0,72,0,121,27c0,0,48,26,78,73c0,0,30,46,42,107c0,0,13,62,13,131c0,0,0,76,-12,139c0,0,-12,62,-41,106c0,0,-29,45,-76,69c0,0,-48,24,-120,24c0,0,-72,0,-120,-27c0,0,-49,-27,-79,-73c0,0,-29,-45,-42,-106c0,0,-12,-61,-12,-129c0,0,0,-79,12,-142c0,0,12,-63,40,-108c0,0,28,-44,76,-68c0,0,48,-23,120,-23ZM508,-17c0,0,-113,0,-196,29c0,0,-84,29,-140,90c0,0,-56,60,-84,154c0,0,-28,93,-28,221c0,0,0,117,29,210c0,0,30,94,89,160c0,0,59,65,146,101c0,0,87,35,202,35c0,0,110,0,194,-29c0,0,84,-30,140,-90c0,0,56,-60,85,-153c0,0,29,-92,29,-217c0,0,0,-120,-30,-215c0,0,-30,-95,-89,-161C855,118,796,52,709,17c0,0,-87,-34,-201,-34Z" 
id="f0_24"
transform="scale(0.001,-0.001)" />

<path d="M75,0L400,413c0,0,71,91,101,149c0,0,30,58,30,109c0,0,0,55,-36,91c0,0,-36,36,-91,36c0,0,-63,0,-91,-45c0,0,-28,-46,-34,-142H67c0,0,0,173,102,268c0,0,102,95,253,95c0,0,140,0,229,-82c0,0,89,-82,89,-209c0,0,0,-125,-104,-276L580,324c0,0,-34,-50,-85,-114L468,178H740V0Z" 
id="f1_m"
transform="scale(0.001,-0.001)" />

<path d="M44,-281L425,1053H537L156,-281Z" 
id="f1_j"
transform="scale(0.001,-0.001)" />

<path d="M441,402V711h-3L193,402ZM441,0V227H19V404L457,952H650V402h90V227H650V0Z" 
id="f1_o"
transform="scale(0.001,-0.001)" />

<path d="M249,-14c0,0,-71,0,-107,42c0,0,-35,42,-35,119V639H15v33l93,29l76,159h47V701H391V639H231V161c0,0,0,-48,22,-73c0,0,22,-24,57,-24c0,0,44,0,106,12V26C416,26,389,8,340,-2c0,0,-49,-12,-91,-12Z" 
id="f2_2g"
transform="scale(0.001,-0.001)" />

<path d="M284,67c0,0,51,0,88,12c0,0,37,12,74,30V358l-98,-3c0,0,-100,-4,-135,-39c0,0,-35,-35,-35,-117c0,0,0,-132,106,-132ZM233,-14c0,0,-179,0,-179,208c0,0,0,70,27,116c0,0,27,46,87,70c0,0,60,24,173,27l105,3V519c0,0,0,72,-26,107c0,0,-27,34,-82,34c0,0,-75,0,-137,-35L176,538H134V691c0,0,121,26,213,26c0,0,115,0,169,-47c0,0,54,-47,54,-144V52L657,33V0H465L451,70c0,0,-85,-84,-218,-84Z" 
id="f2_1x"
transform="scale(0.001,-0.001)" />

<path d="M439,0V33l93,19V500c0,0,0,62,-30,97c0,0,-31,36,-94,36c0,0,-67,0,-165,-22V52L338,33V0H35V33l84,19V649L35,668v33H235l7,-57c0,0,57,33,122,54c0,0,65,22,108,22c0,0,91,0,137,-53c0,0,47,-53,47,-154V52L741,33V0Z" 
id="f2_2a"
transform="scale(0.001,-0.001)" />

<path d="M512,0L339,860L198,60L330,40L322,0H-17l8,40L120,60L276,941L151,960l7,40H443L597,237l446,763h300l-8,-40L1204,941L1048,60L1173,40L1166,0H760l8,40L905,60l141,800L538,0Z" 
id="f3_1d"
transform="scale(0.001,-0.001)" />

<path d="M712,0L354,900L205,60L336,40L329,0H-10l7,40L127,60L283,941L157,960l8,40H454L752,250L873,941L742,960l7,40h341l-8,-40L951,941L785,0Z" 
id="f3_1e"
transform="scale(0.001,-0.001)" />

<path d="M-5,0L0,40L131,60L286,941L162,960l6,40H568l-6,-40L430,941L275,60L399,40L393,0Z" 
id="f3_19"
transform="scale(0.001,-0.001)" />

<path d="M0,0L1000,1034l51,-53L171,70H999V0Z" 
id="f4_42"
transform="scale(0.001,-0.001)" />

<path d="M0,214v74H784V214ZM0,494v72H784V494Z" 
id="f4_x"
transform="scale(0.001,-0.001)" />

<path d="M868,0L251,900V60L385,40V0H44V40L172,60V941L44,960v40H347L862,259V941L727,960v40h341V960L940,941V0Z" 
id="f2_1e"
transform="scale(0.001,-0.001)" />

<path d="M377,45c0,0,99,0,147,73c0,0,47,73,47,237c0,0,0,161,-47,233c0,0,-47,72,-147,72c0,0,-97,0,-141,-69c0,0,-44,-69,-44,-236c0,0,0,-169,45,-240c0,0,44,-70,140,-70Zm0,-59c0,0,-158,0,-238,94c0,0,-81,95,-81,274c0,0,0,178,81,272c0,0,80,94,244,94c0,0,160,0,241,-92c0,0,82,-92,82,-274c0,0,0,-368,-329,-368Z" 
id="f2_2b"
transform="scale(0.001,-0.001)" />

<path d="M327,-14L84,649L1,668v33H335V668L219,648L385,174L554,632h63L786,171L944,649L830,668v33h267V668l-78,-16L784,-14H726L553,448L382,-14Z" 
id="f2_2j"
transform="scale(0.001,-0.001)" />

<path d="M58,-234v58c0,0,131,42,131,125c0,0,0,15,-11,27c0,0,-11,12,-38,25C140,1,89,27,89,75c0,0,0,40,25,61c0,0,26,21,65,21c0,0,48,0,77,-34c0,0,30,-34,30,-86c0,0,0,-101,-60,-170c0,0,-59,-69,-168,-101Z" 
id="f2_g"
transform="scale(0.001,-0.001)" />

<path d="M64,0V34L168,59V639H47v36l121,29v49c0,0,0,155,61,239c0,0,62,84,173,84c0,0,58,0,107,-15V908H472l-33,92c0,0,-26,16,-62,16c0,0,-47,0,-66,-42c0,0,-19,-42,-19,-157V701H478V639H292V59L443,34V0Z" 
id="f2_22"
transform="scale(0.001,-0.001)" />

<path d="M31,0V33l88,19V649L31,668v33H235l7,-87c0,0,44,37,121,71c0,0,76,35,121,35h11V530H463l-43,82c0,0,-37,0,-88,-10c0,0,-52,-10,-89,-26V52L363,33V0Z" 
id="f2_2e"
transform="scale(0.001,-0.001)" />

<path d="M500,49c0,0,111,0,205,75c0,0,95,75,154,216c0,0,59,140,59,280c0,0,0,150,-76,240c0,0,-77,91,-202,91c0,0,-111,0,-204,-75c0,0,-93,-76,-151,-217c0,0,-59,-141,-59,-284c0,0,0,-147,75,-237c0,0,75,-89,199,-89Zm-5,-63c0,0,-121,0,-216,50c0,0,-96,50,-149,142c0,0,-53,91,-53,205c0,0,0,180,74,326c0,0,75,145,204,224c0,0,129,78,295,78c0,0,120,0,216,-50c0,0,96,-51,149,-142c0,0,53,-91,53,-206c0,0,0,-177,-75,-325C993,288,918,140,789,63c0,0,-129,-77,-294,-77Z" 
id="f3_1f"
transform="scale(0.001,-0.001)" />

<path d="M521,-14c0,0,-205,0,-320,107C201,93,85,200,85,390c0,0,0,185,77,326c0,0,77,142,220,219c0,0,142,76,324,76c0,0,158,0,327,-38L1000,755H951V884c0,0,-46,32,-112,50c0,0,-65,17,-137,17c0,0,-135,0,-242,-72c0,0,-107,-72,-166,-203c0,0,-60,-132,-60,-301c0,0,0,-160,78,-244c0,0,78,-84,222,-84c0,0,85,0,166,25c0,0,82,26,133,65l53,149h49L889,52C889,52,803,20,705,3c0,0,-99,-17,-184,-17Z" 
id="f3_13"
transform="scale(0.001,-0.001)" />

<path d="M719,62L422,783L93,62ZM0,0L469,1034L896,0Z" 
id="f4_14"
transform="scale(0.001,-0.001)" />

<path d="M32,0V33L151,52V649L52,668v33H275V52L395,33V0ZM201,850c0,0,-32,0,-56,24c0,0,-24,24,-24,56c0,0,0,34,24,58c0,0,24,24,56,24c0,0,34,0,58,-24c0,0,24,-24,24,-58c0,0,0,-32,-24,-56c0,0,-24,-24,-58,-24Z" 
id="f2_25"
transform="scale(0.001,-0.001)" />

<path d="M278,-14c0,0,-52,0,-115,11c0,0,-63,10,-99,23V193H98L134,95c0,0,56,-50,146,-50c0,0,144,0,144,123c0,0,0,91,-114,130l-66,21c0,0,-75,25,-110,50c0,0,-34,26,-53,63c0,0,-18,36,-18,89c0,0,0,92,63,145c0,0,63,54,170,54c0,0,77,0,193,-23V544H454l-32,81c0,0,-39,35,-124,35c0,0,-61,0,-92,-30c0,0,-32,-30,-32,-80c0,0,0,-43,29,-72c0,0,28,-29,86,-48c0,0,110,-38,144,-55c0,0,33,-17,57,-42c0,0,23,-25,36,-57c0,0,13,-32,13,-79c0,0,0,-104,-66,-158c0,0,-66,-53,-195,-53Z" 
id="f2_2f"
transform="scale(0.001,-0.001)" />

<path d="M442,0V33l93,19V504c0,0,0,129,-124,129c0,0,-70,0,-168,-22V52L338,33V0H31V33l88,19v956L15,1026v34H243V756c0,0,0,-77,-5,-112c0,0,54,31,122,53c0,0,68,23,115,23c0,0,91,0,137,-53c0,0,47,-53,47,-154V52L744,33V0Z" 
id="f2_24"
transform="scale(0.001,-0.001)" />

<path d="M495,413c0,0,0,133,-34,190c0,0,-34,57,-105,57c0,0,-78,0,-119,-63c0,0,-42,-62,-42,-184ZM374,-14c0,0,-163,0,-239,87c0,0,-75,88,-75,283c0,0,0,183,77,273c0,0,76,91,219,91c0,0,269,0,269,-306V353H194V340c0,0,0,-103,23,-160c0,0,22,-57,70,-87c0,0,47,-29,124,-29c0,0,40,0,96,6c0,0,55,7,91,15V43C598,43,562,20,500,3c0,0,-61,-17,-126,-17Z" 
id="f2_21"
transform="scale(0.001,-0.001)" />

<path d="M13,0V34L95,46L325,350L122,649L40,668v33H357V668L264,648L399,446L554,649l-96,19v33H710V668L630,652L433,397L663,50L745,34V0H427V34l94,17L359,299L169,50L266,34V0Z" 
id="f2_2k"
transform="scale(0.001,-0.001)" />

<path d="M359,-270c0,0,124,0,192,46c0,0,67,47,67,129c0,0,0,43,-26,67c0,0,-26,24,-79,24H242c0,0,-32,-27,-51,-69c0,0,-20,-41,-20,-77c0,0,0,-64,46,-92c0,0,46,-28,142,-28Zm11,561c0,0,81,0,115,47c0,0,34,47,34,141c0,0,0,100,-35,142c0,0,-35,42,-113,42c0,0,-78,0,-114,-43c0,0,-37,-42,-37,-141c0,0,0,-98,36,-143c0,0,36,-45,114,-45ZM359,-329c0,0,-143,0,-218,44c0,0,-75,43,-75,125c0,0,0,39,27,78c0,0,26,38,98,89c0,0,-43,14,-72,48c0,0,-29,35,-29,74L208,262c0,0,-118,55,-118,217c0,0,0,115,73,178c0,0,73,63,211,63c0,0,28,0,71,-6c0,0,44,-6,67,-13l165,83l26,-32L599,644c0,0,50,-56,50,-165c0,0,0,-120,-72,-182c0,0,-73,-62,-208,-62c0,0,-62,0,-114,11L208,148c0,0,2,-13,29,-24c0,0,27,-12,67,-12H512c0,0,113,0,168,-49c0,0,55,-49,55,-134c0,0,0,-79,-44,-137c0,0,-43,-58,-128,-90c0,0,-84,-31,-204,-31Z" 
id="f2_23"
transform="scale(0.001,-0.001)" />

<path d="M31,0V33L150,52v956L31,1026v34H274V52L394,33V0Z" 
id="f2_28"
transform="scale(0.001,-0.001)" />

<path d="M191,-20c0,0,-39,0,-65,25c0,0,-25,27,-25,64c0,0,0,38,26,64c0,0,26,26,64,26c0,0,38,0,64,-26c0,0,26,-26,26,-64c0,0,0,-37,-25,-64c0,0,-26,-25,-65,-25Z" 
id="f2_i"
transform="scale(0.001,-0.001)" />

<path d="M235,0V40L394,60V936H356c0,0,-189,0,-258,-15L78,766H28v234H908V766H857L837,921c0,0,-22,5,-98,9c0,0,-75,4,-165,4H538V60L697,40V0Z" 
id="f2_1k"
transform="scale(0.001,-0.001)" />

<path d="M355,0V355H0v72H355V784h72V427H782V355H427V0Z" 
id="f4_f"
transform="scale(0.001,-0.001)" />

<path d="M460,-325c0,0,-148,79,-231,172c0,0,-84,93,-123,217c0,0,-39,126,-39,304c0,0,0,178,39,303c0,0,39,125,122,217c0,0,82,93,232,172V997c0,0,-91,-52,-145,-134c0,0,-54,-81,-79,-190c0,0,-25,-109,-25,-305c0,0,0,-194,26,-309c0,0,26,-114,82,-193c0,0,56,-79,141,-128v-63Z" 
id="f2_c"
transform="scale(0.001,-0.001)" />

<path d="M134,0V40L339,60V876L137,804v39l292,166h39V60L672,40V0Z" 
id="f2_l"
transform="scale(0.001,-0.001)" />

<path d="M49,-325v63c0,0,85,49,140,128c0,0,56,79,83,194c0,0,26,115,26,308c0,0,0,196,-25,305c0,0,-25,109,-79,190c0,0,-54,82,-145,134v63c0,0,149,-80,232,-172c0,0,83,-92,122,-217c0,0,39,-125,39,-303c0,0,0,-177,-39,-303c0,0,-39,-125,-122,-217c0,0,-83,-93,-232,-173Z" 
id="f2_d"
transform="scale(0.001,-0.001)" />

<path d="M85,0L199,649l-96,19l6,33H332L218,52L335,33L329,0ZM297,849c0,0,-33,0,-57,24c0,0,-24,24,-24,57c0,0,0,33,24,57c0,0,24,24,57,24c0,0,33,0,57,-24c0,0,24,-24,24,-57c0,0,0,-33,-24,-57c0,0,-24,-24,-57,-24Z" 
id="f3_25"
transform="scale(0.001,-0.001)" />

<path d="M410,-14c0,0,-80,0,-162,14c0,0,-81,14,-144,38V270h48L178,134c0,0,28,-35,95,-62c0,0,68,-27,134,-27c0,0,104,0,163,53c0,0,58,54,58,148c0,0,0,54,-23,89c0,0,-22,35,-59,59c0,0,-37,24,-84,41c0,0,-47,17,-97,34c0,0,-49,17,-96,38c0,0,-47,21,-84,53c0,0,-37,32,-60,79c0,0,-23,48,-23,117c0,0,0,119,90,187c0,0,89,68,248,68c0,0,121,0,263,-32V771H654L628,893c0,0,-76,55,-188,55c0,0,-100,0,-156,-40c0,0,-56,-41,-56,-112c0,0,0,-49,22,-81c0,0,23,-32,60,-55c0,0,37,-22,84,-39c0,0,48,-16,97,-34c0,0,50,-17,97,-39c0,0,48,-22,85,-56c0,0,36,-34,59,-83c0,0,23,-49,23,-120c0,0,0,-145,-89,-224c0,0,-89,-79,-256,-79Z" 
id="f2_1j"
transform="scale(0.001,-0.001)" />

<path d="M431,0V33L535,52V499c0,0,0,62,-32,96c0,0,-32,33,-95,33c0,0,-66,0,-163,-22V52L350,33V0H32V33l89,19V649L32,668v33H237l6,-57c0,0,56,32,119,54c0,0,62,22,110,22c0,0,52,0,95,-20c0,0,44,-19,66,-62c0,0,57,32,134,57c0,0,77,25,128,25c0,0,179,0,179,-207V52l90,-19V0H846V33L950,52V499c0,0,0,129,-119,129c0,0,-19,0,-45,-3c0,0,-26,-3,-52,-7c0,0,-25,-4,-49,-8c0,0,-23,-5,-39,-8c0,0,13,-41,13,-89V52L764,33V0Z" 
id="f2_29"
transform="scale(0.001,-0.001)" />

<path d="M148,-329c0,0,-58,0,-114,13v151H69l24,-71c0,0,23,-17,64,-17c0,0,39,0,72,22c0,0,33,23,60,67c0,0,27,44,68,157L90,649L19,668v33H344V668L233,648L423,158L606,649L497,668v33H758V668L685,652L411,-43c0,0,-48,-124,-84,-177c0,0,-36,-54,-79,-82c0,0,-44,-27,-100,-27Z" 
id="f2_2l"
transform="scale(0.001,-0.001)" />

<path d="M62,0L176,649L88,668l6,33H301L278,543c0,0,55,84,124,130c0,0,69,47,138,47c0,0,37,0,59,-6L566,530H534l-28,95c0,0,-60,0,-124,-46c0,0,-63,-45,-116,-120L186,0Z" 
id="f3_2e"
transform="scale(0.001,-0.001)" />

<path d="M0,356v74H784V356Z" 
id="f4_h"
transform="scale(0.001,-0.001)" />

<path d="M67,0V109L206,235c0,0,133,118,196,190c0,0,63,72,90,149c0,0,27,77,27,177c0,0,0,97,-44,148c0,0,-44,50,-144,50c0,0,-39,0,-81,-10c0,0,-42,-11,-74,-29L150,787H101V980c0,0,135,32,230,32c0,0,164,0,247,-68c0,0,82,-69,82,-193c0,0,0,-84,-32,-158c0,0,-33,-75,-100,-148c0,0,-67,-74,-222,-206c0,0,-67,-57,-141,-125H680V0Z" 
id="f2_m"
transform="scale(0.001,-0.001)" />

<path d="M911,-16L244,799V175c0,0,0,-93,21,-116c0,0,28,-32,86,-32h36V0H36V27H71c0,0,65,0,92,39c0,0,16,24,16,109V879c0,0,-44,52,-67,68c0,0,-23,17,-67,31c0,0,-21,7,-64,7v27H253L873,253V837c0,0,0,93,-21,116c0,0,-28,32,-87,32H730v27h351V985h-36c0,0,-64,0,-91,-39c0,0,-16,-24,-16,-109V-16Z" 
id="f5_1e"
transform="scale(0.001,-0.001)" />

<path d="M406,32c0,0,72,0,119,60c0,0,47,59,47,205c0,0,0,181,-78,286c0,0,-53,71,-135,71c0,0,-40,0,-79,-23c0,0,-40,-24,-65,-83c0,0,-24,-58,-24,-151c0,0,0,-149,59,-257c0,0,59,-108,156,-108ZM374,-20c0,0,-154,0,-245,122c0,0,-77,104,-77,233c0,0,0,94,46,187c0,0,47,92,123,137c0,0,76,44,161,44c0,0,155,0,249,-118c0,0,80,-100,80,-231c0,0,0,-91,-44,-185C667,169,623,75,546,27c0,0,-77,-47,-172,-47Z" 
id="f5_2b"
transform="scale(0.001,-0.001)" />

<path d="M336,-20L117,554c0,0,-21,55,-42,74c0,0,-21,19,-66,29v26H296V657c0,0,-40,-3,-52,-14c0,0,-13,-12,-13,-33c0,0,0,-23,13,-56L390,162L537,481L498,581c0,0,-18,46,-47,63c0,0,-17,11,-61,13v26H716V657c0,0,-54,-2,-77,-20c0,0,-15,-12,-15,-39c0,0,0,-15,6,-30L785,177L929,554c0,0,15,40,15,65c0,0,0,14,-15,25c0,0,-14,12,-57,13v26h216V657c0,0,-65,-10,-95,-89L764,-20H733L563,415L363,-20Z" 
id="f5_2j"
transform="scale(0.001,-0.001)" />

<path d="M82,-253v33c0,0,77,25,119,78c0,0,42,54,42,114c0,0,0,14,-7,23c0,0,-5,6,-11,6c0,0,-8,0,-35,-14c0,0,-14,-7,-28,-7c0,0,-37,0,-58,21C104,1,82,23,82,61c0,0,0,36,28,62c0,0,28,27,68,27c0,0,49,0,88,-43c0,0,38,-43,38,-113c0,0,0,-77,-53,-143c0,0,-53,-66,-169,-104Z" 
id="f5_g"
transform="scale(0.001,-0.001)" />

<path d="M397,34c0,0,67,0,126,75c0,0,58,74,58,216c0,0,0,131,-58,201c0,0,-59,70,-133,70c0,0,-39,0,-79,-20c0,0,-29,-14,-75,-59V109c0,0,37,-37,78,-56c0,0,40,-19,83,-19ZM358,-20c0,0,-59,0,-121,21c0,0,-61,22,-126,65V773c0,0,0,117,-5,144c0,0,-6,27,-18,37c0,0,-12,9,-29,9c0,0,-21,0,-53,-12l-9,27l205,83h34V564c0,0,98,139,213,139c0,0,105,0,183,-90c0,0,78,-90,78,-245c0,0,0,-182,-121,-293c0,0,-103,-95,-231,-95Z" 
id="f5_1y"
transform="scale(0.001,-0.001)" />

<path d="M145,-328c0,0,-44,0,-73,25c0,0,-28,25,-28,58c0,0,0,31,21,50c0,0,20,19,56,19c0,0,25,0,67,-16c0,0,30,-11,38,-11c0,0,22,0,49,23c0,0,26,23,53,89L376,28L131,542c0,0,-11,24,-36,58c0,0,-19,27,-30,36c0,0,-18,12,-56,21v26H328V657H312c0,0,-33,0,-50,-15c0,0,-17,-14,-17,-36c0,0,0,-30,25,-81L437,179L589,557c0,0,12,31,12,62c0,0,0,13,-5,20c0,0,-6,8,-19,13c0,0,-12,5,-44,5v26H754V657c0,0,-27,-3,-42,-12c0,0,-15,-9,-33,-34c0,0,-7,-10,-25,-58L376,-128c0,0,-40,-99,-105,-150c0,0,-66,-50,-126,-50Z" 
id="f5_2l"
transform="scale(0.001,-0.001)" />

<path d="M107,-21V325h27c0,0,19,-109,52,-163c0,0,33,-54,100,-90c0,0,68,-36,148,-36c0,0,93,0,148,49c0,0,54,50,54,117c0,0,0,37,-21,75c0,0,-20,38,-64,71c0,0,-29,22,-159,95c0,0,-130,72,-185,115c0,0,-55,44,-83,96c0,0,-28,52,-28,114c0,0,0,109,83,188c0,0,84,78,213,78c0,0,81,0,171,-39c0,0,42,-19,59,-19c0,0,20,0,32,11c0,0,12,12,20,47h27V684H674c0,0,-14,101,-48,161c0,0,-35,60,-100,95c0,0,-64,35,-133,35c0,0,-77,0,-128,-47c0,0,-51,-48,-51,-108c0,0,0,-46,32,-84c0,0,47,-56,221,-149c0,0,142,-76,194,-117c0,0,51,-41,80,-96c0,0,28,-55,28,-115c0,0,0,-115,-90,-198c0,0,-89,-82,-229,-82c0,0,-44,0,-83,6c0,0,-23,4,-95,27c0,0,-73,24,-93,24c0,0,-18,0,-29,-11c0,0,-11,-12,-16,-46Z" 
id="f5_1j"
transform="scale(0.001,-0.001)" />

<path d="M21,0V26H35c0,0,53,0,71,27c0,0,18,27,18,101V408c0,0,0,123,-5,150c0,0,-6,27,-17,37c0,0,-12,10,-31,10c0,0,-21,0,-50,-11L10,620l206,83h32V558c0,0,120,145,229,145c0,0,56,0,96,-28c0,0,40,-28,64,-92c0,0,16,-45,16,-137V154c0,0,0,-65,11,-88c0,0,8,-19,26,-29c0,0,18,-11,68,-11V0H419V26h14c0,0,47,0,66,15c0,0,20,15,27,43c0,0,3,11,3,70V434c0,0,0,93,-24,135c0,0,-24,42,-81,42c0,0,-88,0,-176,-97V154c0,0,0,-69,9,-86c0,0,10,-21,28,-31c0,0,19,-11,75,-11V0Z" 
id="f5_2a"
transform="scale(0.001,-0.001)" />

<path d="M479,469c0,0,-4,66,-16,93c0,0,-18,42,-55,65c0,0,-37,24,-78,24c0,0,-62,0,-111,-48c0,0,-48,-48,-57,-134ZM355,-20c0,0,-123,0,-211,95c0,0,-87,96,-87,258c0,0,0,175,90,273c0,0,89,98,225,98c0,0,115,0,189,-76c0,0,74,-75,74,-202H162c0,0,0,-152,74,-239c0,0,75,-86,175,-86c0,0,67,0,117,36c0,0,50,37,83,127l24,-15c0,0,-16,-102,-91,-186c0,0,-76,-83,-189,-83Z" 
id="f5_21"
transform="scale(0.001,-0.001)" />

<path d="M58,0V26c0,0,47,0,64,10c0,0,18,10,28,32c0,0,9,23,9,86V775c0,0,0,116,-5,142c0,0,-5,27,-17,37c0,0,-11,9,-29,9c0,0,-20,0,-49,-12L46,978l204,83h34V154c0,0,0,-64,9,-85c0,0,9,-21,29,-32c0,0,19,-11,72,-11V0Z" 
id="f5_28"
transform="scale(0.001,-0.001)" />

<path d="M177,647v35c0,0,77,46,105,86c0,0,19,28,19,68c0,0,0,23,-8,34c0,0,-9,11,-19,11c0,0,-9,0,-22,-5c0,0,-19,-7,-32,-7c0,0,-30,0,-53,23c0,0,-23,22,-23,56c0,0,0,37,23,58c0,0,31,28,75,28c0,0,50,0,90,-42c0,0,40,-42,40,-105c0,0,0,-88,-67,-160c0,0,-44,-48,-128,-80Z" 
id="f5_53"
transform="scale(0.001,-0.001)" />

<path d="M312,-20c0,0,-62,0,-143,22c0,0,-25,8,-40,8c0,0,-18,0,-27,-19H77V234h25c0,0,21,-105,80,-158c0,0,59,-53,132,-53c0,0,51,0,84,31c0,0,32,30,32,72c0,0,0,52,-36,87c0,0,-36,35,-144,88c0,0,-109,54,-142,97c0,0,-34,43,-34,107c0,0,0,85,58,141c0,0,58,57,150,57c0,0,40,0,97,-17c0,0,38,-11,51,-11c0,0,12,0,19,5c0,0,7,5,15,23h25V470H464c0,0,-28,110,-72,149c0,0,-45,40,-113,40c0,0,-53,0,-85,-28c0,0,-32,-27,-32,-61c0,0,0,-41,24,-71c0,0,23,-31,94,-65L389,381c0,0,152,-74,152,-194c0,0,0,-94,-71,-151c0,0,-70,-56,-158,-56Z" 
id="f5_2f"
transform="scale(0.001,-0.001)" />

<path d="M286,72c0,0,57,0,149,75V407c0,0,-113,-45,-145,-64c0,0,-59,-32,-85,-68c0,0,-25,-36,-25,-78c0,0,0,-54,32,-89c0,0,32,-36,74,-36ZM217,-13c0,0,-71,0,-116,48c0,0,-46,48,-46,127c0,0,0,50,22,87c0,0,31,50,106,95c0,0,76,45,252,109v26c0,0,0,102,-32,140c0,0,-32,38,-94,38c0,0,-47,0,-74,-25c0,0,-28,-25,-28,-58l1,-43c0,0,0,-34,-17,-53c0,0,-18,-18,-47,-18c0,0,-28,0,-45,19c0,0,-18,19,-18,53c0,0,0,64,66,117c0,0,65,54,184,54c0,0,91,0,149,-31c0,0,44,-23,65,-72c0,0,13,-32,13,-131V238c0,0,0,-98,4,-120c0,0,4,-22,12,-29c0,0,9,-8,20,-8c0,0,12,0,21,5c0,0,16,10,61,55V99C676,99,592,-12,516,-12c0,0,-37,0,-58,24c0,0,-22,26,-23,86C435,98,330,17,303,5c0,0,-40,-18,-86,-18Z" 
id="f5_1x"
transform="scale(0.001,-0.001)" />

<path d="M76,316v76H787V316Zm0,306v76H787V622Z" 
id="f2_x"
transform="scale(0.001,-0.001)" />

<path d="M289,-14c0,0,-179,0,-179,205V649L20,668v33H233V200c0,0,0,-128,120,-128c0,0,92,0,173,23V649L420,668v33H649V52L738,33V0H533l-6,57C527,57,474,28,405,7c0,0,-69,-21,-116,-21Z" 
id="f2_2h"
transform="scale(0.001,-0.001)" />

<path d="M376,50c0,0,103,0,149,80c0,0,46,81,46,240c0,0,0,137,-47,204c0,0,-48,67,-148,67c0,0,-44,0,-87,-7c0,0,-44,-8,-63,-17V62c0,0,63,-12,150,-12Zm3,-64c0,0,-64,0,-141,14c0,0,-78,14,-136,37v971L0,1026v34H226V809c0,0,0,-40,-4,-148c0,0,74,59,188,59c0,0,143,0,219,-87c0,0,77,-87,77,-263c0,0,0,-189,-84,-287c0,0,-84,-97,-243,-97Z" 
id="f2_1y"
transform="scale(0.001,-0.001)" />

<path d="M383,64c0,0,85,0,152,28V645c0,0,-67,13,-152,13c0,0,-194,0,-194,-314c0,0,0,-141,48,-211c0,0,48,-69,146,-69ZM342,-14c0,0,-287,0,-287,358c0,0,0,184,82,280c0,0,81,96,239,96c0,0,81,0,163,-18c0,0,-4,25,-4,124v182l-118,18v34H659V52L745,33V0H548l-9,52c0,0,-84,-66,-197,-66Z" 
id="f2_20"
transform="scale(0.001,-0.001)" />

<path d="M44,0V40L172,60V941L44,960v40H794V760H745L721,922c0,0,-83,11,-241,11H316V543H586l23,119h48V354H609L586,475H316V67H513c0,0,193,0,252,12l43,185h49L843,0Z" 
id="f2_15"
transform="scale(0.001,-0.001)" />

<path d="M383,64c0,0,44,0,87,7c0,0,43,7,65,17V645c0,0,-67,13,-152,13c0,0,-194,0,-194,-309c0,0,0,-143,48,-214c0,0,47,-71,146,-71Zm56,-389v35l96,18V-77c0,0,0,73,7,124c0,0,-79,-61,-200,-61c0,0,-287,0,-287,362c0,0,0,180,81,276c0,0,81,96,237,96c0,0,84,0,166,-18l67,33h53V-272l77,-18v-35Z" 
id="f2_2d"
transform="scale(0.001,-0.001)" />

<path d="M350,-14c0,0,-142,0,-269,31L73,228h49L156,87c0,0,29,-16,82,-28c0,0,54,-12,100,-12c0,0,117,0,173,54c0,0,56,53,56,178c0,0,0,99,-52,150c0,0,-51,51,-159,56l-107,6v61l107,7c0,0,84,5,124,52c0,0,41,48,41,145c0,0,0,101,-44,147c0,0,-44,45,-139,45c0,0,-40,0,-83,-10c0,0,-43,-11,-76,-29L153,786H104V979c0,0,74,19,127,26c0,0,54,6,107,6c0,0,321,0,321,-246c0,0,0,-104,-57,-165c0,0,-57,-62,-162,-77c0,0,136,-16,200,-78c0,0,64,-62,64,-173c0,0,0,-135,-92,-211c0,0,-93,-75,-262,-75Z" 
id="f2_n"
transform="scale(0.001,-0.001)" />

<path d="M54,0L169,649L81,668l6,33H294L274,558c0,0,62,81,130,121c0,0,67,41,132,41c0,0,75,0,113,-41c0,0,38,-41,38,-117c0,0,0,-10,-3,-32c0,0,-3,-21,-81,-478L700,34L695,0H470l76,434c0,0,17,94,17,123c0,0,0,34,-18,55c0,0,-18,21,-56,21c0,0,-56,0,-121,-47c0,0,-65,-47,-108,-117L178,0Z" 
id="f3_2a"
transform="scale(0.001,-0.001)" />

<path d="M44,0V40L172,60V941L44,960v40H445V960L316,941V549H787V941L659,960v40h400V960L930,941V60L1059,40V0H659V40L787,60V481H316V60L445,40V0Z" 
id="f2_18"
transform="scale(0.001,-0.001)" />

<path d="M551,45c0,0,171,0,252,108c0,0,82,108,82,349c0,0,0,239,-81,344c0,0,-81,105,-253,105c0,0,-172,0,-252,-105c0,0,-80,-105,-80,-344c0,0,0,-241,80,-349c0,0,81,-108,252,-108Zm0,-59c0,0,-238,0,-363,129C188,115,63,245,63,501c0,0,0,510,488,510c0,0,242,0,366,-129c0,0,124,-130,124,-381c0,0,0,-255,-126,-385C915,116,790,-14,551,-14Z" 
id="f2_1f"
transform="scale(0.001,-0.001)" />

<path d="M617,0L251,860V60L385,40V0H44V40L172,60V941L44,960v40H347L672,239l355,761h287V960L1185,941V60L1314,40V0H908V40l134,20V859L643,0Z" 
id="f2_1d"
transform="scale(0.001,-0.001)" />

<path d="M55,0V40L184,60V941L55,960v40H455V960L327,941V60L455,40V0Z" 
id="f2_19"
transform="scale(0.001,-0.001)" />

<path d="M577,-14c0,0,-243,0,-379,132C198,118,63,250,63,488c0,0,0,258,130,391c0,0,131,132,387,132c0,0,156,0,335,-38l5,-218H871L848,884c0,0,-52,32,-121,50c0,0,-69,17,-141,17c0,0,-191,0,-279,-112c0,0,-88,-113,-88,-349c0,0,0,-217,92,-332c0,0,92,-115,268,-115c0,0,85,0,160,20c0,0,76,21,120,55l27,149h49L930,32c0,0,-164,-46,-353,-46Z" 
id="f2_13"
transform="scale(0.001,-0.001)" />

<path d="M382,45c0,0,188,0,188,314c0,0,0,143,-47,213c0,0,-46,69,-141,69c0,0,-87,0,-146,-24V58c0,0,67,-13,146,-13ZM25,-325v35l88,18V649L34,668v33H231l1,-41c0,0,31,27,84,43c0,0,53,17,107,17c0,0,134,0,208,-94c0,0,73,-93,73,-267c0,0,0,-178,-80,-276c0,0,-80,-97,-232,-97c0,0,-84,0,-160,16c0,0,4,-53,4,-84V-272l123,-18v-35Z" 
id="f2_2c"
transform="scale(0.001,-0.001)" />

<path d="M399,-14c0,0,-341,0,-341,370c0,0,0,175,87,269c0,0,87,95,249,95c0,0,101,0,220,-23V501H573L541,625c0,0,-62,35,-149,35c0,0,-200,0,-200,-304c0,0,0,-158,61,-225c0,0,61,-67,189,-67c0,0,109,0,189,24V43C631,43,595,16,530,1c0,0,-64,-15,-131,-15Z" 
id="f2_1z"
transform="scale(0.001,-0.001)" />

<path d="M681,416L504,902L333,416ZM669,0V40L803,60L704,348H310L210,60L344,40V0H15V40L128,60l341,949H611L965,60L1092,40V0Z" 
id="f2_11"
transform="scale(0.001,-0.001)" />

<path d="M360,-14L72,649L0,668v33H327V668L216,648L420,164L615,649L504,668v33H764V668L697,652L416,-14Z" 
id="f2_2i"
transform="scale(0.001,-0.001)" />

<path d="M-12,338v55H777V338Z" 
id="f5_4y"
transform="scale(0.001,-0.001)" />

<path d="M392,152V469H76v77H392V863h77V546H787V469H469V152Z" 
id="f2_f"
transform="scale(0.001,-0.001)" />

<path d="M448,506c0,0,134,0,190,49c0,0,57,50,57,168c0,0,0,114,-56,162c0,0,-56,48,-195,48H316V506ZM777,0L496,438H316V60L468,40V0H54V40L172,60V941L44,960v40H476c0,0,188,0,277,-63c0,0,90,-64,90,-204c0,0,0,-100,-54,-173c0,0,-55,-73,-151,-101L909,60L1017,40V0Z" 
id="f2_1i"
transform="scale(0.001,-0.001)" />

<path d="M476,327V830h-4L114,327ZM476,0V220H30v99l488,686h86V327H740V220H604V0Z" 
id="f2_o"
transform="scale(0.001,-0.001)" />

<path d="M246,-14L105,649L21,668l7,33H219L327,155L512,458c0,0,48,78,48,144c0,0,0,28,-15,44c0,0,-16,16,-34,22l6,33H659c0,0,19,-17,19,-47c0,0,0,-66,-62,-164L301,-14Z" 
id="f3_2i"
transform="scale(0.001,-0.001)" />

<path d="M228,-17c0,0,-76,0,-114,40c0,0,-38,41,-38,117c0,0,0,11,4,39c0,0,4,29,80,470L78,667l6,34H293L217,268c0,0,-17,-94,-17,-124c0,0,0,-34,18,-55c0,0,18,-21,57,-21c0,0,55,0,120,47c0,0,65,47,107,115l83,471H709L595,52L683,33L677,0H469l20,144C489,144,427,64,360,23c0,0,-67,-40,-132,-40Z" 
id="f3_2h"
transform="scale(0.001,-0.001)" />

<path d="M460,506c0,0,135,0,209,64c0,0,73,65,73,183c0,0,0,180,-213,180H419L343,506ZM671,0L487,438H331L264,60L398,40L390,0H-7L0,40L120,60L276,941L151,960l7,40H555c0,0,163,0,249,-62c0,0,86,-62,86,-180c0,0,0,-236,-261,-299L798,60L908,40L900,0Z" 
id="f3_1i"
transform="scale(0.001,-0.001)" />

<path d="M64,-325c0,0,-46,0,-107,14v148H-8l19,-81c0,0,25,-21,62,-21c0,0,44,0,67,47c0,0,22,47,22,152V649L57,668v33H286V-28c0,0,0,-146,-57,-221c0,0,-56,-76,-165,-76ZM213,850c0,0,-34,0,-58,24c0,0,-24,24,-24,56c0,0,0,34,24,58c0,0,24,24,58,24c0,0,32,0,56,-24c0,0,24,-24,24,-58c0,0,0,-32,-24,-56c0,0,-24,-24,-56,-24Z" 
id="f2_26"
transform="scale(0.001,-0.001)" />


</defs>
</svg>