<?xml version="1.0" encoding="UTF-8" standalone="no"?>
<!DOCTYPE svg PUBLIC "-//W3C//DTD SVG 1.1//EN"
"http://www.w3.org/Graphics/SVG/1.1/DTD/svg11.dtd">
<svg viewBox="0 0 909 1286" version="1.1" xmlns="http://www.w3.org/2000/svg" xmlns:xlink="http://www.w3.org/1999/xlink">
<defs>
<style type="text/css"><![CDATA[
.g0_2{
fill: none;
stroke: #FFFFFF;
stroke-width: 0.77152777;
stroke-linecap: round;
stroke-linejoin: round;
}
.g1_2{
fill: none;
stroke: #FFFFFF;
stroke-width: 0.36666667;
stroke-linecap: butt;
stroke-linejoin: miter;
stroke-miterlimit: 2;
}
.g2_2{
fill: #FFFFFF;
}
.g3_2{
fill: none;
stroke: #000000;
stroke-width: 0.9075001;
stroke-linecap: round;
stroke-linejoin: round;
}
.g4_2{
fill: none;
stroke: #000000;
stroke-width: 0.9059723;
stroke-linecap: round;
stroke-linejoin: round;
}
.g5_2{
fill: #1F1A17;
}
.g6_2{
fill: none;
stroke: #000000;
stroke-width: 0.90138894;
stroke-linecap: round;
stroke-linejoin: round;
}
.g7_2{
fill: none;
stroke: #000000;
stroke-width: 0.91208345;
stroke-linecap: round;
stroke-linejoin: round;
}
]]></style>
</defs>
<path d="M512.4,486.7l6.2,9.7l5.4,8.5l4.1,8.7l2,8.5l1.1,7.7l1.2,6.7l-1.2,6.7l-2.1,6.7l-2,4.9l-3.1,5.6l-3.1,4.9l-3.4,3.9l-7.1,6.6l-6.5,4.7l-11.5,6.9l-10.3,6.7l-11.6,5.6L459,606.4l-6.4,3.9l-6.2,4.9l-5.4,4.6l-5.1,5.9l-4.1,6.7l-3.4,7.4l-1,9.8l-1,10.5l-6.2,-10.5l-5.4,-10.5l-3.1,-10.6l-1,-10.5v-4.9l1,-4.9l1.1,-4.6l2,-3.9l2.1,-4.8l3.3,-3.9l3.1,-3.6l4.1,-3.8l17,-11.6l16.7,-9.5l14.6,-8.8L489.3,546l6.4,-4.6l5.2,-6.7L505,528l3.3,-7.7l2.1,-8.7l2,-7.7V486.7" class="g0_2" />
<path d="M454.6,618.8l4.4,3.8l3.1,3.9l2,3.8l2.1,4.9l2.3,5.7l1,5.6l1,5.9v7.7l5.2,-8.7l4.1,-7.7l3.4,-7.7l2,-7.5l1,-7.7v-6.7l-1,-7.7l-2,-6.7l-28.6,19.1" class="g1_2" />
<path fill-rule="evenodd" d="M279.7,577.6L310,573.8l1.1,9.8v9.5l-1.1,1l-1,1.8l-2.1,1.8h-2l-2.1,1h-3.3l-2,-1l-2.1,-1.8l-2.1,-2.8l-11.5,9.5l-1,-9.5l11.5,-8.8l-11.5,1l-1.1,-7.7Zm16.7,6v1.7l1.1,2.1l1,1.8l1,1h3.3l1.1,-1l1,-1.8v-4.9l-8.5,1.1Zm2.1,36.2l2,8.7l9.5,-6.6l1.1,-1.1h1l1,-1H298.5Zm-14.7,-7.7l32.7,1l3.1,10.5l-26.3,20.1l-2,-8.5l4.1,-2.8l-3.1,-12.6h-5.4l-3.1,-7.7ZM329,673.5l-2.3,.8l-3,1l-3.1,1l-3.1,-1l-3.4,-1l-3,-.8L309,670.7l-2.1,-2.1l-2,-3.8l-1,-2.9v-6.6l1,-2.9l2,-2.8l1.1,-3.1l3.1,-1.8l2,-1.8l3.4,-1h6.1l3.1,1l3.3,1.8l2.1,1.8l2.1,3.1l2,2.8l1,2.9v6.6l-1,3.9l-1,2.8l-2.1,2.1l-3.1,2.8ZM312.1,664l3.3,2.8l3.1,.8h3.1l3.1,-1.8l2,-2.8l2.3,-2.9v-3.8l-1,-2.8l-2.3,-2.1l-3.1,-1h-4.1l-3.1,1l-2.3,2.8l-2,2.9v3.8l1,3.1Zm31.6,45l18.7,-26l6.4,5.7l-19,25.9L343.7,709Zm20.8,15.2l14.9,-28.9l7.2,4.9L371.9,728l-7.4,-3.8Zm26.2,12.5l7.4,-23.1L392,710.8l3.1,-6.7l19.7,7.7l-2,6.7l-6.2,-2.1l-8.5,23.2l-7.4,-2.9Zm58.8,-1H458l-4.4,-10.5v-2.9l-1,-2v3.9l-1,1l-2.1,10.5Zm-11.6,11.6l9.5,-31.7H458l11.5,31.7h-8.4L459,741.4H447.4l-1,5.9h-8.5ZM494.7,709l2.1,9.5l-2.1,-2.1h-5.4l-3.1,1.1l-2,2.8l-1,3.9l1,2.8l1,3.8l2.1,2.1l3,.7h3.1l2.3,-.7l1.1,-1l2,-1.1l1,-2.8l2.1,9.5l-1,1l-2.1,2.1l-2,.8h-2.1l-2.3,1h-4.1l-2.1,-1l-4.1,-1.8l-2.3,-2.9l-3.1,-3.1l-1,-3.6l-1,-3.8v-3.1l1,-3.6l1,-3.1l2.1,-2.8l2.3,-1.8l2.1,-1l3,-1.8h8.5Zm22.9,10.5l7.4,-4.9l-7.4,-7.7h-1.1v-1l-1,-.8l-1,-1v1l1,.8v2l2.1,11.6Zm-5.2,15.2l-4.1,-33.4l8.2,-4.9l24.2,23.9l-7.2,3.9l-4.4,-4.7l-10.5,5.7l1.3,5.6l-7.5,3.9Zm37.8,-22.1L529.1,689.7l5.4,-4.9l4.1,-4.6l3.1,-2.1l3.3,-1.8h6.2l3.1,1.1l3.1,.7l3.3,3.1l2.1,3.6l1,3.1l1,3.8v3.6l-1,2.1l-1,2.8l-3.1,2.9l-3.4,3.8l-1,1l-5.1,4.7Zm2,-11.3l1.1,-1.1l2,-2.8l1,-3.8v-2.9l-2,-2.8l-3.1,-3.1l-3.1,-.8l-3.1,.8l-3.3,3.1l-1,.8l11.5,12.6Zm28.3,-20.1L555.3,663l11.6,-16.5l5.4,3.9l-6.5,9.7L570,663l6.4,-8.8l5.1,3.9l-6.2,8.7l4.1,3.9l6.5,-9.8l6.1,4.9l-11.5,15.4ZM613.1,618l-3.1,7.7l-13.6,-3.8h-1.3l-1,-1.1l-2.1,-1h-2l2,1l2.1,1.8l1,1l11.6,9.5l-2.1,4.9L590,637h-1l-3.1,-1h-2.1l2.1,1h1l2.1,1l1,1.1l11.5,7.4l-3,7L572.3,637l3,-7.7l16.7,1v1.1h4.4h-1.3l-1,-1.1l-1,-1l-1.1,-.8L579.4,618l3.1,-7.7l30.6,7.7Zm2.1,-21.1l-13.7,-2l-17.7,8.7l1.1,-9.5l8.2,-3.1l2,-.8h1.3l-1.3,-1h-1l-1,-1l-6.2,-4.6l1,-10.6l14.7,14.4l13.6,1.8l-1,7.7Z" class="g2_2" />
<g fill="#000000" >
<use xlink:href="#f0_1j" transform="matrix(12,0,0,12,400.8,82.7)" />
<use xlink:href="#f0_15" transform="matrix(12,0,0,12,411,82.7)" />
<use xlink:href="#f0_13" transform="matrix(12,0,0,12,423.2,82.7)" />
<use xlink:href="#f0_1k" transform="matrix(12,0,0,12,436.4,82.7)" />
<use xlink:href="#f0_19" transform="matrix(12,0,0,12,448.6,82.7)" />
<use xlink:href="#f0_1f" transform="matrix(12,0,0,12,455.8,82.7)" />
<use xlink:href="#f0_1e" transform="matrix(12,0,0,12,470,82.7)" />
<use xlink:href="#f0_h" transform="matrix(12,0,0,12,486.9,82.7)" />
<use xlink:href="#f0_12" transform="matrix(12,0,0,12,496.9,82.7)" />
<use xlink:href="#f1_q" transform="matrix(12,0,0,12,64.9,122.6)" />
<use xlink:href="#f1_i" transform="matrix(12,0,0,12,74.1,122.6)" />
<use xlink:href="#f1_1k" transform="matrix(12,0,0,12,117,122.6)" />
<use xlink:href="#f1_2j" transform="matrix(12,0,0,12,126.9,122.6)" />
<use xlink:href="#f1_2b" transform="matrix(12,0,0,12,140.1,122.6)" />
<use xlink:href="#f1_21" transform="matrix(12,0,0,12,152.9,122.6)" />
<use xlink:href="#f1_28" transform="matrix(12,0,0,12,160.7,122.6)" />
<use xlink:href="#f1_21" transform="matrix(12,0,0,12,165.1,122.6)" />
<use xlink:href="#f1_1z" transform="matrix(12,0,0,12,172.8,122.6)" />
<use xlink:href="#f1_2g" transform="matrix(12,0,0,12,180.9,122.6)" />
<use xlink:href="#f1_2e" transform="matrix(12,0,0,12,186,122.6)" />
<use xlink:href="#f1_25" transform="matrix(12,0,0,12,192.2,122.6)" />
<use xlink:href="#f1_1z" transform="matrix(12,0,0,12,196.3,122.6)" />
<use xlink:href="#f1_1y" transform="matrix(12,0,0,12,207.7,122.6)" />
<use xlink:href="#f1_2h" transform="matrix(12,0,0,12,216.1,122.6)" />
<use xlink:href="#f1_28" transform="matrix(12,0,0,12,225.3,122.6)" />
<use xlink:href="#f1_1y" transform="matrix(12,0,0,12,229.4,122.6)" />
<use xlink:href="#f1_2f" transform="matrix(12,0,0,12,238.2,122.6)" />
<use xlink:href="#f1_1g" transform="matrix(12,0,0,12,248.1,122.6)" />
<use xlink:href="#f1_1x" transform="matrix(12,0,0,12,261,122.6)" />
<use xlink:href="#f1_2a" transform="matrix(12,0,0,12,268.7,122.6)" />
<use xlink:href="#f1_20" transform="matrix(12,0,0,12,277.5,122.6)" />
<use xlink:href="#f1_1h" transform="matrix(12,0,0,12,289.6,122.6)" />
<use xlink:href="#f1_24" transform="matrix(12,0,0,12,306.2,122.6)" />
<use xlink:href="#f1_1x" transform="matrix(12,0,0,12,315,122.6)" />
<use xlink:href="#f1_2i" transform="matrix(12,0,0,12,322.7,122.6)" />
<use xlink:href="#f1_21" transform="matrix(12,0,0,12,331.5,122.6)" />
<use xlink:href="#f1_2g" transform="matrix(12,0,0,12,342.6,122.6)" />
<use xlink:href="#f1_24" transform="matrix(12,0,0,12,347.7,122.6)" />
<use xlink:href="#f1_21" transform="matrix(12,0,0,12,356.5,122.6)" />
<use xlink:href="#f1_25" transform="matrix(12,0,0,12,364.2,122.6)" />
<use xlink:href="#f1_2e" transform="matrix(12,0,0,12,368.7,122.6)" />
<use xlink:href="#f1_2e" transform="matrix(12,0,0,12,377.9,122.6)" />
<use xlink:href="#f1_21" transform="matrix(12,0,0,12,384.1,122.6)" />
<use xlink:href="#f1_2f" transform="matrix(12,0,0,12,391.8,122.6)" />
<use xlink:href="#f1_25" transform="matrix(12,0,0,12,398.8,122.6)" />
<use xlink:href="#f1_2f" transform="matrix(12,0,0,12,402.8,122.6)" />
<use xlink:href="#f1_2g" transform="matrix(12,0,0,12,409.8,122.6)" />
<use xlink:href="#f1_1x" transform="matrix(12,0,0,12,415,122.6)" />
<use xlink:href="#f1_2a" transform="matrix(12,0,0,12,423,122.6)" />
<use xlink:href="#f1_1z" transform="matrix(12,0,0,12,431.5,122.6)" />
<use xlink:href="#f1_21" transform="matrix(12,0,0,12,439.6,122.6)" />
<use xlink:href="#f1_2f" transform="matrix(12,0,0,12,447.3,122.6)" />
<use xlink:href="#f1_25" transform="matrix(12,0,0,12,457.6,122.6)" />
<use xlink:href="#f1_2a" transform="matrix(12,0,0,12,461.6,122.6)" />
<use xlink:href="#f1_2g" transform="matrix(12,0,0,12,473.8,122.6)" />
<use xlink:href="#f1_24" transform="matrix(12,0,0,12,479.3,122.6)" />
<use xlink:href="#f1_21" transform="matrix(12,0,0,12,487.7,122.6)" />
<use xlink:href="#f1_2e" transform="matrix(12,0,0,12,498.8,122.6)" />
<use xlink:href="#f1_1x" transform="matrix(12,0,0,12,505,122.6)" />
<use xlink:href="#f1_2g" transform="matrix(12,0,0,12,512.7,122.6)" />
<use xlink:href="#f1_25" transform="matrix(12,0,0,12,518.2,122.6)" />
<use xlink:href="#f1_2b" transform="matrix(12,0,0,12,522.3,122.6)" />
<use xlink:href="#f1_2b" transform="matrix(12,0,0,12,535.1,122.6)" />
<use xlink:href="#f1_22" transform="matrix(12,0,0,12,544.3,122.6)" />
<use xlink:href="#f1_l" transform="matrix(12,0,0,12,553.1,122.6)" />
<use xlink:href="#f1_u" transform="matrix(12,0,0,12,565.6,122.6)" />
<use xlink:href="#f1_m" transform="matrix(12,0,0,12,574,122.6)" />
<use xlink:href="#f1_i" transform="matrix(12,0,0,12,583.2,122.6)" />
<use xlink:href="#f1_1k" transform="matrix(12,0,0,12,590.2,122.6)" />
<use xlink:href="#f1_24" transform="matrix(12,0,0,12,601.6,122.6)" />
<use xlink:href="#f1_21" transform="matrix(12,0,0,12,610,122.6)" />
<use xlink:href="#f1_2l" transform="matrix(12,0,0,12,618.1,122.6)" />
<use xlink:href="#f1_1x" transform="matrix(12,0,0,12,629.9,122.6)" />
<use xlink:href="#f1_2e" transform="matrix(12,0,0,12,637.6,122.6)" />
<use xlink:href="#f1_21" transform="matrix(12,0,0,12,643.8,122.6)" />
<use xlink:href="#f1_1z" transform="matrix(12,0,0,12,655.2,122.6)" />
<use xlink:href="#f1_2b" transform="matrix(12,0,0,12,662.9,122.6)" />
<use xlink:href="#f1_2a" transform="matrix(12,0,0,12,672.5,122.6)" />
<use xlink:href="#f1_2a" transform="matrix(12,0,0,12,680.9,122.6)" />
<use xlink:href="#f1_21" transform="matrix(12,0,0,12,689.4,122.6)" />
<use xlink:href="#f1_1z" transform="matrix(12,0,0,12,697.4,122.6)" />
<use xlink:href="#f1_2g" transform="matrix(12,0,0,12,705.2,122.6)" />
<use xlink:href="#f1_21" transform="matrix(12,0,0,12,710.7,122.6)" />
<use xlink:href="#f1_20" transform="matrix(12,0,0,12,718.4,122.6)" />
<use xlink:href="#f1_25" transform="matrix(12,0,0,12,730.9,122.6)" />
<use xlink:href="#f1_2a" transform="matrix(12,0,0,12,735.3,122.6)" />
<use xlink:href="#f1_2f" transform="matrix(12,0,0,12,747,122.6)" />
<use xlink:href="#f1_21" transform="matrix(12,0,0,12,753.7,122.6)" />
<use xlink:href="#f1_2e" transform="matrix(12,0,0,12,761.4,122.6)" />
<use xlink:href="#f1_25" transform="matrix(12,0,0,12,767.6,122.6)" />
<use xlink:href="#f1_21" transform="matrix(12,0,0,12,771.7,122.6)" />
<use xlink:href="#f1_2f" transform="matrix(12,0,0,12,778.4,122.6)" />
<use xlink:href="#f1_1x" transform="matrix(12,0,0,12,788.7,122.6)" />
<use xlink:href="#f1_1z" transform="matrix(12,0,0,12,796.5,122.6)" />
<use xlink:href="#f1_2e" transform="matrix(12,0,0,12,804.5,122.6)" />
<use xlink:href="#f1_2b" transform="matrix(12,0,0,12,810.4,122.6)" />
<use xlink:href="#f1_2f" transform="matrix(12,0,0,12,819.9,122.6)" />
<use xlink:href="#f1_2f" transform="matrix(12,0,0,12,826.6,122.6)" />
<use xlink:href="#f1_1x" transform="matrix(12,0,0,12,836.9,122.6)" />
<use xlink:href="#f1_1y" transform="matrix(12,0,0,12,117,147.2)" />
<use xlink:href="#f1_1x" transform="matrix(12,0,0,12,125.4,147.2)" />
<use xlink:href="#f1_2g" transform="matrix(12,0,0,12,133.5,147.2)" />
<use xlink:href="#f1_2g" transform="matrix(12,0,0,12,138.6,147.2)" />
<use xlink:href="#f1_21" transform="matrix(12,0,0,12,144.1,147.2)" />
<use xlink:href="#f1_2e" transform="matrix(12,0,0,12,151.8,147.2)" />
<use xlink:href="#f1_2l" transform="matrix(12,0,0,12,157.7,147.2)" />
<use xlink:href="#f1_i" transform="matrix(12,0,0,12,165.1,147.2)" />
<use xlink:href="#f1_16" transform="matrix(12,0,0,12,173.2,147.2)" />
<use xlink:href="#f1_25" transform="matrix(12,0,0,12,182.7,147.2)" />
<use xlink:href="#f1_2a" transform="matrix(12,0,0,12,187.1,147.2)" />
<use xlink:href="#f1_20" transform="matrix(12,0,0,12,195.6,147.2)" />
<use xlink:href="#f1_2g" transform="matrix(12,0,0,12,208.1,147.2)" />
<use xlink:href="#f1_24" transform="matrix(12,0,0,12,213.2,147.2)" />
<use xlink:href="#f1_21" transform="matrix(12,0,0,12,222,147.2)" />
<use xlink:href="#f1_2e" transform="matrix(12,0,0,12,232.7,147.2)" />
<use xlink:href="#f1_1x" transform="matrix(12,0,0,12,238.9,147.2)" />
<use xlink:href="#f1_2g" transform="matrix(12,0,0,12,246.7,147.2)" />
<use xlink:href="#f1_25" transform="matrix(12,0,0,12,252.2,147.2)" />
<use xlink:href="#f1_2b" transform="matrix(12,0,0,12,256.2,147.2)" />
<use xlink:href="#f1_2b" transform="matrix(12,0,0,12,269.1,147.2)" />
<use xlink:href="#f1_22" transform="matrix(12,0,0,12,278.2,147.2)" />
<use xlink:href="#f1_2g" transform="matrix(12,0,0,12,287.1,147.2)" />
<use xlink:href="#f1_24" transform="matrix(12,0,0,12,292.6,147.2)" />
<use xlink:href="#f1_21" transform="matrix(12,0,0,12,301,147.2)" />
<use xlink:href="#f1_2c" transform="matrix(12,0,0,12,312.4,147.2)" />
<use xlink:href="#f1_2b" transform="matrix(12,0,0,12,321.2,147.2)" />
<use xlink:href="#f1_2j" transform="matrix(12,0,0,12,330.8,147.2)" />
<use xlink:href="#f1_21" transform="matrix(12,0,0,12,343.6,147.2)" />
<use xlink:href="#f1_2e" transform="matrix(12,0,0,12,351.3,147.2)" />
<use xlink:href="#f1_20" transform="matrix(12,0,0,12,360.9,147.2)" />
<use xlink:href="#f1_25" transform="matrix(12,0,0,12,370,147.2)" />
<use xlink:href="#f1_2f" transform="matrix(12,0,0,12,374.1,147.2)" />
<use xlink:href="#f1_2f" transform="matrix(12,0,0,12,381.1,147.2)" />
<use xlink:href="#f1_25" transform="matrix(12,0,0,12,387.7,147.2)" />
<use xlink:href="#f1_2c" transform="matrix(12,0,0,12,391.7,147.2)" />
<use xlink:href="#f1_1x" transform="matrix(12,0,0,12,400.9,147.2)" />
<use xlink:href="#f1_2g" transform="matrix(12,0,0,12,408.6,147.2)" />
<use xlink:href="#f1_25" transform="matrix(12,0,0,12,414.1,147.2)" />
<use xlink:href="#f1_2b" transform="matrix(12,0,0,12,418.2,147.2)" />
<use xlink:href="#f1_2a" transform="matrix(12,0,0,12,427.3,147.2)" />
<use xlink:href="#f1_25" transform="matrix(12,0,0,12,439.1,147.2)" />
<use xlink:href="#f1_2a" transform="matrix(12,0,0,12,443.5,147.2)" />
<use xlink:href="#f1_2g" transform="matrix(12,0,0,12,455.3,147.2)" />
<use xlink:href="#f1_24" transform="matrix(12,0,0,12,460.8,147.2)" />
<use xlink:href="#f1_21" transform="matrix(12,0,0,12,469.2,147.2)" />
<use xlink:href="#f1_2f" transform="matrix(12,0,0,12,477.3,147.2)" />
<use xlink:href="#f1_21" transform="matrix(12,0,0,12,483.9,147.2)" />
<use xlink:href="#f1_1y" transform="matrix(12,0,0,12,495.3,147.2)" />
<use xlink:href="#f1_2h" transform="matrix(12,0,0,12,503.8,147.2)" />
<use xlink:href="#f1_28" transform="matrix(12,0,0,12,513,147.2)" />
<use xlink:href="#f1_1y" transform="matrix(12,0,0,12,517,147.2)" />
<use xlink:href="#f1_2f" transform="matrix(12,0,0,12,525.8,147.2)" />
<use xlink:href="#f1_i" transform="matrix(12,0,0,12,532.4,147.2)" />
<use xlink:href="#f1_11" transform="matrix(12,0,0,12,64.9,201.1)" />
<use xlink:href="#f1_2a" transform="matrix(12,0,0,12,77.4,201.1)" />
<use xlink:href="#f1_2f" transform="matrix(12,0,0,12,85.8,201.1)" />
<use xlink:href="#f1_i" transform="matrix(12,0,0,12,92.4,201.1)" />
</g>
<path d="M120,189.8h22.4m15.9,0h10.8" class="g3_2" />
<g fill="#000000" >
<use xlink:href="#f1_l" transform="matrix(12.1,0,0,12.1,159.1,182.7)" />
<use xlink:href="#f1_m" transform="matrix(12.1,0,0,12.1,159.5,208.8)" />
<use xlink:href="#f2_1g" transform="matrix(7,0,0,7,132.7,187.5)" />
<use xlink:href="#f2_1h" transform="matrix(7,0,0,7,132,213.5)" />
<use xlink:href="#f2_1i" transform="matrix(12.1,0,0,12.1,122.1,182.7)" />
<use xlink:href="#f2_1i" transform="matrix(12.1,0,0,12.1,121.7,208.8)" />
<use xlink:href="#f3_x" transform="matrix(12.1,0,0,12.1,145.6,194.5)" />
<use xlink:href="#f1_25" transform="matrix(11.8,0,0,11.8,299.9,200)" />
<use xlink:href="#f1_2a" transform="matrix(11.8,0,0,11.8,305.1,200)" />
<use xlink:href="#f1_2f" transform="matrix(11.8,0,0,11.8,320.1,200)" />
<use xlink:href="#f1_21" transform="matrix(11.8,0,0,11.8,327.4,200)" />
<use xlink:href="#f1_2e" transform="matrix(11.8,0,0,11.8,335.5,200)" />
<use xlink:href="#f1_25" transform="matrix(11.8,0,0,11.8,341.3,200)" />
<use xlink:href="#f1_21" transform="matrix(11.8,0,0,11.8,346.5,200)" />
<use xlink:href="#f1_2f" transform="matrix(11.8,0,0,11.8,354.5,200)" />
<use xlink:href="#f2_1g" transform="matrix(6.8,0,0,6.8,398.9,204.7)" />
<use xlink:href="#f2_1h" transform="matrix(6.8,0,0,6.8,430.1,204.7)" />
<use xlink:href="#f2_19" transform="matrix(11.8,0,0,11.8,391.6,200)" />
<use xlink:href="#f2_19" transform="matrix(11.8,0,0,11.8,423.5,200)" />
<use xlink:href="#f3_1s" transform="matrix(11.8,0,0,11.8,281.2,200)" />
<use xlink:href="#f3_1s" transform="matrix(11.8,0,0,11.8,371.8,200)" />
<use xlink:href="#f3_x" transform="matrix(11.8,0,0,11.8,410.3,200)" />
</g>
<path d="M120,262.1h20.4m16.1,0h39m16.1,0h11" class="g4_2" />
<g fill="#000000" >
<use xlink:href="#f1_m" transform="matrix(6.9,0,0,6.9,167.6,246.9)" />
<use xlink:href="#f1_m" transform="matrix(6.9,0,0,6.9,167.2,272.6)" />
<use xlink:href="#f1_l" transform="matrix(11.9,0,0,11.9,212.7,255.3)" />
<use xlink:href="#f1_m" transform="matrix(11.9,0,0,11.9,212.7,281)" />
<use xlink:href="#f2_1g" transform="matrix(6.9,0,0,6.9,130.5,259.7)" />
<use xlink:href="#f2_1g" transform="matrix(6.9,0,0,6.9,166.5,259.7)" />
<use xlink:href="#f2_1g" transform="matrix(6.9,0,0,6.9,185.5,259.7)" />
<use xlink:href="#f2_1h" transform="matrix(6.9,0,0,6.9,129.8,285.4)" />
<use xlink:href="#f2_1h" transform="matrix(6.9,0,0,6.9,165,285.4)" />
<use xlink:href="#f2_1h" transform="matrix(6.9,0,0,6.9,184.8,285.4)" />
<use xlink:href="#f2_1g" transform="matrix(11.9,0,0,11.9,122.1,255.3)" />
<use xlink:href="#f2_19" transform="matrix(11.9,0,0,11.9,158.8,255.3)" />
<use xlink:href="#f2_1i" transform="matrix(11.9,0,0,11.9,174.5,255.3)" />
<use xlink:href="#f2_1g" transform="matrix(11.9,0,0,11.9,121.7,281)" />
<use xlink:href="#f2_19" transform="matrix(11.9,0,0,11.9,158.4,281)" />
<use xlink:href="#f2_1i" transform="matrix(11.9,0,0,11.9,174.5,281)" />
<use xlink:href="#f3_x" transform="matrix(11.9,0,0,11.9,143.7,266.7)" />
<use xlink:href="#f3_x" transform="matrix(11.9,0,0,11.9,198.7,266.7)" />
<use xlink:href="#f1_r" transform="matrix(12,0,0,12,64.9,365.7)" />
<use xlink:href="#f1_i" transform="matrix(12,0,0,12,74.1,365.7)" />
<use xlink:href="#f1_11" transform="matrix(12,0,0,12,117,365.7)" />
<use xlink:href="#f1_l" transform="matrix(12,0,0,12,132.8,365.7)" />
<use xlink:href="#f1_k" transform="matrix(12,0,0,12,141.6,365.7)" />
<use xlink:href="#f1_1m" transform="matrix(12,0,0,12,153.4,365.7)" />
<use xlink:href="#f1_1z" transform="matrix(12,0,0,12,169.5,365.7)" />
<use xlink:href="#f1_21" transform="matrix(12,0,0,12,177.2,365.7)" />
<use xlink:href="#f1_28" transform="matrix(12,0,0,12,185,365.7)" />
<use xlink:href="#f1_28" transform="matrix(12,0,0,12,189,365.7)" />
<use xlink:href="#f1_2b" transform="matrix(12,0,0,12,196.4,365.7)" />
<use xlink:href="#f1_22" transform="matrix(12,0,0,12,205.5,365.7)" />
<use xlink:href="#f1_2a" transform="matrix(12,0,0,12,214,365.7)" />
<use xlink:href="#f1_21" transform="matrix(12,0,0,12,222.5,365.7)" />
<use xlink:href="#f1_23" transform="matrix(12,0,0,12,230.2,365.7)" />
<use xlink:href="#f1_28" transform="matrix(12,0,0,12,239,365.7)" />
<use xlink:href="#f1_25" transform="matrix(12,0,0,12,242.7,365.7)" />
<use xlink:href="#f1_23" transform="matrix(12,0,0,12,246.7,365.7)" />
<use xlink:href="#f1_25" transform="matrix(12,0,0,12,255.5,365.7)" />
<use xlink:href="#f1_1y" transform="matrix(12,0,0,12,259.6,365.7)" />
<use xlink:href="#f1_28" transform="matrix(12,0,0,12,268,365.7)" />
<use xlink:href="#f1_21" transform="matrix(12,0,0,12,272.1,365.7)" />
<use xlink:href="#f1_25" transform="matrix(12,0,0,12,282.8,365.7)" />
<use xlink:href="#f1_2a" transform="matrix(12,0,0,12,286.8,365.7)" />
<use xlink:href="#f1_2g" transform="matrix(12,0,0,12,295.3,365.7)" />
<use xlink:href="#f1_21" transform="matrix(12,0,0,12,300.4,365.7)" />
<use xlink:href="#f1_2e" transform="matrix(12,0,0,12,308.1,365.7)" />
<use xlink:href="#f1_2a" transform="matrix(12,0,0,12,314,365.7)" />
<use xlink:href="#f1_1x" transform="matrix(12,0,0,12,322.4,365.7)" />
<use xlink:href="#f1_28" transform="matrix(12,0,0,12,330.2,365.7)" />
<use xlink:href="#f1_2e" transform="matrix(12,0,0,12,337.5,365.7)" />
<use xlink:href="#f1_21" transform="matrix(12,0,0,12,343.4,365.7)" />
<use xlink:href="#f1_2f" transform="matrix(12,0,0,12,351.1,365.7)" />
<use xlink:href="#f1_25" transform="matrix(12,0,0,12,357.7,365.7)" />
<use xlink:href="#f1_2f" transform="matrix(12,0,0,12,361.8,365.7)" />
<use xlink:href="#f1_2g" transform="matrix(12,0,0,12,368.4,365.7)" />
<use xlink:href="#f1_1x" transform="matrix(12,0,0,12,373.5,365.7)" />
<use xlink:href="#f1_2a" transform="matrix(12,0,0,12,381.3,365.7)" />
<use xlink:href="#f1_1z" transform="matrix(12,0,0,12,389.7,365.7)" />
<use xlink:href="#f1_21" transform="matrix(12,0,0,12,397.4,365.7)" />
<use xlink:href="#f1_25" transform="matrix(12,0,0,12,408.5,365.7)" />
<use xlink:href="#f1_2f" transform="matrix(12,0,0,12,412.5,365.7)" />
<use xlink:href="#f1_1z" transform="matrix(12,0,0,12,422.4,365.7)" />
<use xlink:href="#f1_2b" transform="matrix(12,0,0,12,430.2,365.7)" />
<use xlink:href="#f1_2a" transform="matrix(12,0,0,12,439.3,365.7)" />
<use xlink:href="#f1_2a" transform="matrix(12,0,0,12,447.8,365.7)" />
<use xlink:href="#f1_21" transform="matrix(12,0,0,12,456.2,365.7)" />
<use xlink:href="#f1_1z" transform="matrix(12,0,0,12,463.9,365.7)" />
<use xlink:href="#f1_2g" transform="matrix(12,0,0,12,471.7,365.7)" />
<use xlink:href="#f1_21" transform="matrix(12,0,0,12,476.4,365.7)" />
<use xlink:href="#f1_20" transform="matrix(12,0,0,12,484.2,365.7)" />
<use xlink:href="#f1_25" transform="matrix(12,0,0,12,495.9,365.7)" />
<use xlink:href="#f1_2a" transform="matrix(12,0,0,12,500,365.7)" />
<use xlink:href="#f1_2c" transform="matrix(12,0,0,12,511.8,365.7)" />
<use xlink:href="#f1_1x" transform="matrix(12,0,0,12,520.6,365.7)" />
<use xlink:href="#f1_2e" transform="matrix(12,0,0,12,528.3,365.7)" />
<use xlink:href="#f1_1x" transform="matrix(12,0,0,12,534.2,365.7)" />
<use xlink:href="#f1_28" transform="matrix(12,0,0,12,541.9,365.7)" />
<use xlink:href="#f1_28" transform="matrix(12,0,0,12,545.9,365.7)" />
<use xlink:href="#f1_21" transform="matrix(12,0,0,12,550,365.7)" />
<use xlink:href="#f1_28" transform="matrix(12,0,0,12,557.7,365.7)" />
<use xlink:href="#f1_1x" transform="matrix(12,0,0,12,565.1,365.7)" />
<use xlink:href="#f1_1z" transform="matrix(12,0,0,12,572.8,365.7)" />
<use xlink:href="#f1_2e" transform="matrix(12,0,0,12,580.5,365.7)" />
<use xlink:href="#f1_2b" transform="matrix(12,0,0,12,586.4,365.7)" />
<use xlink:href="#f1_2f" transform="matrix(12,0,0,12,595.6,365.7)" />
<use xlink:href="#f1_2f" transform="matrix(12,0,0,12,602.2,365.7)" />
<use xlink:href="#f1_1x" transform="matrix(12,0,0,12,612.1,365.7)" />
<use xlink:href="#f1_1y" transform="matrix(12,0,0,12,622.8,365.7)" />
<use xlink:href="#f1_1x" transform="matrix(12,0,0,12,631.2,365.7)" />
<use xlink:href="#f1_2g" transform="matrix(12,0,0,12,638.9,365.7)" />
<use xlink:href="#f1_2g" transform="matrix(12,0,0,12,644.1,365.7)" />
<use xlink:href="#f1_21" transform="matrix(12,0,0,12,649.2,365.7)" />
<use xlink:href="#f1_2e" transform="matrix(12,0,0,12,656.9,365.7)" />
<use xlink:href="#f1_2l" transform="matrix(12,0,0,12,662.8,365.7)" />
<use xlink:href="#f1_2b" transform="matrix(12,0,0,12,674.2,365.7)" />
<use xlink:href="#f1_22" transform="matrix(12,0,0,12,683.4,365.7)" />
<use xlink:href="#f1_21" transform="matrix(12,0,0,12,691.8,365.7)" />
<use xlink:href="#f1_29" transform="matrix(12,0,0,12,699.6,365.7)" />
<use xlink:href="#f1_22" transform="matrix(12,0,0,12,712.8,365.7)" />
<use xlink:href="#f1_m" transform="matrix(12,0,0,12,720.9,365.7)" />
<use xlink:href="#f1_k" transform="matrix(12,0,0,12,729.7,365.7)" />
<use xlink:href="#f1_k" transform="matrix(12,0,0,12,738.5,365.7)" />
<use xlink:href="#f1_1m" transform="matrix(12,0,0,12,750.3,365.7)" />
<use xlink:href="#f1_1x" transform="matrix(12,0,0,12,764.9,365.7)" />
<use xlink:href="#f1_2a" transform="matrix(12,0,0,12,772.6,365.7)" />
<use xlink:href="#f1_20" transform="matrix(12,0,0,12,781.1,365.7)" />
<use xlink:href="#f1_25" transform="matrix(12,0,0,12,793.2,365.7)" />
<use xlink:href="#f1_2a" transform="matrix(12,0,0,12,797.2,365.7)" />
<use xlink:href="#f1_2g" transform="matrix(12,0,0,12,805.7,365.7)" />
<use xlink:href="#f1_21" transform="matrix(12,0,0,12,810.8,365.7)" />
<use xlink:href="#f1_2e" transform="matrix(12,0,0,12,818.5,365.7)" />
<use xlink:href="#f1_2a" transform="matrix(12,0,0,12,824.4,365.7)" />
<use xlink:href="#f1_1x" transform="matrix(12,0,0,12,832.9,365.7)" />
<use xlink:href="#f1_28" transform="matrix(12,0,0,12,840.6,365.7)" />
<use xlink:href="#f1_2e" transform="matrix(12,0,0,12,117,392.8)" />
<use xlink:href="#f1_21" transform="matrix(12,0,0,12,122.8,392.8)" />
<use xlink:href="#f1_2f" transform="matrix(12,0,0,12,130.9,392.8)" />
<use xlink:href="#f1_25" transform="matrix(12,0,0,12,137.6,392.8)" />
<use xlink:href="#f1_2f" transform="matrix(12,0,0,12,141.6,392.8)" />
<use xlink:href="#f1_2g" transform="matrix(12,0,0,12,148.6,392.8)" />
<use xlink:href="#f1_1x" transform="matrix(12,0,0,12,153.7,392.8)" />
<use xlink:href="#f1_2a" transform="matrix(12,0,0,12,161.8,392.8)" />
<use xlink:href="#f1_1z" transform="matrix(12,0,0,12,170.3,392.8)" />
<use xlink:href="#f1_21" transform="matrix(12,0,0,12,178,392.8)" />
<use xlink:href="#f1_n" transform="matrix(11.9,0,0,11.9,191.4,393.2)" />
<use xlink:href="#f1_s" transform="matrix(11.9,0,0,11.9,200.6,393.2)" />
<use xlink:href="#f3_1n" transform="matrix(11.9,0,0,11.9,211.6,393.2)" />
<use xlink:href="#f1_1x" transform="matrix(12,0,0,12,232.1,392.8)" />
<use xlink:href="#f1_2f" transform="matrix(12,0,0,12,240.2,392.8)" />
<use xlink:href="#f1_2f" transform="matrix(12,0,0,12,250.1,392.8)" />
<use xlink:href="#f1_24" transform="matrix(12,0,0,12,256.8,392.8)" />
<use xlink:href="#f1_2b" transform="matrix(12,0,0,12,265.6,392.8)" />
<use xlink:href="#f1_2j" transform="matrix(12,0,0,12,274.7,392.8)" />
<use xlink:href="#f1_2a" transform="matrix(12,0,0,12,287.6,392.8)" />
<use xlink:href="#f1_25" transform="matrix(12,0,0,12,299.4,392.8)" />
<use xlink:href="#f1_2a" transform="matrix(12,0,0,12,303.4,392.8)" />
<use xlink:href="#f1_2g" transform="matrix(12,0,0,12,315.5,392.8)" />
<use xlink:href="#f1_24" transform="matrix(12,0,0,12,320.7,392.8)" />
<use xlink:href="#f1_21" transform="matrix(12,0,0,12,329.1,392.8)" />
<use xlink:href="#f1_22" transform="matrix(12,0,0,12,340.5,392.8)" />
<use xlink:href="#f1_25" transform="matrix(12,0,0,12,345.7,392.8)" />
<use xlink:href="#f1_23" transform="matrix(12,0,0,12,349.7,392.8)" />
<use xlink:href="#f1_2h" transform="matrix(12,0,0,12,358.9,392.8)" />
<use xlink:href="#f1_2e" transform="matrix(12,0,0,12,367.7,392.8)" />
<use xlink:href="#f1_21" transform="matrix(12,0,0,12,373.6,392.8)" />
<use xlink:href="#f1_i" transform="matrix(12,0,0,12,381.3,392.8)" />
<use xlink:href="#f1_16" transform="matrix(12,0,0,12,389.4,392.8)" />
<use xlink:href="#f1_25" transform="matrix(12,0,0,12,398.9,392.8)" />
<use xlink:href="#f1_2a" transform="matrix(12,0,0,12,403,392.8)" />
<use xlink:href="#f1_20" transform="matrix(12,0,0,12,411.8,392.8)" />
<use xlink:href="#f1_2g" transform="matrix(12,0,0,12,423.6,392.8)" />
<use xlink:href="#f1_24" transform="matrix(12,0,0,12,429.1,392.8)" />
<use xlink:href="#f1_21" transform="matrix(12,0,0,12,437.5,392.8)" />
<use xlink:href="#f1_2i" transform="matrix(12,0,0,12,448.6,392.8)" />
<use xlink:href="#f1_1x" transform="matrix(12,0,0,12,457.4,392.8)" />
<use xlink:href="#f1_28" transform="matrix(12,0,0,12,465.1,392.8)" />
<use xlink:href="#f1_2h" transform="matrix(12,0,0,12,469.1,392.8)" />
<use xlink:href="#f1_21" transform="matrix(12,0,0,12,478.3,392.8)" />
<use xlink:href="#f1_2b" transform="matrix(12,0,0,12,489.3,392.8)" />
<use xlink:href="#f1_22" transform="matrix(12,0,0,12,498.5,392.8)" />
<use xlink:href="#f1_1z" transform="matrix(12,0,0,12,507.3,392.8)" />
<use xlink:href="#f1_2h" transform="matrix(12,0,0,12,515.1,392.8)" />
<use xlink:href="#f1_2e" transform="matrix(12,0,0,12,523.9,392.8)" />
<use xlink:href="#f1_2e" transform="matrix(12,0,0,12,530.1,392.8)" />
<use xlink:href="#f1_21" transform="matrix(12,0,0,12,536,392.8)" />
<use xlink:href="#f1_2a" transform="matrix(12,0,0,12,543.7,392.8)" />
<use xlink:href="#f1_2g" transform="matrix(12,0,0,12,552.5,392.8)" />
<use xlink:href="#f1_25" transform="matrix(12,0,0,12,560.6,392.8)" />
<use xlink:href="#f1_2a" transform="matrix(12,0,0,12,564.7,392.8)" />
<use xlink:href="#f1_2g" transform="matrix(12,0,0,12,576.8,392.8)" />
<use xlink:href="#f1_24" transform="matrix(12,0,0,12,581.9,392.8)" />
<use xlink:href="#f1_21" transform="matrix(12,0,0,12,590.7,392.8)" />
<use xlink:href="#f1_1z" transform="matrix(12,0,0,12,601.8,392.8)" />
<use xlink:href="#f1_25" transform="matrix(12,0,0,12,609.5,392.8)" />
<use xlink:href="#f1_2e" transform="matrix(12,0,0,12,613.9,392.8)" />
<use xlink:href="#f1_1z" transform="matrix(12,0,0,12,619.8,392.8)" />
<use xlink:href="#f1_2h" transform="matrix(12,0,0,12,627.5,392.8)" />
<use xlink:href="#f1_25" transform="matrix(12,0,0,12,636.3,392.8)" />
<use xlink:href="#f1_2g" transform="matrix(12,0,0,12,640.7,392.8)" />
<use xlink:href="#f1_i" transform="matrix(12,0,0,12,645.9,392.8)" />
</g>
<path d="M541.2,449.4l-1.1,.7H457.4v-1.5h82.7l1.1,.8Zm-1.1,-.8h1.1v.8l-1.1,-.8Zm0,75.8l-.7,-.7V449.4h1.8v74.3l-1.1,.7Zm1.1,-.7v.7h-1.1l1.1,-.7Zm-42.4,0l.7,-.8h40.6v1.5H499.5l-.7,-.7Zm0,0l.3,-.8h.4l-.7,.8Zm-1.1,5.1v-.4l1.1,-4.7l1.4,.3l-1.1,4.8h-1.4Zm-2.2,-10.3h1.4l2.2,9.9l-1.4,.4l-2.2,-9.9v-.4Zm-1.1,5.2l1.1,-5.2l1.4,.4l-1.1,5.1l-1.4,-.3Zm-1.1,5.1v-.4l1.1,-4.7l1.4,.3l-1.1,4.8h-1.4Zm-2.6,-10.3h1.5l2.5,9.9l-1.4,.4l-2.6,-9.9v-.4Zm-1.1,5.2l1.1,-5.2l1.5,.4l-1.1,5.1l-1.5,-.3Zm-1.1,5.1v-.4l1.1,-4.7l1.5,.3l-1.1,4.8h-1.5Zm-2.2,-10.3h1.5l2.2,9.9l-1.5,.4l-2.2,-9.9v-.4Zm-.4,5.9l-.7,-.7l1.1,-5.2l1.5,.4l-1.1,5.1l-.8,.4Zm.8,-.4l-.4,.4h-.4l.8,-.4Zm-4.4,-1.1h3.6v1.5h-3.6v-1.5Zm-69.9,0h69.9v1.5H412.4v-1.5Zm-44.6,.8l1.1,-.8h38v1.5h-38l-1.1,-.7Zm1.1,.7h-1.1v-.7l1.1,.7Zm0,-75.8l.7,.8v74.3h-1.8V449.4l1.1,-.8Zm-1.1,.8v-.8h1.1l-1.1,.8Zm83.8,.7H368.9v-1.5h82.7v1.5Z" class="g5_2" />
<path d="M450.8,460h1.5V439.8h-1.5V460Z" class="g5_2" />
<path d="M456.7,455.6h1.5V444.2h-1.5v11.4Z" class="g5_2" />
<path d="M406.2,533.2h1.4V513h-1.4v20.2Z" class="g5_2" />
<path d="M411.7,528.8h1.4V517.4h-1.4v11.4Z" class="g5_2" />
<g fill="#1F1A17" >
<use xlink:href="#f1_l" transform="matrix(11.9,0,0,12,438.2,434.6)" />
<use xlink:href="#f1_k" transform="matrix(11.9,0,0,12,447.3,434.6)" />
<use xlink:href="#f1_1m" transform="matrix(11.9,0,0,12,456.1,434.6)" />
<use xlink:href="#f1_m" transform="matrix(11.9,0,0,12,391.6,548.3)" />
<use xlink:href="#f1_k" transform="matrix(11.9,0,0,12,400.8,548.3)" />
<use xlink:href="#f1_k" transform="matrix(11.9,0,0,12,409.9,548.3)" />
<use xlink:href="#f1_1m" transform="matrix(11.9,0,0,12,419.1,548.3)" />
<use xlink:href="#f1_n" transform="matrix(11.9,0,0,12,478.1,544.6)" />
<use xlink:href="#f1_s" transform="matrix(11.9,0,0,12,487.3,544.6)" />
<use xlink:href="#f3_1n" transform="matrix(12,0,0,12,496.5,544.6)" />
</g>
<g fill="#000000" >
<use xlink:href="#f1_11" transform="matrix(12,0,0,12,64.9,586.1)" />
<use xlink:href="#f1_2a" transform="matrix(12,0,0,12,77.4,586.1)" />
<use xlink:href="#f1_2f" transform="matrix(12,0,0,12,85.8,586.1)" />
<use xlink:href="#f1_i" transform="matrix(12,0,0,12,92.4,586.1)" />
<use xlink:href="#f1_m" transform="matrix(11.9,0,0,11.9,147.4,586.4)" />
<use xlink:href="#f1_k" transform="matrix(11.9,0,0,11.9,156.6,586.4)" />
<use xlink:href="#f1_k" transform="matrix(11.9,0,0,11.9,165.7,586.4)" />
<use xlink:href="#f1_l" transform="matrix(11.9,0,0,11.9,187.7,586.4)" />
<use xlink:href="#f1_k" transform="matrix(11.9,0,0,11.9,197.2,586.4)" />
<use xlink:href="#f2_15" transform="matrix(11.9,0,0,11.9,120.3,586.4)" />
<use xlink:href="#f3_x" transform="matrix(11.9,0,0,11.9,134.9,586.4)" />
<use xlink:href="#f3_h" transform="matrix(11.9,0,0,11.9,177.5,586.4)" />
<use xlink:href="#f1_l" transform="matrix(11.9,0,0,11.9,148.9,619.8)" />
<use xlink:href="#f1_t" transform="matrix(11.9,0,0,11.9,158,619.8)" />
<use xlink:href="#f1_k" transform="matrix(11.9,0,0,11.9,167.2,619.8)" />
<use xlink:href="#f3_x" transform="matrix(11.9,0,0,11.9,138.2,619.8)" />
</g>
<path d="M557.5,593.6H483.6v-1.5h73.9v1.5Zm4,-.4l-.7,.4h-3.3v-1.5h3.3l.7,1.1Zm0,0v.4h-.7l.7,-.4Zm1.1,-4.8v.4l-1.1,4.4l-1.5,-.8l1.1,-4h1.5Zm2.2,8.9h-1.5l-2.2,-8.5l1.5,-.4l2.2,8.5v.4Zm0,-4.9l1.4,.8l-1.4,4.1l-1.5,-.4l1.5,-4.5Zm2.5,-4v.4l-1.1,4.4l-1.4,-.8l1.1,-4h1.4Zm2.2,8.9h-1.4l-2.2,-8.5l1.4,-.4l2.2,8.5v.4Zm-.3,-4.9l1.4,.8l-1.1,4.1l-1.4,-.4l1.1,-4.5Zm2.5,-4v.4l-1.1,4.4l-1.4,-.8l1.1,-4h1.4Zm2.6,8.9h-1.5l-2.5,-8.5l1.4,-.4l2.6,8.5v.4Zm.4,-5.2l.7,1.1l-1.1,4.1l-1.5,-.4l1.1,-4.5l.8,-.3Zm-.8,.3v-.3h.8l-.8,.3Zm46.9,.4l-1.1,.8h-45v-1.5h45l1.1,.7Zm-1.1,-.7h1.1v.7l-1.1,-.7Zm0,76.1l-.8,-1.1V592.8h1.9v74.3l-1.1,1.1Zm1.1,-1.1v1.1h-1.1l1.1,-1.1Zm-173.5,0h1.9l-.8,-.8H619.7v1.9H448.4l-1.1,-1.1Zm1.1,1.1h-1.1v-1.1l1.1,1.1Zm0,-76.1l.8,.7v74.3h-1.9V592.8l1.1,-.7Zm-1.1,.7v-.7h1.1l-1.1,.7Zm30.8,.8H448.4v-1.5h29.7v1.5Z" class="g5_2" />
<path d="M477.3,603.2h1.5v-20h-1.5v20Z" class="g5_2" />
<path d="M482.8,598.7h1.5V587.3h-1.5v11.4Z" class="g5_2" />
<g fill="#1F1A17" >
<use xlink:href="#f1_l" transform="matrix(11.9,0,0,12.1,466,624.6)" />
<use xlink:href="#f1_t" transform="matrix(11.9,0,0,12.1,475.2,624.6)" />
<use xlink:href="#f1_k" transform="matrix(11.9,0,0,12.1,484.4,624.6)" />
<use xlink:href="#f1_n" transform="matrix(11.9,0,0,12.1,557,583.9)" />
<use xlink:href="#f1_s" transform="matrix(11.9,0,0,12.1,566.1,583.9)" />
<use xlink:href="#f3_1n" transform="matrix(12,0,0,12.1,575.3,583.9)" />
</g>
<path d="M143.8,663.4h14m16,0h27.1" class="g6_2" />
<g fill="#000000" >
<use xlink:href="#f1_l" transform="matrix(11.9,0,0,11.9,173.1,656.5)" />
<use xlink:href="#f1_t" transform="matrix(11.9,0,0,11.9,182.2,656.5)" />
<use xlink:href="#f1_k" transform="matrix(11.9,0,0,11.9,191.4,656.5)" />
<use xlink:href="#f1_m" transform="matrix(11.9,0,0,11.9,216.7,667.8)" />
<use xlink:href="#f1_k" transform="matrix(11.9,0,0,11.9,225.9,667.8)" />
<use xlink:href="#f1_n" transform="matrix(11.9,0,0,11.9,178.2,682.1)" />
<use xlink:href="#f1_k" transform="matrix(11.9,0,0,11.9,187.4,682.1)" />
<use xlink:href="#f2_1m" transform="matrix(11.9,0,0,11.9,143.4,656.5)" />
<use xlink:href="#f2_19" transform="matrix(11.9,0,0,11.9,120.3,667.8)" />
<use xlink:href="#f2_11" transform="matrix(11.9,0,0,11.9,236.9,667.8)" />
<use xlink:href="#f2_1i" transform="matrix(11.9,0,0,11.9,145.6,682.1)" />
<use xlink:href="#f3_x" transform="matrix(11.9,0,0,11.9,130.9,667.8)" />
<use xlink:href="#f3_x" transform="matrix(11.9,0,0,11.9,161,667.8)" />
<use xlink:href="#f3_x" transform="matrix(11.9,0,0,11.9,204.2,667.8)" />
<use xlink:href="#f0_c" transform="matrix(12,0,0,12,435.2,750.7)" />
<use xlink:href="#f0_1f" transform="matrix(12,0,0,12,441.1,750.7)" />
<use xlink:href="#f0_1i" transform="matrix(12,0,0,12,455.1,750.7)" />
<use xlink:href="#f0_d" transform="matrix(12,0,0,12,467.9,750.7)" />
<use xlink:href="#f1_19" transform="matrix(12,0,0,12,117,779.7)" />
<use xlink:href="#f1_2a" transform="matrix(12,0,0,12,122.8,779.7)" />
<use xlink:href="#f1_1x" transform="matrix(12,0,0,12,134.6,779.7)" />
<use xlink:href="#f1_2c" transform="matrix(12,0,0,12,145.3,779.7)" />
<use xlink:href="#f1_2b" transform="matrix(12,0,0,12,154.4,779.7)" />
<use xlink:href="#f1_2g" transform="matrix(12,0,0,12,163.6,779.7)" />
<use xlink:href="#f1_21" transform="matrix(12,0,0,12,168.7,779.7)" />
<use xlink:href="#f1_2a" transform="matrix(12,0,0,12,176.5,779.7)" />
<use xlink:href="#f1_2g" transform="matrix(12,0,0,12,184.9,779.7)" />
<use xlink:href="#f1_25" transform="matrix(12,0,0,12,190,779.7)" />
<use xlink:href="#f1_2b" transform="matrix(12,0,0,12,194.1,779.7)" />
<use xlink:href="#f1_29" transform="matrix(12,0,0,12,203.3,779.7)" />
<use xlink:href="#f1_21" transform="matrix(12,0,0,12,216.5,779.7)" />
<use xlink:href="#f1_2g" transform="matrix(12,0,0,12,224.2,779.7)" />
<use xlink:href="#f1_21" transform="matrix(12,0,0,12,229.7,779.7)" />
<use xlink:href="#f1_2e" transform="matrix(12,0,0,12,237.4,779.7)" />
<use xlink:href="#f1_1x" transform="matrix(12,0,0,12,246.6,779.7)" />
<use xlink:href="#f1_2e" transform="matrix(12,0,0,12,254.3,779.7)" />
<use xlink:href="#f1_2e" transform="matrix(12,0,0,12,260.2,779.7)" />
<use xlink:href="#f1_1x" transform="matrix(12,0,0,12,266.1,779.7)" />
<use xlink:href="#f1_2a" transform="matrix(12,0,0,12,273.8,779.7)" />
<use xlink:href="#f1_23" transform="matrix(12,0,0,12,282.3,779.7)" />
<use xlink:href="#f1_21" transform="matrix(12,0,0,12,291.1,779.7)" />
<use xlink:href="#f1_29" transform="matrix(12,0,0,12,299.2,779.7)" />
<use xlink:href="#f1_21" transform="matrix(12,0,0,12,312.4,779.7)" />
<use xlink:href="#f1_2a" transform="matrix(12,0,0,12,320.1,779.7)" />
<use xlink:href="#f1_2g" transform="matrix(12,0,0,12,328.5,779.7)" />
<use xlink:href="#f1_22" transform="matrix(12,0,0,12,337,779.7)" />
<use xlink:href="#f1_2b" transform="matrix(12,0,0,12,342.1,779.7)" />
<use xlink:href="#f1_2e" transform="matrix(12,0,0,12,351.3,779.7)" />
<use xlink:href="#f1_20" transform="matrix(12,0,0,12,360.5,779.7)" />
<use xlink:href="#f1_21" transform="matrix(12,0,0,12,369.7,779.7)" />
<use xlink:href="#f1_2g" transform="matrix(12,0,0,12,377.4,779.7)" />
<use xlink:href="#f1_21" transform="matrix(12,0,0,12,382.5,779.7)" />
<use xlink:href="#f1_2e" transform="matrix(12,0,0,12,390.2,779.7)" />
<use xlink:href="#f1_29" transform="matrix(12,0,0,12,396.1,779.7)" />
<use xlink:href="#f1_25" transform="matrix(12,0,0,12,409.3,779.7)" />
<use xlink:href="#f1_2a" transform="matrix(12,0,0,12,413.4,779.7)" />
<use xlink:href="#f1_25" transform="matrix(12,0,0,12,421.8,779.7)" />
<use xlink:href="#f1_2a" transform="matrix(12,0,0,12,425.9,779.7)" />
<use xlink:href="#f1_23" transform="matrix(12,0,0,12,434.3,779.7)" />
<use xlink:href="#f1_2g" transform="matrix(12,0,0,12,446.5,779.7)" />
<use xlink:href="#f1_24" transform="matrix(12,0,0,12,451.6,779.7)" />
<use xlink:href="#f1_21" transform="matrix(12,0,0,12,460,779.7)" />
<use xlink:href="#f1_21" transform="matrix(12,0,0,12,471.1,779.7)" />
<use xlink:href="#f1_29" transform="matrix(12,0,0,12,478.8,779.7)" />
<use xlink:href="#f1_22" transform="matrix(12,0,0,12,492,779.7)" />
<use xlink:href="#f1_2b" transform="matrix(12,0,0,12,500.5,779.7)" />
<use xlink:href="#f1_22" transform="matrix(12,0,0,12,510,779.7)" />
<use xlink:href="#f1_1x" transform="matrix(12,0,0,12,518.5,779.7)" />
<use xlink:href="#f1_1z" transform="matrix(12,0,0,12,529.1,779.7)" />
<use xlink:href="#f1_21" transform="matrix(12,0,0,12,536.9,779.7)" />
<use xlink:href="#f1_28" transform="matrix(12,0,0,12,544.6,779.7)" />
<use xlink:href="#f1_28" transform="matrix(12,0,0,12,548.6,779.7)" />
<use xlink:href="#f1_g" transform="matrix(12,0,0,12,552.7,779.7)" />
<use xlink:href="#f1_2g" transform="matrix(12,0,0,12,560.8,779.7)" />
<use xlink:href="#f1_24" transform="matrix(12,0,0,12,565.9,779.7)" />
<use xlink:href="#f1_21" transform="matrix(12,0,0,12,574.4,779.7)" />
<use xlink:href="#f1_1y" transform="matrix(12,0,0,12,585.4,779.7)" />
<use xlink:href="#f1_1x" transform="matrix(12,0,0,12,593.8,779.7)" />
<use xlink:href="#f1_28" transform="matrix(12,0,0,12,601.6,779.7)" />
<use xlink:href="#f1_1x" transform="matrix(12,0,0,12,605.6,779.7)" />
<use xlink:href="#f1_2a" transform="matrix(12,0,0,12,613.3,779.7)" />
<use xlink:href="#f1_1z" transform="matrix(12,0,0,12,621.8,779.7)" />
<use xlink:href="#f1_21" transform="matrix(12,0,0,12,629.9,779.7)" />
<use xlink:href="#f1_2c" transform="matrix(12,0,0,12,640.9,779.7)" />
<use xlink:href="#f1_2b" transform="matrix(12,0,0,12,649.7,779.7)" />
<use xlink:href="#f1_25" transform="matrix(12,0,0,12,658.9,779.7)" />
<use xlink:href="#f1_2a" transform="matrix(12,0,0,12,662.9,779.7)" />
<use xlink:href="#f1_2g" transform="matrix(12,0,0,12,671.4,779.7)" />
<use xlink:href="#f1_2b" transform="matrix(12,0,0,12,679.5,779.7)" />
<use xlink:href="#f1_22" transform="matrix(12,0,0,12,688.6,779.7)" />
<use xlink:href="#f1_2g" transform="matrix(12,0,0,12,697.5,779.7)" />
<use xlink:href="#f1_24" transform="matrix(12,0,0,12,702.6,779.7)" />
<use xlink:href="#f1_21" transform="matrix(12,0,0,12,711,779.7)" />
<use xlink:href="#f1_1z" transform="matrix(12,0,0,12,722.1,779.7)" />
<use xlink:href="#f1_21" transform="matrix(12,0,0,12,729.8,779.7)" />
<use xlink:href="#f1_28" transform="matrix(12,0,0,12,737.5,779.7)" />
<use xlink:href="#f1_28" transform="matrix(12,0,0,12,741.6,779.7)" />
<use xlink:href="#f1_25" transform="matrix(12,0,0,12,749.3,779.7)" />
<use xlink:href="#f1_2a" transform="matrix(12,0,0,12,753.4,779.7)" />
<use xlink:href="#f1_2b" transform="matrix(12,0,0,12,764.8,779.7)" />
<use xlink:href="#f1_2c" transform="matrix(12,0,0,12,772.6,779.7)" />
<use xlink:href="#f1_21" transform="matrix(12,0,0,12,781.4,779.7)" />
<use xlink:href="#f1_2a" transform="matrix(12,0,0,12,789.1,779.7)" />
<use xlink:href="#f1_1z" transform="matrix(12,0,0,12,800.9,779.7)" />
<use xlink:href="#f1_25" transform="matrix(12,0,0,12,808.6,779.7)" />
<use xlink:href="#f1_2e" transform="matrix(12,0,0,12,813,779.7)" />
<use xlink:href="#f1_1z" transform="matrix(12,0,0,12,818.9,779.7)" />
<use xlink:href="#f1_2h" transform="matrix(12,0,0,12,826.6,779.7)" />
<use xlink:href="#f1_25" transform="matrix(12,0,0,12,835.4,779.7)" />
<use xlink:href="#f1_2g" transform="matrix(12,0,0,12,839.5,779.7)" />
<use xlink:href="#f1_25" transform="matrix(12,0,0,12,117,806.8)" />
<use xlink:href="#f1_2f" transform="matrix(12,0,0,12,121,806.8)" />
<use xlink:href="#f1_n" transform="matrix(12,0,0,12,131.3,806.8)" />
<use xlink:href="#f1_p" transform="matrix(12,0,0,12,140.1,806.8)" />
<use xlink:href="#f1_k" transform="matrix(12,0,0,12,149,806.8)" />
<use xlink:href="#f1_1z" transform="matrix(12,0,0,12,161.4,806.8)" />
<use xlink:href="#f1_29" transform="matrix(12,0,0,12,169.2,806.8)" />
<use xlink:href="#f1_i" transform="matrix(12,0,0,12,182.7,806.8)" />
<use xlink:href="#f1_1n" transform="matrix(12,0,0,12,190.5,806.8)" />
<use xlink:href="#f1_24" transform="matrix(12,0,0,12,207,806.8)" />
<use xlink:href="#f1_21" transform="matrix(12,0,0,12,215.8,806.8)" />
<use xlink:href="#f1_2a" transform="matrix(12,0,0,12,223.5,806.8)" />
<use xlink:href="#f1_1x" transform="matrix(12,0,0,12,234.9,806.8)" />
<use xlink:href="#f1_2e" transform="matrix(12,0,0,12,246.3,806.8)" />
<use xlink:href="#f1_21" transform="matrix(12,0,0,12,252.2,806.8)" />
<use xlink:href="#f1_2f" transform="matrix(12,0,0,12,260.3,806.8)" />
<use xlink:href="#f1_25" transform="matrix(12,0,0,12,266.9,806.8)" />
<use xlink:href="#f1_2f" transform="matrix(12,0,0,12,271,806.8)" />
<use xlink:href="#f1_2g" transform="matrix(12,0,0,12,277.6,806.8)" />
<use xlink:href="#f1_1x" transform="matrix(12,0,0,12,283.1,806.8)" />
<use xlink:href="#f1_2a" transform="matrix(12,0,0,12,290.8,806.8)" />
<use xlink:href="#f1_1z" transform="matrix(12,0,0,12,299.2,806.8)" />
<use xlink:href="#f1_21" transform="matrix(12,0,0,12,307.3,806.8)" />
<use xlink:href="#f1_2b" transform="matrix(12,0,0,12,318.4,806.8)" />
<use xlink:href="#f1_22" transform="matrix(12,0,0,12,327.5,806.8)" />
<use xlink:href="#f1_t" transform="matrix(11.9,0,0,11.9,338.1,807.2)" />
<use xlink:href="#f3_1n" transform="matrix(11.9,0,0,11.9,349.4,807.2)" />
<use xlink:href="#f1_25" transform="matrix(12,0,0,12,369.6,806.8)" />
<use xlink:href="#f1_2f" transform="matrix(12,0,0,12,374,806.8)" />
<use xlink:href="#f1_2h" transform="matrix(12,0,0,12,383.6,806.8)" />
<use xlink:href="#f1_2f" transform="matrix(12,0,0,12,392.4,806.8)" />
<use xlink:href="#f1_21" transform="matrix(12,0,0,12,399.4,806.8)" />
<use xlink:href="#f1_20" transform="matrix(12,0,0,12,407.1,806.8)" />
<use xlink:href="#f1_25" transform="matrix(12,0,0,12,419.3,806.8)" />
<use xlink:href="#f1_2a" transform="matrix(12,0,0,12,423.7,806.8)" />
<use xlink:href="#f1_2g" transform="matrix(12,0,0,12,435.4,806.8)" />
<use xlink:href="#f1_24" transform="matrix(12,0,0,12,440.6,806.8)" />
<use xlink:href="#f1_21" transform="matrix(12,0,0,12,449.4,806.8)" />
<use xlink:href="#f1_21" transform="matrix(12,0,0,12,460.1,806.8)" />
<use xlink:href="#f1_2k" transform="matrix(12,0,0,12,467.8,806.8)" />
<use xlink:href="#f1_2g" transform="matrix(12,0,0,12,476.6,806.8)" />
<use xlink:href="#f1_21" transform="matrix(12,0,0,12,481.7,806.8)" />
<use xlink:href="#f1_2e" transform="matrix(12,0,0,12,489.4,806.8)" />
<use xlink:href="#f1_2a" transform="matrix(12,0,0,12,495.7,806.8)" />
<use xlink:href="#f1_1x" transform="matrix(12,0,0,12,504.1,806.8)" />
<use xlink:href="#f1_28" transform="matrix(12,0,0,12,511.8,806.8)" />
<use xlink:href="#f1_1z" transform="matrix(12,0,0,12,519.6,806.8)" />
<use xlink:href="#f1_25" transform="matrix(12,0,0,12,527.3,806.8)" />
<use xlink:href="#f1_2e" transform="matrix(12,0,0,12,531.3,806.8)" />
<use xlink:href="#f1_1z" transform="matrix(12,0,0,12,537.2,806.8)" />
<use xlink:href="#f1_2h" transform="matrix(12,0,0,12,545.3,806.8)" />
<use xlink:href="#f1_25" transform="matrix(12,0,0,12,554.1,806.8)" />
<use xlink:href="#f1_2g" transform="matrix(12,0,0,12,558.2,806.8)" />
<use xlink:href="#f1_2b" transform="matrix(12,0,0,12,567,806.8)" />
<use xlink:href="#f1_22" transform="matrix(12,0,0,12,576.2,806.8)" />
<use xlink:href="#f1_2g" transform="matrix(12,0,0,12,584.3,806.8)" />
<use xlink:href="#f1_24" transform="matrix(12,0,0,12,589.8,806.8)" />
<use xlink:href="#f1_21" transform="matrix(12,0,0,12,598.2,806.8)" />
<use xlink:href="#f1_1z" transform="matrix(12,0,0,12,609.6,806.8)" />
<use xlink:href="#f1_21" transform="matrix(12,0,0,12,617.3,806.8)" />
<use xlink:href="#f1_28" transform="matrix(12,0,0,12,625,806.8)" />
<use xlink:href="#f1_28" transform="matrix(12,0,0,12,629.1,806.8)" />
<use xlink:href="#f1_g" transform="matrix(12,0,0,12,633.5,806.8)" />
<use xlink:href="#f1_2g" transform="matrix(12,0,0,12,641.2,806.8)" />
<use xlink:href="#f1_24" transform="matrix(12,0,0,12,646.4,806.8)" />
<use xlink:href="#f1_21" transform="matrix(12,0,0,12,655.2,806.8)" />
<use xlink:href="#f1_1y" transform="matrix(12,0,0,12,665.9,806.8)" />
<use xlink:href="#f1_1x" transform="matrix(12,0,0,12,674.3,806.8)" />
<use xlink:href="#f1_28" transform="matrix(12,0,0,12,682.4,806.8)" />
<use xlink:href="#f1_1x" transform="matrix(12,0,0,12,686.4,806.8)" />
<use xlink:href="#f1_2a" transform="matrix(12,0,0,12,694.2,806.8)" />
<use xlink:href="#f1_1z" transform="matrix(12,0,0,12,702.6,806.8)" />
<use xlink:href="#f1_21" transform="matrix(12,0,0,12,710.7,806.8)" />
<use xlink:href="#f1_2c" transform="matrix(12,0,0,12,721.7,806.8)" />
<use xlink:href="#f1_2b" transform="matrix(12,0,0,12,730.9,806.8)" />
<use xlink:href="#f1_25" transform="matrix(12,0,0,12,740.1,806.8)" />
<use xlink:href="#f1_2a" transform="matrix(12,0,0,12,744.1,806.8)" />
<use xlink:href="#f1_2g" transform="matrix(12,0,0,12,752.6,806.8)" />
<use xlink:href="#f1_2f" transform="matrix(12,0,0,12,761.4,806.8)" />
<use xlink:href="#f1_24" transform="matrix(12,0,0,12,768,806.8)" />
<use xlink:href="#f1_25" transform="matrix(12,0,0,12,776.4,806.8)" />
<use xlink:href="#f1_22" transform="matrix(12,0,0,12,780.9,806.8)" />
<use xlink:href="#f1_2g" transform="matrix(12,0,0,12,786,806.8)" />
<use xlink:href="#f1_2f" transform="matrix(12,0,0,12,791.1,806.8)" />
<use xlink:href="#f1_2g" transform="matrix(12,0,0,12,801.1,806.8)" />
<use xlink:href="#f1_2b" transform="matrix(12,0,0,12,806.2,806.8)" />
<use xlink:href="#f1_n" transform="matrix(12,0,0,12,818.7,806.8)" />
<use xlink:href="#f1_k" transform="matrix(12,0,0,12,827.9,806.8)" />
<use xlink:href="#f1_k" transform="matrix(12,0,0,12,836.7,806.8)" />
<use xlink:href="#f1_1z" transform="matrix(12,0,0,12,117,833.2)" />
<use xlink:href="#f1_29" transform="matrix(12,0,0,12,124.7,833.2)" />
<use xlink:href="#f1_i" transform="matrix(12,0,0,12,137.9,833.2)" />
<use xlink:href="#f1_14" transform="matrix(12,0,0,12,146,833.2)" />
<use xlink:href="#f1_21" transform="matrix(12,0,0,12,158.8,833.2)" />
<use xlink:href="#f1_2g" transform="matrix(12,0,0,12,166.5,833.2)" />
<use xlink:href="#f1_21" transform="matrix(12,0,0,12,171.7,833.2)" />
<use xlink:href="#f1_2e" transform="matrix(12,0,0,12,179.8,833.2)" />
<use xlink:href="#f1_29" transform="matrix(12,0,0,12,185.6,833.2)" />
<use xlink:href="#f1_25" transform="matrix(12,0,0,12,198.9,833.2)" />
<use xlink:href="#f1_2a" transform="matrix(12,0,0,12,202.9,833.2)" />
<use xlink:href="#f1_21" transform="matrix(12,0,0,12,211.4,833.2)" />
<use xlink:href="#f1_2g" transform="matrix(12,0,0,12,222.4,833.2)" />
<use xlink:href="#f1_24" transform="matrix(12,0,0,12,227.5,833.2)" />
<use xlink:href="#f1_21" transform="matrix(12,0,0,12,236,833.2)" />
<use xlink:href="#f1_25" transform="matrix(12,0,0,12,247.4,833.2)" />
<use xlink:href="#f1_2a" transform="matrix(12,0,0,12,251.4,833.2)" />
<use xlink:href="#f1_2g" transform="matrix(12,0,0,12,259.9,833.2)" />
<use xlink:href="#f1_21" transform="matrix(12,0,0,12,265,833.2)" />
<use xlink:href="#f1_2e" transform="matrix(12,0,0,12,272.7,833.2)" />
<use xlink:href="#f1_2a" transform="matrix(12,0,0,12,279,833.2)" />
<use xlink:href="#f1_1x" transform="matrix(12,0,0,12,287.4,833.2)" />
<use xlink:href="#f1_28" transform="matrix(12,0,0,12,295.1,833.2)" />
<use xlink:href="#f1_2e" transform="matrix(12,0,0,12,302.9,833.2)" />
<use xlink:href="#f1_21" transform="matrix(12,0,0,12,308.7,833.2)" />
<use xlink:href="#f1_2f" transform="matrix(12,0,0,12,316.5,833.2)" />
<use xlink:href="#f1_25" transform="matrix(12,0,0,12,323.1,833.2)" />
<use xlink:href="#f1_2f" transform="matrix(12,0,0,12,327.1,833.2)" />
<use xlink:href="#f1_2g" transform="matrix(12,0,0,12,334.1,833.2)" />
<use xlink:href="#f1_1x" transform="matrix(12,0,0,12,339.2,833.2)" />
<use xlink:href="#f1_2a" transform="matrix(12,0,0,12,347,833.2)" />
<use xlink:href="#f1_1z" transform="matrix(12,0,0,12,355.4,833.2)" />
<use xlink:href="#f1_21" transform="matrix(12,0,0,12,363.1,833.2)" />
<use xlink:href="#f1_2b" transform="matrix(12,0,0,12,374.5,833.2)" />
<use xlink:href="#f1_22" transform="matrix(12,0,0,12,383.7,833.2)" />
<use xlink:href="#f1_2g" transform="matrix(12,0,0,12,391.8,833.2)" />
<use xlink:href="#f1_24" transform="matrix(12,0,0,12,397.3,833.2)" />
<use xlink:href="#f1_21" transform="matrix(12,0,0,12,405.7,833.2)" />
<use xlink:href="#f1_1z" transform="matrix(12,0,0,12,416.8,833.2)" />
<use xlink:href="#f1_21" transform="matrix(12,0,0,12,424.5,833.2)" />
<use xlink:href="#f1_28" transform="matrix(12,0,0,12,432.6,833.2)" />
<use xlink:href="#f1_28" transform="matrix(12,0,0,12,436.6,833.2)" />
<use xlink:href="#f1_i" transform="matrix(12,0,0,12,440.7,833.2)" />
<use xlink:href="#f1_11" transform="matrix(12,0,0,12,64.9,865.8)" />
<use xlink:href="#f1_2a" transform="matrix(12,0,0,12,77.4,865.8)" />
<use xlink:href="#f1_2f" transform="matrix(12,0,0,12,85.8,865.8)" />
<use xlink:href="#f1_i" transform="matrix(12,0,0,12,92.4,865.8)" />
<use xlink:href="#f1_1g" transform="matrix(12,0,0,12,117,865.8)" />
<use xlink:href="#f1_2b" transform="matrix(12,0,0,12,126.9,865.8)" />
<use xlink:href="#f1_2g" transform="matrix(12,0,0,12,136,865.8)" />
<use xlink:href="#f1_21" transform="matrix(12,0,0,12,141.2,865.8)" />
<use xlink:href="#f1_2a" transform="matrix(12,0,0,12,149.3,865.8)" />
<use xlink:href="#f1_2g" transform="matrix(12,0,0,12,157.7,865.8)" />
<use xlink:href="#f1_25" transform="matrix(12,0,0,12,162.8,865.8)" />
<use xlink:href="#f1_2b" transform="matrix(12,0,0,12,166.9,865.8)" />
<use xlink:href="#f1_29" transform="matrix(12,0,0,12,176.1,865.8)" />
<use xlink:href="#f1_21" transform="matrix(12,0,0,12,189.3,865.8)" />
<use xlink:href="#f1_2g" transform="matrix(12,0,0,12,197,865.8)" />
<use xlink:href="#f1_21" transform="matrix(12,0,0,12,202.1,865.8)" />
<use xlink:href="#f1_2e" transform="matrix(12,0,0,12,210.2,865.8)" />
<use xlink:href="#f1_1x" transform="matrix(12,0,0,12,219.4,865.8)" />
<use xlink:href="#f1_2g" transform="matrix(12,0,0,12,227.1,865.8)" />
<use xlink:href="#f1_2b" transform="matrix(12,0,0,12,235.2,865.8)" />
<use xlink:href="#f1_2c" transform="matrix(12,0,0,12,244.4,865.8)" />
<use xlink:href="#f1_21" transform="matrix(12,0,0,12,253.5,865.8)" />
<use xlink:href="#f1_2a" transform="matrix(12,0,0,12,261.3,865.8)" />
<use xlink:href="#f1_1z" transform="matrix(12,0,0,12,273,865.8)" />
<use xlink:href="#f1_25" transform="matrix(12,0,0,12,280.7,865.8)" />
<use xlink:href="#f1_2e" transform="matrix(12,0,0,12,284.8,865.8)" />
<use xlink:href="#f1_1z" transform="matrix(12,0,0,12,290.7,865.8)" />
<use xlink:href="#f1_2h" transform="matrix(12,0,0,12,298.4,865.8)" />
<use xlink:href="#f1_25" transform="matrix(12,0,0,12,307.6,865.8)" />
<use xlink:href="#f1_2g" transform="matrix(12,0,0,12,311.6,865.8)" />
<use xlink:href="#f1_l" transform="matrix(7.1,0,0,7.1,330.7,871.7)" />
<use xlink:href="#f1_n" transform="matrix(12.2,0,0,12.2,351.6,866.9)" />
<use xlink:href="#f1_p" transform="matrix(12.2,0,0,12.2,360.8,866.9)" />
<use xlink:href="#f1_k" transform="matrix(12.2,0,0,12.2,370.3,866.9)" />
<use xlink:href="#f3_x" transform="matrix(12.2,0,0,12.2,339.5,866.9)" />
<use xlink:href="#f4_1u" transform="matrix(12.2,0,0,12.2,322.3,866.9)" />
<use xlink:href="#f1_t" transform="matrix(11.9,0,0,11.9,351.6,901)" />
<use xlink:href="#f2_1i" transform="matrix(11.9,0,0,11.9,325.6,901)" />
<use xlink:href="#f3_x" transform="matrix(11.9,0,0,11.9,339.5,901)" />
<use xlink:href="#f1_m" transform="matrix(7.1,0,0,7.1,330,941.4)" />
<use xlink:href="#f1_n" transform="matrix(12.2,0,0,12.2,351.6,936.6)" />
<use xlink:href="#f1_k" transform="matrix(12.2,0,0,12.2,360.8,936.6)" />
<use xlink:href="#f1_k" transform="matrix(12.2,0,0,12.2,370,936.6)" />
<use xlink:href="#f3_x" transform="matrix(12.2,0,0,12.2,339.5,936.6)" />
<use xlink:href="#f4_1u" transform="matrix(12.2,0,0,12.2,320.5,936.6)" />
</g>
<path d="M331.6,982.2h29.1" class="g7_2" />
<g fill="#000000" >
<use xlink:href="#f1_n" transform="matrix(11.9,0,0,11.9,332.2,975.5)" />
<use xlink:href="#f1_p" transform="matrix(11.9,0,0,11.9,341.4,975.5)" />
<use xlink:href="#f1_k" transform="matrix(11.9,0,0,11.9,350.9,975.5)" />
<use xlink:href="#f1_t" transform="matrix(11.9,0,0,11.9,310.6,986.8)" />
<use xlink:href="#f1_l" transform="matrix(11.9,0,0,11.9,374.7,986.8)" />
<use xlink:href="#f1_n" transform="matrix(11.9,0,0,11.9,332.2,1001.1)" />
<use xlink:href="#f1_k" transform="matrix(11.9,0,0,11.9,341.4,1001.1)" />
<use xlink:href="#f1_k" transform="matrix(11.9,0,0,11.9,350.9,1001.1)" />
<use xlink:href="#f2_2e" transform="matrix(11.9,0,0,11.9,284.2,986.8)" />
<use xlink:href="#f3_4o" transform="matrix(11.9,0,0,11.9,321.6,976.6)" />
<use xlink:href="#f3_54" transform="matrix(11.9,0,0,11.9,384.2,976.6)" />
<use xlink:href="#f3_x" transform="matrix(11.9,0,0,11.9,294.8,986.8)" />
<use xlink:href="#f3_h" transform="matrix(11.9,0,0,11.9,363.7,986.8)" />
<use xlink:href="#f3_4p" transform="matrix(11.9,0,0,11.9,321.6,991.6)" />
<use xlink:href="#f3_55" transform="matrix(11.9,0,0,11.9,384.2,991.6)" />
<use xlink:href="#f3_4q" transform="matrix(11.9,0,0,11.9,321.6,1003.3)" />
<use xlink:href="#f3_56" transform="matrix(11.9,0,0,11.9,384.2,1003.3)" />
<use xlink:href="#f5_x" transform="matrix(11.9,0,0,11.9,430.8,982.8)" />
<use xlink:href="#f1_l" transform="matrix(11.9,0,0,11.9,440.7,982.8)" />
<use xlink:href="#f1_i" transform="matrix(11.9,0,0,11.9,449.8,982.8)" />
<use xlink:href="#f1_p" transform="matrix(11.9,0,0,11.9,454.3,982.8)" />
<use xlink:href="#f5_1n" transform="matrix(11.9,0,0,11.9,465.3,982.8)" />
<use xlink:href="#f1_s" transform="matrix(12,0,0,12,64.9,1105.4)" />
<use xlink:href="#f1_i" transform="matrix(12,0,0,12,74.1,1105.4)" />
<use xlink:href="#f1_c" transform="matrix(12,0,0,12,117,1105.4)" />
<use xlink:href="#f1_1x" transform="matrix(12,0,0,12,123.1,1105.4)" />
<use xlink:href="#f1_d" transform="matrix(12,0,0,12,131.2,1105.4)" />
<use xlink:href="#f1_1n" transform="matrix(12,0,0,12,156.8,1105.4)" />
<use xlink:href="#f1_24" transform="matrix(12,0,0,12,174.1,1105.4)" />
<use xlink:href="#f1_2l" transform="matrix(12,0,0,12,183.3,1105.4)" />
<use xlink:href="#f1_1x" transform="matrix(12,0,0,12,195.1,1105.4)" />
<use xlink:href="#f1_2e" transform="matrix(12,0,0,12,203.2,1105.4)" />
<use xlink:href="#f1_21" transform="matrix(12,0,0,12,209.3,1105.4)" />
<use xlink:href="#f1_25" transform="matrix(12,0,0,12,220.7,1105.4)" />
<use xlink:href="#f1_2a" transform="matrix(12,0,0,12,225.8,1105.4)" />
<use xlink:href="#f1_22" transform="matrix(12,0,0,12,235,1105.4)" />
<use xlink:href="#f1_2e" transform="matrix(12,0,0,12,241.1,1105.4)" />
<use xlink:href="#f1_1x" transform="matrix(12,0,0,12,247.2,1105.4)" />
<use xlink:href="#f1_h" transform="matrix(12,0,0,12,255.3,1105.4)" />
<use xlink:href="#f1_2e" transform="matrix(12,0,0,12,261.4,1105.4)" />
<use xlink:href="#f1_21" transform="matrix(12,0,0,12,267.5,1105.4)" />
<use xlink:href="#f1_20" transform="matrix(12,0,0,12,275.7,1105.4)" />
<use xlink:href="#f1_2j" transform="matrix(12,0,0,12,287.8,1105.4)" />
<use xlink:href="#f1_1x" transform="matrix(12,0,0,12,301,1105.4)" />
<use xlink:href="#f1_2i" transform="matrix(12,0,0,12,309.1,1105.4)" />
<use xlink:href="#f1_21" transform="matrix(12,0,0,12,318.3,1105.4)" />
<use xlink:href="#f1_2f" transform="matrix(12,0,0,12,326.4,1105.4)" />
<use xlink:href="#f1_2b" transform="matrix(12,0,0,12,336.7,1105.4)" />
<use xlink:href="#f1_22" transform="matrix(12,0,0,12,345.9,1105.4)" />
<use xlink:href="#f1_2g" transform="matrix(12,0,0,12,352,1105.4)" />
<use xlink:href="#f1_21" transform="matrix(12,0,0,12,357.1,1105.4)" />
<use xlink:href="#f1_2a" transform="matrix(12,0,0,12,365.2,1105.4)" />
<use xlink:href="#f1_1z" transform="matrix(12,0,0,12,377.4,1105.4)" />
<use xlink:href="#f1_1x" transform="matrix(12,0,0,12,385.5,1105.4)" />
<use xlink:href="#f1_28" transform="matrix(12,0,0,12,393.7,1105.4)" />
<use xlink:href="#f1_28" transform="matrix(12,0,0,12,398.7,1105.4)" />
<use xlink:href="#f1_21" transform="matrix(12,0,0,12,403.8,1105.4)" />
<use xlink:href="#f1_20" transform="matrix(12,0,0,12,412,1105.4)" />
<use xlink:href="#f1_24" transform="matrix(12,0,0,12,424.5,1105.4)" />
<use xlink:href="#f1_21" transform="matrix(12,0,0,12,433.6,1105.4)" />
<use xlink:href="#f1_1x" transform="matrix(12,0,0,12,441.8,1105.4)" />
<use xlink:href="#f1_2g" transform="matrix(12,0,0,12,449.9,1105.4)" />
<use xlink:href="#f1_2j" transform="matrix(12,0,0,12,458.3,1105.4)" />
<use xlink:href="#f1_1x" transform="matrix(12,0,0,12,471.6,1105.4)" />
<use xlink:href="#f1_2i" transform="matrix(12,0,0,12,479.7,1105.4)" />
<use xlink:href="#f1_21" transform="matrix(12,0,0,12,488.9,1105.4)" />
<use xlink:href="#f1_2f" transform="matrix(12,0,0,12,497,1105.4)" />
<use xlink:href="#f1_z" transform="matrix(12,0,0,12,507.3,1105.4)" />
<use xlink:href="#f1_15" transform="matrix(12,0,0,12,518.3,1105.4)" />
<use xlink:href="#f1_2k" transform="matrix(12,0,0,12,529.5,1105.4)" />
<use xlink:href="#f1_2c" transform="matrix(12,0,0,12,538.7,1105.4)" />
<use xlink:href="#f1_28" transform="matrix(12,0,0,12,547.9,1105.4)" />
<use xlink:href="#f1_1x" transform="matrix(12,0,0,12,553,1105.4)" />
<use xlink:href="#f1_25" transform="matrix(12,0,0,12,561.1,1105.4)" />
<use xlink:href="#f1_2a" transform="matrix(12,0,0,12,566.2,1105.4)" />
<use xlink:href="#f1_i" transform="matrix(12,0,0,12,575.4,1105.4)" />
<use xlink:href="#f1_11" transform="matrix(12,0,0,12,64.9,1134.2)" />
<use xlink:href="#f1_2a" transform="matrix(12,0,0,12,78.1,1134.2)" />
<use xlink:href="#f1_2f" transform="matrix(12,0,0,12,87.3,1134.2)" />
<use xlink:href="#f1_i" transform="matrix(12,0,0,12,94.4,1134.2)" />
<use xlink:href="#f1_19" transform="matrix(12,0,0,12,157.8,1134.2)" />
<use xlink:href="#f1_2a" transform="matrix(12,0,0,12,163.9,1134.2)" />
<use xlink:href="#f1_22" transform="matrix(12,0,0,12,173.1,1134.2)" />
<use xlink:href="#f1_2e" transform="matrix(12,0,0,12,179.2,1134.2)" />
<use xlink:href="#f1_1x" transform="matrix(12,0,0,12,185.3,1134.2)" />
<use xlink:href="#f1_2e" transform="matrix(12,0,0,12,193.4,1134.2)" />
<use xlink:href="#f1_21" transform="matrix(12,0,0,12,199.5,1134.2)" />
<use xlink:href="#f1_20" transform="matrix(12,0,0,12,207.7,1134.2)" />
<use xlink:href="#f1_2c" transform="matrix(12,0,0,12,219.8,1134.2)" />
<use xlink:href="#f1_2e" transform="matrix(12,0,0,12,229,1134.2)" />
<use xlink:href="#f1_2b" transform="matrix(12,0,0,12,235.1,1134.2)" />
<use xlink:href="#f1_20" transform="matrix(12,0,0,12,244.2,1134.2)" />
<use xlink:href="#f1_2h" transform="matrix(12,0,0,12,253.4,1134.2)" />
<use xlink:href="#f1_1z" transform="matrix(12,0,0,12,262.6,1134.2)" />
<use xlink:href="#f1_21" transform="matrix(12,0,0,12,270.7,1134.2)" />
<use xlink:href="#f1_24" transform="matrix(12,0,0,12,281.4,1134.2)" />
<use xlink:href="#f1_21" transform="matrix(12,0,0,12,290.5,1134.2)" />
<use xlink:href="#f1_1x" transform="matrix(12,0,0,12,298.7,1134.2)" />
<use xlink:href="#f1_2g" transform="matrix(12,0,0,12,306.8,1134.2)" />
<use xlink:href="#f1_2b" transform="matrix(12,0,0,12,315.6,1134.2)" />
<use xlink:href="#f1_2e" transform="matrix(12,0,0,12,324.8,1134.2)" />
<use xlink:href="#f1_21" transform="matrix(12,0,0,12,334,1134.2)" />
<use xlink:href="#f1_29" transform="matrix(12,0,0,12,342.1,1134.2)" />
<use xlink:href="#f1_25" transform="matrix(12,0,0,12,356.4,1134.2)" />
<use xlink:href="#f1_2g" transform="matrix(12,0,0,12,361.5,1134.2)" />
<use xlink:href="#f1_2g" transform="matrix(12,0,0,12,366.6,1134.2)" />
<use xlink:href="#f1_21" transform="matrix(12,0,0,12,371.7,1134.2)" />
<use xlink:href="#f1_20" transform="matrix(12,0,0,12,379.8,1134.2)" />
<use xlink:href="#f1_22" transform="matrix(12,0,0,12,391.9,1134.2)" />
<use xlink:href="#f1_2e" transform="matrix(12,0,0,12,398,1134.2)" />
<use xlink:href="#f1_2b" transform="matrix(12,0,0,12,404.1,1134.2)" />
<use xlink:href="#f1_29" transform="matrix(12,0,0,12,413.3,1134.2)" />
<use xlink:href="#f1_24" transform="matrix(12,0,0,12,429.8,1134.2)" />
<use xlink:href="#f1_2b" transform="matrix(12,0,0,12,439,1134.2)" />
<use xlink:href="#f1_2g" transform="matrix(12,0,0,12,448.2,1134.2)" />
<use xlink:href="#f1_1y" transform="matrix(12,0,0,12,457,1134.2)" />
<use xlink:href="#f1_2b" transform="matrix(12,0,0,12,466.1,1134.2)" />
<use xlink:href="#f1_20" transform="matrix(12,0,0,12,475.3,1134.2)" />
<use xlink:href="#f1_25" transform="matrix(12,0,0,12,484.5,1134.2)" />
<use xlink:href="#f1_21" transform="matrix(12,0,0,12,489.6,1134.2)" />
<use xlink:href="#f1_2f" transform="matrix(12,0,0,12,497.7,1134.2)" />
<use xlink:href="#f1_i" transform="matrix(12,0,0,12,504.8,1134.2)" />
<use xlink:href="#f6_m" transform="matrix(8,0,0,8,792.2,1264.2)" />
</g>
<defs>
<path d="M78,-22V359h28c0,0,32,-161,126,-246c0,0,94,-85,202,-85c0,0,84,0,133,46c0,0,50,45,50,106c0,0,0,36,-19,69c0,0,-19,34,-58,64c0,0,-39,30,-138,79c0,0,-138,68,-198,115c0,0,-60,48,-92,107c0,0,-33,59,-33,130c0,0,0,120,89,205c0,0,89,85,224,85c0,0,49,0,96,-11c0,0,35,-9,85,-34c0,0,51,-24,71,-24c0,0,19,0,30,12c0,0,12,12,21,57h23l8,-337H695c0,0,-21,127,-106,204c0,0,-85,78,-184,78c0,0,-76,0,-121,-41c0,0,-44,-41,-44,-94c0,0,0,-33,15,-59c0,0,22,-35,70,-70c0,0,35,-24,162,-87c0,0,178,-87,240,-165c0,0,61,-77,61,-177c0,0,0,-127,-99,-218c0,0,-99,-90,-251,-90c0,0,-48,0,-90,9c0,0,-43,10,-107,36c0,0,-36,15,-59,15c0,0,-20,0,-41,-15c0,0,-22,-15,-35,-45Z" 
id="f0_1j"
transform="scale(0.001,-0.001)" />

<path d="M29,0V27H63c0,0,44,0,71,16c0,0,19,11,30,36c0,0,8,18,8,94V839c0,0,0,69,-4,84c0,0,-7,27,-27,41c0,0,-29,21,-78,21H29v27H877V713H850c0,0,-22,109,-61,157c0,0,-39,48,-111,70c0,0,-42,13,-158,13H416V542h20c0,0,97,0,140,60c0,0,44,60,56,178h27V251H632c0,0,-9,87,-38,142c0,0,-29,55,-67,74c0,0,-39,19,-111,19V201c0,0,0,-84,7,-103c0,0,7,-18,26,-30c0,0,20,-12,63,-12h60c0,0,142,0,228,65c0,0,86,66,123,201h28L905,0Z" 
id="f0_15"
transform="scale(0.001,-0.001)" />

<path d="M610,-21c0,0,-162,0,-287,63c0,0,-126,65,-194,187c0,0,-68,121,-68,258c0,0,0,145,75,275c0,0,76,129,205,201c0,0,128,71,273,71c0,0,107,0,225,-46c0,0,69,-27,88,-27c0,0,24,0,41,18c0,0,18,17,23,55h29V683H991c0,0,-33,138,-122,211c0,0,-90,73,-203,73c0,0,-95,0,-174,-54c0,0,-79,-55,-116,-143c0,0,-47,-112,-47,-250c0,0,0,-135,34,-247c0,0,35,-111,108,-168c0,0,73,-57,189,-57c0,0,96,0,175,42c0,0,80,41,168,144V146c0,0,-85,-89,-178,-129c0,0,-92,-38,-215,-38Z" 
id="f0_13"
transform="scale(0.001,-0.001)" />

<path d="M244,0V27h34c0,0,44,0,71,16c0,0,19,11,30,36c0,0,8,18,8,94V953H314c0,0,-103,0,-149,-43c0,0,-66,-60,-83,-172H55v274H965V738H938c0,0,-24,95,-53,136c0,0,-29,41,-80,66c0,0,-28,13,-99,13H631V173c0,0,0,-78,8,-97c0,0,9,-20,34,-34c0,0,25,-15,68,-15h33V0Z" 
id="f0_1k"
transform="scale(0.001,-0.001)" />

<path d="M29,0V27H63c0,0,44,0,71,16c0,0,19,11,30,36c0,0,8,18,8,94V839c0,0,0,78,-8,97c0,0,-8,20,-33,34c0,0,-25,15,-68,15H29v27H558V985H525c0,0,-44,0,-71,-16c0,0,-19,-11,-30,-36c0,0,-8,-18,-8,-94V173c0,0,0,-78,8,-97c0,0,9,-20,34,-34c0,0,24,-15,67,-15h33V0Z" 
id="f0_19"
transform="scale(0.001,-0.001)" />

<path d="M597,33c0,0,77,0,129,38c0,0,65,47,102,152c0,0,36,105,36,273c0,0,0,201,-37,300c0,0,-37,100,-95,141c0,0,-58,41,-133,41c0,0,-139,0,-211,-142c0,0,-59,-116,-59,-334c0,0,0,-259,91,-382c0,0,63,-87,177,-87Zm3,-54c0,0,-273,0,-423,183C177,162,60,309,60,509c0,0,0,225,153,375c0,0,144,142,358,142c6,0,12,0,19,0c0,0,3,0,8,0c42,0,250,-7,385,-141c0,0,151,-150,151,-375c0,0,0,-193,-113,-339c0,0,-149,-192,-421,-192Z" 
id="f0_1f"
transform="scale(0.001,-0.001)" />

<path d="M910,-21L225,820V176c0,0,0,-87,40,-118c0,0,40,-31,91,-31h24V0H21V27c0,0,83,1,116,35c0,0,33,33,33,114V891l-21,26c0,0,-32,41,-57,53c0,0,-24,13,-71,15v27H380L880,385V819c0,0,0,92,-26,124c0,0,-34,42,-116,42c-1,0,-3,0,-4,0v27h334V985c0,0,-64,-9,-86,-22c0,0,-22,-13,-35,-42c0,0,-12,-30,-12,-102V-21Z" 
id="f0_1e"
transform="scale(0.001,-0.001)" />

<path d="M37,274V428H473V274Z" 
id="f0_h"
transform="scale(0.001,-0.001)" />

<path d="M488,56c0,0,60,0,110,26c0,0,51,27,78,77c0,0,27,50,27,112c0,0,0,71,-33,127c0,0,-32,56,-90,79L407,499V137c0,0,0,-40,20,-61c0,0,21,-20,61,-20ZM407,557c0,0,107,0,157,24c0,0,51,24,78,67c0,0,27,44,27,111c0,0,0,67,-27,110c0,0,-26,43,-76,66c0,0,-47,21,-153,21c-2,0,-3,0,-5,0L407,557ZM32,0V27c0,0,70,0,95,13c0,0,25,14,35,35c0,0,10,21,10,103V834c0,0,0,82,-10,104c0,0,-10,21,-35,34c0,0,-26,13,-95,13v27H517c0,0,174,0,246,-31c0,0,73,-31,115,-92c0,0,41,-62,41,-131c0,0,0,-73,-53,-130c0,0,-53,-57,-186,-91c0,0,144,-34,202,-81c0,0,83,-68,83,-177c0,0,0,-114,-91,-189C874,90,761,0,546,0Z" 
id="f0_12"
transform="scale(0.001,-0.001)" />

<path d="M405,24c0,0,65,0,116,62c0,0,51,61,51,174c0,0,0,128,-50,221c0,0,-51,93,-144,93c0,0,-29,0,-61,-12c0,0,-33,-12,-96,-51c0,0,-14,-101,-14,-163c0,0,0,-72,27,-155c0,0,26,-84,79,-134c0,0,38,-35,92,-35ZM384,-17c0,0,-104,0,-177,68C207,51,66,185,66,397c0,0,0,136,54,258c0,0,54,122,156,217c0,0,101,95,193,128c0,0,93,33,172,33h44v-28c0,0,-99,-10,-161,-39c0,0,-62,-29,-123,-90c0,0,-61,-60,-101,-135c0,0,-39,-74,-66,-176c0,0,107,73,215,73c0,0,104,0,180,-83c0,0,76,-84,76,-215c0,0,0,-126,-77,-231c0,0,-92,-126,-244,-126Z" 
id="f1_q"
transform="scale(0.001,-0.001)" />

<path d="M191,-20c0,0,-34,0,-58,24c0,0,-24,24,-24,58c0,0,0,35,24,59c0,0,24,24,58,24c0,0,35,0,59,-24c0,0,24,-25,24,-59c0,0,0,-34,-24,-58c0,0,-25,-24,-59,-24Z" 
id="f1_i"
transform="scale(0.001,-0.001)" />

<path d="M253,0V27h36c0,0,64,0,91,39c0,0,16,24,16,109V948H274c0,0,-71,0,-100,-10c0,0,-39,-14,-67,-54c0,0,-27,-41,-33,-109H46l12,237H883L894,775H865c0,0,-8,62,-22,89c0,0,-23,43,-61,64c0,0,-39,20,-101,20H539V175c0,0,0,-93,20,-116c0,0,28,-32,87,-32h36V0Z" 
id="f1_1k"
transform="scale(0.001,-0.001)" />

<path d="M336,-20L117,554c0,0,-21,55,-42,74c0,0,-21,19,-66,29v26H296V657c0,0,-40,-3,-52,-14c0,0,-13,-12,-13,-33c0,0,0,-23,13,-56L390,162L537,481L498,581c0,0,-18,46,-47,63c0,0,-17,11,-61,13v26H716V657c0,0,-54,-2,-77,-20c0,0,-15,-12,-15,-39c0,0,0,-15,6,-30L785,177L929,554c0,0,15,40,15,65c0,0,0,14,-15,25c0,0,-14,12,-57,13v26h216V657c0,0,-65,-10,-95,-89L764,-20H733L563,415L363,-20Z" 
id="f1_2j"
transform="scale(0.001,-0.001)" />

<path d="M406,32c0,0,72,0,119,60c0,0,47,59,47,205c0,0,0,181,-78,286c0,0,-53,71,-135,71c0,0,-40,0,-79,-23c0,0,-40,-24,-65,-83c0,0,-24,-58,-24,-151c0,0,0,-149,59,-257c0,0,59,-108,156,-108ZM374,-20c0,0,-154,0,-245,122c0,0,-77,104,-77,233c0,0,0,94,46,187c0,0,47,92,123,137c0,0,76,44,161,44c0,0,155,0,249,-118c0,0,80,-100,80,-231c0,0,0,-91,-44,-185C667,169,623,75,546,27c0,0,-77,-47,-172,-47Z" 
id="f1_2b"
transform="scale(0.001,-0.001)" />

<path d="M479,469c0,0,-4,66,-16,93c0,0,-18,42,-55,65c0,0,-37,24,-78,24c0,0,-62,0,-111,-48c0,0,-48,-48,-57,-134ZM355,-20c0,0,-123,0,-211,95c0,0,-87,96,-87,258c0,0,0,175,90,273c0,0,89,98,225,98c0,0,115,0,189,-76c0,0,74,-75,74,-202H162c0,0,0,-152,74,-239c0,0,75,-86,175,-86c0,0,67,0,117,36c0,0,50,37,83,127l24,-15c0,0,-16,-102,-91,-186c0,0,-76,-83,-189,-83Z" 
id="f1_21"
transform="scale(0.001,-0.001)" />

<path d="M58,0V26c0,0,47,0,64,10c0,0,18,10,28,32c0,0,9,23,9,86V775c0,0,0,116,-5,142c0,0,-5,27,-17,37c0,0,-11,9,-29,9c0,0,-20,0,-49,-12L46,978l204,83h34V154c0,0,0,-64,9,-85c0,0,9,-21,29,-32c0,0,19,-11,72,-11V0Z" 
id="f1_28"
transform="scale(0.001,-0.001)" />

<path d="M342,-20c0,0,-116,0,-203,97c0,0,-86,98,-86,264c0,0,0,161,96,261c0,0,95,101,230,101c0,0,100,0,165,-53c0,0,65,-54,65,-111c0,0,0,-29,-18,-46c0,0,-18,-18,-51,-18c0,0,-44,0,-66,29c0,0,-13,15,-17,59c0,0,-4,45,-30,68c0,0,-26,22,-73,22c0,0,-74,0,-120,-55c0,0,-60,-73,-60,-193c0,0,0,-122,60,-216c0,0,60,-93,162,-93c0,0,73,0,131,49c0,0,41,35,80,126l22,-10C629,261,601,125,521,52c0,0,-81,-72,-179,-72Z" 
id="f1_1z"
transform="scale(0.001,-0.001)" />

<path d="M255,-10c0,0,-35,0,-68,18c0,0,-32,19,-48,55c0,0,-16,35,-16,109V632H15v24c0,0,41,16,84,56c0,0,43,39,77,92c0,0,17,29,48,104h23V683H407V632H247V188c0,0,0,-66,19,-90c0,0,19,-23,49,-23c0,0,24,0,47,16c0,0,23,15,36,45h29c0,0,-26,-73,-74,-110c0,0,-47,-36,-98,-36Z" 
id="f1_2g"
transform="scale(0.001,-0.001)" />

<path d="M17,0V26c0,0,52,0,77,17c0,0,19,12,26,38c0,0,4,13,4,73V419c0,0,0,119,-5,142c0,0,-4,23,-17,33c0,0,-13,11,-33,11c0,0,-23,0,-52,-11l-7,26l207,83h31V549c0,0,86,154,176,154c0,0,41,0,68,-25c0,0,27,-25,27,-58c0,0,0,-29,-20,-49c0,0,-19,-20,-46,-20c0,0,-26,0,-58,25c0,0,-33,26,-48,26c0,0,-14,0,-29,-15c0,0,-34,-30,-70,-101V159c0,0,0,-56,15,-85c0,0,9,-20,34,-34c0,0,24,-14,71,-14V0Z" 
id="f1_2e"
transform="scale(0.001,-0.001)" />

<path d="M55,0V26c0,0,50,0,67,10c0,0,17,10,27,32c0,0,10,23,10,86V418c0,0,0,111,-6,144c0,0,-6,24,-17,33c0,0,-11,10,-30,10c0,0,-21,0,-51,-11L45,620l206,83h33V154c0,0,0,-64,9,-85c0,0,9,-22,27,-32c0,0,19,-11,67,-11V0ZM222,909c0,0,-32,0,-54,23c0,0,-22,22,-22,53c0,0,0,32,22,54c0,0,22,22,54,22c0,0,31,0,53,-22c0,0,22,-22,22,-54c0,0,0,-31,-22,-53c0,0,-22,-23,-53,-23Z" 
id="f1_25"
transform="scale(0.001,-0.001)" />

<path d="M397,34c0,0,67,0,126,75c0,0,58,74,58,216c0,0,0,131,-58,201c0,0,-59,70,-133,70c0,0,-39,0,-79,-20c0,0,-29,-14,-75,-59V109c0,0,37,-37,78,-56c0,0,40,-19,83,-19ZM358,-20c0,0,-59,0,-121,21c0,0,-61,22,-126,65V773c0,0,0,117,-5,144c0,0,-6,27,-18,37c0,0,-12,9,-29,9c0,0,-21,0,-53,-12l-9,27l205,83h34V564c0,0,98,139,213,139c0,0,105,0,183,-90c0,0,78,-90,78,-245c0,0,0,-182,-121,-293c0,0,-103,-95,-231,-95Z" 
id="f1_1y"
transform="scale(0.001,-0.001)" />

<path d="M292,-20c0,0,-57,0,-100,33c0,0,-42,33,-58,85c0,0,-17,52,-17,148V551c0,0,0,49,-10,68c0,0,-11,18,-31,29c0,0,-19,9,-68,9c-2,0,-4,0,-6,0v26H242V226c0,0,0,-95,33,-125c0,0,33,-30,80,-30c0,0,32,0,73,21c0,0,40,20,96,76V555c0,0,0,59,-21,80c0,0,-22,21,-89,22v26H647V269c0,0,0,-119,6,-145c0,0,6,-27,18,-37c0,0,12,-11,29,-11c0,0,23,0,52,13L763,63L558,-20H524V124C524,124,436,29,390,4c0,0,-47,-24,-98,-24Z" 
id="f1_2h"
transform="scale(0.001,-0.001)" />

<path d="M312,-20c0,0,-62,0,-143,22c0,0,-25,8,-40,8c0,0,-18,0,-27,-19H77V234h25c0,0,21,-105,80,-158c0,0,59,-53,132,-53c0,0,51,0,84,31c0,0,32,30,32,72c0,0,0,52,-36,87c0,0,-36,35,-144,88c0,0,-109,54,-142,97c0,0,-34,43,-34,107c0,0,0,85,58,141c0,0,58,57,150,57c0,0,40,0,97,-17c0,0,38,-11,51,-11c0,0,12,0,19,5c0,0,7,5,15,23h25V470H464c0,0,-28,110,-72,149c0,0,-45,40,-113,40c0,0,-53,0,-85,-28c0,0,-32,-27,-32,-61c0,0,0,-41,24,-71c0,0,23,-31,94,-65L389,381c0,0,152,-74,152,-194c0,0,0,-94,-71,-151c0,0,-70,-56,-158,-56Z" 
id="f1_2f"
transform="scale(0.001,-0.001)" />

<path d="M435,502c0,0,78,0,134,60c0,0,57,60,57,155c0,0,0,66,-27,122c0,0,-27,56,-76,84c0,0,-50,28,-112,28c0,0,-38,0,-98,-14V517c0,0,39,-8,70,-12c0,0,31,-3,52,-3ZM25,0V27H63c0,0,65,0,92,42c0,0,15,23,15,110V833c0,0,0,96,-20,119c0,0,-29,33,-87,33H25v27H396c0,0,136,0,214,-28c0,0,78,-28,132,-94c0,0,54,-67,54,-158c0,0,0,-124,-82,-202c0,0,-82,-77,-231,-77c0,0,-36,0,-79,5c0,0,-43,5,-91,16V179c0,0,0,-96,21,-119c0,0,28,-33,85,-33h39V0Z" 
id="f1_1g"
transform="scale(0.001,-0.001)" />

<path d="M286,72c0,0,57,0,149,75V407c0,0,-113,-45,-145,-64c0,0,-59,-32,-85,-68c0,0,-25,-36,-25,-78c0,0,0,-54,32,-89c0,0,32,-36,74,-36ZM217,-13c0,0,-71,0,-116,48c0,0,-46,48,-46,127c0,0,0,50,22,87c0,0,31,50,106,95c0,0,76,45,252,109v26c0,0,0,102,-32,140c0,0,-32,38,-94,38c0,0,-47,0,-74,-25c0,0,-28,-25,-28,-58l1,-43c0,0,0,-34,-17,-53c0,0,-18,-18,-47,-18c0,0,-28,0,-45,19c0,0,-18,19,-18,53c0,0,0,64,66,117c0,0,65,54,184,54c0,0,91,0,149,-31c0,0,44,-23,65,-72c0,0,13,-32,13,-131V238c0,0,0,-98,4,-120c0,0,4,-22,12,-29c0,0,9,-8,20,-8c0,0,12,0,21,5c0,0,16,10,61,55V99C676,99,592,-12,516,-12c0,0,-37,0,-58,24c0,0,-22,26,-23,86C435,98,330,17,303,5c0,0,-40,-18,-86,-18Z" 
id="f1_1x"
transform="scale(0.001,-0.001)" />

<path d="M21,0V26H35c0,0,53,0,71,27c0,0,18,27,18,101V408c0,0,0,123,-5,150c0,0,-6,27,-17,37c0,0,-12,10,-31,10c0,0,-21,0,-50,-11L10,620l206,83h32V558c0,0,120,145,229,145c0,0,56,0,96,-28c0,0,40,-28,64,-92c0,0,16,-45,16,-137V154c0,0,0,-65,11,-88c0,0,8,-19,26,-29c0,0,18,-11,68,-11V0H419V26h14c0,0,47,0,66,15c0,0,20,15,27,43c0,0,3,11,3,70V434c0,0,0,93,-24,135c0,0,-24,42,-81,42c0,0,-88,0,-176,-97V154c0,0,0,-69,9,-86c0,0,10,-21,28,-31c0,0,19,-11,75,-11V0Z" 
id="f1_2a"
transform="scale(0.001,-0.001)" />

<path d="M399,62c0,0,68,0,131,68V481c0,0,-5,51,-27,93c0,0,-22,42,-59,63c0,0,-37,21,-72,21c0,0,-65,0,-117,-59c0,0,-67,-77,-67,-226c0,0,0,-151,65,-231c0,0,66,-80,146,-80ZM330,-20c0,0,-112,0,-196,93c0,0,-83,94,-83,240c0,0,0,147,92,269c0,0,93,122,238,122c0,0,90,0,149,-58V773c0,0,0,117,-6,144c0,0,-5,27,-17,37c0,0,-12,9,-30,9c0,0,-20,0,-52,-12l-9,27l204,83h33V270c0,0,0,-120,6,-146c0,0,5,-27,18,-37c0,0,12,-11,28,-11c0,0,21,0,54,13l9,-26L564,-20H530V78C530,78,480,25,432,2c0,0,-47,-22,-102,-22Z" 
id="f1_20"
transform="scale(0.001,-0.001)" />

<path d="M547,28c0,0,140,0,226,102c0,0,101,121,101,357c0,0,0,181,-56,304c0,0,-42,96,-112,141c0,0,-71,45,-159,45c0,0,-135,0,-218,-97C329,880,225,758,225,508c0,0,0,-245,106,-378c0,0,82,-102,216,-102Zm491,-326c0,0,-103,4,-220,41c0,0,-117,38,-222,105c0,0,-104,67,-180,142c0,0,-108,42,-171,91c0,0,-91,72,-141,178c0,0,-50,105,-50,249c0,0,0,227,147,377c0,0,147,149,355,149c0,0,199,0,344,-150c0,0,145,-150,145,-379c0,0,0,-185,-104,-326C941,179,838,39,673,-10c0,0,76,-131,164,-194c0,0,88,-62,201,-71v-23Z" 
id="f1_1h"
transform="scale(0.001,-0.001)" />

<path d="M20,0V26c0,0,45,0,71,15c0,0,15,7,24,28c0,0,9,21,9,85V773c0,0,0,117,-5,144c0,0,-6,27,-17,37c0,0,-12,9,-31,9c0,0,-16,0,-51,-12L10,978l204,83h34V561c0,0,83,91,131,116c0,0,49,26,97,26c0,0,58,0,100,-32c0,0,42,-32,62,-101c0,0,14,-47,14,-174V154c0,0,0,-65,11,-89c0,0,7,-18,25,-28c0,0,18,-11,66,-11V0H418V26h15c0,0,48,0,67,15c0,0,18,15,26,43c0,0,2,12,2,70V396c0,0,0,112,-12,147c0,0,-11,35,-36,53c0,0,-26,17,-61,17c0,0,-37,0,-76,-19c0,0,-40,-20,-95,-79V154c0,0,0,-70,8,-87c0,0,8,-17,29,-29c0,0,22,-12,74,-12V0Z" 
id="f1_24"
transform="scale(0.001,-0.001)" />

<path d="M376,-20L133,556c0,0,-17,41,-31,58c0,0,-15,18,-39,30c0,0,-12,7,-50,13v26H335V657H314c0,0,-29,0,-44,-14c0,0,-16,-14,-15,-38c0,0,-1,-26,15,-62L429,165L588,557c0,0,17,42,17,64c0,0,0,10,-6,17c0,0,-8,11,-21,15c0,0,-13,4,-52,4v26H750V657c0,0,-39,-3,-54,-16c0,0,-26,-23,-47,-76L409,-20Z" 
id="f1_2i"
transform="scale(0.001,-0.001)" />

<path d="M63,0V26H93c0,0,30,0,54,15c0,0,25,15,34,41c0,0,10,25,10,99V630H58v53H191v45c0,0,0,102,33,173c0,0,32,71,100,114c0,0,68,44,152,44c0,0,79,0,145,-51c0,0,43,-33,43,-75c0,0,0,-22,-19,-42c0,0,-20,-20,-42,-20c0,0,-17,0,-36,12c0,0,-19,13,-47,53c0,0,-28,41,-51,55c0,0,-23,14,-51,14c0,0,-35,0,-58,-18c0,0,-24,-18,-35,-57c0,0,-10,-38,-10,-197V683H491V630H315V181c0,0,0,-96,21,-122c0,0,27,-33,73,-33h62V0Z" 
id="f1_22"
transform="scale(0.001,-0.001)" />

<path d="M197,0V27c0,0,71,2,92,13c0,0,21,10,29,29c0,0,9,18,9,109V725c0,0,0,110,-8,141c0,0,-5,24,-19,35c0,0,-14,11,-33,11c0,0,-28,0,-77,-23l-11,23l246,121h25V178c0,0,0,-85,7,-106c0,0,7,-21,29,-32c0,0,23,-11,91,-13V0Z" 
id="f1_l"
transform="scale(0.001,-0.001)" />

<path d="M213,-20c0,0,-34,0,-58,24c0,0,-24,24,-24,58c0,0,0,34,24,58c0,0,24,25,58,25c0,0,35,0,59,-25c0,0,24,-24,24,-58c0,0,0,-34,-24,-58c0,0,-25,-24,-59,-24Zm3,559c0,0,-35,0,-59,24c0,0,-24,24,-24,58c0,0,0,35,24,59c0,0,24,24,59,24c0,0,34,0,58,-24c0,0,24,-24,24,-59c0,0,0,-34,-24,-58c0,0,-24,-24,-58,-24Z" 
id="f1_u"
transform="scale(0.001,-0.001)" />

<path d="M33,0V27c0,0,264,241,371,393c0,0,108,152,108,278c0,0,0,96,-59,158c0,0,-59,62,-141,62c0,0,-75,0,-134,-43c0,0,-59,-44,-88,-128H63c0,0,18,138,95,212c0,0,77,74,193,74c0,0,123,0,205,-80c0,0,83,-79,83,-186c0,0,0,-77,-36,-154c0,0,-55,-121,-179,-256C424,357,238,154,191,112H455c0,0,81,0,114,6c0,0,32,6,58,25c0,0,27,18,46,52h27L630,0Z" 
id="f1_m"
transform="scale(0.001,-0.001)" />

<path d="M145,-328c0,0,-44,0,-73,25c0,0,-28,25,-28,58c0,0,0,31,21,50c0,0,20,19,56,19c0,0,25,0,67,-16c0,0,30,-11,38,-11c0,0,22,0,49,23c0,0,26,23,53,89L376,28L131,542c0,0,-11,24,-36,58c0,0,-19,27,-30,36c0,0,-18,12,-56,21v26H328V657H312c0,0,-33,0,-50,-15c0,0,-17,-14,-17,-36c0,0,0,-30,25,-81L437,179L589,557c0,0,12,31,12,62c0,0,0,13,-5,20c0,0,-6,8,-19,13c0,0,-12,5,-44,5v26H754V657c0,0,-27,-3,-42,-12c0,0,-15,-9,-33,-34c0,0,-7,-10,-25,-58L376,-128c0,0,-40,-99,-105,-150c0,0,-66,-50,-126,-50Z" 
id="f1_2l"
transform="scale(0.001,-0.001)" />

<path d="M24,0V27H60c0,0,63,0,91,37c0,0,18,24,18,115V833c0,0,0,77,-10,102c0,0,-7,18,-30,32c0,0,-32,18,-69,18H24v27H776L787,790H761c0,0,-20,71,-45,104c0,0,-26,33,-64,48c0,0,-37,15,-117,15H312V558H497c0,0,63,0,93,28c0,0,29,28,39,111h27V355H629c0,0,-1,59,-16,87c0,0,-14,27,-40,41c0,0,-26,14,-76,14H312V179c0,0,0,-77,10,-102c0,0,7,-18,31,-32c0,0,33,-18,69,-18h37V0Z" 
id="f1_16"
transform="scale(0.001,-0.001)" />

<path d="M398,24c0,0,74,0,120,58c0,0,61,76,61,214c0,0,0,156,-69,240c0,0,-47,59,-113,59c0,0,-36,0,-71,-18c0,0,-27,-14,-88,-81V242c0,0,0,-83,6,-109c0,0,11,-43,51,-76c0,0,41,-33,103,-33ZM-4,-326v27H15c5,0,42,0,69,16c0,0,14,8,22,26c0,0,7,19,7,94V481c0,0,0,67,-6,85c0,0,-5,18,-18,27c0,0,-13,9,-36,9c0,0,-18,0,-45,-10L0,615l209,85h29V540c0,0,53,91,106,127c0,0,53,36,112,36c0,0,103,0,172,-80c0,0,84,-99,84,-257c0,0,0,-176,-102,-292c0,0,-83,-94,-210,-94c0,0,-55,0,-95,16c0,0,-30,10,-67,44V-167c0,0,0,-71,8,-90c0,0,9,-20,30,-31c0,0,21,-11,77,-11v-27Z" 
id="f1_2c"
transform="scale(0.001,-0.001)" />

<path d="M678,393L506,802L330,393ZM11,0V27c0,0,63,12,82,30c0,0,38,35,84,145l356,832h27L912,193c0,0,43,-101,77,-132c0,0,35,-30,97,-34V0H687V27c0,0,60,3,82,21c0,0,21,17,21,41c0,0,0,33,-30,104L700,338H307L239,179c0,0,-26,-59,-26,-88c0,0,0,-23,22,-41c0,0,22,-17,95,-23V0Z" 
id="f1_11"
transform="scale(0.001,-0.001)" />

<path d="M512,518c0,0,82,0,149,34c0,0,67,33,105,101c0,0,38,67,38,140c0,0,0,75,-47,119c0,0,-47,44,-142,44c0,0,-52,0,-125,-12L376,541c0,0,85,-23,136,-23ZM-35,0l8,26c0,0,78,0,109,28c0,0,31,27,67,151L312,782c0,0,30,104,30,139c0,0,0,26,-21,44c0,0,-21,17,-94,21l9,26H636c0,0,157,0,235,-68c0,0,78,-67,78,-164c0,0,0,-77,-50,-150c0,0,-49,-72,-147,-117c0,0,-97,-46,-210,-46c0,0,-71,0,-179,27L280,203c0,0,-28,-92,-28,-121c0,0,0,-22,20,-37c0,0,20,-14,96,-19L361,0Z" 
id="f2_1g"
transform="scale(0.001,-0.001)" />

<path d="M467,25c0,0,67,0,133,34c0,0,65,33,136,114c0,0,89,103,149,261c0,0,61,159,61,296c0,0,0,100,-55,178c0,0,-54,79,-164,79c0,0,-75,0,-146,-37c0,0,-71,-37,-141,-121c0,0,-70,-84,-126,-219c0,0,-68,-167,-68,-316c0,0,0,-105,54,-187c0,0,55,-82,167,-82ZM600,-322c0,0,-65,0,-177,26c0,0,-172,38,-241,38c0,0,-26,0,-42,-4c0,0,-17,-4,-49,-18l-18,21L378,-17c0,0,-141,19,-214,124c0,0,-73,105,-73,224c0,0,0,163,99,338c0,0,98,174,252,270c0,0,154,95,302,95c0,0,111,0,189,-44c0,0,78,-45,120,-130c0,0,43,-86,43,-175c0,0,0,-172,-98,-347C998,338,900,162,755,71c0,0,-145,-89,-308,-92L255,-178c0,0,45,8,84,8c0,0,37,0,69,-5c0,0,32,-4,136,-27c0,0,104,-24,181,-24c0,0,83,0,141,29c0,0,58,28,112,95l25,-11c0,0,-77,-111,-181,-160c0,0,-105,-49,-222,-49Z" 
id="f2_1h"
transform="scale(0.001,-0.001)" />

<path d="M453,539c0,0,129,0,204,71c0,0,75,72,75,178c0,0,0,83,-48,127c0,0,-48,44,-144,44c0,0,-24,0,-58,-6L367,545c0,0,48,-6,86,-6ZM-34,0l8,26c0,0,54,3,74,12c0,0,30,12,45,34c0,0,24,36,50,125L316,809c0,0,18,61,18,95c0,0,0,35,-28,58c0,0,-27,24,-78,24q-1,0,-2,0l9,26H566c0,0,167,0,240,-63c0,0,73,-62,73,-164c0,0,0,-98,-74,-179c0,0,-75,-81,-204,-102L698,207c0,0,36,-110,72,-143c0,0,36,-33,116,-38L877,0H635L473,492c0,0,-1,0,-2,0c-12,0,-63,0,-117,11L265,184c0,0,-18,-56,-18,-94c0,0,0,-29,22,-46c0,0,16,-12,90,-18L352,0Z" 
id="f2_1i"
transform="scale(0.001,-0.001)" />

<path d="M0,214v74H784V214ZM0,494v72H784V494Z" 
id="f3_x"
transform="scale(0.001,-0.001)" />

<path d="M-46,0l10,26c0,0,62,2,82,11c0,0,33,13,48,35c0,0,25,36,51,126L318,810c0,0,23,76,23,115c0,0,0,20,-10,33c0,0,-10,13,-29,21c0,0,-20,7,-78,7l9,26H619l-8,-26h-2c-8,0,-48,-1,-69,-12c0,0,-33,-16,-51,-46c0,0,-17,-30,-45,-132L271,185c0,0,-23,-78,-23,-100c0,0,0,-17,9,-29c0,0,9,-12,30,-19c0,0,20,-6,85,-11L364,0Z" 
id="f2_19"
transform="scale(0.001,-0.001)" />

<path d="M83,0C83,0,48,0,24,24C24,24,0,49,0,83c0,0,0,34,24,58c0,0,24,24,59,24c0,0,34,0,58,-24c0,0,24,-24,24,-58c0,0,0,-34,-24,-59C141,24,117,0,83,0ZM695,0c0,0,-34,0,-58,24c0,0,-25,25,-25,59c0,0,0,34,25,58c0,0,24,24,58,24c0,0,34,0,58,-24c0,0,24,-24,24,-58c0,0,0,-34,-24,-59C753,24,729,0,695,0ZM388,594c0,0,-34,0,-59,23c0,0,-24,24,-24,59c0,0,0,34,24,58c0,0,25,25,59,25c0,0,34,0,58,-25c0,0,24,-24,24,-58c0,0,0,-35,-24,-59c0,0,-24,-23,-58,-23Z" 
id="f3_1s"
transform="scale(0.001,-0.001)" />

<path d="M275,-20L578,891H299c0,0,-84,0,-120,-20c0,0,-63,-35,-101,-106l-21,8l97,239H696V983L359,-20Z" 
id="f1_r"
transform="scale(0.001,-0.001)" />

<path d="M379,29c0,0,41,0,84,37c0,0,43,36,65,121c0,0,34,128,34,362c0,0,0,173,-35,288c0,0,-27,86,-69,122c0,0,-31,25,-74,25c0,0,-51,0,-90,-46c0,0,-54,-62,-73,-195c0,0,-20,-132,-20,-261c0,0,0,-209,52,-341c0,0,42,-112,126,-112Zm-2,-46c0,0,-145,0,-241,170c0,0,-81,144,-81,347c0,0,0,173,52,298c0,0,52,125,139,186c0,0,67,49,139,49c0,0,116,0,208,-119c0,0,116,-147,116,-398c0,0,0,-176,-51,-299C658,217,608,94,529,38c0,0,-79,-55,-152,-55Z" 
id="f1_k"
transform="scale(0.001,-0.001)" />

<path d="M553,-21L174,849c0,0,-29,67,-41,82c0,0,-19,24,-46,37c0,0,-27,13,-73,17v27H427V985c0,0,-70,-7,-91,-24c0,0,-21,-17,-21,-44c0,0,0,-38,34,-117L607,207L846,793c0,0,35,86,35,120c0,0,0,22,-22,41c0,0,-21,20,-73,28c0,0,-4,1,-13,3v27h311V985c0,0,-53,-10,-81,-35c0,0,-39,-37,-70,-112L581,-21Z" 
id="f1_1m"
transform="scale(0.001,-0.001)" />

<path d="M411,-239c0,0,134,0,198,48c0,0,64,47,64,100c0,0,0,39,-38,55c0,0,-39,16,-154,19c0,0,-167,5,-258,17c0,0,-35,-37,-53,-70c0,0,-17,-32,-17,-60c0,0,0,-36,43,-62c0,0,74,-47,215,-47ZM380,257c0,0,56,0,93,43c0,0,36,42,36,133c0,0,0,118,-51,185c0,0,-38,49,-98,49c0,0,-55,0,-92,-44c0,0,-37,-44,-37,-135c0,0,0,-117,50,-182c0,0,39,-49,99,-49ZM345,-328c0,0,-144,0,-243,64c0,0,-56,38,-56,78c0,0,0,18,8,36c0,0,13,27,52,76c0,0,5,7,76,80c0,0,-39,23,-55,41c0,0,-16,19,-16,42c0,0,0,26,22,61c0,0,21,35,98,100c0,0,-63,30,-97,85c0,0,-33,55,-33,121c0,0,0,101,76,174c0,0,77,73,196,73c0,0,98,0,170,-48H688c0,0,32,0,37,-2c0,0,6,-2,8,-6c0,0,4,-7,4,-24c0,0,0,-20,-4,-27c0,0,-2,-4,-7,-6c0,0,-6,-2,-38,-2H599c0,0,41,-54,41,-137c0,0,0,-96,-73,-163c0,0,-73,-68,-196,-68c0,0,-51,0,-104,15c0,0,-33,-28,-44,-49c0,0,-12,-22,-12,-37c0,0,0,-12,13,-24c0,0,12,-12,48,-17c0,0,21,-4,104,-6c0,0,154,-4,199,-11c0,0,70,-10,111,-51c0,0,42,-41,42,-102c0,0,0,-84,-79,-158c0,0,-117,-108,-304,-108Z" 
id="f1_23"
transform="scale(0.001,-0.001)" />

<path d="M23,0V26c0,0,47,0,66,10c0,0,19,11,28,33c0,0,10,22,10,85V416c0,0,0,112,-7,145c0,0,-5,25,-16,34c0,0,-11,10,-31,10c0,0,-21,0,-50,-11L12,620l207,83h32V557c0,0,75,75,88,86c0,0,34,29,72,44c0,0,39,16,77,16c0,0,64,0,110,-37c0,0,47,-38,62,-109c0,0,77,90,130,118c0,0,53,28,109,28c0,0,54,0,96,-28c0,0,42,-28,67,-91c0,0,16,-43,16,-136V154c0,0,0,-64,10,-88c0,0,8,-16,28,-28c0,0,20,-12,65,-12V0H844V26h14c0,0,44,0,69,18c0,0,17,12,24,38c0,0,3,13,3,72V448c0,0,0,83,-20,117c0,0,-29,48,-93,48c0,0,-39,0,-79,-20c0,0,-40,-19,-97,-73l-1,-8l2,-32V154c0,0,0,-70,8,-87c0,0,7,-17,29,-29c0,0,21,-12,73,-12V0H431V26c0,0,57,0,78,14c0,0,21,13,29,40c0,0,4,13,4,74V448c0,0,0,83,-25,120c0,0,-33,48,-91,48c0,0,-40,0,-80,-22c0,0,-61,-33,-95,-74V154c0,0,0,-67,10,-87c0,0,9,-20,27,-30c0,0,18,-11,74,-11V0Z" 
id="f1_29"
transform="scale(0.001,-0.001)" />

<path d="M238,-17c0,0,-103,0,-139,25C99,8,62,33,62,62c0,0,0,22,17,38c0,0,18,16,42,16c0,0,19,0,38,-6c0,0,13,-3,58,-27c0,0,45,-23,62,-28c0,0,27,-8,59,-8c0,0,76,0,132,59c0,0,56,59,56,140c0,0,0,59,-26,115c0,0,-19,41,-42,63c0,0,-32,30,-88,54c0,0,-56,25,-114,25H232v22c0,0,59,8,118,42c0,0,59,35,86,85c0,0,27,49,27,108c0,0,0,76,-48,124c0,0,-48,47,-120,47c0,0,-116,0,-193,-124L77,819c0,0,44,102,110,158c0,0,66,56,164,56c0,0,122,0,187,-80c0,0,49,-58,49,-126c0,0,0,-110,-139,-228c0,0,93,-36,141,-104c0,0,48,-68,48,-160c0,0,0,-131,-84,-227C553,108,444,-17,238,-17Z" 
id="f1_n"
transform="scale(0.001,-0.001)" />

<path d="M394,23c0,0,80,0,129,45c0,0,48,45,48,110c0,0,0,54,-28,97c0,0,-53,79,-214,206c0,0,-62,-52,-92,-114c0,0,-30,-61,-30,-133c0,0,0,-96,53,-154c0,0,52,-57,134,-57Zm17,566c0,0,90,81,114,128c0,0,24,46,24,105c0,0,0,79,-44,123c0,0,-44,45,-121,45c0,0,-76,0,-124,-45c0,0,-48,-44,-48,-103c0,0,0,-38,20,-77c0,0,20,-39,56,-74L411,589ZM382,-17c0,0,-144,0,-225,90c0,0,-64,72,-64,158c0,0,0,67,45,133c0,0,45,66,156,146c0,0,-121,98,-156,158c0,0,-34,59,-34,124c0,0,0,98,76,169c0,0,76,72,202,72c0,0,123,0,198,-67c0,0,74,-66,74,-151c0,0,0,-57,-40,-116c0,0,-40,-59,-168,-139c0,0,132,-101,174,-159c0,0,57,-76,57,-161c0,0,0,-106,-82,-182c0,0,-81,-75,-213,-75Z" 
id="f1_s"
transform="scale(0.001,-0.001)" />

<path d="M0,0V208H26c0,0,2,-45,24,-62c0,0,33,-26,101,-26H353v52c0,0,-156,46,-242,156c0,0,-85,111,-85,261c0,0,0,187,139,316c0,0,139,129,376,129c0,0,146,0,268,-54c0,0,122,-55,188,-160c0,0,66,-105,66,-231c0,0,0,-155,-91,-269c0,0,-91,-115,-238,-148l-5,-52H933c0,0,70,0,97,21c0,0,27,21,32,67h27V0H666l18,208c0,0,105,44,155,126c0,0,49,81,49,228c0,0,0,203,-98,311c0,0,-99,109,-249,109c0,0,-144,0,-244,-110C297,872,197,762,197,572c0,0,0,-149,51,-238c0,0,51,-88,154,-126L420,0Z" 
id="f3_1n"
transform="scale(0.001,-0.001)" />

<path d="M-33,0l9,26c0,0,58,2,78,11c0,0,30,13,43,34c0,0,20,31,48,130L318,812c0,0,21,74,21,113c0,0,0,28,-20,45c0,0,-20,16,-77,16H226l9,26H966L904,769H878c0,0,5,34,5,57c0,0,0,39,-20,66c0,0,-25,34,-74,52c0,0,-36,13,-166,13H488L374,557h99c0,0,102,0,148,31c0,0,46,31,79,115h26L623,336H593c0,0,13,46,13,79c0,0,0,32,-13,52c0,0,-13,19,-36,28c0,0,-23,10,-95,10H361L263,156c0,0,-14,-43,-14,-66c0,0,0,-17,19,-30c0,0,13,-9,65,-9h93c0,0,145,0,233,51c0,0,87,52,157,180h27L747,0Z" 
id="f2_15"
transform="scale(0.001,-0.001)" />

<path d="M0,356v74H784V356Z" 
id="f3_h"
transform="scale(0.001,-0.001)" />

<path d="M379,437c0,0,34,0,81,16c0,0,47,17,83,47c0,0,14,97,14,155c0,0,0,72,-25,156c0,0,-25,83,-70,128c0,0,-45,45,-103,45c0,0,-66,0,-116,-60c0,0,-50,-59,-50,-177c0,0,0,-157,66,-246c0,0,49,-64,120,-64ZM80,-20V7c0,0,97,1,181,45c0,0,83,44,161,153c0,0,78,109,109,240c0,0,-117,-75,-212,-75c0,0,-107,0,-183,82c0,0,-76,82,-76,219c0,0,0,132,76,236c0,0,92,126,240,126c0,0,124,0,213,-103c0,0,109,-128,109,-315c0,0,0,-169,-82,-314C616,301,533,155,385,59c0,0,-120,-79,-262,-79Z" 
id="f1_t"
transform="scale(0.001,-0.001)" />

<path d="M232,-21l84,842c0,0,6,64,6,86c0,0,0,34,-25,56c0,0,-25,23,-79,23H191l7,26H598l-9,-26c0,0,-64,-1,-89,-14c0,0,-24,-13,-38,-44c0,0,-8,-16,-16,-94L387,231L781,769c0,0,65,88,81,123c0,0,11,23,11,40c0,0,0,20,-17,36c0,0,-17,15,-64,18l9,26h304l-8,-26c0,0,-36,-3,-58,-15c0,0,-41,-19,-82,-59c0,0,-40,-39,-128,-159L259,-21Z" 
id="f2_1m"
transform="scale(0.001,-0.001)" />

<path d="M600,387l39,398L345,387ZM-74,0l8,26c0,0,55,3,97,37c0,0,42,35,125,149l605,822h26L710,193c0,0,-6,-59,-6,-78c0,0,0,-30,11,-46c0,0,14,-22,39,-32c0,0,24,-11,81,-11L827,0H429l8,26h17c0,0,49,0,79,21c0,0,22,15,34,48c0,0,8,23,15,109l13,128H305L202,193c0,0,-35,-47,-44,-68c0,0,-9,-20,-9,-38c0,0,0,-25,20,-42c0,0,19,-17,64,-19L225,0Z" 
id="f2_11"
transform="scale(0.001,-0.001)" />

<path d="M491,-305c0,0,-180,60,-305,247C186,-58,61,127,61,368c0,0,0,239,124,423c0,0,125,184,306,243v-34c0,0,-78,-50,-115,-99c0,0,-50,-67,-79,-172c0,0,-36,-131,-36,-365c0,0,0,-221,33,-343c0,0,32,-122,88,-197c0,0,39,-52,109,-92v-37Z" 
id="f0_c"
transform="scale(0.001,-0.001)" />

<path d="M448,514c0,0,104,0,155,19c0,0,52,19,81,69c0,0,30,50,30,129c0,0,0,116,-54,171c0,0,-54,55,-174,55H406V514ZM28,0V27c0,0,70,0,95,13c0,0,25,14,35,35c0,0,10,21,10,103V834c0,0,0,82,-10,104c0,0,-10,21,-35,34c0,0,-25,13,-95,13v27H498c0,0,184,0,269,-25c0,0,85,-26,138,-94c0,0,54,-68,54,-160c0,0,0,-112,-80,-185c0,0,-52,-46,-145,-69L977,135c0,0,48,-66,68,-82c0,0,31,-23,72,-26V0H798L472,462H406V178c0,0,0,-82,10,-104c0,0,10,-21,35,-34c0,0,25,-13,95,-13V0Z" 
id="f0_1i"
transform="scale(0.001,-0.001)" />

<path d="M19,-305v34c0,0,77,52,114,100c0,0,50,67,79,171c0,0,36,131,36,365c0,0,0,221,-33,343c0,0,-32,122,-88,198c0,0,-39,52,-108,91v37c0,0,179,-60,304,-246c0,0,125,-186,125,-428c0,0,0,-238,-125,-421c0,0,-125,-184,-304,-244Z" 
id="f0_d"
transform="scale(0.001,-0.001)" />

<path d="M38,0V27H74c0,0,63,0,91,37c0,0,18,24,18,115V833c0,0,0,77,-10,102c0,0,-7,18,-30,32c0,0,-33,18,-69,18H38v27H470V985H434c0,0,-62,0,-90,-37c0,0,-18,-24,-18,-115V179c0,0,0,-77,9,-102c0,0,8,-18,31,-32c0,0,32,-18,68,-18h36V0Z" 
id="f1_19"
transform="scale(0.001,-0.001)" />

<path d="M82,-253v33c0,0,77,25,119,78c0,0,42,54,42,114c0,0,0,14,-7,23c0,0,-5,6,-11,6c0,0,-8,0,-35,-14c0,0,-14,-7,-28,-7c0,0,-37,0,-58,21C104,1,82,23,82,61c0,0,0,36,28,62c0,0,28,27,68,27c0,0,49,0,88,-43c0,0,38,-43,38,-113c0,0,0,-77,-53,-143c0,0,-53,-66,-169,-104Z" 
id="f1_g"
transform="scale(0.001,-0.001)" />

<path d="M247,-17c0,0,-91,0,-132,30c0,0,-42,31,-42,68c0,0,0,21,17,37c0,0,18,16,44,17c0,0,19,0,34,-6c0,0,14,-7,49,-31c0,0,56,-39,113,-39c0,0,88,0,154,66c0,0,66,66,66,161c0,0,0,92,-59,171c0,0,-59,80,-163,123c0,0,-81,34,-221,39l194,393H663L605,885H301L234,750c0,0,198,-29,313,-147c0,0,100,-102,100,-239c0,0,0,-80,-33,-148c0,0,-32,-68,-81,-116c0,0,-50,-47,-110,-77c0,0,-86,-40,-176,-40Z" 
id="f1_p"
transform="scale(0.001,-0.001)" />

<path d="M474,-21L174,817c0,0,-34,94,-42,112c0,0,-15,28,-41,42c0,0,-26,14,-70,14v27H395V985H377c0,0,-40,0,-60,-18c0,0,-21,-18,-21,-44c0,0,0,-26,33,-120L528,235L696,718l-30,85l-24,68c0,0,-16,37,-35,66c0,0,-10,14,-24,24c0,0,-19,13,-38,19c0,0,-14,5,-44,5v27H894V985H867c0,0,-41,0,-61,-18c0,0,-19,-18,-19,-49c0,0,0,-38,33,-133L1015,235l193,557c0,0,32,93,32,129c0,0,0,17,-10,32c0,0,-11,15,-28,21c0,0,-28,11,-74,11v27h302V985c0,0,-39,0,-64,-15c0,0,-25,-14,-47,-53c0,0,-15,-26,-47,-124L990,-21H960L729,624L501,-21Z" 
id="f1_1n"
transform="scale(0.001,-0.001)" />

<path d="M25,0V26c0,0,27,4,47,19c0,0,29,22,96,111L311,346L182,535c0,0,-55,81,-86,102c0,0,-30,20,-75,20v26H341V657c0,0,-30,0,-42,-10c0,0,-13,-11,-13,-28c0,0,0,-19,27,-56c0,0,8,-12,25,-37l48,-78l56,77c0,0,55,74,55,94c0,0,0,16,0,27c0,0,0,11,0,11v26H674V657c0,0,-37,-2,-64,-20c0,0,-37,-26,-100,-111L416,402L587,156c0,0,63,-91,89,-109c0,0,27,-18,70,-21V0H423V26c0,0,34,0,53,15c0,0,14,11,14,28c0,0,0,17,-48,87L341,302L232,157c0,0,-50,-69,-50,-82c0,0,0,-18,17,-32c0,0,17,-15,50,-17V0Z" 
id="f1_2k"
transform="scale(0.001,-0.001)" />

<path d="M473,53c0,0,173,0,287,121c0,0,114,122,114,330c0,0,0,210,-114,330c0,0,-114,121,-293,121c0,0,-67,0,-153,-21V74c0,0,95,-21,159,-21ZM26,0V27H64c0,0,64,0,91,41c0,0,16,25,16,111V833c0,0,0,95,-21,119c0,0,-29,33,-86,33H26v27H438c0,0,226,0,345,-51c0,0,118,-52,190,-172c0,0,72,-120,72,-278c0,0,0,-211,-129,-353C916,158,773,0,478,0Z" 
id="f1_14"
transform="scale(0.001,-0.001)" />

<path d="M266,336v0c59,64,106,125,106,125c47,62,82,121,82,121c35,60,62,118,62,118c28,58,49,116,49,116c5,14,10,45,10,45c6,31,5,63,5,63c-1,31,-12,55,-12,55c-12,23,-39,23,-39,23c-25,0,-57,-52,-57,-52C440,898,408,822,408,822C376,746,347,658,347,658C318,570,299,497,299,497c-9,-36,-17,-77,-17,-77c-9,-41,-16,-84,-16,-84ZM342,-19c-44,0,-74,35,-74,35C238,51,221,94,221,94c-18,44,-25,83,-25,83c-8,40,-10,48,-10,48C171,211,158,199,158,199C145,187,131,174,131,174C118,161,101,145,101,145C84,130,61,110,61,110v-1c0,-3,-1,-4,-3,-4c-2,0,-5,1,-5,1q-7,4,-7,4c0,0,-3,9,-3,9c-3,8,3,13,3,13c30,26,67,60,67,60c37,34,72,63,72,63c1,67,10,135,10,135c8,68,19,126,19,126c14,75,50,165,50,165c37,90,83,168,83,168c46,78,94,131,94,131c48,53,85,53,85,53c45,0,64,-29,64,-29c20,-29,23,-68,23,-68c4,-38,-3,-74,-3,-74c-7,-36,-11,-51,-11,-51C571,727,537,658,537,658C503,588,461,527,461,527C420,466,370,410,370,410C321,353,261,295,261,295c-7,-55,-9,-106,-9,-106c-1,-51,7,-91,7,-91c8,-39,28,-64,28,-64C307,10,342,10,342,10c29,0,52,8,52,8c23,9,43,23,43,23c20,15,38,33,38,33c18,18,40,40,40,40c4,4,8,5,11,5c3,0,4,-1,4,-1q8,-3,8,-3c0,0,4,-7,4,-7c3,-7,-1,-13,-1,-13C495,37,451,9,451,9C408,-19,342,-19,342,-19Z" 
id="f4_1u"
transform="scale(0.001,-0.001)" />

<path d="M31,0L164,463c0,0,24,81,24,115c0,0,0,14,-12,23c0,0,-14,12,-37,12c0,0,-15,0,-54,-7L74,633l255,42L220,312c0,0,134,223,243,312c0,0,62,51,102,51c0,0,25,0,39,-15c0,0,15,-15,15,-42c0,0,0,-50,-25,-94c0,0,-18,-34,-52,-34c0,0,-17,0,-30,11c0,0,-12,11,-15,35c0,0,-1,14,-7,18c0,0,-6,6,-14,6c0,0,-13,0,-24,-6c0,0,-19,-10,-59,-58c0,0,-62,-73,-134,-189c0,0,-32,-49,-54,-111c0,0,-32,-85,-36,-102L145,0Z" 
id="f2_2e"
transform="scale(0.001,-0.001)" />

<path d="M62,-123V268c0,0,0,230,56,452c0,0,47,190,134,334c0,0,87,144,204,242c0,0,85,73,194,119l18,-16c0,0,-211,-145,-335,-339c0,0,-98,-156,-149,-374c0,0,-50,-218,-50,-403V-123Z" 
id="f3_4o"
transform="scale(0.001,-0.001)" />

<path d="M617,-123V283c0,0,0,236,-63,459c0,0,-63,223,-188,392c0,0,-108,146,-282,265l17,16c0,0,180,-76,320,-248c0,0,139,-172,204,-417c0,0,64,-245,64,-482V-123Z" 
id="f3_54"
transform="scale(0.001,-0.001)" />

<path d="M62,-123V1415h72V-123Z" 
id="f3_4p"
transform="scale(0.001,-0.001)" />

<path d="M617,-123V1415h72V-123Z" 
id="f3_55"
transform="scale(0.001,-0.001)" />

<path d="M650,-123c0,0,-180,75,-319,246c0,0,-140,172,-205,418c0,0,-64,245,-64,481v393h72V1007c0,0,0,-236,63,-459c0,0,63,-223,189,-391c0,0,108,-145,282,-265l-18,-15Z" 
id="f3_4q"
transform="scale(0.001,-0.001)" />

<path d="M101,-123l-17,15c0,0,210,144,334,339c0,0,99,156,149,373c0,0,50,218,50,403v408h72V1022c0,0,0,-230,-56,-451c0,0,-48,-191,-134,-335C499,236,412,92,295,-5c0,0,-84,-73,-194,-118Z" 
id="f3_56"
transform="scale(0.001,-0.001)" />

<path d="M0,214v74H784V214ZM0,494v72H784V494Z" 
id="f5_x"
transform="scale(0.001,-0.001)" />

<path d="M0,0V208H26c0,0,2,-45,24,-62c0,0,33,-26,101,-26H353v52c0,0,-156,46,-242,156c0,0,-85,111,-85,261c0,0,0,187,139,316c0,0,139,129,376,129c0,0,146,0,268,-54c0,0,122,-55,188,-160c0,0,66,-105,66,-231c0,0,0,-155,-91,-269c0,0,-91,-115,-238,-148l-5,-52H933c0,0,70,0,97,21c0,0,27,21,32,67h27V0H666l18,208c0,0,105,44,155,126c0,0,49,81,49,228c0,0,0,203,-98,311c0,0,-99,109,-249,109c0,0,-144,0,-244,-110C297,872,197,762,197,572c0,0,0,-149,51,-238c0,0,51,-88,154,-126L420,0Z" 
id="f5_1n"
transform="scale(0.001,-0.001)" />

<path d="M474,-326c0,0,-112,57,-188,133c0,0,-107,108,-165,254c0,0,-58,147,-58,305c0,0,0,231,114,421c0,0,114,191,297,273v-31c0,0,-92,-51,-151,-139c0,0,-59,-88,-88,-223c0,0,-30,-135,-30,-281c0,0,0,-160,25,-290c0,0,20,-102,47,-164c0,0,28,-62,75,-120c0,0,47,-57,122,-109v-29Z" 
id="f1_c"
transform="scale(0.001,-0.001)" />

<path d="M35,-326v29c0,0,92,51,151,139c0,0,60,87,89,221c0,0,28,136,28,282c0,0,0,159,-24,290c0,0,-19,103,-47,165c0,0,-28,62,-75,119c0,0,-46,57,-122,110v31c0,0,113,-56,188,-132c0,0,107,-109,165,-255c0,0,58,-147,58,-306c0,0,0,-231,-114,-420c0,0,-113,-191,-297,-273Z" 
id="f1_d"
transform="scale(0.001,-0.001)" />

<path d="M62,286V399H448V286Z" 
id="f1_h"
transform="scale(0.001,-0.001)" />

<path d="M328,-20c0,0,-34,0,-58,24c0,0,-25,24,-25,58c0,0,0,35,25,59c0,0,24,24,58,24c0,0,34,0,59,-24c0,0,24,-24,24,-59c0,0,0,-34,-25,-58c0,0,-24,-24,-58,-24ZM308,238c0,0,5,94,23,155c0,0,18,62,76,172c0,0,44,84,58,129c0,0,13,46,13,92c0,0,0,95,-50,150c0,0,-50,56,-123,56c0,0,-65,0,-102,-30c0,0,-38,-31,-38,-67c0,0,0,-27,23,-67c0,0,22,-41,22,-62c0,0,0,-26,-17,-45c0,0,-17,-18,-42,-18c0,0,-31,0,-57,31c0,0,-26,31,-26,86c0,0,0,85,73,150c0,0,72,64,196,64c0,0,153,0,225,-89c0,0,54,-66,54,-146c0,0,0,-54,-24,-112c0,0,-25,-57,-92,-135C500,552,391,430,367,378c0,0,-24,-51,-29,-140Z" 
id="f1_z"
transform="scale(0.001,-0.001)" />

<path d="M31,0V27H67c0,0,36,0,68,18c0,0,24,12,32,36c0,0,9,24,9,98V836c0,0,0,96,-19,119c0,0,-27,30,-90,30H31v27H811L822,790H792c0,0,-15,80,-34,110c0,0,-19,30,-57,46c0,0,-29,11,-105,11H319V557H541c0,0,87,0,116,26c0,0,39,35,44,121h27V352H701c0,0,-11,74,-21,95c0,0,-14,26,-45,41c0,0,-30,15,-94,15H319V168c0,0,0,-67,6,-81c0,0,6,-15,21,-24c0,0,15,-8,56,-8H574c0,0,86,0,124,12c0,0,39,12,75,47c0,0,46,46,95,139h30L811,0Z" 
id="f1_15"
transform="scale(0.001,-0.001)" />

<path d="M46,0c0,0,-2,48,16,93c0,0,27,74,88,146c0,0,61,71,176,165c0,0,178,146,241,232c0,0,63,85,63,161c0,0,0,80,-57,135c0,0,-58,55,-149,55c0,0,-98,0,-156,-59c0,0,-58,-58,-59,-160L71,782c0,0,15,154,107,235c0,0,93,81,249,81c0,0,157,0,249,-87c0,0,92,-88,92,-217c0,0,0,-65,-27,-129c0,0,-27,-63,-89,-133c0,0,-62,-70,-207,-193C445,339,324,238,290,202c0,0,-35,-36,-57,-73H770V0Z" 
id="f6_m"
transform="scale(0.001,-0.001)" />


</defs>
</svg>