<?xml version="1.0" encoding="UTF-8" standalone="no"?>
<!DOCTYPE svg PUBLIC "-//W3C//DTD SVG 1.1//EN"
"http://www.w3.org/Graphics/SVG/1.1/DTD/svg11.dtd">
<svg viewBox="0 0 909 1286" version="1.1" xmlns="http://www.w3.org/2000/svg" xmlns:xlink="http://www.w3.org/1999/xlink">
<defs>
</defs>
<image preserveAspectRatio="none" x="47" y="141" width="123" height="56" xlink:href="img/1.png" />
<g fill="#000000" >
<use xlink:href="#f0_2" transform="matrix(12,0,0,12,47.4,238.3)" />
<use xlink:href="#f0_4" transform="matrix(12,0,0,12,58.2,238.3)" />
<use xlink:href="#f0_m" transform="matrix(12,0,0,12,68.8,238.3)" />
<use xlink:href="#f0_d" transform="matrix(12,0,0,12,77.8,238.3)" />
<use xlink:href="#f0_c" transform="matrix(12,0,0,12,88.1,238.3)" />
<use xlink:href="#f0_c" transform="matrix(12,0,0,12,98.5,238.3)" />
<use xlink:href="#f0_g" transform="matrix(12,0,0,12,104.2,238.3)" />
<use xlink:href="#f0_n" transform="matrix(12,0,0,12,114,238.3)" />
<use xlink:href="#f0_r" transform="matrix(12,0,0,12,125.8,238.3)" />
<use xlink:href="#f0_i" transform="matrix(12,0,0,12,135.7,238.3)" />
<use xlink:href="#f0_k" transform="matrix(12,0,0,12,142.1,238.3)" />
<use xlink:href="#f0_4" transform="matrix(12,0,0,12,158.5,238.3)" />
<use xlink:href="#f0_f" transform="matrix(12,0,0,12,169.1,238.3)" />
<use xlink:href="#f0_i" transform="matrix(12,0,0,12,180.6,238.3)" />
<use xlink:href="#f0_k" transform="matrix(12,0,0,12,187,238.3)" />
<use xlink:href="#f0_g" transform="matrix(12,0,0,12,198.7,238.3)" />
<use xlink:href="#f0_m" transform="matrix(12,0,0,12,213.2,238.3)" />
<use xlink:href="#f0_4" transform="matrix(12,0,0,12,222.2,238.3)" />
<use xlink:href="#f0_n" transform="matrix(12,0,0,12,232.8,238.3)" />
<use xlink:href="#f0_m" transform="matrix(12,0,0,12,244.6,238.3)" />
<use xlink:href="#f0_d" transform="matrix(12,0,0,12,253.7,238.3)" />
<use xlink:href="#f0_s" transform="matrix(12,0,0,12,264,238.3)" />
<use xlink:href="#f0_g" transform="matrix(12,0,0,12,274.6,238.3)" />
<use xlink:href="#f0_5" transform="matrix(12,0,0,12,289.1,238.3)" />
<use xlink:href="#f0_9" transform="matrix(12,0,0,12,306.4,238.3)" />
<use xlink:href="#f0_3" transform="matrix(12,0,0,12,312.3,238.3)" />
<use xlink:href="#f0_3" transform="matrix(12,0,0,12,320.9,238.3)" />
<use xlink:href="#f0_4" transform="matrix(12,0,0,12,329.5,238.3)" />
<use xlink:href="#f0_3" transform="matrix(12,0,0,12,340.1,238.3)" />
<use xlink:href="#f0_1m" transform="matrix(12,0,0,12,348.7,238.3)" />
</g>
<image preserveAspectRatio="none" x="47" y="248" width="194" height="58" xlink:href="img/2.png" />
<g fill="#000000" >
<use xlink:href="#f0_12" transform="matrix(12,0,0,12,47.4,346.8)" />
<use xlink:href="#f0_5" transform="matrix(12,0,0,12,54.1,346.8)" />
<use xlink:href="#f0_d" transform="matrix(12,0,0,12,71.4,346.8)" />
<use xlink:href="#f0_r" transform="matrix(12,0,0,12,81.7,346.8)" />
<use xlink:href="#f0_g" transform="matrix(12,0,0,12,91.6,346.8)" />
<use xlink:href="#f0_q" transform="matrix(12,0,0,12,106.1,346.8)" />
<use xlink:href="#f0_9" transform="matrix(12,0,0,12,117.4,346.8)" />
<use xlink:href="#f0_l" transform="matrix(12,0,0,12,123.2,346.8)" />
<use xlink:href="#f0_i" transform="matrix(12,0,0,12,131.5,346.8)" />
<use xlink:href="#f0_d" transform="matrix(12,0,0,12,137.9,346.8)" />
<use xlink:href="#f0_n" transform="matrix(12,0,0,12,148.2,346.8)" />
<use xlink:href="#f0_m" transform="matrix(12,0,0,12,160.1,346.8)" />
<use xlink:href="#f0_g" transform="matrix(12,0,0,12,169.1,346.8)" />
<use xlink:href="#f0_13" transform="matrix(12,0,0,12,183.6,346.8)" />
<use xlink:href="#f1_5" transform="matrix(12,0,0,12,198.6,346.8)" />
<use xlink:href="#f0_1g" transform="matrix(12,0,0,12,47.4,397.2)" />
<use xlink:href="#f0_k" transform="matrix(12,0,0,12,58.6,397.2)" />
<use xlink:href="#f0_g" transform="matrix(12,0,0,12,70.2,397.2)" />
<use xlink:href="#f0_9" transform="matrix(12,0,0,12,84.8,397.2)" />
<use xlink:href="#f0_5" transform="matrix(12,0,0,12,90.6,397.2)" />
<use xlink:href="#f0_d" transform="matrix(12,0,0,12,107.9,397.2)" />
<use xlink:href="#f0_r" transform="matrix(12,0,0,12,118.2,397.2)" />
<use xlink:href="#f0_g" transform="matrix(12,0,0,12,128.1,397.2)" />
<use xlink:href="#f0_q" transform="matrix(12,0,0,12,142.7,397.2)" />
<use xlink:href="#f0_9" transform="matrix(12,0,0,12,153.9,397.2)" />
<use xlink:href="#f0_l" transform="matrix(12,0,0,12,159.7,397.2)" />
<use xlink:href="#f0_i" transform="matrix(12,0,0,12,168,397.2)" />
<use xlink:href="#f0_d" transform="matrix(12,0,0,12,174.5,397.2)" />
<use xlink:href="#f0_n" transform="matrix(12,0,0,12,184.8,397.2)" />
<use xlink:href="#f0_m" transform="matrix(12,0,0,12,196.6,397.2)" />
<use xlink:href="#f0_g" transform="matrix(12,0,0,12,205.6,397.2)" />
<use xlink:href="#f0_m" transform="matrix(12,0,0,12,220.2,397.2)" />
<use xlink:href="#f0_d" transform="matrix(12,0,0,12,229.2,397.2)" />
<use xlink:href="#f0_n" transform="matrix(12,0,0,12,239.5,397.2)" />
<use xlink:href="#f0_u" transform="matrix(12,0,0,12,256.1,397.2)" />
<use xlink:href="#f0_g" transform="matrix(12,0,0,12,267.3,397.2)" />
<use xlink:href="#f0_4" transform="matrix(12,0,0,12,281.9,397.2)" />
<use xlink:href="#f0_u" transform="matrix(12,0,0,12,292.5,397.2)" />
<use xlink:href="#f0_i" transform="matrix(12,0,0,12,303.7,397.2)" />
<use xlink:href="#f0_d" transform="matrix(12,0,0,12,310.1,397.2)" />
<use xlink:href="#f0_9" transform="matrix(12,0,0,12,320.5,397.2)" />
<use xlink:href="#f0_n" transform="matrix(12,0,0,12,326.3,397.2)" />
<use xlink:href="#f0_g" transform="matrix(12,0,0,12,338.1,397.2)" />
<use xlink:href="#f0_q" transform="matrix(12,0,0,12,347.9,397.2)" />
<use xlink:href="#f0_j" transform="matrix(12,0,0,12,363.9,397.2)" />
<use xlink:href="#f0_l" transform="matrix(12,0,0,12,375.5,397.2)" />
<use xlink:href="#f0_9" transform="matrix(12,0,0,12,383.8,397.2)" />
<use xlink:href="#f0_n" transform="matrix(12,0,0,12,389.7,397.2)" />
<use xlink:href="#f0_r" transform="matrix(12,0,0,12,401.5,397.2)" />
<use xlink:href="#f0_i" transform="matrix(12,0,0,12,416.1,397.2)" />
<use xlink:href="#f0_k" transform="matrix(12,0,0,12,422.5,397.2)" />
<use xlink:href="#f0_g" transform="matrix(12,0,0,12,434.2,397.2)" />
<use xlink:href="#f0_5" transform="matrix(12,0,0,12,448.7,397.2)" />
<use xlink:href="#f0_9" transform="matrix(12,0,0,12,466,397.2)" />
<use xlink:href="#f0_3" transform="matrix(12,0,0,12,471.9,397.2)" />
<use xlink:href="#f0_3" transform="matrix(12,0,0,12,480.5,397.2)" />
<use xlink:href="#f0_4" transform="matrix(12,0,0,12,489.1,397.2)" />
<use xlink:href="#f0_3" transform="matrix(12,0,0,12,499.7,397.2)" />
<use xlink:href="#f0_f" transform="matrix(12,0,0,12,513,397.2)" />
<use xlink:href="#f0_4" transform="matrix(12,0,0,12,519.8,397.2)" />
<use xlink:href="#f0_3" transform="matrix(12,0,0,12,530.4,397.2)" />
<use xlink:href="#f0_5" transform="matrix(12,0,0,12,539,397.2)" />
<use xlink:href="#f0_j" transform="matrix(12,0,0,12,556.3,397.2)" />
<use xlink:href="#f0_c" transform="matrix(12,0,0,12,567.9,397.2)" />
<use xlink:href="#f0_d" transform="matrix(12,0,0,12,573.6,397.2)" />
<use xlink:href="#f0_1r" transform="matrix(12,0,0,12,583.9,397.2)" />
</g>
<image preserveAspectRatio="none" x="47" y="425" width="100" height="61" xlink:href="img/3.png" />
<image preserveAspectRatio="none" x="47" y="504" width="103" height="64" xlink:href="img/4.png" />
<image preserveAspectRatio="none" x="47" y="587" width="271" height="58" xlink:href="img/5.png" />
<image preserveAspectRatio="none" x="47" y="665" width="135" height="33" xlink:href="img/6.png" />
<g fill="#000000" >
<use xlink:href="#f0_1g" transform="matrix(12,0,0,12,47.4,728.8)" />
<use xlink:href="#f0_k" transform="matrix(12,0,0,12,58.6,728.8)" />
<use xlink:href="#f0_g" transform="matrix(12,0,0,12,70.2,728.8)" />
<use xlink:href="#f0_3" transform="matrix(12,0,0,12,80,728.8)" />
<use xlink:href="#f0_g" transform="matrix(12,0,0,12,88.6,728.8)" />
<use xlink:href="#f0_f" transform="matrix(12,0,0,12,98.4,728.8)" />
<use xlink:href="#f0_4" transform="matrix(12,0,0,12,105.2,728.8)" />
<use xlink:href="#f0_3" transform="matrix(12,0,0,12,115.8,728.8)" />
<use xlink:href="#f0_g" transform="matrix(12,0,0,12,124.4,728.8)" />
<use xlink:href="#f0_1m" transform="matrix(12,0,0,12,134.2,728.8)" />
<use xlink:href="#f0_i" transform="matrix(12,0,0,12,143.5,728.8)" />
<use xlink:href="#f0_k" transform="matrix(12,0,0,12,150,728.8)" />
<use xlink:href="#f0_g" transform="matrix(12,0,0,12,161.6,728.8)" />
<use xlink:href="#f0_l" transform="matrix(12,0,0,12,176.2,728.8)" />
<use xlink:href="#f0_m" transform="matrix(12,0,0,12,184.4,728.8)" />
<use xlink:href="#f0_3" transform="matrix(12,0,0,12,193.5,728.8)" />
<use xlink:href="#f0_g" transform="matrix(12,0,0,12,202.1,728.8)" />
<use xlink:href="#f0_g" transform="matrix(12,0,0,12,211.9,728.8)" />
<use xlink:href="#f0_n" transform="matrix(12,0,0,12,221.7,728.8)" />
<use xlink:href="#f0_l" transform="matrix(12,0,0,12,238.3,728.8)" />
<use xlink:href="#f0_k" transform="matrix(12,0,0,12,246.5,728.8)" />
<use xlink:href="#f0_4" transform="matrix(12,0,0,12,258.1,728.8)" />
<use xlink:href="#f0_j" transform="matrix(12,0,0,12,268.7,728.8)" />
<use xlink:href="#f0_c" transform="matrix(12,0,0,12,280.3,728.8)" />
<use xlink:href="#f0_q" transform="matrix(12,0,0,12,286,728.8)" />
<use xlink:href="#f0_u" transform="matrix(12,0,0,12,302,728.8)" />
<use xlink:href="#f0_g" transform="matrix(12,0,0,12,313.3,728.8)" />
<use xlink:href="#f0_h" transform="matrix(12,0,0,12,327.8,728.8)" />
<use xlink:href="#f0_c" transform="matrix(12,0,0,12,339.1,728.8)" />
<use xlink:href="#f0_d" transform="matrix(12,0,0,12,344.8,728.8)" />
<use xlink:href="#f0_m" transform="matrix(12,0,0,12,355.1,728.8)" />
<use xlink:href="#f0_g" transform="matrix(12,0,0,12,364.1,728.8)" />
<use xlink:href="#f0_q" transform="matrix(12,0,0,12,373.9,728.8)" />
<use xlink:href="#f0_1h" transform="matrix(12,0,0,12,389.9,728.8)" />
<use xlink:href="#f0_1i" transform="matrix(12,0,0,12,400.1,728.8)" />
<use xlink:href="#f0_m" transform="matrix(12,0,0,12,415.1,728.8)" />
<use xlink:href="#f0_5" transform="matrix(12,0,0,12,424.1,728.8)" />
<use xlink:href="#f0_d" transform="matrix(12,0,0,12,446.2,728.8)" />
<use xlink:href="#f0_10" transform="matrix(12,0,0,12,456.5,728.8)" />
<use xlink:href="#f0_d" transform="matrix(12,0,0,12,472.3,728.8)" />
<use xlink:href="#f0_e" transform="matrix(12,0,0,12,482.6,728.8)" />
<use xlink:href="#f0_f" transform="matrix(12,0,0,12,497.7,728.8)" />
<use xlink:href="#f0_3" transform="matrix(12,0,0,12,504.5,728.8)" />
<use xlink:href="#f0_4" transform="matrix(12,0,0,12,513.1,728.8)" />
<use xlink:href="#f0_5" transform="matrix(12,0,0,12,523.6,728.8)" />
<use xlink:href="#f0_i" transform="matrix(12,0,0,12,545.7,728.8)" />
<use xlink:href="#f0_k" transform="matrix(12,0,0,12,552.1,728.8)" />
<use xlink:href="#f0_g" transform="matrix(12,0,0,12,563.8,728.8)" />
<use xlink:href="#f0_5" transform="matrix(12,0,0,12,578.3,728.8)" />
<use xlink:href="#f0_9" transform="matrix(12,0,0,12,595.6,728.8)" />
<use xlink:href="#f0_3" transform="matrix(12,0,0,12,601.5,728.8)" />
<use xlink:href="#f0_3" transform="matrix(12,0,0,12,610.1,728.8)" />
<use xlink:href="#f0_4" transform="matrix(12,0,0,12,618.7,728.8)" />
<use xlink:href="#f0_3" transform="matrix(12,0,0,12,629.3,728.8)" />
<use xlink:href="#f0_i" transform="matrix(12,0,0,12,642.7,728.8)" />
<use xlink:href="#f0_4" transform="matrix(12,0,0,12,649.1,728.8)" />
<use xlink:href="#f0_4" transform="matrix(12,0,0,12,664.4,728.8)" />
<use xlink:href="#f0_u" transform="matrix(12,0,0,12,675,728.8)" />
<use xlink:href="#f0_i" transform="matrix(12,0,0,12,686.3,728.8)" />
<use xlink:href="#f0_d" transform="matrix(12,0,0,12,692.7,728.8)" />
<use xlink:href="#f0_9" transform="matrix(12,0,0,12,703,728.8)" />
<use xlink:href="#f0_n" transform="matrix(12,0,0,12,708.9,728.8)" />
<use xlink:href="#f0_d" transform="matrix(12,0,0,12,725.4,728.8)" />
<use xlink:href="#f0_l" transform="matrix(12,0,0,12,740.5,728.8)" />
<use xlink:href="#f0_k" transform="matrix(12,0,0,12,748.8,728.8)" />
<use xlink:href="#f0_d" transform="matrix(12,0,0,12,760.4,728.8)" />
<use xlink:href="#f0_3" transform="matrix(12,0,0,12,770.7,728.8)" />
<use xlink:href="#f0_h" transform="matrix(12,0,0,12,779.3,728.8)" />
<use xlink:href="#f0_9" transform="matrix(12,0,0,12,795.3,728.8)" />
<use xlink:href="#f0_5" transform="matrix(12,0,0,12,801.2,728.8)" />
<use xlink:href="#f0_d" transform="matrix(12,0,0,12,818.5,728.8)" />
<use xlink:href="#f0_r" transform="matrix(12,0,0,12,828.8,728.8)" />
<use xlink:href="#f0_g" transform="matrix(12,0,0,12,838.6,728.8)" />
<use xlink:href="#f0_v" transform="matrix(12,0,0,12,848.4,728.8)" />
<use xlink:href="#f0_1g" transform="matrix(12,0,0,12,47.4,779.2)" />
<use xlink:href="#f0_k" transform="matrix(12,0,0,12,58.6,779.2)" />
<use xlink:href="#f0_g" transform="matrix(12,0,0,12,70.2,779.2)" />
<use xlink:href="#f0_5" transform="matrix(12,0,0,12,84.8,779.2)" />
<use xlink:href="#f0_d" transform="matrix(12,0,0,12,102.1,779.2)" />
<use xlink:href="#f0_r" transform="matrix(12,0,0,12,112.4,779.2)" />
<use xlink:href="#f0_n" transform="matrix(12,0,0,12,122.2,779.2)" />
<use xlink:href="#f0_9" transform="matrix(12,0,0,12,134.1,779.2)" />
<use xlink:href="#f0_f" transform="matrix(12,0,0,12,139.9,779.2)" />
<use xlink:href="#f0_9" transform="matrix(12,0,0,12,146.7,779.2)" />
<use xlink:href="#f0_m" transform="matrix(12,0,0,12,152.5,779.2)" />
<use xlink:href="#f0_d" transform="matrix(12,0,0,12,161.5,779.2)" />
<use xlink:href="#f0_i" transform="matrix(12,0,0,12,171.9,779.2)" />
<use xlink:href="#f0_9" transform="matrix(12,0,0,12,178.3,779.2)" />
<use xlink:href="#f0_4" transform="matrix(12,0,0,12,184.1,779.2)" />
<use xlink:href="#f0_n" transform="matrix(12,0,0,12,194.7,779.2)" />
<use xlink:href="#f0_4" transform="matrix(12,0,0,12,211.3,779.2)" />
<use xlink:href="#f0_f" transform="matrix(12,0,0,12,221.9,779.2)" />
<use xlink:href="#f0_i" transform="matrix(12,0,0,12,233.4,779.2)" />
<use xlink:href="#f0_k" transform="matrix(12,0,0,12,239.8,779.2)" />
<use xlink:href="#f0_g" transform="matrix(12,0,0,12,251.4,779.2)" />
<use xlink:href="#f0_9" transform="matrix(12,0,0,12,266,779.2)" />
<use xlink:href="#f0_5" transform="matrix(12,0,0,12,271.8,779.2)" />
<use xlink:href="#f0_d" transform="matrix(12,0,0,12,289.2,779.2)" />
<use xlink:href="#f0_r" transform="matrix(12,0,0,12,299.5,779.2)" />
<use xlink:href="#f0_g" transform="matrix(12,0,0,12,309.3,779.2)" />
<use xlink:href="#f0_9" transform="matrix(12,0,0,12,323.9,779.2)" />
<use xlink:href="#f0_l" transform="matrix(12,0,0,12,329.7,779.2)" />
<use xlink:href="#f0_r" transform="matrix(12,0,0,12,342.7,779.2)" />
<use xlink:href="#f0_9" transform="matrix(12,0,0,12,352.6,779.2)" />
<use xlink:href="#f0_s" transform="matrix(12,0,0,12,358.5,779.2)" />
<use xlink:href="#f0_g" transform="matrix(12,0,0,12,369.1,779.2)" />
<use xlink:href="#f0_n" transform="matrix(12,0,0,12,378.9,779.2)" />
<use xlink:href="#f0_d" transform="matrix(12,0,0,12,395.4,779.2)" />
<use xlink:href="#f0_l" transform="matrix(12,0,0,12,405.7,779.2)" />
<use xlink:href="#f0_1r" transform="matrix(12,0,0,12,414,779.2)" />
</g>
<image preserveAspectRatio="none" x="47" y="801" width="135" height="62" xlink:href="img/7.png" />
<image preserveAspectRatio="none" x="47" y="882" width="139" height="62" xlink:href="img/8.png" />
<image preserveAspectRatio="none" x="47" y="963" width="219" height="62" xlink:href="img/9.png" />
<g fill="#000000" >
<use xlink:href="#f0_1g" transform="matrix(12,0,0,12,47.4,1066.4)" />
<use xlink:href="#f0_k" transform="matrix(12,0,0,12,58.6,1066.4)" />
<use xlink:href="#f0_g" transform="matrix(12,0,0,12,70.2,1066.4)" />
<use xlink:href="#f0_k" transform="matrix(12,0,0,12,84.8,1066.4)" />
<use xlink:href="#f0_g" transform="matrix(12,0,0,12,96.4,1066.4)" />
<use xlink:href="#f0_9" transform="matrix(12,0,0,12,106.2,1066.4)" />
<use xlink:href="#f0_r" transform="matrix(12,0,0,12,112.1,1066.4)" />
<use xlink:href="#f0_k" transform="matrix(12,0,0,12,121.9,1066.4)" />
<use xlink:href="#f0_i" transform="matrix(12,0,0,12,133.5,1066.4)" />
<use xlink:href="#f0_4" transform="matrix(12,0,0,12,144.7,1066.4)" />
<use xlink:href="#f0_f" transform="matrix(12,0,0,12,155.3,1066.4)" />
<use xlink:href="#f0_i" transform="matrix(12,0,0,12,166.8,1066.4)" />
<use xlink:href="#f0_k" transform="matrix(12,0,0,12,173.3,1066.4)" />
<use xlink:href="#f0_g" transform="matrix(12,0,0,12,184.9,1066.4)" />
<use xlink:href="#f0_m" transform="matrix(12,0,0,12,199.4,1066.4)" />
<use xlink:href="#f0_d" transform="matrix(12,0,0,12,208.5,1066.4)" />
<use xlink:href="#f0_n" transform="matrix(12,0,0,12,218.8,1066.4)" />
<use xlink:href="#f0_q" transform="matrix(12,0,0,12,230.6,1066.4)" />
<use xlink:href="#f0_c" transform="matrix(12,0,0,12,241.8,1066.4)" />
<use xlink:href="#f0_g" transform="matrix(12,0,0,12,247.5,1066.4)" />
<use xlink:href="#f0_1o" transform="matrix(12,0,0,12,257.3,1066.4)" />
<use xlink:href="#f0_l" transform="matrix(12,0,0,12,261.4,1066.4)" />
<use xlink:href="#f0_9" transform="matrix(12,0,0,12,274.4,1066.4)" />
<use xlink:href="#f0_5" transform="matrix(12,0,0,12,280.2,1066.4)" />
<use xlink:href="#f0_d" transform="matrix(12,0,0,12,297.5,1066.4)" />
<use xlink:href="#f0_r" transform="matrix(12,0,0,12,307.8,1066.4)" />
<use xlink:href="#f0_g" transform="matrix(12,0,0,12,317.7,1066.4)" />
<use xlink:href="#f0_9" transform="matrix(12,0,0,12,332.3,1066.4)" />
<use xlink:href="#f0_l" transform="matrix(12,0,0,12,338.1,1066.4)" />
<use xlink:href="#f0_1h" transform="matrix(12,0,0,12,351.1,1066.4)" />
<use xlink:href="#f0_m" transform="matrix(12,0,0,12,366.1,1066.4)" />
<use xlink:href="#f0_5" transform="matrix(12,0,0,12,375.1,1066.4)" />
<use xlink:href="#f0_v" transform="matrix(12,0,0,12,392.4,1066.4)" />
<use xlink:href="#f0_1g" transform="matrix(12,0,0,12,402.4,1066.4)" />
<use xlink:href="#f0_k" transform="matrix(12,0,0,12,413.6,1066.4)" />
<use xlink:href="#f0_g" transform="matrix(12,0,0,12,425.3,1066.4)" />
<use xlink:href="#f0_n" transform="matrix(12,0,0,12,439.8,1066.4)" />
<use xlink:href="#f0_g" transform="matrix(12,0,0,12,451.6,1066.4)" />
<use xlink:href="#f0_r" transform="matrix(12,0,0,12,461.5,1066.4)" />
<use xlink:href="#f0_d" transform="matrix(12,0,0,12,471.3,1066.4)" />
<use xlink:href="#f0_i" transform="matrix(12,0,0,12,481.6,1066.4)" />
<use xlink:href="#f0_9" transform="matrix(12,0,0,12,488.1,1066.4)" />
<use xlink:href="#f0_s" transform="matrix(12,0,0,12,493.9,1066.4)" />
<use xlink:href="#f0_g" transform="matrix(12,0,0,12,504.5,1066.4)" />
<use xlink:href="#f0_l" transform="matrix(12,0,0,12,519.1,1066.4)" />
<use xlink:href="#f0_9" transform="matrix(12,0,0,12,527.3,1066.4)" />
<use xlink:href="#f0_r" transform="matrix(12,0,0,12,533.2,1066.4)" />
<use xlink:href="#f0_n" transform="matrix(12,0,0,12,543.1,1066.4)" />
<use xlink:href="#f0_9" transform="matrix(12,0,0,12,559.6,1066.4)" />
<use xlink:href="#f0_n" transform="matrix(12,0,0,12,565.5,1066.4)" />
<use xlink:href="#f0_q" transform="matrix(12,0,0,12,577.3,1066.4)" />
<use xlink:href="#f0_9" transform="matrix(12,0,0,12,588.5,1066.4)" />
<use xlink:href="#f0_m" transform="matrix(12,0,0,12,594.4,1066.4)" />
<use xlink:href="#f0_d" transform="matrix(12,0,0,12,603.4,1066.4)" />
<use xlink:href="#f0_i" transform="matrix(12,0,0,12,613.7,1066.4)" />
<use xlink:href="#f0_g" transform="matrix(12,0,0,12,620.2,1066.4)" />
<use xlink:href="#f0_l" transform="matrix(12,0,0,12,630,1066.4)" />
<use xlink:href="#f0_i" transform="matrix(12,0,0,12,643,1066.4)" />
<use xlink:href="#f0_k" transform="matrix(12,0,0,12,649.4,1066.4)" />
<use xlink:href="#f0_d" transform="matrix(12,0,0,12,661.1,1066.4)" />
<use xlink:href="#f0_i" transform="matrix(12,0,0,12,671.4,1066.4)" />
<use xlink:href="#f0_i" transform="matrix(12,0,0,12,682.6,1066.4)" />
<use xlink:href="#f0_k" transform="matrix(12,0,0,12,689,1066.4)" />
<use xlink:href="#f0_g" transform="matrix(12,0,0,12,700.6,1066.4)" />
<use xlink:href="#f0_9" transform="matrix(12,0,0,12,715.2,1066.4)" />
<use xlink:href="#f0_5" transform="matrix(12,0,0,12,721,1066.4)" />
<use xlink:href="#f0_d" transform="matrix(12,0,0,12,738.3,1066.4)" />
<use xlink:href="#f0_r" transform="matrix(12,0,0,12,748.7,1066.4)" />
<use xlink:href="#f0_g" transform="matrix(12,0,0,12,758.5,1066.4)" />
<use xlink:href="#f0_9" transform="matrix(12,0,0,12,773.1,1066.4)" />
<use xlink:href="#f0_l" transform="matrix(12,0,0,12,778.9,1066.4)" />
<use xlink:href="#f0_9" transform="matrix(12,0,0,12,47.4,1098.5)" />
<use xlink:href="#f0_n" transform="matrix(12,0,0,12,53.2,1098.5)" />
<use xlink:href="#f0_s" transform="matrix(12,0,0,12,65,1098.5)" />
<use xlink:href="#f0_g" transform="matrix(12,0,0,12,75.6,1098.5)" />
<use xlink:href="#f0_3" transform="matrix(12,0,0,12,85.4,1098.5)" />
<use xlink:href="#f0_i" transform="matrix(12,0,0,12,94.1,1098.5)" />
<use xlink:href="#f0_g" transform="matrix(12,0,0,12,100.5,1098.5)" />
<use xlink:href="#f0_q" transform="matrix(12,0,0,12,110.3,1098.5)" />
<use xlink:href="#f0_d" transform="matrix(12,0,0,12,126.3,1098.5)" />
<use xlink:href="#f0_n" transform="matrix(12,0,0,12,136.6,1098.5)" />
<use xlink:href="#f0_q" transform="matrix(12,0,0,12,148.4,1098.5)" />
<use xlink:href="#f0_3" transform="matrix(12,0,0,12,164.4,1098.5)" />
<use xlink:href="#f0_g" transform="matrix(12,0,0,12,173,1098.5)" />
<use xlink:href="#f0_d" transform="matrix(12,0,0,12,182.9,1098.5)" />
<use xlink:href="#f0_c" transform="matrix(12,0,0,12,193.2,1098.5)" />
<use xlink:href="#f0_v" transform="matrix(12,0,0,12,198.8,1098.5)" />
<use xlink:href="#f0_12" transform="matrix(12,0,0,12,47.4,1148.9)" />
<use xlink:href="#f0_f" transform="matrix(12,0,0,12,54.1,1148.9)" />
<use xlink:href="#f0_i" transform="matrix(12,0,0,12,65.6,1148.9)" />
<use xlink:href="#f0_k" transform="matrix(12,0,0,12,72,1148.9)" />
<use xlink:href="#f0_g" transform="matrix(12,0,0,12,83.7,1148.9)" />
<use xlink:href="#f0_m" transform="matrix(12,0,0,12,98.2,1148.9)" />
<use xlink:href="#f0_d" transform="matrix(12,0,0,12,107.3,1148.9)" />
<use xlink:href="#f0_n" transform="matrix(12,0,0,12,117.6,1148.9)" />
<use xlink:href="#f0_q" transform="matrix(12,0,0,12,129.4,1148.9)" />
<use xlink:href="#f0_c" transform="matrix(12,0,0,12,140.6,1148.9)" />
<use xlink:href="#f0_g" transform="matrix(12,0,0,12,146.3,1148.9)" />
<use xlink:href="#f0_9" transform="matrix(12,0,0,12,160.9,1148.9)" />
<use xlink:href="#f0_l" transform="matrix(12,0,0,12,166.7,1148.9)" />
<use xlink:href="#f0_5" transform="matrix(12,0,0,12,179.7,1148.9)" />
<use xlink:href="#f0_4" transform="matrix(12,0,0,12,197,1148.9)" />
<use xlink:href="#f0_s" transform="matrix(12,0,0,12,207.6,1148.9)" />
<use xlink:href="#f0_g" transform="matrix(12,0,0,12,218.2,1148.9)" />
<use xlink:href="#f0_q" transform="matrix(12,0,0,12,228,1148.9)" />
<use xlink:href="#f0_m" transform="matrix(12,0,0,12,244,1148.9)" />
<use xlink:href="#f0_c" transform="matrix(12,0,0,12,253,1148.9)" />
<use xlink:href="#f0_4" transform="matrix(12,0,0,12,258.7,1148.9)" />
<use xlink:href="#f0_l" transform="matrix(12,0,0,12,269.3,1148.9)" />
<use xlink:href="#f0_g" transform="matrix(12,0,0,12,277.6,1148.9)" />
<use xlink:href="#f0_3" transform="matrix(12,0,0,12,287.4,1148.9)" />
<use xlink:href="#f0_i" transform="matrix(12,0,0,12,300.7,1148.9)" />
<use xlink:href="#f0_4" transform="matrix(12,0,0,12,307.2,1148.9)" />
<use xlink:href="#f0_i" transform="matrix(12,0,0,12,322.5,1148.9)" />
<use xlink:href="#f0_k" transform="matrix(12,0,0,12,328.9,1148.9)" />
<use xlink:href="#f0_g" transform="matrix(12,0,0,12,340.6,1148.9)" />
<use xlink:href="#f0_5" transform="matrix(12,0,0,12,355.1,1148.9)" />
<use xlink:href="#f0_9" transform="matrix(12,0,0,12,372.4,1148.9)" />
<use xlink:href="#f0_3" transform="matrix(12,0,0,12,378.3,1148.9)" />
<use xlink:href="#f0_3" transform="matrix(12,0,0,12,386.9,1148.9)" />
<use xlink:href="#f0_4" transform="matrix(12,0,0,12,395.5,1148.9)" />
<use xlink:href="#f0_3" transform="matrix(12,0,0,12,406.1,1148.9)" />
<use xlink:href="#f0_1m" transform="matrix(12,0,0,12,414.7,1148.9)" />
<use xlink:href="#f0_i" transform="matrix(12,0,0,12,424.1,1148.9)" />
<use xlink:href="#f0_k" transform="matrix(12,0,0,12,430.5,1148.9)" />
<use xlink:href="#f0_g" transform="matrix(12,0,0,12,442.1,1148.9)" />
<use xlink:href="#f0_n" transform="matrix(12,0,0,12,451.9,1148.9)" />
<use xlink:href="#f0_i" transform="matrix(12,0,0,12,468.5,1148.9)" />
<use xlink:href="#f0_k" transform="matrix(12,0,0,12,474.9,1148.9)" />
<use xlink:href="#f0_g" transform="matrix(12,0,0,12,486.6,1148.9)" />
<use xlink:href="#f0_l" transform="matrix(12,0,0,12,501.1,1148.9)" />
<use xlink:href="#f0_m" transform="matrix(12,0,0,12,509.4,1148.9)" />
<use xlink:href="#f0_3" transform="matrix(12,0,0,12,518.4,1148.9)" />
<use xlink:href="#f0_g" transform="matrix(12,0,0,12,527,1148.9)" />
<use xlink:href="#f0_g" transform="matrix(12,0,0,12,536.8,1148.9)" />
<use xlink:href="#f0_n" transform="matrix(12,0,0,12,546.7,1148.9)" />
<use xlink:href="#f0_10" transform="matrix(12,0,0,12,563.2,1148.9)" />
<use xlink:href="#f0_9" transform="matrix(12,0,0,12,579,1148.9)" />
<use xlink:href="#f0_c" transform="matrix(12,0,0,12,584.9,1148.9)" />
<use xlink:href="#f0_c" transform="matrix(12,0,0,12,590.5,1148.9)" />
<use xlink:href="#f0_k" transform="matrix(12,0,0,12,601,1148.9)" />
<use xlink:href="#f0_d" transform="matrix(12,0,0,12,612.6,1148.9)" />
<use xlink:href="#f0_s" transform="matrix(12,0,0,12,622.9,1148.9)" />
<use xlink:href="#f0_g" transform="matrix(12,0,0,12,633.5,1148.9)" />
<use xlink:href="#f0_i" transform="matrix(12,0,0,12,648.1,1148.9)" />
<use xlink:href="#f0_4" transform="matrix(12,0,0,12,654.5,1148.9)" />
<use xlink:href="#f0_u" transform="matrix(12,0,0,12,669.8,1148.9)" />
<use xlink:href="#f0_g" transform="matrix(12,0,0,12,681.1,1148.9)" />
<use xlink:href="#f0_5" transform="matrix(12,0,0,12,695.6,1148.9)" />
<use xlink:href="#f0_4" transform="matrix(12,0,0,12,712.9,1148.9)" />
<use xlink:href="#f0_s" transform="matrix(12,0,0,12,723.5,1148.9)" />
<use xlink:href="#f0_g" transform="matrix(12,0,0,12,734.1,1148.9)" />
<use xlink:href="#f0_q" transform="matrix(12,0,0,12,743.9,1148.9)" />
<use xlink:href="#f0_d" transform="matrix(12,0,0,12,759.9,1148.9)" />
<use xlink:href="#f0_10" transform="matrix(12,0,0,12,770.2,1148.9)" />
<use xlink:href="#f0_d" transform="matrix(12,0,0,12,786,1148.9)" />
<use xlink:href="#f0_e" transform="matrix(12,0,0,12,796.3,1148.9)" />
<use xlink:href="#f0_f" transform="matrix(12,0,0,12,811.4,1148.9)" />
<use xlink:href="#f0_3" transform="matrix(12,0,0,12,818.2,1148.9)" />
<use xlink:href="#f0_4" transform="matrix(12,0,0,12,826.8,1148.9)" />
<use xlink:href="#f0_5" transform="matrix(12,0,0,12,837.4,1148.9)" />
<use xlink:href="#f0_i" transform="matrix(12,0,0,12,47.4,1181)" />
<use xlink:href="#f0_k" transform="matrix(12,0,0,12,53.8,1181)" />
<use xlink:href="#f0_g" transform="matrix(12,0,0,12,65.4,1181)" />
<use xlink:href="#f0_5" transform="matrix(12,0,0,12,80,1181)" />
<use xlink:href="#f0_9" transform="matrix(12,0,0,12,97.3,1181)" />
<use xlink:href="#f0_3" transform="matrix(12,0,0,12,103.1,1181)" />
<use xlink:href="#f0_3" transform="matrix(12,0,0,12,111.8,1181)" />
<use xlink:href="#f0_4" transform="matrix(12,0,0,12,120.4,1181)" />
<use xlink:href="#f0_3" transform="matrix(12,0,0,12,131,1181)" />
<use xlink:href="#f0_9" transform="matrix(12,0,0,12,144.3,1181)" />
<use xlink:href="#f0_n" transform="matrix(12,0,0,12,150.2,1181)" />
<use xlink:href="#f0_4" transform="matrix(12,0,0,12,166.7,1181)" />
<use xlink:href="#f0_3" transform="matrix(12,0,0,12,177.3,1181)" />
<use xlink:href="#f0_q" transform="matrix(12,0,0,12,185.9,1181)" />
<use xlink:href="#f0_g" transform="matrix(12,0,0,12,197.2,1181)" />
<use xlink:href="#f0_3" transform="matrix(12,0,0,12,207,1181)" />
<use xlink:href="#f0_i" transform="matrix(12,0,0,12,220.4,1181)" />
<use xlink:href="#f0_4" transform="matrix(12,0,0,12,226.8,1181)" />
<use xlink:href="#f0_4" transform="matrix(12,0,0,12,242.1,1181)" />
<use xlink:href="#f0_u" transform="matrix(12,0,0,12,252.7,1181)" />
<use xlink:href="#f0_i" transform="matrix(12,0,0,12,263.9,1181)" />
<use xlink:href="#f0_d" transform="matrix(12,0,0,12,270.4,1181)" />
<use xlink:href="#f0_9" transform="matrix(12,0,0,12,280.7,1181)" />
<use xlink:href="#f0_n" transform="matrix(12,0,0,12,286.6,1181)" />
<use xlink:href="#f0_i" transform="matrix(12,0,0,12,303.1,1181)" />
<use xlink:href="#f0_k" transform="matrix(12,0,0,12,309.6,1181)" />
<use xlink:href="#f0_g" transform="matrix(12,0,0,12,321.2,1181)" />
<use xlink:href="#f0_9" transform="matrix(12,0,0,12,335.8,1181)" />
<use xlink:href="#f0_5" transform="matrix(12,0,0,12,341.6,1181)" />
<use xlink:href="#f0_d" transform="matrix(12,0,0,12,358.9,1181)" />
<use xlink:href="#f0_r" transform="matrix(12,0,0,12,369.2,1181)" />
<use xlink:href="#f0_g" transform="matrix(12,0,0,12,379.1,1181)" />
<use xlink:href="#f0_v" transform="matrix(12,0,0,12,388.9,1181)" />
<use xlink:href="#f2_o" transform="matrix(8,0,0,8,785.4,1275.3)" />
<use xlink:href="#f2_t" transform="matrix(8,0,0,8,792.2,1275.3)" />
</g>
<defs>
<path d="M58,0V64H78c0,0,24,0,48,4c0,0,22,3,40,13c0,0,16,10,27,32c0,0,10,20,10,53V923c0,0,0,33,-10,54c0,0,-11,20,-27,32c0,0,-18,11,-40,14c0,0,-24,3,-48,3H58v65H832V824H756l-7,65c0,0,-4,26,-12,49c0,0,-9,23,-25,40c0,0,-17,16,-43,27c0,0,-26,10,-61,10H357V573H726V498H357V174c0,0,0,-37,11,-58c0,0,9,-21,27,-32c0,0,15,-13,39,-16c0,0,23,-4,49,-4h50V0Z" 
id="f0_2"
transform="scale(0.001,-0.001)" />

<path d="M442,64c0,0,56,0,97,23c0,0,38,22,64,66c0,0,24,43,36,108c0,0,9,65,10,150c0,0,0,85,-11,149c0,0,-11,64,-36,108c0,0,-25,42,-64,64c0,0,-41,21,-98,21c0,0,-58,0,-97,-21c0,0,-39,-22,-64,-64c0,0,-25,-44,-36,-108c0,0,-11,-64,-11,-149c0,0,0,-85,11,-150c0,0,11,-65,37,-108c0,0,24,-44,65,-66c0,0,38,-23,97,-23Zm-3,-78c0,0,-83,0,-149,25c0,0,-66,26,-111,79c0,0,-47,52,-70,134c0,0,-25,79,-25,187c0,0,0,213,91,319c0,0,90,103,268,104c0,0,82,0,149,-25c0,0,65,-26,111,-79c0,0,46,-53,71,-132c0,0,23,-80,23,-187c0,0,0,-216,-91,-321C706,90,614,-14,439,-14Z" 
id="f0_4"
transform="scale(0.001,-0.001)" />

<path d="M433,-14c0,0,-77,0,-141,23c0,0,-64,23,-110,74c0,0,-46,50,-72,130c0,0,-26,79,-26,192c0,0,0,122,26,205c0,0,26,82,72,132c0,0,46,49,108,71c0,0,61,21,134,21c0,0,47,0,96,-9c0,0,47,-10,85,-29c0,0,38,-19,62,-49c0,0,23,-30,24,-69c0,0,0,-54,-35,-74c0,0,-35,-22,-102,-22c0,0,0,35,-6,68c0,0,-6,32,-20,56c0,0,-15,24,-39,38c0,0,-26,14,-65,14c0,0,-44,0,-79,-16c0,0,-35,-18,-61,-57c0,0,-26,-40,-39,-108c0,0,-13,-69,-13,-170c0,0,-1,-164,54,-243c0,0,54,-80,177,-80h1c6,0,72,1,123,30c0,0,52,30,79,77c0,0,11,-10,19,-24c0,0,7,-15,7,-36c0,0,0,-27,-16,-52c0,0,-17,-26,-49,-47C627,32,594,10,546,0c0,0,-48,-14,-113,-14Z" 
id="f0_m"
transform="scale(0.001,-0.001)" />

<path d="M348,79c0,0,46,0,85,15c0,0,36,14,64,42c0,0,25,27,40,66c0,0,14,39,14,87V412H454c0,0,-65,0,-109,-14c0,0,-44,-13,-70,-36c0,0,-27,-25,-39,-59c0,0,-12,-35,-11,-80c0,0,0,-73,30,-108c0,0,29,-36,93,-36ZM313,-14c0,0,-50,0,-94,14c0,0,-44,14,-75,45c0,0,-33,30,-50,77c0,0,-18,47,-18,109c0,0,0,123,87,182c0,0,85,59,261,60H551v93c0,0,0,42,-4,78c0,0,-5,34,-20,60c0,0,-15,26,-42,40c0,0,-28,14,-75,14c0,0,-44,0,-71,-12c0,0,-29,-13,-43,-35c0,0,-16,-23,-21,-53c0,0,-6,-31,-5,-66c0,0,-64,0,-96,21c0,0,-34,21,-34,75c0,0,0,39,22,67c0,0,21,28,60,45c0,0,36,17,87,26c0,0,49,7,107,8c0,0,69,0,122,-13c0,0,52,-15,87,-46c0,0,34,-31,53,-81c0,0,17,-52,17,-124V174c0,0,0,-33,5,-53c0,0,6,-22,17,-34c0,0,10,-12,30,-18c0,0,15,-5,38,-5c2,0,3,0,5,0h4V0H588L564,131H551c0,0,-24,-33,-46,-59c0,0,-22,-27,-49,-46C456,26,429,6,395,-3c0,0,-35,-11,-82,-11Z" 
id="f0_d"
transform="scale(0.001,-0.001)" />

<path d="M20,0V64H40c0,0,25,0,49,4c0,0,22,3,39,16c0,0,17,11,27,32c0,0,10,21,10,58V993c0,0,0,33,-10,54c0,0,-11,21,-27,32c0,0,-18,11,-40,15c0,0,-24,3,-48,3H20v64H309V174c0,0,-1,-37,10,-58c0,0,9,-21,26,-32c0,0,17,-13,41,-16c0,0,22,-4,48,-4h20V0Z" 
id="f0_c"
transform="scale(0.001,-0.001)" />

<path d="M586,481c0,0,0,60,-9,111c0,0,-9,50,-29,85c0,0,-19,36,-51,56c0,0,-33,18,-79,19c0,0,-87,-1,-133,-69c0,0,-46,-69,-46,-202ZM439,-14c0,0,-83,0,-149,27c0,0,-66,28,-112,82c0,0,-46,53,-69,132c0,0,-25,77,-25,177c0,0,0,213,88,322c0,0,88,108,251,108c0,0,73,0,133,-23c0,0,58,-24,100,-69c0,0,41,-46,63,-114c0,0,21,-69,22,-159V399H233c0,0,0,-84,15,-143c0,0,15,-61,44,-99c0,0,28,-40,71,-57c0,0,40,-19,93,-19c1,0,2,0,4,0c0,0,38,0,73,9c0,0,33,9,62,24c0,0,26,14,48,34c0,0,21,18,35,40c0,0,10,-4,20,-19c0,0,9,-15,9,-33c0,0,0,-24,-16,-49c0,0,-17,-27,-50,-50C641,37,607,14,557,0c0,0,-50,-14,-118,-14Z" 
id="f0_g"
transform="scale(0.001,-0.001)" />

<path d="M43,0V64H55c0,0,26,0,49,4c0,0,23,3,40,16c0,0,16,11,27,32c0,0,10,21,10,58V650c0,0,0,33,-10,55c0,0,-11,20,-28,31c0,0,-17,11,-39,15c0,0,-24,3,-49,4H51v64H298L318,695h7c0,0,23,42,51,70c0,0,25,27,56,43c0,0,29,14,63,21c0,0,32,5,69,5c0,0,60,-1,108,-17c0,0,47,-18,81,-54c0,0,32,-37,50,-93c0,0,17,-58,18,-135V174c0,0,0,-37,9,-58c0,0,7,-21,23,-32c0,0,16,-13,38,-16c0,0,21,-4,47,-4h5V0H677V527c0,0,0,50,-9,89c0,0,-10,39,-29,66c0,0,-20,26,-52,41c0,0,-33,13,-78,13c0,0,-53,0,-88,-20c0,0,-36,-20,-57,-54c0,0,-22,-35,-31,-79c0,0,-10,-45,-9,-94V166c0,0,0,-33,10,-53c0,0,10,-22,27,-32c0,0,16,-10,40,-13c0,0,22,-4,48,-4h5V0Z" 
id="f0_n"
transform="scale(0.001,-0.001)" />

<path d="M351,-291c2,0,3,0,5,0c0,0,1,0,2,0c12,0,84,1,134,15c0,0,52,13,84,38c0,0,31,23,44,58c0,0,12,34,13,74c0,0,0,35,-10,59c0,0,-11,22,-30,35c0,0,-20,12,-49,17c0,0,-29,5,-67,5H327c0,0,-33,0,-62,-5c0,0,-31,-5,-54,-20c0,0,-24,-17,-38,-44c0,0,-15,-29,-14,-74c0,0,0,-34,9,-63c0,0,9,-29,31,-50c0,0,23,-22,61,-33c0,0,35,-12,91,-12Zm34,658c0,0,1,0,1,0c0,0,37,0,64,11c0,0,24,11,42,35c0,0,15,22,23,59c0,0,7,35,7,86c0,0,0,103,-31,152c0,0,-31,49,-106,49c0,0,-74,0,-105,-50c0,0,-33,-50,-32,-153c0,0,0,-98,32,-143c0,0,32,-46,105,-46ZM353,-366c-8,0,-162,1,-239,59c0,0,-80,59,-79,164c0,0,0,45,16,78c0,0,15,34,42,58c0,0,26,22,61,38c0,0,34,14,72,21c0,0,-16,7,-31,18c0,0,-14,11,-26,27c0,0,-13,16,-20,36c0,0,-8,20,-7,45c0,0,0,45,24,79c0,0,23,32,76,64c0,0,-33,13,-58,37c0,0,-27,23,-44,54c0,0,-18,30,-27,65c0,0,-10,36,-9,74c0,0,0,66,18,119c0,0,18,51,53,89c0,0,36,36,90,56c0,0,53,18,126,19c0,0,28,-1,54,-4c0,0,26,-4,50,-11c0,0,22,-8,41,-16c0,0,18,-9,29,-19c0,0,12,12,27,27c0,0,14,14,33,27c0,0,19,12,41,20c0,0,21,7,47,8c0,0,23,-1,40,-6c0,0,17,-7,28,-17c0,0,11,-11,17,-25c0,0,5,-15,5,-31c0,0,0,-17,-4,-31c0,0,-6,-15,-15,-25c0,0,-10,-12,-25,-17c0,0,-15,-7,-36,-7c0,0,0,9,-2,18c0,0,-3,9,-8,17c0,0,-6,7,-16,13c0,0,-10,4,-25,4c0,0,-19,0,-35,-4c0,0,-16,-5,-31,-14c0,0,26,-33,44,-76c0,0,16,-44,16,-109c0,0,-1,-57,-17,-105c0,0,-17,-48,-51,-82c0,0,-35,-36,-86,-56c0,0,-52,-19,-121,-19H348c0,0,-11,0,-21,1c0,0,-10,1,-15,3c0,0,-15,-9,-29,-17c0,0,-13,-9,-23,-20c0,0,-11,-11,-16,-25c0,0,-6,-15,-6,-32c0,0,-1,-19,7,-29c0,0,7,-12,20,-18c0,0,12,-7,30,-8c0,0,17,-2,38,-2H506c0,0,68,-1,116,-17c0,0,48,-17,78,-47c0,0,30,-32,44,-73c0,0,14,-41,14,-90c0,0,-1,-67,-24,-119c0,0,-25,-53,-75,-89c0,0,-50,-38,-126,-58c0,0,-77,-20,-180,-20Z" 
id="f0_r"
transform="scale(0.001,-0.001)" />

<path d="M367,-14c0,0,-59,0,-100,13c0,0,-42,10,-69,38c0,0,-27,27,-39,73c0,0,-14,45,-14,112V732H29v61c0,0,28,0,61,11c0,0,32,11,58,37c0,0,26,28,43,68c0,0,15,38,28,98h70V819H489V732H289V217c0,0,-1,-78,32,-115c0,0,30,-36,83,-36c0,0,1,0,1,0c0,0,2,0,6,0c9,0,28,0,45,3c0,0,23,3,47,7V9C503,9,492,4,477,0c0,0,-15,-3,-33,-6c0,0,-20,-5,-39,-6c0,0,-20,-2,-38,-2Z" 
id="f0_i"
transform="scale(0.001,-0.001)" />

<path d="M28,0V64H40c0,0,25,0,49,4c0,0,22,3,39,16c0,0,17,11,27,32c0,0,10,21,10,58V993c0,0,0,33,-10,54c0,0,-11,21,-27,32c0,0,-18,11,-40,15c0,0,-24,3,-48,3H28v64H308V825c0,0,0,-22,0,-43c0,0,-1,-24,-4,-43c0,0,0,-23,0,-44h6c0,0,68,139,225,139c0,0,65,-1,115,-17c0,0,50,-18,85,-54c0,0,34,-37,52,-93c0,0,18,-58,18,-135V174c0,0,0,-37,9,-58c0,0,9,-21,24,-32c0,0,16,-13,38,-16c0,0,21,-4,47,-4h4V0H662V527c0,0,0,50,-9,89c0,0,-10,39,-29,66c0,0,-20,26,-52,41c0,0,-33,13,-78,13c0,0,-49,0,-82,-17c0,0,-35,-18,-58,-50c0,0,-24,-33,-34,-78c0,0,-11,-46,-11,-102V166c0,0,0,-33,10,-53c0,0,10,-22,27,-32c0,0,17,-10,40,-13c0,0,22,-4,48,-4h5V0Z" 
id="f0_k"
transform="scale(0.001,-0.001)" />

<path d="M41,0V64H61c0,0,26,0,49,4c0,0,23,3,40,16c0,0,16,11,27,32c0,0,9,21,9,58V747H47v72H186v76c0,0,0,68,19,121c0,0,19,52,54,88c0,0,34,35,85,55c0,0,50,17,113,17c0,0,58,0,100,-7c0,0,41,-8,67,-22c0,0,24,-15,35,-34c0,0,12,-20,12,-43c0,0,0,-22,-9,-37c0,0,-11,-17,-26,-27c0,0,-18,-11,-40,-16c0,0,-24,-6,-51,-6c0,0,0,23,-4,45c0,0,-6,21,-17,39c0,0,-12,17,-31,28c0,0,-19,10,-48,10c0,0,-34,0,-55,-12c0,0,-22,-13,-36,-38c0,0,-13,-26,-18,-62c0,0,-6,-37,-6,-85V819H545V747H330V174c0,0,0,-37,10,-58c0,0,10,-21,27,-32c0,0,16,-13,40,-16c0,0,22,-4,48,-4h58V0Z" 
id="f0_f"
transform="scale(0.001,-0.001)" />

<path d="M365,0L119,674c0,0,-9,23,-18,39c0,0,-11,15,-23,26c0,0,-12,8,-29,12c0,0,-17,3,-39,4H6v64H388V755H369c0,0,-47,0,-69,-18c0,0,-24,-18,-23,-56c0,0,-1,-13,3,-25c0,0,3,-14,9,-31L392,336c0,0,10,-26,21,-58c0,0,9,-33,20,-65c0,0,8,-31,16,-59c0,0,7,-29,11,-47h5c0,0,3,16,12,41c0,0,8,23,20,53c0,0,10,27,22,58c0,0,11,29,22,57L650,614c0,0,8,19,12,36c0,0,3,16,3,30c0,0,0,38,-25,57c0,0,-26,18,-76,18H553v64H880V755H862c0,0,-23,0,-38,-5c0,0,-17,-6,-29,-18c0,0,-12,-14,-24,-37c0,0,-12,-24,-26,-59L504,0Z" 
id="f0_s"
transform="scale(0.001,-0.001)" />

<path d="M43,0V64H63c0,0,25,0,47,4c0,0,21,3,38,16c0,0,15,11,24,32c0,0,8,21,9,58V650c0,0,0,33,-9,55c0,0,-9,20,-25,31c0,0,-16,11,-37,15c0,0,-22,3,-47,4H58v64H298L318,695h7c0,0,23,42,49,70c0,0,25,27,54,43c0,0,28,14,61,21c0,0,31,5,67,5c0,0,36,0,71,-7c0,0,33,-9,62,-24c0,0,28,-17,52,-43c0,0,21,-27,36,-65h13c0,0,23,42,50,70c0,0,27,27,57,43c0,0,30,14,64,21c0,0,32,5,68,5c0,0,59,-1,105,-17c0,0,45,-18,78,-54c0,0,32,-37,49,-93c0,0,17,-58,18,-135V174c0,0,0,-37,9,-58c0,0,9,-21,24,-32c0,0,16,-13,37,-16c0,0,21,-4,47,-4h5V0H1135V527c0,0,0,50,-8,89c0,0,-9,39,-27,66c0,0,-21,26,-50,41c0,0,-32,13,-75,13c0,0,-48,0,-80,-18c0,0,-33,-19,-53,-50c0,0,-21,-31,-28,-72c0,0,-9,-42,-9,-87V174c0,0,0,-37,9,-58c0,0,9,-21,24,-32c0,0,16,-13,38,-16c0,0,21,-4,47,-4h4V0H662V527c0,0,-1,50,-9,89c0,0,-8,39,-27,66c0,0,-20,26,-50,41c0,0,-31,13,-75,13c0,0,-50,0,-83,-20c0,0,-35,-20,-55,-54c0,0,-22,-35,-30,-79c0,0,-9,-45,-9,-94V166c0,0,0,-33,10,-53c0,0,10,-22,27,-32c0,0,16,-10,40,-13c0,0,22,-4,48,-4h5V0Z" 
id="f0_5"
transform="scale(0.001,-0.001)" />

<path d="M35,0V64H55c0,0,25,0,49,4c0,0,22,3,39,13c0,0,17,10,28,32c0,0,10,20,10,53V650c0,0,0,33,-10,55c0,0,-11,20,-28,31c0,0,-17,11,-39,15c0,0,-24,3,-49,4H51v64H324V174c0,0,0,-37,10,-58c0,0,10,-21,27,-32c0,0,16,-13,40,-16c0,0,22,-4,48,-4h20V0ZM249,972c-1,0,-2,0,-3,0c0,0,-1,0,-2,0c-5,0,-20,0,-32,5c0,0,-16,5,-28,16c0,0,-12,11,-18,29c0,0,-7,18,-7,45c0,0,0,27,7,45c0,0,6,17,18,29c0,0,12,11,28,15c0,0,15,5,34,5c0,0,18,0,34,-5c0,0,15,-4,27,-15c0,0,11,-12,19,-29c0,0,7,-18,7,-45c0,0,0,-27,-7,-45c0,0,-8,-18,-19,-29c0,0,-12,-11,-27,-16c0,0,-14,-5,-31,-5Z" 
id="f0_9"
transform="scale(0.001,-0.001)" />

<path d="M51,0V64h4c0,0,26,0,49,4c0,0,23,3,40,16c0,0,16,11,27,32c0,0,10,21,10,58V650c0,0,0,33,-10,55c0,0,-11,20,-28,31c0,0,-17,11,-39,15c0,0,-24,3,-49,4H51v64H286L315,668h7c0,0,14,34,31,65c0,0,15,29,39,53c0,0,22,22,56,35c0,0,33,12,84,13c0,0,83,0,124,-29c0,0,41,-30,41,-82c0,0,0,-24,-8,-44c0,0,-9,-20,-25,-34c0,0,-17,-15,-44,-23c0,0,-27,-8,-66,-8c0,0,0,63,-18,92c0,0,-18,27,-62,27c0,0,-29,0,-51,-15c0,0,-22,-18,-39,-43c0,0,-17,-27,-28,-61c0,0,-13,-35,-19,-70c0,0,-8,-37,-10,-73c0,0,-4,-35,-3,-64V166c0,0,0,-33,10,-53c0,0,10,-22,27,-32c0,0,16,-10,40,-13c0,0,22,-4,48,-4h43V0Z" 
id="f0_3"
transform="scale(0.001,-0.001)" />

<path d="M46,-234v64c0,0,74,23,110,58c0,0,34,35,35,79c0,0,-1,15,-8,26c0,0,-9,8,-21,17c0,0,-13,6,-27,15c0,0,-15,7,-27,18c0,0,-13,9,-21,26c0,0,-8,14,-8,38c0,0,0,43,29,67c0,0,28,23,71,23c0,0,23,-1,45,-8c0,0,20,-9,37,-26c0,0,16,-17,26,-41c0,0,9,-27,9,-58c0,0,0,-48,-13,-93c0,0,-14,-46,-44,-84c0,0,-30,-40,-77,-70c0,0,-49,-31,-116,-51Z" 
id="f0_1m"
transform="scale(0.001,-0.001)" />

<path d="M58,0V64H78c0,0,25,0,49,4c0,0,22,3,39,16c0,0,17,11,27,32c0,0,10,21,10,58V917c0,0,0,36,-10,57c0,0,-10,21,-27,34c0,0,-17,11,-39,15c0,0,-24,3,-49,3H58v65H503v-65H483c0,0,-26,0,-49,-3c0,0,-24,-4,-39,-15c0,0,-18,-13,-27,-34c0,0,-11,-21,-11,-57V174c0,0,0,-37,11,-58c0,0,9,-21,27,-32c0,0,15,-13,39,-16c0,0,23,-4,49,-4h20V0Z" 
id="f0_12"
transform="scale(0.001,-0.001)" />

<path d="M421,83c0,0,59,0,100,20c0,0,39,19,65,60c0,0,23,39,34,101c0,0,10,61,10,144c0,0,0,79,-10,141c0,0,-11,61,-34,103c0,0,-25,41,-65,63c0,0,-41,21,-101,21c0,0,-51,0,-86,-21c0,0,-36,-23,-58,-64c0,0,-24,-42,-34,-103c0,0,-10,-62,-10,-141c0,0,0,-163,44,-244c0,0,43,-80,145,-80ZM395,-14c-8,0,-78,1,-133,24c0,0,-59,24,-98,77c0,0,-39,52,-60,132c0,0,-20,79,-20,189c0,0,0,110,20,191c0,0,21,80,60,133c0,0,39,51,98,77c0,0,58,25,133,25c0,0,44,0,80,-10c0,0,36,-10,65,-27c0,0,28,-18,51,-43c0,0,21,-24,39,-54h4c0,0,0,36,0,70c0,0,0,27,0,57c0,0,0,27,0,41V993c0,0,-1,33,-10,54c0,0,-11,21,-29,32c0,0,-18,11,-41,15c0,0,-24,3,-49,3H492v64H773V168c0,0,0,-34,10,-54c0,0,10,-21,27,-32c0,0,17,-11,40,-14c0,0,22,-4,48,-4h13V0H652L636,137h-6c0,0,-18,-35,-39,-62c0,0,-23,-29,-51,-48C540,27,512,6,476,-3c0,0,-36,-11,-81,-11Z" 
id="f0_q"
transform="scale(0.001,-0.001)" />

<path d="M321,-14c0,0,-58,0,-104,11c0,0,-48,7,-80,29c0,0,-33,20,-50,51c0,0,-18,30,-18,70c0,0,0,30,10,51c0,0,10,20,25,33c0,0,14,11,31,17c0,0,16,4,30,4c0,0,0,-41,8,-75c0,0,8,-36,28,-61c0,0,18,-28,51,-42c0,0,31,-16,78,-16c0,0,41,0,72,11c0,0,31,9,53,28c0,0,21,18,32,44c0,0,11,25,11,56c0,0,0,28,-8,49c0,0,-9,20,-30,38c0,0,-21,17,-58,37c0,0,-37,18,-92,42c0,0,-59,26,-102,51c0,0,-45,23,-72,52c0,0,-29,28,-43,65c0,0,-15,35,-14,86c0,0,-1,52,21,92c0,0,20,40,58,68c0,0,38,26,91,41c0,0,52,15,118,15c0,0,54,0,96,-12c0,0,41,-11,70,-30c0,0,28,-19,43,-44c0,0,14,-27,14,-55c0,0,-1,-42,-28,-66c0,0,-29,-25,-80,-25c-1,0,-2,0,-2,0c0,0,0,76,-32,119c0,0,-32,42,-100,42c0,0,-39,0,-66,-9c0,0,-28,-9,-45,-25c0,0,-18,-17,-26,-39c0,0,-8,-22,-8,-49c0,0,0,-29,10,-50c0,0,10,-22,34,-39c0,0,22,-18,59,-35c0,0,36,-17,86,-38c0,0,60,-26,104,-50c0,0,43,-24,72,-54c0,0,27,-29,41,-65c0,0,13,-37,13,-84c0,0,-1,-60,-21,-105c0,0,-23,-45,-62,-74C539,46,499,14,445,0c0,0,-56,-14,-124,-14Z" 
id="f0_l"
transform="scale(0.001,-0.001)" />

<path d="M99,350v90H755V350Zm0,300v91H755V650Z" 
id="f0_13"
transform="scale(0.001,-0.001)" />

<path d="M254,-12L147,674c0,0,-13,81,-106,81H26l12,64H267L338,367c0,0,27,-174,35,-271h4c0,0,114,110,198,257c0,0,84,146,84,235c0,0,-1,54,-26,85c0,0,-27,31,-69,31c0,0,-1,55,30,89c0,0,30,34,74,34c0,0,103,0,103,-142c0,0,0,-139,-105,-325C666,360,559,173,391,1L254,-12Z" 
id="f1_5"
transform="scale(0.001,-0.001)" />

<path d="M229,0V64h35c0,0,25,0,49,4c0,0,22,3,39,13c0,0,17,10,28,32c0,0,9,20,9,53v849H243c0,0,-33,0,-56,-10c0,0,-24,-11,-37,-28c0,0,-15,-17,-22,-39c0,0,-8,-24,-10,-49l-8,-65H34v267H902V824H827l-8,65c0,0,-4,25,-10,49c0,0,-9,22,-22,39c0,0,-15,17,-37,28c0,0,-24,10,-58,10H544V174c0,0,0,-37,10,-58c0,0,10,-21,27,-32c0,0,16,-13,40,-16c0,0,22,-4,48,-4h35V0Z" 
id="f0_1g"
transform="scale(0.001,-0.001)" />

<path d="M518,83c0,0,50,0,86,21c0,0,35,21,58,63c0,0,23,41,33,104c0,0,10,61,11,142c0,0,-1,80,-11,142c0,0,-10,60,-33,101c0,0,-23,40,-58,60c0,0,-38,20,-88,20c0,0,-60,0,-99,-19c0,0,-41,-20,-64,-61c0,0,-24,-40,-34,-101c0,0,-10,-62,-10,-144c0,0,0,-80,10,-141c0,0,10,-62,35,-103c0,0,23,-42,64,-63c0,0,39,-21,100,-21Zm27,-97c-1,0,-2,0,-3,0h-2c-8,0,-46,1,-77,10c0,0,-37,8,-65,26c0,0,-29,18,-50,43c0,0,-23,24,-39,54H299L272,0H28V64H40c0,0,25,0,49,4c0,0,22,3,39,16c0,0,17,11,27,32c0,0,10,21,10,58V993c0,0,0,33,-10,54c0,0,-11,21,-27,32c0,0,-18,11,-40,15c0,0,-24,3,-48,3H28v64H306V880c0,0,0,-26,0,-59c0,0,0,-35,0,-66c0,0,0,-36,0,-74h3c0,0,16,34,39,63c0,0,21,28,50,49c0,0,27,19,64,31c0,0,36,9,80,10c0,0,75,0,134,-25c0,0,58,-26,98,-76c0,0,38,-53,60,-132c0,0,20,-80,20,-190c0,0,0,-111,-20,-191c0,0,-22,-80,-60,-133c0,0,-40,-53,-98,-77c0,0,-57,-24,-131,-24Z" 
id="f0_u"
transform="scale(0.001,-0.001)" />

<path d="M417,-14c0,0,-60,0,-107,16c0,0,-47,17,-79,54c0,0,-33,36,-49,93c0,0,-17,57,-17,135V650c0,0,0,33,-10,55c0,0,-11,20,-27,31c0,0,-18,11,-40,15c0,0,-24,3,-48,4H35v64H309V292c0,0,0,-51,8,-89c0,0,7,-40,26,-66c0,0,18,-27,49,-40c0,0,29,-14,74,-14c1,0,2,0,3,0c0,0,50,0,88,18c0,0,35,18,59,50c0,0,23,32,34,78c0,0,12,46,12,101V645c0,0,0,35,-10,58c0,0,-10,21,-27,33c0,0,-17,11,-39,15c0,0,-24,3,-50,4h-4v64H805V166c0,0,0,-33,10,-53c0,0,10,-22,27,-32c0,0,17,-10,41,-13c0,0,21,-4,47,-4h5V0H692L672,124h-7c0,0,-24,-44,-51,-70c0,0,-28,-28,-60,-42c0,0,-31,-15,-65,-20c0,0,-35,-6,-72,-6Z" 
id="f0_j"
transform="scale(0.001,-0.001)" />

<path d="M223,-9c-1,0,-2,0,-3,0c0,0,-1,0,-2,0c-6,0,-22,0,-35,5c0,0,-19,4,-31,16c0,0,-13,12,-21,32c0,0,-8,20,-7,49c0,0,-1,30,7,50c0,0,8,19,21,32c0,0,12,11,31,17c0,0,16,5,37,5c0,0,19,0,37,-5c0,0,17,-6,31,-17c0,0,12,-13,21,-32c0,0,7,-20,7,-50c0,0,0,-29,-7,-49c0,0,-9,-20,-21,-32C288,12,274,0,257,-4c0,0,-16,-5,-34,-5Zm0,627c-1,0,-2,0,-3,0c0,0,-1,0,-2,0c-6,0,-22,1,-35,6c0,0,-19,5,-31,18c0,0,-13,11,-21,32c0,0,-8,20,-7,49c0,0,-1,30,7,50c0,0,8,18,21,31c0,0,12,11,31,17c0,0,16,6,37,6c0,0,19,0,37,-6c0,0,17,-6,31,-17c0,0,12,-13,21,-31c0,0,7,-20,7,-50c0,0,0,-29,-7,-49c0,0,-9,-21,-21,-32c0,0,-14,-13,-31,-18c0,0,-16,-6,-34,-6Z" 
id="f0_1r"
transform="scale(0.001,-0.001)" />

<path d="M518,83c0,0,50,0,86,21c0,0,35,21,58,63c0,0,23,41,33,104c0,0,10,61,11,142c0,0,-1,80,-11,142c0,0,-10,60,-33,101c0,0,-23,40,-58,60c0,0,-38,20,-88,20c0,0,-60,0,-99,-19c0,0,-41,-20,-64,-61c0,0,-24,-40,-34,-101c0,0,-10,-62,-10,-144c0,0,0,-80,10,-141c0,0,10,-62,35,-103c0,0,23,-42,64,-63c0,0,39,-21,100,-21ZM28,-366v64H40c0,0,25,0,49,4c0,0,22,3,39,16c0,0,17,11,27,33c0,0,10,21,10,58V650c0,0,0,33,-10,55c0,0,-11,20,-27,31c0,0,-18,11,-40,15c0,0,-24,3,-48,4H20v64H287L303,681h6c0,0,16,34,39,63c0,0,21,28,50,49c0,0,27,19,64,31c0,0,36,9,80,10c0,0,75,0,134,-25c0,0,58,-26,98,-76c0,0,38,-53,60,-132c0,0,20,-80,20,-190c0,0,0,-111,-20,-191c0,0,-22,-80,-60,-133c0,0,-40,-53,-98,-77c0,0,-57,-24,-131,-24c-1,0,-2,0,-3,0h-2c-8,0,-46,1,-77,10c0,0,-37,8,-65,26c0,0,-29,18,-50,43c0,0,-23,24,-39,54h-3c0,0,0,-39,0,-73c0,0,0,-15,0,-30c0,0,0,-15,0,-28c0,0,0,-14,0,-24c0,0,0,-11,0,-17V-199c0,0,0,-33,10,-54c0,0,10,-21,28,-31c0,0,17,-11,41,-14c0,0,23,-4,49,-4h5v-64Z" 
id="f0_h"
transform="scale(0.001,-0.001)" />

<path d="M377,-14c-2,0,-3,0,-4,0c0,0,-86,0,-140,14c0,0,-57,14,-89,37c0,0,-33,21,-46,50c0,0,-14,26,-14,52c0,0,0,42,24,66c0,0,23,23,73,24c0,0,-1,-34,11,-61c0,0,11,-28,35,-49c0,0,22,-21,57,-32c0,0,33,-12,77,-12c1,0,2,0,4,0c0,0,47,0,87,13c0,0,39,12,69,43c0,0,29,29,46,80c0,0,16,49,16,122c0,0,0,60,-16,105c0,0,-17,44,-47,74c0,0,-31,30,-73,45c0,0,-43,14,-96,14c0,0,-40,0,-68,-3c0,0,-29,-3,-50,-7c0,0,-23,-6,-39,-11c0,0,-17,-7,-31,-12l-36,10l49,541H690V859H630l-6,45c0,0,-3,16,-6,28c0,0,-5,12,-14,20c0,0,-9,7,-24,11c0,0,-16,3,-39,4H245L216,631c0,0,23,8,67,17c0,0,42,7,111,8c0,0,74,0,138,-20c0,0,63,-21,110,-61c0,0,47,-40,74,-101c0,0,26,-61,26,-141c0,0,0,-79,-24,-142c0,0,-26,-64,-73,-110C645,81,597,35,529,10c0,0,-67,-24,-152,-24Z" 
id="f0_1h"
transform="scale(0.001,-0.001)" />

<path d="M501,385V668c0,0,0,33,0,74c0,0,0,40,0,82c0,0,0,41,0,83c0,0,0,41,6,77c0,0,-6,-11,-15,-28c0,0,-10,-18,-21,-39c0,0,-13,-23,-26,-46c0,0,-15,-24,-28,-46c0,0,-15,-24,-26,-42c0,0,-13,-21,-21,-34L136,385ZM328,0V64h43c0,0,26,0,50,4c0,0,22,3,39,16c0,0,17,11,27,32c0,0,10,21,10,58V299H26v63l472,729H643V385H833V299H643V174c0,0,0,-37,10,-58c0,0,10,-21,27,-32c0,0,16,-13,40,-16c0,0,22,-4,48,-4h21V0Z" 
id="f0_1i"
transform="scale(0.001,-0.001)" />

<path d="M315,0L115,674c0,0,-9,23,-19,39c0,0,-10,15,-22,26c0,0,-13,8,-29,12c0,0,-17,3,-39,4H1v64H379V755H359c0,0,-46,0,-69,-13c0,0,-24,-15,-23,-51c0,0,0,-13,5,-31c0,0,3,-18,8,-35L351,369c0,0,8,-29,16,-61c0,0,7,-33,16,-65c0,0,6,-33,12,-61c0,0,6,-29,10,-48h5c0,0,3,19,10,46c0,0,5,24,15,55c0,0,7,29,18,60c0,0,9,30,19,58L631,815h96L880,362c0,0,9,-29,20,-59c0,0,9,-33,18,-63c0,0,9,-31,17,-59c0,0,7,-28,11,-47h4c0,0,7,38,22,94c0,0,14,55,38,129l76,247c0,0,5,18,11,41c0,0,3,21,3,35c0,0,0,38,-24,57c0,0,-26,18,-77,18H988v64h327V755h-19c0,0,-23,0,-39,-5c0,0,-17,-5,-29,-17c0,0,-14,-13,-25,-36c0,0,-11,-24,-22,-61L984,0H862L680,538L652,639L436,0Z" 
id="f0_10"
transform="scale(0.001,-0.001)" />

<path d="M58,-366v72h1c8,0,79,1,133,23c0,0,55,24,97,64c0,0,39,40,68,95c0,0,26,55,45,118L119,674c0,0,-10,23,-20,39c0,0,-10,14,-21,25c0,0,-13,9,-29,13c0,0,-17,3,-39,4H6v64H373V755h-4c0,0,-47,0,-69,-18c0,0,-24,-18,-23,-56c0,0,-1,-13,3,-25c0,0,2,-14,9,-31L401,353c0,0,9,-27,22,-57c0,0,11,-31,22,-61c0,0,9,-31,18,-57c0,0,7,-28,11,-47h4c0,0,8,34,23,82c0,0,14,48,34,103L637,614c0,0,7,19,11,36c0,0,2,16,2,30c0,0,0,38,-24,57c0,0,-26,18,-76,18h-5v64H863V755h-4c0,0,-23,0,-38,-5c0,0,-18,-6,-30,-18c0,0,-13,-14,-24,-37c0,0,-11,-24,-25,-59L510,-5c0,0,-27,-74,-50,-130c0,0,-25,-56,-50,-95c0,0,-27,-41,-57,-67c0,0,-32,-26,-71,-41c0,0,-40,-17,-91,-22c0,0,-51,-6,-119,-6Z" 
id="f0_e"
transform="scale(0.001,-0.001)" />

<path d="M222,-9c-1,0,-2,0,-3,0c0,0,-1,0,-3,0c-6,0,-22,0,-35,5c0,0,-18,4,-30,16c0,0,-14,12,-21,32c0,0,-8,20,-8,49c0,0,0,30,8,50c0,0,7,19,21,32c0,0,12,11,30,17c0,0,17,5,38,5c0,0,18,0,37,-5c0,0,16,-6,30,-17c0,0,12,-13,21,-32c0,0,8,-20,8,-50c0,0,0,-29,-8,-49c0,0,-9,-20,-21,-32C286,12,272,0,256,-4c0,0,-17,-5,-34,-5Z" 
id="f0_v"
transform="scale(0.001,-0.001)" />

<path d="M133,732L87,1091H249L203,732Z" 
id="f0_1o"
transform="scale(0.001,-0.001)" />

<path d="M494,385V878L152,385ZM494,0V262H20V385l498,708H628V385H775V262H628V0Z" 
id="f2_o"
transform="scale(0.001,-0.001)" />

<path d="M420,489c0,0,93,0,153,65c0,0,60,65,60,181c0,0,0,116,-62,184c0,0,-61,68,-148,68c0,0,-90,0,-156,-74c0,0,-66,-73,-66,-189c0,0,0,-105,63,-170c0,0,63,-65,156,-65ZM391,-18c0,0,-128,0,-209,71c0,0,-82,71,-98,200l129,12c0,0,17,-91,63,-132c0,0,46,-41,118,-41c0,0,62,0,109,28c0,0,47,29,76,76c0,0,30,47,50,128c0,0,20,80,20,164c0,0,0,9,-1,27c0,0,-40,-65,-110,-105c0,0,-69,-39,-151,-39c0,0,-135,0,-229,98c0,0,-94,99,-94,260c0,0,0,166,98,268c0,0,98,101,245,101c0,0,107,0,195,-57c0,0,89,-58,134,-164c0,0,46,-106,46,-308c0,0,0,-209,-45,-334C737,235,691,111,602,46c0,0,-90,-64,-211,-64Z" 
id="f2_t"
transform="scale(0.001,-0.001)" />


</defs>
</svg>