<?xml version="1.0" encoding="UTF-8" standalone="no"?>
<!DOCTYPE svg PUBLIC "-//W3C//DTD SVG 1.1//EN"
"http://www.w3.org/Graphics/SVG/1.1/DTD/svg11.dtd">
<svg viewBox="0 0 909 1286" version="1.1" xmlns="http://www.w3.org/2000/svg" xmlns:xlink="http://www.w3.org/1999/xlink">
<defs>
<clipPath id="c0_299"><path d="M35.1,1194.7V113.1H873.9V1194.7Z" /></clipPath>
</defs>
<image preserveAspectRatio="none" x="47" y="116" width="179" height="29" xlink:href="img/1.png" />
<g clip-path="url(#c0_299)">
<g fill="#000000" >
<use xlink:href="#f0_11" transform="matrix(12,0,0,12,47.4,186.4)" />
</g>
</g>
<image preserveAspectRatio="none" x="63" y="165" width="105" height="34" xlink:href="img/2.png" />
<g clip-path="url(#c0_299)">
<g fill="#000000" >
<use xlink:href="#f0_m" transform="matrix(12,0,0,12,172.5,186.4)" />
<use xlink:href="#f0_11" transform="matrix(12,0,0,12,47.4,239.9)" />
<use xlink:href="#f0_1z" transform="matrix(12,0,0,12,62.4,239.9)" />
<use xlink:href="#f0_w" transform="matrix(12,0,0,12,77.3,239.9)" />
<use xlink:href="#f0_18" transform="matrix(12,0,0,12,94.7,239.9)" />
<use xlink:href="#f0_l" transform="matrix(12,0,0,12,47.4,290.3)" />
<use xlink:href="#f0_k" transform="matrix(12,0,0,12,58.6,290.3)" />
<use xlink:href="#f0_9" transform="matrix(12,0,0,12,70.2,290.3)" />
<use xlink:href="#f0_v" transform="matrix(12,0,0,12,84.8,290.3)" />
<use xlink:href="#f0_i" transform="matrix(12,0,0,12,96,290.3)" />
<use xlink:href="#f0_t" transform="matrix(12,0,0,12,106.6,290.3)" />
<use xlink:href="#f0_3" transform="matrix(12,0,0,12,112.3,290.3)" />
<use xlink:href="#f0_a" transform="matrix(12,0,0,12,122.6,290.3)" />
<use xlink:href="#f0_b" transform="matrix(12,0,0,12,131.2,290.3)" />
<use xlink:href="#f0_h" transform="matrix(12,0,0,12,137,290.3)" />
<use xlink:href="#f0_p" transform="matrix(12,0,0,12,143.5,290.3)" />
<use xlink:href="#f0_i" transform="matrix(12,0,0,12,158.6,290.3)" />
<use xlink:href="#f0_n" transform="matrix(12,0,0,12,169.2,290.3)" />
<use xlink:href="#f0_h" transform="matrix(12,0,0,12,180.7,290.3)" />
<use xlink:href="#f0_k" transform="matrix(12,0,0,12,187.1,290.3)" />
<use xlink:href="#f0_9" transform="matrix(12,0,0,12,198.7,290.3)" />
<use xlink:href="#f0_b" transform="matrix(12,0,0,12,213.3,290.3)" />
<use xlink:href="#f0_7" transform="matrix(12,0,0,12,219.1,290.3)" />
<use xlink:href="#f0_z" transform="matrix(12,0,0,12,231,290.3)" />
<use xlink:href="#f0_g" transform="matrix(12,0,0,12,242.2,290.3)" />
<use xlink:href="#f0_f" transform="matrix(12,0,0,12,253.8,290.3)" />
<use xlink:href="#f0_9" transform="matrix(12,0,0,12,262.8,290.3)" />
<use xlink:href="#f0_z" transform="matrix(12,0,0,12,272.7,290.3)" />
<use xlink:href="#f0_9" transform="matrix(12,0,0,12,288.7,290.3)" />
<use xlink:href="#f0_w" transform="matrix(12,0,0,12,298.5,290.3)" />
<use xlink:href="#f0_n" transform="matrix(12,0,0,12,315.8,290.3)" />
<use xlink:href="#f0_b" transform="matrix(12,0,0,12,327.3,290.3)" />
<use xlink:href="#f0_8" transform="matrix(12,0,0,12,333.1,290.3)" />
<use xlink:href="#f0_8" transform="matrix(12,0,0,12,346.1,290.3)" />
<use xlink:href="#f0_g" transform="matrix(12,0,0,12,354.4,290.3)" />
<use xlink:href="#f0_f" transform="matrix(12,0,0,12,366,290.3)" />
<use xlink:href="#f0_k" transform="matrix(12,0,0,12,375,290.3)" />
<use xlink:href="#f0_h" transform="matrix(12,0,0,12,391.4,290.3)" />
<use xlink:href="#f0_k" transform="matrix(12,0,0,12,397.9,290.3)" />
<use xlink:href="#f0_3" transform="matrix(12,0,0,12,409.5,290.3)" />
<use xlink:href="#f0_h" transform="matrix(12,0,0,12,419.8,290.3)" />
<use xlink:href="#f0_9" transform="matrix(12,0,0,12,431,290.3)" />
<use xlink:href="#f0_7" transform="matrix(12,0,0,12,440.8,290.3)" />
<use xlink:href="#f0_z" transform="matrix(12,0,0,12,452.6,290.3)" />
<use xlink:href="#f1_k" transform="matrix(12,0,0,12,468.6,290.3)" />
<use xlink:href="#f0_8" transform="matrix(12,0,0,12,484.7,290.3)" />
<use xlink:href="#f0_k" transform="matrix(12,0,0,12,493,290.3)" />
<use xlink:href="#f0_i" transform="matrix(12,0,0,12,504.6,290.3)" />
<use xlink:href="#f0_j" transform="matrix(12,0,0,12,515.2,290.3)" />
<use xlink:href="#f0_8" transform="matrix(12,0,0,12,531,290.3)" />
<use xlink:href="#f0_v" transform="matrix(12,0,0,12,544,290.3)" />
<use xlink:href="#f0_i" transform="matrix(12,0,0,12,555.2,290.3)" />
<use xlink:href="#f0_8" transform="matrix(12,0,0,12,565.8,290.3)" />
<use xlink:href="#f0_b" transform="matrix(12,0,0,12,574.1,290.3)" />
<use xlink:href="#f0_h" transform="matrix(12,0,0,12,579.9,290.3)" />
<use xlink:href="#f0_b" transform="matrix(12,0,0,12,586.4,290.3)" />
<use xlink:href="#f0_m" transform="matrix(12,0,0,12,592.2,290.3)" />
<use xlink:href="#f0_9" transform="matrix(12,0,0,12,602.8,290.3)" />
<use xlink:href="#f0_j" transform="matrix(12,0,0,12,617.4,290.3)" />
<use xlink:href="#f0_k" transform="matrix(12,0,0,12,633.1,290.3)" />
<use xlink:href="#f0_b" transform="matrix(12,0,0,12,644.8,290.3)" />
<use xlink:href="#f0_t" transform="matrix(12,0,0,12,650.6,290.3)" />
<use xlink:href="#f0_9" transform="matrix(12,0,0,12,656.3,290.3)" />
<use xlink:href="#f0_9" transform="matrix(12,0,0,12,670.9,290.3)" />
<use xlink:href="#f0_7" transform="matrix(12,0,0,12,680.7,290.3)" />
<use xlink:href="#f0_z" transform="matrix(12,0,0,12,692.5,290.3)" />
<use xlink:href="#f1_i" transform="matrix(12,0,0,12,708.5,290.3)" />
<use xlink:href="#f0_8" transform="matrix(12,0,0,12,726.8,290.3)" />
<use xlink:href="#f0_k" transform="matrix(12,0,0,12,735.1,290.3)" />
<use xlink:href="#f0_i" transform="matrix(12,0,0,12,746.7,290.3)" />
<use xlink:href="#f0_j" transform="matrix(12,0,0,12,757.3,290.3)" />
<use xlink:href="#f0_8" transform="matrix(12,0,0,12,773.1,290.3)" />
<use xlink:href="#f0_7" transform="matrix(12,0,0,12,786.1,290.3)" />
<use xlink:href="#f0_9" transform="matrix(12,0,0,12,797.9,290.3)" />
<use xlink:href="#f0_y" transform="matrix(12,0,0,12,807.7,290.3)" />
<use xlink:href="#f0_3" transform="matrix(12,0,0,12,817.6,290.3)" />
<use xlink:href="#f0_h" transform="matrix(12,0,0,12,827.9,290.3)" />
<use xlink:href="#f0_b" transform="matrix(12,0,0,12,834.3,290.3)" />
<use xlink:href="#f0_m" transform="matrix(12,0,0,12,840.2,290.3)" />
<use xlink:href="#f0_9" transform="matrix(12,0,0,12,850.8,290.3)" />
<use xlink:href="#f0_9" transform="matrix(12,0,0,12,47.4,322.4)" />
<use xlink:href="#f0_7" transform="matrix(12,0,0,12,57.2,322.4)" />
<use xlink:href="#f0_z" transform="matrix(12,0,0,12,69,322.4)" />
<use xlink:href="#f0_8" transform="matrix(12,0,0,12,80.2,322.4)" />
<use xlink:href="#f0_q" transform="matrix(12,0,0,12,88.5,322.4)" />
<use xlink:href="#f2_11" transform="matrix(12,0,0,12,47.4,372.8)" />
<use xlink:href="#f2_18" transform="matrix(12,0,0,12,54.7,372.8)" />
<use xlink:href="#f2_12" transform="matrix(12,0,0,12,66.6,372.8)" />
<use xlink:href="#f0_21" transform="matrix(12,0,0,12,78.7,372.8)" />
<use xlink:href="#f0_9" transform="matrix(12,0,0,12,90.1,372.8)" />
<use xlink:href="#f0_8" transform="matrix(12,0,0,12,99.9,372.8)" />
<use xlink:href="#f0_20" transform="matrix(12,0,0,12,108.2,372.8)" />
<use xlink:href="#f0_j" transform="matrix(12,0,0,12,117.5,372.8)" />
<use xlink:href="#f0_k" transform="matrix(12,0,0,12,133.3,372.8)" />
<use xlink:href="#f0_9" transform="matrix(12,0,0,12,144.9,372.8)" />
<use xlink:href="#f0_7" transform="matrix(12,0,0,12,154.7,372.8)" />
<use xlink:href="#f0_u" transform="matrix(12,0,0,12,171.3,372.8)" />
<use xlink:href="#f0_9" transform="matrix(12,0,0,12,182,372.8)" />
<use xlink:href="#f0_p" transform="matrix(12,0,0,12,191.8,372.8)" />
<use xlink:href="#f0_22" transform="matrix(12,0,0,12,206.9,372.8)" />
<use xlink:href="#f0_b" transform="matrix(12,0,0,12,224.5,372.8)" />
<use xlink:href="#f0_8" transform="matrix(12,0,0,12,230.3,372.8)" />
<use xlink:href="#f0_f" transform="matrix(12,0,0,12,243.3,372.8)" />
<use xlink:href="#f0_t" transform="matrix(12,0,0,12,252.4,372.8)" />
<use xlink:href="#f0_i" transform="matrix(12,0,0,12,258,372.8)" />
<use xlink:href="#f0_8" transform="matrix(12,0,0,12,268.6,372.8)" />
<use xlink:href="#f0_9" transform="matrix(12,0,0,12,276.9,372.8)" />
<use xlink:href="#f0_z" transform="matrix(12,0,0,12,286.7,372.8)" />
<use xlink:href="#f0_16" transform="matrix(12,0,0,12,297.9,372.8)" />
<use xlink:href="#f0_9" transform="matrix(12,0,0,12,307.3,372.8)" />
<use xlink:href="#f0_x" transform="matrix(12,0,0,12,317.1,372.8)" />
<use xlink:href="#f0_f" transform="matrix(12,0,0,12,327.7,372.8)" />
<use xlink:href="#f0_9" transform="matrix(12,0,0,12,336.7,372.8)" />
<use xlink:href="#f0_8" transform="matrix(12,0,0,12,346.5,372.8)" />
<use xlink:href="#f0_8" transform="matrix(12,0,0,12,354.8,372.8)" />
<use xlink:href="#f0_f" transform="matrix(12,0,0,12,367.8,372.8)" />
<use xlink:href="#f0_k" transform="matrix(12,0,0,12,376.8,372.8)" />
<use xlink:href="#f0_3" transform="matrix(12,0,0,12,388.4,372.8)" />
<use xlink:href="#f0_a" transform="matrix(12,0,0,12,398.7,372.8)" />
<use xlink:href="#f0_y" transform="matrix(12,0,0,12,407.4,372.8)" />
<use xlink:href="#f0_9" transform="matrix(12,0,0,12,417.2,372.8)" />
<use xlink:href="#f0_b" transform="matrix(12,0,0,12,431.8,372.8)" />
<use xlink:href="#f0_8" transform="matrix(12,0,0,12,437.6,372.8)" />
<use xlink:href="#f0_w" transform="matrix(12,0,0,12,450.6,372.8)" />
<use xlink:href="#f0_3" transform="matrix(12,0,0,12,468,372.8)" />
<use xlink:href="#f0_b" transform="matrix(12,0,0,12,478.3,372.8)" />
<use xlink:href="#f0_7" transform="matrix(12,0,0,12,484.1,372.8)" />
<use xlink:href="#f0_h" transform="matrix(12,0,0,12,495.9,372.8)" />
<use xlink:href="#f0_3" transform="matrix(12,0,0,12,502.4,372.8)" />
<use xlink:href="#f0_b" transform="matrix(12,0,0,12,512.7,372.8)" />
<use xlink:href="#f0_7" transform="matrix(12,0,0,12,518.5,372.8)" />
<use xlink:href="#f0_9" transform="matrix(12,0,0,12,530.4,372.8)" />
<use xlink:href="#f0_z" transform="matrix(12,0,0,12,540.2,372.8)" />
<use xlink:href="#f0_r" transform="matrix(12,0,0,12,556.2,372.8)" />
<use xlink:href="#f0_p" transform="matrix(12,0,0,12,567.4,372.8)" />
<use xlink:href="#f0_h" transform="matrix(12,0,0,12,582.5,372.8)" />
<use xlink:href="#f0_k" transform="matrix(12,0,0,12,588.9,372.8)" />
<use xlink:href="#f0_9" transform="matrix(12,0,0,12,600.6,372.8)" />
<use xlink:href="#f0_f" transform="matrix(12,0,0,12,615.1,372.8)" />
<use xlink:href="#f0_i" transform="matrix(12,0,0,12,624.1,372.8)" />
<use xlink:href="#f0_7" transform="matrix(12,0,0,12,634.7,372.8)" />
<use xlink:href="#f0_h" transform="matrix(12,0,0,12,646.5,372.8)" />
<use xlink:href="#f0_b" transform="matrix(12,0,0,12,653,372.8)" />
<use xlink:href="#f0_7" transform="matrix(12,0,0,12,658.8,372.8)" />
<use xlink:href="#f0_g" transform="matrix(12,0,0,12,670.6,372.8)" />
<use xlink:href="#f0_i" transform="matrix(12,0,0,12,682.3,372.8)" />
<use xlink:href="#f0_g" transform="matrix(12,0,0,12,692.8,372.8)" />
<use xlink:href="#f0_8" transform="matrix(12,0,0,12,704.5,372.8)" />
<use xlink:href="#f0_n" transform="matrix(12,0,0,12,717.5,372.8)" />
<use xlink:href="#f0_t" transform="matrix(12,0,0,12,724.2,372.8)" />
<use xlink:href="#f0_i" transform="matrix(12,0,0,12,729.9,372.8)" />
<use xlink:href="#f0_j" transform="matrix(12,0,0,12,740.5,372.8)" />
<use xlink:href="#f0_i" transform="matrix(12,0,0,12,761,372.8)" />
<use xlink:href="#f0_n" transform="matrix(12,0,0,12,771.6,372.8)" />
<use xlink:href="#f0_f" transform="matrix(12,0,0,12,783.1,372.8)" />
<use xlink:href="#f0_g" transform="matrix(12,0,0,12,792.1,372.8)" />
<use xlink:href="#f0_a" transform="matrix(12,0,0,12,803.8,372.8)" />
<use xlink:href="#f0_a" transform="matrix(12,0,0,12,812.4,372.8)" />
<use xlink:href="#f0_9" transform="matrix(12,0,0,12,821,372.8)" />
<use xlink:href="#f0_7" transform="matrix(12,0,0,12,830.8,372.8)" />
<use xlink:href="#f0_h" transform="matrix(12,0,0,12,842.6,372.8)" />
<use xlink:href="#f0_q" transform="matrix(12,0,0,12,849.1,372.8)" />
<use xlink:href="#f0_13" transform="matrix(12,0,0,12,47.4,423.2)" />
<use xlink:href="#f0_k" transform="matrix(12,0,0,12,66.6,423.2)" />
<use xlink:href="#f0_9" transform="matrix(12,0,0,12,78.2,423.2)" />
<use xlink:href="#f0_7" transform="matrix(12,0,0,12,88,423.2)" />
<use xlink:href="#f0_u" transform="matrix(12,0,0,12,104.6,423.2)" />
<use xlink:href="#f0_9" transform="matrix(12,0,0,12,115.3,423.2)" />
<use xlink:href="#f0_p" transform="matrix(12,0,0,12,125.1,423.2)" />
<use xlink:href="#f0_22" transform="matrix(12,0,0,12,140.2,423.2)" />
<use xlink:href="#f0_b" transform="matrix(12,0,0,12,157.7,423.2)" />
<use xlink:href="#f0_8" transform="matrix(12,0,0,12,163.6,423.2)" />
<use xlink:href="#f0_i" transform="matrix(12,0,0,12,176.6,423.2)" />
<use xlink:href="#f0_v" transform="matrix(12,0,0,12,187.2,423.2)" />
<use xlink:href="#f0_9" transform="matrix(12,0,0,12,198.4,423.2)" />
<use xlink:href="#f0_7" transform="matrix(12,0,0,12,208.2,423.2)" />
<use xlink:href="#f0_16" transform="matrix(12,0,0,12,220,423.2)" />
<use xlink:href="#f0_h" transform="matrix(12,0,0,12,229.4,423.2)" />
<use xlink:href="#f0_k" transform="matrix(12,0,0,12,235.8,423.2)" />
<use xlink:href="#f0_9" transform="matrix(12,0,0,12,247.4,423.2)" />
<use xlink:href="#f0_a" transform="matrix(12,0,0,12,257.3,423.2)" />
<use xlink:href="#f0_9" transform="matrix(12,0,0,12,265.9,423.2)" />
<use xlink:href="#f0_b" transform="matrix(12,0,0,12,280.4,423.2)" />
<use xlink:href="#f0_8" transform="matrix(12,0,0,12,286.3,423.2)" />
<use xlink:href="#f0_9" transform="matrix(12,0,0,12,299.3,423.2)" />
<use xlink:href="#f0_x" transform="matrix(12,0,0,12,309.1,423.2)" />
<use xlink:href="#f0_f" transform="matrix(12,0,0,12,319.7,423.2)" />
<use xlink:href="#f0_9" transform="matrix(12,0,0,12,328.7,423.2)" />
<use xlink:href="#f0_8" transform="matrix(12,0,0,12,338.5,423.2)" />
<use xlink:href="#f0_8" transform="matrix(12,0,0,12,346.8,423.2)" />
<use xlink:href="#f0_f" transform="matrix(12,0,0,12,359.8,423.2)" />
<use xlink:href="#f0_k" transform="matrix(12,0,0,12,368.8,423.2)" />
<use xlink:href="#f0_3" transform="matrix(12,0,0,12,380.5,423.2)" />
<use xlink:href="#f0_a" transform="matrix(12,0,0,12,390.8,423.2)" />
<use xlink:href="#f0_y" transform="matrix(12,0,0,12,399.4,423.2)" />
<use xlink:href="#f0_9" transform="matrix(12,0,0,12,409.3,423.2)" />
<use xlink:href="#f0_r" transform="matrix(12,0,0,12,423.8,423.2)" />
<use xlink:href="#f0_g" transform="matrix(12,0,0,12,435.1,423.2)" />
<use xlink:href="#f0_b" transform="matrix(12,0,0,12,446.7,423.2)" />
<use xlink:href="#f0_t" transform="matrix(12,0,0,12,452.5,423.2)" />
<use xlink:href="#f0_h" transform="matrix(12,0,0,12,458.2,423.2)" />
<use xlink:href="#f0_g" transform="matrix(12,0,0,12,469.4,423.2)" />
<use xlink:href="#f0_v" transform="matrix(12,0,0,12,481,423.2)" />
<use xlink:href="#f0_3" transform="matrix(12,0,0,12,497,423.2)" />
<use xlink:href="#f0_h" transform="matrix(12,0,0,12,507.3,423.2)" />
<use xlink:href="#f0_r" transform="matrix(12,0,0,12,518.5,423.2)" />
<use xlink:href="#f0_i" transform="matrix(12,0,0,12,529.8,423.2)" />
<use xlink:href="#f0_h" transform="matrix(12,0,0,12,540.4,423.2)" />
<use xlink:href="#f0_k" transform="matrix(12,0,0,12,546.8,423.2)" />
<use xlink:href="#f0_9" transform="matrix(12,0,0,12,563.2,423.2)" />
<use xlink:href="#f0_7" transform="matrix(12,0,0,12,573,423.2)" />
<use xlink:href="#f0_z" transform="matrix(12,0,0,12,584.8,423.2)" />
<use xlink:href="#f0_8" transform="matrix(12,0,0,12,596,423.2)" />
<use xlink:href="#f0_i" transform="matrix(12,0,0,12,609.1,423.2)" />
<use xlink:href="#f0_n" transform="matrix(12,0,0,12,619.6,423.2)" />
<use xlink:href="#f0_h" transform="matrix(12,0,0,12,631.1,423.2)" />
<use xlink:href="#f0_k" transform="matrix(12,0,0,12,637.6,423.2)" />
<use xlink:href="#f0_9" transform="matrix(12,0,0,12,649.2,423.2)" />
<use xlink:href="#f0_a" transform="matrix(12,0,0,12,663.8,423.2)" />
<use xlink:href="#f0_i" transform="matrix(12,0,0,12,672.4,423.2)" />
<use xlink:href="#f0_z" transform="matrix(12,0,0,12,683,423.2)" />
<use xlink:href="#f0_8" transform="matrix(12,0,0,12,694.2,423.2)" />
<use xlink:href="#f0_q" transform="matrix(12,0,0,12,702.5,423.2)" />
<use xlink:href="#f0_13" transform="matrix(12,0,0,12,47.4,473.6)" />
<use xlink:href="#f0_k" transform="matrix(12,0,0,12,66.6,473.6)" />
<use xlink:href="#f0_9" transform="matrix(12,0,0,12,78.2,473.6)" />
<use xlink:href="#f0_7" transform="matrix(12,0,0,12,88,473.6)" />
<use xlink:href="#f0_u" transform="matrix(12,0,0,12,104.6,473.6)" />
<use xlink:href="#f0_9" transform="matrix(12,0,0,12,115.3,473.6)" />
<use xlink:href="#f0_p" transform="matrix(12,0,0,12,125.1,473.6)" />
<use xlink:href="#f0_22" transform="matrix(12,0,0,12,140.2,473.6)" />
<use xlink:href="#f0_b" transform="matrix(12,0,0,12,157.7,473.6)" />
<use xlink:href="#f0_8" transform="matrix(12,0,0,12,163.6,473.6)" />
<use xlink:href="#f0_f" transform="matrix(12,0,0,12,176.6,473.6)" />
<use xlink:href="#f0_t" transform="matrix(12,0,0,12,185.6,473.6)" />
<use xlink:href="#f0_i" transform="matrix(12,0,0,12,191.3,473.6)" />
<use xlink:href="#f0_8" transform="matrix(12,0,0,12,201.9,473.6)" />
<use xlink:href="#f0_9" transform="matrix(12,0,0,12,210.1,473.6)" />
<use xlink:href="#f0_z" transform="matrix(12,0,0,12,219.9,473.6)" />
<use xlink:href="#f0_16" transform="matrix(12,0,0,12,231.2,473.6)" />
<use xlink:href="#f0_9" transform="matrix(12,0,0,12,240.5,473.6)" />
<use xlink:href="#f0_x" transform="matrix(12,0,0,12,250.3,473.6)" />
<use xlink:href="#f0_f" transform="matrix(12,0,0,12,260.9,473.6)" />
<use xlink:href="#f0_9" transform="matrix(12,0,0,12,270,473.6)" />
<use xlink:href="#f0_8" transform="matrix(12,0,0,12,279.8,473.6)" />
<use xlink:href="#f0_8" transform="matrix(12,0,0,12,288,473.6)" />
<use xlink:href="#f0_f" transform="matrix(12,0,0,12,301,473.6)" />
<use xlink:href="#f0_k" transform="matrix(12,0,0,12,310.1,473.6)" />
<use xlink:href="#f0_3" transform="matrix(12,0,0,12,321.7,473.6)" />
<use xlink:href="#f0_a" transform="matrix(12,0,0,12,332,473.6)" />
<use xlink:href="#f0_y" transform="matrix(12,0,0,12,340.6,473.6)" />
<use xlink:href="#f0_9" transform="matrix(12,0,0,12,350.5,473.6)" />
<use xlink:href="#f0_b" transform="matrix(12,0,0,12,365,473.6)" />
<use xlink:href="#f0_8" transform="matrix(12,0,0,12,370.9,473.6)" />
<use xlink:href="#f0_w" transform="matrix(12,0,0,12,383.9,473.6)" />
<use xlink:href="#f0_3" transform="matrix(12,0,0,12,401.2,473.6)" />
<use xlink:href="#f0_b" transform="matrix(12,0,0,12,411.5,473.6)" />
<use xlink:href="#f0_7" transform="matrix(12,0,0,12,417.4,473.6)" />
<use xlink:href="#f0_h" transform="matrix(12,0,0,12,429.2,473.6)" />
<use xlink:href="#f0_3" transform="matrix(12,0,0,12,435.6,473.6)" />
<use xlink:href="#f0_b" transform="matrix(12,0,0,12,445.9,473.6)" />
<use xlink:href="#f0_7" transform="matrix(12,0,0,12,451.8,473.6)" />
<use xlink:href="#f0_9" transform="matrix(12,0,0,12,463.6,473.6)" />
<use xlink:href="#f0_z" transform="matrix(12,0,0,12,473.4,473.6)" />
<use xlink:href="#f0_r" transform="matrix(12,0,0,12,489.4,473.6)" />
<use xlink:href="#f0_p" transform="matrix(12,0,0,12,500.7,473.6)" />
<use xlink:href="#f0_h" transform="matrix(12,0,0,12,515.7,473.6)" />
<use xlink:href="#f0_k" transform="matrix(12,0,0,12,522.2,473.6)" />
<use xlink:href="#f0_9" transform="matrix(12,0,0,12,533.8,473.6)" />
<use xlink:href="#f0_f" transform="matrix(12,0,0,12,548.4,473.6)" />
<use xlink:href="#f0_i" transform="matrix(12,0,0,12,557.4,473.6)" />
<use xlink:href="#f0_7" transform="matrix(12,0,0,12,568,473.6)" />
<use xlink:href="#f0_h" transform="matrix(12,0,0,12,579.8,473.6)" />
<use xlink:href="#f0_b" transform="matrix(12,0,0,12,586.2,473.6)" />
<use xlink:href="#f0_7" transform="matrix(12,0,0,12,592.1,473.6)" />
<use xlink:href="#f0_g" transform="matrix(12,0,0,12,603.9,473.6)" />
<use xlink:href="#f0_i" transform="matrix(12,0,0,12,615.5,473.6)" />
<use xlink:href="#f0_g" transform="matrix(12,0,0,12,626.1,473.6)" />
<use xlink:href="#f0_8" transform="matrix(12,0,0,12,637.7,473.6)" />
<use xlink:href="#f0_n" transform="matrix(12,0,0,12,650.7,473.6)" />
<use xlink:href="#f0_t" transform="matrix(12,0,0,12,657.5,473.6)" />
<use xlink:href="#f0_i" transform="matrix(12,0,0,12,663.2,473.6)" />
<use xlink:href="#f0_j" transform="matrix(12,0,0,12,673.7,473.6)" />
<use xlink:href="#f0_i" transform="matrix(12,0,0,12,694.3,473.6)" />
<use xlink:href="#f0_n" transform="matrix(12,0,0,12,704.9,473.6)" />
<use xlink:href="#f0_f" transform="matrix(12,0,0,12,716.4,473.6)" />
<use xlink:href="#f0_g" transform="matrix(12,0,0,12,725.4,473.6)" />
<use xlink:href="#f0_a" transform="matrix(12,0,0,12,737,473.6)" />
<use xlink:href="#f0_a" transform="matrix(12,0,0,12,745.6,473.6)" />
<use xlink:href="#f0_9" transform="matrix(12,0,0,12,754.2,473.6)" />
<use xlink:href="#f0_7" transform="matrix(12,0,0,12,764.1,473.6)" />
<use xlink:href="#f0_h" transform="matrix(12,0,0,12,775.9,473.6)" />
<use xlink:href="#f0_q" transform="matrix(12,0,0,12,782.3,473.6)" />
<use xlink:href="#f2_11" transform="matrix(12,0,0,12,47.4,524)" />
<use xlink:href="#f2_o" transform="matrix(12,0,0,12,54.7,524)" />
<use xlink:href="#f2_12" transform="matrix(12,0,0,12,64.3,524)" />
<use xlink:href="#f0_1r" transform="matrix(12,0,0,12,76.4,524)" />
<use xlink:href="#f0_3" transform="matrix(12,0,0,12,93.6,524)" />
<use xlink:href="#f0_y" transform="matrix(12,0,0,12,103.9,524)" />
<use xlink:href="#f0_7" transform="matrix(12,0,0,12,113.8,524)" />
<use xlink:href="#f0_9" transform="matrix(12,0,0,12,125.6,524)" />
<use xlink:href="#f0_h" transform="matrix(12,0,0,12,135.4,524)" />
<use xlink:href="#f0_b" transform="matrix(12,0,0,12,141.8,524)" />
<use xlink:href="#f0_f" transform="matrix(12,0,0,12,147.7,524)" />
<use xlink:href="#f0_n" transform="matrix(12,0,0,12,161.5,524)" />
<use xlink:href="#f0_i" transform="matrix(12,0,0,12,168.2,524)" />
<use xlink:href="#f0_a" transform="matrix(12,0,0,12,178.8,524)" />
<use xlink:href="#f0_f" transform="matrix(12,0,0,12,187.4,524)" />
<use xlink:href="#f0_9" transform="matrix(12,0,0,12,196.4,524)" />
<use xlink:href="#f0_b" transform="matrix(12,0,0,12,211,524)" />
<use xlink:href="#f0_8" transform="matrix(12,0,0,12,216.8,524)" />
<use xlink:href="#f0_f" transform="matrix(12,0,0,12,229.9,524)" />
<use xlink:href="#f0_3" transform="matrix(12,0,0,12,238.9,524)" />
<use xlink:href="#f0_7" transform="matrix(12,0,0,12,249.2,524)" />
<use xlink:href="#f0_f" transform="matrix(12,0,0,12,261,524)" />
<use xlink:href="#f0_9" transform="matrix(12,0,0,12,270,524)" />
<use xlink:href="#f0_t" transform="matrix(12,0,0,12,279.8,524)" />
<use xlink:href="#f0_t" transform="matrix(12,0,0,12,285.5,524)" />
<use xlink:href="#f0_9" transform="matrix(12,0,0,12,291.2,524)" />
<use xlink:href="#f0_z" transform="matrix(12,0,0,12,301,524)" />
<use xlink:href="#f0_r" transform="matrix(12,0,0,12,317,524)" />
<use xlink:href="#f0_p" transform="matrix(12,0,0,12,328.3,524)" />
<use xlink:href="#f0_h" transform="matrix(12,0,0,12,343.3,524)" />
<use xlink:href="#f0_k" transform="matrix(12,0,0,12,349.8,524)" />
<use xlink:href="#f0_9" transform="matrix(12,0,0,12,361.4,524)" />
<use xlink:href="#f0_9" transform="matrix(12,0,0,12,376,524)" />
<use xlink:href="#f0_t" transform="matrix(12,0,0,12,385.8,524)" />
<use xlink:href="#f0_9" transform="matrix(12,0,0,12,391.5,524)" />
<use xlink:href="#f0_f" transform="matrix(12,0,0,12,401.3,524)" />
<use xlink:href="#f0_h" transform="matrix(12,0,0,12,410.3,524)" />
<use xlink:href="#f0_a" transform="matrix(12,0,0,12,416.7,524)" />
<use xlink:href="#f0_b" transform="matrix(12,0,0,12,425.4,524)" />
<use xlink:href="#f0_f" transform="matrix(12,0,0,12,431.2,524)" />
<use xlink:href="#f0_n" transform="matrix(12,0,0,12,445,524)" />
<use xlink:href="#f0_i" transform="matrix(12,0,0,12,451.7,524)" />
<use xlink:href="#f0_a" transform="matrix(12,0,0,12,462.3,524)" />
<use xlink:href="#f0_f" transform="matrix(12,0,0,12,470.9,524)" />
<use xlink:href="#f0_9" transform="matrix(12,0,0,12,480,524)" />
<use xlink:href="#f0_8" transform="matrix(12,0,0,12,494.5,524)" />
<use xlink:href="#f0_9" transform="matrix(12,0,0,12,502.8,524)" />
<use xlink:href="#f0_h" transform="matrix(12,0,0,12,512.6,524)" />
<use xlink:href="#f0_1j" transform="matrix(12,0,0,12,519,524)" />
<use xlink:href="#f0_g" transform="matrix(12,0,0,12,524.7,524)" />
<use xlink:href="#f0_v" transform="matrix(12,0,0,12,536.3,524)" />
<use xlink:href="#f0_z" transform="matrix(12,0,0,12,552.3,524)" />
<use xlink:href="#f0_g" transform="matrix(12,0,0,12,563.6,524)" />
<use xlink:href="#f0_9" transform="matrix(12,0,0,12,575.2,524)" />
<use xlink:href="#f0_h" transform="matrix(12,0,0,12,589.8,524)" />
<use xlink:href="#f0_i" transform="matrix(12,0,0,12,596.2,524)" />
<use xlink:href="#f0_h" transform="matrix(12,0,0,12,611.5,524)" />
<use xlink:href="#f0_k" transform="matrix(12,0,0,12,618,524)" />
<use xlink:href="#f0_9" transform="matrix(12,0,0,12,629.6,524)" />
<use xlink:href="#f0_9" transform="matrix(12,0,0,12,644.2,524)" />
<use xlink:href="#f0_x" transform="matrix(12,0,0,12,654,524)" />
<use xlink:href="#f0_f" transform="matrix(12,0,0,12,664.6,524)" />
<use xlink:href="#f0_9" transform="matrix(12,0,0,12,673.6,524)" />
<use xlink:href="#f0_8" transform="matrix(12,0,0,12,683.4,524)" />
<use xlink:href="#f0_8" transform="matrix(12,0,0,12,691.7,524)" />
<use xlink:href="#f0_f" transform="matrix(12,0,0,12,704.7,524)" />
<use xlink:href="#f0_k" transform="matrix(12,0,0,12,713.7,524)" />
<use xlink:href="#f0_3" transform="matrix(12,0,0,12,725.3,524)" />
<use xlink:href="#f0_a" transform="matrix(12,0,0,12,735.6,524)" />
<use xlink:href="#f0_y" transform="matrix(12,0,0,12,744.3,524)" />
<use xlink:href="#f0_9" transform="matrix(12,0,0,12,754.1,524)" />
<use xlink:href="#f0_i" transform="matrix(12,0,0,12,768.7,524)" />
<use xlink:href="#f0_n" transform="matrix(12,0,0,12,779.3,524)" />
<use xlink:href="#f0_i" transform="matrix(12,0,0,12,47.4,556.1)" />
<use xlink:href="#f0_v" transform="matrix(12,0,0,12,57.9,556.1)" />
<use xlink:href="#f0_v" transform="matrix(12,0,0,12,69.2,556.1)" />
<use xlink:href="#f0_i" transform="matrix(12,0,0,12,80.4,556.1)" />
<use xlink:href="#f0_8" transform="matrix(12,0,0,12,91,556.1)" />
<use xlink:href="#f0_b" transform="matrix(12,0,0,12,99.3,556.1)" />
<use xlink:href="#f0_h" transform="matrix(12,0,0,12,105.1,556.1)" />
<use xlink:href="#f0_9" transform="matrix(12,0,0,12,111.5,556.1)" />
<use xlink:href="#f0_7" transform="matrix(12,0,0,12,126.1,556.1)" />
<use xlink:href="#f0_3" transform="matrix(12,0,0,12,137.9,556.1)" />
<use xlink:href="#f0_h" transform="matrix(12,0,0,12,148.2,556.1)" />
<use xlink:href="#f0_g" transform="matrix(12,0,0,12,154.7,556.1)" />
<use xlink:href="#f0_a" transform="matrix(12,0,0,12,166.3,556.1)" />
<use xlink:href="#f0_9" transform="matrix(12,0,0,12,174.9,556.1)" />
<use xlink:href="#f0_3" transform="matrix(12,0,0,12,189.5,556.1)" />
<use xlink:href="#f0_h" transform="matrix(12,0,0,12,199.8,556.1)" />
<use xlink:href="#f0_r" transform="matrix(12,0,0,12,211,556.1)" />
<use xlink:href="#f0_i" transform="matrix(12,0,0,12,222.2,556.1)" />
<use xlink:href="#f0_h" transform="matrix(12,0,0,12,232.8,556.1)" />
<use xlink:href="#f0_k" transform="matrix(12,0,0,12,239.3,556.1)" />
<use xlink:href="#f0_9" transform="matrix(12,0,0,12,255.6,556.1)" />
<use xlink:href="#f0_7" transform="matrix(12,0,0,12,265.4,556.1)" />
<use xlink:href="#f0_z" transform="matrix(12,0,0,12,277.3,556.1)" />
<use xlink:href="#f0_8" transform="matrix(12,0,0,12,288.5,556.1)" />
<use xlink:href="#f0_i" transform="matrix(12,0,0,12,301.5,556.1)" />
<use xlink:href="#f0_n" transform="matrix(12,0,0,12,312.1,556.1)" />
<use xlink:href="#f0_h" transform="matrix(12,0,0,12,323.6,556.1)" />
<use xlink:href="#f0_k" transform="matrix(12,0,0,12,330,556.1)" />
<use xlink:href="#f0_9" transform="matrix(12,0,0,12,341.7,556.1)" />
<use xlink:href="#f0_a" transform="matrix(12,0,0,12,356.2,556.1)" />
<use xlink:href="#f0_i" transform="matrix(12,0,0,12,364.8,556.1)" />
<use xlink:href="#f0_z" transform="matrix(12,0,0,12,375.4,556.1)" />
<use xlink:href="#f0_q" transform="matrix(12,0,0,12,386.7,556.1)" />
<use xlink:href="#f0_l" transform="matrix(12,0,0,12,47.4,606.5)" />
<use xlink:href="#f0_k" transform="matrix(12,0,0,12,58.6,606.5)" />
<use xlink:href="#f0_9" transform="matrix(12,0,0,12,70.2,606.5)" />
<use xlink:href="#f0_a" transform="matrix(12,0,0,12,80,606.5)" />
<use xlink:href="#f0_9" transform="matrix(12,0,0,12,88.6,606.5)" />
<use xlink:href="#f0_b" transform="matrix(12,0,0,12,103.2,606.5)" />
<use xlink:href="#f0_8" transform="matrix(12,0,0,12,109,606.5)" />
<use xlink:href="#f0_7" transform="matrix(12,0,0,12,122.1,606.5)" />
<use xlink:href="#f0_i" transform="matrix(12,0,0,12,133.9,606.5)" />
<use xlink:href="#f0_7" transform="matrix(12,0,0,12,149.2,606.5)" />
<use xlink:href="#f0_9" transform="matrix(12,0,0,12,161,606.5)" />
<use xlink:href="#f0_h" transform="matrix(12,0,0,12,170.8,606.5)" />
<use xlink:href="#f0_n" transform="matrix(12,0,0,12,182,606.5)" />
<use xlink:href="#f0_i" transform="matrix(12,0,0,12,188.8,606.5)" />
<use xlink:href="#f0_a" transform="matrix(12,0,0,12,199.3,606.5)" />
<use xlink:href="#f0_f" transform="matrix(12,0,0,12,208,606.5)" />
<use xlink:href="#f0_9" transform="matrix(12,0,0,12,217,606.5)" />
<use xlink:href="#f0_i" transform="matrix(12,0,0,12,231.6,606.5)" />
<use xlink:href="#f0_7" transform="matrix(12,0,0,12,242.1,606.5)" />
<use xlink:href="#f0_h" transform="matrix(12,0,0,12,258.7,606.5)" />
<use xlink:href="#f0_k" transform="matrix(12,0,0,12,265.1,606.5)" />
<use xlink:href="#f0_9" transform="matrix(12,0,0,12,276.8,606.5)" />
<use xlink:href="#f0_9" transform="matrix(12,0,0,12,291.3,606.5)" />
<use xlink:href="#f0_t" transform="matrix(12,0,0,12,301.1,606.5)" />
<use xlink:href="#f0_9" transform="matrix(12,0,0,12,306.8,606.5)" />
<use xlink:href="#f0_f" transform="matrix(12,0,0,12,316.6,606.5)" />
<use xlink:href="#f0_h" transform="matrix(12,0,0,12,325.7,606.5)" />
<use xlink:href="#f0_a" transform="matrix(12,0,0,12,332.1,606.5)" />
<use xlink:href="#f0_i" transform="matrix(12,0,0,12,340.7,606.5)" />
<use xlink:href="#f0_7" transform="matrix(12,0,0,12,351.3,606.5)" />
<use xlink:href="#f0_8" transform="matrix(12,0,0,12,363.1,606.5)" />
<use xlink:href="#f0_b" transform="matrix(12,0,0,12,376.1,606.5)" />
<use xlink:href="#f0_7" transform="matrix(12,0,0,12,382,606.5)" />
<use xlink:href="#f0_a" transform="matrix(12,0,0,12,398.5,606.5)" />
<use xlink:href="#f0_i" transform="matrix(12,0,0,12,407.1,606.5)" />
<use xlink:href="#f0_z" transform="matrix(12,0,0,12,417.7,606.5)" />
<use xlink:href="#f0_1i" transform="matrix(12,0,0,12,433.7,606.5)" />
<use xlink:href="#f0_23" transform="matrix(12,0,0,12,444.8,606.5)" />
<use xlink:href="#f0_j" transform="matrix(12,0,0,12,463.1,606.5)" />
<use xlink:href="#f0_k" transform="matrix(12,0,0,12,478.9,606.5)" />
<use xlink:href="#f0_9" transform="matrix(12,0,0,12,490.5,606.5)" />
<use xlink:href="#f0_7" transform="matrix(12,0,0,12,500.3,606.5)" />
<use xlink:href="#f0_u" transform="matrix(12,0,0,12,516.9,606.5)" />
<use xlink:href="#f0_9" transform="matrix(12,0,0,12,527.6,606.5)" />
<use xlink:href="#f0_p" transform="matrix(12,0,0,12,537.4,606.5)" />
<use xlink:href="#f0_22" transform="matrix(12,0,0,12,552.5,606.5)" />
<use xlink:href="#f0_b" transform="matrix(12,0,0,12,570.1,606.5)" />
<use xlink:href="#f0_8" transform="matrix(12,0,0,12,575.9,606.5)" />
<use xlink:href="#f0_i" transform="matrix(12,0,0,12,589,606.5)" />
<use xlink:href="#f0_v" transform="matrix(12,0,0,12,599.5,606.5)" />
<use xlink:href="#f0_9" transform="matrix(12,0,0,12,610.8,606.5)" />
<use xlink:href="#f0_7" transform="matrix(12,0,0,12,620.6,606.5)" />
<use xlink:href="#f0_3" transform="matrix(12,0,0,12,637.2,606.5)" />
<use xlink:href="#f0_7" transform="matrix(12,0,0,12,647.5,606.5)" />
<use xlink:href="#f0_z" transform="matrix(12,0,0,12,659.3,606.5)" />
<use xlink:href="#f0_h" transform="matrix(12,0,0,12,675.3,606.5)" />
<use xlink:href="#f0_k" transform="matrix(12,0,0,12,681.7,606.5)" />
<use xlink:href="#f0_9" transform="matrix(12,0,0,12,693.3,606.5)" />
<use xlink:href="#f0_a" transform="matrix(12,0,0,12,707.9,606.5)" />
<use xlink:href="#f0_i" transform="matrix(12,0,0,12,716.5,606.5)" />
<use xlink:href="#f0_z" transform="matrix(12,0,0,12,727.1,606.5)" />
<use xlink:href="#f0_b" transform="matrix(12,0,0,12,743.1,606.5)" />
<use xlink:href="#f0_8" transform="matrix(12,0,0,12,748.9,606.5)" />
<use xlink:href="#f0_w" transform="matrix(12,0,0,12,762,606.5)" />
<use xlink:href="#f0_i" transform="matrix(12,0,0,12,779.3,606.5)" />
<use xlink:href="#f0_m" transform="matrix(12,0,0,12,789.8,606.5)" />
<use xlink:href="#f0_b" transform="matrix(12,0,0,12,800.4,606.5)" />
<use xlink:href="#f0_7" transform="matrix(12,0,0,12,806.3,606.5)" />
<use xlink:href="#f0_y" transform="matrix(12,0,0,12,818.1,606.5)" />
<use xlink:href="#f0_g" transform="matrix(12,0,0,12,47.4,638.6)" />
<use xlink:href="#f0_7" transform="matrix(12,0,0,12,59,638.6)" />
<use xlink:href="#f0_b" transform="matrix(12,0,0,12,70.8,638.6)" />
<use xlink:href="#f0_n" transform="matrix(12,0,0,12,76.6,638.6)" />
<use xlink:href="#f0_i" transform="matrix(12,0,0,12,83.4,638.6)" />
<use xlink:href="#f0_a" transform="matrix(12,0,0,12,94,638.6)" />
<use xlink:href="#f0_w" transform="matrix(12,0,0,12,102.6,638.6)" />
<use xlink:href="#f0_t" transform="matrix(12,0,0,12,119.9,638.6)" />
<use xlink:href="#f0_p" transform="matrix(12,0,0,12,125.6,638.6)" />
<use xlink:href="#f0_q" transform="matrix(12,0,0,12,135.9,638.6)" />
<use xlink:href="#f0_l" transform="matrix(12,0,0,12,145.9,638.6)" />
<use xlink:href="#f0_k" transform="matrix(12,0,0,12,157.1,638.6)" />
<use xlink:href="#f0_b" transform="matrix(12,0,0,12,168.7,638.6)" />
<use xlink:href="#f0_8" transform="matrix(12,0,0,12,174.6,638.6)" />
<use xlink:href="#f0_b" transform="matrix(12,0,0,12,187.6,638.6)" />
<use xlink:href="#f0_8" transform="matrix(12,0,0,12,193.5,638.6)" />
<use xlink:href="#f0_r" transform="matrix(12,0,0,12,206.5,638.6)" />
<use xlink:href="#f0_9" transform="matrix(12,0,0,12,217.7,638.6)" />
<use xlink:href="#f0_f" transform="matrix(12,0,0,12,227.5,638.6)" />
<use xlink:href="#f0_3" transform="matrix(12,0,0,12,236.5,638.6)" />
<use xlink:href="#f0_g" transform="matrix(12,0,0,12,246.9,638.6)" />
<use xlink:href="#f0_8" transform="matrix(12,0,0,12,258.5,638.6)" />
<use xlink:href="#f0_9" transform="matrix(12,0,0,12,266.7,638.6)" />
<use xlink:href="#f0_w" transform="matrix(12,0,0,12,281.3,638.6)" />
<use xlink:href="#f0_3" transform="matrix(12,0,0,12,298.6,638.6)" />
<use xlink:href="#f0_y" transform="matrix(12,0,0,12,308.9,638.6)" />
<use xlink:href="#f0_7" transform="matrix(12,0,0,12,318.8,638.6)" />
<use xlink:href="#f0_9" transform="matrix(12,0,0,12,330.6,638.6)" />
<use xlink:href="#f0_h" transform="matrix(12,0,0,12,340.4,638.6)" />
<use xlink:href="#f0_b" transform="matrix(12,0,0,12,346.9,638.6)" />
<use xlink:href="#f0_f" transform="matrix(12,0,0,12,352.7,638.6)" />
<use xlink:href="#f0_n" transform="matrix(12,0,0,12,366.5,638.6)" />
<use xlink:href="#f0_i" transform="matrix(12,0,0,12,373.2,638.6)" />
<use xlink:href="#f0_a" transform="matrix(12,0,0,12,383.8,638.6)" />
<use xlink:href="#f0_f" transform="matrix(12,0,0,12,392.4,638.6)" />
<use xlink:href="#f0_9" transform="matrix(12,0,0,12,401.4,638.6)" />
<use xlink:href="#f0_b" transform="matrix(12,0,0,12,416,638.6)" />
<use xlink:href="#f0_8" transform="matrix(12,0,0,12,421.9,638.6)" />
<use xlink:href="#f0_f" transform="matrix(12,0,0,12,434.9,638.6)" />
<use xlink:href="#f0_3" transform="matrix(12,0,0,12,443.9,638.6)" />
<use xlink:href="#f0_7" transform="matrix(12,0,0,12,454.2,638.6)" />
<use xlink:href="#f0_f" transform="matrix(12,0,0,12,466,638.6)" />
<use xlink:href="#f0_9" transform="matrix(12,0,0,12,475,638.6)" />
<use xlink:href="#f0_t" transform="matrix(12,0,0,12,484.9,638.6)" />
<use xlink:href="#f0_t" transform="matrix(12,0,0,12,490.5,638.6)" />
<use xlink:href="#f0_9" transform="matrix(12,0,0,12,496.2,638.6)" />
<use xlink:href="#f0_z" transform="matrix(12,0,0,12,506,638.6)" />
<use xlink:href="#f0_r" transform="matrix(12,0,0,12,522,638.6)" />
<use xlink:href="#f0_p" transform="matrix(12,0,0,12,533.3,638.6)" />
<use xlink:href="#f0_h" transform="matrix(12,0,0,12,548.4,638.6)" />
<use xlink:href="#f0_k" transform="matrix(12,0,0,12,554.8,638.6)" />
<use xlink:href="#f0_9" transform="matrix(12,0,0,12,566.4,638.6)" />
<use xlink:href="#f0_9" transform="matrix(12,0,0,12,581,638.6)" />
<use xlink:href="#f0_t" transform="matrix(12,0,0,12,590.8,638.6)" />
<use xlink:href="#f0_9" transform="matrix(12,0,0,12,596.5,638.6)" />
<use xlink:href="#f0_f" transform="matrix(12,0,0,12,606.3,638.6)" />
<use xlink:href="#f0_h" transform="matrix(12,0,0,12,615.3,638.6)" />
<use xlink:href="#f0_a" transform="matrix(12,0,0,12,621.8,638.6)" />
<use xlink:href="#f0_b" transform="matrix(12,0,0,12,630.4,638.6)" />
<use xlink:href="#f0_f" transform="matrix(12,0,0,12,636.2,638.6)" />
<use xlink:href="#f0_n" transform="matrix(12,0,0,12,650,638.6)" />
<use xlink:href="#f0_i" transform="matrix(12,0,0,12,656.8,638.6)" />
<use xlink:href="#f0_a" transform="matrix(12,0,0,12,667.3,638.6)" />
<use xlink:href="#f0_f" transform="matrix(12,0,0,12,675.9,638.6)" />
<use xlink:href="#f0_9" transform="matrix(12,0,0,12,685,638.6)" />
<use xlink:href="#f0_8" transform="matrix(12,0,0,12,699.5,638.6)" />
<use xlink:href="#f0_9" transform="matrix(12,0,0,12,707.8,638.6)" />
<use xlink:href="#f0_h" transform="matrix(12,0,0,12,717.6,638.6)" />
<use xlink:href="#f0_1j" transform="matrix(12,0,0,12,724,638.6)" />
<use xlink:href="#f0_g" transform="matrix(12,0,0,12,729.7,638.6)" />
<use xlink:href="#f0_v" transform="matrix(12,0,0,12,741.4,638.6)" />
<use xlink:href="#f0_z" transform="matrix(12,0,0,12,757.3,638.6)" />
<use xlink:href="#f0_g" transform="matrix(12,0,0,12,768.6,638.6)" />
<use xlink:href="#f0_9" transform="matrix(12,0,0,12,780.2,638.6)" />
<use xlink:href="#f0_h" transform="matrix(12,0,0,12,794.8,638.6)" />
<use xlink:href="#f0_i" transform="matrix(12,0,0,12,801.2,638.6)" />
<use xlink:href="#f0_h" transform="matrix(12,0,0,12,816.5,638.6)" />
<use xlink:href="#f0_k" transform="matrix(12,0,0,12,823,638.6)" />
<use xlink:href="#f0_9" transform="matrix(12,0,0,12,834.6,638.6)" />
<use xlink:href="#f0_9" transform="matrix(12,0,0,12,47.4,670.7)" />
<use xlink:href="#f0_x" transform="matrix(12,0,0,12,57.2,670.7)" />
<use xlink:href="#f0_f" transform="matrix(12,0,0,12,67.8,670.7)" />
<use xlink:href="#f0_9" transform="matrix(12,0,0,12,76.8,670.7)" />
<use xlink:href="#f0_8" transform="matrix(12,0,0,12,86.6,670.7)" />
<use xlink:href="#f0_8" transform="matrix(12,0,0,12,94.9,670.7)" />
<use xlink:href="#f0_f" transform="matrix(12,0,0,12,107.9,670.7)" />
<use xlink:href="#f0_k" transform="matrix(12,0,0,12,116.9,670.7)" />
<use xlink:href="#f0_3" transform="matrix(12,0,0,12,128.5,670.7)" />
<use xlink:href="#f0_a" transform="matrix(12,0,0,12,138.8,670.7)" />
<use xlink:href="#f0_y" transform="matrix(12,0,0,12,147.5,670.7)" />
<use xlink:href="#f0_9" transform="matrix(12,0,0,12,157.3,670.7)" />
<use xlink:href="#f0_i" transform="matrix(12,0,0,12,171.9,670.7)" />
<use xlink:href="#f0_n" transform="matrix(12,0,0,12,182.4,670.7)" />
<use xlink:href="#f0_i" transform="matrix(12,0,0,12,194,670.7)" />
<use xlink:href="#f0_v" transform="matrix(12,0,0,12,204.5,670.7)" />
<use xlink:href="#f0_v" transform="matrix(12,0,0,12,215.8,670.7)" />
<use xlink:href="#f0_i" transform="matrix(12,0,0,12,227,670.7)" />
<use xlink:href="#f0_8" transform="matrix(12,0,0,12,237.6,670.7)" />
<use xlink:href="#f0_b" transform="matrix(12,0,0,12,245.8,670.7)" />
<use xlink:href="#f0_h" transform="matrix(12,0,0,12,251.7,670.7)" />
<use xlink:href="#f0_9" transform="matrix(12,0,0,12,258.1,670.7)" />
<use xlink:href="#f0_7" transform="matrix(12,0,0,12,272.7,670.7)" />
<use xlink:href="#f0_3" transform="matrix(12,0,0,12,284.5,670.7)" />
<use xlink:href="#f0_h" transform="matrix(12,0,0,12,294.8,670.7)" />
<use xlink:href="#f0_g" transform="matrix(12,0,0,12,301.3,670.7)" />
<use xlink:href="#f0_a" transform="matrix(12,0,0,12,312.9,670.7)" />
<use xlink:href="#f0_9" transform="matrix(12,0,0,12,321.5,670.7)" />
<use xlink:href="#f0_3" transform="matrix(12,0,0,12,336.1,670.7)" />
<use xlink:href="#f0_h" transform="matrix(12,0,0,12,346.4,670.7)" />
<use xlink:href="#f0_r" transform="matrix(12,0,0,12,357.6,670.7)" />
<use xlink:href="#f0_i" transform="matrix(12,0,0,12,368.8,670.7)" />
<use xlink:href="#f0_h" transform="matrix(12,0,0,12,379.4,670.7)" />
<use xlink:href="#f0_k" transform="matrix(12,0,0,12,385.9,670.7)" />
<use xlink:href="#f0_9" transform="matrix(12,0,0,12,402.2,670.7)" />
<use xlink:href="#f0_7" transform="matrix(12,0,0,12,412,670.7)" />
<use xlink:href="#f0_z" transform="matrix(12,0,0,12,423.9,670.7)" />
<use xlink:href="#f0_8" transform="matrix(12,0,0,12,435.1,670.7)" />
<use xlink:href="#f0_i" transform="matrix(12,0,0,12,448.1,670.7)" />
<use xlink:href="#f0_n" transform="matrix(12,0,0,12,458.7,670.7)" />
<use xlink:href="#f0_h" transform="matrix(12,0,0,12,470.2,670.7)" />
<use xlink:href="#f0_k" transform="matrix(12,0,0,12,476.6,670.7)" />
<use xlink:href="#f0_9" transform="matrix(12,0,0,12,488.3,670.7)" />
<use xlink:href="#f0_a" transform="matrix(12,0,0,12,502.8,670.7)" />
<use xlink:href="#f0_i" transform="matrix(12,0,0,12,511.4,670.7)" />
<use xlink:href="#f0_z" transform="matrix(12,0,0,12,522,670.7)" />
<use xlink:href="#f0_8" transform="matrix(12,0,0,12,533.3,670.7)" />
<use xlink:href="#f0_q" transform="matrix(12,0,0,12,541.5,670.7)" />
<use xlink:href="#f2_11" transform="matrix(12,0,0,12,47.4,721.1)" />
<use xlink:href="#f2_a" transform="matrix(12,0,0,12,54.7,721.1)" />
<use xlink:href="#f2_12" transform="matrix(12,0,0,12,66.6,721.1)" />
<use xlink:href="#f0_e" transform="matrix(12,0,0,12,78.7,721.1)" />
<use xlink:href="#f0_9" transform="matrix(12,0,0,12,90.7,721.1)" />
<use xlink:href="#f0_h" transform="matrix(12,0,0,12,100.5,721.1)" />
<use xlink:href="#f0_3" transform="matrix(12,0,0,12,106.9,721.1)" />
<use xlink:href="#f0_a" transform="matrix(12,0,0,12,117.2,721.1)" />
<use xlink:href="#f0_z" transform="matrix(12,0,0,12,125.8,721.1)" />
<use xlink:href="#f0_b" transform="matrix(12,0,0,12,137.1,721.1)" />
<use xlink:href="#f0_7" transform="matrix(12,0,0,12,142.9,721.1)" />
<use xlink:href="#f0_y" transform="matrix(12,0,0,12,154.8,721.1)" />
<use xlink:href="#f0_n" transform="matrix(12,0,0,12,169.4,721.1)" />
<use xlink:href="#f0_i" transform="matrix(12,0,0,12,176.1,721.1)" />
<use xlink:href="#f0_a" transform="matrix(12,0,0,12,186.7,721.1)" />
<use xlink:href="#f0_f" transform="matrix(12,0,0,12,195.3,721.1)" />
<use xlink:href="#f0_9" transform="matrix(12,0,0,12,204.3,721.1)" />
<use xlink:href="#f0_9" transform="matrix(12,0,0,12,218.9,721.1)" />
<use xlink:href="#f0_x" transform="matrix(12,0,0,12,228.7,721.1)" />
<use xlink:href="#f0_9" transform="matrix(12,0,0,12,239.3,721.1)" />
<use xlink:href="#f0_a" transform="matrix(12,0,0,12,249.1,721.1)" />
<use xlink:href="#f0_h" transform="matrix(12,0,0,12,257.7,721.1)" />
<use xlink:href="#f0_9" transform="matrix(12,0,0,12,264.2,721.1)" />
<use xlink:href="#f0_z" transform="matrix(12,0,0,12,274,721.1)" />
<use xlink:href="#f0_i" transform="matrix(12,0,0,12,290,721.1)" />
<use xlink:href="#f0_7" transform="matrix(12,0,0,12,300.6,721.1)" />
<use xlink:href="#f0_h" transform="matrix(12,0,0,12,317.1,721.1)" />
<use xlink:href="#f0_k" transform="matrix(12,0,0,12,323.6,721.1)" />
<use xlink:href="#f0_9" transform="matrix(12,0,0,12,335.2,721.1)" />
<use xlink:href="#f0_a" transform="matrix(12,0,0,12,349.8,721.1)" />
<use xlink:href="#f0_i" transform="matrix(12,0,0,12,358.4,721.1)" />
<use xlink:href="#f0_z" transform="matrix(12,0,0,12,369,721.1)" />
<use xlink:href="#f0_16" transform="matrix(12,0,0,12,380.2,721.1)" />
<use xlink:href="#f1_l" transform="matrix(12,0,0,12,389.5,721.1)" />
<use xlink:href="#f0_11" transform="matrix(12,0,0,12,405.1,721.1)" />
<use xlink:href="#f1_m" transform="matrix(12,0,0,12,420.1,721.1)" />
<use xlink:href="#f1_b" transform="matrix(12,0,0,12,426.8,721.1)" />
<use xlink:href="#f1_j" transform="matrix(12,0,0,12,438.8,721.1)" />
<use xlink:href="#f0_13" transform="matrix(12,0,0,12,47.4,771.5)" />
<use xlink:href="#f0_k" transform="matrix(12,0,0,12,66.5,771.5)" />
<use xlink:href="#f0_9" transform="matrix(12,0,0,12,78.2,771.5)" />
<use xlink:href="#f0_a" transform="matrix(12,0,0,12,88,771.5)" />
<use xlink:href="#f0_9" transform="matrix(12,0,0,12,96.6,771.5)" />
<use xlink:href="#f0_16" transform="matrix(12,0,0,12,106.4,771.5)" />
<use xlink:href="#f1_m" transform="matrix(12,0,0,12,47.4,821.9)" />
<use xlink:href="#f0_11" transform="matrix(12,0,0,12,58.8,821.9)" />
<use xlink:href="#f0_d" transform="matrix(12,0,0,12,73.8,821.9)" />
<use xlink:href="#f0_g" transform="matrix(12,0,0,12,85.1,821.9)" />
<use xlink:href="#f0_a" transform="matrix(12,0,0,12,96.7,821.9)" />
<use xlink:href="#f0_a" transform="matrix(12,0,0,12,105.3,821.9)" />
<use xlink:href="#f0_9" transform="matrix(12,0,0,12,113.9,821.9)" />
<use xlink:href="#f0_7" transform="matrix(12,0,0,12,123.7,821.9)" />
<use xlink:href="#f0_h" transform="matrix(12,0,0,12,135.6,821.9)" />
<use xlink:href="#f0_n" transform="matrix(12,0,0,12,146.8,821.9)" />
<use xlink:href="#f0_t" transform="matrix(12,0,0,12,153.5,821.9)" />
<use xlink:href="#f0_i" transform="matrix(12,0,0,12,159.2,821.9)" />
<use xlink:href="#f0_j" transform="matrix(12,0,0,12,169.8,821.9)" />
<use xlink:href="#f0_b" transform="matrix(12,0,0,12,185.5,821.9)" />
<use xlink:href="#f0_7" transform="matrix(12,0,0,12,191.4,821.9)" />
<use xlink:href="#f0_y" transform="matrix(12,0,0,12,203.2,821.9)" />
<use xlink:href="#f0_h" transform="matrix(12,0,0,12,217.8,821.9)" />
<use xlink:href="#f0_k" transform="matrix(12,0,0,12,224.3,821.9)" />
<use xlink:href="#f0_a" transform="matrix(12,0,0,12,235.9,821.9)" />
<use xlink:href="#f0_i" transform="matrix(12,0,0,12,244.5,821.9)" />
<use xlink:href="#f0_g" transform="matrix(12,0,0,12,255.1,821.9)" />
<use xlink:href="#f0_y" transform="matrix(12,0,0,12,266.7,821.9)" />
<use xlink:href="#f0_k" transform="matrix(12,0,0,12,276.6,821.9)" />
<use xlink:href="#f0_h" transform="matrix(12,0,0,12,292.9,821.9)" />
<use xlink:href="#f0_k" transform="matrix(12,0,0,12,299.4,821.9)" />
<use xlink:href="#f0_9" transform="matrix(12,0,0,12,311,821.9)" />
<use xlink:href="#f0_a" transform="matrix(12,0,0,12,325.6,821.9)" />
<use xlink:href="#f0_i" transform="matrix(12,0,0,12,334.2,821.9)" />
<use xlink:href="#f0_z" transform="matrix(12,0,0,12,344.8,821.9)" />
</g>
</g>
<image preserveAspectRatio="none" x="47" y="849" width="194" height="68" xlink:href="img/3.png" />
<image preserveAspectRatio="none" x="47" y="940" width="188" height="27" xlink:href="img/4.png" />
<image preserveAspectRatio="none" x="47" y="987" width="130" height="34" xlink:href="img/5.png" />
<g clip-path="url(#c0_299)">
<g fill="#000000" >
<use xlink:href="#f2_11" transform="matrix(12,0,0,12,47.4,1061.8)" />
<use xlink:href="#f2_5" transform="matrix(12,0,0,12,54.7,1061.8)" />
<use xlink:href="#f2_12" transform="matrix(12,0,0,12,65.1,1061.8)" />
<use xlink:href="#f0_1z" transform="matrix(12,0,0,12,77.2,1061.8)" />
<use xlink:href="#f0_w" transform="matrix(12,0,0,12,92.2,1061.8)" />
<use xlink:href="#f0_13" transform="matrix(12,0,0,12,109.5,1061.8)" />
<use xlink:href="#f0_20" transform="matrix(12,0,0,12,128.7,1061.8)" />
<use xlink:href="#f0_7" transform="matrix(12,0,0,12,138,1061.8)" />
<use xlink:href="#f0_i" transform="matrix(12,0,0,12,149.9,1061.8)" />
<use xlink:href="#f0_v" transform="matrix(12,0,0,12,165.2,1061.8)" />
<use xlink:href="#f0_i" transform="matrix(12,0,0,12,176.4,1061.8)" />
<use xlink:href="#f0_j" transform="matrix(12,0,0,12,187,1061.8)" />
<use xlink:href="#f0_9" transform="matrix(12,0,0,12,202.8,1061.8)" />
<use xlink:href="#f0_a" transform="matrix(12,0,0,12,212.6,1061.8)" />
<use xlink:href="#f0_b" transform="matrix(12,0,0,12,226,1061.8)" />
<use xlink:href="#f0_8" transform="matrix(12,0,0,12,231.8,1061.8)" />
<use xlink:href="#f0_9" transform="matrix(12,0,0,12,244.8,1061.8)" />
<use xlink:href="#f0_x" transform="matrix(12,0,0,12,254.6,1061.8)" />
<use xlink:href="#f0_v" transform="matrix(12,0,0,12,265.2,1061.8)" />
<use xlink:href="#f0_9" transform="matrix(12,0,0,12,276.5,1061.8)" />
<use xlink:href="#f0_7" transform="matrix(12,0,0,12,286.3,1061.8)" />
<use xlink:href="#f0_z" transform="matrix(12,0,0,12,298.1,1061.8)" />
<use xlink:href="#f0_9" transform="matrix(12,0,0,12,309.4,1061.8)" />
<use xlink:href="#f0_z" transform="matrix(12,0,0,12,319.2,1061.8)" />
<use xlink:href="#f0_j" transform="matrix(12,0,0,12,335.2,1061.8)" />
<use xlink:href="#f0_k" transform="matrix(12,0,0,12,350.9,1061.8)" />
<use xlink:href="#f0_9" transform="matrix(12,0,0,12,362.6,1061.8)" />
<use xlink:href="#f0_7" transform="matrix(12,0,0,12,372.4,1061.8)" />
<use xlink:href="#f0_u" transform="matrix(12,0,0,12,388.9,1061.8)" />
<use xlink:href="#f0_9" transform="matrix(12,0,0,12,399.7,1061.8)" />
<use xlink:href="#f0_p" transform="matrix(12,0,0,12,409.5,1061.8)" />
<use xlink:href="#f0_22" transform="matrix(12,0,0,12,424.6,1061.8)" />
<use xlink:href="#f0_b" transform="matrix(12,0,0,12,442.1,1061.8)" />
<use xlink:href="#f0_8" transform="matrix(12,0,0,12,448,1061.8)" />
<use xlink:href="#f0_i" transform="matrix(12,0,0,12,461,1061.8)" />
<use xlink:href="#f0_v" transform="matrix(12,0,0,12,471.6,1061.8)" />
<use xlink:href="#f0_9" transform="matrix(12,0,0,12,482.8,1061.8)" />
<use xlink:href="#f0_7" transform="matrix(12,0,0,12,492.6,1061.8)" />
<use xlink:href="#f0_q" transform="matrix(12,0,0,12,504.4,1061.8)" />
<use xlink:href="#f0_1a" transform="matrix(12,0,0,12,47.4,1112.2)" />
<use xlink:href="#f0_v" transform="matrix(12,0,0,12,57.3,1112.2)" />
<use xlink:href="#f0_9" transform="matrix(12,0,0,12,68.6,1112.2)" />
<use xlink:href="#f0_9" transform="matrix(12,0,0,12,78.4,1112.2)" />
<use xlink:href="#f0_z" transform="matrix(12,0,0,12,88.2,1112.2)" />
<use xlink:href="#f0_i" transform="matrix(12,0,0,12,104.2,1112.2)" />
<use xlink:href="#f0_n" transform="matrix(12,0,0,12,114.8,1112.2)" />
<use xlink:href="#f0_h" transform="matrix(12,0,0,12,126.3,1112.2)" />
<use xlink:href="#f0_k" transform="matrix(12,0,0,12,132.7,1112.2)" />
<use xlink:href="#f0_9" transform="matrix(12,0,0,12,144.3,1112.2)" />
<use xlink:href="#f0_a" transform="matrix(12,0,0,12,158.9,1112.2)" />
<use xlink:href="#f0_i" transform="matrix(12,0,0,12,167.5,1112.2)" />
<use xlink:href="#f0_z" transform="matrix(12,0,0,12,178.1,1112.2)" />
<use xlink:href="#f0_16" transform="matrix(12,0,0,12,189.3,1112.2)" />
<use xlink:href="#f1_g" transform="matrix(12,0,0,12,198.7,1112.2)" />
<use xlink:href="#f0_11" transform="matrix(12,0,0,12,213.3,1112.2)" />
<use xlink:href="#f0_14" transform="matrix(12,0,0,12,228.3,1112.2)" />
<use xlink:href="#f0_17" transform="matrix(12,0,0,12,238.5,1112.2)" />
<use xlink:href="#f0_f" transform="matrix(12,0,0,12,253.5,1112.2)" />
<use xlink:href="#f0_w" transform="matrix(12,0,0,12,262.5,1112.2)" />
<use xlink:href="#f0_1p" transform="matrix(12,0,0,12,279.8,1112.2)" />
<use xlink:href="#f0_8" transform="matrix(12,0,0,12,285.1,1112.2)" />
<use xlink:href="#f0_11" transform="matrix(12,0,0,12,298.1,1112.2)" />
<use xlink:href="#f0_15" transform="matrix(12,0,0,12,313.1,1112.2)" />
<use xlink:href="#f0_q" transform="matrix(12,0,0,12,323.3,1112.2)" />
<use xlink:href="#f0_14" transform="matrix(12,0,0,12,328.6,1112.2)" />
<use xlink:href="#f0_17" transform="matrix(12,0,0,12,338.8,1112.2)" />
<use xlink:href="#f0_w" transform="matrix(12,0,0,12,353.8,1112.2)" />
<use xlink:href="#f0_1p" transform="matrix(12,0,0,12,371.1,1112.2)" />
<use xlink:href="#f0_8" transform="matrix(12,0,0,12,376.4,1112.2)" />
<use xlink:href="#f0_1h" transform="matrix(12,0,0,12,47.4,1162.6)" />
<use xlink:href="#f0_9" transform="matrix(12,0,0,12,61.9,1162.6)" />
<use xlink:href="#f0_7" transform="matrix(12,0,0,12,71.7,1162.6)" />
<use xlink:href="#f0_f" transform="matrix(12,0,0,12,83.5,1162.6)" />
<use xlink:href="#f0_9" transform="matrix(12,0,0,12,92.5,1162.6)" />
<use xlink:href="#f0_16" transform="matrix(12,0,0,12,102.4,1162.6)" />
<use xlink:href="#f0_v" transform="matrix(12,0,0,12,111.7,1162.6)" />
<use xlink:href="#f0_i" transform="matrix(12,0,0,12,122.9,1162.6)" />
<use xlink:href="#f0_j" transform="matrix(12,0,0,12,133.5,1162.6)" />
<use xlink:href="#f0_9" transform="matrix(12,0,0,12,149.3,1162.6)" />
<use xlink:href="#f0_a" transform="matrix(12,0,0,12,159.1,1162.6)" />
<use xlink:href="#f0_b" transform="matrix(12,0,0,12,172.5,1162.6)" />
<use xlink:href="#f0_8" transform="matrix(12,0,0,12,178.3,1162.6)" />
<use xlink:href="#f0_y" transform="matrix(12,0,0,12,191.3,1162.6)" />
<use xlink:href="#f0_b" transform="matrix(12,0,0,12,201.2,1162.6)" />
<use xlink:href="#f0_m" transform="matrix(12,0,0,12,207,1162.6)" />
<use xlink:href="#f0_9" transform="matrix(12,0,0,12,217.6,1162.6)" />
<use xlink:href="#f0_7" transform="matrix(12,0,0,12,227.4,1162.6)" />
<use xlink:href="#f0_3" transform="matrix(12,0,0,12,244,1162.6)" />
<use xlink:href="#f0_8" transform="matrix(12,0,0,12,254.3,1162.6)" />
<use xlink:href="#f0_1o" transform="matrix(12,0,0,12,262.6,1162.6)" />
</g>
</g>
<g fill="#000000" >
<use xlink:href="#f3_n" transform="matrix(8,0,0,8,785.4,1275.3)" />
<use xlink:href="#f3_r" transform="matrix(8,0,0,8,792.2,1275.3)" />
</g>
<defs>
<path d="M99,350v90H755V350Zm0,300v91H755V650Z" 
id="f0_11"
transform="scale(0.001,-0.001)" />

<path d="M365,0L119,674c0,0,-9,23,-18,39c0,0,-11,15,-23,26c0,0,-12,8,-29,12c0,0,-17,3,-39,4H6v64H388V755H369c0,0,-47,0,-69,-18c0,0,-24,-18,-23,-56c0,0,-1,-13,3,-25c0,0,3,-14,9,-31L392,336c0,0,10,-26,21,-58c0,0,9,-33,20,-65c0,0,8,-31,16,-59c0,0,7,-29,11,-47h5c0,0,3,16,12,41c0,0,8,23,20,53c0,0,10,27,22,58c0,0,11,29,22,57L650,614c0,0,8,19,12,36c0,0,3,16,3,30c0,0,0,38,-25,57c0,0,-26,18,-76,18H553v64H880V755H862c0,0,-23,0,-38,-5c0,0,-17,-6,-29,-18c0,0,-12,-14,-24,-37c0,0,-12,-24,-26,-59L504,0Z" 
id="f0_m"
transform="scale(0.001,-0.001)" />

<path d="M413,510c0,0,36,0,67,11c0,0,30,9,55,27c0,0,23,15,42,39c0,0,16,22,27,47v3c0,0,0,101,-15,174c0,0,-15,72,-41,119c0,0,-27,47,-62,70c0,0,-36,22,-81,22c0,0,-81,-1,-125,-71c0,0,-45,-71,-45,-206c0,0,0,-62,11,-107c0,0,11,-46,34,-73c0,0,22,-29,55,-41c0,0,33,-14,78,-14ZM350,-16c-1,0,-2,0,-3,0c0,0,-1,0,-2,0c-12,0,-68,0,-106,12c0,0,-44,9,-67,29c0,0,-27,18,-36,42c0,0,-11,23,-11,48c0,0,0,27,15,48c0,0,14,18,31,25c0,0,10,-25,26,-46c0,0,15,-22,37,-38c0,0,23,-17,51,-27c0,0,27,-10,61,-10c1,0,3,0,4,0c0,0,127,0,189,114c0,0,61,112,61,343c0,0,-17,-20,-38,-39c0,0,-23,-20,-50,-33c0,0,-28,-16,-61,-23c0,0,-34,-9,-74,-9c0,0,-67,0,-121,19c0,0,-56,19,-95,59c0,0,-40,38,-62,97c0,0,-21,58,-21,135c0,0,0,83,22,153c0,0,22,67,65,118c0,0,41,49,103,78c0,0,59,27,137,27c0,0,77,0,143,-30c0,0,64,-30,112,-92c0,0,48,-63,75,-160c0,0,25,-97,26,-231c0,0,0,-80,-10,-156c0,0,-10,-77,-31,-145c0,0,-23,-68,-55,-124c0,0,-33,-58,-79,-98C586,70,539,28,480,6c0,0,-57,-22,-130,-22Z" 
id="f0_1z"
transform="scale(0.001,-0.001)" />

<path d="M43,0V64H63c0,0,25,0,47,4c0,0,21,3,38,16c0,0,15,11,24,32c0,0,8,21,9,58V650c0,0,0,33,-9,55c0,0,-9,20,-25,31c0,0,-16,11,-37,15c0,0,-22,3,-47,4H58v64H298L318,695h7c0,0,23,42,49,70c0,0,25,27,54,43c0,0,28,14,61,21c0,0,31,5,67,5c0,0,36,0,71,-7c0,0,33,-9,62,-24c0,0,28,-17,52,-43c0,0,21,-27,36,-65h13c0,0,23,42,50,70c0,0,27,27,57,43c0,0,30,14,64,21c0,0,32,5,68,5c0,0,59,-1,105,-17c0,0,45,-18,78,-54c0,0,32,-37,49,-93c0,0,17,-58,18,-135V174c0,0,0,-37,9,-58c0,0,9,-21,24,-32c0,0,16,-13,37,-16c0,0,21,-4,47,-4h5V0H1135V527c0,0,0,50,-8,89c0,0,-9,39,-27,66c0,0,-21,26,-50,41c0,0,-32,13,-75,13c0,0,-48,0,-80,-18c0,0,-33,-19,-53,-50c0,0,-21,-31,-28,-72c0,0,-9,-42,-9,-87V174c0,0,0,-37,9,-58c0,0,9,-21,24,-32c0,0,16,-13,38,-16c0,0,21,-4,47,-4h4V0H662V527c0,0,-1,50,-9,89c0,0,-8,39,-27,66c0,0,-20,26,-50,41c0,0,-31,13,-75,13c0,0,-50,0,-83,-20c0,0,-35,-20,-55,-54c0,0,-22,-35,-30,-79c0,0,-9,-45,-9,-94V166c0,0,0,-33,10,-53c0,0,10,-22,27,-32c0,0,16,-10,40,-13c0,0,22,-4,48,-4h5V0Z" 
id="f0_w"
transform="scale(0.001,-0.001)" />

<path d="M458,0L128,946c0,0,-8,23,-18,39c0,0,-10,16,-22,25c0,0,-13,9,-29,13c0,0,-17,3,-39,3H0v65H420v-65H385c0,0,-46,0,-69,-17c0,0,-24,-18,-23,-56c0,0,0,-12,4,-26c0,0,3,-14,9,-30L474,401c0,0,22,-69,39,-132c0,0,17,-65,29,-119c0,0,12,54,29,117c0,0,15,61,41,134L781,886c0,0,5,19,10,36c0,0,3,16,3,30c0,0,0,39,-24,57c0,0,-26,17,-76,17H659v65h372v-65h-29c0,0,-23,0,-38,-4c0,0,-17,-5,-29,-17c0,0,-14,-14,-25,-37c0,0,-12,-24,-24,-60L570,0Z" 
id="f0_18"
transform="scale(0.001,-0.001)" />

<path d="M229,0V64h35c0,0,25,0,49,4c0,0,22,3,39,13c0,0,17,10,28,32c0,0,9,20,9,53v849H243c0,0,-33,0,-56,-10c0,0,-24,-11,-37,-28c0,0,-15,-17,-22,-39c0,0,-8,-24,-10,-49l-8,-65H34v267H902V824H827l-8,65c0,0,-4,25,-10,49c0,0,-9,22,-22,39c0,0,-15,17,-37,28c0,0,-24,10,-58,10H544V174c0,0,0,-37,10,-58c0,0,10,-21,27,-32c0,0,16,-13,40,-16c0,0,22,-4,48,-4h35V0Z" 
id="f0_l"
transform="scale(0.001,-0.001)" />

<path d="M28,0V64H40c0,0,25,0,49,4c0,0,22,3,39,16c0,0,17,11,27,32c0,0,10,21,10,58V993c0,0,0,33,-10,54c0,0,-11,21,-27,32c0,0,-18,11,-40,15c0,0,-24,3,-48,3H28v64H308V825c0,0,0,-22,0,-43c0,0,-1,-24,-4,-43c0,0,0,-23,0,-44h6c0,0,68,139,225,139c0,0,65,-1,115,-17c0,0,50,-18,85,-54c0,0,34,-37,52,-93c0,0,18,-58,18,-135V174c0,0,0,-37,9,-58c0,0,9,-21,24,-32c0,0,16,-13,38,-16c0,0,21,-4,47,-4h4V0H662V527c0,0,0,50,-9,89c0,0,-10,39,-29,66c0,0,-20,26,-52,41c0,0,-33,13,-78,13c0,0,-49,0,-82,-17c0,0,-35,-18,-58,-50c0,0,-24,-33,-34,-78c0,0,-11,-46,-11,-102V166c0,0,0,-33,10,-53c0,0,10,-22,27,-32c0,0,17,-10,40,-13c0,0,22,-4,48,-4h5V0Z" 
id="f0_k"
transform="scale(0.001,-0.001)" />

<path d="M586,481c0,0,0,60,-9,111c0,0,-9,50,-29,85c0,0,-19,36,-51,56c0,0,-33,18,-79,19c0,0,-87,-1,-133,-69c0,0,-46,-69,-46,-202ZM439,-14c0,0,-83,0,-149,27c0,0,-66,28,-112,82c0,0,-46,53,-69,132c0,0,-25,77,-25,177c0,0,0,213,88,322c0,0,88,108,251,108c0,0,73,0,133,-23c0,0,58,-24,100,-69c0,0,41,-46,63,-114c0,0,21,-69,22,-159V399H233c0,0,0,-84,15,-143c0,0,15,-61,44,-99c0,0,28,-40,71,-57c0,0,40,-19,93,-19c1,0,2,0,4,0c0,0,38,0,73,9c0,0,33,9,62,24c0,0,26,14,48,34c0,0,21,18,35,40c0,0,10,-4,20,-19c0,0,9,-15,9,-33c0,0,0,-24,-16,-49c0,0,-17,-27,-50,-50C641,37,607,14,557,0c0,0,-50,-14,-118,-14Z" 
id="f0_9"
transform="scale(0.001,-0.001)" />

<path d="M518,83c0,0,50,0,86,21c0,0,35,21,58,63c0,0,23,41,33,104c0,0,10,61,11,142c0,0,-1,80,-11,142c0,0,-10,60,-33,101c0,0,-23,40,-58,60c0,0,-38,20,-88,20c0,0,-60,0,-99,-19c0,0,-41,-20,-64,-61c0,0,-24,-40,-34,-101c0,0,-10,-62,-10,-144c0,0,0,-80,10,-141c0,0,10,-62,35,-103c0,0,23,-42,64,-63c0,0,39,-21,100,-21ZM28,-366v64H40c0,0,25,0,49,4c0,0,22,3,39,16c0,0,17,11,27,33c0,0,10,21,10,58V650c0,0,0,33,-10,55c0,0,-11,20,-27,31c0,0,-18,11,-40,15c0,0,-24,3,-48,4H20v64H287L303,681h6c0,0,16,34,39,63c0,0,21,28,50,49c0,0,27,19,64,31c0,0,36,9,80,10c0,0,75,0,134,-25c0,0,58,-26,98,-76c0,0,38,-53,60,-132c0,0,20,-80,20,-190c0,0,0,-111,-20,-191c0,0,-22,-80,-60,-133c0,0,-40,-53,-98,-77c0,0,-57,-24,-131,-24c-1,0,-2,0,-3,0h-2c-8,0,-46,1,-77,10c0,0,-37,8,-65,26c0,0,-29,18,-50,43c0,0,-23,24,-39,54h-3c0,0,0,-39,0,-73c0,0,0,-15,0,-30c0,0,0,-15,0,-28c0,0,0,-14,0,-24c0,0,0,-11,0,-17V-199c0,0,0,-33,10,-54c0,0,10,-21,28,-31c0,0,17,-11,41,-14c0,0,23,-4,49,-4h5v-64Z" 
id="f0_v"
transform="scale(0.001,-0.001)" />

<path d="M442,64c0,0,56,0,97,23c0,0,38,22,64,66c0,0,24,43,36,108c0,0,9,65,10,150c0,0,0,85,-11,149c0,0,-11,64,-36,108c0,0,-25,42,-64,64c0,0,-41,21,-98,21c0,0,-58,0,-97,-21c0,0,-39,-22,-64,-64c0,0,-25,-44,-36,-108c0,0,-11,-64,-11,-149c0,0,0,-85,11,-150c0,0,11,-65,37,-108c0,0,24,-44,65,-66c0,0,38,-23,97,-23Zm-3,-78c0,0,-83,0,-149,25c0,0,-66,26,-111,79c0,0,-47,52,-70,134c0,0,-25,79,-25,187c0,0,0,213,91,319c0,0,90,103,268,104c0,0,82,0,149,-25c0,0,65,-26,111,-79c0,0,46,-53,71,-132c0,0,23,-80,23,-187c0,0,0,-216,-91,-321C706,90,614,-14,439,-14Z" 
id="f0_i"
transform="scale(0.001,-0.001)" />

<path d="M20,0V64H40c0,0,25,0,49,4c0,0,22,3,39,16c0,0,17,11,27,32c0,0,10,21,10,58V993c0,0,0,33,-10,54c0,0,-11,21,-27,32c0,0,-18,11,-40,15c0,0,-24,3,-48,3H20v64H309V174c0,0,-1,-37,10,-58c0,0,9,-21,26,-32c0,0,17,-13,41,-16c0,0,22,-4,48,-4h20V0Z" 
id="f0_t"
transform="scale(0.001,-0.001)" />

<path d="M348,79c0,0,46,0,85,15c0,0,36,14,64,42c0,0,25,27,40,66c0,0,14,39,14,87V412H454c0,0,-65,0,-109,-14c0,0,-44,-13,-70,-36c0,0,-27,-25,-39,-59c0,0,-12,-35,-11,-80c0,0,0,-73,30,-108c0,0,29,-36,93,-36ZM313,-14c0,0,-50,0,-94,14c0,0,-44,14,-75,45c0,0,-33,30,-50,77c0,0,-18,47,-18,109c0,0,0,123,87,182c0,0,85,59,261,60H551v93c0,0,0,42,-4,78c0,0,-5,34,-20,60c0,0,-15,26,-42,40c0,0,-28,14,-75,14c0,0,-44,0,-71,-12c0,0,-29,-13,-43,-35c0,0,-16,-23,-21,-53c0,0,-6,-31,-5,-66c0,0,-64,0,-96,21c0,0,-34,21,-34,75c0,0,0,39,22,67c0,0,21,28,60,45c0,0,36,17,87,26c0,0,49,7,107,8c0,0,69,0,122,-13c0,0,52,-15,87,-46c0,0,34,-31,53,-81c0,0,17,-52,17,-124V174c0,0,0,-33,5,-53c0,0,6,-22,17,-34c0,0,10,-12,30,-18c0,0,15,-5,38,-5c2,0,3,0,5,0h4V0H588L564,131H551c0,0,-24,-33,-46,-59c0,0,-22,-27,-49,-46C456,26,429,6,395,-3c0,0,-35,-11,-82,-11Z" 
id="f0_3"
transform="scale(0.001,-0.001)" />

<path d="M51,0V64h4c0,0,26,0,49,4c0,0,23,3,40,16c0,0,16,11,27,32c0,0,10,21,10,58V650c0,0,0,33,-10,55c0,0,-11,20,-28,31c0,0,-17,11,-39,15c0,0,-24,3,-49,4H51v64H286L315,668h7c0,0,14,34,31,65c0,0,15,29,39,53c0,0,22,22,56,35c0,0,33,12,84,13c0,0,83,0,124,-29c0,0,41,-30,41,-82c0,0,0,-24,-8,-44c0,0,-9,-20,-25,-34c0,0,-17,-15,-44,-23c0,0,-27,-8,-66,-8c0,0,0,63,-18,92c0,0,-18,27,-62,27c0,0,-29,0,-51,-15c0,0,-22,-18,-39,-43c0,0,-17,-27,-28,-61c0,0,-13,-35,-19,-70c0,0,-8,-37,-10,-73c0,0,-4,-35,-3,-64V166c0,0,0,-33,10,-53c0,0,10,-22,27,-32c0,0,16,-10,40,-13c0,0,22,-4,48,-4h43V0Z" 
id="f0_a"
transform="scale(0.001,-0.001)" />

<path d="M35,0V64H55c0,0,25,0,49,4c0,0,22,3,39,13c0,0,17,10,28,32c0,0,10,20,10,53V650c0,0,0,33,-10,55c0,0,-11,20,-28,31c0,0,-17,11,-39,15c0,0,-24,3,-49,4H51v64H324V174c0,0,0,-37,10,-58c0,0,10,-21,27,-32c0,0,16,-13,40,-16c0,0,22,-4,48,-4h20V0ZM249,972c-1,0,-2,0,-3,0c0,0,-1,0,-2,0c-5,0,-20,0,-32,5c0,0,-16,5,-28,16c0,0,-12,11,-18,29c0,0,-7,18,-7,45c0,0,0,27,7,45c0,0,6,17,18,29c0,0,12,11,28,15c0,0,15,5,34,5c0,0,18,0,34,-5c0,0,15,-4,27,-15c0,0,11,-12,19,-29c0,0,7,-18,7,-45c0,0,0,-27,-7,-45c0,0,-8,-18,-19,-29c0,0,-12,-11,-27,-16c0,0,-14,-5,-31,-5Z" 
id="f0_b"
transform="scale(0.001,-0.001)" />

<path d="M367,-14c0,0,-59,0,-100,13c0,0,-42,10,-69,38c0,0,-27,27,-39,73c0,0,-14,45,-14,112V732H29v61c0,0,28,0,61,11c0,0,32,11,58,37c0,0,26,28,43,68c0,0,15,38,28,98h70V819H489V732H289V217c0,0,-1,-78,32,-115c0,0,30,-36,83,-36c0,0,1,0,1,0c0,0,2,0,6,0c9,0,28,0,45,3c0,0,23,3,47,7V9C503,9,492,4,477,0c0,0,-15,-3,-33,-6c0,0,-20,-5,-39,-6c0,0,-20,-2,-38,-2Z" 
id="f0_h"
transform="scale(0.001,-0.001)" />

<path d="M58,-366v72h1c8,0,79,1,133,23c0,0,55,24,97,64c0,0,39,40,68,95c0,0,26,55,45,118L119,674c0,0,-10,23,-20,39c0,0,-10,14,-21,25c0,0,-13,9,-29,13c0,0,-17,3,-39,4H6v64H373V755h-4c0,0,-47,0,-69,-18c0,0,-24,-18,-23,-56c0,0,-1,-13,3,-25c0,0,2,-14,9,-31L401,353c0,0,9,-27,22,-57c0,0,11,-31,22,-61c0,0,9,-31,18,-57c0,0,7,-28,11,-47h4c0,0,8,34,23,82c0,0,14,48,34,103L637,614c0,0,7,19,11,36c0,0,2,16,2,30c0,0,0,38,-24,57c0,0,-26,18,-76,18h-5v64H863V755h-4c0,0,-23,0,-38,-5c0,0,-18,-6,-30,-18c0,0,-13,-14,-24,-37c0,0,-11,-24,-25,-59L510,-5c0,0,-27,-74,-50,-130c0,0,-25,-56,-50,-95c0,0,-27,-41,-57,-67c0,0,-32,-26,-71,-41c0,0,-40,-17,-91,-22c0,0,-51,-6,-119,-6Z" 
id="f0_p"
transform="scale(0.001,-0.001)" />

<path d="M41,0V64H61c0,0,26,0,49,4c0,0,23,3,40,16c0,0,16,11,27,32c0,0,9,21,9,58V747H47v72H186v76c0,0,0,68,19,121c0,0,19,52,54,88c0,0,34,35,85,55c0,0,50,17,113,17c0,0,58,0,100,-7c0,0,41,-8,67,-22c0,0,24,-15,35,-34c0,0,12,-20,12,-43c0,0,0,-22,-9,-37c0,0,-11,-17,-26,-27c0,0,-18,-11,-40,-16c0,0,-24,-6,-51,-6c0,0,0,23,-4,45c0,0,-6,21,-17,39c0,0,-12,17,-31,28c0,0,-19,10,-48,10c0,0,-34,0,-55,-12c0,0,-22,-13,-36,-38c0,0,-13,-26,-18,-62c0,0,-6,-37,-6,-85V819H545V747H330V174c0,0,0,-37,10,-58c0,0,10,-21,27,-32c0,0,16,-13,40,-16c0,0,22,-4,48,-4h58V0Z" 
id="f0_n"
transform="scale(0.001,-0.001)" />

<path d="M43,0V64H55c0,0,26,0,49,4c0,0,23,3,40,16c0,0,16,11,27,32c0,0,10,21,10,58V650c0,0,0,33,-10,55c0,0,-11,20,-28,31c0,0,-17,11,-39,15c0,0,-24,3,-49,4H51v64H298L318,695h7c0,0,23,42,51,70c0,0,25,27,56,43c0,0,29,14,63,21c0,0,32,5,69,5c0,0,60,-1,108,-17c0,0,47,-18,81,-54c0,0,32,-37,50,-93c0,0,17,-58,18,-135V174c0,0,0,-37,9,-58c0,0,7,-21,23,-32c0,0,16,-13,38,-16c0,0,21,-4,47,-4h5V0H677V527c0,0,0,50,-9,89c0,0,-10,39,-29,66c0,0,-20,26,-52,41c0,0,-33,13,-78,13c0,0,-53,0,-88,-20c0,0,-36,-20,-57,-54c0,0,-22,-35,-31,-79c0,0,-10,-45,-9,-94V166c0,0,0,-33,10,-53c0,0,10,-22,27,-32c0,0,16,-10,40,-13c0,0,22,-4,48,-4h5V0Z" 
id="f0_7"
transform="scale(0.001,-0.001)" />

<path d="M421,83c0,0,59,0,100,20c0,0,39,19,65,60c0,0,23,39,34,101c0,0,10,61,10,144c0,0,0,79,-10,141c0,0,-11,61,-34,103c0,0,-25,41,-65,63c0,0,-41,21,-101,21c0,0,-51,0,-86,-21c0,0,-36,-23,-58,-64c0,0,-24,-42,-34,-103c0,0,-10,-62,-10,-141c0,0,0,-163,44,-244c0,0,43,-80,145,-80ZM395,-14c-8,0,-78,1,-133,24c0,0,-59,24,-98,77c0,0,-39,52,-60,132c0,0,-20,79,-20,189c0,0,0,110,20,191c0,0,21,80,60,133c0,0,39,51,98,77c0,0,58,25,133,25c0,0,44,0,80,-10c0,0,36,-10,65,-27c0,0,28,-18,51,-43c0,0,21,-24,39,-54h4c0,0,0,36,0,70c0,0,0,27,0,57c0,0,0,27,0,41V993c0,0,-1,33,-10,54c0,0,-11,21,-29,32c0,0,-18,11,-41,15c0,0,-24,3,-49,3H492v64H773V168c0,0,0,-34,10,-54c0,0,10,-21,27,-32c0,0,17,-11,40,-14c0,0,22,-4,48,-4h13V0H652L636,137h-6c0,0,-18,-35,-39,-62c0,0,-23,-29,-51,-48C540,27,512,6,476,-3c0,0,-36,-11,-81,-11Z" 
id="f0_z"
transform="scale(0.001,-0.001)" />

<path d="M417,-14c0,0,-60,0,-107,16c0,0,-47,17,-79,54c0,0,-33,36,-49,93c0,0,-17,57,-17,135V650c0,0,0,33,-10,55c0,0,-11,20,-27,31c0,0,-18,11,-40,15c0,0,-24,3,-48,4H35v64H309V292c0,0,0,-51,8,-89c0,0,7,-40,26,-66c0,0,18,-27,49,-40c0,0,29,-14,74,-14c1,0,2,0,3,0c0,0,50,0,88,18c0,0,35,18,59,50c0,0,23,32,34,78c0,0,12,46,12,101V645c0,0,0,35,-10,58c0,0,-10,21,-27,33c0,0,-17,11,-39,15c0,0,-24,3,-50,4h-4v64H805V166c0,0,0,-33,10,-53c0,0,10,-22,27,-32c0,0,17,-10,41,-13c0,0,21,-4,47,-4h5V0H692L672,124h-7c0,0,-24,-44,-51,-70c0,0,-28,-28,-60,-42c0,0,-31,-15,-65,-20c0,0,-35,-6,-72,-6Z" 
id="f0_g"
transform="scale(0.001,-0.001)" />

<path d="M433,-14c0,0,-77,0,-141,23c0,0,-64,23,-110,74c0,0,-46,50,-72,130c0,0,-26,79,-26,192c0,0,0,122,26,205c0,0,26,82,72,132c0,0,46,49,108,71c0,0,61,21,134,21c0,0,47,0,96,-9c0,0,47,-10,85,-29c0,0,38,-19,62,-49c0,0,23,-30,24,-69c0,0,0,-54,-35,-74c0,0,-35,-22,-102,-22c0,0,0,35,-6,68c0,0,-6,32,-20,56c0,0,-15,24,-39,38c0,0,-26,14,-65,14c0,0,-44,0,-79,-16c0,0,-35,-18,-61,-57c0,0,-26,-40,-39,-108c0,0,-13,-69,-13,-170c0,0,-1,-164,54,-243c0,0,54,-80,177,-80h1c6,0,72,1,123,30c0,0,52,30,79,77c0,0,11,-10,19,-24c0,0,7,-15,7,-36c0,0,0,-27,-16,-52c0,0,-17,-26,-49,-47C627,32,594,10,546,0c0,0,-48,-14,-113,-14Z" 
id="f0_f"
transform="scale(0.001,-0.001)" />

<path d="M321,-14c0,0,-58,0,-104,11c0,0,-48,7,-80,29c0,0,-33,20,-50,51c0,0,-18,30,-18,70c0,0,0,30,10,51c0,0,10,20,25,33c0,0,14,11,31,17c0,0,16,4,30,4c0,0,0,-41,8,-75c0,0,8,-36,28,-61c0,0,18,-28,51,-42c0,0,31,-16,78,-16c0,0,41,0,72,11c0,0,31,9,53,28c0,0,21,18,32,44c0,0,11,25,11,56c0,0,0,28,-8,49c0,0,-9,20,-30,38c0,0,-21,17,-58,37c0,0,-37,18,-92,42c0,0,-59,26,-102,51c0,0,-45,23,-72,52c0,0,-29,28,-43,65c0,0,-15,35,-14,86c0,0,-1,52,21,92c0,0,20,40,58,68c0,0,38,26,91,41c0,0,52,15,118,15c0,0,54,0,96,-12c0,0,41,-11,70,-30c0,0,28,-19,43,-44c0,0,14,-27,14,-55c0,0,-1,-42,-28,-66c0,0,-29,-25,-80,-25c-1,0,-2,0,-2,0c0,0,0,76,-32,119c0,0,-32,42,-100,42c0,0,-39,0,-66,-9c0,0,-28,-9,-45,-25c0,0,-18,-17,-26,-39c0,0,-8,-22,-8,-49c0,0,0,-29,10,-50c0,0,10,-22,34,-39c0,0,22,-18,59,-35c0,0,36,-17,86,-38c0,0,60,-26,104,-50c0,0,43,-24,72,-54c0,0,27,-29,41,-65c0,0,13,-37,13,-84c0,0,-1,-60,-21,-105c0,0,-23,-45,-62,-74C539,46,499,14,445,0c0,0,-56,-14,-124,-14Z" 
id="f0_8"
transform="scale(0.001,-0.001)" />

<path d="M454,497c0,0,322,0,322,297c0,0,-1,223,-223,224H483L373,497ZM-30,0l14,64H4c6,0,71,1,103,28c0,0,32,27,43,82L309,923c0,0,5,27,6,42c0,0,0,61,-111,61H185l13,65H590c0,0,166,0,257,-77c0,0,90,-78,91,-218c0,0,0,-174,-117,-272C821,524,704,424,473,424q-1,0,-2,0H357L303,168c0,0,-7,-31,-7,-43c0,0,-1,-61,109,-61c0,0,1,0,2,0h50L443,0Z" 
id="f1_k"
transform="scale(0.001,-0.001)" />

<path d="M315,0L115,674c0,0,-9,23,-19,39c0,0,-10,15,-22,26c0,0,-13,8,-29,12c0,0,-17,3,-39,4H1v64H379V755H359c0,0,-46,0,-69,-13c0,0,-24,-15,-23,-51c0,0,0,-13,5,-31c0,0,3,-18,8,-35L351,369c0,0,8,-29,16,-61c0,0,7,-33,16,-65c0,0,6,-33,12,-61c0,0,6,-29,10,-48h5c0,0,3,19,10,46c0,0,5,24,15,55c0,0,7,29,18,60c0,0,9,30,19,58L631,815h96L880,362c0,0,9,-29,20,-59c0,0,9,-33,18,-63c0,0,9,-31,17,-59c0,0,7,-28,11,-47h4c0,0,7,38,22,94c0,0,14,55,38,129l76,247c0,0,5,18,11,41c0,0,3,21,3,35c0,0,0,38,-24,57c0,0,-26,18,-77,18H988v64h327V755h-19c0,0,-23,0,-39,-5c0,0,-17,-5,-29,-17c0,0,-14,-13,-25,-36c0,0,-11,-24,-22,-61L984,0H862L680,538L652,639L436,0Z" 
id="f0_j"
transform="scale(0.001,-0.001)" />

<path d="M487,67q1,0,2,0c2,0,191,1,310,211c0,0,119,210,119,451c0,0,0,142,-62,219c0,0,-65,77,-178,77c0,0,-192,0,-311,-211C367,814,246,601,246,363c0,0,0,-143,65,-219c0,0,64,-77,176,-77ZM689,-344c-2,0,-282,0,-294,336c0,0,-149,24,-232,136c0,0,-84,110,-84,279c0,0,0,262,172,481c0,0,170,220,440,220c0,0,177,0,286,-111c0,0,108,-111,109,-309c0,0,-1,-233,-142,-446C944,242,801,26,561,-9c0,0,7,-137,46,-198c0,0,39,-62,119,-62c0,0,54,0,104,13l10,-64c0,0,-78,-24,-151,-24Z" 
id="f1_i"
transform="scale(0.001,-0.001)" />

<path d="M351,-291c2,0,3,0,5,0c0,0,1,0,2,0c12,0,84,1,134,15c0,0,52,13,84,38c0,0,31,23,44,58c0,0,12,34,13,74c0,0,0,35,-10,59c0,0,-11,22,-30,35c0,0,-20,12,-49,17c0,0,-29,5,-67,5H327c0,0,-33,0,-62,-5c0,0,-31,-5,-54,-20c0,0,-24,-17,-38,-44c0,0,-15,-29,-14,-74c0,0,0,-34,9,-63c0,0,9,-29,31,-50c0,0,23,-22,61,-33c0,0,35,-12,91,-12Zm34,658c0,0,1,0,1,0c0,0,37,0,64,11c0,0,24,11,42,35c0,0,15,22,23,59c0,0,7,35,7,86c0,0,0,103,-31,152c0,0,-31,49,-106,49c0,0,-74,0,-105,-50c0,0,-33,-50,-32,-153c0,0,0,-98,32,-143c0,0,32,-46,105,-46ZM353,-366c-8,0,-162,1,-239,59c0,0,-80,59,-79,164c0,0,0,45,16,78c0,0,15,34,42,58c0,0,26,22,61,38c0,0,34,14,72,21c0,0,-16,7,-31,18c0,0,-14,11,-26,27c0,0,-13,16,-20,36c0,0,-8,20,-7,45c0,0,0,45,24,79c0,0,23,32,76,64c0,0,-33,13,-58,37c0,0,-27,23,-44,54c0,0,-18,30,-27,65c0,0,-10,36,-9,74c0,0,0,66,18,119c0,0,18,51,53,89c0,0,36,36,90,56c0,0,53,18,126,19c0,0,28,-1,54,-4c0,0,26,-4,50,-11c0,0,22,-8,41,-16c0,0,18,-9,29,-19c0,0,12,12,27,27c0,0,14,14,33,27c0,0,19,12,41,20c0,0,21,7,47,8c0,0,23,-1,40,-6c0,0,17,-7,28,-17c0,0,11,-11,17,-25c0,0,5,-15,5,-31c0,0,0,-17,-4,-31c0,0,-6,-15,-15,-25c0,0,-10,-12,-25,-17c0,0,-15,-7,-36,-7c0,0,0,9,-2,18c0,0,-3,9,-8,17c0,0,-6,7,-16,13c0,0,-10,4,-25,4c0,0,-19,0,-35,-4c0,0,-16,-5,-31,-14c0,0,26,-33,44,-76c0,0,16,-44,16,-109c0,0,-1,-57,-17,-105c0,0,-17,-48,-51,-82c0,0,-35,-36,-86,-56c0,0,-52,-19,-121,-19H348c0,0,-11,0,-21,1c0,0,-10,1,-15,3c0,0,-15,-9,-29,-17c0,0,-13,-9,-23,-20c0,0,-11,-11,-16,-25c0,0,-6,-15,-6,-32c0,0,-1,-19,7,-29c0,0,7,-12,20,-18c0,0,12,-7,30,-8c0,0,17,-2,38,-2H506c0,0,68,-1,116,-17c0,0,48,-17,78,-47c0,0,30,-32,44,-73c0,0,14,-41,14,-90c0,0,-1,-67,-24,-119c0,0,-25,-53,-75,-89c0,0,-50,-38,-126,-58c0,0,-77,-20,-180,-20Z" 
id="f0_y"
transform="scale(0.001,-0.001)" />

<path d="M222,-9c-1,0,-2,0,-3,0c0,0,-1,0,-3,0c-6,0,-22,0,-35,5c0,0,-18,4,-30,16c0,0,-14,12,-21,32c0,0,-8,20,-8,49c0,0,0,30,8,50c0,0,7,19,21,32c0,0,12,11,30,17c0,0,17,5,38,5c0,0,18,0,37,-5c0,0,16,-6,30,-17c0,0,12,-13,21,-32c0,0,8,-20,8,-50c0,0,0,-29,-8,-49c0,0,-9,-20,-21,-32C286,12,272,0,256,-4c0,0,-17,-5,-34,-5Z" 
id="f0_q"
transform="scale(0.001,-0.001)" />

<path d="M562,-212c0,0,-127,52,-217,121c0,0,-91,68,-147,155c0,0,-58,87,-84,193c0,0,-27,104,-27,229c0,0,0,123,27,228c0,0,26,104,84,191c0,0,56,86,147,155c0,0,90,68,217,119v-96c0,0,-70,-47,-115,-112c0,0,-45,-66,-70,-143c0,0,-26,-78,-35,-164c0,0,-10,-88,-9,-178c0,0,-1,-91,9,-179c0,0,9,-88,35,-165c0,0,25,-79,70,-143c0,0,45,-67,115,-113v-98Z" 
id="f2_11"
transform="scale(0.001,-0.001)" />

<path d="M540,99c1,0,2,0,2,0c3,0,76,1,109,82c0,0,34,81,34,233c0,0,0,155,-34,234c0,0,-33,76,-110,76c0,0,-46,0,-76,-18c0,0,-30,-20,-47,-58c0,0,-18,-40,-26,-97c0,0,-8,-60,-7,-138c0,0,-1,-76,7,-134c0,0,8,-60,26,-98c0,0,18,-41,48,-61c0,0,29,-21,74,-21ZM610,-14c-1,0,-2,0,-4,0h-1c-9,0,-47,1,-78,10c0,0,-37,8,-64,26c0,0,-30,18,-51,43c0,0,-23,24,-39,54H359L316,0H26V81H37c0,0,20,0,42,4c0,0,20,3,37,15c0,0,17,10,27,32c0,0,10,21,10,56V978c0,0,0,32,-10,53c0,0,-10,19,-26,31c0,0,-17,11,-38,14c0,0,-22,3,-47,4H26v81H383V900c0,0,0,-24,0,-56c0,0,0,-33,-3,-61c0,0,-4,-34,-7,-68h10c0,0,33,56,88,89c0,0,55,32,141,33c0,0,75,0,132,-25c0,0,57,-26,97,-76c0,0,39,-53,59,-132c0,0,20,-81,20,-191c0,0,0,-112,-20,-192c0,0,-22,-81,-61,-133c0,0,-39,-53,-97,-78c0,0,-59,-24,-132,-24Z" 
id="f2_18"
transform="scale(0.001,-0.001)" />

<path d="M49,-212v98c0,0,70,46,116,113c0,0,44,64,70,143c0,0,24,77,34,165c0,0,9,88,9,179c0,0,0,90,-9,178c0,0,-10,86,-34,164c0,0,-26,77,-70,143c0,0,-46,65,-116,112v96c0,0,127,-51,218,-119c0,0,90,-69,148,-155c0,0,56,-87,83,-191c0,0,25,-105,26,-228c0,0,-1,-125,-26,-229c0,0,-27,-106,-83,-193c0,0,-58,-87,-148,-155c0,0,-91,-69,-218,-121Z" 
id="f2_12"
transform="scale(0.001,-0.001)" />

<path d="M243,0V64h35c0,0,25,0,49,4c0,0,22,3,39,13c0,0,17,10,28,32c0,0,10,20,10,53V455L121,946c0,0,-13,21,-24,37c0,0,-11,14,-23,25c0,0,-14,10,-28,14c0,0,-15,4,-34,4H-6v65H413v-65H356c0,0,-22,0,-34,-3c0,0,-13,-4,-21,-11c0,0,-8,-6,-9,-15c0,0,-4,-9,-3,-19c0,0,-1,-22,9,-43c0,0,9,-22,18,-38L429,692c0,0,26,-47,45,-92c0,0,19,-46,32,-82c0,0,6,16,17,36c0,0,10,20,22,44c0,0,12,22,26,47c0,0,13,23,27,47l97,176c0,0,14,25,22,50c0,0,5,22,6,41c0,0,-1,34,-24,51c0,0,-25,16,-68,16H586v65H959v-65H941c0,0,-17,0,-30,-5c0,0,-16,-6,-30,-19c0,0,-15,-15,-31,-37c0,0,-17,-24,-35,-57L558,455V174c0,0,-1,-37,10,-58c0,0,9,-21,27,-32c0,0,16,-13,40,-16c0,0,21,-4,48,-4h35V0Z" 
id="f0_21"
transform="scale(0.001,-0.001)" />

<path d="M46,-234v64c0,0,74,23,110,58c0,0,34,35,35,79c0,0,-1,15,-8,26c0,0,-9,8,-21,17c0,0,-13,6,-27,15c0,0,-15,7,-27,18c0,0,-13,9,-21,26c0,0,-8,14,-8,38c0,0,0,43,29,67c0,0,28,23,71,23c0,0,23,-1,45,-8c0,0,20,-9,37,-26c0,0,16,-17,26,-41c0,0,9,-27,9,-58c0,0,0,-48,-13,-93c0,0,-14,-46,-44,-84c0,0,-30,-40,-77,-70c0,0,-49,-31,-116,-51ZM196,618c-1,0,-2,0,-4,0h-2c-6,0,-22,1,-35,6c0,0,-18,5,-30,18c0,0,-14,11,-21,32c0,0,-9,20,-8,49c0,0,-1,30,8,50c0,0,7,18,21,31c0,0,12,11,30,17c0,0,17,6,37,6c0,0,19,0,38,-6c0,0,16,-6,30,-17c0,0,12,-13,21,-31c0,0,8,-20,8,-50c0,0,0,-29,-8,-49c0,0,-9,-21,-21,-32c0,0,-14,-13,-30,-18c0,0,-17,-6,-34,-6Z" 
id="f0_20"
transform="scale(0.001,-0.001)" />

<path d="M28,0V64H40c0,0,25,0,49,4c0,0,22,3,39,16c0,0,17,11,27,32c0,0,10,21,10,58V993c0,0,0,33,-10,54c0,0,-11,21,-27,32c0,0,-18,11,-40,15c0,0,-24,3,-48,3H28v64H306V571c0,0,0,-21,0,-53c0,0,0,-32,0,-64c0,0,0,-36,0,-75L495,588c0,0,24,27,40,48c0,0,16,21,25,37c0,0,10,16,14,28c0,0,3,12,3,23c0,0,0,19,-18,26c0,0,-19,5,-56,5v64H840V755c0,0,-54,-1,-104,-37c0,0,-52,-38,-111,-106L518,492L721,189c0,0,39,-61,79,-93c0,0,38,-32,89,-32q1,0,2,0h4V0H874c0,0,-67,0,-109,4c0,0,-44,3,-75,20c0,0,-32,14,-57,45c0,0,-27,29,-59,79L421,388L309,304V166c0,0,0,-33,10,-53c0,0,10,-22,27,-32c0,0,17,-10,40,-13c0,0,22,-4,48,-4h5V0Z" 
id="f0_u"
transform="scale(0.001,-0.001)" />

<path d="M58,0V64H78c0,0,24,0,48,4c0,0,22,3,40,13c0,0,16,10,27,32c0,0,10,20,10,53V923c0,0,0,33,-10,54c0,0,-11,20,-27,32c0,0,-18,11,-40,14c0,0,-24,3,-48,3H58v65H503v-65H483c0,0,-26,0,-49,-3c0,0,-24,-4,-39,-15c0,0,-18,-13,-27,-34c0,0,-11,-21,-11,-57V486L674,848c0,0,23,28,41,51c0,0,15,21,26,39c0,0,9,18,13,32c0,0,3,13,4,24c0,0,0,19,-19,27c0,0,-19,7,-56,7v63h338v-63c0,0,-27,0,-50,-10c0,0,-26,-10,-49,-28c0,0,-25,-19,-50,-45c0,0,-26,-27,-56,-60L595,636L917,186c0,0,43,-61,85,-91c0,0,40,-31,83,-31h3V0h-17c0,0,-77,0,-126,6c0,0,-49,5,-83,22c0,0,-33,15,-58,42c0,0,-26,25,-54,67L487,515L357,410V174c0,0,0,-37,11,-58c0,0,9,-21,27,-32c0,0,15,-13,39,-16c0,0,23,-4,49,-4h20V0Z" 
id="f0_22"
transform="scale(0.001,-0.001)" />

<path d="M46,-234v64c0,0,74,23,110,58c0,0,34,35,35,79c0,0,-1,15,-8,26c0,0,-9,8,-21,17c0,0,-13,6,-27,15c0,0,-15,7,-27,18c0,0,-13,9,-21,26c0,0,-8,14,-8,38c0,0,0,43,29,67c0,0,28,23,71,23c0,0,23,-1,45,-8c0,0,20,-9,37,-26c0,0,16,-17,26,-41c0,0,9,-27,9,-58c0,0,0,-48,-13,-93c0,0,-14,-46,-44,-84c0,0,-30,-40,-77,-70c0,0,-49,-31,-116,-51Z" 
id="f0_16"
transform="scale(0.001,-0.001)" />

<path d="M7,0V64H22c0,0,26,0,48,5c0,0,20,4,40,15c0,0,18,11,37,31c0,0,19,19,41,47L380,411L188,674c0,0,-34,38,-65,60c0,0,-33,21,-66,21H37v64H424V755h-4c0,0,-27,0,-43,-3c0,0,-17,-5,-27,-10c0,0,-11,-7,-14,-15c0,0,-3,-8,-3,-17c0,0,-1,-16,9,-30c0,0,9,-17,27,-40L469,503l79,114c0,0,17,25,28,49c0,0,10,23,10,44c0,0,0,28,-23,37c0,0,-24,7,-59,8h-4v64H834V755H821c0,0,-23,-1,-41,-4c0,0,-19,-4,-36,-14c0,0,-17,-11,-36,-30c0,0,-19,-20,-42,-50L509,448L733,145c0,0,34,-44,64,-62c0,0,29,-19,57,-19q1,0,2,0h20V0H481V64h8c0,0,91,0,91,51c0,0,0,7,-2,17c0,0,-2,8,-9,20c0,0,-7,11,-18,28c0,0,-11,16,-29,40L420,357L313,208c0,0,-6,-9,-14,-21c0,0,-8,-12,-13,-24c0,0,-7,-14,-10,-26c0,0,-4,-13,-4,-25c0,0,0,-27,22,-37c0,0,21,-11,73,-11h4V0Z" 
id="f0_x"
transform="scale(0.001,-0.001)" />

<path d="M518,83c0,0,50,0,86,21c0,0,35,21,58,63c0,0,23,41,33,104c0,0,10,61,11,142c0,0,-1,80,-11,142c0,0,-10,60,-33,101c0,0,-23,40,-58,60c0,0,-38,20,-88,20c0,0,-60,0,-99,-19c0,0,-41,-20,-64,-61c0,0,-24,-40,-34,-101c0,0,-10,-62,-10,-144c0,0,0,-80,10,-141c0,0,10,-62,35,-103c0,0,23,-42,64,-63c0,0,39,-21,100,-21Zm27,-97c-1,0,-2,0,-3,0h-2c-8,0,-46,1,-77,10c0,0,-37,8,-65,26c0,0,-29,18,-50,43c0,0,-23,24,-39,54H299L272,0H28V64H40c0,0,25,0,49,4c0,0,22,3,39,16c0,0,17,11,27,32c0,0,10,21,10,58V993c0,0,0,33,-10,54c0,0,-11,21,-27,32c0,0,-18,11,-40,15c0,0,-24,3,-48,3H28v64H306V880c0,0,0,-26,0,-59c0,0,0,-35,0,-66c0,0,0,-36,0,-74h3c0,0,16,34,39,63c0,0,21,28,50,49c0,0,27,19,64,31c0,0,36,9,80,10c0,0,75,0,134,-25c0,0,58,-26,98,-76c0,0,38,-53,60,-132c0,0,20,-80,20,-190c0,0,0,-111,-20,-191c0,0,-22,-80,-60,-133c0,0,-40,-53,-98,-77c0,0,-57,-24,-131,-24Z" 
id="f0_r"
transform="scale(0.001,-0.001)" />

<path d="M421,0L142,946c0,0,-8,23,-17,39c0,0,-10,16,-22,25c0,0,-13,9,-30,13c0,0,-17,3,-39,3H13v65H434v-65H399c0,0,-46,0,-69,-17c0,0,-23,-18,-23,-56c0,0,0,-12,4,-26c0,0,3,-14,8,-30L460,408c0,0,18,-70,36,-136c0,0,16,-68,30,-122c0,0,11,59,27,130c0,0,14,71,35,144l182,656H880L1071,419c0,0,21,-77,39,-146c0,0,16,-71,27,-123c0,0,11,54,26,116c0,0,13,61,35,135l134,471c0,0,2,9,6,20c0,0,3,11,5,23c0,0,2,10,4,20c0,0,1,10,2,17c0,0,0,39,-25,57c0,0,-26,17,-76,17h-35v65h373v-65h-29c0,0,-23,0,-39,-4c0,0,-17,-5,-31,-17c0,0,-13,-13,-24,-36c0,0,-11,-24,-23,-61L1182,0H1045L796,856L562,0Z" 
id="f0_13"
transform="scale(0.001,-0.001)" />

<path d="M451,-14c0,0,-85,0,-154,21c0,0,-71,21,-120,71c0,0,-51,50,-78,131c0,0,-28,80,-27,198c0,0,0,123,29,206c0,0,27,82,79,133c0,0,50,50,118,72c0,0,68,20,148,20c0,0,73,0,131,-11c0,0,56,-14,94,-35c0,0,38,-21,59,-50c0,0,18,-31,19,-64c0,0,-1,-25,-8,-48c0,0,-10,-24,-31,-41c0,0,-22,-18,-60,-30c0,0,-40,-11,-99,-11c0,0,0,39,-4,76c0,0,-6,35,-17,62c0,0,-11,26,-29,44c0,0,-20,15,-49,15c0,0,-34,0,-60,-15c0,0,-26,-18,-45,-56c0,0,-20,-39,-29,-103c0,0,-11,-66,-11,-163c0,0,0,-156,43,-232c0,0,42,-77,137,-77q1,0,2,0h1c8,0,42,1,73,10c0,0,35,9,63,26c0,0,27,16,50,40c0,0,21,22,34,48c0,0,19,-11,28,-30c0,0,9,-19,9,-40c0,0,-1,-29,-17,-59c0,0,-18,-31,-53,-54C677,40,639,15,584,1c0,0,-57,-15,-133,-15Z" 
id="f2_o"
transform="scale(0.001,-0.001)" />

<path d="M58,0V64H78c0,0,24,0,48,4c0,0,22,3,40,13c0,0,16,10,27,32c0,0,10,20,10,53V923c0,0,0,33,-10,54c0,0,-11,20,-27,32c0,0,-18,11,-40,14c0,0,-24,3,-48,3H58v65H407L723,217l313,874h339v-65h-20c0,0,-26,0,-48,-3c0,0,-24,-4,-40,-15c0,0,-17,-13,-27,-34c0,0,-11,-21,-10,-57V174c0,0,-1,-37,10,-58c0,0,10,-21,27,-32c0,0,16,-13,40,-16c0,0,22,-4,48,-4h20V0H968V64h6c0,0,24,0,44,4c0,0,20,3,34,13c0,0,14,10,22,29c0,0,8,19,8,50V976L733,0H650L296,974V174c0,0,-1,-37,8,-58c0,0,7,-21,22,-32c0,0,13,-13,35,-16c0,0,19,-4,46,-4h4V0Z" 
id="f0_1r"
transform="scale(0.001,-0.001)" />

<path d="M38,359V474H436V359Z" 
id="f0_1j"
transform="scale(0.001,-0.001)" />

<path d="M439,497c0,0,69,0,118,15c0,0,49,14,81,47c0,0,31,32,46,83c0,0,14,50,14,123c0,0,-1,64,-12,112c0,0,-14,47,-41,79c0,0,-29,31,-74,47c0,0,-46,14,-110,15H357V497ZM58,0V64H78c0,0,25,0,49,4c0,0,22,3,39,16c0,0,17,11,27,32c0,0,10,21,10,58V923c0,0,0,33,-10,54c0,0,-11,20,-27,32c0,0,-18,11,-40,14c0,0,-24,3,-48,3H58v65H487c0,0,96,-1,167,-22c0,0,70,-22,117,-63c0,0,46,-42,70,-101c0,0,22,-60,22,-134c0,0,0,-68,-21,-130c0,0,-22,-63,-70,-111c0,0,-48,-49,-127,-76c0,0,-79,-30,-191,-30H357V166c0,0,0,-33,11,-53c0,0,9,-22,27,-32c0,0,16,-10,40,-13c0,0,22,-4,48,-4h50V0Z" 
id="f0_1i"
transform="scale(0.001,-0.001)" />

<path d="M567,67c0,0,85,0,145,33c0,0,59,32,96,94c0,0,36,61,53,151c0,0,16,88,16,202c0,0,0,112,-16,203c0,0,-17,88,-53,150c0,0,-37,60,-96,93c0,0,-59,32,-144,32c0,0,-85,0,-144,-32c0,0,-61,-33,-97,-93c0,0,-38,-62,-55,-150c0,0,-17,-91,-17,-203c0,0,0,-114,17,-202c0,0,17,-90,54,-151c0,0,37,-62,97,-94c0,0,59,-33,144,-33ZM853,-350c-9,0,-65,0,-119,16c0,0,-60,16,-110,55c0,0,-50,38,-82,105c0,0,-33,65,-41,163c0,0,-106,11,-182,55c0,0,-79,43,-130,117c0,0,-52,72,-77,171c0,0,-26,97,-26,216c0,0,-1,126,30,231c0,0,29,103,89,176c0,0,59,72,151,113c0,0,90,39,212,40c0,0,115,-1,205,-40c0,0,88,-41,150,-113c0,0,61,-74,92,-177c0,0,32,-104,32,-231c0,0,0,-112,-25,-206c0,0,-25,-94,-72,-166c0,0,-49,-72,-119,-118C831,57,759,10,669,-5c0,0,6,-78,26,-131c0,0,18,-52,47,-84c0,0,29,-33,68,-45c0,0,39,-14,85,-14h25v-71H853Z" 
id="f0_23"
transform="scale(0.001,-0.001)" />

<path d="M448,99c0,0,45,0,76,20c0,0,29,18,48,57c0,0,17,38,26,98c0,0,7,57,7,137c0,0,0,75,-7,134c0,0,-9,59,-26,99c0,0,-19,39,-48,60c0,0,-31,20,-76,20c0,0,-38,0,-65,-20c0,0,-29,-21,-44,-61c0,0,-17,-40,-25,-98c0,0,-8,-60,-8,-135c0,0,0,-156,33,-233c0,0,31,-78,109,-78ZM386,-14c-1,0,-3,0,-4,0h-1c-7,0,-77,1,-132,24c0,0,-59,24,-98,77c0,0,-40,52,-60,132c0,0,-22,79,-21,189c0,0,-1,110,21,192c0,0,20,80,60,133c0,0,38,53,97,79c0,0,56,25,131,25c0,0,43,0,78,-9c0,0,35,-10,63,-25c0,0,28,-17,49,-39c0,0,21,-22,37,-49h9c0,0,0,42,-6,79c0,0,0,15,0,33c0,0,0,16,-2,31c0,0,-2,14,-2,25c0,0,0,11,0,18v84c0,0,0,32,-10,51c0,0,-10,18,-27,29c0,0,-17,8,-39,12c0,0,-22,3,-48,3H469v81H837V188c0,0,0,-35,10,-56c0,0,10,-22,29,-32c0,0,16,-12,40,-15c0,0,22,-4,48,-4h6V0H674L631,119H617c0,0,-18,-31,-39,-56c0,0,-23,-25,-51,-41C527,22,498,4,463,-4c0,0,-34,-10,-77,-10Z" 
id="f2_a"
transform="scale(0.001,-0.001)" />

<path d="M465,553c0,0,67,0,112,15c0,0,44,14,71,44c0,0,26,30,39,75c0,0,11,45,11,104c0,0,-1,61,-12,105c0,0,-14,42,-41,70c0,0,-29,27,-74,40c0,0,-46,12,-110,12H357V553ZM982,0C963,0,909,0,873,5c0,0,-46,5,-79,20c0,0,-32,15,-54,42c0,0,-24,26,-49,70L484,481H357V166c0,0,0,-33,11,-53c0,0,9,-22,27,-32c0,0,16,-10,40,-13c0,0,22,-4,48,-4h20V0H58V64H78c0,0,24,0,48,4c0,0,22,3,40,13c0,0,16,10,27,32c0,0,10,20,10,53V923c0,0,0,33,-10,54c0,0,-11,20,-27,32c0,0,-18,11,-40,14c0,0,-24,3,-48,3H58v65H469c0,0,198,-1,296,-73c0,0,97,-74,97,-222c0,0,-1,-62,-20,-107c0,0,-20,-46,-52,-80c0,0,-33,-33,-72,-55c0,0,-41,-23,-81,-36L847,186c0,0,38,-61,75,-91c0,0,37,-31,85,-31h5V0H990c0,0,-3,0,-8,0Z" 
id="f0_e"
transform="scale(0.001,-0.001)" />

<path d="M-31,0l12,64H0c0,0,72,0,103,25c0,0,31,24,45,77L309,923c0,0,5,27,6,42c0,0,0,61,-111,61H185l13,65H968L920,824H840l3,26c0,0,1,15,2,27c0,0,3,25,3,35c0,0,0,102,-115,103H483L388,573H756L741,498H373L304,174c0,0,-6,-25,-5,-38c0,0,-1,-72,106,-72h50L443,0Z" 
id="f1_l"
transform="scale(0.001,-0.001)" />

<path d="M-31,0l12,64H0c0,0,126,0,150,110L309,923c0,0,5,27,6,42c0,0,0,61,-111,61H185l13,65H643l-13,-65H609c0,0,-73,0,-105,-27c0,0,-33,-28,-43,-82L303,168c0,0,-7,-33,-7,-43c0,0,-1,-61,109,-61c0,0,1,0,2,0h19L413,0Z" 
id="f1_m"
transform="scale(0.001,-0.001)" />

<path d="M431,76c3,0,292,1,292,283c0,0,-1,174,-214,174H380L283,76H431Zm82,533c0,0,272,0,273,232c0,0,0,174,-212,174H483L395,609ZM450,0c-1,0,-2,0,-2,0H-31l12,64H0c0,0,126,0,150,110L309,923c0,0,5,27,6,42c0,0,0,61,-111,61H185l13,65H595c0,0,356,0,357,-229c0,0,0,-226,-249,-285l-2,-6c0,0,187,-37,187,-223c0,0,0,-167,-113,-258C775,90,663,0,450,0Z" 
id="f1_b"
transform="scale(0.001,-0.001)" />

<path d="M238,-14c0,0,-56,0,-90,39c0,0,-36,41,-36,105c0,0,0,72,33,240L270,956c0,0,10,45,10,69c0,0,0,72,-108,72H154l14,64H457L280,328c0,0,-24,-109,-23,-169c0,0,0,-78,50,-78c0,0,44,0,110,40L445,76c0,0,-107,-90,-207,-90Z" 
id="f1_j"
transform="scale(0.001,-0.001)" />

<path d="M557,-14c-2,0,-4,0,-6,0c0,0,-115,0,-200,39c0,0,-87,41,-145,115c0,0,-60,73,-89,177c0,0,-30,103,-30,230c0,0,0,124,32,227c0,0,31,103,93,176c0,0,61,73,153,115c0,0,92,41,212,41c0,0,79,0,137,-12c0,0,57,-14,96,-37c0,0,38,-24,58,-54c0,0,18,-32,18,-68c0,0,0,-26,-9,-44c0,0,-11,-20,-29,-34c0,0,-18,-15,-42,-21c0,0,-23,-8,-49,-8c-1,0,-2,0,-4,0c0,0,0,36,-9,71c0,0,-10,34,-30,63c0,0,-22,28,-55,46c0,0,-35,16,-85,17c0,0,-86,0,-147,-31c0,0,-60,-33,-98,-93c0,0,-39,-62,-55,-150c0,0,-17,-89,-17,-204c0,0,0,-102,18,-187c0,0,17,-85,56,-146c0,0,39,-62,99,-95c0,0,59,-33,144,-33c0,0,56,0,100,11c0,0,42,10,75,28c0,0,32,18,58,42c0,0,25,22,44,49c0,0,12,-9,21,-23c0,0,8,-15,8,-37c0,0,0,-29,-19,-59c0,0,-20,-31,-61,-55C800,42,759,17,698,1c0,0,-59,-15,-141,-15Z" 
id="f0_d"
transform="scale(0.001,-0.001)" />

<path d="M574,490c0,0,0,58,-6,105c0,0,-8,45,-22,78c0,0,-15,32,-37,49c0,0,-24,17,-56,17c0,0,-65,0,-103,-63c0,0,-38,-64,-38,-186ZM468,-14c0,0,-98,0,-171,27c0,0,-75,28,-125,82c0,0,-50,54,-75,133c0,0,-26,76,-25,177c0,0,-1,107,25,189c0,0,25,80,74,136c0,0,48,53,119,82c0,0,70,26,161,26c0,0,82,0,149,-23c0,0,65,-24,112,-70c0,0,46,-47,71,-115c0,0,25,-69,25,-159V392H308c0,0,0,-77,15,-132c0,0,14,-55,40,-91c0,0,26,-36,63,-53c0,0,37,-17,85,-17c0,0,1,0,2,0c8,0,41,1,71,10c0,0,34,9,61,26c0,0,28,16,48,40c0,0,21,22,34,48c0,0,41,-22,41,-75c0,0,0,-32,-18,-61c0,0,-18,-31,-55,-53C695,34,658,12,602,0c0,0,-57,-14,-134,-14Z" 
id="f2_5"
transform="scale(0.001,-0.001)" />

<path d="M382,-14c-2,0,-3,0,-5,0c0,0,-75,0,-131,15c0,0,-57,15,-95,44c0,0,-40,27,-58,68c0,0,-20,38,-20,87c0,0,0,45,29,75c0,0,29,27,82,28c0,0,0,-49,13,-92c0,0,12,-44,36,-77c0,0,24,-34,64,-54c0,0,38,-20,92,-20c6,0,104,0,161,50c0,0,58,49,58,142c0,0,0,41,-12,74c0,0,-13,31,-39,60c0,0,-29,26,-73,52c0,0,-46,24,-113,52c0,0,-71,29,-123,63c0,0,-54,32,-88,74c0,0,-36,39,-53,90c0,0,-17,50,-17,113c0,0,0,65,26,117c0,0,24,51,69,87c0,0,44,34,106,54c0,0,60,18,133,18c0,0,68,0,122,-14c0,0,52,-15,90,-38c0,0,36,-25,56,-54c0,0,18,-32,18,-65c0,0,0,-50,-32,-74c0,0,-33,-26,-86,-26c0,0,-1,1,-2,1c0,0,-1,35,-8,70c0,0,-9,34,-29,62c0,0,-21,27,-53,44c0,0,-34,17,-81,17c0,0,-45,0,-79,-11c0,0,-36,-13,-59,-36c0,0,-24,-23,-36,-55c0,0,-13,-33,-13,-71c0,0,-1,-47,12,-80c0,0,12,-35,40,-63c0,0,27,-28,73,-53c0,0,46,-26,112,-52c0,0,67,-28,120,-58c0,0,52,-32,89,-68c0,0,37,-39,56,-84c0,0,19,-47,19,-106c0,0,0,-73,-26,-129c0,0,-27,-59,-76,-97C651,66,602,26,533,6c0,0,-67,-20,-151,-20Z" 
id="f0_1a"
transform="scale(0.001,-0.001)" />

<path d="M254,-12L147,674c0,0,-13,81,-106,81H26l12,64H267L338,367c0,0,27,-174,35,-271h4c0,0,114,110,198,257c0,0,84,146,84,235c0,0,-1,54,-26,85c0,0,-27,31,-69,31c0,0,-1,55,30,89c0,0,30,34,74,34c0,0,103,0,103,-142c0,0,0,-139,-105,-325C666,360,559,173,391,1L254,-12Z" 
id="f1_g"
transform="scale(0.001,-0.001)" />

<path d="M147,0V64H249c0,0,26,0,49,4c0,0,23,3,40,16c0,0,16,11,27,32c0,0,9,21,9,58V976c0,0,-29,-35,-55,-64c0,0,-27,-29,-50,-50c0,0,-24,-22,-46,-32c0,0,-22,-12,-44,-12c0,0,-1,0,-1,0c0,0,-1,0,-1,0c-3,0,-35,0,-55,23c0,0,-21,21,-21,59c0,0,23,5,47,15c0,0,23,7,50,22c0,0,25,13,57,34c0,0,30,18,69,47l107,79h98V174c0,0,-1,-37,10,-58c0,0,9,-21,26,-32c0,0,17,-13,41,-16c0,0,22,-4,48,-4h75V0Z" 
id="f0_14"
transform="scale(0.001,-0.001)" />

<path d="M78,0V112L333,407c0,0,61,70,103,126c0,0,40,56,66,106c0,0,25,49,37,97c0,0,11,47,11,100c0,0,0,43,-9,79c0,0,-11,35,-29,61c0,0,-19,25,-48,40c0,0,-31,13,-70,13c0,0,-53,0,-84,-18c0,0,-33,-20,-52,-50c0,0,-19,-31,-25,-73c0,0,-7,-41,-7,-86c0,0,-28,0,-51,4c0,0,-24,4,-42,17c0,0,-18,11,-28,30c0,0,-10,19,-10,48c0,0,0,43,19,82c0,0,19,37,57,65c0,0,36,28,93,43c0,0,56,15,130,15c0,0,72,0,130,-18c0,0,56,-19,97,-51c0,0,41,-34,62,-81c0,0,21,-47,21,-105c0,0,-1,-54,-17,-104c0,0,-18,-52,-50,-104c0,0,-33,-54,-80,-111c0,0,-48,-58,-108,-124L191,122H545c7,0,36,1,56,10c0,0,21,10,36,25c0,0,14,15,22,37c0,0,7,20,13,42l6,28h61V0Z" 
id="f0_17"
transform="scale(0.001,-0.001)" />

<path d="M0,-184L351,1161h89L90,-184Z" 
id="f0_1p"
transform="scale(0.001,-0.001)" />

<path d="M427,67c0,0,56,0,94,33c0,0,38,32,62,94c0,0,23,61,34,151c0,0,10,88,10,202c0,0,0,112,-10,202c0,0,-11,88,-34,150c0,0,-24,60,-61,93c0,0,-39,31,-93,31c0,0,-56,0,-94,-31c0,0,-40,-33,-63,-93c0,0,-24,-62,-34,-150c0,0,-10,-90,-10,-202c0,0,0,-114,10,-202c0,0,10,-90,34,-151c0,0,23,-62,62,-94c0,0,38,-33,93,-33Zm0,-81c0,0,-94,0,-161,39c0,0,-69,41,-112,115c0,0,-44,73,-64,178c0,0,-22,103,-21,230c0,0,-1,126,21,230c0,0,20,103,64,176c0,0,44,72,112,113c0,0,67,39,163,39c0,0,89,0,157,-39c0,0,65,-41,111,-113c0,0,45,-73,67,-176c0,0,21,-104,22,-231c0,0,-1,-127,-22,-230c0,0,-22,-104,-67,-177C697,140,652,66,585,25c0,0,-67,-39,-158,-39Z" 
id="f0_15"
transform="scale(0.001,-0.001)" />

<path d="M58,0V64H78c0,0,25,0,49,4c0,0,22,3,39,16c0,0,17,11,27,32c0,0,10,21,10,58V923c0,0,0,33,-10,54c0,0,-11,20,-27,32c0,0,-18,11,-40,14c0,0,-24,3,-48,3H58v65H503v-65H483c0,0,-26,0,-49,-3c0,0,-24,-4,-39,-15c0,0,-18,-13,-27,-34c0,0,-11,-21,-11,-57V608H854V917c0,0,0,36,-10,57c0,0,-10,21,-26,34c0,0,-18,11,-40,15c0,0,-24,3,-49,3H709v65h444v-65h-19c0,0,-26,0,-49,-3c0,0,-23,-4,-40,-15c0,0,-17,-13,-27,-34c0,0,-10,-21,-9,-57V166c0,0,0,-33,10,-53c0,0,10,-22,27,-32c0,0,16,-10,40,-13c0,0,22,-4,48,-4h19V0H709V64h20c0,0,25,0,49,4c0,0,22,3,40,16c0,0,16,11,26,32c0,0,10,21,10,58V532H357V174c0,0,0,-37,11,-58c0,0,9,-21,27,-32c0,0,15,-13,39,-16c0,0,23,-4,49,-4h20V0Z" 
id="f0_1h"
transform="scale(0.001,-0.001)" />

<path d="M223,-9c-1,0,-2,0,-3,0c0,0,-1,0,-2,0c-6,0,-22,0,-35,5c0,0,-19,4,-31,16c0,0,-13,12,-21,32c0,0,-8,20,-7,49c0,0,-1,30,7,50c0,0,8,19,21,32c0,0,12,11,31,17c0,0,16,5,37,5c0,0,19,0,37,-5c0,0,17,-6,31,-17c0,0,12,-13,21,-32c0,0,7,-20,7,-50c0,0,0,-29,-7,-49c0,0,-9,-20,-21,-32C288,12,274,0,257,-4c0,0,-16,-5,-34,-5Zm0,627c-1,0,-2,0,-3,0c0,0,-1,0,-2,0c-6,0,-22,1,-35,6c0,0,-19,5,-31,18c0,0,-13,11,-21,32c0,0,-8,20,-7,49c0,0,-1,30,7,50c0,0,8,18,21,31c0,0,12,11,31,17c0,0,16,6,37,6c0,0,19,0,37,-6c0,0,17,-6,31,-17c0,0,12,-13,21,-31c0,0,7,-20,7,-50c0,0,0,-29,-7,-49c0,0,-9,-21,-21,-32c0,0,-14,-13,-31,-18c0,0,-16,-6,-34,-6Z" 
id="f0_1o"
transform="scale(0.001,-0.001)" />

<path d="M412,-18c0,0,-144,0,-239,85c0,0,-95,86,-108,222l133,18c0,0,24,-114,79,-164c0,0,55,-50,135,-50c0,0,96,0,161,65c0,0,65,66,65,163c0,0,0,92,-61,152c0,0,-60,60,-153,60c0,0,-38,0,-95,-15l15,119c0,0,13,-2,21,-2c0,0,86,0,155,45c0,0,69,44,69,137c0,0,0,74,-50,122c0,0,-50,49,-129,49c0,0,-79,0,-131,-50c0,0,-52,-49,-67,-147L78,815c0,0,25,135,112,209c0,0,87,74,217,74c0,0,89,0,164,-38c0,0,76,-39,116,-105c0,0,40,-66,40,-141c0,0,0,-70,-39,-129c0,0,-38,-58,-112,-92c0,0,97,-22,151,-93c0,0,53,-70,53,-176c0,0,0,-143,-104,-243c0,0,-105,-99,-264,-99Z" 
id="f3_n"
transform="scale(0.001,-0.001)" />

<path d="M225,0c0,0,2,129,51,312c0,0,48,183,139,352c0,0,91,170,193,286H72v129H780V975C780,975,676,864,573,680C573,680,470,495,414,301C414,301,374,163,363,0Z" 
id="f3_r"
transform="scale(0.001,-0.001)" />


</defs>
</svg>