<?xml version="1.0" encoding="UTF-8" standalone="no"?>
<!DOCTYPE svg PUBLIC "-//W3C//DTD SVG 1.1//EN"
"http://www.w3.org/Graphics/SVG/1.1/DTD/svg11.dtd">
<svg viewBox="0 0 909 1286" version="1.1" xmlns="http://www.w3.org/2000/svg" xmlns:xlink="http://www.w3.org/1999/xlink">
<defs>
<clipPath id="c0_11"><path d="M165.7,863.3V842.4h30.5v20.9Z" /></clipPath>
<style type="text/css"><![CDATA[
.g0_11{
fill: none;
stroke: #FFFFFF;
stroke-width: 0.77152777;
stroke-linecap: round;
stroke-linejoin: round;
}
.g1_11{
fill: #1F1A17;
}
.g2_11{
fill: none;
stroke: #000000;
stroke-width: 0.9029167;
stroke-linecap: round;
stroke-linejoin: round;
}
.g3_11{
fill: none;
stroke: #000000;
stroke-width: 0.9059723;
stroke-linecap: round;
stroke-linejoin: round;
}
.g4_11{
fill: none;
stroke: #000000;
stroke-width: 0.9075001;
stroke-linecap: round;
stroke-linejoin: round;
}
.g5_11{
fill: none;
stroke: #000000;
stroke-width: 0.9105556;
stroke-linecap: round;
stroke-linejoin: round;
}
]]></style>
</defs>
<path d="M542.7,525l7.5,9.7l5.1,9.5l4.4,9.5l2,7.7l1.1,8.5l1,7l-1,7.4l-2.1,5.9l-2.1,5.7l-3.3,5.6l-3.1,4.9l-3,4.9l-7.5,6.7l-7.2,4.6L524,629.3l-8.5,5.9L505,641.9l-14.7,8.5l-8.2,5.9l-7.4,5.6l-6.2,6.7l-6.4,7.7L458,683l-4.4,7.7l-3.1,7.7l-2,6.7l-3.1,-12.6l-2.1,-11.3L441,669.7V659.1l1,-8.7l2.4,-8.5l3,-4.9l2.1,-3.9l4.1,-3.8l4.4,-3.6l16.7,-12.6l16.7,-9.5L506,594.9l14.9,-8.5l6.2,-4.9l5.3,-6.7l4.2,-6.7l4.1,-7.7l2,-7.7l2.3,-8.5v-9.5L542.7,525" class="g0_11" />
<g fill="#000000" >
<use xlink:href="#f0_c" transform="matrix(12,0,0,12,117,127.7)" />
<use xlink:href="#f0_1y" transform="matrix(12,0,0,12,122.9,127.7)" />
<use xlink:href="#f0_d" transform="matrix(12,0,0,12,131.3,127.7)" />
<use xlink:href="#f0_1n" transform="matrix(12,0,0,12,155.8,127.7)" />
<use xlink:href="#f0_24" transform="matrix(12,0,0,12,172.3,127.7)" />
<use xlink:href="#f0_1x" transform="matrix(12,0,0,12,181.2,127.7)" />
<use xlink:href="#f0_2g" transform="matrix(12,0,0,12,188.9,127.7)" />
<use xlink:href="#f0_27" transform="matrix(12,0,0,12,197.3,127.7)" />
<use xlink:href="#f0_25" transform="matrix(12,0,0,12,206.5,127.7)" />
<use xlink:href="#f0_2a" transform="matrix(12,0,0,12,210.5,127.7)" />
<use xlink:href="#f0_20" transform="matrix(12,0,0,12,219,127.7)" />
<use xlink:href="#f0_2b" transform="matrix(12,0,0,12,231.5,127.7)" />
<use xlink:href="#f0_22" transform="matrix(12,0,0,12,240.6,127.7)" />
<use xlink:href="#f0_22" transform="matrix(12,0,0,12,249.1,127.7)" />
<use xlink:href="#f0_2e" transform="matrix(12,0,0,12,254.3,127.7)" />
<use xlink:href="#f0_25" transform="matrix(12,0,0,12,260.1,127.7)" />
<use xlink:href="#f0_2a" transform="matrix(12,0,0,12,264.6,127.7)" />
<use xlink:href="#f0_23" transform="matrix(12,0,0,12,273,127.7)" />
<use xlink:href="#f0_21" transform="matrix(12,0,0,12,281.8,127.7)" />
<use xlink:href="#f0_2f" transform="matrix(12,0,0,12,289.9,127.7)" />
<use xlink:href="#f0_20" transform="matrix(12,0,0,12,299.8,127.7)" />
<use xlink:href="#f0_2b" transform="matrix(12,0,0,12,309,127.7)" />
<use xlink:href="#f0_2l" transform="matrix(12,0,0,12,321.5,127.7)" />
<use xlink:href="#f0_2b" transform="matrix(12,0,0,12,329.6,127.7)" />
<use xlink:href="#f0_2h" transform="matrix(12,0,0,12,339.1,127.7)" />
<use xlink:href="#f0_21" transform="matrix(12,0,0,12,351.2,127.7)" />
<use xlink:href="#f0_2k" transform="matrix(12,0,0,12,359.3,127.7)" />
<use xlink:href="#f0_1z" transform="matrix(12,0,0,12,367.8,127.7)" />
<use xlink:href="#f0_21" transform="matrix(12,0,0,12,375.5,127.7)" />
<use xlink:href="#f0_2c" transform="matrix(12,0,0,12,383.6,127.7)" />
<use xlink:href="#f0_2g" transform="matrix(12,0,0,12,392.4,127.7)" />
<use xlink:href="#f0_2g" transform="matrix(12,0,0,12,400.5,127.7)" />
<use xlink:href="#f0_2b" transform="matrix(12,0,0,12,406,127.7)" />
<use xlink:href="#f0_2b" transform="matrix(12,0,0,12,418.5,127.7)" />
<use xlink:href="#f0_1y" transform="matrix(12,0,0,12,428,127.7)" />
<use xlink:href="#f0_2f" transform="matrix(12,0,0,12,436.4,127.7)" />
<use xlink:href="#f0_21" transform="matrix(12,0,0,12,443.1,127.7)" />
<use xlink:href="#f0_2e" transform="matrix(12,0,0,12,451.1,127.7)" />
<use xlink:href="#f0_2i" transform="matrix(12,0,0,12,457,127.7)" />
<use xlink:href="#f0_21" transform="matrix(12,0,0,12,465.5,127.7)" />
<use xlink:href="#f0_25" transform="matrix(12,0,0,12,476.9,127.7)" />
<use xlink:href="#f0_22" transform="matrix(12,0,0,12,480.9,127.7)" />
<use xlink:href="#f0_2j" transform="matrix(12,0,0,12,489.8,127.7)" />
<use xlink:href="#f0_24" transform="matrix(12,0,0,12,502.6,127.7)" />
<use xlink:href="#f0_25" transform="matrix(12,0,0,12,511.1,127.7)" />
<use xlink:href="#f0_2g" transform="matrix(12,0,0,12,515.5,127.7)" />
<use xlink:href="#f0_21" transform="matrix(12,0,0,12,520.6,127.7)" />
<use xlink:href="#f0_28" transform="matrix(12,0,0,12,531.6,127.7)" />
<use xlink:href="#f0_25" transform="matrix(12,0,0,12,536.1,127.7)" />
<use xlink:href="#f0_23" transform="matrix(12,0,0,12,540.1,127.7)" />
<use xlink:href="#f0_24" transform="matrix(12,0,0,12,548.9,127.7)" />
<use xlink:href="#f0_2g" transform="matrix(12,0,0,12,557.7,127.7)" />
<use xlink:href="#f0_25" transform="matrix(12,0,0,12,565.8,127.7)" />
<use xlink:href="#f0_2f" transform="matrix(12,0,0,12,570.2,127.7)" />
<use xlink:href="#f0_2h" transform="matrix(12,0,0,12,580.2,127.7)" />
<use xlink:href="#f0_2f" transform="matrix(12,0,0,12,589,127.7)" />
<use xlink:href="#f0_21" transform="matrix(12,0,0,12,596,127.7)" />
<use xlink:href="#f0_20" transform="matrix(12,0,0,12,603.7,127.7)" />
<use xlink:href="#f0_25" transform="matrix(12,0,0,12,616.2,127.7)" />
<use xlink:href="#f0_2a" transform="matrix(12,0,0,12,620.3,127.7)" />
<use xlink:href="#f0_2f" transform="matrix(12,0,0,12,628.7,127.7)" />
<use xlink:href="#f0_2g" transform="matrix(12,0,0,12,635.7,127.7)" />
<use xlink:href="#f0_21" transform="matrix(12,0,0,12,640.8,127.7)" />
<use xlink:href="#f0_1x" transform="matrix(12,0,0,12,648.5,127.7)" />
<use xlink:href="#f0_20" transform="matrix(12,0,0,12,656.3,127.7)" />
<use xlink:href="#f0_2b" transform="matrix(12,0,0,12,668.7,127.7)" />
<use xlink:href="#f0_22" transform="matrix(12,0,0,12,677.9,127.7)" />
<use xlink:href="#f0_29" transform="matrix(12,0,0,12,686.4,127.7)" />
<use xlink:href="#f0_2b" transform="matrix(12,0,0,12,699.6,127.7)" />
<use xlink:href="#f0_2a" transform="matrix(12,0,0,12,709.1,127.7)" />
<use xlink:href="#f0_2b" transform="matrix(12,0,0,12,717.6,127.7)" />
<use xlink:href="#f0_1z" transform="matrix(12,0,0,12,726.7,127.7)" />
<use xlink:href="#f0_24" transform="matrix(12,0,0,12,734.4,127.7)" />
<use xlink:href="#f0_2e" transform="matrix(12,0,0,12,743.3,127.7)" />
<use xlink:href="#f0_2b" transform="matrix(12,0,0,12,749.1,127.7)" />
<use xlink:href="#f0_29" transform="matrix(12,0,0,12,758.3,127.7)" />
<use xlink:href="#f0_1x" transform="matrix(12,0,0,12,771.9,127.7)" />
<use xlink:href="#f0_2g" transform="matrix(12,0,0,12,779.6,127.7)" />
<use xlink:href="#f0_25" transform="matrix(12,0,0,12,784.7,127.7)" />
<use xlink:href="#f0_1z" transform="matrix(12,0,0,12,789.2,127.7)" />
<use xlink:href="#f0_28" transform="matrix(12,0,0,12,800.2,127.7)" />
<use xlink:href="#f0_25" transform="matrix(12,0,0,12,804.2,127.7)" />
<use xlink:href="#f0_23" transform="matrix(12,0,0,12,808.7,127.7)" />
<use xlink:href="#f0_24" transform="matrix(12,0,0,12,817.5,127.7)" />
<use xlink:href="#f0_2g" transform="matrix(12,0,0,12,825.9,127.7)" />
<use xlink:href="#f0_z" transform="matrix(12,0,0,12,833.4,127.7)" />
<use xlink:href="#f0_11" transform="matrix(12,0,0,12,64.9,156.7)" />
<use xlink:href="#f0_2a" transform="matrix(12,0,0,12,77.4,156.7)" />
<use xlink:href="#f0_2f" transform="matrix(12,0,0,12,85.8,156.7)" />
<use xlink:href="#f0_i" transform="matrix(12,0,0,12,92.4,156.7)" />
<use xlink:href="#f0_13" transform="matrix(12,0,0,12,155.8,156.7)" />
<use xlink:href="#f0_21" transform="matrix(12,0,0,12,167.6,156.7)" />
<use xlink:href="#f0_2a" transform="matrix(12,0,0,12,175.3,156.7)" />
<use xlink:href="#f0_2g" transform="matrix(12,0,0,12,184.1,156.7)" />
<use xlink:href="#f0_2e" transform="matrix(12,0,0,12,189.2,156.7)" />
<use xlink:href="#f0_1x" transform="matrix(12,0,0,12,195.1,156.7)" />
<use xlink:href="#f0_28" transform="matrix(12,0,0,12,202.8,156.7)" />
<use xlink:href="#f0_22" transform="matrix(12,0,0,12,210.6,156.7)" />
<use xlink:href="#f0_2e" transform="matrix(12,0,0,12,215.7,156.7)" />
<use xlink:href="#f0_25" transform="matrix(12,0,0,12,221.6,156.7)" />
<use xlink:href="#f0_2a" transform="matrix(12,0,0,12,226,156.7)" />
<use xlink:href="#f0_23" transform="matrix(12,0,0,12,234.5,156.7)" />
<use xlink:href="#f0_21" transform="matrix(12,0,0,12,243.3,156.7)" />
<use xlink:href="#f0_2j" transform="matrix(12,0,0,12,254,156.7)" />
<use xlink:href="#f0_25" transform="matrix(12,0,0,12,267.2,156.7)" />
<use xlink:href="#f0_28" transform="matrix(12,0,0,12,271.2,156.7)" />
<use xlink:href="#f0_28" transform="matrix(12,0,0,12,275.3,156.7)" />
<use xlink:href="#f0_1y" transform="matrix(12,0,0,12,283,156.7)" />
<use xlink:href="#f0_21" transform="matrix(12,0,0,12,291.5,156.7)" />
<use xlink:href="#f0_2j" transform="matrix(12,0,0,12,302.5,156.7)" />
<use xlink:href="#f0_24" transform="matrix(12,0,0,12,315.4,156.7)" />
<use xlink:href="#f0_25" transform="matrix(12,0,0,12,324.2,156.7)" />
<use xlink:href="#f0_2g" transform="matrix(12,0,0,12,328.2,156.7)" />
<use xlink:href="#f0_21" transform="matrix(12,0,0,12,333.4,156.7)" />
<use xlink:href="#f0_1x" transform="matrix(12,0,0,12,344.8,156.7)" />
<use xlink:href="#f0_2a" transform="matrix(12,0,0,12,352.5,156.7)" />
<use xlink:href="#f0_20" transform="matrix(12,0,0,12,360.9,156.7)" />
<use xlink:href="#f0_2e" transform="matrix(12,0,0,12,373.1,156.7)" />
<use xlink:href="#f0_21" transform="matrix(12,0,0,12,378.9,156.7)" />
<use xlink:href="#f0_29" transform="matrix(12,0,0,12,386.7,156.7)" />
<use xlink:href="#f0_1x" transform="matrix(12,0,0,12,399.9,156.7)" />
<use xlink:href="#f0_25" transform="matrix(12,0,0,12,407.6,156.7)" />
<use xlink:href="#f0_2a" transform="matrix(12,0,0,12,412,156.7)" />
<use xlink:href="#f0_25" transform="matrix(12,0,0,12,420.5,156.7)" />
<use xlink:href="#f0_2a" transform="matrix(12,0,0,12,424.5,156.7)" />
<use xlink:href="#f0_23" transform="matrix(12,0,0,12,433,156.7)" />
<use xlink:href="#f0_2j" transform="matrix(12,0,0,12,445.4,156.7)" />
<use xlink:href="#f0_25" transform="matrix(12,0,0,12,458.3,156.7)" />
<use xlink:href="#f0_28" transform="matrix(12,0,0,12,462.3,156.7)" />
<use xlink:href="#f0_28" transform="matrix(12,0,0,12,466.4,156.7)" />
<use xlink:href="#f0_1y" transform="matrix(12,0,0,12,474.1,156.7)" />
<use xlink:href="#f0_21" transform="matrix(12,0,0,12,482.6,156.7)" />
<use xlink:href="#f0_1z" transform="matrix(12,0,0,12,494,156.7)" />
<use xlink:href="#f0_2b" transform="matrix(12,0,0,12,501.7,156.7)" />
<use xlink:href="#f0_28" transform="matrix(12,0,0,12,510.9,156.7)" />
<use xlink:href="#f0_2b" transform="matrix(12,0,0,12,514.9,156.7)" />
<use xlink:href="#f0_2h" transform="matrix(12,0,0,12,524.4,156.7)" />
<use xlink:href="#f0_2e" transform="matrix(12,0,0,12,533.3,156.7)" />
<use xlink:href="#f0_21" transform="matrix(12,0,0,12,539.1,156.7)" />
<use xlink:href="#f0_20" transform="matrix(12,0,0,12,546.9,156.7)" />
<use xlink:href="#f0_25" transform="matrix(12,0,0,12,559,156.7)" />
<use xlink:href="#f0_2a" transform="matrix(12,0,0,12,563,156.7)" />
<use xlink:href="#f0_1m" transform="matrix(12,0,0,12,574.8,156.7)" />
<use xlink:href="#f0_19" transform="matrix(12,0,0,12,588,156.7)" />
<use xlink:href="#f0_12" transform="matrix(12,0,0,12,593.9,156.7)" />
<use xlink:href="#f0_17" transform="matrix(12,0,0,12,605.7,156.7)" />
<use xlink:href="#f0_1p" transform="matrix(12,0,0,12,618.5,156.7)" />
<use xlink:href="#f0_1f" transform="matrix(12,0,0,12,631.4,156.7)" />
<use xlink:href="#f0_1i" transform="matrix(12,0,0,12,644.6,156.7)" />
<use xlink:href="#f0_2f" transform="matrix(12,0,0,12,659.6,156.7)" />
<use xlink:href="#f0_21" transform="matrix(12,0,0,12,666.3,156.7)" />
<use xlink:href="#f0_2d" transform="matrix(12,0,0,12,674.3,156.7)" />
<use xlink:href="#f0_2h" transform="matrix(12,0,0,12,683.2,156.7)" />
<use xlink:href="#f0_21" transform="matrix(12,0,0,12,692,156.7)" />
<use xlink:href="#f0_2a" transform="matrix(12,0,0,12,699.7,156.7)" />
<use xlink:href="#f0_1z" transform="matrix(12,0,0,12,708.5,156.7)" />
<use xlink:href="#f0_21" transform="matrix(12,0,0,12,716.2,156.7)" />
<use xlink:href="#f0_i" transform="matrix(12,0,0,12,723.9,156.7)" />
<use xlink:href="#f0_l" transform="matrix(12,0,0,12,64.9,234.4)" />
<use xlink:href="#f0_r" transform="matrix(12,0,0,12,74.1,234.4)" />
<use xlink:href="#f0_i" transform="matrix(12,0,0,12,83.2,234.4)" />
<use xlink:href="#f0_11" transform="matrix(12,0,0,12,117,234.4)" />
<use xlink:href="#f0_2f" transform="matrix(12,0,0,12,132.8,234.4)" />
<use xlink:href="#f0_2l" transform="matrix(12,0,0,12,139.4,234.4)" />
<use xlink:href="#f0_29" transform="matrix(12,0,0,12,147.8,234.4)" />
<use xlink:href="#f0_29" transform="matrix(12,0,0,12,161,234.4)" />
<use xlink:href="#f0_21" transform="matrix(12,0,0,12,174.3,234.4)" />
<use xlink:href="#f0_2g" transform="matrix(12,0,0,12,182,234.4)" />
<use xlink:href="#f0_2e" transform="matrix(12,0,0,12,187.1,234.4)" />
<use xlink:href="#f0_25" transform="matrix(12,0,0,12,193,234.4)" />
<use xlink:href="#f0_1z" transform="matrix(12,0,0,12,197,234.4)" />
<use xlink:href="#f0_1y" transform="matrix(12,0,0,12,208.1,234.4)" />
<use xlink:href="#f0_25" transform="matrix(12,0,0,12,216.5,234.4)" />
<use xlink:href="#f0_1z" transform="matrix(12,0,0,12,220.6,234.4)" />
<use xlink:href="#f0_2b" transform="matrix(12,0,0,12,228.3,234.4)" />
<use xlink:href="#f0_2a" transform="matrix(12,0,0,12,237.5,234.4)" />
<use xlink:href="#f0_2i" transform="matrix(12,0,0,12,245.9,234.4)" />
<use xlink:href="#f0_21" transform="matrix(12,0,0,12,254.7,234.4)" />
<use xlink:href="#f0_2k" transform="matrix(12,0,0,12,262.4,234.4)" />
<use xlink:href="#f0_28" transform="matrix(12,0,0,12,274.2,234.4)" />
<use xlink:href="#f0_21" transform="matrix(12,0,0,12,278.3,234.4)" />
<use xlink:href="#f0_2a" transform="matrix(12,0,0,12,286,234.4)" />
<use xlink:href="#f0_2f" transform="matrix(12,0,0,12,294.8,234.4)" />
<use xlink:href="#f0_2b" transform="matrix(12,0,0,12,308.1,234.4)" />
<use xlink:href="#f0_22" transform="matrix(12,0,0,12,317.2,234.4)" />
<use xlink:href="#f0_2e" transform="matrix(12,0,0,12,325.3,234.4)" />
<use xlink:href="#f0_1x" transform="matrix(12,0,0,12,331.6,234.4)" />
<use xlink:href="#f0_20" transform="matrix(12,0,0,12,339.3,234.4)" />
<use xlink:href="#f0_25" transform="matrix(12,0,0,12,348.1,234.4)" />
<use xlink:href="#f0_2h" transform="matrix(12,0,0,12,352.1,234.4)" />
<use xlink:href="#f0_2f" transform="matrix(12,0,0,12,361,234.4)" />
<use xlink:href="#f0_2b" transform="matrix(12,0,0,12,370.9,234.4)" />
<use xlink:href="#f0_22" transform="matrix(12,0,0,12,380.4,234.4)" />
<use xlink:href="#f0_1z" transform="matrix(12,0,0,12,388.9,234.4)" />
<use xlink:href="#f0_2h" transform="matrix(12,0,0,12,396.6,234.4)" />
<use xlink:href="#f0_2e" transform="matrix(12,0,0,12,405.4,234.4)" />
<use xlink:href="#f0_2i" transform="matrix(12,0,0,12,411.3,234.4)" />
<use xlink:href="#f0_1x" transform="matrix(12,0,0,12,419.8,234.4)" />
<use xlink:href="#f0_2g" transform="matrix(12,0,0,12,427.8,234.4)" />
<use xlink:href="#f0_2h" transform="matrix(12,0,0,12,433,234.4)" />
<use xlink:href="#f0_2e" transform="matrix(12,0,0,12,441.8,234.4)" />
<use xlink:href="#f0_21" transform="matrix(12,0,0,12,447.7,234.4)" />
<use xlink:href="#f0_1i" transform="matrix(12,0,0,12,458.7,234.4)" />
<use xlink:href="#f0_1x" transform="matrix(12,0,0,12,473.8,234.4)" />
<use xlink:href="#f0_2a" transform="matrix(12,0,0,12,481.5,234.4)" />
<use xlink:href="#f0_20" transform="matrix(12,0,0,12,489.9,234.4)" />
<use xlink:href="#f0_29" transform="matrix(12,0,0,12,505.4,234.4)" />
<use xlink:href="#f0_1x" transform="matrix(12,0,0,12,519,234.4)" />
<use xlink:href="#f0_20" transform="matrix(12,0,0,12,526.7,234.4)" />
<use xlink:href="#f0_21" transform="matrix(12,0,0,12,535.5,234.4)" />
<use xlink:href="#f0_2b" transform="matrix(12,0,0,12,549.5,234.4)" />
<use xlink:href="#f0_22" transform="matrix(12,0,0,12,558.7,234.4)" />
<use xlink:href="#f0_23" transform="matrix(12,0,0,12,567.5,234.4)" />
<use xlink:href="#f0_28" transform="matrix(12,0,0,12,576.3,234.4)" />
<use xlink:href="#f0_1x" transform="matrix(12,0,0,12,580.4,234.4)" />
<use xlink:href="#f0_2f" transform="matrix(12,0,0,12,588.1,234.4)" />
<use xlink:href="#f0_2f" transform="matrix(12,0,0,12,594.7,234.4)" />
<use xlink:href="#f0_2b" transform="matrix(12,0,0,12,608.3,234.4)" />
<use xlink:href="#f0_22" transform="matrix(12,0,0,12,617.5,234.4)" />
<use xlink:href="#f0_2e" transform="matrix(12,0,0,12,625.6,234.4)" />
<use xlink:href="#f0_21" transform="matrix(12,0,0,12,631.5,234.4)" />
<use xlink:href="#f0_22" transform="matrix(12,0,0,12,639.2,234.4)" />
<use xlink:href="#f0_2e" transform="matrix(12,0,0,12,644.7,234.4)" />
<use xlink:href="#f0_1x" transform="matrix(12,0,0,12,650.6,234.4)" />
<use xlink:href="#f0_1z" transform="matrix(12,0,0,12,658.3,234.4)" />
<use xlink:href="#f0_2g" transform="matrix(12,0,0,12,666,234.4)" />
<use xlink:href="#f0_25" transform="matrix(12,0,0,12,671.1,234.4)" />
<use xlink:href="#f0_2i" transform="matrix(12,0,0,12,675.2,234.4)" />
<use xlink:href="#f0_21" transform="matrix(12,0,0,12,683.6,234.4)" />
<use xlink:href="#f0_25" transform="matrix(12,0,0,12,695,234.4)" />
<use xlink:href="#f0_2a" transform="matrix(12,0,0,12,699.1,234.4)" />
<use xlink:href="#f0_20" transform="matrix(12,0,0,12,707.5,234.4)" />
<use xlink:href="#f0_21" transform="matrix(12,0,0,12,716.4,234.4)" />
<use xlink:href="#f0_2k" transform="matrix(12,0,0,12,724.1,234.4)" />
<use xlink:href="#f0_l" transform="matrix(12,0,0,12,736.2,234.4)" />
<use xlink:href="#f0_i" transform="matrix(12,0,0,12,745,234.4)" />
<use xlink:href="#f0_p" transform="matrix(12,0,0,12,749.4,234.4)" />
<use xlink:href="#f0_g" transform="matrix(12,0,0,12,758.3,234.4)" />
<use xlink:href="#f0_25" transform="matrix(12,0,0,12,766,234.4)" />
<use xlink:href="#f0_2f" transform="matrix(12,0,0,12,770.4,234.4)" />
<use xlink:href="#f0_2c" transform="matrix(12,0,0,12,778.5,234.4)" />
<use xlink:href="#f0_28" transform="matrix(12,0,0,12,787.3,234.4)" />
<use xlink:href="#f0_1x" transform="matrix(12,0,0,12,791.3,234.4)" />
<use xlink:href="#f0_1z" transform="matrix(12,0,0,12,799,234.4)" />
<use xlink:href="#f0_21" transform="matrix(12,0,0,12,806.8,234.4)" />
<use xlink:href="#f0_20" transform="matrix(12,0,0,12,814.8,234.4)" />
<use xlink:href="#f0_2b" transform="matrix(12,0,0,12,827,234.4)" />
<use xlink:href="#f0_2a" transform="matrix(12,0,0,12,836.1,234.4)" />
<use xlink:href="#f0_1x" transform="matrix(12,0,0,12,117,259)" />
<use xlink:href="#f0_28" transform="matrix(12,0,0,12,128.4,259)" />
<use xlink:href="#f0_1x" transform="matrix(12,0,0,12,132.4,259)" />
<use xlink:href="#f0_2l" transform="matrix(12,0,0,12,140.1,259)" />
<use xlink:href="#f0_21" transform="matrix(12,0,0,12,148.6,259)" />
<use xlink:href="#f0_2e" transform="matrix(12,0,0,12,156.3,259)" />
<use xlink:href="#f0_2b" transform="matrix(12,0,0,12,165.5,259)" />
<use xlink:href="#f0_22" transform="matrix(12,0,0,12,174.6,259)" />
<use xlink:href="#f0_28" transform="matrix(12,0,0,12,183.5,259)" />
<use xlink:href="#f0_25" transform="matrix(12,0,0,12,187.5,259)" />
<use xlink:href="#f0_2d" transform="matrix(12,0,0,12,192,259)" />
<use xlink:href="#f0_2h" transform="matrix(12,0,0,12,200.8,259)" />
<use xlink:href="#f0_25" transform="matrix(12,0,0,12,209.6,259)" />
<use xlink:href="#f0_20" transform="matrix(12,0,0,12,214,259)" />
<use xlink:href="#f0_2c" transform="matrix(12,0,0,12,229.8,259)" />
<use xlink:href="#f0_28" transform="matrix(12,0,0,12,238.6,259)" />
<use xlink:href="#f0_1x" transform="matrix(12,0,0,12,243.1,259)" />
<use xlink:href="#f0_1z" transform="matrix(12,0,0,12,250.8,259)" />
<use xlink:href="#f0_21" transform="matrix(12,0,0,12,258.5,259)" />
<use xlink:href="#f0_20" transform="matrix(12,0,0,12,266.6,259)" />
<use xlink:href="#f0_2b" transform="matrix(12,0,0,12,278.3,259)" />
<use xlink:href="#f0_2a" transform="matrix(12,0,0,12,287.9,259)" />
<use xlink:href="#f0_2g" transform="matrix(12,0,0,12,300,259)" />
<use xlink:href="#f0_2b" transform="matrix(12,0,0,12,305.1,259)" />
<use xlink:href="#f0_2c" transform="matrix(12,0,0,12,314.3,259)" />
<use xlink:href="#f0_2b" transform="matrix(12,0,0,12,326.8,259)" />
<use xlink:href="#f0_22" transform="matrix(12,0,0,12,336,259)" />
<use xlink:href="#f0_1x" transform="matrix(12,0,0,12,344.8,259)" />
<use xlink:href="#f0_2c" transform="matrix(12,0,0,12,355.8,259)" />
<use xlink:href="#f0_28" transform="matrix(12,0,0,12,364.6,259)" />
<use xlink:href="#f0_1x" transform="matrix(12,0,0,12,369.1,259)" />
<use xlink:href="#f0_2a" transform="matrix(12,0,0,12,376.8,259)" />
<use xlink:href="#f0_21" transform="matrix(12,0,0,12,385.2,259)" />
<use xlink:href="#f0_29" transform="matrix(12,0,0,12,396.6,259)" />
<use xlink:href="#f0_25" transform="matrix(12,0,0,12,409.8,259)" />
<use xlink:href="#f0_2e" transform="matrix(12,0,0,12,414.3,259)" />
<use xlink:href="#f0_2e" transform="matrix(12,0,0,12,420.1,259)" />
<use xlink:href="#f0_2b" transform="matrix(12,0,0,12,426.4,259)" />
<use xlink:href="#f0_2e" transform="matrix(12,0,0,12,435.5,259)" />
<use xlink:href="#f0_1x" transform="matrix(12,0,0,12,445.1,259)" />
<use xlink:href="#f0_2f" transform="matrix(12,0,0,12,452.8,259)" />
<use xlink:href="#f0_2f" transform="matrix(12,0,0,12,466.1,259)" />
<use xlink:href="#f0_24" transform="matrix(12,0,0,12,472.7,259)" />
<use xlink:href="#f0_2b" transform="matrix(12,0,0,12,481.5,259)" />
<use xlink:href="#f0_2j" transform="matrix(12,0,0,12,490.7,259)" />
<use xlink:href="#f0_2a" transform="matrix(12,0,0,12,503.9,259)" />
<use xlink:href="#f0_25" transform="matrix(12,0,0,12,515.7,259)" />
<use xlink:href="#f0_2a" transform="matrix(12,0,0,12,520.1,259)" />
<use xlink:href="#f0_2g" transform="matrix(12,0,0,12,535.5,259)" />
<use xlink:href="#f0_24" transform="matrix(12,0,0,12,540.7,259)" />
<use xlink:href="#f0_21" transform="matrix(12,0,0,12,549.1,259)" />
<use xlink:href="#f0_22" transform="matrix(12,0,0,12,563.8,259)" />
<use xlink:href="#f0_25" transform="matrix(12,0,0,12,569,259)" />
<use xlink:href="#f0_23" transform="matrix(12,0,0,12,573,259)" />
<use xlink:href="#f0_2h" transform="matrix(12,0,0,12,582.2,259)" />
<use xlink:href="#f0_2e" transform="matrix(12,0,0,12,591,259)" />
<use xlink:href="#f0_21" transform="matrix(12,0,0,12,596.9,259)" />
<use xlink:href="#f0_i" transform="matrix(12,0,0,12,605,259)" />
<use xlink:href="#f0_11" transform="matrix(12,0,0,12,615.3,259)" />
<use xlink:href="#f0_2a" transform="matrix(12,0,0,12,627.8,259)" />
<use xlink:href="#f0_2b" transform="matrix(12,0,0,12,639.5,259)" />
<use xlink:href="#f0_2c" transform="matrix(12,0,0,12,648.7,259)" />
<use xlink:href="#f0_2g" transform="matrix(12,0,0,12,657.9,259)" />
<use xlink:href="#f0_25" transform="matrix(12,0,0,12,663,259)" />
<use xlink:href="#f0_1z" transform="matrix(12,0,0,12,667.1,259)" />
<use xlink:href="#f0_1x" transform="matrix(12,0,0,12,675.1,259)" />
<use xlink:href="#f0_28" transform="matrix(12,0,0,12,682.9,259)" />
<use xlink:href="#f0_2a" transform="matrix(12,0,0,12,690.6,259)" />
<use xlink:href="#f0_21" transform="matrix(12,0,0,12,699,259)" />
<use xlink:href="#f0_21" transform="matrix(12,0,0,12,707.1,259)" />
<use xlink:href="#f0_20" transform="matrix(12,0,0,12,714.8,259)" />
<use xlink:href="#f0_28" transform="matrix(12,0,0,12,723.7,259)" />
<use xlink:href="#f0_21" transform="matrix(12,0,0,12,728.1,259)" />
<use xlink:href="#f0_2j" transform="matrix(12,0,0,12,742.8,259)" />
<use xlink:href="#f0_25" transform="matrix(12,0,0,12,755.6,259)" />
<use xlink:href="#f0_2g" transform="matrix(12,0,0,12,758.6,259)" />
<use xlink:href="#f0_24" transform="matrix(12,0,0,12,763.8,259)" />
<use xlink:href="#f0_25" transform="matrix(12,0,0,12,778.9,259)" />
<use xlink:href="#f0_2g" transform="matrix(12,0,0,12,782.9,259)" />
<use xlink:href="#f0_2f" transform="matrix(12,0,0,12,788.4,259)" />
<use xlink:href="#f0_2g" transform="matrix(12,0,0,12,802,259)" />
<use xlink:href="#f0_25" transform="matrix(12,0,0,12,807.2,259)" />
<use xlink:href="#f0_2c" transform="matrix(12,0,0,12,811.6,259)" />
<use xlink:href="#f0_2b" transform="matrix(12,0,0,12,827,259)" />
<use xlink:href="#f0_2a" transform="matrix(12,0,0,12,836.2,259)" />
<use xlink:href="#f0_2g" transform="matrix(12,0,0,12,117,283.2)" />
<use xlink:href="#f0_24" transform="matrix(12,0,0,12,122.1,283.2)" />
<use xlink:href="#f0_21" transform="matrix(12,0,0,12,130.5,283.2)" />
<use xlink:href="#f0_2c" transform="matrix(12,0,0,12,141.6,283.2)" />
<use xlink:href="#f0_2e" transform="matrix(12,0,0,12,150.4,283.2)" />
<use xlink:href="#f0_25" transform="matrix(12,0,0,12,156.3,283.2)" />
<use xlink:href="#f0_2a" transform="matrix(12,0,0,12,160.3,283.2)" />
<use xlink:href="#f0_1z" transform="matrix(12,0,0,12,168.8,283.2)" />
<use xlink:href="#f0_25" transform="matrix(12,0,0,12,176.5,283.2)" />
<use xlink:href="#f0_2c" transform="matrix(12,0,0,12,180.6,283.2)" />
<use xlink:href="#f0_1x" transform="matrix(12,0,0,12,189.4,283.2)" />
<use xlink:href="#f0_28" transform="matrix(12,0,0,12,197.1,283.2)" />
<use xlink:href="#f0_1x" transform="matrix(12,0,0,12,204.5,283.2)" />
<use xlink:href="#f0_2k" transform="matrix(12,0,0,12,212.2,283.2)" />
<use xlink:href="#f0_25" transform="matrix(12,0,0,12,220.6,283.2)" />
<use xlink:href="#f0_2f" transform="matrix(12,0,0,12,224.7,283.2)" />
<use xlink:href="#f0_2b" transform="matrix(12,0,0,12,237.6,283.2)" />
<use xlink:href="#f0_22" transform="matrix(12,0,0,12,246.7,283.2)" />
<use xlink:href="#f0_2g" transform="matrix(12,0,0,12,255.2,283.2)" />
<use xlink:href="#f0_24" transform="matrix(12,0,0,12,260.3,283.2)" />
<use xlink:href="#f0_21" transform="matrix(12,0,0,12,268.8,283.2)" />
<use xlink:href="#f0_28" transform="matrix(12,0,0,12,282.8,283.2)" />
<use xlink:href="#f0_21" transform="matrix(12,0,0,12,286.8,283.2)" />
<use xlink:href="#f0_2a" transform="matrix(12,0,0,12,294.5,283.2)" />
<use xlink:href="#f0_2f" transform="matrix(12,0,0,12,303,283.2)" />
<use xlink:href="#f0_25" transform="matrix(12,0,0,12,312.9,283.2)" />
<use xlink:href="#f0_2f" transform="matrix(12,0,0,12,317,283.2)" />
<use xlink:href="#f0_29" transform="matrix(12,0,0,12,326.9,283.2)" />
<use xlink:href="#f0_2b" transform="matrix(12,0,0,12,340.1,283.2)" />
<use xlink:href="#f0_2i" transform="matrix(12,0,0,12,349.3,283.2)" />
<use xlink:href="#f0_21" transform="matrix(12,0,0,12,357.7,283.2)" />
<use xlink:href="#f0_20" transform="matrix(12,0,0,12,365.4,283.2)" />
<use xlink:href="#f0_1x" transform="matrix(12,0,0,12,377.6,283.2)" />
<use xlink:href="#f0_28" transform="matrix(12,0,0,12,385.3,283.2)" />
<use xlink:href="#f0_2b" transform="matrix(12,0,0,12,389.3,283.2)" />
<use xlink:href="#f0_2a" transform="matrix(12,0,0,12,398.5,283.2)" />
<use xlink:href="#f0_23" transform="matrix(12,0,0,12,407,283.2)" />
<use xlink:href="#f0_2g" transform="matrix(12,0,0,12,422,283.2)" />
<use xlink:href="#f0_24" transform="matrix(12,0,0,12,427.2,283.2)" />
<use xlink:href="#f0_21" transform="matrix(12,0,0,12,435.6,283.2)" />
<use xlink:href="#f0_1x" transform="matrix(12,0,0,12,446.7,283.2)" />
<use xlink:href="#f0_2k" transform="matrix(12,0,0,12,454.4,283.2)" />
<use xlink:href="#f0_25" transform="matrix(12,0,0,12,462.8,283.2)" />
<use xlink:href="#f0_2f" transform="matrix(12,0,0,12,466.9,283.2)" />
<use xlink:href="#f0_2h" transform="matrix(12,0,0,12,476.4,283.2)" />
<use xlink:href="#f0_2a" transform="matrix(12,0,0,12,485.3,283.2)" />
<use xlink:href="#f0_2g" transform="matrix(12,0,0,12,493.7,283.2)" />
<use xlink:href="#f0_25" transform="matrix(12,0,0,12,498.8,283.2)" />
<use xlink:href="#f0_28" transform="matrix(12,0,0,12,502.9,283.2)" />
<use xlink:href="#f0_25" transform="matrix(12,0,0,12,513.2,283.2)" />
<use xlink:href="#f0_2g" transform="matrix(12,0,0,12,517.3,283.2)" />
<use xlink:href="#f0_2f" transform="matrix(12,0,0,12,522.4,283.2)" />
<use xlink:href="#f0_2e" transform="matrix(12,0,0,12,535.7,283.2)" />
<use xlink:href="#f0_21" transform="matrix(12,0,0,12,541.5,283.2)" />
<use xlink:href="#f0_1x" transform="matrix(12,0,0,12,549.3,283.2)" />
<use xlink:href="#f0_28" transform="matrix(12,0,0,12,557,283.2)" />
<use xlink:href="#f0_g" transform="matrix(12,0,0,12,561,283.2)" />
<use xlink:href="#f0_25" transform="matrix(12,0,0,12,568.4,283.2)" />
<use xlink:href="#f0_2a" transform="matrix(12,0,0,12,572.4,283.2)" />
<use xlink:href="#f0_2i" transform="matrix(12,0,0,12,580.9,283.2)" />
<use xlink:href="#f0_21" transform="matrix(12,0,0,12,589.3,283.2)" />
<use xlink:href="#f0_2e" transform="matrix(12,0,0,12,597.1,283.2)" />
<use xlink:href="#f0_2g" transform="matrix(12,0,0,12,602.9,283.2)" />
<use xlink:href="#f0_21" transform="matrix(12,0,0,12,608.1,283.2)" />
<use xlink:href="#f0_20" transform="matrix(12,0,0,12,615.8,283.2)" />
<use xlink:href="#f0_25" transform="matrix(12,0,0,12,627.9,283.2)" />
<use xlink:href="#f0_29" transform="matrix(12,0,0,12,632,283.2)" />
<use xlink:href="#f0_1x" transform="matrix(12,0,0,12,645.2,283.2)" />
<use xlink:href="#f0_23" transform="matrix(12,0,0,12,652.9,283.2)" />
<use xlink:href="#f0_21" transform="matrix(12,0,0,12,661.7,283.2)" />
<use xlink:href="#f0_1z" transform="matrix(12,0,0,12,672.8,283.2)" />
<use xlink:href="#f0_2b" transform="matrix(12,0,0,12,680.5,283.2)" />
<use xlink:href="#f0_25" transform="matrix(12,0,0,12,689.6,283.2)" />
<use xlink:href="#f0_2a" transform="matrix(12,0,0,12,693.7,283.2)" />
<use xlink:href="#f0_1z" transform="matrix(12,0,0,12,702.1,283.2)" />
<use xlink:href="#f0_25" transform="matrix(12,0,0,12,709.9,283.2)" />
<use xlink:href="#f0_20" transform="matrix(12,0,0,12,713.9,283.2)" />
<use xlink:href="#f0_21" transform="matrix(12,0,0,12,722.7,283.2)" />
<use xlink:href="#f0_2f" transform="matrix(12,0,0,12,730.4,283.2)" />
<use xlink:href="#f0_2j" transform="matrix(12,0,0,12,738.9,283.2)" />
<use xlink:href="#f0_25" transform="matrix(12,0,0,12,751.7,283.2)" />
<use xlink:href="#f0_2g" transform="matrix(12,0,0,12,755.8,283.2)" />
<use xlink:href="#f0_24" transform="matrix(12,0,0,12,760.9,283.2)" />
<use xlink:href="#f0_2g" transform="matrix(12,0,0,12,775.6,283.2)" />
<use xlink:href="#f0_24" transform="matrix(12,0,0,12,780.7,283.2)" />
<use xlink:href="#f0_21" transform="matrix(12,0,0,12,789.2,283.2)" />
<use xlink:href="#f0_2a" transform="matrix(12,0,0,12,800.2,283.2)" />
<use xlink:href="#f0_21" transform="matrix(12,0,0,12,808.7,283.2)" />
<use xlink:href="#f0_21" transform="matrix(12,0,0,12,816.4,283.2)" />
<use xlink:href="#f0_20" transform="matrix(12,0,0,12,824.1,283.2)" />
<use xlink:href="#f0_28" transform="matrix(12,0,0,12,832.9,283.2)" />
<use xlink:href="#f0_21" transform="matrix(12,0,0,12,837,283.2)" />
<use xlink:href="#f0_25" transform="matrix(12,0,0,12,117,307.8)" />
<use xlink:href="#f0_2g" transform="matrix(12,0,0,12,121.4,307.8)" />
<use xlink:href="#f0_2f" transform="matrix(12,0,0,12,126.9,307.8)" />
<use xlink:href="#f0_21" transform="matrix(12,0,0,12,133.9,307.8)" />
<use xlink:href="#f0_28" transform="matrix(12,0,0,12,141.9,307.8)" />
<use xlink:href="#f0_22" transform="matrix(12,0,0,12,146.4,307.8)" />
<use xlink:href="#f0_i" transform="matrix(12,0,0,12,151.9,307.8)" />
<use xlink:href="#f0_1k" transform="matrix(12,0,0,12,160.7,307.8)" />
<use xlink:href="#f0_24" transform="matrix(12,0,0,12,172.1,307.8)" />
<use xlink:href="#f0_21" transform="matrix(12,0,0,12,180.9,307.8)" />
<use xlink:href="#f0_20" transform="matrix(12,0,0,12,193.4,307.8)" />
<use xlink:href="#f0_25" transform="matrix(12,0,0,12,202.5,307.8)" />
<use xlink:href="#f0_2f" transform="matrix(12,0,0,12,207,307.8)" />
<use xlink:href="#f0_2g" transform="matrix(12,0,0,12,213.9,307.8)" />
<use xlink:href="#f0_1x" transform="matrix(12,0,0,12,219.4,307.8)" />
<use xlink:href="#f0_2a" transform="matrix(12,0,0,12,227.5,307.8)" />
<use xlink:href="#f0_1z" transform="matrix(12,0,0,12,236.3,307.8)" />
<use xlink:href="#f0_21" transform="matrix(12,0,0,12,244.4,307.8)" />
<use xlink:href="#f0_2b" transform="matrix(12,0,0,12,256.6,307.8)" />
<use xlink:href="#f0_22" transform="matrix(12,0,0,12,266.1,307.8)" />
<use xlink:href="#f0_2g" transform="matrix(12,0,0,12,276,307.8)" />
<use xlink:href="#f0_24" transform="matrix(12,0,0,12,281.5,307.8)" />
<use xlink:href="#f0_21" transform="matrix(12,0,0,12,290.3,307.8)" />
<use xlink:href="#f0_2a" transform="matrix(12,0,0,12,302.5,307.8)" />
<use xlink:href="#f0_21" transform="matrix(12,0,0,12,311.3,307.8)" />
<use xlink:href="#f0_21" transform="matrix(12,0,0,12,319.4,307.8)" />
<use xlink:href="#f0_20" transform="matrix(12,0,0,12,327.5,307.8)" />
<use xlink:href="#f0_28" transform="matrix(12,0,0,12,336.6,307.8)" />
<use xlink:href="#f0_21" transform="matrix(12,0,0,12,341,307.8)" />
<use xlink:href="#f0_22" transform="matrix(12,0,0,12,353.2,307.8)" />
<use xlink:href="#f0_2e" transform="matrix(12,0,0,12,358.7,307.8)" />
<use xlink:href="#f0_2b" transform="matrix(12,0,0,12,364.9,307.8)" />
<use xlink:href="#f0_29" transform="matrix(12,0,0,12,374.5,307.8)" />
<use xlink:href="#f0_2g" transform="matrix(12,0,0,12,392.5,307.8)" />
<use xlink:href="#f0_24" transform="matrix(12,0,0,12,398,307.8)" />
<use xlink:href="#f0_21" transform="matrix(12,0,0,12,406.8,307.8)" />
<use xlink:href="#f0_28" transform="matrix(12,0,0,12,418.9,307.8)" />
<use xlink:href="#f0_21" transform="matrix(12,0,0,12,423.3,307.8)" />
<use xlink:href="#f0_2a" transform="matrix(12,0,0,12,431.4,307.8)" />
<use xlink:href="#f0_2f" transform="matrix(12,0,0,12,440.2,307.8)" />
<use xlink:href="#f0_25" transform="matrix(12,0,0,12,451.3,307.8)" />
<use xlink:href="#f0_2f" transform="matrix(12,0,0,12,455.7,307.8)" />
<use xlink:href="#f0_29" transform="matrix(12,0,0,12,467.1,307.8)" />
<use xlink:href="#f0_21" transform="matrix(12,0,0,12,480.7,307.8)" />
<use xlink:href="#f0_1x" transform="matrix(12,0,0,12,488.7,307.8)" />
<use xlink:href="#f0_2f" transform="matrix(12,0,0,12,496.8,307.8)" />
<use xlink:href="#f0_2h" transform="matrix(12,0,0,12,503.8,307.8)" />
<use xlink:href="#f0_2e" transform="matrix(12,0,0,12,513,307.8)" />
<use xlink:href="#f0_21" transform="matrix(12,0,0,12,519.2,307.8)" />
<use xlink:href="#f0_20" transform="matrix(12,0,0,12,527.3,307.8)" />
<use xlink:href="#f0_2g" transform="matrix(12,0,0,12,540.5,307.8)" />
<use xlink:href="#f0_2b" transform="matrix(12,0,0,12,546,307.8)" />
<use xlink:href="#f0_1y" transform="matrix(12,0,0,12,560,307.8)" />
<use xlink:href="#f0_21" transform="matrix(12,0,0,12,568.8,307.8)" />
<use xlink:href="#f1_2k" transform="matrix(12,0,0,12,580.1,307.8)" />
<use xlink:href="#f0_i" transform="matrix(12,0,0,12,588.1,307.8)" />
<use xlink:href="#f0_1f" transform="matrix(12,0,0,12,596.9,307.8)" />
<use xlink:href="#f0_2a" transform="matrix(12,0,0,12,610.2,307.8)" />
<use xlink:href="#f0_2e" transform="matrix(12,0,0,12,623,307.8)" />
<use xlink:href="#f0_21" transform="matrix(12,0,0,12,629.3,307.8)" />
<use xlink:href="#f0_29" transform="matrix(12,0,0,12,637.3,307.8)" />
<use xlink:href="#f0_2b" transform="matrix(12,0,0,12,650.9,307.8)" />
<use xlink:href="#f0_2i" transform="matrix(12,0,0,12,660.5,307.8)" />
<use xlink:href="#f0_25" transform="matrix(12,0,0,12,669.3,307.8)" />
<use xlink:href="#f0_2a" transform="matrix(12,0,0,12,673.7,307.8)" />
<use xlink:href="#f0_23" transform="matrix(12,0,0,12,682.5,307.8)" />
<use xlink:href="#f0_2g" transform="matrix(12,0,0,12,700.1,307.8)" />
<use xlink:href="#f0_24" transform="matrix(12,0,0,12,705.6,307.8)" />
<use xlink:href="#f0_21" transform="matrix(12,0,0,12,714.5,307.8)" />
<use xlink:href="#f0_28" transform="matrix(12,0,0,12,726.6,307.8)" />
<use xlink:href="#f0_25" transform="matrix(12,0,0,12,731,307.8)" />
<use xlink:href="#f0_2d" transform="matrix(12,0,0,12,735.4,307.8)" />
<use xlink:href="#f0_2h" transform="matrix(12,0,0,12,744.6,307.8)" />
<use xlink:href="#f0_25" transform="matrix(12,0,0,12,753.8,307.8)" />
<use xlink:href="#f0_20" transform="matrix(12,0,0,12,758.2,307.8)" />
<use xlink:href="#f0_28" transform="matrix(12,0,0,12,775.8,307.8)" />
<use xlink:href="#f0_1x" transform="matrix(12,0,0,12,780.2,307.8)" />
<use xlink:href="#f0_2l" transform="matrix(12,0,0,12,788.3,307.8)" />
<use xlink:href="#f0_21" transform="matrix(12,0,0,12,796.8,307.8)" />
<use xlink:href="#f0_2e" transform="matrix(12,0,0,12,804.8,307.8)" />
<use xlink:href="#f0_1x" transform="matrix(12,0,0,12,819.2,307.8)" />
<use xlink:href="#f0_2a" transform="matrix(12,0,0,12,827.3,307.8)" />
<use xlink:href="#f0_20" transform="matrix(12,0,0,12,836.1,307.8)" />
<use xlink:href="#f0_2e" transform="matrix(12,0,0,12,117,332.3)" />
<use xlink:href="#f0_21" transform="matrix(12,0,0,12,122.8,332.3)" />
<use xlink:href="#f0_2c" transform="matrix(12,0,0,12,130.9,332.3)" />
<use xlink:href="#f0_21" transform="matrix(12,0,0,12,139.7,332.3)" />
<use xlink:href="#f0_1x" transform="matrix(12,0,0,12,147.5,332.3)" />
<use xlink:href="#f0_2g" transform="matrix(12,0,0,12,155.2,332.3)" />
<use xlink:href="#f0_25" transform="matrix(12,0,0,12,160.7,332.3)" />
<use xlink:href="#f0_2a" transform="matrix(12,0,0,12,164.7,332.3)" />
<use xlink:href="#f0_23" transform="matrix(12,0,0,12,173.2,332.3)" />
<use xlink:href="#f0_2g" transform="matrix(12,0,0,12,185.7,332.3)" />
<use xlink:href="#f0_24" transform="matrix(12,0,0,12,190.8,332.3)" />
<use xlink:href="#f0_21" transform="matrix(12,0,0,12,199.6,332.3)" />
<use xlink:href="#f0_21" transform="matrix(12,0,0,12,210.6,332.3)" />
<use xlink:href="#f0_2k" transform="matrix(12,0,0,12,218.4,332.3)" />
<use xlink:href="#f0_2c" transform="matrix(12,0,0,12,227.2,332.3)" />
<use xlink:href="#f0_21" transform="matrix(12,0,0,12,236,332.3)" />
<use xlink:href="#f0_2e" transform="matrix(12,0,0,12,243.7,332.3)" />
<use xlink:href="#f0_25" transform="matrix(12,0,0,12,249.9,332.3)" />
<use xlink:href="#f0_29" transform="matrix(12,0,0,12,254,332.3)" />
<use xlink:href="#f0_21" transform="matrix(12,0,0,12,267.2,332.3)" />
<use xlink:href="#f0_2a" transform="matrix(12,0,0,12,274.9,332.3)" />
<use xlink:href="#f0_2g" transform="matrix(12,0,0,12,283.7,332.3)" />
<use xlink:href="#f0_g" transform="matrix(12,0,0,12,288.9,332.3)" />
<use xlink:href="#f0_2g" transform="matrix(12,0,0,12,296.6,332.3)" />
<use xlink:href="#f0_24" transform="matrix(12,0,0,12,301.7,332.3)" />
<use xlink:href="#f0_21" transform="matrix(12,0,0,12,310.2,332.3)" />
<use xlink:href="#f0_20" transform="matrix(12,0,0,12,321.6,332.3)" />
<use xlink:href="#f0_25" transform="matrix(12,0,0,12,330.4,332.3)" />
<use xlink:href="#f0_2f" transform="matrix(12,0,0,12,334.5,332.3)" />
<use xlink:href="#f0_2g" transform="matrix(12,0,0,12,341.4,332.3)" />
<use xlink:href="#f0_1x" transform="matrix(12,0,0,12,346.6,332.3)" />
<use xlink:href="#f0_2a" transform="matrix(12,0,0,12,354.3,332.3)" />
<use xlink:href="#f0_1z" transform="matrix(12,0,0,12,363.1,332.3)" />
<use xlink:href="#f0_21" transform="matrix(12,0,0,12,370.8,332.3)" />
<use xlink:href="#f0_25" transform="matrix(12,0,0,12,381.9,332.3)" />
<use xlink:href="#f0_2f" transform="matrix(12,0,0,12,386.3,332.3)" />
<use xlink:href="#f0_22" transform="matrix(12,0,0,12,396.2,332.3)" />
<use xlink:href="#f0_2b" transform="matrix(12,0,0,12,401.7,332.3)" />
<use xlink:href="#f0_2h" transform="matrix(12,0,0,12,410.9,332.3)" />
<use xlink:href="#f0_2a" transform="matrix(12,0,0,12,419.7,332.3)" />
<use xlink:href="#f0_20" transform="matrix(12,0,0,12,428.5,332.3)" />
<use xlink:href="#f0_2g" transform="matrix(12,0,0,12,440.3,332.3)" />
<use xlink:href="#f0_2b" transform="matrix(12,0,0,12,445.4,332.3)" />
<use xlink:href="#f0_1y" transform="matrix(12,0,0,12,458.3,332.3)" />
<use xlink:href="#f0_21" transform="matrix(12,0,0,12,466.7,332.3)" />
<use xlink:href="#f0_2l" transform="matrix(12,0,0,12,474.8,332.3)" />
<use xlink:href="#f0_i" transform="matrix(12,0,0,12,481.8,332.3)" />
<use xlink:href="#f0_1f" transform="matrix(12,0,0,12,489.5,332.3)" />
<use xlink:href="#f0_1y" transform="matrix(12,0,0,12,502.8,332.3)" />
<use xlink:href="#f0_2g" transform="matrix(12,0,0,12,511.2,332.3)" />
<use xlink:href="#f0_1x" transform="matrix(12,0,0,12,516.3,332.3)" />
<use xlink:href="#f0_25" transform="matrix(12,0,0,12,524.4,332.3)" />
<use xlink:href="#f0_2a" transform="matrix(12,0,0,12,528.5,332.3)" />
<use xlink:href="#f0_2g" transform="matrix(12,0,0,12,540.2,332.3)" />
<use xlink:href="#f0_24" transform="matrix(12,0,0,12,545.7,332.3)" />
<use xlink:href="#f0_21" transform="matrix(12,0,0,12,554.2,332.3)" />
<use xlink:href="#f0_21" transform="matrix(12,0,0,12,568.5,332.3)" />
<use xlink:href="#f0_2k" transform="matrix(12,0,0,12,576.3,332.3)" />
<use xlink:href="#f0_2c" transform="matrix(12,0,0,12,585.1,332.3)" />
<use xlink:href="#f0_2e" transform="matrix(12,0,0,12,593.9,332.3)" />
<use xlink:href="#f0_21" transform="matrix(12,0,0,12,599.8,332.3)" />
<use xlink:href="#f0_2f" transform="matrix(12,0,0,12,607.5,332.3)" />
<use xlink:href="#f0_2f" transform="matrix(12,0,0,12,614.5,332.3)" />
<use xlink:href="#f0_25" transform="matrix(12,0,0,12,621.1,332.3)" />
<use xlink:href="#f0_2b" transform="matrix(12,0,0,12,625.1,332.3)" />
<use xlink:href="#f0_2a" transform="matrix(12,0,0,12,634.7,332.3)" />
<use xlink:href="#f0_22" transform="matrix(12,0,0,12,646.4,332.3)" />
<use xlink:href="#f0_2b" transform="matrix(12,0,0,12,651.6,332.3)" />
<use xlink:href="#f0_2e" transform="matrix(12,0,0,12,661.1,332.3)" />
<use xlink:href="#f0_2g" transform="matrix(12,0,0,12,670.3,332.3)" />
<use xlink:href="#f0_24" transform="matrix(12,0,0,12,675.8,332.3)" />
<use xlink:href="#f0_21" transform="matrix(12,0,0,12,684.3,332.3)" />
<use xlink:href="#f0_2e" transform="matrix(12,0,0,12,695.7,332.3)" />
<use xlink:href="#f0_21" transform="matrix(12,0,0,12,701.6,332.3)" />
<use xlink:href="#f0_22" transform="matrix(12,0,0,12,709.3,332.3)" />
<use xlink:href="#f0_2e" transform="matrix(12,0,0,12,714.4,332.3)" />
<use xlink:href="#f0_1x" transform="matrix(12,0,0,12,720.7,332.3)" />
<use xlink:href="#f0_1z" transform="matrix(12,0,0,12,728.4,332.3)" />
<use xlink:href="#f0_2g" transform="matrix(12,0,0,12,736.1,332.3)" />
<use xlink:href="#f0_25" transform="matrix(12,0,0,12,741.6,332.3)" />
<use xlink:href="#f0_2i" transform="matrix(12,0,0,12,745.6,332.3)" />
<use xlink:href="#f0_21" transform="matrix(12,0,0,12,754.1,332.3)" />
<use xlink:href="#f0_25" transform="matrix(12,0,0,12,765.1,332.3)" />
<use xlink:href="#f0_2a" transform="matrix(12,0,0,12,769.2,332.3)" />
<use xlink:href="#f0_20" transform="matrix(12,0,0,12,776.2,332.3)" />
<use xlink:href="#f0_21" transform="matrix(12,0,0,12,785.4,332.3)" />
<use xlink:href="#f0_2k" transform="matrix(12,0,0,12,793.1,332.3)" />
<use xlink:href="#f0_2b" transform="matrix(12,0,0,12,805.2,332.3)" />
<use xlink:href="#f0_22" transform="matrix(12,0,0,12,814.4,332.3)" />
<use xlink:href="#f0_2g" transform="matrix(12,0,0,12,822.9,332.3)" />
<use xlink:href="#f0_24" transform="matrix(12,0,0,12,828.4,332.3)" />
<use xlink:href="#f0_21" transform="matrix(12,0,0,12,836.8,332.3)" />
<use xlink:href="#f0_28" transform="matrix(12,0,0,12,117,356.5)" />
<use xlink:href="#f0_25" transform="matrix(12,0,0,12,121.4,356.5)" />
<use xlink:href="#f0_2d" transform="matrix(12,0,0,12,125.4,356.5)" />
<use xlink:href="#f0_2h" transform="matrix(12,0,0,12,134.6,356.5)" />
<use xlink:href="#f0_25" transform="matrix(12,0,0,12,143.4,356.5)" />
<use xlink:href="#f0_20" transform="matrix(12,0,0,12,147.8,356.5)" />
<use xlink:href="#f0_25" transform="matrix(12,0,0,12,160.3,356.5)" />
<use xlink:href="#f0_2a" transform="matrix(12,0,0,12,164.4,356.5)" />
<use xlink:href="#f0_2g" transform="matrix(12,0,0,12,176.5,356.5)" />
<use xlink:href="#f0_21" transform="matrix(12,0,0,12,182,356.5)" />
<use xlink:href="#f0_2e" transform="matrix(12,0,0,12,189.7,356.5)" />
<use xlink:href="#f0_29" transform="matrix(12,0,0,12,196,356.5)" />
<use xlink:href="#f0_2f" transform="matrix(12,0,0,12,209.2,356.5)" />
<use xlink:href="#f0_2b" transform="matrix(12,0,0,12,219.5,356.5)" />
<use xlink:href="#f0_22" transform="matrix(12,0,0,12,229,356.5)" />
<use xlink:href="#f1_2k" transform="matrix(12,0,0,12,237.6,356.5)" />
<use xlink:href="#f0_1x" transform="matrix(12,0,0,12,248.6,356.5)" />
<use xlink:href="#f0_2a" transform="matrix(12,0,0,12,256.3,356.5)" />
<use xlink:href="#f0_20" transform="matrix(12,0,0,12,265.2,356.5)" />
<use xlink:href="#f1_2l" transform="matrix(12,0,0,12,277.6,356.5)" />
<use xlink:href="#f0_i" transform="matrix(12,0,0,12,285.3,356.5)" />
</g>
<path d="M529.1,537.7H380.2v-1.5H529.1v1.5Z" class="g1_11" />
<path d="M392.3,545.4l-5.5,-8.1l1.5,-.7l5.1,8l-1.1,.8Z" class="g1_11" />
<path d="M402.5,545.4l-5.1,-8.1l1.1,-.7l5.5,8l-1.5,.8Z" class="g1_11" />
<path d="M413.1,545.4l-5.4,-8.1l1.4,-.7l5.1,8l-1.1,.8Z" class="g1_11" />
<path d="M423.4,545.4l-5.1,-8.1l1.1,-.7l5.5,8l-1.5,.8Z" class="g1_11" />
<path d="M434,545.4l-5.5,-8.1l1.5,-.7l5.1,8l-1.1,.8Z" class="g1_11" />
<path d="M444.2,545.4l-5.1,-8.1l1.1,-.7l5.5,8l-1.5,.8Z" class="g1_11" />
<path d="M454.9,545.4l-5.5,-8.1l1,-.7l5.6,8l-1.1,.8Z" class="g1_11" />
<path d="M465.1,545.4l-5.5,-8.1l1.5,-.7l5.5,8l-1.5,.8Z" class="g1_11" />
<path d="M475.7,545.4l-5.5,-8.1l1.1,-.7l5.5,8l-1.1,.8Z" class="g1_11" />
<path d="M485.9,545.4l-5.5,-8.1l1.5,-.7l5.1,8l-1.1,.8Z" class="g1_11" />
<path d="M496.2,545.4l-5.1,-8.1l1.1,-.7l5.4,8l-1.4,.8Z" class="g1_11" />
<path d="M506.8,545.4l-5.5,-8.1l1.5,-.7l5.1,8l-1.1,.8Z" class="g1_11" />
<path d="M517.8,545.4l-5.5,-8.1l1.1,-.7l5.5,8l-1.1,.8Z" class="g1_11" />
<path d="M528,545.4l-5.5,-8.1l1.5,-1.1l5.1,8.4l-1.1,.8Z" class="g1_11" />
<path d="M412.8,522.6l1.1,.8v-.8l.7,.8l.4,.3l.7,.8l.7,.7l.8,.7l.7,.4l.7,.7l1.1,.4l.8,.7l1.1,.4l.7,.7l1.1,.4l2.2,1.1l2.2,.7l2.2,1.1l2.5,.8l2.6,.7l2.6,.4l2.5,.7l2.9,.4l2.6,.3h2.9l3,.4h2.5l3,-.4H460l1.4,-.3h1.5l1.5,-.4l1.4,-.4h1.5l1.5,-.3l1,-.4l1.5,-.4l1.5,-.3l1.4,-.8l1.1,-.3l1.5,-.8l1.5,-.3l1,-.8l1.5,-.3l1.1,-.8l1.5,-.7l1.1,-.7l1.1,-.8l1.4,-1.1l1.1,-.7l1.1,-.7l1.1,-1.1l1.1,-1.1l1.1,1.1l-1.1,1.1l-1.1,1.1l-1.4,.7l-1.1,1.1l-1.1,.7l-1.5,.8l-1.1,.7l-1.5,.7l-1.1,.8l-1.4,.7l-1.5,.7l-1.1,.4l-1.4,.7l-1.5,.4l-1.5,.4l-1.4,.7l-1.1,.4l-1.5,.3l-1.4,.4h-1.5l-1.5,.4l-1.4,.3h-1.5l-1.5,.4h-2.9l-2.9,.4h-2.9l-3,-.4h-2.9l-2.9,-.4l-2.9,-.3l-2.6,-.8l-2.6,-.3l-2.5,-.8l-2.6,-.7l-2.5,-1.1l-2.2,-.7l-2.2,-1.1l-1.1,-.8l-.8,-.3l-1.1,-.8l-1.1,-.3l-.7,-.8l-.7,-.3l-1.1,-.8l-.8,-.7l-.7,-.7l-.7,-.8l-.4,-.7l-.7,-.4v-1.1Zm0,1.1l-.4,-.7l.4,-.4v1.1Zm79.7,-.3l-1.1,-1.1l-.3,1.1l-.4,-1.1l-.7,-.8l-.8,-.7l-.7,-1.1l-.7,-.7l-.8,-.8l-.7,-.7l-1.1,-.7l-1.1,-.8l-.7,-.7l-1.1,-.7l-1.1,-.4l-1.1,-.7l-1.1,-.8l-1.5,-.3l-1.1,-.8l-1.1,-.3l-1.4,-.4l-1.1,-.7l-1.5,-.4l-1.5,-.4l-1,-.3l-1.5,-.4h-1.5l-1.4,-.4l-1.5,-.3h-1.5l-1.4,-.4h-2.9l-1.5,-.4h-6.2l-1.5,.4H445l-1.5,.4H442l-1.4,.3l-1.5,.4l-1.4,.4h-1.5l-1.5,.7l-1.1,.4l-1.4,.3l-1.5,.4l-1.1,.7l-1.4,.4l-1.1,.7l-1.5,.4l-1.1,.7l-1.1,.8l-1.1,.7l-1.1,.7l-1.1,.8l-1.1,1.1l-.7,.7l-1.1,.7l-.8,1.1l-1.1,1.1l-.7,1.1l-.7,.8l-1.1,-.8l.7,-1.1l.7,-1.1l1.1,-1.1l.8,-.7l1.1,-1.1l1.1,-1.1l.7,-.7l1.1,-.8l1.5,-.7l1.1,-.7l1.1,-.8l1.1,-.7l1.4,-.7l1.5,-.8l1.1,-.3l1.5,-.8l1.4,-.3l1.1,-.4l1.5,-.4l1.4,-.7l1.5,-.4h1.5l1.4,-.3l1.5,-.4h1.4l1.9,-.4h1.4l1.5,-.3h9.2l1.4,.3H460l1.4,.4h1.9l1.4,.4l1.5,.3h1.5l1.1,.4l1.4,.4l1.5,.3l1.4,.8l1.5,.3l1.1,.4l1.5,.4l1.1,.7l1.4,.7l1.1,.4l1.1,.7l1.1,.8l1.1,.7l1.1,.7l1.1,.8l.7,.7l1.1,.7l.8,.8l.7,1.1l1.1,.7l.7,.7l.4,1.1l.7,1.1v.8Zm0,-.8l.4,.4l-.4,.4v-.8Z" class="g1_11" />
<path d="M453.8,533.6h1.4v3.3h-1.4v-3.3Zm0,-4.4h1.4v3h-1.4v-3Zm0,-4.7h1.4v3.3h-1.4v-3.3Zm0,-4.4h1.4V523h-1.4v-2.9Zm0,-4.8h1.4v3.3h-1.4v-3.3Zm0,-4.4h1.4v2.9h-1.4v-2.9Zm0,-4.8h1.4v3.3h-1.4v-3.3Zm0,-4.4h1.4v3h-1.4v-3Zm0,-4.7h1.4v3.3h-1.4V497Zm0,-4.4h1.4v2.9h-1.4v-2.9Zm0,-4.8h1.4v3.3h-1.4v-3.3Zm0,-4.4h1.4v2.9h-1.4v-2.9Zm0,-4.8h1.4v3.3h-1.4v-3.3Zm0,-4.4h1.4v3h-1.4v-3Zm0,-4.7h1.4v3.3h-1.4v-3.3Zm0,-4.4h1.4V468h-1.4v-2.9Zm0,-4.8h1.4v3.3h-1.4v-3.3Zm0,-4.4h1.4v2.9h-1.4v-2.9Zm0,-4.8h1.4v3.3h-1.4v-3.3Zm0,-4.4h1.4v3h-1.4v-3Zm0,-4.7h1.4v3.3h-1.4V442Zm0,-4.4h1.4v2.9h-1.4v-2.9Zm0,-4.8h1.4v3.3h-1.4v-3.3Zm0,-4.4h1.4v2.9h-1.4v-2.9Zm0,-4.8h1.4v3.3h-1.4v-3.3Zm0,-4.4h1.4v3h-1.4v-3Zm0,-4.7h1.4v3.3h-1.4v-3.3Zm0,-4.4h1.4V413h-1.4v-2.9Zm0,-4.8h1.4v3.3h-1.4v-3.3Zm0,-4.4h1.4v2.9h-1.4v-2.9Zm0,-4.8h1.4v3.3h-1.4v-3.3Zm0,-4.4h1.4v3h-1.4v-3Zm0,-4.7h1.4v3.3h-1.4V387Zm0,-4.4h1.4v2.9h-1.4v-2.9Zm0,-4.8h1.4v3.3h-1.4v-3.3Zm0,-4.4h1.4v2.9h-1.4v-2.9Zm1.4,-3.3v1.8h-1.4v-1.8h1.4Z" class="g1_11" />
<path d="M454.5,435.7H402.9v-1.4h51.6v1.4Z" class="g1_11" />
<path d="M457.4,434.3v1.4h-2.9v-1.4h2.9Zm4.8,0v1.4h-2.9v-1.4h2.9Zm4.4,0v1.4h-3v-1.4h3Zm4.7,0v1.4h-2.9v-1.4h2.9Zm4.4,0v1.4h-2.9v-1.4h2.9Zm4.7,0v1.4h-2.9v-1.4h2.9Zm4.8,0v1.4h-3.3v-1.4h3.3Zm4.4,0v1.4h-2.9v-1.4h2.9Zm4.8,0v1.4h-3.3v-1.4h3.3Zm4.3,0v1.4h-2.9v-1.4h2.9Zm4.8,0v1.4h-3.3v-1.4h3.3Zm2.6,1.4H505v-1.4h1.1v1.4Z" class="g1_11" />
<path d="M460.7,432.4l-10.6,6.3l-.7,-1.5L459.6,431l1.1,1.4Z" class="g1_11" />
<path d="M458.9,439l-9.5,-6.9l.7,-1.1l9.9,6.9l-1.1,1.1Z" class="g1_11" />
<g fill="#000000" >
<use xlink:href="#f0_11" transform="matrix(12,0,0,12,64.9,567)" />
<use xlink:href="#f0_2a" transform="matrix(12,0,0,12,77.4,567)" />
<use xlink:href="#f0_2f" transform="matrix(12,0,0,12,85.8,567)" />
<use xlink:href="#f0_i" transform="matrix(12,0,0,12,92.4,567)" />
<use xlink:href="#f1_22" transform="matrix(12,0,0,12,117,567)" />
<use xlink:href="#f0_x" transform="matrix(12,0,0,12,129.1,567)" />
<use xlink:href="#f0_22" transform="matrix(12,0,0,12,142.7,567)" />
<use xlink:href="#f0_2b" transform="matrix(12,0,0,12,147.9,567)" />
<use xlink:href="#f0_1z" transform="matrix(12,0,0,12,157.4,567)" />
<use xlink:href="#f0_1x" transform="matrix(12,0,0,12,165.1,567)" />
<use xlink:href="#f0_28" transform="matrix(12,0,0,12,173.2,567)" />
<use xlink:href="#f0_28" transform="matrix(12,0,0,12,180.9,567)" />
<use xlink:href="#f0_21" transform="matrix(12,0,0,12,185,567)" />
<use xlink:href="#f0_2a" transform="matrix(12,0,0,12,193.1,567)" />
<use xlink:href="#f0_23" transform="matrix(12,0,0,12,201.5,567)" />
<use xlink:href="#f0_2g" transform="matrix(12,0,0,12,210.7,567)" />
<use xlink:href="#f0_24" transform="matrix(12,0,0,12,215.8,567)" />
<use xlink:href="#f0_28" transform="matrix(12,0,0,12,227.9,567)" />
<use xlink:href="#f0_25" transform="matrix(12,0,0,12,232.4,567)" />
<use xlink:href="#f0_2d" transform="matrix(12,0,0,12,236.4,567)" />
<use xlink:href="#f0_2h" transform="matrix(12,0,0,12,245.6,567)" />
<use xlink:href="#f0_25" transform="matrix(12,0,0,12,254.4,567)" />
<use xlink:href="#f0_20" transform="matrix(12,0,0,12,258.8,567)" />
<use xlink:href="#f0_f" transform="matrix(12,0,0,12,270.9,567)" />
<use xlink:href="#f0_28" transform="matrix(12,0,0,12,284.5,567)" />
<use xlink:href="#f0_21" transform="matrix(12,0,0,12,288.6,567)" />
<use xlink:href="#f0_2a" transform="matrix(12,0,0,12,296.7,567)" />
<use xlink:href="#f0_2f" transform="matrix(12,0,0,12,305.1,567)" />
<use xlink:href="#f1_22" transform="matrix(12,0,0,12,117,595.6)" />
<use xlink:href="#f0_l" transform="matrix(7,0,0,7,122.5,601.8)" />
<use xlink:href="#f0_x" transform="matrix(12,0,0,12,130.9,595.6)" />
<use xlink:href="#f0_22" transform="matrix(12,0,0,12,144.5,595.6)" />
<use xlink:href="#f0_2b" transform="matrix(12,0,0,12,150,595.6)" />
<use xlink:href="#f0_1z" transform="matrix(12,0,0,12,159.2,595.6)" />
<use xlink:href="#f0_1x" transform="matrix(12,0,0,12,166.9,595.6)" />
<use xlink:href="#f0_28" transform="matrix(12,0,0,12,175,595.6)" />
<use xlink:href="#f0_28" transform="matrix(12,0,0,12,182.4,595.6)" />
<use xlink:href="#f0_21" transform="matrix(12,0,0,12,186.4,595.6)" />
<use xlink:href="#f0_2a" transform="matrix(12,0,0,12,194.1,595.6)" />
<use xlink:href="#f0_23" transform="matrix(12,0,0,12,203,595.6)" />
<use xlink:href="#f0_2g" transform="matrix(12,0,0,12,211.8,595.6)" />
<use xlink:href="#f0_24" transform="matrix(12,0,0,12,217.3,595.6)" />
<use xlink:href="#f0_2b" transform="matrix(12,0,0,12,229.4,595.6)" />
<use xlink:href="#f0_22" transform="matrix(12,0,0,12,238.6,595.6)" />
<use xlink:href="#f0_28" transform="matrix(12,0,0,12,247.4,595.6)" />
<use xlink:href="#f0_21" transform="matrix(12,0,0,12,251.5,595.6)" />
<use xlink:href="#f0_2a" transform="matrix(12,0,0,12,259.5,595.6)" />
<use xlink:href="#f0_2f" transform="matrix(12,0,0,12,268,595.6)" />
<use xlink:href="#f0_2b" transform="matrix(12,0,0,12,278.3,595.6)" />
<use xlink:href="#f0_2a" transform="matrix(12,0,0,12,287.5,595.6)" />
<use xlink:href="#f0_28" transform="matrix(12,0,0,12,296.3,595.6)" />
<use xlink:href="#f0_2l" transform="matrix(12,0,0,12,300.3,595.6)" />
<use xlink:href="#f1_22" transform="matrix(12,0,0,12,117,624.6)" />
<use xlink:href="#f0_m" transform="matrix(7,0,0,7,122.5,630.8)" />
<use xlink:href="#f0_x" transform="matrix(12,0,0,12,130.6,624.6)" />
<use xlink:href="#f0_22" transform="matrix(12,0,0,12,144.2,624.6)" />
<use xlink:href="#f0_2b" transform="matrix(12,0,0,12,149.3,624.6)" />
<use xlink:href="#f0_1z" transform="matrix(12,0,0,12,158.5,624.6)" />
<use xlink:href="#f0_1x" transform="matrix(12,0,0,12,166.2,624.6)" />
<use xlink:href="#f0_28" transform="matrix(12,0,0,12,174.3,624.6)" />
<use xlink:href="#f0_28" transform="matrix(12,0,0,12,181.3,624.6)" />
<use xlink:href="#f0_21" transform="matrix(12,0,0,12,185.3,624.6)" />
<use xlink:href="#f0_2a" transform="matrix(12,0,0,12,193,624.6)" />
<use xlink:href="#f0_23" transform="matrix(12,0,0,12,201.9,624.6)" />
<use xlink:href="#f0_2g" transform="matrix(12,0,0,12,210.7,624.6)" />
<use xlink:href="#f0_24" transform="matrix(12,0,0,12,215.8,624.6)" />
<use xlink:href="#f0_2b" transform="matrix(12,0,0,12,227.9,624.6)" />
<use xlink:href="#f0_22" transform="matrix(12,0,0,12,237.1,624.6)" />
<use xlink:href="#f0_28" transform="matrix(12,0,0,12,245.6,624.6)" />
<use xlink:href="#f0_25" transform="matrix(12,0,0,12,250,624.6)" />
<use xlink:href="#f0_2d" transform="matrix(12,0,0,12,254,624.6)" />
<use xlink:href="#f0_2h" transform="matrix(12,0,0,12,262.9,624.6)" />
<use xlink:href="#f0_25" transform="matrix(12,0,0,12,271.7,624.6)" />
<use xlink:href="#f0_20" transform="matrix(12,0,0,12,275.7,624.6)" />
<use xlink:href="#f0_29" transform="matrix(12,0,0,12,288.2,624.6)" />
<use xlink:href="#f0_25" transform="matrix(12,0,0,12,301.4,624.6)" />
<use xlink:href="#f0_2e" transform="matrix(12,0,0,12,305.5,624.6)" />
<use xlink:href="#f0_2e" transform="matrix(12,0,0,12,311.7,624.6)" />
<use xlink:href="#f0_2b" transform="matrix(12,0,0,12,317.6,624.6)" />
<use xlink:href="#f0_2e" transform="matrix(12,0,0,12,326.8,624.6)" />
</g>
<path d="M120,666.9h14.5m19.4,0h16.5m17.4,0h18.4" class="g2_11" />
<g fill="#000000" >
<use xlink:href="#f0_l" transform="matrix(6.9,0,0,6.9,163.2,690.2)" />
<use xlink:href="#f0_m" transform="matrix(6.9,0,0,6.9,198.4,690.2)" />
<use xlink:href="#f0_l" transform="matrix(11.9,0,0,11.9,122.8,659.8)" />
<use xlink:href="#f0_l" transform="matrix(11.9,0,0,11.9,157.7,659.8)" />
<use xlink:href="#f0_l" transform="matrix(11.9,0,0,11.9,192.5,659.8)" />
<use xlink:href="#f1_22" transform="matrix(11.9,0,0,11.9,124.7,685.8)" />
<use xlink:href="#f1_22" transform="matrix(11.9,0,0,11.9,158.4,685.8)" />
<use xlink:href="#f1_22" transform="matrix(11.9,0,0,11.9,192.5,685.8)" />
<use xlink:href="#f2_x" transform="matrix(11.9,0,0,11.9,139.3,671.5)" />
<use xlink:href="#f2_f" transform="matrix(11.9,0,0,11.9,174.2,671.5)" />
</g>
<path d="M120,733.2h18.4m19.4,0h14.5m17.2,0h16.4" class="g2_11" />
<g fill="#000000" >
<use xlink:href="#f0_m" transform="matrix(6.9,0,0,6.9,130.5,756.6)" />
<use xlink:href="#f0_l" transform="matrix(6.9,0,0,6.9,198.7,756.6)" />
<use xlink:href="#f0_l" transform="matrix(11.9,0,0,11.9,124.7,726.1)" />
<use xlink:href="#f0_l" transform="matrix(11.9,0,0,11.9,160.6,726.1)" />
<use xlink:href="#f0_l" transform="matrix(11.9,0,0,11.9,193.2,726.1)" />
<use xlink:href="#f1_22" transform="matrix(11.9,0,0,11.9,124.7,752.2)" />
<use xlink:href="#f1_22" transform="matrix(11.9,0,0,11.9,162.4,752.2)" />
<use xlink:href="#f1_22" transform="matrix(11.9,0,0,11.9,194,752.2)" />
<use xlink:href="#f2_x" transform="matrix(11.9,0,0,11.9,143.4,737.9)" />
<use xlink:href="#f2_h" transform="matrix(11.9,0,0,11.9,176,737.9)" />
</g>
<path d="M120,799.6h18.6m19.5,0h11.2m17.2,0h12.4" class="g3_11" />
<g fill="#000000" >
<use xlink:href="#f0_m" transform="matrix(6.9,0,0,6.9,130.5,822.9)" />
<use xlink:href="#f0_l" transform="matrix(11.9,0,0,11.9,124.7,792.5)" />
<use xlink:href="#f0_l" transform="matrix(11.9,0,0,11.9,159.1,792.5)" />
<use xlink:href="#f0_l" transform="matrix(11.9,0,0,11.9,188.1,792.5)" />
<use xlink:href="#f1_22" transform="matrix(11.9,0,0,11.9,124.7,818.5)" />
<use xlink:href="#f1_2k" transform="matrix(11.9,0,0,11.9,160.2,818.5)" />
<use xlink:href="#f1_2l" transform="matrix(11.9,0,0,11.9,189.5,818.5)" />
<use xlink:href="#f2_x" transform="matrix(11.9,0,0,11.9,143.4,804.2)" />
<use xlink:href="#f2_h" transform="matrix(11.9,0,0,11.9,173,804.2)" />
</g>
<path d="M155,865.8h37.7" class="g4_11" />
<g fill="#000000" >
<use xlink:href="#f0_m" transform="matrix(7,0,0,7,129.1,875)" />
</g>
<g clip-path="url(#c0_11)">
<g fill="#000000" >
<use xlink:href="#f1_2k" transform="matrix(12,0,0,12,166.1,858.9)" />
<use xlink:href="#f1_2l" transform="matrix(12,0,0,12,174.2,858.9)" />
</g>
</g>
<g fill="#000000" >
<use xlink:href="#f1_22" transform="matrix(12,0,0,12,123.2,870.2)" />
<use xlink:href="#f1_2l" transform="matrix(12,0,0,12,158,884.9)" />
<use xlink:href="#f1_2k" transform="matrix(12,0,0,12,183.7,884.9)" />
<use xlink:href="#f2_x" transform="matrix(12,0,0,12,140.4,870.2)" />
<use xlink:href="#f2_h" transform="matrix(12,0,0,12,169.4,884.9)" />
<use xlink:href="#f0_1e" transform="matrix(12,0,0,12,117,916.1)" />
<use xlink:href="#f0_2b" transform="matrix(12,0,0,12,129.8,916.1)" />
<use xlink:href="#f0_2j" transform="matrix(12,0,0,12,139.3,916.1)" />
<use xlink:href="#f0_g" transform="matrix(12,0,0,12,151.1,916.1)" />
</g>
<path d="M120,959.1h16.5" class="g5_11" />
<g fill="#000000" >
<use xlink:href="#f2_c" transform="matrix(11.8,0,0,15.8,155.1,965.2)" />
<use xlink:href="#f2_d" transform="matrix(11.8,0,0,15.8,196.2,965.2)" />
</g>
<path d="M213.8,959.1h14.1" class="g5_11" />
<g fill="#000000" >
<use xlink:href="#f0_l" transform="matrix(7,0,0,7,129.4,982.8)" />
<use xlink:href="#f0_l" transform="matrix(12.1,0,0,12.1,123.6,952)" />
<use xlink:href="#f0_m" transform="matrix(12.1,0,0,12.1,216.7,952)" />
<use xlink:href="#f0_l" transform="matrix(12.1,0,0,12.1,187.7,963.7)" />
<use xlink:href="#f1_48" transform="matrix(12.1,0,0,12.1,162.8,963.7)" />
<use xlink:href="#f1_22" transform="matrix(12.1,0,0,12.1,124.7,978)" />
<use xlink:href="#f1_1i" transform="matrix(12.1,0,0,12.1,215.6,978)" />
<use xlink:href="#f2_4o" transform="matrix(12.1,0,0,12.1,203.9,953.5)" />
<use xlink:href="#f2_54" transform="matrix(12.1,0,0,12.1,230.6,953.5)" />
<use xlink:href="#f2_x" transform="matrix(12.1,0,0,12.1,141.5,963.7)" />
<use xlink:href="#f2_h" transform="matrix(12.1,0,0,12.1,176.4,963.7)" />
<use xlink:href="#f2_4p" transform="matrix(12.1,0,0,12.1,203.9,968.9)" />
<use xlink:href="#f2_55" transform="matrix(12.1,0,0,12.1,230.6,968.9)" />
<use xlink:href="#f2_4q" transform="matrix(12.1,0,0,12.1,203.9,980.2)" />
<use xlink:href="#f2_56" transform="matrix(12.1,0,0,12.1,230.6,980.2)" />
<use xlink:href="#f0_c" transform="matrix(12,0,0,12,281.2,968.9)" />
<use xlink:href="#f0_13" transform="matrix(12,0,0,12,287.1,968.9)" />
<use xlink:href="#f0_2b" transform="matrix(12,0,0,12,298.9,968.9)" />
<use xlink:href="#f0_2a" transform="matrix(12,0,0,12,308,968.9)" />
<use xlink:href="#f0_2i" transform="matrix(12,0,0,12,316.5,968.9)" />
<use xlink:href="#f0_21" transform="matrix(12,0,0,12,324.9,968.9)" />
<use xlink:href="#f0_2k" transform="matrix(12,0,0,12,332.6,968.9)" />
<use xlink:href="#f0_28" transform="matrix(12,0,0,12,344.8,968.9)" />
<use xlink:href="#f0_21" transform="matrix(12,0,0,12,348.8,968.9)" />
<use xlink:href="#f0_2a" transform="matrix(12,0,0,12,356.6,968.9)" />
<use xlink:href="#f0_2f" transform="matrix(12,0,0,12,365,968.9)" />
<use xlink:href="#f0_d" transform="matrix(12,0,0,12,371.6,968.9)" />
</g>
<path d="M120,1026h12.3" class="g4_11" />
<g fill="#000000" >
<use xlink:href="#f2_c" transform="matrix(11.8,0,0,15.8,150.7,1031.9)" />
<use xlink:href="#f2_d" transform="matrix(11.8,0,0,15.8,201.7,1031.9)" />
</g>
<path d="M210.2,1026h14" class="g4_11" />
<g fill="#000000" >
<use xlink:href="#f0_l" transform="matrix(12,0,0,12,121.7,1019.1)" />
<use xlink:href="#f0_m" transform="matrix(12,0,0,12,213,1019.1)" />
<use xlink:href="#f0_l" transform="matrix(12,0,0,12,156.6,1030.5)" />
<use xlink:href="#f0_i" transform="matrix(12,0,0,12,165.4,1030.5)" />
<use xlink:href="#f0_p" transform="matrix(12,0,0,12,170.1,1030.5)" />
<use xlink:href="#f0_l" transform="matrix(12,0,0,12,192.9,1030.5)" />
<use xlink:href="#f1_2l" transform="matrix(12,0,0,12,122.8,1045.1)" />
<use xlink:href="#f1_1i" transform="matrix(12,0,0,12,211.9,1045.1)" />
<use xlink:href="#f2_x" transform="matrix(12,0,0,12,137.1,1030.5)" />
<use xlink:href="#f2_h" transform="matrix(12,0,0,12,181.9,1030.5)" />
</g>
<path d="M120,1090.9h12.4m19.5,0h47.7" class="g5_11" />
<g fill="#000000" >
<use xlink:href="#f0_l" transform="matrix(12,0,0,12,121.7,1084)" />
<use xlink:href="#f0_k" transform="matrix(12,0,0,12,152.9,1084)" />
<use xlink:href="#f0_i" transform="matrix(12,0,0,12,162.1,1084)" />
<use xlink:href="#f0_p" transform="matrix(12,0,0,12,166.5,1084)" />
<use xlink:href="#f0_m" transform="matrix(12,0,0,12,189.9,1084)" />
<use xlink:href="#f1_2l" transform="matrix(12,0,0,12,122.8,1110)" />
<use xlink:href="#f1_1i" transform="matrix(12,0,0,12,170.5,1110)" />
<use xlink:href="#f2_3a" transform="matrix(12,0,0,12,177.1,1084)" />
<use xlink:href="#f2_x" transform="matrix(12,0,0,12,137.1,1095.4)" />
<use xlink:href="#f1_1i" transform="matrix(11.9,0,0,11.9,120.3,1145.6)" />
<use xlink:href="#f1_2l" transform="matrix(11.9,0,0,11.9,151.8,1145.6)" />
<use xlink:href="#f2_x" transform="matrix(11.9,0,0,11.9,136,1145.6)" />
<use xlink:href="#f3_l" transform="matrix(8,0,0,8,785.4,1264.2)" />
<use xlink:href="#f3_l" transform="matrix(8,0,0,8,792.2,1264.2)" />
</g>
<defs>
<path d="M474,-326c0,0,-112,57,-188,133c0,0,-107,108,-165,254c0,0,-58,147,-58,305c0,0,0,231,114,421c0,0,114,191,297,273v-31c0,0,-92,-51,-151,-139c0,0,-59,-88,-88,-223c0,0,-30,-135,-30,-281c0,0,0,-160,25,-290c0,0,20,-102,47,-164c0,0,28,-62,75,-120c0,0,47,-57,122,-109v-29Z" 
id="f0_c"
transform="scale(0.001,-0.001)" />

<path d="M397,34c0,0,67,0,126,75c0,0,58,74,58,216c0,0,0,131,-58,201c0,0,-59,70,-133,70c0,0,-39,0,-79,-20c0,0,-29,-14,-75,-59V109c0,0,37,-37,78,-56c0,0,40,-19,83,-19ZM358,-20c0,0,-59,0,-121,21c0,0,-61,22,-126,65V773c0,0,0,117,-5,144c0,0,-6,27,-18,37c0,0,-12,9,-29,9c0,0,-21,0,-53,-12l-9,27l205,83h34V564c0,0,98,139,213,139c0,0,105,0,183,-90c0,0,78,-90,78,-245c0,0,0,-182,-121,-293c0,0,-103,-95,-231,-95Z" 
id="f0_1y"
transform="scale(0.001,-0.001)" />

<path d="M35,-326v29c0,0,92,51,151,139c0,0,60,87,89,221c0,0,28,136,28,282c0,0,0,159,-24,290c0,0,-19,103,-47,165c0,0,-28,62,-75,119c0,0,-46,57,-122,110v31c0,0,113,-56,188,-132c0,0,107,-109,165,-255c0,0,58,-147,58,-306c0,0,0,-231,-114,-420c0,0,-113,-191,-297,-273Z" 
id="f0_d"
transform="scale(0.001,-0.001)" />

<path d="M474,-21L174,817c0,0,-34,94,-42,112c0,0,-15,28,-41,42c0,0,-26,14,-70,14v27H395V985H377c0,0,-40,0,-60,-18c0,0,-21,-18,-21,-44c0,0,0,-26,33,-120L528,235L696,718l-30,85l-24,68c0,0,-16,37,-35,66c0,0,-10,14,-24,24c0,0,-19,13,-38,19c0,0,-14,5,-44,5v27H894V985H867c0,0,-41,0,-61,-18c0,0,-19,-18,-19,-49c0,0,0,-38,33,-133L1015,235l193,557c0,0,32,93,32,129c0,0,0,17,-10,32c0,0,-11,15,-28,21c0,0,-28,11,-74,11v27h302V985c0,0,-39,0,-64,-15c0,0,-25,-14,-47,-53c0,0,-15,-26,-47,-124L990,-21H960L729,624L501,-21Z" 
id="f0_1n"
transform="scale(0.001,-0.001)" />

<path d="M20,0V26c0,0,45,0,71,15c0,0,15,7,24,28c0,0,9,21,9,85V773c0,0,0,117,-5,144c0,0,-6,27,-17,37c0,0,-12,9,-31,9c0,0,-16,0,-51,-12L10,978l204,83h34V561c0,0,83,91,131,116c0,0,49,26,97,26c0,0,58,0,100,-32c0,0,42,-32,62,-101c0,0,14,-47,14,-174V154c0,0,0,-65,11,-89c0,0,7,-18,25,-28c0,0,18,-11,66,-11V0H418V26h15c0,0,48,0,67,15c0,0,18,15,26,43c0,0,2,12,2,70V396c0,0,0,112,-12,147c0,0,-11,35,-36,53c0,0,-26,17,-61,17c0,0,-37,0,-76,-19c0,0,-40,-20,-95,-79V154c0,0,0,-70,8,-87c0,0,8,-17,29,-29c0,0,22,-12,74,-12V0Z" 
id="f0_24"
transform="scale(0.001,-0.001)" />

<path d="M286,72c0,0,57,0,149,75V407c0,0,-113,-45,-145,-64c0,0,-59,-32,-85,-68c0,0,-25,-36,-25,-78c0,0,0,-54,32,-89c0,0,32,-36,74,-36ZM217,-13c0,0,-71,0,-116,48c0,0,-46,48,-46,127c0,0,0,50,22,87c0,0,31,50,106,95c0,0,76,45,252,109v26c0,0,0,102,-32,140c0,0,-32,38,-94,38c0,0,-47,0,-74,-25c0,0,-28,-25,-28,-58l1,-43c0,0,0,-34,-17,-53c0,0,-18,-18,-47,-18c0,0,-28,0,-45,19c0,0,-18,19,-18,53c0,0,0,64,66,117c0,0,65,54,184,54c0,0,91,0,149,-31c0,0,44,-23,65,-72c0,0,13,-32,13,-131V238c0,0,0,-98,4,-120c0,0,4,-22,12,-29c0,0,9,-8,20,-8c0,0,12,0,21,5c0,0,16,10,61,55V99C676,99,592,-12,516,-12c0,0,-37,0,-58,24c0,0,-22,26,-23,86C435,98,330,17,303,5c0,0,-40,-18,-86,-18Z" 
id="f0_1x"
transform="scale(0.001,-0.001)" />

<path d="M255,-10c0,0,-35,0,-68,18c0,0,-32,19,-48,55c0,0,-16,35,-16,109V632H15v24c0,0,41,16,84,56c0,0,43,39,77,92c0,0,17,29,48,104h23V683H407V632H247V188c0,0,0,-66,19,-90c0,0,19,-23,49,-23c0,0,24,0,47,16c0,0,23,15,36,45h29c0,0,-26,-73,-74,-110c0,0,-47,-36,-98,-36Z" 
id="f0_2g"
transform="scale(0.001,-0.001)" />

<path d="M13,0V26c0,0,52,0,78,13c0,0,16,8,24,25c0,0,11,25,11,86V773c0,0,0,118,-5,145c0,0,-5,26,-17,36c0,0,-12,10,-32,10c0,0,-15,0,-47,-13L13,978l203,83h34V381L424,540c0,0,55,50,64,64c0,0,6,9,6,18c0,0,0,15,-12,26c0,0,-13,11,-41,12v23H738V660c0,0,-61,-2,-102,-19c0,0,-40,-17,-89,-62L372,418L547,196c0,0,73,-92,98,-117c0,0,36,-35,63,-45c0,0,18,-8,65,-8V0H441V26c0,0,28,1,38,9c0,0,10,8,10,22c0,0,0,17,-29,56L250,381V154c0,0,0,-67,10,-88c0,0,9,-21,26,-30c0,0,17,-9,75,-10V0Z" 
id="f0_27"
transform="scale(0.001,-0.001)" />

<path d="M55,0V26c0,0,50,0,67,10c0,0,17,10,27,32c0,0,10,23,10,86V418c0,0,0,111,-6,144c0,0,-6,24,-17,33c0,0,-11,10,-30,10c0,0,-21,0,-51,-11L45,620l206,83h33V154c0,0,0,-64,9,-85c0,0,9,-22,27,-32c0,0,19,-11,67,-11V0ZM222,909c0,0,-32,0,-54,23c0,0,-22,22,-22,53c0,0,0,32,22,54c0,0,22,22,54,22c0,0,31,0,53,-22c0,0,22,-22,22,-54c0,0,0,-31,-22,-53c0,0,-22,-23,-53,-23Z" 
id="f0_25"
transform="scale(0.001,-0.001)" />

<path d="M21,0V26H35c0,0,53,0,71,27c0,0,18,27,18,101V408c0,0,0,123,-5,150c0,0,-6,27,-17,37c0,0,-12,10,-31,10c0,0,-21,0,-50,-11L10,620l206,83h32V558c0,0,120,145,229,145c0,0,56,0,96,-28c0,0,40,-28,64,-92c0,0,16,-45,16,-137V154c0,0,0,-65,11,-88c0,0,8,-19,26,-29c0,0,18,-11,68,-11V0H419V26h14c0,0,47,0,66,15c0,0,20,15,27,43c0,0,3,11,3,70V434c0,0,0,93,-24,135c0,0,-24,42,-81,42c0,0,-88,0,-176,-97V154c0,0,0,-69,9,-86c0,0,10,-21,28,-31c0,0,19,-11,75,-11V0Z" 
id="f0_2a"
transform="scale(0.001,-0.001)" />

<path d="M399,62c0,0,68,0,131,68V481c0,0,-5,51,-27,93c0,0,-22,42,-59,63c0,0,-37,21,-72,21c0,0,-65,0,-117,-59c0,0,-67,-77,-67,-226c0,0,0,-151,65,-231c0,0,66,-80,146,-80ZM330,-20c0,0,-112,0,-196,93c0,0,-83,94,-83,240c0,0,0,147,92,269c0,0,93,122,238,122c0,0,90,0,149,-58V773c0,0,0,117,-6,144c0,0,-5,27,-17,37c0,0,-12,9,-30,9c0,0,-20,0,-52,-12l-9,27l204,83h33V270c0,0,0,-120,6,-146c0,0,5,-27,18,-37c0,0,12,-11,28,-11c0,0,21,0,54,13l9,-26L564,-20H530V78C530,78,480,25,432,2c0,0,-47,-22,-102,-22Z" 
id="f0_20"
transform="scale(0.001,-0.001)" />

<path d="M406,32c0,0,72,0,119,60c0,0,47,59,47,205c0,0,0,181,-78,286c0,0,-53,71,-135,71c0,0,-40,0,-79,-23c0,0,-40,-24,-65,-83c0,0,-24,-58,-24,-151c0,0,0,-149,59,-257c0,0,59,-108,156,-108ZM374,-20c0,0,-154,0,-245,122c0,0,-77,104,-77,233c0,0,0,94,46,187c0,0,47,92,123,137c0,0,76,44,161,44c0,0,155,0,249,-118c0,0,80,-100,80,-231c0,0,0,-91,-44,-185C667,169,623,75,546,27c0,0,-77,-47,-172,-47Z" 
id="f0_2b"
transform="scale(0.001,-0.001)" />

<path d="M63,0V26H93c0,0,30,0,54,15c0,0,25,15,34,41c0,0,10,25,10,99V630H58v53H191v45c0,0,0,102,33,173c0,0,32,71,100,114c0,0,68,44,152,44c0,0,79,0,145,-51c0,0,43,-33,43,-75c0,0,0,-22,-19,-42c0,0,-20,-20,-42,-20c0,0,-17,0,-36,12c0,0,-19,13,-47,53c0,0,-28,41,-51,55c0,0,-23,14,-51,14c0,0,-35,0,-58,-18c0,0,-24,-18,-35,-57c0,0,-10,-38,-10,-197V683H491V630H315V181c0,0,0,-96,21,-122c0,0,27,-33,73,-33h62V0Z" 
id="f0_22"
transform="scale(0.001,-0.001)" />

<path d="M17,0V26c0,0,52,0,77,17c0,0,19,12,26,38c0,0,4,13,4,73V419c0,0,0,119,-5,142c0,0,-4,23,-17,33c0,0,-13,11,-33,11c0,0,-23,0,-52,-11l-7,26l207,83h31V549c0,0,86,154,176,154c0,0,41,0,68,-25c0,0,27,-25,27,-58c0,0,0,-29,-20,-49c0,0,-19,-20,-46,-20c0,0,-26,0,-58,25c0,0,-33,26,-48,26c0,0,-14,0,-29,-15c0,0,-34,-30,-70,-101V159c0,0,0,-56,15,-85c0,0,9,-20,34,-34c0,0,24,-14,71,-14V0Z" 
id="f0_2e"
transform="scale(0.001,-0.001)" />

<path d="M411,-239c0,0,134,0,198,48c0,0,64,47,64,100c0,0,0,39,-38,55c0,0,-39,16,-154,19c0,0,-167,5,-258,17c0,0,-35,-37,-53,-70c0,0,-17,-32,-17,-60c0,0,0,-36,43,-62c0,0,74,-47,215,-47ZM380,257c0,0,56,0,93,43c0,0,36,42,36,133c0,0,0,118,-51,185c0,0,-38,49,-98,49c0,0,-55,0,-92,-44c0,0,-37,-44,-37,-135c0,0,0,-117,50,-182c0,0,39,-49,99,-49ZM345,-328c0,0,-144,0,-243,64c0,0,-56,38,-56,78c0,0,0,18,8,36c0,0,13,27,52,76c0,0,5,7,76,80c0,0,-39,23,-55,41c0,0,-16,19,-16,42c0,0,0,26,22,61c0,0,21,35,98,100c0,0,-63,30,-97,85c0,0,-33,55,-33,121c0,0,0,101,76,174c0,0,77,73,196,73c0,0,98,0,170,-48H688c0,0,32,0,37,-2c0,0,6,-2,8,-6c0,0,4,-7,4,-24c0,0,0,-20,-4,-27c0,0,-2,-4,-7,-6c0,0,-6,-2,-38,-2H599c0,0,41,-54,41,-137c0,0,0,-96,-73,-163c0,0,-73,-68,-196,-68c0,0,-51,0,-104,15c0,0,-33,-28,-44,-49c0,0,-12,-22,-12,-37c0,0,0,-12,13,-24c0,0,12,-12,48,-17c0,0,21,-4,104,-6c0,0,154,-4,199,-11c0,0,70,-10,111,-51c0,0,42,-41,42,-102c0,0,0,-84,-79,-158c0,0,-117,-108,-304,-108Z" 
id="f0_23"
transform="scale(0.001,-0.001)" />

<path d="M479,469c0,0,-4,66,-16,93c0,0,-18,42,-55,65c0,0,-37,24,-78,24c0,0,-62,0,-111,-48c0,0,-48,-48,-57,-134ZM355,-20c0,0,-123,0,-211,95c0,0,-87,96,-87,258c0,0,0,175,90,273c0,0,89,98,225,98c0,0,115,0,189,-76c0,0,74,-75,74,-202H162c0,0,0,-152,74,-239c0,0,75,-86,175,-86c0,0,67,0,117,36c0,0,50,37,83,127l24,-15c0,0,-16,-102,-91,-186c0,0,-76,-83,-189,-83Z" 
id="f0_21"
transform="scale(0.001,-0.001)" />

<path d="M312,-20c0,0,-62,0,-143,22c0,0,-25,8,-40,8c0,0,-18,0,-27,-19H77V234h25c0,0,21,-105,80,-158c0,0,59,-53,132,-53c0,0,51,0,84,31c0,0,32,30,32,72c0,0,0,52,-36,87c0,0,-36,35,-144,88c0,0,-109,54,-142,97c0,0,-34,43,-34,107c0,0,0,85,58,141c0,0,58,57,150,57c0,0,40,0,97,-17c0,0,38,-11,51,-11c0,0,12,0,19,5c0,0,7,5,15,23h25V470H464c0,0,-28,110,-72,149c0,0,-45,40,-113,40c0,0,-53,0,-85,-28c0,0,-32,-27,-32,-61c0,0,0,-41,24,-71c0,0,23,-31,94,-65L389,381c0,0,152,-74,152,-194c0,0,0,-94,-71,-151c0,0,-70,-56,-158,-56Z" 
id="f0_2f"
transform="scale(0.001,-0.001)" />

<path d="M145,-328c0,0,-44,0,-73,25c0,0,-28,25,-28,58c0,0,0,31,21,50c0,0,20,19,56,19c0,0,25,0,67,-16c0,0,30,-11,38,-11c0,0,22,0,49,23c0,0,26,23,53,89L376,28L131,542c0,0,-11,24,-36,58c0,0,-19,27,-30,36c0,0,-18,12,-56,21v26H328V657H312c0,0,-33,0,-50,-15c0,0,-17,-14,-17,-36c0,0,0,-30,25,-81L437,179L589,557c0,0,12,31,12,62c0,0,0,13,-5,20c0,0,-6,8,-19,13c0,0,-12,5,-44,5v26H754V657c0,0,-27,-3,-42,-12c0,0,-15,-9,-33,-34c0,0,-7,-10,-25,-58L376,-128c0,0,-40,-99,-105,-150c0,0,-66,-50,-126,-50Z" 
id="f0_2l"
transform="scale(0.001,-0.001)" />

<path d="M292,-20c0,0,-57,0,-100,33c0,0,-42,33,-58,85c0,0,-17,52,-17,148V551c0,0,0,49,-10,68c0,0,-11,18,-31,29c0,0,-19,9,-68,9c-2,0,-4,0,-6,0v26H242V226c0,0,0,-95,33,-125c0,0,33,-30,80,-30c0,0,32,0,73,21c0,0,40,20,96,76V555c0,0,0,59,-21,80c0,0,-22,21,-89,22v26H647V269c0,0,0,-119,6,-145c0,0,6,-27,18,-37c0,0,12,-11,29,-11c0,0,23,0,52,13L763,63L558,-20H524V124C524,124,436,29,390,4c0,0,-47,-24,-98,-24Z" 
id="f0_2h"
transform="scale(0.001,-0.001)" />

<path d="M25,0V26c0,0,27,4,47,19c0,0,29,22,96,111L311,346L182,535c0,0,-55,81,-86,102c0,0,-30,20,-75,20v26H341V657c0,0,-30,0,-42,-10c0,0,-13,-11,-13,-28c0,0,0,-19,27,-56c0,0,8,-12,25,-37l48,-78l56,77c0,0,55,74,55,94c0,0,0,16,0,27c0,0,0,11,0,11v26H674V657c0,0,-37,-2,-64,-20c0,0,-37,-26,-100,-111L416,402L587,156c0,0,63,-91,89,-109c0,0,27,-18,70,-21V0H423V26c0,0,34,0,53,15c0,0,14,11,14,28c0,0,0,17,-48,87L341,302L232,157c0,0,-50,-69,-50,-82c0,0,0,-18,17,-32c0,0,17,-15,50,-17V0Z" 
id="f0_2k"
transform="scale(0.001,-0.001)" />

<path d="M342,-20c0,0,-116,0,-203,97c0,0,-86,98,-86,264c0,0,0,161,96,261c0,0,95,101,230,101c0,0,100,0,165,-53c0,0,65,-54,65,-111c0,0,0,-29,-18,-46c0,0,-18,-18,-51,-18c0,0,-44,0,-66,29c0,0,-13,15,-17,59c0,0,-4,45,-30,68c0,0,-26,22,-73,22c0,0,-74,0,-120,-55c0,0,-60,-73,-60,-193c0,0,0,-122,60,-216c0,0,60,-93,162,-93c0,0,73,0,131,49c0,0,41,35,80,126l22,-10C629,261,601,125,521,52c0,0,-81,-72,-179,-72Z" 
id="f0_1z"
transform="scale(0.001,-0.001)" />

<path d="M398,24c0,0,74,0,120,58c0,0,61,76,61,214c0,0,0,156,-69,240c0,0,-47,59,-113,59c0,0,-36,0,-71,-18c0,0,-27,-14,-88,-81V242c0,0,0,-83,6,-109c0,0,11,-43,51,-76c0,0,41,-33,103,-33ZM-4,-326v27H15c5,0,42,0,69,16c0,0,14,8,22,26c0,0,7,19,7,94V481c0,0,0,67,-6,85c0,0,-5,18,-18,27c0,0,-13,9,-36,9c0,0,-18,0,-45,-10L0,615l209,85h29V540c0,0,53,91,106,127c0,0,53,36,112,36c0,0,103,0,172,-80c0,0,84,-99,84,-257c0,0,0,-176,-102,-292c0,0,-83,-94,-210,-94c0,0,-55,0,-95,16c0,0,-30,10,-67,44V-167c0,0,0,-71,8,-90c0,0,9,-20,30,-31c0,0,21,-11,77,-11v-27Z" 
id="f0_2c"
transform="scale(0.001,-0.001)" />

<path d="M376,-20L133,556c0,0,-17,41,-31,58c0,0,-15,18,-39,30c0,0,-12,7,-50,13v26H335V657H314c0,0,-29,0,-44,-14c0,0,-16,-14,-15,-38c0,0,-1,-26,15,-62L429,165L588,557c0,0,17,42,17,64c0,0,0,10,-6,17c0,0,-8,11,-21,15c0,0,-13,4,-52,4v26H750V657c0,0,-39,-3,-54,-16c0,0,-26,-23,-47,-76L409,-20Z" 
id="f0_2i"
transform="scale(0.001,-0.001)" />

<path d="M336,-20L117,554c0,0,-21,55,-42,74c0,0,-21,19,-66,29v26H296V657c0,0,-40,-3,-52,-14c0,0,-13,-12,-13,-33c0,0,0,-23,13,-56L390,162L537,481L498,581c0,0,-18,46,-47,63c0,0,-17,11,-61,13v26H716V657c0,0,-54,-2,-77,-20c0,0,-15,-12,-15,-39c0,0,0,-15,6,-30L785,177L929,554c0,0,15,40,15,65c0,0,0,14,-15,25c0,0,-14,12,-57,13v26h216V657c0,0,-65,-10,-95,-89L764,-20H733L563,415L363,-20Z" 
id="f0_2j"
transform="scale(0.001,-0.001)" />

<path d="M58,0V26c0,0,47,0,64,10c0,0,18,10,28,32c0,0,9,23,9,86V775c0,0,0,116,-5,142c0,0,-5,27,-17,37c0,0,-11,9,-29,9c0,0,-20,0,-49,-12L46,978l204,83h34V154c0,0,0,-64,9,-85c0,0,9,-21,29,-32c0,0,19,-11,72,-11V0Z" 
id="f0_28"
transform="scale(0.001,-0.001)" />

<path d="M23,0V26c0,0,47,0,66,10c0,0,19,11,28,33c0,0,10,22,10,85V416c0,0,0,112,-7,145c0,0,-5,25,-16,34c0,0,-11,10,-31,10c0,0,-21,0,-50,-11L12,620l207,83h32V557c0,0,75,75,88,86c0,0,34,29,72,44c0,0,39,16,77,16c0,0,64,0,110,-37c0,0,47,-38,62,-109c0,0,77,90,130,118c0,0,53,28,109,28c0,0,54,0,96,-28c0,0,42,-28,67,-91c0,0,16,-43,16,-136V154c0,0,0,-64,10,-88c0,0,8,-16,28,-28c0,0,20,-12,65,-12V0H844V26h14c0,0,44,0,69,18c0,0,17,12,24,38c0,0,3,13,3,72V448c0,0,0,83,-20,117c0,0,-29,48,-93,48c0,0,-39,0,-79,-20c0,0,-40,-19,-97,-73l-1,-8l2,-32V154c0,0,0,-70,8,-87c0,0,7,-17,29,-29c0,0,21,-12,73,-12V0H431V26c0,0,57,0,78,14c0,0,21,13,29,40c0,0,4,13,4,74V448c0,0,0,83,-25,120c0,0,-33,48,-91,48c0,0,-40,0,-80,-22c0,0,-61,-33,-95,-74V154c0,0,0,-67,10,-87c0,0,9,-20,27,-30c0,0,18,-11,74,-11V0Z" 
id="f0_29"
transform="scale(0.001,-0.001)" />

<path d="M328,-20c0,0,-34,0,-58,24c0,0,-25,24,-25,58c0,0,0,35,25,59c0,0,24,24,58,24c0,0,34,0,59,-24c0,0,24,-24,24,-59c0,0,0,-34,-25,-58c0,0,-24,-24,-58,-24ZM308,238c0,0,5,94,23,155c0,0,18,62,76,172c0,0,44,84,58,129c0,0,13,46,13,92c0,0,0,95,-50,150c0,0,-50,56,-123,56c0,0,-65,0,-102,-30c0,0,-38,-31,-38,-67c0,0,0,-27,23,-67c0,0,22,-41,22,-62c0,0,0,-26,-17,-45c0,0,-17,-18,-42,-18c0,0,-31,0,-57,31c0,0,-26,31,-26,86c0,0,0,85,73,150c0,0,72,64,196,64c0,0,153,0,225,-89c0,0,54,-66,54,-146c0,0,0,-54,-24,-112c0,0,-25,-57,-92,-135C500,552,391,430,367,378c0,0,-24,-51,-29,-140Z" 
id="f0_z"
transform="scale(0.001,-0.001)" />

<path d="M678,393L506,802L330,393ZM11,0V27c0,0,63,12,82,30c0,0,38,35,84,145l356,832h27L912,193c0,0,43,-101,77,-132c0,0,35,-30,97,-34V0H687V27c0,0,60,3,82,21c0,0,21,17,21,41c0,0,0,33,-30,104L700,338H307L239,179c0,0,-26,-59,-26,-88c0,0,0,-23,22,-41c0,0,22,-17,95,-23V0Z" 
id="f0_11"
transform="scale(0.001,-0.001)" />

<path d="M191,-20c0,0,-34,0,-58,24c0,0,-24,24,-24,58c0,0,0,35,24,59c0,0,24,24,58,24c0,0,35,0,59,-24c0,0,24,-25,24,-59c0,0,0,-34,-24,-58c0,0,-25,-24,-59,-24Z" 
id="f0_i"
transform="scale(0.001,-0.001)" />

<path d="M548,-21c0,0,-251,0,-389,185C159,164,56,303,56,490c0,0,0,152,68,278c0,0,67,127,186,197c0,0,119,69,260,69c0,0,109,0,216,-53c0,0,31,-17,44,-17c0,0,20,0,35,14c0,0,20,21,28,56h26L943,690H919c0,0,-46,155,-131,224c0,0,-86,68,-206,68c0,0,-100,0,-181,-51c0,0,-81,-52,-128,-163c0,0,-46,-112,-46,-279c0,0,0,-137,44,-238c0,0,44,-101,132,-154c0,0,88,-54,201,-54c0,0,99,0,174,42c0,0,75,42,165,167l23,-14C966,238,890,103,789,40c0,0,-102,-61,-241,-61Z" 
id="f0_13"
transform="scale(0.001,-0.001)" />

<path d="M553,-21L174,849c0,0,-29,67,-41,82c0,0,-19,24,-46,37c0,0,-27,13,-73,17v27H427V985c0,0,-70,-7,-91,-24c0,0,-21,-17,-21,-44c0,0,0,-38,34,-117L607,207L846,793c0,0,35,86,35,120c0,0,0,22,-22,41c0,0,-21,20,-73,28c0,0,-4,1,-13,3v27h311V985c0,0,-53,-10,-81,-35c0,0,-39,-37,-70,-112L581,-21Z" 
id="f0_1m"
transform="scale(0.001,-0.001)" />

<path d="M38,0V27H74c0,0,63,0,91,37c0,0,18,24,18,115V833c0,0,0,77,-10,102c0,0,-7,18,-30,32c0,0,-33,18,-69,18H38v27H470V985H434c0,0,-62,0,-90,-37c0,0,-18,-24,-18,-115V179c0,0,0,-77,9,-102c0,0,8,-18,31,-32c0,0,32,-18,68,-18h36V0Z" 
id="f0_19"
transform="scale(0.001,-0.001)" />

<path d="M485,53c0,0,135,0,206,61c0,0,71,60,71,150c0,0,0,59,-32,114c0,0,-33,54,-105,85c0,0,-72,32,-179,32c0,0,-46,0,-79,-2c0,0,-33,-1,-53,-5V73c0,0,86,-20,171,-20ZM455,547c0,0,109,0,164,23c0,0,55,24,84,72c0,0,29,49,29,106c0,0,0,89,-72,151c0,0,-73,63,-212,63c0,0,-74,0,-134,-16V557c0,0,27,-5,63,-8c0,0,35,-2,78,-2ZM24,0V27H63c0,0,63,0,91,41c0,0,17,26,17,111V833c0,0,0,94,-22,119c0,0,-29,33,-86,33H24v27H462c0,0,122,0,196,-18c0,0,112,-27,171,-95c0,0,59,-68,59,-157c0,0,0,-76,-46,-136c0,0,-47,-60,-137,-89c0,0,105,-23,157,-72c0,0,73,-69,73,-168c0,0,0,-75,-48,-145C887,132,839,63,756,32C756,32,673,0,502,0Z" 
id="f0_12"
transform="scale(0.001,-0.001)" />

<path d="M613,-21c0,0,-293,0,-445,186C168,165,54,306,54,490c0,0,0,134,64,256c0,0,76,145,209,224c0,0,111,64,262,64c0,0,55,0,100,-9c0,0,45,-9,128,-39c0,0,42,-16,56,-16c0,0,14,0,24,13c0,0,10,13,12,51h28L963,715H937c0,0,-40,119,-102,179c0,0,-91,88,-232,88c0,0,-193,0,-294,-153c0,0,-84,-129,-84,-307c0,0,0,-144,56,-263c0,0,56,-120,146,-175c0,0,91,-56,186,-56c0,0,56,0,109,15c0,0,52,14,100,41V376c0,0,0,77,-11,101c0,0,-12,23,-36,36c0,0,-24,12,-86,12v27h392V525h-18c0,0,-58,0,-80,-39c0,0,-15,-28,-15,-110V67C968,67,882,21,799,0c0,0,-84,-21,-186,-21Z" 
id="f0_17"
transform="scale(0.001,-0.001)" />

<path d="M332,0V27h36c0,0,64,0,91,39c0,0,16,24,16,109V414L198,839c0,0,-49,75,-67,94c0,0,-17,18,-72,44c0,0,-15,8,-44,8v27H447V985H425c0,0,-35,0,-65,-17c0,0,-29,-16,-29,-49c0,0,0,-27,46,-97L587,496L786,808c0,0,44,70,44,104c0,0,0,21,-10,37c0,0,-11,17,-31,26c0,0,-20,10,-61,10v27h353V985h-19c0,0,-19,0,-57,-18c0,0,-37,-17,-67,-49c0,0,-31,-32,-76,-105L618,430V175c0,0,0,-93,21,-116c0,0,28,-32,89,-32h33V0Z" 
id="f0_1p"
transform="scale(0.001,-0.001)" />

<path d="M545,30c0,0,143,0,236,111c0,0,93,111,93,351c0,0,0,259,-103,386c0,0,-82,102,-226,102c0,0,-136,0,-218,-101C327,879,225,754,225,512c0,0,0,-247,106,-380c0,0,81,-102,214,-102Zm2,-51c0,0,-209,0,-351,147C196,126,54,274,54,510c0,0,0,240,164,393c0,0,142,131,341,131c0,0,197,0,341,-149c0,0,145,-149,145,-373c0,0,0,-230,-146,-382C899,130,754,-21,547,-21Z" 
id="f0_1f"
transform="scale(0.001,-0.001)" />

<path d="M356,519c0,0,145,0,218,63c0,0,74,63,74,160c0,0,0,95,-60,154c0,0,-59,59,-157,59c0,0,-43,0,-117,-13V520c0,0,14,0,25,0c0,0,10,-1,17,-1ZM26,0V27H64c0,0,64,0,92,42c0,0,15,23,15,110V833c0,0,0,96,-21,119c0,0,-29,33,-86,33H26v27H395c0,0,161,0,238,-24c0,0,76,-23,129,-86c0,0,54,-63,54,-151c0,0,0,-93,-61,-162c0,0,-61,-68,-189,-97L775,202c0,0,72,-100,123,-133c0,0,52,-33,134,-42V0H762L419,473c0,0,-38,-1,-61,-1c0,0,-10,0,-21,0c0,0,-11,0,-23,1V179c0,0,0,-96,21,-119c0,0,28,-33,84,-33h40V0Z" 
id="f0_1i"
transform="scale(0.001,-0.001)" />

<path d="M384,85c0,0,44,0,78,19c0,0,35,19,68,62V487c0,0,0,55,-15,87c0,0,-14,33,-51,55c0,0,-38,22,-85,22c0,0,-84,0,-143,-71c0,0,-60,-70,-60,-214c0,0,0,-138,61,-209c0,0,61,-72,147,-72Zm35,-411v27h15c0,0,41,0,63,12c0,0,15,8,24,30c0,0,9,21,9,83V119C530,119,462,39,411,9c0,0,-50,-29,-105,-29c0,0,-99,0,-177,90c0,0,-78,90,-78,241c0,0,0,174,103,283c0,0,103,109,248,109c0,0,43,0,78,-12c0,0,36,-12,65,-35c0,0,43,20,83,47h25V-174c0,0,0,-66,9,-85c0,0,9,-19,28,-30c0,0,19,-10,74,-10v-27Z" 
id="f0_2d"
transform="scale(0.001,-0.001)" />

<path d="M197,0V27c0,0,71,2,92,13c0,0,21,10,29,29c0,0,9,18,9,109V725c0,0,0,110,-8,141c0,0,-5,24,-19,35c0,0,-14,11,-33,11c0,0,-28,0,-77,-23l-11,23l246,121h25V178c0,0,0,-85,7,-106c0,0,7,-21,29,-32c0,0,23,-11,91,-13V0Z" 
id="f0_l"
transform="scale(0.001,-0.001)" />

<path d="M275,-20L578,891H299c0,0,-84,0,-120,-20c0,0,-63,-35,-101,-106l-21,8l97,239H696V983L359,-20Z" 
id="f0_r"
transform="scale(0.001,-0.001)" />

<path d="M247,-17c0,0,-91,0,-132,30c0,0,-42,31,-42,68c0,0,0,21,17,37c0,0,18,16,44,17c0,0,19,0,34,-6c0,0,14,-7,49,-31c0,0,56,-39,113,-39c0,0,88,0,154,66c0,0,66,66,66,161c0,0,0,92,-59,171c0,0,-59,80,-163,123c0,0,-81,34,-221,39l194,393H663L605,885H301L234,750c0,0,198,-29,313,-147c0,0,100,-102,100,-239c0,0,0,-80,-33,-148c0,0,-32,-68,-81,-116c0,0,-50,-47,-110,-77c0,0,-86,-40,-176,-40Z" 
id="f0_p"
transform="scale(0.001,-0.001)" />

<path d="M82,-253v33c0,0,77,25,119,78c0,0,42,54,42,114c0,0,0,14,-7,23c0,0,-5,6,-11,6c0,0,-8,0,-35,-14c0,0,-14,-7,-28,-7c0,0,-37,0,-58,21C104,1,82,23,82,61c0,0,0,36,28,62c0,0,28,27,68,27c0,0,49,0,88,-43c0,0,38,-43,38,-113c0,0,0,-77,-53,-143c0,0,-53,-66,-169,-104Z" 
id="f0_g"
transform="scale(0.001,-0.001)" />

<path d="M253,0V27h36c0,0,64,0,91,39c0,0,16,24,16,109V948H274c0,0,-71,0,-100,-10c0,0,-39,-14,-67,-54c0,0,-27,-41,-33,-109H46l12,237H883L894,775H865c0,0,-8,62,-22,89c0,0,-23,43,-61,64c0,0,-39,20,-101,20H539V175c0,0,0,-93,20,-116c0,0,28,-32,87,-32h36V0Z" 
id="f0_1k"
transform="scale(0.001,-0.001)" />

<path d="M22,-17c0,0,-29,0,-54,21c0,0,-18,16,-18,44c0,0,0,25,17,41c0,0,16,17,39,17c0,0,24,0,50,-24C56,82,76,65,86,65c0,0,9,0,23,11c0,0,35,28,95,122c0,0,61,93,79,134c0,0,-46,182,-49,193c0,0,-17,49,-45,69c0,0,-27,20,-81,20c0,0,-17,0,-40,-1v26l199,36c0,0,37,-39,55,-78c0,0,14,-26,44,-141l66,99c0,0,26,35,64,68c0,0,37,32,65,44c0,0,18,8,40,8c0,0,32,0,51,-17c0,0,19,-18,19,-42c0,0,0,-29,-11,-39c0,0,-21,-19,-48,-19c0,0,-16,0,-34,7c0,0,-35,12,-47,12c0,0,-18,0,-43,-21c0,0,-46,-39,-111,-150L439,150c0,0,14,-59,24,-71c0,0,10,-11,20,-11c0,0,15,0,37,17c0,0,41,34,70,89l27,-13C617,161,569,73,497,15c0,0,-41,-32,-70,-32c0,0,-42,0,-66,46c0,0,-16,29,-64,251C297,280,180,78,110,20c0,0,-46,-37,-88,-37Z" 
id="f1_2k"
transform="scale(0.001,-0.001)" />

<path d="M-60,-328c0,0,-23,0,-41,17c0,0,-17,18,-17,41c0,0,0,29,24,53c0,0,24,23,53,23c0,0,15,0,24,-6c0,0,6,-4,13,-21c0,0,6,-18,12,-24c0,0,4,-3,9,-3c0,0,5,0,16,7c0,0,41,25,96,81c0,0,71,72,106,119L193,430c0,0,-11,117,-32,142c0,0,-20,25,-70,25c0,0,-15,0,-56,-4l-7,28l219,54c0,0,25,-43,35,-81c0,0,10,-38,20,-148L334,80c0,0,45,54,130,170c0,0,41,56,102,154c0,0,36,59,45,83c0,0,4,12,4,25c0,0,0,8,-5,13c0,0,-6,5,-28,12c0,0,-21,7,-36,26c0,0,-15,19,-15,44c0,0,0,30,18,49c0,0,18,19,45,19c0,0,33,0,56,-28c0,0,23,-27,23,-74c0,0,0,-59,-40,-135c0,0,-40,-76,-155,-232C478,206,363,49,200,-135c0,0,-113,-127,-168,-160c0,0,-53,-33,-92,-33Z" 
id="f1_2l"
transform="scale(0.001,-0.001)" />

<path d="M-162,-328c0,0,-45,0,-77,26c0,0,-23,19,-23,49c0,0,0,23,19,41c0,0,19,17,47,17c0,0,20,0,34,-12c0,0,13,-13,13,-29c0,0,0,-17,-15,-31c0,0,-12,-10,-12,-16c0,0,0,-6,5,-10c0,0,7,-5,21,-5c0,0,32,0,67,20c0,0,36,20,63,60c0,0,27,40,52,115c0,0,10,32,58,205L233,608H89l10,49c0,0,69,0,96,9c0,0,28,8,50,32c0,0,23,25,55,91c0,0,42,90,81,139c0,0,53,66,112,100c0,0,58,33,110,33c0,0,54,0,88,-29c0,0,33,-28,33,-62c0,0,0,-26,-18,-44c0,0,-17,-18,-44,-18c0,0,-23,0,-37,14c0,0,-15,13,-15,32c0,0,0,12,10,29c0,0,10,18,10,24c0,0,0,10,-6,15c0,0,-9,8,-27,8c0,0,-43,0,-77,-31c0,0,-46,-41,-83,-127c0,0,-18,-45,-74,-215H473L460,608H350L260,279C260,279,201,65,145,-51c0,0,-79,-166,-169,-229c0,0,-69,-48,-138,-48Z" 
id="f1_22"
transform="scale(0.001,-0.001)" />

<path d="M27,354v62H831V354Zm0,243v62H831V597Z" 
id="f0_x"
transform="scale(0.001,-0.001)" />

<path d="M399,105V477H27v62H399V909h60V539H831V477H459V105Z" 
id="f0_f"
transform="scale(0.001,-0.001)" />

<path d="M33,0V27c0,0,264,241,371,393c0,0,108,152,108,278c0,0,0,96,-59,158c0,0,-59,62,-141,62c0,0,-75,0,-134,-43c0,0,-59,-44,-88,-128H63c0,0,18,138,95,212c0,0,77,74,193,74c0,0,123,0,205,-80c0,0,83,-79,83,-186c0,0,0,-77,-36,-154c0,0,-55,-121,-179,-256C424,357,238,154,191,112H455c0,0,81,0,114,6c0,0,32,6,58,25c0,0,27,18,46,52h27L630,0Z" 
id="f0_m"
transform="scale(0.001,-0.001)" />

<path d="M0,214v74H784V214ZM0,494v72H784V494Z" 
id="f2_x"
transform="scale(0.001,-0.001)" />

<path d="M355,0V355H0v72H355V784h72V427H782V355H427V0Z" 
id="f2_f"
transform="scale(0.001,-0.001)" />

<path d="M0,356v74H784V356Z" 
id="f2_h"
transform="scale(0.001,-0.001)" />

<path d="M911,-16L244,799V175c0,0,0,-93,21,-116c0,0,28,-32,86,-32h36V0H36V27H71c0,0,65,0,92,39c0,0,16,24,16,109V879c0,0,-44,52,-67,68c0,0,-23,17,-67,31c0,0,-21,7,-64,7v27H253L873,253V837c0,0,0,93,-21,116c0,0,-28,32,-87,32H730v27h351V985h-36c0,0,-64,0,-91,-39c0,0,-16,-24,-16,-109V-16Z" 
id="f0_1e"
transform="scale(0.001,-0.001)" />

<path d="M412,-328c0,0,-195,96,-303,284C109,-44,0,142,0,365c0,0,0,232,114,422c0,0,114,191,298,273v-31c0,0,-92,-51,-151,-139c0,0,-59,-88,-88,-223c0,0,-29,-136,-29,-282c0,0,0,-167,27,-301c0,0,26,-133,82,-221c0,0,55,-89,159,-159v-32Z" 
id="f2_c"
transform="scale(0.001,-0.001)" />

<path d="M34,-328v32c0,0,92,50,151,138c0,0,59,88,88,222c0,0,29,135,29,283c0,0,0,165,-27,300c0,0,-26,134,-82,222c0,0,-56,89,-159,160v31c0,0,194,-96,303,-284c0,0,108,-187,108,-410c0,0,0,-232,-114,-422c0,0,-114,-191,-297,-272Z" 
id="f2_d"
transform="scale(0.001,-0.001)" />

<path d="M67,-328c0,0,-25,0,-37,14c0,0,-18,19,-18,44c0,0,0,18,7,37c0,0,7,19,50,103c0,0,25,48,46,107c0,0,22,57,59,183L315,657H427L318,269c0,0,-24,-88,-28,-104c0,0,-3,-17,-3,-35c0,0,0,-39,20,-58c0,0,20,-19,53,-19c0,0,31,0,86,40c0,0,54,40,128,161c0,0,17,37,41,120l82,283H809L685,217L664,145c0,0,-3,-22,-3,-43c0,0,0,-24,9,-35c0,0,8,-12,22,-12c0,0,15,0,30,16c0,0,19,23,43,90h27c0,0,-18,-65,-74,-122c0,0,-56,-56,-85,-56c0,0,-34,0,-59,29c0,0,-25,29,-25,80c0,0,0,23,4,59C553,151,494,66,428,24c0,0,-67,-41,-119,-41c0,0,-46,0,-80,22c0,0,-21,15,-43,58c0,0,-12,-68,-20,-111c0,0,-8,-42,-18,-155c0,0,-6,-72,-28,-99c0,0,-22,-26,-53,-26Z" 
id="f1_48"
transform="scale(0.001,-0.001)" />

<path d="M453,539c0,0,129,0,204,71c0,0,75,72,75,178c0,0,0,83,-48,127c0,0,-48,44,-144,44c0,0,-24,0,-58,-6L367,545c0,0,48,-6,86,-6ZM-34,0l8,26c0,0,54,3,74,12c0,0,30,12,45,34c0,0,24,36,50,125L316,809c0,0,18,61,18,95c0,0,0,35,-28,58c0,0,-27,24,-78,24q-1,0,-2,0l9,26H566c0,0,167,0,240,-63c0,0,73,-62,73,-164c0,0,0,-98,-74,-179c0,0,-75,-81,-204,-102L698,207c0,0,36,-110,72,-143c0,0,36,-33,116,-38L877,0H635L473,492c0,0,-1,0,-2,0c-12,0,-63,0,-117,11L265,184c0,0,-18,-56,-18,-94c0,0,0,-29,22,-46c0,0,16,-12,90,-18L352,0Z" 
id="f1_1i"
transform="scale(0.001,-0.001)" />

<path d="M62,-123V268c0,0,0,230,56,452c0,0,47,190,134,334c0,0,87,144,204,242c0,0,85,73,194,119l18,-16c0,0,-211,-145,-335,-339c0,0,-98,-156,-149,-374c0,0,-50,-218,-50,-403V-123Z" 
id="f2_4o"
transform="scale(0.001,-0.001)" />

<path d="M617,-123V283c0,0,0,236,-63,459c0,0,-63,223,-188,392c0,0,-108,146,-282,265l17,16c0,0,180,-76,320,-248c0,0,139,-172,204,-417c0,0,64,-245,64,-482V-123Z" 
id="f2_54"
transform="scale(0.001,-0.001)" />

<path d="M62,-123V1415h72V-123Z" 
id="f2_4p"
transform="scale(0.001,-0.001)" />

<path d="M617,-123V1415h72V-123Z" 
id="f2_55"
transform="scale(0.001,-0.001)" />

<path d="M650,-123c0,0,-180,75,-319,246c0,0,-140,172,-205,418c0,0,-64,245,-64,481v393h72V1007c0,0,0,-236,63,-459c0,0,63,-223,189,-391c0,0,108,-145,282,-265l-18,-15Z" 
id="f2_4q"
transform="scale(0.001,-0.001)" />

<path d="M101,-123l-17,15c0,0,210,144,334,339c0,0,99,156,149,373c0,0,50,218,50,403v408h72V1022c0,0,0,-230,-56,-451c0,0,-48,-191,-134,-335C499,236,412,92,295,-5c0,0,-84,-73,-194,-118Z" 
id="f2_56"
transform="scale(0.001,-0.001)" />

<path d="M379,29c0,0,41,0,84,37c0,0,43,36,65,121c0,0,34,128,34,362c0,0,0,173,-35,288c0,0,-27,86,-69,122c0,0,-31,25,-74,25c0,0,-51,0,-90,-46c0,0,-54,-62,-73,-195c0,0,-20,-132,-20,-261c0,0,0,-209,52,-341c0,0,42,-112,126,-112Zm-2,-46c0,0,-145,0,-241,170c0,0,-81,144,-81,347c0,0,0,173,52,298c0,0,52,125,139,186c0,0,67,49,139,49c0,0,116,0,208,-119c0,0,116,-147,116,-398c0,0,0,-176,-51,-299C658,217,608,94,529,38c0,0,-79,-55,-152,-55Z" 
id="f0_k"
transform="scale(0.001,-0.001)" />

<path d="M52,62L0,114L278,390L0,667l52,52L330,442L608,719l51,-51L382,390L659,114L608,62L330,338L52,62Z" 
id="f2_3a"
transform="scale(0.001,-0.001)" />

<path d="M435,0V856c0,0,-48,-47,-127,-93c0,0,-79,-46,-142,-69V824c0,0,113,52,197,128c0,0,85,75,120,146h86V0Z" 
id="f3_l"
transform="scale(0.001,-0.001)" />


</defs>
</svg>