<?xml version="1.0" encoding="UTF-8" standalone="no"?>
<!DOCTYPE svg PUBLIC "-//W3C//DTD SVG 1.1//EN"
"http://www.w3.org/Graphics/SVG/1.1/DTD/svg11.dtd">
<svg viewBox="0 0 909 1286" version="1.1" xmlns="http://www.w3.org/2000/svg" xmlns:xlink="http://www.w3.org/1999/xlink">
<defs>
<style type="text/css"><![CDATA[
.g0_158{
fill: #D9D9D9;
}
.g1_158{
fill: none;
stroke: #000000;
stroke-width: 0.7638889;
stroke-linecap: butt;
stroke-linejoin: miter;
}
.g2_158{
}
]]></style>
</defs>
<image preserveAspectRatio="none" x="748" y="1196" width="94" height="58" xlink:href="img/1.png" />
<image preserveAspectRatio="none" x="336" y="42" width="259" height="49" xlink:href="img/2.png" />
<image preserveAspectRatio="none" x="342" y="50" width="247" height="27" xlink:href="img/3.png" />
<image preserveAspectRatio="none" x="341" y="46" width="238" height="41" xlink:href="img/4.png" />
<g fill="#FFFFFF" >
<use xlink:href="#f0_j" transform="matrix(11.5,0,0,11.5,354.9,70)" />
<use xlink:href="#f0_i" transform="matrix(11.5,0,0,11.5,364.2,70)" />
<use xlink:href="#f0_2n" transform="matrix(11.5,0,0,11.5,374.1,70)" />
<use xlink:href="#f0_t" transform="matrix(11.5,0,0,11.5,382.4,70)" />
<use xlink:href="#f0_oj" transform="matrix(11.5,0,0,11.5,391,70)" />
<use xlink:href="#f0_3e" transform="matrix(11.5,0,0,11.5,396.3,70)" />
<use xlink:href="#f0_1c" transform="matrix(11.5,0,0,11.5,406,70)" />
<use xlink:href="#f0_1c" transform="matrix(11.5,0,0,11.5,410.7,70)" />
<use xlink:href="#f0_oj" transform="matrix(11.5,0,0,11.5,415.4,70)" />
<use xlink:href="#f0_rz" transform="matrix(11.5,0,0,11.5,420.8,70)" />
<use xlink:href="#f0_rx" transform="matrix(11.5,0,0,11.5,429.7,70)" />
<use xlink:href="#f0_ry" transform="matrix(11.5,0,0,11.5,438.6,70)" />
<use xlink:href="#f0_s1" transform="matrix(11.5,0,0,11.5,447.4,70)" />
<use xlink:href="#f0_t" transform="matrix(11.5,0,0,11.5,460.2,70)" />
<use xlink:href="#f0_3e" transform="matrix(11.5,0,0,11.5,468.8,70)" />
<use xlink:href="#f0_5" transform="matrix(11.5,0,0,11.5,478.5,70)" />
<use xlink:href="#f0_1x" transform="matrix(11.5,0,0,11.5,489.2,70)" />
<use xlink:href="#f0_1c" transform="matrix(11.5,0,0,11.5,504.6,70)" />
<use xlink:href="#f0_1y" transform="matrix(11.5,0,0,11.5,509.3,70)" />
<use xlink:href="#f0_5" transform="matrix(11.5,0,0,11.5,520.9,70)" />
<use xlink:href="#f0_2t" transform="matrix(11.5,0,0,11.5,531.5,70)" />
<use xlink:href="#f0_1c" transform="matrix(11.5,0,0,11.5,540.2,70)" />
<use xlink:href="#f0_24" transform="matrix(11.5,0,0,11.5,544.9,70)" />
<use xlink:href="#f0_1y" transform="matrix(11.5,0,0,11.5,556.8,70)" />
</g>
<image preserveAspectRatio="none" x="554" y="46" width="36" height="41" xlink:href="img/5.png" />
<g fill="#FFFFFF" >
<use xlink:href="#f1_l" transform="matrix(11,0,0,11,770.1,1227.7)" />
<use xlink:href="#f1_q" transform="matrix(11,0,0,11,779,1227.7)" />
<use xlink:href="#f1_j" transform="matrix(11,0,0,11,792.4,1227.7)" />
<use xlink:href="#f1_m" transform="matrix(11,0,0,11,803,1227.7)" />
<use xlink:href="#f1_n" transform="matrix(11,0,0,11,811.9,1227.7)" />
</g>
<path fill-rule="evenodd" d="M52.7,1193.2H856.9v-.7H52.7v.7Z" class="g0_158" />
<path d="M37.9,99.4L873,98.5" class="g1_158" />
<g fill="#000000" >
<use xlink:href="#f2_2g" transform="matrix(12,0,0,12,55,143.8)" />
<use xlink:href="#f2_24" transform="matrix(12,0,0,12,60.1,143.8)" />
<use xlink:href="#f2_21" transform="matrix(12,0,0,12,69.3,143.8)" />
<use xlink:href="#f2_2f" transform="matrix(12,0,0,12,82,143.8)" />
<use xlink:href="#f2_2c" transform="matrix(12,0,0,12,89.2,143.8)" />
<use xlink:href="#f2_24" transform="matrix(12,0,0,12,98.3,143.8)" />
<use xlink:href="#f2_21" transform="matrix(12,0,0,12,107.5,143.8)" />
<use xlink:href="#f2_2e" transform="matrix(12,0,0,12,115.6,143.8)" />
<use xlink:href="#f2_21" transform="matrix(12,0,0,12,121.8,143.8)" />
<use xlink:href="#f2_1j" transform="matrix(12,0,0,12,134.5,143.8)" />
<use xlink:href="#f2_l" transform="matrix(8,0,0,8,144.7,144.6)" />
<use xlink:href="#f3_1z" transform="matrix(12,0,0,12,155.4,143.8)" />
<use xlink:href="#f3_24" transform="matrix(12,0,0,12,163.5,143.8)" />
<use xlink:href="#f3_1x" transform="matrix(12,0,0,12,172.7,143.8)" />
<use xlink:href="#f3_2a" transform="matrix(12,0,0,12,180.9,143.8)" />
<use xlink:href="#f3_23" transform="matrix(12,0,0,12,190,143.8)" />
<use xlink:href="#f3_21" transform="matrix(12,0,0,12,199.2,143.8)" />
<use xlink:href="#f3_25" transform="matrix(12,0,0,12,211.9,143.8)" />
<use xlink:href="#f3_22" transform="matrix(12,0,0,12,217.1,143.8)" />
<use xlink:href="#f3_1x" transform="matrix(12,0,0,12,227.8,143.8)" />
<use xlink:href="#f3_29" transform="matrix(12,0,0,12,240.4,143.8)" />
<use xlink:href="#f3_21" transform="matrix(12,0,0,12,254.6,143.8)" />
<use xlink:href="#f3_20" transform="matrix(12,0,0,12,262.7,143.8)" />
<use xlink:href="#f3_25" transform="matrix(12,0,0,12,271.9,143.8)" />
<use xlink:href="#f3_2h" transform="matrix(12,0,0,12,277,143.8)" />
<use xlink:href="#f3_29" transform="matrix(12,0,0,12,286.1,143.8)" />
<use xlink:href="#f3_2b" transform="matrix(12,0,0,12,304.9,143.8)" />
<use xlink:href="#f3_22" transform="matrix(12,0,0,12,314.1,143.8)" />
<use xlink:href="#f3_20" transform="matrix(12,0,0,12,324.8,143.8)" />
<use xlink:href="#f3_25" transform="matrix(12,0,0,12,334,143.8)" />
<use xlink:href="#f3_21" transform="matrix(12,0,0,12,339.1,143.8)" />
<use xlink:href="#f3_28" transform="matrix(12,0,0,12,347.3,143.8)" />
<use xlink:href="#f3_21" transform="matrix(12,0,0,12,352.4,143.8)" />
<use xlink:href="#f3_1z" transform="matrix(12,0,0,12,360.5,143.8)" />
<use xlink:href="#f3_2g" transform="matrix(12,0,0,12,368.6,143.8)" />
<use xlink:href="#f3_2e" transform="matrix(12,0,0,12,373.7,143.8)" />
<use xlink:href="#f3_25" transform="matrix(12,0,0,12,379.8,143.8)" />
<use xlink:href="#f3_1z" transform="matrix(12,0,0,12,384.9,143.8)" />
<use xlink:href="#f3_1z" transform="matrix(12,0,0,12,397.7,143.8)" />
<use xlink:href="#f3_2b" transform="matrix(12,0,0,12,405.8,143.8)" />
<use xlink:href="#f3_2a" transform="matrix(12,0,0,12,415,143.8)" />
<use xlink:href="#f3_2f" transform="matrix(12,0,0,12,424.1,143.8)" />
<use xlink:href="#f3_2g" transform="matrix(12,0,0,12,431.3,143.8)" />
<use xlink:href="#f3_1x" transform="matrix(12,0,0,12,436.4,143.8)" />
<use xlink:href="#f3_2a" transform="matrix(12,0,0,12,444.5,143.8)" />
<use xlink:href="#f3_2g" transform="matrix(12,0,0,12,453.7,143.8)" />
<use xlink:href="#f3_52" transform="matrix(12,0,0,12,463.3,143.8)" />
</g>
<image preserveAspectRatio="none" x="470" y="127" width="28" height="21" xlink:href="img/6.png" />
<g fill="#000000" >
<use xlink:href="#f2_2e" transform="matrix(8,0,0,8,483.9,144.6)" />
<use xlink:href="#f3_53" transform="matrix(12,0,0,12,487.9,143.8)" />
<use xlink:href="#f3_25" transform="matrix(12,0,0,12,498.5,143.8)" />
<use xlink:href="#f3_2f" transform="matrix(12,0,0,12,503.6,143.8)" />
<use xlink:href="#f3_25" transform="matrix(12,0,0,12,515.4,143.8)" />
<use xlink:href="#f3_2a" transform="matrix(12,0,0,12,520.5,143.8)" />
<use xlink:href="#f3_2g" transform="matrix(12,0,0,12,529.6,143.8)" />
<use xlink:href="#f3_2e" transform="matrix(12,0,0,12,534.7,143.8)" />
<use xlink:href="#f3_2b" transform="matrix(12,0,0,12,540.9,143.8)" />
<use xlink:href="#f3_20" transform="matrix(12,0,0,12,550,143.8)" />
<use xlink:href="#f3_2h" transform="matrix(12,0,0,12,559.2,143.8)" />
<use xlink:href="#f3_1z" transform="matrix(12,0,0,12,568.3,143.8)" />
<use xlink:href="#f3_21" transform="matrix(12,0,0,12,576.4,143.8)" />
<use xlink:href="#f3_20" transform="matrix(12,0,0,12,584.6,143.8)" />
<use xlink:href="#f3_25" transform="matrix(12,0,0,12,598.3,143.8)" />
<use xlink:href="#f3_2a" transform="matrix(12,0,0,12,603.4,143.8)" />
<use xlink:href="#f3_2g" transform="matrix(12,0,0,12,617.1,143.8)" />
<use xlink:href="#f3_24" transform="matrix(12,0,0,12,622.3,143.8)" />
<use xlink:href="#f3_21" transform="matrix(12,0,0,12,631.4,143.8)" />
<use xlink:href="#f3_2f" transform="matrix(12,0,0,12,644.1,143.8)" />
<use xlink:href="#f3_2c" transform="matrix(12,0,0,12,651.3,143.8)" />
<use xlink:href="#f3_1x" transform="matrix(12,0,0,12,660.4,143.8)" />
<use xlink:href="#f3_1z" transform="matrix(12,0,0,12,668.5,143.8)" />
<use xlink:href="#f3_21" transform="matrix(12,0,0,12,676.7,143.8)" />
<use xlink:href="#f3_25" transform="matrix(12,0,0,12,689.4,143.8)" />
<use xlink:href="#f3_2a" transform="matrix(12,0,0,12,694.5,143.8)" />
<use xlink:href="#f3_2f" transform="matrix(12,0,0,12,703.7,143.8)" />
<use xlink:href="#f2_25" transform="matrix(12,0,0,12,710.9,143.8)" />
<use xlink:href="#f2_20" transform="matrix(12,0,0,12,716,143.8)" />
<use xlink:href="#f2_21" transform="matrix(12,0,0,12,725.1,143.8)" />
<use xlink:href="#f2_1j" transform="matrix(12,0,0,12,737.9,143.8)" />
<use xlink:href="#f2_l" transform="matrix(12,0,0,12,748.1,143.8)" />
<use xlink:href="#f2_25" transform="matrix(12,0,0,12,761.8,143.8)" />
<use xlink:href="#f2_2a" transform="matrix(12,0,0,12,766.8,143.8)" />
<use xlink:href="#f2_2c" transform="matrix(12,0,0,12,780.5,143.8)" />
<use xlink:href="#f2_28" transform="matrix(12,0,0,12,789.7,143.8)" />
<use xlink:href="#f2_1x" transform="matrix(12,0,0,12,794.8,143.8)" />
<use xlink:href="#f2_1z" transform="matrix(12,0,0,12,802.9,143.8)" />
<use xlink:href="#f2_21" transform="matrix(12,0,0,12,811.1,143.8)" />
<use xlink:href="#f2_2b" transform="matrix(12,0,0,12,823.9,143.8)" />
<use xlink:href="#f2_22" transform="matrix(12,0,0,12,833,143.8)" />
<use xlink:href="#f2_1x" transform="matrix(12,0,0,12,55,166.7)" />
<use xlink:href="#f2_25" transform="matrix(12,0,0,12,63.1,166.7)" />
<use xlink:href="#f2_2e" transform="matrix(12,0,0,12,68.2,166.7)" />
<use xlink:href="#f2_z" transform="matrix(12,0,0,12,78.9,166.7)" />
<use xlink:href="#f2_14" transform="matrix(12,0,0,12,55,189.4)" />
<use xlink:href="#f2_21" transform="matrix(12,0,0,12,68.2,189.4)" />
<use xlink:href="#f2_20" transform="matrix(12,0,0,12,76.4,189.4)" />
<use xlink:href="#f2_2h" transform="matrix(12,0,0,12,85.5,189.4)" />
<use xlink:href="#f2_1z" transform="matrix(12,0,0,12,94.7,189.4)" />
<use xlink:href="#f2_21" transform="matrix(12,0,0,12,102.9,189.4)" />
<use xlink:href="#f2_2g" transform="matrix(12,0,0,12,115.6,189.4)" />
<use xlink:href="#f2_24" transform="matrix(12,0,0,12,120.7,189.4)" />
<use xlink:href="#f2_21" transform="matrix(12,0,0,12,129.9,189.4)" />
<use xlink:href="#f2_2a" transform="matrix(12,0,0,12,142.5,189.4)" />
<use xlink:href="#f2_21" transform="matrix(12,0,0,12,151.7,189.4)" />
<use xlink:href="#f2_1z" transform="matrix(12,0,0,12,159.8,189.4)" />
<use xlink:href="#f2_21" transform="matrix(12,0,0,12,168,189.4)" />
<use xlink:href="#f2_2f" transform="matrix(12,0,0,12,176.1,189.4)" />
<use xlink:href="#f2_2f" transform="matrix(12,0,0,12,183.3,189.4)" />
<use xlink:href="#f2_1x" transform="matrix(12,0,0,12,190.4,189.4)" />
<use xlink:href="#f2_2e" transform="matrix(12,0,0,12,198.5,189.4)" />
<use xlink:href="#f2_2l" transform="matrix(12,0,0,12,204.6,189.4)" />
<use xlink:href="#f2_21" transform="matrix(12,0,0,12,218.4,189.4)" />
<use xlink:href="#f2_2k" transform="matrix(12,0,0,12,226.5,189.4)" />
<use xlink:href="#f2_2c" transform="matrix(12,0,0,12,235.6,189.4)" />
<use xlink:href="#f2_2e" transform="matrix(12,0,0,12,244.8,189.4)" />
<use xlink:href="#f2_21" transform="matrix(12,0,0,12,250.9,189.4)" />
<use xlink:href="#f2_2f" transform="matrix(12,0,0,12,259.1,189.4)" />
<use xlink:href="#f2_2f" transform="matrix(12,0,0,12,266.2,189.4)" />
<use xlink:href="#f2_25" transform="matrix(12,0,0,12,273.3,189.4)" />
<use xlink:href="#f2_2b" transform="matrix(12,0,0,12,278.5,189.4)" />
<use xlink:href="#f2_2a" transform="matrix(12,0,0,12,287.7,189.4)" />
<use xlink:href="#f2_i" transform="matrix(12,0,0,12,296.8,189.4)" />
<use xlink:href="#f4_1j" transform="matrix(12,0,0,12,55,541.5)" />
<use xlink:href="#f4_2b" transform="matrix(12,0,0,12,65.2,541.5)" />
<use xlink:href="#f4_28" transform="matrix(12,0,0,12,74.4,541.5)" />
<use xlink:href="#f4_2h" transform="matrix(12,0,0,12,79.5,541.5)" />
<use xlink:href="#f4_2g" transform="matrix(12,0,0,12,89.7,541.5)" />
<use xlink:href="#f4_25" transform="matrix(12,0,0,12,95.8,541.5)" />
<use xlink:href="#f4_2b" transform="matrix(12,0,0,12,100.9,541.5)" />
<use xlink:href="#f4_2a" transform="matrix(12,0,0,12,110.1,541.5)" />
<use xlink:href="#f4_u" transform="matrix(12,0,0,12,120.3,541.5)" />
<use xlink:href="#f2_14" transform="matrix(12,0,0,12,55,566.5)" />
<use xlink:href="#f2_25" transform="matrix(12,0,0,12,68.2,566.5)" />
<use xlink:href="#f2_1x" transform="matrix(12,0,0,12,73.3,566.5)" />
<use xlink:href="#f2_23" transform="matrix(12,0,0,12,81.5,566.5)" />
<use xlink:href="#f2_2e" transform="matrix(12,0,0,12,90.6,566.5)" />
<use xlink:href="#f2_1x" transform="matrix(12,0,0,12,96.8,566.5)" />
<use xlink:href="#f2_29" transform="matrix(12,0,0,12,104.9,566.5)" />
</g>
<path fill-rule="evenodd" d="M45.9,547.9h.8v-.7h-.8v.7Z" class="g2_158" />
<path fill-rule="evenodd" d="M45.9,547.9h.8v-.7h-.8v.7Z" class="g2_158" />
<path fill-rule="evenodd" d="M46.7,547.9H862.9v-.7H46.7v.7Z" class="g2_158" />
<path fill-rule="evenodd" d="M863,547.9h.7v-.7H863v.7Z" class="g2_158" />
<path fill-rule="evenodd" d="M863,547.9h.7v-.7H863v.7Z" class="g2_158" />
<path fill-rule="evenodd" d="M45.9,572.2h.8V547.9h-.8v24.3Z" class="g2_158" />
<path fill-rule="evenodd" d="M863,572.2h.7V547.9H863v24.3Z" class="g2_158" />
<g fill="#000000" >
<use xlink:href="#f2_1g" transform="matrix(12,0,0,12,55,589.4)" />
<use xlink:href="#f2_2e" transform="matrix(12,0,0,12,65.2,589.4)" />
<use xlink:href="#f2_25" transform="matrix(12,0,0,12,71.3,589.4)" />
<use xlink:href="#f2_2a" transform="matrix(12,0,0,12,76.4,589.4)" />
<use xlink:href="#f2_1z" transform="matrix(12,0,0,12,85.6,589.4)" />
<use xlink:href="#f2_25" transform="matrix(12,0,0,12,93.8,589.4)" />
<use xlink:href="#f2_2c" transform="matrix(12,0,0,12,98.9,589.4)" />
<use xlink:href="#f2_28" transform="matrix(12,0,0,12,108,589.4)" />
<use xlink:href="#f2_21" transform="matrix(12,0,0,12,113.1,589.4)" />
<use xlink:href="#f2_1x" transform="matrix(12,0,0,12,125.8,589.4)" />
<use xlink:href="#f2_2a" transform="matrix(12,0,0,12,134,589.4)" />
<use xlink:href="#f2_20" transform="matrix(12,0,0,12,143.1,589.4)" />
<use xlink:href="#f2_2j" transform="matrix(12,0,0,12,156.8,589.4)" />
<use xlink:href="#f2_2b" transform="matrix(12,0,0,12,170,589.4)" />
<use xlink:href="#f2_2e" transform="matrix(12,0,0,12,179.2,589.4)" />
<use xlink:href="#f2_27" transform="matrix(12,0,0,12,185.3,589.4)" />
<use xlink:href="#f2_25" transform="matrix(12,0,0,12,194.5,589.4)" />
<use xlink:href="#f2_2a" transform="matrix(12,0,0,12,199.6,589.4)" />
<use xlink:href="#f2_23" transform="matrix(12,0,0,12,208.7,589.4)" />
</g>
<path fill-rule="evenodd" d="M45.9,594.9h.8V572.2h-.8v22.7Z" class="g2_158" />
<path fill-rule="evenodd" d="M863,594.9h.7V572.2H863v22.7Z" class="g2_158" />
<g fill="#000000" >
<use xlink:href="#f2_1l" transform="matrix(12,0,0,12,55,612.1)" />
<use xlink:href="#f2_2f" transform="matrix(12,0,0,12,68.2,612.1)" />
<use xlink:href="#f2_21" transform="matrix(12,0,0,12,75.4,612.1)" />
<use xlink:href="#f2_1x" transform="matrix(12,0,0,12,88.1,612.1)" />
<use xlink:href="#f2_2a" transform="matrix(12,0,0,12,96.2,612.1)" />
<use xlink:href="#f2_20" transform="matrix(12,0,0,12,105.4,612.1)" />
<use xlink:href="#f2_28" transform="matrix(12,0,0,12,119.1,612.1)" />
<use xlink:href="#f2_25" transform="matrix(12,0,0,12,124.2,612.1)" />
<use xlink:href="#f2_29" transform="matrix(12,0,0,12,129.4,612.1)" />
<use xlink:href="#f2_25" transform="matrix(12,0,0,12,143.5,612.1)" />
<use xlink:href="#f2_2g" transform="matrix(12,0,0,12,148.6,612.1)" />
<use xlink:href="#f2_1x" transform="matrix(12,0,0,12,153.8,612.1)" />
<use xlink:href="#f2_2g" transform="matrix(12,0,0,12,161.9,612.1)" />
<use xlink:href="#f2_25" transform="matrix(12,0,0,12,167,612.1)" />
<use xlink:href="#f2_2b" transform="matrix(12,0,0,12,172.1,612.1)" />
<use xlink:href="#f2_2a" transform="matrix(12,0,0,12,181.3,612.1)" />
</g>
<path fill-rule="evenodd" d="M45.9,619.9h.8v-.8h-.8v.8Z" class="g2_158" />
<path fill-rule="evenodd" d="M45.9,619.9h.8v-.8h-.8v.8Z" class="g2_158" />
<path fill-rule="evenodd" d="M46.7,619.9H862.9v-.8H46.7v.8Z" class="g2_158" />
<path fill-rule="evenodd" d="M863,619.9h.7v-.8H863v.8Z" class="g2_158" />
<path fill-rule="evenodd" d="M863,619.9h.7v-.8H863v.8Z" class="g2_158" />
<path fill-rule="evenodd" d="M45.9,619.1h.8V594.9h-.8v24.2Z" class="g2_158" />
<path fill-rule="evenodd" d="M863,619.1h.7V594.9H863v24.2Z" class="g2_158" />
<g fill="#000000" >
<use xlink:href="#f2_1r" transform="matrix(12,0,0,12,55,971.1)" />
<use xlink:href="#f2_1e" transform="matrix(12,0,0,12,61.1,971.1)" />
<use xlink:href="#f2_2b" transform="matrix(12,0,0,12,74.3,971.1)" />
<use xlink:href="#f2_2g" transform="matrix(12,0,0,12,83.4,971.1)" />
<use xlink:href="#f2_21" transform="matrix(12,0,0,12,88.5,971.1)" />
<use xlink:href="#f2_u" transform="matrix(12,0,0,12,101.2,971.1)" />
<use xlink:href="#f2_11" transform="matrix(12,0,0,12,111,971.1)" />
<use xlink:href="#f2_2j" transform="matrix(12,0,0,12,124.2,971.1)" />
<use xlink:href="#f2_1x" transform="matrix(12,0,0,12,137.4,971.1)" />
<use xlink:href="#f2_2e" transform="matrix(12,0,0,12,145.6,971.1)" />
<use xlink:href="#f2_20" transform="matrix(12,0,0,12,151.7,971.1)" />
<use xlink:href="#f2_l" transform="matrix(12,0,0,12,165.5,971.1)" />
<use xlink:href="#f2_29" transform="matrix(12,0,0,12,179.2,971.1)" />
<use xlink:href="#f2_1x" transform="matrix(12,0,0,12,193.4,971.1)" />
<use xlink:href="#f2_2e" transform="matrix(12,0,0,12,201.5,971.1)" />
<use xlink:href="#f2_27" transform="matrix(12,0,0,12,207.6,971.1)" />
<use xlink:href="#f2_2b" transform="matrix(12,0,0,12,221.4,971.1)" />
<use xlink:href="#f2_2a" transform="matrix(12,0,0,12,230.7,971.1)" />
<use xlink:href="#f2_28" transform="matrix(12,0,0,12,239.8,971.1)" />
<use xlink:href="#f2_2l" transform="matrix(12,0,0,12,244.9,971.1)" />
<use xlink:href="#f2_25" transform="matrix(12,0,0,12,258.7,971.1)" />
<use xlink:href="#f2_22" transform="matrix(12,0,0,12,263.8,971.1)" />
<use xlink:href="#f2_2g" transform="matrix(12,0,0,12,274.5,971.1)" />
<use xlink:href="#f2_24" transform="matrix(12,0,0,12,279.6,971.1)" />
<use xlink:href="#f2_21" transform="matrix(12,0,0,12,288.8,971.1)" />
<use xlink:href="#f2_20" transform="matrix(12,0,0,12,301.5,971.1)" />
<use xlink:href="#f2_25" transform="matrix(12,0,0,12,310.7,971.1)" />
<use xlink:href="#f2_1x" transform="matrix(12,0,0,12,315.7,971.1)" />
<use xlink:href="#f2_23" transform="matrix(12,0,0,12,323.8,971.1)" />
<use xlink:href="#f2_2e" transform="matrix(12,0,0,12,332.9,971.1)" />
<use xlink:href="#f2_1x" transform="matrix(12,0,0,12,339,971.1)" />
<use xlink:href="#f2_29" transform="matrix(12,0,0,12,347.2,971.1)" />
<use xlink:href="#f2_25" transform="matrix(12,0,0,12,365.9,971.1)" />
<use xlink:href="#f2_2f" transform="matrix(12,0,0,12,371,971.1)" />
<use xlink:href="#f2_2a" transform="matrix(12,0,0,12,382.7,971.1)" />
<use xlink:href="#f2_2b" transform="matrix(12,0,0,12,391.9,971.1)" />
<use xlink:href="#f2_2g" transform="matrix(12,0,0,12,401.1,971.1)" />
<use xlink:href="#f2_28" transform="matrix(12,0,0,12,410.8,971.1)" />
<use xlink:href="#f2_1x" transform="matrix(12,0,0,12,415.9,971.1)" />
<use xlink:href="#f2_1y" transform="matrix(12,0,0,12,424,971.1)" />
<use xlink:href="#f2_21" transform="matrix(12,0,0,12,433.2,971.1)" />
<use xlink:href="#f2_28" transform="matrix(12,0,0,12,441.3,971.1)" />
<use xlink:href="#f2_28" transform="matrix(12,0,0,12,446.4,971.1)" />
<use xlink:href="#f2_21" transform="matrix(12,0,0,12,451.5,971.1)" />
<use xlink:href="#f2_20" transform="matrix(12,0,0,12,459.7,971.1)" />
<use xlink:href="#f2_1t" transform="matrix(12,0,0,12,468.8,971.1)" />
<use xlink:href="#f4_1g" transform="matrix(12,0,0,12,55,993.8)" />
<use xlink:href="#f4_2e" transform="matrix(12,0,0,12,66.2,993.8)" />
<use xlink:href="#f4_25" transform="matrix(12,0,0,12,74.3,993.8)" />
<use xlink:href="#f4_2a" transform="matrix(12,0,0,12,79.4,993.8)" />
<use xlink:href="#f4_1z" transform="matrix(12,0,0,12,89.6,993.8)" />
<use xlink:href="#f4_25" transform="matrix(12,0,0,12,97.8,993.8)" />
<use xlink:href="#f4_2c" transform="matrix(12,0,0,12,102.9,993.8)" />
<use xlink:href="#f4_28" transform="matrix(12,0,0,12,113.1,993.8)" />
<use xlink:href="#f4_21" transform="matrix(12,0,0,12,118.2,993.8)" />
<use xlink:href="#f4_a" transform="matrix(12,0,0,12,130.9,993.8)" />
<use xlink:href="#f4_2j" transform="matrix(12,0,0,12,150.7,993.8)" />
<use xlink:href="#f4_2b" transform="matrix(12,0,0,12,163.8,993.8)" />
<use xlink:href="#f4_2e" transform="matrix(12,0,0,12,173,993.8)" />
<use xlink:href="#f4_27" transform="matrix(12,0,0,12,181.1,993.8)" />
<use xlink:href="#f4_25" transform="matrix(12,0,0,12,191.4,993.8)" />
<use xlink:href="#f4_2a" transform="matrix(12,0,0,12,196.5,993.8)" />
<use xlink:href="#f4_23" transform="matrix(12,0,0,12,206.7,993.8)" />
<use xlink:href="#f2_13" transform="matrix(12,0,0,12,55,1016.6)" />
<use xlink:href="#f2_2b" transform="matrix(12,0,0,12,67.2,1016.6)" />
<use xlink:href="#f2_2a" transform="matrix(12,0,0,12,76.4,1016.6)" />
<use xlink:href="#f2_2f" transform="matrix(12,0,0,12,85.6,1016.6)" />
<use xlink:href="#f2_25" transform="matrix(12,0,0,12,92.7,1016.6)" />
<use xlink:href="#f2_20" transform="matrix(12,0,0,12,97.8,1016.6)" />
<use xlink:href="#f2_21" transform="matrix(12,0,0,12,107,1016.6)" />
<use xlink:href="#f2_2e" transform="matrix(12,0,0,12,115.1,1016.6)" />
<use xlink:href="#f2_1x" transform="matrix(12,0,0,12,125.8,1016.6)" />
<use xlink:href="#f2_2f" transform="matrix(12,0,0,12,138.6,1016.6)" />
<use xlink:href="#f2_21" transform="matrix(12,0,0,12,145.6,1016.6)" />
<use xlink:href="#f2_2g" transform="matrix(12,0,0,12,153.8,1016.6)" />
<use xlink:href="#f2_2h" transform="matrix(12,0,0,12,163.5,1016.6)" />
<use xlink:href="#f2_2c" transform="matrix(12,0,0,12,172.6,1016.6)" />
<use xlink:href="#f2_2b" transform="matrix(12,0,0,12,186.4,1016.6)" />
<use xlink:href="#f2_22" transform="matrix(12,0,0,12,195.5,1016.6)" />
<use xlink:href="#f2_2g" transform="matrix(12,0,0,12,206.2,1016.6)" />
<use xlink:href="#f2_24" transform="matrix(12,0,0,12,211.3,1016.6)" />
<use xlink:href="#f2_21" transform="matrix(12,0,0,12,220.5,1016.6)" />
<use xlink:href="#f2_2g" transform="matrix(12,0,0,12,233.2,1016.6)" />
<use xlink:href="#f2_2l" transform="matrix(12,0,0,12,238.3,1016.6)" />
<use xlink:href="#f2_2c" transform="matrix(12,0,0,12,247.5,1016.6)" />
<use xlink:href="#f2_21" transform="matrix(12,0,0,12,256.6,1016.6)" />
<use xlink:href="#f2_2f" transform="matrix(12,0,0,12,269.4,1016.6)" />
<use xlink:href="#f2_24" transform="matrix(12,0,0,12,276.5,1016.6)" />
<use xlink:href="#f2_2b" transform="matrix(12,0,0,12,285.7,1016.6)" />
<use xlink:href="#f2_2j" transform="matrix(12,0,0,12,294.8,1016.6)" />
<use xlink:href="#f2_2a" transform="matrix(12,0,0,12,308.1,1016.6)" />
<use xlink:href="#f2_24" transform="matrix(12,0,0,12,321.8,1016.6)" />
<use xlink:href="#f2_21" transform="matrix(12,0,0,12,331,1016.6)" />
<use xlink:href="#f2_2e" transform="matrix(12,0,0,12,339.1,1016.6)" />
<use xlink:href="#f2_21" transform="matrix(12,0,0,12,345.2,1016.6)" />
</g>
<image preserveAspectRatio="none" x="282" y="195" width="345" height="327" xlink:href="img/7.png" />
<image preserveAspectRatio="none" x="55" y="620" width="392" height="331" xlink:href="img/8.png" />
<path fill-rule="evenodd" d="M37.4,38.1h.7v-.7h-.7v.7Z" class="g2_158" />
<path fill-rule="evenodd" d="M37.4,38.1h.7v-.7h-.7v.7Z" class="g2_158" />
<path fill-rule="evenodd" d="M38.1,38.1H871.5v-.7H38.1v.7Z" class="g2_158" />
<path fill-rule="evenodd" d="M871.5,38.1h.7v-.7h-.7v.7Z" class="g2_158" />
<path fill-rule="evenodd" d="M871.5,38.1h.7v-.7h-.7v.7Z" class="g2_158" />
<path fill-rule="evenodd" d="M37.4,1248.2h.7V38.1h-.7V1248.2Z" class="g2_158" />
<path fill-rule="evenodd" d="M872.2,1248.2h.8V38.1h-.8V1248.2Z" class="g2_158" />
<path fill-rule="evenodd" d="M871.5,1248.2h.7V38.1h-.7V1248.2Z" class="g2_158" />
<path fill-rule="evenodd" d="M37.4,1249h.7v-.8h-.7v.8Z" class="g2_158" />
<path fill-rule="evenodd" d="M37.4,1249h.7v-.8h-.7v.8Z" class="g2_158" />
<path fill-rule="evenodd" d="M38.1,1249.7H871.5v-.7H38.1v.7Z" class="g2_158" />
<path fill-rule="evenodd" d="M38.1,1249H871.5v-.8H38.1v.8Z" class="g2_158" />
<path fill-rule="evenodd" d="M872.2,1249.7h.8v-1.5h-.8v1.5Z" class="g2_158" />
<path fill-rule="evenodd" d="M871.5,1249.7H873v-.7h-1.5v.7Z" class="g2_158" />
<path fill-rule="evenodd" d="M871.5,1249h.7v-.8h-.7v.8Z" class="g2_158" />
<path fill-rule="evenodd" d="M871.5,1249h.7v-.8h-.7v.8Z" class="g2_158" />
<defs>
<path d="M489,-15c0,0,-99,0,-179,30c0,0,-80,30,-136,91c0,0,-56,61,-85,152c0,0,-30,91,-30,212c0,0,0,123,32,218c0,0,33,96,92,161c0,0,59,65,142,98c0,0,82,34,181,34c0,0,40,0,78,-7c0,0,37,-7,69,-18c0,0,31,-11,57,-25c0,0,25,-14,35,-24c0,0,10,-10,14,-17c0,0,4,-7,6,-17c0,0,2,-11,3,-25c0,0,2,-14,2,-35c0,0,0,-22,-2,-38c0,0,-1,-15,-5,-25c0,0,-4,-10,-9,-14c0,0,-5,-5,-12,-5c0,0,-11,0,-28,13c0,0,-18,13,-45,29c0,0,-27,16,-65,29c0,0,-37,13,-89,13c0,0,-58,0,-103,-23c0,0,-45,-23,-77,-67c0,0,-31,-44,-48,-106c0,0,-16,-61,-16,-139c0,0,0,-85,17,-147c0,0,18,-62,50,-103c0,0,33,-40,79,-60c0,0,45,-19,103,-19c0,0,52,0,90,12c0,0,38,12,65,27c0,0,27,15,45,27c0,0,17,12,27,12c0,0,8,0,12,-3c0,0,4,-3,7,-12c0,0,3,-9,5,-25c0,0,1,-16,1,-43c0,0,0,-18,-1,-31c0,0,-1,-14,-3,-23c0,0,-2,-9,-6,-16c0,0,-4,-7,-12,-15c0,0,-8,-9,-32,-22c0,0,-23,-14,-57,-26C661,13,627,1,583,-6c0,0,-43,-9,-94,-9Z" 
id="f0_j"
transform="scale(0.001,-0.001)" />

<path d="M440,150c0,0,41,0,68,8c0,0,28,9,49,26c0,0,20,16,32,41c0,0,11,25,11,58c0,0,0,33,-11,60c0,0,-11,26,-33,44c0,0,-21,18,-55,28c0,0,-33,9,-87,9H298V150ZM407,567c0,0,42,0,68,10c0,0,25,10,42,28c0,0,16,17,24,41c0,0,9,24,9,50c0,0,0,29,-9,52c0,0,-9,23,-27,39c0,0,-18,15,-45,23c0,0,-27,8,-72,8H298V567ZM164,0c0,0,-25,0,-42,15c0,0,-16,14,-16,47V903c0,0,0,33,16,48c0,0,17,14,42,14H406c0,0,88,0,150,-15c0,0,61,-15,103,-45c0,0,42,-30,65,-77c0,0,22,-46,22,-108c0,0,0,-36,-9,-67c0,0,-9,-31,-26,-56c0,0,-17,-25,-42,-45c0,0,-25,-19,-57,-31c0,0,41,-7,76,-26c0,0,34,-19,60,-48c0,0,26,-30,41,-69c0,0,15,-40,15,-89c0,0,0,-51,-14,-93c0,0,-15,-42,-40,-74c0,0,-25,-32,-59,-55c0,0,-35,-23,-77,-38C614,29,573,14,525,7C525,7,478,0,420,0Z" 
id="f0_i"
transform="scale(0.001,-0.001)" />

<path d="M320,-17c0,0,-50,0,-93,9c0,0,-43,8,-76,19c0,0,-32,11,-54,24C97,35,75,48,65,58c0,0,-10,9,-14,28c0,0,-4,18,-4,52c0,0,0,23,1,39c0,0,2,15,5,25c0,0,4,10,9,14c0,0,6,4,13,4c0,0,11,0,30,-12c0,0,19,-13,49,-28c0,0,30,-15,71,-27c0,0,42,-12,96,-12c0,0,36,0,64,8c0,0,29,9,49,25c0,0,19,15,30,38c0,0,10,23,10,52c0,0,0,33,-18,56c0,0,-18,24,-46,42c0,0,-29,18,-66,34c0,0,-36,16,-75,34c0,0,-39,18,-76,41c0,0,-36,23,-65,54c0,0,-29,32,-47,75c0,0,-17,44,-17,104c0,0,0,70,25,122c0,0,26,53,70,88c0,0,43,34,103,51c0,0,59,18,125,18c0,0,35,0,69,-6c0,0,34,-5,64,-14c0,0,30,-9,53,-20c0,0,23,-11,31,-18c0,0,7,-8,10,-13c0,0,3,-5,4,-14c0,0,2,-8,3,-21c0,0,1,-13,1,-33c0,0,0,-21,-1,-36c0,0,-1,-15,-4,-25c0,0,-3,-9,-7,-14c0,0,-5,-4,-14,-4c0,0,-8,0,-26,10c0,0,-18,10,-44,23c0,0,-26,12,-60,22c0,0,-34,10,-75,10c0,0,-32,0,-56,-8c0,0,-24,-8,-40,-21c0,0,-16,-14,-24,-34c0,0,-8,-19,-8,-41c0,0,0,-32,18,-56c0,0,17,-23,46,-42c0,0,30,-18,67,-34c0,0,38,-16,76,-34c0,0,39,-18,76,-41c0,0,38,-22,67,-54c0,0,29,-32,47,-75c0,0,18,-43,18,-101c0,0,0,-76,-29,-133c0,0,-28,-58,-77,-96C572,60,524,21,459,2c0,0,-65,-19,-139,-19Z" 
id="f0_2n"
transform="scale(0.001,-0.001)" />

<path d="M164,0c0,0,-25,0,-42,15c0,0,-16,14,-16,47V903c0,0,0,33,16,48c0,0,17,14,42,14H645c0,0,7,0,12,-4c0,0,5,-3,9,-13c0,0,4,-9,6,-24c0,0,2,-14,2,-36c0,0,0,-21,-2,-36c0,0,-2,-14,-6,-23c0,0,-4,-9,-9,-13c0,0,-5,-4,-12,-4H301V576H593c0,0,6,0,12,-4c0,0,6,-4,9,-13c0,0,4,-8,6,-23c0,0,2,-14,2,-35c0,0,0,-22,-2,-36c0,0,-2,-14,-6,-23c0,0,-3,-8,-9,-12c0,0,-6,-4,-12,-4H301V154H649c0,0,6,0,12,-5c0,0,5,-4,9,-13c0,0,4,-9,6,-23c0,0,2,-15,2,-36c0,0,0,-22,-2,-36c0,0,-2,-15,-6,-24c0,0,-4,-9,-9,-13c0,0,-6,-4,-12,-4Z" 
id="f0_t"
transform="scale(0.001,-0.001)" />

<path d="M79,297c0,0,-19,0,-27,18c0,0,-8,17,-8,60c0,0,0,41,8,59c0,0,8,17,27,17H389c0,0,9,0,15,-4c0,0,7,-4,11,-13c0,0,5,-9,7,-23c0,0,1,-15,1,-36c0,0,0,-43,-8,-61c0,0,-8,-17,-26,-17Z" 
id="f0_oj"
transform="scale(0.001,-0.001)" />

<path d="M121,-4c0,0,-39,0,-60,2C61,-2,39,0,32,8c0,0,-8,8,-3,24c0,0,4,15,18,41L279,495L64,892c0,0,-14,26,-19,42c0,0,-5,17,4,24c0,0,9,8,32,10c0,0,23,2,65,2c0,0,35,0,56,-2c0,0,20,-1,32,-4c0,0,12,-4,17,-10c0,0,5,-6,9,-15L431,620L595,939c0,0,5,9,10,15c0,0,5,6,16,10c0,0,10,3,29,4c0,0,19,2,53,2c0,0,37,0,59,-2c0,0,22,-2,30,-10c0,0,8,-8,4,-24c0,0,-4,-16,-17,-42L564,497L793,73c0,0,14,-26,18,-41c0,0,4,-16,-5,-24c0,0,-9,-8,-32,-10c0,0,-24,-2,-65,-2c0,0,-36,0,-56,2c0,0,-20,1,-31,3c0,0,-12,4,-17,10c0,0,-5,6,-9,15L414,374L233,26c0,0,-4,-9,-9,-15c0,0,-6,-6,-17,-10c0,0,-12,-2,-32,-3c0,0,-21,-2,-54,-2Z" 
id="f0_3e"
transform="scale(0.001,-0.001)" />

<path d="M204,-4c0,0,-28,0,-47,2c0,0,-19,2,-31,5c0,0,-11,4,-16,10c0,0,-4,6,-4,13V939c0,0,0,7,4,13c0,0,5,6,17,10c0,0,11,3,30,6c0,0,19,2,47,2c0,0,29,0,48,-2c0,0,18,-3,29,-6c0,0,11,-4,16,-10c0,0,5,-6,5,-13V26c0,0,0,-7,-5,-13c0,0,-5,-6,-16,-10c0,0,-11,-3,-29,-5c0,0,-19,-2,-48,-2Z" 
id="f0_1c"
transform="scale(0.001,-0.001)" />

<path d="M127,0c0,0,-16,0,-28,3C99,3,87,6,80,15c0,0,-8,8,-11,25c0,0,-3,16,-3,42c0,0,0,25,2,42c0,0,2,18,8,32c0,0,6,14,15,27c0,0,9,13,24,29L282,390c0,0,50,53,81,95c0,0,30,43,47,79c0,0,17,35,24,65c0,0,6,30,6,57c0,0,0,24,-8,46c0,0,-8,22,-23,39c0,0,-15,16,-38,25c0,0,-23,10,-55,10c0,0,-44,0,-78,-12c0,0,-33,-11,-59,-25c0,0,-26,-13,-43,-25c0,0,-17,-12,-27,-12c0,0,-7,0,-11,5c0,0,-5,4,-8,15c0,0,-3,10,-5,28c0,0,-2,17,-2,42c0,0,0,18,1,29c0,0,1,12,4,20c0,0,2,9,6,15c0,0,3,6,13,15c0,0,9,9,34,23c0,0,25,14,61,27c0,0,37,14,81,23c0,0,44,9,92,9c0,0,75,0,131,-19c0,0,57,-19,94,-53c0,0,37,-34,55,-81c0,0,19,-47,19,-100c0,0,0,-47,-9,-93c0,0,-9,-45,-37,-98c0,0,-29,-52,-80,-116c0,0,-52,-64,-136,-148L299,159H679c0,0,8,0,14,-4c0,0,6,-5,11,-14c0,0,4,-9,7,-25c0,0,2,-15,2,-36c0,0,0,-22,-2,-37c0,0,-2,-15,-6,-25c0,0,-3,-10,-9,-14c0,0,-6,-4,-14,-4Z" 
id="f0_rz"
transform="scale(0.001,-0.001)" />

<path d="M385,138c0,0,29,0,52,9c0,0,22,10,39,28c0,0,17,19,28,47c0,0,11,29,19,66c0,0,7,37,9,84c0,0,3,47,3,104c0,0,0,69,-4,122c0,0,-4,52,-11,91c0,0,-8,39,-20,66c0,0,-12,27,-28,43c0,0,-16,16,-37,22c0,0,-21,7,-47,7c0,0,-44,0,-73,-21c0,0,-28,-21,-45,-64c0,0,-17,-42,-24,-106c0,0,-6,-63,-6,-148c0,0,0,-103,8,-171c0,0,8,-67,26,-107c0,0,17,-40,45,-56c0,0,27,-16,66,-16ZM378,-17c0,0,-99,0,-164,33c0,0,-65,34,-103,98c0,0,-38,64,-54,156c0,0,-15,92,-15,209c0,0,0,115,19,208c0,0,19,94,61,160c0,0,42,65,110,101c0,0,68,35,165,35c0,0,99,0,164,-34c0,0,65,-34,103,-98c0,0,39,-64,53,-156c0,0,15,-92,15,-209c0,0,0,-115,-18,-209c0,0,-19,-93,-61,-159C653,118,611,53,543,17c0,0,-67,-34,-165,-34Z" 
id="f0_rx"
transform="scale(0.001,-0.001)" />

<path d="M142,0c0,0,-6,0,-12,4c0,0,-5,3,-9,12c0,0,-4,9,-6,23c0,0,-3,15,-3,36c0,0,0,21,2,36c0,0,2,14,6,23c0,0,4,9,10,13c0,0,5,5,12,5H322V779L166,693c0,0,-17,-8,-28,-10c0,0,-1,0,-3,0c-4,0,-10,1,-14,5c0,0,-6,6,-8,22c0,0,-2,15,-2,44c0,0,0,18,0,29c0,0,1,12,4,20c0,0,3,8,8,14c0,0,5,5,14,11L345,962c0,0,4,3,9,5c0,0,6,2,15,3c0,0,9,1,23,2c0,0,15,0,38,0c0,0,28,0,46,-1c0,0,17,-1,26,-4c0,0,9,-3,12,-7c0,0,3,-4,3,-11V152H675c0,0,7,0,12,-5c0,0,6,-4,10,-13c0,0,4,-9,6,-23c0,0,2,-15,2,-36c0,0,0,-21,-2,-36c0,0,-3,-14,-7,-23c0,0,-4,-9,-9,-12c0,0,-5,-4,-12,-4Z" 
id="f0_ry"
transform="scale(0.001,-0.001)" />

<path d="M439,356V801h-1L183,356ZM532,-4c0,0,-27,0,-45,2c0,0,-18,2,-29,5c0,0,-11,3,-15,9c0,0,-4,5,-4,13V199H70c0,0,-11,0,-19,3c0,0,-8,3,-14,12c0,0,-5,9,-8,27c0,0,-3,17,-3,46c0,0,0,24,2,42c0,0,1,17,3,31c0,0,3,15,8,27c0,0,5,13,12,27L351,944c0,0,4,7,13,11c0,0,9,5,25,9c0,0,16,3,40,4c0,0,25,2,60,2c0,0,38,0,65,-2c0,0,27,-2,43,-6c0,0,16,-4,23,-10c0,0,8,-6,8,-14V356h85c0,0,12,0,21,-18c0,0,8,-19,8,-61c0,0,0,-38,-8,-58c0,0,-7,-20,-21,-20H628V25c0,0,0,-8,-5,-13c0,0,-4,-6,-15,-9c0,0,-12,-3,-29,-5c0,0,-18,-2,-47,-2Z" 
id="f0_s1"
transform="scale(0.001,-0.001)" />

<path d="M589,371L453,782h-1L317,371ZM106,-4c0,0,-35,0,-54,2C52,-2,32,0,25,8c0,0,-7,9,-5,24c0,0,2,16,11,42L329,931c0,0,4,13,10,21c0,0,6,7,19,12c0,0,13,4,36,5c0,0,23,1,61,1c0,0,44,0,71,-1c0,0,26,-1,40,-5c0,0,15,-5,21,-13c0,0,6,-8,11,-22L896,73c0,0,9,-27,11,-43c0,0,3,-15,-6,-23c0,0,-8,-7,-29,-9c0,0,-21,-2,-57,-2c0,0,-38,0,-59,1c0,0,-22,1,-33,4c0,0,-11,3,-16,9c0,0,-4,6,-7,16L635,220H272L211,31c0,0,-2,-11,-7,-18c0,0,-5,-7,-16,-11c0,0,-11,-3,-31,-4c0,0,-19,-2,-51,-2Z" 
id="f0_5"
transform="scale(0.001,-0.001)" />

<path d="M198,-4c0,0,-27,0,-45,2c0,0,-18,2,-28,5c0,0,-11,4,-15,10c0,0,-4,6,-4,13V887c0,0,0,38,20,58c0,0,20,20,53,20H308c0,0,34,0,59,-6c0,0,24,-5,42,-18c0,0,18,-13,30,-35c0,0,12,-21,21,-52L669,279h3L889,852c0,0,9,32,21,53c0,0,11,22,27,35c0,0,15,14,36,19c0,0,21,6,48,6h132c0,0,21,0,35,-5c0,0,15,-5,24,-15c0,0,9,-11,14,-25c0,0,5,-15,5,-33V26c0,0,0,-7,-4,-13c0,0,-4,-6,-15,-10c0,0,-11,-3,-29,-5c0,0,-18,-2,-45,-2c0,0,-27,0,-45,2c0,0,-18,2,-28,5c0,0,-11,4,-15,10c0,0,-5,6,-5,13V813h-1L764,27c0,0,-3,-10,-10,-16c0,0,-6,-6,-18,-10c0,0,-12,-3,-29,-4c0,0,-18,-1,-44,-1c0,0,-25,0,-43,2c0,0,-18,2,-29,5c0,0,-12,4,-19,10c0,0,-6,6,-9,14L293,813h-2V26c0,0,0,-7,-4,-13c0,0,-4,-6,-15,-10c0,0,-11,-3,-29,-5c0,0,-17,-2,-45,-2Z" 
id="f0_1x"
transform="scale(0.001,-0.001)" />

<path d="M193,-4c0,0,-26,0,-43,2c0,0,-18,2,-27,6c0,0,-10,4,-14,10c0,0,-3,6,-3,13V895c0,0,0,35,20,53c0,0,21,17,50,17H282c0,0,28,0,47,-5c0,0,20,-5,35,-16c0,0,15,-11,29,-31c0,0,13,-20,27,-49L608,511c0,0,17,-32,33,-63c0,0,16,-31,31,-62c0,0,14,-31,29,-60c0,0,14,-30,27,-60h1c0,0,-2,52,-3,109c0,0,-1,57,-1,108V936c0,0,0,7,4,13c0,0,5,6,15,11c0,0,10,4,28,6c0,0,17,2,44,2c0,0,25,0,42,-2c0,0,17,-2,27,-6c0,0,9,-5,13,-11c0,0,4,-6,4,-13V68c0,0,0,-17,-6,-30c0,0,-6,-14,-17,-23C879,15,869,6,856,2c0,0,-14,-3,-28,-3H744c0,0,-26,0,-45,4c0,0,-19,5,-35,19c0,0,-16,14,-31,38c0,0,-15,23,-34,60L359,572c0,0,-21,40,-43,86c0,0,-21,47,-38,91h-2c0,0,3,-54,5,-107c0,0,2,-53,2,-110V27c0,0,0,-7,-5,-13c0,0,-4,-6,-14,-10c0,0,-10,-4,-27,-6c0,0,-17,-2,-44,-2Z" 
id="f0_1y"
transform="scale(0.001,-0.001)" />

<path d="M378,-4c0,0,-28,0,-47,2c0,0,-19,2,-31,5c0,0,-11,4,-16,10c0,0,-4,6,-4,13V805H38c0,0,-8,0,-13,4c0,0,-5,5,-9,14c0,0,-3,9,-5,25c0,0,-2,15,-2,37c0,0,0,22,2,38c0,0,2,15,5,25c0,0,4,9,9,13c0,0,5,4,13,4H718c0,0,7,0,12,-4c0,0,6,-4,10,-13c0,0,3,-10,5,-25c0,0,2,-16,2,-38c0,0,0,-22,-2,-37c0,0,-2,-16,-5,-25c0,0,-4,-9,-10,-14c0,0,-5,-4,-12,-4H476V26c0,0,0,-7,-5,-13c0,0,-5,-6,-16,-10c0,0,-11,-3,-30,-5c0,0,-19,-2,-47,-2Z" 
id="f0_2t"
transform="scale(0.001,-0.001)" />

<path d="M514,145c0,0,72,0,121,27c0,0,48,26,78,73c0,0,30,46,42,107c0,0,13,62,13,131c0,0,0,76,-12,139c0,0,-12,62,-41,106c0,0,-29,45,-76,69c0,0,-48,24,-120,24c0,0,-72,0,-120,-27c0,0,-49,-27,-79,-73c0,0,-29,-45,-42,-106c0,0,-12,-61,-12,-129c0,0,0,-79,12,-142c0,0,12,-63,40,-108c0,0,28,-44,76,-68c0,0,48,-23,120,-23ZM508,-17c0,0,-113,0,-196,29c0,0,-84,29,-140,90c0,0,-56,60,-84,154c0,0,-28,93,-28,221c0,0,0,117,29,210c0,0,30,94,89,160c0,0,59,65,146,101c0,0,87,35,202,35c0,0,110,0,194,-29c0,0,84,-30,140,-90c0,0,56,-60,85,-153c0,0,29,-92,29,-217c0,0,0,-120,-30,-215c0,0,-30,-95,-89,-161C855,118,796,52,709,17c0,0,-87,-34,-201,-34Z" 
id="f0_24"
transform="scale(0.001,-0.001)" />

<path d="M299,0V777H162l36,173H508V0Z" 
id="f1_l"
transform="scale(0.001,-0.001)" />

<path d="M402,179c0,0,58,0,100,45c0,0,42,45,42,107c0,0,0,65,-41,108c0,0,-41,44,-101,44c0,0,-65,0,-110,-44c0,0,-45,-45,-45,-109c0,0,0,-64,45,-107c0,0,44,-44,110,-44ZM390,-11c0,0,-150,0,-247,94c0,0,-97,96,-97,243c0,0,0,106,48,217c0,0,49,111,108,194L356,952H605L372,631c0,0,48,9,88,9c0,0,123,0,212,-91c0,0,89,-92,89,-219c0,0,0,-148,-105,-245c0,0,-105,-96,-266,-96Z" 
id="f1_q"
transform="scale(0.001,-0.001)" />

<path d="M44,-281L425,1053H537L156,-281Z" 
id="f1_j"
transform="scale(0.001,-0.001)" />

<path d="M75,0L400,413c0,0,71,91,101,149c0,0,30,58,30,109c0,0,0,55,-36,91c0,0,-36,36,-91,36c0,0,-63,0,-91,-45c0,0,-28,-46,-34,-142H67c0,0,0,173,102,268c0,0,102,95,253,95c0,0,140,0,229,-82c0,0,89,-82,89,-209c0,0,0,-125,-104,-276L580,324c0,0,-34,-50,-85,-114L468,178H740V0Z" 
id="f1_m"
transform="scale(0.001,-0.001)" />

<path d="M404,-11c0,0,-136,0,-225,76c0,0,-90,78,-111,215H265c0,0,35,-136,135,-136c0,0,50,0,85,35c0,0,34,36,34,88c0,0,0,64,-41,105c0,0,-42,41,-107,41H336V573h21c0,0,68,0,109,33c0,0,41,34,41,89c0,0,0,50,-32,85c0,0,-32,35,-79,35c0,0,-110,0,-127,-135H76c0,0,9,130,96,209c0,0,87,79,208,79c0,0,134,0,227,-76c0,0,94,-75,94,-182c0,0,0,-116,-115,-210c0,0,73,-46,107,-96c0,0,34,-51,34,-121c0,0,0,-134,-88,-214c0,0,-89,-80,-235,-80Z" 
id="f1_n"
transform="scale(0.001,-0.001)" />

<path d="M249,-14c0,0,-71,0,-107,42c0,0,-35,42,-35,119V639H15v33l93,29l76,159h47V701H391V639H231V161c0,0,0,-48,22,-73c0,0,22,-24,57,-24c0,0,44,0,106,12V26C416,26,389,8,340,-2c0,0,-49,-12,-91,-12Z" 
id="f2_2g"
transform="scale(0.001,-0.001)" />

<path d="M442,0V33l93,19V504c0,0,0,129,-124,129c0,0,-70,0,-168,-22V52L338,33V0H31V33l88,19v956L15,1026v34H243V756c0,0,0,-77,-5,-112c0,0,54,31,122,53c0,0,68,23,115,23c0,0,91,0,137,-53c0,0,47,-53,47,-154V52L744,33V0Z" 
id="f2_24"
transform="scale(0.001,-0.001)" />

<path d="M495,413c0,0,0,133,-34,190c0,0,-34,57,-105,57c0,0,-78,0,-119,-63c0,0,-42,-62,-42,-184ZM374,-14c0,0,-163,0,-239,87c0,0,-75,88,-75,283c0,0,0,183,77,273c0,0,76,91,219,91c0,0,269,0,269,-306V353H194V340c0,0,0,-103,23,-160c0,0,22,-57,70,-87c0,0,47,-29,124,-29c0,0,40,0,96,6c0,0,55,7,91,15V43C598,43,562,20,500,3c0,0,-61,-17,-126,-17Z" 
id="f2_21"
transform="scale(0.001,-0.001)" />

<path d="M278,-14c0,0,-52,0,-115,11c0,0,-63,10,-99,23V193H98L134,95c0,0,56,-50,146,-50c0,0,144,0,144,123c0,0,0,91,-114,130l-66,21c0,0,-75,25,-110,50c0,0,-34,26,-53,63c0,0,-18,36,-18,89c0,0,0,92,63,145c0,0,63,54,170,54c0,0,77,0,193,-23V544H454l-32,81c0,0,-39,35,-124,35c0,0,-61,0,-92,-30c0,0,-32,-30,-32,-80c0,0,0,-43,29,-72c0,0,28,-29,86,-48c0,0,110,-38,144,-55c0,0,33,-17,57,-42c0,0,23,-25,36,-57c0,0,13,-32,13,-79c0,0,0,-104,-66,-158c0,0,-66,-53,-195,-53Z" 
id="f2_2f"
transform="scale(0.001,-0.001)" />

<path d="M382,45c0,0,188,0,188,314c0,0,0,143,-47,213c0,0,-46,69,-141,69c0,0,-87,0,-146,-24V58c0,0,67,-13,146,-13ZM25,-325v35l88,18V649L34,668v33H231l1,-41c0,0,31,27,84,43c0,0,53,17,107,17c0,0,134,0,208,-94c0,0,73,-93,73,-267c0,0,0,-178,-80,-276c0,0,-80,-97,-232,-97c0,0,-84,0,-160,16c0,0,4,-53,4,-84V-272l123,-18v-35Z" 
id="f2_2c"
transform="scale(0.001,-0.001)" />

<path d="M31,0V33l88,19V649L31,668v33H235l7,-87c0,0,44,37,121,71c0,0,76,35,121,35h11V530H463l-43,82c0,0,-37,0,-88,-10c0,0,-52,-10,-89,-26V52L363,33V0Z" 
id="f2_2e"
transform="scale(0.001,-0.001)" />

<path d="M410,-14c0,0,-80,0,-162,14c0,0,-81,14,-144,38V270h48L178,134c0,0,28,-35,95,-62c0,0,68,-27,134,-27c0,0,104,0,163,53c0,0,58,54,58,148c0,0,0,54,-23,89c0,0,-22,35,-59,59c0,0,-37,24,-84,41c0,0,-47,17,-97,34c0,0,-49,17,-96,38c0,0,-47,21,-84,53c0,0,-37,32,-60,79c0,0,-23,48,-23,117c0,0,0,119,90,187c0,0,89,68,248,68c0,0,121,0,263,-32V771H654L628,893c0,0,-76,55,-188,55c0,0,-100,0,-156,-40c0,0,-56,-41,-56,-112c0,0,0,-49,22,-81c0,0,23,-32,60,-55c0,0,37,-22,84,-39c0,0,48,-16,97,-34c0,0,50,-17,97,-39c0,0,48,-22,85,-56c0,0,36,-34,59,-83c0,0,23,-49,23,-120c0,0,0,-145,-89,-224c0,0,-89,-79,-256,-79Z" 
id="f2_1j"
transform="scale(0.001,-0.001)" />

<path d="M134,0V40L339,60V876L137,804v39l292,166h39V60L672,40V0Z" 
id="f2_l"
transform="scale(0.001,-0.001)" />

<path d="M342,-20c0,0,-116,0,-203,97c0,0,-86,98,-86,264c0,0,0,161,96,261c0,0,95,101,230,101c0,0,100,0,165,-53c0,0,65,-54,65,-111c0,0,0,-29,-18,-46c0,0,-18,-18,-51,-18c0,0,-44,0,-66,29c0,0,-13,15,-17,59c0,0,-4,45,-30,68c0,0,-26,22,-73,22c0,0,-74,0,-120,-55c0,0,-60,-73,-60,-193c0,0,0,-122,60,-216c0,0,60,-93,162,-93c0,0,73,0,131,49c0,0,41,35,80,126l22,-10C629,261,601,125,521,52c0,0,-81,-72,-179,-72Z" 
id="f3_1z"
transform="scale(0.001,-0.001)" />

<path d="M20,0V26c0,0,45,0,71,15c0,0,15,7,24,28c0,0,9,21,9,85V773c0,0,0,117,-5,144c0,0,-6,27,-17,37c0,0,-12,9,-31,9c0,0,-16,0,-51,-12L10,978l204,83h34V561c0,0,83,91,131,116c0,0,49,26,97,26c0,0,58,0,100,-32c0,0,42,-32,62,-101c0,0,14,-47,14,-174V154c0,0,0,-65,11,-89c0,0,7,-18,25,-28c0,0,18,-11,66,-11V0H418V26h15c0,0,48,0,67,15c0,0,18,15,26,43c0,0,2,12,2,70V396c0,0,0,112,-12,147c0,0,-11,35,-36,53c0,0,-26,17,-61,17c0,0,-37,0,-76,-19c0,0,-40,-20,-95,-79V154c0,0,0,-70,8,-87c0,0,8,-17,29,-29c0,0,22,-12,74,-12V0Z" 
id="f3_24"
transform="scale(0.001,-0.001)" />

<path d="M286,72c0,0,57,0,149,75V407c0,0,-113,-45,-145,-64c0,0,-59,-32,-85,-68c0,0,-25,-36,-25,-78c0,0,0,-54,32,-89c0,0,32,-36,74,-36ZM217,-13c0,0,-71,0,-116,48c0,0,-46,48,-46,127c0,0,0,50,22,87c0,0,31,50,106,95c0,0,76,45,252,109v26c0,0,0,102,-32,140c0,0,-32,38,-94,38c0,0,-47,0,-74,-25c0,0,-28,-25,-28,-58l1,-43c0,0,0,-34,-17,-53c0,0,-18,-18,-47,-18c0,0,-28,0,-45,19c0,0,-18,19,-18,53c0,0,0,64,66,117c0,0,65,54,184,54c0,0,91,0,149,-31c0,0,44,-23,65,-72c0,0,13,-32,13,-131V238c0,0,0,-98,4,-120c0,0,4,-22,12,-29c0,0,9,-8,20,-8c0,0,12,0,21,5c0,0,16,10,61,55V99C676,99,592,-12,516,-12c0,0,-37,0,-58,24c0,0,-22,26,-23,86C435,98,330,17,303,5c0,0,-40,-18,-86,-18Z" 
id="f3_1x"
transform="scale(0.001,-0.001)" />

<path d="M21,0V26H35c0,0,53,0,71,27c0,0,18,27,18,101V408c0,0,0,123,-5,150c0,0,-6,27,-17,37c0,0,-12,10,-31,10c0,0,-21,0,-50,-11L10,620l206,83h32V558c0,0,120,145,229,145c0,0,56,0,96,-28c0,0,40,-28,64,-92c0,0,16,-45,16,-137V154c0,0,0,-65,11,-88c0,0,8,-19,26,-29c0,0,18,-11,68,-11V0H419V26h14c0,0,47,0,66,15c0,0,20,15,27,43c0,0,3,11,3,70V434c0,0,0,93,-24,135c0,0,-24,42,-81,42c0,0,-88,0,-176,-97V154c0,0,0,-69,9,-86c0,0,10,-21,28,-31c0,0,19,-11,75,-11V0Z" 
id="f3_2a"
transform="scale(0.001,-0.001)" />

<path d="M411,-239c0,0,134,0,198,48c0,0,64,47,64,100c0,0,0,39,-38,55c0,0,-39,16,-154,19c0,0,-167,5,-258,17c0,0,-35,-37,-53,-70c0,0,-17,-32,-17,-60c0,0,0,-36,43,-62c0,0,74,-47,215,-47ZM380,257c0,0,56,0,93,43c0,0,36,42,36,133c0,0,0,118,-51,185c0,0,-38,49,-98,49c0,0,-55,0,-92,-44c0,0,-37,-44,-37,-135c0,0,0,-117,50,-182c0,0,39,-49,99,-49ZM345,-328c0,0,-144,0,-243,64c0,0,-56,38,-56,78c0,0,0,18,8,36c0,0,13,27,52,76c0,0,5,7,76,80c0,0,-39,23,-55,41c0,0,-16,19,-16,42c0,0,0,26,22,61c0,0,21,35,98,100c0,0,-63,30,-97,85c0,0,-33,55,-33,121c0,0,0,101,76,174c0,0,77,73,196,73c0,0,98,0,170,-48H688c0,0,32,0,37,-2c0,0,6,-2,8,-6c0,0,4,-7,4,-24c0,0,0,-20,-4,-27c0,0,-2,-4,-7,-6c0,0,-6,-2,-38,-2H599c0,0,41,-54,41,-137c0,0,0,-96,-73,-163c0,0,-73,-68,-196,-68c0,0,-51,0,-104,15c0,0,-33,-28,-44,-49c0,0,-12,-22,-12,-37c0,0,0,-12,13,-24c0,0,12,-12,48,-17c0,0,21,-4,104,-6c0,0,154,-4,199,-11c0,0,70,-10,111,-51c0,0,42,-41,42,-102c0,0,0,-84,-79,-158c0,0,-117,-108,-304,-108Z" 
id="f3_23"
transform="scale(0.001,-0.001)" />

<path d="M479,469c0,0,-4,66,-16,93c0,0,-18,42,-55,65c0,0,-37,24,-78,24c0,0,-62,0,-111,-48c0,0,-48,-48,-57,-134ZM355,-20c0,0,-123,0,-211,95c0,0,-87,96,-87,258c0,0,0,175,90,273c0,0,89,98,225,98c0,0,115,0,189,-76c0,0,74,-75,74,-202H162c0,0,0,-152,74,-239c0,0,75,-86,175,-86c0,0,67,0,117,36c0,0,50,37,83,127l24,-15c0,0,-16,-102,-91,-186c0,0,-76,-83,-189,-83Z" 
id="f3_21"
transform="scale(0.001,-0.001)" />

<path d="M55,0V26c0,0,50,0,67,10c0,0,17,10,27,32c0,0,10,23,10,86V418c0,0,0,111,-6,144c0,0,-6,24,-17,33c0,0,-11,10,-30,10c0,0,-21,0,-51,-11L45,620l206,83h33V154c0,0,0,-64,9,-85c0,0,9,-22,27,-32c0,0,19,-11,67,-11V0ZM222,909c0,0,-32,0,-54,23c0,0,-22,22,-22,53c0,0,0,32,22,54c0,0,22,22,54,22c0,0,31,0,53,-22c0,0,22,-22,22,-54c0,0,0,-31,-22,-53c0,0,-22,-23,-53,-23Z" 
id="f3_25"
transform="scale(0.001,-0.001)" />

<path d="M63,0V26H93c0,0,30,0,54,15c0,0,25,15,34,41c0,0,10,25,10,99V630H58v53H191v45c0,0,0,102,33,173c0,0,32,71,100,114c0,0,68,44,152,44c0,0,79,0,145,-51c0,0,43,-33,43,-75c0,0,0,-22,-19,-42c0,0,-20,-20,-42,-20c0,0,-17,0,-36,12c0,0,-19,13,-47,53c0,0,-28,41,-51,55c0,0,-23,14,-51,14c0,0,-35,0,-58,-18c0,0,-24,-18,-35,-57c0,0,-10,-38,-10,-197V683H491V630H315V181c0,0,0,-96,21,-122c0,0,27,-33,73,-33h62V0Z" 
id="f3_22"
transform="scale(0.001,-0.001)" />

<path d="M23,0V26c0,0,47,0,66,10c0,0,19,11,28,33c0,0,10,22,10,85V416c0,0,0,112,-7,145c0,0,-5,25,-16,34c0,0,-11,10,-31,10c0,0,-21,0,-50,-11L12,620l207,83h32V557c0,0,75,75,88,86c0,0,34,29,72,44c0,0,39,16,77,16c0,0,64,0,110,-37c0,0,47,-38,62,-109c0,0,77,90,130,118c0,0,53,28,109,28c0,0,54,0,96,-28c0,0,42,-28,67,-91c0,0,16,-43,16,-136V154c0,0,0,-64,10,-88c0,0,8,-16,28,-28c0,0,20,-12,65,-12V0H844V26h14c0,0,44,0,69,18c0,0,17,12,24,38c0,0,3,13,3,72V448c0,0,0,83,-20,117c0,0,-29,48,-93,48c0,0,-39,0,-79,-20c0,0,-40,-19,-97,-73l-1,-8l2,-32V154c0,0,0,-70,8,-87c0,0,7,-17,29,-29c0,0,21,-12,73,-12V0H431V26c0,0,57,0,78,14c0,0,21,13,29,40c0,0,4,13,4,74V448c0,0,0,83,-25,120c0,0,-33,48,-91,48c0,0,-40,0,-80,-22c0,0,-61,-33,-95,-74V154c0,0,0,-67,10,-87c0,0,9,-20,27,-30c0,0,18,-11,74,-11V0Z" 
id="f3_29"
transform="scale(0.001,-0.001)" />

<path d="M399,62c0,0,68,0,131,68V481c0,0,-5,51,-27,93c0,0,-22,42,-59,63c0,0,-37,21,-72,21c0,0,-65,0,-117,-59c0,0,-67,-77,-67,-226c0,0,0,-151,65,-231c0,0,66,-80,146,-80ZM330,-20c0,0,-112,0,-196,93c0,0,-83,94,-83,240c0,0,0,147,92,269c0,0,93,122,238,122c0,0,90,0,149,-58V773c0,0,0,117,-6,144c0,0,-5,27,-17,37c0,0,-12,9,-30,9c0,0,-20,0,-52,-12l-9,27l204,83h33V270c0,0,0,-120,6,-146c0,0,5,-27,18,-37c0,0,12,-11,28,-11c0,0,21,0,54,13l9,-26L564,-20H530V78C530,78,480,25,432,2c0,0,-47,-22,-102,-22Z" 
id="f3_20"
transform="scale(0.001,-0.001)" />

<path d="M292,-20c0,0,-57,0,-100,33c0,0,-42,33,-58,85c0,0,-17,52,-17,148V551c0,0,0,49,-10,68c0,0,-11,18,-31,29c0,0,-19,9,-68,9c-2,0,-4,0,-6,0v26H242V226c0,0,0,-95,33,-125c0,0,33,-30,80,-30c0,0,32,0,73,21c0,0,40,20,96,76V555c0,0,0,59,-21,80c0,0,-22,21,-89,22v26H647V269c0,0,0,-119,6,-145c0,0,6,-27,18,-37c0,0,12,-11,29,-11c0,0,23,0,52,13L763,63L558,-20H524V124C524,124,436,29,390,4c0,0,-47,-24,-98,-24Z" 
id="f3_2h"
transform="scale(0.001,-0.001)" />

<path d="M406,32c0,0,72,0,119,60c0,0,47,59,47,205c0,0,0,181,-78,286c0,0,-53,71,-135,71c0,0,-40,0,-79,-23c0,0,-40,-24,-65,-83c0,0,-24,-58,-24,-151c0,0,0,-149,59,-257c0,0,59,-108,156,-108ZM374,-20c0,0,-154,0,-245,122c0,0,-77,104,-77,233c0,0,0,94,46,187c0,0,47,92,123,137c0,0,76,44,161,44c0,0,155,0,249,-118c0,0,80,-100,80,-231c0,0,0,-91,-44,-185C667,169,623,75,546,27c0,0,-77,-47,-172,-47Z" 
id="f3_2b"
transform="scale(0.001,-0.001)" />

<path d="M58,0V26c0,0,47,0,64,10c0,0,18,10,28,32c0,0,9,23,9,86V775c0,0,0,116,-5,142c0,0,-5,27,-17,37c0,0,-11,9,-29,9c0,0,-20,0,-49,-12L46,978l204,83h34V154c0,0,0,-64,9,-85c0,0,9,-21,29,-32c0,0,19,-11,72,-11V0Z" 
id="f3_28"
transform="scale(0.001,-0.001)" />

<path d="M255,-10c0,0,-35,0,-68,18c0,0,-32,19,-48,55c0,0,-16,35,-16,109V632H15v24c0,0,41,16,84,56c0,0,43,39,77,92c0,0,17,29,48,104h23V683H407V632H247V188c0,0,0,-66,19,-90c0,0,19,-23,49,-23c0,0,24,0,47,16c0,0,23,15,36,45h29c0,0,-26,-73,-74,-110c0,0,-47,-36,-98,-36Z" 
id="f3_2g"
transform="scale(0.001,-0.001)" />

<path d="M17,0V26c0,0,52,0,77,17c0,0,19,12,26,38c0,0,4,13,4,73V419c0,0,0,119,-5,142c0,0,-4,23,-17,33c0,0,-13,11,-33,11c0,0,-23,0,-52,-11l-7,26l207,83h31V549c0,0,86,154,176,154c0,0,41,0,68,-25c0,0,27,-25,27,-58c0,0,0,-29,-20,-49c0,0,-19,-20,-46,-20c0,0,-26,0,-58,25c0,0,-33,26,-48,26c0,0,-14,0,-29,-15c0,0,-34,-30,-70,-101V159c0,0,0,-56,15,-85c0,0,9,-20,34,-34c0,0,24,-14,71,-14V0Z" 
id="f3_2e"
transform="scale(0.001,-0.001)" />

<path d="M312,-20c0,0,-62,0,-143,22c0,0,-25,8,-40,8c0,0,-18,0,-27,-19H77V234h25c0,0,21,-105,80,-158c0,0,59,-53,132,-53c0,0,51,0,84,31c0,0,32,30,32,72c0,0,0,52,-36,87c0,0,-36,35,-144,88c0,0,-109,54,-142,97c0,0,-34,43,-34,107c0,0,0,85,58,141c0,0,58,57,150,57c0,0,40,0,97,-17c0,0,38,-11,51,-11c0,0,12,0,19,5c0,0,7,5,15,23h25V470H464c0,0,-28,110,-72,149c0,0,-45,40,-113,40c0,0,-53,0,-85,-28c0,0,-32,-27,-32,-61c0,0,0,-41,24,-71c0,0,23,-31,94,-65L389,381c0,0,152,-74,152,-194c0,0,0,-94,-71,-151c0,0,-70,-56,-158,-56Z" 
id="f3_2f"
transform="scale(0.001,-0.001)" />

<path d="M268,648c0,0,-51,0,-91,43c0,0,-39,42,-39,105c0,0,0,88,66,160c0,0,44,48,127,78v-32c0,0,-77,-46,-104,-85c0,0,-21,-30,-21,-69c0,0,0,-24,9,-35c0,0,9,-11,20,-11c0,0,7,0,21,5c0,0,20,7,33,7c0,0,30,0,53,-23c0,0,24,-22,24,-56c0,0,0,-38,-23,-58c0,0,-33,-29,-75,-29Z" 
id="f3_52"
transform="scale(0.001,-0.001)" />

<path d="M177,647v35c0,0,77,46,105,86c0,0,19,28,19,68c0,0,0,23,-8,34c0,0,-9,11,-19,11c0,0,-9,0,-22,-5c0,0,-19,-7,-32,-7c0,0,-30,0,-53,23c0,0,-23,22,-23,56c0,0,0,37,23,58c0,0,31,28,75,28c0,0,50,0,90,-42c0,0,40,-42,40,-105c0,0,0,-88,-67,-160c0,0,-44,-48,-128,-80Z" 
id="f3_53"
transform="scale(0.001,-0.001)" />

<path d="M398,24c0,0,74,0,120,58c0,0,61,76,61,214c0,0,0,156,-69,240c0,0,-47,59,-113,59c0,0,-36,0,-71,-18c0,0,-27,-14,-88,-81V242c0,0,0,-83,6,-109c0,0,11,-43,51,-76c0,0,41,-33,103,-33ZM-4,-326v27H15c5,0,42,0,69,16c0,0,14,8,22,26c0,0,7,19,7,94V481c0,0,0,67,-6,85c0,0,-5,18,-18,27c0,0,-13,9,-36,9c0,0,-18,0,-45,-10L0,615l209,85h29V540c0,0,53,91,106,127c0,0,53,36,112,36c0,0,103,0,172,-80c0,0,84,-99,84,-257c0,0,0,-176,-102,-292c0,0,-83,-94,-210,-94c0,0,-55,0,-95,16c0,0,-30,10,-67,44V-167c0,0,0,-71,8,-90c0,0,9,-20,30,-31c0,0,21,-11,77,-11v-27Z" 
id="f3_2c"
transform="scale(0.001,-0.001)" />

<path d="M32,0V33L151,52V649L52,668v33H275V52L395,33V0ZM201,850c0,0,-32,0,-56,24c0,0,-24,24,-24,56c0,0,0,34,24,58c0,0,24,24,56,24c0,0,34,0,58,-24c0,0,24,-24,24,-58c0,0,0,-32,-24,-56c0,0,-24,-24,-58,-24Z" 
id="f2_25"
transform="scale(0.001,-0.001)" />

<path d="M383,64c0,0,85,0,152,28V645c0,0,-67,13,-152,13c0,0,-194,0,-194,-314c0,0,0,-141,48,-211c0,0,48,-69,146,-69ZM342,-14c0,0,-287,0,-287,358c0,0,0,184,82,280c0,0,81,96,239,96c0,0,81,0,163,-18c0,0,-4,25,-4,124v182l-118,18v34H659V52L745,33V0H548l-9,52c0,0,-84,-66,-197,-66Z" 
id="f2_20"
transform="scale(0.001,-0.001)" />

<path d="M439,0V33l93,19V500c0,0,0,62,-30,97c0,0,-31,36,-94,36c0,0,-67,0,-165,-22V52L338,33V0H35V33l84,19V649L35,668v33H235l7,-57c0,0,57,33,122,54c0,0,65,22,108,22c0,0,91,0,137,-53c0,0,47,-53,47,-154V52L741,33V0Z" 
id="f2_2a"
transform="scale(0.001,-0.001)" />

<path d="M31,0V33L150,52v956L31,1026v34H274V52L394,33V0Z" 
id="f2_28"
transform="scale(0.001,-0.001)" />

<path d="M284,67c0,0,51,0,88,12c0,0,37,12,74,30V358l-98,-3c0,0,-100,-4,-135,-39c0,0,-35,-35,-35,-117c0,0,0,-132,106,-132ZM233,-14c0,0,-179,0,-179,208c0,0,0,70,27,116c0,0,27,46,87,70c0,0,60,24,173,27l105,3V519c0,0,0,72,-26,107c0,0,-27,34,-82,34c0,0,-75,0,-137,-35L176,538H134V691c0,0,121,26,213,26c0,0,115,0,169,-47c0,0,54,-47,54,-144V52L657,33V0H465L451,70c0,0,-85,-84,-218,-84Z" 
id="f2_1x"
transform="scale(0.001,-0.001)" />

<path d="M399,-14c0,0,-341,0,-341,370c0,0,0,175,87,269c0,0,87,95,249,95c0,0,101,0,220,-23V501H573L541,625c0,0,-62,35,-149,35c0,0,-200,0,-200,-304c0,0,0,-158,61,-225c0,0,61,-67,189,-67c0,0,109,0,189,24V43C631,43,595,16,530,1c0,0,-64,-15,-131,-15Z" 
id="f2_1z"
transform="scale(0.001,-0.001)" />

<path d="M377,45c0,0,99,0,147,73c0,0,47,73,47,237c0,0,0,161,-47,233c0,0,-47,72,-147,72c0,0,-97,0,-141,-69c0,0,-44,-69,-44,-236c0,0,0,-169,45,-240c0,0,44,-70,140,-70Zm0,-59c0,0,-158,0,-238,94c0,0,-81,95,-81,274c0,0,0,178,81,272c0,0,80,94,244,94c0,0,160,0,241,-92c0,0,82,-92,82,-274c0,0,0,-368,-329,-368Z" 
id="f2_2b"
transform="scale(0.001,-0.001)" />

<path d="M64,0V34L168,59V639H47v36l121,29v49c0,0,0,155,61,239c0,0,62,84,173,84c0,0,58,0,107,-15V908H472l-33,92c0,0,-26,16,-62,16c0,0,-47,0,-66,-42c0,0,-19,-42,-19,-157V701H478V639H292V59L443,34V0Z" 
id="f2_22"
transform="scale(0.001,-0.001)" />

<path d="M306,-20c0,0,-39,0,-65,25c0,0,-25,27,-25,64c0,0,0,38,26,64c0,0,26,26,64,26c0,0,37,0,63,-25c0,0,26,-26,26,-65c0,0,0,-37,-25,-64c0,0,-26,-25,-64,-25ZM269,261L249,510l107,22c0,0,64,13,93,65c0,0,29,52,29,152c0,0,0,109,-39,154c0,0,-40,45,-140,45c0,0,-83,0,-145,-36L128,789H79V979c0,0,118,32,220,32c0,0,316,0,316,-253c0,0,0,-121,-60,-195c0,0,-60,-74,-175,-98l-42,-9L328,261Z" 
id="f2_z"
transform="scale(0.001,-0.001)" />

<path d="M529,65c0,0,183,0,270,108c0,0,87,108,87,334c0,0,0,210,-113,318c0,0,-113,108,-322,108H316V71c0,0,90,-6,213,-6Zm0,-67L172,0H44V40L172,60V941L44,960v40H498c0,0,277,0,411,-123c0,0,133,-124,133,-371c0,0,0,-251,-129,-380C913,126,785,-2,529,-2Z" 
id="f2_14"
transform="scale(0.001,-0.001)" />

<path d="M289,-14c0,0,-179,0,-179,205V649L20,668v33H233V200c0,0,0,-128,120,-128c0,0,92,0,173,23V649L420,668v33H649V52L738,33V0H533l-6,57C527,57,474,28,405,7c0,0,-69,-21,-116,-21Z" 
id="f2_2h"
transform="scale(0.001,-0.001)" />

<path d="M148,-329c0,0,-58,0,-114,13v151H69l24,-71c0,0,23,-17,64,-17c0,0,39,0,72,22c0,0,33,23,60,67c0,0,27,44,68,157L90,649L19,668v33H344V668L233,648L423,158L606,649L497,668v33H758V668L685,652L411,-43c0,0,-48,-124,-84,-177c0,0,-36,-54,-79,-82c0,0,-44,-27,-100,-27Z" 
id="f2_2l"
transform="scale(0.001,-0.001)" />

<path d="M13,0V34L95,46L325,350L122,649L40,668v33H357V668L264,648L399,446L554,649l-96,19v33H710V668L630,652L433,397L663,50L745,34V0H427V34l94,17L359,299L169,50L266,34V0Z" 
id="f2_2k"
transform="scale(0.001,-0.001)" />

<path d="M191,-20c0,0,-39,0,-65,25c0,0,-25,27,-25,64c0,0,0,38,26,64c0,0,26,26,64,26c0,0,38,0,64,-26c0,0,26,-26,26,-64c0,0,0,-37,-25,-64c0,0,-26,-25,-65,-25Z" 
id="f2_i"
transform="scale(0.001,-0.001)" />

<path d="M410,-14c0,0,-86,0,-175,14C235,0,145,14,81,38V307h66L181,146c0,0,31,-37,94,-62c0,0,64,-24,132,-24c0,0,214,0,214,177c0,0,0,55,-41,93c0,0,-41,38,-128,68c0,0,-128,42,-185,68c0,0,-56,27,-95,63c0,0,-38,36,-62,87c0,0,-23,51,-23,125c0,0,0,132,90,201c0,0,90,69,263,69c0,0,125,0,278,-32V741H651L618,878c0,0,-76,56,-178,56c0,0,-92,0,-141,-34c0,0,-49,-34,-49,-104c0,0,0,-50,41,-86c0,0,41,-35,128,-63c0,0,171,-56,235,-97c0,0,64,-41,97,-103c0,0,34,-61,34,-143c0,0,0,-318,-375,-318Z" 
id="f4_1j"
transform="scale(0.001,-0.001)" />

<path d="M379,60c0,0,59,0,84,64c0,0,24,65,24,231c0,0,0,164,-24,227c0,0,-24,63,-84,63c0,0,-57,0,-80,-60c0,0,-22,-61,-22,-230c0,0,0,-173,23,-234c0,0,22,-61,79,-61Zm-2,-74c0,0,-161,0,-240,91c0,0,-79,91,-79,277c0,0,0,186,80,276c0,0,81,90,245,90c0,0,167,0,245,-93c0,0,78,-93,78,-273c0,0,0,-188,-81,-278c0,0,-81,-90,-248,-90Z" 
id="f4_2b"
transform="scale(0.001,-0.001)" />

<path d="M30,0V49l76,18V992l-72,18v50H322V67L398,49V0Z" 
id="f4_28"
transform="scale(0.001,-0.001)" />

<path d="M287,-18c0,0,-194,0,-194,206V634L23,652v49H309V217c0,0,0,-63,26,-98c0,0,27,-35,76,-35c0,0,57,0,113,25V634l-64,18v49H740V67L809,49V0H536L526,61L475,35c0,0,-104,-53,-188,-53Z" 
id="f4_2h"
transform="scale(0.001,-0.001)" />

<path d="M327,-14c0,0,-101,0,-156,45c0,0,-55,45,-55,131V624H25v48l108,29l87,159H332V701H480V624H332V176c0,0,0,-49,20,-73c0,0,20,-25,53,-25c0,0,40,0,97,12V26c0,0,-22,-15,-76,-27c0,0,-55,-13,-99,-13Z" 
id="f4_2g"
transform="scale(0.001,-0.001)" />

<path d="M34,0V49l76,18V634L38,652v49H325V67L402,49V0ZM217,831c0,0,-48,0,-81,33c0,0,-34,33,-34,82c0,0,0,48,34,81c0,0,34,33,81,33c0,0,48,0,81,-33c0,0,33,-33,33,-81c0,0,0,-47,-33,-81c0,0,-32,-34,-81,-34Z" 
id="f4_25"
transform="scale(0.001,-0.001)" />

<path d="M41,0V49l69,18V634L41,652v49H313l11,-61l50,26c0,0,105,54,188,54c0,0,194,0,194,-207V67L827,49V0H478V49l63,18V484c0,0,0,63,-27,98c0,0,-26,35,-75,35c0,0,-57,0,-114,-25V67L389,49V0Z" 
id="f4_2a"
transform="scale(0.001,-0.001)" />

<path d="M248,-20c0,0,-52,0,-87,34c0,0,-36,36,-36,88c0,0,0,52,36,88c0,0,35,36,87,36c0,0,52,0,88,-36c0,0,36,-36,36,-88c0,0,0,-51,-36,-87c0,0,-35,-35,-88,-35Zm0,488c0,0,-52,0,-87,36c0,0,-36,36,-36,88c0,0,0,52,35,88c0,0,35,36,88,36c0,0,53,0,89,-36c0,0,35,-37,35,-88c0,0,0,-51,-36,-87c0,0,-35,-37,-88,-37Z" 
id="f4_u"
transform="scale(0.001,-0.001)" />

<path d="M359,-270c0,0,124,0,192,46c0,0,67,47,67,129c0,0,0,43,-26,67c0,0,-26,24,-79,24H242c0,0,-32,-27,-51,-69c0,0,-20,-41,-20,-77c0,0,0,-64,46,-92c0,0,46,-28,142,-28Zm11,561c0,0,81,0,115,47c0,0,34,47,34,141c0,0,0,100,-35,142c0,0,-35,42,-113,42c0,0,-78,0,-114,-43c0,0,-37,-42,-37,-141c0,0,0,-98,36,-143c0,0,36,-45,114,-45ZM359,-329c0,0,-143,0,-218,44c0,0,-75,43,-75,125c0,0,0,39,27,78c0,0,26,38,98,89c0,0,-43,14,-72,48c0,0,-29,35,-29,74L208,262c0,0,-118,55,-118,217c0,0,0,115,73,178c0,0,73,63,211,63c0,0,28,0,71,-6c0,0,44,-6,67,-13l165,83l26,-32L599,644c0,0,50,-56,50,-165c0,0,0,-120,-72,-182c0,0,-73,-62,-208,-62c0,0,-62,0,-114,11L208,148c0,0,2,-13,29,-24c0,0,27,-12,67,-12H512c0,0,113,0,168,-49c0,0,55,-49,55,-134c0,0,0,-79,-44,-137c0,0,-43,-58,-128,-90c0,0,-84,-31,-204,-31Z" 
id="f2_23"
transform="scale(0.001,-0.001)" />

<path d="M431,0V33L535,52V499c0,0,0,62,-32,96c0,0,-32,33,-95,33c0,0,-66,0,-163,-22V52L350,33V0H32V33l89,19V649L32,668v33H237l6,-57c0,0,56,32,119,54c0,0,62,22,110,22c0,0,52,0,95,-20c0,0,44,-19,66,-62c0,0,57,32,134,57c0,0,77,25,128,25c0,0,179,0,179,-207V52l90,-19V0H846V33L950,52V499c0,0,0,129,-119,129c0,0,-19,0,-45,-3c0,0,-26,-3,-52,-7c0,0,-25,-4,-49,-8c0,0,-23,-5,-39,-8c0,0,13,-41,13,-89V52L764,33V0Z" 
id="f2_29"
transform="scale(0.001,-0.001)" />

<path d="M394,460c0,0,126,0,186,57c0,0,60,57,60,187c0,0,0,123,-57,176c0,0,-58,53,-194,53H316V460ZM54,0V40L172,60V941L44,960v40H421c0,0,368,0,368,-295c0,0,0,-153,-93,-233c0,0,-93,-80,-267,-80H316V60L475,40V0Z" 
id="f2_1g"
transform="scale(0.001,-0.001)" />

<path d="M327,-14L84,649L1,668v33H335V668L219,648L385,174L554,632h63L786,171L944,649L830,668v33h267V668l-78,-16L784,-14H726L553,448L382,-14Z" 
id="f2_2j"
transform="scale(0.001,-0.001)" />

<path d="M477,0V33l64,19L348,354L257,254V52L331,33V0H44V33l89,19v956L29,1026v34H257V338L544,647l-73,20v34H718V667L631,650L431,446L688,50L764,33V0Z" 
id="f2_27"
transform="scale(0.001,-0.001)" />

<path d="M557,-14c0,0,-199,0,-298,89c0,0,-99,90,-99,255V941L32,960v40H432V960L304,941V341c0,0,0,-273,264,-273c0,0,144,0,220,68c0,0,77,68,77,202V941L730,960v40h341V960L943,941V344c0,0,0,-180,-99,-269c0,0,-99,-89,-287,-89Z" 
id="f2_1l"
transform="scale(0.001,-0.001)" />

<path d="M113,-203V1060H454v-35L232,994V-138l222,-30v-35Z" 
id="f2_1r"
transform="scale(0.001,-0.001)" />

<path d="M868,0L251,900V60L385,40V0H44V40L172,60V941L44,960v40H347L862,259V941L727,960v40h341V960L940,941V0Z" 
id="f2_1e"
transform="scale(0.001,-0.001)" />

<path d="M211,-20c0,0,-39,0,-64,25c0,0,-26,27,-26,64c0,0,0,38,26,64c0,0,26,26,64,26c0,0,37,0,64,-25c0,0,26,-26,26,-65c0,0,0,-37,-26,-64c0,0,-26,-25,-64,-25Zm0,556c0,0,-38,0,-64,26c0,0,-26,26,-26,64c0,0,0,37,26,64c0,0,25,27,64,27c0,0,38,0,64,-27c0,0,26,-27,26,-64c0,0,0,-38,-26,-64c0,0,-27,-26,-64,-26Z" 
id="f2_u"
transform="scale(0.001,-0.001)" />

<path d="M681,416L504,902L333,416ZM669,0V40L803,60L704,348H310L210,60L344,40V0H15V40L128,60l341,949H611L965,60L1092,40V0Z" 
id="f2_11"
transform="scale(0.001,-0.001)" />

<path d="M376,50c0,0,103,0,149,80c0,0,46,81,46,240c0,0,0,137,-47,204c0,0,-48,67,-148,67c0,0,-44,0,-87,-7c0,0,-44,-8,-63,-17V62c0,0,63,-12,150,-12Zm3,-64c0,0,-64,0,-141,14c0,0,-78,14,-136,37v971L0,1026v34H226V809c0,0,0,-40,-4,-148c0,0,74,59,188,59c0,0,143,0,219,-87c0,0,77,-87,77,-263c0,0,0,-189,-84,-287c0,0,-84,-97,-243,-97Z" 
id="f2_1y"
transform="scale(0.001,-0.001)" />

<path d="M55,-203v35l222,30V994L55,1025v35H395V-203Z" 
id="f2_1t"
transform="scale(0.001,-0.001)" />

<path d="M452,474c0,0,104,0,151,52c0,0,47,53,47,178c0,0,0,119,-45,167c0,0,-44,47,-156,47H390V474ZM36,0V54L154,74V926L26,945v55H467c0,0,213,0,318,-71c0,0,105,-71,105,-224c0,0,0,-313,-366,-313H390V74L557,54V0Z" 
id="f4_1g"
transform="scale(0.001,-0.001)" />

<path d="M41,0V49l91,18V634L41,652v49H336l8,-145c0,0,80,89,144,128c0,0,64,40,117,40h40V468H604l-45,94c0,0,-47,0,-106,-21c0,0,-60,-20,-105,-48V67L460,49V0Z" 
id="f4_2e"
transform="scale(0.001,-0.001)" />

<path d="M425,-14c0,0,-187,0,-280,90c0,0,-93,90,-93,276c0,0,0,115,42,198c0,0,43,82,121,126c0,0,78,44,182,44c0,0,104,0,227,-26V486H571L539,609c0,0,-25,19,-50,26c0,0,-24,7,-65,7c0,0,-44,0,-79,-35c0,0,-36,-35,-56,-98c0,0,-20,-64,-20,-153c0,0,0,-150,47,-214c0,0,47,-64,148,-64c0,0,103,0,176,21V42C640,42,606,15,547,0c0,0,-59,-14,-122,-14Z" 
id="f4_1z"
transform="scale(0.001,-0.001)" />

<path d="M438,65c0,0,131,0,131,293c0,0,0,279,-130,279c0,0,-69,0,-127,-29V80c0,0,60,-15,126,-15ZM20,-325v50l76,18V634L19,652v49H304l1,-36c0,0,80,55,194,55c0,0,146,0,218,-86c0,0,71,-86,71,-271c0,0,0,-183,-83,-280c0,0,-83,-97,-238,-97c0,0,-79,0,-160,19c0,0,5,-48,5,-109V-257l103,-18v-50Z" 
id="f4_2c"
transform="scale(0.001,-0.001)" />

<path d="M434,423c0,0,0,101,-7,142c0,0,-6,40,-22,60c0,0,-16,19,-45,19c0,0,-44,0,-66,-48c0,0,-22,-49,-22,-173ZM389,-14c0,0,-172,0,-254,89c0,0,-83,90,-83,279c0,0,0,184,79,274c0,0,79,91,238,91c0,0,142,0,206,-76c0,0,64,-76,64,-237V345H271V333c0,0,0,-111,18,-158c0,0,18,-47,58,-72c0,0,40,-25,110,-25c0,0,66,0,166,22V42C623,42,582,18,517,1c0,0,-66,-15,-128,-15Z" 
id="f4_21"
transform="scale(0.001,-0.001)" />

<path d="M492,65c0,0,156,0,253,89L389,485c0,0,-50,-34,-73,-86c0,0,-22,-51,-22,-125c0,0,0,-107,53,-158c0,0,53,-51,145,-51Zm1,565c0,0,57,30,78,71c0,0,21,41,21,111c0,0,0,130,-84,130c0,0,-51,0,-73,-33c0,0,-22,-32,-22,-97c0,0,0,-47,16,-89c0,0,16,-41,64,-93ZM492,-14c0,0,-205,0,-304,69C188,55,88,126,88,266c0,0,0,71,26,125c0,0,26,53,72,91c0,0,46,39,135,74c0,0,-94,108,-94,240c0,0,0,104,73,162c0,0,73,58,208,58c0,0,131,0,200,-55c0,0,70,-55,70,-161c0,0,0,-56,-22,-98c0,0,-23,-42,-65,-73c0,0,-42,-32,-130,-67L844,306c0,0,39,98,44,229l-82,19v48h355V554l-82,-19l-20,-68c0,0,-45,-154,-112,-253L1112,66l86,-19V0H912L823,82c0,0,-131,-96,-331,-96Z" 
id="f4_a"
transform="scale(0.001,-0.001)" />

<path d="M305,-14L57,634L4,652v49H351V652L268,632L419,232L581,631h71L814,232L950,634l-82,18v49h227V652l-54,-15L806,-14H715L555,378L395,-14Z" 
id="f4_2j"
transform="scale(0.001,-0.001)" />

<path d="M43,0V49l67,18V992l-72,18v50H325V336L599,635l-75,17v49H791V652L711,636L544,460L785,67L847,50V0H510V50l41,17L411,313L325,253V67L395,49V0Z" 
id="f4_27"
transform="scale(0.001,-0.001)" />

<path d="M360,-256c0,0,108,0,167,35c0,0,59,35,59,98c0,0,0,70,-95,70H254c0,0,-65,-47,-65,-108c0,0,0,-47,46,-71c0,0,45,-24,125,-24Zm9,561c0,0,55,0,79,43c0,0,25,43,25,129c0,0,0,87,-24,127c0,0,-25,41,-80,41c0,0,-52,0,-75,-41c0,0,-24,-40,-24,-127c0,0,0,-86,23,-129c0,0,23,-43,76,-43Zm-9,-641c0,0,-153,0,-236,43c0,0,-84,44,-84,120c0,0,0,33,28,65c0,0,27,31,105,76c0,0,-44,17,-75,59c0,0,-31,43,-31,90L192,258c0,0,-133,56,-133,219c0,0,0,116,81,180c0,0,82,63,233,63c0,0,32,0,82,-6c0,0,51,-6,74,-13l168,83l26,-32L638,631c0,0,46,-57,46,-154c0,0,0,-119,-80,-182c0,0,-80,-64,-234,-64c0,0,-59,0,-114,9L238,183c0,0,1,-22,28,-41c0,0,26,-19,64,-19H493c0,0,256,0,256,-196c0,0,0,-81,-44,-139c0,0,-45,-59,-131,-92c0,0,-86,-32,-214,-32Z" 
id="f4_23"
transform="scale(0.001,-0.001)" />

<path d="M577,-14c0,0,-243,0,-379,132C198,118,63,250,63,488c0,0,0,258,130,391c0,0,131,132,387,132c0,0,156,0,335,-38l5,-218H871L848,884c0,0,-52,32,-121,50c0,0,-69,17,-141,17c0,0,-191,0,-279,-112c0,0,-88,-113,-88,-349c0,0,0,-217,92,-332c0,0,92,-115,268,-115c0,0,85,0,160,20c0,0,76,21,120,55l27,149h49L930,32c0,0,-164,-46,-353,-46Z" 
id="f2_13"
transform="scale(0.001,-0.001)" />


</defs>
</svg>