<?xml version="1.0" encoding="UTF-8" standalone="no"?>
<!DOCTYPE svg PUBLIC "-//W3C//DTD SVG 1.1//EN"
"http://www.w3.org/Graphics/SVG/1.1/DTD/svg11.dtd">
<svg viewBox="0 0 909 1286" version="1.1" xmlns="http://www.w3.org/2000/svg" xmlns:xlink="http://www.w3.org/1999/xlink">
<defs>
<clipPath id="c0_41"><path d="M671.2,752.9v-29h28.7v29Z" /></clipPath>
<clipPath id="c1_41"><path d="M293.9,1047.8v-23h11.2v23Z" /></clipPath>
<clipPath id="c2_41"><path d="M627.6,1047.8v-23h11.2v23Z" /></clipPath>
<clipPath id="c3_41"><path d="M524.1,1074.1v-22.8h11.4v22.8Z" /></clipPath>
<clipPath id="c4_41"><path d="M769.8,1125.1v-48.8h25.8v48.8Z" /></clipPath>
<style type="text/css"><![CDATA[
.g0_41{
fill: #D9D9D9;
}
.g1_41{
fill: none;
stroke: #000000;
stroke-width: 0.7638889;
stroke-linecap: butt;
stroke-linejoin: miter;
}
.g2_41{
fill: none;
stroke: #000000;
stroke-width: 0.20070177;
stroke-linecap: square;
stroke-linejoin: round;
}
.g3_41{
}
.g4_41{
fill: none;
stroke: #000000;
stroke-width: 0.9317927;
stroke-linecap: butt;
stroke-linejoin: round;
}
]]></style>
</defs>
<image preserveAspectRatio="none" x="747" y="1196" width="96" height="59" xlink:href="img/1.png" />
<image preserveAspectRatio="none" x="336" y="41" width="259" height="51" xlink:href="img/2.png" />
<image preserveAspectRatio="none" x="342" y="50" width="247" height="27" xlink:href="img/3.png" />
<image preserveAspectRatio="none" x="341" y="45" width="239" height="42" xlink:href="img/4.png" />
<g fill="#FFFFFF" >
<use xlink:href="#f0_j" transform="matrix(11.5,0,0,11.5,355.1,70.1)" />
<use xlink:href="#f0_i" transform="matrix(11.5,0,0,11.5,364.3,70.1)" />
<use xlink:href="#f0_2n" transform="matrix(11.5,0,0,11.5,374.1,70.1)" />
<use xlink:href="#f0_t" transform="matrix(11.5,0,0,11.5,382.6,70.1)" />
<use xlink:href="#f0_oj" transform="matrix(11.5,0,0,11.5,391,70.1)" />
<use xlink:href="#f0_3e" transform="matrix(11.5,0,0,11.5,396.5,70.1)" />
<use xlink:href="#f0_1c" transform="matrix(11.5,0,0,11.5,406.1,70.1)" />
<use xlink:href="#f0_1c" transform="matrix(11.5,0,0,11.5,410.8,70.1)" />
<use xlink:href="#f0_oj" transform="matrix(11.5,0,0,11.5,415.6,70.1)" />
<use xlink:href="#f0_rz" transform="matrix(11.5,0,0,11.5,421.1,70.1)" />
<use xlink:href="#f0_rx" transform="matrix(11.5,0,0,11.5,429.9,70.1)" />
<use xlink:href="#f0_ry" transform="matrix(11.5,0,0,11.5,438.7,70.1)" />
<use xlink:href="#f0_s4" transform="matrix(11.5,0,0,11.5,447.5,70.1)" />
<use xlink:href="#f0_t" transform="matrix(11.5,0,0,11.5,460.4,70.1)" />
<use xlink:href="#f0_3e" transform="matrix(11.5,0,0,11.5,468.8,70.1)" />
<use xlink:href="#f0_5" transform="matrix(11.5,0,0,11.5,478.3,70.1)" />
<use xlink:href="#f0_1x" transform="matrix(11.5,0,0,11.5,489,70.1)" />
<use xlink:href="#f0_1c" transform="matrix(11.5,0,0,11.5,504.4,70.1)" />
<use xlink:href="#f0_1y" transform="matrix(11.5,0,0,11.5,509.1,70.1)" />
<use xlink:href="#f0_5" transform="matrix(11.5,0,0,11.5,520.8,70.1)" />
<use xlink:href="#f0_2t" transform="matrix(11.5,0,0,11.5,531.5,70.1)" />
<use xlink:href="#f0_1c" transform="matrix(11.5,0,0,11.5,540.2,70.1)" />
<use xlink:href="#f0_24" transform="matrix(11.5,0,0,11.5,545,70.1)" />
<use xlink:href="#f0_1y" transform="matrix(11.5,0,0,11.5,556.7,70.1)" />
</g>
<image preserveAspectRatio="none" x="554" y="45" width="36" height="42" xlink:href="img/5.png" />
<g fill="#FFFFFF" >
<use xlink:href="#f1_l" transform="matrix(11,0,0,11,770.3,1227.6)" />
<use xlink:href="#f1_q" transform="matrix(11,0,0,11,779.1,1227.6)" />
<use xlink:href="#f1_j" transform="matrix(11,0,0,11,792.3,1227.6)" />
<use xlink:href="#f1_m" transform="matrix(11,0,0,11,802.9,1227.6)" />
<use xlink:href="#f1_s" transform="matrix(11,0,0,11,811.7,1227.6)" />
</g>
<path fill-rule="evenodd" d="M52.8,1193.5H856.9v-.8H52.8v.8Z" class="g0_41" />
<path d="M37.9,99.4L873,98.5" class="g1_41" />
<g fill="#000000" >
<use xlink:href="#f2_1j" transform="matrix(12,0,0,12,55,262.6)" />
<use xlink:href="#f2_2b" transform="matrix(12,0,0,12,65.3,262.6)" />
<use xlink:href="#f2_28" transform="matrix(12,0,0,12,74.5,262.6)" />
<use xlink:href="#f2_2h" transform="matrix(12,0,0,12,79.2,262.6)" />
<use xlink:href="#f2_2g" transform="matrix(12,0,0,12,89.5,262.6)" />
<use xlink:href="#f2_25" transform="matrix(12,0,0,12,95.7,262.6)" />
<use xlink:href="#f2_2b" transform="matrix(12,0,0,12,100.8,262.6)" />
<use xlink:href="#f2_2a" transform="matrix(12,0,0,12,109.9,262.6)" />
<use xlink:href="#f2_u" transform="matrix(12,0,0,12,120.2,262.6)" />
<use xlink:href="#f3_c" transform="matrix(12,0,0,12,55,286.8)" />
<use xlink:href="#f3_1x" transform="matrix(12,0,0,12,61.3,286.8)" />
<use xlink:href="#f3_d" transform="matrix(12,0,0,12,69.3,286.8)" />
<use xlink:href="#f3_1i" transform="matrix(12,0,0,12,80.3,286.8)" />
<use xlink:href="#f3_1x" transform="matrix(12,0,0,12,92.4,286.8)" />
<use xlink:href="#f3_2l" transform="matrix(12,0,0,12,100.8,286.8)" />
<use xlink:href="#f3_20" transform="matrix(12,0,0,12,114,286.8)" />
<use xlink:href="#f3_25" transform="matrix(12,0,0,12,123.5,286.8)" />
<use xlink:href="#f3_1x" transform="matrix(12,0,0,12,127.9,286.8)" />
<use xlink:href="#f3_23" transform="matrix(12,0,0,12,136,286.8)" />
<use xlink:href="#f3_2e" transform="matrix(12,0,0,12,145.1,286.8)" />
<use xlink:href="#f3_1x" transform="matrix(12,0,0,12,151.3,286.8)" />
<use xlink:href="#f3_29" transform="matrix(12,0,0,12,159.8,286.8)" />
<use xlink:href="#f3_2b" transform="matrix(12,0,0,12,178.1,286.8)" />
<use xlink:href="#f3_22" transform="matrix(12,0,0,12,188,286.8)" />
<use xlink:href="#f3_11" transform="matrix(12,0,0,12,198.6,286.8)" />
<use xlink:href="#f3_2f" transform="matrix(12,0,0,12,211.4,286.8)" />
<use xlink:href="#f3_2g" transform="matrix(12,0,0,12,218.4,286.8)" />
<use xlink:href="#f3_2e" transform="matrix(12,0,0,12,223.8,286.8)" />
<use xlink:href="#f3_2b" transform="matrix(12,0,0,12,230.1,286.8)" />
<use xlink:href="#f3_2a" transform="matrix(12,0,0,12,239.6,286.8)" />
<use xlink:href="#f3_2b" transform="matrix(12,0,0,12,248.4,286.8)" />
<use xlink:href="#f3_29" transform="matrix(12,0,0,12,257.9,286.8)" />
<use xlink:href="#f3_25" transform="matrix(12,0,0,12,271.8,286.8)" />
<use xlink:href="#f3_1z" transform="matrix(12,0,0,12,276.2,286.8)" />
<use xlink:href="#f3_1x" transform="matrix(12,0,0,12,284.6,286.8)" />
<use xlink:href="#f3_28" transform="matrix(12,0,0,12,293.1,286.8)" />
<use xlink:href="#f3_2g" transform="matrix(12,0,0,12,302.2,286.8)" />
<use xlink:href="#f3_21" transform="matrix(12,0,0,12,307.7,286.8)" />
<use xlink:href="#f3_28" transform="matrix(12,0,0,12,316.1,286.8)" />
<use xlink:href="#f3_21" transform="matrix(12,0,0,12,320.5,286.8)" />
<use xlink:href="#f3_2f" transform="matrix(12,0,0,12,328.9,286.8)" />
<use xlink:href="#f3_1z" transform="matrix(12,0,0,12,335.9,286.8)" />
<use xlink:href="#f3_2b" transform="matrix(12,0,0,12,344,286.8)" />
<use xlink:href="#f3_2c" transform="matrix(12,0,0,12,353.5,286.8)" />
<use xlink:href="#f3_21" transform="matrix(12,0,0,12,362.6,286.8)" />
<use xlink:href="#f3_u" transform="matrix(12,0,0,12,375.4,286.8)" />
<use xlink:href="#f3_c" transform="matrix(12,0,0,12,55,646.3)" />
<use xlink:href="#f3_1y" transform="matrix(12,0,0,12,61.3,646.3)" />
<use xlink:href="#f3_d" transform="matrix(12,0,0,12,70.1,646.3)" />
<use xlink:href="#f3_1n" transform="matrix(12,0,0,12,81,646.3)" />
<use xlink:href="#f3_21" transform="matrix(12,0,0,12,97.9,646.3)" />
<use xlink:href="#f3_2h" transform="matrix(12,0,0,12,110.7,646.3)" />
<use xlink:href="#f3_2f" transform="matrix(12,0,0,12,119.9,646.3)" />
<use xlink:href="#f3_21" transform="matrix(12,0,0,12,126.8,646.3)" />
<use xlink:href="#f3_1c" transform="matrix(12,0,0,12,139.6,646.3)" />
<use xlink:href="#f3_l" transform="matrix(12,0,0,12,150.6,646.3)" />
<use xlink:href="#f3_1x" transform="matrix(12,0,0,12,164.6,646.3)" />
<use xlink:href="#f3_2f" transform="matrix(12,0,0,12,172.6,646.3)" />
<use xlink:href="#f3_1x" transform="matrix(12,0,0,12,184.3,646.3)" />
<use xlink:href="#f3_2a" transform="matrix(12,0,0,12,192.8,646.3)" />
<use xlink:href="#f3_2b" transform="matrix(12,0,0,12,206.3,646.3)" />
<use xlink:href="#f3_1y" transform="matrix(12,0,0,12,215.8,646.3)" />
<use xlink:href="#f3_26" transform="matrix(12,0,0,12,225,646.3)" />
<use xlink:href="#f3_21" transform="matrix(12,0,0,12,229.8,646.3)" />
<use xlink:href="#f3_1z" transform="matrix(12,0,0,12,237.8,646.3)" />
<use xlink:href="#f3_2g" transform="matrix(12,0,0,12,245.9,646.3)" />
<use xlink:href="#f3_25" transform="matrix(12,0,0,12,251.7,646.3)" />
<use xlink:href="#f3_2i" transform="matrix(12,0,0,12,256.5,646.3)" />
<use xlink:href="#f3_21" transform="matrix(12,0,0,12,265.3,646.3)" />
<use xlink:href="#f3_28" transform="matrix(12,0,0,12,278.5,646.3)" />
<use xlink:href="#f3_21" transform="matrix(12,0,0,12,282.9,646.3)" />
<use xlink:href="#f3_2a" transform="matrix(12,0,0,12,291.3,646.3)" />
<use xlink:href="#f3_2f" transform="matrix(12,0,0,12,300.5,646.3)" />
<use xlink:href="#f3_1y" transform="matrix(12,0,0,12,312.2,646.3)" />
<use xlink:href="#f3_21" transform="matrix(12,0,0,12,321.3,646.3)" />
<use xlink:href="#f3_1z" transform="matrix(12,0,0,12,329.4,646.3)" />
<use xlink:href="#f3_1x" transform="matrix(12,0,0,12,337.5,646.3)" />
<use xlink:href="#f3_2h" transform="matrix(12,0,0,12,345.5,646.3)" />
<use xlink:href="#f3_2f" transform="matrix(12,0,0,12,354.7,646.3)" />
<use xlink:href="#f3_21" transform="matrix(12,0,0,12,362,646.3)" />
<use xlink:href="#f3_25" transform="matrix(12,0,0,12,375.2,646.3)" />
<use xlink:href="#f3_2g" transform="matrix(12,0,0,12,379.6,646.3)" />
<use xlink:href="#f3_24" transform="matrix(12,0,0,12,389.8,646.3)" />
<use xlink:href="#f3_1x" transform="matrix(12,0,0,12,398.6,646.3)" />
<use xlink:href="#f3_2f" transform="matrix(12,0,0,12,406.7,646.3)" />
<use xlink:href="#f3_24" transform="matrix(12,0,0,12,418.8,646.3)" />
<use xlink:href="#f3_25" transform="matrix(12,0,0,12,428,646.3)" />
<use xlink:href="#f3_23" transform="matrix(12,0,0,12,432.7,646.3)" />
<use xlink:href="#f3_24" transform="matrix(12,0,0,12,442.2,646.3)" />
<use xlink:href="#f3_21" transform="matrix(12,0,0,12,451,646.3)" />
<use xlink:href="#f3_2e" transform="matrix(12,0,0,12,459.1,646.3)" />
<use xlink:href="#f3_1x" transform="matrix(12,0,0,12,470.1,646.3)" />
<use xlink:href="#f3_2c" transform="matrix(12,0,0,12,478.1,646.3)" />
<use xlink:href="#f3_21" transform="matrix(12,0,0,12,487.3,646.3)" />
<use xlink:href="#f3_2e" transform="matrix(12,0,0,12,495.4,646.3)" />
<use xlink:href="#f3_2g" transform="matrix(12,0,0,12,501.6,646.3)" />
<use xlink:href="#f3_2h" transform="matrix(12,0,0,12,507.1,646.3)" />
<use xlink:href="#f3_2e" transform="matrix(12,0,0,12,516.2,646.3)" />
<use xlink:href="#f3_21" transform="matrix(12,0,0,12,522.4,646.3)" />
<use xlink:href="#f3_i" transform="matrix(12,0,0,12,530.1,646.3)" />
<use xlink:href="#f3_1k" transform="matrix(12,0,0,12,539.3,646.3)" />
<use xlink:href="#f3_24" transform="matrix(12,0,0,12,550.6,646.3)" />
<use xlink:href="#f3_1x" transform="matrix(12,0,0,12,559.4,646.3)" />
<use xlink:href="#f3_2g" transform="matrix(12,0,0,12,567.5,646.3)" />
<use xlink:href="#f3_25" transform="matrix(12,0,0,12,577.7,646.3)" />
<use xlink:href="#f3_2f" transform="matrix(12,0,0,12,582.1,646.3)" />
<use xlink:href="#f3_s" transform="matrix(12,0,0,12,593.9,646.3)" />
<use xlink:href="#f3_1z" transform="matrix(12,0,0,12,607.8,646.3)" />
<use xlink:href="#f3_29" transform="matrix(12,0,0,12,616.2,646.3)" />
<use xlink:href="#f3_i" transform="matrix(12,0,0,12,629.8,646.3)" />
<use xlink:href="#f3_1j" transform="matrix(12,0,0,12,639.2,646.3)" />
<use xlink:href="#f3_2b" transform="matrix(12,0,0,12,649.5,646.3)" />
<use xlink:href="#f3_2g" transform="matrix(12,0,0,12,663.4,646.3)" />
<use xlink:href="#f3_24" transform="matrix(12,0,0,12,668.9,646.3)" />
<use xlink:href="#f3_1x" transform="matrix(12,0,0,12,677.7,646.3)" />
<use xlink:href="#f3_2g" transform="matrix(12,0,0,12,685.8,646.3)" />
<use xlink:href="#f3_25" transform="matrix(12,0,0,12,695.6,646.3)" />
<use xlink:href="#f3_2g" transform="matrix(12,0,0,12,700,646.3)" />
<use xlink:href="#f3_24" transform="matrix(12,0,0,12,710.3,646.3)" />
<use xlink:href="#f3_1x" transform="matrix(12,0,0,12,719.1,646.3)" />
<use xlink:href="#f3_2f" transform="matrix(12,0,0,12,727.1,646.3)" />
<use xlink:href="#f3_24" transform="matrix(12,0,0,12,739.2,646.3)" />
<use xlink:href="#f3_25" transform="matrix(12,0,0,12,748.4,646.3)" />
<use xlink:href="#f3_23" transform="matrix(12,0,0,12,753.2,646.3)" />
<use xlink:href="#f3_24" transform="matrix(12,0,0,12,762.7,646.3)" />
<use xlink:href="#f3_2e" transform="matrix(12,0,0,12,776.2,646.3)" />
<use xlink:href="#f3_21" transform="matrix(12,0,0,12,782.4,646.3)" />
<use xlink:href="#f3_2f" transform="matrix(12,0,0,12,790.5,646.3)" />
<use xlink:href="#f3_2b" transform="matrix(12,0,0,12,797.5,646.3)" />
<use xlink:href="#f3_28" transform="matrix(12,0,0,12,807,646.3)" />
<use xlink:href="#f3_2i" transform="matrix(12,0,0,12,811.7,646.3)" />
<use xlink:href="#f3_25" transform="matrix(12,0,0,12,820.9,646.3)" />
<use xlink:href="#f3_2a" transform="matrix(12,0,0,12,825.7,646.3)" />
<use xlink:href="#f3_23" transform="matrix(12,0,0,12,834.8,646.3)" />
<use xlink:href="#f3_2c" transform="matrix(12,0,0,12,55,670.5)" />
<use xlink:href="#f3_2b" transform="matrix(12,0,0,12,64.2,670.5)" />
<use xlink:href="#f3_2j" transform="matrix(12,0,0,12,73.7,670.5)" />
<use xlink:href="#f3_21" transform="matrix(12,0,0,12,87,670.5)" />
<use xlink:href="#f3_2e" transform="matrix(12,0,0,12,95,670.5)" />
<use xlink:href="#f3_1x" transform="matrix(12,0,0,12,105.6,670.5)" />
<use xlink:href="#f3_2a" transform="matrix(12,0,0,12,113.7,670.5)" />
<use xlink:href="#f3_20" transform="matrix(12,0,0,12,122.5,670.5)" />
<use xlink:href="#f3_28" transform="matrix(12,0,0,12,136.7,670.5)" />
<use xlink:href="#f3_21" transform="matrix(12,0,0,12,141.1,670.5)" />
<use xlink:href="#f3_2a" transform="matrix(12,0,0,12,149.6,670.5)" />
<use xlink:href="#f3_2f" transform="matrix(12,0,0,12,158.7,670.5)" />
<use xlink:href="#f3_1c" transform="matrix(12,0,0,12,170.4,670.5)" />
<use xlink:href="#f3_n" transform="matrix(12,0,0,12,181.4,670.5)" />
<use xlink:href="#f3_2h" transform="matrix(12,0,0,12,195.4,670.5)" />
<use xlink:href="#f3_2f" transform="matrix(12,0,0,12,204.5,670.5)" />
<use xlink:href="#f3_21" transform="matrix(12,0,0,12,211.5,670.5)" />
<use xlink:href="#f3_1x" transform="matrix(12,0,0,12,224.3,670.5)" />
<use xlink:href="#f3_2f" transform="matrix(12,0,0,12,232.4,670.5)" />
<use xlink:href="#f3_1x" transform="matrix(12,0,0,12,244.1,670.5)" />
<use xlink:href="#f3_2a" transform="matrix(12,0,0,12,252.5,670.5)" />
<use xlink:href="#f3_21" transform="matrix(12,0,0,12,266.1,670.5)" />
<use xlink:href="#f3_2l" transform="matrix(12,0,0,12,274.5,670.5)" />
<use xlink:href="#f3_21" transform="matrix(12,0,0,12,283.3,670.5)" />
<use xlink:href="#f3_2c" transform="matrix(12,0,0,12,296.1,670.5)" />
<use xlink:href="#f3_25" transform="matrix(12,0,0,12,305.6,670.5)" />
<use xlink:href="#f3_21" transform="matrix(12,0,0,12,310,670.5)" />
<use xlink:href="#f3_1z" transform="matrix(12,0,0,12,318.1,670.5)" />
<use xlink:href="#f3_21" transform="matrix(12,0,0,12,326.1,670.5)" />
<use xlink:href="#f3_1y" transform="matrix(12,0,0,12,339.3,670.5)" />
<use xlink:href="#f3_21" transform="matrix(12,0,0,12,348.1,670.5)" />
<use xlink:href="#f3_1z" transform="matrix(12,0,0,12,356.2,670.5)" />
<use xlink:href="#f3_1x" transform="matrix(12,0,0,12,364.6,670.5)" />
<use xlink:href="#f3_2h" transform="matrix(12,0,0,12,372.7,670.5)" />
<use xlink:href="#f3_2f" transform="matrix(12,0,0,12,381.8,670.5)" />
<use xlink:href="#f3_21" transform="matrix(12,0,0,12,388.8,670.5)" />
<use xlink:href="#f3_25" transform="matrix(12,0,0,12,402,670.5)" />
<use xlink:href="#f3_2g" transform="matrix(12,0,0,12,406.4,670.5)" />
<use xlink:href="#f3_24" transform="matrix(12,0,0,12,416.6,670.5)" />
<use xlink:href="#f3_1x" transform="matrix(12,0,0,12,425.8,670.5)" />
<use xlink:href="#f3_2f" transform="matrix(12,0,0,12,433.8,670.5)" />
<use xlink:href="#f3_24" transform="matrix(12,0,0,12,445.6,670.5)" />
<use xlink:href="#f3_25" transform="matrix(12,0,0,12,454.7,670.5)" />
<use xlink:href="#f3_23" transform="matrix(12,0,0,12,459.5,670.5)" />
<use xlink:href="#f3_24" transform="matrix(12,0,0,12,469,670.5)" />
<use xlink:href="#f3_2c" transform="matrix(12,0,0,12,482.6,670.5)" />
<use xlink:href="#f3_2b" transform="matrix(12,0,0,12,491.7,670.5)" />
<use xlink:href="#f3_2j" transform="matrix(12,0,0,12,501.2,670.5)" />
<use xlink:href="#f3_21" transform="matrix(12,0,0,12,514.5,670.5)" />
<use xlink:href="#f3_2e" transform="matrix(12,0,0,12,522.5,670.5)" />
<use xlink:href="#f3_i" transform="matrix(12,0,0,12,528.7,670.5)" />
<use xlink:href="#f3_1j" transform="matrix(12,0,0,12,537.9,670.5)" />
<use xlink:href="#f3_2b" transform="matrix(12,0,0,12,547.8,670.5)" />
<use xlink:href="#f3_2g" transform="matrix(12,0,0,12,561.7,670.5)" />
<use xlink:href="#f3_24" transform="matrix(12,0,0,12,567.8,670.5)" />
<use xlink:href="#f3_1x" transform="matrix(12,0,0,12,576.6,670.5)" />
<use xlink:href="#f3_2g" transform="matrix(12,0,0,12,584.7,670.5)" />
<use xlink:href="#f3_29" transform="matrix(12,0,0,12,594.6,670.5)" />
<use xlink:href="#f3_1x" transform="matrix(12,0,0,12,608.1,670.5)" />
<use xlink:href="#f3_23" transform="matrix(12,0,0,12,616.2,670.5)" />
<use xlink:href="#f3_2a" transform="matrix(12,0,0,12,625.7,670.5)" />
<use xlink:href="#f3_25" transform="matrix(12,0,0,12,634.9,670.5)" />
<use xlink:href="#f3_22" transform="matrix(12,0,0,12,640,670.5)" />
<use xlink:href="#f3_25" transform="matrix(12,0,0,12,646.2,670.5)" />
<use xlink:href="#f3_1z" transform="matrix(12,0,0,12,651,670.5)" />
<use xlink:href="#f3_1x" transform="matrix(12,0,0,12,659.1,670.5)" />
<use xlink:href="#f3_2g" transform="matrix(12,0,0,12,667.1,670.5)" />
<use xlink:href="#f3_25" transform="matrix(12,0,0,12,673,670.5)" />
<use xlink:href="#f3_2b" transform="matrix(12,0,0,12,677.4,670.5)" />
<use xlink:href="#f3_2a" transform="matrix(12,0,0,12,686.9,670.5)" />
<use xlink:href="#f3_25" transform="matrix(12,0,0,12,700.8,670.5)" />
<use xlink:href="#f3_2f" transform="matrix(12,0,0,12,705.6,670.5)" />
<use xlink:href="#f3_29" transform="matrix(12,0,0,12,717.7,670.5)" />
<use xlink:href="#f3_2b" transform="matrix(12,0,0,12,731.2,670.5)" />
<use xlink:href="#f3_2e" transform="matrix(12,0,0,12,740.7,670.5)" />
<use xlink:href="#f3_21" transform="matrix(12,0,0,12,746.9,670.5)" />
<use xlink:href="#f3_i" transform="matrix(12,0,0,12,755,670.5)" />
<use xlink:href="#f2_m" transform="matrix(12,0,0,12,55,717.8)" />
<use xlink:href="#f2_l" transform="matrix(12,0,0,12,64.2,717.8)" />
<use xlink:href="#f3_c" transform="matrix(12,0,0,12,78.1,717.8)" />
<use xlink:href="#f3_1x" transform="matrix(12,0,0,12,84.4,717.8)" />
<use xlink:href="#f3_d" transform="matrix(12,0,0,12,92.4,717.8)" />
<use xlink:href="#f3_1j" transform="matrix(12,0,0,12,103,717.8)" />
<use xlink:href="#f3_2g" transform="matrix(12,0,0,12,112.9,717.8)" />
<use xlink:href="#f3_1x" transform="matrix(12,0,0,12,118.4,717.8)" />
<use xlink:href="#f3_2g" transform="matrix(12,0,0,12,126.1,717.8)" />
<use xlink:href="#f3_21" transform="matrix(12,0,0,12,131.6,717.8)" />
<use xlink:href="#f3_12" transform="matrix(12,0,0,12,144.4,717.8)" />
<use xlink:href="#f3_25" transform="matrix(12,0,0,12,156.5,717.8)" />
<use xlink:href="#f3_2b" transform="matrix(12,0,0,12,160.9,717.8)" />
<use xlink:href="#f3_2g" transform="matrix(12,0,0,12,170.4,717.8)" />
<use xlink:href="#f4_4y" transform="matrix(12,0,0,12,180.8,717.8)" />
<use xlink:href="#f3_1j" transform="matrix(12,0,0,12,194.4,717.8)" />
<use xlink:href="#f3_1x" transform="matrix(12,0,0,12,204.7,717.8)" />
<use xlink:href="#f3_2i" transform="matrix(12,0,0,12,212.7,717.8)" />
<use xlink:href="#f3_1x" transform="matrix(12,0,0,12,221.5,717.8)" />
<use xlink:href="#f3_2e" transform="matrix(12,0,0,12,229.6,717.8)" />
<use xlink:href="#f3_2g" transform="matrix(12,0,0,12,235.8,717.8)" />
<use xlink:href="#f3_28" transform="matrix(12,0,0,12,245.7,717.8)" />
<use xlink:href="#f3_1x" transform="matrix(12,0,0,12,250.1,717.8)" />
<use xlink:href="#f3_2j" transform="matrix(12,0,0,12,258.2,717.8)" />
<use xlink:href="#f3_1x" transform="matrix(12,0,0,12,276.1,717.8)" />
<use xlink:href="#f3_2a" transform="matrix(12,0,0,12,284.5,717.8)" />
<use xlink:href="#f3_20" transform="matrix(12,0,0,12,293.3,717.8)" />
<use xlink:href="#f3_21" transform="matrix(12,0,0,12,307.2,717.8)" />
<use xlink:href="#f3_2k" transform="matrix(12,0,0,12,315.6,717.8)" />
<use xlink:href="#f3_2c" transform="matrix(12,0,0,12,324.4,717.8)" />
<use xlink:href="#f3_2e" transform="matrix(12,0,0,12,333.6,717.8)" />
<use xlink:href="#f3_21" transform="matrix(12,0,0,12,339.8,717.8)" />
<use xlink:href="#f3_2f" transform="matrix(12,0,0,12,347.9,717.8)" />
<use xlink:href="#f3_2f" transform="matrix(12,0,0,12,355.2,717.8)" />
<use xlink:href="#f3_2g" transform="matrix(12,0,0,12,366.9,717.8)" />
<use xlink:href="#f3_24" transform="matrix(12,0,0,12,372.4,717.8)" />
<use xlink:href="#f3_25" transform="matrix(12,0,0,12,381.6,717.8)" />
<use xlink:href="#f3_2f" transform="matrix(12,0,0,12,386,717.8)" />
<use xlink:href="#f3_28" transform="matrix(12,0,0,12,398.1,717.8)" />
<use xlink:href="#f3_1x" transform="matrix(12,0,0,12,402.8,717.8)" />
<use xlink:href="#f3_2j" transform="matrix(12,0,0,12,410.9,717.8)" />
<use xlink:href="#f3_25" transform="matrix(12,0,0,12,428.8,717.8)" />
<use xlink:href="#f3_2a" transform="matrix(12,0,0,12,433.6,717.8)" />
<use xlink:href="#f3_2g" transform="matrix(12,0,0,12,447.2,717.8)" />
<use xlink:href="#f3_24" transform="matrix(12,0,0,12,452.6,717.8)" />
<use xlink:href="#f3_21" transform="matrix(12,0,0,12,461.4,717.8)" />
<use xlink:href="#f3_2i" transform="matrix(12,0,0,12,474.6,717.8)" />
<use xlink:href="#f3_21" transform="matrix(12,0,0,12,483.4,717.8)" />
<use xlink:href="#f3_1z" transform="matrix(12,0,0,12,491.5,717.8)" />
<use xlink:href="#f3_2g" transform="matrix(12,0,0,12,499.5,717.8)" />
<use xlink:href="#f3_2b" transform="matrix(12,0,0,12,505,717.8)" />
<use xlink:href="#f3_2e" transform="matrix(12,0,0,12,514.5,717.8)" />
<use xlink:href="#f3_22" transform="matrix(12,0,0,12,525.2,717.8)" />
<use xlink:href="#f3_2b" transform="matrix(12,0,0,12,530.7,717.8)" />
<use xlink:href="#f3_2e" transform="matrix(12,0,0,12,540.2,717.8)" />
<use xlink:href="#f3_29" transform="matrix(12,0,0,12,546.8,717.8)" />
<use xlink:href="#f3_i" transform="matrix(12,0,0,12,560.3,717.8)" />
<use xlink:href="#f3_c" transform="matrix(12,0,0,12,55,746.7)" />
<use xlink:href="#f3_1y" transform="matrix(12,0,0,12,61.3,746.7)" />
<use xlink:href="#f3_d" transform="matrix(12,0,0,12,70.1,746.7)" />
<use xlink:href="#f3_1k" transform="matrix(12,0,0,12,81,746.7)" />
<use xlink:href="#f3_2j" transform="matrix(12,0,0,12,92.4,746.7)" />
<use xlink:href="#f3_2b" transform="matrix(12,0,0,12,105.2,746.7)" />
<use xlink:href="#f3_25" transform="matrix(12,0,0,12,119.5,746.7)" />
<use xlink:href="#f3_20" transform="matrix(12,0,0,12,123.9,746.7)" />
<use xlink:href="#f3_21" transform="matrix(12,0,0,12,133,746.7)" />
<use xlink:href="#f3_2a" transform="matrix(12,0,0,12,141.4,746.7)" />
<use xlink:href="#f3_2g" transform="matrix(12,0,0,12,150.2,746.7)" />
<use xlink:href="#f3_25" transform="matrix(12,0,0,12,156.1,746.7)" />
<use xlink:href="#f3_1z" transform="matrix(12,0,0,12,160.5,746.7)" />
<use xlink:href="#f3_1x" transform="matrix(12,0,0,12,168.6,746.7)" />
<use xlink:href="#f3_28" transform="matrix(12,0,0,12,177,746.7)" />
<use xlink:href="#f3_1z" transform="matrix(12,0,0,12,186.5,746.7)" />
<use xlink:href="#f3_25" transform="matrix(12,0,0,12,194.9,746.7)" />
<use xlink:href="#f3_2e" transform="matrix(12,0,0,12,199.3,746.7)" />
<use xlink:href="#f3_1z" transform="matrix(12,0,0,12,205.5,746.7)" />
<use xlink:href="#f3_2h" transform="matrix(12,0,0,12,213.6,746.7)" />
<use xlink:href="#f3_28" transform="matrix(12,0,0,12,223.1,746.7)" />
<use xlink:href="#f3_1x" transform="matrix(12,0,0,12,227.9,746.7)" />
<use xlink:href="#f3_2e" transform="matrix(12,0,0,12,235.9,746.7)" />
<use xlink:href="#f3_1z" transform="matrix(12,0,0,12,246.9,746.7)" />
<use xlink:href="#f3_2b" transform="matrix(12,0,0,12,255,746.7)" />
<use xlink:href="#f3_25" transform="matrix(12,0,0,12,264.8,746.7)" />
<use xlink:href="#f3_28" transform="matrix(12,0,0,12,269.6,746.7)" />
<use xlink:href="#f3_2f" transform="matrix(12,0,0,12,274.4,746.7)" />
<use xlink:href="#f3_g" transform="matrix(12,0,0,12,281.3,746.7)" />
<use xlink:href="#f3_1g" transform="matrix(12,0,0,12,290.8,746.7)" />
<use xlink:href="#f3_1x" transform="matrix(12,0,0,12,305.8,746.7)" />
<use xlink:href="#f3_2a" transform="matrix(12,0,0,12,313.9,746.7)" />
<use xlink:href="#f3_20" transform="matrix(12,0,0,12,322.7,746.7)" />
<use xlink:href="#f3_1h" transform="matrix(12,0,0,12,336.6,746.7)" />
<use xlink:href="#f3_21" transform="matrix(12,0,0,12,354.6,746.7)" />
<use xlink:href="#f3_1x" transform="matrix(12,0,0,12,362.6,746.7)" />
<use xlink:href="#f3_1z" transform="matrix(12,0,0,12,370.7,746.7)" />
<use xlink:href="#f3_24" transform="matrix(12,0,0,12,378.8,746.7)" />
<use xlink:href="#f3_2b" transform="matrix(12,0,0,12,392.3,746.7)" />
<use xlink:href="#f3_22" transform="matrix(12,0,0,12,401.8,746.7)" />
<use xlink:href="#f3_2e" transform="matrix(12,0,0,12,412.1,746.7)" />
<use xlink:href="#f3_1x" transform="matrix(12,0,0,12,418.3,746.7)" />
<use xlink:href="#f3_20" transform="matrix(12,0,0,12,426.7,746.7)" />
<use xlink:href="#f3_25" transform="matrix(12,0,0,12,436.2,746.7)" />
<use xlink:href="#f3_2h" transform="matrix(12,0,0,12,440.6,746.7)" />
<use xlink:href="#f3_2f" transform="matrix(12,0,0,12,449.8,746.7)" />
<use xlink:href="#f3_1i" transform="matrix(12,0,0,12,461.5,746.7)" />
<use xlink:href="#f3_g" transform="matrix(12,0,0,12,473.6,746.7)" />
<use xlink:href="#f3_1z" transform="matrix(12,0,0,12,483.1,746.7)" />
<use xlink:href="#f3_1x" transform="matrix(12,0,0,12,491.2,746.7)" />
<use xlink:href="#f3_2e" transform="matrix(12,0,0,12,499.2,746.7)" />
<use xlink:href="#f3_2e" transform="matrix(12,0,0,12,505.4,746.7)" />
<use xlink:href="#f3_2l" transform="matrix(12,0,0,12,512,746.7)" />
<use xlink:href="#f3_25" transform="matrix(12,0,0,12,520.8,746.7)" />
<use xlink:href="#f3_2a" transform="matrix(12,0,0,12,525.6,746.7)" />
<use xlink:href="#f3_23" transform="matrix(12,0,0,12,534.8,746.7)" />
<use xlink:href="#f3_1z" transform="matrix(12,0,0,12,548.7,746.7)" />
<use xlink:href="#f3_2h" transform="matrix(12,0,0,12,556.7,746.7)" />
<use xlink:href="#f3_2e" transform="matrix(12,0,0,12,565.9,746.7)" />
<use xlink:href="#f3_2e" transform="matrix(12,0,0,12,572.1,746.7)" />
<use xlink:href="#f3_21" transform="matrix(12,0,0,12,578.3,746.7)" />
<use xlink:href="#f3_2a" transform="matrix(12,0,0,12,586.4,746.7)" />
<use xlink:href="#f3_2g" transform="matrix(12,0,0,12,595.2,746.7)" />
<use xlink:href="#f3_2f" transform="matrix(12,0,0,12,600.7,746.7)" />
<use xlink:href="#f3_l" transform="matrix(12,0,0,12,612.4,746.7)" />
<use xlink:href="#f3_11" transform="matrix(12,0,0,12,621.6,746.7)" />
<use xlink:href="#f3_1x" transform="matrix(12,0,0,12,639.2,746.7)" />
<use xlink:href="#f3_2a" transform="matrix(12,0,0,12,647.6,746.7)" />
<use xlink:href="#f3_20" transform="matrix(12,0,0,12,656.4,746.7)" />
</g>
<path d="M675.2,743l1.9,-1.1m.1,0l4.6,7.4m0,.1l5,-19.7m0,0h9.7" class="g2_41" />
<path fill-rule="evenodd" d="M674.4,742l2.6,-1.4l4.1,6.1l4.7,-18.2h10v.9h-9.4l-4.9,19.3h-.9l-4.7,-6.9l-1.2,.8l-.3,-.6Z" class="g3_41" />
<g clip-path="url(#c0_41)">
<g fill="#000000" >
<use xlink:href="#f3_n" transform="matrix(12.3,0,0,12.4,686.4,746.9)" />
</g>
</g>
<g fill="#000000" >
<use xlink:href="#f3_11" transform="matrix(12,0,0,12,703.9,746.7)" />
<use xlink:href="#f3_2e" transform="matrix(12,0,0,12,721.5,746.7)" />
<use xlink:href="#f3_21" transform="matrix(12,0,0,12,727.7,746.7)" />
<use xlink:href="#f3_2f" transform="matrix(12,0,0,12,735.8,746.7)" />
<use xlink:href="#f3_2c" transform="matrix(12,0,0,12,742.7,746.7)" />
<use xlink:href="#f3_21" transform="matrix(12,0,0,12,751.9,746.7)" />
<use xlink:href="#f3_1z" transform="matrix(12,0,0,12,760,746.7)" />
<use xlink:href="#f3_2g" transform="matrix(12,0,0,12,768,746.7)" />
<use xlink:href="#f3_25" transform="matrix(12,0,0,12,773.9,746.7)" />
<use xlink:href="#f3_2i" transform="matrix(12,0,0,12,778.6,746.7)" />
<use xlink:href="#f3_21" transform="matrix(12,0,0,12,787.4,746.7)" />
<use xlink:href="#f3_28" transform="matrix(12,0,0,12,795.9,746.7)" />
<use xlink:href="#f3_2l" transform="matrix(12,0,0,12,800.9,746.7)" />
<use xlink:href="#f3_g" transform="matrix(12,0,0,12,809.4,746.7)" />
<use xlink:href="#f3_1x" transform="matrix(12,0,0,12,818.9,746.7)" />
<use xlink:href="#f3_2e" transform="matrix(12,0,0,12,827.3,746.7)" />
<use xlink:href="#f3_21" transform="matrix(12,0,0,12,833.5,746.7)" />
<use xlink:href="#f3_2c" transform="matrix(12,0,0,12,55,773.1)" />
<use xlink:href="#f3_28" transform="matrix(12,0,0,12,64.6,773.1)" />
<use xlink:href="#f3_1x" transform="matrix(12,0,0,12,69,773.1)" />
<use xlink:href="#f3_1z" transform="matrix(12,0,0,12,77,773.1)" />
<use xlink:href="#f3_21" transform="matrix(12,0,0,12,85.1,773.1)" />
<use xlink:href="#f3_20" transform="matrix(12,0,0,12,93.2,773.1)" />
<use xlink:href="#f3_1z" transform="matrix(12,0,0,12,107.1,773.1)" />
<use xlink:href="#f3_2b" transform="matrix(12,0,0,12,115.1,773.1)" />
<use xlink:href="#f3_2a" transform="matrix(12,0,0,12,124.6,773.1)" />
<use xlink:href="#f3_1z" transform="matrix(12,0,0,12,133.4,773.1)" />
<use xlink:href="#f3_21" transform="matrix(12,0,0,12,141.9,773.1)" />
<use xlink:href="#f3_2a" transform="matrix(12,0,0,12,150.3,773.1)" />
<use xlink:href="#f3_2g" transform="matrix(12,0,0,12,159.1,773.1)" />
<use xlink:href="#f3_2e" transform="matrix(12,0,0,12,164.6,773.1)" />
<use xlink:href="#f3_25" transform="matrix(12,0,0,12,170.8,773.1)" />
<use xlink:href="#f3_1z" transform="matrix(12,0,0,12,175.2,773.1)" />
<use xlink:href="#f3_1x" transform="matrix(12,0,0,12,183.2,773.1)" />
<use xlink:href="#f3_28" transform="matrix(12,0,0,12,191.7,773.1)" />
<use xlink:href="#f3_28" transform="matrix(12,0,0,12,196.8,773.1)" />
<use xlink:href="#f3_2l" transform="matrix(12,0,0,12,201.9,773.1)" />
<use xlink:href="#f3_1x" transform="matrix(12,0,0,12,215.5,773.1)" />
<use xlink:href="#f3_2a" transform="matrix(12,0,0,12,223.9,773.1)" />
<use xlink:href="#f3_20" transform="matrix(12,0,0,12,232.7,773.1)" />
<use xlink:href="#f3_2c" transform="matrix(12,0,0,12,246.6,773.1)" />
<use xlink:href="#f3_21" transform="matrix(12,0,0,12,255.7,773.1)" />
<use xlink:href="#f3_2e" transform="matrix(12,0,0,12,263.8,773.1)" />
<use xlink:href="#f3_2c" transform="matrix(12,0,0,12,270,773.1)" />
<use xlink:href="#f3_21" transform="matrix(12,0,0,12,279.2,773.1)" />
<use xlink:href="#f3_2a" transform="matrix(12,0,0,12,287.3,773.1)" />
<use xlink:href="#f3_20" transform="matrix(12,0,0,12,296.1,773.1)" />
<use xlink:href="#f3_25" transform="matrix(12,0,0,12,305.6,773.1)" />
<use xlink:href="#f3_1z" transform="matrix(12,0,0,12,310.3,773.1)" />
<use xlink:href="#f3_2h" transform="matrix(12,0,0,12,318.4,773.1)" />
<use xlink:href="#f3_28" transform="matrix(12,0,0,12,327.9,773.1)" />
<use xlink:href="#f3_1x" transform="matrix(12,0,0,12,332.7,773.1)" />
<use xlink:href="#f3_2e" transform="matrix(12,0,0,12,340.8,773.1)" />
<use xlink:href="#f3_2g" transform="matrix(12,0,0,12,351.7,773.1)" />
<use xlink:href="#f3_2b" transform="matrix(12,0,0,12,356.8,773.1)" />
<use xlink:href="#f3_21" transform="matrix(12,0,0,12,371.1,773.1)" />
<use xlink:href="#f3_1x" transform="matrix(12,0,0,12,379.2,773.1)" />
<use xlink:href="#f3_1z" transform="matrix(12,0,0,12,387.3,773.1)" />
<use xlink:href="#f3_24" transform="matrix(12,0,0,12,395.3,773.1)" />
<use xlink:href="#f3_2b" transform="matrix(12,0,0,12,408.9,773.1)" />
<use xlink:href="#f3_2g" transform="matrix(12,0,0,12,418,773.1)" />
<use xlink:href="#f3_24" transform="matrix(12,0,0,12,423.1,773.1)" />
<use xlink:href="#f3_21" transform="matrix(12,0,0,12,432,773.1)" />
<use xlink:href="#f3_2e" transform="matrix(12,0,0,12,440,773.1)" />
<use xlink:href="#f3_28" transform="matrix(12,0,0,12,451.4,773.1)" />
<use xlink:href="#f3_2l" transform="matrix(12,0,0,12,456.1,773.1)" />
<use xlink:href="#f3_25" transform="matrix(12,0,0,12,465.3,773.1)" />
<use xlink:href="#f3_2a" transform="matrix(12,0,0,12,470.1,773.1)" />
<use xlink:href="#f3_23" transform="matrix(12,0,0,12,479.2,773.1)" />
<use xlink:href="#f3_25" transform="matrix(12,0,0,12,493.5,773.1)" />
<use xlink:href="#f3_2a" transform="matrix(12,0,0,12,498.3,773.1)" />
<use xlink:href="#f3_2g" transform="matrix(12,0,0,12,511.8,773.1)" />
<use xlink:href="#f3_24" transform="matrix(12,0,0,12,517.3,773.1)" />
<use xlink:href="#f3_21" transform="matrix(12,0,0,12,526.1,773.1)" />
<use xlink:href="#f3_1o" transform="matrix(12,0,0,12,538.9,773.1)" />
<use xlink:href="#f3_1p" transform="matrix(12,0,0,12,552.2,773.1)" />
<use xlink:href="#f3_1x" transform="matrix(12,0,0,12,570.1,773.1)" />
<use xlink:href="#f3_2a" transform="matrix(12,0,0,12,578.1,773.1)" />
<use xlink:href="#f3_20" transform="matrix(12,0,0,12,586.9,773.1)" />
<use xlink:href="#f3_1p" transform="matrix(12,0,0,12,600.9,773.1)" />
<use xlink:href="#f3_1q" transform="matrix(12,0,0,12,614.4,773.1)" />
<use xlink:href="#f3_2c" transform="matrix(12,0,0,12,630.2,773.1)" />
<use xlink:href="#f3_28" transform="matrix(12,0,0,12,639.7,773.1)" />
<use xlink:href="#f3_1x" transform="matrix(12,0,0,12,644.1,773.1)" />
<use xlink:href="#f3_2a" transform="matrix(12,0,0,12,652.5,773.1)" />
<use xlink:href="#f3_21" transform="matrix(12,0,0,12,661.3,773.1)" />
<use xlink:href="#f3_2f" transform="matrix(12,0,0,12,669.7,773.1)" />
<use xlink:href="#f3_i" transform="matrix(12,0,0,12,676.7,773.1)" />
<use xlink:href="#f3_16" transform="matrix(12,0,0,12,686.2,773.1)" />
<use xlink:href="#f3_25" transform="matrix(12,0,0,12,696.4,773.1)" />
<use xlink:href="#f3_2a" transform="matrix(12,0,0,12,701.2,773.1)" />
<use xlink:href="#f3_20" transform="matrix(12,0,0,12,710,773.1)" />
<use xlink:href="#f3_2g" transform="matrix(12,0,0,12,723.9,773.1)" />
<use xlink:href="#f3_24" transform="matrix(12,0,0,12,729.4,773.1)" />
<use xlink:href="#f3_21" transform="matrix(12,0,0,12,738.2,773.1)" />
<use xlink:href="#f3_29" transform="matrix(12,0,0,12,55,797.3)" />
<use xlink:href="#f3_1x" transform="matrix(12,0,0,12,69,797.3)" />
<use xlink:href="#f3_23" transform="matrix(12,0,0,12,77,797.3)" />
<use xlink:href="#f3_2a" transform="matrix(12,0,0,12,86.6,797.3)" />
<use xlink:href="#f3_25" transform="matrix(12,0,0,12,95.7,797.3)" />
<use xlink:href="#f3_2g" transform="matrix(12,0,0,12,100.1,797.3)" />
<use xlink:href="#f3_2h" transform="matrix(12,0,0,12,105.6,797.3)" />
<use xlink:href="#f3_20" transform="matrix(12,0,0,12,114.8,797.3)" />
<use xlink:href="#f3_21" transform="matrix(12,0,0,12,123.9,797.3)" />
<use xlink:href="#f3_1x" transform="matrix(12,0,0,12,136.7,797.3)" />
<use xlink:href="#f3_2a" transform="matrix(12,0,0,12,145.2,797.3)" />
<use xlink:href="#f3_20" transform="matrix(12,0,0,12,154,797.3)" />
<use xlink:href="#f3_20" transform="matrix(12,0,0,12,167.9,797.3)" />
<use xlink:href="#f3_25" transform="matrix(12,0,0,12,177.4,797.3)" />
<use xlink:href="#f3_2e" transform="matrix(12,0,0,12,181.8,797.3)" />
<use xlink:href="#f3_21" transform="matrix(12,0,0,12,188,797.3)" />
<use xlink:href="#f3_1z" transform="matrix(12,0,0,12,196.1,797.3)" />
<use xlink:href="#f3_2g" transform="matrix(12,0,0,12,204.1,797.3)" />
<use xlink:href="#f3_25" transform="matrix(12,0,0,12,210,797.3)" />
<use xlink:href="#f3_2b" transform="matrix(12,0,0,12,214.4,797.3)" />
<use xlink:href="#f3_2a" transform="matrix(12,0,0,12,223.9,797.3)" />
<use xlink:href="#f3_2b" transform="matrix(12,0,0,12,237.5,797.3)" />
<use xlink:href="#f3_22" transform="matrix(12,0,0,12,247,797.3)" />
<use xlink:href="#f3_2g" transform="matrix(12,0,0,12,257.2,797.3)" />
<use xlink:href="#f3_24" transform="matrix(12,0,0,12,262.7,797.3)" />
<use xlink:href="#f3_21" transform="matrix(12,0,0,12,271.5,797.3)" />
<use xlink:href="#f3_2a" transform="matrix(12,0,0,12,284.3,797.3)" />
<use xlink:href="#f3_21" transform="matrix(12,0,0,12,293.1,797.3)" />
<use xlink:href="#f3_2g" transform="matrix(12,0,0,12,301.2,797.3)" />
<use xlink:href="#f3_29" transform="matrix(12,0,0,12,311.8,797.3)" />
<use xlink:href="#f3_1x" transform="matrix(12,0,0,12,325.3,797.3)" />
<use xlink:href="#f3_23" transform="matrix(12,0,0,12,333.4,797.3)" />
<use xlink:href="#f3_2a" transform="matrix(12,0,0,12,342.9,797.3)" />
<use xlink:href="#f3_21" transform="matrix(12,0,0,12,351.7,797.3)" />
<use xlink:href="#f3_2g" transform="matrix(12,0,0,12,359.8,797.3)" />
<use xlink:href="#f3_25" transform="matrix(12,0,0,12,365.6,797.3)" />
<use xlink:href="#f3_1z" transform="matrix(12,0,0,12,370,797.3)" />
<use xlink:href="#f3_22" transform="matrix(12,0,0,12,383.2,797.3)" />
<use xlink:href="#f3_25" transform="matrix(12,0,0,12,389.1,797.3)" />
<use xlink:href="#f3_21" transform="matrix(12,0,0,12,393.9,797.3)" />
<use xlink:href="#f3_28" transform="matrix(12,0,0,12,402.3,797.3)" />
<use xlink:href="#f3_20" transform="matrix(12,0,0,12,407,797.3)" />
<use xlink:href="#f3_1x" transform="matrix(12,0,0,12,421,797.3)" />
<use xlink:href="#f3_2g" transform="matrix(12,0,0,12,429.4,797.3)" />
<use xlink:href="#f3_2g" transform="matrix(12,0,0,12,438.9,797.3)" />
<use xlink:href="#f3_24" transform="matrix(12,0,0,12,444.4,797.3)" />
<use xlink:href="#f3_21" transform="matrix(12,0,0,12,453.2,797.3)" />
<use xlink:href="#f3_1z" transform="matrix(12,0,0,12,466,797.3)" />
<use xlink:href="#f3_21" transform="matrix(12,0,0,12,474.1,797.3)" />
<use xlink:href="#f3_2a" transform="matrix(12,0,0,12,482.1,797.3)" />
<use xlink:href="#f3_2g" transform="matrix(12,0,0,12,490.9,797.3)" />
<use xlink:href="#f3_2e" transform="matrix(12,0,0,12,496.4,797.3)" />
<use xlink:href="#f3_21" transform="matrix(12,0,0,12,502.6,797.3)" />
<use xlink:href="#f3_2b" transform="matrix(12,0,0,12,515.4,797.3)" />
<use xlink:href="#f3_22" transform="matrix(12,0,0,12,525,797.3)" />
<use xlink:href="#f3_2g" transform="matrix(12,0,0,12,535.2,797.3)" />
<use xlink:href="#f3_24" transform="matrix(12,0,0,12,540.7,797.3)" />
<use xlink:href="#f3_21" transform="matrix(12,0,0,12,549.5,797.3)" />
<use xlink:href="#f3_1z" transform="matrix(12,0,0,12,562.3,797.3)" />
<use xlink:href="#f3_2b" transform="matrix(12,0,0,12,570,797.3)" />
<use xlink:href="#f3_25" transform="matrix(12,0,0,12,579.5,797.3)" />
<use xlink:href="#f3_28" transform="matrix(12,0,0,12,584.3,797.3)" />
<use xlink:href="#f3_2f" transform="matrix(12,0,0,12,589.1,797.3)" />
<use xlink:href="#f3_i" transform="matrix(12,0,0,12,596,797.3)" />
<use xlink:href="#f2_1j" transform="matrix(12,0,0,12,55,821.5)" />
<use xlink:href="#f2_2b" transform="matrix(12,0,0,12,65.3,821.5)" />
<use xlink:href="#f2_28" transform="matrix(12,0,0,12,74.5,821.5)" />
<use xlink:href="#f2_2h" transform="matrix(12,0,0,12,79.2,821.5)" />
<use xlink:href="#f2_2g" transform="matrix(12,0,0,12,89.5,821.5)" />
<use xlink:href="#f2_25" transform="matrix(12,0,0,12,95.7,821.5)" />
<use xlink:href="#f2_2b" transform="matrix(12,0,0,12,100.8,821.5)" />
<use xlink:href="#f2_2a" transform="matrix(12,0,0,12,109.9,821.5)" />
<use xlink:href="#f2_u" transform="matrix(12,0,0,12,120.2,821.5)" />
<use xlink:href="#f3_c" transform="matrix(12,0,0,12,55,846.5)" />
<use xlink:href="#f3_1x" transform="matrix(12,0,0,12,61.3,846.5)" />
<use xlink:href="#f3_d" transform="matrix(12,0,0,12,69.3,846.5)" />
<use xlink:href="#f3_12" transform="matrix(12,0,0,12,80.3,846.5)" />
<use xlink:href="#f3_25" transform="matrix(12,0,0,12,92.4,846.5)" />
<use xlink:href="#f3_2b" transform="matrix(12,0,0,12,96.8,846.5)" />
<use xlink:href="#f3_2g" transform="matrix(12,0,0,12,106.3,846.5)" />
<use xlink:href="#f3_h" transform="matrix(12,0,0,12,111.9,846.5)" />
<use xlink:href="#f3_2f" transform="matrix(12,0,0,12,118.1,846.5)" />
<use xlink:href="#f3_1x" transform="matrix(12,0,0,12,125.1,846.5)" />
<use xlink:href="#f3_2i" transform="matrix(12,0,0,12,133.1,846.5)" />
<use xlink:href="#f3_1x" transform="matrix(12,0,0,12,141.9,846.5)" />
<use xlink:href="#f3_2e" transform="matrix(12,0,0,12,150,846.5)" />
<use xlink:href="#f3_2g" transform="matrix(12,0,0,12,156.2,846.5)" />
<use xlink:href="#f3_b" transform="matrix(12,0,0,12,161.7,846.5)" />
<use xlink:href="#f3_2f" transform="matrix(12,0,0,12,164.6,846.5)" />
<use xlink:href="#f3_28" transform="matrix(12,0,0,12,176.7,846.5)" />
<use xlink:href="#f3_1x" transform="matrix(12,0,0,12,181.1,846.5)" />
<use xlink:href="#f3_2j" transform="matrix(12,0,0,12,189.2,846.5)" />
<use xlink:href="#f3_u" transform="matrix(12,0,0,12,207.1,846.5)" />
<use xlink:href="#f3_h" transform="matrix(12,0,0,12,212.4,846.5)" />
<use xlink:href="#f3_1k" transform="matrix(12,0,0,12,223.4,846.5)" />
<use xlink:href="#f3_24" transform="matrix(12,0,0,12,234.7,846.5)" />
<use xlink:href="#f3_25" transform="matrix(12,0,0,12,243.9,846.5)" />
<use xlink:href="#f3_2f" transform="matrix(12,0,0,12,248.7,846.5)" />
<use xlink:href="#f3_28" transform="matrix(12,0,0,12,260.7,846.5)" />
<use xlink:href="#f3_1x" transform="matrix(12,0,0,12,265.1,846.5)" />
<use xlink:href="#f3_2j" transform="matrix(12,0,0,12,273.2,846.5)" />
<use xlink:href="#f3_2f" transform="matrix(12,0,0,12,291.2,846.5)" />
<use xlink:href="#f3_2g" transform="matrix(12,0,0,12,298.1,846.5)" />
<use xlink:href="#f3_1x" transform="matrix(12,0,0,12,303.6,846.5)" />
<use xlink:href="#f3_2g" transform="matrix(12,0,0,12,311.7,846.5)" />
<use xlink:href="#f3_21" transform="matrix(12,0,0,12,317.2,846.5)" />
<use xlink:href="#f3_2f" transform="matrix(12,0,0,12,325.2,846.5)" />
<use xlink:href="#f3_2g" transform="matrix(12,0,0,12,336.6,846.5)" />
<use xlink:href="#f3_24" transform="matrix(12,0,0,12,342.1,846.5)" />
<use xlink:href="#f3_1x" transform="matrix(12,0,0,12,350.9,846.5)" />
<use xlink:href="#f3_2g" transform="matrix(12,0,0,12,358.9,846.5)" />
<use xlink:href="#f3_2g" transform="matrix(12,0,0,12,368.8,846.5)" />
<use xlink:href="#f3_24" transform="matrix(12,0,0,12,374.3,846.5)" />
<use xlink:href="#f3_21" transform="matrix(12,0,0,12,383.1,846.5)" />
<use xlink:href="#f3_29" transform="matrix(12,0,0,12,395.9,846.5)" />
<use xlink:href="#f3_1x" transform="matrix(12,0,0,12,409.8,846.5)" />
<use xlink:href="#f3_23" transform="matrix(12,0,0,12,418.2,846.5)" />
<use xlink:href="#f3_2a" transform="matrix(12,0,0,12,427.7,846.5)" />
<use xlink:href="#f3_21" transform="matrix(12,0,0,12,436.5,846.5)" />
<use xlink:href="#f3_2g" transform="matrix(12,0,0,12,444.5,846.5)" />
<use xlink:href="#f3_25" transform="matrix(12,0,0,12,450.4,846.5)" />
<use xlink:href="#f3_1z" transform="matrix(12,0,0,12,454.8,846.5)" />
<use xlink:href="#f3_22" transform="matrix(12,0,0,12,468,846.5)" />
<use xlink:href="#f3_25" transform="matrix(12,0,0,12,473.8,846.5)" />
<use xlink:href="#f3_21" transform="matrix(12,0,0,12,478.6,846.5)" />
<use xlink:href="#f3_28" transform="matrix(12,0,0,12,487,846.5)" />
<use xlink:href="#f3_20" transform="matrix(12,0,0,12,491.8,846.5)" />
<use xlink:href="#f3_c" transform="matrix(12,0,0,12,505.7,846.5)" />
<use xlink:href="#f3_20" transform="matrix(12,0,0,12,511.9,846.5)" />
<use xlink:href="#f3_12" transform="matrix(12,0,0,12,521.1,846.5)" />
<use xlink:href="#f3_d" transform="matrix(12,0,0,12,533.2,846.5)" />
<use xlink:href="#f3_1x" transform="matrix(12,0,0,12,544.1,846.5)" />
<use xlink:href="#f3_2g" transform="matrix(12,0,0,12,552.2,846.5)" />
<use xlink:href="#f3_2c" transform="matrix(12,0,0,12,562.1,846.5)" />
<use xlink:href="#f3_2b" transform="matrix(12,0,0,12,570.9,846.5)" />
<use xlink:href="#f3_25" transform="matrix(12,0,0,12,580.4,846.5)" />
<use xlink:href="#f3_2a" transform="matrix(12,0,0,12,585.2,846.5)" />
<use xlink:href="#f3_2g" transform="matrix(12,0,0,12,594,846.5)" />
<use xlink:href="#f3_1g" transform="matrix(12,0,0,12,604.2,846.5)" />
<use xlink:href="#f3_20" transform="matrix(12,0,0,12,619.2,846.5)" />
<use xlink:href="#f3_2h" transform="matrix(12,0,0,12,628.4,846.5)" />
<use xlink:href="#f3_21" transform="matrix(12,0,0,12,637.5,846.5)" />
<use xlink:href="#f3_2g" transform="matrix(12,0,0,12,650,846.5)" />
<use xlink:href="#f3_2b" transform="matrix(12,0,0,12,655.1,846.5)" />
<use xlink:href="#f3_2f" transform="matrix(12,0,0,12,669,846.5)" />
<use xlink:href="#f3_29" transform="matrix(12,0,0,12,676,846.5)" />
<use xlink:href="#f3_1x" transform="matrix(12,0,0,12,689.9,846.5)" />
<use xlink:href="#f3_28" transform="matrix(12,0,0,12,698.4,846.5)" />
<use xlink:href="#f3_28" transform="matrix(12,0,0,12,703.1,846.5)" />
<use xlink:href="#f3_1z" transform="matrix(12,0,0,12,712.6,846.5)" />
<use xlink:href="#f3_2h" transform="matrix(12,0,0,12,720.7,846.5)" />
<use xlink:href="#f3_2e" transform="matrix(12,0,0,12,729.9,846.5)" />
<use xlink:href="#f3_2e" transform="matrix(12,0,0,12,736.1,846.5)" />
<use xlink:href="#f3_21" transform="matrix(12,0,0,12,742.3,846.5)" />
<use xlink:href="#f3_2a" transform="matrix(12,0,0,12,750.7,846.5)" />
<use xlink:href="#f3_2g" transform="matrix(12,0,0,12,759.5,846.5)" />
<use xlink:href="#f3_21" transform="matrix(12,0,0,12,769.7,846.5)" />
<use xlink:href="#f3_28" transform="matrix(12,0,0,12,777.8,846.5)" />
<use xlink:href="#f3_21" transform="matrix(12,0,0,12,782.2,846.5)" />
<use xlink:href="#f3_29" transform="matrix(12,0,0,12,790.6,846.5)" />
<use xlink:href="#f3_21" transform="matrix(12,0,0,12,804.6,846.5)" />
<use xlink:href="#f3_2a" transform="matrix(12,0,0,12,813,846.5)" />
<use xlink:href="#f3_2g" transform="matrix(12,0,0,12,821.8,846.5)" />
<use xlink:href="#f3_19" transform="matrix(12,0,0,12,832,846.5)" />
<use xlink:href="#f3_20" transform="matrix(12,0,0,12,838.2,846.5)" />
<use xlink:href="#f5_a8" transform="matrix(12,0,0,12,848.1,846.5)" />
<use xlink:href="#f3_2b" transform="matrix(12,0,0,12,55,871.8)" />
<use xlink:href="#f3_22" transform="matrix(12,0,0,12,64.6,871.8)" />
<use xlink:href="#f3_1z" transform="matrix(12,0,0,12,74.8,871.8)" />
<use xlink:href="#f3_2h" transform="matrix(12,0,0,12,82.9,871.8)" />
<use xlink:href="#f3_2e" transform="matrix(12,0,0,12,92,871.8)" />
<use xlink:href="#f3_2e" transform="matrix(12,0,0,12,98.2,871.8)" />
<use xlink:href="#f3_21" transform="matrix(12,0,0,12,104.5,871.8)" />
<use xlink:href="#f3_2a" transform="matrix(12,0,0,12,112.5,871.8)" />
<use xlink:href="#f3_2g" transform="matrix(12,0,0,12,121.3,871.8)" />
<use xlink:href="#f3_1z" transform="matrix(12,0,0,12,131.6,871.8)" />
<use xlink:href="#f3_1x" transform="matrix(12,0,0,12,139.6,871.8)" />
<use xlink:href="#f3_2e" transform="matrix(12,0,0,12,147.7,871.8)" />
<use xlink:href="#f3_2e" transform="matrix(12,0,0,12,153.9,871.8)" />
<use xlink:href="#f3_2l" transform="matrix(12,0,0,12,160.1,871.8)" />
<use xlink:href="#f3_25" transform="matrix(12,0,0,12,168.9,871.8)" />
<use xlink:href="#f3_2a" transform="matrix(12,0,0,12,173.7,871.8)" />
<use xlink:href="#f3_23" transform="matrix(12,0,0,12,182.9,871.8)" />
<use xlink:href="#f3_1z" transform="matrix(12,0,0,12,196.8,871.8)" />
<use xlink:href="#f3_2b" transform="matrix(12,0,0,12,204.8,871.8)" />
<use xlink:href="#f3_2a" transform="matrix(12,0,0,12,214.4,871.8)" />
<use xlink:href="#f3_20" transform="matrix(12,0,0,12,223.2,871.8)" />
<use xlink:href="#f3_2h" transform="matrix(12,0,0,12,232.3,871.8)" />
<use xlink:href="#f3_1z" transform="matrix(12,0,0,12,241.5,871.8)" />
<use xlink:href="#f3_2g" transform="matrix(12,0,0,12,249.6,871.8)" />
<use xlink:href="#f3_2b" transform="matrix(12,0,0,12,254.6,871.8)" />
<use xlink:href="#f3_2e" transform="matrix(12,0,0,12,264.2,871.8)" />
<use xlink:href="#f3_25" transform="matrix(12,0,0,12,275.2,871.8)" />
<use xlink:href="#f3_2f" transform="matrix(12,0,0,12,279.6,871.8)" />
<use xlink:href="#f3_c" transform="matrix(12,0,0,12,55,1043.1)" />
<use xlink:href="#f3_25" transform="matrix(12,0,0,12,61.6,1043.1)" />
<use xlink:href="#f3_d" transform="matrix(12,0,0,12,66,1043.1)" />
<use xlink:href="#f3_20" transform="matrix(12,0,0,12,77,1043.1)" />
<use xlink:href="#f3_25" transform="matrix(12,0,0,12,86.5,1043.1)" />
<use xlink:href="#f3_2e" transform="matrix(12,0,0,12,90.9,1043.1)" />
<use xlink:href="#f3_21" transform="matrix(12,0,0,12,97.1,1043.1)" />
<use xlink:href="#f3_1z" transform="matrix(12,0,0,12,105.2,1043.1)" />
<use xlink:href="#f3_2g" transform="matrix(12,0,0,12,113.2,1043.1)" />
<use xlink:href="#f3_28" transform="matrix(12,0,0,12,118.7,1043.1)" />
<use xlink:href="#f3_2l" transform="matrix(12,0,0,12,123.5,1043.1)" />
<use xlink:href="#f3_2c" transform="matrix(12,0,0,12,137,1043.1)" />
<use xlink:href="#f3_2e" transform="matrix(12,0,0,12,146.2,1043.1)" />
<use xlink:href="#f3_2b" transform="matrix(12,0,0,12,152.4,1043.1)" />
<use xlink:href="#f3_2c" transform="matrix(12,0,0,12,161.9,1043.1)" />
<use xlink:href="#f3_2b" transform="matrix(12,0,0,12,170.7,1043.1)" />
<use xlink:href="#f3_2e" transform="matrix(12,0,0,12,180.3,1043.1)" />
<use xlink:href="#f3_2g" transform="matrix(12,0,0,12,186.1,1043.1)" />
<use xlink:href="#f3_25" transform="matrix(12,0,0,12,191.6,1043.1)" />
<use xlink:href="#f3_2b" transform="matrix(12,0,0,12,196,1043.1)" />
<use xlink:href="#f3_2a" transform="matrix(12,0,0,12,205.5,1043.1)" />
<use xlink:href="#f3_1x" transform="matrix(12,0,0,12,214.3,1043.1)" />
<use xlink:href="#f3_28" transform="matrix(12,0,0,12,222.7,1043.1)" />
<use xlink:href="#f3_2g" transform="matrix(12,0,0,12,231.9,1043.1)" />
<use xlink:href="#f3_2b" transform="matrix(12,0,0,12,237.4,1043.1)" />
<use xlink:href="#f3_2g" transform="matrix(12,0,0,12,251.3,1043.1)" />
<use xlink:href="#f3_24" transform="matrix(12,0,0,12,256.8,1043.1)" />
<use xlink:href="#f3_21" transform="matrix(12,0,0,12,265.6,1043.1)" />
<use xlink:href="#f3_19" transform="matrix(12,0,0,12,278.4,1043.1)" />
<use xlink:href="#f3_20" transform="matrix(12,0,0,12,284.6,1043.1)" />
</g>
<g clip-path="url(#c1_41)">
<g fill="#000000" >
<use xlink:href="#f6_28" transform="matrix(10.9,0,0,12.5,296.1,1043.3)" />
</g>
</g>
<g fill="#000000" >
<use xlink:href="#f3_c" transform="matrix(12,0,0,12,308.1,1043.1)" />
<use xlink:href="#f3_1z" transform="matrix(12,0,0,12,314.3,1043.1)" />
<use xlink:href="#f3_2h" transform="matrix(12,0,0,12,322.4,1043.1)" />
<use xlink:href="#f3_2e" transform="matrix(12,0,0,12,331.6,1043.1)" />
<use xlink:href="#f3_2e" transform="matrix(12,0,0,12,337.8,1043.1)" />
<use xlink:href="#f3_21" transform="matrix(12,0,0,12,344,1043.1)" />
<use xlink:href="#f3_2a" transform="matrix(12,0,0,12,352.1,1043.1)" />
<use xlink:href="#f3_2g" transform="matrix(12,0,0,12,360.9,1043.1)" />
<use xlink:href="#f3_d" transform="matrix(12,0,0,12,366.3,1043.1)" />
<use xlink:href="#f3_21" transform="matrix(12,0,0,12,377.3,1043.1)" />
<use xlink:href="#f3_28" transform="matrix(12,0,0,12,385.4,1043.1)" />
<use xlink:href="#f3_21" transform="matrix(12,0,0,12,389.8,1043.1)" />
<use xlink:href="#f3_29" transform="matrix(12,0,0,12,398.2,1043.1)" />
<use xlink:href="#f3_21" transform="matrix(12,0,0,12,412.1,1043.1)" />
<use xlink:href="#f3_2a" transform="matrix(12,0,0,12,420.5,1043.1)" />
<use xlink:href="#f3_2g" transform="matrix(12,0,0,12,429.3,1043.1)" />
<use xlink:href="#f3_2b" transform="matrix(12,0,0,12,439.2,1043.1)" />
<use xlink:href="#f3_22" transform="matrix(12,0,0,12,448.7,1043.1)" />
<use xlink:href="#f3_2g" transform="matrix(12,0,0,12,459,1043.1)" />
<use xlink:href="#f3_24" transform="matrix(12,0,0,12,464.5,1043.1)" />
<use xlink:href="#f3_21" transform="matrix(12,0,0,12,473.3,1043.1)" />
<use xlink:href="#f3_1z" transform="matrix(12,0,0,12,486.1,1043.1)" />
<use xlink:href="#f3_2b" transform="matrix(12,0,0,12,494.1,1043.1)" />
<use xlink:href="#f3_2a" transform="matrix(12,0,0,12,503.7,1043.1)" />
<use xlink:href="#f3_20" transform="matrix(12,0,0,12,512.5,1043.1)" />
<use xlink:href="#f3_2h" transform="matrix(12,0,0,12,521.6,1043.1)" />
<use xlink:href="#f3_1z" transform="matrix(12,0,0,12,530.8,1043.1)" />
<use xlink:href="#f3_2g" transform="matrix(12,0,0,12,538.9,1043.1)" />
<use xlink:href="#f3_2b" transform="matrix(12,0,0,12,543.9,1043.1)" />
<use xlink:href="#f3_2e" transform="matrix(12,0,0,12,553.5,1043.1)" />
<use xlink:href="#f3_i" transform="matrix(12,0,0,12,559.4,1043.1)" />
<use xlink:href="#f3_20" transform="matrix(12,0,0,12,568.9,1043.1)" />
<use xlink:href="#f3_12" transform="matrix(12,0,0,12,578,1043.1)" />
<use xlink:href="#f7_3b" transform="matrix(12,0,0,12,594.9,1043.1)" />
<use xlink:href="#f3_19" transform="matrix(12,0,0,12,612.5,1043.1)" />
<use xlink:href="#f3_20" transform="matrix(12,0,0,12,618.8,1043.1)" />
</g>
<g clip-path="url(#c2_41)">
<g fill="#000000" >
<use xlink:href="#f6_28" transform="matrix(10.9,0,0,12.5,629.7,1043.3)" />
</g>
</g>
<g fill="#000000" >
<use xlink:href="#f3_c" transform="matrix(12,0,0,12,55,1069.5)" />
<use xlink:href="#f3_25" transform="matrix(12,0,0,12,61.6,1069.5)" />
<use xlink:href="#f3_25" transform="matrix(12,0,0,12,66.4,1069.5)" />
<use xlink:href="#f3_d" transform="matrix(12,0,0,12,70.8,1069.5)" />
<use xlink:href="#f3_20" transform="matrix(12,0,0,12,81.7,1069.5)" />
<use xlink:href="#f3_25" transform="matrix(12,0,0,12,91.3,1069.5)" />
<use xlink:href="#f3_2e" transform="matrix(12,0,0,12,95.7,1069.5)" />
<use xlink:href="#f3_21" transform="matrix(12,0,0,12,101.9,1069.5)" />
<use xlink:href="#f3_1z" transform="matrix(12,0,0,12,109.9,1069.5)" />
<use xlink:href="#f3_2g" transform="matrix(12,0,0,12,118,1069.5)" />
<use xlink:href="#f3_28" transform="matrix(12,0,0,12,123.9,1069.5)" />
<use xlink:href="#f3_2l" transform="matrix(12,0,0,12,128.6,1069.5)" />
<use xlink:href="#f3_2c" transform="matrix(12,0,0,12,142.3,1069.5)" />
<use xlink:href="#f3_2e" transform="matrix(12,0,0,12,151.5,1069.5)" />
<use xlink:href="#f3_2b" transform="matrix(12,0,0,12,157.7,1069.5)" />
<use xlink:href="#f3_2c" transform="matrix(12,0,0,12,167.2,1069.5)" />
<use xlink:href="#f3_2b" transform="matrix(12,0,0,12,176,1069.5)" />
<use xlink:href="#f3_2e" transform="matrix(12,0,0,12,185.5,1069.5)" />
<use xlink:href="#f3_2g" transform="matrix(12,0,0,12,191.4,1069.5)" />
<use xlink:href="#f3_25" transform="matrix(12,0,0,12,196.9,1069.5)" />
<use xlink:href="#f3_2b" transform="matrix(12,0,0,12,201.3,1069.5)" />
<use xlink:href="#f3_2a" transform="matrix(12,0,0,12,210.8,1069.5)" />
<use xlink:href="#f3_1x" transform="matrix(12,0,0,12,219.6,1069.5)" />
<use xlink:href="#f3_28" transform="matrix(12,0,0,12,228,1069.5)" />
<use xlink:href="#f3_2g" transform="matrix(12,0,0,12,237.1,1069.5)" />
<use xlink:href="#f3_2b" transform="matrix(12,0,0,12,242.6,1069.5)" />
<use xlink:href="#f3_2f" transform="matrix(12,0,0,12,256.9,1069.5)" />
<use xlink:href="#f3_25" transform="matrix(12,0,0,12,263.9,1069.5)" />
<use xlink:href="#f3_2a" transform="matrix(12,0,0,12,268.6,1069.5)" />
<use xlink:href="#f7_2d" transform="matrix(12,0,0,12,277.7,1069.5)" />
<use xlink:href="#f3_20" transform="matrix(12,0,0,12,292,1069.5)" />
<use xlink:href="#f3_12" transform="matrix(12,0,0,12,301.1,1069.5)" />
<use xlink:href="#f7_3b" transform="matrix(12,0,0,12,318,1069.5)" />
<use xlink:href="#f3_2f" transform="matrix(12,0,0,12,336,1069.5)" />
<use xlink:href="#f3_25" transform="matrix(12,0,0,12,343.3,1069.5)" />
<use xlink:href="#f3_2a" transform="matrix(12,0,0,12,348.1,1069.5)" />
<use xlink:href="#f7_2d" transform="matrix(12,0,0,12,361.7,1069.5)" />
<use xlink:href="#f3_g" transform="matrix(12,0,0,12,371.2,1069.5)" />
<use xlink:href="#f7_2d" transform="matrix(12,0,0,12,380.8,1069.5)" />
<use xlink:href="#f3_25" transform="matrix(12,0,0,12,395.1,1069.5)" />
<use xlink:href="#f3_2f" transform="matrix(12,0,0,12,399.5,1069.5)" />
<use xlink:href="#f3_2g" transform="matrix(12,0,0,12,411.2,1069.5)" />
<use xlink:href="#f3_24" transform="matrix(12,0,0,12,416.6,1069.5)" />
<use xlink:href="#f3_21" transform="matrix(12,0,0,12,425.8,1069.5)" />
<use xlink:href="#f3_1x" transform="matrix(12,0,0,12,438.6,1069.5)" />
<use xlink:href="#f3_2a" transform="matrix(12,0,0,12,446.7,1069.5)" />
<use xlink:href="#f3_23" transform="matrix(12,0,0,12,455.5,1069.5)" />
<use xlink:href="#f3_28" transform="matrix(12,0,0,12,465,1069.5)" />
<use xlink:href="#f3_21" transform="matrix(12,0,0,12,469.8,1069.5)" />
<use xlink:href="#f3_1y" transform="matrix(12,0,0,12,482.6,1069.5)" />
<use xlink:href="#f3_j" transform="matrix(12,0,0,12,491.4,1069.5)" />
<use xlink:href="#f3_2j" transform="matrix(12,0,0,12,496.5,1069.5)" />
<use xlink:href="#f3_20" transform="matrix(12,0,0,12,514.5,1069.5)" />
</g>
<g clip-path="url(#c3_41)">
<g fill="#000000" >
<use xlink:href="#f6_28" transform="matrix(11,0,0,12.5,526.3,1069.7)" />
</g>
</g>
<g fill="#000000" >
<use xlink:href="#f3_1x" transform="matrix(12,0,0,12,538.5,1069.5)" />
<use xlink:href="#f3_2a" transform="matrix(12,0,0,12,546.5,1069.5)" />
<use xlink:href="#f3_20" transform="matrix(12,0,0,12,555.3,1069.5)" />
<use xlink:href="#f3_2e" transform="matrix(12,0,0,12,569.3,1069.5)" />
<use xlink:href="#f3_i" transform="matrix(12,0,0,12,575.5,1069.5)" />
<use xlink:href="#f3_c" transform="matrix(12,0,0,12,55,1106.9)" />
<use xlink:href="#f3_25" transform="matrix(12,0,0,12,61.6,1106.9)" />
<use xlink:href="#f3_25" transform="matrix(12,0,0,12,66.4,1106.9)" />
<use xlink:href="#f3_25" transform="matrix(12,0,0,12,71.2,1106.9)" />
<use xlink:href="#f3_d" transform="matrix(12,0,0,12,75.9,1106.9)" />
<use xlink:href="#f3_25" transform="matrix(12,0,0,12,87.2,1106.9)" />
<use xlink:href="#f3_2a" transform="matrix(12,0,0,12,92,1106.9)" />
<use xlink:href="#f3_2i" transform="matrix(12,0,0,12,101.2,1106.9)" />
<use xlink:href="#f3_21" transform="matrix(12,0,0,12,110.3,1106.9)" />
<use xlink:href="#f3_2e" transform="matrix(12,0,0,12,118.4,1106.9)" />
<use xlink:href="#f3_2f" transform="matrix(12,0,0,12,124.6,1106.9)" />
<use xlink:href="#f3_21" transform="matrix(12,0,0,12,131.6,1106.9)" />
<use xlink:href="#f3_28" transform="matrix(12,0,0,12,140,1106.9)" />
<use xlink:href="#f3_2l" transform="matrix(12,0,0,12,145.1,1106.9)" />
<use xlink:href="#f3_2c" transform="matrix(12,0,0,12,158.3,1106.9)" />
<use xlink:href="#f3_2e" transform="matrix(12,0,0,12,167.5,1106.9)" />
<use xlink:href="#f3_2b" transform="matrix(12,0,0,12,173.7,1106.9)" />
<use xlink:href="#f3_2c" transform="matrix(12,0,0,12,183.2,1106.9)" />
<use xlink:href="#f3_2b" transform="matrix(12,0,0,12,192.4,1106.9)" />
<use xlink:href="#f3_2e" transform="matrix(12,0,0,12,201.6,1106.9)" />
<use xlink:href="#f3_2g" transform="matrix(12,0,0,12,207.4,1106.9)" />
<use xlink:href="#f3_25" transform="matrix(12,0,0,12,212.9,1106.9)" />
<use xlink:href="#f3_2b" transform="matrix(12,0,0,12,217.3,1106.9)" />
<use xlink:href="#f3_2a" transform="matrix(12,0,0,12,226.8,1106.9)" />
<use xlink:href="#f3_1x" transform="matrix(12,0,0,12,235.6,1106.9)" />
<use xlink:href="#f3_28" transform="matrix(12,0,0,12,244,1106.9)" />
<use xlink:href="#f3_2g" transform="matrix(12,0,0,12,253.6,1106.9)" />
<use xlink:href="#f3_2b" transform="matrix(12,0,0,12,259,1106.9)" />
<use xlink:href="#f3_2g" transform="matrix(12,0,0,12,272.6,1106.9)" />
<use xlink:href="#f3_24" transform="matrix(12,0,0,12,278.1,1106.9)" />
<use xlink:href="#f3_21" transform="matrix(12,0,0,12,286.9,1106.9)" />
<use xlink:href="#f3_2f" transform="matrix(12,0,0,12,299.7,1106.9)" />
<use xlink:href="#f3_2d" transform="matrix(12,0,0,12,306.7,1106.9)" />
<use xlink:href="#f3_2h" transform="matrix(12,0,0,12,315.8,1106.9)" />
<use xlink:href="#f3_1x" transform="matrix(12,0,0,12,325,1106.9)" />
<use xlink:href="#f3_2e" transform="matrix(12,0,0,12,333.1,1106.9)" />
<use xlink:href="#f3_21" transform="matrix(12,0,0,12,339.3,1106.9)" />
<use xlink:href="#f3_2b" transform="matrix(12,0,0,12,352.1,1106.9)" />
<use xlink:href="#f3_22" transform="matrix(12,0,0,12,361.6,1106.9)" />
<use xlink:href="#f3_2g" transform="matrix(12,0,0,12,371.9,1106.9)" />
<use xlink:href="#f3_24" transform="matrix(12,0,0,12,377.3,1106.9)" />
<use xlink:href="#f3_21" transform="matrix(12,0,0,12,386.1,1106.9)" />
<use xlink:href="#f3_20" transform="matrix(12,0,0,12,399,1106.9)" />
<use xlink:href="#f3_25" transform="matrix(12,0,0,12,408.1,1106.9)" />
<use xlink:href="#f3_2f" transform="matrix(12,0,0,12,412.9,1106.9)" />
<use xlink:href="#f3_2g" transform="matrix(12,0,0,12,419.9,1106.9)" />
<use xlink:href="#f3_1x" transform="matrix(12,0,0,12,425.3,1106.9)" />
<use xlink:href="#f3_2a" transform="matrix(12,0,0,12,433.4,1106.9)" />
<use xlink:href="#f3_1z" transform="matrix(12,0,0,12,442.2,1106.9)" />
<use xlink:href="#f3_21" transform="matrix(12,0,0,12,450.6,1106.9)" />
<use xlink:href="#f3_2b" transform="matrix(12,0,0,12,463.4,1106.9)" />
<use xlink:href="#f3_22" transform="matrix(12,0,0,12,472.9,1106.9)" />
<use xlink:href="#f3_2c" transform="matrix(12,0,0,12,483.2,1106.9)" />
<use xlink:href="#f3_2b" transform="matrix(12,0,0,12,492.4,1106.9)" />
<use xlink:href="#f3_25" transform="matrix(12,0,0,12,501.9,1106.9)" />
<use xlink:href="#f3_2a" transform="matrix(12,0,0,12,506.6,1106.9)" />
<use xlink:href="#f3_2g" transform="matrix(12,0,0,12,515.4,1106.9)" />
<use xlink:href="#f3_2c" transform="matrix(12,0,0,12,525.7,1106.9)" />
<use xlink:href="#f3_22" transform="matrix(12,0,0,12,539.6,1106.9)" />
<use xlink:href="#f3_2e" transform="matrix(12,0,0,12,545.1,1106.9)" />
<use xlink:href="#f3_2b" transform="matrix(12,0,0,12,551.3,1106.9)" />
<use xlink:href="#f3_29" transform="matrix(12,0,0,12,560.8,1106.9)" />
<use xlink:href="#f3_2g" transform="matrix(12,0,0,12,579.1,1106.9)" />
<use xlink:href="#f3_24" transform="matrix(12,0,0,12,584.6,1106.9)" />
<use xlink:href="#f3_21" transform="matrix(12,0,0,12,593.4,1106.9)" />
<use xlink:href="#f3_1z" transform="matrix(12,0,0,12,606.2,1106.9)" />
<use xlink:href="#f3_2h" transform="matrix(12,0,0,12,614.3,1106.9)" />
<use xlink:href="#f3_2e" transform="matrix(12,0,0,12,623.5,1106.9)" />
<use xlink:href="#f3_2e" transform="matrix(12,0,0,12,629.7,1106.9)" />
<use xlink:href="#f3_21" transform="matrix(12,0,0,12,635.9,1106.9)" />
<use xlink:href="#f3_2a" transform="matrix(12,0,0,12,644,1106.9)" />
<use xlink:href="#f3_2g" transform="matrix(12,0,0,12,652.8,1106.9)" />
<use xlink:href="#f3_21" transform="matrix(12,0,0,12,663,1106.9)" />
<use xlink:href="#f3_28" transform="matrix(12,0,0,12,671.1,1106.9)" />
<use xlink:href="#f3_21" transform="matrix(12,0,0,12,675.8,1106.9)" />
<use xlink:href="#f3_29" transform="matrix(12,0,0,12,684.2,1106.9)" />
<use xlink:href="#f3_21" transform="matrix(12,0,0,12,698.2,1106.9)" />
<use xlink:href="#f3_2a" transform="matrix(12,0,0,12,706.6,1106.9)" />
<use xlink:href="#f3_2g" transform="matrix(12,0,0,12,715.4,1106.9)" />
<use xlink:href="#f3_20" transform="matrix(12,0,0,12,725.6,1106.9)" />
<use xlink:href="#f3_12" transform="matrix(12,0,0,12,734.8,1106.9)" />
<use xlink:href="#f7_3b" transform="matrix(12,0,0,12,752.3,1106.9)" />
</g>
<path d="M773,1102.2h18.4" class="g4_41" />
<g clip-path="url(#c4_41)">
<g fill="#000000" >
<use xlink:href="#f3_m" transform="matrix(6.9,0,0,7.1,783.3,1113.3)" />
<use xlink:href="#f3_l" transform="matrix(12,0,0,12.4,777.4,1095)" />
<use xlink:href="#f6_2e" transform="matrix(12,0,0,12.4,774.2,1121.6)" />
</g>
</g>
<g fill="#000000" >
<use xlink:href="#f3_13" transform="matrix(12,0,0,12,55,1157.9)" />
<use xlink:href="#f3_2b" transform="matrix(12,0,0,12,67.1,1157.9)" />
<use xlink:href="#f3_29" transform="matrix(12,0,0,12,76.7,1157.9)" />
<use xlink:href="#f3_1y" transform="matrix(12,0,0,12,90.6,1157.9)" />
<use xlink:href="#f3_25" transform="matrix(12,0,0,12,99.8,1157.9)" />
<use xlink:href="#f3_2a" transform="matrix(12,0,0,12,104.5,1157.9)" />
<use xlink:href="#f3_25" transform="matrix(12,0,0,12,114,1157.9)" />
<use xlink:href="#f3_2a" transform="matrix(12,0,0,12,118.8,1157.9)" />
<use xlink:href="#f3_23" transform="matrix(12,0,0,12,128,1157.9)" />
<use xlink:href="#f3_1x" transform="matrix(12,0,0,12,141.9,1157.9)" />
<use xlink:href="#f3_28" transform="matrix(12,0,0,12,150.3,1157.9)" />
<use xlink:href="#f3_28" transform="matrix(12,0,0,12,155.1,1157.9)" />
<use xlink:href="#f3_2g" transform="matrix(12,0,0,12,164.6,1157.9)" />
<use xlink:href="#f3_24" transform="matrix(12,0,0,12,170.1,1157.9)" />
<use xlink:href="#f3_21" transform="matrix(12,0,0,12,178.9,1157.9)" />
<use xlink:href="#f3_25" transform="matrix(12,0,0,12,192,1157.9)" />
<use xlink:href="#f3_2a" transform="matrix(12,0,0,12,196.8,1157.9)" />
<use xlink:href="#f3_21" transform="matrix(12,0,0,12,206,1157.9)" />
<use xlink:href="#f3_2d" transform="matrix(12,0,0,12,214,1157.9)" />
<use xlink:href="#f3_2h" transform="matrix(12,0,0,12,223.2,1157.9)" />
<use xlink:href="#f3_1x" transform="matrix(12,0,0,12,232.4,1157.9)" />
<use xlink:href="#f3_28" transform="matrix(12,0,0,12,240.8,1157.9)" />
<use xlink:href="#f3_25" transform="matrix(12,0,0,12,245.9,1157.9)" />
<use xlink:href="#f3_2g" transform="matrix(12,0,0,12,250.3,1157.9)" />
<use xlink:href="#f3_25" transform="matrix(12,0,0,12,256.2,1157.9)" />
<use xlink:href="#f3_21" transform="matrix(12,0,0,12,260.9,1157.9)" />
<use xlink:href="#f3_2f" transform="matrix(12,0,0,12,269,1157.9)" />
</g>
<image preserveAspectRatio="none" x="252" y="127" width="405" height="115" xlink:href="img/6.png" />
<image preserveAspectRatio="none" x="207" y="294" width="496" height="331" xlink:href="img/7.png" />
<image preserveAspectRatio="none" x="385" y="879" width="138" height="130" xlink:href="img/8.png" />
<path fill-rule="evenodd" d="M37.4,38.1h.7v-.7h-.7v.7Z" class="g3_41" />
<path fill-rule="evenodd" d="M37.4,38.1h.7v-.7h-.7v.7Z" class="g3_41" />
<path fill-rule="evenodd" d="M38.1,38.1H871.5v-.7H38.1v.7Z" class="g3_41" />
<path fill-rule="evenodd" d="M871.5,38.1h.8v-.7h-.8v.7Z" class="g3_41" />
<path fill-rule="evenodd" d="M871.5,38.1h.8v-.7h-.8v.7Z" class="g3_41" />
<path fill-rule="evenodd" d="M37.4,1248.5h.7V38.1h-.7V1248.5Z" class="g3_41" />
<path fill-rule="evenodd" d="M872.3,1248.5h.7V38.1h-.7V1248.5Z" class="g3_41" />
<path fill-rule="evenodd" d="M871.5,1248.5h.8V38.1h-.8V1248.5Z" class="g3_41" />
<path fill-rule="evenodd" d="M37.4,1249.2h.7v-.7h-.7v.7Z" class="g3_41" />
<path fill-rule="evenodd" d="M37.4,1249.2h.7v-.7h-.7v.7Z" class="g3_41" />
<path fill-rule="evenodd" d="M38.1,1249.9H871.5v-.7H38.1v.7Z" class="g3_41" />
<path fill-rule="evenodd" d="M38.1,1249.2H871.5v-.7H38.1v.7Z" class="g3_41" />
<path fill-rule="evenodd" d="M872.3,1249.9h.7v-1.4h-.7v1.4Z" class="g3_41" />
<path fill-rule="evenodd" d="M871.5,1249.9H873v-.7h-1.5v.7Z" class="g3_41" />
<path fill-rule="evenodd" d="M871.5,1249.2h.8v-.7h-.8v.7Z" class="g3_41" />
<path fill-rule="evenodd" d="M871.5,1249.2h.8v-.7h-.8v.7Z" class="g3_41" />
<defs>
<path d="M489,-15c0,0,-99,0,-179,30c0,0,-80,30,-136,91c0,0,-56,61,-85,152c0,0,-30,91,-30,212c0,0,0,123,32,218c0,0,33,96,92,161c0,0,59,65,142,98c0,0,82,34,181,34c0,0,40,0,78,-7c0,0,37,-7,69,-18c0,0,31,-11,57,-25c0,0,25,-14,35,-24c0,0,10,-10,14,-17c0,0,4,-7,6,-17c0,0,2,-11,3,-25c0,0,2,-14,2,-35c0,0,0,-22,-2,-38c0,0,-1,-15,-5,-25c0,0,-4,-10,-9,-14c0,0,-5,-5,-12,-5c0,0,-11,0,-28,13c0,0,-18,13,-45,29c0,0,-27,16,-65,29c0,0,-37,13,-89,13c0,0,-58,0,-103,-23c0,0,-45,-23,-77,-67c0,0,-31,-44,-48,-106c0,0,-16,-61,-16,-139c0,0,0,-85,17,-147c0,0,18,-62,50,-103c0,0,33,-40,79,-60c0,0,45,-19,103,-19c0,0,52,0,90,12c0,0,38,12,65,27c0,0,27,15,45,27c0,0,17,12,27,12c0,0,8,0,12,-3c0,0,4,-3,7,-12c0,0,3,-9,5,-25c0,0,1,-16,1,-43c0,0,0,-18,-1,-31c0,0,-1,-14,-3,-23c0,0,-2,-9,-6,-16c0,0,-4,-7,-12,-15c0,0,-8,-9,-32,-22c0,0,-23,-14,-57,-26C661,13,627,1,583,-6c0,0,-43,-9,-94,-9Z" 
id="f0_j"
transform="scale(0.001,-0.001)" />

<path d="M440,150c0,0,41,0,68,8c0,0,28,9,49,26c0,0,20,16,32,41c0,0,11,25,11,58c0,0,0,33,-11,60c0,0,-11,26,-33,44c0,0,-21,18,-55,28c0,0,-33,9,-87,9H298V150ZM407,567c0,0,42,0,68,10c0,0,25,10,42,28c0,0,16,17,24,41c0,0,9,24,9,50c0,0,0,29,-9,52c0,0,-9,23,-27,39c0,0,-18,15,-45,23c0,0,-27,8,-72,8H298V567ZM164,0c0,0,-25,0,-42,15c0,0,-16,14,-16,47V903c0,0,0,33,16,48c0,0,17,14,42,14H406c0,0,88,0,150,-15c0,0,61,-15,103,-45c0,0,42,-30,65,-77c0,0,22,-46,22,-108c0,0,0,-36,-9,-67c0,0,-9,-31,-26,-56c0,0,-17,-25,-42,-45c0,0,-25,-19,-57,-31c0,0,41,-7,76,-26c0,0,34,-19,60,-48c0,0,26,-30,41,-69c0,0,15,-40,15,-89c0,0,0,-51,-14,-93c0,0,-15,-42,-40,-74c0,0,-25,-32,-59,-55c0,0,-35,-23,-77,-38C614,29,573,14,525,7C525,7,478,0,420,0Z" 
id="f0_i"
transform="scale(0.001,-0.001)" />

<path d="M320,-17c0,0,-50,0,-93,9c0,0,-43,8,-76,19c0,0,-32,11,-54,24C97,35,75,48,65,58c0,0,-10,9,-14,28c0,0,-4,18,-4,52c0,0,0,23,1,39c0,0,2,15,5,25c0,0,4,10,9,14c0,0,6,4,13,4c0,0,11,0,30,-12c0,0,19,-13,49,-28c0,0,30,-15,71,-27c0,0,42,-12,96,-12c0,0,36,0,64,8c0,0,29,9,49,25c0,0,19,15,30,38c0,0,10,23,10,52c0,0,0,33,-18,56c0,0,-18,24,-46,42c0,0,-29,18,-66,34c0,0,-36,16,-75,34c0,0,-39,18,-76,41c0,0,-36,23,-65,54c0,0,-29,32,-47,75c0,0,-17,44,-17,104c0,0,0,70,25,122c0,0,26,53,70,88c0,0,43,34,103,51c0,0,59,18,125,18c0,0,35,0,69,-6c0,0,34,-5,64,-14c0,0,30,-9,53,-20c0,0,23,-11,31,-18c0,0,7,-8,10,-13c0,0,3,-5,4,-14c0,0,2,-8,3,-21c0,0,1,-13,1,-33c0,0,0,-21,-1,-36c0,0,-1,-15,-4,-25c0,0,-3,-9,-7,-14c0,0,-5,-4,-14,-4c0,0,-8,0,-26,10c0,0,-18,10,-44,23c0,0,-26,12,-60,22c0,0,-34,10,-75,10c0,0,-32,0,-56,-8c0,0,-24,-8,-40,-21c0,0,-16,-14,-24,-34c0,0,-8,-19,-8,-41c0,0,0,-32,18,-56c0,0,17,-23,46,-42c0,0,30,-18,67,-34c0,0,38,-16,76,-34c0,0,39,-18,76,-41c0,0,38,-22,67,-54c0,0,29,-32,47,-75c0,0,18,-43,18,-101c0,0,0,-76,-29,-133c0,0,-28,-58,-77,-96C572,60,524,21,459,2c0,0,-65,-19,-139,-19Z" 
id="f0_2n"
transform="scale(0.001,-0.001)" />

<path d="M164,0c0,0,-25,0,-42,15c0,0,-16,14,-16,47V903c0,0,0,33,16,48c0,0,17,14,42,14H645c0,0,7,0,12,-4c0,0,5,-3,9,-13c0,0,4,-9,6,-24c0,0,2,-14,2,-36c0,0,0,-21,-2,-36c0,0,-2,-14,-6,-23c0,0,-4,-9,-9,-13c0,0,-5,-4,-12,-4H301V576H593c0,0,6,0,12,-4c0,0,6,-4,9,-13c0,0,4,-8,6,-23c0,0,2,-14,2,-35c0,0,0,-22,-2,-36c0,0,-2,-14,-6,-23c0,0,-3,-8,-9,-12c0,0,-6,-4,-12,-4H301V154H649c0,0,6,0,12,-5c0,0,5,-4,9,-13c0,0,4,-9,6,-23c0,0,2,-15,2,-36c0,0,0,-22,-2,-36c0,0,-2,-15,-6,-24c0,0,-4,-9,-9,-13c0,0,-6,-4,-12,-4Z" 
id="f0_t"
transform="scale(0.001,-0.001)" />

<path d="M79,297c0,0,-19,0,-27,18c0,0,-8,17,-8,60c0,0,0,41,8,59c0,0,8,17,27,17H389c0,0,9,0,15,-4c0,0,7,-4,11,-13c0,0,5,-9,7,-23c0,0,1,-15,1,-36c0,0,0,-43,-8,-61c0,0,-8,-17,-26,-17Z" 
id="f0_oj"
transform="scale(0.001,-0.001)" />

<path d="M121,-4c0,0,-39,0,-60,2C61,-2,39,0,32,8c0,0,-8,8,-3,24c0,0,4,15,18,41L279,495L64,892c0,0,-14,26,-19,42c0,0,-5,17,4,24c0,0,9,8,32,10c0,0,23,2,65,2c0,0,35,0,56,-2c0,0,20,-1,32,-4c0,0,12,-4,17,-10c0,0,5,-6,9,-15L431,620L595,939c0,0,5,9,10,15c0,0,5,6,16,10c0,0,10,3,29,4c0,0,19,2,53,2c0,0,37,0,59,-2c0,0,22,-2,30,-10c0,0,8,-8,4,-24c0,0,-4,-16,-17,-42L564,497L793,73c0,0,14,-26,18,-41c0,0,4,-16,-5,-24c0,0,-9,-8,-32,-10c0,0,-24,-2,-65,-2c0,0,-36,0,-56,2c0,0,-20,1,-31,3c0,0,-12,4,-17,10c0,0,-5,6,-9,15L414,374L233,26c0,0,-4,-9,-9,-15c0,0,-6,-6,-17,-10c0,0,-12,-2,-32,-3c0,0,-21,-2,-54,-2Z" 
id="f0_3e"
transform="scale(0.001,-0.001)" />

<path d="M204,-4c0,0,-28,0,-47,2c0,0,-19,2,-31,5c0,0,-11,4,-16,10c0,0,-4,6,-4,13V939c0,0,0,7,4,13c0,0,5,6,17,10c0,0,11,3,30,6c0,0,19,2,47,2c0,0,29,0,48,-2c0,0,18,-3,29,-6c0,0,11,-4,16,-10c0,0,5,-6,5,-13V26c0,0,0,-7,-5,-13c0,0,-5,-6,-16,-10c0,0,-11,-3,-29,-5c0,0,-19,-2,-48,-2Z" 
id="f0_1c"
transform="scale(0.001,-0.001)" />

<path d="M127,0c0,0,-16,0,-28,3C99,3,87,6,80,15c0,0,-8,8,-11,25c0,0,-3,16,-3,42c0,0,0,25,2,42c0,0,2,18,8,32c0,0,6,14,15,27c0,0,9,13,24,29L282,390c0,0,50,53,81,95c0,0,30,43,47,79c0,0,17,35,24,65c0,0,6,30,6,57c0,0,0,24,-8,46c0,0,-8,22,-23,39c0,0,-15,16,-38,25c0,0,-23,10,-55,10c0,0,-44,0,-78,-12c0,0,-33,-11,-59,-25c0,0,-26,-13,-43,-25c0,0,-17,-12,-27,-12c0,0,-7,0,-11,5c0,0,-5,4,-8,15c0,0,-3,10,-5,28c0,0,-2,17,-2,42c0,0,0,18,1,29c0,0,1,12,4,20c0,0,2,9,6,15c0,0,3,6,13,15c0,0,9,9,34,23c0,0,25,14,61,27c0,0,37,14,81,23c0,0,44,9,92,9c0,0,75,0,131,-19c0,0,57,-19,94,-53c0,0,37,-34,55,-81c0,0,19,-47,19,-100c0,0,0,-47,-9,-93c0,0,-9,-45,-37,-98c0,0,-29,-52,-80,-116c0,0,-52,-64,-136,-148L299,159H679c0,0,8,0,14,-4c0,0,6,-5,11,-14c0,0,4,-9,7,-25c0,0,2,-15,2,-36c0,0,0,-22,-2,-37c0,0,-2,-15,-6,-25c0,0,-3,-10,-9,-14c0,0,-6,-4,-14,-4Z" 
id="f0_rz"
transform="scale(0.001,-0.001)" />

<path d="M385,138c0,0,29,0,52,9c0,0,22,10,39,28c0,0,17,19,28,47c0,0,11,29,19,66c0,0,7,37,9,84c0,0,3,47,3,104c0,0,0,69,-4,122c0,0,-4,52,-11,91c0,0,-8,39,-20,66c0,0,-12,27,-28,43c0,0,-16,16,-37,22c0,0,-21,7,-47,7c0,0,-44,0,-73,-21c0,0,-28,-21,-45,-64c0,0,-17,-42,-24,-106c0,0,-6,-63,-6,-148c0,0,0,-103,8,-171c0,0,8,-67,26,-107c0,0,17,-40,45,-56c0,0,27,-16,66,-16ZM378,-17c0,0,-99,0,-164,33c0,0,-65,34,-103,98c0,0,-38,64,-54,156c0,0,-15,92,-15,209c0,0,0,115,19,208c0,0,19,94,61,160c0,0,42,65,110,101c0,0,68,35,165,35c0,0,99,0,164,-34c0,0,65,-34,103,-98c0,0,39,-64,53,-156c0,0,15,-92,15,-209c0,0,0,-115,-18,-209c0,0,-19,-93,-61,-159C653,118,611,53,543,17c0,0,-67,-34,-165,-34Z" 
id="f0_rx"
transform="scale(0.001,-0.001)" />

<path d="M142,0c0,0,-6,0,-12,4c0,0,-5,3,-9,12c0,0,-4,9,-6,23c0,0,-3,15,-3,36c0,0,0,21,2,36c0,0,2,14,6,23c0,0,4,9,10,13c0,0,5,5,12,5H322V779L166,693c0,0,-17,-8,-28,-10c0,0,-1,0,-3,0c-4,0,-10,1,-14,5c0,0,-6,6,-8,22c0,0,-2,15,-2,44c0,0,0,18,0,29c0,0,1,12,4,20c0,0,3,8,8,14c0,0,5,5,14,11L345,962c0,0,4,3,9,5c0,0,6,2,15,3c0,0,9,1,23,2c0,0,15,0,38,0c0,0,28,0,46,-1c0,0,17,-1,26,-4c0,0,9,-3,12,-7c0,0,3,-4,3,-11V152H675c0,0,7,0,12,-5c0,0,6,-4,10,-13c0,0,4,-9,6,-23c0,0,2,-15,2,-36c0,0,0,-21,-2,-36c0,0,-3,-14,-7,-23c0,0,-4,-9,-9,-12c0,0,-5,-4,-12,-4Z" 
id="f0_ry"
transform="scale(0.001,-0.001)" />

<path d="M259,-4c0,0,-39,0,-62,3c0,0,-23,1,-34,7c0,0,-11,6,-12,14c0,0,-1,9,5,21L498,796H92c0,0,-16,0,-24,20c0,0,-7,21,-7,65c0,0,0,22,2,38c0,0,2,16,6,27c0,0,4,10,10,15c0,0,6,4,13,4H666c0,0,13,0,22,-3c0,0,9,-2,14,-11c0,0,6,-9,8,-25c0,0,3,-17,3,-43c0,0,0,-22,-2,-38c0,0,-1,-16,-4,-30c0,0,-2,-13,-7,-26c0,0,-4,-12,-10,-26L372,26c0,0,-5,-10,-12,-16c0,0,-7,-6,-20,-9c0,0,-12,-3,-32,-4c0,0,-20,-1,-49,-1Z" 
id="f0_s4"
transform="scale(0.001,-0.001)" />

<path d="M589,371L453,782h-1L317,371ZM106,-4c0,0,-35,0,-54,2C52,-2,32,0,25,8c0,0,-7,9,-5,24c0,0,2,16,11,42L329,931c0,0,4,13,10,21c0,0,6,7,19,12c0,0,13,4,36,5c0,0,23,1,61,1c0,0,44,0,71,-1c0,0,26,-1,40,-5c0,0,15,-5,21,-13c0,0,6,-8,11,-22L896,73c0,0,9,-27,11,-43c0,0,3,-15,-6,-23c0,0,-8,-7,-29,-9c0,0,-21,-2,-57,-2c0,0,-38,0,-59,1c0,0,-22,1,-33,4c0,0,-11,3,-16,9c0,0,-4,6,-7,16L635,220H272L211,31c0,0,-2,-11,-7,-18c0,0,-5,-7,-16,-11c0,0,-11,-3,-31,-4c0,0,-19,-2,-51,-2Z" 
id="f0_5"
transform="scale(0.001,-0.001)" />

<path d="M198,-4c0,0,-27,0,-45,2c0,0,-18,2,-28,5c0,0,-11,4,-15,10c0,0,-4,6,-4,13V887c0,0,0,38,20,58c0,0,20,20,53,20H308c0,0,34,0,59,-6c0,0,24,-5,42,-18c0,0,18,-13,30,-35c0,0,12,-21,21,-52L669,279h3L889,852c0,0,9,32,21,53c0,0,11,22,27,35c0,0,15,14,36,19c0,0,21,6,48,6h132c0,0,21,0,35,-5c0,0,15,-5,24,-15c0,0,9,-11,14,-25c0,0,5,-15,5,-33V26c0,0,0,-7,-4,-13c0,0,-4,-6,-15,-10c0,0,-11,-3,-29,-5c0,0,-18,-2,-45,-2c0,0,-27,0,-45,2c0,0,-18,2,-28,5c0,0,-11,4,-15,10c0,0,-5,6,-5,13V813h-1L764,27c0,0,-3,-10,-10,-16c0,0,-6,-6,-18,-10c0,0,-12,-3,-29,-4c0,0,-18,-1,-44,-1c0,0,-25,0,-43,2c0,0,-18,2,-29,5c0,0,-12,4,-19,10c0,0,-6,6,-9,14L293,813h-2V26c0,0,0,-7,-4,-13c0,0,-4,-6,-15,-10c0,0,-11,-3,-29,-5c0,0,-17,-2,-45,-2Z" 
id="f0_1x"
transform="scale(0.001,-0.001)" />

<path d="M193,-4c0,0,-26,0,-43,2c0,0,-18,2,-27,6c0,0,-10,4,-14,10c0,0,-3,6,-3,13V895c0,0,0,35,20,53c0,0,21,17,50,17H282c0,0,28,0,47,-5c0,0,20,-5,35,-16c0,0,15,-11,29,-31c0,0,13,-20,27,-49L608,511c0,0,17,-32,33,-63c0,0,16,-31,31,-62c0,0,14,-31,29,-60c0,0,14,-30,27,-60h1c0,0,-2,52,-3,109c0,0,-1,57,-1,108V936c0,0,0,7,4,13c0,0,5,6,15,11c0,0,10,4,28,6c0,0,17,2,44,2c0,0,25,0,42,-2c0,0,17,-2,27,-6c0,0,9,-5,13,-11c0,0,4,-6,4,-13V68c0,0,0,-17,-6,-30c0,0,-6,-14,-17,-23C879,15,869,6,856,2c0,0,-14,-3,-28,-3H744c0,0,-26,0,-45,4c0,0,-19,5,-35,19c0,0,-16,14,-31,38c0,0,-15,23,-34,60L359,572c0,0,-21,40,-43,86c0,0,-21,47,-38,91h-2c0,0,3,-54,5,-107c0,0,2,-53,2,-110V27c0,0,0,-7,-5,-13c0,0,-4,-6,-14,-10c0,0,-10,-4,-27,-6c0,0,-17,-2,-44,-2Z" 
id="f0_1y"
transform="scale(0.001,-0.001)" />

<path d="M378,-4c0,0,-28,0,-47,2c0,0,-19,2,-31,5c0,0,-11,4,-16,10c0,0,-4,6,-4,13V805H38c0,0,-8,0,-13,4c0,0,-5,5,-9,14c0,0,-3,9,-5,25c0,0,-2,15,-2,37c0,0,0,22,2,38c0,0,2,15,5,25c0,0,4,9,9,13c0,0,5,4,13,4H718c0,0,7,0,12,-4c0,0,6,-4,10,-13c0,0,3,-10,5,-25c0,0,2,-16,2,-38c0,0,0,-22,-2,-37c0,0,-2,-16,-5,-25c0,0,-4,-9,-10,-14c0,0,-5,-4,-12,-4H476V26c0,0,0,-7,-5,-13c0,0,-5,-6,-16,-10c0,0,-11,-3,-30,-5c0,0,-19,-2,-47,-2Z" 
id="f0_2t"
transform="scale(0.001,-0.001)" />

<path d="M514,145c0,0,72,0,121,27c0,0,48,26,78,73c0,0,30,46,42,107c0,0,13,62,13,131c0,0,0,76,-12,139c0,0,-12,62,-41,106c0,0,-29,45,-76,69c0,0,-48,24,-120,24c0,0,-72,0,-120,-27c0,0,-49,-27,-79,-73c0,0,-29,-45,-42,-106c0,0,-12,-61,-12,-129c0,0,0,-79,12,-142c0,0,12,-63,40,-108c0,0,28,-44,76,-68c0,0,48,-23,120,-23ZM508,-17c0,0,-113,0,-196,29c0,0,-84,29,-140,90c0,0,-56,60,-84,154c0,0,-28,93,-28,221c0,0,0,117,29,210c0,0,30,94,89,160c0,0,59,65,146,101c0,0,87,35,202,35c0,0,110,0,194,-29c0,0,84,-30,140,-90c0,0,56,-60,85,-153c0,0,29,-92,29,-217c0,0,0,-120,-30,-215c0,0,-30,-95,-89,-161C855,118,796,52,709,17c0,0,-87,-34,-201,-34Z" 
id="f0_24"
transform="scale(0.001,-0.001)" />

<path d="M299,0V777H162l36,173H508V0Z" 
id="f1_l"
transform="scale(0.001,-0.001)" />

<path d="M402,179c0,0,58,0,100,45c0,0,42,45,42,107c0,0,0,65,-41,108c0,0,-41,44,-101,44c0,0,-65,0,-110,-44c0,0,-45,-45,-45,-109c0,0,0,-64,45,-107c0,0,44,-44,110,-44ZM390,-11c0,0,-150,0,-247,94c0,0,-97,96,-97,243c0,0,0,106,48,217c0,0,49,111,108,194L356,952H605L372,631c0,0,48,9,88,9c0,0,123,0,212,-91c0,0,89,-92,89,-219c0,0,0,-148,-105,-245c0,0,-105,-96,-266,-96Z" 
id="f1_q"
transform="scale(0.001,-0.001)" />

<path d="M44,-281L425,1053H537L156,-281Z" 
id="f1_j"
transform="scale(0.001,-0.001)" />

<path d="M75,0L400,413c0,0,71,91,101,149c0,0,30,58,30,109c0,0,0,55,-36,91c0,0,-36,36,-91,36c0,0,-63,0,-91,-45c0,0,-28,-46,-34,-142H67c0,0,0,173,102,268c0,0,102,95,253,95c0,0,140,0,229,-82c0,0,89,-82,89,-209c0,0,0,-125,-104,-276L580,324c0,0,-34,-50,-85,-114L468,178H740V0Z" 
id="f1_m"
transform="scale(0.001,-0.001)" />

<path d="M403,168c0,0,50,0,85,37c0,0,35,36,35,89c0,0,0,50,-35,85c0,0,-35,36,-85,36c0,0,-47,0,-81,-37c0,0,-35,-37,-35,-89c0,0,0,-47,36,-84c0,0,35,-37,80,-37Zm3,426c0,0,39,0,70,28c0,0,31,29,31,65c0,0,0,46,-28,77c0,0,-29,31,-73,31c0,0,-42,0,-71,-29c0,0,-28,-29,-28,-70c0,0,0,-44,28,-73c0,0,29,-29,71,-29Zm2,-605c0,0,-145,0,-234,75c0,0,-90,76,-90,197c0,0,0,150,140,239c0,0,-59,52,-87,101c0,0,-27,49,-27,112c0,0,0,103,77,179c0,0,77,75,216,75c0,0,136,0,217,-68c0,0,81,-68,81,-180c0,0,0,-130,-115,-217c0,0,140,-90,140,-237c0,0,0,-124,-89,-200c0,0,-88,-76,-229,-76Z" 
id="f1_s"
transform="scale(0.001,-0.001)" />

<path d="M410,-14c0,0,-86,0,-175,14C235,0,145,14,81,38V307h66L181,146c0,0,31,-37,94,-62c0,0,64,-24,132,-24c0,0,214,0,214,177c0,0,0,55,-41,93c0,0,-41,38,-128,68c0,0,-128,42,-185,68c0,0,-56,27,-95,63c0,0,-38,36,-62,87c0,0,-23,51,-23,125c0,0,0,132,90,201c0,0,90,69,263,69c0,0,125,0,278,-32V741H651L618,878c0,0,-76,56,-178,56c0,0,-92,0,-141,-34c0,0,-49,-34,-49,-104c0,0,0,-50,41,-86c0,0,41,-35,128,-63c0,0,171,-56,235,-97c0,0,64,-41,97,-103c0,0,34,-61,34,-143c0,0,0,-318,-375,-318Z" 
id="f2_1j"
transform="scale(0.001,-0.001)" />

<path d="M379,60c0,0,59,0,84,64c0,0,24,65,24,231c0,0,0,164,-24,227c0,0,-24,63,-84,63c0,0,-57,0,-80,-60c0,0,-22,-61,-22,-230c0,0,0,-173,23,-234c0,0,22,-61,79,-61Zm-2,-74c0,0,-161,0,-240,91c0,0,-79,91,-79,277c0,0,0,186,80,276c0,0,81,90,245,90c0,0,167,0,245,-93c0,0,78,-93,78,-273c0,0,0,-188,-81,-278c0,0,-81,-90,-248,-90Z" 
id="f2_2b"
transform="scale(0.001,-0.001)" />

<path d="M30,0V49l76,18V992l-72,18v50H322V67L398,49V0Z" 
id="f2_28"
transform="scale(0.001,-0.001)" />

<path d="M287,-18c0,0,-194,0,-194,206V634L23,652v49H309V217c0,0,0,-63,26,-98c0,0,27,-35,76,-35c0,0,57,0,113,25V634l-64,18v49H740V67L809,49V0H536L526,61L475,35c0,0,-104,-53,-188,-53Z" 
id="f2_2h"
transform="scale(0.001,-0.001)" />

<path d="M327,-14c0,0,-101,0,-156,45c0,0,-55,45,-55,131V624H25v48l108,29l87,159H332V701H480V624H332V176c0,0,0,-49,20,-73c0,0,20,-25,53,-25c0,0,40,0,97,12V26c0,0,-22,-15,-76,-27c0,0,-55,-13,-99,-13Z" 
id="f2_2g"
transform="scale(0.001,-0.001)" />

<path d="M34,0V49l76,18V634L38,652v49H325V67L402,49V0ZM217,831c0,0,-48,0,-81,33c0,0,-34,33,-34,82c0,0,0,48,34,81c0,0,34,33,81,33c0,0,48,0,81,-33c0,0,33,-33,33,-81c0,0,0,-47,-33,-81c0,0,-32,-34,-81,-34Z" 
id="f2_25"
transform="scale(0.001,-0.001)" />

<path d="M41,0V49l69,18V634L41,652v49H313l11,-61l50,26c0,0,105,54,188,54c0,0,194,0,194,-207V67L827,49V0H478V49l63,18V484c0,0,0,63,-27,98c0,0,-26,35,-75,35c0,0,-57,0,-114,-25V67L389,49V0Z" 
id="f2_2a"
transform="scale(0.001,-0.001)" />

<path d="M248,-20c0,0,-52,0,-87,34c0,0,-36,36,-36,88c0,0,0,52,36,88c0,0,35,36,87,36c0,0,52,0,88,-36c0,0,36,-36,36,-88c0,0,0,-51,-36,-87c0,0,-35,-35,-88,-35Zm0,488c0,0,-52,0,-87,36c0,0,-36,36,-36,88c0,0,0,52,35,88c0,0,35,36,88,36c0,0,53,0,89,-36c0,0,35,-37,35,-88c0,0,0,-51,-36,-87c0,0,-35,-37,-88,-37Z" 
id="f2_u"
transform="scale(0.001,-0.001)" />

<path d="M460,-325c0,0,-148,79,-231,172c0,0,-84,93,-123,217c0,0,-39,126,-39,304c0,0,0,178,39,303c0,0,39,125,122,217c0,0,82,93,232,172V997c0,0,-91,-52,-145,-134c0,0,-54,-81,-79,-190c0,0,-25,-109,-25,-305c0,0,0,-194,26,-309c0,0,26,-114,82,-193c0,0,56,-79,141,-128v-63Z" 
id="f3_c"
transform="scale(0.001,-0.001)" />

<path d="M284,67c0,0,51,0,88,12c0,0,37,12,74,30V358l-98,-3c0,0,-100,-4,-135,-39c0,0,-35,-35,-35,-117c0,0,0,-132,106,-132ZM233,-14c0,0,-179,0,-179,208c0,0,0,70,27,116c0,0,27,46,87,70c0,0,60,24,173,27l105,3V519c0,0,0,72,-26,107c0,0,-27,34,-82,34c0,0,-75,0,-137,-35L176,538H134V691c0,0,121,26,213,26c0,0,115,0,169,-47c0,0,54,-47,54,-144V52L657,33V0H465L451,70c0,0,-85,-84,-218,-84Z" 
id="f3_1x"
transform="scale(0.001,-0.001)" />

<path d="M49,-325v63c0,0,85,49,140,128c0,0,56,79,83,194c0,0,26,115,26,308c0,0,0,196,-25,305c0,0,-25,109,-79,190c0,0,-54,82,-145,134v63c0,0,149,-80,232,-172c0,0,83,-92,122,-217c0,0,39,-125,39,-303c0,0,0,-177,-39,-303c0,0,-39,-125,-122,-217c0,0,-83,-93,-232,-173Z" 
id="f3_d"
transform="scale(0.001,-0.001)" />

<path d="M448,506c0,0,134,0,190,49c0,0,57,50,57,168c0,0,0,114,-56,162c0,0,-56,48,-195,48H316V506ZM777,0L496,438H316V60L468,40V0H54V40L172,60V941L44,960v40H476c0,0,188,0,277,-63c0,0,90,-64,90,-204c0,0,0,-100,-54,-173c0,0,-55,-73,-151,-101L909,60L1017,40V0Z" 
id="f3_1i"
transform="scale(0.001,-0.001)" />

<path d="M148,-329c0,0,-58,0,-114,13v151H69l24,-71c0,0,23,-17,64,-17c0,0,39,0,72,22c0,0,33,23,60,67c0,0,27,44,68,157L90,649L19,668v33H344V668L233,648L423,158L606,649L497,668v33H758V668L685,652L411,-43c0,0,-48,-124,-84,-177c0,0,-36,-54,-79,-82c0,0,-44,-27,-100,-27Z" 
id="f3_2l"
transform="scale(0.001,-0.001)" />

<path d="M383,64c0,0,85,0,152,28V645c0,0,-67,13,-152,13c0,0,-194,0,-194,-314c0,0,0,-141,48,-211c0,0,48,-69,146,-69ZM342,-14c0,0,-287,0,-287,358c0,0,0,184,82,280c0,0,81,96,239,96c0,0,81,0,163,-18c0,0,-4,25,-4,124v182l-118,18v34H659V52L745,33V0H548l-9,52c0,0,-84,-66,-197,-66Z" 
id="f3_20"
transform="scale(0.001,-0.001)" />

<path d="M32,0V33L151,52V649L52,668v33H275V52L395,33V0ZM201,850c0,0,-32,0,-56,24c0,0,-24,24,-24,56c0,0,0,34,24,58c0,0,24,24,56,24c0,0,34,0,58,-24c0,0,24,-24,24,-58c0,0,0,-32,-24,-56c0,0,-24,-24,-58,-24Z" 
id="f3_25"
transform="scale(0.001,-0.001)" />

<path d="M359,-270c0,0,124,0,192,46c0,0,67,47,67,129c0,0,0,43,-26,67c0,0,-26,24,-79,24H242c0,0,-32,-27,-51,-69c0,0,-20,-41,-20,-77c0,0,0,-64,46,-92c0,0,46,-28,142,-28Zm11,561c0,0,81,0,115,47c0,0,34,47,34,141c0,0,0,100,-35,142c0,0,-35,42,-113,42c0,0,-78,0,-114,-43c0,0,-37,-42,-37,-141c0,0,0,-98,36,-143c0,0,36,-45,114,-45ZM359,-329c0,0,-143,0,-218,44c0,0,-75,43,-75,125c0,0,0,39,27,78c0,0,26,38,98,89c0,0,-43,14,-72,48c0,0,-29,35,-29,74L208,262c0,0,-118,55,-118,217c0,0,0,115,73,178c0,0,73,63,211,63c0,0,28,0,71,-6c0,0,44,-6,67,-13l165,83l26,-32L599,644c0,0,50,-56,50,-165c0,0,0,-120,-72,-182c0,0,-73,-62,-208,-62c0,0,-62,0,-114,11L208,148c0,0,2,-13,29,-24c0,0,27,-12,67,-12H512c0,0,113,0,168,-49c0,0,55,-49,55,-134c0,0,0,-79,-44,-137c0,0,-43,-58,-128,-90c0,0,-84,-31,-204,-31Z" 
id="f3_23"
transform="scale(0.001,-0.001)" />

<path d="M31,0V33l88,19V649L31,668v33H235l7,-87c0,0,44,37,121,71c0,0,76,35,121,35h11V530H463l-43,82c0,0,-37,0,-88,-10c0,0,-52,-10,-89,-26V52L363,33V0Z" 
id="f3_2e"
transform="scale(0.001,-0.001)" />

<path d="M431,0V33L535,52V499c0,0,0,62,-32,96c0,0,-32,33,-95,33c0,0,-66,0,-163,-22V52L350,33V0H32V33l89,19V649L32,668v33H237l6,-57c0,0,56,32,119,54c0,0,62,22,110,22c0,0,52,0,95,-20c0,0,44,-19,66,-62c0,0,57,32,134,57c0,0,77,25,128,25c0,0,179,0,179,-207V52l90,-19V0H846V33L950,52V499c0,0,0,129,-119,129c0,0,-19,0,-45,-3c0,0,-26,-3,-52,-7c0,0,-25,-4,-49,-8c0,0,-23,-5,-39,-8c0,0,13,-41,13,-89V52L764,33V0Z" 
id="f3_29"
transform="scale(0.001,-0.001)" />

<path d="M377,45c0,0,99,0,147,73c0,0,47,73,47,237c0,0,0,161,-47,233c0,0,-47,72,-147,72c0,0,-97,0,-141,-69c0,0,-44,-69,-44,-236c0,0,0,-169,45,-240c0,0,44,-70,140,-70Zm0,-59c0,0,-158,0,-238,94c0,0,-81,95,-81,274c0,0,0,178,81,272c0,0,80,94,244,94c0,0,160,0,241,-92c0,0,82,-92,82,-274c0,0,0,-368,-329,-368Z" 
id="f3_2b"
transform="scale(0.001,-0.001)" />

<path d="M64,0V34L168,59V639H47v36l121,29v49c0,0,0,155,61,239c0,0,62,84,173,84c0,0,58,0,107,-15V908H472l-33,92c0,0,-26,16,-62,16c0,0,-47,0,-66,-42c0,0,-19,-42,-19,-157V701H478V639H292V59L443,34V0Z" 
id="f3_22"
transform="scale(0.001,-0.001)" />

<path d="M681,416L504,902L333,416ZM669,0V40L803,60L704,348H310L210,60L344,40V0H15V40L128,60l341,949H611L965,60L1092,40V0Z" 
id="f3_11"
transform="scale(0.001,-0.001)" />

<path d="M278,-14c0,0,-52,0,-115,11c0,0,-63,10,-99,23V193H98L134,95c0,0,56,-50,146,-50c0,0,144,0,144,123c0,0,0,91,-114,130l-66,21c0,0,-75,25,-110,50c0,0,-34,26,-53,63c0,0,-18,36,-18,89c0,0,0,92,63,145c0,0,63,54,170,54c0,0,77,0,193,-23V544H454l-32,81c0,0,-39,35,-124,35c0,0,-61,0,-92,-30c0,0,-32,-30,-32,-80c0,0,0,-43,29,-72c0,0,28,-29,86,-48c0,0,110,-38,144,-55c0,0,33,-17,57,-42c0,0,23,-25,36,-57c0,0,13,-32,13,-79c0,0,0,-104,-66,-158c0,0,-66,-53,-195,-53Z" 
id="f3_2f"
transform="scale(0.001,-0.001)" />

<path d="M249,-14c0,0,-71,0,-107,42c0,0,-35,42,-35,119V639H15v33l93,29l76,159h47V701H391V639H231V161c0,0,0,-48,22,-73c0,0,22,-24,57,-24c0,0,44,0,106,12V26C416,26,389,8,340,-2c0,0,-49,-12,-91,-12Z" 
id="f3_2g"
transform="scale(0.001,-0.001)" />

<path d="M439,0V33l93,19V500c0,0,0,62,-30,97c0,0,-31,36,-94,36c0,0,-67,0,-165,-22V52L338,33V0H35V33l84,19V649L35,668v33H235l7,-57c0,0,57,33,122,54c0,0,65,22,108,22c0,0,91,0,137,-53c0,0,47,-53,47,-154V52L741,33V0Z" 
id="f3_2a"
transform="scale(0.001,-0.001)" />

<path d="M399,-14c0,0,-341,0,-341,370c0,0,0,175,87,269c0,0,87,95,249,95c0,0,101,0,220,-23V501H573L541,625c0,0,-62,35,-149,35c0,0,-200,0,-200,-304c0,0,0,-158,61,-225c0,0,61,-67,189,-67c0,0,109,0,189,24V43C631,43,595,16,530,1c0,0,-64,-15,-131,-15Z" 
id="f3_1z"
transform="scale(0.001,-0.001)" />

<path d="M31,0V33L150,52v956L31,1026v34H274V52L394,33V0Z" 
id="f3_28"
transform="scale(0.001,-0.001)" />

<path d="M495,413c0,0,0,133,-34,190c0,0,-34,57,-105,57c0,0,-78,0,-119,-63c0,0,-42,-62,-42,-184ZM374,-14c0,0,-163,0,-239,87c0,0,-75,88,-75,283c0,0,0,183,77,273c0,0,76,91,219,91c0,0,269,0,269,-306V353H194V340c0,0,0,-103,23,-160c0,0,22,-57,70,-87c0,0,47,-29,124,-29c0,0,40,0,96,6c0,0,55,7,91,15V43C598,43,562,20,500,3c0,0,-61,-17,-126,-17Z" 
id="f3_21"
transform="scale(0.001,-0.001)" />

<path d="M382,45c0,0,188,0,188,314c0,0,0,143,-47,213c0,0,-46,69,-141,69c0,0,-87,0,-146,-24V58c0,0,67,-13,146,-13ZM25,-325v35l88,18V649L34,668v33H231l1,-41c0,0,31,27,84,43c0,0,53,17,107,17c0,0,134,0,208,-94c0,0,73,-93,73,-267c0,0,0,-178,-80,-276c0,0,-80,-97,-232,-97c0,0,-84,0,-160,16c0,0,4,-53,4,-84V-272l123,-18v-35Z" 
id="f3_2c"
transform="scale(0.001,-0.001)" />

<path d="M211,-20c0,0,-39,0,-64,25c0,0,-26,27,-26,64c0,0,0,38,26,64c0,0,26,26,64,26c0,0,37,0,64,-25c0,0,26,-26,26,-65c0,0,0,-37,-26,-64c0,0,-26,-25,-64,-25Zm0,556c0,0,-38,0,-64,26c0,0,-26,26,-26,64c0,0,0,37,26,64c0,0,25,27,64,27c0,0,38,0,64,-27c0,0,26,-27,26,-64c0,0,0,-38,-26,-64c0,0,-27,-26,-64,-26Z" 
id="f3_u"
transform="scale(0.001,-0.001)" />

<path d="M376,50c0,0,103,0,149,80c0,0,46,81,46,240c0,0,0,137,-47,204c0,0,-48,67,-148,67c0,0,-44,0,-87,-7c0,0,-44,-8,-63,-17V62c0,0,63,-12,150,-12Zm3,-64c0,0,-64,0,-141,14c0,0,-78,14,-136,37v971L0,1026v34H226V809c0,0,0,-40,-4,-148c0,0,74,59,188,59c0,0,143,0,219,-87c0,0,77,-87,77,-263c0,0,0,-189,-84,-287c0,0,-84,-97,-243,-97Z" 
id="f3_1y"
transform="scale(0.001,-0.001)" />

<path d="M420,-22L89,941L1,960v40H383V960L236,941L474,236L744,930h33L1037,236l227,705l-156,19v40h331V960l-87,-19L1025,-22H985L726,666L460,-22Z" 
id="f3_1n"
transform="scale(0.001,-0.001)" />

<path d="M289,-14c0,0,-179,0,-179,205V649L20,668v33H233V200c0,0,0,-128,120,-128c0,0,92,0,173,23V649L420,668v33H649V52L738,33V0H533l-6,57C527,57,474,28,405,7c0,0,-69,-21,-116,-21Z" 
id="f3_2h"
transform="scale(0.001,-0.001)" />

<path d="M44,0V40L172,60V941L44,960v40H471V960L316,941V65H513c0,0,159,0,234,14l46,208h48L828,0Z" 
id="f3_1c"
transform="scale(0.001,-0.001)" />

<path d="M134,0V40L339,60V876L137,804v39l292,166h39V60L672,40V0Z" 
id="f3_l"
transform="scale(0.001,-0.001)" />

<path d="M64,-325c0,0,-46,0,-107,14v148H-8l19,-81c0,0,25,-21,62,-21c0,0,44,0,67,47c0,0,22,47,22,152V649L57,668v33H286V-28c0,0,0,-146,-57,-221c0,0,-56,-76,-165,-76ZM213,850c0,0,-34,0,-58,24c0,0,-24,24,-24,56c0,0,0,34,24,58c0,0,24,24,58,24c0,0,32,0,56,-24c0,0,24,-24,24,-58c0,0,0,-32,-24,-56c0,0,-24,-24,-56,-24Z" 
id="f3_26"
transform="scale(0.001,-0.001)" />

<path d="M360,-14L72,649L0,668v33H327V668L216,648L420,164L615,649L504,668v33H764V668L697,652L416,-14Z" 
id="f3_2i"
transform="scale(0.001,-0.001)" />

<path d="M442,0V33l93,19V504c0,0,0,129,-124,129c0,0,-70,0,-168,-22V52L338,33V0H31V33l88,19v956L15,1026v34H243V756c0,0,0,-77,-5,-112c0,0,54,31,122,53c0,0,68,23,115,23c0,0,91,0,137,-53c0,0,47,-53,47,-154V52L744,33V0Z" 
id="f3_24"
transform="scale(0.001,-0.001)" />

<path d="M191,-20c0,0,-39,0,-65,25c0,0,-25,27,-25,64c0,0,0,38,26,64c0,0,26,26,64,26c0,0,38,0,64,-26c0,0,26,-26,26,-64c0,0,0,-37,-25,-64c0,0,-26,-25,-65,-25Z" 
id="f3_i"
transform="scale(0.001,-0.001)" />

<path d="M235,0V40L394,60V936H356c0,0,-189,0,-258,-15L78,766H28v234H908V766H857L837,921c0,0,-22,5,-98,9c0,0,-75,4,-165,4H538V60L697,40V0Z" 
id="f3_1k"
transform="scale(0.001,-0.001)" />

<path d="M377,45c0,0,100,0,147,52c0,0,47,52,47,174c0,0,0,119,-46,173c0,0,-47,54,-148,54c0,0,-98,0,-141,-51c0,0,-44,-51,-44,-176c0,0,0,-126,44,-176c0,0,44,-50,141,-50Zm2,518c0,0,84,0,123,46c0,0,39,46,39,148c0,0,0,102,-40,151c0,0,-41,48,-122,48c0,0,-79,0,-118,-47c0,0,-38,-47,-38,-152c0,0,0,-104,37,-149c0,0,38,-45,119,-45ZM377,-14c0,0,-319,0,-319,285c0,0,0,99,48,164c0,0,48,66,129,96c0,0,-65,30,-106,87c0,0,-40,56,-40,139c0,0,0,123,75,191c0,0,76,68,219,68c0,0,139,0,216,-67c0,0,76,-68,76,-192c0,0,0,-82,-40,-139c0,0,-40,-57,-108,-87c0,0,85,-31,132,-98c0,0,47,-67,47,-162c0,0,0,-142,-80,-214c0,0,-80,-71,-249,-71Z" 
id="f3_s"
transform="scale(0.001,-0.001)" />

<path d="M410,-14c0,0,-80,0,-162,14c0,0,-81,14,-144,38V270h48L178,134c0,0,28,-35,95,-62c0,0,68,-27,134,-27c0,0,104,0,163,53c0,0,58,54,58,148c0,0,0,54,-23,89c0,0,-22,35,-59,59c0,0,-37,24,-84,41c0,0,-47,17,-97,34c0,0,-49,17,-96,38c0,0,-47,21,-84,53c0,0,-37,32,-60,79c0,0,-23,48,-23,117c0,0,0,119,90,187c0,0,89,68,248,68c0,0,121,0,263,-32V771H654L628,893c0,0,-76,55,-188,55c0,0,-100,0,-156,-40c0,0,-56,-41,-56,-112c0,0,0,-49,22,-81c0,0,23,-32,60,-55c0,0,37,-22,84,-39c0,0,48,-16,97,-34c0,0,50,-17,97,-39c0,0,48,-22,85,-56c0,0,36,-34,59,-83c0,0,23,-49,23,-120c0,0,0,-145,-89,-224c0,0,-89,-79,-256,-79Z" 
id="f3_1j"
transform="scale(0.001,-0.001)" />

<path d="M327,-14L84,649L1,668v33H335V668L219,648L385,174L554,632h63L786,171L944,649L830,668v33h267V668l-78,-16L784,-14H726L553,448L382,-14Z" 
id="f3_2j"
transform="scale(0.001,-0.001)" />

<path d="M350,-14c0,0,-142,0,-269,31L73,228h49L156,87c0,0,29,-16,82,-28c0,0,54,-12,100,-12c0,0,117,0,173,54c0,0,56,53,56,178c0,0,0,99,-52,150c0,0,-51,51,-159,56l-107,6v61l107,7c0,0,84,5,124,52c0,0,41,48,41,145c0,0,0,101,-44,147c0,0,-44,45,-139,45c0,0,-40,0,-83,-10c0,0,-43,-11,-76,-29L153,786H104V979c0,0,74,19,127,26c0,0,54,6,107,6c0,0,321,0,321,-246c0,0,0,-104,-57,-165c0,0,-57,-62,-162,-77c0,0,136,-16,200,-78c0,0,64,-62,64,-173c0,0,0,-135,-92,-211c0,0,-93,-75,-262,-75Z" 
id="f3_n"
transform="scale(0.001,-0.001)" />

<path d="M64,0V141c0,0,64,68,119,123c0,0,119,118,174,185c0,0,56,68,81,140c0,0,26,72,26,165c0,0,0,81,-40,131c0,0,-39,50,-105,50c0,0,-46,0,-74,-10c0,0,-27,-10,-50,-29L163,751H98V979c0,0,59,13,116,23c0,0,58,9,125,9c0,0,165,0,252,-68c0,0,88,-68,88,-193c0,0,0,-78,-26,-142c0,0,-26,-64,-83,-124c0,0,-56,-61,-224,-197c0,0,-64,-52,-139,-119H698V0Z" 
id="f2_m"
transform="scale(0.001,-0.001)" />

<path d="M122,0V64L295,82V837L123,780v64l282,165H511V82L685,64V0Z" 
id="f2_l"
transform="scale(0.001,-0.001)" />

<path d="M536,63c0,0,127,0,191,54c0,0,63,54,63,168c0,0,0,105,-70,154c0,0,-70,49,-225,49H316V67c0,0,103,-4,220,-4ZM480,555c0,0,121,0,178,48c0,0,57,48,57,155c0,0,0,91,-58,133c0,0,-57,42,-186,42H316V555ZM554,-4L235,0H44V40L172,60V941L44,960v40H501c0,0,191,0,279,-56c0,0,88,-56,88,-179c0,0,0,-88,-55,-149c0,0,-54,-62,-151,-83c0,0,135,-14,209,-79c0,0,73,-65,73,-166c0,0,0,-144,-99,-219C845,69,745,-4,554,-4Z" 
id="f3_12"
transform="scale(0.001,-0.001)" />

<path d="M-12,338v55H777V338Z" 
id="f4_4y"
transform="scale(0.001,-0.001)" />

<path d="M13,0V34L95,46L325,350L122,649L40,668v33H357V668L264,648L399,446L554,649l-96,19v33H710V668L630,652L433,397L663,50L745,34V0H427V34l94,17L359,299L169,50L266,34V0Z" 
id="f3_2k"
transform="scale(0.001,-0.001)" />

<path d="M58,-234v58c0,0,131,42,131,125c0,0,0,15,-11,27c0,0,-11,12,-38,25C140,1,89,27,89,75c0,0,0,40,25,61c0,0,26,21,65,21c0,0,48,0,77,-34c0,0,30,-34,30,-86c0,0,0,-101,-60,-170c0,0,-59,-69,-168,-101Z" 
id="f3_g"
transform="scale(0.001,-0.001)" />

<path d="M394,460c0,0,126,0,186,57c0,0,60,57,60,187c0,0,0,123,-57,176c0,0,-58,53,-194,53H316V460ZM54,0V40L172,60V941L44,960v40H421c0,0,368,0,368,-295c0,0,0,-153,-93,-233c0,0,-93,-80,-267,-80H316V60L475,40V0Z" 
id="f3_1g"
transform="scale(0.001,-0.001)" />

<path d="M551,45c0,0,171,0,252,106c0,0,82,107,82,349c0,0,0,241,-82,346c0,0,-82,105,-252,105c0,0,-171,0,-252,-106c0,0,-80,-106,-80,-345c0,0,0,-241,80,-348c0,0,81,-107,252,-107ZM930,-246c0,0,-53,0,-94,17c0,0,-41,18,-83,56c0,0,-41,39,-139,162c0,0,-27,-3,-63,-3c0,0,-239,0,-364,130C187,116,63,247,63,500c0,0,0,511,488,511c0,0,240,0,365,-129c0,0,125,-130,125,-382c0,0,0,-366,-265,-475l37,-45c0,0,66,-82,112,-117c0,0,46,-35,91,-35l61,2v-49c0,0,-17,-7,-64,-17c0,0,-48,-10,-83,-10Z" 
id="f3_1h"
transform="scale(0.001,-0.001)" />

<path d="M663,0V40L790,60L527,448L236,60L360,40V0H34V40L144,60L484,512L194,941L81,960v40H494V960L367,941L574,633L806,941L683,960v40h327V960L900,941L618,567L962,60L1076,40V0Z" 
id="f3_1o"
transform="scale(0.001,-0.001)" />

<path d="M322,0V40L481,60V389L130,941L17,960v40H440V960L306,941L593,480L866,941L739,960v40h326V960L955,941L625,394V60L784,40V0Z" 
id="f3_1p"
transform="scale(0.001,-0.001)" />

<path d="M73,0V70L634,936H448c0,0,-185,0,-254,-15L171,764H119v236H800V936L236,63H452c0,0,87,0,176,8c0,0,89,8,125,16l44,191h53L830,0Z" 
id="f3_1q"
transform="scale(0.001,-0.001)" />

<path d="M54,0V40L172,60V941L44,960v40H794V760H745L721,922c0,0,-83,11,-241,11H316V516H611l23,120h46V328H634L611,449H316V60L483,40V0Z" 
id="f3_16"
transform="scale(0.001,-0.001)" />

<path d="M57,302V417H454V302Z" 
id="f3_h"
transform="scale(0.001,-0.001)" />

<path d="M110,641L64,1000H211L165,641Z" 
id="f3_b"
transform="scale(0.001,-0.001)" />

<path d="M55,0V40L184,60V941L55,960v40H455V960L327,941V60L455,40V0Z" 
id="f3_19"
transform="scale(0.001,-0.001)" />

<path d="M105,-4c0,0,-18,0,-30,2c0,0,-11,1,-18,3c0,0,-6,3,-8,7c0,0,-2,4,0,10l198,997c0,0,2,6,5,11c0,0,4,4,11,7c0,0,8,3,20,5c0,0,13,1,31,1c0,0,18,0,30,-1c0,0,11,-2,18,-5c0,0,6,-3,8,-7c0,0,1,-5,1,-11L172,18c0,0,-2,-6,-5,-10c0,0,-4,-4,-12,-7c0,0,-7,-2,-20,-3c0,0,-12,-2,-30,-2Z" 
id="f5_a8"
transform="scale(0.001,-0.001)" />

<path d="M81,0L258,1008l-96,18l6,34H391L214,52L331,33L325,0Z" 
id="f6_28"
transform="scale(0.001,-0.001)" />

<path d="M212,177c0,0,71,0,126,63c0,0,35,42,88,200c0,0,-37,82,-84,121c0,0,-47,38,-115,38c0,0,-80,0,-133,-55C94,544,41,488,41,395c0,0,0,-99,52,-159c0,0,53,-59,119,-59ZM754,79c0,0,-68,0,-124,40c0,0,-56,39,-132,175c0,0,-44,-89,-102,-132c0,0,-58,-43,-142,-43c0,0,-106,0,-180,78C74,197,0,275,0,395c0,0,0,122,69,197c0,0,69,76,162,76c0,0,67,0,116,-37c0,0,50,-36,101,-134c0,0,46,110,108,158c0,0,63,49,164,49c0,0,60,0,110,-19c0,0,51,-18,107,-60V581c0,0,-88,66,-174,66c0,0,-53,0,-91,-24c0,0,-37,-24,-71,-81c0,0,-24,-42,-81,-196c0,0,90,-205,250,-205c0,0,93,0,167,61V159c0,0,-83,-80,-183,-80Z" 
id="f7_3b"
transform="scale(0.001,-0.001)" />

<path d="M338,28c0,0,48,0,91,45c0,0,43,45,65,144c0,0,22,99,26,276H143c0,0,3,-133,20,-239c0,0,13,-80,44,-140c0,0,19,-36,54,-61c0,0,36,-25,77,-25ZM522,543c0,0,-1,194,-37,312c0,0,-29,90,-76,129c0,0,-34,28,-79,28c0,0,-51,0,-93,-39c0,0,-43,-40,-65,-132c0,0,-22,-93,-29,-298ZM329,-21c0,0,-68,0,-124,31c0,0,-56,33,-99,95c0,0,-43,62,-66,131C40,236,0,356,0,489c0,0,0,294,119,453c0,0,91,119,217,119c0,0,122,0,209,-115c0,0,121,-160,121,-436c0,0,0,-263,-119,-415C547,95,455,-21,329,-21Z" 
id="f7_2d"
transform="scale(0.001,-0.001)" />

<path d="M0,-14L351,1007h73L75,-14Z" 
id="f3_j"
transform="scale(0.001,-0.001)" />

<path d="M383,64c0,0,44,0,87,7c0,0,43,7,65,17V645c0,0,-67,13,-152,13c0,0,-194,0,-194,-309c0,0,0,-143,48,-214c0,0,47,-71,146,-71Zm56,-389v35l96,18V-77c0,0,0,73,7,124c0,0,-79,-61,-200,-61c0,0,-287,0,-287,362c0,0,0,180,81,276c0,0,81,96,237,96c0,0,84,0,166,-18l67,33h53V-272l77,-18v-35Z" 
id="f3_2d"
transform="scale(0.001,-0.001)" />

<path d="M67,0V109L206,235c0,0,133,118,196,190c0,0,63,72,90,149c0,0,27,77,27,177c0,0,0,97,-44,148c0,0,-44,50,-144,50c0,0,-39,0,-81,-10c0,0,-42,-11,-74,-29L150,787H101V980c0,0,135,32,230,32c0,0,164,0,247,-68c0,0,82,-69,82,-193c0,0,0,-84,-32,-158c0,0,-33,-75,-100,-148c0,0,-67,-74,-222,-206c0,0,-67,-57,-141,-125H680V0Z" 
id="f3_m"
transform="scale(0.001,-0.001)" />

<path d="M62,0L176,649L88,668l6,33H301L278,543c0,0,55,84,124,130c0,0,69,47,138,47c0,0,37,0,59,-6L566,530H534l-28,95c0,0,-60,0,-124,-46c0,0,-63,-45,-116,-120L186,0Z" 
id="f6_2e"
transform="scale(0.001,-0.001)" />

<path d="M577,-14c0,0,-243,0,-379,132C198,118,63,250,63,488c0,0,0,258,130,391c0,0,131,132,387,132c0,0,156,0,335,-38l5,-218H871L848,884c0,0,-52,32,-121,50c0,0,-69,17,-141,17c0,0,-191,0,-279,-112c0,0,-88,-113,-88,-349c0,0,0,-217,92,-332c0,0,92,-115,268,-115c0,0,85,0,160,20c0,0,76,21,120,55l27,149h49L930,32c0,0,-164,-46,-353,-46Z" 
id="f3_13"
transform="scale(0.001,-0.001)" />


</defs>
</svg>