<?xml version="1.0" encoding="UTF-8" standalone="no"?>
<!DOCTYPE svg PUBLIC "-//W3C//DTD SVG 1.1//EN"
"http://www.w3.org/Graphics/SVG/1.1/DTD/svg11.dtd">
<svg viewBox="0 0 909 1286" version="1.1" xmlns="http://www.w3.org/2000/svg" xmlns:xlink="http://www.w3.org/1999/xlink">
<defs>
<style type="text/css"><![CDATA[
.g0_113{
fill: none;
stroke: #000000;
stroke-width: 0.7638889;
stroke-linecap: butt;
stroke-linejoin: miter;
stroke-miterlimit: 4;
}
.g1_113{
}
.g2_113{
fill: none;
stroke: #000000;
stroke-width: 1.5277778;
stroke-linecap: butt;
stroke-linejoin: miter;
stroke-miterlimit: 4;
}
.g3_113{
stroke: #000000;
stroke-width: 1.5277778;
stroke-linecap: butt;
stroke-linejoin: miter;
stroke-miterlimit: 4;
}
]]></style>
</defs>
<g fill="#000000" >
<use xlink:href="#f0_7" transform="matrix(12,0,0,12,443.8,1140.7)" />
<use xlink:href="#f0_8" transform="matrix(12,0,0,12,454.6,1140.7)" />
<use xlink:href="#f0_b" transform="matrix(12,0,0,12,86.5,1140.7)" />
<use xlink:href="#f0_b" transform="matrix(12,0,0,12,96.8,1140.7)" />
<use xlink:href="#f0_5" transform="matrix(12,0,0,12,107.1,1140.7)" />
<use xlink:href="#f0_7" transform="matrix(12,0,0,12,111.9,1140.7)" />
<use xlink:href="#f0_5" transform="matrix(12,0,0,12,122.2,1140.7)" />
<use xlink:href="#f0_q" transform="matrix(12,0,0,12,127,1140.7)" />
<use xlink:href="#f1_f" transform="matrix(16,0,0,16,394.5,167.2)" />
<use xlink:href="#f1_8" transform="matrix(16,0,0,16,412.2,167.2)" />
<use xlink:href="#f1_h" transform="matrix(16,0,0,16,422.6,167.2)" />
<use xlink:href="#f1_4" transform="matrix(16,0,0,16,442,167.2)" />
<use xlink:href="#f1_n" transform="matrix(16,0,0,16,458.9,167.2)" />
<use xlink:href="#f0_q" transform="matrix(12,0,0,12,370.4,192.8)" />
<use xlink:href="#f0_k" transform="matrix(12,0,0,12,382.6,192.8)" />
<use xlink:href="#f0_i" transform="matrix(12,0,0,12,396.5,192.8)" />
<use xlink:href="#f0_r" transform="matrix(12,0,0,12,410.8,192.8)" />
<use xlink:href="#f0_l" transform="matrix(12,0,0,12,424,192.8)" />
<use xlink:href="#f0_n" transform="matrix(12,0,0,12,432.1,192.8)" />
<use xlink:href="#f0_m" transform="matrix(12,0,0,12,447.4,192.8)" />
<use xlink:href="#f0_3" transform="matrix(12,0,0,12,469,192.8)" />
<use xlink:href="#f0_k" transform="matrix(12,0,0,12,481.3,192.8)" />
<use xlink:href="#f0_8" transform="matrix(12,0,0,12,86.4,241.7)" />
<use xlink:href="#f0_a" transform="matrix(12,0,0,12,96.5,241.7)" />
<use xlink:href="#f0_4" transform="matrix(12,0,0,12,106.5,241.7)" />
<use xlink:href="#f2_3" transform="matrix(12,0,0,12,129.7,241.7)" />
<use xlink:href="#f2_1k" transform="matrix(12,0,0,12,135.4,241.7)" />
<use xlink:href="#f2_4" transform="matrix(12,0,0,12,140.7,241.7)" />
<use xlink:href="#f3_23" transform="matrix(16,0,0,16,173,241.7)" />
<use xlink:href="#f3_2e" transform="matrix(16,0,0,16,183.1,241.7)" />
<use xlink:href="#f3_1g" transform="matrix(16,0,0,16,188.4,241.7)" />
<use xlink:href="#f3_2i" transform="matrix(16,0,0,16,201.5,241.7)" />
<use xlink:href="#f3_2d" transform="matrix(16,0,0,16,211,241.7)" />
<use xlink:href="#f3_1t" transform="matrix(16,0,0,16,216.2,241.7)" />
<use xlink:href="#f3_1a" transform="matrix(16,0,0,16,226.2,241.7)" />
<use xlink:href="#f3_1f" transform="matrix(16,0,0,16,246,241.7)" />
<use xlink:href="#f3_1a" transform="matrix(16,0,0,16,256.8,241.7)" />
<use xlink:href="#f3_1j" transform="matrix(16,0,0,16,276.6,241.7)" />
<use xlink:href="#f3_2d" transform="matrix(16,0,0,16,286.9,241.7)" />
<use xlink:href="#f3_24" transform="matrix(16,0,0,16,292.2,241.7)" />
<use xlink:href="#f3_1j" transform="matrix(16,0,0,16,299.7,241.7)" />
<use xlink:href="#f3_1s" transform="matrix(16,0,0,16,310,241.7)" />
<use xlink:href="#f3_21" transform="matrix(16,0,0,16,331.4,241.7)" />
<use xlink:href="#f3_2i" transform="matrix(16,0,0,16,342.9,241.7)" />
<use xlink:href="#f3_1b" transform="matrix(16,0,0,16,343.1,241.7)" />
<use xlink:href="#f2_a" transform="matrix(12,0,0,12,352.5,241.7)" />
<use xlink:href="#f4_6" transform="matrix(12,0,0,12,369.8,241.7)" />
<use xlink:href="#f3_1j" transform="matrix(16,0,0,16,390.4,241.7)" />
<use xlink:href="#f3_2n" transform="matrix(16,0,0,16,400.6,241.7)" />
<use xlink:href="#f3_2d" transform="matrix(16,0,0,16,400.9,241.7)" />
<use xlink:href="#f3_1r" transform="matrix(16,0,0,16,406.2,241.7)" />
<use xlink:href="#f3_24" transform="matrix(16,0,0,16,416.3,241.7)" />
<use xlink:href="#f3_2c" transform="matrix(16,0,0,16,423.9,241.7)" />
<use xlink:href="#f3_2i" transform="matrix(16,0,0,16,428.3,241.7)" />
<use xlink:href="#f3_1u" transform="matrix(16,0,0,16,428.5,241.7)" />
<use xlink:href="#f3_2a" transform="matrix(16,0,0,16,450,241.7)" />
<use xlink:href="#f3_2i" transform="matrix(16,0,0,16,462.7,241.7)" />
<use xlink:href="#f3_1j" transform="matrix(16,0,0,16,472.2,241.7)" />
<use xlink:href="#f3_2n" transform="matrix(16,0,0,16,482.5,241.7)" />
<use xlink:href="#f3_27" transform="matrix(16,0,0,16,482.7,241.7)" />
<use xlink:href="#f3_2c" transform="matrix(16,0,0,16,494.1,241.7)" />
<use xlink:href="#f3_2d" transform="matrix(16,0,0,16,498.5,241.7)" />
<use xlink:href="#f3_2b" transform="matrix(16,0,0,16,503.8,241.7)" />
<use xlink:href="#f3_1r" transform="matrix(16,0,0,16,513.4,241.7)" />
<use xlink:href="#f3_1u" transform="matrix(16,0,0,16,532.8,241.7)" />
<use xlink:href="#f3_2c" transform="matrix(16,0,0,16,545,241.7)" />
<use xlink:href="#f3_24" transform="matrix(16,0,0,16,549.4,241.7)" />
<use xlink:href="#f3_2c" transform="matrix(16,0,0,16,557,241.7)" />
<use xlink:href="#f3_1a" transform="matrix(16,0,0,16,570.6,241.7)" />
<use xlink:href="#f3_27" transform="matrix(16,0,0,16,581.2,241.7)" />
<use xlink:href="#f3_1b" transform="matrix(16,0,0,16,592.7,241.7)" />
<use xlink:href="#f3_2d" transform="matrix(16,0,0,16,602.2,241.7)" />
<use xlink:href="#f3_1t" transform="matrix(16,0,0,16,607.4,241.7)" />
<use xlink:href="#f3_28" transform="matrix(16,0,0,16,617.4,241.7)" />
<use xlink:href="#f3_2c" transform="matrix(16,0,0,16,625.8,241.7)" />
<use xlink:href="#f3_2c" transform="matrix(16,0,0,16,630.2,241.7)" />
<use xlink:href="#f3_11" transform="matrix(16,0,0,16,643.8,241.7)" />
<use xlink:href="#f3_2c" transform="matrix(16,0,0,16,650.5,241.7)" />
<use xlink:href="#f3_2c" transform="matrix(16,0,0,16,654.9,241.7)" />
<use xlink:href="#f3_1r" transform="matrix(16,0,0,16,659.3,241.7)" />
<use xlink:href="#f3_1c" transform="matrix(16,0,0,16,678.7,241.7)" />
<use xlink:href="#f3_2e" transform="matrix(16,0,0,16,693.5,241.7)" />
<use xlink:href="#f3_2d" transform="matrix(16,0,0,16,698.8,241.7)" />
<use xlink:href="#f3_1i" transform="matrix(16,0,0,16,704,241.7)" />
<use xlink:href="#f3_1a" transform="matrix(16,0,0,16,717.2,241.7)" />
<use xlink:href="#f3_1v" transform="matrix(16,0,0,16,727.8,241.7)" />
</g>
<path d="M188.6,428.5H176.2m12.2,-.3v-.1m18,.6L205.1,422l-2.4,13l-2.5,-13l-2.3,13l-2.2,-13l-1.9,13l-2.4,-13l-2.3,13l-.7,-6.8m189.5,0l-171.6,.3m210.3,.1l-2.7,-4.7l-4.7,8.7L404.3,424l-5.1,8.6L394.3,424l-4.7,8.6L384.9,424l-4.6,8.7l-2.4,-4.8m83.8,-93v93.2l-45.3,.2m-3,-146.2l48.3,-.2v44.5M379.9,281.5l2.4,4.7l4.1,-8.6l4.2,8.6l4.3,-8.6l4.4,8.6l4.2,-8.6l4,8.6l3.8,-8.6l2.1,4.8m-193.2,-.5H379.9M176.4,428.1V281.9h35.4m81.9,88.2v58m.3,-87.7l-4.6,2l8.6,4l-8.6,3.7l8.6,3.8l-8.6,3.8l8.6,3.6l-8.6,3.7l8.6,3.4l-4.5,1.8m.2,-88.3v58.5M211.5,300.2V263.8m9,5.6v25.2M480,326.2H443.5" class="g0_113" />
<path d="M184.3,266.1c.4,-.6,.9,-1,1.4,-1.3c.6,-.3,1.1,-.4,1.7,-.4c1,0,1.8,.3,2.5,1c.7,.7,1,1.5,1,2.6c0,1.2,-.4,2.2,-1.2,3c-.8,.8,-1.7,1.3,-2.9,1.3c-.8,0,-1.6,-.3,-2.2,-.7c-.7,-.4,-1.2,-1.1,-1.6,-2.1c-.4,-.9,-.6,-2,-.6,-3.2c0,-1.4,.2,-2.6,.7,-3.7c.5,-1.1,1.2,-1.9,2,-2.4c.7,-.6,1.6,-.8,2.4,-.8c.9,0,1.6,.2,2.2,.7c.5,.4,.8,.8,.8,1.4c0,.3,-.1,.6,-.4,.9c-.2,.2,-.5,.3,-.8,.3c-.3,0,-.5,-.1,-.7,-.3c-.3,-.2,-.4,-.4,-.4,-.7c0,-.1,.1,-.4,.3,-.6c.1,-.2,.1,-.4,.1,-.5c0,-.1,0,-.3,-.2,-.4c-.2,-.1,-.5,-.2,-.9,-.2c-.6,0,-1.1,.2,-1.5,.6c-.5,.3,-.9,.9,-1.3,1.8c-.3,.9,-.4,1.9,-.4,3c0,.2,0,.4,0,.7Zm2.6,-.8c-.7,0,-1.3,.3,-1.8,.8c-.5,.5,-.7,1.3,-.7,2.3c0,1,.2,1.8,.7,2.4c.4,.5,1,.8,1.7,.8c.7,0,1.3,-.3,1.7,-.8c.5,-.5,.7,-1.3,.7,-2.3c0,-1.2,-.2,-2,-.6,-2.5c-.4,-.5,-1,-.7,-1.7,-.7Z" class="g1_113" />
<path d="M191.5,258.8H197v.6h-.9c-.4,0,-.7,.1,-.8,.2c-.2,.1,-.3,.2,-.3,.4c0,.1,.1,.3,.2,.5l.1,.2l3.5,8.9l3,-8.5c.1,-.2,.1,-.4,.1,-.6c0,-.3,-.1,-.6,-.3,-.8c-.1,-.2,-.4,-.3,-.8,-.3h-.9v-.6h4.9v.6h-.4c-.3,0,-.6,.2,-.9,.5c-.3,.2,-.5,.7,-.8,1.3l-4.1,11.1H198l-4.7,-11.8c-.1,-.4,-.3,-.7,-.5,-.8c-.2,-.2,-.5,-.3,-.9,-.3h-.4v-.6Z" class="g1_113" />
<path d="M473.7,351.6c-.4,.6,-.9,1.1,-1.4,1.4c-.5,.3,-1.1,.4,-1.7,.4c-.9,0,-1.8,-.3,-2.5,-.9c-.7,-.7,-1.1,-1.6,-1.1,-2.8c0,-1.2,.4,-2.2,1.2,-3c.8,-.8,1.8,-1.3,2.9,-1.3c1.3,0,2.3,.6,3.1,1.6c.8,1,1.3,2.4,1.3,4.3c0,1.5,-.3,2.8,-.7,3.9c-.5,1.1,-1.1,1.8,-1.8,2.4c-.8,.5,-1.6,.7,-2.6,.7c-.9,0,-1.6,-.2,-2.1,-.6c-.5,-.4,-.8,-.9,-.8,-1.4c0,-.4,.1,-.7,.3,-.9c.2,-.3,.5,-.4,.8,-.4c.3,0,.6,.1,.8,.3c.2,.2,.3,.5,.3,.7c0,.2,-.1,.4,-.3,.7c-.1,.1,-.2,.3,-.2,.4c0,.1,.1,.3,.3,.4c.2,.1,.5,.2,1,.2c.6,0,1.1,-.2,1.6,-.5c.5,-.4,.8,-.9,1.1,-1.7c.3,-.8,.5,-1.8,.5,-3.1v-.8Zm-2.5,-5.5c-.7,0,-1.3,.3,-1.7,.8c-.4,.6,-.6,1.4,-.6,2.5c0,1.1,.2,1.8,.6,2.3c.4,.5,1,.8,1.7,.8c.7,0,1.2,-.3,1.7,-.8c.5,-.6,.7,-1.3,.7,-2.3c0,-1,-.2,-1.8,-.7,-2.4c-.5,-.6,-1.1,-.9,-1.7,-.9Z" class="g1_113" />
<path d="M476.1,344.8h5.6v.7h-1c-.4,0,-.7,.1,-.8,.2c-.1,0,-.2,.2,-.2,.3c0,.2,0,.3,.1,.6l.1,.2l3.5,8.9l3.1,-8.5c0,-.2,.1,-.4,.1,-.6c0,-.4,-.1,-.6,-.3,-.8c-.2,-.2,-.5,-.3,-.8,-.3h-.9v-.7h4.9v.7h-.4c-.3,0,-.6,.1,-.9,.4c-.3,.3,-.6,.8,-.8,1.4l-4.1,11.1h-.7L478,346.6c-.2,-.4,-.4,-.7,-.6,-.9c-.2,-.1,-.5,-.2,-.9,-.2h-.4v-.7Z" class="g1_113" />
<path d="M315.9,346.2v11.2c0,.1,0,.3,.1,.3c.2,.2,.4,.2,.7,.2h1.7v.7H312v-.7h1.5c.3,0,.5,0,.7,-.2c.1,-.1,.2,-.3,.2,-.6v-8.4c0,-.2,-.1,-.3,-.2,-.4c-.2,-.2,-.3,-.2,-.6,-.2h-1.9v-.6c.9,-.2,1.6,-.3,2.2,-.5c.6,-.2,1.1,-.5,1.6,-.8h.4Z" class="g1_113" />
<path d="M325.6,358.6h-4.5l-1,-3.3h.5l.5,1.7h3v-.3c-1,-1.1,-1.8,-2.1,-2.2,-3c-.5,-1,-.7,-1.9,-.7,-2.9c0,-1.6,.5,-2.9,1.6,-3.9c1.1,-1,2.5,-1.6,4.1,-1.6c1.6,0,2.9,.6,4,1.6c1.1,1,1.7,2.4,1.7,3.9c0,1,-.3,1.9,-.7,2.9c-.5,.9,-1.2,1.9,-2.3,3v.3h3l.5,-1.7h.5l-.9,3.3h-4.5c.7,-1.3,1.2,-2.5,1.5,-3.8c.4,-1.3,.6,-2.6,.6,-3.9c0,-1.6,-.3,-2.9,-.9,-3.7c-.6,-.9,-1.4,-1.3,-2.5,-1.3c-1.2,0,-2,.4,-2.6,1.3c-.6,.8,-.8,2.1,-.8,3.7c0,1.3,.1,2.6,.5,3.9c.4,1.3,.9,2.5,1.6,3.8Z" class="g1_113" />
<path d="M385.4,267c-.3,.4,1,.5,4,.5c.5,0,.8,-.1,1,-.3c.2,-.3,.4,-.9,.6,-2h.7l-.3,3.8h-8.1v-.5l2.6,-3c1.5,-1.6,2.4,-2.6,2.7,-3c.4,-.5,.7,-1.1,.9,-1.6c.2,-.6,.3,-1.1,.3,-1.5c0,-.7,-.2,-1.3,-.6,-1.7c-.4,-.5,-1,-.7,-1.7,-.7c-.8,0,-1.5,.2,-2,.6c-.5,.4,-.8,.8,-.8,1.2c0,.2,.1,.3,.1,.4c.1,.1,.3,.1,.5,.2c.6,.1,.9,.5,.9,1.1c0,.3,-.1,.5,-.3,.7c-.2,.2,-.5,.3,-.8,.3c-.4,0,-.7,-.2,-1,-.5c-.2,-.3,-.4,-.8,-.4,-1.3c0,-.6,.2,-1.2,.5,-1.7c.3,-.5,.8,-.9,1.4,-1.2c.7,-.3,1.3,-.5,2.1,-.5c.7,0,1.4,.2,2,.5c.6,.3,1.1,.7,1.4,1.2c.3,.5,.4,1,.4,1.6c0,.5,0,.9,-.2,1.3c-.1,.4,-.4,.8,-.7,1.2c-.5,.6,-1,1.2,-1.6,1.6l-2.3,2c-.6,.5,-1.1,.9,-1.3,1.3Z" class="g1_113" />
<path d="M398.4,269h-4.5l-1,-3.4h.6l.5,1.7h2.9v-.2c-1,-1.1,-1.8,-2.2,-2.2,-3.1c-.5,-.9,-.7,-1.9,-.7,-2.8c0,-1.6,.5,-2.9,1.6,-3.9c1.1,-1.1,2.5,-1.6,4.1,-1.6c1.6,0,3,.5,4,1.6c1.1,1,1.7,2.3,1.7,3.9c0,.9,-.2,1.9,-.7,2.8c-.5,.9,-1.2,2,-2.2,3.1v.2h2.9l.5,-1.7h.6l-1,3.4H401c.7,-1.3,1.2,-2.6,1.6,-3.9c.3,-1.3,.5,-2.5,.5,-3.8c0,-1.7,-.3,-2.9,-.9,-3.8c-.5,-.8,-1.4,-1.3,-2.5,-1.3c-1.1,0,-2,.5,-2.6,1.3c-.5,.9,-.8,2.1,-.8,3.8c0,1.3,.1,2.5,.5,3.8c.4,1.3,.9,2.6,1.6,3.9Z" class="g1_113" />
<path d="M336.5,441.1c.8,.2,1.5,.6,2,1c.6,.7,.9,1.4,.9,2.3c0,1.1,-.4,1.9,-1.1,2.5c-.8,.7,-1.9,1.1,-3.3,1.1c-.8,0,-1.4,-.2,-2,-.4c-.6,-.3,-1,-.6,-1.3,-1.1c-.3,-.4,-.4,-.9,-.4,-1.5c0,-.5,.1,-.8,.3,-1.1c.2,-.2,.5,-.4,.8,-.4c.3,0,.6,.1,.8,.3c.1,.2,.2,.5,.2,.8c0,.3,0,.5,-.1,.6c-.1,.2,-.3,.3,-.5,.4c-.3,.2,-.4,.3,-.4,.4c0,.2,.1,.4,.3,.6c.2,.3,.4,.4,.8,.6c.3,.1,.8,.2,1.3,.2c1,0,1.7,-.3,2.1,-.7c.5,-.5,.7,-1.2,.7,-2.2c0,-1.1,-.2,-1.9,-.6,-2.3c-.4,-.5,-.9,-.7,-1.7,-.7c-.2,0,-.4,0,-.8,.1c-.2,0,-.4,0,-.5,0c-.2,0,-.3,0,-.4,-.1c-.1,-.1,-.1,-.2,-.1,-.3c0,-.1,0,-.2,.1,-.3c.1,-.1,.2,-.1,.4,-.1h.5l.5,.1c.7,0,1.3,-.2,1.7,-.6c.3,-.4,.5,-1,.5,-1.8c0,-1,-.2,-1.7,-.5,-2.1c-.4,-.4,-.9,-.7,-1.6,-.7c-.7,0,-1.2,.2,-1.6,.4c-.4,.2,-.6,.5,-.6,.7c0,.1,.1,.3,.3,.5c.4,.3,.5,.6,.5,.9c0,.3,-.1,.5,-.2,.6c-.2,.2,-.5,.3,-.7,.3c-.3,0,-.6,-.1,-.8,-.4c-.2,-.2,-.3,-.5,-.3,-.9c0,-.6,.3,-1.2,.7,-1.7c.7,-.7,1.6,-1,2.8,-1c1.1,0,2,.3,2.7,.9c.6,.6,1,1.3,1,2.2c0,.7,-.2,1.2,-.6,1.7c-.3,.4,-.9,.9,-1.8,1.2Z" class="g1_113" />
<path d="M346,447.7h-4.5l-1,-3.3h.5l.5,1.7h3v-.2c-1.1,-1.2,-1.8,-2.2,-2.3,-3.1c-.4,-.9,-.7,-1.9,-.7,-2.8c0,-1.6,.6,-2.9,1.7,-4c1.1,-1,2.4,-1.5,4,-1.5c1.7,0,3,.5,4.1,1.5c1.1,1.1,1.6,2.4,1.6,4c0,.9,-.2,1.9,-.6,2.8c-.5,.9,-1.2,1.9,-2.3,3.1v.2h3l.5,-1.7h.5l-1,3.3h-4.5c.7,-1.2,1.3,-2.5,1.6,-3.8c.4,-1.3,.5,-2.6,.5,-3.8c0,-1.7,-.2,-3,-.8,-3.8c-.6,-.9,-1.4,-1.3,-2.6,-1.3c-1.1,0,-1.9,.4,-2.5,1.3c-.6,.8,-.9,2.1,-.9,3.8c0,1.2,.2,2.5,.6,3.8c.3,1.3,.9,2.6,1.6,3.8Z" class="g1_113" />
<path d="M241.8,440.6c.8,.2,1.5,.6,2,1c.6,.7,.9,1.4,.9,2.3c0,1,-.4,1.9,-1.1,2.5c-.8,.7,-1.9,1.1,-3.3,1.1c-.8,0,-1.4,-.2,-2,-.4c-.6,-.3,-1,-.6,-1.3,-1.1c-.3,-.4,-.4,-.9,-.4,-1.5c0,-.5,.1,-.8,.3,-1.1c.2,-.2,.5,-.4,.8,-.4c.3,0,.6,.1,.8,.3c.1,.2,.2,.5,.2,.8c0,.3,0,.4,-.1,.6c-.1,.2,-.3,.3,-.5,.4c-.3,.2,-.4,.3,-.4,.4c0,.2,.1,.4,.3,.6c.2,.2,.4,.4,.8,.6c.3,.1,.8,.2,1.3,.2c1,0,1.7,-.3,2.1,-.7c.5,-.5,.7,-1.2,.7,-2.3c0,-1,-.2,-1.8,-.6,-2.2c-.4,-.5,-.9,-.7,-1.7,-.7c-.2,0,-.5,0,-.8,.1c-.2,0,-.4,0,-.5,0c-.2,0,-.3,0,-.4,-.1c-.1,-.1,-.1,-.2,-.1,-.3c0,-.1,0,-.2,.1,-.3c.1,-.1,.2,-.1,.4,-.1h.5l.5,.1c.7,0,1.3,-.2,1.7,-.6c.3,-.4,.5,-1,.5,-1.8c0,-1,-.2,-1.7,-.5,-2.1c-.4,-.5,-.9,-.7,-1.6,-.7c-.7,0,-1.2,.2,-1.6,.4c-.4,.2,-.6,.5,-.6,.7c0,.1,.1,.3,.3,.5c.3,.3,.5,.6,.5,.9c0,.3,-.1,.5,-.3,.6c-.1,.2,-.4,.3,-.6,.3c-.3,0,-.6,-.1,-.8,-.4c-.2,-.2,-.3,-.5,-.3,-.9c0,-.6,.3,-1.2,.7,-1.7c.7,-.7,1.6,-1,2.8,-1c1.1,0,2,.3,2.7,.9c.6,.6,1,1.3,1,2.2c0,.6,-.2,1.2,-.6,1.7c-.3,.4,-1,.8,-1.8,1.2Z" class="g1_113" />
<path d="M251.2,447.2h-4.4l-1,-3.3h.5l.5,1.7h3v-.2c-1.1,-1.2,-1.8,-2.2,-2.3,-3.1c-.4,-1,-.7,-1.9,-.7,-2.9c0,-1.5,.6,-2.8,1.7,-3.9c1.1,-1,2.4,-1.5,4,-1.5c1.6,0,3,.5,4.1,1.5c1.1,1.1,1.6,2.4,1.6,3.9c0,1,-.2,1.9,-.7,2.9c-.4,.9,-1.2,1.9,-2.2,3.1v.2h2.9l.6,-1.7h.5l-1,3.3h-4.5c.7,-1.2,1.3,-2.5,1.6,-3.8c.4,-1.3,.5,-2.6,.5,-3.8c0,-1.7,-.2,-3,-.8,-3.8c-.6,-.9,-1.4,-1.3,-2.6,-1.3c-1.1,0,-1.9,.4,-2.5,1.3c-.6,.8,-.9,2.1,-.9,3.8c0,1.2,.2,2.5,.6,3.8c.3,1.3,.8,2.6,1.5,3.8Z" class="g1_113" />
<path d="M290,258.3h6.5c1.5,0,2.6,.3,3.4,1c.8,.6,1.2,1.5,1.2,2.6c0,1.1,-.4,1.9,-1.1,2.5c-1,.7,-2.2,1.1,-3.7,1.1H294v4.6c0,.2,0,.4,.2,.5c.1,.2,.3,.2,.6,.2h1.5v.7H290v-.7h1.3c.3,0,.5,0,.6,-.1c.1,-.1,.2,-.3,.2,-.4V259.7c0,-.3,-.1,-.5,-.3,-.6c-.1,-.1,-.4,-.2,-.8,-.2h-1v-.6Zm4,6.6h1.8c1.1,0,1.9,-.3,2.4,-.7c.6,-.5,.8,-1.3,.8,-2.4c0,-.8,-.1,-1.3,-.3,-1.7c-.3,-.5,-.6,-.8,-1,-1c-.5,-.1,-1.2,-.2,-2.2,-.2c-.7,0,-1.1,0,-1.3,.1c-.1,.2,-.2,.4,-.2,.7v5.2Z" class="g1_113" />
<path d="M299.9,446.9c.1,.2,.2,.6,.3,1c.2,.8,.4,1.3,.6,1.6c.2,.2,.4,.3,.6,.3c.3,0,.5,-.1,.6,-.3c.2,-.3,.3,-.7,.3,-1.3h.6c0,1.1,-.2,1.8,-.7,2.4c-.4,.5,-.9,.7,-1.6,.7c-.6,0,-1.1,-.2,-1.5,-.7c-.4,-.5,-.6,-1.5,-.8,-2.9c-.3,.1,-.6,.2,-.9,.2c-.3,.1,-.6,.1,-.9,.1c-1.1,0,-2.2,-.3,-3.1,-.9c-.9,-.6,-1.7,-1.4,-2.2,-2.5c-.6,-1,-.9,-2.3,-.9,-3.6c0,-1.9,.7,-3.6,1.9,-4.9c1.2,-1.3,2.6,-1.9,4.2,-1.9c1.2,0,2.2,.3,3.1,.9c1,.5,1.7,1.4,2.3,2.4c.6,1.1,.8,2.3,.8,3.6c0,1.2,-.2,2.3,-.6,3.2c-.5,1,-1.2,1.8,-2.1,2.6Zm-.5,-1.2c.4,-.6,.6,-1.3,.7,-2c.2,-.7,.3,-1.6,.3,-2.7c0,-1.5,-.2,-2.7,-.5,-3.5c-.4,-.9,-.8,-1.5,-1.4,-2c-.6,-.4,-1.3,-.6,-2,-.6c-.8,0,-1.4,.2,-2,.6c-.6,.5,-1.1,1.1,-1.4,2c-.3,.9,-.5,2.1,-.5,3.6c0,1.1,.1,2,.3,2.8c.2,.7,.5,1.5,.9,2.1c0,-.2,0,-.4,0,-.6c0,-.7,.2,-1.4,.7,-1.8c.5,-.5,1.1,-.7,1.9,-.7c.8,0,1.4,.2,1.9,.7c.4,.4,.8,1.1,1.1,2.1Zm-1.1,1.1c0,-1.1,-.1,-1.8,-.4,-2.3c-.3,-.6,-.8,-.9,-1.5,-.9c-.6,0,-1.1,.1,-1.4,.5c-.4,.3,-.6,.8,-.6,1.4c0,.5,.3,1.1,.7,1.6c.4,.1,.9,.2,1.3,.2c.4,0,.7,0,1,-.1c.4,-.1,.7,-.2,.9,-.4Z" class="g1_113" />
<path d="M449.5,334.6h25.2" class="g0_113" />
<g fill="#000000" >
<use xlink:href="#f2_3" transform="matrix(12,0,0,12,129.7,475.2)" />
<use xlink:href="#f2_1k" transform="matrix(12,0,0,12,135.6,475.2)" />
<use xlink:href="#f2_1k" transform="matrix(12,0,0,12,141,475.2)" />
<use xlink:href="#f2_4" transform="matrix(12,0,0,12,146.5,475.2)" />
<use xlink:href="#f3_1t" transform="matrix(16,0,0,16,173,475.2)" />
<use xlink:href="#f3_2c" transform="matrix(16,0,0,16,183.5,475.2)" />
<use xlink:href="#f3_2i" transform="matrix(16,0,0,16,188.4,475.2)" />
<use xlink:href="#f3_1h" transform="matrix(16,0,0,16,199.6,475.2)" />
<use xlink:href="#f3_2c" transform="matrix(16,0,0,16,213.9,475.2)" />
<use xlink:href="#f3_10" transform="matrix(16,0,0,16,218.8,475.2)" />
<use xlink:href="#f3_2c" transform="matrix(16,0,0,16,225.6,475.2)" />
<use xlink:href="#f2_1a" transform="matrix(12,0,0,12,240.8,475.2)" />
<use xlink:href="#f3_16" transform="matrix(16,0,0,16,262.1,475.2)" />
<use xlink:href="#f3_2c" transform="matrix(16,0,0,16,277.4,475.2)" />
<use xlink:href="#f3_2j" transform="matrix(16,0,0,16,282.3,475.2)" />
<use xlink:href="#f3_24" transform="matrix(16,0,0,16,283.1,475.2)" />
<use xlink:href="#f2_1b" transform="matrix(12,0,0,12,299.8,475.2)" />
<use xlink:href="#f3_23" transform="matrix(16,0,0,16,321.1,475.2)" />
<use xlink:href="#f3_2e" transform="matrix(16,0,0,16,331.8,475.2)" />
<use xlink:href="#f3_1g" transform="matrix(16,0,0,16,337.5,475.2)" />
<use xlink:href="#f3_2i" transform="matrix(16,0,0,16,351.2,475.2)" />
<use xlink:href="#f3_1t" transform="matrix(16,0,0,16,362.3,475.2)" />
<use xlink:href="#f3_28" transform="matrix(16,0,0,16,372.7,475.2)" />
<use xlink:href="#f3_2c" transform="matrix(16,0,0,16,381.6,475.2)" />
<use xlink:href="#f3_2c" transform="matrix(16,0,0,16,386.5,475.2)" />
<use xlink:href="#f3_2m" transform="matrix(16,0,0,16,391.4,475.2)" />
<use xlink:href="#f3_1a" transform="matrix(16,0,0,16,392.2,475.2)" />
<use xlink:href="#f3_1j" transform="matrix(16,0,0,16,413.7,475.2)" />
<use xlink:href="#f3_2d" transform="matrix(16,0,0,16,424.4,475.2)" />
<use xlink:href="#f3_24" transform="matrix(16,0,0,16,430.2,475.2)" />
<use xlink:href="#f3_1j" transform="matrix(16,0,0,16,438.8,475.2)" />
<use xlink:href="#f3_1s" transform="matrix(16,0,0,16,449.6,475.2)" />
<use xlink:href="#f3_1c" transform="matrix(16,0,0,16,472.6,475.2)" />
<use xlink:href="#f3_2c" transform="matrix(16,0,0,16,488.4,475.2)" />
<use xlink:href="#f3_18" transform="matrix(16,0,0,16,503.7,475.2)" />
<use xlink:href="#f3_1j" transform="matrix(16,0,0,16,514,475.2)" />
<use xlink:href="#f3_22" transform="matrix(16,0,0,16,524.8,475.2)" />
<use xlink:href="#f3_2c" transform="matrix(16,0,0,16,536.5,475.2)" />
<use xlink:href="#f3_2i" transform="matrix(16,0,0,16,541.4,475.2)" />
<use xlink:href="#f3_1f" transform="matrix(16,0,0,16,542.2,475.2)" />
<use xlink:href="#f3_1c" transform="matrix(16,0,0,16,563.8,475.2)" />
<use xlink:href="#f3_24" transform="matrix(16,0,0,16,579.6,475.2)" />
<use xlink:href="#f3_1r" transform="matrix(16,0,0,16,588.2,475.2)" />
<use xlink:href="#f3_2i" transform="matrix(16,0,0,16,598.8,475.2)" />
<use xlink:href="#f3_2b" transform="matrix(16,0,0,16,609.9,475.2)" />
<use xlink:href="#f3_2f" transform="matrix(16,0,0,16,620,475.2)" />
<use xlink:href="#f3_1a" transform="matrix(16,0,0,16,620.7,475.2)" />
<use xlink:href="#f3_1j" transform="matrix(16,0,0,16,642.2,475.2)" />
<use xlink:href="#f3_2c" transform="matrix(16,0,0,16,653,475.2)" />
<use xlink:href="#f3_2i" transform="matrix(16,0,0,16,657.9,475.2)" />
<use xlink:href="#f3_1l" transform="matrix(16,0,0,16,658.7,475.2)" />
<use xlink:href="#f3_2j" transform="matrix(16,0,0,16,667.9,475.2)" />
<use xlink:href="#f3_2d" transform="matrix(16,0,0,16,670.2,475.2)" />
<use xlink:href="#f3_t" transform="matrix(16,0,0,16,676,475.2)" />
<use xlink:href="#f3_28" transform="matrix(16,0,0,16,682.1,475.2)" />
<use xlink:href="#f3_2c" transform="matrix(16,0,0,16,691,475.2)" />
<use xlink:href="#f3_22" transform="matrix(16,0,0,16,695.9,475.2)" />
<use xlink:href="#f3_2c" transform="matrix(16,0,0,16,707.6,475.2)" />
<use xlink:href="#f3_2i" transform="matrix(16,0,0,16,712.5,475.2)" />
<use xlink:href="#f3_21" transform="matrix(16,0,0,16,713.2,475.2)" />
<use xlink:href="#f3_2e" transform="matrix(16,0,0,16,725.2,475.2)" />
<use xlink:href="#f3_1l" transform="matrix(16,0,0,16,731,475.2)" />
<use xlink:href="#f3_24" transform="matrix(16,0,0,16,741.8,475.2)" />
<use xlink:href="#f3_1j" transform="matrix(16,0,0,16,760.8,475.2)" />
<use xlink:href="#f3_24" transform="matrix(16,0,0,16,771.5,475.2)" />
<use xlink:href="#f3_16" transform="matrix(16,0,0,16,173,504.4)" />
<use xlink:href="#f3_26" transform="matrix(16,0,0,16,187.9,504.4)" />
<use xlink:href="#f3_1f" transform="matrix(16,0,0,16,201.7,504.4)" />
<use xlink:href="#f3_7" transform="matrix(16,0,0,16,212.5,504.4)" />
<use xlink:href="#f3_16" transform="matrix(16,0,0,16,223.3,504.4)" />
<use xlink:href="#f3_26" transform="matrix(16,0,0,16,238.2,504.4)" />
<use xlink:href="#f3_1f" transform="matrix(16,0,0,16,252,504.4)" />
<use xlink:href="#f3_1j" transform="matrix(16,0,0,16,271.2,504.4)" />
<use xlink:href="#f3_2n" transform="matrix(16,0,0,16,281.5,504.4)" />
<use xlink:href="#f3_22" transform="matrix(16,0,0,16,281.7,504.4)" />
<use xlink:href="#f3_2c" transform="matrix(16,0,0,16,293,504.4)" />
<use xlink:href="#f3_2i" transform="matrix(16,0,0,16,297.4,504.4)" />
<use xlink:href="#f3_1f" transform="matrix(16,0,0,16,297.6,504.4)" />
<use xlink:href="#f3_1c" transform="matrix(16,0,0,16,316.8,504.4)" />
<use xlink:href="#f3_24" transform="matrix(16,0,0,16,331.5,504.4)" />
<use xlink:href="#f3_1r" transform="matrix(16,0,0,16,339.1,504.4)" />
<use xlink:href="#f3_2i" transform="matrix(16,0,0,16,349.2,504.4)" />
<use xlink:href="#f3_2b" transform="matrix(16,0,0,16,357.8,504.4)" />
<use xlink:href="#f3_2j" transform="matrix(16,0,0,16,367.4,504.4)" />
<use xlink:href="#f3_1b" transform="matrix(16,0,0,16,367.7,504.4)" />
<use xlink:href="#f3_1v" transform="matrix(16,0,0,16,367.9,504.4)" />
</g>
<path d="M360,544.5l71.6,.1m-149.9,-.1h42.2m-50.7,0h1m-10.8,0h9.8m176,0h81.3V654.2H191.6V544.5h63.2M243.1,723.3H191.6V654.2m134.3,69.1H250.3m-20.2,40.1h-9.3V723.1m54.4,40.1H260.6m45.9,-40.1v40.1h-13M348,723.3c0,6.1,-4.9,11,-11,11c-6.1,0,-11.1,-4.9,-11.1,-11c0,-6.1,5,-11.1,11.1,-11.1c6.1,0,11,5,11,11.1Zm.1,0c-.1,.3,-.1,.6,-.1,.9c0,4.8,4.4,8.8,9.8,8.8c5.3,0,9.7,-4,9.7,-8.8c0,-3.2,-1.9,-6,-4.7,-7.6V661.3" class="g2_113" />
<path d="M362.8,654.2c1.4,3.3,3.7,7.5,6.2,10l-6.2,-2l-6.2,2c2.5,-2.5,4.8,-6.7,6.2,-10Z" class="g1_113" />
<path d="M254.1,560.3V528.7m8.7,5.6v20.3m10.8,5.7V528.7m8.6,5.6v20.3M242.4,739.5V707.9m7.4,5.7v20.2M323.4,532.1h37.2v24.7H323.4V532.1ZM289,771.2c2.9,-1.5,4.8,-4.6,4.8,-8.1c0,-3,-1.4,-5.7,-3.7,-7.4m-11,0c-2.2,1.7,-3.7,4.4,-3.7,7.4c0,3.3,1.8,6.2,4.4,7.9m-19.2,-7.8V773H229.8V752.8h30.8v10.4" class="g2_113" />
<path d="M285.5,763.3c0,.7,-.5,1.3,-1.2,1.3c-.7,0,-1.2,-.6,-1.2,-1.3c0,-.7,.5,-1.3,1.2,-1.3c.7,0,1.2,.6,1.2,1.3Z" class="g3_113" />
<path d="M444.7,552.3c2.9,-1.6,4.9,-4.6,4.9,-8.1c0,-3.1,-1.5,-5.7,-3.8,-7.4m-11,0c-2.2,1.7,-3.6,4.4,-3.6,7.4c0,3.3,1.7,6.2,4.4,7.8" class="g2_113" />
<path d="M441.4,544.3c0,.7,-.6,1.3,-1.3,1.3c-.7,0,-1.2,-.6,-1.2,-1.3c0,-.7,.5,-1.3,1.2,-1.3c.7,0,1.3,.6,1.3,1.3Z" class="g3_113" />
<path d="M336.2,538.1H342c1.1,0,2,.2,2.6,.7c.7,.6,1,1.2,1,2.1c0,.5,-.2,.9,-.4,1.3c-.3,.4,-.6,.7,-1.1,.9c-.4,.2,-1.2,.4,-2.2,.5c.8,.2,1.3,.4,1.5,.6c.3,.2,.5,.4,.7,.7c.2,.3,.4,1,.6,1.9c.1,.7,.3,1.1,.4,1.4c.2,.2,.3,.2,.5,.2c.1,0,.3,-.1,.4,-.3c.1,-.2,.2,-.6,.3,-1.2h.5c-.1,1.7,-.8,2.6,-1.9,2.6c-.4,0,-.7,-.1,-1,-.3c-.3,-.2,-.5,-.5,-.6,-.9c-.1,-.2,-.2,-.9,-.4,-2.1c0,-.7,-.2,-1.2,-.3,-1.5c-.2,-.2,-.5,-.5,-.8,-.6c-.4,-.2,-.8,-.3,-1.3,-.3h-.9v4.4c0,.2,.1,.4,.2,.4c.1,.1,.3,.2,.5,.2h1.1v.5h-5.2v-.5h1.1c.3,0,.4,-.1,.5,-.2c.2,-.1,.2,-.2,.2,-.4v-9c0,-.2,0,-.3,-.2,-.4c-.1,-.1,-.3,-.2,-.5,-.2h-1.1v-.5Zm3.4,5.1H341c.8,0,1.6,-.1,2.1,-.5c.5,-.3,.7,-.9,.7,-1.8c0,-.6,-.1,-1,-.3,-1.4c-.2,-.3,-.4,-.5,-.7,-.7c-.3,-.1,-.9,-.2,-1.9,-.2c-.6,0,-.9,.1,-1.1,.2c-.1,.1,-.2,.2,-.2,.4v4Z" class="g1_113" />
<path d="M247.1,757.8l.7,-1h.5l.1,4.1h-.6c-.3,-1.3,-.7,-2.2,-1.4,-2.7c-.6,-.6,-1.3,-.9,-2.1,-.9c-.6,0,-1.2,.2,-1.6,.6c-.4,.4,-.6,.9,-.6,1.5c0,.3,0,.6,.2,.9c.2,.3,.4,.5,.7,.7c.3,.1,1,.3,1.8,.5c1.3,.3,2.2,.5,2.7,.8c.5,.3,.9,.7,1.1,1.1c.3,.4,.4,.9,.4,1.5c0,1,-.4,1.8,-1,2.5c-.7,.7,-1.6,1,-2.7,1c-1.2,0,-2.2,-.4,-3,-1.1l-.9,1h-.5v-4.4h.5c.2,1.2,.7,2.2,1.4,2.9c.8,.7,1.6,1,2.6,1c.7,0,1.3,-.2,1.8,-.6c.5,-.5,.7,-1,.7,-1.6c0,-.4,-.1,-.7,-.3,-1c-.1,-.3,-.4,-.5,-.8,-.7c-.4,-.2,-1.1,-.4,-2.3,-.6c-1.2,-.3,-2.1,-.7,-2.5,-1c-.6,-.5,-1,-1.3,-1,-2.2c0,-1,.4,-1.8,1,-2.5c.6,-.6,1.4,-.9,2.4,-.9c.5,0,.9,.1,1.4,.3c.4,.1,.8,.4,1.3,.8Z" class="g1_113" />
<path d="M181.1,653h.5l4,10.3c.2,.4,.5,.6,1,.6h.4v.6h-4.5v-.6h.4c.4,0,.7,0,.9,-.1c.2,-.1,.2,-.2,.2,-.4c0,0,0,-.1,0,-.2l-.9,-2.4h-4.5l-.5,1.4c-.2,.3,-.2,.6,-.2,.8c0,.3,.1,.5,.3,.7c.3,.1,.6,.2,1,.2h.4v.6h-4.1v-.6c.5,0,.8,-.1,1.1,-.3c.2,-.1,.5,-.5,.7,-1l3.8,-9.6Zm-.2,2.2l-2,5h3.9l-1.9,-5Z" class="g1_113" />
<path d="M534.9,656.1h5.9c1.1,0,2,.3,2.6,.8c.6,.5,.9,1.1,.9,1.9c0,.6,-.2,1.2,-.6,1.6c-.4,.4,-1.1,.8,-1.9,1.1c1,.2,1.8,.5,2.3,1c.6,.5,.8,1.1,.8,1.8c0,.6,-.1,1.1,-.4,1.5c-.3,.5,-.8,.8,-1.5,1.1c-.7,.3,-1.5,.5,-2.4,.5h-5.7v-.6h.9c.3,0,.5,0,.6,-.1c.2,-.1,.2,-.2,.2,-.4v-9c0,-.2,0,-.4,-.2,-.5c-.1,-.1,-.3,-.1,-.5,-.1h-1v-.6Zm3.3,5.2h2.2c.6,0,1.2,-.2,1.6,-.6c.3,-.4,.5,-1,.5,-1.9c0,-.5,-.1,-1,-.2,-1.3c-.2,-.3,-.5,-.5,-.9,-.6c-.3,-.2,-.9,-.2,-1.8,-.2c-.6,0,-1,0,-1.2,.1c-.1,.1,-.2,.2,-.2,.5v4Zm0,.5v4.4c0,.2,.1,.3,.2,.4c.1,.1,.3,.2,.6,.2h1.4c.9,0,1.6,-.2,2,-.6c.5,-.4,.7,-1,.7,-1.9c0,-.7,-.2,-1.3,-.7,-1.8c-.4,-.4,-1.1,-.7,-1.8,-.7h-2.4Z" class="g1_113" />
<path d="M340,717.9l.6,-1.1h.5l.3,4.4h-.5c-.3,-1.2,-.8,-2.2,-1.3,-2.8c-.7,-.7,-1.4,-1.1,-2.3,-1.1c-.6,0,-1.2,.2,-1.7,.6c-.5,.4,-.9,.9,-1.2,1.7c-.3,.7,-.4,1.7,-.4,3.1c0,1.3,.1,2.3,.4,3c.3,.8,.6,1.3,1.1,1.6c.5,.4,1.1,.6,1.7,.6c.9,0,1.6,-.3,2.1,-.8c.5,-.5,.7,-1.1,.7,-1.9v-1c0,-.2,0,-.3,-.2,-.4c-.1,-.1,-.3,-.2,-.6,-.2h-1v-.5H343v.5h-.7c-.3,0,-.5,.1,-.6,.2c-.1,.1,-.2,.2,-.2,.4v4.3H341c-.2,-.7,-.4,-1.3,-.6,-1.9c-.3,.6,-.8,1.1,-1.3,1.4c-.5,.3,-1.1,.4,-1.8,.4c-.9,0,-1.8,-.2,-2.6,-.7c-.8,-.5,-1.5,-1.2,-1.9,-2c-.5,-.9,-.8,-1.9,-.8,-3c0,-1.2,.3,-2.2,.8,-3c.4,-.9,1.1,-1.6,1.9,-2.2c.8,-.5,1.6,-.7,2.5,-.7c.5,0,.9,0,1.3,.2c.5,.2,1,.5,1.5,.9Z" class="g1_113" />
<path d="M443.9,654.2c-4,1.1,-9,3.1,-12.1,5.3l2.4,-5.3l-2.4,-5.3c3.1,2.1,8.1,4.1,12.1,5.3Z" class="g1_113" />
<path d="M243,529.2V525h-4.1v-.9H243v-4.2h1v4.2h4.1v.9H244v4.2h-1Z" class="g1_113" />
<path d="M286.1,524.1h9.1v.9h-9.1v-.9Z" class="g1_113" />
<path d="M231.4,711v-4.2h-4.2v-.9h4.2v-4.2h.9v4.2h4.1v.9h-4.1V711h-.9Z" class="g1_113" />
<path d="M257.5,705.9h9.1v.9h-9.1v-.9Z" class="g1_113" />
<g fill="#000000" >
<use xlink:href="#f3_16" transform="matrix(16,0,0,16,129.7,798.8)" />
<use xlink:href="#f3_t" transform="matrix(16,0,0,16,144.6,798.8)" />
<use xlink:href="#f3_22" transform="matrix(16,0,0,16,150.2,798.8)" />
<use xlink:href="#f3_1c" transform="matrix(16,0,0,16,170.1,798.8)" />
<use xlink:href="#f3_2c" transform="matrix(16,0,0,16,184.8,798.8)" />
<use xlink:href="#f3_24" transform="matrix(16,0,0,16,189.2,798.8)" />
<use xlink:href="#f3_1c" transform="matrix(16,0,0,16,196.8,798.8)" />
<use xlink:href="#f3_2c" transform="matrix(16,0,0,16,211.6,798.8)" />
<use xlink:href="#f3_2i" transform="matrix(16,0,0,16,216,798.8)" />
<use xlink:href="#f3_1b" transform="matrix(16,0,0,16,216.2,798.8)" />
<use xlink:href="#f3_1c" transform="matrix(16,0,0,16,225.1,798.8)" />
<use xlink:href="#f3_2c" transform="matrix(16,0,0,16,239.9,798.8)" />
<use xlink:href="#f3_2i" transform="matrix(16,0,0,16,244.3,798.8)" />
<use xlink:href="#f3_16" transform="matrix(16,0,0,16,253.2,798.8)" />
<use xlink:href="#f3_1j" transform="matrix(16,0,0,16,268.1,798.8)" />
<use xlink:href="#f3_2d" transform="matrix(16,0,0,16,278.4,798.8)" />
<use xlink:href="#f3_24" transform="matrix(16,0,0,16,283.6,798.8)" />
<use xlink:href="#f3_27" transform="matrix(16,0,0,16,291.2,798.8)" />
<use xlink:href="#f3_2d" transform="matrix(16,0,0,16,302.6,798.8)" />
<use xlink:href="#f3_1r" transform="matrix(16,0,0,16,307.9,798.8)" />
<use xlink:href="#f3_2m" transform="matrix(16,0,0,16,318,798.8)" />
<use xlink:href="#f3_1r" transform="matrix(16,0,0,16,318.2,798.8)" />
<use xlink:href="#f3_24" transform="matrix(16,0,0,16,337,798.8)" />
<use xlink:href="#f3_1e" transform="matrix(16,0,0,16,344.6,798.8)" />
<use xlink:href="#f3_1r" transform="matrix(16,0,0,16,360.1,798.8)" />
<use xlink:href="#f3_2i" transform="matrix(16,0,0,16,370.2,798.8)" />
<use xlink:href="#f3_2b" transform="matrix(16,0,0,16,379.1,798.8)" />
<use xlink:href="#f3_2f" transform="matrix(16,0,0,16,388.7,798.8)" />
<use xlink:href="#f3_1a" transform="matrix(16,0,0,16,388.9,798.8)" />
<use xlink:href="#f2_3" transform="matrix(12,0,0,12,408.1,798.8)" />
<use xlink:href="#f2_1c" transform="matrix(12,0,0,12,414.2,798.8)" />
<use xlink:href="#f2_4" transform="matrix(12,0,0,12,424.5,798.8)" />
<use xlink:href="#f2_22" transform="matrix(12,0,0,12,437.3,798.8)" />
<use xlink:href="#f2_1a" transform="matrix(12,0,0,12,441,798.8)" />
<use xlink:href="#f2_23" transform="matrix(12,0,0,12,453.9,798.8)" />
<use xlink:href="#f3_1j" transform="matrix(16,0,0,16,464.4,798.8)" />
<use xlink:href="#f3_2n" transform="matrix(16,0,0,16,474.7,798.8)" />
<use xlink:href="#f3_2d" transform="matrix(16,0,0,16,474.9,798.8)" />
<use xlink:href="#f3_1r" transform="matrix(16,0,0,16,480.2,798.8)" />
<use xlink:href="#f3_24" transform="matrix(16,0,0,16,490.3,798.8)" />
<use xlink:href="#f3_2c" transform="matrix(16,0,0,16,497.9,798.8)" />
<use xlink:href="#f3_2i" transform="matrix(16,0,0,16,502.3,798.8)" />
<use xlink:href="#f3_1u" transform="matrix(16,0,0,16,502.5,798.8)" />
<use xlink:href="#f2_14" transform="matrix(12,0,0,12,523.4,798.8)" />
<use xlink:href="#f3_1c" transform="matrix(16,0,0,16,543.3,798.8)" />
<use xlink:href="#f3_2i" transform="matrix(16,0,0,16,553.3,798.8)" />
<use xlink:href="#f3_21" transform="matrix(16,0,0,16,567,798.8)" />
<use xlink:href="#f3_2c" transform="matrix(16,0,0,16,578.5,798.8)" />
<use xlink:href="#f3_23" transform="matrix(16,0,0,16,582.9,798.8)" />
<use xlink:href="#f3_21" transform="matrix(16,0,0,16,601.8,798.8)" />
<use xlink:href="#f3_2i" transform="matrix(16,0,0,16,613.3,798.8)" />
<use xlink:href="#f3_1b" transform="matrix(16,0,0,16,613.5,798.8)" />
<use xlink:href="#f3_27" transform="matrix(16,0,0,16,622.4,798.8)" />
<use xlink:href="#f3_2h" transform="matrix(16,0,0,16,633.9,798.8)" />
<use xlink:href="#f3_2d" transform="matrix(16,0,0,16,634.1,798.8)" />
<use xlink:href="#f3_i" transform="matrix(16,0,0,16,639.4,798.8)" />
<use xlink:href="#f3_1c" transform="matrix(16,0,0,16,662.3,798.8)" />
<use xlink:href="#f3_24" transform="matrix(16,0,0,16,677,798.8)" />
<use xlink:href="#f3_1r" transform="matrix(16,0,0,16,684.6,798.8)" />
<use xlink:href="#f3_2c" transform="matrix(16,0,0,16,694.8,798.8)" />
<use xlink:href="#f3_2b" transform="matrix(16,0,0,16,707.9,798.8)" />
<use xlink:href="#f3_2j" transform="matrix(16,0,0,16,717.5,798.8)" />
<use xlink:href="#f3_6" transform="matrix(16,0,0,16,717.7,798.8)" />
<use xlink:href="#f2_3" transform="matrix(12,0,0,12,729.8,798.8)" />
<use xlink:href="#f2_1d" transform="matrix(12,0,0,12,735.9,798.8)" />
<use xlink:href="#f2_4" transform="matrix(12,0,0,12,746.1,798.8)" />
<use xlink:href="#f2_22" transform="matrix(12,0,0,12,759,798.8)" />
<use xlink:href="#f2_1b" transform="matrix(12,0,0,12,762.7,798.8)" />
<use xlink:href="#f2_23" transform="matrix(12,0,0,12,775.6,798.8)" />
<use xlink:href="#f3_17" transform="matrix(16,0,0,16,129.7,828)" />
<use xlink:href="#f3_2a" transform="matrix(16,0,0,16,138.2,828)" />
<use xlink:href="#f3_1k" transform="matrix(16,0,0,16,160.8,828)" />
<use xlink:href="#f3_22" transform="matrix(16,0,0,16,167.6,828)" />
<use xlink:href="#f3_27" transform="matrix(16,0,0,16,178.8,828)" />
<use xlink:href="#f3_c" transform="matrix(16,0,0,16,190.3,828)" />
<use xlink:href="#f3_1s" transform="matrix(16,0,0,16,198.4,828)" />
<use xlink:href="#f3_2c" transform="matrix(16,0,0,16,210.6,828)" />
<use xlink:href="#f3_21" transform="matrix(16,0,0,16,224.9,828)" />
<use xlink:href="#f3_2i" transform="matrix(16,0,0,16,236.4,828)" />
<use xlink:href="#f3_1b" transform="matrix(16,0,0,16,236.7,828)" />
<use xlink:href="#f3_1j" transform="matrix(16,0,0,16,246.9,828)" />
<use xlink:href="#f3_2n" transform="matrix(16,0,0,16,257.2,828)" />
<use xlink:href="#f3_2d" transform="matrix(16,0,0,16,257.5,828)" />
<use xlink:href="#f3_1r" transform="matrix(16,0,0,16,262.7,828)" />
<use xlink:href="#f3_24" transform="matrix(16,0,0,16,272.9,828)" />
<use xlink:href="#f3_2c" transform="matrix(16,0,0,16,280.5,828)" />
<use xlink:href="#f3_2i" transform="matrix(16,0,0,16,284.9,828)" />
<use xlink:href="#f3_1u" transform="matrix(16,0,0,16,285.2,828)" />
<use xlink:href="#f2_15" transform="matrix(12,0,0,12,307.2,828)" />
<use xlink:href="#f3_1c" transform="matrix(16,0,0,16,326.3,828)" />
<use xlink:href="#f3_2i" transform="matrix(16,0,0,16,336.3,828)" />
<use xlink:href="#f3_21" transform="matrix(16,0,0,16,351.3,828)" />
<use xlink:href="#f3_2c" transform="matrix(16,0,0,16,362.8,828)" />
<use xlink:href="#f3_23" transform="matrix(16,0,0,16,367.3,828)" />
<use xlink:href="#f3_1c" transform="matrix(16,0,0,16,387.3,828)" />
<use xlink:href="#f3_2c" transform="matrix(16,0,0,16,402.1,828)" />
<use xlink:href="#f3_2i" transform="matrix(16,0,0,16,406.5,828)" />
<use xlink:href="#f3_1c" transform="matrix(16,0,0,16,416.7,828)" />
<use xlink:href="#f3_21" transform="matrix(16,0,0,16,431.5,828)" />
<use xlink:href="#f3_1c" transform="matrix(16,0,0,16,452.9,828)" />
<use xlink:href="#f3_24" transform="matrix(16,0,0,16,467.7,828)" />
<use xlink:href="#f3_1r" transform="matrix(16,0,0,16,475.4,828)" />
<use xlink:href="#f3_2c" transform="matrix(16,0,0,16,485.5,828)" />
<use xlink:href="#f3_2b" transform="matrix(16,0,0,16,499.8,828)" />
<use xlink:href="#f3_2j" transform="matrix(16,0,0,16,509.4,828)" />
<use xlink:href="#f3_1v" transform="matrix(16,0,0,16,509.7,828)" />
<use xlink:href="#f3_17" transform="matrix(16,0,0,16,537.6,828)" />
<use xlink:href="#f3_23" transform="matrix(16,0,0,16,546,828)" />
<use xlink:href="#f3_1j" transform="matrix(16,0,0,16,566.1,828)" />
<use xlink:href="#f3_2d" transform="matrix(16,0,0,16,576.4,828)" />
<use xlink:href="#f3_24" transform="matrix(16,0,0,16,581.7,828)" />
<use xlink:href="#f3_27" transform="matrix(16,0,0,16,589.3,828)" />
<use xlink:href="#f3_1r" transform="matrix(16,0,0,16,600.7,828)" />
<use xlink:href="#f3_2m" transform="matrix(16,0,0,16,610.9,828)" />
<use xlink:href="#f3_23" transform="matrix(16,0,0,16,611.2,828)" />
<use xlink:href="#f3_2c" transform="matrix(16,0,0,16,621.3,828)" />
<use xlink:href="#f3_2i" transform="matrix(16,0,0,16,625.7,828)" />
<use xlink:href="#f3_1b" transform="matrix(16,0,0,16,626,828)" />
<use xlink:href="#f3_2a" transform="matrix(16,0,0,16,636.2,828)" />
<use xlink:href="#f3_2i" transform="matrix(16,0,0,16,648.9,828)" />
<use xlink:href="#f3_1j" transform="matrix(16,0,0,16,659.1,828)" />
<use xlink:href="#f3_2n" transform="matrix(16,0,0,16,669.4,828)" />
<use xlink:href="#f3_r" transform="matrix(16,0,0,16,669.6,828)" />
<use xlink:href="#f3_22" transform="matrix(16,0,0,16,675.5,828)" />
<use xlink:href="#f3_2i" transform="matrix(16,0,0,16,686.8,828)" />
<use xlink:href="#f3_1c" transform="matrix(16,0,0,16,687,828)" />
<use xlink:href="#f3_1j" transform="matrix(16,0,0,16,711.8,828)" />
<use xlink:href="#f3_2n" transform="matrix(16,0,0,16,722.1,828)" />
<use xlink:href="#f3_1c" transform="matrix(16,0,0,16,722.3,828)" />
<use xlink:href="#f3_24" transform="matrix(16,0,0,16,737.1,828)" />
<use xlink:href="#f3_q" transform="matrix(16,0,0,16,744.8,828)" />
<use xlink:href="#f3_2c" transform="matrix(16,0,0,16,753.3,828)" />
<use xlink:href="#f3_21" transform="matrix(16,0,0,16,767.6,828)" />
<use xlink:href="#f3_2i" transform="matrix(16,0,0,16,779.1,828)" />
<use xlink:href="#f3_1b" transform="matrix(16,0,0,16,779.4,828)" />
<use xlink:href="#f3_18" transform="matrix(16,0,0,16,129.7,857.4)" />
<use xlink:href="#f3_1t" transform="matrix(16,0,0,16,139.6,857.4)" />
<use xlink:href="#f3_2c" transform="matrix(16,0,0,16,149.5,857.4)" />
<use xlink:href="#f3_2a" transform="matrix(16,0,0,16,154,857.4)" />
<use xlink:href="#f3_2e" transform="matrix(16,0,0,16,166.7,857.4)" />
<use xlink:href="#f3_23" transform="matrix(16,0,0,16,171.9,857.4)" />
<use xlink:href="#f3_2d" transform="matrix(16,0,0,16,191.6,857.4)" />
<use xlink:href="#f3_1z" transform="matrix(16,0,0,16,196.8,857.4)" />
<use xlink:href="#f3_t" transform="matrix(16,0,0,16,208.4,857.4)" />
<use xlink:href="#f3_1t" transform="matrix(16,0,0,16,214,857.4)" />
<use xlink:href="#f3_2f" transform="matrix(16,0,0,16,224,857.4)" />
<use xlink:href="#f3_1c" transform="matrix(16,0,0,16,233.7,857.4)" />
<use xlink:href="#f3_2e" transform="matrix(16,0,0,16,248.5,857.4)" />
<use xlink:href="#f3_2d" transform="matrix(16,0,0,16,263.2,857.4)" />
<use xlink:href="#f3_c" transform="matrix(16,0,0,16,268.5,857.4)" />
<use xlink:href="#f3_1s" transform="matrix(16,0,0,16,276.6,857.4)" />
<use xlink:href="#f3_2d" transform="matrix(16,0,0,16,288.8,857.4)" />
<use xlink:href="#f3_1r" transform="matrix(16,0,0,16,294.1,857.4)" />
<use xlink:href="#f3_2d" transform="matrix(16,0,0,16,313.7,857.4)" />
<use xlink:href="#f3_1c" transform="matrix(16,0,0,16,319,857.4)" />
<use xlink:href="#f3_2a" transform="matrix(16,0,0,16,333.8,857.4)" />
<use xlink:href="#f3_1j" transform="matrix(16,0,0,16,356,857.4)" />
<use xlink:href="#f3_2n" transform="matrix(16,0,0,16,366.3,857.4)" />
<use xlink:href="#f3_1c" transform="matrix(16,0,0,16,366.5,857.4)" />
<use xlink:href="#f3_2c" transform="matrix(16,0,0,16,381.3,857.4)" />
<use xlink:href="#f3_24" transform="matrix(16,0,0,16,385.7,857.4)" />
<use xlink:href="#f3_1j" transform="matrix(16,0,0,16,402.8,857.4)" />
<use xlink:href="#f3_2n" transform="matrix(16,0,0,16,413.1,857.4)" />
<use xlink:href="#f3_20" transform="matrix(16,0,0,16,413.3,857.4)" />
<use xlink:href="#f3_2c" transform="matrix(16,0,0,16,425.9,857.4)" />
<use xlink:href="#f3_2d" transform="matrix(16,0,0,16,430.3,857.4)" />
<use xlink:href="#f3_27" transform="matrix(16,0,0,16,435.6,857.4)" />
<use xlink:href="#f3_1r" transform="matrix(16,0,0,16,447,857.4)" />
<use xlink:href="#f3_2b" transform="matrix(16,0,0,16,466.6,857.4)" />
<use xlink:href="#f3_2c" transform="matrix(16,0,0,16,476.2,857.4)" />
<use xlink:href="#f3_2i" transform="matrix(16,0,0,16,480.6,857.4)" />
<use xlink:href="#f3_1f" transform="matrix(16,0,0,16,480.9,857.4)" />
<use xlink:href="#f3_2e" transform="matrix(16,0,0,16,491.7,857.4)" />
<use xlink:href="#f3_16" transform="matrix(16,0,0,16,506.4,857.4)" />
<use xlink:href="#f3_2c" transform="matrix(16,0,0,16,521.3,857.4)" />
<use xlink:href="#f3_2j" transform="matrix(16,0,0,16,525.7,857.4)" />
<use xlink:href="#f3_24" transform="matrix(16,0,0,16,526,857.4)" />
<use xlink:href="#f3_m" transform="matrix(16,0,0,16,543.1,857.4)" />
<use xlink:href="#f3_22" transform="matrix(16,0,0,16,552.7,857.4)" />
<use xlink:href="#f3_2c" transform="matrix(16,0,0,16,563.9,857.4)" />
<use xlink:href="#f3_2i" transform="matrix(16,0,0,16,568.3,857.4)" />
<use xlink:href="#f3_1b" transform="matrix(16,0,0,16,568.6,857.4)" />
<use xlink:href="#f3_9" transform="matrix(16,0,0,16,568.8,857.4)" />
<use xlink:href="#f1_b" transform="matrix(16,0,0,16,431.1,886.8)" />
<use xlink:href="#f1_i" transform="matrix(16,0,0,16,446.7,886.8)" />
<use xlink:href="#f1_r" transform="matrix(16,0,0,16,460.1,886.8)" />
<use xlink:href="#f1_v" transform="matrix(16,0,0,16,472.4,886.8)" />
</g>
<path d="M207.3,1061.7l-51.7,-.1V931.8h46.6m193.3,115.5v14.3H214.6M396,1013.1l-9.2,2.3l17.3,4.5l-17.3,4.5l17.3,4.3l-17.3,4.4l17.3,4.2l-17.3,4.1l17.3,3.9l-9.1,1.8M246,931.8H395.5l.1,81.5M207.8,996H155.6m90,.4l-2.5,-9.1l-4.9,17.3l-4.9,-17.3l-4.7,17.3l-4.8,-17.3l-4.8,17.3l-4.9,-17.3l-4.4,17.3l-2.3,-9.1m110.1,.5h-72m150,0H324.2M201.9,931.5l2.4,8.5l5.4,-16.9l4.8,17.4l4.8,-17.4l4.8,17.4L229,923.1l5.1,17.4l4.8,-17.4l4.4,17.4l3,-9m71.2,77.6V984.3m6.5,4.8v15.2m-109.1,45.1v24.8m-8,-4.9v-15.1M151.3,969.9l4.3,-7.5l4.4,7.5m-.1,53.6l-4.3,7.5l-4.3,-7.5m141.3,33.8l7.5,4.4l-7.5,4.3" class="g0_113" />
<path d="M211.3,907c.9,.2,1.5,.6,2,1.1c.6,.6,.9,1.3,.9,2.2c0,1.1,-.3,1.9,-1.1,2.5c-.8,.7,-1.9,1.1,-3.2,1.1c-.8,0,-1.5,-.1,-2.1,-.4c-.5,-.3,-1,-.6,-1.2,-1.1c-.3,-.4,-.5,-.9,-.5,-1.5c0,-.4,.1,-.8,.4,-1.1c.2,-.2,.4,-.3,.8,-.3c.3,0,.5,.1,.7,.3c.2,.2,.3,.4,.3,.8c0,.2,-.1,.4,-.1,.5c-.1,.2,-.3,.3,-.5,.5c-.3,.1,-.4,.2,-.4,.3c0,.2,.1,.4,.2,.7c.2,.2,.5,.4,.8,.5c.4,.1,.8,.2,1.4,.2c.9,0,1.6,-.2,2.1,-.7c.4,-.5,.6,-1.2,.6,-2.2c0,-1.1,-.1,-1.9,-.5,-2.3c-.4,-.5,-1,-.7,-1.7,-.7c-.2,0,-.5,0,-.8,.1c-.2,0,-.4,0,-.5,0c-.2,0,-.3,0,-.4,-.1c-.1,-.1,-.2,-.1,-.2,-.3c0,-.1,.1,-.2,.2,-.3c0,0,.2,-.1,.4,-.1l.5,.1h.4c.8,0,1.3,-.2,1.7,-.6c.4,-.4,.6,-1,.6,-1.8c0,-1,-.2,-1.7,-.6,-2.1c-.3,-.4,-.9,-.6,-1.6,-.6c-.6,0,-1.2,.1,-1.6,.3c-.4,.3,-.6,.5,-.6,.7c0,.1,.2,.3,.4,.5c.3,.3,.5,.6,.5,.9c0,.3,-.1,.5,-.3,.7c-.2,.1,-.4,.2,-.7,.2c-.3,0,-.5,-.1,-.7,-.3c-.2,-.3,-.3,-.6,-.3,-1c0,-.6,.2,-1.2,.7,-1.7c.6,-.7,1.5,-1,2.7,-1c1.2,0,2.1,.3,2.7,.9c.7,.6,1,1.4,1,2.2c0,.7,-.1,1.2,-.5,1.7c-.4,.5,-1,.9,-1.9,1.2Z" class="g1_113" />
<path d="M220.2,901c1.2,0,2.1,.5,2.9,1.4c1,1.1,1.5,2.8,1.5,5c0,2.1,-.5,3.7,-1.3,4.8c-.8,1.1,-1.8,1.7,-3,1.7c-1.2,0,-2.1,-.5,-2.9,-1.4c-.9,-1.2,-1.4,-2.8,-1.4,-5c0,-2.1,.4,-3.8,1.3,-5c.8,-1,1.7,-1.5,2.9,-1.5Zm.1,.6c-.8,0,-1.4,.4,-1.9,1.2c-.4,.7,-.7,2.3,-.7,4.7c0,2.3,.3,3.8,.7,4.6c.5,.8,1.1,1.1,1.9,1.1c.8,0,1.3,-.3,1.8,-1c.5,-.9,.7,-2.4,.7,-4.7c0,-2.3,-.2,-3.9,-.7,-4.7c-.5,-.8,-1.1,-1.2,-1.8,-1.2Z" class="g1_113" />
<path d="M236.4,913.7H231v-3h.3c.2,.9,.4,1.1,1.2,1.1h2.9l-.1,-.5c-1.4,-.4,-2.3,-.9,-3,-2c-1.3,-1.9,-1.1,-4,-.3,-5.4c.7,-1.4,1.6,-1.8,2.1,-2.1c.8,-.5,2,-.8,3.3,-.8c1.3,0,2.5,.3,3.4,.8c.5,.3,1.3,.7,2.1,2.1c.7,1.4,1,3.5,-.3,5.4c-.8,1.1,-1.7,1.6,-3.1,2v.5h2.9c.7,0,1,-.2,1.2,-1.1h.3v3h-5.5l.3,-2.8c.6,-.3,1.5,-.5,2.2,-2.1c.6,-1.4,.8,-4.6,-.8,-6.2c-.8,-.8,-1.7,-1,-2.7,-1c-.9,0,-1.9,.2,-2.6,1c-1.7,1.6,-1.5,4.8,-.9,6.2c.8,1.6,1.6,1.8,2.2,2.1l.3,2.8Z" class="g1_113" />
<path d="M213.8,1011.2h.6v8.5h2v.8h-2v1.9c0,.1,0,.3,.2,.4c.1,.1,.4,.2,.6,.2h.8v.6h-5v-.6h.9c.3,0,.6,-.1,.7,-.2c.2,-.1,.2,-.3,.2,-.6v-1.7h-5v-.9l6,-8.4Zm-1,2.5l-4.3,6h4.3v-6Z" class="g1_113" />
<path d="M222.1,1011c1.2,0,2.1,.4,2.9,1.4c1,1.1,1.5,2.8,1.5,5c0,2.1,-.5,3.7,-1.3,4.8c-.8,1.1,-1.8,1.7,-3,1.7c-1.2,0,-2.1,-.5,-2.9,-1.4c-.9,-1.2,-1.4,-2.8,-1.4,-5c0,-2.1,.4,-3.8,1.3,-5c.8,-1,1.7,-1.5,2.9,-1.5Zm.1,.6c-.8,0,-1.4,.4,-1.9,1.2c-.4,.7,-.6,2.3,-.6,4.6c0,2.4,.2,3.9,.6,4.7c.5,.8,1.1,1.1,1.9,1.1c.8,0,1.4,-.3,1.8,-1c.5,-.9,.7,-2.4,.7,-4.7c0,-2.3,-.2,-3.9,-.7,-4.7c-.4,-.8,-1.1,-1.2,-1.8,-1.2Z" class="g1_113" />
<path d="M238.3,1023.6h-5.4v-2.9h.3c.2,.9,.4,1.1,1.2,1.1h2.9l-.1,-.5c-1.4,-.4,-2.3,-.9,-3,-2c-1.3,-1.9,-1.1,-4.1,-.3,-5.4c.7,-1.4,1.6,-1.8,2.1,-2.1c.8,-.5,2,-.8,3.3,-.8c1.3,0,2.5,.3,3.4,.8c.5,.3,1.3,.7,2.1,2.1c.7,1.3,1,3.5,-.3,5.4c-.8,1.1,-1.7,1.6,-3.1,2v.5h2.9c.8,0,1,-.2,1.2,-1.1h.3v2.9h-5.4l.3,-2.7c.5,-.3,1.4,-.5,2.1,-2.1c.6,-1.4,.8,-4.6,-.8,-6.2c-.8,-.8,-1.7,-1,-2.7,-1c-.9,0,-1.9,.2,-2.6,1c-1.7,1.6,-1.5,4.8,-.9,6.2c.8,1.6,1.6,1.8,2.2,2.1l.3,2.7Z" class="g1_113" />
<path d="M412.5,1031.6c-.3,.4,1.1,.5,4.1,.5c.4,0,.7,-.1,.9,-.3c.2,-.2,.4,-.9,.7,-1.9h.6l-.3,3.7h-8v-.5l2.6,-3c1.4,-1.5,2.3,-2.5,2.6,-2.9c.4,-.6,.7,-1.2,.9,-1.7c.2,-.6,.3,-1.1,.3,-1.5c0,-.7,-.2,-1.3,-.6,-1.7c-.4,-.5,-1,-.7,-1.7,-.7c-.8,0,-1.5,.2,-2,.6c-.5,.4,-.8,.8,-.8,1.3c0,.1,.1,.2,.2,.3c0,.1,.2,.1,.4,.2c.6,.2,.9,.5,.9,1.1c0,.3,-.1,.5,-.3,.7c-.2,.2,-.5,.3,-.8,.3c-.3,0,-.7,-.1,-.9,-.5c-.3,-.3,-.4,-.8,-.4,-1.3c0,-.6,.1,-1.2,.4,-1.7c.3,-.5,.8,-.9,1.4,-1.2c.7,-.3,1.4,-.5,2.1,-.5c.7,0,1.4,.2,2,.5c.6,.3,1.1,.7,1.4,1.2c.3,.5,.5,1.1,.5,1.7c0,.4,-.1,.8,-.3,1.2c-.1,.4,-.4,.8,-.7,1.2c-.5,.6,-1,1.2,-1.5,1.6l-2.4,2c-.6,.5,-1,1,-1.3,1.3Z" class="g1_113" />
<path d="M424.9,1020.9c1.2,0,2.1,.5,2.9,1.4c1,1.1,1.5,2.8,1.5,5.1c0,2.1,-.5,3.7,-1.3,4.8c-.8,1.1,-1.8,1.6,-3,1.6c-1.2,0,-2.1,-.4,-2.9,-1.4c-.9,-1.1,-1.4,-2.8,-1.4,-5c0,-2.1,.4,-3.8,1.3,-5c.8,-1,1.7,-1.5,2.9,-1.5Zm.1,.7c-.8,0,-1.4,.3,-1.9,1.1c-.4,.7,-.6,2.3,-.6,4.7c0,2.3,.2,3.8,.6,4.6c.5,.8,1.1,1.2,1.9,1.2c.8,0,1.4,-.4,1.8,-1.1c.5,-.9,.7,-2.4,.7,-4.7c0,-2.3,-.2,-3.9,-.7,-4.6c-.4,-.8,-1.1,-1.2,-1.8,-1.2Z" class="g1_113" />
<path d="M441.1,1033.6h-5.4v-3h.3c.2,.9,.4,1.1,1.2,1.1h2.9l-.1,-.5c-1.4,-.4,-2.3,-.9,-3,-2c-1.3,-1.9,-1.1,-4,-.3,-5.4c.7,-1.3,1.6,-1.7,2.1,-2c.8,-.5,2,-.8,3.3,-.8c1.3,0,2.5,.3,3.4,.8c.5,.3,1.3,.7,2.1,2c.8,1.4,1,3.5,-.3,5.4c-.8,1.1,-1.7,1.6,-3.1,2v.5h2.9c.8,0,1,-.2,1.2,-1.1h.3v3h-5.4l.3,-2.8c.5,-.3,1.4,-.5,2.1,-2.1c.6,-1.4,.8,-4.6,-.8,-6.2c-.8,-.7,-1.7,-1,-2.7,-1c-.9,0,-1.9,.3,-2.6,1c-1.7,1.6,-1.5,4.8,-.8,6.2c.7,1.6,1.5,1.8,2.1,2.1l.3,2.8Z" class="g1_113" />
<path d="M330.6,1007h.6v8.5h2.1v.8h-2.1v1.9c0,.1,.1,.3,.2,.4c.2,.1,.4,.2,.7,.2h.7v.6h-4.9v-.6h.9c.3,0,.5,-.1,.7,-.2c.1,-.2,.2,-.3,.2,-.6v-1.7h-5.1v-.9l6,-8.4Zm-.9,2.5l-4.3,6h4.3v-6Z" class="g1_113" />
<path d="M339,1006.8c1.1,0,2.1,.4,2.9,1.4c1,1.1,1.4,2.8,1.4,5c0,2.1,-.4,3.7,-1.2,4.8c-.9,1.1,-1.9,1.7,-3,1.7c-1.2,0,-2.1,-.5,-2.9,-1.4c-1,-1.2,-1.4,-2.8,-1.4,-5c0,-2.1,.4,-3.8,1.3,-5c.7,-1,1.7,-1.5,2.9,-1.5Zm0,.6c-.8,0,-1.4,.4,-1.8,1.2c-.5,.7,-.7,2.3,-.7,4.6c0,2.4,.3,3.9,.7,4.7c.5,.8,1.1,1.1,1.9,1.1c.7,0,1.3,-.3,1.7,-1c.5,-.9,.8,-2.4,.8,-4.7c0,-2.3,-.2,-3.9,-.7,-4.7c-.5,-.8,-1.1,-1.2,-1.9,-1.2Z" class="g1_113" />
<path d="M349.1,1006.2h5.6v.7h-1c-.4,0,-.7,0,-.8,.1c-.2,.1,-.2,.2,-.2,.4c0,.1,0,.3,.1,.5l.1,.2l3.5,8.9l3.1,-8.5c0,-.1,0,-.3,0,-.6c0,-.3,-.1,-.6,-.2,-.8c-.2,-.1,-.5,-.2,-.8,-.2h-1v-.7h4.9v.7H362c-.3,0,-.6,.1,-.9,.4c-.3,.3,-.5,.7,-.8,1.4l-4,11.1h-.7l-4.7,-11.9c-.1,-.4,-.3,-.7,-.5,-.8c-.2,-.2,-.5,-.2,-.9,-.2h-.4v-.7Z" class="g1_113" />
<path d="M200.3,1082c.9,.3,1.6,.8,2,1.3c.5,.6,.7,1.3,.7,2.1c0,.9,-.3,1.8,-.9,2.5c-.8,.9,-2,1.4,-3.4,1.4c-1.3,0,-2.4,-.4,-3.1,-1c-.8,-.6,-1.1,-1.4,-1.1,-2.3c0,-.7,.2,-1.3,.6,-1.8c.4,-.6,1.2,-1,2.3,-1.4c-1.6,-.6,-2.4,-1.7,-2.4,-3.1c0,-.9,.4,-1.7,1.1,-2.3c.7,-.7,1.6,-1,2.7,-1c.7,0,1.4,.1,1.9,.4c.6,.2,1,.6,1.3,1c.3,.4,.4,.9,.4,1.4c0,1.1,-.7,2,-2.1,2.8Zm-2.3,1.1c-.8,.3,-1.4,.7,-1.7,1.2c-.4,.4,-.5,1,-.5,1.6c0,.9,.2,1.5,.7,2c.5,.5,1.2,.7,2.2,.7c1,0,1.7,-.2,2.3,-.7c.5,-.5,.8,-1.1,.8,-1.8c0,-.7,-.2,-1.3,-.7,-1.6c-.5,-.4,-1.5,-.8,-3.1,-1.4Zm1.6,-1.4c.6,-.3,1,-.7,1.3,-1c.2,-.4,.3,-.8,.3,-1.4c0,-.7,-.2,-1.3,-.6,-1.7c-.5,-.4,-1.1,-.6,-1.9,-.6c-.8,0,-1.4,.2,-1.8,.6c-.5,.4,-.7,.8,-.7,1.4c0,.6,.2,1.1,.6,1.5c.4,.3,1.3,.8,2.8,1.2Z" class="g1_113" />
<path d="M208.7,1076.4c1.1,0,2.1,.4,2.9,1.3c.9,1.1,1.4,2.8,1.4,5.1c0,2.1,-.4,3.7,-1.2,4.8c-.9,1.1,-1.9,1.7,-3.1,1.7c-1.1,0,-2.1,-.5,-2.8,-1.4c-1,-1.2,-1.5,-2.9,-1.5,-5.1c0,-2,.5,-3.7,1.4,-4.9c.7,-1,1.7,-1.5,2.9,-1.5Zm0,.6c-.8,0,-1.4,.4,-1.8,1.1c-.5,.8,-.7,2.4,-.7,4.7c0,2.3,.2,3.9,.7,4.7c.4,.7,1.1,1.1,1.8,1.1c.8,0,1.4,-.3,1.8,-1.1c.5,-.8,.8,-2.4,.8,-4.6c0,-2.3,-.3,-3.9,-.7,-4.7c-.5,-.8,-1.1,-1.2,-1.9,-1.2Z" class="g1_113" />
<path d="M218.7,1075.8h5.6v.6h-.9c-.4,0,-.7,.1,-.9,.2c-.1,.1,-.2,.2,-.2,.4c0,.1,.1,.3,.2,.5l.1,.2l3.4,8.9l3.1,-8.5c.1,-.2,.1,-.4,.1,-.6c0,-.3,-.1,-.6,-.3,-.8c-.2,-.2,-.4,-.3,-.8,-.3h-.9v-.6h4.9v.6h-.4c-.3,0,-.6,.2,-.9,.5c-.3,.2,-.6,.7,-.8,1.4l-4.1,11h-.6l-4.7,-11.8c-.1,-.4,-.3,-.7,-.5,-.8c-.3,-.2,-.6,-.3,-.9,-.3h-.5v-.6Z" class="g1_113" />
<path d="M402.6,919.1h10.7l.2,4.6h-.6c-.3,-1.6,-.7,-2.6,-1.2,-3.1c-.6,-.5,-1.4,-.8,-2.4,-.8h-2.2c-.2,0,-.3,0,-.4,.1c-.1,.1,-.2,.3,-.2,.5v4.8h1.2c.6,0,1.1,-.3,1.5,-.7c.4,-.4,.6,-1,.6,-1.9h.7v6h-.7c0,-1,-.2,-1.7,-.6,-2.1c-.4,-.5,-.9,-.7,-1.5,-.7h-1.2v5.1c0,.3,.1,.5,.3,.6c.1,.1,.3,.2,.7,.2h1.4v.7h-6.3v-.7h1.3c.3,0,.5,-.1,.6,-.2c.1,-.1,.2,-.3,.2,-.5V920.4c0,-.2,-.1,-.4,-.2,-.5c-.2,-.1,-.4,-.1,-.7,-.1h-1.2v-.7Z" class="g1_113" />
<path d="M413.3,988.5l.6,-1.3h.6l.2,5.4h-.6c-.4,-1.5,-.9,-2.6,-1.5,-3.4c-.7,-.8,-1.6,-1.3,-2.6,-1.3c-1.1,0,-2,.5,-2.7,1.5c-.7,1,-1,2.7,-1,5c0,2,.3,3.5,1.1,4.6c.7,.9,1.7,1.3,2.9,1.3c1.1,0,2,-.3,2.7,-1c.7,-.7,1.2,-1.8,1.4,-3.2h.7c-.2,1.6,-.8,2.8,-1.7,3.7c-.9,.8,-2,1.3,-3.3,1.3c-1.1,0,-2.2,-.3,-3.1,-.9c-.9,-.5,-1.6,-1.3,-2.2,-2.4c-.5,-1,-.8,-2.1,-.8,-3.4c0,-1.3,.3,-2.5,.8,-3.7c.6,-1.2,1.3,-2,2.2,-2.6c.9,-.6,1.9,-.9,2.9,-.9c.6,0,1.1,.1,1.7,.3c.5,.2,1.1,.5,1.7,1Z" class="g1_113" />
<path d="M399.5,1061.6h6.8c1,0,1.9,.2,2.6,.5c.9,.5,1.7,1.2,2.3,2.3c.6,1,.9,2.3,.9,3.7c0,1.2,-.2,2.3,-.6,3.3c-.2,.7,-.7,1.3,-1.2,1.9c-.6,.5,-1.3,.9,-2.2,1.2c-.6,.2,-1.4,.3,-2.5,.3h-6.1v-.6h1.3c.3,0,.5,-.1,.6,-.2c.1,-.1,.2,-.3,.2,-.5v-10.6c0,-.2,-.1,-.4,-.2,-.5c-.1,-.1,-.3,-.2,-.5,-.2h-1.4v-.6Zm4.8,.6c-.3,0,-.5,.1,-.6,.2c-.2,.1,-.2,.3,-.2,.5v10.6c0,.2,.1,.4,.2,.5c.2,.1,.4,.2,.8,.2h1.1c1,0,1.9,-.3,2.7,-.8c.5,-.4,.8,-.9,1.1,-1.5c.4,-.8,.5,-2,.5,-3.5c0,-2.2,-.4,-3.8,-1.1,-4.9c-.7,-.8,-1.7,-1.3,-3,-1.3h-1.5Z" class="g1_113" />
<path d="M138.1,1063.5h7c1.3,0,2.4,.3,3.1,.9c.7,.6,1.1,1.3,1.1,2.2c0,.8,-.3,1.4,-.8,1.9c-.5,.6,-1.3,1,-2.3,1.3c1.3,.3,2.2,.7,2.8,1.2c.7,.6,1,1.3,1,2.2c0,.6,-.2,1.2,-.6,1.7c-.3,.5,-.9,1,-1.7,1.3c-.9,.4,-1.8,.5,-2.9,.5h-6.7v-.6h1.1c.4,0,.6,-.1,.8,-.2c.1,-.1,.2,-.2,.2,-.4v-10.6c0,-.2,-.1,-.4,-.2,-.6c-.2,-.1,-.4,-.1,-.7,-.1h-1.2v-.7Zm4,6.1h2.5c.8,0,1.4,-.3,1.9,-.7c.4,-.5,.7,-1.2,.7,-2.2c0,-.7,-.1,-1.2,-.4,-1.5c-.2,-.4,-.5,-.6,-.9,-.8c-.4,-.2,-1.2,-.2,-2.2,-.2c-.7,0,-1.2,0,-1.4,.1c-.1,.1,-.2,.3,-.2,.6v4.7Zm0,.6v5.1c0,.3,0,.5,.2,.6c.1,.1,.4,.2,.8,.2h1.6c1,0,1.8,-.3,2.3,-.7c.5,-.5,.8,-1.2,.8,-2.2c0,-.9,-.3,-1.7,-.8,-2.2c-.5,-.5,-1.2,-.8,-2.2,-.8h-2.7Z" class="g1_113" />
<path d="M140.6,989.1h.6l4.8,12.1c.2,.5,.5,.8,1.1,.8h.4v.6h-5.2v-.6h.4c.5,0,.9,-.1,1.2,-.2c.1,-.1,.2,-.2,.2,-.4c0,-.1,0,-.2,-.1,-.3l-1.1,-2.8h-5.2l-.6,1.6c-.2,.4,-.3,.8,-.3,1c0,.3,.2,.5,.4,.8c.3,.2,.7,.3,1.2,.3h.5v.6h-4.8v-.6c.5,0,.9,-.1,1.2,-.4c.3,-.2,.6,-.6,.8,-1.2l4.5,-11.3Zm-.3,2.6l-2.3,5.9h4.7l-2.4,-5.9Z" class="g1_113" />
<path d="M136.9,924.1h10.5l.3,4.4h-.6c-.2,-1.4,-.6,-2.3,-1.1,-2.9c-.6,-.6,-1.2,-.8,-2.1,-.8h-2.6c-.2,0,-.3,0,-.4,.1c-.2,.1,-.2,.3,-.2,.5v4.7h1.1c.6,0,1.1,-.2,1.5,-.6c.4,-.4,.6,-1.1,.6,-2h.7v6.1h-.7c0,-1,-.2,-1.7,-.6,-2.2c-.4,-.4,-.9,-.6,-1.6,-.6h-1v5.3c0,.2,.1,.3,.2,.4c.1,.1,.3,.2,.6,.2h2.1c2.2,0,3.5,-1.5,3.8,-4.3h.7l-.3,4.9H136.9v-.6h.9c.4,0,.6,-.1,.8,-.2c.1,-.1,.2,-.3,.2,-.6V925.4c0,-.2,-.1,-.4,-.2,-.5c-.1,-.1,-.3,-.1,-.6,-.1h-1.1v-.7Z" class="g1_113" />
<path d="M133.4,955.8h6.1v.6h-1.1c-.4,0,-.7,.1,-.8,.2c-.2,.1,-.2,.4,-.2,.8v10c0,.4,0,.7,.1,.8c.2,.1,.4,.2,.8,.2h1.2v.6h-6.1v-.6h1.1c.4,0,.7,-.1,.8,-.2c.1,-.1,.2,-.4,.2,-.8v-10c0,-.4,-.1,-.7,-.2,-.7c-.1,-.2,-.4,-.3,-.9,-.3h-1v-.6Z" class="g1_113" />
<path d="M145.3,963.3v9.3c0,.1,.1,.2,.2,.3c.1,.1,.3,.2,.5,.2h1.5v.5h-5.4v-.5h1.2c.3,0,.5,-.1,.6,-.2c.1,-.1,.2,-.3,.2,-.5v-7c0,-.2,-.1,-.3,-.2,-.4c-.1,-.1,-.2,-.1,-.4,-.1h-1.7v-.6c.8,-.1,1.4,-.2,1.9,-.4c.5,-.1,.9,-.4,1.3,-.6h.3Z" class="g1_113" />
<path d="M133,1018.8h6.1v.7H138c-.4,0,-.7,0,-.8,.1c-.1,.2,-.2,.4,-.2,.8v10c0,.4,0,.7,.2,.8c.1,.1,.3,.2,.7,.2h1.2v.6H133v-.6h1.1c.4,0,.7,-.1,.8,-.2c.1,-.1,.2,-.4,.2,-.8v-10c0,-.4,0,-.6,-.2,-.7c-.1,-.2,-.4,-.2,-.9,-.2h-1v-.7Z" class="g1_113" />
<path d="M142.2,1035c-.2,.3,.9,.4,3.4,.4c.3,0,.6,-.1,.8,-.3c.1,-.1,.3,-.7,.5,-1.6h.5l-.2,3.1h-6.7v-.4l2.2,-2.4c1.2,-1.3,1.9,-2.2,2.1,-2.5c.4,-.5,.6,-1,.8,-1.4c.2,-.5,.2,-.9,.2,-1.2c0,-.6,-.1,-1.1,-.5,-1.5c-.3,-.3,-.8,-.5,-1.4,-.5c-.6,0,-1.2,.2,-1.6,.5c-.4,.3,-.7,.6,-.7,1c0,.1,.1,.2,.1,.3c.1,.1,.2,.1,.4,.2c.5,.1,.8,.4,.8,.8c0,.3,-.1,.5,-.3,.7c-.1,.1,-.4,.2,-.6,.2c-.3,0,-.6,-.1,-.8,-.4c-.3,-.3,-.4,-.6,-.4,-1.1c0,-.5,.2,-1,.4,-1.4c.3,-.4,.7,-.7,1.2,-1c.5,-.3,1.1,-.4,1.7,-.4c.6,0,1.2,.1,1.7,.4c.5,.2,.9,.6,1.1,1c.3,.4,.4,.9,.4,1.4c0,.3,0,.7,-.2,1c-.1,.4,-.3,.7,-.5,1c-.5,.5,-.9,1,-1.4,1.4l-1.9,1.6c-.5,.4,-.9,.8,-1.1,1.1Z" class="g1_113" />
<g fill="#000000" >
<use xlink:href="#f0_b" transform="matrix(12,0,0,12,812.3,236.5)" />
</g>
<defs>
<path d="M354,0V148H581c3,0,6,0,9,0c52,0,91,12,113,35c24,25,36,66,36,124V1688c0,31,-9,57,-30,74c-20,16,-49,26,-90,27H296v148c161,9,295,28,404,58c110,29,221,74,334,133h119V261c0,-36,10,-65,31,-85c18,-19,45,-28,77,-28c2,0,5,0,7,0h284V0Z" 
id="f0_7"
transform="scale(4.8828125E-4,-4.8828125E-4)" />

<path d="M177,0V136c75,118,222,299,439,545c194,217,319,381,376,489c77,147,117,294,117,445c0,128,-27,226,-85,293c-57,67,-135,101,-233,103c-99,-2,-181,-29,-247,-84C477,1872,443,1815,443,1758c0,-24,8,-42,23,-55c14,-15,50,-30,105,-42c123,-34,184,-103,184,-207c0,-71,-25,-129,-71,-174c-47,-47,-106,-68,-177,-68c-73,0,-134,30,-183,93c-47,64,-72,153,-72,269c0,159,51,291,154,400c129,131,301,199,521,199c196,0,355,-55,474,-164c121,-108,180,-241,180,-400c0,-86,-13,-164,-44,-234c-40,-98,-93,-183,-160,-258C1311,1042,1198,947,1039,833C866,709,749,622,684,568C620,515,562,458,506,399h707c67,0,118,21,154,62c37,43,68,136,94,278h151L1568,0Z" 
id="f0_8"
transform="scale(4.8828125E-4,-4.8828125E-4)" />

<path d="M798,-59C611,-59,460,-10,347,87C235,183,177,303,177,440c0,92,25,163,75,218c49,54,110,80,185,81c67,-1,121,-22,163,-65c45,-41,65,-93,65,-155c0,-44,-10,-84,-29,-114C616,371,578,341,521,310C480,286,458,263,458,241c0,-35,22,-67,66,-93C586,108,659,89,742,89c3,0,7,0,10,0c1,0,3,0,5,0c106,0,191,47,254,137c66,92,98,249,98,474c0,188,-30,325,-93,411c-61,87,-141,130,-237,131c-44,-1,-91,-11,-143,-27c-52,-17,-107,-43,-167,-77c0,-81,-11,-134,-31,-163C420,947,394,932,359,932c-1,0,-3,0,-5,0c-2,0,-5,0,-7,0c-29,0,-51,7,-67,23c-19,17,-28,38,-28,64c0,38,29,98,89,177l73,977c217,-48,411,-74,584,-74c5,0,10,0,15,0c7,0,13,0,20,0c127,0,233,14,318,41c35,11,56,17,62,19c14,-2,22,-12,22,-31c0,-69,-26,-140,-78,-215c-52,-77,-119,-133,-204,-171c-79,-37,-179,-57,-301,-57c-4,0,-9,0,-13,0c-6,0,-12,0,-19,0c-91,0,-194,11,-307,31L481,1303c77,34,147,58,214,75c66,17,128,26,187,26c192,0,359,-66,495,-194c137,-130,204,-302,204,-516c0,-223,-70,-405,-215,-544C1222,9,1033,-59,798,-59Z" 
id="f0_b"
transform="scale(4.8828125E-4,-4.8828125E-4)" />

<path d="M-51,0L631,2261H924L241,0Z" 
id="f0_5"
transform="scale(4.8828125E-4,-4.8828125E-4)" />

<path d="M1077,-59C840,-59,625,23,431,191L252,-28H148V798H281C412,325,680,89,1082,89c2,0,3,0,4,0c3,0,7,0,10,0c162,0,287,38,378,114c92,77,138,173,138,289c0,79,-20,147,-61,203c-40,54,-103,98,-187,133c-47,17,-162,46,-343,87C775,969,597,1027,490,1086c-108,58,-187,130,-236,217c-51,84,-77,190,-77,313c0,208,71,376,210,508c140,131,328,195,563,197c226,-2,433,-78,621,-233l143,204h89l15,-784H1685c-70,220,-172,386,-304,498c-131,110,-276,167,-435,167c-135,0,-246,-39,-330,-114C530,1983,487,1894,487,1791c0,-63,17,-121,51,-173c33,-50,85,-95,159,-131c73,-37,201,-77,386,-117c217,-48,367,-90,451,-125c134,-59,235,-139,302,-234c68,-97,101,-215,101,-351c0,-209,-73,-374,-217,-497C1546,14,1332,-59,1077,-59Z" 
id="f0_q"
transform="scale(4.8828125E-4,-4.8828125E-4)" />

<path d="M1269,658c26,0,62,10,109,28c49,15,101,35,156,60c119,47,203,90,249,126c-102,101,-220,155,-356,158c-79,-3,-144,-32,-194,-86c-50,-53,-76,-108,-76,-168c3,-78,36,-118,103,-118c1,0,2,0,3,0c2,0,4,0,6,0ZM1087,200c5,0,10,0,15,0c85,0,195,26,330,81c134,47,250,107,351,180V607c-52,-34,-122,-68,-208,-98c-85,-37,-157,-54,-217,-54c-108,2,-205,45,-285,132C988,666,946,768,943,894c3,96,44,182,125,258c79,72,174,108,287,111c90,-3,168,-21,231,-55c30,-21,66,-51,105,-93c40,-44,66,-73,78,-85h6v354H709V883C709,802,691,738,654,688C620,634,565,584,490,536C654,312,852,200,1087,200Zm31,-243C1011,-43,886,8,739,112C591,214,420,396,225,658c-60,74,-87,129,-86,164c0,24,11,50,34,78c20,24,39,40,61,41c26,-1,55,-11,90,-26c31,-21,55,-32,72,-32c1,0,2,0,3,0c23,3,35,21,35,57v444H-2l-151,257H2202l151,-257H2050V-23L1751,168C1513,26,1303,-43,1123,-43c-2,0,-3,0,-5,0Z" 
id="f1_f"
transform="scale(4.8828125E-4,-4.8828125E-4)" />

<path d="M636,542c62,0,114,20,155,63c42,41,62,101,63,177v602H486V688c0,-39,14,-71,37,-98c25,-32,64,-48,113,-48ZM788,299c-49,0,-104,17,-166,52C558,385,493,426,431,477C368,529,316,585,275,646c-43,58,-64,118,-64,177v561H-2l-151,257H1306l152,-257H1129V593c-1,-77,-34,-144,-98,-202C969,332,888,301,788,299Z" 
id="f1_8"
transform="scale(4.8828125E-4,-4.8828125E-4)" />

<path d="M1076,-22C920,-22,772,14,629,89C492,162,327,299,136,501l104,87C353,461,464,370,573,313C677,252,782,221,883,221c3,0,5,0,8,1c119,1,214,33,282,94c66,57,98,109,100,158c0,10,-3,19,-11,32c-12,9,-31,15,-58,15c-46,-3,-109,-14,-188,-34C935,463,866,449,807,448c-46,0,-94,20,-142,61C613,545,565,591,518,646C475,701,440,758,413,817c-31,58,-46,109,-46,155c0,70,23,128,70,172c43,40,108,61,200,64h439v176H-8l-150,257H1593l153,-257H1334V1033c-2,-52,-20,-77,-52,-77H778c-51,0,-92,-12,-123,-38C622,891,605,849,605,796c0,-23,9,-43,28,-60c15,-15,33,-24,53,-27c12,0,38,4,78,11c40,6,85,15,134,26c113,19,194,30,243,33c4,0,7,0,11,0c44,0,82,-9,113,-27c31,-23,69,-75,115,-153c44,-66,71,-116,85,-151c12,-37,20,-69,20,-100C1482,252,1442,170,1366,98C1291,20,1195,-20,1076,-22Z" 
id="f1_h"
transform="scale(4.8828125E-4,-4.8828125E-4)" />

<path d="M179,732V886h962V732Z" 
id="f1_4"
transform="scale(4.8828125E-4,-4.8828125E-4)" />

<path d="M600,567c3,0,6,0,10,0c1,0,3,0,5,0c62,0,143,26,244,76c100,46,184,98,250,156v585H640c37,-88,69,-169,96,-243c25,-78,39,-133,39,-163c0,-28,-16,-54,-48,-75C709,892,686,880,655,868C622,856,582,842,533,831C449,811,408,770,408,709c0,-41,17,-75,49,-99c29,-28,78,-43,143,-43ZM1384,-22L1098,174l17,287C1059,425,995,393,924,367C854,336,793,321,739,321c-2,0,-5,0,-7,0C597,321,475,387,367,513C257,636,182,798,139,998c44,9,104,26,176,53c70,25,120,46,151,63c17,9,32,23,46,41c14,15,21,29,21,41c0,22,-3,49,-12,86c-9,32,-28,66,-52,102H-5l-150,257H1535l153,-257H1384V-22Z" 
id="f1_n"
transform="scale(4.8828125E-4,-4.8828125E-4)" />

<path d="M118,0V148H319c3,0,6,0,9,0c41,0,72,11,95,34c25,23,35,55,35,95V2006c0,37,-10,64,-35,81c-24,17,-67,26,-128,27H118v147H2099l44,-797H2011c-33,184,-74,319,-123,403c-47,81,-111,144,-191,185c-78,41,-181,61,-310,62H1071c-49,-1,-84,-10,-107,-29c-21,-18,-32,-44,-32,-76V1242h107c2,0,5,0,8,0c120,0,213,35,281,104c68,69,108,182,120,339h133V620H1448c-9,173,-49,295,-117,367c-68,70,-173,105,-310,107H932V258c0,-36,11,-62,32,-78c32,-21,75,-32,131,-32c4,0,7,0,11,0h277c2,0,4,0,7,0c186,0,338,58,456,176c120,116,195,295,224,533h133L2173,0Z" 
id="f0_k"
transform="scale(4.8828125E-4,-4.8828125E-4)" />

<path d="M1354,-59C1042,-59,779,50,568,270C358,489,252,772,252,1117c0,380,121,684,364,913c206,193,449,289,727,291c110,-2,212,-17,305,-51c95,-33,196,-91,303,-174l104,225h118l30,-902H2070c-44,254,-130,443,-253,567c-124,124,-266,187,-427,187c-175,0,-321,-83,-435,-246C840,1762,784,1503,784,1150C784,775,848,498,973,316C1074,176,1224,104,1418,104c2,0,4,0,6,0c2,0,4,0,6,0c196,0,360,70,493,211c98,102,167,252,205,453h133C2229,512,2130,310,1965,162C1798,14,1595,-59,1354,-59Z" 
id="f0_i"
transform="scale(4.8828125E-4,-4.8828125E-4)" />

<path d="M532,0V148H781c2,0,4,0,7,0c33,0,61,11,81,31c23,20,32,47,32,82V1995c0,40,-9,69,-32,89c-21,18,-55,29,-101,30C513,2113,342,1876,252,1404H118l44,857H2114l45,-857H2026c-34,182,-75,324,-127,426c-50,101,-110,174,-176,219c-65,43,-137,64,-217,65c-45,-1,-79,-10,-100,-29c-20,-19,-31,-45,-31,-81V261c0,-33,11,-61,32,-82c20,-20,43,-31,71,-31c2,0,4,0,5,0h262V0Z" 
id="f0_r"
transform="scale(4.8828125E-4,-4.8828125E-4)" />

<path d="M118,0V148H293c4,0,8,0,12,0c55,0,92,11,117,29c24,20,36,51,36,90V1989c0,41,-10,74,-33,93c-23,20,-58,31,-107,32H118v147H1271V2114H1060c-44,-1,-78,-10,-97,-29c-22,-18,-31,-44,-31,-76V267c0,-41,11,-70,32,-87c26,-21,62,-32,110,-32c3,0,6,0,9,0h188V0Z" 
id="f0_l"
transform="scale(4.8828125E-4,-4.8828125E-4)" />

<path d="M1296,89c3,0,6,0,9,0c1,0,3,0,5,0c185,0,333,79,444,235c113,157,168,432,168,825c0,272,-24,477,-72,614c-49,138,-121,240,-215,309c-95,65,-207,101,-332,101c-124,0,-232,-36,-324,-101C888,2003,814,1894,761,1745C707,1593,680,1389,680,1128c0,-275,24,-485,75,-624C805,361,877,257,972,189C1066,122,1173,89,1296,89Zm-2,-148C1077,-59,880,-7,707,95C535,199,397,338,298,515C197,691,148,894,148,1128c0,345,110,629,329,855c220,225,492,336,814,338c214,-2,411,-52,591,-156c181,-104,321,-246,422,-425c101,-179,150,-380,150,-605C2454,793,2344,509,2122,281C1899,53,1624,-59,1294,-59Z" 
id="f0_n"
transform="scale(4.8828125E-4,-4.8828125E-4)" />

<path d="M104,0V148h63c1,0,3,0,5,0c88,0,162,34,224,103c61,68,91,158,91,268V1943c-71,113,-165,170,-278,171H104v147H816L2055,713V1762c0,102,-29,184,-89,247c-59,61,-142,96,-252,105v147h828V2114c-120,-13,-208,-48,-259,-103c-54,-58,-80,-141,-80,-251V0H2043L636,1758V545c0,-139,32,-239,94,-304c63,-61,140,-93,231,-93c2,0,4,0,6,0h38V0Z" 
id="f0_m"
transform="scale(4.8828125E-4,-4.8828125E-4)" />

<path d="M44,576V872h961V576Z" 
id="f0_3"
transform="scale(4.8828125E-4,-4.8828125E-4)" />

<path d="M946,695v882L315,695ZM636,0V133H785c4,0,7,0,10,0c54,0,91,12,109,37c28,29,42,76,42,140V532H162V706L1213,2173h147V695h310V532H1360V263c0,-45,13,-77,36,-98c25,-21,60,-32,107,-32c3,0,6,0,10,0h84V0Z" 
id="f0_a"
transform="scale(4.8828125E-4,-4.8828125E-4)" />

<path d="M420,-59c-70,0,-131,26,-182,74C188,66,162,127,162,200c0,70,26,130,76,182c51,49,112,75,182,76c72,-1,133,-27,185,-76c50,-52,75,-112,75,-182C680,127,655,66,605,15C553,-33,492,-59,420,-59Z" 
id="f0_4"
transform="scale(4.8828125E-4,-4.8828125E-4)" />

<path d="M993,-606C830,-460,706,-338,622,-236C486,-72,382,99,312,280C241,461,206,651,206,848c0,194,34,377,100,553c65,174,163,342,290,501c88,109,221,243,397,403l41,-84C886,2067,776,1930,704,1806C634,1681,581,1540,544,1383C506,1225,487,1043,487,839c0,-200,20,-378,58,-532C585,151,642,8,715,-118c73,-130,179,-266,319,-408l-41,-80Z" 
id="f2_3"
transform="scale(4.8828125E-4,-4.8828125E-4)" />

<path d="M89,0V118H248c47,0,80,9,103,32c22,20,34,52,34,93v875c0,54,-17,97,-49,124c-33,28,-81,43,-145,44H73v118l578,31V218c0,-33,9,-58,26,-70c26,-21,56,-30,95,-30H946V0ZM474,1922c-43,0,-81,17,-113,47c-33,31,-51,71,-51,115c0,41,18,79,52,113c34,32,73,49,118,50c46,-1,85,-18,119,-50c35,-34,52,-72,52,-116c0,-44,-17,-81,-51,-112c-32,-30,-70,-47,-114,-47c-2,0,-4,0,-6,0c-2,0,-4,0,-6,0Z" 
id="f2_1k"
transform="scale(4.8828125E-4,-4.8828125E-4)" />

<path d="M70,-606l-41,80c141,142,246,278,321,406C423,8,480,151,518,307c40,154,58,332,58,530c0,206,-18,388,-55,546c-38,157,-93,298,-165,423C287,1930,177,2069,29,2221l41,84C249,2143,379,2012,461,1913C590,1754,689,1586,756,1409C823,1230,857,1043,857,848C857,654,825,471,759,301C695,128,597,-39,466,-204C373,-320,241,-454,70,-606Z" 
id="f2_4"
transform="scale(4.8828125E-4,-4.8828125E-4)" />

<path d="M1118,0L937,110l6,755H539c-16,0,-30,0,-42,-2c-16,-3,-25,-14,-25,-27V671c-4,-43,-21,-66,-48,-66c-2,0,-4,0,-5,0c-1,0,-2,0,-2,0c-14,0,-32,17,-56,50c-25,29,-52,65,-81,106c-26,44,-49,82,-69,117c-22,34,-32,59,-32,72c0,32,14,57,43,72c27,12,82,18,163,18H943v424H-5l-90,177H1259l90,-177H1118V0Z" 
id="f3_23"
transform="scale(4.8828125E-4,-4.8828125E-4)" />

<path d="M464,0L283,110l6,1354H0l-89,177H328c-27,174,-74,299,-143,377c-73,74,-154,110,-239,112c-127,-5,-189,-103,-188,-295l-64,-25c-9,14,-23,40,-41,78c-17,37,-25,72,-28,106c3,96,34,174,95,230c56,52,130,80,217,81c240,0,399,-220,479,-664H654l92,-177H464V0Z" 
id="f3_2e"
transform="scale(4.8828125E-4,-4.8828125E-4)" />

<path d="M1496,0L1311,108l12,439C1208,440,1091,388,967,388C814,390,698,432,619,518C539,597,500,683,500,773c0,43,7,81,21,112c12,29,29,56,50,81H277l-91,175h981l93,-166c-13,-1,-27,-1,-43,-1c-37,0,-80,1,-128,2c-93,0,-162,-1,-204,-4c-42,-8,-74,-17,-97,-31C756,924,730,895,707,851C680,804,666,753,666,700C669,568,732,503,854,501c2,0,3,0,5,0c19,0,40,7,68,18c28,10,61,26,100,48c79,44,175,117,290,221v676H3l-89,177H1635l91,-177H1496V0Z" 
id="f3_1g"
transform="scale(4.8828125E-4,-4.8828125E-4)" />

<path d="M-274,1578c-47,80,-99,161,-157,245c-57,82,-103,139,-135,168c-47,58,-104,90,-171,94c-15,-1,-40,-4,-69,-12c-29,-12,-58,-23,-88,-32c-14,20,-38,63,-74,130c-38,63,-58,104,-61,124c3,9,11,17,23,24c12,6,25,9,40,12c37,3,67,7,92,7c1,0,2,0,3,0c88,0,189,-60,305,-179c70,-78,142,-174,214,-292c75,-121,124,-203,147,-251l-69,-38Z" 
id="f3_2i"
transform="scale(4.8828125E-4,-4.8828125E-4)" />

<path d="M455,0L275,110l6,1354H-4l-90,177H293c-62,69,-94,153,-94,249c0,30,7,67,24,108c14,40,37,78,67,116c29,39,69,71,121,97c50,24,112,38,183,38c103,-3,220,-34,350,-96c132,-66,246,-142,344,-230V1812c-99,82,-205,150,-312,203c-110,51,-204,78,-285,78C591,2090,512,2056,452,1991c-62,-64,-93,-133,-93,-203c0,-69,9,-117,28,-147H648l90,-177H455V0Z" 
id="f3_2d"
transform="scale(4.8828125E-4,-4.8828125E-4)" />

<path d="M1146,-170C1082,-48,1014,90,941,246C899,230,856,222,813,222c-7,0,-14,1,-22,1C666,223,536,289,400,414C336,475,284,547,244,629c-44,78,-65,165,-65,260c-2,98,33,180,105,246c74,61,211,93,414,95H911v234H-5l-90,177H1250l90,-177H1089V1106c-3,-35,-23,-53,-61,-53c-142,0,-269,-5,-380,-13C541,1028,472,1011,442,990C377,940,345,863,345,764c0,-96,38,-179,115,-249C532,438,626,399,743,397c38,0,71,5,102,16c-43,56,-66,114,-69,171c0,21,8,42,23,64c12,15,32,23,63,23c13,0,35,-5,64,-13c27,-10,56,-24,88,-44c33,-18,60,-40,81,-64c22,-26,33,-52,33,-81c0,-26,-5,-55,-17,-89c-14,-36,-40,-64,-77,-85c29,-51,63,-115,101,-194c37,-80,73,-149,115,-212l-104,-59Z" 
id="f3_1t"
transform="scale(4.8828125E-4,-4.8828125E-4)" />

<path d="M1349,-364l-157,140c39,39,59,72,62,104c0,25,-26,55,-79,90L373,480c-63,44,-95,113,-95,206v778H-4l-90,177H1306l90,-177H1108V662c0,-86,-35,-129,-102,-129c-2,0,-4,0,-7,0c-5,0,-10,0,-15,0c-65,0,-136,9,-212,28L665,718c68,-8,126,-9,175,-9c4,0,8,0,12,0c50,0,75,20,75,59v696H455V665c0,-26,6,-51,17,-72c6,-25,14,-40,23,-48L1291,26c67,-43,112,-78,134,-104c17,-29,26,-59,26,-86c-1,-44,-36,-110,-102,-200Z" 
id="f3_1a"
transform="scale(4.8828125E-4,-4.8828125E-4)" />

<path d="M1196,0L1014,112l7,1352H567V665C564,585,530,545,464,544c-15,0,-39,15,-71,50c-34,29,-69,63,-104,103C214,776,179,836,180,875c0,22,6,39,22,51c9,12,20,20,30,20H371c2,-1,3,-1,4,-1c8,0,13,11,13,31v488H-4l-90,177H1335l92,-177H1196V0Z" 
id="f3_1f"
transform="scale(4.8828125E-4,-4.8828125E-4)" />

<path d="M614,710c1,0,2,0,3,0c55,0,115,16,177,49c62,26,114,54,158,83v622H455V952C458,790,511,710,614,710ZM1129,0L946,110l10,513C935,610,900,596,851,582C801,564,753,555,707,555c-32,0,-71,10,-117,33c-46,23,-93,54,-142,92c-46,38,-86,81,-118,130c-35,47,-52,98,-52,149v505H-4l-90,177H1270l91,-177H1129V0Z" 
id="f3_1j"
transform="scale(4.8828125E-4,-4.8828125E-4)" />

<path d="M883,-22C668,208,478,423,313,626C255,700,218,755,202,791c-16,36,-23,60,-23,75c0,28,7,52,26,77c18,20,36,30,59,32c11,-2,25,-5,43,-9c17,-13,35,-25,54,-36c44,-30,76,-47,94,-48c2,-1,3,-1,4,-1c14,0,23,20,27,62c7,44,9,155,9,333c0,67,-5,130,-15,188H-2l-90,177H947l90,-177H677V924c0,-49,-11,-93,-35,-131C620,750,596,720,568,703C500,655,468,625,472,611c0,-8,18,-29,52,-64c34,-35,73,-79,122,-134C753,301,860,191,966,79L883,-22Z" 
id="f3_24"
transform="scale(4.8828125E-4,-4.8828125E-4)" />

<path d="M636,1069c58,62,85,141,85,239c-4,145,-56,218,-154,220c-51,-3,-93,-23,-130,-58c-41,-35,-61,-81,-61,-135c6,-64,33,-117,79,-163c26,-23,54,-41,84,-57c31,-20,63,-33,97,-46ZM1387,0L1202,110l10,484C1167,548,1109,510,1037,477C966,440,895,422,827,422c-124,1,-225,26,-301,73C448,536,390,579,350,623C248,717,196,776,196,799c-3,8,41,32,134,72c89,35,163,78,225,127c-252,82,-378,197,-376,343c0,69,23,139,72,211c48,74,120,110,215,113c24,-1,61,-6,107,-15c47,-15,95,-38,145,-69c50,-33,95,-75,127,-123c35,-54,53,-118,55,-196C898,1144,859,1045,778,964C695,880,593,807,472,746c11,-69,35,-118,73,-146c37,-29,89,-42,158,-42c95,1,189,33,282,97c91,60,164,124,222,194v615H1022l-96,177h600l90,-177H1387V0Z" 
id="f3_1s"
transform="scale(4.8828125E-4,-4.8828125E-4)" />

<path d="M1105,842v622H553V842ZM1285,0L1098,110l7,556H553V523c0,-52,-19,-78,-56,-78c-1,0,-2,0,-4,0c0,0,-1,-1,-2,-1c-15,0,-37,16,-65,46c-33,29,-70,63,-107,104c-38,39,-70,77,-96,113c-29,32,-44,54,-44,66c0,15,6,31,17,46c10,14,24,21,42,23H374v622H2l-90,177H1425l91,-177H1285V0Z" 
id="f3_21"
transform="scale(4.8828125E-4,-4.8828125E-4)" />

<path d="M-77,1864l-203,203l200,200L122,2064L-77,1864Z" 
id="f3_1b"
transform="scale(4.8828125E-4,-4.8828125E-4)" />

<path d="M414,0V118H660c52,0,92,12,116,36c25,25,37,57,37,100V1684c0,29,-11,53,-34,73c-23,21,-53,31,-90,32H354v118c158,20,286,49,382,84c98,35,184,81,259,137h70V215c0,-29,9,-50,30,-65c31,-23,68,-32,110,-32h303V0Z" 
id="f2_a"
transform="scale(4.8828125E-4,-4.8828125E-4)" />

<path d="M212,0L44,562h89L218,281H743v34C558,509,425,686,344,846c-81,161,-122,323,-122,488c0,270,93,495,279,675c188,177,419,266,697,267c276,-1,509,-90,695,-268c186,-179,280,-404,280,-674c0,-165,-40,-327,-121,-488C1971,686,1838,509,1655,315V281h521l85,281h90L2186,0H1409c116,218,204,437,262,658c60,222,87,442,87,659c0,287,-45,504,-140,651c-95,146,-235,218,-420,220c-185,-2,-324,-74,-420,-220C684,1821,636,1604,636,1317c0,-217,29,-437,88,-659C784,437,871,218,985,0Z" 
id="f4_6"
transform="scale(4.8828125E-4,-4.8828125E-4)" />

<path d="M-943,-10l-138,122l807,560V519L-943,-10Z" 
id="f3_2n"
transform="scale(4.8828125E-4,-4.8828125E-4)" />

<path d="M1118,0L933,113l13,885H620c-1,0,-3,0,-5,0C435,998,345,912,345,743c-1,-72,25,-155,77,-248C471,400,558,277,684,127L584,46C434,234,328,391,269,518C206,643,177,753,179,851c0,58,10,108,32,154c21,40,47,75,79,101c69,46,141,69,214,69H941v289H-2l-90,177H1257l92,-177H1118V0Z" 
id="f3_1r"
transform="scale(4.8828125E-4,-4.8828125E-4)" />

<path d="M431,0L249,110l6,1354H21l-89,177H570l90,-177H431V0Z" 
id="f3_2c"
transform="scale(4.8828125E-4,-4.8828125E-4)" />

<path d="M419,1208c71,8,123,33,155,72c25,38,37,75,37,113c-4,84,-47,129,-128,135c-45,-2,-77,-15,-100,-41c-24,-31,-38,-65,-38,-100c0,-24,6,-52,17,-82c11,-32,29,-66,57,-97ZM1373,0L1189,113l12,478C1126,521,1057,471,995,443C935,415,874,400,811,400c-3,0,-6,0,-9,0C694,402,585,442,480,519c-49,39,-89,81,-119,130c-33,46,-49,98,-49,153c0,38,12,80,33,122c26,42,69,77,130,104c-46,31,-87,61,-124,90c-38,28,-68,57,-94,89c-52,56,-78,133,-78,229c0,70,24,130,73,180c46,45,102,68,171,69c87,-3,158,-29,211,-76c50,-52,78,-119,79,-205c0,-69,-19,-124,-61,-168c-42,-50,-100,-81,-177,-93c11,-14,29,-28,55,-41c26,-16,58,-23,95,-23c40,0,93,1,159,6c47,0,84,-3,113,-9c46,-68,70,-117,72,-147c0,-12,-2,-20,-6,-25c-7,-6,-17,-9,-34,-9c-3,0,-7,0,-11,0c-73,3,-139,8,-200,14C654,909,599,894,555,863C507,831,483,776,483,701c3,-58,26,-104,72,-137c45,-34,91,-52,139,-52c2,0,4,0,6,0c2,0,3,0,5,0c74,0,153,29,236,84c87,53,171,127,254,220v648H961l-95,177h648l90,-177H1373V0Z" 
id="f3_1u"
transform="scale(4.8828125E-4,-4.8828125E-4)" />

<path d="M972,819c44,0,94,12,148,38c55,21,102,47,142,80v527H680V924c33,-21,76,-44,130,-67c52,-26,107,-38,162,-38ZM837,0C591,280,419,483,321,610C225,735,177,820,179,866c0,28,9,52,27,77c17,20,37,30,58,32c11,-2,26,-5,45,-9c16,-13,35,-25,53,-36c46,-30,78,-47,96,-48c1,-1,2,-1,3,-1c14,0,25,20,29,62c7,45,10,155,10,333c0,67,-3,130,-13,188H-1l-91,177H1581l90,-177H1441V0L1256,110l12,591c-95,-36,-174,-56,-238,-58c-2,0,-4,0,-6,0c-27,0,-74,10,-139,32c-34,13,-71,29,-106,54c-36,23,-72,50,-105,84C657,793,636,770,611,744C582,717,555,695,532,680C464,645,434,620,438,608c4,-15,62,-78,173,-188C717,307,822,196,924,87L837,0Z" 
id="f3_2a"
transform="scale(4.8828125E-4,-4.8828125E-4)" />

<path d="M585,544c73,0,158,30,252,93c96,55,181,127,255,219c-45,47,-107,94,-181,139c-77,42,-156,67,-242,70C564,1062,483,1036,428,985C373,932,345,874,345,811C351,633,431,544,585,544ZM1274,0L1089,110l13,501C967,478,817,413,649,411c-1,0,-3,0,-4,0c-97,0,-196,46,-295,133c-51,40,-90,90,-122,151c-34,55,-49,118,-49,187c-2,90,29,171,93,246c35,35,79,64,134,85c55,18,123,28,199,29c9,-1,19,-1,29,-1c11,0,21,0,32,1c23,-1,46,-3,70,-6c52,-9,100,-28,144,-55c46,-28,86,-63,119,-105c34,-43,64,-84,90,-126h6v514H-2l-90,177H1413l92,-177H1274V0Z" 
id="f3_27"
transform="scale(4.8828125E-4,-4.8828125E-4)" />

<path d="M1016,-158C825,-111,651,-33,495,73C420,125,361,185,316,251c-47,64,-72,132,-72,209c0,55,11,105,33,150c18,42,41,78,68,105C237,837,180,941,179,1025c0,67,18,122,53,165c37,41,96,63,177,63H851v211H-7l-88,177H1326l90,-177H1030V1138c0,-41,-17,-63,-54,-63c-2,0,-3,1,-4,1H443c-30,-2,-58,-13,-84,-34c-31,-23,-46,-54,-46,-90c0,-29,11,-58,34,-87c20,-31,41,-58,66,-78c30,23,59,41,90,56c30,13,61,22,90,29c59,10,113,14,159,16c84,-3,171,-42,259,-115c40,-35,74,-76,101,-119c25,-44,37,-90,37,-138c0,-65,-17,-122,-54,-168C1056,299,988,261,895,231L796,391c127,25,191,86,192,185c-1,53,-21,96,-61,128c-38,31,-79,46,-126,46C688,747,597,709,533,633C463,556,429,483,429,409c0,-74,52,-158,158,-249C688,66,839,-14,1039,-85l-23,-73Z" 
id="f3_2b"
transform="scale(4.8828125E-4,-4.8828125E-4)" />

<path d="M814,984c16,49,25,105,26,169c0,115,-18,204,-56,263c-41,57,-93,86,-156,86c-70,-3,-115,-32,-133,-86c-21,-59,-32,-102,-31,-133c0,-134,117,-235,350,-299ZM810,-57L526,387c-28,51,-80,77,-158,81C289,483,237,519,214,578c-23,55,-34,94,-32,122c0,72,41,108,124,111c1,0,2,0,3,0c19,0,39,-12,62,-33c23,-29,55,-75,100,-138c42,11,94,38,155,78c57,38,109,98,158,176C669,924,578,961,509,999c-69,34,-121,70,-158,110c-33,37,-56,74,-70,109c-9,32,-14,65,-14,96c0,34,8,63,22,89c10,24,20,44,29,61H-2l-90,177H1124l91,-177H872c57,-75,97,-141,120,-196c18,-60,27,-110,27,-150C1019,998,984,885,914,778C843,666,733,570,582,489L930,38L810,-57Z" 
id="f3_28"
transform="scale(4.8828125E-4,-4.8828125E-4)" />

<path d="M853,-208C697,-31,570,89,471,156c-33,6,-68,15,-109,26c-40,7,-67,14,-85,21c-23,19,-46,49,-69,90c-22,42,-34,86,-34,132c0,15,12,35,34,56c20,20,49,32,85,34c19,0,40,-8,63,-22c18,-16,38,-36,57,-59c35,-47,56,-89,65,-121c70,8,127,29,170,66c40,32,59,70,59,114c0,71,-44,144,-134,222C481,790,353,856,186,909l22,110h971V863H516v-6C755,724,874,602,874,487C874,339,772,249,571,218L943,-127l-90,-81ZM2,1464l-90,177H914l93,-177Z" 
id="f3_11"
transform="scale(4.8828125E-4,-4.8828125E-4)" />

<path d="M510,588c121,2,265,74,433,216C889,886,834,944,778,979c-54,34,-126,51,-213,52c-59,-1,-117,-21,-171,-61C342,927,315,865,313,781c0,-58,20,-103,61,-138c34,-36,80,-55,136,-55ZM1118,0L933,110l13,460C892,532,839,500,787,472C735,446,677,432,613,432C493,434,391,480,309,570C225,655,180,762,179,888c0,20,6,49,17,85c9,34,24,69,48,104c25,37,62,69,110,96c45,23,103,35,176,35c40,0,83,-4,127,-9c44,-9,84,-29,119,-61c23,-17,46,-40,72,-67c26,-29,55,-72,85,-124h8v517H0l-89,177H1923l92,-177H1118V924c100,94,194,142,286,144c29,0,63,-8,101,-21c38,-20,75,-49,110,-88c35,-39,66,-90,90,-152c23,-63,34,-139,34,-226c0,-124,-52,-266,-158,-427L1422,299c54,74,100,149,135,230c32,76,49,146,49,207c0,49,-14,87,-43,117c-28,24,-64,36,-110,38c-40,-2,-87,-19,-147,-51C1247,804,1184,758,1118,701V0Z" 
id="f3_1c"
transform="scale(4.8828125E-4,-4.8828125E-4)" />

<path d="M1496,0L1311,112l6,886H866C937,927,993,862,1033,799c35,-61,52,-128,52,-203c-2,-89,-32,-154,-92,-197C937,354,878,331,817,331c-2,0,-4,0,-6,1c-2,-1,-5,-1,-7,-1c-77,0,-144,23,-205,68C536,440,478,495,426,565C327,706,238,865,163,1042l103,43C327,937,393,813,463,713c38,-55,85,-99,142,-134c53,-40,101,-58,145,-58c55,0,95,17,121,52c26,34,40,76,40,128c0,42,-11,83,-31,124c-21,37,-50,73,-84,107c-75,73,-151,131,-231,177l26,66h726v289H-11l-92,177H1635l91,-177H1496V0Z" 
id="f3_1i"
transform="scale(4.8828125E-4,-4.8828125E-4)" />

<path d="M1001,-11L820,107V1633l181,-119V-11Z" 
id="f3_1v"
transform="scale(4.8828125E-4,-4.8828125E-4)" />

<path d="M1383,578c20,32,41,77,59,137c19,58,28,113,29,170c0,76,-17,140,-53,195c-35,51,-81,78,-135,81c-50,-3,-91,-26,-123,-67c-36,-47,-52,-102,-52,-164c3,-149,94,-267,275,-352ZM844,56C739,56,632,92,521,162c-52,35,-96,76,-130,125c-37,48,-55,101,-55,161c0,36,11,70,31,104c21,30,46,59,76,88C373,683,313,730,261,781c-53,50,-81,105,-82,166c1,98,36,171,104,217c68,44,145,66,232,66c37,0,76,-5,122,-14c44,-11,72,-23,84,-33c35,-57,63,-110,81,-167c-78,21,-144,35,-197,37c-93,0,-160,-16,-200,-43C365,981,345,937,345,878c3,-48,28,-87,72,-114c41,-31,84,-46,127,-46c12,0,30,5,59,15c30,8,63,13,103,13c50,0,95,-8,134,-22c14,-24,31,-55,49,-88c17,-40,26,-63,28,-71c-2,-13,-6,-20,-16,-20c-15,5,-65,13,-149,23C688,567,631,544,582,501C532,455,506,402,503,338c3,-55,30,-94,82,-115c46,-20,92,-32,136,-32c3,0,5,0,8,0c2,0,5,0,7,0c90,0,195,27,315,84c61,26,116,60,167,98c47,36,85,81,114,128c-18,15,-47,38,-88,66c-42,26,-86,58,-135,96c-47,43,-88,90,-124,142c-36,49,-56,107,-56,173c0,73,24,139,70,198c46,57,119,94,217,110v178H-1l-91,177H1664l91,-177H1398V1227c140,-93,211,-232,211,-422c-2,-95,-20,-180,-57,-260C1519,463,1476,396,1427,344C1270,156,1077,60,851,57c-2,-1,-4,-1,-7,-1Z" 
id="f3_1h"
transform="scale(4.8828125E-4,-4.8828125E-4)" />

<path d="M451,238L304,367l704,470C830,959,706,1021,637,1021c-1,0,-2,0,-3,0C541,1018,437,999,321,966L191,1140c69,15,136,29,203,41c67,11,127,15,180,17c46,-2,84,-5,120,-11c33,-12,70,-35,113,-69c44,-38,142,-111,296,-221V698L451,238ZM-2,1464l-93,177H842l91,-177Z" 
id="f3_10"
transform="scale(4.8828125E-4,-4.8828125E-4)" />

<path d="M60,0V118c90,3,171,26,241,70c72,44,141,116,209,217l471,692L371,1977c-50,69,-93,115,-131,134c-38,20,-98,31,-180,32v118H990V2143H878c-82,-1,-135,-7,-161,-19c-26,-14,-40,-31,-40,-51c0,-17,14,-46,44,-87l436,-629l339,498c44,64,64,116,64,157c0,40,-17,69,-54,93c-36,23,-105,37,-204,38v118h812V2143c-91,-1,-161,-16,-213,-45c-71,-42,-136,-106,-196,-193L1245,1228L1957,202c21,-31,46,-51,75,-64c31,-13,82,-20,156,-20V0H1286V118h130c63,0,107,7,130,21c23,14,35,32,35,57c0,22,-15,56,-46,102L1069,969L735,478C681,400,654,332,654,273c0,-50,15,-90,47,-116c32,-27,75,-39,133,-39h83V0Z" 
id="f2_1a"
transform="scale(4.8828125E-4,-4.8828125E-4)" />

<path d="M1707,0L1522,110l12,610c-38,-16,-75,-23,-110,-25c-37,-6,-66,-9,-87,-9c-26,0,-63,8,-110,24c-46,17,-92,39,-135,68l-4,-6c29,-52,44,-106,46,-159C1132,498,1092,408,1018,344C944,276,848,243,730,243c-2,0,-5,0,-7,0C474,246,263,445,90,839l83,49C305,576,469,420,665,420c3,0,6,0,9,0c2,0,4,0,6,0c89,0,157,32,209,96c52,57,78,126,78,205c-1,58,-17,107,-44,147c-31,40,-69,64,-116,78C772,930,724,914,668,895C613,866,573,854,545,854c-4,0,-15,8,-30,24c-15,13,-32,26,-49,43c-35,38,-53,66,-57,83c0,33,17,50,51,52c3,-1,5,-1,8,-1c14,0,29,3,47,7c23,3,46,6,69,9c53,9,91,14,116,14c26,0,59,21,99,67c43,43,66,101,67,176c0,64,-17,114,-52,152c-35,31,-78,46,-130,48c-36,-2,-73,-8,-110,-20c-36,-12,-71,-31,-105,-50c-66,-48,-107,-72,-124,-74q-1,0,-2,0c-16,0,-30,14,-44,38c-21,42,-41,86,-59,133c58,32,118,58,177,78c58,22,112,31,159,32c38,-1,86,-13,144,-38c61,-26,120,-66,175,-119c55,-54,93,-99,113,-139c17,-43,25,-87,25,-133c0,-47,-14,-90,-40,-133c-29,-43,-64,-73,-105,-95C1021,898,1147,845,1262,845c3,0,6,0,9,0c2,0,4,0,6,0c40,0,85,14,138,41c58,23,94,46,113,69v509H1149l-93,177h790l91,-177H1707V0Z" 
id="f3_16"
transform="scale(4.8828125E-4,-4.8828125E-4)" />

<path d="M-303,1509c-64,69,-139,133,-225,191c-84,58,-152,101,-203,132c-50,40,-91,59,-122,59c-14,0,-35,-4,-66,-15c-29,-12,-52,-23,-72,-32c-22,47,-47,104,-74,170c-26,64,-42,104,-45,119c2,21,19,32,52,32c51,0,95,-11,135,-31c39,-23,79,-53,117,-88c63,-48,144,-113,243,-193c100,-85,196,-183,289,-299h37c-14,43,-37,114,-72,212c-35,98,-70,176,-109,235c-23,42,-52,72,-88,97c-35,21,-89,30,-162,32c-19,108,-31,188,-35,240c1,30,13,45,38,45c24,0,58,-12,99,-33c43,-25,87,-70,132,-132c30,-36,58,-84,82,-143c25,-63,49,-129,72,-197c24,-72,47,-136,66,-197c19,-63,33,-115,42,-153l17,-38l-148,-13Z" 
id="f3_2j"
transform="scale(4.8828125E-4,-4.8828125E-4)" />

<path d="M636,0V118H837c55,0,93,9,118,30c23,19,35,48,35,84V932L287,2014c-30,47,-67,79,-108,97c-41,19,-112,29,-207,32v118H976V2143H859c-95,-1,-158,-7,-187,-22c-27,-14,-43,-34,-43,-58c0,-28,8,-51,22,-71l580,-894l421,764c18,32,27,68,27,109c0,52,-17,93,-52,125c-34,31,-82,46,-148,47H1375v118h857V2143c-98,-1,-174,-18,-231,-51c-56,-36,-111,-100,-163,-194L1315,950V232c0,-39,11,-67,33,-81c29,-23,73,-33,129,-33h193V0Z" 
id="f2_1b"
transform="scale(4.8828125E-4,-4.8828125E-4)" />

<path d="M-222,1523c-40,66,-86,155,-136,263c-54,108,-81,206,-84,296c3,74,29,136,78,190c49,49,105,75,169,78c49,0,97,-19,143,-58C-7,2250,31,2171,63,2053L6,2037c-25,58,-49,99,-75,123c-26,22,-55,32,-87,32c-42,-1,-77,-23,-106,-62c-27,-40,-44,-87,-47,-142c1,-31,7,-66,18,-106c11,-39,25,-79,37,-122c32,-82,61,-154,85,-214l-53,-23Z" 
id="f3_2m"
transform="scale(4.8828125E-4,-4.8828125E-4)" />

<path d="M882,112c-75,0,-150,19,-225,59C588,206,523,254,463,315C341,440,248,579,183,733l106,51C387,594,475,460,556,380C632,304,721,267,818,267c2,0,3,0,5,0c85,0,150,29,198,89c47,53,73,116,74,188c-1,84,-33,150,-94,197c-28,20,-61,41,-104,60c-44,15,-90,29,-142,41C668,821,609,809,577,809c-4,0,-7,0,-10,1c-3,-1,-6,-1,-9,-1c-18,0,-35,8,-49,21c-8,12,-25,36,-51,74c-27,39,-44,68,-47,88c0,16,8,30,23,39c12,6,26,9,41,9c25,0,61,-3,112,-6c52,-6,93,-15,122,-26c177,34,264,100,261,194c0,58,-18,112,-52,161c-30,44,-64,78,-99,101H-23l-92,177H1390l93,-177H981c52,-65,93,-129,124,-188c32,-64,48,-124,48,-179c0,-26,-19,-58,-62,-96C1051,961,985,930,897,911v-7C1147,801,1274,662,1276,484C1271,356,1227,261,1143,202C1060,141,973,112,882,112Z" 
id="f3_18"
transform="scale(4.8828125E-4,-4.8828125E-4)" />

<path d="M591,611c97,2,184,28,263,78c78,46,151,99,220,164v611H622c70,-127,108,-234,113,-323c-3,-70,-35,-128,-99,-172C574,923,492,882,391,849c0,-67,17,-122,51,-165c33,-48,82,-73,149,-73ZM1251,0L1068,110l11,518C1033,585,981,548,923,521C865,492,808,477,755,477C588,478,458,533,368,642C277,741,214,859,182,993c117,23,211,58,281,107c69,43,104,96,104,157c0,32,-11,69,-32,107c-20,39,-37,71,-54,100H0l-89,177H1392l91,-177H1251V0Z" 
id="f3_22"
transform="scale(4.8828125E-4,-4.8828125E-4)" />

<path d="M-217,-599c-282,4,-558,142,-833,412l59,80c141,-129,262,-217,361,-265c101,-46,215,-69,341,-69c84,2,151,29,201,83c52,49,77,98,75,147c2,27,-9,55,-30,79c-23,25,-60,43,-107,52c-29,-31,-61,-60,-95,-87c-34,-26,-60,-41,-75,-41c-6,0,-15,7,-30,23c-17,12,-34,27,-51,47c-40,41,-59,73,-62,98c3,15,22,32,62,52c40,20,87,31,142,31C-150,40,-62,8,9,-54c74,-64,110,-144,112,-237c0,-70,-26,-137,-78,-201c-56,-69,-143,-104,-260,-107Z" 
id="f3_2f"
transform="scale(4.8828125E-4,-4.8828125E-4)" />

<path d="M759,134c-4,0,-8,0,-12,0C591,134,458,196,351,313C238,425,180,552,179,694c0,76,18,136,53,178c35,40,86,69,151,87c121,33,242,63,366,91c24,3,42,18,55,44c10,24,15,79,15,166c-2,110,-5,179,-9,204H-5l-90,177H1216l92,-177H988c5,-83,7,-204,8,-364c0,-75,-6,-125,-20,-153C959,920,933,903,897,892C804,865,678,834,521,804C406,782,348,709,345,584c0,-40,9,-77,28,-112c15,-34,36,-66,62,-93c56,-58,120,-89,191,-89c1,0,3,0,5,0c2,0,4,0,6,0c145,0,322,55,530,164l78,-170c-55,-33,-125,-66,-212,-98C951,153,858,134,759,134Z" 
id="f3_1l"
transform="scale(4.8828125E-4,-4.8828125E-4)" />

<path d="M426,536c-3,0,-5,0,-7,0c-13,0,-31,16,-58,51c-25,29,-51,64,-80,107c-27,42,-50,82,-70,117c-22,35,-32,60,-32,72c0,34,14,57,43,73c27,11,82,17,161,19h621V799H541c-35,-1,-54,-11,-55,-31V602c-3,-43,-24,-66,-60,-66ZM-2,1464l-90,177H747l89,-177Z" 
id="f3_t"
transform="scale(4.8828125E-4,-4.8828125E-4)" />

<path d="M843,-22C665,92,509,223,377,374C318,449,270,526,235,603c-38,80,-56,159,-56,237c0,80,27,162,81,248c29,38,64,70,107,96c41,23,88,35,145,35c90,-4,160,-32,209,-79c60,-60,115,-121,162,-182c98,136,196,203,293,203c1,0,2,0,3,0c43,-3,84,-14,124,-35c41,-21,72,-43,92,-63v401H0l-89,177H1711l93,-177H1574V0L1389,112l12,838c-44,34,-90,52,-138,54c-30,-2,-58,-5,-84,-12c-27,-10,-55,-29,-84,-59c-26,-25,-55,-64,-85,-113C978,772,941,710,903,636L762,739c25,49,51,94,74,132c-26,44,-61,82,-106,117c-44,34,-87,51,-125,54c-53,0,-107,-21,-160,-63C388,932,359,859,358,759c0,-52,6,-104,19,-152c16,-51,42,-104,81,-159C535,335,689,209,921,72L843,-22Z" 
id="f3_26"
transform="scale(4.8828125E-4,-4.8828125E-4)" />

<path d="M189,755V866h984V755Z" 
id="f3_7"
transform="scale(4.8828125E-4,-4.8828125E-4)" />

<path d="M1186,649c117,2,258,72,423,210c-54,81,-107,140,-161,177c-53,33,-123,50,-209,52c-60,-2,-115,-22,-166,-61C1021,984,993,921,990,840c0,-58,20,-102,61,-136c34,-36,78,-55,135,-55ZM1004,212c3,0,6,0,9,0c122,2,232,34,333,98c101,55,186,113,260,171V631c-52,-38,-103,-72,-152,-99c-50,-28,-106,-40,-171,-40c-117,1,-218,46,-299,136C900,713,857,819,854,944c0,20,8,49,20,86c8,32,23,67,46,104c26,35,61,67,108,96c45,23,103,33,174,33c40,0,81,-4,126,-12c42,-9,81,-27,117,-58c22,-15,45,-36,71,-65c24,-30,52,-71,84,-124h6v460H629c10,-182,14,-349,16,-500C645,814,576,692,435,594C495,501,576,417,680,341c49,-38,102,-69,157,-90c54,-25,109,-39,167,-39ZM1783,0L1604,115l8,169C1409,128,1221,52,1047,52c-4,0,-7,0,-10,0C830,52,614,197,385,487C310,594,257,686,228,761c-34,73,-49,113,-49,122c0,18,7,37,26,54c15,16,27,26,36,29c11,0,31,-5,62,-14c29,-12,68,-29,119,-49c16,26,27,64,35,111c6,49,9,101,9,156c0,112,-3,210,-11,294H-8l-92,177H1922l92,-177H1783V0Z" 
id="f3_1e"
transform="scale(4.8828125E-4,-4.8828125E-4)" />

<path d="M652,60c2,0,4,0,6,0c2,0,4,0,6,0c119,0,224,45,311,137c90,92,134,208,134,348V753C846,717,660,658,550,576C469,513,429,426,429,313c0,-81,22,-143,63,-188C533,82,586,60,652,60ZM597,-43C451,-43,339,-13,263,49C186,112,148,193,148,292c0,148,87,270,263,368c174,98,408,163,698,197v226c0,80,-30,147,-93,205c-61,56,-139,85,-234,87c-87,-2,-163,-20,-227,-58c-45,-29,-68,-57,-68,-83c0,-16,13,-41,34,-74c27,-43,41,-81,41,-112c0,-49,-15,-87,-44,-116C489,903,453,888,407,888c-2,0,-4,0,-7,0c-2,0,-4,0,-6,0c-48,0,-88,16,-121,50c-33,35,-51,80,-51,135c0,100,58,192,172,278c115,84,264,126,451,128c173,-2,304,-40,394,-113c90,-77,136,-168,136,-275V295c0,-72,11,-124,32,-156c22,-34,48,-50,81,-50c2,0,3,0,5,0c1,0,3,0,5,0c38,0,78,15,118,44l54,-76C1595,-10,1513,-43,1421,-43c-70,0,-130,16,-177,51c-48,35,-91,99,-126,189C1022,99,937,35,863,3C788,-28,701,-43,597,-43Z" 
id="f2_1c"
transform="scale(4.8828125E-4,-4.8828125E-4)" />

<path d="M348,1448c-64,0,-120,28,-171,83c-49,55,-73,127,-73,217c0,211,131,402,393,573l50,-64C440,2185,361,2111,312,2041c-51,-70,-75,-131,-75,-182c0,-33,11,-52,34,-52c1,0,2,0,2,0l16,2c26,6,46,9,62,9c46,0,84,-17,118,-50c32,-34,49,-75,49,-124c0,-55,-17,-101,-52,-139c-32,-38,-72,-57,-118,-57Z" 
id="f2_22"
transform="scale(4.8828125E-4,-4.8828125E-4)" />

<path d="M124,1448l-51,69c109,70,187,141,237,212c49,71,75,130,75,182c0,17,-3,29,-9,38c-5,8,-15,13,-28,14l-15,-3c-24,-7,-46,-9,-64,-9c-46,0,-84,15,-116,49c-32,30,-49,70,-49,118c0,50,17,94,50,132c34,37,74,55,118,55c64,0,122,-27,171,-81c50,-56,75,-125,75,-210c0,-103,-31,-201,-90,-292C368,1630,266,1538,124,1448Z" 
id="f2_23"
transform="scale(4.8828125E-4,-4.8828125E-4)" />

<path d="M1058,1227c172,0,305,33,404,99c99,67,150,187,150,359c0,116,-19,209,-57,280c-38,67,-88,114,-149,140c-60,25,-181,37,-361,38c-118,-1,-191,-9,-218,-25c-28,-17,-43,-46,-43,-86V1227h263c3,0,7,0,11,0ZM1832,-28c-74,0,-138,18,-194,54c-54,37,-96,93,-124,168c-21,55,-44,200,-72,434c-15,134,-38,232,-72,289c-32,58,-84,104,-154,139c-69,35,-151,52,-249,53H784V226c0,-38,10,-64,29,-79c23,-20,61,-29,111,-29h214V0H104V118H319c49,0,84,9,106,29c23,18,33,44,33,79V2027c0,39,-10,66,-33,87c-25,19,-58,28,-106,29H104v118H1259c224,0,397,-52,521,-154c124,-104,186,-239,186,-405c0,-102,-24,-191,-73,-267c-49,-80,-121,-141,-214,-188c-93,-46,-238,-80,-438,-100c146,-41,246,-81,301,-117c55,-40,97,-89,131,-150c34,-63,69,-186,107,-373c27,-134,59,-226,96,-275c27,-35,56,-55,88,-55c1,0,3,0,4,0c1,0,2,0,3,0c32,0,62,23,90,67c29,46,46,127,53,243h103C2198,142,2070,-28,1832,-28Z" 
id="f2_14"
transform="scale(4.8828125E-4,-4.8828125E-4)" />

<path d="M-247,-564c-73,3,-137,17,-189,42c-53,26,-99,59,-136,92c-67,81,-102,148,-102,203c-2,87,36,156,114,207c42,20,90,35,148,49c55,12,100,20,133,23L-111,-97c-39,-1,-88,-7,-145,-18c-58,-12,-102,-23,-133,-34c-102,-35,-154,-85,-152,-149c0,-23,13,-48,39,-74c26,-21,68,-33,124,-35c76,0,168,18,275,57L6,-526c-40,-23,-124,-35,-253,-38Z" 
id="f3_2h"
transform="scale(4.8828125E-4,-4.8828125E-4)" />

<path d="M510,299c42,49,63,106,64,173c-1,35,-13,66,-33,87c-22,19,-43,29,-63,29c-29,0,-56,-10,-84,-29C362,538,345,506,345,463c0,-44,19,-81,55,-110c34,-32,71,-50,110,-54Zm520,-455c-97,3,-177,27,-245,74C717,-36,683,20,683,86c0,35,5,64,15,88c-23,-6,-56,-9,-100,-9c-8,0,-17,0,-27,0c-2,0,-5,0,-8,0c-112,0,-203,31,-271,92C217,313,179,383,179,471c0,73,24,134,75,181c49,46,119,69,207,71c58,-2,109,-25,153,-71c41,-49,63,-108,64,-180c0,-43,-9,-81,-30,-113C631,322,613,298,591,284v-6c9,0,17,-1,26,-1c58,0,111,10,159,29c44,36,93,59,148,70c25,-22,51,-43,77,-64c23,-28,35,-45,36,-51c0,-12,-12,-18,-36,-20c-14,0,-31,-3,-48,-9C935,220,918,208,901,197C862,167,843,128,843,86c0,-40,11,-74,34,-102c23,-30,55,-46,98,-47c61,0,133,33,217,100c82,67,154,160,215,284c-21,-6,-43,-8,-66,-8c-41,0,-86,8,-136,23c-36,14,-76,31,-116,55c-41,23,-79,47,-117,75C900,527,837,602,785,692c-53,86,-79,180,-79,286c-2,98,33,180,108,247c74,60,214,92,419,95h154v144H-5l-90,177H1751l90,-177H1566V1196c-2,-36,-23,-55,-61,-55c-147,0,-266,-4,-359,-12c-92,-12,-153,-29,-182,-50C900,1028,868,953,868,853C868,750,904,665,979,596c72,-73,170,-109,297,-109c38,0,75,5,108,17c-46,55,-70,112,-72,168c0,23,8,43,22,63c12,17,33,26,64,26c14,0,35,-6,64,-14c28,-11,58,-24,89,-43c32,-21,61,-42,82,-67c23,-26,32,-53,32,-81c0,-27,-4,-56,-17,-90c-13,-37,-38,-64,-74,-86c62,-119,142,-250,238,-390L1708,-69c-23,47,-49,97,-79,152c-32,53,-57,85,-72,94c-8,-12,-23,-35,-48,-69C1483,73,1448,34,1401,-7c-47,-39,-101,-75,-162,-104c-63,-27,-133,-42,-209,-45Z" 
id="f3_i"
transform="scale(4.8828125E-4,-4.8828125E-4)" />

<path d="M157,-396l-35,93c51,55,93,111,127,170c35,55,52,97,54,128c0,33,-39,98,-115,199L332,364c38,-36,71,-75,99,-120c27,-48,43,-96,44,-140C475,60,451,0,403,-77C353,-153,272,-259,157,-396Z" 
id="f3_6"
transform="scale(4.8828125E-4,-4.8828125E-4)" />

<path d="M952,89c102,0,183,47,244,139c80,117,119,285,119,504c0,214,-33,370,-103,467c-71,97,-156,145,-262,145c-114,0,-207,-50,-281,-149C597,1094,562,929,562,700C562,480,597,324,668,229C738,136,830,89,942,89c2,0,3,0,5,0c2,0,3,0,5,0ZM325,-14L266,0c21,116,30,238,30,365V1983c0,49,-16,87,-50,118c-34,27,-81,41,-142,42H44v118l518,31V1228c60,83,127,145,199,187c73,41,153,62,238,64c168,-2,309,-67,425,-199c116,-131,173,-304,173,-518c0,-233,-62,-421,-187,-563C1285,55,1131,-14,946,-14C859,-14,779,2,707,37C637,72,564,131,487,215C431,121,377,44,325,-14Z" 
id="f2_1d"
transform="scale(4.8828125E-4,-4.8828125E-4)" />

<path d="M869,-320C790,-214,712,-118,639,-33C564,49,513,96,486,112c-34,4,-70,12,-109,22c-39,8,-67,16,-84,22c-24,20,-47,50,-68,92c-23,42,-36,85,-36,132c0,14,13,34,36,55c19,20,47,33,84,34c33,-1,70,-23,108,-63c41,-41,69,-78,83,-108c6,-1,12,-1,18,-1c60,0,127,21,203,64c41,19,73,48,99,87c26,33,40,75,40,126c0,48,-9,81,-24,98c-17,14,-37,20,-63,20C739,689,698,678,651,660C602,640,555,629,509,629c-45,0,-87,19,-129,55c-39,34,-76,74,-107,123c-64,110,-94,207,-94,291c0,57,14,97,41,124c26,20,69,31,130,31H730v211H-8l-92,177H1056l90,-177H897V1135c0,-27,-20,-40,-60,-40H443c-50,0,-84,-9,-99,-26c-22,-18,-31,-39,-31,-65c0,-52,15,-101,46,-144c28,-47,64,-73,109,-75c42,0,88,11,137,31c46,20,90,29,131,32c34,0,68,-12,100,-35c32,-25,59,-57,84,-96c50,-81,76,-149,78,-201C996,405,955,321,874,263C798,202,704,162,597,141L958,-239l-89,-81Z" 
id="f3_17"
transform="scale(4.8828125E-4,-4.8828125E-4)" />

<path d="M585,544c73,0,158,30,251,93c96,55,180,127,255,219c-46,47,-107,94,-182,139c-76,42,-156,67,-241,70C562,1062,483,1036,428,985C373,932,345,874,345,811C351,633,431,544,585,544ZM660,411c-3,0,-6,0,-9,0c-2,0,-3,0,-5,0c-96,0,-195,46,-296,133c-51,40,-90,90,-122,151c-34,55,-49,118,-49,187c-2,90,29,171,93,246c35,35,79,64,133,85c56,18,122,28,200,29c37,-1,81,-4,136,-12c55,-11,101,-26,137,-49c45,-28,86,-66,123,-112c38,-47,82,-110,136,-186V643C1062,573,985,516,906,477C832,434,749,411,660,411ZM-2,1464l-90,177H903l92,-177Z" 
id="f3_1k"
transform="scale(4.8828125E-4,-4.8828125E-4)" />

<path d="M840,0C593,280,420,483,322,610C225,735,177,820,179,866c0,28,9,52,27,77c17,20,37,30,58,32c11,-2,26,-5,45,-9c16,-13,35,-25,53,-36c46,-30,78,-47,96,-48c1,-1,2,-1,3,-1c14,0,25,20,29,62c7,45,10,155,10,333c0,67,-3,130,-13,188H-1l-91,177H1082l91,-177H681V924c34,-21,78,-44,130,-67c54,-26,107,-38,164,-38c56,0,113,14,166,41c57,26,109,55,158,92V741C1184,675,1096,643,1035,643c-1,0,-2,0,-4,0c-1,0,-3,0,-5,0c-26,0,-73,10,-140,32c-35,13,-70,29,-107,54c-35,23,-70,50,-105,84C657,793,636,770,611,744C582,717,555,695,532,680C464,645,434,620,438,608c4,-15,63,-78,175,-188C718,307,823,196,927,87L840,0Z" 
id="f3_c"
transform="scale(4.8828125E-4,-4.8828125E-4)" />

<path d="M1073,-43C836,-43,629,29,455,177L281,-28H177V842H281C324,603,422,416,571,280C721,141,891,73,1079,73c152,0,278,45,374,133c96,87,144,194,144,323c0,70,-17,133,-52,188c-36,53,-92,99,-170,137c-76,37,-228,83,-454,136c-247,58,-417,125,-508,199C286,1291,222,1439,222,1630c0,197,65,358,194,486c129,125,293,189,495,189c96,0,189,-18,276,-50c86,-35,177,-92,269,-171l141,208h103V1464H1597c-63,250,-158,434,-282,550c-123,114,-267,172,-427,174C753,2186,643,2147,558,2067C472,1988,429,1890,429,1777c0,-72,17,-136,49,-190c32,-55,80,-97,145,-131c65,-34,185,-72,362,-110c251,-57,427,-115,529,-170c102,-58,179,-128,229,-212c51,-87,75,-186,75,-299c0,-205,-69,-375,-208,-509C1471,21,1291,-43,1073,-43Z" 
id="f2_15"
transform="scale(4.8828125E-4,-4.8828125E-4)" />

<path d="M576,44C429,237,327,394,266,521C206,645,177,756,179,853c0,56,10,108,32,152c21,42,47,75,78,101c69,46,139,69,212,69H992V998H619c-2,0,-3,0,-5,0C435,998,345,914,345,744c-1,-70,23,-153,74,-246C466,402,550,278,674,127L576,44ZM-2,1464l-90,177H761l90,-177Z" 
id="f3_r"
transform="scale(4.8828125E-4,-4.8828125E-4)" />

<path d="M619,634c140,0,211,76,211,234v596H457V801c1,-57,23,-100,61,-127c38,-28,72,-40,101,-40ZM709,500c-32,0,-72,10,-118,33c-46,23,-94,54,-143,93c-45,37,-84,80,-118,129c-35,49,-52,98,-52,148v561H-4l-90,177H1135l90,-177H1008V759C1007,681,976,620,918,574C863,524,793,500,709,500Z" 
id="f3_q"
transform="scale(4.8828125E-4,-4.8828125E-4)" />

<path d="M577,534c4,0,9,0,14,1c3,0,6,0,9,0c50,0,105,12,168,35L498,1013C468,996,435,964,403,918C365,871,345,817,345,758c3,-84,31,-142,83,-176c45,-32,95,-48,149,-48Zm279,83c97,51,148,121,152,208c-1,98,-29,168,-79,211c-49,38,-101,58,-154,58c-48,0,-84,-3,-110,-8c-26,-6,-52,-15,-80,-24L856,617ZM1296,0L1112,110l11,498h-8c-17,-23,-38,-46,-61,-69c-24,-24,-53,-49,-85,-70C906,423,820,400,709,400c-4,0,-7,0,-11,0C544,402,419,452,324,553C229,651,180,756,179,869c0,40,9,81,29,124c20,41,47,81,87,118c79,76,200,117,362,119c105,0,194,-25,266,-72c70,-55,133,-124,189,-209h6v515H-8l-92,177H1436l90,-177H1296V0Z" 
id="f3_1z"
transform="scale(4.8828125E-4,-4.8828125E-4)" />

<path d="M619,1134c6,62,9,125,9,186c0,52,-8,99,-21,144c-17,39,-54,61,-114,64c-41,-3,-73,-22,-97,-55c-26,-34,-38,-70,-38,-112c1,-64,30,-116,90,-156c50,-42,108,-65,171,-71ZM1418,0L1234,113l5,573H776V526c-3,-36,-21,-54,-56,-54c-10,0,-32,14,-65,41c-36,23,-73,51,-111,84c-40,36,-75,69,-104,101c-32,32,-49,57,-49,75c0,15,8,31,22,46c10,14,24,21,41,23H597l8,180c-89,28,-162,58,-217,89c-60,32,-102,62,-133,94c-53,68,-78,132,-76,196c-2,61,17,119,55,176c35,56,99,85,189,88c2,0,4,0,6,0c89,0,170,-35,239,-104c71,-73,108,-200,108,-377V842h463v622H1005l-94,177h644l89,-177H1418V0Z" 
id="f3_20"
transform="scale(4.8828125E-4,-4.8828125E-4)" />

<path d="M503,602c3,0,5,0,7,0c121,1,265,66,433,196C889,883,834,943,778,978c-54,35,-126,52,-213,53c-59,-1,-117,-21,-171,-62C342,924,315,862,313,778c0,-54,20,-95,61,-127c33,-32,76,-49,129,-49ZM1118,0L933,112l13,469C892,542,839,509,787,483C735,455,677,443,613,443C493,445,391,489,309,578C225,663,180,768,179,891c0,21,6,49,17,85c9,34,24,67,48,104c25,34,62,66,110,95c45,21,103,33,176,33c40,0,83,-4,127,-13c43,-9,82,-28,119,-58c23,-16,46,-39,72,-69c26,-31,55,-73,85,-128h8v524H81L-8,1641H1259l90,-177H1118V906c83,50,153,75,213,75c2,0,4,0,6,0c24,0,50,-2,75,-3c26,-5,56,-15,91,-35V761c-49,27,-99,43,-145,43c-44,0,-87,-10,-124,-28c-38,-21,-77,-46,-116,-75V0Z" 
id="f3_m"
transform="scale(4.8828125E-4,-4.8828125E-4)" />

<path d="M1037,0L859,185l178,180L1216,185L1037,0Zm-33,519L860,639c159,174,323,382,492,623c57,84,87,171,89,266c-2,96,-32,172,-89,229c-56,53,-130,81,-221,84c-6,1,-12,1,-18,1c-27,0,-62,-5,-106,-16c-57,-20,-119,-52,-191,-98L695,1882c118,86,257,130,420,135c109,-3,211,-57,306,-161c98,-107,148,-241,153,-406c-2,-124,-37,-229,-104,-316C1312,911,1157,706,1004,519Z" 
id="f3_9"
transform="scale(4.8828125E-4,-4.8828125E-4)" />

<path d="M1795,-22L1511,177l15,451c-35,-11,-72,-17,-111,-17c-6,0,-20,5,-43,12c-24,6,-52,16,-81,26c-61,19,-108,39,-142,60l-6,-5c24,-62,35,-120,35,-175C1176,423,1134,333,1051,261C970,183,857,144,713,142C587,144,461,203,336,321C214,431,105,576,14,758l113,69C269,533,428,388,603,388c94,0,172,25,233,75c59,47,90,108,93,182c-3,90,-23,165,-63,223C773,813,662,768,530,736c-37,43,-72,89,-108,139c-39,52,-58,84,-58,97c-2,13,23,27,74,41c286,53,428,153,428,302c-1,75,-42,112,-122,112c-1,0,-3,0,-5,0c-4,0,-9,1,-14,1c-36,0,-91,-10,-164,-30c-86,-23,-179,-55,-278,-98L139,1571c63,26,136,50,217,73c82,21,145,32,189,35c69,-1,138,-17,205,-50c64,-32,124,-74,180,-127c57,-52,103,-107,138,-167c32,-59,49,-119,49,-175c0,-39,-11,-74,-29,-109c-20,-38,-57,-75,-109,-111c83,-75,162,-114,236,-114c1,0,3,0,4,1c3,-1,5,-1,8,-1c69,0,133,20,192,59c66,32,100,70,101,114v385H1317l-150,257h779l152,-257H1795V-22Z" 
id="f1_b"
transform="scale(4.8828125E-4,-4.8828125E-4)" />

<path d="M594,938c42,29,78,70,112,125c29,54,46,116,47,190c0,58,-14,99,-38,124c-27,21,-63,32,-107,32c-56,-3,-101,-25,-134,-66c-36,-41,-54,-93,-54,-156c0,-98,58,-180,174,-249ZM1517,-22L1233,174l15,242C1178,356,1106,306,1033,263C960,220,885,199,808,199c-2,0,-5,0,-7,0c-2,0,-4,0,-6,0c-50,0,-110,18,-184,52C535,283,460,332,387,394C322,455,267,516,217,576c-52,55,-78,89,-78,102c0,13,41,32,127,61c76,29,153,69,227,121C261,990,145,1128,145,1276c2,107,37,194,107,262c69,66,154,100,257,103c61,0,120,-17,177,-49c57,-35,108,-81,154,-134C940,1343,990,1224,993,1098C996,912,837,735,516,565C493,461,535,411,643,411c81,2,182,40,301,113c118,72,217,160,298,261v599H1045L882,1641h788l154,-257H1517V-22Z" 
id="f1_i"
transform="scale(4.8828125E-4,-4.8828125E-4)" />

<path d="M560,501c33,0,73,11,118,29c48,17,97,38,150,63c110,56,205,114,286,171v37C984,912,840,969,684,972C603,969,536,941,484,886C428,827,400,753,400,668C405,558,455,503,553,501c2,0,5,0,7,0ZM1384,-22L1100,176l17,287C964,347,825,287,703,287c-2,0,-3,0,-5,0c-2,0,-5,0,-8,0c-66,0,-129,18,-190,52C434,370,374,413,321,466C206,578,147,697,145,823c0,115,46,210,139,288c92,76,209,117,355,119c44,0,88,-5,133,-12c44,-8,79,-22,105,-40c61,-44,137,-118,232,-222v428H3l-150,257H1532l153,-257H1384V-22Z" 
id="f1_r"
transform="scale(4.8828125E-4,-4.8828125E-4)" />

<path d="M490,-22L202,177l21,1207H3l-150,257H706L859,1384H490V-22Z" 
id="f1_v"
transform="scale(4.8828125E-4,-4.8828125E-4)" />


</defs>
</svg>