<?xml version="1.0" encoding="UTF-8" standalone="no"?>
<!DOCTYPE svg PUBLIC "-//W3C//DTD SVG 1.1//EN"
"http://www.w3.org/Graphics/SVG/1.1/DTD/svg11.dtd">
<svg viewBox="0 0 909 1286" version="1.1" xmlns="http://www.w3.org/2000/svg" xmlns:xlink="http://www.w3.org/1999/xlink">
<defs>
<clipPath id="c0_39"><path d="M55.2,174.7V126h93.2v48.7Z" /></clipPath>
<clipPath id="c1_39"><path d="M55.2,377.5V195.9H278V377.5Z" /></clipPath>
<clipPath id="c2_39"><path d="M55.2,541.4V377.2H281.1V541.4Z" /></clipPath>
<style type="text/css"><![CDATA[
.g0_39{
fill: #D9D9D9;
}
.g1_39{
fill: none;
stroke: #000000;
stroke-width: 0.7638889;
stroke-linecap: butt;
stroke-linejoin: miter;
}
.g2_39{
fill: none;
stroke: #000000;
stroke-width: 0.92394716;
stroke-linecap: butt;
stroke-linejoin: round;
}
.g3_39{
fill: none;
stroke: #000000;
stroke-width: 0.9080824;
stroke-linecap: butt;
stroke-linejoin: round;
}
.g4_39{
fill: none;
stroke: #000000;
stroke-width: 0.41620636;
stroke-linecap: butt;
stroke-linejoin: round;
}
.g5_39{
fill: none;
stroke: #000000;
stroke-width: 0.9025605;
stroke-linecap: butt;
stroke-linejoin: round;
}
.g6_39{
}
]]></style>
</defs>
<image preserveAspectRatio="none" x="747" y="1196" width="96" height="59" xlink:href="img/1.png" />
<image preserveAspectRatio="none" x="336" y="41" width="259" height="51" xlink:href="img/2.png" />
<image preserveAspectRatio="none" x="342" y="50" width="247" height="27" xlink:href="img/3.png" />
<image preserveAspectRatio="none" x="341" y="45" width="239" height="42" xlink:href="img/4.png" />
<g fill="#FFFFFF" >
<use xlink:href="#f0_j" transform="matrix(11.5,0,0,11.5,355.1,70.1)" />
<use xlink:href="#f0_i" transform="matrix(11.5,0,0,11.5,364.3,70.1)" />
<use xlink:href="#f0_2n" transform="matrix(11.5,0,0,11.5,374.1,70.1)" />
<use xlink:href="#f0_t" transform="matrix(11.5,0,0,11.5,382.6,70.1)" />
<use xlink:href="#f0_oj" transform="matrix(11.5,0,0,11.5,391,70.1)" />
<use xlink:href="#f0_3e" transform="matrix(11.5,0,0,11.5,396.5,70.1)" />
<use xlink:href="#f0_1c" transform="matrix(11.5,0,0,11.5,406.1,70.1)" />
<use xlink:href="#f0_1c" transform="matrix(11.5,0,0,11.5,410.8,70.1)" />
<use xlink:href="#f0_oj" transform="matrix(11.5,0,0,11.5,415.6,70.1)" />
<use xlink:href="#f0_rz" transform="matrix(11.5,0,0,11.5,421.1,70.1)" />
<use xlink:href="#f0_rx" transform="matrix(11.5,0,0,11.5,429.9,70.1)" />
<use xlink:href="#f0_ry" transform="matrix(11.5,0,0,11.5,438.7,70.1)" />
<use xlink:href="#f0_s4" transform="matrix(11.5,0,0,11.5,447.5,70.1)" />
<use xlink:href="#f0_t" transform="matrix(11.5,0,0,11.5,460.4,70.1)" />
<use xlink:href="#f0_3e" transform="matrix(11.5,0,0,11.5,468.8,70.1)" />
<use xlink:href="#f0_5" transform="matrix(11.5,0,0,11.5,478.3,70.1)" />
<use xlink:href="#f0_1x" transform="matrix(11.5,0,0,11.5,489,70.1)" />
<use xlink:href="#f0_1c" transform="matrix(11.5,0,0,11.5,504.4,70.1)" />
<use xlink:href="#f0_1y" transform="matrix(11.5,0,0,11.5,509.1,70.1)" />
<use xlink:href="#f0_5" transform="matrix(11.5,0,0,11.5,520.8,70.1)" />
<use xlink:href="#f0_2t" transform="matrix(11.5,0,0,11.5,531.5,70.1)" />
<use xlink:href="#f0_1c" transform="matrix(11.5,0,0,11.5,540.2,70.1)" />
<use xlink:href="#f0_24" transform="matrix(11.5,0,0,11.5,545,70.1)" />
<use xlink:href="#f0_1y" transform="matrix(11.5,0,0,11.5,556.7,70.1)" />
</g>
<image preserveAspectRatio="none" x="554" y="45" width="36" height="42" xlink:href="img/5.png" />
<g fill="#FFFFFF" >
<use xlink:href="#f1_l" transform="matrix(11,0,0,11,770.3,1227.6)" />
<use xlink:href="#f1_o" transform="matrix(11,0,0,11,779.1,1227.6)" />
<use xlink:href="#f1_j" transform="matrix(11,0,0,11,792.3,1227.6)" />
<use xlink:href="#f1_m" transform="matrix(11,0,0,11,802.9,1227.6)" />
<use xlink:href="#f1_s" transform="matrix(11,0,0,11,811.7,1227.6)" />
</g>
<path fill-rule="evenodd" d="M52.8,1193.5H856.9v-.8H52.8v.8Z" class="g0_39" />
<path d="M37.9,99.4L873,98.5" class="g1_39" />
<path d="M98.9,151.9H145" class="g2_39" />
<g clip-path="url(#c0_39)">
<g fill="#000000" >
<use xlink:href="#f2_21" transform="matrix(7.2,0,0,7.1,67.8,161.3)" />
<use xlink:href="#f2_2d" transform="matrix(7.2,0,0,7.1,72.4,161.3)" />
<use xlink:href="#f2_1o" transform="matrix(12.4,0,0,12.4,112,144.6)" />
<use xlink:href="#f2_1j" transform="matrix(12.4,0,0,12.4,123.1,144.6)" />
<use xlink:href="#f2_1j" transform="matrix(12.4,0,0,12.4,58.3,156.5)" />
<use xlink:href="#f2_1o" transform="matrix(12.4,0,0,12.4,101.5,171.2)" />
<use xlink:href="#f2_1j" transform="matrix(12.4,0,0,12.4,133.5,171.2)" />
<use xlink:href="#f3_x" transform="matrix(12.4,0,0,12.4,84.1,156.5)" />
<use xlink:href="#f3_f" transform="matrix(12.4,0,0,12.4,119.2,171.2)" />
</g>
</g>
<g fill="#000000" >
<use xlink:href="#f4_22" transform="matrix(12,0,0,12,55,191.4)" />
<use xlink:href="#f4_2b" transform="matrix(12,0,0,12,60.5,191.4)" />
<use xlink:href="#f4_2e" transform="matrix(12,0,0,12,70.1,191.4)" />
<use xlink:href="#f4_2g" transform="matrix(12,0,0,12,81,191.4)" />
<use xlink:href="#f4_24" transform="matrix(12,0,0,12,86.5,191.4)" />
<use xlink:href="#f4_21" transform="matrix(12,0,0,12,95.3,191.4)" />
<use xlink:href="#f4_2f" transform="matrix(12,0,0,12,108.1,191.4)" />
<use xlink:href="#f4_21" transform="matrix(12,0,0,12,115.1,191.4)" />
<use xlink:href="#f4_1z" transform="matrix(12,0,0,12,123.1,191.4)" />
<use xlink:href="#f4_2b" transform="matrix(12,0,0,12,131.2,191.4)" />
<use xlink:href="#f4_2a" transform="matrix(12,0,0,12,140.7,191.4)" />
<use xlink:href="#f4_20" transform="matrix(12,0,0,12,149.5,191.4)" />
<use xlink:href="#f4_1y" transform="matrix(12,0,0,12,163.4,191.4)" />
<use xlink:href="#f4_1x" transform="matrix(12,0,0,12,172.2,191.4)" />
<use xlink:href="#f4_28" transform="matrix(12,0,0,12,180.7,191.4)" />
<use xlink:href="#f4_1x" transform="matrix(12,0,0,12,185.4,191.4)" />
<use xlink:href="#f4_2a" transform="matrix(12,0,0,12,193.8,191.4)" />
<use xlink:href="#f4_1z" transform="matrix(12,0,0,12,202.6,191.4)" />
<use xlink:href="#f4_21" transform="matrix(12,0,0,12,210.7,191.4)" />
<use xlink:href="#f4_20" transform="matrix(12,0,0,12,218.8,191.4)" />
<use xlink:href="#f4_1y" transform="matrix(12,0,0,12,233.1,191.4)" />
<use xlink:href="#f4_2e" transform="matrix(12,0,0,12,241.9,191.4)" />
<use xlink:href="#f4_25" transform="matrix(12,0,0,12,248.4,191.4)" />
<use xlink:href="#f4_20" transform="matrix(12,0,0,12,252.8,191.4)" />
<use xlink:href="#f4_23" transform="matrix(12,0,0,12,262,191.4)" />
<use xlink:href="#f4_21" transform="matrix(12,0,0,12,271.5,191.4)" />
</g>
<path d="M58.2,220.4H82.1m19.9,0h56.3" class="g3_39" />
<path d="M59.7,299.8H106" class="g4_39" />
<path d="M58.2,276.8h49.2m20,0h56.3M58.2,349.1h71.7m19.9,0h69" class="g3_39" />
<g clip-path="url(#c1_39)">
<g fill="#000000" >
<use xlink:href="#f4_m" transform="matrix(7,0,0,7,129.2,218)" />
<use xlink:href="#f4_m" transform="matrix(7,0,0,7,150.6,244.2)" />
<use xlink:href="#f4_m" transform="matrix(7,0,0,7,154.5,274.3)" />
<use xlink:href="#f4_m" transform="matrix(7,0,0,7,175.9,300.5)" />
<use xlink:href="#f4_m" transform="matrix(7,0,0,7,183.3,346.6)" />
<use xlink:href="#f4_m" transform="matrix(7,0,0,7,204.7,372.9)" />
<use xlink:href="#f4_l" transform="matrix(12.2,0,0,12.2,101.2,239.5)" />
<use xlink:href="#f4_k" transform="matrix(12.2,0,0,12.2,110.3,239.5)" />
<use xlink:href="#f4_k" transform="matrix(12.2,0,0,12.2,119.5,239.5)" />
<use xlink:href="#f4_l" transform="matrix(12.2,0,0,12.2,126.5,295.8)" />
<use xlink:href="#f4_k" transform="matrix(12.2,0,0,12.2,135.7,295.8)" />
<use xlink:href="#f4_k" transform="matrix(12.2,0,0,12.2,144.9,295.8)" />
<use xlink:href="#f4_c" transform="matrix(12.2,0,0,12.2,71.8,341.9)" />
<use xlink:href="#f4_d" transform="matrix(12.2,0,0,12.2,123,341.9)" />
<use xlink:href="#f4_i" transform="matrix(12.2,0,0,12.2,233.4,353.6)" />
<use xlink:href="#f4_i" transform="matrix(12.2,0,0,12.2,238.1,353.6)" />
<use xlink:href="#f4_i" transform="matrix(12.2,0,0,12.2,242.7,353.6)" />
<use xlink:href="#f4_i" transform="matrix(12.2,0,0,12.2,247.3,353.6)" />
<use xlink:href="#f4_c" transform="matrix(12.2,0,0,12.2,251.9,353.6)" />
<use xlink:href="#f4_25" transform="matrix(12.2,0,0,12.2,258,353.6)" />
<use xlink:href="#f4_25" transform="matrix(12.2,0,0,12.2,263.1,353.6)" />
<use xlink:href="#f4_d" transform="matrix(12.2,0,0,12.2,268.6,353.6)" />
<use xlink:href="#f4_c" transform="matrix(12.2,0,0,12.2,150.6,368.1)" />
<use xlink:href="#f4_l" transform="matrix(12.2,0,0,12.2,155.3,368.1)" />
<use xlink:href="#f4_k" transform="matrix(12.2,0,0,12.2,164.5,368.1)" />
<use xlink:href="#f4_k" transform="matrix(12.2,0,0,12.2,173.7,368.1)" />
<use xlink:href="#f4_d" transform="matrix(12.2,0,0,12.2,211.9,368.1)" />
<use xlink:href="#f2_21" transform="matrix(7,0,0,7,69.3,244.2)" />
<use xlink:href="#f2_2d" transform="matrix(7,0,0,7,74,244.2)" />
<use xlink:href="#f2_1i" transform="matrix(12.2,0,0,12.2,64.8,213.3)" />
<use xlink:href="#f2_28" transform="matrix(12.2,0,0,12.2,124,213.3)" />
<use xlink:href="#f2_1j" transform="matrix(12.2,0,0,12.2,59.7,239.5)" />
<use xlink:href="#f2_28" transform="matrix(12.2,0,0,12.2,145.4,239.5)" />
<use xlink:href="#f2_1i" transform="matrix(12.2,0,0,12.2,77.5,269.6)" />
<use xlink:href="#f2_28" transform="matrix(12.2,0,0,12.2,149.4,269.6)" />
<use xlink:href="#f2_1o" transform="matrix(12.2,0,0,12.2,72.8,293.1)" />
<use xlink:href="#f2_1j" transform="matrix(12.2,0,0,12.2,84,293.1)" />
<use xlink:href="#f2_28" transform="matrix(12.2,0,0,12.2,170.8,295.8)" />
<use xlink:href="#f2_1o" transform="matrix(12.2,0,0,12.2,62.3,318.5)" />
<use xlink:href="#f2_1j" transform="matrix(12.2,0,0,12.2,94.5,318.5)" />
<use xlink:href="#f2_1i" transform="matrix(12.2,0,0,12.2,60,341.9)" />
<use xlink:href="#f2_1o" transform="matrix(12.2,0,0,12.2,79.8,341.9)" />
<use xlink:href="#f2_1j" transform="matrix(12.2,0,0,12.2,112,341.9)" />
<use xlink:href="#f2_28" transform="matrix(12.2,0,0,12.2,178.1,341.9)" />
<use xlink:href="#f2_1o" transform="matrix(12.2,0,0,12.2,84,368.1)" />
<use xlink:href="#f2_1j" transform="matrix(12.2,0,0,12.2,95.2,368.1)" />
<use xlink:href="#f2_28" transform="matrix(12.2,0,0,12.2,199.5,368.1)" />
<use xlink:href="#f3_x" transform="matrix(12.2,0,0,12.2,87.2,225)" />
<use xlink:href="#f3_h" transform="matrix(12.2,0,0,12.2,132.2,239.5)" />
<use xlink:href="#f3_x" transform="matrix(12.2,0,0,12.2,112.5,281.3)" />
<use xlink:href="#f3_h" transform="matrix(12.2,0,0,12.2,157.6,295.8)" />
<use xlink:href="#f3_f" transform="matrix(12.2,0,0,12.2,80.1,318.5)" />
<use xlink:href="#f3_f" transform="matrix(12.2,0,0,12.2,97.6,341.9)" />
<use xlink:href="#f3_x" transform="matrix(12.2,0,0,12.2,134.9,353.6)" />
<use xlink:href="#f3_h" transform="matrix(12.2,0,0,12.2,186.3,368.1)" />
</g>
</g>
<path d="M73,402.8H87m19.9,0h54M58.2,457h58.7m16.5,0h54.1" class="g5_39" />
<g clip-path="url(#c2_39)">
<g fill="#000000" >
<use xlink:href="#f3_c" transform="matrix(11.9,0,0,16,207.9,477.5)" />
<use xlink:href="#f3_d" transform="matrix(11.9,0,0,16,270.8,477.5)" />
</g>
</g>
<path d="M207.3,457h70.1M58.2,512.8h58.7m19.8,0h78.6" class="g5_39" />
<g clip-path="url(#c2_39)">
<g fill="#000000" >
<use xlink:href="#f4_l" transform="matrix(7,0,0,7.1,132.7,400.3)" />
<use xlink:href="#f4_l" transform="matrix(7,0,0,7.1,154,426.6)" />
<use xlink:href="#f4_l" transform="matrix(7,0,0,7.1,159.3,454.6)" />
<use xlink:href="#f4_m" transform="matrix(7,0,0,7.1,241.3,454.6)" />
<use xlink:href="#f4_l" transform="matrix(7,0,0,7.1,180.6,480.9)" />
<use xlink:href="#f4_m" transform="matrix(7,0,0,7.1,262.7,480.9)" />
<use xlink:href="#f4_m" transform="matrix(7,0,0,7.1,142.4,510.4)" />
<use xlink:href="#f4_l" transform="matrix(7,0,0,7.1,202.1,510.4)" />
<use xlink:href="#f4_m" transform="matrix(7,0,0,7.1,191.3,536.7)" />
<use xlink:href="#f4_l" transform="matrix(7,0,0,7.1,208.4,536.7)" />
<use xlink:href="#f4_l" transform="matrix(12.1,0,0,12.2,106,421.9)" />
<use xlink:href="#f4_k" transform="matrix(12.1,0,0,12.2,115.1,421.9)" />
<use xlink:href="#f4_k" transform="matrix(12.1,0,0,12.2,124.3,421.9)" />
<use xlink:href="#f4_c" transform="matrix(12.1,0,0,12.2,59.1,449.8)" />
<use xlink:href="#f4_d" transform="matrix(12.1,0,0,12.2,110,449.8)" />
<use xlink:href="#f4_l" transform="matrix(12.1,0,0,12.2,132.6,476.2)" />
<use xlink:href="#f4_k" transform="matrix(12.1,0,0,12.2,141.8,476.2)" />
<use xlink:href="#f4_k" transform="matrix(12.1,0,0,12.2,150.9,476.2)" />
<use xlink:href="#f4_l" transform="matrix(12.1,0,0,12.2,213.5,476.2)" />
<use xlink:href="#f4_k" transform="matrix(12.1,0,0,12.2,222.6,476.2)" />
<use xlink:href="#f4_k" transform="matrix(12.1,0,0,12.2,231.7,476.2)" />
<use xlink:href="#f4_c" transform="matrix(12.1,0,0,12.2,59.1,505.6)" />
<use xlink:href="#f4_d" transform="matrix(12.1,0,0,12.2,110,505.6)" />
<use xlink:href="#f4_c" transform="matrix(12.1,0,0,12.2,149.5,505.6)" />
<use xlink:href="#f4_l" transform="matrix(12.1,0,0,12.2,154.1,505.6)" />
<use xlink:href="#f4_k" transform="matrix(12.1,0,0,12.2,163.2,505.6)" />
<use xlink:href="#f4_k" transform="matrix(12.1,0,0,12.2,172.4,505.6)" />
<use xlink:href="#f4_d" transform="matrix(12.1,0,0,12.2,208.4,505.6)" />
<use xlink:href="#f4_c" transform="matrix(12.1,0,0,12.2,137.5,531.9)" />
<use xlink:href="#f4_l" transform="matrix(12.1,0,0,12.2,142.1,531.9)" />
<use xlink:href="#f4_k" transform="matrix(12.1,0,0,12.2,151.3,531.9)" />
<use xlink:href="#f4_k" transform="matrix(12.1,0,0,12.2,160.4,531.9)" />
<use xlink:href="#f4_d" transform="matrix(12.1,0,0,12.2,198.4,531.9)" />
<use xlink:href="#f2_1i" transform="matrix(12.1,0,0,12.2,74.7,395.6)" />
<use xlink:href="#f2_28" transform="matrix(12.1,0,0,12.2,128.7,395.6)" />
<use xlink:href="#f2_1j" transform="matrix(12.1,0,0,12.2,75,421.9)" />
<use xlink:href="#f2_28" transform="matrix(12.1,0,0,12.2,150,421.9)" />
<use xlink:href="#f2_1o" transform="matrix(12.1,0,0,12.2,67.1,449.8)" />
<use xlink:href="#f2_1j" transform="matrix(12.1,0,0,12.2,99.1,449.8)" />
<use xlink:href="#f2_28" transform="matrix(12.1,0,0,12.2,155.3,449.8)" />
<use xlink:href="#f2_28" transform="matrix(12.1,0,0,12.2,236.2,449.8)" />
<use xlink:href="#f2_1o" transform="matrix(12.1,0,0,12.2,81.4,476.2)" />
<use xlink:href="#f2_28" transform="matrix(12.1,0,0,12.2,176.6,476.2)" />
<use xlink:href="#f2_28" transform="matrix(12.1,0,0,12.2,257.5,476.2)" />
<use xlink:href="#f2_1o" transform="matrix(12.1,0,0,12.2,67.1,505.6)" />
<use xlink:href="#f2_1j" transform="matrix(12.1,0,0,12.2,99.1,505.6)" />
<use xlink:href="#f2_28" transform="matrix(12.1,0,0,12.2,137.2,505.6)" />
<use xlink:href="#f2_28" transform="matrix(12.1,0,0,12.2,198.1,505.6)" />
<use xlink:href="#f2_1o" transform="matrix(12.1,0,0,12.2,81.4,531.9)" />
<use xlink:href="#f2_28" transform="matrix(12.1,0,0,12.2,186.1,531.9)" />
<use xlink:href="#f2_28" transform="matrix(12.1,0,0,12.2,204.4,531.9)" />
<use xlink:href="#f3_1s" transform="matrix(12.1,0,0,12.2,55.1,407.4)" />
<use xlink:href="#f3_x" transform="matrix(12.1,0,0,12.2,92.1,407.4)" />
<use xlink:href="#f3_h" transform="matrix(12.1,0,0,12.2,136.9,421.9)" />
<use xlink:href="#f3_f" transform="matrix(12.1,0,0,12.2,84.8,449.8)" />
<use xlink:href="#f3_3a" transform="matrix(12.1,0,0,12.2,120,461.6)" />
<use xlink:href="#f3_x" transform="matrix(12.1,0,0,12.2,192.6,461.6)" />
<use xlink:href="#f3_h" transform="matrix(12.1,0,0,12.2,163.5,476.2)" />
<use xlink:href="#f3_h" transform="matrix(12.1,0,0,12.2,244.4,476.2)" />
<use xlink:href="#f3_f" transform="matrix(12.1,0,0,12.2,84.8,505.6)" />
<use xlink:href="#f3_h" transform="matrix(12.1,0,0,12.2,185,505.6)" />
<use xlink:href="#f3_x" transform="matrix(12.1,0,0,12.2,121.9,517.4)" />
<use xlink:href="#f3_h" transform="matrix(12.1,0,0,12.2,173,531.9)" />
</g>
</g>
<g fill="#000000" >
<use xlink:href="#f5_l" transform="matrix(12,0,0,12,55,579.1)" />
<use xlink:href="#f5_s" transform="matrix(12,0,0,12,64.2,579.1)" />
<use xlink:href="#f5_i" transform="matrix(12,0,0,12,73.4,579.1)" />
<use xlink:href="#f4_14" transform="matrix(12,0,0,12,82.9,579.1)" />
<use xlink:href="#f4_2e" transform="matrix(12,0,0,12,96.1,579.1)" />
<use xlink:href="#f4_1x" transform="matrix(12,0,0,12,102.3,579.1)" />
<use xlink:href="#f4_2j" transform="matrix(12,0,0,12,110.4,579.1)" />
<use xlink:href="#f4_1x" transform="matrix(12,0,0,12,128.3,579.1)" />
<use xlink:href="#f4_1y" transform="matrix(12,0,0,12,140.8,579.1)" />
<use xlink:href="#f4_28" transform="matrix(12,0,0,12,149.9,579.1)" />
<use xlink:href="#f4_2b" transform="matrix(12,0,0,12,154.3,579.1)" />
<use xlink:href="#f4_1z" transform="matrix(12,0,0,12,163.9,579.1)" />
<use xlink:href="#f4_27" transform="matrix(12,0,0,12,171.9,579.1)" />
<use xlink:href="#f4_20" transform="matrix(12,0,0,12,185.8,579.1)" />
<use xlink:href="#f4_25" transform="matrix(12,0,0,12,195.4,579.1)" />
<use xlink:href="#f4_1x" transform="matrix(12,0,0,12,199.8,579.1)" />
<use xlink:href="#f4_23" transform="matrix(12,0,0,12,207.8,579.1)" />
<use xlink:href="#f4_2e" transform="matrix(12,0,0,12,217,579.1)" />
<use xlink:href="#f4_1x" transform="matrix(12,0,0,12,223.2,579.1)" />
<use xlink:href="#f4_29" transform="matrix(12,0,0,12,231.6,579.1)" />
<use xlink:href="#f4_2b" transform="matrix(12,0,0,12,249.9,579.1)" />
<use xlink:href="#f4_22" transform="matrix(12,0,0,12,259.8,579.1)" />
<use xlink:href="#f4_1x" transform="matrix(12,0,0,12,270.1,579.1)" />
<use xlink:href="#f4_23" transform="matrix(12,0,0,12,282.9,579.1)" />
<use xlink:href="#f4_21" transform="matrix(12,0,0,12,292.1,579.1)" />
<use xlink:href="#f4_2a" transform="matrix(12,0,0,12,300.1,579.1)" />
<use xlink:href="#f4_21" transform="matrix(12,0,0,12,308.9,579.1)" />
<use xlink:href="#f4_2e" transform="matrix(12,0,0,12,317,579.1)" />
<use xlink:href="#f4_1x" transform="matrix(12,0,0,12,323.2,579.1)" />
<use xlink:href="#f4_28" transform="matrix(12,0,0,12,331.6,579.1)" />
<use xlink:href="#f4_25" transform="matrix(12,0,0,12,336.7,579.1)" />
<use xlink:href="#f4_2m" transform="matrix(12,0,0,12,341.5,579.1)" />
<use xlink:href="#f4_21" transform="matrix(12,0,0,12,349.6,579.1)" />
<use xlink:href="#f4_20" transform="matrix(12,0,0,12,357.6,579.1)" />
<use xlink:href="#f4_1z" transform="matrix(12,0,0,12,371.6,579.1)" />
<use xlink:href="#f4_2b" transform="matrix(12,0,0,12,379.6,579.1)" />
<use xlink:href="#f4_29" transform="matrix(12,0,0,12,389.5,579.1)" />
<use xlink:href="#f4_29" transform="matrix(12,0,0,12,403.4,579.1)" />
<use xlink:href="#f4_2h" transform="matrix(12,0,0,12,417.4,579.1)" />
<use xlink:href="#f4_2a" transform="matrix(12,0,0,12,426.9,579.1)" />
<use xlink:href="#f4_25" transform="matrix(12,0,0,12,436.1,579.1)" />
<use xlink:href="#f4_1z" transform="matrix(12,0,0,12,440.8,579.1)" />
<use xlink:href="#f4_1x" transform="matrix(12,0,0,12,448.9,579.1)" />
<use xlink:href="#f4_2g" transform="matrix(12,0,0,12,457,579.1)" />
<use xlink:href="#f4_25" transform="matrix(12,0,0,12,462.8,579.1)" />
<use xlink:href="#f4_2b" transform="matrix(12,0,0,12,467.2,579.1)" />
<use xlink:href="#f4_2a" transform="matrix(12,0,0,12,476.7,579.1)" />
<use xlink:href="#f4_2f" transform="matrix(12,0,0,12,490.3,579.1)" />
<use xlink:href="#f4_2l" transform="matrix(12,0,0,12,497.6,579.1)" />
<use xlink:href="#f4_2f" transform="matrix(12,0,0,12,506.4,579.1)" />
<use xlink:href="#f4_2g" transform="matrix(12,0,0,12,513.4,579.1)" />
<use xlink:href="#f4_21" transform="matrix(12,0,0,12,518.8,579.1)" />
<use xlink:href="#f4_29" transform="matrix(12,0,0,12,527.2,579.1)" />
<use xlink:href="#f4_i" transform="matrix(12,0,0,12,540.8,579.1)" />
<use xlink:href="#f4_1n" transform="matrix(12,0,0,12,550.7,579.1)" />
<use xlink:href="#f4_2e" transform="matrix(12,0,0,12,567.5,579.1)" />
<use xlink:href="#f4_25" transform="matrix(12,0,0,12,574.1,579.1)" />
<use xlink:href="#f4_2g" transform="matrix(12,0,0,12,578.5,579.1)" />
<use xlink:href="#f4_21" transform="matrix(12,0,0,12,584,579.1)" />
<use xlink:href="#f4_2g" transform="matrix(12,0,0,12,596.8,579.1)" />
<use xlink:href="#f4_24" transform="matrix(12,0,0,12,602.3,579.1)" />
<use xlink:href="#f4_21" transform="matrix(12,0,0,12,611.1,579.1)" />
<use xlink:href="#f4_22" transform="matrix(12,0,0,12,623.9,579.1)" />
<use xlink:href="#f4_2h" transform="matrix(12,0,0,12,629.4,579.1)" />
<use xlink:href="#f4_2a" transform="matrix(12,0,0,12,638.9,579.1)" />
<use xlink:href="#f4_1z" transform="matrix(12,0,0,12,647.7,579.1)" />
<use xlink:href="#f4_2g" transform="matrix(12,0,0,12,655.8,579.1)" />
<use xlink:href="#f4_25" transform="matrix(12,0,0,12,661.7,579.1)" />
<use xlink:href="#f4_2b" transform="matrix(12,0,0,12,666.1,579.1)" />
<use xlink:href="#f4_2a" transform="matrix(12,0,0,12,675.6,579.1)" />
<use xlink:href="#f4_2f" transform="matrix(12,0,0,12,684.4,579.1)" />
<use xlink:href="#f4_2b" transform="matrix(12,0,0,12,696.1,579.1)" />
<use xlink:href="#f4_22" transform="matrix(12,0,0,12,705.6,579.1)" />
<use xlink:href="#f4_21" transform="matrix(12,0,0,12,715.8,579.1)" />
<use xlink:href="#f4_1x" transform="matrix(12,0,0,12,723.9,579.1)" />
<use xlink:href="#f4_1z" transform="matrix(12,0,0,12,732.3,579.1)" />
<use xlink:href="#f4_24" transform="matrix(12,0,0,12,740.7,579.1)" />
<use xlink:href="#f4_2b" transform="matrix(12,0,0,12,754.3,579.1)" />
<use xlink:href="#f4_22" transform="matrix(12,0,0,12,763.8,579.1)" />
<use xlink:href="#f4_2g" transform="matrix(12,0,0,12,774.1,579.1)" />
<use xlink:href="#f4_24" transform="matrix(12,0,0,12,779.5,579.1)" />
<use xlink:href="#f4_21" transform="matrix(12,0,0,12,788.3,579.1)" />
<use xlink:href="#f4_22" transform="matrix(12,0,0,12,55,600.4)" />
<use xlink:href="#f4_2b" transform="matrix(12,0,0,12,60.5,600.4)" />
<use xlink:href="#f4_28" transform="matrix(12,0,0,12,70.4,600.4)" />
<use xlink:href="#f4_28" transform="matrix(12,0,0,12,75.2,600.4)" />
<use xlink:href="#f4_2b" transform="matrix(12,0,0,12,79.6,600.4)" />
<use xlink:href="#f4_2j" transform="matrix(12,0,0,12,89.5,600.4)" />
<use xlink:href="#f4_25" transform="matrix(12,0,0,12,103,600.4)" />
<use xlink:href="#f4_2a" transform="matrix(12,0,0,12,107.8,600.4)" />
<use xlink:href="#f4_23" transform="matrix(12,0,0,12,116.6,600.4)" />
<use xlink:href="#f4_c" transform="matrix(12,0,0,12,55,621.3)" />
<use xlink:href="#f4_1x" transform="matrix(12,0,0,12,61.3,621.3)" />
<use xlink:href="#f4_d" transform="matrix(12,0,0,12,69.3,621.3)" />
<use xlink:href="#f4_1k" transform="matrix(12,0,0,12,80.3,621.3)" />
<use xlink:href="#f4_2e" transform="matrix(12,0,0,12,91.3,621.3)" />
<use xlink:href="#f4_1x" transform="matrix(12,0,0,12,97.5,621.3)" />
<use xlink:href="#f4_2a" transform="matrix(12,0,0,12,105.6,621.3)" />
<use xlink:href="#f4_2f" transform="matrix(12,0,0,12,114.4,621.3)" />
<use xlink:href="#f4_29" transform="matrix(12,0,0,12,121.7,621.3)" />
<use xlink:href="#f4_25" transform="matrix(12,0,0,12,135.9,621.3)" />
<use xlink:href="#f4_2g" transform="matrix(12,0,0,12,140.4,621.3)" />
<use xlink:href="#f4_2g" transform="matrix(12,0,0,12,145.9,621.3)" />
<use xlink:href="#f4_21" transform="matrix(12,0,0,12,151.3,621.3)" />
<use xlink:href="#f4_2e" transform="matrix(12,0,0,12,159.4,621.3)" />
<use xlink:href="#f4_c" transform="matrix(12,0,0,12,55,642.6)" />
<use xlink:href="#f4_1y" transform="matrix(12,0,0,12,61.3,642.6)" />
<use xlink:href="#f4_d" transform="matrix(12,0,0,12,70.1,642.6)" />
<use xlink:href="#f4_13" transform="matrix(12,0,0,12,81,642.6)" />
<use xlink:href="#f4_24" transform="matrix(12,0,0,12,93.1,642.6)" />
<use xlink:href="#f4_1x" transform="matrix(12,0,0,12,101.9,642.6)" />
<use xlink:href="#f4_2a" transform="matrix(12,0,0,12,110.3,642.6)" />
<use xlink:href="#f4_2a" transform="matrix(12,0,0,12,119.5,642.6)" />
<use xlink:href="#f4_21" transform="matrix(12,0,0,12,128.7,642.6)" />
<use xlink:href="#f4_28" transform="matrix(12,0,0,12,137.1,642.6)" />
<use xlink:href="#f4_c" transform="matrix(12,0,0,12,55,663.5)" />
<use xlink:href="#f4_1z" transform="matrix(12,0,0,12,61.3,663.5)" />
<use xlink:href="#f4_d" transform="matrix(12,0,0,12,69.3,663.5)" />
<use xlink:href="#f4_1i" transform="matrix(12,0,0,12,80.3,663.5)" />
<use xlink:href="#f4_21" transform="matrix(12,0,0,12,92.4,663.5)" />
<use xlink:href="#f4_1z" transform="matrix(12,0,0,12,100.4,663.5)" />
<use xlink:href="#f4_21" transform="matrix(12,0,0,12,108.5,663.5)" />
<use xlink:href="#f4_25" transform="matrix(12,0,0,12,116.9,663.5)" />
<use xlink:href="#f4_2i" transform="matrix(12,0,0,12,121.7,663.5)" />
<use xlink:href="#f4_21" transform="matrix(12,0,0,12,130.5,663.5)" />
<use xlink:href="#f4_2e" transform="matrix(12,0,0,12,138.6,663.5)" />
<use xlink:href="#f5_1j" transform="matrix(12,0,0,12,55,684.8)" />
<use xlink:href="#f5_2b" transform="matrix(12,0,0,12,65.3,684.8)" />
<use xlink:href="#f5_28" transform="matrix(12,0,0,12,74.5,684.8)" />
<use xlink:href="#f5_2h" transform="matrix(12,0,0,12,79.2,684.8)" />
<use xlink:href="#f5_2g" transform="matrix(12,0,0,12,89.5,684.8)" />
<use xlink:href="#f5_25" transform="matrix(12,0,0,12,95.7,684.8)" />
<use xlink:href="#f5_2b" transform="matrix(12,0,0,12,100.8,684.8)" />
<use xlink:href="#f5_2a" transform="matrix(12,0,0,12,109.9,684.8)" />
<use xlink:href="#f5_u" transform="matrix(12,0,0,12,120.2,684.8)" />
<use xlink:href="#f4_12" transform="matrix(12,0,0,12,55,705.7)" />
<use xlink:href="#f4_28" transform="matrix(12,0,0,12,67.5,705.7)" />
<use xlink:href="#f4_2b" transform="matrix(12,0,0,12,71.9,705.7)" />
<use xlink:href="#f4_1z" transform="matrix(12,0,0,12,81.4,705.7)" />
<use xlink:href="#f4_27" transform="matrix(12,0,0,12,89.5,705.7)" />
<use xlink:href="#f4_20" transform="matrix(12,0,0,12,103.4,705.7)" />
<use xlink:href="#f4_25" transform="matrix(12,0,0,12,112.9,705.7)" />
<use xlink:href="#f4_1x" transform="matrix(12,0,0,12,117.3,705.7)" />
<use xlink:href="#f4_23" transform="matrix(12,0,0,12,125.4,705.7)" />
<use xlink:href="#f4_2e" transform="matrix(12,0,0,12,134.5,705.7)" />
<use xlink:href="#f4_1x" transform="matrix(12,0,0,12,140.7,705.7)" />
<use xlink:href="#f4_29" transform="matrix(12,0,0,12,149.2,705.7)" />
<use xlink:href="#f4_2b" transform="matrix(12,0,0,12,167.5,705.7)" />
<use xlink:href="#f4_22" transform="matrix(12,0,0,12,177.4,705.7)" />
<use xlink:href="#f4_1z" transform="matrix(12,0,0,12,187.6,705.7)" />
<use xlink:href="#f4_2b" transform="matrix(12,0,0,12,195.7,705.7)" />
<use xlink:href="#f4_29" transform="matrix(12,0,0,12,205.2,705.7)" />
<use xlink:href="#f4_29" transform="matrix(12,0,0,12,219.1,705.7)" />
<use xlink:href="#f4_2h" transform="matrix(12,0,0,12,233.1,705.7)" />
<use xlink:href="#f4_2a" transform="matrix(12,0,0,12,242.6,705.7)" />
<use xlink:href="#f4_25" transform="matrix(12,0,0,12,251.7,705.7)" />
<use xlink:href="#f4_1z" transform="matrix(12,0,0,12,256.5,705.7)" />
<use xlink:href="#f4_1x" transform="matrix(12,0,0,12,264.9,705.7)" />
<use xlink:href="#f4_2g" transform="matrix(12,0,0,12,273,705.7)" />
<use xlink:href="#f4_25" transform="matrix(12,0,0,12,278.5,705.7)" />
<use xlink:href="#f4_2b" transform="matrix(12,0,0,12,282.9,705.7)" />
<use xlink:href="#f4_2a" transform="matrix(12,0,0,12,292.4,705.7)" />
<use xlink:href="#f4_2f" transform="matrix(12,0,0,12,305.9,705.7)" />
<use xlink:href="#f4_2l" transform="matrix(12,0,0,12,313.2,705.7)" />
<use xlink:href="#f4_2f" transform="matrix(12,0,0,12,322,705.7)" />
<use xlink:href="#f4_2g" transform="matrix(12,0,0,12,329,705.7)" />
<use xlink:href="#f4_21" transform="matrix(12,0,0,12,334.5,705.7)" />
<use xlink:href="#f4_29" transform="matrix(12,0,0,12,342.9,705.7)" />
<use xlink:href="#f4_u" transform="matrix(12,0,0,12,361.7,705.7)" />
<use xlink:href="#f4_1k" transform="matrix(12,0,0,12,55,878)" />
<use xlink:href="#f4_2e" transform="matrix(12,0,0,12,66.4,878)" />
<use xlink:href="#f4_1x" transform="matrix(12,0,0,12,72.6,878)" />
<use xlink:href="#f4_2a" transform="matrix(12,0,0,12,80.7,878)" />
<use xlink:href="#f4_2f" transform="matrix(12,0,0,12,89.5,878)" />
<use xlink:href="#f4_29" transform="matrix(12,0,0,12,96.8,878)" />
<use xlink:href="#f4_25" transform="matrix(12,0,0,12,111,878)" />
<use xlink:href="#f4_2g" transform="matrix(12,0,0,12,115.5,878)" />
<use xlink:href="#f4_2g" transform="matrix(12,0,0,12,121,878)" />
<use xlink:href="#f4_21" transform="matrix(12,0,0,12,126.4,878)" />
<use xlink:href="#f4_2e" transform="matrix(12,0,0,12,134.5,878)" />
<use xlink:href="#f4_u" transform="matrix(12,0,0,12,145.5,878)" />
<use xlink:href="#f4_h" transform="matrix(12,0,0,12,150.4,878)" />
<use xlink:href="#f4_11" transform="matrix(12,0,0,12,161.4,878)" />
<use xlink:href="#f4_2g" transform="matrix(12,0,0,12,178.6,878)" />
<use xlink:href="#f4_2e" transform="matrix(12,0,0,12,184.1,878)" />
<use xlink:href="#f4_1x" transform="matrix(12,0,0,12,190.3,878)" />
<use xlink:href="#f4_2a" transform="matrix(12,0,0,12,198.4,878)" />
<use xlink:href="#f4_2f" transform="matrix(12,0,0,12,207.2,878)" />
<use xlink:href="#f4_29" transform="matrix(12,0,0,12,214.5,878)" />
<use xlink:href="#f4_25" transform="matrix(12,0,0,12,228.5,878)" />
<use xlink:href="#f4_2g" transform="matrix(12,0,0,12,232.9,878)" />
<use xlink:href="#f4_2g" transform="matrix(12,0,0,12,238.3,878)" />
<use xlink:href="#f4_21" transform="matrix(12,0,0,12,243.8,878)" />
<use xlink:href="#f4_2e" transform="matrix(12,0,0,12,251.9,878)" />
<use xlink:href="#f4_25" transform="matrix(12,0,0,12,262.8,878)" />
<use xlink:href="#f4_2f" transform="matrix(12,0,0,12,267.6,878)" />
<use xlink:href="#f4_1x" transform="matrix(12,0,0,12,279.3,878)" />
<use xlink:href="#f4_2a" transform="matrix(12,0,0,12,287.4,878)" />
<use xlink:href="#f4_1x" transform="matrix(12,0,0,12,300.9,878)" />
<use xlink:href="#f4_2e" transform="matrix(12,0,0,12,309,878)" />
<use xlink:href="#f4_2e" transform="matrix(12,0,0,12,315.2,878)" />
<use xlink:href="#f4_1x" transform="matrix(12,0,0,12,321.4,878)" />
<use xlink:href="#f4_2a" transform="matrix(12,0,0,12,329.9,878)" />
<use xlink:href="#f4_23" transform="matrix(12,0,0,12,338.7,878)" />
<use xlink:href="#f4_21" transform="matrix(12,0,0,12,347.8,878)" />
<use xlink:href="#f4_29" transform="matrix(12,0,0,12,356.2,878)" />
<use xlink:href="#f4_21" transform="matrix(12,0,0,12,370.2,878)" />
<use xlink:href="#f4_2a" transform="matrix(12,0,0,12,378.6,878)" />
<use xlink:href="#f4_2g" transform="matrix(12,0,0,12,387.4,878)" />
<use xlink:href="#f4_2g" transform="matrix(12,0,0,12,397.3,878)" />
<use xlink:href="#f4_24" transform="matrix(12,0,0,12,402.7,878)" />
<use xlink:href="#f4_1x" transform="matrix(12,0,0,12,411.5,878)" />
<use xlink:href="#f4_2g" transform="matrix(12,0,0,12,419.6,878)" />
<use xlink:href="#f4_1z" transform="matrix(12,0,0,12,429.5,878)" />
<use xlink:href="#f4_2b" transform="matrix(12,0,0,12,437.6,878)" />
<use xlink:href="#f4_2a" transform="matrix(12,0,0,12,447.1,878)" />
<use xlink:href="#f4_2i" transform="matrix(12,0,0,12,455.9,878)" />
<use xlink:href="#f4_21" transform="matrix(12,0,0,12,464.7,878)" />
<use xlink:href="#f4_2e" transform="matrix(12,0,0,12,472.7,878)" />
<use xlink:href="#f4_2g" transform="matrix(12,0,0,12,479,878)" />
<use xlink:href="#f4_2f" transform="matrix(12,0,0,12,484.4,878)" />
<use xlink:href="#f4_2g" transform="matrix(12,0,0,12,496.2,878)" />
<use xlink:href="#f4_24" transform="matrix(12,0,0,12,501.6,878)" />
<use xlink:href="#f4_21" transform="matrix(12,0,0,12,510.4,878)" />
<use xlink:href="#f4_29" transform="matrix(12,0,0,12,523.3,878)" />
<use xlink:href="#f4_21" transform="matrix(12,0,0,12,537.2,878)" />
<use xlink:href="#f4_2f" transform="matrix(12,0,0,12,545.3,878)" />
<use xlink:href="#f4_2f" transform="matrix(12,0,0,12,552.2,878)" />
<use xlink:href="#f4_1x" transform="matrix(12,0,0,12,559.5,878)" />
<use xlink:href="#f4_23" transform="matrix(12,0,0,12,567.6,878)" />
<use xlink:href="#f4_21" transform="matrix(12,0,0,12,576.8,878)" />
<use xlink:href="#f4_2f" transform="matrix(12,0,0,12,589.6,878)" />
<use xlink:href="#f4_25" transform="matrix(12,0,0,12,596.9,878)" />
<use xlink:href="#f4_23" transform="matrix(12,0,0,12,601.7,878)" />
<use xlink:href="#f4_2a" transform="matrix(12,0,0,12,611.2,878)" />
<use xlink:href="#f4_1x" transform="matrix(12,0,0,12,620,878)" />
<use xlink:href="#f4_28" transform="matrix(12,0,0,12,628.4,878)" />
<use xlink:href="#f4_2g" transform="matrix(12,0,0,12,637.5,878)" />
<use xlink:href="#f4_2b" transform="matrix(12,0,0,12,643,878)" />
<use xlink:href="#f4_1x" transform="matrix(12,0,0,12,657.3,878)" />
<use xlink:href="#f4_22" transform="matrix(12,0,0,12,669.7,878)" />
<use xlink:href="#f4_2b" transform="matrix(12,0,0,12,675.2,878)" />
<use xlink:href="#f4_2e" transform="matrix(12,0,0,12,684.8,878)" />
<use xlink:href="#f4_29" transform="matrix(12,0,0,12,691,878)" />
<use xlink:href="#f4_2f" transform="matrix(12,0,0,12,709.3,878)" />
<use xlink:href="#f4_2h" transform="matrix(12,0,0,12,716.2,878)" />
<use xlink:href="#f4_25" transform="matrix(12,0,0,12,725.8,878)" />
<use xlink:href="#f4_2g" transform="matrix(12,0,0,12,730.2,878)" />
<use xlink:href="#f4_1x" transform="matrix(12,0,0,12,735.6,878)" />
<use xlink:href="#f4_1y" transform="matrix(12,0,0,12,744.1,878)" />
<use xlink:href="#f4_28" transform="matrix(12,0,0,12,753.2,878)" />
<use xlink:href="#f4_21" transform="matrix(12,0,0,12,758,878)" />
<use xlink:href="#f4_22" transform="matrix(12,0,0,12,771.2,878)" />
<use xlink:href="#f4_2b" transform="matrix(12,0,0,12,776.7,878)" />
<use xlink:href="#f4_2e" transform="matrix(12,0,0,12,786.2,878)" />
<use xlink:href="#f4_2g" transform="matrix(12,0,0,12,55,899)" />
<use xlink:href="#f4_2e" transform="matrix(12,0,0,12,60.5,899)" />
<use xlink:href="#f4_1x" transform="matrix(12,0,0,12,66.7,899)" />
<use xlink:href="#f4_2a" transform="matrix(12,0,0,12,74.8,899)" />
<use xlink:href="#f4_2f" transform="matrix(12,0,0,12,83.6,899)" />
<use xlink:href="#f4_29" transform="matrix(12,0,0,12,90.9,899)" />
<use xlink:href="#f4_25" transform="matrix(12,0,0,12,104.8,899)" />
<use xlink:href="#f4_2f" transform="matrix(12,0,0,12,109.6,899)" />
<use xlink:href="#f4_2f" transform="matrix(12,0,0,12,116.9,899)" />
<use xlink:href="#f4_25" transform="matrix(12,0,0,12,124.2,899)" />
<use xlink:href="#f4_2b" transform="matrix(12,0,0,12,128.6,899)" />
<use xlink:href="#f4_2a" transform="matrix(12,0,0,12,138.5,899)" />
<use xlink:href="#f4_1x" transform="matrix(12,0,0,12,152.1,899)" />
<use xlink:href="#f4_2a" transform="matrix(12,0,0,12,160.1,899)" />
<use xlink:href="#f4_20" transform="matrix(12,0,0,12,168.9,899)" />
<use xlink:href="#f4_2g" transform="matrix(12,0,0,12,182.9,899)" />
<use xlink:href="#f4_24" transform="matrix(12,0,0,12,188.3,899)" />
<use xlink:href="#f4_21" transform="matrix(12,0,0,12,197.1,899)" />
<use xlink:href="#f4_2a" transform="matrix(12,0,0,12,205.6,899)" />
<use xlink:href="#f4_2g" transform="matrix(12,0,0,12,219.1,899)" />
<use xlink:href="#f4_2e" transform="matrix(12,0,0,12,224.6,899)" />
<use xlink:href="#f4_1x" transform="matrix(12,0,0,12,230.8,899)" />
<use xlink:href="#f4_2a" transform="matrix(12,0,0,12,238.9,899)" />
<use xlink:href="#f4_2f" transform="matrix(12,0,0,12,247.7,899)" />
<use xlink:href="#f4_29" transform="matrix(12,0,0,12,255,899)" />
<use xlink:href="#f4_25" transform="matrix(12,0,0,12,268.9,899)" />
<use xlink:href="#f4_2g" transform="matrix(12,0,0,12,273.3,899)" />
<use xlink:href="#f4_2f" transform="matrix(12,0,0,12,279.2,899)" />
<use xlink:href="#f4_25" transform="matrix(12,0,0,12,291.2,899)" />
<use xlink:href="#f4_2g" transform="matrix(12,0,0,12,295.6,899)" />
<use xlink:href="#f4_2g" transform="matrix(12,0,0,12,305.5,899)" />
<use xlink:href="#f4_24" transform="matrix(12,0,0,12,311,899)" />
<use xlink:href="#f4_2e" transform="matrix(12,0,0,12,319.8,899)" />
<use xlink:href="#f4_2b" transform="matrix(12,0,0,12,326,899)" />
<use xlink:href="#f4_2h" transform="matrix(12,0,0,12,335.5,899)" />
<use xlink:href="#f4_23" transform="matrix(12,0,0,12,344.7,899)" />
<use xlink:href="#f4_24" transform="matrix(12,0,0,12,353.9,899)" />
<use xlink:href="#f4_2f" transform="matrix(12,0,0,12,367.4,899)" />
<use xlink:href="#f4_2b" transform="matrix(12,0,0,12,374.4,899)" />
<use xlink:href="#f4_29" transform="matrix(12,0,0,12,383.9,899)" />
<use xlink:href="#f4_21" transform="matrix(12,0,0,12,397.5,899)" />
<use xlink:href="#f4_2f" transform="matrix(12,0,0,12,410.3,899)" />
<use xlink:href="#f4_2h" transform="matrix(12,0,0,12,417.2,899)" />
<use xlink:href="#f4_25" transform="matrix(12,0,0,12,426.8,899)" />
<use xlink:href="#f4_2g" transform="matrix(12,0,0,12,431.2,899)" />
<use xlink:href="#f4_1x" transform="matrix(12,0,0,12,436.6,899)" />
<use xlink:href="#f4_1y" transform="matrix(12,0,0,12,445.1,899)" />
<use xlink:href="#f4_28" transform="matrix(12,0,0,12,454.2,899)" />
<use xlink:href="#f4_21" transform="matrix(12,0,0,12,459,899)" />
<use xlink:href="#f4_1z" transform="matrix(12,0,0,12,471.8,899)" />
<use xlink:href="#f4_2b" transform="matrix(12,0,0,12,479.9,899)" />
<use xlink:href="#f4_29" transform="matrix(12,0,0,12,489.8,899)" />
<use xlink:href="#f4_29" transform="matrix(12,0,0,12,503.7,899)" />
<use xlink:href="#f4_2h" transform="matrix(12,0,0,12,517.3,899)" />
<use xlink:href="#f4_2a" transform="matrix(12,0,0,12,526.8,899)" />
<use xlink:href="#f4_25" transform="matrix(12,0,0,12,535.9,899)" />
<use xlink:href="#f4_1z" transform="matrix(12,0,0,12,540.7,899)" />
<use xlink:href="#f4_1x" transform="matrix(12,0,0,12,549.1,899)" />
<use xlink:href="#f4_2g" transform="matrix(12,0,0,12,557.2,899)" />
<use xlink:href="#f4_25" transform="matrix(12,0,0,12,563,899)" />
<use xlink:href="#f4_2b" transform="matrix(12,0,0,12,567.4,899)" />
<use xlink:href="#f4_2a" transform="matrix(12,0,0,12,576.9,899)" />
<use xlink:href="#f4_1z" transform="matrix(12,0,0,12,590.5,899)" />
<use xlink:href="#f4_24" transform="matrix(12,0,0,12,598.6,899)" />
<use xlink:href="#f4_1x" transform="matrix(12,0,0,12,607.4,899)" />
<use xlink:href="#f4_2a" transform="matrix(12,0,0,12,615.8,899)" />
<use xlink:href="#f4_2a" transform="matrix(12,0,0,12,624.9,899)" />
<use xlink:href="#f4_21" transform="matrix(12,0,0,12,634.1,899)" />
<use xlink:href="#f4_28" transform="matrix(12,0,0,12,642.5,899)" />
<use xlink:href="#f4_i" transform="matrix(12,0,0,12,646.9,899)" />
<use xlink:href="#f4_13" transform="matrix(12,0,0,12,55,920.2)" />
<use xlink:href="#f4_24" transform="matrix(12,0,0,12,67.1,920.2)" />
<use xlink:href="#f4_1x" transform="matrix(12,0,0,12,76.3,920.2)" />
<use xlink:href="#f4_2a" transform="matrix(12,0,0,12,84.7,920.2)" />
<use xlink:href="#f4_2a" transform="matrix(12,0,0,12,93.9,920.2)" />
<use xlink:href="#f4_21" transform="matrix(12,0,0,12,102.7,920.2)" />
<use xlink:href="#f4_28" transform="matrix(12,0,0,12,111.1,920.2)" />
<use xlink:href="#f4_u" transform="matrix(12,0,0,12,120.2,920.2)" />
<use xlink:href="#f4_h" transform="matrix(12,0,0,12,125.4,920.2)" />
<use xlink:href="#f4_13" transform="matrix(12,0,0,12,136.4,920.2)" />
<use xlink:href="#f4_24" transform="matrix(12,0,0,12,148.5,920.2)" />
<use xlink:href="#f4_1x" transform="matrix(12,0,0,12,157.7,920.2)" />
<use xlink:href="#f4_2a" transform="matrix(12,0,0,12,166.1,920.2)" />
<use xlink:href="#f4_2a" transform="matrix(12,0,0,12,175.3,920.2)" />
<use xlink:href="#f4_21" transform="matrix(12,0,0,12,184.1,920.2)" />
<use xlink:href="#f4_28" transform="matrix(12,0,0,12,192.5,920.2)" />
<use xlink:href="#f4_25" transform="matrix(12,0,0,12,202,920.2)" />
<use xlink:href="#f4_2f" transform="matrix(12,0,0,12,206.8,920.2)" />
<use xlink:href="#f4_2g" transform="matrix(12,0,0,12,218.5,920.2)" />
<use xlink:href="#f4_24" transform="matrix(12,0,0,12,224,920.2)" />
<use xlink:href="#f4_21" transform="matrix(12,0,0,12,232.8,920.2)" />
<use xlink:href="#f4_29" transform="matrix(12,0,0,12,246,920.2)" />
<use xlink:href="#f4_21" transform="matrix(12,0,0,12,259.9,920.2)" />
<use xlink:href="#f4_20" transform="matrix(12,0,0,12,268,920.2)" />
<use xlink:href="#f4_25" transform="matrix(12,0,0,12,277.5,920.2)" />
<use xlink:href="#f4_2h" transform="matrix(12,0,0,12,282.2,920.2)" />
<use xlink:href="#f4_29" transform="matrix(12,0,0,12,291.8,920.2)" />
<use xlink:href="#f4_2g" transform="matrix(12,0,0,12,310.1,920.2)" />
<use xlink:href="#f4_24" transform="matrix(12,0,0,12,315.6,920.2)" />
<use xlink:href="#f4_2e" transform="matrix(12,0,0,12,324.4,920.2)" />
<use xlink:href="#f4_2b" transform="matrix(12,0,0,12,330.6,920.2)" />
<use xlink:href="#f4_2h" transform="matrix(12,0,0,12,340.1,920.2)" />
<use xlink:href="#f4_23" transform="matrix(12,0,0,12,349.3,920.2)" />
<use xlink:href="#f4_24" transform="matrix(12,0,0,12,358.4,920.2)" />
<use xlink:href="#f4_2j" transform="matrix(12,0,0,12,372,920.2)" />
<use xlink:href="#f4_24" transform="matrix(12,0,0,12,385.2,920.2)" />
<use xlink:href="#f4_25" transform="matrix(12,0,0,12,394.4,920.2)" />
<use xlink:href="#f4_1z" transform="matrix(12,0,0,12,399.1,920.2)" />
<use xlink:href="#f4_24" transform="matrix(12,0,0,12,407.5,920.2)" />
<use xlink:href="#f4_2g" transform="matrix(12,0,0,12,421.1,920.2)" />
<use xlink:href="#f4_24" transform="matrix(12,0,0,12,426.5,920.2)" />
<use xlink:href="#f4_21" transform="matrix(12,0,0,12,435.3,920.2)" />
<use xlink:href="#f4_2f" transform="matrix(12,0,0,12,448.2,920.2)" />
<use xlink:href="#f4_25" transform="matrix(12,0,0,12,455.5,920.2)" />
<use xlink:href="#f4_23" transform="matrix(12,0,0,12,460.2,920.2)" />
<use xlink:href="#f4_2a" transform="matrix(12,0,0,12,469.8,920.2)" />
<use xlink:href="#f4_1x" transform="matrix(12,0,0,12,478.6,920.2)" />
<use xlink:href="#f4_28" transform="matrix(12,0,0,12,487,920.2)" />
<use xlink:href="#f4_25" transform="matrix(12,0,0,12,496.9,920.2)" />
<use xlink:href="#f4_2f" transform="matrix(12,0,0,12,501.6,920.2)" />
<use xlink:href="#f4_2g" transform="matrix(12,0,0,12,513.3,920.2)" />
<use xlink:href="#f4_2e" transform="matrix(12,0,0,12,518.8,920.2)" />
<use xlink:href="#f4_1x" transform="matrix(12,0,0,12,525,920.2)" />
<use xlink:href="#f4_2a" transform="matrix(12,0,0,12,533.1,920.2)" />
<use xlink:href="#f4_2f" transform="matrix(12,0,0,12,541.9,920.2)" />
<use xlink:href="#f4_29" transform="matrix(12,0,0,12,549.2,920.2)" />
<use xlink:href="#f4_25" transform="matrix(12,0,0,12,563.1,920.2)" />
<use xlink:href="#f4_2g" transform="matrix(12,0,0,12,567.5,920.2)" />
<use xlink:href="#f4_2g" transform="matrix(12,0,0,12,573.7,920.2)" />
<use xlink:href="#f4_21" transform="matrix(12,0,0,12,579.2,920.2)" />
<use xlink:href="#f4_20" transform="matrix(12,0,0,12,587.2,920.2)" />
<use xlink:href="#f4_22" transform="matrix(12,0,0,12,601.5,920.2)" />
<use xlink:href="#f4_2b" transform="matrix(12,0,0,12,607,920.2)" />
<use xlink:href="#f4_2e" transform="matrix(12,0,0,12,616.5,920.2)" />
<use xlink:href="#f4_2g" transform="matrix(12,0,0,12,627.1,920.2)" />
<use xlink:href="#f4_2e" transform="matrix(12,0,0,12,632.2,920.2)" />
<use xlink:href="#f4_1x" transform="matrix(12,0,0,12,638.5,920.2)" />
<use xlink:href="#f4_2a" transform="matrix(12,0,0,12,646.6,920.2)" />
<use xlink:href="#f4_2f" transform="matrix(12,0,0,12,655.4,920.2)" />
<use xlink:href="#f4_29" transform="matrix(12,0,0,12,662.7,920.2)" />
<use xlink:href="#f4_25" transform="matrix(12,0,0,12,676.9,920.2)" />
<use xlink:href="#f4_2g" transform="matrix(12,0,0,12,681.4,920.2)" />
<use xlink:href="#f4_2g" transform="matrix(12,0,0,12,686.9,920.2)" />
<use xlink:href="#f4_21" transform="matrix(12,0,0,12,692.3,920.2)" />
<use xlink:href="#f4_2e" transform="matrix(12,0,0,12,700.4,920.2)" />
<use xlink:href="#f4_2g" transform="matrix(12,0,0,12,711,920.2)" />
<use xlink:href="#f4_2b" transform="matrix(12,0,0,12,716.1,920.2)" />
<use xlink:href="#f4_2e" transform="matrix(12,0,0,12,730.1,920.2)" />
<use xlink:href="#f4_21" transform="matrix(12,0,0,12,736.3,920.2)" />
<use xlink:href="#f4_1z" transform="matrix(12,0,0,12,744.3,920.2)" />
<use xlink:href="#f4_21" transform="matrix(12,0,0,12,752.4,920.2)" />
<use xlink:href="#f4_25" transform="matrix(12,0,0,12,760.5,920.2)" />
<use xlink:href="#f4_2i" transform="matrix(12,0,0,12,765.2,920.2)" />
<use xlink:href="#f4_21" transform="matrix(12,0,0,12,774,920.2)" />
<use xlink:href="#f4_2e" transform="matrix(12,0,0,12,782.1,920.2)" />
<use xlink:href="#f4_i" transform="matrix(12,0,0,12,788.3,920.2)" />
<use xlink:href="#f4_1i" transform="matrix(12,0,0,12,55,941.1)" />
<use xlink:href="#f4_21" transform="matrix(12,0,0,12,67.1,941.1)" />
<use xlink:href="#f4_1z" transform="matrix(12,0,0,12,75.2,941.1)" />
<use xlink:href="#f4_21" transform="matrix(12,0,0,12,83.3,941.1)" />
<use xlink:href="#f4_25" transform="matrix(12,0,0,12,91.7,941.1)" />
<use xlink:href="#f4_2i" transform="matrix(12,0,0,12,96.5,941.1)" />
<use xlink:href="#f4_21" transform="matrix(12,0,0,12,105.6,941.1)" />
<use xlink:href="#f4_2e" transform="matrix(12,0,0,12,113.7,941.1)" />
<use xlink:href="#f4_u" transform="matrix(12,0,0,12,124.6,941.1)" />
<use xlink:href="#f4_h" transform="matrix(12,0,0,12,129.8,941.1)" />
<use xlink:href="#f4_11" transform="matrix(12,0,0,12,140.8,941.1)" />
<use xlink:href="#f4_2e" transform="matrix(12,0,0,12,158.4,941.1)" />
<use xlink:href="#f4_21" transform="matrix(12,0,0,12,164.6,941.1)" />
<use xlink:href="#f4_1z" transform="matrix(12,0,0,12,172.7,941.1)" />
<use xlink:href="#f4_21" transform="matrix(12,0,0,12,180.8,941.1)" />
<use xlink:href="#f4_25" transform="matrix(12,0,0,12,189.2,941.1)" />
<use xlink:href="#f4_2i" transform="matrix(12,0,0,12,193.9,941.1)" />
<use xlink:href="#f4_21" transform="matrix(12,0,0,12,202.7,941.1)" />
<use xlink:href="#f4_2e" transform="matrix(12,0,0,12,210.8,941.1)" />
<use xlink:href="#f4_21" transform="matrix(12,0,0,12,221.8,941.1)" />
<use xlink:href="#f4_2k" transform="matrix(12,0,0,12,229.8,941.1)" />
<use xlink:href="#f4_2g" transform="matrix(12,0,0,12,238.6,941.1)" />
<use xlink:href="#f4_2e" transform="matrix(12,0,0,12,244.1,941.1)" />
<use xlink:href="#f4_1x" transform="matrix(12,0,0,12,250.3,941.1)" />
<use xlink:href="#f4_1z" transform="matrix(12,0,0,12,258.4,941.1)" />
<use xlink:href="#f4_2g" transform="matrix(12,0,0,12,266.5,941.1)" />
<use xlink:href="#f4_2f" transform="matrix(12,0,0,12,272,941.1)" />
<use xlink:href="#f4_2g" transform="matrix(12,0,0,12,283.3,941.1)" />
<use xlink:href="#f4_24" transform="matrix(12,0,0,12,288.8,941.1)" />
<use xlink:href="#f4_21" transform="matrix(12,0,0,12,297.6,941.1)" />
<use xlink:href="#f4_20" transform="matrix(12,0,0,12,310.4,941.1)" />
<use xlink:href="#f4_21" transform="matrix(12,0,0,12,319.6,941.1)" />
<use xlink:href="#f4_2f" transform="matrix(12,0,0,12,327.7,941.1)" />
<use xlink:href="#f4_25" transform="matrix(12,0,0,12,335,941.1)" />
<use xlink:href="#f4_2e" transform="matrix(12,0,0,12,339.4,941.1)" />
<use xlink:href="#f4_21" transform="matrix(12,0,0,12,345.6,941.1)" />
<use xlink:href="#f4_20" transform="matrix(12,0,0,12,353.7,941.1)" />
<use xlink:href="#f4_29" transform="matrix(12,0,0,12,367.9,941.1)" />
<use xlink:href="#f4_21" transform="matrix(12,0,0,12,381.9,941.1)" />
<use xlink:href="#f4_2f" transform="matrix(12,0,0,12,389.9,941.1)" />
<use xlink:href="#f4_2f" transform="matrix(12,0,0,12,397.2,941.1)" />
<use xlink:href="#f4_1x" transform="matrix(12,0,0,12,404.2,941.1)" />
<use xlink:href="#f4_23" transform="matrix(12,0,0,12,412.3,941.1)" />
<use xlink:href="#f4_21" transform="matrix(12,0,0,12,421.4,941.1)" />
<use xlink:href="#f4_2f" transform="matrix(12,0,0,12,434.6,941.1)" />
<use xlink:href="#f4_25" transform="matrix(12,0,0,12,441.9,941.1)" />
<use xlink:href="#f4_23" transform="matrix(12,0,0,12,446.3,941.1)" />
<use xlink:href="#f4_2a" transform="matrix(12,0,0,12,455.8,941.1)" />
<use xlink:href="#f4_1x" transform="matrix(12,0,0,12,464.6,941.1)" />
<use xlink:href="#f4_28" transform="matrix(12,0,0,12,473.1,941.1)" />
<use xlink:href="#f4_2f" transform="matrix(12,0,0,12,477.8,941.1)" />
<use xlink:href="#f4_22" transform="matrix(12,0,0,12,489.9,941.1)" />
<use xlink:href="#f4_2e" transform="matrix(12,0,0,12,495.4,941.1)" />
<use xlink:href="#f4_2b" transform="matrix(12,0,0,12,501.6,941.1)" />
<use xlink:href="#f4_29" transform="matrix(12,0,0,12,511.5,941.1)" />
<use xlink:href="#f4_2g" transform="matrix(12,0,0,12,529.8,941.1)" />
<use xlink:href="#f4_24" transform="matrix(12,0,0,12,535.3,941.1)" />
<use xlink:href="#f4_21" transform="matrix(12,0,0,12,544.1,941.1)" />
<use xlink:href="#f4_2e" transform="matrix(12,0,0,12,556.9,941.1)" />
<use xlink:href="#f4_21" transform="matrix(12,0,0,12,563.1,941.1)" />
<use xlink:href="#f4_1z" transform="matrix(12,0,0,12,571.2,941.1)" />
<use xlink:href="#f4_21" transform="matrix(12,0,0,12,579.3,941.1)" />
<use xlink:href="#f4_25" transform="matrix(12,0,0,12,587.7,941.1)" />
<use xlink:href="#f4_2i" transform="matrix(12,0,0,12,592.4,941.1)" />
<use xlink:href="#f4_21" transform="matrix(12,0,0,12,601.2,941.1)" />
<use xlink:href="#f4_20" transform="matrix(12,0,0,12,609.3,941.1)" />
<use xlink:href="#f4_2f" transform="matrix(12,0,0,12,623.2,941.1)" />
<use xlink:href="#f4_25" transform="matrix(12,0,0,12,630.5,941.1)" />
<use xlink:href="#f4_23" transform="matrix(12,0,0,12,635.3,941.1)" />
<use xlink:href="#f4_2a" transform="matrix(12,0,0,12,644.8,941.1)" />
<use xlink:href="#f4_1x" transform="matrix(12,0,0,12,653.6,941.1)" />
<use xlink:href="#f4_28" transform="matrix(12,0,0,12,662,941.1)" />
<use xlink:href="#f4_2f" transform="matrix(12,0,0,12,666.8,941.1)" />
<use xlink:href="#f4_1x" transform="matrix(12,0,0,12,678.5,941.1)" />
<use xlink:href="#f4_2g" transform="matrix(12,0,0,12,686.6,941.1)" />
<use xlink:href="#f4_2g" transform="matrix(12,0,0,12,696.8,941.1)" />
<use xlink:href="#f4_24" transform="matrix(12,0,0,12,702.3,941.1)" />
<use xlink:href="#f4_21" transform="matrix(12,0,0,12,711.1,941.1)" />
<use xlink:href="#f4_1z" transform="matrix(12,0,0,12,723.9,941.1)" />
<use xlink:href="#f4_24" transform="matrix(12,0,0,12,732,941.1)" />
<use xlink:href="#f4_1x" transform="matrix(12,0,0,12,740.8,941.1)" />
<use xlink:href="#f4_2a" transform="matrix(12,0,0,12,749.2,941.1)" />
<use xlink:href="#f4_2a" transform="matrix(12,0,0,12,758.4,941.1)" />
<use xlink:href="#f4_21" transform="matrix(12,0,0,12,767.2,941.1)" />
<use xlink:href="#f4_28" transform="matrix(12,0,0,12,775.6,941.1)" />
<use xlink:href="#f4_2b" transform="matrix(12,0,0,12,784.7,941.1)" />
<use xlink:href="#f4_2h" transform="matrix(12,0,0,12,794.2,941.1)" />
<use xlink:href="#f4_2g" transform="matrix(12,0,0,12,803.4,941.1)" />
<use xlink:href="#f4_2c" transform="matrix(12,0,0,12,808.9,941.1)" />
<use xlink:href="#f4_2h" transform="matrix(12,0,0,12,818.1,941.1)" />
<use xlink:href="#f4_2g" transform="matrix(12,0,0,12,826.9,941.1)" />
<use xlink:href="#f4_i" transform="matrix(12,0,0,12,831.9,941.1)" />
<use xlink:href="#f5_l" transform="matrix(12,0,0,12,55,983.3)" />
<use xlink:href="#f5_t" transform="matrix(12,0,0,12,64.2,983.3)" />
<use xlink:href="#f5_i" transform="matrix(12,0,0,12,73.4,983.3)" />
<use xlink:href="#f4_c" transform="matrix(12,0,0,12,82.9,983.3)" />
<use xlink:href="#f4_1x" transform="matrix(12,0,0,12,89.1,983.3)" />
<use xlink:href="#f4_d" transform="matrix(12,0,0,12,96.8,983.3)" />
<use xlink:href="#f4_1n" transform="matrix(12,0,0,12,107.8,983.3)" />
<use xlink:href="#f4_2e" transform="matrix(12,0,0,12,124.6,983.3)" />
<use xlink:href="#f4_25" transform="matrix(12,0,0,12,131.2,983.3)" />
<use xlink:href="#f4_2g" transform="matrix(12,0,0,12,135.6,983.3)" />
<use xlink:href="#f4_21" transform="matrix(12,0,0,12,141.1,983.3)" />
<use xlink:href="#f4_2g" transform="matrix(12,0,0,12,153.6,983.3)" />
<use xlink:href="#f4_24" transform="matrix(12,0,0,12,159.1,983.3)" />
<use xlink:href="#f4_21" transform="matrix(12,0,0,12,167.9,983.3)" />
<use xlink:href="#f4_22" transform="matrix(12,0,0,12,180.7,983.3)" />
<use xlink:href="#f4_2h" transform="matrix(12,0,0,12,186.2,983.3)" />
<use xlink:href="#f4_2a" transform="matrix(12,0,0,12,195.7,983.3)" />
<use xlink:href="#f4_1z" transform="matrix(12,0,0,12,204.9,983.3)" />
<use xlink:href="#f4_2g" transform="matrix(12,0,0,12,212.9,983.3)" />
<use xlink:href="#f4_25" transform="matrix(12,0,0,12,218.4,983.3)" />
<use xlink:href="#f4_2b" transform="matrix(12,0,0,12,222.8,983.3)" />
<use xlink:href="#f4_2a" transform="matrix(12,0,0,12,232.3,983.3)" />
<use xlink:href="#f4_2f" transform="matrix(12,0,0,12,241.5,983.3)" />
<use xlink:href="#f4_2b" transform="matrix(12,0,0,12,253.2,983.3)" />
<use xlink:href="#f4_22" transform="matrix(12,0,0,12,262.7,983.3)" />
<use xlink:href="#f4_2g" transform="matrix(12,0,0,12,273,983.3)" />
<use xlink:href="#f4_24" transform="matrix(12,0,0,12,278.4,983.3)" />
<use xlink:href="#f4_21" transform="matrix(12,0,0,12,287.2,983.3)" />
<use xlink:href="#f4_2g" transform="matrix(12,0,0,12,300.1,983.3)" />
<use xlink:href="#f4_24" transform="matrix(12,0,0,12,305.5,983.3)" />
<use xlink:href="#f4_2e" transform="matrix(12,0,0,12,314.3,983.3)" />
<use xlink:href="#f4_21" transform="matrix(12,0,0,12,320.6,983.3)" />
<use xlink:href="#f4_21" transform="matrix(12,0,0,12,328.6,983.3)" />
<use xlink:href="#f4_2f" transform="matrix(12,0,0,12,341.4,983.3)" />
<use xlink:href="#f4_21" transform="matrix(12,0,0,12,348.4,983.3)" />
<use xlink:href="#f4_23" transform="matrix(12,0,0,12,356.5,983.3)" />
<use xlink:href="#f4_29" transform="matrix(12,0,0,12,366,983.3)" />
<use xlink:href="#f4_21" transform="matrix(12,0,0,12,379.6,983.3)" />
<use xlink:href="#f4_2a" transform="matrix(12,0,0,12,388,983.3)" />
<use xlink:href="#f4_2g" transform="matrix(12,0,0,12,396.8,983.3)" />
<use xlink:href="#f4_2f" transform="matrix(12,0,0,12,402.3,983.3)" />
<use xlink:href="#f4_2b" transform="matrix(12,0,0,12,414,983.3)" />
<use xlink:href="#f4_22" transform="matrix(12,0,0,12,423.5,983.3)" />
<use xlink:href="#f4_1x" transform="matrix(12,0,0,12,434.1,983.3)" />
<use xlink:href="#f4_2g" transform="matrix(12,0,0,12,446.6,983.3)" />
<use xlink:href="#f4_2e" transform="matrix(12,0,0,12,452,983.3)" />
<use xlink:href="#f4_1x" transform="matrix(12,0,0,12,458.3,983.3)" />
<use xlink:href="#f4_2a" transform="matrix(12,0,0,12,466.3,983.3)" />
<use xlink:href="#f4_2f" transform="matrix(12,0,0,12,475.1,983.3)" />
<use xlink:href="#f4_25" transform="matrix(12,0,0,12,482.4,983.3)" />
<use xlink:href="#f4_2f" transform="matrix(12,0,0,12,487.2,983.3)" />
<use xlink:href="#f4_2g" transform="matrix(12,0,0,12,494.2,983.3)" />
<use xlink:href="#f4_2b" transform="matrix(12,0,0,12,499.7,983.3)" />
<use xlink:href="#f4_2e" transform="matrix(12,0,0,12,508.8,983.3)" />
<use xlink:href="#f4_i" transform="matrix(12,0,0,12,515,983.3)" />
<use xlink:href="#f4_c" transform="matrix(12,0,0,12,55,1004.6)" />
<use xlink:href="#f4_1y" transform="matrix(12,0,0,12,61.3,1004.6)" />
<use xlink:href="#f4_d" transform="matrix(12,0,0,12,70.1,1004.6)" />
<use xlink:href="#f4_1k" transform="matrix(12,0,0,12,81,1004.6)" />
<use xlink:href="#f4_24" transform="matrix(12,0,0,12,92.4,1004.6)" />
<use xlink:href="#f4_21" transform="matrix(12,0,0,12,101.2,1004.6)" />
<use xlink:href="#f4_22" transform="matrix(12,0,0,12,114.3,1004.6)" />
<use xlink:href="#f4_25" transform="matrix(12,0,0,12,120.2,1004.6)" />
<use xlink:href="#f4_23" transform="matrix(12,0,0,12,125,1004.6)" />
<use xlink:href="#f4_2h" transform="matrix(12,0,0,12,134.1,1004.6)" />
<use xlink:href="#f4_2e" transform="matrix(12,0,0,12,143.3,1004.6)" />
<use xlink:href="#f4_21" transform="matrix(12,0,0,12,149.5,1004.6)" />
<use xlink:href="#f4_2f" transform="matrix(12,0,0,12,162.3,1004.6)" />
<use xlink:href="#f4_24" transform="matrix(12,0,0,12,169.3,1004.6)" />
<use xlink:href="#f4_2b" transform="matrix(12,0,0,12,178.1,1004.6)" />
<use xlink:href="#f4_2j" transform="matrix(12,0,0,12,187.6,1004.6)" />
<use xlink:href="#f4_2f" transform="matrix(12,0,0,12,200.9,1004.6)" />
<use xlink:href="#f4_2g" transform="matrix(12,0,0,12,212.5,1004.6)" />
<use xlink:href="#f4_24" transform="matrix(12,0,0,12,218,1004.6)" />
<use xlink:href="#f4_21" transform="matrix(12,0,0,12,226.8,1004.6)" />
<use xlink:href="#f4_25" transform="matrix(12,0,0,12,240,1004.6)" />
<use xlink:href="#f4_2a" transform="matrix(12,0,0,12,244.8,1004.6)" />
<use xlink:href="#f4_2c" transform="matrix(12,0,0,12,253.6,1004.6)" />
<use xlink:href="#f4_2h" transform="matrix(12,0,0,12,262.7,1004.6)" />
<use xlink:href="#f4_2g" transform="matrix(12,0,0,12,271.9,1004.6)" />
<use xlink:href="#f4_2j" transform="matrix(12,0,0,12,282.1,1004.6)" />
<use xlink:href="#f4_1x" transform="matrix(12,0,0,12,295.4,1004.6)" />
<use xlink:href="#f4_2i" transform="matrix(12,0,0,12,303.4,1004.6)" />
<use xlink:href="#f4_21" transform="matrix(12,0,0,12,312.2,1004.6)" />
<use xlink:href="#f4_22" transform="matrix(12,0,0,12,320.6,1004.6)" />
<use xlink:href="#f4_2b" transform="matrix(12,0,0,12,326.1,1004.6)" />
<use xlink:href="#f4_2e" transform="matrix(12,0,0,12,335.6,1004.6)" />
<use xlink:href="#f4_29" transform="matrix(12,0,0,12,342.2,1004.6)" />
<use xlink:href="#f4_2f" transform="matrix(12,0,0,12,355.8,1004.6)" />
<use xlink:href="#f4_11" transform="matrix(12,0,0,12,367.9,1004.6)" />
<use xlink:href="#f4_1x" transform="matrix(12,0,0,12,385.4,1004.6)" />
<use xlink:href="#f4_2a" transform="matrix(12,0,0,12,393.9,1004.6)" />
<use xlink:href="#f4_20" transform="matrix(12,0,0,12,402.7,1004.6)" />
<use xlink:href="#f4_12" transform="matrix(12,0,0,12,417.1,1004.6)" />
<use xlink:href="#f4_22" transform="matrix(12,0,0,12,433.9,1004.6)" />
<use xlink:href="#f4_2b" transform="matrix(12,0,0,12,439.4,1004.6)" />
<use xlink:href="#f4_2e" transform="matrix(12,0,0,12,448.9,1004.6)" />
<use xlink:href="#f4_b" transform="matrix(12,0,0,12,459.9,1004.6)" />
<use xlink:href="#f4_11" transform="matrix(12,0,0,12,462.8,1004.6)" />
<use xlink:href="#f4_1e" transform="matrix(12,0,0,12,476,1004.6)" />
<use xlink:href="#f4_14" transform="matrix(12,0,0,12,489.2,1004.6)" />
<use xlink:href="#f4_b" transform="matrix(12,0,0,12,502.8,1004.6)" />
<use xlink:href="#f4_23" transform="matrix(12,0,0,12,510.4,1004.6)" />
<use xlink:href="#f4_1x" transform="matrix(12,0,0,12,519.6,1004.6)" />
<use xlink:href="#f4_2g" transform="matrix(12,0,0,12,527.7,1004.6)" />
<use xlink:href="#f4_21" transform="matrix(12,0,0,12,533.2,1004.6)" />
<use xlink:href="#f4_i" transform="matrix(12,0,0,12,541.2,1004.6)" />
<use xlink:href="#f4_14" transform="matrix(12,0,0,12,550.4,1004.6)" />
<use xlink:href="#f4_2e" transform="matrix(12,0,0,12,563.6,1004.6)" />
<use xlink:href="#f4_1x" transform="matrix(12,0,0,12,569.8,1004.6)" />
<use xlink:href="#f4_2j" transform="matrix(12,0,0,12,577.9,1004.6)" />
<use xlink:href="#f4_2g" transform="matrix(12,0,0,12,595.5,1004.6)" />
<use xlink:href="#f4_24" transform="matrix(12,0,0,12,600.9,1004.6)" />
<use xlink:href="#f4_21" transform="matrix(12,0,0,12,609.7,1004.6)" />
<use xlink:href="#f4_2b" transform="matrix(12,0,0,12,622.2,1004.6)" />
<use xlink:href="#f4_2h" transform="matrix(12,0,0,12,631.7,1004.6)" />
<use xlink:href="#f4_2g" transform="matrix(12,0,0,12,640.5,1004.6)" />
<use xlink:href="#f4_2c" transform="matrix(12,0,0,12,646,1004.6)" />
<use xlink:href="#f4_2h" transform="matrix(12,0,0,12,655.2,1004.6)" />
<use xlink:href="#f4_2g" transform="matrix(12,0,0,12,664,1004.6)" />
<use xlink:href="#f4_2j" transform="matrix(12,0,0,12,674.2,1004.6)" />
<use xlink:href="#f4_1x" transform="matrix(12,0,0,12,687.4,1004.6)" />
<use xlink:href="#f4_2i" transform="matrix(12,0,0,12,695.5,1004.6)" />
<use xlink:href="#f4_21" transform="matrix(12,0,0,12,704.3,1004.6)" />
<use xlink:href="#f4_22" transform="matrix(12,0,0,12,712.7,1004.6)" />
<use xlink:href="#f4_2b" transform="matrix(12,0,0,12,718.2,1004.6)" />
<use xlink:href="#f4_2e" transform="matrix(12,0,0,12,727.7,1004.6)" />
<use xlink:href="#f4_29" transform="matrix(12,0,0,12,733.9,1004.6)" />
<use xlink:href="#f4_1x" transform="matrix(12,0,0,12,752.2,1004.6)" />
<use xlink:href="#f4_2a" transform="matrix(12,0,0,12,760.6,1004.6)" />
<use xlink:href="#f4_20" transform="matrix(12,0,0,12,769.4,1004.6)" />
<use xlink:href="#f4_2j" transform="matrix(12,0,0,12,783.4,1004.6)" />
<use xlink:href="#f4_2e" transform="matrix(12,0,0,12,796.6,1004.6)" />
<use xlink:href="#f4_25" transform="matrix(12,0,0,12,802.8,1004.6)" />
<use xlink:href="#f4_2g" transform="matrix(12,0,0,12,807.2,1004.6)" />
<use xlink:href="#f4_21" transform="matrix(12,0,0,12,812.6,1004.6)" />
<use xlink:href="#f4_2g" transform="matrix(12,0,0,12,825.5,1004.6)" />
<use xlink:href="#f4_24" transform="matrix(12,0,0,12,830.9,1004.6)" />
<use xlink:href="#f4_21" transform="matrix(12,0,0,12,839.7,1004.6)" />
<use xlink:href="#f4_2g" transform="matrix(12,0,0,12,55,1025.5)" />
<use xlink:href="#f4_2e" transform="matrix(12,0,0,12,60.5,1025.5)" />
<use xlink:href="#f4_2h" transform="matrix(12,0,0,12,66.7,1025.5)" />
<use xlink:href="#f4_2g" transform="matrix(12,0,0,12,75.5,1025.5)" />
<use xlink:href="#f4_24" transform="matrix(12,0,0,12,81,1025.5)" />
<use xlink:href="#f4_2g" transform="matrix(12,0,0,12,94.2,1025.5)" />
<use xlink:href="#f4_1x" transform="matrix(12,0,0,12,99.7,1025.5)" />
<use xlink:href="#f4_1y" transform="matrix(12,0,0,12,107.8,1025.5)" />
<use xlink:href="#f4_28" transform="matrix(12,0,0,12,116.9,1025.5)" />
<use xlink:href="#f4_21" transform="matrix(12,0,0,12,121.3,1025.5)" />
<use xlink:href="#f4_22" transform="matrix(12,0,0,12,134.5,1025.5)" />
<use xlink:href="#f4_2b" transform="matrix(12,0,0,12,140,1025.5)" />
<use xlink:href="#f4_2e" transform="matrix(12,0,0,12,149.5,1025.5)" />
<use xlink:href="#f4_2g" transform="matrix(12,0,0,12,160.1,1025.5)" />
<use xlink:href="#f4_24" transform="matrix(12,0,0,12,165.6,1025.5)" />
<use xlink:href="#f4_25" transform="matrix(12,0,0,12,174.8,1025.5)" />
<use xlink:href="#f4_2f" transform="matrix(12,0,0,12,179.6,1025.5)" />
<use xlink:href="#f4_28" transform="matrix(12,0,0,12,191.6,1025.5)" />
<use xlink:href="#f4_2b" transform="matrix(12,0,0,12,196,1025.5)" />
<use xlink:href="#f4_23" transform="matrix(12,0,0,12,205.6,1025.5)" />
<use xlink:href="#f4_25" transform="matrix(12,0,0,12,215.1,1025.5)" />
<use xlink:href="#f4_1z" transform="matrix(12,0,0,12,219.5,1025.5)" />
<use xlink:href="#f4_23" transform="matrix(12,0,0,12,232.3,1025.5)" />
<use xlink:href="#f4_1x" transform="matrix(12,0,0,12,241.4,1025.5)" />
<use xlink:href="#f4_2g" transform="matrix(12,0,0,12,249.5,1025.5)" />
<use xlink:href="#f4_21" transform="matrix(12,0,0,12,255,1025.5)" />
<use xlink:href="#f4_i" transform="matrix(12,0,0,12,263.1,1025.5)" />
</g>
<image preserveAspectRatio="none" x="97" y="710" width="715" height="151" xlink:href="img/6.png" />
<path fill-rule="evenodd" d="M37.4,38.1h.7v-.7h-.7v.7Z" class="g6_39" />
<path fill-rule="evenodd" d="M37.4,38.1h.7v-.7h-.7v.7Z" class="g6_39" />
<path fill-rule="evenodd" d="M38.1,38.1H871.5v-.7H38.1v.7Z" class="g6_39" />
<path fill-rule="evenodd" d="M871.5,38.1h.8v-.7h-.8v.7Z" class="g6_39" />
<path fill-rule="evenodd" d="M871.5,38.1h.8v-.7h-.8v.7Z" class="g6_39" />
<path fill-rule="evenodd" d="M37.4,1248.5h.7V38.1h-.7V1248.5Z" class="g6_39" />
<path fill-rule="evenodd" d="M872.3,1248.5h.7V38.1h-.7V1248.5Z" class="g6_39" />
<path fill-rule="evenodd" d="M871.5,1248.5h.8V38.1h-.8V1248.5Z" class="g6_39" />
<path fill-rule="evenodd" d="M37.4,1249.2h.7v-.7h-.7v.7Z" class="g6_39" />
<path fill-rule="evenodd" d="M37.4,1249.2h.7v-.7h-.7v.7Z" class="g6_39" />
<path fill-rule="evenodd" d="M38.1,1249.9H871.5v-.7H38.1v.7Z" class="g6_39" />
<path fill-rule="evenodd" d="M38.1,1249.2H871.5v-.7H38.1v.7Z" class="g6_39" />
<path fill-rule="evenodd" d="M872.3,1249.9h.7v-1.4h-.7v1.4Z" class="g6_39" />
<path fill-rule="evenodd" d="M871.5,1249.9H873v-.7h-1.5v.7Z" class="g6_39" />
<path fill-rule="evenodd" d="M871.5,1249.2h.8v-.7h-.8v.7Z" class="g6_39" />
<path fill-rule="evenodd" d="M871.5,1249.2h.8v-.7h-.8v.7Z" class="g6_39" />
<defs>
<path d="M489,-15c0,0,-99,0,-179,30c0,0,-80,30,-136,91c0,0,-56,61,-85,152c0,0,-30,91,-30,212c0,0,0,123,32,218c0,0,33,96,92,161c0,0,59,65,142,98c0,0,82,34,181,34c0,0,40,0,78,-7c0,0,37,-7,69,-18c0,0,31,-11,57,-25c0,0,25,-14,35,-24c0,0,10,-10,14,-17c0,0,4,-7,6,-17c0,0,2,-11,3,-25c0,0,2,-14,2,-35c0,0,0,-22,-2,-38c0,0,-1,-15,-5,-25c0,0,-4,-10,-9,-14c0,0,-5,-5,-12,-5c0,0,-11,0,-28,13c0,0,-18,13,-45,29c0,0,-27,16,-65,29c0,0,-37,13,-89,13c0,0,-58,0,-103,-23c0,0,-45,-23,-77,-67c0,0,-31,-44,-48,-106c0,0,-16,-61,-16,-139c0,0,0,-85,17,-147c0,0,18,-62,50,-103c0,0,33,-40,79,-60c0,0,45,-19,103,-19c0,0,52,0,90,12c0,0,38,12,65,27c0,0,27,15,45,27c0,0,17,12,27,12c0,0,8,0,12,-3c0,0,4,-3,7,-12c0,0,3,-9,5,-25c0,0,1,-16,1,-43c0,0,0,-18,-1,-31c0,0,-1,-14,-3,-23c0,0,-2,-9,-6,-16c0,0,-4,-7,-12,-15c0,0,-8,-9,-32,-22c0,0,-23,-14,-57,-26C661,13,627,1,583,-6c0,0,-43,-9,-94,-9Z" 
id="f0_j"
transform="scale(0.001,-0.001)" />

<path d="M440,150c0,0,41,0,68,8c0,0,28,9,49,26c0,0,20,16,32,41c0,0,11,25,11,58c0,0,0,33,-11,60c0,0,-11,26,-33,44c0,0,-21,18,-55,28c0,0,-33,9,-87,9H298V150ZM407,567c0,0,42,0,68,10c0,0,25,10,42,28c0,0,16,17,24,41c0,0,9,24,9,50c0,0,0,29,-9,52c0,0,-9,23,-27,39c0,0,-18,15,-45,23c0,0,-27,8,-72,8H298V567ZM164,0c0,0,-25,0,-42,15c0,0,-16,14,-16,47V903c0,0,0,33,16,48c0,0,17,14,42,14H406c0,0,88,0,150,-15c0,0,61,-15,103,-45c0,0,42,-30,65,-77c0,0,22,-46,22,-108c0,0,0,-36,-9,-67c0,0,-9,-31,-26,-56c0,0,-17,-25,-42,-45c0,0,-25,-19,-57,-31c0,0,41,-7,76,-26c0,0,34,-19,60,-48c0,0,26,-30,41,-69c0,0,15,-40,15,-89c0,0,0,-51,-14,-93c0,0,-15,-42,-40,-74c0,0,-25,-32,-59,-55c0,0,-35,-23,-77,-38C614,29,573,14,525,7C525,7,478,0,420,0Z" 
id="f0_i"
transform="scale(0.001,-0.001)" />

<path d="M320,-17c0,0,-50,0,-93,9c0,0,-43,8,-76,19c0,0,-32,11,-54,24C97,35,75,48,65,58c0,0,-10,9,-14,28c0,0,-4,18,-4,52c0,0,0,23,1,39c0,0,2,15,5,25c0,0,4,10,9,14c0,0,6,4,13,4c0,0,11,0,30,-12c0,0,19,-13,49,-28c0,0,30,-15,71,-27c0,0,42,-12,96,-12c0,0,36,0,64,8c0,0,29,9,49,25c0,0,19,15,30,38c0,0,10,23,10,52c0,0,0,33,-18,56c0,0,-18,24,-46,42c0,0,-29,18,-66,34c0,0,-36,16,-75,34c0,0,-39,18,-76,41c0,0,-36,23,-65,54c0,0,-29,32,-47,75c0,0,-17,44,-17,104c0,0,0,70,25,122c0,0,26,53,70,88c0,0,43,34,103,51c0,0,59,18,125,18c0,0,35,0,69,-6c0,0,34,-5,64,-14c0,0,30,-9,53,-20c0,0,23,-11,31,-18c0,0,7,-8,10,-13c0,0,3,-5,4,-14c0,0,2,-8,3,-21c0,0,1,-13,1,-33c0,0,0,-21,-1,-36c0,0,-1,-15,-4,-25c0,0,-3,-9,-7,-14c0,0,-5,-4,-14,-4c0,0,-8,0,-26,10c0,0,-18,10,-44,23c0,0,-26,12,-60,22c0,0,-34,10,-75,10c0,0,-32,0,-56,-8c0,0,-24,-8,-40,-21c0,0,-16,-14,-24,-34c0,0,-8,-19,-8,-41c0,0,0,-32,18,-56c0,0,17,-23,46,-42c0,0,30,-18,67,-34c0,0,38,-16,76,-34c0,0,39,-18,76,-41c0,0,38,-22,67,-54c0,0,29,-32,47,-75c0,0,18,-43,18,-101c0,0,0,-76,-29,-133c0,0,-28,-58,-77,-96C572,60,524,21,459,2c0,0,-65,-19,-139,-19Z" 
id="f0_2n"
transform="scale(0.001,-0.001)" />

<path d="M164,0c0,0,-25,0,-42,15c0,0,-16,14,-16,47V903c0,0,0,33,16,48c0,0,17,14,42,14H645c0,0,7,0,12,-4c0,0,5,-3,9,-13c0,0,4,-9,6,-24c0,0,2,-14,2,-36c0,0,0,-21,-2,-36c0,0,-2,-14,-6,-23c0,0,-4,-9,-9,-13c0,0,-5,-4,-12,-4H301V576H593c0,0,6,0,12,-4c0,0,6,-4,9,-13c0,0,4,-8,6,-23c0,0,2,-14,2,-35c0,0,0,-22,-2,-36c0,0,-2,-14,-6,-23c0,0,-3,-8,-9,-12c0,0,-6,-4,-12,-4H301V154H649c0,0,6,0,12,-5c0,0,5,-4,9,-13c0,0,4,-9,6,-23c0,0,2,-15,2,-36c0,0,0,-22,-2,-36c0,0,-2,-15,-6,-24c0,0,-4,-9,-9,-13c0,0,-6,-4,-12,-4Z" 
id="f0_t"
transform="scale(0.001,-0.001)" />

<path d="M79,297c0,0,-19,0,-27,18c0,0,-8,17,-8,60c0,0,0,41,8,59c0,0,8,17,27,17H389c0,0,9,0,15,-4c0,0,7,-4,11,-13c0,0,5,-9,7,-23c0,0,1,-15,1,-36c0,0,0,-43,-8,-61c0,0,-8,-17,-26,-17Z" 
id="f0_oj"
transform="scale(0.001,-0.001)" />

<path d="M121,-4c0,0,-39,0,-60,2C61,-2,39,0,32,8c0,0,-8,8,-3,24c0,0,4,15,18,41L279,495L64,892c0,0,-14,26,-19,42c0,0,-5,17,4,24c0,0,9,8,32,10c0,0,23,2,65,2c0,0,35,0,56,-2c0,0,20,-1,32,-4c0,0,12,-4,17,-10c0,0,5,-6,9,-15L431,620L595,939c0,0,5,9,10,15c0,0,5,6,16,10c0,0,10,3,29,4c0,0,19,2,53,2c0,0,37,0,59,-2c0,0,22,-2,30,-10c0,0,8,-8,4,-24c0,0,-4,-16,-17,-42L564,497L793,73c0,0,14,-26,18,-41c0,0,4,-16,-5,-24c0,0,-9,-8,-32,-10c0,0,-24,-2,-65,-2c0,0,-36,0,-56,2c0,0,-20,1,-31,3c0,0,-12,4,-17,10c0,0,-5,6,-9,15L414,374L233,26c0,0,-4,-9,-9,-15c0,0,-6,-6,-17,-10c0,0,-12,-2,-32,-3c0,0,-21,-2,-54,-2Z" 
id="f0_3e"
transform="scale(0.001,-0.001)" />

<path d="M204,-4c0,0,-28,0,-47,2c0,0,-19,2,-31,5c0,0,-11,4,-16,10c0,0,-4,6,-4,13V939c0,0,0,7,4,13c0,0,5,6,17,10c0,0,11,3,30,6c0,0,19,2,47,2c0,0,29,0,48,-2c0,0,18,-3,29,-6c0,0,11,-4,16,-10c0,0,5,-6,5,-13V26c0,0,0,-7,-5,-13c0,0,-5,-6,-16,-10c0,0,-11,-3,-29,-5c0,0,-19,-2,-48,-2Z" 
id="f0_1c"
transform="scale(0.001,-0.001)" />

<path d="M127,0c0,0,-16,0,-28,3C99,3,87,6,80,15c0,0,-8,8,-11,25c0,0,-3,16,-3,42c0,0,0,25,2,42c0,0,2,18,8,32c0,0,6,14,15,27c0,0,9,13,24,29L282,390c0,0,50,53,81,95c0,0,30,43,47,79c0,0,17,35,24,65c0,0,6,30,6,57c0,0,0,24,-8,46c0,0,-8,22,-23,39c0,0,-15,16,-38,25c0,0,-23,10,-55,10c0,0,-44,0,-78,-12c0,0,-33,-11,-59,-25c0,0,-26,-13,-43,-25c0,0,-17,-12,-27,-12c0,0,-7,0,-11,5c0,0,-5,4,-8,15c0,0,-3,10,-5,28c0,0,-2,17,-2,42c0,0,0,18,1,29c0,0,1,12,4,20c0,0,2,9,6,15c0,0,3,6,13,15c0,0,9,9,34,23c0,0,25,14,61,27c0,0,37,14,81,23c0,0,44,9,92,9c0,0,75,0,131,-19c0,0,57,-19,94,-53c0,0,37,-34,55,-81c0,0,19,-47,19,-100c0,0,0,-47,-9,-93c0,0,-9,-45,-37,-98c0,0,-29,-52,-80,-116c0,0,-52,-64,-136,-148L299,159H679c0,0,8,0,14,-4c0,0,6,-5,11,-14c0,0,4,-9,7,-25c0,0,2,-15,2,-36c0,0,0,-22,-2,-37c0,0,-2,-15,-6,-25c0,0,-3,-10,-9,-14c0,0,-6,-4,-14,-4Z" 
id="f0_rz"
transform="scale(0.001,-0.001)" />

<path d="M385,138c0,0,29,0,52,9c0,0,22,10,39,28c0,0,17,19,28,47c0,0,11,29,19,66c0,0,7,37,9,84c0,0,3,47,3,104c0,0,0,69,-4,122c0,0,-4,52,-11,91c0,0,-8,39,-20,66c0,0,-12,27,-28,43c0,0,-16,16,-37,22c0,0,-21,7,-47,7c0,0,-44,0,-73,-21c0,0,-28,-21,-45,-64c0,0,-17,-42,-24,-106c0,0,-6,-63,-6,-148c0,0,0,-103,8,-171c0,0,8,-67,26,-107c0,0,17,-40,45,-56c0,0,27,-16,66,-16ZM378,-17c0,0,-99,0,-164,33c0,0,-65,34,-103,98c0,0,-38,64,-54,156c0,0,-15,92,-15,209c0,0,0,115,19,208c0,0,19,94,61,160c0,0,42,65,110,101c0,0,68,35,165,35c0,0,99,0,164,-34c0,0,65,-34,103,-98c0,0,39,-64,53,-156c0,0,15,-92,15,-209c0,0,0,-115,-18,-209c0,0,-19,-93,-61,-159C653,118,611,53,543,17c0,0,-67,-34,-165,-34Z" 
id="f0_rx"
transform="scale(0.001,-0.001)" />

<path d="M142,0c0,0,-6,0,-12,4c0,0,-5,3,-9,12c0,0,-4,9,-6,23c0,0,-3,15,-3,36c0,0,0,21,2,36c0,0,2,14,6,23c0,0,4,9,10,13c0,0,5,5,12,5H322V779L166,693c0,0,-17,-8,-28,-10c0,0,-1,0,-3,0c-4,0,-10,1,-14,5c0,0,-6,6,-8,22c0,0,-2,15,-2,44c0,0,0,18,0,29c0,0,1,12,4,20c0,0,3,8,8,14c0,0,5,5,14,11L345,962c0,0,4,3,9,5c0,0,6,2,15,3c0,0,9,1,23,2c0,0,15,0,38,0c0,0,28,0,46,-1c0,0,17,-1,26,-4c0,0,9,-3,12,-7c0,0,3,-4,3,-11V152H675c0,0,7,0,12,-5c0,0,6,-4,10,-13c0,0,4,-9,6,-23c0,0,2,-15,2,-36c0,0,0,-21,-2,-36c0,0,-3,-14,-7,-23c0,0,-4,-9,-9,-12c0,0,-5,-4,-12,-4Z" 
id="f0_ry"
transform="scale(0.001,-0.001)" />

<path d="M259,-4c0,0,-39,0,-62,3c0,0,-23,1,-34,7c0,0,-11,6,-12,14c0,0,-1,9,5,21L498,796H92c0,0,-16,0,-24,20c0,0,-7,21,-7,65c0,0,0,22,2,38c0,0,2,16,6,27c0,0,4,10,10,15c0,0,6,4,13,4H666c0,0,13,0,22,-3c0,0,9,-2,14,-11c0,0,6,-9,8,-25c0,0,3,-17,3,-43c0,0,0,-22,-2,-38c0,0,-1,-16,-4,-30c0,0,-2,-13,-7,-26c0,0,-4,-12,-10,-26L372,26c0,0,-5,-10,-12,-16c0,0,-7,-6,-20,-9c0,0,-12,-3,-32,-4c0,0,-20,-1,-49,-1Z" 
id="f0_s4"
transform="scale(0.001,-0.001)" />

<path d="M589,371L453,782h-1L317,371ZM106,-4c0,0,-35,0,-54,2C52,-2,32,0,25,8c0,0,-7,9,-5,24c0,0,2,16,11,42L329,931c0,0,4,13,10,21c0,0,6,7,19,12c0,0,13,4,36,5c0,0,23,1,61,1c0,0,44,0,71,-1c0,0,26,-1,40,-5c0,0,15,-5,21,-13c0,0,6,-8,11,-22L896,73c0,0,9,-27,11,-43c0,0,3,-15,-6,-23c0,0,-8,-7,-29,-9c0,0,-21,-2,-57,-2c0,0,-38,0,-59,1c0,0,-22,1,-33,4c0,0,-11,3,-16,9c0,0,-4,6,-7,16L635,220H272L211,31c0,0,-2,-11,-7,-18c0,0,-5,-7,-16,-11c0,0,-11,-3,-31,-4c0,0,-19,-2,-51,-2Z" 
id="f0_5"
transform="scale(0.001,-0.001)" />

<path d="M198,-4c0,0,-27,0,-45,2c0,0,-18,2,-28,5c0,0,-11,4,-15,10c0,0,-4,6,-4,13V887c0,0,0,38,20,58c0,0,20,20,53,20H308c0,0,34,0,59,-6c0,0,24,-5,42,-18c0,0,18,-13,30,-35c0,0,12,-21,21,-52L669,279h3L889,852c0,0,9,32,21,53c0,0,11,22,27,35c0,0,15,14,36,19c0,0,21,6,48,6h132c0,0,21,0,35,-5c0,0,15,-5,24,-15c0,0,9,-11,14,-25c0,0,5,-15,5,-33V26c0,0,0,-7,-4,-13c0,0,-4,-6,-15,-10c0,0,-11,-3,-29,-5c0,0,-18,-2,-45,-2c0,0,-27,0,-45,2c0,0,-18,2,-28,5c0,0,-11,4,-15,10c0,0,-5,6,-5,13V813h-1L764,27c0,0,-3,-10,-10,-16c0,0,-6,-6,-18,-10c0,0,-12,-3,-29,-4c0,0,-18,-1,-44,-1c0,0,-25,0,-43,2c0,0,-18,2,-29,5c0,0,-12,4,-19,10c0,0,-6,6,-9,14L293,813h-2V26c0,0,0,-7,-4,-13c0,0,-4,-6,-15,-10c0,0,-11,-3,-29,-5c0,0,-17,-2,-45,-2Z" 
id="f0_1x"
transform="scale(0.001,-0.001)" />

<path d="M193,-4c0,0,-26,0,-43,2c0,0,-18,2,-27,6c0,0,-10,4,-14,10c0,0,-3,6,-3,13V895c0,0,0,35,20,53c0,0,21,17,50,17H282c0,0,28,0,47,-5c0,0,20,-5,35,-16c0,0,15,-11,29,-31c0,0,13,-20,27,-49L608,511c0,0,17,-32,33,-63c0,0,16,-31,31,-62c0,0,14,-31,29,-60c0,0,14,-30,27,-60h1c0,0,-2,52,-3,109c0,0,-1,57,-1,108V936c0,0,0,7,4,13c0,0,5,6,15,11c0,0,10,4,28,6c0,0,17,2,44,2c0,0,25,0,42,-2c0,0,17,-2,27,-6c0,0,9,-5,13,-11c0,0,4,-6,4,-13V68c0,0,0,-17,-6,-30c0,0,-6,-14,-17,-23C879,15,869,6,856,2c0,0,-14,-3,-28,-3H744c0,0,-26,0,-45,4c0,0,-19,5,-35,19c0,0,-16,14,-31,38c0,0,-15,23,-34,60L359,572c0,0,-21,40,-43,86c0,0,-21,47,-38,91h-2c0,0,3,-54,5,-107c0,0,2,-53,2,-110V27c0,0,0,-7,-5,-13c0,0,-4,-6,-14,-10c0,0,-10,-4,-27,-6c0,0,-17,-2,-44,-2Z" 
id="f0_1y"
transform="scale(0.001,-0.001)" />

<path d="M378,-4c0,0,-28,0,-47,2c0,0,-19,2,-31,5c0,0,-11,4,-16,10c0,0,-4,6,-4,13V805H38c0,0,-8,0,-13,4c0,0,-5,5,-9,14c0,0,-3,9,-5,25c0,0,-2,15,-2,37c0,0,0,22,2,38c0,0,2,15,5,25c0,0,4,9,9,13c0,0,5,4,13,4H718c0,0,7,0,12,-4c0,0,6,-4,10,-13c0,0,3,-10,5,-25c0,0,2,-16,2,-38c0,0,0,-22,-2,-37c0,0,-2,-16,-5,-25c0,0,-4,-9,-10,-14c0,0,-5,-4,-12,-4H476V26c0,0,0,-7,-5,-13c0,0,-5,-6,-16,-10c0,0,-11,-3,-30,-5c0,0,-19,-2,-47,-2Z" 
id="f0_2t"
transform="scale(0.001,-0.001)" />

<path d="M514,145c0,0,72,0,121,27c0,0,48,26,78,73c0,0,30,46,42,107c0,0,13,62,13,131c0,0,0,76,-12,139c0,0,-12,62,-41,106c0,0,-29,45,-76,69c0,0,-48,24,-120,24c0,0,-72,0,-120,-27c0,0,-49,-27,-79,-73c0,0,-29,-45,-42,-106c0,0,-12,-61,-12,-129c0,0,0,-79,12,-142c0,0,12,-63,40,-108c0,0,28,-44,76,-68c0,0,48,-23,120,-23ZM508,-17c0,0,-113,0,-196,29c0,0,-84,29,-140,90c0,0,-56,60,-84,154c0,0,-28,93,-28,221c0,0,0,117,29,210c0,0,30,94,89,160c0,0,59,65,146,101c0,0,87,35,202,35c0,0,110,0,194,-29c0,0,84,-30,140,-90c0,0,56,-60,85,-153c0,0,29,-92,29,-217c0,0,0,-120,-30,-215c0,0,-30,-95,-89,-161C855,118,796,52,709,17c0,0,-87,-34,-201,-34Z" 
id="f0_24"
transform="scale(0.001,-0.001)" />

<path d="M299,0V777H162l36,173H508V0Z" 
id="f1_l"
transform="scale(0.001,-0.001)" />

<path d="M441,402V711h-3L193,402ZM441,0V227H19V404L457,952H650V402h90V227H650V0Z" 
id="f1_o"
transform="scale(0.001,-0.001)" />

<path d="M44,-281L425,1053H537L156,-281Z" 
id="f1_j"
transform="scale(0.001,-0.001)" />

<path d="M75,0L400,413c0,0,71,91,101,149c0,0,30,58,30,109c0,0,0,55,-36,91c0,0,-36,36,-91,36c0,0,-63,0,-91,-45c0,0,-28,-46,-34,-142H67c0,0,0,173,102,268c0,0,102,95,253,95c0,0,140,0,229,-82c0,0,89,-82,89,-209c0,0,0,-125,-104,-276L580,324c0,0,-34,-50,-85,-114L468,178H740V0Z" 
id="f1_m"
transform="scale(0.001,-0.001)" />

<path d="M403,168c0,0,50,0,85,37c0,0,35,36,35,89c0,0,0,50,-35,85c0,0,-35,36,-85,36c0,0,-47,0,-81,-37c0,0,-35,-37,-35,-89c0,0,0,-47,36,-84c0,0,35,-37,80,-37Zm3,426c0,0,39,0,70,28c0,0,31,29,31,65c0,0,0,46,-28,77c0,0,-29,31,-73,31c0,0,-42,0,-71,-29c0,0,-28,-29,-28,-70c0,0,0,-44,28,-73c0,0,29,-29,71,-29Zm2,-605c0,0,-145,0,-234,75c0,0,-90,76,-90,197c0,0,0,150,140,239c0,0,-59,52,-87,101c0,0,-27,49,-27,112c0,0,0,103,77,179c0,0,77,75,216,75c0,0,136,0,217,-68c0,0,81,-68,81,-180c0,0,0,-130,-115,-217c0,0,140,-90,140,-237c0,0,0,-124,-89,-200c0,0,-88,-76,-229,-76Z" 
id="f1_s"
transform="scale(0.001,-0.001)" />

<path d="M188,355c0,0,148,11,236,69c0,0,89,58,89,143c0,0,0,41,-23,68c0,0,-22,27,-66,27c0,0,-52,0,-101,-43c0,0,-49,-42,-85,-114c0,0,-36,-71,-50,-150ZM298,-14c0,0,-120,0,-186,67c0,0,-65,67,-65,193c0,0,0,125,53,232c0,0,52,108,145,175c0,0,94,67,196,67c0,0,92,0,147,-42c0,0,56,-43,56,-111c0,0,0,-102,-126,-173c0,0,-125,-72,-336,-86l-3,-54c0,0,0,-95,40,-143c0,0,40,-47,118,-47c0,0,67,0,124,22c0,0,57,23,106,52l22,-32c0,0,-69,-58,-146,-89c0,0,-76,-31,-145,-31Z" 
id="f2_21"
transform="scale(0.001,-0.001)" />

<path d="M313,80c0,0,53,0,105,15c0,0,52,15,87,38l90,509c0,0,-76,20,-152,20c0,0,-74,0,-134,-54c0,0,-60,-54,-94,-149c0,0,-34,-95,-34,-203c0,0,0,-86,34,-131c0,0,34,-45,98,-45ZM421,-325l52,285c0,0,12,64,28,120C501,80,443,37,380,11c0,0,-64,-25,-119,-25c0,0,-102,0,-156,63c0,0,-54,63,-54,188c0,0,0,137,53,248c0,0,54,112,152,173c0,0,97,62,220,62c0,0,52,0,129,-10c0,0,76,-11,123,-22L554,-273l91,-17l-6,-35Z" 
id="f2_2d"
transform="scale(0.001,-0.001)" />

<path d="M459,0l7,40L589,60L458,438L162,60L283,40L275,0H-50l8,40L69,60L427,512L275,941L166,960l7,40H541l-8,-40L426,941L530,636L768,941l-98,19l7,40H982l-7,-40L862,941L560,562L739,60L849,40L841,0Z" 
id="f2_1o"
transform="scale(0.001,-0.001)" />

<path d="M311,-14c0,0,-94,0,-169,18C142,4,67,23,18,55L57,277h48l1,-143c0,0,25,-37,84,-63c0,0,59,-26,126,-26c0,0,122,0,188,58c0,0,66,58,66,162c0,0,0,40,-18,70c0,0,-18,30,-48,54c0,0,-30,23,-67,44c0,0,-38,20,-77,40c0,0,-40,21,-78,44c0,0,-37,24,-67,55c0,0,-30,31,-48,71c0,0,-18,40,-18,94c0,0,0,133,90,204c0,0,91,70,259,70c0,0,128,0,241,-28L703,774H654l-4,128c0,0,-23,20,-66,33c0,0,-42,13,-98,13c0,0,-99,0,-153,-48c0,0,-53,-48,-53,-136c0,0,0,-47,33,-85c0,0,34,-39,100,-73c0,0,102,-53,146,-80c0,0,45,-28,75,-59c0,0,31,-31,49,-72c0,0,18,-40,18,-92c0,0,0,-154,-100,-236c0,0,-100,-81,-290,-81Z" 
id="f2_1j"
transform="scale(0.001,-0.001)" />

<path d="M0,214v74H784V214ZM0,494v72H784V494Z" 
id="f3_x"
transform="scale(0.001,-0.001)" />

<path d="M355,0V355H0v72H355V784h72V427H782V355H427V0Z" 
id="f3_f"
transform="scale(0.001,-0.001)" />

<path d="M64,0V34L168,59V639H47v36l121,29v49c0,0,0,155,61,239c0,0,62,84,173,84c0,0,58,0,107,-15V908H472l-33,92c0,0,-26,16,-62,16c0,0,-47,0,-66,-42c0,0,-19,-42,-19,-157V701H478V639H292V59L443,34V0Z" 
id="f4_22"
transform="scale(0.001,-0.001)" />

<path d="M377,45c0,0,99,0,147,73c0,0,47,73,47,237c0,0,0,161,-47,233c0,0,-47,72,-147,72c0,0,-97,0,-141,-69c0,0,-44,-69,-44,-236c0,0,0,-169,45,-240c0,0,44,-70,140,-70Zm0,-59c0,0,-158,0,-238,94c0,0,-81,95,-81,274c0,0,0,178,81,272c0,0,80,94,244,94c0,0,160,0,241,-92c0,0,82,-92,82,-274c0,0,0,-368,-329,-368Z" 
id="f4_2b"
transform="scale(0.001,-0.001)" />

<path d="M31,0V33l88,19V649L31,668v33H235l7,-87c0,0,44,37,121,71c0,0,76,35,121,35h11V530H463l-43,82c0,0,-37,0,-88,-10c0,0,-52,-10,-89,-26V52L363,33V0Z" 
id="f4_2e"
transform="scale(0.001,-0.001)" />

<path d="M249,-14c0,0,-71,0,-107,42c0,0,-35,42,-35,119V639H15v33l93,29l76,159h47V701H391V639H231V161c0,0,0,-48,22,-73c0,0,22,-24,57,-24c0,0,44,0,106,12V26C416,26,389,8,340,-2c0,0,-49,-12,-91,-12Z" 
id="f4_2g"
transform="scale(0.001,-0.001)" />

<path d="M442,0V33l93,19V504c0,0,0,129,-124,129c0,0,-70,0,-168,-22V52L338,33V0H31V33l88,19v956L15,1026v34H243V756c0,0,0,-77,-5,-112c0,0,54,31,122,53c0,0,68,23,115,23c0,0,91,0,137,-53c0,0,47,-53,47,-154V52L744,33V0Z" 
id="f4_24"
transform="scale(0.001,-0.001)" />

<path d="M495,413c0,0,0,133,-34,190c0,0,-34,57,-105,57c0,0,-78,0,-119,-63c0,0,-42,-62,-42,-184ZM374,-14c0,0,-163,0,-239,87c0,0,-75,88,-75,283c0,0,0,183,77,273c0,0,76,91,219,91c0,0,269,0,269,-306V353H194V340c0,0,0,-103,23,-160c0,0,22,-57,70,-87c0,0,47,-29,124,-29c0,0,40,0,96,6c0,0,55,7,91,15V43C598,43,562,20,500,3c0,0,-61,-17,-126,-17Z" 
id="f4_21"
transform="scale(0.001,-0.001)" />

<path d="M278,-14c0,0,-52,0,-115,11c0,0,-63,10,-99,23V193H98L134,95c0,0,56,-50,146,-50c0,0,144,0,144,123c0,0,0,91,-114,130l-66,21c0,0,-75,25,-110,50c0,0,-34,26,-53,63c0,0,-18,36,-18,89c0,0,0,92,63,145c0,0,63,54,170,54c0,0,77,0,193,-23V544H454l-32,81c0,0,-39,35,-124,35c0,0,-61,0,-92,-30c0,0,-32,-30,-32,-80c0,0,0,-43,29,-72c0,0,28,-29,86,-48c0,0,110,-38,144,-55c0,0,33,-17,57,-42c0,0,23,-25,36,-57c0,0,13,-32,13,-79c0,0,0,-104,-66,-158c0,0,-66,-53,-195,-53Z" 
id="f4_2f"
transform="scale(0.001,-0.001)" />

<path d="M399,-14c0,0,-341,0,-341,370c0,0,0,175,87,269c0,0,87,95,249,95c0,0,101,0,220,-23V501H573L541,625c0,0,-62,35,-149,35c0,0,-200,0,-200,-304c0,0,0,-158,61,-225c0,0,61,-67,189,-67c0,0,109,0,189,24V43C631,43,595,16,530,1c0,0,-64,-15,-131,-15Z" 
id="f4_1z"
transform="scale(0.001,-0.001)" />

<path d="M439,0V33l93,19V500c0,0,0,62,-30,97c0,0,-31,36,-94,36c0,0,-67,0,-165,-22V52L338,33V0H35V33l84,19V649L35,668v33H235l7,-57c0,0,57,33,122,54c0,0,65,22,108,22c0,0,91,0,137,-53c0,0,47,-53,47,-154V52L741,33V0Z" 
id="f4_2a"
transform="scale(0.001,-0.001)" />

<path d="M383,64c0,0,85,0,152,28V645c0,0,-67,13,-152,13c0,0,-194,0,-194,-314c0,0,0,-141,48,-211c0,0,48,-69,146,-69ZM342,-14c0,0,-287,0,-287,358c0,0,0,184,82,280c0,0,81,96,239,96c0,0,81,0,163,-18c0,0,-4,25,-4,124v182l-118,18v34H659V52L745,33V0H548l-9,52c0,0,-84,-66,-197,-66Z" 
id="f4_20"
transform="scale(0.001,-0.001)" />

<path d="M376,50c0,0,103,0,149,80c0,0,46,81,46,240c0,0,0,137,-47,204c0,0,-48,67,-148,67c0,0,-44,0,-87,-7c0,0,-44,-8,-63,-17V62c0,0,63,-12,150,-12Zm3,-64c0,0,-64,0,-141,14c0,0,-78,14,-136,37v971L0,1026v34H226V809c0,0,0,-40,-4,-148c0,0,74,59,188,59c0,0,143,0,219,-87c0,0,77,-87,77,-263c0,0,0,-189,-84,-287c0,0,-84,-97,-243,-97Z" 
id="f4_1y"
transform="scale(0.001,-0.001)" />

<path d="M284,67c0,0,51,0,88,12c0,0,37,12,74,30V358l-98,-3c0,0,-100,-4,-135,-39c0,0,-35,-35,-35,-117c0,0,0,-132,106,-132ZM233,-14c0,0,-179,0,-179,208c0,0,0,70,27,116c0,0,27,46,87,70c0,0,60,24,173,27l105,3V519c0,0,0,72,-26,107c0,0,-27,34,-82,34c0,0,-75,0,-137,-35L176,538H134V691c0,0,121,26,213,26c0,0,115,0,169,-47c0,0,54,-47,54,-144V52L657,33V0H465L451,70c0,0,-85,-84,-218,-84Z" 
id="f4_1x"
transform="scale(0.001,-0.001)" />

<path d="M31,0V33L150,52v956L31,1026v34H274V52L394,33V0Z" 
id="f4_28"
transform="scale(0.001,-0.001)" />

<path d="M32,0V33L151,52V649L52,668v33H275V52L395,33V0ZM201,850c0,0,-32,0,-56,24c0,0,-24,24,-24,56c0,0,0,34,24,58c0,0,24,24,56,24c0,0,34,0,58,-24c0,0,24,-24,24,-58c0,0,0,-32,-24,-56c0,0,-24,-24,-58,-24Z" 
id="f4_25"
transform="scale(0.001,-0.001)" />

<path d="M359,-270c0,0,124,0,192,46c0,0,67,47,67,129c0,0,0,43,-26,67c0,0,-26,24,-79,24H242c0,0,-32,-27,-51,-69c0,0,-20,-41,-20,-77c0,0,0,-64,46,-92c0,0,46,-28,142,-28Zm11,561c0,0,81,0,115,47c0,0,34,47,34,141c0,0,0,100,-35,142c0,0,-35,42,-113,42c0,0,-78,0,-114,-43c0,0,-37,-42,-37,-141c0,0,0,-98,36,-143c0,0,36,-45,114,-45ZM359,-329c0,0,-143,0,-218,44c0,0,-75,43,-75,125c0,0,0,39,27,78c0,0,26,38,98,89c0,0,-43,14,-72,48c0,0,-29,35,-29,74L208,262c0,0,-118,55,-118,217c0,0,0,115,73,178c0,0,73,63,211,63c0,0,28,0,71,-6c0,0,44,-6,67,-13l165,83l26,-32L599,644c0,0,50,-56,50,-165c0,0,0,-120,-72,-182c0,0,-73,-62,-208,-62c0,0,-62,0,-114,11L208,148c0,0,2,-13,29,-24c0,0,27,-12,67,-12H512c0,0,113,0,168,-49c0,0,55,-49,55,-134c0,0,0,-79,-44,-137c0,0,-43,-58,-128,-90c0,0,-84,-31,-204,-31Z" 
id="f4_23"
transform="scale(0.001,-0.001)" />

<path d="M67,0V109L206,235c0,0,133,118,196,190c0,0,63,72,90,149c0,0,27,77,27,177c0,0,0,97,-44,148c0,0,-44,50,-144,50c0,0,-39,0,-81,-10c0,0,-42,-11,-74,-29L150,787H101V980c0,0,135,32,230,32c0,0,164,0,247,-68c0,0,82,-69,82,-193c0,0,0,-84,-32,-158c0,0,-33,-75,-100,-148c0,0,-67,-74,-222,-206c0,0,-67,-57,-141,-125H680V0Z" 
id="f4_m"
transform="scale(0.001,-0.001)" />

<path d="M134,0V40L339,60V876L137,804v39l292,166h39V60L672,40V0Z" 
id="f4_l"
transform="scale(0.001,-0.001)" />

<path d="M377,45c0,0,99,0,145,108c0,0,46,109,46,352c0,0,0,240,-45,345c0,0,-46,106,-146,106c0,0,-97,0,-139,-100c0,0,-43,-99,-43,-351c0,0,0,-254,44,-357c0,0,43,-103,138,-103Zm0,-59c0,0,-158,0,-238,132c0,0,-81,133,-81,386c0,0,0,249,81,380c0,0,80,132,244,132c0,0,159,0,241,-130c0,0,82,-130,82,-382c0,0,0,-518,-329,-518Z" 
id="f4_k"
transform="scale(0.001,-0.001)" />

<path d="M460,-325c0,0,-148,79,-231,172c0,0,-84,93,-123,217c0,0,-39,126,-39,304c0,0,0,178,39,303c0,0,39,125,122,217c0,0,82,93,232,172V997c0,0,-91,-52,-145,-134c0,0,-54,-81,-79,-190c0,0,-25,-109,-25,-305c0,0,0,-194,26,-309c0,0,26,-114,82,-193c0,0,56,-79,141,-128v-63Z" 
id="f4_c"
transform="scale(0.001,-0.001)" />

<path d="M49,-325v63c0,0,85,49,140,128c0,0,56,79,83,194c0,0,26,115,26,308c0,0,0,196,-25,305c0,0,-25,109,-79,190c0,0,-54,82,-145,134v63c0,0,149,-80,232,-172c0,0,83,-92,122,-217c0,0,39,-125,39,-303c0,0,0,-177,-39,-303c0,0,-39,-125,-122,-217c0,0,-83,-93,-232,-173Z" 
id="f4_d"
transform="scale(0.001,-0.001)" />

<path d="M191,-20c0,0,-39,0,-65,25c0,0,-25,27,-25,64c0,0,0,38,26,64c0,0,26,26,64,26c0,0,38,0,64,-26c0,0,26,-26,26,-64c0,0,0,-37,-25,-64c0,0,-26,-25,-65,-25Z" 
id="f4_i"
transform="scale(0.001,-0.001)" />

<path d="M460,506c0,0,135,0,209,64c0,0,73,65,73,183c0,0,0,180,-213,180H419L343,506ZM671,0L487,438H331L264,60L398,40L390,0H-7L0,40L120,60L276,941L151,960l7,40H555c0,0,163,0,249,-62c0,0,86,-62,86,-180c0,0,0,-236,-261,-299L798,60L908,40L900,0Z" 
id="f2_1i"
transform="scale(0.001,-0.001)" />

<path d="M81,0L258,1008l-96,18l6,34H391L214,52L331,33L325,0Z" 
id="f2_28"
transform="scale(0.001,-0.001)" />

<path d="M0,356v74H784V356Z" 
id="f3_h"
transform="scale(0.001,-0.001)" />

<path d="M412,-328c0,0,-195,96,-303,284C109,-44,0,142,0,365c0,0,0,232,114,422c0,0,114,191,298,273v-31c0,0,-92,-51,-151,-139c0,0,-59,-88,-88,-223c0,0,-29,-136,-29,-282c0,0,0,-167,27,-301c0,0,26,-133,82,-221c0,0,55,-89,159,-159v-32Z" 
id="f3_c"
transform="scale(0.001,-0.001)" />

<path d="M34,-328v32c0,0,92,50,151,138c0,0,59,88,88,222c0,0,29,135,29,283c0,0,0,165,-27,300c0,0,-26,134,-82,222c0,0,-56,89,-159,160v31c0,0,194,-96,303,-284c0,0,108,-187,108,-410c0,0,0,-232,-114,-422c0,0,-114,-191,-297,-272Z" 
id="f3_d"
transform="scale(0.001,-0.001)" />

<path d="M83,0C83,0,48,0,24,24C24,24,0,49,0,83c0,0,0,34,24,58c0,0,24,24,59,24c0,0,34,0,58,-24c0,0,24,-24,24,-58c0,0,0,-34,-24,-59C141,24,117,0,83,0ZM695,0c0,0,-34,0,-58,24c0,0,-25,25,-25,59c0,0,0,34,25,58c0,0,24,24,58,24c0,0,34,0,58,-24c0,0,24,-24,24,-58c0,0,0,-34,-24,-59C753,24,729,0,695,0ZM388,594c0,0,-34,0,-59,23c0,0,-24,24,-24,59c0,0,0,34,24,58c0,0,25,25,59,25c0,0,34,0,58,-25c0,0,24,-24,24,-58c0,0,0,-35,-24,-59c0,0,-24,-23,-58,-23Z" 
id="f3_1s"
transform="scale(0.001,-0.001)" />

<path d="M52,62L0,114L278,390L0,667l52,52L330,442L608,719l51,-51L382,390L659,114L608,62L330,338L52,62Z" 
id="f3_3a"
transform="scale(0.001,-0.001)" />

<path d="M122,0V64L295,82V837L123,780v64l282,165H511V82L685,64V0Z" 
id="f5_l"
transform="scale(0.001,-0.001)" />

<path d="M377,60c0,0,65,0,94,49c0,0,30,49,30,160c0,0,0,115,-30,168c0,0,-29,52,-94,52c0,0,-61,0,-88,-51c0,0,-26,-51,-26,-169c0,0,0,-115,27,-162c0,0,27,-47,87,-47Zm2,509c0,0,51,0,75,43c0,0,24,43,24,143c0,0,0,98,-24,142c0,0,-25,45,-75,45c0,0,-48,0,-71,-45c0,0,-22,-44,-22,-142c0,0,0,-102,22,-144c0,0,22,-42,71,-42ZM377,-14c0,0,-326,0,-326,284c0,0,0,95,46,162c0,0,46,68,128,98c0,0,-72,28,-112,85c0,0,-39,58,-39,141c0,0,0,123,81,191c0,0,81,69,228,69c0,0,145,0,226,-70c0,0,81,-70,81,-192c0,0,0,-82,-40,-140c0,0,-41,-58,-114,-84c0,0,86,-32,132,-99c0,0,45,-67,45,-161c0,0,0,-142,-82,-213c0,0,-81,-71,-254,-71Z" 
id="f5_s"
transform="scale(0.001,-0.001)" />

<path d="M191,-20c0,0,-51,0,-88,34c0,0,-36,36,-36,88c0,0,0,52,36,88c0,0,36,36,88,36c0,0,51,0,88,-36c0,0,36,-36,36,-88c0,0,0,-51,-36,-87c0,0,-36,-35,-88,-35Z" 
id="f5_i"
transform="scale(0.001,-0.001)" />

<path d="M529,65c0,0,183,0,270,108c0,0,87,108,87,334c0,0,0,210,-113,318c0,0,-113,108,-322,108H316V71c0,0,90,-6,213,-6Zm0,-67L172,0H44V40L172,60V941L44,960v40H498c0,0,277,0,411,-123c0,0,133,-124,133,-371c0,0,0,-251,-129,-380C913,126,785,-2,529,-2Z" 
id="f4_14"
transform="scale(0.001,-0.001)" />

<path d="M327,-14L84,649L1,668v33H335V668L219,648L385,174L554,632h63L786,171L944,649L830,668v33h267V668l-78,-16L784,-14H726L553,448L382,-14Z" 
id="f4_2j"
transform="scale(0.001,-0.001)" />

<path d="M477,0V33l64,19L348,354L257,254V52L331,33V0H44V33l89,19v956L29,1026v34H257V338L544,647l-73,20v34H718V667L631,650L431,446L688,50L764,33V0Z" 
id="f4_27"
transform="scale(0.001,-0.001)" />

<path d="M431,0V33L535,52V499c0,0,0,62,-32,96c0,0,-32,33,-95,33c0,0,-66,0,-163,-22V52L350,33V0H32V33l89,19V649L32,668v33H237l6,-57c0,0,56,32,119,54c0,0,62,22,110,22c0,0,52,0,95,-20c0,0,44,-19,66,-62c0,0,57,32,134,57c0,0,77,25,128,25c0,0,179,0,179,-207V52l90,-19V0H846V33L950,52V499c0,0,0,129,-119,129c0,0,-19,0,-45,-3c0,0,-26,-3,-52,-7c0,0,-25,-4,-49,-8c0,0,-23,-5,-39,-8c0,0,13,-41,13,-89V52L764,33V0Z" 
id="f4_29"
transform="scale(0.001,-0.001)" />

<path d="M41,0V34L426,641H261c0,0,-42,0,-80,-7c0,0,-39,-7,-54,-19L104,515H69V701H586V665L201,60H407c0,0,42,0,89,10c0,0,47,10,66,25l39,147h35L617,0Z" 
id="f4_2m"
transform="scale(0.001,-0.001)" />

<path d="M289,-14c0,0,-179,0,-179,205V649L20,668v33H233V200c0,0,0,-128,120,-128c0,0,92,0,173,23V649L420,668v33H649V52L738,33V0H533l-6,57C527,57,474,28,405,7c0,0,-69,-21,-116,-21Z" 
id="f4_2h"
transform="scale(0.001,-0.001)" />

<path d="M148,-329c0,0,-58,0,-114,13v151H69l24,-71c0,0,23,-17,64,-17c0,0,39,0,72,22c0,0,33,23,60,67c0,0,27,44,68,157L90,649L19,668v33H344V668L233,648L423,158L606,649L497,668v33H758V668L685,652L411,-43c0,0,-48,-124,-84,-177c0,0,-36,-54,-79,-82c0,0,-44,-27,-100,-27Z" 
id="f4_2l"
transform="scale(0.001,-0.001)" />

<path d="M420,-22L89,941L1,960v40H383V960L236,941L474,236L744,930h33L1037,236l227,705l-156,19v40h331V960l-87,-19L1025,-22H985L726,666L460,-22Z" 
id="f4_1n"
transform="scale(0.001,-0.001)" />

<path d="M235,0V40L394,60V936H356c0,0,-189,0,-258,-15L78,766H28v234H908V766H857L837,921c0,0,-22,5,-98,9c0,0,-75,4,-165,4H538V60L697,40V0Z" 
id="f4_1k"
transform="scale(0.001,-0.001)" />

<path d="M577,-14c0,0,-243,0,-379,132C198,118,63,250,63,488c0,0,0,258,130,391c0,0,131,132,387,132c0,0,156,0,335,-38l5,-218H871L848,884c0,0,-52,32,-121,50c0,0,-69,17,-141,17c0,0,-191,0,-279,-112c0,0,-88,-113,-88,-349c0,0,0,-217,92,-332c0,0,92,-115,268,-115c0,0,85,0,160,20c0,0,76,21,120,55l27,149h49L930,32c0,0,-164,-46,-353,-46Z" 
id="f4_13"
transform="scale(0.001,-0.001)" />

<path d="M448,506c0,0,134,0,190,49c0,0,57,50,57,168c0,0,0,114,-56,162c0,0,-56,48,-195,48H316V506ZM777,0L496,438H316V60L468,40V0H54V40L172,60V941L44,960v40H476c0,0,188,0,277,-63c0,0,90,-64,90,-204c0,0,0,-100,-54,-173c0,0,-55,-73,-151,-101L909,60L1017,40V0Z" 
id="f4_1i"
transform="scale(0.001,-0.001)" />

<path d="M360,-14L72,649L0,668v33H327V668L216,648L420,164L615,649L504,668v33H764V668L697,652L416,-14Z" 
id="f4_2i"
transform="scale(0.001,-0.001)" />

<path d="M410,-14c0,0,-86,0,-175,14C235,0,145,14,81,38V307h66L181,146c0,0,31,-37,94,-62c0,0,64,-24,132,-24c0,0,214,0,214,177c0,0,0,55,-41,93c0,0,-41,38,-128,68c0,0,-128,42,-185,68c0,0,-56,27,-95,63c0,0,-38,36,-62,87c0,0,-23,51,-23,125c0,0,0,132,90,201c0,0,90,69,263,69c0,0,125,0,278,-32V741H651L618,878c0,0,-76,56,-178,56c0,0,-92,0,-141,-34c0,0,-49,-34,-49,-104c0,0,0,-50,41,-86c0,0,41,-35,128,-63c0,0,171,-56,235,-97c0,0,64,-41,97,-103c0,0,34,-61,34,-143c0,0,0,-318,-375,-318Z" 
id="f5_1j"
transform="scale(0.001,-0.001)" />

<path d="M379,60c0,0,59,0,84,64c0,0,24,65,24,231c0,0,0,164,-24,227c0,0,-24,63,-84,63c0,0,-57,0,-80,-60c0,0,-22,-61,-22,-230c0,0,0,-173,23,-234c0,0,22,-61,79,-61Zm-2,-74c0,0,-161,0,-240,91c0,0,-79,91,-79,277c0,0,0,186,80,276c0,0,81,90,245,90c0,0,167,0,245,-93c0,0,78,-93,78,-273c0,0,0,-188,-81,-278c0,0,-81,-90,-248,-90Z" 
id="f5_2b"
transform="scale(0.001,-0.001)" />

<path d="M30,0V49l76,18V992l-72,18v50H322V67L398,49V0Z" 
id="f5_28"
transform="scale(0.001,-0.001)" />

<path d="M287,-18c0,0,-194,0,-194,206V634L23,652v49H309V217c0,0,0,-63,26,-98c0,0,27,-35,76,-35c0,0,57,0,113,25V634l-64,18v49H740V67L809,49V0H536L526,61L475,35c0,0,-104,-53,-188,-53Z" 
id="f5_2h"
transform="scale(0.001,-0.001)" />

<path d="M327,-14c0,0,-101,0,-156,45c0,0,-55,45,-55,131V624H25v48l108,29l87,159H332V701H480V624H332V176c0,0,0,-49,20,-73c0,0,20,-25,53,-25c0,0,40,0,97,12V26c0,0,-22,-15,-76,-27c0,0,-55,-13,-99,-13Z" 
id="f5_2g"
transform="scale(0.001,-0.001)" />

<path d="M34,0V49l76,18V634L38,652v49H325V67L402,49V0ZM217,831c0,0,-48,0,-81,33c0,0,-34,33,-34,82c0,0,0,48,34,81c0,0,34,33,81,33c0,0,48,0,81,-33c0,0,33,-33,33,-81c0,0,0,-47,-33,-81c0,0,-32,-34,-81,-34Z" 
id="f5_25"
transform="scale(0.001,-0.001)" />

<path d="M41,0V49l69,18V634L41,652v49H313l11,-61l50,26c0,0,105,54,188,54c0,0,194,0,194,-207V67L827,49V0H478V49l63,18V484c0,0,0,63,-27,98c0,0,-26,35,-75,35c0,0,-57,0,-114,-25V67L389,49V0Z" 
id="f5_2a"
transform="scale(0.001,-0.001)" />

<path d="M248,-20c0,0,-52,0,-87,34c0,0,-36,36,-36,88c0,0,0,52,36,88c0,0,35,36,87,36c0,0,52,0,88,-36c0,0,36,-36,36,-88c0,0,0,-51,-36,-87c0,0,-35,-35,-88,-35Zm0,488c0,0,-52,0,-87,36c0,0,-36,36,-36,88c0,0,0,52,35,88c0,0,35,36,88,36c0,0,53,0,89,-36c0,0,35,-37,35,-88c0,0,0,-51,-36,-87c0,0,-35,-37,-88,-37Z" 
id="f5_u"
transform="scale(0.001,-0.001)" />

<path d="M536,63c0,0,127,0,191,54c0,0,63,54,63,168c0,0,0,105,-70,154c0,0,-70,49,-225,49H316V67c0,0,103,-4,220,-4ZM480,555c0,0,121,0,178,48c0,0,57,48,57,155c0,0,0,91,-58,133c0,0,-57,42,-186,42H316V555ZM554,-4L235,0H44V40L172,60V941L44,960v40H501c0,0,191,0,279,-56c0,0,88,-56,88,-179c0,0,0,-88,-55,-149c0,0,-54,-62,-151,-83c0,0,135,-14,209,-79c0,0,73,-65,73,-166c0,0,0,-144,-99,-219C845,69,745,-4,554,-4Z" 
id="f4_12"
transform="scale(0.001,-0.001)" />

<path d="M211,-20c0,0,-39,0,-64,25c0,0,-26,27,-26,64c0,0,0,38,26,64c0,0,26,26,64,26c0,0,37,0,64,-25c0,0,26,-26,26,-65c0,0,0,-37,-26,-64c0,0,-26,-25,-64,-25Zm0,556c0,0,-38,0,-64,26c0,0,-26,26,-26,64c0,0,0,37,26,64c0,0,25,27,64,27c0,0,38,0,64,-27c0,0,26,-27,26,-64c0,0,0,-38,-26,-64c0,0,-27,-26,-64,-26Z" 
id="f4_u"
transform="scale(0.001,-0.001)" />

<path d="M57,302V417H454V302Z" 
id="f4_h"
transform="scale(0.001,-0.001)" />

<path d="M681,416L504,902L333,416ZM669,0V40L803,60L704,348H310L210,60L344,40V0H15V40L128,60l341,949H611L965,60L1092,40V0Z" 
id="f4_11"
transform="scale(0.001,-0.001)" />

<path d="M13,0V34L95,46L325,350L122,649L40,668v33H357V668L264,648L399,446L554,649l-96,19v33H710V668L630,652L433,397L663,50L745,34V0H427V34l94,17L359,299L169,50L266,34V0Z" 
id="f4_2k"
transform="scale(0.001,-0.001)" />

<path d="M382,45c0,0,188,0,188,314c0,0,0,143,-47,213c0,0,-46,69,-141,69c0,0,-87,0,-146,-24V58c0,0,67,-13,146,-13ZM25,-325v35l88,18V649L34,668v33H231l1,-41c0,0,31,27,84,43c0,0,53,17,107,17c0,0,134,0,208,-94c0,0,73,-93,73,-267c0,0,0,-178,-80,-276c0,0,-80,-97,-232,-97c0,0,-84,0,-160,16c0,0,4,-53,4,-84V-272l123,-18v-35Z" 
id="f4_2c"
transform="scale(0.001,-0.001)" />

<path d="M377,478c0,0,57,0,112,14v10c0,0,0,216,-25,325c0,0,-26,110,-91,110c0,0,-112,0,-112,-245c0,0,0,-214,116,-214ZM312,-14c0,0,-124,0,-232,31V245h65L177,99c0,0,26,-18,62,-29c0,0,36,-10,70,-10c0,0,80,0,126,91c0,0,45,92,52,265c0,0,-77,-28,-154,-28c0,0,-135,0,-213,81c0,0,-78,80,-78,226c0,0,0,152,87,234c0,0,87,82,242,82c0,0,176,0,257,-123c0,0,81,-123,81,-385c0,0,0,-169,-48,-284C661,219,614,103,525,44c0,0,-89,-58,-213,-58Z" 
id="f5_t"
transform="scale(0.001,-0.001)" />

<path d="M110,641L64,1000H211L165,641Z" 
id="f4_b"
transform="scale(0.001,-0.001)" />

<path d="M868,0L251,900V60L385,40V0H44V40L172,60V941L44,960v40H347L862,259V941L727,960v40h341V960L940,941V0Z" 
id="f4_1e"
transform="scale(0.001,-0.001)" />


</defs>
</svg>