<?xml version="1.0" encoding="UTF-8" standalone="no"?>
<!DOCTYPE svg PUBLIC "-//W3C//DTD SVG 1.1//EN"
"http://www.w3.org/Graphics/SVG/1.1/DTD/svg11.dtd">
<svg viewBox="0 0 909 1286" version="1.1" xmlns="http://www.w3.org/2000/svg" xmlns:xlink="http://www.w3.org/1999/xlink">
<defs>
<clipPath id="c0_48"><path d="M55.2,553.8V505.1H192.6v48.7Z" /></clipPath>
<clipPath id="c1_48"><path d="M55.2,707.8v-127H314.8v127Z" /></clipPath>
<clipPath id="c2_48"><path d="M55.2,817.8V710.5H349.7V817.8Z" /></clipPath>
<style type="text/css"><![CDATA[
.g0_48{
fill: #D9D9D9;
}
.g1_48{
fill: none;
stroke: #000000;
stroke-width: 0.7638889;
stroke-linecap: butt;
stroke-linejoin: miter;
}
.g2_48{
fill: none;
stroke: #000000;
stroke-width: 0.9049697;
stroke-linecap: butt;
stroke-linejoin: round;
}
.g3_48{
fill: none;
stroke: #000000;
stroke-width: 0.90982866;
stroke-linecap: butt;
stroke-linejoin: round;
}
.g4_48{
fill: none;
stroke: #000000;
stroke-width: 0.90966606;
stroke-linecap: butt;
stroke-linejoin: round;
}
.g5_48{
}
]]></style>
</defs>
<image preserveAspectRatio="none" x="747" y="1196" width="96" height="59" xlink:href="img/1.png" />
<image preserveAspectRatio="none" x="336" y="41" width="259" height="51" xlink:href="img/2.png" />
<image preserveAspectRatio="none" x="342" y="50" width="247" height="27" xlink:href="img/3.png" />
<image preserveAspectRatio="none" x="341" y="45" width="239" height="42" xlink:href="img/4.png" />
<g fill="#FFFFFF" >
<use xlink:href="#f0_j" transform="matrix(11.5,0,0,11.5,355.1,70.1)" />
<use xlink:href="#f0_i" transform="matrix(11.5,0,0,11.5,364.3,70.1)" />
<use xlink:href="#f0_2n" transform="matrix(11.5,0,0,11.5,374.1,70.1)" />
<use xlink:href="#f0_t" transform="matrix(11.5,0,0,11.5,382.6,70.1)" />
<use xlink:href="#f0_oj" transform="matrix(11.5,0,0,11.5,391,70.1)" />
<use xlink:href="#f0_3e" transform="matrix(11.5,0,0,11.5,396.5,70.1)" />
<use xlink:href="#f0_1c" transform="matrix(11.5,0,0,11.5,406.1,70.1)" />
<use xlink:href="#f0_1c" transform="matrix(11.5,0,0,11.5,410.8,70.1)" />
<use xlink:href="#f0_oj" transform="matrix(11.5,0,0,11.5,415.6,70.1)" />
<use xlink:href="#f0_rz" transform="matrix(11.5,0,0,11.5,421.1,70.1)" />
<use xlink:href="#f0_rx" transform="matrix(11.5,0,0,11.5,429.9,70.1)" />
<use xlink:href="#f0_ry" transform="matrix(11.5,0,0,11.5,438.7,70.1)" />
<use xlink:href="#f0_s4" transform="matrix(11.5,0,0,11.5,447.5,70.1)" />
<use xlink:href="#f0_t" transform="matrix(11.5,0,0,11.5,460.4,70.1)" />
<use xlink:href="#f0_3e" transform="matrix(11.5,0,0,11.5,468.8,70.1)" />
<use xlink:href="#f0_5" transform="matrix(11.5,0,0,11.5,478.3,70.1)" />
<use xlink:href="#f0_1x" transform="matrix(11.5,0,0,11.5,489,70.1)" />
<use xlink:href="#f0_1c" transform="matrix(11.5,0,0,11.5,504.4,70.1)" />
<use xlink:href="#f0_1y" transform="matrix(11.5,0,0,11.5,509.1,70.1)" />
<use xlink:href="#f0_5" transform="matrix(11.5,0,0,11.5,520.8,70.1)" />
<use xlink:href="#f0_2t" transform="matrix(11.5,0,0,11.5,531.5,70.1)" />
<use xlink:href="#f0_1c" transform="matrix(11.5,0,0,11.5,540.2,70.1)" />
<use xlink:href="#f0_24" transform="matrix(11.5,0,0,11.5,545,70.1)" />
<use xlink:href="#f0_1y" transform="matrix(11.5,0,0,11.5,556.7,70.1)" />
</g>
<image preserveAspectRatio="none" x="554" y="45" width="36" height="42" xlink:href="img/5.png" />
<g fill="#FFFFFF" >
<use xlink:href="#f1_m" transform="matrix(11,0,0,11,770.3,1227.6)" />
<use xlink:href="#f1_n" transform="matrix(11,0,0,11,779.1,1227.6)" />
<use xlink:href="#f1_j" transform="matrix(11,0,0,11,792.3,1227.6)" />
<use xlink:href="#f1_m" transform="matrix(11,0,0,11,802.9,1227.6)" />
<use xlink:href="#f1_s" transform="matrix(11,0,0,11,811.7,1227.6)" />
</g>
<path fill-rule="evenodd" d="M52.8,1193.5H856.9v-.8H52.8v.8Z" class="g0_48" />
<path d="M37.9,99.4L873,98.5" class="g1_48" />
<g fill="#000000" >
<use xlink:href="#f2_c" transform="matrix(12,0,0,12,55,267)" />
<use xlink:href="#f2_20" transform="matrix(12,0,0,12,61.3,267)" />
<use xlink:href="#f2_d" transform="matrix(12,0,0,12,70.4,267)" />
<use xlink:href="#f2_11" transform="matrix(12,0,0,12,81.4,267)" />
<use xlink:href="#f2_13" transform="matrix(12,0,0,12,94.2,267)" />
<use xlink:href="#f2_2g" transform="matrix(12,0,0,12,111.1,267)" />
<use xlink:href="#f2_24" transform="matrix(12,0,0,12,116.5,267)" />
<use xlink:href="#f2_2e" transform="matrix(12,0,0,12,125.3,267)" />
<use xlink:href="#f2_2b" transform="matrix(12,0,0,12,131.2,267)" />
<use xlink:href="#f2_2h" transform="matrix(12,0,0,12,140.7,267)" />
<use xlink:href="#f2_23" transform="matrix(12,0,0,12,149.9,267)" />
<use xlink:href="#f2_24" transform="matrix(12,0,0,12,159.1,267)" />
<use xlink:href="#f2_1z" transform="matrix(12,0,0,12,172.6,267)" />
<use xlink:href="#f2_1x" transform="matrix(12,0,0,12,180.7,267)" />
<use xlink:href="#f2_2c" transform="matrix(12,0,0,12,188.7,267)" />
<use xlink:href="#f2_1x" transform="matrix(12,0,0,12,197.9,267)" />
<use xlink:href="#f2_1z" transform="matrix(12,0,0,12,206,267)" />
<use xlink:href="#f2_25" transform="matrix(12,0,0,12,214.4,267)" />
<use xlink:href="#f2_2g" transform="matrix(12,0,0,12,218.8,267)" />
<use xlink:href="#f2_2b" transform="matrix(12,0,0,12,224.3,267)" />
<use xlink:href="#f2_2e" transform="matrix(12,0,0,12,233.8,267)" />
<use xlink:href="#f2_u" transform="matrix(12,0,0,12,240,267)" />
<use xlink:href="#f2_h" transform="matrix(12,0,0,12,249.8,267)" />
<use xlink:href="#f2_1c" transform="matrix(12,0,0,12,260.4,267)" />
<use xlink:href="#f2_21" transform="matrix(12,0,0,12,271.4,267)" />
<use xlink:href="#f2_2g" transform="matrix(12,0,0,12,279.5,267)" />
<use xlink:href="#f2_2b" transform="matrix(12,0,0,12,289.4,267)" />
<use xlink:href="#f2_2a" transform="matrix(12,0,0,12,298.9,267)" />
<use xlink:href="#f2_1z" transform="matrix(12,0,0,12,312.5,267)" />
<use xlink:href="#f2_2b" transform="matrix(12,0,0,12,320.2,267)" />
<use xlink:href="#f2_2a" transform="matrix(12,0,0,12,329.7,267)" />
<use xlink:href="#f2_2f" transform="matrix(12,0,0,12,338.5,267)" />
<use xlink:href="#f2_25" transform="matrix(12,0,0,12,345.8,267)" />
<use xlink:href="#f2_20" transform="matrix(12,0,0,12,350.5,267)" />
<use xlink:href="#f2_21" transform="matrix(12,0,0,12,359.7,267)" />
<use xlink:href="#f2_2e" transform="matrix(12,0,0,12,367.8,267)" />
<use xlink:href="#f2_1x" transform="matrix(12,0,0,12,378.7,267)" />
<use xlink:href="#f2_1z" transform="matrix(12,0,0,12,391.6,267)" />
<use xlink:href="#f2_1x" transform="matrix(12,0,0,12,399.6,267)" />
<use xlink:href="#f2_2c" transform="matrix(12,0,0,12,407.7,267)" />
<use xlink:href="#f2_1x" transform="matrix(12,0,0,12,416.9,267)" />
<use xlink:href="#f2_1z" transform="matrix(12,0,0,12,424.9,267)" />
<use xlink:href="#f2_25" transform="matrix(12,0,0,12,433.3,267)" />
<use xlink:href="#f2_2g" transform="matrix(12,0,0,12,437.7,267)" />
<use xlink:href="#f2_2b" transform="matrix(12,0,0,12,443.2,267)" />
<use xlink:href="#f2_2e" transform="matrix(12,0,0,12,452.7,267)" />
<use xlink:href="#f2_2j" transform="matrix(12,0,0,12,463.4,267)" />
<use xlink:href="#f2_25" transform="matrix(12,0,0,12,476.6,267)" />
<use xlink:href="#f2_2g" transform="matrix(12,0,0,12,481,267)" />
<use xlink:href="#f2_24" transform="matrix(12,0,0,12,486.4,267)" />
<use xlink:href="#f2_1z" transform="matrix(12,0,0,12,500,267)" />
<use xlink:href="#f2_1x" transform="matrix(12,0,0,12,508.1,267)" />
<use xlink:href="#f2_2c" transform="matrix(12,0,0,12,516.1,267)" />
<use xlink:href="#f2_1x" transform="matrix(12,0,0,12,525.3,267)" />
<use xlink:href="#f2_1z" transform="matrix(12,0,0,12,533.4,267)" />
<use xlink:href="#f2_25" transform="matrix(12,0,0,12,541.8,267)" />
<use xlink:href="#f2_2g" transform="matrix(12,0,0,12,546.2,267)" />
<use xlink:href="#f2_1x" transform="matrix(12,0,0,12,551.6,267)" />
<use xlink:href="#f2_2a" transform="matrix(12,0,0,12,560.1,267)" />
<use xlink:href="#f2_1z" transform="matrix(12,0,0,12,568.9,267)" />
<use xlink:href="#f2_21" transform="matrix(12,0,0,12,577.3,267)" />
<use xlink:href="#f2_13" transform="matrix(12,0,0,12,590.1,267)" />
<use xlink:href="#f2_1y" transform="matrix(12,0,0,12,606.9,267)" />
<use xlink:href="#f2_21" transform="matrix(12,0,0,12,615.7,267)" />
<use xlink:href="#f2_1z" transform="matrix(12,0,0,12,628.6,267)" />
<use xlink:href="#f2_2b" transform="matrix(12,0,0,12,636.6,267)" />
<use xlink:href="#f2_2a" transform="matrix(12,0,0,12,646.1,267)" />
<use xlink:href="#f2_2a" transform="matrix(12,0,0,12,655.3,267)" />
<use xlink:href="#f2_21" transform="matrix(12,0,0,12,664.1,267)" />
<use xlink:href="#f2_1z" transform="matrix(12,0,0,12,672.2,267)" />
<use xlink:href="#f2_2g" transform="matrix(12,0,0,12,680.2,267)" />
<use xlink:href="#f2_21" transform="matrix(12,0,0,12,685.7,267)" />
<use xlink:href="#f2_20" transform="matrix(12,0,0,12,693.8,267)" />
<use xlink:href="#f2_2g" transform="matrix(12,0,0,12,707.7,267)" />
<use xlink:href="#f2_2b" transform="matrix(12,0,0,12,712.8,267)" />
<use xlink:href="#f2_1x" transform="matrix(12,0,0,12,726.7,267)" />
<use xlink:href="#f2_2a" transform="matrix(12,0,0,12,734.8,267)" />
<use xlink:href="#f2_11" transform="matrix(12,0,0,12,748.4,267)" />
<use xlink:href="#f2_13" transform="matrix(12,0,0,12,761.2,267)" />
<use xlink:href="#f2_2f" transform="matrix(12,0,0,12,778,267)" />
<use xlink:href="#f2_2b" transform="matrix(12,0,0,12,785,267)" />
<use xlink:href="#f2_2h" transform="matrix(12,0,0,12,794.5,267)" />
<use xlink:href="#f2_2e" transform="matrix(12,0,0,12,803.7,267)" />
<use xlink:href="#f2_1z" transform="matrix(12,0,0,12,809.9,267)" />
<use xlink:href="#f2_21" transform="matrix(12,0,0,12,818,267)" />
<use xlink:href="#f2_2j" transform="matrix(12,0,0,12,55,291.2)" />
<use xlink:href="#f2_25" transform="matrix(12,0,0,12,68.6,291.2)" />
<use xlink:href="#f2_2g" transform="matrix(12,0,0,12,73,291.2)" />
<use xlink:href="#f2_24" transform="matrix(12,0,0,12,78.5,291.2)" />
<use xlink:href="#f2_1x" transform="matrix(12,0,0,12,92,291.2)" />
<use xlink:href="#f2_2a" transform="matrix(12,0,0,12,100.4,291.2)" />
<use xlink:href="#f2_21" transform="matrix(12,0,0,12,114,291.2)" />
<use xlink:href="#f2_29" transform="matrix(12,0,0,12,122.4,291.2)" />
<use xlink:href="#f2_22" transform="matrix(12,0,0,12,136.3,291.2)" />
<use xlink:href="#f2_24" transform="matrix(12,0,0,12,146.9,291.2)" />
<use xlink:href="#f2_1x" transform="matrix(12,0,0,12,155.7,291.2)" />
<use xlink:href="#f2_2i" transform="matrix(12,0,0,12,164.2,291.2)" />
<use xlink:href="#f2_25" transform="matrix(12,0,0,12,173.3,291.2)" />
<use xlink:href="#f2_2a" transform="matrix(12,0,0,12,178.1,291.2)" />
<use xlink:href="#f2_23" transform="matrix(12,0,0,12,187.3,291.2)" />
<use xlink:href="#f2_25" transform="matrix(12,0,0,12,201.5,291.2)" />
<use xlink:href="#f2_2a" transform="matrix(12,0,0,12,206.3,291.2)" />
<use xlink:href="#f2_2f" transform="matrix(12,0,0,12,215.5,291.2)" />
<use xlink:href="#f2_2g" transform="matrix(12,0,0,12,222.4,291.2)" />
<use xlink:href="#f2_1x" transform="matrix(12,0,0,12,227.9,291.2)" />
<use xlink:href="#f2_2a" transform="matrix(12,0,0,12,236,291.2)" />
<use xlink:href="#f2_2g" transform="matrix(12,0,0,12,244.8,291.2)" />
<use xlink:href="#f2_1x" transform="matrix(12,0,0,12,250.3,291.2)" />
<use xlink:href="#f2_2a" transform="matrix(12,0,0,12,258.3,291.2)" />
<use xlink:href="#f2_21" transform="matrix(12,0,0,12,267.5,291.2)" />
<use xlink:href="#f2_2b" transform="matrix(12,0,0,12,275.6,291.2)" />
<use xlink:href="#f2_2h" transform="matrix(12,0,0,12,285.1,291.2)" />
<use xlink:href="#f2_2f" transform="matrix(12,0,0,12,294.3,291.2)" />
<use xlink:href="#f2_2i" transform="matrix(12,0,0,12,306,291.2)" />
<use xlink:href="#f2_1x" transform="matrix(12,0,0,12,314.8,291.2)" />
<use xlink:href="#f2_28" transform="matrix(12,0,0,12,323.2,291.2)" />
<use xlink:href="#f2_2h" transform="matrix(12,0,0,12,327.9,291.2)" />
<use xlink:href="#f2_21" transform="matrix(12,0,0,12,337.1,291.2)" />
<use xlink:href="#f2_15" transform="matrix(12,0,0,12,55,450.4)" />
<use xlink:href="#f2_x" transform="matrix(12,0,0,12,71.1,450.4)" />
<use xlink:href="#f2_15" transform="matrix(12,0,0,12,85.8,450.4)" />
<use xlink:href="#f2_k" transform="matrix(12,0,0,12,97.1,450.4)" />
<use xlink:href="#f2_2f" transform="matrix(12,0,0,12,111.1,450.4)" />
<use xlink:href="#f2_25" transform="matrix(12,0,0,12,118,450.4)" />
<use xlink:href="#f2_2a" transform="matrix(12,0,0,12,122.8,450.4)" />
<use xlink:href="#f3_2j" transform="matrix(12,0,0,12,137.2,450.4)" />
<use xlink:href="#f2_2g" transform="matrix(12,0,0,12,148.6,450.4)" />
<use xlink:href="#f2_i" transform="matrix(12,0,0,12,158.8,450.4)" />
<use xlink:href="#f2_i" transform="matrix(12,0,0,12,163.6,450.4)" />
<use xlink:href="#f2_i" transform="matrix(12,0,0,12,168.3,450.4)" />
<use xlink:href="#f2_i" transform="matrix(12,0,0,12,172.7,450.4)" />
<use xlink:href="#f2_c" transform="matrix(12,0,0,12,177.4,450.4)" />
<use xlink:href="#f2_25" transform="matrix(12,0,0,12,183.7,450.4)" />
<use xlink:href="#f2_d" transform="matrix(12,0,0,12,188.1,450.4)" />
<use xlink:href="#f2_14" transform="matrix(12,0,0,12,55,474.9)" />
<use xlink:href="#f2_2h" transform="matrix(12,0,0,12,68.3,474.9)" />
<use xlink:href="#f2_21" transform="matrix(12,0,0,12,77.4,474.9)" />
<use xlink:href="#f2_2g" transform="matrix(12,0,0,12,90.2,474.9)" />
<use xlink:href="#f2_2b" transform="matrix(12,0,0,12,95.3,474.9)" />
<use xlink:href="#f2_2g" transform="matrix(12,0,0,12,108.9,474.9)" />
<use xlink:href="#f2_24" transform="matrix(12,0,0,12,114.4,474.9)" />
<use xlink:href="#f2_25" transform="matrix(12,0,0,12,123.6,474.9)" />
<use xlink:href="#f2_2f" transform="matrix(12,0,0,12,128,474.9)" />
<use xlink:href="#f2_21" transform="matrix(12,0,0,12,139.7,474.9)" />
<use xlink:href="#f2_29" transform="matrix(12,0,0,12,148.1,474.9)" />
<use xlink:href="#f2_22" transform="matrix(12,0,0,12,162.4,474.9)" />
<use xlink:href="#f2_g" transform="matrix(12,0,0,12,167.9,474.9)" />
<use xlink:href="#f2_1z" transform="matrix(12,0,0,12,177.4,474.9)" />
<use xlink:href="#f2_24" transform="matrix(12,0,0,12,185.8,474.9)" />
<use xlink:href="#f2_1x" transform="matrix(12,0,0,12,194.6,474.9)" />
<use xlink:href="#f2_2e" transform="matrix(12,0,0,12,202.7,474.9)" />
<use xlink:href="#f2_23" transform="matrix(12,0,0,12,208.9,474.9)" />
<use xlink:href="#f2_21" transform="matrix(12,0,0,12,218.1,474.9)" />
<use xlink:href="#f2_2j" transform="matrix(12,0,0,12,230.9,474.9)" />
<use xlink:href="#f2_25" transform="matrix(12,0,0,12,244.4,474.9)" />
<use xlink:href="#f2_28" transform="matrix(12,0,0,12,249.2,474.9)" />
<use xlink:href="#f2_28" transform="matrix(12,0,0,12,254.3,474.9)" />
<use xlink:href="#f2_1y" transform="matrix(12,0,0,12,264.2,474.9)" />
<use xlink:href="#f2_21" transform="matrix(12,0,0,12,273,474.9)" />
<use xlink:href="#f2_2c" transform="matrix(12,0,0,12,285.8,474.9)" />
<use xlink:href="#f2_2e" transform="matrix(12,0,0,12,295,474.9)" />
<use xlink:href="#f2_2b" transform="matrix(12,0,0,12,301.2,474.9)" />
<use xlink:href="#f2_20" transform="matrix(12,0,0,12,310.7,474.9)" />
<use xlink:href="#f2_2h" transform="matrix(12,0,0,12,319.9,474.9)" />
<use xlink:href="#f2_1z" transform="matrix(12,0,0,12,329,474.9)" />
<use xlink:href="#f2_21" transform="matrix(12,0,0,12,337.1,474.9)" />
<use xlink:href="#f2_20" transform="matrix(12,0,0,12,345.2,474.9)" />
<use xlink:href="#f2_1x" transform="matrix(12,0,0,12,359.1,474.9)" />
<use xlink:href="#f2_2a" transform="matrix(12,0,0,12,367.2,474.9)" />
<use xlink:href="#f2_20" transform="matrix(12,0,0,12,376,474.9)" />
<use xlink:href="#f2_25" transform="matrix(12,0,0,12,389.9,474.9)" />
<use xlink:href="#f2_2g" transform="matrix(12,0,0,12,394.3,474.9)" />
<use xlink:href="#f2_2j" transform="matrix(12,0,0,12,404.5,474.9)" />
<use xlink:href="#f2_25" transform="matrix(12,0,0,12,418.1,474.9)" />
<use xlink:href="#f2_28" transform="matrix(12,0,0,12,422.8,474.9)" />
<use xlink:href="#f2_28" transform="matrix(12,0,0,12,427.9,474.9)" />
<use xlink:href="#f2_1z" transform="matrix(12,0,0,12,437.5,474.9)" />
<use xlink:href="#f2_24" transform="matrix(12,0,0,12,445.9,474.9)" />
<use xlink:href="#f2_1x" transform="matrix(12,0,0,12,454.7,474.9)" />
<use xlink:href="#f2_2e" transform="matrix(12,0,0,12,462.8,474.9)" />
<use xlink:href="#f2_23" transform="matrix(12,0,0,12,469,474.9)" />
<use xlink:href="#f2_21" transform="matrix(12,0,0,12,478.1,474.9)" />
<use xlink:href="#f2_2g" transform="matrix(12,0,0,12,491.5,474.9)" />
<use xlink:href="#f2_24" transform="matrix(12,0,0,12,497,474.9)" />
<use xlink:href="#f2_21" transform="matrix(12,0,0,12,505.8,474.9)" />
<use xlink:href="#f2_2c" transform="matrix(12,0,0,12,518.6,474.9)" />
<use xlink:href="#f2_28" transform="matrix(12,0,0,12,528.1,474.9)" />
<use xlink:href="#f2_1x" transform="matrix(12,0,0,12,532.5,474.9)" />
<use xlink:href="#f2_2g" transform="matrix(12,0,0,12,540.6,474.9)" />
<use xlink:href="#f2_21" transform="matrix(12,0,0,12,546.1,474.9)" />
<use xlink:href="#f2_2f" transform="matrix(12,0,0,12,554.1,474.9)" />
<use xlink:href="#f2_2b" transform="matrix(12,0,0,12,565.9,474.9)" />
<use xlink:href="#f2_22" transform="matrix(12,0,0,12,575.4,474.9)" />
<use xlink:href="#f2_1z" transform="matrix(12,0,0,12,585.6,474.9)" />
<use xlink:href="#f2_1x" transform="matrix(12,0,0,12,593.7,474.9)" />
<use xlink:href="#f2_2c" transform="matrix(12,0,0,12,601.8,474.9)" />
<use xlink:href="#f2_1x" transform="matrix(12,0,0,12,610.9,474.9)" />
<use xlink:href="#f2_1z" transform="matrix(12,0,0,12,619,474.9)" />
<use xlink:href="#f2_25" transform="matrix(12,0,0,12,627.4,474.9)" />
<use xlink:href="#f2_2g" transform="matrix(12,0,0,12,631.8,474.9)" />
<use xlink:href="#f2_2b" transform="matrix(12,0,0,12,637.3,474.9)" />
<use xlink:href="#f2_2e" transform="matrix(12,0,0,12,646.8,474.9)" />
<use xlink:href="#f2_2j" transform="matrix(12,0,0,12,657.8,474.9)" />
<use xlink:href="#f2_25" transform="matrix(12,0,0,12,671,474.9)" />
<use xlink:href="#f2_2g" transform="matrix(12,0,0,12,675.4,474.9)" />
<use xlink:href="#f2_24" transform="matrix(12,0,0,12,680.8,474.9)" />
<use xlink:href="#f2_2c" transform="matrix(12,0,0,12,694.4,474.9)" />
<use xlink:href="#f2_2b" transform="matrix(12,0,0,12,703.6,474.9)" />
<use xlink:href="#f2_2f" transform="matrix(12,0,0,12,713.1,474.9)" />
<use xlink:href="#f2_25" transform="matrix(12,0,0,12,720,474.9)" />
<use xlink:href="#f2_2g" transform="matrix(12,0,0,12,724.4,474.9)" />
<use xlink:href="#f2_25" transform="matrix(12,0,0,12,730.3,474.9)" />
<use xlink:href="#f2_2i" transform="matrix(12,0,0,12,735.1,474.9)" />
<use xlink:href="#f2_21" transform="matrix(12,0,0,12,743.9,474.9)" />
<use xlink:href="#f2_1x" transform="matrix(12,0,0,12,756.7,474.9)" />
<use xlink:href="#f2_2a" transform="matrix(12,0,0,12,765.1,474.9)" />
<use xlink:href="#f2_20" transform="matrix(12,0,0,12,773.9,474.9)" />
<use xlink:href="#f2_2a" transform="matrix(12,0,0,12,787.8,474.9)" />
<use xlink:href="#f2_21" transform="matrix(12,0,0,12,797,474.9)" />
<use xlink:href="#f2_23" transform="matrix(12,0,0,12,805,474.9)" />
<use xlink:href="#f2_1x" transform="matrix(12,0,0,12,814.2,474.9)" />
<use xlink:href="#f2_2g" transform="matrix(12,0,0,12,822.3,474.9)" />
<use xlink:href="#f2_25" transform="matrix(12,0,0,12,827.8,474.9)" />
<use xlink:href="#f2_2i" transform="matrix(12,0,0,12,832.5,474.9)" />
<use xlink:href="#f2_21" transform="matrix(12,0,0,12,841.3,474.9)" />
<use xlink:href="#f2_1z" transform="matrix(12,0,0,12,55,499.2)" />
<use xlink:href="#f2_24" transform="matrix(12,0,0,12,63.1,499.2)" />
<use xlink:href="#f2_1x" transform="matrix(12,0,0,12,71.9,499.2)" />
<use xlink:href="#f2_2e" transform="matrix(12,0,0,12,80,499.2)" />
<use xlink:href="#f2_23" transform="matrix(12,0,0,12,86.2,499.2)" />
<use xlink:href="#f2_21" transform="matrix(12,0,0,12,95.4,499.2)" />
<use xlink:href="#f2_i" transform="matrix(12,0,0,12,103.4,499.2)" />
<use xlink:href="#f2_19" transform="matrix(12,0,0,12,112.9,499.2)" />
<use xlink:href="#f2_22" transform="matrix(12,0,0,12,119.1,499.2)" />
<use xlink:href="#f2_2c" transform="matrix(12,0,0,12,129.4,499.2)" />
<use xlink:href="#f2_2b" transform="matrix(12,0,0,12,138.5,499.2)" />
<use xlink:href="#f2_2g" transform="matrix(12,0,0,12,148.1,499.2)" />
<use xlink:href="#f2_21" transform="matrix(12,0,0,12,153.5,499.2)" />
<use xlink:href="#f2_2a" transform="matrix(12,0,0,12,161.6,499.2)" />
<use xlink:href="#f2_2g" transform="matrix(12,0,0,12,170.4,499.2)" />
<use xlink:href="#f2_25" transform="matrix(12,0,0,12,175.9,499.2)" />
<use xlink:href="#f2_1x" transform="matrix(12,0,0,12,180.3,499.2)" />
<use xlink:href="#f2_28" transform="matrix(12,0,0,12,188.7,499.2)" />
<use xlink:href="#f2_20" transform="matrix(12,0,0,12,197.9,499.2)" />
<use xlink:href="#f2_25" transform="matrix(12,0,0,12,207.4,499.2)" />
<use xlink:href="#f2_22" transform="matrix(12,0,0,12,212.5,499.2)" />
<use xlink:href="#f2_22" transform="matrix(12,0,0,12,218.7,499.2)" />
<use xlink:href="#f2_21" transform="matrix(12,0,0,12,224.6,499.2)" />
<use xlink:href="#f2_2e" transform="matrix(12,0,0,12,232.7,499.2)" />
<use xlink:href="#f2_21" transform="matrix(12,0,0,12,238.9,499.2)" />
<use xlink:href="#f2_2a" transform="matrix(12,0,0,12,247.3,499.2)" />
<use xlink:href="#f2_1z" transform="matrix(12,0,0,12,256.1,499.2)" />
<use xlink:href="#f2_21" transform="matrix(12,0,0,12,264.1,499.2)" />
<use xlink:href="#f2_1x" transform="matrix(12,0,0,12,277,499.2)" />
<use xlink:href="#f2_1z" transform="matrix(12,0,0,12,285,499.2)" />
<use xlink:href="#f2_2e" transform="matrix(12,0,0,12,293.1,499.2)" />
<use xlink:href="#f2_2b" transform="matrix(12,0,0,12,299.3,499.2)" />
<use xlink:href="#f2_2f" transform="matrix(12,0,0,12,308.8,499.2)" />
<use xlink:href="#f2_2f" transform="matrix(12,0,0,12,315.8,499.2)" />
<use xlink:href="#f2_2g" transform="matrix(12,0,0,12,327.5,499.2)" />
<use xlink:href="#f2_24" transform="matrix(12,0,0,12,333,499.2)" />
<use xlink:href="#f2_21" transform="matrix(12,0,0,12,341.8,499.2)" />
<use xlink:href="#f2_2c" transform="matrix(12,0,0,12,354.6,499.2)" />
<use xlink:href="#f2_28" transform="matrix(12,0,0,12,363.8,499.2)" />
<use xlink:href="#f2_1x" transform="matrix(12,0,0,12,368.5,499.2)" />
<use xlink:href="#f2_2g" transform="matrix(12,0,0,12,376.6,499.2)" />
<use xlink:href="#f2_21" transform="matrix(12,0,0,12,382.1,499.2)" />
<use xlink:href="#f2_2f" transform="matrix(12,0,0,12,390.2,499.2)" />
<use xlink:href="#f2_2b" transform="matrix(12,0,0,12,401.9,499.2)" />
<use xlink:href="#f2_22" transform="matrix(12,0,0,12,411.4,499.2)" />
<use xlink:href="#f2_1z" transform="matrix(12,0,0,12,421.6,499.2)" />
<use xlink:href="#f2_1x" transform="matrix(12,0,0,12,429.7,499.2)" />
<use xlink:href="#f2_2c" transform="matrix(12,0,0,12,437.8,499.2)" />
<use xlink:href="#f2_1x" transform="matrix(12,0,0,12,446.9,499.2)" />
<use xlink:href="#f2_1z" transform="matrix(12,0,0,12,455,499.2)" />
<use xlink:href="#f2_25" transform="matrix(12,0,0,12,463.4,499.2)" />
<use xlink:href="#f2_2g" transform="matrix(12,0,0,12,467.8,499.2)" />
<use xlink:href="#f2_2b" transform="matrix(12,0,0,12,473.3,499.2)" />
<use xlink:href="#f2_2e" transform="matrix(12,0,0,12,482.8,499.2)" />
<use xlink:href="#f2_25" transform="matrix(12,0,0,12,493.4,499.2)" />
<use xlink:href="#f2_2f" transform="matrix(12,0,0,12,498.2,499.2)" />
<use xlink:href="#f2_1m" transform="matrix(12,0,0,12,509.9,499.2)" />
<use xlink:href="#f2_2g" transform="matrix(12,0,0,12,527.9,499.2)" />
<use xlink:href="#f2_24" transform="matrix(12,0,0,12,533.3,499.2)" />
<use xlink:href="#f2_21" transform="matrix(12,0,0,12,542.1,499.2)" />
<use xlink:href="#f2_2a" transform="matrix(12,0,0,12,550.2,499.2)" />
</g>
<path d="M89.3,531H104" class="g2_48" />
<g clip-path="url(#c0_48)">
<g fill="#000000" >
<use xlink:href="#f2_2b" transform="matrix(12.6,0,0,12.4,114.1,535.6)" />
<use xlink:href="#f2_2e" transform="matrix(12.6,0,0,12.4,123.3,535.6)" />
<use xlink:href="#f4_2d" transform="matrix(12.6,0,0,12.4,92.1,523.7)" />
<use xlink:href="#f4_1m" transform="matrix(12.6,0,0,12.4,56.2,535.6)" />
<use xlink:href="#f4_2d" transform="matrix(12.6,0,0,12.4,134.4,535.6)" />
<use xlink:href="#f4_13" transform="matrix(12.6,0,0,12.4,162.3,535.6)" />
<use xlink:href="#f4_1m" transform="matrix(12.6,0,0,12.4,174.6,535.6)" />
<use xlink:href="#f4_13" transform="matrix(12.6,0,0,12.4,89.9,550.4)" />
<use xlink:href="#f3_x" transform="matrix(12.6,0,0,12.4,74.5,535.6)" />
<use xlink:href="#f3_x" transform="matrix(12.6,0,0,12.4,148.3,535.6)" />
</g>
</g>
<g fill="#000000" >
<use xlink:href="#f2_1k" transform="matrix(12,0,0,12,55,574.4)" />
<use xlink:href="#f2_24" transform="matrix(12,0,0,12,66.4,574.4)" />
<use xlink:href="#f2_21" transform="matrix(12,0,0,12,75.2,574.4)" />
<use xlink:href="#f2_25" transform="matrix(12,0,0,12,88.4,574.4)" />
<use xlink:href="#f2_2a" transform="matrix(12,0,0,12,93.1,574.4)" />
<use xlink:href="#f2_2f" transform="matrix(12,0,0,12,102.3,574.4)" />
<use xlink:href="#f2_2g" transform="matrix(12,0,0,12,109.3,574.4)" />
<use xlink:href="#f2_1x" transform="matrix(12,0,0,12,114.7,574.4)" />
<use xlink:href="#f2_2a" transform="matrix(12,0,0,12,122.8,574.4)" />
<use xlink:href="#f2_2g" transform="matrix(12,0,0,12,131.6,574.4)" />
<use xlink:href="#f2_1x" transform="matrix(12,0,0,12,137.1,574.4)" />
<use xlink:href="#f2_2a" transform="matrix(12,0,0,12,145.2,574.4)" />
<use xlink:href="#f2_21" transform="matrix(12,0,0,12,154,574.4)" />
<use xlink:href="#f2_2b" transform="matrix(12,0,0,12,162,574.4)" />
<use xlink:href="#f2_2h" transform="matrix(12,0,0,12,171.5,574.4)" />
<use xlink:href="#f2_2f" transform="matrix(12,0,0,12,180.7,574.4)" />
<use xlink:href="#f2_2i" transform="matrix(12,0,0,12,192.4,574.4)" />
<use xlink:href="#f2_1x" transform="matrix(12,0,0,12,201.2,574.4)" />
<use xlink:href="#f2_28" transform="matrix(12,0,0,12,209.6,574.4)" />
<use xlink:href="#f2_2h" transform="matrix(12,0,0,12,214.4,574.4)" />
<use xlink:href="#f2_21" transform="matrix(12,0,0,12,223.6,574.4)" />
<use xlink:href="#f2_2b" transform="matrix(12,0,0,12,236.4,574.4)" />
<use xlink:href="#f2_22" transform="matrix(12,0,0,12,245.9,574.4)" />
<use xlink:href="#f2_1z" transform="matrix(12,0,0,12,256.2,574.4)" />
<use xlink:href="#f2_2h" transform="matrix(12,0,0,12,264.2,574.4)" />
<use xlink:href="#f2_2e" transform="matrix(12,0,0,12,273.4,574.4)" />
<use xlink:href="#f2_2e" transform="matrix(12,0,0,12,279.6,574.4)" />
<use xlink:href="#f2_21" transform="matrix(12,0,0,12,285.8,574.4)" />
<use xlink:href="#f2_2a" transform="matrix(12,0,0,12,293.9,574.4)" />
<use xlink:href="#f2_2g" transform="matrix(12,0,0,12,302.7,574.4)" />
<use xlink:href="#f2_25" transform="matrix(12,0,0,12,313.3,574.4)" />
<use xlink:href="#f2_2a" transform="matrix(12,0,0,12,318,574.4)" />
<use xlink:href="#f2_2g" transform="matrix(12,0,0,12,331.6,574.4)" />
<use xlink:href="#f2_24" transform="matrix(12,0,0,12,337.1,574.4)" />
<use xlink:href="#f2_21" transform="matrix(12,0,0,12,345.9,574.4)" />
<use xlink:href="#f2_1z" transform="matrix(12,0,0,12,358.7,574.4)" />
<use xlink:href="#f2_25" transform="matrix(12,0,0,12,367.1,574.4)" />
<use xlink:href="#f2_2e" transform="matrix(12,0,0,12,371.5,574.4)" />
<use xlink:href="#f2_1z" transform="matrix(12,0,0,12,377.7,574.4)" />
<use xlink:href="#f2_2h" transform="matrix(12,0,0,12,385.8,574.4)" />
<use xlink:href="#f2_25" transform="matrix(12,0,0,12,395.3,574.4)" />
<use xlink:href="#f2_2g" transform="matrix(12,0,0,12,399.7,574.4)" />
</g>
<path d="M85.8,606.3h20.6m19.9,0H176M72.7,655.7H89.9" class="g3_48" />
<g clip-path="url(#c1_48)">
<g fill="#000000" >
<use xlink:href="#f2_k" transform="matrix(7,0,0,7,121.7,665)" />
<use xlink:href="#f2_k" transform="matrix(7,0,0,7,253.1,665)" />
<use xlink:href="#f2_k" transform="matrix(7,0,0,7,95.2,702.7)" />
<use xlink:href="#f2_c" transform="matrix(12.2,0,0,12.1,138.5,599.2)" />
<use xlink:href="#f2_d" transform="matrix(12.2,0,0,12.1,169.2,599.2)" />
<use xlink:href="#f2_c" transform="matrix(12.2,0,0,12.1,191.5,610.9)" />
<use xlink:href="#f2_d" transform="matrix(12.2,0,0,12.1,256.7,610.9)" />
<use xlink:href="#f2_c" transform="matrix(12.2,0,0,12.1,92.4,660.3)" />
<use xlink:href="#f2_2f" transform="matrix(12.2,0,0,12.1,130.2,660.3)" />
<use xlink:href="#f2_25" transform="matrix(12.2,0,0,12.1,137.4,660.3)" />
<use xlink:href="#f2_2a" transform="matrix(12.2,0,0,12.1,142.5,660.3)" />
<use xlink:href="#f2_d" transform="matrix(12.2,0,0,12.1,173,660.3)" />
<use xlink:href="#f2_c" transform="matrix(12.2,0,0,12.1,188.5,660.3)" />
<use xlink:href="#f2_2f" transform="matrix(12.2,0,0,12.1,261.5,660.3)" />
<use xlink:href="#f2_25" transform="matrix(12.2,0,0,12.1,268.7,660.3)" />
<use xlink:href="#f2_2a" transform="matrix(12.2,0,0,12.1,273.9,660.3)" />
<use xlink:href="#f2_d" transform="matrix(12.2,0,0,12.1,304.7,660.3)" />
<use xlink:href="#f2_1z" transform="matrix(12.2,0,0,12.1,104,698)" />
<use xlink:href="#f2_2b" transform="matrix(12.2,0,0,12.1,112,698)" />
<use xlink:href="#f2_2f" transform="matrix(12.2,0,0,12.1,121.2,698)" />
<use xlink:href="#f4_20" transform="matrix(12.2,0,0,12.1,87,599.2)" />
<use xlink:href="#f4_2d" transform="matrix(12.2,0,0,12.1,96.1,599.2)" />
<use xlink:href="#f4_20" transform="matrix(12.2,0,0,12.1,127.4,599.2)" />
<use xlink:href="#f4_13" transform="matrix(12.2,0,0,12.1,144.5,599.2)" />
<use xlink:href="#f4_15" transform="matrix(12.2,0,0,12.1,156.9,599.2)" />
<use xlink:href="#f4_19" transform="matrix(12.2,0,0,12.1,58.5,610.9)" />
<use xlink:href="#f4_1m" transform="matrix(12.2,0,0,12.1,211.1,610.9)" />
<use xlink:href="#f4_15" transform="matrix(12.2,0,0,12.1,244.4,610.9)" />
<use xlink:href="#f4_20" transform="matrix(12.2,0,0,12.1,88.7,625.3)" />
<use xlink:href="#f4_2g" transform="matrix(12.2,0,0,12.1,97.8,625.3)" />
<use xlink:href="#f4_20" transform="matrix(12.2,0,0,12.1,143.7,625.3)" />
<use xlink:href="#f4_2g" transform="matrix(12.2,0,0,12.1,152.9,625.3)" />
<use xlink:href="#f4_20" transform="matrix(12.2,0,0,12.1,76,648.6)" />
<use xlink:href="#f4_13" transform="matrix(12.2,0,0,12.1,98.4,660.3)" />
<use xlink:href="#f4_15" transform="matrix(12.2,0,0,12.1,110.7,660.3)" />
<use xlink:href="#f4_2g" transform="matrix(12.2,0,0,12.1,166.7,660.3)" />
<use xlink:href="#f4_15" transform="matrix(12.2,0,0,12.1,210.5,660.3)" />
<use xlink:href="#f4_15" transform="matrix(12.2,0,0,12.1,242.1,660.3)" />
<use xlink:href="#f4_2j" transform="matrix(12.2,0,0,12.1,286,660.3)" />
<use xlink:href="#f4_2g" transform="matrix(12.2,0,0,12.1,298.4,660.3)" />
<use xlink:href="#f4_20" transform="matrix(12.2,0,0,12.1,73.9,674.7)" />
<use xlink:href="#f4_2g" transform="matrix(12.2,0,0,12.1,83,674.7)" />
<use xlink:href="#f4_13" transform="matrix(12.2,0,0,12.1,71.9,698)" />
<use xlink:href="#f4_15" transform="matrix(12.2,0,0,12.1,84.2,698)" />
<use xlink:href="#f4_2g" transform="matrix(12.2,0,0,12.1,142.8,698)" />
<use xlink:href="#f3_x" transform="matrix(12.2,0,0,12.1,71,610.9)" />
<use xlink:href="#f3_x" transform="matrix(12.2,0,0,12.1,111.5,610.9)" />
<use xlink:href="#f3_x" transform="matrix(12.2,0,0,12.1,229.4,610.9)" />
<use xlink:href="#f3_x" transform="matrix(12.2,0,0,12.1,58,660.3)" />
<use xlink:href="#f3_2j" transform="matrix(12.2,0,0,12.1,154.2,660.3)" />
<use xlink:href="#f3_1s" transform="matrix(12.2,0,0,12.1,192.3,660.3)" />
<use xlink:href="#f3_x" transform="matrix(12.2,0,0,12.1,227,660.3)" />
<use xlink:href="#f3_x" transform="matrix(12.2,0,0,12.1,58,698)" />
<use xlink:href="#f3_2j" transform="matrix(12.2,0,0,12.1,130.2,698)" />
<use xlink:href="#f3_3a" transform="matrix(12.2,0,0,12.1,151.4,698)" />
<use xlink:href="#f3_2j" transform="matrix(12.2,0,0,12.1,164.2,698)" />
</g>
</g>
<image preserveAspectRatio="none" x="195" y="590" width="73" height="32" xlink:href="img/6.png" />
<path d="M72.8,735.9h39.7M86,789.7h30.4" class="g4_48" />
<g clip-path="url(#c2_48)">
<g fill="#000000" >
<use xlink:href="#f2_k" transform="matrix(7,0,0,7,95.1,733.4)" />
<use xlink:href="#f2_k" transform="matrix(7,0,0,7,103.7,787.3)" />
<use xlink:href="#f2_1z" transform="matrix(12.1,0,0,12.1,114.9,740.4)" />
<use xlink:href="#f2_2b" transform="matrix(12.1,0,0,12.1,123,740.4)" />
<use xlink:href="#f2_2f" transform="matrix(12.1,0,0,12.1,132.2,740.4)" />
<use xlink:href="#f2_1r" transform="matrix(12.1,0,0,12.1,163,740.4)" />
<use xlink:href="#f2_1z" transform="matrix(12.1,0,0,12.1,184.2,740.4)" />
<use xlink:href="#f2_2b" transform="matrix(12.1,0,0,12.1,192.2,740.4)" />
<use xlink:href="#f2_2f" transform="matrix(12.1,0,0,12.1,201.4,740.4)" />
<use xlink:href="#f2_2f" transform="matrix(12.1,0,0,12.1,247.7,740.4)" />
<use xlink:href="#f2_25" transform="matrix(12.1,0,0,12.1,254.9,740.4)" />
<use xlink:href="#f2_2a" transform="matrix(12.1,0,0,12.1,260.1,740.4)" />
<use xlink:href="#f2_c" transform="matrix(12.1,0,0,12.1,269.3,740.4)" />
<use xlink:href="#f2_j" transform="matrix(12.1,0,0,12.1,285.1,740.4)" />
<use xlink:href="#f2_m" transform="matrix(12.1,0,0,12.1,290,740.4)" />
<use xlink:href="#f2_d" transform="matrix(12.1,0,0,12.1,335.4,740.4)" />
<use xlink:href="#f2_1t" transform="matrix(12.1,0,0,12.1,341.4,740.4)" />
<use xlink:href="#f2_l" transform="matrix(12.1,0,0,12.1,71.9,754.8)" />
<use xlink:href="#f2_j" transform="matrix(12.1,0,0,12.1,83.4,754.8)" />
<use xlink:href="#f2_2f" transform="matrix(12.1,0,0,12.1,118.6,794.3)" />
<use xlink:href="#f2_25" transform="matrix(12.1,0,0,12.1,125.8,794.3)" />
<use xlink:href="#f2_2a" transform="matrix(12.1,0,0,12.1,131,794.3)" />
<use xlink:href="#f2_c" transform="matrix(12.1,0,0,12.1,140.2,794.3)" />
<use xlink:href="#f2_j" transform="matrix(12.1,0,0,12.1,192.2,794.3)" />
<use xlink:href="#f2_m" transform="matrix(12.1,0,0,12.1,197.1,794.3)" />
<use xlink:href="#f2_d" transform="matrix(12.1,0,0,12.1,206.3,794.3)" />
<use xlink:href="#f2_i" transform="matrix(12.1,0,0,12.1,221.1,794.3)" />
<use xlink:href="#f2_i" transform="matrix(12.1,0,0,12.1,225.7,794.3)" />
<use xlink:href="#f2_i" transform="matrix(12.1,0,0,12.1,230.2,794.3)" />
<use xlink:href="#f2_i" transform="matrix(12.1,0,0,12.1,234.9,794.3)" />
<use xlink:href="#f2_i" transform="matrix(12.1,0,0,12.1,239.4,794.3)" />
<use xlink:href="#f2_c" transform="matrix(12.1,0,0,12.1,244,794.3)" />
<use xlink:href="#f2_25" transform="matrix(12.1,0,0,12.1,250,794.3)" />
<use xlink:href="#f2_25" transform="matrix(12.1,0,0,12.1,255.2,794.3)" />
<use xlink:href="#f2_d" transform="matrix(12.1,0,0,12.1,260.7,794.3)" />
<use xlink:href="#f2_l" transform="matrix(12.1,0,0,12.1,85.1,808.7)" />
<use xlink:href="#f2_j" transform="matrix(12.1,0,0,12.1,92,808.7)" />
<use xlink:href="#f4_1z" transform="matrix(7,0,0,7,105,759.5)" />
<use xlink:href="#f4_1z" transform="matrix(7,0,0,7,108.9,813.4)" />
<use xlink:href="#f4_15" transform="matrix(12.1,0,0,12.1,84.1,728.8)" />
<use xlink:href="#f4_2g" transform="matrix(12.1,0,0,12.1,153.9,740.4)" />
<use xlink:href="#f4_2g" transform="matrix(12.1,0,0,12.1,223.2,740.4)" />
<use xlink:href="#f4_2g" transform="matrix(12.1,0,0,12.1,329.1,740.4)" />
<use xlink:href="#f4_15" transform="matrix(12.1,0,0,12.1,92.6,782.6)" />
<use xlink:href="#f4_19" transform="matrix(12.1,0,0,12.1,58.5,794.3)" />
<use xlink:href="#f4_2g" transform="matrix(12.1,0,0,12.1,159.1,794.3)" />
<use xlink:href="#f3_x" transform="matrix(12.1,0,0,12.1,58,740.4)" />
<use xlink:href="#f3_2j" transform="matrix(12.1,0,0,12.1,141.2,740.4)" />
<use xlink:href="#f3_1s" transform="matrix(12.1,0,0,12.1,166.7,740.4)" />
<use xlink:href="#f3_2j" transform="matrix(12.1,0,0,12.1,210.5,740.4)" />
<use xlink:href="#f3_x" transform="matrix(12.1,0,0,12.1,233.7,740.4)" />
<use xlink:href="#f3_2c" transform="matrix(12.1,0,0,12.1,275.8,740.4)" />
<use xlink:href="#f3_f" transform="matrix(12.1,0,0,12.1,302.5,740.4)" />
<use xlink:href="#f3_2j" transform="matrix(12.1,0,0,12.1,316.3,740.4)" />
<use xlink:href="#f3_2j" transform="matrix(12.1,0,0,12.1,92.7,754.8)" />
<use xlink:href="#f3_x" transform="matrix(12.1,0,0,12.1,71.1,794.3)" />
<use xlink:href="#f3_2j" transform="matrix(12.1,0,0,12.1,146.5,794.3)" />
<use xlink:href="#f3_f" transform="matrix(12.1,0,0,12.1,168.9,794.3)" />
<use xlink:href="#f3_2c" transform="matrix(12.1,0,0,12.1,183,794.3)" />
<use xlink:href="#f3_2j" transform="matrix(12.1,0,0,12.1,96.6,808.7)" />
</g>
</g>
<g fill="#000000" >
<use xlink:href="#f2_19" transform="matrix(12,0,0,12,55,839.1)" />
<use xlink:href="#f2_2j" transform="matrix(12,0,0,12,66,839.1)" />
<use xlink:href="#f2_25" transform="matrix(12,0,0,12,79.2,839.1)" />
<use xlink:href="#f2_28" transform="matrix(12,0,0,12,84,839.1)" />
<use xlink:href="#f2_28" transform="matrix(12,0,0,12,89.1,839.1)" />
<use xlink:href="#f2_1y" transform="matrix(12,0,0,12,98.6,839.1)" />
<use xlink:href="#f2_21" transform="matrix(12,0,0,12,107.8,839.1)" />
<use xlink:href="#f2_29" transform="matrix(12,0,0,12,121,839.1)" />
<use xlink:href="#f2_1x" transform="matrix(12,0,0,12,134.5,839.1)" />
<use xlink:href="#f2_2k" transform="matrix(12,0,0,12,142.9,839.1)" />
<use xlink:href="#f2_25" transform="matrix(12,0,0,12,152.1,839.1)" />
<use xlink:href="#f2_29" transform="matrix(12,0,0,12,157.2,839.1)" />
<use xlink:href="#f2_2h" transform="matrix(12,0,0,12,171.2,839.1)" />
<use xlink:href="#f2_29" transform="matrix(12,0,0,12,180.7,839.1)" />
<use xlink:href="#f2_2j" transform="matrix(12,0,0,12,199,839.1)" />
<use xlink:href="#f2_24" transform="matrix(12,0,0,12,212.6,839.1)" />
<use xlink:href="#f2_21" transform="matrix(12,0,0,12,221.7,839.1)" />
<use xlink:href="#f2_2a" transform="matrix(12,0,0,12,230.1,839.1)" />
<use xlink:href="#f2_2f" transform="matrix(12,0,0,12,243.7,839.1)" />
<use xlink:href="#f2_25" transform="matrix(12,0,0,12,251,839.1)" />
<use xlink:href="#f2_2a" transform="matrix(12,0,0,12,255.8,839.1)" />
<use xlink:href="#f2_c" transform="matrix(12,0,0,12,264.6,839.1)" />
<use xlink:href="#f3_2j" transform="matrix(12,0,0,12,271.8,839.1)" />
<use xlink:href="#f2_2g" transform="matrix(12,0,0,12,283.2,839.1)" />
<use xlink:href="#f2_f" transform="matrix(12,0,0,12,293.4,839.1)" />
<use xlink:href="#f3_2c" transform="matrix(12,0,0,12,308.5,839.1)" />
<use xlink:href="#f2_j" transform="matrix(12,0,0,12,318.7,839.1)" />
<use xlink:href="#f2_m" transform="matrix(12,0,0,12,323.8,839.1)" />
<use xlink:href="#f2_d" transform="matrix(12,0,0,12,333,839.1)" />
<use xlink:href="#f2_x" transform="matrix(12,0,0,12,344,839.1)" />
<use xlink:href="#f2_l" transform="matrix(12,0,0,12,359,839.1)" />
<use xlink:href="#f2_2f" transform="matrix(12,0,0,12,372.6,839.1)" />
<use xlink:href="#f2_2b" transform="matrix(12,0,0,12,379.5,839.1)" />
<use xlink:href="#f2_2g" transform="matrix(12,0,0,12,393.1,839.1)" />
<use xlink:href="#f2_24" transform="matrix(12,0,0,12,398.6,839.1)" />
<use xlink:href="#f2_1x" transform="matrix(12,0,0,12,407.4,839.1)" />
<use xlink:href="#f2_2g" transform="matrix(12,0,0,12,415.4,839.1)" />
<use xlink:href="#f2_19" transform="matrix(12,0,0,12,425.3,839.1)" />
<use xlink:href="#f2_x" transform="matrix(12,0,0,12,436.3,839.1)" />
<use xlink:href="#f2_19" transform="matrix(12,0,0,12,451,839.1)" />
<use xlink:href="#f2_k" transform="matrix(7.9,0,0,7.9,457.4,840.6)" />
<use xlink:href="#f2_2j" transform="matrix(12,0,0,12,55,863.7)" />
<use xlink:href="#f2_24" transform="matrix(12,0,0,12,68.3,863.7)" />
<use xlink:href="#f2_21" transform="matrix(12,0,0,12,77,863.7)" />
<use xlink:href="#f2_2e" transform="matrix(12,0,0,12,85.1,863.7)" />
<use xlink:href="#f2_21" transform="matrix(12,0,0,12,91.3,863.7)" />
<use xlink:href="#f2_g" transform="matrix(12,0,0,12,99.4,863.7)" />
<use xlink:href="#f2_2c" transform="matrix(12,0,0,12,108.9,863.7)" />
<use xlink:href="#f2_21" transform="matrix(12,0,0,12,118,863.7)" />
<use xlink:href="#f2_1x" transform="matrix(12,0,0,12,126.1,863.7)" />
<use xlink:href="#f2_27" transform="matrix(12,0,0,12,134.2,863.7)" />
<use xlink:href="#f2_2i" transform="matrix(12,0,0,12,148.1,863.7)" />
<use xlink:href="#f2_1x" transform="matrix(12,0,0,12,156.9,863.7)" />
<use xlink:href="#f2_28" transform="matrix(12,0,0,12,165.3,863.7)" />
<use xlink:href="#f2_2h" transform="matrix(12,0,0,12,170.1,863.7)" />
<use xlink:href="#f2_21" transform="matrix(12,0,0,12,179.2,863.7)" />
<use xlink:href="#f2_2b" transform="matrix(12,0,0,12,192.1,863.7)" />
<use xlink:href="#f2_22" transform="matrix(12,0,0,12,201.6,863.7)" />
<use xlink:href="#f2_1z" transform="matrix(12,0,0,12,211.8,863.7)" />
<use xlink:href="#f2_2h" transform="matrix(12,0,0,12,219.9,863.7)" />
<use xlink:href="#f2_2e" transform="matrix(12,0,0,12,229.1,863.7)" />
<use xlink:href="#f2_2e" transform="matrix(12,0,0,12,235.3,863.7)" />
<use xlink:href="#f2_21" transform="matrix(12,0,0,12,241.5,863.7)" />
<use xlink:href="#f2_2a" transform="matrix(12,0,0,12,249.9,863.7)" />
<use xlink:href="#f2_2g" transform="matrix(12,0,0,12,258.7,863.7)" />
<use xlink:href="#f2_19" transform="matrix(12,0,0,12,268.9,863.7)" />
<use xlink:href="#f2_k" transform="matrix(7.9,0,0,7.9,275.1,865.2)" />
<use xlink:href="#f2_19" transform="matrix(12,0,0,12,55,889.1)" />
<use xlink:href="#f2_x" transform="matrix(12,0,0,12,66,889.1)" />
<use xlink:href="#f2_19" transform="matrix(12,0,0,12,80.7,889.1)" />
<use xlink:href="#f2_2f" transform="matrix(12,0,0,12,91.6,889.1)" />
<use xlink:href="#f2_25" transform="matrix(12,0,0,12,98.6,889.1)" />
<use xlink:href="#f2_2a" transform="matrix(12,0,0,12,103.4,889.1)" />
<use xlink:href="#f2_c" transform="matrix(12,0,0,12,116.9,889.1)" />
<use xlink:href="#f3_2j" transform="matrix(12,0,0,12,124,889.1)" />
<use xlink:href="#f2_2g" transform="matrix(12,0,0,12,135.3,889.1)" />
<use xlink:href="#f2_f" transform="matrix(12,0,0,12,145.6,889.1)" />
<use xlink:href="#f3_2c" transform="matrix(12,0,0,12,160.7,889.1)" />
<use xlink:href="#f2_j" transform="matrix(12,0,0,12,170.9,889.1)" />
<use xlink:href="#f2_m" transform="matrix(12,0,0,12,176,889.1)" />
<use xlink:href="#f2_d" transform="matrix(12,0,0,12,185.2,889.1)" />
<use xlink:href="#f2_i" transform="matrix(12,0,0,12,195.9,889.1)" />
<use xlink:href="#f2_i" transform="matrix(12,0,0,12,200.3,889.1)" />
<use xlink:href="#f2_i" transform="matrix(12,0,0,12,205,889.1)" />
<use xlink:href="#f2_i" transform="matrix(12,0,0,12,209.4,889.1)" />
<use xlink:href="#f2_c" transform="matrix(12,0,0,12,214.2,889.1)" />
<use xlink:href="#f2_25" transform="matrix(12,0,0,12,220.4,889.1)" />
<use xlink:href="#f2_25" transform="matrix(12,0,0,12,225.1,889.1)" />
<use xlink:href="#f2_25" transform="matrix(12,0,0,12,230.2,889.1)" />
<use xlink:href="#f2_d" transform="matrix(12,0,0,12,234.7,889.1)" />
<use xlink:href="#f2_22" transform="matrix(12,0,0,12,55,915.1)" />
<use xlink:href="#f2_2e" transform="matrix(12,0,0,12,60.5,915.1)" />
<use xlink:href="#f2_2b" transform="matrix(12,0,0,12,66.8,915.1)" />
<use xlink:href="#f2_29" transform="matrix(12,0,0,12,76.6,915.1)" />
<use xlink:href="#f2_c" transform="matrix(12,0,0,12,94.9,915.1)" />
<use xlink:href="#f2_25" transform="matrix(12,0,0,12,101.5,915.1)" />
<use xlink:href="#f2_d" transform="matrix(12,0,0,12,105.9,915.1)" />
<use xlink:href="#f2_a" transform="matrix(12,0,0,12,116.9,915.1)" />
<use xlink:href="#f2_c" transform="matrix(12,0,0,12,135.6,915.1)" />
<use xlink:href="#f2_25" transform="matrix(12,0,0,12,142.2,915.1)" />
<use xlink:href="#f2_25" transform="matrix(12,0,0,12,146.9,915.1)" />
<use xlink:href="#f2_25" transform="matrix(12,0,0,12,152,915.1)" />
<use xlink:href="#f2_d" transform="matrix(12,0,0,12,156.8,915.1)" />
<use xlink:href="#f2_25" transform="matrix(12,0,0,12,168.2,915.1)" />
<use xlink:href="#f2_2g" transform="matrix(12,0,0,12,172.6,915.1)" />
<use xlink:href="#f2_25" transform="matrix(12,0,0,12,182.8,915.1)" />
<use xlink:href="#f2_2f" transform="matrix(12,0,0,12,187.5,915.1)" />
<use xlink:href="#f2_1z" transform="matrix(12,0,0,12,199.3,915.1)" />
<use xlink:href="#f2_28" transform="matrix(12,0,0,12,207.7,915.1)" />
<use xlink:href="#f2_21" transform="matrix(12,0,0,12,212.4,915.1)" />
<use xlink:href="#f2_1x" transform="matrix(12,0,0,12,220.5,915.1)" />
<use xlink:href="#f2_2e" transform="matrix(12,0,0,12,228.6,915.1)" />
<use xlink:href="#f2_1z" transform="matrix(12,0,0,12,239.5,915.1)" />
<use xlink:href="#f2_2h" transform="matrix(12,0,0,12,247.6,915.1)" />
<use xlink:href="#f2_2e" transform="matrix(12,0,0,12,256.8,915.1)" />
<use xlink:href="#f2_2e" transform="matrix(12,0,0,12,263,915.1)" />
<use xlink:href="#f2_21" transform="matrix(12,0,0,12,269.2,915.1)" />
<use xlink:href="#f2_2a" transform="matrix(12,0,0,12,277.3,915.1)" />
<use xlink:href="#f2_2g" transform="matrix(12,0,0,12,286.1,915.1)" />
<use xlink:href="#f2_28" transform="matrix(12,0,0,12,296.3,915.1)" />
<use xlink:href="#f2_21" transform="matrix(12,0,0,12,300.7,915.1)" />
<use xlink:href="#f2_1x" transform="matrix(12,0,0,12,308.8,915.1)" />
<use xlink:href="#f2_20" transform="matrix(12,0,0,12,316.8,915.1)" />
<use xlink:href="#f2_2f" transform="matrix(12,0,0,12,326.4,915.1)" />
<use xlink:href="#f2_2g" transform="matrix(12,0,0,12,338.1,915.1)" />
<use xlink:href="#f2_24" transform="matrix(12,0,0,12,343.5,915.1)" />
<use xlink:href="#f2_21" transform="matrix(12,0,0,12,352.3,915.1)" />
<use xlink:href="#f2_2i" transform="matrix(12,0,0,12,365.2,915.1)" />
<use xlink:href="#f2_2b" transform="matrix(12,0,0,12,374,915.1)" />
<use xlink:href="#f2_28" transform="matrix(12,0,0,12,383.8,915.1)" />
<use xlink:href="#f2_2g" transform="matrix(12,0,0,12,388.2,915.1)" />
<use xlink:href="#f2_1x" transform="matrix(12,0,0,12,393.7,915.1)" />
<use xlink:href="#f2_23" transform="matrix(12,0,0,12,401.8,915.1)" />
<use xlink:href="#f2_21" transform="matrix(12,0,0,12,411,915.1)" />
<use xlink:href="#f2_1y" transform="matrix(12,0,0,12,423.4,915.1)" />
<use xlink:href="#f2_2l" transform="matrix(12,0,0,12,432.6,915.1)" />
<use xlink:href="#f2_1x" transform="matrix(12,0,0,12,446.1,915.1)" />
<use xlink:href="#f2_2c" transform="matrix(12,0,0,12,459,915.1)" />
<use xlink:href="#f2_24" transform="matrix(12,0,0,12,468.1,915.1)" />
<use xlink:href="#f2_1x" transform="matrix(12,0,0,12,476.9,915.1)" />
<use xlink:href="#f2_2f" transform="matrix(12,0,0,12,485.3,915.1)" />
<use xlink:href="#f2_21" transform="matrix(12,0,0,12,492.3,915.1)" />
<use xlink:href="#f2_1x" transform="matrix(12,0,0,12,505.1,915.1)" />
<use xlink:href="#f2_2a" transform="matrix(12,0,0,12,513.5,915.1)" />
<use xlink:href="#f2_23" transform="matrix(12,0,0,12,522.3,915.1)" />
<use xlink:href="#f2_28" transform="matrix(12,0,0,12,531.8,915.1)" />
<use xlink:href="#f2_21" transform="matrix(12,0,0,12,536.6,915.1)" />
<use xlink:href="#f2_2b" transform="matrix(12,0,0,12,549.4,915.1)" />
<use xlink:href="#f2_22" transform="matrix(12,0,0,12,558.9,915.1)" />
<use xlink:href="#f3_2c" transform="matrix(12,0,0,12,570,915.1)" />
<use xlink:href="#f2_j" transform="matrix(12,0,0,12,580.3,915.1)" />
<use xlink:href="#f2_m" transform="matrix(12,0,0,12,585.4,915.1)" />
<use xlink:href="#f2_c" transform="matrix(12,0,0,12,599.3,915.1)" />
<use xlink:href="#f2_1x" transform="matrix(12,0,0,12,605.5,915.1)" />
<use xlink:href="#f2_k" transform="matrix(7.9,0,0,7.9,613.6,916.6)" />
<use xlink:href="#f2_d" transform="matrix(12,0,0,12,619.5,915.1)" />
<use xlink:href="#f5_1f" transform="matrix(12,0,0,12,440.9,1107.6)" />
<use xlink:href="#f5_1i" transform="matrix(12,0,0,12,455.2,1107.6)" />
<use xlink:href="#f2_c" transform="matrix(12,0,0,12,55,1131.8)" />
<use xlink:href="#f2_1x" transform="matrix(12,0,0,12,61.3,1131.8)" />
<use xlink:href="#f2_d" transform="matrix(12,0,0,12,69.3,1131.8)" />
<use xlink:href="#f2_11" transform="matrix(12,0,0,12,80.3,1131.8)" />
<use xlink:href="#f2_13" transform="matrix(12,0,0,12,93.1,1131.8)" />
<use xlink:href="#f2_23" transform="matrix(12,0,0,12,110,1131.8)" />
<use xlink:href="#f2_21" transform="matrix(12,0,0,12,119.1,1131.8)" />
<use xlink:href="#f2_2a" transform="matrix(12,0,0,12,127.2,1131.8)" />
<use xlink:href="#f2_21" transform="matrix(12,0,0,12,136,1131.8)" />
<use xlink:href="#f2_2e" transform="matrix(12,0,0,12,144.1,1131.8)" />
<use xlink:href="#f2_1x" transform="matrix(12,0,0,12,150.3,1131.8)" />
<use xlink:href="#f2_2g" transform="matrix(12,0,0,12,158.3,1131.8)" />
<use xlink:href="#f2_2b" transform="matrix(12,0,0,12,163.8,1131.8)" />
<use xlink:href="#f2_2e" transform="matrix(12,0,0,12,173.3,1131.8)" />
<use xlink:href="#f2_u" transform="matrix(12,0,0,12,184,1131.8)" />
<use xlink:href="#f2_h" transform="matrix(12,0,0,12,189.3,1131.8)" />
</g>
<image preserveAspectRatio="none" x="386" y="127" width="136" height="106" xlink:href="img/7.png" />
<image preserveAspectRatio="none" x="380" y="298" width="148" height="131" xlink:href="img/8.png" />
<image preserveAspectRatio="none" x="278" y="922" width="352" height="164" xlink:href="img/9.png" />
<path fill-rule="evenodd" d="M37.4,38.1h.7v-.7h-.7v.7Z" class="g5_48" />
<path fill-rule="evenodd" d="M37.4,38.1h.7v-.7h-.7v.7Z" class="g5_48" />
<path fill-rule="evenodd" d="M38.1,38.1H871.5v-.7H38.1v.7Z" class="g5_48" />
<path fill-rule="evenodd" d="M871.5,38.1h.8v-.7h-.8v.7Z" class="g5_48" />
<path fill-rule="evenodd" d="M871.5,38.1h.8v-.7h-.8v.7Z" class="g5_48" />
<path fill-rule="evenodd" d="M37.4,1248.5h.7V38.1h-.7V1248.5Z" class="g5_48" />
<path fill-rule="evenodd" d="M872.3,1248.5h.7V38.1h-.7V1248.5Z" class="g5_48" />
<path fill-rule="evenodd" d="M871.5,1248.5h.8V38.1h-.8V1248.5Z" class="g5_48" />
<path fill-rule="evenodd" d="M37.4,1249.2h.7v-.7h-.7v.7Z" class="g5_48" />
<path fill-rule="evenodd" d="M37.4,1249.2h.7v-.7h-.7v.7Z" class="g5_48" />
<path fill-rule="evenodd" d="M38.1,1249.9H871.5v-.7H38.1v.7Z" class="g5_48" />
<path fill-rule="evenodd" d="M38.1,1249.2H871.5v-.7H38.1v.7Z" class="g5_48" />
<path fill-rule="evenodd" d="M872.3,1249.9h.7v-1.4h-.7v1.4Z" class="g5_48" />
<path fill-rule="evenodd" d="M871.5,1249.9H873v-.7h-1.5v.7Z" class="g5_48" />
<path fill-rule="evenodd" d="M871.5,1249.2h.8v-.7h-.8v.7Z" class="g5_48" />
<path fill-rule="evenodd" d="M871.5,1249.2h.8v-.7h-.8v.7Z" class="g5_48" />
<defs>
<path d="M489,-15c0,0,-99,0,-179,30c0,0,-80,30,-136,91c0,0,-56,61,-85,152c0,0,-30,91,-30,212c0,0,0,123,32,218c0,0,33,96,92,161c0,0,59,65,142,98c0,0,82,34,181,34c0,0,40,0,78,-7c0,0,37,-7,69,-18c0,0,31,-11,57,-25c0,0,25,-14,35,-24c0,0,10,-10,14,-17c0,0,4,-7,6,-17c0,0,2,-11,3,-25c0,0,2,-14,2,-35c0,0,0,-22,-2,-38c0,0,-1,-15,-5,-25c0,0,-4,-10,-9,-14c0,0,-5,-5,-12,-5c0,0,-11,0,-28,13c0,0,-18,13,-45,29c0,0,-27,16,-65,29c0,0,-37,13,-89,13c0,0,-58,0,-103,-23c0,0,-45,-23,-77,-67c0,0,-31,-44,-48,-106c0,0,-16,-61,-16,-139c0,0,0,-85,17,-147c0,0,18,-62,50,-103c0,0,33,-40,79,-60c0,0,45,-19,103,-19c0,0,52,0,90,12c0,0,38,12,65,27c0,0,27,15,45,27c0,0,17,12,27,12c0,0,8,0,12,-3c0,0,4,-3,7,-12c0,0,3,-9,5,-25c0,0,1,-16,1,-43c0,0,0,-18,-1,-31c0,0,-1,-14,-3,-23c0,0,-2,-9,-6,-16c0,0,-4,-7,-12,-15c0,0,-8,-9,-32,-22c0,0,-23,-14,-57,-26C661,13,627,1,583,-6c0,0,-43,-9,-94,-9Z" 
id="f0_j"
transform="scale(0.001,-0.001)" />

<path d="M440,150c0,0,41,0,68,8c0,0,28,9,49,26c0,0,20,16,32,41c0,0,11,25,11,58c0,0,0,33,-11,60c0,0,-11,26,-33,44c0,0,-21,18,-55,28c0,0,-33,9,-87,9H298V150ZM407,567c0,0,42,0,68,10c0,0,25,10,42,28c0,0,16,17,24,41c0,0,9,24,9,50c0,0,0,29,-9,52c0,0,-9,23,-27,39c0,0,-18,15,-45,23c0,0,-27,8,-72,8H298V567ZM164,0c0,0,-25,0,-42,15c0,0,-16,14,-16,47V903c0,0,0,33,16,48c0,0,17,14,42,14H406c0,0,88,0,150,-15c0,0,61,-15,103,-45c0,0,42,-30,65,-77c0,0,22,-46,22,-108c0,0,0,-36,-9,-67c0,0,-9,-31,-26,-56c0,0,-17,-25,-42,-45c0,0,-25,-19,-57,-31c0,0,41,-7,76,-26c0,0,34,-19,60,-48c0,0,26,-30,41,-69c0,0,15,-40,15,-89c0,0,0,-51,-14,-93c0,0,-15,-42,-40,-74c0,0,-25,-32,-59,-55c0,0,-35,-23,-77,-38C614,29,573,14,525,7C525,7,478,0,420,0Z" 
id="f0_i"
transform="scale(0.001,-0.001)" />

<path d="M320,-17c0,0,-50,0,-93,9c0,0,-43,8,-76,19c0,0,-32,11,-54,24C97,35,75,48,65,58c0,0,-10,9,-14,28c0,0,-4,18,-4,52c0,0,0,23,1,39c0,0,2,15,5,25c0,0,4,10,9,14c0,0,6,4,13,4c0,0,11,0,30,-12c0,0,19,-13,49,-28c0,0,30,-15,71,-27c0,0,42,-12,96,-12c0,0,36,0,64,8c0,0,29,9,49,25c0,0,19,15,30,38c0,0,10,23,10,52c0,0,0,33,-18,56c0,0,-18,24,-46,42c0,0,-29,18,-66,34c0,0,-36,16,-75,34c0,0,-39,18,-76,41c0,0,-36,23,-65,54c0,0,-29,32,-47,75c0,0,-17,44,-17,104c0,0,0,70,25,122c0,0,26,53,70,88c0,0,43,34,103,51c0,0,59,18,125,18c0,0,35,0,69,-6c0,0,34,-5,64,-14c0,0,30,-9,53,-20c0,0,23,-11,31,-18c0,0,7,-8,10,-13c0,0,3,-5,4,-14c0,0,2,-8,3,-21c0,0,1,-13,1,-33c0,0,0,-21,-1,-36c0,0,-1,-15,-4,-25c0,0,-3,-9,-7,-14c0,0,-5,-4,-14,-4c0,0,-8,0,-26,10c0,0,-18,10,-44,23c0,0,-26,12,-60,22c0,0,-34,10,-75,10c0,0,-32,0,-56,-8c0,0,-24,-8,-40,-21c0,0,-16,-14,-24,-34c0,0,-8,-19,-8,-41c0,0,0,-32,18,-56c0,0,17,-23,46,-42c0,0,30,-18,67,-34c0,0,38,-16,76,-34c0,0,39,-18,76,-41c0,0,38,-22,67,-54c0,0,29,-32,47,-75c0,0,18,-43,18,-101c0,0,0,-76,-29,-133c0,0,-28,-58,-77,-96C572,60,524,21,459,2c0,0,-65,-19,-139,-19Z" 
id="f0_2n"
transform="scale(0.001,-0.001)" />

<path d="M164,0c0,0,-25,0,-42,15c0,0,-16,14,-16,47V903c0,0,0,33,16,48c0,0,17,14,42,14H645c0,0,7,0,12,-4c0,0,5,-3,9,-13c0,0,4,-9,6,-24c0,0,2,-14,2,-36c0,0,0,-21,-2,-36c0,0,-2,-14,-6,-23c0,0,-4,-9,-9,-13c0,0,-5,-4,-12,-4H301V576H593c0,0,6,0,12,-4c0,0,6,-4,9,-13c0,0,4,-8,6,-23c0,0,2,-14,2,-35c0,0,0,-22,-2,-36c0,0,-2,-14,-6,-23c0,0,-3,-8,-9,-12c0,0,-6,-4,-12,-4H301V154H649c0,0,6,0,12,-5c0,0,5,-4,9,-13c0,0,4,-9,6,-23c0,0,2,-15,2,-36c0,0,0,-22,-2,-36c0,0,-2,-15,-6,-24c0,0,-4,-9,-9,-13c0,0,-6,-4,-12,-4Z" 
id="f0_t"
transform="scale(0.001,-0.001)" />

<path d="M79,297c0,0,-19,0,-27,18c0,0,-8,17,-8,60c0,0,0,41,8,59c0,0,8,17,27,17H389c0,0,9,0,15,-4c0,0,7,-4,11,-13c0,0,5,-9,7,-23c0,0,1,-15,1,-36c0,0,0,-43,-8,-61c0,0,-8,-17,-26,-17Z" 
id="f0_oj"
transform="scale(0.001,-0.001)" />

<path d="M121,-4c0,0,-39,0,-60,2C61,-2,39,0,32,8c0,0,-8,8,-3,24c0,0,4,15,18,41L279,495L64,892c0,0,-14,26,-19,42c0,0,-5,17,4,24c0,0,9,8,32,10c0,0,23,2,65,2c0,0,35,0,56,-2c0,0,20,-1,32,-4c0,0,12,-4,17,-10c0,0,5,-6,9,-15L431,620L595,939c0,0,5,9,10,15c0,0,5,6,16,10c0,0,10,3,29,4c0,0,19,2,53,2c0,0,37,0,59,-2c0,0,22,-2,30,-10c0,0,8,-8,4,-24c0,0,-4,-16,-17,-42L564,497L793,73c0,0,14,-26,18,-41c0,0,4,-16,-5,-24c0,0,-9,-8,-32,-10c0,0,-24,-2,-65,-2c0,0,-36,0,-56,2c0,0,-20,1,-31,3c0,0,-12,4,-17,10c0,0,-5,6,-9,15L414,374L233,26c0,0,-4,-9,-9,-15c0,0,-6,-6,-17,-10c0,0,-12,-2,-32,-3c0,0,-21,-2,-54,-2Z" 
id="f0_3e"
transform="scale(0.001,-0.001)" />

<path d="M204,-4c0,0,-28,0,-47,2c0,0,-19,2,-31,5c0,0,-11,4,-16,10c0,0,-4,6,-4,13V939c0,0,0,7,4,13c0,0,5,6,17,10c0,0,11,3,30,6c0,0,19,2,47,2c0,0,29,0,48,-2c0,0,18,-3,29,-6c0,0,11,-4,16,-10c0,0,5,-6,5,-13V26c0,0,0,-7,-5,-13c0,0,-5,-6,-16,-10c0,0,-11,-3,-29,-5c0,0,-19,-2,-48,-2Z" 
id="f0_1c"
transform="scale(0.001,-0.001)" />

<path d="M127,0c0,0,-16,0,-28,3C99,3,87,6,80,15c0,0,-8,8,-11,25c0,0,-3,16,-3,42c0,0,0,25,2,42c0,0,2,18,8,32c0,0,6,14,15,27c0,0,9,13,24,29L282,390c0,0,50,53,81,95c0,0,30,43,47,79c0,0,17,35,24,65c0,0,6,30,6,57c0,0,0,24,-8,46c0,0,-8,22,-23,39c0,0,-15,16,-38,25c0,0,-23,10,-55,10c0,0,-44,0,-78,-12c0,0,-33,-11,-59,-25c0,0,-26,-13,-43,-25c0,0,-17,-12,-27,-12c0,0,-7,0,-11,5c0,0,-5,4,-8,15c0,0,-3,10,-5,28c0,0,-2,17,-2,42c0,0,0,18,1,29c0,0,1,12,4,20c0,0,2,9,6,15c0,0,3,6,13,15c0,0,9,9,34,23c0,0,25,14,61,27c0,0,37,14,81,23c0,0,44,9,92,9c0,0,75,0,131,-19c0,0,57,-19,94,-53c0,0,37,-34,55,-81c0,0,19,-47,19,-100c0,0,0,-47,-9,-93c0,0,-9,-45,-37,-98c0,0,-29,-52,-80,-116c0,0,-52,-64,-136,-148L299,159H679c0,0,8,0,14,-4c0,0,6,-5,11,-14c0,0,4,-9,7,-25c0,0,2,-15,2,-36c0,0,0,-22,-2,-37c0,0,-2,-15,-6,-25c0,0,-3,-10,-9,-14c0,0,-6,-4,-14,-4Z" 
id="f0_rz"
transform="scale(0.001,-0.001)" />

<path d="M385,138c0,0,29,0,52,9c0,0,22,10,39,28c0,0,17,19,28,47c0,0,11,29,19,66c0,0,7,37,9,84c0,0,3,47,3,104c0,0,0,69,-4,122c0,0,-4,52,-11,91c0,0,-8,39,-20,66c0,0,-12,27,-28,43c0,0,-16,16,-37,22c0,0,-21,7,-47,7c0,0,-44,0,-73,-21c0,0,-28,-21,-45,-64c0,0,-17,-42,-24,-106c0,0,-6,-63,-6,-148c0,0,0,-103,8,-171c0,0,8,-67,26,-107c0,0,17,-40,45,-56c0,0,27,-16,66,-16ZM378,-17c0,0,-99,0,-164,33c0,0,-65,34,-103,98c0,0,-38,64,-54,156c0,0,-15,92,-15,209c0,0,0,115,19,208c0,0,19,94,61,160c0,0,42,65,110,101c0,0,68,35,165,35c0,0,99,0,164,-34c0,0,65,-34,103,-98c0,0,39,-64,53,-156c0,0,15,-92,15,-209c0,0,0,-115,-18,-209c0,0,-19,-93,-61,-159C653,118,611,53,543,17c0,0,-67,-34,-165,-34Z" 
id="f0_rx"
transform="scale(0.001,-0.001)" />

<path d="M142,0c0,0,-6,0,-12,4c0,0,-5,3,-9,12c0,0,-4,9,-6,23c0,0,-3,15,-3,36c0,0,0,21,2,36c0,0,2,14,6,23c0,0,4,9,10,13c0,0,5,5,12,5H322V779L166,693c0,0,-17,-8,-28,-10c0,0,-1,0,-3,0c-4,0,-10,1,-14,5c0,0,-6,6,-8,22c0,0,-2,15,-2,44c0,0,0,18,0,29c0,0,1,12,4,20c0,0,3,8,8,14c0,0,5,5,14,11L345,962c0,0,4,3,9,5c0,0,6,2,15,3c0,0,9,1,23,2c0,0,15,0,38,0c0,0,28,0,46,-1c0,0,17,-1,26,-4c0,0,9,-3,12,-7c0,0,3,-4,3,-11V152H675c0,0,7,0,12,-5c0,0,6,-4,10,-13c0,0,4,-9,6,-23c0,0,2,-15,2,-36c0,0,0,-21,-2,-36c0,0,-3,-14,-7,-23c0,0,-4,-9,-9,-12c0,0,-5,-4,-12,-4Z" 
id="f0_ry"
transform="scale(0.001,-0.001)" />

<path d="M259,-4c0,0,-39,0,-62,3c0,0,-23,1,-34,7c0,0,-11,6,-12,14c0,0,-1,9,5,21L498,796H92c0,0,-16,0,-24,20c0,0,-7,21,-7,65c0,0,0,22,2,38c0,0,2,16,6,27c0,0,4,10,10,15c0,0,6,4,13,4H666c0,0,13,0,22,-3c0,0,9,-2,14,-11c0,0,6,-9,8,-25c0,0,3,-17,3,-43c0,0,0,-22,-2,-38c0,0,-1,-16,-4,-30c0,0,-2,-13,-7,-26c0,0,-4,-12,-10,-26L372,26c0,0,-5,-10,-12,-16c0,0,-7,-6,-20,-9c0,0,-12,-3,-32,-4c0,0,-20,-1,-49,-1Z" 
id="f0_s4"
transform="scale(0.001,-0.001)" />

<path d="M589,371L453,782h-1L317,371ZM106,-4c0,0,-35,0,-54,2C52,-2,32,0,25,8c0,0,-7,9,-5,24c0,0,2,16,11,42L329,931c0,0,4,13,10,21c0,0,6,7,19,12c0,0,13,4,36,5c0,0,23,1,61,1c0,0,44,0,71,-1c0,0,26,-1,40,-5c0,0,15,-5,21,-13c0,0,6,-8,11,-22L896,73c0,0,9,-27,11,-43c0,0,3,-15,-6,-23c0,0,-8,-7,-29,-9c0,0,-21,-2,-57,-2c0,0,-38,0,-59,1c0,0,-22,1,-33,4c0,0,-11,3,-16,9c0,0,-4,6,-7,16L635,220H272L211,31c0,0,-2,-11,-7,-18c0,0,-5,-7,-16,-11c0,0,-11,-3,-31,-4c0,0,-19,-2,-51,-2Z" 
id="f0_5"
transform="scale(0.001,-0.001)" />

<path d="M198,-4c0,0,-27,0,-45,2c0,0,-18,2,-28,5c0,0,-11,4,-15,10c0,0,-4,6,-4,13V887c0,0,0,38,20,58c0,0,20,20,53,20H308c0,0,34,0,59,-6c0,0,24,-5,42,-18c0,0,18,-13,30,-35c0,0,12,-21,21,-52L669,279h3L889,852c0,0,9,32,21,53c0,0,11,22,27,35c0,0,15,14,36,19c0,0,21,6,48,6h132c0,0,21,0,35,-5c0,0,15,-5,24,-15c0,0,9,-11,14,-25c0,0,5,-15,5,-33V26c0,0,0,-7,-4,-13c0,0,-4,-6,-15,-10c0,0,-11,-3,-29,-5c0,0,-18,-2,-45,-2c0,0,-27,0,-45,2c0,0,-18,2,-28,5c0,0,-11,4,-15,10c0,0,-5,6,-5,13V813h-1L764,27c0,0,-3,-10,-10,-16c0,0,-6,-6,-18,-10c0,0,-12,-3,-29,-4c0,0,-18,-1,-44,-1c0,0,-25,0,-43,2c0,0,-18,2,-29,5c0,0,-12,4,-19,10c0,0,-6,6,-9,14L293,813h-2V26c0,0,0,-7,-4,-13c0,0,-4,-6,-15,-10c0,0,-11,-3,-29,-5c0,0,-17,-2,-45,-2Z" 
id="f0_1x"
transform="scale(0.001,-0.001)" />

<path d="M193,-4c0,0,-26,0,-43,2c0,0,-18,2,-27,6c0,0,-10,4,-14,10c0,0,-3,6,-3,13V895c0,0,0,35,20,53c0,0,21,17,50,17H282c0,0,28,0,47,-5c0,0,20,-5,35,-16c0,0,15,-11,29,-31c0,0,13,-20,27,-49L608,511c0,0,17,-32,33,-63c0,0,16,-31,31,-62c0,0,14,-31,29,-60c0,0,14,-30,27,-60h1c0,0,-2,52,-3,109c0,0,-1,57,-1,108V936c0,0,0,7,4,13c0,0,5,6,15,11c0,0,10,4,28,6c0,0,17,2,44,2c0,0,25,0,42,-2c0,0,17,-2,27,-6c0,0,9,-5,13,-11c0,0,4,-6,4,-13V68c0,0,0,-17,-6,-30c0,0,-6,-14,-17,-23C879,15,869,6,856,2c0,0,-14,-3,-28,-3H744c0,0,-26,0,-45,4c0,0,-19,5,-35,19c0,0,-16,14,-31,38c0,0,-15,23,-34,60L359,572c0,0,-21,40,-43,86c0,0,-21,47,-38,91h-2c0,0,3,-54,5,-107c0,0,2,-53,2,-110V27c0,0,0,-7,-5,-13c0,0,-4,-6,-14,-10c0,0,-10,-4,-27,-6c0,0,-17,-2,-44,-2Z" 
id="f0_1y"
transform="scale(0.001,-0.001)" />

<path d="M378,-4c0,0,-28,0,-47,2c0,0,-19,2,-31,5c0,0,-11,4,-16,10c0,0,-4,6,-4,13V805H38c0,0,-8,0,-13,4c0,0,-5,5,-9,14c0,0,-3,9,-5,25c0,0,-2,15,-2,37c0,0,0,22,2,38c0,0,2,15,5,25c0,0,4,9,9,13c0,0,5,4,13,4H718c0,0,7,0,12,-4c0,0,6,-4,10,-13c0,0,3,-10,5,-25c0,0,2,-16,2,-38c0,0,0,-22,-2,-37c0,0,-2,-16,-5,-25c0,0,-4,-9,-10,-14c0,0,-5,-4,-12,-4H476V26c0,0,0,-7,-5,-13c0,0,-5,-6,-16,-10c0,0,-11,-3,-30,-5c0,0,-19,-2,-47,-2Z" 
id="f0_2t"
transform="scale(0.001,-0.001)" />

<path d="M514,145c0,0,72,0,121,27c0,0,48,26,78,73c0,0,30,46,42,107c0,0,13,62,13,131c0,0,0,76,-12,139c0,0,-12,62,-41,106c0,0,-29,45,-76,69c0,0,-48,24,-120,24c0,0,-72,0,-120,-27c0,0,-49,-27,-79,-73c0,0,-29,-45,-42,-106c0,0,-12,-61,-12,-129c0,0,0,-79,12,-142c0,0,12,-63,40,-108c0,0,28,-44,76,-68c0,0,48,-23,120,-23ZM508,-17c0,0,-113,0,-196,29c0,0,-84,29,-140,90c0,0,-56,60,-84,154c0,0,-28,93,-28,221c0,0,0,117,29,210c0,0,30,94,89,160c0,0,59,65,146,101c0,0,87,35,202,35c0,0,110,0,194,-29c0,0,84,-30,140,-90c0,0,56,-60,85,-153c0,0,29,-92,29,-217c0,0,0,-120,-30,-215c0,0,-30,-95,-89,-161C855,118,796,52,709,17c0,0,-87,-34,-201,-34Z" 
id="f0_24"
transform="scale(0.001,-0.001)" />

<path d="M75,0L400,413c0,0,71,91,101,149c0,0,30,58,30,109c0,0,0,55,-36,91c0,0,-36,36,-91,36c0,0,-63,0,-91,-45c0,0,-28,-46,-34,-142H67c0,0,0,173,102,268c0,0,102,95,253,95c0,0,140,0,229,-82c0,0,89,-82,89,-209c0,0,0,-125,-104,-276L580,324c0,0,-34,-50,-85,-114L468,178H740V0Z" 
id="f1_m"
transform="scale(0.001,-0.001)" />

<path d="M404,-11c0,0,-136,0,-225,76c0,0,-90,78,-111,215H265c0,0,35,-136,135,-136c0,0,50,0,85,35c0,0,34,36,34,88c0,0,0,64,-41,105c0,0,-42,41,-107,41H336V573h21c0,0,68,0,109,33c0,0,41,34,41,89c0,0,0,50,-32,85c0,0,-32,35,-79,35c0,0,-110,0,-127,-135H76c0,0,9,130,96,209c0,0,87,79,208,79c0,0,134,0,227,-76c0,0,94,-75,94,-182c0,0,0,-116,-115,-210c0,0,73,-46,107,-96c0,0,34,-51,34,-121c0,0,0,-134,-88,-214c0,0,-89,-80,-235,-80Z" 
id="f1_n"
transform="scale(0.001,-0.001)" />

<path d="M44,-281L425,1053H537L156,-281Z" 
id="f1_j"
transform="scale(0.001,-0.001)" />

<path d="M403,168c0,0,50,0,85,37c0,0,35,36,35,89c0,0,0,50,-35,85c0,0,-35,36,-85,36c0,0,-47,0,-81,-37c0,0,-35,-37,-35,-89c0,0,0,-47,36,-84c0,0,35,-37,80,-37Zm3,426c0,0,39,0,70,28c0,0,31,29,31,65c0,0,0,46,-28,77c0,0,-29,31,-73,31c0,0,-42,0,-71,-29c0,0,-28,-29,-28,-70c0,0,0,-44,28,-73c0,0,29,-29,71,-29Zm2,-605c0,0,-145,0,-234,75c0,0,-90,76,-90,197c0,0,0,150,140,239c0,0,-59,52,-87,101c0,0,-27,49,-27,112c0,0,0,103,77,179c0,0,77,75,216,75c0,0,136,0,217,-68c0,0,81,-68,81,-180c0,0,0,-130,-115,-217c0,0,140,-90,140,-237c0,0,0,-124,-89,-200c0,0,-88,-76,-229,-76Z" 
id="f1_s"
transform="scale(0.001,-0.001)" />

<path d="M460,-325c0,0,-148,79,-231,172c0,0,-84,93,-123,217c0,0,-39,126,-39,304c0,0,0,178,39,303c0,0,39,125,122,217c0,0,82,93,232,172V997c0,0,-91,-52,-145,-134c0,0,-54,-81,-79,-190c0,0,-25,-109,-25,-305c0,0,0,-194,26,-309c0,0,26,-114,82,-193c0,0,56,-79,141,-128v-63Z" 
id="f2_c"
transform="scale(0.001,-0.001)" />

<path d="M383,64c0,0,85,0,152,28V645c0,0,-67,13,-152,13c0,0,-194,0,-194,-314c0,0,0,-141,48,-211c0,0,48,-69,146,-69ZM342,-14c0,0,-287,0,-287,358c0,0,0,184,82,280c0,0,81,96,239,96c0,0,81,0,163,-18c0,0,-4,25,-4,124v182l-118,18v34H659V52L745,33V0H548l-9,52c0,0,-84,-66,-197,-66Z" 
id="f2_20"
transform="scale(0.001,-0.001)" />

<path d="M49,-325v63c0,0,85,49,140,128c0,0,56,79,83,194c0,0,26,115,26,308c0,0,0,196,-25,305c0,0,-25,109,-79,190c0,0,-54,82,-145,134v63c0,0,149,-80,232,-172c0,0,83,-92,122,-217c0,0,39,-125,39,-303c0,0,0,-177,-39,-303c0,0,-39,-125,-122,-217c0,0,-83,-93,-232,-173Z" 
id="f2_d"
transform="scale(0.001,-0.001)" />

<path d="M681,416L504,902L333,416ZM669,0V40L803,60L704,348H310L210,60L344,40V0H15V40L128,60l341,949H611L965,60L1092,40V0Z" 
id="f2_11"
transform="scale(0.001,-0.001)" />

<path d="M577,-14c0,0,-243,0,-379,132C198,118,63,250,63,488c0,0,0,258,130,391c0,0,131,132,387,132c0,0,156,0,335,-38l5,-218H871L848,884c0,0,-52,32,-121,50c0,0,-69,17,-141,17c0,0,-191,0,-279,-112c0,0,-88,-113,-88,-349c0,0,0,-217,92,-332c0,0,92,-115,268,-115c0,0,85,0,160,20c0,0,76,21,120,55l27,149h49L930,32c0,0,-164,-46,-353,-46Z" 
id="f2_13"
transform="scale(0.001,-0.001)" />

<path d="M249,-14c0,0,-71,0,-107,42c0,0,-35,42,-35,119V639H15v33l93,29l76,159h47V701H391V639H231V161c0,0,0,-48,22,-73c0,0,22,-24,57,-24c0,0,44,0,106,12V26C416,26,389,8,340,-2c0,0,-49,-12,-91,-12Z" 
id="f2_2g"
transform="scale(0.001,-0.001)" />

<path d="M442,0V33l93,19V504c0,0,0,129,-124,129c0,0,-70,0,-168,-22V52L338,33V0H31V33l88,19v956L15,1026v34H243V756c0,0,0,-77,-5,-112c0,0,54,31,122,53c0,0,68,23,115,23c0,0,91,0,137,-53c0,0,47,-53,47,-154V52L744,33V0Z" 
id="f2_24"
transform="scale(0.001,-0.001)" />

<path d="M31,0V33l88,19V649L31,668v33H235l7,-87c0,0,44,37,121,71c0,0,76,35,121,35h11V530H463l-43,82c0,0,-37,0,-88,-10c0,0,-52,-10,-89,-26V52L363,33V0Z" 
id="f2_2e"
transform="scale(0.001,-0.001)" />

<path d="M377,45c0,0,99,0,147,73c0,0,47,73,47,237c0,0,0,161,-47,233c0,0,-47,72,-147,72c0,0,-97,0,-141,-69c0,0,-44,-69,-44,-236c0,0,0,-169,45,-240c0,0,44,-70,140,-70Zm0,-59c0,0,-158,0,-238,94c0,0,-81,95,-81,274c0,0,0,178,81,272c0,0,80,94,244,94c0,0,160,0,241,-92c0,0,82,-92,82,-274c0,0,0,-368,-329,-368Z" 
id="f2_2b"
transform="scale(0.001,-0.001)" />

<path d="M289,-14c0,0,-179,0,-179,205V649L20,668v33H233V200c0,0,0,-128,120,-128c0,0,92,0,173,23V649L420,668v33H649V52L738,33V0H533l-6,57C527,57,474,28,405,7c0,0,-69,-21,-116,-21Z" 
id="f2_2h"
transform="scale(0.001,-0.001)" />

<path d="M359,-270c0,0,124,0,192,46c0,0,67,47,67,129c0,0,0,43,-26,67c0,0,-26,24,-79,24H242c0,0,-32,-27,-51,-69c0,0,-20,-41,-20,-77c0,0,0,-64,46,-92c0,0,46,-28,142,-28Zm11,561c0,0,81,0,115,47c0,0,34,47,34,141c0,0,0,100,-35,142c0,0,-35,42,-113,42c0,0,-78,0,-114,-43c0,0,-37,-42,-37,-141c0,0,0,-98,36,-143c0,0,36,-45,114,-45ZM359,-329c0,0,-143,0,-218,44c0,0,-75,43,-75,125c0,0,0,39,27,78c0,0,26,38,98,89c0,0,-43,14,-72,48c0,0,-29,35,-29,74L208,262c0,0,-118,55,-118,217c0,0,0,115,73,178c0,0,73,63,211,63c0,0,28,0,71,-6c0,0,44,-6,67,-13l165,83l26,-32L599,644c0,0,50,-56,50,-165c0,0,0,-120,-72,-182c0,0,-73,-62,-208,-62c0,0,-62,0,-114,11L208,148c0,0,2,-13,29,-24c0,0,27,-12,67,-12H512c0,0,113,0,168,-49c0,0,55,-49,55,-134c0,0,0,-79,-44,-137c0,0,-43,-58,-128,-90c0,0,-84,-31,-204,-31Z" 
id="f2_23"
transform="scale(0.001,-0.001)" />

<path d="M399,-14c0,0,-341,0,-341,370c0,0,0,175,87,269c0,0,87,95,249,95c0,0,101,0,220,-23V501H573L541,625c0,0,-62,35,-149,35c0,0,-200,0,-200,-304c0,0,0,-158,61,-225c0,0,61,-67,189,-67c0,0,109,0,189,24V43C631,43,595,16,530,1c0,0,-64,-15,-131,-15Z" 
id="f2_1z"
transform="scale(0.001,-0.001)" />

<path d="M284,67c0,0,51,0,88,12c0,0,37,12,74,30V358l-98,-3c0,0,-100,-4,-135,-39c0,0,-35,-35,-35,-117c0,0,0,-132,106,-132ZM233,-14c0,0,-179,0,-179,208c0,0,0,70,27,116c0,0,27,46,87,70c0,0,60,24,173,27l105,3V519c0,0,0,72,-26,107c0,0,-27,34,-82,34c0,0,-75,0,-137,-35L176,538H134V691c0,0,121,26,213,26c0,0,115,0,169,-47c0,0,54,-47,54,-144V52L657,33V0H465L451,70c0,0,-85,-84,-218,-84Z" 
id="f2_1x"
transform="scale(0.001,-0.001)" />

<path d="M382,45c0,0,188,0,188,314c0,0,0,143,-47,213c0,0,-46,69,-141,69c0,0,-87,0,-146,-24V58c0,0,67,-13,146,-13ZM25,-325v35l88,18V649L34,668v33H231l1,-41c0,0,31,27,84,43c0,0,53,17,107,17c0,0,134,0,208,-94c0,0,73,-93,73,-267c0,0,0,-178,-80,-276c0,0,-80,-97,-232,-97c0,0,-84,0,-160,16c0,0,4,-53,4,-84V-272l123,-18v-35Z" 
id="f2_2c"
transform="scale(0.001,-0.001)" />

<path d="M32,0V33L151,52V649L52,668v33H275V52L395,33V0ZM201,850c0,0,-32,0,-56,24c0,0,-24,24,-24,56c0,0,0,34,24,58c0,0,24,24,56,24c0,0,34,0,58,-24c0,0,24,-24,24,-58c0,0,0,-32,-24,-56c0,0,-24,-24,-58,-24Z" 
id="f2_25"
transform="scale(0.001,-0.001)" />

<path d="M211,-20c0,0,-39,0,-64,25c0,0,-26,27,-26,64c0,0,0,38,26,64c0,0,26,26,64,26c0,0,37,0,64,-25c0,0,26,-26,26,-65c0,0,0,-37,-26,-64c0,0,-26,-25,-64,-25Zm0,556c0,0,-38,0,-64,26c0,0,-26,26,-26,64c0,0,0,37,26,64c0,0,25,27,64,27c0,0,38,0,64,-27c0,0,26,-27,26,-64c0,0,0,-38,-26,-64c0,0,-27,-26,-64,-26Z" 
id="f2_u"
transform="scale(0.001,-0.001)" />

<path d="M57,302V417H454V302Z" 
id="f2_h"
transform="scale(0.001,-0.001)" />

<path d="M44,0V40L172,60V941L44,960v40H471V960L316,941V65H513c0,0,159,0,234,14l46,208h48L828,0Z" 
id="f2_1c"
transform="scale(0.001,-0.001)" />

<path d="M495,413c0,0,0,133,-34,190c0,0,-34,57,-105,57c0,0,-78,0,-119,-63c0,0,-42,-62,-42,-184ZM374,-14c0,0,-163,0,-239,87c0,0,-75,88,-75,283c0,0,0,183,77,273c0,0,76,91,219,91c0,0,269,0,269,-306V353H194V340c0,0,0,-103,23,-160c0,0,22,-57,70,-87c0,0,47,-29,124,-29c0,0,40,0,96,6c0,0,55,7,91,15V43C598,43,562,20,500,3c0,0,-61,-17,-126,-17Z" 
id="f2_21"
transform="scale(0.001,-0.001)" />

<path d="M439,0V33l93,19V500c0,0,0,62,-30,97c0,0,-31,36,-94,36c0,0,-67,0,-165,-22V52L338,33V0H35V33l84,19V649L35,668v33H235l7,-57c0,0,57,33,122,54c0,0,65,22,108,22c0,0,91,0,137,-53c0,0,47,-53,47,-154V52L741,33V0Z" 
id="f2_2a"
transform="scale(0.001,-0.001)" />

<path d="M278,-14c0,0,-52,0,-115,11c0,0,-63,10,-99,23V193H98L134,95c0,0,56,-50,146,-50c0,0,144,0,144,123c0,0,0,91,-114,130l-66,21c0,0,-75,25,-110,50c0,0,-34,26,-53,63c0,0,-18,36,-18,89c0,0,0,92,63,145c0,0,63,54,170,54c0,0,77,0,193,-23V544H454l-32,81c0,0,-39,35,-124,35c0,0,-61,0,-92,-30c0,0,-32,-30,-32,-80c0,0,0,-43,29,-72c0,0,28,-29,86,-48c0,0,110,-38,144,-55c0,0,33,-17,57,-42c0,0,23,-25,36,-57c0,0,13,-32,13,-79c0,0,0,-104,-66,-158c0,0,-66,-53,-195,-53Z" 
id="f2_2f"
transform="scale(0.001,-0.001)" />

<path d="M327,-14L84,649L1,668v33H335V668L219,648L385,174L554,632h63L786,171L944,649L830,668v33h267V668l-78,-16L784,-14H726L553,448L382,-14Z" 
id="f2_2j"
transform="scale(0.001,-0.001)" />

<path d="M376,50c0,0,103,0,149,80c0,0,46,81,46,240c0,0,0,137,-47,204c0,0,-48,67,-148,67c0,0,-44,0,-87,-7c0,0,-44,-8,-63,-17V62c0,0,63,-12,150,-12Zm3,-64c0,0,-64,0,-141,14c0,0,-78,14,-136,37v971L0,1026v34H226V809c0,0,0,-40,-4,-148c0,0,74,59,188,59c0,0,143,0,219,-87c0,0,77,-87,77,-263c0,0,0,-189,-84,-287c0,0,-84,-97,-243,-97Z" 
id="f2_1y"
transform="scale(0.001,-0.001)" />

<path d="M431,0V33L535,52V499c0,0,0,62,-32,96c0,0,-32,33,-95,33c0,0,-66,0,-163,-22V52L350,33V0H32V33l89,19V649L32,668v33H237l6,-57c0,0,56,32,119,54c0,0,62,22,110,22c0,0,52,0,95,-20c0,0,44,-19,66,-62c0,0,57,32,134,57c0,0,77,25,128,25c0,0,179,0,179,-207V52l90,-19V0H846V33L950,52V499c0,0,0,129,-119,129c0,0,-19,0,-45,-3c0,0,-26,-3,-52,-7c0,0,-25,-4,-49,-8c0,0,-23,-5,-39,-8c0,0,13,-41,13,-89V52L764,33V0Z" 
id="f2_29"
transform="scale(0.001,-0.001)" />

<path d="M64,0V34L168,59V639H47v36l121,29v49c0,0,0,155,61,239c0,0,62,84,173,84c0,0,58,0,107,-15V908H472l-33,92c0,0,-26,16,-62,16c0,0,-47,0,-66,-42c0,0,-19,-42,-19,-157V701H478V639H292V59L443,34V0Z" 
id="f2_22"
transform="scale(0.001,-0.001)" />

<path d="M360,-14L72,649L0,668v33H327V668L216,648L420,164L615,649L504,668v33H764V668L697,652L416,-14Z" 
id="f2_2i"
transform="scale(0.001,-0.001)" />

<path d="M31,0V33L150,52v956L31,1026v34H274V52L394,33V0Z" 
id="f2_28"
transform="scale(0.001,-0.001)" />

<path d="M44,0V40L172,60V941L44,960v40H794V760H745L721,922c0,0,-83,11,-241,11H316V543H586l23,119h48V354H609L586,475H316V67H513c0,0,193,0,252,12l43,185h49L843,0Z" 
id="f2_15"
transform="scale(0.001,-0.001)" />

<path d="M76,316v76H787V316Zm0,306v76H787V622Z" 
id="f2_x"
transform="scale(0.001,-0.001)" />

<path d="M377,45c0,0,99,0,145,108c0,0,46,109,46,352c0,0,0,240,-45,345c0,0,-46,106,-146,106c0,0,-97,0,-139,-100c0,0,-43,-99,-43,-351c0,0,0,-254,44,-357c0,0,43,-103,138,-103Zm0,-59c0,0,-158,0,-238,132c0,0,-81,133,-81,386c0,0,0,249,81,380c0,0,80,132,244,132c0,0,159,0,241,-130c0,0,82,-130,82,-382c0,0,0,-518,-329,-518Z" 
id="f2_k"
transform="scale(0.001,-0.001)" />

<path d="M256,-21c0,0,-56,0,-118,38C138,17,76,57,38,140C38,140,0,223,0,320c0,0,0,105,43,192c0,0,32,67,83,111c0,0,52,44,109,62c0,0,58,18,146,18V677c0,0,-103,-11,-171,-98c0,0,-67,-88,-67,-258c0,0,0,-167,51,-246c0,0,31,-47,88,-47c0,0,47,0,89,39c0,0,42,39,72,140c0,0,-33,87,-43,130c0,0,-10,42,-10,81c0,0,0,72,34,124c0,0,16,26,38,26c0,0,23,0,40,-26c0,0,32,-49,32,-120c0,0,0,-86,-49,-215c0,0,29,-102,68,-137c0,0,39,-36,89,-36c0,0,58,0,94,46c0,0,48,61,48,228c0,0,0,204,-90,301c0,0,-54,59,-149,68v26c0,0,125,0,205,-43c0,0,79,-43,128,-138c0,0,49,-95,49,-208c0,0,0,-96,-38,-176C889,138,851,59,785,18c0,0,-66,-39,-126,-39c0,0,-65,0,-111,36c0,0,-46,37,-83,115c0,0,-41,-79,-93,-116c0,0,-52,-35,-116,-35Z" 
id="f3_2j"
transform="scale(0.001,-0.001)" />

<path d="M191,-20c0,0,-39,0,-65,25c0,0,-25,27,-25,64c0,0,0,38,26,64c0,0,26,26,64,26c0,0,38,0,64,-26c0,0,26,-26,26,-64c0,0,0,-37,-25,-64c0,0,-26,-25,-65,-25Z" 
id="f2_i"
transform="scale(0.001,-0.001)" />

<path d="M529,65c0,0,183,0,270,108c0,0,87,108,87,334c0,0,0,210,-113,318c0,0,-113,108,-322,108H316V71c0,0,90,-6,213,-6Zm0,-67L172,0H44V40L172,60V941L44,960v40H498c0,0,277,0,411,-123c0,0,133,-124,133,-371c0,0,0,-251,-129,-380C913,126,785,-2,529,-2Z" 
id="f2_14"
transform="scale(0.001,-0.001)" />

<path d="M58,-234v58c0,0,131,42,131,125c0,0,0,15,-11,27c0,0,-11,12,-38,25C140,1,89,27,89,75c0,0,0,40,25,61c0,0,26,21,65,21c0,0,48,0,77,-34c0,0,30,-34,30,-86c0,0,0,-101,-60,-170c0,0,-59,-69,-168,-101Z" 
id="f2_g"
transform="scale(0.001,-0.001)" />

<path d="M55,0V40L184,60V941L55,960v40H455V960L327,941V60L455,40V0Z" 
id="f2_19"
transform="scale(0.001,-0.001)" />

<path d="M536,-22L130,941L17,960v40H421V960L287,941L590,205L892,941L761,960v40h325V960L976,941L574,-22Z" 
id="f2_1m"
transform="scale(0.001,-0.001)" />

<path d="M313,80c0,0,53,0,105,15c0,0,52,15,87,38l90,509c0,0,-76,20,-152,20c0,0,-74,0,-134,-54c0,0,-60,-54,-94,-149c0,0,-34,-95,-34,-203c0,0,0,-86,34,-131c0,0,34,-45,98,-45ZM421,-325l52,285c0,0,12,64,28,120C501,80,443,37,380,11c0,0,-64,-25,-119,-25c0,0,-102,0,-156,63c0,0,-54,63,-54,188c0,0,0,137,53,248c0,0,54,112,152,173c0,0,97,62,220,62c0,0,52,0,129,-10c0,0,76,-11,123,-22L554,-273l91,-17l-6,-35Z" 
id="f4_2d"
transform="scale(0.001,-0.001)" />

<path d="M395,-22L175,941L80,960l7,40H455l-7,-40L322,941L484,211L885,941L771,960l9,40h300l-7,-40L975,941L433,-22Z" 
id="f4_1m"
transform="scale(0.001,-0.001)" />

<path d="M521,-14c0,0,-205,0,-320,107C201,93,85,200,85,390c0,0,0,185,77,326c0,0,77,142,220,219c0,0,142,76,324,76c0,0,158,0,327,-38L1000,755H951V884c0,0,-46,32,-112,50c0,0,-65,17,-137,17c0,0,-135,0,-242,-72c0,0,-107,-72,-166,-203c0,0,-60,-132,-60,-301c0,0,0,-160,78,-244c0,0,78,-84,222,-84c0,0,85,0,166,25c0,0,82,26,133,65l53,149h49L889,52C889,52,803,20,705,3c0,0,-99,-17,-184,-17Z" 
id="f4_13"
transform="scale(0.001,-0.001)" />

<path d="M0,214v74H784V214ZM0,494v72H784V494Z" 
id="f3_x"
transform="scale(0.001,-0.001)" />

<path d="M235,0V40L394,60V936H356c0,0,-189,0,-258,-15L78,766H28v234H908V766H857L837,921c0,0,-22,5,-98,9c0,0,-75,4,-165,4H538V60L697,40V0Z" 
id="f2_1k"
transform="scale(0.001,-0.001)" />

<path d="M301,78c0,0,41,0,90,27c0,0,49,28,95,77l81,442c0,0,-26,18,-54,27c0,0,-27,10,-67,10c0,0,-70,0,-131,-55c0,0,-61,-55,-99,-152c0,0,-37,-97,-37,-201c0,0,0,-79,33,-127c0,0,33,-48,89,-48ZM245,-14c0,0,-91,0,-145,68c0,0,-54,69,-54,183c0,0,0,128,55,240c0,0,55,112,150,177c0,0,96,66,210,66c0,0,70,0,123,-18c0,0,3,36,51,306l-115,18l6,34H768L589,52L673,33L667,0H454l22,117C476,117,350,-14,245,-14Z" 
id="f4_20"
transform="scale(0.001,-0.001)" />

<path d="M-17,0l8,40L120,60L276,941L151,960l7,40H909L866,761H817l4,161c0,0,-81,11,-239,11H419L349,543H619l45,119h48L657,354H609l-1,121H338L266,67H463c0,0,190,0,254,12l75,185h49L780,0Z" 
id="f4_15"
transform="scale(0.001,-0.001)" />

<path d="M-5,0L0,40L131,60L286,941L162,960l6,40H568l-6,-40L430,941L275,60L399,40L393,0Z" 
id="f4_19"
transform="scale(0.001,-0.001)" />

<path d="M200,-14c0,0,-59,0,-93,35c0,0,-34,36,-34,100c0,0,0,22,4,51c0,0,4,30,82,467H67l6,33l99,29L275,860h47L295,701H455L443,639H283L210,230c0,0,-13,-69,-13,-99c0,0,0,-34,17,-51c0,0,17,-16,43,-16c0,0,54,0,113,21L386,50c0,0,-92,-64,-186,-64Z" 
id="f4_2g"
transform="scale(0.001,-0.001)" />

<path d="M240,-14L113,649L37,668l6,33H225L323,174L554,622h55L700,171L847,461c0,0,43,85,43,141c0,0,0,27,-16,44c0,0,-15,16,-33,22l6,33H988c0,0,20,-17,20,-47c0,0,0,-51,-62,-164L671,-14H622L530,447L292,-14Z" 
id="f4_2j"
transform="scale(0.001,-0.001)" />

<path d="M83,0C83,0,48,0,24,24C24,24,0,49,0,83c0,0,0,34,24,58c0,0,24,24,59,24c0,0,34,0,58,-24c0,0,24,-24,24,-58c0,0,0,-34,-24,-59C141,24,117,0,83,0ZM695,0c0,0,-34,0,-58,24c0,0,-25,25,-25,59c0,0,0,34,25,58c0,0,24,24,58,24c0,0,34,0,58,-24c0,0,24,-24,24,-58c0,0,0,-34,-24,-59C753,24,729,0,695,0ZM388,594c0,0,-34,0,-59,23c0,0,-24,24,-24,59c0,0,0,34,24,58c0,0,25,25,59,25c0,0,34,0,58,-25c0,0,24,-24,24,-58c0,0,0,-35,-24,-59c0,0,-24,-23,-58,-23Z" 
id="f3_1s"
transform="scale(0.001,-0.001)" />

<path d="M52,62L0,114L278,390L0,667l52,52L330,442L608,719l51,-51L382,390L659,114L608,62L330,338L52,62Z" 
id="f3_3a"
transform="scale(0.001,-0.001)" />

<path d="M113,-203V1060H454v-35L232,994V-138l222,-30v-35Z" 
id="f2_1r"
transform="scale(0.001,-0.001)" />

<path d="M0,-14L351,1007h73L75,-14Z" 
id="f2_j"
transform="scale(0.001,-0.001)" />

<path d="M67,0V109L206,235c0,0,133,118,196,190c0,0,63,72,90,149c0,0,27,77,27,177c0,0,0,97,-44,148c0,0,-44,50,-144,50c0,0,-39,0,-81,-10c0,0,-42,-11,-74,-29L150,787H101V980c0,0,135,32,230,32c0,0,164,0,247,-68c0,0,82,-69,82,-193c0,0,0,-84,-32,-158c0,0,-33,-75,-100,-148c0,0,-67,-74,-222,-206c0,0,-67,-57,-141,-125H680V0Z" 
id="f2_m"
transform="scale(0.001,-0.001)" />

<path d="M55,-203v35l222,30V994L55,1025v35H395V-203Z" 
id="f2_1t"
transform="scale(0.001,-0.001)" />

<path d="M134,0V40L339,60V876L137,804v39l292,166h39V60L672,40V0Z" 
id="f2_l"
transform="scale(0.001,-0.001)" />

<path d="M298,-14c0,0,-120,0,-185,69c0,0,-66,69,-66,191c0,0,0,130,52,237c0,0,52,107,149,172c0,0,97,65,203,65c0,0,53,0,112,-12c0,0,60,-11,99,-27L628,485H587L575,615c0,0,-47,47,-125,47c0,0,-72,0,-134,-53c0,0,-62,-53,-100,-147c0,0,-37,-95,-37,-208c0,0,0,-190,154,-190c0,0,106,0,222,74l22,-32c0,0,-60,-56,-135,-88c0,0,-76,-32,-144,-32Z" 
id="f4_1z"
transform="scale(0.001,-0.001)" />

<path d="M140,-21c0,0,-26,0,-44,17C96,-4,79,13,79,40c0,0,0,19,6,33c0,0,8,20,34,55c0,0,46,60,64,126c0,0,32,114,41,321H190c0,0,-55,0,-81,-18c0,0,-44,-26,-80,-89H0c0,0,42,129,98,178c0,0,43,37,120,37H743V575H562c0,0,-27,-171,-27,-327c0,0,0,-77,27,-110c0,0,27,-33,67,-33c0,0,33,0,56,22c0,0,24,22,31,65h27C743,192,730,74,686,26c0,0,-44,-47,-98,-47c0,0,-58,0,-97,51c0,0,-39,53,-39,198c0,0,0,91,28,347H286c0,0,-23,-390,-56,-494c0,0,-33,-102,-90,-102Z" 
id="f3_2c"
transform="scale(0.001,-0.001)" />

<path d="M355,0V355H0v72H355V784h72V427H782V355H427V0Z" 
id="f3_f"
transform="scale(0.001,-0.001)" />

<path d="M13,0V34L95,46L325,350L122,649L40,668v33H357V668L264,648L399,446L554,649l-96,19v33H710V668L630,652L433,397L663,50L745,34V0H427V34l94,17L359,299L169,50L266,34V0Z" 
id="f2_2k"
transform="scale(0.001,-0.001)" />

<path d="M392,152V469H76v77H392V863h77V546H787V469H469V152Z" 
id="f2_f"
transform="scale(0.001,-0.001)" />

<path d="M477,0V33l64,19L348,354L257,254V52L331,33V0H44V33l89,19v956L29,1026v34H257V338L544,647l-73,20v34H718V667L631,650L431,446L688,50L764,33V0Z" 
id="f2_27"
transform="scale(0.001,-0.001)" />

<path d="M449,50c0,0,162,0,276,114L353,504c0,0,-78,-33,-114,-91c0,0,-35,-57,-35,-139c0,0,0,-108,63,-166c0,0,63,-58,182,-58ZM439,605c0,0,72,27,104,53c0,0,31,25,47,63c0,0,16,37,16,92c0,0,0,143,-135,143c0,0,-79,0,-113,-36c0,0,-34,-35,-34,-107c0,0,0,-121,115,-208ZM429,-14c0,0,-185,0,-278,71c0,0,-93,72,-93,209c0,0,0,72,27,124c0,0,27,52,73,89c0,0,46,37,146,75c0,0,-112,109,-112,244c0,0,0,107,71,162c0,0,72,56,208,56c0,0,130,0,198,-53c0,0,69,-53,69,-155c0,0,0,-58,-25,-101c0,0,-25,-42,-71,-75c0,0,-45,-32,-152,-74L805,272c0,0,72,147,77,271L776,563v39h341V563L1013,543c0,0,-57,-198,-145,-329L1038,59L1161,40V0H904L777,116C777,116,699,46,614,16c0,0,-84,-30,-185,-30Z" 
id="f2_a"
transform="scale(0.001,-0.001)" />

<path d="M148,-329c0,0,-58,0,-114,13v151H69l24,-71c0,0,23,-17,64,-17c0,0,39,0,72,22c0,0,33,23,60,67c0,0,27,44,68,157L90,649L19,668v33H344V668L233,648L423,158L606,649L497,668v33H758V668L685,652L411,-43c0,0,-48,-124,-84,-177c0,0,-36,-54,-79,-82c0,0,-44,-27,-100,-27Z" 
id="f2_2l"
transform="scale(0.001,-0.001)" />

<path d="M595,60c0,0,141,0,206,102c0,0,65,102,65,340c0,0,0,236,-65,335c0,0,-65,100,-206,100c0,0,-142,0,-207,-100c0,0,-66,-99,-66,-335c0,0,0,-239,66,-340c0,0,65,-102,207,-102Zm0,-74c0,0,-253,0,-387,130C208,116,75,246,75,501c0,0,0,510,520,510c0,0,256,0,387,-129c0,0,132,-130,132,-381c0,0,0,-254,-133,-385C981,116,848,-14,595,-14Z" 
id="f5_1f"
transform="scale(0.001,-0.001)" />

<path d="M498,506c0,0,115,0,164,47c0,0,48,48,48,166c0,0,0,112,-46,156c0,0,-46,43,-169,43H390V506ZM793,0L514,423H390V74L518,54V0H36V54L154,74V926L26,945v55H504c0,0,221,0,330,-68c0,0,109,-68,109,-212c0,0,0,-215,-201,-276L1009,74L1117,54V0Z" 
id="f5_1i"
transform="scale(0.001,-0.001)" />


</defs>
</svg>