<?xml version="1.0" encoding="UTF-8" standalone="no"?>
<!DOCTYPE svg PUBLIC "-//W3C//DTD SVG 1.1//EN"
"http://www.w3.org/Graphics/SVG/1.1/DTD/svg11.dtd">
<svg viewBox="0 0 909 1286" version="1.1" xmlns="http://www.w3.org/2000/svg" xmlns:xlink="http://www.w3.org/1999/xlink">
<defs>
<clipPath id="c0_214"><path d="M35.1,1194.7V113.1H873.9V1194.7Z" /></clipPath>
</defs>
<g clip-path="url(#c0_214)">
<g fill="#000000" >
<use xlink:href="#f0_5" transform="matrix(12,0,0,12,47.4,136)" />
<use xlink:href="#f1_u" transform="matrix(12,0,0,12,62.9,136)" />
<use xlink:href="#f0_2" transform="matrix(12,0,0,12,77.9,136)" />
<use xlink:href="#f0_9" transform="matrix(12,0,0,12,89.9,136)" />
<use xlink:href="#f0_g" transform="matrix(12,0,0,12,96.6,136)" />
</g>
</g>
<image preserveAspectRatio="none" x="107" y="116" width="53" height="29" xlink:href="img/1.png" />
<g clip-path="url(#c0_214)">
<g fill="#000000" >
<use xlink:href="#f1_u" transform="matrix(12,0,0,12,47.4,186.4)" />
</g>
</g>
<image preserveAspectRatio="none" x="63" y="167" width="206" height="29" xlink:href="img/2.png" />
<g clip-path="url(#c0_214)">
<g fill="#000000" >
<use xlink:href="#f1_u" transform="matrix(12,0,0,12,47.4,236.8)" />
<use xlink:href="#f1_11" transform="matrix(12,0,0,12,62.4,236.8)" />
<use xlink:href="#f1_p" transform="matrix(12,0,0,12,72.6,236.8)" />
<use xlink:href="#f1_v" transform="matrix(12,0,0,12,77.8,236.8)" />
<use xlink:href="#f1_1c" transform="matrix(12,0,0,12,92.8,236.8)" />
<use xlink:href="#f1_y" transform="matrix(12,0,0,12,47.4,287.2)" />
<use xlink:href="#f1_b" transform="matrix(12,0,0,12,61.9,287.2)" />
<use xlink:href="#f1_m" transform="matrix(12,0,0,12,71.7,287.2)" />
<use xlink:href="#f1_d" transform="matrix(12,0,0,12,83.5,287.2)" />
<use xlink:href="#f1_b" transform="matrix(12,0,0,12,92.5,287.2)" />
<use xlink:href="#f1_n" transform="matrix(12,0,0,12,102.4,287.2)" />
<use xlink:href="#f1_3" transform="matrix(12,0,0,12,111.7,287.2)" />
<use xlink:href="#f1_t" transform="matrix(12,0,0,12,126.8,287.2)" />
<use xlink:href="#f1_f" transform="matrix(12,0,0,12,133.5,287.2)" />
<use xlink:href="#f1_h" transform="matrix(12,0,0,12,144.1,287.2)" />
<use xlink:href="#f1_d" transform="matrix(12,0,0,12,152.7,287.2)" />
<use xlink:href="#f1_b" transform="matrix(12,0,0,12,161.7,287.2)" />
<use xlink:href="#f1_f" transform="matrix(12,0,0,12,176.3,287.2)" />
<use xlink:href="#f1_t" transform="matrix(12,0,0,12,186.9,287.2)" />
<use xlink:href="#f1_11" transform="matrix(12,0,0,12,198.4,287.2)" />
<use xlink:href="#f1_p" transform="matrix(12,0,0,12,208.6,287.2)" />
<use xlink:href="#f1_v" transform="matrix(12,0,0,12,213.8,287.2)" />
<use xlink:href="#f1_1c" transform="matrix(12,0,0,12,228.8,287.2)" />
<use xlink:href="#f1_3" transform="matrix(12,0,0,12,247.6,287.2)" />
<use xlink:href="#f1_d" transform="matrix(12,0,0,12,257.9,287.2)" />
<use xlink:href="#f1_7" transform="matrix(12,0,0,12,266.9,287.2)" />
<use xlink:href="#f1_9" transform="matrix(12,0,0,12,273.4,287.2)" />
<use xlink:href="#f1_f" transform="matrix(12,0,0,12,286.4,287.2)" />
<use xlink:href="#f1_m" transform="matrix(12,0,0,12,296.9,287.2)" />
<use xlink:href="#f1_7" transform="matrix(12,0,0,12,313.5,287.2)" />
<use xlink:href="#f1_i" transform="matrix(12,0,0,12,320,287.2)" />
<use xlink:href="#f1_b" transform="matrix(12,0,0,12,331.6,287.2)" />
<use xlink:href="#f1_16" transform="matrix(12,0,0,12,346.1,287.2)" />
<use xlink:href="#f1_8" transform="matrix(12,0,0,12,361.9,287.2)" />
<use xlink:href="#f1_h" transform="matrix(12,0,0,12,367.8,287.2)" />
<use xlink:href="#f1_b" transform="matrix(12,0,0,12,376.4,287.2)" />
<use xlink:href="#f1_8" transform="matrix(12,0,0,12,390.9,287.2)" />
<use xlink:href="#f1_m" transform="matrix(12,0,0,12,396.8,287.2)" />
<use xlink:href="#f1_3" transform="matrix(12,0,0,12,413.4,287.2)" />
<use xlink:href="#f1_c" transform="matrix(12,0,0,12,428.4,287.2)" />
<use xlink:href="#f1_b" transform="matrix(12,0,0,12,439,287.2)" />
<use xlink:href="#f1_h" transform="matrix(12,0,0,12,448.8,287.2)" />
<use xlink:href="#f1_7" transform="matrix(12,0,0,12,457.5,287.2)" />
<use xlink:href="#f1_8" transform="matrix(12,0,0,12,463.9,287.2)" />
<use xlink:href="#f1_d" transform="matrix(12,0,0,12,469.7,287.2)" />
<use xlink:href="#f1_3" transform="matrix(12,0,0,12,478.8,287.2)" />
<use xlink:href="#f1_g" transform="matrix(12,0,0,12,489.1,287.2)" />
<use xlink:href="#f1_g" transform="matrix(12,0,0,12,494.8,287.2)" />
<use xlink:href="#f1_r" transform="matrix(12,0,0,12,500.4,287.2)" />
<use xlink:href="#f1_a" transform="matrix(12,0,0,12,515.5,287.2)" />
<use xlink:href="#f1_f" transform="matrix(12,0,0,12,526.8,287.2)" />
<use xlink:href="#f1_16" transform="matrix(12,0,0,12,537.3,287.2)" />
<use xlink:href="#f1_m" transform="matrix(12,0,0,12,553.1,287.2)" />
<use xlink:href="#f1_16" transform="matrix(12,0,0,12,564.9,287.2)" />
<use xlink:href="#f1_3" transform="matrix(12,0,0,12,580.7,287.2)" />
<use xlink:href="#f1_h" transform="matrix(12,0,0,12,591,287.2)" />
<use xlink:href="#f1_a" transform="matrix(12,0,0,12,599.7,287.2)" />
<use xlink:href="#f1_a" transform="matrix(12,0,0,12,615.6,287.2)" />
<use xlink:href="#f1_8" transform="matrix(12,0,0,12,626.9,287.2)" />
<use xlink:href="#f1_h" transform="matrix(12,0,0,12,632.7,287.2)" />
<use xlink:href="#f1_b" transform="matrix(12,0,0,12,641.4,287.2)" />
<use xlink:href="#f1_d" transform="matrix(12,0,0,12,651.2,287.2)" />
<use xlink:href="#f1_7" transform="matrix(12,0,0,12,660.2,287.2)" />
<use xlink:href="#f1_8" transform="matrix(12,0,0,12,666.6,287.2)" />
<use xlink:href="#f1_f" transform="matrix(12,0,0,12,672.5,287.2)" />
<use xlink:href="#f1_m" transform="matrix(12,0,0,12,683.1,287.2)" />
<use xlink:href="#f1_p" transform="matrix(12,0,0,12,694.9,287.2)" />
<use xlink:href="#f2_11" transform="matrix(12,0,0,12,47.4,337.6)" />
<use xlink:href="#f2_16" transform="matrix(12,0,0,12,54.7,337.6)" />
<use xlink:href="#f2_12" transform="matrix(12,0,0,12,66.6,337.6)" />
<use xlink:href="#f1_1c" transform="matrix(12,0,0,12,78.7,337.6)" />
<use xlink:href="#f1_b" transform="matrix(12,0,0,12,92.6,337.6)" />
<use xlink:href="#f1_16" transform="matrix(12,0,0,12,102.5,337.6)" />
<use xlink:href="#f1_g" transform="matrix(12,0,0,12,123,337.6)" />
<use xlink:href="#f1_b" transform="matrix(12,0,0,12,128.7,337.6)" />
<use xlink:href="#f1_m" transform="matrix(12,0,0,12,138.5,337.6)" />
<use xlink:href="#f1_j" transform="matrix(12,0,0,12,150.3,337.6)" />
<use xlink:href="#f1_7" transform="matrix(12,0,0,12,160.2,337.6)" />
<use xlink:href="#f1_i" transform="matrix(12,0,0,12,166.6,337.6)" />
<use xlink:href="#f1_f" transform="matrix(12,0,0,12,183,337.6)" />
<use xlink:href="#f1_t" transform="matrix(12,0,0,12,193.5,337.6)" />
<use xlink:href="#f1_7" transform="matrix(12,0,0,12,205.1,337.6)" />
<use xlink:href="#f1_i" transform="matrix(12,0,0,12,211.5,337.6)" />
<use xlink:href="#f1_b" transform="matrix(12,0,0,12,223.1,337.6)" />
<use xlink:href="#f1_16" transform="matrix(12,0,0,12,237.7,337.6)" />
<use xlink:href="#f1_8" transform="matrix(12,0,0,12,253.5,337.6)" />
<use xlink:href="#f1_h" transform="matrix(12,0,0,12,259.3,337.6)" />
<use xlink:href="#f1_b" transform="matrix(12,0,0,12,267.9,337.6)" />
<use xlink:href="#f1_3" transform="matrix(12,0,0,12,282.5,337.6)" />
<use xlink:href="#f1_t" transform="matrix(12,0,0,12,292.8,337.6)" />
<use xlink:href="#f1_7" transform="matrix(12,0,0,12,299.6,337.6)" />
<use xlink:href="#f1_b" transform="matrix(12,0,0,12,306,337.6)" />
<use xlink:href="#f1_h" transform="matrix(12,0,0,12,315.8,337.6)" />
<use xlink:href="#f1_7" transform="matrix(12,0,0,12,329.2,337.6)" />
<use xlink:href="#f1_e" transform="matrix(12,0,0,12,335.6,337.6)" />
<use xlink:href="#f1_h" transform="matrix(12,0,0,12,347.3,337.6)" />
<use xlink:href="#f1_m" transform="matrix(12,0,0,12,355.9,337.6)" />
<use xlink:href="#f1_8" transform="matrix(12,0,0,12,367.7,337.6)" />
<use xlink:href="#f1_m" transform="matrix(12,0,0,12,373.5,337.6)" />
<use xlink:href="#f1_j" transform="matrix(12,0,0,12,385.4,337.6)" />
<use xlink:href="#f1_8" transform="matrix(12,0,0,12,400,337.6)" />
<use xlink:href="#f1_7" transform="matrix(12,0,0,12,405.8,337.6)" />
<use xlink:href="#f1_7" transform="matrix(12,0,0,12,417,337.6)" />
<use xlink:href="#f1_f" transform="matrix(12,0,0,12,423.5,337.6)" />
<use xlink:href="#f1_7" transform="matrix(12,0,0,12,438.8,337.6)" />
<use xlink:href="#f1_i" transform="matrix(12,0,0,12,445.2,337.6)" />
<use xlink:href="#f1_b" transform="matrix(12,0,0,12,456.9,337.6)" />
<use xlink:href="#f1_1c" transform="matrix(12,0,0,12,471.4,337.6)" />
<use xlink:href="#f1_f" transform="matrix(12,0,0,12,485.4,337.6)" />
<use xlink:href="#f1_h" transform="matrix(12,0,0,12,496,337.6)" />
<use xlink:href="#f1_7" transform="matrix(12,0,0,12,504.6,337.6)" />
<use xlink:href="#f1_i" transform="matrix(12,0,0,12,511,337.6)" />
<use xlink:href="#f1_b" transform="matrix(12,0,0,12,522.7,337.6)" />
<use xlink:href="#f1_3" transform="matrix(12,0,0,12,532.5,337.6)" />
<use xlink:href="#f1_9" transform="matrix(12,0,0,12,542.8,337.6)" />
<use xlink:href="#f1_7" transform="matrix(12,0,0,12,551,337.6)" />
<use xlink:href="#f1_o" transform="matrix(12,0,0,12,557.5,337.6)" />
<use xlink:href="#f1_1c" transform="matrix(12,0,0,12,563.2,337.6)" />
<use xlink:href="#f1_f" transform="matrix(12,0,0,12,577.2,337.6)" />
<use xlink:href="#f1_h" transform="matrix(12,0,0,12,587.7,337.6)" />
<use xlink:href="#f1_7" transform="matrix(12,0,0,12,596.4,337.6)" />
<use xlink:href="#f1_i" transform="matrix(12,0,0,12,602.8,337.6)" />
<use xlink:href="#f1_16" transform="matrix(12,0,0,12,614.4,337.6)" />
<use xlink:href="#f1_b" transform="matrix(12,0,0,12,630.2,337.6)" />
<use xlink:href="#f1_9" transform="matrix(12,0,0,12,640,337.6)" />
<use xlink:href="#f1_7" transform="matrix(12,0,0,12,648.3,337.6)" />
<use xlink:href="#f1_a" transform="matrix(12,0,0,12,659.5,337.6)" />
<use xlink:href="#f1_8" transform="matrix(12,0,0,12,670.7,337.6)" />
<use xlink:href="#f1_h" transform="matrix(12,0,0,12,676.6,337.6)" />
<use xlink:href="#f1_b" transform="matrix(12,0,0,12,685.2,337.6)" />
<use xlink:href="#f1_d" transform="matrix(12,0,0,12,695,337.6)" />
<use xlink:href="#f1_7" transform="matrix(12,0,0,12,704,337.6)" />
<use xlink:href="#f1_8" transform="matrix(12,0,0,12,710.5,337.6)" />
<use xlink:href="#f1_f" transform="matrix(12,0,0,12,716.3,337.6)" />
<use xlink:href="#f1_m" transform="matrix(12,0,0,12,726.9,337.6)" />
<use xlink:href="#f1_d" transform="matrix(12,0,0,12,743.5,337.6)" />
<use xlink:href="#f1_3" transform="matrix(12,0,0,12,752.5,337.6)" />
<use xlink:href="#f1_m" transform="matrix(12,0,0,12,762.8,337.6)" />
<use xlink:href="#f1_q" transform="matrix(12,0,0,12,779.4,337.6)" />
<use xlink:href="#f1_b" transform="matrix(12,0,0,12,790.6,337.6)" />
<use xlink:href="#f1_j" transform="matrix(12,0,0,12,805.2,337.6)" />
<use xlink:href="#f1_8" transform="matrix(12,0,0,12,815,337.6)" />
<use xlink:href="#f1_c" transform="matrix(12,0,0,12,820.9,337.6)" />
<use xlink:href="#f1_b" transform="matrix(12,0,0,12,831.5,337.6)" />
<use xlink:href="#f1_m" transform="matrix(12,0,0,12,841.3,337.6)" />
<use xlink:href="#f1_3" transform="matrix(12,0,0,12,47.4,369.7)" />
<use xlink:href="#f1_9" transform="matrix(12,0,0,12,57.7,369.7)" />
<use xlink:href="#f1_1j" transform="matrix(12,0,0,12,65.9,369.7)" />
</g>
</g>
<image preserveAspectRatio="none" x="47" y="397" width="97" height="64" xlink:href="img/3.png" />
<g clip-path="url(#c0_214)">
<g fill="#000000" >
<use xlink:href="#f1_1d" transform="matrix(12,0,0,12,47.4,502.6)" />
<use xlink:href="#f1_m" transform="matrix(12,0,0,12,60.3,502.6)" />
<use xlink:href="#f1_j" transform="matrix(12,0,0,12,72.1,502.6)" />
<use xlink:href="#f1_g" transform="matrix(12,0,0,12,82,502.6)" />
<use xlink:href="#f1_b" transform="matrix(12,0,0,12,87.6,502.6)" />
<use xlink:href="#f1_q" transform="matrix(12,0,0,12,102.2,502.6)" />
<use xlink:href="#f1_b" transform="matrix(12,0,0,12,113.4,502.6)" />
<use xlink:href="#f1_7" transform="matrix(12,0,0,12,123.2,502.6)" />
<use xlink:href="#f1_16" transform="matrix(12,0,0,12,129.7,502.6)" />
<use xlink:href="#f1_b" transform="matrix(12,0,0,12,145.5,502.6)" />
<use xlink:href="#f1_b" transform="matrix(12,0,0,12,155.3,502.6)" />
<use xlink:href="#f1_m" transform="matrix(12,0,0,12,165.1,502.6)" />
<use xlink:href="#f1_s" transform="matrix(12,0,0,12,181.7,502.6)" />
<use xlink:href="#f1_3" transform="matrix(12,0,0,12,199,502.6)" />
<use xlink:href="#f1_j" transform="matrix(12,0,0,12,209.3,502.6)" />
<use xlink:href="#f1_m" transform="matrix(12,0,0,12,219.1,502.6)" />
<use xlink:href="#f1_b" transform="matrix(12,0,0,12,231,502.6)" />
<use xlink:href="#f1_7" transform="matrix(12,0,0,12,240.8,502.6)" />
<use xlink:href="#f1_8" transform="matrix(12,0,0,12,247.2,502.6)" />
<use xlink:href="#f1_d" transform="matrix(12,0,0,12,253.1,502.6)" />
<use xlink:href="#f1_t" transform="matrix(12,0,0,12,266.8,502.6)" />
<use xlink:href="#f1_8" transform="matrix(12,0,0,12,273.6,502.6)" />
<use xlink:href="#f1_b" transform="matrix(12,0,0,12,279.4,502.6)" />
<use xlink:href="#f1_g" transform="matrix(12,0,0,12,289.3,502.6)" />
<use xlink:href="#f1_a" transform="matrix(12,0,0,12,294.9,502.6)" />
<use xlink:href="#f1_3" transform="matrix(12,0,0,12,310.9,502.6)" />
<use xlink:href="#f1_m" transform="matrix(12,0,0,12,321.2,502.6)" />
<use xlink:href="#f1_a" transform="matrix(12,0,0,12,333.1,502.6)" />
<use xlink:href="#f1_d" transform="matrix(12,0,0,12,349,502.6)" />
<use xlink:href="#f1_e" transform="matrix(12,0,0,12,358.1,502.6)" />
<use xlink:href="#f1_h" transform="matrix(12,0,0,12,369.7,502.6)" />
<use xlink:href="#f1_h" transform="matrix(12,0,0,12,378.3,502.6)" />
<use xlink:href="#f1_b" transform="matrix(12,0,0,12,386.9,502.6)" />
<use xlink:href="#f1_m" transform="matrix(12,0,0,12,396.7,502.6)" />
<use xlink:href="#f1_7" transform="matrix(12,0,0,12,408.6,502.6)" />
<use xlink:href="#f1_n" transform="matrix(12,0,0,12,415,502.6)" />
<use xlink:href="#f0_h" transform="matrix(12,0,0,12,424.3,502.6)" />
<use xlink:href="#f1_u" transform="matrix(12,0,0,12,439.3,502.6)" />
<use xlink:href="#f1_1l" transform="matrix(12,0,0,12,454.3,502.6)" />
<use xlink:href="#f1_1n" transform="matrix(12,0,0,12,464.6,502.6)" />
<use xlink:href="#f1_20" transform="matrix(12,0,0,12,474.8,502.6)" />
<use xlink:href="#f1_1i" transform="matrix(12,0,0,12,47.4,553.1)" />
<use xlink:href="#f1_f" transform="matrix(12,0,0,12,58.2,553.1)" />
<use xlink:href="#f1_h" transform="matrix(12,0,0,12,68.8,553.1)" />
<use xlink:href="#f1_d" transform="matrix(12,0,0,12,77.4,553.1)" />
<use xlink:href="#f1_b" transform="matrix(12,0,0,12,86.4,553.1)" />
<use xlink:href="#f1_f" transform="matrix(12,0,0,12,101,553.1)" />
<use xlink:href="#f1_m" transform="matrix(12,0,0,12,111.5,553.1)" />
<use xlink:href="#f1_7" transform="matrix(12,0,0,12,128.1,553.1)" />
<use xlink:href="#f1_i" transform="matrix(12,0,0,12,134.5,553.1)" />
<use xlink:href="#f1_b" transform="matrix(12,0,0,12,146.2,553.1)" />
<use xlink:href="#f1_16" transform="matrix(12,0,0,12,160.7,553.1)" />
<use xlink:href="#f1_8" transform="matrix(12,0,0,12,176.5,553.1)" />
<use xlink:href="#f1_h" transform="matrix(12,0,0,12,182.4,553.1)" />
<use xlink:href="#f1_b" transform="matrix(12,0,0,12,191,553.1)" />
<use xlink:href="#f1_n" transform="matrix(12,0,0,12,200.8,553.1)" />
<use xlink:href="#f0_5" transform="matrix(12,0,0,12,47.4,603.5)" />
<use xlink:href="#f1_u" transform="matrix(12,0,0,12,62.9,603.5)" />
</g>
</g>
<image preserveAspectRatio="none" x="78" y="581" width="93" height="36" xlink:href="img/4.png" />
<g clip-path="url(#c0_214)">
<g fill="#000000" >
<use xlink:href="#f0_i" transform="matrix(12,0,0,12,47.4,658.5)" />
<use xlink:href="#f0_2" transform="matrix(12,0,0,12,62.4,658.5)" />
<use xlink:href="#f0_9" transform="matrix(12,0,0,12,74.3,658.5)" />
<use xlink:href="#f0_g" transform="matrix(12,0,0,12,81.1,658.5)" />
</g>
</g>
<image preserveAspectRatio="none" x="47" y="691" width="135" height="27" xlink:href="img/5.png" />
<g clip-path="url(#c0_214)">
<g fill="#000000" >
<use xlink:href="#f1_u" transform="matrix(12,0,0,12,47.4,759.3)" />
<use xlink:href="#f1_11" transform="matrix(12,0,0,12,57.6,759.3)" />
<use xlink:href="#f1_p" transform="matrix(12,0,0,12,67.8,759.3)" />
<use xlink:href="#f1_v" transform="matrix(12,0,0,12,73.1,759.3)" />
<use xlink:href="#f1_1c" transform="matrix(12,0,0,12,88.1,759.3)" />
<use xlink:href="#f1_y" transform="matrix(12,0,0,12,47.4,809.7)" />
<use xlink:href="#f1_b" transform="matrix(12,0,0,12,61.9,809.7)" />
<use xlink:href="#f1_m" transform="matrix(12,0,0,12,71.7,809.7)" />
<use xlink:href="#f1_d" transform="matrix(12,0,0,12,83.5,809.7)" />
<use xlink:href="#f1_b" transform="matrix(12,0,0,12,92.5,809.7)" />
<use xlink:href="#f1_n" transform="matrix(12,0,0,12,102.4,809.7)" />
<use xlink:href="#f1_3" transform="matrix(12,0,0,12,111.7,809.7)" />
<use xlink:href="#f1_t" transform="matrix(12,0,0,12,126.8,809.7)" />
<use xlink:href="#f1_f" transform="matrix(12,0,0,12,133.5,809.7)" />
<use xlink:href="#f1_h" transform="matrix(12,0,0,12,144.1,809.7)" />
<use xlink:href="#f1_d" transform="matrix(12,0,0,12,152.7,809.7)" />
<use xlink:href="#f1_b" transform="matrix(12,0,0,12,161.7,809.7)" />
<use xlink:href="#f1_f" transform="matrix(12,0,0,12,176.3,809.7)" />
<use xlink:href="#f1_t" transform="matrix(12,0,0,12,186.9,809.7)" />
<use xlink:href="#f1_11" transform="matrix(12,0,0,12,198.4,809.7)" />
<use xlink:href="#f1_p" transform="matrix(12,0,0,12,208.6,809.7)" />
<use xlink:href="#f1_v" transform="matrix(12,0,0,12,213.8,809.7)" />
<use xlink:href="#f1_1c" transform="matrix(12,0,0,12,228.8,809.7)" />
<use xlink:href="#f1_3" transform="matrix(12,0,0,12,247.6,809.7)" />
<use xlink:href="#f1_d" transform="matrix(12,0,0,12,257.9,809.7)" />
<use xlink:href="#f1_7" transform="matrix(12,0,0,12,266.9,809.7)" />
<use xlink:href="#f1_9" transform="matrix(12,0,0,12,273.4,809.7)" />
<use xlink:href="#f1_c" transform="matrix(12,0,0,12,286.4,809.7)" />
<use xlink:href="#f1_b" transform="matrix(12,0,0,12,297,809.7)" />
<use xlink:href="#f1_h" transform="matrix(12,0,0,12,306.8,809.7)" />
<use xlink:href="#f1_7" transform="matrix(12,0,0,12,315.4,809.7)" />
<use xlink:href="#f1_8" transform="matrix(12,0,0,12,321.8,809.7)" />
<use xlink:href="#f1_d" transform="matrix(12,0,0,12,327.7,809.7)" />
<use xlink:href="#f1_3" transform="matrix(12,0,0,12,336.7,809.7)" />
<use xlink:href="#f1_g" transform="matrix(12,0,0,12,347,809.7)" />
<use xlink:href="#f1_g" transform="matrix(12,0,0,12,352.7,809.7)" />
<use xlink:href="#f1_r" transform="matrix(12,0,0,12,358.4,809.7)" />
<use xlink:href="#f1_a" transform="matrix(12,0,0,12,373.5,809.7)" />
<use xlink:href="#f1_f" transform="matrix(12,0,0,12,384.7,809.7)" />
<use xlink:href="#f1_16" transform="matrix(12,0,0,12,395.3,809.7)" />
<use xlink:href="#f1_m" transform="matrix(12,0,0,12,411.1,809.7)" />
<use xlink:href="#f1_16" transform="matrix(12,0,0,12,422.9,809.7)" />
<use xlink:href="#f1_3" transform="matrix(12,0,0,12,438.7,809.7)" />
<use xlink:href="#f1_h" transform="matrix(12,0,0,12,449,809.7)" />
<use xlink:href="#f1_a" transform="matrix(12,0,0,12,457.6,809.7)" />
<use xlink:href="#f1_f" transform="matrix(12,0,0,12,473.6,809.7)" />
<use xlink:href="#f1_m" transform="matrix(12,0,0,12,484.2,809.7)" />
<use xlink:href="#f1_7" transform="matrix(12,0,0,12,500.7,809.7)" />
<use xlink:href="#f1_i" transform="matrix(12,0,0,12,507.2,809.7)" />
<use xlink:href="#f1_b" transform="matrix(12,0,0,12,518.8,809.7)" />
<use xlink:href="#f1_16" transform="matrix(12,0,0,12,533.4,809.7)" />
<use xlink:href="#f1_8" transform="matrix(12,0,0,12,549.1,809.7)" />
<use xlink:href="#f1_h" transform="matrix(12,0,0,12,555,809.7)" />
<use xlink:href="#f1_b" transform="matrix(12,0,0,12,563.6,809.7)" />
<use xlink:href="#f1_p" transform="matrix(12,0,0,12,573.4,809.7)" />
<use xlink:href="#f1_19" transform="matrix(12,0,0,12,583.4,809.7)" />
<use xlink:href="#f1_i" transform="matrix(12,0,0,12,594.6,809.7)" />
<use xlink:href="#f1_8" transform="matrix(12,0,0,12,606.2,809.7)" />
<use xlink:href="#f1_9" transform="matrix(12,0,0,12,612.1,809.7)" />
<use xlink:href="#f1_8" transform="matrix(12,0,0,12,625.1,809.7)" />
<use xlink:href="#f1_9" transform="matrix(12,0,0,12,630.9,809.7)" />
<use xlink:href="#f1_8" transform="matrix(12,0,0,12,644,809.7)" />
<use xlink:href="#f1_m" transform="matrix(12,0,0,12,649.8,809.7)" />
<use xlink:href="#f1_a" transform="matrix(12,0,0,12,661.6,809.7)" />
<use xlink:href="#f1_b" transform="matrix(12,0,0,12,672.9,809.7)" />
<use xlink:href="#f1_k" transform="matrix(12,0,0,12,682.7,809.7)" />
<use xlink:href="#f1_b" transform="matrix(12,0,0,12,693.9,809.7)" />
<use xlink:href="#f1_m" transform="matrix(12,0,0,12,703.7,809.7)" />
<use xlink:href="#f1_a" transform="matrix(12,0,0,12,715.5,809.7)" />
<use xlink:href="#f1_b" transform="matrix(12,0,0,12,726.8,809.7)" />
<use xlink:href="#f1_m" transform="matrix(12,0,0,12,736.6,809.7)" />
<use xlink:href="#f1_7" transform="matrix(12,0,0,12,748.4,809.7)" />
<use xlink:href="#f1_f" transform="matrix(12,0,0,12,759.6,809.7)" />
<use xlink:href="#f1_t" transform="matrix(12,0,0,12,770.2,809.7)" />
<use xlink:href="#f1_3" transform="matrix(12,0,0,12,781.7,809.7)" />
<use xlink:href="#f1_m" transform="matrix(12,0,0,12,792,809.7)" />
<use xlink:href="#f1_j" transform="matrix(12,0,0,12,803.8,809.7)" />
<use xlink:href="#f1_g" transform="matrix(12,0,0,12,813.7,809.7)" />
<use xlink:href="#f1_b" transform="matrix(12,0,0,12,819.4,809.7)" />
</g>
</g>
<image preserveAspectRatio="none" x="834" y="791" width="20" height="28" xlink:href="img/6.png" />
<g clip-path="url(#c0_214)">
<g fill="#000000" >
<use xlink:href="#f1_q" transform="matrix(12,0,0,12,47.4,841.8)" />
<use xlink:href="#f1_b" transform="matrix(12,0,0,12,58.6,841.8)" />
<use xlink:href="#f1_d" transform="matrix(12,0,0,12,68.4,841.8)" />
<use xlink:href="#f1_3" transform="matrix(12,0,0,12,77.4,841.8)" />
<use xlink:href="#f1_e" transform="matrix(12,0,0,12,87.8,841.8)" />
<use xlink:href="#f1_9" transform="matrix(12,0,0,12,99.4,841.8)" />
<use xlink:href="#f1_b" transform="matrix(12,0,0,12,107.6,841.8)" />
</g>
</g>
<image preserveAspectRatio="none" x="122" y="823" width="64" height="28" xlink:href="img/7.png" />
<g clip-path="url(#c0_214)">
<g fill="#000000" >
<use xlink:href="#f1_8" transform="matrix(12,0,0,12,186.4,841.8)" />
<use xlink:href="#f1_9" transform="matrix(12,0,0,12,192.2,841.8)" />
<use xlink:href="#f1_t" transform="matrix(12,0,0,12,205.2,841.8)" />
<use xlink:href="#f1_8" transform="matrix(12,0,0,12,212,841.8)" />
<use xlink:href="#f1_18" transform="matrix(12,0,0,12,217.8,841.8)" />
<use xlink:href="#f1_b" transform="matrix(12,0,0,12,228.4,841.8)" />
<use xlink:href="#f1_a" transform="matrix(12,0,0,12,238.2,841.8)" />
<use xlink:href="#f1_p" transform="matrix(12,0,0,12,249.5,841.8)" />
<use xlink:href="#f2_11" transform="matrix(12,0,0,12,47.4,892.2)" />
<use xlink:href="#f2_o" transform="matrix(12,0,0,12,54.7,892.2)" />
<use xlink:href="#f2_12" transform="matrix(12,0,0,12,64.3,892.2)" />
<use xlink:href="#f1_19" transform="matrix(12,0,0,12,76.4,892.2)" />
<use xlink:href="#f1_i" transform="matrix(12,0,0,12,87.6,892.2)" />
<use xlink:href="#f1_b" transform="matrix(12,0,0,12,99.3,892.2)" />
<use xlink:href="#f1_16" transform="matrix(12,0,0,12,113.8,892.2)" />
<use xlink:href="#f1_8" transform="matrix(12,0,0,12,129.6,892.2)" />
<use xlink:href="#f1_h" transform="matrix(12,0,0,12,135.4,892.2)" />
<use xlink:href="#f1_b" transform="matrix(12,0,0,12,144.1,892.2)" />
<use xlink:href="#f1_8" transform="matrix(12,0,0,12,158.6,892.2)" />
<use xlink:href="#f1_9" transform="matrix(12,0,0,12,164.5,892.2)" />
<use xlink:href="#f1_g" transform="matrix(12,0,0,12,177.5,892.2)" />
<use xlink:href="#f1_f" transform="matrix(12,0,0,12,183.2,892.2)" />
<use xlink:href="#f1_16" transform="matrix(12,0,0,12,193.7,892.2)" />
<use xlink:href="#f1_b" transform="matrix(12,0,0,12,209.5,892.2)" />
<use xlink:href="#f1_h" transform="matrix(12,0,0,12,219.3,892.2)" />
<use xlink:href="#f1_b" transform="matrix(12,0,0,12,227.9,892.2)" />
<use xlink:href="#f1_a" transform="matrix(12,0,0,12,237.8,892.2)" />
<use xlink:href="#f1_t" transform="matrix(12,0,0,12,253.8,892.2)" />
<use xlink:href="#f1_h" transform="matrix(12,0,0,12,260.5,892.2)" />
<use xlink:href="#f1_f" transform="matrix(12,0,0,12,269.1,892.2)" />
<use xlink:href="#f1_s" transform="matrix(12,0,0,12,279.7,892.2)" />
<use xlink:href="#f1_7" transform="matrix(12,0,0,12,301.8,892.2)" />
<use xlink:href="#f1_i" transform="matrix(12,0,0,12,308.2,892.2)" />
<use xlink:href="#f1_b" transform="matrix(12,0,0,12,319.8,892.2)" />
<use xlink:href="#f1_3" transform="matrix(12,0,0,12,334.4,892.2)" />
<use xlink:href="#f1_18" transform="matrix(12,0,0,12,344.7,892.2)" />
<use xlink:href="#f1_8" transform="matrix(12,0,0,12,355.3,892.2)" />
<use xlink:href="#f1_9" transform="matrix(12,0,0,12,361.2,892.2)" />
<use xlink:href="#f1_q" transform="matrix(12,0,0,12,374.2,892.2)" />
<use xlink:href="#f1_r" transform="matrix(12,0,0,12,385.4,892.2)" />
<use xlink:href="#f1_a" transform="matrix(12,0,0,12,400.5,892.2)" />
<use xlink:href="#f1_8" transform="matrix(12,0,0,12,411.7,892.2)" />
<use xlink:href="#f1_9" transform="matrix(12,0,0,12,417.6,892.2)" />
<use xlink:href="#f1_7" transform="matrix(12,0,0,12,425.8,892.2)" />
<use xlink:href="#f1_3" transform="matrix(12,0,0,12,432.3,892.2)" />
<use xlink:href="#f1_m" transform="matrix(12,0,0,12,442.6,892.2)" />
<use xlink:href="#f1_d" transform="matrix(12,0,0,12,454.4,892.2)" />
<use xlink:href="#f1_b" transform="matrix(12,0,0,12,463.4,892.2)" />
<use xlink:href="#f1_n" transform="matrix(12,0,0,12,473.3,892.2)" />
<use xlink:href="#f0_b" transform="matrix(12,0,0,12,482.6,892.2)" />
<use xlink:href="#f1_u" transform="matrix(12,0,0,12,497.9,892.2)" />
<use xlink:href="#f1_10" transform="matrix(12,0,0,12,512.9,892.2)" />
<use xlink:href="#f1_p" transform="matrix(12,0,0,12,523.2,892.2)" />
<use xlink:href="#f1_w" transform="matrix(12,0,0,12,528.4,892.2)" />
<use xlink:href="#f1_d" transform="matrix(12,0,0,12,543.4,892.2)" />
<use xlink:href="#f1_s" transform="matrix(12,0,0,12,552.4,892.2)" />
<use xlink:href="#f1_14" transform="matrix(12,0,0,12,47.4,942.6)" />
<use xlink:href="#f1_e" transform="matrix(12,0,0,12,57.3,942.6)" />
<use xlink:href="#f1_k" transform="matrix(12,0,0,12,68.9,942.6)" />
<use xlink:href="#f1_k" transform="matrix(12,0,0,12,80.2,942.6)" />
<use xlink:href="#f1_f" transform="matrix(12,0,0,12,91.4,942.6)" />
<use xlink:href="#f1_9" transform="matrix(12,0,0,12,102,942.6)" />
<use xlink:href="#f1_b" transform="matrix(12,0,0,12,110.3,942.6)" />
<use xlink:href="#f1_16" transform="matrix(12,0,0,12,124.8,942.6)" />
<use xlink:href="#f1_8" transform="matrix(12,0,0,12,140.6,942.6)" />
<use xlink:href="#f1_h" transform="matrix(12,0,0,12,146.5,942.6)" />
<use xlink:href="#f1_b" transform="matrix(12,0,0,12,155.1,942.6)" />
<use xlink:href="#f1_8" transform="matrix(12,0,0,12,169.6,942.6)" />
<use xlink:href="#f1_9" transform="matrix(12,0,0,12,175.5,942.6)" />
<use xlink:href="#f1_k" transform="matrix(12,0,0,12,188.5,942.6)" />
<use xlink:href="#f1_3" transform="matrix(12,0,0,12,199.7,942.6)" />
<use xlink:href="#f1_9" transform="matrix(12,0,0,12,210,942.6)" />
<use xlink:href="#f1_9" transform="matrix(12,0,0,12,218.3,942.6)" />
<use xlink:href="#f1_8" transform="matrix(12,0,0,12,226.6,942.6)" />
<use xlink:href="#f1_m" transform="matrix(12,0,0,12,232.4,942.6)" />
<use xlink:href="#f1_j" transform="matrix(12,0,0,12,244.2,942.6)" />
<use xlink:href="#f1_k" transform="matrix(12,0,0,12,258.8,942.6)" />
<use xlink:href="#f1_b" transform="matrix(12,0,0,12,270.1,942.6)" />
<use xlink:href="#f1_h" transform="matrix(12,0,0,12,279.9,942.6)" />
<use xlink:href="#f1_k" transform="matrix(12,0,0,12,288.5,942.6)" />
<use xlink:href="#f1_b" transform="matrix(12,0,0,12,299.8,942.6)" />
<use xlink:href="#f1_m" transform="matrix(12,0,0,12,309.6,942.6)" />
<use xlink:href="#f1_a" transform="matrix(12,0,0,12,321.4,942.6)" />
<use xlink:href="#f1_8" transform="matrix(12,0,0,12,332.6,942.6)" />
<use xlink:href="#f1_d" transform="matrix(12,0,0,12,338.5,942.6)" />
<use xlink:href="#f1_e" transform="matrix(12,0,0,12,347.5,942.6)" />
<use xlink:href="#f1_g" transform="matrix(12,0,0,12,359.1,942.6)" />
<use xlink:href="#f1_3" transform="matrix(12,0,0,12,364.8,942.6)" />
<use xlink:href="#f1_h" transform="matrix(12,0,0,12,375.1,942.6)" />
<use xlink:href="#f1_g" transform="matrix(12,0,0,12,383.7,942.6)" />
<use xlink:href="#f1_r" transform="matrix(12,0,0,12,389.4,942.6)" />
<use xlink:href="#f1_7" transform="matrix(12,0,0,12,404.5,942.6)" />
<use xlink:href="#f1_f" transform="matrix(12,0,0,12,410.9,942.6)" />
<use xlink:href="#f1_7" transform="matrix(12,0,0,12,426.3,942.6)" />
<use xlink:href="#f1_i" transform="matrix(12,0,0,12,432.7,942.6)" />
<use xlink:href="#f1_b" transform="matrix(12,0,0,12,444.3,942.6)" />
<use xlink:href="#f1_3" transform="matrix(12,0,0,12,458.9,942.6)" />
<use xlink:href="#f1_18" transform="matrix(12,0,0,12,469.2,942.6)" />
<use xlink:href="#f1_8" transform="matrix(12,0,0,12,479.8,942.6)" />
<use xlink:href="#f1_9" transform="matrix(12,0,0,12,485.7,942.6)" />
<use xlink:href="#f1_f" transform="matrix(12,0,0,12,498.7,942.6)" />
<use xlink:href="#f1_t" transform="matrix(12,0,0,12,509.3,942.6)" />
<use xlink:href="#f1_d" transform="matrix(12,0,0,12,520.8,942.6)" />
<use xlink:href="#f1_r" transform="matrix(12,0,0,12,529.8,942.6)" />
<use xlink:href="#f1_g" transform="matrix(12,0,0,12,540.1,942.6)" />
<use xlink:href="#f1_8" transform="matrix(12,0,0,12,545.8,942.6)" />
<use xlink:href="#f1_m" transform="matrix(12,0,0,12,551.6,942.6)" />
<use xlink:href="#f1_a" transform="matrix(12,0,0,12,563.5,942.6)" />
<use xlink:href="#f1_h" transform="matrix(12,0,0,12,574.7,942.6)" />
<use xlink:href="#f1_8" transform="matrix(12,0,0,12,583.3,942.6)" />
<use xlink:href="#f1_d" transform="matrix(12,0,0,12,589.2,942.6)" />
<use xlink:href="#f1_3" transform="matrix(12,0,0,12,598.2,942.6)" />
<use xlink:href="#f1_g" transform="matrix(12,0,0,12,608.5,942.6)" />
<use xlink:href="#f1_s" transform="matrix(12,0,0,12,618.9,942.6)" />
<use xlink:href="#f1_3" transform="matrix(12,0,0,12,636.2,942.6)" />
<use xlink:href="#f1_j" transform="matrix(12,0,0,12,646.6,942.6)" />
<use xlink:href="#f1_m" transform="matrix(12,0,0,12,656.4,942.6)" />
<use xlink:href="#f1_b" transform="matrix(12,0,0,12,668.2,942.6)" />
<use xlink:href="#f1_7" transform="matrix(12,0,0,12,678,942.6)" />
<use xlink:href="#f1_8" transform="matrix(12,0,0,12,684.5,942.6)" />
<use xlink:href="#f1_d" transform="matrix(12,0,0,12,690.3,942.6)" />
<use xlink:href="#f1_t" transform="matrix(12,0,0,12,704.1,942.6)" />
<use xlink:href="#f1_8" transform="matrix(12,0,0,12,710.9,942.6)" />
<use xlink:href="#f1_b" transform="matrix(12,0,0,12,716.7,942.6)" />
<use xlink:href="#f1_g" transform="matrix(12,0,0,12,726.5,942.6)" />
<use xlink:href="#f1_a" transform="matrix(12,0,0,12,732.2,942.6)" />
<use xlink:href="#f1_7" transform="matrix(12,0,0,12,748.2,942.6)" />
<use xlink:href="#f1_i" transform="matrix(12,0,0,12,754.7,942.6)" />
<use xlink:href="#f1_b" transform="matrix(12,0,0,12,766.3,942.6)" />
<use xlink:href="#f1_m" transform="matrix(12,0,0,12,776.1,942.6)" />
<use xlink:href="#f1_g" transform="matrix(12,0,0,12,47.4,974.7)" />
<use xlink:href="#f1_f" transform="matrix(12,0,0,12,53,974.7)" />
<use xlink:href="#f1_16" transform="matrix(12,0,0,12,63.6,974.7)" />
<use xlink:href="#f1_b" transform="matrix(12,0,0,12,79.4,974.7)" />
<use xlink:href="#f1_h" transform="matrix(12,0,0,12,89.2,974.7)" />
<use xlink:href="#f1_8" transform="matrix(12,0,0,12,97.8,974.7)" />
<use xlink:href="#f1_m" transform="matrix(12,0,0,12,103.7,974.7)" />
<use xlink:href="#f1_j" transform="matrix(12,0,0,12,115.5,974.7)" />
<use xlink:href="#f1_10" transform="matrix(12,0,0,12,130.1,974.7)" />
<use xlink:href="#f1_d" transform="matrix(12,0,0,12,145.1,974.7)" />
<use xlink:href="#f1_s" transform="matrix(12,0,0,12,154.1,974.7)" />
<use xlink:href="#f1_s" transform="matrix(12,0,0,12,176.2,974.7)" />
<use xlink:href="#f1_b" transform="matrix(12,0,0,12,193.5,974.7)" />
<use xlink:href="#f1_3" transform="matrix(12,0,0,12,203.3,974.7)" />
<use xlink:href="#f1_m" transform="matrix(12,0,0,12,213.6,974.7)" />
<use xlink:href="#f1_9" transform="matrix(12,0,0,12,225.4,974.7)" />
<use xlink:href="#f1_a" transform="matrix(12,0,0,12,238.4,974.7)" />
<use xlink:href="#f1_8" transform="matrix(12,0,0,12,249.7,974.7)" />
<use xlink:href="#f1_9" transform="matrix(12,0,0,12,255.5,974.7)" />
<use xlink:href="#f1_k" transform="matrix(12,0,0,12,263.8,974.7)" />
<use xlink:href="#f1_g" transform="matrix(12,0,0,12,275,974.7)" />
<use xlink:href="#f1_3" transform="matrix(12,0,0,12,280.7,974.7)" />
<use xlink:href="#f1_d" transform="matrix(12,0,0,12,291,974.7)" />
<use xlink:href="#f1_8" transform="matrix(12,0,0,12,300,974.7)" />
<use xlink:href="#f1_m" transform="matrix(12,0,0,12,305.9,974.7)" />
<use xlink:href="#f1_j" transform="matrix(12,0,0,12,317.7,974.7)" />
<use xlink:href="#f1_7" transform="matrix(12,0,0,12,332.3,974.7)" />
<use xlink:href="#f1_i" transform="matrix(12,0,0,12,338.8,974.7)" />
<use xlink:href="#f1_b" transform="matrix(12,0,0,12,350.4,974.7)" />
<use xlink:href="#f1_16" transform="matrix(12,0,0,12,364.9,974.7)" />
<use xlink:href="#f1_8" transform="matrix(12,0,0,12,380.7,974.7)" />
<use xlink:href="#f1_h" transform="matrix(12,0,0,12,386.6,974.7)" />
<use xlink:href="#f1_b" transform="matrix(12,0,0,12,395.2,974.7)" />
<use xlink:href="#f1_10" transform="matrix(12,0,0,12,409.8,974.7)" />
<use xlink:href="#f1_d" transform="matrix(12,0,0,12,424.7,974.7)" />
<use xlink:href="#f1_s" transform="matrix(12,0,0,12,433.8,974.7)" />
<use xlink:href="#f1_t" transform="matrix(12,0,0,12,455.8,974.7)" />
<use xlink:href="#f1_h" transform="matrix(12,0,0,12,462.6,974.7)" />
<use xlink:href="#f1_f" transform="matrix(12,0,0,12,471.2,974.7)" />
<use xlink:href="#f1_s" transform="matrix(12,0,0,12,481.8,974.7)" />
<use xlink:href="#f1_8" transform="matrix(12,0,0,12,503.8,974.7)" />
<use xlink:href="#f1_7" transform="matrix(12,0,0,12,509.7,974.7)" />
<use xlink:href="#f1_9" transform="matrix(12,0,0,12,516.1,974.7)" />
<use xlink:href="#f1_8" transform="matrix(12,0,0,12,529.1,974.7)" />
<use xlink:href="#f1_m" transform="matrix(12,0,0,12,535,974.7)" />
<use xlink:href="#f1_8" transform="matrix(12,0,0,12,546.8,974.7)" />
<use xlink:href="#f1_7" transform="matrix(12,0,0,12,552.6,974.7)" />
<use xlink:href="#f1_8" transform="matrix(12,0,0,12,559.1,974.7)" />
<use xlink:href="#f1_3" transform="matrix(12,0,0,12,564.9,974.7)" />
<use xlink:href="#f1_g" transform="matrix(12,0,0,12,575.3,974.7)" />
<use xlink:href="#f1_k" transform="matrix(12,0,0,12,585.7,974.7)" />
<use xlink:href="#f1_f" transform="matrix(12,0,0,12,596.9,974.7)" />
<use xlink:href="#f1_9" transform="matrix(12,0,0,12,607.5,974.7)" />
<use xlink:href="#f1_8" transform="matrix(12,0,0,12,615.8,974.7)" />
<use xlink:href="#f1_7" transform="matrix(12,0,0,12,621.6,974.7)" />
<use xlink:href="#f1_8" transform="matrix(12,0,0,12,628.1,974.7)" />
<use xlink:href="#f1_f" transform="matrix(12,0,0,12,633.9,974.7)" />
<use xlink:href="#f1_m" transform="matrix(12,0,0,12,644.5,974.7)" />
<use xlink:href="#f1_7" transform="matrix(12,0,0,12,661.1,974.7)" />
<use xlink:href="#f1_f" transform="matrix(12,0,0,12,667.5,974.7)" />
<use xlink:href="#f1_16" transform="matrix(12,0,0,12,678.1,974.7)" />
<use xlink:href="#f1_3" transform="matrix(12,0,0,12,693.9,974.7)" />
<use xlink:href="#f1_h" transform="matrix(12,0,0,12,704.2,974.7)" />
<use xlink:href="#f1_a" transform="matrix(12,0,0,12,712.8,974.7)" />
<use xlink:href="#f1_9" transform="matrix(12,0,0,12,724,974.7)" />
<use xlink:href="#f1_7" transform="matrix(12,0,0,12,737,974.7)" />
<use xlink:href="#f1_f" transform="matrix(12,0,0,12,743.5,974.7)" />
<use xlink:href="#f1_b" transform="matrix(12,0,0,12,758.8,974.7)" />
<use xlink:href="#f1_m" transform="matrix(12,0,0,12,768.6,974.7)" />
<use xlink:href="#f1_a" transform="matrix(12,0,0,12,780.4,974.7)" />
<use xlink:href="#f1_f" transform="matrix(12,0,0,12,796.4,974.7)" />
<use xlink:href="#f1_t" transform="matrix(12,0,0,12,807,974.7)" />
<use xlink:href="#f1_d" transform="matrix(12,0,0,12,47.4,1006.8)" />
<use xlink:href="#f1_h" transform="matrix(12,0,0,12,56.4,1006.8)" />
<use xlink:href="#f1_f" transform="matrix(12,0,0,12,65,1006.8)" />
<use xlink:href="#f1_9" transform="matrix(12,0,0,12,75.6,1006.8)" />
<use xlink:href="#f1_9" transform="matrix(12,0,0,12,83.8,1006.8)" />
<use xlink:href="#f1_9" transform="matrix(12,0,0,12,96.8,1006.8)" />
<use xlink:href="#f1_b" transform="matrix(12,0,0,12,105.1,1006.8)" />
<use xlink:href="#f1_d" transform="matrix(12,0,0,12,114.9,1006.8)" />
<use xlink:href="#f1_7" transform="matrix(12,0,0,12,123.9,1006.8)" />
<use xlink:href="#f1_8" transform="matrix(12,0,0,12,130.4,1006.8)" />
<use xlink:href="#f1_f" transform="matrix(12,0,0,12,136.2,1006.8)" />
<use xlink:href="#f1_m" transform="matrix(12,0,0,12,146.8,1006.8)" />
<use xlink:href="#f1_3" transform="matrix(12,0,0,12,158.6,1006.8)" />
<use xlink:href="#f1_g" transform="matrix(12,0,0,12,168.9,1006.8)" />
<use xlink:href="#f1_3" transform="matrix(12,0,0,12,179.4,1006.8)" />
<use xlink:href="#f1_h" transform="matrix(12,0,0,12,189.7,1006.8)" />
<use xlink:href="#f1_b" transform="matrix(12,0,0,12,198.3,1006.8)" />
<use xlink:href="#f1_3" transform="matrix(12,0,0,12,208.1,1006.8)" />
<use xlink:href="#f1_p" transform="matrix(12,0,0,12,218.4,1006.8)" />
</g>
</g>
<g fill="#000000" >
<use xlink:href="#f3_o" transform="matrix(8,0,0,8,785.4,1275.3)" />
<use xlink:href="#f3_l" transform="matrix(8,0,0,8,792.2,1275.3)" />
</g>
<defs>
<path d="M-31,0l12,64H0c0,0,72,0,103,25c0,0,31,24,45,77L309,923c0,0,5,27,6,42c0,0,0,61,-111,61H185l13,65H968L920,824H840l3,26c0,0,1,15,2,27c0,0,3,25,3,35c0,0,0,102,-115,103H483L388,573H756L741,498H373L304,174c0,0,-6,-25,-5,-38c0,0,-1,-72,106,-72h50L443,0Z" 
id="f0_5"
transform="scale(0.001,-0.001)" />

<path d="M99,350v90H755V350Zm0,300v91H755V650Z" 
id="f1_u"
transform="scale(0.001,-0.001)" />

<path d="M431,76c3,0,292,1,292,283c0,0,-1,174,-214,174H380L283,76H431Zm82,533c0,0,272,0,273,232c0,0,0,174,-212,174H483L395,609ZM450,0c-1,0,-2,0,-2,0H-31l12,64H0c0,0,126,0,150,110L309,923c0,0,5,27,6,42c0,0,0,61,-111,61H185l13,65H595c0,0,356,0,357,-229c0,0,0,-226,-249,-285l-2,-6c0,0,187,-37,187,-223c0,0,0,-167,-113,-258C775,90,663,0,450,0Z" 
id="f0_2"
transform="scale(0.001,-0.001)" />

<path d="M-31,0l12,64H0c0,0,126,0,150,110L309,923c0,0,5,27,6,42c0,0,0,61,-111,61H185l13,65H643l-13,-65H609c0,0,-73,0,-105,-27c0,0,-33,-28,-43,-82L303,168c0,0,-7,-33,-7,-43c0,0,-1,-61,109,-61c0,0,1,0,2,0h19L413,0Z" 
id="f0_9"
transform="scale(0.001,-0.001)" />

<path d="M238,-14c0,0,-56,0,-90,39c0,0,-36,41,-36,105c0,0,0,72,33,240L270,956c0,0,10,45,10,69c0,0,0,72,-108,72H154l14,64H457L280,328c0,0,-24,-109,-23,-169c0,0,0,-78,50,-78c0,0,44,0,110,40L445,76c0,0,-107,-90,-207,-90Z" 
id="f0_g"
transform="scale(0.001,-0.001)" />

<path d="M78,0V112L333,407c0,0,61,70,103,126c0,0,40,56,66,106c0,0,25,49,37,97c0,0,11,47,11,100c0,0,0,43,-9,79c0,0,-11,35,-29,61c0,0,-19,25,-48,40c0,0,-31,13,-70,13c0,0,-53,0,-84,-18c0,0,-33,-20,-52,-50c0,0,-19,-31,-25,-73c0,0,-7,-41,-7,-86c0,0,-28,0,-51,4c0,0,-24,4,-42,17c0,0,-18,11,-28,30c0,0,-10,19,-10,48c0,0,0,43,19,82c0,0,19,37,57,65c0,0,36,28,93,43c0,0,56,15,130,15c0,0,72,0,130,-18c0,0,56,-19,97,-51c0,0,41,-34,62,-81c0,0,21,-47,21,-105c0,0,-1,-54,-17,-104c0,0,-18,-52,-50,-104c0,0,-33,-54,-80,-111c0,0,-48,-58,-108,-124L191,122H545c7,0,36,1,56,10c0,0,21,10,36,25c0,0,14,15,22,37c0,0,7,20,13,42l6,28h61V0Z" 
id="f1_11"
transform="scale(0.001,-0.001)" />

<path d="M222,-9c-1,0,-2,0,-3,0c0,0,-1,0,-3,0c-6,0,-22,0,-35,5c0,0,-18,4,-30,16c0,0,-14,12,-21,32c0,0,-8,20,-8,49c0,0,0,30,8,50c0,0,7,19,21,32c0,0,12,11,30,17c0,0,17,5,38,5c0,0,18,0,37,-5c0,0,16,-6,30,-17c0,0,12,-13,21,-32c0,0,8,-20,8,-50c0,0,0,-29,-8,-49c0,0,-9,-20,-21,-32C286,12,272,0,256,-4c0,0,-17,-5,-34,-5Z" 
id="f1_p"
transform="scale(0.001,-0.001)" />

<path d="M147,0V64H249c0,0,26,0,49,4c0,0,23,3,40,16c0,0,16,11,27,32c0,0,9,21,9,58V976c0,0,-29,-35,-55,-64c0,0,-27,-29,-50,-50c0,0,-24,-22,-46,-32c0,0,-22,-12,-44,-12c0,0,-1,0,-1,0c0,0,-1,0,-1,0c-3,0,-35,0,-55,23c0,0,-21,21,-21,59c0,0,23,5,47,15c0,0,23,7,50,22c0,0,25,13,57,34c0,0,30,18,69,47l107,79h98V174c0,0,-1,-37,10,-58c0,0,9,-21,26,-32c0,0,17,-13,41,-16c0,0,22,-4,48,-4h75V0Z" 
id="f1_v"
transform="scale(0.001,-0.001)" />

<path d="M58,0V64H78c0,0,25,0,49,4c0,0,22,3,39,16c0,0,17,11,27,32c0,0,10,21,10,58V923c0,0,0,33,-10,54c0,0,-11,20,-27,32c0,0,-18,11,-40,14c0,0,-24,3,-48,3H58v65H338L885,246V923c0,0,0,33,-10,54c0,0,-11,20,-28,32c0,0,-17,11,-39,14c0,0,-24,3,-49,3H739v65h384v-65h-20c0,0,-26,0,-48,-3c0,0,-24,-4,-40,-15c0,0,-18,-13,-27,-34c0,0,-11,-21,-10,-57V0H869L296,880V174c0,0,0,-37,11,-58c0,0,9,-21,26,-32c0,0,16,-13,40,-16c0,0,22,-4,48,-4h21V0Z" 
id="f1_1c"
transform="scale(0.001,-0.001)" />

<path d="M58,0V64H78c0,0,25,0,49,4c0,0,22,3,39,16c0,0,17,11,27,32c0,0,10,21,10,58V923c0,0,0,33,-10,54c0,0,-11,20,-27,32c0,0,-18,11,-40,14c0,0,-24,3,-48,3H58v65H503v-65H483c0,0,-26,0,-49,-3c0,0,-24,-4,-39,-15c0,0,-18,-13,-27,-34c0,0,-11,-21,-11,-57V608H854V917c0,0,0,36,-10,57c0,0,-10,21,-26,34c0,0,-18,11,-40,15c0,0,-24,3,-49,3H709v65h444v-65h-19c0,0,-26,0,-49,-3c0,0,-23,-4,-40,-15c0,0,-17,-13,-27,-34c0,0,-10,-21,-9,-57V166c0,0,0,-33,10,-53c0,0,10,-22,27,-32c0,0,16,-10,40,-13c0,0,22,-4,48,-4h19V0H709V64h20c0,0,25,0,49,4c0,0,22,3,40,16c0,0,16,11,26,32c0,0,10,21,10,58V532H357V174c0,0,0,-37,11,-58c0,0,9,-21,27,-32c0,0,15,-13,39,-16c0,0,23,-4,49,-4h20V0Z" 
id="f1_y"
transform="scale(0.001,-0.001)" />

<path d="M586,481c0,0,0,60,-9,111c0,0,-9,50,-29,85c0,0,-19,36,-51,56c0,0,-33,18,-79,19c0,0,-87,-1,-133,-69c0,0,-46,-69,-46,-202ZM439,-14c0,0,-83,0,-149,27c0,0,-66,28,-112,82c0,0,-46,53,-69,132c0,0,-25,77,-25,177c0,0,0,213,88,322c0,0,88,108,251,108c0,0,73,0,133,-23c0,0,58,-24,100,-69c0,0,41,-46,63,-114c0,0,21,-69,22,-159V399H233c0,0,0,-84,15,-143c0,0,15,-61,44,-99c0,0,28,-40,71,-57c0,0,40,-19,93,-19c1,0,2,0,4,0c0,0,38,0,73,9c0,0,33,9,62,24c0,0,26,14,48,34c0,0,21,18,35,40c0,0,10,-4,20,-19c0,0,9,-15,9,-33c0,0,0,-24,-16,-49c0,0,-17,-27,-50,-50C641,37,607,14,557,0c0,0,-50,-14,-118,-14Z" 
id="f1_b"
transform="scale(0.001,-0.001)" />

<path d="M43,0V64H55c0,0,26,0,49,4c0,0,23,3,40,16c0,0,16,11,27,32c0,0,10,21,10,58V650c0,0,0,33,-10,55c0,0,-11,20,-28,31c0,0,-17,11,-39,15c0,0,-24,3,-49,4H51v64H298L318,695h7c0,0,23,42,51,70c0,0,25,27,56,43c0,0,29,14,63,21c0,0,32,5,69,5c0,0,60,-1,108,-17c0,0,47,-18,81,-54c0,0,32,-37,50,-93c0,0,17,-58,18,-135V174c0,0,0,-37,9,-58c0,0,7,-21,23,-32c0,0,16,-13,38,-16c0,0,21,-4,47,-4h5V0H677V527c0,0,0,50,-9,89c0,0,-10,39,-29,66c0,0,-20,26,-52,41c0,0,-33,13,-78,13c0,0,-53,0,-88,-20c0,0,-36,-20,-57,-54c0,0,-22,-35,-31,-79c0,0,-10,-45,-9,-94V166c0,0,0,-33,10,-53c0,0,10,-22,27,-32c0,0,16,-10,40,-13c0,0,22,-4,48,-4h5V0Z" 
id="f1_m"
transform="scale(0.001,-0.001)" />

<path d="M433,-14c0,0,-77,0,-141,23c0,0,-64,23,-110,74c0,0,-46,50,-72,130c0,0,-26,79,-26,192c0,0,0,122,26,205c0,0,26,82,72,132c0,0,46,49,108,71c0,0,61,21,134,21c0,0,47,0,96,-9c0,0,47,-10,85,-29c0,0,38,-19,62,-49c0,0,23,-30,24,-69c0,0,0,-54,-35,-74c0,0,-35,-22,-102,-22c0,0,0,35,-6,68c0,0,-6,32,-20,56c0,0,-15,24,-39,38c0,0,-26,14,-65,14c0,0,-44,0,-79,-16c0,0,-35,-18,-61,-57c0,0,-26,-40,-39,-108c0,0,-13,-69,-13,-170c0,0,-1,-164,54,-243c0,0,54,-80,177,-80h1c6,0,72,1,123,30c0,0,52,30,79,77c0,0,11,-10,19,-24c0,0,7,-15,7,-36c0,0,0,-27,-16,-52c0,0,-17,-26,-49,-47C627,32,594,10,546,0c0,0,-48,-14,-113,-14Z" 
id="f1_d"
transform="scale(0.001,-0.001)" />

<path d="M46,-234v64c0,0,74,23,110,58c0,0,34,35,35,79c0,0,-1,15,-8,26c0,0,-9,8,-21,17c0,0,-13,6,-27,15c0,0,-15,7,-27,18c0,0,-13,9,-21,26c0,0,-8,14,-8,38c0,0,0,43,29,67c0,0,28,23,71,23c0,0,23,-1,45,-8c0,0,20,-9,37,-26c0,0,16,-17,26,-41c0,0,9,-27,9,-58c0,0,0,-48,-13,-93c0,0,-14,-46,-44,-84c0,0,-30,-40,-77,-70c0,0,-49,-31,-116,-51Z" 
id="f1_n"
transform="scale(0.001,-0.001)" />

<path d="M348,79c0,0,46,0,85,15c0,0,36,14,64,42c0,0,25,27,40,66c0,0,14,39,14,87V412H454c0,0,-65,0,-109,-14c0,0,-44,-13,-70,-36c0,0,-27,-25,-39,-59c0,0,-12,-35,-11,-80c0,0,0,-73,30,-108c0,0,29,-36,93,-36ZM313,-14c0,0,-50,0,-94,14c0,0,-44,14,-75,45c0,0,-33,30,-50,77c0,0,-18,47,-18,109c0,0,0,123,87,182c0,0,85,59,261,60H551v93c0,0,0,42,-4,78c0,0,-5,34,-20,60c0,0,-15,26,-42,40c0,0,-28,14,-75,14c0,0,-44,0,-71,-12c0,0,-29,-13,-43,-35c0,0,-16,-23,-21,-53c0,0,-6,-31,-5,-66c0,0,-64,0,-96,21c0,0,-34,21,-34,75c0,0,0,39,22,67c0,0,21,28,60,45c0,0,36,17,87,26c0,0,49,7,107,8c0,0,69,0,122,-13c0,0,52,-15,87,-46c0,0,34,-31,53,-81c0,0,17,-52,17,-124V174c0,0,0,-33,5,-53c0,0,6,-22,17,-34c0,0,10,-12,30,-18c0,0,15,-5,38,-5c2,0,3,0,5,0h4V0H588L564,131H551c0,0,-24,-33,-46,-59c0,0,-22,-27,-49,-46C456,26,429,6,395,-3c0,0,-35,-11,-82,-11Z" 
id="f1_3"
transform="scale(0.001,-0.001)" />

<path d="M41,0V64H61c0,0,26,0,49,4c0,0,23,3,40,16c0,0,16,11,27,32c0,0,9,21,9,58V747H47v72H186v76c0,0,0,68,19,121c0,0,19,52,54,88c0,0,34,35,85,55c0,0,50,17,113,17c0,0,58,0,100,-7c0,0,41,-8,67,-22c0,0,24,-15,35,-34c0,0,12,-20,12,-43c0,0,0,-22,-9,-37c0,0,-11,-17,-26,-27c0,0,-18,-11,-40,-16c0,0,-24,-6,-51,-6c0,0,0,23,-4,45c0,0,-6,21,-17,39c0,0,-12,17,-31,28c0,0,-19,10,-48,10c0,0,-34,0,-55,-12c0,0,-22,-13,-36,-38c0,0,-13,-26,-18,-62c0,0,-6,-37,-6,-85V819H545V747H330V174c0,0,0,-37,10,-58c0,0,10,-21,27,-32c0,0,16,-13,40,-16c0,0,22,-4,48,-4h58V0Z" 
id="f1_t"
transform="scale(0.001,-0.001)" />

<path d="M442,64c0,0,56,0,97,23c0,0,38,22,64,66c0,0,24,43,36,108c0,0,9,65,10,150c0,0,0,85,-11,149c0,0,-11,64,-36,108c0,0,-25,42,-64,64c0,0,-41,21,-98,21c0,0,-58,0,-97,-21c0,0,-39,-22,-64,-64c0,0,-25,-44,-36,-108c0,0,-11,-64,-11,-149c0,0,0,-85,11,-150c0,0,11,-65,37,-108c0,0,24,-44,65,-66c0,0,38,-23,97,-23Zm-3,-78c0,0,-83,0,-149,25c0,0,-66,26,-111,79c0,0,-47,52,-70,134c0,0,-25,79,-25,187c0,0,0,213,91,319c0,0,90,103,268,104c0,0,82,0,149,-25c0,0,65,-26,111,-79c0,0,46,-53,71,-132c0,0,23,-80,23,-187c0,0,0,-216,-91,-321C706,90,614,-14,439,-14Z" 
id="f1_f"
transform="scale(0.001,-0.001)" />

<path d="M51,0V64h4c0,0,26,0,49,4c0,0,23,3,40,16c0,0,16,11,27,32c0,0,10,21,10,58V650c0,0,0,33,-10,55c0,0,-11,20,-28,31c0,0,-17,11,-39,15c0,0,-24,3,-49,4H51v64H286L315,668h7c0,0,14,34,31,65c0,0,15,29,39,53c0,0,22,22,56,35c0,0,33,12,84,13c0,0,83,0,124,-29c0,0,41,-30,41,-82c0,0,0,-24,-8,-44c0,0,-9,-20,-25,-34c0,0,-17,-15,-44,-23c0,0,-27,-8,-66,-8c0,0,0,63,-18,92c0,0,-18,27,-62,27c0,0,-29,0,-51,-15c0,0,-22,-18,-39,-43c0,0,-17,-27,-28,-61c0,0,-13,-35,-19,-70c0,0,-8,-37,-10,-73c0,0,-4,-35,-3,-64V166c0,0,0,-33,10,-53c0,0,10,-22,27,-32c0,0,16,-10,40,-13c0,0,22,-4,48,-4h43V0Z" 
id="f1_h"
transform="scale(0.001,-0.001)" />

<path d="M367,-14c0,0,-59,0,-100,13c0,0,-42,10,-69,38c0,0,-27,27,-39,73c0,0,-14,45,-14,112V732H29v61c0,0,28,0,61,11c0,0,32,11,58,37c0,0,26,28,43,68c0,0,15,38,28,98h70V819H489V732H289V217c0,0,-1,-78,32,-115c0,0,30,-36,83,-36c0,0,1,0,1,0c0,0,2,0,6,0c9,0,28,0,45,3c0,0,23,3,47,7V9C503,9,492,4,477,0c0,0,-15,-3,-33,-6c0,0,-20,-5,-39,-6c0,0,-20,-2,-38,-2Z" 
id="f1_7"
transform="scale(0.001,-0.001)" />

<path d="M321,-14c0,0,-58,0,-104,11c0,0,-48,7,-80,29c0,0,-33,20,-50,51c0,0,-18,30,-18,70c0,0,0,30,10,51c0,0,10,20,25,33c0,0,14,11,31,17c0,0,16,4,30,4c0,0,0,-41,8,-75c0,0,8,-36,28,-61c0,0,18,-28,51,-42c0,0,31,-16,78,-16c0,0,41,0,72,11c0,0,31,9,53,28c0,0,21,18,32,44c0,0,11,25,11,56c0,0,0,28,-8,49c0,0,-9,20,-30,38c0,0,-21,17,-58,37c0,0,-37,18,-92,42c0,0,-59,26,-102,51c0,0,-45,23,-72,52c0,0,-29,28,-43,65c0,0,-15,35,-14,86c0,0,-1,52,21,92c0,0,20,40,58,68c0,0,38,26,91,41c0,0,52,15,118,15c0,0,54,0,96,-12c0,0,41,-11,70,-30c0,0,28,-19,43,-44c0,0,14,-27,14,-55c0,0,-1,-42,-28,-66c0,0,-29,-25,-80,-25c-1,0,-2,0,-2,0c0,0,0,76,-32,119c0,0,-32,42,-100,42c0,0,-39,0,-66,-9c0,0,-28,-9,-45,-25c0,0,-18,-17,-26,-39c0,0,-8,-22,-8,-49c0,0,0,-29,10,-50c0,0,10,-22,34,-39c0,0,22,-18,59,-35c0,0,36,-17,86,-38c0,0,60,-26,104,-50c0,0,43,-24,72,-54c0,0,27,-29,41,-65c0,0,13,-37,13,-84c0,0,-1,-60,-21,-105c0,0,-23,-45,-62,-74C539,46,499,14,445,0c0,0,-56,-14,-124,-14Z" 
id="f1_9"
transform="scale(0.001,-0.001)" />

<path d="M28,0V64H40c0,0,25,0,49,4c0,0,22,3,39,16c0,0,17,11,27,32c0,0,10,21,10,58V993c0,0,0,33,-10,54c0,0,-11,21,-27,32c0,0,-18,11,-40,15c0,0,-24,3,-48,3H28v64H308V825c0,0,0,-22,0,-43c0,0,-1,-24,-4,-43c0,0,0,-23,0,-44h6c0,0,68,139,225,139c0,0,65,-1,115,-17c0,0,50,-18,85,-54c0,0,34,-37,52,-93c0,0,18,-58,18,-135V174c0,0,0,-37,9,-58c0,0,9,-21,24,-32c0,0,16,-13,38,-16c0,0,21,-4,47,-4h4V0H662V527c0,0,0,50,-9,89c0,0,-10,39,-29,66c0,0,-20,26,-52,41c0,0,-33,13,-78,13c0,0,-49,0,-82,-17c0,0,-35,-18,-58,-50c0,0,-24,-33,-34,-78c0,0,-11,-46,-11,-102V166c0,0,0,-33,10,-53c0,0,10,-22,27,-32c0,0,17,-10,40,-13c0,0,22,-4,48,-4h5V0Z" 
id="f1_i"
transform="scale(0.001,-0.001)" />

<path d="M315,0L115,674c0,0,-9,23,-19,39c0,0,-10,15,-22,26c0,0,-13,8,-29,12c0,0,-17,3,-39,4H1v64H379V755H359c0,0,-46,0,-69,-13c0,0,-24,-15,-23,-51c0,0,0,-13,5,-31c0,0,3,-18,8,-35L351,369c0,0,8,-29,16,-61c0,0,7,-33,16,-65c0,0,6,-33,12,-61c0,0,6,-29,10,-48h5c0,0,3,19,10,46c0,0,5,24,15,55c0,0,7,29,18,60c0,0,9,30,19,58L631,815h96L880,362c0,0,9,-29,20,-59c0,0,9,-33,18,-63c0,0,9,-31,17,-59c0,0,7,-28,11,-47h4c0,0,7,38,22,94c0,0,14,55,38,129l76,247c0,0,5,18,11,41c0,0,3,21,3,35c0,0,0,38,-24,57c0,0,-26,18,-77,18H988v64h327V755h-19c0,0,-23,0,-39,-5c0,0,-17,-5,-29,-17c0,0,-14,-13,-25,-36c0,0,-11,-24,-22,-61L984,0H862L680,538L652,639L436,0Z" 
id="f1_16"
transform="scale(0.001,-0.001)" />

<path d="M35,0V64H55c0,0,25,0,49,4c0,0,22,3,39,13c0,0,17,10,28,32c0,0,10,20,10,53V650c0,0,0,33,-10,55c0,0,-11,20,-28,31c0,0,-17,11,-39,15c0,0,-24,3,-49,4H51v64H324V174c0,0,0,-37,10,-58c0,0,10,-21,27,-32c0,0,16,-13,40,-16c0,0,22,-4,48,-4h20V0ZM249,972c-1,0,-2,0,-3,0c0,0,-1,0,-2,0c-5,0,-20,0,-32,5c0,0,-16,5,-28,16c0,0,-12,11,-18,29c0,0,-7,18,-7,45c0,0,0,27,7,45c0,0,6,17,18,29c0,0,12,11,28,15c0,0,15,5,34,5c0,0,18,0,34,-5c0,0,15,-4,27,-15c0,0,11,-12,19,-29c0,0,7,-18,7,-45c0,0,0,-27,-7,-45c0,0,-8,-18,-19,-29c0,0,-12,-11,-27,-16c0,0,-14,-5,-31,-5Z" 
id="f1_8"
transform="scale(0.001,-0.001)" />

<path d="M365,0L119,674c0,0,-9,23,-18,39c0,0,-11,15,-23,26c0,0,-12,8,-29,12c0,0,-17,3,-39,4H6v64H388V755H369c0,0,-47,0,-69,-18c0,0,-24,-18,-23,-56c0,0,-1,-13,3,-25c0,0,3,-14,9,-31L392,336c0,0,10,-26,21,-58c0,0,9,-33,20,-65c0,0,8,-31,16,-59c0,0,7,-29,11,-47h5c0,0,3,16,12,41c0,0,8,23,20,53c0,0,10,27,22,58c0,0,11,29,22,57L650,614c0,0,8,19,12,36c0,0,3,16,3,30c0,0,0,38,-25,57c0,0,-26,18,-76,18H553v64H880V755H862c0,0,-23,0,-38,-5c0,0,-17,-6,-29,-18c0,0,-12,-14,-24,-37c0,0,-12,-24,-26,-59L504,0Z" 
id="f1_c"
transform="scale(0.001,-0.001)" />

<path d="M20,0V64H40c0,0,25,0,49,4c0,0,22,3,39,16c0,0,17,11,27,32c0,0,10,21,10,58V993c0,0,0,33,-10,54c0,0,-11,21,-27,32c0,0,-18,11,-40,15c0,0,-24,3,-48,3H20v64H309V174c0,0,-1,-37,10,-58c0,0,9,-21,26,-32c0,0,17,-13,41,-16c0,0,22,-4,48,-4h20V0Z" 
id="f1_g"
transform="scale(0.001,-0.001)" />

<path d="M58,-366v72h1c8,0,79,1,133,23c0,0,55,24,97,64c0,0,39,40,68,95c0,0,26,55,45,118L119,674c0,0,-10,23,-20,39c0,0,-10,14,-21,25c0,0,-13,9,-29,13c0,0,-17,3,-39,4H6v64H373V755h-4c0,0,-47,0,-69,-18c0,0,-24,-18,-23,-56c0,0,-1,-13,3,-25c0,0,2,-14,9,-31L401,353c0,0,9,-27,22,-57c0,0,11,-31,22,-61c0,0,9,-31,18,-57c0,0,7,-28,11,-47h4c0,0,8,34,23,82c0,0,14,48,34,103L637,614c0,0,7,19,11,36c0,0,2,16,2,30c0,0,0,38,-24,57c0,0,-26,18,-76,18h-5v64H863V755h-4c0,0,-23,0,-38,-5c0,0,-18,-6,-30,-18c0,0,-13,-14,-24,-37c0,0,-11,-24,-25,-59L510,-5c0,0,-27,-74,-50,-130c0,0,-25,-56,-50,-95c0,0,-27,-41,-57,-67c0,0,-32,-26,-71,-41c0,0,-40,-17,-91,-22c0,0,-51,-6,-119,-6Z" 
id="f1_r"
transform="scale(0.001,-0.001)" />

<path d="M421,83c0,0,59,0,100,20c0,0,39,19,65,60c0,0,23,39,34,101c0,0,10,61,10,144c0,0,0,79,-10,141c0,0,-11,61,-34,103c0,0,-25,41,-65,63c0,0,-41,21,-101,21c0,0,-51,0,-86,-21c0,0,-36,-23,-58,-64c0,0,-24,-42,-34,-103c0,0,-10,-62,-10,-141c0,0,0,-163,44,-244c0,0,43,-80,145,-80ZM395,-14c-8,0,-78,1,-133,24c0,0,-59,24,-98,77c0,0,-39,52,-60,132c0,0,-20,79,-20,189c0,0,0,110,20,191c0,0,21,80,60,133c0,0,39,51,98,77c0,0,58,25,133,25c0,0,44,0,80,-10c0,0,36,-10,65,-27c0,0,28,-18,51,-43c0,0,21,-24,39,-54h4c0,0,0,36,0,70c0,0,0,27,0,57c0,0,0,27,0,41V993c0,0,-1,33,-10,54c0,0,-11,21,-29,32c0,0,-18,11,-41,15c0,0,-24,3,-49,3H492v64H773V168c0,0,0,-34,10,-54c0,0,10,-21,27,-32c0,0,17,-11,40,-14c0,0,22,-4,48,-4h13V0H652L636,137h-6c0,0,-18,-35,-39,-62c0,0,-23,-29,-51,-48C540,27,512,6,476,-3c0,0,-36,-11,-81,-11Z" 
id="f1_a"
transform="scale(0.001,-0.001)" />

<path d="M562,-212c0,0,-127,52,-217,121c0,0,-91,68,-147,155c0,0,-58,87,-84,193c0,0,-27,104,-27,229c0,0,0,123,27,228c0,0,26,104,84,191c0,0,56,86,147,155c0,0,90,68,217,119v-96c0,0,-70,-47,-115,-112c0,0,-45,-66,-70,-143c0,0,-26,-78,-35,-164c0,0,-10,-88,-9,-178c0,0,-1,-91,9,-179c0,0,9,-88,35,-165c0,0,25,-79,70,-143c0,0,45,-67,115,-113v-98Z" 
id="f2_11"
transform="scale(0.001,-0.001)" />

<path d="M540,99c1,0,2,0,2,0c3,0,76,1,109,82c0,0,34,81,34,233c0,0,0,155,-34,234c0,0,-33,76,-110,76c0,0,-46,0,-76,-18c0,0,-30,-20,-47,-58c0,0,-18,-40,-26,-97c0,0,-8,-60,-7,-138c0,0,-1,-76,7,-134c0,0,8,-60,26,-98c0,0,18,-41,48,-61c0,0,29,-21,74,-21ZM610,-14c-1,0,-2,0,-4,0h-1c-9,0,-47,1,-78,10c0,0,-37,8,-64,26c0,0,-30,18,-51,43c0,0,-23,24,-39,54H359L316,0H26V81H37c0,0,20,0,42,4c0,0,20,3,37,15c0,0,17,10,27,32c0,0,10,21,10,56V978c0,0,0,32,-10,53c0,0,-10,19,-26,31c0,0,-17,11,-38,14c0,0,-22,3,-47,4H26v81H383V900c0,0,0,-24,0,-56c0,0,0,-33,-3,-61c0,0,-4,-34,-7,-68h10c0,0,33,56,88,89c0,0,55,32,141,33c0,0,75,0,132,-25c0,0,57,-26,97,-76c0,0,39,-53,59,-132c0,0,20,-81,20,-191c0,0,0,-112,-20,-192c0,0,-22,-81,-61,-133c0,0,-39,-53,-97,-78c0,0,-59,-24,-132,-24Z" 
id="f2_16"
transform="scale(0.001,-0.001)" />

<path d="M49,-212v98c0,0,70,46,116,113c0,0,44,64,70,143c0,0,24,77,34,165c0,0,9,88,9,179c0,0,0,90,-9,178c0,0,-10,86,-34,164c0,0,-26,77,-70,143c0,0,-46,65,-116,112v96c0,0,127,-51,218,-119c0,0,90,-69,148,-155c0,0,56,-87,83,-191c0,0,25,-105,26,-228c0,0,-1,-125,-26,-229c0,0,-27,-106,-83,-193c0,0,-58,-87,-148,-155c0,0,-91,-69,-218,-121Z" 
id="f2_12"
transform="scale(0.001,-0.001)" />

<path d="M351,-291c2,0,3,0,5,0c0,0,1,0,2,0c12,0,84,1,134,15c0,0,52,13,84,38c0,0,31,23,44,58c0,0,12,34,13,74c0,0,0,35,-10,59c0,0,-11,22,-30,35c0,0,-20,12,-49,17c0,0,-29,5,-67,5H327c0,0,-33,0,-62,-5c0,0,-31,-5,-54,-20c0,0,-24,-17,-38,-44c0,0,-15,-29,-14,-74c0,0,0,-34,9,-63c0,0,9,-29,31,-50c0,0,23,-22,61,-33c0,0,35,-12,91,-12Zm34,658c0,0,1,0,1,0c0,0,37,0,64,11c0,0,24,11,42,35c0,0,15,22,23,59c0,0,7,35,7,86c0,0,0,103,-31,152c0,0,-31,49,-106,49c0,0,-74,0,-105,-50c0,0,-33,-50,-32,-153c0,0,0,-98,32,-143c0,0,32,-46,105,-46ZM353,-366c-8,0,-162,1,-239,59c0,0,-80,59,-79,164c0,0,0,45,16,78c0,0,15,34,42,58c0,0,26,22,61,38c0,0,34,14,72,21c0,0,-16,7,-31,18c0,0,-14,11,-26,27c0,0,-13,16,-20,36c0,0,-8,20,-7,45c0,0,0,45,24,79c0,0,23,32,76,64c0,0,-33,13,-58,37c0,0,-27,23,-44,54c0,0,-18,30,-27,65c0,0,-10,36,-9,74c0,0,0,66,18,119c0,0,18,51,53,89c0,0,36,36,90,56c0,0,53,18,126,19c0,0,28,-1,54,-4c0,0,26,-4,50,-11c0,0,22,-8,41,-16c0,0,18,-9,29,-19c0,0,12,12,27,27c0,0,14,14,33,27c0,0,19,12,41,20c0,0,21,7,47,8c0,0,23,-1,40,-6c0,0,17,-7,28,-17c0,0,11,-11,17,-25c0,0,5,-15,5,-31c0,0,0,-17,-4,-31c0,0,-6,-15,-15,-25c0,0,-10,-12,-25,-17c0,0,-15,-7,-36,-7c0,0,0,9,-2,18c0,0,-3,9,-8,17c0,0,-6,7,-16,13c0,0,-10,4,-25,4c0,0,-19,0,-35,-4c0,0,-16,-5,-31,-14c0,0,26,-33,44,-76c0,0,16,-44,16,-109c0,0,-1,-57,-17,-105c0,0,-17,-48,-51,-82c0,0,-35,-36,-86,-56c0,0,-52,-19,-121,-19H348c0,0,-11,0,-21,1c0,0,-10,1,-15,3c0,0,-15,-9,-29,-17c0,0,-13,-9,-23,-20c0,0,-11,-11,-16,-25c0,0,-6,-15,-6,-32c0,0,-1,-19,7,-29c0,0,7,-12,20,-18c0,0,12,-7,30,-8c0,0,17,-2,38,-2H506c0,0,68,-1,116,-17c0,0,48,-17,78,-47c0,0,30,-32,44,-73c0,0,14,-41,14,-90c0,0,-1,-67,-24,-119c0,0,-25,-53,-75,-89c0,0,-50,-38,-126,-58c0,0,-77,-20,-180,-20Z" 
id="f1_j"
transform="scale(0.001,-0.001)" />

<path d="M417,-14c0,0,-60,0,-107,16c0,0,-47,17,-79,54c0,0,-33,36,-49,93c0,0,-17,57,-17,135V650c0,0,0,33,-10,55c0,0,-11,20,-27,31c0,0,-18,11,-40,15c0,0,-24,3,-48,4H35v64H309V292c0,0,0,-51,8,-89c0,0,7,-40,26,-66c0,0,18,-27,49,-40c0,0,29,-14,74,-14c1,0,2,0,3,0c0,0,50,0,88,18c0,0,35,18,59,50c0,0,23,32,34,78c0,0,12,46,12,101V645c0,0,0,35,-10,58c0,0,-10,21,-27,33c0,0,-17,11,-39,15c0,0,-24,3,-50,4h-4v64H805V166c0,0,0,-33,10,-53c0,0,10,-22,27,-32c0,0,17,-10,41,-13c0,0,21,-4,47,-4h5V0H692L672,124h-7c0,0,-24,-44,-51,-70c0,0,-28,-28,-60,-42c0,0,-31,-15,-65,-20c0,0,-35,-6,-72,-6Z" 
id="f1_e"
transform="scale(0.001,-0.001)" />

<path d="M38,359V474H436V359Z" 
id="f1_o"
transform="scale(0.001,-0.001)" />

<path d="M518,83c0,0,50,0,86,21c0,0,35,21,58,63c0,0,23,41,33,104c0,0,10,61,11,142c0,0,-1,80,-11,142c0,0,-10,60,-33,101c0,0,-23,40,-58,60c0,0,-38,20,-88,20c0,0,-60,0,-99,-19c0,0,-41,-20,-64,-61c0,0,-24,-40,-34,-101c0,0,-10,-62,-10,-144c0,0,0,-80,10,-141c0,0,10,-62,35,-103c0,0,23,-42,64,-63c0,0,39,-21,100,-21Zm27,-97c-1,0,-2,0,-3,0h-2c-8,0,-46,1,-77,10c0,0,-37,8,-65,26c0,0,-29,18,-50,43c0,0,-23,24,-39,54H299L272,0H28V64H40c0,0,25,0,49,4c0,0,22,3,39,16c0,0,17,11,27,32c0,0,10,21,10,58V993c0,0,0,33,-10,54c0,0,-11,21,-27,32c0,0,-18,11,-40,15c0,0,-24,3,-48,3H28v64H306V880c0,0,0,-26,0,-59c0,0,0,-35,0,-66c0,0,0,-36,0,-74h3c0,0,16,34,39,63c0,0,21,28,50,49c0,0,27,19,64,31c0,0,36,9,80,10c0,0,75,0,134,-25c0,0,58,-26,98,-76c0,0,38,-53,60,-132c0,0,20,-80,20,-190c0,0,0,-111,-20,-191c0,0,-22,-80,-60,-133c0,0,-40,-53,-98,-77c0,0,-57,-24,-131,-24Z" 
id="f1_q"
transform="scale(0.001,-0.001)" />

<path d="M223,-9c-1,0,-2,0,-3,0c0,0,-1,0,-2,0c-6,0,-22,0,-35,5c0,0,-19,4,-31,16c0,0,-13,12,-21,32c0,0,-8,20,-7,49c0,0,-1,30,7,50c0,0,8,19,21,32c0,0,12,11,31,17c0,0,16,5,37,5c0,0,19,0,37,-5c0,0,17,-6,31,-17c0,0,12,-13,21,-32c0,0,7,-20,7,-50c0,0,0,-29,-7,-49c0,0,-9,-20,-21,-32C288,12,274,0,257,-4c0,0,-16,-5,-34,-5Zm0,627c-1,0,-2,0,-3,0c0,0,-1,0,-2,0c-6,0,-22,1,-35,6c0,0,-19,5,-31,18c0,0,-13,11,-21,32c0,0,-8,20,-7,49c0,0,-1,30,7,50c0,0,8,18,21,31c0,0,12,11,31,17c0,0,16,6,37,6c0,0,19,0,37,-6c0,0,17,-6,31,-17c0,0,12,-13,21,-31c0,0,7,-20,7,-50c0,0,0,-29,-7,-49c0,0,-9,-21,-21,-32c0,0,-14,-13,-31,-18c0,0,-16,-6,-34,-6Z" 
id="f1_1j"
transform="scale(0.001,-0.001)" />

<path d="M683,442L588,709c0,0,-25,68,-43,127c0,0,-21,59,-33,114c0,0,-6,-28,-12,-53c0,0,-8,-26,-16,-53c0,0,-9,-26,-19,-55c0,0,-10,-31,-23,-66L338,442ZM0,0V64H29c0,0,1,0,3,0c6,0,23,1,35,5c0,0,16,5,28,18c0,0,12,13,25,37c0,0,11,22,25,60l339,907H604L949,145c0,0,8,-23,19,-39c0,0,8,-16,21,-25c0,0,12,-10,29,-13c0,0,17,-4,39,-4h20V0H657V64h35c0,0,92,0,92,73c0,0,0,12,-3,26c0,0,-4,14,-10,31L710,365H309L251,204c0,0,-8,-18,-11,-35c0,0,-4,-18,-4,-30c0,0,0,-40,26,-57c0,0,24,-18,76,-18h35V0Z" 
id="f1_1d"
transform="scale(0.001,-0.001)" />

<path d="M43,0V64H63c0,0,25,0,47,4c0,0,21,3,38,16c0,0,15,11,24,32c0,0,8,21,9,58V650c0,0,0,33,-9,55c0,0,-9,20,-25,31c0,0,-16,11,-37,15c0,0,-22,3,-47,4H58v64H298L318,695h7c0,0,23,42,49,70c0,0,25,27,54,43c0,0,28,14,61,21c0,0,31,5,67,5c0,0,36,0,71,-7c0,0,33,-9,62,-24c0,0,28,-17,52,-43c0,0,21,-27,36,-65h13c0,0,23,42,50,70c0,0,27,27,57,43c0,0,30,14,64,21c0,0,32,5,68,5c0,0,59,-1,105,-17c0,0,45,-18,78,-54c0,0,32,-37,49,-93c0,0,17,-58,18,-135V174c0,0,0,-37,9,-58c0,0,9,-21,24,-32c0,0,16,-13,37,-16c0,0,21,-4,47,-4h5V0H1135V527c0,0,0,50,-8,89c0,0,-9,39,-27,66c0,0,-21,26,-50,41c0,0,-32,13,-75,13c0,0,-48,0,-80,-18c0,0,-33,-19,-53,-50c0,0,-21,-31,-28,-72c0,0,-9,-42,-9,-87V174c0,0,0,-37,9,-58c0,0,9,-21,24,-32c0,0,16,-13,38,-16c0,0,21,-4,47,-4h4V0H662V527c0,0,-1,50,-9,89c0,0,-8,39,-27,66c0,0,-20,26,-50,41c0,0,-31,13,-75,13c0,0,-50,0,-83,-20c0,0,-35,-20,-55,-54c0,0,-22,-35,-30,-79c0,0,-9,-45,-9,-94V166c0,0,0,-33,10,-53c0,0,10,-22,27,-32c0,0,16,-10,40,-13c0,0,22,-4,48,-4h5V0Z" 
id="f1_s"
transform="scale(0.001,-0.001)" />

<path d="M351,63c0,0,187,0,295,490H249c0,0,-30,-149,-30,-264c0,0,-1,-110,36,-168c0,0,37,-58,96,-58ZM660,625c0,0,26,144,26,247c0,0,0,217,-136,217c0,0,-179,0,-286,-464ZM348,-14q-1,0,-1,0c0,0,-126,0,-194,101c0,0,-69,102,-69,292c0,0,0,296,130,543c0,0,130,245,342,245c0,0,135,0,206,-99c0,0,69,-100,69,-287c0,0,0,-281,-133,-538C698,243,565,-14,348,-14Z" 
id="f0_h"
transform="scale(0.001,-0.001)" />

<path d="M501,385V668c0,0,0,33,0,74c0,0,0,40,0,82c0,0,0,41,0,83c0,0,0,41,6,77c0,0,-6,-11,-15,-28c0,0,-10,-18,-21,-39c0,0,-13,-23,-26,-46c0,0,-15,-24,-28,-46c0,0,-15,-24,-26,-42c0,0,-13,-21,-21,-34L136,385ZM328,0V64h43c0,0,26,0,50,4c0,0,22,3,39,16c0,0,17,11,27,32c0,0,10,21,10,58V299H26v63l472,729H643V385H833V299H643V174c0,0,0,-37,10,-58c0,0,10,-21,27,-32c0,0,16,-13,40,-16c0,0,22,-4,48,-4h21V0Z" 
id="f1_1l"
transform="scale(0.001,-0.001)" />

<path d="M377,-14c-2,0,-3,0,-4,0c0,0,-86,0,-140,14c0,0,-57,14,-89,37c0,0,-33,21,-46,50c0,0,-14,26,-14,52c0,0,0,42,24,66c0,0,23,23,73,24c0,0,-1,-34,11,-61c0,0,11,-28,35,-49c0,0,22,-21,57,-32c0,0,33,-12,77,-12c1,0,2,0,4,0c0,0,47,0,87,13c0,0,39,12,69,43c0,0,29,29,46,80c0,0,16,49,16,122c0,0,0,60,-16,105c0,0,-17,44,-47,74c0,0,-31,30,-73,45c0,0,-43,14,-96,14c0,0,-40,0,-68,-3c0,0,-29,-3,-50,-7c0,0,-23,-6,-39,-11c0,0,-17,-7,-31,-12l-36,10l49,541H690V859H630l-6,45c0,0,-3,16,-6,28c0,0,-5,12,-14,20c0,0,-9,7,-24,11c0,0,-16,3,-39,4H245L216,631c0,0,23,8,67,17c0,0,42,7,111,8c0,0,74,0,138,-20c0,0,63,-21,110,-61c0,0,47,-40,74,-101c0,0,26,-61,26,-141c0,0,0,-79,-24,-142c0,0,-26,-64,-73,-110C645,81,597,35,529,10c0,0,-67,-24,-152,-24Z" 
id="f1_1n"
transform="scale(0.001,-0.001)" />

<path d="M304,718c0,0,29,0,56,12c0,0,25,11,44,30c0,0,19,19,30,45c0,0,10,25,11,54c0,0,-1,29,-11,56c0,0,-11,25,-30,44c0,0,-19,19,-44,30c0,0,-27,11,-56,11c0,0,-29,0,-54,-11c0,0,-26,-11,-44,-30c0,0,-20,-19,-30,-44c0,0,-11,-27,-11,-56c0,0,0,-29,11,-54c0,0,10,-26,30,-45c0,0,18,-19,44,-30c0,0,25,-12,54,-12Zm0,-90c0,0,-48,0,-89,18c0,0,-43,18,-74,49c0,0,-31,32,-49,74c0,0,-20,41,-19,90c0,0,-1,47,19,91c0,0,18,41,49,73c0,0,31,30,74,50c0,0,41,18,89,18c0,0,48,0,91,-18c0,0,41,-20,73,-50c0,0,31,-32,50,-73c0,0,18,-44,18,-91c0,0,0,-49,-18,-90c0,0,-19,-42,-50,-74c0,0,-32,-31,-73,-49c0,0,-43,-18,-91,-18Z" 
id="f1_20"
transform="scale(0.001,-0.001)" />

<path d="M58,0V64H78c0,0,24,0,48,4c0,0,22,3,40,13c0,0,16,10,27,32c0,0,10,20,10,53V923c0,0,0,33,-10,54c0,0,-11,20,-27,32c0,0,-18,11,-40,14c0,0,-24,3,-48,3H58v65H832V824H756l-7,65c0,0,-4,26,-12,49c0,0,-9,23,-25,40c0,0,-17,16,-43,27c0,0,-26,10,-61,10H357V573H726V498H357V174c0,0,0,-37,11,-58c0,0,9,-21,27,-32c0,0,15,-13,39,-16c0,0,23,-4,49,-4h50V0Z" 
id="f1_1i"
transform="scale(0.001,-0.001)" />

<path d="M112,350v90H767V350Zm0,300v91H767V650Z" 
id="f0_i"
transform="scale(0.001,-0.001)" />

<path d="M229,0V64h35c0,0,25,0,49,4c0,0,22,3,39,13c0,0,17,10,28,32c0,0,9,20,9,53v849H243c0,0,-33,0,-56,-10c0,0,-24,-11,-37,-28c0,0,-15,-17,-22,-39c0,0,-8,-24,-10,-49l-8,-65H34v267H902V824H827l-8,65c0,0,-4,25,-10,49c0,0,-9,22,-22,39c0,0,-15,17,-37,28c0,0,-24,10,-58,10H544V174c0,0,0,-37,10,-58c0,0,10,-21,27,-32c0,0,16,-13,40,-16c0,0,22,-4,48,-4h35V0Z" 
id="f1_19"
transform="scale(0.001,-0.001)" />

<path d="M518,83c0,0,50,0,86,21c0,0,35,21,58,63c0,0,23,41,33,104c0,0,10,61,11,142c0,0,-1,80,-11,142c0,0,-10,60,-33,101c0,0,-23,40,-58,60c0,0,-38,20,-88,20c0,0,-60,0,-99,-19c0,0,-41,-20,-64,-61c0,0,-24,-40,-34,-101c0,0,-10,-62,-10,-144c0,0,0,-80,10,-141c0,0,10,-62,35,-103c0,0,23,-42,64,-63c0,0,39,-21,100,-21ZM28,-366v64H40c0,0,25,0,49,4c0,0,22,3,39,16c0,0,17,11,27,33c0,0,10,21,10,58V650c0,0,0,33,-10,55c0,0,-11,20,-27,31c0,0,-18,11,-40,15c0,0,-24,3,-48,4H20v64H287L303,681h6c0,0,16,34,39,63c0,0,21,28,50,49c0,0,27,19,64,31c0,0,36,9,80,10c0,0,75,0,134,-25c0,0,58,-26,98,-76c0,0,38,-53,60,-132c0,0,20,-80,20,-190c0,0,0,-111,-20,-191c0,0,-22,-80,-60,-133c0,0,-40,-53,-98,-77c0,0,-57,-24,-131,-24c-1,0,-2,0,-3,0h-2c-8,0,-46,1,-77,10c0,0,-37,8,-65,26c0,0,-29,18,-50,43c0,0,-23,24,-39,54h-3c0,0,0,-39,0,-73c0,0,0,-15,0,-30c0,0,0,-15,0,-28c0,0,0,-14,0,-24c0,0,0,-11,0,-17V-199c0,0,0,-33,10,-54c0,0,10,-21,28,-31c0,0,17,-11,41,-14c0,0,23,-4,49,-4h5v-64Z" 
id="f1_k"
transform="scale(0.001,-0.001)" />

<path d="M7,0V64H22c0,0,26,0,48,5c0,0,20,4,40,15c0,0,18,11,37,31c0,0,19,19,41,47L380,411L188,674c0,0,-34,38,-65,60c0,0,-33,21,-66,21H37v64H424V755h-4c0,0,-27,0,-43,-3c0,0,-17,-5,-27,-10c0,0,-11,-7,-14,-15c0,0,-3,-8,-3,-17c0,0,-1,-16,9,-30c0,0,9,-17,27,-40L469,503l79,114c0,0,17,25,28,49c0,0,10,23,10,44c0,0,0,28,-23,37c0,0,-24,7,-59,8h-4v64H834V755H821c0,0,-23,-1,-41,-4c0,0,-19,-4,-36,-14c0,0,-17,-11,-36,-30c0,0,-19,-20,-42,-50L509,448L733,145c0,0,34,-44,64,-62c0,0,29,-19,57,-19q1,0,2,0h20V0H481V64h8c0,0,91,0,91,51c0,0,0,7,-2,17c0,0,-2,8,-9,20c0,0,-7,11,-18,28c0,0,-11,16,-29,40L420,357L313,208c0,0,-6,-9,-14,-21c0,0,-8,-12,-13,-24c0,0,-7,-14,-10,-26c0,0,-4,-13,-4,-25c0,0,0,-27,22,-37c0,0,21,-11,73,-11h4V0Z" 
id="f1_18"
transform="scale(0.001,-0.001)" />

<path d="M451,-14c0,0,-85,0,-154,21c0,0,-71,21,-120,71c0,0,-51,50,-78,131c0,0,-28,80,-27,198c0,0,0,123,29,206c0,0,27,82,79,133c0,0,50,50,118,72c0,0,68,20,148,20c0,0,73,0,131,-11c0,0,56,-14,94,-35c0,0,38,-21,59,-50c0,0,18,-31,19,-64c0,0,-1,-25,-8,-48c0,0,-10,-24,-31,-41c0,0,-22,-18,-60,-30c0,0,-40,-11,-99,-11c0,0,0,39,-4,76c0,0,-6,35,-17,62c0,0,-11,26,-29,44c0,0,-20,15,-49,15c0,0,-34,0,-60,-15c0,0,-26,-18,-45,-56c0,0,-20,-39,-29,-103c0,0,-11,-66,-11,-163c0,0,0,-156,43,-232c0,0,42,-77,137,-77q1,0,2,0h1c8,0,42,1,73,10c0,0,35,9,63,26c0,0,27,16,50,40c0,0,21,22,34,48c0,0,19,-11,28,-30c0,0,9,-19,9,-40c0,0,-1,-29,-17,-59c0,0,-18,-31,-53,-54C677,40,639,15,584,1c0,0,-57,-15,-133,-15Z" 
id="f2_o"
transform="scale(0.001,-0.001)" />

<path d="M318,81c2,0,76,1,159,113c0,0,84,113,111,246l57,270c0,0,-36,55,-116,55c0,0,-131,0,-219,-165c0,0,-88,-167,-88,-342c0,0,0,-177,96,-177ZM263,-14c0,0,-94,0,-145,73c0,0,-53,72,-52,205c0,0,0,210,131,390c0,0,130,180,324,180c0,0,85,0,150,-37c0,0,11,71,17,86l15,73c0,0,9,52,10,69c0,0,-1,72,-107,72H595l13,64H889L712,328c0,0,-23,-106,-23,-169c0,0,0,-78,50,-78c0,0,44,0,111,40L877,76c0,0,-109,-90,-215,-90c0,0,-120,0,-120,126c0,0,0,48,16,119H548C548,231,438,-14,263,-14Z" 
id="f0_b"
transform="scale(0.001,-0.001)" />

<path d="M452,69c0,0,81,0,125,64c0,0,43,63,43,202c0,0,-1,130,-46,190c0,0,-47,59,-135,60c0,0,-30,0,-57,-8c0,0,-28,-8,-52,-20c0,0,-24,-12,-44,-28c0,0,-20,-17,-36,-32c0,0,0,-116,15,-196c0,0,14,-82,40,-133c0,0,26,-52,64,-75c0,0,37,-24,83,-24Zm-5,-83c-6,0,-78,1,-140,31c0,0,-65,31,-112,100c0,0,-49,68,-75,175c0,0,-27,106,-27,258c0,0,0,72,11,142c0,0,10,69,33,131c0,0,20,61,54,114c0,0,32,52,78,90c0,0,43,37,100,58c0,0,55,21,123,21c0,0,63,0,112,-13c0,0,46,-14,78,-36c0,0,31,-22,47,-51c0,0,14,-30,15,-60c0,0,0,-45,-30,-68c0,0,-31,-24,-87,-24c0,0,0,37,-8,70c0,0,-7,32,-23,57c0,0,-17,23,-42,38c0,0,-27,13,-64,13c0,0,-117,0,-176,-112c0,0,-60,-114,-60,-337c0,0,19,16,41,31c0,0,23,14,50,25c0,0,26,10,58,17c0,0,31,7,68,7c0,0,69,-1,127,-21c0,0,55,-22,95,-62c0,0,40,-41,61,-99c0,0,21,-59,22,-131c0,0,-1,-81,-22,-148c0,0,-23,-67,-64,-115C690,87,648,39,587,12c0,0,-62,-26,-139,-26c0,0,-1,0,-1,0Z" 
id="f1_10"
transform="scale(0.001,-0.001)" />

<path d="M427,67c0,0,56,0,94,33c0,0,38,32,62,94c0,0,23,61,34,151c0,0,10,88,10,202c0,0,0,112,-10,202c0,0,-11,88,-34,150c0,0,-24,60,-61,93c0,0,-39,31,-93,31c0,0,-56,0,-94,-31c0,0,-40,-33,-63,-93c0,0,-24,-62,-34,-150c0,0,-10,-90,-10,-202c0,0,0,-114,10,-202c0,0,10,-90,34,-151c0,0,23,-62,62,-94c0,0,38,-33,93,-33Zm0,-81c0,0,-94,0,-161,39c0,0,-69,41,-112,115c0,0,-44,73,-64,178c0,0,-22,103,-21,230c0,0,-1,126,21,230c0,0,20,103,64,176c0,0,44,72,112,113c0,0,67,39,163,39c0,0,89,0,157,-39c0,0,65,-41,111,-113c0,0,45,-73,67,-176c0,0,21,-104,22,-231c0,0,-1,-127,-22,-230c0,0,-22,-104,-67,-177C697,140,652,66,585,25c0,0,-67,-39,-158,-39Z" 
id="f1_w"
transform="scale(0.001,-0.001)" />

<path d="M382,-14c-2,0,-3,0,-5,0c0,0,-75,0,-131,15c0,0,-57,15,-95,44c0,0,-40,27,-58,68c0,0,-20,38,-20,87c0,0,0,45,29,75c0,0,29,27,82,28c0,0,0,-49,13,-92c0,0,12,-44,36,-77c0,0,24,-34,64,-54c0,0,38,-20,92,-20c6,0,104,0,161,50c0,0,58,49,58,142c0,0,0,41,-12,74c0,0,-13,31,-39,60c0,0,-29,26,-73,52c0,0,-46,24,-113,52c0,0,-71,29,-123,63c0,0,-54,32,-88,74c0,0,-36,39,-53,90c0,0,-17,50,-17,113c0,0,0,65,26,117c0,0,24,51,69,87c0,0,44,34,106,54c0,0,60,18,133,18c0,0,68,0,122,-14c0,0,52,-15,90,-38c0,0,36,-25,56,-54c0,0,18,-32,18,-65c0,0,0,-50,-32,-74c0,0,-33,-26,-86,-26c0,0,-1,1,-2,1c0,0,-1,35,-8,70c0,0,-9,34,-29,62c0,0,-21,27,-53,44c0,0,-34,17,-81,17c0,0,-45,0,-79,-11c0,0,-36,-13,-59,-36c0,0,-24,-23,-36,-55c0,0,-13,-33,-13,-71c0,0,-1,-47,12,-80c0,0,12,-35,40,-63c0,0,27,-28,73,-53c0,0,46,-26,112,-52c0,0,67,-28,120,-58c0,0,52,-32,89,-68c0,0,37,-39,56,-84c0,0,19,-47,19,-106c0,0,0,-73,-26,-129c0,0,-27,-59,-76,-97C651,66,602,26,533,6c0,0,-67,-20,-151,-20Z" 
id="f1_14"
transform="scale(0.001,-0.001)" />

<path d="M494,385V878L152,385ZM494,0V262H20V385l498,708H628V385H775V262H628V0Z" 
id="f3_o"
transform="scale(0.001,-0.001)" />

<path d="M435,0V856c0,0,-48,-47,-127,-93c0,0,-79,-46,-142,-69V824c0,0,113,52,197,128c0,0,85,75,120,146h86V0Z" 
id="f3_l"
transform="scale(0.001,-0.001)" />


</defs>
</svg>