<?xml version="1.0" encoding="UTF-8" standalone="no"?>
<!DOCTYPE svg PUBLIC "-//W3C//DTD SVG 1.1//EN"
"http://www.w3.org/Graphics/SVG/1.1/DTD/svg11.dtd">
<svg viewBox="0 0 909 1286" version="1.1" xmlns="http://www.w3.org/2000/svg" xmlns:xlink="http://www.w3.org/1999/xlink">
<defs>
<clipPath id="c0_178"><path d="M55,441.1V389.3H175.6v51.8Z" /></clipPath>
<clipPath id="c1_178"><path d="M55,494.4V442.5h80.8v51.9Z" /></clipPath>
<clipPath id="c2_178"><path d="M55,547.7V495.8H157.3v51.9Z" /></clipPath>
<clipPath id="c3_178"><path d="M82,733.2V681.3h92.9v51.9Z" /></clipPath>
<clipPath id="c4_178"><path d="M55,930.2V878.3h96.8v51.9Z" /></clipPath>
<style type="text/css"><![CDATA[
.g0_178{
fill: #D9D9D9;
}
.g1_178{
fill: none;
stroke: #000000;
stroke-width: 0.7638889;
stroke-linecap: butt;
stroke-linejoin: miter;
}
.g2_178{
fill: none;
stroke: #000000;
stroke-width: 0.9029411;
stroke-linecap: butt;
stroke-linejoin: round;
}
.g3_178{
fill: none;
stroke: #000000;
stroke-width: 0.9132231;
stroke-linecap: butt;
stroke-linejoin: round;
}
.g4_178{
fill: none;
stroke: #000000;
stroke-width: 0.90095514;
stroke-linecap: butt;
stroke-linejoin: round;
}
.g5_178{
fill: none;
stroke: #000000;
stroke-width: 0.89747864;
stroke-linecap: butt;
stroke-linejoin: round;
}
.g6_178{
fill: none;
stroke: #000000;
stroke-width: 0.9058908;
stroke-linecap: butt;
stroke-linejoin: round;
}
.g7_178{
}
]]></style>
</defs>
<image preserveAspectRatio="none" x="748" y="1196" width="94" height="58" xlink:href="img/1.png" />
<image preserveAspectRatio="none" x="336" y="42" width="259" height="49" xlink:href="img/2.png" />
<image preserveAspectRatio="none" x="342" y="50" width="247" height="27" xlink:href="img/3.png" />
<image preserveAspectRatio="none" x="341" y="46" width="238" height="41" xlink:href="img/4.png" />
<g fill="#FFFFFF" >
<use xlink:href="#f0_j" transform="matrix(11.5,0,0,11.5,354.9,70)" />
<use xlink:href="#f0_i" transform="matrix(11.5,0,0,11.5,364.2,70)" />
<use xlink:href="#f0_2n" transform="matrix(11.5,0,0,11.5,374.1,70)" />
<use xlink:href="#f0_t" transform="matrix(11.5,0,0,11.5,382.4,70)" />
<use xlink:href="#f0_oj" transform="matrix(11.5,0,0,11.5,391,70)" />
<use xlink:href="#f0_3e" transform="matrix(11.5,0,0,11.5,396.3,70)" />
<use xlink:href="#f0_1c" transform="matrix(11.5,0,0,11.5,406,70)" />
<use xlink:href="#f0_1c" transform="matrix(11.5,0,0,11.5,410.7,70)" />
<use xlink:href="#f0_oj" transform="matrix(11.5,0,0,11.5,415.4,70)" />
<use xlink:href="#f0_rz" transform="matrix(11.5,0,0,11.5,420.8,70)" />
<use xlink:href="#f0_rx" transform="matrix(11.5,0,0,11.5,429.7,70)" />
<use xlink:href="#f0_ry" transform="matrix(11.5,0,0,11.5,438.6,70)" />
<use xlink:href="#f0_s0" transform="matrix(11.5,0,0,11.5,447.4,70)" />
<use xlink:href="#f0_t" transform="matrix(11.5,0,0,11.5,460.2,70)" />
<use xlink:href="#f0_3e" transform="matrix(11.5,0,0,11.5,468.8,70)" />
<use xlink:href="#f0_5" transform="matrix(11.5,0,0,11.5,478.5,70)" />
<use xlink:href="#f0_1x" transform="matrix(11.5,0,0,11.5,489.2,70)" />
<use xlink:href="#f0_1c" transform="matrix(11.5,0,0,11.5,504.6,70)" />
<use xlink:href="#f0_1y" transform="matrix(11.5,0,0,11.5,509.3,70)" />
<use xlink:href="#f0_5" transform="matrix(11.5,0,0,11.5,520.9,70)" />
<use xlink:href="#f0_2t" transform="matrix(11.5,0,0,11.5,531.5,70)" />
<use xlink:href="#f0_1c" transform="matrix(11.5,0,0,11.5,540.2,70)" />
<use xlink:href="#f0_24" transform="matrix(11.5,0,0,11.5,544.9,70)" />
<use xlink:href="#f0_1y" transform="matrix(11.5,0,0,11.5,556.8,70)" />
</g>
<image preserveAspectRatio="none" x="554" y="46" width="36" height="41" xlink:href="img/5.png" />
<g fill="#FFFFFF" >
<use xlink:href="#f1_l" transform="matrix(11,0,0,11,770.1,1227.7)" />
<use xlink:href="#f1_n" transform="matrix(11,0,0,11,779,1227.7)" />
<use xlink:href="#f1_j" transform="matrix(11,0,0,11,792.4,1227.7)" />
<use xlink:href="#f1_l" transform="matrix(11,0,0,11,803,1227.7)" />
<use xlink:href="#f1_r" transform="matrix(11,0,0,11,811.9,1227.7)" />
</g>
<path fill-rule="evenodd" d="M52.7,1193.2H856.9v-.7H52.7v.7Z" class="g0_178" />
<path d="M37.9,99.4L873,98.5" class="g1_178" />
<g fill="#000000" >
<use xlink:href="#f2_1f" transform="matrix(12,0,0,12,442.1,383.9)" />
<use xlink:href="#f2_1i" transform="matrix(12,0,0,12,455.3,383.9)" />
</g>
<path d="M146.1,413.8h25.1" class="g2_178" />
<g clip-path="url(#c0_178)">
<g fill="#000000" >
<use xlink:href="#f2_k" transform="matrix(7,0,0,6.9,160.2,437.5)" />
<use xlink:href="#f2_2d" transform="matrix(12.1,0,0,11.9,146.9,406.7)" />
<use xlink:href="#f2_29" transform="matrix(12.1,0,0,11.9,156.1,410.7)" />
<use xlink:href="#f2_c" transform="matrix(12.1,0,0,11.9,57.5,418.4)" />
<use xlink:href="#f2_25" transform="matrix(12.1,0,0,11.9,63.5,418.4)" />
<use xlink:href="#f2_d" transform="matrix(12.1,0,0,11.9,68.9,418.4)" />
<use xlink:href="#f2_15" transform="matrix(12.1,0,0,11.9,98.8,418.4)" />
<use xlink:href="#f2_20" transform="matrix(12.1,0,0,11.9,110.5,418.4)" />
<use xlink:href="#f2_2f" transform="matrix(12.1,0,0,11.9,119.7,418.4)" />
<use xlink:href="#f3_x" transform="matrix(12.1,0,0,11.9,131.3,418.4)" />
<use xlink:href="#f3_40" transform="matrix(12.1,0,0,11.9,148.5,432.8)" />
<use xlink:href="#f3_50" transform="matrix(18.2,0,0,17.9,86.9,424.9)" />
</g>
</g>
<image preserveAspectRatio="none" x="99" y="381" width="68" height="32" xlink:href="img/6.png" />
<image preserveAspectRatio="none" x="85" y="393" width="110" height="47" xlink:href="img/7.png" />
<path d="M112.4,467.1h18.9" class="g3_178" />
<g clip-path="url(#c1_178)">
<g fill="#000000" >
<use xlink:href="#f2_m" transform="matrix(7.1,0,0,6.9,86.2,463.5)" />
<use xlink:href="#f2_k" transform="matrix(7.1,0,0,6.9,123.3,490.6)" />
<use xlink:href="#f2_2d" transform="matrix(12.3,0,0,11.9,117.1,460.2)" />
<use xlink:href="#f2_15" transform="matrix(12.3,0,0,11.9,57.8,471.7)" />
<use xlink:href="#f2_2e" transform="matrix(12.3,0,0,11.9,78.9,471.7)" />
<use xlink:href="#f3_2c" transform="matrix(12.3,0,0,11.9,69.1,471.7)" />
<use xlink:href="#f3_x" transform="matrix(12.3,0,0,11.9,97.7,471.7)" />
<use xlink:href="#f3_40" transform="matrix(12.3,0,0,11.9,111.5,485.9)" />
</g>
</g>
<path d="M89.8,520.3h62.7" class="g4_178" />
<g clip-path="url(#c2_178)">
<g fill="#000000" >
<use xlink:href="#f2_m" transform="matrix(7,0,0,6.9,144.7,531.2)" />
<use xlink:href="#f2_k" transform="matrix(7,0,0,6.9,124.5,544)" />
<use xlink:href="#f2_o" transform="matrix(12.1,0,0,11.9,91,539.3)" />
<use xlink:href="#f4_2d" transform="matrix(12.1,0,0,11.9,116.5,513.2)" />
<use xlink:href="#f4_15" transform="matrix(12.1,0,0,11.9,58.4,524.9)" />
<use xlink:href="#f4_2e" transform="matrix(12.1,0,0,11.9,135.9,539.3)" />
<use xlink:href="#f3_x" transform="matrix(12.1,0,0,11.9,75,524.9)" />
<use xlink:href="#f3_2c" transform="matrix(12.1,0,0,11.9,100.5,539.3)" />
<use xlink:href="#f3_40" transform="matrix(12.1,0,0,11.9,112.7,539.3)" />
</g>
</g>
<g fill="#000000" >
<use xlink:href="#f2_c" transform="matrix(12,0,0,12,55,710.3)" />
<use xlink:href="#f2_25" transform="matrix(12,0,0,12,61.1,710.3)" />
<use xlink:href="#f2_25" transform="matrix(12,0,0,12,66.3,710.3)" />
<use xlink:href="#f2_d" transform="matrix(12,0,0,12,71.4,710.3)" />
</g>
<path d="M150.8,705.9h20.8" class="g5_178" />
<g clip-path="url(#c3_178)">
<g fill="#000000" >
<use xlink:href="#f2_k" transform="matrix(7,0,0,6.9,162.8,729.6)" />
<use xlink:href="#f2_i" transform="matrix(12,0,0,11.9,111,710.4)" />
<use xlink:href="#f4_25" transform="matrix(7,0,0,6.9,160.7,703.5)" />
<use xlink:href="#f4_2a" transform="matrix(7,0,0,6.9,163.7,703.5)" />
<use xlink:href="#f4_2d" transform="matrix(12,0,0,11.9,152,698.8)" />
<use xlink:href="#f4_15" transform="matrix(12,0,0,11.9,99.5,710.4)" />
<use xlink:href="#f4_20" transform="matrix(12,0,0,11.9,115,710.4)" />
<use xlink:href="#f4_2f" transform="matrix(12,0,0,11.9,124.2,710.4)" />
<use xlink:href="#f3_x" transform="matrix(12,0,0,11.9,136,710.4)" />
<use xlink:href="#f3_40" transform="matrix(12,0,0,11.9,151.1,724.9)" />
<use xlink:href="#f3_50" transform="matrix(18.1,0,0,17.9,87,717)" />
</g>
</g>
<image preserveAspectRatio="none" x="115" y="673" width="60" height="32" xlink:href="img/8.png" />
<image preserveAspectRatio="none" x="103" y="674" width="73" height="31" xlink:href="img/9.png" />
<image preserveAspectRatio="none" x="85" y="685" width="110" height="48" xlink:href="img/10.png" />
<path d="M128.3,902.9h18.6" class="g6_178" />
<g clip-path="url(#c4_178)">
<g fill="#000000" >
<use xlink:href="#f2_m" transform="matrix(7,0,0,6.9,102.2,899.3)" />
<use xlink:href="#f2_k" transform="matrix(7,0,0,6.9,139.2,926.5)" />
<use xlink:href="#f2_k" transform="matrix(12.2,0,0,11.9,133.2,895.8)" />
<use xlink:href="#f2_i" transform="matrix(12.2,0,0,11.9,69.8,907.4)" />
<use xlink:href="#f2_o" transform="matrix(12.2,0,0,11.9,74.4,907.4)" />
<use xlink:href="#f4_15" transform="matrix(12.2,0,0,11.9,58.4,907.4)" />
<use xlink:href="#f4_2e" transform="matrix(12.2,0,0,11.9,93.5,907.4)" />
<use xlink:href="#f3_2c" transform="matrix(12.2,0,0,11.9,83.8,907.4)" />
<use xlink:href="#f3_x" transform="matrix(12.2,0,0,11.9,113.6,907.4)" />
<use xlink:href="#f3_40" transform="matrix(12.2,0,0,11.9,127.5,921.8)" />
</g>
</g>
<g fill="#000000" >
<use xlink:href="#f2_15" transform="matrix(12,0,0,12,55,949)" />
<use xlink:href="#f2_x" transform="matrix(12,0,0,12,70.8,949)" />
<use xlink:href="#f2_k" transform="matrix(12,0,0,12,85.7,949)" />
<use xlink:href="#f2_m" transform="matrix(12,0,0,12,55,1108.4)" />
<use xlink:href="#f2_s" transform="matrix(12,0,0,12,64.2,1108.4)" />
<use xlink:href="#f2_i" transform="matrix(12,0,0,12,73.3,1108.4)" />
<use xlink:href="#f2_1l" transform="matrix(12,0,0,12,82.5,1108.4)" />
<use xlink:href="#f2_2f" transform="matrix(12,0,0,12,95.7,1108.4)" />
<use xlink:href="#f2_25" transform="matrix(12,0,0,12,102.9,1108.4)" />
<use xlink:href="#f2_2a" transform="matrix(12,0,0,12,108,1108.4)" />
<use xlink:href="#f2_23" transform="matrix(12,0,0,12,117.1,1108.4)" />
<use xlink:href="#f2_12" transform="matrix(12,0,0,12,130.9,1108.4)" />
<use xlink:href="#f2_2b" transform="matrix(12,0,0,12,143.1,1108.4)" />
<use xlink:href="#f2_24" transform="matrix(12,0,0,12,152.3,1108.4)" />
<use xlink:href="#f2_2e" transform="matrix(12,0,0,12,161.4,1108.4)" />
<use xlink:href="#f2_b" transform="matrix(12,0,0,12,167.5,1108.4)" />
<use xlink:href="#f2_2f" transform="matrix(12,0,0,12,170.8,1108.4)" />
<use xlink:href="#f2_2c" transform="matrix(12,0,0,12,182.5,1108.4)" />
<use xlink:href="#f2_2b" transform="matrix(12,0,0,12,191.7,1108.4)" />
<use xlink:href="#f2_2f" transform="matrix(12,0,0,12,200.8,1108.4)" />
<use xlink:href="#f2_2g" transform="matrix(12,0,0,12,208,1108.4)" />
<use xlink:href="#f2_2h" transform="matrix(12,0,0,12,213.1,1108.4)" />
<use xlink:href="#f2_28" transform="matrix(12,0,0,12,222.3,1108.4)" />
<use xlink:href="#f2_1x" transform="matrix(12,0,0,12,227.4,1108.4)" />
<use xlink:href="#f2_2g" transform="matrix(12,0,0,12,235.5,1108.4)" />
<use xlink:href="#f2_21" transform="matrix(12,0,0,12,240.6,1108.4)" />
<use xlink:href="#f2_2f" transform="matrix(12,0,0,12,248.7,1108.4)" />
<use xlink:href="#f2_g" transform="matrix(12,0,0,12,255.9,1108.4)" />
<use xlink:href="#f2_20" transform="matrix(12,0,0,12,265,1108.4)" />
<use xlink:href="#f2_21" transform="matrix(12,0,0,12,274.2,1108.4)" />
<use xlink:href="#f2_2e" transform="matrix(12,0,0,12,282.4,1108.4)" />
<use xlink:href="#f2_25" transform="matrix(12,0,0,12,288.5,1108.4)" />
<use xlink:href="#f2_2i" transform="matrix(12,0,0,12,293.6,1108.4)" />
<use xlink:href="#f2_21" transform="matrix(12,0,0,12,302.7,1108.4)" />
<use xlink:href="#f2_2g" transform="matrix(12,0,0,12,315.4,1108.4)" />
<use xlink:href="#f2_24" transform="matrix(12,0,0,12,320.5,1108.4)" />
<use xlink:href="#f2_21" transform="matrix(12,0,0,12,329.6,1108.4)" />
<use xlink:href="#f2_21" transform="matrix(12,0,0,12,342.3,1108.4)" />
<use xlink:href="#f2_2k" transform="matrix(12,0,0,12,350.5,1108.4)" />
<use xlink:href="#f2_2c" transform="matrix(12,0,0,12,359.6,1108.4)" />
<use xlink:href="#f2_2e" transform="matrix(12,0,0,12,368.8,1108.4)" />
<use xlink:href="#f2_21" transform="matrix(12,0,0,12,375,1108.4)" />
<use xlink:href="#f2_2f" transform="matrix(12,0,0,12,383.1,1108.4)" />
<use xlink:href="#f2_2f" transform="matrix(12,0,0,12,390.2,1108.4)" />
<use xlink:href="#f2_25" transform="matrix(12,0,0,12,397.4,1108.4)" />
<use xlink:href="#f2_2b" transform="matrix(12,0,0,12,402.5,1108.4)" />
<use xlink:href="#f2_2a" transform="matrix(12,0,0,12,411.5,1108.4)" />
<use xlink:href="#f2_22" transform="matrix(12,0,0,12,425.3,1108.4)" />
<use xlink:href="#f2_2b" transform="matrix(12,0,0,12,431.4,1108.4)" />
<use xlink:href="#f2_2e" transform="matrix(12,0,0,12,440.6,1108.4)" />
<use xlink:href="#f2_2g" transform="matrix(12,0,0,12,451.2,1108.4)" />
<use xlink:href="#f2_24" transform="matrix(12,0,0,12,456.3,1108.4)" />
<use xlink:href="#f2_21" transform="matrix(12,0,0,12,465.5,1108.4)" />
<use xlink:href="#f2_22" transform="matrix(12,0,0,12,478.2,1108.4)" />
<use xlink:href="#f2_2e" transform="matrix(12,0,0,12,484.3,1108.4)" />
<use xlink:href="#f2_21" transform="matrix(12,0,0,12,490.4,1108.4)" />
<use xlink:href="#f2_2d" transform="matrix(12,0,0,12,498.5,1108.4)" />
<use xlink:href="#f2_2h" transform="matrix(12,0,0,12,507.7,1108.4)" />
<use xlink:href="#f2_21" transform="matrix(12,0,0,12,516.9,1108.4)" />
<use xlink:href="#f2_2a" transform="matrix(12,0,0,12,525,1108.4)" />
<use xlink:href="#f2_1z" transform="matrix(12,0,0,12,534.2,1108.4)" />
<use xlink:href="#f2_2l" transform="matrix(12,0,0,12,542.3,1108.4)" />
<use xlink:href="#f2_2b" transform="matrix(12,0,0,12,556.1,1108.4)" />
<use xlink:href="#f2_22" transform="matrix(12,0,0,12,565.2,1108.4)" />
<use xlink:href="#f2_2e" transform="matrix(12,0,0,12,575.9,1108.4)" />
<use xlink:href="#f2_1x" transform="matrix(12,0,0,12,582,1108.4)" />
<use xlink:href="#f2_20" transform="matrix(12,0,0,12,590.1,1108.4)" />
<use xlink:href="#f2_25" transform="matrix(12,0,0,12,599.3,1108.4)" />
<use xlink:href="#f2_1x" transform="matrix(12,0,0,12,604.4,1108.4)" />
<use xlink:href="#f2_2g" transform="matrix(12,0,0,12,612.5,1108.4)" />
<use xlink:href="#f2_25" transform="matrix(12,0,0,12,617.6,1108.4)" />
<use xlink:href="#f2_2b" transform="matrix(12,0,0,12,622.7,1108.4)" />
<use xlink:href="#f2_2a" transform="matrix(12,0,0,12,631.9,1108.4)" />
<use xlink:href="#f2_21" transform="matrix(12,0,0,12,645.6,1108.4)" />
<use xlink:href="#f2_29" transform="matrix(12,0,0,12,653.7,1108.4)" />
<use xlink:href="#f2_25" transform="matrix(12,0,0,12,667.9,1108.4)" />
<use xlink:href="#f2_2g" transform="matrix(12,0,0,12,673,1108.4)" />
<use xlink:href="#f2_2g" transform="matrix(12,0,0,12,678.2,1108.4)" />
<use xlink:href="#f2_21" transform="matrix(12,0,0,12,683.3,1108.4)" />
<use xlink:href="#f2_20" transform="matrix(12,0,0,12,691.4,1108.4)" />
<use xlink:href="#f2_2j" transform="matrix(12,0,0,12,705.2,1108.4)" />
<use xlink:href="#f2_24" transform="matrix(12,0,0,12,718.3,1108.4)" />
<use xlink:href="#f2_21" transform="matrix(12,0,0,12,727.5,1108.4)" />
<use xlink:href="#f2_2a" transform="matrix(12,0,0,12,735.6,1108.4)" />
<use xlink:href="#f2_21" transform="matrix(12,0,0,12,749.4,1108.4)" />
<use xlink:href="#f2_28" transform="matrix(12,0,0,12,757.5,1108.4)" />
<use xlink:href="#f2_21" transform="matrix(12,0,0,12,762.7,1108.4)" />
<use xlink:href="#f2_1z" transform="matrix(12,0,0,12,770.7,1108.4)" />
<use xlink:href="#f2_2g" transform="matrix(12,0,0,12,778.9,1108.4)" />
<use xlink:href="#f2_2e" transform="matrix(12,0,0,12,784,1108.4)" />
<use xlink:href="#f2_2b" transform="matrix(12,0,0,12,790.1,1108.4)" />
<use xlink:href="#f2_2a" transform="matrix(12,0,0,12,799.3,1108.4)" />
<use xlink:href="#f2_25" transform="matrix(12,0,0,12,813,1108.4)" />
<use xlink:href="#f2_2a" transform="matrix(12,0,0,12,818.1,1108.4)" />
<use xlink:href="#f2_24" transform="matrix(12,0,0,12,55,1131.3)" />
<use xlink:href="#f2_2l" transform="matrix(12,0,0,12,64.2,1131.3)" />
<use xlink:href="#f2_20" transform="matrix(12,0,0,12,73.3,1131.3)" />
<use xlink:href="#f2_2e" transform="matrix(12,0,0,12,82.5,1131.3)" />
<use xlink:href="#f2_2b" transform="matrix(12,0,0,12,88.6,1131.3)" />
<use xlink:href="#f2_23" transform="matrix(12,0,0,12,97.8,1131.3)" />
<use xlink:href="#f2_21" transform="matrix(12,0,0,12,106.9,1131.3)" />
<use xlink:href="#f2_2a" transform="matrix(12,0,0,12,115.1,1131.3)" />
<use xlink:href="#f2_1x" transform="matrix(12,0,0,12,128.9,1131.3)" />
<use xlink:href="#f2_2g" transform="matrix(12,0,0,12,137,1131.3)" />
<use xlink:href="#f2_2b" transform="matrix(12,0,0,12,142.1,1131.3)" />
<use xlink:href="#f2_29" transform="matrix(12,0,0,12,151.3,1131.3)" />
<use xlink:href="#f2_2h" transform="matrix(12,0,0,12,170,1131.3)" />
<use xlink:href="#f2_2a" transform="matrix(12,0,0,12,179.2,1131.3)" />
<use xlink:href="#f2_20" transform="matrix(12,0,0,12,188.4,1131.3)" />
<use xlink:href="#f2_21" transform="matrix(12,0,0,12,197.5,1131.3)" />
<use xlink:href="#f2_2e" transform="matrix(12,0,0,12,205.7,1131.3)" />
<use xlink:href="#f2_23" transform="matrix(12,0,0,12,211.8,1131.3)" />
<use xlink:href="#f2_2b" transform="matrix(12,0,0,12,221,1131.3)" />
<use xlink:href="#f2_21" transform="matrix(12,0,0,12,230.1,1131.3)" />
<use xlink:href="#f2_2f" transform="matrix(12,0,0,12,238.3,1131.3)" />
<use xlink:href="#f2_2g" transform="matrix(12,0,0,12,250,1131.3)" />
<use xlink:href="#f2_2e" transform="matrix(12,0,0,12,255.1,1131.3)" />
<use xlink:href="#f2_1x" transform="matrix(12,0,0,12,261.3,1131.3)" />
<use xlink:href="#f2_2a" transform="matrix(12,0,0,12,269.4,1131.3)" />
<use xlink:href="#f2_2f" transform="matrix(12,0,0,12,278.6,1131.3)" />
<use xlink:href="#f2_25" transform="matrix(12,0,0,12,285.7,1131.3)" />
<use xlink:href="#f2_2g" transform="matrix(12,0,0,12,290.7,1131.3)" />
<use xlink:href="#f2_25" transform="matrix(12,0,0,12,295.8,1131.3)" />
<use xlink:href="#f2_2b" transform="matrix(12,0,0,12,301,1131.3)" />
<use xlink:href="#f2_2a" transform="matrix(12,0,0,12,310.1,1131.3)" />
<use xlink:href="#f2_22" transform="matrix(12,0,0,12,323.8,1131.3)" />
<use xlink:href="#f2_2e" transform="matrix(12,0,0,12,329.9,1131.3)" />
<use xlink:href="#f2_2b" transform="matrix(12,0,0,12,336,1131.3)" />
<use xlink:href="#f2_29" transform="matrix(12,0,0,12,345.2,1131.3)" />
<use xlink:href="#f2_24" transform="matrix(12,0,0,12,363.9,1131.3)" />
<use xlink:href="#f2_25" transform="matrix(12,0,0,12,373.1,1131.3)" />
<use xlink:href="#f2_23" transform="matrix(12,0,0,12,378.2,1131.3)" />
<use xlink:href="#f2_24" transform="matrix(12,0,0,12,387.3,1131.3)" />
<use xlink:href="#f2_21" transform="matrix(12,0,0,12,396.5,1131.3)" />
<use xlink:href="#f2_2e" transform="matrix(12,0,0,12,404.7,1131.3)" />
<use xlink:href="#f2_21" transform="matrix(12,0,0,12,415.4,1131.3)" />
<use xlink:href="#f2_2a" transform="matrix(12,0,0,12,423.6,1131.3)" />
<use xlink:href="#f2_21" transform="matrix(12,0,0,12,432.7,1131.3)" />
<use xlink:href="#f2_2e" transform="matrix(12,0,0,12,440.9,1131.3)" />
<use xlink:href="#f2_23" transform="matrix(12,0,0,12,447,1131.3)" />
<use xlink:href="#f2_2l" transform="matrix(12,0,0,12,456.2,1131.3)" />
<use xlink:href="#f2_2f" transform="matrix(12,0,0,12,469.9,1131.3)" />
<use xlink:href="#f2_2g" transform="matrix(12,0,0,12,477.1,1131.3)" />
<use xlink:href="#f2_1x" transform="matrix(12,0,0,12,482.1,1131.3)" />
<use xlink:href="#f2_2g" transform="matrix(12,0,0,12,490.3,1131.3)" />
<use xlink:href="#f2_21" transform="matrix(12,0,0,12,495.4,1131.3)" />
<use xlink:href="#f2_c" transform="matrix(12,0,0,12,508.1,1131.3)" />
<use xlink:href="#f2_2d" transform="matrix(12,0,0,12,514.2,1131.3)" />
<use xlink:href="#f2_2h" transform="matrix(12,0,0,12,523.3,1131.3)" />
<use xlink:href="#f2_1x" transform="matrix(12,0,0,12,532.5,1131.3)" />
<use xlink:href="#f2_2a" transform="matrix(12,0,0,12,540.7,1131.3)" />
<use xlink:href="#f2_2g" transform="matrix(12,0,0,12,549.8,1131.3)" />
<use xlink:href="#f2_2h" transform="matrix(12,0,0,12,554.9,1131.3)" />
<use xlink:href="#f2_29" transform="matrix(12,0,0,12,564.1,1131.3)" />
<use xlink:href="#f2_2a" transform="matrix(12,0,0,12,582.8,1131.3)" />
<use xlink:href="#f2_2h" transform="matrix(12,0,0,12,592,1131.3)" />
<use xlink:href="#f2_29" transform="matrix(12,0,0,12,601.2,1131.3)" />
<use xlink:href="#f2_1y" transform="matrix(12,0,0,12,615.4,1131.3)" />
<use xlink:href="#f2_21" transform="matrix(12,0,0,12,624.5,1131.3)" />
<use xlink:href="#f2_2e" transform="matrix(12,0,0,12,632.7,1131.3)" />
<use xlink:href="#f2_2a" transform="matrix(12,0,0,12,643.7,1131.3)" />
<use xlink:href="#f2_25" transform="matrix(8,0,0,8,652.9,1132)" />
<use xlink:href="#f2_d" transform="matrix(12,0,0,12,656.2,1131.3)" />
<use xlink:href="#f2_2g" transform="matrix(12,0,0,12,666.9,1131.3)" />
<use xlink:href="#f2_2b" transform="matrix(12,0,0,12,672.1,1131.3)" />
<use xlink:href="#f2_2g" transform="matrix(12,0,0,12,685.8,1131.3)" />
<use xlink:href="#f2_24" transform="matrix(12,0,0,12,690.9,1131.3)" />
<use xlink:href="#f2_21" transform="matrix(12,0,0,12,700,1131.3)" />
<use xlink:href="#f2_28" transform="matrix(12,0,0,12,712.8,1131.3)" />
<use xlink:href="#f2_2b" transform="matrix(12,0,0,12,717.9,1131.3)" />
<use xlink:href="#f2_2j" transform="matrix(12,0,0,12,727,1131.3)" />
<use xlink:href="#f2_21" transform="matrix(12,0,0,12,740.3,1131.3)" />
<use xlink:href="#f2_2e" transform="matrix(12,0,0,12,748.4,1131.3)" />
<use xlink:href="#f2_2f" transform="matrix(12,0,0,12,759.1,1131.3)" />
<use xlink:href="#f2_2g" transform="matrix(12,0,0,12,766.3,1131.3)" />
<use xlink:href="#f2_1x" transform="matrix(12,0,0,12,771.4,1131.3)" />
<use xlink:href="#f2_2g" transform="matrix(12,0,0,12,779.5,1131.3)" />
<use xlink:href="#f2_21" transform="matrix(12,0,0,12,784.5,1131.3)" />
<use xlink:href="#f2_g" transform="matrix(12,0,0,12,792.7,1131.3)" />
<use xlink:href="#f2_c" transform="matrix(12,0,0,12,55,1159.7)" />
<use xlink:href="#f2_2a" transform="matrix(12,0,0,12,61.1,1159.7)" />
<use xlink:href="#f2_22" transform="matrix(10.5,0,0,10.5,70.3,1161.2)" />
<use xlink:href="#f2_d" transform="matrix(12,0,0,12,75.6,1159.7)" />
<use xlink:href="#f2_i" transform="matrix(12,0,0,12,81.7,1159.7)" />
<use xlink:href="#f2_1n" transform="matrix(12,0,0,12,86.3,1159.7)" />
<use xlink:href="#f2_24" transform="matrix(12,0,0,12,103.5,1159.7)" />
<use xlink:href="#f2_21" transform="matrix(12,0,0,12,112.7,1159.7)" />
<use xlink:href="#f2_2a" transform="matrix(12,0,0,12,120.8,1159.7)" />
<use xlink:href="#f2_21" transform="matrix(12,0,0,12,134.5,1159.7)" />
<use xlink:href="#f2_28" transform="matrix(12,0,0,12,142.7,1159.7)" />
<use xlink:href="#f2_21" transform="matrix(12,0,0,12,147.8,1159.7)" />
<use xlink:href="#f2_1z" transform="matrix(12,0,0,12,156,1159.7)" />
<use xlink:href="#f2_2g" transform="matrix(12,0,0,12,164.1,1159.7)" />
<use xlink:href="#f2_2e" transform="matrix(12,0,0,12,169.3,1159.7)" />
<use xlink:href="#f2_2b" transform="matrix(12,0,0,12,175.4,1159.7)" />
<use xlink:href="#f2_2a" transform="matrix(12,0,0,12,184.5,1159.7)" />
<use xlink:href="#f2_25" transform="matrix(12,0,0,12,198.3,1159.7)" />
<use xlink:href="#f2_2a" transform="matrix(12,0,0,12,203.4,1159.7)" />
<use xlink:href="#f2_24" transform="matrix(12,0,0,12,217.1,1159.7)" />
<use xlink:href="#f2_2l" transform="matrix(12,0,0,12,226.3,1159.7)" />
<use xlink:href="#f2_20" transform="matrix(12,0,0,12,235.4,1159.7)" />
<use xlink:href="#f2_2e" transform="matrix(12,0,0,12,244.5,1159.7)" />
<use xlink:href="#f2_2b" transform="matrix(12,0,0,12,250.6,1159.7)" />
<use xlink:href="#f2_23" transform="matrix(12,0,0,12,259.8,1159.7)" />
<use xlink:href="#f2_21" transform="matrix(12,0,0,12,269,1159.7)" />
<use xlink:href="#f2_2a" transform="matrix(12,0,0,12,277.1,1159.7)" />
<use xlink:href="#f2_1x" transform="matrix(12,0,0,12,290.9,1159.7)" />
<use xlink:href="#f2_2g" transform="matrix(12,0,0,12,299,1159.7)" />
<use xlink:href="#f2_2b" transform="matrix(12,0,0,12,304.1,1159.7)" />
<use xlink:href="#f2_29" transform="matrix(12,0,0,12,313.3,1159.7)" />
<use xlink:href="#f2_26" transform="matrix(12,0,0,12,332.1,1159.7)" />
<use xlink:href="#f2_2h" transform="matrix(12,0,0,12,337.2,1159.7)" />
<use xlink:href="#f2_29" transform="matrix(12,0,0,12,346.3,1159.7)" />
<use xlink:href="#f2_2c" transform="matrix(12,0,0,12,360.5,1159.7)" />
<use xlink:href="#f2_2f" transform="matrix(12,0,0,12,369.6,1159.7)" />
<use xlink:href="#f2_22" transform="matrix(12,0,0,12,381.4,1159.7)" />
<use xlink:href="#f2_2e" transform="matrix(12,0,0,12,387.5,1159.7)" />
<use xlink:href="#f2_2b" transform="matrix(12,0,0,12,393.7,1159.7)" />
<use xlink:href="#f2_29" transform="matrix(12,0,0,12,402.9,1159.7)" />
<use xlink:href="#f2_21" transform="matrix(12,0,0,12,421.7,1159.7)" />
<use xlink:href="#f2_2a" transform="matrix(12,0,0,12,429.8,1159.7)" />
<use xlink:href="#f2_21" transform="matrix(12,0,0,12,439,1159.7)" />
<use xlink:href="#f2_2e" transform="matrix(12,0,0,12,447.1,1159.7)" />
<use xlink:href="#f2_23" transform="matrix(12,0,0,12,453.3,1159.7)" />
<use xlink:href="#f2_2l" transform="matrix(12,0,0,12,462.4,1159.7)" />
<use xlink:href="#f2_2f" transform="matrix(12,0,0,12,476.2,1159.7)" />
<use xlink:href="#f2_2g" transform="matrix(12,0,0,12,483.3,1159.7)" />
<use xlink:href="#f2_1x" transform="matrix(12,0,0,12,488.4,1159.7)" />
<use xlink:href="#f2_2g" transform="matrix(12,0,0,12,496.6,1159.7)" />
<use xlink:href="#f2_21" transform="matrix(12,0,0,12,501.7,1159.7)" />
<use xlink:href="#f2_2a" transform="matrix(12,0,0,12,514.3,1159.7)" />
<use xlink:href="#f2_25" transform="matrix(8,0,0,8,523.7,1160.4)" />
<use xlink:href="#f2_x" transform="matrix(12,0,0,12,531.6,1159.7)" />
<use xlink:href="#f2_o" transform="matrix(12,0,0,12,546.6,1159.7)" />
<use xlink:href="#f2_2g" transform="matrix(12,0,0,12,560.3,1159.7)" />
<use xlink:href="#f2_2b" transform="matrix(12,0,0,12,565.4,1159.7)" />
<use xlink:href="#f2_2a" transform="matrix(12,0,0,12,579.2,1159.7)" />
<use xlink:href="#f2_22" transform="matrix(8,0,0,8,588.4,1160.4)" />
<use xlink:href="#f2_x" transform="matrix(12,0,0,12,597,1159.7)" />
<use xlink:href="#f2_n" transform="matrix(12,0,0,12,611.9,1159.7)" />
<use xlink:href="#f2_g" transform="matrix(12,0,0,12,621.1,1159.7)" />
<use xlink:href="#f2_m" transform="matrix(12,0,0,12,625.7,1159.7)" />
<use xlink:href="#f2_g" transform="matrix(12,0,0,12,634.8,1159.7)" />
<use xlink:href="#f2_l" transform="matrix(12,0,0,12,639.4,1159.7)" />
<use xlink:href="#f2_g" transform="matrix(12,0,0,12,648.6,1159.7)" />
<use xlink:href="#f2_25" transform="matrix(12,0,0,12,657.8,1159.7)" />
<use xlink:href="#f2_20" transform="matrix(12,0,0,12,662.9,1159.7)" />
<use xlink:href="#f2_21" transform="matrix(12,0,0,12,672.1,1159.7)" />
<use xlink:href="#f2_2a" transform="matrix(12,0,0,12,680.2,1159.7)" />
<use xlink:href="#f2_2g" transform="matrix(12,0,0,12,689.3,1159.7)" />
<use xlink:href="#f2_25" transform="matrix(12,0,0,12,694.4,1159.7)" />
<use xlink:href="#f2_22" transform="matrix(12,0,0,12,699.5,1159.7)" />
<use xlink:href="#f2_2l" transform="matrix(12,0,0,12,705.6,1159.7)" />
<use xlink:href="#f2_2g" transform="matrix(12,0,0,12,719.4,1159.7)" />
<use xlink:href="#f2_24" transform="matrix(12,0,0,12,724.5,1159.7)" />
<use xlink:href="#f2_21" transform="matrix(12,0,0,12,733.7,1159.7)" />
<use xlink:href="#f2_2f" transform="matrix(12,0,0,12,746.4,1159.7)" />
<use xlink:href="#f2_2c" transform="matrix(12,0,0,12,753.5,1159.7)" />
<use xlink:href="#f2_21" transform="matrix(12,0,0,12,762.7,1159.7)" />
<use xlink:href="#f2_1z" transform="matrix(12,0,0,12,770.8,1159.7)" />
<use xlink:href="#f2_2g" transform="matrix(12,0,0,12,778.8,1159.7)" />
<use xlink:href="#f2_2e" transform="matrix(12,0,0,12,783.9,1159.7)" />
<use xlink:href="#f2_1x" transform="matrix(12,0,0,12,790.1,1159.7)" />
<use xlink:href="#f2_28" transform="matrix(12,0,0,12,798.1,1159.7)" />
<use xlink:href="#f2_2f" transform="matrix(12,0,0,12,807.8,1159.7)" />
<use xlink:href="#f2_21" transform="matrix(12,0,0,12,815,1159.7)" />
<use xlink:href="#f2_2e" transform="matrix(12,0,0,12,823.2,1159.7)" />
<use xlink:href="#f2_25" transform="matrix(12,0,0,12,829.3,1159.7)" />
<use xlink:href="#f2_21" transform="matrix(12,0,0,12,834.4,1159.7)" />
<use xlink:href="#f2_2f" transform="matrix(12,0,0,12,842.5,1159.7)" />
<use xlink:href="#f2_2g" transform="matrix(12,0,0,12,55,1184.3)" />
<use xlink:href="#f2_2b" transform="matrix(12,0,0,12,60.1,1184.3)" />
<use xlink:href="#f2_2j" transform="matrix(12,0,0,12,73.9,1184.3)" />
<use xlink:href="#f2_24" transform="matrix(12,0,0,12,87.1,1184.3)" />
<use xlink:href="#f2_25" transform="matrix(12,0,0,12,96.3,1184.3)" />
<use xlink:href="#f2_1z" transform="matrix(12,0,0,12,101.4,1184.3)" />
<use xlink:href="#f2_24" transform="matrix(12,0,0,12,109.5,1184.3)" />
<use xlink:href="#f2_2g" transform="matrix(12,0,0,12,123.3,1184.3)" />
<use xlink:href="#f2_24" transform="matrix(12,0,0,12,128.4,1184.3)" />
<use xlink:href="#f2_21" transform="matrix(12,0,0,12,137.5,1184.3)" />
<use xlink:href="#f2_21" transform="matrix(12,0,0,12,150.3,1184.3)" />
<use xlink:href="#f2_29" transform="matrix(12,0,0,12,158.4,1184.3)" />
<use xlink:href="#f2_25" transform="matrix(12,0,0,12,172.5,1184.3)" />
<use xlink:href="#f2_2f" transform="matrix(12,0,0,12,177.6,1184.3)" />
<use xlink:href="#f2_2f" transform="matrix(12,0,0,12,184.7,1184.3)" />
<use xlink:href="#f2_25" transform="matrix(12,0,0,12,191.9,1184.3)" />
<use xlink:href="#f2_2b" transform="matrix(12,0,0,12,197,1184.3)" />
<use xlink:href="#f2_2a" transform="matrix(12,0,0,12,206.2,1184.3)" />
<use xlink:href="#f2_28" transform="matrix(12,0,0,12,219.9,1184.3)" />
<use xlink:href="#f2_25" transform="matrix(12,0,0,12,225.1,1184.3)" />
<use xlink:href="#f2_2a" transform="matrix(12,0,0,12,230.2,1184.3)" />
<use xlink:href="#f2_21" transform="matrix(12,0,0,12,239.3,1184.3)" />
<use xlink:href="#f2_2f" transform="matrix(12,0,0,12,247.4,1184.3)" />
<use xlink:href="#f2_1y" transform="matrix(12,0,0,12,259.2,1184.3)" />
<use xlink:href="#f2_21" transform="matrix(12,0,0,12,268.3,1184.3)" />
<use xlink:href="#f2_28" transform="matrix(12,0,0,12,276.5,1184.3)" />
<use xlink:href="#f2_2b" transform="matrix(12,0,0,12,281.6,1184.3)" />
<use xlink:href="#f2_2a" transform="matrix(12,0,0,12,290.8,1184.3)" />
<use xlink:href="#f2_23" transform="matrix(12,0,0,12,299.9,1184.3)" />
<use xlink:href="#f2_i" transform="matrix(12,0,0,12,309.1,1184.3)" />
</g>
<image preserveAspectRatio="none" x="55" y="127" width="431" height="238" xlink:href="img/11.png" />
<image preserveAspectRatio="none" x="55" y="549" width="204" height="131" xlink:href="img/12.png" />
<image preserveAspectRatio="none" x="55" y="735" width="245" height="142" xlink:href="img/13.png" />
<image preserveAspectRatio="none" x="55" y="955" width="146" height="111" xlink:href="img/14.png" />
<path fill-rule="evenodd" d="M37.4,38.1h.7v-.7h-.7v.7Z" class="g7_178" />
<path fill-rule="evenodd" d="M37.4,38.1h.7v-.7h-.7v.7Z" class="g7_178" />
<path fill-rule="evenodd" d="M38.1,38.1H871.5v-.7H38.1v.7Z" class="g7_178" />
<path fill-rule="evenodd" d="M871.5,38.1h.7v-.7h-.7v.7Z" class="g7_178" />
<path fill-rule="evenodd" d="M871.5,38.1h.7v-.7h-.7v.7Z" class="g7_178" />
<path fill-rule="evenodd" d="M37.4,1248.2h.7V38.1h-.7V1248.2Z" class="g7_178" />
<path fill-rule="evenodd" d="M872.2,1248.2h.8V38.1h-.8V1248.2Z" class="g7_178" />
<path fill-rule="evenodd" d="M871.5,1248.2h.7V38.1h-.7V1248.2Z" class="g7_178" />
<path fill-rule="evenodd" d="M37.4,1249h.7v-.8h-.7v.8Z" class="g7_178" />
<path fill-rule="evenodd" d="M37.4,1249h.7v-.8h-.7v.8Z" class="g7_178" />
<path fill-rule="evenodd" d="M38.1,1249.7H871.5v-.7H38.1v.7Z" class="g7_178" />
<path fill-rule="evenodd" d="M38.1,1249H871.5v-.8H38.1v.8Z" class="g7_178" />
<path fill-rule="evenodd" d="M872.2,1249.7h.8v-1.5h-.8v1.5Z" class="g7_178" />
<path fill-rule="evenodd" d="M871.5,1249.7H873v-.7h-1.5v.7Z" class="g7_178" />
<path fill-rule="evenodd" d="M871.5,1249h.7v-.8h-.7v.8Z" class="g7_178" />
<path fill-rule="evenodd" d="M871.5,1249h.7v-.8h-.7v.8Z" class="g7_178" />
<defs>
<path d="M489,-15c0,0,-99,0,-179,30c0,0,-80,30,-136,91c0,0,-56,61,-85,152c0,0,-30,91,-30,212c0,0,0,123,32,218c0,0,33,96,92,161c0,0,59,65,142,98c0,0,82,34,181,34c0,0,40,0,78,-7c0,0,37,-7,69,-18c0,0,31,-11,57,-25c0,0,25,-14,35,-24c0,0,10,-10,14,-17c0,0,4,-7,6,-17c0,0,2,-11,3,-25c0,0,2,-14,2,-35c0,0,0,-22,-2,-38c0,0,-1,-15,-5,-25c0,0,-4,-10,-9,-14c0,0,-5,-5,-12,-5c0,0,-11,0,-28,13c0,0,-18,13,-45,29c0,0,-27,16,-65,29c0,0,-37,13,-89,13c0,0,-58,0,-103,-23c0,0,-45,-23,-77,-67c0,0,-31,-44,-48,-106c0,0,-16,-61,-16,-139c0,0,0,-85,17,-147c0,0,18,-62,50,-103c0,0,33,-40,79,-60c0,0,45,-19,103,-19c0,0,52,0,90,12c0,0,38,12,65,27c0,0,27,15,45,27c0,0,17,12,27,12c0,0,8,0,12,-3c0,0,4,-3,7,-12c0,0,3,-9,5,-25c0,0,1,-16,1,-43c0,0,0,-18,-1,-31c0,0,-1,-14,-3,-23c0,0,-2,-9,-6,-16c0,0,-4,-7,-12,-15c0,0,-8,-9,-32,-22c0,0,-23,-14,-57,-26C661,13,627,1,583,-6c0,0,-43,-9,-94,-9Z" 
id="f0_j"
transform="scale(0.001,-0.001)" />

<path d="M440,150c0,0,41,0,68,8c0,0,28,9,49,26c0,0,20,16,32,41c0,0,11,25,11,58c0,0,0,33,-11,60c0,0,-11,26,-33,44c0,0,-21,18,-55,28c0,0,-33,9,-87,9H298V150ZM407,567c0,0,42,0,68,10c0,0,25,10,42,28c0,0,16,17,24,41c0,0,9,24,9,50c0,0,0,29,-9,52c0,0,-9,23,-27,39c0,0,-18,15,-45,23c0,0,-27,8,-72,8H298V567ZM164,0c0,0,-25,0,-42,15c0,0,-16,14,-16,47V903c0,0,0,33,16,48c0,0,17,14,42,14H406c0,0,88,0,150,-15c0,0,61,-15,103,-45c0,0,42,-30,65,-77c0,0,22,-46,22,-108c0,0,0,-36,-9,-67c0,0,-9,-31,-26,-56c0,0,-17,-25,-42,-45c0,0,-25,-19,-57,-31c0,0,41,-7,76,-26c0,0,34,-19,60,-48c0,0,26,-30,41,-69c0,0,15,-40,15,-89c0,0,0,-51,-14,-93c0,0,-15,-42,-40,-74c0,0,-25,-32,-59,-55c0,0,-35,-23,-77,-38C614,29,573,14,525,7C525,7,478,0,420,0Z" 
id="f0_i"
transform="scale(0.001,-0.001)" />

<path d="M320,-17c0,0,-50,0,-93,9c0,0,-43,8,-76,19c0,0,-32,11,-54,24C97,35,75,48,65,58c0,0,-10,9,-14,28c0,0,-4,18,-4,52c0,0,0,23,1,39c0,0,2,15,5,25c0,0,4,10,9,14c0,0,6,4,13,4c0,0,11,0,30,-12c0,0,19,-13,49,-28c0,0,30,-15,71,-27c0,0,42,-12,96,-12c0,0,36,0,64,8c0,0,29,9,49,25c0,0,19,15,30,38c0,0,10,23,10,52c0,0,0,33,-18,56c0,0,-18,24,-46,42c0,0,-29,18,-66,34c0,0,-36,16,-75,34c0,0,-39,18,-76,41c0,0,-36,23,-65,54c0,0,-29,32,-47,75c0,0,-17,44,-17,104c0,0,0,70,25,122c0,0,26,53,70,88c0,0,43,34,103,51c0,0,59,18,125,18c0,0,35,0,69,-6c0,0,34,-5,64,-14c0,0,30,-9,53,-20c0,0,23,-11,31,-18c0,0,7,-8,10,-13c0,0,3,-5,4,-14c0,0,2,-8,3,-21c0,0,1,-13,1,-33c0,0,0,-21,-1,-36c0,0,-1,-15,-4,-25c0,0,-3,-9,-7,-14c0,0,-5,-4,-14,-4c0,0,-8,0,-26,10c0,0,-18,10,-44,23c0,0,-26,12,-60,22c0,0,-34,10,-75,10c0,0,-32,0,-56,-8c0,0,-24,-8,-40,-21c0,0,-16,-14,-24,-34c0,0,-8,-19,-8,-41c0,0,0,-32,18,-56c0,0,17,-23,46,-42c0,0,30,-18,67,-34c0,0,38,-16,76,-34c0,0,39,-18,76,-41c0,0,38,-22,67,-54c0,0,29,-32,47,-75c0,0,18,-43,18,-101c0,0,0,-76,-29,-133c0,0,-28,-58,-77,-96C572,60,524,21,459,2c0,0,-65,-19,-139,-19Z" 
id="f0_2n"
transform="scale(0.001,-0.001)" />

<path d="M164,0c0,0,-25,0,-42,15c0,0,-16,14,-16,47V903c0,0,0,33,16,48c0,0,17,14,42,14H645c0,0,7,0,12,-4c0,0,5,-3,9,-13c0,0,4,-9,6,-24c0,0,2,-14,2,-36c0,0,0,-21,-2,-36c0,0,-2,-14,-6,-23c0,0,-4,-9,-9,-13c0,0,-5,-4,-12,-4H301V576H593c0,0,6,0,12,-4c0,0,6,-4,9,-13c0,0,4,-8,6,-23c0,0,2,-14,2,-35c0,0,0,-22,-2,-36c0,0,-2,-14,-6,-23c0,0,-3,-8,-9,-12c0,0,-6,-4,-12,-4H301V154H649c0,0,6,0,12,-5c0,0,5,-4,9,-13c0,0,4,-9,6,-23c0,0,2,-15,2,-36c0,0,0,-22,-2,-36c0,0,-2,-15,-6,-24c0,0,-4,-9,-9,-13c0,0,-6,-4,-12,-4Z" 
id="f0_t"
transform="scale(0.001,-0.001)" />

<path d="M79,297c0,0,-19,0,-27,18c0,0,-8,17,-8,60c0,0,0,41,8,59c0,0,8,17,27,17H389c0,0,9,0,15,-4c0,0,7,-4,11,-13c0,0,5,-9,7,-23c0,0,1,-15,1,-36c0,0,0,-43,-8,-61c0,0,-8,-17,-26,-17Z" 
id="f0_oj"
transform="scale(0.001,-0.001)" />

<path d="M121,-4c0,0,-39,0,-60,2C61,-2,39,0,32,8c0,0,-8,8,-3,24c0,0,4,15,18,41L279,495L64,892c0,0,-14,26,-19,42c0,0,-5,17,4,24c0,0,9,8,32,10c0,0,23,2,65,2c0,0,35,0,56,-2c0,0,20,-1,32,-4c0,0,12,-4,17,-10c0,0,5,-6,9,-15L431,620L595,939c0,0,5,9,10,15c0,0,5,6,16,10c0,0,10,3,29,4c0,0,19,2,53,2c0,0,37,0,59,-2c0,0,22,-2,30,-10c0,0,8,-8,4,-24c0,0,-4,-16,-17,-42L564,497L793,73c0,0,14,-26,18,-41c0,0,4,-16,-5,-24c0,0,-9,-8,-32,-10c0,0,-24,-2,-65,-2c0,0,-36,0,-56,2c0,0,-20,1,-31,3c0,0,-12,4,-17,10c0,0,-5,6,-9,15L414,374L233,26c0,0,-4,-9,-9,-15c0,0,-6,-6,-17,-10c0,0,-12,-2,-32,-3c0,0,-21,-2,-54,-2Z" 
id="f0_3e"
transform="scale(0.001,-0.001)" />

<path d="M204,-4c0,0,-28,0,-47,2c0,0,-19,2,-31,5c0,0,-11,4,-16,10c0,0,-4,6,-4,13V939c0,0,0,7,4,13c0,0,5,6,17,10c0,0,11,3,30,6c0,0,19,2,47,2c0,0,29,0,48,-2c0,0,18,-3,29,-6c0,0,11,-4,16,-10c0,0,5,-6,5,-13V26c0,0,0,-7,-5,-13c0,0,-5,-6,-16,-10c0,0,-11,-3,-29,-5c0,0,-19,-2,-48,-2Z" 
id="f0_1c"
transform="scale(0.001,-0.001)" />

<path d="M127,0c0,0,-16,0,-28,3C99,3,87,6,80,15c0,0,-8,8,-11,25c0,0,-3,16,-3,42c0,0,0,25,2,42c0,0,2,18,8,32c0,0,6,14,15,27c0,0,9,13,24,29L282,390c0,0,50,53,81,95c0,0,30,43,47,79c0,0,17,35,24,65c0,0,6,30,6,57c0,0,0,24,-8,46c0,0,-8,22,-23,39c0,0,-15,16,-38,25c0,0,-23,10,-55,10c0,0,-44,0,-78,-12c0,0,-33,-11,-59,-25c0,0,-26,-13,-43,-25c0,0,-17,-12,-27,-12c0,0,-7,0,-11,5c0,0,-5,4,-8,15c0,0,-3,10,-5,28c0,0,-2,17,-2,42c0,0,0,18,1,29c0,0,1,12,4,20c0,0,2,9,6,15c0,0,3,6,13,15c0,0,9,9,34,23c0,0,25,14,61,27c0,0,37,14,81,23c0,0,44,9,92,9c0,0,75,0,131,-19c0,0,57,-19,94,-53c0,0,37,-34,55,-81c0,0,19,-47,19,-100c0,0,0,-47,-9,-93c0,0,-9,-45,-37,-98c0,0,-29,-52,-80,-116c0,0,-52,-64,-136,-148L299,159H679c0,0,8,0,14,-4c0,0,6,-5,11,-14c0,0,4,-9,7,-25c0,0,2,-15,2,-36c0,0,0,-22,-2,-37c0,0,-2,-15,-6,-25c0,0,-3,-10,-9,-14c0,0,-6,-4,-14,-4Z" 
id="f0_rz"
transform="scale(0.001,-0.001)" />

<path d="M385,138c0,0,29,0,52,9c0,0,22,10,39,28c0,0,17,19,28,47c0,0,11,29,19,66c0,0,7,37,9,84c0,0,3,47,3,104c0,0,0,69,-4,122c0,0,-4,52,-11,91c0,0,-8,39,-20,66c0,0,-12,27,-28,43c0,0,-16,16,-37,22c0,0,-21,7,-47,7c0,0,-44,0,-73,-21c0,0,-28,-21,-45,-64c0,0,-17,-42,-24,-106c0,0,-6,-63,-6,-148c0,0,0,-103,8,-171c0,0,8,-67,26,-107c0,0,17,-40,45,-56c0,0,27,-16,66,-16ZM378,-17c0,0,-99,0,-164,33c0,0,-65,34,-103,98c0,0,-38,64,-54,156c0,0,-15,92,-15,209c0,0,0,115,19,208c0,0,19,94,61,160c0,0,42,65,110,101c0,0,68,35,165,35c0,0,99,0,164,-34c0,0,65,-34,103,-98c0,0,39,-64,53,-156c0,0,15,-92,15,-209c0,0,0,-115,-18,-209c0,0,-19,-93,-61,-159C653,118,611,53,543,17c0,0,-67,-34,-165,-34Z" 
id="f0_rx"
transform="scale(0.001,-0.001)" />

<path d="M142,0c0,0,-6,0,-12,4c0,0,-5,3,-9,12c0,0,-4,9,-6,23c0,0,-3,15,-3,36c0,0,0,21,2,36c0,0,2,14,6,23c0,0,4,9,10,13c0,0,5,5,12,5H322V779L166,693c0,0,-17,-8,-28,-10c0,0,-1,0,-3,0c-4,0,-10,1,-14,5c0,0,-6,6,-8,22c0,0,-2,15,-2,44c0,0,0,18,0,29c0,0,1,12,4,20c0,0,3,8,8,14c0,0,5,5,14,11L345,962c0,0,4,3,9,5c0,0,6,2,15,3c0,0,9,1,23,2c0,0,15,0,38,0c0,0,28,0,46,-1c0,0,17,-1,26,-4c0,0,9,-3,12,-7c0,0,3,-4,3,-11V152H675c0,0,7,0,12,-5c0,0,6,-4,10,-13c0,0,4,-9,6,-23c0,0,2,-15,2,-36c0,0,0,-21,-2,-36c0,0,-3,-14,-7,-23c0,0,-4,-9,-9,-12c0,0,-5,-4,-12,-4Z" 
id="f0_ry"
transform="scale(0.001,-0.001)" />

<path d="M337,-17c0,0,-50,0,-93,8c0,0,-43,7,-76,16c0,0,-34,11,-55,22c0,0,-22,11,-29,17c0,0,-6,6,-10,13c0,0,-3,8,-6,18c0,0,-2,10,-3,25c0,0,-1,16,-1,37c0,0,0,36,6,50c0,0,6,13,17,13c0,0,8,0,26,-10c0,0,18,-10,47,-21c0,0,28,-12,66,-22c0,0,38,-10,87,-10c0,0,41,0,72,10c0,0,31,9,53,27c0,0,22,17,33,42c0,0,11,25,11,56c0,0,0,34,-13,61c0,0,-13,26,-39,45c0,0,-26,20,-65,30c0,0,-39,10,-92,10H189c0,0,-9,0,-16,3c0,0,-7,3,-11,11c0,0,-5,8,-7,23c0,0,-1,14,-1,37c0,0,0,22,1,36c0,0,2,13,6,21c0,0,4,7,11,10c0,0,6,3,15,3h85c0,0,43,0,77,10c0,0,33,10,56,29c0,0,23,19,35,45c0,0,12,27,12,59c0,0,0,25,-8,47c0,0,-9,22,-25,38c0,0,-16,16,-41,26c0,0,-26,9,-60,9c0,0,-39,0,-73,-11c0,0,-34,-12,-62,-26c0,0,-27,-13,-46,-25c0,0,-19,-12,-28,-12c0,0,-6,0,-10,2c0,0,-5,3,-8,11c0,0,-3,7,-4,21c0,0,-2,14,-2,37c0,0,0,18,1,31c0,0,1,12,3,20c0,0,2,8,5,14c0,0,4,6,11,13c0,0,8,7,31,21c0,0,23,14,58,28c0,0,35,13,81,22c0,0,46,10,100,10c0,0,70,0,124,-17c0,0,54,-16,91,-47c0,0,37,-31,56,-76c0,0,19,-46,19,-102c0,0,0,-44,-11,-83c0,0,-12,-38,-33,-68c0,0,-22,-29,-54,-50c0,0,-33,-21,-75,-32v-2c0,0,50,-6,91,-26c0,0,40,-19,68,-49c0,0,28,-30,43,-68c0,0,15,-37,15,-81c0,0,0,-72,-28,-128c0,0,-27,-56,-77,-94C604,60,555,22,487,2c0,0,-69,-19,-150,-19Z" 
id="f0_s0"
transform="scale(0.001,-0.001)" />

<path d="M589,371L453,782h-1L317,371ZM106,-4c0,0,-35,0,-54,2C52,-2,32,0,25,8c0,0,-7,9,-5,24c0,0,2,16,11,42L329,931c0,0,4,13,10,21c0,0,6,7,19,12c0,0,13,4,36,5c0,0,23,1,61,1c0,0,44,0,71,-1c0,0,26,-1,40,-5c0,0,15,-5,21,-13c0,0,6,-8,11,-22L896,73c0,0,9,-27,11,-43c0,0,3,-15,-6,-23c0,0,-8,-7,-29,-9c0,0,-21,-2,-57,-2c0,0,-38,0,-59,1c0,0,-22,1,-33,4c0,0,-11,3,-16,9c0,0,-4,6,-7,16L635,220H272L211,31c0,0,-2,-11,-7,-18c0,0,-5,-7,-16,-11c0,0,-11,-3,-31,-4c0,0,-19,-2,-51,-2Z" 
id="f0_5"
transform="scale(0.001,-0.001)" />

<path d="M198,-4c0,0,-27,0,-45,2c0,0,-18,2,-28,5c0,0,-11,4,-15,10c0,0,-4,6,-4,13V887c0,0,0,38,20,58c0,0,20,20,53,20H308c0,0,34,0,59,-6c0,0,24,-5,42,-18c0,0,18,-13,30,-35c0,0,12,-21,21,-52L669,279h3L889,852c0,0,9,32,21,53c0,0,11,22,27,35c0,0,15,14,36,19c0,0,21,6,48,6h132c0,0,21,0,35,-5c0,0,15,-5,24,-15c0,0,9,-11,14,-25c0,0,5,-15,5,-33V26c0,0,0,-7,-4,-13c0,0,-4,-6,-15,-10c0,0,-11,-3,-29,-5c0,0,-18,-2,-45,-2c0,0,-27,0,-45,2c0,0,-18,2,-28,5c0,0,-11,4,-15,10c0,0,-5,6,-5,13V813h-1L764,27c0,0,-3,-10,-10,-16c0,0,-6,-6,-18,-10c0,0,-12,-3,-29,-4c0,0,-18,-1,-44,-1c0,0,-25,0,-43,2c0,0,-18,2,-29,5c0,0,-12,4,-19,10c0,0,-6,6,-9,14L293,813h-2V26c0,0,0,-7,-4,-13c0,0,-4,-6,-15,-10c0,0,-11,-3,-29,-5c0,0,-17,-2,-45,-2Z" 
id="f0_1x"
transform="scale(0.001,-0.001)" />

<path d="M193,-4c0,0,-26,0,-43,2c0,0,-18,2,-27,6c0,0,-10,4,-14,10c0,0,-3,6,-3,13V895c0,0,0,35,20,53c0,0,21,17,50,17H282c0,0,28,0,47,-5c0,0,20,-5,35,-16c0,0,15,-11,29,-31c0,0,13,-20,27,-49L608,511c0,0,17,-32,33,-63c0,0,16,-31,31,-62c0,0,14,-31,29,-60c0,0,14,-30,27,-60h1c0,0,-2,52,-3,109c0,0,-1,57,-1,108V936c0,0,0,7,4,13c0,0,5,6,15,11c0,0,10,4,28,6c0,0,17,2,44,2c0,0,25,0,42,-2c0,0,17,-2,27,-6c0,0,9,-5,13,-11c0,0,4,-6,4,-13V68c0,0,0,-17,-6,-30c0,0,-6,-14,-17,-23C879,15,869,6,856,2c0,0,-14,-3,-28,-3H744c0,0,-26,0,-45,4c0,0,-19,5,-35,19c0,0,-16,14,-31,38c0,0,-15,23,-34,60L359,572c0,0,-21,40,-43,86c0,0,-21,47,-38,91h-2c0,0,3,-54,5,-107c0,0,2,-53,2,-110V27c0,0,0,-7,-5,-13c0,0,-4,-6,-14,-10c0,0,-10,-4,-27,-6c0,0,-17,-2,-44,-2Z" 
id="f0_1y"
transform="scale(0.001,-0.001)" />

<path d="M378,-4c0,0,-28,0,-47,2c0,0,-19,2,-31,5c0,0,-11,4,-16,10c0,0,-4,6,-4,13V805H38c0,0,-8,0,-13,4c0,0,-5,5,-9,14c0,0,-3,9,-5,25c0,0,-2,15,-2,37c0,0,0,22,2,38c0,0,2,15,5,25c0,0,4,9,9,13c0,0,5,4,13,4H718c0,0,7,0,12,-4c0,0,6,-4,10,-13c0,0,3,-10,5,-25c0,0,2,-16,2,-38c0,0,0,-22,-2,-37c0,0,-2,-16,-5,-25c0,0,-4,-9,-10,-14c0,0,-5,-4,-12,-4H476V26c0,0,0,-7,-5,-13c0,0,-5,-6,-16,-10c0,0,-11,-3,-30,-5c0,0,-19,-2,-47,-2Z" 
id="f0_2t"
transform="scale(0.001,-0.001)" />

<path d="M514,145c0,0,72,0,121,27c0,0,48,26,78,73c0,0,30,46,42,107c0,0,13,62,13,131c0,0,0,76,-12,139c0,0,-12,62,-41,106c0,0,-29,45,-76,69c0,0,-48,24,-120,24c0,0,-72,0,-120,-27c0,0,-49,-27,-79,-73c0,0,-29,-45,-42,-106c0,0,-12,-61,-12,-129c0,0,0,-79,12,-142c0,0,12,-63,40,-108c0,0,28,-44,76,-68c0,0,48,-23,120,-23ZM508,-17c0,0,-113,0,-196,29c0,0,-84,29,-140,90c0,0,-56,60,-84,154c0,0,-28,93,-28,221c0,0,0,117,29,210c0,0,30,94,89,160c0,0,59,65,146,101c0,0,87,35,202,35c0,0,110,0,194,-29c0,0,84,-30,140,-90c0,0,56,-60,85,-153c0,0,29,-92,29,-217c0,0,0,-120,-30,-215c0,0,-30,-95,-89,-161C855,118,796,52,709,17c0,0,-87,-34,-201,-34Z" 
id="f0_24"
transform="scale(0.001,-0.001)" />

<path d="M299,0V777H162l36,173H508V0Z" 
id="f1_l"
transform="scale(0.001,-0.001)" />

<path d="M404,-11c0,0,-136,0,-225,76c0,0,-90,78,-111,215H265c0,0,35,-136,135,-136c0,0,50,0,85,35c0,0,34,36,34,88c0,0,0,64,-41,105c0,0,-42,41,-107,41H336V573h21c0,0,68,0,109,33c0,0,41,34,41,89c0,0,0,50,-32,85c0,0,-32,35,-79,35c0,0,-110,0,-127,-135H76c0,0,9,130,96,209c0,0,87,79,208,79c0,0,134,0,227,-76c0,0,94,-75,94,-182c0,0,0,-116,-115,-210c0,0,73,-46,107,-96c0,0,34,-51,34,-121c0,0,0,-134,-88,-214c0,0,-89,-80,-235,-80Z" 
id="f1_n"
transform="scale(0.001,-0.001)" />

<path d="M44,-281L425,1053H537L156,-281Z" 
id="f1_j"
transform="scale(0.001,-0.001)" />

<path d="M186,-28L17,77L450,779H39V952H793L186,-28Z" 
id="f1_r"
transform="scale(0.001,-0.001)" />

<path d="M551,45c0,0,171,0,252,108c0,0,82,108,82,349c0,0,0,239,-81,344c0,0,-81,105,-253,105c0,0,-172,0,-252,-105c0,0,-80,-105,-80,-344c0,0,0,-241,80,-349c0,0,81,-108,252,-108Zm0,-59c0,0,-238,0,-363,129C188,115,63,245,63,501c0,0,0,510,488,510c0,0,242,0,366,-129c0,0,124,-130,124,-381c0,0,0,-255,-126,-385C915,116,790,-14,551,-14Z" 
id="f2_1f"
transform="scale(0.001,-0.001)" />

<path d="M448,506c0,0,134,0,190,49c0,0,57,50,57,168c0,0,0,114,-56,162c0,0,-56,48,-195,48H316V506ZM777,0L496,438H316V60L468,40V0H54V40L172,60V941L44,960v40H476c0,0,188,0,277,-63c0,0,90,-64,90,-204c0,0,0,-100,-54,-173c0,0,-55,-73,-151,-101L909,60L1017,40V0Z" 
id="f2_1i"
transform="scale(0.001,-0.001)" />

<path d="M377,45c0,0,99,0,145,108c0,0,46,109,46,352c0,0,0,240,-45,345c0,0,-46,106,-146,106c0,0,-97,0,-139,-100c0,0,-43,-99,-43,-351c0,0,0,-254,44,-357c0,0,43,-103,138,-103Zm0,-59c0,0,-158,0,-238,132c0,0,-81,133,-81,386c0,0,0,249,81,380c0,0,80,132,244,132c0,0,159,0,241,-130c0,0,82,-130,82,-382c0,0,0,-518,-329,-518Z" 
id="f2_k"
transform="scale(0.001,-0.001)" />

<path d="M383,64c0,0,44,0,87,7c0,0,43,7,65,17V645c0,0,-67,13,-152,13c0,0,-194,0,-194,-309c0,0,0,-143,48,-214c0,0,47,-71,146,-71Zm56,-389v35l96,18V-77c0,0,0,73,7,124c0,0,-79,-61,-200,-61c0,0,-287,0,-287,362c0,0,0,180,81,276c0,0,81,96,237,96c0,0,84,0,166,-18l67,33h53V-272l77,-18v-35Z" 
id="f2_2d"
transform="scale(0.001,-0.001)" />

<path d="M431,0V33L535,52V499c0,0,0,62,-32,96c0,0,-32,33,-95,33c0,0,-66,0,-163,-22V52L350,33V0H32V33l89,19V649L32,668v33H237l6,-57c0,0,56,32,119,54c0,0,62,22,110,22c0,0,52,0,95,-20c0,0,44,-19,66,-62c0,0,57,32,134,57c0,0,77,25,128,25c0,0,179,0,179,-207V52l90,-19V0H846V33L950,52V499c0,0,0,129,-119,129c0,0,-19,0,-45,-3c0,0,-26,-3,-52,-7c0,0,-25,-4,-49,-8c0,0,-23,-5,-39,-8c0,0,13,-41,13,-89V52L764,33V0Z" 
id="f2_29"
transform="scale(0.001,-0.001)" />

<path d="M460,-325c0,0,-148,79,-231,172c0,0,-84,93,-123,217c0,0,-39,126,-39,304c0,0,0,178,39,303c0,0,39,125,122,217c0,0,82,93,232,172V997c0,0,-91,-52,-145,-134c0,0,-54,-81,-79,-190c0,0,-25,-109,-25,-305c0,0,0,-194,26,-309c0,0,26,-114,82,-193c0,0,56,-79,141,-128v-63Z" 
id="f2_c"
transform="scale(0.001,-0.001)" />

<path d="M32,0V33L151,52V649L52,668v33H275V52L395,33V0ZM201,850c0,0,-32,0,-56,24c0,0,-24,24,-24,56c0,0,0,34,24,58c0,0,24,24,56,24c0,0,34,0,58,-24c0,0,24,-24,24,-58c0,0,0,-32,-24,-56c0,0,-24,-24,-58,-24Z" 
id="f2_25"
transform="scale(0.001,-0.001)" />

<path d="M49,-325v63c0,0,85,49,140,128c0,0,56,79,83,194c0,0,26,115,26,308c0,0,0,196,-25,305c0,0,-25,109,-79,190c0,0,-54,82,-145,134v63c0,0,149,-80,232,-172c0,0,83,-92,122,-217c0,0,39,-125,39,-303c0,0,0,-177,-39,-303c0,0,-39,-125,-122,-217c0,0,-83,-93,-232,-173Z" 
id="f2_d"
transform="scale(0.001,-0.001)" />

<path d="M44,0V40L172,60V941L44,960v40H794V760H745L721,922c0,0,-83,11,-241,11H316V543H586l23,119h48V354H609L586,475H316V67H513c0,0,193,0,252,12l43,185h49L843,0Z" 
id="f2_15"
transform="scale(0.001,-0.001)" />

<path d="M383,64c0,0,85,0,152,28V645c0,0,-67,13,-152,13c0,0,-194,0,-194,-314c0,0,0,-141,48,-211c0,0,48,-69,146,-69ZM342,-14c0,0,-287,0,-287,358c0,0,0,184,82,280c0,0,81,96,239,96c0,0,81,0,163,-18c0,0,-4,25,-4,124v182l-118,18v34H659V52L745,33V0H548l-9,52c0,0,-84,-66,-197,-66Z" 
id="f2_20"
transform="scale(0.001,-0.001)" />

<path d="M278,-14c0,0,-52,0,-115,11c0,0,-63,10,-99,23V193H98L134,95c0,0,56,-50,146,-50c0,0,144,0,144,123c0,0,0,91,-114,130l-66,21c0,0,-75,25,-110,50c0,0,-34,26,-53,63c0,0,-18,36,-18,89c0,0,0,92,63,145c0,0,63,54,170,54c0,0,77,0,193,-23V544H454l-32,81c0,0,-39,35,-124,35c0,0,-61,0,-92,-30c0,0,-32,-30,-32,-80c0,0,0,-43,29,-72c0,0,28,-29,86,-48c0,0,110,-38,144,-55c0,0,33,-17,57,-42c0,0,23,-25,36,-57c0,0,13,-32,13,-79c0,0,0,-104,-66,-158c0,0,-66,-53,-195,-53Z" 
id="f2_2f"
transform="scale(0.001,-0.001)" />

<path d="M0,214v74H784V214ZM0,494v72H784V494Z" 
id="f3_x"
transform="scale(0.001,-0.001)" />

<path d="M398,0C398,0,266,0,185,39c0,0,-82,39,-133,124C52,163,0,248,0,342c0,0,0,144,103,243c0,0,103,98,292,98H694V611H387c0,0,-99,0,-166,-32c0,0,-68,-32,-105,-88c0,0,-26,-40,-41,-113H694V304H75c0,0,30,-120,103,-176c0,0,73,-56,210,-56H694V0Z" 
id="f3_40"
transform="scale(0.001,-0.001)" />

<path d="M88,-163c0,0,-39,0,-63,25c0,0,-25,26,-25,65c0,0,0,34,19,54c0,0,19,19,48,19c0,0,30,0,51,-23c0,0,22,-24,37,-24c0,0,12,0,21,11c0,0,8,10,8,35c0,0,0,30,-7,88c0,0,-27,235,-27,620c0,0,13,411,17,446c0,0,17,139,60,188c0,0,43,48,98,48c0,0,37,0,65,-25c0,0,28,-25,28,-54c0,0,0,-35,-19,-57c0,0,-20,-21,-49,-21c0,0,-26,0,-57,27c0,0,-17,15,-30,15c0,0,-12,0,-21,-11c0,0,-8,-11,-8,-37c0,0,0,-31,6,-108c0,0,28,-306,28,-496c0,0,0,-50,-12,-439c0,0,-6,-219,-67,-296c0,0,-41,-50,-101,-50Z" 
id="f3_50"
transform="scale(0.001,-0.001)" />

<path d="M67,0V109L206,235c0,0,133,118,196,190c0,0,63,72,90,149c0,0,27,77,27,177c0,0,0,97,-44,148c0,0,-44,50,-144,50c0,0,-39,0,-81,-10c0,0,-42,-11,-74,-29L150,787H101V980c0,0,135,32,230,32c0,0,164,0,247,-68c0,0,82,-69,82,-193c0,0,0,-84,-32,-158c0,0,-33,-75,-100,-148c0,0,-67,-74,-222,-206c0,0,-67,-57,-141,-125H680V0Z" 
id="f2_m"
transform="scale(0.001,-0.001)" />

<path d="M31,0V33l88,19V649L31,668v33H235l7,-87c0,0,44,37,121,71c0,0,76,35,121,35h11V530H463l-43,82c0,0,-37,0,-88,-10c0,0,-52,-10,-89,-26V52L363,33V0Z" 
id="f2_2e"
transform="scale(0.001,-0.001)" />

<path d="M140,-21c0,0,-26,0,-44,17C96,-4,79,13,79,40c0,0,0,19,6,33c0,0,8,20,34,55c0,0,46,60,64,126c0,0,32,114,41,321H190c0,0,-55,0,-81,-18c0,0,-44,-26,-80,-89H0c0,0,42,129,98,178c0,0,43,37,120,37H743V575H562c0,0,-27,-171,-27,-327c0,0,0,-77,27,-110c0,0,27,-33,67,-33c0,0,33,0,56,22c0,0,24,22,31,65h27C743,192,730,74,686,26c0,0,-44,-47,-98,-47c0,0,-58,0,-97,51c0,0,-39,53,-39,198c0,0,0,91,28,347H286c0,0,-23,-390,-56,-494c0,0,-33,-102,-90,-102Z" 
id="f3_2c"
transform="scale(0.001,-0.001)" />

<path d="M476,327V830h-4L114,327ZM476,0V220H30v99l488,686h86V327H740V220H604V0Z" 
id="f2_o"
transform="scale(0.001,-0.001)" />

<path d="M313,80c0,0,53,0,105,15c0,0,52,15,87,38l90,509c0,0,-76,20,-152,20c0,0,-74,0,-134,-54c0,0,-60,-54,-94,-149c0,0,-34,-95,-34,-203c0,0,0,-86,34,-131c0,0,34,-45,98,-45ZM421,-325l52,285c0,0,12,64,28,120C501,80,443,37,380,11c0,0,-64,-25,-119,-25c0,0,-102,0,-156,63c0,0,-54,63,-54,188c0,0,0,137,53,248c0,0,54,112,152,173c0,0,97,62,220,62c0,0,52,0,129,-10c0,0,76,-11,123,-22L554,-273l91,-17l-6,-35Z" 
id="f4_2d"
transform="scale(0.001,-0.001)" />

<path d="M-17,0l8,40L120,60L276,941L151,960l7,40H909L866,761H817l4,161c0,0,-81,11,-239,11H419L349,543H619l45,119h48L657,354H609l-1,121H338L266,67H463c0,0,190,0,254,12l75,185h49L780,0Z" 
id="f4_15"
transform="scale(0.001,-0.001)" />

<path d="M62,0L176,649L88,668l6,33H301L278,543c0,0,55,84,124,130c0,0,69,47,138,47c0,0,37,0,59,-6L566,530H534l-28,95c0,0,-60,0,-124,-46c0,0,-63,-45,-116,-120L186,0Z" 
id="f4_2e"
transform="scale(0.001,-0.001)" />

<path d="M191,-20c0,0,-39,0,-65,25c0,0,-25,27,-25,64c0,0,0,38,26,64c0,0,26,26,64,26c0,0,38,0,64,-26c0,0,26,-26,26,-64c0,0,0,-37,-25,-64c0,0,-26,-25,-65,-25Z" 
id="f2_i"
transform="scale(0.001,-0.001)" />

<path d="M85,0L199,649l-96,19l6,33H332L218,52L335,33L329,0ZM297,849c0,0,-33,0,-57,24c0,0,-24,24,-24,57c0,0,0,33,24,57c0,0,24,24,57,24c0,0,33,0,57,-24c0,0,24,-24,24,-57c0,0,0,-33,-24,-57c0,0,-24,-24,-57,-24Z" 
id="f4_25"
transform="scale(0.001,-0.001)" />

<path d="M54,0L169,649L81,668l6,33H294L274,558c0,0,62,81,130,121c0,0,67,41,132,41c0,0,75,0,113,-41c0,0,38,-41,38,-117c0,0,0,-10,-3,-32c0,0,-3,-21,-81,-478L700,34L695,0H470l76,434c0,0,17,94,17,123c0,0,0,34,-18,55c0,0,-18,21,-56,21c0,0,-56,0,-121,-47c0,0,-65,-47,-108,-117L178,0Z" 
id="f4_2a"
transform="scale(0.001,-0.001)" />

<path d="M301,78c0,0,41,0,90,27c0,0,49,28,95,77l81,442c0,0,-26,18,-54,27c0,0,-27,10,-67,10c0,0,-70,0,-131,-55c0,0,-61,-55,-99,-152c0,0,-37,-97,-37,-201c0,0,0,-79,33,-127c0,0,33,-48,89,-48ZM245,-14c0,0,-91,0,-145,68c0,0,-54,69,-54,183c0,0,0,128,55,240c0,0,55,112,150,177c0,0,96,66,210,66c0,0,70,0,123,-18c0,0,3,36,51,306l-115,18l6,34H768L589,52L673,33L667,0H454l22,117C476,117,350,-14,245,-14Z" 
id="f4_20"
transform="scale(0.001,-0.001)" />

<path d="M228,-14c0,0,-103,0,-209,46L49,200H83L95,99c0,0,20,-21,55,-38c0,0,36,-16,81,-16c0,0,163,0,163,133c0,0,0,44,-35,78c0,0,-34,34,-113,72c0,0,-75,37,-112,81c0,0,-36,45,-36,104c0,0,0,99,66,153c0,0,67,54,184,54c0,0,85,0,200,-26L521,538H486l-11,80c0,0,-47,42,-124,42c0,0,-61,0,-97,-28c0,0,-37,-28,-37,-87c0,0,0,-40,31,-71c0,0,32,-30,119,-75c0,0,78,-40,113,-86c0,0,36,-47,36,-107c0,0,0,-113,-71,-167c0,0,-72,-53,-217,-53Z" 
id="f4_2f"
transform="scale(0.001,-0.001)" />

<path d="M76,316v76H787V316Zm0,306v76H787V622Z" 
id="f2_x"
transform="scale(0.001,-0.001)" />

<path d="M377,45c0,0,100,0,147,52c0,0,47,52,47,174c0,0,0,119,-46,173c0,0,-47,54,-148,54c0,0,-98,0,-141,-51c0,0,-44,-51,-44,-176c0,0,0,-126,44,-176c0,0,44,-50,141,-50Zm2,518c0,0,84,0,123,46c0,0,39,46,39,148c0,0,0,102,-40,151c0,0,-41,48,-122,48c0,0,-79,0,-118,-47c0,0,-38,-47,-38,-152c0,0,0,-104,37,-149c0,0,38,-45,119,-45ZM377,-14c0,0,-319,0,-319,285c0,0,0,99,48,164c0,0,48,66,129,96c0,0,-65,30,-106,87c0,0,-40,56,-40,139c0,0,0,123,75,191c0,0,76,68,219,68c0,0,139,0,216,-67c0,0,76,-68,76,-192c0,0,0,-82,-40,-139c0,0,-40,-57,-108,-87c0,0,85,-31,132,-98c0,0,47,-67,47,-162c0,0,0,-142,-80,-214c0,0,-80,-71,-249,-71Z" 
id="f2_s"
transform="scale(0.001,-0.001)" />

<path d="M557,-14c0,0,-199,0,-298,89c0,0,-99,90,-99,255V941L32,960v40H432V960L304,941V341c0,0,0,-273,264,-273c0,0,144,0,220,68c0,0,77,68,77,202V941L730,960v40h341V960L943,941V344c0,0,0,-180,-99,-269c0,0,-99,-89,-287,-89Z" 
id="f2_1l"
transform="scale(0.001,-0.001)" />

<path d="M439,0V33l93,19V500c0,0,0,62,-30,97c0,0,-31,36,-94,36c0,0,-67,0,-165,-22V52L338,33V0H35V33l84,19V649L35,668v33H235l7,-57c0,0,57,33,122,54c0,0,65,22,108,22c0,0,91,0,137,-53c0,0,47,-53,47,-154V52L741,33V0Z" 
id="f2_2a"
transform="scale(0.001,-0.001)" />

<path d="M359,-270c0,0,124,0,192,46c0,0,67,47,67,129c0,0,0,43,-26,67c0,0,-26,24,-79,24H242c0,0,-32,-27,-51,-69c0,0,-20,-41,-20,-77c0,0,0,-64,46,-92c0,0,46,-28,142,-28Zm11,561c0,0,81,0,115,47c0,0,34,47,34,141c0,0,0,100,-35,142c0,0,-35,42,-113,42c0,0,-78,0,-114,-43c0,0,-37,-42,-37,-141c0,0,0,-98,36,-143c0,0,36,-45,114,-45ZM359,-329c0,0,-143,0,-218,44c0,0,-75,43,-75,125c0,0,0,39,27,78c0,0,26,38,98,89c0,0,-43,14,-72,48c0,0,-29,35,-29,74L208,262c0,0,-118,55,-118,217c0,0,0,115,73,178c0,0,73,63,211,63c0,0,28,0,71,-6c0,0,44,-6,67,-13l165,83l26,-32L599,644c0,0,50,-56,50,-165c0,0,0,-120,-72,-182c0,0,-73,-62,-208,-62c0,0,-62,0,-114,11L208,148c0,0,2,-13,29,-24c0,0,27,-12,67,-12H512c0,0,113,0,168,-49c0,0,55,-49,55,-134c0,0,0,-79,-44,-137c0,0,-43,-58,-128,-90c0,0,-84,-31,-204,-31Z" 
id="f2_23"
transform="scale(0.001,-0.001)" />

<path d="M536,63c0,0,127,0,191,54c0,0,63,54,63,168c0,0,0,105,-70,154c0,0,-70,49,-225,49H316V67c0,0,103,-4,220,-4ZM480,555c0,0,121,0,178,48c0,0,57,48,57,155c0,0,0,91,-58,133c0,0,-57,42,-186,42H316V555ZM554,-4L235,0H44V40L172,60V941L44,960v40H501c0,0,191,0,279,-56c0,0,88,-56,88,-179c0,0,0,-88,-55,-149c0,0,-54,-62,-151,-83c0,0,135,-14,209,-79c0,0,73,-65,73,-166c0,0,0,-144,-99,-219C845,69,745,-4,554,-4Z" 
id="f2_12"
transform="scale(0.001,-0.001)" />

<path d="M377,45c0,0,99,0,147,73c0,0,47,73,47,237c0,0,0,161,-47,233c0,0,-47,72,-147,72c0,0,-97,0,-141,-69c0,0,-44,-69,-44,-236c0,0,0,-169,45,-240c0,0,44,-70,140,-70Zm0,-59c0,0,-158,0,-238,94c0,0,-81,95,-81,274c0,0,0,178,81,272c0,0,80,94,244,94c0,0,160,0,241,-92c0,0,82,-92,82,-274c0,0,0,-368,-329,-368Z" 
id="f2_2b"
transform="scale(0.001,-0.001)" />

<path d="M442,0V33l93,19V504c0,0,0,129,-124,129c0,0,-70,0,-168,-22V52L338,33V0H31V33l88,19v956L15,1026v34H243V756c0,0,0,-77,-5,-112c0,0,54,31,122,53c0,0,68,23,115,23c0,0,91,0,137,-53c0,0,47,-53,47,-154V52L744,33V0Z" 
id="f2_24"
transform="scale(0.001,-0.001)" />

<path d="M110,641L64,1000H211L165,641Z" 
id="f2_b"
transform="scale(0.001,-0.001)" />

<path d="M382,45c0,0,188,0,188,314c0,0,0,143,-47,213c0,0,-46,69,-141,69c0,0,-87,0,-146,-24V58c0,0,67,-13,146,-13ZM25,-325v35l88,18V649L34,668v33H231l1,-41c0,0,31,27,84,43c0,0,53,17,107,17c0,0,134,0,208,-94c0,0,73,-93,73,-267c0,0,0,-178,-80,-276c0,0,-80,-97,-232,-97c0,0,-84,0,-160,16c0,0,4,-53,4,-84V-272l123,-18v-35Z" 
id="f2_2c"
transform="scale(0.001,-0.001)" />

<path d="M249,-14c0,0,-71,0,-107,42c0,0,-35,42,-35,119V639H15v33l93,29l76,159h47V701H391V639H231V161c0,0,0,-48,22,-73c0,0,22,-24,57,-24c0,0,44,0,106,12V26C416,26,389,8,340,-2c0,0,-49,-12,-91,-12Z" 
id="f2_2g"
transform="scale(0.001,-0.001)" />

<path d="M289,-14c0,0,-179,0,-179,205V649L20,668v33H233V200c0,0,0,-128,120,-128c0,0,92,0,173,23V649L420,668v33H649V52L738,33V0H533l-6,57C527,57,474,28,405,7c0,0,-69,-21,-116,-21Z" 
id="f2_2h"
transform="scale(0.001,-0.001)" />

<path d="M31,0V33L150,52v956L31,1026v34H274V52L394,33V0Z" 
id="f2_28"
transform="scale(0.001,-0.001)" />

<path d="M284,67c0,0,51,0,88,12c0,0,37,12,74,30V358l-98,-3c0,0,-100,-4,-135,-39c0,0,-35,-35,-35,-117c0,0,0,-132,106,-132ZM233,-14c0,0,-179,0,-179,208c0,0,0,70,27,116c0,0,27,46,87,70c0,0,60,24,173,27l105,3V519c0,0,0,72,-26,107c0,0,-27,34,-82,34c0,0,-75,0,-137,-35L176,538H134V691c0,0,121,26,213,26c0,0,115,0,169,-47c0,0,54,-47,54,-144V52L657,33V0H465L451,70c0,0,-85,-84,-218,-84Z" 
id="f2_1x"
transform="scale(0.001,-0.001)" />

<path d="M495,413c0,0,0,133,-34,190c0,0,-34,57,-105,57c0,0,-78,0,-119,-63c0,0,-42,-62,-42,-184ZM374,-14c0,0,-163,0,-239,87c0,0,-75,88,-75,283c0,0,0,183,77,273c0,0,76,91,219,91c0,0,269,0,269,-306V353H194V340c0,0,0,-103,23,-160c0,0,22,-57,70,-87c0,0,47,-29,124,-29c0,0,40,0,96,6c0,0,55,7,91,15V43C598,43,562,20,500,3c0,0,-61,-17,-126,-17Z" 
id="f2_21"
transform="scale(0.001,-0.001)" />

<path d="M58,-234v58c0,0,131,42,131,125c0,0,0,15,-11,27c0,0,-11,12,-38,25C140,1,89,27,89,75c0,0,0,40,25,61c0,0,26,21,65,21c0,0,48,0,77,-34c0,0,30,-34,30,-86c0,0,0,-101,-60,-170c0,0,-59,-69,-168,-101Z" 
id="f2_g"
transform="scale(0.001,-0.001)" />

<path d="M360,-14L72,649L0,668v33H327V668L216,648L420,164L615,649L504,668v33H764V668L697,652L416,-14Z" 
id="f2_2i"
transform="scale(0.001,-0.001)" />

<path d="M13,0V34L95,46L325,350L122,649L40,668v33H357V668L264,648L399,446L554,649l-96,19v33H710V668L630,652L433,397L663,50L745,34V0H427V34l94,17L359,299L169,50L266,34V0Z" 
id="f2_2k"
transform="scale(0.001,-0.001)" />

<path d="M64,0V34L168,59V639H47v36l121,29v49c0,0,0,155,61,239c0,0,62,84,173,84c0,0,58,0,107,-15V908H472l-33,92c0,0,-26,16,-62,16c0,0,-47,0,-66,-42c0,0,-19,-42,-19,-157V701H478V639H292V59L443,34V0Z" 
id="f2_22"
transform="scale(0.001,-0.001)" />

<path d="M399,-14c0,0,-341,0,-341,370c0,0,0,175,87,269c0,0,87,95,249,95c0,0,101,0,220,-23V501H573L541,625c0,0,-62,35,-149,35c0,0,-200,0,-200,-304c0,0,0,-158,61,-225c0,0,61,-67,189,-67c0,0,109,0,189,24V43C631,43,595,16,530,1c0,0,-64,-15,-131,-15Z" 
id="f2_1z"
transform="scale(0.001,-0.001)" />

<path d="M148,-329c0,0,-58,0,-114,13v151H69l24,-71c0,0,23,-17,64,-17c0,0,39,0,72,22c0,0,33,23,60,67c0,0,27,44,68,157L90,649L19,668v33H344V668L233,648L423,158L606,649L497,668v33H758V668L685,652L411,-43c0,0,-48,-124,-84,-177c0,0,-36,-54,-79,-82c0,0,-44,-27,-100,-27Z" 
id="f2_2l"
transform="scale(0.001,-0.001)" />

<path d="M327,-14L84,649L1,668v33H335V668L219,648L385,174L554,632h63L786,171L944,649L830,668v33h267V668l-78,-16L784,-14H726L553,448L382,-14Z" 
id="f2_2j"
transform="scale(0.001,-0.001)" />

<path d="M376,50c0,0,103,0,149,80c0,0,46,81,46,240c0,0,0,137,-47,204c0,0,-48,67,-148,67c0,0,-44,0,-87,-7c0,0,-44,-8,-63,-17V62c0,0,63,-12,150,-12Zm3,-64c0,0,-64,0,-141,14c0,0,-78,14,-136,37v971L0,1026v34H226V809c0,0,0,-40,-4,-148c0,0,74,59,188,59c0,0,143,0,219,-87c0,0,77,-87,77,-263c0,0,0,-189,-84,-287c0,0,-84,-97,-243,-97Z" 
id="f2_1y"
transform="scale(0.001,-0.001)" />

<path d="M420,-22L89,941L1,960v40H383V960L236,941L474,236L744,930h33L1037,236l227,705l-156,19v40h331V960l-87,-19L1025,-22H985L726,666L460,-22Z" 
id="f2_1n"
transform="scale(0.001,-0.001)" />

<path d="M64,-325c0,0,-46,0,-107,14v148H-8l19,-81c0,0,25,-21,62,-21c0,0,44,0,67,47c0,0,22,47,22,152V649L57,668v33H286V-28c0,0,0,-146,-57,-221c0,0,-56,-76,-165,-76ZM213,850c0,0,-34,0,-58,24c0,0,-24,24,-24,56c0,0,0,34,24,58c0,0,24,24,58,24c0,0,32,0,56,-24c0,0,24,-24,24,-58c0,0,0,-32,-24,-56c0,0,-24,-24,-56,-24Z" 
id="f2_26"
transform="scale(0.001,-0.001)" />

<path d="M350,-14c0,0,-142,0,-269,31L73,228h49L156,87c0,0,29,-16,82,-28c0,0,54,-12,100,-12c0,0,117,0,173,54c0,0,56,53,56,178c0,0,0,99,-52,150c0,0,-51,51,-159,56l-107,6v61l107,7c0,0,84,5,124,52c0,0,41,48,41,145c0,0,0,101,-44,147c0,0,-44,45,-139,45c0,0,-40,0,-83,-10c0,0,-43,-11,-76,-29L153,786H104V979c0,0,74,19,127,26c0,0,54,6,107,6c0,0,321,0,321,-246c0,0,0,-104,-57,-165c0,0,-57,-62,-162,-77c0,0,136,-16,200,-78c0,0,64,-62,64,-173c0,0,0,-135,-92,-211c0,0,-93,-75,-262,-75Z" 
id="f2_n"
transform="scale(0.001,-0.001)" />

<path d="M134,0V40L339,60V876L137,804v39l292,166h39V60L672,40V0Z" 
id="f2_l"
transform="scale(0.001,-0.001)" />


</defs>
</svg>