<?xml version="1.0" encoding="UTF-8" standalone="no"?>
<!DOCTYPE svg PUBLIC "-//W3C//DTD SVG 1.1//EN"
"http://www.w3.org/Graphics/SVG/1.1/DTD/svg11.dtd">
<svg viewBox="0 0 909 1286" version="1.1" xmlns="http://www.w3.org/2000/svg" xmlns:xlink="http://www.w3.org/1999/xlink">
<defs>
<clipPath id="c0_120"><path d="M35.1,1194.7V113.1H873.9V1194.7Z" /></clipPath>
<style type="text/css"><![CDATA[
.g0_120{
fill: #EEEEEE;
}
]]></style>
</defs>
<path d="M47.4,438.5H861.7V440H47.4v-1.5Z" class="g0_120" />
<path d="M47.4,1008.3H861.7v1.6H47.4v-1.6Z" class="g0_120" />
<image preserveAspectRatio="none" x="47" y="113" width="210" height="160" xlink:href="img/1.png" />
<g clip-path="url(#c0_120)">
<g fill="#000000" >
<use xlink:href="#f0_v" transform="matrix(12,0,0,12,47.4,314.7)" />
<use xlink:href="#f0_1a" transform="matrix(12,0,0,12,62.4,314.7)" />
<use xlink:href="#f0_1b" transform="matrix(12,0,0,12,72.3,314.7)" />
<use xlink:href="#f0_i" transform="matrix(12,0,0,12,89.6,314.7)" />
<use xlink:href="#f0_d" transform="matrix(12,0,0,12,99.9,314.7)" />
<use xlink:href="#f0_d" transform="matrix(12,0,0,12,105.6,314.7)" />
<use xlink:href="#f0_4" transform="matrix(12,0,0,12,111.3,314.7)" />
<use xlink:href="#f0_a" transform="matrix(12,0,0,12,121.1,314.7)" />
<use xlink:href="#f0_m" transform="matrix(12,0,0,12,134.5,314.7)" />
<use xlink:href="#f0_h" transform="matrix(12,0,0,12,140.9,314.7)" />
<use xlink:href="#f0_4" transform="matrix(12,0,0,12,152.5,314.7)" />
<use xlink:href="#f0_j" transform="matrix(12,0,0,12,167.1,314.7)" />
<use xlink:href="#f0_d" transform="matrix(12,0,0,12,175.4,314.7)" />
<use xlink:href="#f0_7" transform="matrix(12,0,0,12,181,314.7)" />
<use xlink:href="#f0_o" transform="matrix(12,0,0,12,191.6,314.7)" />
<use xlink:href="#f0_4" transform="matrix(12,0,0,12,202.9,314.7)" />
<use xlink:href="#f0_d" transform="matrix(12,0,0,12,217.4,314.7)" />
<use xlink:href="#f0_i" transform="matrix(12,0,0,12,223.1,314.7)" />
<use xlink:href="#f0_a" transform="matrix(12,0,0,12,233.4,314.7)" />
<use xlink:href="#f0_l" transform="matrix(12,0,0,12,242,314.7)" />
<use xlink:href="#f0_4" transform="matrix(12,0,0,12,251.9,314.7)" />
<use xlink:href="#f0_a" transform="matrix(12,0,0,12,261.7,314.7)" />
<use xlink:href="#f0_k" transform="matrix(12,0,0,12,275.1,314.7)" />
<use xlink:href="#f0_j" transform="matrix(12,0,0,12,280.9,314.7)" />
<use xlink:href="#f0_m" transform="matrix(12,0,0,12,293.9,314.7)" />
<use xlink:href="#f0_h" transform="matrix(12,0,0,12,300.4,314.7)" />
<use xlink:href="#f0_4" transform="matrix(12,0,0,12,312,314.7)" />
<use xlink:href="#f0_a" transform="matrix(12,0,0,12,326.6,314.7)" />
<use xlink:href="#f0_4" transform="matrix(12,0,0,12,335.2,314.7)" />
<use xlink:href="#f0_j" transform="matrix(12,0,0,12,345,314.7)" />
<use xlink:href="#f0_k" transform="matrix(12,0,0,12,353.3,314.7)" />
<use xlink:href="#f0_j" transform="matrix(12,0,0,12,359.1,314.7)" />
<use xlink:href="#f0_m" transform="matrix(12,0,0,12,367.4,314.7)" />
<use xlink:href="#f0_i" transform="matrix(12,0,0,12,373.8,314.7)" />
<use xlink:href="#f0_6" transform="matrix(12,0,0,12,384.1,314.7)" />
<use xlink:href="#f0_n" transform="matrix(12,0,0,12,395.9,314.7)" />
<use xlink:href="#f0_4" transform="matrix(12,0,0,12,405,314.7)" />
<use xlink:href="#f0_i" transform="matrix(12,0,0,12,419.5,314.7)" />
<use xlink:href="#f0_6" transform="matrix(12,0,0,12,429.8,314.7)" />
<use xlink:href="#f0_s" transform="matrix(12,0,0,12,441.6,314.7)" />
<use xlink:href="#f0_j" transform="matrix(12,0,0,12,457.6,314.7)" />
<use xlink:href="#f0_k" transform="matrix(12,0,0,12,465.9,314.7)" />
<use xlink:href="#f0_6" transform="matrix(12,0,0,12,471.7,314.7)" />
<use xlink:href="#f0_n" transform="matrix(12,0,0,12,483.6,314.7)" />
<use xlink:href="#f0_4" transform="matrix(12,0,0,12,492.6,314.7)" />
<use xlink:href="#f0_a" transform="matrix(12,0,0,12,507.2,314.7)" />
<use xlink:href="#f0_4" transform="matrix(12,0,0,12,515.8,314.7)" />
<use xlink:href="#f0_j" transform="matrix(12,0,0,12,525.6,314.7)" />
<use xlink:href="#f0_k" transform="matrix(12,0,0,12,533.8,314.7)" />
<use xlink:href="#f0_j" transform="matrix(12,0,0,12,539.7,314.7)" />
<use xlink:href="#f0_m" transform="matrix(12,0,0,12,547.9,314.7)" />
<use xlink:href="#f0_i" transform="matrix(12,0,0,12,554.4,314.7)" />
<use xlink:href="#f0_6" transform="matrix(12,0,0,12,564.7,314.7)" />
<use xlink:href="#f0_n" transform="matrix(12,0,0,12,576.5,314.7)" />
<use xlink:href="#f0_4" transform="matrix(12,0,0,12,585.5,314.7)" />
<use xlink:href="#f0_k" transform="matrix(12,0,0,12,600.1,314.7)" />
<use xlink:href="#f0_6" transform="matrix(12,0,0,12,606,314.7)" />
<use xlink:href="#f0_n" transform="matrix(12,0,0,12,617.8,314.7)" />
<use xlink:href="#f0_a" transform="matrix(12,0,0,12,626.8,314.7)" />
<use xlink:href="#f0_4" transform="matrix(12,0,0,12,635.4,314.7)" />
<use xlink:href="#f0_i" transform="matrix(12,0,0,12,645.2,314.7)" />
<use xlink:href="#f0_j" transform="matrix(12,0,0,12,655.5,314.7)" />
<use xlink:href="#f0_4" transform="matrix(12,0,0,12,663.8,314.7)" />
<use xlink:href="#f0_j" transform="matrix(12,0,0,12,673.6,314.7)" />
<use xlink:href="#f0_8" transform="matrix(12,0,0,12,686.6,314.7)" />
<use xlink:href="#f0_k" transform="matrix(12,0,0,12,702.4,314.7)" />
<use xlink:href="#f0_m" transform="matrix(12,0,0,12,708.2,314.7)" />
<use xlink:href="#f0_h" transform="matrix(12,0,0,12,714.7,314.7)" />
<use xlink:href="#f0_m" transform="matrix(12,0,0,12,731.1,314.7)" />
<use xlink:href="#f0_h" transform="matrix(12,0,0,12,737.5,314.7)" />
<use xlink:href="#f0_4" transform="matrix(12,0,0,12,749.1,314.7)" />
<use xlink:href="#f0_k" transform="matrix(12,0,0,12,763.7,314.7)" />
<use xlink:href="#f0_6" transform="matrix(12,0,0,12,769.5,314.7)" />
<use xlink:href="#f0_n" transform="matrix(12,0,0,12,781.4,314.7)" />
<use xlink:href="#f0_a" transform="matrix(12,0,0,12,790.4,314.7)" />
<use xlink:href="#f0_4" transform="matrix(12,0,0,12,799,314.7)" />
<use xlink:href="#f0_i" transform="matrix(12,0,0,12,808.8,314.7)" />
<use xlink:href="#f0_j" transform="matrix(12,0,0,12,819.1,314.7)" />
<use xlink:href="#f0_4" transform="matrix(12,0,0,12,827.4,314.7)" />
<use xlink:href="#f0_j" transform="matrix(12,0,0,12,837.2,314.7)" />
<use xlink:href="#f0_k" transform="matrix(12,0,0,12,47.4,346.8)" />
<use xlink:href="#f0_6" transform="matrix(12,0,0,12,53.2,346.8)" />
<use xlink:href="#f0_m" transform="matrix(12,0,0,12,69.8,346.8)" />
<use xlink:href="#f0_4" transform="matrix(12,0,0,12,76.2,346.8)" />
<use xlink:href="#f0_1b" transform="matrix(12,0,0,12,86,346.8)" />
<use xlink:href="#f0_o" transform="matrix(12,0,0,12,103.3,346.8)" />
<use xlink:href="#f0_4" transform="matrix(12,0,0,12,114.6,346.8)" />
<use xlink:href="#f0_a" transform="matrix(12,0,0,12,124.4,346.8)" />
<use xlink:href="#f0_i" transform="matrix(12,0,0,12,133,346.8)" />
<use xlink:href="#f0_m" transform="matrix(12,0,0,12,143.3,346.8)" />
<use xlink:href="#f0_c" transform="matrix(12,0,0,12,149.8,346.8)" />
<use xlink:href="#f0_a" transform="matrix(12,0,0,12,161.4,346.8)" />
<use xlink:href="#f0_4" transform="matrix(12,0,0,12,170,346.8)" />
<use xlink:href="#f0_u" transform="matrix(12,0,0,12,184.6,346.8)" />
<use xlink:href="#f0_7" transform="matrix(12,0,0,12,191.3,346.8)" />
<use xlink:href="#f0_a" transform="matrix(12,0,0,12,201.9,346.8)" />
<use xlink:href="#f0_1b" transform="matrix(12,0,0,12,215.3,346.8)" />
<use xlink:href="#f0_4" transform="matrix(12,0,0,12,232.6,346.8)" />
<use xlink:href="#f0_m" transform="matrix(12,0,0,12,242.4,346.8)" />
<use xlink:href="#f0_i" transform="matrix(12,0,0,12,248.8,346.8)" />
<use xlink:href="#f0_d" transform="matrix(12,0,0,12,259.1,346.8)" />
<use xlink:href="#f0_j" transform="matrix(12,0,0,12,264.8,346.8)" />
<use xlink:href="#f0_p" transform="matrix(12,0,0,12,273.1,346.8)" />
<use xlink:href="#f0_1a" transform="matrix(12,0,0,12,283.1,346.8)" />
<use xlink:href="#f0_d" transform="matrix(12,0,0,12,293,346.8)" />
<use xlink:href="#f0_7" transform="matrix(12,0,0,12,298.7,346.8)" />
<use xlink:href="#f0_o" transform="matrix(12,0,0,12,309.3,346.8)" />
<use xlink:href="#f0_4" transform="matrix(12,0,0,12,320.5,346.8)" />
<use xlink:href="#f0_k" transform="matrix(12,0,0,12,335.1,346.8)" />
<use xlink:href="#f0_j" transform="matrix(12,0,0,12,340.9,346.8)" />
<use xlink:href="#f0_j" transform="matrix(12,0,0,12,353.9,346.8)" />
<use xlink:href="#f0_1b" transform="matrix(12,0,0,12,362.2,346.8)" />
<use xlink:href="#f0_i" transform="matrix(12,0,0,12,379.5,346.8)" />
<use xlink:href="#f0_d" transform="matrix(12,0,0,12,389.8,346.8)" />
<use xlink:href="#f0_d" transform="matrix(12,0,0,12,395.5,346.8)" />
<use xlink:href="#f0_u" transform="matrix(12,0,0,12,405.9,346.8)" />
<use xlink:href="#f0_7" transform="matrix(12,0,0,12,412.7,346.8)" />
<use xlink:href="#f0_a" transform="matrix(12,0,0,12,423.3,346.8)" />
</g>
</g>
<image preserveAspectRatio="none" x="437" y="324" width="26" height="37" xlink:href="img/2.png" />
<image preserveAspectRatio="none" x="47" y="383" width="26" height="37" xlink:href="img/3.png" />
<g clip-path="url(#c0_120)">
<g fill="#000000" >
<use xlink:href="#f0_m" transform="matrix(12,0,0,12,77.3,401.8)" />
<use xlink:href="#f0_4" transform="matrix(12,0,0,12,83.7,401.8)" />
<use xlink:href="#f0_1b" transform="matrix(12,0,0,12,93.6,401.8)" />
<use xlink:href="#f0_o" transform="matrix(12,0,0,12,110.9,401.8)" />
<use xlink:href="#f0_4" transform="matrix(12,0,0,12,122.1,401.8)" />
<use xlink:href="#f0_a" transform="matrix(12,0,0,12,131.9,401.8)" />
<use xlink:href="#f0_i" transform="matrix(12,0,0,12,140.5,401.8)" />
<use xlink:href="#f0_m" transform="matrix(12,0,0,12,150.8,401.8)" />
<use xlink:href="#f0_c" transform="matrix(12,0,0,12,157.3,401.8)" />
<use xlink:href="#f0_a" transform="matrix(12,0,0,12,168.9,401.8)" />
<use xlink:href="#f0_4" transform="matrix(12,0,0,12,177.5,401.8)" />
<use xlink:href="#f0_k" transform="matrix(12,0,0,12,192.1,401.8)" />
<use xlink:href="#f0_j" transform="matrix(12,0,0,12,197.9,401.8)" />
<use xlink:href="#f0_h" transform="matrix(12,0,0,12,211,401.8)" />
<use xlink:href="#f0_k" transform="matrix(12,0,0,12,222.6,401.8)" />
<use xlink:href="#f0_l" transform="matrix(12,0,0,12,228.4,401.8)" />
<use xlink:href="#f0_h" transform="matrix(12,0,0,12,238.3,401.8)" />
<use xlink:href="#f0_4" transform="matrix(12,0,0,12,249.9,401.8)" />
<use xlink:href="#f0_a" transform="matrix(12,0,0,12,259.7,401.8)" />
<use xlink:href="#f1_17" transform="matrix(12,0,0,12,47.4,481.3)" />
<use xlink:href="#f1_n" transform="matrix(12,0,0,12,57.6,481.3)" />
<use xlink:href="#f1_12" transform="matrix(12,0,0,12,63.2,481.3)" />
<use xlink:href="#f1_s" transform="matrix(12,0,0,12,81.7,481.3)" />
<use xlink:href="#f1_5" transform="matrix(12,0,0,12,90.6,481.3)" />
<use xlink:href="#f1_4" transform="matrix(12,0,0,12,101.1,481.3)" />
<use xlink:href="#f1_b" transform="matrix(12,0,0,12,113.2,481.3)" />
<use xlink:href="#f1_e" transform="matrix(12,0,0,12,124.5,481.3)" />
<use xlink:href="#f1_d" transform="matrix(12,0,0,12,136.7,481.3)" />
<use xlink:href="#f1_1g" transform="matrix(12,0,0,12,148.9,481.3)" />
<use xlink:href="#f1_7" transform="matrix(12,0,0,12,154.6,481.3)" />
<use xlink:href="#f1_a" transform="matrix(12,0,0,12,161,481.3)" />
<use xlink:href="#f1_5" transform="matrix(12,0,0,12,172.9,481.3)" />
<use xlink:href="#f1_d" transform="matrix(12,0,0,12,183.4,481.3)" />
<use xlink:href="#f1_4" transform="matrix(12,0,0,12,195.6,481.3)" />
<use xlink:href="#f1_7" transform="matrix(12,0,0,12,203,481.3)" />
<use xlink:href="#f1_o" transform="matrix(12,0,0,12,209.4,481.3)" />
<use xlink:href="#f1_3" transform="matrix(12,0,0,12,219.1,481.3)" />
<use xlink:href="#f1_8" transform="matrix(12,0,0,12,230,481.3)" />
<use xlink:href="#f1_6" transform="matrix(12,0,0,12,241.2,481.3)" />
<use xlink:href="#f1_5" transform="matrix(12,0,0,12,250.8,481.3)" />
<use xlink:href="#f1_s" transform="matrix(12,0,0,12,261.3,481.3)" />
<use xlink:href="#f1_7" transform="matrix(12,0,0,12,270.2,481.3)" />
<use xlink:href="#f1_s" transform="matrix(12,0,0,12,276.6,481.3)" />
<use xlink:href="#f1_4" transform="matrix(12,0,0,12,285.6,481.3)" />
<use xlink:href="#f1_b" transform="matrix(12,0,0,12,293,481.3)" />
<use xlink:href="#f1_6" transform="matrix(12,0,0,12,304.2,481.3)" />
<use xlink:href="#f1_s" transform="matrix(12,0,0,12,313.8,481.3)" />
<use xlink:href="#f1_15" transform="matrix(12,0,0,12,322.7,481.3)" />
<use xlink:href="#f1_5" transform="matrix(12,0,0,12,332.8,481.3)" />
<use xlink:href="#f1_3" transform="matrix(12,0,0,12,343.3,481.3)" />
<use xlink:href="#f1_o" transform="matrix(12,0,0,12,354.3,481.3)" />
<use xlink:href="#f1_v" transform="matrix(12,0,0,12,363.9,481.3)" />
<use xlink:href="#f1_b" transform="matrix(12,0,0,12,380.9,481.3)" />
<use xlink:href="#f1_e" transform="matrix(12,0,0,12,392.1,481.3)" />
<use xlink:href="#f1_6" transform="matrix(12,0,0,12,404.3,481.3)" />
<use xlink:href="#f1_5" transform="matrix(12,0,0,12,413.9,481.3)" />
<use xlink:href="#f1_s" transform="matrix(12,0,0,12,424.3,481.3)" />
<use xlink:href="#f1_7" transform="matrix(12,0,0,12,433.2,481.3)" />
<use xlink:href="#f1_s" transform="matrix(12,0,0,12,439.7,481.3)" />
<use xlink:href="#f1_4" transform="matrix(12,0,0,12,448.6,481.3)" />
<use xlink:href="#f1_3" transform="matrix(12,0,0,12,456,481.3)" />
<use xlink:href="#f1_d" transform="matrix(12,0,0,12,467,481.3)" />
<use xlink:href="#f1_o" transform="matrix(12,0,0,12,479.2,481.3)" />
<use xlink:href="#f1_5" transform="matrix(12,0,0,12,488.9,481.3)" />
<use xlink:href="#f1_1c" transform="matrix(12,0,0,12,504.1,481.3)" />
<use xlink:href="#f1_b" transform="matrix(12,0,0,12,521.8,481.3)" />
<use xlink:href="#f1_v" transform="matrix(12,0,0,12,533,481.3)" />
<use xlink:href="#f1_f" transform="matrix(12,0,0,12,545.2,481.3)" />
<use xlink:href="#f1_c" transform="matrix(12,0,0,12,568,481.3)" />
<use xlink:href="#f1_v" transform="matrix(12,0,0,12,583.7,481.3)" />
<use xlink:href="#f1_5" transform="matrix(12,0,0,12,596,481.3)" />
<use xlink:href="#f1_d" transform="matrix(12,0,0,12,606.4,481.3)" />
<use xlink:href="#f1_o" transform="matrix(12,0,0,12,623.4,481.3)" />
<use xlink:href="#f1_b" transform="matrix(12,0,0,12,633,481.3)" />
<use xlink:href="#f1_d" transform="matrix(12,0,0,12,644.2,481.3)" />
<use xlink:href="#f1_d" transform="matrix(12,0,0,12,656.5,481.3)" />
<use xlink:href="#f1_5" transform="matrix(12,0,0,12,668.7,481.3)" />
<use xlink:href="#f1_o" transform="matrix(12,0,0,12,679.1,481.3)" />
<use xlink:href="#f1_4" transform="matrix(12,0,0,12,688.8,481.3)" />
<use xlink:href="#f1_5" transform="matrix(12,0,0,12,696.2,481.3)" />
<use xlink:href="#f1_a" transform="matrix(12,0,0,12,706.6,481.3)" />
<use xlink:href="#f1_7" transform="matrix(12,0,0,12,723.3,481.3)" />
<use xlink:href="#f1_d" transform="matrix(12,0,0,12,729.7,481.3)" />
<use xlink:href="#f1_s" transform="matrix(12,0,0,12,746.7,481.3)" />
<use xlink:href="#f1_5" transform="matrix(12,0,0,12,755.6,481.3)" />
<use xlink:href="#f1_6" transform="matrix(12,0,0,12,766.1,481.3)" />
<use xlink:href="#f1_7" transform="matrix(12,0,0,12,775.7,481.3)" />
<use xlink:href="#f1_5" transform="matrix(12,0,0,12,782.1,481.3)" />
<use xlink:href="#f1_s" transform="matrix(12,0,0,12,792.6,481.3)" />
<use xlink:href="#f1_v" transform="matrix(12,0,0,12,806.2,481.3)" />
<use xlink:href="#f1_3" transform="matrix(12,0,0,12,818.5,481.3)" />
<use xlink:href="#f1_19" transform="matrix(12,0,0,12,829.4,481.3)" />
<use xlink:href="#f1_5" transform="matrix(12,0,0,12,840.5,481.3)" />
<use xlink:href="#f1_3" transform="matrix(12,0,0,12,47.4,513.3)" />
<use xlink:href="#f1_d" transform="matrix(12,0,0,12,58.3,513.3)" />
<use xlink:href="#f1_5" transform="matrix(12,0,0,12,75.3,513.3)" />
<use xlink:href="#f1_e" transform="matrix(12,0,0,12,85.8,513.3)" />
<use xlink:href="#f1_e" transform="matrix(12,0,0,12,93.2,513.3)" />
<use xlink:href="#f1_5" transform="matrix(12,0,0,12,100.7,513.3)" />
<use xlink:href="#f1_o" transform="matrix(12,0,0,12,111.1,513.3)" />
<use xlink:href="#f1_4" transform="matrix(12,0,0,12,120.8,513.3)" />
<use xlink:href="#f1_7" transform="matrix(12,0,0,12,128.2,513.3)" />
<use xlink:href="#f1_19" transform="matrix(12,0,0,12,134.6,513.3)" />
<use xlink:href="#f1_5" transform="matrix(12,0,0,12,145.7,513.3)" />
<use xlink:href="#f1_6" transform="matrix(12,0,0,12,160.9,513.3)" />
<use xlink:href="#f1_5" transform="matrix(12,0,0,12,170.5,513.3)" />
<use xlink:href="#f1_s" transform="matrix(12,0,0,12,180.9,513.3)" />
<use xlink:href="#f1_7" transform="matrix(12,0,0,12,189.9,513.3)" />
<use xlink:href="#f1_s" transform="matrix(12,0,0,12,196.3,513.3)" />
<use xlink:href="#f1_4" transform="matrix(12,0,0,12,205.2,513.3)" />
<use xlink:href="#f1_3" transform="matrix(12,0,0,12,212.6,513.3)" />
<use xlink:href="#f1_d" transform="matrix(12,0,0,12,223.6,513.3)" />
<use xlink:href="#f1_o" transform="matrix(12,0,0,12,235.9,513.3)" />
<use xlink:href="#f1_5" transform="matrix(12,0,0,12,245.5,513.3)" />
<use xlink:href="#f1_b" transform="matrix(12,0,0,12,260.7,513.3)" />
<use xlink:href="#f1_e" transform="matrix(12,0,0,12,271.9,513.3)" />
<use xlink:href="#f1_1h" transform="matrix(12,0,0,12,284.1,513.3)" />
<use xlink:href="#f1_b" transform="matrix(12,0,0,12,302.3,513.3)" />
<use xlink:href="#f1_v" transform="matrix(12,0,0,12,313.5,513.3)" />
<use xlink:href="#f1_f" transform="matrix(12,0,0,12,325.7,513.3)" />
<use xlink:href="#f1_3" transform="matrix(12,0,0,12,348.5,513.3)" />
<use xlink:href="#f1_d" transform="matrix(12,0,0,12,359.5,513.3)" />
<use xlink:href="#f1_a" transform="matrix(12,0,0,12,371.8,513.3)" />
<use xlink:href="#f1_c" transform="matrix(12,0,0,12,388.4,513.3)" />
<use xlink:href="#f1_v" transform="matrix(12,0,0,12,404.1,513.3)" />
<use xlink:href="#f1_5" transform="matrix(12,0,0,12,416.3,513.3)" />
<use xlink:href="#f1_d" transform="matrix(12,0,0,12,426.8,513.3)" />
<use xlink:href="#f1_4" transform="matrix(12,0,0,12,443.7,513.3)" />
<use xlink:href="#f1_v" transform="matrix(12,0,0,12,451.1,513.3)" />
<use xlink:href="#f1_5" transform="matrix(12,0,0,12,463.3,513.3)" />
<use xlink:href="#f1_6" transform="matrix(12,0,0,12,478.6,513.3)" />
<use xlink:href="#f1_5" transform="matrix(12,0,0,12,488.1,513.3)" />
<use xlink:href="#f1_s" transform="matrix(12,0,0,12,498.6,513.3)" />
<use xlink:href="#f1_7" transform="matrix(12,0,0,12,507.5,513.3)" />
<use xlink:href="#f1_s" transform="matrix(12,0,0,12,514,513.3)" />
<use xlink:href="#f1_4" transform="matrix(12,0,0,12,522.9,513.3)" />
<use xlink:href="#f1_b" transform="matrix(12,0,0,12,530.3,513.3)" />
<use xlink:href="#f1_6" transform="matrix(12,0,0,12,541.5,513.3)" />
<use xlink:href="#f1_s" transform="matrix(12,0,0,12,551.1,513.3)" />
<use xlink:href="#f1_3" transform="matrix(12,0,0,12,564.8,513.3)" />
<use xlink:href="#f1_6" transform="matrix(12,0,0,12,575.7,513.3)" />
<use xlink:href="#f1_5" transform="matrix(12,0,0,12,585.3,513.3)" />
<use xlink:href="#f1_o" transform="matrix(12,0,0,12,600.5,513.3)" />
<use xlink:href="#f1_b" transform="matrix(12,0,0,12,610.2,513.3)" />
<use xlink:href="#f1_d" transform="matrix(12,0,0,12,621.4,513.3)" />
<use xlink:href="#f1_d" transform="matrix(12,0,0,12,633.6,513.3)" />
<use xlink:href="#f1_5" transform="matrix(12,0,0,12,645.8,513.3)" />
<use xlink:href="#f1_o" transform="matrix(12,0,0,12,656.3,513.3)" />
<use xlink:href="#f1_4" transform="matrix(12,0,0,12,665.9,513.3)" />
<use xlink:href="#f1_5" transform="matrix(12,0,0,12,673.3,513.3)" />
<use xlink:href="#f1_a" transform="matrix(12,0,0,12,683.8,513.3)" />
<use xlink:href="#f1_7" transform="matrix(12,0,0,12,700.4,513.3)" />
<use xlink:href="#f1_d" transform="matrix(12,0,0,12,706.9,513.3)" />
<use xlink:href="#f1_u" transform="matrix(12,0,0,12,723.8,513.3)" />
<use xlink:href="#f1_3" transform="matrix(12,0,0,12,735.6,513.3)" />
<use xlink:href="#f1_6" transform="matrix(12,0,0,12,746.6,513.3)" />
<use xlink:href="#f1_3" transform="matrix(12,0,0,12,756.2,513.3)" />
<use xlink:href="#f1_8" transform="matrix(12,0,0,12,767.2,513.3)" />
<use xlink:href="#f1_8" transform="matrix(12,0,0,12,773.6,513.3)" />
<use xlink:href="#f1_5" transform="matrix(12,0,0,12,780.1,513.3)" />
<use xlink:href="#f1_8" transform="matrix(12,0,0,12,790.5,513.3)" />
<use xlink:href="#f1_4" transform="matrix(12,0,0,12,801.7,513.3)" />
<use xlink:href="#f1_v" transform="matrix(12,0,0,12,809.1,513.3)" />
<use xlink:href="#f1_5" transform="matrix(12,0,0,12,821.3,513.3)" />
<use xlink:href="#f1_5" transform="matrix(12,0,0,12,47.4,545.4)" />
<use xlink:href="#f1_e" transform="matrix(12,0,0,12,57.8,545.4)" />
<use xlink:href="#f1_e" transform="matrix(12,0,0,12,65.3,545.4)" />
<use xlink:href="#f1_5" transform="matrix(12,0,0,12,72.7,545.4)" />
<use xlink:href="#f1_o" transform="matrix(12,0,0,12,83.2,545.4)" />
<use xlink:href="#f1_4" transform="matrix(12,0,0,12,92.8,545.4)" />
<use xlink:href="#f1_7" transform="matrix(12,0,0,12,100.2,545.4)" />
<use xlink:href="#f1_19" transform="matrix(12,0,0,12,106.7,545.4)" />
<use xlink:href="#f1_5" transform="matrix(12,0,0,12,117.8,545.4)" />
<use xlink:href="#f1_6" transform="matrix(12,0,0,12,133,545.4)" />
<use xlink:href="#f1_5" transform="matrix(12,0,0,12,142.5,545.4)" />
<use xlink:href="#f1_s" transform="matrix(12,0,0,12,153,545.4)" />
<use xlink:href="#f1_7" transform="matrix(12,0,0,12,161.9,545.4)" />
<use xlink:href="#f1_s" transform="matrix(12,0,0,12,168.4,545.4)" />
<use xlink:href="#f1_4" transform="matrix(12,0,0,12,177.3,545.4)" />
<use xlink:href="#f1_3" transform="matrix(12,0,0,12,184.7,545.4)" />
<use xlink:href="#f1_d" transform="matrix(12,0,0,12,195.7,545.4)" />
<use xlink:href="#f1_o" transform="matrix(12,0,0,12,207.9,545.4)" />
<use xlink:href="#f1_5" transform="matrix(12,0,0,12,217.5,545.4)" />
<use xlink:href="#f1_7" transform="matrix(12,0,0,12,232.7,545.4)" />
<use xlink:href="#f1_s" transform="matrix(12,0,0,12,239.2,545.4)" />
<use xlink:href="#f1_1i" transform="matrix(12,0,0,12,252.9,545.4)" />
<use xlink:href="#f1_b" transform="matrix(12,0,0,12,270.3,545.4)" />
<use xlink:href="#f1_v" transform="matrix(12,0,0,12,281.5,545.4)" />
<use xlink:href="#f1_f" transform="matrix(12,0,0,12,293.8,545.4)" />
<use xlink:href="#f1_n" transform="matrix(12,0,0,12,311.8,545.4)" />
<use xlink:href="#f1_1j" transform="matrix(12,0,0,12,322.1,545.4)" />
<use xlink:href="#f1_7" transform="matrix(12,0,0,12,333.5,545.4)" />
<use xlink:href="#f1_d" transform="matrix(12,0,0,12,340,545.4)" />
<use xlink:href="#f1_a" transform="matrix(12,0,0,12,352.2,545.4)" />
<use xlink:href="#f1_4" transform="matrix(12,0,0,12,368.8,545.4)" />
<use xlink:href="#f1_v" transform="matrix(12,0,0,12,376.2,545.4)" />
<use xlink:href="#f1_5" transform="matrix(12,0,0,12,388.5,545.4)" />
<use xlink:href="#f1_6" transform="matrix(12,0,0,12,403.7,545.4)" />
<use xlink:href="#f1_5" transform="matrix(12,0,0,12,413.2,545.4)" />
<use xlink:href="#f1_8" transform="matrix(12,0,0,12,423.7,545.4)" />
<use xlink:href="#f1_3" transform="matrix(12,0,0,12,430.1,545.4)" />
<use xlink:href="#f1_4" transform="matrix(12,0,0,12,441.1,545.4)" />
<use xlink:href="#f1_7" transform="matrix(12,0,0,12,448.5,545.4)" />
<use xlink:href="#f1_b" transform="matrix(12,0,0,12,455,545.4)" />
<use xlink:href="#f1_d" transform="matrix(12,0,0,12,466.2,545.4)" />
<use xlink:href="#f1_11" transform="matrix(12,0,0,12,483.2,545.4)" />
<use xlink:href="#f1_5" transform="matrix(12,0,0,12,495,545.4)" />
<use xlink:href="#f1_4" transform="matrix(12,0,0,12,505.5,545.4)" />
<use xlink:href="#f1_c" transform="matrix(12,0,0,12,512.9,545.4)" />
<use xlink:href="#f1_5" transform="matrix(12,0,0,12,528.6,545.4)" />
<use xlink:href="#f1_5" transform="matrix(12,0,0,12,539,545.4)" />
<use xlink:href="#f1_d" transform="matrix(12,0,0,12,549.5,545.4)" />
<use xlink:href="#f1_1c" transform="matrix(12,0,0,12,566.5,545.4)" />
<use xlink:href="#f1_15" transform="matrix(12,0,0,12,579.4,545.4)" />
<use xlink:href="#f1_1h" transform="matrix(12,0,0,12,589.6,545.4)" />
<use xlink:href="#f1_3" transform="matrix(12,0,0,12,607.7,545.4)" />
<use xlink:href="#f1_d" transform="matrix(12,0,0,12,618.7,545.4)" />
<use xlink:href="#f1_a" transform="matrix(12,0,0,12,630.9,545.4)" />
<use xlink:href="#f1_1i" transform="matrix(12,0,0,12,647.6,545.4)" />
<use xlink:href="#f1_1a" transform="matrix(12,0,0,12,665,545.4)" />
<use xlink:href="#f1_12" transform="matrix(12,0,0,12,47.4,595.8)" />
<use xlink:href="#f1_d" transform="matrix(12,0,0,12,61.2,595.8)" />
<use xlink:href="#f1_s" transform="matrix(12,0,0,12,73.4,595.8)" />
<use xlink:href="#f1_n" transform="matrix(12,0,0,12,82.3,595.8)" />
<use xlink:href="#f0_6" transform="matrix(12,0,0,12,92.6,595.8)" />
<use xlink:href="#f0_1c" transform="matrix(12,0,0,12,109.2,595.8)" />
<use xlink:href="#f0_a" transform="matrix(12,0,0,12,123.1,595.8)" />
<use xlink:href="#f0_4" transform="matrix(12,0,0,12,131.7,595.8)" />
<use xlink:href="#f0_j" transform="matrix(12,0,0,12,141.5,595.8)" />
<use xlink:href="#f0_k" transform="matrix(12,0,0,12,149.8,595.8)" />
<use xlink:href="#f0_j" transform="matrix(12,0,0,12,155.6,595.8)" />
<use xlink:href="#f0_m" transform="matrix(12,0,0,12,163.9,595.8)" />
<use xlink:href="#f0_7" transform="matrix(12,0,0,12,170.3,595.8)" />
<use xlink:href="#f0_a" transform="matrix(12,0,0,12,180.9,595.8)" />
<use xlink:href="#f0_j" transform="matrix(12,0,0,12,189.5,595.8)" />
<use xlink:href="#f0_n" transform="matrix(12,0,0,12,202.6,595.8)" />
<use xlink:href="#f0_7" transform="matrix(12,0,0,12,211.6,595.8)" />
<use xlink:href="#f0_6" transform="matrix(12,0,0,12,222.1,595.8)" />
<use xlink:href="#f0_6" transform="matrix(12,0,0,12,234,595.8)" />
<use xlink:href="#f0_4" transform="matrix(12,0,0,12,245.8,595.8)" />
<use xlink:href="#f0_n" transform="matrix(12,0,0,12,255.6,595.8)" />
<use xlink:href="#f0_m" transform="matrix(12,0,0,12,264.6,595.8)" />
<use xlink:href="#f0_4" transform="matrix(12,0,0,12,271.1,595.8)" />
<use xlink:href="#f0_s" transform="matrix(12,0,0,12,280.9,595.8)" />
<use xlink:href="#f0_k" transform="matrix(12,0,0,12,296.9,595.8)" />
<use xlink:href="#f0_6" transform="matrix(12,0,0,12,302.7,595.8)" />
<use xlink:href="#f0_j" transform="matrix(12,0,0,12,319.3,595.8)" />
<use xlink:href="#f0_4" transform="matrix(12,0,0,12,327.5,595.8)" />
<use xlink:href="#f0_a" transform="matrix(12,0,0,12,337.4,595.8)" />
<use xlink:href="#f0_k" transform="matrix(12,0,0,12,346,595.8)" />
<use xlink:href="#f0_4" transform="matrix(12,0,0,12,351.8,595.8)" />
<use xlink:href="#f0_j" transform="matrix(12,0,0,12,361.6,595.8)" />
<use xlink:href="#f0_1d" transform="matrix(12,0,0,12,47.4,646.3)" />
<use xlink:href="#f0_v" transform="matrix(12,0,0,12,64.2,646.3)" />
<use xlink:href="#f0_6" transform="matrix(12,0,0,12,79.2,646.3)" />
<use xlink:href="#f0_q" transform="matrix(12,0,0,12,91,646.3)" />
<use xlink:href="#f0_1e" transform="matrix(12,0,0,12,107.8,646.3)" />
<use xlink:href="#f0_1e" transform="matrix(12,0,0,12,113.5,646.3)" />
<use xlink:href="#f0_1e" transform="matrix(12,0,0,12,119.1,646.3)" />
<use xlink:href="#f0_1e" transform="matrix(12,0,0,12,124.8,646.3)" />
<use xlink:href="#f0_1e" transform="matrix(12,0,0,12,130.5,646.3)" />
<use xlink:href="#f0_12" transform="matrix(12,0,0,12,136.2,646.3)" />
<use xlink:href="#f0_1f" transform="matrix(12,0,0,12,146.4,646.3)" />
<use xlink:href="#f0_6" transform="matrix(12,0,0,12,47.4,696.7)" />
<use xlink:href="#f0_1c" transform="matrix(12,0,0,12,63.9,696.7)" />
<use xlink:href="#f0_q" transform="matrix(12,0,0,12,77.8,696.7)" />
<use xlink:href="#f0_4" transform="matrix(12,0,0,12,89.9,696.7)" />
<use xlink:href="#f0_j" transform="matrix(12,0,0,12,99.7,696.7)" />
<use xlink:href="#f0_k" transform="matrix(12,0,0,12,107.9,696.7)" />
<use xlink:href="#f0_j" transform="matrix(12,0,0,12,113.8,696.7)" />
<use xlink:href="#f0_m" transform="matrix(12,0,0,12,122,696.7)" />
<use xlink:href="#f0_7" transform="matrix(12,0,0,12,128.5,696.7)" />
<use xlink:href="#f0_a" transform="matrix(12,0,0,12,139.1,696.7)" />
<use xlink:href="#f0_j" transform="matrix(12,0,0,12,147.7,696.7)" />
<use xlink:href="#f0_n" transform="matrix(12,0,0,12,160.7,696.7)" />
<use xlink:href="#f0_7" transform="matrix(12,0,0,12,169.7,696.7)" />
<use xlink:href="#f0_6" transform="matrix(12,0,0,12,180.3,696.7)" />
<use xlink:href="#f0_6" transform="matrix(12,0,0,12,192.1,696.7)" />
<use xlink:href="#f0_4" transform="matrix(12,0,0,12,203.9,696.7)" />
<use xlink:href="#f0_n" transform="matrix(12,0,0,12,213.7,696.7)" />
<use xlink:href="#f0_m" transform="matrix(12,0,0,12,222.7,696.7)" />
<use xlink:href="#f0_4" transform="matrix(12,0,0,12,229.2,696.7)" />
<use xlink:href="#f0_s" transform="matrix(12,0,0,12,239,696.7)" />
<use xlink:href="#f0_k" transform="matrix(12,0,0,12,255,696.7)" />
<use xlink:href="#f0_6" transform="matrix(12,0,0,12,260.8,696.7)" />
<use xlink:href="#f0_o" transform="matrix(12,0,0,12,277.4,696.7)" />
<use xlink:href="#f0_i" transform="matrix(12,0,0,12,288.7,696.7)" />
<use xlink:href="#f0_a" transform="matrix(12,0,0,12,299,696.7)" />
<use xlink:href="#f0_i" transform="matrix(12,0,0,12,307.6,696.7)" />
<use xlink:href="#f0_d" transform="matrix(12,0,0,12,317.9,696.7)" />
<use xlink:href="#f0_d" transform="matrix(12,0,0,12,323.6,696.7)" />
<use xlink:href="#f0_4" transform="matrix(12,0,0,12,329.3,696.7)" />
<use xlink:href="#f0_d" transform="matrix(12,0,0,12,339.1,696.7)" />
<use xlink:href="#f0_1g" transform="matrix(12,0,0,12,47.4,760.8)" />
<use xlink:href="#f0_v" transform="matrix(12,0,0,12,63.6,760.8)" />
</g>
</g>
<image preserveAspectRatio="none" x="78" y="724" width="29" height="64" xlink:href="img/4.png" />
<g clip-path="url(#c0_120)">
<g fill="#000000" >
<use xlink:href="#f0_1e" transform="matrix(12,0,0,12,112.3,760.8)" />
<use xlink:href="#f0_1e" transform="matrix(12,0,0,12,118,760.8)" />
<use xlink:href="#f0_1e" transform="matrix(12,0,0,12,123.7,760.8)" />
<use xlink:href="#f0_1e" transform="matrix(12,0,0,12,129.4,760.8)" />
<use xlink:href="#f0_1e" transform="matrix(12,0,0,12,135.1,760.8)" />
<use xlink:href="#f0_1e" transform="matrix(12,0,0,12,140.7,760.8)" />
<use xlink:href="#f0_w" transform="matrix(12,0,0,12,146.4,760.8)" />
<use xlink:href="#f0_1f" transform="matrix(12,0,0,12,156.7,760.8)" />
<use xlink:href="#f0_1h" transform="matrix(12,0,0,12,47.4,829.6)" />
<use xlink:href="#f0_c" transform="matrix(12,0,0,12,64.5,829.6)" />
<use xlink:href="#f0_d" transform="matrix(12,0,0,12,76.2,829.6)" />
<use xlink:href="#f0_m" transform="matrix(12,0,0,12,81.9,829.6)" />
<use xlink:href="#f0_k" transform="matrix(12,0,0,12,88.3,829.6)" />
<use xlink:href="#f0_o" transform="matrix(12,0,0,12,94.1,829.6)" />
<use xlink:href="#f0_d" transform="matrix(12,0,0,12,105.4,829.6)" />
<use xlink:href="#f0_1i" transform="matrix(12,0,0,12,111.1,829.6)" />
<use xlink:href="#f0_4" transform="matrix(12,0,0,12,126.2,829.6)" />
<use xlink:href="#f0_l" transform="matrix(12,0,0,12,136,829.6)" />
<use xlink:href="#f0_p" transform="matrix(12,0,0,12,145.8,829.6)" />
<use xlink:href="#f0_1j" transform="matrix(12,0,0,12,155.8,829.6)" />
<use xlink:href="#f0_12" transform="matrix(12,0,0,12,162.1,829.6)" />
<use xlink:href="#f0_1f" transform="matrix(12,0,0,12,172.4,829.6)" />
<use xlink:href="#f0_1k" transform="matrix(12,0,0,12,183.5,829.6)" />
<use xlink:href="#f0_1j" transform="matrix(12,0,0,12,201.8,829.6)" />
<use xlink:href="#f0_w" transform="matrix(12,0,0,12,208.1,829.6)" />
<use xlink:href="#f0_1f" transform="matrix(12,0,0,12,218.4,829.6)" />
<use xlink:href="#f0_1d" transform="matrix(12,0,0,12,47.4,895.3)" />
<use xlink:href="#f0_1g" transform="matrix(12,0,0,12,59.5,895.3)" />
<use xlink:href="#f0_v" transform="matrix(12,0,0,12,75.7,895.3)" />
</g>
</g>
<image preserveAspectRatio="none" x="90" y="857" width="99" height="67" xlink:href="img/5.png" />
<g clip-path="url(#c0_120)">
<g fill="#000000" >
<use xlink:href="#f0_1d" transform="matrix(12,0,0,12,47.4,971.7)" />
<use xlink:href="#f0_1g" transform="matrix(12,0,0,12,59.5,971.7)" />
<use xlink:href="#f0_v" transform="matrix(12,0,0,12,75.7,971.7)" />
</g>
</g>
<image preserveAspectRatio="none" x="90" y="952" width="34" height="30" xlink:href="img/6.png" />
<image preserveAspectRatio="none" x="124" y="952" width="18" height="29" xlink:href="img/7.png" />
<image preserveAspectRatio="none" x="147" y="943" width="113" height="47" xlink:href="img/8.png" />
<g clip-path="url(#c0_120)">
<g fill="#000000" >
<use xlink:href="#f1_1k" transform="matrix(12,0,0,12,47.4,1064.9)" />
<use xlink:href="#f1_n" transform="matrix(12,0,0,12,57.6,1064.9)" />
<use xlink:href="#f1_j" transform="matrix(12,0,0,12,67.9,1064.9)" />
<use xlink:href="#f1_v" transform="matrix(12,0,0,12,78.7,1064.9)" />
<use xlink:href="#f1_b" transform="matrix(12,0,0,12,90.9,1064.9)" />
<use xlink:href="#f1_c" transform="matrix(12,0,0,12,102.1,1064.9)" />
<use xlink:href="#f1_4" transform="matrix(12,0,0,12,122.5,1064.9)" />
<use xlink:href="#f1_v" transform="matrix(12,0,0,12,129.9,1064.9)" />
<use xlink:href="#f1_5" transform="matrix(12,0,0,12,142.2,1064.9)" />
<use xlink:href="#f1_6" transform="matrix(12,0,0,12,157.4,1064.9)" />
<use xlink:href="#f1_5" transform="matrix(12,0,0,12,166.9,1064.9)" />
<use xlink:href="#f1_s" transform="matrix(12,0,0,12,177.4,1064.9)" />
<use xlink:href="#f1_7" transform="matrix(12,0,0,12,186.3,1064.9)" />
<use xlink:href="#f1_s" transform="matrix(12,0,0,12,192.8,1064.9)" />
<use xlink:href="#f1_4" transform="matrix(12,0,0,12,201.7,1064.9)" />
<use xlink:href="#f1_3" transform="matrix(12,0,0,12,209.1,1064.9)" />
<use xlink:href="#f1_d" transform="matrix(12,0,0,12,220.1,1064.9)" />
<use xlink:href="#f1_o" transform="matrix(12,0,0,12,232.3,1064.9)" />
<use xlink:href="#f1_5" transform="matrix(12,0,0,12,241.9,1064.9)" />
<use xlink:href="#f1_b" transform="matrix(12,0,0,12,257.1,1064.9)" />
<use xlink:href="#f1_e" transform="matrix(12,0,0,12,268.4,1064.9)" />
<use xlink:href="#f1_3" transform="matrix(12,0,0,12,280.6,1064.9)" />
<use xlink:href="#f1_o" transform="matrix(12,0,0,12,296.3,1064.9)" />
<use xlink:href="#f1_b" transform="matrix(12,0,0,12,305.9,1064.9)" />
<use xlink:href="#f1_d" transform="matrix(12,0,0,12,317.2,1064.9)" />
<use xlink:href="#f1_a" transform="matrix(12,0,0,12,329.4,1064.9)" />
<use xlink:href="#f1_m" transform="matrix(12,0,0,12,341.3,1064.9)" />
<use xlink:href="#f1_o" transform="matrix(12,0,0,12,353.5,1064.9)" />
<use xlink:href="#f1_4" transform="matrix(12,0,0,12,363.1,1064.9)" />
<use xlink:href="#f1_b" transform="matrix(12,0,0,12,370.5,1064.9)" />
<use xlink:href="#f1_6" transform="matrix(12,0,0,12,381.8,1064.9)" />
<use xlink:href="#f1_7" transform="matrix(12,0,0,12,396.1,1064.9)" />
<use xlink:href="#f1_s" transform="matrix(12,0,0,12,402.5,1064.9)" />
<use xlink:href="#f1_l" transform="matrix(12,0,0,12,416.2,1064.9)" />
<use xlink:href="#f1_7" transform="matrix(12,0,0,12,426.5,1064.9)" />
<use xlink:href="#f1_19" transform="matrix(12,0,0,12,432.9,1064.9)" />
<use xlink:href="#f1_5" transform="matrix(12,0,0,12,444,1064.9)" />
<use xlink:href="#f1_d" transform="matrix(12,0,0,12,454.5,1064.9)" />
<use xlink:href="#f1_11" transform="matrix(12,0,0,12,471.4,1064.9)" />
<use xlink:href="#f1_g" transform="matrix(12,0,0,12,483.3,1064.9)" />
</g>
</g>
<image preserveAspectRatio="none" x="498" y="1028" width="122" height="64" xlink:href="img/9.png" />
<g fill="#000000" >
<use xlink:href="#f2_r" transform="matrix(8,0,0,8,792.2,1275.3)" />
</g>
<defs>
<path d="M99,350v90H755V350Zm0,300v91H755V650Z" 
id="f0_v"
transform="scale(0.001,-0.001)" />

<path d="M382,-14c-2,0,-3,0,-5,0c0,0,-75,0,-131,15c0,0,-57,15,-95,44c0,0,-40,27,-58,68c0,0,-20,38,-20,87c0,0,0,45,29,75c0,0,29,27,82,28c0,0,0,-49,13,-92c0,0,12,-44,36,-77c0,0,24,-34,64,-54c0,0,38,-20,92,-20c6,0,104,0,161,50c0,0,58,49,58,142c0,0,0,41,-12,74c0,0,-13,31,-39,60c0,0,-29,26,-73,52c0,0,-46,24,-113,52c0,0,-71,29,-123,63c0,0,-54,32,-88,74c0,0,-36,39,-53,90c0,0,-17,50,-17,113c0,0,0,65,26,117c0,0,24,51,69,87c0,0,44,34,106,54c0,0,60,18,133,18c0,0,68,0,122,-14c0,0,52,-15,90,-38c0,0,36,-25,56,-54c0,0,18,-32,18,-65c0,0,0,-50,-32,-74c0,0,-33,-26,-86,-26c0,0,-1,1,-2,1c0,0,-1,35,-8,70c0,0,-9,34,-29,62c0,0,-21,27,-53,44c0,0,-34,17,-81,17c0,0,-45,0,-79,-11c0,0,-36,-13,-59,-36c0,0,-24,-23,-36,-55c0,0,-13,-33,-13,-71c0,0,-1,-47,12,-80c0,0,12,-35,40,-63c0,0,27,-28,73,-53c0,0,46,-26,112,-52c0,0,67,-28,120,-58c0,0,52,-32,89,-68c0,0,37,-39,56,-84c0,0,19,-47,19,-106c0,0,0,-73,-26,-129c0,0,-27,-59,-76,-97C651,66,602,26,533,6c0,0,-67,-20,-151,-20Z" 
id="f0_1a"
transform="scale(0.001,-0.001)" />

<path d="M43,0V64H63c0,0,25,0,47,4c0,0,21,3,38,16c0,0,15,11,24,32c0,0,8,21,9,58V650c0,0,0,33,-9,55c0,0,-9,20,-25,31c0,0,-16,11,-37,15c0,0,-22,3,-47,4H58v64H298L318,695h7c0,0,23,42,49,70c0,0,25,27,54,43c0,0,28,14,61,21c0,0,31,5,67,5c0,0,36,0,71,-7c0,0,33,-9,62,-24c0,0,28,-17,52,-43c0,0,21,-27,36,-65h13c0,0,23,42,50,70c0,0,27,27,57,43c0,0,30,14,64,21c0,0,32,5,68,5c0,0,59,-1,105,-17c0,0,45,-18,78,-54c0,0,32,-37,49,-93c0,0,17,-58,18,-135V174c0,0,0,-37,9,-58c0,0,9,-21,24,-32c0,0,16,-13,37,-16c0,0,21,-4,47,-4h5V0H1135V527c0,0,0,50,-8,89c0,0,-9,39,-27,66c0,0,-21,26,-50,41c0,0,-32,13,-75,13c0,0,-48,0,-80,-18c0,0,-33,-19,-53,-50c0,0,-21,-31,-28,-72c0,0,-9,-42,-9,-87V174c0,0,0,-37,9,-58c0,0,9,-21,24,-32c0,0,16,-13,38,-16c0,0,21,-4,47,-4h4V0H662V527c0,0,-1,50,-9,89c0,0,-8,39,-27,66c0,0,-20,26,-50,41c0,0,-31,13,-75,13c0,0,-50,0,-83,-20c0,0,-35,-20,-55,-54c0,0,-22,-35,-30,-79c0,0,-9,-45,-9,-94V166c0,0,0,-33,10,-53c0,0,10,-22,27,-32c0,0,16,-10,40,-13c0,0,22,-4,48,-4h5V0Z" 
id="f0_1b"
transform="scale(0.001,-0.001)" />

<path d="M348,79c0,0,46,0,85,15c0,0,36,14,64,42c0,0,25,27,40,66c0,0,14,39,14,87V412H454c0,0,-65,0,-109,-14c0,0,-44,-13,-70,-36c0,0,-27,-25,-39,-59c0,0,-12,-35,-11,-80c0,0,0,-73,30,-108c0,0,29,-36,93,-36ZM313,-14c0,0,-50,0,-94,14c0,0,-44,14,-75,45c0,0,-33,30,-50,77c0,0,-18,47,-18,109c0,0,0,123,87,182c0,0,85,59,261,60H551v93c0,0,0,42,-4,78c0,0,-5,34,-20,60c0,0,-15,26,-42,40c0,0,-28,14,-75,14c0,0,-44,0,-71,-12c0,0,-29,-13,-43,-35c0,0,-16,-23,-21,-53c0,0,-6,-31,-5,-66c0,0,-64,0,-96,21c0,0,-34,21,-34,75c0,0,0,39,22,67c0,0,21,28,60,45c0,0,36,17,87,26c0,0,49,7,107,8c0,0,69,0,122,-13c0,0,52,-15,87,-46c0,0,34,-31,53,-81c0,0,17,-52,17,-124V174c0,0,0,-33,5,-53c0,0,6,-22,17,-34c0,0,10,-12,30,-18c0,0,15,-5,38,-5c2,0,3,0,5,0h4V0H588L564,131H551c0,0,-24,-33,-46,-59c0,0,-22,-27,-49,-46C456,26,429,6,395,-3c0,0,-35,-11,-82,-11Z" 
id="f0_i"
transform="scale(0.001,-0.001)" />

<path d="M20,0V64H40c0,0,25,0,49,4c0,0,22,3,39,16c0,0,17,11,27,32c0,0,10,21,10,58V993c0,0,0,33,-10,54c0,0,-11,21,-27,32c0,0,-18,11,-40,15c0,0,-24,3,-48,3H20v64H309V174c0,0,-1,-37,10,-58c0,0,9,-21,26,-32c0,0,17,-13,41,-16c0,0,22,-4,48,-4h20V0Z" 
id="f0_d"
transform="scale(0.001,-0.001)" />

<path d="M586,481c0,0,0,60,-9,111c0,0,-9,50,-29,85c0,0,-19,36,-51,56c0,0,-33,18,-79,19c0,0,-87,-1,-133,-69c0,0,-46,-69,-46,-202ZM439,-14c0,0,-83,0,-149,27c0,0,-66,28,-112,82c0,0,-46,53,-69,132c0,0,-25,77,-25,177c0,0,0,213,88,322c0,0,88,108,251,108c0,0,73,0,133,-23c0,0,58,-24,100,-69c0,0,41,-46,63,-114c0,0,21,-69,22,-159V399H233c0,0,0,-84,15,-143c0,0,15,-61,44,-99c0,0,28,-40,71,-57c0,0,40,-19,93,-19c1,0,2,0,4,0c0,0,38,0,73,9c0,0,33,9,62,24c0,0,26,14,48,34c0,0,21,18,35,40c0,0,10,-4,20,-19c0,0,9,-15,9,-33c0,0,0,-24,-16,-49c0,0,-17,-27,-50,-50C641,37,607,14,557,0c0,0,-50,-14,-118,-14Z" 
id="f0_4"
transform="scale(0.001,-0.001)" />

<path d="M51,0V64h4c0,0,26,0,49,4c0,0,23,3,40,16c0,0,16,11,27,32c0,0,10,21,10,58V650c0,0,0,33,-10,55c0,0,-11,20,-28,31c0,0,-17,11,-39,15c0,0,-24,3,-49,4H51v64H286L315,668h7c0,0,14,34,31,65c0,0,15,29,39,53c0,0,22,22,56,35c0,0,33,12,84,13c0,0,83,0,124,-29c0,0,41,-30,41,-82c0,0,0,-24,-8,-44c0,0,-9,-20,-25,-34c0,0,-17,-15,-44,-23c0,0,-27,-8,-66,-8c0,0,0,63,-18,92c0,0,-18,27,-62,27c0,0,-29,0,-51,-15c0,0,-22,-18,-39,-43c0,0,-17,-27,-28,-61c0,0,-13,-35,-19,-70c0,0,-8,-37,-10,-73c0,0,-4,-35,-3,-64V166c0,0,0,-33,10,-53c0,0,10,-22,27,-32c0,0,16,-10,40,-13c0,0,22,-4,48,-4h43V0Z" 
id="f0_a"
transform="scale(0.001,-0.001)" />

<path d="M367,-14c0,0,-59,0,-100,13c0,0,-42,10,-69,38c0,0,-27,27,-39,73c0,0,-14,45,-14,112V732H29v61c0,0,28,0,61,11c0,0,32,11,58,37c0,0,26,28,43,68c0,0,15,38,28,98h70V819H489V732H289V217c0,0,-1,-78,32,-115c0,0,30,-36,83,-36c0,0,1,0,1,0c0,0,2,0,6,0c9,0,28,0,45,3c0,0,23,3,47,7V9C503,9,492,4,477,0c0,0,-15,-3,-33,-6c0,0,-20,-5,-39,-6c0,0,-20,-2,-38,-2Z" 
id="f0_m"
transform="scale(0.001,-0.001)" />

<path d="M28,0V64H40c0,0,25,0,49,4c0,0,22,3,39,16c0,0,17,11,27,32c0,0,10,21,10,58V993c0,0,0,33,-10,54c0,0,-11,21,-27,32c0,0,-18,11,-40,15c0,0,-24,3,-48,3H28v64H308V825c0,0,0,-22,0,-43c0,0,-1,-24,-4,-43c0,0,0,-23,0,-44h6c0,0,68,139,225,139c0,0,65,-1,115,-17c0,0,50,-18,85,-54c0,0,34,-37,52,-93c0,0,18,-58,18,-135V174c0,0,0,-37,9,-58c0,0,9,-21,24,-32c0,0,16,-13,38,-16c0,0,21,-4,47,-4h4V0H662V527c0,0,0,50,-9,89c0,0,-10,39,-29,66c0,0,-20,26,-52,41c0,0,-33,13,-78,13c0,0,-49,0,-82,-17c0,0,-35,-18,-58,-50c0,0,-24,-33,-34,-78c0,0,-11,-46,-11,-102V166c0,0,0,-33,10,-53c0,0,10,-22,27,-32c0,0,17,-10,40,-13c0,0,22,-4,48,-4h5V0Z" 
id="f0_h"
transform="scale(0.001,-0.001)" />

<path d="M321,-14c0,0,-58,0,-104,11c0,0,-48,7,-80,29c0,0,-33,20,-50,51c0,0,-18,30,-18,70c0,0,0,30,10,51c0,0,10,20,25,33c0,0,14,11,31,17c0,0,16,4,30,4c0,0,0,-41,8,-75c0,0,8,-36,28,-61c0,0,18,-28,51,-42c0,0,31,-16,78,-16c0,0,41,0,72,11c0,0,31,9,53,28c0,0,21,18,32,44c0,0,11,25,11,56c0,0,0,28,-8,49c0,0,-9,20,-30,38c0,0,-21,17,-58,37c0,0,-37,18,-92,42c0,0,-59,26,-102,51c0,0,-45,23,-72,52c0,0,-29,28,-43,65c0,0,-15,35,-14,86c0,0,-1,52,21,92c0,0,20,40,58,68c0,0,38,26,91,41c0,0,52,15,118,15c0,0,54,0,96,-12c0,0,41,-11,70,-30c0,0,28,-19,43,-44c0,0,14,-27,14,-55c0,0,-1,-42,-28,-66c0,0,-29,-25,-80,-25c-1,0,-2,0,-2,0c0,0,0,76,-32,119c0,0,-32,42,-100,42c0,0,-39,0,-66,-9c0,0,-28,-9,-45,-25c0,0,-18,-17,-26,-39c0,0,-8,-22,-8,-49c0,0,0,-29,10,-50c0,0,10,-22,34,-39c0,0,22,-18,59,-35c0,0,36,-17,86,-38c0,0,60,-26,104,-50c0,0,43,-24,72,-54c0,0,27,-29,41,-65c0,0,13,-37,13,-84c0,0,-1,-60,-21,-105c0,0,-23,-45,-62,-74C539,46,499,14,445,0c0,0,-56,-14,-124,-14Z" 
id="f0_j"
transform="scale(0.001,-0.001)" />

<path d="M442,64c0,0,56,0,97,23c0,0,38,22,64,66c0,0,24,43,36,108c0,0,9,65,10,150c0,0,0,85,-11,149c0,0,-11,64,-36,108c0,0,-25,42,-64,64c0,0,-41,21,-98,21c0,0,-58,0,-97,-21c0,0,-39,-22,-64,-64c0,0,-25,-44,-36,-108c0,0,-11,-64,-11,-149c0,0,0,-85,11,-150c0,0,11,-65,37,-108c0,0,24,-44,65,-66c0,0,38,-23,97,-23Zm-3,-78c0,0,-83,0,-149,25c0,0,-66,26,-111,79c0,0,-47,52,-70,134c0,0,-25,79,-25,187c0,0,0,213,91,319c0,0,90,103,268,104c0,0,82,0,149,-25c0,0,65,-26,111,-79c0,0,46,-53,71,-132c0,0,23,-80,23,-187c0,0,0,-216,-91,-321C706,90,614,-14,439,-14Z" 
id="f0_7"
transform="scale(0.001,-0.001)" />

<path d="M518,83c0,0,50,0,86,21c0,0,35,21,58,63c0,0,23,41,33,104c0,0,10,61,11,142c0,0,-1,80,-11,142c0,0,-10,60,-33,101c0,0,-23,40,-58,60c0,0,-38,20,-88,20c0,0,-60,0,-99,-19c0,0,-41,-20,-64,-61c0,0,-24,-40,-34,-101c0,0,-10,-62,-10,-144c0,0,0,-80,10,-141c0,0,10,-62,35,-103c0,0,23,-42,64,-63c0,0,39,-21,100,-21ZM28,-366v64H40c0,0,25,0,49,4c0,0,22,3,39,16c0,0,17,11,27,33c0,0,10,21,10,58V650c0,0,0,33,-10,55c0,0,-11,20,-27,31c0,0,-18,11,-40,15c0,0,-24,3,-48,4H20v64H287L303,681h6c0,0,16,34,39,63c0,0,21,28,50,49c0,0,27,19,64,31c0,0,36,9,80,10c0,0,75,0,134,-25c0,0,58,-26,98,-76c0,0,38,-53,60,-132c0,0,20,-80,20,-190c0,0,0,-111,-20,-191c0,0,-22,-80,-60,-133c0,0,-40,-53,-98,-77c0,0,-57,-24,-131,-24c-1,0,-2,0,-3,0h-2c-8,0,-46,1,-77,10c0,0,-37,8,-65,26c0,0,-29,18,-50,43c0,0,-23,24,-39,54h-3c0,0,0,-39,0,-73c0,0,0,-15,0,-30c0,0,0,-15,0,-28c0,0,0,-14,0,-24c0,0,0,-11,0,-17V-199c0,0,0,-33,10,-54c0,0,10,-21,28,-31c0,0,17,-11,41,-14c0,0,23,-4,49,-4h5v-64Z" 
id="f0_o"
transform="scale(0.001,-0.001)" />

<path d="M351,-291c2,0,3,0,5,0c0,0,1,0,2,0c12,0,84,1,134,15c0,0,52,13,84,38c0,0,31,23,44,58c0,0,12,34,13,74c0,0,0,35,-10,59c0,0,-11,22,-30,35c0,0,-20,12,-49,17c0,0,-29,5,-67,5H327c0,0,-33,0,-62,-5c0,0,-31,-5,-54,-20c0,0,-24,-17,-38,-44c0,0,-15,-29,-14,-74c0,0,0,-34,9,-63c0,0,9,-29,31,-50c0,0,23,-22,61,-33c0,0,35,-12,91,-12Zm34,658c0,0,1,0,1,0c0,0,37,0,64,11c0,0,24,11,42,35c0,0,15,22,23,59c0,0,7,35,7,86c0,0,0,103,-31,152c0,0,-31,49,-106,49c0,0,-74,0,-105,-50c0,0,-33,-50,-32,-153c0,0,0,-98,32,-143c0,0,32,-46,105,-46ZM353,-366c-8,0,-162,1,-239,59c0,0,-80,59,-79,164c0,0,0,45,16,78c0,0,15,34,42,58c0,0,26,22,61,38c0,0,34,14,72,21c0,0,-16,7,-31,18c0,0,-14,11,-26,27c0,0,-13,16,-20,36c0,0,-8,20,-7,45c0,0,0,45,24,79c0,0,23,32,76,64c0,0,-33,13,-58,37c0,0,-27,23,-44,54c0,0,-18,30,-27,65c0,0,-10,36,-9,74c0,0,0,66,18,119c0,0,18,51,53,89c0,0,36,36,90,56c0,0,53,18,126,19c0,0,28,-1,54,-4c0,0,26,-4,50,-11c0,0,22,-8,41,-16c0,0,18,-9,29,-19c0,0,12,12,27,27c0,0,14,14,33,27c0,0,19,12,41,20c0,0,21,7,47,8c0,0,23,-1,40,-6c0,0,17,-7,28,-17c0,0,11,-11,17,-25c0,0,5,-15,5,-31c0,0,0,-17,-4,-31c0,0,-6,-15,-15,-25c0,0,-10,-12,-25,-17c0,0,-15,-7,-36,-7c0,0,0,9,-2,18c0,0,-3,9,-8,17c0,0,-6,7,-16,13c0,0,-10,4,-25,4c0,0,-19,0,-35,-4c0,0,-16,-5,-31,-14c0,0,26,-33,44,-76c0,0,16,-44,16,-109c0,0,-1,-57,-17,-105c0,0,-17,-48,-51,-82c0,0,-35,-36,-86,-56c0,0,-52,-19,-121,-19H348c0,0,-11,0,-21,1c0,0,-10,1,-15,3c0,0,-15,-9,-29,-17c0,0,-13,-9,-23,-20c0,0,-11,-11,-16,-25c0,0,-6,-15,-6,-32c0,0,-1,-19,7,-29c0,0,7,-12,20,-18c0,0,12,-7,30,-8c0,0,17,-2,38,-2H506c0,0,68,-1,116,-17c0,0,48,-17,78,-47c0,0,30,-32,44,-73c0,0,14,-41,14,-90c0,0,-1,-67,-24,-119c0,0,-25,-53,-75,-89c0,0,-50,-38,-126,-58c0,0,-77,-20,-180,-20Z" 
id="f0_l"
transform="scale(0.001,-0.001)" />

<path d="M35,0V64H55c0,0,25,0,49,4c0,0,22,3,39,13c0,0,17,10,28,32c0,0,10,20,10,53V650c0,0,0,33,-10,55c0,0,-11,20,-28,31c0,0,-17,11,-39,15c0,0,-24,3,-49,4H51v64H324V174c0,0,0,-37,10,-58c0,0,10,-21,27,-32c0,0,16,-13,40,-16c0,0,22,-4,48,-4h20V0ZM249,972c-1,0,-2,0,-3,0c0,0,-1,0,-2,0c-5,0,-20,0,-32,5c0,0,-16,5,-28,16c0,0,-12,11,-18,29c0,0,-7,18,-7,45c0,0,0,27,7,45c0,0,6,17,18,29c0,0,12,11,28,15c0,0,15,5,34,5c0,0,18,0,34,-5c0,0,15,-4,27,-15c0,0,11,-12,19,-29c0,0,7,-18,7,-45c0,0,0,-27,-7,-45c0,0,-8,-18,-19,-29c0,0,-12,-11,-27,-16c0,0,-14,-5,-31,-5Z" 
id="f0_k"
transform="scale(0.001,-0.001)" />

<path d="M43,0V64H55c0,0,26,0,49,4c0,0,23,3,40,16c0,0,16,11,27,32c0,0,10,21,10,58V650c0,0,0,33,-10,55c0,0,-11,20,-28,31c0,0,-17,11,-39,15c0,0,-24,3,-49,4H51v64H298L318,695h7c0,0,23,42,51,70c0,0,25,27,56,43c0,0,29,14,63,21c0,0,32,5,69,5c0,0,60,-1,108,-17c0,0,47,-18,81,-54c0,0,32,-37,50,-93c0,0,17,-58,18,-135V174c0,0,0,-37,9,-58c0,0,7,-21,23,-32c0,0,16,-13,38,-16c0,0,21,-4,47,-4h5V0H677V527c0,0,0,50,-9,89c0,0,-10,39,-29,66c0,0,-20,26,-52,41c0,0,-33,13,-78,13c0,0,-53,0,-88,-20c0,0,-36,-20,-57,-54c0,0,-22,-35,-31,-79c0,0,-10,-45,-9,-94V166c0,0,0,-33,10,-53c0,0,10,-22,27,-32c0,0,16,-10,40,-13c0,0,22,-4,48,-4h5V0Z" 
id="f0_6"
transform="scale(0.001,-0.001)" />

<path d="M433,-14c0,0,-77,0,-141,23c0,0,-64,23,-110,74c0,0,-46,50,-72,130c0,0,-26,79,-26,192c0,0,0,122,26,205c0,0,26,82,72,132c0,0,46,49,108,71c0,0,61,21,134,21c0,0,47,0,96,-9c0,0,47,-10,85,-29c0,0,38,-19,62,-49c0,0,23,-30,24,-69c0,0,0,-54,-35,-74c0,0,-35,-22,-102,-22c0,0,0,35,-6,68c0,0,-6,32,-20,56c0,0,-15,24,-39,38c0,0,-26,14,-65,14c0,0,-44,0,-79,-16c0,0,-35,-18,-61,-57c0,0,-26,-40,-39,-108c0,0,-13,-69,-13,-170c0,0,-1,-164,54,-243c0,0,54,-80,177,-80h1c6,0,72,1,123,30c0,0,52,30,79,77c0,0,11,-10,19,-24c0,0,7,-15,7,-36c0,0,0,-27,-16,-52c0,0,-17,-26,-49,-47C627,32,594,10,546,0c0,0,-48,-14,-113,-14Z" 
id="f0_n"
transform="scale(0.001,-0.001)" />

<path d="M421,83c0,0,59,0,100,20c0,0,39,19,65,60c0,0,23,39,34,101c0,0,10,61,10,144c0,0,0,79,-10,141c0,0,-11,61,-34,103c0,0,-25,41,-65,63c0,0,-41,21,-101,21c0,0,-51,0,-86,-21c0,0,-36,-23,-58,-64c0,0,-24,-42,-34,-103c0,0,-10,-62,-10,-141c0,0,0,-163,44,-244c0,0,43,-80,145,-80ZM395,-14c-8,0,-78,1,-133,24c0,0,-59,24,-98,77c0,0,-39,52,-60,132c0,0,-20,79,-20,189c0,0,0,110,20,191c0,0,21,80,60,133c0,0,39,51,98,77c0,0,58,25,133,25c0,0,44,0,80,-10c0,0,36,-10,65,-27c0,0,28,-18,51,-43c0,0,21,-24,39,-54h4c0,0,0,36,0,70c0,0,0,27,0,57c0,0,0,27,0,41V993c0,0,-1,33,-10,54c0,0,-11,21,-29,32c0,0,-18,11,-41,15c0,0,-24,3,-49,3H492v64H773V168c0,0,0,-34,10,-54c0,0,10,-21,27,-32c0,0,17,-11,40,-14c0,0,22,-4,48,-4h13V0H652L636,137h-6c0,0,-18,-35,-39,-62c0,0,-23,-29,-51,-48C540,27,512,6,476,-3c0,0,-36,-11,-81,-11Z" 
id="f0_s"
transform="scale(0.001,-0.001)" />

<path d="M315,0L115,674c0,0,-9,23,-19,39c0,0,-10,15,-22,26c0,0,-13,8,-29,12c0,0,-17,3,-39,4H1v64H379V755H359c0,0,-46,0,-69,-13c0,0,-24,-15,-23,-51c0,0,0,-13,5,-31c0,0,3,-18,8,-35L351,369c0,0,8,-29,16,-61c0,0,7,-33,16,-65c0,0,6,-33,12,-61c0,0,6,-29,10,-48h5c0,0,3,19,10,46c0,0,5,24,15,55c0,0,7,29,18,60c0,0,9,30,19,58L631,815h96L880,362c0,0,9,-29,20,-59c0,0,9,-33,18,-63c0,0,9,-31,17,-59c0,0,7,-28,11,-47h4c0,0,7,38,22,94c0,0,14,55,38,129l76,247c0,0,5,18,11,41c0,0,3,21,3,35c0,0,0,38,-24,57c0,0,-26,18,-77,18H988v64h327V755h-19c0,0,-23,0,-39,-5c0,0,-17,-5,-29,-17c0,0,-14,-13,-25,-36c0,0,-11,-24,-22,-61L984,0H862L680,538L652,639L436,0Z" 
id="f0_8"
transform="scale(0.001,-0.001)" />

<path d="M417,-14c0,0,-60,0,-107,16c0,0,-47,17,-79,54c0,0,-33,36,-49,93c0,0,-17,57,-17,135V650c0,0,0,33,-10,55c0,0,-11,20,-27,31c0,0,-18,11,-40,15c0,0,-24,3,-48,4H35v64H309V292c0,0,0,-51,8,-89c0,0,7,-40,26,-66c0,0,18,-27,49,-40c0,0,29,-14,74,-14c1,0,2,0,3,0c0,0,50,0,88,18c0,0,35,18,59,50c0,0,23,32,34,78c0,0,12,46,12,101V645c0,0,0,35,-10,58c0,0,-10,21,-27,33c0,0,-17,11,-39,15c0,0,-24,3,-50,4h-4v64H805V166c0,0,0,-33,10,-53c0,0,10,-22,27,-32c0,0,17,-10,41,-13c0,0,21,-4,47,-4h5V0H692L672,124h-7c0,0,-24,-44,-51,-70c0,0,-28,-28,-60,-42c0,0,-31,-15,-65,-20c0,0,-35,-6,-72,-6Z" 
id="f0_c"
transform="scale(0.001,-0.001)" />

<path d="M41,0V64H61c0,0,26,0,49,4c0,0,23,3,40,16c0,0,16,11,27,32c0,0,9,21,9,58V747H47v72H186v76c0,0,0,68,19,121c0,0,19,52,54,88c0,0,34,35,85,55c0,0,50,17,113,17c0,0,58,0,100,-7c0,0,41,-8,67,-22c0,0,24,-15,35,-34c0,0,12,-20,12,-43c0,0,0,-22,-9,-37c0,0,-11,-17,-26,-27c0,0,-18,-11,-40,-16c0,0,-24,-6,-51,-6c0,0,0,23,-4,45c0,0,-6,21,-17,39c0,0,-12,17,-31,28c0,0,-19,10,-48,10c0,0,-34,0,-55,-12c0,0,-22,-13,-36,-38c0,0,-13,-26,-18,-62c0,0,-6,-37,-6,-85V819H545V747H330V174c0,0,0,-37,10,-58c0,0,10,-21,27,-32c0,0,16,-13,40,-16c0,0,22,-4,48,-4h58V0Z" 
id="f0_u"
transform="scale(0.001,-0.001)" />

<path d="M222,-9c-1,0,-2,0,-3,0c0,0,-1,0,-3,0c-6,0,-22,0,-35,5c0,0,-18,4,-30,16c0,0,-14,12,-21,32c0,0,-8,20,-8,49c0,0,0,30,8,50c0,0,7,19,21,32c0,0,12,11,30,17c0,0,17,5,38,5c0,0,18,0,37,-5c0,0,16,-6,30,-17c0,0,12,-13,21,-32c0,0,8,-20,8,-50c0,0,0,-29,-8,-49c0,0,-9,-20,-21,-32C286,12,272,0,256,-4c0,0,-17,-5,-34,-5Z" 
id="f0_p"
transform="scale(0.001,-0.001)" />

<path d="M452,86c0,0,58,0,93,60c0,0,34,59,34,192c0,0,-1,124,-37,181c0,0,-38,57,-103,57c0,0,-22,-1,-44,-6c0,0,-24,-8,-44,-17c0,0,-23,-11,-39,-23c0,0,-18,-14,-28,-27c0,0,0,-110,14,-189c0,0,12,-80,35,-130c0,0,23,-51,53,-74c0,0,30,-24,66,-24ZM448,-14c0,0,-85,0,-155,30c0,0,-71,30,-119,95c0,0,-51,64,-78,162c0,0,-28,97,-27,231c0,0,0,126,26,236c0,0,26,109,81,191c0,0,54,81,136,128c0,0,81,47,192,47c0,0,74,0,126,-14c0,0,50,-15,83,-37c0,0,32,-24,47,-54c0,0,14,-31,14,-63c0,0,0,-24,-9,-45c0,0,-11,-22,-32,-38c0,0,-21,-17,-56,-26c0,0,-33,-10,-80,-10c-2,0,-4,0,-5,0c0,0,0,34,-5,69c0,0,-4,35,-16,64c0,0,-11,27,-31,46c0,0,-20,18,-51,18c0,0,-45,0,-81,-27c0,0,-37,-27,-63,-78c0,0,-27,-52,-43,-126c0,0,-16,-76,-16,-173c0,0,16,10,36,21c0,0,20,10,46,18c0,0,25,8,58,14c0,0,31,4,71,4c0,0,68,-1,125,-21c0,0,55,-22,96,-62c0,0,38,-42,61,-100c0,0,21,-59,21,-133c0,0,0,-82,-22,-149c0,0,-23,-69,-66,-117C712,87,667,39,601,12c0,0,-66,-26,-153,-26Z" 
id="f1_17"
transform="scale(0.001,-0.001)" />

<path d="M232,-11c0,0,-26,0,-49,7c0,0,-24,4,-40,19c0,0,-17,13,-27,37c0,0,-10,23,-9,58c0,0,-1,34,9,59c0,0,10,22,27,37c0,0,16,14,40,20c0,0,23,5,49,6c0,0,25,-1,48,-6c0,0,23,-6,40,-20c0,0,16,-15,28,-37c0,0,9,-25,9,-59c0,0,0,-35,-9,-58c0,0,-12,-24,-28,-37C320,15,303,0,280,-4c0,0,-23,-7,-48,-7Z" 
id="f1_n"
transform="scale(0.001,-0.001)" />

<path d="M674,452L593,703c0,0,-9,25,-16,55c0,0,-10,28,-18,58c0,0,-8,29,-16,60c0,0,-9,29,-14,56c0,0,-7,-24,-16,-51c0,0,-9,-28,-18,-57c0,0,-11,-29,-21,-58c0,0,-10,-29,-19,-56L365,452ZM6,0V81H25c0,0,20,0,37,5c0,0,16,4,31,17c0,0,14,12,28,34c0,0,12,20,26,55l331,899H688L1007,191c0,0,11,-33,24,-53c0,0,12,-22,27,-34c0,0,13,-12,30,-17c0,0,15,-6,32,-6c1,0,2,0,3,0h27V0H646V81h60c0,0,10,0,23,4c0,0,11,2,21,10c0,0,9,7,15,18c0,0,6,12,6,27c0,0,0,19,-4,36c0,0,-5,16,-9,30L704,359H333L289,228c0,0,-7,-20,-12,-44c0,0,-7,-26,-7,-44c0,0,0,-15,6,-26c0,0,5,-11,16,-18c0,0,9,-8,22,-11c0,0,12,-4,25,-4h65V0Z" 
id="f1_12"
transform="scale(0.001,-0.001)" />

<path d="M357,-14c-1,0,-3,0,-4,0c0,0,-83,0,-141,14c0,0,-60,12,-96,36c0,0,-37,23,-53,57c0,0,-17,32,-17,70c0,0,0,37,14,61c0,0,15,22,37,35c0,0,21,12,46,17c0,0,25,3,45,4c0,0,-1,-49,12,-86c0,0,12,-39,33,-64c0,0,21,-27,53,-41c0,0,28,-14,64,-14c1,0,2,0,3,0c0,0,39,0,68,8c0,0,28,7,47,23c0,0,18,14,27,34c0,0,9,17,9,39c0,0,0,25,-9,46c0,0,-10,18,-31,37c0,0,-22,16,-57,34c0,0,-38,16,-91,35c0,0,-62,21,-109,46c0,0,-48,24,-79,56c0,0,-33,30,-50,71c0,0,-17,38,-17,91c0,0,0,60,24,106c0,0,22,46,66,76c0,0,44,30,104,45c0,0,61,14,134,15c0,0,73,0,123,-12c0,0,50,-13,83,-33c0,0,32,-20,47,-45c0,0,14,-26,15,-52c0,0,0,-51,-36,-78c0,0,-37,-27,-120,-27c0,0,0,76,-33,119c0,0,-35,41,-101,41c0,0,-25,0,-47,-6c0,0,-24,-5,-40,-17c0,0,-17,-13,-26,-30c0,0,-11,-18,-11,-41c0,0,-1,-26,10,-44c0,0,9,-20,33,-37c0,0,23,-18,63,-36c0,0,40,-18,103,-39c0,0,50,-18,94,-40c0,0,43,-24,74,-53c0,0,30,-30,48,-67c0,0,16,-39,17,-86c0,0,-1,-65,-22,-114c0,0,-22,-50,-65,-84C598,56,555,21,494,4c0,0,-60,-18,-137,-18Z" 
id="f1_s"
transform="scale(0.001,-0.001)" />

<path d="M574,490c0,0,0,58,-6,105c0,0,-8,45,-22,78c0,0,-15,32,-37,49c0,0,-24,17,-56,17c0,0,-65,0,-103,-63c0,0,-38,-64,-38,-186ZM468,-14c0,0,-98,0,-171,27c0,0,-75,28,-125,82c0,0,-50,54,-75,133c0,0,-26,76,-25,177c0,0,-1,107,25,189c0,0,25,80,74,136c0,0,48,53,119,82c0,0,70,26,161,26c0,0,82,0,149,-23c0,0,65,-24,112,-70c0,0,46,-47,71,-115c0,0,25,-69,25,-159V392H308c0,0,0,-77,15,-132c0,0,14,-55,40,-91c0,0,26,-36,63,-53c0,0,37,-17,85,-17c0,0,1,0,2,0c8,0,41,1,71,10c0,0,34,9,61,26c0,0,28,16,48,40c0,0,21,22,34,48c0,0,41,-22,41,-75c0,0,0,-32,-18,-61c0,0,-18,-31,-55,-53C695,34,658,12,602,0c0,0,-57,-14,-134,-14Z" 
id="f1_5"
transform="scale(0.001,-0.001)" />

<path d="M371,-14c0,0,-52,0,-93,13c0,0,-42,11,-71,40c0,0,-29,27,-44,74c0,0,-16,46,-16,113V715H32v78c0,0,49,0,88,19c0,0,38,19,62,45c0,0,46,49,70,152H379V819H574V715H379V242c0,0,0,-70,24,-102c0,0,22,-32,75,-32c0,0,1,0,2,0c0,0,29,0,57,5c0,0,27,3,51,9V23c0,0,-13,-6,-32,-13C556,10,534,4,508,0c0,0,-28,-7,-62,-10c0,0,-35,-4,-75,-4Z" 
id="f1_4"
transform="scale(0.001,-0.001)" />

<path d="M469,81c0,0,43,0,75,22c0,0,30,21,49,63c0,0,19,41,27,103c0,0,7,61,8,144c0,0,-1,81,-8,144c0,0,-9,60,-28,102c0,0,-20,40,-50,62c0,0,-31,20,-74,20c0,0,-45,0,-75,-20c0,0,-30,-22,-49,-62c0,0,-19,-42,-27,-102c0,0,-8,-63,-8,-144c0,0,0,-83,9,-144c0,0,7,-62,27,-103c0,0,19,-42,50,-63c0,0,29,-22,74,-22Zm-1,-95c0,0,-1,0,-2,0c0,0,-92,0,-165,26c0,0,-73,25,-123,79c0,0,-52,52,-79,134c0,0,-28,80,-27,188c0,0,-1,215,101,320c0,0,101,105,298,105c0,0,91,0,165,-26c0,0,72,-26,123,-79c0,0,50,-53,79,-132c0,0,27,-81,27,-188c0,0,0,-217,-101,-322C764,91,662,-14,468,-14Z" 
id="f1_b"
transform="scale(0.001,-0.001)" />

<path d="M29,0V81H63c0,0,16,0,35,4c0,0,18,3,36,13c0,0,15,10,26,30c0,0,10,19,11,53V715H35V819H171v57c0,0,-1,70,18,127c0,0,18,54,57,94c0,0,37,38,97,58c0,0,59,20,140,20c0,0,74,-1,123,-8c0,0,49,-10,78,-24c0,0,29,-16,42,-36c0,0,12,-21,12,-44c0,0,-1,-52,-46,-75c0,0,-47,-24,-142,-24c0,0,-1,18,-4,40c0,0,-4,21,-13,40c0,0,-9,19,-23,32c0,0,-15,12,-36,12c0,0,-20,0,-32,-10c0,0,-15,-11,-22,-32c0,0,-10,-23,-13,-58c0,0,-3,-35,-3,-85V819H614V715H404V181c0,0,0,-34,11,-53c0,0,9,-20,27,-30c0,0,15,-10,35,-13c0,0,18,-4,35,-4h71V0Z" 
id="f1_e"
transform="scale(0.001,-0.001)" />

<path d="M31,0V81h3c0,0,25,0,47,4c0,0,21,3,38,14c0,0,16,11,25,32c0,0,9,20,9,55V639c0,0,0,32,-8,51c0,0,-8,19,-22,31c0,0,-15,9,-35,14c0,0,-20,3,-45,3H38v81H359L379,710h7c0,0,24,43,50,69c0,0,25,25,54,39c0,0,29,13,62,17c0,0,32,3,68,3c0,0,59,0,106,-17c0,0,47,-17,80,-53c0,0,32,-36,49,-91c0,0,16,-56,17,-133V189c0,0,0,-35,7,-56c0,0,5,-22,18,-33c0,0,12,-12,33,-15c0,0,18,-4,45,-4h4V0H640V503c0,0,-1,48,-6,88c0,0,-7,38,-21,64c0,0,-15,25,-38,40c0,0,-24,14,-57,14c0,0,-38,-1,-64,-20c0,0,-26,-19,-40,-51c0,0,-16,-33,-22,-76c0,0,-7,-44,-7,-90V181c0,0,0,-33,8,-52c0,0,7,-20,22,-30c0,0,13,-11,35,-14c0,0,19,-4,45,-4h5V0Z" 
id="f1_d"
transform="scale(0.001,-0.001)" />

<path d="M38,336V497H436V336Z" 
id="f1_1g"
transform="scale(0.001,-0.001)" />

<path d="M26,0V81H44c0,0,16,0,37,4c0,0,17,3,35,13c0,0,15,10,26,30c0,0,10,19,11,53V645c0,0,-1,29,-11,49c0,0,-11,18,-27,28c0,0,-17,9,-35,13c0,0,-20,3,-36,3H26v81H385V181c0,0,0,-34,11,-53c0,0,10,-20,27,-30c0,0,16,-10,35,-13c0,0,19,-4,36,-4h18V0ZM261,956c0,0,-28,0,-51,7c0,0,-24,7,-41,20c0,0,-18,13,-27,35c0,0,-11,20,-11,49c0,0,0,28,11,50c0,0,9,21,27,34c0,0,17,12,41,19c0,0,23,6,51,6c0,0,25,0,50,-6c0,0,23,-7,42,-19c0,0,18,-13,29,-34c0,0,10,-22,10,-50c0,0,0,-29,-10,-49c0,0,-11,-22,-29,-35c0,0,-19,-13,-42,-20c0,0,-25,-7,-50,-7Z" 
id="f1_7"
transform="scale(0.001,-0.001)" />

<path d="M448,99c0,0,45,0,76,20c0,0,29,18,48,57c0,0,17,38,26,98c0,0,7,57,7,137c0,0,0,75,-7,134c0,0,-9,59,-26,99c0,0,-19,39,-48,60c0,0,-31,20,-76,20c0,0,-38,0,-65,-20c0,0,-29,-21,-44,-61c0,0,-17,-40,-25,-98c0,0,-8,-60,-8,-135c0,0,0,-156,33,-233c0,0,31,-78,109,-78ZM386,-14c-1,0,-3,0,-4,0h-1c-7,0,-77,1,-132,24c0,0,-59,24,-98,77c0,0,-40,52,-60,132c0,0,-22,79,-21,189c0,0,-1,110,21,192c0,0,20,80,60,133c0,0,38,53,97,79c0,0,56,25,131,25c0,0,43,0,78,-9c0,0,35,-10,63,-25c0,0,28,-17,49,-39c0,0,21,-22,37,-49h9c0,0,0,42,-6,79c0,0,0,15,0,33c0,0,0,16,-2,31c0,0,-2,14,-2,25c0,0,0,11,0,18v84c0,0,0,32,-10,51c0,0,-10,18,-27,29c0,0,-17,8,-39,12c0,0,-22,3,-48,3H469v81H837V188c0,0,0,-35,10,-56c0,0,10,-22,29,-32c0,0,16,-12,40,-15c0,0,22,-4,48,-4h6V0H674L631,119H617c0,0,-18,-31,-39,-56c0,0,-23,-25,-51,-41C527,22,498,4,463,-4c0,0,-34,-10,-77,-10Z" 
id="f1_a"
transform="scale(0.001,-0.001)" />

<path d="M451,-14c0,0,-85,0,-154,21c0,0,-71,21,-120,71c0,0,-51,50,-78,131c0,0,-28,80,-27,198c0,0,0,123,29,206c0,0,27,82,79,133c0,0,50,50,118,72c0,0,68,20,148,20c0,0,73,0,131,-11c0,0,56,-14,94,-35c0,0,38,-21,59,-50c0,0,18,-31,19,-64c0,0,-1,-25,-8,-48c0,0,-10,-24,-31,-41c0,0,-22,-18,-60,-30c0,0,-40,-11,-99,-11c0,0,0,39,-4,76c0,0,-6,35,-17,62c0,0,-11,26,-29,44c0,0,-20,15,-49,15c0,0,-34,0,-60,-15c0,0,-26,-18,-45,-56c0,0,-20,-39,-29,-103c0,0,-11,-66,-11,-163c0,0,0,-156,43,-232c0,0,42,-77,137,-77q1,0,2,0h1c8,0,42,1,73,10c0,0,35,9,63,26c0,0,27,16,50,40c0,0,21,22,34,48c0,0,19,-11,28,-30c0,0,9,-19,9,-40c0,0,-1,-29,-17,-59c0,0,-18,-31,-53,-54C677,40,639,15,584,1c0,0,-57,-15,-133,-15Z" 
id="f1_o"
transform="scale(0.001,-0.001)" />

<path d="M392,96c0,0,32,0,60,14c0,0,25,13,46,38c0,0,18,26,29,62c0,0,9,35,9,79V403H468c0,0,-47,-1,-77,-13c0,0,-31,-13,-50,-34c0,0,-19,-22,-27,-53c0,0,-8,-33,-8,-74c0,0,-1,-67,21,-100c0,0,21,-33,65,-33ZM314,-14c-2,0,-3,0,-5,0c0,0,-51,0,-94,14c0,0,-44,15,-76,46c0,0,-33,32,-52,79c0,0,-19,47,-18,111c0,0,-1,125,85,185c0,0,85,61,257,61H536v86c0,0,0,38,-3,71c0,0,-3,32,-12,57c0,0,-11,23,-29,37c0,0,-19,11,-50,12c0,0,-30,0,-49,-12c0,0,-20,-13,-32,-34c0,0,-13,-22,-16,-52c0,0,-6,-31,-6,-67h-1c-11,0,-105,1,-153,24c0,0,-53,23,-52,79c0,0,-1,41,25,71c0,0,24,29,68,49c0,0,43,18,100,27c0,0,57,8,122,8c0,0,80,0,141,-13c0,0,59,-15,100,-45c0,0,38,-30,59,-80c0,0,20,-50,20,-121V189c0,0,0,-31,6,-52c0,0,4,-21,15,-33c0,0,9,-12,28,-17c0,0,15,-6,39,-6c1,0,3,0,4,0h6V0H582L550,105H536c0,0,-26,-30,-47,-53c0,0,-23,-24,-48,-38C441,14,415,0,384,-6c0,0,-30,-8,-70,-8Z" 
id="f1_3"
transform="scale(0.001,-0.001)" />

<path d="M26,0V81H44c0,0,16,0,37,4c0,0,17,3,35,13c0,0,15,10,26,30c0,0,10,19,11,53V987c0,0,-1,30,-11,49c0,0,-11,18,-27,29c0,0,-17,8,-35,12c0,0,-20,3,-36,3H26v81H385V181c0,0,0,-34,11,-53c0,0,10,-20,27,-30c0,0,16,-10,35,-13c0,0,19,-4,36,-4h18V0Z" 
id="f1_8"
transform="scale(0.001,-0.001)" />

<path d="M31,0V81h4c0,0,25,0,48,4c0,0,21,3,37,16c0,0,16,11,25,33c0,0,7,20,8,57V634c0,0,0,33,-8,55c0,0,-8,20,-22,31c0,0,-15,11,-35,15c0,0,-20,3,-45,3H38v81H347L377,700h8c0,0,14,34,33,60c0,0,17,26,43,43c0,0,24,16,59,26c0,0,34,7,81,8c0,0,90,0,132,-31c0,0,43,-33,43,-93c0,0,-1,-71,-51,-109c0,0,-50,-39,-141,-39c0,0,-1,0,-2,0c0,0,-1,32,-4,56c0,0,-4,23,-12,39c0,0,-9,16,-23,24c0,0,-15,8,-36,8c0,0,-28,0,-47,-13c0,0,-20,-14,-33,-34c0,0,-14,-22,-22,-49c0,0,-9,-27,-13,-54c0,0,-6,-28,-6,-52c0,0,0,-25,0,-42V184c0,0,0,-34,9,-54c0,0,7,-22,22,-32c0,0,13,-10,34,-13c0,0,18,-4,41,-4h49V0Z" 
id="f1_6"
transform="scale(0.001,-0.001)" />

<path d="M69,-234v79c0,0,32,11,59,24c0,0,24,11,41,26c0,0,17,14,26,31c0,0,7,16,8,38c0,0,-1,14,-8,24c0,0,-9,9,-20,16c0,0,-13,8,-27,18c0,0,-15,7,-27,21c0,0,-14,14,-21,34c0,0,-8,18,-8,50c0,0,0,51,31,78c0,0,31,27,78,27c0,0,65,0,103,-45c0,0,38,-45,38,-123c0,0,0,-48,-15,-93c0,0,-15,-46,-47,-84c0,0,-33,-40,-85,-70c0,0,-53,-31,-126,-51Z" 
id="f1_15"
transform="scale(0.001,-0.001)" />

<path d="M31,0V81h3c0,0,25,0,47,4c0,0,21,3,38,14c0,0,16,11,25,32c0,0,9,20,9,55V987c0,0,-1,30,-11,49c0,0,-11,18,-27,29c0,0,-17,8,-35,12c0,0,-20,3,-36,3H26v81H383V909c0,0,0,-30,0,-64c0,0,0,-35,-3,-63c0,0,-4,-35,-7,-67h13c0,0,24,43,50,68c0,0,25,24,54,37c0,0,29,12,62,16c0,0,32,2,68,2c0,0,59,0,106,-17c0,0,47,-17,80,-53c0,0,32,-36,49,-91c0,0,16,-56,17,-133V189c0,0,0,-35,7,-56c0,0,5,-22,18,-33c0,0,12,-12,33,-15c0,0,18,-4,45,-4h4V0H640V503c0,0,-1,48,-6,88c0,0,-7,38,-21,64c0,0,-15,25,-38,40c0,0,-24,14,-57,14c0,0,-38,-1,-64,-20c0,0,-26,-19,-40,-51c0,0,-16,-33,-22,-76c0,0,-7,-44,-7,-90V181c0,0,0,-33,8,-52c0,0,7,-20,22,-30c0,0,13,-11,35,-14c0,0,19,-4,45,-4h5V0Z" 
id="f1_v"
transform="scale(0.001,-0.001)" />

<path d="M513,562c8,0,54,1,88,15c0,0,34,14,56,42c0,0,20,28,31,70c0,0,9,41,9,98c0,0,-1,58,-11,98c0,0,-10,41,-33,67c0,0,-22,24,-58,37c0,0,-36,11,-86,11H426V562h87ZM1029,0C1010,0,957,0,917,5c0,0,-52,5,-90,21c0,0,-39,14,-66,42c0,0,-29,27,-52,69L527,474H426V172c0,0,0,-30,7,-47c0,0,5,-20,17,-28c0,0,10,-10,24,-13c0,0,12,-3,26,-3c1,0,3,0,4,0h66V0H43V81h64c0,0,1,0,3,0c5,0,16,1,27,3c0,0,14,3,25,13c0,0,10,8,17,28c0,0,5,17,6,47V917c0,0,-1,30,-6,49c0,0,-7,17,-17,28c0,0,-11,9,-25,13c0,0,-15,3,-30,3H43v81H535c0,0,215,0,318,-73c0,0,100,-73,100,-210c0,0,0,-61,-18,-108c0,0,-17,-47,-47,-82c0,0,-30,-35,-67,-59c0,0,-37,-24,-76,-40L927,206c0,0,19,-33,38,-56c0,0,17,-25,37,-39c0,0,18,-16,37,-22c0,0,17,-8,38,-8c1,0,2,0,3,0h6V0h-50c0,0,-3,0,-7,0Z" 
id="f1_1c"
transform="scale(0.001,-0.001)" />

<path d="M31,0V81h3c0,0,25,0,47,4c0,0,21,3,38,14c0,0,16,11,25,32c0,0,9,20,9,55V643c0,0,0,32,-8,52c0,0,-8,18,-22,30c0,0,-15,10,-35,14c0,0,-20,3,-45,3H38v77H359L379,710h7c0,0,24,43,50,69c0,0,25,25,54,39c0,0,29,13,62,17c0,0,32,3,68,3c0,0,83,0,144,-29c0,0,59,-31,87,-99h14c0,0,22,43,50,69c0,0,27,25,59,39c0,0,29,13,64,17c0,0,34,3,70,3c0,0,59,0,106,-17c0,0,47,-17,80,-53c0,0,32,-36,49,-91c0,0,16,-56,17,-133V189c0,0,0,-35,7,-56c0,0,5,-22,18,-33c0,0,12,-12,32,-15c0,0,19,-4,45,-4h5V0H1127V503c0,0,0,98,-27,152c0,0,-28,54,-94,54c0,0,-36,-1,-62,-17c0,0,-26,-18,-41,-48c0,0,-17,-31,-23,-70c0,0,-9,-41,-8,-84V189c0,0,0,-35,7,-56c0,0,5,-22,18,-33c0,0,12,-12,33,-15c0,0,18,-4,45,-4h4V0H640V503c0,0,-1,48,-6,88c0,0,-7,38,-21,64c0,0,-15,25,-38,40c0,0,-24,14,-57,14c0,0,-38,-1,-64,-20c0,0,-26,-19,-40,-51c0,0,-16,-33,-22,-76c0,0,-7,-44,-7,-90V181c0,0,0,-33,8,-52c0,0,7,-20,22,-30c0,0,13,-11,35,-14c0,0,19,-4,45,-4h5V0Z" 
id="f1_f"
transform="scale(0.001,-0.001)" />

<path d="M304,0L108,657c0,0,-8,23,-18,40c0,0,-10,15,-22,24c0,0,-13,9,-29,13c0,0,-17,3,-39,4H-3v81H443V738H423c0,0,-46,-1,-69,-13c0,0,-24,-13,-23,-51c0,0,0,-13,5,-31c0,0,3,-19,8,-35L401,410c0,0,7,-29,14,-57c0,0,6,-29,12,-57c0,0,6,-28,12,-52c0,0,3,-25,7,-44h5c0,0,6,37,18,79c0,0,11,40,31,97L656,811h99L904,360c0,0,19,-55,27,-93c0,0,7,-39,13,-67h5c0,0,3,19,7,36c0,0,3,17,9,36c0,0,4,19,10,41c0,0,5,21,15,50l67,223c0,0,5,19,11,42c0,0,2,22,3,35c0,0,0,39,-24,57c0,0,-26,18,-77,18H959v81h350V738h-19c0,0,-23,0,-39,-5c0,0,-17,-5,-29,-17c0,0,-13,-13,-24,-36c0,0,-11,-25,-23,-62L978,0H813L646,507L471,0Z" 
id="f1_c"
transform="scale(0.001,-0.001)" />

<path d="M373,0L122,665c0,0,-9,21,-18,35c0,0,-11,15,-26,23c0,0,-15,7,-33,12c0,0,-20,3,-45,3v81H474V738H410c0,0,-24,0,-37,-12c0,0,-15,-14,-14,-37c0,0,-1,-19,5,-36c0,0,5,-19,9,-31L475,333c0,0,18,-49,33,-98c0,0,13,-49,21,-88c0,0,3,18,10,42c0,0,7,23,14,47c0,0,6,21,12,41c0,0,6,18,8,26L677,609c0,0,6,21,12,43c0,0,5,20,5,42c0,0,0,24,-17,35c0,0,-18,9,-43,9H590v81H926V738H895c0,0,-15,-1,-27,-4c0,0,-13,-4,-24,-15c0,0,-13,-13,-23,-33c0,0,-12,-23,-25,-59L574,0Z" 
id="f1_19"
transform="scale(0.001,-0.001)" />

<path d="M15,0V81H26c7,0,29,1,47,8c0,0,20,6,40,21c0,0,18,14,35,34c0,0,16,19,36,44L451,536L198,929c0,0,-12,20,-24,36c0,0,-14,14,-28,25c0,0,-15,9,-34,15c0,0,-19,5,-45,5H47v81H553v-81h-5c0,0,-27,0,-43,-3c0,0,-19,-4,-28,-10c0,0,-12,-7,-14,-15c0,0,-5,-8,-5,-17c0,0,-1,-16,12,-39c0,0,11,-25,28,-50L625,686L758,872c0,0,13,21,28,47c0,0,13,25,13,46c0,0,0,14,-7,23c0,0,-6,8,-18,14c0,0,-12,4,-27,7c0,0,-16,0,-34,1h-4v81h358v-81h-14c0,0,-23,0,-41,-5c0,0,-18,-7,-35,-19c0,0,-18,-13,-36,-34c0,0,-17,-22,-40,-52L680,598L961,162c0,0,29,-47,62,-64c0,0,32,-17,60,-17h20V0H599V81h7c0,0,1,0,1,0c5,0,91,1,91,50c0,0,-1,9,-1,17c0,0,-2,8,-7,20c0,0,-6,10,-16,27c0,0,-10,17,-26,41L507,449L342,226c0,0,-15,-19,-26,-44c0,0,-13,-26,-13,-49c0,0,-1,-26,21,-38c0,0,21,-14,71,-14h6V0Z" 
id="f1_1h"
transform="scale(0.001,-0.001)" />

<path d="M535,95c0,0,77,0,110,77c0,0,32,77,33,233c0,0,-1,152,-33,234c0,0,-34,81,-109,81c0,0,-46,0,-76,-20c0,0,-30,-22,-48,-61c0,0,-18,-40,-26,-98c0,0,-8,-60,-7,-134c0,0,-1,-80,7,-138c0,0,8,-59,26,-97c0,0,17,-40,48,-58c0,0,29,-19,75,-19ZM20,-366v81H38c0,0,16,0,37,4c0,0,18,3,35,13c0,0,15,10,27,30c0,0,9,19,10,53V631c0,0,0,34,-7,56c0,0,-9,21,-22,32c0,0,-15,11,-33,15c0,0,-20,3,-41,4H34v81H333L360,700h7c0,0,16,30,39,54c0,0,21,25,51,43c0,0,27,17,64,27c0,0,36,10,80,10c0,0,75,0,135,-25c0,0,58,-26,97,-77c0,0,39,-53,61,-134c0,0,20,-81,20,-191c0,0,0,-112,-20,-191c0,0,-20,-80,-59,-132C835,84,795,31,739,7c0,0,-56,-25,-129,-25c-1,0,-2,0,-4,0c0,0,-87,0,-141,33c0,0,-55,32,-88,89H367c0,0,3,-35,7,-69c0,0,3,-28,3,-59c0,0,0,-33,0,-56V-185c0,0,0,-34,11,-53c0,0,11,-20,27,-30c0,0,16,-10,36,-13c0,0,18,-4,35,-4h35v-81Z" 
id="f1_u"
transform="scale(0.001,-0.001)" />

<path d="M251,0V81h71c0,0,18,0,35,3c0,0,15,1,28,11c0,0,11,9,19,28c0,0,7,18,7,51V386L128,929c0,0,-11,22,-21,38c0,0,-10,15,-22,25c0,0,-13,9,-27,14c0,0,-15,4,-38,4H0v81H512v-81H486c0,0,-47,0,-69,-19c0,0,-24,-19,-23,-50c0,0,-1,-19,7,-41c0,0,7,-24,16,-43L530,633c0,0,24,-50,40,-86c0,0,14,-37,28,-73c0,0,14,39,36,88c0,0,19,47,46,98l88,183c0,0,16,33,22,57c0,0,4,22,4,35c0,0,0,39,-24,57c0,0,-26,18,-76,18H659v81h400v-81h-30c0,0,-19,0,-32,-5c0,0,-15,-6,-26,-19c0,0,-14,-13,-26,-36c0,0,-13,-24,-31,-59L654,385V176c0,0,0,-34,7,-52c0,0,6,-20,19,-29c0,0,11,-10,26,-11c0,0,15,-3,33,-3h76V0Z" 
id="f1_1i"
transform="scale(0.001,-0.001)" />

<path d="M43,0V81h64c0,0,1,0,3,0c6,0,17,1,27,3c0,0,14,3,26,13c0,0,9,8,16,28c0,0,5,17,6,47V917c0,0,-1,30,-6,49c0,0,-7,17,-16,28c0,0,-12,9,-26,13c0,0,-15,3,-30,3H43v81H893V809H790l-7,74c0,0,-9,61,-37,88c0,0,-31,26,-77,26H426V580H789V490H426V181c0,0,0,-34,7,-53c0,0,5,-20,16,-30c0,0,10,-10,25,-13c0,0,15,-4,32,-4h95V0Z" 
id="f1_1j"
transform="scale(0.001,-0.001)" />

<path d="M540,99c1,0,2,0,2,0c3,0,76,1,109,82c0,0,34,81,34,233c0,0,0,155,-34,234c0,0,-33,76,-110,76c0,0,-46,0,-76,-18c0,0,-30,-20,-47,-58c0,0,-18,-40,-26,-97c0,0,-8,-60,-7,-138c0,0,-1,-76,7,-134c0,0,8,-60,26,-98c0,0,18,-41,48,-61c0,0,29,-21,74,-21ZM610,-14c-1,0,-2,0,-4,0h-1c-9,0,-47,1,-78,10c0,0,-37,8,-64,26c0,0,-30,18,-51,43c0,0,-23,24,-39,54H359L316,0H26V81H37c0,0,20,0,42,4c0,0,20,3,37,15c0,0,17,10,27,32c0,0,10,21,10,56V978c0,0,0,32,-10,53c0,0,-10,19,-26,31c0,0,-17,11,-38,14c0,0,-22,3,-47,4H26v81H383V900c0,0,0,-24,0,-56c0,0,0,-33,-3,-61c0,0,-4,-34,-7,-68h10c0,0,33,56,88,89c0,0,55,32,141,33c0,0,75,0,132,-25c0,0,57,-26,97,-76c0,0,39,-53,59,-132c0,0,20,-81,20,-191c0,0,0,-112,-20,-192c0,0,-22,-81,-61,-133c0,0,-39,-53,-97,-78c0,0,-59,-24,-132,-24Z" 
id="f1_11"
transform="scale(0.001,-0.001)" />

<path d="M373,-11c0,0,-26,0,-49,7c0,0,-24,4,-40,19c0,0,-17,13,-27,37c0,0,-10,23,-9,58c0,0,-1,34,9,59c0,0,10,22,27,37c0,0,16,14,40,20c0,0,23,5,49,6c0,0,25,-1,48,-6c0,0,23,-6,40,-20c0,0,16,-15,28,-37c0,0,9,-25,9,-59c0,0,0,-35,-9,-58c0,0,-12,-24,-28,-37C461,15,444,0,421,-4c0,0,-23,-7,-48,-7ZM328,348L298,536c0,0,65,26,107,62c0,0,41,35,66,76c0,0,24,41,33,85c0,0,9,44,9,91c0,0,0,36,-6,67c0,0,-7,30,-21,52c0,0,-15,21,-38,34c0,0,-24,12,-54,12c0,0,-35,0,-58,-16c0,0,-23,-17,-37,-42c0,0,-15,-27,-20,-61c0,0,-7,-35,-7,-74c0,0,-47,0,-86,7c0,0,-41,7,-68,20c0,0,-29,12,-45,33c0,0,-17,20,-16,47c0,0,0,36,19,70c0,0,19,32,60,56c0,0,39,23,100,38c0,0,62,13,146,13c0,0,81,0,149,-18c0,0,68,-20,119,-56c0,0,50,-37,78,-88c0,0,28,-53,28,-119c0,0,0,-62,-18,-110c0,0,-20,-48,-58,-88c0,0,-38,-41,-94,-74c0,0,-58,-35,-134,-66L421,348Z" 
id="f1_1a"
transform="scale(0.001,-0.001)" />

<path d="M-6,365v90H771V365Z" 
id="f0_1c"
transform="scale(0.001,-0.001)" />

<path d="M12,0V64H22c0,0,26,0,48,6c0,0,20,5,38,18c0,0,17,12,34,33c0,0,17,19,39,50L436,536L184,946c0,0,-29,43,-62,63c0,0,-35,17,-70,17H32v65H446v-65h-4c0,0,-27,0,-44,-3c0,0,-17,-4,-27,-9c0,0,-10,-7,-13,-14c0,0,-4,-9,-4,-18c0,0,0,-8,2,-15c0,0,1,-8,4,-17c0,0,3,-11,11,-24c0,0,7,-14,20,-34L529,669L674,889c0,0,16,26,27,49c0,0,10,23,11,44c0,0,-1,14,-6,23c0,0,-8,7,-17,13c0,0,-12,5,-27,7c0,0,-14,1,-32,1h-5v65H959v-65H946c0,0,-22,0,-40,-5c0,0,-20,-6,-36,-18c0,0,-17,-13,-35,-34c0,0,-20,-22,-41,-52L573,598L854,145c0,0,33,-44,64,-62c0,0,28,-19,57,-19c0,0,1,0,1,0h20V0H583V64h9c0,0,90,0,91,51c0,0,-1,7,-2,16c0,0,-2,8,-7,20c0,0,-6,10,-15,27c0,0,-11,16,-26,42L481,463L312,213c0,0,-7,-11,-14,-22c0,0,-7,-13,-12,-26c0,0,-7,-14,-10,-27c0,0,-4,-15,-4,-26c0,0,0,-27,25,-37c0,0,23,-11,74,-11h5V0Z" 
id="f0_1d"
transform="scale(0.001,-0.001)" />

<path d="M465,553c0,0,67,0,112,15c0,0,44,14,71,44c0,0,26,30,39,75c0,0,11,45,11,104c0,0,-1,61,-12,105c0,0,-14,42,-41,70c0,0,-29,27,-74,40c0,0,-46,12,-110,12H357V553ZM982,0C963,0,909,0,873,5c0,0,-46,5,-79,20c0,0,-32,15,-54,42c0,0,-24,26,-49,70L484,481H357V166c0,0,0,-33,11,-53c0,0,9,-22,27,-32c0,0,16,-10,40,-13c0,0,22,-4,48,-4h20V0H58V64H78c0,0,24,0,48,4c0,0,22,3,40,13c0,0,16,10,27,32c0,0,10,20,10,53V923c0,0,0,33,-10,54c0,0,-11,20,-27,32c0,0,-18,11,-40,14c0,0,-24,3,-48,3H58v65H469c0,0,198,-1,296,-73c0,0,97,-74,97,-222c0,0,-1,-62,-20,-107c0,0,-20,-46,-52,-80c0,0,-33,-33,-72,-55c0,0,-41,-23,-81,-36L847,186c0,0,38,-61,75,-91c0,0,37,-31,85,-31h5V0H990c0,0,-3,0,-8,0Z" 
id="f0_q"
transform="scale(0.001,-0.001)" />

<path d="M38,359V474H436V359Z" 
id="f0_1e"
transform="scale(0.001,-0.001)" />

<path d="M147,0V64H249c0,0,26,0,49,4c0,0,23,3,40,16c0,0,16,11,27,32c0,0,9,21,9,58V976c0,0,-29,-35,-55,-64c0,0,-27,-29,-50,-50c0,0,-24,-22,-46,-32c0,0,-22,-12,-44,-12c0,0,-1,0,-1,0c0,0,-1,0,-1,0c-3,0,-35,0,-55,23c0,0,-21,21,-21,59c0,0,23,5,47,15c0,0,23,7,50,22c0,0,25,13,57,34c0,0,30,18,69,47l107,79h98V174c0,0,-1,-37,10,-58c0,0,9,-21,26,-32c0,0,17,-13,41,-16c0,0,22,-4,48,-4h75V0Z" 
id="f0_12"
transform="scale(0.001,-0.001)" />

<path d="M49,-194v70c0,0,79,47,125,115c0,0,45,66,71,146c0,0,23,79,31,167c0,0,7,88,7,180c0,0,0,90,-7,180c0,0,-8,88,-31,168c0,0,-26,79,-71,146c0,0,-46,66,-125,114v69c0,0,105,-42,180,-101c0,0,75,-60,122,-142c0,0,47,-82,69,-188c0,0,21,-109,22,-246c0,0,-1,-138,-22,-245c0,0,-22,-109,-69,-191c0,0,-47,-82,-122,-141c0,0,-75,-60,-180,-101Z" 
id="f0_1f"
transform="scale(0.001,-0.001)" />

<path d="M243,0V64h35c0,0,25,0,49,4c0,0,22,3,39,13c0,0,17,10,28,32c0,0,10,20,10,53V455L121,946c0,0,-13,21,-24,37c0,0,-11,14,-23,25c0,0,-14,10,-28,14c0,0,-15,4,-34,4H-6v65H413v-65H356c0,0,-22,0,-34,-3c0,0,-13,-4,-21,-11c0,0,-8,-6,-9,-15c0,0,-4,-9,-3,-19c0,0,-1,-22,9,-43c0,0,9,-22,18,-38L429,692c0,0,26,-47,45,-92c0,0,19,-46,32,-82c0,0,6,16,17,36c0,0,10,20,22,44c0,0,12,22,26,47c0,0,13,23,27,47l97,176c0,0,14,25,22,50c0,0,5,22,6,41c0,0,-1,34,-24,51c0,0,-25,16,-68,16H586v65H959v-65H941c0,0,-17,0,-30,-5c0,0,-16,-6,-30,-19c0,0,-15,-15,-31,-37c0,0,-17,-24,-35,-57L558,455V174c0,0,-1,-37,10,-58c0,0,9,-21,27,-32c0,0,16,-13,40,-16c0,0,21,-4,48,-4h35V0Z" 
id="f0_1g"
transform="scale(0.001,-0.001)" />

<path d="M78,0V112L333,407c0,0,61,70,103,126c0,0,40,56,66,106c0,0,25,49,37,97c0,0,11,47,11,100c0,0,0,43,-9,79c0,0,-11,35,-29,61c0,0,-19,25,-48,40c0,0,-31,13,-70,13c0,0,-53,0,-84,-18c0,0,-33,-20,-52,-50c0,0,-19,-31,-25,-73c0,0,-7,-41,-7,-86c0,0,-28,0,-51,4c0,0,-24,4,-42,17c0,0,-18,11,-28,30c0,0,-10,19,-10,48c0,0,0,43,19,82c0,0,19,37,57,65c0,0,36,28,93,43c0,0,56,15,130,15c0,0,72,0,130,-18c0,0,56,-19,97,-51c0,0,41,-34,62,-81c0,0,21,-47,21,-105c0,0,-1,-54,-17,-104c0,0,-18,-52,-50,-104c0,0,-33,-54,-80,-111c0,0,-48,-58,-108,-124L191,122H545c7,0,36,1,56,10c0,0,21,10,36,25c0,0,14,15,22,37c0,0,7,20,13,42l6,28h61V0Z" 
id="f0_w"
transform="scale(0.001,-0.001)" />

<path d="M58,0V64H78c0,0,24,0,48,4c0,0,22,3,40,13c0,0,16,10,27,32c0,0,10,20,10,53V923c0,0,0,33,-10,54c0,0,-11,20,-27,32c0,0,-18,11,-40,14c0,0,-24,3,-48,3H58v65H407L723,217l313,874h339v-65h-20c0,0,-26,0,-48,-3c0,0,-24,-4,-40,-15c0,0,-17,-13,-27,-34c0,0,-11,-21,-10,-57V174c0,0,-1,-37,10,-58c0,0,10,-21,27,-32c0,0,16,-13,40,-16c0,0,22,-4,48,-4h20V0H968V64h6c0,0,24,0,44,4c0,0,20,3,34,13c0,0,14,10,22,29c0,0,8,19,8,50V976L733,0H650L296,974V174c0,0,-1,-37,8,-58c0,0,7,-21,22,-32c0,0,13,-13,35,-16c0,0,19,-4,46,-4h4V0Z" 
id="f0_1h"
transform="scale(0.001,-0.001)" />

<path d="M58,-366v72h1c8,0,79,1,133,23c0,0,55,24,97,64c0,0,39,40,68,95c0,0,26,55,45,118L119,674c0,0,-10,23,-20,39c0,0,-10,14,-21,25c0,0,-13,9,-29,13c0,0,-17,3,-39,4H6v64H373V755h-4c0,0,-47,0,-69,-18c0,0,-24,-18,-23,-56c0,0,-1,-13,3,-25c0,0,2,-14,9,-31L401,353c0,0,9,-27,22,-57c0,0,11,-31,22,-61c0,0,9,-31,18,-57c0,0,7,-28,11,-47h4c0,0,8,34,23,82c0,0,14,48,34,103L637,614c0,0,7,19,11,36c0,0,2,16,2,30c0,0,0,38,-24,57c0,0,-26,18,-76,18h-5v64H863V755h-4c0,0,-23,0,-38,-5c0,0,-18,-6,-30,-18c0,0,-13,-14,-24,-37c0,0,-11,-24,-25,-59L510,-5c0,0,-27,-74,-50,-130c0,0,-25,-56,-50,-95c0,0,-27,-41,-57,-67c0,0,-32,-26,-71,-41c0,0,-40,-17,-91,-22c0,0,-51,-6,-119,-6Z" 
id="f0_1i"
transform="scale(0.001,-0.001)" />

<path d="M480,-194c0,0,-106,41,-180,101c0,0,-75,59,-122,141c0,0,-48,82,-69,191c0,0,-22,107,-22,245c0,0,0,137,22,246c0,0,21,106,69,188c0,0,47,82,122,142c0,0,74,59,180,101v-69c0,0,-79,-48,-125,-114c0,0,-48,-67,-71,-146c0,0,-24,-80,-30,-168c0,0,-9,-90,-8,-180c0,0,-1,-92,8,-180c0,0,6,-88,30,-167c0,0,23,-80,71,-146c0,0,46,-68,125,-115v-70Z" 
id="f0_1j"
transform="scale(0.001,-0.001)" />

<path d="M435,70c9,0,47,1,81,10c0,0,38,8,70,25c0,0,32,16,59,40c0,0,27,22,49,49L356,556c0,0,-35,-20,-63,-43c0,0,-29,-24,-48,-54c0,0,-20,-32,-30,-70c0,0,-11,-40,-11,-88c0,0,0,-56,17,-99c0,0,16,-44,47,-72c0,0,30,-31,71,-45c0,0,41,-15,94,-15h2Zm-4,601c0,0,45,18,79,41c0,0,32,21,54,47c0,0,21,26,32,57c0,0,10,31,10,72c0,0,0,30,-7,56c0,0,-8,26,-24,46c0,0,-17,19,-44,30c0,0,-28,11,-66,11c0,0,-69,-1,-105,-40c0,0,-37,-39,-36,-105c0,0,0,-29,6,-54c0,0,5,-26,19,-50c0,0,12,-26,33,-52c0,0,20,-27,49,-59ZM423,-14c-1,0,-3,0,-4,0c0,0,-1,0,-1,0c-10,0,-95,1,-159,22c0,0,-69,23,-114,66c0,0,-46,41,-67,101c0,0,-23,58,-23,131c0,0,0,65,18,113c0,0,17,47,49,85c0,0,31,35,77,64c0,0,45,27,100,50c0,0,-30,34,-51,67c0,0,-22,31,-36,62c0,0,-15,32,-23,65c0,0,-8,32,-7,70c0,0,-1,50,16,92c0,0,17,40,52,70c0,0,34,29,90,47c0,0,55,15,131,15c0,0,72,0,124,-17c0,0,52,-17,85,-47c0,0,32,-30,47,-69c0,0,14,-41,14,-84c0,0,0,-49,-14,-87c0,0,-15,-38,-45,-70c0,0,-32,-33,-80,-61c0,0,-49,-29,-119,-59L761,318c0,0,11,34,18,70c0,0,7,34,11,69c0,0,4,34,4,67c0,0,0,31,0,59v60h277V579h-14c0,0,-26,0,-50,-3c0,0,-25,-4,-45,-14c0,0,-22,-11,-38,-31c0,0,-18,-21,-27,-56c0,0,-14,-50,-31,-106c0,0,-19,-59,-44,-115L964,101c0,0,10,-11,23,-19c0,0,11,-8,28,-12c0,0,16,-4,38,-4h67V0H876L749,134c0,0,-28,-31,-60,-58c0,0,-34,-28,-74,-48C615,28,574,8,526,-2c0,0,-47,-12,-103,-12Z" 
id="f0_1k"
transform="scale(0.001,-0.001)" />

<path d="M252,0L659,924H257c0,0,-42,0,-63,-19c0,0,-22,-20,-26,-58l-9,-77H71v321H803v-75L382,0Z" 
id="f1_1k"
transform="scale(0.001,-0.001)" />

<path d="M404,-14c0,0,-104,0,-172,18c0,0,-69,19,-110,50c0,0,-42,30,-59,69c0,0,-17,38,-17,75c0,0,0,39,14,67c0,0,15,27,39,44c0,0,23,16,55,24c0,0,30,8,65,8c0,0,0,-66,15,-115c0,0,15,-51,44,-83c0,0,26,-33,66,-50c0,0,37,-17,83,-17c0,0,45,0,80,13c0,0,35,12,60,35c0,0,25,22,37,53c0,0,12,30,13,65c0,0,0,38,-16,69c0,0,-15,30,-47,56c0,0,-33,25,-80,49c0,0,-49,23,-112,50c0,0,-80,32,-134,68c0,0,-56,34,-89,75c0,0,-34,40,-48,87c0,0,-15,47,-15,103c0,0,0,69,28,127c0,0,28,56,79,97c0,0,50,40,118,62c0,0,68,21,150,21c0,0,83,0,145,-13c0,0,61,-15,101,-38c0,0,39,-24,59,-56c0,0,19,-34,20,-70c0,0,0,-27,-11,-50c0,0,-13,-24,-35,-41c0,0,-25,-17,-59,-26c0,0,-34,-10,-78,-10c-2,0,-4,0,-5,0c0,0,-1,32,-8,69c0,0,-10,36,-29,69c0,0,-20,31,-50,52c0,0,-32,21,-75,21c0,0,-31,0,-58,-9c0,0,-29,-9,-48,-27c0,0,-22,-18,-33,-44c0,0,-12,-27,-12,-61c0,0,0,-33,11,-60c0,0,9,-29,39,-56c0,0,27,-28,76,-54c0,0,48,-28,126,-59c0,0,79,-33,134,-66c0,0,54,-33,91,-71c0,0,34,-40,51,-85c0,0,16,-46,16,-102c0,0,0,-74,-29,-135c0,0,-29,-62,-84,-106C706,78,651,34,576,10c0,0,-78,-24,-172,-24Z" 
id="f1_j"
transform="scale(0.001,-0.001)" />

<path d="M394,-14c0,0,-120,0,-183,73c0,0,-64,74,-64,228V630c0,0,-1,32,-6,54c0,0,-7,20,-19,33c0,0,-13,12,-32,16c0,0,-20,5,-47,5H40v81H379V330c0,0,0,-50,6,-89c0,0,5,-40,19,-67c0,0,13,-29,35,-43c0,0,23,-16,56,-16c0,0,1,0,1,0c5,0,38,1,63,16c0,0,25,16,43,47c0,0,16,29,25,73c0,0,7,42,7,96V640c0,0,0,34,-9,53c0,0,-10,19,-24,30c0,0,-15,9,-35,13c0,0,-20,2,-42,2h-5v81H866V178c0,0,0,-34,8,-53c0,0,8,-19,21,-29c0,0,13,-10,32,-12c0,0,16,-3,35,-3c2,0,4,0,6,0h13V0H677L643,108h-7c0,0,-24,-40,-50,-63C586,45,558,19,528,7C528,7,498,-5,464,-9c0,0,-35,-5,-70,-5Z" 
id="f1_m"
transform="scale(0.001,-0.001)" />

<path d="M364,-274c9,0,135,0,195,39c0,0,61,38,61,114c0,0,-1,47,-31,68c0,0,-31,18,-92,19H319c0,0,-24,-1,-47,-4c0,0,-24,-5,-43,-17c0,0,-21,-13,-33,-35c0,0,-12,-24,-12,-60c0,0,0,-65,46,-94c0,0,45,-30,133,-30h1Zm28,653c0,0,30,0,51,13c0,0,20,12,32,35c0,0,11,24,17,57c0,0,5,32,5,74c0,0,0,43,-5,78c0,0,-6,34,-18,59c0,0,-12,23,-32,38c0,0,-21,14,-51,14c0,0,-31,0,-50,-14c0,0,-20,-15,-32,-40c0,0,-13,-26,-18,-60c0,0,-6,-36,-5,-77c0,0,0,-41,6,-73c0,0,5,-32,18,-56c0,0,12,-23,32,-35c0,0,20,-13,50,-13ZM366,-366c-2,0,-4,0,-6,0c-9,0,-183,1,-268,54c0,0,-89,54,-89,159c0,0,0,81,53,126c0,0,52,42,154,50c0,0,-22,8,-41,20c0,0,-21,12,-36,29c0,0,-16,17,-26,38c0,0,-10,21,-9,49c0,0,0,25,10,47c0,0,10,21,28,42c0,0,17,18,43,37c0,0,24,16,54,34c0,0,-34,12,-61,34c0,0,-30,20,-50,51c0,0,-21,29,-32,67c0,0,-13,39,-12,85c0,0,0,133,78,209c0,0,77,73,241,73c0,0,54,0,101,-13c0,0,46,-15,81,-34c0,0,12,14,28,30c0,0,14,14,35,27c0,0,18,12,43,21c0,0,23,8,53,8c0,0,27,0,48,-6c0,0,20,-9,35,-20c0,0,12,-13,20,-27c0,0,7,-16,7,-34c0,0,0,-17,-5,-33c0,0,-6,-17,-17,-28c0,0,-13,-13,-34,-19c0,0,-20,-7,-49,-7c-1,0,-2,0,-4,0c0,0,0,15,-4,27c0,0,-6,12,-14,20c0,0,-9,8,-18,13c0,0,-11,3,-22,4c0,0,-13,0,-27,-5c0,0,-15,-6,-23,-12c0,0,16,-17,29,-38c0,0,14,-23,24,-48c0,0,10,-25,16,-52c0,0,5,-27,6,-56c0,0,0,-58,-18,-106c0,0,-20,-49,-57,-84c0,0,-38,-36,-96,-56c0,0,-59,-21,-138,-21H351c0,0,-13,0,-24,2c0,0,-13,1,-18,2c0,0,-11,-6,-20,-13c0,0,-10,-8,-17,-17c0,0,-9,-11,-13,-22c0,0,-6,-13,-5,-25c0,0,0,-27,20,-38c0,0,17,-12,48,-12c1,0,2,0,3,0H510c0,0,76,0,132,-15c0,0,54,-17,91,-47c0,0,36,-30,53,-73c0,0,17,-43,17,-97c0,0,0,-72,-26,-126c0,0,-27,-56,-82,-94c0,0,-55,-40,-138,-59c0,0,-81,-21,-191,-21Z" 
id="f1_l"
transform="scale(0.001,-0.001)" />

<path d="M41,-366v89c0,0,79,0,136,19c0,0,55,19,95,55c0,0,38,35,64,86c0,0,24,50,43,111L104,665c0,0,-9,21,-20,34c0,0,-12,12,-24,19c0,0,-14,7,-28,9c0,0,-16,1,-32,2v90H436V738c0,0,-45,0,-70,-11c0,0,-27,-13,-27,-46c0,0,0,-13,6,-30c0,0,5,-18,9,-29c0,0,14,-33,29,-69c0,0,13,-39,28,-76c0,0,13,-38,26,-73c0,0,12,-35,23,-62c0,0,10,-29,18,-52c0,0,7,-24,13,-42c0,0,4,-20,7,-35c0,0,3,-18,5,-32c0,0,1,15,6,35c0,0,3,18,9,36c0,0,5,17,11,31c0,0,5,14,7,20L637,602c0,0,2,7,6,18c0,0,2,10,5,20c0,0,2,10,3,20c0,0,1,10,1,17c0,0,0,34,-29,48c0,0,-30,12,-82,13v81H885V738c0,0,-24,0,-41,-5c0,0,-17,-6,-32,-18c0,0,-15,-14,-26,-35c0,0,-12,-21,-24,-53c0,0,-26,-76,-56,-156c0,0,-29,-79,-58,-158c0,0,-30,-80,-59,-158C589,155,559,75,532,0c0,0,-28,-73,-51,-129c0,0,-24,-56,-50,-97c0,0,-27,-42,-59,-68c0,0,-33,-27,-74,-42c0,0,-43,-17,-99,-23c0,0,-57,-7,-132,-7Z" 
id="f1_g"
transform="scale(0.001,-0.001)" />

<path d="M225,0c0,0,2,129,51,312c0,0,48,183,139,352c0,0,91,170,193,286H72v129H780V975C780,975,676,864,573,680C573,680,470,495,414,301C414,301,374,163,363,0Z" 
id="f2_r"
transform="scale(0.001,-0.001)" />


</defs>
</svg>