<?xml version="1.0" encoding="UTF-8" standalone="no"?>
<!DOCTYPE svg PUBLIC "-//W3C//DTD SVG 1.1//EN"
"http://www.w3.org/Graphics/SVG/1.1/DTD/svg11.dtd">
<svg viewBox="0 0 909 1286" version="1.1" xmlns="http://www.w3.org/2000/svg" xmlns:xlink="http://www.w3.org/1999/xlink">
<defs>
<clipPath id="c0_29"><path d="M381.3,503.4v-17h58.3v17Z" /></clipPath>
<clipPath id="c1_29"><path d="M393.1,503.4V484.5h34.1v18.9Z" /></clipPath>
<clipPath id="c2_29"><path d="M382.2,495.7V481.6h56.1v14.1Z" /></clipPath>
<style type="text/css"><![CDATA[
.g0_29{
fill: #FFFFFF;
}
.g1_29{
}
.g2_29{
fill: none;
stroke: #000000;
stroke-width: 0.73333335;
stroke-linecap: round;
stroke-linejoin: round;
}
]]></style>
</defs>
<path fill-rule="evenodd" d="M54.1,68H856.2V96.4H54.1V68l1.5,27H854.7V69.7H55.6V95L54.1,68Z" class="g0_29" />
<path fill-rule="evenodd" d="M55.6,93.3H855.1v3H55.6v-3Z" class="g1_29" />
<path fill-rule="evenodd" d="M55.6,68.2H855.1v3.1H55.6V68.2Z" class="g1_29" />
<g fill="#000000" >
<use xlink:href="#f0_1d" transform="matrix(10,0,0,10,61.2,86.7)" />
<use xlink:href="#f0_11" transform="matrix(10,0,0,10,75.9,86.7)" />
<use xlink:href="#f0_17" transform="matrix(10,0,0,10,87.3,86.7)" />
<use xlink:href="#f0_1e" transform="matrix(10,0,0,10,99.7,86.7)" />
<use xlink:href="#f0_15" transform="matrix(10,0,0,10,110.9,86.7)" />
<use xlink:href="#f0_1k" transform="matrix(10,0,0,10,122.3,86.7)" />
<use xlink:href="#f0_19" transform="matrix(10,0,0,10,133.5,86.7)" />
<use xlink:href="#f0_1j" transform="matrix(10,0,0,10,139.9,86.7)" />
<use xlink:href="#f0_1d" transform="matrix(10,0,0,10,150.1,86.7)" />
</g>
<path fill-rule="evenodd" d="M55,1176.4H855.9v2.4H55v-2.4Z" class="g1_29" />
<path fill-rule="evenodd" d="M453.9,1176.3V109.8h1.7V1176.3h-1.7Z" class="g1_29" />
<image preserveAspectRatio="none" x="74" y="122" width="352" height="213" xlink:href="img/1.png" />
<g fill="#000000" >
<use xlink:href="#f1_m" transform="matrix(10,0,0,10,55,366.8)" />
<use xlink:href="#f1_m" transform="matrix(10,0,0,10,62.7,366.8)" />
<use xlink:href="#f1_i" transform="matrix(10,0,0,10,70.4,366.8)" />
<use xlink:href="#f2_19" transform="matrix(10,0,0,10,89.5,366.8)" />
<use xlink:href="#f2_22" transform="matrix(10,0,0,10,94.6,366.8)" />
<use xlink:href="#f2_1x" transform="matrix(10,0,0,10,102.5,366.8)" />
<use xlink:href="#f2_2f" transform="matrix(10,0,0,10,112,366.8)" />
<use xlink:href="#f2_2g" transform="matrix(10,0,0,10,118.1,366.8)" />
<use xlink:href="#f2_2e" transform="matrix(10,0,0,10,122.1,366.8)" />
<use xlink:href="#f2_1x" transform="matrix(10,0,0,10,127.2,366.8)" />
<use xlink:href="#f2_25" transform="matrix(10,0,0,10,134.2,366.8)" />
<use xlink:href="#f2_23" transform="matrix(10,0,0,10,138.2,366.8)" />
<use xlink:href="#f2_24" transform="matrix(10,0,0,10,145.9,366.8)" />
<use xlink:href="#f2_2g" transform="matrix(10,0,0,10,153.3,366.8)" />
<use xlink:href="#f2_1z" transform="matrix(10,0,0,10,160.8,366.8)" />
<use xlink:href="#f2_2h" transform="matrix(10,0,0,10,167.6,366.8)" />
<use xlink:href="#f2_2e" transform="matrix(10,0,0,10,174.9,366.8)" />
<use xlink:href="#f2_2e" transform="matrix(10,0,0,10,180.2,366.8)" />
<use xlink:href="#f2_21" transform="matrix(10,0,0,10,185.4,366.8)" />
<use xlink:href="#f2_2a" transform="matrix(10,0,0,10,192.1,366.8)" />
<use xlink:href="#f2_2g" transform="matrix(10,0,0,10,199.5,366.8)" />
<use xlink:href="#f2_1z" transform="matrix(10,0,0,10,206.6,366.8)" />
<use xlink:href="#f2_1x" transform="matrix(10,0,0,10,213.6,366.8)" />
<use xlink:href="#f2_2e" transform="matrix(10,0,0,10,220.4,366.8)" />
<use xlink:href="#f2_2e" transform="matrix(10,0,0,10,225.3,366.8)" />
<use xlink:href="#f2_2l" transform="matrix(10,0,0,10,230.7,366.8)" />
<use xlink:href="#f2_25" transform="matrix(10,0,0,10,238,366.8)" />
<use xlink:href="#f2_2a" transform="matrix(10,0,0,10,242.2,366.8)" />
<use xlink:href="#f2_23" transform="matrix(10,0,0,10,249.5,366.8)" />
<use xlink:href="#f2_2j" transform="matrix(10,0,0,10,260.2,366.8)" />
<use xlink:href="#f2_25" transform="matrix(10,0,0,10,270.8,366.8)" />
<use xlink:href="#f2_2e" transform="matrix(10,0,0,10,275,366.8)" />
<use xlink:href="#f2_21" transform="matrix(10,0,0,10,280,366.8)" />
<use xlink:href="#f2_25" transform="matrix(10,0,0,10,289.7,366.8)" />
<use xlink:href="#f2_2f" transform="matrix(10,0,0,10,294.1,366.8)" />
<use xlink:href="#f2_2c" transform="matrix(10,0,0,10,302.9,366.8)" />
<use xlink:href="#f2_28" transform="matrix(10,0,0,10,310.4,366.8)" />
<use xlink:href="#f2_1x" transform="matrix(10,0,0,10,314.6,366.8)" />
<use xlink:href="#f2_1z" transform="matrix(10,0,0,10,321.6,366.8)" />
<use xlink:href="#f2_21" transform="matrix(10,0,0,10,328.4,366.8)" />
<use xlink:href="#f2_20" transform="matrix(10,0,0,10,335.2,366.8)" />
<use xlink:href="#f2_1x" transform="matrix(10,0,0,10,345.8,366.8)" />
<use xlink:href="#f2_28" transform="matrix(10,0,0,10,352.6,366.8)" />
<use xlink:href="#f2_2b" transform="matrix(10,0,0,10,356.8,366.8)" />
<use xlink:href="#f2_2a" transform="matrix(10,0,0,10,364.3,366.8)" />
<use xlink:href="#f2_23" transform="matrix(10,0,0,10,372,366.8)" />
<use xlink:href="#f2_2g" transform="matrix(10,0,0,10,382.6,366.8)" />
<use xlink:href="#f2_24" transform="matrix(10,0,0,10,386.7,366.8)" />
<use xlink:href="#f2_21" transform="matrix(10,0,0,10,394.4,366.8)" />
<use xlink:href="#f2_1x" transform="matrix(10,0,0,10,403.9,366.8)" />
<use xlink:href="#f2_2k" transform="matrix(10,0,0,10,410.9,366.8)" />
<use xlink:href="#f2_25" transform="matrix(10,0,0,10,418.2,366.8)" />
<use xlink:href="#f2_2f" transform="matrix(10,0,0,10,422.4,366.8)" />
<use xlink:href="#f2_2b" transform="matrix(10,0,0,10,431.4,366.8)" />
<use xlink:href="#f2_22" transform="matrix(10,0,0,10,439.1,366.8)" />
<use xlink:href="#f2_1x" transform="matrix(10,0,0,10,89.5,386.6)" />
<use xlink:href="#f2_1z" transform="matrix(10,0,0,10,99.9,386.6)" />
<use xlink:href="#f2_2h" transform="matrix(10,0,0,10,106.7,386.6)" />
<use xlink:href="#f2_2e" transform="matrix(10,0,0,10,114,386.6)" />
<use xlink:href="#f2_2e" transform="matrix(10,0,0,10,119.4,386.6)" />
<use xlink:href="#f2_21" transform="matrix(10,0,0,10,124.5,386.6)" />
<use xlink:href="#f2_2a" transform="matrix(10,0,0,10,131.3,386.6)" />
<use xlink:href="#f2_2g" transform="matrix(10,0,0,10,138.6,386.6)" />
<use xlink:href="#f2_1z" transform="matrix(10,0,0,10,146.5,386.6)" />
<use xlink:href="#f2_1x" transform="matrix(10,0,0,10,153.5,386.6)" />
<use xlink:href="#f2_2e" transform="matrix(10,0,0,10,160.1,386.6)" />
<use xlink:href="#f2_2e" transform="matrix(10,0,0,10,165.4,386.6)" />
<use xlink:href="#f2_2l" transform="matrix(10,0,0,10,170.5,386.6)" />
<use xlink:href="#f2_25" transform="matrix(10,0,0,10,177.8,386.6)" />
<use xlink:href="#f2_2a" transform="matrix(10,0,0,10,181.9,386.6)" />
<use xlink:href="#f2_23" transform="matrix(10,0,0,10,189.6,386.6)" />
<use xlink:href="#f2_1z" transform="matrix(10,0,0,10,200.4,386.6)" />
<use xlink:href="#f2_2b" transform="matrix(10,0,0,10,207.4,386.6)" />
<use xlink:href="#f2_25" transform="matrix(10,0,0,10,214.9,386.6)" />
<use xlink:href="#f2_28" transform="matrix(10,0,0,10,219.1,386.6)" />
<use xlink:href="#f2_2g" transform="matrix(10,0,0,10,227,386.6)" />
<use xlink:href="#f2_24" transform="matrix(10,0,0,10,231.2,386.6)" />
<use xlink:href="#f2_21" transform="matrix(10,0,0,10,238.9,386.6)" />
<use xlink:href="#f2_2a" transform="matrix(10,0,0,10,245.7,386.6)" />
<use xlink:href="#f2_25" transform="matrix(10,0,0,10,256.7,386.6)" />
<use xlink:href="#f2_2g" transform="matrix(10,0,0,10,260.9,386.6)" />
<use xlink:href="#f2_2j" transform="matrix(10,0,0,10,268.8,386.6)" />
<use xlink:href="#f2_25" transform="matrix(10,0,0,10,279.4,386.6)" />
<use xlink:href="#f2_28" transform="matrix(10,0,0,10,283.7,386.6)" />
<use xlink:href="#f2_28" transform="matrix(10,0,0,10,288.1,386.6)" />
<use xlink:href="#f2_2a" transform="matrix(10,0,0,10,295.8,386.6)" />
<use xlink:href="#f2_2b" transform="matrix(10,0,0,10,303.1,386.6)" />
<use xlink:href="#f2_2g" transform="matrix(10,0,0,10,311,386.6)" />
<use xlink:href="#f2_21" transform="matrix(10,0,0,10,318.9,386.6)" />
<use xlink:href="#f2_2k" transform="matrix(10,0,0,10,325.6,386.6)" />
<use xlink:href="#f2_2c" transform="matrix(10,0,0,10,333,386.6)" />
<use xlink:href="#f2_21" transform="matrix(10,0,0,10,340.9,386.6)" />
<use xlink:href="#f2_2e" transform="matrix(10,0,0,10,347.6,386.6)" />
<use xlink:href="#f2_25" transform="matrix(10,0,0,10,352.8,386.6)" />
<use xlink:href="#f2_21" transform="matrix(10,0,0,10,357,386.6)" />
<use xlink:href="#f2_2a" transform="matrix(10,0,0,10,363.8,386.6)" />
<use xlink:href="#f2_1z" transform="matrix(10,0,0,10,371.3,386.6)" />
<use xlink:href="#f2_21" transform="matrix(10,0,0,10,377.9,386.6)" />
<use xlink:href="#f2_29" transform="matrix(10,0,0,10,388.5,386.6)" />
<use xlink:href="#f2_1x" transform="matrix(10,0,0,10,400,386.6)" />
<use xlink:href="#f2_23" transform="matrix(10,0,0,10,406.8,386.6)" />
<use xlink:href="#f2_2a" transform="matrix(10,0,0,10,414.2,386.6)" />
<use xlink:href="#f2_21" transform="matrix(10,0,0,10,421.9,386.6)" />
<use xlink:href="#f2_2g" transform="matrix(10,0,0,10,428.6,386.6)" />
<use xlink:href="#f2_25" transform="matrix(10,0,0,10,432.9,386.6)" />
<use xlink:href="#f2_1z" transform="matrix(10,0,0,10,437.1,386.6)" />
<use xlink:href="#f2_22" transform="matrix(10,0,0,10,89.5,406.6)" />
<use xlink:href="#f2_2b" transform="matrix(10,0,0,10,94.4,406.6)" />
<use xlink:href="#f2_2e" transform="matrix(10,0,0,10,101.9,406.6)" />
<use xlink:href="#f2_1z" transform="matrix(10,0,0,10,106.9,406.6)" />
<use xlink:href="#f2_21" transform="matrix(10,0,0,10,113.9,406.6)" />
<use xlink:href="#f2_1y" transform="matrix(10,0,0,10,123.2,406.6)" />
<use xlink:href="#f2_21" transform="matrix(10,0,0,10,131.1,406.6)" />
<use xlink:href="#f2_1z" transform="matrix(10,0,0,10,137.5,406.6)" />
<use xlink:href="#f2_1x" transform="matrix(10,0,0,10,144.5,406.6)" />
<use xlink:href="#f2_2h" transform="matrix(10,0,0,10,150.9,406.6)" />
<use xlink:href="#f2_2f" transform="matrix(10,0,0,10,158.6,406.6)" />
<use xlink:href="#f2_21" transform="matrix(10,0,0,10,164.3,406.6)" />
<use xlink:href="#f2_29" transform="matrix(10,0,0,10,173.8,406.6)" />
<use xlink:href="#f2_1x" transform="matrix(10,0,0,10,185.4,406.6)" />
<use xlink:href="#f2_23" transform="matrix(10,0,0,10,192.1,406.6)" />
<use xlink:href="#f2_2a" transform="matrix(10,0,0,10,199.7,406.6)" />
<use xlink:href="#f2_21" transform="matrix(10,0,0,10,207,406.6)" />
<use xlink:href="#f2_2g" transform="matrix(10,0,0,10,213.6,406.6)" />
<use xlink:href="#f2_25" transform="matrix(10,0,0,10,217.8,406.6)" />
<use xlink:href="#f2_1z" transform="matrix(10,0,0,10,222,406.6)" />
<use xlink:href="#f2_22" transform="matrix(10,0,0,10,231.4,406.6)" />
<use xlink:href="#f2_25" transform="matrix(10,0,0,10,236.5,406.6)" />
<use xlink:href="#f2_21" transform="matrix(10,0,0,10,240.4,406.6)" />
<use xlink:href="#f2_28" transform="matrix(10,0,0,10,247.3,406.6)" />
<use xlink:href="#f2_20" transform="matrix(10,0,0,10,251.4,406.6)" />
<use xlink:href="#f2_2c" transform="matrix(10,0,0,10,261.8,406.6)" />
<use xlink:href="#f2_2e" transform="matrix(10,0,0,10,269.3,406.6)" />
<use xlink:href="#f2_2b" transform="matrix(10,0,0,10,274.5,406.6)" />
<use xlink:href="#f2_20" transform="matrix(10,0,0,10,282.4,406.6)" />
<use xlink:href="#f2_2h" transform="matrix(10,0,0,10,289.7,406.6)" />
<use xlink:href="#f2_1z" transform="matrix(10,0,0,10,297.4,406.6)" />
<use xlink:href="#f2_21" transform="matrix(10,0,0,10,304.2,406.6)" />
<use xlink:href="#f2_20" transform="matrix(10,0,0,10,310.6,406.6)" />
<use xlink:href="#f2_1y" transform="matrix(10,0,0,10,321.2,406.6)" />
<use xlink:href="#f2_2l" transform="matrix(10,0,0,10,328.8,406.6)" />
<use xlink:href="#f2_2g" transform="matrix(10,0,0,10,339.2,406.6)" />
<use xlink:href="#f2_24" transform="matrix(10,0,0,10,343.1,406.6)" />
<use xlink:href="#f2_21" transform="matrix(10,0,0,10,350.8,406.6)" />
<use xlink:href="#f2_1z" transform="matrix(10,0,0,10,360.1,406.6)" />
<use xlink:href="#f2_2b" transform="matrix(10,0,0,10,366.7,406.6)" />
<use xlink:href="#f2_25" transform="matrix(10,0,0,10,374.6,406.6)" />
<use xlink:href="#f2_28" transform="matrix(10,0,0,10,378.4,406.6)" />
<use xlink:href="#f2_25" transform="matrix(10,0,0,10,385.4,406.6)" />
<use xlink:href="#f2_2f" transform="matrix(10,0,0,10,389.6,406.6)" />
<use xlink:href="#f2_2c" transform="matrix(10,0,0,10,398.4,406.6)" />
<use xlink:href="#f2_1x" transform="matrix(10,0,0,10,405.9,406.6)" />
<use xlink:href="#f2_2e" transform="matrix(10,0,0,10,412.9,406.6)" />
<use xlink:href="#f2_1x" transform="matrix(10,0,0,10,417.8,406.6)" />
<use xlink:href="#f2_28" transform="matrix(10,0,0,10,424.6,406.6)" />
<use xlink:href="#f2_28" transform="matrix(10,0,0,10,428.6,406.6)" />
<use xlink:href="#f2_21" transform="matrix(10,0,0,10,432.9,406.6)" />
<use xlink:href="#f2_28" transform="matrix(10,0,0,10,439.6,406.6)" />
<use xlink:href="#f2_2g" transform="matrix(10,0,0,10,89.5,426.4)" />
<use xlink:href="#f2_2b" transform="matrix(10,0,0,10,93.7,426.4)" />
<use xlink:href="#f2_2g" transform="matrix(10,0,0,10,104.5,426.4)" />
<use xlink:href="#f2_24" transform="matrix(10,0,0,10,108.7,426.4)" />
<use xlink:href="#f2_21" transform="matrix(10,0,0,10,116.4,426.4)" />
<use xlink:href="#f2_2j" transform="matrix(10,0,0,10,126.3,426.4)" />
<use xlink:href="#f2_25" transform="matrix(10,0,0,10,137,426.4)" />
<use xlink:href="#f2_2e" transform="matrix(10,0,0,10,141.2,426.4)" />
<use xlink:href="#f2_21" transform="matrix(10,0,0,10,146.5,426.4)" />
<use xlink:href="#f2_i" transform="matrix(10,0,0,10,153.3,426.4)" />
<use xlink:href="#f1_m" transform="matrix(10,0,0,10,55,451.5)" />
<use xlink:href="#f1_n" transform="matrix(10,0,0,10,62.7,451.5)" />
<use xlink:href="#f1_i" transform="matrix(10,0,0,10,70.4,451.5)" />
<use xlink:href="#f2_1k" transform="matrix(10,0,0,10,89.5,451.5)" />
<use xlink:href="#f2_24" transform="matrix(10,0,0,10,99,451.5)" />
<use xlink:href="#f2_21" transform="matrix(10,0,0,10,106.3,451.5)" />
<use xlink:href="#f2_22" transform="matrix(10,0,0,10,116.8,451.5)" />
<use xlink:href="#f2_2b" transform="matrix(10,0,0,10,121.6,451.5)" />
<use xlink:href="#f2_2e" transform="matrix(10,0,0,10,129.4,451.5)" />
<use xlink:href="#f2_1z" transform="matrix(10,0,0,10,134.4,451.5)" />
<use xlink:href="#f2_21" transform="matrix(10,0,0,10,141.4,451.5)" />
<use xlink:href="#f2_1x" transform="matrix(10,0,0,10,151.8,451.5)" />
<use xlink:href="#f2_1z" transform="matrix(10,0,0,10,158.6,451.5)" />
<use xlink:href="#f2_2g" transform="matrix(10,0,0,10,165.4,451.5)" />
<use xlink:href="#f2_25" transform="matrix(10,0,0,10,169.4,451.5)" />
<use xlink:href="#f2_2a" transform="matrix(10,0,0,10,173.6,451.5)" />
<use xlink:href="#f2_23" transform="matrix(10,0,0,10,181.3,451.5)" />
<use xlink:href="#f2_2b" transform="matrix(10,0,0,10,192.2,451.5)" />
<use xlink:href="#f2_2a" transform="matrix(10,0,0,10,200,451.5)" />
<use xlink:href="#f2_1x" transform="matrix(10,0,0,10,211,451.5)" />
<use xlink:href="#f2_1z" transform="matrix(10,0,0,10,221.5,451.5)" />
<use xlink:href="#f2_2h" transform="matrix(10,0,0,10,228.3,451.5)" />
<use xlink:href="#f2_2e" transform="matrix(10,0,0,10,235.6,451.5)" />
<use xlink:href="#f2_2i" transform="matrix(10,0,0,10,240.9,451.5)" />
<use xlink:href="#f2_21" transform="matrix(10,0,0,10,248.3,451.5)" />
<use xlink:href="#f2_20" transform="matrix(10,0,0,10,255.2,451.5)" />
<use xlink:href="#f2_2j" transform="matrix(10,0,0,10,266.2,451.5)" />
<use xlink:href="#f2_25" transform="matrix(10,0,0,10,276.9,451.5)" />
<use xlink:href="#f2_2e" transform="matrix(10,0,0,10,281.1,451.5)" />
<use xlink:href="#f2_21" transform="matrix(10,0,0,10,286.4,451.5)" />
<use xlink:href="#f2_26" transform="matrix(10,0,0,10,296.7,451.5)" />
<use xlink:href="#f2_2b" transform="matrix(10,0,0,10,301.1,451.5)" />
<use xlink:href="#f2_25" transform="matrix(10,0,0,10,308.9,451.5)" />
<use xlink:href="#f2_2a" transform="matrix(10,0,0,10,313,451.5)" />
<use xlink:href="#f2_25" transform="matrix(10,0,0,10,320.7,451.5)" />
<use xlink:href="#f2_2a" transform="matrix(10,0,0,10,324.9,451.5)" />
<use xlink:href="#f2_23" transform="matrix(10,0,0,10,332.2,451.5)" />
<use xlink:href="#f2_2c" transform="matrix(10,0,0,10,343.2,451.5)" />
<use xlink:href="#f2_2b" transform="matrix(10,0,0,10,350.9,451.5)" />
<use xlink:href="#f2_25" transform="matrix(10,0,0,10,358.8,451.5)" />
<use xlink:href="#f2_2a" transform="matrix(10,0,0,10,362.9,451.5)" />
<use xlink:href="#f2_2g" transform="matrix(10,0,0,10,370.6,451.5)" />
<use xlink:href="#f2_2f" transform="matrix(10,0,0,10,374.6,451.5)" />
<use xlink:href="#f2_1x" transform="matrix(10,0,0,10,384.1,451.5)" />
<use xlink:href="#f2_1x" transform="matrix(10,0,0,10,394.5,451.5)" />
<use xlink:href="#f2_2a" transform="matrix(10,0,0,10,401.3,451.5)" />
<use xlink:href="#f2_20" transform="matrix(10,0,0,10,408.7,451.5)" />
<use xlink:href="#f2_1y" transform="matrix(10,0,0,10,420.2,451.5)" />
<use xlink:href="#f2_1x" transform="matrix(10,0,0,10,431.2,451.5)" />
<use xlink:href="#f2_2f" transform="matrix(10,0,0,10,438.2,451.5)" />
<use xlink:href="#f2_2f" transform="matrix(10,0,0,10,89.5,471.5)" />
<use xlink:href="#f2_24" transform="matrix(10,0,0,10,95.3,471.5)" />
<use xlink:href="#f2_2b" transform="matrix(10,0,0,10,102.7,471.5)" />
<use xlink:href="#f2_2j" transform="matrix(10,0,0,10,110.5,471.5)" />
<use xlink:href="#f2_2a" transform="matrix(10,0,0,10,121.2,471.5)" />
<use xlink:href="#f2_25" transform="matrix(10,0,0,10,133.5,471.5)" />
<use xlink:href="#f2_2a" transform="matrix(10,0,0,10,137.7,471.5)" />
<use xlink:href="#f2_2g" transform="matrix(10,0,0,10,150.1,471.5)" />
<use xlink:href="#f2_24" transform="matrix(10,0,0,10,154.4,471.5)" />
<use xlink:href="#f2_21" transform="matrix(10,0,0,10,162.1,471.5)" />
<use xlink:href="#f2_22" transform="matrix(10,0,0,10,173.6,471.5)" />
<use xlink:href="#f2_25" transform="matrix(10,0,0,10,178.8,471.5)" />
<use xlink:href="#f2_23" transform="matrix(10,0,0,10,182.8,471.5)" />
<use xlink:href="#f2_2h" transform="matrix(10,0,0,10,190.5,471.5)" />
<use xlink:href="#f2_2e" transform="matrix(10,0,0,10,197.8,471.5)" />
<use xlink:href="#f2_21" transform="matrix(10,0,0,10,203.1,471.5)" />
<use xlink:href="#f2_25" transform="matrix(10,0,0,10,214.9,471.5)" />
<use xlink:href="#f2_2f" transform="matrix(10,0,0,10,218.9,471.5)" />
<use xlink:href="#f2_2g" transform="matrix(10,0,0,10,229.7,471.5)" />
<use xlink:href="#f2_24" transform="matrix(10,0,0,10,233.9,471.5)" />
<use xlink:href="#f2_21" transform="matrix(10,0,0,10,241.6,471.5)" />
<use xlink:href="#f2_2f" transform="matrix(10,0,0,10,253.2,471.5)" />
<use xlink:href="#f2_1x" transform="matrix(10,0,0,10,259.1,471.5)" />
<use xlink:href="#f2_29" transform="matrix(10,0,0,10,266,471.5)" />
<use xlink:href="#f2_21" transform="matrix(10,0,0,10,277.6,471.5)" />
<use xlink:href="#f2_1x" transform="matrix(10,0,0,10,289.3,471.5)" />
<use xlink:href="#f2_2f" transform="matrix(10,0,0,10,296.1,471.5)" />
<use xlink:href="#f2_2g" transform="matrix(10,0,0,10,306.9,471.5)" />
<use xlink:href="#f2_24" transform="matrix(10,0,0,10,311.1,471.5)" />
<use xlink:href="#f2_1x" transform="matrix(10,0,0,10,318.8,471.5)" />
<use xlink:href="#f2_2g" transform="matrix(10,0,0,10,325.6,471.5)" />
<use xlink:href="#f2_2b" transform="matrix(10,0,0,10,334.8,471.5)" />
<use xlink:href="#f2_2a" transform="matrix(10,0,0,10,342.5,471.5)" />
<use xlink:href="#f2_1x" transform="matrix(10,0,0,10,355,471.5)" />
<use xlink:href="#f2_2f" transform="matrix(10,0,0,10,366.5,471.5)" />
<use xlink:href="#f2_2g" transform="matrix(10,0,0,10,372.6,471.5)" />
<use xlink:href="#f2_2e" transform="matrix(10,0,0,10,376.8,471.5)" />
<use xlink:href="#f2_1x" transform="matrix(10,0,0,10,381.9,471.5)" />
<use xlink:href="#f2_25" transform="matrix(10,0,0,10,388.7,471.5)" />
<use xlink:href="#f2_23" transform="matrix(10,0,0,10,392.7,471.5)" />
<use xlink:href="#f2_24" transform="matrix(10,0,0,10,400.4,471.5)" />
<use xlink:href="#f2_2g" transform="matrix(10,0,0,10,407.7,471.5)" />
<use xlink:href="#f2_2j" transform="matrix(10,0,0,10,417.1,471.5)" />
<use xlink:href="#f2_25" transform="matrix(10,0,0,10,427.7,471.5)" />
<use xlink:href="#f2_2e" transform="matrix(10,0,0,10,431.8,471.5)" />
<use xlink:href="#f2_21" transform="matrix(10,0,0,10,437.1,471.5)" />
<use xlink:href="#f2_26" transform="matrix(10,0,0,10,89.5,501.4)" />
<use xlink:href="#f2_2b" transform="matrix(10,0,0,10,93.9,501.4)" />
<use xlink:href="#f2_25" transform="matrix(10,0,0,10,101.2,501.4)" />
<use xlink:href="#f2_2a" transform="matrix(10,0,0,10,105.4,501.4)" />
<use xlink:href="#f2_25" transform="matrix(10,0,0,10,112.8,501.4)" />
<use xlink:href="#f2_2a" transform="matrix(10,0,0,10,117,501.4)" />
<use xlink:href="#f2_23" transform="matrix(10,0,0,10,124.7,501.4)" />
<use xlink:href="#f2_2g" transform="matrix(10,0,0,10,134.8,501.4)" />
<use xlink:href="#f2_24" transform="matrix(10,0,0,10,139,501.4)" />
<use xlink:href="#f2_21" transform="matrix(10,0,0,10,146.3,501.4)" />
<use xlink:href="#f2_2f" transform="matrix(10,0,0,10,153.3,501.4)" />
<use xlink:href="#f2_21" transform="matrix(10,0,0,10,158.8,501.4)" />
<use xlink:href="#f2_2c" transform="matrix(10,0,0,10,168.5,501.4)" />
<use xlink:href="#f2_2b" transform="matrix(10,0,0,10,176,501.4)" />
<use xlink:href="#f2_25" transform="matrix(10,0,0,10,183.9,501.4)" />
<use xlink:href="#f2_2a" transform="matrix(10,0,0,10,187.7,501.4)" />
<use xlink:href="#f2_2g" transform="matrix(10,0,0,10,195.4,501.4)" />
<use xlink:href="#f2_2f" transform="matrix(10,0,0,10,199.3,501.4)" />
<use xlink:href="#f2_i" transform="matrix(10,0,0,10,205.3,501.4)" />
<use xlink:href="#f2_19" transform="matrix(10,0,0,10,211.6,501.4)" />
<use xlink:href="#f2_2g" transform="matrix(10,0,0,10,216.9,501.4)" />
<use xlink:href="#f2_25" transform="matrix(10,0,0,10,223.9,501.4)" />
<use xlink:href="#f2_2f" transform="matrix(10,0,0,10,227.7,501.4)" />
<use xlink:href="#f2_23" transform="matrix(10,0,0,10,236.5,501.4)" />
<use xlink:href="#f2_25" transform="matrix(10,0,0,10,243.9,501.4)" />
<use xlink:href="#f2_2i" transform="matrix(10,0,0,10,248.1,501.4)" />
<use xlink:href="#f2_21" transform="matrix(10,0,0,10,255.4,501.4)" />
<use xlink:href="#f2_2a" transform="matrix(10,0,0,10,262.4,501.4)" />
<use xlink:href="#f2_1y" transform="matrix(10,0,0,10,272.5,501.4)" />
<use xlink:href="#f2_2l" transform="matrix(10,0,0,10,280.3,501.4)" />
<use xlink:href="#f2_2g" transform="matrix(10,0,0,10,290.1,501.4)" />
<use xlink:href="#f2_24" transform="matrix(10,0,0,10,294.5,501.4)" />
<use xlink:href="#f2_21" transform="matrix(10,0,0,10,301.6,501.4)" />
<use xlink:href="#f2_21" transform="matrix(10,0,0,10,311.3,501.4)" />
<use xlink:href="#f2_2k" transform="matrix(10,0,0,10,317.9,501.4)" />
<use xlink:href="#f2_2c" transform="matrix(10,0,0,10,325.5,501.4)" />
<use xlink:href="#f2_2e" transform="matrix(10,0,0,10,333.1,501.4)" />
<use xlink:href="#f2_21" transform="matrix(10,0,0,10,338.3,501.4)" />
<use xlink:href="#f2_2f" transform="matrix(10,0,0,10,344.9,501.4)" />
<use xlink:href="#f2_2f" transform="matrix(10,0,0,10,350.6,501.4)" />
<use xlink:href="#f2_25" transform="matrix(10,0,0,10,356.4,501.4)" />
<use xlink:href="#f2_2b" transform="matrix(10,0,0,10,360.6,501.4)" />
<use xlink:href="#f2_2a" transform="matrix(10,0,0,10,368.2,501.4)" />
</g>
<g clip-path="url(#c0_29)">
<g fill="#000000" >
<use xlink:href="#f2_16" transform="matrix(10.2,0,0,10.2,381.2,500.3)" />
<use xlink:href="#f2_25" transform="matrix(10.2,0,0,10.2,404.2,500.3)" />
<use xlink:href="#f2_1c" transform="matrix(10.2,0,0,10.2,408.5,500.3)" />
<use xlink:href="#f2_12" transform="matrix(10.2,0,0,10.2,430.1,500.3)" />
</g>
</g>
<g clip-path="url(#c1_29)">
<g fill="#000000" >
<use xlink:href="#f3_x" transform="matrix(10.2,0,0,10.2,393.1,500.3)" />
<use xlink:href="#f3_3a" transform="matrix(10.2,0,0,10.2,419.7,500.3)" />
</g>
</g>
<g clip-path="url(#c2_29)">
<g fill="#000000" >
<use xlink:href="#f4_20" transform="matrix(10.2,0,0,10.2,382.3,486.9)" />
<use xlink:href="#f4_20" transform="matrix(10.2,0,0,10.2,410.1,486.9)" />
<use xlink:href="#f4_20" transform="matrix(10.2,0,0,10.2,431.9,486.9)" />
</g>
</g>
<image preserveAspectRatio="none" x="142" y="529" width="215" height="130" xlink:href="img/2.png" />
<image preserveAspectRatio="none" x="651" y="116" width="18" height="44" xlink:href="img/3.png" />
<image preserveAspectRatio="none" x="553" y="187" width="214" height="131" xlink:href="img/4.png" />
<g fill="#000000" >
<use xlink:href="#f1_m" transform="matrix(10,0,0,10,465.5,351.6)" />
<use xlink:href="#f1_o" transform="matrix(10,0,0,10,473.4,351.6)" />
<use xlink:href="#f1_i" transform="matrix(10,0,0,10,481.1,351.6)" />
<use xlink:href="#f2_19" transform="matrix(10,0,0,10,500,351.6)" />
<use xlink:href="#f2_22" transform="matrix(10,0,0,10,505.1,351.6)" />
<use xlink:href="#f2_1x" transform="matrix(10,0,0,10,513.3,351.6)" />
<use xlink:href="#f2_1z" transform="matrix(10,0,0,10,523.2,351.6)" />
<use xlink:href="#f2_2h" transform="matrix(10,0,0,10,530.2,351.6)" />
<use xlink:href="#f2_2e" transform="matrix(10,0,0,10,537.5,351.6)" />
<use xlink:href="#f2_2e" transform="matrix(10,0,0,10,542.9,351.6)" />
<use xlink:href="#f2_21" transform="matrix(10,0,0,10,548,351.6)" />
<use xlink:href="#f2_2a" transform="matrix(10,0,0,10,554.8,351.6)" />
<use xlink:href="#f2_2g" transform="matrix(10,0,0,10,562.1,351.6)" />
<use xlink:href="#f2_1z" transform="matrix(10,0,0,10,569.6,351.6)" />
<use xlink:href="#f2_1x" transform="matrix(10,0,0,10,576.4,351.6)" />
<use xlink:href="#f2_2e" transform="matrix(10,0,0,10,583,351.6)" />
<use xlink:href="#f2_2e" transform="matrix(10,0,0,10,588.3,351.6)" />
<use xlink:href="#f2_2l" transform="matrix(10,0,0,10,593.5,351.6)" />
<use xlink:href="#f2_25" transform="matrix(10,0,0,10,600.8,351.6)" />
<use xlink:href="#f2_2a" transform="matrix(10,0,0,10,604.8,351.6)" />
<use xlink:href="#f2_23" transform="matrix(10,0,0,10,612.5,351.6)" />
<use xlink:href="#f2_1z" transform="matrix(10,0,0,10,623.3,351.6)" />
<use xlink:href="#f2_2b" transform="matrix(10,0,0,10,630,351.6)" />
<use xlink:href="#f2_2a" transform="matrix(10,0,0,10,637.8,351.6)" />
<use xlink:href="#f2_20" transform="matrix(10,0,0,10,645.2,351.6)" />
<use xlink:href="#f2_2h" transform="matrix(10,0,0,10,653.1,351.6)" />
<use xlink:href="#f2_1z" transform="matrix(10,0,0,10,660.4,351.6)" />
<use xlink:href="#f2_2g" transform="matrix(10,0,0,10,667.4,351.6)" />
<use xlink:href="#f2_2b" transform="matrix(10,0,0,10,671.4,351.6)" />
<use xlink:href="#f2_2e" transform="matrix(10,0,0,10,679.3,351.6)" />
<use xlink:href="#f2_11" transform="matrix(10,0,0,10,686.6,351.6)" />
<use xlink:href="#f2_12" transform="matrix(10,0,0,10,697.4,351.6)" />
<use xlink:href="#f2_25" transform="matrix(10,0,0,10,711.2,351.6)" />
<use xlink:href="#f2_2f" transform="matrix(10,0,0,10,715.2,351.6)" />
<use xlink:href="#f2_2c" transform="matrix(10,0,0,10,724.6,351.6)" />
<use xlink:href="#f2_28" transform="matrix(10,0,0,10,732.1,351.6)" />
<use xlink:href="#f2_1x" transform="matrix(10,0,0,10,736.3,351.6)" />
<use xlink:href="#f2_1z" transform="matrix(10,0,0,10,743.3,351.6)" />
<use xlink:href="#f2_21" transform="matrix(10,0,0,10,750,351.6)" />
<use xlink:href="#f2_20" transform="matrix(10,0,0,10,756.6,351.6)" />
<use xlink:href="#f2_2g" transform="matrix(10,0,0,10,767.5,351.6)" />
<use xlink:href="#f2_2e" transform="matrix(10,0,0,10,771.7,351.6)" />
<use xlink:href="#f2_1x" transform="matrix(10,0,0,10,777,351.6)" />
<use xlink:href="#f2_2a" transform="matrix(10,0,0,10,783.6,351.6)" />
<use xlink:href="#f2_2f" transform="matrix(10,0,0,10,791.1,351.6)" />
<use xlink:href="#f2_2i" transform="matrix(10,0,0,10,797,351.6)" />
<use xlink:href="#f2_21" transform="matrix(10,0,0,10,804.5,351.6)" />
<use xlink:href="#f2_2e" transform="matrix(10,0,0,10,811.3,351.6)" />
<use xlink:href="#f2_2f" transform="matrix(10,0,0,10,816.6,351.6)" />
<use xlink:href="#f2_21" transform="matrix(10,0,0,10,822.2,351.6)" />
<use xlink:href="#f2_2g" transform="matrix(10,0,0,10,832.5,351.6)" />
<use xlink:href="#f2_2b" transform="matrix(10,0,0,10,836.6,351.6)" />
<use xlink:href="#f2_1x" transform="matrix(10,0,0,10,847.7,351.6)" />
<use xlink:href="#f2_28" transform="matrix(10,0,0,10,500.1,371.4)" />
<use xlink:href="#f2_2b" transform="matrix(10,0,0,10,504.4,371.4)" />
<use xlink:href="#f2_2a" transform="matrix(10,0,0,10,512.1,371.4)" />
<use xlink:href="#f2_23" transform="matrix(10,0,0,10,519.6,371.4)" />
<use xlink:href="#f2_1z" transform="matrix(10,0,0,10,531.3,371.4)" />
<use xlink:href="#f2_2h" transform="matrix(10,0,0,10,538.3,371.4)" />
<use xlink:href="#f2_2e" transform="matrix(10,0,0,10,545.6,371.4)" />
<use xlink:href="#f2_2e" transform="matrix(10,0,0,10,550.9,371.4)" />
<use xlink:href="#f2_21" transform="matrix(10,0,0,10,556.1,371.4)" />
<use xlink:href="#f2_2a" transform="matrix(10,0,0,10,562.8,371.4)" />
<use xlink:href="#f2_2g" transform="matrix(10,0,0,10,570.2,371.4)" />
<use xlink:href="#f2_1z" transform="matrix(10,0,0,10,578.8,371.4)" />
<use xlink:href="#f2_1x" transform="matrix(10,0,0,10,585.8,371.4)" />
<use xlink:href="#f2_2e" transform="matrix(10,0,0,10,592.5,371.4)" />
<use xlink:href="#f2_2e" transform="matrix(10,0,0,10,597.7,371.4)" />
<use xlink:href="#f2_2l" transform="matrix(10,0,0,10,602.6,371.4)" />
<use xlink:href="#f2_25" transform="matrix(10,0,0,10,610,371.4)" />
<use xlink:href="#f2_2a" transform="matrix(10,0,0,10,614.2,371.4)" />
<use xlink:href="#f2_23" transform="matrix(10,0,0,10,621.9,371.4)" />
<use xlink:href="#f2_1z" transform="matrix(10,0,0,10,633.8,371.4)" />
<use xlink:href="#f2_2b" transform="matrix(10,0,0,10,640.4,371.4)" />
<use xlink:href="#f2_2a" transform="matrix(10,0,0,10,648.3,371.4)" />
<use xlink:href="#f2_20" transform="matrix(10,0,0,10,655.6,371.4)" />
<use xlink:href="#f2_2h" transform="matrix(10,0,0,10,663.5,371.4)" />
<use xlink:href="#f2_1z" transform="matrix(10,0,0,10,670.8,371.4)" />
<use xlink:href="#f2_2g" transform="matrix(10,0,0,10,677.8,371.4)" />
<use xlink:href="#f2_2b" transform="matrix(10,0,0,10,681.8,371.4)" />
<use xlink:href="#f2_2e" transform="matrix(10,0,0,10,689.7,371.4)" />
<use xlink:href="#f2_1x" transform="matrix(10,0,0,10,699.3,371.4)" />
<use xlink:href="#f2_2f" transform="matrix(10,0,0,10,706,371.4)" />
<use xlink:href="#f2_2f" transform="matrix(10,0,0,10,716.1,371.4)" />
<use xlink:href="#f2_24" transform="matrix(10,0,0,10,722.2,371.4)" />
<use xlink:href="#f2_2b" transform="matrix(10,0,0,10,729.5,371.4)" />
<use xlink:href="#f2_2j" transform="matrix(10,0,0,10,737.4,371.4)" />
<use xlink:href="#f2_2a" transform="matrix(10,0,0,10,748,371.4)" />
<use xlink:href="#f2_2g" transform="matrix(10,0,0,10,759.8,371.4)" />
<use xlink:href="#f2_24" transform="matrix(10,0,0,10,764.2,371.4)" />
<use xlink:href="#f2_21" transform="matrix(10,0,0,10,771.5,371.4)" />
<use xlink:href="#f2_2a" transform="matrix(10,0,0,10,778.5,371.4)" />
<use xlink:href="#f2_22" transform="matrix(10,0,0,10,790.2,371.4)" />
<use xlink:href="#f2_2b" transform="matrix(10,0,0,10,795.3,371.4)" />
<use xlink:href="#f2_2e" transform="matrix(10,0,0,10,802.8,371.4)" />
<use xlink:href="#f2_1z" transform="matrix(10,0,0,10,808.2,371.4)" />
<use xlink:href="#f2_21" transform="matrix(10,0,0,10,814.8,371.4)" />
<use xlink:href="#f2_i" transform="matrix(10,0,0,10,821.7,371.4)" />
<use xlink:href="#f2_15" transform="matrix(10,0,0,10,500,396.5)" />
<use xlink:href="#f2_2k" transform="matrix(10,0,0,10,508.9,396.5)" />
<use xlink:href="#f2_2c" transform="matrix(10,0,0,10,516.6,396.5)" />
<use xlink:href="#f2_21" transform="matrix(10,0,0,10,524,396.5)" />
<use xlink:href="#f2_2e" transform="matrix(10,0,0,10,530.9,396.5)" />
<use xlink:href="#f2_25" transform="matrix(10,0,0,10,535.7,396.5)" />
<use xlink:href="#f2_21" transform="matrix(10,0,0,10,539.9,396.5)" />
<use xlink:href="#f2_2a" transform="matrix(10,0,0,10,546.7,396.5)" />
<use xlink:href="#f2_1z" transform="matrix(10,0,0,10,553.9,396.5)" />
<use xlink:href="#f2_21" transform="matrix(10,0,0,10,560.5,396.5)" />
<use xlink:href="#f2_20" transform="matrix(10,0,0,10,567.4,396.5)" />
<use xlink:href="#f2_1y" transform="matrix(10,0,0,10,577.9,396.5)" />
<use xlink:href="#f2_2l" transform="matrix(10,0,0,10,585.2,396.5)" />
<use xlink:href="#f2_2j" transform="matrix(10,0,0,10,595.1,396.5)" />
<use xlink:href="#f2_25" transform="matrix(10,0,0,10,605.7,396.5)" />
<use xlink:href="#f2_2e" transform="matrix(10,0,0,10,609.6,396.5)" />
<use xlink:href="#f2_21" transform="matrix(10,0,0,10,614.7,396.5)" />
<use xlink:href="#f2_11" transform="matrix(10,0,0,10,623.5,396.5)" />
<use xlink:href="#f2_12" transform="matrix(10,0,0,10,634.2,396.5)" />
</g>
<path d="M526.5,438.2h36m37.9,0h30.5" class="g2_29" />
<g fill="#000000" >
<use xlink:href="#f2_k" transform="matrix(7.1,0,0,7.1,536.3,436.1)" />
<use xlink:href="#f2_l" transform="matrix(7.1,0,0,7.1,545.6,436.1)" />
<use xlink:href="#f2_m" transform="matrix(7.1,0,0,7.1,555.1,436.1)" />
<use xlink:href="#f2_21" transform="matrix(7.1,0,0,7.1,584.5,445.9)" />
<use xlink:href="#f2_25" transform="matrix(10.1,0,0,10.1,541.8,432.1)" />
<use xlink:href="#f2_25" transform="matrix(10.1,0,0,10.1,550.2,432.1)" />
<use xlink:href="#f2_2k" transform="matrix(10.1,0,0,10.1,601.5,432.5)" />
<use xlink:href="#f2_16" transform="matrix(10.1,0,0,10.1,502.7,442)" />
<use xlink:href="#f2_28" transform="matrix(10.1,0,0,10.1,564.5,442)" />
<use xlink:href="#f2_2b" transform="matrix(10.1,0,0,10.1,568.7,442)" />
<use xlink:href="#f2_23" transform="matrix(10.1,0,0,10.1,576.4,442)" />
<use xlink:href="#f2_m" transform="matrix(10.1,0,0,10.1,536.8,454.1)" />
<use xlink:href="#f2_2k" transform="matrix(10.1,0,0,10.1,611.8,454.1)" />
<use xlink:href="#f3_29" transform="matrix(10.1,0,0,10.1,527.1,432.1)" />
<use xlink:href="#f3_f" transform="matrix(10.1,0,0,10.1,612.3,432.5)" />
<use xlink:href="#f3_4o" transform="matrix(10.1,0,0,10.1,592.4,433.4)" />
<use xlink:href="#f3_54" transform="matrix(10.1,0,0,10.1,633.1,433.4)" />
<use xlink:href="#f3_x" transform="matrix(10.1,0,0,10.1,514.3,442)" />
<use xlink:href="#f3_4p" transform="matrix(10.1,0,0,10.1,592.4,446.2)" />
<use xlink:href="#f3_55" transform="matrix(10.1,0,0,10.1,633.1,446.2)" />
<use xlink:href="#f3_2c" transform="matrix(10.1,0,0,10.1,544.5,454.1)" />
<use xlink:href="#f3_4q" transform="matrix(10.1,0,0,10.1,592.4,455.8)" />
<use xlink:href="#f3_56" transform="matrix(10.1,0,0,10.1,633.1,455.8)" />
<use xlink:href="#f4_1u" transform="matrix(10.1,0,0,10.1,623.7,432.5)" />
</g>
<image preserveAspectRatio="none" x="547" y="489" width="225" height="148" xlink:href="img/5.png" />
<defs>
<path d="M59,0V144h42c0,0,39,0,54,7c0,0,15,7,22,22c0,0,7,15,7,57V813c0,0,0,40,-5,52c0,0,-7,17,-21,24c0,0,-13,8,-42,8H59v143H530L711,408l185,632h481V897h-52c0,0,-41,0,-57,-18c0,0,-16,-17,-16,-66V222c0,0,0,-39,4,-48c0,0,7,-15,19,-21c0,0,16,-9,43,-9h59V0H876V144h39c0,0,42,0,57,6c0,0,15,7,22,21c0,0,7,14,7,51V862L748,0H604L359,835V202c0,0,0,-22,8,-34c0,0,8,-12,22,-18c0,0,15,-6,47,-6h50V0Z" 
id="f0_1d"
transform="scale(0.001,-0.001)" />

<path d="M610,480L509,765L404,480ZM2,0V144c0,0,39,0,56,6c0,0,18,7,30,21c0,0,11,13,25,49l322,820H669L981,237c0,0,25,-64,45,-79c0,0,19,-14,68,-14c2,0,3,0,5,0V0H606V144h30c0,0,41,0,58,11c0,0,16,11,16,27c0,0,0,13,-14,55l-32,94H349L310,226c0,0,-12,-33,-12,-44c0,0,0,-11,8,-21c0,0,9,-10,28,-14c0,0,13,-3,71,-3V0Z" 
id="f0_11"
transform="scale(0.001,-0.001)" />

<path d="M568,-17c0,0,-143,0,-260,69c0,0,-117,69,-185,193c0,0,-68,125,-68,279c0,0,0,153,67,274c0,0,68,121,189,190c0,0,121,70,263,70c0,0,68,0,136,-17c0,0,69,-18,117,-47l28,46H959l94,-344L916,651c0,0,-71,113,-111,154c0,0,-41,41,-94,65c0,0,-52,23,-102,23c0,0,-71,0,-133,-41c0,0,-61,-41,-97,-120c0,0,-36,-79,-36,-191c0,0,0,-123,39,-213c0,0,40,-90,103,-134c0,0,64,-43,140,-43c0,0,53,0,102,21c0,0,48,22,66,49c0,0,18,26,18,72v38c0,0,0,39,-6,49c0,0,-8,15,-22,22c0,0,-13,7,-53,7H671V554h507V409h-38c0,0,-37,0,-51,-7c0,0,-14,-7,-20,-21c0,0,-7,-15,-7,-56V0H909L870,75C870,75,799,28,724,5c0,0,-75,-22,-156,-22Z" 
id="f0_17"
transform="scale(0.001,-0.001)" />

<path d="M59,0V144h44c0,0,37,0,51,6c0,0,14,6,22,22c0,0,8,16,8,47V816c0,0,0,34,-8,50c0,0,-7,16,-20,24c0,0,-12,7,-42,7H59v143H480L786,433V805c0,0,0,48,-5,60c0,0,-8,17,-20,25c0,0,-13,7,-49,7H661v143h428V897h-47c0,0,-36,0,-51,-9c0,0,-15,-8,-21,-22c0,0,-6,-14,-6,-61V0H750L364,767V230c0,0,0,-46,5,-59c0,0,6,-12,20,-20c0,0,15,-7,50,-7h50V0Z" 
id="f0_1e"
transform="scale(0.001,-0.001)" />

<path d="M59,0V144H85c0,0,52,0,70,7c0,0,18,8,25,26c0,0,4,11,4,64V808c0,0,0,46,-7,60c0,0,-6,14,-19,22c0,0,-14,7,-53,7H59v143H928L1046,712L911,663c0,0,-34,81,-80,130c0,0,-46,49,-102,65c0,0,-55,16,-129,16H441V615h52c0,0,59,0,80,9c0,0,20,8,29,26c0,0,9,19,9,73v40H744V322H611v45c0,0,0,45,-11,66c0,0,-11,21,-29,29c0,0,-19,7,-83,7H441V230c0,0,0,-38,4,-47c0,0,3,-8,14,-12c0,0,11,-5,47,-5h87c0,0,98,0,165,28c0,0,67,28,120,91c0,0,53,63,81,149l136,-47L959,0Z" 
id="f0_15"
transform="scale(0.001,-0.001)" />

<path d="M280,0V144h30c0,0,51,0,66,6c0,0,14,6,21,22c0,0,8,17,8,67V851c0,0,0,26,-6,33c0,0,-6,7,-26,7c0,0,-38,0,-86,-29c0,0,-48,-29,-85,-82c0,0,-15,-21,-63,-118L2,711l128,365h99l10,-36H826l13,36h99L1067,711L928,662c0,0,-46,91,-66,119c0,0,-40,55,-92,86c0,0,-38,24,-77,24c0,0,-18,0,-24,-9c0,0,-7,-8,-7,-39V244c0,0,0,-53,4,-66c0,0,3,-13,12,-21c0,0,9,-8,25,-11c0,0,16,-2,84,-2V0Z" 
id="f0_1k"
transform="scale(0.001,-0.001)" />

<path d="M52,0V144H93c0,0,44,0,58,6c0,0,13,6,20,20c0,0,6,14,6,55V803c0,0,0,49,-6,64c0,0,-7,15,-22,24c0,0,-10,6,-51,6H52v143H559V897H513c0,0,-40,0,-53,-7c0,0,-13,-8,-20,-23c0,0,-6,-15,-6,-58V233c0,0,0,-47,5,-61c0,0,6,-13,18,-19c0,0,16,-9,47,-9h55V0Z" 
id="f0_19"
transform="scale(0.001,-0.001)" />

<path d="M567,-17c0,0,-83,0,-152,21c0,0,-70,21,-145,71L237,0H126L52,404l140,33c0,0,49,-123,153,-205c0,0,104,-82,228,-82c0,0,56,0,93,14c0,0,37,14,56,39c0,0,18,25,18,52c0,0,0,45,-43,77c0,0,-44,32,-154,63L369,446c0,0,-40,11,-107,42c0,0,-68,31,-104,64c0,0,-36,34,-60,86c0,0,-24,53,-24,111c0,0,0,83,46,153c0,0,46,69,138,113c0,0,92,43,204,43c0,0,135,0,244,-70l29,52H842L932,692L792,652c0,0,-69,125,-157,183c0,0,-88,58,-187,58c0,0,-64,0,-101,-26c0,0,-37,-27,-37,-59c0,0,0,-36,34,-67c0,0,32,-32,121,-56L665,626c0,0,166,-47,237,-126c0,0,70,-80,70,-186c0,0,0,-135,-107,-229C865,85,745,-17,567,-17Z" 
id="f0_1j"
transform="scale(0.001,-0.001)" />

<path d="M37,0V16c0,0,275,327,333,439c0,0,58,113,58,220c0,0,0,79,-48,131c0,0,-49,52,-119,52c0,0,-115,0,-178,-115l-28,9c0,0,40,143,122,212c0,0,83,69,190,69c0,0,77,0,140,-36c0,0,64,-36,100,-98c0,0,35,-63,35,-117c0,0,0,-99,-55,-202c0,0,-75,-138,-329,-384H477c0,0,80,0,105,6c0,0,24,7,39,23c0,0,16,16,42,67h26L633,0Z" 
id="f1_m"
transform="scale(0.001,-0.001)" />

<path d="M191,-18c0,0,-51,0,-87,36c0,0,-37,36,-37,87c0,0,0,52,37,88c0,0,36,37,87,37c0,0,52,0,89,-37c0,0,36,-36,36,-88c0,0,0,-51,-37,-87c0,0,-36,-36,-88,-36Z" 
id="f1_i"
transform="scale(0.001,-0.001)" />

<path d="M38,0V27H74c0,0,63,0,91,37c0,0,18,24,18,115V833c0,0,0,77,-10,102c0,0,-7,18,-30,32c0,0,-33,18,-69,18H38v27H470V985H434c0,0,-62,0,-90,-37c0,0,-18,-24,-18,-115V179c0,0,0,-77,9,-102c0,0,8,-18,31,-32c0,0,32,-18,68,-18h36V0Z" 
id="f2_19"
transform="scale(0.001,-0.001)" />

<path d="M63,0V26H93c0,0,30,0,54,15c0,0,25,15,34,41c0,0,10,25,10,99V630H58v53H191v45c0,0,0,102,33,173c0,0,32,71,100,114c0,0,68,44,152,44c0,0,79,0,145,-51c0,0,43,-33,43,-75c0,0,0,-22,-19,-42c0,0,-20,-20,-42,-20c0,0,-17,0,-36,12c0,0,-19,13,-47,53c0,0,-28,41,-51,55c0,0,-23,14,-51,14c0,0,-35,0,-58,-18c0,0,-24,-18,-35,-57c0,0,-10,-38,-10,-197V683H491V630H315V181c0,0,0,-96,21,-122c0,0,27,-33,73,-33h62V0Z" 
id="f2_22"
transform="scale(0.001,-0.001)" />

<path d="M286,72c0,0,57,0,149,75V407c0,0,-113,-45,-145,-64c0,0,-59,-32,-85,-68c0,0,-25,-36,-25,-78c0,0,0,-54,32,-89c0,0,32,-36,74,-36ZM217,-13c0,0,-71,0,-116,48c0,0,-46,48,-46,127c0,0,0,50,22,87c0,0,31,50,106,95c0,0,76,45,252,109v26c0,0,0,102,-32,140c0,0,-32,38,-94,38c0,0,-47,0,-74,-25c0,0,-28,-25,-28,-58l1,-43c0,0,0,-34,-17,-53c0,0,-18,-18,-47,-18c0,0,-28,0,-45,19c0,0,-18,19,-18,53c0,0,0,64,66,117c0,0,65,54,184,54c0,0,91,0,149,-31c0,0,44,-23,65,-72c0,0,13,-32,13,-131V238c0,0,0,-98,4,-120c0,0,4,-22,12,-29c0,0,9,-8,20,-8c0,0,12,0,21,5c0,0,16,10,61,55V99C676,99,592,-12,516,-12c0,0,-37,0,-58,24c0,0,-22,26,-23,86C435,98,330,17,303,5c0,0,-40,-18,-86,-18Z" 
id="f2_1x"
transform="scale(0.001,-0.001)" />

<path d="M312,-20c0,0,-62,0,-143,22c0,0,-25,8,-40,8c0,0,-18,0,-27,-19H77V234h25c0,0,21,-105,80,-158c0,0,59,-53,132,-53c0,0,51,0,84,31c0,0,32,30,32,72c0,0,0,52,-36,87c0,0,-36,35,-144,88c0,0,-109,54,-142,97c0,0,-34,43,-34,107c0,0,0,85,58,141c0,0,58,57,150,57c0,0,40,0,97,-17c0,0,38,-11,51,-11c0,0,12,0,19,5c0,0,7,5,15,23h25V470H464c0,0,-28,110,-72,149c0,0,-45,40,-113,40c0,0,-53,0,-85,-28c0,0,-32,-27,-32,-61c0,0,0,-41,24,-71c0,0,23,-31,94,-65L389,381c0,0,152,-74,152,-194c0,0,0,-94,-71,-151c0,0,-70,-56,-158,-56Z" 
id="f2_2f"
transform="scale(0.001,-0.001)" />

<path d="M255,-10c0,0,-35,0,-68,18c0,0,-32,19,-48,55c0,0,-16,35,-16,109V632H15v24c0,0,41,16,84,56c0,0,43,39,77,92c0,0,17,29,48,104h23V683H407V632H247V188c0,0,0,-66,19,-90c0,0,19,-23,49,-23c0,0,24,0,47,16c0,0,23,15,36,45h29c0,0,-26,-73,-74,-110c0,0,-47,-36,-98,-36Z" 
id="f2_2g"
transform="scale(0.001,-0.001)" />

<path d="M17,0V26c0,0,52,0,77,17c0,0,19,12,26,38c0,0,4,13,4,73V419c0,0,0,119,-5,142c0,0,-4,23,-17,33c0,0,-13,11,-33,11c0,0,-23,0,-52,-11l-7,26l207,83h31V549c0,0,86,154,176,154c0,0,41,0,68,-25c0,0,27,-25,27,-58c0,0,0,-29,-20,-49c0,0,-19,-20,-46,-20c0,0,-26,0,-58,25c0,0,-33,26,-48,26c0,0,-14,0,-29,-15c0,0,-34,-30,-70,-101V159c0,0,0,-56,15,-85c0,0,9,-20,34,-34c0,0,24,-14,71,-14V0Z" 
id="f2_2e"
transform="scale(0.001,-0.001)" />

<path d="M55,0V26c0,0,50,0,67,10c0,0,17,10,27,32c0,0,10,23,10,86V418c0,0,0,111,-6,144c0,0,-6,24,-17,33c0,0,-11,10,-30,10c0,0,-21,0,-51,-11L45,620l206,83h33V154c0,0,0,-64,9,-85c0,0,9,-22,27,-32c0,0,19,-11,67,-11V0ZM222,909c0,0,-32,0,-54,23c0,0,-22,22,-22,53c0,0,0,32,22,54c0,0,22,22,54,22c0,0,31,0,53,-22c0,0,22,-22,22,-54c0,0,0,-31,-22,-53c0,0,-22,-23,-53,-23Z" 
id="f2_25"
transform="scale(0.001,-0.001)" />

<path d="M411,-239c0,0,134,0,198,48c0,0,64,47,64,100c0,0,0,39,-38,55c0,0,-39,16,-154,19c0,0,-167,5,-258,17c0,0,-35,-37,-53,-70c0,0,-17,-32,-17,-60c0,0,0,-36,43,-62c0,0,74,-47,215,-47ZM380,257c0,0,56,0,93,43c0,0,36,42,36,133c0,0,0,118,-51,185c0,0,-38,49,-98,49c0,0,-55,0,-92,-44c0,0,-37,-44,-37,-135c0,0,0,-117,50,-182c0,0,39,-49,99,-49ZM345,-328c0,0,-144,0,-243,64c0,0,-56,38,-56,78c0,0,0,18,8,36c0,0,13,27,52,76c0,0,5,7,76,80c0,0,-39,23,-55,41c0,0,-16,19,-16,42c0,0,0,26,22,61c0,0,21,35,98,100c0,0,-63,30,-97,85c0,0,-33,55,-33,121c0,0,0,101,76,174c0,0,77,73,196,73c0,0,98,0,170,-48H688c0,0,32,0,37,-2c0,0,6,-2,8,-6c0,0,4,-7,4,-24c0,0,0,-20,-4,-27c0,0,-2,-4,-7,-6c0,0,-6,-2,-38,-2H599c0,0,41,-54,41,-137c0,0,0,-96,-73,-163c0,0,-73,-68,-196,-68c0,0,-51,0,-104,15c0,0,-33,-28,-44,-49c0,0,-12,-22,-12,-37c0,0,0,-12,13,-24c0,0,12,-12,48,-17c0,0,21,-4,104,-6c0,0,154,-4,199,-11c0,0,70,-10,111,-51c0,0,42,-41,42,-102c0,0,0,-84,-79,-158c0,0,-117,-108,-304,-108Z" 
id="f2_23"
transform="scale(0.001,-0.001)" />

<path d="M20,0V26c0,0,45,0,71,15c0,0,15,7,24,28c0,0,9,21,9,85V773c0,0,0,117,-5,144c0,0,-6,27,-17,37c0,0,-12,9,-31,9c0,0,-16,0,-51,-12L10,978l204,83h34V561c0,0,83,91,131,116c0,0,49,26,97,26c0,0,58,0,100,-32c0,0,42,-32,62,-101c0,0,14,-47,14,-174V154c0,0,0,-65,11,-89c0,0,7,-18,25,-28c0,0,18,-11,66,-11V0H418V26h15c0,0,48,0,67,15c0,0,18,15,26,43c0,0,2,12,2,70V396c0,0,0,112,-12,147c0,0,-11,35,-36,53c0,0,-26,17,-61,17c0,0,-37,0,-76,-19c0,0,-40,-20,-95,-79V154c0,0,0,-70,8,-87c0,0,8,-17,29,-29c0,0,22,-12,74,-12V0Z" 
id="f2_24"
transform="scale(0.001,-0.001)" />

<path d="M342,-20c0,0,-116,0,-203,97c0,0,-86,98,-86,264c0,0,0,161,96,261c0,0,95,101,230,101c0,0,100,0,165,-53c0,0,65,-54,65,-111c0,0,0,-29,-18,-46c0,0,-18,-18,-51,-18c0,0,-44,0,-66,29c0,0,-13,15,-17,59c0,0,-4,45,-30,68c0,0,-26,22,-73,22c0,0,-74,0,-120,-55c0,0,-60,-73,-60,-193c0,0,0,-122,60,-216c0,0,60,-93,162,-93c0,0,73,0,131,49c0,0,41,35,80,126l22,-10C629,261,601,125,521,52c0,0,-81,-72,-179,-72Z" 
id="f2_1z"
transform="scale(0.001,-0.001)" />

<path d="M292,-20c0,0,-57,0,-100,33c0,0,-42,33,-58,85c0,0,-17,52,-17,148V551c0,0,0,49,-10,68c0,0,-11,18,-31,29c0,0,-19,9,-68,9c-2,0,-4,0,-6,0v26H242V226c0,0,0,-95,33,-125c0,0,33,-30,80,-30c0,0,32,0,73,21c0,0,40,20,96,76V555c0,0,0,59,-21,80c0,0,-22,21,-89,22v26H647V269c0,0,0,-119,6,-145c0,0,6,-27,18,-37c0,0,12,-11,29,-11c0,0,23,0,52,13L763,63L558,-20H524V124C524,124,436,29,390,4c0,0,-47,-24,-98,-24Z" 
id="f2_2h"
transform="scale(0.001,-0.001)" />

<path d="M479,469c0,0,-4,66,-16,93c0,0,-18,42,-55,65c0,0,-37,24,-78,24c0,0,-62,0,-111,-48c0,0,-48,-48,-57,-134ZM355,-20c0,0,-123,0,-211,95c0,0,-87,96,-87,258c0,0,0,175,90,273c0,0,89,98,225,98c0,0,115,0,189,-76c0,0,74,-75,74,-202H162c0,0,0,-152,74,-239c0,0,75,-86,175,-86c0,0,67,0,117,36c0,0,50,37,83,127l24,-15c0,0,-16,-102,-91,-186c0,0,-76,-83,-189,-83Z" 
id="f2_21"
transform="scale(0.001,-0.001)" />

<path d="M21,0V26H35c0,0,53,0,71,27c0,0,18,27,18,101V408c0,0,0,123,-5,150c0,0,-6,27,-17,37c0,0,-12,10,-31,10c0,0,-21,0,-50,-11L10,620l206,83h32V558c0,0,120,145,229,145c0,0,56,0,96,-28c0,0,40,-28,64,-92c0,0,16,-45,16,-137V154c0,0,0,-65,11,-88c0,0,8,-19,26,-29c0,0,18,-11,68,-11V0H419V26h14c0,0,47,0,66,15c0,0,20,15,27,43c0,0,3,11,3,70V434c0,0,0,93,-24,135c0,0,-24,42,-81,42c0,0,-88,0,-176,-97V154c0,0,0,-69,9,-86c0,0,10,-21,28,-31c0,0,19,-11,75,-11V0Z" 
id="f2_2a"
transform="scale(0.001,-0.001)" />

<path d="M145,-328c0,0,-44,0,-73,25c0,0,-28,25,-28,58c0,0,0,31,21,50c0,0,20,19,56,19c0,0,25,0,67,-16c0,0,30,-11,38,-11c0,0,22,0,49,23c0,0,26,23,53,89L376,28L131,542c0,0,-11,24,-36,58c0,0,-19,27,-30,36c0,0,-18,12,-56,21v26H328V657H312c0,0,-33,0,-50,-15c0,0,-17,-14,-17,-36c0,0,0,-30,25,-81L437,179L589,557c0,0,12,31,12,62c0,0,0,13,-5,20c0,0,-6,8,-19,13c0,0,-12,5,-44,5v26H754V657c0,0,-27,-3,-42,-12c0,0,-15,-9,-33,-34c0,0,-7,-10,-25,-58L376,-128c0,0,-40,-99,-105,-150c0,0,-66,-50,-126,-50Z" 
id="f2_2l"
transform="scale(0.001,-0.001)" />

<path d="M336,-20L117,554c0,0,-21,55,-42,74c0,0,-21,19,-66,29v26H296V657c0,0,-40,-3,-52,-14c0,0,-13,-12,-13,-33c0,0,0,-23,13,-56L390,162L537,481L498,581c0,0,-18,46,-47,63c0,0,-17,11,-61,13v26H716V657c0,0,-54,-2,-77,-20c0,0,-15,-12,-15,-39c0,0,0,-15,6,-30L785,177L929,554c0,0,15,40,15,65c0,0,0,14,-15,25c0,0,-14,12,-57,13v26h216V657c0,0,-65,-10,-95,-89L764,-20H733L563,415L363,-20Z" 
id="f2_2j"
transform="scale(0.001,-0.001)" />

<path d="M398,24c0,0,74,0,120,58c0,0,61,76,61,214c0,0,0,156,-69,240c0,0,-47,59,-113,59c0,0,-36,0,-71,-18c0,0,-27,-14,-88,-81V242c0,0,0,-83,6,-109c0,0,11,-43,51,-76c0,0,41,-33,103,-33ZM-4,-326v27H15c5,0,42,0,69,16c0,0,14,8,22,26c0,0,7,19,7,94V481c0,0,0,67,-6,85c0,0,-5,18,-18,27c0,0,-13,9,-36,9c0,0,-18,0,-45,-10L0,615l209,85h29V540c0,0,53,91,106,127c0,0,53,36,112,36c0,0,103,0,172,-80c0,0,84,-99,84,-257c0,0,0,-176,-102,-292c0,0,-83,-94,-210,-94c0,0,-55,0,-95,16c0,0,-30,10,-67,44V-167c0,0,0,-71,8,-90c0,0,9,-20,30,-31c0,0,21,-11,77,-11v-27Z" 
id="f2_2c"
transform="scale(0.001,-0.001)" />

<path d="M58,0V26c0,0,47,0,64,10c0,0,18,10,28,32c0,0,9,23,9,86V775c0,0,0,116,-5,142c0,0,-5,27,-17,37c0,0,-11,9,-29,9c0,0,-20,0,-49,-12L46,978l204,83h34V154c0,0,0,-64,9,-85c0,0,9,-21,29,-32c0,0,19,-11,72,-11V0Z" 
id="f2_28"
transform="scale(0.001,-0.001)" />

<path d="M399,62c0,0,68,0,131,68V481c0,0,-5,51,-27,93c0,0,-22,42,-59,63c0,0,-37,21,-72,21c0,0,-65,0,-117,-59c0,0,-67,-77,-67,-226c0,0,0,-151,65,-231c0,0,66,-80,146,-80ZM330,-20c0,0,-112,0,-196,93c0,0,-83,94,-83,240c0,0,0,147,92,269c0,0,93,122,238,122c0,0,90,0,149,-58V773c0,0,0,117,-6,144c0,0,-5,27,-17,37c0,0,-12,9,-30,9c0,0,-20,0,-52,-12l-9,27l204,83h33V270c0,0,0,-120,6,-146c0,0,5,-27,18,-37c0,0,12,-11,28,-11c0,0,21,0,54,13l9,-26L564,-20H530V78C530,78,480,25,432,2c0,0,-47,-22,-102,-22Z" 
id="f2_20"
transform="scale(0.001,-0.001)" />

<path d="M406,32c0,0,72,0,119,60c0,0,47,59,47,205c0,0,0,181,-78,286c0,0,-53,71,-135,71c0,0,-40,0,-79,-23c0,0,-40,-24,-65,-83c0,0,-24,-58,-24,-151c0,0,0,-149,59,-257c0,0,59,-108,156,-108ZM374,-20c0,0,-154,0,-245,122c0,0,-77,104,-77,233c0,0,0,94,46,187c0,0,47,92,123,137c0,0,76,44,161,44c0,0,155,0,249,-118c0,0,80,-100,80,-231c0,0,0,-91,-44,-185C667,169,623,75,546,27c0,0,-77,-47,-172,-47Z" 
id="f2_2b"
transform="scale(0.001,-0.001)" />

<path d="M25,0V26c0,0,27,4,47,19c0,0,29,22,96,111L311,346L182,535c0,0,-55,81,-86,102c0,0,-30,20,-75,20v26H341V657c0,0,-30,0,-42,-10c0,0,-13,-11,-13,-28c0,0,0,-19,27,-56c0,0,8,-12,25,-37l48,-78l56,77c0,0,55,74,55,94c0,0,0,16,0,27c0,0,0,11,0,11v26H674V657c0,0,-37,-2,-64,-20c0,0,-37,-26,-100,-111L416,402L587,156c0,0,63,-91,89,-109c0,0,27,-18,70,-21V0H423V26c0,0,34,0,53,15c0,0,14,11,14,28c0,0,0,17,-48,87L341,302L232,157c0,0,-50,-69,-50,-82c0,0,0,-18,17,-32c0,0,17,-15,50,-17V0Z" 
id="f2_2k"
transform="scale(0.001,-0.001)" />

<path d="M23,0V26c0,0,47,0,66,10c0,0,19,11,28,33c0,0,10,22,10,85V416c0,0,0,112,-7,145c0,0,-5,25,-16,34c0,0,-11,10,-31,10c0,0,-21,0,-50,-11L12,620l207,83h32V557c0,0,75,75,88,86c0,0,34,29,72,44c0,0,39,16,77,16c0,0,64,0,110,-37c0,0,47,-38,62,-109c0,0,77,90,130,118c0,0,53,28,109,28c0,0,54,0,96,-28c0,0,42,-28,67,-91c0,0,16,-43,16,-136V154c0,0,0,-64,10,-88c0,0,8,-16,28,-28c0,0,20,-12,65,-12V0H844V26h14c0,0,44,0,69,18c0,0,17,12,24,38c0,0,3,13,3,72V448c0,0,0,83,-20,117c0,0,-29,48,-93,48c0,0,-39,0,-79,-20c0,0,-40,-19,-97,-73l-1,-8l2,-32V154c0,0,0,-70,8,-87c0,0,7,-17,29,-29c0,0,21,-12,73,-12V0H431V26c0,0,57,0,78,14c0,0,21,13,29,40c0,0,4,13,4,74V448c0,0,0,83,-25,120c0,0,-33,48,-91,48c0,0,-40,0,-80,-22c0,0,-61,-33,-95,-74V154c0,0,0,-67,10,-87c0,0,9,-20,27,-30c0,0,18,-11,74,-11V0Z" 
id="f2_29"
transform="scale(0.001,-0.001)" />

<path d="M397,34c0,0,67,0,126,75c0,0,58,74,58,216c0,0,0,131,-58,201c0,0,-59,70,-133,70c0,0,-39,0,-79,-20c0,0,-29,-14,-75,-59V109c0,0,37,-37,78,-56c0,0,40,-19,83,-19ZM358,-20c0,0,-59,0,-121,21c0,0,-61,22,-126,65V773c0,0,0,117,-5,144c0,0,-6,27,-18,37c0,0,-12,9,-29,9c0,0,-21,0,-53,-12l-9,27l205,83h34V564c0,0,98,139,213,139c0,0,105,0,183,-90c0,0,78,-90,78,-245c0,0,0,-182,-121,-293c0,0,-103,-95,-231,-95Z" 
id="f2_1y"
transform="scale(0.001,-0.001)" />

<path d="M191,-20c0,0,-34,0,-58,24c0,0,-24,24,-24,58c0,0,0,35,24,59c0,0,24,24,58,24c0,0,35,0,59,-24c0,0,24,-25,24,-59c0,0,0,-34,-24,-58c0,0,-25,-24,-59,-24Z" 
id="f2_i"
transform="scale(0.001,-0.001)" />

<path d="M254,-20c0,0,-128,0,-187,41C67,21,24,51,24,98c0,0,0,34,25,59c0,0,25,24,57,24c0,0,24,0,46,-11c0,0,12,-6,85,-65c0,0,73,-59,136,-59c0,0,55,0,95,44c0,0,39,43,39,110c0,0,0,102,-71,189c0,0,-72,86,-210,118v27c0,0,85,24,118,46c0,0,33,21,56,64c0,0,24,44,24,89c0,0,0,61,-45,106c0,0,-45,44,-112,44c0,0,-105,0,-178,-110l-27,9c0,0,53,125,137,188c0,0,84,63,187,63c0,0,105,0,173,-65c0,0,69,-64,69,-150c0,0,0,-56,-32,-107c0,0,-32,-52,-100,-92c0,0,88,-42,134,-105c0,0,46,-62,46,-156c0,0,0,-158,-115,-269C561,89,447,-20,254,-20Z" 
id="f1_n"
transform="scale(0.001,-0.001)" />

<path d="M253,0V27h36c0,0,64,0,91,39c0,0,16,24,16,109V948H274c0,0,-71,0,-100,-10c0,0,-39,-14,-67,-54c0,0,-27,-41,-33,-109H46l12,237H883L894,775H865c0,0,-8,62,-22,89c0,0,-23,43,-61,64c0,0,-39,20,-101,20H539V175c0,0,0,-93,20,-116c0,0,28,-32,87,-32h36V0Z" 
id="f2_1k"
transform="scale(0.001,-0.001)" />

<path d="M376,-20L133,556c0,0,-17,41,-31,58c0,0,-15,18,-39,30c0,0,-12,7,-50,13v26H335V657H314c0,0,-29,0,-44,-14c0,0,-16,-14,-15,-38c0,0,-1,-26,15,-62L429,165L588,557c0,0,17,42,17,64c0,0,0,10,-6,17c0,0,-8,11,-21,15c0,0,-13,4,-52,4v26H750V657c0,0,-39,-3,-54,-16c0,0,-26,-23,-47,-76L409,-20Z" 
id="f2_2i"
transform="scale(0.001,-0.001)" />

<path d="M17,-328c0,0,-67,0,-100,24c0,0,-33,25,-33,51c0,0,0,26,18,45c0,0,18,18,43,18c0,0,19,0,40,-9c0,0,12,-6,48,-38c0,0,37,-33,61,-33c0,0,18,0,35,14c0,0,17,14,25,46c0,0,8,33,8,141V416c0,0,0,113,-6,145c0,0,-6,25,-17,34c0,0,-11,10,-31,10c0,0,-21,0,-51,-11L47,620l207,83h32V16c0,0,0,-175,-74,-260c0,0,-75,-84,-195,-84ZM223,908c0,0,-32,0,-54,23c0,0,-22,22,-22,53c0,0,0,32,22,55c0,0,22,22,54,22c0,0,32,0,54,-22c0,0,22,-23,22,-55c0,0,0,-31,-22,-53c0,0,-22,-23,-54,-23Z" 
id="f2_26"
transform="scale(0.001,-0.001)" />

<path d="M24,0V27H60c0,0,63,0,91,37c0,0,18,24,18,115V833c0,0,0,77,-10,102c0,0,-7,18,-30,32c0,0,-32,18,-69,18H24v27H776L787,790H761c0,0,-20,71,-45,104c0,0,-26,33,-64,48c0,0,-37,15,-117,15H312V558H497c0,0,63,0,93,28c0,0,29,28,39,111h27V355H629c0,0,-1,59,-16,87c0,0,-14,27,-40,41c0,0,-26,14,-76,14H312V179c0,0,0,-77,10,-102c0,0,7,-18,31,-32c0,0,33,-18,69,-18h37V0Z" 
id="f2_16"
transform="scale(0.001,-0.001)" />

<path d="M31,0V27H69c0,0,64,0,91,42c0,0,16,24,16,110V833c0,0,0,95,-21,119c0,0,-29,33,-86,33H31v27H488V985c0,0,-1,0,-2,0c-12,0,-81,-1,-111,-15c0,0,-32,-16,-44,-40c0,0,-12,-24,-12,-115V180c0,0,0,-62,12,-85c0,0,9,-16,27,-23c0,0,19,-7,117,-7h74c0,0,116,0,163,17c0,0,48,17,86,61c0,0,39,43,78,138l25,-6L814,0Z" 
id="f2_1c"
transform="scale(0.001,-0.001)" />

<path d="M485,53c0,0,135,0,206,61c0,0,71,60,71,150c0,0,0,59,-32,114c0,0,-33,54,-105,85c0,0,-72,32,-179,32c0,0,-46,0,-79,-2c0,0,-33,-1,-53,-5V73c0,0,86,-20,171,-20ZM455,547c0,0,109,0,164,23c0,0,55,24,84,72c0,0,29,49,29,106c0,0,0,89,-72,151c0,0,-73,63,-212,63c0,0,-74,0,-134,-16V557c0,0,27,-5,63,-8c0,0,35,-2,78,-2ZM24,0V27H63c0,0,63,0,91,41c0,0,17,26,17,111V833c0,0,0,94,-22,119c0,0,-29,33,-86,33H24v27H462c0,0,122,0,196,-18c0,0,112,-27,171,-95c0,0,59,-68,59,-157c0,0,0,-76,-46,-136c0,0,-47,-60,-137,-89c0,0,105,-23,157,-72c0,0,73,-69,73,-168c0,0,0,-75,-48,-145C887,132,839,63,756,32C756,32,673,0,502,0Z" 
id="f2_12"
transform="scale(0.001,-0.001)" />

<path d="M0,214v74H784V214ZM0,494v72H784V494Z" 
id="f3_x"
transform="scale(0.001,-0.001)" />

<path d="M52,62L0,114L278,390L0,667l52,52L330,442L608,719l51,-51L382,390L659,114L608,62L330,338L52,62Z" 
id="f3_3a"
transform="scale(0.001,-0.001)" />

<path d="M413,-106l30,80H0V27H443l-30,80L626,0L413,-106Z" 
id="f4_20"
transform="scale(0.001,-0.001)" />

<path d="M404,381V781L110,381ZM404,0V227H38V381l480,652h91V381h93V227H609V0Z" 
id="f1_o"
transform="scale(0.001,-0.001)" />

<path d="M678,393L506,802L330,393ZM11,0V27c0,0,63,12,82,30c0,0,38,35,84,145l356,832h27L912,193c0,0,43,-101,77,-132c0,0,35,-30,97,-34V0H687V27c0,0,60,3,82,21c0,0,21,17,21,41c0,0,0,33,-30,104L700,338H307L239,179c0,0,-26,-59,-26,-88c0,0,0,-23,22,-41c0,0,22,-17,95,-23V0Z" 
id="f2_11"
transform="scale(0.001,-0.001)" />

<path d="M31,0V27H67c0,0,36,0,68,18c0,0,24,12,32,36c0,0,9,24,9,98V836c0,0,0,96,-19,119c0,0,-27,30,-90,30H31v27H811L822,790H792c0,0,-15,80,-34,110c0,0,-19,30,-57,46c0,0,-29,11,-105,11H319V557H541c0,0,87,0,116,26c0,0,39,35,44,121h27V352H701c0,0,-11,74,-21,95c0,0,-14,26,-45,41c0,0,-30,15,-94,15H319V168c0,0,0,-67,6,-81c0,0,6,-15,21,-24c0,0,15,-8,56,-8H574c0,0,86,0,124,12c0,0,39,12,75,47c0,0,46,46,95,139h30L811,0Z" 
id="f2_15"
transform="scale(0.001,-0.001)" />

<path d="M379,29c0,0,41,0,84,37c0,0,43,36,65,121c0,0,34,128,34,362c0,0,0,173,-35,288c0,0,-27,86,-69,122c0,0,-31,25,-74,25c0,0,-51,0,-90,-46c0,0,-54,-62,-73,-195c0,0,-20,-132,-20,-261c0,0,0,-209,52,-341c0,0,42,-112,126,-112Zm-2,-46c0,0,-145,0,-241,170c0,0,-81,144,-81,347c0,0,0,173,52,298c0,0,52,125,139,186c0,0,67,49,139,49c0,0,116,0,208,-119c0,0,116,-147,116,-398c0,0,0,-176,-51,-299C658,217,608,94,529,38c0,0,-79,-55,-152,-55Z" 
id="f2_k"
transform="scale(0.001,-0.001)" />

<path d="M197,0V27c0,0,71,2,92,13c0,0,21,10,29,29c0,0,9,18,9,109V725c0,0,0,110,-8,141c0,0,-5,24,-19,35c0,0,-14,11,-33,11c0,0,-28,0,-77,-23l-11,23l246,121h25V178c0,0,0,-85,7,-106c0,0,7,-21,29,-32c0,0,23,-11,91,-13V0Z" 
id="f2_l"
transform="scale(0.001,-0.001)" />

<path d="M33,0V27c0,0,264,241,371,393c0,0,108,152,108,278c0,0,0,96,-59,158c0,0,-59,62,-141,62c0,0,-75,0,-134,-43c0,0,-59,-44,-88,-128H63c0,0,18,138,95,212c0,0,77,74,193,74c0,0,123,0,205,-80c0,0,83,-79,83,-186c0,0,0,-77,-36,-154c0,0,-55,-121,-179,-256C424,357,238,154,191,112H455c0,0,81,0,114,6c0,0,32,6,58,25c0,0,27,18,46,52h27L630,0Z" 
id="f2_m"
transform="scale(0.001,-0.001)" />

<path d="M68,-328c0,0,-27,0,-44,20c0,0,-23,29,-23,71c0,0,0,21,9,52c0,0,20,71,25,123c0,0,9,88,9,151V683H168V253c0,0,0,-76,13,-109c0,0,13,-34,46,-53c0,0,33,-20,65,-20c0,0,39,0,92,23c0,0,53,24,108,75V683H616V234c0,0,0,-89,8,-125c0,0,7,-26,21,-37c0,0,13,-11,28,-11c0,0,19,0,35,18c0,0,16,19,24,75h30C762,154,749,54,713,16c0,0,-37,-37,-93,-37c0,0,-55,0,-88,32c0,0,-33,34,-40,116C492,127,416,43,348,10c0,0,-68,-32,-118,-32c0,0,-34,0,-66,13c0,0,-32,12,-62,37c0,0,-2,-107,19,-188c0,0,14,-57,14,-80c0,0,0,-41,-20,-65c0,0,-21,-23,-47,-23Z" 
id="f3_29"
transform="scale(0.001,-0.001)" />

<path d="M355,0V355H0v72H355V784h72V427H782V355H427V0Z" 
id="f3_f"
transform="scale(0.001,-0.001)" />

<path d="M62,-123V268c0,0,0,230,56,452c0,0,47,190,134,334c0,0,87,144,204,242c0,0,85,73,194,119l18,-16c0,0,-211,-145,-335,-339c0,0,-98,-156,-149,-374c0,0,-50,-218,-50,-403V-123Z" 
id="f3_4o"
transform="scale(0.001,-0.001)" />

<path d="M617,-123V283c0,0,0,236,-63,459c0,0,-63,223,-188,392c0,0,-108,146,-282,265l17,16c0,0,180,-76,320,-248c0,0,139,-172,204,-417c0,0,64,-245,64,-482V-123Z" 
id="f3_54"
transform="scale(0.001,-0.001)" />

<path d="M62,-123V1415h72V-123Z" 
id="f3_4p"
transform="scale(0.001,-0.001)" />

<path d="M616,-123V1415h72V-123Z" 
id="f3_55"
transform="scale(0.001,-0.001)" />

<path d="M140,-21c0,0,-26,0,-44,17C96,-4,79,13,79,40c0,0,0,19,6,33c0,0,8,20,34,55c0,0,46,60,64,126c0,0,32,114,41,321H190c0,0,-55,0,-81,-18c0,0,-44,-26,-80,-89H0c0,0,42,129,98,178c0,0,43,37,120,37H743V575H562c0,0,-27,-171,-27,-327c0,0,0,-77,27,-110c0,0,27,-33,67,-33c0,0,33,0,56,22c0,0,24,22,31,65h27C743,192,730,74,686,26c0,0,-44,-47,-98,-47c0,0,-58,0,-97,51c0,0,-39,53,-39,198c0,0,0,91,28,347H286c0,0,-23,-390,-56,-494c0,0,-33,-102,-90,-102Z" 
id="f3_2c"
transform="scale(0.001,-0.001)" />

<path d="M650,-123c0,0,-180,75,-319,246c0,0,-140,172,-205,418c0,0,-64,245,-64,481v393h72V1007c0,0,0,-236,63,-459c0,0,63,-223,189,-391c0,0,108,-145,282,-265l-18,-15Z" 
id="f3_4q"
transform="scale(0.001,-0.001)" />

<path d="M101,-123l-18,15c0,0,211,144,334,339c0,0,99,156,149,373c0,0,50,218,50,403v408h72V1022c0,0,0,-230,-56,-451c0,0,-47,-191,-134,-335C498,236,411,92,294,-5c0,0,-84,-73,-193,-118Z" 
id="f3_56"
transform="scale(0.001,-0.001)" />

<path d="M266,336v0c59,64,106,125,106,125c47,62,82,121,82,121c35,60,62,118,62,118c28,58,49,116,49,116c5,14,10,45,10,45c6,31,5,63,5,63c-1,31,-12,55,-12,55c-12,23,-39,23,-39,23c-25,0,-57,-52,-57,-52C440,898,408,822,408,822C376,746,347,658,347,658C318,570,299,497,299,497c-9,-36,-17,-77,-17,-77c-9,-41,-16,-84,-16,-84ZM342,-19c-44,0,-74,35,-74,35C238,51,221,94,221,94c-18,44,-25,83,-25,83c-8,40,-10,48,-10,48C171,211,158,199,158,199C145,187,131,174,131,174C118,161,101,145,101,145C84,130,61,110,61,110v-1c0,-3,-1,-4,-3,-4c-2,0,-5,1,-5,1q-7,4,-7,4c0,0,-3,9,-3,9c-3,8,3,13,3,13c30,26,67,60,67,60c37,34,72,63,72,63c1,67,10,135,10,135c8,68,19,126,19,126c14,75,50,165,50,165c37,90,83,168,83,168c46,78,94,131,94,131c48,53,85,53,85,53c45,0,64,-29,64,-29c20,-29,23,-68,23,-68c4,-38,-3,-74,-3,-74c-7,-36,-11,-51,-11,-51C571,727,537,658,537,658C503,588,461,527,461,527C420,466,370,410,370,410C321,353,261,295,261,295c-7,-55,-9,-106,-9,-106c-1,-51,7,-91,7,-91c8,-39,28,-64,28,-64C307,10,342,10,342,10c29,0,52,8,52,8c23,9,43,23,43,23c20,15,38,33,38,33c18,18,40,40,40,40c4,4,8,5,11,5c3,0,4,-1,4,-1q8,-3,8,-3c0,0,4,-7,4,-7c3,-7,-1,-13,-1,-13C495,37,451,9,451,9C408,-19,342,-19,342,-19Z" 
id="f4_1u"
transform="scale(0.001,-0.001)" />


</defs>
</svg>