<?xml version="1.0" encoding="UTF-8" standalone="no"?>
<!DOCTYPE svg PUBLIC "-//W3C//DTD SVG 1.1//EN"
"http://www.w3.org/Graphics/SVG/1.1/DTD/svg11.dtd">
<svg viewBox="0 0 909 1286" version="1.1" xmlns="http://www.w3.org/2000/svg" xmlns:xlink="http://www.w3.org/1999/xlink">
<defs>
<clipPath id="c0_154"><path d="M55,217.3V125.4H208.6v91.9Z" /></clipPath>
<clipPath id="c1_154"><path d="M55,275.2V218H203.5v57.2Z" /></clipPath>
<clipPath id="c2_154"><path d="M55,328.4V276.5h96.8v51.9Z" /></clipPath>
<clipPath id="c3_154"><path d="M209,420.6V328.7H345.5v91.9Z" /></clipPath>
<clipPath id="c4_154"><path d="M55,473.9V422H361.3v51.9Z" /></clipPath>
<clipPath id="c5_154"><path d="M55,531.7V474.5H424.4v57.2Z" /></clipPath>
<clipPath id="c6_154"><path d="M55,587.2V532.9H345.1v54.3Z" /></clipPath>
<clipPath id="c7_154"><path d="M246.8,640.4V588.6H325v51.8Z" /></clipPath>
<style type="text/css"><![CDATA[
.g0_154{
fill: #D9D9D9;
}
.g1_154{
fill: none;
stroke: #000000;
stroke-width: 0.7638889;
stroke-linecap: butt;
stroke-linejoin: miter;
}
.g2_154{
fill: none;
stroke: #000000;
stroke-width: 0.9107651;
stroke-linecap: butt;
stroke-linejoin: round;
}
.g3_154{
fill: none;
stroke: #000000;
stroke-width: 0.41743085;
stroke-linecap: butt;
stroke-linejoin: round;
}
.g4_154{
fill: none;
stroke: #000000;
stroke-width: 0.90773153;
stroke-linecap: butt;
stroke-linejoin: round;
}
.g5_154{
fill: none;
stroke: #000000;
stroke-width: 0.9058908;
stroke-linecap: butt;
stroke-linejoin: round;
}
.g6_154{
fill: none;
stroke: #000000;
stroke-width: 0.41662106;
stroke-linecap: butt;
stroke-linejoin: round;
}
.g7_154{
fill: none;
stroke: #000000;
stroke-width: 0.9089983;
stroke-linecap: butt;
stroke-linejoin: round;
}
.g8_154{
fill: none;
stroke: #000000;
stroke-width: 0.90824205;
stroke-linecap: butt;
stroke-linejoin: round;
}
.g9_154{
fill: none;
stroke: #000000;
stroke-width: 0.91066;
stroke-linecap: butt;
stroke-linejoin: round;
}
.g10_154{
fill: none;
stroke: #000000;
stroke-width: 0.9099433;
stroke-linecap: butt;
stroke-linejoin: round;
}
.g11_154{
fill: none;
stroke: #000000;
stroke-width: 0.90164554;
stroke-linecap: butt;
stroke-linejoin: round;
}
.g12_154{
}
]]></style>
</defs>
<image preserveAspectRatio="none" x="748" y="1196" width="94" height="58" xlink:href="img/1.png" />
<image preserveAspectRatio="none" x="336" y="42" width="259" height="49" xlink:href="img/2.png" />
<image preserveAspectRatio="none" x="342" y="50" width="247" height="27" xlink:href="img/3.png" />
<image preserveAspectRatio="none" x="341" y="46" width="238" height="41" xlink:href="img/4.png" />
<g fill="#FFFFFF" >
<use xlink:href="#f0_j" transform="matrix(11.5,0,0,11.5,354.9,70)" />
<use xlink:href="#f0_i" transform="matrix(11.5,0,0,11.5,364.2,70)" />
<use xlink:href="#f0_2n" transform="matrix(11.5,0,0,11.5,374.1,70)" />
<use xlink:href="#f0_t" transform="matrix(11.5,0,0,11.5,382.4,70)" />
<use xlink:href="#f0_oj" transform="matrix(11.5,0,0,11.5,391,70)" />
<use xlink:href="#f0_3e" transform="matrix(11.5,0,0,11.5,396.3,70)" />
<use xlink:href="#f0_1c" transform="matrix(11.5,0,0,11.5,406,70)" />
<use xlink:href="#f0_1c" transform="matrix(11.5,0,0,11.5,410.7,70)" />
<use xlink:href="#f0_oj" transform="matrix(11.5,0,0,11.5,415.4,70)" />
<use xlink:href="#f0_rz" transform="matrix(11.5,0,0,11.5,420.8,70)" />
<use xlink:href="#f0_rx" transform="matrix(11.5,0,0,11.5,429.7,70)" />
<use xlink:href="#f0_ry" transform="matrix(11.5,0,0,11.5,438.6,70)" />
<use xlink:href="#f0_s1" transform="matrix(11.5,0,0,11.5,447.4,70)" />
<use xlink:href="#f0_t" transform="matrix(11.5,0,0,11.5,460.2,70)" />
<use xlink:href="#f0_3e" transform="matrix(11.5,0,0,11.5,468.8,70)" />
<use xlink:href="#f0_5" transform="matrix(11.5,0,0,11.5,478.5,70)" />
<use xlink:href="#f0_1x" transform="matrix(11.5,0,0,11.5,489.2,70)" />
<use xlink:href="#f0_1c" transform="matrix(11.5,0,0,11.5,504.6,70)" />
<use xlink:href="#f0_1y" transform="matrix(11.5,0,0,11.5,509.3,70)" />
<use xlink:href="#f0_5" transform="matrix(11.5,0,0,11.5,520.9,70)" />
<use xlink:href="#f0_2t" transform="matrix(11.5,0,0,11.5,531.5,70)" />
<use xlink:href="#f0_1c" transform="matrix(11.5,0,0,11.5,540.2,70)" />
<use xlink:href="#f0_24" transform="matrix(11.5,0,0,11.5,544.9,70)" />
<use xlink:href="#f0_1y" transform="matrix(11.5,0,0,11.5,556.8,70)" />
</g>
<image preserveAspectRatio="none" x="554" y="46" width="36" height="41" xlink:href="img/5.png" />
<g fill="#FFFFFF" >
<use xlink:href="#f1_l" transform="matrix(11,0,0,11,770.1,1227.7)" />
<use xlink:href="#f1_m" transform="matrix(11,0,0,11,779,1227.7)" />
<use xlink:href="#f1_j" transform="matrix(11,0,0,11,792.4,1227.7)" />
<use xlink:href="#f1_m" transform="matrix(11,0,0,11,803,1227.7)" />
<use xlink:href="#f1_n" transform="matrix(11,0,0,11,811.9,1227.7)" />
</g>
<path fill-rule="evenodd" d="M52.7,1193.2H856.9v-.7H52.7v.7Z" class="g0_154" />
<path d="M37.9,99.4L873,98.5" class="g1_154" />
<path d="M109.8,172.3h23.1" class="g2_154" />
<path d="M157.6,151.5h23.1M152,195.1h23" class="g3_154" />
<path d="M150.5,172.3h54.8" class="g2_154" />
<g clip-path="url(#c0_154)">
<g fill="#000000" >
<use xlink:href="#f2_i" transform="matrix(12.2,0,0,11.9,182.7,156)" />
<use xlink:href="#f2_m" transform="matrix(12.2,0,0,11.9,164.8,170)" />
<use xlink:href="#f2_m" transform="matrix(12.2,0,0,11.9,117.1,191)" />
<use xlink:href="#f2_m" transform="matrix(12.2,0,0,11.9,159.2,213.6)" />
<use xlink:href="#f3_2g" transform="matrix(7.1,0,0,6.9,68.7,181.5)" />
<use xlink:href="#f3_2b" transform="matrix(7.1,0,0,6.9,71.8,181.5)" />
<use xlink:href="#f3_2g" transform="matrix(7.1,0,0,6.9,77.1,181.5)" />
<use xlink:href="#f3_1x" transform="matrix(7.1,0,0,6.9,80.1,181.5)" />
<use xlink:href="#f3_28" transform="matrix(7.1,0,0,6.9,85.4,181.5)" />
<use xlink:href="#f3_1i" transform="matrix(12.2,0,0,11.9,159.3,144.8)" />
<use xlink:href="#f3_2b" transform="matrix(12.2,0,0,11.9,170.6,148.2)" />
<use xlink:href="#f3_1i" transform="matrix(12.2,0,0,11.9,187.3,156)" />
<use xlink:href="#f3_1i" transform="matrix(12.2,0,0,11.9,111.6,165.3)" />
<use xlink:href="#f3_2b" transform="matrix(12.2,0,0,11.9,122.8,169.8)" />
<use xlink:href="#f3_1i" transform="matrix(12.2,0,0,11.9,58.4,176.8)" />
<use xlink:href="#f3_1i" transform="matrix(12.2,0,0,11.9,153.7,188.5)" />
<use xlink:href="#f3_2b" transform="matrix(12.2,0,0,11.9,164.9,192.5)" />
<use xlink:href="#f3_1i" transform="matrix(12.2,0,0,11.9,193,199.6)" />
<use xlink:href="#f4_x" transform="matrix(12.2,0,0,11.9,95.2,176.8)" />
<use xlink:href="#f4_f" transform="matrix(12.2,0,0,11.9,136.7,176.8)" />
<use xlink:href="#f4_f" transform="matrix(12.2,0,0,11.9,178.8,199.6)" />
</g>
</g>
<g clip-path="url(#c1_154)">
<g fill="#000000" >
<use xlink:href="#f4_c" transform="matrix(12.2,0,0,15.8,128.6,239.5)" />
<use xlink:href="#f4_d" transform="matrix(12.2,0,0,15.8,191.5,239.5)" />
<use xlink:href="#f4_c" transform="matrix(12.2,0,0,15.8,127,267)" />
<use xlink:href="#f4_d" transform="matrix(12.2,0,0,15.8,190,267)" />
</g>
</g>
<path d="M113.4,246.7h84.8" class="g4_154" />
<g clip-path="url(#c1_154)">
<g fill="#000000" >
<use xlink:href="#f2_o" transform="matrix(12.4,0,0,12,168.9,238.1)" />
<use xlink:href="#f2_m" transform="matrix(12.4,0,0,12,116.2,265.6)" />
<use xlink:href="#f2_m" transform="matrix(12.4,0,0,12,167.4,265.6)" />
<use xlink:href="#f3_1i" transform="matrix(12.4,0,0,12,115.1,238.1)" />
<use xlink:href="#f3_1i" transform="matrix(12.4,0,0,12,136.7,238.1)" />
<use xlink:href="#f3_f" transform="matrix(12.4,0,0,12,156.9,238.1)" />
<use xlink:href="#f3_1i" transform="matrix(12.4,0,0,12,178.9,238.1)" />
<use xlink:href="#f3_2b" transform="matrix(12.4,0,0,12,147.8,241)" />
<use xlink:href="#f3_1i" transform="matrix(12.4,0,0,12,135.1,265.6)" />
<use xlink:href="#f3_f" transform="matrix(12.4,0,0,12,155.4,265.6)" />
<use xlink:href="#f3_1i" transform="matrix(12.4,0,0,12,177.3,265.6)" />
<use xlink:href="#f3_2b" transform="matrix(12.4,0,0,12,146.2,269.7)" />
<use xlink:href="#f4_x" transform="matrix(12.4,0,0,12,98.9,251.3)" />
</g>
</g>
<path d="M112.6,301.1h34.7" class="g5_154" />
<g clip-path="url(#c2_154)">
<g fill="#000000" >
<use xlink:href="#f2_c" transform="matrix(7,0,0,6.9,64.4,310.3)" />
<use xlink:href="#f2_2g" transform="matrix(7,0,0,6.9,68.9,310.3)" />
<use xlink:href="#f2_2b" transform="matrix(7,0,0,6.9,71.8,310.3)" />
<use xlink:href="#f2_2g" transform="matrix(7,0,0,6.9,77.1,310.3)" />
<use xlink:href="#f2_1x" transform="matrix(7,0,0,6.9,80.1,310.3)" />
<use xlink:href="#f2_28" transform="matrix(7,0,0,6.9,84.7,310.3)" />
<use xlink:href="#f2_d" transform="matrix(7,0,0,6.9,88.3,310.3)" />
<use xlink:href="#f2_19" transform="matrix(12.2,0,0,11.9,57.8,305.6)" />
<use xlink:href="#f3_2g" transform="matrix(7,0,0,6.9,124.5,324.5)" />
<use xlink:href="#f3_2b" transform="matrix(7,0,0,6.9,127.5,324.5)" />
<use xlink:href="#f3_2g" transform="matrix(7,0,0,6.9,132.8,324.5)" />
<use xlink:href="#f3_1x" transform="matrix(7,0,0,6.9,135.7,324.5)" />
<use xlink:href="#f3_28" transform="matrix(7,0,0,6.9,141,324.5)" />
<use xlink:href="#f3_1m" transform="matrix(12.2,0,0,11.9,122.3,294.2)" />
<use xlink:href="#f3_1i" transform="matrix(12.2,0,0,11.9,114.3,319.8)" />
<use xlink:href="#f4_x" transform="matrix(12.2,0,0,11.9,98,305.6)" />
</g>
</g>
<g fill="#000000" >
<use xlink:href="#f2_13" transform="matrix(12,0,0,12,55,379.3)" />
<use xlink:href="#f2_2h" transform="matrix(12,0,0,12,67.2,379.3)" />
<use xlink:href="#f2_2e" transform="matrix(12,0,0,12,76.4,379.3)" />
<use xlink:href="#f2_2e" transform="matrix(12,0,0,12,82.5,379.3)" />
<use xlink:href="#f2_21" transform="matrix(12,0,0,12,88.6,379.3)" />
<use xlink:href="#f2_2a" transform="matrix(12,0,0,12,96.8,379.3)" />
<use xlink:href="#f2_2g" transform="matrix(12,0,0,12,105.9,379.3)" />
<use xlink:href="#f2_2g" transform="matrix(12,0,0,12,115.6,379.3)" />
<use xlink:href="#f2_24" transform="matrix(12,0,0,12,120.7,379.3)" />
<use xlink:href="#f2_2e" transform="matrix(12,0,0,12,129.8,379.3)" />
<use xlink:href="#f2_2b" transform="matrix(12,0,0,12,136,379.3)" />
<use xlink:href="#f2_2h" transform="matrix(12,0,0,12,145.1,379.3)" />
<use xlink:href="#f2_23" transform="matrix(12,0,0,12,154.2,379.3)" />
<use xlink:href="#f2_24" transform="matrix(12,0,0,12,163.4,379.3)" />
<use xlink:href="#f2_1i" transform="matrix(12,0,0,12,177.2,379.3)" />
<use xlink:href="#f2_x" transform="matrix(12,0,0,12,194,379.3)" />
</g>
<path d="M301.3,354.8h23.2m-37.6,43.6H310" class="g6_154" />
<path d="M285.5,375.6h54.9" class="g7_154" />
<g clip-path="url(#c3_154)">
<g fill="#000000" >
<use xlink:href="#f2_m" transform="matrix(7,0,0,6.9,218.6,384.8)" />
<use xlink:href="#f2_2g" transform="matrix(7,0,0,6.9,251.4,384.8)" />
<use xlink:href="#f2_2b" transform="matrix(7,0,0,6.9,254.4,384.8)" />
<use xlink:href="#f2_2g" transform="matrix(7,0,0,6.9,259.7,384.8)" />
<use xlink:href="#f2_1x" transform="matrix(7,0,0,6.9,262.7,384.8)" />
<use xlink:href="#f2_m" transform="matrix(12.2,0,0,11.9,308.6,373.3)" />
<use xlink:href="#f2_19" transform="matrix(12.2,0,0,11.9,211.8,380.1)" />
<use xlink:href="#f2_19" transform="matrix(12.2,0,0,11.9,244.5,380.1)" />
<use xlink:href="#f2_1o" transform="matrix(12.2,0,0,11.9,269,380.1)" />
<use xlink:href="#f2_m" transform="matrix(12.2,0,0,11.9,294.1,416.9)" />
<use xlink:href="#f3_1i" transform="matrix(12.2,0,0,11.9,303.1,348.1)" />
<use xlink:href="#f3_2b" transform="matrix(12.2,0,0,11.9,314.4,348.1)" />
<use xlink:href="#f3_1i" transform="matrix(12.2,0,0,11.9,288.7,391.8)" />
<use xlink:href="#f3_2b" transform="matrix(12.2,0,0,11.9,299.9,391.8)" />
<use xlink:href="#f3_1i" transform="matrix(12.2,0,0,11.9,327.9,403)" />
<use xlink:href="#f4_x" transform="matrix(12.2,0,0,11.9,230,380.1)" />
<use xlink:href="#f4_f" transform="matrix(12.2,0,0,11.9,313.8,403)" />
</g>
</g>
<path d="M298.3,446.5h58.4" class="g8_154" />
<g clip-path="url(#c4_154)">
<g fill="#000000" >
<use xlink:href="#f2_2g" transform="matrix(7,0,0,6.9,264.5,455.8)" />
<use xlink:href="#f2_2b" transform="matrix(7,0,0,6.9,267.5,455.8)" />
<use xlink:href="#f2_2g" transform="matrix(7,0,0,6.9,272.8,455.8)" />
<use xlink:href="#f2_1x" transform="matrix(7,0,0,6.9,275.7,455.8)" />
<use xlink:href="#f2_19" transform="matrix(12.2,0,0,11.9,257.7,451.1)" />
<use xlink:href="#f2_1o" transform="matrix(12.2,0,0,11.9,282,451.1)" />
<use xlink:href="#f2_m" transform="matrix(12.2,0,0,11.9,334.3,465.3)" />
<use xlink:href="#f3_2b" transform="matrix(7,0,0,6.9,329.5,444.1)" />
<use xlink:href="#f3_2b" transform="matrix(7,0,0,6.9,310.4,470)" />
<use xlink:href="#f3_1i" transform="matrix(12.2,0,0,11.9,319,439.4)" />
<use xlink:href="#f3_1i" transform="matrix(12.2,0,0,11.9,300,465.3)" />
<use xlink:href="#f3_1i" transform="matrix(12.2,0,0,11.9,344.3,465.3)" />
<use xlink:href="#f4_x" transform="matrix(12.2,0,0,11.9,243.3,451.1)" />
<use xlink:href="#f4_f" transform="matrix(12.2,0,0,11.9,320.9,465.3)" />
</g>
</g>
<g clip-path="url(#c5_154)">
<g fill="#000000" >
<use xlink:href="#f4_c" transform="matrix(12.2,0,0,15.7,270.1,496)" />
<use xlink:href="#f4_d" transform="matrix(12.2,0,0,15.7,335.2,496)" />
<use xlink:href="#f4_c" transform="matrix(12.2,0,0,15.7,263.7,523.5)" />
<use xlink:href="#f4_d" transform="matrix(12.2,0,0,15.7,328.7,523.5)" />
</g>
</g>
<path d="M242.1,503.2h99.7m19.4,0h58.3" class="g9_154" />
<g clip-path="url(#c5_154)">
<g fill="#000000" >
<use xlink:href="#f2_i" transform="matrix(12.4,0,0,12,254.7,494.6)" />
<use xlink:href="#f2_m" transform="matrix(12.4,0,0,12,259.3,494.6)" />
<use xlink:href="#f2_m" transform="matrix(12.4,0,0,12,312.5,494.6)" />
<use xlink:href="#f2_1o" transform="matrix(12.4,0,0,12,344.9,507.8)" />
<use xlink:href="#f2_o" transform="matrix(12.4,0,0,12,306.1,522.1)" />
<use xlink:href="#f2_m" transform="matrix(12.4,0,0,12,397.2,522.1)" />
<use xlink:href="#f3_2b" transform="matrix(7.2,0,0,7,288.7,499.4)" />
<use xlink:href="#f3_2b" transform="matrix(7.2,0,0,7,392.4,500.7)" />
<use xlink:href="#f3_2b" transform="matrix(7.2,0,0,7,282.3,526.8)" />
<use xlink:href="#f3_2b" transform="matrix(7.2,0,0,7,373.4,526.8)" />
<use xlink:href="#f3_1m" transform="matrix(12.4,0,0,12,241.5,494.6)" />
<use xlink:href="#f3_1i" transform="matrix(12.4,0,0,12,278.2,494.6)" />
<use xlink:href="#f3_1i" transform="matrix(12.4,0,0,12,322.5,494.6)" />
<use xlink:href="#f3_1i" transform="matrix(12.4,0,0,12,381.9,496)" />
<use xlink:href="#f3_1i" transform="matrix(12.4,0,0,12,250.3,522.1)" />
<use xlink:href="#f3_1i" transform="matrix(12.4,0,0,12,271.8,522.1)" />
<use xlink:href="#f3_1i" transform="matrix(12.4,0,0,12,316.1,522.1)" />
<use xlink:href="#f3_1i" transform="matrix(12.4,0,0,12,362.9,522.1)" />
<use xlink:href="#f3_1i" transform="matrix(12.4,0,0,12,407.1,522.1)" />
<use xlink:href="#f4_f" transform="matrix(12.4,0,0,12,299.1,494.6)" />
<use xlink:href="#f4_x" transform="matrix(12.4,0,0,12,227.5,507.8)" />
<use xlink:href="#f4_f" transform="matrix(12.4,0,0,12,292.7,522.1)" />
<use xlink:href="#f4_f" transform="matrix(12.4,0,0,12,383.8,522.1)" />
</g>
</g>
<g clip-path="url(#c6_154)">
<g fill="#000000" >
<use xlink:href="#f4_c" transform="matrix(11.9,0,0,15.7,268.4,578.2)" />
<use xlink:href="#f4_d" transform="matrix(11.9,0,0,15.7,333.7,578.2)" />
</g>
</g>
<path d="M253.2,557.9h87.1" class="g10_154" />
<g clip-path="url(#c6_154)">
<g fill="#000000" >
<use xlink:href="#f2_2b" transform="matrix(7,0,0,6.9,308,555.5)" />
<use xlink:href="#f2_m" transform="matrix(12.1,0,0,12,278.6,550.8)" />
<use xlink:href="#f2_o" transform="matrix(12.1,0,0,12,311,576.9)" />
<use xlink:href="#f3_2b" transform="matrix(7,0,0,6.9,287,581.6)" />
<use xlink:href="#f3_1m" transform="matrix(12.1,0,0,12,286.3,550.8)" />
<use xlink:href="#f3_1i" transform="matrix(12.1,0,0,12,297.5,550.8)" />
<use xlink:href="#f3_1i" transform="matrix(12.1,0,0,12,254.9,576.9)" />
<use xlink:href="#f3_1i" transform="matrix(12.1,0,0,12,276.5,576.9)" />
<use xlink:href="#f3_1i" transform="matrix(12.1,0,0,12,321,576.9)" />
<use xlink:href="#f4_x" transform="matrix(12.1,0,0,12,238.6,562.5)" />
<use xlink:href="#f4_f" transform="matrix(12.1,0,0,12,297.5,576.9)" />
</g>
</g>
<g fill="#000000" >
<use xlink:href="#f2_1m" transform="matrix(12,0,0,12,55,617.5)" />
<use xlink:href="#f2_2b" transform="matrix(12,0,0,12,68.2,617.5)" />
<use xlink:href="#f2_28" transform="matrix(12,0,0,12,77.4,617.5)" />
<use xlink:href="#f2_2g" transform="matrix(12,0,0,12,82.5,617.5)" />
<use xlink:href="#f2_1x" transform="matrix(12,0,0,12,87.6,617.5)" />
<use xlink:href="#f2_23" transform="matrix(12,0,0,12,95.7,617.5)" />
<use xlink:href="#f2_21" transform="matrix(12,0,0,12,104.9,617.5)" />
<use xlink:href="#f2_1x" transform="matrix(12,0,0,12,117.7,617.5)" />
<use xlink:href="#f2_1z" transform="matrix(12,0,0,12,125.8,617.5)" />
<use xlink:href="#f2_2e" transform="matrix(12,0,0,12,133.9,617.5)" />
<use xlink:href="#f2_2b" transform="matrix(12,0,0,12,140,617.5)" />
<use xlink:href="#f2_2f" transform="matrix(12,0,0,12,149.2,617.5)" />
<use xlink:href="#f2_2f" transform="matrix(12,0,0,12,156.3,617.5)" />
<use xlink:href="#f2_1i" transform="matrix(12,0,0,12,168.1,617.5)" />
<use xlink:href="#f2_x" transform="matrix(12,0,0,12,184.9,617.5)" />
<use xlink:href="#f2_19" transform="matrix(12,0,0,12,199.8,617.5)" />
<use xlink:href="#f2_m" transform="matrix(12,0,0,12,205.9,617.5)" />
<use xlink:href="#f2_1i" transform="matrix(12,0,0,12,219.6,617.5)" />
<use xlink:href="#f2_x" transform="matrix(12,0,0,12,236.5,617.5)" />
</g>
<path d="M256.1,613.1h58.3" class="g11_154" />
<g clip-path="url(#c7_154)">
<g fill="#000000" >
<use xlink:href="#f2_2b" transform="matrix(7,0,0,6.9,296.4,610.7)" />
<use xlink:href="#f2_m" transform="matrix(12.1,0,0,11.9,267.1,606)" />
<use xlink:href="#f2_c" transform="matrix(12.1,0,0,11.9,249.3,617.6)" />
<use xlink:href="#f2_d" transform="matrix(12.1,0,0,11.9,315.3,617.6)" />
<use xlink:href="#f2_o" transform="matrix(12.1,0,0,11.9,292.1,631.8)" />
<use xlink:href="#f3_2b" transform="matrix(7,0,0,6.9,268.3,636.5)" />
<use xlink:href="#f3_1m" transform="matrix(12.1,0,0,11.9,274.8,606)" />
<use xlink:href="#f3_1i" transform="matrix(12.1,0,0,11.9,286,606)" />
<use xlink:href="#f3_1i" transform="matrix(12.1,0,0,11.9,257.8,631.8)" />
<use xlink:href="#f3_1i" transform="matrix(12.1,0,0,11.9,302.1,631.8)" />
<use xlink:href="#f4_f" transform="matrix(12.1,0,0,11.9,278.7,631.8)" />
</g>
</g>
<g fill="#000000" >
<use xlink:href="#f2_m" transform="matrix(12,0,0,12,55,682.1)" />
<use xlink:href="#f2_m" transform="matrix(12,0,0,12,64.2,682.1)" />
<use xlink:href="#f2_i" transform="matrix(12,0,0,12,73.3,682.1)" />
<use xlink:href="#f2_11" transform="matrix(12,0,0,12,82.5,682.1)" />
<use xlink:href="#f2_1z" transform="matrix(12,0,0,12,100.3,682.1)" />
<use xlink:href="#f2_2b" transform="matrix(12,0,0,12,108.5,682.1)" />
<use xlink:href="#f2_2a" transform="matrix(12,0,0,12,117.6,682.1)" />
<use xlink:href="#f2_2i" transform="matrix(12,0,0,12,126.8,682.1)" />
<use xlink:href="#f2_21" transform="matrix(12,0,0,12,136,682.1)" />
<use xlink:href="#f2_2k" transform="matrix(12,0,0,12,144.1,682.1)" />
<use xlink:href="#f2_28" transform="matrix(12,0,0,12,157.9,682.1)" />
<use xlink:href="#f2_21" transform="matrix(12,0,0,12,162.9,682.1)" />
<use xlink:href="#f2_2a" transform="matrix(12,0,0,12,171.1,682.1)" />
<use xlink:href="#f2_2f" transform="matrix(12,0,0,12,180.3,682.1)" />
<use xlink:href="#f2_2b" transform="matrix(12,0,0,12,192,682.1)" />
<use xlink:href="#f2_22" transform="matrix(12,0,0,12,201.2,682.1)" />
<use xlink:href="#f2_22" transform="matrix(12,0,0,12,211.9,682.1)" />
<use xlink:href="#f2_2b" transform="matrix(12,0,0,12,217.9,682.1)" />
<use xlink:href="#f2_1z" transform="matrix(12,0,0,12,227,682.1)" />
<use xlink:href="#f2_1x" transform="matrix(12,0,0,12,235.2,682.1)" />
<use xlink:href="#f2_28" transform="matrix(12,0,0,12,243.3,682.1)" />
<use xlink:href="#f2_28" transform="matrix(12,0,0,12,253.1,682.1)" />
<use xlink:href="#f2_21" transform="matrix(12,0,0,12,258.2,682.1)" />
<use xlink:href="#f2_2a" transform="matrix(12,0,0,12,266.3,682.1)" />
<use xlink:href="#f2_23" transform="matrix(12,0,0,12,275.5,682.1)" />
<use xlink:href="#f2_2g" transform="matrix(12,0,0,12,284.6,682.1)" />
<use xlink:href="#f2_24" transform="matrix(12,0,0,12,289.7,682.1)" />
<use xlink:href="#f2_m" transform="matrix(12,0,0,12,303.5,682.1)" />
<use xlink:href="#f2_k" transform="matrix(12,0,0,12,312.6,682.1)" />
<use xlink:href="#f2_1z" transform="matrix(12,0,0,12,326.3,682.1)" />
<use xlink:href="#f2_29" transform="matrix(12,0,0,12,334.4,682.1)" />
<use xlink:href="#f2_25" transform="matrix(12,0,0,12,353.2,682.1)" />
<use xlink:href="#f2_2f" transform="matrix(12,0,0,12,358.3,682.1)" />
<use xlink:href="#f2_2c" transform="matrix(12,0,0,12,370,682.1)" />
<use xlink:href="#f2_28" transform="matrix(12,0,0,12,379.1,682.1)" />
<use xlink:href="#f2_1x" transform="matrix(12,0,0,12,384.3,682.1)" />
<use xlink:href="#f2_1z" transform="matrix(12,0,0,12,392.4,682.1)" />
<use xlink:href="#f2_21" transform="matrix(12,0,0,12,400.6,682.1)" />
<use xlink:href="#f2_20" transform="matrix(12,0,0,12,408.7,682.1)" />
<use xlink:href="#f2_1z" transform="matrix(12,0,0,12,422.5,682.1)" />
<use xlink:href="#f2_2b" transform="matrix(12,0,0,12,430.7,682.1)" />
<use xlink:href="#f2_1x" transform="matrix(12,0,0,12,439.8,682.1)" />
<use xlink:href="#f2_2k" transform="matrix(12,0,0,12,448,682.1)" />
<use xlink:href="#f2_25" transform="matrix(12,0,0,12,457.1,682.1)" />
<use xlink:href="#f2_1x" transform="matrix(12,0,0,12,462.3,682.1)" />
<use xlink:href="#f2_28" transform="matrix(12,0,0,12,470.3,682.1)" />
<use xlink:href="#f2_28" transform="matrix(12,0,0,12,475.4,682.1)" />
<use xlink:href="#f2_2l" transform="matrix(12,0,0,12,480.6,682.1)" />
<use xlink:href="#f2_2j" transform="matrix(12,0,0,12,494.3,682.1)" />
<use xlink:href="#f2_25" transform="matrix(12,0,0,12,507.4,682.1)" />
<use xlink:href="#f2_2g" transform="matrix(12,0,0,12,512.5,682.1)" />
<use xlink:href="#f2_24" transform="matrix(12,0,0,12,517.7,682.1)" />
<use xlink:href="#f2_1x" transform="matrix(12,0,0,12,531.4,682.1)" />
<use xlink:href="#f2_1z" transform="matrix(12,0,0,12,544.2,682.1)" />
<use xlink:href="#f2_2b" transform="matrix(12,0,0,12,552.3,682.1)" />
<use xlink:href="#f2_2a" transform="matrix(12,0,0,12,561.5,682.1)" />
<use xlink:href="#f2_2i" transform="matrix(12,0,0,12,570.6,682.1)" />
<use xlink:href="#f2_21" transform="matrix(12,0,0,12,579.8,682.1)" />
<use xlink:href="#f2_2k" transform="matrix(12,0,0,12,587.9,682.1)" />
<use xlink:href="#f2_29" transform="matrix(12,0,0,12,601.6,682.1)" />
<use xlink:href="#f2_25" transform="matrix(12,0,0,12,615.8,682.1)" />
<use xlink:href="#f2_2e" transform="matrix(12,0,0,12,620.9,682.1)" />
<use xlink:href="#f2_2e" transform="matrix(12,0,0,12,627,682.1)" />
<use xlink:href="#f2_2b" transform="matrix(12,0,0,12,633.1,682.1)" />
<use xlink:href="#f2_2e" transform="matrix(12,0,0,12,642.3,682.1)" />
<use xlink:href="#f2_2b" transform="matrix(12,0,0,12,653,682.1)" />
<use xlink:href="#f2_22" transform="matrix(12,0,0,12,662.2,682.1)" />
<use xlink:href="#f2_2e" transform="matrix(12,0,0,12,672.9,682.1)" />
<use xlink:href="#f2_1x" transform="matrix(12,0,0,12,679,682.1)" />
<use xlink:href="#f2_20" transform="matrix(12,0,0,12,687,682.1)" />
<use xlink:href="#f2_25" transform="matrix(12,0,0,12,696.2,682.1)" />
<use xlink:href="#f2_2h" transform="matrix(12,0,0,12,701.3,682.1)" />
<use xlink:href="#f2_2f" transform="matrix(12,0,0,12,710.5,682.1)" />
<use xlink:href="#f2_2b" transform="matrix(12,0,0,12,722.2,682.1)" />
<use xlink:href="#f2_22" transform="matrix(12,0,0,12,731.4,682.1)" />
<use xlink:href="#f2_1z" transform="matrix(12,0,0,12,742.1,682.1)" />
<use xlink:href="#f2_2h" transform="matrix(12,0,0,12,750.2,682.1)" />
<use xlink:href="#f2_2e" transform="matrix(12,0,0,12,759.4,682.1)" />
<use xlink:href="#f2_2i" transform="matrix(12,0,0,12,765.5,682.1)" />
<use xlink:href="#f2_1x" transform="matrix(12,0,0,12,774.6,682.1)" />
<use xlink:href="#f2_2g" transform="matrix(12,0,0,12,782.7,682.1)" />
<use xlink:href="#f2_2h" transform="matrix(12,0,0,12,787.8,682.1)" />
<use xlink:href="#f2_2e" transform="matrix(12,0,0,12,797,682.1)" />
<use xlink:href="#f2_21" transform="matrix(12,0,0,12,803.1,682.1)" />
<use xlink:href="#f2_m" transform="matrix(12,0,0,12,815.9,682.1)" />
<use xlink:href="#f2_k" transform="matrix(12,0,0,12,825,682.1)" />
<use xlink:href="#f2_1z" transform="matrix(12,0,0,12,55,704.8)" />
<use xlink:href="#f2_29" transform="matrix(12,0,0,12,63.1,704.8)" />
<use xlink:href="#f2_i" transform="matrix(12,0,0,12,77.3,704.8)" />
<use xlink:href="#f2_1k" transform="matrix(12,0,0,12,86.4,704.8)" />
<use xlink:href="#f2_24" transform="matrix(12,0,0,12,97.6,704.8)" />
<use xlink:href="#f2_21" transform="matrix(12,0,0,12,106.8,704.8)" />
<use xlink:href="#f2_2g" transform="matrix(12,0,0,12,119.5,704.8)" />
<use xlink:href="#f2_2j" transform="matrix(12,0,0,12,124.6,704.8)" />
<use xlink:href="#f2_2b" transform="matrix(12,0,0,12,137.9,704.8)" />
<use xlink:href="#f2_1x" transform="matrix(12,0,0,12,151.7,704.8)" />
<use xlink:href="#f2_2e" transform="matrix(12,0,0,12,159.8,704.8)" />
<use xlink:href="#f2_21" transform="matrix(12,0,0,12,166,704.8)" />
<use xlink:href="#f2_27" transform="matrix(12,0,0,12,178.7,704.8)" />
<use xlink:href="#f2_21" transform="matrix(12,0,0,12,187.9,704.8)" />
<use xlink:href="#f2_2c" transform="matrix(12,0,0,12,196,704.8)" />
<use xlink:href="#f2_2g" transform="matrix(12,0,0,12,205.1,704.8)" />
<use xlink:href="#f2_1x" transform="matrix(12,0,0,12,214.8,704.8)" />
<use xlink:href="#f2_2g" transform="matrix(12,0,0,12,222.9,704.8)" />
<use xlink:href="#f2_l" transform="matrix(12,0,0,12,232.6,704.8)" />
<use xlink:href="#f2_p" transform="matrix(12,0,0,12,241.8,704.8)" />
<use xlink:href="#f2_1z" transform="matrix(12,0,0,12,255.5,704.8)" />
<use xlink:href="#f2_29" transform="matrix(12,0,0,12,263.7,704.8)" />
<use xlink:href="#f2_22" transform="matrix(12,0,0,12,282.4,704.8)" />
<use xlink:href="#f2_2e" transform="matrix(12,0,0,12,288.5,704.8)" />
<use xlink:href="#f2_2b" transform="matrix(12,0,0,12,294.7,704.8)" />
<use xlink:href="#f2_29" transform="matrix(12,0,0,12,303.9,704.8)" />
<use xlink:href="#f2_21" transform="matrix(12,0,0,12,322.6,704.8)" />
<use xlink:href="#f2_1x" transform="matrix(12,0,0,12,330.8,704.8)" />
<use xlink:href="#f2_1z" transform="matrix(12,0,0,12,338.9,704.8)" />
<use xlink:href="#f2_24" transform="matrix(12,0,0,12,347.1,704.8)" />
<use xlink:href="#f2_2b" transform="matrix(12,0,0,12,360.9,704.8)" />
<use xlink:href="#f2_2g" transform="matrix(12,0,0,12,370,704.8)" />
<use xlink:href="#f2_24" transform="matrix(12,0,0,12,375.1,704.8)" />
<use xlink:href="#f2_21" transform="matrix(12,0,0,12,384.3,704.8)" />
<use xlink:href="#f2_2e" transform="matrix(12,0,0,12,392.4,704.8)" />
<use xlink:href="#f2_i" transform="matrix(12,0,0,12,398.5,704.8)" />
<use xlink:href="#f2_11" transform="matrix(12,0,0,12,407.6,704.8)" />
<use xlink:href="#f2_2c" transform="matrix(12,0,0,12,425.4,704.8)" />
<use xlink:href="#f2_2b" transform="matrix(12,0,0,12,434.6,704.8)" />
<use xlink:href="#f2_25" transform="matrix(12,0,0,12,443.8,704.8)" />
<use xlink:href="#f2_2a" transform="matrix(12,0,0,12,448.9,704.8)" />
<use xlink:href="#f2_2g" transform="matrix(12,0,0,12,458,704.8)" />
<use xlink:href="#f2_2b" transform="matrix(12,0,0,12,467.7,704.8)" />
<use xlink:href="#f2_1y" transform="matrix(12,0,0,12,476.9,704.8)" />
<use xlink:href="#f2_26" transform="matrix(12,0,0,12,486,704.8)" />
<use xlink:href="#f2_21" transform="matrix(12,0,0,12,491.2,704.8)" />
<use xlink:href="#f2_1z" transform="matrix(12,0,0,12,499.3,704.8)" />
<use xlink:href="#f2_2g" transform="matrix(12,0,0,12,507.4,704.8)" />
<use xlink:href="#f2_28" transform="matrix(12,0,0,12,517.1,704.8)" />
<use xlink:href="#f2_25" transform="matrix(12,0,0,12,522.2,704.8)" />
<use xlink:href="#f2_21" transform="matrix(12,0,0,12,527.3,704.8)" />
<use xlink:href="#f2_2f" transform="matrix(12,0,0,12,535.4,704.8)" />
<use xlink:href="#f2_q" transform="matrix(12,0,0,12,547.2,704.8)" />
<use xlink:href="#f2_k" transform="matrix(12,0,0,12,556.3,704.8)" />
<use xlink:href="#f2_1z" transform="matrix(12,0,0,12,570.1,704.8)" />
<use xlink:href="#f2_29" transform="matrix(12,0,0,12,578.2,704.8)" />
<use xlink:href="#f2_25" transform="matrix(12,0,0,12,597,704.8)" />
<use xlink:href="#f2_2a" transform="matrix(12,0,0,12,602,704.8)" />
<use xlink:href="#f2_22" transform="matrix(12,0,0,12,615.8,704.8)" />
<use xlink:href="#f2_2e" transform="matrix(12,0,0,12,621.9,704.8)" />
<use xlink:href="#f2_2b" transform="matrix(12,0,0,12,628,704.8)" />
<use xlink:href="#f2_2a" transform="matrix(12,0,0,12,637.2,704.8)" />
<use xlink:href="#f2_2g" transform="matrix(12,0,0,12,646.3,704.8)" />
<use xlink:href="#f2_2b" transform="matrix(12,0,0,12,656.1,704.8)" />
<use xlink:href="#f2_22" transform="matrix(12,0,0,12,665.2,704.8)" />
<use xlink:href="#f2_2g" transform="matrix(12,0,0,12,675.9,704.8)" />
<use xlink:href="#f2_24" transform="matrix(12,0,0,12,680.9,704.8)" />
<use xlink:href="#f2_21" transform="matrix(12,0,0,12,690.1,704.8)" />
<use xlink:href="#f2_1z" transform="matrix(12,0,0,12,702.8,704.8)" />
<use xlink:href="#f2_2b" transform="matrix(12,0,0,12,710.9,704.8)" />
<use xlink:href="#f2_2a" transform="matrix(12,0,0,12,720.1,704.8)" />
<use xlink:href="#f2_2i" transform="matrix(12,0,0,12,729.3,704.8)" />
<use xlink:href="#f2_21" transform="matrix(12,0,0,12,738.4,704.8)" />
<use xlink:href="#f2_2k" transform="matrix(12,0,0,12,746.6,704.8)" />
<use xlink:href="#f2_28" transform="matrix(12,0,0,12,760.4,704.8)" />
<use xlink:href="#f2_21" transform="matrix(12,0,0,12,765.5,704.8)" />
<use xlink:href="#f2_2a" transform="matrix(12,0,0,12,773.6,704.8)" />
<use xlink:href="#f2_2f" transform="matrix(12,0,0,12,782.8,704.8)" />
<use xlink:href="#f2_i" transform="matrix(12,0,0,12,789.9,704.8)" />
<use xlink:href="#f2_14" transform="matrix(12,0,0,12,799.1,704.8)" />
<use xlink:href="#f2_2e" transform="matrix(12,0,0,12,812.2,704.8)" />
<use xlink:href="#f2_1x" transform="matrix(12,0,0,12,818.3,704.8)" />
<use xlink:href="#f2_2j" transform="matrix(12,0,0,12,826.5,704.8)" />
<use xlink:href="#f2_1x" transform="matrix(12,0,0,12,844.3,704.8)" />
<use xlink:href="#f2_2e" transform="matrix(12,0,0,12,55,727.5)" />
<use xlink:href="#f2_1x" transform="matrix(12,0,0,12,61.1,727.5)" />
<use xlink:href="#f2_2l" transform="matrix(12,0,0,12,69.2,727.5)" />
<use xlink:href="#f2_20" transform="matrix(12,0,0,12,83,727.5)" />
<use xlink:href="#f2_25" transform="matrix(12,0,0,12,92.2,727.5)" />
<use xlink:href="#f2_1x" transform="matrix(12,0,0,12,97.3,727.5)" />
<use xlink:href="#f2_23" transform="matrix(12,0,0,12,105.4,727.5)" />
<use xlink:href="#f2_2e" transform="matrix(12,0,0,12,114.6,727.5)" />
<use xlink:href="#f2_1x" transform="matrix(12,0,0,12,120.7,727.5)" />
<use xlink:href="#f2_29" transform="matrix(12,0,0,12,128.8,727.5)" />
<use xlink:href="#f2_2g" transform="matrix(12,0,0,12,147.6,727.5)" />
<use xlink:href="#f2_2b" transform="matrix(12,0,0,12,152.7,727.5)" />
<use xlink:href="#f2_2f" transform="matrix(12,0,0,12,166.5,727.5)" />
<use xlink:href="#f2_24" transform="matrix(12,0,0,12,173.6,727.5)" />
<use xlink:href="#f2_2b" transform="matrix(12,0,0,12,182.8,727.5)" />
<use xlink:href="#f2_2j" transform="matrix(12,0,0,12,192,727.5)" />
<use xlink:href="#f2_2g" transform="matrix(12,0,0,12,209.8,727.5)" />
<use xlink:href="#f2_24" transform="matrix(12,0,0,12,214.9,727.5)" />
<use xlink:href="#f2_21" transform="matrix(12,0,0,12,224.1,727.5)" />
<use xlink:href="#f2_22" transform="matrix(12,0,0,12,236.7,727.5)" />
<use xlink:href="#f2_2b" transform="matrix(12,0,0,12,242.8,727.5)" />
<use xlink:href="#f2_2e" transform="matrix(12,0,0,12,252,727.5)" />
<use xlink:href="#f2_29" transform="matrix(12,0,0,12,258.2,727.5)" />
<use xlink:href="#f2_1x" transform="matrix(12,0,0,12,272.3,727.5)" />
<use xlink:href="#f2_2g" transform="matrix(12,0,0,12,280.4,727.5)" />
<use xlink:href="#f2_25" transform="matrix(12,0,0,12,285.5,727.5)" />
<use xlink:href="#f2_2b" transform="matrix(12,0,0,12,290.7,727.5)" />
<use xlink:href="#f2_2a" transform="matrix(12,0,0,12,299.8,727.5)" />
<use xlink:href="#f2_2b" transform="matrix(12,0,0,12,313.6,727.5)" />
<use xlink:href="#f2_22" transform="matrix(12,0,0,12,322.8,727.5)" />
<use xlink:href="#f2_2g" transform="matrix(12,0,0,12,333.4,727.5)" />
<use xlink:href="#f2_24" transform="matrix(12,0,0,12,338.5,727.5)" />
<use xlink:href="#f2_21" transform="matrix(12,0,0,12,347.7,727.5)" />
<use xlink:href="#f2_25" transform="matrix(12,0,0,12,360.4,727.5)" />
<use xlink:href="#f2_29" transform="matrix(12,0,0,12,365.5,727.5)" />
<use xlink:href="#f2_1x" transform="matrix(12,0,0,12,379.7,727.5)" />
<use xlink:href="#f2_23" transform="matrix(12,0,0,12,387.8,727.5)" />
<use xlink:href="#f2_21" transform="matrix(12,0,0,12,397,727.5)" />
<use xlink:href="#f2_1y" transform="matrix(12,0,0,12,409.7,727.5)" />
<use xlink:href="#f2_2l" transform="matrix(12,0,0,12,418.9,727.5)" />
<use xlink:href="#f2_2g" transform="matrix(12,0,0,12,432.6,727.5)" />
<use xlink:href="#f2_24" transform="matrix(12,0,0,12,437.8,727.5)" />
<use xlink:href="#f2_21" transform="matrix(12,0,0,12,446.9,727.5)" />
<use xlink:href="#f2_1z" transform="matrix(12,0,0,12,459.7,727.5)" />
<use xlink:href="#f2_2b" transform="matrix(12,0,0,12,467.8,727.5)" />
<use xlink:href="#f2_29" transform="matrix(12,0,0,12,477,727.5)" />
<use xlink:href="#f2_1y" transform="matrix(12,0,0,12,491.1,727.5)" />
<use xlink:href="#f2_25" transform="matrix(12,0,0,12,500.3,727.5)" />
<use xlink:href="#f2_2a" transform="matrix(12,0,0,12,505.4,727.5)" />
<use xlink:href="#f2_1x" transform="matrix(12,0,0,12,514.5,727.5)" />
<use xlink:href="#f2_2g" transform="matrix(12,0,0,12,522.7,727.5)" />
<use xlink:href="#f2_25" transform="matrix(12,0,0,12,527.9,727.5)" />
<use xlink:href="#f2_2b" transform="matrix(12,0,0,12,533,727.5)" />
<use xlink:href="#f2_2a" transform="matrix(12,0,0,12,542.1,727.5)" />
<use xlink:href="#f2_i" transform="matrix(12,0,0,12,551.3,727.5)" />
<use xlink:href="#f2_14" transform="matrix(12,0,0,12,560.5,727.5)" />
<use xlink:href="#f2_21" transform="matrix(12,0,0,12,573.7,727.5)" />
<use xlink:href="#f2_2g" transform="matrix(12,0,0,12,581.8,727.5)" />
<use xlink:href="#f2_21" transform="matrix(12,0,0,12,586.9,727.5)" />
<use xlink:href="#f2_2e" transform="matrix(12,0,0,12,595,727.5)" />
<use xlink:href="#f2_29" transform="matrix(12,0,0,12,601.1,727.5)" />
<use xlink:href="#f2_25" transform="matrix(12,0,0,12,615.2,727.5)" />
<use xlink:href="#f2_2a" transform="matrix(12,0,0,12,620.3,727.5)" />
<use xlink:href="#f2_21" transform="matrix(12,0,0,12,629.5,727.5)" />
<use xlink:href="#f2_2g" transform="matrix(12,0,0,12,642.2,727.5)" />
<use xlink:href="#f2_24" transform="matrix(12,0,0,12,647.4,727.5)" />
<use xlink:href="#f2_21" transform="matrix(12,0,0,12,656.5,727.5)" />
<use xlink:href="#f2_2a" transform="matrix(12,0,0,12,669.3,727.5)" />
<use xlink:href="#f2_1x" transform="matrix(12,0,0,12,678.4,727.5)" />
<use xlink:href="#f2_2g" transform="matrix(12,0,0,12,686.6,727.5)" />
<use xlink:href="#f2_2h" transform="matrix(12,0,0,12,691.7,727.5)" />
<use xlink:href="#f2_2e" transform="matrix(12,0,0,12,700.9,727.5)" />
<use xlink:href="#f2_21" transform="matrix(12,0,0,12,707,727.5)" />
<use xlink:href="#f2_1x" transform="matrix(12,0,0,12,719.7,727.5)" />
<use xlink:href="#f2_2a" transform="matrix(12,0,0,12,727.9,727.5)" />
<use xlink:href="#f2_20" transform="matrix(12,0,0,12,737.1,727.5)" />
<use xlink:href="#f2_2c" transform="matrix(12,0,0,12,750.8,727.5)" />
<use xlink:href="#f2_2b" transform="matrix(12,0,0,12,760,727.5)" />
<use xlink:href="#f2_2f" transform="matrix(12,0,0,12,769.1,727.5)" />
<use xlink:href="#f2_25" transform="matrix(12,0,0,12,776.2,727.5)" />
<use xlink:href="#f2_2g" transform="matrix(12,0,0,12,781.3,727.5)" />
<use xlink:href="#f2_25" transform="matrix(12,0,0,12,786.5,727.5)" />
<use xlink:href="#f2_2b" transform="matrix(12,0,0,12,791.6,727.5)" />
<use xlink:href="#f2_2a" transform="matrix(12,0,0,12,800.7,727.5)" />
<use xlink:href="#f2_2b" transform="matrix(12,0,0,12,814.5,727.5)" />
<use xlink:href="#f2_22" transform="matrix(12,0,0,12,823.6,727.5)" />
<use xlink:href="#f2_2g" transform="matrix(12,0,0,12,55,750.3)" />
<use xlink:href="#f2_24" transform="matrix(12,0,0,12,60.1,750.3)" />
<use xlink:href="#f2_21" transform="matrix(12,0,0,12,69.3,750.3)" />
<use xlink:href="#f2_25" transform="matrix(12,0,0,12,82,750.3)" />
<use xlink:href="#f2_29" transform="matrix(12,0,0,12,87.2,750.3)" />
<use xlink:href="#f2_1x" transform="matrix(12,0,0,12,101.3,750.3)" />
<use xlink:href="#f2_23" transform="matrix(12,0,0,12,109.4,750.3)" />
<use xlink:href="#f2_21" transform="matrix(12,0,0,12,118.6,750.3)" />
<use xlink:href="#f2_22" transform="matrix(12,0,0,12,131.3,750.3)" />
<use xlink:href="#f2_2b" transform="matrix(12,0,0,12,137.4,750.3)" />
<use xlink:href="#f2_2e" transform="matrix(12,0,0,12,146.6,750.3)" />
<use xlink:href="#f2_29" transform="matrix(12,0,0,12,152.7,750.3)" />
<use xlink:href="#f2_21" transform="matrix(12,0,0,12,166.9,750.3)" />
<use xlink:href="#f2_20" transform="matrix(12,0,0,12,175,750.3)" />
<use xlink:href="#f2_i" transform="matrix(12,0,0,12,184.2,750.3)" />
<use xlink:href="#f5_1j" transform="matrix(12,0,0,12,55,773)" />
<use xlink:href="#f5_2b" transform="matrix(12,0,0,12,65.2,773)" />
<use xlink:href="#f5_28" transform="matrix(12,0,0,12,74.4,773)" />
<use xlink:href="#f5_2h" transform="matrix(12,0,0,12,79.5,773)" />
<use xlink:href="#f5_2g" transform="matrix(12,0,0,12,89.7,773)" />
<use xlink:href="#f5_25" transform="matrix(12,0,0,12,95.8,773)" />
<use xlink:href="#f5_2b" transform="matrix(12,0,0,12,100.9,773)" />
<use xlink:href="#f5_2a" transform="matrix(12,0,0,12,110.1,773)" />
<use xlink:href="#f5_u" transform="matrix(12,0,0,12,120.3,773)" />
<use xlink:href="#f2_1i" transform="matrix(12,0,0,12,55,798)" />
<use xlink:href="#f2_1x" transform="matrix(12,0,0,12,67.2,798)" />
<use xlink:href="#f2_2l" transform="matrix(12,0,0,12,75.4,798)" />
<use xlink:href="#f2_20" transform="matrix(12,0,0,12,89.1,798)" />
<use xlink:href="#f2_25" transform="matrix(12,0,0,12,98.3,798)" />
<use xlink:href="#f2_1x" transform="matrix(12,0,0,12,103.4,798)" />
<use xlink:href="#f2_23" transform="matrix(12,0,0,12,111.5,798)" />
<use xlink:href="#f2_2e" transform="matrix(12,0,0,12,120.7,798)" />
<use xlink:href="#f2_1x" transform="matrix(12,0,0,12,126.8,798)" />
<use xlink:href="#f2_29" transform="matrix(12,0,0,12,134.9,798)" />
</g>
<path fill-rule="evenodd" d="M45.9,779.4h.8v-.7h-.8v.7Z" class="g12_154" />
<path fill-rule="evenodd" d="M45.9,779.4h.8v-.7h-.8v.7Z" class="g12_154" />
<path fill-rule="evenodd" d="M46.7,779.4H862.9v-.7H46.7v.7Z" class="g12_154" />
<path fill-rule="evenodd" d="M863,779.4h.7v-.7H863v.7Z" class="g12_154" />
<path fill-rule="evenodd" d="M863,779.4h.7v-.7H863v.7Z" class="g12_154" />
<path fill-rule="evenodd" d="M45.9,803.7h.8V779.4h-.8v24.3Z" class="g12_154" />
<path fill-rule="evenodd" d="M863,803.7h.7V779.4H863v24.3Z" class="g12_154" />
<g fill="#000000" >
<use xlink:href="#f2_1e" transform="matrix(12,0,0,12,55,820.8)" />
<use xlink:href="#f2_1x" transform="matrix(12,0,0,12,68.2,820.8)" />
<use xlink:href="#f2_2g" transform="matrix(12,0,0,12,76.4,820.8)" />
<use xlink:href="#f2_2h" transform="matrix(12,0,0,12,81.5,820.8)" />
<use xlink:href="#f2_2e" transform="matrix(12,0,0,12,90.6,820.8)" />
<use xlink:href="#f2_21" transform="matrix(12,0,0,12,96.8,820.8)" />
<use xlink:href="#f2_2b" transform="matrix(12,0,0,12,109.5,820.8)" />
<use xlink:href="#f2_22" transform="matrix(12,0,0,12,118.7,820.8)" />
<use xlink:href="#f2_22" transform="matrix(12,0,0,12,129.4,820.8)" />
<use xlink:href="#f2_25" transform="matrix(12,0,0,12,135.4,820.8)" />
<use xlink:href="#f2_2a" transform="matrix(12,0,0,12,140.5,820.8)" />
<use xlink:href="#f2_1x" transform="matrix(12,0,0,12,149.6,820.8)" />
<use xlink:href="#f2_28" transform="matrix(12,0,0,12,157.8,820.8)" />
<use xlink:href="#f2_25" transform="matrix(12,0,0,12,167.5,820.8)" />
<use xlink:href="#f2_29" transform="matrix(12,0,0,12,172.6,820.8)" />
<use xlink:href="#f2_1x" transform="matrix(12,0,0,12,186.8,820.8)" />
<use xlink:href="#f2_23" transform="matrix(12,0,0,12,194.9,820.8)" />
<use xlink:href="#f2_21" transform="matrix(12,0,0,12,204.1,820.8)" />
</g>
<path fill-rule="evenodd" d="M45.9,826.4h.8V803.7h-.8v22.7Z" class="g12_154" />
<path fill-rule="evenodd" d="M863,826.4h.7V803.7H863v22.7Z" class="g12_154" />
<g fill="#000000" >
<use xlink:href="#f2_1g" transform="matrix(12,0,0,12,55,843.6)" />
<use xlink:href="#f2_2b" transform="matrix(12,0,0,12,65.2,843.6)" />
<use xlink:href="#f2_2f" transform="matrix(12,0,0,12,74.4,843.6)" />
<use xlink:href="#f2_25" transform="matrix(12,0,0,12,81.5,843.6)" />
<use xlink:href="#f2_2g" transform="matrix(12,0,0,12,86.6,843.6)" />
<use xlink:href="#f2_25" transform="matrix(12,0,0,12,91.7,843.6)" />
<use xlink:href="#f2_2b" transform="matrix(12,0,0,12,96.8,843.6)" />
<use xlink:href="#f2_2a" transform="matrix(12,0,0,12,106,843.6)" />
<use xlink:href="#f2_2b" transform="matrix(12,0,0,12,119.8,843.6)" />
<use xlink:href="#f2_22" transform="matrix(12,0,0,12,128.9,843.6)" />
<use xlink:href="#f2_22" transform="matrix(12,0,0,12,139.6,843.6)" />
<use xlink:href="#f2_25" transform="matrix(12,0,0,12,145.6,843.6)" />
<use xlink:href="#f2_2a" transform="matrix(12,0,0,12,150.7,843.6)" />
<use xlink:href="#f2_1x" transform="matrix(12,0,0,12,159.9,843.6)" />
<use xlink:href="#f2_28" transform="matrix(12,0,0,12,168,843.6)" />
<use xlink:href="#f2_25" transform="matrix(12,0,0,12,177.7,843.6)" />
<use xlink:href="#f2_29" transform="matrix(12,0,0,12,182.8,843.6)" />
<use xlink:href="#f2_1x" transform="matrix(12,0,0,12,197,843.6)" />
<use xlink:href="#f2_23" transform="matrix(12,0,0,12,205.1,843.6)" />
<use xlink:href="#f2_21" transform="matrix(12,0,0,12,214.3,843.6)" />
</g>
<path fill-rule="evenodd" d="M45.9,851.4h.8v-.8h-.8v.8Z" class="g12_154" />
<path fill-rule="evenodd" d="M45.9,851.4h.8v-.8h-.8v.8Z" class="g12_154" />
<path fill-rule="evenodd" d="M46.7,851.4H862.9v-.8H46.7v.8Z" class="g12_154" />
<path fill-rule="evenodd" d="M863,851.4h.7v-.8H863v.8Z" class="g12_154" />
<path fill-rule="evenodd" d="M863,851.4h.7v-.8H863v.8Z" class="g12_154" />
<path fill-rule="evenodd" d="M45.9,850.6h.8V826.4h-.8v24.2Z" class="g12_154" />
<path fill-rule="evenodd" d="M863,850.6h.7V826.4H863v24.2Z" class="g12_154" />
<image preserveAspectRatio="none" x="55" y="851" width="799" height="294" xlink:href="img/6.png" />
<path fill-rule="evenodd" d="M37.4,38.1h.7v-.7h-.7v.7Z" class="g12_154" />
<path fill-rule="evenodd" d="M37.4,38.1h.7v-.7h-.7v.7Z" class="g12_154" />
<path fill-rule="evenodd" d="M38.1,38.1H871.5v-.7H38.1v.7Z" class="g12_154" />
<path fill-rule="evenodd" d="M871.5,38.1h.7v-.7h-.7v.7Z" class="g12_154" />
<path fill-rule="evenodd" d="M871.5,38.1h.7v-.7h-.7v.7Z" class="g12_154" />
<path fill-rule="evenodd" d="M37.4,1248.2h.7V38.1h-.7V1248.2Z" class="g12_154" />
<path fill-rule="evenodd" d="M872.2,1248.2h.8V38.1h-.8V1248.2Z" class="g12_154" />
<path fill-rule="evenodd" d="M871.5,1248.2h.7V38.1h-.7V1248.2Z" class="g12_154" />
<path fill-rule="evenodd" d="M37.4,1249h.7v-.8h-.7v.8Z" class="g12_154" />
<path fill-rule="evenodd" d="M37.4,1249h.7v-.8h-.7v.8Z" class="g12_154" />
<path fill-rule="evenodd" d="M38.1,1249.7H871.5v-.7H38.1v.7Z" class="g12_154" />
<path fill-rule="evenodd" d="M38.1,1249H871.5v-.8H38.1v.8Z" class="g12_154" />
<path fill-rule="evenodd" d="M872.2,1249.7h.8v-1.5h-.8v1.5Z" class="g12_154" />
<path fill-rule="evenodd" d="M871.5,1249.7H873v-.7h-1.5v.7Z" class="g12_154" />
<path fill-rule="evenodd" d="M871.5,1249h.7v-.8h-.7v.8Z" class="g12_154" />
<path fill-rule="evenodd" d="M871.5,1249h.7v-.8h-.7v.8Z" class="g12_154" />
<defs>
<path d="M489,-15c0,0,-99,0,-179,30c0,0,-80,30,-136,91c0,0,-56,61,-85,152c0,0,-30,91,-30,212c0,0,0,123,32,218c0,0,33,96,92,161c0,0,59,65,142,98c0,0,82,34,181,34c0,0,40,0,78,-7c0,0,37,-7,69,-18c0,0,31,-11,57,-25c0,0,25,-14,35,-24c0,0,10,-10,14,-17c0,0,4,-7,6,-17c0,0,2,-11,3,-25c0,0,2,-14,2,-35c0,0,0,-22,-2,-38c0,0,-1,-15,-5,-25c0,0,-4,-10,-9,-14c0,0,-5,-5,-12,-5c0,0,-11,0,-28,13c0,0,-18,13,-45,29c0,0,-27,16,-65,29c0,0,-37,13,-89,13c0,0,-58,0,-103,-23c0,0,-45,-23,-77,-67c0,0,-31,-44,-48,-106c0,0,-16,-61,-16,-139c0,0,0,-85,17,-147c0,0,18,-62,50,-103c0,0,33,-40,79,-60c0,0,45,-19,103,-19c0,0,52,0,90,12c0,0,38,12,65,27c0,0,27,15,45,27c0,0,17,12,27,12c0,0,8,0,12,-3c0,0,4,-3,7,-12c0,0,3,-9,5,-25c0,0,1,-16,1,-43c0,0,0,-18,-1,-31c0,0,-1,-14,-3,-23c0,0,-2,-9,-6,-16c0,0,-4,-7,-12,-15c0,0,-8,-9,-32,-22c0,0,-23,-14,-57,-26C661,13,627,1,583,-6c0,0,-43,-9,-94,-9Z" 
id="f0_j"
transform="scale(0.001,-0.001)" />

<path d="M440,150c0,0,41,0,68,8c0,0,28,9,49,26c0,0,20,16,32,41c0,0,11,25,11,58c0,0,0,33,-11,60c0,0,-11,26,-33,44c0,0,-21,18,-55,28c0,0,-33,9,-87,9H298V150ZM407,567c0,0,42,0,68,10c0,0,25,10,42,28c0,0,16,17,24,41c0,0,9,24,9,50c0,0,0,29,-9,52c0,0,-9,23,-27,39c0,0,-18,15,-45,23c0,0,-27,8,-72,8H298V567ZM164,0c0,0,-25,0,-42,15c0,0,-16,14,-16,47V903c0,0,0,33,16,48c0,0,17,14,42,14H406c0,0,88,0,150,-15c0,0,61,-15,103,-45c0,0,42,-30,65,-77c0,0,22,-46,22,-108c0,0,0,-36,-9,-67c0,0,-9,-31,-26,-56c0,0,-17,-25,-42,-45c0,0,-25,-19,-57,-31c0,0,41,-7,76,-26c0,0,34,-19,60,-48c0,0,26,-30,41,-69c0,0,15,-40,15,-89c0,0,0,-51,-14,-93c0,0,-15,-42,-40,-74c0,0,-25,-32,-59,-55c0,0,-35,-23,-77,-38C614,29,573,14,525,7C525,7,478,0,420,0Z" 
id="f0_i"
transform="scale(0.001,-0.001)" />

<path d="M320,-17c0,0,-50,0,-93,9c0,0,-43,8,-76,19c0,0,-32,11,-54,24C97,35,75,48,65,58c0,0,-10,9,-14,28c0,0,-4,18,-4,52c0,0,0,23,1,39c0,0,2,15,5,25c0,0,4,10,9,14c0,0,6,4,13,4c0,0,11,0,30,-12c0,0,19,-13,49,-28c0,0,30,-15,71,-27c0,0,42,-12,96,-12c0,0,36,0,64,8c0,0,29,9,49,25c0,0,19,15,30,38c0,0,10,23,10,52c0,0,0,33,-18,56c0,0,-18,24,-46,42c0,0,-29,18,-66,34c0,0,-36,16,-75,34c0,0,-39,18,-76,41c0,0,-36,23,-65,54c0,0,-29,32,-47,75c0,0,-17,44,-17,104c0,0,0,70,25,122c0,0,26,53,70,88c0,0,43,34,103,51c0,0,59,18,125,18c0,0,35,0,69,-6c0,0,34,-5,64,-14c0,0,30,-9,53,-20c0,0,23,-11,31,-18c0,0,7,-8,10,-13c0,0,3,-5,4,-14c0,0,2,-8,3,-21c0,0,1,-13,1,-33c0,0,0,-21,-1,-36c0,0,-1,-15,-4,-25c0,0,-3,-9,-7,-14c0,0,-5,-4,-14,-4c0,0,-8,0,-26,10c0,0,-18,10,-44,23c0,0,-26,12,-60,22c0,0,-34,10,-75,10c0,0,-32,0,-56,-8c0,0,-24,-8,-40,-21c0,0,-16,-14,-24,-34c0,0,-8,-19,-8,-41c0,0,0,-32,18,-56c0,0,17,-23,46,-42c0,0,30,-18,67,-34c0,0,38,-16,76,-34c0,0,39,-18,76,-41c0,0,38,-22,67,-54c0,0,29,-32,47,-75c0,0,18,-43,18,-101c0,0,0,-76,-29,-133c0,0,-28,-58,-77,-96C572,60,524,21,459,2c0,0,-65,-19,-139,-19Z" 
id="f0_2n"
transform="scale(0.001,-0.001)" />

<path d="M164,0c0,0,-25,0,-42,15c0,0,-16,14,-16,47V903c0,0,0,33,16,48c0,0,17,14,42,14H645c0,0,7,0,12,-4c0,0,5,-3,9,-13c0,0,4,-9,6,-24c0,0,2,-14,2,-36c0,0,0,-21,-2,-36c0,0,-2,-14,-6,-23c0,0,-4,-9,-9,-13c0,0,-5,-4,-12,-4H301V576H593c0,0,6,0,12,-4c0,0,6,-4,9,-13c0,0,4,-8,6,-23c0,0,2,-14,2,-35c0,0,0,-22,-2,-36c0,0,-2,-14,-6,-23c0,0,-3,-8,-9,-12c0,0,-6,-4,-12,-4H301V154H649c0,0,6,0,12,-5c0,0,5,-4,9,-13c0,0,4,-9,6,-23c0,0,2,-15,2,-36c0,0,0,-22,-2,-36c0,0,-2,-15,-6,-24c0,0,-4,-9,-9,-13c0,0,-6,-4,-12,-4Z" 
id="f0_t"
transform="scale(0.001,-0.001)" />

<path d="M79,297c0,0,-19,0,-27,18c0,0,-8,17,-8,60c0,0,0,41,8,59c0,0,8,17,27,17H389c0,0,9,0,15,-4c0,0,7,-4,11,-13c0,0,5,-9,7,-23c0,0,1,-15,1,-36c0,0,0,-43,-8,-61c0,0,-8,-17,-26,-17Z" 
id="f0_oj"
transform="scale(0.001,-0.001)" />

<path d="M121,-4c0,0,-39,0,-60,2C61,-2,39,0,32,8c0,0,-8,8,-3,24c0,0,4,15,18,41L279,495L64,892c0,0,-14,26,-19,42c0,0,-5,17,4,24c0,0,9,8,32,10c0,0,23,2,65,2c0,0,35,0,56,-2c0,0,20,-1,32,-4c0,0,12,-4,17,-10c0,0,5,-6,9,-15L431,620L595,939c0,0,5,9,10,15c0,0,5,6,16,10c0,0,10,3,29,4c0,0,19,2,53,2c0,0,37,0,59,-2c0,0,22,-2,30,-10c0,0,8,-8,4,-24c0,0,-4,-16,-17,-42L564,497L793,73c0,0,14,-26,18,-41c0,0,4,-16,-5,-24c0,0,-9,-8,-32,-10c0,0,-24,-2,-65,-2c0,0,-36,0,-56,2c0,0,-20,1,-31,3c0,0,-12,4,-17,10c0,0,-5,6,-9,15L414,374L233,26c0,0,-4,-9,-9,-15c0,0,-6,-6,-17,-10c0,0,-12,-2,-32,-3c0,0,-21,-2,-54,-2Z" 
id="f0_3e"
transform="scale(0.001,-0.001)" />

<path d="M204,-4c0,0,-28,0,-47,2c0,0,-19,2,-31,5c0,0,-11,4,-16,10c0,0,-4,6,-4,13V939c0,0,0,7,4,13c0,0,5,6,17,10c0,0,11,3,30,6c0,0,19,2,47,2c0,0,29,0,48,-2c0,0,18,-3,29,-6c0,0,11,-4,16,-10c0,0,5,-6,5,-13V26c0,0,0,-7,-5,-13c0,0,-5,-6,-16,-10c0,0,-11,-3,-29,-5c0,0,-19,-2,-48,-2Z" 
id="f0_1c"
transform="scale(0.001,-0.001)" />

<path d="M127,0c0,0,-16,0,-28,3C99,3,87,6,80,15c0,0,-8,8,-11,25c0,0,-3,16,-3,42c0,0,0,25,2,42c0,0,2,18,8,32c0,0,6,14,15,27c0,0,9,13,24,29L282,390c0,0,50,53,81,95c0,0,30,43,47,79c0,0,17,35,24,65c0,0,6,30,6,57c0,0,0,24,-8,46c0,0,-8,22,-23,39c0,0,-15,16,-38,25c0,0,-23,10,-55,10c0,0,-44,0,-78,-12c0,0,-33,-11,-59,-25c0,0,-26,-13,-43,-25c0,0,-17,-12,-27,-12c0,0,-7,0,-11,5c0,0,-5,4,-8,15c0,0,-3,10,-5,28c0,0,-2,17,-2,42c0,0,0,18,1,29c0,0,1,12,4,20c0,0,2,9,6,15c0,0,3,6,13,15c0,0,9,9,34,23c0,0,25,14,61,27c0,0,37,14,81,23c0,0,44,9,92,9c0,0,75,0,131,-19c0,0,57,-19,94,-53c0,0,37,-34,55,-81c0,0,19,-47,19,-100c0,0,0,-47,-9,-93c0,0,-9,-45,-37,-98c0,0,-29,-52,-80,-116c0,0,-52,-64,-136,-148L299,159H679c0,0,8,0,14,-4c0,0,6,-5,11,-14c0,0,4,-9,7,-25c0,0,2,-15,2,-36c0,0,0,-22,-2,-37c0,0,-2,-15,-6,-25c0,0,-3,-10,-9,-14c0,0,-6,-4,-14,-4Z" 
id="f0_rz"
transform="scale(0.001,-0.001)" />

<path d="M385,138c0,0,29,0,52,9c0,0,22,10,39,28c0,0,17,19,28,47c0,0,11,29,19,66c0,0,7,37,9,84c0,0,3,47,3,104c0,0,0,69,-4,122c0,0,-4,52,-11,91c0,0,-8,39,-20,66c0,0,-12,27,-28,43c0,0,-16,16,-37,22c0,0,-21,7,-47,7c0,0,-44,0,-73,-21c0,0,-28,-21,-45,-64c0,0,-17,-42,-24,-106c0,0,-6,-63,-6,-148c0,0,0,-103,8,-171c0,0,8,-67,26,-107c0,0,17,-40,45,-56c0,0,27,-16,66,-16ZM378,-17c0,0,-99,0,-164,33c0,0,-65,34,-103,98c0,0,-38,64,-54,156c0,0,-15,92,-15,209c0,0,0,115,19,208c0,0,19,94,61,160c0,0,42,65,110,101c0,0,68,35,165,35c0,0,99,0,164,-34c0,0,65,-34,103,-98c0,0,39,-64,53,-156c0,0,15,-92,15,-209c0,0,0,-115,-18,-209c0,0,-19,-93,-61,-159C653,118,611,53,543,17c0,0,-67,-34,-165,-34Z" 
id="f0_rx"
transform="scale(0.001,-0.001)" />

<path d="M142,0c0,0,-6,0,-12,4c0,0,-5,3,-9,12c0,0,-4,9,-6,23c0,0,-3,15,-3,36c0,0,0,21,2,36c0,0,2,14,6,23c0,0,4,9,10,13c0,0,5,5,12,5H322V779L166,693c0,0,-17,-8,-28,-10c0,0,-1,0,-3,0c-4,0,-10,1,-14,5c0,0,-6,6,-8,22c0,0,-2,15,-2,44c0,0,0,18,0,29c0,0,1,12,4,20c0,0,3,8,8,14c0,0,5,5,14,11L345,962c0,0,4,3,9,5c0,0,6,2,15,3c0,0,9,1,23,2c0,0,15,0,38,0c0,0,28,0,46,-1c0,0,17,-1,26,-4c0,0,9,-3,12,-7c0,0,3,-4,3,-11V152H675c0,0,7,0,12,-5c0,0,6,-4,10,-13c0,0,4,-9,6,-23c0,0,2,-15,2,-36c0,0,0,-21,-2,-36c0,0,-3,-14,-7,-23c0,0,-4,-9,-9,-12c0,0,-5,-4,-12,-4Z" 
id="f0_ry"
transform="scale(0.001,-0.001)" />

<path d="M439,356V801h-1L183,356ZM532,-4c0,0,-27,0,-45,2c0,0,-18,2,-29,5c0,0,-11,3,-15,9c0,0,-4,5,-4,13V199H70c0,0,-11,0,-19,3c0,0,-8,3,-14,12c0,0,-5,9,-8,27c0,0,-3,17,-3,46c0,0,0,24,2,42c0,0,1,17,3,31c0,0,3,15,8,27c0,0,5,13,12,27L351,944c0,0,4,7,13,11c0,0,9,5,25,9c0,0,16,3,40,4c0,0,25,2,60,2c0,0,38,0,65,-2c0,0,27,-2,43,-6c0,0,16,-4,23,-10c0,0,8,-6,8,-14V356h85c0,0,12,0,21,-18c0,0,8,-19,8,-61c0,0,0,-38,-8,-58c0,0,-7,-20,-21,-20H628V25c0,0,0,-8,-5,-13c0,0,-4,-6,-15,-9c0,0,-12,-3,-29,-5c0,0,-18,-2,-47,-2Z" 
id="f0_s1"
transform="scale(0.001,-0.001)" />

<path d="M589,371L453,782h-1L317,371ZM106,-4c0,0,-35,0,-54,2C52,-2,32,0,25,8c0,0,-7,9,-5,24c0,0,2,16,11,42L329,931c0,0,4,13,10,21c0,0,6,7,19,12c0,0,13,4,36,5c0,0,23,1,61,1c0,0,44,0,71,-1c0,0,26,-1,40,-5c0,0,15,-5,21,-13c0,0,6,-8,11,-22L896,73c0,0,9,-27,11,-43c0,0,3,-15,-6,-23c0,0,-8,-7,-29,-9c0,0,-21,-2,-57,-2c0,0,-38,0,-59,1c0,0,-22,1,-33,4c0,0,-11,3,-16,9c0,0,-4,6,-7,16L635,220H272L211,31c0,0,-2,-11,-7,-18c0,0,-5,-7,-16,-11c0,0,-11,-3,-31,-4c0,0,-19,-2,-51,-2Z" 
id="f0_5"
transform="scale(0.001,-0.001)" />

<path d="M198,-4c0,0,-27,0,-45,2c0,0,-18,2,-28,5c0,0,-11,4,-15,10c0,0,-4,6,-4,13V887c0,0,0,38,20,58c0,0,20,20,53,20H308c0,0,34,0,59,-6c0,0,24,-5,42,-18c0,0,18,-13,30,-35c0,0,12,-21,21,-52L669,279h3L889,852c0,0,9,32,21,53c0,0,11,22,27,35c0,0,15,14,36,19c0,0,21,6,48,6h132c0,0,21,0,35,-5c0,0,15,-5,24,-15c0,0,9,-11,14,-25c0,0,5,-15,5,-33V26c0,0,0,-7,-4,-13c0,0,-4,-6,-15,-10c0,0,-11,-3,-29,-5c0,0,-18,-2,-45,-2c0,0,-27,0,-45,2c0,0,-18,2,-28,5c0,0,-11,4,-15,10c0,0,-5,6,-5,13V813h-1L764,27c0,0,-3,-10,-10,-16c0,0,-6,-6,-18,-10c0,0,-12,-3,-29,-4c0,0,-18,-1,-44,-1c0,0,-25,0,-43,2c0,0,-18,2,-29,5c0,0,-12,4,-19,10c0,0,-6,6,-9,14L293,813h-2V26c0,0,0,-7,-4,-13c0,0,-4,-6,-15,-10c0,0,-11,-3,-29,-5c0,0,-17,-2,-45,-2Z" 
id="f0_1x"
transform="scale(0.001,-0.001)" />

<path d="M193,-4c0,0,-26,0,-43,2c0,0,-18,2,-27,6c0,0,-10,4,-14,10c0,0,-3,6,-3,13V895c0,0,0,35,20,53c0,0,21,17,50,17H282c0,0,28,0,47,-5c0,0,20,-5,35,-16c0,0,15,-11,29,-31c0,0,13,-20,27,-49L608,511c0,0,17,-32,33,-63c0,0,16,-31,31,-62c0,0,14,-31,29,-60c0,0,14,-30,27,-60h1c0,0,-2,52,-3,109c0,0,-1,57,-1,108V936c0,0,0,7,4,13c0,0,5,6,15,11c0,0,10,4,28,6c0,0,17,2,44,2c0,0,25,0,42,-2c0,0,17,-2,27,-6c0,0,9,-5,13,-11c0,0,4,-6,4,-13V68c0,0,0,-17,-6,-30c0,0,-6,-14,-17,-23C879,15,869,6,856,2c0,0,-14,-3,-28,-3H744c0,0,-26,0,-45,4c0,0,-19,5,-35,19c0,0,-16,14,-31,38c0,0,-15,23,-34,60L359,572c0,0,-21,40,-43,86c0,0,-21,47,-38,91h-2c0,0,3,-54,5,-107c0,0,2,-53,2,-110V27c0,0,0,-7,-5,-13c0,0,-4,-6,-14,-10c0,0,-10,-4,-27,-6c0,0,-17,-2,-44,-2Z" 
id="f0_1y"
transform="scale(0.001,-0.001)" />

<path d="M378,-4c0,0,-28,0,-47,2c0,0,-19,2,-31,5c0,0,-11,4,-16,10c0,0,-4,6,-4,13V805H38c0,0,-8,0,-13,4c0,0,-5,5,-9,14c0,0,-3,9,-5,25c0,0,-2,15,-2,37c0,0,0,22,2,38c0,0,2,15,5,25c0,0,4,9,9,13c0,0,5,4,13,4H718c0,0,7,0,12,-4c0,0,6,-4,10,-13c0,0,3,-10,5,-25c0,0,2,-16,2,-38c0,0,0,-22,-2,-37c0,0,-2,-16,-5,-25c0,0,-4,-9,-10,-14c0,0,-5,-4,-12,-4H476V26c0,0,0,-7,-5,-13c0,0,-5,-6,-16,-10c0,0,-11,-3,-30,-5c0,0,-19,-2,-47,-2Z" 
id="f0_2t"
transform="scale(0.001,-0.001)" />

<path d="M514,145c0,0,72,0,121,27c0,0,48,26,78,73c0,0,30,46,42,107c0,0,13,62,13,131c0,0,0,76,-12,139c0,0,-12,62,-41,106c0,0,-29,45,-76,69c0,0,-48,24,-120,24c0,0,-72,0,-120,-27c0,0,-49,-27,-79,-73c0,0,-29,-45,-42,-106c0,0,-12,-61,-12,-129c0,0,0,-79,12,-142c0,0,12,-63,40,-108c0,0,28,-44,76,-68c0,0,48,-23,120,-23ZM508,-17c0,0,-113,0,-196,29c0,0,-84,29,-140,90c0,0,-56,60,-84,154c0,0,-28,93,-28,221c0,0,0,117,29,210c0,0,30,94,89,160c0,0,59,65,146,101c0,0,87,35,202,35c0,0,110,0,194,-29c0,0,84,-30,140,-90c0,0,56,-60,85,-153c0,0,29,-92,29,-217c0,0,0,-120,-30,-215c0,0,-30,-95,-89,-161C855,118,796,52,709,17c0,0,-87,-34,-201,-34Z" 
id="f0_24"
transform="scale(0.001,-0.001)" />

<path d="M299,0V777H162l36,173H508V0Z" 
id="f1_l"
transform="scale(0.001,-0.001)" />

<path d="M75,0L400,413c0,0,71,91,101,149c0,0,30,58,30,109c0,0,0,55,-36,91c0,0,-36,36,-91,36c0,0,-63,0,-91,-45c0,0,-28,-46,-34,-142H67c0,0,0,173,102,268c0,0,102,95,253,95c0,0,140,0,229,-82c0,0,89,-82,89,-209c0,0,0,-125,-104,-276L580,324c0,0,-34,-50,-85,-114L468,178H740V0Z" 
id="f1_m"
transform="scale(0.001,-0.001)" />

<path d="M44,-281L425,1053H537L156,-281Z" 
id="f1_j"
transform="scale(0.001,-0.001)" />

<path d="M404,-11c0,0,-136,0,-225,76c0,0,-90,78,-111,215H265c0,0,35,-136,135,-136c0,0,50,0,85,35c0,0,34,36,34,88c0,0,0,64,-41,105c0,0,-42,41,-107,41H336V573h21c0,0,68,0,109,33c0,0,41,34,41,89c0,0,0,50,-32,85c0,0,-32,35,-79,35c0,0,-110,0,-127,-135H76c0,0,9,130,96,209c0,0,87,79,208,79c0,0,134,0,227,-76c0,0,94,-75,94,-182c0,0,0,-116,-115,-210c0,0,73,-46,107,-96c0,0,34,-51,34,-121c0,0,0,-134,-88,-214c0,0,-89,-80,-235,-80Z" 
id="f1_n"
transform="scale(0.001,-0.001)" />

<path d="M191,-20c0,0,-39,0,-65,25c0,0,-25,27,-25,64c0,0,0,38,26,64c0,0,26,26,64,26c0,0,38,0,64,-26c0,0,26,-26,26,-64c0,0,0,-37,-25,-64c0,0,-26,-25,-65,-25Z" 
id="f2_i"
transform="scale(0.001,-0.001)" />

<path d="M67,0V109L206,235c0,0,133,118,196,190c0,0,63,72,90,149c0,0,27,77,27,177c0,0,0,97,-44,148c0,0,-44,50,-144,50c0,0,-39,0,-81,-10c0,0,-42,-11,-74,-29L150,787H101V980c0,0,135,32,230,32c0,0,164,0,247,-68c0,0,82,-69,82,-193c0,0,0,-84,-32,-158c0,0,-33,-75,-100,-148c0,0,-67,-74,-222,-206c0,0,-67,-57,-141,-125H680V0Z" 
id="f2_m"
transform="scale(0.001,-0.001)" />

<path d="M200,-14c0,0,-59,0,-93,35c0,0,-34,36,-34,100c0,0,0,22,4,51c0,0,4,30,82,467H67l6,33l99,29L275,860h47L295,701H455L443,639H283L210,230c0,0,-13,-69,-13,-99c0,0,0,-34,17,-51c0,0,17,-16,43,-16c0,0,54,0,113,21L386,50c0,0,-92,-64,-186,-64Z" 
id="f3_2g"
transform="scale(0.001,-0.001)" />

<path d="M325,47c0,0,68,0,130,54c0,0,61,55,97,149c0,0,36,94,36,202c0,0,0,103,-39,156c0,0,-39,53,-113,53c0,0,-67,0,-128,-54c0,0,-61,-55,-96,-149c0,0,-35,-94,-35,-204c0,0,0,-101,39,-154c0,0,39,-53,109,-53Zm-6,-61c0,0,-124,0,-199,79c0,0,-74,79,-74,214c0,0,0,120,51,222c0,0,51,102,143,160c0,0,91,59,205,59c0,0,124,0,199,-80c0,0,74,-79,74,-214c0,0,0,-120,-51,-222C667,204,615,102,524,43c0,0,-91,-57,-205,-57Z" 
id="f3_2b"
transform="scale(0.001,-0.001)" />

<path d="M301,78c0,0,85,0,185,104l81,442c0,0,-29,20,-55,28c0,0,-25,8,-62,8c0,0,-75,0,-137,-56c0,0,-62,-56,-98,-152c0,0,-36,-95,-36,-199c0,0,0,-79,33,-127c0,0,33,-48,89,-48ZM245,-14c0,0,-90,0,-145,66c0,0,-54,66,-54,182c0,0,0,131,57,244c0,0,57,114,152,178c0,0,96,64,208,64c0,0,90,0,170,-33l33,26h40L589,52L673,33L667,0H454l22,117C476,117,350,-14,245,-14Z" 
id="f3_1x"
transform="scale(0.001,-0.001)" />

<path d="M81,0L258,1008l-96,18l6,34H391L214,52L331,33L325,0Z" 
id="f3_28"
transform="scale(0.001,-0.001)" />

<path d="M460,506c0,0,135,0,209,64c0,0,73,65,73,183c0,0,0,180,-213,180H419L343,506ZM671,0L487,438H331L264,60L398,40L390,0H-7L0,40L120,60L276,941L151,960l7,40H555c0,0,163,0,249,-62c0,0,86,-62,86,-180c0,0,0,-236,-261,-299L798,60L908,40L900,0Z" 
id="f3_1i"
transform="scale(0.001,-0.001)" />

<path d="M0,214v74H784V214ZM0,494v72H784V494Z" 
id="f4_x"
transform="scale(0.001,-0.001)" />

<path d="M355,0V355H0v72H355V784h72V427H782V355H427V0Z" 
id="f4_f"
transform="scale(0.001,-0.001)" />

<path d="M412,-328c0,0,-195,96,-303,284C109,-44,0,142,0,365c0,0,0,232,114,422c0,0,114,191,298,273v-31c0,0,-92,-51,-151,-139c0,0,-59,-88,-88,-223c0,0,-29,-136,-29,-282c0,0,0,-167,27,-301c0,0,26,-133,82,-221c0,0,55,-89,159,-159v-32Z" 
id="f4_c"
transform="scale(0.001,-0.001)" />

<path d="M34,-328v32c0,0,92,50,151,138c0,0,59,88,88,222c0,0,29,135,29,283c0,0,0,165,-27,300c0,0,-26,134,-82,222c0,0,-56,89,-159,160v31c0,0,194,-96,303,-284c0,0,108,-187,108,-410c0,0,0,-232,-114,-422c0,0,-114,-191,-297,-272Z" 
id="f4_d"
transform="scale(0.001,-0.001)" />

<path d="M476,327V830h-4L114,327ZM476,0V220H30v99l488,686h86V327H740V220H604V0Z" 
id="f2_o"
transform="scale(0.001,-0.001)" />

<path d="M490,152V469H174v77H490V863h77V546H885V469H567V152Z" 
id="f3_f"
transform="scale(0.001,-0.001)" />

<path d="M460,-325c0,0,-148,79,-231,172c0,0,-84,93,-123,217c0,0,-39,126,-39,304c0,0,0,178,39,303c0,0,39,125,122,217c0,0,82,93,232,172V997c0,0,-91,-52,-145,-134c0,0,-54,-81,-79,-190c0,0,-25,-109,-25,-305c0,0,0,-194,26,-309c0,0,26,-114,82,-193c0,0,56,-79,141,-128v-63Z" 
id="f2_c"
transform="scale(0.001,-0.001)" />

<path d="M249,-14c0,0,-71,0,-107,42c0,0,-35,42,-35,119V639H15v33l93,29l76,159h47V701H391V639H231V161c0,0,0,-48,22,-73c0,0,22,-24,57,-24c0,0,44,0,106,12V26C416,26,389,8,340,-2c0,0,-49,-12,-91,-12Z" 
id="f2_2g"
transform="scale(0.001,-0.001)" />

<path d="M377,45c0,0,99,0,147,73c0,0,47,73,47,237c0,0,0,161,-47,233c0,0,-47,72,-147,72c0,0,-97,0,-141,-69c0,0,-44,-69,-44,-236c0,0,0,-169,45,-240c0,0,44,-70,140,-70Zm0,-59c0,0,-158,0,-238,94c0,0,-81,95,-81,274c0,0,0,178,81,272c0,0,80,94,244,94c0,0,160,0,241,-92c0,0,82,-92,82,-274c0,0,0,-368,-329,-368Z" 
id="f2_2b"
transform="scale(0.001,-0.001)" />

<path d="M284,67c0,0,51,0,88,12c0,0,37,12,74,30V358l-98,-3c0,0,-100,-4,-135,-39c0,0,-35,-35,-35,-117c0,0,0,-132,106,-132ZM233,-14c0,0,-179,0,-179,208c0,0,0,70,27,116c0,0,27,46,87,70c0,0,60,24,173,27l105,3V519c0,0,0,72,-26,107c0,0,-27,34,-82,34c0,0,-75,0,-137,-35L176,538H134V691c0,0,121,26,213,26c0,0,115,0,169,-47c0,0,54,-47,54,-144V52L657,33V0H465L451,70c0,0,-85,-84,-218,-84Z" 
id="f2_1x"
transform="scale(0.001,-0.001)" />

<path d="M31,0V33L150,52v956L31,1026v34H274V52L394,33V0Z" 
id="f2_28"
transform="scale(0.001,-0.001)" />

<path d="M49,-325v63c0,0,85,49,140,128c0,0,56,79,83,194c0,0,26,115,26,308c0,0,0,196,-25,305c0,0,-25,109,-79,190c0,0,-54,82,-145,134v63c0,0,149,-80,232,-172c0,0,83,-92,122,-217c0,0,39,-125,39,-303c0,0,0,-177,-39,-303c0,0,-39,-125,-122,-217c0,0,-83,-93,-232,-173Z" 
id="f2_d"
transform="scale(0.001,-0.001)" />

<path d="M55,0V40L184,60V941L55,960v40H455V960L327,941V60L455,40V0Z" 
id="f2_19"
transform="scale(0.001,-0.001)" />

<path d="M395,-22L175,941L80,960l7,40H455l-7,-40L322,941L484,211L885,941L771,960l9,40h300l-7,-40L975,941L433,-22Z" 
id="f3_1m"
transform="scale(0.001,-0.001)" />

<path d="M577,-14c0,0,-243,0,-379,132C198,118,63,250,63,488c0,0,0,258,130,391c0,0,131,132,387,132c0,0,156,0,335,-38l5,-218H871L848,884c0,0,-52,32,-121,50c0,0,-69,17,-141,17c0,0,-191,0,-279,-112c0,0,-88,-113,-88,-349c0,0,0,-217,92,-332c0,0,92,-115,268,-115c0,0,85,0,160,20c0,0,76,21,120,55l27,149h49L930,32c0,0,-164,-46,-353,-46Z" 
id="f2_13"
transform="scale(0.001,-0.001)" />

<path d="M289,-14c0,0,-179,0,-179,205V649L20,668v33H233V200c0,0,0,-128,120,-128c0,0,92,0,173,23V649L420,668v33H649V52L738,33V0H533l-6,57C527,57,474,28,405,7c0,0,-69,-21,-116,-21Z" 
id="f2_2h"
transform="scale(0.001,-0.001)" />

<path d="M31,0V33l88,19V649L31,668v33H235l7,-87c0,0,44,37,121,71c0,0,76,35,121,35h11V530H463l-43,82c0,0,-37,0,-88,-10c0,0,-52,-10,-89,-26V52L363,33V0Z" 
id="f2_2e"
transform="scale(0.001,-0.001)" />

<path d="M495,413c0,0,0,133,-34,190c0,0,-34,57,-105,57c0,0,-78,0,-119,-63c0,0,-42,-62,-42,-184ZM374,-14c0,0,-163,0,-239,87c0,0,-75,88,-75,283c0,0,0,183,77,273c0,0,76,91,219,91c0,0,269,0,269,-306V353H194V340c0,0,0,-103,23,-160c0,0,22,-57,70,-87c0,0,47,-29,124,-29c0,0,40,0,96,6c0,0,55,7,91,15V43C598,43,562,20,500,3c0,0,-61,-17,-126,-17Z" 
id="f2_21"
transform="scale(0.001,-0.001)" />

<path d="M439,0V33l93,19V500c0,0,0,62,-30,97c0,0,-31,36,-94,36c0,0,-67,0,-165,-22V52L338,33V0H35V33l84,19V649L35,668v33H235l7,-57c0,0,57,33,122,54c0,0,65,22,108,22c0,0,91,0,137,-53c0,0,47,-53,47,-154V52L741,33V0Z" 
id="f2_2a"
transform="scale(0.001,-0.001)" />

<path d="M442,0V33l93,19V504c0,0,0,129,-124,129c0,0,-70,0,-168,-22V52L338,33V0H31V33l88,19v956L15,1026v34H243V756c0,0,0,-77,-5,-112c0,0,54,31,122,53c0,0,68,23,115,23c0,0,91,0,137,-53c0,0,47,-53,47,-154V52L744,33V0Z" 
id="f2_24"
transform="scale(0.001,-0.001)" />

<path d="M359,-270c0,0,124,0,192,46c0,0,67,47,67,129c0,0,0,43,-26,67c0,0,-26,24,-79,24H242c0,0,-32,-27,-51,-69c0,0,-20,-41,-20,-77c0,0,0,-64,46,-92c0,0,46,-28,142,-28Zm11,561c0,0,81,0,115,47c0,0,34,47,34,141c0,0,0,100,-35,142c0,0,-35,42,-113,42c0,0,-78,0,-114,-43c0,0,-37,-42,-37,-141c0,0,0,-98,36,-143c0,0,36,-45,114,-45ZM359,-329c0,0,-143,0,-218,44c0,0,-75,43,-75,125c0,0,0,39,27,78c0,0,26,38,98,89c0,0,-43,14,-72,48c0,0,-29,35,-29,74L208,262c0,0,-118,55,-118,217c0,0,0,115,73,178c0,0,73,63,211,63c0,0,28,0,71,-6c0,0,44,-6,67,-13l165,83l26,-32L599,644c0,0,50,-56,50,-165c0,0,0,-120,-72,-182c0,0,-73,-62,-208,-62c0,0,-62,0,-114,11L208,148c0,0,2,-13,29,-24c0,0,27,-12,67,-12H512c0,0,113,0,168,-49c0,0,55,-49,55,-134c0,0,0,-79,-44,-137c0,0,-43,-58,-128,-90c0,0,-84,-31,-204,-31Z" 
id="f2_23"
transform="scale(0.001,-0.001)" />

<path d="M448,506c0,0,134,0,190,49c0,0,57,50,57,168c0,0,0,114,-56,162c0,0,-56,48,-195,48H316V506ZM777,0L496,438H316V60L468,40V0H54V40L172,60V941L44,960v40H476c0,0,188,0,277,-63c0,0,90,-64,90,-204c0,0,0,-100,-54,-173c0,0,-55,-73,-151,-101L909,60L1017,40V0Z" 
id="f2_1i"
transform="scale(0.001,-0.001)" />

<path d="M76,316v76H787V316Zm0,306v76H787V622Z" 
id="f2_x"
transform="scale(0.001,-0.001)" />

<path d="M663,0V40L790,60L527,448L236,60L360,40V0H34V40L144,60L484,512L194,941L81,960v40H494V960L367,941L574,633L806,941L683,960v40h327V960L900,941L618,567L962,60L1076,40V0Z" 
id="f2_1o"
transform="scale(0.001,-0.001)" />

<path d="M536,-22L130,941L17,960v40H421V960L287,941L590,205L892,941L761,960v40h325V960L976,941L574,-22Z" 
id="f2_1m"
transform="scale(0.001,-0.001)" />

<path d="M399,-14c0,0,-341,0,-341,370c0,0,0,175,87,269c0,0,87,95,249,95c0,0,101,0,220,-23V501H573L541,625c0,0,-62,35,-149,35c0,0,-200,0,-200,-304c0,0,0,-158,61,-225c0,0,61,-67,189,-67c0,0,109,0,189,24V43C631,43,595,16,530,1c0,0,-64,-15,-131,-15Z" 
id="f2_1z"
transform="scale(0.001,-0.001)" />

<path d="M278,-14c0,0,-52,0,-115,11c0,0,-63,10,-99,23V193H98L134,95c0,0,56,-50,146,-50c0,0,144,0,144,123c0,0,0,91,-114,130l-66,21c0,0,-75,25,-110,50c0,0,-34,26,-53,63c0,0,-18,36,-18,89c0,0,0,92,63,145c0,0,63,54,170,54c0,0,77,0,193,-23V544H454l-32,81c0,0,-39,35,-124,35c0,0,-61,0,-92,-30c0,0,-32,-30,-32,-80c0,0,0,-43,29,-72c0,0,28,-29,86,-48c0,0,110,-38,144,-55c0,0,33,-17,57,-42c0,0,23,-25,36,-57c0,0,13,-32,13,-79c0,0,0,-104,-66,-158c0,0,-66,-53,-195,-53Z" 
id="f2_2f"
transform="scale(0.001,-0.001)" />

<path d="M681,416L504,902L333,416ZM669,0V40L803,60L704,348H310L210,60L344,40V0H15V40L128,60l341,949H611L965,60L1092,40V0Z" 
id="f2_11"
transform="scale(0.001,-0.001)" />

<path d="M360,-14L72,649L0,668v33H327V668L216,648L420,164L615,649L504,668v33H764V668L697,652L416,-14Z" 
id="f2_2i"
transform="scale(0.001,-0.001)" />

<path d="M13,0V34L95,46L325,350L122,649L40,668v33H357V668L264,648L399,446L554,649l-96,19v33H710V668L630,652L433,397L663,50L745,34V0H427V34l94,17L359,299L169,50L266,34V0Z" 
id="f2_2k"
transform="scale(0.001,-0.001)" />

<path d="M64,0V34L168,59V639H47v36l121,29v49c0,0,0,155,61,239c0,0,62,84,173,84c0,0,58,0,107,-15V908H472l-33,92c0,0,-26,16,-62,16c0,0,-47,0,-66,-42c0,0,-19,-42,-19,-157V701H478V639H292V59L443,34V0Z" 
id="f2_22"
transform="scale(0.001,-0.001)" />

<path d="M377,45c0,0,99,0,145,108c0,0,46,109,46,352c0,0,0,240,-45,345c0,0,-46,106,-146,106c0,0,-97,0,-139,-100c0,0,-43,-99,-43,-351c0,0,0,-254,44,-357c0,0,43,-103,138,-103Zm0,-59c0,0,-158,0,-238,132c0,0,-81,133,-81,386c0,0,0,249,81,380c0,0,80,132,244,132c0,0,159,0,241,-130c0,0,82,-130,82,-382c0,0,0,-518,-329,-518Z" 
id="f2_k"
transform="scale(0.001,-0.001)" />

<path d="M431,0V33L535,52V499c0,0,0,62,-32,96c0,0,-32,33,-95,33c0,0,-66,0,-163,-22V52L350,33V0H32V33l89,19V649L32,668v33H237l6,-57c0,0,56,32,119,54c0,0,62,22,110,22c0,0,52,0,95,-20c0,0,44,-19,66,-62c0,0,57,32,134,57c0,0,77,25,128,25c0,0,179,0,179,-207V52l90,-19V0H846V33L950,52V499c0,0,0,129,-119,129c0,0,-19,0,-45,-3c0,0,-26,-3,-52,-7c0,0,-25,-4,-49,-8c0,0,-23,-5,-39,-8c0,0,13,-41,13,-89V52L764,33V0Z" 
id="f2_29"
transform="scale(0.001,-0.001)" />

<path d="M32,0V33L151,52V649L52,668v33H275V52L395,33V0ZM201,850c0,0,-32,0,-56,24c0,0,-24,24,-24,56c0,0,0,34,24,58c0,0,24,24,56,24c0,0,34,0,58,-24c0,0,24,-24,24,-58c0,0,0,-32,-24,-56c0,0,-24,-24,-58,-24Z" 
id="f2_25"
transform="scale(0.001,-0.001)" />

<path d="M382,45c0,0,188,0,188,314c0,0,0,143,-47,213c0,0,-46,69,-141,69c0,0,-87,0,-146,-24V58c0,0,67,-13,146,-13ZM25,-325v35l88,18V649L34,668v33H231l1,-41c0,0,31,27,84,43c0,0,53,17,107,17c0,0,134,0,208,-94c0,0,73,-93,73,-267c0,0,0,-178,-80,-276c0,0,-80,-97,-232,-97c0,0,-84,0,-160,16c0,0,4,-53,4,-84V-272l123,-18v-35Z" 
id="f2_2c"
transform="scale(0.001,-0.001)" />

<path d="M383,64c0,0,85,0,152,28V645c0,0,-67,13,-152,13c0,0,-194,0,-194,-314c0,0,0,-141,48,-211c0,0,48,-69,146,-69ZM342,-14c0,0,-287,0,-287,358c0,0,0,184,82,280c0,0,81,96,239,96c0,0,81,0,163,-18c0,0,-4,25,-4,124v182l-118,18v34H659V52L745,33V0H548l-9,52c0,0,-84,-66,-197,-66Z" 
id="f2_20"
transform="scale(0.001,-0.001)" />

<path d="M148,-329c0,0,-58,0,-114,13v151H69l24,-71c0,0,23,-17,64,-17c0,0,39,0,72,22c0,0,33,23,60,67c0,0,27,44,68,157L90,649L19,668v33H344V668L233,648L423,158L606,649L497,668v33H758V668L685,652L411,-43c0,0,-48,-124,-84,-177c0,0,-36,-54,-79,-82c0,0,-44,-27,-100,-27Z" 
id="f2_2l"
transform="scale(0.001,-0.001)" />

<path d="M327,-14L84,649L1,668v33H335V668L219,648L385,174L554,632h63L786,171L944,649L830,668v33h267V668l-78,-16L784,-14H726L553,448L382,-14Z" 
id="f2_2j"
transform="scale(0.001,-0.001)" />

<path d="M235,0V40L394,60V936H356c0,0,-189,0,-258,-15L78,766H28v234H908V766H857L837,921c0,0,-22,5,-98,9c0,0,-75,4,-165,4H538V60L697,40V0Z" 
id="f2_1k"
transform="scale(0.001,-0.001)" />

<path d="M477,0V33l64,19L348,354L257,254V52L331,33V0H44V33l89,19v956L29,1026v34H257V338L544,647l-73,20v34H718V667L631,650L431,446L688,50L764,33V0Z" 
id="f2_27"
transform="scale(0.001,-0.001)" />

<path d="M134,0V40L339,60V876L137,804v39l292,166h39V60L672,40V0Z" 
id="f2_l"
transform="scale(0.001,-0.001)" />

<path d="M350,-14c0,0,-142,0,-253,31L89,228h49L172,87c0,0,32,-18,78,-29c0,0,46,-11,88,-11c0,0,118,0,173,56c0,0,56,55,56,187c0,0,0,93,-24,140c0,0,-24,47,-76,70c0,0,-52,22,-140,22c0,0,-68,0,-133,-18H122v496H630V886H189V567c0,0,81,18,173,18c0,0,173,0,258,-71c0,0,84,-71,84,-216c0,0,0,-151,-92,-232c0,0,-91,-80,-262,-80Z" 
id="f2_p"
transform="scale(0.001,-0.001)" />

<path d="M376,50c0,0,103,0,149,80c0,0,46,81,46,240c0,0,0,137,-47,204c0,0,-48,67,-148,67c0,0,-44,0,-87,-7c0,0,-44,-8,-63,-17V62c0,0,63,-12,150,-12Zm3,-64c0,0,-64,0,-141,14c0,0,-78,14,-136,37v971L0,1026v34H226V809c0,0,0,-40,-4,-148c0,0,74,59,188,59c0,0,143,0,219,-87c0,0,77,-87,77,-263c0,0,0,-189,-84,-287c0,0,-84,-97,-243,-97Z" 
id="f2_1y"
transform="scale(0.001,-0.001)" />

<path d="M64,-325c0,0,-46,0,-107,14v148H-8l19,-81c0,0,25,-21,62,-21c0,0,44,0,67,47c0,0,22,47,22,152V649L57,668v33H286V-28c0,0,0,-146,-57,-221c0,0,-56,-76,-165,-76ZM213,850c0,0,-34,0,-58,24c0,0,-24,24,-24,56c0,0,0,34,24,58c0,0,24,24,58,24c0,0,32,0,56,-24c0,0,24,-24,24,-58c0,0,0,-32,-24,-56c0,0,-24,-24,-56,-24Z" 
id="f2_26"
transform="scale(0.001,-0.001)" />

<path d="M410,45c0,0,90,0,130,58c0,0,40,59,40,193c0,0,0,122,-38,177c0,0,-38,54,-122,54c0,0,-102,0,-217,-37c0,0,0,-227,51,-336c0,0,52,-109,156,-109Zm3,-59c0,0,-169,0,-258,131c0,0,-89,131,-89,377c0,0,0,161,47,278c0,0,47,117,131,178c0,0,85,61,196,61c0,0,109,0,217,-26V813H608L582,915c0,0,-25,13,-67,23c0,0,-41,10,-75,10c0,0,-109,0,-170,-105c0,0,-60,-106,-66,-308c0,0,121,63,244,63c0,0,132,0,201,-74c0,0,69,-74,69,-214c0,0,0,-156,-78,-240c0,0,-79,-84,-227,-84Z" 
id="f2_q"
transform="scale(0.001,-0.001)" />

<path d="M529,65c0,0,183,0,270,108c0,0,87,108,87,334c0,0,0,210,-113,318c0,0,-113,108,-322,108H316V71c0,0,90,-6,213,-6Zm0,-67L172,0H44V40L172,60V941L44,960v40H498c0,0,277,0,411,-123c0,0,133,-124,133,-371c0,0,0,-251,-129,-380C913,126,785,-2,529,-2Z" 
id="f2_14"
transform="scale(0.001,-0.001)" />

<path d="M410,-14c0,0,-86,0,-175,14C235,0,145,14,81,38V307h66L181,146c0,0,31,-37,94,-62c0,0,64,-24,132,-24c0,0,214,0,214,177c0,0,0,55,-41,93c0,0,-41,38,-128,68c0,0,-128,42,-185,68c0,0,-56,27,-95,63c0,0,-38,36,-62,87c0,0,-23,51,-23,125c0,0,0,132,90,201c0,0,90,69,263,69c0,0,125,0,278,-32V741H651L618,878c0,0,-76,56,-178,56c0,0,-92,0,-141,-34c0,0,-49,-34,-49,-104c0,0,0,-50,41,-86c0,0,41,-35,128,-63c0,0,171,-56,235,-97c0,0,64,-41,97,-103c0,0,34,-61,34,-143c0,0,0,-318,-375,-318Z" 
id="f5_1j"
transform="scale(0.001,-0.001)" />

<path d="M379,60c0,0,59,0,84,64c0,0,24,65,24,231c0,0,0,164,-24,227c0,0,-24,63,-84,63c0,0,-57,0,-80,-60c0,0,-22,-61,-22,-230c0,0,0,-173,23,-234c0,0,22,-61,79,-61Zm-2,-74c0,0,-161,0,-240,91c0,0,-79,91,-79,277c0,0,0,186,80,276c0,0,81,90,245,90c0,0,167,0,245,-93c0,0,78,-93,78,-273c0,0,0,-188,-81,-278c0,0,-81,-90,-248,-90Z" 
id="f5_2b"
transform="scale(0.001,-0.001)" />

<path d="M30,0V49l76,18V992l-72,18v50H322V67L398,49V0Z" 
id="f5_28"
transform="scale(0.001,-0.001)" />

<path d="M287,-18c0,0,-194,0,-194,206V634L23,652v49H309V217c0,0,0,-63,26,-98c0,0,27,-35,76,-35c0,0,57,0,113,25V634l-64,18v49H740V67L809,49V0H536L526,61L475,35c0,0,-104,-53,-188,-53Z" 
id="f5_2h"
transform="scale(0.001,-0.001)" />

<path d="M327,-14c0,0,-101,0,-156,45c0,0,-55,45,-55,131V624H25v48l108,29l87,159H332V701H480V624H332V176c0,0,0,-49,20,-73c0,0,20,-25,53,-25c0,0,40,0,97,12V26c0,0,-22,-15,-76,-27c0,0,-55,-13,-99,-13Z" 
id="f5_2g"
transform="scale(0.001,-0.001)" />

<path d="M34,0V49l76,18V634L38,652v49H325V67L402,49V0ZM217,831c0,0,-48,0,-81,33c0,0,-34,33,-34,82c0,0,0,48,34,81c0,0,34,33,81,33c0,0,48,0,81,-33c0,0,33,-33,33,-81c0,0,0,-47,-33,-81c0,0,-32,-34,-81,-34Z" 
id="f5_25"
transform="scale(0.001,-0.001)" />

<path d="M41,0V49l69,18V634L41,652v49H313l11,-61l50,26c0,0,105,54,188,54c0,0,194,0,194,-207V67L827,49V0H478V49l63,18V484c0,0,0,63,-27,98c0,0,-26,35,-75,35c0,0,-57,0,-114,-25V67L389,49V0Z" 
id="f5_2a"
transform="scale(0.001,-0.001)" />

<path d="M248,-20c0,0,-52,0,-87,34c0,0,-36,36,-36,88c0,0,0,52,36,88c0,0,35,36,87,36c0,0,52,0,88,-36c0,0,36,-36,36,-88c0,0,0,-51,-36,-87c0,0,-35,-35,-88,-35Zm0,488c0,0,-52,0,-87,36c0,0,-36,36,-36,88c0,0,0,52,35,88c0,0,35,36,88,36c0,0,53,0,89,-36c0,0,35,-37,35,-88c0,0,0,-51,-36,-87c0,0,-35,-37,-88,-37Z" 
id="f5_u"
transform="scale(0.001,-0.001)" />

<path d="M868,0L251,900V60L385,40V0H44V40L172,60V941L44,960v40H347L862,259V941L727,960v40h341V960L940,941V0Z" 
id="f2_1e"
transform="scale(0.001,-0.001)" />

<path d="M394,460c0,0,126,0,186,57c0,0,60,57,60,187c0,0,0,123,-57,176c0,0,-58,53,-194,53H316V460ZM54,0V40L172,60V941L44,960v40H421c0,0,368,0,368,-295c0,0,0,-153,-93,-233c0,0,-93,-80,-267,-80H316V60L475,40V0Z" 
id="f2_1g"
transform="scale(0.001,-0.001)" />


</defs>
</svg>