<?xml version="1.0" encoding="UTF-8" standalone="no"?>
<!DOCTYPE svg PUBLIC "-//W3C//DTD SVG 1.1//EN"
"http://www.w3.org/Graphics/SVG/1.1/DTD/svg11.dtd">
<svg viewBox="0 0 909 1286" version="1.1" xmlns="http://www.w3.org/2000/svg" xmlns:xlink="http://www.w3.org/1999/xlink">
<defs>
<style type="text/css"><![CDATA[
.g0_74{
fill: #FFFFFF;
}
.g1_74{
}
]]></style>
</defs>
<g fill="#000000" >
<use xlink:href="#f0_n" transform="matrix(10,0,0,10,55,125)" />
<use xlink:href="#f0_q" transform="matrix(10,0,0,10,62.7,125)" />
<use xlink:href="#f0_i" transform="matrix(10,0,0,10,70.4,125)" />
<use xlink:href="#f1_1n" transform="matrix(10,0,0,10,99.7,125)" />
<use xlink:href="#f1_24" transform="matrix(10,0,0,10,114,125)" />
<use xlink:href="#f1_21" transform="matrix(10,0,0,10,121.9,125)" />
<use xlink:href="#f1_1x" transform="matrix(10,0,0,10,128.7,125)" />
<use xlink:href="#f1_2g" transform="matrix(10,0,0,10,135.7,125)" />
<use xlink:href="#f1_2f" transform="matrix(10,0,0,10,139.7,125)" />
<use xlink:href="#f1_2g" transform="matrix(10,0,0,10,145.6,125)" />
<use xlink:href="#f1_2b" transform="matrix(10,0,0,10,150,125)" />
<use xlink:href="#f1_2a" transform="matrix(10,0,0,10,157.9,125)" />
<use xlink:href="#f1_21" transform="matrix(10,0,0,10,165.4,125)" />
<use xlink:href="#f1_1y" transform="matrix(10,0,0,10,178.4,125)" />
<use xlink:href="#f1_2e" transform="matrix(10,0,0,10,185.9,125)" />
<use xlink:href="#f1_25" transform="matrix(10,0,0,10,191.2,125)" />
<use xlink:href="#f1_20" transform="matrix(10,0,0,10,195.6,125)" />
<use xlink:href="#f1_23" transform="matrix(10,0,0,10,203.1,125)" />
<use xlink:href="#f1_21" transform="matrix(10,0,0,10,211,125)" />
<use xlink:href="#f1_25" transform="matrix(10,0,0,10,223.5,125)" />
<use xlink:href="#f1_2f" transform="matrix(10,0,0,10,227.9,125)" />
<use xlink:href="#f1_29" transform="matrix(10,0,0,10,239.6,125)" />
<use xlink:href="#f1_2b" transform="matrix(10,0,0,10,251.2,125)" />
<use xlink:href="#f1_2f" transform="matrix(10,0,0,10,259.3,125)" />
<use xlink:href="#f1_2g" transform="matrix(10,0,0,10,264.9,125)" />
<use xlink:href="#f1_2f" transform="matrix(10,0,0,10,275.2,125)" />
<use xlink:href="#f1_21" transform="matrix(10,0,0,10,280.9,125)" />
<use xlink:href="#f1_2a" transform="matrix(10,0,0,10,287.9,125)" />
<use xlink:href="#f1_2f" transform="matrix(10,0,0,10,295.6,125)" />
<use xlink:href="#f1_25" transform="matrix(10,0,0,10,301.2,125)" />
<use xlink:href="#f1_2g" transform="matrix(10,0,0,10,305.6,125)" />
<use xlink:href="#f1_25" transform="matrix(10,0,0,10,309.9,125)" />
<use xlink:href="#f1_2i" transform="matrix(10,0,0,10,314.4,125)" />
<use xlink:href="#f1_21" transform="matrix(10,0,0,10,321.8,125)" />
<use xlink:href="#f1_25" transform="matrix(10,0,0,10,334.8,125)" />
<use xlink:href="#f1_22" transform="matrix(10,0,0,10,338.8,125)" />
<use xlink:href="#f1_1x" transform="matrix(10,0,0,10,349.6,125)" />
<use xlink:href="#f1_28" transform="matrix(10,0,0,10,356.6,125)" />
<use xlink:href="#f1_28" transform="matrix(10,0,0,10,360.8,125)" />
<use xlink:href="#f1_2g" transform="matrix(10,0,0,10,371.3,125)" />
<use xlink:href="#f1_24" transform="matrix(10,0,0,10,375.5,125)" />
<use xlink:href="#f1_21" transform="matrix(10,0,0,10,383,125)" />
<use xlink:href="#f1_1x" transform="matrix(10,0,0,10,395.9,125)" />
<use xlink:href="#f1_2e" transform="matrix(10,0,0,10,402.6,125)" />
<use xlink:href="#f1_29" transform="matrix(10,0,0,10,407.6,125)" />
<use xlink:href="#f1_2f" transform="matrix(10,0,0,10,419.3,125)" />
<use xlink:href="#f1_2b" transform="matrix(10,0,0,10,431.4,125)" />
<use xlink:href="#f1_22" transform="matrix(10,0,0,10,438.9,125)" />
<use xlink:href="#f1_1y" transform="matrix(10,0,0,10,99.7,144.5)" />
<use xlink:href="#f1_2e" transform="matrix(10,0,0,10,107.4,144.5)" />
<use xlink:href="#f1_25" transform="matrix(10,0,0,10,112.7,144.5)" />
<use xlink:href="#f1_20" transform="matrix(10,0,0,10,116.8,144.5)" />
<use xlink:href="#f1_23" transform="matrix(10,0,0,10,124.7,144.5)" />
<use xlink:href="#f1_21" transform="matrix(10,0,0,10,132.2,144.5)" />
<use xlink:href="#f1_24" transform="matrix(10,0,0,10,143.2,144.5)" />
<use xlink:href="#f1_1x" transform="matrix(10,0,0,10,150.7,144.5)" />
<use xlink:href="#f1_2i" transform="matrix(10,0,0,10,157.7,144.5)" />
<use xlink:href="#f1_21" transform="matrix(10,0,0,10,165,144.5)" />
<use xlink:href="#f1_21" transform="matrix(10,0,0,10,175.8,144.5)" />
<use xlink:href="#f1_2d" transform="matrix(10,0,0,10,182.6,144.5)" />
<use xlink:href="#f1_2h" transform="matrix(10,0,0,10,190.3,144.5)" />
<use xlink:href="#f1_1x" transform="matrix(10,0,0,10,198,144.5)" />
<use xlink:href="#f1_28" transform="matrix(10,0,0,10,204.8,144.5)" />
<use xlink:href="#f1_2e" transform="matrix(10,0,0,10,212.9,144.5)" />
<use xlink:href="#f1_21" transform="matrix(10,0,0,10,218.2,144.5)" />
<use xlink:href="#f1_2f" transform="matrix(10,0,0,10,225.2,144.5)" />
<use xlink:href="#f1_25" transform="matrix(10,0,0,10,230.8,144.5)" />
<use xlink:href="#f1_2f" transform="matrix(10,0,0,10,235.2,144.5)" />
<use xlink:href="#f1_2g" transform="matrix(10,0,0,10,241.3,144.5)" />
<use xlink:href="#f1_1x" transform="matrix(10,0,0,10,245.7,144.5)" />
<use xlink:href="#f1_2a" transform="matrix(10,0,0,10,252.5,144.5)" />
<use xlink:href="#f1_1z" transform="matrix(10,0,0,10,259.8,144.5)" />
<use xlink:href="#f1_21" transform="matrix(10,0,0,10,266.8,144.5)" />
<use xlink:href="#f1_2f" transform="matrix(10,0,0,10,273.7,144.5)" />
<use xlink:href="#f2_25" transform="matrix(10,0,0,10,283.6,144.5)" />
<use xlink:href="#f2_i" transform="matrix(10,0,0,10,287.8,144.5)" />
<use xlink:href="#f2_21" transform="matrix(10,0,0,10,291.7,144.5)" />
<use xlink:href="#f2_i" transform="matrix(10,0,0,10,298.5,144.5)" />
<use xlink:href="#f2_1g" transform="matrix(10,0,0,10,306.5,144.5)" />
<use xlink:href="#f2_x" transform="matrix(10,0,0,10,319.6,144.5)" />
<use xlink:href="#f2_1h" transform="matrix(10,0,0,10,333.9,144.5)" />
<use xlink:href="#f2_x" transform="matrix(10,0,0,10,348.7,144.5)" />
<use xlink:href="#f2_1i" transform="matrix(10,0,0,10,363,144.5)" />
<use xlink:href="#f2_x" transform="matrix(10,0,0,10,376.2,144.5)" />
<use xlink:href="#f2_1j" transform="matrix(10,0,0,10,390.5,144.5)" />
<use xlink:href="#f0_n" transform="matrix(10,0,0,10,55,171.4)" />
<use xlink:href="#f0_r" transform="matrix(10,0,0,10,62.3,171.4)" />
<use xlink:href="#f0_i" transform="matrix(10,0,0,10,70,171.4)" />
<use xlink:href="#f1_19" transform="matrix(10,0,0,10,99.7,171.4)" />
<use xlink:href="#f1_22" transform="matrix(10,0,0,10,104.9,171.4)" />
<use xlink:href="#f1_2g" transform="matrix(10,0,0,10,115.1,171.4)" />
<use xlink:href="#f1_24" transform="matrix(10,0,0,10,119.5,171.4)" />
<use xlink:href="#f1_21" transform="matrix(10,0,0,10,127.1,171.4)" />
<use xlink:href="#f1_2g" transform="matrix(10,0,0,10,139.3,171.4)" />
<use xlink:href="#f1_21" transform="matrix(10,0,0,10,143.6,171.4)" />
<use xlink:href="#f1_29" transform="matrix(10,0,0,10,150.7,171.4)" />
<use xlink:href="#f1_2c" transform="matrix(10,0,0,10,162.3,171.4)" />
<use xlink:href="#f1_21" transform="matrix(10,0,0,10,169.8,171.4)" />
<use xlink:href="#f1_2e" transform="matrix(10,0,0,10,176.7,171.4)" />
<use xlink:href="#f1_1x" transform="matrix(10,0,0,10,182.1,171.4)" />
<use xlink:href="#f1_2g" transform="matrix(10,0,0,10,189,171.4)" />
<use xlink:href="#f1_2h" transform="matrix(10,0,0,10,193.1,171.4)" />
<use xlink:href="#f1_2e" transform="matrix(10,0,0,10,201,171.4)" />
<use xlink:href="#f1_21" transform="matrix(10,0,0,10,206.1,171.4)" />
<use xlink:href="#f1_2b" transform="matrix(10,0,0,10,218.2,171.4)" />
<use xlink:href="#f1_22" transform="matrix(10,0,0,10,226.1,171.4)" />
<use xlink:href="#f1_2g" transform="matrix(10,0,0,10,236.5,171.4)" />
<use xlink:href="#f1_24" transform="matrix(10,0,0,10,240.7,171.4)" />
<use xlink:href="#f1_21" transform="matrix(10,0,0,10,248.4,171.4)" />
<use xlink:href="#f1_1z" transform="matrix(10,0,0,10,260.7,171.4)" />
<use xlink:href="#f1_2b" transform="matrix(10,0,0,10,267.7,171.4)" />
<use xlink:href="#f1_2a" transform="matrix(10,0,0,10,275.2,171.4)" />
<use xlink:href="#f1_20" transform="matrix(10,0,0,10,283.1,171.4)" />
<use xlink:href="#f1_2h" transform="matrix(10,0,0,10,290.6,171.4)" />
<use xlink:href="#f1_1z" transform="matrix(10,0,0,10,298.3,171.4)" />
<use xlink:href="#f1_2g" transform="matrix(10,0,0,10,305.3,171.4)" />
<use xlink:href="#f1_2b" transform="matrix(10,0,0,10,309.3,171.4)" />
<use xlink:href="#f1_2e" transform="matrix(10,0,0,10,317.2,171.4)" />
<use xlink:href="#f1_2c" transform="matrix(10,0,0,10,327.8,171.4)" />
<use xlink:href="#f1_28" transform="matrix(10,0,0,10,335.7,171.4)" />
<use xlink:href="#f1_1x" transform="matrix(10,0,0,10,339.8,171.4)" />
<use xlink:href="#f1_1z" transform="matrix(10,0,0,10,346.7,171.4)" />
<use xlink:href="#f1_21" transform="matrix(10,0,0,10,353.7,171.4)" />
<use xlink:href="#f1_20" transform="matrix(10,0,0,10,360.5,171.4)" />
<use xlink:href="#f1_25" transform="matrix(10,0,0,10,373.7,171.4)" />
<use xlink:href="#f1_2a" transform="matrix(10,0,0,10,377.9,171.4)" />
<use xlink:href="#f1_2g" transform="matrix(10,0,0,10,391.1,171.4)" />
<use xlink:href="#f1_24" transform="matrix(10,0,0,10,395.1,171.4)" />
<use xlink:href="#f1_21" transform="matrix(10,0,0,10,403,171.4)" />
<use xlink:href="#f1_2e" transform="matrix(10,0,0,10,415.1,171.4)" />
<use xlink:href="#f1_25" transform="matrix(10,0,0,10,420.2,171.4)" />
<use xlink:href="#f1_23" transform="matrix(10,0,0,10,424.4,171.4)" />
<use xlink:href="#f1_24" transform="matrix(10,0,0,10,432.3,171.4)" />
<use xlink:href="#f1_2g" transform="matrix(10,0,0,10,439.6,171.4)" />
<use xlink:href="#f1_23" transform="matrix(10,0,0,10,99.7,190.7)" />
<use xlink:href="#f1_1x" transform="matrix(10,0,0,10,107.1,190.7)" />
<use xlink:href="#f1_2c" transform="matrix(10,0,0,10,113.9,190.7)" />
<use xlink:href="#f1_2b" transform="matrix(10,0,0,10,124.3,190.7)" />
<use xlink:href="#f1_22" transform="matrix(10,0,0,10,132.2,190.7)" />
<use xlink:href="#f1_29" transform="matrix(10,0,0,10,139.7,190.7)" />
<use xlink:href="#f1_21" transform="matrix(10,0,0,10,151.3,190.7)" />
<use xlink:href="#f1_2g" transform="matrix(10,0,0,10,158.2,190.7)" />
<use xlink:href="#f1_2e" transform="matrix(10,0,0,10,162.1,190.7)" />
<use xlink:href="#f1_21" transform="matrix(10,0,0,10,167.2,190.7)" />
<use xlink:href="#f1_1y" transform="matrix(10,0,0,10,176.9,190.7)" />
<use xlink:href="#f1_2e" transform="matrix(10,0,0,10,184.3,190.7)" />
<use xlink:href="#f1_25" transform="matrix(10,0,0,10,189.6,190.7)" />
<use xlink:href="#f1_20" transform="matrix(10,0,0,10,193.8,190.7)" />
<use xlink:href="#f1_23" transform="matrix(10,0,0,10,201.3,190.7)" />
<use xlink:href="#f1_21" transform="matrix(10,0,0,10,208.8,190.7)" />
<use xlink:href="#f1_25" transform="matrix(10,0,0,10,218.4,190.7)" />
<use xlink:href="#f1_2f" transform="matrix(10,0,0,10,222.6,190.7)" />
<use xlink:href="#f1_25" transform="matrix(10,0,0,10,231.4,190.7)" />
<use xlink:href="#f1_2a" transform="matrix(10,0,0,10,235.4,190.7)" />
<use xlink:href="#f1_1z" transform="matrix(10,0,0,10,243.1,190.7)" />
<use xlink:href="#f1_2e" transform="matrix(10,0,0,10,249.5,190.7)" />
<use xlink:href="#f1_21" transform="matrix(10,0,0,10,254.9,190.7)" />
<use xlink:href="#f1_1x" transform="matrix(10,0,0,10,261.5,190.7)" />
<use xlink:href="#f1_2f" transform="matrix(10,0,0,10,268.1,190.7)" />
<use xlink:href="#f1_21" transform="matrix(10,0,0,10,273.9,190.7)" />
<use xlink:href="#f1_20" transform="matrix(10,0,0,10,280.9,190.7)" />
<use xlink:href="#f1_g" transform="matrix(10,0,0,10,288.4,190.7)" />
<use xlink:href="#f1_2g" transform="matrix(10,0,0,10,295.2,190.7)" />
<use xlink:href="#f1_24" transform="matrix(10,0,0,10,299.2,190.7)" />
<use xlink:href="#f1_21" transform="matrix(10,0,0,10,306.9,190.7)" />
<use xlink:href="#f1_2a" transform="matrix(10,0,0,10,313.3,190.7)" />
<use xlink:href="#f1_2g" transform="matrix(10,0,0,10,323.8,190.7)" />
<use xlink:href="#f1_24" transform="matrix(10,0,0,10,327.8,190.7)" />
<use xlink:href="#f1_21" transform="matrix(10,0,0,10,335.3,190.7)" />
<use xlink:href="#f1_1y" transform="matrix(10,0,0,10,345.1,190.7)" />
<use xlink:href="#f1_1x" transform="matrix(10,0,0,10,352.8,190.7)" />
<use xlink:href="#f1_28" transform="matrix(10,0,0,10,359.4,190.7)" />
<use xlink:href="#f1_1x" transform="matrix(10,0,0,10,363.6,190.7)" />
<use xlink:href="#f1_2a" transform="matrix(10,0,0,10,370.2,190.7)" />
<use xlink:href="#f1_1z" transform="matrix(10,0,0,10,377.7,190.7)" />
<use xlink:href="#f1_25" transform="matrix(10,0,0,10,384.5,190.7)" />
<use xlink:href="#f1_2a" transform="matrix(10,0,0,10,388.5,190.7)" />
<use xlink:href="#f1_23" transform="matrix(10,0,0,10,396.2,190.7)" />
<use xlink:href="#f1_28" transform="matrix(10,0,0,10,406.3,190.7)" />
<use xlink:href="#f1_21" transform="matrix(10,0,0,10,410.7,190.7)" />
<use xlink:href="#f1_2a" transform="matrix(10,0,0,10,417.5,190.7)" />
<use xlink:href="#f1_23" transform="matrix(10,0,0,10,425,190.7)" />
<use xlink:href="#f1_2g" transform="matrix(10,0,0,10,432.1,190.7)" />
<use xlink:href="#f1_24" transform="matrix(10,0,0,10,436.3,190.7)" />
<use xlink:href="#f1_20" transform="matrix(10,0,0,10,99.7,208.8)" />
<use xlink:href="#f1_21" transform="matrix(10,0,0,10,107.4,208.8)" />
<use xlink:href="#f1_1z" transform="matrix(10,0,0,10,114.2,208.8)" />
<use xlink:href="#f1_2e" transform="matrix(10,0,0,10,121.2,208.8)" />
<use xlink:href="#f1_21" transform="matrix(10,0,0,10,126.5,208.8)" />
<use xlink:href="#f1_1x" transform="matrix(10,0,0,10,133.1,208.8)" />
<use xlink:href="#f1_2f" transform="matrix(10,0,0,10,140.3,208.8)" />
<use xlink:href="#f1_21" transform="matrix(10,0,0,10,145.9,208.8)" />
<use xlink:href="#f1_2f" transform="matrix(10,0,0,10,152.9,208.8)" />
<use xlink:href="#f1_1x" transform="matrix(10,0,0,10,162.6,208.8)" />
<use xlink:href="#f1_2a" transform="matrix(10,0,0,10,169.8,208.8)" />
<use xlink:href="#f1_20" transform="matrix(10,0,0,10,177.1,208.8)" />
<use xlink:href="#f1_2g" transform="matrix(10,0,0,10,188.8,208.8)" />
<use xlink:href="#f1_24" transform="matrix(10,0,0,10,193.1,208.8)" />
<use xlink:href="#f1_21" transform="matrix(10,0,0,10,200.9,208.8)" />
<use xlink:href="#f1_26" transform="matrix(10,0,0,10,211.4,208.8)" />
<use xlink:href="#f1_2b" transform="matrix(10,0,0,10,215.8,208.8)" />
<use xlink:href="#f1_1z" transform="matrix(10,0,0,10,223.7,208.8)" />
<use xlink:href="#f1_27" transform="matrix(10,0,0,10,230.7,208.8)" />
<use xlink:href="#f1_21" transform="matrix(10,0,0,10,238,208.8)" />
<use xlink:href="#f1_2l" transform="matrix(10,0,0,10,245.1,208.8)" />
<use xlink:href="#f1_29" transform="matrix(10,0,0,10,256.1,208.8)" />
<use xlink:href="#f1_2b" transform="matrix(10,0,0,10,267.9,208.8)" />
<use xlink:href="#f1_2i" transform="matrix(10,0,0,10,275.6,208.8)" />
<use xlink:href="#f1_21" transform="matrix(10,0,0,10,283.5,208.8)" />
<use xlink:href="#f1_2f" transform="matrix(10,0,0,10,290.2,208.8)" />
<use xlink:href="#f1_2g" transform="matrix(10,0,0,10,300.1,208.8)" />
<use xlink:href="#f1_2b" transform="matrix(10,0,0,10,304.4,208.8)" />
<use xlink:href="#f1_2j" transform="matrix(10,0,0,10,312.2,208.8)" />
<use xlink:href="#f1_1x" transform="matrix(10,0,0,10,322.7,208.8)" />
<use xlink:href="#f1_2e" transform="matrix(10,0,0,10,329.7,208.8)" />
<use xlink:href="#f1_20" transform="matrix(10,0,0,10,334.8,208.8)" />
<use xlink:href="#f1_2f" transform="matrix(10,0,0,10,342.7,208.8)" />
<use xlink:href="#f1_28" transform="matrix(10,0,0,10,352.6,208.8)" />
<use xlink:href="#f1_21" transform="matrix(10,0,0,10,357,208.8)" />
<use xlink:href="#f1_22" transform="matrix(10,0,0,10,363.8,208.8)" />
<use xlink:href="#f1_2g" transform="matrix(10,0,0,10,368.9,208.8)" />
<use xlink:href="#f1_i" transform="matrix(10,0,0,10,372.9,208.8)" />
<use xlink:href="#f0_n" transform="matrix(10,0,0,10,55,235.6)" />
<use xlink:href="#f0_s" transform="matrix(10,0,0,10,62.3,235.6)" />
<use xlink:href="#f0_i" transform="matrix(10,0,0,10,70,235.6)" />
<use xlink:href="#f1_19" transform="matrix(10,0,0,10,99.7,235.6)" />
<use xlink:href="#f1_2a" transform="matrix(10,0,0,10,104.7,235.6)" />
<use xlink:href="#f1_1n" transform="matrix(10,0,0,10,114.6,235.6)" />
<use xlink:href="#f1_24" transform="matrix(10,0,0,10,129.3,235.6)" />
<use xlink:href="#f1_21" transform="matrix(10,0,0,10,136.6,235.6)" />
<use xlink:href="#f1_1x" transform="matrix(10,0,0,10,143.2,235.6)" />
<use xlink:href="#f1_2g" transform="matrix(10,0,0,10,149.8,235.6)" />
<use xlink:href="#f1_2f" transform="matrix(10,0,0,10,154,235.6)" />
<use xlink:href="#f1_2g" transform="matrix(10,0,0,10,159.9,235.6)" />
<use xlink:href="#f1_2b" transform="matrix(10,0,0,10,163.9,235.6)" />
<use xlink:href="#f1_2a" transform="matrix(10,0,0,10,171.6,235.6)" />
<use xlink:href="#f1_21" transform="matrix(10,0,0,10,178.9,235.6)" />
<use xlink:href="#f1_1y" transform="matrix(10,0,0,10,188.3,235.6)" />
<use xlink:href="#f1_2e" transform="matrix(10,0,0,10,196,235.6)" />
<use xlink:href="#f1_25" transform="matrix(10,0,0,10,200.9,235.6)" />
<use xlink:href="#f1_20" transform="matrix(10,0,0,10,205.2,235.6)" />
<use xlink:href="#f1_23" transform="matrix(10,0,0,10,212.7,235.6)" />
<use xlink:href="#f1_21" transform="matrix(10,0,0,10,220,235.6)" />
<use xlink:href="#f1_2g" transform="matrix(10,0,0,10,229.5,235.6)" />
<use xlink:href="#f1_2b" transform="matrix(10,0,0,10,234,235.6)" />
<use xlink:href="#f1_1x" transform="matrix(10,0,0,10,244.4,235.6)" />
<use xlink:href="#f1_2i" transform="matrix(10,0,0,10,250.8,235.6)" />
<use xlink:href="#f1_2b" transform="matrix(10,0,0,10,258.3,235.6)" />
<use xlink:href="#f1_25" transform="matrix(10,0,0,10,266,235.6)" />
<use xlink:href="#f1_20" transform="matrix(10,0,0,10,270.3,235.6)" />
<use xlink:href="#f1_25" transform="matrix(10,0,0,10,280.5,235.6)" />
<use xlink:href="#f1_2a" transform="matrix(10,0,0,10,284.7,235.6)" />
<use xlink:href="#f1_20" transform="matrix(10,0,0,10,292.1,235.6)" />
<use xlink:href="#f1_2h" transform="matrix(10,0,0,10,299.8,235.6)" />
<use xlink:href="#f1_1z" transform="matrix(10,0,0,10,307.1,235.6)" />
<use xlink:href="#f1_2g" transform="matrix(10,0,0,10,313.7,235.6)" />
<use xlink:href="#f1_25" transform="matrix(10,0,0,10,317.9,235.6)" />
<use xlink:href="#f1_2i" transform="matrix(10,0,0,10,322.2,235.6)" />
<use xlink:href="#f1_21" transform="matrix(10,0,0,10,329.5,235.6)" />
<use xlink:href="#f1_21" transform="matrix(10,0,0,10,338.8,235.6)" />
<use xlink:href="#f1_22" transform="matrix(10,0,0,10,345.6,235.6)" />
<use xlink:href="#f1_22" transform="matrix(10,0,0,10,350.4,235.6)" />
<use xlink:href="#f1_21" transform="matrix(10,0,0,10,355.2,235.6)" />
<use xlink:href="#f1_1z" transform="matrix(10,0,0,10,361.9,235.6)" />
<use xlink:href="#f1_2g" transform="matrix(10,0,0,10,368.5,235.6)" />
<use xlink:href="#f1_2f" transform="matrix(10,0,0,10,372.8,235.6)" />
<use xlink:href="#f1_2g" transform="matrix(10,0,0,10,381.2,235.6)" />
<use xlink:href="#f1_24" transform="matrix(10,0,0,10,385.4,235.6)" />
<use xlink:href="#f1_21" transform="matrix(10,0,0,10,392.7,235.6)" />
<use xlink:href="#f1_1y" transform="matrix(10,0,0,10,402.4,235.6)" />
<use xlink:href="#f1_1x" transform="matrix(10,0,0,10,409.7,235.6)" />
<use xlink:href="#f1_2g" transform="matrix(10,0,0,10,416.7,235.6)" />
<use xlink:href="#f1_2g" transform="matrix(10,0,0,10,420.6,235.6)" />
<use xlink:href="#f1_21" transform="matrix(10,0,0,10,424.8,235.6)" />
<use xlink:href="#f1_2e" transform="matrix(10,0,0,10,431.4,235.6)" />
<use xlink:href="#f1_2l" transform="matrix(10,0,0,10,436.5,235.6)" />
<use xlink:href="#f1_27" transform="matrix(10,0,0,10,99.7,255.2)" />
<use xlink:href="#f1_21" transform="matrix(10,0,0,10,107.4,255.2)" />
<use xlink:href="#f1_2l" transform="matrix(10,0,0,10,114.2,255.2)" />
<use xlink:href="#f1_2f" transform="matrix(10,0,0,10,127.6,255.2)" />
<use xlink:href="#f1_24" transform="matrix(10,0,0,10,133.5,255.2)" />
<use xlink:href="#f1_2b" transform="matrix(10,0,0,10,141.2,255.2)" />
<use xlink:href="#f1_2h" transform="matrix(10,0,0,10,149,255.2)" />
<use xlink:href="#f1_28" transform="matrix(10,0,0,10,156.6,255.2)" />
<use xlink:href="#f1_20" transform="matrix(10,0,0,10,160.8,255.2)" />
<use xlink:href="#f1_1y" transform="matrix(10,0,0,10,174.9,255.2)" />
<use xlink:href="#f1_21" transform="matrix(10,0,0,10,182.4,255.2)" />
<use xlink:href="#f1_2c" transform="matrix(10,0,0,10,195.4,255.2)" />
<use xlink:href="#f1_2e" transform="matrix(10,0,0,10,203.3,255.2)" />
<use xlink:href="#f1_21" transform="matrix(10,0,0,10,208.3,255.2)" />
<use xlink:href="#f1_2f" transform="matrix(10,0,0,10,215.4,255.2)" />
<use xlink:href="#f1_2f" transform="matrix(10,0,0,10,221.5,255.2)" />
<use xlink:href="#f1_21" transform="matrix(10,0,0,10,227.2,255.2)" />
<use xlink:href="#f1_20" transform="matrix(10,0,0,10,234.3,255.2)" />
<use xlink:href="#f1_22" transform="matrix(10,0,0,10,248.1,255.2)" />
<use xlink:href="#f1_25" transform="matrix(10,0,0,10,253.2,255.2)" />
<use xlink:href="#f1_2e" transform="matrix(10,0,0,10,257.6,255.2)" />
<use xlink:href="#f1_2f" transform="matrix(10,0,0,10,262.9,255.2)" />
<use xlink:href="#f1_2g" transform="matrix(10,0,0,10,268.6,255.2)" />
<use xlink:href="#f1_1x" transform="matrix(10,0,0,10,279,255.2)" />
<use xlink:href="#f1_2a" transform="matrix(10,0,0,10,285.8,255.2)" />
<use xlink:href="#f1_20" transform="matrix(10,0,0,10,293.3,255.2)" />
<use xlink:href="#f1_2g" transform="matrix(10,0,0,10,307.5,255.2)" />
<use xlink:href="#f1_24" transform="matrix(10,0,0,10,311.7,255.2)" />
<use xlink:href="#f1_21" transform="matrix(10,0,0,10,319.2,255.2)" />
<use xlink:href="#f1_23" transform="matrix(10,0,0,10,332,255.2)" />
<use xlink:href="#f1_1x" transform="matrix(10,0,0,10,339.5,255.2)" />
<use xlink:href="#f1_28" transform="matrix(10,0,0,10,346.7,255.2)" />
<use xlink:href="#f1_2i" transform="matrix(10,0,0,10,351.1,255.2)" />
<use xlink:href="#f1_1x" transform="matrix(10,0,0,10,358.4,255.2)" />
<use xlink:href="#f1_2a" transform="matrix(10,0,0,10,365.4,255.2)" />
<use xlink:href="#f1_2b" transform="matrix(10,0,0,10,373.3,255.2)" />
<use xlink:href="#f1_29" transform="matrix(10,0,0,10,380.8,255.2)" />
<use xlink:href="#f1_21" transform="matrix(10,0,0,10,392.5,255.2)" />
<use xlink:href="#f1_2g" transform="matrix(10,0,0,10,399.5,255.2)" />
<use xlink:href="#f1_21" transform="matrix(10,0,0,10,403.7,255.2)" />
<use xlink:href="#f1_2e" transform="matrix(10,0,0,10,410.9,255.2)" />
<use xlink:href="#f1_27" transform="matrix(10,0,0,10,422.2,255.2)" />
<use xlink:href="#f1_21" transform="matrix(10,0,0,10,429.8,255.2)" />
<use xlink:href="#f1_2l" transform="matrix(10,0,0,10,436.7,255.2)" />
<use xlink:href="#f1_1x" transform="matrix(10,0,0,10,99.7,273)" />
<use xlink:href="#f1_22" transform="matrix(10,0,0,10,106.5,273)" />
<use xlink:href="#f1_2g" transform="matrix(10,0,0,10,111.5,273)" />
<use xlink:href="#f1_21" transform="matrix(10,0,0,10,115.9,273)" />
<use xlink:href="#f1_2e" transform="matrix(10,0,0,10,122.8,273)" />
<use xlink:href="#f1_2j" transform="matrix(10,0,0,10,127.8,273)" />
<use xlink:href="#f1_1x" transform="matrix(10,0,0,10,138.4,273)" />
<use xlink:href="#f1_2e" transform="matrix(10,0,0,10,145.6,273)" />
<use xlink:href="#f1_20" transform="matrix(10,0,0,10,150.7,273)" />
<use xlink:href="#f1_2f" transform="matrix(10,0,0,10,158.4,273)" />
<use xlink:href="#f1_i" transform="matrix(10,0,0,10,164.5,273)" />
<use xlink:href="#f0_n" transform="matrix(10,0,0,10,465.5,125)" />
<use xlink:href="#f0_t" transform="matrix(10,0,0,10,473.4,125)" />
<use xlink:href="#f0_i" transform="matrix(10,0,0,10,481.1,125)" />
<use xlink:href="#f1_1k" transform="matrix(10,0,0,10,510,125)" />
<use xlink:href="#f1_24" transform="matrix(10,0,0,10,519.8,125)" />
<use xlink:href="#f1_21" transform="matrix(10,0,0,10,527.3,125)" />
<use xlink:href="#f1_29" transform="matrix(10,0,0,10,538.1,125)" />
<use xlink:href="#f1_21" transform="matrix(10,0,0,10,549.6,125)" />
<use xlink:href="#f1_1x" transform="matrix(10,0,0,10,556.6,125)" />
<use xlink:href="#f1_2f" transform="matrix(10,0,0,10,563.6,125)" />
<use xlink:href="#f1_2h" transform="matrix(10,0,0,10,569.3,125)" />
<use xlink:href="#f1_2e" transform="matrix(10,0,0,10,577.1,125)" />
<use xlink:href="#f1_21" transform="matrix(10,0,0,10,582.1,125)" />
<use xlink:href="#f1_29" transform="matrix(10,0,0,10,589.2,125)" />
<use xlink:href="#f1_21" transform="matrix(10,0,0,10,600.8,125)" />
<use xlink:href="#f1_2a" transform="matrix(10,0,0,10,607.4,125)" />
<use xlink:href="#f1_2g" transform="matrix(10,0,0,10,615.3,125)" />
<use xlink:href="#f1_2b" transform="matrix(10,0,0,10,623.5,125)" />
<use xlink:href="#f1_22" transform="matrix(10,0,0,10,631.4,125)" />
<use xlink:href="#f1_2e" transform="matrix(10,0,0,10,640.2,125)" />
<use xlink:href="#f1_21" transform="matrix(10,0,0,10,645.4,125)" />
<use xlink:href="#f1_2f" transform="matrix(10,0,0,10,652.5,125)" />
<use xlink:href="#f1_25" transform="matrix(10,0,0,10,658.2,125)" />
<use xlink:href="#f1_2f" transform="matrix(10,0,0,10,662.6,125)" />
<use xlink:href="#f1_2g" transform="matrix(10,0,0,10,668.5,125)" />
<use xlink:href="#f1_1x" transform="matrix(10,0,0,10,673,125)" />
<use xlink:href="#f1_2a" transform="matrix(10,0,0,10,679.8,125)" />
<use xlink:href="#f1_1z" transform="matrix(10,0,0,10,687.3,125)" />
<use xlink:href="#f1_21" transform="matrix(10,0,0,10,694.3,125)" />
<use xlink:href="#f1_1y" transform="matrix(10,0,0,10,705,125)" />
<use xlink:href="#f1_2l" transform="matrix(10,0,0,10,712.8,125)" />
<use xlink:href="#f1_1n" transform="matrix(10,0,0,10,724.2,125)" />
<use xlink:href="#f1_24" transform="matrix(10,0,0,10,738.7,125)" />
<use xlink:href="#f1_21" transform="matrix(10,0,0,10,746.2,125)" />
<use xlink:href="#f1_1x" transform="matrix(10,0,0,10,753,125)" />
<use xlink:href="#f1_2g" transform="matrix(10,0,0,10,760.1,125)" />
<use xlink:href="#f1_2f" transform="matrix(10,0,0,10,764.4,125)" />
<use xlink:href="#f1_2g" transform="matrix(10,0,0,10,770,125)" />
<use xlink:href="#f1_2b" transform="matrix(10,0,0,10,774.4,125)" />
<use xlink:href="#f1_2a" transform="matrix(10,0,0,10,782.3,125)" />
<use xlink:href="#f1_21" transform="matrix(10,0,0,10,789.8,125)" />
<use xlink:href="#f1_1y" transform="matrix(10,0,0,10,801,125)" />
<use xlink:href="#f1_2e" transform="matrix(10,0,0,10,808.5,125)" />
<use xlink:href="#f1_25" transform="matrix(10,0,0,10,813.7,125)" />
<use xlink:href="#f1_20" transform="matrix(10,0,0,10,818.3,125)" />
<use xlink:href="#f1_23" transform="matrix(10,0,0,10,826,125)" />
<use xlink:href="#f1_21" transform="matrix(10,0,0,10,833.5,125)" />
<use xlink:href="#f1_25" transform="matrix(10,0,0,10,844.2,125)" />
<use xlink:href="#f1_2f" transform="matrix(10,0,0,10,848.5,125)" />
<use xlink:href="#f1_2a" transform="matrix(10,0,0,10,510,146.3)" />
<use xlink:href="#f1_2b" transform="matrix(10,0,0,10,517.6,146.3)" />
<use xlink:href="#f1_2g" transform="matrix(10,0,0,10,525.4,146.3)" />
<use xlink:href="#f1_1x" transform="matrix(10,0,0,10,533.9,146.3)" />
<use xlink:href="#f1_22" transform="matrix(10,0,0,10,540.7,146.3)" />
<use xlink:href="#f1_22" transform="matrix(10,0,0,10,545.2,146.3)" />
<use xlink:href="#f1_21" transform="matrix(10,0,0,10,550.6,146.3)" />
<use xlink:href="#f1_1z" transform="matrix(10,0,0,10,557.2,146.3)" />
<use xlink:href="#f1_2g" transform="matrix(10,0,0,10,564.3,146.3)" />
<use xlink:href="#f1_21" transform="matrix(10,0,0,10,568.5,146.3)" />
<use xlink:href="#f1_20" transform="matrix(10,0,0,10,575.5,146.3)" />
<use xlink:href="#f1_1y" transform="matrix(10,0,0,10,586.7,146.3)" />
<use xlink:href="#f1_2l" transform="matrix(10,0,0,10,594.6,146.3)" />
<use xlink:href="#f1_2g" transform="matrix(10,0,0,10,606.1,146.3)" />
<use xlink:href="#f1_24" transform="matrix(10,0,0,10,610.2,146.3)" />
<use xlink:href="#f1_21" transform="matrix(10,0,0,10,617.9,146.3)" />
<use xlink:href="#f1_25" transform="matrix(10,0,0,10,628.7,146.3)" />
<use xlink:href="#f1_2a" transform="matrix(10,0,0,10,633.1,146.3)" />
<use xlink:href="#f1_2g" transform="matrix(10,0,0,10,640.4,146.3)" />
<use xlink:href="#f1_21" transform="matrix(10,0,0,10,644.6,146.3)" />
<use xlink:href="#f1_2e" transform="matrix(10,0,0,10,651.8,146.3)" />
<use xlink:href="#f1_2a" transform="matrix(10,0,0,10,656.9,146.3)" />
<use xlink:href="#f1_1x" transform="matrix(10,0,0,10,664.4,146.3)" />
<use xlink:href="#f1_28" transform="matrix(10,0,0,10,671.4,146.3)" />
<use xlink:href="#f1_2e" transform="matrix(10,0,0,10,679.5,146.3)" />
<use xlink:href="#f1_21" transform="matrix(10,0,0,10,684.8,146.3)" />
<use xlink:href="#f1_2f" transform="matrix(10,0,0,10,691.8,146.3)" />
<use xlink:href="#f1_25" transform="matrix(10,0,0,10,697.4,146.3)" />
<use xlink:href="#f1_2f" transform="matrix(10,0,0,10,701.8,146.3)" />
<use xlink:href="#f1_2g" transform="matrix(10,0,0,10,707.9,146.3)" />
<use xlink:href="#f1_1x" transform="matrix(10,0,0,10,711.9,146.3)" />
<use xlink:href="#f1_2a" transform="matrix(10,0,0,10,718.9,146.3)" />
<use xlink:href="#f1_1z" transform="matrix(10,0,0,10,726.6,146.3)" />
<use xlink:href="#f1_21" transform="matrix(10,0,0,10,733.4,146.3)" />
<use xlink:href="#f1_2b" transform="matrix(10,0,0,10,743.8,146.3)" />
<use xlink:href="#f1_22" transform="matrix(10,0,0,10,751.9,146.3)" />
<use xlink:href="#f1_2g" transform="matrix(10,0,0,10,760.9,146.3)" />
<use xlink:href="#f1_24" transform="matrix(10,0,0,10,765.1,146.3)" />
<use xlink:href="#f1_21" transform="matrix(10,0,0,10,772.6,146.3)" />
<use xlink:href="#f1_1z" transform="matrix(10,0,0,10,783.2,146.3)" />
<use xlink:href="#f1_21" transform="matrix(10,0,0,10,790.2,146.3)" />
<use xlink:href="#f1_28" transform="matrix(10,0,0,10,797.2,146.3)" />
<use xlink:href="#f1_28" transform="matrix(10,0,0,10,801.6,146.3)" />
<use xlink:href="#f1_i" transform="matrix(10,0,0,10,805.6,146.3)" />
<use xlink:href="#f0_o" transform="matrix(10,0,0,10,465.5,173.8)" />
<use xlink:href="#f0_k" transform="matrix(10,0,0,10,473,173.8)" />
<use xlink:href="#f0_i" transform="matrix(10,0,0,10,480.7,173.8)" />
<use xlink:href="#f1_19" transform="matrix(10,0,0,10,510,173.8)" />
<use xlink:href="#f1_2a" transform="matrix(10,0,0,10,515.3,173.8)" />
<use xlink:href="#f1_1z" transform="matrix(10,0,0,10,528.7,173.8)" />
<use xlink:href="#f1_1x" transform="matrix(10,0,0,10,535.5,173.8)" />
<use xlink:href="#f1_2f" transform="matrix(10,0,0,10,542.3,173.8)" />
<use xlink:href="#f1_21" transform="matrix(10,0,0,10,548.4,173.8)" />
<use xlink:href="#f1_2b" transform="matrix(10,0,0,10,561,173.8)" />
<use xlink:href="#f1_22" transform="matrix(10,0,0,10,568.9,173.8)" />
<use xlink:href="#f1_2m" transform="matrix(10,0,0,10,579.7,173.8)" />
<use xlink:href="#f1_21" transform="matrix(10,0,0,10,586.5,173.8)" />
<use xlink:href="#f1_2e" transform="matrix(10,0,0,10,593.1,173.8)" />
<use xlink:href="#f1_2b" transform="matrix(10,0,0,10,598.4,173.8)" />
<use xlink:href="#f1_20" transform="matrix(10,0,0,10,612,173.8)" />
<use xlink:href="#f1_21" transform="matrix(10,0,0,10,619.9,173.8)" />
<use xlink:href="#f1_22" transform="matrix(10,0,0,10,626.6,173.8)" />
<use xlink:href="#f1_28" transform="matrix(10,0,0,10,631.8,173.8)" />
<use xlink:href="#f1_21" transform="matrix(10,0,0,10,635.8,173.8)" />
<use xlink:href="#f1_1z" transform="matrix(10,0,0,10,642.8,173.8)" />
<use xlink:href="#f1_2g" transform="matrix(10,0,0,10,649.8,173.8)" />
<use xlink:href="#f1_25" transform="matrix(10,0,0,10,654.2,173.8)" />
<use xlink:href="#f1_2b" transform="matrix(10,0,0,10,658.2,173.8)" />
<use xlink:href="#f1_2a" transform="matrix(10,0,0,10,666.1,173.8)" />
<use xlink:href="#f1_25" transform="matrix(10,0,0,10,679.5,173.8)" />
<use xlink:href="#f1_2a" transform="matrix(10,0,0,10,683.9,173.8)" />
<use xlink:href="#f1_2g" transform="matrix(10,0,0,10,697.2,173.8)" />
<use xlink:href="#f1_24" transform="matrix(10,0,0,10,701.6,173.8)" />
<use xlink:href="#f1_21" transform="matrix(10,0,0,10,709,173.8)" />
<use xlink:href="#f1_23" transform="matrix(10,0,0,10,721.6,173.8)" />
<use xlink:href="#f1_1x" transform="matrix(10,0,0,10,729.5,173.8)" />
<use xlink:href="#f1_28" transform="matrix(10,0,0,10,736.1,173.8)" />
<use xlink:href="#f1_2i" transform="matrix(10,0,0,10,740.5,173.8)" />
<use xlink:href="#f1_1x" transform="matrix(10,0,0,10,748.2,173.8)" />
<use xlink:href="#f1_2a" transform="matrix(10,0,0,10,755,173.8)" />
<use xlink:href="#f1_2b" transform="matrix(10,0,0,10,762.5,173.8)" />
<use xlink:href="#f1_29" transform="matrix(10,0,0,10,770.4,173.8)" />
<use xlink:href="#f1_21" transform="matrix(10,0,0,10,782,173.8)" />
<use xlink:href="#f1_2g" transform="matrix(10,0,0,10,788.9,173.8)" />
<use xlink:href="#f1_21" transform="matrix(10,0,0,10,793,173.8)" />
<use xlink:href="#f1_2e" transform="matrix(10,0,0,10,799.9,173.8)" />
<use xlink:href="#f1_1z" transform="matrix(10,0,0,10,810.9,173.8)" />
<use xlink:href="#f1_2h" transform="matrix(10,0,0,10,817.9,173.8)" />
<use xlink:href="#f1_2e" transform="matrix(10,0,0,10,825.2,173.8)" />
<use xlink:href="#f1_2e" transform="matrix(10,0,0,10,830.5,173.8)" />
<use xlink:href="#f1_21" transform="matrix(10,0,0,10,835.6,173.8)" />
<use xlink:href="#f1_2a" transform="matrix(10,0,0,10,842.8,173.8)" />
<use xlink:href="#f1_2g" transform="matrix(10,0,0,10,850.1,173.8)" />
<use xlink:href="#f1_22" transform="matrix(10,0,0,10,510,193.4)" />
<use xlink:href="#f1_28" transform="matrix(10,0,0,10,515.2,193.4)" />
<use xlink:href="#f1_2b" transform="matrix(10,0,0,10,519.4,193.4)" />
<use xlink:href="#f1_2j" transform="matrix(10,0,0,10,527.3,193.4)" />
<use xlink:href="#f1_2f" transform="matrix(10,0,0,10,537.9,193.4)" />
<use xlink:href="#f1_25" transform="matrix(10,0,0,10,548.3,193.4)" />
<use xlink:href="#f1_2a" transform="matrix(10,0,0,10,552.8,193.4)" />
<use xlink:href="#f1_2g" transform="matrix(10,0,0,10,564.7,193.4)" />
<use xlink:href="#f1_24" transform="matrix(10,0,0,10,569.1,193.4)" />
<use xlink:href="#f1_21" transform="matrix(10,0,0,10,576.8,193.4)" />
<use xlink:href="#f1_2c" transform="matrix(10,0,0,10,588,193.4)" />
<use xlink:href="#f1_2e" transform="matrix(10,0,0,10,595.7,193.4)" />
<use xlink:href="#f1_25" transform="matrix(10,0,0,10,600.8,193.4)" />
<use xlink:href="#f1_29" transform="matrix(10,0,0,10,605.2,193.4)" />
<use xlink:href="#f1_1x" transform="matrix(10,0,0,10,616.7,193.4)" />
<use xlink:href="#f1_2e" transform="matrix(10,0,0,10,623.7,193.4)" />
<use xlink:href="#f1_2l" transform="matrix(10,0,0,10,629,193.4)" />
<use xlink:href="#f1_1z" transform="matrix(10,0,0,10,640.9,193.4)" />
<use xlink:href="#f1_25" transform="matrix(10,0,0,10,647.5,193.4)" />
<use xlink:href="#f1_2e" transform="matrix(10,0,0,10,652,193.4)" />
<use xlink:href="#f1_1z" transform="matrix(10,0,0,10,657.3,193.4)" />
<use xlink:href="#f1_2h" transform="matrix(10,0,0,10,663.9,193.4)" />
<use xlink:href="#f1_25" transform="matrix(10,0,0,10,671.8,193.4)" />
<use xlink:href="#f1_2g" transform="matrix(10,0,0,10,675.8,193.4)" />
<use xlink:href="#f1_2b" transform="matrix(10,0,0,10,684.6,193.4)" />
<use xlink:href="#f1_22" transform="matrix(10,0,0,10,692.3,193.4)" />
<use xlink:href="#f1_2g" transform="matrix(10,0,0,10,702,193.4)" />
<use xlink:href="#f1_24" transform="matrix(10,0,0,10,706.4,193.4)" />
<use xlink:href="#f1_21" transform="matrix(10,0,0,10,713.9,193.4)" />
<use xlink:href="#f1_2c" transform="matrix(10,0,0,10,725.3,193.4)" />
<use xlink:href="#f1_2b" transform="matrix(10,0,0,10,732.8,193.4)" />
<use xlink:href="#f1_2g" transform="matrix(10,0,0,10,740.7,193.4)" />
<use xlink:href="#f1_21" transform="matrix(10,0,0,10,744.9,193.4)" />
<use xlink:href="#f1_2a" transform="matrix(10,0,0,10,751.9,193.4)" />
<use xlink:href="#f1_2g" transform="matrix(10,0,0,10,759.4,193.4)" />
<use xlink:href="#f1_25" transform="matrix(10,0,0,10,763.6,193.4)" />
<use xlink:href="#f1_2b" transform="matrix(10,0,0,10,768,193.4)" />
<use xlink:href="#f1_29" transform="matrix(10,0,0,10,775.9,193.4)" />
<use xlink:href="#f1_21" transform="matrix(10,0,0,10,787.5,193.4)" />
<use xlink:href="#f1_2g" transform="matrix(10,0,0,10,794.2,193.4)" />
<use xlink:href="#f1_21" transform="matrix(10,0,0,10,798.5,193.4)" />
<use xlink:href="#f1_2e" transform="matrix(10,0,0,10,805.4,193.4)" />
<use xlink:href="#f1_g" transform="matrix(10,0,0,10,810,193.4)" />
<use xlink:href="#f1_2a" transform="matrix(10,0,0,10,818.6,193.4)" />
<use xlink:href="#f1_2b" transform="matrix(10,0,0,10,826.1,193.4)" />
<use xlink:href="#f1_2g" transform="matrix(10,0,0,10,834,193.4)" />
<use xlink:href="#f1_25" transform="matrix(10,0,0,10,842.8,193.4)" />
<use xlink:href="#f1_2a" transform="matrix(10,0,0,10,847,193.4)" />
<use xlink:href="#f1_2g" transform="matrix(10,0,0,10,510,211.2)" />
<use xlink:href="#f1_24" transform="matrix(10,0,0,10,514.4,211.2)" />
<use xlink:href="#f1_21" transform="matrix(10,0,0,10,522.1,211.2)" />
<use xlink:href="#f1_23" transform="matrix(10,0,0,10,532.6,211.2)" />
<use xlink:href="#f1_1x" transform="matrix(10,0,0,10,540.1,211.2)" />
<use xlink:href="#f1_28" transform="matrix(10,0,0,10,547.1,211.2)" />
<use xlink:href="#f1_2i" transform="matrix(10,0,0,10,551.5,211.2)" />
<use xlink:href="#f1_1x" transform="matrix(10,0,0,10,558.8,211.2)" />
<use xlink:href="#f1_2a" transform="matrix(10,0,0,10,565.8,211.2)" />
<use xlink:href="#f1_2b" transform="matrix(10,0,0,10,573.3,211.2)" />
<use xlink:href="#f1_29" transform="matrix(10,0,0,10,581.2,211.2)" />
<use xlink:href="#f1_21" transform="matrix(10,0,0,10,592.7,211.2)" />
<use xlink:href="#f1_2g" transform="matrix(10,0,0,10,599.7,211.2)" />
<use xlink:href="#f1_21" transform="matrix(10,0,0,10,604.1,211.2)" />
<use xlink:href="#f1_2e" transform="matrix(10,0,0,10,610.9,211.2)" />
<use xlink:href="#f1_1z" transform="matrix(10,0,0,10,619.9,211.2)" />
<use xlink:href="#f1_25" transform="matrix(10,0,0,10,626.8,211.2)" />
<use xlink:href="#f1_2e" transform="matrix(10,0,0,10,631.2,211.2)" />
<use xlink:href="#f1_1z" transform="matrix(10,0,0,10,636.2,211.2)" />
<use xlink:href="#f1_2h" transform="matrix(10,0,0,10,643.3,211.2)" />
<use xlink:href="#f1_25" transform="matrix(10,0,0,10,650.7,211.2)" />
<use xlink:href="#f1_2g" transform="matrix(10,0,0,10,655.1,211.2)" />
<use xlink:href="#f1_i" transform="matrix(10,0,0,10,659.3,211.2)" />
<use xlink:href="#f0_o" transform="matrix(10,0,0,10,465.5,238.3)" />
<use xlink:href="#f0_l" transform="matrix(10,0,0,10,473,238.3)" />
<use xlink:href="#f0_i" transform="matrix(10,0,0,10,480.7,238.3)" />
<use xlink:href="#f1_11" transform="matrix(10,0,0,10,510,238.3)" />
<use xlink:href="#f1_2c" transform="matrix(10,0,0,10,524.2,238.3)" />
<use xlink:href="#f1_2b" transform="matrix(10,0,0,10,531.7,238.3)" />
<use xlink:href="#f1_2g" transform="matrix(10,0,0,10,539.7,238.3)" />
<use xlink:href="#f1_21" transform="matrix(10,0,0,10,544,238.3)" />
<use xlink:href="#f1_2a" transform="matrix(10,0,0,10,550.9,238.3)" />
<use xlink:href="#f1_2g" transform="matrix(10,0,0,10,558.3,238.3)" />
<use xlink:href="#f1_25" transform="matrix(10,0,0,10,562.7,238.3)" />
<use xlink:href="#f1_2b" transform="matrix(10,0,0,10,567.1,238.3)" />
<use xlink:href="#f1_29" transform="matrix(10,0,0,10,574.8,238.3)" />
<use xlink:href="#f1_21" transform="matrix(10,0,0,10,586.5,238.3)" />
<use xlink:href="#f1_2g" transform="matrix(10,0,0,10,593.3,238.3)" />
<use xlink:href="#f1_21" transform="matrix(10,0,0,10,597.5,238.3)" />
<use xlink:href="#f1_2e" transform="matrix(10,0,0,10,604.5,238.3)" />
<use xlink:href="#f1_1z" transform="matrix(10,0,0,10,613.5,238.3)" />
<use xlink:href="#f1_1x" transform="matrix(10,0,0,10,620.2,238.3)" />
<use xlink:href="#f1_2a" transform="matrix(10,0,0,10,627.4,238.3)" />
<use xlink:href="#f1_1x" transform="matrix(10,0,0,10,638.8,238.3)" />
<use xlink:href="#f1_1z" transform="matrix(10,0,0,10,645.5,238.3)" />
<use xlink:href="#f1_2g" transform="matrix(10,0,0,10,652.5,238.3)" />
<use xlink:href="#f1_1x" transform="matrix(10,0,0,10,660.6,238.3)" />
<use xlink:href="#f1_2f" transform="matrix(10,0,0,10,667.5,238.3)" />
<use xlink:href="#f1_1x" transform="matrix(10,0,0,10,677.3,238.3)" />
<use xlink:href="#f1_2a" transform="matrix(10,0,0,10,684,238.3)" />
<use xlink:href="#f1_25" transform="matrix(10,0,0,10,695.6,238.3)" />
<use xlink:href="#f1_20" transform="matrix(10,0,0,10,699.8,238.3)" />
<use xlink:href="#f1_21" transform="matrix(10,0,0,10,707.9,238.3)" />
<use xlink:href="#f1_1x" transform="matrix(10,0,0,10,714.7,238.3)" />
<use xlink:href="#f1_28" transform="matrix(10,0,0,10,721.5,238.3)" />
<use xlink:href="#f1_2i" transform="matrix(10,0,0,10,729.7,238.3)" />
<use xlink:href="#f1_2b" transform="matrix(10,0,0,10,737.4,238.3)" />
<use xlink:href="#f1_28" transform="matrix(10,0,0,10,744.9,238.3)" />
<use xlink:href="#f1_2g" transform="matrix(10,0,0,10,749.1,238.3)" />
<use xlink:href="#f1_29" transform="matrix(10,0,0,10,753.7,238.3)" />
<use xlink:href="#f1_21" transform="matrix(10,0,0,10,765.3,238.3)" />
<use xlink:href="#f1_2g" transform="matrix(10,0,0,10,772.3,238.3)" />
<use xlink:href="#f1_21" transform="matrix(10,0,0,10,776.3,238.3)" />
<use xlink:href="#f1_2e" transform="matrix(10,0,0,10,783.3,238.3)" />
<use xlink:href="#f1_i" transform="matrix(10,0,0,10,787.7,238.3)" />
</g>
<path fill-rule="evenodd" d="M54.1,68H856.2V96.4H54.1V68l1.5,27H854.7V69.7H55.6V95L54.1,68Z" class="g0_74" />
<path fill-rule="evenodd" d="M55.6,93.3H855.1v3H55.6v-3Z" class="g1_74" />
<path fill-rule="evenodd" d="M55.6,68.2H855.1v3.1H55.6V68.2Z" class="g1_74" />
<g fill="#000000" >
<use xlink:href="#f3_13" transform="matrix(10,0,0,10,61.2,86.7)" />
<use xlink:href="#f3_1l" transform="matrix(10,0,0,10,72.4,86.7)" />
<use xlink:href="#f3_1i" transform="matrix(10,0,0,10,83.6,86.7)" />
<use xlink:href="#f3_1i" transform="matrix(10,0,0,10,95.5,86.7)" />
<use xlink:href="#f3_15" transform="matrix(10,0,0,10,107.6,86.7)" />
<use xlink:href="#f3_1e" transform="matrix(10,0,0,10,118.6,86.7)" />
<use xlink:href="#f3_1k" transform="matrix(10,0,0,10,129.6,86.7)" />
<use xlink:href="#f3_15" transform="matrix(10,0,0,10,144.8,86.7)" />
<use xlink:href="#f3_1c" transform="matrix(10,0,0,10,156,86.7)" />
<use xlink:href="#f3_15" transform="matrix(10,0,0,10,165.7,86.7)" />
<use xlink:href="#f3_13" transform="matrix(10,0,0,10,176.7,86.7)" />
<use xlink:href="#f3_1k" transform="matrix(10,0,0,10,187.7,86.7)" />
<use xlink:href="#f3_1i" transform="matrix(10,0,0,10,198.4,86.7)" />
<use xlink:href="#f3_19" transform="matrix(10,0,0,10,210.3,86.7)" />
<use xlink:href="#f3_13" transform="matrix(10,0,0,10,216.3,86.7)" />
<use xlink:href="#f3_19" transform="matrix(10,0,0,10,227.7,86.7)" />
<use xlink:href="#f3_1k" transform="matrix(10,0,0,10,233.8,86.7)" />
<use xlink:href="#f3_1p" transform="matrix(10,0,0,10,244.2,86.7)" />
</g>
<path fill-rule="evenodd" d="M55,1176.4H857.5v2.4H55v-2.4Z" class="g1_74" />
<path fill-rule="evenodd" d="M453.6,1176.2V95.4h2.3V1176.2h-2.3Z" class="g1_74" />
<path fill-rule="evenodd" d="M55,297.2H854.5v2.9H55v-2.9Z" class="g1_74" />
<defs>
<path d="M254,-20c0,0,-128,0,-187,41C67,21,24,51,24,98c0,0,0,34,25,59c0,0,25,24,57,24c0,0,25,0,46,-11c0,0,12,-6,85,-65c0,0,73,-59,136,-59c0,0,56,0,95,44c0,0,40,43,40,110c0,0,0,102,-72,189c0,0,-72,86,-210,118v27c0,0,85,24,118,46c0,0,33,21,57,64c0,0,24,44,24,89c0,0,0,61,-46,106c0,0,-45,44,-112,44c0,0,-105,0,-178,-110l-27,9c0,0,53,125,137,188c0,0,84,63,187,63c0,0,105,0,174,-65c0,0,68,-64,68,-150c0,0,0,-56,-32,-107c0,0,-32,-52,-100,-92c0,0,88,-42,134,-105c0,0,46,-62,46,-156c0,0,0,-158,-115,-269C561,89,447,-20,254,-20Z" 
id="f0_n"
transform="scale(0.001,-0.001)" />

<path d="M415,27c0,0,35,0,62,40c0,0,27,40,27,163c0,0,0,206,-50,284c0,0,-33,51,-88,51c0,0,-30,0,-78,-24c0,0,-5,-104,-5,-151c0,0,0,-103,19,-200c0,0,20,-96,55,-135c0,0,25,-28,58,-28ZM397,-20c0,0,-93,0,-172,51c0,0,-79,51,-124,149c0,0,-44,99,-44,214c0,0,0,170,81,317c0,0,82,146,233,233c0,0,150,87,347,89v-21c0,0,-135,-34,-217,-88c0,0,-82,-54,-129,-132c0,0,-48,-77,-74,-191c0,0,33,23,55,29c0,0,48,15,98,15c0,0,113,0,189,-82c0,0,76,-83,76,-225c0,0,0,-100,-41,-184C675,154,634,71,558,25c0,0,-75,-45,-161,-45Z" 
id="f0_q"
transform="scale(0.001,-0.001)" />

<path d="M191,-18c0,0,-51,0,-87,36c0,0,-37,36,-37,87c0,0,0,52,37,88c0,0,36,37,87,37c0,0,52,0,89,-37c0,0,36,-36,36,-88c0,0,0,-51,-37,-87c0,0,-36,-36,-88,-36Z" 
id="f0_i"
transform="scale(0.001,-0.001)" />

<path d="M474,-21L174,817c0,0,-34,94,-42,112c0,0,-15,28,-41,42c0,0,-26,14,-70,14v27H395V985H377c0,0,-40,0,-60,-18c0,0,-21,-18,-21,-44c0,0,0,-26,33,-120L528,235L696,718l-30,85l-24,68c0,0,-16,37,-35,66c0,0,-10,14,-24,24c0,0,-19,13,-38,19c0,0,-14,5,-44,5v27H894V985H867c0,0,-41,0,-61,-18c0,0,-19,-18,-19,-49c0,0,0,-38,33,-133L1015,235l193,557c0,0,32,93,32,129c0,0,0,17,-10,32c0,0,-11,15,-28,21c0,0,-28,11,-74,11v27h302V985c0,0,-39,0,-64,-15c0,0,-25,-14,-47,-53c0,0,-15,-26,-47,-124L990,-21H960L729,624L501,-21Z" 
id="f1_1n"
transform="scale(0.001,-0.001)" />

<path d="M20,0V26c0,0,45,0,71,15c0,0,15,7,24,28c0,0,9,21,9,85V773c0,0,0,117,-5,144c0,0,-6,27,-17,37c0,0,-12,9,-31,9c0,0,-16,0,-51,-12L10,978l204,83h34V561c0,0,83,91,131,116c0,0,49,26,97,26c0,0,58,0,100,-32c0,0,42,-32,62,-101c0,0,14,-47,14,-174V154c0,0,0,-65,11,-89c0,0,7,-18,25,-28c0,0,18,-11,66,-11V0H418V26h15c0,0,48,0,67,15c0,0,18,15,26,43c0,0,2,12,2,70V396c0,0,0,112,-12,147c0,0,-11,35,-36,53c0,0,-26,17,-61,17c0,0,-37,0,-76,-19c0,0,-40,-20,-95,-79V154c0,0,0,-70,8,-87c0,0,8,-17,29,-29c0,0,22,-12,74,-12V0Z" 
id="f1_24"
transform="scale(0.001,-0.001)" />

<path d="M479,469c0,0,-4,66,-16,93c0,0,-18,42,-55,65c0,0,-37,24,-78,24c0,0,-62,0,-111,-48c0,0,-48,-48,-57,-134ZM355,-20c0,0,-123,0,-211,95c0,0,-87,96,-87,258c0,0,0,175,90,273c0,0,89,98,225,98c0,0,115,0,189,-76c0,0,74,-75,74,-202H162c0,0,0,-152,74,-239c0,0,75,-86,175,-86c0,0,67,0,117,36c0,0,50,37,83,127l24,-15c0,0,-16,-102,-91,-186c0,0,-76,-83,-189,-83Z" 
id="f1_21"
transform="scale(0.001,-0.001)" />

<path d="M286,72c0,0,57,0,149,75V407c0,0,-113,-45,-145,-64c0,0,-59,-32,-85,-68c0,0,-25,-36,-25,-78c0,0,0,-54,32,-89c0,0,32,-36,74,-36ZM217,-13c0,0,-71,0,-116,48c0,0,-46,48,-46,127c0,0,0,50,22,87c0,0,31,50,106,95c0,0,76,45,252,109v26c0,0,0,102,-32,140c0,0,-32,38,-94,38c0,0,-47,0,-74,-25c0,0,-28,-25,-28,-58l1,-43c0,0,0,-34,-17,-53c0,0,-18,-18,-47,-18c0,0,-28,0,-45,19c0,0,-18,19,-18,53c0,0,0,64,66,117c0,0,65,54,184,54c0,0,91,0,149,-31c0,0,44,-23,65,-72c0,0,13,-32,13,-131V238c0,0,0,-98,4,-120c0,0,4,-22,12,-29c0,0,9,-8,20,-8c0,0,12,0,21,5c0,0,16,10,61,55V99C676,99,592,-12,516,-12c0,0,-37,0,-58,24c0,0,-22,26,-23,86C435,98,330,17,303,5c0,0,-40,-18,-86,-18Z" 
id="f1_1x"
transform="scale(0.001,-0.001)" />

<path d="M255,-10c0,0,-35,0,-68,18c0,0,-32,19,-48,55c0,0,-16,35,-16,109V632H15v24c0,0,41,16,84,56c0,0,43,39,77,92c0,0,17,29,48,104h23V683H407V632H247V188c0,0,0,-66,19,-90c0,0,19,-23,49,-23c0,0,24,0,47,16c0,0,23,15,36,45h29c0,0,-26,-73,-74,-110c0,0,-47,-36,-98,-36Z" 
id="f1_2g"
transform="scale(0.001,-0.001)" />

<path d="M312,-20c0,0,-62,0,-143,22c0,0,-25,8,-40,8c0,0,-18,0,-27,-19H77V234h25c0,0,21,-105,80,-158c0,0,59,-53,132,-53c0,0,51,0,84,31c0,0,32,30,32,72c0,0,0,52,-36,87c0,0,-36,35,-144,88c0,0,-109,54,-142,97c0,0,-34,43,-34,107c0,0,0,85,58,141c0,0,58,57,150,57c0,0,40,0,97,-17c0,0,38,-11,51,-11c0,0,12,0,19,5c0,0,7,5,15,23h25V470H464c0,0,-28,110,-72,149c0,0,-45,40,-113,40c0,0,-53,0,-85,-28c0,0,-32,-27,-32,-61c0,0,0,-41,24,-71c0,0,23,-31,94,-65L389,381c0,0,152,-74,152,-194c0,0,0,-94,-71,-151c0,0,-70,-56,-158,-56Z" 
id="f1_2f"
transform="scale(0.001,-0.001)" />

<path d="M406,32c0,0,72,0,119,60c0,0,47,59,47,205c0,0,0,181,-78,286c0,0,-53,71,-135,71c0,0,-40,0,-79,-23c0,0,-40,-24,-65,-83c0,0,-24,-58,-24,-151c0,0,0,-149,59,-257c0,0,59,-108,156,-108ZM374,-20c0,0,-154,0,-245,122c0,0,-77,104,-77,233c0,0,0,94,46,187c0,0,47,92,123,137c0,0,76,44,161,44c0,0,155,0,249,-118c0,0,80,-100,80,-231c0,0,0,-91,-44,-185C667,169,623,75,546,27c0,0,-77,-47,-172,-47Z" 
id="f1_2b"
transform="scale(0.001,-0.001)" />

<path d="M21,0V26H35c0,0,53,0,71,27c0,0,18,27,18,101V408c0,0,0,123,-5,150c0,0,-6,27,-17,37c0,0,-12,10,-31,10c0,0,-21,0,-50,-11L10,620l206,83h32V558c0,0,120,145,229,145c0,0,56,0,96,-28c0,0,40,-28,64,-92c0,0,16,-45,16,-137V154c0,0,0,-65,11,-88c0,0,8,-19,26,-29c0,0,18,-11,68,-11V0H419V26h14c0,0,47,0,66,15c0,0,20,15,27,43c0,0,3,11,3,70V434c0,0,0,93,-24,135c0,0,-24,42,-81,42c0,0,-88,0,-176,-97V154c0,0,0,-69,9,-86c0,0,10,-21,28,-31c0,0,19,-11,75,-11V0Z" 
id="f1_2a"
transform="scale(0.001,-0.001)" />

<path d="M397,34c0,0,67,0,126,75c0,0,58,74,58,216c0,0,0,131,-58,201c0,0,-59,70,-133,70c0,0,-39,0,-79,-20c0,0,-29,-14,-75,-59V109c0,0,37,-37,78,-56c0,0,40,-19,83,-19ZM358,-20c0,0,-59,0,-121,21c0,0,-61,22,-126,65V773c0,0,0,117,-5,144c0,0,-6,27,-18,37c0,0,-12,9,-29,9c0,0,-21,0,-53,-12l-9,27l205,83h34V564c0,0,98,139,213,139c0,0,105,0,183,-90c0,0,78,-90,78,-245c0,0,0,-182,-121,-293c0,0,-103,-95,-231,-95Z" 
id="f1_1y"
transform="scale(0.001,-0.001)" />

<path d="M17,0V26c0,0,52,0,77,17c0,0,19,12,26,38c0,0,4,13,4,73V419c0,0,0,119,-5,142c0,0,-4,23,-17,33c0,0,-13,11,-33,11c0,0,-23,0,-52,-11l-7,26l207,83h31V549c0,0,86,154,176,154c0,0,41,0,68,-25c0,0,27,-25,27,-58c0,0,0,-29,-20,-49c0,0,-19,-20,-46,-20c0,0,-26,0,-58,25c0,0,-33,26,-48,26c0,0,-14,0,-29,-15c0,0,-34,-30,-70,-101V159c0,0,0,-56,15,-85c0,0,9,-20,34,-34c0,0,24,-14,71,-14V0Z" 
id="f1_2e"
transform="scale(0.001,-0.001)" />

<path d="M55,0V26c0,0,50,0,67,10c0,0,17,10,27,32c0,0,10,23,10,86V418c0,0,0,111,-6,144c0,0,-6,24,-17,33c0,0,-11,10,-30,10c0,0,-21,0,-51,-11L45,620l206,83h33V154c0,0,0,-64,9,-85c0,0,9,-22,27,-32c0,0,19,-11,67,-11V0ZM222,909c0,0,-32,0,-54,23c0,0,-22,22,-22,53c0,0,0,32,22,54c0,0,22,22,54,22c0,0,31,0,53,-22c0,0,22,-22,22,-54c0,0,0,-31,-22,-53c0,0,-22,-23,-53,-23Z" 
id="f1_25"
transform="scale(0.001,-0.001)" />

<path d="M399,62c0,0,68,0,131,68V481c0,0,-5,51,-27,93c0,0,-22,42,-59,63c0,0,-37,21,-72,21c0,0,-65,0,-117,-59c0,0,-67,-77,-67,-226c0,0,0,-151,65,-231c0,0,66,-80,146,-80ZM330,-20c0,0,-112,0,-196,93c0,0,-83,94,-83,240c0,0,0,147,92,269c0,0,93,122,238,122c0,0,90,0,149,-58V773c0,0,0,117,-6,144c0,0,-5,27,-17,37c0,0,-12,9,-30,9c0,0,-20,0,-52,-12l-9,27l204,83h33V270c0,0,0,-120,6,-146c0,0,5,-27,18,-37c0,0,12,-11,28,-11c0,0,21,0,54,13l9,-26L564,-20H530V78C530,78,480,25,432,2c0,0,-47,-22,-102,-22Z" 
id="f1_20"
transform="scale(0.001,-0.001)" />

<path d="M411,-239c0,0,134,0,198,48c0,0,64,47,64,100c0,0,0,39,-38,55c0,0,-39,16,-154,19c0,0,-167,5,-258,17c0,0,-35,-37,-53,-70c0,0,-17,-32,-17,-60c0,0,0,-36,43,-62c0,0,74,-47,215,-47ZM380,257c0,0,56,0,93,43c0,0,36,42,36,133c0,0,0,118,-51,185c0,0,-38,49,-98,49c0,0,-55,0,-92,-44c0,0,-37,-44,-37,-135c0,0,0,-117,50,-182c0,0,39,-49,99,-49ZM345,-328c0,0,-144,0,-243,64c0,0,-56,38,-56,78c0,0,0,18,8,36c0,0,13,27,52,76c0,0,5,7,76,80c0,0,-39,23,-55,41c0,0,-16,19,-16,42c0,0,0,26,22,61c0,0,21,35,98,100c0,0,-63,30,-97,85c0,0,-33,55,-33,121c0,0,0,101,76,174c0,0,77,73,196,73c0,0,98,0,170,-48H688c0,0,32,0,37,-2c0,0,6,-2,8,-6c0,0,4,-7,4,-24c0,0,0,-20,-4,-27c0,0,-2,-4,-7,-6c0,0,-6,-2,-38,-2H599c0,0,41,-54,41,-137c0,0,0,-96,-73,-163c0,0,-73,-68,-196,-68c0,0,-51,0,-104,15c0,0,-33,-28,-44,-49c0,0,-12,-22,-12,-37c0,0,0,-12,13,-24c0,0,12,-12,48,-17c0,0,21,-4,104,-6c0,0,154,-4,199,-11c0,0,70,-10,111,-51c0,0,42,-41,42,-102c0,0,0,-84,-79,-158c0,0,-117,-108,-304,-108Z" 
id="f1_23"
transform="scale(0.001,-0.001)" />

<path d="M23,0V26c0,0,47,0,66,10c0,0,19,11,28,33c0,0,10,22,10,85V416c0,0,0,112,-7,145c0,0,-5,25,-16,34c0,0,-11,10,-31,10c0,0,-21,0,-50,-11L12,620l207,83h32V557c0,0,75,75,88,86c0,0,34,29,72,44c0,0,39,16,77,16c0,0,64,0,110,-37c0,0,47,-38,62,-109c0,0,77,90,130,118c0,0,53,28,109,28c0,0,54,0,96,-28c0,0,42,-28,67,-91c0,0,16,-43,16,-136V154c0,0,0,-64,10,-88c0,0,8,-16,28,-28c0,0,20,-12,65,-12V0H844V26h14c0,0,44,0,69,18c0,0,17,12,24,38c0,0,3,13,3,72V448c0,0,0,83,-20,117c0,0,-29,48,-93,48c0,0,-39,0,-79,-20c0,0,-40,-19,-97,-73l-1,-8l2,-32V154c0,0,0,-70,8,-87c0,0,7,-17,29,-29c0,0,21,-12,73,-12V0H431V26c0,0,57,0,78,14c0,0,21,13,29,40c0,0,4,13,4,74V448c0,0,0,83,-25,120c0,0,-33,48,-91,48c0,0,-40,0,-80,-22c0,0,-61,-33,-95,-74V154c0,0,0,-67,10,-87c0,0,9,-20,27,-30c0,0,18,-11,74,-11V0Z" 
id="f1_29"
transform="scale(0.001,-0.001)" />

<path d="M376,-20L133,556c0,0,-17,41,-31,58c0,0,-15,18,-39,30c0,0,-12,7,-50,13v26H335V657H314c0,0,-29,0,-44,-14c0,0,-16,-14,-15,-38c0,0,-1,-26,15,-62L429,165L588,557c0,0,17,42,17,64c0,0,0,10,-6,17c0,0,-8,11,-21,15c0,0,-13,4,-52,4v26H750V657c0,0,-39,-3,-54,-16c0,0,-26,-23,-47,-76L409,-20Z" 
id="f1_2i"
transform="scale(0.001,-0.001)" />

<path d="M63,0V26H93c0,0,30,0,54,15c0,0,25,15,34,41c0,0,10,25,10,99V630H58v53H191v45c0,0,0,102,33,173c0,0,32,71,100,114c0,0,68,44,152,44c0,0,79,0,145,-51c0,0,43,-33,43,-75c0,0,0,-22,-19,-42c0,0,-20,-20,-42,-20c0,0,-17,0,-36,12c0,0,-19,13,-47,53c0,0,-28,41,-51,55c0,0,-23,14,-51,14c0,0,-35,0,-58,-18c0,0,-24,-18,-35,-57c0,0,-10,-38,-10,-197V683H491V630H315V181c0,0,0,-96,21,-122c0,0,27,-33,73,-33h62V0Z" 
id="f1_22"
transform="scale(0.001,-0.001)" />

<path d="M58,0V26c0,0,47,0,64,10c0,0,18,10,28,32c0,0,9,23,9,86V775c0,0,0,116,-5,142c0,0,-5,27,-17,37c0,0,-11,9,-29,9c0,0,-20,0,-49,-12L46,978l204,83h34V154c0,0,0,-64,9,-85c0,0,9,-21,29,-32c0,0,19,-11,72,-11V0Z" 
id="f1_28"
transform="scale(0.001,-0.001)" />

<path d="M384,85c0,0,44,0,78,19c0,0,35,19,68,62V487c0,0,0,55,-15,87c0,0,-14,33,-51,55c0,0,-38,22,-85,22c0,0,-84,0,-143,-71c0,0,-60,-70,-60,-214c0,0,0,-138,61,-209c0,0,61,-72,147,-72Zm35,-411v27h15c0,0,41,0,63,12c0,0,15,8,24,30c0,0,9,21,9,83V119C530,119,462,39,411,9c0,0,-50,-29,-105,-29c0,0,-99,0,-177,90c0,0,-78,90,-78,241c0,0,0,174,103,283c0,0,103,109,248,109c0,0,43,0,78,-12c0,0,36,-12,65,-35c0,0,43,20,83,47h25V-174c0,0,0,-66,9,-85c0,0,9,-19,28,-30c0,0,19,-10,74,-10v-27Z" 
id="f1_2d"
transform="scale(0.001,-0.001)" />

<path d="M292,-20c0,0,-57,0,-100,33c0,0,-42,33,-58,85c0,0,-17,52,-17,148V551c0,0,0,49,-10,68c0,0,-11,18,-31,29c0,0,-19,9,-68,9c-2,0,-4,0,-6,0v26H242V226c0,0,0,-95,33,-125c0,0,33,-30,80,-30c0,0,32,0,73,21c0,0,40,20,96,76V555c0,0,0,59,-21,80c0,0,-22,21,-89,22v26H647V269c0,0,0,-119,6,-145c0,0,6,-27,18,-37c0,0,12,-11,29,-11c0,0,23,0,52,13L763,63L558,-20H524V124C524,124,436,29,390,4c0,0,-47,-24,-98,-24Z" 
id="f1_2h"
transform="scale(0.001,-0.001)" />

<path d="M342,-20c0,0,-116,0,-203,97c0,0,-86,98,-86,264c0,0,0,161,96,261c0,0,95,101,230,101c0,0,100,0,165,-53c0,0,65,-54,65,-111c0,0,0,-29,-18,-46c0,0,-18,-18,-51,-18c0,0,-44,0,-66,29c0,0,-13,15,-17,59c0,0,-4,45,-30,68c0,0,-26,22,-73,22c0,0,-74,0,-120,-55c0,0,-60,-73,-60,-193c0,0,0,-122,60,-216c0,0,60,-93,162,-93c0,0,73,0,131,49c0,0,41,35,80,126l22,-10C629,261,601,125,521,52c0,0,-81,-72,-179,-72Z" 
id="f1_1z"
transform="scale(0.001,-0.001)" />

<path d="M145,-17c0,0,-29,0,-48,18C97,1,79,19,79,46c0,0,0,28,20,93L201,475c0,0,24,82,24,103c0,0,0,17,-11,27c0,0,-12,10,-32,10c0,0,-16,0,-68,-8v30l260,42L218,149c0,0,-16,-53,-16,-64c0,0,0,-11,6,-19c0,0,7,-7,15,-7c0,0,11,0,25,12c0,0,39,33,78,95l26,-17C352,149,304,72,238,20c0,0,-49,-37,-93,-37ZM342,825c0,0,-31,0,-53,22c0,0,-22,22,-22,53c0,0,0,31,22,53c0,0,21,22,53,22c0,0,31,0,53,-22c0,0,22,-22,22,-53c0,0,0,-31,-23,-53c0,0,-22,-22,-52,-22Z" 
id="f2_25"
transform="scale(0.001,-0.001)" />

<path d="M127,-17c0,0,-31,0,-53,21C74,4,52,26,52,58c0,0,0,31,22,53c0,0,22,22,53,22c0,0,32,0,54,-22c0,0,22,-22,22,-53c0,0,0,-32,-22,-54c0,0,-22,-21,-54,-21Z" 
id="f2_i"
transform="scale(0.001,-0.001)" />

<path d="M187,318c0,0,111,12,181,43c0,0,92,41,138,98c0,0,46,57,46,108c0,0,0,32,-20,51c0,0,-20,20,-56,20c0,0,-77,0,-163,-81c0,0,-85,-81,-126,-239ZM268,-17c0,0,-110,0,-165,68c0,0,-55,69,-55,151c0,0,0,111,69,228c0,0,68,116,172,180c0,0,104,65,213,65c0,0,79,0,118,-32c0,0,38,-32,38,-76c0,0,0,-62,-50,-119c0,0,-65,-73,-191,-119c0,0,-84,-30,-235,-47c0,0,-5,-38,-5,-62c0,0,0,-67,47,-114c0,0,47,-46,114,-46c0,0,54,0,104,22c0,0,50,22,148,97l15,-21C605,158,428,-17,268,-17Z" 
id="f2_21"
transform="scale(0.001,-0.001)" />

<path d="M512,518c0,0,82,0,149,34c0,0,67,33,105,101c0,0,38,67,38,140c0,0,0,75,-47,119c0,0,-47,44,-142,44c0,0,-52,0,-125,-12L376,541c0,0,85,-23,136,-23ZM-35,0l8,26c0,0,78,0,109,28c0,0,31,27,67,151L312,782c0,0,30,104,30,139c0,0,0,26,-21,44c0,0,-21,17,-94,21l9,26H636c0,0,157,0,235,-68c0,0,78,-67,78,-164c0,0,0,-77,-50,-150c0,0,-49,-72,-147,-117c0,0,-97,-46,-210,-46c0,0,-71,0,-179,27L280,203c0,0,-28,-92,-28,-121c0,0,0,-22,20,-37c0,0,20,-14,96,-19L361,0Z" 
id="f2_1g"
transform="scale(0.001,-0.001)" />

<path d="M27,354v62H832V354Zm0,243v62H832V597Z" 
id="f2_x"
transform="scale(0.001,-0.001)" />

<path d="M467,25c0,0,67,0,133,34c0,0,65,33,136,114c0,0,89,103,149,261c0,0,61,159,61,296c0,0,0,100,-55,178c0,0,-54,79,-164,79c0,0,-75,0,-146,-37c0,0,-71,-37,-141,-121c0,0,-70,-84,-126,-219c0,0,-68,-167,-68,-316c0,0,0,-105,54,-187c0,0,55,-82,167,-82ZM600,-322c0,0,-65,0,-177,26c0,0,-172,38,-241,38c0,0,-26,0,-42,-4c0,0,-17,-4,-49,-18l-18,21L378,-17c0,0,-141,19,-214,124c0,0,-73,105,-73,224c0,0,0,163,99,338c0,0,98,174,252,270c0,0,154,95,302,95c0,0,111,0,189,-44c0,0,78,-45,120,-130c0,0,43,-86,43,-175c0,0,0,-172,-98,-347C998,338,900,162,755,71c0,0,-145,-89,-308,-92L255,-178c0,0,45,8,84,8c0,0,37,0,69,-5c0,0,32,-4,136,-27c0,0,104,-24,181,-24c0,0,83,0,141,29c0,0,58,28,112,95l25,-11c0,0,-77,-111,-181,-160c0,0,-105,-49,-222,-49Z" 
id="f2_1h"
transform="scale(0.001,-0.001)" />

<path d="M453,539c0,0,129,0,204,71c0,0,75,72,75,178c0,0,0,83,-48,127c0,0,-48,44,-144,44c0,0,-24,0,-58,-6L367,545c0,0,48,-6,86,-6ZM-34,0l8,26c0,0,54,3,74,12c0,0,30,12,45,34c0,0,24,36,50,125L316,809c0,0,18,61,18,95c0,0,0,35,-28,58c0,0,-27,24,-78,24q-1,0,-2,0l9,26H566c0,0,167,0,240,-63c0,0,73,-62,73,-164c0,0,0,-98,-74,-179c0,0,-75,-81,-204,-102L698,207c0,0,36,-110,72,-143c0,0,36,-33,116,-38L877,0H635L473,492c0,0,-1,0,-2,0c-12,0,-63,0,-117,11L265,184c0,0,-18,-56,-18,-94c0,0,0,-29,22,-46c0,0,16,-12,90,-18L352,0Z" 
id="f2_1i"
transform="scale(0.001,-0.001)" />

<path d="M11,-21L94,353h25c0,0,-5,-54,-5,-90c0,0,0,-102,65,-167c0,0,66,-64,171,-64c0,0,98,0,149,60c0,0,51,60,51,138c0,0,0,51,-23,93c0,0,-36,62,-188,217c0,0,-74,75,-95,111c0,0,-35,61,-35,127c0,0,0,106,80,181c0,0,79,75,203,75c0,0,42,0,79,-8c0,0,24,-4,85,-30c0,0,43,-17,48,-19c0,0,10,-2,23,-2c0,0,22,0,37,11c0,0,16,12,37,48h27L751,699H726c0,0,3,45,3,72c0,0,0,90,-60,148c0,0,-60,57,-158,57c0,0,-77,0,-126,-46c0,0,-49,-45,-49,-105c0,0,0,-52,31,-99c0,0,31,-47,143,-154c0,0,112,-107,145,-167c0,0,33,-60,33,-128c0,0,0,-77,-41,-149C647,128,606,57,530,17c0,0,-76,-38,-167,-38c0,0,-45,0,-83,8c0,0,-39,8,-125,39c0,0,-29,11,-48,11c0,0,-44,0,-69,-58Z" 
id="f2_1j"
transform="scale(0.001,-0.001)" />

<path d="M271,-20L546,815H337c0,0,-123,0,-185,-33c0,0,-43,-22,-71,-84H52l73,314H729L388,-20Z" 
id="f0_r"
transform="scale(0.001,-0.001)" />

<path d="M38,0V27H74c0,0,63,0,91,37c0,0,18,24,18,115V833c0,0,0,77,-10,102c0,0,-7,18,-30,32c0,0,-33,18,-69,18H38v27H470V985H434c0,0,-62,0,-90,-37c0,0,-18,-24,-18,-115V179c0,0,0,-77,9,-102c0,0,8,-18,31,-32c0,0,32,-18,68,-18h36V0Z" 
id="f1_19"
transform="scale(0.001,-0.001)" />

<path d="M398,24c0,0,74,0,120,58c0,0,61,76,61,214c0,0,0,156,-69,240c0,0,-47,59,-113,59c0,0,-36,0,-71,-18c0,0,-27,-14,-88,-81V242c0,0,0,-83,6,-109c0,0,11,-43,51,-76c0,0,41,-33,103,-33ZM-4,-326v27H15c5,0,42,0,69,16c0,0,14,8,22,26c0,0,7,19,7,94V481c0,0,0,67,-6,85c0,0,-5,18,-18,27c0,0,-13,9,-36,9c0,0,-18,0,-45,-10L0,615l209,85h29V540c0,0,53,91,106,127c0,0,53,36,112,36c0,0,103,0,172,-80c0,0,84,-99,84,-257c0,0,0,-176,-102,-292c0,0,-83,-94,-210,-94c0,0,-55,0,-95,16c0,0,-30,10,-67,44V-167c0,0,0,-71,8,-90c0,0,9,-20,30,-31c0,0,21,-11,77,-11v-27Z" 
id="f1_2c"
transform="scale(0.001,-0.001)" />

<path d="M82,-253v33c0,0,77,25,119,78c0,0,42,54,42,114c0,0,0,14,-7,23c0,0,-5,6,-11,6c0,0,-8,0,-35,-14c0,0,-14,-7,-28,-7c0,0,-37,0,-58,21C104,1,82,23,82,61c0,0,0,36,28,62c0,0,28,27,68,27c0,0,49,0,88,-43c0,0,38,-43,38,-113c0,0,0,-77,-53,-143c0,0,-53,-66,-169,-104Z" 
id="f1_g"
transform="scale(0.001,-0.001)" />

<path d="M17,-328c0,0,-67,0,-100,24c0,0,-33,25,-33,51c0,0,0,26,18,45c0,0,18,18,43,18c0,0,19,0,40,-9c0,0,12,-6,48,-38c0,0,37,-33,61,-33c0,0,18,0,35,14c0,0,17,14,25,46c0,0,8,33,8,141V416c0,0,0,113,-6,145c0,0,-6,25,-17,34c0,0,-11,10,-31,10c0,0,-21,0,-51,-11L47,620l207,83h32V16c0,0,0,-175,-74,-260c0,0,-75,-84,-195,-84ZM223,908c0,0,-32,0,-54,23c0,0,-22,22,-22,53c0,0,0,32,22,55c0,0,22,22,54,22c0,0,32,0,54,-22c0,0,22,-23,22,-55c0,0,0,-31,-22,-53c0,0,-22,-23,-54,-23Z" 
id="f1_26"
transform="scale(0.001,-0.001)" />

<path d="M13,0V26c0,0,52,0,78,13c0,0,16,8,24,25c0,0,11,25,11,86V773c0,0,0,118,-5,145c0,0,-5,26,-17,36c0,0,-12,10,-32,10c0,0,-15,0,-47,-13L13,978l203,83h34V381L424,540c0,0,55,50,64,64c0,0,6,9,6,18c0,0,0,15,-12,26c0,0,-13,11,-41,12v23H738V660c0,0,-61,-2,-102,-19c0,0,-40,-17,-89,-62L372,418L547,196c0,0,73,-92,98,-117c0,0,36,-35,63,-45c0,0,18,-8,65,-8V0H441V26c0,0,28,1,38,9c0,0,10,8,10,22c0,0,0,17,-29,56L250,381V154c0,0,0,-67,10,-88c0,0,9,-21,26,-30c0,0,17,-9,75,-10V0Z" 
id="f1_27"
transform="scale(0.001,-0.001)" />

<path d="M145,-328c0,0,-44,0,-73,25c0,0,-28,25,-28,58c0,0,0,31,21,50c0,0,20,19,56,19c0,0,25,0,67,-16c0,0,30,-11,38,-11c0,0,22,0,49,23c0,0,26,23,53,89L376,28L131,542c0,0,-11,24,-36,58c0,0,-19,27,-30,36c0,0,-18,12,-56,21v26H328V657H312c0,0,-33,0,-50,-15c0,0,-17,-14,-17,-36c0,0,0,-30,25,-81L437,179L589,557c0,0,12,31,12,62c0,0,0,13,-5,20c0,0,-6,8,-19,13c0,0,-12,5,-44,5v26H754V657c0,0,-27,-3,-42,-12c0,0,-15,-9,-33,-34c0,0,-7,-10,-25,-58L376,-128c0,0,-40,-99,-105,-150c0,0,-66,-50,-126,-50Z" 
id="f1_2l"
transform="scale(0.001,-0.001)" />

<path d="M336,-20L117,554c0,0,-21,55,-42,74c0,0,-21,19,-66,29v26H296V657c0,0,-40,-3,-52,-14c0,0,-13,-12,-13,-33c0,0,0,-23,13,-56L390,162L537,481L498,581c0,0,-18,46,-47,63c0,0,-17,11,-61,13v26H716V657c0,0,-54,-2,-77,-20c0,0,-15,-12,-15,-39c0,0,0,-15,6,-30L785,177L929,554c0,0,15,40,15,65c0,0,0,14,-15,25c0,0,-14,12,-57,13v26h216V657c0,0,-65,-10,-95,-89L764,-20H733L563,415L363,-20Z" 
id="f1_2j"
transform="scale(0.001,-0.001)" />

<path d="M191,-20c0,0,-34,0,-58,24c0,0,-24,24,-24,58c0,0,0,35,24,59c0,0,24,24,58,24c0,0,35,0,59,-24c0,0,24,-25,24,-59c0,0,0,-34,-24,-58c0,0,-25,-24,-59,-24Z" 
id="f1_i"
transform="scale(0.001,-0.001)" />

<path d="M381,27c0,0,54,0,91,40c0,0,38,40,38,110c0,0,0,144,-194,276c0,0,-23,-21,-33,-38c0,0,-15,-26,-27,-76c0,0,-13,-50,-13,-105c0,0,0,-70,18,-117c0,0,18,-48,51,-69c0,0,34,-21,69,-21Zm83,582c0,0,27,37,40,83c0,0,14,47,14,102c0,0,0,97,-42,149c0,0,-31,40,-86,40c0,0,-50,0,-84,-37c0,0,-35,-36,-35,-90c0,0,0,-54,39,-113c0,0,39,-58,154,-134ZM368,-20c0,0,-150,0,-232,73c0,0,-82,74,-82,181c0,0,0,81,47,142c0,0,48,62,159,112c0,0,-121,92,-155,150c0,0,-34,58,-34,135c0,0,0,101,86,178c0,0,86,78,236,78c0,0,144,0,222,-69c0,0,78,-68,78,-163c0,0,0,-72,-43,-127c0,0,-42,-54,-130,-98c0,0,107,-79,149,-146c0,0,41,-68,41,-155c0,0,0,-122,-92,-207c0,0,-92,-84,-250,-84Z" 
id="f0_s"
transform="scale(0.001,-0.001)" />

<path d="M398,446c0,0,30,0,77,24c0,0,8,83,8,147c0,0,0,136,-31,253c0,0,-18,65,-53,95c0,0,-19,17,-49,17c0,0,-38,0,-59,-32c0,0,-29,-44,-29,-168c0,0,0,-207,49,-285c0,0,33,-51,87,-51ZM47,-20V0c0,0,124,28,210,84c0,0,86,55,137,136c0,0,50,81,70,187c0,0,-46,-24,-79,-33c0,0,-32,-9,-68,-9c0,0,-115,0,-192,83c0,0,-76,82,-76,226c0,0,0,100,41,184c0,0,42,83,119,129c0,0,76,46,159,46c0,0,89,0,168,-51c0,0,79,-51,126,-147c0,0,47,-96,47,-219c0,0,0,-160,-76,-306C633,310,556,164,405,75C405,75,254,-12,47,-20Z" 
id="f0_t"
transform="scale(0.001,-0.001)" />

<path d="M253,0V27h36c0,0,64,0,91,39c0,0,16,24,16,109V948H274c0,0,-71,0,-100,-10c0,0,-39,-14,-67,-54c0,0,-27,-41,-33,-109H46l12,237H883L894,775H865c0,0,-8,62,-22,89c0,0,-23,43,-61,64c0,0,-39,20,-101,20H539V175c0,0,0,-93,20,-116c0,0,28,-32,87,-32h36V0Z" 
id="f1_1k"
transform="scale(0.001,-0.001)" />

<path d="M404,381V781L110,381ZM404,0V227H38V381l480,652h91V381h93V227H609V0Z" 
id="f0_o"
transform="scale(0.001,-0.001)" />

<path d="M383,34c0,0,38,0,56,24c0,0,32,42,36,129l3,320c0,0,0,266,-3,310c0,0,-7,103,-36,140c0,0,-18,24,-60,24c0,0,-32,0,-51,-18c0,0,-28,-26,-38,-92c0,0,-9,-66,-9,-460c0,0,0,-215,15,-288c0,0,11,-53,32,-71c0,0,21,-18,55,-18Zm-2,-54c0,0,-73,0,-132,37c0,0,-59,37,-105,106c0,0,-33,51,-57,135c0,0,-32,114,-32,236c0,0,0,165,46,303c0,0,38,114,116,175c0,0,77,61,164,61c0,0,88,0,165,-61c0,0,76,-60,112,-161c0,0,50,-139,50,-305c0,0,0,-151,-42,-283c0,0,-26,-80,-69,-132c0,0,-43,-51,-97,-81c0,0,-55,-30,-119,-30Z" 
id="f0_k"
transform="scale(0.001,-0.001)" />

<path d="M30,0V27L485,632H260c0,0,-72,0,-94,-10c0,0,-22,-9,-36,-35c0,0,-20,-37,-23,-92H76l5,188H654V656L196,51H445c0,0,79,0,106,13c0,0,28,13,45,46c0,0,12,23,21,100h25L634,0Z" 
id="f1_2m"
transform="scale(0.001,-0.001)" />

<path d="M114,0V27h27c0,0,65,0,93,15c0,0,27,15,37,41c0,0,10,27,10,122V729c0,0,0,71,-7,89c0,0,-7,17,-25,30c0,0,-18,12,-42,12c0,0,-38,0,-93,-24l-13,26l372,171h25V205c0,0,0,-93,8,-119c0,0,8,-26,34,-42c0,0,27,-17,84,-17h23V0Z" 
id="f0_l"
transform="scale(0.001,-0.001)" />

<path d="M678,393L506,802L330,393ZM11,0V27c0,0,63,12,82,30c0,0,38,35,84,145l356,832h27L912,193c0,0,43,-101,77,-132c0,0,35,-30,97,-34V0H687V27c0,0,60,3,82,21c0,0,21,17,21,41c0,0,0,33,-30,104L700,338H307L239,179c0,0,-26,-59,-26,-88c0,0,0,-23,22,-41c0,0,22,-17,95,-23V0Z" 
id="f1_11"
transform="scale(0.001,-0.001)" />

<path d="M579,-17c0,0,-147,0,-266,70c0,0,-119,70,-189,197c0,0,-71,127,-71,277c0,0,0,149,69,271c0,0,69,123,187,191c0,0,119,69,265,69c0,0,149,0,260,-62l25,44H965L1067,667L928,627c0,0,-69,133,-130,189c0,0,-85,77,-185,77c0,0,-72,0,-135,-41c0,0,-63,-40,-100,-118c0,0,-37,-78,-37,-183c0,0,0,-161,85,-276c0,0,85,-116,222,-116c0,0,87,0,168,50c0,0,100,62,173,167l116,-86C1105,290,992,136,899,76c0,0,-144,-93,-320,-93Z" 
id="f3_13"
transform="scale(0.001,-0.001)" />

<path d="M561,-17c0,0,-97,0,-173,29c0,0,-76,29,-133,84c0,0,-57,55,-80,116c0,0,-22,61,-22,181V794c0,0,0,56,-6,72c0,0,-6,16,-20,23c0,0,-13,8,-52,8H27v143H536V897H486c0,0,-35,0,-49,-9c0,0,-15,-8,-22,-23c0,0,-6,-15,-6,-62V424c0,0,0,-106,21,-158c0,0,21,-52,64,-79c0,0,43,-28,105,-28c0,0,61,0,109,30c0,0,48,30,68,76c0,0,21,46,21,152V834c0,0,0,26,-7,37c0,0,-9,15,-24,21c0,0,-10,5,-53,5H673v143h429V897h-34c0,0,-49,0,-61,-6c0,0,-18,-9,-26,-26c0,0,-6,-12,-6,-62V393c0,0,0,-114,-33,-191C942,202,896,98,797,40c0,0,-100,-57,-236,-57Z" 
id="f3_1l"
transform="scale(0.001,-0.001)" />

<path d="M593,600c0,0,92,0,137,17c0,0,45,17,68,48c0,0,22,31,22,76c0,0,0,41,-21,71c0,0,-21,29,-60,43c0,0,-40,14,-128,14H439V600ZM55,0V144h46c0,0,37,0,52,8c0,0,16,7,23,23c0,0,4,9,4,56V816c0,0,0,35,-6,49c0,0,-5,15,-18,19c0,0,-18,8,-41,8H55v148H697c0,0,62,0,135,-11c0,0,74,-11,133,-49c0,0,60,-38,92,-96c0,0,33,-59,33,-132c0,0,0,-118,-84,-192c0,0,-85,-73,-201,-96L1019,215l9,-11c0,0,21,-25,38,-38c0,0,17,-12,34,-17c0,0,18,-5,48,-5h45V0H859L526,448H439V241c0,0,0,-54,6,-69c0,0,6,-14,19,-21c0,0,13,-7,52,-7h48V0Z" 
id="f3_1i"
transform="scale(0.001,-0.001)" />

<path d="M59,0V144H85c0,0,52,0,70,7c0,0,18,8,25,26c0,0,4,11,4,64V808c0,0,0,46,-7,60c0,0,-6,14,-19,22c0,0,-14,7,-53,7H59v143H928L1046,712L911,663c0,0,-34,81,-80,130c0,0,-46,49,-102,65c0,0,-55,16,-129,16H441V615h52c0,0,59,0,80,9c0,0,20,8,29,26c0,0,9,19,9,73v40H744V322H611v45c0,0,0,45,-11,66c0,0,-11,21,-29,29c0,0,-19,7,-83,7H441V230c0,0,0,-38,4,-47c0,0,3,-8,14,-12c0,0,11,-5,47,-5h87c0,0,98,0,165,28c0,0,67,28,120,91c0,0,53,63,81,149l136,-47L959,0Z" 
id="f3_15"
transform="scale(0.001,-0.001)" />

<path d="M59,0V144h44c0,0,37,0,51,6c0,0,14,6,22,22c0,0,8,16,8,47V816c0,0,0,34,-8,50c0,0,-7,16,-20,24c0,0,-12,7,-42,7H59v143H480L786,433V805c0,0,0,48,-5,60c0,0,-8,17,-20,25c0,0,-13,7,-49,7H661v143h428V897h-47c0,0,-36,0,-51,-9c0,0,-15,-8,-21,-22c0,0,-6,-14,-6,-61V0H750L364,767V230c0,0,0,-46,5,-59c0,0,6,-12,20,-20c0,0,15,-7,50,-7h50V0Z" 
id="f3_1e"
transform="scale(0.001,-0.001)" />

<path d="M280,0V144h30c0,0,51,0,66,6c0,0,14,6,21,22c0,0,8,17,8,67V851c0,0,0,26,-6,33c0,0,-6,7,-26,7c0,0,-38,0,-86,-29c0,0,-48,-29,-85,-82c0,0,-15,-21,-63,-118L2,711l128,365h99l10,-36H826l13,36h99L1067,711L928,662c0,0,-46,91,-66,119c0,0,-40,55,-92,86c0,0,-38,24,-77,24c0,0,-18,0,-24,-9c0,0,-7,-8,-7,-39V244c0,0,0,-53,4,-66c0,0,3,-13,12,-21c0,0,9,-8,25,-11c0,0,16,-2,84,-2V0Z" 
id="f3_1k"
transform="scale(0.001,-0.001)" />

<path d="M63,0V144h49c0,0,31,0,46,8c0,0,16,8,23,22c0,0,7,14,7,48V812c0,0,0,37,-7,53c0,0,-7,17,-20,24c0,0,-13,8,-44,8H63v143H570V897H526c0,0,-37,0,-47,-4c0,0,-18,-8,-26,-23c0,0,-8,-15,-8,-49V226c0,0,0,-36,3,-44c0,0,4,-8,14,-13c0,0,10,-5,40,-5c0,0,100,0,161,26c0,0,61,27,110,84c0,0,49,58,84,158L994,385L857,0Z" 
id="f3_1c"
transform="scale(0.001,-0.001)" />

<path d="M52,0V144H93c0,0,44,0,58,6c0,0,13,6,20,20c0,0,6,14,6,55V803c0,0,0,49,-6,64c0,0,-7,15,-22,24c0,0,-10,6,-51,6H52v143H559V897H513c0,0,-40,0,-53,-7c0,0,-13,-8,-20,-23c0,0,-6,-15,-6,-58V233c0,0,0,-47,5,-61c0,0,6,-13,18,-19c0,0,16,-9,47,-9h55V0Z" 
id="f3_19"
transform="scale(0.001,-0.001)" />

<path d="M280,0V144h27c0,0,54,0,69,7c0,0,15,7,23,24c0,0,8,16,8,67V405L129,827c0,0,-33,49,-57,61c0,0,-18,9,-71,9v143H518V897H479c0,0,-41,0,-51,-7c0,0,-11,-6,-11,-20c0,0,0,-20,24,-59L579,586L730,821c0,0,20,31,22,34c0,0,3,9,3,17c0,0,0,13,-8,19c0,0,-9,6,-40,6H653v143h416V897c0,0,-55,-1,-77,-13c0,0,-22,-12,-52,-57L663,422V236c0,0,0,-49,6,-64c0,0,7,-14,22,-21c0,0,15,-7,60,-7h37V0Z" 
id="f3_1p"
transform="scale(0.001,-0.001)" />


</defs>
</svg>