<?xml version="1.0" encoding="UTF-8" standalone="no"?>
<!DOCTYPE svg PUBLIC "-//W3C//DTD SVG 1.1//EN"
"http://www.w3.org/Graphics/SVG/1.1/DTD/svg11.dtd">
<svg viewBox="0 0 909 1286" version="1.1" xmlns="http://www.w3.org/2000/svg" xmlns:xlink="http://www.w3.org/1999/xlink">
<defs>
<clipPath id="c0_177"><path d="M55,491.8v-52H247.1v52Z" /></clipPath>
<clipPath id="c1_177"><path d="M55,545V493.1H251.3V545Z" /></clipPath>
<clipPath id="c2_177"><path d="M55,625.6V568.3H510.2v57.3Z" /></clipPath>
<clipPath id="c3_177"><path d="M55,683.3V626H470.6v57.3Z" /></clipPath>
<clipPath id="c4_177"><path d="M55,743.3V707.4H289.4v35.9Z" /></clipPath>
<clipPath id="c5_177"><path d="M55,779.3V744.6H333.1v34.7Z" /></clipPath>
<clipPath id="c6_177"><path d="M55,817.6V780.4H395.4v37.2Z" /></clipPath>
<clipPath id="c7_177"><path d="M55,854.8V818.9H178.1v35.9Z" /></clipPath>
<clipPath id="c8_177"><path d="M55,889.7V856.4H231.2v33.3Z" /></clipPath>
<clipPath id="c9_177"><path d="M55,947.6V890.3H421.7v57.3Z" /></clipPath>
<clipPath id="c10_177"><path d="M55,1000.7V948.9H179.6v51.8Z" /></clipPath>
<clipPath id="c11_177"><path d="M55,1063.2V1002H209.9v61.2Z" /></clipPath>
<clipPath id="c12_177"><path d="M55,1121.1v-57.4H207.6v57.4Z" /></clipPath>
<style type="text/css"><![CDATA[
.g0_177{
fill: #D9D9D9;
}
.g1_177{
fill: none;
stroke: #000000;
stroke-width: 0.7638889;
stroke-linecap: butt;
stroke-linejoin: miter;
}
.g2_177{
fill: none;
stroke: #000000;
stroke-width: 0.9130395;
stroke-linecap: butt;
stroke-linejoin: round;
}
.g3_177{
fill: none;
stroke: #000000;
stroke-width: 0.9045991;
stroke-linecap: butt;
stroke-linejoin: round;
}
.g4_177{
fill: none;
stroke: #000000;
stroke-width: 0.9120693;
stroke-linecap: butt;
stroke-linejoin: round;
}
.g5_177{
fill: none;
stroke: #000000;
stroke-width: 0.9119427;
stroke-linecap: butt;
stroke-linejoin: round;
}
.g6_177{
fill: none;
stroke: #000000;
stroke-width: 0.21302612;
stroke-linecap: square;
stroke-linejoin: round;
}
.g7_177{
}
.g8_177{
fill: none;
stroke: #000000;
stroke-width: 0.2126817;
stroke-linecap: square;
stroke-linejoin: round;
}
.g9_177{
fill: none;
stroke: #000000;
stroke-width: 0.21272306;
stroke-linecap: square;
stroke-linejoin: round;
}
.g10_177{
fill: none;
stroke: #000000;
stroke-width: 0.2127508;
stroke-linecap: square;
stroke-linejoin: round;
}
.g11_177{
fill: none;
stroke: #000000;
stroke-width: 0.91152024;
stroke-linecap: butt;
stroke-linejoin: round;
}
.g12_177{
fill: none;
stroke: #000000;
stroke-width: 0.21263309;
stroke-linecap: square;
stroke-linejoin: round;
}
.g13_177{
fill: none;
stroke: #000000;
stroke-width: 0.909933;
stroke-linecap: butt;
stroke-linejoin: round;
}
.g14_177{
fill: none;
stroke: #000000;
stroke-width: 0.9095176;
stroke-linecap: butt;
stroke-linejoin: round;
}
.g15_177{
fill: none;
stroke: #000000;
stroke-width: 0.90479475;
stroke-linecap: butt;
stroke-linejoin: round;
}
]]></style>
</defs>
<image preserveAspectRatio="none" x="748" y="1196" width="94" height="58" xlink:href="img/1.png" />
<image preserveAspectRatio="none" x="336" y="42" width="259" height="49" xlink:href="img/2.png" />
<image preserveAspectRatio="none" x="342" y="50" width="247" height="27" xlink:href="img/3.png" />
<image preserveAspectRatio="none" x="341" y="46" width="238" height="41" xlink:href="img/4.png" />
<g fill="#FFFFFF" >
<use xlink:href="#f0_j" transform="matrix(11.5,0,0,11.5,354.9,70)" />
<use xlink:href="#f0_i" transform="matrix(11.5,0,0,11.5,364.2,70)" />
<use xlink:href="#f0_2n" transform="matrix(11.5,0,0,11.5,374.1,70)" />
<use xlink:href="#f0_t" transform="matrix(11.5,0,0,11.5,382.4,70)" />
<use xlink:href="#f0_oj" transform="matrix(11.5,0,0,11.5,391,70)" />
<use xlink:href="#f0_3e" transform="matrix(11.5,0,0,11.5,396.3,70)" />
<use xlink:href="#f0_1c" transform="matrix(11.5,0,0,11.5,406,70)" />
<use xlink:href="#f0_1c" transform="matrix(11.5,0,0,11.5,410.7,70)" />
<use xlink:href="#f0_oj" transform="matrix(11.5,0,0,11.5,415.4,70)" />
<use xlink:href="#f0_rz" transform="matrix(11.5,0,0,11.5,420.8,70)" />
<use xlink:href="#f0_rx" transform="matrix(11.5,0,0,11.5,429.7,70)" />
<use xlink:href="#f0_ry" transform="matrix(11.5,0,0,11.5,438.6,70)" />
<use xlink:href="#f0_s0" transform="matrix(11.5,0,0,11.5,447.4,70)" />
<use xlink:href="#f0_t" transform="matrix(11.5,0,0,11.5,460.2,70)" />
<use xlink:href="#f0_3e" transform="matrix(11.5,0,0,11.5,468.8,70)" />
<use xlink:href="#f0_5" transform="matrix(11.5,0,0,11.5,478.5,70)" />
<use xlink:href="#f0_1x" transform="matrix(11.5,0,0,11.5,489.2,70)" />
<use xlink:href="#f0_1c" transform="matrix(11.5,0,0,11.5,504.6,70)" />
<use xlink:href="#f0_1y" transform="matrix(11.5,0,0,11.5,509.3,70)" />
<use xlink:href="#f0_5" transform="matrix(11.5,0,0,11.5,520.9,70)" />
<use xlink:href="#f0_2t" transform="matrix(11.5,0,0,11.5,531.5,70)" />
<use xlink:href="#f0_1c" transform="matrix(11.5,0,0,11.5,540.2,70)" />
<use xlink:href="#f0_24" transform="matrix(11.5,0,0,11.5,544.9,70)" />
<use xlink:href="#f0_1y" transform="matrix(11.5,0,0,11.5,556.8,70)" />
</g>
<image preserveAspectRatio="none" x="554" y="46" width="36" height="41" xlink:href="img/5.png" />
<g fill="#FFFFFF" >
<use xlink:href="#f1_l" transform="matrix(11,0,0,11,770.1,1227.7)" />
<use xlink:href="#f1_m" transform="matrix(11,0,0,11,779,1227.7)" />
<use xlink:href="#f1_j" transform="matrix(11,0,0,11,792.4,1227.7)" />
<use xlink:href="#f1_l" transform="matrix(11,0,0,11,803,1227.7)" />
<use xlink:href="#f1_r" transform="matrix(11,0,0,11,811.9,1227.7)" />
</g>
<path fill-rule="evenodd" d="M52.7,1193.2H856.9v-.7H52.7v.7Z" class="g0_177" />
<path d="M37.9,99.4L873,98.5" class="g1_177" />
<path d="M96.6,464.4h36.7m3,0h32.8" class="g2_177" />
<g clip-path="url(#c0_177)">
<g fill="#000000" >
<use xlink:href="#f2_m" transform="matrix(7.1,0,0,6.9,161.4,475.2)" />
<use xlink:href="#f2_k" transform="matrix(7.1,0,0,6.9,125.5,488.1)" />
<use xlink:href="#f2_l" transform="matrix(12.3,0,0,11.9,110.3,457.3)" />
<use xlink:href="#f2_1x" transform="matrix(12.3,0,0,11.9,173.9,468.9)" />
<use xlink:href="#f2_28" transform="matrix(12.3,0,0,11.9,182,468.9)" />
<use xlink:href="#f2_2b" transform="matrix(12.3,0,0,11.9,186.8,468.9)" />
<use xlink:href="#f2_2a" transform="matrix(12.3,0,0,11.9,196,468.9)" />
<use xlink:href="#f2_23" transform="matrix(12.3,0,0,11.9,205.2,468.9)" />
<use xlink:href="#f2_1g" transform="matrix(12.3,0,0,11.9,219.1,468.9)" />
<use xlink:href="#f2_14" transform="matrix(12.3,0,0,11.9,229.4,468.9)" />
<use xlink:href="#f2_o" transform="matrix(12.3,0,0,11.9,97.7,483.4)" />
<use xlink:href="#f3_2d" transform="matrix(12.3,0,0,11.9,148.1,457.3)" />
<use xlink:href="#f3_15" transform="matrix(12.3,0,0,11.9,58.4,468.9)" />
<use xlink:href="#f3_12" transform="matrix(12.3,0,0,11.9,138,483.4)" />
<use xlink:href="#f3_1g" transform="matrix(12.3,0,0,11.9,149.2,483.4)" />
<use xlink:href="#f4_f" transform="matrix(7.1,0,0,6.9,69.6,473.6)" />
<use xlink:href="#f4_x" transform="matrix(12.3,0,0,11.9,81.8,468.9)" />
<use xlink:href="#f4_2c" transform="matrix(12.3,0,0,11.9,107.2,483.4)" />
<use xlink:href="#f4_21" transform="matrix(12.3,0,0,11.9,116.9,483.4)" />
</g>
</g>
<path d="M72.6,517.6h36.5m3.1,0h60.9" class="g3_177" />
<g clip-path="url(#c1_177)">
<g fill="#000000" >
<use xlink:href="#f2_m" transform="matrix(7,0,0,6.9,128.3,528.4)" />
<use xlink:href="#f2_m" transform="matrix(7,0,0,6.9,159,528.4)" />
<use xlink:href="#f2_k" transform="matrix(7,0,0,6.9,101.4,541.3)" />
<use xlink:href="#f2_l" transform="matrix(12.1,0,0,11.9,86.3,510.5)" />
<use xlink:href="#f2_1x" transform="matrix(12.1,0,0,11.9,177.8,522.2)" />
<use xlink:href="#f2_28" transform="matrix(12.1,0,0,11.9,185.8,522.2)" />
<use xlink:href="#f2_2b" transform="matrix(12.1,0,0,11.9,190.7,522.2)" />
<use xlink:href="#f2_2a" transform="matrix(12.1,0,0,11.9,199.8,522.2)" />
<use xlink:href="#f2_23" transform="matrix(12.1,0,0,11.9,209,522.2)" />
<use xlink:href="#f2_1g" transform="matrix(12.1,0,0,11.9,222.9,522.2)" />
<use xlink:href="#f2_14" transform="matrix(12.1,0,0,11.9,233.2,522.2)" />
<use xlink:href="#f2_o" transform="matrix(12.1,0,0,11.9,73.7,536.6)" />
<use xlink:href="#f2_c" transform="matrix(12.1,0,0,11.9,113,536.6)" />
<use xlink:href="#f2_d" transform="matrix(12.1,0,0,11.9,166.2,536.6)" />
<use xlink:href="#f3_2d" transform="matrix(12.1,0,0,11.9,138,510.5)" />
<use xlink:href="#f3_2e" transform="matrix(12.1,0,0,11.9,119.6,536.6)" />
<use xlink:href="#f3_28" transform="matrix(12.1,0,0,11.9,152.3,536.6)" />
<use xlink:href="#f4_x" transform="matrix(12.1,0,0,11.9,57.8,522.2)" />
<use xlink:href="#f4_2c" transform="matrix(12.1,0,0,11.9,83.1,536.6)" />
<use xlink:href="#f4_21" transform="matrix(12.1,0,0,11.9,92.8,536.6)" />
<use xlink:href="#f4_f" transform="matrix(12.1,0,0,11.9,138.9,536.6)" />
</g>
</g>
<g fill="#000000" >
<use xlink:href="#f2_15" transform="matrix(12,0,0,12,55,563.8)" />
<use xlink:href="#f2_28" transform="matrix(12,0,0,12,66.2,563.8)" />
<use xlink:href="#f2_21" transform="matrix(12,0,0,12,71.3,563.8)" />
<use xlink:href="#f2_1z" transform="matrix(12,0,0,12,79.4,563.8)" />
<use xlink:href="#f2_2g" transform="matrix(12,0,0,12,87.6,563.8)" />
<use xlink:href="#f2_2e" transform="matrix(12,0,0,12,92.7,563.8)" />
<use xlink:href="#f2_25" transform="matrix(12,0,0,12,98.8,563.8)" />
<use xlink:href="#f2_1z" transform="matrix(12,0,0,12,103.9,563.8)" />
<use xlink:href="#f2_22" transform="matrix(12,0,0,12,116.7,563.8)" />
<use xlink:href="#f2_25" transform="matrix(12,0,0,12,122.8,563.8)" />
<use xlink:href="#f2_21" transform="matrix(12,0,0,12,127.9,563.8)" />
<use xlink:href="#f2_28" transform="matrix(12,0,0,12,135.9,563.8)" />
<use xlink:href="#f2_20" transform="matrix(12,0,0,12,141,563.8)" />
<use xlink:href="#f2_25" transform="matrix(12,0,0,12,154.7,563.8)" />
<use xlink:href="#f2_2a" transform="matrix(12,0,0,12,159.8,563.8)" />
<use xlink:href="#f2_2g" transform="matrix(12,0,0,12,169,563.8)" />
<use xlink:href="#f2_21" transform="matrix(12,0,0,12,174.1,563.8)" />
<use xlink:href="#f2_2a" transform="matrix(12,0,0,12,182.3,563.8)" />
<use xlink:href="#f2_2f" transform="matrix(12,0,0,12,191.5,563.8)" />
<use xlink:href="#f2_25" transform="matrix(12,0,0,12,198.5,563.8)" />
<use xlink:href="#f2_2g" transform="matrix(12,0,0,12,203.6,563.8)" />
<use xlink:href="#f2_2l" transform="matrix(12,0,0,12,208.8,563.8)" />
<use xlink:href="#f2_1x" transform="matrix(12,0,0,12,222.5,563.8)" />
<use xlink:href="#f2_2g" transform="matrix(12,0,0,12,230.6,563.8)" />
<use xlink:href="#f2_1g" transform="matrix(12,0,0,12,240.3,563.8)" />
<use xlink:href="#f2_20" transform="matrix(12,0,0,12,255.1,563.8)" />
<use xlink:href="#f2_2h" transform="matrix(12,0,0,12,264.3,563.8)" />
<use xlink:href="#f2_21" transform="matrix(12,0,0,12,273.5,563.8)" />
<use xlink:href="#f2_2g" transform="matrix(12,0,0,12,286.2,563.8)" />
<use xlink:href="#f2_2b" transform="matrix(12,0,0,12,291.3,563.8)" />
<use xlink:href="#f5_4y" transform="matrix(12,0,0,12,305.1,563.8)" />
<use xlink:href="#f2_2d" transform="matrix(12,0,0,12,314.3,563.8)" />
<use xlink:href="#f2_1z" transform="matrix(12,0,0,12,327.9,563.8)" />
<use xlink:href="#f2_24" transform="matrix(12,0,0,12,336.1,563.8)" />
<use xlink:href="#f2_1x" transform="matrix(12,0,0,12,345.2,563.8)" />
<use xlink:href="#f2_2e" transform="matrix(12,0,0,12,353.4,563.8)" />
<use xlink:href="#f2_23" transform="matrix(12,0,0,12,359.5,563.8)" />
<use xlink:href="#f2_21" transform="matrix(12,0,0,12,368.7,563.8)" />
<use xlink:href="#f2_25" transform="matrix(12,0,0,12,381.3,563.8)" />
<use xlink:href="#f2_2f" transform="matrix(12,0,0,12,386.4,563.8)" />
<use xlink:href="#f2_23" transform="matrix(12,0,0,12,398.2,563.8)" />
<use xlink:href="#f2_25" transform="matrix(12,0,0,12,407.3,563.8)" />
<use xlink:href="#f2_2i" transform="matrix(12,0,0,12,412.4,563.8)" />
<use xlink:href="#f2_21" transform="matrix(12,0,0,12,421.6,563.8)" />
<use xlink:href="#f2_2a" transform="matrix(12,0,0,12,429.7,563.8)" />
<use xlink:href="#f2_1y" transform="matrix(12,0,0,12,443.5,563.8)" />
<use xlink:href="#f2_2l" transform="matrix(12,0,0,12,452.6,563.8)" />
</g>
<path d="M100.4,594h36.8m5.1,0h33m89,0h36.8" class="g4_177" />
<g clip-path="url(#c2_177)">
<g fill="#000000" >
<use xlink:href="#f4_c" transform="matrix(12.3,0,0,19,306.8,616.4)" />
<use xlink:href="#f4_d" transform="matrix(12.3,0,0,19,362,616.4)" />
</g>
</g>
<path d="M306.2,594h62.4" class="g4_177" />
<g clip-path="url(#c2_177)">
<g fill="#000000" >
<use xlink:href="#f2_m" transform="matrix(7.2,0,0,7,167.4,604.7)" />
<use xlink:href="#f2_m" transform="matrix(7.2,0,0,7,321.6,605.9)" />
<use xlink:href="#f2_m" transform="matrix(7.2,0,0,7,353.7,605.9)" />
<use xlink:href="#f2_k" transform="matrix(7.2,0,0,7,129.3,617.7)" />
<use xlink:href="#f2_k" transform="matrix(7.2,0,0,7,293.2,617.7)" />
<use xlink:href="#f2_l" transform="matrix(12.5,0,0,12,114.2,587)" />
<use xlink:href="#f2_2d" transform="matrix(12.5,0,0,12,154.1,587)" />
<use xlink:href="#f2_l" transform="matrix(12.5,0,0,12,278.1,587)" />
<use xlink:href="#f2_2d" transform="matrix(12.5,0,0,12,332.7,587)" />
<use xlink:href="#f2_15" transform="matrix(12.5,0,0,12,57.8,598.5)" />
<use xlink:href="#f2_1x" transform="matrix(12.5,0,0,12,178.1,598.5)" />
<use xlink:href="#f2_28" transform="matrix(12.5,0,0,12,186.2,598.5)" />
<use xlink:href="#f2_2b" transform="matrix(12.5,0,0,12,191,598.5)" />
<use xlink:href="#f2_2a" transform="matrix(12.5,0,0,12,200.2,598.5)" />
<use xlink:href="#f2_23" transform="matrix(12.5,0,0,12,209.3,598.5)" />
<use xlink:href="#f2_1g" transform="matrix(12.5,0,0,12,223,598.5)" />
<use xlink:href="#f2_13" transform="matrix(12.5,0,0,12,233.3,598.5)" />
<use xlink:href="#f2_1x" transform="matrix(12.5,0,0,12,371.4,598.5)" />
<use xlink:href="#f2_28" transform="matrix(12.5,0,0,12,379.4,598.5)" />
<use xlink:href="#f2_2b" transform="matrix(12.5,0,0,12,384.3,598.5)" />
<use xlink:href="#f2_2a" transform="matrix(12.5,0,0,12,393.4,598.5)" />
<use xlink:href="#f2_23" transform="matrix(12.5,0,0,12,402.6,598.5)" />
<use xlink:href="#f2_1g" transform="matrix(12.5,0,0,12,416.3,598.5)" />
<use xlink:href="#f2_13" transform="matrix(12.5,0,0,12,426.6,598.5)" />
<use xlink:href="#f2_c" transform="matrix(12.5,0,0,12,483.8,598.5)" />
<use xlink:href="#f2_25" transform="matrix(12.5,0,0,12,489.8,598.5)" />
<use xlink:href="#f2_25" transform="matrix(12.5,0,0,12,495,598.5)" />
<use xlink:href="#f2_d" transform="matrix(12.5,0,0,12,500.4,598.5)" />
<use xlink:href="#f2_o" transform="matrix(12.5,0,0,12,101.5,612.9)" />
<use xlink:href="#f2_11" transform="matrix(12.5,0,0,12,143.5,612.9)" />
<use xlink:href="#f2_1g" transform="matrix(12.5,0,0,12,156.4,612.9)" />
<use xlink:href="#f2_o" transform="matrix(12.5,0,0,12,265.4,612.9)" />
<use xlink:href="#f2_2e" transform="matrix(12.5,0,0,12,314.3,614.1)" />
<use xlink:href="#f4_h" transform="matrix(12.4,0,0,12,69.9,601.6)" />
<use xlink:href="#f4_x" transform="matrix(12.5,0,0,12,85.8,598.5)" />
<use xlink:href="#f4_x" transform="matrix(12.5,0,0,12,249.7,598.5)" />
<use xlink:href="#f4_2c" transform="matrix(12.5,0,0,12,111,612.9)" />
<use xlink:href="#f4_21" transform="matrix(12.5,0,0,12,120.7,612.9)" />
<use xlink:href="#f4_2c" transform="matrix(12.5,0,0,12,274.9,612.9)" />
<use xlink:href="#f4_21" transform="matrix(12.5,0,0,12,284.6,612.9)" />
<use xlink:href="#f4_f" transform="matrix(12.5,0,0,12,331.9,614.1)" />
</g>
</g>
<image preserveAspectRatio="none" x="345" y="593" width="73" height="31" xlink:href="img/6.png" />
<path d="M263.8,651.7h36.7" class="g5_177" />
<g clip-path="url(#c3_177)">
<g fill="#000000" >
<use xlink:href="#f4_c" transform="matrix(12.3,0,0,19,304.5,674.1)" />
<use xlink:href="#f4_d" transform="matrix(12.3,0,0,19,359.6,674.1)" />
</g>
</g>
<path d="M303.9,651.7h62.3" class="g5_177" />
<g clip-path="url(#c3_177)">
<g fill="#000000" >
<use xlink:href="#f2_m" transform="matrix(7.2,0,0,7,319.3,663.6)" />
<use xlink:href="#f2_m" transform="matrix(7.2,0,0,7,351.3,663.6)" />
<use xlink:href="#f2_k" transform="matrix(7.2,0,0,7,292.6,675.4)" />
<use xlink:href="#f2_l" transform="matrix(12.5,0,0,12,277.6,644.7)" />
<use xlink:href="#f2_2d" transform="matrix(12.5,0,0,12,330.3,644.7)" />
<use xlink:href="#f2_16" transform="matrix(12.5,0,0,12,57.8,656.3)" />
<use xlink:href="#f2_2e" transform="matrix(12.5,0,0,12,67.8,656.3)" />
<use xlink:href="#f2_2b" transform="matrix(12.5,0,0,12,73.8,656.3)" />
<use xlink:href="#f2_29" transform="matrix(12.5,0,0,12,82.9,656.3)" />
<use xlink:href="#f2_c" transform="matrix(12.5,0,0,12,101.2,656.3)" />
<use xlink:href="#f2_25" transform="matrix(12.5,0,0,12,107.2,656.3)" />
<use xlink:href="#f2_d" transform="matrix(12.5,0,0,12,112.6,656.3)" />
<use xlink:href="#f2_1x" transform="matrix(12.5,0,0,12,122.6,656.3)" />
<use xlink:href="#f2_2a" transform="matrix(12.5,0,0,12,130.5,656.3)" />
<use xlink:href="#f2_20" transform="matrix(12.5,0,0,12,139.7,656.3)" />
<use xlink:href="#f2_c" transform="matrix(12.5,0,0,12,153.1,656.3)" />
<use xlink:href="#f2_25" transform="matrix(12.5,0,0,12,159.1,656.3)" />
<use xlink:href="#f2_25" transform="matrix(12.5,0,0,12,164.2,656.3)" />
<use xlink:href="#f2_d" transform="matrix(12.5,0,0,12,169.6,656.3)" />
<use xlink:href="#f2_g" transform="matrix(12.5,0,0,12,175.6,656.3)" />
<use xlink:href="#f2_15" transform="matrix(12.5,0,0,12,184.1,656.3)" />
<use xlink:href="#f2_15" transform="matrix(12.5,0,0,12,222.6,656.3)" />
<use xlink:href="#f2_c" transform="matrix(12.5,0,0,12,437.3,656.3)" />
<use xlink:href="#f2_25" transform="matrix(12.5,0,0,12,443.3,656.3)" />
<use xlink:href="#f2_25" transform="matrix(12.5,0,0,12,448.4,656.3)" />
<use xlink:href="#f2_25" transform="matrix(12.5,0,0,12,453.5,656.3)" />
<use xlink:href="#f2_d" transform="matrix(12.5,0,0,12,458.9,656.3)" />
<use xlink:href="#f2_o" transform="matrix(12.5,0,0,12,264.9,670.7)" />
<use xlink:href="#f2_2e" transform="matrix(12.5,0,0,12,312,671.8)" />
<use xlink:href="#f4_f" transform="matrix(7.2,0,0,7,196.4,661.1)" />
<use xlink:href="#f4_h" transform="matrix(10.3,0,0,10,234.9,658.2)" />
<use xlink:href="#f4_x" transform="matrix(12.5,0,0,12,208.5,656.3)" />
<use xlink:href="#f4_x" transform="matrix(12.5,0,0,12,249.2,656.3)" />
<use xlink:href="#f4_2c" transform="matrix(12.5,0,0,12,274.3,670.7)" />
<use xlink:href="#f4_21" transform="matrix(12.5,0,0,12,284,670.7)" />
<use xlink:href="#f4_f" transform="matrix(12.5,0,0,12,329.5,671.8)" />
</g>
</g>
<image preserveAspectRatio="none" x="343" y="651" width="73" height="31" xlink:href="img/7.png" />
<g fill="#000000" >
<use xlink:href="#f2_1k" transform="matrix(12,0,0,12,55,702.1)" />
<use xlink:href="#f2_24" transform="matrix(12,0,0,12,66.2,702.1)" />
<use xlink:href="#f2_21" transform="matrix(12,0,0,12,75.4,702.1)" />
<use xlink:href="#f2_2a" transform="matrix(12,0,0,12,88.1,702.1)" />
<use xlink:href="#f2_21" transform="matrix(12,0,0,12,97.3,702.1)" />
<use xlink:href="#f2_2g" transform="matrix(12,0,0,12,105.4,702.1)" />
<use xlink:href="#f2_21" transform="matrix(12,0,0,12,115.1,702.1)" />
<use xlink:href="#f2_28" transform="matrix(12,0,0,12,123.3,702.1)" />
<use xlink:href="#f2_21" transform="matrix(12,0,0,12,128.4,702.1)" />
<use xlink:href="#f2_1z" transform="matrix(12,0,0,12,136.5,702.1)" />
<use xlink:href="#f2_2g" transform="matrix(12,0,0,12,144.5,702.1)" />
<use xlink:href="#f2_2e" transform="matrix(12,0,0,12,149.6,702.1)" />
<use xlink:href="#f2_25" transform="matrix(12,0,0,12,155.8,702.1)" />
<use xlink:href="#f2_1z" transform="matrix(12,0,0,12,160.9,702.1)" />
<use xlink:href="#f2_22" transform="matrix(12,0,0,12,173.6,702.1)" />
<use xlink:href="#f2_25" transform="matrix(12,0,0,12,179.6,702.1)" />
<use xlink:href="#f2_21" transform="matrix(12,0,0,12,184.7,702.1)" />
<use xlink:href="#f2_28" transform="matrix(12,0,0,12,192.9,702.1)" />
<use xlink:href="#f2_20" transform="matrix(12,0,0,12,198,702.1)" />
<use xlink:href="#f2_25" transform="matrix(12,0,0,12,211.8,702.1)" />
<use xlink:href="#f2_2a" transform="matrix(12,0,0,12,216.9,702.1)" />
<use xlink:href="#f2_2g" transform="matrix(12,0,0,12,226,702.1)" />
<use xlink:href="#f2_21" transform="matrix(12,0,0,12,231.1,702.1)" />
<use xlink:href="#f2_2a" transform="matrix(12,0,0,12,239.2,702.1)" />
<use xlink:href="#f2_2f" transform="matrix(12,0,0,12,248.4,702.1)" />
<use xlink:href="#f2_25" transform="matrix(12,0,0,12,255.5,702.1)" />
<use xlink:href="#f2_2g" transform="matrix(12,0,0,12,260.6,702.1)" />
<use xlink:href="#f2_2l" transform="matrix(12,0,0,12,265.8,702.1)" />
<use xlink:href="#f2_20" transform="matrix(12,0,0,12,279.5,702.1)" />
<use xlink:href="#f2_2h" transform="matrix(12,0,0,12,288.7,702.1)" />
<use xlink:href="#f2_21" transform="matrix(12,0,0,12,297.8,702.1)" />
<use xlink:href="#f2_2g" transform="matrix(12,0,0,12,310.5,702.1)" />
<use xlink:href="#f2_2b" transform="matrix(12,0,0,12,315.6,702.1)" />
<use xlink:href="#f2_2g" transform="matrix(12,0,0,12,329.3,702.1)" />
<use xlink:href="#f2_24" transform="matrix(12,0,0,12,334.4,702.1)" />
<use xlink:href="#f2_21" transform="matrix(12,0,0,12,343.6,702.1)" />
<use xlink:href="#f2_21" transform="matrix(12,0,0,12,356.3,702.1)" />
<use xlink:href="#f2_28" transform="matrix(12,0,0,12,364.4,702.1)" />
<use xlink:href="#f2_21" transform="matrix(12,0,0,12,369.5,702.1)" />
<use xlink:href="#f2_1z" transform="matrix(12,0,0,12,377.7,702.1)" />
<use xlink:href="#f2_2g" transform="matrix(12,0,0,12,385.8,702.1)" />
<use xlink:href="#f2_2e" transform="matrix(12,0,0,12,390.9,702.1)" />
<use xlink:href="#f2_25" transform="matrix(12,0,0,12,397,702.1)" />
<use xlink:href="#f2_1z" transform="matrix(12,0,0,12,402.1,702.1)" />
<use xlink:href="#f2_20" transform="matrix(12,0,0,12,414.8,702.1)" />
<use xlink:href="#f2_25" transform="matrix(12,0,0,12,424,702.1)" />
<use xlink:href="#f2_2c" transform="matrix(12,0,0,12,429.1,702.1)" />
<use xlink:href="#f2_2b" transform="matrix(12,0,0,12,438.2,702.1)" />
<use xlink:href="#f2_28" transform="matrix(12,0,0,12,447.4,702.1)" />
<use xlink:href="#f2_21" transform="matrix(12,0,0,12,452.5,702.1)" />
<use xlink:href="#f2_1x" transform="matrix(12,0,0,12,465.3,702.1)" />
<use xlink:href="#f2_2g" transform="matrix(12,0,0,12,473.3,702.1)" />
<use xlink:href="#f2_2c" transform="matrix(12,0,0,12,483,702.1)" />
<use xlink:href="#f2_2b" transform="matrix(12,0,0,12,492.2,702.1)" />
<use xlink:href="#f2_25" transform="matrix(12,0,0,12,501.4,702.1)" />
<use xlink:href="#f2_2a" transform="matrix(12,0,0,12,506.5,702.1)" />
<use xlink:href="#f2_2g" transform="matrix(12,0,0,12,515.6,702.1)" />
<use xlink:href="#f2_1g" transform="matrix(12,0,0,12,525.3,702.1)" />
<use xlink:href="#f2_i" transform="matrix(12,0,0,12,535.5,702.1)" />
</g>
<path d="M103.5,730.7l1.8,-1.4m.1,0l4.4,9.9m0,.1L114.7,713m0,0H285.3" class="g6_177" />
<path fill-rule="evenodd" d="M102.7,729.8l2.6,-1.8l3.9,8.3l4.5,-24.4h171v.9H114.4l-4.8,25.8h-.9l-4.5,-9.2l-1.1,.9l-.4,-.5Z" class="g7_177" />
<g clip-path="url(#c4_177)">
<g fill="#000000" >
<use xlink:href="#f2_m" transform="matrix(7.1,0,0,7,127,724.1)" />
<use xlink:href="#f2_m" transform="matrix(7.1,0,0,7,163.6,724.1)" />
<use xlink:href="#f2_15" transform="matrix(12.3,0,0,12.1,72.4,732.4)" />
<use xlink:href="#f2_15" transform="matrix(12.3,0,0,12.1,114.8,732.4)" />
<use xlink:href="#f2_15" transform="matrix(12.3,0,0,12.1,151.4,732.4)" />
<use xlink:href="#f2_m" transform="matrix(12.3,0,0,12.1,187.9,732.4)" />
<use xlink:href="#f2_15" transform="matrix(12.3,0,0,12.1,197.3,732.4)" />
<use xlink:href="#f2_15" transform="matrix(12.3,0,0,12.1,216.5,732.4)" />
<use xlink:href="#f2_1z" transform="matrix(12.3,0,0,12.1,238.6,732.4)" />
<use xlink:href="#f2_2b" transform="matrix(12.3,0,0,12.1,246.6,732.4)" />
<use xlink:href="#f2_2f" transform="matrix(12.3,0,0,12.1,255.8,732.4)" />
<use xlink:href="#f2_m" transform="matrix(12.3,0,0,12.1,265.5,732.4)" />
<use xlink:href="#f4_f" transform="matrix(7.1,0,0,7,127,737.2)" />
<use xlink:href="#f4_h" transform="matrix(7.1,0,0,7,163.6,737.2)" />
<use xlink:href="#f4_f" transform="matrix(7.1,0,0,7,209.5,737.2)" />
<use xlink:href="#f4_h" transform="matrix(7.1,0,0,7,228.7,737.2)" />
<use xlink:href="#f4_1s" transform="matrix(12.3,0,0,12.1,55,732.4)" />
<use xlink:href="#f4_x" transform="matrix(12.3,0,0,12.1,88.2,732.4)" />
<use xlink:href="#f4_f" transform="matrix(12.3,0,0,12.1,138,732.4)" />
<use xlink:href="#f4_f" transform="matrix(12.3,0,0,12.1,174.5,732.4)" />
<use xlink:href="#f4_2d" transform="matrix(12.3,0,0,12.1,274.7,732.4)" />
</g>
</g>
<path d="M73.3,767.1l1.9,-1.3m0,-.1l4.4,9.6m0,.1L84.4,750m0,0H236.7" class="g8_177" />
<path fill-rule="evenodd" d="M72.5,766.3L75,764.5l3.9,8L83.4,749H236.1v.9H84.2l-4.8,24.9h-.9l-4.5,-9l-1.1,1l-.4,-.5Z" class="g7_177" />
<g clip-path="url(#c5_177)">
<g fill="#000000" >
<use xlink:href="#f4_c" transform="matrix(12.1,0,0,15.3,238.2,770)" />
<use xlink:href="#f4_d" transform="matrix(12.1,0,0,15.3,322.3,770)" />
<use xlink:href="#f2_m" transform="matrix(7.1,0,0,6.8,96.7,760.7)" />
<use xlink:href="#f2_m" transform="matrix(7.1,0,0,6.8,134.1,760.7)" />
<use xlink:href="#f2_m" transform="matrix(7.1,0,0,6.8,181,760.7)" />
<use xlink:href="#f2_15" transform="matrix(12.3,0,0,11.7,84.6,768.7)" />
<use xlink:href="#f2_15" transform="matrix(12.3,0,0,11.7,122,768.7)" />
<use xlink:href="#f2_m" transform="matrix(12.3,0,0,11.7,159.4,768.7)" />
<use xlink:href="#f2_15" transform="matrix(12.3,0,0,11.7,168.8,768.7)" />
<use xlink:href="#f2_1z" transform="matrix(12.3,0,0,11.7,190.5,768.7)" />
<use xlink:href="#f2_2b" transform="matrix(12.3,0,0,11.7,198.4,768.7)" />
<use xlink:href="#f2_2f" transform="matrix(12.3,0,0,11.7,207.6,768.7)" />
<use xlink:href="#f2_m" transform="matrix(12.3,0,0,11.7,216.9,768.7)" />
<use xlink:href="#f2_15" transform="matrix(12.3,0,0,11.7,260.4,768.7)" />
<use xlink:href="#f2_15" transform="matrix(12.3,0,0,11.7,301.2,768.7)" />
<use xlink:href="#f4_f" transform="matrix(7.1,0,0,6.8,96.7,773.4)" />
<use xlink:href="#f4_f" transform="matrix(7.1,0,0,6.8,134.1,773.4)" />
<use xlink:href="#f4_f" transform="matrix(7.1,0,0,6.8,181,773.4)" />
<use xlink:href="#f4_f" transform="matrix(7.1,0,0,6.8,313.4,773.4)" />
<use xlink:href="#f4_h" transform="matrix(10.2,0,0,9.7,272.6,771.1)" />
<use xlink:href="#f4_x" transform="matrix(12.3,0,0,11.7,57.8,768.7)" />
<use xlink:href="#f4_f" transform="matrix(12.3,0,0,11.7,108,768.7)" />
<use xlink:href="#f4_f" transform="matrix(12.3,0,0,11.7,145.5,768.7)" />
<use xlink:href="#f4_2d" transform="matrix(12.3,0,0,11.7,226,768.7)" />
<use xlink:href="#f4_x" transform="matrix(12.3,0,0,11.7,286.8,768.7)" />
</g>
</g>
<image preserveAspectRatio="none" x="243" y="748" width="73" height="31" xlink:href="img/8.png" />
<path d="M73.3,803.5l1.8,-1.3m0,-.1l4.4,9.8m0,0l4.9,-25.7m0,-.1H246.3" class="g9_177" />
<path fill-rule="evenodd" d="M72.5,802.7L75,800.8l3.9,8.2l4.6,-23.9H245.6v.9H84.2l-4.8,25.3h-.9L74,802.2l-1.2,1l-.3,-.5Z" class="g7_177" />
<g clip-path="url(#c6_177)">
<g fill="#000000" >
<use xlink:href="#f4_c" transform="matrix(11.9,0,0,15.6,308.8,806.5)" />
<use xlink:href="#f4_d" transform="matrix(11.9,0,0,15.6,384.8,806.5)" />
</g>
</g>
<path d="M265.9,804.5l1.8,-1.4m.1,0l4.4,10.3m0,0l4.9,-27.2m0,-.1H392" class="g9_177" />
<path fill-rule="evenodd" d="M265.1,803.7l2.5,-1.9l4,8.6l4.5,-25.3H391.4v.9H276.8L272,812.8h-.9l-4.5,-9.6l-1.2,1l-.3,-.5Z" class="g7_177" />
<g clip-path="url(#c6_177)">
<g fill="#000000" >
<use xlink:href="#f2_m" transform="matrix(7,0,0,6.9,106.3,797.1)" />
<use xlink:href="#f2_m" transform="matrix(7,0,0,6.9,143,797.1)" />
<use xlink:href="#f2_m" transform="matrix(7,0,0,6.9,189.1,797.1)" />
<use xlink:href="#f2_m" transform="matrix(7,0,0,6.9,298.9,797.1)" />
<use xlink:href="#f2_m" transform="matrix(12.1,0,0,11.9,84.6,805.2)" />
<use xlink:href="#f2_15" transform="matrix(12.1,0,0,11.9,94.1,805.2)" />
<use xlink:href="#f2_15" transform="matrix(12.1,0,0,11.9,130.8,805.2)" />
<use xlink:href="#f2_m" transform="matrix(12.1,0,0,11.9,167.5,805.2)" />
<use xlink:href="#f2_15" transform="matrix(12.1,0,0,11.9,176.9,805.2)" />
<use xlink:href="#f2_1z" transform="matrix(12.1,0,0,11.9,199.3,805.2)" />
<use xlink:href="#f2_2b" transform="matrix(12.1,0,0,11.9,207.3,805.2)" />
<use xlink:href="#f2_2f" transform="matrix(12.1,0,0,11.9,216.5,805.2)" />
<use xlink:href="#f2_m" transform="matrix(12.1,0,0,11.9,226.3,805.2)" />
<use xlink:href="#f2_m" transform="matrix(12.1,0,0,11.9,277.1,805.2)" />
<use xlink:href="#f2_15" transform="matrix(12.1,0,0,11.9,286.6,805.2)" />
<use xlink:href="#f2_l" transform="matrix(12.1,0,0,11.9,314.3,805.2)" />
<use xlink:href="#f2_1z" transform="matrix(12.1,0,0,11.9,338.1,805.2)" />
<use xlink:href="#f2_2b" transform="matrix(12.1,0,0,11.9,346.1,805.2)" />
<use xlink:href="#f2_2f" transform="matrix(12.1,0,0,11.9,355.3,805.2)" />
<use xlink:href="#f2_m" transform="matrix(12.1,0,0,11.9,365,805.2)" />
<use xlink:href="#f4_f" transform="matrix(7,0,0,6.9,106.3,809.9)" />
<use xlink:href="#f4_f" transform="matrix(7,0,0,6.9,143,809.9)" />
<use xlink:href="#f4_f" transform="matrix(7,0,0,6.9,189.1,809.9)" />
<use xlink:href="#f4_f" transform="matrix(7,0,0,6.9,298.9,809.9)" />
<use xlink:href="#f4_x" transform="matrix(12.1,0,0,11.9,57.8,805.2)" />
<use xlink:href="#f4_f" transform="matrix(12.1,0,0,11.9,117.3,805.2)" />
<use xlink:href="#f4_f" transform="matrix(12.1,0,0,11.9,154,805.2)" />
<use xlink:href="#f4_2d" transform="matrix(12.1,0,0,11.9,235.5,805.2)" />
<use xlink:href="#f4_x" transform="matrix(12.1,0,0,11.9,250.4,805.2)" />
<use xlink:href="#f4_f" transform="matrix(12.1,0,0,11.9,325,805.2)" />
<use xlink:href="#f4_2d" transform="matrix(12.1,0,0,11.9,374.3,805.2)" />
</g>
</g>
<path d="M73.2,842.2L75,840.9m.1,-.1l4.4,9.9m0,.1l4.9,-26.3m0,0h89" class="g10_177" />
<path fill-rule="evenodd" d="M72.4,841.4L75,839.5l3.9,8.3l4.5,-24.4h89.4v1H84.1l-4.7,25.8h-.9l-4.6,-9.3l-1.1,1l-.4,-.5Z" class="g7_177" />
<g clip-path="url(#c7_177)">
<g fill="#000000" >
<use xlink:href="#f2_m" transform="matrix(7.1,0,0,7,106.2,835.6)" />
<use xlink:href="#f2_m" transform="matrix(7.1,0,0,7,153.4,835.6)" />
<use xlink:href="#f2_m" transform="matrix(12.3,0,0,12.1,84.6,843.9)" />
<use xlink:href="#f2_15" transform="matrix(12.3,0,0,12.1,94,843.9)" />
<use xlink:href="#f2_1z" transform="matrix(12.3,0,0,12.1,128.3,843.9)" />
<use xlink:href="#f2_2b" transform="matrix(12.3,0,0,12.1,136.3,843.9)" />
<use xlink:href="#f2_2f" transform="matrix(12.3,0,0,12.1,145.5,843.9)" />
<use xlink:href="#f4_f" transform="matrix(7.1,0,0,7,106.2,848.7)" />
<use xlink:href="#f4_x" transform="matrix(12.3,0,0,12.1,57.8,843.9)" />
<use xlink:href="#f4_3a" transform="matrix(12.3,0,0,12.1,116,843.9)" />
<use xlink:href="#f4_2d" transform="matrix(12.3,0,0,12.1,162.7,843.9)" />
</g>
</g>
<g clip-path="url(#c8_177)">
<g fill="#000000" >
<use xlink:href="#f4_c" transform="matrix(12.3,0,0,18.8,57.2,880)" />
<use xlink:href="#f4_d" transform="matrix(12.3,0,0,18.8,220.1,880)" />
<use xlink:href="#f2_m" transform="matrix(7.2,0,0,6.9,200.4,869.6)" />
<use xlink:href="#f2_l" transform="matrix(12.5,0,0,11.9,77.3,877.8)" />
<use xlink:href="#f2_1z" transform="matrix(12.5,0,0,11.9,100.9,877.8)" />
<use xlink:href="#f2_2b" transform="matrix(12.5,0,0,11.9,108.8,877.8)" />
<use xlink:href="#f2_2f" transform="matrix(12.5,0,0,11.9,117.9,877.8)" />
<use xlink:href="#f2_m" transform="matrix(12.5,0,0,11.9,127.6,877.8)" />
<use xlink:href="#f2_m" transform="matrix(12.5,0,0,11.9,164.3,877.8)" />
<use xlink:href="#f2_1z" transform="matrix(12.5,0,0,11.9,175.4,877.8)" />
<use xlink:href="#f2_2b" transform="matrix(12.5,0,0,11.9,183.4,877.8)" />
<use xlink:href="#f2_2f" transform="matrix(12.5,0,0,11.9,192.4,877.8)" />
<use xlink:href="#f4_f" transform="matrix(12.5,0,0,11.9,87.8,877.8)" />
<use xlink:href="#f4_2d" transform="matrix(12.5,0,0,11.9,136.8,877.8)" />
<use xlink:href="#f4_x" transform="matrix(12.5,0,0,11.9,150.1,877.8)" />
<use xlink:href="#f4_2d" transform="matrix(12.5,0,0,11.9,209.7,877.8)" />
</g>
</g>
<image preserveAspectRatio="none" x="62" y="857" width="73" height="31" xlink:href="img/9.png" />
<path d="M212.9,916h36.9" class="g11_177" />
<g clip-path="url(#c9_177)">
<g fill="#000000" >
<use xlink:href="#f4_c" transform="matrix(12.3,0,0,19,255.5,938.4)" />
<use xlink:href="#f4_d" transform="matrix(12.3,0,0,19,311,938.4)" />
</g>
</g>
<path d="M255,916h62.6" class="g11_177" />
<g clip-path="url(#c9_177)">
<g fill="#000000" >
<use xlink:href="#f2_m" transform="matrix(7.2,0,0,7,270.4,927.9)" />
<use xlink:href="#f2_m" transform="matrix(7.2,0,0,7,302.6,927.9)" />
<use xlink:href="#f2_k" transform="matrix(7.2,0,0,7,241.9,939.7)" />
<use xlink:href="#f2_l" transform="matrix(12.5,0,0,12,226.8,909)" />
<use xlink:href="#f2_2d" transform="matrix(12.5,0,0,12,281.6,909)" />
<use xlink:href="#f2_15" transform="matrix(12.5,0,0,12,72.5,920.6)" />
<use xlink:href="#f2_m" transform="matrix(12.5,0,0,12,102.6,920.6)" />
<use xlink:href="#f2_15" transform="matrix(12.5,0,0,12,112.1,920.6)" />
<use xlink:href="#f2_1z" transform="matrix(12.5,0,0,12,134.5,920.6)" />
<use xlink:href="#f2_2b" transform="matrix(12.5,0,0,12,142.5,920.6)" />
<use xlink:href="#f2_2f" transform="matrix(12.5,0,0,12,151.7,920.6)" />
<use xlink:href="#f2_m" transform="matrix(12.5,0,0,12,189,920.6)" />
<use xlink:href="#f2_1z" transform="matrix(12.5,0,0,12,320.4,920.6)" />
<use xlink:href="#f2_2b" transform="matrix(12.5,0,0,12,328.5,920.6)" />
<use xlink:href="#f2_2f" transform="matrix(12.5,0,0,12,337.6,920.6)" />
<use xlink:href="#f2_o" transform="matrix(12.5,0,0,12,214,934.9)" />
<use xlink:href="#f2_2e" transform="matrix(12.5,0,0,12,263.1,936.1)" />
<use xlink:href="#f4_f" transform="matrix(7.2,0,0,7,124.3,925.3)" />
<use xlink:href="#f4_1s" transform="matrix(12.5,0,0,12,55,920.6)" />
<use xlink:href="#f4_x" transform="matrix(12.5,0,0,12,88.2,920.6)" />
<use xlink:href="#f4_2d" transform="matrix(12.5,0,0,12,161.1,920.6)" />
<use xlink:href="#f4_x" transform="matrix(12.5,0,0,12,174.6,920.6)" />
<use xlink:href="#f4_3a" transform="matrix(12.5,0,0,12,199.8,920.6)" />
<use xlink:href="#f4_2d" transform="matrix(12.5,0,0,12,347,920.6)" />
<use xlink:href="#f4_2c" transform="matrix(12.5,0,0,12,223.5,934.9)" />
<use xlink:href="#f4_21" transform="matrix(12.5,0,0,12,233.2,934.9)" />
<use xlink:href="#f4_f" transform="matrix(12.5,0,0,12,280.7,936.1)" />
</g>
</g>
<image preserveAspectRatio="none" x="294" y="915" width="73" height="31" xlink:href="img/10.png" />
<g fill="#000000" >
<use xlink:href="#f2_1r" transform="matrix(12,0,0,12,420.5,920.1)" />
<use xlink:href="#f2_1l" transform="matrix(12,0,0,12,426.6,920.1)" />
<use xlink:href="#f2_2f" transform="matrix(12,0,0,12,439.8,920.1)" />
<use xlink:href="#f2_25" transform="matrix(12,0,0,12,446.9,920.1)" />
<use xlink:href="#f2_2a" transform="matrix(12,0,0,12,452,920.1)" />
<use xlink:href="#f2_23" transform="matrix(12,0,0,12,461.2,920.1)" />
<use xlink:href="#f2_21" transform="matrix(12,0,0,12,474.9,920.1)" />
<use xlink:href="#f2_2d" transform="matrix(12,0,0,12,483.1,920.1)" />
<use xlink:href="#f2_2h" transform="matrix(12,0,0,12,492.3,920.1)" />
<use xlink:href="#f2_1x" transform="matrix(12,0,0,12,501.5,920.1)" />
<use xlink:href="#f2_2g" transform="matrix(12,0,0,12,509.6,920.1)" />
<use xlink:href="#f2_25" transform="matrix(12,0,0,12,514.7,920.1)" />
<use xlink:href="#f2_2b" transform="matrix(12,0,0,12,519.9,920.1)" />
<use xlink:href="#f2_2a" transform="matrix(12,0,0,12,529,920.1)" />
<use xlink:href="#f2_c" transform="matrix(12,0,0,12,542.8,920.1)" />
<use xlink:href="#f2_25" transform="matrix(12,0,0,12,548.9,920.1)" />
<use xlink:href="#f2_25" transform="matrix(12,0,0,12,554,920.1)" />
<use xlink:href="#f2_25" transform="matrix(12,0,0,12,559,920.1)" />
<use xlink:href="#f2_d" transform="matrix(12,0,0,12,564.1,920.1)" />
<use xlink:href="#f2_1t" transform="matrix(12,0,0,12,570.3,920.1)" />
</g>
<path d="M114.2,991l1.8,-1.1m.1,0l4.4,8m0,0l4.8,-21.1m0,0h48" class="g12_177" />
<path fill-rule="evenodd" d="M113.4,990.2l2.6,-1.6l3.8,6.8l4.6,-19.7h48.3v.9H125l-4.7,20.7h-.9l-4.5,-7.4l-1.2,.8l-.3,-.5Z" class="g7_177" />
<path d="M112,973.4h62.1" class="g13_177" />
<g clip-path="url(#c10_177)">
<g fill="#000000" >
<use xlink:href="#f2_m" transform="matrix(7,0,0,6.9,132.8,987.7)" />
<use xlink:href="#f2_m" transform="matrix(7,0,0,6.9,164.8,987.7)" />
<use xlink:href="#f2_1z" transform="matrix(12.2,0,0,11.9,57.5,978)" />
<use xlink:href="#f2_2b" transform="matrix(12.2,0,0,11.9,65.5,978)" />
<use xlink:href="#f2_2f" transform="matrix(12.2,0,0,11.9,74.7,978)" />
<use xlink:href="#f2_2e" transform="matrix(12.2,0,0,11.9,125.5,995.9)" />
<use xlink:href="#f4_2d" transform="matrix(12.2,0,0,11.9,84.1,978)" />
<use xlink:href="#f4_x" transform="matrix(12.2,0,0,11.9,97.5,978)" />
<use xlink:href="#f4_f" transform="matrix(12.2,0,0,11.9,143,995.9)" />
</g>
</g>
<image preserveAspectRatio="none" x="139" y="946" width="73" height="31" xlink:href="img/11.png" />
<image preserveAspectRatio="none" x="156" y="975" width="73" height="31" xlink:href="img/12.png" />
<g clip-path="url(#c11_177)">
<g fill="#000000" >
<use xlink:href="#f4_c" transform="matrix(11.9,0,0,18.8,126.3,1052.5)" />
<use xlink:href="#f4_d" transform="matrix(11.9,0,0,18.8,181.7,1052.5)" />
</g>
</g>
<path d="M88.2,1026.7H205.3" class="g14_177" />
<g clip-path="url(#c11_177)">
<g fill="#000000" >
<use xlink:href="#f2_n" transform="matrix(7,0,0,6.9,187.8,1037)" />
<use xlink:href="#f2_j" transform="matrix(7,0,0,6.9,193.4,1037)" />
<use xlink:href="#f2_m" transform="matrix(7,0,0,6.9,197.4,1037)" />
<use xlink:href="#f2_m" transform="matrix(7,0,0,6.9,141.2,1042)" />
<use xlink:href="#f2_m" transform="matrix(7,0,0,6.9,173.4,1042)" />
<use xlink:href="#f2_k" transform="matrix(7,0,0,6.9,117.2,1054.9)" />
<use xlink:href="#f2_2c" transform="matrix(12.1,0,0,11.9,142.4,1019.8)" />
<use xlink:href="#f2_15" transform="matrix(12.1,0,0,11.9,57.8,1031.2)" />
<use xlink:href="#f2_o" transform="matrix(12.1,0,0,11.9,89.4,1050.2)" />
<use xlink:href="#f2_2e" transform="matrix(12.1,0,0,11.9,133.9,1050.2)" />
<use xlink:href="#f4_x" transform="matrix(12.1,0,0,11.9,73.6,1031.2)" />
<use xlink:href="#f4_2c" transform="matrix(12.1,0,0,11.9,98.9,1050.2)" />
<use xlink:href="#f4_21" transform="matrix(12.1,0,0,11.9,108.6,1050.2)" />
<use xlink:href="#f4_f" transform="matrix(12.1,0,0,11.9,151.5,1050.2)" />
</g>
</g>
<image preserveAspectRatio="none" x="165" y="1029" width="73" height="32" xlink:href="img/13.png" />
<path d="M148.9,1089.4h48.9" class="g15_177" />
<g clip-path="url(#c12_177)">
<g fill="#000000" >
<use xlink:href="#f2_n" transform="matrix(7.3,0,0,7.1,189,1108.9)" />
<use xlink:href="#f2_k" transform="matrix(8.2,0,0,7.9,177.9,1113.1)" />
<use xlink:href="#f2_2e" transform="matrix(8.2,0,0,7.9,184.7,1113.1)" />
<use xlink:href="#f2_2c" transform="matrix(12.4,0,0,12,168.9,1082.4)" />
<use xlink:href="#f2_25" transform="matrix(12.4,0,0,12,57.2,1094)" />
<use xlink:href="#f2_22" transform="matrix(12.4,0,0,12,62.4,1094)" />
<use xlink:href="#f2_2e" transform="matrix(12.4,0,0,12,104.9,1094)" />
<use xlink:href="#f2_g" transform="matrix(12.4,0,0,12,111.5,1094)" />
<use xlink:href="#f2_15" transform="matrix(12.4,0,0,12,118.3,1094)" />
<use xlink:href="#f2_o" transform="matrix(12.4,0,0,12,150.1,1108.4)" />
<use xlink:href="#f4_w" transform="matrix(12.4,0,0,12,80.5,1094)" />
<use xlink:href="#f4_w" transform="matrix(12.4,0,0,12,90.6,1094)" />
<use xlink:href="#f4_x" transform="matrix(12.4,0,0,12,134.3,1094)" />
<use xlink:href="#f4_2c" transform="matrix(12.4,0,0,12,159.5,1108.4)" />
<use xlink:href="#f4_21" transform="matrix(12.4,0,0,12,169.3,1108.4)" />
</g>
</g>
<image preserveAspectRatio="none" x="68" y="1073" width="74" height="31" xlink:href="img/14.png" />
<g fill="#000000" >
<use xlink:href="#f2_c" transform="matrix(12,0,0,12,55,1139.9)" />
<use xlink:href="#f2_1y" transform="matrix(12,0,0,12,61.1,1139.9)" />
<use xlink:href="#f2_d" transform="matrix(12,0,0,12,70.3,1139.9)" />
</g>
<image preserveAspectRatio="none" x="55" y="127" width="297" height="311" xlink:href="img/15.png" />
<path fill-rule="evenodd" d="M37.4,38.1h.7v-.7h-.7v.7Z" class="g7_177" />
<path fill-rule="evenodd" d="M37.4,38.1h.7v-.7h-.7v.7Z" class="g7_177" />
<path fill-rule="evenodd" d="M38.1,38.1H871.5v-.7H38.1v.7Z" class="g7_177" />
<path fill-rule="evenodd" d="M871.5,38.1h.7v-.7h-.7v.7Z" class="g7_177" />
<path fill-rule="evenodd" d="M871.5,38.1h.7v-.7h-.7v.7Z" class="g7_177" />
<path fill-rule="evenodd" d="M37.4,1248.2h.7V38.1h-.7V1248.2Z" class="g7_177" />
<path fill-rule="evenodd" d="M872.2,1248.2h.8V38.1h-.8V1248.2Z" class="g7_177" />
<path fill-rule="evenodd" d="M871.5,1248.2h.7V38.1h-.7V1248.2Z" class="g7_177" />
<path fill-rule="evenodd" d="M37.4,1249h.7v-.8h-.7v.8Z" class="g7_177" />
<path fill-rule="evenodd" d="M37.4,1249h.7v-.8h-.7v.8Z" class="g7_177" />
<path fill-rule="evenodd" d="M38.1,1249.7H871.5v-.7H38.1v.7Z" class="g7_177" />
<path fill-rule="evenodd" d="M38.1,1249H871.5v-.8H38.1v.8Z" class="g7_177" />
<path fill-rule="evenodd" d="M872.2,1249.7h.8v-1.5h-.8v1.5Z" class="g7_177" />
<path fill-rule="evenodd" d="M871.5,1249.7H873v-.7h-1.5v.7Z" class="g7_177" />
<path fill-rule="evenodd" d="M871.5,1249h.7v-.8h-.7v.8Z" class="g7_177" />
<path fill-rule="evenodd" d="M871.5,1249h.7v-.8h-.7v.8Z" class="g7_177" />
<defs>
<path d="M489,-15c0,0,-99,0,-179,30c0,0,-80,30,-136,91c0,0,-56,61,-85,152c0,0,-30,91,-30,212c0,0,0,123,32,218c0,0,33,96,92,161c0,0,59,65,142,98c0,0,82,34,181,34c0,0,40,0,78,-7c0,0,37,-7,69,-18c0,0,31,-11,57,-25c0,0,25,-14,35,-24c0,0,10,-10,14,-17c0,0,4,-7,6,-17c0,0,2,-11,3,-25c0,0,2,-14,2,-35c0,0,0,-22,-2,-38c0,0,-1,-15,-5,-25c0,0,-4,-10,-9,-14c0,0,-5,-5,-12,-5c0,0,-11,0,-28,13c0,0,-18,13,-45,29c0,0,-27,16,-65,29c0,0,-37,13,-89,13c0,0,-58,0,-103,-23c0,0,-45,-23,-77,-67c0,0,-31,-44,-48,-106c0,0,-16,-61,-16,-139c0,0,0,-85,17,-147c0,0,18,-62,50,-103c0,0,33,-40,79,-60c0,0,45,-19,103,-19c0,0,52,0,90,12c0,0,38,12,65,27c0,0,27,15,45,27c0,0,17,12,27,12c0,0,8,0,12,-3c0,0,4,-3,7,-12c0,0,3,-9,5,-25c0,0,1,-16,1,-43c0,0,0,-18,-1,-31c0,0,-1,-14,-3,-23c0,0,-2,-9,-6,-16c0,0,-4,-7,-12,-15c0,0,-8,-9,-32,-22c0,0,-23,-14,-57,-26C661,13,627,1,583,-6c0,0,-43,-9,-94,-9Z" 
id="f0_j"
transform="scale(0.001,-0.001)" />

<path d="M440,150c0,0,41,0,68,8c0,0,28,9,49,26c0,0,20,16,32,41c0,0,11,25,11,58c0,0,0,33,-11,60c0,0,-11,26,-33,44c0,0,-21,18,-55,28c0,0,-33,9,-87,9H298V150ZM407,567c0,0,42,0,68,10c0,0,25,10,42,28c0,0,16,17,24,41c0,0,9,24,9,50c0,0,0,29,-9,52c0,0,-9,23,-27,39c0,0,-18,15,-45,23c0,0,-27,8,-72,8H298V567ZM164,0c0,0,-25,0,-42,15c0,0,-16,14,-16,47V903c0,0,0,33,16,48c0,0,17,14,42,14H406c0,0,88,0,150,-15c0,0,61,-15,103,-45c0,0,42,-30,65,-77c0,0,22,-46,22,-108c0,0,0,-36,-9,-67c0,0,-9,-31,-26,-56c0,0,-17,-25,-42,-45c0,0,-25,-19,-57,-31c0,0,41,-7,76,-26c0,0,34,-19,60,-48c0,0,26,-30,41,-69c0,0,15,-40,15,-89c0,0,0,-51,-14,-93c0,0,-15,-42,-40,-74c0,0,-25,-32,-59,-55c0,0,-35,-23,-77,-38C614,29,573,14,525,7C525,7,478,0,420,0Z" 
id="f0_i"
transform="scale(0.001,-0.001)" />

<path d="M320,-17c0,0,-50,0,-93,9c0,0,-43,8,-76,19c0,0,-32,11,-54,24C97,35,75,48,65,58c0,0,-10,9,-14,28c0,0,-4,18,-4,52c0,0,0,23,1,39c0,0,2,15,5,25c0,0,4,10,9,14c0,0,6,4,13,4c0,0,11,0,30,-12c0,0,19,-13,49,-28c0,0,30,-15,71,-27c0,0,42,-12,96,-12c0,0,36,0,64,8c0,0,29,9,49,25c0,0,19,15,30,38c0,0,10,23,10,52c0,0,0,33,-18,56c0,0,-18,24,-46,42c0,0,-29,18,-66,34c0,0,-36,16,-75,34c0,0,-39,18,-76,41c0,0,-36,23,-65,54c0,0,-29,32,-47,75c0,0,-17,44,-17,104c0,0,0,70,25,122c0,0,26,53,70,88c0,0,43,34,103,51c0,0,59,18,125,18c0,0,35,0,69,-6c0,0,34,-5,64,-14c0,0,30,-9,53,-20c0,0,23,-11,31,-18c0,0,7,-8,10,-13c0,0,3,-5,4,-14c0,0,2,-8,3,-21c0,0,1,-13,1,-33c0,0,0,-21,-1,-36c0,0,-1,-15,-4,-25c0,0,-3,-9,-7,-14c0,0,-5,-4,-14,-4c0,0,-8,0,-26,10c0,0,-18,10,-44,23c0,0,-26,12,-60,22c0,0,-34,10,-75,10c0,0,-32,0,-56,-8c0,0,-24,-8,-40,-21c0,0,-16,-14,-24,-34c0,0,-8,-19,-8,-41c0,0,0,-32,18,-56c0,0,17,-23,46,-42c0,0,30,-18,67,-34c0,0,38,-16,76,-34c0,0,39,-18,76,-41c0,0,38,-22,67,-54c0,0,29,-32,47,-75c0,0,18,-43,18,-101c0,0,0,-76,-29,-133c0,0,-28,-58,-77,-96C572,60,524,21,459,2c0,0,-65,-19,-139,-19Z" 
id="f0_2n"
transform="scale(0.001,-0.001)" />

<path d="M164,0c0,0,-25,0,-42,15c0,0,-16,14,-16,47V903c0,0,0,33,16,48c0,0,17,14,42,14H645c0,0,7,0,12,-4c0,0,5,-3,9,-13c0,0,4,-9,6,-24c0,0,2,-14,2,-36c0,0,0,-21,-2,-36c0,0,-2,-14,-6,-23c0,0,-4,-9,-9,-13c0,0,-5,-4,-12,-4H301V576H593c0,0,6,0,12,-4c0,0,6,-4,9,-13c0,0,4,-8,6,-23c0,0,2,-14,2,-35c0,0,0,-22,-2,-36c0,0,-2,-14,-6,-23c0,0,-3,-8,-9,-12c0,0,-6,-4,-12,-4H301V154H649c0,0,6,0,12,-5c0,0,5,-4,9,-13c0,0,4,-9,6,-23c0,0,2,-15,2,-36c0,0,0,-22,-2,-36c0,0,-2,-15,-6,-24c0,0,-4,-9,-9,-13c0,0,-6,-4,-12,-4Z" 
id="f0_t"
transform="scale(0.001,-0.001)" />

<path d="M79,297c0,0,-19,0,-27,18c0,0,-8,17,-8,60c0,0,0,41,8,59c0,0,8,17,27,17H389c0,0,9,0,15,-4c0,0,7,-4,11,-13c0,0,5,-9,7,-23c0,0,1,-15,1,-36c0,0,0,-43,-8,-61c0,0,-8,-17,-26,-17Z" 
id="f0_oj"
transform="scale(0.001,-0.001)" />

<path d="M121,-4c0,0,-39,0,-60,2C61,-2,39,0,32,8c0,0,-8,8,-3,24c0,0,4,15,18,41L279,495L64,892c0,0,-14,26,-19,42c0,0,-5,17,4,24c0,0,9,8,32,10c0,0,23,2,65,2c0,0,35,0,56,-2c0,0,20,-1,32,-4c0,0,12,-4,17,-10c0,0,5,-6,9,-15L431,620L595,939c0,0,5,9,10,15c0,0,5,6,16,10c0,0,10,3,29,4c0,0,19,2,53,2c0,0,37,0,59,-2c0,0,22,-2,30,-10c0,0,8,-8,4,-24c0,0,-4,-16,-17,-42L564,497L793,73c0,0,14,-26,18,-41c0,0,4,-16,-5,-24c0,0,-9,-8,-32,-10c0,0,-24,-2,-65,-2c0,0,-36,0,-56,2c0,0,-20,1,-31,3c0,0,-12,4,-17,10c0,0,-5,6,-9,15L414,374L233,26c0,0,-4,-9,-9,-15c0,0,-6,-6,-17,-10c0,0,-12,-2,-32,-3c0,0,-21,-2,-54,-2Z" 
id="f0_3e"
transform="scale(0.001,-0.001)" />

<path d="M204,-4c0,0,-28,0,-47,2c0,0,-19,2,-31,5c0,0,-11,4,-16,10c0,0,-4,6,-4,13V939c0,0,0,7,4,13c0,0,5,6,17,10c0,0,11,3,30,6c0,0,19,2,47,2c0,0,29,0,48,-2c0,0,18,-3,29,-6c0,0,11,-4,16,-10c0,0,5,-6,5,-13V26c0,0,0,-7,-5,-13c0,0,-5,-6,-16,-10c0,0,-11,-3,-29,-5c0,0,-19,-2,-48,-2Z" 
id="f0_1c"
transform="scale(0.001,-0.001)" />

<path d="M127,0c0,0,-16,0,-28,3C99,3,87,6,80,15c0,0,-8,8,-11,25c0,0,-3,16,-3,42c0,0,0,25,2,42c0,0,2,18,8,32c0,0,6,14,15,27c0,0,9,13,24,29L282,390c0,0,50,53,81,95c0,0,30,43,47,79c0,0,17,35,24,65c0,0,6,30,6,57c0,0,0,24,-8,46c0,0,-8,22,-23,39c0,0,-15,16,-38,25c0,0,-23,10,-55,10c0,0,-44,0,-78,-12c0,0,-33,-11,-59,-25c0,0,-26,-13,-43,-25c0,0,-17,-12,-27,-12c0,0,-7,0,-11,5c0,0,-5,4,-8,15c0,0,-3,10,-5,28c0,0,-2,17,-2,42c0,0,0,18,1,29c0,0,1,12,4,20c0,0,2,9,6,15c0,0,3,6,13,15c0,0,9,9,34,23c0,0,25,14,61,27c0,0,37,14,81,23c0,0,44,9,92,9c0,0,75,0,131,-19c0,0,57,-19,94,-53c0,0,37,-34,55,-81c0,0,19,-47,19,-100c0,0,0,-47,-9,-93c0,0,-9,-45,-37,-98c0,0,-29,-52,-80,-116c0,0,-52,-64,-136,-148L299,159H679c0,0,8,0,14,-4c0,0,6,-5,11,-14c0,0,4,-9,7,-25c0,0,2,-15,2,-36c0,0,0,-22,-2,-37c0,0,-2,-15,-6,-25c0,0,-3,-10,-9,-14c0,0,-6,-4,-14,-4Z" 
id="f0_rz"
transform="scale(0.001,-0.001)" />

<path d="M385,138c0,0,29,0,52,9c0,0,22,10,39,28c0,0,17,19,28,47c0,0,11,29,19,66c0,0,7,37,9,84c0,0,3,47,3,104c0,0,0,69,-4,122c0,0,-4,52,-11,91c0,0,-8,39,-20,66c0,0,-12,27,-28,43c0,0,-16,16,-37,22c0,0,-21,7,-47,7c0,0,-44,0,-73,-21c0,0,-28,-21,-45,-64c0,0,-17,-42,-24,-106c0,0,-6,-63,-6,-148c0,0,0,-103,8,-171c0,0,8,-67,26,-107c0,0,17,-40,45,-56c0,0,27,-16,66,-16ZM378,-17c0,0,-99,0,-164,33c0,0,-65,34,-103,98c0,0,-38,64,-54,156c0,0,-15,92,-15,209c0,0,0,115,19,208c0,0,19,94,61,160c0,0,42,65,110,101c0,0,68,35,165,35c0,0,99,0,164,-34c0,0,65,-34,103,-98c0,0,39,-64,53,-156c0,0,15,-92,15,-209c0,0,0,-115,-18,-209c0,0,-19,-93,-61,-159C653,118,611,53,543,17c0,0,-67,-34,-165,-34Z" 
id="f0_rx"
transform="scale(0.001,-0.001)" />

<path d="M142,0c0,0,-6,0,-12,4c0,0,-5,3,-9,12c0,0,-4,9,-6,23c0,0,-3,15,-3,36c0,0,0,21,2,36c0,0,2,14,6,23c0,0,4,9,10,13c0,0,5,5,12,5H322V779L166,693c0,0,-17,-8,-28,-10c0,0,-1,0,-3,0c-4,0,-10,1,-14,5c0,0,-6,6,-8,22c0,0,-2,15,-2,44c0,0,0,18,0,29c0,0,1,12,4,20c0,0,3,8,8,14c0,0,5,5,14,11L345,962c0,0,4,3,9,5c0,0,6,2,15,3c0,0,9,1,23,2c0,0,15,0,38,0c0,0,28,0,46,-1c0,0,17,-1,26,-4c0,0,9,-3,12,-7c0,0,3,-4,3,-11V152H675c0,0,7,0,12,-5c0,0,6,-4,10,-13c0,0,4,-9,6,-23c0,0,2,-15,2,-36c0,0,0,-21,-2,-36c0,0,-3,-14,-7,-23c0,0,-4,-9,-9,-12c0,0,-5,-4,-12,-4Z" 
id="f0_ry"
transform="scale(0.001,-0.001)" />

<path d="M337,-17c0,0,-50,0,-93,8c0,0,-43,7,-76,16c0,0,-34,11,-55,22c0,0,-22,11,-29,17c0,0,-6,6,-10,13c0,0,-3,8,-6,18c0,0,-2,10,-3,25c0,0,-1,16,-1,37c0,0,0,36,6,50c0,0,6,13,17,13c0,0,8,0,26,-10c0,0,18,-10,47,-21c0,0,28,-12,66,-22c0,0,38,-10,87,-10c0,0,41,0,72,10c0,0,31,9,53,27c0,0,22,17,33,42c0,0,11,25,11,56c0,0,0,34,-13,61c0,0,-13,26,-39,45c0,0,-26,20,-65,30c0,0,-39,10,-92,10H189c0,0,-9,0,-16,3c0,0,-7,3,-11,11c0,0,-5,8,-7,23c0,0,-1,14,-1,37c0,0,0,22,1,36c0,0,2,13,6,21c0,0,4,7,11,10c0,0,6,3,15,3h85c0,0,43,0,77,10c0,0,33,10,56,29c0,0,23,19,35,45c0,0,12,27,12,59c0,0,0,25,-8,47c0,0,-9,22,-25,38c0,0,-16,16,-41,26c0,0,-26,9,-60,9c0,0,-39,0,-73,-11c0,0,-34,-12,-62,-26c0,0,-27,-13,-46,-25c0,0,-19,-12,-28,-12c0,0,-6,0,-10,2c0,0,-5,3,-8,11c0,0,-3,7,-4,21c0,0,-2,14,-2,37c0,0,0,18,1,31c0,0,1,12,3,20c0,0,2,8,5,14c0,0,4,6,11,13c0,0,8,7,31,21c0,0,23,14,58,28c0,0,35,13,81,22c0,0,46,10,100,10c0,0,70,0,124,-17c0,0,54,-16,91,-47c0,0,37,-31,56,-76c0,0,19,-46,19,-102c0,0,0,-44,-11,-83c0,0,-12,-38,-33,-68c0,0,-22,-29,-54,-50c0,0,-33,-21,-75,-32v-2c0,0,50,-6,91,-26c0,0,40,-19,68,-49c0,0,28,-30,43,-68c0,0,15,-37,15,-81c0,0,0,-72,-28,-128c0,0,-27,-56,-77,-94C604,60,555,22,487,2c0,0,-69,-19,-150,-19Z" 
id="f0_s0"
transform="scale(0.001,-0.001)" />

<path d="M589,371L453,782h-1L317,371ZM106,-4c0,0,-35,0,-54,2C52,-2,32,0,25,8c0,0,-7,9,-5,24c0,0,2,16,11,42L329,931c0,0,4,13,10,21c0,0,6,7,19,12c0,0,13,4,36,5c0,0,23,1,61,1c0,0,44,0,71,-1c0,0,26,-1,40,-5c0,0,15,-5,21,-13c0,0,6,-8,11,-22L896,73c0,0,9,-27,11,-43c0,0,3,-15,-6,-23c0,0,-8,-7,-29,-9c0,0,-21,-2,-57,-2c0,0,-38,0,-59,1c0,0,-22,1,-33,4c0,0,-11,3,-16,9c0,0,-4,6,-7,16L635,220H272L211,31c0,0,-2,-11,-7,-18c0,0,-5,-7,-16,-11c0,0,-11,-3,-31,-4c0,0,-19,-2,-51,-2Z" 
id="f0_5"
transform="scale(0.001,-0.001)" />

<path d="M198,-4c0,0,-27,0,-45,2c0,0,-18,2,-28,5c0,0,-11,4,-15,10c0,0,-4,6,-4,13V887c0,0,0,38,20,58c0,0,20,20,53,20H308c0,0,34,0,59,-6c0,0,24,-5,42,-18c0,0,18,-13,30,-35c0,0,12,-21,21,-52L669,279h3L889,852c0,0,9,32,21,53c0,0,11,22,27,35c0,0,15,14,36,19c0,0,21,6,48,6h132c0,0,21,0,35,-5c0,0,15,-5,24,-15c0,0,9,-11,14,-25c0,0,5,-15,5,-33V26c0,0,0,-7,-4,-13c0,0,-4,-6,-15,-10c0,0,-11,-3,-29,-5c0,0,-18,-2,-45,-2c0,0,-27,0,-45,2c0,0,-18,2,-28,5c0,0,-11,4,-15,10c0,0,-5,6,-5,13V813h-1L764,27c0,0,-3,-10,-10,-16c0,0,-6,-6,-18,-10c0,0,-12,-3,-29,-4c0,0,-18,-1,-44,-1c0,0,-25,0,-43,2c0,0,-18,2,-29,5c0,0,-12,4,-19,10c0,0,-6,6,-9,14L293,813h-2V26c0,0,0,-7,-4,-13c0,0,-4,-6,-15,-10c0,0,-11,-3,-29,-5c0,0,-17,-2,-45,-2Z" 
id="f0_1x"
transform="scale(0.001,-0.001)" />

<path d="M193,-4c0,0,-26,0,-43,2c0,0,-18,2,-27,6c0,0,-10,4,-14,10c0,0,-3,6,-3,13V895c0,0,0,35,20,53c0,0,21,17,50,17H282c0,0,28,0,47,-5c0,0,20,-5,35,-16c0,0,15,-11,29,-31c0,0,13,-20,27,-49L608,511c0,0,17,-32,33,-63c0,0,16,-31,31,-62c0,0,14,-31,29,-60c0,0,14,-30,27,-60h1c0,0,-2,52,-3,109c0,0,-1,57,-1,108V936c0,0,0,7,4,13c0,0,5,6,15,11c0,0,10,4,28,6c0,0,17,2,44,2c0,0,25,0,42,-2c0,0,17,-2,27,-6c0,0,9,-5,13,-11c0,0,4,-6,4,-13V68c0,0,0,-17,-6,-30c0,0,-6,-14,-17,-23C879,15,869,6,856,2c0,0,-14,-3,-28,-3H744c0,0,-26,0,-45,4c0,0,-19,5,-35,19c0,0,-16,14,-31,38c0,0,-15,23,-34,60L359,572c0,0,-21,40,-43,86c0,0,-21,47,-38,91h-2c0,0,3,-54,5,-107c0,0,2,-53,2,-110V27c0,0,0,-7,-5,-13c0,0,-4,-6,-14,-10c0,0,-10,-4,-27,-6c0,0,-17,-2,-44,-2Z" 
id="f0_1y"
transform="scale(0.001,-0.001)" />

<path d="M378,-4c0,0,-28,0,-47,2c0,0,-19,2,-31,5c0,0,-11,4,-16,10c0,0,-4,6,-4,13V805H38c0,0,-8,0,-13,4c0,0,-5,5,-9,14c0,0,-3,9,-5,25c0,0,-2,15,-2,37c0,0,0,22,2,38c0,0,2,15,5,25c0,0,4,9,9,13c0,0,5,4,13,4H718c0,0,7,0,12,-4c0,0,6,-4,10,-13c0,0,3,-10,5,-25c0,0,2,-16,2,-38c0,0,0,-22,-2,-37c0,0,-2,-16,-5,-25c0,0,-4,-9,-10,-14c0,0,-5,-4,-12,-4H476V26c0,0,0,-7,-5,-13c0,0,-5,-6,-16,-10c0,0,-11,-3,-30,-5c0,0,-19,-2,-47,-2Z" 
id="f0_2t"
transform="scale(0.001,-0.001)" />

<path d="M514,145c0,0,72,0,121,27c0,0,48,26,78,73c0,0,30,46,42,107c0,0,13,62,13,131c0,0,0,76,-12,139c0,0,-12,62,-41,106c0,0,-29,45,-76,69c0,0,-48,24,-120,24c0,0,-72,0,-120,-27c0,0,-49,-27,-79,-73c0,0,-29,-45,-42,-106c0,0,-12,-61,-12,-129c0,0,0,-79,12,-142c0,0,12,-63,40,-108c0,0,28,-44,76,-68c0,0,48,-23,120,-23ZM508,-17c0,0,-113,0,-196,29c0,0,-84,29,-140,90c0,0,-56,60,-84,154c0,0,-28,93,-28,221c0,0,0,117,29,210c0,0,30,94,89,160c0,0,59,65,146,101c0,0,87,35,202,35c0,0,110,0,194,-29c0,0,84,-30,140,-90c0,0,56,-60,85,-153c0,0,29,-92,29,-217c0,0,0,-120,-30,-215c0,0,-30,-95,-89,-161C855,118,796,52,709,17c0,0,-87,-34,-201,-34Z" 
id="f0_24"
transform="scale(0.001,-0.001)" />

<path d="M299,0V777H162l36,173H508V0Z" 
id="f1_l"
transform="scale(0.001,-0.001)" />

<path d="M75,0L400,413c0,0,71,91,101,149c0,0,30,58,30,109c0,0,0,55,-36,91c0,0,-36,36,-91,36c0,0,-63,0,-91,-45c0,0,-28,-46,-34,-142H67c0,0,0,173,102,268c0,0,102,95,253,95c0,0,140,0,229,-82c0,0,89,-82,89,-209c0,0,0,-125,-104,-276L580,324c0,0,-34,-50,-85,-114L468,178H740V0Z" 
id="f1_m"
transform="scale(0.001,-0.001)" />

<path d="M44,-281L425,1053H537L156,-281Z" 
id="f1_j"
transform="scale(0.001,-0.001)" />

<path d="M186,-28L17,77L450,779H39V952H793L186,-28Z" 
id="f1_r"
transform="scale(0.001,-0.001)" />

<path d="M67,0V109L206,235c0,0,133,118,196,190c0,0,63,72,90,149c0,0,27,77,27,177c0,0,0,97,-44,148c0,0,-44,50,-144,50c0,0,-39,0,-81,-10c0,0,-42,-11,-74,-29L150,787H101V980c0,0,135,32,230,32c0,0,164,0,247,-68c0,0,82,-69,82,-193c0,0,0,-84,-32,-158c0,0,-33,-75,-100,-148c0,0,-67,-74,-222,-206c0,0,-67,-57,-141,-125H680V0Z" 
id="f2_m"
transform="scale(0.001,-0.001)" />

<path d="M377,45c0,0,99,0,145,108c0,0,46,109,46,352c0,0,0,240,-45,345c0,0,-46,106,-146,106c0,0,-97,0,-139,-100c0,0,-43,-99,-43,-351c0,0,0,-254,44,-357c0,0,43,-103,138,-103Zm0,-59c0,0,-158,0,-238,132c0,0,-81,133,-81,386c0,0,0,249,81,380c0,0,80,132,244,132c0,0,159,0,241,-130c0,0,82,-130,82,-382c0,0,0,-518,-329,-518Z" 
id="f2_k"
transform="scale(0.001,-0.001)" />

<path d="M134,0V40L339,60V876L137,804v39l292,166h39V60L672,40V0Z" 
id="f2_l"
transform="scale(0.001,-0.001)" />

<path d="M284,67c0,0,51,0,88,12c0,0,37,12,74,30V358l-98,-3c0,0,-100,-4,-135,-39c0,0,-35,-35,-35,-117c0,0,0,-132,106,-132ZM233,-14c0,0,-179,0,-179,208c0,0,0,70,27,116c0,0,27,46,87,70c0,0,60,24,173,27l105,3V519c0,0,0,72,-26,107c0,0,-27,34,-82,34c0,0,-75,0,-137,-35L176,538H134V691c0,0,121,26,213,26c0,0,115,0,169,-47c0,0,54,-47,54,-144V52L657,33V0H465L451,70c0,0,-85,-84,-218,-84Z" 
id="f2_1x"
transform="scale(0.001,-0.001)" />

<path d="M31,0V33L150,52v956L31,1026v34H274V52L394,33V0Z" 
id="f2_28"
transform="scale(0.001,-0.001)" />

<path d="M377,45c0,0,99,0,147,73c0,0,47,73,47,237c0,0,0,161,-47,233c0,0,-47,72,-147,72c0,0,-97,0,-141,-69c0,0,-44,-69,-44,-236c0,0,0,-169,45,-240c0,0,44,-70,140,-70Zm0,-59c0,0,-158,0,-238,94c0,0,-81,95,-81,274c0,0,0,178,81,272c0,0,80,94,244,94c0,0,160,0,241,-92c0,0,82,-92,82,-274c0,0,0,-368,-329,-368Z" 
id="f2_2b"
transform="scale(0.001,-0.001)" />

<path d="M439,0V33l93,19V500c0,0,0,62,-30,97c0,0,-31,36,-94,36c0,0,-67,0,-165,-22V52L338,33V0H35V33l84,19V649L35,668v33H235l7,-57c0,0,57,33,122,54c0,0,65,22,108,22c0,0,91,0,137,-53c0,0,47,-53,47,-154V52L741,33V0Z" 
id="f2_2a"
transform="scale(0.001,-0.001)" />

<path d="M359,-270c0,0,124,0,192,46c0,0,67,47,67,129c0,0,0,43,-26,67c0,0,-26,24,-79,24H242c0,0,-32,-27,-51,-69c0,0,-20,-41,-20,-77c0,0,0,-64,46,-92c0,0,46,-28,142,-28Zm11,561c0,0,81,0,115,47c0,0,34,47,34,141c0,0,0,100,-35,142c0,0,-35,42,-113,42c0,0,-78,0,-114,-43c0,0,-37,-42,-37,-141c0,0,0,-98,36,-143c0,0,36,-45,114,-45ZM359,-329c0,0,-143,0,-218,44c0,0,-75,43,-75,125c0,0,0,39,27,78c0,0,26,38,98,89c0,0,-43,14,-72,48c0,0,-29,35,-29,74L208,262c0,0,-118,55,-118,217c0,0,0,115,73,178c0,0,73,63,211,63c0,0,28,0,71,-6c0,0,44,-6,67,-13l165,83l26,-32L599,644c0,0,50,-56,50,-165c0,0,0,-120,-72,-182c0,0,-73,-62,-208,-62c0,0,-62,0,-114,11L208,148c0,0,2,-13,29,-24c0,0,27,-12,67,-12H512c0,0,113,0,168,-49c0,0,55,-49,55,-134c0,0,0,-79,-44,-137c0,0,-43,-58,-128,-90c0,0,-84,-31,-204,-31Z" 
id="f2_23"
transform="scale(0.001,-0.001)" />

<path d="M394,460c0,0,126,0,186,57c0,0,60,57,60,187c0,0,0,123,-57,176c0,0,-58,53,-194,53H316V460ZM54,0V40L172,60V941L44,960v40H421c0,0,368,0,368,-295c0,0,0,-153,-93,-233c0,0,-93,-80,-267,-80H316V60L475,40V0Z" 
id="f2_1g"
transform="scale(0.001,-0.001)" />

<path d="M529,65c0,0,183,0,270,108c0,0,87,108,87,334c0,0,0,210,-113,318c0,0,-113,108,-322,108H316V71c0,0,90,-6,213,-6Zm0,-67L172,0H44V40L172,60V941L44,960v40H498c0,0,277,0,411,-123c0,0,133,-124,133,-371c0,0,0,-251,-129,-380C913,126,785,-2,529,-2Z" 
id="f2_14"
transform="scale(0.001,-0.001)" />

<path d="M476,327V830h-4L114,327ZM476,0V220H30v99l488,686h86V327H740V220H604V0Z" 
id="f2_o"
transform="scale(0.001,-0.001)" />

<path d="M313,80c0,0,53,0,105,15c0,0,52,15,87,38l90,509c0,0,-76,20,-152,20c0,0,-74,0,-134,-54c0,0,-60,-54,-94,-149c0,0,-34,-95,-34,-203c0,0,0,-86,34,-131c0,0,34,-45,98,-45ZM421,-325l52,285c0,0,12,64,28,120C501,80,443,37,380,11c0,0,-64,-25,-119,-25c0,0,-102,0,-156,63c0,0,-54,63,-54,188c0,0,0,137,53,248c0,0,54,112,152,173c0,0,97,62,220,62c0,0,52,0,129,-10c0,0,76,-11,123,-22L554,-273l91,-17l-6,-35Z" 
id="f3_2d"
transform="scale(0.001,-0.001)" />

<path d="M-17,0l8,40L120,60L276,941L151,960l7,40H909L866,761H817l4,161c0,0,-81,11,-239,11H419L349,543H619l45,119h48L657,354H609l-1,121H338L266,67H463c0,0,190,0,254,12l75,185h49L780,0Z" 
id="f3_15"
transform="scale(0.001,-0.001)" />

<path d="M459,63c0,0,143,0,210,55c0,0,67,56,67,185c0,0,0,101,-66,146c0,0,-66,46,-190,46H341L266,67c0,0,114,-4,193,-4Zm18,499c0,0,144,0,206,49c0,0,61,48,61,170c0,0,0,77,-48,115c0,0,-48,37,-160,37H419L353,562ZM459,-4L173,0H14l8,40l99,20L277,941L151,960l8,40H570c0,0,330,0,330,-210c0,0,0,-105,-66,-174c0,0,-66,-69,-184,-85c0,0,115,-9,179,-69c0,0,63,-59,63,-157c0,0,0,-160,-108,-235C784,70,675,-4,459,-4Z" 
id="f3_12"
transform="scale(0.001,-0.001)" />

<path d="M457,460c0,0,289,0,289,266c0,0,0,106,-54,157c0,0,-54,50,-163,50H419L335,460ZM-7,0L0,40L120,60L276,941L151,960l7,40H559c0,0,161,0,248,-67c0,0,87,-66,87,-198c0,0,0,-167,-109,-255c0,0,-109,-88,-312,-88H323L264,60L427,40L420,0Z" 
id="f3_1g"
transform="scale(0.001,-0.001)" />

<path d="M355,0V355H0v72H355V784h72V427H782V355H427V0Z" 
id="f4_f"
transform="scale(0.001,-0.001)" />

<path d="M0,214v74H784V214ZM0,494v72H784V494Z" 
id="f4_x"
transform="scale(0.001,-0.001)" />

<path d="M140,-21c0,0,-26,0,-44,17C96,-4,79,13,79,40c0,0,0,19,6,33c0,0,8,20,34,55c0,0,46,60,64,126c0,0,32,114,41,321H190c0,0,-55,0,-81,-18c0,0,-44,-26,-80,-89H0c0,0,42,129,98,178c0,0,43,37,120,37H743V575H562c0,0,-27,-171,-27,-327c0,0,0,-77,27,-110c0,0,27,-33,67,-33c0,0,33,0,56,22c0,0,24,22,31,65h27C743,192,730,74,686,26c0,0,-44,-47,-98,-47c0,0,-58,0,-97,51c0,0,-39,53,-39,198c0,0,0,91,28,347H286c0,0,-23,-390,-56,-494c0,0,-33,-102,-90,-102Z" 
id="f4_2c"
transform="scale(0.001,-0.001)" />

<path d="M291,-21c0,0,-140,0,-216,60C75,39,0,101,0,176c0,0,0,54,40,102c0,0,41,49,147,88c0,0,-89,33,-118,70c0,0,-30,38,-30,89c0,0,0,69,58,116c0,0,79,63,208,63c0,0,77,0,138,-18c0,0,61,-18,83,-47c0,0,22,-28,22,-54c0,0,0,-23,-19,-42c0,0,-20,-19,-45,-19c0,0,-41,0,-68,53c0,0,-27,54,-45,66c0,0,-29,19,-72,19c0,0,-67,0,-106,-39c0,0,-40,-39,-40,-106c0,0,0,-66,33,-101c0,0,33,-35,90,-35c0,0,20,0,43,3c0,0,37,5,57,5c0,0,33,0,44,-8c0,0,12,-8,12,-19c0,0,0,-12,-10,-18c0,0,-13,-10,-47,-10c0,0,-8,0,-25,3c0,0,-39,5,-63,5c0,0,-63,0,-103,-41c0,0,-40,-41,-40,-108c0,0,0,-78,42,-121c0,0,41,-44,107,-44c0,0,53,0,86,32c0,0,20,19,41,78c0,0,14,39,23,47c0,0,24,24,51,24c0,0,31,0,53,-21c0,0,22,-22,22,-54c0,0,0,-51,-59,-95c0,0,-86,-60,-219,-60Z" 
id="f4_21"
transform="scale(0.001,-0.001)" />

<path d="M460,-325c0,0,-148,79,-231,172c0,0,-84,93,-123,217c0,0,-39,126,-39,304c0,0,0,178,39,303c0,0,39,125,122,217c0,0,82,93,232,172V997c0,0,-91,-52,-145,-134c0,0,-54,-81,-79,-190c0,0,-25,-109,-25,-305c0,0,0,-194,26,-309c0,0,26,-114,82,-193c0,0,56,-79,141,-128v-63Z" 
id="f2_c"
transform="scale(0.001,-0.001)" />

<path d="M49,-325v63c0,0,85,49,140,128c0,0,56,79,83,194c0,0,26,115,26,308c0,0,0,196,-25,305c0,0,-25,109,-79,190c0,0,-54,82,-145,134v63c0,0,149,-80,232,-172c0,0,83,-92,122,-217c0,0,39,-125,39,-303c0,0,0,-177,-39,-303c0,0,-39,-125,-122,-217c0,0,-83,-93,-232,-173Z" 
id="f2_d"
transform="scale(0.001,-0.001)" />

<path d="M62,0L176,649L88,668l6,33H301L278,543c0,0,55,84,124,130c0,0,69,47,138,47c0,0,37,0,59,-6L566,530H534l-28,95c0,0,-60,0,-124,-46c0,0,-63,-45,-116,-120L186,0Z" 
id="f3_2e"
transform="scale(0.001,-0.001)" />

<path d="M81,0L258,1008l-96,18l6,34H391L214,52L331,33L325,0Z" 
id="f3_28"
transform="scale(0.001,-0.001)" />

<path d="M44,0V40L172,60V941L44,960v40H794V760H745L721,922c0,0,-83,11,-241,11H316V543H586l23,119h48V354H609L586,475H316V67H513c0,0,193,0,252,12l43,185h49L843,0Z" 
id="f2_15"
transform="scale(0.001,-0.001)" />

<path d="M495,413c0,0,0,133,-34,190c0,0,-34,57,-105,57c0,0,-78,0,-119,-63c0,0,-42,-62,-42,-184ZM374,-14c0,0,-163,0,-239,87c0,0,-75,88,-75,283c0,0,0,183,77,273c0,0,76,91,219,91c0,0,269,0,269,-306V353H194V340c0,0,0,-103,23,-160c0,0,22,-57,70,-87c0,0,47,-29,124,-29c0,0,40,0,96,6c0,0,55,7,91,15V43C598,43,562,20,500,3c0,0,-61,-17,-126,-17Z" 
id="f2_21"
transform="scale(0.001,-0.001)" />

<path d="M399,-14c0,0,-341,0,-341,370c0,0,0,175,87,269c0,0,87,95,249,95c0,0,101,0,220,-23V501H573L541,625c0,0,-62,35,-149,35c0,0,-200,0,-200,-304c0,0,0,-158,61,-225c0,0,61,-67,189,-67c0,0,109,0,189,24V43C631,43,595,16,530,1c0,0,-64,-15,-131,-15Z" 
id="f2_1z"
transform="scale(0.001,-0.001)" />

<path d="M249,-14c0,0,-71,0,-107,42c0,0,-35,42,-35,119V639H15v33l93,29l76,159h47V701H391V639H231V161c0,0,0,-48,22,-73c0,0,22,-24,57,-24c0,0,44,0,106,12V26C416,26,389,8,340,-2c0,0,-49,-12,-91,-12Z" 
id="f2_2g"
transform="scale(0.001,-0.001)" />

<path d="M31,0V33l88,19V649L31,668v33H235l7,-87c0,0,44,37,121,71c0,0,76,35,121,35h11V530H463l-43,82c0,0,-37,0,-88,-10c0,0,-52,-10,-89,-26V52L363,33V0Z" 
id="f2_2e"
transform="scale(0.001,-0.001)" />

<path d="M32,0V33L151,52V649L52,668v33H275V52L395,33V0ZM201,850c0,0,-32,0,-56,24c0,0,-24,24,-24,56c0,0,0,34,24,58c0,0,24,24,56,24c0,0,34,0,58,-24c0,0,24,-24,24,-58c0,0,0,-32,-24,-56c0,0,-24,-24,-58,-24Z" 
id="f2_25"
transform="scale(0.001,-0.001)" />

<path d="M64,0V34L168,59V639H47v36l121,29v49c0,0,0,155,61,239c0,0,62,84,173,84c0,0,58,0,107,-15V908H472l-33,92c0,0,-26,16,-62,16c0,0,-47,0,-66,-42c0,0,-19,-42,-19,-157V701H478V639H292V59L443,34V0Z" 
id="f2_22"
transform="scale(0.001,-0.001)" />

<path d="M383,64c0,0,85,0,152,28V645c0,0,-67,13,-152,13c0,0,-194,0,-194,-314c0,0,0,-141,48,-211c0,0,48,-69,146,-69ZM342,-14c0,0,-287,0,-287,358c0,0,0,184,82,280c0,0,81,96,239,96c0,0,81,0,163,-18c0,0,-4,25,-4,124v182l-118,18v34H659V52L745,33V0H548l-9,52c0,0,-84,-66,-197,-66Z" 
id="f2_20"
transform="scale(0.001,-0.001)" />

<path d="M278,-14c0,0,-52,0,-115,11c0,0,-63,10,-99,23V193H98L134,95c0,0,56,-50,146,-50c0,0,144,0,144,123c0,0,0,91,-114,130l-66,21c0,0,-75,25,-110,50c0,0,-34,26,-53,63c0,0,-18,36,-18,89c0,0,0,92,63,145c0,0,63,54,170,54c0,0,77,0,193,-23V544H454l-32,81c0,0,-39,35,-124,35c0,0,-61,0,-92,-30c0,0,-32,-30,-32,-80c0,0,0,-43,29,-72c0,0,28,-29,86,-48c0,0,110,-38,144,-55c0,0,33,-17,57,-42c0,0,23,-25,36,-57c0,0,13,-32,13,-79c0,0,0,-104,-66,-158c0,0,-66,-53,-195,-53Z" 
id="f2_2f"
transform="scale(0.001,-0.001)" />

<path d="M148,-329c0,0,-58,0,-114,13v151H69l24,-71c0,0,23,-17,64,-17c0,0,39,0,72,22c0,0,33,23,60,67c0,0,27,44,68,157L90,649L19,668v33H344V668L233,648L423,158L606,649L497,668v33H758V668L685,652L411,-43c0,0,-48,-124,-84,-177c0,0,-36,-54,-79,-82c0,0,-44,-27,-100,-27Z" 
id="f2_2l"
transform="scale(0.001,-0.001)" />

<path d="M289,-14c0,0,-179,0,-179,205V649L20,668v33H233V200c0,0,0,-128,120,-128c0,0,92,0,173,23V649L420,668v33H649V52L738,33V0H533l-6,57C527,57,474,28,405,7c0,0,-69,-21,-116,-21Z" 
id="f2_2h"
transform="scale(0.001,-0.001)" />

<path d="M-12,338v55H777V338Z" 
id="f5_4y"
transform="scale(0.001,-0.001)" />

<path d="M383,64c0,0,44,0,87,7c0,0,43,7,65,17V645c0,0,-67,13,-152,13c0,0,-194,0,-194,-309c0,0,0,-143,48,-214c0,0,47,-71,146,-71Zm56,-389v35l96,18V-77c0,0,0,73,7,124c0,0,-79,-61,-200,-61c0,0,-287,0,-287,362c0,0,0,180,81,276c0,0,81,96,237,96c0,0,84,0,166,-18l67,33h53V-272l77,-18v-35Z" 
id="f2_2d"
transform="scale(0.001,-0.001)" />

<path d="M442,0V33l93,19V504c0,0,0,129,-124,129c0,0,-70,0,-168,-22V52L338,33V0H31V33l88,19v956L15,1026v34H243V756c0,0,0,-77,-5,-112c0,0,54,31,122,53c0,0,68,23,115,23c0,0,91,0,137,-53c0,0,47,-53,47,-154V52L744,33V0Z" 
id="f2_24"
transform="scale(0.001,-0.001)" />

<path d="M360,-14L72,649L0,668v33H327V668L216,648L420,164L615,649L504,668v33H764V668L697,652L416,-14Z" 
id="f2_2i"
transform="scale(0.001,-0.001)" />

<path d="M376,50c0,0,103,0,149,80c0,0,46,81,46,240c0,0,0,137,-47,204c0,0,-48,67,-148,67c0,0,-44,0,-87,-7c0,0,-44,-8,-63,-17V62c0,0,63,-12,150,-12Zm3,-64c0,0,-64,0,-141,14c0,0,-78,14,-136,37v971L0,1026v34H226V809c0,0,0,-40,-4,-148c0,0,74,59,188,59c0,0,143,0,219,-87c0,0,77,-87,77,-263c0,0,0,-189,-84,-287c0,0,-84,-97,-243,-97Z" 
id="f2_1y"
transform="scale(0.001,-0.001)" />

<path d="M412,-328c0,0,-195,96,-303,284C109,-44,0,142,0,365c0,0,0,232,114,422c0,0,114,191,298,273v-31c0,0,-92,-51,-151,-139c0,0,-59,-88,-88,-223c0,0,-29,-136,-29,-282c0,0,0,-167,27,-301c0,0,26,-133,82,-221c0,0,55,-89,159,-159v-32Z" 
id="f4_c"
transform="scale(0.001,-0.001)" />

<path d="M34,-328v32c0,0,92,50,151,138c0,0,59,88,88,222c0,0,29,135,29,283c0,0,0,165,-27,300c0,0,-26,134,-82,222c0,0,-56,89,-159,160v31c0,0,194,-96,303,-284c0,0,108,-187,108,-410c0,0,0,-232,-114,-422c0,0,-114,-191,-297,-272Z" 
id="f4_d"
transform="scale(0.001,-0.001)" />

<path d="M577,-14c0,0,-243,0,-379,132C198,118,63,250,63,488c0,0,0,258,130,391c0,0,131,132,387,132c0,0,156,0,335,-38l5,-218H871L848,884c0,0,-52,32,-121,50c0,0,-69,17,-141,17c0,0,-191,0,-279,-112c0,0,-88,-113,-88,-349c0,0,0,-217,92,-332c0,0,92,-115,268,-115c0,0,85,0,160,20c0,0,76,21,120,55l27,149h49L930,32c0,0,-164,-46,-353,-46Z" 
id="f2_13"
transform="scale(0.001,-0.001)" />

<path d="M681,416L504,902L333,416ZM669,0V40L803,60L704,348H310L210,60L344,40V0H15V40L128,60l341,949H611L965,60L1092,40V0Z" 
id="f2_11"
transform="scale(0.001,-0.001)" />

<path d="M0,356v74H784V356Z" 
id="f4_h"
transform="scale(0.001,-0.001)" />

<path d="M54,0V40L172,60V941L44,960v40H794V760H745L721,922c0,0,-83,11,-241,11H316V516H611l23,120h46V328H634L611,449H316V60L483,40V0Z" 
id="f2_16"
transform="scale(0.001,-0.001)" />

<path d="M431,0V33L535,52V499c0,0,0,62,-32,96c0,0,-32,33,-95,33c0,0,-66,0,-163,-22V52L350,33V0H32V33l89,19V649L32,668v33H237l6,-57c0,0,56,32,119,54c0,0,62,22,110,22c0,0,52,0,95,-20c0,0,44,-19,66,-62c0,0,57,32,134,57c0,0,77,25,128,25c0,0,179,0,179,-207V52l90,-19V0H846V33L950,52V499c0,0,0,129,-119,129c0,0,-19,0,-45,-3c0,0,-26,-3,-52,-7c0,0,-25,-4,-49,-8c0,0,-23,-5,-39,-8c0,0,13,-41,13,-89V52L764,33V0Z" 
id="f2_29"
transform="scale(0.001,-0.001)" />

<path d="M58,-234v58c0,0,131,42,131,125c0,0,0,15,-11,27c0,0,-11,12,-38,25C140,1,89,27,89,75c0,0,0,40,25,61c0,0,26,21,65,21c0,0,48,0,77,-34c0,0,30,-34,30,-86c0,0,0,-101,-60,-170c0,0,-59,-69,-168,-101Z" 
id="f2_g"
transform="scale(0.001,-0.001)" />

<path d="M235,0V40L394,60V936H356c0,0,-189,0,-258,-15L78,766H28v234H908V766H857L837,921c0,0,-22,5,-98,9c0,0,-75,4,-165,4H538V60L697,40V0Z" 
id="f2_1k"
transform="scale(0.001,-0.001)" />

<path d="M382,45c0,0,188,0,188,314c0,0,0,143,-47,213c0,0,-46,69,-141,69c0,0,-87,0,-146,-24V58c0,0,67,-13,146,-13ZM25,-325v35l88,18V649L34,668v33H231l1,-41c0,0,31,27,84,43c0,0,53,17,107,17c0,0,134,0,208,-94c0,0,73,-93,73,-267c0,0,0,-178,-80,-276c0,0,-80,-97,-232,-97c0,0,-84,0,-160,16c0,0,4,-53,4,-84V-272l123,-18v-35Z" 
id="f2_2c"
transform="scale(0.001,-0.001)" />

<path d="M191,-20c0,0,-39,0,-65,25c0,0,-25,27,-25,64c0,0,0,38,26,64c0,0,26,26,64,26c0,0,38,0,64,-26c0,0,26,-26,26,-64c0,0,0,-37,-25,-64c0,0,-26,-25,-65,-25Z" 
id="f2_i"
transform="scale(0.001,-0.001)" />

<path d="M83,0C83,0,48,0,24,24C24,24,0,49,0,83c0,0,0,34,24,58c0,0,24,24,59,24c0,0,34,0,58,-24c0,0,24,-24,24,-58c0,0,0,-34,-24,-59C141,24,117,0,83,0ZM695,0c0,0,-34,0,-58,24c0,0,-25,25,-25,59c0,0,0,34,25,58c0,0,24,24,58,24c0,0,34,0,58,-24c0,0,24,-24,24,-58c0,0,0,-34,-24,-59C753,24,729,0,695,0ZM388,594c0,0,-34,0,-59,23c0,0,-24,24,-24,59c0,0,0,34,24,58c0,0,25,25,59,25c0,0,34,0,58,-25c0,0,24,-24,24,-58c0,0,0,-35,-24,-59c0,0,-24,-23,-58,-23Z" 
id="f4_1s"
transform="scale(0.001,-0.001)" />

<path d="M338,28c0,0,48,0,91,45c0,0,43,45,65,144c0,0,22,99,26,276H143c0,0,3,-133,20,-239c0,0,13,-80,44,-140c0,0,19,-36,54,-61c0,0,36,-25,77,-25ZM522,543c0,0,-1,194,-37,312c0,0,-29,90,-76,129c0,0,-34,28,-79,28c0,0,-51,0,-93,-39c0,0,-43,-40,-65,-132c0,0,-22,-93,-29,-298ZM329,-21c0,0,-68,0,-124,31c0,0,-56,33,-99,95c0,0,-43,62,-66,131C40,236,0,356,0,489c0,0,0,294,119,453c0,0,91,119,217,119c0,0,122,0,209,-115c0,0,121,-160,121,-436c0,0,0,-263,-119,-415C547,95,455,-21,329,-21Z" 
id="f4_2d"
transform="scale(0.001,-0.001)" />

<path d="M52,62L0,114L278,390L0,667l52,52L330,442L608,719l51,-51L382,390L659,114L608,62L330,338L52,62Z" 
id="f4_3a"
transform="scale(0.001,-0.001)" />

<path d="M113,-203V1060H454v-35L232,994V-138l222,-30v-35Z" 
id="f2_1r"
transform="scale(0.001,-0.001)" />

<path d="M557,-14c0,0,-199,0,-298,89c0,0,-99,90,-99,255V941L32,960v40H432V960L304,941V341c0,0,0,-273,264,-273c0,0,144,0,220,68c0,0,77,68,77,202V941L730,960v40h341V960L943,941V344c0,0,0,-180,-99,-269c0,0,-99,-89,-287,-89Z" 
id="f2_1l"
transform="scale(0.001,-0.001)" />

<path d="M55,-203v35l222,30V994L55,1025v35H395V-203Z" 
id="f2_1t"
transform="scale(0.001,-0.001)" />

<path d="M350,-14c0,0,-142,0,-269,31L73,228h49L156,87c0,0,29,-16,82,-28c0,0,54,-12,100,-12c0,0,117,0,173,54c0,0,56,53,56,178c0,0,0,99,-52,150c0,0,-51,51,-159,56l-107,6v61l107,7c0,0,84,5,124,52c0,0,41,48,41,145c0,0,0,101,-44,147c0,0,-44,45,-139,45c0,0,-40,0,-83,-10c0,0,-43,-11,-76,-29L153,786H104V979c0,0,74,19,127,26c0,0,54,6,107,6c0,0,321,0,321,-246c0,0,0,-104,-57,-165c0,0,-57,-62,-162,-77c0,0,136,-16,200,-78c0,0,64,-62,64,-173c0,0,0,-135,-92,-211c0,0,-93,-75,-262,-75Z" 
id="f2_n"
transform="scale(0.001,-0.001)" />

<path d="M0,-14L351,1007h73L75,-14Z" 
id="f2_j"
transform="scale(0.001,-0.001)" />

<path d="M751,0L0,371v39L751,783V702L122,392L751,80V0Z" 
id="f4_w"
transform="scale(0.001,-0.001)" />


</defs>
</svg>