<?xml version="1.0" encoding="UTF-8" standalone="no"?>
<!DOCTYPE svg PUBLIC "-//W3C//DTD SVG 1.1//EN"
"http://www.w3.org/Graphics/SVG/1.1/DTD/svg11.dtd">
<svg viewBox="0 0 935 1210" version="1.1" xmlns="http://www.w3.org/2000/svg" xmlns:xlink="http://www.w3.org/1999/xlink">
<defs>
<style type="text/css"><![CDATA[
.g0_64{
fill: #FFFFFF;
}
.g1_64{
fill: none;
stroke: #000000;
stroke-width: 2.1388478;
stroke-linecap: butt;
stroke-linejoin: miter;
}
.g2_64{
fill: none;
stroke: #000000;
stroke-width: 1.5277486;
stroke-linecap: butt;
stroke-linejoin: miter;
}
.g3_64{
fill: none;
stroke: #000000;
stroke-width: 1.6028833;
stroke-linecap: butt;
stroke-linejoin: miter;
}
]]></style>
</defs>
<path fill-rule="evenodd" d="M52.8,78.5H876.7V49.3H52.8V78.5Z" class="g0_64" />
<g fill="#000000" >
<use xlink:href="#f0_3d" transform="matrix(12,0,0,12,55,73.5)" />
<use xlink:href="#f1_5" transform="matrix(12,0,0,12,82.5,73.5)" />
<use xlink:href="#f1_ae" transform="matrix(12,0,0,12,93.1,73.5)" />
<use xlink:href="#f1_ay" transform="matrix(12,0,0,12,107.8,73.5)" />
<use xlink:href="#f1_7z" transform="matrix(12,0,0,12,117.5,73.5)" />
<use xlink:href="#f1_b1" transform="matrix(12,0,0,12,126.6,73.5)" />
<use xlink:href="#f1_7z" transform="matrix(12,0,0,12,133.1,73.5)" />
<use xlink:href="#f1_oj" transform="matrix(12,0,0,12,142.1,73.5)" />
<use xlink:href="#f1_1x" transform="matrix(12,0,0,12,147.8,73.5)" />
<use xlink:href="#f1_77" transform="matrix(12,0,0,12,163.6,73.5)" />
<use xlink:href="#f1_cn" transform="matrix(12,0,0,12,172.3,73.5)" />
<use xlink:href="#f1_ci" transform="matrix(12,0,0,12,180.3,73.5)" />
<use xlink:href="#f1_7z" transform="matrix(12,0,0,12,193.3,73.5)" />
<use xlink:href="#f1_a8" transform="matrix(12,0,0,12,202.4,73.5)" />
<use xlink:href="#f1_a8" transform="matrix(12,0,0,12,206.6,73.5)" />
<use xlink:href="#f1_1r" transform="matrix(12,0,0,12,215.1,73.5)" />
<use xlink:href="#f1_77" transform="matrix(12,0,0,12,222.7,73.5)" />
<use xlink:href="#f1_ci" transform="matrix(12,0,0,12,231.5,73.5)" />
<use xlink:href="#f1_b5" transform="matrix(12,0,0,12,248.8,73.5)" />
<use xlink:href="#f1_bf" transform="matrix(12,0,0,12,255.7,73.5)" />
<use xlink:href="#f1_77" transform="matrix(12,0,0,12,261.8,73.5)" />
<use xlink:href="#f1_bf" transform="matrix(12,0,0,12,270.6,73.5)" />
<use xlink:href="#f1_7z" transform="matrix(12,0,0,12,276.8,73.5)" />
<use xlink:href="#f1_7v" transform="matrix(12,0,0,12,285.9,73.5)" />
<use xlink:href="#f1_bf" transform="matrix(12,0,0,12,299.7,73.5)" />
<use xlink:href="#f1_9n" transform="matrix(12,0,0,12,305.7,73.5)" />
<use xlink:href="#f1_77" transform="matrix(12,0,0,12,315.4,73.5)" />
<use xlink:href="#f1_bf" transform="matrix(12,0,0,12,324.2,73.5)" />
</g>
<path fill-rule="evenodd" d="M80.3,106.5H871V84.1H80.3v22.4Z" class="g0_64" />
<g fill="#000000" >
<use xlink:href="#f2_2b" transform="matrix(10,0,0,10,82.5,101.6)" />
<use xlink:href="#f3_un" transform="matrix(12,0,0,12,110,101.6)" />
<use xlink:href="#f3_7v" transform="matrix(12,0,0,12,116.8,101.6)" />
<use xlink:href="#f3_a8" transform="matrix(12,0,0,12,126.5,101.6)" />
<use xlink:href="#f3_ua" transform="matrix(12,0,0,12,134.8,101.6)" />
<use xlink:href="#f3_hy" transform="matrix(12,0,0,12,148.1,101.6)" />
<use xlink:href="#f1_rx" transform="matrix(8,0,0,8,158.2,103)" />
<use xlink:href="#f1_ov" transform="matrix(12,0,0,12,167.2,101.6)" />
<use xlink:href="#f1_1c" transform="matrix(12,0,0,12,172.7,101.6)" />
<use xlink:href="#f1_7l" transform="matrix(8,0,0,8,177.3,103)" />
<use xlink:href="#f1_u6" transform="matrix(12,0,0,12,186.7,101.6)" />
<use xlink:href="#f1_1c" transform="matrix(12,0,0,12,200,101.6)" />
<use xlink:href="#f1_7v" transform="matrix(8,0,0,8,204.6,103)" />
<use xlink:href="#f1_ow" transform="matrix(12,0,0,12,211,101.6)" />
</g>
<path fill-rule="evenodd" d="M80.3,128.9H871V106.5H80.3v22.4Z" class="g0_64" />
<g fill="#000000" >
<use xlink:href="#f2_2b" transform="matrix(10,0,0,10,82.5,123.9)" />
<use xlink:href="#f3_un" transform="matrix(12,0,0,12,110,123.9)" />
<use xlink:href="#f3_7v" transform="matrix(12,0,0,12,116.8,123.9)" />
<use xlink:href="#f3_a8" transform="matrix(12,0,0,12,126.5,123.9)" />
<use xlink:href="#f3_ua" transform="matrix(12,0,0,12,134.8,123.9)" />
<use xlink:href="#f3_hy" transform="matrix(12,0,0,12,148.1,123.9)" />
<use xlink:href="#f1_rx" transform="matrix(8,0,0,8,158.2,125.4)" />
<use xlink:href="#f1_1c" transform="matrix(12,0,0,12,167.2,123.9)" />
<use xlink:href="#f1_7l" transform="matrix(8,0,0,8,171.8,125.4)" />
<use xlink:href="#f3_u6" transform="matrix(12,0,0,12,181.2,123.9)" />
<use xlink:href="#f3_hy" transform="matrix(12,0,0,12,194.3,123.9)" />
<use xlink:href="#f1_rx" transform="matrix(8,0,0,8,204.4,125.4)" />
<use xlink:href="#f3_hl" transform="matrix(12,0,0,12,213.4,123.9)" />
<use xlink:href="#f1_rx" transform="matrix(8,0,0,8,221.9,125.4)" />
<use xlink:href="#f3_ov" transform="matrix(12,0,0,12,230.8,123.9)" />
<use xlink:href="#f3_7v" transform="matrix(12,0,0,12,236.4,123.9)" />
<use xlink:href="#f3_1n4" transform="matrix(12,0,0,12,250.1,123.9)" />
<use xlink:href="#f1_t" transform="matrix(8,0,0,8,262,125.4)" />
<use xlink:href="#f1_od" transform="matrix(12,0,0,12,267.9,123.9)" />
<use xlink:href="#f1_7v" transform="matrix(12,0,0,12,275,123.9)" />
<use xlink:href="#f1_bf" transform="matrix(12,0,0,12,284.5,123.9)" />
<use xlink:href="#f1_ow" transform="matrix(12,0,0,12,290.8,123.9)" />
</g>
<path fill-rule="evenodd" d="M80.3,157H871V128.9H80.3V157Z" class="g0_64" />
<g fill="#000000" >
<use xlink:href="#f2_2b" transform="matrix(10,0,0,10,82.5,152.2)" />
<use xlink:href="#f1_2t" transform="matrix(12,0,0,12,110,152.2)" />
<use xlink:href="#f1_9n" transform="matrix(12,0,0,12,119,152.2)" />
<use xlink:href="#f1_7z" transform="matrix(12,0,0,12,128.7,152.2)" />
<use xlink:href="#f1_77" transform="matrix(12,0,0,12,142.1,152.2)" />
<use xlink:href="#f1_7k" transform="matrix(12,0,0,12,150.7,152.2)" />
<use xlink:href="#f1_am" transform="matrix(12,0,0,12,160.4,152.2)" />
<use xlink:href="#f1_ch" transform="matrix(12,0,0,12,170.1,152.2)" />
<use xlink:href="#f1_7z" transform="matrix(12,0,0,12,178.3,152.2)" />
<use xlink:href="#f1_7z" transform="matrix(12,0,0,12,191.5,152.2)" />
<use xlink:href="#f1_cn" transform="matrix(12,0,0,12,200.7,152.2)" />
<use xlink:href="#f1_ay" transform="matrix(12,0,0,12,208.6,152.2)" />
<use xlink:href="#f1_b1" transform="matrix(12,0,0,12,218.3,152.2)" />
<use xlink:href="#f1_7z" transform="matrix(12,0,0,12,224.7,152.2)" />
<use xlink:href="#f1_b5" transform="matrix(12,0,0,12,233.9,152.2)" />
<use xlink:href="#f1_b5" transform="matrix(12,0,0,12,241,152.2)" />
<use xlink:href="#f1_9q" transform="matrix(12,0,0,12,248.2,152.2)" />
<use xlink:href="#f1_am" transform="matrix(12,0,0,12,252.4,152.2)" />
<use xlink:href="#f1_af" transform="matrix(12,0,0,12,261.9,152.2)" />
<use xlink:href="#f1_9q" transform="matrix(12,0,0,12,275.8,152.2)" />
<use xlink:href="#f1_b5" transform="matrix(12,0,0,12,280,152.2)" />
<use xlink:href="#f1_a5" transform="matrix(12,0,0,12,291,152.2)" />
<use xlink:href="#f1_af" transform="matrix(12,0,0,12,299.3,152.2)" />
<use xlink:href="#f1_am" transform="matrix(12,0,0,12,309,152.2)" />
<use xlink:href="#f1_ci" transform="matrix(12,0,0,12,318.6,152.2)" />
<use xlink:href="#f1_af" transform="matrix(12,0,0,12,331.7,152.2)" />
<use xlink:href="#f1_77" transform="matrix(12,0,0,12,345.6,152.2)" />
<use xlink:href="#f1_b5" transform="matrix(12,0,0,12,354.4,152.2)" />
<use xlink:href="#f1_1x" transform="matrix(12,0,0,12,365.8,152.2)" />
<use xlink:href="#f1_am" transform="matrix(12,0,0,12,381.3,152.2)" />
<use xlink:href="#f1_7v" transform="matrix(12,0,0,12,391,152.2)" />
<use xlink:href="#f1_9q" transform="matrix(12,0,0,12,400.7,152.2)" />
<use xlink:href="#f1_89" transform="matrix(12,0,0,12,404.8,152.2)" />
<use xlink:href="#f1_9q" transform="matrix(12,0,0,12,410.4,152.2)" />
<use xlink:href="#f1_7z" transform="matrix(12,0,0,12,414.7,152.2)" />
<use xlink:href="#f1_7v" transform="matrix(12,0,0,12,423.8,152.2)" />
<use xlink:href="#f1_1x" transform="matrix(12,0,0,12,437.6,152.2)" />
<use xlink:href="#f1_77" transform="matrix(12,0,0,12,453.3,152.2)" />
<use xlink:href="#f1_cn" transform="matrix(12,0,0,12,462.1,152.2)" />
<use xlink:href="#f1_ci" transform="matrix(12,0,0,12,469.8,152.2)" />
<use xlink:href="#f1_7z" transform="matrix(12,0,0,12,482.8,152.2)" />
<use xlink:href="#f1_a8" transform="matrix(12,0,0,12,492,152.2)" />
<use xlink:href="#f1_a8" transform="matrix(12,0,0,12,496.2,152.2)" />
<use xlink:href="#f1_1r" transform="matrix(12,0,0,12,504.6,152.2)" />
<use xlink:href="#f1_77" transform="matrix(12,0,0,12,512.3,152.2)" />
<use xlink:href="#f1_ci" transform="matrix(12,0,0,12,521.1,152.2)" />
<use xlink:href="#f4_p" transform="matrix(8,0,0,8,818.2,1187.9)" />
</g>
<path d="M418.8,351.9l5.8,428.8" class="g1_64" />
<path d="M325.9,707.3l100.4,72.8" class="g2_64" />
<path d="M425.8,780.6L508,702.5" class="g3_64" />
<defs>
<path d="M273,157c0,0,-114,0,-193,80C80,237,0,317,0,431c0,0,0,112,80,192c0,0,79,80,193,80c0,0,113,0,192,-80c0,0,80,-80,80,-192c0,0,0,-114,-80,-194c0,0,-79,-80,-192,-80Z" 
id="f0_3d"
transform="scale(0.001,-0.001)" />

<path d="M604,356L436,837h-1L269,356ZM87,-4c0,0,-22,0,-36,2C51,-2,37,0,32,4c0,0,-6,5,-6,15c0,0,1,10,7,27L357,943c0,0,3,8,7,13c0,0,5,6,15,9c0,0,9,3,23,4c0,0,15,1,37,1c0,0,24,0,40,-1c0,0,16,-1,25,-4c0,0,10,-3,15,-9c0,0,5,-5,8,-14L851,45c0,0,6,-16,7,-26c0,0,0,-10,-6,-16c0,0,-6,-4,-20,-5c0,0,-14,-2,-37,-2c0,0,-23,0,-37,1c0,0,-14,1,-21,3c0,0,-7,3,-10,7c0,0,-3,5,-6,11L638,253H236L157,21c0,0,-2,-6,-6,-11c0,0,-3,-5,-10,-9c0,0,-7,-2,-21,-3c0,0,-13,-2,-33,-2Z" 
id="f1_5"
transform="scale(0.001,-0.001)" />

<path d="M176,-4c0,0,-18,0,-30,2c0,0,-12,1,-19,3c0,0,-7,3,-10,7c0,0,-3,4,-3,10V690c0,0,0,6,3,10c0,0,2,4,9,7c0,0,6,4,17,5c0,0,10,1,27,1c0,0,17,0,28,-1c0,0,10,-1,16,-5c0,0,6,-3,9,-7c0,0,3,-4,3,-10V601c0,0,56,64,110,94c0,0,53,30,108,30c0,0,42,0,75,-10c0,0,33,-10,58,-28c0,0,26,-17,44,-42c0,0,18,-24,30,-55c0,0,33,37,63,63c0,0,31,26,59,41c0,0,28,16,54,23c0,0,27,8,53,8c0,0,65,0,109,-23c0,0,44,-23,71,-61c0,0,28,-38,39,-89c0,0,12,-52,12,-108V18c0,0,0,-6,-3,-10c0,0,-3,-4,-10,-7c0,0,-7,-2,-19,-3c0,0,-12,-2,-29,-2c0,0,-19,0,-31,2c0,0,-12,1,-19,3c0,0,-7,3,-10,7c0,0,-3,4,-3,10V427c0,0,0,43,-8,78c0,0,-7,35,-23,61c0,0,-17,25,-42,38c0,0,-25,14,-60,14c0,0,-42,0,-85,-33c0,0,-43,-33,-94,-96V18c0,0,0,-6,-3,-10c0,0,-3,-4,-11,-7c0,0,-7,-2,-19,-3c0,0,-11,-2,-29,-2c0,0,-18,0,-30,2c0,0,-12,1,-19,3c0,0,-7,3,-10,7c0,0,-3,4,-3,10V427c0,0,0,43,-8,78c0,0,-8,35,-24,61c0,0,-17,25,-42,38c0,0,-25,14,-59,14c0,0,-43,0,-86,-33c0,0,-44,-33,-95,-96V18c0,0,0,-6,-3,-10c0,0,-2,-4,-9,-7c0,0,-7,-2,-19,-3c0,0,-12,-2,-30,-2Z" 
id="f1_ae"
transform="scale(0.001,-0.001)" />

<path d="M429,92c0,0,47,0,80,22c0,0,33,23,54,60c0,0,20,38,30,84c0,0,10,46,10,93c0,0,0,52,-8,100c0,0,-8,48,-27,86c0,0,-19,37,-51,60c0,0,-32,22,-80,22c0,0,-24,0,-47,-7c0,0,-23,-7,-47,-23c0,0,-24,-15,-50,-40c0,0,-26,-25,-56,-62V220c0,0,51,-62,97,-95c0,0,45,-33,95,-33ZM176,-271c0,0,-18,0,-30,2c0,0,-12,1,-19,4c0,0,-7,3,-10,8c0,0,-3,4,-3,10V690c0,0,0,6,3,10c0,0,2,5,9,8c0,0,6,3,17,4c0,0,10,1,25,1c0,0,16,0,26,-1c0,0,10,-1,17,-4c0,0,6,-3,9,-7c0,0,3,-4,3,-11V601c0,0,30,31,59,54c0,0,28,23,57,39c0,0,28,15,59,23c0,0,30,8,63,8c0,0,74,0,125,-29c0,0,52,-28,84,-77c0,0,32,-50,47,-115c0,0,15,-65,15,-139c0,0,0,-88,-19,-158c0,0,-19,-70,-56,-119c0,0,-37,-49,-91,-75c0,0,-55,-26,-125,-26c0,0,-30,0,-55,6c0,0,-25,6,-50,18c0,0,-24,13,-48,32c0,0,-24,19,-51,46V-247c0,0,0,-6,-3,-10c0,0,-2,-5,-9,-8c0,0,-7,-3,-19,-4c0,0,-12,-2,-30,-2Z" 
id="f1_ay"
transform="scale(0.001,-0.001)" />

<path d="M564,420c0,0,2,98,-43,153c0,0,-46,56,-134,56c0,0,-46,0,-80,-18c0,0,-35,-17,-58,-45c0,0,-23,-29,-36,-67c0,0,-12,-37,-14,-79ZM405,-13c0,0,-83,0,-145,22c0,0,-62,24,-105,69c0,0,-42,46,-64,114c0,0,-22,69,-22,160c0,0,0,87,23,156c0,0,22,69,64,117c0,0,43,48,102,74c0,0,60,26,134,26c0,0,79,0,135,-26c0,0,55,-25,91,-68c0,0,36,-43,53,-101c0,0,16,-58,16,-123V384c0,0,0,-29,-14,-41c0,0,-15,-13,-33,-13H199c0,0,0,-56,11,-100c0,0,12,-45,38,-77c0,0,26,-33,68,-50c0,0,41,-17,102,-17c0,0,48,0,85,8c0,0,37,8,65,17c0,0,27,10,44,18c0,0,18,8,27,8c0,0,5,0,9,-3c0,0,4,-2,7,-8c0,0,2,-5,3,-14c0,0,1,-9,1,-23c0,0,0,-9,-1,-16c0,0,0,-8,-2,-13c0,0,-1,-6,-3,-10c0,0,-3,-5,-7,-9c0,0,-4,-4,-24,-13c0,0,-20,-10,-53,-18c0,0,-32,-9,-74,-16c0,0,-42,-7,-90,-7Z" 
id="f1_7z"
transform="scale(0.001,-0.001)" />

<path d="M176,-4c0,0,-18,0,-30,2c0,0,-12,1,-19,3c0,0,-7,3,-10,7c0,0,-3,4,-3,10V690c0,0,0,6,3,10c0,0,2,4,9,7c0,0,6,4,17,5c0,0,10,1,27,1c0,0,17,0,28,-1c0,0,10,-1,16,-5c0,0,6,-3,9,-7c0,0,3,-4,3,-10V592c0,0,27,41,51,66c0,0,25,26,46,41c0,0,22,14,43,20c0,0,21,6,43,6c0,0,10,0,22,-2c0,0,12,-1,26,-4c0,0,13,-3,24,-6c0,0,11,-4,15,-8c0,0,5,-4,6,-7c0,0,2,-3,3,-9c0,0,1,-5,1,-15c0,0,0,-10,0,-27c0,0,0,-16,0,-28c0,0,-1,-11,-3,-17c0,0,-2,-6,-6,-10c0,0,-3,-3,-9,-3c0,0,-6,0,-15,3c0,0,-8,4,-19,7c0,0,-11,3,-24,6c0,0,-14,3,-29,3c0,0,-19,0,-37,-7c0,0,-18,-8,-37,-25c0,0,-20,-18,-42,-46c0,0,-21,-29,-48,-70V18c0,0,0,-6,-3,-10c0,0,-2,-4,-9,-7c0,0,-7,-2,-19,-3c0,0,-12,-2,-30,-2Z" 
id="f1_b1"
transform="scale(0.001,-0.001)" />

<path d="M79,326c0,0,-14,0,-20,11c0,0,-7,12,-7,40c0,0,0,29,7,40c0,0,6,11,20,11H390c0,0,6,0,11,-2c0,0,5,-2,8,-9c0,0,4,-6,6,-16c0,0,2,-9,2,-24c0,0,0,-29,-7,-40c0,0,-7,-11,-20,-11Z" 
id="f1_oj"
transform="scale(0.001,-0.001)" />

<path d="M189,-4c0,0,-18,0,-30,2c0,0,-12,2,-19,3c0,0,-7,3,-9,8c0,0,-3,4,-3,10V907c0,0,0,31,16,45c0,0,17,13,37,13h78c0,0,24,0,41,-4c0,0,18,-5,32,-15c0,0,13,-9,22,-24c0,0,9,-15,16,-35L649,188h4L944,884c0,0,8,23,18,39c0,0,9,15,21,25c0,0,11,9,26,13c0,0,14,4,32,4h82c0,0,11,0,21,-3c0,0,10,-4,17,-11c0,0,7,-7,12,-18c0,0,4,-10,4,-26V19c0,0,0,-6,-3,-10c0,0,-3,-5,-10,-8c0,0,-8,-1,-19,-3c0,0,-12,-2,-30,-2c0,0,-18,0,-30,2c0,0,-12,2,-19,3c0,0,-7,3,-10,8c0,0,-3,4,-3,10V860h-2L707,15c0,0,-2,-5,-6,-9c0,0,-4,-3,-12,-6c0,0,-8,-2,-18,-3c0,0,-11,-1,-26,-1c0,0,-16,0,-27,2c0,0,-11,1,-19,3c0,0,-7,2,-11,6c0,0,-4,4,-6,8L253,860V19c0,0,0,-6,-3,-10c0,0,-3,-5,-11,-8c0,0,-7,-1,-19,-3c0,0,-12,-2,-31,-2Z" 
id="f1_1x"
transform="scale(0.001,-0.001)" />

<path d="M321,82c0,0,48,0,90,25c0,0,41,24,87,75V325H392c0,0,-50,0,-88,-9c0,0,-37,-9,-62,-25c0,0,-24,-17,-36,-41c0,0,-11,-23,-11,-54c0,0,0,-52,33,-83c0,0,33,-31,93,-31ZM301,-13c0,0,-53,0,-96,13c0,0,-43,14,-73,40c0,0,-30,26,-47,64c0,0,-17,38,-17,87c0,0,0,56,24,98c0,0,23,42,66,69c0,0,43,28,106,42c0,0,63,14,141,14h93v52c0,0,0,39,-9,69c0,0,-8,30,-26,50c0,0,-18,20,-47,30c0,0,-30,10,-72,10c0,0,-46,0,-82,-11c0,0,-36,-11,-63,-24c0,0,-27,-13,-46,-24c0,0,-18,-11,-27,-11c0,0,-6,0,-10,3c0,0,-5,3,-8,9c0,0,-3,6,-5,16c0,0,-1,9,-1,20c0,0,0,19,2,30c0,0,3,11,13,20c0,0,10,10,35,23c0,0,24,13,56,24c0,0,32,10,70,17c0,0,38,8,77,8c0,0,73,0,123,-17c0,0,51,-16,82,-48c0,0,32,-32,46,-79c0,0,14,-47,14,-110V18c0,0,0,-9,-6,-14c0,0,-6,-4,-16,-6c0,0,-11,-2,-31,-2c0,0,-19,0,-31,2c0,0,-12,2,-17,6c0,0,-5,5,-5,13V85c0,0,-44,-47,-98,-73c0,0,-54,-25,-115,-25Z" 
id="f1_77"
transform="scale(0.001,-0.001)" />

<path d="M92,-4c0,0,-22,0,-35,2C57,-2,43,0,37,3c0,0,-7,5,-6,12c0,0,0,7,7,17L247,360L49,675c0,0,-6,11,-6,18c0,0,-1,7,6,12c0,0,7,5,22,6c0,0,14,2,38,2c0,0,22,0,35,-1c0,0,13,-1,20,-4c0,0,8,-2,12,-6c0,0,3,-3,6,-9L335,443L490,693c0,0,3,5,7,9c0,0,4,3,10,6c0,0,7,3,18,4c0,0,12,1,32,1c0,0,21,0,35,-2c0,0,14,-1,21,-5c0,0,7,-4,6,-12c0,0,-1,-7,-8,-19L415,364L622,32c0,0,6,-10,6,-17c0,0,0,-7,-7,-12c0,0,-7,-3,-21,-5c0,0,-15,-2,-38,-2c0,0,-22,0,-35,1c0,0,-13,1,-21,3c0,0,-8,3,-12,7c0,0,-4,4,-7,9L326,282L165,16c0,0,-3,-5,-7,-9c0,0,-4,-4,-12,-7c0,0,-8,-2,-20,-3c0,0,-13,-1,-34,-1Z" 
id="f1_cn"
transform="scale(0.001,-0.001)" />

<path d="M324,-4c0,0,-23,0,-37,2c0,0,-15,1,-24,3c0,0,-9,3,-14,8c0,0,-4,6,-7,13L46,660c0,0,-4,11,-5,18c0,0,-2,8,-2,13c0,0,0,7,3,11c0,0,3,4,10,7c0,0,8,2,19,3c0,0,12,1,30,1c0,0,20,0,33,-1c0,0,13,-1,20,-4c0,0,6,-3,9,-8c0,0,3,-4,5,-11L330,136l2,-7l1,7L482,689c0,0,1,7,5,11c0,0,3,5,10,8c0,0,6,3,18,4c0,0,12,1,31,1c0,0,18,0,29,-1c0,0,12,-1,18,-4c0,0,7,-3,10,-7c0,0,3,-5,5,-11L768,136l1,-7l1,7L930,689c0,0,1,7,5,11c0,0,3,5,10,8c0,0,7,3,20,4c0,0,12,1,31,1c0,0,18,0,29,-1c0,0,11,-1,17,-4c0,0,6,-3,9,-6c0,0,3,-4,3,-11c0,0,0,-5,-2,-13c0,0,-1,-7,-5,-18L849,22c0,0,-2,-8,-7,-13c0,0,-5,-6,-13,-9c0,0,-9,-2,-24,-3c0,0,-15,-1,-37,-1c0,0,-23,0,-39,2c0,0,-15,1,-25,3c0,0,-9,3,-14,8c0,0,-4,6,-6,13L543,510l-2,6l-2,-6L409,22c0,0,-3,-8,-7,-13c0,0,-5,-6,-15,-9c0,0,-10,-2,-25,-3c0,0,-15,-1,-38,-1Z" 
id="f1_ci"
transform="scale(0.001,-0.001)" />

<path d="M176,-4c0,0,-18,0,-30,2c0,0,-12,1,-19,3c0,0,-7,3,-10,7c0,0,-3,4,-3,10v997c0,0,0,6,3,11c0,0,3,4,10,7c0,0,7,3,19,5c0,0,12,1,30,1c0,0,18,0,30,-1c0,0,12,-2,19,-5c0,0,7,-3,9,-7c0,0,3,-5,3,-11V18c0,0,0,-6,-3,-10c0,0,-2,-4,-9,-7c0,0,-7,-2,-19,-3c0,0,-12,-2,-30,-2Z" 
id="f1_a8"
transform="scale(0.001,-0.001)" />

<path d="M176,0c0,0,-17,0,-33,12c0,0,-15,11,-15,40V946c0,0,0,6,3,11c0,0,3,4,11,7c0,0,7,2,20,4c0,0,12,2,30,2c0,0,19,0,31,-2c0,0,13,-2,20,-4c0,0,7,-3,10,-7c0,0,3,-5,3,-11V111H603c0,0,6,0,11,-3c0,0,5,-3,8,-10c0,0,4,-6,5,-16c0,0,2,-11,2,-26c0,0,0,-15,-2,-25c0,0,-1,-10,-5,-17c0,0,-3,-7,-8,-11c0,0,-5,-3,-11,-3Z" 
id="f1_1r"
transform="scale(0.001,-0.001)" />

<path d="M272,-13c0,0,-35,0,-68,6c0,0,-32,6,-58,13c0,0,-26,9,-44,18c0,0,-17,10,-26,17c0,0,-8,8,-12,21c0,0,-3,14,-3,37c0,0,0,14,1,24c0,0,2,9,4,15c0,0,2,6,6,9c0,0,4,3,10,3c0,0,8,0,24,-11c0,0,16,-10,39,-22c0,0,24,-12,56,-22c0,0,32,-10,74,-10c0,0,31,0,56,7c0,0,26,6,44,19c0,0,19,14,29,34c0,0,10,20,10,47c0,0,0,29,-14,48c0,0,-15,19,-39,34c0,0,-24,15,-53,27c0,0,-30,11,-62,24c0,0,-32,13,-62,29c0,0,-30,16,-54,39c0,0,-24,23,-38,55c0,0,-15,32,-15,77c0,0,0,40,16,76c0,0,15,36,45,63c0,0,31,28,77,44c0,0,46,17,107,17c0,0,27,0,54,-5c0,0,26,-5,48,-11c0,0,22,-7,37,-15c0,0,15,-8,23,-14c0,0,8,-6,11,-11c0,0,2,-4,3,-10c0,0,1,-5,2,-14c0,0,2,-8,2,-20c0,0,0,-12,-2,-22c0,0,-1,-9,-3,-15c0,0,-3,-6,-7,-8c0,0,-3,-3,-8,-3c0,0,-7,0,-19,8c0,0,-13,8,-33,18c0,0,-20,9,-47,17c0,0,-28,9,-63,9c0,0,-31,0,-55,-7c0,0,-24,-7,-39,-20c0,0,-15,-13,-23,-31c0,0,-8,-18,-8,-39c0,0,0,-29,15,-49c0,0,15,-20,39,-35c0,0,24,-15,54,-27c0,0,31,-11,62,-24c0,0,32,-13,63,-29c0,0,31,-15,55,-38c0,0,24,-22,38,-53c0,0,15,-32,15,-75c0,0,0,-51,-19,-92c0,0,-19,-40,-54,-68C463,42,428,15,379,1c0,0,-48,-14,-107,-14Z" 
id="f1_b5"
transform="scale(0.001,-0.001)" />

<path d="M339,-13c0,0,-52,0,-90,13c0,0,-37,14,-61,42c0,0,-24,28,-34,71c0,0,-11,43,-11,101V607H49c0,0,-11,0,-18,12c0,0,-7,12,-7,39c0,0,0,14,2,24c0,0,2,10,5,16c0,0,3,7,8,9c0,0,5,3,11,3h93V870c0,0,0,5,2,9c0,0,3,5,10,8c0,0,7,4,19,5c0,0,12,2,30,2c0,0,19,0,31,-2c0,0,11,-1,18,-5c0,0,7,-3,10,-8c0,0,3,-4,3,-9V710H438c0,0,6,0,10,-3c0,0,5,-2,8,-9c0,0,4,-6,5,-16c0,0,1,-10,1,-24c0,0,0,-27,-6,-39c0,0,-7,-12,-18,-12H266V232c0,0,0,-69,20,-105c0,0,21,-35,74,-35c0,0,17,0,30,3c0,0,14,4,24,7c0,0,10,4,18,7c0,0,7,4,13,4c0,0,4,0,7,-2c0,0,4,-2,6,-7c0,0,2,-5,3,-14c0,0,1,-9,1,-23c0,0,0,-22,-2,-34c0,0,-3,-13,-9,-19c0,0,-6,-6,-18,-11c0,0,-12,-4,-28,-8c0,0,-15,-3,-32,-5c0,0,-17,-3,-34,-3Z" 
id="f1_bf"
transform="scale(0.001,-0.001)" />

<path d="M366,92c0,0,25,0,48,7c0,0,22,6,46,22c0,0,24,16,50,41c0,0,26,24,56,61V492c0,0,-51,62,-97,94c0,0,-47,33,-98,33c0,0,-47,0,-79,-22c0,0,-33,-23,-54,-59c0,0,-20,-37,-30,-83c0,0,-9,-47,-9,-94c0,0,0,-51,8,-100c0,0,8,-48,27,-86c0,0,19,-38,52,-60c0,0,32,-23,80,-23ZM345,-13c0,0,-74,0,-127,28c0,0,-52,29,-84,78c0,0,-33,49,-48,115c0,0,-15,66,-15,139c0,0,0,86,19,156c0,0,19,70,55,119c0,0,37,50,91,76c0,0,54,27,125,27c0,0,59,0,108,-26c0,0,49,-26,97,-76v390c0,0,0,5,2,10c0,0,3,4,10,7c0,0,8,3,19,5c0,0,12,1,30,1c0,0,18,0,30,-1c0,0,12,-2,19,-5c0,0,7,-3,10,-7c0,0,3,-5,3,-10V18c0,0,0,-6,-2,-10c0,0,-3,-5,-9,-7c0,0,-7,-2,-17,-3c0,0,-10,-2,-25,-2c0,0,-16,0,-26,2c0,0,-11,1,-18,3c0,0,-6,2,-9,7c0,0,-3,4,-3,10v90c0,0,-53,-58,-110,-90c0,0,-58,-31,-125,-31Z" 
id="f1_7v"
transform="scale(0.001,-0.001)" />

<path d="M176,-4c0,0,-18,0,-30,2c0,0,-12,1,-19,3c0,0,-7,3,-10,7c0,0,-3,4,-3,10v997c0,0,0,6,3,11c0,0,3,4,10,7c0,0,7,3,19,5c0,0,12,1,30,1c0,0,18,0,30,-1c0,0,12,-2,19,-5c0,0,7,-3,9,-7c0,0,3,-5,3,-10V614c0,0,53,56,107,83c0,0,54,28,108,28c0,0,67,0,113,-23c0,0,46,-23,74,-61c0,0,29,-38,41,-89c0,0,12,-52,12,-124V18c0,0,0,-6,-3,-10c0,0,-3,-4,-9,-7c0,0,-7,-2,-19,-3c0,0,-12,-2,-30,-2c0,0,-19,0,-30,2c0,0,-12,1,-19,3c0,0,-7,3,-10,7c0,0,-3,4,-3,10V412c0,0,0,58,-9,93c0,0,-9,35,-26,61c0,0,-17,25,-44,38c0,0,-27,14,-63,14c0,0,-46,0,-93,-33c0,0,-46,-33,-97,-96V18c0,0,0,-6,-3,-10c0,0,-2,-4,-9,-7c0,0,-7,-2,-19,-3c0,0,-12,-2,-30,-2Z" 
id="f1_9n"
transform="scale(0.001,-0.001)" />

<path d="M459,38c0,0,119,0,203,83c0,0,84,84,84,201c0,0,0,118,-84,201c0,0,-84,83,-203,83c0,0,-120,0,-204,-83c0,0,-84,-83,-84,-201c0,0,0,-116,84,-200c0,0,84,-84,204,-84Zm0,-61c0,0,-146,0,-248,100c0,0,-102,102,-102,245c0,0,0,143,102,245c0,0,102,102,248,102c0,0,145,0,247,-102c0,0,103,-101,103,-245c0,0,0,-143,-103,-245C706,77,604,-23,459,-23Z" 
id="f2_2b"
transform="scale(0.001,-0.001)" />

<path d="M126,-271c0,0,-17,0,-35,2c0,0,-17,2,-32,5c0,0,-15,3,-26,7c0,0,-11,4,-17,10c0,0,-6,6,-8,18c0,0,-3,13,-3,33c0,0,0,23,4,34c0,0,5,11,16,11c0,0,5,0,13,-3c0,0,7,-4,18,-7c0,0,12,-3,26,-7c0,0,14,-3,31,-3c0,0,42,0,65,33c0,0,22,34,22,107V761c0,0,0,58,11,101c0,0,11,43,35,72c0,0,24,29,62,44c0,0,37,14,92,14c0,0,18,0,34,-2c0,0,17,-2,32,-5c0,0,14,-4,25,-8c0,0,11,-5,16,-10c0,0,6,-6,9,-17c0,0,3,-11,3,-34c0,0,0,-13,-1,-21c0,0,-1,-9,-3,-15c0,0,-3,-5,-6,-7c0,0,-3,-2,-6,-2c0,0,-6,0,-15,3c0,0,-8,4,-20,8c0,0,-11,4,-25,7c0,0,-14,4,-31,4c0,0,-20,0,-36,-7c0,0,-16,-7,-27,-24c0,0,-12,-16,-19,-44c0,0,-6,-27,-6,-67V-40c0,0,0,-58,-11,-101c0,0,-11,-43,-35,-72c0,0,-23,-29,-61,-43c0,0,-37,-15,-91,-15Z" 
id="f3_un"
transform="scale(0.001,-0.001)" />

<path d="M366,92c0,0,25,0,48,7c0,0,22,6,46,22c0,0,24,16,50,41c0,0,26,24,56,61V492c0,0,-51,62,-97,94c0,0,-47,33,-98,33c0,0,-47,0,-79,-22c0,0,-33,-23,-54,-59c0,0,-20,-37,-30,-83c0,0,-9,-47,-9,-94c0,0,0,-51,8,-100c0,0,8,-48,27,-86c0,0,19,-38,52,-60c0,0,32,-23,80,-23ZM345,-13c0,0,-74,0,-127,28c0,0,-52,29,-84,78c0,0,-33,49,-48,115c0,0,-15,66,-15,139c0,0,0,86,19,156c0,0,19,70,55,119c0,0,37,50,91,76c0,0,54,27,125,27c0,0,59,0,108,-26c0,0,49,-26,97,-76v390c0,0,0,5,2,10c0,0,3,4,10,7c0,0,8,3,19,5c0,0,12,1,30,1c0,0,18,0,30,-1c0,0,12,-2,19,-5c0,0,7,-3,10,-7c0,0,3,-5,3,-10V18c0,0,0,-6,-2,-10c0,0,-3,-5,-9,-7c0,0,-7,-2,-17,-3c0,0,-10,-2,-25,-2c0,0,-16,0,-26,2c0,0,-11,1,-18,3c0,0,-6,2,-9,7c0,0,-3,4,-3,10v90c0,0,-53,-58,-110,-90c0,0,-58,-31,-125,-31Z" 
id="f3_7v"
transform="scale(0.001,-0.001)" />

<path d="M176,-4c0,0,-18,0,-30,2c0,0,-12,1,-19,3c0,0,-7,3,-10,7c0,0,-3,4,-3,10v997c0,0,0,6,3,11c0,0,3,4,10,7c0,0,7,3,19,5c0,0,12,1,30,1c0,0,18,0,30,-1c0,0,12,-2,19,-5c0,0,7,-3,9,-7c0,0,3,-5,3,-11V18c0,0,0,-6,-3,-10c0,0,-2,-4,-9,-7c0,0,-7,-2,-19,-3c0,0,-12,-2,-30,-2Z" 
id="f3_a8"
transform="scale(0.001,-0.001)" />

<path d="M98,233c0,0,-11,0,-19,11c0,0,-9,11,-9,41c0,0,0,28,8,41c0,0,7,12,20,12H662c0,0,13,0,21,-12c0,0,7,-13,7,-41c0,0,0,-30,-8,-41c0,0,-9,-11,-20,-11Zm0,289c0,0,-11,0,-19,12c0,0,-9,11,-9,41c0,0,0,27,8,40c0,0,7,13,20,13H662c0,0,13,0,21,-13c0,0,7,-13,7,-40c0,0,0,-30,-8,-41c0,0,-9,-12,-20,-12Z" 
id="f3_ua"
transform="scale(0.001,-0.001)" />

<path d="M176,-271c0,0,-18,0,-30,2c0,0,-12,1,-19,4c0,0,-7,3,-10,8c0,0,-3,4,-3,10V690c0,0,0,6,3,10c0,0,3,4,10,7c0,0,7,4,19,5c0,0,12,1,30,1c0,0,18,0,30,-1c0,0,12,-1,19,-5c0,0,7,-3,9,-7c0,0,3,-4,3,-10V268c0,0,0,-83,37,-129c0,0,37,-46,106,-46c0,0,47,0,93,32c0,0,45,33,97,96V690c0,0,0,6,3,10c0,0,3,4,10,7c0,0,6,4,18,5c0,0,12,1,31,1c0,0,18,0,30,-1c0,0,12,-1,18,-5c0,0,7,-3,10,-7c0,0,3,-4,3,-10V202c0,0,0,-30,3,-52c0,0,3,-21,10,-33c0,0,6,-13,18,-19c0,0,12,-6,29,-6c0,0,12,0,21,1c0,0,9,2,16,3c0,0,6,2,11,3c0,0,5,2,10,2c0,0,3,0,5,-2c0,0,3,-2,5,-6c0,0,2,-5,3,-13c0,0,0,-9,0,-23c0,0,0,-24,-2,-35c0,0,-3,-12,-8,-17c0,0,-5,-4,-13,-7c0,0,-8,-3,-20,-5c0,0,-12,-3,-24,-4c0,0,-12,-2,-27,-2c0,0,-63,0,-100,27c0,0,-38,27,-50,92c0,0,-54,-62,-108,-90c0,0,-54,-26,-106,-26c0,0,-43,0,-78,11c0,0,-35,12,-58,41c0,0,2,-16,3,-35c0,0,1,-18,2,-38c0,0,2,-20,2,-39c0,0,0,-20,0,-36V-247c0,0,0,-6,-3,-10c0,0,-2,-5,-9,-8c0,0,-7,-3,-19,-4c0,0,-12,-2,-30,-2Z" 
id="f3_hy"
transform="scale(0.001,-0.001)" />

<path d="M385,92c0,0,42,0,74,13c0,0,31,14,54,39c0,0,23,25,38,60c0,0,15,35,24,77c0,0,9,43,12,92c0,0,3,50,3,103c0,0,0,73,-5,130c0,0,-5,57,-15,101c0,0,-10,44,-26,76c0,0,-16,32,-39,52c0,0,-22,21,-51,30c0,0,-29,9,-64,9c0,0,-64,0,-103,-30c0,0,-40,-29,-63,-82c0,0,-23,-52,-31,-122c0,0,-8,-70,-8,-150c0,0,0,-108,11,-184c0,0,11,-76,36,-123c0,0,24,-48,62,-69c0,0,37,-22,91,-22ZM378,-13c0,0,-91,0,-154,32c0,0,-62,32,-100,95c0,0,-38,63,-54,155c0,0,-16,92,-16,212c0,0,0,110,18,202c0,0,18,92,58,158c0,0,40,66,106,103c0,0,66,36,161,36c0,0,92,0,154,-33c0,0,62,-32,100,-95c0,0,39,-63,55,-155c0,0,16,-92,16,-212c0,0,0,-111,-18,-203c0,0,-17,-91,-58,-157C646,125,605,59,540,22c0,0,-66,-35,-162,-35Z" 
id="f1_rx"
transform="scale(0.001,-0.001)" />

<path d="M321,-256c0,0,-13,0,-23,1c0,0,-10,0,-17,3c0,0,-7,2,-11,5c0,0,-5,3,-7,7c0,0,-40,76,-71,154c0,0,-31,78,-51,157c0,0,-21,81,-32,163c0,0,-10,83,-10,167c0,0,0,84,11,166c0,0,12,82,33,163c0,0,21,81,52,160c0,0,31,78,69,155c0,0,0,3,4,5c0,0,3,2,9,4c0,0,6,3,16,4c0,0,11,1,27,1c0,0,17,0,28,-2c0,0,10,-3,16,-6c0,0,6,-4,7,-10c0,0,1,-6,-2,-13c0,0,-71,-150,-106,-307c0,0,-34,-158,-34,-318c0,0,0,-160,35,-318c0,0,35,-156,103,-308c0,0,4,-9,4,-15c0,0,1,-6,-4,-10c0,0,-6,-4,-16,-6c0,0,-11,-2,-30,-2Z" 
id="f1_ov"
transform="scale(0.001,-0.001)" />

<path d="M192,-4c0,0,-18,0,-30,2c0,0,-13,2,-20,3c0,0,-8,3,-11,8c0,0,-3,4,-3,10V946c0,0,0,6,3,11c0,0,4,4,12,7c0,0,7,2,20,4c0,0,12,2,29,2c0,0,19,0,31,-2c0,0,13,-2,20,-4c0,0,7,-3,10,-7c0,0,3,-5,3,-11V19c0,0,0,-6,-3,-10c0,0,-3,-5,-10,-8c0,0,-7,-1,-20,-3c0,0,-12,-2,-31,-2Z" 
id="f1_1c"
transform="scale(0.001,-0.001)" />

<path d="M367,-13c0,0,-73,0,-129,23c0,0,-56,24,-93,70c0,0,-38,46,-58,112c0,0,-20,67,-20,154c0,0,0,99,25,171c0,0,24,71,66,116c0,0,42,46,99,68c0,0,58,22,124,22c0,0,32,0,62,-6c0,0,31,-6,56,-16c0,0,25,-10,45,-22c0,0,20,-13,29,-22c0,0,9,-9,12,-14c0,0,3,-5,6,-13c0,0,2,-7,3,-16c0,0,0,-9,0,-22c0,0,0,-29,-6,-41c0,0,-7,-11,-17,-11c0,0,-11,0,-25,12c0,0,-15,12,-37,27c0,0,-23,15,-55,28c0,0,-31,12,-75,12c0,0,-88,0,-136,-68c0,0,-47,-68,-47,-198c0,0,0,-65,12,-114c0,0,12,-49,36,-81c0,0,24,-33,59,-49c0,0,35,-16,79,-16c0,0,43,0,75,13c0,0,32,14,56,30c0,0,23,16,39,29c0,0,16,13,25,13c0,0,5,0,9,-3c0,0,4,-3,7,-10c0,0,2,-7,3,-18c0,0,1,-11,1,-26c0,0,0,-12,0,-22c0,0,-1,-9,-3,-15c0,0,-2,-7,-4,-12c0,0,-3,-4,-12,-14c0,0,-10,-9,-32,-23c0,0,-22,-14,-50,-24C496,11,468,0,435,-6c0,0,-33,-7,-68,-7Z" 
id="f1_7l"
transform="scale(0.001,-0.001)" />

<path d="M380,81c0,0,-14,0,-25,2c0,0,-11,2,-17,5c0,0,-7,3,-10,7c0,0,-3,4,-3,10V376H81c0,0,-7,0,-12,3c0,0,-5,3,-9,10c0,0,-3,7,-6,17c0,0,-2,10,-2,24c0,0,0,14,2,24c0,0,3,10,6,16c0,0,4,7,9,10c0,0,5,3,11,3H325V754c0,0,0,6,3,11c0,0,3,5,10,8c0,0,6,4,17,5c0,0,11,2,25,2c0,0,16,0,27,-2c0,0,10,-1,16,-5c0,0,7,-3,10,-8c0,0,3,-5,3,-11V483H681c0,0,6,0,11,-3c0,0,5,-3,9,-10c0,0,4,-6,6,-16c0,0,2,-10,2,-24c0,0,0,-14,-3,-24c0,0,-2,-10,-6,-17c0,0,-3,-7,-8,-10c0,0,-6,-3,-12,-3H436V105c0,0,0,-6,-3,-10c0,0,-3,-4,-10,-7c0,0,-6,-3,-16,-5c0,0,-11,-2,-27,-2Z" 
id="f1_u6"
transform="scale(0.001,-0.001)" />

<path d="M142,-256c0,0,-19,0,-30,2c0,0,-11,2,-16,6c0,0,-5,4,-4,10c0,0,0,6,4,15c0,0,69,151,104,308c0,0,35,158,35,318c0,0,0,160,-35,318c0,0,-35,157,-106,307c0,0,-3,7,-2,13c0,0,1,6,7,10c0,0,6,3,16,6c0,0,11,2,28,2c0,0,16,0,26,-1c0,0,10,-1,17,-4c0,0,6,-2,9,-4c0,0,3,-2,5,-5c0,0,76,-153,120,-315c0,0,44,-161,44,-329c0,0,0,-84,-11,-167c0,0,-10,-82,-31,-163c0,0,-21,-79,-51,-157c0,0,-30,-78,-71,-154c0,0,-2,-4,-6,-7c0,0,-5,-3,-12,-5c0,0,-7,-3,-17,-3c0,0,-9,-1,-23,-1Z" 
id="f1_ow"
transform="scale(0.001,-0.001)" />

<path d="M380,81c0,0,-14,0,-25,2c0,0,-11,2,-17,5c0,0,-7,3,-10,7c0,0,-3,4,-3,10V376H81c0,0,-7,0,-12,3c0,0,-5,3,-9,10c0,0,-3,7,-6,17c0,0,-2,10,-2,24c0,0,0,14,2,24c0,0,3,10,6,16c0,0,4,7,9,10c0,0,5,3,11,3H325V754c0,0,0,6,3,11c0,0,3,5,10,8c0,0,6,4,17,5c0,0,11,2,25,2c0,0,16,0,27,-2c0,0,10,-1,16,-5c0,0,7,-3,10,-8c0,0,3,-5,3,-11V483H681c0,0,6,0,11,-3c0,0,5,-3,9,-10c0,0,4,-6,6,-16c0,0,2,-10,2,-24c0,0,0,-14,-3,-24c0,0,-2,-10,-6,-17c0,0,-3,-7,-8,-10c0,0,-6,-3,-12,-3H436V105c0,0,0,-6,-3,-10c0,0,-3,-4,-10,-7c0,0,-6,-3,-16,-5c0,0,-11,-2,-27,-2Z" 
id="f3_u6"
transform="scale(0.001,-0.001)" />

<path d="M360,-13c0,0,-73,0,-129,15c0,0,-55,15,-92,43c0,0,-37,27,-55,65c0,0,-18,38,-18,84c0,0,0,31,10,59c0,0,10,29,28,52c0,0,18,23,45,41c0,0,26,17,58,28c0,0,-33,14,-55,29c0,0,-21,15,-35,34c0,0,-13,19,-19,40c0,0,-6,22,-6,48c0,0,0,43,18,79c0,0,18,37,54,64c0,0,36,27,88,42c0,0,52,15,118,15c0,0,37,0,74,-6c0,0,36,-6,68,-16c0,0,32,-9,54,-19c0,0,23,-10,30,-17c0,0,7,-6,9,-11c0,0,3,-5,4,-11c0,0,2,-6,3,-16c0,0,0,-9,0,-23c0,0,0,-12,-1,-22c0,0,-1,-9,-3,-15c0,0,-3,-5,-6,-8c0,0,-3,-3,-9,-3c0,0,-7,0,-25,11c0,0,-19,10,-47,23c0,0,-28,13,-67,23c0,0,-39,11,-87,11c0,0,-40,0,-68,-8c0,0,-28,-9,-47,-23c0,0,-18,-15,-27,-34c0,0,-9,-18,-9,-39c0,0,0,-24,12,-43c0,0,11,-20,32,-33c0,0,21,-14,49,-21c0,0,29,-7,65,-7H499c0,0,6,0,11,-3c0,0,4,-3,7,-8c0,0,3,-6,5,-15c0,0,2,-9,2,-21c0,0,0,-13,-2,-22c0,0,-2,-9,-5,-14c0,0,-3,-5,-7,-8c0,0,-5,-2,-12,-2H361c0,0,-43,0,-75,-9c0,0,-31,-9,-51,-25c0,0,-21,-16,-31,-37c0,0,-10,-22,-10,-49c0,0,0,-25,11,-47c0,0,11,-21,33,-37c0,0,23,-16,58,-24c0,0,35,-9,83,-9c0,0,45,0,85,9c0,0,39,10,67,21c0,0,28,12,46,22c0,0,18,10,24,10c0,0,5,0,9,-3c0,0,4,-3,6,-8c0,0,2,-6,3,-15c0,0,1,-9,1,-22c0,0,0,-12,-1,-21c0,0,-1,-9,-2,-15c0,0,-2,-6,-4,-11c0,0,-3,-4,-10,-10c0,0,-8,-6,-33,-17C570,28,545,16,510,7c0,0,-36,-9,-74,-14c0,0,-38,-6,-76,-6Z" 
id="f3_hl"
transform="scale(0.001,-0.001)" />

<path d="M321,-256c0,0,-13,0,-23,1c0,0,-10,0,-17,3c0,0,-7,2,-11,5c0,0,-5,3,-7,7c0,0,-40,76,-71,154c0,0,-31,78,-51,157c0,0,-21,81,-32,163c0,0,-10,83,-10,167c0,0,0,84,11,166c0,0,12,82,33,163c0,0,21,81,52,160c0,0,31,78,69,155c0,0,0,3,4,5c0,0,3,2,9,4c0,0,6,3,16,4c0,0,11,1,27,1c0,0,17,0,28,-2c0,0,10,-3,16,-6c0,0,6,-4,7,-10c0,0,1,-6,-2,-13c0,0,-71,-150,-106,-307c0,0,-34,-158,-34,-318c0,0,0,-160,35,-318c0,0,35,-156,103,-308c0,0,4,-9,4,-15c0,0,1,-6,-4,-10c0,0,-6,-4,-16,-6c0,0,-11,-2,-30,-2Z" 
id="f3_ov"
transform="scale(0.001,-0.001)" />

<path d="M437,87V622c0,0,-62,-5,-108,-23c0,0,-46,-19,-77,-51c0,0,-30,-33,-46,-80c0,0,-16,-47,-16,-110c0,0,0,-57,12,-105c0,0,12,-48,40,-83c0,0,29,-35,76,-57c0,0,48,-21,119,-26Zm122,0c0,0,60,5,106,23c0,0,47,18,78,50c0,0,31,32,46,79c0,0,16,47,16,112c0,0,0,57,-12,104c0,0,-12,48,-41,84c0,0,-28,35,-75,57c0,0,-47,22,-118,26V87ZM498,-271c0,0,-18,0,-30,2c0,0,-12,1,-19,4c0,0,-7,3,-10,8c0,0,-3,4,-3,10V-13c0,0,-95,5,-165,30c0,0,-70,26,-117,72c0,0,-46,46,-68,112c0,0,-23,65,-23,150c0,0,0,79,24,145c0,0,23,66,70,114c0,0,47,48,116,77c0,0,70,29,163,36v292c0,0,0,6,3,11c0,0,3,4,10,7c0,0,7,3,19,5c0,0,12,1,30,1c0,0,17,0,29,-1c0,0,12,-2,19,-5c0,0,7,-3,10,-7c0,0,3,-5,3,-11V723c0,0,94,-5,165,-31c0,0,70,-26,117,-72c0,0,46,-46,68,-111c0,0,23,-66,23,-150c0,0,0,-81,-24,-146c0,0,-23,-66,-70,-114C838,99,791,51,721,22c0,0,-70,-28,-162,-35V-247c0,0,0,-6,-3,-10c0,0,-3,-5,-10,-8c0,0,-7,-3,-19,-4c0,0,-12,-2,-29,-2Z" 
id="f3_1n4"
transform="scale(0.001,-0.001)" />

<path d="M176,0c0,0,-17,0,-33,12c0,0,-15,11,-15,40V913c0,0,0,29,15,41c0,0,16,11,33,11H635c0,0,6,0,10,-3c0,0,5,-3,8,-10c0,0,3,-6,5,-16c0,0,2,-10,2,-25c0,0,0,-14,-2,-24c0,0,-2,-10,-5,-16c0,0,-3,-7,-8,-10c0,0,-4,-2,-10,-2H256V555H581c0,0,6,0,11,-3c0,0,5,-3,8,-9c0,0,3,-6,5,-17c0,0,1,-10,1,-24c0,0,0,-14,-1,-23c0,0,-2,-10,-5,-16c0,0,-3,-6,-8,-9c0,0,-5,-2,-11,-2H256V107H640c0,0,6,0,11,-3c0,0,4,-3,8,-10c0,0,4,-6,5,-16c0,0,2,-10,2,-25c0,0,0,-14,-2,-24c0,0,-1,-10,-5,-16c0,0,-4,-7,-8,-10c0,0,-5,-3,-11,-3Z" 
id="f1_t"
transform="scale(0.001,-0.001)" />

<path d="M60,-208c0,0,-18,0,-31,2c0,0,-12,3,-19,8c0,0,-6,5,-8,12c0,0,-1,7,3,17L457,1067c0,0,3,10,7,16c0,0,5,5,12,8c0,0,7,4,19,5c0,0,11,1,26,1c0,0,19,0,31,-3c0,0,12,-2,19,-7c0,0,6,-4,8,-12c0,0,1,-7,-2,-17L125,-178c0,0,-3,-10,-7,-16c0,0,-5,-5,-13,-8c0,0,-7,-3,-18,-5c0,0,-11,-1,-27,-1Z" 
id="f1_od"
transform="scale(0.001,-0.001)" />

<path d="M372,-4c0,0,-18,0,-30,2c0,0,-13,2,-21,3c0,0,-7,3,-10,8c0,0,-3,4,-3,10V857H36c0,0,-6,0,-11,3c0,0,-5,2,-8,9c0,0,-2,6,-4,17c0,0,-2,10,-2,24c0,0,0,14,2,25c0,0,2,11,4,17c0,0,3,7,8,10c0,0,5,3,11,3H708c0,0,6,0,11,-3c0,0,5,-3,8,-10c0,0,4,-6,5,-17c0,0,2,-11,2,-25c0,0,0,-14,-2,-24c0,0,-1,-11,-5,-17c0,0,-3,-7,-8,-9c0,0,-5,-3,-11,-3H436V19c0,0,0,-6,-3,-10c0,0,-3,-5,-10,-8c0,0,-8,-1,-20,-3c0,0,-12,-2,-31,-2Z" 
id="f1_2t"
transform="scale(0.001,-0.001)" />

<path d="M431,92c0,0,46,0,79,22c0,0,33,23,53,60c0,0,21,37,30,83c0,0,10,46,10,93c0,0,0,51,-8,100c0,0,-8,49,-28,86c0,0,-19,37,-51,60c0,0,-32,23,-80,23c0,0,-24,0,-47,-7c0,0,-23,-7,-47,-22c0,0,-24,-16,-50,-41c0,0,-25,-24,-55,-62V219c0,0,51,-62,98,-95c0,0,46,-32,96,-32ZM443,-13c0,0,-32,0,-59,7c0,0,-27,6,-53,19c0,0,-26,14,-52,36c0,0,-27,22,-56,52V18c0,0,0,-6,-3,-10c0,0,-3,-5,-9,-7c0,0,-7,-2,-17,-3c0,0,-10,-2,-26,-2c0,0,-15,0,-25,2c0,0,-11,1,-17,3c0,0,-7,2,-9,7c0,0,-3,4,-3,10v997c0,0,0,6,3,11c0,0,3,4,10,7c0,0,7,3,19,5c0,0,12,1,30,1c0,0,18,0,30,-1c0,0,12,-2,19,-5c0,0,7,-3,9,-7c0,0,3,-5,3,-10V614c0,0,30,31,58,52c0,0,28,20,55,34c0,0,27,13,54,19c0,0,27,6,57,6c0,0,73,0,125,-30c0,0,52,-29,84,-78c0,0,32,-48,47,-114c0,0,15,-66,15,-139c0,0,0,-87,-19,-157c0,0,-19,-70,-56,-119c0,0,-37,-49,-90,-76c0,0,-54,-25,-124,-25Z" 
id="f1_7k"
transform="scale(0.001,-0.001)" />

<path d="M401,90c0,0,54,0,93,19c0,0,40,20,65,55c0,0,26,35,37,84c0,0,12,48,12,106c0,0,0,55,-10,104c0,0,-10,48,-33,85c0,0,-23,36,-62,58c0,0,-40,21,-99,21c0,0,-54,0,-93,-20c0,0,-39,-19,-65,-54c0,0,-25,-36,-37,-85c0,0,-12,-48,-12,-106c0,0,0,-55,10,-103c0,0,10,-49,33,-85c0,0,24,-36,63,-58c0,0,39,-21,98,-21ZM395,-13c0,0,-82,0,-144,24c0,0,-61,25,-102,72c0,0,-41,47,-61,114c0,0,-21,67,-21,152c0,0,0,82,22,151c0,0,21,69,64,119c0,0,43,50,107,78c0,0,64,28,150,28c0,0,82,0,144,-25c0,0,61,-25,102,-72c0,0,41,-47,62,-114c0,0,20,-67,20,-151c0,0,0,-83,-21,-152c0,0,-22,-69,-65,-119C652,92,609,42,545,14c0,0,-65,-27,-150,-27Z" 
id="f1_am"
transform="scale(0.001,-0.001)" />

<path d="M346,-4c0,0,-23,0,-38,2c0,0,-15,1,-24,3c0,0,-9,3,-15,8c0,0,-5,6,-8,13L33,660c0,0,-3,9,-5,15c0,0,-2,7,-2,11c0,0,0,3,0,5c0,0,0,6,3,11c0,0,3,4,10,7c0,0,7,2,18,3c0,0,12,1,29,1c0,0,22,0,35,-1c0,0,13,-1,20,-4c0,0,7,-3,10,-8c0,0,4,-4,7,-11L347,135l3,-9l2,9L540,689c0,0,1,7,5,11c0,0,3,5,11,8c0,0,7,3,19,4c0,0,12,1,32,1c0,0,18,0,29,-1c0,0,11,-1,17,-4c0,0,7,-3,9,-7c0,0,3,-4,3,-10c0,0,0,-3,-1,-6c0,0,0,-4,-1,-7c0,0,0,-4,-2,-8c0,0,-1,-5,-2,-10L430,22c0,0,-3,-8,-8,-13c0,0,-5,-6,-15,-9c0,0,-9,-2,-24,-3c0,0,-15,-1,-37,-1Z" 
id="f1_ch"
transform="scale(0.001,-0.001)" />

<path d="M176,-4c0,0,-18,0,-30,2c0,0,-12,1,-19,3c0,0,-7,3,-10,7c0,0,-3,4,-3,10V690c0,0,0,5,3,9c0,0,3,5,10,8c0,0,7,3,19,4c0,0,12,2,30,2c0,0,18,0,30,-2c0,0,12,-1,19,-4c0,0,7,-3,9,-8c0,0,3,-4,3,-9V18c0,0,0,-6,-3,-10c0,0,-2,-4,-9,-7c0,0,-7,-2,-19,-3c0,0,-12,-2,-30,-2Zm-1,846c0,0,-43,0,-59,15c0,0,-16,15,-16,58c0,0,0,43,16,59c0,0,17,16,61,16c0,0,43,0,59,-16c0,0,16,-15,16,-58c0,0,0,-43,-16,-58c0,0,-17,-16,-61,-16Z" 
id="f1_9q"
transform="scale(0.001,-0.001)" />

<path d="M176,-4c0,0,-18,0,-30,2c0,0,-12,1,-19,3c0,0,-7,3,-10,7c0,0,-3,4,-3,10V690c0,0,0,6,3,10c0,0,2,4,9,7c0,0,6,4,17,5c0,0,10,1,27,1c0,0,17,0,28,-1c0,0,10,-1,16,-5c0,0,6,-3,9,-7c0,0,3,-4,3,-10V601c0,0,56,64,112,94c0,0,57,30,114,30c0,0,67,0,113,-23c0,0,46,-23,74,-61c0,0,29,-38,41,-89c0,0,12,-52,12,-123V18c0,0,0,-6,-3,-10c0,0,-3,-4,-9,-7c0,0,-7,-2,-19,-3c0,0,-12,-2,-30,-2c0,0,-19,0,-30,2c0,0,-12,1,-19,3c0,0,-7,3,-10,7c0,0,-3,4,-3,10V412c0,0,0,58,-9,93c0,0,-9,35,-26,61c0,0,-17,25,-44,38c0,0,-27,14,-63,14c0,0,-46,0,-93,-33c0,0,-46,-33,-97,-96V18c0,0,0,-6,-3,-10c0,0,-2,-4,-9,-7c0,0,-7,-2,-19,-3c0,0,-12,-2,-30,-2Z" 
id="f1_af"
transform="scale(0.001,-0.001)" />

<path d="M176,-4c0,0,-18,0,-30,2c0,0,-12,1,-19,3c0,0,-7,3,-10,7c0,0,-3,4,-3,10v997c0,0,0,6,3,11c0,0,3,4,10,7c0,0,7,3,19,5c0,0,12,1,30,1c0,0,18,0,30,-1c0,0,12,-2,19,-5c0,0,7,-3,9,-7c0,0,3,-5,3,-11V408L492,687c0,0,6,7,12,12c0,0,7,5,16,8c0,0,10,4,22,5c0,0,13,1,31,1c0,0,19,0,31,-1c0,0,13,-1,21,-4c0,0,8,-3,11,-7c0,0,3,-4,3,-11c0,0,0,-9,-4,-18c0,0,-5,-8,-16,-20L375,408L648,54c0,0,10,-13,14,-20c0,0,4,-8,4,-15c0,0,0,-6,-3,-10c0,0,-3,-5,-10,-8c0,0,-7,-2,-20,-3c0,0,-13,-2,-32,-2c0,0,-20,0,-33,1c0,0,-13,1,-22,3c0,0,-9,3,-15,7c0,0,-5,5,-10,12L237,391V18c0,0,0,-6,-3,-10c0,0,-2,-4,-9,-7c0,0,-7,-2,-19,-3c0,0,-12,-2,-30,-2Z" 
id="f1_a5"
transform="scale(0.001,-0.001)" />

<path d="M209,-4c0,0,-18,0,-30,2c0,0,-12,1,-19,3c0,0,-7,3,-10,7c0,0,-3,4,-3,10V607H52c0,0,-12,0,-18,12c0,0,-6,12,-6,39c0,0,0,14,2,24c0,0,1,10,4,16c0,0,3,7,8,9c0,0,4,3,10,3h95v69c0,0,0,71,13,121c0,0,13,50,40,82c0,0,27,33,67,48c0,0,41,15,96,15c0,0,26,0,51,-5c0,0,25,-4,38,-10c0,0,13,-6,18,-10c0,0,4,-5,7,-12c0,0,3,-7,5,-17c0,0,1,-10,1,-24c0,0,0,-15,-2,-23c0,0,-1,-9,-3,-14c0,0,-2,-5,-5,-7c0,0,-3,-2,-8,-2c0,0,-5,0,-13,3c0,0,-7,4,-19,8c0,0,-11,4,-26,7c0,0,-15,4,-36,4c0,0,-27,0,-47,-9c0,0,-19,-9,-31,-28c0,0,-12,-19,-17,-50c0,0,-5,-30,-5,-73V710H421c0,0,6,0,10,-3c0,0,4,-2,7,-9c0,0,4,-6,6,-16c0,0,2,-10,2,-24c0,0,0,-27,-7,-39c0,0,-7,-12,-18,-12H271V18c0,0,0,-6,-3,-10c0,0,-3,-4,-11,-7c0,0,-7,-2,-19,-3c0,0,-12,-2,-29,-2Z" 
id="f1_89"
transform="scale(0.001,-0.001)" />

<path d="M415,-18c0,0,-149,0,-244,83c0,0,-94,84,-107,222l140,11c0,0,16,-103,73,-154c0,0,56,-52,137,-52c0,0,98,0,165,73c0,0,66,73,66,194c0,0,0,115,-64,182c0,0,-64,66,-169,66c0,0,-65,0,-117,-29c0,0,-52,-30,-82,-77L87,517l106,562H736V951H300L241,657c0,0,99,69,207,69c0,0,143,0,242,-100c0,0,98,-99,98,-255c0,0,0,-149,-86,-257C702,114,597,-18,415,-18Z" 
id="f4_p"
transform="scale(0.001,-0.001)" />


</defs>
</svg>