<?xml version="1.0" encoding="UTF-8" standalone="no"?>
<!DOCTYPE svg PUBLIC "-//W3C//DTD SVG 1.1//EN"
"http://www.w3.org/Graphics/SVG/1.1/DTD/svg11.dtd">
<svg viewBox="0 0 909 1286" version="1.1" xmlns="http://www.w3.org/2000/svg" xmlns:xlink="http://www.w3.org/1999/xlink">
<defs>
<clipPath id="c0_15"><path d="M411.8,639.6V627.5h8v12.1Z" /></clipPath>
<clipPath id="c1_15"><path d="M399.7,636.7V615.4h20.1v21.3Z" /></clipPath>
<clipPath id="c2_15"><path d="M795.3,639.6V627.5h8.4v12.1Z" /></clipPath>
<clipPath id="c3_15"><path d="M782.5,636.7V615.4h21.2v21.3Z" /></clipPath>
<clipPath id="c4_15"><path d="M790.9,671.5V659.4h8.4v12.1Z" /></clipPath>
<clipPath id="c5_15"><path d="M778.1,668.6V647.3h21.2v21.3Z" /></clipPath>
<clipPath id="c6_15"><path d="M594.7,866.6V845.7H616v20.9Z" /></clipPath>
<clipPath id="c7_15"><path d="M554.4,866.6V845.7H616v20.9Z" /></clipPath>
<clipPath id="c8_15"><path d="M583.7,866.6V845.7H616v20.9Z" /></clipPath>
<clipPath id="c9_15"><path d="M598.8,866.6V845.7H616v20.9Z" /></clipPath>
<clipPath id="c10_15"><path d="M569.1,866.2V843.8H616v22.4Z" /></clipPath>
<clipPath id="c11_15"><path d="M356.4,935.1V915.3h9.5v19.8Z" /></clipPath>
<clipPath id="c12_15"><path d="M391.6,935.1V915.3h9.5v19.8Z" /></clipPath>
<clipPath id="c13_15"><path d="M356.4,965.9V946.1h7.7v19.8Z" /></clipPath>
<clipPath id="c14_15"><path d="M391.6,965.9V946.1h7.7v19.8Z" /></clipPath>
<clipPath id="c15_15"><path d="M425.3,965.9V946.1H433v19.8Z" /></clipPath>
<clipPath id="c16_15"><path d="M346.9,1030.1v-21.6h.7v21.6Z" /></clipPath>
<clipPath id="c17_15"><path d="M382.1,1030.1v-21.6h.7v21.6Z" /></clipPath>
<clipPath id="c18_15"><path d="M415.8,1030.1v-21.6h.7v21.6Z" /></clipPath>
<clipPath id="c19_15"><path d="M504.5,1030.1v-21.6h.8v21.6Z" /></clipPath>
<style type="text/css"><![CDATA[
.g0_15{
fill: #FFFFFF;
}
.g1_15{
fill: #373435;
}
.g2_15{
fill: none;
stroke: #000000;
stroke-width: 0.73486114;
stroke-linecap: round;
stroke-linejoin: round;
}
.g3_15{
fill: none;
stroke: #000000;
stroke-width: 1.5308334;
stroke-linecap: round;
stroke-linejoin: round;
}
.g4_15{
fill: none;
stroke: #000000;
stroke-width: 0.36666667;
stroke-linecap: butt;
stroke-linejoin: miter;
stroke-miterlimit: 2;
}
.g5_15{
}
]]></style>
</defs>
<path fill-rule="evenodd" d="M279.7,577.6L310,573.8l1.1,9.8v9.5l-1.1,1l-1,1.8l-2.1,1.8h-2l-2.1,1h-3.3l-2,-1l-2.1,-1.8l-2.1,-2.8l-11.5,9.5l-1,-9.5l11.5,-8.8l-11.5,1l-1.1,-7.7Zm16.7,6v1.7l1.1,2.1l1,1.8l1,1h3.3l1.1,-1l1,-1.8v-4.9l-8.5,1.1Zm2.1,36.2l2,8.7l9.5,-6.6l1.1,-1.1h1l1,-1H298.5Zm-14.7,-7.7l32.7,1l3.1,10.5l-26.3,20.1l-2,-8.5l4.1,-2.8l-3.1,-12.6h-5.4l-3.1,-7.7ZM329,673.5l-2.3,.8l-3,1l-3.1,1l-3.1,-1l-3.4,-1l-3,-.8L309,670.7l-2.1,-2.1l-2,-3.8l-1,-2.9v-6.6l1,-2.9l2,-2.8l1.1,-3.1l3.1,-1.8l2,-1.8l3.4,-1h6.1l3.1,1l3.3,1.8l2.1,1.8l2.1,3.1l2,2.8l1,2.9v6.6l-1,3.9l-1,2.8l-2.1,2.1l-3.1,2.8ZM312.1,664l3.3,2.8l3.1,.8h3.1l3.1,-1.8l2,-2.8l2.3,-2.9v-3.8l-1,-2.8l-2.3,-2.1l-3.1,-1h-4.1l-3.1,1l-2.3,2.8l-2,2.9v3.8l1,3.1Zm31.6,45l18.7,-26l6.4,5.7l-19,25.9L343.7,709Zm20.8,15.2l14.9,-28.9l7.2,4.9L371.9,728l-7.4,-3.8Zm26.2,12.5l7.4,-23.1L392,710.8l3.1,-6.7l19.7,7.7l-2,6.7l-6.2,-2.1l-8.5,23.2l-7.4,-2.9Zm58.8,-1H458l-4.4,-10.5v-2.9l-1,-2v3.9l-1,1l-2.1,10.5Zm-11.6,11.6l9.5,-31.7H458l11.5,31.7h-8.4L459,741.4H447.4l-1,5.9h-8.5ZM494.7,709l2.1,9.5l-2.1,-2.1h-5.4l-3.1,1.1l-2,2.8l-1,3.9l1,2.8l1,3.8l2.1,2.1l3,.7h3.1l2.3,-.7l1.1,-1l2,-1.1l1,-2.8l2.1,9.5l-1,1l-2.1,2.1l-2,.8h-2.1l-2.3,1h-4.1l-2.1,-1l-4.1,-1.8l-2.3,-2.9l-3.1,-3.1l-1,-3.6l-1,-3.8v-3.1l1,-3.6l1,-3.1l2.1,-2.8l2.3,-1.8l2.1,-1l3,-1.8h8.5Zm22.9,10.5l7.4,-4.9l-7.4,-7.7h-1.1v-1l-1,-.8l-1,-1v1l1,.8v2l2.1,11.6Zm-5.2,15.2l-4.1,-33.4l8.2,-4.9l24.2,23.9l-7.2,3.9l-4.4,-4.7l-10.5,5.7l1.3,5.6l-7.5,3.9Zm37.8,-22.1L529.1,689.7l5.4,-4.9l4.1,-4.6l3.1,-2.1l3.3,-1.8h6.2l3.1,1.1l3.1,.7l3.3,3.1l2.1,3.6l1,3.1l1,3.8v3.6l-1,2.1l-1,2.8l-3.1,2.9l-3.4,3.8l-1,1l-5.1,4.7Zm2,-11.3l1.1,-1.1l2,-2.8l1,-3.8v-2.9l-2,-2.8l-3.1,-3.1l-3.1,-.8l-3.1,.8l-3.3,3.1l-1,.8l11.5,12.6Zm28.3,-20.1L555.3,663l11.6,-16.5l5.4,3.9l-6.5,9.7L570,663l6.4,-8.8l5.1,3.9l-6.2,8.7l4.1,3.9l6.5,-9.8l6.1,4.9l-11.5,15.4ZM613.1,618l-3.1,7.7l-13.6,-3.8h-1.3l-1,-1.1l-2.1,-1h-2l2,1l2.1,1.8l1,1l11.6,9.5l-2.1,4.9L590,637h-1l-3.1,-1h-2.1l2.1,1h1l2.1,1l1,1.1l11.5,7.4l-3,7L572.3,637l3,-7.7l16.7,1v1.1h4.4h-1.3l-1,-1.1l-1,-1l-1.1,-.8L579.4,618l3.1,-7.7l30.6,7.7Zm2.1,-21.1l-13.7,-2l-17.7,8.7l1.1,-9.5l8.2,-3.1l2,-.8h1.3l-1.3,-1h-1l-1,-1l-6.2,-4.6l1,-10.6l14.7,14.4l13.6,1.8l-1,7.7Z" class="g0_15" />
<image preserveAspectRatio="none" x="122" y="133" width="371" height="426" xlink:href="img/1.png" />
<g fill="#000000" >
<use xlink:href="#f0_1n" transform="matrix(12,0,0,12,122.1,631.2)" />
<use xlink:href="#f0_1x" transform="matrix(12,0,0,12,137.1,631.2)" />
<use xlink:href="#f0_2i" transform="matrix(12,0,0,12,145.2,631.2)" />
<use xlink:href="#f0_21" transform="matrix(12,0,0,12,153.7,631.2)" />
<use xlink:href="#f0_u" transform="matrix(12,0,0,12,165.1,631.2)" />
<use xlink:href="#f0_14" transform="matrix(12,0,0,12,173.5,631.2)" />
<use xlink:href="#f0_2h" transform="matrix(12,0,0,12,186.7,631.2)" />
<use xlink:href="#f0_2e" transform="matrix(12,0,0,12,195.6,631.2)" />
<use xlink:href="#f0_25" transform="matrix(12,0,0,12,201.4,631.2)" />
<use xlink:href="#f0_2a" transform="matrix(12,0,0,12,205.9,631.2)" />
<use xlink:href="#f0_23" transform="matrix(12,0,0,12,214.3,631.2)" />
<use xlink:href="#f0_2c" transform="matrix(12,0,0,12,226.8,631.2)" />
<use xlink:href="#f0_2b" transform="matrix(12,0,0,12,236,631.2)" />
<use xlink:href="#f0_2f" transform="matrix(12,0,0,12,245.1,631.2)" />
<use xlink:href="#f0_25" transform="matrix(12,0,0,12,252.1,631.2)" />
<use xlink:href="#f0_2g" transform="matrix(12,0,0,12,256.2,631.2)" />
<use xlink:href="#f0_25" transform="matrix(12,0,0,12,261.7,631.2)" />
<use xlink:href="#f0_2i" transform="matrix(12,0,0,12,265.7,631.2)" />
<use xlink:href="#f0_21" transform="matrix(12,0,0,12,274.2,631.2)" />
<use xlink:href="#f0_24" transform="matrix(12,0,0,12,285.2,631.2)" />
<use xlink:href="#f0_1x" transform="matrix(12,0,0,12,294,631.2)" />
<use xlink:href="#f0_28" transform="matrix(12,0,0,12,301.7,631.2)" />
<use xlink:href="#f0_22" transform="matrix(12,0,0,12,306.1,631.2)" />
<use xlink:href="#f0_1z" transform="matrix(12,0,0,12,315,631.2)" />
<use xlink:href="#f0_2l" transform="matrix(12,0,0,12,322.7,631.2)" />
<use xlink:href="#f0_1z" transform="matrix(12,0,0,12,330.8,631.2)" />
<use xlink:href="#f0_28" transform="matrix(12,0,0,12,338.9,631.2)" />
<use xlink:href="#f0_21" transform="matrix(12,0,0,12,342.9,631.2)" />
<use xlink:href="#f0_20" transform="matrix(12,0,0,12,354.3,631.2)" />
<use xlink:href="#f0_25" transform="matrix(12,0,0,12,363.5,631.2)" />
<use xlink:href="#f0_2b" transform="matrix(12,0,0,12,367.5,631.2)" />
<use xlink:href="#f0_20" transform="matrix(12,0,0,12,377.1,631.2)" />
<use xlink:href="#f0_21" transform="matrix(12,0,0,12,385.9,631.2)" />
</g>
<g clip-path="url(#c0_15)">
<g fill="#000000" >
<use xlink:href="#f0_l" transform="matrix(7.1,0,0,7.1,411.8,637)" />
</g>
</g>
<g clip-path="url(#c1_15)">
<g fill="#000000" >
<use xlink:href="#f1_14" transform="matrix(12.2,0,0,12.2,400,632.3)" />
</g>
</g>
<g fill="#000000" >
<use xlink:href="#f0_25" transform="matrix(12,0,0,12,422.8,631.2)" />
<use xlink:href="#f0_2f" transform="matrix(12,0,0,12,427.2,631.2)" />
<use xlink:href="#f0_22" transform="matrix(12,0,0,12,437.5,631.2)" />
<use xlink:href="#f0_2b" transform="matrix(12,0,0,12,442.7,631.2)" />
<use xlink:href="#f0_2e" transform="matrix(12,0,0,12,452.2,631.2)" />
<use xlink:href="#f0_2j" transform="matrix(12,0,0,12,458.1,631.2)" />
<use xlink:href="#f0_1x" transform="matrix(12,0,0,12,470.9,631.2)" />
<use xlink:href="#f0_2e" transform="matrix(12,0,0,12,479,631.2)" />
<use xlink:href="#f0_20" transform="matrix(12,0,0,12,484.9,631.2)" />
<use xlink:href="#f0_1y" transform="matrix(12,0,0,12,497,631.2)" />
<use xlink:href="#f0_25" transform="matrix(12,0,0,12,505.8,631.2)" />
<use xlink:href="#f0_1x" transform="matrix(12,0,0,12,509.9,631.2)" />
<use xlink:href="#f0_2f" transform="matrix(12,0,0,12,517.6,631.2)" />
<use xlink:href="#f0_1x" transform="matrix(12,0,0,12,527.9,631.2)" />
<use xlink:href="#f0_2a" transform="matrix(12,0,0,12,536,631.2)" />
<use xlink:href="#f0_20" transform="matrix(12,0,0,12,544.4,631.2)" />
<use xlink:href="#f0_20" transform="matrix(12,0,0,12,556.9,631.2)" />
<use xlink:href="#f0_2h" transform="matrix(12,0,0,12,565.7,631.2)" />
<use xlink:href="#f0_2e" transform="matrix(12,0,0,12,574.9,631.2)" />
<use xlink:href="#f0_25" transform="matrix(12,0,0,12,580.8,631.2)" />
<use xlink:href="#f0_2a" transform="matrix(12,0,0,12,585.2,631.2)" />
<use xlink:href="#f0_23" transform="matrix(12,0,0,12,593.6,631.2)" />
<use xlink:href="#f0_2a" transform="matrix(12,0,0,12,606.1,631.2)" />
<use xlink:href="#f0_21" transform="matrix(12,0,0,12,614.6,631.2)" />
<use xlink:href="#f0_23" transform="matrix(12,0,0,12,622.7,631.2)" />
<use xlink:href="#f0_1x" transform="matrix(12,0,0,12,631.5,631.2)" />
<use xlink:href="#f0_2g" transform="matrix(12,0,0,12,639.6,631.2)" />
<use xlink:href="#f0_25" transform="matrix(12,0,0,12,644.7,631.2)" />
<use xlink:href="#f0_2i" transform="matrix(12,0,0,12,648.8,631.2)" />
<use xlink:href="#f0_21" transform="matrix(12,0,0,12,657.6,631.2)" />
<use xlink:href="#f0_24" transform="matrix(12,0,0,12,669,631.2)" />
<use xlink:href="#f0_1x" transform="matrix(12,0,0,12,677.4,631.2)" />
<use xlink:href="#f0_28" transform="matrix(12,0,0,12,685.5,631.2)" />
<use xlink:href="#f0_22" transform="matrix(12,0,0,12,689.6,631.2)" />
<use xlink:href="#f0_1z" transform="matrix(12,0,0,12,698,631.2)" />
<use xlink:href="#f0_2l" transform="matrix(12,0,0,12,705.7,631.2)" />
<use xlink:href="#f0_1z" transform="matrix(12,0,0,12,714.2,631.2)" />
<use xlink:href="#f0_28" transform="matrix(12,0,0,12,721.9,631.2)" />
<use xlink:href="#f0_21" transform="matrix(12,0,0,12,726.3,631.2)" />
<use xlink:href="#f0_20" transform="matrix(12,0,0,12,737.4,631.2)" />
<use xlink:href="#f0_25" transform="matrix(12,0,0,12,746.5,631.2)" />
<use xlink:href="#f0_2b" transform="matrix(12,0,0,12,750.6,631.2)" />
<use xlink:href="#f0_20" transform="matrix(12,0,0,12,760.1,631.2)" />
<use xlink:href="#f0_21" transform="matrix(12,0,0,12,768.9,631.2)" />
</g>
<g clip-path="url(#c2_15)">
<g fill="#000000" >
<use xlink:href="#f0_m" transform="matrix(7.1,0,0,7.1,795.3,637)" />
</g>
</g>
<g clip-path="url(#c3_15)">
<g fill="#000000" >
<use xlink:href="#f1_14" transform="matrix(12.2,0,0,12.2,782.8,632.3)" />
</g>
</g>
<g fill="#000000" >
<use xlink:href="#f0_25" transform="matrix(12,0,0,12,806.7,631.2)" />
<use xlink:href="#f0_2f" transform="matrix(12,0,0,12,810.7,631.2)" />
</g>
<g clip-path="url(#c4_15)">
<g fill="#000000" >
<use xlink:href="#f0_m" transform="matrix(7.1,0,0,7.1,790.9,668.9)" />
</g>
</g>
<g clip-path="url(#c5_15)">
<g fill="#000000" >
<use xlink:href="#f1_14" transform="matrix(12.2,0,0,12.2,778.4,664.2)" />
</g>
</g>
<g fill="#000000" >
<use xlink:href="#f0_22" transform="matrix(12,0,0,12,121,663.1)" />
<use xlink:href="#f0_2b" transform="matrix(12,0,0,12,126.2,663.1)" />
<use xlink:href="#f0_2e" transform="matrix(12,0,0,12,135.7,663.1)" />
<use xlink:href="#f0_2j" transform="matrix(12,0,0,12,141.6,663.1)" />
<use xlink:href="#f0_1x" transform="matrix(12,0,0,12,154.8,663.1)" />
<use xlink:href="#f0_2e" transform="matrix(12,0,0,12,162.5,663.1)" />
<use xlink:href="#f0_20" transform="matrix(12,0,0,12,168.7,663.1)" />
<use xlink:href="#f0_1y" transform="matrix(12,0,0,12,181.2,663.1)" />
<use xlink:href="#f0_25" transform="matrix(12,0,0,12,189.7,663.1)" />
<use xlink:href="#f0_1x" transform="matrix(12,0,0,12,193.7,663.1)" />
<use xlink:href="#f0_2f" transform="matrix(12,0,0,12,201.8,663.1)" />
<use xlink:href="#f0_2f" transform="matrix(12,0,0,12,212.1,663.1)" />
<use xlink:href="#f0_2b" transform="matrix(12,0,0,12,218.7,663.1)" />
<use xlink:href="#f0_20" transform="matrix(12,0,0,12,231.2,663.1)" />
<use xlink:href="#f0_2h" transform="matrix(12,0,0,12,240.4,663.1)" />
<use xlink:href="#f0_21" transform="matrix(12,0,0,12,249.2,663.1)" />
<use xlink:href="#f0_2g" transform="matrix(12,0,0,12,260.6,663.1)" />
<use xlink:href="#f0_2b" transform="matrix(12,0,0,12,265.7,663.1)" />
<use xlink:href="#f0_1z" transform="matrix(12,0,0,12,278.6,663.1)" />
<use xlink:href="#f0_2b" transform="matrix(12,0,0,12,286.7,663.1)" />
<use xlink:href="#f0_2a" transform="matrix(12,0,0,12,295.8,663.1)" />
<use xlink:href="#f0_20" transform="matrix(12,0,0,12,304.3,663.1)" />
<use xlink:href="#f0_2h" transform="matrix(12,0,0,12,313.4,663.1)" />
<use xlink:href="#f0_1z" transform="matrix(12,0,0,12,322.2,663.1)" />
<use xlink:href="#f0_2g" transform="matrix(12,0,0,12,330.3,663.1)" />
<use xlink:href="#f0_25" transform="matrix(12,0,0,12,335.5,663.1)" />
<use xlink:href="#f0_2b" transform="matrix(12,0,0,12,339.9,663.1)" />
<use xlink:href="#f0_2a" transform="matrix(12,0,0,12,349,663.1)" />
<use xlink:href="#f0_2b" transform="matrix(12,0,0,12,361.2,663.1)" />
<use xlink:href="#f0_22" transform="matrix(12,0,0,12,370.3,663.1)" />
<use xlink:href="#f0_20" transform="matrix(12,0,0,12,378.8,663.1)" />
<use xlink:href="#f0_25" transform="matrix(12,0,0,12,388,663.1)" />
<use xlink:href="#f0_2b" transform="matrix(12,0,0,12,392,663.1)" />
<use xlink:href="#f0_20" transform="matrix(12,0,0,12,401.6,663.1)" />
<use xlink:href="#f0_21" transform="matrix(12,0,0,12,410.4,663.1)" />
<use xlink:href="#f0_14" transform="matrix(12,0,0,12,421.8,663.1)" />
<use xlink:href="#f0_2c" transform="matrix(12,0,0,12,438.3,663.1)" />
<use xlink:href="#f0_2b" transform="matrix(12,0,0,12,447.1,663.1)" />
<use xlink:href="#f0_2f" transform="matrix(12,0,0,12,456.6,663.1)" />
<use xlink:href="#f0_25" transform="matrix(12,0,0,12,463.3,663.1)" />
<use xlink:href="#f0_2g" transform="matrix(12,0,0,12,467.7,663.1)" />
<use xlink:href="#f0_25" transform="matrix(12,0,0,12,472.8,663.1)" />
<use xlink:href="#f0_2i" transform="matrix(12,0,0,12,477.2,663.1)" />
<use xlink:href="#f0_21" transform="matrix(12,0,0,12,485.7,663.1)" />
<use xlink:href="#f0_24" transform="matrix(12,0,0,12,497.1,663.1)" />
<use xlink:href="#f0_1x" transform="matrix(12,0,0,12,505.5,663.1)" />
<use xlink:href="#f0_28" transform="matrix(12,0,0,12,513.6,663.1)" />
<use xlink:href="#f0_22" transform="matrix(12,0,0,12,517.7,663.1)" />
<use xlink:href="#f0_2j" transform="matrix(12,0,0,12,526.5,663.1)" />
<use xlink:href="#f0_25" transform="matrix(12,0,0,12,539.7,663.1)" />
<use xlink:href="#f0_28" transform="matrix(12,0,0,12,543.8,663.1)" />
<use xlink:href="#f0_28" transform="matrix(12,0,0,12,547.8,663.1)" />
<use xlink:href="#f0_2h" transform="matrix(12,0,0,12,555.2,663.1)" />
<use xlink:href="#f0_2c" transform="matrix(12,0,0,12,564.3,663.1)" />
<use xlink:href="#f0_2c" transform="matrix(12,0,0,12,573.1,663.1)" />
<use xlink:href="#f0_21" transform="matrix(12,0,0,12,582.3,663.1)" />
<use xlink:href="#f0_2e" transform="matrix(12,0,0,12,590,663.1)" />
<use xlink:href="#f0_1x" transform="matrix(12,0,0,12,599.6,663.1)" />
<use xlink:href="#f0_2a" transform="matrix(12,0,0,12,607.3,663.1)" />
<use xlink:href="#f0_20" transform="matrix(12,0,0,12,616.1,663.1)" />
<use xlink:href="#f0_20" transform="matrix(12,0,0,12,628.6,663.1)" />
<use xlink:href="#f0_2h" transform="matrix(12,0,0,12,637.4,663.1)" />
<use xlink:href="#f0_21" transform="matrix(12,0,0,12,646.6,663.1)" />
<use xlink:href="#f0_2g" transform="matrix(12,0,0,12,657.6,663.1)" />
<use xlink:href="#f0_2b" transform="matrix(12,0,0,12,663.1,663.1)" />
<use xlink:href="#f0_1z" transform="matrix(12,0,0,12,675.6,663.1)" />
<use xlink:href="#f0_2b" transform="matrix(12,0,0,12,683.3,663.1)" />
<use xlink:href="#f0_2a" transform="matrix(12,0,0,12,692.8,663.1)" />
<use xlink:href="#f0_20" transform="matrix(12,0,0,12,701.3,663.1)" />
<use xlink:href="#f0_2h" transform="matrix(12,0,0,12,710.5,663.1)" />
<use xlink:href="#f0_1z" transform="matrix(12,0,0,12,719.3,663.1)" />
<use xlink:href="#f0_2g" transform="matrix(12,0,0,12,727,663.1)" />
<use xlink:href="#f0_25" transform="matrix(12,0,0,12,732.5,663.1)" />
<use xlink:href="#f0_2b" transform="matrix(12,0,0,12,736.5,663.1)" />
<use xlink:href="#f0_2a" transform="matrix(12,0,0,12,746.1,663.1)" />
<use xlink:href="#f0_2b" transform="matrix(12,0,0,12,758.2,663.1)" />
<use xlink:href="#f0_22" transform="matrix(12,0,0,12,767.4,663.1)" />
<use xlink:href="#f0_2a" transform="matrix(12,0,0,12,64.9,690)" />
<use xlink:href="#f0_21" transform="matrix(12,0,0,12,74.1,690)" />
<use xlink:href="#f0_23" transform="matrix(12,0,0,12,82.2,690)" />
<use xlink:href="#f0_1x" transform="matrix(12,0,0,12,91.4,690)" />
<use xlink:href="#f0_2g" transform="matrix(12,0,0,12,99.5,690)" />
<use xlink:href="#f0_25" transform="matrix(12,0,0,12,104.6,690)" />
<use xlink:href="#f0_2i" transform="matrix(12,0,0,12,109.7,690)" />
<use xlink:href="#f0_21" transform="matrix(12,0,0,12,118.9,690)" />
<use xlink:href="#f0_24" transform="matrix(12,0,0,12,130.2,690)" />
<use xlink:href="#f0_1x" transform="matrix(12,0,0,12,139.4,690)" />
<use xlink:href="#f0_28" transform="matrix(12,0,0,12,147.6,690)" />
<use xlink:href="#f0_22" transform="matrix(12,0,0,12,152.6,690)" />
<use xlink:href="#f0_1z" transform="matrix(12,0,0,12,161.5,690)" />
<use xlink:href="#f0_2l" transform="matrix(12,0,0,12,169.6,690)" />
<use xlink:href="#f0_1z" transform="matrix(12,0,0,12,177.7,690)" />
<use xlink:href="#f0_28" transform="matrix(12,0,0,12,185.8,690)" />
<use xlink:href="#f0_21" transform="matrix(12,0,0,12,190.9,690)" />
<use xlink:href="#f0_2j" transform="matrix(12,0,0,12,202,690)" />
<use xlink:href="#f0_25" transform="matrix(12,0,0,12,215.2,690)" />
<use xlink:href="#f0_28" transform="matrix(12,0,0,12,220.3,690)" />
<use xlink:href="#f0_28" transform="matrix(12,0,0,12,225.4,690)" />
<use xlink:href="#f0_1x" transform="matrix(12,0,0,12,233.1,690)" />
<use xlink:href="#f0_2c" transform="matrix(12,0,0,12,241.2,690)" />
<use xlink:href="#f0_2c" transform="matrix(12,0,0,12,250.4,690)" />
<use xlink:href="#f0_21" transform="matrix(12,0,0,12,259.6,690)" />
<use xlink:href="#f0_1x" transform="matrix(12,0,0,12,267.7,690)" />
<use xlink:href="#f0_2e" transform="matrix(12,0,0,12,275.9,690)" />
<use xlink:href="#f0_i" transform="matrix(12,0,0,12,285.4,690)" />
<use xlink:href="#f0_c" transform="matrix(12,0,0,12,117,758.4)" />
<use xlink:href="#f0_1y" transform="matrix(12,0,0,12,122.9,758.4)" />
<use xlink:href="#f0_d" transform="matrix(12,0,0,12,131.3,758.4)" />
<use xlink:href="#f0_17" transform="matrix(12,0,0,12,155.8,758.4)" />
<use xlink:href="#f0_25" transform="matrix(12,0,0,12,168.7,758.4)" />
<use xlink:href="#f0_2i" transform="matrix(12,0,0,12,173.1,758.4)" />
<use xlink:href="#f0_21" transform="matrix(12,0,0,12,181.5,758.4)" />
<use xlink:href="#f0_2g" transform="matrix(12,0,0,12,192.9,758.4)" />
<use xlink:href="#f0_24" transform="matrix(12,0,0,12,198.1,758.4)" />
<use xlink:href="#f0_21" transform="matrix(12,0,0,12,206.5,758.4)" />
<use xlink:href="#f0_2g" transform="matrix(12,0,0,12,217.9,758.4)" />
<use xlink:href="#f0_2e" transform="matrix(12,0,0,12,223.1,758.4)" />
<use xlink:href="#f0_2h" transform="matrix(12,0,0,12,229.3,758.4)" />
<use xlink:href="#f0_2g" transform="matrix(12,0,0,12,238.1,758.4)" />
<use xlink:href="#f0_24" transform="matrix(12,0,0,12,243.2,758.4)" />
<use xlink:href="#f0_2g" transform="matrix(12,0,0,12,255,758.4)" />
<use xlink:href="#f0_1x" transform="matrix(12,0,0,12,260.1,758.4)" />
<use xlink:href="#f0_1y" transform="matrix(12,0,0,12,268.2,758.4)" />
<use xlink:href="#f0_28" transform="matrix(12,0,0,12,276.7,758.4)" />
<use xlink:href="#f0_21" transform="matrix(12,0,0,12,280.7,758.4)" />
<use xlink:href="#f0_1x" transform="matrix(12,0,0,12,292.1,758.4)" />
<use xlink:href="#f0_2a" transform="matrix(12,0,0,12,299.8,758.4)" />
<use xlink:href="#f0_20" transform="matrix(12,0,0,12,308.6,758.4)" />
<use xlink:href="#f0_1z" transform="matrix(12,0,0,12,320.8,758.4)" />
<use xlink:href="#f0_25" transform="matrix(12,0,0,12,328.8,758.4)" />
<use xlink:href="#f0_2e" transform="matrix(12,0,0,12,332.9,758.4)" />
<use xlink:href="#f0_1z" transform="matrix(12,0,0,12,339.1,758.4)" />
<use xlink:href="#f0_2h" transform="matrix(12,0,0,12,346.8,758.4)" />
<use xlink:href="#f0_25" transform="matrix(12,0,0,12,355.7,758.4)" />
<use xlink:href="#f0_2g" transform="matrix(12,0,0,12,360.1,758.4)" />
<use xlink:href="#f0_2f" transform="matrix(12,0,0,12,368.5,758.4)" />
<use xlink:href="#f0_2l" transform="matrix(12,0,0,12,375.5,758.4)" />
<use xlink:href="#f0_29" transform="matrix(12,0,0,12,383.6,758.4)" />
<use xlink:href="#f0_1y" transform="matrix(12,0,0,12,396.8,758.4)" />
<use xlink:href="#f0_2b" transform="matrix(12,0,0,12,405.6,758.4)" />
<use xlink:href="#f0_28" transform="matrix(12,0,0,12,414.8,758.4)" />
<use xlink:href="#f0_22" transform="matrix(12,0,0,12,422.1,758.4)" />
<use xlink:href="#f0_2b" transform="matrix(12,0,0,12,427.3,758.4)" />
<use xlink:href="#f0_2e" transform="matrix(12,0,0,12,436.5,758.4)" />
<use xlink:href="#f0_1e" transform="matrix(12,0,0,12,446,758.4)" />
<use xlink:href="#f0_11" transform="matrix(12,0,0,12,458.9,758.4)" />
<use xlink:href="#f0_1e" transform="matrix(12,0,0,12,471.7,758.4)" />
<use xlink:href="#f0_14" transform="matrix(12,0,0,12,484.6,758.4)" />
<use xlink:href="#f0_23" transform="matrix(12,0,0,12,501.1,758.4)" />
<use xlink:href="#f0_1x" transform="matrix(12,0,0,12,509.9,758.4)" />
<use xlink:href="#f0_2g" transform="matrix(12,0,0,12,517.6,758.4)" />
<use xlink:href="#f0_21" transform="matrix(12,0,0,12,523.1,758.4)" />
<use xlink:href="#f0_i" transform="matrix(12,0,0,12,530.8,758.4)" />
<use xlink:href="#f0_11" transform="matrix(12,0,0,12,64.9,781.9)" />
<use xlink:href="#f0_2a" transform="matrix(12,0,0,12,77.4,781.9)" />
<use xlink:href="#f0_2f" transform="matrix(12,0,0,12,85.8,781.9)" />
<use xlink:href="#f0_i" transform="matrix(12,0,0,12,92.5,781.9)" />
<use xlink:href="#f0_c" transform="matrix(12,0,0,12,117,781.9)" />
<use xlink:href="#f0_1y" transform="matrix(12,0,0,12,122.9,781.9)" />
<use xlink:href="#f0_d" transform="matrix(12,0,0,12,131.3,781.9)" />
<use xlink:href="#f0_1e" transform="matrix(12,0,0,12,155.8,781.9)" />
<use xlink:href="#f0_11" transform="matrix(12,0,0,12,168.7,781.9)" />
<use xlink:href="#f0_1e" transform="matrix(12,0,0,12,181.5,781.9)" />
<use xlink:href="#f0_14" transform="matrix(12,0,0,12,194.4,781.9)" />
<use xlink:href="#f0_23" transform="matrix(12,0,0,12,210.9,781.9)" />
<use xlink:href="#f0_1x" transform="matrix(12,0,0,12,220.1,781.9)" />
<use xlink:href="#f0_2g" transform="matrix(12,0,0,12,227.8,781.9)" />
<use xlink:href="#f0_21" transform="matrix(12,0,0,12,233.3,781.9)" />
<use xlink:href="#f0_u" transform="matrix(12,0,0,12,244.7,781.9)" />
</g>
<path d="M377.4,910.9v-1.8l2.6,.4h8.4l2.6,-.4h5.1l2.6,-.4h2.6l2.2,-.4L406,908l2.2,-.4l2.2,-.4l2.2,-.3l2.2,-.4l2.2,-.7l2.2,-.4l2.3,-.4l1.8,-.7l1.8,-.7l2.2,-.4l1.9,-.7l1.8,-.8l1.8,-.7l1.9,-.8l1.4,-.7l1.9,-.7l1.4,-.8l1.9,-.7l1.4,-1.1l1.5,-.7l1.5,-1.1l1.1,-.8l1.4,-1.1l1.5,-.7l1.1,-1.1l1.5,-1.1l1.1,-1.1l1.1,-.7l1.1,-1.2l1.1,-1.1l.7,-1.1l1.1,-1.1l1.1,-1.1l.8,-1.1l.7,-1.1l.7,-1.5l.8,-1.1l.7,-1.1l.7,-1.1l.8,-1.1l.3,-1.4l.8,-1.1l.3,-1.1l.4,-1.5l.4,-1.1l.3,-1.1l.4,-1.5v-1.1l.4,-1.5v-1.1l.3,-1.4v-6.3l-.3,-1.1v-1.5l-.4,-1.1l-.4,-1.5v-1.1l-.3,-1.1l-.8,-1.4l-.3,-1.1l-.4,-1.5l-.7,-1.1l-.4,-1.1l-.7,-1.5l-.8,-1.1l-.7,-1.1l-.7,-1.5l-.8,-1.1l-.7,-1.1l-1.1,-1.1l-.7,-1.1l-1.1,-1.5L456,828.1L454.9,827l-1.1,-1.1l-1.1,-1.1l-1.1,-1.1l-1.5,-.7L449,821.9l-1.5,-1.1L446,819.7l-1.1,-.7l-1.4,-1.1l-1.8,-1.1l-1.5,-.8l-1.5,-1.1l-1.8,-.7l-1.5,-.8l-1.8,-1.1l-1.9,-.7l-1.8,-.7l-1.8,-.8l-2.2,-.7l-1.9,-.8l-1.8,-.7l-2.2,-.7l-2.2,-.4l-2.2,-.7l-2.2,-.4l-2.2,-.7l-2.2,-.4l-2.6,-.7l-2.2,-.4l-2.6,-.4l-2.5,-.3l-2.3,-.4l-2.5,-.4h-3l-2.5,-.3h-2.6l-2.9,-.4h-5.5v-1.5h8.4l2.9,.4l2.6,.4h2.6l2.5,.3l2.6,.4l2.6,.4l2.6,.3l2.2,.4l2.5,.7l2.2,.4l2.2,.7l2.2,.4l2.2,.7l2.3,.4l2.2,.7l1.8,.8l2.2,.7l1.8,.7l1.9,.8l2.2,.7l1.4,1.1l1.9,.8l1.8,.7l1.8,1.1l1.5,.7l1.8,1.1l1.5,.8l1.5,1.1l1.4,1.1l1.5,1.1l1.1,.7l1.5,1.1l1.5,1.1l1.1,1.1l1.1,1.1l1.1,1.1l1.1,1.5l1.1,1.1l1.1,1.1l1.1,1.1l.7,1.1l1.1,1.5l.7,1.1l.8,1.1l.7,1.5l.7,1.1l.8,1.5l.3,1.1l.8,1.4l.3,1.1l.4,1.5l.7,1.1l.4,1.5l.4,1.1v1.4l.3,1.5v1.1l.4,1.5v7.7l-.4,1.5v1.5l-.3,1.1l-.4,1.5l-.4,1.1l-.3,1.4l-.4,1.1l-.7,1.5l-.4,1.1l-.7,1.1l-.4,1.5l-.7,1.1l-.8,1.1l-.7,1.4l-.7,1.2l-1.1,1.1l-.8,1.1l-1.1,1.4l-.7,1.1l-1.1,1.1l-1.1,1.2l-1.1,1.1l-1.1,1.1l-1.5,.7l-1.1,1.1l-1.5,1.1l-1.1,1.1l-1.4,.7l-1.5,1.1l-1.5,.8l-1.4,1.1l-1.8,.7l-1.5,1.1l-1.5,.7l-1.8,.8l-1.9,.7l-1.8,.8l-1.8,.7l-1.9,.7l-1.8,.8l-1.8,.3l-2.2,.8l-1.9,.7l-2.2,.4l-2.2,.7l-2.2,.4l-2.2,.3l-2.2,.4l-2.2,.4l-2.6,.4l-2.2,.3l-2.5,.4h-2.6l-2.6,.4h-2.6l-2.5,.3H377.4Z" class="g1_15" />
<path d="M377,910.6V799.8h1.5V910.6H377Z" class="g1_15" />
<path d="M301.8,825.2h76v1.5h-76v-1.5Z" class="g1_15" />
<path d="M302.5,867.9h76v1.5h-76v-1.5Z" class="g1_15" />
<g fill="#373435" >
<use xlink:href="#f0_11" transform="matrix(12,0,0,12,286.4,831.7)" />
<use xlink:href="#f0_12" transform="matrix(12,0,0,12,289.3,876.5)" />
</g>
<path d="M546.3,853.9H480.5v-1.5h65.8v1.5Z" class="g1_15" />
<path d="M480.9,853.5h-1.8v-1.4l-.4,-.4v-.4l-.4,-.4v-.3l-.3,-.4l-.4,-.4h-.4l-.3,-.3h-.4l-.4,-.4h-1.4v-1.8l.7,.3h1.1l.4,.4h.7l.4,.4l.3,.3l.8,.4l.3,.4l.4,.7l.4,.4v.3l.3,.8v1.1l.4,.7Zm-6.2,5.9v-1.5h.3l.4,-.3h1.1l.4,-.4h.3l.4,-.4l.4,-.3l.3,-.4v-.4l.4,-.3V855l.4,-.4v-1.1h1.8l-.4,.4V855l-.3,.7v.4l-.4,.7l-.4,.4l-.3,.4l-.8,.3l-.3,.4l-.4,.4h-.7l-.4,.4h-.7l-.4,.3h-.7Zm-6.3,-5.9h1.5v.4l.4,.4v.7l.3,.4v.3l.4,.4l.4,.4l.3,.3l.4,.4h.4l.3,.4h.8l.7,.3h.4v1.5h-.8l-.3,-.3h-.8l-.7,-.4h-.4l-.3,-.4l-.8,-.4l-.3,-.3l-.4,-.4l-.4,-.4l-.3,-.7v-.4l-.4,-.7v-.4l-.4,-.7v-.4Zm6.3,-6.2v1.8h-1.5l-.4,.4h-.3l-.4,.3h-.4l-.3,.4l-.4,.4l-.4,.3v.4l-.3,.4v.7l-.4,.4v.7h-1.5v-.7l.4,-.7v-.4l.4,-.8v-.3l.3,-.4l.4,-.7l.4,-.4l.3,-.4l.8,-.3l.3,-.4h.4l.7,-.4h1.1l.8,-.3Z" class="g1_15" />
<path d="M583.7,844.7h26.8" class="g2_15" />
<g clip-path="url(#c6_15)">
<g fill="#000000" >
<use xlink:href="#f0_i" transform="matrix(12,0,0,12,594.7,862.2)" />
</g>
</g>
<g clip-path="url(#c7_15)">
<g fill="#000000" >
<use xlink:href="#f1_2l" transform="matrix(12,0,0,12,556.2,862.2)" />
</g>
</g>
<g clip-path="url(#c8_15)">
<g fill="#000000" >
<use xlink:href="#f1_11" transform="matrix(12,0,0,12,584.8,862.2)" />
</g>
</g>
<g clip-path="url(#c9_15)">
<g fill="#000000" >
<use xlink:href="#f1_12" transform="matrix(12,0,0,12,599.5,862.2)" />
</g>
</g>
<g clip-path="url(#c10_15)">
<g fill="#000000" >
<use xlink:href="#f2_x" transform="matrix(12,0,0,12,569.1,862.2)" />
</g>
</g>
<g clip-path="url(#c11_15)">
<g fill="#000000" >
<use xlink:href="#f3_5" transform="matrix(11,0,0,11,356.4,930.7)" />
</g>
</g>
<g clip-path="url(#c12_15)">
<g fill="#000000" >
<use xlink:href="#f3_i" transform="matrix(11,0,0,11,391.6,930.7)" />
</g>
</g>
<path d="M457.4,920h26" class="g3_15" />
<g fill="#000000" >
<use xlink:href="#f0_i" transform="matrix(12,0,0,12,468.2,937)" />
<use xlink:href="#f1_2l" transform="matrix(12,0,0,12,429.7,937)" />
<use xlink:href="#f1_11" transform="matrix(12,0,0,12,459,937)" />
<use xlink:href="#f1_12" transform="matrix(12,0,0,12,472.6,937)" />
<use xlink:href="#f2_x" transform="matrix(12,0,0,12,442.2,937)" />
</g>
<path d="M347,915.5h1.6M347,915.5h1.6M348.6,915.5h33.7M382.3,915.5H416m0,0h1.5M417.5,915.5h87.4" class="g4_15" />
<path d="M346.9,944.7h1.8V915.3h-1.8v29.4Z" class="g5_15" />
<path d="M347,915.5v29m35.3,-29v29" class="g4_15" />
<path d="M416.2,944.7h1.4V915.3h-1.4v29.4Z" class="g5_15" />
<path d="M416,915.5v29m88.9,-29v29" class="g4_15" />
<g clip-path="url(#c13_15)">
<g fill="#000000" >
<use xlink:href="#f3_rx" transform="matrix(11,0,0,11,356.4,961.5)" />
</g>
</g>
<g clip-path="url(#c14_15)">
<g fill="#000000" >
<use xlink:href="#f3_rx" transform="matrix(11,0,0,11,391.6,961.5)" />
</g>
</g>
<g clip-path="url(#c15_15)">
<g fill="#000000" >
<use xlink:href="#f3_ry" transform="matrix(11,0,0,11,425.3,961.5)" />
</g>
</g>
<path d="M347,944.5h1.6M348.6,944.5h33.7M382.3,944.5H416m0,0h1.5M417.5,944.5h87.4" class="g4_15" />
<path d="M346.9,965.9h1.8V944.7h-1.8v21.2Z" class="g5_15" />
<path d="M347,944.5v21.4m35.3,-21.4v21.4" class="g4_15" />
<path d="M416.2,965.9h1.4V944.7h-1.4v21.2Z" class="g5_15" />
<path d="M416,944.5v21.4m88.9,-21.4v21.4" class="g4_15" />
<g fill="#000000" >
<use xlink:href="#f3_rx" transform="matrix(11,0,0,11,356.4,982.8)" />
<use xlink:href="#f3_ry" transform="matrix(11,0,0,11,391.6,982.8)" />
<use xlink:href="#f3_ry" transform="matrix(11,0,0,11,425.3,982.8)" />
</g>
<path d="M347,965.9h1.6M348.6,965.9h33.7M382.3,965.9H416m0,0h1.5M417.5,965.9h87.4" class="g4_15" />
<path d="M346.9,987.6h1.8V965.9h-1.8v21.7Z" class="g5_15" />
<path d="M347,965.9v21.5m35.3,-21.5v21.5" class="g4_15" />
<path d="M416.2,987.6h1.4V965.9h-1.4v21.7Z" class="g5_15" />
<path d="M416,965.9v21.5m88.9,-21.5v21.5" class="g4_15" />
<g fill="#000000" >
<use xlink:href="#f3_ry" transform="matrix(11,0,0,11,356.4,1004.1)" />
<use xlink:href="#f3_rx" transform="matrix(11,0,0,11,391.6,1004.1)" />
<use xlink:href="#f3_ry" transform="matrix(11,0,0,11,425.3,1004.1)" />
</g>
<path d="M347,987.4h1.6M348.6,987.4h33.7M382.3,987.4H416m0,0h1.5M417.5,987.4h87.4" class="g4_15" />
<path d="M346.9,1008.8h1.8V987.6h-1.8v21.2Z" class="g5_15" />
<path d="M347,987.4v21.4m35.3,-21.4v21.4" class="g4_15" />
<path d="M416.2,1008.8h1.4V987.6h-1.4v21.2Z" class="g5_15" />
<path d="M416,987.4v21.4m88.9,-21.4v21.4" class="g4_15" />
<g fill="#000000" >
<use xlink:href="#f3_ry" transform="matrix(11,0,0,11,356.4,1025.7)" />
<use xlink:href="#f3_ry" transform="matrix(11,0,0,11,391.6,1025.7)" />
<use xlink:href="#f3_rx" transform="matrix(11,0,0,11,425.3,1025.7)" />
</g>
<path d="M347,1008.8h1.6M348.6,1008.8h33.7M382.3,1008.8H416m0,0h1.5M417.5,1008.8h87.4" class="g4_15" />
<path d="M346.9,1030.1h1.8v-21.3h-1.8v21.3Z" class="g5_15" />
<g clip-path="url(#c16_15)">
<path d="M347,1008.8v21.4" class="g4_15" />
</g>
<g clip-path="url(#c17_15)">
<path d="M382.3,1008.8v21.4" class="g4_15" />
</g>
<path d="M416.2,1030.1h1.4v-21.3h-1.4v21.3Z" class="g5_15" />
<g clip-path="url(#c18_15)">
<path d="M416,1008.8v21.4" class="g4_15" />
</g>
<g clip-path="url(#c19_15)">
<path d="M504.9,1008.8v21.4" class="g4_15" />
</g>
<g fill="#000000" >
<use xlink:href="#f4_l" transform="matrix(8,0,0,8,785.4,1264.3)" />
<use xlink:href="#f4_p" transform="matrix(8,0,0,8,792.2,1264.3)" />
</g>
<defs>
<path d="M474,-21L174,817c0,0,-34,94,-42,112c0,0,-15,28,-41,42c0,0,-26,14,-70,14v27H395V985H377c0,0,-40,0,-60,-18c0,0,-21,-18,-21,-44c0,0,0,-26,33,-120L528,235L696,718l-30,85l-24,68c0,0,-16,37,-35,66c0,0,-10,14,-24,24c0,0,-19,13,-38,19c0,0,-14,5,-44,5v27H894V985H867c0,0,-41,0,-61,-18c0,0,-19,-18,-19,-49c0,0,0,-38,33,-133L1015,235l193,557c0,0,32,93,32,129c0,0,0,17,-10,32c0,0,-11,15,-28,21c0,0,-28,11,-74,11v27h302V985c0,0,-39,0,-64,-15c0,0,-25,-14,-47,-53c0,0,-15,-26,-47,-124L990,-21H960L729,624L501,-21Z" 
id="f0_1n"
transform="scale(0.001,-0.001)" />

<path d="M286,72c0,0,57,0,149,75V407c0,0,-113,-45,-145,-64c0,0,-59,-32,-85,-68c0,0,-25,-36,-25,-78c0,0,0,-54,32,-89c0,0,32,-36,74,-36ZM217,-13c0,0,-71,0,-116,48c0,0,-46,48,-46,127c0,0,0,50,22,87c0,0,31,50,106,95c0,0,76,45,252,109v26c0,0,0,102,-32,140c0,0,-32,38,-94,38c0,0,-47,0,-74,-25c0,0,-28,-25,-28,-58l1,-43c0,0,0,-34,-17,-53c0,0,-18,-18,-47,-18c0,0,-28,0,-45,19c0,0,-18,19,-18,53c0,0,0,64,66,117c0,0,65,54,184,54c0,0,91,0,149,-31c0,0,44,-23,65,-72c0,0,13,-32,13,-131V238c0,0,0,-98,4,-120c0,0,4,-22,12,-29c0,0,9,-8,20,-8c0,0,12,0,21,5c0,0,16,10,61,55V99C676,99,592,-12,516,-12c0,0,-37,0,-58,24c0,0,-22,26,-23,86C435,98,330,17,303,5c0,0,-40,-18,-86,-18Z" 
id="f0_1x"
transform="scale(0.001,-0.001)" />

<path d="M376,-20L133,556c0,0,-17,41,-31,58c0,0,-15,18,-39,30c0,0,-12,7,-50,13v26H335V657H314c0,0,-29,0,-44,-14c0,0,-16,-14,-15,-38c0,0,-1,-26,15,-62L429,165L588,557c0,0,17,42,17,64c0,0,0,10,-6,17c0,0,-8,11,-21,15c0,0,-13,4,-52,4v26H750V657c0,0,-39,-3,-54,-16c0,0,-26,-23,-47,-76L409,-20Z" 
id="f0_2i"
transform="scale(0.001,-0.001)" />

<path d="M479,469c0,0,-4,66,-16,93c0,0,-18,42,-55,65c0,0,-37,24,-78,24c0,0,-62,0,-111,-48c0,0,-48,-48,-57,-134ZM355,-20c0,0,-123,0,-211,95c0,0,-87,96,-87,258c0,0,0,175,90,273c0,0,89,98,225,98c0,0,115,0,189,-76c0,0,74,-75,74,-202H162c0,0,0,-152,74,-239c0,0,75,-86,175,-86c0,0,67,0,117,36c0,0,50,37,83,127l24,-15c0,0,-16,-102,-91,-186c0,0,-76,-83,-189,-83Z" 
id="f0_21"
transform="scale(0.001,-0.001)" />

<path d="M213,-20c0,0,-34,0,-58,24c0,0,-24,24,-24,58c0,0,0,34,24,58c0,0,24,25,58,25c0,0,35,0,59,-25c0,0,24,-24,24,-58c0,0,0,-34,-24,-58c0,0,-25,-24,-59,-24Zm3,559c0,0,-35,0,-59,24c0,0,-24,24,-24,58c0,0,0,35,24,59c0,0,24,24,59,24c0,0,34,0,58,-24c0,0,24,-24,24,-59c0,0,0,-34,-24,-58c0,0,-24,-24,-58,-24Z" 
id="f0_u"
transform="scale(0.001,-0.001)" />

<path d="M473,53c0,0,173,0,287,121c0,0,114,122,114,330c0,0,0,210,-114,330c0,0,-114,121,-293,121c0,0,-67,0,-153,-21V74c0,0,95,-21,159,-21ZM26,0V27H64c0,0,64,0,91,41c0,0,16,25,16,111V833c0,0,0,95,-21,119c0,0,-29,33,-86,33H26v27H438c0,0,226,0,345,-51c0,0,118,-52,190,-172c0,0,72,-120,72,-278c0,0,0,-211,-129,-353C916,158,773,0,478,0Z" 
id="f0_14"
transform="scale(0.001,-0.001)" />

<path d="M292,-20c0,0,-57,0,-100,33c0,0,-42,33,-58,85c0,0,-17,52,-17,148V551c0,0,0,49,-10,68c0,0,-11,18,-31,29c0,0,-19,9,-68,9c-2,0,-4,0,-6,0v26H242V226c0,0,0,-95,33,-125c0,0,33,-30,80,-30c0,0,32,0,73,21c0,0,40,20,96,76V555c0,0,0,59,-21,80c0,0,-22,21,-89,22v26H647V269c0,0,0,-119,6,-145c0,0,6,-27,18,-37c0,0,12,-11,29,-11c0,0,23,0,52,13L763,63L558,-20H524V124C524,124,436,29,390,4c0,0,-47,-24,-98,-24Z" 
id="f0_2h"
transform="scale(0.001,-0.001)" />

<path d="M17,0V26c0,0,52,0,77,17c0,0,19,12,26,38c0,0,4,13,4,73V419c0,0,0,119,-5,142c0,0,-4,23,-17,33c0,0,-13,11,-33,11c0,0,-23,0,-52,-11l-7,26l207,83h31V549c0,0,86,154,176,154c0,0,41,0,68,-25c0,0,27,-25,27,-58c0,0,0,-29,-20,-49c0,0,-19,-20,-46,-20c0,0,-26,0,-58,25c0,0,-33,26,-48,26c0,0,-14,0,-29,-15c0,0,-34,-30,-70,-101V159c0,0,0,-56,15,-85c0,0,9,-20,34,-34c0,0,24,-14,71,-14V0Z" 
id="f0_2e"
transform="scale(0.001,-0.001)" />

<path d="M55,0V26c0,0,50,0,67,10c0,0,17,10,27,32c0,0,10,23,10,86V418c0,0,0,111,-6,144c0,0,-6,24,-17,33c0,0,-11,10,-30,10c0,0,-21,0,-51,-11L45,620l206,83h33V154c0,0,0,-64,9,-85c0,0,9,-22,27,-32c0,0,19,-11,67,-11V0ZM222,909c0,0,-32,0,-54,23c0,0,-22,22,-22,53c0,0,0,32,22,54c0,0,22,22,54,22c0,0,31,0,53,-22c0,0,22,-22,22,-54c0,0,0,-31,-22,-53c0,0,-22,-23,-53,-23Z" 
id="f0_25"
transform="scale(0.001,-0.001)" />

<path d="M21,0V26H35c0,0,53,0,71,27c0,0,18,27,18,101V408c0,0,0,123,-5,150c0,0,-6,27,-17,37c0,0,-12,10,-31,10c0,0,-21,0,-50,-11L10,620l206,83h32V558c0,0,120,145,229,145c0,0,56,0,96,-28c0,0,40,-28,64,-92c0,0,16,-45,16,-137V154c0,0,0,-65,11,-88c0,0,8,-19,26,-29c0,0,18,-11,68,-11V0H419V26h14c0,0,47,0,66,15c0,0,20,15,27,43c0,0,3,11,3,70V434c0,0,0,93,-24,135c0,0,-24,42,-81,42c0,0,-88,0,-176,-97V154c0,0,0,-69,9,-86c0,0,10,-21,28,-31c0,0,19,-11,75,-11V0Z" 
id="f0_2a"
transform="scale(0.001,-0.001)" />

<path d="M411,-239c0,0,134,0,198,48c0,0,64,47,64,100c0,0,0,39,-38,55c0,0,-39,16,-154,19c0,0,-167,5,-258,17c0,0,-35,-37,-53,-70c0,0,-17,-32,-17,-60c0,0,0,-36,43,-62c0,0,74,-47,215,-47ZM380,257c0,0,56,0,93,43c0,0,36,42,36,133c0,0,0,118,-51,185c0,0,-38,49,-98,49c0,0,-55,0,-92,-44c0,0,-37,-44,-37,-135c0,0,0,-117,50,-182c0,0,39,-49,99,-49ZM345,-328c0,0,-144,0,-243,64c0,0,-56,38,-56,78c0,0,0,18,8,36c0,0,13,27,52,76c0,0,5,7,76,80c0,0,-39,23,-55,41c0,0,-16,19,-16,42c0,0,0,26,22,61c0,0,21,35,98,100c0,0,-63,30,-97,85c0,0,-33,55,-33,121c0,0,0,101,76,174c0,0,77,73,196,73c0,0,98,0,170,-48H688c0,0,32,0,37,-2c0,0,6,-2,8,-6c0,0,4,-7,4,-24c0,0,0,-20,-4,-27c0,0,-2,-4,-7,-6c0,0,-6,-2,-38,-2H599c0,0,41,-54,41,-137c0,0,0,-96,-73,-163c0,0,-73,-68,-196,-68c0,0,-51,0,-104,15c0,0,-33,-28,-44,-49c0,0,-12,-22,-12,-37c0,0,0,-12,13,-24c0,0,12,-12,48,-17c0,0,21,-4,104,-6c0,0,154,-4,199,-11c0,0,70,-10,111,-51c0,0,42,-41,42,-102c0,0,0,-84,-79,-158c0,0,-117,-108,-304,-108Z" 
id="f0_23"
transform="scale(0.001,-0.001)" />

<path d="M398,24c0,0,74,0,120,58c0,0,61,76,61,214c0,0,0,156,-69,240c0,0,-47,59,-113,59c0,0,-36,0,-71,-18c0,0,-27,-14,-88,-81V242c0,0,0,-83,6,-109c0,0,11,-43,51,-76c0,0,41,-33,103,-33ZM-4,-326v27H15c5,0,42,0,69,16c0,0,14,8,22,26c0,0,7,19,7,94V481c0,0,0,67,-6,85c0,0,-5,18,-18,27c0,0,-13,9,-36,9c0,0,-18,0,-45,-10L0,615l209,85h29V540c0,0,53,91,106,127c0,0,53,36,112,36c0,0,103,0,172,-80c0,0,84,-99,84,-257c0,0,0,-176,-102,-292c0,0,-83,-94,-210,-94c0,0,-55,0,-95,16c0,0,-30,10,-67,44V-167c0,0,0,-71,8,-90c0,0,9,-20,30,-31c0,0,21,-11,77,-11v-27Z" 
id="f0_2c"
transform="scale(0.001,-0.001)" />

<path d="M406,32c0,0,72,0,119,60c0,0,47,59,47,205c0,0,0,181,-78,286c0,0,-53,71,-135,71c0,0,-40,0,-79,-23c0,0,-40,-24,-65,-83c0,0,-24,-58,-24,-151c0,0,0,-149,59,-257c0,0,59,-108,156,-108ZM374,-20c0,0,-154,0,-245,122c0,0,-77,104,-77,233c0,0,0,94,46,187c0,0,47,92,123,137c0,0,76,44,161,44c0,0,155,0,249,-118c0,0,80,-100,80,-231c0,0,0,-91,-44,-185C667,169,623,75,546,27c0,0,-77,-47,-172,-47Z" 
id="f0_2b"
transform="scale(0.001,-0.001)" />

<path d="M312,-20c0,0,-62,0,-143,22c0,0,-25,8,-40,8c0,0,-18,0,-27,-19H77V234h25c0,0,21,-105,80,-158c0,0,59,-53,132,-53c0,0,51,0,84,31c0,0,32,30,32,72c0,0,0,52,-36,87c0,0,-36,35,-144,88c0,0,-109,54,-142,97c0,0,-34,43,-34,107c0,0,0,85,58,141c0,0,58,57,150,57c0,0,40,0,97,-17c0,0,38,-11,51,-11c0,0,12,0,19,5c0,0,7,5,15,23h25V470H464c0,0,-28,110,-72,149c0,0,-45,40,-113,40c0,0,-53,0,-85,-28c0,0,-32,-27,-32,-61c0,0,0,-41,24,-71c0,0,23,-31,94,-65L389,381c0,0,152,-74,152,-194c0,0,0,-94,-71,-151c0,0,-70,-56,-158,-56Z" 
id="f0_2f"
transform="scale(0.001,-0.001)" />

<path d="M255,-10c0,0,-35,0,-68,18c0,0,-32,19,-48,55c0,0,-16,35,-16,109V632H15v24c0,0,41,16,84,56c0,0,43,39,77,92c0,0,17,29,48,104h23V683H407V632H247V188c0,0,0,-66,19,-90c0,0,19,-23,49,-23c0,0,24,0,47,16c0,0,23,15,36,45h29c0,0,-26,-73,-74,-110c0,0,-47,-36,-98,-36Z" 
id="f0_2g"
transform="scale(0.001,-0.001)" />

<path d="M20,0V26c0,0,45,0,71,15c0,0,15,7,24,28c0,0,9,21,9,85V773c0,0,0,117,-5,144c0,0,-6,27,-17,37c0,0,-12,9,-31,9c0,0,-16,0,-51,-12L10,978l204,83h34V561c0,0,83,91,131,116c0,0,49,26,97,26c0,0,58,0,100,-32c0,0,42,-32,62,-101c0,0,14,-47,14,-174V154c0,0,0,-65,11,-89c0,0,7,-18,25,-28c0,0,18,-11,66,-11V0H418V26h15c0,0,48,0,67,15c0,0,18,15,26,43c0,0,2,12,2,70V396c0,0,0,112,-12,147c0,0,-11,35,-36,53c0,0,-26,17,-61,17c0,0,-37,0,-76,-19c0,0,-40,-20,-95,-79V154c0,0,0,-70,8,-87c0,0,8,-17,29,-29c0,0,22,-12,74,-12V0Z" 
id="f0_24"
transform="scale(0.001,-0.001)" />

<path d="M58,0V26c0,0,47,0,64,10c0,0,18,10,28,32c0,0,9,23,9,86V775c0,0,0,116,-5,142c0,0,-5,27,-17,37c0,0,-11,9,-29,9c0,0,-20,0,-49,-12L46,978l204,83h34V154c0,0,0,-64,9,-85c0,0,9,-21,29,-32c0,0,19,-11,72,-11V0Z" 
id="f0_28"
transform="scale(0.001,-0.001)" />

<path d="M63,0V26H93c0,0,30,0,54,15c0,0,25,15,34,41c0,0,10,25,10,99V630H58v53H191v45c0,0,0,102,33,173c0,0,32,71,100,114c0,0,68,44,152,44c0,0,79,0,145,-51c0,0,43,-33,43,-75c0,0,0,-22,-19,-42c0,0,-20,-20,-42,-20c0,0,-17,0,-36,12c0,0,-19,13,-47,53c0,0,-28,41,-51,55c0,0,-23,14,-51,14c0,0,-35,0,-58,-18c0,0,-24,-18,-35,-57c0,0,-10,-38,-10,-197V683H491V630H315V181c0,0,0,-96,21,-122c0,0,27,-33,73,-33h62V0Z" 
id="f0_22"
transform="scale(0.001,-0.001)" />

<path d="M342,-20c0,0,-116,0,-203,97c0,0,-86,98,-86,264c0,0,0,161,96,261c0,0,95,101,230,101c0,0,100,0,165,-53c0,0,65,-54,65,-111c0,0,0,-29,-18,-46c0,0,-18,-18,-51,-18c0,0,-44,0,-66,29c0,0,-13,15,-17,59c0,0,-4,45,-30,68c0,0,-26,22,-73,22c0,0,-74,0,-120,-55c0,0,-60,-73,-60,-193c0,0,0,-122,60,-216c0,0,60,-93,162,-93c0,0,73,0,131,49c0,0,41,35,80,126l22,-10C629,261,601,125,521,52c0,0,-81,-72,-179,-72Z" 
id="f0_1z"
transform="scale(0.001,-0.001)" />

<path d="M145,-328c0,0,-44,0,-73,25c0,0,-28,25,-28,58c0,0,0,31,21,50c0,0,20,19,56,19c0,0,25,0,67,-16c0,0,30,-11,38,-11c0,0,22,0,49,23c0,0,26,23,53,89L376,28L131,542c0,0,-11,24,-36,58c0,0,-19,27,-30,36c0,0,-18,12,-56,21v26H328V657H312c0,0,-33,0,-50,-15c0,0,-17,-14,-17,-36c0,0,0,-30,25,-81L437,179L589,557c0,0,12,31,12,62c0,0,0,13,-5,20c0,0,-6,8,-19,13c0,0,-12,5,-44,5v26H754V657c0,0,-27,-3,-42,-12c0,0,-15,-9,-33,-34c0,0,-7,-10,-25,-58L376,-128c0,0,-40,-99,-105,-150c0,0,-66,-50,-126,-50Z" 
id="f0_2l"
transform="scale(0.001,-0.001)" />

<path d="M399,62c0,0,68,0,131,68V481c0,0,-5,51,-27,93c0,0,-22,42,-59,63c0,0,-37,21,-72,21c0,0,-65,0,-117,-59c0,0,-67,-77,-67,-226c0,0,0,-151,65,-231c0,0,66,-80,146,-80ZM330,-20c0,0,-112,0,-196,93c0,0,-83,94,-83,240c0,0,0,147,92,269c0,0,93,122,238,122c0,0,90,0,149,-58V773c0,0,0,117,-6,144c0,0,-5,27,-17,37c0,0,-12,9,-30,9c0,0,-20,0,-52,-12l-9,27l204,83h33V270c0,0,0,-120,6,-146c0,0,5,-27,18,-37c0,0,12,-11,28,-11c0,0,21,0,54,13l9,-26L564,-20H530V78C530,78,480,25,432,2c0,0,-47,-22,-102,-22Z" 
id="f0_20"
transform="scale(0.001,-0.001)" />

<path d="M197,0V27c0,0,71,2,92,13c0,0,21,10,29,29c0,0,9,18,9,109V725c0,0,0,110,-8,141c0,0,-5,24,-19,35c0,0,-14,11,-33,11c0,0,-28,0,-77,-23l-11,23l246,121h25V178c0,0,0,-85,7,-106c0,0,7,-21,29,-32c0,0,23,-11,91,-13V0Z" 
id="f0_l"
transform="scale(0.001,-0.001)" />

<path d="M332,49c0,0,118,0,219,24c0,0,102,24,166,72c0,0,92,70,147,191c0,0,55,122,55,277c0,0,0,175,-85,261c0,0,-86,85,-249,85c0,0,-40,0,-104,-3L264,185c0,0,-24,-77,-24,-95c0,0,0,-11,8,-21c0,0,8,-11,21,-14c0,0,20,-6,63,-6ZM-44,0l9,26c0,0,58,2,78,11c0,0,30,13,44,34c0,0,22,32,49,127L310,811c0,0,21,73,21,114c0,0,0,29,-20,45c0,0,-19,16,-76,16H219l9,26H553c0,0,206,0,306,-47c0,0,99,-47,159,-148c0,0,59,-101,59,-217c0,0,0,-99,-34,-193c0,0,-34,-94,-77,-150c0,0,-43,-56,-132,-124C834,133,746,65,642,32C642,32,538,0,383,0Z" 
id="f1_14"
transform="scale(0.001,-0.001)" />

<path d="M336,-20L117,554c0,0,-21,55,-42,74c0,0,-21,19,-66,29v26H296V657c0,0,-40,-3,-52,-14c0,0,-13,-12,-13,-33c0,0,0,-23,13,-56L390,162L537,481L498,581c0,0,-18,46,-47,63c0,0,-17,11,-61,13v26H716V657c0,0,-54,-2,-77,-20c0,0,-15,-12,-15,-39c0,0,0,-15,6,-30L785,177L929,554c0,0,15,40,15,65c0,0,0,14,-15,25c0,0,-14,12,-57,13v26h216V657c0,0,-65,-10,-95,-89L764,-20H733L563,415L363,-20Z" 
id="f0_2j"
transform="scale(0.001,-0.001)" />

<path d="M397,34c0,0,67,0,126,75c0,0,58,74,58,216c0,0,0,131,-58,201c0,0,-59,70,-133,70c0,0,-39,0,-79,-20c0,0,-29,-14,-75,-59V109c0,0,37,-37,78,-56c0,0,40,-19,83,-19ZM358,-20c0,0,-59,0,-121,21c0,0,-61,22,-126,65V773c0,0,0,117,-5,144c0,0,-6,27,-18,37c0,0,-12,9,-29,9c0,0,-21,0,-53,-12l-9,27l205,83h34V564c0,0,98,139,213,139c0,0,105,0,183,-90c0,0,78,-90,78,-245c0,0,0,-182,-121,-293c0,0,-103,-95,-231,-95Z" 
id="f0_1y"
transform="scale(0.001,-0.001)" />

<path d="M33,0V27c0,0,264,241,371,393c0,0,108,152,108,278c0,0,0,96,-59,158c0,0,-59,62,-141,62c0,0,-75,0,-134,-43c0,0,-59,-44,-88,-128H63c0,0,18,138,95,212c0,0,77,74,193,74c0,0,123,0,205,-80c0,0,83,-79,83,-186c0,0,0,-77,-36,-154c0,0,-55,-121,-179,-256C424,357,238,154,191,112H455c0,0,81,0,114,6c0,0,32,6,58,25c0,0,27,18,46,52h27L630,0Z" 
id="f0_m"
transform="scale(0.001,-0.001)" />

<path d="M191,-20c0,0,-34,0,-58,24c0,0,-24,24,-24,58c0,0,0,35,24,59c0,0,24,24,58,24c0,0,35,0,59,-24c0,0,24,-25,24,-59c0,0,0,-34,-24,-58c0,0,-25,-24,-59,-24Z" 
id="f0_i"
transform="scale(0.001,-0.001)" />

<path d="M474,-326c0,0,-112,57,-188,133c0,0,-107,108,-165,254c0,0,-58,147,-58,305c0,0,0,231,114,421c0,0,114,191,297,273v-31c0,0,-92,-51,-151,-139c0,0,-59,-88,-88,-223c0,0,-30,-135,-30,-281c0,0,0,-160,25,-290c0,0,20,-102,47,-164c0,0,28,-62,75,-120c0,0,47,-57,122,-109v-29Z" 
id="f0_c"
transform="scale(0.001,-0.001)" />

<path d="M35,-326v29c0,0,92,51,151,139c0,0,60,87,89,221c0,0,28,136,28,282c0,0,0,159,-24,290c0,0,-19,103,-47,165c0,0,-28,62,-75,119c0,0,-46,57,-122,110v31c0,0,113,-56,188,-132c0,0,107,-109,165,-255c0,0,58,-147,58,-306c0,0,0,-231,-114,-420c0,0,-113,-191,-297,-273Z" 
id="f0_d"
transform="scale(0.001,-0.001)" />

<path d="M613,-21c0,0,-293,0,-445,186C168,165,54,306,54,490c0,0,0,134,64,256c0,0,76,145,209,224c0,0,111,64,262,64c0,0,55,0,100,-9c0,0,45,-9,128,-39c0,0,42,-16,56,-16c0,0,14,0,24,13c0,0,10,13,12,51h28L963,715H937c0,0,-40,119,-102,179c0,0,-91,88,-232,88c0,0,-193,0,-294,-153c0,0,-84,-129,-84,-307c0,0,0,-144,56,-263c0,0,56,-120,146,-175c0,0,91,-56,186,-56c0,0,56,0,109,15c0,0,52,14,100,41V376c0,0,0,77,-11,101c0,0,-12,23,-36,36c0,0,-24,12,-86,12v27h392V525h-18c0,0,-58,0,-80,-39c0,0,-15,-28,-15,-110V67C968,67,882,21,799,0c0,0,-84,-21,-186,-21Z" 
id="f0_17"
transform="scale(0.001,-0.001)" />

<path d="M23,0V26c0,0,47,0,66,10c0,0,19,11,28,33c0,0,10,22,10,85V416c0,0,0,112,-7,145c0,0,-5,25,-16,34c0,0,-11,10,-31,10c0,0,-21,0,-50,-11L12,620l207,83h32V557c0,0,75,75,88,86c0,0,34,29,72,44c0,0,39,16,77,16c0,0,64,0,110,-37c0,0,47,-38,62,-109c0,0,77,90,130,118c0,0,53,28,109,28c0,0,54,0,96,-28c0,0,42,-28,67,-91c0,0,16,-43,16,-136V154c0,0,0,-64,10,-88c0,0,8,-16,28,-28c0,0,20,-12,65,-12V0H844V26h14c0,0,44,0,69,18c0,0,17,12,24,38c0,0,3,13,3,72V448c0,0,0,83,-20,117c0,0,-29,48,-93,48c0,0,-39,0,-79,-20c0,0,-40,-19,-97,-73l-1,-8l2,-32V154c0,0,0,-70,8,-87c0,0,7,-17,29,-29c0,0,21,-12,73,-12V0H431V26c0,0,57,0,78,14c0,0,21,13,29,40c0,0,4,13,4,74V448c0,0,0,83,-25,120c0,0,-33,48,-91,48c0,0,-40,0,-80,-22c0,0,-61,-33,-95,-74V154c0,0,0,-67,10,-87c0,0,9,-20,27,-30c0,0,18,-11,74,-11V0Z" 
id="f0_29"
transform="scale(0.001,-0.001)" />

<path d="M911,-16L244,799V175c0,0,0,-93,21,-116c0,0,28,-32,86,-32h36V0H36V27H71c0,0,65,0,92,39c0,0,16,24,16,109V879c0,0,-44,52,-67,68c0,0,-23,17,-67,31c0,0,-21,7,-64,7v27H253L873,253V837c0,0,0,93,-21,116c0,0,-28,32,-87,32H730v27h351V985h-36c0,0,-64,0,-91,-39c0,0,-16,-24,-16,-109V-16Z" 
id="f0_1e"
transform="scale(0.001,-0.001)" />

<path d="M678,393L506,802L330,393ZM11,0V27c0,0,63,12,82,30c0,0,38,35,84,145l356,832h27L912,193c0,0,43,-101,77,-132c0,0,35,-30,97,-34V0H687V27c0,0,60,3,82,21c0,0,21,17,21,41c0,0,0,33,-30,104L700,338H307L239,179c0,0,-26,-59,-26,-88c0,0,0,-23,22,-41c0,0,22,-17,95,-23V0Z" 
id="f0_11"
transform="scale(0.001,-0.001)" />

<path d="M485,53c0,0,135,0,206,61c0,0,71,60,71,150c0,0,0,59,-32,114c0,0,-33,54,-105,85c0,0,-72,32,-179,32c0,0,-46,0,-79,-2c0,0,-33,-1,-53,-5V73c0,0,86,-20,171,-20ZM455,547c0,0,109,0,164,23c0,0,55,24,84,72c0,0,29,49,29,106c0,0,0,89,-72,151c0,0,-73,63,-212,63c0,0,-74,0,-134,-16V557c0,0,27,-5,63,-8c0,0,35,-2,78,-2ZM24,0V27H63c0,0,63,0,91,41c0,0,17,26,17,111V833c0,0,0,94,-22,119c0,0,-29,33,-86,33H24v27H462c0,0,122,0,196,-18c0,0,112,-27,171,-95c0,0,59,-68,59,-157c0,0,0,-76,-46,-136c0,0,-47,-60,-137,-89c0,0,105,-23,157,-72c0,0,73,-69,73,-168c0,0,0,-75,-48,-145C887,132,839,63,756,32C756,32,673,0,502,0Z" 
id="f0_12"
transform="scale(0.001,-0.001)" />

<path d="M-60,-328c0,0,-23,0,-41,17c0,0,-17,18,-17,41c0,0,0,29,24,53c0,0,24,23,53,23c0,0,15,0,24,-6c0,0,6,-4,13,-21c0,0,6,-18,12,-24c0,0,4,-3,9,-3c0,0,5,0,16,7c0,0,41,25,96,81c0,0,71,72,106,119L193,430c0,0,-11,117,-32,142c0,0,-20,25,-70,25c0,0,-15,0,-56,-4l-7,28l219,54c0,0,25,-43,35,-81c0,0,10,-38,20,-148L334,80c0,0,45,54,130,170c0,0,41,56,102,154c0,0,36,59,45,83c0,0,4,12,4,25c0,0,0,8,-5,13c0,0,-6,5,-28,12c0,0,-21,7,-36,26c0,0,-15,19,-15,44c0,0,0,30,18,49c0,0,18,19,45,19c0,0,33,0,56,-28c0,0,23,-27,23,-74c0,0,0,-59,-40,-135c0,0,-40,-76,-155,-232C478,206,363,49,200,-135c0,0,-113,-127,-168,-160c0,0,-53,-33,-92,-33Z" 
id="f1_2l"
transform="scale(0.001,-0.001)" />

<path d="M600,387l39,398L345,387ZM-74,0l8,26c0,0,55,3,97,37c0,0,42,35,125,149l605,822h26L710,193c0,0,-6,-59,-6,-78c0,0,0,-30,11,-46c0,0,14,-22,39,-32c0,0,24,-11,81,-11L827,0H429l8,26h17c0,0,49,0,79,21c0,0,22,15,34,48c0,0,8,23,15,109l13,128H305L202,193c0,0,-35,-47,-44,-68c0,0,-9,-20,-9,-38c0,0,0,-25,20,-42c0,0,19,-17,64,-19L225,0Z" 
id="f1_11"
transform="scale(0.001,-0.001)" />

<path d="M357,55c0,0,117,0,206,70c0,0,90,70,90,191c0,0,0,92,-56,144c0,0,-57,51,-182,51c0,0,-24,0,-59,-3L231,65c0,0,81,-10,126,-10Zm86,508c0,0,158,0,234,68c0,0,77,67,77,169c0,0,0,76,-48,119c0,0,-48,43,-153,43c0,0,-28,0,-71,-9L372,564c0,0,49,-1,71,-1ZM-34,0l10,26c0,0,57,2,78,12c0,0,30,12,42,33c0,0,18,29,48,131L318,816c0,0,23,78,23,109c0,0,0,28,-20,44c0,0,-21,16,-78,16c0,0,-13,0,-24,1l10,26H594c0,0,92,0,164,-28c0,0,72,-29,108,-79c0,0,36,-51,36,-108c0,0,0,-87,-66,-157c0,0,-66,-71,-216,-104c0,0,99,-35,146,-91c0,0,46,-57,46,-125c0,0,0,-76,-39,-144c0,0,-39,-69,-99,-107C674,69,613,31,527,13C527,13,466,0,336,0Z" 
id="f1_12"
transform="scale(0.001,-0.001)" />

<path d="M0,214v74H784V214ZM0,494v72H784V494Z" 
id="f2_x"
transform="scale(0.001,-0.001)" />

<path d="M604,356L436,837h-1L269,356ZM87,-4c0,0,-22,0,-36,2C51,-2,37,0,32,4c0,0,-6,5,-6,15c0,0,1,10,7,27L357,943c0,0,3,8,7,13c0,0,5,6,15,9c0,0,9,3,23,4c0,0,15,1,37,1c0,0,24,0,40,-1c0,0,16,-1,25,-4c0,0,10,-3,15,-9c0,0,5,-5,8,-14L851,45c0,0,6,-16,7,-26c0,0,0,-10,-6,-16c0,0,-6,-4,-20,-5c0,0,-14,-2,-37,-2c0,0,-23,0,-37,1c0,0,-14,1,-21,3c0,0,-7,3,-10,7c0,0,-3,5,-6,11L638,253H236L157,21c0,0,-2,-6,-6,-11c0,0,-3,-5,-10,-9c0,0,-7,-2,-21,-3c0,0,-13,-2,-33,-2Z" 
id="f3_5"
transform="scale(0.001,-0.001)" />

<path d="M441,106c0,0,45,0,77,10c0,0,33,10,58,31c0,0,25,21,39,51c0,0,15,31,15,71c0,0,0,43,-14,76c0,0,-14,33,-41,55c0,0,-26,23,-66,34c0,0,-40,12,-100,12H255V106ZM401,549c0,0,50,0,81,13c0,0,30,13,50,35c0,0,20,22,30,51c0,0,9,29,9,61c0,0,0,35,-10,63c0,0,-9,28,-30,48c0,0,-21,20,-55,30c0,0,-33,10,-88,10H255V549ZM176,0c0,0,-17,0,-33,12c0,0,-15,11,-15,40V913c0,0,0,29,15,41c0,0,16,11,33,11H395c0,0,87,0,142,-16c0,0,55,-17,92,-48c0,0,37,-31,55,-77c0,0,19,-45,19,-103c0,0,0,-34,-8,-65c0,0,-8,-32,-24,-58c0,0,-16,-27,-41,-47c0,0,-24,-21,-55,-35c0,0,39,-7,74,-27c0,0,34,-20,60,-50c0,0,26,-31,41,-72c0,0,15,-41,15,-90c0,0,0,-46,-12,-84c0,0,-12,-39,-32,-69c0,0,-21,-31,-51,-54c0,0,-29,-23,-66,-39C604,31,567,16,525,8C525,8,483,0,428,0Z" 
id="f3_i"
transform="scale(0.001,-0.001)" />

<path d="M385,92c0,0,42,0,74,13c0,0,31,14,54,39c0,0,23,25,38,60c0,0,15,35,24,77c0,0,9,43,12,92c0,0,3,50,3,103c0,0,0,73,-5,130c0,0,-5,57,-15,101c0,0,-10,44,-26,76c0,0,-16,32,-39,52c0,0,-22,21,-51,30c0,0,-29,9,-64,9c0,0,-64,0,-103,-30c0,0,-40,-29,-63,-82c0,0,-23,-52,-31,-122c0,0,-8,-70,-8,-150c0,0,0,-108,11,-184c0,0,11,-76,36,-123c0,0,24,-48,62,-69c0,0,37,-22,91,-22ZM378,-13c0,0,-91,0,-154,32c0,0,-62,32,-100,95c0,0,-38,63,-54,155c0,0,-16,92,-16,212c0,0,0,110,18,202c0,0,18,92,58,158c0,0,40,66,106,103c0,0,66,36,161,36c0,0,92,0,154,-33c0,0,62,-32,100,-95c0,0,39,-63,55,-155c0,0,16,-92,16,-212c0,0,0,-111,-18,-203c0,0,-17,-91,-58,-157C646,125,605,59,540,22c0,0,-66,-35,-162,-35Z" 
id="f3_rx"
transform="scale(0.001,-0.001)" />

<path d="M161,0c0,0,-5,0,-10,3c0,0,-4,2,-8,8c0,0,-5,6,-7,16c0,0,-2,9,-2,24c0,0,0,13,2,23c0,0,2,9,6,16c0,0,3,6,8,9c0,0,5,4,11,4H362V837L176,726c0,0,-15,-8,-23,-9c0,0,-1,-1,-3,-1c-3,0,-8,1,-11,4c0,0,-5,5,-7,16c0,0,-2,11,-2,28c0,0,0,13,1,22c0,0,1,9,4,15c0,0,2,6,6,10c0,0,4,5,11,9L374,963c0,0,3,2,7,4c0,0,5,1,11,3c0,0,7,1,16,2c0,0,9,0,22,0c0,0,18,0,30,-2c0,0,12,-1,19,-4c0,0,7,-2,9,-6c0,0,2,-5,2,-9V103H665c0,0,6,0,11,-4c0,0,5,-3,8,-9c0,0,4,-7,6,-16c0,0,2,-10,2,-23c0,0,0,-15,-3,-24c0,0,-2,-10,-6,-16c0,0,-3,-6,-8,-8c0,0,-5,-3,-10,-3Z" 
id="f3_ry"
transform="scale(0.001,-0.001)" />

<path d="M435,0V856c0,0,-48,-47,-127,-93c0,0,-79,-46,-142,-69V824c0,0,113,52,197,128c0,0,85,75,120,146h86V0Z" 
id="f4_l"
transform="scale(0.001,-0.001)" />

<path d="M415,-18c0,0,-149,0,-244,83c0,0,-94,84,-107,222l140,11c0,0,16,-103,73,-154c0,0,56,-52,137,-52c0,0,98,0,165,73c0,0,66,73,66,194c0,0,0,115,-64,182c0,0,-64,66,-169,66c0,0,-65,0,-117,-29c0,0,-52,-30,-82,-77L87,517l106,562H736V951H300L241,657c0,0,99,69,207,69c0,0,143,0,242,-100c0,0,98,-99,98,-255c0,0,0,-149,-86,-257C702,114,597,-18,415,-18Z" 
id="f4_p"
transform="scale(0.001,-0.001)" />


</defs>
</svg>