<?xml version="1.0" encoding="UTF-8" standalone="no"?>
<!DOCTYPE svg PUBLIC "-//W3C//DTD SVG 1.1//EN"
"http://www.w3.org/Graphics/SVG/1.1/DTD/svg11.dtd">
<svg viewBox="0 0 909 1286" version="1.1" xmlns="http://www.w3.org/2000/svg" xmlns:xlink="http://www.w3.org/1999/xlink">
<defs>
</defs>
<image preserveAspectRatio="none" x="63" y="154" width="288" height="64" xlink:href="img/1.png" />
<image preserveAspectRatio="none" x="63" y="237" width="194" height="64" xlink:href="img/2.png" />
<image preserveAspectRatio="none" x="63" y="319" width="181" height="64" xlink:href="img/3.png" />
<image preserveAspectRatio="none" x="63" y="403" width="110" height="65" xlink:href="img/4.png" />
<g fill="#000000" >
<use xlink:href="#f0_15" transform="matrix(12,0,0,12,177.4,440)" />
<use xlink:href="#f0_15" transform="matrix(12,0,0,12,183.1,440)" />
<use xlink:href="#f0_15" transform="matrix(12,0,0,12,188.8,440)" />
<use xlink:href="#f0_15" transform="matrix(12,0,0,12,194.4,440)" />
<use xlink:href="#f0_s" transform="matrix(12,0,0,12,200.1,440)" />
<use xlink:href="#f0_r" transform="matrix(12,0,0,12,206.4,440)" />
<use xlink:href="#f0_v" transform="matrix(12,0,0,12,212.3,440)" />
<use xlink:href="#f0_2" transform="matrix(12,0,0,12,62.6,508.8)" />
<use xlink:href="#f0_3" transform="matrix(12,0,0,12,73.5,508.8)" />
<use xlink:href="#f0_4" transform="matrix(12,0,0,12,84,508.8)" />
<use xlink:href="#f0_a" transform="matrix(12,0,0,12,97.4,508.8)" />
<use xlink:href="#f0_14" transform="matrix(12,0,0,12,107.2,508.8)" />
<use xlink:href="#f0_a" transform="matrix(12,0,0,12,117.5,508.8)" />
<use xlink:href="#f0_6" transform="matrix(12,0,0,12,132.1,508.8)" />
<use xlink:href="#f0_r" transform="matrix(12,0,0,12,143.3,508.8)" />
<use xlink:href="#f0_a" transform="matrix(12,0,0,12,149.2,508.8)" />
<use xlink:href="#f0_b" transform="matrix(12,0,0,12,159,508.8)" />
<use xlink:href="#f0_a" transform="matrix(12,0,0,12,168,508.8)" />
</g>
<image preserveAspectRatio="none" x="63" y="536" width="114" height="67" xlink:href="img/5.png" />
<image preserveAspectRatio="none" x="63" y="622" width="160" height="67" xlink:href="img/6.png" />
<g fill="#000000" >
<use xlink:href="#f0_t" transform="matrix(12,0,0,12,62.6,730.3)" />
<use xlink:href="#f0_u" transform="matrix(12,0,0,12,79.8,730.3)" />
<use xlink:href="#f0_7" transform="matrix(12,0,0,12,91.5,730.3)" />
<use xlink:href="#f0_p" transform="matrix(12,0,0,12,97.1,730.3)" />
<use xlink:href="#f0_r" transform="matrix(12,0,0,12,103.6,730.3)" />
<use xlink:href="#f0_6" transform="matrix(12,0,0,12,109.4,730.3)" />
<use xlink:href="#f0_7" transform="matrix(12,0,0,12,120.7,730.3)" />
<use xlink:href="#f0_14" transform="matrix(12,0,0,12,126.4,730.3)" />
<use xlink:href="#f0_16" transform="matrix(12,0,0,12,141.4,730.3)" />
<use xlink:href="#f0_14" transform="matrix(12,0,0,12,152.7,730.3)" />
<use xlink:href="#f0_17" transform="matrix(12,0,0,12,167.8,730.3)" />
</g>
<image preserveAspectRatio="none" x="63" y="758" width="130" height="67" xlink:href="img/7.png" />
<image preserveAspectRatio="none" x="63" y="843" width="111" height="68" xlink:href="img/8.png" />
<image preserveAspectRatio="none" x="63" y="929" width="264" height="69" xlink:href="img/9.png" />
<g fill="#000000" >
<use xlink:href="#f0_18" transform="matrix(12,0,0,12,62.6,1038.9)" />
<use xlink:href="#f0_u" transform="matrix(12,0,0,12,72.6,1038.9)" />
<use xlink:href="#f0_16" transform="matrix(12,0,0,12,84.2,1038.9)" />
<use xlink:href="#f0_e" transform="matrix(12,0,0,12,95.5,1038.9)" />
<use xlink:href="#f0_p" transform="matrix(12,0,0,12,103.7,1038.9)" />
<use xlink:href="#f0_r" transform="matrix(12,0,0,12,110.2,1038.9)" />
<use xlink:href="#f0_p" transform="matrix(12,0,0,12,116,1038.9)" />
<use xlink:href="#f0_u" transform="matrix(12,0,0,12,122.5,1038.9)" />
<use xlink:href="#f0_p" transform="matrix(12,0,0,12,134.1,1038.9)" />
<use xlink:href="#f0_r" transform="matrix(12,0,0,12,140.5,1038.9)" />
<use xlink:href="#f0_9" transform="matrix(12,0,0,12,146.4,1038.9)" />
<use xlink:href="#f0_n" transform="matrix(12,0,0,12,158.2,1038.9)" />
<use xlink:href="#f0_r" transform="matrix(12,0,0,12,172.8,1038.9)" />
<use xlink:href="#f0_9" transform="matrix(12,0,0,12,178.7,1038.9)" />
<use xlink:href="#f0_a" transform="matrix(12,0,0,12,195.2,1038.9)" />
<use xlink:href="#f0_i" transform="matrix(12,0,0,12,205,1038.9)" />
<use xlink:href="#f0_n" transform="matrix(12,0,0,12,210.3,1038.9)" />
<use xlink:href="#f0_i" transform="matrix(12,0,0,12,220.1,1038.9)" />
<use xlink:href="#f0_s" transform="matrix(12,0,0,12,230.1,1038.9)" />
<use xlink:href="#f0_r" transform="matrix(12,0,0,12,236.4,1038.9)" />
<use xlink:href="#f0_v" transform="matrix(12,0,0,12,242.3,1038.9)" />
</g>
<image preserveAspectRatio="none" x="63" y="1066" width="194" height="69" xlink:href="img/10.png" />
<g fill="#000000" >
<use xlink:href="#f1_l" transform="matrix(8,0,0,8,785.4,1275.3)" />
<use xlink:href="#f1_p" transform="matrix(8,0,0,8,792.2,1275.3)" />
</g>
<defs>
<path d="M38,359V474H436V359Z" 
id="f0_15"
transform="scale(0.001,-0.001)" />

<path d="M480,-194c0,0,-106,41,-180,101c0,0,-75,59,-122,141c0,0,-48,82,-69,191c0,0,-22,107,-22,245c0,0,0,137,22,246c0,0,21,106,69,188c0,0,47,82,122,142c0,0,74,59,180,101v-69c0,0,-79,-48,-125,-114c0,0,-48,-67,-71,-146c0,0,-24,-80,-30,-168c0,0,-9,-90,-8,-180c0,0,-1,-92,8,-180c0,0,6,-88,30,-167c0,0,23,-80,71,-146c0,0,46,-68,125,-115v-70Z" 
id="f0_s"
transform="scale(0.001,-0.001)" />

<path d="M35,0V64H55c0,0,25,0,49,4c0,0,22,3,39,13c0,0,17,10,28,32c0,0,10,20,10,53V650c0,0,0,33,-10,55c0,0,-11,20,-28,31c0,0,-17,11,-39,15c0,0,-24,3,-49,4H51v64H324V174c0,0,0,-37,10,-58c0,0,10,-21,27,-32c0,0,16,-13,40,-16c0,0,22,-4,48,-4h20V0ZM249,972c-1,0,-2,0,-3,0c0,0,-1,0,-2,0c-5,0,-20,0,-32,5c0,0,-16,5,-28,16c0,0,-12,11,-18,29c0,0,-7,18,-7,45c0,0,0,27,7,45c0,0,6,17,18,29c0,0,12,11,28,15c0,0,15,5,34,5c0,0,18,0,34,-5c0,0,15,-4,27,-15c0,0,11,-12,19,-29c0,0,7,-18,7,-45c0,0,0,-27,-7,-45c0,0,-8,-18,-19,-29c0,0,-12,-11,-27,-16c0,0,-14,-5,-31,-5Z" 
id="f0_r"
transform="scale(0.001,-0.001)" />

<path d="M49,-194v70c0,0,79,47,125,115c0,0,45,66,71,146c0,0,23,79,31,167c0,0,7,88,7,180c0,0,0,90,-7,180c0,0,-8,88,-31,168c0,0,-26,79,-71,146c0,0,-46,66,-125,114v69c0,0,105,-42,180,-101c0,0,75,-60,122,-142c0,0,47,-82,69,-188c0,0,21,-109,22,-246c0,0,-1,-138,-22,-245c0,0,-22,-109,-69,-191c0,0,-47,-82,-122,-141c0,0,-75,-60,-180,-101Z" 
id="f0_v"
transform="scale(0.001,-0.001)" />

<path d="M58,0V64H78c0,0,24,0,48,4c0,0,22,3,40,13c0,0,16,10,27,32c0,0,10,20,10,53V923c0,0,0,33,-10,54c0,0,-11,20,-27,32c0,0,-18,11,-40,14c0,0,-24,3,-48,3H58v65H832V824H756l-7,65c0,0,-4,26,-12,49c0,0,-9,23,-25,40c0,0,-17,16,-43,27c0,0,-26,10,-61,10H357V573H726V498H357V174c0,0,0,-37,11,-58c0,0,9,-21,27,-32c0,0,15,-13,39,-16c0,0,23,-4,49,-4h50V0Z" 
id="f0_2"
transform="scale(0.001,-0.001)" />

<path d="M442,64c0,0,56,0,97,23c0,0,38,22,64,66c0,0,24,43,36,108c0,0,9,65,10,150c0,0,0,85,-11,149c0,0,-11,64,-36,108c0,0,-25,42,-64,64c0,0,-41,21,-98,21c0,0,-58,0,-97,-21c0,0,-39,-22,-64,-64c0,0,-25,-44,-36,-108c0,0,-11,-64,-11,-149c0,0,0,-85,11,-150c0,0,11,-65,37,-108c0,0,24,-44,65,-66c0,0,38,-23,97,-23Zm-3,-78c0,0,-83,0,-149,25c0,0,-66,26,-111,79c0,0,-47,52,-70,134c0,0,-25,79,-25,187c0,0,0,213,91,319c0,0,90,103,268,104c0,0,82,0,149,-25c0,0,65,-26,111,-79c0,0,46,-53,71,-132c0,0,23,-80,23,-187c0,0,0,-216,-91,-321C706,90,614,-14,439,-14Z" 
id="f0_3"
transform="scale(0.001,-0.001)" />

<path d="M51,0V64h4c0,0,26,0,49,4c0,0,23,3,40,16c0,0,16,11,27,32c0,0,10,21,10,58V650c0,0,0,33,-10,55c0,0,-11,20,-28,31c0,0,-17,11,-39,15c0,0,-24,3,-49,4H51v64H286L315,668h7c0,0,14,34,31,65c0,0,15,29,39,53c0,0,22,22,56,35c0,0,33,12,84,13c0,0,83,0,124,-29c0,0,41,-30,41,-82c0,0,0,-24,-8,-44c0,0,-9,-20,-25,-34c0,0,-17,-15,-44,-23c0,0,-27,-8,-66,-8c0,0,0,63,-18,92c0,0,-18,27,-62,27c0,0,-29,0,-51,-15c0,0,-22,-18,-39,-43c0,0,-17,-27,-28,-61c0,0,-13,-35,-19,-70c0,0,-8,-37,-10,-73c0,0,-4,-35,-3,-64V166c0,0,0,-33,10,-53c0,0,10,-22,27,-32c0,0,16,-10,40,-13c0,0,22,-4,48,-4h43V0Z" 
id="f0_4"
transform="scale(0.001,-0.001)" />

<path d="M586,481c0,0,0,60,-9,111c0,0,-9,50,-29,85c0,0,-19,36,-51,56c0,0,-33,18,-79,19c0,0,-87,-1,-133,-69c0,0,-46,-69,-46,-202ZM439,-14c0,0,-83,0,-149,27c0,0,-66,28,-112,82c0,0,-46,53,-69,132c0,0,-25,77,-25,177c0,0,0,213,88,322c0,0,88,108,251,108c0,0,73,0,133,-23c0,0,58,-24,100,-69c0,0,41,-46,63,-114c0,0,21,-69,22,-159V399H233c0,0,0,-84,15,-143c0,0,15,-61,44,-99c0,0,28,-40,71,-57c0,0,40,-19,93,-19c1,0,2,0,4,0c0,0,38,0,73,9c0,0,33,9,62,24c0,0,26,14,48,34c0,0,21,18,35,40c0,0,10,-4,20,-19c0,0,9,-15,9,-33c0,0,0,-24,-16,-49c0,0,-17,-27,-50,-50C641,37,607,14,557,0c0,0,-50,-14,-118,-14Z" 
id="f0_a"
transform="scale(0.001,-0.001)" />

<path d="M58,-366v72h1c8,0,79,1,133,23c0,0,55,24,97,64c0,0,39,40,68,95c0,0,26,55,45,118L119,674c0,0,-10,23,-20,39c0,0,-10,14,-21,25c0,0,-13,9,-29,13c0,0,-17,3,-39,4H6v64H373V755h-4c0,0,-47,0,-69,-18c0,0,-24,-18,-23,-56c0,0,-1,-13,3,-25c0,0,2,-14,9,-31L401,353c0,0,9,-27,22,-57c0,0,11,-31,22,-61c0,0,9,-31,18,-57c0,0,7,-28,11,-47h4c0,0,8,34,23,82c0,0,14,48,34,103L637,614c0,0,7,19,11,36c0,0,2,16,2,30c0,0,0,38,-24,57c0,0,-26,18,-76,18h-5v64H863V755h-4c0,0,-23,0,-38,-5c0,0,-18,-6,-30,-18c0,0,-13,-14,-24,-37c0,0,-11,-24,-25,-59L510,-5c0,0,-27,-74,-50,-130c0,0,-25,-56,-50,-95c0,0,-27,-41,-57,-67c0,0,-32,-26,-71,-41c0,0,-40,-17,-91,-22c0,0,-51,-6,-119,-6Z" 
id="f0_14"
transform="scale(0.001,-0.001)" />

<path d="M518,83c0,0,50,0,86,21c0,0,35,21,58,63c0,0,23,41,33,104c0,0,10,61,11,142c0,0,-1,80,-11,142c0,0,-10,60,-33,101c0,0,-23,40,-58,60c0,0,-38,20,-88,20c0,0,-60,0,-99,-19c0,0,-41,-20,-64,-61c0,0,-24,-40,-34,-101c0,0,-10,-62,-10,-144c0,0,0,-80,10,-141c0,0,10,-62,35,-103c0,0,23,-42,64,-63c0,0,39,-21,100,-21ZM28,-366v64H40c0,0,25,0,49,4c0,0,22,3,39,16c0,0,17,11,27,33c0,0,10,21,10,58V650c0,0,0,33,-10,55c0,0,-11,20,-27,31c0,0,-18,11,-40,15c0,0,-24,3,-48,4H20v64H287L303,681h6c0,0,16,34,39,63c0,0,21,28,50,49c0,0,27,19,64,31c0,0,36,9,80,10c0,0,75,0,134,-25c0,0,58,-26,98,-76c0,0,38,-53,60,-132c0,0,20,-80,20,-190c0,0,0,-111,-20,-191c0,0,-22,-80,-60,-133c0,0,-40,-53,-98,-77c0,0,-57,-24,-131,-24c-1,0,-2,0,-3,0h-2c-8,0,-46,1,-77,10c0,0,-37,8,-65,26c0,0,-29,18,-50,43c0,0,-23,24,-39,54h-3c0,0,0,-39,0,-73c0,0,0,-15,0,-30c0,0,0,-15,0,-28c0,0,0,-14,0,-24c0,0,0,-11,0,-17V-199c0,0,0,-33,10,-54c0,0,10,-21,28,-31c0,0,17,-11,41,-14c0,0,23,-4,49,-4h5v-64Z" 
id="f0_6"
transform="scale(0.001,-0.001)" />

<path d="M433,-14c0,0,-77,0,-141,23c0,0,-64,23,-110,74c0,0,-46,50,-72,130c0,0,-26,79,-26,192c0,0,0,122,26,205c0,0,26,82,72,132c0,0,46,49,108,71c0,0,61,21,134,21c0,0,47,0,96,-9c0,0,47,-10,85,-29c0,0,38,-19,62,-49c0,0,23,-30,24,-69c0,0,0,-54,-35,-74c0,0,-35,-22,-102,-22c0,0,0,35,-6,68c0,0,-6,32,-20,56c0,0,-15,24,-39,38c0,0,-26,14,-65,14c0,0,-44,0,-79,-16c0,0,-35,-18,-61,-57c0,0,-26,-40,-39,-108c0,0,-13,-69,-13,-170c0,0,-1,-164,54,-243c0,0,54,-80,177,-80h1c6,0,72,1,123,30c0,0,52,30,79,77c0,0,11,-10,19,-24c0,0,7,-15,7,-36c0,0,0,-27,-16,-52c0,0,-17,-26,-49,-47C627,32,594,10,546,0c0,0,-48,-14,-113,-14Z" 
id="f0_b"
transform="scale(0.001,-0.001)" />

<path d="M58,0V64H78c0,0,24,0,48,4c0,0,22,3,40,13c0,0,16,10,27,32c0,0,10,20,10,53V923c0,0,0,33,-10,54c0,0,-11,20,-27,32c0,0,-18,11,-40,14c0,0,-24,3,-48,3H58v65H407L723,217l313,874h339v-65h-20c0,0,-26,0,-48,-3c0,0,-24,-4,-40,-15c0,0,-17,-13,-27,-34c0,0,-11,-21,-10,-57V174c0,0,-1,-37,10,-58c0,0,10,-21,27,-32c0,0,16,-13,40,-16c0,0,22,-4,48,-4h20V0H968V64h6c0,0,24,0,44,4c0,0,20,3,34,13c0,0,14,10,22,29c0,0,8,19,8,50V976L733,0H650L296,974V174c0,0,-1,-37,8,-58c0,0,7,-21,22,-32c0,0,13,-13,35,-16c0,0,19,-4,46,-4h4V0Z" 
id="f0_t"
transform="scale(0.001,-0.001)" />

<path d="M417,-14c0,0,-60,0,-107,16c0,0,-47,17,-79,54c0,0,-33,36,-49,93c0,0,-17,57,-17,135V650c0,0,0,33,-10,55c0,0,-11,20,-27,31c0,0,-18,11,-40,15c0,0,-24,3,-48,4H35v64H309V292c0,0,0,-51,8,-89c0,0,7,-40,26,-66c0,0,18,-27,49,-40c0,0,29,-14,74,-14c1,0,2,0,3,0c0,0,50,0,88,18c0,0,35,18,59,50c0,0,23,32,34,78c0,0,12,46,12,101V645c0,0,0,35,-10,58c0,0,-10,21,-27,33c0,0,-17,11,-39,15c0,0,-24,3,-50,4h-4v64H805V166c0,0,0,-33,10,-53c0,0,10,-22,27,-32c0,0,17,-10,41,-13c0,0,21,-4,47,-4h5V0H692L672,124h-7c0,0,-24,-44,-51,-70c0,0,-28,-28,-60,-42c0,0,-31,-15,-65,-20c0,0,-35,-6,-72,-6Z" 
id="f0_u"
transform="scale(0.001,-0.001)" />

<path d="M20,0V64H40c0,0,25,0,49,4c0,0,22,3,39,16c0,0,17,11,27,32c0,0,10,21,10,58V993c0,0,0,33,-10,54c0,0,-11,21,-27,32c0,0,-18,11,-40,15c0,0,-24,3,-48,3H20v64H309V174c0,0,-1,-37,10,-58c0,0,9,-21,26,-32c0,0,17,-13,41,-16c0,0,22,-4,48,-4h20V0Z" 
id="f0_7"
transform="scale(0.001,-0.001)" />

<path d="M367,-14c0,0,-59,0,-100,13c0,0,-42,10,-69,38c0,0,-27,27,-39,73c0,0,-14,45,-14,112V732H29v61c0,0,28,0,61,11c0,0,32,11,58,37c0,0,26,28,43,68c0,0,15,38,28,98h70V819H489V732H289V217c0,0,-1,-78,32,-115c0,0,30,-36,83,-36c0,0,1,0,1,0c0,0,2,0,6,0c9,0,28,0,45,3c0,0,23,3,47,7V9C503,9,492,4,477,0c0,0,-15,-3,-33,-6c0,0,-20,-5,-39,-6c0,0,-20,-2,-38,-2Z" 
id="f0_p"
transform="scale(0.001,-0.001)" />

<path d="M518,83c0,0,50,0,86,21c0,0,35,21,58,63c0,0,23,41,33,104c0,0,10,61,11,142c0,0,-1,80,-11,142c0,0,-10,60,-33,101c0,0,-23,40,-58,60c0,0,-38,20,-88,20c0,0,-60,0,-99,-19c0,0,-41,-20,-64,-61c0,0,-24,-40,-34,-101c0,0,-10,-62,-10,-144c0,0,0,-80,10,-141c0,0,10,-62,35,-103c0,0,23,-42,64,-63c0,0,39,-21,100,-21Zm27,-97c-1,0,-2,0,-3,0h-2c-8,0,-46,1,-77,10c0,0,-37,8,-65,26c0,0,-29,18,-50,43c0,0,-23,24,-39,54H299L272,0H28V64H40c0,0,25,0,49,4c0,0,22,3,39,16c0,0,17,11,27,32c0,0,10,21,10,58V993c0,0,0,33,-10,54c0,0,-11,21,-27,32c0,0,-18,11,-40,15c0,0,-24,3,-48,3H28v64H306V880c0,0,0,-26,0,-59c0,0,0,-35,0,-66c0,0,0,-36,0,-74h3c0,0,16,34,39,63c0,0,21,28,50,49c0,0,27,19,64,31c0,0,36,9,80,10c0,0,75,0,134,-25c0,0,58,-26,98,-76c0,0,38,-53,60,-132c0,0,20,-80,20,-190c0,0,0,-111,-20,-191c0,0,-22,-80,-60,-133c0,0,-40,-53,-98,-77c0,0,-57,-24,-131,-24Z" 
id="f0_16"
transform="scale(0.001,-0.001)" />

<path d="M490,78c0,0,90,0,160,31c0,0,67,30,113,90c0,0,45,59,69,147c0,0,22,87,22,201c0,0,0,227,-90,347c0,0,-91,120,-272,121H357V78ZM529,0c-1,0,-2,0,-3,0H58V64H78c0,0,25,0,49,4c0,0,22,3,39,16c0,0,17,11,27,32c0,0,10,21,10,58V923c0,0,0,33,-10,54c0,0,-11,20,-27,32c0,0,-18,11,-40,14c0,0,-24,3,-48,3H58v65H526c0,0,117,0,210,-36c0,0,93,-37,157,-106c0,0,63,-69,97,-171c0,0,33,-102,33,-231c0,0,0,-126,-31,-226c0,0,-32,-102,-93,-173C899,148,836,77,744,39C744,39,651,0,529,0Z" 
id="f0_17"
transform="scale(0.001,-0.001)" />

<path d="M382,-14c-2,0,-3,0,-5,0c0,0,-75,0,-131,15c0,0,-57,15,-95,44c0,0,-40,27,-58,68c0,0,-20,38,-20,87c0,0,0,45,29,75c0,0,29,27,82,28c0,0,0,-49,13,-92c0,0,12,-44,36,-77c0,0,24,-34,64,-54c0,0,38,-20,92,-20c6,0,104,0,161,50c0,0,58,49,58,142c0,0,0,41,-12,74c0,0,-13,31,-39,60c0,0,-29,26,-73,52c0,0,-46,24,-113,52c0,0,-71,29,-123,63c0,0,-54,32,-88,74c0,0,-36,39,-53,90c0,0,-17,50,-17,113c0,0,0,65,26,117c0,0,24,51,69,87c0,0,44,34,106,54c0,0,60,18,133,18c0,0,68,0,122,-14c0,0,52,-15,90,-38c0,0,36,-25,56,-54c0,0,18,-32,18,-65c0,0,0,-50,-32,-74c0,0,-33,-26,-86,-26c0,0,-1,1,-2,1c0,0,-1,35,-8,70c0,0,-9,34,-29,62c0,0,-21,27,-53,44c0,0,-34,17,-81,17c0,0,-45,0,-79,-11c0,0,-36,-13,-59,-36c0,0,-24,-23,-36,-55c0,0,-13,-33,-13,-71c0,0,-1,-47,12,-80c0,0,12,-35,40,-63c0,0,27,-28,73,-53c0,0,46,-26,112,-52c0,0,67,-28,120,-58c0,0,52,-32,89,-68c0,0,37,-39,56,-84c0,0,19,-47,19,-106c0,0,0,-73,-26,-129c0,0,-27,-59,-76,-97C651,66,602,26,533,6c0,0,-67,-20,-151,-20Z" 
id="f0_18"
transform="scale(0.001,-0.001)" />

<path d="M321,-14c0,0,-58,0,-104,11c0,0,-48,7,-80,29c0,0,-33,20,-50,51c0,0,-18,30,-18,70c0,0,0,30,10,51c0,0,10,20,25,33c0,0,14,11,31,17c0,0,16,4,30,4c0,0,0,-41,8,-75c0,0,8,-36,28,-61c0,0,18,-28,51,-42c0,0,31,-16,78,-16c0,0,41,0,72,11c0,0,31,9,53,28c0,0,21,18,32,44c0,0,11,25,11,56c0,0,0,28,-8,49c0,0,-9,20,-30,38c0,0,-21,17,-58,37c0,0,-37,18,-92,42c0,0,-59,26,-102,51c0,0,-45,23,-72,52c0,0,-29,28,-43,65c0,0,-15,35,-14,86c0,0,-1,52,21,92c0,0,20,40,58,68c0,0,38,26,91,41c0,0,52,15,118,15c0,0,54,0,96,-12c0,0,41,-11,70,-30c0,0,28,-19,43,-44c0,0,14,-27,14,-55c0,0,-1,-42,-28,-66c0,0,-29,-25,-80,-25c-1,0,-2,0,-2,0c0,0,0,76,-32,119c0,0,-32,42,-100,42c0,0,-39,0,-66,-9c0,0,-28,-9,-45,-25c0,0,-18,-17,-26,-39c0,0,-8,-22,-8,-49c0,0,0,-29,10,-50c0,0,10,-22,34,-39c0,0,22,-18,59,-35c0,0,36,-17,86,-38c0,0,60,-26,104,-50c0,0,43,-24,72,-54c0,0,27,-29,41,-65c0,0,13,-37,13,-84c0,0,-1,-60,-21,-105c0,0,-23,-45,-62,-74C539,46,499,14,445,0c0,0,-56,-14,-124,-14Z" 
id="f0_e"
transform="scale(0.001,-0.001)" />

<path d="M43,0V64H55c0,0,26,0,49,4c0,0,23,3,40,16c0,0,16,11,27,32c0,0,10,21,10,58V650c0,0,0,33,-10,55c0,0,-11,20,-28,31c0,0,-17,11,-39,15c0,0,-24,3,-49,4H51v64H298L318,695h7c0,0,23,42,51,70c0,0,25,27,56,43c0,0,29,14,63,21c0,0,32,5,69,5c0,0,60,-1,108,-17c0,0,47,-18,81,-54c0,0,32,-37,50,-93c0,0,17,-58,18,-135V174c0,0,0,-37,9,-58c0,0,7,-21,23,-32c0,0,16,-13,38,-16c0,0,21,-4,47,-4h5V0H677V527c0,0,0,50,-9,89c0,0,-10,39,-29,66c0,0,-20,26,-52,41c0,0,-33,13,-78,13c0,0,-53,0,-88,-20c0,0,-36,-20,-57,-54c0,0,-22,-35,-31,-79c0,0,-10,-45,-9,-94V166c0,0,0,-33,10,-53c0,0,10,-22,27,-32c0,0,16,-10,40,-13c0,0,22,-4,48,-4h5V0Z" 
id="f0_9"
transform="scale(0.001,-0.001)" />

<path d="M351,-291c2,0,3,0,5,0c0,0,1,0,2,0c12,0,84,1,134,15c0,0,52,13,84,38c0,0,31,23,44,58c0,0,12,34,13,74c0,0,0,35,-10,59c0,0,-11,22,-30,35c0,0,-20,12,-49,17c0,0,-29,5,-67,5H327c0,0,-33,0,-62,-5c0,0,-31,-5,-54,-20c0,0,-24,-17,-38,-44c0,0,-15,-29,-14,-74c0,0,0,-34,9,-63c0,0,9,-29,31,-50c0,0,23,-22,61,-33c0,0,35,-12,91,-12Zm34,658c0,0,1,0,1,0c0,0,37,0,64,11c0,0,24,11,42,35c0,0,15,22,23,59c0,0,7,35,7,86c0,0,0,103,-31,152c0,0,-31,49,-106,49c0,0,-74,0,-105,-50c0,0,-33,-50,-32,-153c0,0,0,-98,32,-143c0,0,32,-46,105,-46ZM353,-366c-8,0,-162,1,-239,59c0,0,-80,59,-79,164c0,0,0,45,16,78c0,0,15,34,42,58c0,0,26,22,61,38c0,0,34,14,72,21c0,0,-16,7,-31,18c0,0,-14,11,-26,27c0,0,-13,16,-20,36c0,0,-8,20,-7,45c0,0,0,45,24,79c0,0,23,32,76,64c0,0,-33,13,-58,37c0,0,-27,23,-44,54c0,0,-18,30,-27,65c0,0,-10,36,-9,74c0,0,0,66,18,119c0,0,18,51,53,89c0,0,36,36,90,56c0,0,53,18,126,19c0,0,28,-1,54,-4c0,0,26,-4,50,-11c0,0,22,-8,41,-16c0,0,18,-9,29,-19c0,0,12,12,27,27c0,0,14,14,33,27c0,0,19,12,41,20c0,0,21,7,47,8c0,0,23,-1,40,-6c0,0,17,-7,28,-17c0,0,11,-11,17,-25c0,0,5,-15,5,-31c0,0,0,-17,-4,-31c0,0,-6,-15,-15,-25c0,0,-10,-12,-25,-17c0,0,-15,-7,-36,-7c0,0,0,9,-2,18c0,0,-3,9,-8,17c0,0,-6,7,-16,13c0,0,-10,4,-25,4c0,0,-19,0,-35,-4c0,0,-16,-5,-31,-14c0,0,26,-33,44,-76c0,0,16,-44,16,-109c0,0,-1,-57,-17,-105c0,0,-17,-48,-51,-82c0,0,-35,-36,-86,-56c0,0,-52,-19,-121,-19H348c0,0,-11,0,-21,1c0,0,-10,1,-15,3c0,0,-15,-9,-29,-17c0,0,-13,-9,-23,-20c0,0,-11,-11,-16,-25c0,0,-6,-15,-6,-32c0,0,-1,-19,7,-29c0,0,7,-12,20,-18c0,0,12,-7,30,-8c0,0,17,-2,38,-2H506c0,0,68,-1,116,-17c0,0,48,-17,78,-47c0,0,30,-32,44,-73c0,0,14,-41,14,-90c0,0,-1,-67,-24,-119c0,0,-25,-53,-75,-89c0,0,-50,-38,-126,-58c0,0,-77,-20,-180,-20Z" 
id="f0_n"
transform="scale(0.001,-0.001)" />

<path d="M222,-9c-1,0,-2,0,-3,0c0,0,-1,0,-3,0c-6,0,-22,0,-35,5c0,0,-18,4,-30,16c0,0,-14,12,-21,32c0,0,-8,20,-8,49c0,0,0,30,8,50c0,0,7,19,21,32c0,0,12,11,30,17c0,0,17,5,38,5c0,0,18,0,37,-5c0,0,16,-6,30,-17c0,0,12,-13,21,-32c0,0,8,-20,8,-50c0,0,0,-29,-8,-49c0,0,-9,-20,-21,-32C286,12,272,0,256,-4c0,0,-17,-5,-34,-5Z" 
id="f0_i"
transform="scale(0.001,-0.001)" />

<path d="M435,0V856c0,0,-48,-47,-127,-93c0,0,-79,-46,-142,-69V824c0,0,113,52,197,128c0,0,85,75,120,146h86V0Z" 
id="f1_l"
transform="scale(0.001,-0.001)" />

<path d="M415,-18c0,0,-149,0,-244,83c0,0,-94,84,-107,222l140,11c0,0,16,-103,73,-154c0,0,56,-52,137,-52c0,0,98,0,165,73c0,0,66,73,66,194c0,0,0,115,-64,182c0,0,-64,66,-169,66c0,0,-65,0,-117,-29c0,0,-52,-30,-82,-77L87,517l106,562H736V951H300L241,657c0,0,99,69,207,69c0,0,143,0,242,-100c0,0,98,-99,98,-255c0,0,0,-149,-86,-257C702,114,597,-18,415,-18Z" 
id="f1_p"
transform="scale(0.001,-0.001)" />


</defs>
</svg>