<?xml version="1.0" encoding="UTF-8" standalone="no"?>
<!DOCTYPE svg PUBLIC "-//W3C//DTD SVG 1.1//EN"
"http://www.w3.org/Graphics/SVG/1.1/DTD/svg11.dtd">
<svg viewBox="0 0 909 1286" version="1.1" xmlns="http://www.w3.org/2000/svg" xmlns:xlink="http://www.w3.org/1999/xlink">
<defs>
<style type="text/css"><![CDATA[
.g0_59{
}
.g1_59{
fill: #FFFFFF;
}
]]></style>
</defs>
<g fill="#000000" >
<use xlink:href="#f0_m" transform="matrix(10,0,0,10,100.5,130.7)" />
<use xlink:href="#f0_k" transform="matrix(10,0,0,10,108.4,130.7)" />
<use xlink:href="#f0_i" transform="matrix(10,0,0,10,115.9,130.7)" />
<use xlink:href="#f0_r" transform="matrix(10,0,0,10,119.9,130.7)" />
<use xlink:href="#f1_23" transform="matrix(10,0,0,10,134.6,130.7)" />
<use xlink:href="#f1_23" transform="matrix(10,0,0,10,134.2,131.1)" />
<use xlink:href="#f1_23" transform="matrix(10,0,0,10,134.6,131.1)" />
<use xlink:href="#f1_23" transform="matrix(10,0,0,10,134.2,130.7)" />
<use xlink:href="#f0_h" transform="matrix(10,0,0,10,140.6,130.7)" />
<use xlink:href="#f0_2e" transform="matrix(10,0,0,10,145.9,130.7)" />
<use xlink:href="#f0_1x" transform="matrix(10,0,0,10,152.7,130.7)" />
<use xlink:href="#f0_2l" transform="matrix(10,0,0,10,160.4,130.7)" />
<use xlink:href="#f0_2f" transform="matrix(10,0,0,10,167.9,130.7)" />
<use xlink:href="#f1_23" transform="matrix(10,0,0,10,100.5,161)" />
<use xlink:href="#f2_4y" transform="matrix(10,0,0,10,106.7,161)" />
<use xlink:href="#f2_2e" transform="matrix(10,0,0,10,114.6,161)" />
<use xlink:href="#f2_1x" transform="matrix(10,0,0,10,119.5,161)" />
<use xlink:href="#f2_2l" transform="matrix(10,0,0,10,126.5,161)" />
<use xlink:href="#f2_2f" transform="matrix(10,0,0,10,133.8,161)" />
<use xlink:href="#f2_1x" transform="matrix(10,0,0,10,143.5,161)" />
<use xlink:href="#f2_2e" transform="matrix(10,0,0,10,150.3,161)" />
<use xlink:href="#f2_21" transform="matrix(10,0,0,10,155.5,161)" />
<use xlink:href="#f2_2g" transform="matrix(10,0,0,10,165.9,161)" />
<use xlink:href="#f2_24" transform="matrix(10,0,0,10,170.1,161)" />
<use xlink:href="#f2_21" transform="matrix(10,0,0,10,177.5,161)" />
<use xlink:href="#f2_21" transform="matrix(10,0,0,10,188.1,161)" />
<use xlink:href="#f2_28" transform="matrix(10,0,0,10,195.1,161)" />
<use xlink:href="#f2_21" transform="matrix(10,0,0,10,199.1,161)" />
<use xlink:href="#f2_1z" transform="matrix(10,0,0,10,206.1,161)" />
<use xlink:href="#f2_2g" transform="matrix(10,0,0,10,212.9,161)" />
<use xlink:href="#f2_2e" transform="matrix(10,0,0,10,216.9,161)" />
<use xlink:href="#f2_2b" transform="matrix(10,0,0,10,222.2,161)" />
<use xlink:href="#f2_29" transform="matrix(10,0,0,10,229.9,161)" />
<use xlink:href="#f2_1x" transform="matrix(10,0,0,10,241.3,161)" />
<use xlink:href="#f2_23" transform="matrix(10,0,0,10,248.1,161)" />
<use xlink:href="#f2_2a" transform="matrix(10,0,0,10,255.6,161)" />
<use xlink:href="#f2_21" transform="matrix(10,0,0,10,263.3,161)" />
<use xlink:href="#f2_2g" transform="matrix(10,0,0,10,269.9,161)" />
<use xlink:href="#f2_25" transform="matrix(10,0,0,10,274.3,161)" />
<use xlink:href="#f2_1z" transform="matrix(10,0,0,10,278.5,161)" />
<use xlink:href="#f2_2j" transform="matrix(10,0,0,10,289,161)" />
<use xlink:href="#f2_1x" transform="matrix(10,0,0,10,299.6,161)" />
<use xlink:href="#f2_2i" transform="matrix(10,0,0,10,306.6,161)" />
<use xlink:href="#f2_21" transform="matrix(10,0,0,10,313.9,161)" />
<use xlink:href="#f2_2f" transform="matrix(10,0,0,10,320.9,161)" />
<use xlink:href="#f2_2b" transform="matrix(10,0,0,10,330.6,161)" />
<use xlink:href="#f2_22" transform="matrix(10,0,0,10,338.1,161)" />
<use xlink:href="#f2_22" transform="matrix(10,0,0,10,346.9,161)" />
<use xlink:href="#f2_2e" transform="matrix(10,0,0,10,351.7,161)" />
<use xlink:href="#f2_21" transform="matrix(10,0,0,10,357,161)" />
<use xlink:href="#f2_2d" transform="matrix(10,0,0,10,363.6,161)" />
<use xlink:href="#f2_2h" transform="matrix(10,0,0,10,371.5,161)" />
<use xlink:href="#f2_21" transform="matrix(10,0,0,10,378.8,161)" />
<use xlink:href="#f2_2a" transform="matrix(10,0,0,10,385.8,161)" />
<use xlink:href="#f2_1z" transform="matrix(10,0,0,10,393.3,161)" />
<use xlink:href="#f2_2l" transform="matrix(10,0,0,10,400.1,161)" />
<use xlink:href="#f2_2e" transform="matrix(10,0,0,10,411.1,161)" />
<use xlink:href="#f2_1x" transform="matrix(10,0,0,10,416.4,161)" />
<use xlink:href="#f2_2a" transform="matrix(10,0,0,10,423.1,161)" />
<use xlink:href="#f2_23" transform="matrix(10,0,0,10,430.5,161)" />
<use xlink:href="#f2_21" transform="matrix(10,0,0,10,438.2,161)" />
<use xlink:href="#f2_n" transform="matrix(10,0,0,10,100.5,180.4)" />
<use xlink:href="#f2_6n" transform="matrix(10,0,0,10,113.1,180.4)" />
<use xlink:href="#f2_l" transform="matrix(10,0,0,10,126.7,180.4)" />
<use xlink:href="#f2_k" transform="matrix(10,0,0,10,134.6,180.4)" />
<use xlink:href="#f2_l" transform="matrix(5.8,0,0,5.8,142.3,172)" />
<use xlink:href="#f2_s" transform="matrix(5.8,0,0,5.8,146.7,172)" />
<use xlink:href="#f2_18" transform="matrix(10,0,0,10,156,180.4)" />
<use xlink:href="#f2_2m" transform="matrix(10,0,0,10,167,180.4)" />
<use xlink:href="#f2_2g" transform="matrix(10,0,0,10,178.6,180.4)" />
<use xlink:href="#f2_2b" transform="matrix(10,0,0,10,182.8,180.4)" />
<use xlink:href="#f2_p" transform="matrix(10,0,0,10,195.4,180.4)" />
<use xlink:href="#f2_6n" transform="matrix(10,0,0,10,208.3,180.4)" />
<use xlink:href="#f2_l" transform="matrix(10,0,0,10,221.7,180.4)" />
<use xlink:href="#f2_k" transform="matrix(10,0,0,10,229.5,180.4)" />
<use xlink:href="#f2_m" transform="matrix(5.8,0,0,5.8,237.1,172)" />
<use xlink:href="#f2_m" transform="matrix(5.8,0,0,5.8,241.6,172)" />
<use xlink:href="#f2_18" transform="matrix(10,0,0,10,251,180.4)" />
<use xlink:href="#f2_2m" transform="matrix(10,0,0,10,262,180.4)" />
<use xlink:href="#f2_i" transform="matrix(10,0,0,10,268.8,180.4)" />
<use xlink:href="#f1_23" transform="matrix(10,0,0,10,277.6,180.4)" />
<use xlink:href="#f2_4y" transform="matrix(10,0,0,10,283.6,180.4)" />
<use xlink:href="#f2_2e" transform="matrix(10,0,0,10,291.5,180.4)" />
<use xlink:href="#f2_1x" transform="matrix(10,0,0,10,296.5,180.4)" />
<use xlink:href="#f2_2l" transform="matrix(10,0,0,10,303.4,180.4)" />
<use xlink:href="#f2_2f" transform="matrix(10,0,0,10,310.8,180.4)" />
<use xlink:href="#f2_24" transform="matrix(10,0,0,10,321.6,180.4)" />
<use xlink:href="#f2_1x" transform="matrix(10,0,0,10,328.9,180.4)" />
<use xlink:href="#f2_2i" transform="matrix(10,0,0,10,335.9,180.4)" />
<use xlink:href="#f2_21" transform="matrix(10,0,0,10,343.2,180.4)" />
<use xlink:href="#f2_2a" transform="matrix(10,0,0,10,354.9,180.4)" />
<use xlink:href="#f2_2h" transform="matrix(10,0,0,10,362.6,180.4)" />
<use xlink:href="#f2_1z" transform="matrix(10,0,0,10,370,180.4)" />
<use xlink:href="#f2_28" transform="matrix(10,0,0,10,376.9,180.4)" />
<use xlink:href="#f2_21" transform="matrix(10,0,0,10,381,180.4)" />
<use xlink:href="#f2_1x" transform="matrix(10,0,0,10,387.8,180.4)" />
<use xlink:href="#f2_2e" transform="matrix(10,0,0,10,394.7,180.4)" />
<use xlink:href="#f2_2b" transform="matrix(10,0,0,10,404.8,180.4)" />
<use xlink:href="#f2_2e" transform="matrix(10,0,0,10,412.3,180.4)" />
<use xlink:href="#f2_25" transform="matrix(10,0,0,10,417.6,180.4)" />
<use xlink:href="#f2_23" transform="matrix(10,0,0,10,421.9,180.4)" />
<use xlink:href="#f2_25" transform="matrix(10,0,0,10,429.2,180.4)" />
<use xlink:href="#f2_2a" transform="matrix(10,0,0,10,433.4,180.4)" />
<use xlink:href="#f2_i" transform="matrix(10,0,0,10,441.1,180.4)" />
<use xlink:href="#f2_1k" transform="matrix(10,0,0,10,100.5,199.6)" />
<use xlink:href="#f2_24" transform="matrix(10,0,0,10,110.2,199.6)" />
<use xlink:href="#f2_21" transform="matrix(10,0,0,10,117.5,199.6)" />
<use xlink:href="#f2_2f" transform="matrix(10,0,0,10,124.5,199.6)" />
<use xlink:href="#f2_21" transform="matrix(10,0,0,10,130.2,199.6)" />
<use xlink:href="#f2_2e" transform="matrix(10,0,0,10,141.2,199.6)" />
<use xlink:href="#f2_1x" transform="matrix(10,0,0,10,146.3,199.6)" />
<use xlink:href="#f2_2l" transform="matrix(10,0,0,10,153.3,199.6)" />
<use xlink:href="#f2_2f" transform="matrix(10,0,0,10,160.6,199.6)" />
<use xlink:href="#f2_1x" transform="matrix(10,0,0,10,170.9,199.6)" />
<use xlink:href="#f2_2e" transform="matrix(10,0,0,10,177.7,199.6)" />
<use xlink:href="#f2_21" transform="matrix(10,0,0,10,182.6,199.6)" />
<use xlink:href="#f2_24" transform="matrix(10,0,0,10,193.6,199.6)" />
<use xlink:href="#f2_25" transform="matrix(10,0,0,10,201.3,199.6)" />
<use xlink:href="#f2_23" transform="matrix(10,0,0,10,205.5,199.6)" />
<use xlink:href="#f2_24" transform="matrix(10,0,0,10,212.9,199.6)" />
<use xlink:href="#f2_28" transform="matrix(10,0,0,10,220.6,199.6)" />
<use xlink:href="#f2_2l" transform="matrix(10,0,0,10,224.6,199.6)" />
<use xlink:href="#f2_21" transform="matrix(10,0,0,10,236.3,199.6)" />
<use xlink:href="#f2_2a" transform="matrix(10,0,0,10,243.3,199.6)" />
<use xlink:href="#f2_21" transform="matrix(10,0,0,10,250.6,199.6)" />
<use xlink:href="#f2_2e" transform="matrix(10,0,0,10,257.6,199.6)" />
<use xlink:href="#f2_23" transform="matrix(10,0,0,10,262.7,199.6)" />
<use xlink:href="#f2_21" transform="matrix(10,0,0,10,270.1,199.6)" />
<use xlink:href="#f2_2g" transform="matrix(10,0,0,10,277,199.6)" />
<use xlink:href="#f2_25" transform="matrix(10,0,0,10,281.1,199.6)" />
<use xlink:href="#f2_1z" transform="matrix(10,0,0,10,285.3,199.6)" />
<use xlink:href="#f2_1x" transform="matrix(10,0,0,10,296.5,199.6)" />
<use xlink:href="#f2_2a" transform="matrix(10,0,0,10,303.3,199.6)" />
<use xlink:href="#f2_20" transform="matrix(10,0,0,10,310.6,199.6)" />
<use xlink:href="#f2_1x" transform="matrix(10,0,0,10,322.9,199.6)" />
<use xlink:href="#f2_2e" transform="matrix(10,0,0,10,329.7,199.6)" />
<use xlink:href="#f2_21" transform="matrix(10,0,0,10,334.8,199.6)" />
<use xlink:href="#f2_2c" transform="matrix(10,0,0,10,345.6,199.6)" />
<use xlink:href="#f2_2e" transform="matrix(10,0,0,10,353.3,199.6)" />
<use xlink:href="#f2_2b" transform="matrix(10,0,0,10,358.6,199.6)" />
<use xlink:href="#f2_20" transform="matrix(10,0,0,10,366.2,199.6)" />
<use xlink:href="#f2_2h" transform="matrix(10,0,0,10,374,199.6)" />
<use xlink:href="#f2_1z" transform="matrix(10,0,0,10,381.4,199.6)" />
<use xlink:href="#f2_21" transform="matrix(10,0,0,10,388.3,199.6)" />
<use xlink:href="#f2_20" transform="matrix(10,0,0,10,395.1,199.6)" />
<use xlink:href="#f2_1y" transform="matrix(10,0,0,10,407,199.6)" />
<use xlink:href="#f2_2l" transform="matrix(10,0,0,10,414.9,199.6)" />
<use xlink:href="#f2_2g" transform="matrix(10,0,0,10,426.4,199.6)" />
<use xlink:href="#f2_24" transform="matrix(10,0,0,10,430.5,199.6)" />
<use xlink:href="#f2_21" transform="matrix(10,0,0,10,438.2,199.6)" />
<use xlink:href="#f2_2a" transform="matrix(10,0,0,10,100.5,218.7)" />
<use xlink:href="#f2_2h" transform="matrix(10,0,0,10,108,218.7)" />
<use xlink:href="#f2_1z" transform="matrix(10,0,0,10,115.7,218.7)" />
<use xlink:href="#f2_28" transform="matrix(10,0,0,10,122.5,218.7)" />
<use xlink:href="#f2_21" transform="matrix(10,0,0,10,126.7,218.7)" />
<use xlink:href="#f2_2h" transform="matrix(10,0,0,10,133.3,218.7)" />
<use xlink:href="#f2_2f" transform="matrix(10,0,0,10,141,218.7)" />
<use xlink:href="#f2_2b" transform="matrix(10,0,0,10,152,218.7)" />
<use xlink:href="#f2_22" transform="matrix(10,0,0,10,159.5,218.7)" />
<use xlink:href="#f2_2g" transform="matrix(10,0,0,10,170,218.7)" />
<use xlink:href="#f2_24" transform="matrix(10,0,0,10,174,218.7)" />
<use xlink:href="#f2_21" transform="matrix(10,0,0,10,181.7,218.7)" />
<use xlink:href="#f2_2e" transform="matrix(10,0,0,10,193.6,218.7)" />
<use xlink:href="#f2_1x" transform="matrix(10,0,0,10,198.6,218.7)" />
<use xlink:href="#f2_20" transform="matrix(10,0,0,10,205.5,218.7)" />
<use xlink:href="#f2_25" transform="matrix(10,0,0,10,213,218.7)" />
<use xlink:href="#f2_2b" transform="matrix(10,0,0,10,217.3,218.7)" />
<use xlink:href="#f2_1x" transform="matrix(10,0,0,10,225.1,218.7)" />
<use xlink:href="#f2_1z" transform="matrix(10,0,0,10,231.9,218.7)" />
<use xlink:href="#f2_2g" transform="matrix(10,0,0,10,238.7,218.7)" />
<use xlink:href="#f2_25" transform="matrix(10,0,0,10,242.8,218.7)" />
<use xlink:href="#f2_2i" transform="matrix(10,0,0,10,247,218.7)" />
<use xlink:href="#f2_21" transform="matrix(10,0,0,10,254.7,218.7)" />
<use xlink:href="#f2_2f" transform="matrix(10,0,0,10,266.8,218.7)" />
<use xlink:href="#f2_2h" transform="matrix(10,0,0,10,272.5,218.7)" />
<use xlink:href="#f2_1y" transform="matrix(10,0,0,10,280.2,218.7)" />
<use xlink:href="#f2_2f" transform="matrix(10,0,0,10,287.7,218.7)" />
<use xlink:href="#f2_2g" transform="matrix(10,0,0,10,293.7,218.7)" />
<use xlink:href="#f2_1x" transform="matrix(10,0,0,10,297.9,218.7)" />
<use xlink:href="#f2_2a" transform="matrix(10,0,0,10,304.7,218.7)" />
<use xlink:href="#f2_1z" transform="matrix(10,0,0,10,312.1,218.7)" />
<use xlink:href="#f2_21" transform="matrix(10,0,0,10,319,218.7)" />
<use xlink:href="#f2_2f" transform="matrix(10,0,0,10,325.8,218.7)" />
<use xlink:href="#f2_i" transform="matrix(10,0,0,10,331.5,218.7)" />
<use xlink:href="#f0_1l" transform="matrix(10,0,0,10,100.5,243.5)" />
<use xlink:href="#f0_2f" transform="matrix(10,0,0,10,111.5,243.5)" />
<use xlink:href="#f0_21" transform="matrix(10,0,0,10,117.5,243.5)" />
<use xlink:href="#f0_2f" transform="matrix(10,0,0,10,124.3,243.5)" />
<use xlink:href="#f0_u" transform="matrix(10,0,0,10,134.2,243.5)" />
<use xlink:href="#f1_23" transform="matrix(10,0,0,10,143.7,243.5)" />
<use xlink:href="#f2_4y" transform="matrix(10,0,0,10,150,243.5)" />
<use xlink:href="#f2_2e" transform="matrix(10,0,0,10,157.7,243.5)" />
<use xlink:href="#f2_1x" transform="matrix(10,0,0,10,162.6,243.5)" />
<use xlink:href="#f2_2l" transform="matrix(10,0,0,10,169.6,243.5)" />
<use xlink:href="#f2_2f" transform="matrix(10,0,0,10,176.9,243.5)" />
<use xlink:href="#f2_1x" transform="matrix(10,0,0,10,186.8,243.5)" />
<use xlink:href="#f2_2e" transform="matrix(10,0,0,10,193.8,243.5)" />
<use xlink:href="#f2_21" transform="matrix(10,0,0,10,198.7,243.5)" />
<use xlink:href="#f2_2h" transform="matrix(10,0,0,10,209.7,243.5)" />
<use xlink:href="#f2_2f" transform="matrix(10,0,0,10,217.4,243.5)" />
<use xlink:href="#f2_21" transform="matrix(10,0,0,10,223.1,243.5)" />
<use xlink:href="#f2_20" transform="matrix(10,0,0,10,230.1,243.5)" />
<use xlink:href="#f2_u" transform="matrix(10,0,0,10,241.8,243.5)" />
<use xlink:href="#f2_c" transform="matrix(10,0,0,10,466.6,122.6)" />
<use xlink:href="#f2_25" transform="matrix(10,0,0,10,470.8,122.6)" />
<use xlink:href="#f2_d" transform="matrix(10,0,0,10,473.9,122.6)" />
<use xlink:href="#f2_25" transform="matrix(10,0,0,10,511.3,122.6)" />
<use xlink:href="#f2_2a" transform="matrix(10,0,0,10,515.5,122.6)" />
<use xlink:href="#f2_2g" transform="matrix(10,0,0,10,526.9,122.6)" />
<use xlink:href="#f2_24" transform="matrix(10,0,0,10,530.9,122.6)" />
<use xlink:href="#f2_21" transform="matrix(10,0,0,10,538.6,122.6)" />
<use xlink:href="#f2_2g" transform="matrix(10,0,0,10,549.1,122.6)" />
<use xlink:href="#f2_2e" transform="matrix(10,0,0,10,553.3,122.6)" />
<use xlink:href="#f2_21" transform="matrix(10,0,0,10,558.6,122.6)" />
<use xlink:href="#f2_1x" transform="matrix(10,0,0,10,565.2,122.6)" />
<use xlink:href="#f2_2g" transform="matrix(10,0,0,10,572.2,122.6)" />
<use xlink:href="#f2_29" transform="matrix(10,0,0,10,576.2,122.6)" />
<use xlink:href="#f2_21" transform="matrix(10,0,0,10,587.8,122.6)" />
<use xlink:href="#f2_2a" transform="matrix(10,0,0,10,594.8,122.6)" />
<use xlink:href="#f2_2g" transform="matrix(10,0,0,10,602.1,122.6)" />
<use xlink:href="#f2_2b" transform="matrix(10,0,0,10,610.2,122.6)" />
<use xlink:href="#f2_22" transform="matrix(10,0,0,10,617.9,122.6)" />
<use xlink:href="#f2_1z" transform="matrix(10,0,0,10,626.8,122.6)" />
<use xlink:href="#f2_1x" transform="matrix(10,0,0,10,633.6,122.6)" />
<use xlink:href="#f2_2a" transform="matrix(10,0,0,10,640.4,122.6)" />
<use xlink:href="#f2_1z" transform="matrix(10,0,0,10,647.7,122.6)" />
<use xlink:href="#f2_21" transform="matrix(10,0,0,10,654.7,122.6)" />
<use xlink:href="#f2_2e" transform="matrix(10,0,0,10,661.5,122.6)" />
<use xlink:href="#f2_1x" transform="matrix(10,0,0,10,670.3,122.6)" />
<use xlink:href="#f2_2a" transform="matrix(10,0,0,10,677.3,122.6)" />
<use xlink:href="#f2_20" transform="matrix(10,0,0,10,684.6,122.6)" />
<use xlink:href="#f2_2g" transform="matrix(10,0,0,10,696.2,122.6)" />
<use xlink:href="#f2_2h" transform="matrix(10,0,0,10,700.4,122.6)" />
<use xlink:href="#f2_29" transform="matrix(10,0,0,10,707.9,122.6)" />
<use xlink:href="#f2_2b" transform="matrix(10,0,0,10,719.4,122.6)" />
<use xlink:href="#f2_2h" transform="matrix(10,0,0,10,727.3,122.6)" />
<use xlink:href="#f2_2e" transform="matrix(10,0,0,10,734.7,122.6)" />
<use xlink:href="#f2_2f" transform="matrix(10,0,0,10,739.8,122.6)" />
<use xlink:href="#f2_i" transform="matrix(10,0,0,10,745.8,122.6)" />
<use xlink:href="#f2_c" transform="matrix(10,0,0,10,466.6,147.2)" />
<use xlink:href="#f2_25" transform="matrix(10,0,0,10,470.8,147.2)" />
<use xlink:href="#f2_25" transform="matrix(10,0,0,10,474.3,147.2)" />
<use xlink:href="#f2_d" transform="matrix(10,0,0,10,477.4,147.2)" />
<use xlink:href="#f2_2g" transform="matrix(10,0,0,10,511.3,147.2)" />
<use xlink:href="#f2_2b" transform="matrix(10,0,0,10,515.5,147.2)" />
<use xlink:href="#f2_2c" transform="matrix(10,0,0,10,527.3,147.2)" />
<use xlink:href="#f2_2e" transform="matrix(10,0,0,10,535,147.2)" />
<use xlink:href="#f2_21" transform="matrix(10,0,0,10,539.9,147.2)" />
<use xlink:href="#f2_2f" transform="matrix(10,0,0,10,546.9,147.2)" />
<use xlink:href="#f2_21" transform="matrix(10,0,0,10,552.6,147.2)" />
<use xlink:href="#f2_2e" transform="matrix(10,0,0,10,559.5,147.2)" />
<use xlink:href="#f2_2i" transform="matrix(10,0,0,10,564.5,147.2)" />
<use xlink:href="#f2_21" transform="matrix(10,0,0,10,572.2,147.2)" />
<use xlink:href="#f2_2g" transform="matrix(10,0,0,10,583,147.2)" />
<use xlink:href="#f2_24" transform="matrix(10,0,0,10,587.2,147.2)" />
<use xlink:href="#f2_21" transform="matrix(10,0,0,10,594.9,147.2)" />
<use xlink:href="#f2_22" transform="matrix(10,0,0,10,605.6,147.2)" />
<use xlink:href="#f2_2b" transform="matrix(10,0,0,10,610.7,147.2)" />
<use xlink:href="#f2_2b" transform="matrix(10,0,0,10,618.2,147.2)" />
<use xlink:href="#f2_20" transform="matrix(10,0,0,10,626.1,147.2)" />
<use xlink:href="#f2_2f" transform="matrix(10,0,0,10,637.6,147.2)" />
<use xlink:href="#f2_2g" transform="matrix(10,0,0,10,643.7,147.2)" />
<use xlink:href="#f2_2h" transform="matrix(10,0,0,10,647.7,147.2)" />
<use xlink:href="#f2_22" transform="matrix(10,0,0,10,655.4,147.2)" />
<use xlink:href="#f2_22" transform="matrix(10,0,0,10,660.2,147.2)" />
<use xlink:href="#f2_2f" transform="matrix(10,0,0,10,665.3,147.2)" />
<use xlink:href="#f2_22" transform="matrix(10,0,0,10,675.4,147.2)" />
<use xlink:href="#f2_2b" transform="matrix(10,0,0,10,680.2,147.2)" />
<use xlink:href="#f2_2e" transform="matrix(10,0,0,10,688.1,147.2)" />
<use xlink:href="#f2_1x" transform="matrix(10,0,0,10,697,147.2)" />
<use xlink:href="#f2_28" transform="matrix(10,0,0,10,708,147.2)" />
<use xlink:href="#f2_2b" transform="matrix(10,0,0,10,712.3,147.2)" />
<use xlink:href="#f2_2a" transform="matrix(10,0,0,10,720.2,147.2)" />
<use xlink:href="#f2_23" transform="matrix(10,0,0,10,727.5,147.2)" />
<use xlink:href="#f2_2g" transform="matrix(10,0,0,10,739,147.2)" />
<use xlink:href="#f2_25" transform="matrix(10,0,0,10,743.3,147.2)" />
<use xlink:href="#f2_29" transform="matrix(10,0,0,10,747.5,147.2)" />
<use xlink:href="#f2_21" transform="matrix(10,0,0,10,759,147.2)" />
<use xlink:href="#f2_1x" transform="matrix(10,0,0,10,769.8,147.2)" />
<use xlink:href="#f2_2f" transform="matrix(10,0,0,10,776.8,147.2)" />
<use xlink:href="#f2_2g" transform="matrix(10,0,0,10,786.9,147.2)" />
<use xlink:href="#f2_24" transform="matrix(10,0,0,10,791.1,147.2)" />
<use xlink:href="#f2_21" transform="matrix(10,0,0,10,798.4,147.2)" />
<use xlink:href="#f2_2f" transform="matrix(10,0,0,10,809.2,147.2)" />
<use xlink:href="#f2_2b" transform="matrix(10,0,0,10,815.3,147.2)" />
<use xlink:href="#f2_22" transform="matrix(10,0,0,10,823,147.2)" />
<use xlink:href="#f2_2g" transform="matrix(10,0,0,10,827.8,147.2)" />
<use xlink:href="#f1_23" transform="matrix(10,0,0,10,511.1,172.1)" />
<use xlink:href="#f2_4y" transform="matrix(10,0,0,10,517.4,172.1)" />
<use xlink:href="#f2_2e" transform="matrix(10,0,0,10,525.3,172.1)" />
<use xlink:href="#f2_1x" transform="matrix(10,0,0,10,530.2,172.1)" />
<use xlink:href="#f2_2l" transform="matrix(10,0,0,10,537.2,172.1)" />
<use xlink:href="#f2_2f" transform="matrix(10,0,0,10,544.5,172.1)" />
<use xlink:href="#f2_1z" transform="matrix(10,0,0,10,553.3,172.1)" />
<use xlink:href="#f2_1x" transform="matrix(10,0,0,10,560.1,172.1)" />
<use xlink:href="#f2_2a" transform="matrix(10,0,0,10,566.7,172.1)" />
<use xlink:href="#f2_27" transform="matrix(10,0,0,10,576.8,172.1)" />
<use xlink:href="#f2_25" transform="matrix(10,0,0,10,584.5,172.1)" />
<use xlink:href="#f2_28" transform="matrix(10,0,0,10,588.5,172.1)" />
<use xlink:href="#f2_28" transform="matrix(10,0,0,10,592.7,172.1)" />
<use xlink:href="#f2_29" transform="matrix(10,0,0,10,600.1,172.1)" />
<use xlink:href="#f2_25" transform="matrix(10,0,0,10,611.4,172.1)" />
<use xlink:href="#f2_1z" transform="matrix(10,0,0,10,615.7,172.1)" />
<use xlink:href="#f2_2e" transform="matrix(10,0,0,10,622.6,172.1)" />
<use xlink:href="#f2_2b" transform="matrix(10,0,0,10,627.8,172.1)" />
<use xlink:href="#f2_2b" transform="matrix(10,0,0,10,635.3,172.1)" />
<use xlink:href="#f2_2e" transform="matrix(10,0,0,10,643.2,172.1)" />
<use xlink:href="#f2_23" transform="matrix(10,0,0,10,647.9,172.1)" />
<use xlink:href="#f2_1x" transform="matrix(10,0,0,10,655.6,172.1)" />
<use xlink:href="#f2_2a" transform="matrix(10,0,0,10,662.4,172.1)" />
<use xlink:href="#f2_25" transform="matrix(10,0,0,10,669.7,172.1)" />
<use xlink:href="#f2_2f" transform="matrix(10,0,0,10,674,172.1)" />
<use xlink:href="#f2_29" transform="matrix(10,0,0,10,679.8,172.1)" />
<use xlink:href="#f2_2f" transform="matrix(10,0,0,10,691.4,172.1)" />
<use xlink:href="#f2_21" transform="matrix(10,0,0,10,700,172.1)" />
<use xlink:href="#f2_1x" transform="matrix(10,0,0,10,707,172.1)" />
<use xlink:href="#f2_2f" transform="matrix(10,0,0,10,713.7,172.1)" />
<use xlink:href="#f2_25" transform="matrix(10,0,0,10,719.4,172.1)" />
<use xlink:href="#f2_28" transform="matrix(10,0,0,10,723.8,172.1)" />
<use xlink:href="#f2_2l" transform="matrix(10,0,0,10,728,172.1)" />
<use xlink:href="#f2_i" transform="matrix(10,0,0,10,734.3,172.1)" />
<use xlink:href="#f2_c" transform="matrix(10,0,0,10,466.6,196.7)" />
<use xlink:href="#f2_25" transform="matrix(10,0,0,10,470.8,196.7)" />
<use xlink:href="#f2_25" transform="matrix(10,0,0,10,473.9,196.7)" />
<use xlink:href="#f2_25" transform="matrix(10,0,0,10,477.4,196.7)" />
<use xlink:href="#f2_d" transform="matrix(10,0,0,10,480.9,196.7)" />
<use xlink:href="#f2_2g" transform="matrix(10,0,0,10,511.3,196.7)" />
<use xlink:href="#f2_2b" transform="matrix(10,0,0,10,515.5,196.7)" />
<use xlink:href="#f2_2c" transform="matrix(10,0,0,10,527.3,196.7)" />
<use xlink:href="#f2_2e" transform="matrix(10,0,0,10,535.2,196.7)" />
<use xlink:href="#f2_2b" transform="matrix(10,0,0,10,540.3,196.7)" />
<use xlink:href="#f2_20" transform="matrix(10,0,0,10,547.8,196.7)" />
<use xlink:href="#f2_2h" transform="matrix(10,0,0,10,555.7,196.7)" />
<use xlink:href="#f2_1z" transform="matrix(10,0,0,10,563,196.7)" />
<use xlink:href="#f2_21" transform="matrix(10,0,0,10,570,196.7)" />
<use xlink:href="#f2_2a" transform="matrix(10,0,0,10,581.2,196.7)" />
<use xlink:href="#f2_2h" transform="matrix(10,0,0,10,588.5,196.7)" />
<use xlink:href="#f2_1z" transform="matrix(10,0,0,10,596.2,196.7)" />
<use xlink:href="#f2_28" transform="matrix(10,0,0,10,603,196.7)" />
<use xlink:href="#f2_21" transform="matrix(10,0,0,10,607.2,196.7)" />
<use xlink:href="#f2_1x" transform="matrix(10,0,0,10,614,196.7)" />
<use xlink:href="#f2_2e" transform="matrix(10,0,0,10,620.8,196.7)" />
<use xlink:href="#f2_2e" transform="matrix(10,0,0,10,630.1,196.7)" />
<use xlink:href="#f2_21" transform="matrix(10,0,0,10,635.1,196.7)" />
<use xlink:href="#f2_1x" transform="matrix(10,0,0,10,642.1,196.7)" />
<use xlink:href="#f2_1z" transform="matrix(10,0,0,10,648.8,196.7)" />
<use xlink:href="#f2_2g" transform="matrix(10,0,0,10,655.4,196.7)" />
<use xlink:href="#f2_25" transform="matrix(10,0,0,10,659.9,196.7)" />
<use xlink:href="#f2_2b" transform="matrix(10,0,0,10,664.1,196.7)" />
<use xlink:href="#f2_2a" transform="matrix(10,0,0,10,671.8,196.7)" />
<use xlink:href="#f2_2f" transform="matrix(10,0,0,10,679.3,196.7)" />
<use xlink:href="#f2_i" transform="matrix(10,0,0,10,685,196.7)" />
<use xlink:href="#f2_c" transform="matrix(10,0,0,10,466.6,221.6)" />
<use xlink:href="#f2_25" transform="matrix(10,0,0,10,471.2,221.6)" />
<use xlink:href="#f2_2i" transform="matrix(10,0,0,10,474.8,221.6)" />
<use xlink:href="#f2_d" transform="matrix(10,0,0,10,482,221.6)" />
<use xlink:href="#f2_2g" transform="matrix(10,0,0,10,511.3,221.6)" />
<use xlink:href="#f2_2b" transform="matrix(10,0,0,10,515.5,221.6)" />
<use xlink:href="#f2_2c" transform="matrix(10,0,0,10,527.3,221.6)" />
<use xlink:href="#f2_2e" transform="matrix(10,0,0,10,535,221.6)" />
<use xlink:href="#f2_2b" transform="matrix(10,0,0,10,539.9,221.6)" />
<use xlink:href="#f2_2i" transform="matrix(10,0,0,10,547.8,221.6)" />
<use xlink:href="#f2_25" transform="matrix(10,0,0,10,555.1,221.6)" />
<use xlink:href="#f2_20" transform="matrix(10,0,0,10,559.5,221.6)" />
<use xlink:href="#f2_21" transform="matrix(10,0,0,10,567.2,221.6)" />
<use xlink:href="#f2_2i" transform="matrix(10,0,0,10,577.9,221.6)" />
<use xlink:href="#f2_1x" transform="matrix(10,0,0,10,585.6,221.6)" />
<use xlink:href="#f2_28" transform="matrix(10,0,0,10,592.4,221.6)" />
<use xlink:href="#f2_2h" transform="matrix(10,0,0,10,596.6,221.6)" />
<use xlink:href="#f2_1x" transform="matrix(10,0,0,10,603.9,221.6)" />
<use xlink:href="#f2_1y" transform="matrix(10,0,0,10,610.9,221.6)" />
<use xlink:href="#f2_28" transform="matrix(10,0,0,10,618.4,221.6)" />
<use xlink:href="#f2_21" transform="matrix(10,0,0,10,622.6,221.6)" />
<use xlink:href="#f2_25" transform="matrix(10,0,0,10,633.4,221.6)" />
<use xlink:href="#f2_2a" transform="matrix(10,0,0,10,637.7,221.6)" />
<use xlink:href="#f2_22" transform="matrix(10,0,0,10,645.4,221.6)" />
<use xlink:href="#f2_2b" transform="matrix(10,0,0,10,650.1,221.6)" />
<use xlink:href="#f2_2e" transform="matrix(10,0,0,10,658,221.6)" />
<use xlink:href="#f2_29" transform="matrix(10,0,0,10,663.1,221.6)" />
<use xlink:href="#f2_1x" transform="matrix(10,0,0,10,674.5,221.6)" />
<use xlink:href="#f2_2g" transform="matrix(10,0,0,10,681.3,221.6)" />
<use xlink:href="#f2_25" transform="matrix(10,0,0,10,685.7,221.6)" />
<use xlink:href="#f2_2b" transform="matrix(10,0,0,10,689.9,221.6)" />
<use xlink:href="#f2_2a" transform="matrix(10,0,0,10,697.4,221.6)" />
<use xlink:href="#f2_1x" transform="matrix(10,0,0,10,709.4,221.6)" />
<use xlink:href="#f2_1y" transform="matrix(10,0,0,10,716.1,221.6)" />
<use xlink:href="#f2_2b" transform="matrix(10,0,0,10,723.7,221.6)" />
<use xlink:href="#f2_2h" transform="matrix(10,0,0,10,731.5,221.6)" />
<use xlink:href="#f2_2g" transform="matrix(10,0,0,10,738.9,221.6)" />
<use xlink:href="#f2_2g" transform="matrix(10,0,0,10,747.3,221.6)" />
<use xlink:href="#f2_24" transform="matrix(10,0,0,10,751.5,221.6)" />
<use xlink:href="#f2_21" transform="matrix(10,0,0,10,758.9,221.6)" />
<use xlink:href="#f2_2f" transform="matrix(10,0,0,10,769.7,221.6)" />
<use xlink:href="#f2_2g" transform="matrix(10,0,0,10,775.7,221.6)" />
<use xlink:href="#f2_2e" transform="matrix(10,0,0,10,779.9,221.6)" />
<use xlink:href="#f2_2h" transform="matrix(10,0,0,10,785.1,221.6)" />
<use xlink:href="#f2_1z" transform="matrix(10,0,0,10,792.6,221.6)" />
<use xlink:href="#f2_2g" transform="matrix(10,0,0,10,799.2,221.6)" />
<use xlink:href="#f2_2h" transform="matrix(10,0,0,10,803.4,221.6)" />
<use xlink:href="#f2_2e" transform="matrix(10,0,0,10,810.9,221.6)" />
<use xlink:href="#f2_21" transform="matrix(10,0,0,10,816,221.6)" />
<use xlink:href="#f2_2b" transform="matrix(10,0,0,10,511.1,246.2)" />
<use xlink:href="#f2_22" transform="matrix(10,0,0,10,519,246.2)" />
<use xlink:href="#f2_1x" transform="matrix(10,0,0,10,527.3,246.2)" />
<use xlink:href="#f2_2g" transform="matrix(10,0,0,10,534.2,246.2)" />
<use xlink:href="#f2_2b" transform="matrix(10,0,0,10,538.3,246.2)" />
<use xlink:href="#f2_29" transform="matrix(10,0,0,10,546.2,246.2)" />
<use xlink:href="#f2_25" transform="matrix(10,0,0,10,557.7,246.2)" />
<use xlink:href="#f2_1z" transform="matrix(10,0,0,10,561.9,246.2)" />
<use xlink:href="#f2_2a" transform="matrix(10,0,0,10,572.2,246.2)" />
<use xlink:href="#f2_2h" transform="matrix(10,0,0,10,579.7,246.2)" />
<use xlink:href="#f2_1z" transform="matrix(10,0,0,10,587.4,246.2)" />
<use xlink:href="#f2_28" transform="matrix(10,0,0,10,594,246.2)" />
<use xlink:href="#f2_21" transform="matrix(10,0,0,10,598.4,246.2)" />
<use xlink:href="#f2_2h" transform="matrix(10,0,0,10,605.2,246.2)" />
<use xlink:href="#f2_2f" transform="matrix(10,0,0,10,612.7,246.2)" />
<use xlink:href="#f2_i" transform="matrix(10,0,0,10,618.4,246.2)" />
</g>
<path fill-rule="evenodd" d="M92.2,109.8h92.1v33.6H92.2V109.8l2.2,31.4h87.5v-29H94.4v29L92.2,109.8Z" class="g0_59" />
<path fill-rule="evenodd" d="M53.9,69.5H856.2V97.9H53.9V69.5l1.5,26.8H854.5V71H55.4V96.3L53.9,69.5Z" class="g1_59" />
<g fill="#000000" >
<use xlink:href="#f3_15" transform="matrix(10,0,0,10,772.4,87.6)" />
<use xlink:href="#f3_1d" transform="matrix(10,0,0,10,783.4,87.6)" />
<use xlink:href="#f3_19" transform="matrix(10,0,0,10,797.7,87.6)" />
<use xlink:href="#f3_a" transform="matrix(10,0,0,10,808.9,87.6)" />
<use xlink:href="#f3_11" transform="matrix(10,0,0,10,826.1,87.6)" />
<use xlink:href="#f3_13" transform="matrix(10,0,0,10,836.9,87.6)" />
</g>
<path fill-rule="evenodd" d="M55.2,94.6H854.7v3.1H55.2V94.6Z" class="g0_59" />
<path fill-rule="evenodd" d="M55.2,69.7H854.7v3.1H55.2V69.7Z" class="g0_59" />
<path fill-rule="evenodd" d="M453.6,1177.5V98.8h2.1V1177.5h-2.1Z" class="g0_59" />
<image preserveAspectRatio="none" x="27" y="1170" width="195" height="44" xlink:href="img/1.png" />
<path fill-rule="evenodd" d="M56,1177.4H854.8v2.3H56v-2.3Z" class="g0_59" />
<defs>
<path d="M37,0V16c0,0,275,327,333,439c0,0,59,113,59,220c0,0,0,79,-49,131c0,0,-49,52,-119,52c0,0,-115,0,-178,-115l-28,9c0,0,40,143,123,212c0,0,82,69,189,69c0,0,77,0,141,-36c0,0,63,-36,99,-98c0,0,36,-63,36,-117c0,0,0,-99,-56,-202c0,0,-75,-138,-329,-384H477c0,0,81,0,105,6c0,0,24,7,40,23c0,0,15,16,41,67h27L633,0Z" 
id="f0_m"
transform="scale(0.001,-0.001)" />

<path d="M383,34c0,0,38,0,56,24c0,0,32,42,36,129l3,320c0,0,0,266,-3,310c0,0,-7,103,-36,140c0,0,-18,24,-60,24c0,0,-32,0,-51,-18c0,0,-28,-26,-38,-92c0,0,-9,-66,-9,-460c0,0,0,-215,15,-288c0,0,11,-53,32,-71c0,0,21,-18,55,-18Zm-2,-54c0,0,-73,0,-132,37c0,0,-59,37,-105,106c0,0,-33,51,-57,135c0,0,-32,114,-32,236c0,0,0,165,46,303c0,0,38,114,116,175c0,0,77,61,164,61c0,0,88,0,165,-61c0,0,76,-60,112,-161c0,0,50,-139,50,-305c0,0,0,-151,-42,-283c0,0,-26,-80,-69,-132c0,0,-43,-51,-97,-81c0,0,-55,-30,-119,-30Z" 
id="f0_k"
transform="scale(0.001,-0.001)" />

<path d="M191,-18c0,0,-51,0,-87,36c0,0,-37,36,-37,87c0,0,0,52,37,88c0,0,36,37,87,37c0,0,52,0,89,-37c0,0,36,-36,36,-88c0,0,0,-51,-37,-87c0,0,-36,-36,-88,-36Z" 
id="f0_i"
transform="scale(0.001,-0.001)" />

<path d="M271,-20L546,815H337c0,0,-123,0,-185,-33c0,0,-43,-22,-71,-84H52l73,314H729L388,-20Z" 
id="f0_r"
transform="scale(0.001,-0.001)" />

<path d="M263,-328c0,0,-25,0,-44,20c0,0,-19,21,-19,54c0,0,0,57,23,132c0,0,23,75,69,168c0,0,-55,382,-87,461c0,0,-32,79,-90,79c0,0,-35,0,-55,-22c0,0,-20,-21,-31,-96H0c0,0,0,23,0,34c0,0,0,103,39,155c0,0,31,39,83,39c0,0,44,0,73,-27c0,0,39,-38,69,-165c0,0,39,-166,61,-361l65,222c0,0,44,149,114,318H628c0,0,-12,-26,-123,-255c0,0,-46,-95,-66,-144c0,0,-9,-21,-20,-44L333,56c0,0,5,-48,7,-87c0,0,3,-40,3,-73c0,0,0,-101,-15,-157c0,0,-11,-38,-28,-53c0,0,-17,-14,-37,-14Z" 
id="f1_23"
transform="scale(0.001,-0.001)" />

<path d="M37,274V428H473V274Z" 
id="f0_h"
transform="scale(0.001,-0.001)" />

<path d="M57,0V26c0,0,45,4,61,25c0,0,16,22,16,113V550c0,0,0,59,-6,76c0,0,-7,21,-22,30c0,0,-14,10,-49,14v27H342l1,-158c0,0,69,109,121,144c0,0,52,36,100,36c0,0,42,0,66,-26c0,0,25,-26,25,-73c0,0,0,-50,-24,-77c0,0,-25,-28,-59,-28c0,0,-39,0,-68,25c0,0,-28,26,-33,29c0,0,-8,4,-17,4c0,0,-22,0,-41,-16c0,0,-31,-26,-46,-73c0,0,-24,-72,-24,-159V122c0,0,0,-42,5,-54c0,0,9,-21,27,-30c0,0,17,-9,59,-12V0Z" 
id="f0_2e"
transform="scale(0.001,-0.001)" />

<path d="M350,115c0,0,37,0,86,42V391c0,0,-90,-53,-134,-113c0,0,-29,-41,-29,-82c0,0,0,-34,24,-60c0,0,19,-21,53,-21ZM207,-9c0,0,-59,0,-99,38c0,0,-40,40,-40,99c0,0,0,80,69,143c0,0,69,64,299,170v70c0,0,0,79,-8,100c0,0,-9,20,-33,36c0,0,-23,15,-53,15c0,0,-49,0,-80,-22c0,0,-19,-13,-19,-31c0,0,0,-16,21,-39c0,0,28,-32,28,-62c0,0,0,-36,-27,-62c0,0,-27,-26,-71,-26c0,0,-47,0,-79,29c0,0,-32,28,-32,66c0,0,0,54,43,103c0,0,42,48,118,75c0,0,76,26,158,26c0,0,99,0,157,-42c0,0,58,-43,75,-92c0,0,11,-31,11,-144V170c0,0,0,-47,3,-60c0,0,4,-12,11,-18c0,0,8,-6,18,-6c0,0,19,0,39,28L738,96c0,0,-37,-56,-77,-81c0,0,-40,-24,-90,-24c0,0,-60,0,-94,27c0,0,-33,28,-41,85C436,103,309,-9,207,-9Z" 
id="f0_1x"
transform="scale(0.001,-0.001)" />

<path d="M182,-328c0,0,-62,0,-101,35c0,0,-38,35,-38,85c0,0,0,44,26,72c0,0,27,28,66,28c0,0,37,0,60,-23c0,0,22,-24,23,-74c0,0,1,-29,7,-37c0,0,6,-8,17,-8c0,0,18,0,38,21c0,0,30,32,70,144l22,57L146,488c0,0,-50,118,-74,144c0,0,-25,27,-59,38v27H384V670c0,0,-36,-2,-51,-14c0,0,-15,-13,-15,-31c0,0,0,-28,37,-112L475,239l81,212c0,0,44,113,44,157c0,0,0,27,-18,44c0,0,-18,16,-65,18v27H750V670c0,0,-34,-4,-56,-27c0,0,-22,-22,-72,-155L422,-27c0,0,-75,-194,-111,-239c0,0,-52,-62,-129,-62Z" 
id="f0_2l"
transform="scale(0.001,-0.001)" />

<path d="M312,-20c0,0,-50,0,-134,30c0,0,-22,9,-30,9c0,0,-25,0,-41,-37H82L70,232H97c0,0,33,-99,91,-148c0,0,59,-49,111,-49c0,0,35,0,58,22c0,0,22,22,22,54c0,0,0,35,-22,61c0,0,-22,27,-100,80c0,0,-114,79,-147,120c0,0,-49,62,-49,136c0,0,0,80,55,145c0,0,56,66,161,66c0,0,56,0,109,-28c0,0,20,-11,33,-11c0,0,13,0,21,5c0,0,9,6,27,32h26L504,479H477c0,0,-45,106,-94,145c0,0,-48,39,-96,39c0,0,-31,0,-52,-21c0,0,-22,-20,-22,-47c0,0,0,-20,15,-39c0,0,24,-30,133,-105c0,0,110,-74,144,-126c0,0,35,-52,35,-116c0,0,0,-58,-29,-114C511,95,482,39,429,9c0,0,-53,-29,-117,-29Z" 
id="f0_2f"
transform="scale(0.001,-0.001)" />

<path d="M-12,338v55H777V338Z" 
id="f2_4y"
transform="scale(0.001,-0.001)" />

<path d="M17,0V26c0,0,52,0,77,17c0,0,19,12,26,38c0,0,4,13,4,73V419c0,0,0,119,-5,142c0,0,-4,23,-17,33c0,0,-13,11,-33,11c0,0,-23,0,-52,-11l-7,26l207,83h31V549c0,0,86,154,176,154c0,0,41,0,68,-25c0,0,27,-25,27,-58c0,0,0,-29,-20,-49c0,0,-19,-20,-46,-20c0,0,-26,0,-58,25c0,0,-33,26,-48,26c0,0,-14,0,-29,-15c0,0,-34,-30,-70,-101V159c0,0,0,-56,15,-85c0,0,9,-20,34,-34c0,0,24,-14,71,-14V0Z" 
id="f2_2e"
transform="scale(0.001,-0.001)" />

<path d="M286,72c0,0,57,0,149,75V407c0,0,-113,-45,-145,-64c0,0,-59,-32,-85,-68c0,0,-25,-36,-25,-78c0,0,0,-54,32,-89c0,0,32,-36,74,-36ZM217,-13c0,0,-71,0,-116,48c0,0,-46,48,-46,127c0,0,0,50,22,87c0,0,31,50,106,95c0,0,76,45,252,109v26c0,0,0,102,-32,140c0,0,-32,38,-94,38c0,0,-47,0,-74,-25c0,0,-28,-25,-28,-58l1,-43c0,0,0,-34,-17,-53c0,0,-18,-18,-47,-18c0,0,-28,0,-45,19c0,0,-18,19,-18,53c0,0,0,64,66,117c0,0,65,54,184,54c0,0,91,0,149,-31c0,0,44,-23,65,-72c0,0,13,-32,13,-131V238c0,0,0,-98,4,-120c0,0,4,-22,12,-29c0,0,9,-8,20,-8c0,0,12,0,21,5c0,0,16,10,61,55V99C676,99,592,-12,516,-12c0,0,-37,0,-58,24c0,0,-22,26,-23,86C435,98,330,17,303,5c0,0,-40,-18,-86,-18Z" 
id="f2_1x"
transform="scale(0.001,-0.001)" />

<path d="M145,-328c0,0,-44,0,-73,25c0,0,-28,25,-28,58c0,0,0,31,21,50c0,0,20,19,56,19c0,0,25,0,67,-16c0,0,30,-11,38,-11c0,0,22,0,49,23c0,0,26,23,53,89L376,28L131,542c0,0,-11,24,-36,58c0,0,-19,27,-30,36c0,0,-18,12,-56,21v26H328V657H312c0,0,-33,0,-50,-15c0,0,-17,-14,-17,-36c0,0,0,-30,25,-81L437,179L589,557c0,0,12,31,12,62c0,0,0,13,-5,20c0,0,-6,8,-19,13c0,0,-12,5,-44,5v26H754V657c0,0,-27,-3,-42,-12c0,0,-15,-9,-33,-34c0,0,-7,-10,-25,-58L376,-128c0,0,-40,-99,-105,-150c0,0,-66,-50,-126,-50Z" 
id="f2_2l"
transform="scale(0.001,-0.001)" />

<path d="M312,-20c0,0,-62,0,-143,22c0,0,-25,8,-40,8c0,0,-18,0,-27,-19H77V234h25c0,0,21,-105,80,-158c0,0,59,-53,132,-53c0,0,51,0,84,31c0,0,32,30,32,72c0,0,0,52,-36,87c0,0,-36,35,-144,88c0,0,-109,54,-142,97c0,0,-34,43,-34,107c0,0,0,85,58,141c0,0,58,57,150,57c0,0,40,0,97,-17c0,0,38,-11,51,-11c0,0,12,0,19,5c0,0,7,5,15,23h25V470H464c0,0,-28,110,-72,149c0,0,-45,40,-113,40c0,0,-53,0,-85,-28c0,0,-32,-27,-32,-61c0,0,0,-41,24,-71c0,0,23,-31,94,-65L389,381c0,0,152,-74,152,-194c0,0,0,-94,-71,-151c0,0,-70,-56,-158,-56Z" 
id="f2_2f"
transform="scale(0.001,-0.001)" />

<path d="M479,469c0,0,-4,66,-16,93c0,0,-18,42,-55,65c0,0,-37,24,-78,24c0,0,-62,0,-111,-48c0,0,-48,-48,-57,-134ZM355,-20c0,0,-123,0,-211,95c0,0,-87,96,-87,258c0,0,0,175,90,273c0,0,89,98,225,98c0,0,115,0,189,-76c0,0,74,-75,74,-202H162c0,0,0,-152,74,-239c0,0,75,-86,175,-86c0,0,67,0,117,36c0,0,50,37,83,127l24,-15c0,0,-16,-102,-91,-186c0,0,-76,-83,-189,-83Z" 
id="f2_21"
transform="scale(0.001,-0.001)" />

<path d="M255,-10c0,0,-35,0,-68,18c0,0,-32,19,-48,55c0,0,-16,35,-16,109V632H15v24c0,0,41,16,84,56c0,0,43,39,77,92c0,0,17,29,48,104h23V683H407V632H247V188c0,0,0,-66,19,-90c0,0,19,-23,49,-23c0,0,24,0,47,16c0,0,23,15,36,45h29c0,0,-26,-73,-74,-110c0,0,-47,-36,-98,-36Z" 
id="f2_2g"
transform="scale(0.001,-0.001)" />

<path d="M20,0V26c0,0,45,0,71,15c0,0,15,7,24,28c0,0,9,21,9,85V773c0,0,0,117,-5,144c0,0,-6,27,-17,37c0,0,-12,9,-31,9c0,0,-16,0,-51,-12L10,978l204,83h34V561c0,0,83,91,131,116c0,0,49,26,97,26c0,0,58,0,100,-32c0,0,42,-32,62,-101c0,0,14,-47,14,-174V154c0,0,0,-65,11,-89c0,0,7,-18,25,-28c0,0,18,-11,66,-11V0H418V26h15c0,0,48,0,67,15c0,0,18,15,26,43c0,0,2,12,2,70V396c0,0,0,112,-12,147c0,0,-11,35,-36,53c0,0,-26,17,-61,17c0,0,-37,0,-76,-19c0,0,-40,-20,-95,-79V154c0,0,0,-70,8,-87c0,0,8,-17,29,-29c0,0,22,-12,74,-12V0Z" 
id="f2_24"
transform="scale(0.001,-0.001)" />

<path d="M58,0V26c0,0,47,0,64,10c0,0,18,10,28,32c0,0,9,23,9,86V775c0,0,0,116,-5,142c0,0,-5,27,-17,37c0,0,-11,9,-29,9c0,0,-20,0,-49,-12L46,978l204,83h34V154c0,0,0,-64,9,-85c0,0,9,-21,29,-32c0,0,19,-11,72,-11V0Z" 
id="f2_28"
transform="scale(0.001,-0.001)" />

<path d="M342,-20c0,0,-116,0,-203,97c0,0,-86,98,-86,264c0,0,0,161,96,261c0,0,95,101,230,101c0,0,100,0,165,-53c0,0,65,-54,65,-111c0,0,0,-29,-18,-46c0,0,-18,-18,-51,-18c0,0,-44,0,-66,29c0,0,-13,15,-17,59c0,0,-4,45,-30,68c0,0,-26,22,-73,22c0,0,-74,0,-120,-55c0,0,-60,-73,-60,-193c0,0,0,-122,60,-216c0,0,60,-93,162,-93c0,0,73,0,131,49c0,0,41,35,80,126l22,-10C629,261,601,125,521,52c0,0,-81,-72,-179,-72Z" 
id="f2_1z"
transform="scale(0.001,-0.001)" />

<path d="M406,32c0,0,72,0,119,60c0,0,47,59,47,205c0,0,0,181,-78,286c0,0,-53,71,-135,71c0,0,-40,0,-79,-23c0,0,-40,-24,-65,-83c0,0,-24,-58,-24,-151c0,0,0,-149,59,-257c0,0,59,-108,156,-108ZM374,-20c0,0,-154,0,-245,122c0,0,-77,104,-77,233c0,0,0,94,46,187c0,0,47,92,123,137c0,0,76,44,161,44c0,0,155,0,249,-118c0,0,80,-100,80,-231c0,0,0,-91,-44,-185C667,169,623,75,546,27c0,0,-77,-47,-172,-47Z" 
id="f2_2b"
transform="scale(0.001,-0.001)" />

<path d="M23,0V26c0,0,47,0,66,10c0,0,19,11,28,33c0,0,10,22,10,85V416c0,0,0,112,-7,145c0,0,-5,25,-16,34c0,0,-11,10,-31,10c0,0,-21,0,-50,-11L12,620l207,83h32V557c0,0,75,75,88,86c0,0,34,29,72,44c0,0,39,16,77,16c0,0,64,0,110,-37c0,0,47,-38,62,-109c0,0,77,90,130,118c0,0,53,28,109,28c0,0,54,0,96,-28c0,0,42,-28,67,-91c0,0,16,-43,16,-136V154c0,0,0,-64,10,-88c0,0,8,-16,28,-28c0,0,20,-12,65,-12V0H844V26h14c0,0,44,0,69,18c0,0,17,12,24,38c0,0,3,13,3,72V448c0,0,0,83,-20,117c0,0,-29,48,-93,48c0,0,-39,0,-79,-20c0,0,-40,-19,-97,-73l-1,-8l2,-32V154c0,0,0,-70,8,-87c0,0,7,-17,29,-29c0,0,21,-12,73,-12V0H431V26c0,0,57,0,78,14c0,0,21,13,29,40c0,0,4,13,4,74V448c0,0,0,83,-25,120c0,0,-33,48,-91,48c0,0,-40,0,-80,-22c0,0,-61,-33,-95,-74V154c0,0,0,-67,10,-87c0,0,9,-20,27,-30c0,0,18,-11,74,-11V0Z" 
id="f2_29"
transform="scale(0.001,-0.001)" />

<path d="M411,-239c0,0,134,0,198,48c0,0,64,47,64,100c0,0,0,39,-38,55c0,0,-39,16,-154,19c0,0,-167,5,-258,17c0,0,-35,-37,-53,-70c0,0,-17,-32,-17,-60c0,0,0,-36,43,-62c0,0,74,-47,215,-47ZM380,257c0,0,56,0,93,43c0,0,36,42,36,133c0,0,0,118,-51,185c0,0,-38,49,-98,49c0,0,-55,0,-92,-44c0,0,-37,-44,-37,-135c0,0,0,-117,50,-182c0,0,39,-49,99,-49ZM345,-328c0,0,-144,0,-243,64c0,0,-56,38,-56,78c0,0,0,18,8,36c0,0,13,27,52,76c0,0,5,7,76,80c0,0,-39,23,-55,41c0,0,-16,19,-16,42c0,0,0,26,22,61c0,0,21,35,98,100c0,0,-63,30,-97,85c0,0,-33,55,-33,121c0,0,0,101,76,174c0,0,77,73,196,73c0,0,98,0,170,-48H688c0,0,32,0,37,-2c0,0,6,-2,8,-6c0,0,4,-7,4,-24c0,0,0,-20,-4,-27c0,0,-2,-4,-7,-6c0,0,-6,-2,-38,-2H599c0,0,41,-54,41,-137c0,0,0,-96,-73,-163c0,0,-73,-68,-196,-68c0,0,-51,0,-104,15c0,0,-33,-28,-44,-49c0,0,-12,-22,-12,-37c0,0,0,-12,13,-24c0,0,12,-12,48,-17c0,0,21,-4,104,-6c0,0,154,-4,199,-11c0,0,70,-10,111,-51c0,0,42,-41,42,-102c0,0,0,-84,-79,-158c0,0,-117,-108,-304,-108Z" 
id="f2_23"
transform="scale(0.001,-0.001)" />

<path d="M21,0V26H35c0,0,53,0,71,27c0,0,18,27,18,101V408c0,0,0,123,-5,150c0,0,-6,27,-17,37c0,0,-12,10,-31,10c0,0,-21,0,-50,-11L10,620l206,83h32V558c0,0,120,145,229,145c0,0,56,0,96,-28c0,0,40,-28,64,-92c0,0,16,-45,16,-137V154c0,0,0,-65,11,-88c0,0,8,-19,26,-29c0,0,18,-11,68,-11V0H419V26h14c0,0,47,0,66,15c0,0,20,15,27,43c0,0,3,11,3,70V434c0,0,0,93,-24,135c0,0,-24,42,-81,42c0,0,-88,0,-176,-97V154c0,0,0,-69,9,-86c0,0,10,-21,28,-31c0,0,19,-11,75,-11V0Z" 
id="f2_2a"
transform="scale(0.001,-0.001)" />

<path d="M55,0V26c0,0,50,0,67,10c0,0,17,10,27,32c0,0,10,23,10,86V418c0,0,0,111,-6,144c0,0,-6,24,-17,33c0,0,-11,10,-30,10c0,0,-21,0,-51,-11L45,620l206,83h33V154c0,0,0,-64,9,-85c0,0,9,-22,27,-32c0,0,19,-11,67,-11V0ZM222,909c0,0,-32,0,-54,23c0,0,-22,22,-22,53c0,0,0,32,22,54c0,0,22,22,54,22c0,0,31,0,53,-22c0,0,22,-22,22,-54c0,0,0,-31,-22,-53c0,0,-22,-23,-53,-23Z" 
id="f2_25"
transform="scale(0.001,-0.001)" />

<path d="M336,-20L117,554c0,0,-21,55,-42,74c0,0,-21,19,-66,29v26H296V657c0,0,-40,-3,-52,-14c0,0,-13,-12,-13,-33c0,0,0,-23,13,-56L390,162L537,481L498,581c0,0,-18,46,-47,63c0,0,-17,11,-61,13v26H716V657c0,0,-54,-2,-77,-20c0,0,-15,-12,-15,-39c0,0,0,-15,6,-30L785,177L929,554c0,0,15,40,15,65c0,0,0,14,-15,25c0,0,-14,12,-57,13v26h216V657c0,0,-65,-10,-95,-89L764,-20H733L563,415L363,-20Z" 
id="f2_2j"
transform="scale(0.001,-0.001)" />

<path d="M376,-20L133,556c0,0,-17,41,-31,58c0,0,-15,18,-39,30c0,0,-12,7,-50,13v26H335V657H314c0,0,-29,0,-44,-14c0,0,-16,-14,-15,-38c0,0,-1,-26,15,-62L429,165L588,557c0,0,17,42,17,64c0,0,0,10,-6,17c0,0,-8,11,-21,15c0,0,-13,4,-52,4v26H750V657c0,0,-39,-3,-54,-16c0,0,-26,-23,-47,-76L409,-20Z" 
id="f2_2i"
transform="scale(0.001,-0.001)" />

<path d="M63,0V26H93c0,0,30,0,54,15c0,0,25,15,34,41c0,0,10,25,10,99V630H58v53H191v45c0,0,0,102,33,173c0,0,32,71,100,114c0,0,68,44,152,44c0,0,79,0,145,-51c0,0,43,-33,43,-75c0,0,0,-22,-19,-42c0,0,-20,-20,-42,-20c0,0,-17,0,-36,12c0,0,-19,13,-47,53c0,0,-28,41,-51,55c0,0,-23,14,-51,14c0,0,-35,0,-58,-18c0,0,-24,-18,-35,-57c0,0,-10,-38,-10,-197V683H491V630H315V181c0,0,0,-96,21,-122c0,0,27,-33,73,-33h62V0Z" 
id="f2_22"
transform="scale(0.001,-0.001)" />

<path d="M384,85c0,0,44,0,78,19c0,0,35,19,68,62V487c0,0,0,55,-15,87c0,0,-14,33,-51,55c0,0,-38,22,-85,22c0,0,-84,0,-143,-71c0,0,-60,-70,-60,-214c0,0,0,-138,61,-209c0,0,61,-72,147,-72Zm35,-411v27h15c0,0,41,0,63,12c0,0,15,8,24,30c0,0,9,21,9,83V119C530,119,462,39,411,9c0,0,-50,-29,-105,-29c0,0,-99,0,-177,90c0,0,-78,90,-78,241c0,0,0,174,103,283c0,0,103,109,248,109c0,0,43,0,78,-12c0,0,36,-12,65,-35c0,0,43,20,83,47h25V-174c0,0,0,-66,9,-85c0,0,9,-19,28,-30c0,0,19,-10,74,-10v-27Z" 
id="f2_2d"
transform="scale(0.001,-0.001)" />

<path d="M292,-20c0,0,-57,0,-100,33c0,0,-42,33,-58,85c0,0,-17,52,-17,148V551c0,0,0,49,-10,68c0,0,-11,18,-31,29c0,0,-19,9,-68,9c-2,0,-4,0,-6,0v26H242V226c0,0,0,-95,33,-125c0,0,33,-30,80,-30c0,0,32,0,73,21c0,0,40,20,96,76V555c0,0,0,59,-21,80c0,0,-22,21,-89,22v26H647V269c0,0,0,-119,6,-145c0,0,6,-27,18,-37c0,0,12,-11,29,-11c0,0,23,0,52,13L763,63L558,-20H524V124C524,124,436,29,390,4c0,0,-47,-24,-98,-24Z" 
id="f2_2h"
transform="scale(0.001,-0.001)" />

<path d="M238,-17c0,0,-103,0,-139,25C99,8,62,33,62,62c0,0,0,22,17,38c0,0,18,16,42,16c0,0,19,0,38,-6c0,0,13,-3,58,-27c0,0,45,-23,62,-28c0,0,27,-8,59,-8c0,0,76,0,132,59c0,0,56,59,56,140c0,0,0,59,-26,115c0,0,-19,41,-42,63c0,0,-32,30,-88,54c0,0,-56,25,-114,25H232v22c0,0,59,8,118,42c0,0,59,35,86,85c0,0,27,49,27,108c0,0,0,76,-48,124c0,0,-48,47,-120,47c0,0,-116,0,-193,-124L77,819c0,0,44,102,110,158c0,0,66,56,164,56c0,0,122,0,187,-80c0,0,49,-58,49,-126c0,0,0,-110,-139,-228c0,0,93,-36,141,-104c0,0,48,-68,48,-160c0,0,0,-131,-84,-227C553,108,444,-17,238,-17Z" 
id="f2_n"
transform="scale(0.001,-0.001)" />

<path d="M693,201L428,466L166,203l-44,41L386,509L122,772l45,42L429,552L692,816l43,-43L471,510L736,245L693,201Z" 
id="f2_6n"
transform="scale(0.001,-0.001)" />

<path d="M197,0V27c0,0,71,2,92,13c0,0,21,10,29,29c0,0,9,18,9,109V725c0,0,0,110,-8,141c0,0,-5,24,-19,35c0,0,-14,11,-33,11c0,0,-28,0,-77,-23l-11,23l246,121h25V178c0,0,0,-85,7,-106c0,0,7,-21,29,-32c0,0,23,-11,91,-13V0Z" 
id="f2_l"
transform="scale(0.001,-0.001)" />

<path d="M379,29c0,0,41,0,84,37c0,0,43,36,65,121c0,0,34,128,34,362c0,0,0,173,-35,288c0,0,-27,86,-69,122c0,0,-31,25,-74,25c0,0,-51,0,-90,-46c0,0,-54,-62,-73,-195c0,0,-20,-132,-20,-261c0,0,0,-209,52,-341c0,0,42,-112,126,-112Zm-2,-46c0,0,-145,0,-241,170c0,0,-81,144,-81,347c0,0,0,173,52,298c0,0,52,125,139,186c0,0,67,49,139,49c0,0,116,0,208,-119c0,0,116,-147,116,-398c0,0,0,-176,-51,-299C658,217,608,94,529,38c0,0,-79,-55,-152,-55Z" 
id="f2_k"
transform="scale(0.001,-0.001)" />

<path d="M394,23c0,0,80,0,129,45c0,0,48,45,48,110c0,0,0,54,-28,97c0,0,-53,79,-214,206c0,0,-62,-52,-92,-114c0,0,-30,-61,-30,-133c0,0,0,-96,53,-154c0,0,52,-57,134,-57Zm17,566c0,0,90,81,114,128c0,0,24,46,24,105c0,0,0,79,-44,123c0,0,-44,45,-121,45c0,0,-76,0,-124,-45c0,0,-48,-44,-48,-103c0,0,0,-38,20,-77c0,0,20,-39,56,-74L411,589ZM382,-17c0,0,-144,0,-225,90c0,0,-64,72,-64,158c0,0,0,67,45,133c0,0,45,66,156,146c0,0,-121,98,-156,158c0,0,-34,59,-34,124c0,0,0,98,76,169c0,0,76,72,202,72c0,0,123,0,198,-67c0,0,74,-66,74,-151c0,0,0,-57,-40,-116c0,0,-40,-59,-168,-139c0,0,132,-101,174,-159c0,0,57,-76,57,-161c0,0,0,-106,-82,-182c0,0,-81,-75,-213,-75Z" 
id="f2_s"
transform="scale(0.001,-0.001)" />

<path d="M26,0V27H62c0,0,63,0,91,37c0,0,18,24,18,115V833c0,0,0,77,-10,102c0,0,-7,18,-30,32c0,0,-33,18,-69,18H26v27H459V985H422c0,0,-35,0,-67,-17c0,0,-23,-12,-32,-36c0,0,-9,-25,-9,-99V542H784V833c0,0,0,77,-10,102c0,0,-8,18,-31,32c0,0,-33,18,-68,18H639v27h432V985h-36c0,0,-36,0,-68,-17c0,0,-24,-12,-32,-36c0,0,-9,-25,-9,-99V179c0,0,0,-77,10,-102c0,0,7,-18,31,-32c0,0,32,-18,68,-18h36V0H639V27h36c0,0,62,0,90,37c0,0,19,24,19,115V487H314V179c0,0,0,-77,9,-102c0,0,8,-18,32,-32c0,0,32,-18,67,-18h37V0Z" 
id="f2_18"
transform="scale(0.001,-0.001)" />

<path d="M30,0V27L485,632H260c0,0,-72,0,-94,-10c0,0,-22,-9,-36,-35c0,0,-20,-37,-23,-92H76l5,188H654V656L196,51H445c0,0,79,0,106,13c0,0,28,13,45,46c0,0,12,23,21,100h25L634,0Z" 
id="f2_2m"
transform="scale(0.001,-0.001)" />

<path d="M247,-17c0,0,-91,0,-132,30c0,0,-42,31,-42,68c0,0,0,21,17,37c0,0,18,16,44,17c0,0,19,0,34,-6c0,0,14,-7,49,-31c0,0,56,-39,113,-39c0,0,88,0,154,66c0,0,66,66,66,161c0,0,0,92,-59,171c0,0,-59,80,-163,123c0,0,-81,34,-221,39l194,393H663L605,885H301L234,750c0,0,198,-29,313,-147c0,0,100,-102,100,-239c0,0,0,-80,-33,-148c0,0,-32,-68,-81,-116c0,0,-50,-47,-110,-77c0,0,-86,-40,-176,-40Z" 
id="f2_p"
transform="scale(0.001,-0.001)" />

<path d="M33,0V27c0,0,264,241,371,393c0,0,108,152,108,278c0,0,0,96,-59,158c0,0,-59,62,-141,62c0,0,-75,0,-134,-43c0,0,-59,-44,-88,-128H63c0,0,18,138,95,212c0,0,77,74,193,74c0,0,123,0,205,-80c0,0,83,-79,83,-186c0,0,0,-77,-36,-154c0,0,-55,-121,-179,-256C424,357,238,154,191,112H455c0,0,81,0,114,6c0,0,32,6,58,25c0,0,27,18,46,52h27L630,0Z" 
id="f2_m"
transform="scale(0.001,-0.001)" />

<path d="M191,-20c0,0,-34,0,-58,24c0,0,-24,24,-24,58c0,0,0,35,24,59c0,0,24,24,58,24c0,0,35,0,59,-24c0,0,24,-25,24,-59c0,0,0,-34,-24,-58c0,0,-25,-24,-59,-24Z" 
id="f2_i"
transform="scale(0.001,-0.001)" />

<path d="M253,0V27h36c0,0,64,0,91,39c0,0,16,24,16,109V948H274c0,0,-71,0,-100,-10c0,0,-39,-14,-67,-54c0,0,-27,-41,-33,-109H46l12,237H883L894,775H865c0,0,-8,62,-22,89c0,0,-23,43,-61,64c0,0,-39,20,-101,20H539V175c0,0,0,-93,20,-116c0,0,28,-32,87,-32h36V0Z" 
id="f2_1k"
transform="scale(0.001,-0.001)" />

<path d="M399,62c0,0,68,0,131,68V481c0,0,-5,51,-27,93c0,0,-22,42,-59,63c0,0,-37,21,-72,21c0,0,-65,0,-117,-59c0,0,-67,-77,-67,-226c0,0,0,-151,65,-231c0,0,66,-80,146,-80ZM330,-20c0,0,-112,0,-196,93c0,0,-83,94,-83,240c0,0,0,147,92,269c0,0,93,122,238,122c0,0,90,0,149,-58V773c0,0,0,117,-6,144c0,0,-5,27,-17,37c0,0,-12,9,-30,9c0,0,-20,0,-52,-12l-9,27l204,83h33V270c0,0,0,-120,6,-146c0,0,5,-27,18,-37c0,0,12,-11,28,-11c0,0,21,0,54,13l9,-26L564,-20H530V78C530,78,480,25,432,2c0,0,-47,-22,-102,-22Z" 
id="f2_20"
transform="scale(0.001,-0.001)" />

<path d="M398,24c0,0,74,0,120,58c0,0,61,76,61,214c0,0,0,156,-69,240c0,0,-47,59,-113,59c0,0,-36,0,-71,-18c0,0,-27,-14,-88,-81V242c0,0,0,-83,6,-109c0,0,11,-43,51,-76c0,0,41,-33,103,-33ZM-4,-326v27H15c5,0,42,0,69,16c0,0,14,8,22,26c0,0,7,19,7,94V481c0,0,0,67,-6,85c0,0,-5,18,-18,27c0,0,-13,9,-36,9c0,0,-18,0,-45,-10L0,615l209,85h29V540c0,0,53,91,106,127c0,0,53,36,112,36c0,0,103,0,172,-80c0,0,84,-99,84,-257c0,0,0,-176,-102,-292c0,0,-83,-94,-210,-94c0,0,-55,0,-95,16c0,0,-30,10,-67,44V-167c0,0,0,-71,8,-90c0,0,9,-20,30,-31c0,0,21,-11,77,-11v-27Z" 
id="f2_2c"
transform="scale(0.001,-0.001)" />

<path d="M397,34c0,0,67,0,126,75c0,0,58,74,58,216c0,0,0,131,-58,201c0,0,-59,70,-133,70c0,0,-39,0,-79,-20c0,0,-29,-14,-75,-59V109c0,0,37,-37,78,-56c0,0,40,-19,83,-19ZM358,-20c0,0,-59,0,-121,21c0,0,-61,22,-126,65V773c0,0,0,117,-5,144c0,0,-6,27,-18,37c0,0,-12,9,-29,9c0,0,-21,0,-53,-12l-9,27l205,83h34V564c0,0,98,139,213,139c0,0,105,0,183,-90c0,0,78,-90,78,-245c0,0,0,-182,-121,-293c0,0,-103,-95,-231,-95Z" 
id="f2_1y"
transform="scale(0.001,-0.001)" />

<path d="M549,-22c0,0,-132,0,-203,34c0,0,-98,47,-138,122c0,0,-41,75,-41,201V830c0,0,0,87,-9,109c0,0,-10,21,-34,34c0,0,-22,12,-82,12c-2,0,-4,0,-6,0v27H558V985H532c0,0,-59,0,-81,-13c0,0,-22,-12,-31,-34c0,0,-9,-21,-9,-108V335c0,0,0,-136,20,-180c0,0,21,-44,68,-73c0,0,47,-29,118,-29c0,0,82,0,140,37c0,0,58,37,87,102c0,0,29,64,29,226V830c0,0,0,68,-15,97c0,0,-14,29,-35,40c0,0,-34,18,-95,18v27h350V985h-21c0,0,-43,0,-71,-18c0,0,-28,-17,-41,-51c0,0,-10,-24,-10,-86V446c0,0,0,-178,-23,-258c0,0,-24,-79,-115,-145c0,0,-91,-65,-248,-65Z" 
id="f0_1l"
transform="scale(0.001,-0.001)" />

<path d="M458,424c0,0,0,120,-13,165c0,0,-13,44,-40,67c0,0,-16,14,-42,14c0,0,-39,0,-63,-38c0,0,-44,-66,-44,-182V424ZM358,-20c0,0,-155,0,-235,119c0,0,-64,96,-64,239c0,0,0,174,94,277c0,0,94,104,221,104c0,0,106,0,184,-87c0,0,78,-87,84,-257H259c0,0,7,-139,74,-220c0,0,51,-62,124,-62c0,0,45,0,81,25c0,0,37,25,79,90l25,-16C642,192,585,76,517,28c0,0,-69,-48,-159,-48Z" 
id="f0_21"
transform="scale(0.001,-0.001)" />

<path d="M254,-18c0,0,-51,0,-88,36c0,0,-36,36,-36,87c0,0,0,52,36,88c0,0,37,37,88,37c0,0,53,0,89,-37c0,0,36,-36,36,-88c0,0,0,-51,-36,-87c0,0,-37,-36,-89,-36Zm2,488c0,0,-52,0,-88,36c0,0,-36,37,-36,88c0,0,0,51,36,88c0,0,36,36,88,36c0,0,51,0,87,-36c0,0,36,-37,36,-88c0,0,0,-51,-36,-88c0,0,-36,-36,-87,-36Z" 
id="f0_u"
transform="scale(0.001,-0.001)" />

<path d="M213,-20c0,0,-34,0,-58,24c0,0,-24,24,-24,58c0,0,0,34,24,58c0,0,24,25,58,25c0,0,35,0,59,-25c0,0,24,-24,24,-58c0,0,0,-34,-24,-58c0,0,-25,-24,-59,-24Zm3,559c0,0,-35,0,-59,24c0,0,-24,24,-24,58c0,0,0,35,24,59c0,0,24,24,59,24c0,0,34,0,58,-24c0,0,24,-24,24,-59c0,0,0,-34,-24,-58c0,0,-24,-24,-58,-24Z" 
id="f2_u"
transform="scale(0.001,-0.001)" />

<path d="M474,-326c0,0,-112,57,-188,133c0,0,-107,108,-165,254c0,0,-58,147,-58,305c0,0,0,231,114,421c0,0,114,191,297,273v-31c0,0,-92,-51,-151,-139c0,0,-59,-88,-88,-223c0,0,-30,-135,-30,-281c0,0,0,-160,25,-290c0,0,20,-102,47,-164c0,0,28,-62,75,-120c0,0,47,-57,122,-109v-29Z" 
id="f2_c"
transform="scale(0.001,-0.001)" />

<path d="M35,-326v29c0,0,92,51,151,139c0,0,60,87,89,221c0,0,28,136,28,282c0,0,0,159,-24,290c0,0,-19,103,-47,165c0,0,-28,62,-75,119c0,0,-46,57,-122,110v31c0,0,113,-56,188,-132c0,0,107,-109,165,-255c0,0,58,-147,58,-306c0,0,0,-231,-114,-420c0,0,-113,-191,-297,-273Z" 
id="f2_d"
transform="scale(0.001,-0.001)" />

<path d="M13,0V26c0,0,52,0,78,13c0,0,16,8,24,25c0,0,11,25,11,86V773c0,0,0,118,-5,145c0,0,-5,26,-17,36c0,0,-12,10,-32,10c0,0,-15,0,-47,-13L13,978l203,83h34V381L424,540c0,0,55,50,64,64c0,0,6,9,6,18c0,0,0,15,-12,26c0,0,-13,11,-41,12v23H738V660c0,0,-61,-2,-102,-19c0,0,-40,-17,-89,-62L372,418L547,196c0,0,73,-92,98,-117c0,0,36,-35,63,-45c0,0,18,-8,65,-8V0H441V26c0,0,28,1,38,9c0,0,10,8,10,22c0,0,0,17,-29,56L250,381V154c0,0,0,-67,10,-88c0,0,9,-21,26,-30c0,0,17,-9,75,-10V0Z" 
id="f2_27"
transform="scale(0.001,-0.001)" />

<path d="M59,0V144H85c0,0,52,0,70,7c0,0,18,8,25,26c0,0,4,11,4,64V808c0,0,0,46,-7,60c0,0,-6,14,-19,22c0,0,-14,7,-53,7H59v143H928L1046,712L911,663c0,0,-34,81,-80,130c0,0,-46,49,-102,65c0,0,-55,16,-129,16H441V615h52c0,0,59,0,80,9c0,0,20,8,29,26c0,0,9,19,9,73v40H744V322H611v45c0,0,0,45,-11,66c0,0,-11,21,-29,29c0,0,-19,7,-83,7H441V230c0,0,0,-38,4,-47c0,0,3,-8,14,-12c0,0,11,-5,47,-5h87c0,0,98,0,165,28c0,0,67,28,120,91c0,0,53,63,81,149l136,-47L959,0Z" 
id="f3_15"
transform="scale(0.001,-0.001)" />

<path d="M59,0V144h42c0,0,39,0,54,7c0,0,15,7,22,22c0,0,7,15,7,57V813c0,0,0,40,-5,52c0,0,-7,17,-21,24c0,0,-13,8,-42,8H59v143H530L711,408l185,632h481V897h-52c0,0,-41,0,-57,-18c0,0,-16,-17,-16,-66V222c0,0,0,-39,4,-48c0,0,7,-15,19,-21c0,0,16,-9,43,-9h59V0H876V144h39c0,0,42,0,57,6c0,0,15,7,22,21c0,0,7,14,7,51V862L748,0H604L359,835V202c0,0,0,-22,8,-34c0,0,8,-12,22,-18c0,0,15,-6,47,-6h50V0Z" 
id="f3_1d"
transform="scale(0.001,-0.001)" />

<path d="M52,0V144H93c0,0,44,0,58,6c0,0,13,6,20,20c0,0,6,14,6,55V803c0,0,0,49,-6,64c0,0,-7,15,-22,24c0,0,-10,6,-51,6H52v143H559V897H513c0,0,-40,0,-53,-7c0,0,-13,-8,-20,-23c0,0,-6,-15,-6,-58V233c0,0,0,-47,5,-61c0,0,6,-13,18,-19c0,0,16,-9,47,-9h55V0Z" 
id="f3_19"
transform="scale(0.001,-0.001)" />

<path d="M495,160c0,0,61,0,122,27c0,0,-17,28,-29,62L548,388c0,0,-22,73,-35,102c0,0,-13,29,-26,45c0,0,-13,16,-34,32c0,0,-73,-37,-110,-92c0,0,-37,-56,-37,-119c0,0,0,-82,56,-139c0,0,55,-57,133,-57ZM453,713c0,0,19,0,38,12c0,0,20,12,28,33c0,0,12,26,12,59c0,0,0,52,-22,78c0,0,-23,25,-54,25c0,0,-34,0,-56,-27c0,0,-22,-27,-22,-80c0,0,0,-46,23,-73c0,0,22,-27,53,-27ZM434,-17c0,0,-169,0,-274,96C160,79,55,176,55,316c0,0,0,117,67,204c0,0,52,68,177,138c0,0,-52,33,-79,77c0,0,-26,45,-26,99c0,0,0,93,72,159c0,0,73,65,190,65c0,0,120,0,187,-60c0,0,67,-60,67,-151c0,0,0,-76,-38,-130c0,0,-30,-42,-90,-72c0,0,41,-19,65,-40c0,0,33,-29,67,-79c0,0,21,-33,84,-160c0,0,43,98,43,141c0,0,0,12,-7,21c0,0,-8,9,-20,11c0,0,-9,3,-59,3V684h366V542h-45c0,0,-38,0,-53,-8c0,0,-15,-7,-25,-25c0,0,-6,-10,-24,-83c0,0,-13,-47,-40,-105c0,0,-27,-58,-60,-105c0,0,33,-50,55,-65c0,0,22,-16,45,-16c0,0,26,0,44,17c0,0,17,18,17,46c0,0,0,26,-22,64c0,0,-22,35,-22,60c0,0,0,38,30,67c0,0,30,29,72,29c0,0,54,0,91,-44c0,0,37,-44,37,-123c0,0,0,-117,-82,-193c0,0,-83,-75,-218,-75c0,0,-68,0,-113,17c0,0,-45,17,-97,65c0,0,-119,-82,-277,-82Z" 
id="f3_a"
transform="scale(0.001,-0.001)" />

<path d="M610,480L509,765L404,480ZM2,0V144c0,0,39,0,56,6c0,0,18,7,30,21c0,0,11,13,25,49l322,820H669L981,237c0,0,25,-64,45,-79c0,0,19,-14,68,-14c2,0,3,0,5,0V0H606V144h30c0,0,41,0,58,11c0,0,16,11,16,27c0,0,0,13,-14,55l-32,94H349L310,226c0,0,-12,-33,-12,-44c0,0,0,-11,8,-21c0,0,9,-10,28,-14c0,0,13,-3,71,-3V0Z" 
id="f3_11"
transform="scale(0.001,-0.001)" />

<path d="M579,-17c0,0,-147,0,-266,70c0,0,-119,70,-189,197c0,0,-71,127,-71,277c0,0,0,149,69,271c0,0,69,123,187,191c0,0,119,69,265,69c0,0,149,0,260,-62l25,44H965L1067,667L928,627c0,0,-69,133,-130,189c0,0,-85,77,-185,77c0,0,-72,0,-135,-41c0,0,-63,-40,-100,-118c0,0,-37,-78,-37,-183c0,0,0,-161,85,-276c0,0,85,-116,222,-116c0,0,87,0,168,50c0,0,100,62,173,167l116,-86C1105,290,992,136,899,76c0,0,-144,-93,-320,-93Z" 
id="f3_13"
transform="scale(0.001,-0.001)" />


</defs>
</svg>