<?xml version="1.0" encoding="UTF-8" standalone="no"?>
<!DOCTYPE svg PUBLIC "-//W3C//DTD SVG 1.1//EN"
"http://www.w3.org/Graphics/SVG/1.1/DTD/svg11.dtd">
<svg viewBox="0 0 909 1286" version="1.1" xmlns="http://www.w3.org/2000/svg" xmlns:xlink="http://www.w3.org/1999/xlink">
<defs>
</defs>
<image preserveAspectRatio="none" x="315" y="93" width="256" height="120" xlink:href="img/1.png" />
<g fill="#1F1A17" >
<use xlink:href="#f0_1i" transform="matrix(11.3,0,0,11,240.9,244.3)" />
<use xlink:href="#f0_21" transform="matrix(11.3,0,0,11,253,244.3)" />
<use xlink:href="#f0_22" transform="matrix(11.3,0,0,11,260.3,244.3)" />
<use xlink:href="#f0_28" transform="matrix(11.3,0,0,11,266.2,244.3)" />
<use xlink:href="#f0_21" transform="matrix(11.3,0,0,11,270.6,244.3)" />
<use xlink:href="#f0_1z" transform="matrix(11.3,0,0,11,278.3,244.3)" />
<use xlink:href="#f0_2g" transform="matrix(11.3,0,0,11,285.6,244.3)" />
<use xlink:href="#f0_25" transform="matrix(11.3,0,0,11,291.1,244.3)" />
<use xlink:href="#f0_2b" transform="matrix(11.3,0,0,11,295.9,244.3)" />
<use xlink:href="#f0_2a" transform="matrix(11.3,0,0,11,304.4,244.3)" />
<use xlink:href="#f0_2b" transform="matrix(11.3,0,0,11,318,244.3)" />
<use xlink:href="#f0_22" transform="matrix(11.3,0,0,11,326.4,244.3)" />
<use xlink:href="#f0_1x" transform="matrix(11.3,0,0,11,336.3,244.3)" />
<use xlink:href="#f0_2c" transform="matrix(11.3,0,0,11,348.8,244.3)" />
<use xlink:href="#f0_28" transform="matrix(11.3,0,0,11,358.3,244.3)" />
<use xlink:href="#f0_1x" transform="matrix(11.3,0,0,11,362.7,244.3)" />
<use xlink:href="#f0_2a" transform="matrix(11.3,0,0,11,371.2,244.3)" />
<use xlink:href="#f0_21" transform="matrix(11.3,0,0,11,380.7,244.3)" />
<use xlink:href="#f0_2j" transform="matrix(11.3,0,0,11,392.1,244.3)" />
<use xlink:href="#f0_1x" transform="matrix(11.3,0,0,11,404.5,244.3)" />
<use xlink:href="#f0_2i" transform="matrix(11.3,0,0,11,412.6,244.3)" />
<use xlink:href="#f0_21" transform="matrix(11.3,0,0,11,421.1,244.3)" />
<use xlink:href="#f0_11" transform="matrix(11.3,0,0,11,432.1,244.3)" />
<use xlink:href="#f0_12" transform="matrix(11.3,0,0,11,444.5,244.3)" />
<use xlink:href="#f0_1y" transform="matrix(11.3,0,0,11,459.9,244.3)" />
<use xlink:href="#f0_2l" transform="matrix(11.3,0,0,11,469.1,244.3)" />
<use xlink:href="#f0_2g" transform="matrix(11.3,0,0,11,481.9,244.3)" />
<use xlink:href="#f0_24" transform="matrix(11.3,0,0,11,487.4,244.3)" />
<use xlink:href="#f0_21" transform="matrix(11.3,0,0,11,496.6,244.3)" />
<use xlink:href="#f0_2e" transform="matrix(11.3,0,0,11,508.3,244.3)" />
<use xlink:href="#f0_21" transform="matrix(11.3,0,0,11,515.6,244.3)" />
<use xlink:href="#f0_22" transform="matrix(11.3,0,0,11,523,244.3)" />
<use xlink:href="#f0_28" transform="matrix(11.3,0,0,11,528.5,244.3)" />
<use xlink:href="#f0_21" transform="matrix(11.3,0,0,11,533.3,244.3)" />
<use xlink:href="#f0_1z" transform="matrix(11.3,0,0,11,540.6,244.3)" />
<use xlink:href="#f0_2g" transform="matrix(11.3,0,0,11,548.3,244.3)" />
<use xlink:href="#f0_25" transform="matrix(11.3,0,0,11,553.8,244.3)" />
<use xlink:href="#f0_2a" transform="matrix(11.3,0,0,11,558.6,244.3)" />
<use xlink:href="#f0_23" transform="matrix(11.3,0,0,11,567.7,244.3)" />
<use xlink:href="#f0_2f" transform="matrix(11.3,0,0,11,580.6,244.3)" />
<use xlink:href="#f0_2h" transform="matrix(11.3,0,0,11,587.2,244.3)" />
<use xlink:href="#f0_2e" transform="matrix(11.3,0,0,11,596.3,244.3)" />
<use xlink:href="#f0_22" transform="matrix(11.3,0,0,11,603.7,244.3)" />
<use xlink:href="#f0_1x" transform="matrix(11.3,0,0,11,609.5,244.3)" />
<use xlink:href="#f0_1z" transform="matrix(11.3,0,0,11,618,244.3)" />
<use xlink:href="#f0_21" transform="matrix(11.3,0,0,11,625.3,244.3)" />
<use xlink:href="#f0_1d" transform="matrix(11.3,0,0,11,637.1,244.3)" />
<use xlink:href="#f0_1e" transform="matrix(11.3,0,0,11,652.8,244.3)" />
<use xlink:href="#f0_g" transform="matrix(11.3,0,0,11,664.9,244.3)" />
<use xlink:href="#f0_11" transform="matrix(11.3,0,0,11,240.9,263)" />
<use xlink:href="#f0_12" transform="matrix(11.3,0,0,11,253,263)" />
<use xlink:href="#f0_1x" transform="matrix(11.3,0,0,11,268.4,263)" />
<use xlink:href="#f0_2a" transform="matrix(11.3,0,0,11,276.9,263)" />
<use xlink:href="#f0_20" transform="matrix(11.3,0,0,11,286.4,263)" />
<use xlink:href="#f0_13" transform="matrix(11.3,0,0,11,299.6,263)" />
<use xlink:href="#f0_15" transform="matrix(11.3,0,0,11,312.1,263)" />
<use xlink:href="#f0_2e" transform="matrix(11.3,0,0,11,327.5,263)" />
<use xlink:href="#f0_21" transform="matrix(11.3,0,0,11,334.4,263)" />
<use xlink:href="#f0_2c" transform="matrix(11.3,0,0,11,341.8,263)" />
<use xlink:href="#f0_2e" transform="matrix(11.3,0,0,11,351.3,263)" />
<use xlink:href="#f0_21" transform="matrix(11.3,0,0,11,358.7,263)" />
<use xlink:href="#f0_2f" transform="matrix(11.3,0,0,11,366,263)" />
<use xlink:href="#f0_21" transform="matrix(11.3,0,0,11,372.6,263)" />
<use xlink:href="#f0_2a" transform="matrix(11.3,0,0,11,380,263)" />
<use xlink:href="#f0_2g" transform="matrix(11.3,0,0,11,389.5,263)" />
<use xlink:href="#f0_25" transform="matrix(11.3,0,0,11,399,263)" />
<use xlink:href="#f0_2a" transform="matrix(11.3,0,0,11,403.8,263)" />
<use xlink:href="#f0_1z" transform="matrix(11.3,0,0,11,413,263)" />
<use xlink:href="#f0_25" transform="matrix(11.3,0,0,11,420.7,263)" />
<use xlink:href="#f0_20" transform="matrix(11.3,0,0,11,425.5,263)" />
<use xlink:href="#f0_21" transform="matrix(11.3,0,0,11,434.6,263)" />
<use xlink:href="#f0_2a" transform="matrix(11.3,0,0,11,442,263)" />
<use xlink:href="#f0_2g" transform="matrix(11.3,0,0,11,451.9,263)" />
<use xlink:href="#f0_1x" transform="matrix(11.3,0,0,11,461.7,263)" />
<use xlink:href="#f0_2a" transform="matrix(11.3,0,0,11,470.2,263)" />
<use xlink:href="#f0_20" transform="matrix(11.3,0,0,11,479.4,263)" />
<use xlink:href="#f0_2e" transform="matrix(11.3,0,0,11,492.9,263)" />
<use xlink:href="#f0_21" transform="matrix(11.3,0,0,11,499.9,263)" />
<use xlink:href="#f0_22" transform="matrix(11.3,0,0,11,507.6,263)" />
<use xlink:href="#f0_28" transform="matrix(11.3,0,0,11,513.1,263)" />
<use xlink:href="#f0_21" transform="matrix(11.3,0,0,11,517.9,263)" />
<use xlink:href="#f0_1z" transform="matrix(11.3,0,0,11,525.2,263)" />
<use xlink:href="#f0_2g" transform="matrix(11.3,0,0,11,532.9,263)" />
<use xlink:href="#f0_21" transform="matrix(11.3,0,0,11,538.4,263)" />
<use xlink:href="#f0_20" transform="matrix(11.3,0,0,11,545.8,263)" />
<use xlink:href="#f0_2j" transform="matrix(11.3,0,0,11,559.3,263)" />
<use xlink:href="#f0_1x" transform="matrix(11.3,0,0,11,571.5,263)" />
<use xlink:href="#f0_2i" transform="matrix(11.3,0,0,11,579.9,263)" />
<use xlink:href="#f0_21" transform="matrix(11.3,0,0,11,588.3,263)" />
<use xlink:href="#f0_22" transform="matrix(11.3,0,0,11,595.7,263)" />
<use xlink:href="#f0_2e" transform="matrix(11.3,0,0,11,601.6,263)" />
<use xlink:href="#f0_2b" transform="matrix(11.3,0,0,11,608.5,263)" />
<use xlink:href="#f0_2a" transform="matrix(11.3,0,0,11,617,263)" />
<use xlink:href="#f0_2g" transform="matrix(11.3,0,0,11,626.5,263)" />
<use xlink:href="#f0_2f" transform="matrix(11.3,0,0,11,632,263)" />
</g>
<g fill="#000000" >
<use xlink:href="#f1_19" transform="matrix(12,0,0,12,155.8,286.9)" />
<use xlink:href="#f1_22" transform="matrix(12,0,0,12,161.7,286.9)" />
<use xlink:href="#f1_2j" transform="matrix(12,0,0,12,170.6,286.9)" />
<use xlink:href="#f1_21" transform="matrix(12,0,0,12,183.4,286.9)" />
<use xlink:href="#f1_2a" transform="matrix(12,0,0,12,194.8,286.9)" />
<use xlink:href="#f1_2b" transform="matrix(12,0,0,12,203.3,286.9)" />
<use xlink:href="#f1_2j" transform="matrix(12,0,0,12,212.8,286.9)" />
<use xlink:href="#f1_1z" transform="matrix(12,0,0,12,228.6,286.9)" />
<use xlink:href="#f1_2b" transform="matrix(12,0,0,12,236.7,286.9)" />
<use xlink:href="#f1_2a" transform="matrix(12,0,0,12,245.8,286.9)" />
<use xlink:href="#f1_2f" transform="matrix(12,0,0,12,254.3,286.9)" />
<use xlink:href="#f1_25" transform="matrix(12,0,0,12,261.3,286.9)" />
<use xlink:href="#f1_20" transform="matrix(12,0,0,12,265.3,286.9)" />
<use xlink:href="#f1_21" transform="matrix(12,0,0,12,274.1,286.9)" />
<use xlink:href="#f1_2e" transform="matrix(12,0,0,12,282.2,286.9)" />
<use xlink:href="#f1_2g" transform="matrix(12,0,0,12,291.4,286.9)" />
<use xlink:href="#f1_24" transform="matrix(12,0,0,12,296.9,286.9)" />
<use xlink:href="#f1_21" transform="matrix(12,0,0,12,305.4,286.9)" />
<use xlink:href="#f1_2g" transform="matrix(12,0,0,12,316.8,286.9)" />
<use xlink:href="#f1_2e" transform="matrix(12,0,0,12,321.9,286.9)" />
<use xlink:href="#f1_25" transform="matrix(12,0,0,12,327.8,286.9)" />
<use xlink:href="#f1_1x" transform="matrix(12,0,0,12,332.2,286.9)" />
<use xlink:href="#f1_2a" transform="matrix(12,0,0,12,339.9,286.9)" />
<use xlink:href="#f1_23" transform="matrix(12,0,0,12,348.4,286.9)" />
<use xlink:href="#f1_28" transform="matrix(12,0,0,12,357.5,286.9)" />
<use xlink:href="#f1_21" transform="matrix(12,0,0,12,361.6,286.9)" />
<use xlink:href="#f1_2f" transform="matrix(12,0,0,12,369.3,286.9)" />
<use xlink:href="#f2_15" transform="matrix(12,0,0,12,379.1,286.9)" />
<use xlink:href="#f2_11" transform="matrix(12,0,0,12,390.1,286.9)" />
<use xlink:href="#f2_13" transform="matrix(12,0,0,12,401.5,286.9)" />
<use xlink:href="#f1_1x" transform="matrix(12,0,0,12,416.5,286.9)" />
<use xlink:href="#f1_2a" transform="matrix(12,0,0,12,424.3,286.9)" />
<use xlink:href="#f1_20" transform="matrix(12,0,0,12,433.1,286.9)" />
<use xlink:href="#f2_12" transform="matrix(12,0,0,12,445.1,286.9)" />
<use xlink:href="#f2_11" transform="matrix(12,0,0,12,456.1,286.9)" />
<use xlink:href="#f2_13" transform="matrix(12,0,0,12,467.5,286.9)" />
<use xlink:href="#f1_2j" transform="matrix(12,0,0,12,482.5,286.9)" />
<use xlink:href="#f1_21" transform="matrix(12,0,0,12,495.8,286.9)" />
<use xlink:href="#f1_2j" transform="matrix(12,0,0,12,506.8,286.9)" />
<use xlink:href="#f1_25" transform="matrix(12,0,0,12,520,286.9)" />
<use xlink:href="#f1_28" transform="matrix(12,0,0,12,524.1,286.9)" />
<use xlink:href="#f1_28" transform="matrix(12,0,0,12,528.1,286.9)" />
<use xlink:href="#f1_22" transform="matrix(12,0,0,12,535.5,286.9)" />
<use xlink:href="#f1_25" transform="matrix(12,0,0,12,540.6,286.9)" />
<use xlink:href="#f1_2a" transform="matrix(12,0,0,12,544.7,286.9)" />
<use xlink:href="#f1_20" transform="matrix(12,0,0,12,553.5,286.9)" />
<use xlink:href="#f1_2g" transform="matrix(12,0,0,12,565.6,286.9)" />
<use xlink:href="#f1_24" transform="matrix(12,0,0,12,571.1,286.9)" />
<use xlink:href="#f1_1x" transform="matrix(12,0,0,12,579.6,286.9)" />
<use xlink:href="#f1_2g" transform="matrix(12,0,0,12,587.3,286.9)" />
<use xlink:href="#f1_2g" transform="matrix(12,0,0,12,596.1,286.9)" />
<use xlink:href="#f1_24" transform="matrix(12,0,0,12,601.3,286.9)" />
<use xlink:href="#f1_21" transform="matrix(12,0,0,12,610.1,286.9)" />
<use xlink:href="#f1_2l" transform="matrix(12,0,0,12,617.8,286.9)" />
<use xlink:href="#f1_1x" transform="matrix(12,0,0,12,629.6,286.9)" />
<use xlink:href="#f1_2e" transform="matrix(12,0,0,12,637.3,286.9)" />
<use xlink:href="#f1_21" transform="matrix(12,0,0,12,643.2,286.9)" />
<use xlink:href="#f1_1z" transform="matrix(12,0,0,12,654.6,286.9)" />
<use xlink:href="#f1_2b" transform="matrix(12,0,0,12,662.3,286.9)" />
<use xlink:href="#f1_2a" transform="matrix(12,0,0,12,671.4,286.9)" />
<use xlink:href="#f1_23" transform="matrix(12,0,0,12,680.3,286.9)" />
<use xlink:href="#f1_2h" transform="matrix(12,0,0,12,689.1,286.9)" />
<use xlink:href="#f1_21" transform="matrix(12,0,0,12,697.9,286.9)" />
<use xlink:href="#f1_2a" transform="matrix(12,0,0,12,706,286.9)" />
<use xlink:href="#f1_2g" transform="matrix(12,0,0,12,714.4,286.9)" />
<use xlink:href="#f1_1x" transform="matrix(12,0,0,12,722.9,286.9)" />
<use xlink:href="#f1_2a" transform="matrix(12,0,0,12,730.6,286.9)" />
<use xlink:href="#f1_20" transform="matrix(12,0,0,12,739,286.9)" />
<use xlink:href="#f1_2g" transform="matrix(12,0,0,12,751.5,286.9)" />
<use xlink:href="#f1_24" transform="matrix(12,0,0,12,756.7,286.9)" />
<use xlink:href="#f1_21" transform="matrix(12,0,0,12,765.5,286.9)" />
<use xlink:href="#f1_2e" transform="matrix(12,0,0,12,773.2,286.9)" />
<use xlink:href="#f1_21" transform="matrix(12,0,0,12,779.1,286.9)" />
<use xlink:href="#f1_22" transform="matrix(12,0,0,12,786.8,286.9)" />
<use xlink:href="#f1_2b" transform="matrix(12,0,0,12,792.3,286.9)" />
<use xlink:href="#f1_2e" transform="matrix(12,0,0,12,801.5,286.9)" />
<use xlink:href="#f1_21" transform="matrix(12,0,0,12,807.4,286.9)" />
<use xlink:href="#f1_g" transform="matrix(12,0,0,12,815.4,286.9)" />
<use xlink:href="#f1_2g" transform="matrix(12,0,0,12,823.2,286.9)" />
<use xlink:href="#f1_24" transform="matrix(12,0,0,12,828.7,286.9)" />
<use xlink:href="#f1_21" transform="matrix(12,0,0,12,837.1,286.9)" />
<use xlink:href="#f1_1x" transform="matrix(12,0,0,12,155.8,308.9)" />
<use xlink:href="#f1_2a" transform="matrix(12,0,0,12,163.9,308.9)" />
<use xlink:href="#f1_23" transform="matrix(12,0,0,12,172.4,308.9)" />
<use xlink:href="#f1_28" transform="matrix(12,0,0,12,181.5,308.9)" />
<use xlink:href="#f1_21" transform="matrix(12,0,0,12,185.6,308.9)" />
<use xlink:href="#f1_2f" transform="matrix(12,0,0,12,193.7,308.9)" />
<use xlink:href="#f2_25" transform="matrix(12,0,0,12,203.9,308.9)" />
<use xlink:href="#f1_1x" transform="matrix(12,0,0,12,211.9,308.9)" />
<use xlink:href="#f1_2a" transform="matrix(12,0,0,12,220,308.9)" />
<use xlink:href="#f1_20" transform="matrix(12,0,0,12,228.5,308.9)" />
<use xlink:href="#f2_2e" transform="matrix(12,0,0,12,240.9,308.9)" />
<use xlink:href="#f1_2j" transform="matrix(12,0,0,12,251.2,308.9)" />
<use xlink:href="#f1_2b" transform="matrix(12,0,0,12,264.4,308.9)" />
<use xlink:href="#f1_2h" transform="matrix(12,0,0,12,273.6,308.9)" />
<use xlink:href="#f1_28" transform="matrix(12,0,0,12,282.7,308.9)" />
<use xlink:href="#f1_20" transform="matrix(12,0,0,12,286.8,308.9)" />
<use xlink:href="#f1_1y" transform="matrix(12,0,0,12,299.3,308.9)" />
<use xlink:href="#f1_21" transform="matrix(12,0,0,12,307.7,308.9)" />
<use xlink:href="#f1_21" transform="matrix(12,0,0,12,318.7,308.9)" />
<use xlink:href="#f1_2d" transform="matrix(12,0,0,12,326.8,308.9)" />
<use xlink:href="#f1_2h" transform="matrix(12,0,0,12,335.6,308.9)" />
<use xlink:href="#f1_1x" transform="matrix(12,0,0,12,344.8,308.9)" />
<use xlink:href="#f1_28" transform="matrix(12,0,0,12,352.5,308.9)" />
<use xlink:href="#f1_i" transform="matrix(12,0,0,12,356.9,308.9)" />
<use xlink:href="#f1_1k" transform="matrix(12,0,0,12,364.7,308.9)" />
<use xlink:href="#f1_24" transform="matrix(12,0,0,12,376,308.9)" />
<use xlink:href="#f1_25" transform="matrix(12,0,0,12,384.5,308.9)" />
<use xlink:href="#f1_2f" transform="matrix(12,0,0,12,388.9,308.9)" />
<use xlink:href="#f1_25" transform="matrix(12,0,0,12,399.2,308.9)" />
<use xlink:href="#f1_2f" transform="matrix(12,0,0,12,403.3,308.9)" />
<use xlink:href="#f1_2g" transform="matrix(12,0,0,12,413.6,308.9)" />
<use xlink:href="#f1_24" transform="matrix(12,0,0,12,418.7,308.9)" />
<use xlink:href="#f1_21" transform="matrix(12,0,0,12,427.5,308.9)" />
<use xlink:href="#f1_28" transform="matrix(12,0,0,12,438.5,308.9)" />
<use xlink:href="#f1_1x" transform="matrix(12,0,0,12,442.6,308.9)" />
<use xlink:href="#f1_2j" transform="matrix(12,0,0,12,450.3,308.9)" />
<use xlink:href="#f1_2b" transform="matrix(12,0,0,12,466.8,308.9)" />
<use xlink:href="#f1_22" transform="matrix(12,0,0,12,476.4,308.9)" />
<use xlink:href="#f1_2e" transform="matrix(12,0,0,12,485.2,308.9)" />
<use xlink:href="#f1_21" transform="matrix(12,0,0,12,491.1,308.9)" />
<use xlink:href="#f1_22" transform="matrix(12,0,0,12,499.2,308.9)" />
<use xlink:href="#f1_28" transform="matrix(12,0,0,12,504.3,308.9)" />
<use xlink:href="#f1_21" transform="matrix(12,0,0,12,508.4,308.9)" />
<use xlink:href="#f1_1z" transform="matrix(12,0,0,12,516.5,308.9)" />
<use xlink:href="#f1_2g" transform="matrix(12,0,0,12,524.2,308.9)" />
<use xlink:href="#f1_25" transform="matrix(12,0,0,12,529.7,308.9)" />
<use xlink:href="#f1_2b" transform="matrix(12,0,0,12,533.7,308.9)" />
<use xlink:href="#f1_2a" transform="matrix(12,0,0,12,543.3,308.9)" />
<use xlink:href="#f1_i" transform="matrix(12,0,0,12,551.7,308.9)" />
<use xlink:href="#f1_c" transform="matrix(12,0,0,12,117,414.5)" />
<use xlink:href="#f1_1y" transform="matrix(12,0,0,12,122.8,414.5)" />
<use xlink:href="#f1_d" transform="matrix(12,0,0,12,131.3,414.5)" />
<use xlink:href="#f1_19" transform="matrix(12,0,0,12,156.7,414.5)" />
<use xlink:href="#f1_2a" transform="matrix(12,0,0,12,162.6,414.5)" />
<use xlink:href="#f1_1x" transform="matrix(12,0,0,12,173.6,414.5)" />
<use xlink:href="#f1_2f" transform="matrix(12,0,0,12,184.7,414.5)" />
<use xlink:href="#f1_25" transform="matrix(12,0,0,12,191.3,414.5)" />
<use xlink:href="#f1_2a" transform="matrix(12,0,0,12,195.3,414.5)" />
<use xlink:href="#f1_23" transform="matrix(12,0,0,12,203.8,414.5)" />
<use xlink:href="#f1_28" transform="matrix(12,0,0,12,212.6,414.5)" />
<use xlink:href="#f1_21" transform="matrix(12,0,0,12,216.7,414.5)" />
<use xlink:href="#f1_2f" transform="matrix(12,0,0,12,231,414.5)" />
<use xlink:href="#f1_28" transform="matrix(12,0,0,12,237.6,414.5)" />
<use xlink:href="#f1_25" transform="matrix(12,0,0,12,241.7,414.5)" />
<use xlink:href="#f1_2g" transform="matrix(12,0,0,12,245.7,414.5)" />
<use xlink:href="#f1_20" transform="matrix(12,0,0,12,253.8,414.5)" />
<use xlink:href="#f1_25" transform="matrix(12,0,0,12,262.6,414.5)" />
<use xlink:href="#f1_22" transform="matrix(12,0,0,12,266.7,414.5)" />
<use xlink:href="#f1_22" transform="matrix(12,0,0,12,271.8,414.5)" />
<use xlink:href="#f1_2e" transform="matrix(12,0,0,12,277,414.5)" />
<use xlink:href="#f1_1x" transform="matrix(12,0,0,12,282.9,414.5)" />
<use xlink:href="#f1_1z" transform="matrix(12,0,0,12,290.6,414.5)" />
<use xlink:href="#f1_2g" transform="matrix(12,0,0,12,298.3,414.5)" />
<use xlink:href="#f1_25" transform="matrix(12,0,0,12,303.1,414.5)" />
<use xlink:href="#f1_2b" transform="matrix(12,0,0,12,307.1,414.5)" />
<use xlink:href="#f1_2a" transform="matrix(12,0,0,12,316.3,414.5)" />
<use xlink:href="#f1_21" transform="matrix(12,0,0,12,328.1,414.5)" />
<use xlink:href="#f1_2k" transform="matrix(12,0,0,12,335.8,414.5)" />
<use xlink:href="#f1_2c" transform="matrix(12,0,0,12,344.2,414.5)" />
<use xlink:href="#f1_21" transform="matrix(12,0,0,12,353.1,414.5)" />
<use xlink:href="#f1_2e" transform="matrix(12,0,0,12,360.8,414.5)" />
<use xlink:href="#f1_25" transform="matrix(12,0,0,12,366.7,414.5)" />
<use xlink:href="#f1_29" transform="matrix(12,0,0,12,370.7,414.5)" />
<use xlink:href="#f1_21" transform="matrix(12,0,0,12,383.9,414.5)" />
<use xlink:href="#f1_2a" transform="matrix(12,0,0,12,391.6,414.5)" />
<use xlink:href="#f1_2g" transform="matrix(12,0,0,12,400.1,414.5)" />
<use xlink:href="#f1_g" transform="matrix(12,0,0,12,405.2,414.5)" />
<use xlink:href="#f1_2g" transform="matrix(12,0,0,12,413,414.5)" />
<use xlink:href="#f1_24" transform="matrix(12,0,0,12,418.1,414.5)" />
<use xlink:href="#f1_21" transform="matrix(12,0,0,12,426.5,414.5)" />
<use xlink:href="#f1_2j" transform="matrix(12,0,0,12,437.6,414.5)" />
<use xlink:href="#f1_25" transform="matrix(12,0,0,12,450.4,414.5)" />
<use xlink:href="#f1_20" transform="matrix(12,0,0,12,454.5,414.5)" />
<use xlink:href="#f1_2g" transform="matrix(12,0,0,12,462.9,414.5)" />
<use xlink:href="#f1_24" transform="matrix(12,0,0,12,468.1,414.5)" />
<use xlink:href="#f1_2b" transform="matrix(12,0,0,12,479.5,414.5)" />
<use xlink:href="#f1_22" transform="matrix(12,0,0,12,488.6,414.5)" />
<use xlink:href="#f1_2g" transform="matrix(12,0,0,12,497.1,414.5)" />
<use xlink:href="#f1_24" transform="matrix(12,0,0,12,502.2,414.5)" />
<use xlink:href="#f1_21" transform="matrix(12,0,0,12,510.7,414.5)" />
<use xlink:href="#f1_2f" transform="matrix(12,0,0,12,521.7,414.5)" />
<use xlink:href="#f1_28" transform="matrix(12,0,0,12,528.3,414.5)" />
<use xlink:href="#f1_25" transform="matrix(12,0,0,12,532.4,414.5)" />
<use xlink:href="#f1_2g" transform="matrix(12,0,0,12,536.4,414.5)" />
<use xlink:href="#f1_25" transform="matrix(12,0,0,12,544.9,414.5)" />
<use xlink:href="#f1_2f" transform="matrix(12,0,0,12,548.9,414.5)" />
<use xlink:href="#f1_29" transform="matrix(12,0,0,12,558.5,414.5)" />
<use xlink:href="#f1_1x" transform="matrix(12,0,0,12,571.7,414.5)" />
<use xlink:href="#f1_20" transform="matrix(12,0,0,12,579.4,414.5)" />
<use xlink:href="#f1_21" transform="matrix(12,0,0,12,588.2,414.5)" />
<use xlink:href="#f1_20" transform="matrix(12,0,0,12,598.9,414.5)" />
<use xlink:href="#f1_2b" transform="matrix(12,0,0,12,607.7,414.5)" />
<use xlink:href="#f1_2h" transform="matrix(12,0,0,12,616.9,414.5)" />
<use xlink:href="#f1_1y" transform="matrix(12,0,0,12,625.7,414.5)" />
<use xlink:href="#f1_28" transform="matrix(12,0,0,12,634.2,414.5)" />
<use xlink:href="#f1_21" transform="matrix(12,0,0,12,638.2,414.5)" />
<use xlink:href="#f1_2g" transform="matrix(12,0,0,12,649.2,414.5)" />
<use xlink:href="#f1_24" transform="matrix(12,0,0,12,654.4,414.5)" />
<use xlink:href="#f1_21" transform="matrix(12,0,0,12,662.8,414.5)" />
<use xlink:href="#f1_2b" transform="matrix(12,0,0,12,673.9,414.5)" />
<use xlink:href="#f1_2e" transform="matrix(12,0,0,12,683,414.5)" />
<use xlink:href="#f1_25" transform="matrix(12,0,0,12,688.9,414.5)" />
<use xlink:href="#f1_23" transform="matrix(12,0,0,12,693,414.5)" />
<use xlink:href="#f1_25" transform="matrix(12,0,0,12,701.8,414.5)" />
<use xlink:href="#f1_2a" transform="matrix(12,0,0,12,705.8,414.5)" />
<use xlink:href="#f1_1x" transform="matrix(12,0,0,12,714.3,414.5)" />
<use xlink:href="#f1_28" transform="matrix(12,0,0,12,722,414.5)" />
<use xlink:href="#f1_2j" transform="matrix(12,0,0,12,727.5,414.5)" />
<use xlink:href="#f1_25" transform="matrix(12,0,0,12,740.3,414.5)" />
<use xlink:href="#f1_20" transform="matrix(12,0,0,12,744.4,414.5)" />
<use xlink:href="#f1_2g" transform="matrix(12,0,0,12,752.8,414.5)" />
<use xlink:href="#f1_24" transform="matrix(12,0,0,12,758,414.5)" />
<use xlink:href="#f1_i" transform="matrix(12,0,0,12,766.4,414.5)" />
<use xlink:href="#f1_18" transform="matrix(12,0,0,12,774.2,414.5)" />
<use xlink:href="#f1_2b" transform="matrix(12,0,0,12,787,414.5)" />
<use xlink:href="#f1_2j" transform="matrix(12,0,0,12,796.2,414.5)" />
<use xlink:href="#f1_20" transform="matrix(12,0,0,12,812.3,414.5)" />
<use xlink:href="#f1_2b" transform="matrix(12,0,0,12,821.1,414.5)" />
<use xlink:href="#f1_21" transform="matrix(12,0,0,12,830.3,414.5)" />
<use xlink:href="#f1_2f" transform="matrix(12,0,0,12,838,414.5)" />
<use xlink:href="#f1_2g" transform="matrix(12,0,0,12,155.8,438.7)" />
<use xlink:href="#f1_24" transform="matrix(12,0,0,12,161,438.7)" />
<use xlink:href="#f1_25" transform="matrix(12,0,0,12,169.4,438.7)" />
<use xlink:href="#f1_2f" transform="matrix(12,0,0,12,173.8,438.7)" />
<use xlink:href="#f1_1x" transform="matrix(12,0,0,12,183.8,438.7)" />
<use xlink:href="#f1_22" transform="matrix(12,0,0,12,191.5,438.7)" />
<use xlink:href="#f1_22" transform="matrix(12,0,0,12,196.6,438.7)" />
<use xlink:href="#f1_21" transform="matrix(12,0,0,12,202.1,438.7)" />
<use xlink:href="#f1_1z" transform="matrix(12,0,0,12,209.9,438.7)" />
<use xlink:href="#f1_2g" transform="matrix(12,0,0,12,217.6,438.7)" />
<use xlink:href="#f1_2g" transform="matrix(12,0,0,12,226,438.7)" />
<use xlink:href="#f1_24" transform="matrix(12,0,0,12,231.1,438.7)" />
<use xlink:href="#f1_21" transform="matrix(12,0,0,12,239.6,438.7)" />
<use xlink:href="#f1_2f" transform="matrix(12,0,0,12,250.6,438.7)" />
<use xlink:href="#f1_25" transform="matrix(12,0,0,12,257.6,438.7)" />
<use xlink:href="#f1_2m" transform="matrix(12,0,0,12,261.7,438.7)" />
<use xlink:href="#f1_21" transform="matrix(12,0,0,12,269.4,438.7)" />
<use xlink:href="#f1_1x" transform="matrix(12,0,0,12,280.4,438.7)" />
<use xlink:href="#f1_2a" transform="matrix(12,0,0,12,288.5,438.7)" />
<use xlink:href="#f1_20" transform="matrix(12,0,0,12,296.9,438.7)" />
<use xlink:href="#f1_25" transform="matrix(12,0,0,12,309.1,438.7)" />
<use xlink:href="#f1_2a" transform="matrix(12,0,0,12,313.1,438.7)" />
<use xlink:href="#f1_2g" transform="matrix(12,0,0,12,321.9,438.7)" />
<use xlink:href="#f1_21" transform="matrix(12,0,0,12,327.1,438.7)" />
<use xlink:href="#f1_2a" transform="matrix(12,0,0,12,334.8,438.7)" />
<use xlink:href="#f1_2f" transform="matrix(12,0,0,12,343.2,438.7)" />
<use xlink:href="#f1_25" transform="matrix(12,0,0,12,350.2,438.7)" />
<use xlink:href="#f1_2g" transform="matrix(12,0,0,12,354.3,438.7)" />
<use xlink:href="#f1_2l" transform="matrix(12,0,0,12,359.4,438.7)" />
<use xlink:href="#f1_2b" transform="matrix(12,0,0,12,370.4,438.7)" />
<use xlink:href="#f1_22" transform="matrix(12,0,0,12,380,438.7)" />
<use xlink:href="#f1_2g" transform="matrix(12,0,0,12,388.4,438.7)" />
<use xlink:href="#f1_24" transform="matrix(12,0,0,12,393.6,438.7)" />
<use xlink:href="#f1_21" transform="matrix(12,0,0,12,402,438.7)" />
<use xlink:href="#f1_1z" transform="matrix(12,0,0,12,413.4,438.7)" />
<use xlink:href="#f1_21" transform="matrix(12,0,0,12,421.1,438.7)" />
<use xlink:href="#f1_2a" transform="matrix(12,0,0,12,428.8,438.7)" />
<use xlink:href="#f1_2g" transform="matrix(12,0,0,12,437.3,438.7)" />
<use xlink:href="#f1_2e" transform="matrix(12,0,0,12,442.8,438.7)" />
<use xlink:href="#f1_1x" transform="matrix(12,0,0,12,448.7,438.7)" />
<use xlink:href="#f1_28" transform="matrix(12,0,0,12,456.4,438.7)" />
<use xlink:href="#f1_20" transform="matrix(12,0,0,12,464.1,438.7)" />
<use xlink:href="#f1_25" transform="matrix(12,0,0,12,472.9,438.7)" />
<use xlink:href="#f1_22" transform="matrix(12,0,0,12,477,438.7)" />
<use xlink:href="#f1_22" transform="matrix(12,0,0,12,482.1,438.7)" />
<use xlink:href="#f1_2e" transform="matrix(12,0,0,12,487.3,438.7)" />
<use xlink:href="#f1_1x" transform="matrix(12,0,0,12,493.5,438.7)" />
<use xlink:href="#f1_1z" transform="matrix(12,0,0,12,501.2,438.7)" />
<use xlink:href="#f1_2g" transform="matrix(12,0,0,12,508.9,438.7)" />
<use xlink:href="#f1_25" transform="matrix(12,0,0,12,514.1,438.7)" />
<use xlink:href="#f1_2b" transform="matrix(12,0,0,12,518.1,438.7)" />
<use xlink:href="#f1_2a" transform="matrix(12,0,0,12,527.6,438.7)" />
<use xlink:href="#f1_1y" transform="matrix(12,0,0,12,539,438.7)" />
<use xlink:href="#f1_1x" transform="matrix(12,0,0,12,547.5,438.7)" />
<use xlink:href="#f1_2a" transform="matrix(12,0,0,12,555.2,438.7)" />
<use xlink:href="#f1_20" transform="matrix(12,0,0,12,564,438.7)" />
<use xlink:href="#f1_z" transform="matrix(12,0,0,12,576.2,438.7)" />
<use xlink:href="#f1_15" transform="matrix(12,0,0,12,587.2,438.7)" />
<use xlink:href="#f1_2k" transform="matrix(12,0,0,12,598.2,438.7)" />
<use xlink:href="#f1_2c" transform="matrix(12,0,0,12,606.7,438.7)" />
<use xlink:href="#f1_28" transform="matrix(12,0,0,12,615.5,438.7)" />
<use xlink:href="#f1_1x" transform="matrix(12,0,0,12,619.5,438.7)" />
<use xlink:href="#f1_25" transform="matrix(12,0,0,12,627.6,438.7)" />
<use xlink:href="#f1_2a" transform="matrix(12,0,0,12,631.6,438.7)" />
<use xlink:href="#f1_i" transform="matrix(12,0,0,12,640.1,438.7)" />
<use xlink:href="#f1_11" transform="matrix(12,0,0,12,64.9,467.4)" />
<use xlink:href="#f1_2a" transform="matrix(12,0,0,12,78.1,467.4)" />
<use xlink:href="#f1_2f" transform="matrix(12,0,0,12,87.3,467.4)" />
<use xlink:href="#f1_i" transform="matrix(12,0,0,12,94.4,467.4)" />
<use xlink:href="#f1_1j" transform="matrix(12,0,0,12,157.8,467.4)" />
<use xlink:href="#f1_25" transform="matrix(12,0,0,12,168,467.4)" />
<use xlink:href="#f1_2m" transform="matrix(12,0,0,12,173.1,467.4)" />
<use xlink:href="#f1_21" transform="matrix(12,0,0,12,181.2,467.4)" />
<use xlink:href="#f1_2j" transform="matrix(12,0,0,12,192.6,467.4)" />
<use xlink:href="#f1_25" transform="matrix(12,0,0,12,205.9,467.4)" />
<use xlink:href="#f1_28" transform="matrix(12,0,0,12,211,467.4)" />
<use xlink:href="#f1_28" transform="matrix(12,0,0,12,216.1,467.4)" />
<use xlink:href="#f1_1y" transform="matrix(12,0,0,12,223.8,467.4)" />
<use xlink:href="#f1_21" transform="matrix(12,0,0,12,233,467.4)" />
<use xlink:href="#f1_24" transform="matrix(12,0,0,12,243.6,467.4)" />
<use xlink:href="#f1_1x" transform="matrix(12,0,0,12,252.8,467.4)" />
<use xlink:href="#f1_28" transform="matrix(12,0,0,12,260.9,467.4)" />
<use xlink:href="#f1_2i" transform="matrix(12,0,0,12,266,467.4)" />
<use xlink:href="#f1_21" transform="matrix(12,0,0,12,275.2,467.4)" />
<use xlink:href="#f1_20" transform="matrix(12,0,0,12,283.3,467.4)" />
<use xlink:href="#f1_g" transform="matrix(12,0,0,12,292.5,467.4)" />
<use xlink:href="#f1_25" transform="matrix(12,0,0,12,300.2,467.4)" />
<use xlink:href="#f1_2a" transform="matrix(12,0,0,12,305.3,467.4)" />
<use xlink:href="#f1_2g" transform="matrix(12,0,0,12,314.5,467.4)" />
<use xlink:href="#f1_21" transform="matrix(12,0,0,12,319.6,467.4)" />
<use xlink:href="#f1_2a" transform="matrix(12,0,0,12,327.7,467.4)" />
<use xlink:href="#f1_2f" transform="matrix(12,0,0,12,336.9,467.4)" />
<use xlink:href="#f1_25" transform="matrix(12,0,0,12,344,467.4)" />
<use xlink:href="#f1_2g" transform="matrix(12,0,0,12,349.1,467.4)" />
<use xlink:href="#f1_2l" transform="matrix(12,0,0,12,354.2,467.4)" />
<use xlink:href="#f1_2j" transform="matrix(12,0,0,12,366,467.4)" />
<use xlink:href="#f1_25" transform="matrix(12,0,0,12,379.2,467.4)" />
<use xlink:href="#f1_28" transform="matrix(12,0,0,12,384.3,467.4)" />
<use xlink:href="#f1_28" transform="matrix(12,0,0,12,389.4,467.4)" />
<use xlink:href="#f1_25" transform="matrix(12,0,0,12,396.7,467.4)" />
<use xlink:href="#f1_2a" transform="matrix(12,0,0,12,401.8,467.4)" />
<use xlink:href="#f1_1z" transform="matrix(12,0,0,12,411,467.4)" />
<use xlink:href="#f1_2e" transform="matrix(12,0,0,12,419.1,467.4)" />
<use xlink:href="#f1_21" transform="matrix(12,0,0,12,425.2,467.4)" />
<use xlink:href="#f1_1x" transform="matrix(12,0,0,12,433.4,467.4)" />
<use xlink:href="#f1_2f" transform="matrix(12,0,0,12,441.5,467.4)" />
<use xlink:href="#f1_21" transform="matrix(12,0,0,12,448.6,467.4)" />
<use xlink:href="#f1_20" transform="matrix(12,0,0,12,456.8,467.4)" />
<use xlink:href="#f1_2g" transform="matrix(12,0,0,12,468.5,467.4)" />
<use xlink:href="#f1_2b" transform="matrix(12,0,0,12,473.6,467.4)" />
<use xlink:href="#f1_22" transform="matrix(12,0,0,12,486.1,467.4)" />
<use xlink:href="#f1_2b" transform="matrix(12,0,0,12,492.2,467.4)" />
<use xlink:href="#f1_2h" transform="matrix(12,0,0,12,501.4,467.4)" />
<use xlink:href="#f1_2e" transform="matrix(12,0,0,12,510.6,467.4)" />
<use xlink:href="#f1_2g" transform="matrix(12,0,0,12,519.8,467.4)" />
<use xlink:href="#f1_25" transform="matrix(12,0,0,12,524.8,467.4)" />
<use xlink:href="#f1_29" transform="matrix(12,0,0,12,529.9,467.4)" />
<use xlink:href="#f1_21" transform="matrix(12,0,0,12,544.2,467.4)" />
<use xlink:href="#f1_2f" transform="matrix(12,0,0,12,552.3,467.4)" />
<use xlink:href="#f1_i" transform="matrix(12,0,0,12,559.5,467.4)" />
<use xlink:href="#f1_c" transform="matrix(12,0,0,12,117,520.8)" />
<use xlink:href="#f1_1z" transform="matrix(12,0,0,12,122.9,520.8)" />
<use xlink:href="#f1_d" transform="matrix(12,0,0,12,130.9,520.8)" />
<use xlink:href="#f1_1n" transform="matrix(12,0,0,12,157.1,520.8)" />
<use xlink:href="#f1_24" transform="matrix(12,0,0,12,173.6,520.8)" />
<use xlink:href="#f1_21" transform="matrix(12,0,0,12,182.4,520.8)" />
<use xlink:href="#f1_2a" transform="matrix(12,0,0,12,190.1,520.8)" />
<use xlink:href="#f1_1x" transform="matrix(12,0,0,12,202.3,520.8)" />
<use xlink:href="#f1_2g" transform="matrix(12,0,0,12,213.7,520.8)" />
<use xlink:href="#f1_25" transform="matrix(12,0,0,12,219.2,520.8)" />
<use xlink:href="#f1_2a" transform="matrix(12,0,0,12,223.2,520.8)" />
<use xlink:href="#f1_2l" transform="matrix(12,0,0,12,231.7,520.8)" />
<use xlink:href="#f1_1z" transform="matrix(12,0,0,12,243.4,520.8)" />
<use xlink:href="#f1_25" transform="matrix(12,0,0,12,251.5,520.8)" />
<use xlink:href="#f1_2e" transform="matrix(12,0,0,12,255.6,520.8)" />
<use xlink:href="#f1_1z" transform="matrix(12,0,0,12,261.8,520.8)" />
<use xlink:href="#f1_2h" transform="matrix(12,0,0,12,269.5,520.8)" />
<use xlink:href="#f1_28" transform="matrix(12,0,0,12,278.7,520.8)" />
<use xlink:href="#f1_1x" transform="matrix(12,0,0,12,282.7,520.8)" />
<use xlink:href="#f1_2e" transform="matrix(12,0,0,12,290.8,520.8)" />
<use xlink:href="#f1_2b" transform="matrix(12,0,0,12,299.7,520.8)" />
<use xlink:href="#f1_1y" transform="matrix(12,0,0,12,309.2,520.8)" />
<use xlink:href="#f1_2f" transform="matrix(12,0,0,12,317.6,520.8)" />
<use xlink:href="#f1_2g" transform="matrix(12,0,0,12,324.6,520.8)" />
<use xlink:href="#f1_1x" transform="matrix(12,0,0,12,329.8,520.8)" />
<use xlink:href="#f1_1z" transform="matrix(12,0,0,12,337.8,520.8)" />
<use xlink:href="#f1_28" transform="matrix(12,0,0,12,345.6,520.8)" />
<use xlink:href="#f1_21" transform="matrix(12,0,0,12,350,520.8)" />
<use xlink:href="#f1_25" transform="matrix(12,0,0,12,361,520.8)" />
<use xlink:href="#f1_2f" transform="matrix(12,0,0,12,365.4,520.8)" />
<use xlink:href="#f1_2c" transform="matrix(12,0,0,12,375.7,520.8)" />
<use xlink:href="#f1_28" transform="matrix(12,0,0,12,384.5,520.8)" />
<use xlink:href="#f1_1x" transform="matrix(12,0,0,12,389,520.8)" />
<use xlink:href="#f1_1z" transform="matrix(12,0,0,12,396.7,520.8)" />
<use xlink:href="#f1_21" transform="matrix(12,0,0,12,404.8,520.8)" />
<use xlink:href="#f1_20" transform="matrix(12,0,0,12,412.5,520.8)" />
<use xlink:href="#f1_25" transform="matrix(12,0,0,12,427.9,520.8)" />
<use xlink:href="#f1_2a" transform="matrix(12,0,0,12,432.3,520.8)" />
<use xlink:href="#f1_2g" transform="matrix(12,0,0,12,444.5,520.8)" />
<use xlink:href="#f1_24" transform="matrix(12,0,0,12,449.6,520.8)" />
<use xlink:href="#f1_21" transform="matrix(12,0,0,12,458.4,520.8)" />
<use xlink:href="#f1_2c" transform="matrix(12,0,0,12,469.5,520.8)" />
<use xlink:href="#f1_1x" transform="matrix(12,0,0,12,478.6,520.8)" />
<use xlink:href="#f1_2g" transform="matrix(12,0,0,12,486.3,520.8)" />
<use xlink:href="#f1_24" transform="matrix(12,0,0,12,491.8,520.8)" />
<use xlink:href="#f1_2b" transform="matrix(12,0,0,12,504,520.8)" />
<use xlink:href="#f1_22" transform="matrix(12,0,0,12,513.1,520.8)" />
<use xlink:href="#f1_28" transform="matrix(12,0,0,12,521.6,520.8)" />
<use xlink:href="#f1_25" transform="matrix(12,0,0,12,526,520.8)" />
<use xlink:href="#f1_23" transform="matrix(12,0,0,12,530.1,520.8)" />
<use xlink:href="#f1_24" transform="matrix(12,0,0,12,538.9,520.8)" />
<use xlink:href="#f1_2g" transform="matrix(12,0,0,12,547.7,520.8)" />
<use xlink:href="#f1_22" transform="matrix(12,0,0,12,556.5,520.8)" />
<use xlink:href="#f1_2e" transform="matrix(12,0,0,12,561.7,520.8)" />
<use xlink:href="#f1_2b" transform="matrix(12,0,0,12,567.9,520.8)" />
<use xlink:href="#f1_29" transform="matrix(12,0,0,12,577.1,520.8)" />
<use xlink:href="#f1_1x" transform="matrix(12,0,0,12,594,520.8)" />
<use xlink:href="#f1_20" transform="matrix(12,0,0,12,605.4,520.8)" />
<use xlink:href="#f1_25" transform="matrix(12,0,0,12,614.2,520.8)" />
<use xlink:href="#f1_2f" transform="matrix(12,0,0,12,618.6,520.8)" />
<use xlink:href="#f1_2g" transform="matrix(12,0,0,12,625.2,520.8)" />
<use xlink:href="#f1_1x" transform="matrix(12,0,0,12,630.7,520.8)" />
<use xlink:href="#f1_2a" transform="matrix(12,0,0,12,638.4,520.8)" />
<use xlink:href="#f1_2g" transform="matrix(12,0,0,12,647.3,520.8)" />
<use xlink:href="#f1_2f" transform="matrix(12,0,0,12,655.3,520.8)" />
<use xlink:href="#f1_2b" transform="matrix(12,0,0,12,662.3,520.8)" />
<use xlink:href="#f1_2h" transform="matrix(12,0,0,12,671.5,520.8)" />
<use xlink:href="#f1_2e" transform="matrix(12,0,0,12,680.7,520.8)" />
<use xlink:href="#f1_1z" transform="matrix(12,0,0,12,686.5,520.8)" />
<use xlink:href="#f1_21" transform="matrix(12,0,0,12,694.6,520.8)" />
<use xlink:href="#f1_g" transform="matrix(12,0,0,12,702.3,520.8)" />
<use xlink:href="#f1_1x" transform="matrix(12,0,0,12,710.4,520.8)" />
<use xlink:href="#f1_1y" transform="matrix(12,0,0,12,721.8,520.8)" />
<use xlink:href="#f1_2e" transform="matrix(12,0,0,12,730.3,520.8)" />
<use xlink:href="#f1_25" transform="matrix(12,0,0,12,736.5,520.8)" />
<use xlink:href="#f1_23" transform="matrix(12,0,0,12,740.6,520.8)" />
<use xlink:href="#f1_24" transform="matrix(12,0,0,12,748.4,520.8)" />
<use xlink:href="#f1_2g" transform="matrix(12,0,0,12,756.8,520.8)" />
<use xlink:href="#f1_2f" transform="matrix(12,0,0,12,765.6,520.8)" />
<use xlink:href="#f1_2c" transform="matrix(12,0,0,12,772.6,520.8)" />
<use xlink:href="#f1_2b" transform="matrix(12,0,0,12,781.4,520.8)" />
<use xlink:href="#f1_2g" transform="matrix(12,0,0,12,790.6,520.8)" />
<use xlink:href="#f1_25" transform="matrix(12,0,0,12,799,520.8)" />
<use xlink:href="#f1_2f" transform="matrix(12,0,0,12,803.5,520.8)" />
<use xlink:href="#f1_2f" transform="matrix(12,0,0,12,813.8,520.8)" />
<use xlink:href="#f1_21" transform="matrix(12,0,0,12,820.4,520.8)" />
<use xlink:href="#f1_21" transform="matrix(12,0,0,12,828.5,520.8)" />
<use xlink:href="#f1_2a" transform="matrix(12,0,0,12,836.2,520.8)" />
<use xlink:href="#f1_1x" transform="matrix(12,0,0,12,155.8,545.4)" />
<use xlink:href="#f1_2g" transform="matrix(12,0,0,12,163.6,545.4)" />
<use xlink:href="#f1_2g" transform="matrix(12,0,0,12,172.4,545.4)" />
<use xlink:href="#f1_24" transform="matrix(12,0,0,12,177.9,545.4)" />
<use xlink:href="#f1_21" transform="matrix(12,0,0,12,186.3,545.4)" />
<use xlink:href="#f1_1z" transform="matrix(12,0,0,12,201,545.4)" />
<use xlink:href="#f1_21" transform="matrix(12,0,0,12,208.8,545.4)" />
<use xlink:href="#f1_2a" transform="matrix(12,0,0,12,216.8,545.4)" />
<use xlink:href="#f1_2g" transform="matrix(12,0,0,12,225.3,545.4)" />
<use xlink:href="#f1_2e" transform="matrix(12,0,0,12,230.8,545.4)" />
<use xlink:href="#f1_21" transform="matrix(12,0,0,12,236.7,545.4)" />
<use xlink:href="#f1_2b" transform="matrix(12,0,0,12,248.1,545.4)" />
<use xlink:href="#f1_22" transform="matrix(12,0,0,12,257.6,545.4)" />
<use xlink:href="#f1_2g" transform="matrix(12,0,0,12,266.4,545.4)" />
<use xlink:href="#f1_24" transform="matrix(12,0,0,12,271.6,545.4)" />
<use xlink:href="#f1_21" transform="matrix(12,0,0,12,280.4,545.4)" />
<use xlink:href="#f1_2b" transform="matrix(12,0,0,12,294.7,545.4)" />
<use xlink:href="#f1_1y" transform="matrix(12,0,0,12,304.3,545.4)" />
<use xlink:href="#f1_2f" transform="matrix(12,0,0,12,312.7,545.4)" />
<use xlink:href="#f1_2g" transform="matrix(12,0,0,12,319.7,545.4)" />
<use xlink:href="#f1_1x" transform="matrix(12,0,0,12,324.8,545.4)" />
<use xlink:href="#f1_1z" transform="matrix(12,0,0,12,332.9,545.4)" />
<use xlink:href="#f1_28" transform="matrix(12,0,0,12,340.6,545.4)" />
<use xlink:href="#f1_21" transform="matrix(12,0,0,12,345.1,545.4)" />
<use xlink:href="#f1_i" transform="matrix(12,0,0,12,352.8,545.4)" />
<use xlink:href="#f1_15" transform="matrix(12,0,0,12,360.9,545.4)" />
<use xlink:href="#f1_2k" transform="matrix(12,0,0,12,372.2,545.4)" />
<use xlink:href="#f1_2c" transform="matrix(12,0,0,12,380.7,545.4)" />
<use xlink:href="#f1_28" transform="matrix(12,0,0,12,389.8,545.4)" />
<use xlink:href="#f1_1x" transform="matrix(12,0,0,12,393.9,545.4)" />
<use xlink:href="#f1_25" transform="matrix(12,0,0,12,402,545.4)" />
<use xlink:href="#f1_2a" transform="matrix(12,0,0,12,406,545.4)" />
<use xlink:href="#f1_2j" transform="matrix(12,0,0,12,418.1,545.4)" />
<use xlink:href="#f1_24" transform="matrix(12,0,0,12,431.4,545.4)" />
<use xlink:href="#f1_2l" transform="matrix(12,0,0,12,439.8,545.4)" />
<use xlink:href="#f1_i" transform="matrix(12,0,0,12,447.2,545.4)" />
<use xlink:href="#f1_11" transform="matrix(12,0,0,12,64.9,574)" />
<use xlink:href="#f1_2a" transform="matrix(12,0,0,12,77.4,574)" />
<use xlink:href="#f1_2f" transform="matrix(12,0,0,12,85.8,574)" />
<use xlink:href="#f1_i" transform="matrix(12,0,0,12,92.4,574)" />
<use xlink:href="#f1_14" transform="matrix(12,0,0,12,155.8,574)" />
<use xlink:href="#f1_2h" transform="matrix(12,0,0,12,168.7,574)" />
<use xlink:href="#f1_21" transform="matrix(12,0,0,12,177.5,574)" />
<use xlink:href="#f1_2g" transform="matrix(12,0,0,12,188.9,574)" />
<use xlink:href="#f1_2b" transform="matrix(12,0,0,12,194,574)" />
<use xlink:href="#f1_20" transform="matrix(12,0,0,12,206.1,574)" />
<use xlink:href="#f1_25" transform="matrix(12,0,0,12,215,574)" />
<use xlink:href="#f1_22" transform="matrix(12,0,0,12,219,574)" />
<use xlink:href="#f1_22" transform="matrix(12,0,0,12,224.5,574)" />
<use xlink:href="#f1_2e" transform="matrix(12,0,0,12,229.7,574)" />
<use xlink:href="#f1_1x" transform="matrix(12,0,0,12,235.6,574)" />
<use xlink:href="#f1_1z" transform="matrix(12,0,0,12,243.3,574)" />
<use xlink:href="#f1_2g" transform="matrix(12,0,0,12,251,574)" />
<use xlink:href="#f1_25" transform="matrix(12,0,0,12,256.1,574)" />
<use xlink:href="#f1_2b" transform="matrix(12,0,0,12,260.6,574)" />
<use xlink:href="#f1_2a" transform="matrix(12,0,0,12,269.7,574)" />
<use xlink:href="#f1_1x" transform="matrix(12,0,0,12,281.5,574)" />
<use xlink:href="#f1_2a" transform="matrix(12,0,0,12,289.2,574)" />
<use xlink:href="#f1_20" transform="matrix(12,0,0,12,297.7,574)" />
<use xlink:href="#f1_1x" transform="matrix(12,0,0,12,310.1,574)" />
<use xlink:href="#f1_28" transform="matrix(12,0,0,12,317.8,574)" />
<use xlink:href="#f1_2j" transform="matrix(12,0,0,12,321.9,574)" />
<use xlink:href="#f1_1x" transform="matrix(12,0,0,12,334.7,574)" />
<use xlink:href="#f1_2l" transform="matrix(12,0,0,12,342.5,574)" />
<use xlink:href="#f1_2f" transform="matrix(12,0,0,12,350.9,574)" />
<use xlink:href="#f1_1z" transform="matrix(12,0,0,12,360.9,574)" />
<use xlink:href="#f1_21" transform="matrix(12,0,0,12,368.6,574)" />
<use xlink:href="#f1_2a" transform="matrix(12,0,0,12,376.3,574)" />
<use xlink:href="#f1_2g" transform="matrix(12,0,0,12,384.7,574)" />
<use xlink:href="#f1_2e" transform="matrix(12,0,0,12,390.2,574)" />
<use xlink:href="#f1_1x" transform="matrix(12,0,0,12,396.1,574)" />
<use xlink:href="#f1_28" transform="matrix(12,0,0,12,403.8,574)" />
<use xlink:href="#f1_29" transform="matrix(12,0,0,12,410.8,574)" />
<use xlink:href="#f1_1x" transform="matrix(12,0,0,12,424.1,574)" />
<use xlink:href="#f1_2k" transform="matrix(12,0,0,12,432.1,574)" />
<use xlink:href="#f1_25" transform="matrix(12,0,0,12,440.6,574)" />
<use xlink:href="#f1_29" transform="matrix(12,0,0,12,444.6,574)" />
<use xlink:href="#f1_1x" transform="matrix(12,0,0,12,457.9,574)" />
<use xlink:href="#f1_25" transform="matrix(12,0,0,12,468.9,574)" />
<use xlink:href="#f1_2f" transform="matrix(12,0,0,12,473.3,574)" />
<use xlink:href="#f1_1y" transform="matrix(12,0,0,12,483.2,574)" />
<use xlink:href="#f1_2e" transform="matrix(12,0,0,12,491.7,574)" />
<use xlink:href="#f1_25" transform="matrix(12,0,0,12,497.6,574)" />
<use xlink:href="#f1_23" transform="matrix(12,0,0,12,501.6,574)" />
<use xlink:href="#f1_24" transform="matrix(12,0,0,12,510.8,574)" />
<use xlink:href="#f1_2g" transform="matrix(12,0,0,12,519.2,574)" />
<use xlink:href="#f1_i" transform="matrix(12,0,0,12,524.4,574)" />
<use xlink:href="#f3_m" transform="matrix(8,0,0,8,785.4,1264.2)" />
<use xlink:href="#f3_p" transform="matrix(8,0,0,8,792.2,1264.2)" />
</g>
<defs>
<path d="M448,514c0,0,104,0,155,19c0,0,52,19,81,69c0,0,30,50,30,129c0,0,0,116,-54,171c0,0,-54,55,-174,55H406V514ZM28,0V27c0,0,70,0,95,13c0,0,25,14,35,35c0,0,10,21,10,103V834c0,0,0,82,-10,104c0,0,-10,21,-35,34c0,0,-25,13,-95,13v27H498c0,0,184,0,269,-25c0,0,85,-26,138,-94c0,0,54,-68,54,-160c0,0,0,-112,-80,-185c0,0,-52,-46,-145,-69L977,135c0,0,48,-66,68,-82c0,0,31,-23,72,-26V0H798L472,462H406V178c0,0,0,-82,10,-104c0,0,10,-21,35,-34c0,0,25,-13,95,-13V0Z" 
id="f0_1i"
transform="scale(0.001,-0.001)" />

<path d="M458,424c0,0,0,120,-13,165c0,0,-13,44,-40,67c0,0,-16,14,-42,14c0,0,-39,0,-63,-38c0,0,-44,-66,-44,-182V424ZM358,-20c0,0,-155,0,-235,119c0,0,-64,96,-64,239c0,0,0,174,94,277c0,0,94,104,221,104c0,0,106,0,184,-87c0,0,78,-87,84,-257H259c0,0,7,-139,74,-220c0,0,51,-62,124,-62c0,0,45,0,81,25c0,0,37,25,79,90l25,-16C642,192,585,76,517,28c0,0,-69,-48,-159,-48Z" 
id="f0_21"
transform="scale(0.001,-0.001)" />

<path d="M49,0V26c0,0,47,1,67,11c0,0,20,10,28,28c0,0,7,18,7,75l-1,484H49v73H150v87c0,0,0,107,79,179c0,0,78,71,212,71c0,0,92,0,136,-34c0,0,45,-34,45,-76c0,0,0,-34,-28,-58c0,0,-28,-25,-73,-25c0,0,-39,0,-62,20c0,0,-22,20,-22,45c0,0,0,6,4,27c0,0,3,13,3,24c0,0,0,16,-9,23c0,0,-12,11,-29,11c0,0,-21,0,-36,-17c0,0,-15,-18,-15,-58l1,-130V697H460V624H356l1,-484c0,0,0,-70,15,-88c0,0,22,-26,81,-26c2,0,5,0,7,0V0Z" 
id="f0_22"
transform="scale(0.001,-0.001)" />

<path d="M32,0V26c0,0,46,2,69,27c0,0,14,18,14,92V867c0,0,0,74,-17,94c0,0,-17,21,-66,24v27H325V145c0,0,0,-74,17,-95c0,0,17,-21,68,-24V0Z" 
id="f0_28"
transform="scale(0.001,-0.001)" />

<path d="M365,-20c0,0,-139,0,-223,105c0,0,-83,105,-83,253c0,0,0,142,76,250c0,0,92,131,253,131c0,0,108,0,172,-55c0,0,63,-54,63,-121c0,0,0,-43,-25,-68c0,0,-26,-25,-68,-25c0,0,-44,0,-73,29c0,0,-28,29,-35,104c0,0,-5,47,-22,65c0,0,-17,19,-40,19c0,0,-36,0,-61,-38c0,0,-39,-58,-39,-176c0,0,0,-99,31,-188c0,0,32,-90,86,-134c0,0,41,-32,97,-32c0,0,36,0,69,17c0,0,33,17,78,65l23,-18C644,163,595,70,521,25c0,0,-73,-45,-156,-45Z" 
id="f0_1z"
transform="scale(0.001,-0.001)" />

<path d="M298,-9c0,0,-67,0,-113,36c0,0,-46,37,-58,83c0,0,-8,25,-8,137V624H28v26c0,0,94,66,161,139c0,0,66,73,115,163h25V697H494V624H329V193c0,0,0,-60,5,-78c0,0,6,-17,20,-28c0,0,14,-11,26,-11c0,0,48,0,92,75l22,-17C494,134,434,-9,298,-9Z" 
id="f0_2g"
transform="scale(0.001,-0.001)" />

<path d="M32,0V26c0,0,46,2,69,27c0,0,14,18,14,92V551c0,0,0,75,-17,95c0,0,-17,21,-66,24v27H325V145c0,0,0,-74,17,-95c0,0,17,-21,68,-24V0ZM220,804c0,0,-48,0,-82,33c0,0,-33,34,-33,82c0,0,0,48,33,82c0,0,34,33,82,33c0,0,48,0,82,-33c0,0,33,-34,33,-82c0,0,0,-48,-34,-82c0,0,-34,-33,-81,-33Z" 
id="f0_25"
transform="scale(0.001,-0.001)" />

<path d="M381,31c0,0,33,0,56,19c0,0,29,25,38,71c0,0,15,71,15,286c0,0,0,127,-14,174c0,0,-14,48,-42,69c0,0,-19,16,-50,16c0,0,-38,0,-65,-29c0,0,-27,-29,-36,-113c0,0,-8,-85,-8,-235c0,0,0,-80,10,-150c0,0,8,-53,35,-80c0,0,27,-28,61,-28Zm2,-51c0,0,-157,0,-242,110c0,0,-85,110,-85,256c0,0,0,150,87,261c0,0,86,112,238,112c0,0,90,0,169,-47c0,0,78,-47,119,-134c0,0,40,-86,40,-189c0,0,0,-149,-75,-249c0,0,-91,-120,-251,-120Z" 
id="f0_2b"
transform="scale(0.001,-0.001)" />

<path d="M52,0V26c0,0,44,5,62,29c0,0,13,16,13,97V546c0,0,0,79,-14,98c0,0,-15,20,-61,26v27H336V607c0,0,54,59,104,85c0,0,49,27,106,27c0,0,68,0,113,-38c0,0,44,-38,59,-94c0,0,12,-42,12,-163V152c0,0,0,-81,15,-101c0,0,14,-19,61,-25V0H452V26c0,0,40,6,57,33c0,0,12,19,12,93V462c0,0,0,86,-7,109c0,0,-6,22,-22,35c0,0,-16,12,-36,12c0,0,-64,0,-120,-92V152c0,0,0,-79,15,-100c0,0,15,-20,55,-26V0Z" 
id="f0_2a"
transform="scale(0.001,-0.001)" />

<path d="M350,115c0,0,37,0,86,42V391c0,0,-90,-53,-134,-113c0,0,-29,-41,-29,-82c0,0,0,-34,24,-60c0,0,19,-21,53,-21ZM207,-9c0,0,-59,0,-99,38c0,0,-40,40,-40,99c0,0,0,80,69,143c0,0,69,64,299,170v70c0,0,0,79,-8,100c0,0,-9,20,-33,36c0,0,-23,15,-53,15c0,0,-49,0,-80,-22c0,0,-19,-13,-19,-31c0,0,0,-16,21,-39c0,0,28,-32,28,-62c0,0,0,-36,-27,-62c0,0,-27,-26,-71,-26c0,0,-47,0,-79,29c0,0,-32,28,-32,66c0,0,0,54,43,103c0,0,42,48,118,75c0,0,76,26,158,26c0,0,99,0,157,-42c0,0,58,-43,75,-92c0,0,11,-31,11,-144V170c0,0,0,-47,3,-60c0,0,4,-12,11,-18c0,0,8,-6,18,-6c0,0,19,0,39,28L738,96c0,0,-37,-56,-77,-81c0,0,-40,-24,-90,-24c0,0,-60,0,-94,27c0,0,-33,28,-41,85C436,103,309,-9,207,-9Z" 
id="f0_1x"
transform="scale(0.001,-0.001)" />

<path d="M459,56c0,0,40,0,66,42c0,0,39,63,39,239c0,0,0,180,-42,247c0,0,-29,44,-76,44c0,0,-76,0,-124,-109V147c0,0,64,-91,137,-91ZM29,-326v28c0,0,46,1,69,26c0,0,14,17,14,89V551c0,0,0,75,-17,95c0,0,-17,21,-66,24v27H322V605c0,0,36,54,74,78c0,0,55,36,119,36c0,0,77,0,140,-49c0,0,63,-48,95,-134c0,0,33,-85,33,-184c0,0,0,-106,-34,-193c0,0,-34,-88,-98,-134c0,0,-65,-45,-144,-45c0,0,-57,0,-107,25c0,0,-37,19,-78,66V-188c0,0,0,-53,8,-73c0,0,9,-19,27,-28c0,0,18,-9,70,-9v-28Z" 
id="f0_2c"
transform="scale(0.001,-0.001)" />

<path d="M325,-20L139,484c0,0,-42,116,-71,151c0,0,-18,24,-56,35v27H364V670c0,0,-35,0,-49,-11c0,0,-13,-10,-13,-24c0,0,0,-12,24,-76L428,287l98,272l-7,18c0,0,-22,56,-39,72c0,0,-17,15,-52,21v27H785V670c0,0,-42,-2,-53,-12c0,0,-11,-9,-11,-26c0,0,0,-17,22,-73L841,287l90,251c0,0,19,53,19,73c0,0,0,29,-14,42c0,0,-14,14,-55,17v27h207V670c0,0,-35,-5,-55,-24c0,0,-20,-20,-52,-113L785,-20H743L551,491L364,-20Z" 
id="f0_2j"
transform="scale(0.001,-0.001)" />

<path d="M367,-20L133,520c0,0,-43,98,-67,124c0,0,-17,19,-50,26v27H386V670c0,0,-35,0,-48,-13c0,0,-18,-16,-18,-39c0,0,0,-27,33,-103L468,253l91,226c0,0,40,97,40,137c0,0,0,23,-17,38c0,0,-17,14,-59,16v27H750V670c0,0,-33,-5,-54,-25c0,0,-20,-20,-62,-118L402,-20Z" 
id="f0_2i"
transform="scale(0.001,-0.001)" />

<path d="M610,343L459,690L304,343ZM12,0V27c0,0,54,9,89,46c0,0,35,37,87,153l361,807h14L928,203c0,0,52,-118,86,-149c0,0,25,-23,71,-27V0H596V27h20c0,0,59,0,83,17c0,0,16,12,16,34c0,0,0,14,-4,28c0,0,-1,7,-22,56L634,288H279L235,190c0,0,-20,-50,-20,-82c0,0,0,-42,34,-63c0,0,20,-12,99,-18V0Z" 
id="f0_11"
transform="scale(0.001,-0.001)" />

<path d="M488,56c0,0,60,0,110,26c0,0,51,27,78,77c0,0,27,50,27,112c0,0,0,71,-33,127c0,0,-32,56,-90,79L407,499V137c0,0,0,-40,20,-61c0,0,21,-20,61,-20ZM407,557c0,0,107,0,157,24c0,0,51,24,78,67c0,0,27,44,27,111c0,0,0,67,-27,110c0,0,-26,43,-76,66c0,0,-47,21,-153,21c-2,0,-3,0,-5,0L407,557ZM32,0V27c0,0,70,0,95,13c0,0,25,14,35,35c0,0,10,21,10,103V834c0,0,0,82,-10,104c0,0,-10,21,-35,34c0,0,-26,13,-95,13v27H517c0,0,174,0,246,-31c0,0,73,-31,115,-92c0,0,41,-62,41,-131c0,0,0,-73,-53,-130c0,0,-53,-57,-186,-91c0,0,144,-34,202,-81c0,0,83,-68,83,-177c0,0,0,-114,-91,-189C874,90,761,0,546,0Z" 
id="f0_12"
transform="scale(0.001,-0.001)" />

<path d="M434,31c0,0,38,0,65,22c0,0,28,22,46,86c0,0,18,64,18,231c0,0,0,161,-40,220c0,0,-29,44,-78,44c0,0,-64,0,-123,-73V251c0,0,0,-95,4,-121c0,0,8,-44,36,-71c0,0,28,-28,72,-28ZM115,-20V867c0,0,0,61,-5,75c0,0,-7,21,-23,31c0,0,-17,10,-55,12v27H322V628c0,0,88,91,192,91c0,0,72,0,135,-42c0,0,64,-43,99,-120c0,0,36,-78,36,-179c0,0,0,-114,-45,-208C739,170,693,77,617,28c0,0,-76,-48,-174,-48c0,0,-56,0,-100,18c0,0,-44,17,-87,57L141,-20Z" 
id="f0_1y"
transform="scale(0.001,-0.001)" />

<path d="M182,-328c0,0,-62,0,-101,35c0,0,-38,35,-38,85c0,0,0,44,26,72c0,0,27,28,66,28c0,0,37,0,60,-23c0,0,22,-24,23,-74c0,0,1,-29,7,-37c0,0,6,-8,17,-8c0,0,18,0,38,21c0,0,30,32,70,144l22,57L146,488c0,0,-50,118,-74,144c0,0,-25,27,-59,38v27H384V670c0,0,-36,-2,-51,-14c0,0,-15,-13,-15,-31c0,0,0,-28,37,-112L475,239l81,212c0,0,44,113,44,157c0,0,0,27,-18,44c0,0,-18,16,-65,18v27H750V670c0,0,-34,-4,-56,-27c0,0,-22,-22,-72,-155L422,-27c0,0,-75,-194,-111,-239c0,0,-52,-62,-129,-62Z" 
id="f0_2l"
transform="scale(0.001,-0.001)" />

<path d="M52,0V26c0,0,44,5,62,29c0,0,13,16,13,97V860c0,0,0,80,-14,99c0,0,-15,20,-61,26v27H336V608c0,0,58,61,106,86c0,0,47,25,99,25c0,0,65,0,112,-38c0,0,47,-37,62,-87c0,0,15,-51,15,-170V152c0,0,0,-81,15,-100c0,0,15,-20,61,-26V0H452V26c0,0,37,6,56,30c0,0,13,20,13,96V463c0,0,0,86,-7,108c0,0,-6,22,-22,35c0,0,-16,12,-36,12c0,0,-30,0,-59,-21c0,0,-28,-20,-61,-72V152c0,0,0,-75,12,-94c0,0,14,-26,58,-32V0Z" 
id="f0_24"
transform="scale(0.001,-0.001)" />

<path d="M57,0V26c0,0,45,4,61,25c0,0,16,22,16,113V550c0,0,0,59,-6,76c0,0,-7,21,-22,30c0,0,-14,10,-49,14v27H342l1,-158c0,0,69,109,121,144c0,0,52,36,100,36c0,0,42,0,66,-26c0,0,25,-26,25,-73c0,0,0,-50,-24,-77c0,0,-25,-28,-59,-28c0,0,-39,0,-68,25c0,0,-28,26,-33,29c0,0,-8,4,-17,4c0,0,-22,0,-41,-16c0,0,-31,-26,-46,-73c0,0,-24,-72,-24,-159V122c0,0,0,-42,5,-54c0,0,9,-21,27,-30c0,0,17,-9,59,-12V0Z" 
id="f0_2e"
transform="scale(0.001,-0.001)" />

<path d="M393,-277c0,0,104,0,164,28c0,0,59,27,59,77c0,0,0,19,-11,32c0,0,-20,22,-61,30c0,0,-41,8,-218,8c0,0,-76,0,-101,-12c0,0,-42,-23,-42,-63c0,0,0,-38,44,-69c0,0,44,-31,166,-31ZM366,253c0,0,45,0,75,41c0,0,30,41,30,160c0,0,0,134,-33,183c0,0,-24,36,-68,36c0,0,-43,0,-73,-44c0,0,-30,-44,-30,-181c0,0,0,-112,29,-153c0,0,30,-42,70,-42Zm8,-581c0,0,-94,0,-171,18c0,0,-78,18,-112,51c0,0,-33,32,-33,68c0,0,0,34,25,61c0,0,26,28,96,46c0,0,-97,48,-97,132c0,0,0,51,40,100c0,0,39,48,125,84c0,0,-100,36,-145,96c0,0,-44,60,-44,138c0,0,0,103,83,178c0,0,84,75,215,75c0,0,70,0,144,-30H734V607H601c0,0,37,-36,51,-66c0,0,18,-40,18,-85c0,0,0,-74,-42,-129c0,0,-41,-55,-112,-86c0,0,-72,-31,-127,-31c0,0,-5,0,-90,4c0,0,-33,0,-56,-22c0,0,-23,-22,-23,-52c0,0,0,-27,21,-44c0,0,20,-17,66,-17l130,1c0,0,157,0,216,-34c0,0,84,-47,84,-146c0,0,0,-64,-39,-115c0,0,-38,-52,-102,-77c0,0,-96,-36,-222,-36Z" 
id="f0_23"
transform="scale(0.001,-0.001)" />

<path d="M312,-20c0,0,-50,0,-134,30c0,0,-22,9,-30,9c0,0,-25,0,-41,-37H82L70,232H97c0,0,33,-99,91,-148c0,0,59,-49,111,-49c0,0,35,0,58,22c0,0,22,22,22,54c0,0,0,35,-22,61c0,0,-22,27,-100,80c0,0,-114,79,-147,120c0,0,-49,62,-49,136c0,0,0,80,55,145c0,0,56,66,161,66c0,0,56,0,109,-28c0,0,20,-11,33,-11c0,0,13,0,21,5c0,0,9,6,27,32h26L504,479H477c0,0,-45,106,-94,145c0,0,-48,39,-96,39c0,0,-31,0,-52,-21c0,0,-22,-20,-22,-47c0,0,0,-20,15,-39c0,0,24,-30,133,-105c0,0,110,-74,144,-126c0,0,35,-52,35,-116c0,0,0,-58,-29,-114C511,95,482,39,429,9c0,0,-53,-29,-117,-29Z" 
id="f0_2f"
transform="scale(0.001,-0.001)" />

<path d="M304,-20c0,0,-59,0,-105,36c0,0,-45,36,-61,84c0,0,-16,49,-16,169V546c0,0,0,79,-14,98c0,0,-15,20,-61,26v27H331V221c0,0,0,-74,8,-96c0,0,7,-21,22,-33c0,0,15,-11,35,-11c0,0,27,0,49,14c0,0,30,20,71,78V546c0,0,0,79,-14,98c0,0,-15,20,-61,26v27H726V152c0,0,0,-81,14,-100c0,0,15,-20,61,-26V0H516V93C516,93,466,34,416,7c0,0,-50,-27,-112,-27Z" 
id="f0_2h"
transform="scale(0.001,-0.001)" />

<path d="M30,0V27H40c0,0,1,0,2,0c6,0,36,1,62,11c0,0,29,12,44,31c0,0,15,20,23,55c0,0,2,8,2,76V841c0,0,0,77,-9,96c0,0,-8,19,-33,33c0,0,-26,15,-69,15H30v27H445L729,346l274,666h412V985h-33c0,0,-45,0,-72,-16c0,0,-19,-10,-30,-35c0,0,-8,-18,-8,-93V173c0,0,0,-78,8,-97c0,0,8,-20,34,-34c0,0,25,-15,68,-15h33V0H886V27h33c0,0,44,0,71,16c0,0,19,11,30,36c0,0,8,18,8,94V923L641,0H623L229,916V203c0,0,0,-74,4,-91c0,0,10,-38,42,-61c0,0,33,-24,102,-24V0Z" 
id="f0_1d"
transform="scale(0.001,-0.001)" />

<path d="M910,-21L225,820V176c0,0,0,-87,40,-118c0,0,40,-31,91,-31h24V0H21V27c0,0,83,1,116,35c0,0,33,33,33,114V891l-21,26c0,0,-32,41,-57,53c0,0,-24,13,-71,15v27H380L880,385V819c0,0,0,92,-26,124c0,0,-34,42,-116,42c-1,0,-3,0,-4,0v27h334V985c0,0,-64,-9,-86,-22c0,0,-22,-13,-35,-42c0,0,-12,-30,-12,-102V-21Z" 
id="f0_1e"
transform="scale(0.001,-0.001)" />

<path d="M75,-267v33c0,0,87,38,126,97c0,0,40,59,40,121c0,0,0,12,-6,18c0,0,-5,6,-10,6c0,0,-5,0,-14,-5C211,3,190,-9,158,-9c0,0,-44,0,-77,34c0,0,-32,34,-32,80c0,0,0,49,37,87c0,0,37,37,90,37c0,0,64,0,110,-50c0,0,45,-49,45,-136c0,0,0,-106,-64,-188c0,0,-65,-83,-192,-122Z" 
id="f0_g"
transform="scale(0.001,-0.001)" />

<path d="M397,69c0,0,65,0,123,103V539c0,0,-55,105,-134,105c0,0,-28,0,-46,-15c0,0,-27,-23,-45,-81c0,0,-17,-58,-17,-178c0,0,0,-132,19,-195c0,0,19,-63,53,-91c0,0,17,-15,47,-15ZM332,-20c0,0,-133,0,-211,119c0,0,-62,97,-62,238c0,0,0,112,38,202c0,0,39,89,107,134c0,0,67,46,145,46c0,0,50,0,88,-20c0,0,39,-19,83,-67V842c0,0,0,80,-7,96c0,0,-8,22,-26,32c0,0,-18,11,-68,11v31H729V209c0,0,0,-81,5,-96c0,0,6,-25,22,-36c0,0,17,-12,58,-15V37L520,-20V90C520,90,467,26,426,3c0,0,-42,-23,-94,-23Z" 
id="f0_20"
transform="scale(0.001,-0.001)" />

<path d="M610,-21c0,0,-162,0,-287,63c0,0,-126,65,-194,187c0,0,-68,121,-68,258c0,0,0,145,75,275c0,0,76,129,205,201c0,0,128,71,273,71c0,0,107,0,225,-46c0,0,69,-27,88,-27c0,0,24,0,41,18c0,0,18,17,23,55h29V683H991c0,0,-33,138,-122,211c0,0,-90,73,-203,73c0,0,-95,0,-174,-54c0,0,-79,-55,-116,-143c0,0,-47,-112,-47,-250c0,0,0,-135,34,-247c0,0,35,-111,108,-168c0,0,73,-57,189,-57c0,0,96,0,175,42c0,0,80,41,168,144V146c0,0,-85,-89,-178,-129c0,0,-92,-38,-215,-38Z" 
id="f0_13"
transform="scale(0.001,-0.001)" />

<path d="M29,0V27H63c0,0,44,0,71,16c0,0,19,11,30,36c0,0,8,18,8,94V839c0,0,0,69,-4,84c0,0,-7,27,-27,41c0,0,-29,21,-78,21H29v27H877V713H850c0,0,-22,109,-61,157c0,0,-39,48,-111,70c0,0,-42,13,-158,13H416V542h20c0,0,97,0,140,60c0,0,44,60,56,178h27V251H632c0,0,-9,87,-38,142c0,0,-29,55,-67,74c0,0,-39,19,-111,19V201c0,0,0,-84,7,-103c0,0,7,-18,26,-30c0,0,20,-12,63,-12h60c0,0,142,0,228,65c0,0,86,66,123,201h28L905,0Z" 
id="f0_15"
transform="scale(0.001,-0.001)" />

<path d="M38,0V27H74c0,0,63,0,91,37c0,0,18,24,18,115V833c0,0,0,77,-10,102c0,0,-7,18,-30,32c0,0,-33,18,-69,18H38v27H470V985H434c0,0,-62,0,-90,-37c0,0,-18,-24,-18,-115V179c0,0,0,-77,9,-102c0,0,8,-18,31,-32c0,0,32,-18,68,-18h36V0Z" 
id="f1_19"
transform="scale(0.001,-0.001)" />

<path d="M63,0V26H93c0,0,30,0,54,15c0,0,25,15,34,41c0,0,10,25,10,99V630H58v53H191v45c0,0,0,102,33,173c0,0,32,71,100,114c0,0,68,44,152,44c0,0,79,0,145,-51c0,0,43,-33,43,-75c0,0,0,-22,-19,-42c0,0,-20,-20,-42,-20c0,0,-17,0,-36,12c0,0,-19,13,-47,53c0,0,-28,41,-51,55c0,0,-23,14,-51,14c0,0,-35,0,-58,-18c0,0,-24,-18,-35,-57c0,0,-10,-38,-10,-197V683H491V630H315V181c0,0,0,-96,21,-122c0,0,27,-33,73,-33h62V0Z" 
id="f1_22"
transform="scale(0.001,-0.001)" />

<path d="M336,-20L117,554c0,0,-21,55,-42,74c0,0,-21,19,-66,29v26H296V657c0,0,-40,-3,-52,-14c0,0,-13,-12,-13,-33c0,0,0,-23,13,-56L390,162L537,481L498,581c0,0,-18,46,-47,63c0,0,-17,11,-61,13v26H716V657c0,0,-54,-2,-77,-20c0,0,-15,-12,-15,-39c0,0,0,-15,6,-30L785,177L929,554c0,0,15,40,15,65c0,0,0,14,-15,25c0,0,-14,12,-57,13v26h216V657c0,0,-65,-10,-95,-89L764,-20H733L563,415L363,-20Z" 
id="f1_2j"
transform="scale(0.001,-0.001)" />

<path d="M479,469c0,0,-4,66,-16,93c0,0,-18,42,-55,65c0,0,-37,24,-78,24c0,0,-62,0,-111,-48c0,0,-48,-48,-57,-134ZM355,-20c0,0,-123,0,-211,95c0,0,-87,96,-87,258c0,0,0,175,90,273c0,0,89,98,225,98c0,0,115,0,189,-76c0,0,74,-75,74,-202H162c0,0,0,-152,74,-239c0,0,75,-86,175,-86c0,0,67,0,117,36c0,0,50,37,83,127l24,-15c0,0,-16,-102,-91,-186c0,0,-76,-83,-189,-83Z" 
id="f1_21"
transform="scale(0.001,-0.001)" />

<path d="M21,0V26H35c0,0,53,0,71,27c0,0,18,27,18,101V408c0,0,0,123,-5,150c0,0,-6,27,-17,37c0,0,-12,10,-31,10c0,0,-21,0,-50,-11L10,620l206,83h32V558c0,0,120,145,229,145c0,0,56,0,96,-28c0,0,40,-28,64,-92c0,0,16,-45,16,-137V154c0,0,0,-65,11,-88c0,0,8,-19,26,-29c0,0,18,-11,68,-11V0H419V26h14c0,0,47,0,66,15c0,0,20,15,27,43c0,0,3,11,3,70V434c0,0,0,93,-24,135c0,0,-24,42,-81,42c0,0,-88,0,-176,-97V154c0,0,0,-69,9,-86c0,0,10,-21,28,-31c0,0,19,-11,75,-11V0Z" 
id="f1_2a"
transform="scale(0.001,-0.001)" />

<path d="M406,32c0,0,72,0,119,60c0,0,47,59,47,205c0,0,0,181,-78,286c0,0,-53,71,-135,71c0,0,-40,0,-79,-23c0,0,-40,-24,-65,-83c0,0,-24,-58,-24,-151c0,0,0,-149,59,-257c0,0,59,-108,156,-108ZM374,-20c0,0,-154,0,-245,122c0,0,-77,104,-77,233c0,0,0,94,46,187c0,0,47,92,123,137c0,0,76,44,161,44c0,0,155,0,249,-118c0,0,80,-100,80,-231c0,0,0,-91,-44,-185C667,169,623,75,546,27c0,0,-77,-47,-172,-47Z" 
id="f1_2b"
transform="scale(0.001,-0.001)" />

<path d="M342,-20c0,0,-116,0,-203,97c0,0,-86,98,-86,264c0,0,0,161,96,261c0,0,95,101,230,101c0,0,100,0,165,-53c0,0,65,-54,65,-111c0,0,0,-29,-18,-46c0,0,-18,-18,-51,-18c0,0,-44,0,-66,29c0,0,-13,15,-17,59c0,0,-4,45,-30,68c0,0,-26,22,-73,22c0,0,-74,0,-120,-55c0,0,-60,-73,-60,-193c0,0,0,-122,60,-216c0,0,60,-93,162,-93c0,0,73,0,131,49c0,0,41,35,80,126l22,-10C629,261,601,125,521,52c0,0,-81,-72,-179,-72Z" 
id="f1_1z"
transform="scale(0.001,-0.001)" />

<path d="M312,-20c0,0,-62,0,-143,22c0,0,-25,8,-40,8c0,0,-18,0,-27,-19H77V234h25c0,0,21,-105,80,-158c0,0,59,-53,132,-53c0,0,51,0,84,31c0,0,32,30,32,72c0,0,0,52,-36,87c0,0,-36,35,-144,88c0,0,-109,54,-142,97c0,0,-34,43,-34,107c0,0,0,85,58,141c0,0,58,57,150,57c0,0,40,0,97,-17c0,0,38,-11,51,-11c0,0,12,0,19,5c0,0,7,5,15,23h25V470H464c0,0,-28,110,-72,149c0,0,-45,40,-113,40c0,0,-53,0,-85,-28c0,0,-32,-27,-32,-61c0,0,0,-41,24,-71c0,0,23,-31,94,-65L389,381c0,0,152,-74,152,-194c0,0,0,-94,-71,-151c0,0,-70,-56,-158,-56Z" 
id="f1_2f"
transform="scale(0.001,-0.001)" />

<path d="M55,0V26c0,0,50,0,67,10c0,0,17,10,27,32c0,0,10,23,10,86V418c0,0,0,111,-6,144c0,0,-6,24,-17,33c0,0,-11,10,-30,10c0,0,-21,0,-51,-11L45,620l206,83h33V154c0,0,0,-64,9,-85c0,0,9,-22,27,-32c0,0,19,-11,67,-11V0ZM222,909c0,0,-32,0,-54,23c0,0,-22,22,-22,53c0,0,0,32,22,54c0,0,22,22,54,22c0,0,31,0,53,-22c0,0,22,-22,22,-54c0,0,0,-31,-22,-53c0,0,-22,-23,-53,-23Z" 
id="f1_25"
transform="scale(0.001,-0.001)" />

<path d="M399,62c0,0,68,0,131,68V481c0,0,-5,51,-27,93c0,0,-22,42,-59,63c0,0,-37,21,-72,21c0,0,-65,0,-117,-59c0,0,-67,-77,-67,-226c0,0,0,-151,65,-231c0,0,66,-80,146,-80ZM330,-20c0,0,-112,0,-196,93c0,0,-83,94,-83,240c0,0,0,147,92,269c0,0,93,122,238,122c0,0,90,0,149,-58V773c0,0,0,117,-6,144c0,0,-5,27,-17,37c0,0,-12,9,-30,9c0,0,-20,0,-52,-12l-9,27l204,83h33V270c0,0,0,-120,6,-146c0,0,5,-27,18,-37c0,0,12,-11,28,-11c0,0,21,0,54,13l9,-26L564,-20H530V78C530,78,480,25,432,2c0,0,-47,-22,-102,-22Z" 
id="f1_20"
transform="scale(0.001,-0.001)" />

<path d="M17,0V26c0,0,52,0,77,17c0,0,19,12,26,38c0,0,4,13,4,73V419c0,0,0,119,-5,142c0,0,-4,23,-17,33c0,0,-13,11,-33,11c0,0,-23,0,-52,-11l-7,26l207,83h31V549c0,0,86,154,176,154c0,0,41,0,68,-25c0,0,27,-25,27,-58c0,0,0,-29,-20,-49c0,0,-19,-20,-46,-20c0,0,-26,0,-58,25c0,0,-33,26,-48,26c0,0,-14,0,-29,-15c0,0,-34,-30,-70,-101V159c0,0,0,-56,15,-85c0,0,9,-20,34,-34c0,0,24,-14,71,-14V0Z" 
id="f1_2e"
transform="scale(0.001,-0.001)" />

<path d="M255,-10c0,0,-35,0,-68,18c0,0,-32,19,-48,55c0,0,-16,35,-16,109V632H15v24c0,0,41,16,84,56c0,0,43,39,77,92c0,0,17,29,48,104h23V683H407V632H247V188c0,0,0,-66,19,-90c0,0,19,-23,49,-23c0,0,24,0,47,16c0,0,23,15,36,45h29c0,0,-26,-73,-74,-110c0,0,-47,-36,-98,-36Z" 
id="f1_2g"
transform="scale(0.001,-0.001)" />

<path d="M20,0V26c0,0,45,0,71,15c0,0,15,7,24,28c0,0,9,21,9,85V773c0,0,0,117,-5,144c0,0,-6,27,-17,37c0,0,-12,9,-31,9c0,0,-16,0,-51,-12L10,978l204,83h34V561c0,0,83,91,131,116c0,0,49,26,97,26c0,0,58,0,100,-32c0,0,42,-32,62,-101c0,0,14,-47,14,-174V154c0,0,0,-65,11,-89c0,0,7,-18,25,-28c0,0,18,-11,66,-11V0H418V26h15c0,0,48,0,67,15c0,0,18,15,26,43c0,0,2,12,2,70V396c0,0,0,112,-12,147c0,0,-11,35,-36,53c0,0,-26,17,-61,17c0,0,-37,0,-76,-19c0,0,-40,-20,-95,-79V154c0,0,0,-70,8,-87c0,0,8,-17,29,-29c0,0,22,-12,74,-12V0Z" 
id="f1_24"
transform="scale(0.001,-0.001)" />

<path d="M286,72c0,0,57,0,149,75V407c0,0,-113,-45,-145,-64c0,0,-59,-32,-85,-68c0,0,-25,-36,-25,-78c0,0,0,-54,32,-89c0,0,32,-36,74,-36ZM217,-13c0,0,-71,0,-116,48c0,0,-46,48,-46,127c0,0,0,50,22,87c0,0,31,50,106,95c0,0,76,45,252,109v26c0,0,0,102,-32,140c0,0,-32,38,-94,38c0,0,-47,0,-74,-25c0,0,-28,-25,-28,-58l1,-43c0,0,0,-34,-17,-53c0,0,-18,-18,-47,-18c0,0,-28,0,-45,19c0,0,-18,19,-18,53c0,0,0,64,66,117c0,0,65,54,184,54c0,0,91,0,149,-31c0,0,44,-23,65,-72c0,0,13,-32,13,-131V238c0,0,0,-98,4,-120c0,0,4,-22,12,-29c0,0,9,-8,20,-8c0,0,12,0,21,5c0,0,16,10,61,55V99C676,99,592,-12,516,-12c0,0,-37,0,-58,24c0,0,-22,26,-23,86C435,98,330,17,303,5c0,0,-40,-18,-86,-18Z" 
id="f1_1x"
transform="scale(0.001,-0.001)" />

<path d="M411,-239c0,0,134,0,198,48c0,0,64,47,64,100c0,0,0,39,-38,55c0,0,-39,16,-154,19c0,0,-167,5,-258,17c0,0,-35,-37,-53,-70c0,0,-17,-32,-17,-60c0,0,0,-36,43,-62c0,0,74,-47,215,-47ZM380,257c0,0,56,0,93,43c0,0,36,42,36,133c0,0,0,118,-51,185c0,0,-38,49,-98,49c0,0,-55,0,-92,-44c0,0,-37,-44,-37,-135c0,0,0,-117,50,-182c0,0,39,-49,99,-49ZM345,-328c0,0,-144,0,-243,64c0,0,-56,38,-56,78c0,0,0,18,8,36c0,0,13,27,52,76c0,0,5,7,76,80c0,0,-39,23,-55,41c0,0,-16,19,-16,42c0,0,0,26,22,61c0,0,21,35,98,100c0,0,-63,30,-97,85c0,0,-33,55,-33,121c0,0,0,101,76,174c0,0,77,73,196,73c0,0,98,0,170,-48H688c0,0,32,0,37,-2c0,0,6,-2,8,-6c0,0,4,-7,4,-24c0,0,0,-20,-4,-27c0,0,-2,-4,-7,-6c0,0,-6,-2,-38,-2H599c0,0,41,-54,41,-137c0,0,0,-96,-73,-163c0,0,-73,-68,-196,-68c0,0,-51,0,-104,15c0,0,-33,-28,-44,-49c0,0,-12,-22,-12,-37c0,0,0,-12,13,-24c0,0,12,-12,48,-17c0,0,21,-4,104,-6c0,0,154,-4,199,-11c0,0,70,-10,111,-51c0,0,42,-41,42,-102c0,0,0,-84,-79,-158c0,0,-117,-108,-304,-108Z" 
id="f1_23"
transform="scale(0.001,-0.001)" />

<path d="M58,0V26c0,0,47,0,64,10c0,0,18,10,28,32c0,0,9,23,9,86V775c0,0,0,116,-5,142c0,0,-5,27,-17,37c0,0,-11,9,-29,9c0,0,-20,0,-49,-12L46,978l204,83h34V154c0,0,0,-64,9,-85c0,0,9,-21,29,-32c0,0,19,-11,72,-11V0Z" 
id="f1_28"
transform="scale(0.001,-0.001)" />

<path d="M-33,0l9,26c0,0,58,2,78,11c0,0,30,13,43,34c0,0,20,31,48,130L318,812c0,0,21,74,21,113c0,0,0,28,-20,45c0,0,-20,16,-77,16H226l9,26H966L904,769H878c0,0,5,34,5,57c0,0,0,39,-20,66c0,0,-25,34,-74,52c0,0,-36,13,-166,13H488L374,557h99c0,0,102,0,148,31c0,0,46,31,79,115h26L623,336H593c0,0,13,46,13,79c0,0,0,32,-13,52c0,0,-13,19,-36,28c0,0,-23,10,-95,10H361L263,156c0,0,-14,-43,-14,-66c0,0,0,-17,19,-30c0,0,13,-9,65,-9h93c0,0,145,0,233,51c0,0,87,52,157,180h27L747,0Z" 
id="f2_15"
transform="scale(0.001,-0.001)" />

<path d="M600,387l39,398L345,387ZM-74,0l8,26c0,0,55,3,97,37c0,0,42,35,125,149l605,822h26L710,193c0,0,-6,-59,-6,-78c0,0,0,-30,11,-46c0,0,14,-22,39,-32c0,0,24,-11,81,-11L827,0H429l8,26h17c0,0,49,0,79,21c0,0,22,15,34,48c0,0,8,23,15,109l13,128H305L202,193c0,0,-35,-47,-44,-68c0,0,-9,-20,-9,-38c0,0,0,-25,20,-42c0,0,19,-17,64,-19L225,0Z" 
id="f2_11"
transform="scale(0.001,-0.001)" />

<path d="M518,-21c0,0,-124,0,-220,50c0,0,-95,52,-145,146c0,0,-50,94,-50,202c0,0,0,166,88,322c0,0,89,157,244,246c0,0,155,89,312,89c0,0,74,0,166,-34c0,0,40,-15,58,-15c0,0,18,0,31,7c0,0,14,8,45,42h28L999,707H972l-3,82c0,0,-4,45,-17,80c0,0,-14,35,-40,61c0,0,-27,26,-68,40c0,0,-41,15,-91,15c0,0,-134,0,-234,-73c0,0,-127,-94,-199,-264c0,0,-60,-140,-60,-284c0,0,0,-147,86,-234c0,0,86,-88,223,-88c0,0,104,0,185,46c0,0,81,47,151,143h35C940,231,858,100,757,39c0,0,-100,-60,-239,-60Z" 
id="f2_13"
transform="scale(0.001,-0.001)" />

<path d="M357,55c0,0,117,0,206,70c0,0,90,70,90,191c0,0,0,92,-56,144c0,0,-57,51,-182,51c0,0,-24,0,-59,-3L231,65c0,0,81,-10,126,-10Zm86,508c0,0,158,0,234,68c0,0,77,67,77,169c0,0,0,76,-48,119c0,0,-48,43,-153,43c0,0,-28,0,-71,-9L372,564c0,0,49,-1,71,-1ZM-34,0l10,26c0,0,57,2,78,12c0,0,30,12,42,33c0,0,18,29,48,131L318,816c0,0,23,78,23,109c0,0,0,28,-20,44c0,0,-21,16,-78,16c0,0,-13,0,-24,1l10,26H594c0,0,92,0,164,-28c0,0,72,-29,108,-79c0,0,36,-51,36,-108c0,0,0,-87,-66,-157c0,0,-66,-71,-216,-104c0,0,99,-35,146,-91c0,0,46,-57,46,-125c0,0,0,-76,-39,-144c0,0,-39,-69,-99,-107C674,69,613,31,527,13C527,13,466,0,336,0Z" 
id="f2_12"
transform="scale(0.001,-0.001)" />

<path d="M145,-328c0,0,-44,0,-73,25c0,0,-28,25,-28,58c0,0,0,31,21,50c0,0,20,19,56,19c0,0,25,0,67,-16c0,0,30,-11,38,-11c0,0,22,0,49,23c0,0,26,23,53,89L376,28L131,542c0,0,-11,24,-36,58c0,0,-19,27,-30,36c0,0,-18,12,-56,21v26H328V657H312c0,0,-33,0,-50,-15c0,0,-17,-14,-17,-36c0,0,0,-30,25,-81L437,179L589,557c0,0,12,31,12,62c0,0,0,13,-5,20c0,0,-6,8,-19,13c0,0,-12,5,-44,5v26H754V657c0,0,-27,-3,-42,-12c0,0,-15,-9,-33,-34c0,0,-7,-10,-25,-58L376,-128c0,0,-40,-99,-105,-150c0,0,-66,-50,-126,-50Z" 
id="f1_2l"
transform="scale(0.001,-0.001)" />

<path d="M292,-20c0,0,-57,0,-100,33c0,0,-42,33,-58,85c0,0,-17,52,-17,148V551c0,0,0,49,-10,68c0,0,-11,18,-31,29c0,0,-19,9,-68,9c-2,0,-4,0,-6,0v26H242V226c0,0,0,-95,33,-125c0,0,33,-30,80,-30c0,0,32,0,73,21c0,0,40,20,96,76V555c0,0,0,59,-21,80c0,0,-22,21,-89,22v26H647V269c0,0,0,-119,6,-145c0,0,6,-27,18,-37c0,0,12,-11,29,-11c0,0,23,0,52,13L763,63L558,-20H524V124C524,124,436,29,390,4c0,0,-47,-24,-98,-24Z" 
id="f1_2h"
transform="scale(0.001,-0.001)" />

<path d="M82,-253v33c0,0,77,25,119,78c0,0,42,54,42,114c0,0,0,14,-7,23c0,0,-5,6,-11,6c0,0,-8,0,-35,-14c0,0,-14,-7,-28,-7c0,0,-37,0,-58,21C104,1,82,23,82,61c0,0,0,36,28,62c0,0,28,27,68,27c0,0,49,0,88,-43c0,0,38,-43,38,-113c0,0,0,-77,-53,-143c0,0,-53,-66,-169,-104Z" 
id="f1_g"
transform="scale(0.001,-0.001)" />

<path d="M145,-17c0,0,-29,0,-48,18C97,1,79,19,79,46c0,0,0,28,20,93L201,475c0,0,24,82,24,103c0,0,0,17,-11,27c0,0,-12,10,-32,10c0,0,-16,0,-68,-8v30l260,42L218,149c0,0,-16,-53,-16,-64c0,0,0,-11,6,-19c0,0,7,-7,15,-7c0,0,11,0,25,12c0,0,39,33,78,95l26,-17C352,149,304,72,238,20c0,0,-49,-37,-93,-37ZM342,825c0,0,-31,0,-53,22c0,0,-22,22,-22,53c0,0,0,31,22,53c0,0,21,22,53,22c0,0,31,0,53,-22c0,0,22,-22,22,-53c0,0,0,-31,-23,-53c0,0,-22,-22,-52,-22Z" 
id="f2_25"
transform="scale(0.001,-0.001)" />

<path d="M31,0L164,463c0,0,24,81,24,115c0,0,0,14,-12,23c0,0,-14,12,-37,12c0,0,-15,0,-54,-7L74,633l255,42L220,312c0,0,134,223,243,312c0,0,62,51,102,51c0,0,25,0,39,-15c0,0,15,-15,15,-42c0,0,0,-50,-25,-94c0,0,-18,-34,-52,-34c0,0,-17,0,-30,11c0,0,-12,11,-15,35c0,0,-1,14,-7,18c0,0,-6,6,-14,6c0,0,-13,0,-24,-6c0,0,-19,-10,-59,-58c0,0,-62,-73,-134,-189c0,0,-32,-49,-54,-111c0,0,-32,-85,-36,-102L145,0Z" 
id="f2_2e"
transform="scale(0.001,-0.001)" />

<path d="M397,34c0,0,67,0,126,75c0,0,58,74,58,216c0,0,0,131,-58,201c0,0,-59,70,-133,70c0,0,-39,0,-79,-20c0,0,-29,-14,-75,-59V109c0,0,37,-37,78,-56c0,0,40,-19,83,-19ZM358,-20c0,0,-59,0,-121,21c0,0,-61,22,-126,65V773c0,0,0,117,-5,144c0,0,-6,27,-18,37c0,0,-12,9,-29,9c0,0,-21,0,-53,-12l-9,27l205,83h34V564c0,0,98,139,213,139c0,0,105,0,183,-90c0,0,78,-90,78,-245c0,0,0,-182,-121,-293c0,0,-103,-95,-231,-95Z" 
id="f1_1y"
transform="scale(0.001,-0.001)" />

<path d="M384,85c0,0,44,0,78,19c0,0,35,19,68,62V487c0,0,0,55,-15,87c0,0,-14,33,-51,55c0,0,-38,22,-85,22c0,0,-84,0,-143,-71c0,0,-60,-70,-60,-214c0,0,0,-138,61,-209c0,0,61,-72,147,-72Zm35,-411v27h15c0,0,41,0,63,12c0,0,15,8,24,30c0,0,9,21,9,83V119C530,119,462,39,411,9c0,0,-50,-29,-105,-29c0,0,-99,0,-177,90c0,0,-78,90,-78,241c0,0,0,174,103,283c0,0,103,109,248,109c0,0,43,0,78,-12c0,0,36,-12,65,-35c0,0,43,20,83,47h25V-174c0,0,0,-66,9,-85c0,0,9,-19,28,-30c0,0,19,-10,74,-10v-27Z" 
id="f1_2d"
transform="scale(0.001,-0.001)" />

<path d="M191,-20c0,0,-34,0,-58,24c0,0,-24,24,-24,58c0,0,0,35,24,59c0,0,24,24,58,24c0,0,35,0,59,-24c0,0,24,-25,24,-59c0,0,0,-34,-24,-58c0,0,-25,-24,-59,-24Z" 
id="f1_i"
transform="scale(0.001,-0.001)" />

<path d="M253,0V27h36c0,0,64,0,91,39c0,0,16,24,16,109V948H274c0,0,-71,0,-100,-10c0,0,-39,-14,-67,-54c0,0,-27,-41,-33,-109H46l12,237H883L894,775H865c0,0,-8,62,-22,89c0,0,-23,43,-61,64c0,0,-39,20,-101,20H539V175c0,0,0,-93,20,-116c0,0,28,-32,87,-32h36V0Z" 
id="f1_1k"
transform="scale(0.001,-0.001)" />

<path d="M474,-326c0,0,-112,57,-188,133c0,0,-107,108,-165,254c0,0,-58,147,-58,305c0,0,0,231,114,421c0,0,114,191,297,273v-31c0,0,-92,-51,-151,-139c0,0,-59,-88,-88,-223c0,0,-30,-135,-30,-281c0,0,0,-160,25,-290c0,0,20,-102,47,-164c0,0,28,-62,75,-120c0,0,47,-57,122,-109v-29Z" 
id="f1_c"
transform="scale(0.001,-0.001)" />

<path d="M35,-326v29c0,0,92,51,151,139c0,0,60,87,89,221c0,0,28,136,28,282c0,0,0,159,-24,290c0,0,-19,103,-47,165c0,0,-28,62,-75,119c0,0,-46,57,-122,110v31c0,0,113,-56,188,-132c0,0,107,-109,165,-255c0,0,58,-147,58,-306c0,0,0,-231,-114,-420c0,0,-113,-191,-297,-273Z" 
id="f1_d"
transform="scale(0.001,-0.001)" />

<path d="M25,0V26c0,0,27,4,47,19c0,0,29,22,96,111L311,346L182,535c0,0,-55,81,-86,102c0,0,-30,20,-75,20v26H341V657c0,0,-30,0,-42,-10c0,0,-13,-11,-13,-28c0,0,0,-19,27,-56c0,0,8,-12,25,-37l48,-78l56,77c0,0,55,74,55,94c0,0,0,16,0,27c0,0,0,11,0,11v26H674V657c0,0,-37,-2,-64,-20c0,0,-37,-26,-100,-111L416,402L587,156c0,0,63,-91,89,-109c0,0,27,-18,70,-21V0H423V26c0,0,34,0,53,15c0,0,14,11,14,28c0,0,0,17,-48,87L341,302L232,157c0,0,-50,-69,-50,-82c0,0,0,-18,17,-32c0,0,17,-15,50,-17V0Z" 
id="f1_2k"
transform="scale(0.001,-0.001)" />

<path d="M398,24c0,0,74,0,120,58c0,0,61,76,61,214c0,0,0,156,-69,240c0,0,-47,59,-113,59c0,0,-36,0,-71,-18c0,0,-27,-14,-88,-81V242c0,0,0,-83,6,-109c0,0,11,-43,51,-76c0,0,41,-33,103,-33ZM-4,-326v27H15c5,0,42,0,69,16c0,0,14,8,22,26c0,0,7,19,7,94V481c0,0,0,67,-6,85c0,0,-5,18,-18,27c0,0,-13,9,-36,9c0,0,-18,0,-45,-10L0,615l209,85h29V540c0,0,53,91,106,127c0,0,53,36,112,36c0,0,103,0,172,-80c0,0,84,-99,84,-257c0,0,0,-176,-102,-292c0,0,-83,-94,-210,-94c0,0,-55,0,-95,16c0,0,-30,10,-67,44V-167c0,0,0,-71,8,-90c0,0,9,-20,30,-31c0,0,21,-11,77,-11v-27Z" 
id="f1_2c"
transform="scale(0.001,-0.001)" />

<path d="M23,0V26c0,0,47,0,66,10c0,0,19,11,28,33c0,0,10,22,10,85V416c0,0,0,112,-7,145c0,0,-5,25,-16,34c0,0,-11,10,-31,10c0,0,-21,0,-50,-11L12,620l207,83h32V557c0,0,75,75,88,86c0,0,34,29,72,44c0,0,39,16,77,16c0,0,64,0,110,-37c0,0,47,-38,62,-109c0,0,77,90,130,118c0,0,53,28,109,28c0,0,54,0,96,-28c0,0,42,-28,67,-91c0,0,16,-43,16,-136V154c0,0,0,-64,10,-88c0,0,8,-16,28,-28c0,0,20,-12,65,-12V0H844V26h14c0,0,44,0,69,18c0,0,17,12,24,38c0,0,3,13,3,72V448c0,0,0,83,-20,117c0,0,-29,48,-93,48c0,0,-39,0,-79,-20c0,0,-40,-19,-97,-73l-1,-8l2,-32V154c0,0,0,-70,8,-87c0,0,7,-17,29,-29c0,0,21,-12,73,-12V0H431V26c0,0,57,0,78,14c0,0,21,13,29,40c0,0,4,13,4,74V448c0,0,0,83,-25,120c0,0,-33,48,-91,48c0,0,-40,0,-80,-22c0,0,-61,-33,-95,-74V154c0,0,0,-67,10,-87c0,0,9,-20,27,-30c0,0,18,-11,74,-11V0Z" 
id="f1_29"
transform="scale(0.001,-0.001)" />

<path d="M26,0V27H62c0,0,63,0,91,37c0,0,18,24,18,115V833c0,0,0,77,-10,102c0,0,-7,18,-30,32c0,0,-33,18,-69,18H26v27H459V985H422c0,0,-35,0,-67,-17c0,0,-23,-12,-32,-36c0,0,-9,-25,-9,-99V542H784V833c0,0,0,77,-10,102c0,0,-8,18,-31,32c0,0,-33,18,-68,18H639v27h432V985h-36c0,0,-36,0,-68,-17c0,0,-24,-12,-32,-36c0,0,-9,-25,-9,-99V179c0,0,0,-77,10,-102c0,0,7,-18,31,-32c0,0,32,-18,68,-18h36V0H639V27h36c0,0,62,0,90,37c0,0,19,24,19,115V487H314V179c0,0,0,-77,9,-102c0,0,8,-18,32,-32c0,0,32,-18,67,-18h37V0Z" 
id="f1_18"
transform="scale(0.001,-0.001)" />

<path d="M30,0V27L485,632H260c0,0,-72,0,-94,-10c0,0,-22,-9,-36,-35c0,0,-20,-37,-23,-92H76l5,188H654V656L196,51H445c0,0,79,0,106,13c0,0,28,13,45,46c0,0,12,23,21,100h25L634,0Z" 
id="f1_2m"
transform="scale(0.001,-0.001)" />

<path d="M328,-20c0,0,-34,0,-58,24c0,0,-25,24,-25,58c0,0,0,35,25,59c0,0,24,24,58,24c0,0,34,0,59,-24c0,0,24,-24,24,-59c0,0,0,-34,-25,-58c0,0,-24,-24,-58,-24ZM308,238c0,0,5,94,23,155c0,0,18,62,76,172c0,0,44,84,58,129c0,0,13,46,13,92c0,0,0,95,-50,150c0,0,-50,56,-123,56c0,0,-65,0,-102,-30c0,0,-38,-31,-38,-67c0,0,0,-27,23,-67c0,0,22,-41,22,-62c0,0,0,-26,-17,-45c0,0,-17,-18,-42,-18c0,0,-31,0,-57,31c0,0,-26,31,-26,86c0,0,0,85,73,150c0,0,72,64,196,64c0,0,153,0,225,-89c0,0,54,-66,54,-146c0,0,0,-54,-24,-112c0,0,-25,-57,-92,-135C500,552,391,430,367,378c0,0,-24,-51,-29,-140Z" 
id="f1_z"
transform="scale(0.001,-0.001)" />

<path d="M31,0V27H67c0,0,36,0,68,18c0,0,24,12,32,36c0,0,9,24,9,98V836c0,0,0,96,-19,119c0,0,-27,30,-90,30H31v27H811L822,790H792c0,0,-15,80,-34,110c0,0,-19,30,-57,46c0,0,-29,11,-105,11H319V557H541c0,0,87,0,116,26c0,0,39,35,44,121h27V352H701c0,0,-11,74,-21,95c0,0,-14,26,-45,41c0,0,-30,15,-94,15H319V168c0,0,0,-67,6,-81c0,0,6,-15,21,-24c0,0,15,-8,56,-8H574c0,0,86,0,124,12c0,0,39,12,75,47c0,0,46,46,95,139h30L811,0Z" 
id="f1_15"
transform="scale(0.001,-0.001)" />

<path d="M678,393L506,802L330,393ZM11,0V27c0,0,63,12,82,30c0,0,38,35,84,145l356,832h27L912,193c0,0,43,-101,77,-132c0,0,35,-30,97,-34V0H687V27c0,0,60,3,82,21c0,0,21,17,21,41c0,0,0,33,-30,104L700,338H307L239,179c0,0,-26,-59,-26,-88c0,0,0,-23,22,-41c0,0,22,-17,95,-23V0Z" 
id="f1_11"
transform="scale(0.001,-0.001)" />

<path d="M107,-21V325h27c0,0,19,-109,52,-163c0,0,33,-54,100,-90c0,0,68,-36,148,-36c0,0,93,0,148,49c0,0,54,50,54,117c0,0,0,37,-21,75c0,0,-20,38,-64,71c0,0,-29,22,-159,95c0,0,-130,72,-185,115c0,0,-55,44,-83,96c0,0,-28,52,-28,114c0,0,0,109,83,188c0,0,84,78,213,78c0,0,81,0,171,-39c0,0,42,-19,59,-19c0,0,20,0,32,11c0,0,12,12,20,47h27V684H674c0,0,-14,101,-48,161c0,0,-35,60,-100,95c0,0,-64,35,-133,35c0,0,-77,0,-128,-47c0,0,-51,-48,-51,-108c0,0,0,-46,32,-84c0,0,47,-56,221,-149c0,0,142,-76,194,-117c0,0,51,-41,80,-96c0,0,28,-55,28,-115c0,0,0,-115,-90,-198c0,0,-89,-82,-229,-82c0,0,-44,0,-83,6c0,0,-23,4,-95,27c0,0,-73,24,-93,24c0,0,-18,0,-29,-11c0,0,-11,-12,-16,-46Z" 
id="f1_1j"
transform="scale(0.001,-0.001)" />

<path d="M376,-20L133,556c0,0,-17,41,-31,58c0,0,-15,18,-39,30c0,0,-12,7,-50,13v26H335V657H314c0,0,-29,0,-44,-14c0,0,-16,-14,-15,-38c0,0,-1,-26,15,-62L429,165L588,557c0,0,17,42,17,64c0,0,0,10,-6,17c0,0,-8,11,-21,15c0,0,-13,4,-52,4v26H750V657c0,0,-39,-3,-54,-16c0,0,-26,-23,-47,-76L409,-20Z" 
id="f1_2i"
transform="scale(0.001,-0.001)" />

<path d="M474,-21L174,817c0,0,-34,94,-42,112c0,0,-15,28,-41,42c0,0,-26,14,-70,14v27H395V985H377c0,0,-40,0,-60,-18c0,0,-21,-18,-21,-44c0,0,0,-26,33,-120L528,235L696,718l-30,85l-24,68c0,0,-16,37,-35,66c0,0,-10,14,-24,24c0,0,-19,13,-38,19c0,0,-14,5,-44,5v27H894V985H867c0,0,-41,0,-61,-18c0,0,-19,-18,-19,-49c0,0,0,-38,33,-133L1015,235l193,557c0,0,32,93,32,129c0,0,0,17,-10,32c0,0,-11,15,-28,21c0,0,-28,11,-74,11v27h302V985c0,0,-39,0,-64,-15c0,0,-25,-14,-47,-53c0,0,-15,-26,-47,-124L990,-21H960L729,624L501,-21Z" 
id="f1_1n"
transform="scale(0.001,-0.001)" />

<path d="M473,53c0,0,173,0,287,121c0,0,114,122,114,330c0,0,0,210,-114,330c0,0,-114,121,-293,121c0,0,-67,0,-153,-21V74c0,0,95,-21,159,-21ZM26,0V27H64c0,0,64,0,91,41c0,0,16,25,16,111V833c0,0,0,95,-21,119c0,0,-29,33,-86,33H26v27H438c0,0,226,0,345,-51c0,0,118,-52,190,-172c0,0,72,-120,72,-278c0,0,0,-211,-129,-353C916,158,773,0,478,0Z" 
id="f1_14"
transform="scale(0.001,-0.001)" />

<path d="M46,0c0,0,-2,48,16,93c0,0,27,74,88,146c0,0,61,71,176,165c0,0,178,146,241,232c0,0,63,85,63,161c0,0,0,80,-57,135c0,0,-58,55,-149,55c0,0,-98,0,-156,-59c0,0,-58,-58,-59,-160L71,782c0,0,15,154,107,235c0,0,93,81,249,81c0,0,157,0,249,-87c0,0,92,-88,92,-217c0,0,0,-65,-27,-129c0,0,-27,-63,-89,-133c0,0,-62,-70,-207,-193C445,339,324,238,290,202c0,0,-35,-36,-57,-73H770V0Z" 
id="f3_m"
transform="scale(0.001,-0.001)" />

<path d="M415,-18c0,0,-149,0,-244,83c0,0,-94,84,-107,222l140,11c0,0,16,-103,73,-154c0,0,56,-52,137,-52c0,0,98,0,165,73c0,0,66,73,66,194c0,0,0,115,-64,182c0,0,-64,66,-169,66c0,0,-65,0,-117,-29c0,0,-52,-30,-82,-77L87,517l106,562H736V951H300L241,657c0,0,99,69,207,69c0,0,143,0,242,-100c0,0,98,-99,98,-255c0,0,0,-149,-86,-257C702,114,597,-18,415,-18Z" 
id="f3_p"
transform="scale(0.001,-0.001)" />


</defs>
</svg>