<?xml version="1.0" encoding="UTF-8" standalone="no"?>
<!DOCTYPE svg PUBLIC "-//W3C//DTD SVG 1.1//EN"
"http://www.w3.org/Graphics/SVG/1.1/DTD/svg11.dtd">
<svg viewBox="0 0 909 1286" version="1.1" xmlns="http://www.w3.org/2000/svg" xmlns:xlink="http://www.w3.org/1999/xlink">
<defs>
</defs>
<g fill="#000000" >
<use xlink:href="#f0_a" transform="matrix(12,0,0,12,449.1,1140.7)" />
<use xlink:href="#f0_b" transform="matrix(12,0,0,12,86.5,1140.7)" />
<use xlink:href="#f0_b" transform="matrix(12,0,0,12,96.7,1140.7)" />
<use xlink:href="#f0_5" transform="matrix(12,0,0,12,106.8,1140.7)" />
<use xlink:href="#f0_7" transform="matrix(12,0,0,12,111.6,1140.7)" />
<use xlink:href="#f0_5" transform="matrix(12,0,0,12,121.7,1140.7)" />
<use xlink:href="#f0_k" transform="matrix(12,0,0,12,126.4,1140.7)" />
<use xlink:href="#f1_f" transform="matrix(16,0,0,16,416.2,167.2)" />
<use xlink:href="#f1_8" transform="matrix(16,0,0,16,433.8,167.2)" />
<use xlink:href="#f1_h" transform="matrix(16,0,0,16,444.3,167.2)" />
<use xlink:href="#f1_4" transform="matrix(16,0,0,16,462,167.2)" />
<use xlink:href="#f1_b" transform="matrix(16,0,0,16,477.2,167.2)" />
<use xlink:href="#f0_q" transform="matrix(12,0,0,12,393.3,222.5)" />
<use xlink:href="#f0_k" transform="matrix(12,0,0,12,405.5,222.5)" />
<use xlink:href="#f0_i" transform="matrix(12,0,0,12,419.4,222.5)" />
<use xlink:href="#f0_r" transform="matrix(12,0,0,12,433.7,222.5)" />
<use xlink:href="#f0_l" transform="matrix(12,0,0,12,446.9,222.5)" />
<use xlink:href="#f0_n" transform="matrix(12,0,0,12,455,222.5)" />
<use xlink:href="#f0_m" transform="matrix(12,0,0,12,470.3,222.5)" />
<use xlink:href="#f0_3" transform="matrix(12,0,0,12,490.7,222.5)" />
<use xlink:href="#f0_g" transform="matrix(12,0,0,12,501.9,222.5)" />
<use xlink:href="#f0_7" transform="matrix(12,0,0,12,86.4,327.1)" />
<use xlink:href="#f0_4" transform="matrix(12,0,0,12,96.2,327.1)" />
<use xlink:href="#f2_1p" transform="matrix(16,0,0,16,129.7,327.1)" />
<use xlink:href="#f2_28" transform="matrix(16,0,0,16,139.7,327.1)" />
<use xlink:href="#f2_2e" transform="matrix(16,0,0,16,144.1,327.1)" />
<use xlink:href="#f2_1f" transform="matrix(16,0,0,16,153,327.1)" />
<use xlink:href="#f2_28" transform="matrix(16,0,0,16,163.3,327.1)" />
<use xlink:href="#f2_2e" transform="matrix(16,0,0,16,167.7,327.1)" />
<use xlink:href="#f2_1h" transform="matrix(16,0,0,16,168,327.1)" />
<use xlink:href="#f2_2f" transform="matrix(16,0,0,16,177.8,327.1)" />
<use xlink:href="#f2_29" transform="matrix(16,0,0,16,178.1,327.1)" />
<use xlink:href="#f2_q" transform="matrix(16,0,0,16,183.3,327.1)" />
<use xlink:href="#f2_24" transform="matrix(16,0,0,16,188.9,327.1)" />
<use xlink:href="#f2_28" transform="matrix(16,0,0,16,197.3,327.1)" />
<use xlink:href="#f2_1y" transform="matrix(16,0,0,16,201.7,327.1)" />
<use xlink:href="#f2_28" transform="matrix(16,0,0,16,212.9,327.1)" />
<use xlink:href="#f2_2e" transform="matrix(16,0,0,16,217.3,327.1)" />
<use xlink:href="#f2_1x" transform="matrix(16,0,0,16,217.6,327.1)" />
<use xlink:href="#f2_2a" transform="matrix(16,0,0,16,229.1,327.1)" />
<use xlink:href="#f2_1h" transform="matrix(16,0,0,16,234.3,327.1)" />
<use xlink:href="#f2_20" transform="matrix(16,0,0,16,244.2,327.1)" />
<use xlink:href="#f2_28" transform="matrix(16,0,0,16,251.8,327.1)" />
<use xlink:href="#f2_2e" transform="matrix(16,0,0,16,256.2,327.1)" />
<use xlink:href="#f2_17" transform="matrix(16,0,0,16,256.4,327.1)" />
<use xlink:href="#f3_z" transform="matrix(12,0,0,12,265.3,327.1)" />
<use xlink:href="#f2_12" transform="matrix(16,0,0,16,284.3,327.1)" />
<use xlink:href="#f2_28" transform="matrix(16,0,0,16,299.2,327.1)" />
<use xlink:href="#f2_2f" transform="matrix(16,0,0,16,303.6,327.1)" />
<use xlink:href="#f2_20" transform="matrix(16,0,0,16,303.9,327.1)" />
<use xlink:href="#f3_10" transform="matrix(12,0,0,12,318.2,327.1)" />
<use xlink:href="#f2_18" transform="matrix(16,0,0,16,339.3,327.1)" />
<use xlink:href="#f2_2e" transform="matrix(16,0,0,16,349.3,327.1)" />
<use xlink:href="#f2_1n" transform="matrix(16,0,0,16,363.1,327.1)" />
<use xlink:href="#f2_28" transform="matrix(16,0,0,16,373.2,327.1)" />
<use xlink:href="#f2_20" transform="matrix(16,0,0,16,377.6,327.1)" />
<use xlink:href="#f2_28" transform="matrix(16,0,0,16,385.2,327.1)" />
<use xlink:href="#f2_2e" transform="matrix(16,0,0,16,389.6,327.1)" />
<use xlink:href="#f2_17" transform="matrix(16,0,0,16,389.8,327.1)" />
<use xlink:href="#f2_18" transform="matrix(16,0,0,16,398.8,327.1)" />
<use xlink:href="#f2_2e" transform="matrix(16,0,0,16,408.7,327.1)" />
<use xlink:href="#f2_1f" transform="matrix(16,0,0,16,422.5,327.1)" />
<use xlink:href="#f2_2j" transform="matrix(16,0,0,16,432.8,327.1)" />
<use xlink:href="#f2_18" transform="matrix(16,0,0,16,433.1,327.1)" />
<use xlink:href="#f2_20" transform="matrix(16,0,0,16,447.8,327.1)" />
<use xlink:href="#f2_n" transform="matrix(16,0,0,16,455.4,327.1)" />
<use xlink:href="#f2_28" transform="matrix(16,0,0,16,463.9,327.1)" />
<use xlink:href="#f2_1x" transform="matrix(16,0,0,16,477,327.1)" />
<use xlink:href="#f2_2e" transform="matrix(16,0,0,16,488.5,327.1)" />
<use xlink:href="#f2_17" transform="matrix(16,0,0,16,488.8,327.1)" />
<use xlink:href="#f2_22" transform="matrix(16,0,0,16,497.7,327.1)" />
<use xlink:href="#f2_t" transform="matrix(16,0,0,16,511.5,327.1)" />
<use xlink:href="#f2_1v" transform="matrix(16,0,0,16,518.5,327.1)" />
<use xlink:href="#f2_28" transform="matrix(16,0,0,16,530.1,327.1)" />
<use xlink:href="#f2_13" transform="matrix(16,0,0,16,534.5,327.1)" />
<use xlink:href="#f2_2i" transform="matrix(16,0,0,16,543,327.1)" />
<use xlink:href="#f4_v" transform="matrix(12,0,0,12,551.8,327.1)" />
<use xlink:href="#f2_18" transform="matrix(16,0,0,16,566.6,327.1)" />
<use xlink:href="#f2_2e" transform="matrix(16,0,0,16,576.5,327.1)" />
<use xlink:href="#f2_26" transform="matrix(16,0,0,16,590.3,327.1)" />
<use xlink:href="#f2_28" transform="matrix(16,0,0,16,603,327.1)" />
<use xlink:href="#f2_1o" transform="matrix(16,0,0,16,607.4,327.1)" />
<use xlink:href="#f2_29" transform="matrix(16,0,0,16,628.4,327.1)" />
<use xlink:href="#f2_23" transform="matrix(16,0,0,16,633.6,327.1)" />
<use xlink:href="#f2_1w" transform="matrix(16,0,0,16,645,327.1)" />
<use xlink:href="#f2_23" transform="matrix(16,0,0,16,657.6,327.1)" />
<use xlink:href="#f2_28" transform="matrix(16,0,0,16,669,327.1)" />
<use xlink:href="#f2_q" transform="matrix(16,0,0,16,673.4,327.1)" />
<use xlink:href="#f2_1n" transform="matrix(16,0,0,16,679,327.1)" />
<use xlink:href="#f2_20" transform="matrix(16,0,0,16,689.1,327.1)" />
<use xlink:href="#f2_18" transform="matrix(16,0,0,16,705.5,327.1)" />
<use xlink:href="#f2_2e" transform="matrix(16,0,0,16,715.4,327.1)" />
<use xlink:href="#f2_29" transform="matrix(16,0,0,16,729.2,327.1)" />
<use xlink:href="#f2_23" transform="matrix(16,0,0,16,734.5,327.1)" />
<use xlink:href="#f2_1c" transform="matrix(16,0,0,16,745.9,327.1)" />
<use xlink:href="#f2_20" transform="matrix(16,0,0,16,759,327.1)" />
<use xlink:href="#f2_n" transform="matrix(16,0,0,16,766.6,327.1)" />
<use xlink:href="#f2_28" transform="matrix(16,0,0,16,775.1,327.1)" />
<use xlink:href="#f2_1z" transform="matrix(16,0,0,16,129.7,356.5)" />
<use xlink:href="#f2_2a" transform="matrix(16,0,0,16,139.9,356.5)" />
<use xlink:href="#f2_1c" transform="matrix(16,0,0,16,145.1,356.5)" />
<use xlink:href="#f2_2e" transform="matrix(16,0,0,16,158.3,356.5)" />
<use xlink:href="#f2_29" transform="matrix(16,0,0,16,165.7,356.5)" />
<use xlink:href="#f2_1p" transform="matrix(16,0,0,16,171,356.5)" />
<use xlink:href="#f2_16" transform="matrix(16,0,0,16,180.9,356.5)" />
<use xlink:href="#f2_12" transform="matrix(16,0,0,16,198.8,356.5)" />
<use xlink:href="#f2_1z" transform="matrix(16,0,0,16,213.6,356.5)" />
<use xlink:href="#f2_2b" transform="matrix(16,0,0,16,223.7,356.5)" />
<use xlink:href="#f2_26" transform="matrix(16,0,0,16,224,356.5)" />
<use xlink:href="#f2_28" transform="matrix(16,0,0,16,236.7,356.5)" />
<use xlink:href="#f2_20" transform="matrix(16,0,0,16,241.1,356.5)" />
<use xlink:href="#f2_27" transform="matrix(16,0,0,16,255.9,356.5)" />
<use xlink:href="#f2_2f" transform="matrix(16,0,0,16,265.5,356.5)" />
<use xlink:href="#f2_17" transform="matrix(16,0,0,16,265.8,356.5)" />
<use xlink:href="#f2_1r" transform="matrix(16,0,0,16,266,356.5)" />
<use xlink:href="#f2_1p" transform="matrix(16,0,0,16,288.4,356.5)" />
<use xlink:href="#f2_28" transform="matrix(16,0,0,16,298.4,356.5)" />
<use xlink:href="#f2_2e" transform="matrix(16,0,0,16,302.8,356.5)" />
<use xlink:href="#f2_1f" transform="matrix(16,0,0,16,310.2,356.5)" />
<use xlink:href="#f2_2j" transform="matrix(16,0,0,16,320.5,356.5)" />
<use xlink:href="#f2_28" transform="matrix(16,0,0,16,320.8,356.5)" />
<use xlink:href="#f2_1o" transform="matrix(16,0,0,16,325.2,356.5)" />
<use xlink:href="#f2_29" transform="matrix(16,0,0,16,337.4,356.5)" />
<use xlink:href="#f2_1x" transform="matrix(16,0,0,16,342.6,356.5)" />
<use xlink:href="#f2_18" transform="matrix(16,0,0,16,354.1,356.5)" />
<use xlink:href="#f2_26" transform="matrix(16,0,0,16,376.1,356.5)" />
<use xlink:href="#f2_2e" transform="matrix(16,0,0,16,388.8,356.5)" />
<use xlink:href="#f2_22" transform="matrix(16,0,0,16,389.1,356.5)" />
<use xlink:href="#f2_28" transform="matrix(16,0,0,16,402.9,356.5)" />
<use xlink:href="#f2_2e" transform="matrix(16,0,0,16,407.3,356.5)" />
<use xlink:href="#f2_17" transform="matrix(16,0,0,16,407.6,356.5)" />
<use xlink:href="#f2_18" transform="matrix(16,0,0,16,415,356.5)" />
<use xlink:href="#f2_2a" transform="matrix(16,0,0,16,429.8,356.5)" />
<use xlink:href="#f3_1e" transform="matrix(12,0,0,12,442.1,356.5)" />
<use xlink:href="#f3_1m" transform="matrix(12,0,0,12,451.2,356.5)" />
<use xlink:href="#f3_1f" transform="matrix(12,0,0,12,467.5,356.5)" />
<use xlink:href="#f2_18" transform="matrix(16,0,0,16,479.3,356.5)" />
<use xlink:href="#f2_2a" transform="matrix(16,0,0,16,494.1,356.5)" />
<use xlink:href="#f2_1n" transform="matrix(16,0,0,16,506.6,356.5)" />
<use xlink:href="#f2_2b" transform="matrix(16,0,0,16,516.7,356.5)" />
<use xlink:href="#f2_22" transform="matrix(16,0,0,16,516.9,356.5)" />
<use xlink:href="#f2_1z" transform="matrix(16,0,0,16,530.8,356.5)" />
<use xlink:href="#f2_28" transform="matrix(16,0,0,16,540.9,356.5)" />
<use xlink:href="#f2_18" transform="matrix(16,0,0,16,552.5,356.5)" />
<use xlink:href="#f2_20" transform="matrix(16,0,0,16,567.3,356.5)" />
<use xlink:href="#f2_1z" transform="matrix(16,0,0,16,574.9,356.5)" />
<use xlink:href="#f2_2e" transform="matrix(16,0,0,16,585,356.5)" />
<use xlink:href="#f2_18" transform="matrix(16,0,0,16,592.5,356.5)" />
<use xlink:href="#f2_2e" transform="matrix(16,0,0,16,602.5,356.5)" />
<use xlink:href="#f2_29" transform="matrix(16,0,0,16,614.8,356.5)" />
<use xlink:href="#f2_22" transform="matrix(16,0,0,16,620,356.5)" />
<use xlink:href="#f2_16" transform="matrix(16,0,0,16,633.9,356.5)" />
<use xlink:href="#f2_13" transform="matrix(16,0,0,16,651.7,356.5)" />
<use xlink:href="#f2_1z" transform="matrix(16,0,0,16,660.2,356.5)" />
<use xlink:href="#f2_1x" transform="matrix(16,0,0,16,670.3,356.5)" />
<use xlink:href="#f2_2e" transform="matrix(16,0,0,16,681.8,356.5)" />
<use xlink:href="#f2_17" transform="matrix(16,0,0,16,682.1,356.5)" />
<use xlink:href="#f2_26" transform="matrix(16,0,0,16,689.5,356.5)" />
<use xlink:href="#f2_2e" transform="matrix(16,0,0,16,702.2,356.5)" />
<use xlink:href="#f2_12" transform="matrix(16,0,0,16,709.7,356.5)" />
<use xlink:href="#f2_28" transform="matrix(16,0,0,16,724.6,356.5)" />
<use xlink:href="#f2_1f" transform="matrix(16,0,0,16,729,356.5)" />
<use xlink:href="#f2_29" transform="matrix(16,0,0,16,746.5,356.5)" />
<use xlink:href="#f2_18" transform="matrix(16,0,0,16,751.8,356.5)" />
<use xlink:href="#f2_26" transform="matrix(16,0,0,16,766.5,356.5)" />
<use xlink:href="#f2_2e" transform="matrix(16,0,0,16,779.3,356.5)" />
<use xlink:href="#f2_1f" transform="matrix(16,0,0,16,129.7,385.9)" />
<use xlink:href="#f2_2j" transform="matrix(16,0,0,16,140,385.9)" />
<use xlink:href="#f2_28" transform="matrix(16,0,0,16,140.3,385.9)" />
<use xlink:href="#f2_1o" transform="matrix(16,0,0,16,144.7,385.9)" />
<use xlink:href="#f2_29" transform="matrix(16,0,0,16,156.9,385.9)" />
<use xlink:href="#f2_1x" transform="matrix(16,0,0,16,162.2,385.9)" />
<use xlink:href="#f2_18" transform="matrix(16,0,0,16,173.7,385.9)" />
<use xlink:href="#f2_1n" transform="matrix(16,0,0,16,188.4,385.9)" />
<use xlink:href="#f2_28" transform="matrix(16,0,0,16,198.6,385.9)" />
<use xlink:href="#f2_1p" transform="matrix(16,0,0,16,209.6,385.9)" />
<use xlink:href="#f2_2e" transform="matrix(16,0,0,16,219.5,385.9)" />
<use xlink:href="#f2_17" transform="matrix(16,0,0,16,219.8,385.9)" />
<use xlink:href="#f2_1b" transform="matrix(16,0,0,16,220,385.9)" />
<use xlink:href="#f2_2e" transform="matrix(16,0,0,16,230.9,385.9)" />
<use xlink:href="#f2_12" transform="matrix(16,0,0,16,237.7,385.9)" />
<use xlink:href="#f2_28" transform="matrix(16,0,0,16,252.6,385.9)" />
<use xlink:href="#f2_2f" transform="matrix(16,0,0,16,257,385.9)" />
<use xlink:href="#f2_20" transform="matrix(16,0,0,16,257.2,385.9)" />
<use xlink:href="#f2_j" transform="matrix(16,0,0,16,271.4,385.9)" />
<use xlink:href="#f2_1y" transform="matrix(16,0,0,16,281,385.9)" />
<use xlink:href="#f2_28" transform="matrix(16,0,0,16,292.3,385.9)" />
<use xlink:href="#f2_2e" transform="matrix(16,0,0,16,296.7,385.9)" />
<use xlink:href="#f2_17" transform="matrix(16,0,0,16,296.9,385.9)" />
<use xlink:href="#f2_8" transform="matrix(16,0,0,16,297.2,385.9)" />
</g>
<image preserveAspectRatio="none" x="130" y="437" width="189" height="138" xlink:href="img/1.png" />
<g fill="#000000" >
<use xlink:href="#f3_13" transform="matrix(12,0,0,12,129.7,630.7)" />
<use xlink:href="#f3_1h" transform="matrix(12,0,0,12,141.6,630.7)" />
<use xlink:href="#f3_1e" transform="matrix(12,0,0,12,152.5,630.7)" />
<use xlink:href="#f3_1v" transform="matrix(12,0,0,12,164.9,630.7)" />
<use xlink:href="#f3_1a" transform="matrix(12,0,0,12,174.5,630.7)" />
<use xlink:href="#f3_1r" transform="matrix(12,0,0,12,184.4,630.7)" />
<use xlink:href="#f3_1i" transform="matrix(12,0,0,12,192.3,630.7)" />
<use xlink:href="#f3_1a" transform="matrix(12,0,0,12,197.8,630.7)" />
<use xlink:href="#f3_1t" transform="matrix(12,0,0,12,207.7,630.7)" />
<use xlink:href="#f3_1i" transform="matrix(12,0,0,12,214.6,630.7)" />
<use xlink:href="#f3_1o" transform="matrix(12,0,0,12,220.1,630.7)" />
<use xlink:href="#f3_1n" transform="matrix(12,0,0,12,229,630.7)" />
<use xlink:href="#f3_1o" transform="matrix(12,0,0,12,243.4,630.7)" />
<use xlink:href="#f3_1f" transform="matrix(12,0,0,12,252.2,630.7)" />
<use xlink:href="#f3_1p" transform="matrix(12,0,0,12,261.6,630.7)" />
<use xlink:href="#f3_1o" transform="matrix(12,0,0,12,271.9,630.7)" />
<use xlink:href="#f3_1t" transform="matrix(12,0,0,12,280.8,630.7)" />
<use xlink:href="#f3_1e" transform="matrix(12,0,0,12,287.6,630.7)" />
<use xlink:href="#f3_1n" transform="matrix(12,0,0,12,296.5,630.7)" />
<use xlink:href="#f3_1t" transform="matrix(12,0,0,12,307.4,630.7)" />
<use xlink:href="#f3_1i" transform="matrix(12,0,0,12,314.3,630.7)" />
<use xlink:href="#f3_1a" transform="matrix(12,0,0,12,319.8,630.7)" />
<use xlink:href="#f3_1l" transform="matrix(12,0,0,12,329.7,630.7)" />
<use xlink:href="#f3_1d" transform="matrix(12,0,0,12,338.7,630.7)" />
<use xlink:href="#f3_1i" transform="matrix(12,0,0,12,349,630.7)" />
<use xlink:href="#f3_1f" transform="matrix(12,0,0,12,354.5,630.7)" />
<use xlink:href="#f3_1f" transform="matrix(12,0,0,12,360.3,630.7)" />
<use xlink:href="#f3_1e" transform="matrix(12,0,0,12,366.2,630.7)" />
<use xlink:href="#f3_1r" transform="matrix(12,0,0,12,375,630.7)" />
<use xlink:href="#f3_1e" transform="matrix(12,0,0,12,382.9,630.7)" />
<use xlink:href="#f3_1n" transform="matrix(12,0,0,12,391.8,630.7)" />
<use xlink:href="#f3_1c" transform="matrix(12,0,0,12,402.6,630.7)" />
<use xlink:href="#f3_1e" transform="matrix(12,0,0,12,410.5,630.7)" />
<use xlink:href="#f3_15" transform="matrix(12,0,0,12,422.9,630.7)" />
<use xlink:href="#f3_1w" transform="matrix(12,0,0,12,439.4,630.7)" />
<use xlink:href="#f3_1i" transform="matrix(12,0,0,12,453.4,630.7)" />
<use xlink:href="#f3_1t" transform="matrix(12,0,0,12,458.9,630.7)" />
<use xlink:href="#f3_1h" transform="matrix(12,0,0,12,465.8,630.7)" />
<use xlink:href="#f3_1l" transform="matrix(12,0,0,12,480.2,630.7)" />
<use xlink:href="#f3_1e" transform="matrix(12,0,0,12,485.7,630.7)" />
<use xlink:href="#f3_1n" transform="matrix(12,0,0,12,494.5,630.7)" />
<use xlink:href="#f3_1g" transform="matrix(12,0,0,12,505.4,630.7)" />
<use xlink:href="#f3_1t" transform="matrix(12,0,0,12,515,630.7)" />
<use xlink:href="#f3_1h" transform="matrix(12,0,0,12,521.9,630.7)" />
<use xlink:href="#f4_v" transform="matrix(12,0,0,12,536.3,630.7)" />
<use xlink:href="#f3_1i" transform="matrix(12,0,0,12,545.7,630.7)" />
<use xlink:href="#f3_1n" transform="matrix(12,0,0,12,551.2,630.7)" />
<use xlink:href="#f3_1c" transform="matrix(12,0,0,12,565.6,630.7)" />
<use xlink:href="#f3_1a" transform="matrix(12,0,0,12,573.4,630.7)" />
<use xlink:href="#f3_1s" transform="matrix(12,0,0,12,583.3,630.7)" />
<use xlink:href="#f3_1e" transform="matrix(12,0,0,12,591.5,630.7)" />
<use xlink:href="#f3_1o" transform="matrix(12,0,0,12,603.9,630.7)" />
<use xlink:href="#f3_1f" transform="matrix(12,0,0,12,612.8,630.7)" />
<use xlink:href="#f3_1t" transform="matrix(12,0,0,12,622.1,630.7)" />
<use xlink:href="#f3_1w" transform="matrix(12,0,0,12,629,630.7)" />
<use xlink:href="#f3_1o" transform="matrix(12,0,0,12,643,630.7)" />
<use xlink:href="#f3_1p" transform="matrix(12,0,0,12,655.4,630.7)" />
<use xlink:href="#f3_1o" transform="matrix(12,0,0,12,665.6,630.7)" />
<use xlink:href="#f3_1t" transform="matrix(12,0,0,12,674.5,630.7)" />
<use xlink:href="#f3_1e" transform="matrix(12,0,0,12,681.4,630.7)" />
<use xlink:href="#f3_1n" transform="matrix(12,0,0,12,690.2,630.7)" />
<use xlink:href="#f3_1t" transform="matrix(12,0,0,12,701.1,630.7)" />
<use xlink:href="#f3_1i" transform="matrix(12,0,0,12,708,630.7)" />
<use xlink:href="#f3_1o" transform="matrix(12,0,0,12,713.4,630.7)" />
<use xlink:href="#f3_1m" transform="matrix(12,0,0,12,722.3,630.7)" />
<use xlink:href="#f3_1e" transform="matrix(12,0,0,12,738.4,630.7)" />
<use xlink:href="#f3_1t" transform="matrix(12,0,0,12,747.2,630.7)" />
<use xlink:href="#f3_1e" transform="matrix(12,0,0,12,754.1,630.7)" />
<use xlink:href="#f3_1r" transform="matrix(12,0,0,12,763,630.7)" />
<use xlink:href="#f3_1s" transform="matrix(12,0,0,12,770.8,630.7)" />
<use xlink:href="#f3_1w" transform="matrix(12,0,0,12,129.7,652.7)" />
<use xlink:href="#f3_1i" transform="matrix(12,0,0,12,144,652.7)" />
<use xlink:href="#f3_1r" transform="matrix(12,0,0,12,149.8,652.7)" />
<use xlink:href="#f3_1e" transform="matrix(12,0,0,12,158,652.7)" />
<use xlink:href="#f3_1s" transform="matrix(12,0,0,12,167.2,652.7)" />
<use xlink:href="#f3_z" transform="matrix(12,0,0,12,180.8,652.7)" />
<use xlink:href="#f3_1a" transform="matrix(12,0,0,12,198.1,652.7)" />
<use xlink:href="#f3_1n" transform="matrix(12,0,0,12,208.3,652.7)" />
<use xlink:href="#f3_1d" transform="matrix(12,0,0,12,219.5,652.7)" />
<use xlink:href="#f3_10" transform="matrix(12,0,0,12,235.2,652.7)" />
<use xlink:href="#f3_1i" transform="matrix(12,0,0,12,254.6,652.7)" />
<use xlink:href="#f3_1s" transform="matrix(12,0,0,12,260.4,652.7)" />
<use xlink:href="#f3_1a" transform="matrix(12,0,0,12,274,652.7)" />
<use xlink:href="#f3_1s" transform="matrix(12,0,0,12,284.3,652.7)" />
<use xlink:href="#f3_1s" transform="matrix(12,0,0,12,297.9,652.7)" />
<use xlink:href="#f3_1h" transform="matrix(12,0,0,12,306.4,652.7)" />
<use xlink:href="#f3_1o" transform="matrix(12,0,0,12,317.5,652.7)" />
<use xlink:href="#f3_1w" transform="matrix(12,0,0,12,326.7,652.7)" />
<use xlink:href="#f3_1n" transform="matrix(12,0,0,12,341,652.7)" />
<use xlink:href="#f3_7" transform="matrix(12,0,0,12,352.2,652.7)" />
<use xlink:href="#f3_16" transform="matrix(12,0,0,12,367.5,652.7)" />
<use xlink:href="#f3_1h" transform="matrix(12,0,0,12,385.6,652.7)" />
<use xlink:href="#f3_1i" transform="matrix(12,0,0,12,396.7,652.7)" />
<use xlink:href="#f3_1c" transform="matrix(12,0,0,12,402.5,652.7)" />
<use xlink:href="#f3_1h" transform="matrix(12,0,0,12,410.7,652.7)" />
<use xlink:href="#f3_1o" transform="matrix(12,0,0,12,427,652.7)" />
<use xlink:href="#f3_1n" transform="matrix(12,0,0,12,436.2,652.7)" />
<use xlink:href="#f3_1e" transform="matrix(12,0,0,12,447.3,652.7)" />
<use xlink:href="#f3_1o" transform="matrix(12,0,0,12,461.6,652.7)" />
<use xlink:href="#f3_1f" transform="matrix(12,0,0,12,470.8,652.7)" />
<use xlink:href="#f3_1t" transform="matrix(12,0,0,12,482.1,652.7)" />
<use xlink:href="#f3_1h" transform="matrix(12,0,0,12,489.3,652.7)" />
<use xlink:href="#f3_1e" transform="matrix(12,0,0,12,500.4,652.7)" />
<use xlink:href="#f3_1s" transform="matrix(12,0,0,12,509.6,652.7)" />
<use xlink:href="#f3_1e" transform="matrix(12,0,0,12,518.1,652.7)" />
<use xlink:href="#f3_1w" transform="matrix(12,0,0,12,532.4,652.7)" />
<use xlink:href="#f3_1i" transform="matrix(12,0,0,12,546.7,652.7)" />
<use xlink:href="#f3_1l" transform="matrix(12,0,0,12,552.5,652.7)" />
<use xlink:href="#f3_1l" transform="matrix(12,0,0,12,558.3,652.7)" />
<use xlink:href="#f3_1y" transform="matrix(12,0,0,12,569.2,652.7)" />
<use xlink:href="#f3_1o" transform="matrix(12,0,0,12,579.1,652.7)" />
<use xlink:href="#f3_1u" transform="matrix(12,0,0,12,588.3,652.7)" />
<use xlink:href="#f3_1p" transform="matrix(12,0,0,12,604.6,652.7)" />
<use xlink:href="#f3_1r" transform="matrix(12,0,0,12,615.2,652.7)" />
<use xlink:href="#f3_1e" transform="matrix(12,0,0,12,623.3,652.7)" />
<use xlink:href="#f3_1f" transform="matrix(12,0,0,12,632.5,652.7)" />
<use xlink:href="#f3_1e" transform="matrix(12,0,0,12,638.6,652.7)" />
<use xlink:href="#f3_1r" transform="matrix(12,0,0,12,647.8,652.7)" />
<use xlink:href="#f3_1f" transform="matrix(12,0,0,12,661.1,652.7)" />
<use xlink:href="#f3_1o" transform="matrix(12,0,0,12,667.2,652.7)" />
<use xlink:href="#f3_1r" transform="matrix(12,0,0,12,676.4,652.7)" />
<use xlink:href="#f3_1c" transform="matrix(12,0,0,12,689.7,652.7)" />
<use xlink:href="#f3_1o" transform="matrix(12,0,0,12,697.8,652.7)" />
<use xlink:href="#f3_1m" transform="matrix(12,0,0,12,707,652.7)" />
<use xlink:href="#f3_1p" transform="matrix(12,0,0,12,723.4,652.7)" />
<use xlink:href="#f3_1a" transform="matrix(12,0,0,12,734,652.7)" />
<use xlink:href="#f3_1r" transform="matrix(12,0,0,12,744.2,652.7)" />
<use xlink:href="#f3_1i" transform="matrix(12,0,0,12,752.3,652.7)" />
<use xlink:href="#f3_1n" transform="matrix(12,0,0,12,758.1,652.7)" />
<use xlink:href="#f3_1g" transform="matrix(12,0,0,12,769.3,652.7)" />
<use xlink:href="#f3_1e" transform="matrix(12,0,0,12,129.7,674.7)" />
<use xlink:href="#f3_1m" transform="matrix(12,0,0,12,138.9,674.7)" />
<use xlink:href="#f3_1f" transform="matrix(12,0,0,12,155.3,674.7)" />
<use xlink:href="#f3_1s" transform="matrix(12,0,0,12,161.4,674.7)" />
<use xlink:href="#f3_1o" transform="matrix(12,0,0,12,173.7,674.7)" />
<use xlink:href="#f3_1f" transform="matrix(12,0,0,12,182.8,674.7)" />
<use xlink:href="#f3_1t" transform="matrix(12,0,0,12,192.8,674.7)" />
<use xlink:href="#f3_1w" transform="matrix(12,0,0,12,200,674.7)" />
<use xlink:href="#f3_1o" transform="matrix(12,0,0,12,214.2,674.7)" />
<use xlink:href="#f3_1p" transform="matrix(12,0,0,12,227.2,674.7)" />
<use xlink:href="#f3_1r" transform="matrix(12,0,0,12,237.8,674.7)" />
<use xlink:href="#f3_1i" transform="matrix(12,0,0,12,245.9,674.7)" />
<use xlink:href="#f3_1m" transform="matrix(12,0,0,12,251.7,674.7)" />
<use xlink:href="#f3_1a" transform="matrix(12,0,0,12,268,674.7)" />
<use xlink:href="#f3_1r" transform="matrix(12,0,0,12,278.2,674.7)" />
<use xlink:href="#f3_1y" transform="matrix(12,0,0,12,286.4,674.7)" />
<use xlink:href="#f3_1c" transform="matrix(12,0,0,12,300.1,674.7)" />
<use xlink:href="#f3_1e" transform="matrix(12,0,0,12,308.2,674.7)" />
<use xlink:href="#f3_1l" transform="matrix(12,0,0,12,317.4,674.7)" />
<use xlink:href="#f3_1l" transform="matrix(12,0,0,12,323.1,674.7)" />
<use xlink:href="#f3_1s" transform="matrix(12,0,0,12,328.9,674.7)" />
<use xlink:href="#f3_1a" transform="matrix(12,0,0,12,341.2,674.7)" />
<use xlink:href="#f3_1n" transform="matrix(12,0,0,12,351.4,674.7)" />
<use xlink:href="#f3_1d" transform="matrix(12,0,0,12,362.6,674.7)" />
<use xlink:href="#f3_1w" transform="matrix(12,0,0,12,376.9,674.7)" />
<use xlink:href="#f3_1h" transform="matrix(12,0,0,12,391.2,674.7)" />
<use xlink:href="#f3_1y" transform="matrix(12,0,0,12,402.4,674.7)" />
<use xlink:href="#f3_k" transform="matrix(12,0,0,12,416,674.7)" />
</g>
<image preserveAspectRatio="none" x="130" y="723" width="189" height="138" xlink:href="img/2.png" />
<g fill="#000000" >
<use xlink:href="#f0_8" transform="matrix(12,0,0,12,86.4,971.4)" />
<use xlink:href="#f0_4" transform="matrix(12,0,0,12,96.2,971.4)" />
<use xlink:href="#f2_18" transform="matrix(16,0,0,16,129.7,971.4)" />
<use xlink:href="#f2_28" transform="matrix(16,0,0,16,144.5,971.4)" />
<use xlink:href="#f2_2e" transform="matrix(16,0,0,16,148.9,971.4)" />
<use xlink:href="#f2_13" transform="matrix(16,0,0,16,149.2,971.4)" />
<use xlink:href="#f2_2i" transform="matrix(16,0,0,16,157.6,971.4)" />
<use xlink:href="#f3_1a" transform="matrix(12,0,0,12,163.9,971.4)" />
<use xlink:href="#f3_7" transform="matrix(12,0,0,12,174.2,971.4)" />
<use xlink:href="#f3_1c" transform="matrix(12,0,0,12,179.3,971.4)" />
<use xlink:href="#f3_7" transform="matrix(12,0,0,12,187.4,971.4)" />
<use xlink:href="#f2_e" transform="matrix(16,0,0,16,197.2,971.4)" />
<use xlink:href="#f2_28" transform="matrix(16,0,0,16,211.6,971.4)" />
<use xlink:href="#f2_2e" transform="matrix(16,0,0,16,216,971.4)" />
<use xlink:href="#f2_1n" transform="matrix(16,0,0,16,216.2,971.4)" />
<use xlink:href="#f2_29" transform="matrix(16,0,0,16,232.3,971.4)" />
<use xlink:href="#f2_1e" transform="matrix(16,0,0,16,237.6,971.4)" />
<use xlink:href="#f2_26" transform="matrix(16,0,0,16,250.8,971.4)" />
<use xlink:href="#f2_18" transform="matrix(16,0,0,16,263.5,971.4)" />
<use xlink:href="#f2_2a" transform="matrix(16,0,0,16,278.2,971.4)" />
<use xlink:href="#f2_23" transform="matrix(16,0,0,16,289.5,971.4)" />
<use xlink:href="#f2_28" transform="matrix(16,0,0,16,300.9,971.4)" />
<use xlink:href="#f2_2e" transform="matrix(16,0,0,16,305.3,971.4)" />
<use xlink:href="#f2_1m" transform="matrix(16,0,0,16,305.6,971.4)" />
<use xlink:href="#f2_1h" transform="matrix(16,0,0,16,315.1,971.4)" />
<use xlink:href="#f2_1n" transform="matrix(16,0,0,16,324.9,971.4)" />
<use xlink:href="#f2_28" transform="matrix(16,0,0,16,335,971.4)" />
<use xlink:href="#f3_15" transform="matrix(12,0,0,12,345.4,971.4)" />
<use xlink:href="#f5_5" transform="matrix(12,0,0,12,358.6,971.4)" />
<use xlink:href="#f3_15" transform="matrix(12,0,0,12,376.9,971.4)" />
<use xlink:href="#f6_c" transform="matrix(9.6,0,0,9.6,390.1,977.4)" />
<use xlink:href="#f3_1s" transform="matrix(12,0,0,12,397.5,971.4)" />
<use xlink:href="#f3_1i" transform="matrix(12,0,0,12,406,971.4)" />
<use xlink:href="#f3_1n" transform="matrix(12,0,0,12,411.8,971.4)" />
<use xlink:href="#f7_2" transform="matrix(11,0,0,11,427.7,971.4)" />
<use xlink:href="#f3_1t" transform="matrix(12,0,0,12,438.7,971.4)" />
<use xlink:href="#f2_27" transform="matrix(16,0,0,16,450.5,971.4)" />
<use xlink:href="#f2_2f" transform="matrix(16,0,0,16,460.1,971.4)" />
<use xlink:href="#f2_6" transform="matrix(16,0,0,16,460.3,971.4)" />
<use xlink:href="#f2_18" transform="matrix(16,0,0,16,471.8,971.4)" />
<use xlink:href="#f2_28" transform="matrix(16,0,0,16,486.6,971.4)" />
<use xlink:href="#f2_2e" transform="matrix(16,0,0,16,491,971.4)" />
<use xlink:href="#f2_29" transform="matrix(16,0,0,16,497.3,971.4)" />
<use xlink:href="#f2_18" transform="matrix(16,0,0,16,502.5,971.4)" />
<use xlink:href="#f2_26" transform="matrix(16,0,0,16,517.3,971.4)" />
<use xlink:href="#f2_2a" transform="matrix(16,0,0,16,530,971.4)" />
<use xlink:href="#f2_12" transform="matrix(16,0,0,16,541.3,971.4)" />
<use xlink:href="#f2_28" transform="matrix(16,0,0,16,556.2,971.4)" />
<use xlink:href="#f2_1p" transform="matrix(16,0,0,16,560.6,971.4)" />
<use xlink:href="#f2_24" transform="matrix(16,0,0,16,570.6,971.4)" />
<use xlink:href="#f2_28" transform="matrix(16,0,0,16,579,971.4)" />
<use xlink:href="#f2_2i" transform="matrix(16,0,0,16,583.4,971.4)" />
<use xlink:href="#f2_1f" transform="matrix(16,0,0,16,589.6,971.4)" />
<use xlink:href="#f2_2j" transform="matrix(16,0,0,16,599.9,971.4)" />
<use xlink:href="#f2_2e" transform="matrix(16,0,0,16,600.2,971.4)" />
<use xlink:href="#f2_20" transform="matrix(16,0,0,16,600.5,971.4)" />
<use xlink:href="#f2_18" transform="matrix(16,0,0,16,608.1,971.4)" />
<use xlink:href="#f2_26" transform="matrix(16,0,0,16,628.9,971.4)" />
<use xlink:href="#f2_2e" transform="matrix(16,0,0,16,641.6,971.4)" />
<use xlink:href="#f2_26" transform="matrix(16,0,0,16,647.9,971.4)" />
<use xlink:href="#f2_17" transform="matrix(16,0,0,16,660.6,971.4)" />
<use xlink:href="#f2_1y" transform="matrix(16,0,0,16,660.8,971.4)" />
<use xlink:href="#f2_28" transform="matrix(16,0,0,16,672.1,971.4)" />
<use xlink:href="#f2_2e" transform="matrix(16,0,0,16,676.5,971.4)" />
<use xlink:href="#f2_29" transform="matrix(16,0,0,16,676.7,971.4)" />
<use xlink:href="#f2_1e" transform="matrix(16,0,0,16,682,971.4)" />
<use xlink:href="#f2_1n" transform="matrix(16,0,0,16,695.2,971.4)" />
<use xlink:href="#f2_29" transform="matrix(16,0,0,16,711.3,971.4)" />
<use xlink:href="#f2_18" transform="matrix(16,0,0,16,716.6,971.4)" />
<use xlink:href="#f2_1y" transform="matrix(16,0,0,16,731.4,971.4)" />
<use xlink:href="#f2_28" transform="matrix(16,0,0,16,742.6,971.4)" />
<use xlink:href="#f2_1b" transform="matrix(16,0,0,16,753,971.4)" />
<use xlink:href="#f2_1y" transform="matrix(16,0,0,16,763.8,971.4)" />
<use xlink:href="#f2_28" transform="matrix(16,0,0,16,775.1,971.4)" />
<use xlink:href="#f2_27" transform="matrix(16,0,0,16,129.7,1000.6)" />
<use xlink:href="#f2_2f" transform="matrix(16,0,0,16,139.3,1000.6)" />
<use xlink:href="#f2_1r" transform="matrix(16,0,0,16,139.6,1000.6)" />
<use xlink:href="#f2_23" transform="matrix(16,0,0,16,161.1,1000.6)" />
<use xlink:href="#f2_28" transform="matrix(16,0,0,16,172.5,1000.6)" />
<use xlink:href="#f2_2e" transform="matrix(16,0,0,16,176.9,1000.6)" />
<use xlink:href="#f2_1m" transform="matrix(16,0,0,16,177.1,1000.6)" />
<use xlink:href="#f2_1h" transform="matrix(16,0,0,16,186.7,1000.6)" />
<use xlink:href="#f2_1n" transform="matrix(16,0,0,16,196.5,1000.6)" />
<use xlink:href="#f2_28" transform="matrix(16,0,0,16,206.6,1000.6)" />
<use xlink:href="#f3_15" transform="matrix(12,0,0,12,217.6,1000.7)" />
<use xlink:href="#f2_12" transform="matrix(16,0,0,16,236.1,1000.7)" />
<use xlink:href="#f2_28" transform="matrix(16,0,0,16,251,1000.7)" />
<use xlink:href="#f2_2f" transform="matrix(16,0,0,16,255.4,1000.7)" />
<use xlink:href="#f2_20" transform="matrix(16,0,0,16,255.6,1000.7)" />
<use xlink:href="#f2_1q" transform="matrix(16,0,0,16,270,1000.7)" />
<use xlink:href="#f2_28" transform="matrix(16,0,0,16,282.2,1000.7)" />
<use xlink:href="#f2_20" transform="matrix(16,0,0,16,286.6,1000.7)" />
<use xlink:href="#f2_28" transform="matrix(16,0,0,16,294.2,1000.7)" />
<use xlink:href="#f4_t" transform="matrix(12,0,0,12,305.3,1000.7)" />
<use xlink:href="#f2_18" transform="matrix(16,0,0,16,316.7,1000.7)" />
<use xlink:href="#f2_28" transform="matrix(16,0,0,16,331.6,1000.7)" />
<use xlink:href="#f7_2" transform="matrix(11,0,0,11,342.7,1000.7)" />
<use xlink:href="#f3_1t" transform="matrix(12,0,0,12,353.7,1000.7)" />
<use xlink:href="#f2_18" transform="matrix(16,0,0,16,366.1,1000.7)" />
<use xlink:href="#f2_2e" transform="matrix(16,0,0,16,376.1,1000.7)" />
<use xlink:href="#f2_26" transform="matrix(16,0,0,16,387.9,1000.7)" />
<use xlink:href="#f2_28" transform="matrix(16,0,0,16,400.6,1000.7)" />
<use xlink:href="#f2_1o" transform="matrix(16,0,0,16,405,1000.7)" />
<use xlink:href="#f2_29" transform="matrix(16,0,0,16,423.9,1000.7)" />
<use xlink:href="#f2_23" transform="matrix(16,0,0,16,429.2,1000.7)" />
<use xlink:href="#f2_1c" transform="matrix(16,0,0,16,440.6,1000.7)" />
<use xlink:href="#f2_20" transform="matrix(16,0,0,16,453.8,1000.7)" />
<use xlink:href="#f2_n" transform="matrix(16,0,0,16,461.4,1000.7)" />
<use xlink:href="#f2_28" transform="matrix(16,0,0,16,469.8,1000.7)" />
<use xlink:href="#f2_1p" transform="matrix(16,0,0,16,481,1000.7)" />
<use xlink:href="#f2_24" transform="matrix(16,0,0,16,490.9,1000.7)" />
<use xlink:href="#f2_28" transform="matrix(16,0,0,16,499.3,1000.7)" />
<use xlink:href="#f2_28" transform="matrix(16,0,0,16,503.7,1000.7)" />
<use xlink:href="#f2_2i" transform="matrix(16,0,0,16,508.1,1000.7)" />
<use xlink:href="#f2_1z" transform="matrix(16,0,0,16,508.4,1000.7)" />
<use xlink:href="#f2_2e" transform="matrix(16,0,0,16,518.5,1000.7)" />
<use xlink:href="#f2_18" transform="matrix(16,0,0,16,525.5,1000.7)" />
<use xlink:href="#f2_2e" transform="matrix(16,0,0,16,535.4,1000.7)" />
<use xlink:href="#f2_29" transform="matrix(16,0,0,16,547.3,1000.7)" />
<use xlink:href="#f2_22" transform="matrix(16,0,0,16,552.5,1000.7)" />
<use xlink:href="#f2_16" transform="matrix(16,0,0,16,566.3,1000.7)" />
<use xlink:href="#f2_1b" transform="matrix(16,0,0,16,583.7,1000.7)" />
<use xlink:href="#f2_2j" transform="matrix(16,0,0,16,594.5,1000.7)" />
<use xlink:href="#f2_28" transform="matrix(16,0,0,16,594.8,1000.7)" />
<use xlink:href="#f2_1k" transform="matrix(16,0,0,16,599.2,1000.7)" />
<use xlink:href="#f2_1a" transform="matrix(16,0,0,16,620.7,1000.7)" />
<use xlink:href="#f2_2a" transform="matrix(16,0,0,16,636.2,1000.7)" />
<use xlink:href="#f2_17" transform="matrix(16,0,0,16,641.5,1000.7)" />
<use xlink:href="#f2_29" transform="matrix(16,0,0,16,641.7,1000.7)" />
<use xlink:href="#f2_1c" transform="matrix(16,0,0,16,647,1000.7)" />
<use xlink:href="#f2_16" transform="matrix(16,0,0,16,660.1,1000.7)" />
<use xlink:href="#f2_1r" transform="matrix(16,0,0,16,670.7,1000.7)" />
<use xlink:href="#f3_l" transform="matrix(12,0,0,12,129.7,1052.4)" />
<use xlink:href="#f3_1n" transform="matrix(12,0,0,12,143,1052.4)" />
<use xlink:href="#f3_1a" transform="matrix(12,0,0,12,158.8,1052.4)" />
<use xlink:href="#f3_7" transform="matrix(12,0,0,12,169,1052.4)" />
<use xlink:href="#f3_1c" transform="matrix(12,0,0,12,174.1,1052.4)" />
<use xlink:href="#f3_7" transform="matrix(12,0,0,12,182.2,1052.4)" />
<use xlink:href="#f3_1s" transform="matrix(12,0,0,12,191.9,1052.4)" />
<use xlink:href="#f3_1o" transform="matrix(12,0,0,12,200.4,1052.4)" />
<use xlink:href="#f3_1u" transform="matrix(12,0,0,12,209.6,1052.4)" />
<use xlink:href="#f3_1r" transform="matrix(12,0,0,12,220.8,1052.4)" />
<use xlink:href="#f3_1c" transform="matrix(12,0,0,12,228.9,1052.4)" />
<use xlink:href="#f3_1e" transform="matrix(12,0,0,12,237,1052.4)" />
<use xlink:href="#f3_1o" transform="matrix(12,0,0,12,250.8,1052.4)" />
<use xlink:href="#f3_1f" transform="matrix(12,0,0,12,260,1052.4)" />
<use xlink:href="#f3_1v" transform="matrix(12,0,0,12,270.8,1052.4)" />
<use xlink:href="#f3_1o" transform="matrix(12,0,0,12,280.6,1052.4)" />
<use xlink:href="#f3_1l" transform="matrix(12,0,0,12,289.8,1052.4)" />
<use xlink:href="#f3_1t" transform="matrix(12,0,0,12,295.6,1052.4)" />
<use xlink:href="#f3_1a" transform="matrix(12,0,0,12,302.8,1052.4)" />
<use xlink:href="#f3_1g" transform="matrix(12,0,0,12,313,1052.4)" />
<use xlink:href="#f3_1e" transform="matrix(12,0,0,12,322.9,1052.4)" />
<use xlink:href="#f3_15" transform="matrix(12,0,0,12,336.7,1052.4)" />
<use xlink:href="#f5_5" transform="matrix(12,0,0,12,349.9,1052.4)" />
<use xlink:href="#f3_15" transform="matrix(12,0,0,12,368.2,1052.4)" />
<use xlink:href="#f6_c" transform="matrix(9.6,0,0,9.6,381.4,1058.5)" />
<use xlink:href="#f3_1s" transform="matrix(12,0,0,12,393.4,1052.4)" />
<use xlink:href="#f3_1i" transform="matrix(12,0,0,12,401.9,1052.4)" />
<use xlink:href="#f3_1n" transform="matrix(12,0,0,12,407.7,1052.4)" />
<use xlink:href="#f7_2" transform="matrix(11,0,0,11,423.5,1052.4)" />
<use xlink:href="#f3_1t" transform="matrix(12,0,0,12,434.5,1052.4)" />
<use xlink:href="#f3_1i" transform="matrix(12,0,0,12,446.3,1052.4)" />
<use xlink:href="#f3_1s" transform="matrix(12,0,0,12,452.1,1052.4)" />
<use xlink:href="#f3_1c" transform="matrix(12,0,0,12,465.2,1052.4)" />
<use xlink:href="#f3_1o" transform="matrix(12,0,0,12,473.3,1052.4)" />
<use xlink:href="#f3_1n" transform="matrix(12,0,0,12,482.5,1052.4)" />
<use xlink:href="#f3_1n" transform="matrix(12,0,0,12,493.7,1052.4)" />
<use xlink:href="#f3_1e" transform="matrix(12,0,0,12,504.8,1052.4)" />
<use xlink:href="#f3_1c" transform="matrix(12,0,0,12,514,1052.4)" />
<use xlink:href="#f3_1t" transform="matrix(12,0,0,12,522.1,1052.4)" />
<use xlink:href="#f3_1e" transform="matrix(12,0,0,12,529.3,1052.4)" />
<use xlink:href="#f3_1d" transform="matrix(12,0,0,12,538.5,1052.4)" />
<use xlink:href="#f3_1t" transform="matrix(12,0,0,12,553.6,1052.4)" />
<use xlink:href="#f3_1o" transform="matrix(12,0,0,12,560.8,1052.4)" />
<use xlink:href="#f3_1a" transform="matrix(12,0,0,12,574.6,1052.4)" />
<use xlink:href="#f3_1n" transform="matrix(12,0,0,12,584.8,1052.4)" />
<use xlink:href="#f3_1i" transform="matrix(12,0,0,12,600.6,1052.4)" />
<use xlink:href="#f3_1d" transform="matrix(12,0,0,12,606.4,1052.4)" />
<use xlink:href="#f3_1e" transform="matrix(12,0,0,12,616.9,1052.4)" />
<use xlink:href="#f3_1a" transform="matrix(12,0,0,12,626.1,1052.4)" />
<use xlink:href="#f3_1l" transform="matrix(12,0,0,12,636.3,1052.4)" />
<use xlink:href="#f3_1i" transform="matrix(12,0,0,12,646.7,1052.4)" />
<use xlink:href="#f3_1n" transform="matrix(12,0,0,12,652.5,1052.4)" />
<use xlink:href="#f3_1d" transform="matrix(12,0,0,12,663.7,1052.4)" />
<use xlink:href="#f3_1u" transform="matrix(12,0,0,12,674.2,1052.4)" />
<use xlink:href="#f3_1c" transform="matrix(12,0,0,12,685.4,1052.4)" />
<use xlink:href="#f3_1t" transform="matrix(12,0,0,12,693.5,1052.4)" />
<use xlink:href="#f3_1o" transform="matrix(12,0,0,12,700.7,1052.4)" />
<use xlink:href="#f3_1r" transform="matrix(12,0,0,12,709.9,1052.4)" />
<use xlink:href="#f3_7" transform="matrix(12,0,0,12,718,1052.4)" />
<use xlink:href="#f3_o" transform="matrix(12,0,0,12,732.3,1052.4)" />
<use xlink:href="#f3_1r" transform="matrix(12,0,0,12,746.6,1052.4)" />
<use xlink:href="#f3_1a" transform="matrix(12,0,0,12,754.8,1052.4)" />
<use xlink:href="#f3_1w" transform="matrix(12,0,0,12,765,1052.4)" />
<use xlink:href="#f3_1g" transform="matrix(12,0,0,12,129.7,1074.4)" />
<use xlink:href="#f3_1r" transform="matrix(12,0,0,12,139.6,1074.4)" />
<use xlink:href="#f3_1a" transform="matrix(12,0,0,12,147.7,1074.4)" />
<use xlink:href="#f3_1p" transform="matrix(12,0,0,12,158,1074.4)" />
<use xlink:href="#f3_1h" transform="matrix(12,0,0,12,168.5,1074.4)" />
<use xlink:href="#f3_1s" transform="matrix(12,0,0,12,179.7,1074.4)" />
<use xlink:href="#f3_1o" transform="matrix(12,0,0,12,192.7,1074.4)" />
<use xlink:href="#f3_1f" transform="matrix(12,0,0,12,201.9,1074.4)" />
<use xlink:href="#f3_1v" transform="matrix(12,0,0,12,212.6,1074.4)" />
<use xlink:href="#f3_1o" transform="matrix(12,0,0,12,222.5,1074.4)" />
<use xlink:href="#f3_1l" transform="matrix(12,0,0,12,231.6,1074.4)" />
<use xlink:href="#f3_1t" transform="matrix(12,0,0,12,237.4,1074.4)" />
<use xlink:href="#f3_1a" transform="matrix(12,0,0,12,244.6,1074.4)" />
<use xlink:href="#f3_1g" transform="matrix(12,0,0,12,254.8,1074.4)" />
<use xlink:href="#f3_1e" transform="matrix(12,0,0,12,264.7,1074.4)" />
<use xlink:href="#f3_15" transform="matrix(12,0,0,12,278.4,1074.4)" />
<use xlink:href="#f3_1a" transform="matrix(12,0,0,12,296.2,1074.4)" />
<use xlink:href="#f3_1n" transform="matrix(12,0,0,12,306.5,1074.4)" />
<use xlink:href="#f3_1d" transform="matrix(12,0,0,12,317.6,1074.4)" />
<use xlink:href="#f3_1c" transform="matrix(12,0,0,12,332.7,1074.4)" />
<use xlink:href="#f3_1u" transform="matrix(12,0,0,12,340.9,1074.4)" />
<use xlink:href="#f3_1r" transform="matrix(12,0,0,12,352,1074.4)" />
<use xlink:href="#f3_1r" transform="matrix(12,0,0,12,360.1,1074.4)" />
<use xlink:href="#f3_1e" transform="matrix(12,0,0,12,368.3,1074.4)" />
<use xlink:href="#f3_1n" transform="matrix(12,0,0,12,377.5,1074.4)" />
<use xlink:href="#f3_1t" transform="matrix(12,0,0,12,388.6,1074.4)" />
<use xlink:href="#f4_t" transform="matrix(12,0,0,12,400.3,1074.4)" />
<use xlink:href="#f3_1v" transform="matrix(12,0,0,12,410.9,1074.4)" />
<use xlink:href="#f3_1e" transform="matrix(12,0,0,12,420.8,1074.4)" />
<use xlink:href="#f3_1r" transform="matrix(12,0,0,12,430,1074.4)" />
<use xlink:href="#f3_1s" transform="matrix(12,0,0,12,438.1,1074.4)" />
<use xlink:href="#f3_1u" transform="matrix(12,0,0,12,446.6,1074.4)" />
<use xlink:href="#f3_1s" transform="matrix(12,0,0,12,457.8,1074.4)" />
<use xlink:href="#f7_2" transform="matrix(11,0,0,11,470.9,1074.4)" />
<use xlink:href="#f3_1t" transform="matrix(12,0,0,12,481.9,1074.4)" />
<use xlink:href="#f3_7" transform="matrix(12,0,0,12,489,1074.4)" />
<use xlink:href="#f0_7" transform="matrix(12,0,0,12,812.3,326.2)" />
<use xlink:href="#f0_7" transform="matrix(12,0,0,12,812.3,970.2)" />
</g>
<defs>
<path d="M946,695v882L315,695ZM636,0V133H785c4,0,7,0,10,0c54,0,91,12,109,37c28,29,42,76,42,140V532H162V706L1213,2173h147V695h310V532H1360V263c0,-45,13,-77,36,-98c25,-21,60,-32,107,-32c3,0,6,0,10,0h84V0Z" 
id="f0_a"
transform="scale(4.8828125E-4,-4.8828125E-4)" />

<path d="M798,-59C611,-59,460,-10,347,87C235,183,177,303,177,440c0,92,25,163,75,218c49,54,110,80,185,81c67,-1,121,-22,163,-65c45,-41,65,-93,65,-155c0,-44,-10,-84,-29,-114C616,371,578,341,521,310C480,286,458,263,458,241c0,-35,22,-67,66,-93C586,108,659,89,742,89c3,0,7,0,10,0c1,0,3,0,5,0c106,0,191,47,254,137c66,92,98,249,98,474c0,188,-30,325,-93,411c-61,87,-141,130,-237,131c-44,-1,-91,-11,-143,-27c-52,-17,-107,-43,-167,-77c0,-81,-11,-134,-31,-163C420,947,394,932,359,932c-1,0,-3,0,-5,0c-2,0,-5,0,-7,0c-29,0,-51,7,-67,23c-19,17,-28,38,-28,64c0,38,29,98,89,177l73,977c217,-48,411,-74,584,-74c5,0,10,0,15,0c7,0,13,0,20,0c127,0,233,14,318,41c35,11,56,17,62,19c14,-2,22,-12,22,-31c0,-69,-26,-140,-78,-215c-52,-77,-119,-133,-204,-171c-79,-37,-179,-57,-301,-57c-4,0,-9,0,-13,0c-6,0,-12,0,-19,0c-91,0,-194,11,-307,31L481,1303c77,34,147,58,214,75c66,17,128,26,187,26c192,0,359,-66,495,-194c137,-130,204,-302,204,-516c0,-223,-70,-405,-215,-544C1222,9,1033,-59,798,-59Z" 
id="f0_b"
transform="scale(4.8828125E-4,-4.8828125E-4)" />

<path d="M-51,0L631,2261H924L241,0Z" 
id="f0_5"
transform="scale(4.8828125E-4,-4.8828125E-4)" />

<path d="M354,0V148H581c3,0,6,0,9,0c52,0,91,12,113,35c24,25,36,66,36,124V1688c0,31,-9,57,-30,74c-20,16,-49,26,-90,27H296v148c161,9,295,28,404,58c110,29,221,74,334,133h119V261c0,-36,10,-65,31,-85c18,-19,45,-28,77,-28c2,0,5,0,7,0h284V0Z" 
id="f0_7"
transform="scale(4.8828125E-4,-4.8828125E-4)" />

<path d="M118,0V148H319c3,0,6,0,9,0c41,0,72,11,95,34c25,23,35,55,35,95V2006c0,37,-10,64,-35,81c-24,17,-67,26,-128,27H118v147H2099l44,-797H2011c-33,184,-74,319,-123,403c-47,81,-111,144,-191,185c-78,41,-181,61,-310,62H1071c-49,-1,-84,-10,-107,-29c-21,-18,-32,-44,-32,-76V1242h107c2,0,5,0,8,0c120,0,213,35,281,104c68,69,108,182,120,339h133V620H1448c-9,173,-49,295,-117,367c-68,70,-173,105,-310,107H932V258c0,-36,11,-62,32,-78c32,-21,75,-32,131,-32c4,0,7,0,11,0h277c2,0,4,0,7,0c186,0,338,58,456,176c120,116,195,295,224,533h133L2173,0Z" 
id="f0_k"
transform="scale(4.8828125E-4,-4.8828125E-4)" />

<path d="M1269,658c26,0,62,10,109,28c49,15,101,35,156,60c119,47,203,90,249,126c-102,101,-220,155,-356,158c-79,-3,-144,-32,-194,-86c-50,-53,-76,-108,-76,-168c3,-78,36,-118,103,-118c1,0,2,0,3,0c2,0,4,0,6,0ZM1087,200c5,0,10,0,15,0c85,0,195,26,330,81c134,47,250,107,351,180V607c-52,-34,-122,-68,-208,-98c-85,-37,-157,-54,-217,-54c-108,2,-205,45,-285,132C988,666,946,768,943,894c3,96,44,182,125,258c79,72,174,108,287,111c90,-3,168,-21,231,-55c30,-21,66,-51,105,-93c40,-44,66,-73,78,-85h6v354H709V883C709,802,691,738,654,688C620,634,565,584,490,536C654,312,852,200,1087,200Zm31,-243C1011,-43,886,8,739,112C591,214,420,396,225,658c-60,74,-87,129,-86,164c0,24,11,50,34,78c20,24,39,40,61,41c26,-1,55,-11,90,-26c31,-21,55,-32,72,-32c1,0,2,0,3,0c23,3,35,21,35,57v444H-2l-151,257H2202l151,-257H2050V-23L1751,168C1513,26,1303,-43,1123,-43c-2,0,-3,0,-5,0Z" 
id="f1_f"
transform="scale(4.8828125E-4,-4.8828125E-4)" />

<path d="M636,542c62,0,114,20,155,63c42,41,62,101,63,177v602H486V688c0,-39,14,-71,37,-98c25,-32,64,-48,113,-48ZM788,299c-49,0,-104,17,-166,52C558,385,493,426,431,477C368,529,316,585,275,646c-43,58,-64,118,-64,177v561H-2l-151,257H1306l152,-257H1129V593c-1,-77,-34,-144,-98,-202C969,332,888,301,788,299Z" 
id="f1_8"
transform="scale(4.8828125E-4,-4.8828125E-4)" />

<path d="M1076,-22C920,-22,772,14,629,89C492,162,327,299,136,501l104,87C353,461,464,370,573,313C677,252,782,221,883,221c3,0,5,0,8,1c119,1,214,33,282,94c66,57,98,109,100,158c0,10,-3,19,-11,32c-12,9,-31,15,-58,15c-46,-3,-109,-14,-188,-34C935,463,866,449,807,448c-46,0,-94,20,-142,61C613,545,565,591,518,646C475,701,440,758,413,817c-31,58,-46,109,-46,155c0,70,23,128,70,172c43,40,108,61,200,64h439v176H-8l-150,257H1593l153,-257H1334V1033c-2,-52,-20,-77,-52,-77H778c-51,0,-92,-12,-123,-38C622,891,605,849,605,796c0,-23,9,-43,28,-60c15,-15,33,-24,53,-27c12,0,38,4,78,11c40,6,85,15,134,26c113,19,194,30,243,33c4,0,7,0,11,0c44,0,82,-9,113,-27c31,-23,69,-75,115,-153c44,-66,71,-116,85,-151c12,-37,20,-69,20,-100C1482,252,1442,170,1366,98C1291,20,1195,-20,1076,-22Z" 
id="f1_h"
transform="scale(4.8828125E-4,-4.8828125E-4)" />

<path d="M179,732V886h962V732Z" 
id="f1_4"
transform="scale(4.8828125E-4,-4.8828125E-4)" />

<path d="M1795,-22L1511,177l15,451c-35,-11,-72,-17,-111,-17c-6,0,-20,5,-43,12c-24,6,-52,16,-81,26c-61,19,-108,39,-142,60l-6,-5c24,-62,35,-120,35,-175C1176,423,1134,333,1051,261C970,183,857,144,713,142C587,144,461,203,336,321C214,431,105,576,14,758l113,69C269,533,428,388,603,388c94,0,172,25,233,75c59,47,90,108,93,182c-3,90,-23,165,-63,223C773,813,662,768,530,736c-37,43,-72,89,-108,139c-39,52,-58,84,-58,97c-2,13,23,27,74,41c286,53,428,153,428,302c-1,75,-42,112,-122,112c-1,0,-3,0,-5,0c-4,0,-9,1,-14,1c-36,0,-91,-10,-164,-30c-86,-23,-179,-55,-278,-98L139,1571c63,26,136,50,217,73c82,21,145,32,189,35c69,-1,138,-17,205,-50c64,-32,124,-74,180,-127c57,-52,103,-107,138,-167c32,-59,49,-119,49,-175c0,-39,-11,-74,-29,-109c-20,-38,-57,-75,-109,-111c83,-75,162,-114,236,-114c1,0,3,0,4,1c3,-1,5,-1,8,-1c69,0,133,20,192,59c66,32,100,70,101,114v385H1317l-150,257h779l152,-257H1795V-22Z" 
id="f1_b"
transform="scale(4.8828125E-4,-4.8828125E-4)" />

<path d="M1077,-59C840,-59,625,23,431,191L252,-28H148V798H281C412,325,680,89,1082,89c2,0,3,0,4,0c3,0,7,0,10,0c162,0,287,38,378,114c92,77,138,173,138,289c0,79,-20,147,-61,203c-40,54,-103,98,-187,133c-47,17,-162,46,-343,87C775,969,597,1027,490,1086c-108,58,-187,130,-236,217c-51,84,-77,190,-77,313c0,208,71,376,210,508c140,131,328,195,563,197c226,-2,433,-78,621,-233l143,204h89l15,-784H1685c-70,220,-172,386,-304,498c-131,110,-276,167,-435,167c-135,0,-246,-39,-330,-114C530,1983,487,1894,487,1791c0,-63,17,-121,51,-173c33,-50,85,-95,159,-131c73,-37,201,-77,386,-117c217,-48,367,-90,451,-125c134,-59,235,-139,302,-234c68,-97,101,-215,101,-351c0,-209,-73,-374,-217,-497C1546,14,1332,-59,1077,-59Z" 
id="f0_q"
transform="scale(4.8828125E-4,-4.8828125E-4)" />

<path d="M1354,-59C1042,-59,779,50,568,270C358,489,252,772,252,1117c0,380,121,684,364,913c206,193,449,289,727,291c110,-2,212,-17,305,-51c95,-33,196,-91,303,-174l104,225h118l30,-902H2070c-44,254,-130,443,-253,567c-124,124,-266,187,-427,187c-175,0,-321,-83,-435,-246C840,1762,784,1503,784,1150C784,775,848,498,973,316C1074,176,1224,104,1418,104c2,0,4,0,6,0c2,0,4,0,6,0c196,0,360,70,493,211c98,102,167,252,205,453h133C2229,512,2130,310,1965,162C1798,14,1595,-59,1354,-59Z" 
id="f0_i"
transform="scale(4.8828125E-4,-4.8828125E-4)" />

<path d="M532,0V148H781c2,0,4,0,7,0c33,0,61,11,81,31c23,20,32,47,32,82V1995c0,40,-9,69,-32,89c-21,18,-55,29,-101,30C513,2113,342,1876,252,1404H118l44,857H2114l45,-857H2026c-34,182,-75,324,-127,426c-50,101,-110,174,-176,219c-65,43,-137,64,-217,65c-45,-1,-79,-10,-100,-29c-20,-19,-31,-45,-31,-81V261c0,-33,11,-61,32,-82c20,-20,43,-31,71,-31c2,0,4,0,5,0h262V0Z" 
id="f0_r"
transform="scale(4.8828125E-4,-4.8828125E-4)" />

<path d="M118,0V148H293c4,0,8,0,12,0c55,0,92,11,117,29c24,20,36,51,36,90V1989c0,41,-10,74,-33,93c-23,20,-58,31,-107,32H118v147H1271V2114H1060c-44,-1,-78,-10,-97,-29c-22,-18,-31,-44,-31,-76V267c0,-41,11,-70,32,-87c26,-21,62,-32,110,-32c3,0,6,0,9,0h188V0Z" 
id="f0_l"
transform="scale(4.8828125E-4,-4.8828125E-4)" />

<path d="M1296,89c3,0,6,0,9,0c1,0,3,0,5,0c185,0,333,79,444,235c113,157,168,432,168,825c0,272,-24,477,-72,614c-49,138,-121,240,-215,309c-95,65,-207,101,-332,101c-124,0,-232,-36,-324,-101C888,2003,814,1894,761,1745C707,1593,680,1389,680,1128c0,-275,24,-485,75,-624C805,361,877,257,972,189C1066,122,1173,89,1296,89Zm-2,-148C1077,-59,880,-7,707,95C535,199,397,338,298,515C197,691,148,894,148,1128c0,345,110,629,329,855c220,225,492,336,814,338c214,-2,411,-52,591,-156c181,-104,321,-246,422,-425c101,-179,150,-380,150,-605C2454,793,2344,509,2122,281C1899,53,1624,-59,1294,-59Z" 
id="f0_n"
transform="scale(4.8828125E-4,-4.8828125E-4)" />

<path d="M104,0V148h63c1,0,3,0,5,0c88,0,162,34,224,103c61,68,91,158,91,268V1943c-71,113,-165,170,-278,171H104v147H816L2055,713V1762c0,102,-29,184,-89,247c-59,61,-142,96,-252,105v147h828V2114c-120,-13,-208,-48,-259,-103c-54,-58,-80,-141,-80,-251V0H2043L636,1758V545c0,-139,32,-239,94,-304c63,-61,140,-93,231,-93c2,0,4,0,6,0h38V0Z" 
id="f0_m"
transform="scale(4.8828125E-4,-4.8828125E-4)" />

<path d="M44,576V872h961V576Z" 
id="f0_3"
transform="scale(4.8828125E-4,-4.8828125E-4)" />

<path d="M1390,888l-362,860L662,888ZM-43,0V148H3c2,0,4,0,6,0c51,0,95,18,133,52c58,48,101,110,133,187l820,1934h187L2136,293c23,-56,49,-96,75,-116c25,-18,58,-29,98,-29c3,0,6,0,9,0h78V0H1346V148h98c5,0,11,0,16,0c68,0,117,9,144,25c29,16,43,39,43,68c0,22,-5,48,-18,78L1453,739H599L518,548C484,468,468,408,468,370c0,-66,24,-121,73,-161c47,-41,111,-61,191,-61c3,0,6,0,9,0h72V0Z" 
id="f0_g"
transform="scale(4.8828125E-4,-4.8828125E-4)" />

<path d="M420,-59c-70,0,-131,26,-182,74C188,66,162,127,162,200c0,70,26,130,76,182c51,49,112,75,182,76c72,-1,133,-27,185,-76c50,-52,75,-112,75,-182C680,127,655,66,605,15C553,-33,492,-59,420,-59Z" 
id="f0_4"
transform="scale(4.8828125E-4,-4.8828125E-4)" />

<path d="M1146,-170C1082,-48,1014,90,941,246C899,230,856,222,813,222c-7,0,-14,1,-22,1C666,223,536,289,400,414C336,475,284,547,244,629c-44,78,-65,165,-65,260c-2,98,33,180,105,246c74,61,211,93,414,95H911v234H-5l-90,177H1250l90,-177H1089V1106c-3,-35,-23,-53,-61,-53c-142,0,-269,-5,-380,-13C541,1028,472,1011,442,990C377,940,345,863,345,764c0,-96,38,-179,115,-249C532,438,626,399,743,397c38,0,71,5,102,16c-43,56,-66,114,-69,171c0,21,8,42,23,64c12,15,32,23,63,23c13,0,35,-5,64,-13c27,-10,56,-24,88,-44c33,-18,60,-40,81,-64c22,-26,33,-52,33,-81c0,-26,-5,-55,-17,-89c-14,-36,-40,-64,-77,-85c29,-51,63,-115,101,-194c37,-80,73,-149,115,-212l-104,-59Z" 
id="f2_1p"
transform="scale(4.8828125E-4,-4.8828125E-4)" />

<path d="M431,0L249,110l6,1354H21l-89,177H570l90,-177H431V0Z" 
id="f2_28"
transform="scale(4.8828125E-4,-4.8828125E-4)" />

<path d="M-274,1578c-47,80,-99,161,-157,245c-57,82,-103,139,-135,168c-47,58,-104,90,-171,94c-15,-1,-40,-4,-69,-12c-29,-12,-58,-23,-88,-32c-14,20,-38,63,-74,130c-38,63,-58,104,-61,124c3,9,11,17,23,24c12,6,25,9,40,12c37,3,67,7,92,7c1,0,2,0,3,0c88,0,189,-60,305,-179c70,-78,142,-174,214,-292c75,-121,124,-203,147,-251l-69,-38Z" 
id="f2_2e"
transform="scale(4.8828125E-4,-4.8828125E-4)" />

<path d="M614,710c1,0,2,0,3,0c55,0,115,16,177,49c62,26,114,54,158,83v622H455V952C458,790,511,710,614,710ZM1129,0L946,110l10,513C935,610,900,596,851,582C801,564,753,555,707,555c-32,0,-71,10,-117,33c-46,23,-93,54,-142,92c-46,38,-86,81,-118,130c-35,47,-52,98,-52,149v505H-4l-90,177H1270l91,-177H1129V0Z" 
id="f2_1f"
transform="scale(4.8828125E-4,-4.8828125E-4)" />

<path d="M759,134c-4,0,-8,0,-12,0C591,134,458,196,351,313C238,425,180,552,179,694c0,76,18,136,53,178c35,40,86,69,151,87c121,33,242,63,366,91c24,3,42,18,55,44c10,24,15,79,15,166c-2,110,-5,179,-9,204H-5l-90,177H1216l92,-177H988c5,-83,7,-204,8,-364c0,-75,-6,-125,-20,-153C959,920,933,903,897,892C804,865,678,834,521,804C406,782,348,709,345,584c0,-40,9,-77,28,-112c15,-34,36,-66,62,-93c56,-58,120,-89,191,-89c1,0,3,0,5,0c2,0,4,0,6,0c145,0,322,55,530,164l78,-170c-55,-33,-125,-66,-212,-98C951,153,858,134,759,134Z" 
id="f2_1h"
transform="scale(4.8828125E-4,-4.8828125E-4)" />

<path d="M-303,1509c-64,69,-139,133,-225,191c-84,58,-152,101,-203,132c-50,40,-91,59,-122,59c-14,0,-35,-4,-66,-15c-29,-12,-52,-23,-72,-32c-22,47,-47,104,-74,170c-26,64,-42,104,-45,119c2,21,19,32,52,32c51,0,95,-11,135,-31c39,-23,79,-53,117,-88c63,-48,144,-113,243,-193c100,-85,196,-183,289,-299h37c-14,43,-37,114,-72,212c-35,98,-70,176,-109,235c-23,42,-52,72,-88,97c-35,21,-89,30,-162,32c-19,108,-31,188,-35,240c1,30,13,45,38,45c24,0,58,-12,99,-33c43,-25,87,-70,132,-132c30,-36,58,-84,82,-143c25,-63,49,-129,72,-197c24,-72,47,-136,66,-197c19,-63,33,-115,42,-153l17,-38l-148,-13Z" 
id="f2_2f"
transform="scale(4.8828125E-4,-4.8828125E-4)" />

<path d="M455,0L275,110l6,1354H-4l-90,177H293c-62,69,-94,153,-94,249c0,30,7,67,24,108c14,40,37,78,67,116c29,39,69,71,121,97c50,24,112,38,183,38c103,-3,220,-34,350,-96c132,-66,246,-142,344,-230V1812c-99,82,-205,150,-312,203c-110,51,-204,78,-285,78C591,2090,512,2056,452,1991c-62,-64,-93,-133,-93,-203c0,-69,9,-117,28,-147H648l90,-177H455V0Z" 
id="f2_29"
transform="scale(4.8828125E-4,-4.8828125E-4)" />

<path d="M426,536c-3,0,-5,0,-7,0c-13,0,-31,16,-58,51c-25,29,-51,64,-80,107c-27,42,-50,82,-70,117c-22,35,-32,60,-32,72c0,34,14,57,43,73c27,11,82,17,161,19h621V799H541c-35,-1,-54,-11,-55,-31V602c-3,-43,-24,-66,-60,-66ZM-2,1464l-90,177H747l89,-177Z" 
id="f2_q"
transform="scale(4.8828125E-4,-4.8828125E-4)" />

<path d="M814,984c16,49,25,105,26,169c0,115,-18,204,-56,263c-41,57,-93,86,-156,86c-70,-3,-115,-32,-133,-86c-21,-59,-32,-102,-31,-133c0,-134,117,-235,350,-299ZM810,-57L526,387c-28,51,-80,77,-158,81C289,483,237,519,214,578c-23,55,-34,94,-32,122c0,72,41,108,124,111c1,0,2,0,3,0c19,0,39,-12,62,-33c23,-29,55,-75,100,-138c42,11,94,38,155,78c57,38,109,98,158,176C669,924,578,961,509,999c-69,34,-121,70,-158,110c-33,37,-56,74,-70,109c-9,32,-14,65,-14,96c0,34,8,63,22,89c10,24,20,44,29,61H-2l-90,177H1124l91,-177H872c57,-75,97,-141,120,-196c18,-60,27,-110,27,-150C1019,998,984,885,914,778C843,666,733,570,582,489L930,38L810,-57Z" 
id="f2_24"
transform="scale(4.8828125E-4,-4.8828125E-4)" />

<path d="M591,611c97,2,184,28,263,78c78,46,151,99,220,164v611H622c70,-127,108,-234,113,-323c-3,-70,-35,-128,-99,-172C574,923,492,882,391,849c0,-67,17,-122,51,-165c33,-48,82,-73,149,-73ZM1251,0L1068,110l11,518C1033,585,981,548,923,521C865,492,808,477,755,477C588,478,458,533,368,642C277,741,214,859,182,993c117,23,211,58,281,107c69,43,104,96,104,157c0,32,-11,69,-32,107c-20,39,-37,71,-54,100H0l-89,177H1392l91,-177H1251V0Z" 
id="f2_1y"
transform="scale(4.8828125E-4,-4.8828125E-4)" />

<path d="M1105,842v622H553V842ZM1285,0L1098,110l7,556H553V523c0,-52,-19,-78,-56,-78c-1,0,-2,0,-4,0c0,0,-1,-1,-2,-1c-15,0,-37,16,-65,46c-33,29,-70,63,-107,104c-38,39,-70,77,-96,113c-29,32,-44,54,-44,66c0,15,6,31,17,46c10,14,24,21,42,23H374v622H2l-90,177H1425l91,-177H1285V0Z" 
id="f2_1x"
transform="scale(4.8828125E-4,-4.8828125E-4)" />

<path d="M464,0L283,110l6,1354H0l-89,177H328c-27,174,-74,299,-143,377c-73,74,-154,110,-239,112c-127,-5,-189,-103,-188,-295l-64,-25c-9,14,-23,40,-41,78c-17,37,-25,72,-28,106c3,96,34,174,95,230c56,52,130,80,217,81c240,0,399,-220,479,-664H654l92,-177H464V0Z" 
id="f2_2a"
transform="scale(4.8828125E-4,-4.8828125E-4)" />

<path d="M883,-22C668,208,478,423,313,626C255,700,218,755,202,791c-16,36,-23,60,-23,75c0,28,7,52,26,77c18,20,36,30,59,32c11,-2,25,-5,43,-9c17,-13,35,-25,54,-36c44,-30,76,-47,94,-48c2,-1,3,-1,4,-1c14,0,23,20,27,62c7,44,9,155,9,333c0,67,-5,130,-15,188H-2l-90,177H947l90,-177H677V924c0,-49,-11,-93,-35,-131C620,750,596,720,568,703C500,655,468,625,472,611c0,-8,18,-29,52,-64c34,-35,73,-79,122,-134C753,301,860,191,966,79L883,-22Z" 
id="f2_20"
transform="scale(4.8828125E-4,-4.8828125E-4)" />

<path d="M-77,1864l-203,203l200,200L122,2064L-77,1864Z" 
id="f2_17"
transform="scale(4.8828125E-4,-4.8828125E-4)" />

<path d="M1102,1138c188,0,325,40,409,118c87,79,130,211,130,392c0,127,-20,225,-58,294c-38,67,-95,119,-170,151c-75,32,-198,49,-370,50c-113,-1,-184,-12,-215,-32c-29,-21,-44,-58,-44,-108V1138h307c3,0,7,0,11,0ZM104,0V118H328c45,0,78,7,98,26c22,16,32,42,32,73V2014c0,44,-12,78,-39,97c-26,22,-77,31,-150,32H104v118H1219c252,0,445,-58,578,-171c133,-115,198,-264,198,-448c0,-184,-61,-327,-183,-423C1646,1088,1441,1021,1197,1021c-3,0,-6,0,-8,0H784V251c0,-46,10,-78,30,-97c29,-24,68,-36,115,-36h254V0Z" 
id="f3_z"
transform="scale(4.8828125E-4,-4.8828125E-4)" />

<path d="M1707,0L1522,110l12,610c-38,-16,-75,-23,-110,-25c-37,-6,-66,-9,-87,-9c-26,0,-63,8,-110,24c-46,17,-92,39,-135,68l-4,-6c29,-52,44,-106,46,-159C1132,498,1092,408,1018,344C944,276,848,243,730,243c-2,0,-5,0,-7,0C474,246,263,445,90,839l83,49C305,576,469,420,665,420c3,0,6,0,9,0c2,0,4,0,6,0c89,0,157,32,209,96c52,57,78,126,78,205c-1,58,-17,107,-44,147c-31,40,-69,64,-116,78C772,930,724,914,668,895C613,866,573,854,545,854c-4,0,-15,8,-30,24c-15,13,-32,26,-49,43c-35,38,-53,66,-57,83c0,33,17,50,51,52c3,-1,5,-1,8,-1c14,0,29,3,47,7c23,3,46,6,69,9c53,9,91,14,116,14c26,0,59,21,99,67c43,43,66,101,67,176c0,64,-17,114,-52,152c-35,31,-78,46,-130,48c-36,-2,-73,-8,-110,-20c-36,-12,-71,-31,-105,-50c-66,-48,-107,-72,-124,-74q-1,0,-2,0c-16,0,-30,14,-44,38c-21,42,-41,86,-59,133c58,32,118,58,177,78c58,22,112,31,159,32c38,-1,86,-13,144,-38c61,-26,120,-66,175,-119c55,-54,93,-99,113,-139c17,-43,25,-87,25,-133c0,-47,-14,-90,-40,-133c-29,-43,-64,-73,-105,-95C1021,898,1147,845,1262,845c3,0,6,0,9,0c2,0,4,0,6,0c40,0,85,14,138,41c58,23,94,46,113,69v509H1149l-93,177h790l91,-177H1707V0Z" 
id="f2_12"
transform="scale(4.8828125E-4,-4.8828125E-4)" />

<path d="M1198,73c61,0,119,8,172,22c54,15,104,36,153,67c-3,179,-26,309,-73,391c-57,104,-147,156,-266,156c-96,0,-174,-31,-235,-90C888,558,857,481,857,387c0,-95,38,-184,113,-266c72,-32,148,-48,228,-48ZM755,289v0c-3,46,-5,82,-5,111c0,124,41,225,122,307c81,80,188,120,320,121c133,-1,244,-44,333,-131c68,-68,131,-182,189,-346c57,104,99,216,124,338c26,119,40,272,40,455c0,255,-28,456,-84,605c-57,150,-136,260,-239,332c-102,70,-217,105,-347,107c-125,-2,-239,-37,-340,-107C768,2009,689,1898,633,1748C576,1595,547,1392,547,1134c0,-184,17,-341,50,-471C629,532,683,406,755,289ZM1910,-606c-106,0,-191,42,-255,126c-66,82,-110,244,-132,482c-58,-15,-113,-27,-165,-35c-52,-7,-104,-10,-151,-10C1018,-43,845,3,684,102C526,200,399,341,304,526C209,709,162,917,162,1149c0,327,108,608,321,840c194,211,435,316,722,316c194,0,370,-48,529,-145c160,-97,287,-237,384,-417c96,-183,143,-385,143,-608c0,-206,-37,-389,-113,-550C2072,425,1953,278,1789,147c15,-45,32,-103,49,-174c34,-137,66,-226,98,-267c32,-41,68,-59,108,-59c40,0,72,21,99,64c28,42,43,114,45,217h104c-2,-184,-37,-318,-107,-405c-71,-86,-162,-129,-275,-129Z" 
id="f3_10"
transform="scale(4.8828125E-4,-4.8828125E-4)" />

<path d="M510,588c121,2,265,74,433,216C889,886,834,944,778,979c-54,34,-126,51,-213,52c-59,-1,-117,-21,-171,-61C342,927,315,865,313,781c0,-58,20,-103,61,-138c34,-36,80,-55,136,-55ZM1118,0L933,110l13,460C892,532,839,500,787,472C735,446,677,432,613,432C493,434,391,480,309,570C225,655,180,762,179,888c0,20,6,49,17,85c9,34,24,69,48,104c25,37,62,69,110,96c45,23,103,35,176,35c40,0,83,-4,127,-9c44,-9,84,-29,119,-61c23,-17,46,-40,72,-67c26,-29,55,-72,85,-124h8v517H0l-89,177H1923l92,-177H1118V924c100,94,194,142,286,144c29,0,63,-8,101,-21c38,-20,75,-49,110,-88c35,-39,66,-90,90,-152c23,-63,34,-139,34,-226c0,-124,-52,-266,-158,-427L1422,299c54,74,100,149,135,230c32,76,49,146,49,207c0,49,-14,87,-43,117c-28,24,-64,36,-110,38c-40,-2,-87,-19,-147,-51C1247,804,1184,758,1118,701V0Z" 
id="f2_18"
transform="scale(4.8828125E-4,-4.8828125E-4)" />

<path d="M1118,0L933,113l13,885H620c-1,0,-3,0,-5,0C435,998,345,912,345,743c-1,-72,25,-155,77,-248C471,400,558,277,684,127L584,46C434,234,328,391,269,518C206,643,177,753,179,851c0,58,10,108,32,154c21,40,47,75,79,101c69,46,141,69,214,69H941v289H-2l-90,177H1257l92,-177H1118V0Z" 
id="f2_1n"
transform="scale(4.8828125E-4,-4.8828125E-4)" />

<path d="M-943,-10l-138,122l807,560V519L-943,-10Z" 
id="f2_2j"
transform="scale(4.8828125E-4,-4.8828125E-4)" />

<path d="M619,634c140,0,211,76,211,234v596H457V801c1,-57,23,-100,61,-127c38,-28,72,-40,101,-40ZM709,500c-32,0,-72,10,-118,33c-46,23,-94,54,-143,93c-45,37,-84,80,-118,129c-35,49,-52,98,-52,148v561H-4l-90,177H1135l90,-177H1008V759C1007,681,976,620,918,574C863,524,793,500,709,500Z" 
id="f2_n"
transform="scale(4.8828125E-4,-4.8828125E-4)" />

<path d="M843,-22C665,92,509,223,377,374C318,449,270,526,235,603c-38,80,-56,159,-56,237c0,80,27,162,81,248c29,38,64,70,107,96c41,23,88,35,145,35c90,-4,160,-32,209,-79c60,-60,115,-121,162,-182c98,136,196,203,293,203c1,0,2,0,3,0c43,-3,84,-14,124,-35c41,-21,72,-43,92,-63v401H0l-89,177H1711l93,-177H1574V0L1389,112l12,838c-44,34,-90,52,-138,54c-30,-2,-58,-5,-84,-12c-27,-10,-55,-29,-84,-59c-26,-25,-55,-64,-85,-113C978,772,941,710,903,636L762,739c25,49,51,94,74,132c-26,44,-61,82,-106,117c-44,34,-87,51,-125,54c-53,0,-107,-21,-160,-63C388,932,359,859,358,759c0,-52,6,-104,19,-152c16,-51,42,-104,81,-159C535,335,689,209,921,72L843,-22Z" 
id="f2_22"
transform="scale(4.8828125E-4,-4.8828125E-4)" />

<path d="M497,445c-17,0,-40,15,-69,45c-34,29,-69,63,-106,104c-36,39,-67,77,-91,113c-29,32,-45,54,-45,66c0,15,8,31,19,46c10,14,23,21,39,23H377v622H6l-91,177H920l91,-177H558V842h609V666H558V523c0,-54,-20,-78,-61,-78Z" 
id="f2_t"
transform="scale(4.8828125E-4,-4.8828125E-4)" />

<path d="M577,534c4,0,9,0,14,1c3,0,6,0,9,0c50,0,105,12,168,35L498,1013C468,996,435,964,403,918C365,871,345,817,345,758c3,-84,31,-142,83,-176c45,-32,95,-48,149,-48Zm279,83c97,51,148,121,152,208c-1,98,-29,168,-79,211c-49,38,-101,58,-154,58c-48,0,-84,-3,-110,-8c-26,-6,-52,-15,-80,-24L856,617ZM1296,0L1112,110l11,498h-8c-17,-23,-38,-46,-61,-69c-24,-24,-53,-49,-85,-70C906,423,820,400,709,400c-4,0,-7,0,-11,0C544,402,419,452,324,553C229,651,180,756,179,869c0,40,9,81,29,124c20,41,47,81,87,118c79,76,200,117,362,119c105,0,194,-25,266,-72c70,-55,133,-124,189,-209h6v515H-8l-92,177H1436l90,-177H1296V0Z" 
id="f2_1v"
transform="scale(4.8828125E-4,-4.8828125E-4)" />

<path d="M869,-320C790,-214,712,-118,639,-33C564,49,513,96,486,112c-34,4,-70,12,-109,22c-39,8,-67,16,-84,22c-24,20,-47,50,-68,92c-23,42,-36,85,-36,132c0,14,13,34,36,55c19,20,47,33,84,34c33,-1,70,-23,108,-63c41,-41,69,-78,83,-108c6,-1,12,-1,18,-1c60,0,127,21,203,64c41,19,73,48,99,87c26,33,40,75,40,126c0,48,-9,81,-24,98c-17,14,-37,20,-63,20C739,689,698,678,651,660C602,640,555,629,509,629c-45,0,-87,19,-129,55c-39,34,-76,74,-107,123c-64,110,-94,207,-94,291c0,57,14,97,41,124c26,20,69,31,130,31H730v211H-8l-92,177H1056l90,-177H897V1135c0,-27,-20,-40,-60,-40H443c-50,0,-84,-9,-99,-26c-22,-18,-31,-39,-31,-65c0,-52,15,-101,46,-144c28,-47,64,-73,109,-75c42,0,88,11,137,31c46,20,90,29,131,32c34,0,68,-12,100,-35c32,-25,59,-57,84,-96c50,-81,76,-149,78,-201C996,405,955,321,874,263C798,202,704,162,597,141L958,-239l-89,-81Z" 
id="f2_13"
transform="scale(4.8828125E-4,-4.8828125E-4)" />

<path d="M-222,1523c-40,66,-86,155,-136,263c-54,108,-81,206,-84,296c3,74,29,136,78,190c49,49,105,75,169,78c49,0,97,-19,143,-58C-7,2250,31,2171,63,2053L6,2037c-25,58,-49,99,-75,123c-26,22,-55,32,-87,32c-42,-1,-77,-23,-106,-62c-27,-40,-44,-87,-47,-142c1,-31,7,-66,18,-106c11,-39,25,-79,37,-122c32,-82,61,-154,85,-214l-53,-23Z" 
id="f2_2i"
transform="scale(4.8828125E-4,-4.8828125E-4)" />

<path d="M416,-43c-62,0,-112,20,-150,60c-40,41,-60,99,-60,176c0,56,16,137,43,242L674,2018c6,19,7,34,7,46c0,21,-12,41,-33,55c-29,15,-77,23,-142,24H396l33,118l563,31L466,330C446,264,435,215,435,186c0,-29,7,-50,17,-64c10,-12,21,-18,35,-18c2,0,3,0,5,0c0,0,1,0,1,0c89,0,206,133,353,399l86,-48C764,121,591,-43,416,-43Z" 
id="f4_v"
transform="scale(4.8828125E-4,-4.8828125E-4)" />

<path d="M972,819c44,0,94,12,148,38c55,21,102,47,142,80v527H680V924c33,-21,76,-44,130,-67c52,-26,107,-38,162,-38ZM837,0C591,280,419,483,321,610C225,735,177,820,179,866c0,28,9,52,27,77c17,20,37,30,58,32c11,-2,26,-5,45,-9c16,-13,35,-25,53,-36c46,-30,78,-47,96,-48c1,-1,2,-1,3,-1c14,0,25,20,29,62c7,45,10,155,10,333c0,67,-3,130,-13,188H-1l-91,177H1581l90,-177H1441V0L1256,110l12,591c-95,-36,-174,-56,-238,-58c-2,0,-4,0,-6,0c-27,0,-74,10,-139,32c-34,13,-71,29,-106,54c-36,23,-72,50,-105,84C657,793,636,770,611,744C582,717,555,695,532,680C464,645,434,620,438,608c4,-15,62,-78,173,-188C717,307,822,196,924,87L837,0Z" 
id="f2_26"
transform="scale(4.8828125E-4,-4.8828125E-4)" />

<path d="M636,1069c58,62,85,141,85,239c-4,145,-56,218,-154,220c-51,-3,-93,-23,-130,-58c-41,-35,-61,-81,-61,-135c6,-64,33,-117,79,-163c26,-23,54,-41,84,-57c31,-20,63,-33,97,-46ZM1387,0L1202,110l10,484C1167,548,1109,510,1037,477C966,440,895,422,827,422c-124,1,-225,26,-301,73C448,536,390,579,350,623C248,717,196,776,196,799c-3,8,41,32,134,72c89,35,163,78,225,127c-252,82,-378,197,-376,343c0,69,23,139,72,211c48,74,120,110,215,113c24,-1,61,-6,107,-15c47,-15,95,-38,145,-69c50,-33,95,-75,127,-123c35,-54,53,-118,55,-196C898,1144,859,1045,778,964C695,880,593,807,472,746c11,-69,35,-118,73,-146c37,-29,89,-42,158,-42c95,1,189,33,282,97c91,60,164,124,222,194v615H1022l-96,177h600l90,-177H1387V0Z" 
id="f2_1o"
transform="scale(4.8828125E-4,-4.8828125E-4)" />

<path d="M585,544c73,0,158,30,252,93c96,55,181,127,255,219c-45,47,-107,94,-181,139c-77,42,-156,67,-242,70C564,1062,483,1036,428,985C373,932,345,874,345,811C351,633,431,544,585,544ZM1274,0L1089,110l13,501C967,478,817,413,649,411c-1,0,-3,0,-4,0c-97,0,-196,46,-295,133c-51,40,-90,90,-122,151c-34,55,-49,118,-49,187c-2,90,29,171,93,246c35,35,79,64,134,85c55,18,123,28,199,29c9,-1,19,-1,29,-1c11,0,21,0,32,1c23,-1,46,-3,70,-6c52,-9,100,-28,144,-55c46,-28,86,-63,119,-105c34,-43,64,-84,90,-126h6v514H-2l-90,177H1413l92,-177H1274V0Z" 
id="f2_23"
transform="scale(4.8828125E-4,-4.8828125E-4)" />

<path d="M619,1134c6,62,9,125,9,186c0,52,-8,99,-21,144c-17,39,-54,61,-114,64c-41,-3,-73,-22,-97,-55c-26,-34,-38,-70,-38,-112c1,-64,30,-116,90,-156c50,-42,108,-65,171,-71ZM1418,0L1234,113l5,573H776V526c-3,-36,-21,-54,-56,-54c-10,0,-32,14,-65,41c-36,23,-73,51,-111,84c-40,36,-75,69,-104,101c-32,32,-49,57,-49,75c0,15,8,31,22,46c10,14,24,21,41,23H597l8,180c-89,28,-162,58,-217,89c-60,32,-102,62,-133,94c-53,68,-78,132,-76,196c-2,61,17,119,55,176c35,56,99,85,189,88c2,0,4,0,6,0c89,0,170,-35,239,-104c71,-73,108,-200,108,-377V842h463v622H1005l-94,177h644l89,-177H1418V0Z" 
id="f2_1w"
transform="scale(4.8828125E-4,-4.8828125E-4)" />

<path d="M1496,0L1311,108l12,439C1208,440,1091,388,967,388C814,390,698,432,619,518C539,597,500,683,500,773c0,43,7,81,21,112c12,29,29,56,50,81H277l-91,175h981l93,-166c-13,-1,-27,-1,-43,-1c-37,0,-80,1,-128,2c-93,0,-162,-1,-204,-4c-42,-8,-74,-17,-97,-31C756,924,730,895,707,851C680,804,666,753,666,700C669,568,732,503,854,501c2,0,3,0,5,0c19,0,40,7,68,18c28,10,61,26,100,48c79,44,175,117,290,221v676H3l-89,177H1635l91,-177H1496V0Z" 
id="f2_1c"
transform="scale(4.8828125E-4,-4.8828125E-4)" />

<path d="M1118,0L937,110l6,755H539c-16,0,-30,0,-42,-2c-16,-3,-25,-14,-25,-27V671c-4,-43,-21,-66,-48,-66c-2,0,-4,0,-5,0c-1,0,-2,0,-2,0c-14,0,-32,17,-56,50c-25,29,-52,65,-81,106c-26,44,-49,82,-69,117c-22,34,-32,59,-32,72c0,32,14,57,43,72c27,12,82,18,163,18H943v424H-5l-90,177H1259l90,-177H1118V0Z" 
id="f2_1z"
transform="scale(4.8828125E-4,-4.8828125E-4)" />

<path d="M1349,-364l-157,140c39,39,59,72,62,104c0,25,-26,55,-79,90L373,480c-63,44,-95,113,-95,206v778H-4l-90,177H1306l90,-177H1108V662c0,-86,-35,-129,-102,-129c-2,0,-4,0,-7,0c-5,0,-10,0,-15,0c-65,0,-136,9,-212,28L665,718c68,-8,126,-9,175,-9c4,0,8,0,12,0c50,0,75,20,75,59v696H455V665c0,-26,6,-51,17,-72c6,-25,14,-40,23,-48L1291,26c67,-43,112,-78,134,-104c17,-29,26,-59,26,-86c-1,-44,-36,-110,-102,-200Z" 
id="f2_16"
transform="scale(4.8828125E-4,-4.8828125E-4)" />

<path d="M-217,-599c-282,4,-558,142,-833,412l59,80c141,-129,262,-217,361,-265c101,-46,215,-69,341,-69c84,2,151,29,201,83c52,49,77,98,75,147c2,27,-9,55,-30,79c-23,25,-60,43,-107,52c-29,-31,-61,-60,-95,-87c-34,-26,-60,-41,-75,-41c-6,0,-15,7,-30,23c-17,12,-34,27,-51,47c-40,41,-59,73,-62,98c3,15,22,32,62,52c40,20,87,31,142,31C-150,40,-62,8,9,-54c74,-64,110,-144,112,-237c0,-70,-26,-137,-78,-201c-56,-69,-143,-104,-260,-107Z" 
id="f2_2b"
transform="scale(4.8828125E-4,-4.8828125E-4)" />

<path d="M1016,-158C825,-111,651,-33,495,73C420,125,361,185,316,251c-47,64,-72,132,-72,209c0,55,11,105,33,150c18,42,41,78,68,105C237,837,180,941,179,1025c0,67,18,122,53,165c37,41,96,63,177,63H851v211H-7l-88,177H1326l90,-177H1030V1138c0,-41,-17,-63,-54,-63c-2,0,-3,1,-4,1H443c-30,-2,-58,-13,-84,-34c-31,-23,-46,-54,-46,-90c0,-29,11,-58,34,-87c20,-31,41,-58,66,-78c30,23,59,41,90,56c30,13,61,22,90,29c59,10,113,14,159,16c84,-3,171,-42,259,-115c40,-35,74,-76,101,-119c25,-44,37,-90,37,-138c0,-65,-17,-122,-54,-168C1056,299,988,261,895,231L796,391c127,25,191,86,192,185c-1,53,-21,96,-61,128c-38,31,-79,46,-126,46C688,747,597,709,533,633C463,556,429,483,429,409c0,-74,52,-158,158,-249C688,66,839,-14,1039,-85l-23,-73Z" 
id="f2_27"
transform="scale(4.8828125E-4,-4.8828125E-4)" />

<path d="M1001,-11L820,107V1633l181,-119V-11Z" 
id="f2_1r"
transform="scale(4.8828125E-4,-4.8828125E-4)" />

<path d="M1060,798c40,0,71,12,92,38c20,24,31,67,31,130c0,113,-36,209,-109,288c-73,80,-159,119,-258,121C704,1373,611,1326,535,1230C457,1134,417,990,414,798ZM816,-43C623,-43,461,24,330,163C199,303,133,480,133,698c0,231,66,420,195,564c132,144,292,215,483,217c141,-2,263,-38,364,-110c102,-73,180,-179,231,-313c36,-97,56,-217,58,-361H414C420,478,461,325,539,238C627,139,739,89,874,89c2,0,4,0,6,0c1,0,3,0,4,0c201,0,363,114,486,340l94,-44C1314,98,1098,-43,816,-43Z" 
id="f3_1e"
transform="scale(4.8828125E-4,-4.8828125E-4)" />

<path d="M133,0V118H249c44,0,78,9,101,30c23,19,35,45,35,78v926c0,50,-14,89,-40,113c-26,26,-76,43,-152,50v120l414,29c21,-104,36,-202,44,-294c75,112,151,191,227,239c75,45,159,68,250,70c97,-2,178,-29,241,-80c63,-53,111,-139,145,-255c67,110,142,194,225,251c84,55,172,82,270,84c130,-2,228,-41,290,-119c84,-104,126,-237,126,-399V241c0,-44,12,-73,33,-88c32,-23,78,-35,139,-35h78V0H1907V118h76c64,0,110,9,136,30c26,22,40,52,40,93V963c0,106,-26,189,-75,249c-51,58,-116,88,-199,88c-61,0,-116,-18,-166,-52c-51,-35,-90,-85,-119,-148c-42,-92,-63,-171,-63,-234V241c0,-42,12,-74,37,-93c24,-21,61,-30,110,-30h105V0H1021V118h87c55,0,96,9,123,30c28,22,40,48,40,80V897c0,139,-23,243,-70,307c-48,64,-112,96,-193,96c-104,0,-183,-37,-240,-111C691,1083,651,959,651,820V241c0,-44,11,-74,30,-90c31,-23,78,-33,141,-33h79V0Z" 
id="f3_1m"
transform="scale(4.8828125E-4,-4.8828125E-4)" />

<path d="M73,0V118H194c55,0,93,9,113,27c23,17,34,46,34,86V1300H89v135H341v102c0,254,53,448,160,582c107,133,238,200,396,202c119,-2,211,-29,275,-86c67,-58,99,-133,99,-223c0,-61,-15,-108,-46,-144c-30,-35,-68,-50,-117,-50c-43,0,-78,12,-106,40c-27,27,-41,62,-41,104c0,47,17,85,49,117c27,23,40,42,40,55c0,17,-11,31,-34,46c-23,14,-57,22,-102,23c-87,-1,-159,-40,-219,-116c-59,-76,-88,-189,-88,-339V1435H961V1300H607V257c0,-49,10,-83,33,-101c29,-26,72,-38,127,-38H961V0Z" 
id="f3_1f"
transform="scale(4.8828125E-4,-4.8828125E-4)" />

<path d="M1196,0L1014,112l7,1352H567V665C564,585,530,545,464,544c-15,0,-39,15,-71,50c-34,29,-69,63,-104,103C214,776,179,836,180,875c0,22,6,39,22,51c9,12,20,20,30,20H371c2,-1,3,-1,4,-1c8,0,13,11,13,31v488H-4l-90,177H1335l92,-177H1196V0Z" 
id="f2_1b"
transform="scale(4.8828125E-4,-4.8828125E-4)" />

<path d="M503,602c3,0,5,0,7,0c121,1,265,66,433,196C889,883,834,943,778,978c-54,35,-126,52,-213,53c-59,-1,-117,-21,-171,-62C342,924,315,862,313,778c0,-54,20,-95,61,-127c33,-32,76,-49,129,-49ZM1118,0L933,112l13,469C892,542,839,509,787,483C735,455,677,443,613,443C493,445,391,489,309,578C225,663,180,768,179,891c0,21,6,49,17,85c9,34,24,67,48,104c25,34,62,66,110,95c45,21,103,33,176,33c40,0,83,-4,127,-13c43,-9,82,-28,119,-58c23,-16,46,-39,72,-69c26,-31,55,-73,85,-128h8v524H81L-8,1641H1259l90,-177H1118V906c83,50,153,75,213,75c2,0,4,0,6,0c24,0,50,-2,75,-3c26,-5,56,-15,91,-35V761c-49,27,-99,43,-145,43c-44,0,-87,-10,-124,-28c-38,-21,-77,-46,-116,-75V0Z" 
id="f2_j"
transform="scale(4.8828125E-4,-4.8828125E-4)" />

<path d="M1037,0L859,185l178,180L1216,185L1037,0Zm-33,519L860,639c159,174,323,382,492,623c57,84,87,171,89,266c-2,96,-32,172,-89,229c-56,53,-130,81,-221,84c-6,1,-12,1,-18,1c-27,0,-62,-5,-106,-16c-57,-20,-119,-52,-191,-98L695,1882c118,86,257,130,420,135c109,-3,211,-57,306,-161c98,-107,148,-241,153,-406c-2,-124,-37,-229,-104,-316C1312,911,1157,706,1004,519Z" 
id="f2_8"
transform="scale(4.8828125E-4,-4.8828125E-4)" />

<path d="M532,0V118H784c33,0,59,7,76,26c18,16,28,38,28,67V2026c0,38,-13,67,-35,87c-25,20,-63,29,-115,30C590,2142,468,2075,368,1937C287,1824,228,1647,193,1404H73l52,857H1975l51,-857H1907c-69,492,-249,738,-541,739c-60,-1,-99,-10,-121,-32c-21,-19,-33,-53,-33,-97V223c0,-37,12,-63,32,-79c19,-19,55,-26,102,-26h222V0Z" 
id="f3_13"
transform="scale(4.8828125E-4,-4.8828125E-4)" />

<path d="M104,0V118h87c60,0,102,10,127,33c24,23,36,58,36,107V1962c0,59,-15,105,-48,136c-33,29,-80,44,-141,45H60v118l560,31V1186c75,96,156,169,242,218c85,49,175,73,270,75c92,-2,174,-25,246,-66c57,-36,104,-98,144,-183c41,-87,59,-190,59,-307V243c0,-44,12,-76,34,-96c21,-20,55,-29,99,-29h119V0H1065V118h82c65,0,109,9,133,30c23,22,35,52,35,95V923c0,117,-27,209,-82,278c-57,66,-128,99,-215,99c-68,0,-130,-20,-188,-56C772,1205,723,1147,681,1071C642,995,620,914,620,828V258c0,-52,13,-88,32,-108c20,-23,55,-32,103,-32H872V0Z" 
id="f3_1h"
transform="scale(4.8828125E-4,-4.8828125E-4)" />

<path d="M799,-43L241,1207c-19,44,-44,75,-74,93c-29,18,-74,29,-138,31v104H739V1331c-94,-5,-155,-13,-181,-28c-26,-14,-40,-35,-40,-62c0,-25,5,-48,14,-69L909,325l359,819c5,14,8,28,8,45c0,74,-75,120,-226,142v104h591V1331c-60,-8,-109,-25,-144,-51c-35,-27,-62,-64,-81,-108L883,-43Z" 
id="f3_1v"
transform="scale(4.8828125E-4,-4.8828125E-4)" />

<path d="M652,60c2,0,4,0,6,0c2,0,4,0,6,0c119,0,224,45,311,137c90,92,134,208,134,348V753C846,717,660,658,550,576C469,513,429,426,429,313c0,-81,22,-143,63,-188C533,82,586,60,652,60ZM597,-43C451,-43,339,-13,263,49C186,112,148,193,148,292c0,148,87,270,263,368c174,98,408,163,698,197v226c0,80,-30,147,-93,205c-61,56,-139,85,-234,87c-87,-2,-163,-20,-227,-58c-45,-29,-68,-57,-68,-83c0,-16,13,-41,34,-74c27,-43,41,-81,41,-112c0,-49,-15,-87,-44,-116C489,903,453,888,407,888c-2,0,-4,0,-7,0c-2,0,-4,0,-6,0c-48,0,-88,16,-121,50c-33,35,-51,80,-51,135c0,100,58,192,172,278c115,84,264,126,451,128c173,-2,304,-40,394,-113c90,-77,136,-168,136,-275V295c0,-72,11,-124,32,-156c22,-34,48,-50,81,-50c2,0,3,0,5,0c1,0,3,0,5,0c38,0,78,15,118,44l54,-76C1595,-10,1513,-43,1421,-43c-70,0,-130,16,-177,51c-48,35,-91,99,-126,189C1022,99,937,35,863,3C788,-28,701,-43,597,-43Z" 
id="f3_1a"
transform="scale(4.8828125E-4,-4.8828125E-4)" />

<path d="M104,0V118H241c48,0,83,9,107,27c25,18,37,41,37,69v903c0,67,-14,117,-43,150c-27,32,-67,48,-120,48H104v120l503,29V889c55,193,120,339,197,440c78,98,172,148,287,150c76,-2,139,-26,185,-73c46,-49,70,-115,70,-194c0,-66,-15,-117,-46,-153c-29,-36,-66,-54,-111,-54c-1,0,-3,0,-5,0c-2,0,-4,0,-5,0c-42,0,-76,17,-102,46c-29,31,-43,73,-43,127c0,34,6,66,16,98c10,24,15,41,15,47c0,15,-9,21,-28,23c-39,-2,-85,-26,-137,-73C830,1202,776,1108,738,987C680,799,651,649,651,536V226c0,-35,12,-63,38,-81c26,-18,67,-27,128,-27h188V0Z" 
id="f3_1r"
transform="scale(4.8828125E-4,-4.8828125E-4)" />

<path d="M89,0V118H248c47,0,80,9,103,32c22,20,34,52,34,93v875c0,54,-17,97,-49,124c-33,28,-81,43,-145,44H73v118l578,31V218c0,-33,9,-58,26,-70c26,-21,56,-30,95,-30H946V0ZM474,1922c-43,0,-81,17,-113,47c-33,31,-51,71,-51,115c0,41,18,79,52,113c34,32,73,49,118,50c46,-1,85,-18,119,-50c35,-34,52,-72,52,-116c0,-44,-17,-81,-51,-112c-32,-30,-70,-47,-114,-47c-2,0,-4,0,-6,0c-2,0,-4,0,-6,0Z" 
id="f3_1i"
transform="scale(4.8828125E-4,-4.8828125E-4)" />

<path d="M706,-14C587,-14,493,17,426,81C359,147,325,231,325,338v962H73v101c118,18,207,67,268,144c90,113,139,273,146,481H591V1435h459V1300H591V368c0,-82,20,-143,57,-186c36,-43,84,-64,140,-64c69,0,129,33,176,99c49,66,78,176,86,330h103C1147,356,1103,214,1022,122C941,31,836,-14,706,-14Z" 
id="f3_1t"
transform="scale(4.8828125E-4,-4.8828125E-4)" />

<path d="M784,60c117,0,215,53,287,157c75,105,112,280,112,522c0,224,-36,384,-110,485c-74,101,-172,149,-294,151C665,1373,570,1322,495,1216C422,1111,385,947,385,721C385,490,422,322,495,217C567,113,660,60,774,60c2,0,4,0,5,0c2,0,3,0,5,0ZM770,-43C585,-43,426,24,298,167C168,307,104,490,104,717c0,224,66,407,194,548c131,141,290,212,481,214c194,-2,356,-72,488,-211c131,-140,197,-324,197,-551c0,-158,-29,-292,-89,-402C1317,203,1233,116,1123,52C1014,-11,897,-43,770,-43Z" 
id="f3_1o"
transform="scale(4.8828125E-4,-4.8828125E-4)" />

<path d="M118,0V118h99c50,0,89,9,115,30c24,19,38,45,38,75v909c0,58,-16,106,-48,136c-30,31,-76,47,-134,47H118v120l473,29c20,-89,35,-191,45,-307c62,105,137,186,223,239c87,54,184,81,293,83c93,-2,173,-21,235,-58c63,-38,115,-98,153,-179c38,-81,57,-173,57,-273V263c0,-54,12,-90,35,-112c23,-23,62,-33,116,-33h101V0H1079V118h71c68,0,115,9,141,32c26,21,40,53,40,96V863c0,133,-20,234,-60,300c-55,91,-137,137,-249,137c-110,0,-202,-47,-275,-139C672,1066,636,946,636,796V263c0,-54,12,-92,36,-112c23,-23,63,-33,116,-33H888V0Z" 
id="f3_1n"
transform="scale(4.8828125E-4,-4.8828125E-4)" />

<path d="M1006,89c105,0,187,42,242,128c75,111,112,278,112,495c0,226,-34,388,-101,486c-66,98,-151,146,-257,146c-110,0,-203,-55,-281,-165C645,1069,607,911,607,704C607,493,643,338,717,238C790,139,883,89,996,89c1,0,3,0,5,0c2,0,3,0,5,0ZM89,-590v117H193c48,0,87,10,110,29c25,19,38,45,38,75V1121c0,68,-17,117,-51,147c-33,28,-101,44,-201,47v120l463,29c22,-103,36,-201,39,-294c71,112,144,190,220,237c78,46,162,70,252,72c98,-2,191,-32,280,-93c89,-61,159,-150,215,-268c55,-119,83,-252,83,-398c0,-237,-67,-431,-202,-579C1326,17,1193,-43,1037,-43c-88,0,-169,21,-241,67C726,69,662,138,607,229V-343c0,-44,10,-76,30,-93c28,-24,67,-37,115,-37H857V-590Z" 
id="f3_1p"
transform="scale(4.8828125E-4,-4.8828125E-4)" />

<path d="M89,0V118H238c51,0,86,10,110,33c25,22,37,54,37,95V1983c0,49,-14,87,-40,112c-36,30,-81,47,-133,48H89v118l562,31V214c0,-29,7,-51,24,-66c26,-21,57,-30,93,-30H917V0Z" 
id="f3_1l"
transform="scale(4.8828125E-4,-4.8828125E-4)" />

<path d="M781,118c111,0,206,52,284,159c79,105,118,261,118,466c0,192,-42,343,-127,455c-72,98,-162,146,-271,146c-108,0,-195,-45,-259,-136C461,1118,429,966,429,752c0,-234,32,-398,98,-492C593,165,677,118,781,118ZM726,-14C565,-14,429,52,316,188C205,324,148,504,148,729c0,241,72,434,216,579c113,113,243,169,389,171c90,-2,171,-26,243,-72c72,-47,135,-118,187,-211v808c0,42,-16,75,-48,101c-32,25,-82,37,-150,38H888v118l560,31V330c0,-76,17,-131,48,-163c32,-34,79,-49,140,-49h109V0H1227l-44,292C1126,188,1059,112,982,61C906,9,820,-14,726,-14Z" 
id="f3_1d"
transform="scale(4.8828125E-4,-4.8828125E-4)" />

<path d="M778,-43C579,-43,417,20,292,153C167,284,104,460,104,678c0,254,69,450,205,590c137,139,298,209,482,211c139,-2,254,-40,344,-115c92,-78,136,-162,136,-255c0,-56,-17,-102,-52,-139c-32,-35,-72,-53,-117,-53c-1,0,-3,0,-5,0c-2,0,-4,0,-6,0c-43,0,-81,16,-112,46c-30,30,-47,68,-47,113c0,42,17,85,49,126c17,19,24,34,24,46c0,28,-18,57,-56,84c-40,28,-92,41,-158,43C671,1373,579,1329,518,1238C429,1105,385,930,385,715C385,509,425,351,504,246C583,142,683,89,805,89c1,0,3,0,5,0c1,0,2,0,3,0c170,0,295,114,377,340l112,-30C1222,102,1047,-43,778,-43Z" 
id="f3_1c"
transform="scale(4.8828125E-4,-4.8828125E-4)" />

<path d="M1140,-43L313,1975c-27,63,-61,106,-99,132c-37,24,-89,35,-153,36H-14v118H932V2143H767c-67,-1,-113,-9,-138,-24c-24,-17,-36,-38,-36,-63c0,-23,9,-52,27,-91l13,-31L1250,429l545,1436c11,26,15,62,15,101c0,55,-15,100,-48,130c-33,31,-77,46,-133,47H1479v118h813V2143h-68c-48,-1,-97,-24,-148,-68c-50,-48,-94,-124,-137,-234L1222,-43Z" 
id="f3_15"
transform="scale(4.8828125E-4,-4.8828125E-4)" />

<path d="M730,-43L232,1224c-15,35,-35,58,-55,70c-20,11,-55,18,-104,21v120H697V1315H614c-40,0,-70,-7,-87,-18c-17,-12,-26,-27,-26,-46c0,-21,5,-44,15,-65L836,373l278,768c-34,84,-66,136,-96,152c-30,15,-81,22,-156,22v120h687V1315h-58c-52,0,-88,-7,-108,-19c-22,-13,-31,-31,-31,-51c0,-20,5,-38,14,-59L1693,373l260,722c18,45,25,83,25,117c0,30,-12,53,-39,73c-26,15,-77,27,-150,30v120h558V1315c-69,-10,-123,-32,-158,-61c-35,-32,-65,-78,-90,-139L1681,-43h-91L1189,955L825,-43Z" 
id="f3_1w"
transform="scale(4.8828125E-4,-4.8828125E-4)" />

<path d="M801,-502c175,0,308,29,397,86c88,58,133,121,133,191c0,41,-14,79,-42,116c-27,35,-71,63,-132,81C1097,-10,1008,0,892,0C704,0,570,-25,490,-77C411,-129,370,-190,370,-262c0,-69,30,-122,90,-162c79,-52,194,-78,341,-78Zm4,1108c87,0,160,34,217,100c58,67,87,163,87,290c0,115,-30,208,-88,277c-60,67,-133,100,-223,102c-91,-2,-164,-35,-222,-99c-58,-66,-89,-158,-89,-274c0,-127,31,-224,89,-293C633,640,704,606,793,606c2,0,4,0,6,1c2,-1,4,-1,6,-1ZM764,-606c-220,0,-384,40,-491,121c-82,61,-125,132,-125,211c0,58,26,113,80,163c53,49,143,88,269,111C396,24,319,60,269,108c-51,49,-76,110,-76,182c0,66,21,124,64,174c41,49,114,91,220,129C387,639,319,695,275,762c-44,68,-69,144,-69,233c0,136,57,250,165,343c109,94,252,139,427,141c71,-2,140,-12,206,-31c67,-18,131,-47,194,-87c105,97,201,145,290,147c52,-2,96,-17,131,-47c36,-31,51,-69,51,-110c0,-37,-11,-66,-35,-91c-22,-21,-48,-33,-76,-33c-2,0,-4,0,-5,0c-1,0,-3,0,-4,0c-57,0,-96,35,-115,104c-10,29,-25,42,-45,44c-35,-2,-75,-24,-119,-70c46,-61,77,-115,93,-159c17,-46,26,-93,26,-144c0,-91,-21,-171,-64,-240C1283,694,1212,633,1112,581C1016,529,923,503,836,503c-3,0,-5,0,-8,0H662C544,501,466,489,426,464C390,437,370,399,370,350c0,-43,15,-75,47,-96c31,-22,92,-32,177,-32l378,15c189,-2,327,-34,411,-96c84,-65,125,-151,125,-261c0,-122,-47,-226,-145,-308C1230,-547,1030,-606,764,-606Z" 
id="f3_1g"
transform="scale(4.8828125E-4,-4.8828125E-4)" />

<path d="M784,-43C642,-43,509,2,387,96L275,-28H193L162,532H266C332,353,406,229,489,160C571,93,672,60,791,60c3,0,5,0,8,0c3,0,7,0,10,0c110,0,193,24,253,71c61,49,91,113,91,190c0,43,-12,79,-33,113c-23,32,-54,56,-92,73c-40,16,-142,40,-307,72C564,611,454,643,391,678C328,712,280,759,244,820c-35,60,-51,126,-51,198c0,106,35,204,105,293c90,111,217,166,380,168c126,-2,240,-52,346,-154l100,110h63l40,-518H1123c-44,160,-105,278,-180,350c-77,71,-170,106,-280,108c-96,-2,-171,-27,-226,-79c-55,-51,-83,-115,-83,-187c0,-67,26,-122,75,-163C480,900,579,866,726,842c172,-29,284,-54,336,-74c81,-30,143,-76,188,-139c44,-62,65,-140,65,-229C1315,275,1267,170,1166,84C1066,-1,938,-43,784,-43Z" 
id="f3_1s"
transform="scale(4.8828125E-4,-4.8828125E-4)" />

<path d="M443,-43c-52,0,-98,16,-136,52C270,44,252,89,252,141c0,50,18,93,55,129c38,36,84,54,138,55c53,-1,99,-19,136,-55c36,-36,55,-79,55,-129C636,89,617,44,581,9C544,-27,497,-43,443,-43Z" 
id="f3_7"
transform="scale(4.8828125E-4,-4.8828125E-4)" />

<path d="M929,-43L296,1956c-24,76,-53,125,-84,151c-32,24,-82,35,-152,36v118H813V2143H759c-79,-1,-131,-7,-154,-18c-21,-14,-34,-32,-34,-56c0,-19,10,-48,23,-84l11,-29L1057,526l410,1326c-46,143,-81,229,-107,253c-26,25,-78,37,-155,38H1065v118h961V2143H1925c-86,-1,-142,-7,-168,-19c-26,-14,-38,-34,-38,-60c0,-23,3,-41,9,-58L2195,526l379,1281c17,48,25,95,25,141c0,66,-17,115,-48,148c-32,31,-79,46,-143,47h-72v118h709V2143c-60,-9,-107,-24,-144,-45c-35,-22,-67,-52,-93,-92c-24,-41,-52,-107,-79,-199L2180,-43H2066L1545,1607L1033,-43Z" 
id="f3_16"
transform="scale(4.8828125E-4,-4.8828125E-4)" />

<path d="M316,-606c-73,0,-131,22,-175,65c-45,42,-68,96,-68,159c0,45,14,85,43,116c28,30,63,45,104,45c38,0,70,-13,96,-39c26,-26,38,-58,38,-93c0,-13,-1,-28,-6,-48c-3,-15,-6,-27,-6,-33c0,-26,17,-39,48,-39c33,0,71,13,114,37c41,24,81,64,118,118c36,55,102,175,195,361L267,1199c-18,35,-41,61,-70,80c-27,17,-69,29,-124,36v120H755V1315H691c-60,0,-100,-7,-121,-21c-22,-15,-34,-35,-34,-60c0,-13,3,-24,8,-35L943,361l308,692c23,47,34,93,34,140c0,35,-15,63,-44,83c-31,20,-89,32,-176,39v120h591V1315c-116,-10,-195,-58,-237,-139L871,-49C775,-265,684,-412,597,-489C510,-566,416,-606,316,-606Z" 
id="f3_1y"
transform="scale(4.8828125E-4,-4.8828125E-4)" />

<path d="M788,-14C663,-14,556,28,471,115C383,200,341,345,341,550v622c0,53,-22,95,-66,124c-31,19,-92,30,-186,35v117l518,16V523c0,-117,27,-205,84,-268c56,-62,128,-93,217,-93c108,0,201,44,279,136c76,92,115,206,115,344v530c0,49,-17,85,-52,113c-35,26,-103,41,-200,46v117l518,16V286c0,-55,13,-97,42,-126c29,-29,71,-42,123,-42h85V0L1331,-14l-29,312C1216,193,1132,115,1048,63C963,11,877,-14,788,-14Z" 
id="f3_1u"
transform="scale(4.8828125E-4,-4.8828125E-4)" />

<path d="M636,-43C582,-43,536,-27,500,9C463,46,443,90,443,145c0,51,20,92,57,127c36,35,82,52,136,53c53,-1,99,-18,136,-53c38,-37,56,-79,56,-127C828,92,810,46,772,11C735,-27,689,-43,636,-43ZM576,665c0,119,8,213,20,284c14,69,29,124,49,165c20,39,72,113,154,221c64,83,112,162,138,236c26,73,39,155,39,246c0,119,-33,215,-101,290c-65,73,-148,110,-244,110c-83,0,-153,-22,-208,-64c-55,-43,-82,-86,-82,-130c0,-26,18,-54,58,-84c59,-48,88,-100,88,-155c0,-50,-15,-91,-47,-123c-29,-33,-68,-49,-113,-49c-2,0,-4,0,-6,0c-2,0,-4,0,-5,0c-55,0,-100,23,-139,67c-38,47,-59,107,-59,183c0,116,55,223,160,318c107,93,241,139,403,141c167,-2,304,-54,413,-158c108,-104,162,-230,162,-379c0,-96,-17,-183,-54,-259c-27,-60,-97,-141,-207,-245C849,1146,762,1047,730,982C700,917,683,811,680,665Z" 
id="f3_k"
transform="scale(4.8828125E-4,-4.8828125E-4)" />

<path d="M177,0V136c75,118,222,299,439,545c194,217,319,381,376,489c77,147,117,294,117,445c0,128,-27,226,-85,293c-57,67,-135,101,-233,103c-99,-2,-181,-29,-247,-84C477,1872,443,1815,443,1758c0,-24,8,-42,23,-55c14,-15,50,-30,105,-42c123,-34,184,-103,184,-207c0,-71,-25,-129,-71,-174c-47,-47,-106,-68,-177,-68c-73,0,-134,30,-183,93c-47,64,-72,153,-72,269c0,159,51,291,154,400c129,131,301,199,521,199c196,0,355,-55,474,-164c121,-108,180,-241,180,-400c0,-86,-13,-164,-44,-234c-40,-98,-93,-183,-160,-258C1311,1042,1198,947,1039,833C866,709,749,622,684,568C620,515,562,458,506,399h707c67,0,118,21,154,62c37,43,68,136,94,278h151L1568,0Z" 
id="f0_8"
transform="scale(4.8828125E-4,-4.8828125E-4)" />

<path d="M1462,930v534H611V1034c49,14,116,32,200,54c86,20,150,30,191,30c1,0,3,0,4,0c104,0,255,-62,456,-188ZM894,-22C662,200,475,388,335,545C194,703,124,810,121,866c0,28,9,52,27,77c17,20,35,30,57,32c10,-2,26,-5,43,-9c16,-13,33,-25,51,-36c45,-30,77,-45,94,-47c1,0,2,-1,4,-1c13,0,22,20,28,61c6,45,9,155,9,333c0,67,-5,130,-12,188H12l-90,177H1780l92,-177H1639V0L1464,110l3,631L933,428L784,564l586,322c-24,18,-64,37,-117,54c-57,15,-109,23,-159,23C1047,959,966,944,851,915C736,886,657,863,611,846C597,799,570,756,530,717C490,677,454,649,419,636C478,562,573,466,701,347C831,228,924,142,978,92L894,-22Z" 
id="f2_e"
transform="scale(4.8828125E-4,-4.8828125E-4)" />

<path d="M1496,0L1311,112l6,886H866C937,927,993,862,1033,799c35,-61,52,-128,52,-203c-2,-89,-32,-154,-92,-197C937,354,878,331,817,331c-2,0,-4,0,-6,1c-2,-1,-5,-1,-7,-1c-77,0,-144,23,-205,68C536,440,478,495,426,565C327,706,238,865,163,1042l103,43C327,937,393,813,463,713c38,-55,85,-99,142,-134c53,-40,101,-58,145,-58c55,0,95,17,121,52c26,34,40,76,40,128c0,42,-11,83,-31,124c-21,37,-50,73,-84,107c-75,73,-151,131,-231,177l26,66h726v289H-11l-92,177H1635l91,-177H1496V0Z" 
id="f2_1e"
transform="scale(4.8828125E-4,-4.8828125E-4)" />

<path d="M843,-22C665,92,510,223,379,374C319,449,270,526,235,603c-38,80,-56,159,-56,237c0,80,26,162,81,248c29,38,64,70,107,96c39,23,88,35,143,35c89,-4,158,-32,208,-79c60,-60,113,-121,162,-182c98,137,196,205,292,205c47,-2,93,-16,140,-43c42,-31,80,-64,115,-104V872c-63,87,-121,130,-171,132c-31,-2,-58,-5,-84,-12c-26,-10,-54,-28,-83,-57c-26,-27,-53,-66,-84,-115C973,773,938,710,898,637L759,739c25,51,49,94,72,133c-24,43,-59,81,-104,116c-44,34,-85,51,-124,54c-53,0,-106,-21,-158,-63C388,932,359,859,358,759c0,-52,7,-104,21,-152c14,-51,41,-104,81,-159C535,335,689,209,923,72L843,-22ZM2,1464l-90,177H1239l90,-177Z" 
id="f2_1m"
transform="scale(4.8828125E-4,-4.8828125E-4)" />

<path d="M651,576V753H2484V576Zm0,547v177H2484V1123Z" 
id="f5_5"
transform="scale(4.8828125E-4,-4.8828125E-4)" />

<path d="M781,73c120,0,217,51,292,155c73,100,110,270,110,504c0,217,-36,373,-110,470c-72,97,-170,146,-292,147C666,1348,573,1297,500,1195C425,1094,388,933,388,717C388,492,425,328,498,228C571,124,665,73,781,73ZM773,-36C588,-36,432,31,304,170C176,309,112,489,112,710c0,220,64,401,192,541c130,138,287,208,477,208c192,0,353,-70,484,-206c130,-139,196,-318,196,-541c0,-156,-29,-289,-89,-397C1314,206,1231,119,1123,57C1014,-5,897,-36,773,-36Z" 
id="f6_c"
transform="scale(4.8828125E-4,-4.8828125E-4)" />

<path d="M613,-31C472,-31,350,28,249,151C148,273,96,426,96,608c0,113,20,220,58,316c39,97,97,184,173,260c52,52,110,96,170,133c62,35,108,53,139,53c15,0,24,-3,30,-9c8,-6,11,-12,11,-20c0,-10,-15,-30,-44,-64C469,1092,387,875,387,629c0,-157,27,-284,79,-375C519,160,588,113,671,113c2,0,3,0,4,0c3,0,5,0,7,0c67,0,121,21,161,63c40,41,60,101,60,178c0,59,-9,139,-32,245C849,701,839,773,839,811c0,61,17,112,49,150c32,38,75,57,126,58c54,-1,97,-20,130,-58c34,-38,49,-89,49,-150c0,-38,-9,-110,-32,-212C1140,493,1129,413,1129,354c0,-77,20,-137,60,-178c38,-42,91,-63,156,-63c3,0,5,0,7,0c1,0,3,0,4,0c85,0,154,47,208,141c55,91,81,218,81,375c0,246,-82,463,-249,648c-29,34,-44,54,-44,64c0,8,3,14,12,20c8,6,19,9,32,9c31,0,77,-18,138,-53c61,-37,118,-81,171,-133c76,-78,133,-166,171,-263c40,-99,60,-203,60,-313c0,-183,-51,-336,-153,-458C1682,28,1560,-31,1419,-31c-81,0,-156,20,-224,62c-69,41,-129,103,-181,187C963,134,903,72,836,31C768,-11,694,-31,613,-31Z" 
id="f7_2"
transform="scale(4.8828125E-4,-4.8828125E-4)" />

<path d="M157,-396l-35,93c51,55,93,111,127,170c35,55,52,97,54,128c0,33,-39,98,-115,199L332,364c38,-36,71,-75,99,-120c27,-48,43,-96,44,-140C475,60,451,0,403,-77C353,-153,272,-259,157,-396Z" 
id="f2_6"
transform="scale(4.8828125E-4,-4.8828125E-4)" />

<path d="M419,1208c71,8,123,33,155,72c25,38,37,75,37,113c-4,84,-47,129,-128,135c-45,-2,-77,-15,-100,-41c-24,-31,-38,-65,-38,-100c0,-24,6,-52,17,-82c11,-32,29,-66,57,-97ZM1373,0L1189,113l12,478C1126,521,1057,471,995,443C935,415,874,400,811,400c-3,0,-6,0,-9,0C694,402,585,442,480,519c-49,39,-89,81,-119,130c-33,46,-49,98,-49,153c0,38,12,80,33,122c26,42,69,77,130,104c-46,31,-87,61,-124,90c-38,28,-68,57,-94,89c-52,56,-78,133,-78,229c0,70,24,130,73,180c46,45,102,68,171,69c87,-3,158,-29,211,-76c50,-52,78,-119,79,-205c0,-69,-19,-124,-61,-168c-42,-50,-100,-81,-177,-93c11,-14,29,-28,55,-41c26,-16,58,-23,95,-23c40,0,93,1,159,6c47,0,84,-3,113,-9c46,-68,70,-117,72,-147c0,-12,-2,-20,-6,-25c-7,-6,-17,-9,-34,-9c-3,0,-7,0,-11,0c-73,3,-139,8,-200,14C654,909,599,894,555,863C507,831,483,776,483,701c3,-58,26,-104,72,-137c45,-34,91,-52,139,-52c2,0,4,0,6,0c2,0,3,0,5,0c74,0,153,29,236,84c87,53,171,127,254,220v648H961l-95,177h648l90,-177H1373V0Z" 
id="f2_1q"
transform="scale(4.8828125E-4,-4.8828125E-4)" />

<path d="M416,-43c-55,0,-104,21,-144,63c-40,41,-60,99,-60,171c0,69,11,142,31,220l209,782c5,12,8,23,8,35c0,25,-12,45,-37,58c-32,19,-78,29,-142,29H185l30,120l553,29L448,266C438,232,434,205,434,183c0,-27,6,-47,18,-61c13,-12,26,-18,43,-18c2,0,4,0,6,0c1,0,2,0,4,0c38,0,82,24,132,72c87,79,171,194,252,342l87,-49C900,303,808,176,703,87C597,-1,501,-43,416,-43ZM767,1922c-45,0,-82,17,-113,47c-31,32,-47,72,-47,123c0,47,15,87,47,120c30,32,70,49,116,49c47,0,84,-17,115,-50c32,-34,47,-74,47,-123c0,-47,-15,-88,-47,-119c-30,-30,-65,-47,-106,-47c-2,0,-4,0,-6,0c-2,0,-4,0,-6,0Z" 
id="f4_t"
transform="scale(4.8828125E-4,-4.8828125E-4)" />

<path d="M614,710c1,0,2,0,3,0c55,0,110,16,168,49c61,26,110,54,144,83v622H455V952C458,790,511,710,614,710ZM1108,0L923,112l12,511C865,578,788,555,706,553c-2,0,-4,0,-6,0c-31,0,-69,12,-112,34c-46,24,-93,55,-140,91c-46,37,-86,81,-120,130c-33,48,-50,98,-50,150v506H-4l-90,177H1920l92,-177H1108V941c56,44,117,84,181,119c69,29,129,45,179,48c29,-2,63,-8,101,-22c40,-20,76,-50,112,-88c35,-40,65,-89,90,-152c24,-64,35,-139,35,-226c0,-120,-52,-262,-158,-423L1488,342c55,74,99,150,135,229c33,77,48,146,48,208c0,49,-13,87,-41,116c-29,23,-66,37,-111,37c-42,-3,-104,-23,-187,-64C1253,825,1176,773,1108,715V0Z" 
id="f2_1k"
transform="scale(4.8828125E-4,-4.8828125E-4)" />

<path d="M1186,649c117,2,258,72,423,210c-54,81,-107,140,-161,177c-53,33,-123,50,-209,52c-60,-2,-115,-22,-166,-61C1021,984,993,921,990,840c0,-58,20,-102,61,-136c34,-36,78,-55,135,-55ZM1004,212c3,0,6,0,9,0c122,2,232,34,333,98c101,55,186,113,260,171V631c-52,-38,-103,-72,-152,-99c-50,-28,-106,-40,-171,-40c-117,1,-218,46,-299,136C900,713,857,819,854,944c0,20,8,49,20,86c8,32,23,67,46,104c26,35,61,67,108,96c45,23,103,33,174,33c40,0,81,-4,126,-12c42,-9,81,-27,117,-58c22,-15,45,-36,71,-65c24,-30,52,-71,84,-124h6v460H629c10,-182,14,-349,16,-500C645,814,576,692,435,594C495,501,576,417,680,341c49,-38,102,-69,157,-90c54,-25,109,-39,167,-39ZM1783,0L1604,115l8,169C1409,128,1221,52,1047,52c-4,0,-7,0,-10,0C830,52,614,197,385,487C310,594,257,686,228,761c-34,73,-49,113,-49,122c0,18,7,37,26,54c15,16,27,26,36,29c11,0,31,-5,62,-14c29,-12,68,-29,119,-49c16,26,27,64,35,111c6,49,9,101,9,156c0,112,-3,210,-11,294H-8l-92,177H1922l92,-177H1783V0Z" 
id="f2_1a"
transform="scale(4.8828125E-4,-4.8828125E-4)" />

<path d="M1442,857L1042,1875L634,857ZM-28,0V118c86,0,155,18,205,56c49,37,95,109,138,216l768,1915h106L2000,241c33,-84,102,-123,205,-123h71V0H1375V118h70c95,0,162,9,199,30c27,12,40,35,40,64c0,17,-2,34,-10,55L1488,739H587L478,469C451,396,437,338,437,296c0,-50,23,-91,69,-126c47,-36,114,-52,201,-52h77V0Z" 
id="f3_l"
transform="scale(4.8828125E-4,-4.8828125E-4)" />

<path d="M1143,118c172,0,322,44,452,133c84,58,148,140,193,249c61,142,90,342,90,597c0,374,-66,649,-197,825c-112,147,-282,220,-508,221H918c-46,-1,-79,-10,-101,-29c-23,-21,-33,-48,-33,-87V229c0,-36,12,-64,38,-82c26,-20,67,-29,128,-29ZM104,0V118H315c53,0,91,7,111,26c22,16,32,44,32,81V2040c0,30,-10,56,-33,74c-22,19,-54,28,-93,29H104v118H1274c174,0,321,-30,443,-92c151,-77,280,-207,385,-386c107,-182,159,-396,159,-642c0,-204,-30,-388,-95,-550C2119,466,2044,356,1945,263C1846,168,1723,98,1581,52C1474,17,1331,0,1152,0Z" 
id="f3_o"
transform="scale(4.8828125E-4,-4.8828125E-4)" />


</defs>
</svg>