<?xml version="1.0" encoding="UTF-8" standalone="no"?>
<!DOCTYPE svg PUBLIC "-//W3C//DTD SVG 1.1//EN"
"http://www.w3.org/Graphics/SVG/1.1/DTD/svg11.dtd">
<svg viewBox="0 0 909 1286" version="1.1" xmlns="http://www.w3.org/2000/svg" xmlns:xlink="http://www.w3.org/1999/xlink">
<defs>
</defs>
<g fill="#000000" >
<use xlink:href="#f0_1h" transform="matrix(12,0,0,12,43.6,141)" />
<use xlink:href="#f0_n" transform="matrix(12,0,0,12,53.9,141)" />
<use xlink:href="#f0_15" transform="matrix(12,0,0,12,64.2,141)" />
<use xlink:href="#f0_6" transform="matrix(12,0,0,12,75.9,141)" />
<use xlink:href="#f0_5" transform="matrix(12,0,0,12,85.4,141)" />
<use xlink:href="#f0_a" transform="matrix(12,0,0,12,95.9,141)" />
<use xlink:href="#f0_7" transform="matrix(12,0,0,12,107.8,141)" />
<use xlink:href="#f0_o" transform="matrix(12,0,0,12,114.2,141)" />
<use xlink:href="#f0_4" transform="matrix(12,0,0,12,123.9,141)" />
<use xlink:href="#f0_4" transform="matrix(12,0,0,12,136,141)" />
<use xlink:href="#f0_v" transform="matrix(12,0,0,12,143.4,141)" />
<use xlink:href="#f0_5" transform="matrix(12,0,0,12,155.6,141)" />
<use xlink:href="#f0_a" transform="matrix(12,0,0,12,170.8,141)" />
<use xlink:href="#f0_7" transform="matrix(12,0,0,12,182.7,141)" />
<use xlink:href="#f0_6" transform="matrix(12,0,0,12,189.2,141)" />
<use xlink:href="#f0_5" transform="matrix(12,0,0,12,198.8,141)" />
<use xlink:href="#f0_o" transform="matrix(12,0,0,12,209.2,141)" />
<use xlink:href="#f0_4" transform="matrix(12,0,0,12,218.9,141)" />
<use xlink:href="#f0_7" transform="matrix(12,0,0,12,226.3,141)" />
<use xlink:href="#f0_b" transform="matrix(12,0,0,12,232.7,141)" />
<use xlink:href="#f0_d" transform="matrix(12,0,0,12,243.9,141)" />
<use xlink:href="#f0_b" transform="matrix(12,0,0,12,260.9,141)" />
<use xlink:href="#f0_e" transform="matrix(12,0,0,12,272.1,141)" />
<use xlink:href="#f0_7" transform="matrix(12,0,0,12,284.3,141)" />
<use xlink:href="#f0_d" transform="matrix(12,0,0,12,290.8,141)" />
<use xlink:href="#f0_a" transform="matrix(12,0,0,12,303,141)" />
<use xlink:href="#f0_m" transform="matrix(12,0,0,12,314.9,141)" />
<use xlink:href="#f0_o" transform="matrix(12,0,0,12,327.1,141)" />
<use xlink:href="#f0_5" transform="matrix(12,0,0,12,336.7,141)" />
<use xlink:href="#f0_a" transform="matrix(12,0,0,12,347.2,141)" />
<use xlink:href="#f0_o" transform="matrix(12,0,0,12,363.8,141)" />
<use xlink:href="#f0_m" transform="matrix(12,0,0,12,373.5,141)" />
<use xlink:href="#f0_6" transform="matrix(12,0,0,12,385.7,141)" />
<use xlink:href="#f0_6" transform="matrix(12,0,0,12,395.3,141)" />
<use xlink:href="#f0_5" transform="matrix(12,0,0,12,404.8,141)" />
<use xlink:href="#f0_d" transform="matrix(12,0,0,12,415.3,141)" />
<use xlink:href="#f0_4" transform="matrix(12,0,0,12,427.5,141)" />
<use xlink:href="#f0_7" transform="matrix(12,0,0,12,439.7,141)" />
<use xlink:href="#f0_d" transform="matrix(12,0,0,12,446.1,141)" />
<use xlink:href="#f0_4" transform="matrix(12,0,0,12,463.1,141)" />
<use xlink:href="#f0_v" transform="matrix(12,0,0,12,470.5,141)" />
<use xlink:href="#f0_5" transform="matrix(12,0,0,12,482.7,141)" />
<use xlink:href="#f0_s" transform="matrix(12,0,0,12,497.9,141)" />
<use xlink:href="#f0_7" transform="matrix(12,0,0,12,506.8,141)" />
<use xlink:href="#f0_4" transform="matrix(12,0,0,12,513.3,141)" />
<use xlink:href="#f0_m" transform="matrix(12,0,0,12,520.7,141)" />
<use xlink:href="#f0_3" transform="matrix(12,0,0,12,532.9,141)" />
<use xlink:href="#f0_4" transform="matrix(12,0,0,12,543.9,141)" />
<use xlink:href="#f0_7" transform="matrix(12,0,0,12,551.3,141)" />
<use xlink:href="#f0_b" transform="matrix(12,0,0,12,557.7,141)" />
<use xlink:href="#f0_d" transform="matrix(12,0,0,12,569,141)" />
<use xlink:href="#f0_s" transform="matrix(12,0,0,12,581.2,141)" />
<use xlink:href="#f0_a" transform="matrix(12,0,0,12,594.9,141)" />
<use xlink:href="#f0_5" transform="matrix(12,0,0,12,606.7,141)" />
<use xlink:href="#f0_s" transform="matrix(12,0,0,12,617.2,141)" />
<use xlink:href="#f0_o" transform="matrix(12,0,0,12,626.1,141)" />
<use xlink:href="#f0_6" transform="matrix(12,0,0,12,635.8,141)" />
<use xlink:href="#f0_7" transform="matrix(12,0,0,12,645.3,141)" />
<use xlink:href="#f0_18" transform="matrix(12,0,0,12,651.8,141)" />
<use xlink:href="#f0_5" transform="matrix(12,0,0,12,663.7,141)" />
<use xlink:href="#f0_a" transform="matrix(12,0,0,12,674.1,141)" />
<use xlink:href="#f0_18" transform="matrix(12,0,0,12,690.8,141)" />
<use xlink:href="#f0_g" transform="matrix(12,0,0,12,702.7,141)" />
<use xlink:href="#f0_4" transform="matrix(12,0,0,12,718,141)" />
<use xlink:href="#f0_v" transform="matrix(12,0,0,12,725.4,141)" />
<use xlink:href="#f0_5" transform="matrix(12,0,0,12,737.6,141)" />
<use xlink:href="#f0_e" transform="matrix(12,0,0,12,752.8,141)" />
<use xlink:href="#f0_b" transform="matrix(12,0,0,12,760.3,141)" />
<use xlink:href="#f0_8" transform="matrix(12,0,0,12,771.5,141)" />
<use xlink:href="#f0_8" transform="matrix(12,0,0,12,777.9,141)" />
<use xlink:href="#f0_b" transform="matrix(12,0,0,12,784.4,141)" />
<use xlink:href="#f0_c" transform="matrix(12,0,0,12,795.6,141)" />
<use xlink:href="#f0_7" transform="matrix(12,0,0,12,811.3,141)" />
<use xlink:href="#f0_d" transform="matrix(12,0,0,12,817.7,141)" />
<use xlink:href="#f0_l" transform="matrix(12,0,0,12,830,141)" />
<use xlink:href="#f0_1m" transform="matrix(12,0,0,12,43.6,173.1)" />
<use xlink:href="#f0_7" transform="matrix(12,0,0,12,55,173.1)" />
<use xlink:href="#f0_l" transform="matrix(12,0,0,12,61.4,173.1)" />
<use xlink:href="#f0_s" transform="matrix(12,0,0,12,71.7,173.1)" />
<use xlink:href="#f0_n" transform="matrix(12,0,0,12,80.6,173.1)" />
<use xlink:href="#f0_y" transform="matrix(12,0,0,12,90.9,173.1)" />
<use xlink:href="#f0_n" transform="matrix(12,0,0,12,101.2,173.1)" />
<use xlink:href="#f0_p" transform="matrix(12,0,0,12,106.8,173.1)" />
<use xlink:href="#f0_r" transform="matrix(12,0,0,12,117,173.1)" />
<use xlink:href="#f0_11" transform="matrix(12,0,0,12,127.2,173.1)" />
<use xlink:href="#f0_3" transform="matrix(12,0,0,12,134.6,173.1)" />
<use xlink:href="#f0_12" transform="matrix(12,0,0,12,145.5,173.1)" />
<use xlink:href="#f0_4" transform="matrix(12,0,0,12,157.6,173.1)" />
<use xlink:href="#f0_b" transform="matrix(12,0,0,12,165,173.1)" />
<use xlink:href="#f0_11" transform="matrix(12,0,0,12,181,173.1)" />
<use xlink:href="#f0_e" transform="matrix(12,0,0,12,188.3,173.1)" />
<use xlink:href="#f0_12" transform="matrix(12,0,0,12,200.5,173.1)" />
<use xlink:href="#f0_n" transform="matrix(12,0,0,12,207.8,173.1)" />
<use xlink:href="#f0_11" transform="matrix(12,0,0,12,43.6,223.5)" />
<use xlink:href="#f0_3" transform="matrix(12,0,0,12,50.9,223.5)" />
<use xlink:href="#f0_12" transform="matrix(12,0,0,12,61.9,223.5)" />
</g>
<image preserveAspectRatio="none" x="44" y="233" width="220" height="160" xlink:href="img/1.png" />
<g fill="#000000" >
<use xlink:href="#f0_11" transform="matrix(12,0,0,12,43.6,416)" />
<use xlink:href="#f0_18" transform="matrix(12,0,0,12,50.9,416)" />
<use xlink:href="#f0_12" transform="matrix(12,0,0,12,62.8,416)" />
</g>
<image preserveAspectRatio="none" x="44" y="425" width="239" height="144" xlink:href="img/2.png" />
<g fill="#000000" >
<use xlink:href="#f0_11" transform="matrix(12,0,0,12,47.4,594.3)" />
<use xlink:href="#f0_o" transform="matrix(12,0,0,12,54.7,594.3)" />
<use xlink:href="#f0_12" transform="matrix(12,0,0,12,64.3,594.3)" />
</g>
<image preserveAspectRatio="none" x="47" y="603" width="245" height="170" xlink:href="img/3.png" />
<g fill="#000000" >
<use xlink:href="#f0_11" transform="matrix(12,0,0,12,47.4,846.4)" />
<use xlink:href="#f0_a" transform="matrix(12,0,0,12,54.7,846.4)" />
<use xlink:href="#f0_12" transform="matrix(12,0,0,12,66.6,846.4)" />
</g>
<image preserveAspectRatio="none" x="47" y="856" width="219" height="166" xlink:href="img/4.png" />
<g fill="#000000" >
<use xlink:href="#f0_11" transform="matrix(12,0,0,12,47.4,1045)" />
<use xlink:href="#f0_5" transform="matrix(12,0,0,12,54.7,1045)" />
<use xlink:href="#f0_12" transform="matrix(12,0,0,12,65.1,1045)" />
</g>
<image preserveAspectRatio="none" x="47" y="1054" width="294" height="139" xlink:href="img/5.png" />
<g fill="#000000" >
<use xlink:href="#f1_m" transform="matrix(8,0,0,8,785.4,1275.3)" />
<use xlink:href="#f1_r" transform="matrix(8,0,0,8,792.2,1275.3)" />
</g>
<defs>
<path d="M445,385V652c0,0,0,67,0,145c0,0,0,77,9,149c0,0,-9,-18,-24,-49c0,0,-17,-32,-35,-64c0,0,-20,-34,-36,-63c0,0,-17,-31,-26,-44L127,385ZM275,0V81h43c0,0,25,0,49,4c0,0,22,3,40,16c0,0,16,11,26,33c0,0,10,20,10,57v93H20v93l434,714H666V385H825V284H666V191c0,0,0,-37,11,-57c0,0,9,-22,26,-33c0,0,16,-13,40,-16c0,0,22,-4,48,-4h20V0Z" 
id="f0_1h"
transform="scale(0.001,-0.001)" />

<path d="M232,-11c0,0,-26,0,-49,7c0,0,-24,4,-40,19c0,0,-17,13,-27,37c0,0,-10,23,-9,58c0,0,-1,34,9,59c0,0,10,22,27,37c0,0,16,14,40,20c0,0,23,5,49,6c0,0,25,-1,48,-6c0,0,23,-6,40,-20c0,0,16,-15,28,-37c0,0,9,-25,9,-59c0,0,0,-35,-9,-58c0,0,-12,-24,-28,-37C320,15,303,0,280,-4c0,0,-23,-7,-48,-7Z" 
id="f0_n"
transform="scale(0.001,-0.001)" />

<path d="M465,506c8,0,58,0,94,14c0,0,39,14,65,45c0,0,24,30,37,79c0,0,11,48,11,117c0,0,0,60,-10,107c0,0,-11,44,-32,74c0,0,-23,29,-57,44c0,0,-36,14,-87,14H426V506h37c0,0,1,0,2,0ZM43,0V81h64c0,0,16,0,31,4c0,0,14,3,25,13c0,0,9,10,16,30c0,0,5,19,6,53V917c0,0,-1,30,-6,49c0,0,-7,17,-16,28c0,0,-12,9,-26,13c0,0,-15,3,-30,3H43v81H512c0,0,106,0,184,-23c0,0,78,-23,131,-64c0,0,50,-43,76,-102c0,0,26,-61,26,-135c0,0,-1,-69,-24,-132c0,0,-24,-64,-78,-112c0,0,-53,-49,-139,-77c0,0,-87,-29,-210,-29H426V172c0,0,0,-30,7,-47c0,0,6,-20,18,-28c0,0,11,-10,26,-13c0,0,11,-3,26,-3c1,0,3,0,4,0h94V0Z" 
id="f0_15"
transform="scale(0.001,-0.001)" />

<path d="M31,0V81h4c0,0,25,0,48,4c0,0,21,3,37,16c0,0,16,11,25,33c0,0,7,20,8,57V634c0,0,0,33,-8,55c0,0,-8,20,-22,31c0,0,-15,11,-35,15c0,0,-20,3,-45,3H38v81H347L377,700h8c0,0,14,34,33,60c0,0,17,26,43,43c0,0,24,16,59,26c0,0,34,7,81,8c0,0,90,0,132,-31c0,0,43,-33,43,-93c0,0,-1,-71,-51,-109c0,0,-50,-39,-141,-39c0,0,-1,0,-2,0c0,0,-1,32,-4,56c0,0,-4,23,-12,39c0,0,-9,16,-23,24c0,0,-15,8,-36,8c0,0,-28,0,-47,-13c0,0,-20,-14,-33,-34c0,0,-14,-22,-22,-49c0,0,-9,-27,-13,-54c0,0,-6,-28,-6,-52c0,0,0,-25,0,-42V184c0,0,0,-34,9,-54c0,0,7,-22,22,-32c0,0,13,-10,34,-13c0,0,18,-4,41,-4h49V0Z" 
id="f0_6"
transform="scale(0.001,-0.001)" />

<path d="M574,490c0,0,0,58,-6,105c0,0,-8,45,-22,78c0,0,-15,32,-37,49c0,0,-24,17,-56,17c0,0,-65,0,-103,-63c0,0,-38,-64,-38,-186ZM468,-14c0,0,-98,0,-171,27c0,0,-75,28,-125,82c0,0,-50,54,-75,133c0,0,-26,76,-25,177c0,0,-1,107,25,189c0,0,25,80,74,136c0,0,48,53,119,82c0,0,70,26,161,26c0,0,82,0,149,-23c0,0,65,-24,112,-70c0,0,46,-47,71,-115c0,0,25,-69,25,-159V392H308c0,0,0,-77,15,-132c0,0,14,-55,40,-91c0,0,26,-36,63,-53c0,0,37,-17,85,-17c0,0,1,0,2,0c8,0,41,1,71,10c0,0,34,9,61,26c0,0,28,16,48,40c0,0,21,22,34,48c0,0,41,-22,41,-75c0,0,0,-32,-18,-61c0,0,-18,-31,-55,-53C695,34,658,12,602,0c0,0,-57,-14,-134,-14Z" 
id="f0_5"
transform="scale(0.001,-0.001)" />

<path d="M448,99c0,0,45,0,76,20c0,0,29,18,48,57c0,0,17,38,26,98c0,0,7,57,7,137c0,0,0,75,-7,134c0,0,-9,59,-26,99c0,0,-19,39,-48,60c0,0,-31,20,-76,20c0,0,-38,0,-65,-20c0,0,-29,-21,-44,-61c0,0,-17,-40,-25,-98c0,0,-8,-60,-8,-135c0,0,0,-156,33,-233c0,0,31,-78,109,-78ZM386,-14c-1,0,-3,0,-4,0h-1c-7,0,-77,1,-132,24c0,0,-59,24,-98,77c0,0,-40,52,-60,132c0,0,-22,79,-21,189c0,0,-1,110,21,192c0,0,20,80,60,133c0,0,38,53,97,79c0,0,56,25,131,25c0,0,43,0,78,-9c0,0,35,-10,63,-25c0,0,28,-17,49,-39c0,0,21,-22,37,-49h9c0,0,0,42,-6,79c0,0,0,15,0,33c0,0,0,16,-2,31c0,0,-2,14,-2,25c0,0,0,11,0,18v84c0,0,0,32,-10,51c0,0,-10,18,-27,29c0,0,-17,8,-39,12c0,0,-22,3,-48,3H469v81H837V188c0,0,0,-35,10,-56c0,0,10,-22,29,-32c0,0,16,-12,40,-15c0,0,22,-4,48,-4h6V0H674L631,119H617c0,0,-18,-31,-39,-56c0,0,-23,-25,-51,-41C527,22,498,4,463,-4c0,0,-34,-10,-77,-10Z" 
id="f0_a"
transform="scale(0.001,-0.001)" />

<path d="M26,0V81H44c0,0,16,0,37,4c0,0,17,3,35,13c0,0,15,10,26,30c0,0,10,19,11,53V645c0,0,-1,29,-11,49c0,0,-11,18,-27,28c0,0,-17,9,-35,13c0,0,-20,3,-36,3H26v81H385V181c0,0,0,-34,11,-53c0,0,10,-20,27,-30c0,0,16,-10,35,-13c0,0,19,-4,36,-4h18V0ZM261,956c0,0,-28,0,-51,7c0,0,-24,7,-41,20c0,0,-18,13,-27,35c0,0,-11,20,-11,49c0,0,0,28,11,50c0,0,9,21,27,34c0,0,17,12,41,19c0,0,23,6,51,6c0,0,25,0,50,-6c0,0,23,-7,42,-19c0,0,18,-13,29,-34c0,0,10,-22,10,-50c0,0,0,-29,-10,-49c0,0,-11,-22,-29,-35c0,0,-19,-13,-42,-20c0,0,-25,-7,-50,-7Z" 
id="f0_7"
transform="scale(0.001,-0.001)" />

<path d="M451,-14c0,0,-85,0,-154,21c0,0,-71,21,-120,71c0,0,-51,50,-78,131c0,0,-28,80,-27,198c0,0,0,123,29,206c0,0,27,82,79,133c0,0,50,50,118,72c0,0,68,20,148,20c0,0,73,0,131,-11c0,0,56,-14,94,-35c0,0,38,-21,59,-50c0,0,18,-31,19,-64c0,0,-1,-25,-8,-48c0,0,-10,-24,-31,-41c0,0,-22,-18,-60,-30c0,0,-40,-11,-99,-11c0,0,0,39,-4,76c0,0,-6,35,-17,62c0,0,-11,26,-29,44c0,0,-20,15,-49,15c0,0,-34,0,-60,-15c0,0,-26,-18,-45,-56c0,0,-20,-39,-29,-103c0,0,-11,-66,-11,-163c0,0,0,-156,43,-232c0,0,42,-77,137,-77q1,0,2,0h1c8,0,42,1,73,10c0,0,35,9,63,26c0,0,27,16,50,40c0,0,21,22,34,48c0,0,19,-11,28,-30c0,0,9,-19,9,-40c0,0,-1,-29,-17,-59c0,0,-18,-31,-53,-54C677,40,639,15,584,1c0,0,-57,-15,-133,-15Z" 
id="f0_o"
transform="scale(0.001,-0.001)" />

<path d="M371,-14c0,0,-52,0,-93,13c0,0,-42,11,-71,40c0,0,-29,27,-44,74c0,0,-16,46,-16,113V715H32v78c0,0,49,0,88,19c0,0,38,19,62,45c0,0,46,49,70,152H379V819H574V715H379V242c0,0,0,-70,24,-102c0,0,22,-32,75,-32c0,0,1,0,2,0c0,0,29,0,57,5c0,0,27,3,51,9V23c0,0,-13,-6,-32,-13C556,10,534,4,508,0c0,0,-28,-7,-62,-10c0,0,-35,-4,-75,-4Z" 
id="f0_4"
transform="scale(0.001,-0.001)" />

<path d="M31,0V81h3c0,0,25,0,47,4c0,0,21,3,38,14c0,0,16,11,25,32c0,0,9,20,9,55V987c0,0,-1,30,-11,49c0,0,-11,18,-27,29c0,0,-17,8,-35,12c0,0,-20,3,-36,3H26v81H383V909c0,0,0,-30,0,-64c0,0,0,-35,-3,-63c0,0,-4,-35,-7,-67h13c0,0,24,43,50,68c0,0,25,24,54,37c0,0,29,12,62,16c0,0,32,2,68,2c0,0,59,0,106,-17c0,0,47,-17,80,-53c0,0,32,-36,49,-91c0,0,16,-56,17,-133V189c0,0,0,-35,7,-56c0,0,5,-22,18,-33c0,0,12,-12,33,-15c0,0,18,-4,45,-4h4V0H640V503c0,0,-1,48,-6,88c0,0,-7,38,-21,64c0,0,-15,25,-38,40c0,0,-24,14,-57,14c0,0,-38,-1,-64,-20c0,0,-26,-19,-40,-51c0,0,-16,-33,-22,-76c0,0,-7,-44,-7,-90V181c0,0,0,-33,8,-52c0,0,7,-20,22,-30c0,0,13,-11,35,-14c0,0,19,-4,45,-4h5V0Z" 
id="f0_v"
transform="scale(0.001,-0.001)" />

<path d="M469,81c0,0,43,0,75,22c0,0,30,21,49,63c0,0,19,41,27,103c0,0,7,61,8,144c0,0,-1,81,-8,144c0,0,-9,60,-28,102c0,0,-20,40,-50,62c0,0,-31,20,-74,20c0,0,-45,0,-75,-20c0,0,-30,-22,-49,-62c0,0,-19,-42,-27,-102c0,0,-8,-63,-8,-144c0,0,0,-83,9,-144c0,0,7,-62,27,-103c0,0,19,-42,50,-63c0,0,29,-22,74,-22Zm-1,-95c0,0,-1,0,-2,0c0,0,-92,0,-165,26c0,0,-73,25,-123,79c0,0,-52,52,-79,134c0,0,-28,80,-27,188c0,0,-1,215,101,320c0,0,101,105,298,105c0,0,91,0,165,-26c0,0,72,-26,123,-79c0,0,50,-53,79,-132c0,0,27,-81,27,-188c0,0,0,-217,-101,-322C764,91,662,-14,468,-14Z" 
id="f0_b"
transform="scale(0.001,-0.001)" />

<path d="M31,0V81h3c0,0,25,0,47,4c0,0,21,3,38,14c0,0,16,11,25,32c0,0,9,20,9,55V639c0,0,0,32,-8,51c0,0,-8,19,-22,31c0,0,-15,9,-35,14c0,0,-20,3,-45,3H38v81H359L379,710h7c0,0,24,43,50,69c0,0,25,25,54,39c0,0,29,13,62,17c0,0,32,3,68,3c0,0,59,0,106,-17c0,0,47,-17,80,-53c0,0,32,-36,49,-91c0,0,16,-56,17,-133V189c0,0,0,-35,7,-56c0,0,5,-22,18,-33c0,0,12,-12,33,-15c0,0,18,-4,45,-4h4V0H640V503c0,0,-1,48,-6,88c0,0,-7,38,-21,64c0,0,-15,25,-38,40c0,0,-24,14,-57,14c0,0,-38,-1,-64,-20c0,0,-26,-19,-40,-51c0,0,-16,-33,-22,-76c0,0,-7,-44,-7,-90V181c0,0,0,-33,8,-52c0,0,7,-20,22,-30c0,0,13,-11,35,-14c0,0,19,-4,45,-4h5V0Z" 
id="f0_d"
transform="scale(0.001,-0.001)" />

<path d="M29,0V81H63c0,0,16,0,35,4c0,0,18,3,36,13c0,0,15,10,26,30c0,0,10,19,11,53V715H35V819H171v57c0,0,-1,70,18,127c0,0,18,54,57,94c0,0,37,38,97,58c0,0,59,20,140,20c0,0,74,-1,123,-8c0,0,49,-10,78,-24c0,0,29,-16,42,-36c0,0,12,-21,12,-44c0,0,-1,-52,-46,-75c0,0,-47,-24,-142,-24c0,0,-1,18,-4,40c0,0,-4,21,-13,40c0,0,-9,19,-23,32c0,0,-15,12,-36,12c0,0,-20,0,-32,-10c0,0,-15,-11,-22,-32c0,0,-10,-23,-13,-58c0,0,-3,-35,-3,-85V819H614V715H404V181c0,0,0,-34,11,-53c0,0,9,-20,27,-30c0,0,15,-10,35,-13c0,0,18,-4,35,-4h71V0Z" 
id="f0_e"
transform="scale(0.001,-0.001)" />

<path d="M394,-14c0,0,-120,0,-183,73c0,0,-64,74,-64,228V630c0,0,-1,32,-6,54c0,0,-7,20,-19,33c0,0,-13,12,-32,16c0,0,-20,5,-47,5H40v81H379V330c0,0,0,-50,6,-89c0,0,5,-40,19,-67c0,0,13,-29,35,-43c0,0,23,-16,56,-16c0,0,1,0,1,0c5,0,38,1,63,16c0,0,25,16,43,47c0,0,16,29,25,73c0,0,7,42,7,96V640c0,0,0,34,-9,53c0,0,-10,19,-24,30c0,0,-15,9,-35,13c0,0,-20,2,-42,2h-5v81H866V178c0,0,0,-34,8,-53c0,0,8,-19,21,-29c0,0,13,-10,32,-12c0,0,16,-3,35,-3c2,0,4,0,6,0h13V0H677L643,108h-7c0,0,-24,-40,-50,-63C586,45,558,19,528,7C528,7,498,-5,464,-9c0,0,-35,-5,-70,-5Z" 
id="f0_m"
transform="scale(0.001,-0.001)" />

<path d="M357,-14c-1,0,-3,0,-4,0c0,0,-83,0,-141,14c0,0,-60,12,-96,36c0,0,-37,23,-53,57c0,0,-17,32,-17,70c0,0,0,37,14,61c0,0,15,22,37,35c0,0,21,12,46,17c0,0,25,3,45,4c0,0,-1,-49,12,-86c0,0,12,-39,33,-64c0,0,21,-27,53,-41c0,0,28,-14,64,-14c1,0,2,0,3,0c0,0,39,0,68,8c0,0,28,7,47,23c0,0,18,14,27,34c0,0,9,17,9,39c0,0,0,25,-9,46c0,0,-10,18,-31,37c0,0,-22,16,-57,34c0,0,-38,16,-91,35c0,0,-62,21,-109,46c0,0,-48,24,-79,56c0,0,-33,30,-50,71c0,0,-17,38,-17,91c0,0,0,60,24,106c0,0,22,46,66,76c0,0,44,30,104,45c0,0,61,14,134,15c0,0,73,0,123,-12c0,0,50,-13,83,-33c0,0,32,-20,47,-45c0,0,14,-26,15,-52c0,0,0,-51,-36,-78c0,0,-37,-27,-120,-27c0,0,0,76,-33,119c0,0,-35,41,-101,41c0,0,-25,0,-47,-6c0,0,-24,-5,-40,-17c0,0,-17,-13,-26,-30c0,0,-11,-18,-11,-41c0,0,-1,-26,10,-44c0,0,9,-20,33,-37c0,0,23,-18,63,-36c0,0,40,-18,103,-39c0,0,50,-18,94,-40c0,0,43,-24,74,-53c0,0,30,-30,48,-67c0,0,16,-39,17,-86c0,0,-1,-65,-22,-114c0,0,-22,-50,-65,-84C598,56,555,21,494,4c0,0,-60,-18,-137,-18Z" 
id="f0_s"
transform="scale(0.001,-0.001)" />

<path d="M392,96c0,0,32,0,60,14c0,0,25,13,46,38c0,0,18,26,29,62c0,0,9,35,9,79V403H468c0,0,-47,-1,-77,-13c0,0,-31,-13,-50,-34c0,0,-19,-22,-27,-53c0,0,-8,-33,-8,-74c0,0,-1,-67,21,-100c0,0,21,-33,65,-33ZM314,-14c-2,0,-3,0,-5,0c0,0,-51,0,-94,14c0,0,-44,15,-76,46c0,0,-33,32,-52,79c0,0,-19,47,-18,111c0,0,-1,125,85,185c0,0,85,61,257,61H536v86c0,0,0,38,-3,71c0,0,-3,32,-12,57c0,0,-11,23,-29,37c0,0,-19,11,-50,12c0,0,-30,0,-49,-12c0,0,-20,-13,-32,-34c0,0,-13,-22,-16,-52c0,0,-6,-31,-6,-67h-1c-11,0,-105,1,-153,24c0,0,-53,23,-52,79c0,0,-1,41,25,71c0,0,24,29,68,49c0,0,43,18,100,27c0,0,57,8,122,8c0,0,80,0,141,-13c0,0,59,-15,100,-45c0,0,38,-30,59,-80c0,0,20,-50,20,-121V189c0,0,0,-31,6,-52c0,0,4,-21,15,-33c0,0,9,-12,28,-17c0,0,15,-6,39,-6c1,0,3,0,4,0h6V0H582L550,105H536c0,0,-26,-30,-47,-53c0,0,-23,-24,-48,-38C441,14,415,0,384,-6c0,0,-30,-8,-70,-8Z" 
id="f0_3"
transform="scale(0.001,-0.001)" />

<path d="M540,99c1,0,2,0,2,0c3,0,76,1,109,82c0,0,34,81,34,233c0,0,0,155,-34,234c0,0,-33,76,-110,76c0,0,-46,0,-76,-18c0,0,-30,-20,-47,-58c0,0,-18,-40,-26,-97c0,0,-8,-60,-7,-138c0,0,-1,-76,7,-134c0,0,8,-60,26,-98c0,0,18,-41,48,-61c0,0,29,-21,74,-21ZM610,-14c-1,0,-2,0,-4,0h-1c-9,0,-47,1,-78,10c0,0,-37,8,-64,26c0,0,-30,18,-51,43c0,0,-23,24,-39,54H359L316,0H26V81H37c0,0,20,0,42,4c0,0,20,3,37,15c0,0,17,10,27,32c0,0,10,21,10,56V978c0,0,0,32,-10,53c0,0,-10,19,-26,31c0,0,-17,11,-38,14c0,0,-22,3,-47,4H26v81H383V900c0,0,0,-24,0,-56c0,0,0,-33,-3,-61c0,0,-4,-34,-7,-68h10c0,0,33,56,88,89c0,0,55,32,141,33c0,0,75,0,132,-25c0,0,57,-26,97,-76c0,0,39,-53,59,-132c0,0,20,-81,20,-191c0,0,0,-112,-20,-192c0,0,-22,-81,-61,-133c0,0,-39,-53,-97,-78c0,0,-59,-24,-132,-24Z" 
id="f0_18"
transform="scale(0.001,-0.001)" />

<path d="M41,-366v89c0,0,79,0,136,19c0,0,55,19,95,55c0,0,38,35,64,86c0,0,24,50,43,111L104,665c0,0,-9,21,-20,34c0,0,-12,12,-24,19c0,0,-14,7,-28,9c0,0,-16,1,-32,2v90H436V738c0,0,-45,0,-70,-11c0,0,-27,-13,-27,-46c0,0,0,-13,6,-30c0,0,5,-18,9,-29c0,0,14,-33,29,-69c0,0,13,-39,28,-76c0,0,13,-38,26,-73c0,0,12,-35,23,-62c0,0,10,-29,18,-52c0,0,7,-24,13,-42c0,0,4,-20,7,-35c0,0,3,-18,5,-32c0,0,1,15,6,35c0,0,3,18,9,36c0,0,5,17,11,31c0,0,5,14,7,20L637,602c0,0,2,7,6,18c0,0,2,10,5,20c0,0,2,10,3,20c0,0,1,10,1,17c0,0,0,34,-29,48c0,0,-30,12,-82,13v81H885V738c0,0,-24,0,-41,-5c0,0,-17,-6,-32,-18c0,0,-15,-14,-26,-35c0,0,-12,-21,-24,-53c0,0,-26,-76,-56,-156c0,0,-29,-79,-58,-158c0,0,-30,-80,-59,-158C589,155,559,75,532,0c0,0,-28,-73,-51,-129c0,0,-24,-56,-50,-97c0,0,-27,-42,-59,-68c0,0,-33,-27,-74,-42c0,0,-43,-17,-99,-23c0,0,-57,-7,-132,-7Z" 
id="f0_g"
transform="scale(0.001,-0.001)" />

<path d="M26,0V81H44c0,0,16,0,37,4c0,0,17,3,35,13c0,0,15,10,26,30c0,0,10,19,11,53V987c0,0,-1,30,-11,49c0,0,-11,18,-27,29c0,0,-17,8,-35,12c0,0,-20,3,-36,3H26v81H385V181c0,0,0,-34,11,-53c0,0,10,-20,27,-30c0,0,16,-10,35,-13c0,0,19,-4,36,-4h18V0Z" 
id="f0_8"
transform="scale(0.001,-0.001)" />

<path d="M304,0L108,657c0,0,-8,23,-18,40c0,0,-10,15,-22,24c0,0,-13,9,-29,13c0,0,-17,3,-39,4H-3v81H443V738H423c0,0,-46,-1,-69,-13c0,0,-24,-13,-23,-51c0,0,0,-13,5,-31c0,0,3,-19,8,-35L401,410c0,0,7,-29,14,-57c0,0,6,-29,12,-57c0,0,6,-28,12,-52c0,0,3,-25,7,-44h5c0,0,6,37,18,79c0,0,11,40,31,97L656,811h99L904,360c0,0,19,-55,27,-93c0,0,7,-39,13,-67h5c0,0,3,19,7,36c0,0,3,17,9,36c0,0,4,19,10,41c0,0,5,21,15,50l67,223c0,0,5,19,11,42c0,0,2,22,3,35c0,0,0,39,-24,57c0,0,-26,18,-77,18H959v81h350V738h-19c0,0,-23,0,-39,-5c0,0,-17,-5,-29,-17c0,0,-13,-13,-24,-36c0,0,-11,-25,-23,-62L978,0H813L646,507L471,0Z" 
id="f0_c"
transform="scale(0.001,-0.001)" />

<path d="M364,-274c9,0,135,0,195,39c0,0,61,38,61,114c0,0,-1,47,-31,68c0,0,-31,18,-92,19H319c0,0,-24,-1,-47,-4c0,0,-24,-5,-43,-17c0,0,-21,-13,-33,-35c0,0,-12,-24,-12,-60c0,0,0,-65,46,-94c0,0,45,-30,133,-30h1Zm28,653c0,0,30,0,51,13c0,0,20,12,32,35c0,0,11,24,17,57c0,0,5,32,5,74c0,0,0,43,-5,78c0,0,-6,34,-18,59c0,0,-12,23,-32,38c0,0,-21,14,-51,14c0,0,-31,0,-50,-14c0,0,-20,-15,-32,-40c0,0,-13,-26,-18,-60c0,0,-6,-36,-5,-77c0,0,0,-41,6,-73c0,0,5,-32,18,-56c0,0,12,-23,32,-35c0,0,20,-13,50,-13ZM366,-366c-2,0,-4,0,-6,0c-9,0,-183,1,-268,54c0,0,-89,54,-89,159c0,0,0,81,53,126c0,0,52,42,154,50c0,0,-22,8,-41,20c0,0,-21,12,-36,29c0,0,-16,17,-26,38c0,0,-10,21,-9,49c0,0,0,25,10,47c0,0,10,21,28,42c0,0,17,18,43,37c0,0,24,16,54,34c0,0,-34,12,-61,34c0,0,-30,20,-50,51c0,0,-21,29,-32,67c0,0,-13,39,-12,85c0,0,0,133,78,209c0,0,77,73,241,73c0,0,54,0,101,-13c0,0,46,-15,81,-34c0,0,12,14,28,30c0,0,14,14,35,27c0,0,18,12,43,21c0,0,23,8,53,8c0,0,27,0,48,-6c0,0,20,-9,35,-20c0,0,12,-13,20,-27c0,0,7,-16,7,-34c0,0,0,-17,-5,-33c0,0,-6,-17,-17,-28c0,0,-13,-13,-34,-19c0,0,-20,-7,-49,-7c-1,0,-2,0,-4,0c0,0,0,15,-4,27c0,0,-6,12,-14,20c0,0,-9,8,-18,13c0,0,-11,3,-22,4c0,0,-13,0,-27,-5c0,0,-15,-6,-23,-12c0,0,16,-17,29,-38c0,0,14,-23,24,-48c0,0,10,-25,16,-52c0,0,5,-27,6,-56c0,0,0,-58,-18,-106c0,0,-20,-49,-57,-84c0,0,-38,-36,-96,-56c0,0,-59,-21,-138,-21H351c0,0,-13,0,-24,2c0,0,-13,1,-18,2c0,0,-11,-6,-20,-13c0,0,-10,-8,-17,-17c0,0,-9,-11,-13,-22c0,0,-6,-13,-5,-25c0,0,0,-27,20,-38c0,0,17,-12,48,-12c1,0,2,0,3,0H510c0,0,76,0,132,-15c0,0,54,-17,91,-47c0,0,36,-30,53,-73c0,0,17,-43,17,-97c0,0,0,-72,-26,-126c0,0,-27,-56,-82,-94c0,0,-55,-40,-138,-59c0,0,-81,-21,-191,-21Z" 
id="f0_l"
transform="scale(0.001,-0.001)" />

<path d="M43,0V81h64c0,0,1,0,3,0c6,0,17,1,27,3c0,0,14,3,26,13c0,0,9,8,16,28c0,0,5,17,6,47V917c0,0,-1,30,-6,49c0,0,-7,17,-16,28c0,0,-12,9,-26,13c0,0,-15,3,-30,3H43v81H893V809H790l-7,74c0,0,-9,61,-37,88c0,0,-31,26,-77,26H426V580H789V490H426V181c0,0,0,-34,7,-53c0,0,5,-20,16,-30c0,0,10,-10,25,-13c0,0,15,-4,32,-4h95V0Z" 
id="f0_1m"
transform="scale(0.001,-0.001)" />

<path d="M452,86c0,0,58,0,93,60c0,0,34,59,34,192c0,0,-1,124,-37,181c0,0,-38,57,-103,57c0,0,-22,-1,-44,-6c0,0,-24,-8,-44,-17c0,0,-23,-11,-39,-23c0,0,-18,-14,-28,-27c0,0,0,-110,14,-189c0,0,12,-80,35,-130c0,0,23,-51,53,-74c0,0,30,-24,66,-24ZM448,-14c0,0,-85,0,-155,30c0,0,-71,30,-119,95c0,0,-51,64,-78,162c0,0,-28,97,-27,231c0,0,0,126,26,236c0,0,26,109,81,191c0,0,54,81,136,128c0,0,81,47,192,47c0,0,74,0,126,-14c0,0,50,-15,83,-37c0,0,32,-24,47,-54c0,0,14,-31,14,-63c0,0,0,-24,-9,-45c0,0,-11,-22,-32,-38c0,0,-21,-17,-56,-26c0,0,-33,-10,-80,-10c-2,0,-4,0,-5,0c0,0,0,34,-5,69c0,0,-4,35,-16,64c0,0,-11,27,-31,46c0,0,-20,18,-51,18c0,0,-45,0,-81,-27c0,0,-37,-27,-63,-78c0,0,-27,-52,-43,-126c0,0,-16,-76,-16,-173c0,0,16,10,36,21c0,0,20,10,46,18c0,0,25,8,58,14c0,0,31,4,71,4c0,0,68,-1,125,-21c0,0,55,-22,96,-62c0,0,38,-42,61,-100c0,0,21,-59,21,-133c0,0,0,-82,-22,-149c0,0,-23,-69,-66,-117C712,87,667,39,601,12c0,0,-66,-26,-153,-26Z" 
id="f0_y"
transform="scale(0.001,-0.001)" />

<path d="M148,0V81H274c0,0,1,0,2,0c5,0,19,1,31,6c0,0,14,4,24,15c0,0,10,11,14,31c0,0,5,18,5,48V946c0,0,-29,-36,-55,-65c0,0,-26,-29,-50,-50c0,0,-23,-22,-46,-32c0,0,-22,-12,-44,-12q-1,0,-2,0c0,0,-19,0,-34,8c0,0,-18,8,-29,23c0,0,-12,14,-18,35c0,0,-9,21,-8,47c0,0,23,5,49,15c0,0,25,7,54,22c0,0,28,13,61,34c0,0,32,18,71,47l108,79H577V181c0,0,0,-24,4,-43c0,0,3,-19,12,-31c0,0,8,-14,24,-19c0,0,14,-7,39,-7H779V0Z" 
id="f0_p"
transform="scale(0.001,-0.001)" />

<path d="M425,72c6,0,41,0,71,14c0,0,31,13,54,39c0,0,21,26,34,61c0,0,12,34,12,77c0,0,-1,36,-13,67c0,0,-12,30,-39,57c0,0,-29,26,-70,52c0,0,-42,24,-101,51c0,0,-26,-17,-48,-37c0,0,-22,-23,-38,-48c0,0,-17,-28,-25,-60c0,0,-11,-32,-10,-73c0,0,0,-44,13,-81c0,0,11,-38,35,-63c0,0,22,-27,54,-41c0,0,31,-15,70,-15c0,0,1,0,1,0Zm36,571c0,0,28,16,49,35c0,0,20,19,33,43c0,0,12,23,19,53c0,0,6,29,6,67c0,0,0,33,-9,65c0,0,-10,32,-27,56c0,0,-19,25,-44,41c0,0,-28,14,-62,15c0,0,-32,-1,-55,-13c0,0,-25,-14,-41,-36c0,0,-17,-24,-25,-54c0,0,-9,-32,-9,-68c0,0,0,-40,11,-70c0,0,10,-30,32,-53c0,0,21,-24,51,-43c0,0,30,-19,71,-38ZM422,-14c-2,0,-3,0,-5,0h-1c-10,0,-99,1,-165,22c0,0,-70,23,-115,63c0,0,-47,39,-68,93c0,0,-22,54,-22,114c0,0,-1,49,16,89c0,0,15,39,45,72c0,0,30,32,72,60c0,0,40,26,91,52c0,0,-92,53,-139,120c0,0,-50,68,-50,157c0,0,0,52,19,104c0,0,18,49,60,89c0,0,41,38,109,62c0,0,68,23,167,23c0,0,79,0,141,-20c0,0,60,-20,102,-56c0,0,40,-36,62,-84c0,0,20,-49,20,-108c0,0,0,-46,-14,-80c0,0,-15,-36,-42,-63c0,0,-27,-30,-65,-54c0,0,-38,-25,-86,-49c0,0,68,-34,117,-68c0,0,48,-35,79,-70c0,0,30,-38,44,-78c0,0,14,-42,14,-87c0,0,-1,-73,-26,-129c0,0,-27,-57,-77,-95C705,65,654,25,582,6c0,0,-71,-20,-160,-20Z" 
id="f0_r"
transform="scale(0.001,-0.001)" />

<path d="M562,-212c0,0,-127,52,-217,121c0,0,-91,68,-147,155c0,0,-58,87,-84,193c0,0,-27,104,-27,229c0,0,0,123,27,228c0,0,26,104,84,191c0,0,56,86,147,155c0,0,90,68,217,119v-96c0,0,-70,-47,-115,-112c0,0,-45,-66,-70,-143c0,0,-26,-78,-35,-164c0,0,-10,-88,-9,-178c0,0,-1,-91,9,-179c0,0,9,-88,35,-165c0,0,25,-79,70,-143c0,0,45,-67,115,-113v-98Z" 
id="f0_11"
transform="scale(0.001,-0.001)" />

<path d="M49,-212v98c0,0,70,46,116,113c0,0,44,64,70,143c0,0,24,77,34,165c0,0,9,88,9,179c0,0,0,90,-9,178c0,0,-10,86,-34,164c0,0,-26,77,-70,143c0,0,-46,65,-116,112v96c0,0,127,-51,218,-119c0,0,90,-69,148,-155c0,0,56,-87,83,-191c0,0,25,-105,26,-228c0,0,-1,-125,-26,-229c0,0,-27,-106,-83,-193c0,0,-58,-87,-148,-155c0,0,-91,-69,-218,-121Z" 
id="f0_12"
transform="scale(0.001,-0.001)" />

<path d="M46,0c0,0,-2,48,16,93c0,0,27,74,88,146c0,0,61,71,176,165c0,0,178,146,241,232c0,0,63,85,63,161c0,0,0,80,-57,135c0,0,-58,55,-149,55c0,0,-98,0,-156,-59c0,0,-58,-58,-59,-160L71,782c0,0,15,154,107,235c0,0,93,81,249,81c0,0,157,0,249,-87c0,0,92,-88,92,-217c0,0,0,-65,-27,-129c0,0,-27,-63,-89,-133c0,0,-62,-70,-207,-193C445,339,324,238,290,202c0,0,-35,-36,-57,-73H770V0Z" 
id="f1_m"
transform="scale(0.001,-0.001)" />

<path d="M225,0c0,0,2,129,51,312c0,0,48,183,139,352c0,0,91,170,193,286H72v129H780V975C780,975,676,864,573,680C573,680,470,495,414,301C414,301,374,163,363,0Z" 
id="f1_r"
transform="scale(0.001,-0.001)" />


</defs>
</svg>