<?xml version="1.0" encoding="UTF-8" standalone="no"?>
<!DOCTYPE svg PUBLIC "-//W3C//DTD SVG 1.1//EN"
"http://www.w3.org/Graphics/SVG/1.1/DTD/svg11.dtd">
<svg viewBox="0 0 909 1286" version="1.1" xmlns="http://www.w3.org/2000/svg" xmlns:xlink="http://www.w3.org/1999/xlink">
<defs>
<clipPath id="c0_49"><path d="M55.2,622.1V523.8H219.9v98.3Z" /></clipPath>
<clipPath id="c1_49"><path d="M261.6,672.6V623.9h55.2v48.7Z" /></clipPath>
<style type="text/css"><![CDATA[
.g0_49{
fill: #D9D9D9;
}
.g1_49{
fill: none;
stroke: #000000;
stroke-width: 0.7638889;
stroke-linecap: butt;
stroke-linejoin: miter;
}
.g2_49{
fill: none;
stroke: #000000;
stroke-width: 0.913907;
stroke-linecap: butt;
stroke-linejoin: round;
}
.g3_49{
fill: none;
stroke: #000000;
stroke-width: 0.89428276;
stroke-linecap: butt;
stroke-linejoin: round;
}
.g4_49{
}
]]></style>
</defs>
<image preserveAspectRatio="none" x="747" y="1196" width="96" height="59" xlink:href="img/1.png" />
<image preserveAspectRatio="none" x="336" y="41" width="259" height="51" xlink:href="img/2.png" />
<image preserveAspectRatio="none" x="342" y="50" width="247" height="27" xlink:href="img/3.png" />
<image preserveAspectRatio="none" x="341" y="45" width="239" height="42" xlink:href="img/4.png" />
<g fill="#FFFFFF" >
<use xlink:href="#f0_j" transform="matrix(11.5,0,0,11.5,355.1,70.1)" />
<use xlink:href="#f0_i" transform="matrix(11.5,0,0,11.5,364.3,70.1)" />
<use xlink:href="#f0_2n" transform="matrix(11.5,0,0,11.5,374.1,70.1)" />
<use xlink:href="#f0_t" transform="matrix(11.5,0,0,11.5,382.6,70.1)" />
<use xlink:href="#f0_oj" transform="matrix(11.5,0,0,11.5,391,70.1)" />
<use xlink:href="#f0_3e" transform="matrix(11.5,0,0,11.5,396.5,70.1)" />
<use xlink:href="#f0_1c" transform="matrix(11.5,0,0,11.5,406.1,70.1)" />
<use xlink:href="#f0_1c" transform="matrix(11.5,0,0,11.5,410.8,70.1)" />
<use xlink:href="#f0_oj" transform="matrix(11.5,0,0,11.5,415.6,70.1)" />
<use xlink:href="#f0_rz" transform="matrix(11.5,0,0,11.5,421.1,70.1)" />
<use xlink:href="#f0_rx" transform="matrix(11.5,0,0,11.5,429.9,70.1)" />
<use xlink:href="#f0_ry" transform="matrix(11.5,0,0,11.5,438.7,70.1)" />
<use xlink:href="#f0_s4" transform="matrix(11.5,0,0,11.5,447.5,70.1)" />
<use xlink:href="#f0_t" transform="matrix(11.5,0,0,11.5,460.4,70.1)" />
<use xlink:href="#f0_3e" transform="matrix(11.5,0,0,11.5,468.8,70.1)" />
<use xlink:href="#f0_5" transform="matrix(11.5,0,0,11.5,478.3,70.1)" />
<use xlink:href="#f0_1x" transform="matrix(11.5,0,0,11.5,489,70.1)" />
<use xlink:href="#f0_1c" transform="matrix(11.5,0,0,11.5,504.4,70.1)" />
<use xlink:href="#f0_1y" transform="matrix(11.5,0,0,11.5,509.1,70.1)" />
<use xlink:href="#f0_5" transform="matrix(11.5,0,0,11.5,520.8,70.1)" />
<use xlink:href="#f0_2t" transform="matrix(11.5,0,0,11.5,531.5,70.1)" />
<use xlink:href="#f0_1c" transform="matrix(11.5,0,0,11.5,540.2,70.1)" />
<use xlink:href="#f0_24" transform="matrix(11.5,0,0,11.5,545,70.1)" />
<use xlink:href="#f0_1y" transform="matrix(11.5,0,0,11.5,556.7,70.1)" />
</g>
<image preserveAspectRatio="none" x="554" y="45" width="36" height="42" xlink:href="img/5.png" />
<g fill="#FFFFFF" >
<use xlink:href="#f1_m" transform="matrix(11,0,0,11,770.3,1227.6)" />
<use xlink:href="#f1_o" transform="matrix(11,0,0,11,779.1,1227.6)" />
<use xlink:href="#f1_j" transform="matrix(11,0,0,11,792.3,1227.6)" />
<use xlink:href="#f1_m" transform="matrix(11,0,0,11,802.9,1227.6)" />
<use xlink:href="#f1_s" transform="matrix(11,0,0,11,811.7,1227.6)" />
</g>
<path fill-rule="evenodd" d="M52.8,1193.5H856.9v-.8H52.8v.8Z" class="g0_49" />
<path d="M37.9,99.4L873,98.5" class="g1_49" />
<g fill="#000000" >
<use xlink:href="#f2_1c" transform="matrix(12,0,0,12,55,465.8)" />
<use xlink:href="#f2_21" transform="matrix(12,0,0,12,66,465.8)" />
<use xlink:href="#f2_2g" transform="matrix(12,0,0,12,74.1,465.8)" />
<use xlink:href="#f2_1x" transform="matrix(12,0,0,12,84.3,465.8)" />
<use xlink:href="#f2_2g" transform="matrix(12,0,0,12,92,465.8)" />
<use xlink:href="#f2_1x" transform="matrix(12,0,0,12,102.3,465.8)" />
<use xlink:href="#f2_2a" transform="matrix(12,0,0,12,110.3,465.8)" />
<use xlink:href="#f2_2l" transform="matrix(12,0,0,12,119.5,465.8)" />
<use xlink:href="#f2_25" transform="matrix(12,0,0,12,133,465.8)" />
<use xlink:href="#f2_2a" transform="matrix(12,0,0,12,137.8,465.8)" />
<use xlink:href="#f2_2f" transform="matrix(12,0,0,12,147,465.8)" />
<use xlink:href="#f2_2g" transform="matrix(12,0,0,12,153.9,465.8)" />
<use xlink:href="#f2_1x" transform="matrix(12,0,0,12,159.4,465.8)" />
<use xlink:href="#f2_2a" transform="matrix(12,0,0,12,167.5,465.8)" />
<use xlink:href="#f2_2g" transform="matrix(12,0,0,12,176.3,465.8)" />
<use xlink:href="#f2_2g" transform="matrix(12,0,0,12,186.2,465.8)" />
<use xlink:href="#f2_2b" transform="matrix(12,0,0,12,191.3,465.8)" />
<use xlink:href="#f2_2g" transform="matrix(12,0,0,12,200.4,465.8)" />
<use xlink:href="#f2_1x" transform="matrix(12,0,0,12,206,465.8)" />
<use xlink:href="#f2_28" transform="matrix(12,0,0,12,214,465.8)" />
<use xlink:href="#f2_29" transform="matrix(12,0,0,12,223.5,465.8)" />
<use xlink:href="#f2_1x" transform="matrix(12,0,0,12,237.5,465.8)" />
<use xlink:href="#f2_23" transform="matrix(12,0,0,12,245.5,465.8)" />
<use xlink:href="#f2_2a" transform="matrix(12,0,0,12,255.1,465.8)" />
<use xlink:href="#f2_21" transform="matrix(12,0,0,12,263.9,465.8)" />
<use xlink:href="#f2_2g" transform="matrix(12,0,0,12,271.9,465.8)" />
<use xlink:href="#f2_25" transform="matrix(12,0,0,12,277.8,465.8)" />
<use xlink:href="#f2_1z" transform="matrix(12,0,0,12,282.2,465.8)" />
<use xlink:href="#f2_22" transform="matrix(12,0,0,12,295.3,465.8)" />
<use xlink:href="#f2_28" transform="matrix(12,0,0,12,301.2,465.8)" />
<use xlink:href="#f2_2h" transform="matrix(12,0,0,12,306,465.8)" />
<use xlink:href="#f2_2k" transform="matrix(12,0,0,12,315.5,465.8)" />
<use xlink:href="#f2_28" transform="matrix(12,0,0,12,329.4,465.8)" />
<use xlink:href="#f2_25" transform="matrix(12,0,0,12,334.2,465.8)" />
<use xlink:href="#f2_2a" transform="matrix(12,0,0,12,338.9,465.8)" />
<use xlink:href="#f2_27" transform="matrix(12,0,0,12,348.1,465.8)" />
<use xlink:href="#f2_2j" transform="matrix(12,0,0,12,362,465.8)" />
<use xlink:href="#f2_25" transform="matrix(12,0,0,12,375.6,465.8)" />
<use xlink:href="#f2_2g" transform="matrix(12,0,0,12,380,465.8)" />
<use xlink:href="#f2_24" transform="matrix(12,0,0,12,385.5,465.8)" />
<use xlink:href="#f2_2g" transform="matrix(12,0,0,12,399,465.8)" />
<use xlink:href="#f2_24" transform="matrix(12,0,0,12,404.5,465.8)" />
<use xlink:href="#f2_21" transform="matrix(12,0,0,12,413.3,465.8)" />
<use xlink:href="#f2_1x" transform="matrix(12,0,0,12,426.1,465.8)" />
<use xlink:href="#f2_2e" transform="matrix(12,0,0,12,434.2,465.8)" />
<use xlink:href="#f2_2e" transform="matrix(12,0,0,12,440.4,465.8)" />
<use xlink:href="#f2_1x" transform="matrix(12,0,0,12,446.6,465.8)" />
<use xlink:href="#f2_2g" transform="matrix(12,0,0,12,454.7,465.8)" />
<use xlink:href="#f2_2h" transform="matrix(12,0,0,12,460.1,465.8)" />
<use xlink:href="#f2_2e" transform="matrix(12,0,0,12,468.9,465.8)" />
<use xlink:href="#f2_21" transform="matrix(12,0,0,12,475.2,465.8)" />
<use xlink:href="#f2_2j" transform="matrix(12,0,0,12,488,465.8)" />
<use xlink:href="#f2_25" transform="matrix(12,0,0,12,501.2,465.8)" />
<use xlink:href="#f2_28" transform="matrix(12,0,0,12,505.9,465.8)" />
<use xlink:href="#f2_28" transform="matrix(12,0,0,12,511,465.8)" />
<use xlink:href="#f2_25" transform="matrix(12,0,0,12,520.6,465.8)" />
<use xlink:href="#f2_2f" transform="matrix(12,0,0,12,525.4,465.8)" />
<use xlink:href="#f2_23" transform="matrix(12,0,0,12,537.1,465.8)" />
<use xlink:href="#f2_25" transform="matrix(12,0,0,12,546.6,465.8)" />
<use xlink:href="#f2_2i" transform="matrix(12,0,0,12,551.4,465.8)" />
<use xlink:href="#f2_21" transform="matrix(12,0,0,12,560.5,465.8)" />
<use xlink:href="#f2_2a" transform="matrix(12,0,0,12,568.9,465.8)" />
<use xlink:href="#f2_17" transform="matrix(12,0,0,12,582.5,465.8)" />
<use xlink:href="#f2_i" transform="matrix(12,0,0,12,595.7,465.8)" />
<use xlink:href="#f2_c" transform="matrix(12,0,0,12,55,491.1)" />
<use xlink:href="#f2_1n" transform="matrix(12,0,0,12,61.3,491.1)" />
<use xlink:href="#f2_24" transform="matrix(12,0,0,12,78.5,491.1)" />
<use xlink:href="#f2_21" transform="matrix(12,0,0,12,87.3,491.1)" />
<use xlink:href="#f2_2e" transform="matrix(12,0,0,12,95.4,491.1)" />
<use xlink:href="#f2_21" transform="matrix(12,0,0,12,101.6,491.1)" />
<use xlink:href="#f2_g" transform="matrix(12,0,0,12,109.6,491.1)" />
<use xlink:href="#f3_2d" transform="matrix(12,0,0,12,119.2,491.1)" />
<use xlink:href="#f2_x" transform="matrix(12,0,0,12,133.5,491.1)" />
<use xlink:href="#f3_2j" transform="matrix(12,0,0,12,148.9,491.1)" />
<use xlink:href="#f2_2g" transform="matrix(12,0,0,12,160.3,491.1)" />
<use xlink:href="#f2_25" transform="matrix(12,0,0,12,170.9,491.1)" />
<use xlink:href="#f2_2f" transform="matrix(12,0,0,12,175.3,491.1)" />
<use xlink:href="#f2_2g" transform="matrix(12,0,0,12,187,491.1)" />
<use xlink:href="#f2_24" transform="matrix(12,0,0,12,192.5,491.1)" />
<use xlink:href="#f2_21" transform="matrix(12,0,0,12,201.3,491.1)" />
<use xlink:href="#f2_1x" transform="matrix(12,0,0,12,214.1,491.1)" />
<use xlink:href="#f2_2a" transform="matrix(12,0,0,12,222.2,491.1)" />
<use xlink:href="#f2_23" transform="matrix(12,0,0,12,231,491.1)" />
<use xlink:href="#f2_28" transform="matrix(12,0,0,12,240.5,491.1)" />
<use xlink:href="#f2_21" transform="matrix(12,0,0,12,245.3,491.1)" />
<use xlink:href="#f2_29" transform="matrix(12,0,0,12,258.4,491.1)" />
<use xlink:href="#f2_1x" transform="matrix(12,0,0,12,272.4,491.1)" />
<use xlink:href="#f2_20" transform="matrix(12,0,0,12,280.4,491.1)" />
<use xlink:href="#f2_21" transform="matrix(12,0,0,12,289.6,491.1)" />
<use xlink:href="#f2_1y" transform="matrix(12,0,0,12,302.8,491.1)" />
<use xlink:href="#f2_2l" transform="matrix(12,0,0,12,312,491.1)" />
<use xlink:href="#f2_1x" transform="matrix(12,0,0,12,325.1,491.1)" />
<use xlink:href="#f2_2e" transform="matrix(12,0,0,12,333.2,491.1)" />
<use xlink:href="#f2_21" transform="matrix(12,0,0,12,339.4,491.1)" />
<use xlink:href="#f2_1x" transform="matrix(12,0,0,12,347.5,491.1)" />
<use xlink:href="#f2_2i" transform="matrix(12,0,0,12,360.7,491.1)" />
<use xlink:href="#f2_21" transform="matrix(12,0,0,12,369.5,491.1)" />
<use xlink:href="#f2_1z" transform="matrix(12,0,0,12,377.5,491.1)" />
<use xlink:href="#f2_2g" transform="matrix(12,0,0,12,385.6,491.1)" />
<use xlink:href="#f2_2b" transform="matrix(12,0,0,12,391.1,491.1)" />
<use xlink:href="#f2_2e" transform="matrix(12,0,0,12,400.6,491.1)" />
<use xlink:href="#f2_2b" transform="matrix(12,0,0,12,410.9,491.1)" />
<use xlink:href="#f2_22" transform="matrix(12,0,0,12,420.4,491.1)" />
<use xlink:href="#f2_1z" transform="matrix(12,0,0,12,431,491.1)" />
<use xlink:href="#f2_2b" transform="matrix(12,0,0,12,439.1,491.1)" />
<use xlink:href="#f2_25" transform="matrix(12,0,0,12,448.6,491.1)" />
<use xlink:href="#f2_28" transform="matrix(12,0,0,12,453.3,491.1)" />
<use xlink:href="#f2_2j" transform="matrix(12,0,0,12,462.5,491.1)" />
<use xlink:href="#f2_25" transform="matrix(12,0,0,12,476,491.1)" />
<use xlink:href="#f2_2g" transform="matrix(12,0,0,12,480.4,491.1)" />
<use xlink:href="#f2_24" transform="matrix(12,0,0,12,486.3,491.1)" />
<use xlink:href="#f2_29" transform="matrix(12,0,0,12,500.2,491.1)" />
<use xlink:href="#f2_1x" transform="matrix(12,0,0,12,513.8,491.1)" />
<use xlink:href="#f2_23" transform="matrix(12,0,0,12,521.8,491.1)" />
<use xlink:href="#f2_2a" transform="matrix(12,0,0,12,531.4,491.1)" />
<use xlink:href="#f2_21" transform="matrix(12,0,0,12,540.5,491.1)" />
<use xlink:href="#f2_2g" transform="matrix(12,0,0,12,548.6,491.1)" />
<use xlink:href="#f2_25" transform="matrix(12,0,0,12,554.1,491.1)" />
<use xlink:href="#f2_1z" transform="matrix(12,0,0,12,558.8,491.1)" />
<use xlink:href="#f2_22" transform="matrix(12,0,0,12,572,491.1)" />
<use xlink:href="#f2_25" transform="matrix(12,0,0,12,577.9,491.1)" />
<use xlink:href="#f2_21" transform="matrix(12,0,0,12,582.7,491.1)" />
<use xlink:href="#f2_28" transform="matrix(12,0,0,12,591.1,491.1)" />
<use xlink:href="#f2_20" transform="matrix(12,0,0,12,595.8,491.1)" />
<use xlink:href="#f2_i" transform="matrix(12,0,0,12,605,491.1)" />
<use xlink:href="#f2_d" transform="matrix(12,0,0,12,609.8,491.1)" />
<use xlink:href="#f3_22" transform="matrix(12,0,0,12,55,516.8)" />
<use xlink:href="#f2_x" transform="matrix(12,0,0,12,69.3,516.8)" />
<use xlink:href="#f2_1e" transform="matrix(12,0,0,12,84.4,516.8)" />
<use xlink:href="#f2_12" transform="matrix(12,0,0,12,97.6,516.8)" />
<use xlink:href="#f2_11" transform="matrix(12,0,0,12,109.7,516.8)" />
<use xlink:href="#f2_1z" transform="matrix(12,0,0,12,127.2,516.8)" />
<use xlink:href="#f2_2b" transform="matrix(12,0,0,12,135.3,516.8)" />
<use xlink:href="#f2_2f" transform="matrix(12,0,0,12,144.8,516.8)" />
<use xlink:href="#f3_2d" transform="matrix(12,0,0,12,151.9,516.8)" />
<use xlink:href="#f2_x" transform="matrix(12,0,0,12,166.2,516.8)" />
<use xlink:href="#f2_1e" transform="matrix(12,0,0,12,181.2,516.8)" />
<use xlink:href="#f2_12" transform="matrix(12,0,0,12,194.4,516.8)" />
<use xlink:href="#f2_11" transform="matrix(12,0,0,12,206.5,516.8)" />
<use xlink:href="#f2_1z" transform="matrix(12,0,0,12,224.1,516.8)" />
<use xlink:href="#f2_2b" transform="matrix(12,0,0,12,232.1,516.8)" />
<use xlink:href="#f2_2f" transform="matrix(12,0,0,12,241.7,516.8)" />
<use xlink:href="#f3_2j" transform="matrix(12,0,0,12,253.8,516.8)" />
<use xlink:href="#f2_2g" transform="matrix(12,0,0,12,265.2,516.8)" />
</g>
<path d="M73,549.2H94.6M70.4,598.5H92.1" class="g2_49" />
<g clip-path="url(#c0_49)">
<g fill="#000000" >
<use xlink:href="#f2_2f" transform="matrix(12.2,0,0,12.1,172.6,553.7)" />
<use xlink:href="#f2_25" transform="matrix(12.2,0,0,12.1,179.8,553.7)" />
<use xlink:href="#f2_2a" transform="matrix(12.2,0,0,12.1,184.9,553.7)" />
<use xlink:href="#f2_2f" transform="matrix(12.2,0,0,12.1,159.4,603)" />
<use xlink:href="#f2_25" transform="matrix(12.2,0,0,12.1,166.6,603)" />
<use xlink:href="#f2_2a" transform="matrix(12.2,0,0,12.1,171.8,603)" />
<use xlink:href="#f4_20" transform="matrix(12.2,0,0,12.1,74.1,542.1)" />
<use xlink:href="#f4_1e" transform="matrix(12.2,0,0,12.1,125.6,553.7)" />
<use xlink:href="#f4_12" transform="matrix(12.2,0,0,12.1,137.9,553.7)" />
<use xlink:href="#f4_11" transform="matrix(12.2,0,0,12.1,149.1,553.7)" />
<use xlink:href="#f4_2g" transform="matrix(12.2,0,0,12.1,209.1,553.7)" />
<use xlink:href="#f4_20" transform="matrix(12.2,0,0,12.1,76.4,568.1)" />
<use xlink:href="#f4_2g" transform="matrix(12.2,0,0,12.1,85.5,568.1)" />
<use xlink:href="#f4_20" transform="matrix(12.2,0,0,12.1,71.6,591.4)" />
<use xlink:href="#f4_1e" transform="matrix(12.2,0,0,12.1,112.5,603)" />
<use xlink:href="#f4_12" transform="matrix(12.2,0,0,12.1,124.8,603)" />
<use xlink:href="#f4_11" transform="matrix(12.2,0,0,12.1,135.9,603)" />
<use xlink:href="#f4_2g" transform="matrix(12.2,0,0,12.1,196,603)" />
<use xlink:href="#f4_20" transform="matrix(12.2,0,0,12.1,73.8,617.4)" />
<use xlink:href="#f4_2g" transform="matrix(12.2,0,0,12.1,82.9,617.4)" />
<use xlink:href="#f3_22" transform="matrix(12.2,0,0,12.1,84.6,542.1)" />
<use xlink:href="#f3_1s" transform="matrix(12.2,0,0,12.1,55.1,553.7)" />
<use xlink:href="#f3_x" transform="matrix(12.2,0,0,12.1,99.7,553.7)" />
<use xlink:href="#f3_h" transform="matrix(12.2,0,0,12.1,114.1,553.7)" />
<use xlink:href="#f3_2j" transform="matrix(12.2,0,0,12.1,159.2,553.7)" />
<use xlink:href="#f3_2j" transform="matrix(12.2,0,0,12.1,196.5,553.7)" />
<use xlink:href="#f3_22" transform="matrix(12.2,0,0,12.1,82.1,591.4)" />
<use xlink:href="#f3_h" transform="matrix(12.2,0,0,12.1,58,603)" />
<use xlink:href="#f3_x" transform="matrix(12.2,0,0,12.1,97.1,603)" />
<use xlink:href="#f3_2j" transform="matrix(12.2,0,0,12.1,146.1,603)" />
<use xlink:href="#f3_2j" transform="matrix(12.2,0,0,12.1,183.4,603)" />
</g>
</g>
<g fill="#000000" >
<use xlink:href="#f2_12" transform="matrix(12,0,0,12,55,654.3)" />
<use xlink:href="#f2_2l" transform="matrix(12,0,0,12,67.5,654.3)" />
<use xlink:href="#f2_16" transform="matrix(12,0,0,12,81,654.3)" />
<use xlink:href="#f2_1x" transform="matrix(12,0,0,12,90.9,654.3)" />
<use xlink:href="#f2_2e" transform="matrix(12,0,0,12,99,654.3)" />
<use xlink:href="#f2_1x" transform="matrix(12,0,0,12,105.2,654.3)" />
<use xlink:href="#f2_20" transform="matrix(12,0,0,12,113.3,654.3)" />
<use xlink:href="#f2_1x" transform="matrix(12,0,0,12,122.4,654.3)" />
<use xlink:href="#f2_2l" transform="matrix(12,0,0,12,130.9,654.3)" />
<use xlink:href="#f2_b" transform="matrix(12,0,0,12,139.7,654.3)" />
<use xlink:href="#f2_2f" transform="matrix(12,0,0,12,143,654.3)" />
<use xlink:href="#f2_28" transform="matrix(12,0,0,12,155,654.3)" />
<use xlink:href="#f2_1x" transform="matrix(12,0,0,12,159.8,654.3)" />
<use xlink:href="#f2_2j" transform="matrix(12,0,0,12,167.9,654.3)" />
<use xlink:href="#f2_2b" transform="matrix(12,0,0,12,185.8,654.3)" />
<use xlink:href="#f2_22" transform="matrix(12,0,0,12,195.3,654.3)" />
<use xlink:href="#f2_15" transform="matrix(12,0,0,12,205.6,654.3)" />
<use xlink:href="#f2_1d" transform="matrix(12,0,0,12,216.9,654.3)" />
<use xlink:href="#f2_19" transform="matrix(12,0,0,12,233.1,654.3)" />
<use xlink:href="#f2_g" transform="matrix(12,0,0,12,239.3,654.3)" />
<use xlink:href="#f2_21" transform="matrix(12,0,0,12,248.8,654.3)" />
</g>
<path d="M291.2,649.8h21.7" class="g3_49" />
<g clip-path="url(#c1_49)">
<g fill="#000000" >
<use xlink:href="#f4_20" transform="matrix(12.5,0,0,12.4,292.4,642.5)" />
<use xlink:href="#f4_20" transform="matrix(12.5,0,0,12.4,294.6,669.1)" />
<use xlink:href="#f4_2g" transform="matrix(12.5,0,0,12.4,303.8,669.1)" />
<use xlink:href="#f3_22" transform="matrix(12.5,0,0,12.4,302.9,642.5)" />
<use xlink:href="#f3_x" transform="matrix(12.5,0,0,12.4,264.3,654.4)" />
<use xlink:href="#f3_h" transform="matrix(12.5,0,0,12.4,278.8,654.4)" />
</g>
</g>
<g fill="#000000" >
<use xlink:href="#f2_25" transform="matrix(12,0,0,12,55,693.2)" />
<use xlink:href="#f2_2a" transform="matrix(12,0,0,12,59.8,693.2)" />
<use xlink:href="#f2_20" transform="matrix(12,0,0,12,69,693.2)" />
<use xlink:href="#f2_2h" transform="matrix(12,0,0,12,78.1,693.2)" />
<use xlink:href="#f2_1z" transform="matrix(12,0,0,12,87.3,693.2)" />
<use xlink:href="#f2_21" transform="matrix(12,0,0,12,95.4,693.2)" />
<use xlink:href="#f2_20" transform="matrix(12,0,0,12,103.4,693.2)" />
<use xlink:href="#f2_21" transform="matrix(12,0,0,12,117.4,693.2)" />
<use xlink:href="#f2_29" transform="matrix(12,0,0,12,125.8,693.2)" />
<use xlink:href="#f2_22" transform="matrix(12,0,0,12,139.7,693.2)" />
<use xlink:href="#f2_25" transform="matrix(12,0,0,12,150.7,693.2)" />
<use xlink:href="#f2_2a" transform="matrix(12,0,0,12,155.4,693.2)" />
<use xlink:href="#f2_2j" transform="matrix(12,0,0,12,169,693.2)" />
<use xlink:href="#f2_25" transform="matrix(12,0,0,12,182.5,693.2)" />
<use xlink:href="#f2_28" transform="matrix(12,0,0,12,187.6,693.2)" />
<use xlink:href="#f2_28" transform="matrix(12,0,0,12,192.8,693.2)" />
<use xlink:href="#f2_25" transform="matrix(12,0,0,12,202.7,693.2)" />
<use xlink:href="#f2_2f" transform="matrix(12,0,0,12,207.4,693.2)" />
<use xlink:href="#f2_23" transform="matrix(12,0,0,12,219.2,693.2)" />
<use xlink:href="#f2_25" transform="matrix(12,0,0,12,228.7,693.2)" />
<use xlink:href="#f2_2i" transform="matrix(12,0,0,12,233.4,693.2)" />
<use xlink:href="#f2_21" transform="matrix(12,0,0,12,242.6,693.2)" />
<use xlink:href="#f2_2a" transform="matrix(12,0,0,12,251,693.2)" />
<use xlink:href="#f2_1y" transform="matrix(12,0,0,12,264.6,693.2)" />
<use xlink:href="#f2_2l" transform="matrix(12,0,0,12,273.7,693.2)" />
<use xlink:href="#f2_g" transform="matrix(12,0,0,12,282.5,693.2)" />
<use xlink:href="#f2_21" transform="matrix(12,0,0,12,55,718.5)" />
<use xlink:href="#f2_x" transform="matrix(12,0,0,12,67.9,718.5)" />
<use xlink:href="#f2_1e" transform="matrix(12,0,0,12,82.9,718.5)" />
<use xlink:href="#f2_12" transform="matrix(12,0,0,12,96.1,718.5)" />
<use xlink:href="#f2_11" transform="matrix(12,0,0,12,108.2,718.5)" />
<use xlink:href="#f3_2j" transform="matrix(12,0,0,12,126.5,718.5)" />
<use xlink:href="#f2_2f" transform="matrix(12,0,0,12,143,718.5)" />
<use xlink:href="#f2_25" transform="matrix(12,0,0,12,150.4,718.5)" />
<use xlink:href="#f2_2a" transform="matrix(12,0,0,12,155.1,718.5)" />
<use xlink:href="#f3_2j" transform="matrix(12,0,0,12,169.5,718.5)" />
<use xlink:href="#f2_2g" transform="matrix(12,0,0,12,180.8,718.5)" />
<use xlink:href="#f2_21" transform="matrix(12,0,0,12,55,744.1)" />
<use xlink:href="#f2_x" transform="matrix(12,0,0,12,67.9,744.1)" />
<use xlink:href="#f2_21" transform="matrix(12,0,0,12,82.9,744.1)" />
<use xlink:href="#f2_k" transform="matrix(7.9,0,0,7.9,91,745.6)" />
<use xlink:href="#f2_2f" transform="matrix(12,0,0,12,97.2,744.1)" />
<use xlink:href="#f2_25" transform="matrix(12,0,0,12,104.5,744.1)" />
<use xlink:href="#f2_2a" transform="matrix(12,0,0,12,109.3,744.1)" />
<use xlink:href="#f3_2j" transform="matrix(12,0,0,12,123.2,744.1)" />
<use xlink:href="#f2_2g" transform="matrix(12,0,0,12,134.6,744.1)" />
<use xlink:href="#f2_1n" transform="matrix(12,0,0,12,55,769.1)" />
<use xlink:href="#f2_24" transform="matrix(12,0,0,12,72.3,769.1)" />
<use xlink:href="#f2_21" transform="matrix(12,0,0,12,81.1,769.1)" />
<use xlink:href="#f2_2e" transform="matrix(12,0,0,12,89.1,769.1)" />
<use xlink:href="#f2_21" transform="matrix(12,0,0,12,95.4,769.1)" />
<use xlink:href="#f2_21" transform="matrix(12,0,0,12,108.2,769.1)" />
<use xlink:href="#f2_29" transform="matrix(12,0,0,12,116.6,769.1)" />
<use xlink:href="#f2_22" transform="matrix(12,0,0,12,130.5,769.1)" />
<use xlink:href="#f2_25" transform="matrix(12,0,0,12,141.5,769.1)" />
<use xlink:href="#f2_2a" transform="matrix(12,0,0,12,146.3,769.1)" />
<use xlink:href="#f2_2j" transform="matrix(12,0,0,12,159.8,769.1)" />
<use xlink:href="#f2_25" transform="matrix(12,0,0,12,173.4,769.1)" />
<use xlink:href="#f2_28" transform="matrix(12,0,0,12,178.5,769.1)" />
<use xlink:href="#f2_28" transform="matrix(12,0,0,12,183.6,769.1)" />
<use xlink:href="#f2_25" transform="matrix(12,0,0,12,193.5,769.1)" />
<use xlink:href="#f2_2f" transform="matrix(12,0,0,12,198.3,769.1)" />
<use xlink:href="#f2_23" transform="matrix(12,0,0,12,210,769.1)" />
<use xlink:href="#f2_25" transform="matrix(12,0,0,12,219.5,769.1)" />
<use xlink:href="#f2_2i" transform="matrix(12,0,0,12,224.3,769.1)" />
<use xlink:href="#f2_21" transform="matrix(12,0,0,12,233.1,769.1)" />
<use xlink:href="#f2_2a" transform="matrix(12,0,0,12,241.5,769.1)" />
<use xlink:href="#f2_1y" transform="matrix(12,0,0,12,255.4,769.1)" />
<use xlink:href="#f2_2l" transform="matrix(12,0,0,12,264.6,769.1)" />
<use xlink:href="#f2_g" transform="matrix(12,0,0,12,273,769.1)" />
<use xlink:href="#f2_21" transform="matrix(12,0,0,12,55,794.4)" />
<use xlink:href="#f2_x" transform="matrix(12,0,0,12,67.9,794.4)" />
<use xlink:href="#f2_1e" transform="matrix(12,0,0,12,82.9,794.4)" />
<use xlink:href="#f2_12" transform="matrix(12,0,0,12,96.1,794.4)" />
<use xlink:href="#f2_11" transform="matrix(12,0,0,12,108.2,794.4)" />
<use xlink:href="#f3_2j" transform="matrix(12,0,0,12,126.5,794.4)" />
<use xlink:href="#f2_2f" transform="matrix(12,0,0,12,143,794.4)" />
<use xlink:href="#f2_25" transform="matrix(12,0,0,12,150.4,794.4)" />
<use xlink:href="#f2_2a" transform="matrix(12,0,0,12,155.1,794.4)" />
<use xlink:href="#f3_2j" transform="matrix(12,0,0,12,169.5,794.4)" />
<use xlink:href="#f2_2g" transform="matrix(12,0,0,12,180.8,794.4)" />
<use xlink:href="#f2_21" transform="matrix(12,0,0,12,55,820.1)" />
<use xlink:href="#f2_x" transform="matrix(12,0,0,12,67.9,820.1)" />
<use xlink:href="#f2_21" transform="matrix(12,0,0,12,82.9,820.1)" />
<use xlink:href="#f2_k" transform="matrix(7.9,0,0,7.9,91,821.5)" />
<use xlink:href="#f2_2f" transform="matrix(12,0,0,12,97.2,820.1)" />
<use xlink:href="#f2_25" transform="matrix(12,0,0,12,104.5,820.1)" />
<use xlink:href="#f2_2a" transform="matrix(12,0,0,12,109.3,820.1)" />
<use xlink:href="#f3_2j" transform="matrix(12,0,0,12,123.2,820.1)" />
<use xlink:href="#f2_2g" transform="matrix(12,0,0,12,134.6,820.1)" />
<use xlink:href="#f2_2j" transform="matrix(12,0,0,12,55,846.1)" />
<use xlink:href="#f2_24" transform="matrix(12,0,0,12,68.3,846.1)" />
<use xlink:href="#f2_21" transform="matrix(12,0,0,12,77,846.1)" />
<use xlink:href="#f2_2e" transform="matrix(12,0,0,12,85.1,846.1)" />
<use xlink:href="#f2_21" transform="matrix(12,0,0,12,91.3,846.1)" />
<use xlink:href="#f2_g" transform="matrix(12,0,0,12,99.4,846.1)" />
<use xlink:href="#f2_21" transform="matrix(12,0,0,12,108.9,846.1)" />
<use xlink:href="#f2_k" transform="matrix(7.9,0,0,7.9,117,847.6)" />
<use xlink:href="#f2_1e" transform="matrix(12,0,0,12,128,846.1)" />
<use xlink:href="#f2_12" transform="matrix(12,0,0,12,141.2,846.1)" />
<use xlink:href="#f2_11" transform="matrix(12,0,0,12,153.3,846.1)" />
<use xlink:href="#f3_2j" transform="matrix(12,0,0,12,171.7,846.1)" />
<use xlink:href="#f2_x" transform="matrix(12,0,0,12,188.2,846.1)" />
<use xlink:href="#f2_2c" transform="matrix(12,0,0,12,203.2,846.1)" />
<use xlink:href="#f2_21" transform="matrix(12,0,0,12,212.4,846.1)" />
<use xlink:href="#f2_1x" transform="matrix(12,0,0,12,220.4,846.1)" />
<use xlink:href="#f2_27" transform="matrix(12,0,0,12,228.5,846.1)" />
<use xlink:href="#f2_2i" transform="matrix(12,0,0,12,242.4,846.1)" />
<use xlink:href="#f2_1x" transform="matrix(12,0,0,12,251.2,846.1)" />
<use xlink:href="#f2_28" transform="matrix(12,0,0,12,259.6,846.1)" />
<use xlink:href="#f2_2h" transform="matrix(12,0,0,12,264.4,846.1)" />
<use xlink:href="#f2_21" transform="matrix(12,0,0,12,273.6,846.1)" />
<use xlink:href="#f2_2b" transform="matrix(12,0,0,12,286.4,846.1)" />
<use xlink:href="#f2_22" transform="matrix(12,0,0,12,295.9,846.1)" />
<use xlink:href="#f2_25" transform="matrix(12,0,0,12,306.5,846.1)" />
<use xlink:href="#f2_2a" transform="matrix(12,0,0,12,311.3,846.1)" />
<use xlink:href="#f2_20" transform="matrix(12,0,0,12,320.4,846.1)" />
<use xlink:href="#f2_2h" transform="matrix(12,0,0,12,329.6,846.1)" />
<use xlink:href="#f2_1z" transform="matrix(12,0,0,12,338.8,846.1)" />
<use xlink:href="#f2_21" transform="matrix(12,0,0,12,346.8,846.1)" />
<use xlink:href="#f2_20" transform="matrix(12,0,0,12,354.9,846.1)" />
<use xlink:href="#f2_21" transform="matrix(12,0,0,12,368.8,846.1)" />
<use xlink:href="#f2_29" transform="matrix(12,0,0,12,377.2,846.1)" />
<use xlink:href="#f2_22" transform="matrix(12,0,0,12,391.2,846.1)" />
<use xlink:href="#f2_1k" transform="matrix(12,0,0,12,55,1009)" />
<use xlink:href="#f2_24" transform="matrix(12,0,0,12,66.4,1009)" />
<use xlink:href="#f2_21" transform="matrix(12,0,0,12,75.2,1009)" />
<use xlink:href="#f2_29" transform="matrix(12,0,0,12,88.4,1009)" />
<use xlink:href="#f2_21" transform="matrix(12,0,0,12,101.9,1009)" />
<use xlink:href="#f2_1z" transform="matrix(12,0,0,12,110,1009)" />
<use xlink:href="#f2_24" transform="matrix(12,0,0,12,118.4,1009)" />
<use xlink:href="#f2_1x" transform="matrix(12,0,0,12,127.6,1009)" />
<use xlink:href="#f2_2a" transform="matrix(12,0,0,12,136,1009)" />
<use xlink:href="#f2_25" transform="matrix(12,0,0,12,145.2,1009)" />
<use xlink:href="#f2_1z" transform="matrix(12,0,0,12,149.9,1009)" />
<use xlink:href="#f2_1x" transform="matrix(12,0,0,12,158,1009)" />
<use xlink:href="#f2_28" transform="matrix(12,0,0,12,166.4,1009)" />
<use xlink:href="#f2_21" transform="matrix(12,0,0,12,175.9,1009)" />
<use xlink:href="#f2_2a" transform="matrix(12,0,0,12,184.3,1009)" />
<use xlink:href="#f2_21" transform="matrix(12,0,0,12,193.1,1009)" />
<use xlink:href="#f2_2e" transform="matrix(12,0,0,12,201.2,1009)" />
<use xlink:href="#f2_23" transform="matrix(12,0,0,12,207.4,1009)" />
<use xlink:href="#f2_2l" transform="matrix(12,0,0,12,216.9,1009)" />
<use xlink:href="#f2_2f" transform="matrix(12,0,0,12,230.1,1009)" />
<use xlink:href="#f2_2c" transform="matrix(12,0,0,12,237.1,1009)" />
<use xlink:href="#f2_21" transform="matrix(12,0,0,12,246.3,1009)" />
<use xlink:href="#f2_2a" transform="matrix(12,0,0,12,254.7,1009)" />
<use xlink:href="#f2_2g" transform="matrix(12,0,0,12,263.5,1009)" />
<use xlink:href="#f2_25" transform="matrix(12,0,0,12,274.1,1009)" />
<use xlink:href="#f2_2a" transform="matrix(12,0,0,12,278.8,1009)" />
<use xlink:href="#f2_2e" transform="matrix(12,0,0,12,292.4,1009)" />
<use xlink:href="#f2_2b" transform="matrix(12,0,0,12,298.6,1009)" />
<use xlink:href="#f2_2g" transform="matrix(12,0,0,12,307.8,1009)" />
<use xlink:href="#f2_1x" transform="matrix(12,0,0,12,313.2,1009)" />
<use xlink:href="#f2_2g" transform="matrix(12,0,0,12,320.9,1009)" />
<use xlink:href="#f2_25" transform="matrix(12,0,0,12,326.4,1009)" />
<use xlink:href="#f2_2a" transform="matrix(12,0,0,12,331.2,1009)" />
<use xlink:href="#f2_23" transform="matrix(12,0,0,12,340,1009)" />
<use xlink:href="#f2_2g" transform="matrix(12,0,0,12,353.9,1009)" />
<use xlink:href="#f2_24" transform="matrix(12,0,0,12,359.4,1009)" />
<use xlink:href="#f2_21" transform="matrix(12,0,0,12,368.2,1009)" />
<use xlink:href="#f2_1z" transform="matrix(12,0,0,12,381,1009)" />
<use xlink:href="#f2_2b" transform="matrix(12,0,0,12,389.1,1009)" />
<use xlink:href="#f2_25" transform="matrix(12,0,0,12,398.6,1009)" />
<use xlink:href="#f2_28" transform="matrix(12,0,0,12,403.4,1009)" />
<use xlink:href="#f2_25" transform="matrix(12,0,0,12,412.9,1009)" />
<use xlink:href="#f2_2a" transform="matrix(12,0,0,12,417.6,1009)" />
<use xlink:href="#f2_29" transform="matrix(12,0,0,12,431.9,1009)" />
<use xlink:href="#f2_1x" transform="matrix(12,0,0,12,445.8,1009)" />
<use xlink:href="#f2_23" transform="matrix(12,0,0,12,453.9,1009)" />
<use xlink:href="#f2_2a" transform="matrix(12,0,0,12,463.4,1009)" />
<use xlink:href="#f2_21" transform="matrix(12,0,0,12,472.2,1009)" />
<use xlink:href="#f2_2g" transform="matrix(12,0,0,12,480.3,1009)" />
<use xlink:href="#f2_25" transform="matrix(12,0,0,12,486.1,1009)" />
<use xlink:href="#f2_1z" transform="matrix(12,0,0,12,490.5,1009)" />
<use xlink:href="#f2_22" transform="matrix(12,0,0,12,503.7,1009)" />
<use xlink:href="#f2_25" transform="matrix(12,0,0,12,509.6,1009)" />
<use xlink:href="#f2_21" transform="matrix(12,0,0,12,514.3,1009)" />
<use xlink:href="#f2_28" transform="matrix(12,0,0,12,522.8,1009)" />
<use xlink:href="#f2_20" transform="matrix(12,0,0,12,527.5,1009)" />
<use xlink:href="#f2_1x" transform="matrix(12,0,0,12,541.4,1009)" />
<use xlink:href="#f2_2c" transform="matrix(12,0,0,12,549.5,1009)" />
<use xlink:href="#f2_2c" transform="matrix(12,0,0,12,558.7,1009)" />
<use xlink:href="#f2_21" transform="matrix(12,0,0,12,567.8,1009)" />
<use xlink:href="#f2_1x" transform="matrix(12,0,0,12,575.9,1009)" />
<use xlink:href="#f2_2e" transform="matrix(12,0,0,12,584,1009)" />
<use xlink:href="#f2_2f" transform="matrix(12,0,0,12,590.2,1009)" />
<use xlink:href="#f2_25" transform="matrix(12,0,0,12,603,1009)" />
<use xlink:href="#f2_2a" transform="matrix(12,0,0,12,607.8,1009)" />
<use xlink:href="#f2_22" transform="matrix(12,0,0,12,621.7,1009)" />
<use xlink:href="#f2_2b" transform="matrix(12,0,0,12,627.2,1009)" />
<use xlink:href="#f2_2e" transform="matrix(12,0,0,12,636.7,1009)" />
<use xlink:href="#f2_29" transform="matrix(12,0,0,12,643.3,1009)" />
<use xlink:href="#f2_2b" transform="matrix(12,0,0,12,661.6,1009)" />
<use xlink:href="#f2_22" transform="matrix(12,0,0,12,671.1,1009)" />
<use xlink:href="#f2_21" transform="matrix(12,0,0,12,681.4,1009)" />
<use xlink:href="#f2_28" transform="matrix(12,0,0,12,689.8,1009)" />
<use xlink:href="#f2_21" transform="matrix(12,0,0,12,694.6,1009)" />
<use xlink:href="#f2_1z" transform="matrix(12,0,0,12,702.6,1009)" />
<use xlink:href="#f2_2g" transform="matrix(12,0,0,12,710.7,1009)" />
<use xlink:href="#f2_2e" transform="matrix(12,0,0,12,716.2,1009)" />
<use xlink:href="#f2_25" transform="matrix(12,0,0,12,722.7,1009)" />
<use xlink:href="#f2_1z" transform="matrix(12,0,0,12,727.1,1009)" />
<use xlink:href="#f2_1x" transform="matrix(12,0,0,12,735.2,1009)" />
<use xlink:href="#f2_28" transform="matrix(12,0,0,12,743.6,1009)" />
<use xlink:href="#f2_21" transform="matrix(12,0,0,12,753.1,1009)" />
<use xlink:href="#f2_2a" transform="matrix(12,0,0,12,761.6,1009)" />
<use xlink:href="#f2_21" transform="matrix(12,0,0,12,770.4,1009)" />
<use xlink:href="#f2_2e" transform="matrix(12,0,0,12,778.4,1009)" />
<use xlink:href="#f2_23" transform="matrix(12,0,0,12,784.6,1009)" />
<use xlink:href="#f2_2l" transform="matrix(12,0,0,12,793.8,1009)" />
<use xlink:href="#f2_i" transform="matrix(12,0,0,12,802.2,1009)" />
<use xlink:href="#f5_c" transform="matrix(12,0,0,12,55,1031.7)" />
<use xlink:href="#f5_1y" transform="matrix(12,0,0,12,60.2,1031.7)" />
<use xlink:href="#f5_d" transform="matrix(12,0,0,12,70.4,1031.7)" />
<use xlink:href="#f2_17" transform="matrix(12,0,0,12,55,1150.9)" />
<use xlink:href="#f2_25" transform="matrix(12,0,0,12,68.6,1150.9)" />
<use xlink:href="#f2_2i" transform="matrix(12,0,0,12,73.4,1150.9)" />
<use xlink:href="#f2_21" transform="matrix(12,0,0,12,82.2,1150.9)" />
<use xlink:href="#f2_2a" transform="matrix(12,0,0,12,90.6,1150.9)" />
<use xlink:href="#f2_2i" transform="matrix(12,0,0,12,104.5,1150.9)" />
<use xlink:href="#f2_21" transform="matrix(12,0,0,12,113.3,1150.9)" />
<use xlink:href="#f2_28" transform="matrix(12,0,0,12,121.7,1150.9)" />
<use xlink:href="#f2_2b" transform="matrix(12,0,0,12,126.1,1150.9)" />
<use xlink:href="#f2_1z" transform="matrix(12,0,0,12,135.6,1150.9)" />
<use xlink:href="#f2_25" transform="matrix(12,0,0,12,144,1150.9)" />
<use xlink:href="#f2_2g" transform="matrix(12,0,0,12,148.4,1150.9)" />
<use xlink:href="#f2_2l" transform="matrix(12,0,0,12,154.3,1150.9)" />
<use xlink:href="#f2_2b" transform="matrix(12,0,0,12,167.5,1150.9)" />
<use xlink:href="#f2_22" transform="matrix(12,0,0,12,177.3,1150.9)" />
<use xlink:href="#f2_2f" transform="matrix(12,0,0,12,187.6,1150.9)" />
<use xlink:href="#f2_2g" transform="matrix(12,0,0,12,194.6,1150.9)" />
<use xlink:href="#f2_2e" transform="matrix(12,0,0,12,200,1150.9)" />
<use xlink:href="#f2_1x" transform="matrix(12,0,0,12,206.3,1150.9)" />
<use xlink:href="#f2_25" transform="matrix(12,0,0,12,214.3,1150.9)" />
<use xlink:href="#f2_23" transform="matrix(12,0,0,12,218.7,1150.9)" />
<use xlink:href="#f2_24" transform="matrix(12,0,0,12,228.2,1150.9)" />
<use xlink:href="#f2_2g" transform="matrix(12,0,0,12,237,1150.9)" />
<use xlink:href="#f2_2e" transform="matrix(12,0,0,12,247.3,1150.9)" />
<use xlink:href="#f2_2b" transform="matrix(12,0,0,12,253.1,1150.9)" />
<use xlink:href="#f2_20" transform="matrix(12,0,0,12,262.6,1150.9)" />
<use xlink:href="#f2_2i" transform="matrix(12,0,0,12,276.6,1150.9)" />
<use xlink:href="#f2_x" transform="matrix(12,0,0,12,290.1,1150.9)" />
<use xlink:href="#f2_p" transform="matrix(12,0,0,12,305.1,1150.9)" />
<use xlink:href="#f2_29" transform="matrix(12,0,0,12,314.3,1150.9)" />
<use xlink:href="#f2_j" transform="matrix(12,0,0,12,327.9,1150.9)" />
<use xlink:href="#f2_2f" transform="matrix(12,0,0,12,333,1150.9)" />
<use xlink:href="#f2_24" transform="matrix(12,0,0,12,345.1,1150.9)" />
<use xlink:href="#f2_2b" transform="matrix(12,0,0,12,353.9,1150.9)" />
<use xlink:href="#f2_2e" transform="matrix(12,0,0,12,363.4,1150.9)" />
<use xlink:href="#f2_25" transform="matrix(12,0,0,12,369.6,1150.9)" />
<use xlink:href="#f2_2m" transform="matrix(12,0,0,12,374.4,1150.9)" />
<use xlink:href="#f2_2b" transform="matrix(12,0,0,12,382.4,1150.9)" />
<use xlink:href="#f2_2a" transform="matrix(12,0,0,12,391.9,1150.9)" />
<use xlink:href="#f2_2g" transform="matrix(12,0,0,12,400.7,1150.9)" />
<use xlink:href="#f2_1x" transform="matrix(12,0,0,12,406.2,1150.9)" />
<use xlink:href="#f2_28" transform="matrix(12,0,0,12,414.6,1150.9)" />
<use xlink:href="#f2_1z" transform="matrix(12,0,0,12,423.8,1150.9)" />
<use xlink:href="#f2_2b" transform="matrix(12,0,0,12,431.9,1150.9)" />
<use xlink:href="#f2_29" transform="matrix(12,0,0,12,441.4,1150.9)" />
<use xlink:href="#f2_2c" transform="matrix(12,0,0,12,454.9,1150.9)" />
<use xlink:href="#f2_2b" transform="matrix(12,0,0,12,464.1,1150.9)" />
<use xlink:href="#f2_2a" transform="matrix(12,0,0,12,473.6,1150.9)" />
<use xlink:href="#f2_21" transform="matrix(12,0,0,12,482.4,1150.9)" />
<use xlink:href="#f2_2a" transform="matrix(12,0,0,12,490.8,1150.9)" />
<use xlink:href="#f2_2g" transform="matrix(12,0,0,12,499.6,1150.9)" />
<use xlink:href="#f2_2b" transform="matrix(12,0,0,12,509.9,1150.9)" />
<use xlink:href="#f2_22" transform="matrix(12,0,0,12,519.4,1150.9)" />
<use xlink:href="#f2_2g" transform="matrix(12,0,0,12,529.6,1150.9)" />
<use xlink:href="#f2_24" transform="matrix(12,0,0,12,535.1,1150.9)" />
<use xlink:href="#f2_21" transform="matrix(12,0,0,12,543.9,1150.9)" />
<use xlink:href="#f2_21" transform="matrix(12,0,0,12,556.7,1150.9)" />
<use xlink:href="#f2_1x" transform="matrix(12,0,0,12,564.8,1150.9)" />
<use xlink:href="#f2_2e" transform="matrix(12,0,0,12,572.9,1150.9)" />
<use xlink:href="#f2_2g" transform="matrix(12,0,0,12,578.7,1150.9)" />
<use xlink:href="#f2_24" transform="matrix(12,0,0,12,584.2,1150.9)" />
<use xlink:href="#f2_b" transform="matrix(12,0,0,12,593,1150.9)" />
<use xlink:href="#f2_2f" transform="matrix(12,0,0,12,596.3,1150.9)" />
<use xlink:href="#f2_29" transform="matrix(12,0,0,12,608.4,1150.9)" />
<use xlink:href="#f2_1x" transform="matrix(12,0,0,12,622,1150.9)" />
<use xlink:href="#f2_23" transform="matrix(12,0,0,12,630,1150.9)" />
<use xlink:href="#f2_2a" transform="matrix(12,0,0,12,639.5,1150.9)" />
<use xlink:href="#f2_21" transform="matrix(12,0,0,12,648.3,1150.9)" />
<use xlink:href="#f2_2g" transform="matrix(12,0,0,12,656.4,1150.9)" />
<use xlink:href="#f2_25" transform="matrix(12,0,0,12,662.3,1150.9)" />
<use xlink:href="#f2_1z" transform="matrix(12,0,0,12,666.7,1150.9)" />
<use xlink:href="#f2_22" transform="matrix(12,0,0,12,679.8,1150.9)" />
<use xlink:href="#f2_25" transform="matrix(12,0,0,12,685.7,1150.9)" />
<use xlink:href="#f2_21" transform="matrix(12,0,0,12,690.5,1150.9)" />
<use xlink:href="#f2_28" transform="matrix(12,0,0,12,699.3,1150.9)" />
<use xlink:href="#f2_20" transform="matrix(12,0,0,12,704,1150.9)" />
<use xlink:href="#f2_12" transform="matrix(12,0,0,12,55,1175.5)" />
<use xlink:href="#f2_x" transform="matrix(12,0,0,12,71.9,1175.5)" />
<use xlink:href="#f2_k" transform="matrix(12,0,0,12,86.9,1175.5)" />
<use xlink:href="#f2_i" transform="matrix(12,0,0,12,96.1,1175.5)" />
<use xlink:href="#f2_n" transform="matrix(12,0,0,12,100.8,1175.5)" />
<use xlink:href="#f2_k" transform="matrix(12,0,0,12,110,1175.5)" />
<use xlink:href="#f2_4a" transform="matrix(12,0,0,12,123.9,1175.5)" />
<use xlink:href="#f2_l" transform="matrix(12,0,0,12,138.5,1175.5)" />
<use xlink:href="#f2_k" transform="matrix(12,0,0,12,147.7,1175.5)" />
<use xlink:href="#f2_h" transform="matrix(7.9,0,0,7.9,157,1168.5)" />
<use xlink:href="#f2_o" transform="matrix(7.9,0,0,7.9,160.7,1168.5)" />
<use xlink:href="#f2_2j" transform="matrix(12,0,0,12,171.7,1175.5)" />
<use xlink:href="#f2_1y" transform="matrix(12,0,0,12,184.9,1175.5)" />
<use xlink:href="#f2_j" transform="matrix(12,0,0,12,193.7,1175.5)" />
<use xlink:href="#f2_29" transform="matrix(12,0,0,12,199.2,1175.5)" />
<use xlink:href="#f2_m" transform="matrix(7.9,0,0,7.9,212.7,1168.5)" />
<use xlink:href="#f2_28" transform="matrix(12,0,0,12,224.1,1175.5)" />
<use xlink:href="#f2_21" transform="matrix(12,0,0,12,228.9,1175.5)" />
<use xlink:href="#f2_2a" transform="matrix(12,0,0,12,237.3,1175.5)" />
<use xlink:href="#f2_23" transform="matrix(12,0,0,12,246.1,1175.5)" />
<use xlink:href="#f2_2g" transform="matrix(12,0,0,12,255.3,1175.5)" />
<use xlink:href="#f2_24" transform="matrix(12,0,0,12,260.7,1175.5)" />
<use xlink:href="#f2_2b" transform="matrix(12,0,0,12,274.3,1175.5)" />
<use xlink:href="#f2_22" transform="matrix(12,0,0,12,283.8,1175.5)" />
<use xlink:href="#f2_2j" transform="matrix(12,0,0,12,294.1,1175.5)" />
<use xlink:href="#f2_25" transform="matrix(12,0,0,12,307.6,1175.5)" />
<use xlink:href="#f2_2e" transform="matrix(12,0,0,12,312,1175.5)" />
<use xlink:href="#f2_21" transform="matrix(12,0,0,12,318.2,1175.5)" />
<use xlink:href="#f6_a8" transform="matrix(12,0,0,12,331.2,1175.5)" />
<use xlink:href="#f2_x" transform="matrix(12,0,0,12,339.3,1175.5)" />
<use xlink:href="#f2_l" transform="matrix(12,0,0,12,354.3,1175.5)" />
<use xlink:href="#f2_k" transform="matrix(12,0,0,12,363.5,1175.5)" />
<use xlink:href="#f2_29" transform="matrix(12,0,0,12,377.8,1175.5)" />
</g>
<image preserveAspectRatio="none" x="303" y="127" width="303" height="317" xlink:href="img/6.png" />
<image preserveAspectRatio="none" x="308" y="853" width="293" height="134" xlink:href="img/7.png" />
<image preserveAspectRatio="none" x="384" y="1039" width="141" height="91" xlink:href="img/8.png" />
<path fill-rule="evenodd" d="M37.4,38.1h.7v-.7h-.7v.7Z" class="g4_49" />
<path fill-rule="evenodd" d="M37.4,38.1h.7v-.7h-.7v.7Z" class="g4_49" />
<path fill-rule="evenodd" d="M38.1,38.1H871.5v-.7H38.1v.7Z" class="g4_49" />
<path fill-rule="evenodd" d="M871.5,38.1h.8v-.7h-.8v.7Z" class="g4_49" />
<path fill-rule="evenodd" d="M871.5,38.1h.8v-.7h-.8v.7Z" class="g4_49" />
<path fill-rule="evenodd" d="M37.4,1248.5h.7V38.1h-.7V1248.5Z" class="g4_49" />
<path fill-rule="evenodd" d="M872.3,1248.5h.7V38.1h-.7V1248.5Z" class="g4_49" />
<path fill-rule="evenodd" d="M871.5,1248.5h.8V38.1h-.8V1248.5Z" class="g4_49" />
<path fill-rule="evenodd" d="M37.4,1249.2h.7v-.7h-.7v.7Z" class="g4_49" />
<path fill-rule="evenodd" d="M37.4,1249.2h.7v-.7h-.7v.7Z" class="g4_49" />
<path fill-rule="evenodd" d="M38.1,1249.9H871.5v-.7H38.1v.7Z" class="g4_49" />
<path fill-rule="evenodd" d="M38.1,1249.2H871.5v-.7H38.1v.7Z" class="g4_49" />
<path fill-rule="evenodd" d="M872.3,1249.9h.7v-1.4h-.7v1.4Z" class="g4_49" />
<path fill-rule="evenodd" d="M871.5,1249.9H873v-.7h-1.5v.7Z" class="g4_49" />
<path fill-rule="evenodd" d="M871.5,1249.2h.8v-.7h-.8v.7Z" class="g4_49" />
<path fill-rule="evenodd" d="M871.5,1249.2h.8v-.7h-.8v.7Z" class="g4_49" />
<defs>
<path d="M489,-15c0,0,-99,0,-179,30c0,0,-80,30,-136,91c0,0,-56,61,-85,152c0,0,-30,91,-30,212c0,0,0,123,32,218c0,0,33,96,92,161c0,0,59,65,142,98c0,0,82,34,181,34c0,0,40,0,78,-7c0,0,37,-7,69,-18c0,0,31,-11,57,-25c0,0,25,-14,35,-24c0,0,10,-10,14,-17c0,0,4,-7,6,-17c0,0,2,-11,3,-25c0,0,2,-14,2,-35c0,0,0,-22,-2,-38c0,0,-1,-15,-5,-25c0,0,-4,-10,-9,-14c0,0,-5,-5,-12,-5c0,0,-11,0,-28,13c0,0,-18,13,-45,29c0,0,-27,16,-65,29c0,0,-37,13,-89,13c0,0,-58,0,-103,-23c0,0,-45,-23,-77,-67c0,0,-31,-44,-48,-106c0,0,-16,-61,-16,-139c0,0,0,-85,17,-147c0,0,18,-62,50,-103c0,0,33,-40,79,-60c0,0,45,-19,103,-19c0,0,52,0,90,12c0,0,38,12,65,27c0,0,27,15,45,27c0,0,17,12,27,12c0,0,8,0,12,-3c0,0,4,-3,7,-12c0,0,3,-9,5,-25c0,0,1,-16,1,-43c0,0,0,-18,-1,-31c0,0,-1,-14,-3,-23c0,0,-2,-9,-6,-16c0,0,-4,-7,-12,-15c0,0,-8,-9,-32,-22c0,0,-23,-14,-57,-26C661,13,627,1,583,-6c0,0,-43,-9,-94,-9Z" 
id="f0_j"
transform="scale(0.001,-0.001)" />

<path d="M440,150c0,0,41,0,68,8c0,0,28,9,49,26c0,0,20,16,32,41c0,0,11,25,11,58c0,0,0,33,-11,60c0,0,-11,26,-33,44c0,0,-21,18,-55,28c0,0,-33,9,-87,9H298V150ZM407,567c0,0,42,0,68,10c0,0,25,10,42,28c0,0,16,17,24,41c0,0,9,24,9,50c0,0,0,29,-9,52c0,0,-9,23,-27,39c0,0,-18,15,-45,23c0,0,-27,8,-72,8H298V567ZM164,0c0,0,-25,0,-42,15c0,0,-16,14,-16,47V903c0,0,0,33,16,48c0,0,17,14,42,14H406c0,0,88,0,150,-15c0,0,61,-15,103,-45c0,0,42,-30,65,-77c0,0,22,-46,22,-108c0,0,0,-36,-9,-67c0,0,-9,-31,-26,-56c0,0,-17,-25,-42,-45c0,0,-25,-19,-57,-31c0,0,41,-7,76,-26c0,0,34,-19,60,-48c0,0,26,-30,41,-69c0,0,15,-40,15,-89c0,0,0,-51,-14,-93c0,0,-15,-42,-40,-74c0,0,-25,-32,-59,-55c0,0,-35,-23,-77,-38C614,29,573,14,525,7C525,7,478,0,420,0Z" 
id="f0_i"
transform="scale(0.001,-0.001)" />

<path d="M320,-17c0,0,-50,0,-93,9c0,0,-43,8,-76,19c0,0,-32,11,-54,24C97,35,75,48,65,58c0,0,-10,9,-14,28c0,0,-4,18,-4,52c0,0,0,23,1,39c0,0,2,15,5,25c0,0,4,10,9,14c0,0,6,4,13,4c0,0,11,0,30,-12c0,0,19,-13,49,-28c0,0,30,-15,71,-27c0,0,42,-12,96,-12c0,0,36,0,64,8c0,0,29,9,49,25c0,0,19,15,30,38c0,0,10,23,10,52c0,0,0,33,-18,56c0,0,-18,24,-46,42c0,0,-29,18,-66,34c0,0,-36,16,-75,34c0,0,-39,18,-76,41c0,0,-36,23,-65,54c0,0,-29,32,-47,75c0,0,-17,44,-17,104c0,0,0,70,25,122c0,0,26,53,70,88c0,0,43,34,103,51c0,0,59,18,125,18c0,0,35,0,69,-6c0,0,34,-5,64,-14c0,0,30,-9,53,-20c0,0,23,-11,31,-18c0,0,7,-8,10,-13c0,0,3,-5,4,-14c0,0,2,-8,3,-21c0,0,1,-13,1,-33c0,0,0,-21,-1,-36c0,0,-1,-15,-4,-25c0,0,-3,-9,-7,-14c0,0,-5,-4,-14,-4c0,0,-8,0,-26,10c0,0,-18,10,-44,23c0,0,-26,12,-60,22c0,0,-34,10,-75,10c0,0,-32,0,-56,-8c0,0,-24,-8,-40,-21c0,0,-16,-14,-24,-34c0,0,-8,-19,-8,-41c0,0,0,-32,18,-56c0,0,17,-23,46,-42c0,0,30,-18,67,-34c0,0,38,-16,76,-34c0,0,39,-18,76,-41c0,0,38,-22,67,-54c0,0,29,-32,47,-75c0,0,18,-43,18,-101c0,0,0,-76,-29,-133c0,0,-28,-58,-77,-96C572,60,524,21,459,2c0,0,-65,-19,-139,-19Z" 
id="f0_2n"
transform="scale(0.001,-0.001)" />

<path d="M164,0c0,0,-25,0,-42,15c0,0,-16,14,-16,47V903c0,0,0,33,16,48c0,0,17,14,42,14H645c0,0,7,0,12,-4c0,0,5,-3,9,-13c0,0,4,-9,6,-24c0,0,2,-14,2,-36c0,0,0,-21,-2,-36c0,0,-2,-14,-6,-23c0,0,-4,-9,-9,-13c0,0,-5,-4,-12,-4H301V576H593c0,0,6,0,12,-4c0,0,6,-4,9,-13c0,0,4,-8,6,-23c0,0,2,-14,2,-35c0,0,0,-22,-2,-36c0,0,-2,-14,-6,-23c0,0,-3,-8,-9,-12c0,0,-6,-4,-12,-4H301V154H649c0,0,6,0,12,-5c0,0,5,-4,9,-13c0,0,4,-9,6,-23c0,0,2,-15,2,-36c0,0,0,-22,-2,-36c0,0,-2,-15,-6,-24c0,0,-4,-9,-9,-13c0,0,-6,-4,-12,-4Z" 
id="f0_t"
transform="scale(0.001,-0.001)" />

<path d="M79,297c0,0,-19,0,-27,18c0,0,-8,17,-8,60c0,0,0,41,8,59c0,0,8,17,27,17H389c0,0,9,0,15,-4c0,0,7,-4,11,-13c0,0,5,-9,7,-23c0,0,1,-15,1,-36c0,0,0,-43,-8,-61c0,0,-8,-17,-26,-17Z" 
id="f0_oj"
transform="scale(0.001,-0.001)" />

<path d="M121,-4c0,0,-39,0,-60,2C61,-2,39,0,32,8c0,0,-8,8,-3,24c0,0,4,15,18,41L279,495L64,892c0,0,-14,26,-19,42c0,0,-5,17,4,24c0,0,9,8,32,10c0,0,23,2,65,2c0,0,35,0,56,-2c0,0,20,-1,32,-4c0,0,12,-4,17,-10c0,0,5,-6,9,-15L431,620L595,939c0,0,5,9,10,15c0,0,5,6,16,10c0,0,10,3,29,4c0,0,19,2,53,2c0,0,37,0,59,-2c0,0,22,-2,30,-10c0,0,8,-8,4,-24c0,0,-4,-16,-17,-42L564,497L793,73c0,0,14,-26,18,-41c0,0,4,-16,-5,-24c0,0,-9,-8,-32,-10c0,0,-24,-2,-65,-2c0,0,-36,0,-56,2c0,0,-20,1,-31,3c0,0,-12,4,-17,10c0,0,-5,6,-9,15L414,374L233,26c0,0,-4,-9,-9,-15c0,0,-6,-6,-17,-10c0,0,-12,-2,-32,-3c0,0,-21,-2,-54,-2Z" 
id="f0_3e"
transform="scale(0.001,-0.001)" />

<path d="M204,-4c0,0,-28,0,-47,2c0,0,-19,2,-31,5c0,0,-11,4,-16,10c0,0,-4,6,-4,13V939c0,0,0,7,4,13c0,0,5,6,17,10c0,0,11,3,30,6c0,0,19,2,47,2c0,0,29,0,48,-2c0,0,18,-3,29,-6c0,0,11,-4,16,-10c0,0,5,-6,5,-13V26c0,0,0,-7,-5,-13c0,0,-5,-6,-16,-10c0,0,-11,-3,-29,-5c0,0,-19,-2,-48,-2Z" 
id="f0_1c"
transform="scale(0.001,-0.001)" />

<path d="M127,0c0,0,-16,0,-28,3C99,3,87,6,80,15c0,0,-8,8,-11,25c0,0,-3,16,-3,42c0,0,0,25,2,42c0,0,2,18,8,32c0,0,6,14,15,27c0,0,9,13,24,29L282,390c0,0,50,53,81,95c0,0,30,43,47,79c0,0,17,35,24,65c0,0,6,30,6,57c0,0,0,24,-8,46c0,0,-8,22,-23,39c0,0,-15,16,-38,25c0,0,-23,10,-55,10c0,0,-44,0,-78,-12c0,0,-33,-11,-59,-25c0,0,-26,-13,-43,-25c0,0,-17,-12,-27,-12c0,0,-7,0,-11,5c0,0,-5,4,-8,15c0,0,-3,10,-5,28c0,0,-2,17,-2,42c0,0,0,18,1,29c0,0,1,12,4,20c0,0,2,9,6,15c0,0,3,6,13,15c0,0,9,9,34,23c0,0,25,14,61,27c0,0,37,14,81,23c0,0,44,9,92,9c0,0,75,0,131,-19c0,0,57,-19,94,-53c0,0,37,-34,55,-81c0,0,19,-47,19,-100c0,0,0,-47,-9,-93c0,0,-9,-45,-37,-98c0,0,-29,-52,-80,-116c0,0,-52,-64,-136,-148L299,159H679c0,0,8,0,14,-4c0,0,6,-5,11,-14c0,0,4,-9,7,-25c0,0,2,-15,2,-36c0,0,0,-22,-2,-37c0,0,-2,-15,-6,-25c0,0,-3,-10,-9,-14c0,0,-6,-4,-14,-4Z" 
id="f0_rz"
transform="scale(0.001,-0.001)" />

<path d="M385,138c0,0,29,0,52,9c0,0,22,10,39,28c0,0,17,19,28,47c0,0,11,29,19,66c0,0,7,37,9,84c0,0,3,47,3,104c0,0,0,69,-4,122c0,0,-4,52,-11,91c0,0,-8,39,-20,66c0,0,-12,27,-28,43c0,0,-16,16,-37,22c0,0,-21,7,-47,7c0,0,-44,0,-73,-21c0,0,-28,-21,-45,-64c0,0,-17,-42,-24,-106c0,0,-6,-63,-6,-148c0,0,0,-103,8,-171c0,0,8,-67,26,-107c0,0,17,-40,45,-56c0,0,27,-16,66,-16ZM378,-17c0,0,-99,0,-164,33c0,0,-65,34,-103,98c0,0,-38,64,-54,156c0,0,-15,92,-15,209c0,0,0,115,19,208c0,0,19,94,61,160c0,0,42,65,110,101c0,0,68,35,165,35c0,0,99,0,164,-34c0,0,65,-34,103,-98c0,0,39,-64,53,-156c0,0,15,-92,15,-209c0,0,0,-115,-18,-209c0,0,-19,-93,-61,-159C653,118,611,53,543,17c0,0,-67,-34,-165,-34Z" 
id="f0_rx"
transform="scale(0.001,-0.001)" />

<path d="M142,0c0,0,-6,0,-12,4c0,0,-5,3,-9,12c0,0,-4,9,-6,23c0,0,-3,15,-3,36c0,0,0,21,2,36c0,0,2,14,6,23c0,0,4,9,10,13c0,0,5,5,12,5H322V779L166,693c0,0,-17,-8,-28,-10c0,0,-1,0,-3,0c-4,0,-10,1,-14,5c0,0,-6,6,-8,22c0,0,-2,15,-2,44c0,0,0,18,0,29c0,0,1,12,4,20c0,0,3,8,8,14c0,0,5,5,14,11L345,962c0,0,4,3,9,5c0,0,6,2,15,3c0,0,9,1,23,2c0,0,15,0,38,0c0,0,28,0,46,-1c0,0,17,-1,26,-4c0,0,9,-3,12,-7c0,0,3,-4,3,-11V152H675c0,0,7,0,12,-5c0,0,6,-4,10,-13c0,0,4,-9,6,-23c0,0,2,-15,2,-36c0,0,0,-21,-2,-36c0,0,-3,-14,-7,-23c0,0,-4,-9,-9,-12c0,0,-5,-4,-12,-4Z" 
id="f0_ry"
transform="scale(0.001,-0.001)" />

<path d="M259,-4c0,0,-39,0,-62,3c0,0,-23,1,-34,7c0,0,-11,6,-12,14c0,0,-1,9,5,21L498,796H92c0,0,-16,0,-24,20c0,0,-7,21,-7,65c0,0,0,22,2,38c0,0,2,16,6,27c0,0,4,10,10,15c0,0,6,4,13,4H666c0,0,13,0,22,-3c0,0,9,-2,14,-11c0,0,6,-9,8,-25c0,0,3,-17,3,-43c0,0,0,-22,-2,-38c0,0,-1,-16,-4,-30c0,0,-2,-13,-7,-26c0,0,-4,-12,-10,-26L372,26c0,0,-5,-10,-12,-16c0,0,-7,-6,-20,-9c0,0,-12,-3,-32,-4c0,0,-20,-1,-49,-1Z" 
id="f0_s4"
transform="scale(0.001,-0.001)" />

<path d="M589,371L453,782h-1L317,371ZM106,-4c0,0,-35,0,-54,2C52,-2,32,0,25,8c0,0,-7,9,-5,24c0,0,2,16,11,42L329,931c0,0,4,13,10,21c0,0,6,7,19,12c0,0,13,4,36,5c0,0,23,1,61,1c0,0,44,0,71,-1c0,0,26,-1,40,-5c0,0,15,-5,21,-13c0,0,6,-8,11,-22L896,73c0,0,9,-27,11,-43c0,0,3,-15,-6,-23c0,0,-8,-7,-29,-9c0,0,-21,-2,-57,-2c0,0,-38,0,-59,1c0,0,-22,1,-33,4c0,0,-11,3,-16,9c0,0,-4,6,-7,16L635,220H272L211,31c0,0,-2,-11,-7,-18c0,0,-5,-7,-16,-11c0,0,-11,-3,-31,-4c0,0,-19,-2,-51,-2Z" 
id="f0_5"
transform="scale(0.001,-0.001)" />

<path d="M198,-4c0,0,-27,0,-45,2c0,0,-18,2,-28,5c0,0,-11,4,-15,10c0,0,-4,6,-4,13V887c0,0,0,38,20,58c0,0,20,20,53,20H308c0,0,34,0,59,-6c0,0,24,-5,42,-18c0,0,18,-13,30,-35c0,0,12,-21,21,-52L669,279h3L889,852c0,0,9,32,21,53c0,0,11,22,27,35c0,0,15,14,36,19c0,0,21,6,48,6h132c0,0,21,0,35,-5c0,0,15,-5,24,-15c0,0,9,-11,14,-25c0,0,5,-15,5,-33V26c0,0,0,-7,-4,-13c0,0,-4,-6,-15,-10c0,0,-11,-3,-29,-5c0,0,-18,-2,-45,-2c0,0,-27,0,-45,2c0,0,-18,2,-28,5c0,0,-11,4,-15,10c0,0,-5,6,-5,13V813h-1L764,27c0,0,-3,-10,-10,-16c0,0,-6,-6,-18,-10c0,0,-12,-3,-29,-4c0,0,-18,-1,-44,-1c0,0,-25,0,-43,2c0,0,-18,2,-29,5c0,0,-12,4,-19,10c0,0,-6,6,-9,14L293,813h-2V26c0,0,0,-7,-4,-13c0,0,-4,-6,-15,-10c0,0,-11,-3,-29,-5c0,0,-17,-2,-45,-2Z" 
id="f0_1x"
transform="scale(0.001,-0.001)" />

<path d="M193,-4c0,0,-26,0,-43,2c0,0,-18,2,-27,6c0,0,-10,4,-14,10c0,0,-3,6,-3,13V895c0,0,0,35,20,53c0,0,21,17,50,17H282c0,0,28,0,47,-5c0,0,20,-5,35,-16c0,0,15,-11,29,-31c0,0,13,-20,27,-49L608,511c0,0,17,-32,33,-63c0,0,16,-31,31,-62c0,0,14,-31,29,-60c0,0,14,-30,27,-60h1c0,0,-2,52,-3,109c0,0,-1,57,-1,108V936c0,0,0,7,4,13c0,0,5,6,15,11c0,0,10,4,28,6c0,0,17,2,44,2c0,0,25,0,42,-2c0,0,17,-2,27,-6c0,0,9,-5,13,-11c0,0,4,-6,4,-13V68c0,0,0,-17,-6,-30c0,0,-6,-14,-17,-23C879,15,869,6,856,2c0,0,-14,-3,-28,-3H744c0,0,-26,0,-45,4c0,0,-19,5,-35,19c0,0,-16,14,-31,38c0,0,-15,23,-34,60L359,572c0,0,-21,40,-43,86c0,0,-21,47,-38,91h-2c0,0,3,-54,5,-107c0,0,2,-53,2,-110V27c0,0,0,-7,-5,-13c0,0,-4,-6,-14,-10c0,0,-10,-4,-27,-6c0,0,-17,-2,-44,-2Z" 
id="f0_1y"
transform="scale(0.001,-0.001)" />

<path d="M378,-4c0,0,-28,0,-47,2c0,0,-19,2,-31,5c0,0,-11,4,-16,10c0,0,-4,6,-4,13V805H38c0,0,-8,0,-13,4c0,0,-5,5,-9,14c0,0,-3,9,-5,25c0,0,-2,15,-2,37c0,0,0,22,2,38c0,0,2,15,5,25c0,0,4,9,9,13c0,0,5,4,13,4H718c0,0,7,0,12,-4c0,0,6,-4,10,-13c0,0,3,-10,5,-25c0,0,2,-16,2,-38c0,0,0,-22,-2,-37c0,0,-2,-16,-5,-25c0,0,-4,-9,-10,-14c0,0,-5,-4,-12,-4H476V26c0,0,0,-7,-5,-13c0,0,-5,-6,-16,-10c0,0,-11,-3,-30,-5c0,0,-19,-2,-47,-2Z" 
id="f0_2t"
transform="scale(0.001,-0.001)" />

<path d="M514,145c0,0,72,0,121,27c0,0,48,26,78,73c0,0,30,46,42,107c0,0,13,62,13,131c0,0,0,76,-12,139c0,0,-12,62,-41,106c0,0,-29,45,-76,69c0,0,-48,24,-120,24c0,0,-72,0,-120,-27c0,0,-49,-27,-79,-73c0,0,-29,-45,-42,-106c0,0,-12,-61,-12,-129c0,0,0,-79,12,-142c0,0,12,-63,40,-108c0,0,28,-44,76,-68c0,0,48,-23,120,-23ZM508,-17c0,0,-113,0,-196,29c0,0,-84,29,-140,90c0,0,-56,60,-84,154c0,0,-28,93,-28,221c0,0,0,117,29,210c0,0,30,94,89,160c0,0,59,65,146,101c0,0,87,35,202,35c0,0,110,0,194,-29c0,0,84,-30,140,-90c0,0,56,-60,85,-153c0,0,29,-92,29,-217c0,0,0,-120,-30,-215c0,0,-30,-95,-89,-161C855,118,796,52,709,17c0,0,-87,-34,-201,-34Z" 
id="f0_24"
transform="scale(0.001,-0.001)" />

<path d="M75,0L400,413c0,0,71,91,101,149c0,0,30,58,30,109c0,0,0,55,-36,91c0,0,-36,36,-91,36c0,0,-63,0,-91,-45c0,0,-28,-46,-34,-142H67c0,0,0,173,102,268c0,0,102,95,253,95c0,0,140,0,229,-82c0,0,89,-82,89,-209c0,0,0,-125,-104,-276L580,324c0,0,-34,-50,-85,-114L468,178H740V0Z" 
id="f1_m"
transform="scale(0.001,-0.001)" />

<path d="M441,402V711h-3L193,402ZM441,0V227H19V404L457,952H650V402h90V227H650V0Z" 
id="f1_o"
transform="scale(0.001,-0.001)" />

<path d="M44,-281L425,1053H537L156,-281Z" 
id="f1_j"
transform="scale(0.001,-0.001)" />

<path d="M403,168c0,0,50,0,85,37c0,0,35,36,35,89c0,0,0,50,-35,85c0,0,-35,36,-85,36c0,0,-47,0,-81,-37c0,0,-35,-37,-35,-89c0,0,0,-47,36,-84c0,0,35,-37,80,-37Zm3,426c0,0,39,0,70,28c0,0,31,29,31,65c0,0,0,46,-28,77c0,0,-29,31,-73,31c0,0,-42,0,-71,-29c0,0,-28,-29,-28,-70c0,0,0,-44,28,-73c0,0,29,-29,71,-29Zm2,-605c0,0,-145,0,-234,75c0,0,-90,76,-90,197c0,0,0,150,140,239c0,0,-59,52,-87,101c0,0,-27,49,-27,112c0,0,0,103,77,179c0,0,77,75,216,75c0,0,136,0,217,-68c0,0,81,-68,81,-180c0,0,0,-130,-115,-217c0,0,140,-90,140,-237c0,0,0,-124,-89,-200c0,0,-88,-76,-229,-76Z" 
id="f1_s"
transform="scale(0.001,-0.001)" />

<path d="M44,0V40L172,60V941L44,960v40H471V960L316,941V65H513c0,0,159,0,234,14l46,208h48L828,0Z" 
id="f2_1c"
transform="scale(0.001,-0.001)" />

<path d="M495,413c0,0,0,133,-34,190c0,0,-34,57,-105,57c0,0,-78,0,-119,-63c0,0,-42,-62,-42,-184ZM374,-14c0,0,-163,0,-239,87c0,0,-75,88,-75,283c0,0,0,183,77,273c0,0,76,91,219,91c0,0,269,0,269,-306V353H194V340c0,0,0,-103,23,-160c0,0,22,-57,70,-87c0,0,47,-29,124,-29c0,0,40,0,96,6c0,0,55,7,91,15V43C598,43,562,20,500,3c0,0,-61,-17,-126,-17Z" 
id="f2_21"
transform="scale(0.001,-0.001)" />

<path d="M249,-14c0,0,-71,0,-107,42c0,0,-35,42,-35,119V639H15v33l93,29l76,159h47V701H391V639H231V161c0,0,0,-48,22,-73c0,0,22,-24,57,-24c0,0,44,0,106,12V26C416,26,389,8,340,-2c0,0,-49,-12,-91,-12Z" 
id="f2_2g"
transform="scale(0.001,-0.001)" />

<path d="M284,67c0,0,51,0,88,12c0,0,37,12,74,30V358l-98,-3c0,0,-100,-4,-135,-39c0,0,-35,-35,-35,-117c0,0,0,-132,106,-132ZM233,-14c0,0,-179,0,-179,208c0,0,0,70,27,116c0,0,27,46,87,70c0,0,60,24,173,27l105,3V519c0,0,0,72,-26,107c0,0,-27,34,-82,34c0,0,-75,0,-137,-35L176,538H134V691c0,0,121,26,213,26c0,0,115,0,169,-47c0,0,54,-47,54,-144V52L657,33V0H465L451,70c0,0,-85,-84,-218,-84Z" 
id="f2_1x"
transform="scale(0.001,-0.001)" />

<path d="M439,0V33l93,19V500c0,0,0,62,-30,97c0,0,-31,36,-94,36c0,0,-67,0,-165,-22V52L338,33V0H35V33l84,19V649L35,668v33H235l7,-57c0,0,57,33,122,54c0,0,65,22,108,22c0,0,91,0,137,-53c0,0,47,-53,47,-154V52L741,33V0Z" 
id="f2_2a"
transform="scale(0.001,-0.001)" />

<path d="M148,-329c0,0,-58,0,-114,13v151H69l24,-71c0,0,23,-17,64,-17c0,0,39,0,72,22c0,0,33,23,60,67c0,0,27,44,68,157L90,649L19,668v33H344V668L233,648L423,158L606,649L497,668v33H758V668L685,652L411,-43c0,0,-48,-124,-84,-177c0,0,-36,-54,-79,-82c0,0,-44,-27,-100,-27Z" 
id="f2_2l"
transform="scale(0.001,-0.001)" />

<path d="M32,0V33L151,52V649L52,668v33H275V52L395,33V0ZM201,850c0,0,-32,0,-56,24c0,0,-24,24,-24,56c0,0,0,34,24,58c0,0,24,24,56,24c0,0,34,0,58,-24c0,0,24,-24,24,-58c0,0,0,-32,-24,-56c0,0,-24,-24,-58,-24Z" 
id="f2_25"
transform="scale(0.001,-0.001)" />

<path d="M278,-14c0,0,-52,0,-115,11c0,0,-63,10,-99,23V193H98L134,95c0,0,56,-50,146,-50c0,0,144,0,144,123c0,0,0,91,-114,130l-66,21c0,0,-75,25,-110,50c0,0,-34,26,-53,63c0,0,-18,36,-18,89c0,0,0,92,63,145c0,0,63,54,170,54c0,0,77,0,193,-23V544H454l-32,81c0,0,-39,35,-124,35c0,0,-61,0,-92,-30c0,0,-32,-30,-32,-80c0,0,0,-43,29,-72c0,0,28,-29,86,-48c0,0,110,-38,144,-55c0,0,33,-17,57,-42c0,0,23,-25,36,-57c0,0,13,-32,13,-79c0,0,0,-104,-66,-158c0,0,-66,-53,-195,-53Z" 
id="f2_2f"
transform="scale(0.001,-0.001)" />

<path d="M377,45c0,0,99,0,147,73c0,0,47,73,47,237c0,0,0,161,-47,233c0,0,-47,72,-147,72c0,0,-97,0,-141,-69c0,0,-44,-69,-44,-236c0,0,0,-169,45,-240c0,0,44,-70,140,-70Zm0,-59c0,0,-158,0,-238,94c0,0,-81,95,-81,274c0,0,0,178,81,272c0,0,80,94,244,94c0,0,160,0,241,-92c0,0,82,-92,82,-274c0,0,0,-368,-329,-368Z" 
id="f2_2b"
transform="scale(0.001,-0.001)" />

<path d="M31,0V33L150,52v956L31,1026v34H274V52L394,33V0Z" 
id="f2_28"
transform="scale(0.001,-0.001)" />

<path d="M431,0V33L535,52V499c0,0,0,62,-32,96c0,0,-32,33,-95,33c0,0,-66,0,-163,-22V52L350,33V0H32V33l89,19V649L32,668v33H237l6,-57c0,0,56,32,119,54c0,0,62,22,110,22c0,0,52,0,95,-20c0,0,44,-19,66,-62c0,0,57,32,134,57c0,0,77,25,128,25c0,0,179,0,179,-207V52l90,-19V0H846V33L950,52V499c0,0,0,129,-119,129c0,0,-19,0,-45,-3c0,0,-26,-3,-52,-7c0,0,-25,-4,-49,-8c0,0,-23,-5,-39,-8c0,0,13,-41,13,-89V52L764,33V0Z" 
id="f2_29"
transform="scale(0.001,-0.001)" />

<path d="M359,-270c0,0,124,0,192,46c0,0,67,47,67,129c0,0,0,43,-26,67c0,0,-26,24,-79,24H242c0,0,-32,-27,-51,-69c0,0,-20,-41,-20,-77c0,0,0,-64,46,-92c0,0,46,-28,142,-28Zm11,561c0,0,81,0,115,47c0,0,34,47,34,141c0,0,0,100,-35,142c0,0,-35,42,-113,42c0,0,-78,0,-114,-43c0,0,-37,-42,-37,-141c0,0,0,-98,36,-143c0,0,36,-45,114,-45ZM359,-329c0,0,-143,0,-218,44c0,0,-75,43,-75,125c0,0,0,39,27,78c0,0,26,38,98,89c0,0,-43,14,-72,48c0,0,-29,35,-29,74L208,262c0,0,-118,55,-118,217c0,0,0,115,73,178c0,0,73,63,211,63c0,0,28,0,71,-6c0,0,44,-6,67,-13l165,83l26,-32L599,644c0,0,50,-56,50,-165c0,0,0,-120,-72,-182c0,0,-73,-62,-208,-62c0,0,-62,0,-114,11L208,148c0,0,2,-13,29,-24c0,0,27,-12,67,-12H512c0,0,113,0,168,-49c0,0,55,-49,55,-134c0,0,0,-79,-44,-137c0,0,-43,-58,-128,-90c0,0,-84,-31,-204,-31Z" 
id="f2_23"
transform="scale(0.001,-0.001)" />

<path d="M399,-14c0,0,-341,0,-341,370c0,0,0,175,87,269c0,0,87,95,249,95c0,0,101,0,220,-23V501H573L541,625c0,0,-62,35,-149,35c0,0,-200,0,-200,-304c0,0,0,-158,61,-225c0,0,61,-67,189,-67c0,0,109,0,189,24V43C631,43,595,16,530,1c0,0,-64,-15,-131,-15Z" 
id="f2_1z"
transform="scale(0.001,-0.001)" />

<path d="M64,0V34L168,59V639H47v36l121,29v49c0,0,0,155,61,239c0,0,62,84,173,84c0,0,58,0,107,-15V908H472l-33,92c0,0,-26,16,-62,16c0,0,-47,0,-66,-42c0,0,-19,-42,-19,-157V701H478V639H292V59L443,34V0Z" 
id="f2_22"
transform="scale(0.001,-0.001)" />

<path d="M289,-14c0,0,-179,0,-179,205V649L20,668v33H233V200c0,0,0,-128,120,-128c0,0,92,0,173,23V649L420,668v33H649V52L738,33V0H533l-6,57C527,57,474,28,405,7c0,0,-69,-21,-116,-21Z" 
id="f2_2h"
transform="scale(0.001,-0.001)" />

<path d="M13,0V34L95,46L325,350L122,649L40,668v33H357V668L264,648L399,446L554,649l-96,19v33H710V668L630,652L433,397L663,50L745,34V0H427V34l94,17L359,299L169,50L266,34V0Z" 
id="f2_2k"
transform="scale(0.001,-0.001)" />

<path d="M477,0V33l64,19L348,354L257,254V52L331,33V0H44V33l89,19v956L29,1026v34H257V338L544,647l-73,20v34H718V667L631,650L431,446L688,50L764,33V0Z" 
id="f2_27"
transform="scale(0.001,-0.001)" />

<path d="M327,-14L84,649L1,668v33H335V668L219,648L385,174L554,632h63L786,171L944,649L830,668v33h267V668l-78,-16L784,-14H726L553,448L382,-14Z" 
id="f2_2j"
transform="scale(0.001,-0.001)" />

<path d="M442,0V33l93,19V504c0,0,0,129,-124,129c0,0,-70,0,-168,-22V52L338,33V0H31V33l88,19v956L15,1026v34H243V756c0,0,0,-77,-5,-112c0,0,54,31,122,53c0,0,68,23,115,23c0,0,91,0,137,-53c0,0,47,-53,47,-154V52L744,33V0Z" 
id="f2_24"
transform="scale(0.001,-0.001)" />

<path d="M31,0V33l88,19V649L31,668v33H235l7,-87c0,0,44,37,121,71c0,0,76,35,121,35h11V530H463l-43,82c0,0,-37,0,-88,-10c0,0,-52,-10,-89,-26V52L363,33V0Z" 
id="f2_2e"
transform="scale(0.001,-0.001)" />

<path d="M360,-14L72,649L0,668v33H327V668L216,648L420,164L615,649L504,668v33H764V668L697,652L416,-14Z" 
id="f2_2i"
transform="scale(0.001,-0.001)" />

<path d="M577,-14c0,0,-243,0,-379,131C198,117,63,248,63,488c0,0,0,263,131,393c0,0,132,130,386,130c0,0,182,0,352,-45V751H882L862,875c0,0,-52,37,-124,57c0,0,-72,19,-152,19c0,0,-191,0,-279,-113c0,0,-88,-114,-88,-348c0,0,0,-220,91,-333c0,0,91,-114,269,-114c0,0,63,0,131,15c0,0,69,15,105,36V377L686,397v40h370V397L958,377V52C958,52,871,24,778,5c0,0,-93,-19,-201,-19Z" 
id="f2_17"
transform="scale(0.001,-0.001)" />

<path d="M191,-20c0,0,-39,0,-65,25c0,0,-25,27,-25,64c0,0,0,38,26,64c0,0,26,26,64,26c0,0,38,0,64,-26c0,0,26,-26,26,-64c0,0,0,-37,-25,-64c0,0,-26,-25,-65,-25Z" 
id="f2_i"
transform="scale(0.001,-0.001)" />

<path d="M460,-325c0,0,-148,79,-231,172c0,0,-84,93,-123,217c0,0,-39,126,-39,304c0,0,0,178,39,303c0,0,39,125,122,217c0,0,82,93,232,172V997c0,0,-91,-52,-145,-134c0,0,-54,-81,-79,-190c0,0,-25,-109,-25,-305c0,0,0,-194,26,-309c0,0,26,-114,82,-193c0,0,56,-79,141,-128v-63Z" 
id="f2_c"
transform="scale(0.001,-0.001)" />

<path d="M420,-22L89,941L1,960v40H383V960L236,941L474,236L744,930h33L1037,236l227,705l-156,19v40h331V960l-87,-19L1025,-22H985L726,666L460,-22Z" 
id="f2_1n"
transform="scale(0.001,-0.001)" />

<path d="M58,-234v58c0,0,131,42,131,125c0,0,0,15,-11,27c0,0,-11,12,-38,25C140,1,89,27,89,75c0,0,0,40,25,61c0,0,26,21,65,21c0,0,48,0,77,-34c0,0,30,-34,30,-86c0,0,0,-101,-60,-170c0,0,-59,-69,-168,-101Z" 
id="f2_g"
transform="scale(0.001,-0.001)" />

<path d="M338,28c0,0,48,0,91,45c0,0,43,45,65,144c0,0,22,99,26,276H143c0,0,3,-133,20,-239c0,0,13,-80,44,-140c0,0,19,-36,54,-61c0,0,36,-25,77,-25ZM522,543c0,0,-1,194,-37,312c0,0,-29,90,-76,129c0,0,-34,28,-79,28c0,0,-51,0,-93,-39c0,0,-43,-40,-65,-132c0,0,-22,-93,-29,-298ZM329,-21c0,0,-68,0,-124,31c0,0,-56,33,-99,95c0,0,-43,62,-66,131C40,236,0,356,0,489c0,0,0,294,119,453c0,0,91,119,217,119c0,0,122,0,209,-115c0,0,121,-160,121,-436c0,0,0,-263,-119,-415C547,95,455,-21,329,-21Z" 
id="f3_2d"
transform="scale(0.001,-0.001)" />

<path d="M76,316v76H787V316Zm0,306v76H787V622Z" 
id="f2_x"
transform="scale(0.001,-0.001)" />

<path d="M256,-21c0,0,-56,0,-118,38C138,17,76,57,38,140C38,140,0,223,0,320c0,0,0,105,43,192c0,0,32,67,83,111c0,0,52,44,109,62c0,0,58,18,146,18V677c0,0,-103,-11,-171,-98c0,0,-67,-88,-67,-258c0,0,0,-167,51,-246c0,0,31,-47,88,-47c0,0,47,0,89,39c0,0,42,39,72,140c0,0,-33,87,-43,130c0,0,-10,42,-10,81c0,0,0,72,34,124c0,0,16,26,38,26c0,0,23,0,40,-26c0,0,32,-49,32,-120c0,0,0,-86,-49,-215c0,0,29,-102,68,-137c0,0,39,-36,89,-36c0,0,58,0,94,46c0,0,48,61,48,228c0,0,0,204,-90,301c0,0,-54,59,-149,68v26c0,0,125,0,205,-43c0,0,79,-43,128,-138c0,0,49,-95,49,-208c0,0,0,-96,-38,-176C889,138,851,59,785,18c0,0,-66,-39,-126,-39c0,0,-65,0,-111,36c0,0,-46,37,-83,115c0,0,-41,-79,-93,-116c0,0,-52,-35,-116,-35Z" 
id="f3_2j"
transform="scale(0.001,-0.001)" />

<path d="M383,64c0,0,85,0,152,28V645c0,0,-67,13,-152,13c0,0,-194,0,-194,-314c0,0,0,-141,48,-211c0,0,48,-69,146,-69ZM342,-14c0,0,-287,0,-287,358c0,0,0,184,82,280c0,0,81,96,239,96c0,0,81,0,163,-18c0,0,-4,25,-4,124v182l-118,18v34H659V52L745,33V0H548l-9,52c0,0,-84,-66,-197,-66Z" 
id="f2_20"
transform="scale(0.001,-0.001)" />

<path d="M376,50c0,0,103,0,149,80c0,0,46,81,46,240c0,0,0,137,-47,204c0,0,-48,67,-148,67c0,0,-44,0,-87,-7c0,0,-44,-8,-63,-17V62c0,0,63,-12,150,-12Zm3,-64c0,0,-64,0,-141,14c0,0,-78,14,-136,37v971L0,1026v34H226V809c0,0,0,-40,-4,-148c0,0,74,59,188,59c0,0,143,0,219,-87c0,0,77,-87,77,-263c0,0,0,-189,-84,-287c0,0,-84,-97,-243,-97Z" 
id="f2_1y"
transform="scale(0.001,-0.001)" />

<path d="M49,-325v63c0,0,85,49,140,128c0,0,56,79,83,194c0,0,26,115,26,308c0,0,0,196,-25,305c0,0,-25,109,-79,190c0,0,-54,82,-145,134v63c0,0,149,-80,232,-172c0,0,83,-92,122,-217c0,0,39,-125,39,-303c0,0,0,-177,-39,-303c0,0,-39,-125,-122,-217c0,0,-83,-93,-232,-173Z" 
id="f2_d"
transform="scale(0.001,-0.001)" />

<path d="M304,24V657c0,0,-49,-12,-76,-33c0,0,-42,-33,-68,-96c0,0,-26,-62,-26,-168c0,0,0,-118,30,-192c0,0,31,-75,76,-113c0,0,21,-19,64,-31Zm83,0c0,0,46,10,71,30c0,0,46,35,71,98c0,0,25,64,25,177c0,0,0,103,-23,175c0,0,-23,72,-64,110c0,0,-26,26,-80,43V24ZM304,-328V-20c0,0,-113,12,-182,70C122,50,0,154,0,339c0,0,0,73,19,131c0,0,18,58,50,102c0,0,32,44,70,72c0,0,37,28,80,42c0,0,31,10,85,17v358h83V703c0,0,149,-16,226,-117c0,0,78,-101,78,-241c0,0,0,-64,-18,-124c0,0,-19,-60,-49,-105c0,0,-30,-45,-68,-74c0,0,-37,-30,-82,-44c0,0,-31,-11,-87,-18V-328Z" 
id="f3_22"
transform="scale(0.001,-0.001)" />

<path d="M868,0L251,900V60L385,40V0H44V40L172,60V941L44,960v40H347L862,259V941L727,960v40h341V960L940,941V0Z" 
id="f2_1e"
transform="scale(0.001,-0.001)" />

<path d="M536,63c0,0,127,0,191,54c0,0,63,54,63,168c0,0,0,105,-70,154c0,0,-70,49,-225,49H316V67c0,0,103,-4,220,-4ZM480,555c0,0,121,0,178,48c0,0,57,48,57,155c0,0,0,91,-58,133c0,0,-57,42,-186,42H316V555ZM554,-4L235,0H44V40L172,60V941L44,960v40H501c0,0,191,0,279,-56c0,0,88,-56,88,-179c0,0,0,-88,-55,-149c0,0,-54,-62,-151,-83c0,0,135,-14,209,-79c0,0,73,-65,73,-166c0,0,0,-144,-99,-219C845,69,745,-4,554,-4Z" 
id="f2_12"
transform="scale(0.001,-0.001)" />

<path d="M681,416L504,902L333,416ZM669,0V40L803,60L704,348H310L210,60L344,40V0H15V40L128,60l341,949H611L965,60L1092,40V0Z" 
id="f2_11"
transform="scale(0.001,-0.001)" />

<path d="M301,78c0,0,41,0,90,27c0,0,49,28,95,77l81,442c0,0,-26,18,-54,27c0,0,-27,10,-67,10c0,0,-70,0,-131,-55c0,0,-61,-55,-99,-152c0,0,-37,-97,-37,-201c0,0,0,-79,33,-127c0,0,33,-48,89,-48ZM245,-14c0,0,-91,0,-145,68c0,0,-54,69,-54,183c0,0,0,128,55,240c0,0,55,112,150,177c0,0,96,66,210,66c0,0,70,0,123,-18c0,0,3,36,51,306l-115,18l6,34H768L589,52L673,33L667,0H454l22,117C476,117,350,-14,245,-14Z" 
id="f4_20"
transform="scale(0.001,-0.001)" />

<path d="M712,0L354,900L205,60L336,40L329,0H-10l7,40L127,60L283,941L157,960l8,40H454L752,250L873,941L742,960l7,40h341l-8,-40L951,941L785,0Z" 
id="f4_1e"
transform="scale(0.001,-0.001)" />

<path d="M459,63c0,0,143,0,210,55c0,0,67,56,67,185c0,0,0,101,-66,146c0,0,-66,46,-190,46H341L266,67c0,0,114,-4,193,-4Zm18,499c0,0,144,0,206,49c0,0,61,48,61,170c0,0,0,77,-48,115c0,0,-48,37,-160,37H419L353,562ZM459,-4L173,0H14l8,40l99,20L277,941L151,960l8,40H570c0,0,330,0,330,-210c0,0,0,-105,-66,-174c0,0,-66,-69,-184,-85c0,0,115,-9,179,-69c0,0,63,-59,63,-157c0,0,0,-160,-108,-235C784,70,675,-4,459,-4Z" 
id="f4_12"
transform="scale(0.001,-0.001)" />

<path d="M631,416L539,902L283,416ZM576,0l8,40L691,60L643,348H249L96,60L197,40L189,0H-83l8,40L7,60l509,949H659L845,60L938,40L930,0Z" 
id="f4_11"
transform="scale(0.001,-0.001)" />

<path d="M200,-14c0,0,-59,0,-93,35c0,0,-34,36,-34,100c0,0,0,22,4,51c0,0,4,30,82,467H67l6,33l99,29L275,860h47L295,701H455L443,639H283L210,230c0,0,-13,-69,-13,-99c0,0,0,-34,17,-51c0,0,17,-16,43,-16c0,0,54,0,113,21L386,50c0,0,-92,-64,-186,-64Z" 
id="f4_2g"
transform="scale(0.001,-0.001)" />

<path d="M83,0C83,0,48,0,24,24C24,24,0,49,0,83c0,0,0,34,24,58c0,0,24,24,59,24c0,0,34,0,58,-24c0,0,24,-24,24,-58c0,0,0,-34,-24,-59C141,24,117,0,83,0ZM695,0c0,0,-34,0,-58,24c0,0,-25,25,-25,59c0,0,0,34,25,58c0,0,24,24,58,24c0,0,34,0,58,-24c0,0,24,-24,24,-58c0,0,0,-34,-24,-59C753,24,729,0,695,0ZM388,594c0,0,-34,0,-59,23c0,0,-24,24,-24,59c0,0,0,34,24,58c0,0,25,25,59,25c0,0,34,0,58,-25c0,0,24,-24,24,-58c0,0,0,-35,-24,-59c0,0,-24,-23,-58,-23Z" 
id="f3_1s"
transform="scale(0.001,-0.001)" />

<path d="M0,214v74H784V214ZM0,494v72H784V494Z" 
id="f3_x"
transform="scale(0.001,-0.001)" />

<path d="M0,356v74H784V356Z" 
id="f3_h"
transform="scale(0.001,-0.001)" />

<path d="M54,0V40L172,60V941L44,960v40H794V760H745L721,922c0,0,-83,11,-241,11H316V516H611l23,120h46V328H634L611,449H316V60L483,40V0Z" 
id="f2_16"
transform="scale(0.001,-0.001)" />

<path d="M110,641L64,1000H211L165,641Z" 
id="f2_b"
transform="scale(0.001,-0.001)" />

<path d="M44,0V40L172,60V941L44,960v40H794V760H745L721,922c0,0,-83,11,-241,11H316V543H586l23,119h48V354H609L586,475H316V67H513c0,0,193,0,252,12l43,185h49L843,0Z" 
id="f2_15"
transform="scale(0.001,-0.001)" />

<path d="M617,0L251,860V60L385,40V0H44V40L172,60V941L44,960v40H347L672,239l355,761h287V960L1185,941V60L1314,40V0H908V40l134,20V859L643,0Z" 
id="f2_1d"
transform="scale(0.001,-0.001)" />

<path d="M55,0V40L184,60V941L55,960v40H455V960L327,941V60L455,40V0Z" 
id="f2_19"
transform="scale(0.001,-0.001)" />

<path d="M377,45c0,0,99,0,145,108c0,0,46,109,46,352c0,0,0,240,-45,345c0,0,-46,106,-146,106c0,0,-97,0,-139,-100c0,0,-43,-99,-43,-351c0,0,0,-254,44,-357c0,0,43,-103,138,-103Zm0,-59c0,0,-158,0,-238,132c0,0,-81,133,-81,386c0,0,0,249,81,380c0,0,80,132,244,132c0,0,159,0,241,-130c0,0,82,-130,82,-382c0,0,0,-518,-329,-518Z" 
id="f2_k"
transform="scale(0.001,-0.001)" />

<path d="M382,45c0,0,188,0,188,314c0,0,0,143,-47,213c0,0,-46,69,-141,69c0,0,-87,0,-146,-24V58c0,0,67,-13,146,-13ZM25,-325v35l88,18V649L34,668v33H231l1,-41c0,0,31,27,84,43c0,0,53,17,107,17c0,0,134,0,208,-94c0,0,73,-93,73,-267c0,0,0,-178,-80,-276c0,0,-80,-97,-232,-97c0,0,-84,0,-160,16c0,0,4,-53,4,-84V-272l123,-18v-35Z" 
id="f2_2c"
transform="scale(0.001,-0.001)" />

<path d="M235,0V40L394,60V936H356c0,0,-189,0,-258,-15L78,766H28v234H908V766H857L837,921c0,0,-22,5,-98,9c0,0,-75,4,-165,4H538V60L697,40V0Z" 
id="f2_1k"
transform="scale(0.001,-0.001)" />

<path d="M233,-289C233,-289,81,3,81,338c0,0,0,176,32,324c0,0,32,148,120,319L338,933c0,0,-82,-159,-112,-282c0,0,-30,-123,-30,-280c0,0,0,-180,29,-311c0,0,29,-131,106,-294l-98,-55Z" 
id="f5_c"
transform="scale(0.001,-0.001)" />

<path d="M429,105c0,0,82,0,141,60c0,0,60,61,60,145c0,0,0,85,-61,145c0,0,-60,60,-146,60c0,0,-83,0,-144,-61c0,0,-61,-61,-61,-144c0,0,0,-86,61,-146c0,0,61,-59,150,-59ZM479,-17c0,0,-73,0,-140,39c0,0,-66,40,-104,108V0H107V968H235V494c0,0,82,140,237,140c0,0,119,0,207,-96c0,0,88,-96,88,-227c0,0,0,-132,-86,-230c0,0,-87,-98,-202,-98Z" 
id="f5_1y"
transform="scale(0.001,-0.001)" />

<path d="M175,-293L74,-239c0,0,93,213,115,326c0,0,22,115,22,264c0,0,0,169,-30,300c0,0,-31,131,-115,282l102,48c0,0,159,-271,159,-642c0,0,0,-328,-152,-632Z" 
id="f5_d"
transform="scale(0.001,-0.001)" />

<path d="M350,-14c0,0,-142,0,-253,31L89,228h49L172,87c0,0,32,-18,78,-29c0,0,46,-11,88,-11c0,0,118,0,173,56c0,0,56,55,56,187c0,0,0,93,-24,140c0,0,-24,47,-76,70c0,0,-52,22,-140,22c0,0,-68,0,-133,-18H122v496H630V886H189V567c0,0,81,18,173,18c0,0,173,0,258,-71c0,0,84,-71,84,-216c0,0,0,-151,-92,-232c0,0,-91,-80,-262,-80Z" 
id="f2_p"
transform="scale(0.001,-0.001)" />

<path d="M0,-14L351,1007h73L75,-14Z" 
id="f2_j"
transform="scale(0.001,-0.001)" />

<path d="M41,0V34L426,641H261c0,0,-42,0,-80,-7c0,0,-39,-7,-54,-19L104,515H69V701H586V665L201,60H407c0,0,42,0,89,10c0,0,47,10,66,25l39,147h35L617,0Z" 
id="f2_2m"
transform="scale(0.001,-0.001)" />

<path d="M350,-14c0,0,-142,0,-269,31L73,228h49L156,87c0,0,29,-16,82,-28c0,0,54,-12,100,-12c0,0,117,0,173,54c0,0,56,53,56,178c0,0,0,99,-52,150c0,0,-51,51,-159,56l-107,6v61l107,7c0,0,84,5,124,52c0,0,41,48,41,145c0,0,0,101,-44,147c0,0,-44,45,-139,45c0,0,-40,0,-83,-10c0,0,-43,-11,-76,-29L153,786H104V979c0,0,74,19,127,26c0,0,54,6,107,6c0,0,321,0,321,-246c0,0,0,-104,-57,-165c0,0,-57,-62,-162,-77c0,0,136,-16,200,-78c0,0,64,-62,64,-173c0,0,0,-135,-92,-211c0,0,-93,-75,-262,-75Z" 
id="f2_n"
transform="scale(0.001,-0.001)" />

<path d="M174,197l-53,54L377,509L121,764l55,55L431,563L689,819l53,-53L486,509L742,251L689,197L431,454L174,197Z" 
id="f2_4a"
transform="scale(0.001,-0.001)" />

<path d="M134,0V40L339,60V876L137,804v39l292,166h39V60L672,40V0Z" 
id="f2_l"
transform="scale(0.001,-0.001)" />

<path d="M57,302V417H454V302Z" 
id="f2_h"
transform="scale(0.001,-0.001)" />

<path d="M476,327V830h-4L114,327ZM476,0V220H30v99l488,686h86V327H740V220H604V0Z" 
id="f2_o"
transform="scale(0.001,-0.001)" />

<path d="M67,0V109L206,235c0,0,133,118,196,190c0,0,63,72,90,149c0,0,27,77,27,177c0,0,0,97,-44,148c0,0,-44,50,-144,50c0,0,-39,0,-81,-10c0,0,-42,-11,-74,-29L150,787H101V980c0,0,135,32,230,32c0,0,164,0,247,-68c0,0,82,-69,82,-193c0,0,0,-84,-32,-158c0,0,-33,-75,-100,-148c0,0,-67,-74,-222,-206c0,0,-67,-57,-141,-125H680V0Z" 
id="f2_m"
transform="scale(0.001,-0.001)" />

<path d="M105,-4c0,0,-18,0,-30,2c0,0,-11,1,-18,3c0,0,-6,3,-8,7c0,0,-2,4,0,10l198,997c0,0,2,6,5,11c0,0,4,4,11,7c0,0,8,3,20,5c0,0,13,1,31,1c0,0,18,0,30,-1c0,0,11,-2,18,-5c0,0,6,-3,8,-7c0,0,1,-5,1,-11L172,18c0,0,-2,-6,-5,-10c0,0,-4,-4,-12,-7c0,0,-7,-2,-20,-3c0,0,-12,-2,-30,-2Z" 
id="f6_a8"
transform="scale(0.001,-0.001)" />


</defs>
</svg>