<?xml version="1.0" encoding="UTF-8" standalone="no"?>
<!DOCTYPE svg PUBLIC "-//W3C//DTD SVG 1.1//EN"
"http://www.w3.org/Graphics/SVG/1.1/DTD/svg11.dtd">
<svg viewBox="0 0 909 1286" version="1.1" xmlns="http://www.w3.org/2000/svg" xmlns:xlink="http://www.w3.org/1999/xlink">
<defs>
<clipPath id="c0_4"><path d="M158.8,595.6V574.3h16.5v21.3Z" /></clipPath>
<clipPath id="c1_4"><path d="M210.8,595.6V574.3h18.7v21.3Z" /></clipPath>
<clipPath id="c2_4"><path d="M158.8,676.3V655h48.7v21.3Z" /></clipPath>
<clipPath id="c3_4"><path d="M296.3,780V758.8h16.5V780Z" /></clipPath>
<clipPath id="c4_4"><path d="M347.6,780V758.8h18.7V780Z" /></clipPath>
<style type="text/css"><![CDATA[
.g0_4{
fill: none;
stroke: #FFFFFF;
stroke-width: 0.77152777;
stroke-linecap: round;
stroke-linejoin: round;
}
.g1_4{
fill: #FFFFFF;
}
.g2_4{
fill: #1F1A17;
}
.g3_4{
fill: none;
stroke: #000000;
stroke-width: 0.9029167;
stroke-linecap: round;
stroke-linejoin: round;
}
.g4_4{
fill: none;
stroke: #000000;
stroke-width: 0.36666667;
stroke-linecap: butt;
stroke-linejoin: miter;
stroke-miterlimit: 2;
}
.g5_4{
}
.g6_4{
fill: none;
stroke: #000000;
stroke-width: 0.9059723;
stroke-linecap: round;
stroke-linejoin: round;
}
.g7_4{
fill: none;
stroke: #000000;
stroke-width: 0.9105556;
stroke-linecap: round;
stroke-linejoin: round;
}
]]></style>
</defs>
<path d="M512.4,486.7l6.2,9.7l5.4,8.5l4.1,8.7l2,8.5l1.1,7.7l1.2,6.7l-1.2,6.7l-2.1,6.7l-2,4.9l-3.1,5.6l-3.1,4.9l-3.4,3.9l-7.1,6.6l-6.5,4.7l-11.5,6.9l-10.3,6.7l-11.6,5.6L459,606.4l-6.4,3.9l-6.2,4.9l-5.4,4.6l-5.1,5.9l-4.1,6.7l-3.4,7.4l-1,9.8l-1,10.5l-6.2,-10.5l-5.4,-10.5l-3.1,-10.6l-1,-10.5v-4.9l1,-4.9l1.1,-4.6l2,-3.9l2.1,-4.8l3.3,-3.9l3.1,-3.6l4.1,-3.8l17,-11.6l16.7,-9.5l14.6,-8.8L489.3,546l6.4,-4.6l5.2,-6.7L505,528l3.3,-7.7l2.1,-8.7l2,-7.7V486.7" class="g0_4" />
<path fill-rule="evenodd" d="M279.7,577.6L310,573.8l1.1,9.8v9.5l-1.1,1l-1,1.8l-2.1,1.8h-2l-2.1,1h-3.3l-2,-1l-2.1,-1.8l-2.1,-2.8l-11.5,9.5l-1,-9.5l11.5,-8.8l-11.5,1l-1.1,-7.7Zm16.7,6v1.7l1.1,2.1l1,1.8l1,1h3.3l1.1,-1l1,-1.8v-4.9l-8.5,1.1Zm2.1,36.2l2,8.7l9.5,-6.6l1.1,-1.1h1l1,-1H298.5Zm-14.7,-7.7l32.7,1l3.1,10.5l-26.3,20.1l-2,-8.5l4.1,-2.8l-3.1,-12.6h-5.4l-3.1,-7.7ZM329,673.5l-2.3,.8l-3,1l-3.1,1l-3.1,-1l-3.4,-1l-3,-.8L309,670.7l-2.1,-2.1l-2,-3.8l-1,-2.9v-6.6l1,-2.9l2,-2.8l1.1,-3.1l3.1,-1.8l2,-1.8l3.4,-1h6.1l3.1,1l3.3,1.8l2.1,1.8l2.1,3.1l2,2.8l1,2.9v6.6l-1,3.9l-1,2.8l-2.1,2.1l-3.1,2.8ZM312.1,664l3.3,2.8l3.1,.8h3.1l3.1,-1.8l2,-2.8l2.3,-2.9v-3.8l-1,-2.8l-2.3,-2.1l-3.1,-1h-4.1l-3.1,1l-2.3,2.8l-2,2.9v3.8l1,3.1Zm31.6,45l18.7,-26l6.4,5.7l-19,25.9L343.7,709Zm20.8,15.2l14.9,-28.9l7.2,4.9L371.9,728l-7.4,-3.8Zm26.2,12.5l7.4,-23.1L392,710.8l3.1,-6.7l19.7,7.7l-2,6.7l-6.2,-2.1l-8.5,23.2l-7.4,-2.9Zm58.8,-1H458l-4.4,-10.5v-2.9l-1,-2v3.9l-1,1l-2.1,10.5Zm-11.6,11.6l9.5,-31.7H458l11.5,31.7h-8.4L459,741.4H447.4l-1,5.9h-8.5ZM494.7,709l2.1,9.5l-2.1,-2.1h-5.4l-3.1,1.1l-2,2.8l-1,3.9l1,2.8l1,3.8l2.1,2.1l3,.7h3.1l2.3,-.7l1.1,-1l2,-1.1l1,-2.8l2.1,9.5l-1,1l-2.1,2.1l-2,.8h-2.1l-2.3,1h-4.1l-2.1,-1l-4.1,-1.8l-2.3,-2.9l-3.1,-3.1l-1,-3.6l-1,-3.8v-3.1l1,-3.6l1,-3.1l2.1,-2.8l2.3,-1.8l2.1,-1l3,-1.8h8.5Zm22.9,10.5l7.4,-4.9l-7.4,-7.7h-1.1v-1l-1,-.8l-1,-1v1l1,.8v2l2.1,11.6Zm-5.2,15.2l-4.1,-33.4l8.2,-4.9l24.2,23.9l-7.2,3.9l-4.4,-4.7l-10.5,5.7l1.3,5.6l-7.5,3.9Zm37.8,-22.1L529.1,689.7l5.4,-4.9l4.1,-4.6l3.1,-2.1l3.3,-1.8h6.2l3.1,1.1l3.1,.7l3.3,3.1l2.1,3.6l1,3.1l1,3.8v3.6l-1,2.1l-1,2.8l-3.1,2.9l-3.4,3.8l-1,1l-5.1,4.7Zm2,-11.3l1.1,-1.1l2,-2.8l1,-3.8v-2.9l-2,-2.8l-3.1,-3.1l-3.1,-.8l-3.1,.8l-3.3,3.1l-1,.8l11.5,12.6Zm28.3,-20.1L555.3,663l11.6,-16.5l5.4,3.9l-6.5,9.7L570,663l6.4,-8.8l5.1,3.9l-6.2,8.7l4.1,3.9l6.5,-9.8l6.1,4.9l-11.5,15.4ZM613.1,618l-3.1,7.7l-13.6,-3.8h-1.3l-1,-1.1l-2.1,-1h-2l2,1l2.1,1.8l1,1l11.6,9.5l-2.1,4.9L590,637h-1l-3.1,-1h-2.1l2.1,1h1l2.1,1l1,1.1l11.5,7.4l-3,7L572.3,637l3,-7.7l16.7,1v1.1h4.4h-1.3l-1,-1.1l-1,-1l-1.1,-.8L579.4,618l3.1,-7.7l30.6,7.7Zm2.1,-21.1l-13.7,-2l-17.7,8.7l1.1,-9.5l8.2,-3.1l2,-.8h1.3l-1.3,-1h-1l-1,-1l-6.2,-4.6l1,-10.6l14.7,14.4l13.6,1.8l-1,7.7Z" class="g1_4" />
<g fill="#000000" >
<use xlink:href="#f0_1j" transform="matrix(12,0,0,12,400.8,88.7)" />
<use xlink:href="#f0_15" transform="matrix(12,0,0,12,411,88.7)" />
<use xlink:href="#f0_13" transform="matrix(12,0,0,12,423.2,88.7)" />
<use xlink:href="#f0_1k" transform="matrix(12,0,0,12,436.4,88.7)" />
<use xlink:href="#f0_19" transform="matrix(12,0,0,12,448.6,88.7)" />
<use xlink:href="#f0_1f" transform="matrix(12,0,0,12,455.8,88.7)" />
<use xlink:href="#f0_1e" transform="matrix(12,0,0,12,470,88.7)" />
<use xlink:href="#f0_h" transform="matrix(12,0,0,12,486.9,88.7)" />
<use xlink:href="#f0_13" transform="matrix(12,0,0,12,496.5,88.7)" />
<use xlink:href="#f1_l" transform="matrix(12,0,0,12,64.9,124.4)" />
<use xlink:href="#f1_l" transform="matrix(12,0,0,12,73,124.4)" />
<use xlink:href="#f1_i" transform="matrix(12,0,0,12,81.8,124.4)" />
<use xlink:href="#f1_16" transform="matrix(12,0,0,12,117,124.4)" />
<use xlink:href="#f1_2b" transform="matrix(12,0,0,12,126.9,124.4)" />
<use xlink:href="#f1_2h" transform="matrix(12,0,0,12,136.4,124.4)" />
<use xlink:href="#f1_2e" transform="matrix(12,0,0,12,145.2,124.4)" />
<use xlink:href="#f1_2c" transform="matrix(12,0,0,12,155.1,124.4)" />
<use xlink:href="#f1_2b" transform="matrix(12,0,0,12,164.3,124.4)" />
<use xlink:href="#f1_25" transform="matrix(12,0,0,12,173.5,124.4)" />
<use xlink:href="#f1_2a" transform="matrix(12,0,0,12,177.9,124.4)" />
<use xlink:href="#f1_2g" transform="matrix(12,0,0,12,186.7,124.4)" />
<use xlink:href="#f1_1z" transform="matrix(12,0,0,12,195.2,124.4)" />
<use xlink:href="#f1_24" transform="matrix(12,0,0,12,203.2,124.4)" />
<use xlink:href="#f1_1x" transform="matrix(12,0,0,12,212.1,124.4)" />
<use xlink:href="#f1_2e" transform="matrix(12,0,0,12,220.1,124.4)" />
<use xlink:href="#f1_23" transform="matrix(12,0,0,12,226.4,124.4)" />
<use xlink:href="#f1_21" transform="matrix(12,0,0,12,235.2,124.4)" />
<use xlink:href="#f1_2f" transform="matrix(12,0,0,12,243.3,124.4)" />
<use xlink:href="#f1_1h" transform="matrix(12,0,0,12,253.9,124.4)" />
<use xlink:href="#f1_g" transform="matrix(12,0,0,12,266.8,124.4)" />
<use xlink:href="#f1_2d" transform="matrix(12,0,0,12,275.2,124.4)" />
<use xlink:href="#f1_g" transform="matrix(12,0,0,12,284.4,124.4)" />
<use xlink:href="#f1_1h" transform="matrix(12,0,0,12,292.5,124.4)" />
<use xlink:href="#f1_1x" transform="matrix(12,0,0,12,309,124.4)" />
<use xlink:href="#f1_2a" transform="matrix(12,0,0,12,317.1,124.4)" />
<use xlink:href="#f1_20" transform="matrix(12,0,0,12,325.6,124.4)" />
<use xlink:href="#f1_2d" transform="matrix(12,0,0,12,338.4,124.4)" />
<use xlink:href="#f1_1x" transform="matrix(12,0,0,12,350.9,124.4)" />
<use xlink:href="#f1_2e" transform="matrix(12,0,0,12,359,124.4)" />
<use xlink:href="#f1_21" transform="matrix(12,0,0,12,365.2,124.4)" />
<use xlink:href="#f1_2c" transform="matrix(12,0,0,12,377,124.4)" />
<use xlink:href="#f1_28" transform="matrix(12,0,0,12,385.8,124.4)" />
<use xlink:href="#f1_1x" transform="matrix(12,0,0,12,390.2,124.4)" />
<use xlink:href="#f1_1z" transform="matrix(12,0,0,12,398.3,124.4)" />
<use xlink:href="#f1_21" transform="matrix(12,0,0,12,406.4,124.4)" />
<use xlink:href="#f1_20" transform="matrix(12,0,0,12,414.1,124.4)" />
<use xlink:href="#f1_1x" transform="matrix(12,0,0,12,426.6,124.4)" />
<use xlink:href="#f1_2g" transform="matrix(12,0,0,12,434.7,124.4)" />
<use xlink:href="#f1_2g" transform="matrix(12,0,0,12,443.5,124.4)" />
<use xlink:href="#f1_24" transform="matrix(12,0,0,12,449,124.4)" />
<use xlink:href="#f1_21" transform="matrix(12,0,0,12,457.8,124.4)" />
<use xlink:href="#f1_1z" transform="matrix(12,0,0,12,469.2,124.4)" />
<use xlink:href="#f1_2b" transform="matrix(12,0,0,12,477.3,124.4)" />
<use xlink:href="#f1_2e" transform="matrix(12,0,0,12,486.8,124.4)" />
<use xlink:href="#f1_2a" transform="matrix(12,0,0,12,493,124.4)" />
<use xlink:href="#f1_21" transform="matrix(12,0,0,12,501.5,124.4)" />
<use xlink:href="#f1_2e" transform="matrix(12,0,0,12,509.6,124.4)" />
<use xlink:href="#f1_2f" transform="matrix(12,0,0,12,515.8,124.4)" />
<use xlink:href="#f1_2b" transform="matrix(12,0,0,12,526.5,124.4)" />
<use xlink:href="#f1_22" transform="matrix(12,0,0,12,535.6,124.4)" />
<use xlink:href="#f1_1x" transform="matrix(12,0,0,12,544.5,124.4)" />
<use xlink:href="#f1_2f" transform="matrix(12,0,0,12,555.9,124.4)" />
<use xlink:href="#f1_2d" transform="matrix(12,0,0,12,562.9,124.4)" />
<use xlink:href="#f1_2h" transform="matrix(12,0,0,12,572,124.4)" />
<use xlink:href="#f1_1x" transform="matrix(12,0,0,12,581.2,124.4)" />
<use xlink:href="#f1_2e" transform="matrix(12,0,0,12,588.9,124.4)" />
<use xlink:href="#f1_21" transform="matrix(12,0,0,12,595.1,124.4)" />
<use xlink:href="#f1_2b" transform="matrix(12,0,0,12,606.9,124.4)" />
<use xlink:href="#f1_22" transform="matrix(12,0,0,12,616.4,124.4)" />
<use xlink:href="#f1_2f" transform="matrix(12,0,0,12,625.3,124.4)" />
<use xlink:href="#f1_25" transform="matrix(12,0,0,12,632.2,124.4)" />
<use xlink:href="#f1_20" transform="matrix(12,0,0,12,636.7,124.4)" />
<use xlink:href="#f1_21" transform="matrix(12,0,0,12,645.5,124.4)" />
<use xlink:href="#f1_52" transform="matrix(12,0,0,12,656.9,124.4)" />
<use xlink:href="#f1_1x" transform="matrix(12,0,0,12,662.8,124.4)" />
<use xlink:href="#f1_53" transform="matrix(12,0,0,12,670.5,124.4)" />
<use xlink:href="#f1_1x" transform="matrix(12,0,0,12,680.1,124.4)" />
<use xlink:href="#f1_2f" transform="matrix(12,0,0,12,688.1,124.4)" />
<use xlink:href="#f1_2f" transform="matrix(12,0,0,12,698.4,124.4)" />
<use xlink:href="#f1_24" transform="matrix(12,0,0,12,705.4,124.4)" />
<use xlink:href="#f1_2b" transform="matrix(12,0,0,12,714.2,124.4)" />
<use xlink:href="#f1_2j" transform="matrix(12,0,0,12,723.8,124.4)" />
<use xlink:href="#f1_2a" transform="matrix(12,0,0,12,736.6,124.4)" />
<use xlink:href="#f1_25" transform="matrix(12,0,0,12,749.1,124.4)" />
<use xlink:href="#f1_2a" transform="matrix(12,0,0,12,753.5,124.4)" />
<use xlink:href="#f1_2g" transform="matrix(12,0,0,12,765.3,124.4)" />
<use xlink:href="#f1_24" transform="matrix(12,0,0,12,770.8,124.4)" />
<use xlink:href="#f1_21" transform="matrix(12,0,0,12,779.6,124.4)" />
<use xlink:href="#f1_22" transform="matrix(12,0,0,12,791,124.4)" />
<use xlink:href="#f1_25" transform="matrix(12,0,0,12,795.3,124.4)" />
<use xlink:href="#f1_23" transform="matrix(12,0,0,12,799.7,124.4)" />
<use xlink:href="#f1_2h" transform="matrix(12,0,0,12,808.9,124.4)" />
<use xlink:href="#f1_2e" transform="matrix(12,0,0,12,817.7,124.4)" />
<use xlink:href="#f1_21" transform="matrix(12,0,0,12,823.9,124.4)" />
<use xlink:href="#f1_i" transform="matrix(12,0,0,12,832,124.4)" />
</g>
<path d="M504.1,250.2l-.7,.8H408.5v-1.9h94.9l.7,1.1Zm0,0v.8h-.7l.7,-.8Zm-.7,-92.1l.7,.8v91.3h-1.4V158.9l.7,-.8Zm0,0h.7v.8l-.7,-.8Zm-95.6,.8l.7,-.8h94.9v1.5H408.5l-.7,-.7Zm0,0v-.8h.7l-.7,.8Zm.7,92.1l-.7,-.8V158.9h1.8v91.3l-1.1,.8Zm0,0h-.7v-.8l.7,.8Z" class="g2_4" />
<g fill="#1F1A17" >
<use xlink:href="#f1_1h" transform="matrix(12,0,0,12,391.6,162.6)" />
<use xlink:href="#f1_2d" transform="matrix(12,0,0,12,506,158.9)" />
<use xlink:href="#f1_2d" transform="matrix(12,0,0,12,396.4,257.2)" />
<use xlink:href="#f1_1h" transform="matrix(12,0,0,12,505.3,256.1)" />
<use xlink:href="#f1_1x" transform="matrix(12,0,0,12,451,262.7)" />
</g>
<g fill="#000000" >
<use xlink:href="#f1_16" transform="matrix(12,0,0,12,117,296.8)" />
<use xlink:href="#f1_25" transform="matrix(12,0,0,12,126.5,296.8)" />
<use xlink:href="#f1_2a" transform="matrix(12,0,0,12,130.6,296.8)" />
<use xlink:href="#f1_20" transform="matrix(12,0,0,12,139,296.8)" />
<use xlink:href="#f1_2g" transform="matrix(12,0,0,12,151.5,296.8)" />
<use xlink:href="#f1_24" transform="matrix(12,0,0,12,156.6,296.8)" />
<use xlink:href="#f1_21" transform="matrix(12,0,0,12,165.1,296.8)" />
<use xlink:href="#f1_c" transform="matrix(12,0,0,12,117,325.4)" />
<use xlink:href="#f1_1x" transform="matrix(12,0,0,12,122.5,325.4)" />
<use xlink:href="#f1_d" transform="matrix(12,0,0,12,130.2,325.4)" />
<use xlink:href="#f1_2e" transform="matrix(12,0,0,12,155.8,325.4)" />
<use xlink:href="#f1_21" transform="matrix(12,0,0,12,161.7,325.4)" />
<use xlink:href="#f1_2f" transform="matrix(12,0,0,12,169.8,325.4)" />
<use xlink:href="#f1_2h" transform="matrix(12,0,0,12,176.4,325.4)" />
<use xlink:href="#f1_28" transform="matrix(12,0,0,12,185.6,325.4)" />
<use xlink:href="#f1_2g" transform="matrix(12,0,0,12,189.6,325.4)" />
<use xlink:href="#f1_1x" transform="matrix(12,0,0,12,195.1,325.4)" />
<use xlink:href="#f1_2a" transform="matrix(12,0,0,12,202.8,325.4)" />
<use xlink:href="#f1_2g" transform="matrix(12,0,0,12,211.7,325.4)" />
<use xlink:href="#f1_21" transform="matrix(12,0,0,12,220.5,325.4)" />
<use xlink:href="#f1_28" transform="matrix(12,0,0,12,228.2,325.4)" />
<use xlink:href="#f1_21" transform="matrix(12,0,0,12,232.6,325.4)" />
<use xlink:href="#f1_1z" transform="matrix(12,0,0,12,240.3,325.4)" />
<use xlink:href="#f1_2g" transform="matrix(12,0,0,12,248.4,325.4)" />
<use xlink:href="#f1_2e" transform="matrix(12,0,0,12,253.5,325.4)" />
<use xlink:href="#f1_25" transform="matrix(12,0,0,12,259.8,325.4)" />
<use xlink:href="#f1_1z" transform="matrix(12,0,0,12,263.8,325.4)" />
<use xlink:href="#f1_22" transform="matrix(12,0,0,12,274.9,325.4)" />
<use xlink:href="#f1_2b" transform="matrix(12,0,0,12,280.4,325.4)" />
<use xlink:href="#f1_2e" transform="matrix(12,0,0,12,289.5,325.4)" />
<use xlink:href="#f1_1z" transform="matrix(12,0,0,12,295.8,325.4)" />
<use xlink:href="#f1_21" transform="matrix(12,0,0,12,303.5,325.4)" />
<use xlink:href="#f1_2b" transform="matrix(12,0,0,12,314.9,325.4)" />
<use xlink:href="#f1_2a" transform="matrix(12,0,0,12,324.4,325.4)" />
<use xlink:href="#f1_1x" transform="matrix(12,0,0,12,336.6,325.4)" />
<use xlink:href="#f1_1z" transform="matrix(12,0,0,12,348,325.4)" />
<use xlink:href="#f1_24" transform="matrix(12,0,0,12,355.7,325.4)" />
<use xlink:href="#f1_1x" transform="matrix(12,0,0,12,364.5,325.4)" />
<use xlink:href="#f1_2e" transform="matrix(12,0,0,12,372.2,325.4)" />
<use xlink:href="#f1_23" transform="matrix(12,0,0,12,378.4,325.4)" />
<use xlink:href="#f1_21" transform="matrix(12,0,0,12,387.3,325.4)" />
<use xlink:href="#f1_1h" transform="matrix(12,0,0,12,398.3,325.4)" />
<use xlink:href="#f1_g" transform="matrix(12,0,0,12,411.5,325.4)" />
<use xlink:href="#f1_1x" transform="matrix(12,0,0,12,419.6,325.4)" />
<use xlink:href="#f1_2a" transform="matrix(12,0,0,12,427.3,325.4)" />
<use xlink:href="#f1_20" transform="matrix(12,0,0,12,436.1,325.4)" />
<use xlink:href="#f1_11" transform="matrix(12,0,0,12,64.9,354.3)" />
<use xlink:href="#f1_2a" transform="matrix(12,0,0,12,77.4,354.3)" />
<use xlink:href="#f1_2f" transform="matrix(12,0,0,12,85.8,354.3)" />
<use xlink:href="#f1_i" transform="matrix(12,0,0,12,92.4,354.3)" />
<use xlink:href="#f1_1k" transform="matrix(12,0,0,12,155.8,354.3)" />
<use xlink:href="#f1_24" transform="matrix(12,0,0,12,167.2,354.3)" />
<use xlink:href="#f1_21" transform="matrix(12,0,0,12,175.6,354.3)" />
<use xlink:href="#f1_2e" transform="matrix(12,0,0,12,183.7,354.3)" />
<use xlink:href="#f1_21" transform="matrix(12,0,0,12,189.6,354.3)" />
<use xlink:href="#f1_2j" transform="matrix(12,0,0,12,201,354.3)" />
<use xlink:href="#f1_25" transform="matrix(12,0,0,12,214.2,354.3)" />
<use xlink:href="#f1_28" transform="matrix(12,0,0,12,218.6,354.3)" />
<use xlink:href="#f1_28" transform="matrix(12,0,0,12,222.7,354.3)" />
<use xlink:href="#f1_1y" transform="matrix(12,0,0,12,230.1,354.3)" />
<use xlink:href="#f1_21" transform="matrix(12,0,0,12,238.9,354.3)" />
<use xlink:href="#f1_2g" transform="matrix(12,0,0,12,250.3,354.3)" />
<use xlink:href="#f1_24" transform="matrix(12,0,0,12,255.8,354.3)" />
<use xlink:href="#f1_2e" transform="matrix(12,0,0,12,264.2,354.3)" />
<use xlink:href="#f1_21" transform="matrix(12,0,0,12,270.5,354.3)" />
<use xlink:href="#f1_21" transform="matrix(12,0,0,12,278.2,354.3)" />
<use xlink:href="#f1_22" transform="matrix(12,0,0,12,289.6,354.3)" />
<use xlink:href="#f1_2b" transform="matrix(12,0,0,12,295.1,354.3)" />
<use xlink:href="#f1_2e" transform="matrix(12,0,0,12,304.3,354.3)" />
<use xlink:href="#f1_1z" transform="matrix(12,0,0,12,310.5,354.3)" />
<use xlink:href="#f1_21" transform="matrix(12,0,0,12,318.6,354.3)" />
<use xlink:href="#f1_2f" transform="matrix(12,0,0,12,326.3,354.3)" />
<use xlink:href="#f1_2b" transform="matrix(12,0,0,12,336.6,354.3)" />
<use xlink:href="#f1_2a" transform="matrix(12,0,0,12,346.1,354.3)" />
<use xlink:href="#f1_1z" transform="matrix(12,0,0,12,357.9,354.3)" />
<use xlink:href="#f1_24" transform="matrix(12,0,0,12,366,354.3)" />
<use xlink:href="#f1_1x" transform="matrix(12,0,0,12,374.4,354.3)" />
<use xlink:href="#f1_2e" transform="matrix(12,0,0,12,382.5,354.3)" />
<use xlink:href="#f1_23" transform="matrix(12,0,0,12,388.4,354.3)" />
<use xlink:href="#f1_21" transform="matrix(12,0,0,12,397.6,354.3)" />
<use xlink:href="#f1_1h" transform="matrix(12,0,0,12,409,354.3)" />
</g>
<path d="M189.4,396.3h36.4m3.4,0h24.5" class="g3_4" />
<g fill="#000000" >
<use xlink:href="#f1_l" transform="matrix(6.9,0,0,6.9,167.6,405.3)" />
<use xlink:href="#f1_m" transform="matrix(6.9,0,0,6.9,243.1,406.8)" />
<use xlink:href="#f1_k" transform="matrix(6.9,0,0,6.9,217.8,419.6)" />
<use xlink:href="#f1_l" transform="matrix(11.9,0,0,11.9,203.1,389.2)" />
<use xlink:href="#f1_o" transform="matrix(11.9,0,0,11.9,190.7,415.2)" />
<use xlink:href="#f2_2d" transform="matrix(11.9,0,0,11.9,230.3,389.2)" />
<use xlink:href="#f2_1h" transform="matrix(11.9,0,0,11.9,239.4,389.2)" />
<use xlink:href="#f2_16" transform="matrix(11.9,0,0,11.9,159.1,400.9)" />
<use xlink:href="#f2_1x" transform="matrix(11.9,0,0,11.9,233.2,415.2)" />
<use xlink:href="#f3_2c" transform="matrix(11.9,0,-3.2,11.9,198.7,415.2)" />
<use xlink:href="#f3_21" transform="matrix(11.9,0,-3.2,11.9,208.6,415.2)" />
<use xlink:href="#f4_x" transform="matrix(11.9,0,0,11.9,176.4,400.9)" />
</g>
<path d="M641,446.3l-.8,.7H532.7v-1.4H640.2l.8,.7Zm0,0v.7h-.8l.8,-.7ZM640.2,354l.8,.7v91.6h-1.5V354.7l.7,-.7Zm0,0h.8v.7l-.8,-.7ZM532,354.7l.7,-.7H640.2v1.5H532.7l-.7,-.8Zm0,0V354h.7l-.7,.7Zm.7,92.3l-.7,-.7V354.7h1.8v91.6l-1.1,.7Zm0,0H532v-.7l.7,.7Z" class="g2_4" />
<g fill="#1F1A17" >
<use xlink:href="#f1_1h" transform="matrix(11.9,0,0,12,516.3,358.4)" />
<use xlink:href="#f1_2d" transform="matrix(11.9,0,0,12,645.3,354.3)" />
<use xlink:href="#f1_2d" transform="matrix(11.9,0,0,12,520.7,453.3)" />
<use xlink:href="#f1_1h" transform="matrix(11.9,0,0,12,644.6,452.6)" />
</g>
<path d="M535.7,356.2l-1.1,1.1l-2.2,-2.2l1.1,-1.1l2.2,2.2Zm3.6,2.9l-1.1,1.2L536,358l.8,-1.1l2.5,2.2Zm3.3,3l-.7,1.1l-2.6,-1.8l1.1,-1.5l2.2,2.2Zm3.6,2.9l-1,1.1L543,364.3l.7,-1.5l2.5,2.2Zm3.3,3l-.7,1.1l-2.6,-1.9l1.1,-1.1l2.2,1.9Zm3.7,2.9l-1.1,1.1l-2.2,-1.8l.7,-1.1l2.6,1.8Zm3.3,2.9l-.7,1.2l-2.6,-1.9l1.1,-1.1l2.2,1.8Zm3.7,3l-1.1,1.1l-2.2,-1.8L558,375l2.2,1.8Zm3.3,2.9l-.8,1.1L560.2,379l1.1,-1.1l2.2,1.8Zm3.6,3l-1.1,1.1l-2.2,-1.9l1.1,-1.1l2.2,1.9Zm3.3,2.9l-.7,1.5l-2.6,-2.2l1.1,-1.1l2.2,1.8Zm3.6,3l-1,1.4l-2.2,-2.2l1.1,-1.1l2.1,1.9Zm3.7,3.3l-1.1,1.1L574,390.8l1.1,-1.1l2.6,2.2Zm3.3,2.9l-1.1,1.1l-2.2,-2.2l1.1,-1.1l2.2,2.2Zm3.6,3l-1.1,1.1l-2.1,-2.3l.7,-1.1l2.5,2.3Zm3.3,2.9l-1.1,1.1L584.6,400l1.1,-1.5l2.2,2.2Zm3.7,2.9l-1.1,1.2l-2.2,-1.9l.8,-1.5l2.5,2.2Zm3.3,3l-1.1,1.1l-2.2,-1.8l1.1,-1.1l2.2,1.8Zm3.7,2.9l-1.1,1.1l-2.2,-1.8l.7,-1.1l2.6,1.8Zm3.2,3l-.7,1.1l-2.5,-1.8l1.1,-1.2l2.1,1.9Zm3.7,2.9l-1.1,1.1l-2.2,-1.8l.7,-1.1l2.6,1.8Zm3.3,3l-.7,1.1l-2.6,-1.9l1.1,-1.1l2.2,1.9Zm3.6,2.9l-1.1,1.1l-2.1,-1.8l.7,-1.1l2.5,1.8Zm3.3,2.9l-.7,1.5l-2.6,-2.2l1.1,-1.1l2.2,1.8Zm3.7,3l-1.1,1.5l-2.2,-2.2l1.1,-1.2l2.2,1.9Zm3.3,3.3l-.7,1.1l-2.6,-2.2l1.1,-1.1l2.2,2.2Zm3.7,2.9l-1.1,1.2l-2.2,-2.3l1.1,-1.1l2.2,2.2Zm3.6,3l-1.1,1.1l-2.5,-2.2l1,-1.1l2.6,2.2Zm3.3,2.9l-1.1,1.1L630,438.6l1.1,-1.5l2.2,2.2Zm3.6,3l-1,1.1l-2.2,-1.9l.7,-1.4l2.5,2.2Zm3.3,2.9l-1.1,1.1l-2.2,-1.8l1.1,-1.1l2.2,1.8Z" class="g2_4" />
<g fill="#1F1A17" >
<use xlink:href="#f2_1x" transform="matrix(11.9,0,0,12,583.7,351.4)" />
<use xlink:href="#f2_1x" transform="matrix(11.9,0,0,12,645.7,403.8)" />
<use xlink:href="#f2_1x" transform="matrix(11.9,0,0,12,584.1,457.7)" />
<use xlink:href="#f2_1x" transform="matrix(11.9,0,0,12,519.6,402.4)" />
</g>
<path d="M584.6,393.7l1.9,-1.1l4.4,7.4l4.7,-19.2h10.6" class="g4_4" />
<path fill-rule="evenodd" d="M584.3,393.3l2.5,-1.1l4.1,5.9l4.4,-17.6h10.9v.7H596L591.2,400h-.7l-4.8,-6.7l-1.1,.8l-.3,-.8Z" class="g5_4" />
<g fill="#000000" >
<use xlink:href="#f1_m" transform="matrix(11.9,0,0,12,596.2,398.7)" />
<use xlink:href="#f2_1x" transform="matrix(11.9,0,0,12,609,398.7)" />
</g>
<path d="M191.5,463h36.7m3.4,0h24.7" class="g6_4" />
<g fill="#000000" >
<use xlink:href="#f1_m" transform="matrix(6.9,0,0,6.9,169,472)" />
<use xlink:href="#f1_m" transform="matrix(6.9,0,0,6.9,245.7,473.5)" />
<use xlink:href="#f1_k" transform="matrix(6.9,0,0,6.9,220.4,486.3)" />
<use xlink:href="#f1_l" transform="matrix(11.9,0,0,11.9,205.3,455.9)" />
<use xlink:href="#f1_o" transform="matrix(11.9,0,0,11.9,192.9,481.9)" />
<use xlink:href="#f2_2d" transform="matrix(11.9,0,0,11.9,232.8,455.9)" />
<use xlink:href="#f2_1h" transform="matrix(11.9,0,0,11.9,242,455.9)" />
<use xlink:href="#f2_16" transform="matrix(11.9,0,0,11.9,159.1,467.6)" />
<use xlink:href="#f2_1x" transform="matrix(11.9,0,0,11.9,235.4,481.9)" />
<use xlink:href="#f3_2c" transform="matrix(11.9,0,-3.2,11.9,200.9,481.9)" />
<use xlink:href="#f3_21" transform="matrix(11.9,0,-3.2,11.9,210.8,481.9)" />
<use xlink:href="#f4_x" transform="matrix(11.9,0,0,11.9,178.6,467.6)" />
</g>
<path d="M190.7,532.9h36.6" class="g6_4" />
<path d="M238.6,548.5l1.9,-1m0,0l4.4,7.2m0,0l4.8,-19.1m0,0h10.6" class="g4_4" />
<path fill-rule="evenodd" d="M238.4,548.3l2.6,-1.4l3.9,5.9l4.5,-17.6h10.9v.9H250.1l-4.8,18.6h-.9L240,548.1l-1.3,.7l-.3,-.5Z" class="g5_4" />
<path d="M230.7,532.9h53.7m16,0h36.5m3.4,0H369" class="g6_4" />
<g fill="#000000" >
<use xlink:href="#f1_m" transform="matrix(6.9,0,0,6.9,358.2,517.9)" />
<use xlink:href="#f1_n" transform="matrix(6.9,0,0,6.9,168.7,542.1)" />
<use xlink:href="#f1_m" transform="matrix(6.9,0,0,6.9,361.2,543.5)" />
<use xlink:href="#f1_m" transform="matrix(6.9,0,0,6.9,276.5,545)" />
<use xlink:href="#f1_k" transform="matrix(6.9,0,0,6.9,219.3,556.4)" />
<use xlink:href="#f1_k" transform="matrix(6.9,0,0,6.9,328.9,556.4)" />
<use xlink:href="#f1_l" transform="matrix(12,0,0,12,204.6,525.9)" />
<use xlink:href="#f1_l" transform="matrix(12,0,0,12,314.2,525.9)" />
<use xlink:href="#f1_o" transform="matrix(12,0,0,12,191.8,552)" />
<use xlink:href="#f1_o" transform="matrix(12,0,0,12,301.4,552)" />
<use xlink:href="#f1_m" transform="matrix(12,0,0,12,341.3,552)" />
<use xlink:href="#f1_c" transform="matrix(12,0,0,12,231.7,553.4)" />
<use xlink:href="#f1_m" transform="matrix(12,0,0,12,250.4,553.4)" />
<use xlink:href="#f1_d" transform="matrix(12,0,0,12,269.9,553.4)" />
<use xlink:href="#f2_1h" transform="matrix(12,0,0,12,244.2,525.9)" />
<use xlink:href="#f2_1h" transform="matrix(12,0,0,12,257.4,525.9)" />
<use xlink:href="#f2_1h" transform="matrix(12,0,0,12,343.9,525.9)" />
<use xlink:href="#f2_16" transform="matrix(12,0,0,12,159.1,537.7)" />
<use xlink:href="#f2_1x" transform="matrix(12,0,0,12,350.9,552)" />
<use xlink:href="#f2_1x" transform="matrix(12,0,0,12,260,553.4)" />
<use xlink:href="#f3_2c" transform="matrix(12,0,-3.2,12,200.2,552)" />
<use xlink:href="#f3_21" transform="matrix(12,0,-3.2,12,210.1,552)" />
<use xlink:href="#f3_2c" transform="matrix(12,0,-3.2,12,309.8,552)" />
<use xlink:href="#f3_21" transform="matrix(12,0,-3.2,12,319.7,552)" />
<use xlink:href="#f4_x" transform="matrix(12,0,0,12,177.8,537.7)" />
<use xlink:href="#f4_x" transform="matrix(12,0,0,12,287.4,537.7)" />
</g>
<path d="M642,478.9h-8l4,-7.3l4,7.3Zm-4,84.5l-.7,-.8V478.2h1.4v84.4l-.7,.8Zm.7,-.8v.8H638l.7,-.8Zm-101.9,-.7H638v1.5H536.8v-1.5Zm.7,4.7l-7.3,-4l7.3,-4v8Z" class="g2_4" />
<g fill="#1F1A17" >
<use xlink:href="#f1_16" transform="matrix(12,0,0,12,546.7,494.4)" />
<use xlink:href="#f1_n" transform="matrix(6,0,0,6,557,498.1)" />
<use xlink:href="#f1_1h" transform="matrix(12,0,0,12,642.4,568.8)" />
</g>
<path d="M566.1,494.7l-1.1,1.1l-2.2,-2.2l1.1,-1.1l2.2,2.2Zm3.3,2.9l-1.1,1.4l-2.2,-2.1l1.1,-1.1l2.2,1.8Zm3.3,3.3l-1.1,1.1l-2.2,-2.2l1.1,-1.1l2.2,2.2Zm3.3,3.3l-.7,1.1l-2.6,-2.2l1.1,-1.1l2.2,2.2Zm3.7,2.9l-1.1,1.1L576.4,506l.7,-1.1l2.6,2.2Zm3.3,3.3l-1.1,1.1l-2.2,-2.2l1.1,-1.1l2.2,2.2Zm3.3,2.9l-1.1,1.1L583,512.2l1.1,-1.1l2.2,2.2Zm3.3,3.3l-1.1,1.1l-2.2,-2.2l1.1,-1.1l2.2,2.2Zm3.3,2.9l-1.1,1.1l-2.2,-1.8l1.1,-1.1l2.2,1.8Zm3.3,3.3l-1.1,1.1l-2.2,-2.2l1.1,-1.1l2.2,2.2Zm3.3,2.9l-1.1,1.1L596.2,525l1.1,-1.1l2.2,1.8Zm3.3,3.3l-.7,1.1l-2.6,-2.2l1.1,-1.1l2.2,2.2Zm3.3,2.9l-.7,1.1l-2.2,-1.8l.7,-1.1l2.2,1.8Zm3.7,3.3l-1.1,1.1l-2.2,-2.2l1.1,-1.1l2.2,2.2Zm3.3,2.9l-1.1,1.1l-2.2,-1.8l1.1,-1.1l2.2,1.8Zm3.3,3.3l-1.1,1.1l-2.2,-2.2l1.1,-1.1l2.2,2.2Zm3.3,2.9l-1.1,1.1l-2.2,-1.8l1.1,-1.1l2.2,1.8Zm3.3,3.3l-1.1,1.1l-2.2,-2.2l1.1,-1.1l2.2,2.2Zm3.3,3.3l-1.1,1.1L623,549.8l1.1,-1.1l2.2,2.2Zm3.3,3l-1.1,1.1l-2.2,-2.2l1.1,-1.1l2.2,2.2Zm3.3,3.3l-.8,1l-2.2,-2.1l.8,-1.1l2.2,2.2Zm3.6,2.9l-1.1,1.1L633.2,559l1.1,-1.1l2.2,2.2Zm.8,2.9l-.8,-.7l1.1,-1.1l.8,.7l-1.1,1.1Z" class="g2_4" />
<g fill="#1F1A17" >
<use xlink:href="#f1_16" transform="matrix(12,0,0,12,642.4,481.6)" />
<use xlink:href="#f1_l" transform="matrix(6,0,0,6,652.7,485.2)" />
<use xlink:href="#f1_16" transform="matrix(12,0,0,12,511.9,566.6)" />
<use xlink:href="#f1_m" transform="matrix(6,0,0,6,521.8,570.3)" />
</g>
<g fill="#000000" >
<use xlink:href="#f1_l" transform="matrix(7.1,0,0,7.1,167.6,596)" />
</g>
<g clip-path="url(#c0_4)">
<g fill="#000000" >
<use xlink:href="#f2_16" transform="matrix(12.2,0,0,12.2,159.1,591.2)" />
</g>
</g>
<g fill="#000000" >
<use xlink:href="#f1_1x" transform="matrix(12,0,0,12,179,590.1)" />
<use xlink:href="#f1_2a" transform="matrix(12,0,0,12,186.7,590.1)" />
<use xlink:href="#f1_20" transform="matrix(12,0,0,12,195.5,590.1)" />
<use xlink:href="#f1_m" transform="matrix(7.1,0,0,7.1,221.1,596)" />
</g>
<g clip-path="url(#c1_4)">
<g fill="#000000" >
<use xlink:href="#f2_16" transform="matrix(12.2,0,0,12.2,211.2,591.2)" />
</g>
</g>
<g fill="#000000" >
<use xlink:href="#f1_1x" transform="matrix(12,0,0,12,232.5,590.1)" />
<use xlink:href="#f1_2e" transform="matrix(12,0,0,12,240.6,590.1)" />
<use xlink:href="#f1_21" transform="matrix(12,0,0,12,246.5,590.1)" />
<use xlink:href="#f1_2c" transform="matrix(12,0,0,12,257.9,590.1)" />
<use xlink:href="#f1_21" transform="matrix(12,0,0,12,267,590.1)" />
<use xlink:href="#f1_2e" transform="matrix(12,0,0,12,274.7,590.1)" />
<use xlink:href="#f1_2c" transform="matrix(12,0,0,12,281,590.1)" />
<use xlink:href="#f1_21" transform="matrix(12,0,0,12,289.8,590.1)" />
<use xlink:href="#f1_2a" transform="matrix(12,0,0,12,297.9,590.1)" />
<use xlink:href="#f1_20" transform="matrix(12,0,0,12,306.3,590.1)" />
<use xlink:href="#f1_25" transform="matrix(12,0,0,12,315.5,590.1)" />
<use xlink:href="#f1_1z" transform="matrix(12,0,0,12,319.5,590.1)" />
<use xlink:href="#f1_2h" transform="matrix(12,0,0,12,327.6,590.1)" />
<use xlink:href="#f1_28" transform="matrix(12,0,0,12,336.4,590.1)" />
<use xlink:href="#f1_1x" transform="matrix(12,0,0,12,340.8,590.1)" />
<use xlink:href="#f1_2e" transform="matrix(12,0,0,12,348.6,590.1)" />
<use xlink:href="#f1_2g" transform="matrix(12,0,0,12,357.7,590.1)" />
<use xlink:href="#f1_2b" transform="matrix(12,0,0,12,363.2,590.1)" />
<use xlink:href="#f1_21" transform="matrix(12,0,0,12,376.1,590.1)" />
<use xlink:href="#f1_1x" transform="matrix(12,0,0,12,383.8,590.1)" />
<use xlink:href="#f1_1z" transform="matrix(12,0,0,12,391.9,590.1)" />
<use xlink:href="#f1_24" transform="matrix(12,0,0,12,399.6,590.1)" />
<use xlink:href="#f1_2b" transform="matrix(12,0,0,12,411.7,590.1)" />
<use xlink:href="#f1_2g" transform="matrix(12,0,0,12,421.3,590.1)" />
<use xlink:href="#f1_24" transform="matrix(12,0,0,12,426.4,590.1)" />
<use xlink:href="#f1_21" transform="matrix(12,0,0,12,435.2,590.1)" />
<use xlink:href="#f1_2e" transform="matrix(12,0,0,12,442.9,590.1)" />
<use xlink:href="#f1_2f" transform="matrix(12,0,0,12,452.5,590.1)" />
<use xlink:href="#f1_2b" transform="matrix(12,0,0,12,459.5,590.1)" />
<use xlink:href="#f1_2g" transform="matrix(12,0,0,12,472.3,590.1)" />
<use xlink:href="#f1_24" transform="matrix(12,0,0,12,477.5,590.1)" />
<use xlink:href="#f1_21" transform="matrix(12,0,0,12,486.3,590.1)" />
<use xlink:href="#f1_25" transform="matrix(12,0,0,12,494,590.1)" />
<use xlink:href="#f1_2e" transform="matrix(12,0,0,12,498.4,590.1)" />
<use xlink:href="#f1_2e" transform="matrix(12,0,0,12,507.6,590.1)" />
<use xlink:href="#f1_21" transform="matrix(12,0,0,12,513.5,590.1)" />
<use xlink:href="#f1_2f" transform="matrix(12,0,0,12,521.6,590.1)" />
<use xlink:href="#f1_2h" transform="matrix(12,0,0,12,528.2,590.1)" />
<use xlink:href="#f1_28" transform="matrix(12,0,0,12,537.4,590.1)" />
<use xlink:href="#f1_2g" transform="matrix(12,0,0,12,541.4,590.1)" />
<use xlink:href="#f1_1x" transform="matrix(12,0,0,12,546.9,590.1)" />
<use xlink:href="#f1_2a" transform="matrix(12,0,0,12,554.6,590.1)" />
<use xlink:href="#f1_2g" transform="matrix(12,0,0,12,563.4,590.1)" />
<use xlink:href="#f1_2j" transform="matrix(12,0,0,12,572.3,590.1)" />
<use xlink:href="#f1_25" transform="matrix(12,0,0,12,585.1,590.1)" />
<use xlink:href="#f1_28" transform="matrix(12,0,0,12,589.5,590.1)" />
<use xlink:href="#f1_28" transform="matrix(12,0,0,12,593.6,590.1)" />
<use xlink:href="#f1_1y" transform="matrix(12,0,0,12,601.3,590.1)" />
<use xlink:href="#f1_21" transform="matrix(12,0,0,12,610.1,590.1)" />
</g>
<path d="M191.6,631.5l1.9,-1.4m0,0l4.4,9.7m0,0l4.9,-25.4m0,0h170" class="g4_4" />
<path fill-rule="evenodd" d="M191.5,631.3l2.5,-1.8l3.9,8L202.4,614H372.8v.9H203.2l-4.8,24.9h-.9l-4.5,-9l-1.2,1l-.3,-.5Z" class="g5_4" />
<g fill="#000000" >
<use xlink:href="#f1_m" transform="matrix(6.8,0,0,6.8,217.8,625.7)" />
<use xlink:href="#f1_m" transform="matrix(6.8,0,0,6.8,254.5,625.7)" />
<use xlink:href="#f1_l" transform="matrix(6.8,0,0,6.8,212.7,638.5)" />
<use xlink:href="#f1_m" transform="matrix(6.8,0,0,6.8,250.4,638.5)" />
<use xlink:href="#f1_l" transform="matrix(6.8,0,0,6.8,295.5,638.5)" />
<use xlink:href="#f1_m" transform="matrix(6.8,0,0,6.8,311.3,638.5)" />
<use xlink:href="#f1_m" transform="matrix(11.8,0,0,11.8,276.8,633.7)" />
<use xlink:href="#f1_1z" transform="matrix(11.8,0,0,11.8,320.5,633.7)" />
<use xlink:href="#f1_2b" transform="matrix(11.8,0,0,11.8,328.5,633.7)" />
<use xlink:href="#f1_2f" transform="matrix(11.8,0,0,11.8,337.7,633.7)" />
<use xlink:href="#f1_t" transform="matrix(11.8,0,0,11.8,346.8,633.7)" />
<use xlink:href="#f1_k" transform="matrix(11.8,0,0,11.8,356,633.7)" />
<use xlink:href="#f2_16" transform="matrix(11.8,0,0,11.8,159.1,633.7)" />
<use xlink:href="#f2_16" transform="matrix(11.8,0,0,11.8,204.2,633.7)" />
<use xlink:href="#f2_16" transform="matrix(11.8,0,0,11.8,240.9,633.7)" />
<use xlink:href="#f2_16" transform="matrix(11.8,0,0,11.8,286.7,633.7)" />
<use xlink:href="#f2_16" transform="matrix(11.8,0,0,11.8,301.3,633.7)" />
<use xlink:href="#f4_2s" transform="matrix(11.8,0,0,11.8,172,633)" />
<use xlink:href="#f4_x" transform="matrix(11.8,0,0,11.8,178.6,633.7)" />
<use xlink:href="#f4_f" transform="matrix(11.8,0,0,11.8,227.3,633.7)" />
<use xlink:href="#f4_f" transform="matrix(11.8,0,0,11.8,264,633.7)" />
<use xlink:href="#f4_36" transform="matrix(11.8,0,0,11.8,365.2,633.7)" />
<use xlink:href="#f1_l" transform="matrix(7.1,0,0,7.1,167.6,676.6)" />
<use xlink:href="#f1_m" transform="matrix(7.1,0,0,7.1,199.5,676.6)" />
</g>
<g clip-path="url(#c2_4)">
<g fill="#000000" >
<use xlink:href="#f2_16" transform="matrix(12.2,0,0,12.2,159.1,671.9)" />
<use xlink:href="#f2_16" transform="matrix(12.2,0,0,12.2,189.6,671.9)" />
</g>
</g>
<g fill="#000000" >
<use xlink:href="#f4_x" transform="matrix(12.2,0,0,12.2,176.4,671.9)" />
</g>
<path d="M191.6,716.2l1.9,-1m0,0l4.4,7.1m0,0l4.8,-18.9m0,0h10.5" class="g4_4" />
<path fill-rule="evenodd" d="M191.4,716l2.5,-1.4l4,5.8L202.4,703h10.8v.8H203l-4.7,18.5h-.9L193,715.8l-1.3,.7l-.3,-.5Z" class="g5_4" />
<path d="M216.7,716.4h36.4m3.4,0h24.6" class="g3_4" />
<g fill="#000000" >
<use xlink:href="#f1_m" transform="matrix(6.9,0,0,6.9,270.6,726.9)" />
<use xlink:href="#f1_k" transform="matrix(6.9,0,0,6.9,245.3,739.7)" />
<use xlink:href="#f1_l" transform="matrix(11.9,0,0,11.9,230.3,709.3)" />
<use xlink:href="#f1_m" transform="matrix(11.9,0,0,11.9,203.5,721)" />
<use xlink:href="#f1_o" transform="matrix(11.9,0,0,11.9,217.8,735.3)" />
<use xlink:href="#f2_2d" transform="matrix(11.9,0,0,11.9,257.8,709.3)" />
<use xlink:href="#f2_1h" transform="matrix(11.9,0,0,11.9,266.9,709.3)" />
<use xlink:href="#f2_16" transform="matrix(11.9,0,0,11.9,159.1,721)" />
<use xlink:href="#f2_1x" transform="matrix(11.9,0,0,11.9,260.3,735.3)" />
<use xlink:href="#f3_2c" transform="matrix(11.9,0,-3.2,11.9,226.2,735.3)" />
<use xlink:href="#f3_21" transform="matrix(11.9,0,-3.2,11.9,235.8,735.3)" />
<use xlink:href="#f4_2s" transform="matrix(11.9,0,0,11.9,172,719.9)" />
<use xlink:href="#f4_x" transform="matrix(11.9,0,0,11.9,178.6,721)" />
<use xlink:href="#f1_n" transform="matrix(6.9,0,0,6.9,168.7,779.3)" />
<use xlink:href="#f2_16" transform="matrix(12,0,0,12,159.1,774.5)" />
<use xlink:href="#f1_1x" transform="matrix(12,0,0,12,181.1,774.5)" />
<use xlink:href="#f1_2a" transform="matrix(12,0,0,12,188.9,774.5)" />
<use xlink:href="#f1_20" transform="matrix(12,0,0,12,197.7,774.5)" />
<use xlink:href="#f1_2e" transform="matrix(12,0,0,12,210.2,774.5)" />
<use xlink:href="#f1_21" transform="matrix(12,0,0,12,216.4,774.5)" />
<use xlink:href="#f1_2f" transform="matrix(12,0,0,12,224.1,774.5)" />
<use xlink:href="#f1_2h" transform="matrix(12,0,0,12,231.1,774.5)" />
<use xlink:href="#f1_28" transform="matrix(12,0,0,12,239.9,774.5)" />
<use xlink:href="#f1_2g" transform="matrix(12,0,0,12,244.4,774.5)" />
<use xlink:href="#f1_1x" transform="matrix(12,0,0,12,249.8,774.5)" />
<use xlink:href="#f1_2a" transform="matrix(12,0,0,12,257.6,774.5)" />
<use xlink:href="#f1_2g" transform="matrix(12,0,0,12,266.4,774.5)" />
<use xlink:href="#f1_2b" transform="matrix(12,0,0,12,275.2,774.5)" />
<use xlink:href="#f1_22" transform="matrix(12,0,0,12,284.7,774.5)" />
<use xlink:href="#f1_l" transform="matrix(7.1,0,0,7.1,305.1,780.4)" />
</g>
<g clip-path="url(#c3_4)">
<g fill="#000000" >
<use xlink:href="#f2_16" transform="matrix(12.2,0,0,12.2,296.6,775.6)" />
</g>
</g>
<g fill="#000000" >
<use xlink:href="#f1_1x" transform="matrix(12,0,0,12,315.7,774.5)" />
<use xlink:href="#f1_2a" transform="matrix(12,0,0,12,323.4,774.5)" />
<use xlink:href="#f1_20" transform="matrix(12,0,0,12,332.3,774.5)" />
<use xlink:href="#f1_m" transform="matrix(7.1,0,0,7.1,357.9,780.4)" />
</g>
<g clip-path="url(#c4_4)">
<g fill="#000000" >
<use xlink:href="#f2_16" transform="matrix(12.2,0,0,12.2,348,775.6)" />
</g>
</g>
<g fill="#000000" >
<use xlink:href="#f1_2j" transform="matrix(12,0,0,12,370,774.5)" />
<use xlink:href="#f1_25" transform="matrix(12,0,0,12,382.8,774.5)" />
<use xlink:href="#f1_28" transform="matrix(12,0,0,12,387.3,774.5)" />
<use xlink:href="#f1_28" transform="matrix(12,0,0,12,391.3,774.5)" />
<use xlink:href="#f1_1y" transform="matrix(12,0,0,12,399,774.5)" />
<use xlink:href="#f1_21" transform="matrix(12,0,0,12,407.9,774.5)" />
<use xlink:href="#f1_25" transform="matrix(12,0,0,12,418.9,774.5)" />
<use xlink:href="#f1_2a" transform="matrix(12,0,0,12,423.3,774.5)" />
<use xlink:href="#f1_2f" transform="matrix(12,0,0,12,435.4,774.5)" />
<use xlink:href="#f1_1x" transform="matrix(12,0,0,12,442.1,774.5)" />
<use xlink:href="#f1_29" transform="matrix(12,0,0,12,450.1,774.5)" />
<use xlink:href="#f1_21" transform="matrix(12,0,0,12,463.4,774.5)" />
<use xlink:href="#f1_20" transform="matrix(12,0,0,12,475.1,774.5)" />
<use xlink:href="#f1_25" transform="matrix(12,0,0,12,483.9,774.5)" />
<use xlink:href="#f1_2e" transform="matrix(12,0,0,12,488.4,774.5)" />
<use xlink:href="#f1_21" transform="matrix(12,0,0,12,494.2,774.5)" />
<use xlink:href="#f1_1z" transform="matrix(12,0,0,12,502.3,774.5)" />
<use xlink:href="#f1_2g" transform="matrix(12,0,0,12,510,774.5)" />
<use xlink:href="#f1_25" transform="matrix(12,0,0,12,515.5,774.5)" />
<use xlink:href="#f1_2b" transform="matrix(12,0,0,12,519.6,774.5)" />
<use xlink:href="#f1_2a" transform="matrix(12,0,0,12,529.1,774.5)" />
<use xlink:href="#f1_1e" transform="matrix(12,0,0,12,155.8,805.3)" />
<use xlink:href="#f1_21" transform="matrix(12,0,0,12,168.7,805.3)" />
<use xlink:href="#f1_2g" transform="matrix(12,0,0,12,176.8,805.3)" />
<use xlink:href="#f1_22" transform="matrix(12,0,0,12,185.6,805.3)" />
<use xlink:href="#f1_2b" transform="matrix(12,0,0,12,190.7,805.3)" />
<use xlink:href="#f1_2e" transform="matrix(12,0,0,12,200.3,805.3)" />
<use xlink:href="#f1_1z" transform="matrix(12,0,0,12,206.1,805.3)" />
<use xlink:href="#f1_21" transform="matrix(12,0,0,12,214.2,805.3)" />
<use xlink:href="#f1_n" transform="matrix(6.9,0,0,6.9,230.3,842.7)" />
<use xlink:href="#f2_16" transform="matrix(12,0,0,12,159.1,838)" />
<use xlink:href="#f2_16" transform="matrix(12,0,0,12,187.7,838)" />
<use xlink:href="#f2_16" transform="matrix(12,0,0,12,220.7,838)" />
<use xlink:href="#f4_2s" transform="matrix(12,0,0,12,200.6,836.9)" />
<use xlink:href="#f4_x" transform="matrix(12,0,0,12,174.5,838)" />
<use xlink:href="#f4_f" transform="matrix(12,0,0,12,207.2,838)" />
</g>
<path d="M187.5,883.2h36.6" class="g3_4" />
<path d="M237.2,871.7l1.9,-1m0,0l4.4,7.1m0,0l4.9,-18.9m0,0H259" class="g4_4" />
<path fill-rule="evenodd" d="M237.1,871.4l2.5,-1.3l4,5.8l4.5,-17.4H259v.9H248.7L244,877.8h-.9l-4.4,-6.5l-1.3,.6l-.3,-.5Z" class="g5_4" />
<path d="M235.7,883.2h36.7m16.4,0h28.6" class="g3_4" />
<g fill="#000000" >
<use xlink:href="#f1_m" transform="matrix(6.9,0,0,6.9,255.9,893.7)" />
<use xlink:href="#f1_m" transform="matrix(6.9,0,0,6.9,309.5,893.7)" />
<use xlink:href="#f1_k" transform="matrix(6.9,0,0,6.9,216.3,906.5)" />
<use xlink:href="#f1_m" transform="matrix(11.9,0,0,11.9,249.3,876.5)" />
<use xlink:href="#f1_o" transform="matrix(11.9,0,0,11.9,188.8,902.1)" />
<use xlink:href="#f1_m" transform="matrix(11.9,0,0,11.9,290,902.1)" />
<use xlink:href="#f2_1h" transform="matrix(11.9,0,0,11.9,199.1,876.5)" />
<use xlink:href="#f2_2d" transform="matrix(11.9,0,0,11.9,262.2,876.5)" />
<use xlink:href="#f2_1h" transform="matrix(11.9,0,0,11.9,296.3,876.5)" />
<use xlink:href="#f2_16" transform="matrix(11.9,0,0,11.9,159.1,887.8)" />
<use xlink:href="#f2_1x" transform="matrix(11.9,0,0,11.9,245.7,902.1)" />
<use xlink:href="#f2_1x" transform="matrix(11.9,0,0,11.9,299.2,902.1)" />
<use xlink:href="#f3_2c" transform="matrix(11.9,0,-3.2,11.9,196.9,902.1)" />
<use xlink:href="#f3_21" transform="matrix(11.9,0,-3.2,11.9,206.8,902.1)" />
<use xlink:href="#f4_4r" transform="matrix(11.9,0,0,11.9,227.7,873.9)" />
<use xlink:href="#f4_57" transform="matrix(11.9,0,0,11.9,319,873.9)" />
<use xlink:href="#f4_x" transform="matrix(11.9,0,0,11.9,174.5,887.8)" />
<use xlink:href="#f4_f" transform="matrix(11.9,0,0,11.9,275.7,887.8)" />
<use xlink:href="#f4_4s" transform="matrix(11.9,0,0,11.9,227.7,891.1)" />
<use xlink:href="#f4_58" transform="matrix(11.9,0,0,11.9,319,891.1)" />
<use xlink:href="#f4_4t" transform="matrix(11.9,0,0,11.9,227.7,908)" />
<use xlink:href="#f4_59" transform="matrix(11.9,0,0,11.9,319,908)" />
</g>
<path d="M185.4,950.7H222" class="g3_4" />
<path d="M244.6,939.1l1.9,-1m0,0l4.4,7.1m0,0l4.8,-18.8m0,0h10.6" class="g4_4" />
<path fill-rule="evenodd" d="M244.4,938.9l2.6,-1.4l3.9,5.8l4.5,-17.4h10.9v.9H256.1l-4.7,18.4h-.9L246,938.7l-1.3,.7l-.3,-.5Z" class="g5_4" />
<path d="M233.5,950.7h71.2" class="g3_4" />
<g fill="#000000" >
<use xlink:href="#f1_m" transform="matrix(6.9,0,0,6.9,275.7,961.2)" />
<use xlink:href="#f1_k" transform="matrix(6.9,0,0,6.9,214.1,974)" />
<use xlink:href="#f1_m" transform="matrix(11.9,0,0,11.9,234.7,943.9)" />
<use xlink:href="#f1_m" transform="matrix(11.9,0,0,11.9,256.7,943.9)" />
<use xlink:href="#f1_o" transform="matrix(11.9,0,0,11.9,186.6,969.6)" />
<use xlink:href="#f1_m" transform="matrix(11.9,0,0,11.9,255.9,969.6)" />
<use xlink:href="#f2_1h" transform="matrix(11.9,0,0,11.9,196.9,943.9)" />
<use xlink:href="#f2_2d" transform="matrix(11.9,0,0,11.9,266.2,943.9)" />
<use xlink:href="#f2_1h" transform="matrix(11.9,0,0,11.9,290.4,943.9)" />
<use xlink:href="#f2_1x" transform="matrix(11.9,0,0,11.9,265.5,969.6)" />
<use xlink:href="#f3_2c" transform="matrix(11.9,0,-3.2,11.9,195.1,969.6)" />
<use xlink:href="#f3_21" transform="matrix(11.9,0,-3.2,11.9,204.6,969.6)" />
<use xlink:href="#f4_4r" transform="matrix(11.9,0,0,11.9,225.5,941.4)" />
<use xlink:href="#f4_57" transform="matrix(11.9,0,0,11.9,306.2,941.4)" />
<use xlink:href="#f4_f" transform="matrix(11.9,0,0,11.9,277.9,943.9)" />
<use xlink:href="#f4_x" transform="matrix(11.9,0,0,11.9,172.7,955.3)" />
<use xlink:href="#f4_4s" transform="matrix(11.9,0,0,11.9,225.5,958.6)" />
<use xlink:href="#f4_58" transform="matrix(11.9,0,0,11.9,306.2,958.6)" />
<use xlink:href="#f4_4t" transform="matrix(11.9,0,0,11.9,225.5,975.5)" />
<use xlink:href="#f4_59" transform="matrix(11.9,0,0,11.9,306.2,975.5)" />
</g>
<path d="M191.5,1021.1h36.6" class="g7_4" />
<path d="M250.7,1009.3l1.9,-1m0,0l4.4,7.2m0,0l4.9,-19.2m0,0h10.5" class="g4_4" />
<path fill-rule="evenodd" d="M250.5,1009.1l2.6,-1.4l4,5.9l4.4,-17.7h10.9v.9H262.2l-4.7,18.7h-.9l-4.5,-6.6l-1.3,.7l-.3,-.5Z" class="g5_4" />
<path d="M239.7,1021.1h74.5M159.3,990.4v61.4M326.2,990.4v61.4m-167.3,-61H326.7m-167.8,60.6H326.7" class="g7_4" />
<g fill="#000000" >
<use xlink:href="#f1_m" transform="matrix(7,0,0,7,283.4,1031.9)" />
<use xlink:href="#f1_k" transform="matrix(7,0,0,7,220.4,1044.8)" />
<use xlink:href="#f1_m" transform="matrix(12.1,0,0,12.1,240.9,1014)" />
<use xlink:href="#f1_m" transform="matrix(12.1,0,0,12.1,262.5,1014)" />
<use xlink:href="#f1_o" transform="matrix(12.1,0,0,12.1,192.9,1040.4)" />
<use xlink:href="#f1_m" transform="matrix(12.1,0,0,12.1,263.6,1040.4)" />
<use xlink:href="#f2_1h" transform="matrix(12.1,0,0,12.1,203.1,1014)" />
<use xlink:href="#f2_2d" transform="matrix(12.1,0,0,12.1,275.7,1014)" />
<use xlink:href="#f2_1h" transform="matrix(12.1,0,0,12.1,299.9,1014)" />
<use xlink:href="#f2_16" transform="matrix(12.1,0,0,12.1,163.2,1025.7)" />
<use xlink:href="#f2_1x" transform="matrix(12.1,0,0,12.1,273.2,1040.4)" />
<use xlink:href="#f3_2c" transform="matrix(12.1,0,-3.2,12.1,200.9,1040.4)" />
<use xlink:href="#f3_21" transform="matrix(12.1,0,-3.2,12.1,210.8,1040.4)" />
<use xlink:href="#f4_4r" transform="matrix(12.1,0,0,12.1,231.7,1011.4)" />
<use xlink:href="#f4_57" transform="matrix(12.1,0,0,12.1,315.7,1011.4)" />
<use xlink:href="#f4_f" transform="matrix(12.1,0,0,12.1,287.5,1014)" />
<use xlink:href="#f4_x" transform="matrix(12.1,0,0,12.1,178.6,1025.7)" />
<use xlink:href="#f4_4s" transform="matrix(12.1,0,0,12.1,231.7,1029.4)" />
<use xlink:href="#f4_58" transform="matrix(12.1,0,0,12.1,315.7,1029.4)" />
<use xlink:href="#f4_4t" transform="matrix(12.1,0,0,12.1,231.7,1046.2)" />
<use xlink:href="#f4_59" transform="matrix(12.1,0,0,12.1,315.7,1046.2)" />
<use xlink:href="#f5_o" transform="matrix(8,0,0,8,792.2,1264.2)" />
</g>
<defs>
<path d="M78,-22V359h28c0,0,32,-161,126,-246c0,0,94,-85,202,-85c0,0,84,0,133,46c0,0,50,45,50,106c0,0,0,36,-19,69c0,0,-19,34,-58,64c0,0,-39,30,-138,79c0,0,-138,68,-198,115c0,0,-60,48,-92,107c0,0,-33,59,-33,130c0,0,0,120,89,205c0,0,89,85,224,85c0,0,49,0,96,-11c0,0,35,-9,85,-34c0,0,51,-24,71,-24c0,0,19,0,30,12c0,0,12,12,21,57h23l8,-337H695c0,0,-21,127,-106,204c0,0,-85,78,-184,78c0,0,-76,0,-121,-41c0,0,-44,-41,-44,-94c0,0,0,-33,15,-59c0,0,22,-35,70,-70c0,0,35,-24,162,-87c0,0,178,-87,240,-165c0,0,61,-77,61,-177c0,0,0,-127,-99,-218c0,0,-99,-90,-251,-90c0,0,-48,0,-90,9c0,0,-43,10,-107,36c0,0,-36,15,-59,15c0,0,-20,0,-41,-15c0,0,-22,-15,-35,-45Z" 
id="f0_1j"
transform="scale(0.001,-0.001)" />

<path d="M29,0V27H63c0,0,44,0,71,16c0,0,19,11,30,36c0,0,8,18,8,94V839c0,0,0,69,-4,84c0,0,-7,27,-27,41c0,0,-29,21,-78,21H29v27H877V713H850c0,0,-22,109,-61,157c0,0,-39,48,-111,70c0,0,-42,13,-158,13H416V542h20c0,0,97,0,140,60c0,0,44,60,56,178h27V251H632c0,0,-9,87,-38,142c0,0,-29,55,-67,74c0,0,-39,19,-111,19V201c0,0,0,-84,7,-103c0,0,7,-18,26,-30c0,0,20,-12,63,-12h60c0,0,142,0,228,65c0,0,86,66,123,201h28L905,0Z" 
id="f0_15"
transform="scale(0.001,-0.001)" />

<path d="M610,-21c0,0,-162,0,-287,63c0,0,-126,65,-194,187c0,0,-68,121,-68,258c0,0,0,145,75,275c0,0,76,129,205,201c0,0,128,71,273,71c0,0,107,0,225,-46c0,0,69,-27,88,-27c0,0,24,0,41,18c0,0,18,17,23,55h29V683H991c0,0,-33,138,-122,211c0,0,-90,73,-203,73c0,0,-95,0,-174,-54c0,0,-79,-55,-116,-143c0,0,-47,-112,-47,-250c0,0,0,-135,34,-247c0,0,35,-111,108,-168c0,0,73,-57,189,-57c0,0,96,0,175,42c0,0,80,41,168,144V146c0,0,-85,-89,-178,-129c0,0,-92,-38,-215,-38Z" 
id="f0_13"
transform="scale(0.001,-0.001)" />

<path d="M244,0V27h34c0,0,44,0,71,16c0,0,19,11,30,36c0,0,8,18,8,94V953H314c0,0,-103,0,-149,-43c0,0,-66,-60,-83,-172H55v274H965V738H938c0,0,-24,95,-53,136c0,0,-29,41,-80,66c0,0,-28,13,-99,13H631V173c0,0,0,-78,8,-97c0,0,9,-20,34,-34c0,0,25,-15,68,-15h33V0Z" 
id="f0_1k"
transform="scale(0.001,-0.001)" />

<path d="M29,0V27H63c0,0,44,0,71,16c0,0,19,11,30,36c0,0,8,18,8,94V839c0,0,0,78,-8,97c0,0,-8,20,-33,34c0,0,-25,15,-68,15H29v27H558V985H525c0,0,-44,0,-71,-16c0,0,-19,-11,-30,-36c0,0,-8,-18,-8,-94V173c0,0,0,-78,8,-97c0,0,9,-20,34,-34c0,0,24,-15,67,-15h33V0Z" 
id="f0_19"
transform="scale(0.001,-0.001)" />

<path d="M597,33c0,0,77,0,129,38c0,0,65,47,102,152c0,0,36,105,36,273c0,0,0,201,-37,300c0,0,-37,100,-95,141c0,0,-58,41,-133,41c0,0,-139,0,-211,-142c0,0,-59,-116,-59,-334c0,0,0,-259,91,-382c0,0,63,-87,177,-87Zm3,-54c0,0,-273,0,-423,183C177,162,60,309,60,509c0,0,0,225,153,375c0,0,144,142,358,142c6,0,12,0,19,0c0,0,3,0,8,0c42,0,250,-7,385,-141c0,0,151,-150,151,-375c0,0,0,-193,-113,-339c0,0,-149,-192,-421,-192Z" 
id="f0_1f"
transform="scale(0.001,-0.001)" />

<path d="M910,-21L225,820V176c0,0,0,-87,40,-118c0,0,40,-31,91,-31h24V0H21V27c0,0,83,1,116,35c0,0,33,33,33,114V891l-21,26c0,0,-32,41,-57,53c0,0,-24,13,-71,15v27H380L880,385V819c0,0,0,92,-26,124c0,0,-34,42,-116,42c-1,0,-3,0,-4,0v27h334V985c0,0,-64,-9,-86,-22c0,0,-22,-13,-35,-42c0,0,-12,-30,-12,-102V-21Z" 
id="f0_1e"
transform="scale(0.001,-0.001)" />

<path d="M37,274V428H473V274Z" 
id="f0_h"
transform="scale(0.001,-0.001)" />

<path d="M197,0V27c0,0,71,2,92,13c0,0,21,10,29,29c0,0,9,18,9,109V725c0,0,0,110,-8,141c0,0,-5,24,-19,35c0,0,-14,11,-33,11c0,0,-28,0,-77,-23l-11,23l246,121h25V178c0,0,0,-85,7,-106c0,0,7,-21,29,-32c0,0,23,-11,91,-13V0Z" 
id="f1_l"
transform="scale(0.001,-0.001)" />

<path d="M191,-20c0,0,-34,0,-58,24c0,0,-24,24,-24,58c0,0,0,35,24,59c0,0,24,24,58,24c0,0,35,0,59,-24c0,0,24,-25,24,-59c0,0,0,-34,-24,-58c0,0,-25,-24,-59,-24Z" 
id="f1_i"
transform="scale(0.001,-0.001)" />

<path d="M24,0V27H60c0,0,63,0,91,37c0,0,18,24,18,115V833c0,0,0,77,-10,102c0,0,-7,18,-30,32c0,0,-32,18,-69,18H24v27H776L787,790H761c0,0,-20,71,-45,104c0,0,-26,33,-64,48c0,0,-37,15,-117,15H312V558H497c0,0,63,0,93,28c0,0,29,28,39,111h27V355H629c0,0,-1,59,-16,87c0,0,-14,27,-40,41c0,0,-26,14,-76,14H312V179c0,0,0,-77,10,-102c0,0,7,-18,31,-32c0,0,33,-18,69,-18h37V0Z" 
id="f1_16"
transform="scale(0.001,-0.001)" />

<path d="M406,32c0,0,72,0,119,60c0,0,47,59,47,205c0,0,0,181,-78,286c0,0,-53,71,-135,71c0,0,-40,0,-79,-23c0,0,-40,-24,-65,-83c0,0,-24,-58,-24,-151c0,0,0,-149,59,-257c0,0,59,-108,156,-108ZM374,-20c0,0,-154,0,-245,122c0,0,-77,104,-77,233c0,0,0,94,46,187c0,0,47,92,123,137c0,0,76,44,161,44c0,0,155,0,249,-118c0,0,80,-100,80,-231c0,0,0,-91,-44,-185C667,169,623,75,546,27c0,0,-77,-47,-172,-47Z" 
id="f1_2b"
transform="scale(0.001,-0.001)" />

<path d="M292,-20c0,0,-57,0,-100,33c0,0,-42,33,-58,85c0,0,-17,52,-17,148V551c0,0,0,49,-10,68c0,0,-11,18,-31,29c0,0,-19,9,-68,9c-2,0,-4,0,-6,0v26H242V226c0,0,0,-95,33,-125c0,0,33,-30,80,-30c0,0,32,0,73,21c0,0,40,20,96,76V555c0,0,0,59,-21,80c0,0,-22,21,-89,22v26H647V269c0,0,0,-119,6,-145c0,0,6,-27,18,-37c0,0,12,-11,29,-11c0,0,23,0,52,13L763,63L558,-20H524V124C524,124,436,29,390,4c0,0,-47,-24,-98,-24Z" 
id="f1_2h"
transform="scale(0.001,-0.001)" />

<path d="M17,0V26c0,0,52,0,77,17c0,0,19,12,26,38c0,0,4,13,4,73V419c0,0,0,119,-5,142c0,0,-4,23,-17,33c0,0,-13,11,-33,11c0,0,-23,0,-52,-11l-7,26l207,83h31V549c0,0,86,154,176,154c0,0,41,0,68,-25c0,0,27,-25,27,-58c0,0,0,-29,-20,-49c0,0,-19,-20,-46,-20c0,0,-26,0,-58,25c0,0,-33,26,-48,26c0,0,-14,0,-29,-15c0,0,-34,-30,-70,-101V159c0,0,0,-56,15,-85c0,0,9,-20,34,-34c0,0,24,-14,71,-14V0Z" 
id="f1_2e"
transform="scale(0.001,-0.001)" />

<path d="M398,24c0,0,74,0,120,58c0,0,61,76,61,214c0,0,0,156,-69,240c0,0,-47,59,-113,59c0,0,-36,0,-71,-18c0,0,-27,-14,-88,-81V242c0,0,0,-83,6,-109c0,0,11,-43,51,-76c0,0,41,-33,103,-33ZM-4,-326v27H15c5,0,42,0,69,16c0,0,14,8,22,26c0,0,7,19,7,94V481c0,0,0,67,-6,85c0,0,-5,18,-18,27c0,0,-13,9,-36,9c0,0,-18,0,-45,-10L0,615l209,85h29V540c0,0,53,91,106,127c0,0,53,36,112,36c0,0,103,0,172,-80c0,0,84,-99,84,-257c0,0,0,-176,-102,-292c0,0,-83,-94,-210,-94c0,0,-55,0,-95,16c0,0,-30,10,-67,44V-167c0,0,0,-71,8,-90c0,0,9,-20,30,-31c0,0,21,-11,77,-11v-27Z" 
id="f1_2c"
transform="scale(0.001,-0.001)" />

<path d="M55,0V26c0,0,50,0,67,10c0,0,17,10,27,32c0,0,10,23,10,86V418c0,0,0,111,-6,144c0,0,-6,24,-17,33c0,0,-11,10,-30,10c0,0,-21,0,-51,-11L45,620l206,83h33V154c0,0,0,-64,9,-85c0,0,9,-22,27,-32c0,0,19,-11,67,-11V0ZM222,909c0,0,-32,0,-54,23c0,0,-22,22,-22,53c0,0,0,32,22,54c0,0,22,22,54,22c0,0,31,0,53,-22c0,0,22,-22,22,-54c0,0,0,-31,-22,-53c0,0,-22,-23,-53,-23Z" 
id="f1_25"
transform="scale(0.001,-0.001)" />

<path d="M21,0V26H35c0,0,53,0,71,27c0,0,18,27,18,101V408c0,0,0,123,-5,150c0,0,-6,27,-17,37c0,0,-12,10,-31,10c0,0,-21,0,-50,-11L10,620l206,83h32V558c0,0,120,145,229,145c0,0,56,0,96,-28c0,0,40,-28,64,-92c0,0,16,-45,16,-137V154c0,0,0,-65,11,-88c0,0,8,-19,26,-29c0,0,18,-11,68,-11V0H419V26h14c0,0,47,0,66,15c0,0,20,15,27,43c0,0,3,11,3,70V434c0,0,0,93,-24,135c0,0,-24,42,-81,42c0,0,-88,0,-176,-97V154c0,0,0,-69,9,-86c0,0,10,-21,28,-31c0,0,19,-11,75,-11V0Z" 
id="f1_2a"
transform="scale(0.001,-0.001)" />

<path d="M255,-10c0,0,-35,0,-68,18c0,0,-32,19,-48,55c0,0,-16,35,-16,109V632H15v24c0,0,41,16,84,56c0,0,43,39,77,92c0,0,17,29,48,104h23V683H407V632H247V188c0,0,0,-66,19,-90c0,0,19,-23,49,-23c0,0,24,0,47,16c0,0,23,15,36,45h29c0,0,-26,-73,-74,-110c0,0,-47,-36,-98,-36Z" 
id="f1_2g"
transform="scale(0.001,-0.001)" />

<path d="M342,-20c0,0,-116,0,-203,97c0,0,-86,98,-86,264c0,0,0,161,96,261c0,0,95,101,230,101c0,0,100,0,165,-53c0,0,65,-54,65,-111c0,0,0,-29,-18,-46c0,0,-18,-18,-51,-18c0,0,-44,0,-66,29c0,0,-13,15,-17,59c0,0,-4,45,-30,68c0,0,-26,22,-73,22c0,0,-74,0,-120,-55c0,0,-60,-73,-60,-193c0,0,0,-122,60,-216c0,0,60,-93,162,-93c0,0,73,0,131,49c0,0,41,35,80,126l22,-10C629,261,601,125,521,52c0,0,-81,-72,-179,-72Z" 
id="f1_1z"
transform="scale(0.001,-0.001)" />

<path d="M20,0V26c0,0,45,0,71,15c0,0,15,7,24,28c0,0,9,21,9,85V773c0,0,0,117,-5,144c0,0,-6,27,-17,37c0,0,-12,9,-31,9c0,0,-16,0,-51,-12L10,978l204,83h34V561c0,0,83,91,131,116c0,0,49,26,97,26c0,0,58,0,100,-32c0,0,42,-32,62,-101c0,0,14,-47,14,-174V154c0,0,0,-65,11,-89c0,0,7,-18,25,-28c0,0,18,-11,66,-11V0H418V26h15c0,0,48,0,67,15c0,0,18,15,26,43c0,0,2,12,2,70V396c0,0,0,112,-12,147c0,0,-11,35,-36,53c0,0,-26,17,-61,17c0,0,-37,0,-76,-19c0,0,-40,-20,-95,-79V154c0,0,0,-70,8,-87c0,0,8,-17,29,-29c0,0,22,-12,74,-12V0Z" 
id="f1_24"
transform="scale(0.001,-0.001)" />

<path d="M286,72c0,0,57,0,149,75V407c0,0,-113,-45,-145,-64c0,0,-59,-32,-85,-68c0,0,-25,-36,-25,-78c0,0,0,-54,32,-89c0,0,32,-36,74,-36ZM217,-13c0,0,-71,0,-116,48c0,0,-46,48,-46,127c0,0,0,50,22,87c0,0,31,50,106,95c0,0,76,45,252,109v26c0,0,0,102,-32,140c0,0,-32,38,-94,38c0,0,-47,0,-74,-25c0,0,-28,-25,-28,-58l1,-43c0,0,0,-34,-17,-53c0,0,-18,-18,-47,-18c0,0,-28,0,-45,19c0,0,-18,19,-18,53c0,0,0,64,66,117c0,0,65,54,184,54c0,0,91,0,149,-31c0,0,44,-23,65,-72c0,0,13,-32,13,-131V238c0,0,0,-98,4,-120c0,0,4,-22,12,-29c0,0,9,-8,20,-8c0,0,12,0,21,5c0,0,16,10,61,55V99C676,99,592,-12,516,-12c0,0,-37,0,-58,24c0,0,-22,26,-23,86C435,98,330,17,303,5c0,0,-40,-18,-86,-18Z" 
id="f1_1x"
transform="scale(0.001,-0.001)" />

<path d="M411,-239c0,0,134,0,198,48c0,0,64,47,64,100c0,0,0,39,-38,55c0,0,-39,16,-154,19c0,0,-167,5,-258,17c0,0,-35,-37,-53,-70c0,0,-17,-32,-17,-60c0,0,0,-36,43,-62c0,0,74,-47,215,-47ZM380,257c0,0,56,0,93,43c0,0,36,42,36,133c0,0,0,118,-51,185c0,0,-38,49,-98,49c0,0,-55,0,-92,-44c0,0,-37,-44,-37,-135c0,0,0,-117,50,-182c0,0,39,-49,99,-49ZM345,-328c0,0,-144,0,-243,64c0,0,-56,38,-56,78c0,0,0,18,8,36c0,0,13,27,52,76c0,0,5,7,76,80c0,0,-39,23,-55,41c0,0,-16,19,-16,42c0,0,0,26,22,61c0,0,21,35,98,100c0,0,-63,30,-97,85c0,0,-33,55,-33,121c0,0,0,101,76,174c0,0,77,73,196,73c0,0,98,0,170,-48H688c0,0,32,0,37,-2c0,0,6,-2,8,-6c0,0,4,-7,4,-24c0,0,0,-20,-4,-27c0,0,-2,-4,-7,-6c0,0,-6,-2,-38,-2H599c0,0,41,-54,41,-137c0,0,0,-96,-73,-163c0,0,-73,-68,-196,-68c0,0,-51,0,-104,15c0,0,-33,-28,-44,-49c0,0,-12,-22,-12,-37c0,0,0,-12,13,-24c0,0,12,-12,48,-17c0,0,21,-4,104,-6c0,0,154,-4,199,-11c0,0,70,-10,111,-51c0,0,42,-41,42,-102c0,0,0,-84,-79,-158c0,0,-117,-108,-304,-108Z" 
id="f1_23"
transform="scale(0.001,-0.001)" />

<path d="M479,469c0,0,-4,66,-16,93c0,0,-18,42,-55,65c0,0,-37,24,-78,24c0,0,-62,0,-111,-48c0,0,-48,-48,-57,-134ZM355,-20c0,0,-123,0,-211,95c0,0,-87,96,-87,258c0,0,0,175,90,273c0,0,89,98,225,98c0,0,115,0,189,-76c0,0,74,-75,74,-202H162c0,0,0,-152,74,-239c0,0,75,-86,175,-86c0,0,67,0,117,36c0,0,50,37,83,127l24,-15c0,0,-16,-102,-91,-186c0,0,-76,-83,-189,-83Z" 
id="f1_21"
transform="scale(0.001,-0.001)" />

<path d="M312,-20c0,0,-62,0,-143,22c0,0,-25,8,-40,8c0,0,-18,0,-27,-19H77V234h25c0,0,21,-105,80,-158c0,0,59,-53,132,-53c0,0,51,0,84,31c0,0,32,30,32,72c0,0,0,52,-36,87c0,0,-36,35,-144,88c0,0,-109,54,-142,97c0,0,-34,43,-34,107c0,0,0,85,58,141c0,0,58,57,150,57c0,0,40,0,97,-17c0,0,38,-11,51,-11c0,0,12,0,19,5c0,0,7,5,15,23h25V470H464c0,0,-28,110,-72,149c0,0,-45,40,-113,40c0,0,-53,0,-85,-28c0,0,-32,-27,-32,-61c0,0,0,-41,24,-71c0,0,23,-31,94,-65L389,381c0,0,152,-74,152,-194c0,0,0,-94,-71,-151c0,0,-70,-56,-158,-56Z" 
id="f1_2f"
transform="scale(0.001,-0.001)" />

<path d="M547,28c0,0,140,0,226,102c0,0,101,121,101,357c0,0,0,181,-56,304c0,0,-42,96,-112,141c0,0,-71,45,-159,45c0,0,-135,0,-218,-97C329,880,225,758,225,508c0,0,0,-245,106,-378c0,0,82,-102,216,-102Zm491,-326c0,0,-103,4,-220,41c0,0,-117,38,-222,105c0,0,-104,67,-180,142c0,0,-108,42,-171,91c0,0,-91,72,-141,178c0,0,-50,105,-50,249c0,0,0,227,147,377c0,0,147,149,355,149c0,0,199,0,344,-150c0,0,145,-150,145,-379c0,0,0,-185,-104,-326C941,179,838,39,673,-10c0,0,76,-131,164,-194c0,0,88,-62,201,-71v-23Z" 
id="f1_1h"
transform="scale(0.001,-0.001)" />

<path d="M82,-253v33c0,0,77,25,119,78c0,0,42,54,42,114c0,0,0,14,-7,23c0,0,-5,6,-11,6c0,0,-8,0,-35,-14c0,0,-14,-7,-28,-7c0,0,-37,0,-58,21C104,1,82,23,82,61c0,0,0,36,28,62c0,0,28,27,68,27c0,0,49,0,88,-43c0,0,38,-43,38,-113c0,0,0,-77,-53,-143c0,0,-53,-66,-169,-104Z" 
id="f1_g"
transform="scale(0.001,-0.001)" />

<path d="M384,85c0,0,44,0,78,19c0,0,35,19,68,62V487c0,0,0,55,-15,87c0,0,-14,33,-51,55c0,0,-38,22,-85,22c0,0,-84,0,-143,-71c0,0,-60,-70,-60,-214c0,0,0,-138,61,-209c0,0,61,-72,147,-72Zm35,-411v27h15c0,0,41,0,63,12c0,0,15,8,24,30c0,0,9,21,9,83V119C530,119,462,39,411,9c0,0,-50,-29,-105,-29c0,0,-99,0,-177,90c0,0,-78,90,-78,241c0,0,0,174,103,283c0,0,103,109,248,109c0,0,43,0,78,-12c0,0,36,-12,65,-35c0,0,43,20,83,47h25V-174c0,0,0,-66,9,-85c0,0,9,-19,28,-30c0,0,19,-10,74,-10v-27Z" 
id="f1_2d"
transform="scale(0.001,-0.001)" />

<path d="M399,62c0,0,68,0,131,68V481c0,0,-5,51,-27,93c0,0,-22,42,-59,63c0,0,-37,21,-72,21c0,0,-65,0,-117,-59c0,0,-67,-77,-67,-226c0,0,0,-151,65,-231c0,0,66,-80,146,-80ZM330,-20c0,0,-112,0,-196,93c0,0,-83,94,-83,240c0,0,0,147,92,269c0,0,93,122,238,122c0,0,90,0,149,-58V773c0,0,0,117,-6,144c0,0,-5,27,-17,37c0,0,-12,9,-30,9c0,0,-20,0,-52,-12l-9,27l204,83h33V270c0,0,0,-120,6,-146c0,0,5,-27,18,-37c0,0,12,-11,28,-11c0,0,21,0,54,13l9,-26L564,-20H530V78C530,78,480,25,432,2c0,0,-47,-22,-102,-22Z" 
id="f1_20"
transform="scale(0.001,-0.001)" />

<path d="M58,0V26c0,0,47,0,64,10c0,0,18,10,28,32c0,0,9,23,9,86V775c0,0,0,116,-5,142c0,0,-5,27,-17,37c0,0,-11,9,-29,9c0,0,-20,0,-49,-12L46,978l204,83h34V154c0,0,0,-64,9,-85c0,0,9,-21,29,-32c0,0,19,-11,72,-11V0Z" 
id="f1_28"
transform="scale(0.001,-0.001)" />

<path d="M63,0V26H93c0,0,30,0,54,15c0,0,25,15,34,41c0,0,10,25,10,99V630H58v53H191v45c0,0,0,102,33,173c0,0,32,71,100,114c0,0,68,44,152,44c0,0,79,0,145,-51c0,0,43,-33,43,-75c0,0,0,-22,-19,-42c0,0,-20,-20,-42,-20c0,0,-17,0,-36,12c0,0,-19,13,-47,53c0,0,-28,41,-51,55c0,0,-23,14,-51,14c0,0,-35,0,-58,-18c0,0,-24,-18,-35,-57c0,0,-10,-38,-10,-197V683H491V630H315V181c0,0,0,-96,21,-122c0,0,27,-33,73,-33h62V0Z" 
id="f1_22"
transform="scale(0.001,-0.001)" />

<path d="M268,648c0,0,-51,0,-91,43c0,0,-39,42,-39,105c0,0,0,88,66,160c0,0,44,48,127,78v-32c0,0,-77,-46,-104,-85c0,0,-21,-30,-21,-69c0,0,0,-24,9,-35c0,0,9,-11,20,-11c0,0,7,0,21,5c0,0,20,7,33,7c0,0,30,0,53,-23c0,0,24,-22,24,-56c0,0,0,-38,-23,-58c0,0,-33,-29,-75,-29Z" 
id="f1_52"
transform="scale(0.001,-0.001)" />

<path d="M177,647v35c0,0,77,46,105,86c0,0,19,28,19,68c0,0,0,23,-8,34c0,0,-9,11,-19,11c0,0,-9,0,-22,-5c0,0,-19,-7,-32,-7c0,0,-30,0,-53,23c0,0,-23,22,-23,56c0,0,0,37,23,58c0,0,31,28,75,28c0,0,50,0,90,-42c0,0,40,-42,40,-105c0,0,0,-88,-67,-160c0,0,-44,-48,-128,-80Z" 
id="f1_53"
transform="scale(0.001,-0.001)" />

<path d="M336,-20L117,554c0,0,-21,55,-42,74c0,0,-21,19,-66,29v26H296V657c0,0,-40,-3,-52,-14c0,0,-13,-12,-13,-33c0,0,0,-23,13,-56L390,162L537,481L498,581c0,0,-18,46,-47,63c0,0,-17,11,-61,13v26H716V657c0,0,-54,-2,-77,-20c0,0,-15,-12,-15,-39c0,0,0,-15,6,-30L785,177L929,554c0,0,15,40,15,65c0,0,0,14,-15,25c0,0,-14,12,-57,13v26h216V657c0,0,-65,-10,-95,-89L764,-20H733L563,415L363,-20Z" 
id="f1_2j"
transform="scale(0.001,-0.001)" />

<path d="M474,-326c0,0,-112,57,-188,133c0,0,-107,108,-165,254c0,0,-58,147,-58,305c0,0,0,231,114,421c0,0,114,191,297,273v-31c0,0,-92,-51,-151,-139c0,0,-59,-88,-88,-223c0,0,-30,-135,-30,-281c0,0,0,-160,25,-290c0,0,20,-102,47,-164c0,0,28,-62,75,-120c0,0,47,-57,122,-109v-29Z" 
id="f1_c"
transform="scale(0.001,-0.001)" />

<path d="M35,-326v29c0,0,92,51,151,139c0,0,60,87,89,221c0,0,28,136,28,282c0,0,0,159,-24,290c0,0,-19,103,-47,165c0,0,-28,62,-75,119c0,0,-46,57,-122,110v31c0,0,113,-56,188,-132c0,0,107,-109,165,-255c0,0,58,-147,58,-306c0,0,0,-231,-114,-420c0,0,-113,-191,-297,-273Z" 
id="f1_d"
transform="scale(0.001,-0.001)" />

<path d="M678,393L506,802L330,393ZM11,0V27c0,0,63,12,82,30c0,0,38,35,84,145l356,832h27L912,193c0,0,43,-101,77,-132c0,0,35,-30,97,-34V0H687V27c0,0,60,3,82,21c0,0,21,17,21,41c0,0,0,33,-30,104L700,338H307L239,179c0,0,-26,-59,-26,-88c0,0,0,-23,22,-41c0,0,22,-17,95,-23V0Z" 
id="f1_11"
transform="scale(0.001,-0.001)" />

<path d="M253,0V27h36c0,0,64,0,91,39c0,0,16,24,16,109V948H274c0,0,-71,0,-100,-10c0,0,-39,-14,-67,-54c0,0,-27,-41,-33,-109H46l12,237H883L894,775H865c0,0,-8,62,-22,89c0,0,-23,43,-61,64c0,0,-39,20,-101,20H539V175c0,0,0,-93,20,-116c0,0,28,-32,87,-32h36V0Z" 
id="f1_1k"
transform="scale(0.001,-0.001)" />

<path d="M397,34c0,0,67,0,126,75c0,0,58,74,58,216c0,0,0,131,-58,201c0,0,-59,70,-133,70c0,0,-39,0,-79,-20c0,0,-29,-14,-75,-59V109c0,0,37,-37,78,-56c0,0,40,-19,83,-19ZM358,-20c0,0,-59,0,-121,21c0,0,-61,22,-126,65V773c0,0,0,117,-5,144c0,0,-6,27,-18,37c0,0,-12,9,-29,9c0,0,-21,0,-53,-12l-9,27l205,83h34V564c0,0,98,139,213,139c0,0,105,0,183,-90c0,0,78,-90,78,-245c0,0,0,-182,-121,-293c0,0,-103,-95,-231,-95Z" 
id="f1_1y"
transform="scale(0.001,-0.001)" />

<path d="M33,0V27c0,0,264,241,371,393c0,0,108,152,108,278c0,0,0,96,-59,158c0,0,-59,62,-141,62c0,0,-75,0,-134,-43c0,0,-59,-44,-88,-128H63c0,0,18,138,95,212c0,0,77,74,193,74c0,0,123,0,205,-80c0,0,83,-79,83,-186c0,0,0,-77,-36,-154c0,0,-55,-121,-179,-256C424,357,238,154,191,112H455c0,0,81,0,114,6c0,0,32,6,58,25c0,0,27,18,46,52h27L630,0Z" 
id="f1_m"
transform="scale(0.001,-0.001)" />

<path d="M379,29c0,0,41,0,84,37c0,0,43,36,65,121c0,0,34,128,34,362c0,0,0,173,-35,288c0,0,-27,86,-69,122c0,0,-31,25,-74,25c0,0,-51,0,-90,-46c0,0,-54,-62,-73,-195c0,0,-20,-132,-20,-261c0,0,0,-209,52,-341c0,0,42,-112,126,-112Zm-2,-46c0,0,-145,0,-241,170c0,0,-81,144,-81,347c0,0,0,173,52,298c0,0,52,125,139,186c0,0,67,49,139,49c0,0,116,0,208,-119c0,0,116,-147,116,-398c0,0,0,-176,-51,-299C658,217,608,94,529,38c0,0,-79,-55,-152,-55Z" 
id="f1_k"
transform="scale(0.001,-0.001)" />

<path d="M452,373V875L97,373ZM452,0V267H23v95l470,671h82V373H711V267H575V0Z" 
id="f1_o"
transform="scale(0.001,-0.001)" />

<path d="M247,72c0,0,46,0,103,51c0,0,88,77,145,198c0,0,58,120,58,208c0,0,0,48,-29,78c0,0,-29,31,-72,31c0,0,-90,0,-191,-157C261,481,161,325,161,186c0,0,0,-56,25,-85c0,0,25,-29,61,-29ZM192,-326l8,27c0,0,73,6,91,13c0,0,28,11,46,36c0,0,19,26,41,108L480,224C480,224,381,80,296,22c0,0,-60,-40,-112,-40c0,0,-75,0,-113,60c0,0,-38,61,-38,132c0,0,0,112,69,236c0,0,69,124,182,203c0,0,88,62,159,62c0,0,53,0,87,-26c0,0,34,-26,51,-83l25,84l116,25L481,-167c0,0,-17,-59,-17,-75c0,0,0,-17,9,-30c0,0,8,-12,23,-18c0,0,23,-9,61,-9l-8,-27Z" 
id="f2_2d"
transform="scale(0.001,-0.001)" />

<path d="M467,25c0,0,67,0,133,34c0,0,65,33,136,114c0,0,89,103,149,261c0,0,61,159,61,296c0,0,0,100,-55,178c0,0,-54,79,-164,79c0,0,-75,0,-146,-37c0,0,-71,-37,-141,-121c0,0,-70,-84,-126,-219c0,0,-68,-167,-68,-316c0,0,0,-105,54,-187c0,0,55,-82,167,-82ZM600,-322c0,0,-65,0,-177,26c0,0,-172,38,-241,38c0,0,-26,0,-42,-4c0,0,-17,-4,-49,-18l-18,21L378,-17c0,0,-141,19,-214,124c0,0,-73,105,-73,224c0,0,0,163,99,338c0,0,98,174,252,270c0,0,154,95,302,95c0,0,111,0,189,-44c0,0,78,-45,120,-130c0,0,43,-86,43,-175c0,0,0,-172,-98,-347C998,338,900,162,755,71c0,0,-145,-89,-308,-92L255,-178c0,0,45,8,84,8c0,0,37,0,69,-5c0,0,32,-4,136,-27c0,0,104,-24,181,-24c0,0,83,0,141,29c0,0,58,28,112,95l25,-11c0,0,-77,-111,-181,-160c0,0,-105,-49,-222,-49Z" 
id="f2_1h"
transform="scale(0.001,-0.001)" />

<path d="M-36,0l10,26c0,0,57,2,76,11c0,0,30,13,44,34c0,0,20,31,48,127L315,809c0,0,22,74,22,116c0,0,0,20,-10,33c0,0,-10,14,-29,21c0,0,-19,7,-75,7l9,26h789L947,757H919c0,0,8,46,8,76c0,0,0,49,-27,78c0,0,-28,29,-70,41c0,0,-30,7,-133,7H489L375,556H511c0,0,90,0,134,28c0,0,44,28,91,118h29L659,334H629c0,0,11,45,11,74c0,0,0,46,-30,71c0,0,-30,25,-112,25H360L270,185c0,0,-24,-76,-24,-100c0,0,0,-26,20,-40c0,0,21,-14,101,-19L358,0Z" 
id="f2_16"
transform="scale(0.001,-0.001)" />

<path d="M251,69c0,0,93,0,201,118c0,0,131,157,126,322c0,0,0,62,-26,90c0,0,-27,28,-74,28c0,0,-52,0,-110,-44c0,0,-83,-62,-148,-185c0,0,-64,-122,-64,-221c0,0,0,-50,28,-79c0,0,29,-29,67,-29ZM183,-17c0,0,-60,0,-103,44C80,27,36,71,36,149c0,0,0,117,77,247c0,0,77,130,195,208c0,0,92,62,174,62c0,0,49,0,82,-22c0,0,32,-22,49,-73l24,77l115,18L609,160L593,92c0,0,-2,-10,-2,-17c0,0,0,-10,5,-19c0,0,4,-6,11,-6c0,0,6,0,17,11c0,0,21,20,55,88l25,-18c0,0,-43,-75,-89,-112c0,0,-45,-36,-84,-36c0,0,-27,0,-42,16c0,0,-15,15,-15,46c0,0,0,36,17,96l16,55C507,196,399,69,309,19c0,0,-64,-36,-126,-36Z" 
id="f2_1x"
transform="scale(0.001,-0.001)" />

<path d="M140,-21c0,0,-26,0,-44,17C96,-4,79,13,79,40c0,0,0,19,6,33c0,0,8,20,34,55c0,0,46,60,64,126c0,0,32,114,41,321H190c0,0,-55,0,-81,-18c0,0,-44,-26,-80,-89H0c0,0,42,129,98,178c0,0,43,37,120,37H743V575H562c0,0,-27,-171,-27,-327c0,0,0,-77,27,-110c0,0,27,-33,67,-33c0,0,33,0,56,22c0,0,24,22,31,65h27C743,192,730,74,686,26c0,0,-44,-47,-98,-47c0,0,-58,0,-97,51c0,0,-39,53,-39,198c0,0,0,91,28,347H286c0,0,-23,-390,-56,-494c0,0,-33,-102,-90,-102Z" 
id="f3_2c"
transform="scale(0.001,-0.001)" />

<path d="M291,-21c0,0,-140,0,-216,60C75,39,0,101,0,176c0,0,0,54,40,102c0,0,41,49,147,88c0,0,-89,33,-118,70c0,0,-30,38,-30,89c0,0,0,69,58,116c0,0,79,63,208,63c0,0,77,0,138,-18c0,0,61,-18,83,-47c0,0,22,-28,22,-54c0,0,0,-23,-19,-42c0,0,-20,-19,-45,-19c0,0,-41,0,-68,53c0,0,-27,54,-45,66c0,0,-29,19,-72,19c0,0,-67,0,-106,-39c0,0,-40,-39,-40,-106c0,0,0,-66,33,-101c0,0,33,-35,90,-35c0,0,20,0,43,3c0,0,37,5,57,5c0,0,33,0,44,-8c0,0,12,-8,12,-19c0,0,0,-12,-10,-18c0,0,-13,-10,-47,-10c0,0,-8,0,-25,3c0,0,-39,5,-63,5c0,0,-63,0,-103,-41c0,0,-40,-41,-40,-108c0,0,0,-78,42,-121c0,0,41,-44,107,-44c0,0,53,0,86,32c0,0,20,19,41,78c0,0,14,39,23,47c0,0,24,24,51,24c0,0,31,0,53,-21c0,0,22,-22,22,-54c0,0,0,-51,-59,-95c0,0,-86,-60,-219,-60Z" 
id="f3_21"
transform="scale(0.001,-0.001)" />

<path d="M0,214v74H784V214ZM0,494v72H784V494Z" 
id="f4_x"
transform="scale(0.001,-0.001)" />

<path d="M238,-17c0,0,-103,0,-139,25C99,8,62,33,62,62c0,0,0,22,17,38c0,0,18,16,42,16c0,0,19,0,38,-6c0,0,13,-3,58,-27c0,0,45,-23,62,-28c0,0,27,-8,59,-8c0,0,76,0,132,59c0,0,56,59,56,140c0,0,0,59,-26,115c0,0,-19,41,-42,63c0,0,-32,30,-88,54c0,0,-56,25,-114,25H232v22c0,0,59,8,118,42c0,0,59,35,86,85c0,0,27,49,27,108c0,0,0,76,-48,124c0,0,-48,47,-120,47c0,0,-116,0,-193,-124L77,819c0,0,44,102,110,158c0,0,66,56,164,56c0,0,122,0,187,-80c0,0,49,-58,49,-126c0,0,0,-110,-139,-228c0,0,93,-36,141,-104c0,0,48,-68,48,-160c0,0,0,-131,-84,-227C553,108,444,-17,238,-17Z" 
id="f1_n"
transform="scale(0.001,-0.001)" />

<path d="M379,437c0,0,34,0,81,16c0,0,47,17,83,47c0,0,14,97,14,155c0,0,0,72,-25,156c0,0,-25,83,-70,128c0,0,-45,45,-103,45c0,0,-66,0,-116,-60c0,0,-50,-59,-50,-177c0,0,0,-157,66,-246c0,0,49,-64,120,-64ZM80,-20V7c0,0,97,1,181,45c0,0,83,44,161,153c0,0,78,109,109,240c0,0,-117,-75,-212,-75c0,0,-107,0,-183,82c0,0,-76,82,-76,219c0,0,0,132,76,236c0,0,92,126,240,126c0,0,124,0,213,-103c0,0,109,-128,109,-315c0,0,0,-169,-82,-314C616,301,533,155,385,59c0,0,-120,-79,-262,-79Z" 
id="f1_t"
transform="scale(0.001,-0.001)" />

<path d="M0,598L23,819c0,0,10,95,20,127c0,0,14,47,39,68c0,0,26,20,58,20c0,0,27,0,43,-14c0,0,15,-15,15,-39c0,0,0,-17,-7,-38c0,0,-10,-28,-55,-124L33,598Z" 
id="f4_2s"
transform="scale(0.001,-0.001)" />

<path d="M355,0V355H0v72H355V784h72V427H782V355H427V0Z" 
id="f4_f"
transform="scale(0.001,-0.001)" />

<path d="M230,639c0,0,69,0,118,48c0,0,48,49,48,118c0,0,0,69,-48,118c0,0,-49,49,-118,49c0,0,-69,0,-118,-49c0,0,-48,-49,-48,-118c0,0,0,-69,48,-118c0,0,49,-48,118,-48Zm1,-64c0,0,-96,0,-163,67C68,642,1,709,1,804c0,0,0,95,67,162c0,0,67,68,163,68c0,0,94,0,161,-68c0,0,68,-67,68,-162c0,0,0,-95,-68,-162c0,0,-67,-67,-161,-67Z" 
id="f4_36"
transform="scale(0.001,-0.001)" />

<path d="M23,0V26c0,0,47,0,66,10c0,0,19,11,28,33c0,0,10,22,10,85V416c0,0,0,112,-7,145c0,0,-5,25,-16,34c0,0,-11,10,-31,10c0,0,-21,0,-50,-11L12,620l207,83h32V557c0,0,75,75,88,86c0,0,34,29,72,44c0,0,39,16,77,16c0,0,64,0,110,-37c0,0,47,-38,62,-109c0,0,77,90,130,118c0,0,53,28,109,28c0,0,54,0,96,-28c0,0,42,-28,67,-91c0,0,16,-43,16,-136V154c0,0,0,-64,10,-88c0,0,8,-16,28,-28c0,0,20,-12,65,-12V0H844V26h14c0,0,44,0,69,18c0,0,17,12,24,38c0,0,3,13,3,72V448c0,0,0,83,-20,117c0,0,-29,48,-93,48c0,0,-39,0,-79,-20c0,0,-40,-19,-97,-73l-1,-8l2,-32V154c0,0,0,-70,8,-87c0,0,7,-17,29,-29c0,0,21,-12,73,-12V0H431V26c0,0,57,0,78,14c0,0,21,13,29,40c0,0,4,13,4,74V448c0,0,0,83,-25,120c0,0,-33,48,-91,48c0,0,-40,0,-80,-22c0,0,-61,-33,-95,-74V154c0,0,0,-67,10,-87c0,0,9,-20,27,-30c0,0,18,-11,74,-11V0Z" 
id="f1_29"
transform="scale(0.001,-0.001)" />

<path d="M911,-16L244,799V175c0,0,0,-93,21,-116c0,0,28,-32,86,-32h36V0H36V27H71c0,0,65,0,92,39c0,0,16,24,16,109V879c0,0,-44,52,-67,68c0,0,-23,17,-67,31c0,0,-21,7,-64,7v27H253L873,253V837c0,0,0,93,-21,116c0,0,-28,32,-87,32H730v27h351V985h-36c0,0,-64,0,-91,-39c0,0,-16,-24,-16,-109V-16Z" 
id="f1_1e"
transform="scale(0.001,-0.001)" />

<path d="M0,-123V1415H525v-72H72V-123Z" 
id="f4_4r"
transform="scale(0.001,-0.001)" />

<path d="M478,-123V1343H26v72H550V-123Z" 
id="f4_57"
transform="scale(0.001,-0.001)" />

<path d="M0,-123V1415H72V-123Z" 
id="f4_4s"
transform="scale(0.001,-0.001)" />

<path d="M0,-123V1415H72V-123Z" 
id="f4_58"
transform="scale(0.001,-0.001)" />

<path d="M0,-123V1415H72V-51H525v-72Z" 
id="f4_4t"
transform="scale(0.001,-0.001)" />

<path d="M26,-123v72H478V1415h72V-123Z" 
id="f4_59"
transform="scale(0.001,-0.001)" />

<path d="M494,385V878L152,385ZM494,0V262H20V385l498,708H628V385H775V262H628V0Z" 
id="f5_o"
transform="scale(0.001,-0.001)" />


</defs>
</svg>