<?xml version="1.0" encoding="UTF-8" standalone="no"?>
<!DOCTYPE svg PUBLIC "-//W3C//DTD SVG 1.1//EN"
"http://www.w3.org/Graphics/SVG/1.1/DTD/svg11.dtd">
<svg viewBox="0 0 909 1286" version="1.1" xmlns="http://www.w3.org/2000/svg" xmlns:xlink="http://www.w3.org/1999/xlink">
<defs>
</defs>
<g fill="#000000" >
<use xlink:href="#f0_1a" transform="matrix(12,0,0,12,47.4,334.6)" />
<use xlink:href="#f0_7" transform="matrix(12,0,0,12,61.2,334.6)" />
<use xlink:href="#f0_k" transform="matrix(12,0,0,12,73.5,334.6)" />
<use xlink:href="#f0_c" transform="matrix(12,0,0,12,82.9,334.6)" />
<use xlink:href="#f1_2" transform="matrix(12,0,0,12,93.2,334.6)" />
<use xlink:href="#f1_h" transform="matrix(12,0,0,12,99.9,334.6)" />
<use xlink:href="#f1_16" transform="matrix(12,0,0,12,110.9,334.6)" />
<use xlink:href="#f1_j" transform="matrix(12,0,0,12,121.5,334.6)" />
<use xlink:href="#f1_o" transform="matrix(12,0,0,12,132.5,334.6)" />
<use xlink:href="#f1_t" transform="matrix(12,0,0,12,141.4,334.6)" />
<use xlink:href="#f1_l" transform="matrix(12,0,0,12,148.1,334.6)" />
<use xlink:href="#f1_h" transform="matrix(12,0,0,12,158.7,334.6)" />
<use xlink:href="#f1_o" transform="matrix(12,0,0,12,169.7,334.6)" />
<use xlink:href="#f1_b" transform="matrix(12,0,0,12,178.6,334.6)" />
<use xlink:href="#f1_d" transform="matrix(12,0,0,12,187.6,334.6)" />
<use xlink:href="#f1_5" transform="matrix(12,0,0,12,197,334.6)" />
<use xlink:href="#f1_f" transform="matrix(12,0,0,12,213.1,334.6)" />
<use xlink:href="#f1_17" transform="matrix(12,0,0,12,228.1,334.6)" />
<use xlink:href="#f1_11" transform="matrix(12,0,0,12,238.4,334.6)" />
<use xlink:href="#f1_12" transform="matrix(12,0,0,12,243.6,334.6)" />
<use xlink:href="#f1_y" transform="matrix(12,0,0,12,258.6,334.6)" />
<use xlink:href="#f1_6" transform="matrix(12,0,0,12,47.4,385)" />
<use xlink:href="#f1_l" transform="matrix(12,0,0,12,58.8,385)" />
<use xlink:href="#f1_r" transform="matrix(12,0,0,12,69.4,385)" />
<use xlink:href="#f1_l" transform="matrix(12,0,0,12,80,385)" />
<use xlink:href="#f1_o" transform="matrix(12,0,0,12,90.6,385)" />
<use xlink:href="#f1_s" transform="matrix(12,0,0,12,99.5,385)" />
<use xlink:href="#f1_t" transform="matrix(12,0,0,12,105.1,385)" />
<use xlink:href="#f1_l" transform="matrix(12,0,0,12,111.8,385)" />
<use xlink:href="#f1_h" transform="matrix(12,0,0,12,122.4,385)" />
<use xlink:href="#f1_o" transform="matrix(12,0,0,12,133.4,385)" />
<use xlink:href="#f1_b" transform="matrix(12,0,0,12,142.3,385)" />
<use xlink:href="#f1_d" transform="matrix(12,0,0,12,151.3,385)" />
<use xlink:href="#f1_6" transform="matrix(12,0,0,12,160.7,385)" />
<use xlink:href="#f1_f" transform="matrix(12,0,0,12,176.9,385)" />
<use xlink:href="#f1_w" transform="matrix(12,0,0,12,191.9,385)" />
<use xlink:href="#f1_18" transform="matrix(12,0,0,12,202.1,385)" />
</g>
<image preserveAspectRatio="none" x="217" y="362" width="43" height="35" xlink:href="img/1.png" />
<g fill="#000000" >
<use xlink:href="#f1_f" transform="matrix(12,0,0,12,264.6,385)" />
</g>
<image preserveAspectRatio="none" x="275" y="362" width="150" height="35" xlink:href="img/2.png" />
<g fill="#000000" >
<use xlink:href="#f1_7" transform="matrix(12,0,0,12,47.4,438.5)" />
<use xlink:href="#f1_b" transform="matrix(12,0,0,12,59.2,438.5)" />
<use xlink:href="#f1_x" transform="matrix(12,0,0,12,68.2,438.5)" />
<use xlink:href="#f1_s" transform="matrix(12,0,0,12,76.7,438.5)" />
<use xlink:href="#f1_x" transform="matrix(12,0,0,12,82.3,438.5)" />
<use xlink:href="#f1_t" transform="matrix(12,0,0,12,90.8,438.5)" />
<use xlink:href="#f1_l" transform="matrix(12,0,0,12,97.5,438.5)" />
<use xlink:href="#f1_h" transform="matrix(12,0,0,12,108.1,438.5)" />
<use xlink:href="#f1_o" transform="matrix(12,0,0,12,119.1,438.5)" />
<use xlink:href="#f1_b" transform="matrix(12,0,0,12,128,438.5)" />
<use xlink:href="#f1_d" transform="matrix(12,0,0,12,137,438.5)" />
<use xlink:href="#f1_7" transform="matrix(12,0,0,12,146.4,438.5)" />
<use xlink:href="#f1_f" transform="matrix(12,0,0,12,162.9,438.5)" />
<use xlink:href="#f1_18" transform="matrix(12,0,0,12,177.9,438.5)" />
<use xlink:href="#f1_11" transform="matrix(12,0,0,12,188.2,438.5)" />
<use xlink:href="#f1_13" transform="matrix(12,0,0,12,193.4,438.5)" />
</g>
<image preserveAspectRatio="none" x="203" y="420" width="26" height="26" xlink:href="img/3.png" />
<g fill="#000000" >
<use xlink:href="#f1_g" transform="matrix(12,0,0,12,47.4,488.9)" />
<use xlink:href="#f1_t" transform="matrix(12,0,0,12,60.3,488.9)" />
<use xlink:href="#f1_c" transform="matrix(12,0,0,12,71.8,488.9)" />
<use xlink:href="#f1_b" transform="matrix(12,0,0,12,80.3,488.9)" />
<use xlink:href="#f1_x" transform="matrix(12,0,0,12,89.4,488.9)" />
<use xlink:href="#f1_q" transform="matrix(12,0,0,12,97.8,488.9)" />
<use xlink:href="#f1_h" transform="matrix(12,0,0,12,108.4,488.9)" />
<use xlink:href="#f1_l" transform="matrix(12,0,0,12,119.4,488.9)" />
<use xlink:href="#f1_h" transform="matrix(12,0,0,12,130,488.9)" />
<use xlink:href="#f1_o" transform="matrix(12,0,0,12,140.9,488.9)" />
<use xlink:href="#f1_b" transform="matrix(12,0,0,12,149.8,488.9)" />
<use xlink:href="#f1_d" transform="matrix(12,0,0,12,158.9,488.9)" />
<use xlink:href="#f1_l" transform="matrix(12,0,0,12,168.2,488.9)" />
<use xlink:href="#f1_h" transform="matrix(12,0,0,12,178.8,488.9)" />
<use xlink:href="#f1_i" transform="matrix(12,0,0,12,189.8,488.9)" />
<use xlink:href="#f1_j" transform="matrix(12,0,0,12,200,488.9)" />
<use xlink:href="#f1_k" transform="matrix(12,0,0,12,211,488.9)" />
<use xlink:href="#f1_l" transform="matrix(12,0,0,12,216.5,488.9)" />
<use xlink:href="#f1_c" transform="matrix(12,0,0,12,227.1,488.9)" />
<use xlink:href="#f1_m" transform="matrix(12,0,0,12,240.4,488.9)" />
<use xlink:href="#f1_c" transform="matrix(12,0,0,12,246.3,488.9)" />
<use xlink:href="#f1_b" transform="matrix(12,0,0,12,254.8,488.9)" />
<use xlink:href="#f1_n" transform="matrix(12,0,0,12,263.9,488.9)" />
<use xlink:href="#f1_j" transform="matrix(12,0,0,12,274.1,488.9)" />
<use xlink:href="#f1_b" transform="matrix(12,0,0,12,285.1,488.9)" />
<use xlink:href="#f1_h" transform="matrix(12,0,0,12,294.1,488.9)" />
<use xlink:href="#f1_o" transform="matrix(12,0,0,12,305.1,488.9)" />
<use xlink:href="#f1_p" transform="matrix(12,0,0,12,314,488.9)" />
<use xlink:href="#f1_q" transform="matrix(12,0,0,12,328.4,488.9)" />
<use xlink:href="#f1_m" transform="matrix(12,0,0,12,339,488.9)" />
<use xlink:href="#f1_t" transform="matrix(12,0,0,12,349.5,488.9)" />
<use xlink:href="#f1_a" transform="matrix(12,0,0,12,356.3,488.9)" />
<use xlink:href="#f1_b" transform="matrix(12,0,0,12,367.2,488.9)" />
<use xlink:href="#f1_x" transform="matrix(12,0,0,12,381,488.9)" />
<use xlink:href="#f1_q" transform="matrix(12,0,0,12,389.5,488.9)" />
<use xlink:href="#f1_j" transform="matrix(12,0,0,12,400,488.9)" />
<use xlink:href="#f1_c" transform="matrix(12,0,0,12,411,488.9)" />
<use xlink:href="#f1_o" transform="matrix(12,0,0,12,419.6,488.9)" />
<use xlink:href="#f1_b" transform="matrix(12,0,0,12,428.5,488.9)" />
<use xlink:href="#f1_m" transform="matrix(12,0,0,12,442.3,488.9)" />
<use xlink:href="#f1_q" transform="matrix(12,0,0,12,448.1,488.9)" />
<use xlink:href="#f1_c" transform="matrix(12,0,0,12,458.6,488.9)" />
<use xlink:href="#f1_t" transform="matrix(12,0,0,12,471.9,488.9)" />
<use xlink:href="#f1_a" transform="matrix(12,0,0,12,478.7,488.9)" />
<use xlink:href="#f1_b" transform="matrix(12,0,0,12,489.7,488.9)" />
<use xlink:href="#f1_i" transform="matrix(12,0,0,12,503.4,488.9)" />
<use xlink:href="#f1_s" transform="matrix(12,0,0,12,513.6,488.9)" />
<use xlink:href="#f1_u" transform="matrix(12,0,0,12,519.2,488.9)" />
<use xlink:href="#f1_b" transform="matrix(12,0,0,12,529,488.9)" />
<use xlink:href="#f1_h" transform="matrix(12,0,0,12,538.1,488.9)" />
<use xlink:href="#f1_5" transform="matrix(12,0,0,12,553.8,488.9)" />
<use xlink:href="#f1_6" transform="matrix(12,0,0,12,565.2,488.9)" />
<use xlink:href="#f1_7" transform="matrix(12,0,0,12,576.7,488.9)" />
<use xlink:href="#f1_x" transform="matrix(12,0,0,12,593.3,488.9)" />
<use xlink:href="#f1_b" transform="matrix(12,0,0,12,601.8,488.9)" />
<use xlink:href="#f1_c" transform="matrix(12,0,0,12,610.8,488.9)" />
<use xlink:href="#f1_s" transform="matrix(12,0,0,12,619.4,488.9)" />
<use xlink:href="#f1_b" transform="matrix(12,0,0,12,624.9,488.9)" />
<use xlink:href="#f1_x" transform="matrix(12,0,0,12,634,488.9)" />
<use xlink:href="#f1_o" transform="matrix(12,0,0,12,647.2,488.9)" />
<use xlink:href="#f1_s" transform="matrix(12,0,0,12,656.1,488.9)" />
<use xlink:href="#f1_c" transform="matrix(12,0,0,12,661.7,488.9)" />
<use xlink:href="#f1_o" transform="matrix(12,0,0,12,670.2,488.9)" />
<use xlink:href="#f1_j" transform="matrix(12,0,0,12,679.1,488.9)" />
<use xlink:href="#f1_s" transform="matrix(12,0,0,12,690.1,488.9)" />
<use xlink:href="#f1_t" transform="matrix(12,0,0,12,695.7,488.9)" />
<use xlink:href="#f1_s" transform="matrix(12,0,0,12,707.2,488.9)" />
<use xlink:href="#f1_x" transform="matrix(12,0,0,12,712.7,488.9)" />
<use xlink:href="#f1_i" transform="matrix(12,0,0,12,726,488.9)" />
<use xlink:href="#f1_s" transform="matrix(12,0,0,12,736.2,488.9)" />
<use xlink:href="#f1_u" transform="matrix(12,0,0,12,741.7,488.9)" />
<use xlink:href="#f1_b" transform="matrix(12,0,0,12,751.6,488.9)" />
<use xlink:href="#f1_h" transform="matrix(12,0,0,12,760.6,488.9)" />
<use xlink:href="#f1_l" transform="matrix(12,0,0,12,776.3,488.9)" />
<use xlink:href="#f1_x" transform="matrix(12,0,0,12,786.9,488.9)" />
<use xlink:href="#f1_19" transform="matrix(12,0,0,12,795.4,488.9)" />
</g>
<image preserveAspectRatio="none" x="47" y="516" width="123" height="66" xlink:href="img/4.png" />
<image preserveAspectRatio="none" x="47" y="600" width="350" height="68" xlink:href="img/5.png" />
<g fill="#000000" >
<use xlink:href="#f1_1a" transform="matrix(12,0,0,12,47.4,708.9)" />
<use xlink:href="#f1_1b" transform="matrix(12,0,0,12,61,708.9)" />
<use xlink:href="#f1_m" transform="matrix(12,0,0,12,66.6,708.9)" />
<use xlink:href="#f1_l" transform="matrix(12,0,0,12,72.5,708.9)" />
<use xlink:href="#f1_o" transform="matrix(12,0,0,12,83.1,708.9)" />
<use xlink:href="#f1_t" transform="matrix(12,0,0,12,92,708.9)" />
<use xlink:href="#f1_q" transform="matrix(12,0,0,12,98.7,708.9)" />
<use xlink:href="#f1_c" transform="matrix(12,0,0,12,109.2,708.9)" />
<use xlink:href="#f1_q" transform="matrix(12,0,0,12,122.6,708.9)" />
<use xlink:href="#f1_m" transform="matrix(12,0,0,12,133.1,708.9)" />
<use xlink:href="#f1_t" transform="matrix(12,0,0,12,143.7,708.9)" />
<use xlink:href="#f1_a" transform="matrix(12,0,0,12,150.4,708.9)" />
<use xlink:href="#f1_b" transform="matrix(12,0,0,12,161.4,708.9)" />
<use xlink:href="#f1_x" transform="matrix(12,0,0,12,175.1,708.9)" />
<use xlink:href="#f1_b" transform="matrix(12,0,0,12,183.6,708.9)" />
<use xlink:href="#f1_c" transform="matrix(12,0,0,12,192.7,708.9)" />
<use xlink:href="#f1_s" transform="matrix(12,0,0,12,201.2,708.9)" />
<use xlink:href="#f1_b" transform="matrix(12,0,0,12,206.8,708.9)" />
<use xlink:href="#f1_x" transform="matrix(12,0,0,12,215.8,708.9)" />
<use xlink:href="#f1_19" transform="matrix(12,0,0,12,224.3,708.9)" />
</g>
<image preserveAspectRatio="none" x="47" y="736" width="204" height="58" xlink:href="img/6.png" />
<g fill="#000000" >
<use xlink:href="#f1_1c" transform="matrix(12,0,0,12,47.4,835.7)" />
<use xlink:href="#f1_q" transform="matrix(12,0,0,12,58.6,835.7)" />
<use xlink:href="#f1_s" transform="matrix(12,0,0,12,73.9,835.7)" />
<use xlink:href="#f1_z" transform="matrix(12,0,0,12,79.4,835.7)" />
<use xlink:href="#f1_r" transform="matrix(12,0,0,12,95.8,835.7)" />
<use xlink:href="#f1_c" transform="matrix(12,0,0,12,106.4,835.7)" />
<use xlink:href="#f1_q" transform="matrix(12,0,0,12,115,835.7)" />
<use xlink:href="#f1_u" transform="matrix(12,0,0,12,125.5,835.7)" />
<use xlink:href="#f1_b" transform="matrix(12,0,0,12,135.4,835.7)" />
<use xlink:href="#f1_t" transform="matrix(12,0,0,12,149.1,835.7)" />
<use xlink:href="#f1_a" transform="matrix(12,0,0,12,155.9,835.7)" />
<use xlink:href="#f1_b" transform="matrix(12,0,0,12,166.9,835.7)" />
<use xlink:href="#f1_x" transform="matrix(12,0,0,12,180.6,835.7)" />
<use xlink:href="#f1_a" transform="matrix(12,0,0,12,189.1,835.7)" />
<use xlink:href="#f1_l" transform="matrix(12,0,0,12,200.1,835.7)" />
<use xlink:href="#f1_c" transform="matrix(12,0,0,12,210.7,835.7)" />
<use xlink:href="#f1_r" transform="matrix(12,0,0,12,219.3,835.7)" />
<use xlink:href="#f1_h" transform="matrix(12,0,0,12,229.9,835.7)" />
<use xlink:href="#f1_b" transform="matrix(12,0,0,12,240.8,835.7)" />
<use xlink:href="#f1_x" transform="matrix(12,0,0,12,249.9,835.7)" />
<use xlink:href="#f1_x" transform="matrix(12,0,0,12,258.4,835.7)" />
<use xlink:href="#f1_q" transform="matrix(12,0,0,12,271.6,835.7)" />
<use xlink:href="#f1_m" transform="matrix(12,0,0,12,282.1,835.7)" />
<use xlink:href="#f1_t" transform="matrix(12,0,0,12,292.7,835.7)" />
<use xlink:href="#f1_a" transform="matrix(12,0,0,12,299.4,835.7)" />
<use xlink:href="#f1_b" transform="matrix(12,0,0,12,310.4,835.7)" />
<use xlink:href="#f1_c" transform="matrix(12,0,0,12,324.2,835.7)" />
<use xlink:href="#f1_b" transform="matrix(12,0,0,12,332.8,835.7)" />
<use xlink:href="#f1_x" transform="matrix(12,0,0,12,341.8,835.7)" />
<use xlink:href="#f1_q" transform="matrix(12,0,0,12,350.3,835.7)" />
<use xlink:href="#f1_h" transform="matrix(12,0,0,12,360.8,835.7)" />
<use xlink:href="#f1_l" transform="matrix(12,0,0,12,371.8,835.7)" />
<use xlink:href="#f1_h" transform="matrix(12,0,0,12,382.4,835.7)" />
<use xlink:href="#f1_o" transform="matrix(12,0,0,12,393.4,835.7)" />
<use xlink:href="#f1_b" transform="matrix(12,0,0,12,402.3,835.7)" />
<use xlink:href="#f1_v" transform="matrix(12,0,0,12,416.1,835.7)" />
<use xlink:href="#f1_p" transform="matrix(12,0,0,12,426.3,835.7)" />
<use xlink:href="#f1_c" transform="matrix(12,0,0,12,440.8,835.7)" />
<use xlink:href="#f1_b" transform="matrix(12,0,0,12,449.3,835.7)" />
<use xlink:href="#f1_16" transform="matrix(12,0,0,12,458.4,835.7)" />
<use xlink:href="#f1_j" transform="matrix(12,0,0,12,469,835.7)" />
<use xlink:href="#f1_o" transform="matrix(12,0,0,12,479.9,835.7)" />
<use xlink:href="#f1_s" transform="matrix(12,0,0,12,488.8,835.7)" />
<use xlink:href="#f1_h" transform="matrix(12,0,0,12,494.4,835.7)" />
<use xlink:href="#f1_i" transform="matrix(12,0,0,12,505.4,835.7)" />
<use xlink:href="#f1_s" transform="matrix(12,0,0,12,520.3,835.7)" />
<use xlink:href="#f1_t" transform="matrix(12,0,0,12,525.9,835.7)" />
<use xlink:href="#f1_x" transform="matrix(12,0,0,12,532.6,835.7)" />
<use xlink:href="#f1_m" transform="matrix(12,0,0,12,545.9,835.7)" />
<use xlink:href="#f1_j" transform="matrix(12,0,0,12,551.7,835.7)" />
<use xlink:href="#f1_k" transform="matrix(12,0,0,12,562.7,835.7)" />
<use xlink:href="#f1_k" transform="matrix(12,0,0,12,568.2,835.7)" />
<use xlink:href="#f1_1d" transform="matrix(12,0,0,12,578.6,835.7)" />
<use xlink:href="#f1_s" transform="matrix(12,0,0,12,593.5,835.7)" />
<use xlink:href="#f1_16" transform="matrix(12,0,0,12,599.1,835.7)" />
<use xlink:href="#f1_t" transform="matrix(12,0,0,12,609.7,835.7)" />
<use xlink:href="#f1_a" transform="matrix(12,0,0,12,616.4,835.7)" />
<use xlink:href="#f1_l" transform="matrix(12,0,0,12,632.2,835.7)" />
<use xlink:href="#f1_t" transform="matrix(12,0,0,12,642.8,835.7)" />
<use xlink:href="#f1_a" transform="matrix(12,0,0,12,654.2,835.7)" />
<use xlink:href="#f1_l" transform="matrix(12,0,0,12,665.2,835.7)" />
<use xlink:href="#f1_k" transform="matrix(12,0,0,12,675.8,835.7)" />
<use xlink:href="#f1_m" transform="matrix(12,0,0,12,681.4,835.7)" />
<use xlink:href="#f1_z" transform="matrix(12,0,0,12,692,835.7)" />
<use xlink:href="#f1_l" transform="matrix(12,0,0,12,708.4,835.7)" />
<use xlink:href="#f1_1e" transform="matrix(12,0,0,12,719,835.7)" />
<use xlink:href="#f1_s" transform="matrix(12,0,0,12,729,835.7)" />
<use xlink:href="#f1_z" transform="matrix(12,0,0,12,734.6,835.7)" />
<use xlink:href="#f1_j" transform="matrix(12,0,0,12,751,835.7)" />
<use xlink:href="#f1_z" transform="matrix(12,0,0,12,762,835.7)" />
<use xlink:href="#f1_1f" transform="matrix(12,0,0,12,778.4,835.7)" />
<use xlink:href="#f1_v" transform="matrix(12,0,0,12,787.2,835.7)" />
<use xlink:href="#f1_p" transform="matrix(12,0,0,12,797.5,835.7)" />
<use xlink:href="#f1_l" transform="matrix(12,0,0,12,811.9,835.7)" />
<use xlink:href="#f1_m" transform="matrix(12,0,0,12,47.4,867.8)" />
<use xlink:href="#f1_l" transform="matrix(12,0,0,12,53.2,867.8)" />
<use xlink:href="#f1_o" transform="matrix(12,0,0,12,63.8,867.8)" />
<use xlink:href="#f1_t" transform="matrix(12,0,0,12,72.7,867.8)" />
<use xlink:href="#f1_q" transform="matrix(12,0,0,12,79.4,867.8)" />
<use xlink:href="#f1_c" transform="matrix(12,0,0,12,89.9,867.8)" />
<use xlink:href="#f1_q" transform="matrix(12,0,0,12,103.3,867.8)" />
<use xlink:href="#f1_m" transform="matrix(12,0,0,12,113.8,867.8)" />
<use xlink:href="#f1_w" transform="matrix(12,0,0,12,124.4,867.8)" />
<use xlink:href="#f1_1d" transform="matrix(12,0,0,12,139.4,867.8)" />
<use xlink:href="#f1_s" transform="matrix(12,0,0,12,154.4,867.8)" />
<use xlink:href="#f1_t" transform="matrix(12,0,0,12,159.9,867.8)" />
<use xlink:href="#f1_a" transform="matrix(12,0,0,12,166.6,867.8)" />
<use xlink:href="#f1_q" transform="matrix(12,0,0,12,177.6,867.8)" />
<use xlink:href="#f1_j" transform="matrix(12,0,0,12,188.2,867.8)" />
<use xlink:href="#f1_t" transform="matrix(12,0,0,12,199.1,867.8)" />
<use xlink:href="#f1_o" transform="matrix(12,0,0,12,210.6,867.8)" />
<use xlink:href="#f1_a" transform="matrix(12,0,0,12,219.5,867.8)" />
<use xlink:href="#f1_l" transform="matrix(12,0,0,12,230.5,867.8)" />
<use xlink:href="#f1_h" transform="matrix(12,0,0,12,241.1,867.8)" />
<use xlink:href="#f1_i" transform="matrix(12,0,0,12,252.1,867.8)" />
<use xlink:href="#f1_s" transform="matrix(12,0,0,12,262.3,867.8)" />
<use xlink:href="#f1_h" transform="matrix(12,0,0,12,267.8,867.8)" />
<use xlink:href="#f1_i" transform="matrix(12,0,0,12,278.8,867.8)" />
</g>
<image preserveAspectRatio="none" x="289" y="845" width="30" height="37" xlink:href="img/7.png" />
<g fill="#000000" >
<use xlink:href="#f1_d" transform="matrix(12,0,0,12,324.3,867.8)" />
<use xlink:href="#f1_1d" transform="matrix(12,0,0,12,333.7,867.8)" />
<use xlink:href="#f1_b" transform="matrix(12,0,0,12,348.6,867.8)" />
<use xlink:href="#f1_h" transform="matrix(12,0,0,12,362.4,867.8)" />
<use xlink:href="#f1_b" transform="matrix(12,0,0,12,373.4,867.8)" />
<use xlink:href="#f1_b" transform="matrix(12,0,0,12,382.4,867.8)" />
<use xlink:href="#f1_16" transform="matrix(12,0,0,12,391.4,867.8)" />
<use xlink:href="#f1_t" transform="matrix(12,0,0,12,406.8,867.8)" />
<use xlink:href="#f1_q" transform="matrix(12,0,0,12,413.5,867.8)" />
<use xlink:href="#f1_c" transform="matrix(12,0,0,12,428.8,867.8)" />
<use xlink:href="#f1_b" transform="matrix(12,0,0,12,437.4,867.8)" />
<use xlink:href="#f1_16" transform="matrix(12,0,0,12,446.4,867.8)" />
<use xlink:href="#f1_j" transform="matrix(12,0,0,12,457,867.8)" />
<use xlink:href="#f1_o" transform="matrix(12,0,0,12,468,867.8)" />
<use xlink:href="#f1_b" transform="matrix(12,0,0,12,476.9,867.8)" />
<use xlink:href="#f1_7" transform="matrix(12,0,0,12,490.7,867.8)" />
<use xlink:href="#f1_t" transform="matrix(12,0,0,12,507.2,867.8)" />
<use xlink:href="#f1_q" transform="matrix(12,0,0,12,514,867.8)" />
<use xlink:href="#f1_a" transform="matrix(12,0,0,12,529.3,867.8)" />
<use xlink:href="#f1_l" transform="matrix(12,0,0,12,540.2,867.8)" />
<use xlink:href="#f1_k" transform="matrix(12,0,0,12,550.8,867.8)" />
<use xlink:href="#f1_m" transform="matrix(12,0,0,12,556.4,867.8)" />
<use xlink:href="#f1_s" transform="matrix(12,0,0,12,567,867.8)" />
<use xlink:href="#f1_11" transform="matrix(12,0,0,12,572.5,867.8)" />
<use xlink:href="#f1_b" transform="matrix(12,0,0,12,577.8,867.8)" />
<use xlink:href="#f1_11" transform="matrix(12,0,0,12,586.8,867.8)" />
<use xlink:href="#f1_d" transform="matrix(12,0,0,12,592,867.8)" />
<use xlink:href="#f1_7" transform="matrix(12,0,0,12,47.4,931.9)" />
<use xlink:href="#f1_b" transform="matrix(12,0,0,12,59.2,931.9)" />
<use xlink:href="#f1_x" transform="matrix(12,0,0,12,68.2,931.9)" />
<use xlink:href="#f1_s" transform="matrix(12,0,0,12,76.7,931.9)" />
<use xlink:href="#f1_x" transform="matrix(12,0,0,12,82.3,931.9)" />
<use xlink:href="#f1_t" transform="matrix(12,0,0,12,90.8,931.9)" />
<use xlink:href="#f1_l" transform="matrix(12,0,0,12,97.5,931.9)" />
<use xlink:href="#f1_h" transform="matrix(12,0,0,12,108.1,931.9)" />
<use xlink:href="#f1_o" transform="matrix(12,0,0,12,119.1,931.9)" />
<use xlink:href="#f1_b" transform="matrix(12,0,0,12,128,931.9)" />
<use xlink:href="#f1_f" transform="matrix(12,0,0,12,141.8,931.9)" />
</g>
<image preserveAspectRatio="none" x="153" y="900" width="134" height="53" xlink:href="img/8.png" />
<image preserveAspectRatio="none" x="85" y="197" width="43" height="35" xlink:href="img/9.png" />
<image preserveAspectRatio="none" x="249" y="201" width="26" height="26" xlink:href="img/10.png" />
<g fill="#000000" >
<use xlink:href="#f0_a" transform="matrix(12,0,0,12,50.1,187.4)" />
<use xlink:href="#f0_b" transform="matrix(12,0,0,12,60.4,187.4)" />
<use xlink:href="#f0_c" transform="matrix(12,0,0,12,70.6,187.4)" />
<use xlink:href="#f0_e" transform="matrix(12,0,0,12,80.9,187.4)" />
<use xlink:href="#f0_f" transform="matrix(12,0,0,12,95.4,187.4)" />
<use xlink:href="#f0_8" transform="matrix(12,0,0,12,106.8,187.4)" />
<use xlink:href="#f0_g" transform="matrix(12,0,0,12,114.5,187.4)" />
<use xlink:href="#f0_6" transform="matrix(12,0,0,12,126.7,187.4)" />
<use xlink:href="#f0_7" transform="matrix(12,0,0,12,133.1,187.4)" />
<use xlink:href="#f0_8" transform="matrix(12,0,0,12,150.2,187.4)" />
<use xlink:href="#f0_h" transform="matrix(12,0,0,12,157.8,187.4)" />
<use xlink:href="#f0_i" transform="matrix(12,0,0,12,169.8,187.4)" />
<use xlink:href="#f0_j" transform="matrix(12,0,0,12,184.4,187.4)" />
<use xlink:href="#f0_i" transform="matrix(12,0,0,12,194.5,187.4)" />
<use xlink:href="#f0_k" transform="matrix(12,0,0,12,204.3,187.4)" />
<use xlink:href="#f0_l" transform="matrix(12,0,0,12,213.7,187.4)" />
<use xlink:href="#f0_7" transform="matrix(12,0,0,12,225,187.4)" />
<use xlink:href="#f0_g" transform="matrix(12,0,0,12,237.3,187.4)" />
<use xlink:href="#f0_7" transform="matrix(12,0,0,12,249.5,187.4)" />
<use xlink:href="#f0_8" transform="matrix(12,0,0,12,261.8,187.4)" />
<use xlink:href="#f0_m" transform="matrix(12,0,0,12,274.2,187.4)" />
<use xlink:href="#f0_j" transform="matrix(12,0,0,12,281.6,187.4)" />
<use xlink:href="#f0_i" transform="matrix(12,0,0,12,291.7,187.4)" />
<use xlink:href="#f0_n" transform="matrix(12,0,0,12,301.5,187.4)" />
<use xlink:href="#f0_o" transform="matrix(12,0,0,12,313.1,187.4)" />
<use xlink:href="#f0_i" transform="matrix(12,0,0,12,325.4,187.4)" />
<use xlink:href="#f0_7" transform="matrix(12,0,0,12,335.2,187.4)" />
<use xlink:href="#f0_p" transform="matrix(12,0,0,12,347.5,187.4)" />
<use xlink:href="#f0_q" transform="matrix(12,0,0,12,357.2,187.4)" />
<use xlink:href="#f0_g" transform="matrix(12,0,0,12,372.7,187.4)" />
<use xlink:href="#f0_7" transform="matrix(12,0,0,12,384.9,187.4)" />
<use xlink:href="#f0_r" transform="matrix(12,0,0,12,397.2,187.4)" />
<use xlink:href="#f0_s" transform="matrix(12,0,0,12,414.1,187.4)" />
<use xlink:href="#f0_t" transform="matrix(12,0,0,12,428.5,187.4)" />
<use xlink:href="#f0_m" transform="matrix(12,0,0,12,434.2,187.4)" />
<use xlink:href="#f0_g" transform="matrix(12,0,0,12,441.6,187.4)" />
<use xlink:href="#f0_p" transform="matrix(12,0,0,12,453.8,187.4)" />
<use xlink:href="#f0_8" transform="matrix(12,0,0,12,463.5,187.4)" />
<use xlink:href="#f0_l" transform="matrix(12,0,0,12,471.1,187.4)" />
<use xlink:href="#f0_j" transform="matrix(12,0,0,12,482.4,187.4)" />
<use xlink:href="#f0_l" transform="matrix(12,0,0,12,497.3,187.4)" />
<use xlink:href="#f0_m" transform="matrix(12,0,0,12,508.6,187.4)" />
<use xlink:href="#f0_g" transform="matrix(12,0,0,12,520.7,187.4)" />
<use xlink:href="#f0_k" transform="matrix(12,0,0,12,537.7,187.4)" />
<use xlink:href="#f0_i" transform="matrix(12,0,0,12,547.1,187.4)" />
<use xlink:href="#f0_j" transform="matrix(12,0,0,12,556.9,187.4)" />
<use xlink:href="#f0_6" transform="matrix(12,0,0,12,567,187.4)" />
<use xlink:href="#f0_i" transform="matrix(12,0,0,12,573.4,187.4)" />
<use xlink:href="#f0_k" transform="matrix(12,0,0,12,583.2,187.4)" />
<use xlink:href="#f0_2" transform="matrix(12,0,0,12,597.4,187.4)" />
<use xlink:href="#f0_3" transform="matrix(12,0,0,12,609.4,187.4)" />
<use xlink:href="#f0_4" transform="matrix(12,0,0,12,621.6,187.4)" />
<use xlink:href="#f0_p" transform="matrix(12,0,0,12,639.3,187.4)" />
<use xlink:href="#f0_6" transform="matrix(12,0,0,12,649,187.4)" />
<use xlink:href="#f0_j" transform="matrix(12,0,0,12,655.5,187.4)" />
<use xlink:href="#f0_p" transform="matrix(12,0,0,12,665.6,187.4)" />
<use xlink:href="#f0_o" transform="matrix(12,0,0,12,675.2,187.4)" />
<use xlink:href="#f0_6" transform="matrix(12,0,0,12,687.6,187.4)" />
<use xlink:href="#f0_8" transform="matrix(12,0,0,12,694,187.4)" />
<use xlink:href="#f0_u" transform="matrix(12,0,0,12,706.4,187.4)" />
<use xlink:href="#f0_6" transform="matrix(12,0,0,12,722.5,187.4)" />
<use xlink:href="#f0_8" transform="matrix(12,0,0,12,728.9,187.4)" />
<use xlink:href="#f0_h" transform="matrix(12,0,0,12,736.6,187.4)" />
<use xlink:href="#f0_2" transform="matrix(12,0,0,12,753.3,187.4)" />
<use xlink:href="#f0_v" transform="matrix(12,0,0,12,770.1,187.4)" />
<use xlink:href="#f0_w" transform="matrix(12,0,0,12,785.1,187.4)" />
<use xlink:href="#f0_c" transform="matrix(12,0,0,12,795.3,187.4)" />
<use xlink:href="#f0_b" transform="matrix(12,0,0,12,800.9,187.4)" />
<use xlink:href="#f0_5" transform="matrix(12,0,0,12,815.9,187.4)" />
<use xlink:href="#f0_x" transform="matrix(12,0,0,12,830.8,187.4)" />
<use xlink:href="#f0_3" transform="matrix(12,0,0,12,841,187.4)" />
<use xlink:href="#f0_v" transform="matrix(12,0,0,12,50.1,219.5)" />
<use xlink:href="#f0_y" transform="matrix(12,0,0,12,65.1,219.5)" />
<use xlink:href="#f0_z" transform="matrix(12,0,0,12,75.4,219.5)" />
<use xlink:href="#f0_x" transform="matrix(12,0,0,12,133.1,219.5)" />
<use xlink:href="#f0_g" transform="matrix(12,0,0,12,143.2,219.5)" />
<use xlink:href="#f0_7" transform="matrix(12,0,0,12,155.4,219.5)" />
<use xlink:href="#f0_r" transform="matrix(12,0,0,12,167.7,219.5)" />
<use xlink:href="#f0_4" transform="matrix(12,0,0,12,184.7,219.5)" />
<use xlink:href="#f0_v" transform="matrix(12,0,0,12,202.4,219.5)" />
<use xlink:href="#f0_z" transform="matrix(12,0,0,12,217.4,219.5)" />
<use xlink:href="#f0_c" transform="matrix(12,0,0,12,227.6,219.5)" />
<use xlink:href="#f0_10" transform="matrix(12,0,0,12,233.2,219.5)" />
<use xlink:href="#f0_c" transform="matrix(12,0,0,12,278.9,219.5)" />
<use xlink:href="#f0_11" transform="matrix(12,0,0,12,289.2,219.5)" />
<use xlink:href="#f0_8" transform="matrix(12,0,0,12,296.5,219.5)" />
<use xlink:href="#f0_6" transform="matrix(12,0,0,12,308.9,219.5)" />
<use xlink:href="#f0_k" transform="matrix(12,0,0,12,315.4,219.5)" />
<use xlink:href="#f0_r" transform="matrix(12,0,0,12,329.5,219.5)" />
<use xlink:href="#f0_i" transform="matrix(12,0,0,12,341.7,219.5)" />
<use xlink:href="#f0_k" transform="matrix(12,0,0,12,351.5,219.5)" />
<use xlink:href="#f0_6" transform="matrix(12,0,0,12,360.9,219.5)" />
<use xlink:href="#f0_j" transform="matrix(12,0,0,12,367.4,219.5)" />
<use xlink:href="#f0_i" transform="matrix(12,0,0,12,377.5,219.5)" />
<use xlink:href="#f0_r" transform="matrix(12,0,0,12,387.3,219.5)" />
<use xlink:href="#f0_8" transform="matrix(12,0,0,12,404.2,219.5)" />
<use xlink:href="#f0_l" transform="matrix(12,0,0,12,411.9,219.5)" />
<use xlink:href="#f0_6" transform="matrix(12,0,0,12,427.9,219.5)" />
<use xlink:href="#f0_12" transform="matrix(12,0,0,12,434.4,219.5)" />
<use xlink:href="#f0_13" transform="matrix(12,0,0,12,452.2,219.5)" />
<use xlink:href="#f0_j" transform="matrix(12,0,0,12,463.6,219.5)" />
<use xlink:href="#f0_l" transform="matrix(12,0,0,12,473.7,219.5)" />
<use xlink:href="#f0_14" transform="matrix(12,0,0,12,485,219.5)" />
<use xlink:href="#f0_i" transform="matrix(12,0,0,12,495.7,219.5)" />
<use xlink:href="#f0_8" transform="matrix(12,0,0,12,510.3,219.5)" />
<use xlink:href="#f0_h" transform="matrix(12,0,0,12,517.9,219.5)" />
<use xlink:href="#f0_i" transform="matrix(12,0,0,12,529.9,219.5)" />
<use xlink:href="#f0_k" transform="matrix(12,0,0,12,544.5,219.5)" />
<use xlink:href="#f0_h" transform="matrix(12,0,0,12,553.9,219.5)" />
<use xlink:href="#f0_g" transform="matrix(12,0,0,12,565.9,219.5)" />
<use xlink:href="#f0_j" transform="matrix(12,0,0,12,578.1,219.5)" />
<use xlink:href="#f0_13" transform="matrix(12,0,0,12,588.2,219.5)" />
<use xlink:href="#f0_7" transform="matrix(12,0,0,12,599.6,219.5)" />
<use xlink:href="#f0_i" transform="matrix(12,0,0,12,611.9,219.5)" />
<use xlink:href="#f0_k" transform="matrix(12,0,0,12,621.7,219.5)" />
<use xlink:href="#f0_k" transform="matrix(12,0,0,12,631.1,219.5)" />
<use xlink:href="#f0_l" transform="matrix(12,0,0,12,645.3,219.5)" />
<use xlink:href="#f0_m" transform="matrix(12,0,0,12,656.6,219.5)" />
<use xlink:href="#f0_8" transform="matrix(12,0,0,12,668.8,219.5)" />
<use xlink:href="#f0_h" transform="matrix(12,0,0,12,676.4,219.5)" />
<use xlink:href="#f0_i" transform="matrix(12,0,0,12,688.4,219.5)" />
<use xlink:href="#f0_j" transform="matrix(12,0,0,12,703,219.5)" />
<use xlink:href="#f0_i" transform="matrix(12,0,0,12,713.1,219.5)" />
<use xlink:href="#f0_k" transform="matrix(12,0,0,12,722.9,219.5)" />
<use xlink:href="#f0_l" transform="matrix(12,0,0,12,732.3,219.5)" />
<use xlink:href="#f0_7" transform="matrix(12,0,0,12,743.6,219.5)" />
<use xlink:href="#f0_g" transform="matrix(12,0,0,12,755.9,219.5)" />
<use xlink:href="#f0_7" transform="matrix(12,0,0,12,768.1,219.5)" />
<use xlink:href="#f0_p" transform="matrix(12,0,0,12,780.4,219.5)" />
<use xlink:href="#f0_i" transform="matrix(12,0,0,12,790.1,219.5)" />
<use xlink:href="#f0_l" transform="matrix(12,0,0,12,804.6,219.5)" />
<use xlink:href="#f0_m" transform="matrix(12,0,0,12,815.9,219.5)" />
<use xlink:href="#f0_8" transform="matrix(12,0,0,12,828.1,219.5)" />
<use xlink:href="#f0_h" transform="matrix(12,0,0,12,835.7,219.5)" />
<use xlink:href="#f0_i" transform="matrix(12,0,0,12,847.7,219.5)" />
<use xlink:href="#f0_p" transform="matrix(12,0,0,12,50.1,254.6)" />
<use xlink:href="#f0_6" transform="matrix(12,0,0,12,59.8,254.6)" />
<use xlink:href="#f0_j" transform="matrix(12,0,0,12,66.3,254.6)" />
<use xlink:href="#f0_p" transform="matrix(12,0,0,12,76.4,254.6)" />
<use xlink:href="#f0_o" transform="matrix(12,0,0,12,86,254.6)" />
<use xlink:href="#f0_6" transform="matrix(12,0,0,12,98.3,254.6)" />
<use xlink:href="#f0_8" transform="matrix(12,0,0,12,104.8,254.6)" />
<use xlink:href="#f0_f" transform="matrix(12,0,0,12,117.2,254.6)" />
<use xlink:href="#f0_q" transform="matrix(12,0,0,12,128.6,254.6)" />
<use xlink:href="#f0_j" transform="matrix(12,0,0,12,144.1,254.6)" />
<use xlink:href="#f0_i" transform="matrix(12,0,0,12,154.2,254.6)" />
<use xlink:href="#f0_r" transform="matrix(12,0,0,12,164,254.6)" />
<use xlink:href="#f0_o" transform="matrix(12,0,0,12,176.2,254.6)" />
<use xlink:href="#f0_p" transform="matrix(12,0,0,12,188.5,254.6)" />
<use xlink:href="#f0_6" transform="matrix(12,0,0,12,198.2,254.6)" />
<use xlink:href="#f0_7" transform="matrix(12,0,0,12,204.6,254.6)" />
<use xlink:href="#f0_15" transform="matrix(12,0,0,12,217,254.6)" />
<use xlink:href="#f0_6" transform="matrix(12,0,0,12,232.3,254.6)" />
<use xlink:href="#f0_8" transform="matrix(12,0,0,12,238.8,254.6)" />
<use xlink:href="#f0_k" transform="matrix(12,0,0,12,246.4,254.6)" />
<use xlink:href="#f0_16" transform="matrix(12,0,0,12,260.6,254.6)" />
<use xlink:href="#f0_m" transform="matrix(12,0,0,12,265.9,254.6)" />
<use xlink:href="#f0_o" transform="matrix(12,0,0,12,273.3,254.6)" />
<use xlink:href="#f0_17" transform="matrix(12,0,0,12,285.6,254.6)" />
<use xlink:href="#f0_17" transform="matrix(12,0,0,12,292.1,254.6)" />
<use xlink:href="#f0_u" transform="matrix(12,0,0,12,303.3,254.6)" />
<use xlink:href="#f0_6" transform="matrix(12,0,0,12,319.3,254.6)" />
<use xlink:href="#f0_r" transform="matrix(12,0,0,12,325.8,254.6)" />
<use xlink:href="#f0_8" transform="matrix(12,0,0,12,338,254.6)" />
<use xlink:href="#f0_h" transform="matrix(12,0,0,12,345.6,254.6)" />
<use xlink:href="#f0_g" transform="matrix(12,0,0,12,362.4,254.6)" />
<use xlink:href="#f0_8" transform="matrix(12,0,0,12,374.6,254.6)" />
<use xlink:href="#f0_h" transform="matrix(12,0,0,12,386.9,254.6)" />
<use xlink:href="#f0_g" transform="matrix(12,0,0,12,399,254.6)" />
<use xlink:href="#f0_17" transform="matrix(12,0,0,12,411.1,254.6)" />
<use xlink:href="#f0_m" transform="matrix(12,0,0,12,417.6,254.6)" />
<use xlink:href="#f0_12" transform="matrix(12,0,0,12,429.8,254.6)" />
<use xlink:href="#f0_g" transform="matrix(12,0,0,12,447.5,254.6)" />
<use xlink:href="#f0_18" transform="matrix(12,0,0,12,459.7,254.6)" />
<use xlink:href="#f0_6" transform="matrix(12,0,0,12,470.7,254.6)" />
<use xlink:href="#f0_12" transform="matrix(12,0,0,12,477.2,254.6)" />
<use xlink:href="#f0_o" transform="matrix(12,0,0,12,495,254.6)" />
<use xlink:href="#f0_12" transform="matrix(12,0,0,12,507.3,254.6)" />
<use xlink:href="#f0_16" transform="matrix(12,0,0,12,525,254.6)" />
<use xlink:href="#f0_f" transform="matrix(12,0,0,12,535.1,254.6)" />
<use xlink:href="#f0_q" transform="matrix(12,0,0,12,546.5,254.6)" />
<use xlink:href="#f0_g" transform="matrix(12,0,0,12,562,254.6)" />
<use xlink:href="#f0_m" transform="matrix(12,0,0,12,578.9,254.6)" />
<use xlink:href="#f0_g" transform="matrix(12,0,0,12,586.3,254.6)" />
<use xlink:href="#f0_p" transform="matrix(12,0,0,12,598.5,254.6)" />
<use xlink:href="#f0_8" transform="matrix(12,0,0,12,608.2,254.6)" />
<use xlink:href="#f0_l" transform="matrix(12,0,0,12,615.8,254.6)" />
<use xlink:href="#f0_j" transform="matrix(12,0,0,12,627.1,254.6)" />
<use xlink:href="#f0_l" transform="matrix(12,0,0,12,642,254.6)" />
<use xlink:href="#f0_m" transform="matrix(12,0,0,12,653.3,254.6)" />
<use xlink:href="#f0_y" transform="matrix(12,0,0,12,665.4,254.6)" />
<use xlink:href="#f0_c" transform="matrix(12,0,0,12,675.7,254.6)" />
<use xlink:href="#f0_19" transform="matrix(12,0,0,12,686,254.6)" />
<use xlink:href="#f0_o" transform="matrix(12,0,0,12,696.7,254.6)" />
<use xlink:href="#f0_15" transform="matrix(12,0,0,12,709,254.6)" />
<use xlink:href="#f0_15" transform="matrix(12,0,0,12,719.7,254.6)" />
<use xlink:href="#f0_i" transform="matrix(12,0,0,12,730.3,254.6)" />
<use xlink:href="#f0_k" transform="matrix(12,0,0,12,740.1,254.6)" />
<use xlink:href="#f0_8" transform="matrix(12,0,0,12,749.5,254.6)" />
<use xlink:href="#f0_g" transform="matrix(12,0,0,12,761.9,254.6)" />
<use xlink:href="#f0_k" transform="matrix(12,0,0,12,778.8,254.6)" />
<use xlink:href="#f0_o" transform="matrix(12,0,0,12,788.2,254.6)" />
<use xlink:href="#f0_6" transform="matrix(12,0,0,12,800.5,254.6)" />
<use xlink:href="#f0_8" transform="matrix(12,0,0,12,807,254.6)" />
<use xlink:href="#f0_g" transform="matrix(12,0,0,12,814.7,254.6)" />
<use xlink:href="#f0_f" transform="matrix(12,0,0,12,826.8,254.6)" />
<use xlink:href="#f0_17" transform="matrix(12,0,0,12,838.2,254.6)" />
<use xlink:href="#f0_i" transform="matrix(12,0,0,12,844.7,254.6)" />
<use xlink:href="#f0_u" transform="matrix(12,0,0,12,50.1,286.7)" />
<use xlink:href="#f0_g" transform="matrix(12,0,0,12,66.2,286.7)" />
<use xlink:href="#f0_q" transform="matrix(12,0,0,12,78.3,286.7)" />
<use xlink:href="#f0_c" transform="matrix(12,0,0,12,89.1,286.7)" />
<use xlink:href="#f2_l" transform="matrix(8,0,0,8,785.4,1275.3)" />
<use xlink:href="#f2_t" transform="matrix(8,0,0,8,792.2,1275.3)" />
</g>
<defs>
<path d="M688,452L660,709c0,0,-4,33,-7,63c0,0,-3,28,-5,57c0,0,-4,27,-5,54c0,0,-2,25,-3,53c0,0,-11,-28,-22,-51c0,0,-12,-24,-24,-47c0,0,-14,-25,-28,-52c0,0,-15,-28,-36,-63L379,452ZM-74,0l17,81h32c0,0,1,0,2,0c6,0,21,1,34,6c0,0,16,4,31,17c0,0,14,13,31,37c0,0,15,23,37,59l518,891H837L965,191c0,0,3,-24,11,-44c0,0,5,-20,16,-34c0,0,10,-16,27,-23c0,0,16,-9,40,-9h27L1070,0H565l17,81h35c0,0,49,0,78,16c0,0,29,14,29,48c0,0,0,12,0,26c0,0,-2,12,-3,23L698,359H327L252,222c0,0,-15,-29,-21,-49c0,0,-9,-22,-8,-37c0,0,-1,-29,21,-41c0,0,21,-14,65,-14h30L322,0Z" 
id="f0_1a"
transform="scale(0.001,-0.001)" />

<path d="M768,-14c0,0,-88,0,-135,41c0,0,-47,41,-47,115c0,0,0,65,25,182l25,121c0,0,3,14,7,36c0,0,5,21,9,46c0,0,4,23,8,47c0,0,3,22,3,41c0,0,0,15,-2,30c0,0,-4,16,-10,29c0,0,-8,12,-19,21c0,0,-13,7,-33,8c0,0,-26,-1,-51,-17c0,0,-27,-19,-50,-47c0,0,-25,-29,-46,-65c0,0,-22,-38,-39,-76c0,0,-18,-40,-30,-77c0,0,-13,-37,-20,-67L286,0H57L185,608c0,0,2,10,4,20c0,0,1,10,3,20c0,0,1,9,3,16c0,0,0,6,0,10c0,0,0,21,-4,33c0,0,-5,12,-14,20c0,0,-11,6,-25,9c0,0,-16,2,-37,2H87l14,81H440L423,656h10c0,0,29,45,60,79c0,0,30,33,66,56c0,0,36,21,79,33c0,0,41,9,92,10c0,0,48,0,82,-14c0,0,32,-15,54,-38c0,0,20,-25,29,-56c0,0,9,-33,9,-67c0,0,0,-20,-2,-41c0,0,-4,-23,-7,-45c0,0,-4,-22,-9,-45c0,0,-6,-22,-9,-42L843,322c0,0,-10,-42,-15,-77c0,0,-6,-38,-6,-69c0,0,-1,-34,14,-51c0,0,14,-18,40,-18c0,0,23,0,44,9c0,0,18,9,45,26l37,-52c0,0,-18,-19,-41,-38c0,0,-24,-20,-52,-34C909,18,880,3,845,-5c0,0,-36,-9,-77,-9Z" 
id="f0_7"
transform="scale(0.001,-0.001)" />

<path d="M320,-14c-2,0,-3,0,-5,0c0,0,-67,0,-119,11c0,0,-54,10,-91,32c0,0,-38,21,-58,53c0,0,-22,31,-21,71c0,0,-1,36,14,60c0,0,14,25,38,41c0,0,21,14,52,22c0,0,29,7,59,7c0,0,0,-42,9,-79c0,0,7,-38,26,-65c0,0,18,-29,47,-46c0,0,27,-17,70,-17c0,0,31,0,58,8c0,0,27,8,46,23c0,0,19,14,31,35c0,0,11,21,11,49c0,0,0,25,-10,46c0,0,-10,20,-31,38c0,0,-22,17,-54,35c0,0,-32,16,-77,38c0,0,-45,21,-81,45c0,0,-37,23,-62,53c0,0,-26,29,-38,65c0,0,-15,36,-15,81c0,0,0,56,24,100c0,0,23,44,69,77c0,0,45,31,109,49c0,0,63,16,144,16c0,0,77,0,130,-12c0,0,53,-13,87,-31c0,0,32,-21,48,-47c0,0,14,-26,14,-53c0,0,0,-62,-47,-89c0,0,-46,-28,-125,-28c-1,0,-2,0,-4,0c0,0,0,30,-6,62c0,0,-5,30,-20,56c0,0,-15,26,-36,41c0,0,-23,16,-55,16c0,0,-31,-1,-53,-8c0,0,-24,-9,-41,-23c0,0,-17,-16,-26,-35c0,0,-9,-19,-9,-41c0,0,0,-27,11,-44c0,0,9,-20,31,-36c0,0,21,-17,54,-32c0,0,32,-17,77,-36c0,0,50,-23,85,-47c0,0,36,-26,60,-55c0,0,22,-30,35,-64c0,0,11,-35,11,-77c0,0,0,-62,-23,-111c0,0,-24,-50,-71,-84C592,56,545,21,476,4c0,0,-67,-18,-156,-18Z" 
id="f0_k"
transform="scale(0.001,-0.001)" />

<path d="M194,-11c-1,0,-2,0,-3,0c0,0,-55,0,-90,26c0,0,-35,27,-34,83c0,0,-1,30,10,56c0,0,9,26,27,44c0,0,16,17,41,27c0,0,24,10,55,10c0,0,25,0,49,-7c0,0,23,-6,40,-20c0,0,15,-13,26,-34c0,0,9,-22,9,-49c0,0,0,-38,-11,-64c0,0,-13,-27,-31,-42C282,19,262,1,239,-3c0,0,-23,-8,-45,-8Z" 
id="f0_c"
transform="scale(0.001,-0.001)" />

<path d="M-31,0l12,64H0c0,0,126,0,150,110L309,923c0,0,5,27,6,42c0,0,0,61,-111,61H185l13,65H643l-13,-65H609c0,0,-73,0,-105,-27c0,0,-33,-28,-43,-82L303,168c0,0,-7,-33,-7,-43c0,0,-1,-61,109,-61c0,0,1,0,2,0h19L413,0Z" 
id="f1_2"
transform="scale(0.001,-0.001)" />

<path d="M702,-14c-4,0,-65,1,-100,40c0,0,-38,40,-38,111c0,0,0,70,29,207l35,158c0,0,22,92,22,143c0,0,0,90,-70,90c0,0,-85,0,-173,-115c0,0,-90,-116,-115,-229L210,0H67L195,614c0,0,9,42,9,69c0,0,0,72,-106,72H86l13,64H382L341,627h15c0,0,124,206,278,206c0,0,163,-1,163,-170c0,0,0,-48,-27,-168L730,315c0,0,-20,-93,-20,-161c0,0,0,-73,54,-73c0,0,43,0,98,35L889,72c0,0,-100,-86,-186,-86h-1Z" 
id="f1_h"
transform="scale(0.001,-0.001)" />

<path d="M318,81c2,0,76,1,159,113c0,0,84,113,111,246l57,270c0,0,-36,55,-116,55c0,0,-131,0,-219,-165c0,0,-88,-167,-88,-342c0,0,0,-177,96,-177ZM263,-14c0,0,-94,0,-145,73c0,0,-53,72,-52,205c0,0,0,210,131,390c0,0,130,180,324,180c0,0,85,0,150,-37c0,0,11,71,17,86l15,73c0,0,9,52,10,69c0,0,-1,72,-107,72H595l13,64H889L712,328c0,0,-23,-106,-23,-169c0,0,0,-78,50,-78c0,0,44,0,111,40L877,76c0,0,-109,-90,-215,-90c0,0,-120,0,-120,126c0,0,0,48,16,119H548C548,231,438,-14,263,-14Z" 
id="f1_16"
transform="scale(0.001,-0.001)" />

<path d="M697,-14c-4,0,-60,1,-93,40c0,0,-36,41,-36,104c0,0,0,39,8,90H564C564,220,481,83,416,35c0,0,-66,-47,-147,-47c0,0,-164,0,-164,168c0,0,-1,48,28,168l59,268c0,0,14,60,14,91c0,0,-1,72,-107,72H87l14,64H385L284,362c0,0,-30,-139,-30,-184c0,0,-1,-94,74,-94c0,0,79,0,170,114c0,0,89,112,117,241l80,380H843L738,328c0,0,-24,-109,-23,-169c0,0,0,-78,50,-78c0,0,43,0,98,34L891,70c0,0,-98,-84,-194,-84Z" 
id="f1_j"
transform="scale(0.001,-0.001)" />

<path d="M363,-14c0,0,-134,0,-215,83c0,0,-82,84,-82,232c0,0,0,200,129,367c0,0,128,166,326,166c0,0,104,-1,164,-42c0,0,59,-42,59,-104c0,0,0,-47,-37,-77c0,0,-38,-31,-99,-31c0,0,0,81,-31,132c0,0,-32,49,-87,49c0,0,-107,0,-186,-160c0,0,-79,-160,-79,-312c0,0,0,-208,167,-208c0,0,133,0,220,110c0,0,16,-10,16,-38c0,0,0,-62,-71,-114c0,0,-74,-53,-194,-53Z" 
id="f1_o"
transform="scale(0.001,-0.001)" />

<path d="M280,-14c0,0,-167,0,-167,177c0,0,0,57,15,129l94,440H105l14,61c0,0,149,0,234,214h70L383,819H568L550,732H365L272,296c0,0,-19,-89,-18,-131c0,0,-1,-84,80,-84c0,0,1,0,1,0c0,0,61,0,125,34L486,58c0,0,-103,-72,-206,-72Z" 
id="f1_t"
transform="scale(0.001,-0.001)" />

<path d="M318,81c2,0,76,1,159,113c0,0,84,113,111,246l57,270c0,0,-36,55,-116,55c0,0,-131,0,-219,-165c0,0,-88,-167,-88,-342c0,0,0,-177,96,-177ZM263,-14c0,0,-94,0,-145,73c0,0,-53,72,-52,205c0,0,0,210,131,390c0,0,130,180,324,180c0,0,103,-1,179,-55l67,39h49L712,328c0,0,-23,-106,-23,-169c0,0,0,-78,50,-78c0,0,44,0,111,40L877,76c0,0,-109,-90,-215,-90c0,0,-120,0,-120,126c0,0,0,48,16,119H548C548,231,438,-14,263,-14Z" 
id="f1_l"
transform="scale(0.001,-0.001)" />

<path d="M257,423c6,0,136,1,223,66c0,0,87,65,87,170c0,0,-1,101,-89,102c0,0,-74,0,-138,-93c0,0,-64,-93,-98,-245h15ZM363,-14c0,0,-134,0,-215,83c0,0,-82,84,-82,232c0,0,0,200,129,367c0,0,128,166,326,166c0,0,97,-1,150,-46c0,0,53,-46,53,-129c0,0,0,-125,-128,-216c0,0,-129,-92,-315,-92H255c0,0,-13,0,-27,2c0,0,-4,-22,-3,-64c0,0,0,-208,167,-208c0,0,131,0,220,110c0,0,16,-10,16,-38c0,0,0,-62,-71,-114c0,0,-74,-53,-194,-53Z" 
id="f1_b"
transform="scale(0.001,-0.001)" />

<path d="M-42,-222l6,64c0,0,155,34,155,128c0,0,0,27,-49,58c0,0,-51,31,-50,77c0,0,0,41,26,66c0,0,26,24,69,24c0,0,51,0,85,-33c0,0,33,-35,33,-92c0,0,0,-111,-70,-188c0,0,-71,-77,-205,-104Z" 
id="f1_d"
transform="scale(0.001,-0.001)" />

<path d="M-30,0l14,64H3c0,0,72,0,103,29c0,0,31,27,44,81L309,923c0,0,5,27,6,42c0,0,0,61,-111,61H185l13,65H643l-13,-65H609c0,0,-73,0,-103,-25c0,0,-32,-26,-43,-78L283,76H583c0,0,117,0,164,138l40,114h79L787,0Z" 
id="f1_5"
transform="scale(0.001,-0.001)" />

<path d="M112,350v90H767V350Zm0,300v91H767V650Z" 
id="f1_f"
transform="scale(0.001,-0.001)" />

<path d="M292,-14c0,0,-147,0,-222,43C70,29,-4,72,-3,145c0,0,-1,50,31,83c0,0,31,29,84,30c0,0,-1,-84,50,-136c0,0,50,-53,141,-53c0,0,108,0,179,69c0,0,69,69,69,189c0,0,0,94,-56,147c0,0,-57,52,-159,52H270l16,78h49c0,0,130,0,214,79c0,0,84,79,84,208c0,0,0,138,-130,138c0,0,-170,0,-217,-227c0,0,-114,0,-114,98c0,0,0,88,96,147c0,0,94,59,241,59c0,0,130,0,206,-59c0,0,74,-59,75,-159c0,0,-1,-117,-82,-202c0,0,-84,-87,-225,-112c0,0,109,-12,169,-73c0,0,59,-62,60,-157c0,0,0,-173,-119,-266c0,0,-120,-92,-301,-92Z" 
id="f1_17"
transform="scale(0.001,-0.001)" />

<path d="M163,-11c0,0,-1,0,-1,0c0,0,-96,0,-95,92c0,0,-1,53,28,85c0,0,27,32,73,32c0,0,95,0,95,-93c0,0,0,-54,-27,-85c0,0,-28,-31,-73,-31Z" 
id="f1_11"
transform="scale(0.001,-0.001)" />

<path d="M369,67c0,0,132,0,213,221c0,0,79,220,80,499c0,0,0,238,-158,238c0,0,-133,0,-214,-222c0,0,-80,-221,-80,-494c0,0,0,-242,159,-242ZM356,-16c0,0,-137,0,-216,97c0,0,-80,97,-79,272c0,0,0,294,127,524c0,0,126,231,331,231c0,0,134,0,213,-92c0,0,77,-92,77,-258c0,0,0,-295,-124,-534C685,224,560,-16,356,-16Z" 
id="f1_12"
transform="scale(0.001,-0.001)" />

<path d="M-31,0l12,64H0c0,0,73,0,106,29c0,0,31,27,44,81L309,923c0,0,5,27,6,42c0,0,0,61,-111,61H185l13,65H643l-13,-65H609c0,0,-73,0,-105,-27c0,0,-33,-28,-43,-82L395,608H892l67,315c0,0,6,27,6,42c0,0,0,61,-109,61H836l14,65h444l-14,-65h-19c0,0,-73,0,-105,-27c0,0,-33,-28,-44,-82L953,168c0,0,-6,-28,-6,-43c0,0,0,-61,108,-61q1,0,2,0h20L1063,0H618l13,64h19c0,0,1,0,1,0c7,0,74,1,105,28c0,0,33,27,44,82l76,358H379L303,168c0,0,-7,-33,-7,-43c0,0,-1,-61,109,-61c0,0,1,0,2,0h19L413,0Z" 
id="f1_y"
transform="scale(0.001,-0.001)" />

<path d="M501,-14c0,0,-200,0,-310,106C191,92,79,198,79,394c0,0,0,289,181,501c0,0,179,211,449,211c0,0,132,0,208,-45c0,0,74,-46,74,-125c0,0,0,-55,-41,-86c0,0,-40,-32,-106,-32c-1,0,-2,0,-3,0c0,0,0,206,-152,207c0,0,-189,-1,-315,-205C374,820,246,614,246,370c0,0,-1,-286,272,-286c0,0,176,0,282,139c0,0,21,-15,21,-51c0,0,0,-73,-85,-129c0,0,-86,-57,-235,-57Z" 
id="f1_6"
transform="scale(0.001,-0.001)" />

<path d="M354,54q1,0,2,0c0,0,127,0,216,167c0,0,88,166,88,338c0,0,0,178,-96,179c0,0,-80,0,-160,-110c0,0,-81,-111,-106,-229L235,108c0,0,49,-54,119,-54ZM-9,-366L192,602c0,0,14,63,14,81c0,0,-1,72,-107,72H87l14,64H371L335,615h7c0,0,111,218,280,219c0,0,93,-1,144,-71c0,0,50,-71,50,-205c0,0,0,-205,-127,-389C689,169,560,-14,361,-14h-1c0,0,-88,0,-149,34c0,0,-7,-48,-13,-73l-20,-93c0,0,-15,-64,-15,-85c0,0,0,-71,107,-71h20l-13,-64Z" 
id="f1_r"
transform="scale(0.001,-0.001)" />

<path d="M236,-14c-3,0,-58,1,-91,40c0,0,-35,41,-35,104c0,0,-1,68,34,240l59,280c0,0,5,25,5,41c0,0,-1,63,-93,64H95l13,64H382L278,328c0,0,-24,-110,-23,-169c0,0,0,-78,51,-78c0,0,43,0,110,40L443,76c0,0,-107,-90,-207,-90ZM344,972q-1,0,-2,0c-3,0,-86,1,-85,84c0,0,-1,47,25,78c0,0,25,29,66,29c0,0,86,-1,86,-84c0,0,0,-53,-25,-79c0,0,-26,-28,-65,-28Z" 
id="f1_s"
transform="scale(0.001,-0.001)" />

<path d="M-25,0L6,124L365,448c0,0,142,128,200,222c0,0,56,94,57,206c0,0,0,70,-38,112c0,0,-38,41,-103,41c0,0,-176,0,-217,-230c0,0,-109,0,-108,98c0,0,-1,85,92,147c0,0,91,62,241,62c0,0,137,0,213,-58c0,0,75,-59,75,-165c0,0,0,-91,-65,-187c0,0,-64,-98,-252,-265L116,122H471c6,0,52,1,86,23c0,0,34,23,65,91l11,25h64L636,0Z" 
id="f1_w"
transform="scale(0.001,-0.001)" />

<path d="M165,0L730,968H328c0,0,-84,0,-105,-77L201,815H137l66,276H886l-9,-44L280,0Z" 
id="f1_18"
transform="scale(0.001,-0.001)" />

<path d="M477,553c5,0,138,0,210,70c0,0,74,69,74,199c0,0,0,102,-45,149c0,0,-46,47,-155,47H457L359,553H477ZM-56,0l14,64h20c0,0,74,0,105,27c0,0,29,27,39,75L283,923c0,0,5,27,6,42c0,0,0,61,-110,61H159l13,65H573c0,0,350,0,350,-260c0,0,0,-252,-283,-319L750,185c0,0,27,-78,55,-99c0,0,27,-22,71,-22h12L876,0H856C856,0,724,0,670,35c0,0,-55,34,-87,144L495,481H344L277,168c0,0,-7,-31,-7,-43c0,0,-1,-61,108,-61c1,0,2,0,2,0h51L417,0Z" 
id="f1_7"
transform="scale(0.001,-0.001)" />

<path d="M290,-14c0,0,-115,0,-183,46c0,0,-69,46,-69,125c0,0,-1,50,28,76c0,0,27,25,68,25c0,0,0,-95,47,-147c0,0,45,-53,128,-53c3,0,164,1,165,142c0,0,-1,54,-35,92c0,0,-36,37,-120,77c0,0,-110,52,-147,108c0,0,-38,54,-38,128c0,0,0,99,82,164c0,0,82,64,213,64c0,0,112,-1,176,-42c0,0,63,-42,63,-103c0,0,0,-95,-114,-95c0,0,-1,0,-1,0c0,0,0,77,-36,123c0,0,-37,46,-101,46c0,0,-70,0,-109,-36c0,0,-40,-38,-40,-95c0,0,0,-51,38,-86c0,0,38,-37,118,-71c0,0,183,-82,183,-238c0,0,0,-113,-86,-182c0,0,-87,-68,-230,-68Z" 
id="f1_x"
transform="scale(0.001,-0.001)" />

<path d="M468,385l59,286c0,0,37,173,75,296c0,0,-64,-96,-134,-176L121,385ZM195,0l13,64h68c6,0,73,1,104,28c0,0,33,27,44,82l25,125H-21l15,63l624,729H765L614,385H803L786,299H596L570,168c0,0,-6,-31,-6,-43c0,0,0,-61,108,-61c0,0,1,0,2,0h35L695,0Z" 
id="f1_13"
transform="scale(0.001,-0.001)" />

<path d="M695,442L657,709c0,0,-24,162,-24,241c0,0,-36,-83,-120,-227L350,442ZM-85,0l13,64h29c0,0,40,0,68,22c0,0,26,20,73,98l532,907H749L894,145c0,0,6,-48,26,-64c0,0,18,-17,64,-17h20L991,0H576l12,64h36c0,0,109,0,109,78c0,0,0,30,-3,52L706,365H304L213,204c0,0,-29,-50,-29,-85c0,0,0,-55,85,-55h35L292,0Z" 
id="f1_g"
transform="scale(0.001,-0.001)" />

<path d="M67,0L195,614c0,0,9,42,9,69c0,0,0,72,-121,72H70l14,64H354L322,599h16c0,0,61,137,121,186c0,0,59,49,139,49c0,0,125,0,125,-105c0,0,-1,-117,-127,-117c0,0,0,121,-61,121c0,0,-71,0,-150,-139c0,0,-80,-140,-118,-316L210,0Z" 
id="f1_c"
transform="scale(0.001,-0.001)" />

<path d="M376,60c0,0,126,0,201,150c0,0,75,148,75,331c0,0,-1,212,-149,212c0,0,-125,0,-202,-149c0,0,-77,-150,-76,-334c0,0,0,-210,151,-210ZM359,-14c-5,0,-140,1,-216,83c0,0,-77,82,-77,232c0,0,-1,205,126,370c0,0,125,163,329,163c0,0,135,0,212,-81c0,0,77,-82,78,-235c0,0,-1,-204,-125,-368C686,150,561,-14,359,-14Z" 
id="f1_q"
transform="scale(0.001,-0.001)" />

<path d="M284,-291q1,0,2,0c7,0,136,1,205,50c0,0,70,50,70,134c0,0,-1,99,-142,111L270,19c0,0,-11,0,-66,-16c0,0,-56,-15,-94,-57c0,0,-40,-43,-40,-104c0,0,-1,-133,214,-133ZM407,362c0,0,87,0,141,87c0,0,52,86,53,190c0,0,0,125,-106,125c0,0,-89,0,-141,-87c0,0,-53,-89,-53,-190c0,0,-1,-125,106,-125ZM280,-366c0,0,-333,0,-333,199c0,0,0,81,66,140c0,0,66,56,182,79c0,0,-73,36,-73,105c0,0,0,47,31,80c0,0,30,32,114,76c0,0,-107,50,-107,181c0,0,0,128,98,235c0,0,96,105,257,105c0,0,97,-1,157,-48c0,0,72,108,165,108c0,0,77,0,77,-70c0,0,0,-95,-89,-95q-1,0,-1,0c0,0,0,54,-43,55c0,0,-31,-1,-75,-35c0,0,33,-49,33,-118c0,0,0,-129,-96,-235c0,0,-96,-107,-254,-107c0,0,-2,0,-7,0c-11,0,-31,0,-41,3c0,0,-109,-44,-109,-97c0,0,0,-38,78,-45L457,134c0,0,237,-26,237,-199c0,0,0,-142,-108,-221c0,0,-107,-80,-306,-80Z" 
id="f1_i"
transform="scale(0.001,-0.001)" />

<path d="M238,-14c0,0,-56,0,-90,39c0,0,-36,41,-36,105c0,0,0,72,33,240L270,956c0,0,10,45,10,69c0,0,0,72,-108,72H154l14,64H457L280,328c0,0,-24,-109,-23,-169c0,0,0,-78,50,-78c0,0,44,0,110,40L445,76c0,0,-107,-90,-207,-90Z" 
id="f1_k"
transform="scale(0.001,-0.001)" />

<path d="M-123,-366c0,0,-1,0,-1,0c0,0,-44,0,-89,13l14,70c0,0,37,-11,70,-11c4,0,75,1,117,64c0,0,41,63,75,218L223,732H84l9,55l147,32l17,84c0,0,53,273,290,273c0,0,97,0,148,-30c0,0,49,-32,49,-83c0,0,-1,-99,-126,-99c0,0,-1,0,-1,0c0,0,-1,142,-78,142c0,0,-56,0,-86,-46c0,0,-32,-46,-49,-143L383,819H553L536,732H365L206,-11c0,0,-40,-185,-116,-269c0,0,-75,-86,-213,-86Z" 
id="f1_m"
transform="scale(0.001,-0.001)" />

<path d="M317,81c0,0,1,0,1,0c0,0,74,0,158,111c0,0,83,110,112,248l57,270c0,0,-35,55,-116,55c0,0,-132,0,-219,-168c0,0,-89,-170,-88,-340c0,0,0,-176,95,-176ZM426,-366l64,306c0,0,5,28,68,291H548C548,231,437,-14,263,-14c0,0,-94,0,-145,73c0,0,-53,72,-52,205c0,0,0,210,131,390c0,0,130,180,324,180c0,0,94,0,170,-41l37,21c0,0,35,20,39,20h54L609,-161c0,0,-8,-43,-8,-68c0,0,0,-73,103,-73q1,0,2,0h12l-14,-64Z" 
id="f1_n"
transform="scale(0.001,-0.001)" />

<path d="M-103,-366c-8,0,-83,1,-144,28l23,76c0,0,53,-17,120,-17c2,0,218,1,428,279L122,674c0,0,-13,44,-36,63c0,0,-24,18,-69,18H1l12,64H236L356,407c0,0,54,-192,64,-277h4c0,0,207,313,207,507c0,0,-1,83,-75,83c0,0,-1,51,30,82c0,0,29,30,70,31c0,0,103,0,103,-129c0,0,0,-185,-205,-518c0,0,-206,-333,-330,-442c0,0,-126,-110,-327,-110Z" 
id="f1_p"
transform="scale(0.001,-0.001)" />

<path d="M702,-14c-4,0,-65,1,-100,40c0,0,-38,40,-38,111c0,0,0,70,29,207l35,158c0,0,22,92,22,143c0,0,0,90,-70,90c0,0,-85,-1,-174,-116c0,0,-91,-116,-114,-228L210,0H67L266,944c0,0,14,68,14,81c0,0,0,72,-108,72H160l14,64H455L395,880c0,0,-26,-125,-60,-253h16c0,0,126,206,283,206c0,0,163,-1,163,-170c0,0,0,-48,-27,-168L730,315c0,0,-20,-93,-20,-161c0,0,0,-73,54,-73c0,0,43,0,98,35L889,72c0,0,-100,-86,-186,-86h-1Z" 
id="f1_a"
transform="scale(0.001,-0.001)" />

<path d="M254,-12L147,674c0,0,-13,81,-106,81H26l12,64H267L338,367c0,0,27,-174,35,-271h4c0,0,114,110,198,257c0,0,84,146,84,235c0,0,-1,54,-26,85c0,0,-27,31,-69,31c0,0,-1,55,30,89c0,0,30,34,74,34c0,0,103,0,103,-142c0,0,0,-139,-105,-325C666,360,559,173,391,1L254,-12Z" 
id="f1_u"
transform="scale(0.001,-0.001)" />

<path d="M144,-11c0,0,-96,0,-95,92c0,0,-1,53,28,85c0,0,27,32,73,32c0,0,44,0,70,-25c0,0,25,-26,25,-68c0,0,0,-55,-27,-86c0,0,-29,-30,-74,-30ZM281,615c0,0,-95,0,-95,94c0,0,0,52,28,85c0,0,27,33,73,33c0,0,95,-1,95,-94c0,0,0,-55,-27,-86c0,0,-28,-32,-74,-32Z" 
id="f1_19"
transform="scale(0.001,-0.001)" />

<path d="M487,67q1,0,2,0c2,0,191,1,310,211c0,0,119,210,119,451c0,0,0,142,-62,219c0,0,-65,77,-178,77c0,0,-192,0,-311,-211C367,814,246,601,246,363c0,0,0,-143,65,-219c0,0,64,-77,176,-77ZM689,-344c-2,0,-282,0,-294,336c0,0,-149,24,-232,136c0,0,-84,110,-84,279c0,0,0,262,172,481c0,0,170,220,440,220c0,0,177,0,286,-111c0,0,108,-111,109,-309c0,0,-1,-233,-142,-446C944,242,801,26,561,-9c0,0,7,-137,46,-198c0,0,39,-62,119,-62c0,0,54,0,104,13l10,-64c0,0,-78,-24,-151,-24Z" 
id="f1_1a"
transform="scale(0.001,-0.001)" />

<path d="M22,359L46,474H443L419,359Z" 
id="f1_1b"
transform="scale(0.001,-0.001)" />

<path d="M140,0l14,64h35c0,0,77,0,107,27c0,0,30,25,40,75l180,849H370c0,0,-110,0,-153,-126L195,824H116l65,267h860L991,824H912c0,0,8,59,8,93c0,0,0,97,-101,98H671L490,168c0,0,-6,-28,-6,-43c0,0,-1,-61,109,-61c0,0,1,0,2,0h35L615,0Z" 
id="f1_1c"
transform="scale(0.001,-0.001)" />

<path d="M1156,-14c-4,0,-64,1,-100,40c0,0,-38,40,-38,111c0,0,0,70,29,207l26,119c0,0,32,146,32,182c0,0,-1,90,-71,90c0,0,-78,-1,-162,-100c0,0,-84,-101,-117,-211L730,315c0,0,-10,-42,-27,-164C703,151,686,29,686,0H541c0,0,0,34,19,159c0,0,19,123,33,185l35,158c0,0,22,92,22,143c0,0,0,90,-70,90c0,0,-85,-1,-174,-116c0,0,-91,-116,-114,-228L210,0H67L195,614c0,0,9,42,9,69c0,0,0,72,-106,72H86l13,64H382L341,627h15c0,0,124,206,278,206c0,0,163,-1,163,-170c0,0,0,-19,-3,-36h15c0,0,124,206,279,206c0,0,163,-1,163,-170c0,0,0,-48,-28,-168L1184,315c0,0,-20,-89,-20,-161c0,0,0,-73,53,-73c0,0,44,0,98,35l28,-44c0,0,-98,-86,-187,-86Z" 
id="f1_z"
transform="scale(0.001,-0.001)" />

<path d="M330,54c0,0,1,0,1,0c0,0,133,0,220,169c0,0,85,169,86,336c0,0,0,178,-96,179c0,0,-84,-1,-163,-116c0,0,-80,-116,-100,-211L213,108c0,0,45,-54,117,-54Zm8,-68c-6,0,-112,1,-179,54L90,-3H41L243,944c0,0,14,63,14,81c0,0,-1,72,-107,72H137l14,64H440L367,818c0,0,-16,-74,-55,-203h7c0,0,113,218,280,219c0,0,90,0,143,-70c0,0,51,-71,51,-206c0,0,-1,-213,-131,-392C662,166,530,-14,338,-14Z" 
id="f1_v"
transform="scale(0.001,-0.001)" />

<path d="M686,-14L663,646C663,646,594,481,341,4L184,-12L172,645c0,0,-1,53,-21,82c0,0,-21,27,-79,28H57l21,64H307c0,0,5,-322,5,-697h6c0,0,198,351,341,686H786c0,0,32,-401,32,-696h10c0,0,124,153,206,303c0,0,81,148,81,237c0,0,0,70,-65,92c0,0,12,90,90,90c0,0,80,0,80,-114c0,0,0,-221,-383,-719L686,-14Z" 
id="f1_1d"
transform="scale(0.001,-0.001)" />

<path d="M-30,0l18,64H6c0,0,41,0,73,20c0,0,30,18,86,85L360,407L261,645c0,0,-29,70,-48,91c0,0,-19,18,-62,19H131l13,64H347L463,510L666,819H862L837,755H818c0,0,-45,-1,-75,-22c0,0,-31,-21,-84,-88L498,439L604,174c0,0,26,-69,46,-89c0,0,18,-21,61,-21q1,0,2,0h20L721,0H516L392,336L163,0Z" 
id="f1_1e"
transform="scale(0.001,-0.001)" />

<path d="M194,732l31,359H386L264,732Z" 
id="f1_1f"
transform="scale(0.001,-0.001)" />

<path d="M61,0L78,81h90c0,0,54,0,88,23c0,0,33,21,45,77L419,736c0,0,9,46,18,85c0,0,8,38,17,66c0,0,7,32,15,59h-6c0,0,-36,-37,-65,-66c0,0,-32,-31,-57,-50c0,0,-27,-22,-50,-32c0,0,-25,-11,-49,-11h-1c-2,0,-33,1,-52,30c0,0,-22,29,-21,83c0,0,25,6,54,15c0,0,27,9,58,23c0,0,31,13,68,33c0,0,35,18,79,47l124,79H723L529,185c0,0,-3,-10,-6,-27c0,0,-4,-17,-4,-27c0,0,0,-17,9,-26c0,0,8,-10,24,-15c0,0,15,-6,37,-7c0,0,20,-2,45,-2h75L692,0Z" 
id="f0_a"
transform="scale(0.001,-0.001)" />

<path d="M383,87c0,0,45,0,83,36c0,0,38,34,69,94c0,0,30,59,54,134c0,0,23,75,39,156c0,0,16,79,24,158c0,0,7,79,8,143c0,0,-1,101,-30,149c0,0,-32,48,-88,49c0,0,-44,-1,-80,-35c0,0,-38,-36,-68,-94c0,0,-31,-59,-55,-133c0,0,-23,-76,-40,-155c0,0,-17,-80,-24,-159c0,0,-9,-78,-9,-143c0,0,-1,-103,32,-150c0,0,32,-50,85,-50ZM374,-16c0,0,-70,0,-129,23c0,0,-59,23,-100,71c0,0,-42,47,-65,116c0,0,-24,68,-23,159c0,0,0,79,13,165c0,0,12,86,40,171c0,0,25,84,66,160c0,0,40,76,96,133c0,0,54,57,123,92c0,0,70,34,155,34c0,0,65,0,122,-20c0,0,57,-22,99,-64c0,0,41,-44,67,-109c0,0,23,-67,24,-157c0,0,-1,-78,-13,-164c0,0,-13,-89,-38,-174c0,0,-27,-87,-66,-166c0,0,-39,-79,-93,-139c0,0,-55,-61,-124,-96c0,0,-70,-35,-154,-35Z" 
id="f0_b"
transform="scale(0.001,-0.001)" />

<path d="M550,84c1,0,2,0,3,0c0,0,62,0,115,31c0,0,51,30,93,82c0,0,41,50,72,117c0,0,29,66,50,137c0,0,18,70,29,141c0,0,9,70,9,131c0,0,0,74,-15,128c0,0,-16,54,-43,89c0,0,-28,34,-66,52c0,0,-38,17,-82,17c0,0,-65,-1,-115,-31c0,0,-53,-31,-93,-81c0,0,-42,-52,-72,-117c0,0,-31,-68,-50,-138c0,0,-20,-71,-30,-141c0,0,-10,-72,-10,-131c0,0,0,-75,17,-129c0,0,15,-55,44,-89c0,0,27,-35,65,-51c0,0,36,-17,79,-17ZM522,-16c-9,0,-95,1,-168,26c0,0,-78,27,-135,81c0,0,-58,53,-90,133c0,0,-33,78,-33,183c0,0,-1,72,19,153c0,0,17,81,54,159c0,0,36,77,91,149c0,0,54,70,127,123c0,0,71,53,162,85c0,0,90,32,198,32c0,0,83,0,161,-25c0,0,76,-24,134,-76c0,0,58,-51,93,-130c0,0,34,-80,34,-189c0,0,-1,-71,-17,-150c0,0,-19,-80,-53,-158c0,0,-37,-79,-89,-150c0,0,-54,-72,-125,-126c0,0,-73,-56,-163,-88c0,0,-92,-32,-200,-32Z" 
id="f0_e"
transform="scale(0.001,-0.001)" />

<path d="M388,83c1,0,2,0,3,0c0,0,45,0,82,24c0,0,37,22,67,62c0,0,30,38,52,87c0,0,21,49,37,101c0,0,14,50,22,101c0,0,8,49,8,89c0,0,-1,45,-6,77c0,0,-7,31,-18,50c0,0,-12,19,-26,29c0,0,-15,9,-32,9c0,0,-29,0,-54,-17c0,0,-26,-17,-49,-44c0,0,-25,-27,-44,-59c0,0,-20,-35,-35,-67c0,0,-16,-33,-26,-62c0,0,-10,-31,-15,-49L292,125c0,0,15,-19,41,-30c0,0,24,-12,55,-12Zm14,-97c-1,0,-2,0,-3,0c0,0,-31,0,-60,5c0,0,-29,3,-54,10c0,0,-26,7,-46,18c0,0,-21,9,-35,21L118,-3H32L235,950c0,0,2,10,4,21c0,0,3,9,4,20c0,0,1,9,2,15c0,0,1,6,1,10c0,0,0,21,-4,34c0,0,-5,12,-14,19c0,0,-11,7,-26,9c0,0,-16,2,-37,2H130l14,81H515L454,871c0,0,-4,-15,-9,-36c0,0,-7,-22,-15,-47c0,0,-8,-26,-17,-52c0,0,-10,-27,-18,-50c0,0,-8,-25,-15,-44c0,0,-7,-20,-10,-30h7c0,0,27,56,58,98c0,0,30,40,65,69c0,0,34,27,76,42c0,0,41,13,92,13c0,0,47,0,89,-18c0,0,40,-18,71,-52c0,0,29,-35,46,-87c0,0,17,-53,17,-119c0,0,-1,-63,-15,-128c0,0,-15,-67,-44,-130c0,0,-30,-64,-71,-121c0,0,-43,-57,-97,-100C664,79,608,35,542,10c0,0,-64,-24,-140,-24Z" 
id="f0_f"
transform="scale(0.001,-0.001)" />

<path d="M301,-14c0,0,-42,0,-78,11c0,0,-37,9,-63,32c0,0,-28,21,-42,55c0,0,-16,33,-16,79c0,0,0,13,2,30c0,0,0,17,3,34c0,0,1,16,5,34c0,0,2,16,6,31l92,423H92l16,78c0,0,32,0,72,11c0,0,38,11,80,37c0,0,39,24,81,66c0,0,40,40,76,100h89L466,819H650L630,715H443L351,296c0,0,-8,-33,-11,-60c0,0,-4,-29,-4,-50c0,0,0,-38,21,-57c0,0,20,-19,56,-19h1c6,0,37,0,63,12c0,0,29,11,55,28L567,92c0,0,-26,-23,-53,-41c0,0,-29,-20,-61,-34C453,17,419,1,383,-5c0,0,-39,-9,-82,-9Z" 
id="f0_8"
transform="scale(0.001,-0.001)" />

<path d="M376,107c0,0,34,0,69,29c0,0,36,28,67,77c0,0,31,47,57,106c0,0,25,59,37,121l54,254c0,0,-15,21,-41,32c0,0,-27,10,-57,10c0,0,-44,0,-81,-23c0,0,-37,-24,-67,-62c0,0,-31,-39,-52,-88c0,0,-24,-50,-38,-102c0,0,-16,-53,-23,-104c0,0,-9,-52,-8,-94c0,0,0,-44,7,-74c0,0,5,-31,17,-48c0,0,10,-19,26,-26c0,0,14,-8,33,-8ZM280,-14c0,0,-55,0,-96,21c0,0,-42,21,-68,58c0,0,-28,36,-41,89c0,0,-15,50,-14,110c0,0,-1,59,14,125c0,0,13,65,41,129c0,0,27,63,69,121c0,0,40,56,94,100c0,0,52,44,119,70c0,0,65,25,143,25c0,0,30,0,61,-4c0,0,30,-6,59,-13c0,0,28,-8,54,-17c0,0,24,-10,41,-19l81,37h81L818,341c0,0,-4,-13,-8,-34c0,0,-5,-21,-8,-44c0,0,-5,-24,-8,-45c0,0,-3,-23,-3,-37c0,0,0,-39,15,-57c0,0,14,-19,38,-19c0,0,1,0,1,0c0,0,1,0,1,0c4,0,23,1,41,10c0,0,19,9,43,22L964,76c0,0,-20,-15,-44,-30c0,0,-25,-18,-55,-30C865,16,834,1,800,-5c0,0,-36,-9,-77,-9c0,0,-69,0,-109,30c0,0,-42,30,-41,91c0,0,0,23,2,47c0,0,2,21,8,52H573c0,0,-28,-53,-56,-94c0,0,-28,-42,-63,-69C454,43,419,14,378,0c0,0,-42,-14,-98,-14Z" 
id="f0_g"
transform="scale(0.001,-0.001)" />

<path d="M283,-14c0,0,-89,0,-135,41c0,0,-47,41,-47,115c0,0,0,32,6,78c0,0,5,46,18,104l60,284c0,0,2,10,4,20c0,0,1,10,3,20c0,0,1,9,3,16c0,0,0,6,0,10c0,0,0,21,-4,33c0,0,-5,12,-14,20c0,0,-11,6,-25,9c0,0,-16,2,-37,2H87l14,81H463L357,322c0,0,-9,-42,-15,-77c0,0,-6,-38,-6,-69c0,0,0,-34,15,-51c0,0,12,-18,38,-18c0,0,24,0,44,9c0,0,21,9,47,26L516,90c0,0,-18,-19,-41,-38c0,0,-24,-20,-52,-34C423,18,394,3,360,-5c0,0,-36,-9,-77,-9Zm78,970c-1,0,-2,0,-4,0c0,0,-26,0,-47,6c0,0,-21,5,-37,17c0,0,-17,12,-25,30c0,0,-11,18,-10,42c0,0,-1,34,12,58c0,0,11,23,30,38c0,0,19,14,46,23c0,0,25,6,54,6c0,0,25,0,47,-5c0,0,21,-6,39,-17c0,0,17,-13,27,-30c0,0,10,-19,10,-44c0,0,0,-31,-12,-54c0,0,-13,-25,-33,-39c0,0,-22,-16,-47,-23c0,0,-24,-8,-50,-8Z" 
id="f0_6"
transform="scale(0.001,-0.001)" />

<path d="M744,-14c0,0,-88,0,-135,41c0,0,-47,41,-47,115c0,0,0,32,6,78c0,0,6,46,18,104l26,121c0,0,3,14,9,36c0,0,5,21,9,46c0,0,3,23,7,47c0,0,3,22,3,41c0,0,0,15,-2,30c0,0,-4,16,-10,29c0,0,-7,12,-19,21c0,0,-13,7,-33,8c0,0,-26,-1,-52,-17c0,0,-26,-19,-50,-47c0,0,-23,-29,-44,-65c0,0,-23,-38,-39,-76c0,0,-19,-40,-31,-77c0,0,-12,-37,-19,-67L261,0H32L233,950c0,0,3,10,5,21c0,0,2,9,4,20c0,0,0,9,2,15c0,0,1,6,1,10c0,0,0,21,-5,34c0,0,-4,12,-14,19c0,0,-10,7,-25,9c0,0,-17,2,-38,2H131l14,81H515L443,825c0,0,-6,-24,-13,-52c0,0,-8,-30,-14,-55c0,0,-8,-31,-15,-62h9c0,0,29,45,60,79c0,0,30,33,66,56c0,0,36,21,79,33c0,0,41,9,92,10c0,0,48,0,82,-14c0,0,33,-15,55,-38c0,0,20,-25,29,-56c0,0,9,-33,9,-67c0,0,0,-20,-3,-41c0,0,-4,-23,-7,-45c0,0,-4,-22,-9,-45c0,0,-6,-22,-9,-42L819,322c0,0,-10,-42,-16,-77c0,0,-6,-38,-6,-69c0,0,0,-34,15,-51c0,0,13,-18,39,-18c0,0,23,0,44,9c0,0,19,9,46,26L978,90c0,0,-19,-19,-42,-38c0,0,-24,-20,-51,-34C885,18,855,3,821,-5c0,0,-36,-9,-77,-9Z" 
id="f0_h"
transform="scale(0.001,-0.001)" />

<path d="M322,431c0,0,57,0,106,15c0,0,48,14,85,43c0,0,35,27,57,67c0,0,20,39,20,87c0,0,-1,47,-19,73c0,0,-20,26,-56,26c0,0,-38,0,-71,-27c0,0,-34,-29,-61,-73c0,0,-27,-46,-46,-100c0,0,-19,-56,-28,-111ZM402,-14c0,0,-71,0,-132,18c0,0,-63,19,-108,59c0,0,-47,39,-74,99c0,0,-27,59,-27,139c0,0,0,56,15,118c0,0,14,61,45,122c0,0,29,59,73,112c0,0,43,53,101,94c0,0,56,40,129,64c0,0,70,23,155,23c0,0,110,0,170,-47c0,0,60,-48,60,-133c0,0,0,-62,-34,-118c0,0,-35,-58,-95,-100c0,0,-60,-44,-144,-68c0,0,-82,-26,-178,-26c-1,0,-2,0,-4,0H327c0,0,-15,0,-29,2c0,0,-3,-16,-3,-30c0,0,-1,-16,0,-28c0,0,0,-89,41,-137c0,0,41,-48,125,-48c0,0,37,0,71,11c0,0,33,10,63,28c0,0,27,17,51,40c0,0,22,21,39,45c0,0,8,-12,14,-29c0,0,5,-18,5,-37c0,0,0,-28,-18,-58c0,0,-18,-31,-54,-56C632,45,595,19,538,2c0,0,-58,-16,-136,-16Z" 
id="f0_i"
transform="scale(0.001,-0.001)" />

<path d="M57,0L186,614c0,0,3,12,6,34c0,0,3,20,3,37c0,0,0,27,-18,41c0,0,-20,12,-62,12H87l14,81H439L407,609h7c0,0,25,55,53,97c0,0,25,41,58,71c0,0,32,27,72,43c0,0,40,14,94,14c0,0,81,-1,121,-31c0,0,38,-30,39,-88c0,0,-1,-80,-46,-118c0,0,-45,-39,-132,-39c-1,0,-2,0,-2,0c0,0,0,34,-3,63c0,0,-5,27,-12,47c0,0,-9,19,-23,30c0,0,-16,10,-37,11c0,0,-22,-1,-45,-17c0,0,-25,-19,-48,-49c0,0,-24,-31,-46,-72c0,0,-24,-43,-44,-92c0,0,-22,-51,-39,-105c0,0,-17,-55,-29,-110L287,0Z" 
id="f0_j"
transform="scale(0.001,-0.001)" />

<path d="M413,95c0,0,41,0,74,24c0,0,32,22,60,62c0,0,25,38,45,87c0,0,19,48,32,101c0,0,12,52,19,103c0,0,5,50,6,90c0,0,-1,91,-31,130c0,0,-31,39,-85,40c0,0,-39,0,-71,-23c0,0,-34,-23,-59,-59c0,0,-27,-38,-47,-85c0,0,-20,-49,-34,-100c0,0,-15,-52,-21,-102c0,0,-6,-52,-6,-94c0,0,0,-94,31,-134c0,0,31,-40,87,-40ZM385,-14c0,0,-72,0,-131,19c0,0,-60,19,-103,60c0,0,-43,39,-66,100c0,0,-24,60,-24,141c0,0,0,57,14,118c0,0,12,61,41,121c0,0,26,59,68,111c0,0,41,53,96,92c0,0,55,39,127,63c0,0,69,23,155,23c0,0,66,0,124,-18c0,0,58,-19,102,-57c0,0,42,-40,68,-100c0,0,26,-61,26,-146c0,0,-1,-55,-13,-115c0,0,-13,-61,-39,-119c0,0,-27,-60,-67,-112c0,0,-42,-54,-96,-94C667,73,612,32,542,9c0,0,-71,-23,-157,-23Z" 
id="f0_l"
transform="scale(0.001,-0.001)" />

<path d="M-113,-366c-2,0,-4,0,-5,0c0,0,-12,0,-25,1c0,0,-14,1,-26,3c0,0,-13,1,-24,4c0,0,-11,2,-19,5l19,88c0,0,12,-4,33,-7c0,0,20,-4,37,-4c0,0,37,0,67,13c0,0,27,12,51,43c0,0,21,30,40,81c0,0,18,50,34,127L223,715H84l15,72l147,32l12,57c0,0,17,74,48,132c0,0,30,56,74,94c0,0,43,36,103,56c0,0,59,18,137,18c0,0,58,0,104,-10c0,0,45,-10,76,-28c0,0,30,-19,45,-42c0,0,14,-25,15,-52c0,0,0,-52,-45,-79c0,0,-44,-29,-130,-29c0,0,0,29,-3,57c0,0,-5,26,-12,48c0,0,-8,21,-22,33c0,0,-13,12,-34,12c0,0,-49,-1,-74,-42c0,0,-26,-41,-42,-127L478,819H671L649,715H455L310,32c0,0,-17,-81,-44,-141c0,0,-28,-62,-61,-106c0,0,-35,-44,-74,-73c0,0,-40,-30,-81,-47c0,0,-42,-17,-84,-24c0,0,-40,-7,-79,-7Z" 
id="f0_m"
transform="scale(0.001,-0.001)" />

<path d="M377,107c3,0,24,0,46,14c0,0,22,13,46,38c0,0,23,23,45,57c0,0,21,32,39,70c0,0,16,36,31,77c0,0,13,39,21,79l55,252c0,0,-11,16,-36,30c0,0,-26,12,-63,12c0,0,-46,0,-83,-24c0,0,-37,-23,-67,-62c0,0,-31,-40,-51,-90c0,0,-23,-50,-37,-101c0,0,-15,-53,-22,-102c0,0,-9,-50,-8,-88c0,0,0,-45,7,-75c0,0,5,-31,17,-50c0,0,10,-19,26,-28c0,0,14,-9,33,-9h1Zm88,-473l61,306c0,0,2,12,6,30c0,0,3,16,8,37c0,0,4,20,10,44c0,0,4,22,9,44c0,0,11,53,24,111h-9c0,0,-26,-51,-53,-90c0,0,-29,-42,-61,-70C460,46,424,16,381,1c0,0,-44,-15,-103,-15c0,0,-49,0,-88,17c0,0,-41,18,-68,53c0,0,-29,34,-44,87c0,0,-18,52,-17,121c0,0,0,59,15,125c0,0,14,65,42,129c0,0,27,63,68,121c0,0,40,56,93,100c0,0,51,44,116,70c0,0,62,25,135,25c0,0,33,0,66,-4c0,0,32,-5,61,-12c0,0,29,-8,54,-16c0,0,25,-9,44,-18l90,50h76L712,-155c0,0,-5,-20,-8,-41c0,0,-4,-22,-3,-36c0,0,-1,-29,19,-40c0,0,19,-13,63,-13h57l-13,-81Z" 
id="f0_n"
transform="scale(0.001,-0.001)" />

<path d="M768,-14c-8,0,-52,1,-82,12c0,0,-36,10,-56,30c0,0,-21,19,-29,47c0,0,-9,25,-9,56c0,0,-1,7,0,16c0,0,1,8,3,19c0,0,0,9,2,18c0,0,1,8,2,14H586c0,0,-33,-48,-65,-86c0,0,-33,-40,-70,-66C451,46,414,16,372,2c0,0,-42,-14,-97,-14h-1c-8,0,-51,0,-82,13c0,0,-33,12,-53,36c0,0,-20,23,-29,55c0,0,-9,30,-9,64c0,0,0,37,9,83c0,0,9,45,17,85l55,269c0,0,5,31,10,57c0,0,3,25,3,38c0,0,0,30,-18,40c0,0,-20,10,-62,10H87l14,81H468L367,362c0,0,-4,-18,-9,-40c0,0,-5,-23,-8,-45c0,0,-4,-23,-6,-43c0,0,-4,-20,-3,-34c0,0,-1,-34,14,-53c0,0,14,-20,52,-20c0,0,33,0,69,30c0,0,34,30,68,79c0,0,31,47,57,107c0,0,26,59,39,117l81,359H949L845,322c0,0,-10,-42,-15,-77c0,0,-6,-38,-6,-69c0,0,-1,-34,14,-51c0,0,13,-18,39,-18c0,0,23,0,44,9c0,0,19,9,46,26l37,-52c0,0,-19,-19,-42,-38c0,0,-24,-20,-51,-34C911,18,881,3,847,-5c0,0,-36,-9,-77,-9c0,0,-1,0,-2,0Z" 
id="f0_o"
transform="scale(0.001,-0.001)" />

<path d="M404,-14c-2,0,-3,0,-5,0c0,0,-69,0,-130,18c0,0,-62,19,-108,59c0,0,-46,39,-73,99c0,0,-27,59,-27,139c0,0,-1,56,14,118c0,0,15,61,43,121c0,0,27,59,71,113c0,0,41,52,97,93c0,0,56,40,126,64c0,0,69,23,152,24c0,0,63,-1,110,-13c0,0,44,-14,75,-35c0,0,28,-22,43,-51c0,0,14,-31,14,-63c0,0,0,-24,-9,-46c0,0,-11,-24,-33,-41c0,0,-23,-20,-58,-30c0,0,-36,-11,-86,-11c0,0,0,39,-7,77c0,0,-8,35,-21,63c0,0,-15,27,-35,43c0,0,-21,15,-48,15c0,0,-34,0,-61,-21c0,0,-30,-23,-53,-59c0,0,-24,-37,-42,-82c0,0,-20,-47,-31,-97c0,0,-14,-50,-21,-97c0,0,-6,-50,-6,-88c0,0,0,-94,42,-145c0,0,41,-52,124,-52c1,0,2,0,2,0c0,0,41,0,73,11c0,0,32,10,59,28c0,0,25,18,46,41c0,0,20,21,36,45c0,0,9,-10,16,-26c0,0,7,-18,7,-41c0,0,-1,-31,-17,-61c0,0,-18,-31,-55,-55C628,43,591,16,534,1c0,0,-55,-15,-130,-15Z" 
id="f0_p"
transform="scale(0.001,-0.001)" />

<path d="M-100,-366c-10,0,-47,1,-82,7c0,0,-42,8,-74,21l24,85c0,0,17,-6,50,-12c0,0,30,-8,73,-8c2,0,4,0,6,0c0,0,1,0,1,0c9,0,74,1,127,19c0,0,57,18,108,51c0,0,49,31,93,73c0,0,43,43,84,91L119,657c0,0,-13,46,-36,64c0,0,-25,16,-70,17H0l17,81H316L417,423c0,0,7,-31,16,-69c0,0,7,-41,15,-80c0,0,7,-41,13,-75c0,0,5,-35,7,-54h4c0,0,46,62,86,124c0,0,40,61,71,120c0,0,30,59,48,112c0,0,16,52,17,97c0,0,0,51,-25,78c0,0,-26,27,-70,27c0,0,-1,30,10,54c0,0,8,23,25,41c0,0,16,17,39,27c0,0,22,9,48,9c0,0,62,0,94,-34c0,0,32,-35,32,-96c0,0,0,-60,-20,-126c0,0,-21,-66,-58,-141c0,0,-38,-75,-90,-158c0,0,-54,-84,-121,-177c0,0,-56,-77,-104,-141c0,0,-49,-65,-94,-117c0,0,-47,-53,-95,-91c0,0,-49,-41,-102,-66c0,0,-56,-28,-118,-40c0,0,-63,-13,-142,-13c0,0,-1,0,-3,0Z" 
id="f0_q"
transform="scale(0.001,-0.001)" />

<path d="M376,107c0,0,34,0,69,29c0,0,35,29,67,76c0,0,30,47,56,107c0,0,25,58,38,121l54,254c0,0,-17,21,-45,32c0,0,-28,10,-56,10c0,0,-44,0,-79,-23c0,0,-38,-24,-66,-62c0,0,-31,-39,-52,-88c0,0,-24,-51,-38,-102c0,0,-15,-53,-23,-104c0,0,-8,-53,-8,-94c0,0,0,-44,7,-74c0,0,5,-30,17,-47c0,0,10,-20,26,-27c0,0,14,-8,33,-8ZM284,-14c0,0,-59,0,-100,21c0,0,-43,23,-70,61c0,0,-28,38,-40,89c0,0,-13,50,-13,107c0,0,-1,59,14,125c0,0,13,65,41,129c0,0,27,63,68,121c0,0,38,56,91,100c0,0,52,44,117,70c0,0,63,25,138,25c0,0,44,0,84,-10c0,0,38,-10,69,-27c0,0,2,10,4,24c0,0,2,12,5,26c0,0,2,12,5,24c0,0,3,12,4,18l14,61c0,0,2,10,4,21c0,0,2,9,4,20c0,0,1,9,2,15c0,0,1,6,1,10c0,0,0,21,-5,34c0,0,-4,12,-14,19c0,0,-10,7,-25,9c0,0,-17,2,-37,2H609l15,81H991L815,328c0,0,-3,-11,-6,-31c0,0,-6,-22,-9,-43c0,0,-3,-23,-6,-44c0,0,-3,-22,-3,-36c0,0,0,-36,17,-52c0,0,15,-17,36,-17c0,0,1,0,1,0c0,0,19,0,43,11c0,0,23,9,42,21L964,78c0,0,-20,-18,-46,-33c0,0,-26,-17,-55,-30C863,15,832,1,797,-6c0,0,-35,-8,-74,-8c0,0,-34,0,-61,8c0,0,-29,7,-47,22c0,0,-21,14,-31,38c0,0,-11,22,-11,53c0,0,-1,14,1,25c0,0,0,11,2,22c0,0,1,10,3,24c0,0,1,11,4,28h-9c0,0,-28,-60,-59,-101c0,0,-32,-42,-67,-68c0,0,-35,-27,-76,-38c0,0,-42,-13,-88,-13Z" 
id="f0_r"
transform="scale(0.001,-0.001)" />

<path d="M548,84c1,0,2,0,3,0c0,0,63,0,116,31c0,0,51,30,92,82c0,0,41,50,72,117c0,0,30,66,50,137c0,0,19,70,29,141c0,0,10,70,10,131c0,0,0,74,-16,128c0,0,-16,54,-42,89c0,0,-29,34,-66,52c0,0,-38,17,-83,17c0,0,-64,-1,-115,-31c0,0,-53,-31,-93,-81c0,0,-42,-52,-72,-117c0,0,-31,-68,-50,-138c0,0,-20,-71,-29,-141c0,0,-11,-72,-10,-131c0,0,-1,-75,16,-129c0,0,16,-55,44,-89c0,0,28,-35,66,-51c0,0,36,-17,78,-17ZM735,-366c-8,0,-71,1,-126,21c0,0,-60,20,-102,64c0,0,-44,43,-70,112c0,0,-26,68,-27,166c0,0,-71,13,-127,46c0,0,-59,32,-100,85c0,0,-42,51,-65,122c0,0,-24,69,-23,157c0,0,-1,72,18,153c0,0,18,81,55,159c0,0,36,77,91,149c0,0,54,70,127,123c0,0,71,53,162,85c0,0,90,32,197,32c0,0,84,0,161,-25c0,0,76,-24,135,-76c0,0,57,-51,92,-130c0,0,34,-80,34,-189c0,0,0,-63,-13,-132c0,0,-15,-70,-41,-139c0,0,-28,-71,-69,-136c0,0,-43,-67,-97,-121c0,0,-56,-57,-126,-98C821,62,750,20,666,0c0,0,2,-83,16,-137c0,0,13,-55,36,-85c0,0,24,-31,55,-43c0,0,28,-12,65,-12c1,0,2,0,3,0h25l-19,-89H735Z" 
id="f0_s"
transform="scale(0.001,-0.001)" />

<path d="M15,336L51,497H448L413,336Z" 
id="f0_t"
transform="scale(0.001,-0.001)" />

<path d="M-34,0l16,81H1c0,0,2,0,6,0c8,0,24,1,41,3c0,0,22,3,42,13c0,0,17,10,32,28c0,0,14,17,20,47L298,906c0,0,9,38,9,52c0,0,0,16,-8,27c0,0,-8,9,-22,16c0,0,-15,5,-35,8c0,0,-22,0,-45,1H178l16,81H721l-17,-81H685c0,0,-26,0,-49,-3c0,0,-24,-4,-43,-13c0,0,-19,-11,-34,-29c0,0,-14,-19,-20,-48L367,93H622c0,0,41,0,73,11c0,0,29,9,53,31c0,0,23,20,40,51c0,0,16,32,31,74l28,81h97L860,0Z" 
id="f0_2"
transform="scale(0.001,-0.001)" />

<path d="M559,-14c-10,0,-113,1,-195,27c0,0,-86,27,-145,80c0,0,-60,51,-91,129c0,0,-32,76,-32,173c0,0,0,92,22,181c0,0,21,88,63,168c0,0,41,80,100,147c0,0,59,68,135,117c0,0,74,48,164,77c0,0,89,27,191,27c0,0,76,0,134,-12c0,0,57,-14,95,-37c0,0,36,-24,56,-57c0,0,18,-35,18,-76c0,0,0,-33,-16,-59c0,0,-17,-26,-45,-42c0,0,-30,-18,-69,-27c0,0,-40,-9,-85,-9c0,0,0,31,-5,71c0,0,-4,39,-18,72c0,0,-15,34,-39,56c0,0,-26,23,-68,23c0,0,-61,0,-111,-28c0,0,-53,-28,-94,-75c0,0,-42,-48,-74,-110c0,0,-34,-63,-55,-132c0,0,-22,-71,-33,-143c0,0,-13,-73,-12,-141c0,0,0,-131,66,-201c0,0,66,-72,198,-72c0,0,1,0,2,0c9,0,55,1,93,12c0,0,43,12,77,32c0,0,32,19,58,44c0,0,26,25,45,51c0,0,9,-7,18,-21c0,0,8,-15,8,-31c0,0,0,-38,-23,-76c0,0,-24,-40,-68,-70C824,54,778,23,712,4c0,0,-67,-18,-153,-18Z" 
id="f0_3"
transform="scale(0.001,-0.001)" />

<path d="M559,562c8,0,51,1,90,15c0,0,41,14,73,44c0,0,30,30,49,79c0,0,18,47,18,116c0,0,0,52,-9,87c0,0,-9,34,-28,57c0,0,-19,21,-47,31c0,0,-28,9,-66,9H561L463,562h96ZM-34,0l16,81H1c0,0,2,0,6,0c8,0,24,1,41,3c0,0,22,3,42,13c0,0,17,10,32,28c0,0,14,17,20,47L298,906c0,0,9,38,9,52c0,0,0,16,-8,27c0,0,-8,9,-22,16c0,0,-15,5,-35,8c0,0,-22,0,-45,1H178l16,81H685c0,0,182,0,273,-64c0,0,90,-64,90,-191c0,0,0,-78,-25,-133c0,0,-26,-55,-64,-91c0,0,-40,-38,-88,-58c0,0,-48,-22,-95,-33L882,236c0,0,15,-44,30,-73c0,0,15,-30,32,-47c0,0,17,-20,37,-26c0,0,19,-9,45,-9h6L1016,0h-16c0,0,-79,0,-138,7c0,0,-59,6,-100,26c0,0,-42,18,-70,53c0,0,-28,33,-44,88L551,474H446L386,194c0,0,-6,-28,-8,-41c0,0,-2,-15,-2,-20c0,0,0,-17,8,-26c0,0,8,-11,23,-16c0,0,14,-7,36,-7c0,0,20,-3,44,-3h51L521,0Z" 
id="f0_4"
transform="scale(0.001,-0.001)" />

<path d="M715,-14c0,0,0,46,-1,101c0,0,-2,55,-2,113c0,0,-2,58,-3,116c0,0,-2,58,-3,111c0,0,-2,53,-3,98c0,0,-1,44,-2,77c0,0,-59,-143,-136,-298C565,304,487,150,386,-1H186L171,627c0,0,-2,35,-9,57c0,0,-8,21,-22,34c0,0,-15,12,-33,16c0,0,-19,3,-41,4H57l24,81H376c0,0,4,-77,8,-151c0,0,3,-76,6,-142c0,0,2,-66,4,-119c0,0,1,-53,1,-83c0,0,0,-59,0,-93c0,0,-2,-37,-1,-40h11c0,0,38,60,76,133c0,0,38,71,76,151c0,0,36,79,73,164c0,0,35,84,68,169H885c0,0,4,-38,9,-93c0,0,3,-56,7,-117c0,0,3,-62,8,-128c0,0,2,-66,6,-124c0,0,2,-58,3,-105c0,0,1,-48,2,-73h10c0,0,67,83,111,150c0,0,44,65,71,121c0,0,25,55,35,100c0,0,10,45,11,83c0,0,0,23,-7,40c0,0,-7,18,-17,32c0,0,-11,12,-24,21c0,0,-15,7,-28,11c0,0,2,28,12,50c0,0,10,20,26,33c0,0,14,12,34,19c0,0,19,5,41,6c0,0,50,0,79,-34c0,0,28,-33,28,-96c0,0,0,-80,-34,-167c0,0,-33,-89,-89,-179c0,0,-56,-92,-129,-182C1050,176,977,85,901,1L715,-14Z" 
id="f0_u"
transform="scale(0.001,-0.001)" />

<path d="M124,344V451H786V344Zm0,296V747H786V640Z" 
id="f0_v"
transform="scale(0.001,-0.001)" />

<path d="M321,-14c0,0,-90,0,-151,16C170,2,108,19,70,46c0,0,-38,25,-54,58c0,0,-16,33,-16,65c0,0,0,61,43,96c0,0,44,34,123,34c0,0,0,-45,11,-82c0,0,9,-38,32,-65c0,0,21,-28,54,-43c0,0,32,-16,78,-16c0,0,38,0,74,15c0,0,35,14,63,46c0,0,28,30,45,74c0,0,16,45,16,105c0,0,0,87,-56,135c0,0,-58,48,-159,48H258l16,95h48c0,0,64,0,119,19c0,0,54,19,95,56c0,0,38,35,62,85c0,0,22,50,22,111c0,0,-1,27,-6,53c0,0,-8,23,-19,41c0,0,-14,17,-33,27c0,0,-20,10,-47,10c0,0,-42,0,-71,-19c0,0,-31,-19,-50,-50c0,0,-21,-31,-33,-72c0,0,-13,-42,-20,-86c0,0,-2,-1,-4,-1c-11,0,-40,1,-64,6c0,0,-33,4,-55,15c0,0,-24,11,-37,30c0,0,-13,19,-13,47c0,0,-1,47,30,88c0,0,29,41,80,71c0,0,49,30,119,47c0,0,68,17,145,17c0,0,70,0,129,-14c0,0,56,-15,99,-42c0,0,41,-29,63,-69c0,0,23,-42,23,-93c0,0,0,-54,-19,-105c0,0,-19,-52,-57,-94c0,0,-40,-44,-97,-75c0,0,-58,-33,-135,-46c0,0,53,-6,96,-23c0,0,42,-18,72,-45c0,0,28,-29,46,-67c0,0,15,-40,15,-89c0,0,0,-69,-19,-121c0,0,-19,-54,-53,-92c0,0,-34,-40,-78,-68c0,0,-46,-29,-96,-45C531,18,480,1,427,-6c0,0,-56,-8,-106,-8Z" 
id="f0_w"
transform="scale(0.001,-0.001)" />

<path d="M-34,0l16,81H1c0,0,2,0,6,0c8,0,24,1,41,3c0,0,22,3,42,13c0,0,17,10,32,28c0,0,14,17,20,47L298,906c0,0,9,38,9,52c0,0,0,16,-8,27c0,0,-8,9,-22,16c0,0,-15,5,-35,8c0,0,-22,0,-45,1H178l16,81H721l-17,-81H685c0,0,-26,0,-49,-3c0,0,-24,-4,-43,-13c0,0,-19,-11,-34,-29c0,0,-14,-19,-20,-48L477,615H876l64,297c0,0,3,15,6,28c0,0,1,12,1,18c0,0,0,16,-8,27c0,0,-9,9,-24,16c0,0,-15,5,-35,8c0,0,-21,0,-44,1H816l17,81h527l-17,-81h-20c0,0,-24,0,-47,-3c0,0,-24,-4,-43,-13c0,0,-19,-11,-33,-29c0,0,-15,-19,-21,-48L1022,168c0,0,-3,-9,-4,-19c0,0,-2,-11,-2,-16c0,0,0,-17,8,-26c0,0,8,-11,23,-16c0,0,15,-7,35,-7c0,0,20,-3,44,-3h20L1129,0H602l16,81h21c0,0,2,0,5,0c8,0,25,1,42,3c0,0,23,3,43,14c0,0,18,9,33,27c0,0,14,18,21,49l73,348H457L382,168c0,0,-3,-9,-4,-19c0,0,-2,-11,-2,-16c0,0,0,-17,8,-26c0,0,8,-11,23,-16c0,0,14,-7,36,-7c0,0,20,-3,44,-3h20L490,0Z" 
id="f0_5"
transform="scale(0.001,-0.001)" />

<path d="M-16,-229l16,80c0,0,157,37,157,127c0,0,0,15,-6,26c0,0,-6,11,-16,21c0,0,-10,9,-20,18c0,0,-11,8,-21,21C94,64,84,75,78,91c0,0,-6,14,-6,37c0,0,-1,25,9,44c0,0,9,19,25,34c0,0,15,13,36,21c0,0,21,6,44,6c0,0,28,0,53,-8c0,0,23,-11,41,-27c0,0,18,-18,29,-44c0,0,10,-26,10,-59c0,0,0,-58,-21,-110c0,0,-22,-53,-63,-94c0,0,-43,-44,-105,-74c0,0,-64,-31,-146,-46Z" 
id="f0_x"
transform="scale(0.001,-0.001)" />

<path d="M-21,0L10,157L367,458c0,0,77,65,128,120c0,0,50,55,79,103c0,0,29,47,40,93c0,0,11,45,11,94c0,0,0,31,-7,58c0,0,-8,25,-20,45c0,0,-15,19,-35,30c0,0,-20,10,-45,11c0,0,-38,0,-67,-21c0,0,-31,-20,-51,-54c0,0,-22,-35,-33,-82c0,0,-13,-47,-16,-102c0,0,-38,0,-70,9c0,0,-33,6,-55,24c0,0,-25,14,-37,41c0,0,-13,24,-13,58c0,0,0,45,24,86c0,0,22,40,69,70c0,0,44,30,111,48c0,0,66,17,153,17c0,0,79,0,139,-15c0,0,60,-15,102,-41c0,0,41,-29,62,-68c0,0,21,-39,21,-88c0,0,0,-52,-21,-100c0,0,-21,-49,-62,-100c0,0,-42,-52,-103,-108c0,0,-62,-57,-144,-123L160,168H516c0,0,37,0,63,11c0,0,25,10,43,28c0,0,18,17,31,40c0,0,12,22,22,46l11,28h90L701,0Z" 
id="f0_y"
transform="scale(0.001,-0.001)" />

<path d="M159,0L762,924H370c0,0,-42,0,-69,-19c0,0,-27,-20,-37,-58L243,770H150l63,321H941l-17,-91L289,0Z" 
id="f0_z"
transform="scale(0.001,-0.001)" />

<path d="M446,385l57,267c0,0,5,30,14,67c0,0,7,35,18,75c0,0,9,38,19,77c0,0,10,39,22,75c0,0,-17,-26,-38,-58c0,0,-22,-31,-44,-62c0,0,-24,-33,-45,-61c0,0,-22,-28,-38,-48L140,385ZM197,0l16,81h44c0,0,1,0,4,0c8,0,24,1,41,3c0,0,23,3,43,14c0,0,21,9,36,33c0,0,16,20,24,60l19,93H0l22,95l584,712H821L669,385H828L806,284H648L628,189c0,0,-3,-8,-4,-24c0,0,-2,-16,-2,-23c0,0,-1,-20,8,-32c0,0,6,-12,20,-17c0,0,12,-7,31,-9c0,0,18,-3,42,-3h27L733,0Z" 
id="f0_10"
transform="scale(0.001,-0.001)" />

<path d="M-34,0l16,81H1c0,0,2,0,6,0c8,0,24,1,41,3c0,0,22,3,42,13c0,0,17,10,32,28c0,0,14,17,20,47L301,923c0,0,3,7,5,18c0,0,1,10,1,17c0,0,0,16,-8,27c0,0,-8,9,-22,16c0,0,-15,5,-35,8c0,0,-22,0,-45,1H178l16,81H721l-17,-81H685c0,0,-26,0,-49,-3c0,0,-24,-4,-43,-13c0,0,-19,-11,-34,-29c0,0,-14,-19,-20,-48L382,168c0,0,-2,-9,-4,-19c0,0,-2,-11,-2,-16c0,0,0,-17,8,-26c0,0,8,-11,23,-16c0,0,14,-7,36,-7c0,0,20,-3,44,-3h20L490,0Z" 
id="f0_11"
transform="scale(0.001,-0.001)" />

<path d="M1222,-9c0,0,-87,0,-134,40c0,0,-47,41,-47,116c0,0,0,31,6,78c0,0,5,45,18,103l26,121c0,0,3,14,9,37c0,0,4,21,9,45c0,0,3,23,6,47c0,0,3,23,3,42c0,0,0,14,-2,30c0,0,-4,15,-10,28c0,0,-6,12,-18,21c0,0,-13,7,-31,8c0,0,-25,-1,-48,-17c0,0,-25,-17,-48,-45c0,0,-24,-28,-43,-64c0,0,-22,-37,-38,-74c0,0,-17,-39,-29,-75c0,0,-13,-37,-17,-67L822,301c0,0,-4,-16,-7,-43c0,0,-4,-28,-9,-59c0,0,-4,-32,-9,-64c0,0,-4,-33,-7,-60c0,0,-4,-29,-5,-49c0,0,-2,-21,-2,-26H545c0,0,0,9,3,31c0,0,3,23,7,53c0,0,4,30,10,65c0,0,6,35,12,70c0,0,6,35,12,67c0,0,6,31,12,55l23,107c0,0,3,14,7,35c0,0,3,21,8,46c0,0,3,23,7,47c0,0,3,23,3,42c0,0,-1,15,-1,30c0,0,-2,14,-6,27c0,0,-6,12,-15,20c0,0,-12,8,-28,8c0,0,-26,0,-50,-16c0,0,-26,-16,-48,-42c0,0,-24,-26,-44,-59c0,0,-22,-35,-38,-69c0,0,-17,-36,-29,-70c0,0,-13,-36,-19,-64L286,0H57L185,608c0,0,2,10,4,20c0,0,1,10,3,20c0,0,1,9,3,16c0,0,0,6,0,10c0,0,0,21,-4,33c0,0,-5,12,-14,20c0,0,-11,6,-25,9c0,0,-16,2,-37,2H87l14,81H455L426,663h11c0,0,29,46,62,79c0,0,31,32,66,53c0,0,35,20,75,30c0,0,38,9,84,9c0,0,47,0,80,-13c0,0,32,-14,52,-37c0,0,18,-24,28,-53c0,0,7,-31,8,-63V656h9c0,0,28,44,59,80c0,0,30,33,65,57c0,0,34,22,76,34c0,0,41,11,90,11c0,0,47,0,79,-14c0,0,32,-15,53,-38c0,0,20,-24,29,-56c0,0,7,-33,8,-67c0,0,0,-20,-3,-41c0,0,-4,-22,-7,-45c0,0,-4,-22,-9,-44c0,0,-6,-23,-9,-43L1297,327c0,0,-10,-42,-15,-78c0,0,-6,-37,-6,-68c0,0,-1,-35,14,-51c0,0,13,-18,39,-18c0,0,23,0,44,9c0,0,19,9,47,26l36,-52c0,0,-19,-20,-42,-38c0,0,-23,-20,-51,-35c0,0,-30,-15,-64,-22c0,0,-36,-9,-77,-9Z" 
id="f0_12"
transform="scale(0.001,-0.001)" />

<path d="M401,83c0,0,41,0,76,22c0,0,35,23,65,60c0,0,27,36,50,86c0,0,23,47,38,99c0,0,14,51,23,103c0,0,7,50,7,94c0,0,-1,30,-4,61c0,0,-4,28,-13,52c0,0,-10,23,-25,37c0,0,-17,15,-41,15c0,0,-26,0,-50,-15c0,0,-26,-14,-48,-39c0,0,-24,-25,-44,-57c0,0,-22,-33,-37,-66c0,0,-18,-36,-29,-70c0,0,-14,-36,-19,-66L292,125c0,0,6,-6,18,-14c0,0,10,-9,25,-14c0,0,14,-7,31,-10c0,0,17,-4,35,-4ZM-44,-366L162,608c0,0,2,10,4,20c0,0,1,10,3,20c0,0,1,9,3,16c0,0,0,6,0,10c0,0,0,21,-4,33c0,0,-5,12,-14,20c0,0,-11,6,-25,9c0,0,-16,2,-37,2H64l14,81H407L367,615h10c0,0,26,48,54,88c0,0,28,41,61,70c0,0,34,28,76,45c0,0,42,16,100,16c0,0,50,0,91,-18c0,0,41,-19,71,-53c0,0,28,-35,45,-86c0,0,16,-52,16,-119c0,0,-1,-55,-13,-119c0,0,-14,-64,-40,-127c0,0,-26,-64,-64,-123c0,0,-41,-60,-93,-104C681,85,628,39,562,13c0,0,-64,-27,-142,-27c-1,0,-2,0,-3,0c0,0,-1,0,-2,0c-9,0,-50,1,-84,10c0,0,-40,7,-70,24c0,0,-1,-13,-3,-23c0,0,-1,-12,-4,-24c0,0,-2,-14,-5,-26L228,-155c0,0,-3,-10,-4,-20c0,0,-3,-10,-4,-19c0,0,-1,-11,-2,-17c0,0,-2,-7,-1,-10c0,0,0,-21,5,-33c0,0,3,-13,14,-20c0,0,9,-6,25,-8c0,0,14,-3,37,-3h58l-14,-81Z" 
id="f0_13"
transform="scale(0.001,-0.001)" />

<path d="M254,-12L145,657c0,0,-5,23,-12,40c0,0,-10,15,-22,24c0,0,-13,9,-31,13c0,0,-18,3,-40,4H25l18,81H342L413,367c0,0,10,-78,16,-138c0,0,4,-62,8,-99h5c0,0,51,54,100,115c0,0,47,62,84,125c0,0,36,61,58,121c0,0,21,58,22,105c0,0,0,52,-29,75c0,0,-29,24,-72,24c0,0,-1,63,34,100c0,0,35,37,93,38c0,0,23,0,45,-8c0,0,20,-9,36,-25c0,0,16,-17,25,-44c0,0,9,-27,9,-65c0,0,-1,-60,-20,-125c0,0,-19,-65,-50,-130c0,0,-33,-66,-74,-128c0,0,-41,-64,-84,-119c0,0,-44,-58,-86,-105C533,84,489,36,455,1L254,-12Z" 
id="f0_14"
transform="scale(0.001,-0.001)" />

<path d="M285,-274c11,0,70,0,113,12c0,0,48,12,79,32c0,0,30,20,46,47c0,0,14,25,15,54c0,0,-1,43,-33,67c0,0,-34,23,-113,29L257,-21c0,0,-34,-5,-63,-17c0,0,-31,-12,-52,-31c0,0,-23,-19,-35,-42c0,0,-14,-25,-14,-50c0,0,0,-24,9,-44c0,0,8,-22,30,-36c0,0,21,-15,58,-24c0,0,37,-9,93,-9h2ZM411,382c0,0,27,0,49,13c0,0,23,12,41,33c0,0,17,21,31,48c0,0,13,25,22,54c0,0,8,28,13,56c0,0,4,27,4,50c0,0,0,53,-20,79c0,0,-22,24,-62,24c0,0,-40,0,-70,-26c0,0,-30,-26,-50,-65c0,0,-21,-39,-30,-82c0,0,-11,-45,-11,-79c0,0,0,-56,22,-80c0,0,21,-25,61,-25ZM257,-366c-14,0,-97,1,-156,14c0,0,-67,13,-107,39c0,0,-43,25,-62,62c0,0,-20,36,-20,80c0,0,0,40,21,73c0,0,20,32,55,57c0,0,33,23,77,41c0,0,43,15,91,23c0,0,-15,8,-29,21c0,0,-15,12,-25,30c0,0,-11,16,-18,36c0,0,-6,18,-6,38c0,0,-1,24,9,45c0,0,10,21,30,41c0,0,20,20,52,41c0,0,30,20,74,44c0,0,-51,23,-79,71c0,0,-28,46,-28,113c0,0,0,52,24,112c0,0,22,58,71,107c0,0,47,48,118,81c0,0,71,31,169,31c0,0,50,0,95,-11c0,0,43,-13,78,-37c0,0,16,20,36,41c0,0,19,17,41,32c0,0,21,14,47,22c0,0,24,7,53,8c0,0,47,0,68,-22c0,0,21,-24,22,-59c0,0,0,-19,-5,-38c0,0,-6,-20,-16,-35c0,0,-11,-16,-30,-26c0,0,-18,-9,-44,-9c-1,0,-2,0,-3,0c0,0,0,31,-13,48c0,0,-15,17,-41,17c0,0,-21,0,-38,-7c0,0,-18,-8,-32,-20c0,0,17,-23,28,-55c0,0,10,-33,10,-68c0,0,0,-33,-9,-70c0,0,-11,-37,-29,-73c0,0,-20,-36,-50,-69c0,0,-30,-33,-71,-58c0,0,-41,-26,-93,-41c0,0,-53,-15,-115,-15H367c0,0,-3,0,-7,0c-4,0,-10,0,-15,1c0,0,-10,1,-17,3c0,0,-36,-15,-59,-36c0,0,-24,-21,-24,-44c0,0,0,-14,6,-21c0,0,6,-8,18,-13c0,0,9,-6,25,-8c0,0,14,-4,33,-5L498,150c0,0,112,-10,175,-60c0,0,61,-51,62,-147c0,0,0,-70,-32,-126c0,0,-32,-58,-92,-98c0,0,-62,-40,-149,-63c0,0,-90,-22,-202,-22c0,0,-1,0,-3,0Z" 
id="f0_15"
transform="scale(0.001,-0.001)" />

<path d="M232,671l22,420H492L333,671Z" 
id="f0_16"
transform="scale(0.001,-0.001)" />

<path d="M258,-14c0,0,-89,0,-135,41c0,0,-47,41,-47,115c0,0,0,65,25,182L233,950c0,0,3,10,5,21c0,0,2,9,4,20c0,0,0,9,2,15c0,0,1,6,1,10c0,0,0,21,-5,34c0,0,-4,12,-14,19c0,0,-10,7,-25,9c0,0,-17,2,-38,2H131l14,81H515L333,322c0,0,-10,-42,-15,-77c0,0,-6,-38,-6,-69c0,0,-1,-34,14,-51c0,0,13,-18,39,-18c0,0,23,0,44,9c0,0,20,9,46,26L492,90c0,0,-18,-19,-41,-38c0,0,-24,-20,-52,-34C399,18,369,3,335,-5c0,0,-36,-9,-77,-9Z" 
id="f0_17"
transform="scale(0.001,-0.001)" />

<path d="M-30,0l16,81H4c0,0,21,0,40,4c0,0,16,3,35,13c0,0,16,10,38,30c0,0,21,19,49,51L359,391L254,645c0,0,-13,29,-23,47c0,0,-13,17,-26,28c0,0,-13,10,-30,14c0,0,-17,3,-38,4H119l15,81H421L529,529L741,819H927L912,738H885c0,0,-23,0,-40,-5c0,0,-18,-4,-35,-16c0,0,-19,-13,-37,-34c0,0,-20,-21,-47,-55L568,446L680,189c0,0,14,-32,26,-52c0,0,12,-22,26,-33c0,0,12,-13,30,-17c0,0,14,-6,35,-6c1,0,2,0,3,0h21L805,0H509L394,309L156,0Z" 
id="f0_18"
transform="scale(0.001,-0.001)" />

<path d="M403,-14c-1,0,-2,0,-4,0c0,0,-95,0,-166,16c0,0,-70,17,-117,47c0,0,-47,29,-70,71c0,0,-24,40,-24,88c0,0,0,36,15,63c0,0,14,27,41,45c0,0,25,17,62,26c0,0,36,9,80,9c0,0,0,-71,15,-121c0,0,14,-52,42,-85c0,0,27,-35,64,-51c0,0,35,-16,79,-16c1,0,2,0,3,0c0,0,43,0,77,12c0,0,33,12,57,34c0,0,23,21,36,50c0,0,12,27,12,61c0,0,0,32,-7,59c0,0,-9,26,-30,52c0,0,-21,25,-57,52c0,0,-37,25,-94,57c0,0,-60,32,-104,68c0,0,-47,34,-76,75c0,0,-31,40,-45,88c0,0,-16,48,-16,108c0,0,-1,68,28,127c0,0,27,56,79,99c0,0,51,40,124,64c0,0,73,22,164,22c0,0,85,0,149,-13c0,0,63,-14,106,-37c0,0,41,-24,62,-54c0,0,21,-31,21,-67c0,0,0,-63,-47,-97c0,0,-47,-36,-153,-36c0,0,0,34,-7,72c0,0,-7,36,-24,68c0,0,-17,30,-46,51c0,0,-29,20,-74,20c0,0,-31,0,-60,-10c0,0,-32,-10,-55,-29c0,0,-24,-19,-39,-48c0,0,-15,-31,-15,-70c0,0,0,-41,13,-69c0,0,12,-29,38,-52c0,0,25,-25,64,-47c0,0,38,-24,89,-51c0,0,115,-63,171,-138c0,0,54,-77,55,-174c0,0,0,-82,-29,-144c0,0,-31,-65,-84,-107C706,74,650,30,573,8c0,0,-75,-22,-170,-22Z" 
id="f0_19"
transform="scale(0.001,-0.001)" />

<path d="M435,0V856c0,0,-48,-47,-127,-93c0,0,-79,-46,-142,-69V824c0,0,113,52,197,128c0,0,85,75,120,146h86V0Z" 
id="f2_l"
transform="scale(0.001,-0.001)" />

<path d="M420,489c0,0,93,0,153,65c0,0,60,65,60,181c0,0,0,116,-62,184c0,0,-61,68,-148,68c0,0,-90,0,-156,-74c0,0,-66,-73,-66,-189c0,0,0,-105,63,-170c0,0,63,-65,156,-65ZM391,-18c0,0,-128,0,-209,71c0,0,-82,71,-98,200l129,12c0,0,17,-91,63,-132c0,0,46,-41,118,-41c0,0,62,0,109,28c0,0,47,29,76,76c0,0,30,47,50,128c0,0,20,80,20,164c0,0,0,9,-1,27c0,0,-40,-65,-110,-105c0,0,-69,-39,-151,-39c0,0,-135,0,-229,98c0,0,-94,99,-94,260c0,0,0,166,98,268c0,0,98,101,245,101c0,0,107,0,195,-57c0,0,89,-58,134,-164c0,0,46,-106,46,-308c0,0,0,-209,-45,-334C737,235,691,111,602,46c0,0,-90,-64,-211,-64Z" 
id="f2_t"
transform="scale(0.001,-0.001)" />


</defs>
</svg>