<?xml version="1.0" encoding="UTF-8" standalone="no"?>
<!DOCTYPE svg PUBLIC "-//W3C//DTD SVG 1.1//EN"
"http://www.w3.org/Graphics/SVG/1.1/DTD/svg11.dtd">
<svg viewBox="0 0 909 1286" version="1.1" xmlns="http://www.w3.org/2000/svg" xmlns:xlink="http://www.w3.org/1999/xlink">
<defs>
<style type="text/css"><![CDATA[
.g0_7{
fill: none;
stroke: #000000;
stroke-width: 0.8998611;
stroke-linecap: round;
stroke-linejoin: round;
}
.g1_7{
fill: none;
stroke: #000000;
stroke-width: 0.90444446;
stroke-linecap: round;
stroke-linejoin: round;
}
.g2_7{
fill: none;
stroke: #000000;
stroke-width: 0.9029167;
stroke-linecap: round;
stroke-linejoin: round;
}
.g3_7{
fill: none;
stroke: #000000;
stroke-width: 0.9075001;
stroke-linecap: round;
stroke-linejoin: round;
}
.g4_7{
fill: none;
stroke: #000000;
stroke-width: 0.90138894;
stroke-linecap: round;
stroke-linejoin: round;
}
.g5_7{
fill: none;
stroke: #000000;
stroke-width: 0.8983333;
stroke-linecap: round;
stroke-linejoin: round;
}
.g6_7{
fill: none;
stroke: #000000;
stroke-width: 0.9105556;
stroke-linecap: round;
stroke-linejoin: round;
}
]]></style>
</defs>
<g fill="#000000" >
<use xlink:href="#f0_c" transform="matrix(12,0,0,12,117,100.6)" />
<use xlink:href="#f0_1y" transform="matrix(12,0,0,12,122.9,100.6)" />
<use xlink:href="#f0_d" transform="matrix(12,0,0,12,131.3,100.6)" />
<use xlink:href="#f0_1l" transform="matrix(12,0,0,12,155.8,100.6)" />
<use xlink:href="#f0_2f" transform="matrix(12,0,0,12,168.7,100.6)" />
<use xlink:href="#f0_25" transform="matrix(12,0,0,12,175.3,100.6)" />
<use xlink:href="#f0_2a" transform="matrix(12,0,0,12,179.3,100.6)" />
<use xlink:href="#f0_23" transform="matrix(12,0,0,12,187.8,100.6)" />
<use xlink:href="#f0_2g" transform="matrix(12,0,0,12,199.9,100.6)" />
<use xlink:href="#f0_24" transform="matrix(12,0,0,12,205.4,100.6)" />
<use xlink:href="#f0_21" transform="matrix(12,0,0,12,213.9,100.6)" />
<use xlink:href="#f0_1z" transform="matrix(12,0,0,12,224.9,100.6)" />
<use xlink:href="#f0_2b" transform="matrix(12,0,0,12,232.6,100.6)" />
<use xlink:href="#f0_2a" transform="matrix(12,0,0,12,241.8,100.6)" />
<use xlink:href="#f0_1z" transform="matrix(12,0,0,12,250.2,100.6)" />
<use xlink:href="#f0_21" transform="matrix(12,0,0,12,258,100.6)" />
<use xlink:href="#f0_2c" transform="matrix(12,0,0,12,265.7,100.6)" />
<use xlink:href="#f0_2g" transform="matrix(12,0,0,12,274.5,100.6)" />
<use xlink:href="#f0_2b" transform="matrix(12,0,0,12,282.6,100.6)" />
<use xlink:href="#f0_22" transform="matrix(12,0,0,12,291.7,100.6)" />
<use xlink:href="#f0_22" transform="matrix(12,0,0,12,300.6,100.6)" />
<use xlink:href="#f0_2e" transform="matrix(12,0,0,12,305.7,100.6)" />
<use xlink:href="#f0_21" transform="matrix(12,0,0,12,311.6,100.6)" />
<use xlink:href="#f0_21" transform="matrix(12,0,0,12,319.3,100.6)" />
<use xlink:href="#f0_21" transform="matrix(12,0,0,12,330.4,100.6)" />
<use xlink:href="#f0_28" transform="matrix(12,0,0,12,338.1,100.6)" />
<use xlink:href="#f0_21" transform="matrix(12,0,0,12,342.1,100.6)" />
<use xlink:href="#f0_1z" transform="matrix(12,0,0,12,349.9,100.6)" />
<use xlink:href="#f0_2g" transform="matrix(12,0,0,12,357.6,100.6)" />
<use xlink:href="#f0_2e" transform="matrix(12,0,0,12,362.7,100.6)" />
<use xlink:href="#f0_2b" transform="matrix(12,0,0,12,368.6,100.6)" />
<use xlink:href="#f0_2a" transform="matrix(12,0,0,12,378.1,100.6)" />
<use xlink:href="#f0_2f" transform="matrix(12,0,0,12,386.6,100.6)" />
<use xlink:href="#f0_25" transform="matrix(12,0,0,12,396.5,100.6)" />
<use xlink:href="#f0_2a" transform="matrix(12,0,0,12,400.6,100.6)" />
<use xlink:href="#f0_1x" transform="matrix(12,0,0,12,412,100.6)" />
<use xlink:href="#f0_1z" transform="matrix(12,0,0,12,423,100.6)" />
<use xlink:href="#f0_2b" transform="matrix(12,0,0,12,430.7,100.6)" />
<use xlink:href="#f0_2a" transform="matrix(12,0,0,12,439.9,100.6)" />
<use xlink:href="#f0_20" transform="matrix(12,0,0,12,448.3,100.6)" />
<use xlink:href="#f0_2h" transform="matrix(12,0,0,12,457.1,100.6)" />
<use xlink:href="#f0_1z" transform="matrix(12,0,0,12,466.3,100.6)" />
<use xlink:href="#f0_2g" transform="matrix(12,0,0,12,474,100.6)" />
<use xlink:href="#f0_2b" transform="matrix(12,0,0,12,479.1,100.6)" />
<use xlink:href="#f0_2e" transform="matrix(12,0,0,12,488.3,100.6)" />
<use xlink:href="#f0_g" transform="matrix(12,0,0,12,493.5,100.6)" />
<use xlink:href="#f0_20" transform="matrix(12,0,0,12,501.2,100.6)" />
<use xlink:href="#f0_21" transform="matrix(12,0,0,12,510,100.6)" />
<use xlink:href="#f0_2e" transform="matrix(12,0,0,12,517.7,100.6)" />
<use xlink:href="#f0_25" transform="matrix(12,0,0,12,523.6,100.6)" />
<use xlink:href="#f0_2i" transform="matrix(12,0,0,12,527.7,100.6)" />
<use xlink:href="#f0_21" transform="matrix(12,0,0,12,536.1,100.6)" />
<use xlink:href="#f0_2g" transform="matrix(12,0,0,12,547.5,100.6)" />
<use xlink:href="#f0_24" transform="matrix(12,0,0,12,552.7,100.6)" />
<use xlink:href="#f0_21" transform="matrix(12,0,0,12,561.1,100.6)" />
<use xlink:href="#f0_21" transform="matrix(12,0,0,12,571.8,100.6)" />
<use xlink:href="#f0_2k" transform="matrix(12,0,0,12,579.5,100.6)" />
<use xlink:href="#f0_2c" transform="matrix(12,0,0,12,587.9,100.6)" />
<use xlink:href="#f0_2e" transform="matrix(12,0,0,12,596.8,100.6)" />
<use xlink:href="#f0_21" transform="matrix(12,0,0,12,602.6,100.6)" />
<use xlink:href="#f0_2f" transform="matrix(12,0,0,12,610.4,100.6)" />
<use xlink:href="#f0_2f" transform="matrix(12,0,0,12,617,100.6)" />
<use xlink:href="#f0_25" transform="matrix(12,0,0,12,623.6,100.6)" />
<use xlink:href="#f0_2b" transform="matrix(12,0,0,12,628,100.6)" />
<use xlink:href="#f0_2a" transform="matrix(12,0,0,12,637.2,100.6)" />
<use xlink:href="#f0_22" transform="matrix(12,0,0,12,648.9,100.6)" />
<use xlink:href="#f0_2b" transform="matrix(12,0,0,12,654.1,100.6)" />
<use xlink:href="#f0_2e" transform="matrix(12,0,0,12,663.3,100.6)" />
<use xlink:href="#f0_2g" transform="matrix(12,0,0,12,672.5,100.6)" />
<use xlink:href="#f0_24" transform="matrix(12,0,0,12,677.6,100.6)" />
<use xlink:href="#f0_21" transform="matrix(12,0,0,12,686,100.6)" />
<use xlink:href="#f0_1z" transform="matrix(12,0,0,12,697.1,100.6)" />
<use xlink:href="#f0_2b" transform="matrix(12,0,0,12,704.8,100.6)" />
<use xlink:href="#f0_2a" transform="matrix(12,0,0,12,714.3,100.6)" />
<use xlink:href="#f0_20" transform="matrix(12,0,0,12,722.8,100.6)" />
<use xlink:href="#f0_2h" transform="matrix(12,0,0,12,731.6,100.6)" />
<use xlink:href="#f0_1z" transform="matrix(12,0,0,12,740.4,100.6)" />
<use xlink:href="#f0_2g" transform="matrix(12,0,0,12,748.1,100.6)" />
<use xlink:href="#f0_25" transform="matrix(12,0,0,12,753.3,100.6)" />
<use xlink:href="#f0_2i" transform="matrix(12,0,0,12,757.3,100.6)" />
<use xlink:href="#f0_25" transform="matrix(12,0,0,12,765.8,100.6)" />
<use xlink:href="#f0_2g" transform="matrix(12,0,0,12,769.8,100.6)" />
<use xlink:href="#f0_2l" transform="matrix(12,0,0,12,774.9,100.6)" />
<use xlink:href="#f0_2b" transform="matrix(12,0,0,12,786,100.6)" />
<use xlink:href="#f0_22" transform="matrix(12,0,0,12,795.1,100.6)" />
<use xlink:href="#f0_1x" transform="matrix(12,0,0,12,804,100.6)" />
<use xlink:href="#f0_2j" transform="matrix(12,0,0,12,813.6,100.6)" />
<use xlink:href="#f0_25" transform="matrix(12,0,0,12,826.5,100.6)" />
<use xlink:href="#f0_2e" transform="matrix(12,0,0,12,830.5,100.6)" />
<use xlink:href="#f0_21" transform="matrix(12,0,0,12,836.4,100.6)" />
<use xlink:href="#f0_25" transform="matrix(12,0,0,12,155.8,123.7)" />
<use xlink:href="#f0_2a" transform="matrix(12,0,0,12,159.9,123.7)" />
<use xlink:href="#f0_2g" transform="matrix(12,0,0,12,171.7,123.7)" />
<use xlink:href="#f0_21" transform="matrix(12,0,0,12,176.8,123.7)" />
<use xlink:href="#f0_2e" transform="matrix(12,0,0,12,184.9,123.7)" />
<use xlink:href="#f0_29" transform="matrix(12,0,0,12,190.8,123.7)" />
<use xlink:href="#f0_2f" transform="matrix(12,0,0,12,204,123.7)" />
<use xlink:href="#f0_2b" transform="matrix(12,0,0,12,213.5,123.7)" />
<use xlink:href="#f0_22" transform="matrix(12,0,0,12,222.7,123.7)" />
<use xlink:href="#f0_2a" transform="matrix(12,0,0,12,231.2,123.7)" />
<use xlink:href="#f0_2h" transform="matrix(12,0,0,12,240,123.7)" />
<use xlink:href="#f0_29" transform="matrix(12,0,0,12,248.8,123.7)" />
<use xlink:href="#f0_1y" transform="matrix(12,0,0,12,262,123.7)" />
<use xlink:href="#f0_21" transform="matrix(12,0,0,12,270.5,123.7)" />
<use xlink:href="#f0_2e" transform="matrix(12,0,0,12,278.2,123.7)" />
<use xlink:href="#f0_20" transform="matrix(12,0,0,12,287.4,123.7)" />
<use xlink:href="#f0_21" transform="matrix(12,0,0,12,296.2,123.7)" />
<use xlink:href="#f0_2a" transform="matrix(12,0,0,12,304.3,123.7)" />
<use xlink:href="#f0_2f" transform="matrix(12,0,0,12,312.7,123.7)" />
<use xlink:href="#f0_25" transform="matrix(12,0,0,12,319.4,123.7)" />
<use xlink:href="#f0_2g" transform="matrix(12,0,0,12,323.4,123.7)" />
<use xlink:href="#f0_2l" transform="matrix(12,0,0,12,328.5,123.7)" />
<use xlink:href="#f0_1x" transform="matrix(12,0,0,12,339.9,123.7)" />
<use xlink:href="#f0_2a" transform="matrix(12,0,0,12,347.7,123.7)" />
<use xlink:href="#f0_20" transform="matrix(12,0,0,12,356.1,123.7)" />
<use xlink:href="#f0_2e" transform="matrix(12,0,0,12,368.2,123.7)" />
<use xlink:href="#f0_21" transform="matrix(12,0,0,12,374.1,123.7)" />
<use xlink:href="#f0_28" transform="matrix(12,0,0,12,381.8,123.7)" />
<use xlink:href="#f0_1x" transform="matrix(12,0,0,12,385.9,123.7)" />
<use xlink:href="#f0_2k" transform="matrix(12,0,0,12,393.6,123.7)" />
<use xlink:href="#f0_1x" transform="matrix(12,0,0,12,402,123.7)" />
<use xlink:href="#f0_2g" transform="matrix(12,0,0,12,409.8,123.7)" />
<use xlink:href="#f0_25" transform="matrix(12,0,0,12,415.3,123.7)" />
<use xlink:href="#f0_2b" transform="matrix(12,0,0,12,419.3,123.7)" />
<use xlink:href="#f0_2a" transform="matrix(12,0,0,12,428.5,123.7)" />
<use xlink:href="#f0_2g" transform="matrix(12,0,0,12,440.2,123.7)" />
<use xlink:href="#f0_25" transform="matrix(12,0,0,12,445.4,123.7)" />
<use xlink:href="#f0_29" transform="matrix(12,0,0,12,449.4,123.7)" />
<use xlink:href="#f0_21" transform="matrix(12,0,0,12,462.6,123.7)" />
<use xlink:href="#f0_i" transform="matrix(12,0,0,12,470.7,123.7)" />
<use xlink:href="#f0_18" transform="matrix(12,0,0,12,478.5,123.7)" />
<use xlink:href="#f0_21" transform="matrix(12,0,0,12,491.3,123.7)" />
<use xlink:href="#f0_2a" transform="matrix(12,0,0,12,499,123.7)" />
<use xlink:href="#f0_1z" transform="matrix(12,0,0,12,507.5,123.7)" />
<use xlink:href="#f0_21" transform="matrix(12,0,0,12,515.2,123.7)" />
<use xlink:href="#f0_2b" transform="matrix(12,0,0,12,526.2,123.7)" />
<use xlink:href="#f0_1y" transform="matrix(12,0,0,12,535.8,123.7)" />
<use xlink:href="#f0_2g" transform="matrix(12,0,0,12,544.2,123.7)" />
<use xlink:href="#f0_1x" transform="matrix(12,0,0,12,549.3,123.7)" />
<use xlink:href="#f0_25" transform="matrix(12,0,0,12,557.1,123.7)" />
<use xlink:href="#f0_2a" transform="matrix(12,0,0,12,561.1,123.7)" />
<use xlink:href="#f0_2g" transform="matrix(12,0,0,12,572.5,123.7)" />
<use xlink:href="#f0_24" transform="matrix(12,0,0,12,577.6,123.7)" />
<use xlink:href="#f0_21" transform="matrix(12,0,0,12,586.5,123.7)" />
<use xlink:href="#f0_2e" transform="matrix(12,0,0,12,597.5,123.7)" />
<use xlink:href="#f0_21" transform="matrix(12,0,0,12,603.4,123.7)" />
<use xlink:href="#f0_28" transform="matrix(12,0,0,12,611.1,123.7)" />
<use xlink:href="#f0_1x" transform="matrix(12,0,0,12,615.1,123.7)" />
<use xlink:href="#f0_2g" transform="matrix(12,0,0,12,622.9,123.7)" />
<use xlink:href="#f0_25" transform="matrix(12,0,0,12,628,123.7)" />
<use xlink:href="#f0_2b" transform="matrix(12,0,0,12,632.4,123.7)" />
<use xlink:href="#f0_2a" transform="matrix(12,0,0,12,641.6,123.7)" />
<use xlink:href="#f0_1y" transform="matrix(12,0,0,12,653.3,123.7)" />
<use xlink:href="#f0_21" transform="matrix(12,0,0,12,661.8,123.7)" />
<use xlink:href="#f0_2g" transform="matrix(12,0,0,12,669.5,123.7)" />
<use xlink:href="#f0_2j" transform="matrix(12,0,0,12,674.6,123.7)" />
<use xlink:href="#f0_21" transform="matrix(12,0,0,12,687.5,123.7)" />
<use xlink:href="#f0_21" transform="matrix(12,0,0,12,695.2,123.7)" />
<use xlink:href="#f0_2a" transform="matrix(12,0,0,12,703.3,123.7)" />
<use xlink:href="#f0_1z" transform="matrix(12,0,0,12,715.1,123.7)" />
<use xlink:href="#f0_2h" transform="matrix(12,0,0,12,722.8,123.7)" />
<use xlink:href="#f0_2e" transform="matrix(12,0,0,12,731.6,123.7)" />
<use xlink:href="#f0_2e" transform="matrix(12,0,0,12,737.5,123.7)" />
<use xlink:href="#f0_21" transform="matrix(12,0,0,12,743.4,123.7)" />
<use xlink:href="#f0_2a" transform="matrix(12,0,0,12,751.1,123.7)" />
<use xlink:href="#f0_2g" transform="matrix(12,0,0,12,759.9,123.7)" />
<use xlink:href="#f0_20" transform="matrix(12,0,0,12,768,123.7)" />
<use xlink:href="#f0_21" transform="matrix(12,0,0,12,776.8,123.7)" />
<use xlink:href="#f0_2a" transform="matrix(12,0,0,12,784.5,123.7)" />
<use xlink:href="#f0_2f" transform="matrix(12,0,0,12,793,123.7)" />
<use xlink:href="#f0_25" transform="matrix(12,0,0,12,799.6,123.7)" />
<use xlink:href="#f0_2g" transform="matrix(12,0,0,12,803.6,123.7)" />
<use xlink:href="#f0_2l" transform="matrix(12,0,0,12,809.1,123.7)" />
<use xlink:href="#f0_1x" transform="matrix(12,0,0,12,820.5,123.7)" />
<use xlink:href="#f0_2a" transform="matrix(12,0,0,12,828.2,123.7)" />
<use xlink:href="#f0_20" transform="matrix(12,0,0,12,835.3,123.7)" />
<use xlink:href="#f0_2g" transform="matrix(12,0,0,12,155.8,145.7)" />
<use xlink:href="#f0_24" transform="matrix(12,0,0,12,161,145.7)" />
<use xlink:href="#f0_21" transform="matrix(12,0,0,12,169.8,145.7)" />
<use xlink:href="#f0_1x" transform="matrix(12,0,0,12,180.8,145.7)" />
<use xlink:href="#f0_2c" transform="matrix(12,0,0,12,188.5,145.7)" />
<use xlink:href="#f0_2c" transform="matrix(12,0,0,12,197.7,145.7)" />
<use xlink:href="#f0_28" transform="matrix(12,0,0,12,206.5,145.7)" />
<use xlink:href="#f0_25" transform="matrix(12,0,0,12,210.6,145.7)" />
<use xlink:href="#f0_21" transform="matrix(12,0,0,12,215,145.7)" />
<use xlink:href="#f0_20" transform="matrix(12,0,0,12,222.7,145.7)" />
<use xlink:href="#f0_21" transform="matrix(12,0,0,12,234.5,145.7)" />
<use xlink:href="#f0_28" transform="matrix(12,0,0,12,242.6,145.7)" />
<use xlink:href="#f0_21" transform="matrix(12,0,0,12,246.6,145.7)" />
<use xlink:href="#f0_1z" transform="matrix(12,0,0,12,254.3,145.7)" />
<use xlink:href="#f0_2g" transform="matrix(12,0,0,12,262.4,145.7)" />
<use xlink:href="#f0_2e" transform="matrix(12,0,0,12,267.5,145.7)" />
<use xlink:href="#f0_25" transform="matrix(12,0,0,12,273.4,145.7)" />
<use xlink:href="#f0_1z" transform="matrix(12,0,0,12,277.5,145.7)" />
<use xlink:href="#f0_22" transform="matrix(12,0,0,12,288.9,145.7)" />
<use xlink:href="#f0_25" transform="matrix(12,0,0,12,294,145.7)" />
<use xlink:href="#f0_21" transform="matrix(12,0,0,12,298.4,145.7)" />
<use xlink:href="#f0_28" transform="matrix(12,0,0,12,306.2,145.7)" />
<use xlink:href="#f0_20" transform="matrix(12,0,0,12,310.2,145.7)" />
<use xlink:href="#f0_15" transform="matrix(12,0,0,12,322.7,145.7)" />
<use xlink:href="#f0_i" transform="matrix(12,0,0,12,333.7,145.7)" />
<use xlink:href="#f0_11" transform="matrix(12,0,0,12,64.9,173.6)" />
<use xlink:href="#f0_2a" transform="matrix(12,0,0,12,77.4,173.6)" />
<use xlink:href="#f0_2f" transform="matrix(12,0,0,12,85.8,173.6)" />
<use xlink:href="#f0_i" transform="matrix(12,0,0,12,92.4,173.6)" />
<use xlink:href="#f0_11" transform="matrix(12,0,0,12,155.8,173.6)" />
<use xlink:href="#f0_2f" transform="matrix(12,0,0,12,168.7,173.6)" />
<use xlink:href="#f0_2j" transform="matrix(12,0,0,12,179,173.6)" />
<use xlink:href="#f0_21" transform="matrix(12,0,0,12,191.8,173.6)" />
<use xlink:href="#f0_27" transform="matrix(12,0,0,12,202.9,173.6)" />
<use xlink:href="#f0_2a" transform="matrix(12,0,0,12,212,173.6)" />
<use xlink:href="#f0_2b" transform="matrix(12,0,0,12,220.8,173.6)" />
<use xlink:href="#f0_2j" transform="matrix(12,0,0,12,230,173.6)" />
<use xlink:href="#f0_2g" transform="matrix(12,0,0,12,246.5,173.6)" />
<use xlink:href="#f0_24" transform="matrix(12,0,0,12,252,173.6)" />
<use xlink:href="#f0_1x" transform="matrix(12,0,0,12,260.5,173.6)" />
<use xlink:href="#f0_2g" transform="matrix(12,0,0,12,268.6,173.6)" />
</g>
<path d="M185.9,215.7h21.6" class="g0_7" />
<g fill="#000000" >
<use xlink:href="#f1_1i" transform="matrix(11.9,0,0,11.9,159.1,220.1)" />
<use xlink:href="#f1_11" transform="matrix(11.9,0,0,11.9,192.1,234.4)" />
<use xlink:href="#f2_2e" transform="matrix(11.9,0,-3.2,11.9,187.7,208.8)" />
<use xlink:href="#f3_x" transform="matrix(11.9,0,0,11.9,173.1,220.1)" />
<use xlink:href="#f4_1u" transform="matrix(11.9,0,0,11.9,198.7,208.8)" />
<use xlink:href="#f1_1m" transform="matrix(11.9,0,0,11.9,156.9,266.3)" />
<use xlink:href="#f1_19" transform="matrix(11.9,0,0,11.9,186.3,266.3)" />
<use xlink:href="#f1_1i" transform="matrix(11.9,0,0,11.9,192.1,266.3)" />
<use xlink:href="#f3_x" transform="matrix(11.9,0,0,11.9,173.1,266.3)" />
</g>
<path d="M186.2,310h33.1" class="g1_7" />
<g fill="#000000" >
<use xlink:href="#f1_19" transform="matrix(11.9,0,0,11.9,188.1,303)" />
<use xlink:href="#f1_1m" transform="matrix(11.9,0,0,11.9,156.9,314.4)" />
<use xlink:href="#f1_11" transform="matrix(11.9,0,0,11.9,198.4,328.7)" />
<use xlink:href="#f2_2e" transform="matrix(11.9,0,-3.2,11.9,199.1,303)" />
<use xlink:href="#f3_x" transform="matrix(11.9,0,0,11.9,173.4,314.4)" />
<use xlink:href="#f4_1u" transform="matrix(11.9,0,0,11.9,210.5,303)" />
</g>
<path d="M158.9,370.8h14" class="g2_7" />
<g fill="#000000" >
<use xlink:href="#f0_1z" transform="matrix(11.9,0,0,11.9,219.6,375.2)" />
<use xlink:href="#f0_2h" transform="matrix(11.9,0,0,11.9,227.7,375.2)" />
<use xlink:href="#f0_2e" transform="matrix(11.9,0,0,11.9,236.9,375.2)" />
<use xlink:href="#f0_2e" transform="matrix(11.9,0,0,11.9,242.7,375.2)" />
<use xlink:href="#f0_21" transform="matrix(11.9,0,0,11.9,249,375.2)" />
<use xlink:href="#f0_2a" transform="matrix(11.9,0,0,11.9,257,375.2)" />
<use xlink:href="#f0_2g" transform="matrix(11.9,0,0,11.9,266.2,375.2)" />
<use xlink:href="#f0_20" transform="matrix(11.9,0,0,11.9,273.9,375.2)" />
<use xlink:href="#f0_21" transform="matrix(11.9,0,0,11.9,283,375.2)" />
<use xlink:href="#f0_2a" transform="matrix(11.9,0,0,11.9,291.1,375.2)" />
<use xlink:href="#f0_2f" transform="matrix(11.9,0,0,11.9,300.2,375.2)" />
<use xlink:href="#f0_25" transform="matrix(11.9,0,0,11.9,307.6,375.2)" />
<use xlink:href="#f0_2g" transform="matrix(11.9,0,0,11.9,312.7,375.2)" />
<use xlink:href="#f0_2l" transform="matrix(11.9,0,0,11.9,317.8,375.2)" />
<use xlink:href="#f1_19" transform="matrix(11.9,0,0,11.9,162.4,363.9)" />
<use xlink:href="#f1_26" transform="matrix(11.9,0,0,11.9,192.1,375.2)" />
<use xlink:href="#f1_11" transform="matrix(11.9,0,0,11.9,161.3,389.5)" />
<use xlink:href="#f3_x" transform="matrix(11.9,0,0,11.9,176,375.2)" />
<use xlink:href="#f3_x" transform="matrix(11.9,0,0,11.9,203.9,375.2)" />
<use xlink:href="#f1_1m" transform="matrix(11.9,0,0,11.9,156.9,421.4)" />
<use xlink:href="#f1_26" transform="matrix(11.9,0,0,11.9,189.6,421.4)" />
<use xlink:href="#f2_2e" transform="matrix(11.9,0,-3.2,11.9,198.4,421.4)" />
<use xlink:href="#f3_x" transform="matrix(11.9,0,0,11.9,173.4,421.4)" />
<use xlink:href="#f4_1u" transform="matrix(11.9,0,0,11.9,211.9,421.4)" />
<use xlink:href="#f1_1m" transform="matrix(11.9,0,0,11.9,156.9,454.8)" />
<use xlink:href="#f1_15" transform="matrix(11.9,0,0,11.9,186.3,454.8)" />
<use xlink:href="#f3_x" transform="matrix(11.9,0,0,11.9,173.1,454.8)" />
<use xlink:href="#f3_49" transform="matrix(11.9,0,0,11.9,199.8,454.8)" />
<use xlink:href="#f4_1u" transform="matrix(11.9,0,0,11.9,206.1,454.8)" />
<use xlink:href="#f1_15" transform="matrix(11.9,0,0,11.9,159.1,488.2)" />
<use xlink:href="#f1_26" transform="matrix(11.9,0,0,11.9,205.3,488.2)" />
<use xlink:href="#f2_2e" transform="matrix(11.9,0,-3.2,11.9,214.1,488.2)" />
<use xlink:href="#f3_49" transform="matrix(11.9,0,0,11.9,172.7,488.2)" />
<use xlink:href="#f3_x" transform="matrix(11.9,0,0,11.9,189.2,488.2)" />
<use xlink:href="#f4_1u" transform="matrix(11.9,0,0,11.9,178.9,488.2)" />
<use xlink:href="#f4_1u" transform="matrix(11.9,0,0,11.9,227.7,488.2)" />
<use xlink:href="#f1_15" transform="matrix(11.9,0,0,11.9,159.1,521.5)" />
<use xlink:href="#f1_26" transform="matrix(11.9,0,0,11.9,189.9,521.5)" />
<use xlink:href="#f2_2e" transform="matrix(11.9,0,-3.2,11.9,198.7,521.5)" />
<use xlink:href="#f3_x" transform="matrix(11.9,0,0,11.9,173.8,521.5)" />
</g>
<path d="M183.2,565.1h14.6m72.4,0h14" class="g3_7" />
<g fill="#000000" >
<use xlink:href="#f0_l" transform="matrix(12,0,0,12,272.8,558.2)" />
<use xlink:href="#f1_15" transform="matrix(12,0,0,12,184.8,558.2)" />
<use xlink:href="#f1_26" transform="matrix(12,0,0,12,162.1,569.6)" />
<use xlink:href="#f2_2f" transform="matrix(12,0,-3.2,12,298.5,569.6)" />
<use xlink:href="#f2_2e" transform="matrix(12,0,-3.2,12,185.2,584.2)" />
<use xlink:href="#f2_2e" transform="matrix(12,0,-3.2,12,272.1,584.2)" />
<use xlink:href="#f3_x" transform="matrix(12,0,0,12,170.5,569.6)" />
<use xlink:href="#f3_x" transform="matrix(12,0,0,12,287.4,569.6)" />
</g>
<path d="M159.3,607.7v25.8m56,-25.8v25.8M158.9,608.1h56.8m-56.8,25h56.8" class="g4_7" />
<g fill="#000000" >
<use xlink:href="#f1_26" transform="matrix(11.8,0,0,11.8,166.1,625.3)" />
<use xlink:href="#f1_15" transform="matrix(11.8,0,0,11.8,200.2,625.3)" />
<use xlink:href="#f2_2f" transform="matrix(11.8,0,-3.2,11.8,185.9,625.3)" />
<use xlink:href="#f3_x" transform="matrix(11.8,0,0,11.8,174.5,625.3)" />
<use xlink:href="#f1_1m" transform="matrix(11.9,0,0,11.9,156.9,664.2)" />
<use xlink:href="#f1_2h" transform="matrix(11.9,0,0,11.9,185.2,664.2)" />
<use xlink:href="#f1_1x" transform="matrix(11.9,0,0,11.9,210.4,664.2)" />
<use xlink:href="#f1_2g" transform="matrix(11.9,0,0,11.9,219.6,664.2)" />
<use xlink:href="#f3_x" transform="matrix(11.9,0,0,11.9,173.1,664.2)" />
<use xlink:href="#f3_f" transform="matrix(11.9,0,0,11.9,197.6,664.2)" />
</g>
<path d="M183.3,707.8h15.3" class="g5_7" />
<g fill="#000000" >
<use xlink:href="#f1_16" transform="matrix(11.9,0,0,11.9,185.2,700.8)" />
<use xlink:href="#f1_1x" transform="matrix(11.9,0,0,11.9,158.8,712.2)" />
<use xlink:href="#f1_29" transform="matrix(11.9,0,0,11.9,184.4,726.5)" />
<use xlink:href="#f3_x" transform="matrix(11.9,0,0,11.9,170.5,712.2)" />
</g>
<path d="M183.5,768.7h32.4" class="g2_7" />
<g fill="#000000" >
<use xlink:href="#f1_21" transform="matrix(11.9,0,0,11.9,195.1,761.7)" />
<use xlink:href="#f1_15" transform="matrix(11.9,0,0,11.9,203.1,761.7)" />
<use xlink:href="#f1_1x" transform="matrix(11.9,0,0,11.9,158.8,773.1)" />
<use xlink:href="#f1_29" transform="matrix(11.9,0,0,11.9,193.2,787.4)" />
<use xlink:href="#f3_h" transform="matrix(11.9,0,0,11.9,184.8,761.7)" />
<use xlink:href="#f3_x" transform="matrix(11.9,0,0,11.9,170.5,773.1)" />
</g>
<path d="M159.3,818.8v21.5m21,-21.5v21.5M197,829.5h21.7" class="g4_7" />
<g fill="#000000" >
<use xlink:href="#f1_20" transform="matrix(6.9,0,0,6.9,170.5,838.7)" />
<use xlink:href="#f1_21" transform="matrix(11.9,0,0,11.9,198,822.6)" />
<use xlink:href="#f1_15" transform="matrix(11.9,0,0,11.9,205.7,822.6)" />
<use xlink:href="#f1_1m" transform="matrix(11.9,0,0,11.9,159.9,833.9)" />
<use xlink:href="#f1_29" transform="matrix(11.9,0,0,11.9,201.3,848.2)" />
<use xlink:href="#f2_2g" transform="matrix(11.9,0,-3.2,11.9,220,833.9)" />
<use xlink:href="#f3_x" transform="matrix(11.9,0,0,11.9,184.1,833.9)" />
<use xlink:href="#f0_c" transform="matrix(12,0,0,12,244.6,882.3)" />
<use xlink:href="#f0_d" transform="matrix(12,0,0,12,268.4,882.3)" />
<use xlink:href="#f1_20" transform="matrix(6.9,0,0,6.9,260,887.1)" />
<use xlink:href="#f1_19" transform="matrix(12,0,0,12,159.1,882.3)" />
<use xlink:href="#f1_2g" transform="matrix(12,0,0,12,187,882.3)" />
<use xlink:href="#f1_2a" transform="matrix(12,0,0,12,208.3,882.3)" />
<use xlink:href="#f1_21" transform="matrix(12,0,0,12,219.6,882.3)" />
<use xlink:href="#f1_11" transform="matrix(12,0,0,12,231.7,882.3)" />
<use xlink:href="#f1_1m" transform="matrix(12,0,0,12,249.3,882.3)" />
<use xlink:href="#f1_2g" transform="matrix(12,0,0,12,288.2,882.3)" />
<use xlink:href="#f3_49" transform="matrix(12,0,0,12,169.4,882.3)" />
<use xlink:href="#f3_14" transform="matrix(12,0,0,12,175.6,882.3)" />
<use xlink:href="#f3_x" transform="matrix(12,0,0,12,195.4,882.3)" />
<use xlink:href="#f3_14" transform="matrix(12,0,0,12,276.8,882.3)" />
<use xlink:href="#f0_j" transform="matrix(11.9,0,0,11.9,190.7,917.5)" />
<use xlink:href="#f1_26" transform="matrix(11.9,0,0,11.9,162.1,917.5)" />
<use xlink:href="#f1_25" transform="matrix(11.9,0,0,11.9,182.6,917.5)" />
<use xlink:href="#f1_11" transform="matrix(11.9,0,0,11.9,200.6,917.5)" />
<use xlink:href="#f3_x" transform="matrix(11.9,0,0,11.9,170.5,917.5)" />
</g>
<path d="M217.5,961.2h21.7" class="g4_7" />
<g fill="#000000" >
<use xlink:href="#f1_21" transform="matrix(11.9,0,0,11.9,218.2,954.2)" />
<use xlink:href="#f1_15" transform="matrix(11.9,0,0,11.9,226.2,954.2)" />
<use xlink:href="#f1_26" transform="matrix(11.9,0,0,11.9,162.1,965.6)" />
<use xlink:href="#f1_2a" transform="matrix(11.9,0,0,11.9,183,965.6)" />
<use xlink:href="#f1_21" transform="matrix(11.9,0,0,11.9,192.1,965.6)" />
<use xlink:href="#f1_11" transform="matrix(11.9,0,0,11.9,203.8,965.6)" />
<use xlink:href="#f1_29" transform="matrix(11.9,0,0,11.9,221.8,979.9)" />
<use xlink:href="#f2_2g" transform="matrix(11.9,0,-3.2,11.9,240.2,965.6)" />
<use xlink:href="#f3_x" transform="matrix(11.9,0,0,11.9,170.5,965.6)" />
</g>
<path d="M183.4,1025h38.9" class="g6_7" />
<g fill="#000000" >
<use xlink:href="#f0_m" transform="matrix(7,0,0,7,202.4,1009.9)" />
<use xlink:href="#f1_2a" transform="matrix(12,0,0,12,184.4,1018)" />
<use xlink:href="#f1_21" transform="matrix(12,0,0,12,193.6,1018)" />
<use xlink:href="#f1_15" transform="matrix(12,0,0,12,209.4,1018)" />
<use xlink:href="#f1_26" transform="matrix(12,0,0,12,162.1,1029.7)" />
<use xlink:href="#f1_29" transform="matrix(12,0,0,12,196.5,1044)" />
<use xlink:href="#f2_2g" transform="matrix(12,0,-3.2,12,223.3,1029.7)" />
<use xlink:href="#f3_x" transform="matrix(12,0,0,12,170.5,1029.7)" />
</g>
<path d="M183.4,1089.9h34.9" class="g6_7" />
<g fill="#000000" >
<use xlink:href="#f0_m" transform="matrix(7,0,0,7,202.4,1074.8)" />
<use xlink:href="#f1_2a" transform="matrix(12,0,0,12,184.4,1082.9)" />
<use xlink:href="#f1_21" transform="matrix(12,0,0,12,193.6,1082.9)" />
<use xlink:href="#f1_26" transform="matrix(12,0,0,12,162.1,1094.6)" />
<use xlink:href="#f1_15" transform="matrix(12,0,0,12,222.2,1094.6)" />
<use xlink:href="#f1_29" transform="matrix(12,0,0,12,194.3,1108.9)" />
<use xlink:href="#f2_2g" transform="matrix(12,0,-3.2,12,206.8,1082.9)" />
<use xlink:href="#f3_x" transform="matrix(12,0,0,12,170.5,1094.6)" />
<use xlink:href="#f5_r" transform="matrix(8,0,0,8,792.2,1264.2)" />
</g>
<defs>
<path d="M474,-326c0,0,-112,57,-188,133c0,0,-107,108,-165,254c0,0,-58,147,-58,305c0,0,0,231,114,421c0,0,114,191,297,273v-31c0,0,-92,-51,-151,-139c0,0,-59,-88,-88,-223c0,0,-30,-135,-30,-281c0,0,0,-160,25,-290c0,0,20,-102,47,-164c0,0,28,-62,75,-120c0,0,47,-57,122,-109v-29Z" 
id="f0_c"
transform="scale(0.001,-0.001)" />

<path d="M397,34c0,0,67,0,126,75c0,0,58,74,58,216c0,0,0,131,-58,201c0,0,-59,70,-133,70c0,0,-39,0,-79,-20c0,0,-29,-14,-75,-59V109c0,0,37,-37,78,-56c0,0,40,-19,83,-19ZM358,-20c0,0,-59,0,-121,21c0,0,-61,22,-126,65V773c0,0,0,117,-5,144c0,0,-6,27,-18,37c0,0,-12,9,-29,9c0,0,-21,0,-53,-12l-9,27l205,83h34V564c0,0,98,139,213,139c0,0,105,0,183,-90c0,0,78,-90,78,-245c0,0,0,-182,-121,-293c0,0,-103,-95,-231,-95Z" 
id="f0_1y"
transform="scale(0.001,-0.001)" />

<path d="M35,-326v29c0,0,92,51,151,139c0,0,60,87,89,221c0,0,28,136,28,282c0,0,0,159,-24,290c0,0,-19,103,-47,165c0,0,-28,62,-75,119c0,0,-46,57,-122,110v31c0,0,113,-56,188,-132c0,0,107,-109,165,-255c0,0,58,-147,58,-306c0,0,0,-231,-114,-420c0,0,-113,-191,-297,-273Z" 
id="f0_d"
transform="scale(0.001,-0.001)" />

<path d="M551,-22c0,0,-165,0,-251,56c0,0,-86,57,-122,154c0,0,-24,67,-24,250V833c0,0,0,93,-25,123c0,0,-26,29,-83,29H8v27H444V985H405c0,0,-62,0,-89,-40c0,0,-19,-27,-19,-112V392c0,0,0,-59,11,-135c0,0,11,-76,39,-118c0,0,29,-43,82,-70c0,0,53,-28,131,-28c0,0,99,0,178,43c0,0,78,44,107,111c0,0,29,68,29,229V833c0,0,0,95,-21,119c0,0,-29,33,-86,33H729v27h357V985h-38c0,0,-59,0,-91,-50c0,0,-16,-23,-16,-108V417c0,0,0,-152,-30,-236C911,181,881,97,792,37c0,0,-88,-59,-241,-59Z" 
id="f0_1l"
transform="scale(0.001,-0.001)" />

<path d="M312,-20c0,0,-62,0,-143,22c0,0,-25,8,-40,8c0,0,-18,0,-27,-19H77V234h25c0,0,21,-105,80,-158c0,0,59,-53,132,-53c0,0,51,0,84,31c0,0,32,30,32,72c0,0,0,52,-36,87c0,0,-36,35,-144,88c0,0,-109,54,-142,97c0,0,-34,43,-34,107c0,0,0,85,58,141c0,0,58,57,150,57c0,0,40,0,97,-17c0,0,38,-11,51,-11c0,0,12,0,19,5c0,0,7,5,15,23h25V470H464c0,0,-28,110,-72,149c0,0,-45,40,-113,40c0,0,-53,0,-85,-28c0,0,-32,-27,-32,-61c0,0,0,-41,24,-71c0,0,23,-31,94,-65L389,381c0,0,152,-74,152,-194c0,0,0,-94,-71,-151c0,0,-70,-56,-158,-56Z" 
id="f0_2f"
transform="scale(0.001,-0.001)" />

<path d="M55,0V26c0,0,50,0,67,10c0,0,17,10,27,32c0,0,10,23,10,86V418c0,0,0,111,-6,144c0,0,-6,24,-17,33c0,0,-11,10,-30,10c0,0,-21,0,-51,-11L45,620l206,83h33V154c0,0,0,-64,9,-85c0,0,9,-22,27,-32c0,0,19,-11,67,-11V0ZM222,909c0,0,-32,0,-54,23c0,0,-22,22,-22,53c0,0,0,32,22,54c0,0,22,22,54,22c0,0,31,0,53,-22c0,0,22,-22,22,-54c0,0,0,-31,-22,-53c0,0,-22,-23,-53,-23Z" 
id="f0_25"
transform="scale(0.001,-0.001)" />

<path d="M21,0V26H35c0,0,53,0,71,27c0,0,18,27,18,101V408c0,0,0,123,-5,150c0,0,-6,27,-17,37c0,0,-12,10,-31,10c0,0,-21,0,-50,-11L10,620l206,83h32V558c0,0,120,145,229,145c0,0,56,0,96,-28c0,0,40,-28,64,-92c0,0,16,-45,16,-137V154c0,0,0,-65,11,-88c0,0,8,-19,26,-29c0,0,18,-11,68,-11V0H419V26h14c0,0,47,0,66,15c0,0,20,15,27,43c0,0,3,11,3,70V434c0,0,0,93,-24,135c0,0,-24,42,-81,42c0,0,-88,0,-176,-97V154c0,0,0,-69,9,-86c0,0,10,-21,28,-31c0,0,19,-11,75,-11V0Z" 
id="f0_2a"
transform="scale(0.001,-0.001)" />

<path d="M411,-239c0,0,134,0,198,48c0,0,64,47,64,100c0,0,0,39,-38,55c0,0,-39,16,-154,19c0,0,-167,5,-258,17c0,0,-35,-37,-53,-70c0,0,-17,-32,-17,-60c0,0,0,-36,43,-62c0,0,74,-47,215,-47ZM380,257c0,0,56,0,93,43c0,0,36,42,36,133c0,0,0,118,-51,185c0,0,-38,49,-98,49c0,0,-55,0,-92,-44c0,0,-37,-44,-37,-135c0,0,0,-117,50,-182c0,0,39,-49,99,-49ZM345,-328c0,0,-144,0,-243,64c0,0,-56,38,-56,78c0,0,0,18,8,36c0,0,13,27,52,76c0,0,5,7,76,80c0,0,-39,23,-55,41c0,0,-16,19,-16,42c0,0,0,26,22,61c0,0,21,35,98,100c0,0,-63,30,-97,85c0,0,-33,55,-33,121c0,0,0,101,76,174c0,0,77,73,196,73c0,0,98,0,170,-48H688c0,0,32,0,37,-2c0,0,6,-2,8,-6c0,0,4,-7,4,-24c0,0,0,-20,-4,-27c0,0,-2,-4,-7,-6c0,0,-6,-2,-38,-2H599c0,0,41,-54,41,-137c0,0,0,-96,-73,-163c0,0,-73,-68,-196,-68c0,0,-51,0,-104,15c0,0,-33,-28,-44,-49c0,0,-12,-22,-12,-37c0,0,0,-12,13,-24c0,0,12,-12,48,-17c0,0,21,-4,104,-6c0,0,154,-4,199,-11c0,0,70,-10,111,-51c0,0,42,-41,42,-102c0,0,0,-84,-79,-158c0,0,-117,-108,-304,-108Z" 
id="f0_23"
transform="scale(0.001,-0.001)" />

<path d="M255,-10c0,0,-35,0,-68,18c0,0,-32,19,-48,55c0,0,-16,35,-16,109V632H15v24c0,0,41,16,84,56c0,0,43,39,77,92c0,0,17,29,48,104h23V683H407V632H247V188c0,0,0,-66,19,-90c0,0,19,-23,49,-23c0,0,24,0,47,16c0,0,23,15,36,45h29c0,0,-26,-73,-74,-110c0,0,-47,-36,-98,-36Z" 
id="f0_2g"
transform="scale(0.001,-0.001)" />

<path d="M20,0V26c0,0,45,0,71,15c0,0,15,7,24,28c0,0,9,21,9,85V773c0,0,0,117,-5,144c0,0,-6,27,-17,37c0,0,-12,9,-31,9c0,0,-16,0,-51,-12L10,978l204,83h34V561c0,0,83,91,131,116c0,0,49,26,97,26c0,0,58,0,100,-32c0,0,42,-32,62,-101c0,0,14,-47,14,-174V154c0,0,0,-65,11,-89c0,0,7,-18,25,-28c0,0,18,-11,66,-11V0H418V26h15c0,0,48,0,67,15c0,0,18,15,26,43c0,0,2,12,2,70V396c0,0,0,112,-12,147c0,0,-11,35,-36,53c0,0,-26,17,-61,17c0,0,-37,0,-76,-19c0,0,-40,-20,-95,-79V154c0,0,0,-70,8,-87c0,0,8,-17,29,-29c0,0,22,-12,74,-12V0Z" 
id="f0_24"
transform="scale(0.001,-0.001)" />

<path d="M479,469c0,0,-4,66,-16,93c0,0,-18,42,-55,65c0,0,-37,24,-78,24c0,0,-62,0,-111,-48c0,0,-48,-48,-57,-134ZM355,-20c0,0,-123,0,-211,95c0,0,-87,96,-87,258c0,0,0,175,90,273c0,0,89,98,225,98c0,0,115,0,189,-76c0,0,74,-75,74,-202H162c0,0,0,-152,74,-239c0,0,75,-86,175,-86c0,0,67,0,117,36c0,0,50,37,83,127l24,-15c0,0,-16,-102,-91,-186c0,0,-76,-83,-189,-83Z" 
id="f0_21"
transform="scale(0.001,-0.001)" />

<path d="M342,-20c0,0,-116,0,-203,97c0,0,-86,98,-86,264c0,0,0,161,96,261c0,0,95,101,230,101c0,0,100,0,165,-53c0,0,65,-54,65,-111c0,0,0,-29,-18,-46c0,0,-18,-18,-51,-18c0,0,-44,0,-66,29c0,0,-13,15,-17,59c0,0,-4,45,-30,68c0,0,-26,22,-73,22c0,0,-74,0,-120,-55c0,0,-60,-73,-60,-193c0,0,0,-122,60,-216c0,0,60,-93,162,-93c0,0,73,0,131,49c0,0,41,35,80,126l22,-10C629,261,601,125,521,52c0,0,-81,-72,-179,-72Z" 
id="f0_1z"
transform="scale(0.001,-0.001)" />

<path d="M406,32c0,0,72,0,119,60c0,0,47,59,47,205c0,0,0,181,-78,286c0,0,-53,71,-135,71c0,0,-40,0,-79,-23c0,0,-40,-24,-65,-83c0,0,-24,-58,-24,-151c0,0,0,-149,59,-257c0,0,59,-108,156,-108ZM374,-20c0,0,-154,0,-245,122c0,0,-77,104,-77,233c0,0,0,94,46,187c0,0,47,92,123,137c0,0,76,44,161,44c0,0,155,0,249,-118c0,0,80,-100,80,-231c0,0,0,-91,-44,-185C667,169,623,75,546,27c0,0,-77,-47,-172,-47Z" 
id="f0_2b"
transform="scale(0.001,-0.001)" />

<path d="M398,24c0,0,74,0,120,58c0,0,61,76,61,214c0,0,0,156,-69,240c0,0,-47,59,-113,59c0,0,-36,0,-71,-18c0,0,-27,-14,-88,-81V242c0,0,0,-83,6,-109c0,0,11,-43,51,-76c0,0,41,-33,103,-33ZM-4,-326v27H15c5,0,42,0,69,16c0,0,14,8,22,26c0,0,7,19,7,94V481c0,0,0,67,-6,85c0,0,-5,18,-18,27c0,0,-13,9,-36,9c0,0,-18,0,-45,-10L0,615l209,85h29V540c0,0,53,91,106,127c0,0,53,36,112,36c0,0,103,0,172,-80c0,0,84,-99,84,-257c0,0,0,-176,-102,-292c0,0,-83,-94,-210,-94c0,0,-55,0,-95,16c0,0,-30,10,-67,44V-167c0,0,0,-71,8,-90c0,0,9,-20,30,-31c0,0,21,-11,77,-11v-27Z" 
id="f0_2c"
transform="scale(0.001,-0.001)" />

<path d="M63,0V26H93c0,0,30,0,54,15c0,0,25,15,34,41c0,0,10,25,10,99V630H58v53H191v45c0,0,0,102,33,173c0,0,32,71,100,114c0,0,68,44,152,44c0,0,79,0,145,-51c0,0,43,-33,43,-75c0,0,0,-22,-19,-42c0,0,-20,-20,-42,-20c0,0,-17,0,-36,12c0,0,-19,13,-47,53c0,0,-28,41,-51,55c0,0,-23,14,-51,14c0,0,-35,0,-58,-18c0,0,-24,-18,-35,-57c0,0,-10,-38,-10,-197V683H491V630H315V181c0,0,0,-96,21,-122c0,0,27,-33,73,-33h62V0Z" 
id="f0_22"
transform="scale(0.001,-0.001)" />

<path d="M17,0V26c0,0,52,0,77,17c0,0,19,12,26,38c0,0,4,13,4,73V419c0,0,0,119,-5,142c0,0,-4,23,-17,33c0,0,-13,11,-33,11c0,0,-23,0,-52,-11l-7,26l207,83h31V549c0,0,86,154,176,154c0,0,41,0,68,-25c0,0,27,-25,27,-58c0,0,0,-29,-20,-49c0,0,-19,-20,-46,-20c0,0,-26,0,-58,25c0,0,-33,26,-48,26c0,0,-14,0,-29,-15c0,0,-34,-30,-70,-101V159c0,0,0,-56,15,-85c0,0,9,-20,34,-34c0,0,24,-14,71,-14V0Z" 
id="f0_2e"
transform="scale(0.001,-0.001)" />

<path d="M58,0V26c0,0,47,0,64,10c0,0,18,10,28,32c0,0,9,23,9,86V775c0,0,0,116,-5,142c0,0,-5,27,-17,37c0,0,-11,9,-29,9c0,0,-20,0,-49,-12L46,978l204,83h34V154c0,0,0,-64,9,-85c0,0,9,-21,29,-32c0,0,19,-11,72,-11V0Z" 
id="f0_28"
transform="scale(0.001,-0.001)" />

<path d="M286,72c0,0,57,0,149,75V407c0,0,-113,-45,-145,-64c0,0,-59,-32,-85,-68c0,0,-25,-36,-25,-78c0,0,0,-54,32,-89c0,0,32,-36,74,-36ZM217,-13c0,0,-71,0,-116,48c0,0,-46,48,-46,127c0,0,0,50,22,87c0,0,31,50,106,95c0,0,76,45,252,109v26c0,0,0,102,-32,140c0,0,-32,38,-94,38c0,0,-47,0,-74,-25c0,0,-28,-25,-28,-58l1,-43c0,0,0,-34,-17,-53c0,0,-18,-18,-47,-18c0,0,-28,0,-45,19c0,0,-18,19,-18,53c0,0,0,64,66,117c0,0,65,54,184,54c0,0,91,0,149,-31c0,0,44,-23,65,-72c0,0,13,-32,13,-131V238c0,0,0,-98,4,-120c0,0,4,-22,12,-29c0,0,9,-8,20,-8c0,0,12,0,21,5c0,0,16,10,61,55V99C676,99,592,-12,516,-12c0,0,-37,0,-58,24c0,0,-22,26,-23,86C435,98,330,17,303,5c0,0,-40,-18,-86,-18Z" 
id="f0_1x"
transform="scale(0.001,-0.001)" />

<path d="M399,62c0,0,68,0,131,68V481c0,0,-5,51,-27,93c0,0,-22,42,-59,63c0,0,-37,21,-72,21c0,0,-65,0,-117,-59c0,0,-67,-77,-67,-226c0,0,0,-151,65,-231c0,0,66,-80,146,-80ZM330,-20c0,0,-112,0,-196,93c0,0,-83,94,-83,240c0,0,0,147,92,269c0,0,93,122,238,122c0,0,90,0,149,-58V773c0,0,0,117,-6,144c0,0,-5,27,-17,37c0,0,-12,9,-30,9c0,0,-20,0,-52,-12l-9,27l204,83h33V270c0,0,0,-120,6,-146c0,0,5,-27,18,-37c0,0,12,-11,28,-11c0,0,21,0,54,13l9,-26L564,-20H530V78C530,78,480,25,432,2c0,0,-47,-22,-102,-22Z" 
id="f0_20"
transform="scale(0.001,-0.001)" />

<path d="M292,-20c0,0,-57,0,-100,33c0,0,-42,33,-58,85c0,0,-17,52,-17,148V551c0,0,0,49,-10,68c0,0,-11,18,-31,29c0,0,-19,9,-68,9c-2,0,-4,0,-6,0v26H242V226c0,0,0,-95,33,-125c0,0,33,-30,80,-30c0,0,32,0,73,21c0,0,40,20,96,76V555c0,0,0,59,-21,80c0,0,-22,21,-89,22v26H647V269c0,0,0,-119,6,-145c0,0,6,-27,18,-37c0,0,12,-11,29,-11c0,0,23,0,52,13L763,63L558,-20H524V124C524,124,436,29,390,4c0,0,-47,-24,-98,-24Z" 
id="f0_2h"
transform="scale(0.001,-0.001)" />

<path d="M82,-253v33c0,0,77,25,119,78c0,0,42,54,42,114c0,0,0,14,-7,23c0,0,-5,6,-11,6c0,0,-8,0,-35,-14c0,0,-14,-7,-28,-7c0,0,-37,0,-58,21C104,1,82,23,82,61c0,0,0,36,28,62c0,0,28,27,68,27c0,0,49,0,88,-43c0,0,38,-43,38,-113c0,0,0,-77,-53,-143c0,0,-53,-66,-169,-104Z" 
id="f0_g"
transform="scale(0.001,-0.001)" />

<path d="M376,-20L133,556c0,0,-17,41,-31,58c0,0,-15,18,-39,30c0,0,-12,7,-50,13v26H335V657H314c0,0,-29,0,-44,-14c0,0,-16,-14,-15,-38c0,0,-1,-26,15,-62L429,165L588,557c0,0,17,42,17,64c0,0,0,10,-6,17c0,0,-8,11,-21,15c0,0,-13,4,-52,4v26H750V657c0,0,-39,-3,-54,-16c0,0,-26,-23,-47,-76L409,-20Z" 
id="f0_2i"
transform="scale(0.001,-0.001)" />

<path d="M25,0V26c0,0,27,4,47,19c0,0,29,22,96,111L311,346L182,535c0,0,-55,81,-86,102c0,0,-30,20,-75,20v26H341V657c0,0,-30,0,-42,-10c0,0,-13,-11,-13,-28c0,0,0,-19,27,-56c0,0,8,-12,25,-37l48,-78l56,77c0,0,55,74,55,94c0,0,0,16,0,27c0,0,0,11,0,11v26H674V657c0,0,-37,-2,-64,-20c0,0,-37,-26,-100,-111L416,402L587,156c0,0,63,-91,89,-109c0,0,27,-18,70,-21V0H423V26c0,0,34,0,53,15c0,0,14,11,14,28c0,0,0,17,-48,87L341,302L232,157c0,0,-50,-69,-50,-82c0,0,0,-18,17,-32c0,0,17,-15,50,-17V0Z" 
id="f0_2k"
transform="scale(0.001,-0.001)" />

<path d="M145,-328c0,0,-44,0,-73,25c0,0,-28,25,-28,58c0,0,0,31,21,50c0,0,20,19,56,19c0,0,25,0,67,-16c0,0,30,-11,38,-11c0,0,22,0,49,23c0,0,26,23,53,89L376,28L131,542c0,0,-11,24,-36,58c0,0,-19,27,-30,36c0,0,-18,12,-56,21v26H328V657H312c0,0,-33,0,-50,-15c0,0,-17,-14,-17,-36c0,0,0,-30,25,-81L437,179L589,557c0,0,12,31,12,62c0,0,0,13,-5,20c0,0,-6,8,-19,13c0,0,-12,5,-44,5v26H754V657c0,0,-27,-3,-42,-12c0,0,-15,-9,-33,-34c0,0,-7,-10,-25,-58L376,-128c0,0,-40,-99,-105,-150c0,0,-66,-50,-126,-50Z" 
id="f0_2l"
transform="scale(0.001,-0.001)" />

<path d="M336,-20L117,554c0,0,-21,55,-42,74c0,0,-21,19,-66,29v26H296V657c0,0,-40,-3,-52,-14c0,0,-13,-12,-13,-33c0,0,0,-23,13,-56L390,162L537,481L498,581c0,0,-18,46,-47,63c0,0,-17,11,-61,13v26H716V657c0,0,-54,-2,-77,-20c0,0,-15,-12,-15,-39c0,0,0,-15,6,-30L785,177L929,554c0,0,15,40,15,65c0,0,0,14,-15,25c0,0,-14,12,-57,13v26h216V657c0,0,-65,-10,-95,-89L764,-20H733L563,415L363,-20Z" 
id="f0_2j"
transform="scale(0.001,-0.001)" />

<path d="M23,0V26c0,0,47,0,66,10c0,0,19,11,28,33c0,0,10,22,10,85V416c0,0,0,112,-7,145c0,0,-5,25,-16,34c0,0,-11,10,-31,10c0,0,-21,0,-50,-11L12,620l207,83h32V557c0,0,75,75,88,86c0,0,34,29,72,44c0,0,39,16,77,16c0,0,64,0,110,-37c0,0,47,-38,62,-109c0,0,77,90,130,118c0,0,53,28,109,28c0,0,54,0,96,-28c0,0,42,-28,67,-91c0,0,16,-43,16,-136V154c0,0,0,-64,10,-88c0,0,8,-16,28,-28c0,0,20,-12,65,-12V0H844V26h14c0,0,44,0,69,18c0,0,17,12,24,38c0,0,3,13,3,72V448c0,0,0,83,-20,117c0,0,-29,48,-93,48c0,0,-39,0,-79,-20c0,0,-40,-19,-97,-73l-1,-8l2,-32V154c0,0,0,-70,8,-87c0,0,7,-17,29,-29c0,0,21,-12,73,-12V0H431V26c0,0,57,0,78,14c0,0,21,13,29,40c0,0,4,13,4,74V448c0,0,0,83,-25,120c0,0,-33,48,-91,48c0,0,-40,0,-80,-22c0,0,-61,-33,-95,-74V154c0,0,0,-67,10,-87c0,0,9,-20,27,-30c0,0,18,-11,74,-11V0Z" 
id="f0_29"
transform="scale(0.001,-0.001)" />

<path d="M191,-20c0,0,-34,0,-58,24c0,0,-24,24,-24,58c0,0,0,35,24,59c0,0,24,24,58,24c0,0,35,0,59,-24c0,0,24,-25,24,-59c0,0,0,-34,-24,-58c0,0,-25,-24,-59,-24Z" 
id="f0_i"
transform="scale(0.001,-0.001)" />

<path d="M26,0V27H62c0,0,63,0,91,37c0,0,18,24,18,115V833c0,0,0,77,-10,102c0,0,-7,18,-30,32c0,0,-33,18,-69,18H26v27H459V985H422c0,0,-35,0,-67,-17c0,0,-23,-12,-32,-36c0,0,-9,-25,-9,-99V542H784V833c0,0,0,77,-10,102c0,0,-8,18,-31,32c0,0,-33,18,-68,18H639v27h432V985h-36c0,0,-36,0,-68,-17c0,0,-24,-12,-32,-36c0,0,-9,-25,-9,-99V179c0,0,0,-77,10,-102c0,0,7,-18,31,-32c0,0,32,-18,68,-18h36V0H639V27h36c0,0,62,0,90,37c0,0,19,24,19,115V487H314V179c0,0,0,-77,9,-102c0,0,8,-18,32,-32c0,0,32,-18,67,-18h37V0Z" 
id="f0_18"
transform="scale(0.001,-0.001)" />

<path d="M31,0V27H67c0,0,36,0,68,18c0,0,24,12,32,36c0,0,9,24,9,98V836c0,0,0,96,-19,119c0,0,-27,30,-90,30H31v27H811L822,790H792c0,0,-15,80,-34,110c0,0,-19,30,-57,46c0,0,-29,11,-105,11H319V557H541c0,0,87,0,116,26c0,0,39,35,44,121h27V352H701c0,0,-11,74,-21,95c0,0,-14,26,-45,41c0,0,-30,15,-94,15H319V168c0,0,0,-67,6,-81c0,0,6,-15,21,-24c0,0,15,-8,56,-8H574c0,0,86,0,124,12c0,0,39,12,75,47c0,0,46,46,95,139h30L811,0Z" 
id="f0_15"
transform="scale(0.001,-0.001)" />

<path d="M678,393L506,802L330,393ZM11,0V27c0,0,63,12,82,30c0,0,38,35,84,145l356,832h27L912,193c0,0,43,-101,77,-132c0,0,35,-30,97,-34V0H687V27c0,0,60,3,82,21c0,0,21,17,21,41c0,0,0,33,-30,104L700,338H307L239,179c0,0,-26,-59,-26,-88c0,0,0,-23,22,-41c0,0,22,-17,95,-23V0Z" 
id="f0_11"
transform="scale(0.001,-0.001)" />

<path d="M13,0V26c0,0,52,0,78,13c0,0,16,8,24,25c0,0,11,25,11,86V773c0,0,0,118,-5,145c0,0,-5,26,-17,36c0,0,-12,10,-32,10c0,0,-15,0,-47,-13L13,978l203,83h34V381L424,540c0,0,55,50,64,64c0,0,6,9,6,18c0,0,0,15,-12,26c0,0,-13,11,-41,12v23H738V660c0,0,-61,-2,-102,-19c0,0,-40,-17,-89,-62L372,418L547,196c0,0,73,-92,98,-117c0,0,36,-35,63,-45c0,0,18,-8,65,-8V0H441V26c0,0,28,1,38,9c0,0,10,8,10,22c0,0,0,17,-29,56L250,381V154c0,0,0,-67,10,-88c0,0,9,-21,26,-30c0,0,17,-9,75,-10V0Z" 
id="f0_27"
transform="scale(0.001,-0.001)" />

<path d="M453,539c0,0,129,0,204,71c0,0,75,72,75,178c0,0,0,83,-48,127c0,0,-48,44,-144,44c0,0,-24,0,-58,-6L367,545c0,0,48,-6,86,-6ZM-34,0l8,26c0,0,54,3,74,12c0,0,30,12,45,34c0,0,24,36,50,125L316,809c0,0,18,61,18,95c0,0,0,35,-28,58c0,0,-27,24,-78,24q-1,0,-2,0l9,26H566c0,0,167,0,240,-63c0,0,73,-62,73,-164c0,0,0,-98,-74,-179c0,0,-75,-81,-204,-102L698,207c0,0,36,-110,72,-143c0,0,36,-33,116,-38L877,0H635L473,492c0,0,-1,0,-2,0c-12,0,-63,0,-117,11L265,184c0,0,-18,-56,-18,-94c0,0,0,-29,22,-46c0,0,16,-12,90,-18L352,0Z" 
id="f1_1i"
transform="scale(0.001,-0.001)" />

<path d="M600,387l39,398L345,387ZM-74,0l8,26c0,0,55,3,97,37c0,0,42,35,125,149l605,822h26L710,193c0,0,-6,-59,-6,-78c0,0,0,-30,11,-46c0,0,14,-22,39,-32c0,0,24,-11,81,-11L827,0H429l8,26h17c0,0,49,0,79,21c0,0,22,15,34,48c0,0,8,23,15,109l13,128H305L202,193c0,0,-35,-47,-44,-68c0,0,-9,-20,-9,-38c0,0,0,-25,20,-42c0,0,19,-17,64,-19L225,0Z" 
id="f1_11"
transform="scale(0.001,-0.001)" />

<path d="M346,28c0,0,93,0,158,73c0,0,65,74,65,200c0,0,0,94,-40,175c0,0,-40,81,-102,120c0,0,-62,39,-130,39c0,0,-86,0,-123,-67c0,0,-23,-39,-23,-175V267c0,0,0,-102,18,-142c0,0,18,-41,67,-69c0,0,48,-28,110,-28ZM0,-328c0,0,16,47,20,77c0,0,7,51,7,128V354c0,0,0,154,97,252c0,0,97,98,245,98c0,0,168,0,256,-121c0,0,68,-94,68,-212c0,0,0,-133,-82,-246C611,125,501,-21,333,-21c0,0,-60,0,-109,17c0,0,-33,12,-73,46V-45c0,0,0,-184,-24,-283Z" 
id="f2_2e"
transform="scale(0.001,-0.001)" />

<path d="M0,214v74H784V214ZM0,494v72H784V494Z" 
id="f3_x"
transform="scale(0.001,-0.001)" />

<path d="M266,336v0c59,64,106,125,106,125c47,62,82,121,82,121c35,60,62,118,62,118c28,58,49,116,49,116c5,14,10,45,10,45c6,31,5,63,5,63c-1,31,-12,55,-12,55c-12,23,-39,23,-39,23c-25,0,-57,-52,-57,-52C440,898,408,822,408,822C376,746,347,658,347,658C318,570,299,497,299,497c-9,-36,-17,-77,-17,-77c-9,-41,-16,-84,-16,-84ZM342,-19c-44,0,-74,35,-74,35C238,51,221,94,221,94c-18,44,-25,83,-25,83c-8,40,-10,48,-10,48C171,211,158,199,158,199C145,187,131,174,131,174C118,161,101,145,101,145C84,130,61,110,61,110v-1c0,-3,-1,-4,-3,-4c-2,0,-5,1,-5,1q-7,4,-7,4c0,0,-3,9,-3,9c-3,8,3,13,3,13c30,26,67,60,67,60c37,34,72,63,72,63c1,67,10,135,10,135c8,68,19,126,19,126c14,75,50,165,50,165c37,90,83,168,83,168c46,78,94,131,94,131c48,53,85,53,85,53c45,0,64,-29,64,-29c20,-29,23,-68,23,-68c4,-38,-3,-74,-3,-74c-7,-36,-11,-51,-11,-51C571,727,537,658,537,658C503,588,461,527,461,527C420,466,370,410,370,410C321,353,261,295,261,295c-7,-55,-9,-106,-9,-106c-1,-51,7,-91,7,-91c8,-39,28,-64,28,-64C307,10,342,10,342,10c29,0,52,8,52,8c23,9,43,23,43,23c20,15,38,33,38,33c18,18,40,40,40,40c4,4,8,5,11,5c3,0,4,-1,4,-1q8,-3,8,-3c0,0,4,-7,4,-7c3,-7,-1,-13,-1,-13C495,37,451,9,451,9C408,-19,342,-19,342,-19Z" 
id="f4_1u"
transform="scale(0.001,-0.001)" />

<path d="M232,-21l84,842c0,0,6,64,6,86c0,0,0,34,-25,56c0,0,-25,23,-79,23H191l7,26H598l-9,-26c0,0,-64,-1,-89,-14c0,0,-24,-13,-38,-44c0,0,-8,-16,-16,-94L387,231L781,769c0,0,65,88,81,123c0,0,11,23,11,40c0,0,0,20,-17,36c0,0,-17,15,-64,18l9,26h304l-8,-26c0,0,-36,-3,-58,-15c0,0,-41,-19,-82,-59c0,0,-40,-39,-128,-159L259,-21Z" 
id="f1_1m"
transform="scale(0.001,-0.001)" />

<path d="M-46,0l10,26c0,0,62,2,82,11c0,0,33,13,48,35c0,0,25,36,51,126L318,810c0,0,23,76,23,115c0,0,0,20,-10,33c0,0,-10,13,-29,21c0,0,-20,7,-78,7l9,26H619l-8,-26h-2c-8,0,-48,-1,-69,-12c0,0,-33,-16,-51,-46c0,0,-17,-30,-45,-132L271,185c0,0,-23,-78,-23,-100c0,0,0,-17,9,-29c0,0,9,-12,30,-19c0,0,20,-6,85,-11L364,0Z" 
id="f1_19"
transform="scale(0.001,-0.001)" />

<path d="M-163,-328c0,0,-47,0,-71,21c0,0,-24,22,-24,51c0,0,0,24,18,41c0,0,18,18,42,18c0,0,22,0,38,-15c0,0,13,-11,13,-25c0,0,0,-19,-18,-33c0,0,-10,-8,-10,-14l1,-3c0,0,3,-3,7,-5c0,0,5,-1,14,-1c0,0,60,0,103,38c0,0,42,38,75,153L189,469c0,0,25,85,25,94c0,0,0,18,-16,32c0,0,-16,14,-41,14c0,0,-10,0,-23,-2c0,0,-9,-2,-28,-5v27l256,46L171,8C171,8,120,-170,30,-249c0,0,-89,-79,-193,-79ZM353,819c0,0,-31,0,-53,22c0,0,-22,22,-22,54c0,0,0,31,22,53c0,0,22,22,53,22c0,0,31,0,53,-22c0,0,22,-22,22,-53c0,0,0,-32,-22,-54c0,0,-22,-22,-53,-22Z" 
id="f1_26"
transform="scale(0.001,-0.001)" />

<path d="M-33,0l9,26c0,0,58,2,78,11c0,0,30,13,43,34c0,0,20,31,48,130L318,812c0,0,21,74,21,113c0,0,0,28,-20,45c0,0,-20,16,-77,16H226l9,26H966L904,769H878c0,0,5,34,5,57c0,0,0,39,-20,66c0,0,-25,34,-74,52c0,0,-36,13,-166,13H488L374,557h99c0,0,102,0,148,31c0,0,46,31,79,115h26L623,336H593c0,0,13,46,13,79c0,0,0,32,-13,52c0,0,-13,19,-36,28c0,0,-23,10,-95,10H361L263,156c0,0,-14,-43,-14,-66c0,0,0,-17,19,-30c0,0,13,-9,65,-9h93c0,0,145,0,233,51c0,0,87,52,157,180h27L747,0Z" 
id="f1_15"
transform="scale(0.001,-0.001)" />

<path d="M83,308c0,0,-35,0,-59,24c0,0,-24,24,-24,59c0,0,0,34,24,58c0,0,24,24,59,24c0,0,33,0,58,-24c0,0,24,-24,24,-58c0,0,0,-35,-24,-59c0,0,-25,-24,-58,-24Z" 
id="f3_49"
transform="scale(0.001,-0.001)" />

<path d="M197,0V27c0,0,71,2,92,13c0,0,21,10,29,29c0,0,9,18,9,109V725c0,0,0,110,-8,141c0,0,-5,24,-19,35c0,0,-14,11,-33,11c0,0,-28,0,-77,-23l-11,23l246,121h25V178c0,0,0,-85,7,-106c0,0,7,-21,29,-32c0,0,23,-11,91,-13V0Z" 
id="f0_l"
transform="scale(0.001,-0.001)" />

<path d="M391,28c0,0,88,0,144,63c0,0,57,63,57,182c0,0,0,171,-150,298c0,0,-31,1,-47,1c0,0,-134,0,-198,-60c0,0,-65,-59,-65,-168c0,0,0,-143,77,-229c0,0,77,-87,182,-87Zm-4,-49c0,0,-163,0,-275,110C112,89,0,200,0,357c0,0,0,95,47,171c0,0,47,77,119,116c0,0,72,39,221,39H832V571H498c0,0,113,-63,171,-139c0,0,58,-76,58,-176c0,0,0,-114,-93,-196c0,0,-92,-81,-247,-81Z" 
id="f2_2f"
transform="scale(0.001,-0.001)" />

<path d="M153,-17c0,0,-35,0,-59,23C94,6,69,30,69,66c0,0,0,56,39,172l77,230c0,0,28,83,28,103c0,0,0,9,-8,15c0,0,-7,7,-16,7c0,0,-18,0,-37,-12c0,0,-18,-11,-84,-82L45,515c0,0,61,87,128,128c0,0,52,32,96,32c0,0,30,0,48,-21c0,0,19,-20,19,-53c0,0,0,-40,-34,-142L221,220c0,0,-34,-97,-34,-123c0,0,0,-14,10,-23c0,0,10,-8,26,-8c0,0,26,0,67,24c0,0,41,25,109,110c0,0,69,85,114,159c0,0,44,75,92,237l18,61H735L601,207c0,0,-30,-101,-30,-127c0,0,0,-13,3,-19c0,0,4,-6,10,-6c0,0,10,0,22,11c0,0,12,11,59,91l22,-17C687,140,636,49,581,9c0,0,-35,-26,-69,-26c0,0,-25,0,-40,17c0,0,-15,15,-15,41c0,0,0,25,9,67c0,0,12,52,70,237C536,345,405,137,316,60c0,0,-88,-77,-163,-77Z" 
id="f1_2h"
transform="scale(0.001,-0.001)" />

<path d="M251,69c0,0,93,0,201,118c0,0,131,157,126,322c0,0,0,62,-26,90c0,0,-27,28,-74,28c0,0,-52,0,-110,-44c0,0,-83,-62,-148,-185c0,0,-64,-122,-64,-221c0,0,0,-50,28,-79c0,0,29,-29,67,-29ZM183,-17c0,0,-60,0,-103,44C80,27,36,71,36,149c0,0,0,117,77,247c0,0,77,130,195,208c0,0,92,62,174,62c0,0,49,0,82,-22c0,0,32,-22,49,-73l24,77l115,18L609,160L593,92c0,0,-2,-10,-2,-17c0,0,0,-10,5,-19c0,0,4,-6,11,-6c0,0,6,0,17,11c0,0,21,20,55,88l25,-18c0,0,-43,-75,-89,-112c0,0,-45,-36,-84,-36c0,0,-27,0,-42,16c0,0,-15,15,-15,46c0,0,0,36,17,96l16,55C507,196,399,69,309,19c0,0,-64,-36,-126,-36Z" 
id="f1_1x"
transform="scale(0.001,-0.001)" />

<path d="M133,-17c0,0,-31,0,-50,20C83,3,63,23,63,55c0,0,0,40,25,123L228,609H104l8,30c0,0,82,23,139,67c0,0,57,44,128,154h33L351,657H456L443,609H337L203,171c0,0,-25,-75,-25,-97c0,0,0,-12,5,-19c0,0,5,-6,13,-6c0,0,16,0,44,25c0,0,15,15,71,92l24,-19C335,147,270,48,213,9c0,0,-40,-26,-80,-26Z" 
id="f1_2g"
transform="scale(0.001,-0.001)" />

<path d="M355,0V355H0v72H355V784h72V427H782V355H427V0Z" 
id="f3_f"
transform="scale(0.001,-0.001)" />

<path d="M-36,0l10,26c0,0,57,2,76,11c0,0,30,13,44,34c0,0,20,31,48,127L315,809c0,0,22,74,22,116c0,0,0,20,-10,33c0,0,-10,14,-29,21c0,0,-19,7,-75,7l9,26h789L947,757H919c0,0,8,46,8,76c0,0,0,49,-27,78c0,0,-28,29,-70,41c0,0,-30,7,-133,7H489L375,556H511c0,0,90,0,134,28c0,0,44,28,91,118h29L659,334H629c0,0,11,45,11,74c0,0,0,46,-30,71c0,0,-30,25,-112,25H360L270,185c0,0,-24,-76,-24,-100c0,0,0,-26,20,-40c0,0,21,-14,101,-19L358,0Z" 
id="f1_16"
transform="scale(0.001,-0.001)" />

<path d="M839,-17c0,0,-25,0,-42,17c0,0,-17,18,-17,44c0,0,0,36,35,144l78,239c0,0,26,83,28,92c0,0,3,14,3,27c0,0,0,19,-9,29c0,0,-10,11,-22,11c0,0,-34,0,-71,-32c0,0,-111,-95,-208,-266C614,288,551,176,495,0H382L517,451c0,0,22,73,22,97c0,0,0,20,-8,30c0,0,-9,10,-21,10c0,0,-25,0,-53,-18c0,0,-46,-29,-118,-125c0,0,-72,-95,-112,-182c0,0,-19,-41,-91,-263H26L165,483l17,63c0,0,6,14,6,21c0,0,0,17,-15,30c0,0,-15,13,-38,13c0,0,-10,0,-54,-9l-7,27l256,47L234,338c0,0,67,119,113,178c0,0,73,93,141,135c0,0,41,24,85,24c0,0,38,0,63,-25c0,0,25,-24,25,-62c0,0,0,-36,-18,-95L587,305c0,0,129,227,244,319c0,0,64,51,126,51c0,0,36,0,60,-26c0,0,23,-25,23,-78c0,0,0,-43,-15,-91L933,192c0,0,-31,-94,-31,-104c0,0,0,-10,6,-17c0,0,4,-5,11,-5c0,0,7,0,23,13c0,0,38,33,71,87l24,-16c0,0,-17,-30,-62,-81C975,69,929,18,898,0c0,0,-32,-17,-59,-17Z" 
id="f1_29"
transform="scale(0.001,-0.001)" />

<path d="M187,318c0,0,111,12,181,43c0,0,92,41,138,98c0,0,46,57,46,108c0,0,0,32,-20,51c0,0,-20,20,-56,20c0,0,-77,0,-163,-81c0,0,-85,-81,-126,-239ZM268,-17c0,0,-110,0,-165,68c0,0,-55,69,-55,151c0,0,0,111,69,228c0,0,68,116,172,180c0,0,104,65,213,65c0,0,79,0,118,-32c0,0,38,-32,38,-76c0,0,0,-62,-50,-119c0,0,-65,-73,-191,-119c0,0,-84,-30,-235,-47c0,0,-5,-38,-5,-62c0,0,0,-67,47,-114c0,0,47,-46,114,-46c0,0,54,0,104,22c0,0,50,22,148,97l15,-21C605,158,428,-17,268,-17Z" 
id="f1_21"
transform="scale(0.001,-0.001)" />

<path d="M0,356v74H784V356Z" 
id="f3_h"
transform="scale(0.001,-0.001)" />

<path d="M252,70c0,0,90,0,212,168c0,0,123,168,123,294c0,0,0,47,-30,76c0,0,-30,30,-77,30c0,0,-103,0,-214,-156C266,482,155,327,155,185c0,0,0,-56,28,-85c0,0,29,-30,69,-30ZM185,-17c0,0,-63,0,-109,50C76,33,29,83,29,169c0,0,0,111,77,237c0,0,77,126,203,205c0,0,99,64,182,64c0,0,44,0,75,-17c0,0,32,-16,62,-54l71,247c0,0,11,40,18,64c0,0,9,31,9,50c0,0,0,16,-11,27c0,0,-16,13,-40,13c0,0,-17,0,-57,-6v27l255,42L615,170c0,0,-21,-73,-21,-95c0,0,0,-7,4,-13c0,0,4,-6,8,-6c0,0,7,0,16,9c0,0,16,16,56,88l25,-16c0,0,-43,-73,-88,-114c0,0,-44,-40,-83,-40c0,0,-20,0,-35,17c0,0,-16,18,-16,51c0,0,0,42,22,114l29,94C532,259,413,91,315,27c0,0,-68,-44,-130,-44Z" 
id="f1_20"
transform="scale(0.001,-0.001)" />

<path d="M371,-21c0,0,-59,0,-98,52c0,0,-40,53,-40,190c0,0,0,108,27,353H190c0,0,-61,0,-95,-22c0,0,-34,-22,-68,-84H0c0,0,53,144,96,180c0,0,42,35,121,35H574V574H341c0,0,-25,-245,-25,-336c0,0,0,-72,27,-105c0,0,28,-32,69,-32c0,0,30,0,52,20c0,0,23,21,33,72h27C524,193,511,71,469,24c0,0,-42,-45,-98,-45Z" 
id="f2_2g"
transform="scale(0.001,-0.001)" />

<path d="M504,-17c0,0,-27,0,-42,17c0,0,-16,16,-16,44c0,0,0,36,29,123l98,300c0,0,18,56,18,87c0,0,0,15,-10,24c0,0,-11,10,-26,10c0,0,-23,0,-54,-18c0,0,-60,-34,-124,-111c0,0,-65,-77,-137,-197c0,0,-38,-63,-63,-139L141,0H29L163,467c0,0,24,85,24,102c0,0,0,16,-13,28c0,0,-13,13,-32,13c0,0,-9,0,-30,-3L84,602l-7,27l257,46L238,340c0,0,149,205,228,270c0,0,79,65,152,65c0,0,40,0,66,-27c0,0,26,-27,26,-70c0,0,0,-44,-25,-118L584,149c0,0,-17,-54,-17,-66c0,0,0,-10,5,-17c0,0,5,-7,11,-7c0,0,8,0,20,9c0,0,35,31,77,95l23,-14C703,149,637,51,578,10c0,0,-42,-27,-74,-27Z" 
id="f1_2a"
transform="scale(0.001,-0.001)" />

<path d="M719,62L422,783L93,62ZM0,0L469,1034L896,0Z" 
id="f3_14"
transform="scale(0.001,-0.001)" />

<path d="M2,-20L369,1061h59L62,-20Z" 
id="f0_j"
transform="scale(0.001,-0.001)" />

<path d="M145,-17c0,0,-29,0,-48,18C97,1,79,19,79,46c0,0,0,28,20,93L201,475c0,0,24,82,24,103c0,0,0,17,-11,27c0,0,-12,10,-32,10c0,0,-16,0,-68,-8v30l260,42L218,149c0,0,-16,-53,-16,-64c0,0,0,-11,6,-19c0,0,7,-7,15,-7c0,0,11,0,25,12c0,0,39,33,78,95l26,-17C352,149,304,72,238,20c0,0,-49,-37,-93,-37ZM342,825c0,0,-31,0,-53,22c0,0,-22,22,-22,53c0,0,0,31,22,53c0,0,21,22,53,22c0,0,31,0,53,-22c0,0,22,-22,22,-53c0,0,0,-31,-23,-53c0,0,-22,-22,-52,-22Z" 
id="f1_25"
transform="scale(0.001,-0.001)" />

<path d="M33,0V27c0,0,264,241,371,393c0,0,108,152,108,278c0,0,0,96,-59,158c0,0,-59,62,-141,62c0,0,-75,0,-134,-43c0,0,-59,-44,-88,-128H63c0,0,18,138,95,212c0,0,77,74,193,74c0,0,123,0,205,-80c0,0,83,-79,83,-186c0,0,0,-77,-36,-154c0,0,-55,-121,-179,-256C424,357,238,154,191,112H455c0,0,81,0,114,6c0,0,32,6,58,25c0,0,27,18,46,52h27L630,0Z" 
id="f0_m"
transform="scale(0.001,-0.001)" />

<path d="M225,0c0,0,2,129,51,312c0,0,48,183,139,352c0,0,91,170,193,286H72v129H780V975C780,975,676,864,573,680C573,680,470,495,414,301C414,301,374,163,363,0Z" 
id="f5_r"
transform="scale(0.001,-0.001)" />


</defs>
</svg>