<?xml version="1.0" encoding="UTF-8" standalone="no"?>
<!DOCTYPE svg PUBLIC "-//W3C//DTD SVG 1.1//EN"
"http://www.w3.org/Graphics/SVG/1.1/DTD/svg11.dtd">
<svg viewBox="0 0 909 1286" version="1.1" xmlns="http://www.w3.org/2000/svg" xmlns:xlink="http://www.w3.org/1999/xlink">
<defs>
<clipPath id="c0_16"><path d="M119.2,171.4V145H125v26.4Z" /></clipPath>
<clipPath id="c1_16"><path d="M140.4,171.4V145h5.2v26.4Z" /></clipPath>
<style type="text/css"><![CDATA[
.g0_16{
fill: none;
stroke: #000000;
stroke-width: 0.90444446;
stroke-linecap: round;
stroke-linejoin: round;
}
.g1_16{
fill: none;
stroke: #000000;
stroke-width: 0.90138894;
stroke-linecap: round;
stroke-linejoin: round;
}
.g2_16{
fill: none;
stroke: #000000;
stroke-width: 0.9029167;
stroke-linecap: round;
stroke-linejoin: round;
}
]]></style>
</defs>
<g fill="#000000" >
<use xlink:href="#f0_m" transform="matrix(12,0,0,12,64.9,109)" />
<use xlink:href="#f0_l" transform="matrix(12,0,0,12,74.1,109)" />
<use xlink:href="#f0_i" transform="matrix(12,0,0,12,83.2,109)" />
<use xlink:href="#f0_14" transform="matrix(12,0,0,12,117,109)" />
<use xlink:href="#f0_2e" transform="matrix(12,0,0,12,129.8,109)" />
<use xlink:href="#f0_1x" transform="matrix(12,0,0,12,135.7,109)" />
<use xlink:href="#f0_2j" transform="matrix(12,0,0,12,143.4,109)" />
<use xlink:href="#f0_2g" transform="matrix(12,0,0,12,159.6,109)" />
<use xlink:href="#f0_24" transform="matrix(12,0,0,12,165.1,109)" />
<use xlink:href="#f0_21" transform="matrix(12,0,0,12,173.5,109)" />
<use xlink:href="#f0_2g" transform="matrix(12,0,0,12,184.2,109)" />
<use xlink:href="#f0_2l" transform="matrix(12,0,0,12,189.3,109)" />
<use xlink:href="#f0_2c" transform="matrix(12,0,0,12,197.4,109)" />
<use xlink:href="#f0_25" transform="matrix(12,0,0,12,206.2,109)" />
<use xlink:href="#f0_1z" transform="matrix(12,0,0,12,210.3,109)" />
<use xlink:href="#f0_1x" transform="matrix(12,0,0,12,218,109)" />
<use xlink:href="#f0_28" transform="matrix(12,0,0,12,225.7,109)" />
<use xlink:href="#f0_25" transform="matrix(12,0,0,12,233.1,109)" />
<use xlink:href="#f0_2a" transform="matrix(12,0,0,12,237.5,109)" />
<use xlink:href="#f0_2c" transform="matrix(12,0,0,12,246,109)" />
<use xlink:href="#f0_2h" transform="matrix(12,0,0,12,254.8,109)" />
<use xlink:href="#f0_2g" transform="matrix(12,0,0,12,263.6,109)" />
<use xlink:href="#f0_1x" transform="matrix(12,0,0,12,272,109)" />
<use xlink:href="#f0_2a" transform="matrix(12,0,0,12,279.8,109)" />
<use xlink:href="#f0_20" transform="matrix(12,0,0,12,288.2,109)" />
<use xlink:href="#f0_2b" transform="matrix(12,0,0,12,300.3,109)" />
<use xlink:href="#f0_2h" transform="matrix(12,0,0,12,309.5,109)" />
<use xlink:href="#f0_2g" transform="matrix(12,0,0,12,318.3,109)" />
<use xlink:href="#f0_2c" transform="matrix(12,0,0,12,323.8,109)" />
<use xlink:href="#f0_2h" transform="matrix(12,0,0,12,332.6,109)" />
<use xlink:href="#f0_2g" transform="matrix(12,0,0,12,341.4,109)" />
<use xlink:href="#f0_1z" transform="matrix(12,0,0,12,349.5,109)" />
<use xlink:href="#f0_24" transform="matrix(12,0,0,12,357.2,109)" />
<use xlink:href="#f0_1x" transform="matrix(12,0,0,12,365.7,109)" />
<use xlink:href="#f0_2e" transform="matrix(12,0,0,12,373.4,109)" />
<use xlink:href="#f0_1x" transform="matrix(12,0,0,12,379.3,109)" />
<use xlink:href="#f0_2g" transform="matrix(12,0,0,12,387,109)" />
<use xlink:href="#f0_21" transform="matrix(12,0,0,12,392.1,109)" />
<use xlink:href="#f0_2e" transform="matrix(12,0,0,12,399.9,109)" />
<use xlink:href="#f0_25" transform="matrix(12,0,0,12,406.1,109)" />
<use xlink:href="#f0_2f" transform="matrix(12,0,0,12,410.1,109)" />
<use xlink:href="#f0_2g" transform="matrix(12,0,0,12,416.8,109)" />
<use xlink:href="#f0_25" transform="matrix(12,0,0,12,421.9,109)" />
<use xlink:href="#f0_1z" transform="matrix(12,0,0,12,425.9,109)" />
<use xlink:href="#f0_2f" transform="matrix(12,0,0,12,433.7,109)" />
<use xlink:href="#f0_2b" transform="matrix(12,0,0,12,443.6,109)" />
<use xlink:href="#f0_22" transform="matrix(12,0,0,12,452.8,109)" />
<use xlink:href="#f0_1x" transform="matrix(12,0,0,12,461.2,109)" />
<use xlink:href="#f0_2a" transform="matrix(12,0,0,12,469,109)" />
<use xlink:href="#f0_2a" transform="matrix(12,0,0,12,481.1,109)" />
<use xlink:href="#f0_h" transform="matrix(12,0,0,12,489.5,109)" />
<use xlink:href="#f0_2c" transform="matrix(12,0,0,12,495.4,109)" />
<use xlink:href="#f0_h" transform="matrix(12,0,0,12,504.2,109)" />
<use xlink:href="#f0_2a" transform="matrix(12,0,0,12,510.1,109)" />
<use xlink:href="#f0_2g" transform="matrix(12,0,0,12,521.5,109)" />
<use xlink:href="#f0_2e" transform="matrix(12,0,0,12,526.7,109)" />
<use xlink:href="#f0_1x" transform="matrix(12,0,0,12,532.5,109)" />
<use xlink:href="#f0_2a" transform="matrix(12,0,0,12,540.3,109)" />
<use xlink:href="#f0_2f" transform="matrix(12,0,0,12,549.1,109)" />
<use xlink:href="#f0_25" transform="matrix(12,0,0,12,555.7,109)" />
<use xlink:href="#f0_2f" transform="matrix(12,0,0,12,559.7,109)" />
<use xlink:href="#f0_2g" transform="matrix(12,0,0,12,566.4,109)" />
<use xlink:href="#f0_2b" transform="matrix(12,0,0,12,571.5,109)" />
<use xlink:href="#f0_2e" transform="matrix(12,0,0,12,580.7,109)" />
<use xlink:href="#f0_25" transform="matrix(12,0,0,12,589.9,109)" />
<use xlink:href="#f0_2a" transform="matrix(12,0,0,12,593.9,109)" />
<use xlink:href="#f0_13" transform="matrix(12,0,0,12,605.7,109)" />
<use xlink:href="#f0_15" transform="matrix(12,0,0,12,617.4,109)" />
<use xlink:href="#f0_1z" transform="matrix(12,0,0,12,632.1,109)" />
<use xlink:href="#f0_2b" transform="matrix(12,0,0,12,639.8,109)" />
<use xlink:href="#f0_2a" transform="matrix(12,0,0,12,649,109)" />
<use xlink:href="#f0_22" transform="matrix(12,0,0,12,657.4,109)" />
<use xlink:href="#f0_25" transform="matrix(12,0,0,12,662.6,109)" />
<use xlink:href="#f0_23" transform="matrix(12,0,0,12,666.6,109)" />
<use xlink:href="#f0_2h" transform="matrix(12,0,0,12,675.5,109)" />
<use xlink:href="#f0_2e" transform="matrix(12,0,0,12,684.3,109)" />
<use xlink:href="#f0_1x" transform="matrix(12,0,0,12,690.2,109)" />
<use xlink:href="#f0_2g" transform="matrix(12,0,0,12,697.9,109)" />
<use xlink:href="#f0_25" transform="matrix(12,0,0,12,703,109)" />
<use xlink:href="#f0_2b" transform="matrix(12,0,0,12,707.4,109)" />
<use xlink:href="#f0_2a" transform="matrix(12,0,0,12,716.6,109)" />
<use xlink:href="#f0_i" transform="matrix(12,0,0,12,725,109)" />
<use xlink:href="#f0_1j" transform="matrix(12,0,0,12,732.4,109)" />
<use xlink:href="#f0_24" transform="matrix(12,0,0,12,742.3,109)" />
<use xlink:href="#f0_2b" transform="matrix(12,0,0,12,750.8,109)" />
<use xlink:href="#f0_2j" transform="matrix(12,0,0,12,759.9,109)" />
<use xlink:href="#f0_24" transform="matrix(12,0,0,12,776.1,109)" />
<use xlink:href="#f0_2b" transform="matrix(12,0,0,12,784.6,109)" />
<use xlink:href="#f0_2j" transform="matrix(12,0,0,12,792.4,109)" />
<use xlink:href="#f0_2g" transform="matrix(12,0,0,12,808.9,109)" />
<use xlink:href="#f0_24" transform="matrix(12,0,0,12,814,109)" />
<use xlink:href="#f0_21" transform="matrix(12,0,0,12,822.5,109)" />
<use xlink:href="#f0_2f" transform="matrix(12,0,0,12,830.2,109)" />
<use xlink:href="#f0_21" transform="matrix(12,0,0,12,836.8,109)" />
<use xlink:href="#f0_1z" transform="matrix(12,0,0,12,117,133.6)" />
<use xlink:href="#f0_24" transform="matrix(12,0,0,12,125,133.6)" />
<use xlink:href="#f0_1x" transform="matrix(12,0,0,12,133.9,133.6)" />
<use xlink:href="#f0_2e" transform="matrix(12,0,0,12,141.9,133.6)" />
<use xlink:href="#f0_1x" transform="matrix(12,0,0,12,147.8,133.6)" />
<use xlink:href="#f0_1z" transform="matrix(12,0,0,12,155.9,133.6)" />
<use xlink:href="#f0_2g" transform="matrix(12,0,0,12,164,133.6)" />
<use xlink:href="#f0_21" transform="matrix(12,0,0,12,169.5,133.6)" />
<use xlink:href="#f0_2e" transform="matrix(12,0,0,12,177.6,133.6)" />
<use xlink:href="#f0_25" transform="matrix(12,0,0,12,183.8,133.6)" />
<use xlink:href="#f0_2f" transform="matrix(12,0,0,12,188.2,133.6)" />
<use xlink:href="#f0_2g" transform="matrix(12,0,0,12,194.8,133.6)" />
<use xlink:href="#f0_25" transform="matrix(12,0,0,12,200.3,133.6)" />
<use xlink:href="#f0_1z" transform="matrix(12,0,0,12,204.8,133.6)" />
<use xlink:href="#f0_2f" transform="matrix(12,0,0,12,212.8,133.6)" />
<use xlink:href="#f0_1z" transform="matrix(12,0,0,12,223.5,133.6)" />
<use xlink:href="#f0_1x" transform="matrix(12,0,0,12,231.2,133.6)" />
<use xlink:href="#f0_2a" transform="matrix(12,0,0,12,239.3,133.6)" />
<use xlink:href="#f0_1y" transform="matrix(12,0,0,12,251.8,133.6)" />
<use xlink:href="#f0_21" transform="matrix(12,0,0,12,260.6,133.6)" />
<use xlink:href="#f0_2h" transform="matrix(12,0,0,12,272,133.6)" />
<use xlink:href="#f0_2f" transform="matrix(12,0,0,12,280.9,133.6)" />
<use xlink:href="#f0_21" transform="matrix(12,0,0,12,287.8,133.6)" />
<use xlink:href="#f0_20" transform="matrix(12,0,0,12,295.9,133.6)" />
<use xlink:href="#f0_2g" transform="matrix(12,0,0,12,308.8,133.6)" />
<use xlink:href="#f0_2b" transform="matrix(12,0,0,12,314.3,133.6)" />
<use xlink:href="#f0_20" transform="matrix(12,0,0,12,327.1,133.6)" />
<use xlink:href="#f0_21" transform="matrix(12,0,0,12,336.3,133.6)" />
<use xlink:href="#f0_2g" transform="matrix(12,0,0,12,344.4,133.6)" />
<use xlink:href="#f0_21" transform="matrix(12,0,0,12,349.9,133.6)" />
<use xlink:href="#f0_2e" transform="matrix(12,0,0,12,357.9,133.6)" />
<use xlink:href="#f0_29" transform="matrix(12,0,0,12,364.2,133.6)" />
<use xlink:href="#f0_25" transform="matrix(12,0,0,12,377.4,133.6)" />
<use xlink:href="#f0_2a" transform="matrix(12,0,0,12,381.8,133.6)" />
<use xlink:href="#f0_21" transform="matrix(12,0,0,12,390.6,133.6)" />
<use xlink:href="#f0_c" transform="matrix(12,0,0,12,402.4,133.6)" />
<use xlink:href="#f0_1x" transform="matrix(12,0,0,12,408.6,133.6)" />
<use xlink:href="#f0_d" transform="matrix(12,0,0,12,416.7,133.6)" />
<use xlink:href="#f0_2g" transform="matrix(12,0,0,12,426.3,133.6)" />
<use xlink:href="#f0_24" transform="matrix(12,0,0,12,431.8,133.6)" />
<use xlink:href="#f0_21" transform="matrix(12,0,0,12,440.6,133.6)" />
<use xlink:href="#f0_25" transform="matrix(12,0,0,12,452,133.6)" />
<use xlink:href="#f0_2a" transform="matrix(12,0,0,12,456.4,133.6)" />
<use xlink:href="#f0_2c" transform="matrix(12,0,0,12,464.9,133.6)" />
<use xlink:href="#f0_2h" transform="matrix(12,0,0,12,474,133.6)" />
<use xlink:href="#f0_2g" transform="matrix(12,0,0,12,483.2,133.6)" />
<use xlink:href="#f0_2e" transform="matrix(12,0,0,12,492.4,133.6)" />
<use xlink:href="#f0_21" transform="matrix(12,0,0,12,498.6,133.6)" />
<use xlink:href="#f0_2f" transform="matrix(12,0,0,12,506.3,133.6)" />
<use xlink:href="#f0_25" transform="matrix(12,0,0,12,513.3,133.6)" />
<use xlink:href="#f0_2f" transform="matrix(12,0,0,12,517.7,133.6)" />
<use xlink:href="#f0_2g" transform="matrix(12,0,0,12,524.7,133.6)" />
<use xlink:href="#f0_1x" transform="matrix(12,0,0,12,530.2,133.6)" />
<use xlink:href="#f0_2a" transform="matrix(12,0,0,12,538.3,133.6)" />
<use xlink:href="#f0_1z" transform="matrix(12,0,0,12,547.1,133.6)" />
<use xlink:href="#f0_21" transform="matrix(12,0,0,12,554.8,133.6)" />
<use xlink:href="#f0_c" transform="matrix(12,0,0,12,566.6,133.6)" />
<use xlink:href="#f1_2e" transform="matrix(12,0,0,12,572,133.6)" />
<use xlink:href="#f1_25" transform="matrix(7,0,0,7,579,139.8)" />
<use xlink:href="#f0_d" transform="matrix(12,0,0,12,581.9,133.6)" />
<use xlink:href="#f0_g" transform="matrix(12,0,0,12,588.1,133.6)" />
<use xlink:href="#f0_1x" transform="matrix(12,0,0,12,596.6,133.6)" />
<use xlink:href="#f0_2a" transform="matrix(12,0,0,12,604.3,133.6)" />
<use xlink:href="#f0_20" transform="matrix(12,0,0,12,613.1,133.6)" />
<use xlink:href="#f0_c" transform="matrix(12,0,0,12,626,133.6)" />
<use xlink:href="#f0_1y" transform="matrix(12,0,0,12,632.2,133.6)" />
<use xlink:href="#f0_d" transform="matrix(12,0,0,12,641,133.6)" />
<use xlink:href="#f0_1z" transform="matrix(12,0,0,12,650.2,133.6)" />
<use xlink:href="#f0_2h" transform="matrix(12,0,0,12,658.3,133.6)" />
<use xlink:href="#f0_2e" transform="matrix(12,0,0,12,667.5,133.6)" />
<use xlink:href="#f0_2e" transform="matrix(12,0,0,12,673.7,133.6)" />
<use xlink:href="#f0_21" transform="matrix(12,0,0,12,679.9,133.6)" />
<use xlink:href="#f0_2a" transform="matrix(12,0,0,12,687.6,133.6)" />
<use xlink:href="#f0_2g" transform="matrix(12,0,0,12,696.5,133.6)" />
<use xlink:href="#f0_1x" transform="matrix(12,0,0,12,705.6,133.6)" />
<use xlink:href="#f0_29" transform="matrix(12,0,0,12,713.7,133.6)" />
<use xlink:href="#f0_2c" transform="matrix(12,0,0,12,727.3,133.6)" />
<use xlink:href="#f0_28" transform="matrix(12,0,0,12,736.5,133.6)" />
<use xlink:href="#f0_25" transform="matrix(12,0,0,12,740.5,133.6)" />
<use xlink:href="#f0_22" transform="matrix(12,0,0,12,744.9,133.6)" />
<use xlink:href="#f0_25" transform="matrix(12,0,0,12,750.5,133.6)" />
<use xlink:href="#f0_1z" transform="matrix(12,0,0,12,754.9,133.6)" />
<use xlink:href="#f0_1x" transform="matrix(12,0,0,12,763,133.6)" />
<use xlink:href="#f0_2g" transform="matrix(12,0,0,12,771,133.6)" />
<use xlink:href="#f0_25" transform="matrix(12,0,0,12,776.2,133.6)" />
<use xlink:href="#f0_2b" transform="matrix(12,0,0,12,780.6,133.6)" />
<use xlink:href="#f0_2a" transform="matrix(12,0,0,12,790.1,133.6)" />
<use xlink:href="#f0_22" transform="matrix(12,0,0,12,802.6,133.6)" />
<use xlink:href="#f0_1x" transform="matrix(12,0,0,12,808.1,133.6)" />
<use xlink:href="#f0_1z" transform="matrix(12,0,0,12,815.9,133.6)" />
<use xlink:href="#f0_2g" transform="matrix(12,0,0,12,823.9,133.6)" />
<use xlink:href="#f0_2b" transform="matrix(12,0,0,12,829.4,133.6)" />
<use xlink:href="#f0_2e" transform="matrix(12,0,0,12,839,133.6)" />
</g>
<g clip-path="url(#c0_16)">
<g fill="#000000" >
<use xlink:href="#f2_c" transform="matrix(11.8,0,0,15.8,119.2,166.2)" />
</g>
</g>
<g clip-path="url(#c1_16)">
<g fill="#000000" >
<use xlink:href="#f2_d" transform="matrix(11.8,0,0,15.8,140.4,166.2)" />
</g>
</g>
<g fill="#000000" >
<use xlink:href="#f3_1y" transform="matrix(12.1,0,-3.2,12.1,126.9,165.1)" />
<use xlink:href="#f0_i" transform="matrix(12,0,0,12,148.9,165.5)" />
<use xlink:href="#f0_11" transform="matrix(12,0,0,12,64.9,199.6)" />
<use xlink:href="#f0_2a" transform="matrix(12,0,0,12,77.4,199.6)" />
<use xlink:href="#f0_2f" transform="matrix(12,0,0,12,85.8,199.6)" />
<use xlink:href="#f0_i" transform="matrix(12,0,0,12,92.4,199.6)" />
</g>
<image preserveAspectRatio="none" x="117" y="222" width="304" height="270" xlink:href="img/1.png" />
<image preserveAspectRatio="none" x="448" y="211" width="372" height="286" xlink:href="img/2.png" />
<path d="M162.9,540.5h39.4" class="g0_16" />
<g fill="#000000" >
<use xlink:href="#f1_13" transform="matrix(5,0,0,5,217.4,568.8)" />
<use xlink:href="#f1_15" transform="matrix(5,0,0,5,222.6,568.8)" />
<use xlink:href="#f1_12" transform="matrix(6.9,0,0,6.9,186.3,538)" />
<use xlink:href="#f1_15" transform="matrix(6.9,0,0,6.9,192.5,538)" />
<use xlink:href="#f1_25" transform="matrix(6.9,0,0,6.9,129.8,549.8)" />
<use xlink:href="#f1_12" transform="matrix(6.9,0,0,6.9,187.7,564.1)" />
<use xlink:href="#f1_1m" transform="matrix(6.9,0,0,6.9,211.6,566.3)" />
<use xlink:href="#f1_1m" transform="matrix(11.9,0,0,12,175.3,533.6)" />
<use xlink:href="#f1_2e" transform="matrix(11.9,0,0,12,125,545)" />
<use xlink:href="#f1_19" transform="matrix(11.9,0,0,12,180.4,559.3)" />
<use xlink:href="#f2_4o" transform="matrix(11.9,0,0,12,152.9,532.5)" />
<use xlink:href="#f2_54" transform="matrix(11.9,0,0,12,204.9,532.5)" />
<use xlink:href="#f2_14" transform="matrix(11.9,0,0,12,163.9,533.6)" />
<use xlink:href="#f2_x" transform="matrix(11.9,0,0,12,139.3,545)" />
<use xlink:href="#f2_4p" transform="matrix(11.9,0,0,12,152.9,549.4)" />
<use xlink:href="#f2_55" transform="matrix(11.9,0,0,12,204.9,549.4)" />
<use xlink:href="#f2_14" transform="matrix(11.9,0,0,12,169,559.3)" />
<use xlink:href="#f2_4q" transform="matrix(11.9,0,0,12,152.9,564.1)" />
<use xlink:href="#f2_56" transform="matrix(11.9,0,0,12,204.9,564.1)" />
</g>
<path d="M165.2,622.5h39.3" class="g1_16" />
<g fill="#000000" >
<use xlink:href="#f1_12" transform="matrix(5,0,0,5,219.3,650.6)" />
<use xlink:href="#f1_13" transform="matrix(6.9,0,0,6.9,187.7,620.2)" />
<use xlink:href="#f1_15" transform="matrix(6.9,0,0,6.9,194.7,620.2)" />
<use xlink:href="#f1_2b" transform="matrix(6.9,0,0,6.9,130.2,631.5)" />
<use xlink:href="#f1_13" transform="matrix(6.9,0,0,6.9,189.2,645.8)" />
<use xlink:href="#f1_19" transform="matrix(6.9,0,0,6.9,214.9,648)" />
<use xlink:href="#f1_1m" transform="matrix(11.9,0,0,11.9,177.5,615.4)" />
<use xlink:href="#f1_2e" transform="matrix(11.9,0,0,11.9,125,627.1)" />
<use xlink:href="#f1_19" transform="matrix(11.9,0,0,11.9,182.2,641.1)" />
<use xlink:href="#f2_4o" transform="matrix(11.9,0,0,11.9,155.5,614.3)" />
<use xlink:href="#f2_54" transform="matrix(11.9,0,0,11.9,207.1,614.3)" />
<use xlink:href="#f2_14" transform="matrix(11.9,0,0,11.9,166.5,615.4)" />
<use xlink:href="#f2_x" transform="matrix(11.9,0,0,11.9,141.5,627.1)" />
<use xlink:href="#f2_4p" transform="matrix(11.9,0,0,11.9,155.5,631.2)" />
<use xlink:href="#f2_55" transform="matrix(11.9,0,0,11.9,207.1,631.2)" />
<use xlink:href="#f2_14" transform="matrix(11.9,0,0,11.9,171.2,641.1)" />
<use xlink:href="#f2_4q" transform="matrix(11.9,0,0,11.9,155.5,645.8)" />
<use xlink:href="#f2_56" transform="matrix(11.9,0,0,11.9,207.1,645.8)" />
</g>
<path d="M176.1,704.3h29.6" class="g2_16" />
<g fill="#000000" >
<use xlink:href="#f1_13" transform="matrix(5,0,0,5,220.7,732.4)" />
<use xlink:href="#f1_15" transform="matrix(5,0,0,5,226.2,732.4)" />
<use xlink:href="#f1_13" transform="matrix(6.9,0,0,6.9,195.4,701.9)" />
<use xlink:href="#f1_1x" transform="matrix(6.9,0,0,6.9,136,713.3)" />
<use xlink:href="#f1_1z" transform="matrix(6.9,0,0,6.9,141.5,713.3)" />
<use xlink:href="#f1_12" transform="matrix(6.9,0,0,6.9,196.2,727.6)" />
<use xlink:href="#f1_1m" transform="matrix(6.9,0,0,6.9,214.9,729.8)" />
<use xlink:href="#f1_19" transform="matrix(11.9,0,0,11.9,188.5,697.2)" />
<use xlink:href="#f1_19" transform="matrix(11.9,0,0,11.9,188.8,722.8)" />
<use xlink:href="#f3_1y" transform="matrix(11.9,0,-3.2,11.9,125,708.9)" />
<use xlink:href="#f2_4o" transform="matrix(11.9,0,0,11.9,166.1,696.4)" />
<use xlink:href="#f2_54" transform="matrix(11.9,0,0,11.9,208.3,696.4)" />
<use xlink:href="#f2_14" transform="matrix(11.9,0,0,11.9,177.1,697.2)" />
<use xlink:href="#f2_x" transform="matrix(11.9,0,0,11.9,152.5,708.9)" />
<use xlink:href="#f2_4p" transform="matrix(11.9,0,0,11.9,166.1,712.9)" />
<use xlink:href="#f2_55" transform="matrix(11.9,0,0,11.9,208.3,712.9)" />
<use xlink:href="#f2_14" transform="matrix(11.9,0,0,11.9,177.5,722.8)" />
<use xlink:href="#f2_4q" transform="matrix(11.9,0,0,11.9,166.1,727.6)" />
<use xlink:href="#f2_56" transform="matrix(11.9,0,0,11.9,208.3,727.6)" />
<use xlink:href="#f0_m" transform="matrix(12,0,0,12,64.9,836.1)" />
<use xlink:href="#f0_m" transform="matrix(12,0,0,12,74.1,836.1)" />
<use xlink:href="#f0_i" transform="matrix(12,0,0,12,83.2,836.1)" />
<use xlink:href="#f0_c" transform="matrix(12,0,0,12,117,836.1)" />
<use xlink:href="#f0_1x" transform="matrix(12,0,0,12,122.5,836.1)" />
<use xlink:href="#f0_d" transform="matrix(12,0,0,12,130.2,836.1)" />
<use xlink:href="#f0_17" transform="matrix(12,0,0,12,155.8,836.1)" />
<use xlink:href="#f0_25" transform="matrix(12,0,0,12,168.7,836.1)" />
<use xlink:href="#f0_2i" transform="matrix(12,0,0,12,173.1,836.1)" />
<use xlink:href="#f0_21" transform="matrix(12,0,0,12,181.5,836.1)" />
<use xlink:href="#f0_2g" transform="matrix(12,0,0,12,192.6,836.1)" />
<use xlink:href="#f0_24" transform="matrix(12,0,0,12,198.1,836.1)" />
<use xlink:href="#f0_2e" transform="matrix(12,0,0,12,206.5,836.1)" />
<use xlink:href="#f0_21" transform="matrix(12,0,0,12,212.4,836.1)" />
<use xlink:href="#f0_21" transform="matrix(12,0,0,12,220.1,836.1)" />
<use xlink:href="#f0_2e" transform="matrix(12,0,0,12,231.5,836.1)" />
<use xlink:href="#f0_21" transform="matrix(12,0,0,12,237.4,836.1)" />
<use xlink:href="#f0_1x" transform="matrix(12,0,0,12,245.1,836.1)" />
<use xlink:href="#f0_2f" transform="matrix(12,0,0,12,253.2,836.1)" />
<use xlink:href="#f0_2b" transform="matrix(12,0,0,12,259.8,836.1)" />
<use xlink:href="#f0_2a" transform="matrix(12,0,0,12,269,836.1)" />
<use xlink:href="#f0_2f" transform="matrix(12,0,0,12,277.4,836.1)" />
<use xlink:href="#f0_2j" transform="matrix(12,0,0,12,287.4,836.1)" />
<use xlink:href="#f0_24" transform="matrix(12,0,0,12,300.2,836.1)" />
<use xlink:href="#f0_2l" transform="matrix(12,0,0,12,308.7,836.1)" />
<use xlink:href="#f0_29" transform="matrix(12,0,0,12,320.5,836.1)" />
<use xlink:href="#f0_2b" transform="matrix(12,0,0,12,333.7,836.1)" />
<use xlink:href="#f0_20" transform="matrix(12,0,0,12,342.8,836.1)" />
<use xlink:href="#f0_2h" transform="matrix(12,0,0,12,352,836.1)" />
<use xlink:href="#f0_28" transform="matrix(12,0,0,12,360.8,836.1)" />
<use xlink:href="#f0_1x" transform="matrix(12,0,0,12,364.9,836.1)" />
<use xlink:href="#f0_2g" transform="matrix(12,0,0,12,372.6,836.1)" />
<use xlink:href="#f0_25" transform="matrix(12,0,0,12,378.1,836.1)" />
<use xlink:href="#f0_2b" transform="matrix(12,0,0,12,382.1,836.1)" />
<use xlink:href="#f0_2a" transform="matrix(12,0,0,12,391.3,836.1)" />
<use xlink:href="#f0_2b" transform="matrix(12,0,0,12,403.4,836.1)" />
<use xlink:href="#f0_22" transform="matrix(12,0,0,12,412.6,836.1)" />
<use xlink:href="#f0_1x" transform="matrix(12,0,0,12,421.4,836.1)" />
<use xlink:href="#f0_29" transform="matrix(12,0,0,12,432.1,836.1)" />
<use xlink:href="#f0_21" transform="matrix(12,0,0,12,445.3,836.1)" />
<use xlink:href="#f0_2f" transform="matrix(12,0,0,12,453.4,836.1)" />
<use xlink:href="#f0_2f" transform="matrix(12,0,0,12,460,836.1)" />
<use xlink:href="#f0_1x" transform="matrix(12,0,0,12,466.6,836.1)" />
<use xlink:href="#f0_23" transform="matrix(12,0,0,12,474.3,836.1)" />
<use xlink:href="#f0_21" transform="matrix(12,0,0,12,483.5,836.1)" />
<use xlink:href="#f0_2f" transform="matrix(12,0,0,12,494.5,836.1)" />
<use xlink:href="#f0_25" transform="matrix(12,0,0,12,501.2,836.1)" />
<use xlink:href="#f0_23" transform="matrix(12,0,0,12,505.6,836.1)" />
<use xlink:href="#f0_2a" transform="matrix(12,0,0,12,514.4,836.1)" />
<use xlink:href="#f0_1x" transform="matrix(12,0,0,12,522.8,836.1)" />
<use xlink:href="#f0_28" transform="matrix(12,0,0,12,530.6,836.1)" />
<use xlink:href="#f0_25" transform="matrix(12,0,0,12,538.3,836.1)" />
<use xlink:href="#f0_2f" transform="matrix(12,0,0,12,542.4,836.1)" />
<use xlink:href="#f0_2a" transform="matrix(12,0,0,12,552.7,836.1)" />
<use xlink:href="#f0_21" transform="matrix(12,0,0,12,561.1,836.1)" />
<use xlink:href="#f0_1z" transform="matrix(12,0,0,12,568.8,836.1)" />
<use xlink:href="#f0_21" transform="matrix(12,0,0,12,576.5,836.1)" />
<use xlink:href="#f0_2f" transform="matrix(12,0,0,12,584.6,836.1)" />
<use xlink:href="#f0_2f" transform="matrix(12,0,0,12,591.2,836.1)" />
<use xlink:href="#f0_1x" transform="matrix(12,0,0,12,597.9,836.1)" />
<use xlink:href="#f0_2e" transform="matrix(12,0,0,12,605.6,836.1)" />
<use xlink:href="#f0_2l" transform="matrix(12,0,0,12,611.8,836.1)" />
<use xlink:href="#f0_22" transform="matrix(12,0,0,12,623.2,836.1)" />
<use xlink:href="#f0_2b" transform="matrix(12,0,0,12,628.7,836.1)" />
<use xlink:href="#f0_2e" transform="matrix(12,0,0,12,637.9,836.1)" />
<use xlink:href="#f0_28" transform="matrix(12,0,0,12,646.7,836.1)" />
<use xlink:href="#f0_2b" transform="matrix(12,0,0,12,651.1,836.1)" />
<use xlink:href="#f0_2a" transform="matrix(12,0,0,12,660.3,836.1)" />
<use xlink:href="#f0_23" transform="matrix(12,0,0,12,668.8,836.1)" />
<use xlink:href="#f0_20" transform="matrix(12,0,0,12,681.3,836.1)" />
<use xlink:href="#f0_25" transform="matrix(12,0,0,12,690.1,836.1)" />
<use xlink:href="#f0_2f" transform="matrix(12,0,0,12,694.1,836.1)" />
<use xlink:href="#f0_2g" transform="matrix(12,0,0,12,700.7,836.1)" />
<use xlink:href="#f0_1x" transform="matrix(12,0,0,12,706.2,836.1)" />
<use xlink:href="#f0_2a" transform="matrix(12,0,0,12,714,836.1)" />
<use xlink:href="#f0_1z" transform="matrix(12,0,0,12,722.4,836.1)" />
<use xlink:href="#f0_21" transform="matrix(12,0,0,12,730.1,836.1)" />
<use xlink:href="#f0_2g" transform="matrix(12,0,0,12,741.5,836.1)" />
<use xlink:href="#f0_2e" transform="matrix(12,0,0,12,746.7,836.1)" />
<use xlink:href="#f0_1x" transform="matrix(12,0,0,12,752.5,836.1)" />
<use xlink:href="#f0_2a" transform="matrix(12,0,0,12,760.6,836.1)" />
<use xlink:href="#f0_2f" transform="matrix(12,0,0,12,769.1,836.1)" />
<use xlink:href="#f0_29" transform="matrix(12,0,0,12,775.7,836.1)" />
<use xlink:href="#f0_25" transform="matrix(12,0,0,12,788.9,836.1)" />
<use xlink:href="#f0_2f" transform="matrix(12,0,0,12,793.3,836.1)" />
<use xlink:href="#f0_2f" transform="matrix(12,0,0,12,799.9,836.1)" />
<use xlink:href="#f0_25" transform="matrix(12,0,0,12,806.6,836.1)" />
<use xlink:href="#f0_2b" transform="matrix(12,0,0,12,810.6,836.1)" />
<use xlink:href="#f0_2a" transform="matrix(12,0,0,12,820.1,836.1)" />
<use xlink:href="#f0_i" transform="matrix(12,0,0,12,828.6,836.1)" />
<use xlink:href="#f0_11" transform="matrix(12,0,0,12,64.9,860.7)" />
<use xlink:href="#f0_2a" transform="matrix(12,0,0,12,77.4,860.7)" />
<use xlink:href="#f0_2f" transform="matrix(12,0,0,12,85.8,860.7)" />
<use xlink:href="#f0_i" transform="matrix(12,0,0,12,92.4,860.7)" />
<use xlink:href="#f0_c" transform="matrix(12,0,0,12,117,860.7)" />
<use xlink:href="#f0_25" transform="matrix(12,0,0,12,122.1,860.7)" />
<use xlink:href="#f0_d" transform="matrix(12,0,0,12,125.8,860.7)" />
<use xlink:href="#f0_18" transform="matrix(12,0,0,12,155.8,860.7)" />
<use xlink:href="#f0_21" transform="matrix(12,0,0,12,168.7,860.7)" />
<use xlink:href="#f0_25" transform="matrix(12,0,0,12,176,860.7)" />
<use xlink:href="#f0_23" transform="matrix(12,0,0,12,180.1,860.7)" />
<use xlink:href="#f0_24" transform="matrix(12,0,0,12,188.9,860.7)" />
<use xlink:href="#f0_2g" transform="matrix(12,0,0,12,197.3,860.7)" />
<use xlink:href="#f0_2b" transform="matrix(12,0,0,12,205.5,860.7)" />
<use xlink:href="#f0_22" transform="matrix(12,0,0,12,214.6,860.7)" />
<use xlink:href="#f0_1x" transform="matrix(12,0,0,12,222.7,860.7)" />
<use xlink:href="#f0_2a" transform="matrix(12,0,0,12,230.4,860.7)" />
<use xlink:href="#f0_2g" transform="matrix(12,0,0,12,238.9,860.7)" />
<use xlink:href="#f0_21" transform="matrix(12,0,0,12,244,860.7)" />
<use xlink:href="#f0_2a" transform="matrix(12,0,0,12,251.4,860.7)" />
<use xlink:href="#f0_2a" transform="matrix(12,0,0,12,259.8,860.7)" />
<use xlink:href="#f0_1x" transform="matrix(12,0,0,12,268.3,860.7)" />
<use xlink:href="#f0_c" transform="matrix(12,0,0,12,117,887.8)" />
<use xlink:href="#f0_25" transform="matrix(12,0,0,12,122.1,887.8)" />
<use xlink:href="#f0_25" transform="matrix(12,0,0,12,125.8,887.8)" />
<use xlink:href="#f0_d" transform="matrix(12,0,0,12,129.1,887.8)" />
<use xlink:href="#f0_1l" transform="matrix(12,0,0,12,155.8,887.8)" />
<use xlink:href="#f0_2g" transform="matrix(12,0,0,12,168.7,887.8)" />
<use xlink:href="#f0_25" transform="matrix(12,0,0,12,173.5,887.8)" />
<use xlink:href="#f0_28" transform="matrix(12,0,0,12,177.5,887.8)" />
<use xlink:href="#f0_25" transform="matrix(12,0,0,12,181.2,887.8)" />
<use xlink:href="#f0_2m" transform="matrix(12,0,0,12,185.3,887.8)" />
<use xlink:href="#f0_1x" transform="matrix(12,0,0,12,192.6,887.8)" />
<use xlink:href="#f0_2g" transform="matrix(12,0,0,12,200.3,887.8)" />
<use xlink:href="#f0_25" transform="matrix(12,0,0,12,205.5,887.8)" />
<use xlink:href="#f0_2b" transform="matrix(12,0,0,12,209.1,887.8)" />
<use xlink:href="#f0_2a" transform="matrix(12,0,0,12,218.3,887.8)" />
<use xlink:href="#f0_2b" transform="matrix(12,0,0,12,229.7,887.8)" />
<use xlink:href="#f0_22" transform="matrix(12,0,0,12,238.5,887.8)" />
<use xlink:href="#f0_22" transform="matrix(12,0,0,12,246.6,887.8)" />
<use xlink:href="#f0_2e" transform="matrix(12,0,0,12,251.8,887.8)" />
<use xlink:href="#f0_21" transform="matrix(12,0,0,12,257.7,887.8)" />
<use xlink:href="#f0_2d" transform="matrix(12,0,0,12,265,887.8)" />
<use xlink:href="#f0_2h" transform="matrix(12,0,0,12,273.8,887.8)" />
<use xlink:href="#f0_21" transform="matrix(12,0,0,12,282.3,887.8)" />
<use xlink:href="#f0_2a" transform="matrix(12,0,0,12,290,887.8)" />
<use xlink:href="#f0_1z" transform="matrix(12,0,0,12,298.1,887.8)" />
<use xlink:href="#f0_2l" transform="matrix(12,0,0,12,305.8,887.8)" />
<use xlink:href="#f0_c" transform="matrix(12,0,0,12,117,914.2)" />
<use xlink:href="#f0_25" transform="matrix(12,0,0,12,122.1,914.2)" />
<use xlink:href="#f0_25" transform="matrix(12,0,0,12,125.4,914.2)" />
<use xlink:href="#f0_25" transform="matrix(12,0,0,12,129.1,914.2)" />
<use xlink:href="#f0_d" transform="matrix(12,0,0,12,132.4,914.2)" />
<use xlink:href="#f0_1g" transform="matrix(12,0,0,12,155.8,914.2)" />
<use xlink:href="#f0_2b" transform="matrix(12,0,0,12,165.7,914.2)" />
<use xlink:href="#f0_2j" transform="matrix(12,0,0,12,174.9,914.2)" />
<use xlink:href="#f0_21" transform="matrix(12,0,0,12,187.8,914.2)" />
<use xlink:href="#f0_2e" transform="matrix(12,0,0,12,195.5,914.2)" />
<use xlink:href="#f0_2b" transform="matrix(12,0,0,12,204.7,914.2)" />
<use xlink:href="#f0_22" transform="matrix(12,0,0,12,213.8,914.2)" />
<use xlink:href="#f0_2f" transform="matrix(12,0,0,12,222.7,914.2)" />
<use xlink:href="#f0_25" transform="matrix(12,0,0,12,229.3,914.2)" />
<use xlink:href="#f0_23" transform="matrix(12,0,0,12,233.3,914.2)" />
<use xlink:href="#f0_2a" transform="matrix(12,0,0,12,242.2,914.2)" />
<use xlink:href="#f0_1x" transform="matrix(12,0,0,12,250.6,914.2)" />
<use xlink:href="#f0_28" transform="matrix(12,0,0,12,258.3,914.2)" />
<use xlink:href="#f0_i" transform="matrix(12,0,0,12,262.4,914.2)" />
<use xlink:href="#f4_l" transform="matrix(8,0,0,8,785.4,1264.2)" />
<use xlink:href="#f4_q" transform="matrix(8,0,0,8,792.2,1264.2)" />
</g>
<defs>
<path d="M33,0V27c0,0,264,241,371,393c0,0,108,152,108,278c0,0,0,96,-59,158c0,0,-59,62,-141,62c0,0,-75,0,-134,-43c0,0,-59,-44,-88,-128H63c0,0,18,138,95,212c0,0,77,74,193,74c0,0,123,0,205,-80c0,0,83,-79,83,-186c0,0,0,-77,-36,-154c0,0,-55,-121,-179,-256C424,357,238,154,191,112H455c0,0,81,0,114,6c0,0,32,6,58,25c0,0,27,18,46,52h27L630,0Z" 
id="f0_m"
transform="scale(0.001,-0.001)" />

<path d="M197,0V27c0,0,71,2,92,13c0,0,21,10,29,29c0,0,9,18,9,109V725c0,0,0,110,-8,141c0,0,-5,24,-19,35c0,0,-14,11,-33,11c0,0,-28,0,-77,-23l-11,23l246,121h25V178c0,0,0,-85,7,-106c0,0,7,-21,29,-32c0,0,23,-11,91,-13V0Z" 
id="f0_l"
transform="scale(0.001,-0.001)" />

<path d="M191,-20c0,0,-34,0,-58,24c0,0,-24,24,-24,58c0,0,0,35,24,59c0,0,24,24,58,24c0,0,35,0,59,-24c0,0,24,-25,24,-59c0,0,0,-34,-24,-58c0,0,-25,-24,-59,-24Z" 
id="f0_i"
transform="scale(0.001,-0.001)" />

<path d="M473,53c0,0,173,0,287,121c0,0,114,122,114,330c0,0,0,210,-114,330c0,0,-114,121,-293,121c0,0,-67,0,-153,-21V74c0,0,95,-21,159,-21ZM26,0V27H64c0,0,64,0,91,41c0,0,16,25,16,111V833c0,0,0,95,-21,119c0,0,-29,33,-86,33H26v27H438c0,0,226,0,345,-51c0,0,118,-52,190,-172c0,0,72,-120,72,-278c0,0,0,-211,-129,-353C916,158,773,0,478,0Z" 
id="f0_14"
transform="scale(0.001,-0.001)" />

<path d="M17,0V26c0,0,52,0,77,17c0,0,19,12,26,38c0,0,4,13,4,73V419c0,0,0,119,-5,142c0,0,-4,23,-17,33c0,0,-13,11,-33,11c0,0,-23,0,-52,-11l-7,26l207,83h31V549c0,0,86,154,176,154c0,0,41,0,68,-25c0,0,27,-25,27,-58c0,0,0,-29,-20,-49c0,0,-19,-20,-46,-20c0,0,-26,0,-58,25c0,0,-33,26,-48,26c0,0,-14,0,-29,-15c0,0,-34,-30,-70,-101V159c0,0,0,-56,15,-85c0,0,9,-20,34,-34c0,0,24,-14,71,-14V0Z" 
id="f0_2e"
transform="scale(0.001,-0.001)" />

<path d="M286,72c0,0,57,0,149,75V407c0,0,-113,-45,-145,-64c0,0,-59,-32,-85,-68c0,0,-25,-36,-25,-78c0,0,0,-54,32,-89c0,0,32,-36,74,-36ZM217,-13c0,0,-71,0,-116,48c0,0,-46,48,-46,127c0,0,0,50,22,87c0,0,31,50,106,95c0,0,76,45,252,109v26c0,0,0,102,-32,140c0,0,-32,38,-94,38c0,0,-47,0,-74,-25c0,0,-28,-25,-28,-58l1,-43c0,0,0,-34,-17,-53c0,0,-18,-18,-47,-18c0,0,-28,0,-45,19c0,0,-18,19,-18,53c0,0,0,64,66,117c0,0,65,54,184,54c0,0,91,0,149,-31c0,0,44,-23,65,-72c0,0,13,-32,13,-131V238c0,0,0,-98,4,-120c0,0,4,-22,12,-29c0,0,9,-8,20,-8c0,0,12,0,21,5c0,0,16,10,61,55V99C676,99,592,-12,516,-12c0,0,-37,0,-58,24c0,0,-22,26,-23,86C435,98,330,17,303,5c0,0,-40,-18,-86,-18Z" 
id="f0_1x"
transform="scale(0.001,-0.001)" />

<path d="M336,-20L117,554c0,0,-21,55,-42,74c0,0,-21,19,-66,29v26H296V657c0,0,-40,-3,-52,-14c0,0,-13,-12,-13,-33c0,0,0,-23,13,-56L390,162L537,481L498,581c0,0,-18,46,-47,63c0,0,-17,11,-61,13v26H716V657c0,0,-54,-2,-77,-20c0,0,-15,-12,-15,-39c0,0,0,-15,6,-30L785,177L929,554c0,0,15,40,15,65c0,0,0,14,-15,25c0,0,-14,12,-57,13v26h216V657c0,0,-65,-10,-95,-89L764,-20H733L563,415L363,-20Z" 
id="f0_2j"
transform="scale(0.001,-0.001)" />

<path d="M255,-10c0,0,-35,0,-68,18c0,0,-32,19,-48,55c0,0,-16,35,-16,109V632H15v24c0,0,41,16,84,56c0,0,43,39,77,92c0,0,17,29,48,104h23V683H407V632H247V188c0,0,0,-66,19,-90c0,0,19,-23,49,-23c0,0,24,0,47,16c0,0,23,15,36,45h29c0,0,-26,-73,-74,-110c0,0,-47,-36,-98,-36Z" 
id="f0_2g"
transform="scale(0.001,-0.001)" />

<path d="M20,0V26c0,0,45,0,71,15c0,0,15,7,24,28c0,0,9,21,9,85V773c0,0,0,117,-5,144c0,0,-6,27,-17,37c0,0,-12,9,-31,9c0,0,-16,0,-51,-12L10,978l204,83h34V561c0,0,83,91,131,116c0,0,49,26,97,26c0,0,58,0,100,-32c0,0,42,-32,62,-101c0,0,14,-47,14,-174V154c0,0,0,-65,11,-89c0,0,7,-18,25,-28c0,0,18,-11,66,-11V0H418V26h15c0,0,48,0,67,15c0,0,18,15,26,43c0,0,2,12,2,70V396c0,0,0,112,-12,147c0,0,-11,35,-36,53c0,0,-26,17,-61,17c0,0,-37,0,-76,-19c0,0,-40,-20,-95,-79V154c0,0,0,-70,8,-87c0,0,8,-17,29,-29c0,0,22,-12,74,-12V0Z" 
id="f0_24"
transform="scale(0.001,-0.001)" />

<path d="M479,469c0,0,-4,66,-16,93c0,0,-18,42,-55,65c0,0,-37,24,-78,24c0,0,-62,0,-111,-48c0,0,-48,-48,-57,-134ZM355,-20c0,0,-123,0,-211,95c0,0,-87,96,-87,258c0,0,0,175,90,273c0,0,89,98,225,98c0,0,115,0,189,-76c0,0,74,-75,74,-202H162c0,0,0,-152,74,-239c0,0,75,-86,175,-86c0,0,67,0,117,36c0,0,50,37,83,127l24,-15c0,0,-16,-102,-91,-186c0,0,-76,-83,-189,-83Z" 
id="f0_21"
transform="scale(0.001,-0.001)" />

<path d="M145,-328c0,0,-44,0,-73,25c0,0,-28,25,-28,58c0,0,0,31,21,50c0,0,20,19,56,19c0,0,25,0,67,-16c0,0,30,-11,38,-11c0,0,22,0,49,23c0,0,26,23,53,89L376,28L131,542c0,0,-11,24,-36,58c0,0,-19,27,-30,36c0,0,-18,12,-56,21v26H328V657H312c0,0,-33,0,-50,-15c0,0,-17,-14,-17,-36c0,0,0,-30,25,-81L437,179L589,557c0,0,12,31,12,62c0,0,0,13,-5,20c0,0,-6,8,-19,13c0,0,-12,5,-44,5v26H754V657c0,0,-27,-3,-42,-12c0,0,-15,-9,-33,-34c0,0,-7,-10,-25,-58L376,-128c0,0,-40,-99,-105,-150c0,0,-66,-50,-126,-50Z" 
id="f0_2l"
transform="scale(0.001,-0.001)" />

<path d="M398,24c0,0,74,0,120,58c0,0,61,76,61,214c0,0,0,156,-69,240c0,0,-47,59,-113,59c0,0,-36,0,-71,-18c0,0,-27,-14,-88,-81V242c0,0,0,-83,6,-109c0,0,11,-43,51,-76c0,0,41,-33,103,-33ZM-4,-326v27H15c5,0,42,0,69,16c0,0,14,8,22,26c0,0,7,19,7,94V481c0,0,0,67,-6,85c0,0,-5,18,-18,27c0,0,-13,9,-36,9c0,0,-18,0,-45,-10L0,615l209,85h29V540c0,0,53,91,106,127c0,0,53,36,112,36c0,0,103,0,172,-80c0,0,84,-99,84,-257c0,0,0,-176,-102,-292c0,0,-83,-94,-210,-94c0,0,-55,0,-95,16c0,0,-30,10,-67,44V-167c0,0,0,-71,8,-90c0,0,9,-20,30,-31c0,0,21,-11,77,-11v-27Z" 
id="f0_2c"
transform="scale(0.001,-0.001)" />

<path d="M55,0V26c0,0,50,0,67,10c0,0,17,10,27,32c0,0,10,23,10,86V418c0,0,0,111,-6,144c0,0,-6,24,-17,33c0,0,-11,10,-30,10c0,0,-21,0,-51,-11L45,620l206,83h33V154c0,0,0,-64,9,-85c0,0,9,-22,27,-32c0,0,19,-11,67,-11V0ZM222,909c0,0,-32,0,-54,23c0,0,-22,22,-22,53c0,0,0,32,22,54c0,0,22,22,54,22c0,0,31,0,53,-22c0,0,22,-22,22,-54c0,0,0,-31,-22,-53c0,0,-22,-23,-53,-23Z" 
id="f0_25"
transform="scale(0.001,-0.001)" />

<path d="M342,-20c0,0,-116,0,-203,97c0,0,-86,98,-86,264c0,0,0,161,96,261c0,0,95,101,230,101c0,0,100,0,165,-53c0,0,65,-54,65,-111c0,0,0,-29,-18,-46c0,0,-18,-18,-51,-18c0,0,-44,0,-66,29c0,0,-13,15,-17,59c0,0,-4,45,-30,68c0,0,-26,22,-73,22c0,0,-74,0,-120,-55c0,0,-60,-73,-60,-193c0,0,0,-122,60,-216c0,0,60,-93,162,-93c0,0,73,0,131,49c0,0,41,35,80,126l22,-10C629,261,601,125,521,52c0,0,-81,-72,-179,-72Z" 
id="f0_1z"
transform="scale(0.001,-0.001)" />

<path d="M58,0V26c0,0,47,0,64,10c0,0,18,10,28,32c0,0,9,23,9,86V775c0,0,0,116,-5,142c0,0,-5,27,-17,37c0,0,-11,9,-29,9c0,0,-20,0,-49,-12L46,978l204,83h34V154c0,0,0,-64,9,-85c0,0,9,-21,29,-32c0,0,19,-11,72,-11V0Z" 
id="f0_28"
transform="scale(0.001,-0.001)" />

<path d="M21,0V26H35c0,0,53,0,71,27c0,0,18,27,18,101V408c0,0,0,123,-5,150c0,0,-6,27,-17,37c0,0,-12,10,-31,10c0,0,-21,0,-50,-11L10,620l206,83h32V558c0,0,120,145,229,145c0,0,56,0,96,-28c0,0,40,-28,64,-92c0,0,16,-45,16,-137V154c0,0,0,-65,11,-88c0,0,8,-19,26,-29c0,0,18,-11,68,-11V0H419V26h14c0,0,47,0,66,15c0,0,20,15,27,43c0,0,3,11,3,70V434c0,0,0,93,-24,135c0,0,-24,42,-81,42c0,0,-88,0,-176,-97V154c0,0,0,-69,9,-86c0,0,10,-21,28,-31c0,0,19,-11,75,-11V0Z" 
id="f0_2a"
transform="scale(0.001,-0.001)" />

<path d="M292,-20c0,0,-57,0,-100,33c0,0,-42,33,-58,85c0,0,-17,52,-17,148V551c0,0,0,49,-10,68c0,0,-11,18,-31,29c0,0,-19,9,-68,9c-2,0,-4,0,-6,0v26H242V226c0,0,0,-95,33,-125c0,0,33,-30,80,-30c0,0,32,0,73,21c0,0,40,20,96,76V555c0,0,0,59,-21,80c0,0,-22,21,-89,22v26H647V269c0,0,0,-119,6,-145c0,0,6,-27,18,-37c0,0,12,-11,29,-11c0,0,23,0,52,13L763,63L558,-20H524V124C524,124,436,29,390,4c0,0,-47,-24,-98,-24Z" 
id="f0_2h"
transform="scale(0.001,-0.001)" />

<path d="M399,62c0,0,68,0,131,68V481c0,0,-5,51,-27,93c0,0,-22,42,-59,63c0,0,-37,21,-72,21c0,0,-65,0,-117,-59c0,0,-67,-77,-67,-226c0,0,0,-151,65,-231c0,0,66,-80,146,-80ZM330,-20c0,0,-112,0,-196,93c0,0,-83,94,-83,240c0,0,0,147,92,269c0,0,93,122,238,122c0,0,90,0,149,-58V773c0,0,0,117,-6,144c0,0,-5,27,-17,37c0,0,-12,9,-30,9c0,0,-20,0,-52,-12l-9,27l204,83h33V270c0,0,0,-120,6,-146c0,0,5,-27,18,-37c0,0,12,-11,28,-11c0,0,21,0,54,13l9,-26L564,-20H530V78C530,78,480,25,432,2c0,0,-47,-22,-102,-22Z" 
id="f0_20"
transform="scale(0.001,-0.001)" />

<path d="M406,32c0,0,72,0,119,60c0,0,47,59,47,205c0,0,0,181,-78,286c0,0,-53,71,-135,71c0,0,-40,0,-79,-23c0,0,-40,-24,-65,-83c0,0,-24,-58,-24,-151c0,0,0,-149,59,-257c0,0,59,-108,156,-108ZM374,-20c0,0,-154,0,-245,122c0,0,-77,104,-77,233c0,0,0,94,46,187c0,0,47,92,123,137c0,0,76,44,161,44c0,0,155,0,249,-118c0,0,80,-100,80,-231c0,0,0,-91,-44,-185C667,169,623,75,546,27c0,0,-77,-47,-172,-47Z" 
id="f0_2b"
transform="scale(0.001,-0.001)" />

<path d="M312,-20c0,0,-62,0,-143,22c0,0,-25,8,-40,8c0,0,-18,0,-27,-19H77V234h25c0,0,21,-105,80,-158c0,0,59,-53,132,-53c0,0,51,0,84,31c0,0,32,30,32,72c0,0,0,52,-36,87c0,0,-36,35,-144,88c0,0,-109,54,-142,97c0,0,-34,43,-34,107c0,0,0,85,58,141c0,0,58,57,150,57c0,0,40,0,97,-17c0,0,38,-11,51,-11c0,0,12,0,19,5c0,0,7,5,15,23h25V470H464c0,0,-28,110,-72,149c0,0,-45,40,-113,40c0,0,-53,0,-85,-28c0,0,-32,-27,-32,-61c0,0,0,-41,24,-71c0,0,23,-31,94,-65L389,381c0,0,152,-74,152,-194c0,0,0,-94,-71,-151c0,0,-70,-56,-158,-56Z" 
id="f0_2f"
transform="scale(0.001,-0.001)" />

<path d="M63,0V26H93c0,0,30,0,54,15c0,0,25,15,34,41c0,0,10,25,10,99V630H58v53H191v45c0,0,0,102,33,173c0,0,32,71,100,114c0,0,68,44,152,44c0,0,79,0,145,-51c0,0,43,-33,43,-75c0,0,0,-22,-19,-42c0,0,-20,-20,-42,-20c0,0,-17,0,-36,12c0,0,-19,13,-47,53c0,0,-28,41,-51,55c0,0,-23,14,-51,14c0,0,-35,0,-58,-18c0,0,-24,-18,-35,-57c0,0,-10,-38,-10,-197V683H491V630H315V181c0,0,0,-96,21,-122c0,0,27,-33,73,-33h62V0Z" 
id="f0_22"
transform="scale(0.001,-0.001)" />

<path d="M62,286V399H448V286Z" 
id="f0_h"
transform="scale(0.001,-0.001)" />

<path d="M548,-21c0,0,-251,0,-389,185C159,164,56,303,56,490c0,0,0,152,68,278c0,0,67,127,186,197c0,0,119,69,260,69c0,0,109,0,216,-53c0,0,31,-17,44,-17c0,0,20,0,35,14c0,0,20,21,28,56h26L943,690H919c0,0,-46,155,-131,224c0,0,-86,68,-206,68c0,0,-100,0,-181,-51c0,0,-81,-52,-128,-163c0,0,-46,-112,-46,-279c0,0,0,-137,44,-238c0,0,44,-101,132,-154c0,0,88,-54,201,-54c0,0,99,0,174,42c0,0,75,42,165,167l23,-14C966,238,890,103,789,40c0,0,-102,-61,-241,-61Z" 
id="f0_13"
transform="scale(0.001,-0.001)" />

<path d="M31,0V27H67c0,0,36,0,68,18c0,0,24,12,32,36c0,0,9,24,9,98V836c0,0,0,96,-19,119c0,0,-27,30,-90,30H31v27H811L822,790H792c0,0,-15,80,-34,110c0,0,-19,30,-57,46c0,0,-29,11,-105,11H319V557H541c0,0,87,0,116,26c0,0,39,35,44,121h27V352H701c0,0,-11,74,-21,95c0,0,-14,26,-45,41c0,0,-30,15,-94,15H319V168c0,0,0,-67,6,-81c0,0,6,-15,21,-24c0,0,15,-8,56,-8H574c0,0,86,0,124,12c0,0,39,12,75,47c0,0,46,46,95,139h30L811,0Z" 
id="f0_15"
transform="scale(0.001,-0.001)" />

<path d="M411,-239c0,0,134,0,198,48c0,0,64,47,64,100c0,0,0,39,-38,55c0,0,-39,16,-154,19c0,0,-167,5,-258,17c0,0,-35,-37,-53,-70c0,0,-17,-32,-17,-60c0,0,0,-36,43,-62c0,0,74,-47,215,-47ZM380,257c0,0,56,0,93,43c0,0,36,42,36,133c0,0,0,118,-51,185c0,0,-38,49,-98,49c0,0,-55,0,-92,-44c0,0,-37,-44,-37,-135c0,0,0,-117,50,-182c0,0,39,-49,99,-49ZM345,-328c0,0,-144,0,-243,64c0,0,-56,38,-56,78c0,0,0,18,8,36c0,0,13,27,52,76c0,0,5,7,76,80c0,0,-39,23,-55,41c0,0,-16,19,-16,42c0,0,0,26,22,61c0,0,21,35,98,100c0,0,-63,30,-97,85c0,0,-33,55,-33,121c0,0,0,101,76,174c0,0,77,73,196,73c0,0,98,0,170,-48H688c0,0,32,0,37,-2c0,0,6,-2,8,-6c0,0,4,-7,4,-24c0,0,0,-20,-4,-27c0,0,-2,-4,-7,-6c0,0,-6,-2,-38,-2H599c0,0,41,-54,41,-137c0,0,0,-96,-73,-163c0,0,-73,-68,-196,-68c0,0,-51,0,-104,15c0,0,-33,-28,-44,-49c0,0,-12,-22,-12,-37c0,0,0,-12,13,-24c0,0,12,-12,48,-17c0,0,21,-4,104,-6c0,0,154,-4,199,-11c0,0,70,-10,111,-51c0,0,42,-41,42,-102c0,0,0,-84,-79,-158c0,0,-117,-108,-304,-108Z" 
id="f0_23"
transform="scale(0.001,-0.001)" />

<path d="M107,-21V325h27c0,0,19,-109,52,-163c0,0,33,-54,100,-90c0,0,68,-36,148,-36c0,0,93,0,148,49c0,0,54,50,54,117c0,0,0,37,-21,75c0,0,-20,38,-64,71c0,0,-29,22,-159,95c0,0,-130,72,-185,115c0,0,-55,44,-83,96c0,0,-28,52,-28,114c0,0,0,109,83,188c0,0,84,78,213,78c0,0,81,0,171,-39c0,0,42,-19,59,-19c0,0,20,0,32,11c0,0,12,12,20,47h27V684H674c0,0,-14,101,-48,161c0,0,-35,60,-100,95c0,0,-64,35,-133,35c0,0,-77,0,-128,-47c0,0,-51,-48,-51,-108c0,0,0,-46,32,-84c0,0,47,-56,221,-149c0,0,142,-76,194,-117c0,0,51,-41,80,-96c0,0,28,-55,28,-115c0,0,0,-115,-90,-198c0,0,-89,-82,-229,-82c0,0,-44,0,-83,6c0,0,-23,4,-95,27c0,0,-73,24,-93,24c0,0,-18,0,-29,-11c0,0,-11,-12,-16,-46Z" 
id="f0_1j"
transform="scale(0.001,-0.001)" />

<path d="M397,34c0,0,67,0,126,75c0,0,58,74,58,216c0,0,0,131,-58,201c0,0,-59,70,-133,70c0,0,-39,0,-79,-20c0,0,-29,-14,-75,-59V109c0,0,37,-37,78,-56c0,0,40,-19,83,-19ZM358,-20c0,0,-59,0,-121,21c0,0,-61,22,-126,65V773c0,0,0,117,-5,144c0,0,-6,27,-18,37c0,0,-12,9,-29,9c0,0,-21,0,-53,-12l-9,27l205,83h34V564c0,0,98,139,213,139c0,0,105,0,183,-90c0,0,78,-90,78,-245c0,0,0,-182,-121,-293c0,0,-103,-95,-231,-95Z" 
id="f0_1y"
transform="scale(0.001,-0.001)" />

<path d="M23,0V26c0,0,47,0,66,10c0,0,19,11,28,33c0,0,10,22,10,85V416c0,0,0,112,-7,145c0,0,-5,25,-16,34c0,0,-11,10,-31,10c0,0,-21,0,-50,-11L12,620l207,83h32V557c0,0,75,75,88,86c0,0,34,29,72,44c0,0,39,16,77,16c0,0,64,0,110,-37c0,0,47,-38,62,-109c0,0,77,90,130,118c0,0,53,28,109,28c0,0,54,0,96,-28c0,0,42,-28,67,-91c0,0,16,-43,16,-136V154c0,0,0,-64,10,-88c0,0,8,-16,28,-28c0,0,20,-12,65,-12V0H844V26h14c0,0,44,0,69,18c0,0,17,12,24,38c0,0,3,13,3,72V448c0,0,0,83,-20,117c0,0,-29,48,-93,48c0,0,-39,0,-79,-20c0,0,-40,-19,-97,-73l-1,-8l2,-32V154c0,0,0,-70,8,-87c0,0,7,-17,29,-29c0,0,21,-12,73,-12V0H431V26c0,0,57,0,78,14c0,0,21,13,29,40c0,0,4,13,4,74V448c0,0,0,83,-25,120c0,0,-33,48,-91,48c0,0,-40,0,-80,-22c0,0,-61,-33,-95,-74V154c0,0,0,-67,10,-87c0,0,9,-20,27,-30c0,0,18,-11,74,-11V0Z" 
id="f0_29"
transform="scale(0.001,-0.001)" />

<path d="M474,-326c0,0,-112,57,-188,133c0,0,-107,108,-165,254c0,0,-58,147,-58,305c0,0,0,231,114,421c0,0,114,191,297,273v-31c0,0,-92,-51,-151,-139c0,0,-59,-88,-88,-223c0,0,-30,-135,-30,-281c0,0,0,-160,25,-290c0,0,20,-102,47,-164c0,0,28,-62,75,-120c0,0,47,-57,122,-109v-29Z" 
id="f0_c"
transform="scale(0.001,-0.001)" />

<path d="M35,-326v29c0,0,92,51,151,139c0,0,60,87,89,221c0,0,28,136,28,282c0,0,0,159,-24,290c0,0,-19,103,-47,165c0,0,-28,62,-75,119c0,0,-46,57,-122,110v31c0,0,113,-56,188,-132c0,0,107,-109,165,-255c0,0,58,-147,58,-306c0,0,0,-231,-114,-420c0,0,-113,-191,-297,-273Z" 
id="f0_d"
transform="scale(0.001,-0.001)" />

<path d="M31,0L164,463c0,0,24,81,24,115c0,0,0,14,-12,23c0,0,-14,12,-37,12c0,0,-15,0,-54,-7L74,633l255,42L220,312c0,0,134,223,243,312c0,0,62,51,102,51c0,0,25,0,39,-15c0,0,15,-15,15,-42c0,0,0,-50,-25,-94c0,0,-18,-34,-52,-34c0,0,-17,0,-30,11c0,0,-12,11,-15,35c0,0,-1,14,-7,18c0,0,-6,6,-14,6c0,0,-13,0,-24,-6c0,0,-19,-10,-59,-58c0,0,-62,-73,-134,-189c0,0,-32,-49,-54,-111c0,0,-32,-85,-36,-102L145,0Z" 
id="f1_2e"
transform="scale(0.001,-0.001)" />

<path d="M145,-17c0,0,-29,0,-48,18C97,1,79,19,79,46c0,0,0,28,20,93L201,475c0,0,24,82,24,103c0,0,0,17,-11,27c0,0,-12,10,-32,10c0,0,-16,0,-68,-8v30l260,42L218,149c0,0,-16,-53,-16,-64c0,0,0,-11,6,-19c0,0,7,-7,15,-7c0,0,11,0,25,12c0,0,39,33,78,95l26,-17C352,149,304,72,238,20c0,0,-49,-37,-93,-37ZM342,825c0,0,-31,0,-53,22c0,0,-22,22,-22,53c0,0,0,31,22,53c0,0,21,22,53,22c0,0,31,0,53,-22c0,0,22,-22,22,-53c0,0,0,-31,-23,-53c0,0,-22,-22,-52,-22Z" 
id="f1_25"
transform="scale(0.001,-0.001)" />

<path d="M82,-253v33c0,0,77,25,119,78c0,0,42,54,42,114c0,0,0,14,-7,23c0,0,-5,6,-11,6c0,0,-8,0,-35,-14c0,0,-14,-7,-28,-7c0,0,-37,0,-58,21C104,1,82,23,82,61c0,0,0,36,28,62c0,0,28,27,68,27c0,0,49,0,88,-43c0,0,38,-43,38,-113c0,0,0,-77,-53,-143c0,0,-53,-66,-169,-104Z" 
id="f0_g"
transform="scale(0.001,-0.001)" />

<path d="M412,-328c0,0,-195,96,-303,284C109,-44,0,142,0,365c0,0,0,232,114,422c0,0,114,191,298,273v-31c0,0,-92,-51,-151,-139c0,0,-59,-88,-88,-223c0,0,-29,-136,-29,-282c0,0,0,-167,27,-301c0,0,26,-133,82,-221c0,0,55,-89,159,-159v-32Z" 
id="f2_c"
transform="scale(0.001,-0.001)" />

<path d="M34,-328v32c0,0,92,50,151,138c0,0,59,88,88,222c0,0,29,135,29,283c0,0,0,165,-27,300c0,0,-26,134,-82,222c0,0,-56,89,-159,160v31c0,0,194,-96,303,-284c0,0,108,-187,108,-410c0,0,0,-232,-114,-422c0,0,-114,-191,-297,-272Z" 
id="f2_d"
transform="scale(0.001,-0.001)" />

<path d="M363,28c0,0,75,0,126,63c0,0,51,62,51,197c0,0,0,85,-24,149c0,0,-24,63,-86,139c0,0,-51,-17,-89,-17c0,0,-44,0,-63,14c0,0,-18,13,-18,29c0,0,0,14,14,25c0,0,14,11,46,11c0,0,36,0,110,-19c0,0,53,104,53,196c0,0,0,94,-47,146c0,0,-46,51,-115,51c0,0,-86,0,-134,-73c0,0,-31,-49,-31,-156V118c0,0,72,-51,126,-73c0,0,40,-17,81,-17ZM0,-328c0,0,20,92,24,126c0,0,10,104,10,152V712c0,0,0,133,26,198c0,0,27,64,96,108c0,0,69,43,165,43c0,0,133,0,213,-72c0,0,80,-71,80,-170c0,0,0,-63,-33,-120c0,0,-32,-57,-100,-99c0,0,200,-95,200,-297c0,0,0,-89,-42,-167C639,136,598,59,524,18c0,0,-73,-39,-150,-39c0,0,-50,0,-99,17c0,0,-49,16,-119,63V-66c0,0,0,-121,-30,-262Z" 
id="f3_1y"
transform="scale(0.001,-0.001)" />

<path d="M678,393L506,802L330,393ZM11,0V27c0,0,63,12,82,30c0,0,38,35,84,145l356,832h27L912,193c0,0,43,-101,77,-132c0,0,35,-30,97,-34V0H687V27c0,0,60,3,82,21c0,0,21,17,21,41c0,0,0,33,-30,104L700,338H307L239,179c0,0,-26,-59,-26,-88c0,0,0,-23,22,-41c0,0,22,-17,95,-23V0Z" 
id="f0_11"
transform="scale(0.001,-0.001)" />

<path d="M518,-21c0,0,-124,0,-220,50c0,0,-95,52,-145,146c0,0,-50,94,-50,202c0,0,0,166,88,322c0,0,89,157,244,246c0,0,155,89,312,89c0,0,74,0,166,-34c0,0,40,-15,58,-15c0,0,18,0,31,7c0,0,14,8,45,42h28L999,707H972l-3,82c0,0,-4,45,-17,80c0,0,-14,35,-40,61c0,0,-27,26,-68,40c0,0,-41,15,-91,15c0,0,-134,0,-234,-73c0,0,-127,-94,-199,-264c0,0,-60,-140,-60,-284c0,0,0,-147,86,-234c0,0,86,-88,223,-88c0,0,104,0,185,46c0,0,81,47,151,143h35C940,231,858,100,757,39c0,0,-100,-60,-239,-60Z" 
id="f1_13"
transform="scale(0.001,-0.001)" />

<path d="M-33,0l9,26c0,0,58,2,78,11c0,0,30,13,43,34c0,0,20,31,48,130L318,812c0,0,21,74,21,113c0,0,0,28,-20,45c0,0,-20,16,-77,16H226l9,26H966L904,769H878c0,0,5,34,5,57c0,0,0,39,-20,66c0,0,-25,34,-74,52c0,0,-36,13,-166,13H488L374,557h99c0,0,102,0,148,31c0,0,46,31,79,115h26L623,336H593c0,0,13,46,13,79c0,0,0,32,-13,52c0,0,-13,19,-36,28c0,0,-23,10,-95,10H361L263,156c0,0,-14,-43,-14,-66c0,0,0,-17,19,-30c0,0,13,-9,65,-9h93c0,0,145,0,233,51c0,0,87,52,157,180h27L747,0Z" 
id="f1_15"
transform="scale(0.001,-0.001)" />

<path d="M357,55c0,0,117,0,206,70c0,0,90,70,90,191c0,0,0,92,-56,144c0,0,-57,51,-182,51c0,0,-24,0,-59,-3L231,65c0,0,81,-10,126,-10Zm86,508c0,0,158,0,234,68c0,0,77,67,77,169c0,0,0,76,-48,119c0,0,-48,43,-153,43c0,0,-28,0,-71,-9L372,564c0,0,49,-1,71,-1ZM-34,0l10,26c0,0,57,2,78,12c0,0,30,12,42,33c0,0,18,29,48,131L318,816c0,0,23,78,23,109c0,0,0,28,-20,44c0,0,-21,16,-78,16c0,0,-13,0,-24,1l10,26H594c0,0,92,0,164,-28c0,0,72,-29,108,-79c0,0,36,-51,36,-108c0,0,0,-87,-66,-157c0,0,-66,-71,-216,-104c0,0,99,-35,146,-91c0,0,46,-57,46,-125c0,0,0,-76,-39,-144c0,0,-39,-69,-99,-107C674,69,613,31,527,13C527,13,466,0,336,0Z" 
id="f1_12"
transform="scale(0.001,-0.001)" />

<path d="M232,-21l84,842c0,0,6,64,6,86c0,0,0,34,-25,56c0,0,-25,23,-79,23H191l7,26H598l-9,-26c0,0,-64,-1,-89,-14c0,0,-24,-13,-38,-44c0,0,-8,-16,-16,-94L387,231L781,769c0,0,65,88,81,123c0,0,11,23,11,40c0,0,0,20,-17,36c0,0,-17,15,-64,18l9,26h304l-8,-26c0,0,-36,-3,-58,-15c0,0,-41,-19,-82,-59c0,0,-40,-39,-128,-159L259,-21Z" 
id="f1_1m"
transform="scale(0.001,-0.001)" />

<path d="M-46,0l10,26c0,0,62,2,82,11c0,0,33,13,48,35c0,0,25,36,51,126L318,810c0,0,23,76,23,115c0,0,0,20,-10,33c0,0,-10,13,-29,21c0,0,-20,7,-78,7l9,26H619l-8,-26h-2c-8,0,-48,-1,-69,-12c0,0,-33,-16,-51,-46c0,0,-17,-30,-45,-132L271,185c0,0,-23,-78,-23,-100c0,0,0,-17,9,-29c0,0,9,-12,30,-19c0,0,20,-6,85,-11L364,0Z" 
id="f1_19"
transform="scale(0.001,-0.001)" />

<path d="M62,-123V268c0,0,0,230,56,452c0,0,47,190,134,334c0,0,87,144,204,242c0,0,85,73,194,119l18,-16c0,0,-211,-145,-335,-339c0,0,-98,-156,-149,-374c0,0,-50,-218,-50,-403V-123Z" 
id="f2_4o"
transform="scale(0.001,-0.001)" />

<path d="M617,-123V283c0,0,0,236,-63,459c0,0,-63,223,-188,392c0,0,-108,146,-282,265l17,16c0,0,180,-76,320,-248c0,0,139,-172,204,-417c0,0,64,-245,64,-482V-123Z" 
id="f2_54"
transform="scale(0.001,-0.001)" />

<path d="M719,62L422,783L93,62ZM0,0L469,1034L896,0Z" 
id="f2_14"
transform="scale(0.001,-0.001)" />

<path d="M0,214v74H784V214ZM0,494v72H784V494Z" 
id="f2_x"
transform="scale(0.001,-0.001)" />

<path d="M62,-123V1415h72V-123Z" 
id="f2_4p"
transform="scale(0.001,-0.001)" />

<path d="M617,-123V1415h72V-123Z" 
id="f2_55"
transform="scale(0.001,-0.001)" />

<path d="M650,-123c0,0,-180,75,-319,246c0,0,-140,172,-205,418c0,0,-64,245,-64,481v393h72V1007c0,0,0,-236,63,-459c0,0,63,-223,189,-391c0,0,108,-145,282,-265l-18,-15Z" 
id="f2_4q"
transform="scale(0.001,-0.001)" />

<path d="M101,-123l-17,15c0,0,210,144,334,339c0,0,99,156,149,373c0,0,50,218,50,403v408h72V1022c0,0,0,-230,-56,-451c0,0,-48,-191,-134,-335C499,236,412,92,295,-5c0,0,-84,-73,-194,-118Z" 
id="f2_56"
transform="scale(0.001,-0.001)" />

<path d="M293,20c0,0,105,0,197,156c0,0,92,156,92,317c0,0,0,69,-34,106c0,0,-33,37,-87,37c0,0,-110,0,-202,-157c0,0,-92,-157,-92,-312c0,0,0,-71,36,-109c0,0,36,-38,90,-38ZM276,-17c0,0,-102,0,-167,65c0,0,-64,65,-64,168c0,0,0,110,63,220c0,0,63,111,168,175c0,0,106,64,204,64c0,0,99,0,162,-65c0,0,64,-65,64,-169c0,0,0,-111,-59,-221C647,220,588,111,482,46c0,0,-106,-63,-206,-63Z" 
id="f1_2b"
transform="scale(0.001,-0.001)" />

<path d="M251,69c0,0,93,0,201,118c0,0,131,157,126,322c0,0,0,62,-26,90c0,0,-27,28,-74,28c0,0,-52,0,-110,-44c0,0,-83,-62,-148,-185c0,0,-64,-122,-64,-221c0,0,0,-50,28,-79c0,0,29,-29,67,-29ZM183,-17c0,0,-60,0,-103,44C80,27,36,71,36,149c0,0,0,117,77,247c0,0,77,130,195,208c0,0,92,62,174,62c0,0,49,0,82,-22c0,0,32,-22,49,-73l24,77l115,18L609,160L593,92c0,0,-2,-10,-2,-17c0,0,0,-10,5,-19c0,0,4,-6,11,-6c0,0,6,0,17,11c0,0,21,20,55,88l25,-18c0,0,-43,-75,-89,-112c0,0,-45,-36,-84,-36c0,0,-27,0,-42,16c0,0,-15,15,-15,46c0,0,0,36,17,96l16,55C507,196,399,69,309,19c0,0,-64,-36,-126,-36Z" 
id="f1_1x"
transform="scale(0.001,-0.001)" />

<path d="M269,-17c0,0,-105,0,-165,59c0,0,-59,60,-59,160c0,0,0,114,64,225c0,0,64,110,171,179c0,0,108,69,212,69c0,0,81,0,121,-34c0,0,41,-34,41,-83c0,0,0,-46,-29,-79c0,0,-21,-25,-51,-25c0,0,-24,0,-39,15c0,0,-15,14,-15,37c0,0,0,14,5,26c0,0,6,12,23,29c0,0,18,16,22,24c0,0,4,7,4,15c0,0,0,16,-15,27c0,0,-21,14,-61,14c0,0,-73,0,-144,-51c0,0,-72,-51,-123,-146c0,0,-61,-115,-61,-229c0,0,0,-76,44,-121c0,0,43,-44,117,-44c0,0,58,0,114,29c0,0,56,28,126,104l22,-20C593,163,515,70,436,26c0,0,-79,-43,-167,-43Z" 
id="f1_1z"
transform="scale(0.001,-0.001)" />

<path d="M613,-21c0,0,-293,0,-445,186C168,165,54,306,54,490c0,0,0,134,64,256c0,0,76,145,209,224c0,0,111,64,262,64c0,0,55,0,100,-9c0,0,45,-9,128,-39c0,0,42,-16,56,-16c0,0,14,0,24,13c0,0,10,13,12,51h28L963,715H937c0,0,-40,119,-102,179c0,0,-91,88,-232,88c0,0,-193,0,-294,-153c0,0,-84,-129,-84,-307c0,0,0,-144,56,-263c0,0,56,-120,146,-175c0,0,91,-56,186,-56c0,0,56,0,109,15c0,0,52,14,100,41V376c0,0,0,77,-11,101c0,0,-12,23,-36,36c0,0,-24,12,-86,12v27h392V525h-18c0,0,-58,0,-80,-39c0,0,-15,-28,-15,-110V67C968,67,882,21,799,0c0,0,-84,-21,-186,-21Z" 
id="f0_17"
transform="scale(0.001,-0.001)" />

<path d="M376,-20L133,556c0,0,-17,41,-31,58c0,0,-15,18,-39,30c0,0,-12,7,-50,13v26H335V657H314c0,0,-29,0,-44,-14c0,0,-16,-14,-15,-38c0,0,-1,-26,15,-62L429,165L588,557c0,0,17,42,17,64c0,0,0,10,-6,17c0,0,-8,11,-21,15c0,0,-13,4,-52,4v26H750V657c0,0,-39,-3,-54,-16c0,0,-26,-23,-47,-76L409,-20Z" 
id="f0_2i"
transform="scale(0.001,-0.001)" />

<path d="M26,0V27H62c0,0,63,0,91,37c0,0,18,24,18,115V833c0,0,0,77,-10,102c0,0,-7,18,-30,32c0,0,-33,18,-69,18H26v27H459V985H422c0,0,-35,0,-67,-17c0,0,-23,-12,-32,-36c0,0,-9,-25,-9,-99V542H784V833c0,0,0,77,-10,102c0,0,-8,18,-31,32c0,0,-33,18,-68,18H639v27h432V985h-36c0,0,-36,0,-68,-17c0,0,-24,-12,-32,-36c0,0,-9,-25,-9,-99V179c0,0,0,-77,10,-102c0,0,7,-18,31,-32c0,0,32,-18,68,-18h36V0H639V27h36c0,0,62,0,90,37c0,0,19,24,19,115V487H314V179c0,0,0,-77,9,-102c0,0,8,-18,32,-32c0,0,32,-18,67,-18h37V0Z" 
id="f0_18"
transform="scale(0.001,-0.001)" />

<path d="M551,-22c0,0,-165,0,-251,56c0,0,-86,57,-122,154c0,0,-24,67,-24,250V833c0,0,0,93,-25,123c0,0,-26,29,-83,29H8v27H444V985H405c0,0,-62,0,-89,-40c0,0,-19,-27,-19,-112V392c0,0,0,-59,11,-135c0,0,11,-76,39,-118c0,0,29,-43,82,-70c0,0,53,-28,131,-28c0,0,99,0,178,43c0,0,78,44,107,111c0,0,29,68,29,229V833c0,0,0,95,-21,119c0,0,-29,33,-86,33H729v27h357V985h-38c0,0,-59,0,-91,-50c0,0,-16,-23,-16,-108V417c0,0,0,-152,-30,-236C911,181,881,97,792,37c0,0,-88,-59,-241,-59Z" 
id="f0_1l"
transform="scale(0.001,-0.001)" />

<path d="M30,0V27L485,632H260c0,0,-72,0,-94,-10c0,0,-22,-9,-36,-35c0,0,-20,-37,-23,-92H76l5,188H654V656L196,51H445c0,0,79,0,106,13c0,0,28,13,45,46c0,0,12,23,21,100h25L634,0Z" 
id="f0_2m"
transform="scale(0.001,-0.001)" />

<path d="M384,85c0,0,44,0,78,19c0,0,35,19,68,62V487c0,0,0,55,-15,87c0,0,-14,33,-51,55c0,0,-38,22,-85,22c0,0,-84,0,-143,-71c0,0,-60,-70,-60,-214c0,0,0,-138,61,-209c0,0,61,-72,147,-72Zm35,-411v27h15c0,0,41,0,63,12c0,0,15,8,24,30c0,0,9,21,9,83V119C530,119,462,39,411,9c0,0,-50,-29,-105,-29c0,0,-99,0,-177,90c0,0,-78,90,-78,241c0,0,0,174,103,283c0,0,103,109,248,109c0,0,43,0,78,-12c0,0,36,-12,65,-35c0,0,43,20,83,47h25V-174c0,0,0,-66,9,-85c0,0,9,-19,28,-30c0,0,19,-10,74,-10v-27Z" 
id="f0_2d"
transform="scale(0.001,-0.001)" />

<path d="M435,502c0,0,78,0,134,60c0,0,57,60,57,155c0,0,0,66,-27,122c0,0,-27,56,-76,84c0,0,-50,28,-112,28c0,0,-38,0,-98,-14V517c0,0,39,-8,70,-12c0,0,31,-3,52,-3ZM25,0V27H63c0,0,65,0,92,42c0,0,15,23,15,110V833c0,0,0,96,-20,119c0,0,-29,33,-87,33H25v27H396c0,0,136,0,214,-28c0,0,78,-28,132,-94c0,0,54,-67,54,-158c0,0,0,-124,-82,-202c0,0,-82,-77,-231,-77c0,0,-36,0,-79,5c0,0,-43,5,-91,16V179c0,0,0,-96,21,-119c0,0,28,-33,85,-33h39V0Z" 
id="f0_1g"
transform="scale(0.001,-0.001)" />

<path d="M435,0V856c0,0,-48,-47,-127,-93c0,0,-79,-46,-142,-69V824c0,0,113,52,197,128c0,0,85,75,120,146h86V0Z" 
id="f4_l"
transform="scale(0.001,-0.001)" />

<path d="M435,92c0,0,86,0,147,69c0,0,60,68,60,186c0,0,0,114,-60,179c0,0,-60,66,-152,66c0,0,-91,0,-154,-66c0,0,-64,-65,-64,-171c0,0,0,-70,30,-133c0,0,29,-64,82,-97c0,0,52,-33,111,-33Zm3,-110c0,0,-168,0,-274,123C164,105,58,228,58,512c0,0,0,317,117,461c0,0,102,125,275,125c0,0,129,0,212,-72c0,0,82,-72,99,-200L627,815c0,0,-18,79,-51,115c0,0,-54,58,-134,58c0,0,-64,0,-113,-36c0,0,-63,-46,-99,-135c0,0,-37,-89,-38,-253c0,0,48,74,118,110c0,0,70,36,147,36c0,0,135,0,229,-99c0,0,94,-99,94,-256c0,0,0,-103,-44,-191C736,164,691,75,614,28c0,0,-78,-46,-176,-46Z" 
id="f4_q"
transform="scale(0.001,-0.001)" />


</defs>
</svg>