<?xml version="1.0" encoding="UTF-8" standalone="no"?>
<!DOCTYPE svg PUBLIC "-//W3C//DTD SVG 1.1//EN"
"http://www.w3.org/Graphics/SVG/1.1/DTD/svg11.dtd">
<svg viewBox="0 0 909 1286" version="1.1" xmlns="http://www.w3.org/2000/svg" xmlns:xlink="http://www.w3.org/1999/xlink">
<defs>
<clipPath id="c0_181"><path d="M55,361.1V327.7H296.1v33.4Z" /></clipPath>
<clipPath id="c1_181"><path d="M55,420.6V387.2h52v33.4Z" /></clipPath>
<clipPath id="c2_181"><path d="M55,984.5V934.1H274.8v50.4Z" /></clipPath>
<clipPath id="c3_181"><path d="M55,1042.4V985.1H162.3v57.3Z" /></clipPath>
<clipPath id="c4_181"><path d="M55,1094.5V1044H165.3v50.5Z" /></clipPath>
<clipPath id="c5_181"><path d="M55,1155.7v-59.8H323.6v59.8Z" /></clipPath>
<style type="text/css"><![CDATA[
.g0_181{
fill: #D9D9D9;
}
.g1_181{
fill: none;
stroke: #000000;
stroke-width: 0.7638889;
stroke-linecap: butt;
stroke-linejoin: miter;
}
.g2_181{
fill: none;
stroke: #000000;
stroke-width: 0.9144564;
stroke-linecap: butt;
stroke-linejoin: round;
}
.g3_181{
fill: none;
stroke: #000000;
stroke-width: 0.9179483;
stroke-linecap: butt;
stroke-linejoin: round;
}
.g4_181{
fill: none;
stroke: #000000;
stroke-width: 0.9046246;
stroke-linecap: butt;
stroke-linejoin: round;
}
.g5_181{
fill: none;
stroke: #000000;
stroke-width: 0.9143334;
stroke-linecap: butt;
stroke-linejoin: round;
}
.g6_181{
}
]]></style>
</defs>
<image preserveAspectRatio="none" x="748" y="1196" width="94" height="58" xlink:href="img/1.png" />
<image preserveAspectRatio="none" x="336" y="42" width="259" height="49" xlink:href="img/2.png" />
<image preserveAspectRatio="none" x="342" y="50" width="247" height="27" xlink:href="img/3.png" />
<image preserveAspectRatio="none" x="341" y="46" width="238" height="41" xlink:href="img/4.png" />
<g fill="#FFFFFF" >
<use xlink:href="#f0_j" transform="matrix(11.5,0,0,11.5,354.9,70)" />
<use xlink:href="#f0_i" transform="matrix(11.5,0,0,11.5,364.2,70)" />
<use xlink:href="#f0_2n" transform="matrix(11.5,0,0,11.5,374.1,70)" />
<use xlink:href="#f0_t" transform="matrix(11.5,0,0,11.5,382.4,70)" />
<use xlink:href="#f0_oj" transform="matrix(11.5,0,0,11.5,391,70)" />
<use xlink:href="#f0_3e" transform="matrix(11.5,0,0,11.5,396.3,70)" />
<use xlink:href="#f0_1c" transform="matrix(11.5,0,0,11.5,406,70)" />
<use xlink:href="#f0_1c" transform="matrix(11.5,0,0,11.5,410.7,70)" />
<use xlink:href="#f0_oj" transform="matrix(11.5,0,0,11.5,415.4,70)" />
<use xlink:href="#f0_rz" transform="matrix(11.5,0,0,11.5,420.8,70)" />
<use xlink:href="#f0_rx" transform="matrix(11.5,0,0,11.5,429.7,70)" />
<use xlink:href="#f0_ry" transform="matrix(11.5,0,0,11.5,438.6,70)" />
<use xlink:href="#f0_s0" transform="matrix(11.5,0,0,11.5,447.4,70)" />
<use xlink:href="#f0_t" transform="matrix(11.5,0,0,11.5,460.2,70)" />
<use xlink:href="#f0_3e" transform="matrix(11.5,0,0,11.5,468.8,70)" />
<use xlink:href="#f0_5" transform="matrix(11.5,0,0,11.5,478.5,70)" />
<use xlink:href="#f0_1x" transform="matrix(11.5,0,0,11.5,489.2,70)" />
<use xlink:href="#f0_1c" transform="matrix(11.5,0,0,11.5,504.6,70)" />
<use xlink:href="#f0_1y" transform="matrix(11.5,0,0,11.5,509.3,70)" />
<use xlink:href="#f0_5" transform="matrix(11.5,0,0,11.5,520.9,70)" />
<use xlink:href="#f0_2t" transform="matrix(11.5,0,0,11.5,531.5,70)" />
<use xlink:href="#f0_1c" transform="matrix(11.5,0,0,11.5,540.2,70)" />
<use xlink:href="#f0_24" transform="matrix(11.5,0,0,11.5,544.9,70)" />
<use xlink:href="#f0_1y" transform="matrix(11.5,0,0,11.5,556.8,70)" />
</g>
<image preserveAspectRatio="none" x="554" y="46" width="36" height="41" xlink:href="img/5.png" />
<g fill="#FFFFFF" >
<use xlink:href="#f1_l" transform="matrix(11,0,0,11,770.1,1227.7)" />
<use xlink:href="#f1_q" transform="matrix(11,0,0,11,779,1227.7)" />
<use xlink:href="#f1_j" transform="matrix(11,0,0,11,792.4,1227.7)" />
<use xlink:href="#f1_l" transform="matrix(11,0,0,11,803,1227.7)" />
<use xlink:href="#f1_r" transform="matrix(11,0,0,11,811.9,1227.7)" />
</g>
<path fill-rule="evenodd" d="M52.7,1193.2H856.9v-.7H52.7v.7Z" class="g0_181" />
<path d="M37.9,99.4L873,98.5" class="g1_181" />
<g clip-path="url(#c0_181)">
<g fill="#000000" >
<use xlink:href="#f2_12" transform="matrix(12.5,0,0,11.9,72.5,349.1)" />
<use xlink:href="#f2_i" transform="matrix(12.5,0,0,11.9,83.8,349.1)" />
<use xlink:href="#f2_20" transform="matrix(12.5,0,0,11.9,87.5,349.1)" />
<use xlink:href="#f2_12" transform="matrix(12.5,0,0,11.9,121.8,349.1)" />
<use xlink:href="#f2_m" transform="matrix(12.5,0,0,11.9,148.3,349.1)" />
<use xlink:href="#f2_2e" transform="matrix(12.5,0,0,11.9,167.6,349.1)" />
<use xlink:href="#f2_i" transform="matrix(12.5,0,0,11.9,260.4,349.1)" />
<use xlink:href="#f2_i" transform="matrix(12.5,0,0,11.9,265,349.1)" />
<use xlink:href="#f2_i" transform="matrix(12.5,0,0,11.9,269.6,349.1)" />
<use xlink:href="#f2_c" transform="matrix(12.5,0,0,11.9,274.2,349.1)" />
<use xlink:href="#f2_25" transform="matrix(12.5,0,0,11.9,280.2,349.1)" />
<use xlink:href="#f2_d" transform="matrix(12.5,0,0,11.9,285.7,349.1)" />
<use xlink:href="#f3_x" transform="matrix(12.5,0,0,11.9,107.4,349.1)" />
<use xlink:href="#f3_3a" transform="matrix(12.5,0,0,11.9,135.7,349.1)" />
<use xlink:href="#f3_2c" transform="matrix(12.5,0,0,11.9,157.8,349.1)" />
<use xlink:href="#f3_50" transform="matrix(18.8,0,0,17.9,60.1,355.7)" />
</g>
</g>
<image preserveAspectRatio="none" x="73" y="312" width="81" height="31" xlink:href="img/6.png" />
<image preserveAspectRatio="none" x="58" y="324" width="111" height="47" xlink:href="img/7.png" />
<g clip-path="url(#c0_181)">
<g fill="#000000" >
<use xlink:href="#f4_28" transform="matrix(12.5,0,0,11.9,97,349.1)" />
</g>
</g>
<g fill="#000000" >
<use xlink:href="#f2_11" transform="matrix(12,0,0,12,55,379.9)" />
<use xlink:href="#f2_1z" transform="matrix(12,0,0,12,68.2,379.9)" />
<use xlink:href="#f2_1z" transform="matrix(12,0,0,12,76.4,379.9)" />
<use xlink:href="#f2_2b" transform="matrix(12,0,0,12,84.5,379.9)" />
<use xlink:href="#f2_2e" transform="matrix(12,0,0,12,93.7,379.9)" />
<use xlink:href="#f2_20" transform="matrix(12,0,0,12,99.8,379.9)" />
<use xlink:href="#f2_25" transform="matrix(12,0,0,12,109,379.9)" />
<use xlink:href="#f2_2a" transform="matrix(12,0,0,12,114.1,379.9)" />
<use xlink:href="#f2_23" transform="matrix(12,0,0,12,123.3,379.9)" />
<use xlink:href="#f2_2g" transform="matrix(12,0,0,12,137,379.9)" />
<use xlink:href="#f2_2b" transform="matrix(12,0,0,12,142.1,379.9)" />
<use xlink:href="#f2_11" transform="matrix(12,0,0,12,155.8,379.9)" />
<use xlink:href="#f2_29" transform="matrix(12,0,0,12,169.1,379.9)" />
<use xlink:href="#f2_2c" transform="matrix(12,0,0,12,183.2,379.9)" />
<use xlink:href="#f2_21" transform="matrix(12,0,0,12,192.4,379.9)" />
<use xlink:href="#f2_2e" transform="matrix(12,0,0,12,200.5,379.9)" />
<use xlink:href="#f2_21" transform="matrix(12,0,0,12,206.7,379.9)" />
<use xlink:href="#f2_b" transform="matrix(12,0,0,12,214.8,379.9)" />
<use xlink:href="#f2_2f" transform="matrix(12,0,0,12,218,379.9)" />
<use xlink:href="#f2_1z" transform="matrix(12,0,0,12,229.8,379.9)" />
<use xlink:href="#f2_25" transform="matrix(12,0,0,12,238,379.9)" />
<use xlink:href="#f2_2e" transform="matrix(12,0,0,12,243.1,379.9)" />
<use xlink:href="#f2_1z" transform="matrix(12,0,0,12,249.3,379.9)" />
<use xlink:href="#f2_2h" transform="matrix(12,0,0,12,257.4,379.9)" />
<use xlink:href="#f2_25" transform="matrix(12,0,0,12,266.5,379.9)" />
<use xlink:href="#f2_2g" transform="matrix(12,0,0,12,271.6,379.9)" />
<use xlink:href="#f2_1x" transform="matrix(12,0,0,12,276.7,379.9)" />
<use xlink:href="#f2_28" transform="matrix(12,0,0,12,284.8,379.9)" />
<use xlink:href="#f2_28" transform="matrix(12,0,0,12,294.5,379.9)" />
<use xlink:href="#f2_1x" transform="matrix(12,0,0,12,299.6,379.9)" />
<use xlink:href="#f2_2j" transform="matrix(12,0,0,12,307.7,379.9)" />
<use xlink:href="#f2_g" transform="matrix(12,0,0,12,321,379.9)" />
</g>
<g clip-path="url(#c1_181)">
<g fill="#000000" >
<use xlink:href="#f2_12" transform="matrix(12.2,0,0,11.9,72.3,408.6)" />
<use xlink:href="#f2_i" transform="matrix(12.2,0,0,11.9,83.4,408.6)" />
<use xlink:href="#f2_20" transform="matrix(12.2,0,0,11.9,87.1,408.6)" />
<use xlink:href="#f3_50" transform="matrix(18.3,0,0,17.9,60,415.2)" />
</g>
</g>
<image preserveAspectRatio="none" x="73" y="371" width="79" height="32" xlink:href="img/8.png" />
<image preserveAspectRatio="none" x="58" y="384" width="109" height="47" xlink:href="img/9.png" />
<g clip-path="url(#c1_181)">
<g fill="#000000" >
<use xlink:href="#f4_28" transform="matrix(12.2,0,0,11.9,96.5,408.6)" />
</g>
</g>
<g fill="#000000" >
<use xlink:href="#f5_x" transform="matrix(12,0,0,12,106.6,408.4)" />
<use xlink:href="#f5_f2" transform="matrix(12,0,0,12,121.5,408.4)" />
<use xlink:href="#f2_k" transform="matrix(10.5,0,0,10.5,131.4,410)" />
<use xlink:href="#f2_4a" transform="matrix(12,0,0,12,144,408.4)" />
<use xlink:href="#f2_2a" transform="matrix(12,0,0,12,159,408.4)" />
<use xlink:href="#f2_21" transform="matrix(12,0,0,12,168.1,408.4)" />
<use xlink:href="#f2_2g" transform="matrix(12,0,0,12,176.3,408.4)" />
<use xlink:href="#f2_1z" transform="matrix(12,0,0,12,185.9,408.4)" />
<use xlink:href="#f2_2h" transform="matrix(12,0,0,12,194,408.4)" />
<use xlink:href="#f2_2e" transform="matrix(12,0,0,12,203.1,408.4)" />
<use xlink:href="#f2_2e" transform="matrix(12,0,0,12,209.3,408.4)" />
<use xlink:href="#f2_21" transform="matrix(12,0,0,12,215.4,408.4)" />
<use xlink:href="#f2_2a" transform="matrix(12,0,0,12,223.6,408.4)" />
<use xlink:href="#f2_2g" transform="matrix(12,0,0,12,232.7,408.4)" />
<use xlink:href="#f2_21" transform="matrix(12,0,0,12,242.4,408.4)" />
<use xlink:href="#f2_2a" transform="matrix(12,0,0,12,250.5,408.4)" />
<use xlink:href="#f2_1z" transform="matrix(12,0,0,12,259.7,408.4)" />
<use xlink:href="#f2_28" transform="matrix(12,0,0,12,267.8,408.4)" />
<use xlink:href="#f2_2b" transform="matrix(12,0,0,12,272.9,408.4)" />
<use xlink:href="#f2_2f" transform="matrix(12,0,0,12,282.1,408.4)" />
<use xlink:href="#f2_21" transform="matrix(12,0,0,12,289.2,408.4)" />
<use xlink:href="#f2_20" transform="matrix(12,0,0,12,297.3,408.4)" />
<use xlink:href="#f2_1y" transform="matrix(12,0,0,12,311.1,408.4)" />
<use xlink:href="#f2_2l" transform="matrix(12,0,0,12,320.2,408.4)" />
<use xlink:href="#f2_2g" transform="matrix(12,0,0,12,334,408.4)" />
<use xlink:href="#f2_24" transform="matrix(12,0,0,12,339.1,408.4)" />
<use xlink:href="#f2_21" transform="matrix(12,0,0,12,348.3,408.4)" />
<use xlink:href="#f2_1z" transform="matrix(12,0,0,12,361,408.4)" />
<use xlink:href="#f2_25" transform="matrix(12,0,0,12,369.1,408.4)" />
<use xlink:href="#f2_2e" transform="matrix(12,0,0,12,374.2,408.4)" />
<use xlink:href="#f2_1z" transform="matrix(12,0,0,12,380.3,408.4)" />
<use xlink:href="#f2_28" transform="matrix(12,0,0,12,388.5,408.4)" />
<use xlink:href="#f2_21" transform="matrix(12,0,0,12,393.6,408.4)" />
<use xlink:href="#f2_2b" transform="matrix(12,0,0,12,406.3,408.4)" />
<use xlink:href="#f2_22" transform="matrix(12,0,0,12,415.4,408.4)" />
<use xlink:href="#f2_2e" transform="matrix(12,0,0,12,426.1,408.4)" />
<use xlink:href="#f2_1x" transform="matrix(12,0,0,12,432.2,408.4)" />
<use xlink:href="#f2_20" transform="matrix(12,0,0,12,440.4,408.4)" />
<use xlink:href="#f2_25" transform="matrix(12,0,0,12,449.5,408.4)" />
<use xlink:href="#f2_2h" transform="matrix(12,0,0,12,454.6,408.4)" />
<use xlink:href="#f2_2f" transform="matrix(12,0,0,12,463.7,408.4)" />
<use xlink:href="#f2_2e" transform="matrix(12,0,0,12,475.4,408.4)" />
<use xlink:href="#f5_x" transform="matrix(12,0,0,12,55,445.5)" />
<use xlink:href="#f5_f2" transform="matrix(12,0,0,12,69.9,445.5)" />
<use xlink:href="#f2_k" transform="matrix(10.5,0,0,10.5,79.8,447.1)" />
<use xlink:href="#f2_4a" transform="matrix(12,0,0,12,92.4,445.5)" />
<use xlink:href="#f2_2g" transform="matrix(12,0,0,12,107.3,445.5)" />
<use xlink:href="#f2_2b" transform="matrix(12,0,0,12,112.5,445.5)" />
<use xlink:href="#f2_2g" transform="matrix(12,0,0,12,121.5,445.5)" />
<use xlink:href="#f2_1x" transform="matrix(12,0,0,12,126.6,445.5)" />
<use xlink:href="#f2_28" transform="matrix(12,0,0,12,134.8,445.5)" />
<use xlink:href="#f2_2a" transform="matrix(12,0,0,12,144.4,445.5)" />
<use xlink:href="#f2_2h" transform="matrix(12,0,0,12,153.6,445.5)" />
<use xlink:href="#f2_29" transform="matrix(12,0,0,12,162.8,445.5)" />
<use xlink:href="#f2_1y" transform="matrix(12,0,0,12,177,445.5)" />
<use xlink:href="#f2_21" transform="matrix(12,0,0,12,186.1,445.5)" />
<use xlink:href="#f2_2e" transform="matrix(12,0,0,12,194.3,445.5)" />
<use xlink:href="#f2_2b" transform="matrix(12,0,0,12,205,445.5)" />
<use xlink:href="#f2_22" transform="matrix(12,0,0,12,214.2,445.5)" />
<use xlink:href="#f2_2g" transform="matrix(12,0,0,12,224.8,445.5)" />
<use xlink:href="#f2_2h" transform="matrix(12,0,0,12,229.9,445.5)" />
<use xlink:href="#f2_2e" transform="matrix(12,0,0,12,239.1,445.5)" />
<use xlink:href="#f2_2a" transform="matrix(12,0,0,12,245.2,445.5)" />
<use xlink:href="#f2_2f" transform="matrix(12,0,0,12,254.4,445.5)" />
<use xlink:href="#f2_4a" transform="matrix(12,0,0,12,266.1,445.5)" />
<use xlink:href="#f2_19" transform="matrix(12,0,0,12,281.1,445.5)" />
<use xlink:href="#f5_x" transform="matrix(12,0,0,12,55,475.9)" />
<use xlink:href="#f5_f2" transform="matrix(12,0,0,12,69.9,475.9)" />
<use xlink:href="#f2_k" transform="matrix(10.5,0,0,10.5,79.8,477.4)" />
<use xlink:href="#f5_c" transform="matrix(12,0,0,12,92.4,475.9)" />
<use xlink:href="#f5_2a" transform="matrix(12,0,0,12,98.5,475.9)" />
<use xlink:href="#f5_6n" transform="matrix(12,0,0,12,112.3,475.9)" />
<use xlink:href="#f5_m" transform="matrix(12,0,0,12,127.2,475.9)" />
<use xlink:href="#f5_i5" transform="matrix(12,0,0,12,136.4,475.9)" />
<use xlink:href="#f5_2e" transform="matrix(12,0,0,12,145.5,475.9)" />
<use xlink:href="#f5_d" transform="matrix(12,0,0,12,151.7,475.9)" />
<use xlink:href="#f5_19" transform="matrix(12,0,0,12,162.4,475.9)" />
<use xlink:href="#f2_c" transform="matrix(12,0,0,12,287.5,475.9)" />
<use xlink:href="#f2_25" transform="matrix(12,0,0,12,293.6,475.9)" />
<use xlink:href="#f2_25" transform="matrix(12,0,0,12,298.8,475.9)" />
<use xlink:href="#f2_d" transform="matrix(12,0,0,12,303.9,475.9)" />
<use xlink:href="#f2_13" transform="matrix(12,0,0,12,55,500.5)" />
<use xlink:href="#f2_2b" transform="matrix(12,0,0,12,67.2,500.5)" />
<use xlink:href="#f2_29" transform="matrix(12,0,0,12,76.4,500.5)" />
<use xlink:href="#f2_2c" transform="matrix(12,0,0,12,90.5,500.5)" />
<use xlink:href="#f2_1x" transform="matrix(12,0,0,12,99.7,500.5)" />
<use xlink:href="#f2_2e" transform="matrix(12,0,0,12,107.9,500.5)" />
<use xlink:href="#f2_25" transform="matrix(12,0,0,12,114,500.5)" />
<use xlink:href="#f2_2a" transform="matrix(12,0,0,12,119.1,500.5)" />
<use xlink:href="#f2_23" transform="matrix(12,0,0,12,128.3,500.5)" />
<use xlink:href="#f2_21" transform="matrix(12,0,0,12,142,500.5)" />
<use xlink:href="#f2_2d" transform="matrix(12,0,0,12,150.2,500.5)" />
<use xlink:href="#f2_2h" transform="matrix(12,0,0,12,159.3,500.5)" />
<use xlink:href="#f2_1x" transform="matrix(12,0,0,12,168.5,500.5)" />
<use xlink:href="#f2_2g" transform="matrix(12,0,0,12,176.7,500.5)" />
<use xlink:href="#f2_25" transform="matrix(12,0,0,12,181.8,500.5)" />
<use xlink:href="#f2_2b" transform="matrix(12,0,0,12,186.9,500.5)" />
<use xlink:href="#f2_2a" transform="matrix(12,0,0,12,196.1,500.5)" />
<use xlink:href="#f2_c" transform="matrix(12,0,0,12,209.8,500.5)" />
<use xlink:href="#f2_25" transform="matrix(12,0,0,12,215.9,500.5)" />
<use xlink:href="#f2_d" transform="matrix(12,0,0,12,221,500.5)" />
<use xlink:href="#f2_1x" transform="matrix(12,0,0,12,231.6,500.5)" />
<use xlink:href="#f2_2a" transform="matrix(12,0,0,12,239.7,500.5)" />
<use xlink:href="#f2_20" transform="matrix(12,0,0,12,248.9,500.5)" />
<use xlink:href="#f2_c" transform="matrix(12,0,0,12,262.6,500.5)" />
<use xlink:href="#f2_25" transform="matrix(12,0,0,12,268.8,500.5)" />
<use xlink:href="#f2_25" transform="matrix(12,0,0,12,273.9,500.5)" />
<use xlink:href="#f2_d" transform="matrix(12,0,0,12,279,500.5)" />
<use xlink:href="#f2_g" transform="matrix(12,0,0,12,285.1,500.5)" />
<use xlink:href="#f2_2j" transform="matrix(12,0,0,12,294.2,500.5)" />
<use xlink:href="#f2_21" transform="matrix(12,0,0,12,307.5,500.5)" />
<use xlink:href="#f2_23" transform="matrix(12,0,0,12,320.1,500.5)" />
<use xlink:href="#f2_21" transform="matrix(12,0,0,12,329.3,500.5)" />
<use xlink:href="#f2_2g" transform="matrix(12,0,0,12,337.4,500.5)" />
<use xlink:href="#f5_12" transform="matrix(12,0,0,12,55,528.9)" />
<use xlink:href="#f5_6n" transform="matrix(12,0,0,12,71.8,528.9)" />
<use xlink:href="#f5_m" transform="matrix(12,0,0,12,86.7,528.9)" />
<use xlink:href="#f5_i5" transform="matrix(12,0,0,12,95.9,528.9)" />
<use xlink:href="#f5_2e" transform="matrix(12,0,0,12,105.2,528.9)" />
<use xlink:href="#f5_x" transform="matrix(12,0,0,12,115.8,528.9)" />
<use xlink:href="#f5_f2" transform="matrix(12,0,0,12,130.8,528.9)" />
<use xlink:href="#f2_k" transform="matrix(10.5,0,0,10.5,140.6,530.5)" />
<use xlink:href="#f5_c" transform="matrix(12,0,0,12,148.6,528.9)" />
<use xlink:href="#f5_2a" transform="matrix(12,0,0,12,154.7,528.9)" />
<use xlink:href="#f5_6n" transform="matrix(12,0,0,12,168.5,528.9)" />
<use xlink:href="#f5_m" transform="matrix(12,0,0,12,183.4,528.9)" />
<use xlink:href="#f5_i5" transform="matrix(12,0,0,12,192.6,528.9)" />
<use xlink:href="#f5_2e" transform="matrix(12,0,0,12,201.9,528.9)" />
<use xlink:href="#f5_d" transform="matrix(12,0,0,12,208,528.9)" />
<use xlink:href="#f5_19" transform="matrix(12,0,0,12,218.6,528.9)" />
<use xlink:href="#f5_12" transform="matrix(12,0,0,12,55,559.3)" />
<use xlink:href="#f5_x" transform="matrix(12,0,0,12,71.8,559.3)" />
<use xlink:href="#f5_f2" transform="matrix(12,0,0,12,86.7,559.3)" />
<use xlink:href="#f2_k" transform="matrix(10.5,0,0,10.5,96.5,560.8)" />
<use xlink:href="#f2_2a" transform="matrix(12,0,0,12,104.6,559.3)" />
<use xlink:href="#f2_19" transform="matrix(12,0,0,12,113.8,559.3)" />
<use xlink:href="#f2_16" transform="matrix(12,0,0,12,55,583.9)" />
<use xlink:href="#f2_2b" transform="matrix(12,0,0,12,65.2,583.9)" />
<use xlink:href="#f2_2e" transform="matrix(12,0,0,12,74.4,583.9)" />
<use xlink:href="#f2_1x" transform="matrix(12,0,0,12,85.1,583.9)" />
<use xlink:href="#f2_2a" transform="matrix(12,0,0,12,93.2,583.9)" />
<use xlink:href="#f2_2l" transform="matrix(12,0,0,12,102.4,583.9)" />
<use xlink:href="#f2_2c" transform="matrix(12,0,0,12,116.1,583.9)" />
<use xlink:href="#f2_2b" transform="matrix(12,0,0,12,125.3,583.9)" />
<use xlink:href="#f2_25" transform="matrix(12,0,0,12,134.5,583.9)" />
<use xlink:href="#f2_2a" transform="matrix(12,0,0,12,139.6,583.9)" />
<use xlink:href="#f2_2g" transform="matrix(12,0,0,12,148.7,583.9)" />
<use xlink:href="#f2_25" transform="matrix(12,0,0,12,158.4,583.9)" />
<use xlink:href="#f2_2a" transform="matrix(12,0,0,12,163.5,583.9)" />
<use xlink:href="#f2_2f" transform="matrix(12,0,0,12,172.7,583.9)" />
<use xlink:href="#f2_25" transform="matrix(12,0,0,12,179.8,583.9)" />
<use xlink:href="#f2_20" transform="matrix(12,0,0,12,185,583.9)" />
<use xlink:href="#f2_21" transform="matrix(12,0,0,12,194,583.9)" />
<use xlink:href="#f2_2g" transform="matrix(12,0,0,12,206.8,583.9)" />
<use xlink:href="#f2_24" transform="matrix(12,0,0,12,211.9,583.9)" />
<use xlink:href="#f2_21" transform="matrix(12,0,0,12,221,583.9)" />
<use xlink:href="#f2_21" transform="matrix(12,0,0,12,233.7,583.9)" />
<use xlink:href="#f2_29" transform="matrix(12,0,0,12,241.8,583.9)" />
<use xlink:href="#f2_2c" transform="matrix(12,0,0,12,256,583.9)" />
<use xlink:href="#f2_2g" transform="matrix(12,0,0,12,265.2,583.9)" />
<use xlink:href="#f2_2l" transform="matrix(12,0,0,12,270.3,583.9)" />
<use xlink:href="#f2_2f" transform="matrix(12,0,0,12,284,583.9)" />
<use xlink:href="#f2_2c" transform="matrix(12,0,0,12,291.1,583.9)" />
<use xlink:href="#f2_1x" transform="matrix(12,0,0,12,300.3,583.9)" />
<use xlink:href="#f2_1z" transform="matrix(12,0,0,12,308.5,583.9)" />
<use xlink:href="#f2_21" transform="matrix(12,0,0,12,316.6,583.9)" />
<use xlink:href="#f2_2f" transform="matrix(12,0,0,12,329.3,583.9)" />
<use xlink:href="#f2_2h" transform="matrix(12,0,0,12,336.5,583.9)" />
<use xlink:href="#f2_2e" transform="matrix(12,0,0,12,345.6,583.9)" />
<use xlink:href="#f2_2e" transform="matrix(12,0,0,12,351.7,583.9)" />
<use xlink:href="#f2_2b" transform="matrix(12,0,0,12,357.9,583.9)" />
<use xlink:href="#f2_2h" transform="matrix(12,0,0,12,367.1,583.9)" />
<use xlink:href="#f2_2a" transform="matrix(12,0,0,12,376.2,583.9)" />
<use xlink:href="#f2_20" transform="matrix(12,0,0,12,385.4,583.9)" />
<use xlink:href="#f2_21" transform="matrix(12,0,0,12,394.6,583.9)" />
<use xlink:href="#f2_20" transform="matrix(12,0,0,12,402.7,583.9)" />
<use xlink:href="#f2_1y" transform="matrix(12,0,0,12,416.4,583.9)" />
<use xlink:href="#f2_2l" transform="matrix(12,0,0,12,425.5,583.9)" />
<use xlink:href="#f2_2g" transform="matrix(12,0,0,12,439.3,583.9)" />
<use xlink:href="#f2_2b" transform="matrix(12,0,0,12,444.4,583.9)" />
<use xlink:href="#f2_2e" transform="matrix(12,0,0,12,453.5,583.9)" />
<use xlink:href="#f2_2b" transform="matrix(12,0,0,12,459.7,583.9)" />
<use xlink:href="#f2_25" transform="matrix(12,0,0,12,468.9,583.9)" />
<use xlink:href="#f2_20" transform="matrix(12,0,0,12,474,583.9)" />
<use xlink:href="#f2_1x" transform="matrix(12,0,0,12,487.7,583.9)" />
<use xlink:href="#f2_2a" transform="matrix(12,0,0,12,495.8,583.9)" />
<use xlink:href="#f2_20" transform="matrix(12,0,0,12,504.9,583.9)" />
<use xlink:href="#f2_2b" transform="matrix(12,0,0,12,518.7,583.9)" />
<use xlink:href="#f2_2h" transform="matrix(12,0,0,12,527.8,583.9)" />
<use xlink:href="#f2_2g" transform="matrix(12,0,0,12,537,583.9)" />
<use xlink:href="#f2_2f" transform="matrix(12,0,0,12,542.1,583.9)" />
<use xlink:href="#f2_25" transform="matrix(12,0,0,12,549.2,583.9)" />
<use xlink:href="#f2_20" transform="matrix(12,0,0,12,554.3,583.9)" />
<use xlink:href="#f2_21" transform="matrix(12,0,0,12,563.5,583.9)" />
<use xlink:href="#f2_2g" transform="matrix(12,0,0,12,576.2,583.9)" />
<use xlink:href="#f2_24" transform="matrix(12,0,0,12,581.3,583.9)" />
<use xlink:href="#f2_21" transform="matrix(12,0,0,12,590.5,583.9)" />
<use xlink:href="#f2_2g" transform="matrix(12,0,0,12,603.1,583.9)" />
<use xlink:href="#f2_2b" transform="matrix(12,0,0,12,608.2,583.9)" />
<use xlink:href="#f2_2e" transform="matrix(12,0,0,12,617.4,583.9)" />
<use xlink:href="#f2_2b" transform="matrix(12,0,0,12,623.6,583.9)" />
<use xlink:href="#f2_25" transform="matrix(12,0,0,12,632.7,583.9)" />
<use xlink:href="#f2_20" transform="matrix(12,0,0,12,637.8,583.9)" />
<use xlink:href="#f2_g" transform="matrix(12,0,0,12,647,583.9)" />
<use xlink:href="#f2_29" transform="matrix(12,0,0,12,656.2,583.9)" />
<use xlink:href="#f2_1x" transform="matrix(12,0,0,12,670.3,583.9)" />
<use xlink:href="#f2_23" transform="matrix(12,0,0,12,678.5,583.9)" />
<use xlink:href="#f2_2a" transform="matrix(12,0,0,12,687.6,583.9)" />
<use xlink:href="#f2_21" transform="matrix(12,0,0,12,696.8,583.9)" />
<use xlink:href="#f2_2g" transform="matrix(12,0,0,12,704.9,583.9)" />
<use xlink:href="#f2_25" transform="matrix(12,0,0,12,710.1,583.9)" />
<use xlink:href="#f2_1z" transform="matrix(12,0,0,12,715.2,583.9)" />
<use xlink:href="#f2_22" transform="matrix(12,0,0,12,727.9,583.9)" />
<use xlink:href="#f2_25" transform="matrix(12,0,0,12,734,583.9)" />
<use xlink:href="#f2_21" transform="matrix(12,0,0,12,739.1,583.9)" />
<use xlink:href="#f2_28" transform="matrix(12,0,0,12,747.2,583.9)" />
<use xlink:href="#f2_20" transform="matrix(12,0,0,12,752.3,583.9)" />
<use xlink:href="#f2_12" transform="matrix(12,0,0,12,766.1,583.9)" />
<use xlink:href="#f2_25" transform="matrix(12,0,0,12,782.9,583.9)" />
<use xlink:href="#f2_2f" transform="matrix(12,0,0,12,788,583.9)" />
<use xlink:href="#f2_2m" transform="matrix(12,0,0,12,799.7,583.9)" />
<use xlink:href="#f2_21" transform="matrix(12,0,0,12,807.9,583.9)" />
<use xlink:href="#f2_2e" transform="matrix(12,0,0,12,816,583.9)" />
<use xlink:href="#f2_2b" transform="matrix(12,0,0,12,822.2,583.9)" />
<use xlink:href="#f2_1y" transform="matrix(12,0,0,12,55,606.7)" />
<use xlink:href="#f2_21" transform="matrix(12,0,0,12,64.2,606.7)" />
<use xlink:href="#f2_1z" transform="matrix(12,0,0,12,72.3,606.7)" />
<use xlink:href="#f2_1x" transform="matrix(12,0,0,12,80.4,606.7)" />
<use xlink:href="#f2_2h" transform="matrix(12,0,0,12,88.6,606.7)" />
<use xlink:href="#f2_2f" transform="matrix(12,0,0,12,97.8,606.7)" />
<use xlink:href="#f2_21" transform="matrix(12,0,0,12,104.9,606.7)" />
<use xlink:href="#f2_2g" transform="matrix(12,0,0,12,117.6,606.7)" />
<use xlink:href="#f2_24" transform="matrix(12,0,0,12,122.7,606.7)" />
<use xlink:href="#f2_21" transform="matrix(12,0,0,12,131.9,606.7)" />
<use xlink:href="#f2_2a" transform="matrix(12,0,0,12,144.6,606.7)" />
<use xlink:href="#f2_21" transform="matrix(12,0,0,12,153.7,606.7)" />
<use xlink:href="#f2_2g" transform="matrix(12,0,0,12,161.9,606.7)" />
<use xlink:href="#f2_1z" transform="matrix(12,0,0,12,171.6,606.7)" />
<use xlink:href="#f2_2h" transform="matrix(12,0,0,12,179.7,606.7)" />
<use xlink:href="#f2_2e" transform="matrix(12,0,0,12,188.9,606.7)" />
<use xlink:href="#f2_2e" transform="matrix(12,0,0,12,195,606.7)" />
<use xlink:href="#f2_21" transform="matrix(12,0,0,12,201.1,606.7)" />
<use xlink:href="#f2_2a" transform="matrix(12,0,0,12,209.2,606.7)" />
<use xlink:href="#f2_2g" transform="matrix(12,0,0,12,218.4,606.7)" />
<use xlink:href="#f2_21" transform="matrix(12,0,0,12,228,606.7)" />
<use xlink:href="#f2_2a" transform="matrix(12,0,0,12,236.1,606.7)" />
<use xlink:href="#f2_1z" transform="matrix(12,0,0,12,245.3,606.7)" />
<use xlink:href="#f2_28" transform="matrix(12,0,0,12,253.4,606.7)" />
<use xlink:href="#f2_2b" transform="matrix(12,0,0,12,258.5,606.7)" />
<use xlink:href="#f2_2f" transform="matrix(12,0,0,12,267.7,606.7)" />
<use xlink:href="#f2_21" transform="matrix(12,0,0,12,274.9,606.7)" />
<use xlink:href="#f2_20" transform="matrix(12,0,0,12,283,606.7)" />
<use xlink:href="#f2_25" transform="matrix(12,0,0,12,296.7,606.7)" />
<use xlink:href="#f2_2a" transform="matrix(12,0,0,12,301.8,606.7)" />
<use xlink:href="#f2_2g" transform="matrix(12,0,0,12,315.5,606.7)" />
<use xlink:href="#f2_24" transform="matrix(12,0,0,12,320.7,606.7)" />
<use xlink:href="#f2_21" transform="matrix(12,0,0,12,329.7,606.7)" />
<use xlink:href="#f2_2f" transform="matrix(12,0,0,12,337.9,606.7)" />
<use xlink:href="#f2_21" transform="matrix(12,0,0,12,345,606.7)" />
<use xlink:href="#f2_2f" transform="matrix(12,0,0,12,357.7,606.7)" />
<use xlink:href="#f2_2c" transform="matrix(12,0,0,12,364.9,606.7)" />
<use xlink:href="#f2_1x" transform="matrix(12,0,0,12,374.1,606.7)" />
<use xlink:href="#f2_1z" transform="matrix(12,0,0,12,382.2,606.7)" />
<use xlink:href="#f2_21" transform="matrix(12,0,0,12,390.3,606.7)" />
<use xlink:href="#f2_2f" transform="matrix(12,0,0,12,398.5,606.7)" />
<use xlink:href="#f2_25" transform="matrix(12,0,0,12,410.2,606.7)" />
<use xlink:href="#f2_2f" transform="matrix(12,0,0,12,415.3,606.7)" />
<use xlink:href="#f2_2m" transform="matrix(12,0,0,12,427,606.7)" />
<use xlink:href="#f2_21" transform="matrix(12,0,0,12,435.1,606.7)" />
<use xlink:href="#f2_2e" transform="matrix(12,0,0,12,443.2,606.7)" />
<use xlink:href="#f2_2b" transform="matrix(12,0,0,12,449.4,606.7)" />
<use xlink:href="#f2_i" transform="matrix(12,0,0,12,458.6,606.7)" />
<use xlink:href="#f2_12" transform="matrix(12,0,0,12,467.7,606.7)" />
<use xlink:href="#f2_2h" transform="matrix(12,0,0,12,480,606.7)" />
<use xlink:href="#f2_2g" transform="matrix(12,0,0,12,489.1,606.7)" />
<use xlink:href="#f2_29" transform="matrix(12,0,0,12,498.8,606.7)" />
<use xlink:href="#f2_1x" transform="matrix(12,0,0,12,513,606.7)" />
<use xlink:href="#f2_23" transform="matrix(12,0,0,12,521.2,606.7)" />
<use xlink:href="#f2_2a" transform="matrix(12,0,0,12,530.3,606.7)" />
<use xlink:href="#f2_21" transform="matrix(12,0,0,12,539.5,606.7)" />
<use xlink:href="#f2_2g" transform="matrix(12,0,0,12,547.6,606.7)" />
<use xlink:href="#f2_25" transform="matrix(12,0,0,12,552.8,606.7)" />
<use xlink:href="#f2_1z" transform="matrix(12,0,0,12,557.9,606.7)" />
<use xlink:href="#f2_22" transform="matrix(12,0,0,12,570.6,606.7)" />
<use xlink:href="#f2_25" transform="matrix(12,0,0,12,576.6,606.7)" />
<use xlink:href="#f2_21" transform="matrix(12,0,0,12,581.7,606.7)" />
<use xlink:href="#f2_28" transform="matrix(12,0,0,12,589.9,606.7)" />
<use xlink:href="#f2_20" transform="matrix(12,0,0,12,595,606.7)" />
<use xlink:href="#f2_25" transform="matrix(12,0,0,12,608.7,606.7)" />
<use xlink:href="#f2_2f" transform="matrix(12,0,0,12,613.8,606.7)" />
<use xlink:href="#f2_2a" transform="matrix(12,0,0,12,625.5,606.7)" />
<use xlink:href="#f2_2b" transform="matrix(12,0,0,12,634.7,606.7)" />
<use xlink:href="#f2_2g" transform="matrix(12,0,0,12,643.9,606.7)" />
<use xlink:href="#f2_21" transform="matrix(12,0,0,12,653.5,606.7)" />
<use xlink:href="#f2_2k" transform="matrix(12,0,0,12,661.7,606.7)" />
<use xlink:href="#f2_1x" transform="matrix(12,0,0,12,670.9,606.7)" />
<use xlink:href="#f2_1z" transform="matrix(12,0,0,12,679,606.7)" />
<use xlink:href="#f2_2g" transform="matrix(12,0,0,12,687.1,606.7)" />
<use xlink:href="#f2_28" transform="matrix(12,0,0,12,692.2,606.7)" />
<use xlink:href="#f2_2l" transform="matrix(12,0,0,12,697.3,606.7)" />
<use xlink:href="#f2_2m" transform="matrix(12,0,0,12,711,606.7)" />
<use xlink:href="#f2_21" transform="matrix(12,0,0,12,719.1,606.7)" />
<use xlink:href="#f2_2e" transform="matrix(12,0,0,12,727.2,606.7)" />
<use xlink:href="#f2_2b" transform="matrix(12,0,0,12,733.4,606.7)" />
<use xlink:href="#f2_i" transform="matrix(12,0,0,12,742.6,606.7)" />
<use xlink:href="#f6_1f" transform="matrix(12,0,0,12,441.1,629.5)" />
<use xlink:href="#f6_1i" transform="matrix(12,0,0,12,455.4,629.5)" />
<use xlink:href="#f2_c" transform="matrix(12,0,0,12,55,652.3)" />
<use xlink:href="#f2_1x" transform="matrix(12,0,0,12,61.1,652.3)" />
<use xlink:href="#f2_d" transform="matrix(12,0,0,12,69.2,652.3)" />
<use xlink:href="#f2_15" transform="matrix(12,0,0,12,55,928.6)" />
<use xlink:href="#f2_28" transform="matrix(12,0,0,12,66.2,928.6)" />
<use xlink:href="#f2_21" transform="matrix(12,0,0,12,71.3,928.6)" />
<use xlink:href="#f2_1z" transform="matrix(12,0,0,12,79.4,928.6)" />
<use xlink:href="#f2_2g" transform="matrix(12,0,0,12,87.6,928.6)" />
<use xlink:href="#f2_2e" transform="matrix(12,0,0,12,92.7,928.6)" />
<use xlink:href="#f2_25" transform="matrix(12,0,0,12,98.8,928.6)" />
<use xlink:href="#f2_1z" transform="matrix(12,0,0,12,103.9,928.6)" />
<use xlink:href="#f2_22" transform="matrix(12,0,0,12,116.7,928.6)" />
<use xlink:href="#f2_25" transform="matrix(12,0,0,12,122.8,928.6)" />
<use xlink:href="#f2_21" transform="matrix(12,0,0,12,127.9,928.6)" />
<use xlink:href="#f2_28" transform="matrix(12,0,0,12,135.9,928.6)" />
<use xlink:href="#f2_20" transform="matrix(12,0,0,12,141,928.6)" />
<use xlink:href="#f2_1x" transform="matrix(12,0,0,12,154.7,928.6)" />
<use xlink:href="#f2_1z" transform="matrix(12,0,0,12,162.9,928.6)" />
<use xlink:href="#f2_1z" transform="matrix(12,0,0,12,171,928.6)" />
<use xlink:href="#f2_21" transform="matrix(12,0,0,12,179.1,928.6)" />
<use xlink:href="#f2_28" transform="matrix(12,0,0,12,187.3,928.6)" />
<use xlink:href="#f2_21" transform="matrix(12,0,0,12,192.4,928.6)" />
<use xlink:href="#f2_2e" transform="matrix(12,0,0,12,200.6,928.6)" />
<use xlink:href="#f2_1x" transform="matrix(12,0,0,12,206.7,928.6)" />
<use xlink:href="#f2_2g" transform="matrix(12,0,0,12,214.7,928.6)" />
<use xlink:href="#f2_21" transform="matrix(12,0,0,12,219.8,928.6)" />
<use xlink:href="#f2_2g" transform="matrix(12,0,0,12,232.6,928.6)" />
<use xlink:href="#f2_24" transform="matrix(12,0,0,12,237.7,928.6)" />
<use xlink:href="#f2_21" transform="matrix(12,0,0,12,246.8,928.6)" />
<use xlink:href="#f2_1z" transform="matrix(12,0,0,12,259.5,928.6)" />
<use xlink:href="#f2_24" transform="matrix(12,0,0,12,267.7,928.6)" />
<use xlink:href="#f2_1x" transform="matrix(12,0,0,12,276.9,928.6)" />
<use xlink:href="#f2_2e" transform="matrix(12,0,0,12,285,928.6)" />
<use xlink:href="#f2_23" transform="matrix(12,0,0,12,291.1,928.6)" />
<use xlink:href="#f2_21" transform="matrix(12,0,0,12,300.3,928.6)" />
<use xlink:href="#f2_20" transform="matrix(12,0,0,12,308.4,928.6)" />
<use xlink:href="#f2_2c" transform="matrix(12,0,0,12,322.1,928.6)" />
<use xlink:href="#f2_1x" transform="matrix(12,0,0,12,331.2,928.6)" />
<use xlink:href="#f2_2e" transform="matrix(12,0,0,12,339.4,928.6)" />
<use xlink:href="#f2_2g" transform="matrix(12,0,0,12,345.5,928.6)" />
<use xlink:href="#f2_25" transform="matrix(12,0,0,12,350.6,928.6)" />
<use xlink:href="#f2_1z" transform="matrix(12,0,0,12,355.7,928.6)" />
<use xlink:href="#f2_28" transform="matrix(12,0,0,12,363.9,928.6)" />
<use xlink:href="#f2_21" transform="matrix(12,0,0,12,369,928.6)" />
<use xlink:href="#f2_2j" transform="matrix(12,0,0,12,381.8,928.6)" />
<use xlink:href="#f2_24" transform="matrix(12,0,0,12,395,928.6)" />
<use xlink:href="#f2_21" transform="matrix(12,0,0,12,404.2,928.6)" />
<use xlink:href="#f2_2e" transform="matrix(12,0,0,12,412.3,928.6)" />
<use xlink:href="#f2_21" transform="matrix(12,0,0,12,418.4,928.6)" />
<use xlink:href="#f2_1x" transform="matrix(12,0,0,12,431.1,928.6)" />
<use xlink:href="#f2_2f" transform="matrix(12,0,0,12,439.3,928.6)" />
<use xlink:href="#f2_29" transform="matrix(12,0,0,12,451,928.6)" />
<use xlink:href="#f2_1x" transform="matrix(12,0,0,12,465.1,928.6)" />
<use xlink:href="#f2_23" transform="matrix(12,0,0,12,473.3,928.6)" />
<use xlink:href="#f2_2a" transform="matrix(12,0,0,12,482.4,928.6)" />
<use xlink:href="#f2_21" transform="matrix(12,0,0,12,491.6,928.6)" />
<use xlink:href="#f2_2g" transform="matrix(12,0,0,12,499.7,928.6)" />
<use xlink:href="#f2_25" transform="matrix(12,0,0,12,504.9,928.6)" />
<use xlink:href="#f2_1z" transform="matrix(12,0,0,12,510,928.6)" />
<use xlink:href="#f2_22" transform="matrix(12,0,0,12,522.7,928.6)" />
<use xlink:href="#f2_25" transform="matrix(12,0,0,12,528.8,928.6)" />
<use xlink:href="#f2_21" transform="matrix(12,0,0,12,533.9,928.6)" />
<use xlink:href="#f2_28" transform="matrix(12,0,0,12,542.1,928.6)" />
<use xlink:href="#f2_20" transform="matrix(12,0,0,12,547.2,928.6)" />
<use xlink:href="#f2_29" transform="matrix(12,0,0,12,560.9,928.6)" />
<use xlink:href="#f2_1x" transform="matrix(12,0,0,12,575.1,928.6)" />
<use xlink:href="#f2_27" transform="matrix(12,0,0,12,583.2,928.6)" />
<use xlink:href="#f2_21" transform="matrix(12,0,0,12,592.4,928.6)" />
<use xlink:href="#f2_2f" transform="matrix(12,0,0,12,600.5,928.6)" />
<use xlink:href="#f2_25" transform="matrix(12,0,0,12,612.3,928.6)" />
<use xlink:href="#f2_2g" transform="matrix(12,0,0,12,617.4,928.6)" />
<use xlink:href="#f2_2f" transform="matrix(12,0,0,12,622.5,928.6)" />
<use xlink:href="#f2_2c" transform="matrix(12,0,0,12,634.2,928.6)" />
<use xlink:href="#f2_1x" transform="matrix(12,0,0,12,643.4,928.6)" />
<use xlink:href="#f2_2g" transform="matrix(12,0,0,12,651.5,928.6)" />
<use xlink:href="#f2_24" transform="matrix(12,0,0,12,656.6,928.6)" />
<use xlink:href="#f2_1z" transform="matrix(12,0,0,12,670.4,928.6)" />
<use xlink:href="#f2_25" transform="matrix(12,0,0,12,678.5,928.6)" />
<use xlink:href="#f2_2e" transform="matrix(12,0,0,12,683.6,928.6)" />
<use xlink:href="#f2_1z" transform="matrix(12,0,0,12,689.7,928.6)" />
<use xlink:href="#f2_2h" transform="matrix(12,0,0,12,697.8,928.6)" />
<use xlink:href="#f2_28" transform="matrix(12,0,0,12,707,928.6)" />
<use xlink:href="#f2_1x" transform="matrix(12,0,0,12,712.1,928.6)" />
<use xlink:href="#f2_2e" transform="matrix(12,0,0,12,720.2,928.6)" />
<use xlink:href="#f2_i" transform="matrix(12,0,0,12,726.3,928.6)" />
</g>
<path d="M108.2,958.7h10.9m125.1,0h25.2" class="g2_181" />
<g clip-path="url(#c2_181)">
<g fill="#000000" >
<use xlink:href="#f2_m" transform="matrix(7.2,0,0,7,146.1,955)" />
<use xlink:href="#f2_l" transform="matrix(12.4,0,0,12,109.1,951.7)" />
<use xlink:href="#f2_29" transform="matrix(12.4,0,0,12,245.4,951.7)" />
<use xlink:href="#f2_2i" transform="matrix(12.4,0,0,12,259.4,951.7)" />
<use xlink:href="#f2_1b" transform="matrix(12.4,0,0,12,57.8,963.3)" />
<use xlink:href="#f2_i" transform="matrix(12.4,0,0,12,71,963.3)" />
<use xlink:href="#f2_15" transform="matrix(12.4,0,0,12,75,963.3)" />
<use xlink:href="#f2_i" transform="matrix(12.4,0,0,12,85.9,963.3)" />
<use xlink:href="#f2_29" transform="matrix(12.4,0,0,12,122.3,963.3)" />
<use xlink:href="#f2_2i" transform="matrix(12.4,0,0,12,136.3,963.3)" />
<use xlink:href="#f2_2e" transform="matrix(12.4,0,0,12,234.8,963.3)" />
<use xlink:href="#f2_m" transform="matrix(12.4,0,0,12,109.3,977.6)" />
<use xlink:href="#f2_2d" transform="matrix(12.4,0,0,12,246.3,977.6)" />
<use xlink:href="#f2_12" transform="matrix(12.4,0,0,12,255.5,977.6)" />
<use xlink:href="#f3_x" transform="matrix(12.4,0,0,12,93.6,963.3)" />
</g>
</g>
<path d="M72.6,1016.9H83.5m29.6,0h29.7" class="g3_181" />
<g clip-path="url(#c3_181)">
<g fill="#000000" >
<use xlink:href="#f2_m" transform="matrix(7.3,0,0,7,153.2,998.9)" />
<use xlink:href="#f2_l" transform="matrix(12.5,0,0,12,73.4,1009.9)" />
<use xlink:href="#f2_2d" transform="matrix(12.5,0,0,12,113.9,1009.9)" />
<use xlink:href="#f2_12" transform="matrix(12.5,0,0,12,123.2,1009.9)" />
<use xlink:href="#f2_2e" transform="matrix(12.5,0,0,12,135.3,1009.9)" />
<use xlink:href="#f2_29" transform="matrix(12.5,0,0,12,86.7,1021.5)" />
<use xlink:href="#f2_m" transform="matrix(12.5,0,0,12,73.7,1035.8)" />
<use xlink:href="#f2_29" transform="matrix(12.5,0,0,12,120.9,1035.8)" />
<use xlink:href="#f3_4o" transform="matrix(12.5,0,0,12,103.2,1011.4)" />
<use xlink:href="#f3_54" transform="matrix(12.5,0,0,12,145.5,1011.4)" />
<use xlink:href="#f3_x" transform="matrix(12.5,0,0,12,57.8,1021.5)" />
<use xlink:href="#f3_4p" transform="matrix(12.5,0,0,12,103.2,1026.4)" />
<use xlink:href="#f3_55" transform="matrix(12.5,0,0,12,145.5,1026.4)" />
<use xlink:href="#f3_4q" transform="matrix(12.5,0,0,12,103.2,1037.9)" />
<use xlink:href="#f3_56" transform="matrix(12.5,0,0,12,145.5,1037.9)" />
</g>
</g>
<path d="M108.7,1071.7h51.6" class="g4_181" />
<g clip-path="url(#c4_181)">
<g fill="#000000" >
<use xlink:href="#f2_m" transform="matrix(7.1,0,0,7,119.8,1056.4)" />
<use xlink:href="#f2_m" transform="matrix(7.1,0,0,7,138.7,1056.4)" />
<use xlink:href="#f2_m" transform="matrix(7.1,0,0,7,152.3,1056.4)" />
<use xlink:href="#f2_2d" transform="matrix(12.3,0,0,12.1,109.6,1064.7)" />
<use xlink:href="#f2_12" transform="matrix(12.3,0,0,12.1,126.1,1064.7)" />
<use xlink:href="#f2_2e" transform="matrix(12.3,0,0,12.1,144.9,1064.7)" />
<use xlink:href="#f2_1b" transform="matrix(12.3,0,0,12.1,57.8,1076.3)" />
<use xlink:href="#f2_i" transform="matrix(12.3,0,0,12.1,71.1,1076.3)" />
<use xlink:href="#f2_15" transform="matrix(12.3,0,0,12.1,75.2,1076.3)" />
<use xlink:href="#f2_i" transform="matrix(12.3,0,0,12.1,86.1,1076.3)" />
<use xlink:href="#f2_m" transform="matrix(12.3,0,0,12.1,122.6,1090.7)" />
<use xlink:href="#f2_29" transform="matrix(12.3,0,0,12.1,132.2,1090.7)" />
<use xlink:href="#f3_x" transform="matrix(12.3,0,0,12.1,94,1076.3)" />
</g>
</g>
<path d="M132,1123.6h35.6" class="g5_181" />
<g clip-path="url(#c5_181)">
<g fill="#000000" >
<use xlink:href="#f3_c" transform="matrix(12.1,0,0,15.7,198.7,1116.4)" />
<use xlink:href="#f3_d" transform="matrix(12.1,0,0,15.7,224.7,1116.4)" />
<use xlink:href="#f3_c" transform="matrix(12.1,0,0,18.8,209.5,1145.8)" />
<use xlink:href="#f3_d" transform="matrix(12.1,0,0,18.8,250.1,1145.8)" />
</g>
</g>
<path d="M187.1,1123.6h69.6m19.6,0h43.6" class="g5_181" />
<g clip-path="url(#c5_181)">
<g fill="#000000" >
<use xlink:href="#f2_2c" transform="matrix(7.1,0,0,7,311.7,1147.3)" />
<use xlink:href="#f2_2c" transform="matrix(7.1,0,0,7,241.6,1148.3)" />
<use xlink:href="#f2_m" transform="matrix(12.3,0,0,12,206.3,1115.1)" />
<use xlink:href="#f2_21" transform="matrix(12.3,0,0,12,215.4,1115.1)" />
<use xlink:href="#f2_12" transform="matrix(12.3,0,0,12,233.1,1115.1)" />
<use xlink:href="#f2_2d" transform="matrix(12.3,0,0,12,139.4,1116.7)" />
<use xlink:href="#f2_12" transform="matrix(12.3,0,0,12,148.5,1116.7)" />
<use xlink:href="#f2_21" transform="matrix(12.3,0,0,12,288.1,1116.7)" />
<use xlink:href="#f2_12" transform="matrix(12.3,0,0,12,296.2,1116.7)" />
<use xlink:href="#f2_c" transform="matrix(12.3,0,0,12,57.5,1128.2)" />
<use xlink:href="#f2_1y" transform="matrix(12.3,0,0,12,64.1,1128.2)" />
<use xlink:href="#f2_d" transform="matrix(12.3,0,0,12,73.6,1128.2)" />
<use xlink:href="#f2_c" transform="matrix(12.3,0,0,12,79.6,1128.2)" />
<use xlink:href="#f2_25" transform="matrix(12.3,0,0,12,85.6,1128.2)" />
<use xlink:href="#f2_d" transform="matrix(12.3,0,0,12,91,1128.2)" />
<use xlink:href="#f2_22" transform="matrix(12.3,0,0,12,97.3,1128.2)" />
<use xlink:href="#f2_m" transform="matrix(12.3,0,0,12,133.2,1142.6)" />
<use xlink:href="#f2_29" transform="matrix(12.3,0,0,12,152.4,1142.6)" />
<use xlink:href="#f2_o" transform="matrix(12.3,0,0,12,277.4,1142.6)" />
<use xlink:href="#f2_29" transform="matrix(12.3,0,0,12,296.6,1142.6)" />
<use xlink:href="#f2_m" transform="matrix(12.3,0,0,12,188.3,1143.6)" />
<use xlink:href="#f2_o" transform="matrix(12.3,0,0,12,217,1143.6)" />
<use xlink:href="#f2_29" transform="matrix(12.3,0,0,12,226.5,1143.6)" />
<use xlink:href="#f3_1x" transform="matrix(7.1,0,0,7,104.3,1132.9)" />
<use xlink:href="#f3_x" transform="matrix(12.3,0,0,12,117.4,1128.2)" />
<use xlink:href="#f3_x" transform="matrix(12.3,0,0,12,172.5,1128.2)" />
<use xlink:href="#f3_x" transform="matrix(12.3,0,0,12,261.6,1128.2)" />
<use xlink:href="#f3_2c" transform="matrix(12.3,0,0,12,142.6,1142.6)" />
<use xlink:href="#f3_2c" transform="matrix(12.3,0,0,12,286.9,1142.6)" />
<use xlink:href="#f3_2c" transform="matrix(12.3,0,0,12,197.8,1143.6)" />
</g>
</g>
<image preserveAspectRatio="none" x="55" y="127" width="461" height="199" xlink:href="img/10.png" />
<image preserveAspectRatio="none" x="55" y="658" width="258" height="252" xlink:href="img/11.png" />
<path fill-rule="evenodd" d="M37.4,38.1h.7v-.7h-.7v.7Z" class="g6_181" />
<path fill-rule="evenodd" d="M37.4,38.1h.7v-.7h-.7v.7Z" class="g6_181" />
<path fill-rule="evenodd" d="M38.1,38.1H871.5v-.7H38.1v.7Z" class="g6_181" />
<path fill-rule="evenodd" d="M871.5,38.1h.7v-.7h-.7v.7Z" class="g6_181" />
<path fill-rule="evenodd" d="M871.5,38.1h.7v-.7h-.7v.7Z" class="g6_181" />
<path fill-rule="evenodd" d="M37.4,1248.2h.7V38.1h-.7V1248.2Z" class="g6_181" />
<path fill-rule="evenodd" d="M872.2,1248.2h.8V38.1h-.8V1248.2Z" class="g6_181" />
<path fill-rule="evenodd" d="M871.5,1248.2h.7V38.1h-.7V1248.2Z" class="g6_181" />
<path fill-rule="evenodd" d="M37.4,1249h.7v-.8h-.7v.8Z" class="g6_181" />
<path fill-rule="evenodd" d="M37.4,1249h.7v-.8h-.7v.8Z" class="g6_181" />
<path fill-rule="evenodd" d="M38.1,1249.7H871.5v-.7H38.1v.7Z" class="g6_181" />
<path fill-rule="evenodd" d="M38.1,1249H871.5v-.8H38.1v.8Z" class="g6_181" />
<path fill-rule="evenodd" d="M872.2,1249.7h.8v-1.5h-.8v1.5Z" class="g6_181" />
<path fill-rule="evenodd" d="M871.5,1249.7H873v-.7h-1.5v.7Z" class="g6_181" />
<path fill-rule="evenodd" d="M871.5,1249h.7v-.8h-.7v.8Z" class="g6_181" />
<path fill-rule="evenodd" d="M871.5,1249h.7v-.8h-.7v.8Z" class="g6_181" />
<defs>
<path d="M489,-15c0,0,-99,0,-179,30c0,0,-80,30,-136,91c0,0,-56,61,-85,152c0,0,-30,91,-30,212c0,0,0,123,32,218c0,0,33,96,92,161c0,0,59,65,142,98c0,0,82,34,181,34c0,0,40,0,78,-7c0,0,37,-7,69,-18c0,0,31,-11,57,-25c0,0,25,-14,35,-24c0,0,10,-10,14,-17c0,0,4,-7,6,-17c0,0,2,-11,3,-25c0,0,2,-14,2,-35c0,0,0,-22,-2,-38c0,0,-1,-15,-5,-25c0,0,-4,-10,-9,-14c0,0,-5,-5,-12,-5c0,0,-11,0,-28,13c0,0,-18,13,-45,29c0,0,-27,16,-65,29c0,0,-37,13,-89,13c0,0,-58,0,-103,-23c0,0,-45,-23,-77,-67c0,0,-31,-44,-48,-106c0,0,-16,-61,-16,-139c0,0,0,-85,17,-147c0,0,18,-62,50,-103c0,0,33,-40,79,-60c0,0,45,-19,103,-19c0,0,52,0,90,12c0,0,38,12,65,27c0,0,27,15,45,27c0,0,17,12,27,12c0,0,8,0,12,-3c0,0,4,-3,7,-12c0,0,3,-9,5,-25c0,0,1,-16,1,-43c0,0,0,-18,-1,-31c0,0,-1,-14,-3,-23c0,0,-2,-9,-6,-16c0,0,-4,-7,-12,-15c0,0,-8,-9,-32,-22c0,0,-23,-14,-57,-26C661,13,627,1,583,-6c0,0,-43,-9,-94,-9Z" 
id="f0_j"
transform="scale(0.001,-0.001)" />

<path d="M440,150c0,0,41,0,68,8c0,0,28,9,49,26c0,0,20,16,32,41c0,0,11,25,11,58c0,0,0,33,-11,60c0,0,-11,26,-33,44c0,0,-21,18,-55,28c0,0,-33,9,-87,9H298V150ZM407,567c0,0,42,0,68,10c0,0,25,10,42,28c0,0,16,17,24,41c0,0,9,24,9,50c0,0,0,29,-9,52c0,0,-9,23,-27,39c0,0,-18,15,-45,23c0,0,-27,8,-72,8H298V567ZM164,0c0,0,-25,0,-42,15c0,0,-16,14,-16,47V903c0,0,0,33,16,48c0,0,17,14,42,14H406c0,0,88,0,150,-15c0,0,61,-15,103,-45c0,0,42,-30,65,-77c0,0,22,-46,22,-108c0,0,0,-36,-9,-67c0,0,-9,-31,-26,-56c0,0,-17,-25,-42,-45c0,0,-25,-19,-57,-31c0,0,41,-7,76,-26c0,0,34,-19,60,-48c0,0,26,-30,41,-69c0,0,15,-40,15,-89c0,0,0,-51,-14,-93c0,0,-15,-42,-40,-74c0,0,-25,-32,-59,-55c0,0,-35,-23,-77,-38C614,29,573,14,525,7C525,7,478,0,420,0Z" 
id="f0_i"
transform="scale(0.001,-0.001)" />

<path d="M320,-17c0,0,-50,0,-93,9c0,0,-43,8,-76,19c0,0,-32,11,-54,24C97,35,75,48,65,58c0,0,-10,9,-14,28c0,0,-4,18,-4,52c0,0,0,23,1,39c0,0,2,15,5,25c0,0,4,10,9,14c0,0,6,4,13,4c0,0,11,0,30,-12c0,0,19,-13,49,-28c0,0,30,-15,71,-27c0,0,42,-12,96,-12c0,0,36,0,64,8c0,0,29,9,49,25c0,0,19,15,30,38c0,0,10,23,10,52c0,0,0,33,-18,56c0,0,-18,24,-46,42c0,0,-29,18,-66,34c0,0,-36,16,-75,34c0,0,-39,18,-76,41c0,0,-36,23,-65,54c0,0,-29,32,-47,75c0,0,-17,44,-17,104c0,0,0,70,25,122c0,0,26,53,70,88c0,0,43,34,103,51c0,0,59,18,125,18c0,0,35,0,69,-6c0,0,34,-5,64,-14c0,0,30,-9,53,-20c0,0,23,-11,31,-18c0,0,7,-8,10,-13c0,0,3,-5,4,-14c0,0,2,-8,3,-21c0,0,1,-13,1,-33c0,0,0,-21,-1,-36c0,0,-1,-15,-4,-25c0,0,-3,-9,-7,-14c0,0,-5,-4,-14,-4c0,0,-8,0,-26,10c0,0,-18,10,-44,23c0,0,-26,12,-60,22c0,0,-34,10,-75,10c0,0,-32,0,-56,-8c0,0,-24,-8,-40,-21c0,0,-16,-14,-24,-34c0,0,-8,-19,-8,-41c0,0,0,-32,18,-56c0,0,17,-23,46,-42c0,0,30,-18,67,-34c0,0,38,-16,76,-34c0,0,39,-18,76,-41c0,0,38,-22,67,-54c0,0,29,-32,47,-75c0,0,18,-43,18,-101c0,0,0,-76,-29,-133c0,0,-28,-58,-77,-96C572,60,524,21,459,2c0,0,-65,-19,-139,-19Z" 
id="f0_2n"
transform="scale(0.001,-0.001)" />

<path d="M164,0c0,0,-25,0,-42,15c0,0,-16,14,-16,47V903c0,0,0,33,16,48c0,0,17,14,42,14H645c0,0,7,0,12,-4c0,0,5,-3,9,-13c0,0,4,-9,6,-24c0,0,2,-14,2,-36c0,0,0,-21,-2,-36c0,0,-2,-14,-6,-23c0,0,-4,-9,-9,-13c0,0,-5,-4,-12,-4H301V576H593c0,0,6,0,12,-4c0,0,6,-4,9,-13c0,0,4,-8,6,-23c0,0,2,-14,2,-35c0,0,0,-22,-2,-36c0,0,-2,-14,-6,-23c0,0,-3,-8,-9,-12c0,0,-6,-4,-12,-4H301V154H649c0,0,6,0,12,-5c0,0,5,-4,9,-13c0,0,4,-9,6,-23c0,0,2,-15,2,-36c0,0,0,-22,-2,-36c0,0,-2,-15,-6,-24c0,0,-4,-9,-9,-13c0,0,-6,-4,-12,-4Z" 
id="f0_t"
transform="scale(0.001,-0.001)" />

<path d="M79,297c0,0,-19,0,-27,18c0,0,-8,17,-8,60c0,0,0,41,8,59c0,0,8,17,27,17H389c0,0,9,0,15,-4c0,0,7,-4,11,-13c0,0,5,-9,7,-23c0,0,1,-15,1,-36c0,0,0,-43,-8,-61c0,0,-8,-17,-26,-17Z" 
id="f0_oj"
transform="scale(0.001,-0.001)" />

<path d="M121,-4c0,0,-39,0,-60,2C61,-2,39,0,32,8c0,0,-8,8,-3,24c0,0,4,15,18,41L279,495L64,892c0,0,-14,26,-19,42c0,0,-5,17,4,24c0,0,9,8,32,10c0,0,23,2,65,2c0,0,35,0,56,-2c0,0,20,-1,32,-4c0,0,12,-4,17,-10c0,0,5,-6,9,-15L431,620L595,939c0,0,5,9,10,15c0,0,5,6,16,10c0,0,10,3,29,4c0,0,19,2,53,2c0,0,37,0,59,-2c0,0,22,-2,30,-10c0,0,8,-8,4,-24c0,0,-4,-16,-17,-42L564,497L793,73c0,0,14,-26,18,-41c0,0,4,-16,-5,-24c0,0,-9,-8,-32,-10c0,0,-24,-2,-65,-2c0,0,-36,0,-56,2c0,0,-20,1,-31,3c0,0,-12,4,-17,10c0,0,-5,6,-9,15L414,374L233,26c0,0,-4,-9,-9,-15c0,0,-6,-6,-17,-10c0,0,-12,-2,-32,-3c0,0,-21,-2,-54,-2Z" 
id="f0_3e"
transform="scale(0.001,-0.001)" />

<path d="M204,-4c0,0,-28,0,-47,2c0,0,-19,2,-31,5c0,0,-11,4,-16,10c0,0,-4,6,-4,13V939c0,0,0,7,4,13c0,0,5,6,17,10c0,0,11,3,30,6c0,0,19,2,47,2c0,0,29,0,48,-2c0,0,18,-3,29,-6c0,0,11,-4,16,-10c0,0,5,-6,5,-13V26c0,0,0,-7,-5,-13c0,0,-5,-6,-16,-10c0,0,-11,-3,-29,-5c0,0,-19,-2,-48,-2Z" 
id="f0_1c"
transform="scale(0.001,-0.001)" />

<path d="M127,0c0,0,-16,0,-28,3C99,3,87,6,80,15c0,0,-8,8,-11,25c0,0,-3,16,-3,42c0,0,0,25,2,42c0,0,2,18,8,32c0,0,6,14,15,27c0,0,9,13,24,29L282,390c0,0,50,53,81,95c0,0,30,43,47,79c0,0,17,35,24,65c0,0,6,30,6,57c0,0,0,24,-8,46c0,0,-8,22,-23,39c0,0,-15,16,-38,25c0,0,-23,10,-55,10c0,0,-44,0,-78,-12c0,0,-33,-11,-59,-25c0,0,-26,-13,-43,-25c0,0,-17,-12,-27,-12c0,0,-7,0,-11,5c0,0,-5,4,-8,15c0,0,-3,10,-5,28c0,0,-2,17,-2,42c0,0,0,18,1,29c0,0,1,12,4,20c0,0,2,9,6,15c0,0,3,6,13,15c0,0,9,9,34,23c0,0,25,14,61,27c0,0,37,14,81,23c0,0,44,9,92,9c0,0,75,0,131,-19c0,0,57,-19,94,-53c0,0,37,-34,55,-81c0,0,19,-47,19,-100c0,0,0,-47,-9,-93c0,0,-9,-45,-37,-98c0,0,-29,-52,-80,-116c0,0,-52,-64,-136,-148L299,159H679c0,0,8,0,14,-4c0,0,6,-5,11,-14c0,0,4,-9,7,-25c0,0,2,-15,2,-36c0,0,0,-22,-2,-37c0,0,-2,-15,-6,-25c0,0,-3,-10,-9,-14c0,0,-6,-4,-14,-4Z" 
id="f0_rz"
transform="scale(0.001,-0.001)" />

<path d="M385,138c0,0,29,0,52,9c0,0,22,10,39,28c0,0,17,19,28,47c0,0,11,29,19,66c0,0,7,37,9,84c0,0,3,47,3,104c0,0,0,69,-4,122c0,0,-4,52,-11,91c0,0,-8,39,-20,66c0,0,-12,27,-28,43c0,0,-16,16,-37,22c0,0,-21,7,-47,7c0,0,-44,0,-73,-21c0,0,-28,-21,-45,-64c0,0,-17,-42,-24,-106c0,0,-6,-63,-6,-148c0,0,0,-103,8,-171c0,0,8,-67,26,-107c0,0,17,-40,45,-56c0,0,27,-16,66,-16ZM378,-17c0,0,-99,0,-164,33c0,0,-65,34,-103,98c0,0,-38,64,-54,156c0,0,-15,92,-15,209c0,0,0,115,19,208c0,0,19,94,61,160c0,0,42,65,110,101c0,0,68,35,165,35c0,0,99,0,164,-34c0,0,65,-34,103,-98c0,0,39,-64,53,-156c0,0,15,-92,15,-209c0,0,0,-115,-18,-209c0,0,-19,-93,-61,-159C653,118,611,53,543,17c0,0,-67,-34,-165,-34Z" 
id="f0_rx"
transform="scale(0.001,-0.001)" />

<path d="M142,0c0,0,-6,0,-12,4c0,0,-5,3,-9,12c0,0,-4,9,-6,23c0,0,-3,15,-3,36c0,0,0,21,2,36c0,0,2,14,6,23c0,0,4,9,10,13c0,0,5,5,12,5H322V779L166,693c0,0,-17,-8,-28,-10c0,0,-1,0,-3,0c-4,0,-10,1,-14,5c0,0,-6,6,-8,22c0,0,-2,15,-2,44c0,0,0,18,0,29c0,0,1,12,4,20c0,0,3,8,8,14c0,0,5,5,14,11L345,962c0,0,4,3,9,5c0,0,6,2,15,3c0,0,9,1,23,2c0,0,15,0,38,0c0,0,28,0,46,-1c0,0,17,-1,26,-4c0,0,9,-3,12,-7c0,0,3,-4,3,-11V152H675c0,0,7,0,12,-5c0,0,6,-4,10,-13c0,0,4,-9,6,-23c0,0,2,-15,2,-36c0,0,0,-21,-2,-36c0,0,-3,-14,-7,-23c0,0,-4,-9,-9,-12c0,0,-5,-4,-12,-4Z" 
id="f0_ry"
transform="scale(0.001,-0.001)" />

<path d="M337,-17c0,0,-50,0,-93,8c0,0,-43,7,-76,16c0,0,-34,11,-55,22c0,0,-22,11,-29,17c0,0,-6,6,-10,13c0,0,-3,8,-6,18c0,0,-2,10,-3,25c0,0,-1,16,-1,37c0,0,0,36,6,50c0,0,6,13,17,13c0,0,8,0,26,-10c0,0,18,-10,47,-21c0,0,28,-12,66,-22c0,0,38,-10,87,-10c0,0,41,0,72,10c0,0,31,9,53,27c0,0,22,17,33,42c0,0,11,25,11,56c0,0,0,34,-13,61c0,0,-13,26,-39,45c0,0,-26,20,-65,30c0,0,-39,10,-92,10H189c0,0,-9,0,-16,3c0,0,-7,3,-11,11c0,0,-5,8,-7,23c0,0,-1,14,-1,37c0,0,0,22,1,36c0,0,2,13,6,21c0,0,4,7,11,10c0,0,6,3,15,3h85c0,0,43,0,77,10c0,0,33,10,56,29c0,0,23,19,35,45c0,0,12,27,12,59c0,0,0,25,-8,47c0,0,-9,22,-25,38c0,0,-16,16,-41,26c0,0,-26,9,-60,9c0,0,-39,0,-73,-11c0,0,-34,-12,-62,-26c0,0,-27,-13,-46,-25c0,0,-19,-12,-28,-12c0,0,-6,0,-10,2c0,0,-5,3,-8,11c0,0,-3,7,-4,21c0,0,-2,14,-2,37c0,0,0,18,1,31c0,0,1,12,3,20c0,0,2,8,5,14c0,0,4,6,11,13c0,0,8,7,31,21c0,0,23,14,58,28c0,0,35,13,81,22c0,0,46,10,100,10c0,0,70,0,124,-17c0,0,54,-16,91,-47c0,0,37,-31,56,-76c0,0,19,-46,19,-102c0,0,0,-44,-11,-83c0,0,-12,-38,-33,-68c0,0,-22,-29,-54,-50c0,0,-33,-21,-75,-32v-2c0,0,50,-6,91,-26c0,0,40,-19,68,-49c0,0,28,-30,43,-68c0,0,15,-37,15,-81c0,0,0,-72,-28,-128c0,0,-27,-56,-77,-94C604,60,555,22,487,2c0,0,-69,-19,-150,-19Z" 
id="f0_s0"
transform="scale(0.001,-0.001)" />

<path d="M589,371L453,782h-1L317,371ZM106,-4c0,0,-35,0,-54,2C52,-2,32,0,25,8c0,0,-7,9,-5,24c0,0,2,16,11,42L329,931c0,0,4,13,10,21c0,0,6,7,19,12c0,0,13,4,36,5c0,0,23,1,61,1c0,0,44,0,71,-1c0,0,26,-1,40,-5c0,0,15,-5,21,-13c0,0,6,-8,11,-22L896,73c0,0,9,-27,11,-43c0,0,3,-15,-6,-23c0,0,-8,-7,-29,-9c0,0,-21,-2,-57,-2c0,0,-38,0,-59,1c0,0,-22,1,-33,4c0,0,-11,3,-16,9c0,0,-4,6,-7,16L635,220H272L211,31c0,0,-2,-11,-7,-18c0,0,-5,-7,-16,-11c0,0,-11,-3,-31,-4c0,0,-19,-2,-51,-2Z" 
id="f0_5"
transform="scale(0.001,-0.001)" />

<path d="M198,-4c0,0,-27,0,-45,2c0,0,-18,2,-28,5c0,0,-11,4,-15,10c0,0,-4,6,-4,13V887c0,0,0,38,20,58c0,0,20,20,53,20H308c0,0,34,0,59,-6c0,0,24,-5,42,-18c0,0,18,-13,30,-35c0,0,12,-21,21,-52L669,279h3L889,852c0,0,9,32,21,53c0,0,11,22,27,35c0,0,15,14,36,19c0,0,21,6,48,6h132c0,0,21,0,35,-5c0,0,15,-5,24,-15c0,0,9,-11,14,-25c0,0,5,-15,5,-33V26c0,0,0,-7,-4,-13c0,0,-4,-6,-15,-10c0,0,-11,-3,-29,-5c0,0,-18,-2,-45,-2c0,0,-27,0,-45,2c0,0,-18,2,-28,5c0,0,-11,4,-15,10c0,0,-5,6,-5,13V813h-1L764,27c0,0,-3,-10,-10,-16c0,0,-6,-6,-18,-10c0,0,-12,-3,-29,-4c0,0,-18,-1,-44,-1c0,0,-25,0,-43,2c0,0,-18,2,-29,5c0,0,-12,4,-19,10c0,0,-6,6,-9,14L293,813h-2V26c0,0,0,-7,-4,-13c0,0,-4,-6,-15,-10c0,0,-11,-3,-29,-5c0,0,-17,-2,-45,-2Z" 
id="f0_1x"
transform="scale(0.001,-0.001)" />

<path d="M193,-4c0,0,-26,0,-43,2c0,0,-18,2,-27,6c0,0,-10,4,-14,10c0,0,-3,6,-3,13V895c0,0,0,35,20,53c0,0,21,17,50,17H282c0,0,28,0,47,-5c0,0,20,-5,35,-16c0,0,15,-11,29,-31c0,0,13,-20,27,-49L608,511c0,0,17,-32,33,-63c0,0,16,-31,31,-62c0,0,14,-31,29,-60c0,0,14,-30,27,-60h1c0,0,-2,52,-3,109c0,0,-1,57,-1,108V936c0,0,0,7,4,13c0,0,5,6,15,11c0,0,10,4,28,6c0,0,17,2,44,2c0,0,25,0,42,-2c0,0,17,-2,27,-6c0,0,9,-5,13,-11c0,0,4,-6,4,-13V68c0,0,0,-17,-6,-30c0,0,-6,-14,-17,-23C879,15,869,6,856,2c0,0,-14,-3,-28,-3H744c0,0,-26,0,-45,4c0,0,-19,5,-35,19c0,0,-16,14,-31,38c0,0,-15,23,-34,60L359,572c0,0,-21,40,-43,86c0,0,-21,47,-38,91h-2c0,0,3,-54,5,-107c0,0,2,-53,2,-110V27c0,0,0,-7,-5,-13c0,0,-4,-6,-14,-10c0,0,-10,-4,-27,-6c0,0,-17,-2,-44,-2Z" 
id="f0_1y"
transform="scale(0.001,-0.001)" />

<path d="M378,-4c0,0,-28,0,-47,2c0,0,-19,2,-31,5c0,0,-11,4,-16,10c0,0,-4,6,-4,13V805H38c0,0,-8,0,-13,4c0,0,-5,5,-9,14c0,0,-3,9,-5,25c0,0,-2,15,-2,37c0,0,0,22,2,38c0,0,2,15,5,25c0,0,4,9,9,13c0,0,5,4,13,4H718c0,0,7,0,12,-4c0,0,6,-4,10,-13c0,0,3,-10,5,-25c0,0,2,-16,2,-38c0,0,0,-22,-2,-37c0,0,-2,-16,-5,-25c0,0,-4,-9,-10,-14c0,0,-5,-4,-12,-4H476V26c0,0,0,-7,-5,-13c0,0,-5,-6,-16,-10c0,0,-11,-3,-30,-5c0,0,-19,-2,-47,-2Z" 
id="f0_2t"
transform="scale(0.001,-0.001)" />

<path d="M514,145c0,0,72,0,121,27c0,0,48,26,78,73c0,0,30,46,42,107c0,0,13,62,13,131c0,0,0,76,-12,139c0,0,-12,62,-41,106c0,0,-29,45,-76,69c0,0,-48,24,-120,24c0,0,-72,0,-120,-27c0,0,-49,-27,-79,-73c0,0,-29,-45,-42,-106c0,0,-12,-61,-12,-129c0,0,0,-79,12,-142c0,0,12,-63,40,-108c0,0,28,-44,76,-68c0,0,48,-23,120,-23ZM508,-17c0,0,-113,0,-196,29c0,0,-84,29,-140,90c0,0,-56,60,-84,154c0,0,-28,93,-28,221c0,0,0,117,29,210c0,0,30,94,89,160c0,0,59,65,146,101c0,0,87,35,202,35c0,0,110,0,194,-29c0,0,84,-30,140,-90c0,0,56,-60,85,-153c0,0,29,-92,29,-217c0,0,0,-120,-30,-215c0,0,-30,-95,-89,-161C855,118,796,52,709,17c0,0,-87,-34,-201,-34Z" 
id="f0_24"
transform="scale(0.001,-0.001)" />

<path d="M299,0V777H162l36,173H508V0Z" 
id="f1_l"
transform="scale(0.001,-0.001)" />

<path d="M402,179c0,0,58,0,100,45c0,0,42,45,42,107c0,0,0,65,-41,108c0,0,-41,44,-101,44c0,0,-65,0,-110,-44c0,0,-45,-45,-45,-109c0,0,0,-64,45,-107c0,0,44,-44,110,-44ZM390,-11c0,0,-150,0,-247,94c0,0,-97,96,-97,243c0,0,0,106,48,217c0,0,49,111,108,194L356,952H605L372,631c0,0,48,9,88,9c0,0,123,0,212,-91c0,0,89,-92,89,-219c0,0,0,-148,-105,-245c0,0,-105,-96,-266,-96Z" 
id="f1_q"
transform="scale(0.001,-0.001)" />

<path d="M44,-281L425,1053H537L156,-281Z" 
id="f1_j"
transform="scale(0.001,-0.001)" />

<path d="M186,-28L17,77L450,779H39V952H793L186,-28Z" 
id="f1_r"
transform="scale(0.001,-0.001)" />

<path d="M536,63c0,0,127,0,191,54c0,0,63,54,63,168c0,0,0,105,-70,154c0,0,-70,49,-225,49H316V67c0,0,103,-4,220,-4ZM480,555c0,0,121,0,178,48c0,0,57,48,57,155c0,0,0,91,-58,133c0,0,-57,42,-186,42H316V555ZM554,-4L235,0H44V40L172,60V941L44,960v40H501c0,0,191,0,279,-56c0,0,88,-56,88,-179c0,0,0,-88,-55,-149c0,0,-54,-62,-151,-83c0,0,135,-14,209,-79c0,0,73,-65,73,-166c0,0,0,-144,-99,-219C845,69,745,-4,554,-4Z" 
id="f2_12"
transform="scale(0.001,-0.001)" />

<path d="M191,-20c0,0,-39,0,-65,25c0,0,-25,27,-25,64c0,0,0,38,26,64c0,0,26,26,64,26c0,0,38,0,64,-26c0,0,26,-26,26,-64c0,0,0,-37,-25,-64c0,0,-26,-25,-65,-25Z" 
id="f2_i"
transform="scale(0.001,-0.001)" />

<path d="M383,64c0,0,85,0,152,28V645c0,0,-67,13,-152,13c0,0,-194,0,-194,-314c0,0,0,-141,48,-211c0,0,48,-69,146,-69ZM342,-14c0,0,-287,0,-287,358c0,0,0,184,82,280c0,0,81,96,239,96c0,0,81,0,163,-18c0,0,-4,25,-4,124v182l-118,18v34H659V52L745,33V0H548l-9,52c0,0,-84,-66,-197,-66Z" 
id="f2_20"
transform="scale(0.001,-0.001)" />

<path d="M67,0V109L206,235c0,0,133,118,196,190c0,0,63,72,90,149c0,0,27,77,27,177c0,0,0,97,-44,148c0,0,-44,50,-144,50c0,0,-39,0,-81,-10c0,0,-42,-11,-74,-29L150,787H101V980c0,0,135,32,230,32c0,0,164,0,247,-68c0,0,82,-69,82,-193c0,0,0,-84,-32,-158c0,0,-33,-75,-100,-148c0,0,-67,-74,-222,-206c0,0,-67,-57,-141,-125H680V0Z" 
id="f2_m"
transform="scale(0.001,-0.001)" />

<path d="M31,0V33l88,19V649L31,668v33H235l7,-87c0,0,44,37,121,71c0,0,76,35,121,35h11V530H463l-43,82c0,0,-37,0,-88,-10c0,0,-52,-10,-89,-26V52L363,33V0Z" 
id="f2_2e"
transform="scale(0.001,-0.001)" />

<path d="M460,-325c0,0,-148,79,-231,172c0,0,-84,93,-123,217c0,0,-39,126,-39,304c0,0,0,178,39,303c0,0,39,125,122,217c0,0,82,93,232,172V997c0,0,-91,-52,-145,-134c0,0,-54,-81,-79,-190c0,0,-25,-109,-25,-305c0,0,0,-194,26,-309c0,0,26,-114,82,-193c0,0,56,-79,141,-128v-63Z" 
id="f2_c"
transform="scale(0.001,-0.001)" />

<path d="M32,0V33L151,52V649L52,668v33H275V52L395,33V0ZM201,850c0,0,-32,0,-56,24c0,0,-24,24,-24,56c0,0,0,34,24,58c0,0,24,24,56,24c0,0,34,0,58,-24c0,0,24,-24,24,-58c0,0,0,-32,-24,-56c0,0,-24,-24,-58,-24Z" 
id="f2_25"
transform="scale(0.001,-0.001)" />

<path d="M49,-325v63c0,0,85,49,140,128c0,0,56,79,83,194c0,0,26,115,26,308c0,0,0,196,-25,305c0,0,-25,109,-79,190c0,0,-54,82,-145,134v63c0,0,149,-80,232,-172c0,0,83,-92,122,-217c0,0,39,-125,39,-303c0,0,0,-177,-39,-303c0,0,-39,-125,-122,-217c0,0,-83,-93,-232,-173Z" 
id="f2_d"
transform="scale(0.001,-0.001)" />

<path d="M0,214v74H784V214ZM0,494v72H784V494Z" 
id="f3_x"
transform="scale(0.001,-0.001)" />

<path d="M52,62L0,114L278,390L0,667l52,52L330,442L608,719l51,-51L382,390L659,114L608,62L330,338L52,62Z" 
id="f3_3a"
transform="scale(0.001,-0.001)" />

<path d="M140,-21c0,0,-26,0,-44,17C96,-4,79,13,79,40c0,0,0,19,6,33c0,0,8,20,34,55c0,0,46,60,64,126c0,0,32,114,41,321H190c0,0,-55,0,-81,-18c0,0,-44,-26,-80,-89H0c0,0,42,129,98,178c0,0,43,37,120,37H743V575H562c0,0,-27,-171,-27,-327c0,0,0,-77,27,-110c0,0,27,-33,67,-33c0,0,33,0,56,22c0,0,24,22,31,65h27C743,192,730,74,686,26c0,0,-44,-47,-98,-47c0,0,-58,0,-97,51c0,0,-39,53,-39,198c0,0,0,91,28,347H286c0,0,-23,-390,-56,-494c0,0,-33,-102,-90,-102Z" 
id="f3_2c"
transform="scale(0.001,-0.001)" />

<path d="M88,-163c0,0,-39,0,-63,25c0,0,-25,26,-25,65c0,0,0,34,19,54c0,0,19,19,48,19c0,0,30,0,51,-23c0,0,22,-24,37,-24c0,0,12,0,21,11c0,0,8,10,8,35c0,0,0,30,-7,88c0,0,-27,235,-27,620c0,0,13,411,17,446c0,0,17,139,60,188c0,0,43,48,98,48c0,0,37,0,65,-25c0,0,28,-25,28,-54c0,0,0,-35,-19,-57c0,0,-20,-21,-49,-21c0,0,-26,0,-57,27c0,0,-17,15,-30,15c0,0,-12,0,-21,-11c0,0,-8,-11,-8,-37c0,0,0,-31,6,-108c0,0,28,-306,28,-496c0,0,0,-50,-12,-439c0,0,-6,-219,-67,-296c0,0,-41,-50,-101,-50Z" 
id="f3_50"
transform="scale(0.001,-0.001)" />

<path d="M81,0L258,1008l-96,18l6,34H391L214,52L331,33L325,0Z" 
id="f4_28"
transform="scale(0.001,-0.001)" />

<path d="M681,416L504,902L333,416ZM669,0V40L803,60L704,348H310L210,60L344,40V0H15V40L128,60l341,949H611L965,60L1092,40V0Z" 
id="f2_11"
transform="scale(0.001,-0.001)" />

<path d="M399,-14c0,0,-341,0,-341,370c0,0,0,175,87,269c0,0,87,95,249,95c0,0,101,0,220,-23V501H573L541,625c0,0,-62,35,-149,35c0,0,-200,0,-200,-304c0,0,0,-158,61,-225c0,0,61,-67,189,-67c0,0,109,0,189,24V43C631,43,595,16,530,1c0,0,-64,-15,-131,-15Z" 
id="f2_1z"
transform="scale(0.001,-0.001)" />

<path d="M377,45c0,0,99,0,147,73c0,0,47,73,47,237c0,0,0,161,-47,233c0,0,-47,72,-147,72c0,0,-97,0,-141,-69c0,0,-44,-69,-44,-236c0,0,0,-169,45,-240c0,0,44,-70,140,-70Zm0,-59c0,0,-158,0,-238,94c0,0,-81,95,-81,274c0,0,0,178,81,272c0,0,80,94,244,94c0,0,160,0,241,-92c0,0,82,-92,82,-274c0,0,0,-368,-329,-368Z" 
id="f2_2b"
transform="scale(0.001,-0.001)" />

<path d="M439,0V33l93,19V500c0,0,0,62,-30,97c0,0,-31,36,-94,36c0,0,-67,0,-165,-22V52L338,33V0H35V33l84,19V649L35,668v33H235l7,-57c0,0,57,33,122,54c0,0,65,22,108,22c0,0,91,0,137,-53c0,0,47,-53,47,-154V52L741,33V0Z" 
id="f2_2a"
transform="scale(0.001,-0.001)" />

<path d="M359,-270c0,0,124,0,192,46c0,0,67,47,67,129c0,0,0,43,-26,67c0,0,-26,24,-79,24H242c0,0,-32,-27,-51,-69c0,0,-20,-41,-20,-77c0,0,0,-64,46,-92c0,0,46,-28,142,-28Zm11,561c0,0,81,0,115,47c0,0,34,47,34,141c0,0,0,100,-35,142c0,0,-35,42,-113,42c0,0,-78,0,-114,-43c0,0,-37,-42,-37,-141c0,0,0,-98,36,-143c0,0,36,-45,114,-45ZM359,-329c0,0,-143,0,-218,44c0,0,-75,43,-75,125c0,0,0,39,27,78c0,0,26,38,98,89c0,0,-43,14,-72,48c0,0,-29,35,-29,74L208,262c0,0,-118,55,-118,217c0,0,0,115,73,178c0,0,73,63,211,63c0,0,28,0,71,-6c0,0,44,-6,67,-13l165,83l26,-32L599,644c0,0,50,-56,50,-165c0,0,0,-120,-72,-182c0,0,-73,-62,-208,-62c0,0,-62,0,-114,11L208,148c0,0,2,-13,29,-24c0,0,27,-12,67,-12H512c0,0,113,0,168,-49c0,0,55,-49,55,-134c0,0,0,-79,-44,-137c0,0,-43,-58,-128,-90c0,0,-84,-31,-204,-31Z" 
id="f2_23"
transform="scale(0.001,-0.001)" />

<path d="M249,-14c0,0,-71,0,-107,42c0,0,-35,42,-35,119V639H15v33l93,29l76,159h47V701H391V639H231V161c0,0,0,-48,22,-73c0,0,22,-24,57,-24c0,0,44,0,106,12V26C416,26,389,8,340,-2c0,0,-49,-12,-91,-12Z" 
id="f2_2g"
transform="scale(0.001,-0.001)" />

<path d="M431,0V33L535,52V499c0,0,0,62,-32,96c0,0,-32,33,-95,33c0,0,-66,0,-163,-22V52L350,33V0H32V33l89,19V649L32,668v33H237l6,-57c0,0,56,32,119,54c0,0,62,22,110,22c0,0,52,0,95,-20c0,0,44,-19,66,-62c0,0,57,32,134,57c0,0,77,25,128,25c0,0,179,0,179,-207V52l90,-19V0H846V33L950,52V499c0,0,0,129,-119,129c0,0,-19,0,-45,-3c0,0,-26,-3,-52,-7c0,0,-25,-4,-49,-8c0,0,-23,-5,-39,-8c0,0,13,-41,13,-89V52L764,33V0Z" 
id="f2_29"
transform="scale(0.001,-0.001)" />

<path d="M382,45c0,0,188,0,188,314c0,0,0,143,-47,213c0,0,-46,69,-141,69c0,0,-87,0,-146,-24V58c0,0,67,-13,146,-13ZM25,-325v35l88,18V649L34,668v33H231l1,-41c0,0,31,27,84,43c0,0,53,17,107,17c0,0,134,0,208,-94c0,0,73,-93,73,-267c0,0,0,-178,-80,-276c0,0,-80,-97,-232,-97c0,0,-84,0,-160,16c0,0,4,-53,4,-84V-272l123,-18v-35Z" 
id="f2_2c"
transform="scale(0.001,-0.001)" />

<path d="M495,413c0,0,0,133,-34,190c0,0,-34,57,-105,57c0,0,-78,0,-119,-63c0,0,-42,-62,-42,-184ZM374,-14c0,0,-163,0,-239,87c0,0,-75,88,-75,283c0,0,0,183,77,273c0,0,76,91,219,91c0,0,269,0,269,-306V353H194V340c0,0,0,-103,23,-160c0,0,22,-57,70,-87c0,0,47,-29,124,-29c0,0,40,0,96,6c0,0,55,7,91,15V43C598,43,562,20,500,3c0,0,-61,-17,-126,-17Z" 
id="f2_21"
transform="scale(0.001,-0.001)" />

<path d="M110,641L64,1000H211L165,641Z" 
id="f2_b"
transform="scale(0.001,-0.001)" />

<path d="M278,-14c0,0,-52,0,-115,11c0,0,-63,10,-99,23V193H98L134,95c0,0,56,-50,146,-50c0,0,144,0,144,123c0,0,0,91,-114,130l-66,21c0,0,-75,25,-110,50c0,0,-34,26,-53,63c0,0,-18,36,-18,89c0,0,0,92,63,145c0,0,63,54,170,54c0,0,77,0,193,-23V544H454l-32,81c0,0,-39,35,-124,35c0,0,-61,0,-92,-30c0,0,-32,-30,-32,-80c0,0,0,-43,29,-72c0,0,28,-29,86,-48c0,0,110,-38,144,-55c0,0,33,-17,57,-42c0,0,23,-25,36,-57c0,0,13,-32,13,-79c0,0,0,-104,-66,-158c0,0,-66,-53,-195,-53Z" 
id="f2_2f"
transform="scale(0.001,-0.001)" />

<path d="M289,-14c0,0,-179,0,-179,205V649L20,668v33H233V200c0,0,0,-128,120,-128c0,0,92,0,173,23V649L420,668v33H649V52L738,33V0H533l-6,57C527,57,474,28,405,7c0,0,-69,-21,-116,-21Z" 
id="f2_2h"
transform="scale(0.001,-0.001)" />

<path d="M284,67c0,0,51,0,88,12c0,0,37,12,74,30V358l-98,-3c0,0,-100,-4,-135,-39c0,0,-35,-35,-35,-117c0,0,0,-132,106,-132ZM233,-14c0,0,-179,0,-179,208c0,0,0,70,27,116c0,0,27,46,87,70c0,0,60,24,173,27l105,3V519c0,0,0,72,-26,107c0,0,-27,34,-82,34c0,0,-75,0,-137,-35L176,538H134V691c0,0,121,26,213,26c0,0,115,0,169,-47c0,0,54,-47,54,-144V52L657,33V0H465L451,70c0,0,-85,-84,-218,-84Z" 
id="f2_1x"
transform="scale(0.001,-0.001)" />

<path d="M31,0V33L150,52v956L31,1026v34H274V52L394,33V0Z" 
id="f2_28"
transform="scale(0.001,-0.001)" />

<path d="M327,-14L84,649L1,668v33H335V668L219,648L385,174L554,632h63L786,171L944,649L830,668v33h267V668l-78,-16L784,-14H726L553,448L382,-14Z" 
id="f2_2j"
transform="scale(0.001,-0.001)" />

<path d="M58,-234v58c0,0,131,42,131,125c0,0,0,15,-11,27c0,0,-11,12,-38,25C140,1,89,27,89,75c0,0,0,40,25,61c0,0,26,21,65,21c0,0,48,0,77,-34c0,0,30,-34,30,-86c0,0,0,-101,-60,-170c0,0,-59,-69,-168,-101Z" 
id="f2_g"
transform="scale(0.001,-0.001)" />

<path d="M27,354v62H831V354Zm0,243v62H831V597Z" 
id="f5_x"
transform="scale(0.001,-0.001)" />

<path d="M158,-328c0,0,-33,0,-53,26c0,0,-19,26,-19,62c0,0,0,27,20,97c0,0,22,78,22,150V683H252V242c0,0,0,-68,12,-99c0,0,11,-31,41,-51c0,0,29,-20,66,-20c0,0,66,0,172,91V683H667V165c0,0,0,-65,13,-90c0,0,14,-25,46,-25c0,0,50,0,65,99h26c0,0,-14,-169,-143,-169c0,0,-55,0,-92,37c0,0,-37,38,-39,108C543,125,408,-20,308,-20c0,0,-64,0,-119,49V-10c0,0,0,-68,20,-138c0,0,24,-77,24,-101c0,0,0,-35,-22,-57c0,0,-21,-22,-53,-22Z" 
id="f5_f2"
transform="scale(0.001,-0.001)" />

<path d="M377,45c0,0,99,0,145,108c0,0,46,109,46,352c0,0,0,240,-45,345c0,0,-46,106,-146,106c0,0,-97,0,-139,-100c0,0,-43,-99,-43,-351c0,0,0,-254,44,-357c0,0,43,-103,138,-103Zm0,-59c0,0,-158,0,-238,132c0,0,-81,133,-81,386c0,0,0,249,81,380c0,0,80,132,244,132c0,0,159,0,241,-130c0,0,82,-130,82,-382c0,0,0,-518,-329,-518Z" 
id="f2_k"
transform="scale(0.001,-0.001)" />

<path d="M174,197l-53,54L377,509L121,764l55,55L431,563L689,819l53,-53L486,509L742,251L689,197L431,454L174,197Z" 
id="f2_4a"
transform="scale(0.001,-0.001)" />

<path d="M376,50c0,0,103,0,149,80c0,0,46,81,46,240c0,0,0,137,-47,204c0,0,-48,67,-148,67c0,0,-44,0,-87,-7c0,0,-44,-8,-63,-17V62c0,0,63,-12,150,-12Zm3,-64c0,0,-64,0,-141,14c0,0,-78,14,-136,37v971L0,1026v34H226V809c0,0,0,-40,-4,-148c0,0,74,59,188,59c0,0,143,0,219,-87c0,0,77,-87,77,-263c0,0,0,-189,-84,-287c0,0,-84,-97,-243,-97Z" 
id="f2_1y"
transform="scale(0.001,-0.001)" />

<path d="M148,-329c0,0,-58,0,-114,13v151H69l24,-71c0,0,23,-17,64,-17c0,0,39,0,72,22c0,0,33,23,60,67c0,0,27,44,68,157L90,649L19,668v33H344V668L233,648L423,158L606,649L497,668v33H758V668L685,652L411,-43c0,0,-48,-124,-84,-177c0,0,-36,-54,-79,-82c0,0,-44,-27,-100,-27Z" 
id="f2_2l"
transform="scale(0.001,-0.001)" />

<path d="M442,0V33l93,19V504c0,0,0,129,-124,129c0,0,-70,0,-168,-22V52L338,33V0H31V33l88,19v956L15,1026v34H243V756c0,0,0,-77,-5,-112c0,0,54,31,122,53c0,0,68,23,115,23c0,0,91,0,137,-53c0,0,47,-53,47,-154V52L744,33V0Z" 
id="f2_24"
transform="scale(0.001,-0.001)" />

<path d="M64,0V34L168,59V639H47v36l121,29v49c0,0,0,155,61,239c0,0,62,84,173,84c0,0,58,0,107,-15V908H472l-33,92c0,0,-26,16,-62,16c0,0,-47,0,-66,-42c0,0,-19,-42,-19,-157V701H478V639H292V59L443,34V0Z" 
id="f2_22"
transform="scale(0.001,-0.001)" />

<path d="M55,0V40L184,60V941L55,960v40H455V960L327,941V60L455,40V0Z" 
id="f2_19"
transform="scale(0.001,-0.001)" />

<path d="M474,-326c0,0,-112,57,-188,133c0,0,-107,108,-165,254c0,0,-58,147,-58,305c0,0,0,231,114,421c0,0,114,191,297,273v-31c0,0,-92,-51,-151,-139c0,0,-59,-88,-88,-223c0,0,-30,-135,-30,-281c0,0,0,-160,25,-290c0,0,20,-102,47,-164c0,0,28,-62,75,-120c0,0,47,-57,122,-109v-29Z" 
id="f5_c"
transform="scale(0.001,-0.001)" />

<path d="M21,0V26H35c0,0,53,0,71,27c0,0,18,27,18,101V408c0,0,0,123,-5,150c0,0,-6,27,-17,37c0,0,-12,10,-31,10c0,0,-21,0,-50,-11L10,620l206,83h32V558c0,0,120,145,229,145c0,0,56,0,96,-28c0,0,40,-28,64,-92c0,0,16,-45,16,-137V154c0,0,0,-65,11,-88c0,0,8,-19,26,-29c0,0,18,-11,68,-11V0H419V26h14c0,0,47,0,66,15c0,0,20,15,27,43c0,0,3,11,3,70V434c0,0,0,93,-24,135c0,0,-24,42,-81,42c0,0,-88,0,-176,-97V154c0,0,0,-69,9,-86c0,0,10,-21,28,-31c0,0,19,-11,75,-11V0Z" 
id="f5_2a"
transform="scale(0.001,-0.001)" />

<path d="M693,201L428,466L166,203l-44,41L386,509L122,772l45,42L429,552L692,816l43,-43L471,510L736,245L693,201Z" 
id="f5_6n"
transform="scale(0.001,-0.001)" />

<path d="M33,0V27c0,0,264,241,371,393c0,0,108,152,108,278c0,0,0,96,-59,158c0,0,-59,62,-141,62c0,0,-75,0,-134,-43c0,0,-59,-44,-88,-128H63c0,0,18,138,95,212c0,0,77,74,193,74c0,0,123,0,205,-80c0,0,83,-79,83,-186c0,0,0,-77,-36,-154c0,0,-55,-121,-179,-256C424,357,238,154,191,112H455c0,0,81,0,114,6c0,0,32,6,58,25c0,0,27,18,46,52h27L630,0Z" 
id="f5_m"
transform="scale(0.001,-0.001)" />

<path d="M152,-20c0,0,-35,0,-58,20C94,0,70,20,70,53c0,0,0,31,41,85c0,0,58,79,88,165c0,0,29,85,43,272H192c0,0,-62,0,-94,-27c0,0,-33,-28,-62,-79H10c0,0,21,80,56,132c0,0,34,51,70,67c0,0,37,15,129,15H742V575H569L554,348c0,0,-4,-59,-4,-102c0,0,0,-104,24,-126c0,0,24,-23,58,-23c0,0,72,0,86,90h26c0,0,-25,-207,-166,-207c0,0,-66,0,-106,40c0,0,-40,40,-40,119c0,0,0,52,16,221l20,215H310c0,0,-16,-272,-38,-397C272,178,250,53,224,16c0,0,-27,-36,-72,-36Z" 
id="f5_i5"
transform="scale(0.001,-0.001)" />

<path d="M17,0V26c0,0,52,0,77,17c0,0,19,12,26,38c0,0,4,13,4,73V419c0,0,0,119,-5,142c0,0,-4,23,-17,33c0,0,-13,11,-33,11c0,0,-23,0,-52,-11l-7,26l207,83h31V549c0,0,86,154,176,154c0,0,41,0,68,-25c0,0,27,-25,27,-58c0,0,0,-29,-20,-49c0,0,-19,-20,-46,-20c0,0,-26,0,-58,25c0,0,-33,26,-48,26c0,0,-14,0,-29,-15c0,0,-34,-30,-70,-101V159c0,0,0,-56,15,-85c0,0,9,-20,34,-34c0,0,24,-14,71,-14V0Z" 
id="f5_2e"
transform="scale(0.001,-0.001)" />

<path d="M35,-326v29c0,0,92,51,151,139c0,0,60,87,89,221c0,0,28,136,28,282c0,0,0,159,-24,290c0,0,-19,103,-47,165c0,0,-28,62,-75,119c0,0,-46,57,-122,110v31c0,0,113,-56,188,-132c0,0,107,-109,165,-255c0,0,58,-147,58,-306c0,0,0,-231,-114,-420c0,0,-113,-191,-297,-273Z" 
id="f5_d"
transform="scale(0.001,-0.001)" />

<path d="M38,0V27H74c0,0,63,0,91,37c0,0,18,24,18,115V833c0,0,0,77,-10,102c0,0,-7,18,-30,32c0,0,-33,18,-69,18H38v27H470V985H434c0,0,-62,0,-90,-37c0,0,-18,-24,-18,-115V179c0,0,0,-77,9,-102c0,0,8,-18,31,-32c0,0,32,-18,68,-18h36V0Z" 
id="f5_19"
transform="scale(0.001,-0.001)" />

<path d="M577,-14c0,0,-243,0,-379,132C198,118,63,250,63,488c0,0,0,258,130,391c0,0,131,132,387,132c0,0,156,0,335,-38l5,-218H871L848,884c0,0,-52,32,-121,50c0,0,-69,17,-141,17c0,0,-191,0,-279,-112c0,0,-88,-113,-88,-349c0,0,0,-217,92,-332c0,0,92,-115,268,-115c0,0,85,0,160,20c0,0,76,21,120,55l27,149h49L930,32c0,0,-164,-46,-353,-46Z" 
id="f2_13"
transform="scale(0.001,-0.001)" />

<path d="M383,64c0,0,44,0,87,7c0,0,43,7,65,17V645c0,0,-67,13,-152,13c0,0,-194,0,-194,-309c0,0,0,-143,48,-214c0,0,47,-71,146,-71Zm56,-389v35l96,18V-77c0,0,0,73,7,124c0,0,-79,-61,-200,-61c0,0,-287,0,-287,362c0,0,0,180,81,276c0,0,81,96,237,96c0,0,84,0,166,-18l67,33h53V-272l77,-18v-35Z" 
id="f2_2d"
transform="scale(0.001,-0.001)" />

<path d="M485,53c0,0,135,0,206,61c0,0,71,60,71,150c0,0,0,59,-32,114c0,0,-33,54,-105,85c0,0,-72,32,-179,32c0,0,-46,0,-79,-2c0,0,-33,-1,-53,-5V73c0,0,86,-20,171,-20ZM455,547c0,0,109,0,164,23c0,0,55,24,84,72c0,0,29,49,29,106c0,0,0,89,-72,151c0,0,-73,63,-212,63c0,0,-74,0,-134,-16V557c0,0,27,-5,63,-8c0,0,35,-2,78,-2ZM24,0V27H63c0,0,63,0,91,41c0,0,17,26,17,111V833c0,0,0,94,-22,119c0,0,-29,33,-86,33H24v27H462c0,0,122,0,196,-18c0,0,112,-27,171,-95c0,0,59,-68,59,-157c0,0,0,-76,-46,-136c0,0,-47,-60,-137,-89c0,0,105,-23,157,-72c0,0,73,-69,73,-168c0,0,0,-75,-48,-145C887,132,839,63,756,32C756,32,673,0,502,0Z" 
id="f5_12"
transform="scale(0.001,-0.001)" />

<path d="M54,0V40L172,60V941L44,960v40H794V760H745L721,922c0,0,-83,11,-241,11H316V516H611l23,120h46V328H634L611,449H316V60L483,40V0Z" 
id="f2_16"
transform="scale(0.001,-0.001)" />

<path d="M41,0V34L426,641H261c0,0,-42,0,-80,-7c0,0,-39,-7,-54,-19L104,515H69V701H586V665L201,60H407c0,0,42,0,89,10c0,0,47,10,66,25l39,147h35L617,0Z" 
id="f2_2m"
transform="scale(0.001,-0.001)" />

<path d="M13,0V34L95,46L325,350L122,649L40,668v33H357V668L264,648L399,446L554,649l-96,19v33H710V668L630,652L433,397L663,50L745,34V0H427V34l94,17L359,299L169,50L266,34V0Z" 
id="f2_2k"
transform="scale(0.001,-0.001)" />

<path d="M595,60c0,0,141,0,206,102c0,0,65,102,65,340c0,0,0,236,-65,335c0,0,-65,100,-206,100c0,0,-142,0,-207,-100c0,0,-66,-99,-66,-335c0,0,0,-239,66,-340c0,0,65,-102,207,-102Zm0,-74c0,0,-253,0,-387,130C208,116,75,246,75,501c0,0,0,510,520,510c0,0,256,0,387,-129c0,0,132,-130,132,-381c0,0,0,-254,-133,-385C981,116,848,-14,595,-14Z" 
id="f6_1f"
transform="scale(0.001,-0.001)" />

<path d="M498,506c0,0,115,0,164,47c0,0,48,48,48,166c0,0,0,112,-46,156c0,0,-46,43,-169,43H390V506ZM793,0L514,423H390V74L518,54V0H36V54L154,74V926L26,945v55H504c0,0,221,0,330,-68c0,0,109,-68,109,-212c0,0,0,-215,-201,-276L1009,74L1117,54V0Z" 
id="f6_1i"
transform="scale(0.001,-0.001)" />

<path d="M44,0V40L172,60V941L44,960v40H794V760H745L721,922c0,0,-83,11,-241,11H316V543H586l23,119h48V354H609L586,475H316V67H513c0,0,193,0,252,12l43,185h49L843,0Z" 
id="f2_15"
transform="scale(0.001,-0.001)" />

<path d="M477,0V33l64,19L348,354L257,254V52L331,33V0H44V33l89,19v956L29,1026v34H257V338L544,647l-73,20v34H718V667L631,650L431,446L688,50L764,33V0Z" 
id="f2_27"
transform="scale(0.001,-0.001)" />

<path d="M134,0V40L339,60V876L137,804v39l292,166h39V60L672,40V0Z" 
id="f2_l"
transform="scale(0.001,-0.001)" />

<path d="M360,-14L72,649L0,668v33H327V668L216,648L420,164L615,649L504,668v33H764V668L697,652L416,-14Z" 
id="f2_2i"
transform="scale(0.001,-0.001)" />

<path d="M843,0L451,506L316,398V60L460,40V0H44V40L172,60V941L44,960v40H445V960L316,941V470L795,941l-99,19v40h313V960L894,941L552,607L979,60L1088,40V0Z" 
id="f2_1b"
transform="scale(0.001,-0.001)" />

<path d="M62,-123V268c0,0,0,230,56,452c0,0,47,190,134,334c0,0,87,144,204,242c0,0,85,73,194,119l18,-16c0,0,-211,-145,-335,-339c0,0,-98,-156,-149,-374c0,0,-50,-218,-50,-403V-123Z" 
id="f3_4o"
transform="scale(0.001,-0.001)" />

<path d="M617,-123V283c0,0,0,236,-63,459c0,0,-63,223,-188,392c0,0,-108,146,-282,265l17,16c0,0,180,-76,320,-248c0,0,139,-172,204,-417c0,0,64,-245,64,-482V-123Z" 
id="f3_54"
transform="scale(0.001,-0.001)" />

<path d="M62,-123V1415h72V-123Z" 
id="f3_4p"
transform="scale(0.001,-0.001)" />

<path d="M617,-123V1415h72V-123Z" 
id="f3_55"
transform="scale(0.001,-0.001)" />

<path d="M650,-123c0,0,-180,75,-319,246c0,0,-140,172,-205,418c0,0,-64,245,-64,481v393h72V1007c0,0,0,-236,63,-459c0,0,63,-223,189,-391c0,0,108,-145,282,-265l-18,-15Z" 
id="f3_4q"
transform="scale(0.001,-0.001)" />

<path d="M101,-123l-17,15c0,0,210,144,334,339c0,0,99,156,149,373c0,0,50,218,50,403v408h72V1022c0,0,0,-230,-56,-451c0,0,-48,-191,-134,-335C499,236,412,92,295,-5c0,0,-84,-73,-194,-118Z" 
id="f3_56"
transform="scale(0.001,-0.001)" />

<path d="M412,-328c0,0,-195,96,-303,284C109,-44,0,142,0,365c0,0,0,232,114,422c0,0,114,191,298,273v-31c0,0,-92,-51,-151,-139c0,0,-59,-88,-88,-223c0,0,-29,-136,-29,-282c0,0,0,-167,27,-301c0,0,26,-133,82,-221c0,0,55,-89,159,-159v-32Z" 
id="f3_c"
transform="scale(0.001,-0.001)" />

<path d="M34,-328v32c0,0,92,50,151,138c0,0,59,88,88,222c0,0,29,135,29,283c0,0,0,165,-27,300c0,0,-26,134,-82,222c0,0,-56,89,-159,160v31c0,0,194,-96,303,-284c0,0,108,-187,108,-410c0,0,0,-232,-114,-422c0,0,-114,-191,-297,-272Z" 
id="f3_d"
transform="scale(0.001,-0.001)" />

<path d="M476,327V830h-4L114,327ZM476,0V220H30v99l488,686h86V327H740V220H604V0Z" 
id="f2_o"
transform="scale(0.001,-0.001)" />

<path d="M316,27c0,0,57,0,105,53c0,0,65,72,125,295c0,0,-40,153,-104,214c0,0,-63,61,-129,61c0,0,-73,0,-122,-80c0,0,-48,-80,-48,-255c0,0,0,-104,20,-163c0,0,21,-60,64,-92c0,0,42,-33,89,-33Zm4,-49c0,0,-165,0,-243,108C77,86,0,196,0,336c0,0,0,164,91,265c0,0,91,102,213,102c0,0,85,0,150,-52c0,0,65,-51,118,-192l65,224H760L662,344c0,0,-9,-32,-30,-100c0,0,29,-115,43,-137c0,0,27,-41,68,-41c0,0,30,0,55,24c0,0,26,25,34,77h30C862,167,852,60,817,19c0,0,-35,-40,-81,-40c0,0,-42,0,-77,34c0,0,-35,36,-62,154c0,0,-33,-65,-65,-99C532,68,488,22,437,0c0,0,-52,-22,-117,-22Z" 
id="f3_1x"
transform="scale(0.001,-0.001)" />


</defs>
</svg>