<?xml version="1.0" encoding="UTF-8" standalone="no"?>
<!DOCTYPE svg PUBLIC "-//W3C//DTD SVG 1.1//EN"
"http://www.w3.org/Graphics/SVG/1.1/DTD/svg11.dtd">
<svg viewBox="0 0 909 1286" version="1.1" xmlns="http://www.w3.org/2000/svg" xmlns:xlink="http://www.w3.org/1999/xlink">
<defs>
<clipPath id="c0_142"><path d="M55,241.6V189.7H209.9v51.9Z" /></clipPath>
<style type="text/css"><![CDATA[
.g0_142{
fill: #D9D9D9;
}
.g1_142{
fill: none;
stroke: #000000;
stroke-width: 0.7638889;
stroke-linecap: butt;
stroke-linejoin: miter;
}
.g2_142{
fill: none;
stroke: #000000;
stroke-width: 0.9095176;
stroke-linecap: butt;
stroke-linejoin: round;
}
.g3_142{
}
]]></style>
</defs>
<image preserveAspectRatio="none" x="336" y="42" width="259" height="49" xlink:href="img/1.png" />
<image preserveAspectRatio="none" x="342" y="50" width="247" height="27" xlink:href="img/2.png" />
<image preserveAspectRatio="none" x="341" y="46" width="238" height="41" xlink:href="img/3.png" />
<g fill="#FFFFFF" >
<use xlink:href="#f0_j" transform="matrix(11.5,0,0,11.5,354.9,70)" />
<use xlink:href="#f0_i" transform="matrix(11.5,0,0,11.5,364.2,70)" />
<use xlink:href="#f0_2n" transform="matrix(11.5,0,0,11.5,374.1,70)" />
<use xlink:href="#f0_t" transform="matrix(11.5,0,0,11.5,382.4,70)" />
<use xlink:href="#f0_oj" transform="matrix(11.5,0,0,11.5,391,70)" />
<use xlink:href="#f0_3e" transform="matrix(11.5,0,0,11.5,396.3,70)" />
<use xlink:href="#f0_1c" transform="matrix(11.5,0,0,11.5,406,70)" />
<use xlink:href="#f0_1c" transform="matrix(11.5,0,0,11.5,410.7,70)" />
<use xlink:href="#f0_oj" transform="matrix(11.5,0,0,11.5,415.4,70)" />
<use xlink:href="#f0_rz" transform="matrix(11.5,0,0,11.5,420.8,70)" />
<use xlink:href="#f0_rx" transform="matrix(11.5,0,0,11.5,429.7,70)" />
<use xlink:href="#f0_ry" transform="matrix(11.5,0,0,11.5,438.6,70)" />
<use xlink:href="#f0_s2" transform="matrix(11.5,0,0,11.5,447.4,70)" />
<use xlink:href="#f0_t" transform="matrix(11.5,0,0,11.5,460.2,70)" />
<use xlink:href="#f0_3e" transform="matrix(11.5,0,0,11.5,468.8,70)" />
<use xlink:href="#f0_5" transform="matrix(11.5,0,0,11.5,478.5,70)" />
<use xlink:href="#f0_1x" transform="matrix(11.5,0,0,11.5,489.2,70)" />
<use xlink:href="#f0_1c" transform="matrix(11.5,0,0,11.5,504.6,70)" />
<use xlink:href="#f0_1y" transform="matrix(11.5,0,0,11.5,509.3,70)" />
<use xlink:href="#f0_5" transform="matrix(11.5,0,0,11.5,520.9,70)" />
<use xlink:href="#f0_2t" transform="matrix(11.5,0,0,11.5,531.5,70)" />
<use xlink:href="#f0_1c" transform="matrix(11.5,0,0,11.5,540.2,70)" />
<use xlink:href="#f0_24" transform="matrix(11.5,0,0,11.5,544.9,70)" />
<use xlink:href="#f0_1y" transform="matrix(11.5,0,0,11.5,556.8,70)" />
</g>
<image preserveAspectRatio="none" x="554" y="46" width="36" height="41" xlink:href="img/4.png" />
<image preserveAspectRatio="none" x="748" y="1196" width="94" height="58" xlink:href="img/5.png" />
<g fill="#FFFFFF" >
<use xlink:href="#f1_m" transform="matrix(11,0,0,11,770.1,1227.7)" />
<use xlink:href="#f1_p" transform="matrix(11,0,0,11,779,1227.7)" />
<use xlink:href="#f1_j" transform="matrix(11,0,0,11,792.4,1227.7)" />
<use xlink:href="#f1_m" transform="matrix(11,0,0,11,803,1227.7)" />
<use xlink:href="#f1_o" transform="matrix(11,0,0,11,811.9,1227.7)" />
</g>
<path fill-rule="evenodd" d="M52.7,1193.2H856.9v-.7H52.7v.7Z" class="g0_142" />
<path d="M37.9,99.4L873,98.5" class="g1_142" />
<g fill="#000000" >
<use xlink:href="#f2_13" transform="matrix(12,0,0,12,55,143.8)" />
<use xlink:href="#f2_28" transform="matrix(12,0,0,12,67.2,143.8)" />
<use xlink:href="#f2_21" transform="matrix(12,0,0,12,72.3,143.8)" />
<use xlink:href="#f2_1x" transform="matrix(12,0,0,12,80.5,143.8)" />
<use xlink:href="#f2_2e" transform="matrix(12,0,0,12,88.6,143.8)" />
<use xlink:href="#f2_28" transform="matrix(12,0,0,12,94.8,143.8)" />
<use xlink:href="#f2_2l" transform="matrix(12,0,0,12,99.9,143.8)" />
<use xlink:href="#f2_g" transform="matrix(12,0,0,12,109,143.8)" />
<use xlink:href="#f2_2g" transform="matrix(12,0,0,12,118.1,143.8)" />
<use xlink:href="#f2_2b" transform="matrix(12,0,0,12,123.2,143.8)" />
<use xlink:href="#f2_1x" transform="matrix(12,0,0,12,137,143.8)" />
<use xlink:href="#f2_1z" transform="matrix(12,0,0,12,145.1,143.8)" />
<use xlink:href="#f2_24" transform="matrix(12,0,0,12,153.3,143.8)" />
<use xlink:href="#f2_25" transform="matrix(12,0,0,12,162.4,143.8)" />
<use xlink:href="#f2_21" transform="matrix(12,0,0,12,167.5,143.8)" />
<use xlink:href="#f2_2i" transform="matrix(12,0,0,12,175.7,143.8)" />
<use xlink:href="#f2_21" transform="matrix(12,0,0,12,184.8,143.8)" />
<use xlink:href="#f2_1x" transform="matrix(12,0,0,12,197.6,143.8)" />
<use xlink:href="#f2_28" transform="matrix(12,0,0,12,210.2,143.8)" />
<use xlink:href="#f2_1x" transform="matrix(12,0,0,12,215.3,143.8)" />
<use xlink:href="#f2_2e" transform="matrix(12,0,0,12,223.5,143.8)" />
<use xlink:href="#f2_23" transform="matrix(12,0,0,12,229.7,143.8)" />
<use xlink:href="#f2_21" transform="matrix(12,0,0,12,238.7,143.8)" />
<use xlink:href="#f2_29" transform="matrix(12,0,0,12,251.5,143.8)" />
<use xlink:href="#f2_1x" transform="matrix(12,0,0,12,265.6,143.8)" />
<use xlink:href="#f2_23" transform="matrix(12,0,0,12,273.7,143.8)" />
<use xlink:href="#f2_2a" transform="matrix(12,0,0,12,282.9,143.8)" />
<use xlink:href="#f2_25" transform="matrix(12,0,0,12,292.1,143.8)" />
<use xlink:href="#f2_22" transform="matrix(12,0,0,12,297.2,143.8)" />
<use xlink:href="#f2_25" transform="matrix(12,0,0,12,303.3,143.8)" />
<use xlink:href="#f2_1z" transform="matrix(12,0,0,12,308.4,143.8)" />
<use xlink:href="#f2_1x" transform="matrix(12,0,0,12,316.5,143.8)" />
<use xlink:href="#f2_2g" transform="matrix(12,0,0,12,324.7,143.8)" />
<use xlink:href="#f2_25" transform="matrix(12,0,0,12,329.8,143.8)" />
<use xlink:href="#f2_2b" transform="matrix(12,0,0,12,335,143.8)" />
<use xlink:href="#f2_2a" transform="matrix(12,0,0,12,344.1,143.8)" />
<use xlink:href="#f2_2b" transform="matrix(12,0,0,12,357.9,143.8)" />
<use xlink:href="#f2_22" transform="matrix(12,0,0,12,367,143.8)" />
<use xlink:href="#f2_1x" transform="matrix(12,0,0,12,377.7,143.8)" />
<use xlink:href="#f2_2f" transform="matrix(12,0,0,12,390.4,143.8)" />
<use xlink:href="#f2_29" transform="matrix(12,0,0,12,397.5,143.8)" />
<use xlink:href="#f2_1x" transform="matrix(12,0,0,12,411.7,143.8)" />
<use xlink:href="#f2_28" transform="matrix(12,0,0,12,419.9,143.8)" />
<use xlink:href="#f2_28" transform="matrix(12,0,0,12,425,143.8)" />
<use xlink:href="#f2_2b" transform="matrix(12,0,0,12,434.7,143.8)" />
<use xlink:href="#f2_1y" transform="matrix(12,0,0,12,443.9,143.8)" />
<use xlink:href="#f2_26" transform="matrix(12,0,0,12,453.1,143.8)" />
<use xlink:href="#f2_21" transform="matrix(12,0,0,12,458.1,143.8)" />
<use xlink:href="#f2_1z" transform="matrix(12,0,0,12,466.3,143.8)" />
<use xlink:href="#f2_2g" transform="matrix(12,0,0,12,474.4,143.8)" />
<use xlink:href="#f2_c" transform="matrix(12,0,0,12,484,143.8)" />
<use xlink:href="#f2_24" transform="matrix(12,0,0,12,490.1,143.8)" />
<use xlink:href="#f2_21" transform="matrix(12,0,0,12,499.3,143.8)" />
<use xlink:href="#f2_2a" transform="matrix(12,0,0,12,507.4,143.8)" />
<use xlink:href="#f2_1z" transform="matrix(12,0,0,12,516.6,143.8)" />
<use xlink:href="#f2_21" transform="matrix(12,0,0,12,524.8,143.8)" />
<use xlink:href="#f2_2g" transform="matrix(12,0,0,12,537.5,143.8)" />
<use xlink:href="#f2_24" transform="matrix(12,0,0,12,542.6,143.8)" />
<use xlink:href="#f2_21" transform="matrix(12,0,0,12,551.7,143.8)" />
<use xlink:href="#f2_2a" transform="matrix(12,0,0,12,564.5,143.8)" />
<use xlink:href="#f2_1x" transform="matrix(12,0,0,12,573.6,143.8)" />
<use xlink:href="#f2_29" transform="matrix(12,0,0,12,581.8,143.8)" />
<use xlink:href="#f2_21" transform="matrix(12,0,0,12,595.9,143.8)" />
<use xlink:href="#f2_29" transform="matrix(12,0,0,12,608.7,143.8)" />
<use xlink:href="#f2_25" transform="matrix(12,0,0,12,622.8,143.8)" />
<use xlink:href="#f2_1z" transform="matrix(12,0,0,12,627.9,143.8)" />
<use xlink:href="#f2_2e" transform="matrix(12,0,0,12,636,143.8)" />
<use xlink:href="#f2_2b" transform="matrix(12,0,0,12,642.2,143.8)" />
<use xlink:href="#f2_2f" transform="matrix(12,0,0,12,651.4,143.8)" />
<use xlink:href="#f2_1z" transform="matrix(12,0,0,12,658.5,143.8)" />
<use xlink:href="#f2_2b" transform="matrix(12,0,0,12,666.7,143.8)" />
<use xlink:href="#f2_2c" transform="matrix(12,0,0,12,675.8,143.8)" />
<use xlink:href="#f2_21" transform="matrix(12,0,0,12,685,143.8)" />
<use xlink:href="#f2_d" transform="matrix(12,0,0,12,693.2,143.8)" />
<use xlink:href="#f2_g" transform="matrix(12,0,0,12,699.3,143.8)" />
<use xlink:href="#f2_2g" transform="matrix(12,0,0,12,708.4,143.8)" />
<use xlink:href="#f2_24" transform="matrix(12,0,0,12,713.6,143.8)" />
<use xlink:href="#f2_21" transform="matrix(12,0,0,12,722.8,143.8)" />
<use xlink:href="#f2_2b" transform="matrix(12,0,0,12,735.5,143.8)" />
<use xlink:href="#f2_1y" transform="matrix(12,0,0,12,744.6,143.8)" />
<use xlink:href="#f2_26" transform="matrix(12,0,0,12,753.7,143.8)" />
<use xlink:href="#f2_21" transform="matrix(12,0,0,12,758.8,143.8)" />
<use xlink:href="#f2_1z" transform="matrix(12,0,0,12,767,143.8)" />
<use xlink:href="#f2_2g" transform="matrix(12,0,0,12,775.1,143.8)" />
<use xlink:href="#f2_25" transform="matrix(12,0,0,12,780.2,143.8)" />
<use xlink:href="#f2_2i" transform="matrix(12,0,0,12,785.3,143.8)" />
<use xlink:href="#f2_21" transform="matrix(12,0,0,12,794.5,143.8)" />
<use xlink:href="#f2_1x" transform="matrix(12,0,0,12,807.3,143.8)" />
<use xlink:href="#f2_2a" transform="matrix(12,0,0,12,815.4,143.8)" />
<use xlink:href="#f2_20" transform="matrix(12,0,0,12,824.6,143.8)" />
<use xlink:href="#f2_21" transform="matrix(12,0,0,12,55,164.9)" />
<use xlink:href="#f2_2l" transform="matrix(12,0,0,12,63.1,164.9)" />
<use xlink:href="#f2_21" transform="matrix(12,0,0,12,72.3,164.9)" />
<use xlink:href="#f2_2c" transform="matrix(12,0,0,12,80.4,164.9)" />
<use xlink:href="#f2_25" transform="matrix(12,0,0,12,89.6,164.9)" />
<use xlink:href="#f2_21" transform="matrix(12,0,0,12,94.8,164.9)" />
<use xlink:href="#f2_1z" transform="matrix(12,0,0,12,102.9,164.9)" />
<use xlink:href="#f2_21" transform="matrix(12,0,0,12,111,164.9)" />
<use xlink:href="#f2_2f" transform="matrix(12,0,0,12,123.7,164.9)" />
<use xlink:href="#f2_24" transform="matrix(12,0,0,12,130.8,164.9)" />
<use xlink:href="#f2_2b" transform="matrix(12,0,0,12,140,164.9)" />
<use xlink:href="#f2_2h" transform="matrix(12,0,0,12,149.1,164.9)" />
<use xlink:href="#f2_28" transform="matrix(12,0,0,12,158.3,164.9)" />
<use xlink:href="#f2_20" transform="matrix(12,0,0,12,163.4,164.9)" />
<use xlink:href="#f2_24" transform="matrix(12,0,0,12,177.1,164.9)" />
<use xlink:href="#f2_1x" transform="matrix(12,0,0,12,186.3,164.9)" />
<use xlink:href="#f2_2i" transform="matrix(12,0,0,12,194.5,164.9)" />
<use xlink:href="#f2_21" transform="matrix(12,0,0,12,203.6,164.9)" />
<use xlink:href="#f2_2f" transform="matrix(12,0,0,12,216.4,164.9)" />
<use xlink:href="#f2_29" transform="matrix(12,0,0,12,223.4,164.9)" />
<use xlink:href="#f2_1x" transform="matrix(12,0,0,12,237.6,164.9)" />
<use xlink:href="#f2_28" transform="matrix(12,0,0,12,245.7,164.9)" />
<use xlink:href="#f2_28" transform="matrix(12,0,0,12,250.8,164.9)" />
<use xlink:href="#f2_22" transform="matrix(12,0,0,12,260.6,164.9)" />
<use xlink:href="#f2_2b" transform="matrix(12,0,0,12,266.7,164.9)" />
<use xlink:href="#f2_1z" transform="matrix(12,0,0,12,275.8,164.9)" />
<use xlink:href="#f2_1x" transform="matrix(12,0,0,12,284,164.9)" />
<use xlink:href="#f2_28" transform="matrix(12,0,0,12,292.1,164.9)" />
<use xlink:href="#f2_28" transform="matrix(12,0,0,12,301.8,164.9)" />
<use xlink:href="#f2_21" transform="matrix(12,0,0,12,306.9,164.9)" />
<use xlink:href="#f2_2a" transform="matrix(12,0,0,12,315,164.9)" />
<use xlink:href="#f2_23" transform="matrix(12,0,0,12,324.2,164.9)" />
<use xlink:href="#f2_2g" transform="matrix(12,0,0,12,333.3,164.9)" />
<use xlink:href="#f2_24" transform="matrix(12,0,0,12,338.4,164.9)" />
<use xlink:href="#f2_2f" transform="matrix(12,0,0,12,347.6,164.9)" />
<use xlink:href="#f2_i" transform="matrix(12,0,0,12,354.8,164.9)" />
<use xlink:href="#f2_c" transform="matrix(12,0,0,12,55,186)" />
<use xlink:href="#f2_1y" transform="matrix(12,0,0,12,61.1,186)" />
<use xlink:href="#f2_d" transform="matrix(12,0,0,12,70.3,186)" />
<use xlink:href="#f2_1k" transform="matrix(12,0,0,12,81,186)" />
<use xlink:href="#f2_24" transform="matrix(12,0,0,12,92.2,186)" />
<use xlink:href="#f2_21" transform="matrix(12,0,0,12,101.4,186)" />
<use xlink:href="#f2_2e" transform="matrix(12,0,0,12,114.1,186)" />
<use xlink:href="#f2_21" transform="matrix(12,0,0,12,120.2,186)" />
<use xlink:href="#f2_2f" transform="matrix(12,0,0,12,128.3,186)" />
<use xlink:href="#f2_2b" transform="matrix(12,0,0,12,135.4,186)" />
<use xlink:href="#f2_28" transform="matrix(12,0,0,12,144.6,186)" />
<use xlink:href="#f2_2i" transform="matrix(12,0,0,12,149.7,186)" />
<use xlink:href="#f2_25" transform="matrix(12,0,0,12,158.9,186)" />
<use xlink:href="#f2_2a" transform="matrix(12,0,0,12,164,186)" />
<use xlink:href="#f2_23" transform="matrix(12,0,0,12,173.2,186)" />
<use xlink:href="#f2_2c" transform="matrix(12,0,0,12,186.9,186)" />
<use xlink:href="#f2_2b" transform="matrix(12,0,0,12,196.1,186)" />
<use xlink:href="#f2_2j" transform="matrix(12,0,0,12,205.3,186)" />
<use xlink:href="#f2_21" transform="matrix(12,0,0,12,218.5,186)" />
<use xlink:href="#f2_2e" transform="matrix(12,0,0,12,226.6,186)" />
<use xlink:href="#f2_2b" transform="matrix(12,0,0,12,237.2,186)" />
<use xlink:href="#f2_22" transform="matrix(12,0,0,12,246.4,186)" />
<use xlink:href="#f2_1x" transform="matrix(12,0,0,12,257.1,186)" />
<use xlink:href="#f2_29" transform="matrix(12,0,0,12,269.9,186)" />
<use xlink:href="#f2_25" transform="matrix(12,0,0,12,284,186)" />
<use xlink:href="#f2_1z" transform="matrix(12,0,0,12,289.1,186)" />
<use xlink:href="#f2_2e" transform="matrix(12,0,0,12,297.2,186)" />
<use xlink:href="#f2_2b" transform="matrix(12,0,0,12,303.4,186)" />
<use xlink:href="#f2_2f" transform="matrix(12,0,0,12,312.6,186)" />
<use xlink:href="#f2_1z" transform="matrix(12,0,0,12,319.7,186)" />
<use xlink:href="#f2_2b" transform="matrix(12,0,0,12,327.8,186)" />
<use xlink:href="#f2_2c" transform="matrix(12,0,0,12,336.9,186)" />
<use xlink:href="#f2_21" transform="matrix(12,0,0,12,346.1,186)" />
<use xlink:href="#f2_25" transform="matrix(12,0,0,12,358.8,186)" />
<use xlink:href="#f2_2f" transform="matrix(12,0,0,12,363.9,186)" />
<use xlink:href="#f2_23" transform="matrix(12,0,0,12,375.7,186)" />
<use xlink:href="#f2_25" transform="matrix(12,0,0,12,384.9,186)" />
<use xlink:href="#f2_2i" transform="matrix(12,0,0,12,390,186)" />
<use xlink:href="#f2_21" transform="matrix(12,0,0,12,399.1,186)" />
<use xlink:href="#f2_2a" transform="matrix(12,0,0,12,407.2,186)" />
<use xlink:href="#f2_1y" transform="matrix(12,0,0,12,420.9,186)" />
<use xlink:href="#f2_2l" transform="matrix(12,0,0,12,430.1,186)" />
<use xlink:href="#f2_2g" transform="matrix(12,0,0,12,443.8,186)" />
<use xlink:href="#f2_24" transform="matrix(12,0,0,12,448.9,186)" />
<use xlink:href="#f2_21" transform="matrix(12,0,0,12,458.1,186)" />
<use xlink:href="#f2_2e" transform="matrix(12,0,0,12,470.8,186)" />
<use xlink:href="#f2_21" transform="matrix(12,0,0,12,476.9,186)" />
<use xlink:href="#f2_28" transform="matrix(12,0,0,12,485.1,186)" />
<use xlink:href="#f2_1x" transform="matrix(12,0,0,12,490.2,186)" />
<use xlink:href="#f2_2g" transform="matrix(12,0,0,12,498.3,186)" />
<use xlink:href="#f2_25" transform="matrix(12,0,0,12,503.4,186)" />
<use xlink:href="#f2_2b" transform="matrix(12,0,0,12,508.4,186)" />
<use xlink:href="#f2_2a" transform="matrix(12,0,0,12,517.6,186)" />
</g>
<path d="M100,214.2h30.7m19.5,0h56.2" class="g2_142" />
<g clip-path="url(#c0_142)">
<g fill="#000000" >
<use xlink:href="#f2_29" transform="matrix(7,0,0,6.9,111.2,237.7)" />
<use xlink:href="#f2_25" transform="matrix(7,0,0,6.9,119.2,237.7)" />
<use xlink:href="#f2_2a" transform="matrix(7,0,0,6.9,122.2,237.7)" />
<use xlink:href="#f2_l" transform="matrix(12.2,0,0,11.9,110.7,207.3)" />
<use xlink:href="#f2_m" transform="matrix(12.2,0,0,11.9,151.3,207.3)" />
<use xlink:href="#f2_2f" transform="matrix(12.2,0,0,11.9,172,207.3)" />
<use xlink:href="#f2_25" transform="matrix(12.2,0,0,11.9,179.1,207.3)" />
<use xlink:href="#f2_2a" transform="matrix(12.2,0,0,11.9,184.3,207.3)" />
<use xlink:href="#f2_l" transform="matrix(12.2,0,0,11.9,155.8,233)" />
<use xlink:href="#f2_i" transform="matrix(12.2,0,0,11.9,165,233)" />
<use xlink:href="#f2_m" transform="matrix(12.2,0,0,11.9,169.6,233)" />
<use xlink:href="#f2_m" transform="matrix(12.2,0,0,11.9,178.7,233)" />
<use xlink:href="#f3_2a" transform="matrix(12.2,0,0,11.9,160.8,207.3)" />
<use xlink:href="#f3_1i" transform="matrix(12.2,0,0,11.9,58.4,218.8)" />
<use xlink:href="#f3_1g" transform="matrix(12.2,0,0,11.9,69.6,218.8)" />
<use xlink:href="#f3_20" transform="matrix(12.2,0,0,11.9,101.2,233)" />
<use xlink:href="#f4_28" transform="matrix(12.2,0,-4.1,11.9,187.9,233)" />
<use xlink:href="#f4_1y" transform="matrix(12.2,0,0,11.9,195.8,207.3)" />
<use xlink:href="#f4_x" transform="matrix(12.2,0,0,11.9,85.4,218.8)" />
<use xlink:href="#f4_x" transform="matrix(12.2,0,0,11.9,135.5,218.8)" />
</g>
</g>
<g fill="#000000" >
<use xlink:href="#f2_c" transform="matrix(12,0,0,12,55,258.7)" />
<use xlink:href="#f2_25" transform="matrix(12,0,0,12,61.1,258.7)" />
<use xlink:href="#f2_d" transform="matrix(12,0,0,12,66.3,258.7)" />
<use xlink:href="#f2_1n" transform="matrix(12,0,0,12,76.9,258.7)" />
<use xlink:href="#f2_24" transform="matrix(12,0,0,12,94.1,258.7)" />
<use xlink:href="#f2_21" transform="matrix(12,0,0,12,103.3,258.7)" />
<use xlink:href="#f2_2a" transform="matrix(12,0,0,12,111.4,258.7)" />
<use xlink:href="#f2_2g" transform="matrix(12,0,0,12,125.2,258.7)" />
<use xlink:href="#f2_24" transform="matrix(12,0,0,12,130.3,258.7)" />
<use xlink:href="#f2_21" transform="matrix(12,0,0,12,139.4,258.7)" />
<use xlink:href="#f2_20" transform="matrix(12,0,0,12,152.2,258.7)" />
<use xlink:href="#f2_25" transform="matrix(12,0,0,12,161.4,258.7)" />
<use xlink:href="#f2_1x" transform="matrix(12,0,0,12,166.5,258.7)" />
<use xlink:href="#f2_29" transform="matrix(12,0,0,12,174.6,258.7)" />
<use xlink:href="#f2_21" transform="matrix(12,0,0,12,188.8,258.7)" />
<use xlink:href="#f2_2g" transform="matrix(12,0,0,12,196.9,258.7)" />
<use xlink:href="#f2_21" transform="matrix(12,0,0,12,202,258.7)" />
<use xlink:href="#f2_2e" transform="matrix(12,0,0,12,210.2,258.7)" />
<use xlink:href="#f2_2b" transform="matrix(12,0,0,12,220.9,258.7)" />
<use xlink:href="#f2_22" transform="matrix(12,0,0,12,230.1,258.7)" />
<use xlink:href="#f2_2g" transform="matrix(12,0,0,12,240.8,258.7)" />
<use xlink:href="#f2_24" transform="matrix(12,0,0,12,245.9,258.7)" />
<use xlink:href="#f2_21" transform="matrix(12,0,0,12,255,258.7)" />
<use xlink:href="#f2_2b" transform="matrix(12,0,0,12,267.8,258.7)" />
<use xlink:href="#f2_1y" transform="matrix(12,0,0,12,276.9,258.7)" />
<use xlink:href="#f2_26" transform="matrix(12,0,0,12,286.1,258.7)" />
<use xlink:href="#f2_21" transform="matrix(12,0,0,12,291.2,258.7)" />
<use xlink:href="#f2_1z" transform="matrix(12,0,0,12,299.3,258.7)" />
<use xlink:href="#f2_2g" transform="matrix(12,0,0,12,307.5,258.7)" />
<use xlink:href="#f2_25" transform="matrix(12,0,0,12,312.5,258.7)" />
<use xlink:href="#f2_2i" transform="matrix(12,0,0,12,317.7,258.7)" />
<use xlink:href="#f2_21" transform="matrix(12,0,0,12,326.8,258.7)" />
<use xlink:href="#f2_28" transform="matrix(12,0,0,12,339.5,258.7)" />
<use xlink:href="#f2_21" transform="matrix(12,0,0,12,344.6,258.7)" />
<use xlink:href="#f2_2a" transform="matrix(12,0,0,12,352.8,258.7)" />
<use xlink:href="#f2_2f" transform="matrix(12,0,0,12,362,258.7)" />
<use xlink:href="#f2_25" transform="matrix(12,0,0,12,373.6,258.7)" />
<use xlink:href="#f2_2f" transform="matrix(12,0,0,12,378.7,258.7)" />
<use xlink:href="#f2_20" transform="matrix(12,0,0,12,390.4,258.7)" />
<use xlink:href="#f2_21" transform="matrix(12,0,0,12,399.6,258.7)" />
<use xlink:href="#f2_1z" transform="matrix(12,0,0,12,407.8,258.7)" />
<use xlink:href="#f2_2e" transform="matrix(12,0,0,12,415.9,258.7)" />
<use xlink:href="#f2_21" transform="matrix(12,0,0,12,422,258.7)" />
<use xlink:href="#f2_1x" transform="matrix(12,0,0,12,430.1,258.7)" />
<use xlink:href="#f2_2f" transform="matrix(12,0,0,12,438.3,258.7)" />
<use xlink:href="#f2_21" transform="matrix(12,0,0,12,445.4,258.7)" />
<use xlink:href="#f2_20" transform="matrix(12,0,0,12,453.6,258.7)" />
<use xlink:href="#f5_eu" transform="matrix(12,0,0,12,467.5,258.7)" />
<use xlink:href="#f2_20" transform="matrix(12,0,0,12,481.4,258.7)" />
<use xlink:href="#f2_21" transform="matrix(12,0,0,12,490.6,258.7)" />
<use xlink:href="#f2_1z" transform="matrix(12,0,0,12,498.7,258.7)" />
<use xlink:href="#f2_2e" transform="matrix(12,0,0,12,506.8,258.7)" />
<use xlink:href="#f2_21" transform="matrix(12,0,0,12,512.9,258.7)" />
<use xlink:href="#f2_1x" transform="matrix(12,0,0,12,521,258.7)" />
<use xlink:href="#f2_2f" transform="matrix(12,0,0,12,529.2,258.7)" />
<use xlink:href="#f2_21" transform="matrix(12,0,0,12,536.4,258.7)" />
<use xlink:href="#f2_2f" transform="matrix(12,0,0,12,544.5,258.7)" />
<use xlink:href="#f2_2f" transform="matrix(12,0,0,12,556.2,258.7)" />
<use xlink:href="#f2_2b" transform="matrix(12,0,0,12,563.4,258.7)" />
<use xlink:href="#f2_2e" transform="matrix(12,0,0,12,577.1,258.7)" />
<use xlink:href="#f2_21" transform="matrix(12,0,0,12,583.2,258.7)" />
<use xlink:href="#f2_2f" transform="matrix(12,0,0,12,591.3,258.7)" />
<use xlink:href="#f2_2b" transform="matrix(12,0,0,12,598.5,258.7)" />
<use xlink:href="#f2_28" transform="matrix(12,0,0,12,607.6,258.7)" />
<use xlink:href="#f2_2i" transform="matrix(12,0,0,12,612.7,258.7)" />
<use xlink:href="#f2_25" transform="matrix(12,0,0,12,621.9,258.7)" />
<use xlink:href="#f2_2a" transform="matrix(12,0,0,12,627,258.7)" />
<use xlink:href="#f2_23" transform="matrix(12,0,0,12,636.2,258.7)" />
<use xlink:href="#f2_2c" transform="matrix(12,0,0,12,649.9,258.7)" />
<use xlink:href="#f2_2b" transform="matrix(12,0,0,12,659.1,258.7)" />
<use xlink:href="#f2_2j" transform="matrix(12,0,0,12,668.3,258.7)" />
<use xlink:href="#f2_21" transform="matrix(12,0,0,12,681.5,258.7)" />
<use xlink:href="#f2_2e" transform="matrix(12,0,0,12,689.6,258.7)" />
<use xlink:href="#f2_20" transform="matrix(12,0,0,12,700.2,258.7)" />
<use xlink:href="#f2_21" transform="matrix(12,0,0,12,709.4,258.7)" />
<use xlink:href="#f2_1z" transform="matrix(12,0,0,12,717.6,258.7)" />
<use xlink:href="#f2_2e" transform="matrix(12,0,0,12,725.7,258.7)" />
<use xlink:href="#f2_21" transform="matrix(12,0,0,12,731.8,258.7)" />
<use xlink:href="#f2_1x" transform="matrix(12,0,0,12,740,258.7)" />
<use xlink:href="#f2_2f" transform="matrix(12,0,0,12,748.1,258.7)" />
<use xlink:href="#f2_21" transform="matrix(12,0,0,12,755.2,258.7)" />
<use xlink:href="#f2_2f" transform="matrix(12,0,0,12,763.4,258.7)" />
<use xlink:href="#f2_i" transform="matrix(12,0,0,12,770.6,258.7)" />
<use xlink:href="#f2_c" transform="matrix(12,0,0,12,55,279.8)" />
<use xlink:href="#f2_25" transform="matrix(12,0,0,12,61.1,279.8)" />
<use xlink:href="#f2_25" transform="matrix(12,0,0,12,66.3,279.8)" />
<use xlink:href="#f2_d" transform="matrix(12,0,0,12,71.4,279.8)" />
<use xlink:href="#f2_1n" transform="matrix(12,0,0,12,82,279.8)" />
<use xlink:href="#f2_24" transform="matrix(12,0,0,12,99.2,279.8)" />
<use xlink:href="#f2_21" transform="matrix(12,0,0,12,108.3,279.8)" />
<use xlink:href="#f2_2a" transform="matrix(12,0,0,12,116.5,279.8)" />
<use xlink:href="#f2_2g" transform="matrix(12,0,0,12,130.2,279.8)" />
<use xlink:href="#f2_24" transform="matrix(12,0,0,12,135.3,279.8)" />
<use xlink:href="#f2_21" transform="matrix(12,0,0,12,144.5,279.8)" />
<use xlink:href="#f2_2j" transform="matrix(12,0,0,12,157.3,279.8)" />
<use xlink:href="#f2_1x" transform="matrix(12,0,0,12,170.5,279.8)" />
<use xlink:href="#f2_2i" transform="matrix(12,0,0,12,178.6,279.8)" />
<use xlink:href="#f2_21" transform="matrix(12,0,0,12,187.8,279.8)" />
<use xlink:href="#f2_28" transform="matrix(12,0,0,12,195.9,279.8)" />
<use xlink:href="#f2_21" transform="matrix(12,0,0,12,201,279.8)" />
<use xlink:href="#f2_2a" transform="matrix(12,0,0,12,209.2,279.8)" />
<use xlink:href="#f2_23" transform="matrix(12,0,0,12,218.4,279.8)" />
<use xlink:href="#f2_2g" transform="matrix(12,0,0,12,227.6,279.8)" />
<use xlink:href="#f2_24" transform="matrix(12,0,0,12,232.7,279.8)" />
<use xlink:href="#f2_2b" transform="matrix(12,0,0,12,246.3,279.8)" />
<use xlink:href="#f2_22" transform="matrix(12,0,0,12,255.5,279.8)" />
<use xlink:href="#f2_2g" transform="matrix(12,0,0,12,266.2,279.8)" />
<use xlink:href="#f2_24" transform="matrix(12,0,0,12,271.3,279.8)" />
<use xlink:href="#f2_21" transform="matrix(12,0,0,12,280.5,279.8)" />
<use xlink:href="#f2_25" transform="matrix(12,0,0,12,293.2,279.8)" />
<use xlink:href="#f2_2a" transform="matrix(12,0,0,12,298.3,279.8)" />
<use xlink:href="#f2_1z" transform="matrix(12,0,0,12,307.5,279.8)" />
<use xlink:href="#f2_25" transform="matrix(12,0,0,12,315.6,279.8)" />
<use xlink:href="#f2_20" transform="matrix(12,0,0,12,320.7,279.8)" />
<use xlink:href="#f2_21" transform="matrix(12,0,0,12,329.9,279.8)" />
<use xlink:href="#f2_2a" transform="matrix(12,0,0,12,338,279.8)" />
<use xlink:href="#f2_2g" transform="matrix(12,0,0,12,347.2,279.8)" />
<use xlink:href="#f2_28" transform="matrix(12,0,0,12,356.9,279.8)" />
<use xlink:href="#f2_25" transform="matrix(12,0,0,12,361.9,279.8)" />
<use xlink:href="#f2_23" transform="matrix(12,0,0,12,367,279.8)" />
<use xlink:href="#f2_24" transform="matrix(12,0,0,12,376.2,279.8)" />
<use xlink:href="#f2_2g" transform="matrix(12,0,0,12,385.3,279.8)" />
<use xlink:href="#f2_25" transform="matrix(12,0,0,12,395.1,279.8)" />
<use xlink:href="#f2_2f" transform="matrix(12,0,0,12,400.1,279.8)" />
<use xlink:href="#f2_25" transform="matrix(12,0,0,12,411.8,279.8)" />
<use xlink:href="#f2_2a" transform="matrix(12,0,0,12,416.9,279.8)" />
<use xlink:href="#f2_1z" transform="matrix(12,0,0,12,426,279.8)" />
<use xlink:href="#f2_2e" transform="matrix(12,0,0,12,434.2,279.8)" />
<use xlink:href="#f2_21" transform="matrix(12,0,0,12,440.3,279.8)" />
<use xlink:href="#f2_1x" transform="matrix(12,0,0,12,448.4,279.8)" />
<use xlink:href="#f2_2f" transform="matrix(12,0,0,12,456.6,279.8)" />
<use xlink:href="#f2_21" transform="matrix(12,0,0,12,463.7,279.8)" />
<use xlink:href="#f2_20" transform="matrix(12,0,0,12,471.8,279.8)" />
<use xlink:href="#f2_2e" transform="matrix(12,0,0,12,485.6,279.8)" />
<use xlink:href="#f2_21" transform="matrix(12,0,0,12,491.7,279.8)" />
<use xlink:href="#f2_2f" transform="matrix(12,0,0,12,499.7,279.8)" />
<use xlink:href="#f2_2b" transform="matrix(12,0,0,12,506.9,279.8)" />
<use xlink:href="#f2_28" transform="matrix(12,0,0,12,516,279.8)" />
<use xlink:href="#f2_2i" transform="matrix(12,0,0,12,521.1,279.8)" />
<use xlink:href="#f2_25" transform="matrix(12,0,0,12,530.3,279.8)" />
<use xlink:href="#f2_2a" transform="matrix(12,0,0,12,535.5,279.8)" />
<use xlink:href="#f2_23" transform="matrix(12,0,0,12,544.6,279.8)" />
<use xlink:href="#f2_2c" transform="matrix(12,0,0,12,558.4,279.8)" />
<use xlink:href="#f2_2b" transform="matrix(12,0,0,12,567.6,279.8)" />
<use xlink:href="#f2_2j" transform="matrix(12,0,0,12,576.7,279.8)" />
<use xlink:href="#f2_21" transform="matrix(12,0,0,12,589.8,279.8)" />
<use xlink:href="#f2_2e" transform="matrix(12,0,0,12,598,279.8)" />
<use xlink:href="#f2_20" transform="matrix(12,0,0,12,608.7,279.8)" />
<use xlink:href="#f2_21" transform="matrix(12,0,0,12,618.1,279.8)" />
<use xlink:href="#f2_1z" transform="matrix(12,0,0,12,626.2,279.8)" />
<use xlink:href="#f2_2e" transform="matrix(12,0,0,12,634.3,279.8)" />
<use xlink:href="#f2_21" transform="matrix(12,0,0,12,640.4,279.8)" />
<use xlink:href="#f2_1x" transform="matrix(12,0,0,12,648.5,279.8)" />
<use xlink:href="#f2_2f" transform="matrix(12,0,0,12,656.7,279.8)" />
<use xlink:href="#f2_21" transform="matrix(12,0,0,12,663.9,279.8)" />
<use xlink:href="#f2_2f" transform="matrix(12,0,0,12,672,279.8)" />
<use xlink:href="#f2_i" transform="matrix(12,0,0,12,679.1,279.8)" />
</g>
<path fill-rule="evenodd" d="M37.4,38.1h.7v-.7h-.7v.7Z" class="g3_142" />
<path fill-rule="evenodd" d="M37.4,38.1h.7v-.7h-.7v.7Z" class="g3_142" />
<path fill-rule="evenodd" d="M38.1,38.1H871.5v-.7H38.1v.7Z" class="g3_142" />
<path fill-rule="evenodd" d="M871.5,38.1h.7v-.7h-.7v.7Z" class="g3_142" />
<path fill-rule="evenodd" d="M871.5,38.1h.7v-.7h-.7v.7Z" class="g3_142" />
<path fill-rule="evenodd" d="M37.4,1248.2h.7V38.1h-.7V1248.2Z" class="g3_142" />
<path fill-rule="evenodd" d="M872.2,1248.2h.8V38.1h-.8V1248.2Z" class="g3_142" />
<path fill-rule="evenodd" d="M871.5,1248.2h.7V38.1h-.7V1248.2Z" class="g3_142" />
<path fill-rule="evenodd" d="M37.4,1249h.7v-.8h-.7v.8Z" class="g3_142" />
<path fill-rule="evenodd" d="M37.4,1249h.7v-.8h-.7v.8Z" class="g3_142" />
<path fill-rule="evenodd" d="M38.1,1249.7H871.5v-.7H38.1v.7Z" class="g3_142" />
<path fill-rule="evenodd" d="M38.1,1249H871.5v-.8H38.1v.8Z" class="g3_142" />
<path fill-rule="evenodd" d="M872.2,1249.7h.8v-1.5h-.8v1.5Z" class="g3_142" />
<path fill-rule="evenodd" d="M871.5,1249.7H873v-.7h-1.5v.7Z" class="g3_142" />
<path fill-rule="evenodd" d="M871.5,1249h.7v-.8h-.7v.8Z" class="g3_142" />
<path fill-rule="evenodd" d="M871.5,1249h.7v-.8h-.7v.8Z" class="g3_142" />
<defs>
<path d="M489,-15c0,0,-99,0,-179,30c0,0,-80,30,-136,91c0,0,-56,61,-85,152c0,0,-30,91,-30,212c0,0,0,123,32,218c0,0,33,96,92,161c0,0,59,65,142,98c0,0,82,34,181,34c0,0,40,0,78,-7c0,0,37,-7,69,-18c0,0,31,-11,57,-25c0,0,25,-14,35,-24c0,0,10,-10,14,-17c0,0,4,-7,6,-17c0,0,2,-11,3,-25c0,0,2,-14,2,-35c0,0,0,-22,-2,-38c0,0,-1,-15,-5,-25c0,0,-4,-10,-9,-14c0,0,-5,-5,-12,-5c0,0,-11,0,-28,13c0,0,-18,13,-45,29c0,0,-27,16,-65,29c0,0,-37,13,-89,13c0,0,-58,0,-103,-23c0,0,-45,-23,-77,-67c0,0,-31,-44,-48,-106c0,0,-16,-61,-16,-139c0,0,0,-85,17,-147c0,0,18,-62,50,-103c0,0,33,-40,79,-60c0,0,45,-19,103,-19c0,0,52,0,90,12c0,0,38,12,65,27c0,0,27,15,45,27c0,0,17,12,27,12c0,0,8,0,12,-3c0,0,4,-3,7,-12c0,0,3,-9,5,-25c0,0,1,-16,1,-43c0,0,0,-18,-1,-31c0,0,-1,-14,-3,-23c0,0,-2,-9,-6,-16c0,0,-4,-7,-12,-15c0,0,-8,-9,-32,-22c0,0,-23,-14,-57,-26C661,13,627,1,583,-6c0,0,-43,-9,-94,-9Z" 
id="f0_j"
transform="scale(0.001,-0.001)" />

<path d="M440,150c0,0,41,0,68,8c0,0,28,9,49,26c0,0,20,16,32,41c0,0,11,25,11,58c0,0,0,33,-11,60c0,0,-11,26,-33,44c0,0,-21,18,-55,28c0,0,-33,9,-87,9H298V150ZM407,567c0,0,42,0,68,10c0,0,25,10,42,28c0,0,16,17,24,41c0,0,9,24,9,50c0,0,0,29,-9,52c0,0,-9,23,-27,39c0,0,-18,15,-45,23c0,0,-27,8,-72,8H298V567ZM164,0c0,0,-25,0,-42,15c0,0,-16,14,-16,47V903c0,0,0,33,16,48c0,0,17,14,42,14H406c0,0,88,0,150,-15c0,0,61,-15,103,-45c0,0,42,-30,65,-77c0,0,22,-46,22,-108c0,0,0,-36,-9,-67c0,0,-9,-31,-26,-56c0,0,-17,-25,-42,-45c0,0,-25,-19,-57,-31c0,0,41,-7,76,-26c0,0,34,-19,60,-48c0,0,26,-30,41,-69c0,0,15,-40,15,-89c0,0,0,-51,-14,-93c0,0,-15,-42,-40,-74c0,0,-25,-32,-59,-55c0,0,-35,-23,-77,-38C614,29,573,14,525,7C525,7,478,0,420,0Z" 
id="f0_i"
transform="scale(0.001,-0.001)" />

<path d="M320,-17c0,0,-50,0,-93,9c0,0,-43,8,-76,19c0,0,-32,11,-54,24C97,35,75,48,65,58c0,0,-10,9,-14,28c0,0,-4,18,-4,52c0,0,0,23,1,39c0,0,2,15,5,25c0,0,4,10,9,14c0,0,6,4,13,4c0,0,11,0,30,-12c0,0,19,-13,49,-28c0,0,30,-15,71,-27c0,0,42,-12,96,-12c0,0,36,0,64,8c0,0,29,9,49,25c0,0,19,15,30,38c0,0,10,23,10,52c0,0,0,33,-18,56c0,0,-18,24,-46,42c0,0,-29,18,-66,34c0,0,-36,16,-75,34c0,0,-39,18,-76,41c0,0,-36,23,-65,54c0,0,-29,32,-47,75c0,0,-17,44,-17,104c0,0,0,70,25,122c0,0,26,53,70,88c0,0,43,34,103,51c0,0,59,18,125,18c0,0,35,0,69,-6c0,0,34,-5,64,-14c0,0,30,-9,53,-20c0,0,23,-11,31,-18c0,0,7,-8,10,-13c0,0,3,-5,4,-14c0,0,2,-8,3,-21c0,0,1,-13,1,-33c0,0,0,-21,-1,-36c0,0,-1,-15,-4,-25c0,0,-3,-9,-7,-14c0,0,-5,-4,-14,-4c0,0,-8,0,-26,10c0,0,-18,10,-44,23c0,0,-26,12,-60,22c0,0,-34,10,-75,10c0,0,-32,0,-56,-8c0,0,-24,-8,-40,-21c0,0,-16,-14,-24,-34c0,0,-8,-19,-8,-41c0,0,0,-32,18,-56c0,0,17,-23,46,-42c0,0,30,-18,67,-34c0,0,38,-16,76,-34c0,0,39,-18,76,-41c0,0,38,-22,67,-54c0,0,29,-32,47,-75c0,0,18,-43,18,-101c0,0,0,-76,-29,-133c0,0,-28,-58,-77,-96C572,60,524,21,459,2c0,0,-65,-19,-139,-19Z" 
id="f0_2n"
transform="scale(0.001,-0.001)" />

<path d="M164,0c0,0,-25,0,-42,15c0,0,-16,14,-16,47V903c0,0,0,33,16,48c0,0,17,14,42,14H645c0,0,7,0,12,-4c0,0,5,-3,9,-13c0,0,4,-9,6,-24c0,0,2,-14,2,-36c0,0,0,-21,-2,-36c0,0,-2,-14,-6,-23c0,0,-4,-9,-9,-13c0,0,-5,-4,-12,-4H301V576H593c0,0,6,0,12,-4c0,0,6,-4,9,-13c0,0,4,-8,6,-23c0,0,2,-14,2,-35c0,0,0,-22,-2,-36c0,0,-2,-14,-6,-23c0,0,-3,-8,-9,-12c0,0,-6,-4,-12,-4H301V154H649c0,0,6,0,12,-5c0,0,5,-4,9,-13c0,0,4,-9,6,-23c0,0,2,-15,2,-36c0,0,0,-22,-2,-36c0,0,-2,-15,-6,-24c0,0,-4,-9,-9,-13c0,0,-6,-4,-12,-4Z" 
id="f0_t"
transform="scale(0.001,-0.001)" />

<path d="M79,297c0,0,-19,0,-27,18c0,0,-8,17,-8,60c0,0,0,41,8,59c0,0,8,17,27,17H389c0,0,9,0,15,-4c0,0,7,-4,11,-13c0,0,5,-9,7,-23c0,0,1,-15,1,-36c0,0,0,-43,-8,-61c0,0,-8,-17,-26,-17Z" 
id="f0_oj"
transform="scale(0.001,-0.001)" />

<path d="M121,-4c0,0,-39,0,-60,2C61,-2,39,0,32,8c0,0,-8,8,-3,24c0,0,4,15,18,41L279,495L64,892c0,0,-14,26,-19,42c0,0,-5,17,4,24c0,0,9,8,32,10c0,0,23,2,65,2c0,0,35,0,56,-2c0,0,20,-1,32,-4c0,0,12,-4,17,-10c0,0,5,-6,9,-15L431,620L595,939c0,0,5,9,10,15c0,0,5,6,16,10c0,0,10,3,29,4c0,0,19,2,53,2c0,0,37,0,59,-2c0,0,22,-2,30,-10c0,0,8,-8,4,-24c0,0,-4,-16,-17,-42L564,497L793,73c0,0,14,-26,18,-41c0,0,4,-16,-5,-24c0,0,-9,-8,-32,-10c0,0,-24,-2,-65,-2c0,0,-36,0,-56,2c0,0,-20,1,-31,3c0,0,-12,4,-17,10c0,0,-5,6,-9,15L414,374L233,26c0,0,-4,-9,-9,-15c0,0,-6,-6,-17,-10c0,0,-12,-2,-32,-3c0,0,-21,-2,-54,-2Z" 
id="f0_3e"
transform="scale(0.001,-0.001)" />

<path d="M204,-4c0,0,-28,0,-47,2c0,0,-19,2,-31,5c0,0,-11,4,-16,10c0,0,-4,6,-4,13V939c0,0,0,7,4,13c0,0,5,6,17,10c0,0,11,3,30,6c0,0,19,2,47,2c0,0,29,0,48,-2c0,0,18,-3,29,-6c0,0,11,-4,16,-10c0,0,5,-6,5,-13V26c0,0,0,-7,-5,-13c0,0,-5,-6,-16,-10c0,0,-11,-3,-29,-5c0,0,-19,-2,-48,-2Z" 
id="f0_1c"
transform="scale(0.001,-0.001)" />

<path d="M127,0c0,0,-16,0,-28,3C99,3,87,6,80,15c0,0,-8,8,-11,25c0,0,-3,16,-3,42c0,0,0,25,2,42c0,0,2,18,8,32c0,0,6,14,15,27c0,0,9,13,24,29L282,390c0,0,50,53,81,95c0,0,30,43,47,79c0,0,17,35,24,65c0,0,6,30,6,57c0,0,0,24,-8,46c0,0,-8,22,-23,39c0,0,-15,16,-38,25c0,0,-23,10,-55,10c0,0,-44,0,-78,-12c0,0,-33,-11,-59,-25c0,0,-26,-13,-43,-25c0,0,-17,-12,-27,-12c0,0,-7,0,-11,5c0,0,-5,4,-8,15c0,0,-3,10,-5,28c0,0,-2,17,-2,42c0,0,0,18,1,29c0,0,1,12,4,20c0,0,2,9,6,15c0,0,3,6,13,15c0,0,9,9,34,23c0,0,25,14,61,27c0,0,37,14,81,23c0,0,44,9,92,9c0,0,75,0,131,-19c0,0,57,-19,94,-53c0,0,37,-34,55,-81c0,0,19,-47,19,-100c0,0,0,-47,-9,-93c0,0,-9,-45,-37,-98c0,0,-29,-52,-80,-116c0,0,-52,-64,-136,-148L299,159H679c0,0,8,0,14,-4c0,0,6,-5,11,-14c0,0,4,-9,7,-25c0,0,2,-15,2,-36c0,0,0,-22,-2,-37c0,0,-2,-15,-6,-25c0,0,-3,-10,-9,-14c0,0,-6,-4,-14,-4Z" 
id="f0_rz"
transform="scale(0.001,-0.001)" />

<path d="M385,138c0,0,29,0,52,9c0,0,22,10,39,28c0,0,17,19,28,47c0,0,11,29,19,66c0,0,7,37,9,84c0,0,3,47,3,104c0,0,0,69,-4,122c0,0,-4,52,-11,91c0,0,-8,39,-20,66c0,0,-12,27,-28,43c0,0,-16,16,-37,22c0,0,-21,7,-47,7c0,0,-44,0,-73,-21c0,0,-28,-21,-45,-64c0,0,-17,-42,-24,-106c0,0,-6,-63,-6,-148c0,0,0,-103,8,-171c0,0,8,-67,26,-107c0,0,17,-40,45,-56c0,0,27,-16,66,-16ZM378,-17c0,0,-99,0,-164,33c0,0,-65,34,-103,98c0,0,-38,64,-54,156c0,0,-15,92,-15,209c0,0,0,115,19,208c0,0,19,94,61,160c0,0,42,65,110,101c0,0,68,35,165,35c0,0,99,0,164,-34c0,0,65,-34,103,-98c0,0,39,-64,53,-156c0,0,15,-92,15,-209c0,0,0,-115,-18,-209c0,0,-19,-93,-61,-159C653,118,611,53,543,17c0,0,-67,-34,-165,-34Z" 
id="f0_rx"
transform="scale(0.001,-0.001)" />

<path d="M142,0c0,0,-6,0,-12,4c0,0,-5,3,-9,12c0,0,-4,9,-6,23c0,0,-3,15,-3,36c0,0,0,21,2,36c0,0,2,14,6,23c0,0,4,9,10,13c0,0,5,5,12,5H322V779L166,693c0,0,-17,-8,-28,-10c0,0,-1,0,-3,0c-4,0,-10,1,-14,5c0,0,-6,6,-8,22c0,0,-2,15,-2,44c0,0,0,18,0,29c0,0,1,12,4,20c0,0,3,8,8,14c0,0,5,5,14,11L345,962c0,0,4,3,9,5c0,0,6,2,15,3c0,0,9,1,23,2c0,0,15,0,38,0c0,0,28,0,46,-1c0,0,17,-1,26,-4c0,0,9,-3,12,-7c0,0,3,-4,3,-11V152H675c0,0,7,0,12,-5c0,0,6,-4,10,-13c0,0,4,-9,6,-23c0,0,2,-15,2,-36c0,0,0,-21,-2,-36c0,0,-3,-14,-7,-23c0,0,-4,-9,-9,-12c0,0,-5,-4,-12,-4Z" 
id="f0_ry"
transform="scale(0.001,-0.001)" />

<path d="M326,-17c0,0,-45,0,-85,6c0,0,-41,5,-73,13c0,0,-32,8,-52,17c0,0,-21,8,-27,14c0,0,-6,6,-9,12c0,0,-3,7,-5,16c0,0,-2,10,-3,24c0,0,-1,14,-1,33c0,0,0,21,2,36c0,0,1,14,5,23c0,0,3,9,8,13c0,0,4,4,10,4c0,0,7,0,23,-9c0,0,15,-8,40,-19c0,0,25,-10,61,-19c0,0,36,-8,86,-8c0,0,43,0,78,9c0,0,36,9,60,29c0,0,25,19,38,49c0,0,14,30,14,72c0,0,0,36,-11,64c0,0,-12,28,-35,47c0,0,-24,19,-62,29c0,0,-38,10,-93,10c0,0,-43,0,-78,-5c0,0,-36,-4,-67,-4c0,0,-22,0,-31,11c0,0,-9,11,-9,40V909c0,0,0,30,11,43c0,0,12,13,37,13H615c0,0,6,0,12,-4c0,0,6,-5,10,-15c0,0,5,-9,6,-25c0,0,2,-16,2,-39c0,0,0,-45,-7,-65c0,0,-8,-20,-23,-20H272V590c0,0,26,3,52,4c0,0,25,0,54,0c0,0,78,0,139,-18c0,0,61,-18,102,-53c0,0,42,-36,63,-88c0,0,22,-53,22,-122c0,0,0,-79,-27,-140c0,0,-27,-62,-77,-104C600,69,550,27,481,5c0,0,-70,-22,-155,-22Z" 
id="f0_s2"
transform="scale(0.001,-0.001)" />

<path d="M589,371L453,782h-1L317,371ZM106,-4c0,0,-35,0,-54,2C52,-2,32,0,25,8c0,0,-7,9,-5,24c0,0,2,16,11,42L329,931c0,0,4,13,10,21c0,0,6,7,19,12c0,0,13,4,36,5c0,0,23,1,61,1c0,0,44,0,71,-1c0,0,26,-1,40,-5c0,0,15,-5,21,-13c0,0,6,-8,11,-22L896,73c0,0,9,-27,11,-43c0,0,3,-15,-6,-23c0,0,-8,-7,-29,-9c0,0,-21,-2,-57,-2c0,0,-38,0,-59,1c0,0,-22,1,-33,4c0,0,-11,3,-16,9c0,0,-4,6,-7,16L635,220H272L211,31c0,0,-2,-11,-7,-18c0,0,-5,-7,-16,-11c0,0,-11,-3,-31,-4c0,0,-19,-2,-51,-2Z" 
id="f0_5"
transform="scale(0.001,-0.001)" />

<path d="M198,-4c0,0,-27,0,-45,2c0,0,-18,2,-28,5c0,0,-11,4,-15,10c0,0,-4,6,-4,13V887c0,0,0,38,20,58c0,0,20,20,53,20H308c0,0,34,0,59,-6c0,0,24,-5,42,-18c0,0,18,-13,30,-35c0,0,12,-21,21,-52L669,279h3L889,852c0,0,9,32,21,53c0,0,11,22,27,35c0,0,15,14,36,19c0,0,21,6,48,6h132c0,0,21,0,35,-5c0,0,15,-5,24,-15c0,0,9,-11,14,-25c0,0,5,-15,5,-33V26c0,0,0,-7,-4,-13c0,0,-4,-6,-15,-10c0,0,-11,-3,-29,-5c0,0,-18,-2,-45,-2c0,0,-27,0,-45,2c0,0,-18,2,-28,5c0,0,-11,4,-15,10c0,0,-5,6,-5,13V813h-1L764,27c0,0,-3,-10,-10,-16c0,0,-6,-6,-18,-10c0,0,-12,-3,-29,-4c0,0,-18,-1,-44,-1c0,0,-25,0,-43,2c0,0,-18,2,-29,5c0,0,-12,4,-19,10c0,0,-6,6,-9,14L293,813h-2V26c0,0,0,-7,-4,-13c0,0,-4,-6,-15,-10c0,0,-11,-3,-29,-5c0,0,-17,-2,-45,-2Z" 
id="f0_1x"
transform="scale(0.001,-0.001)" />

<path d="M193,-4c0,0,-26,0,-43,2c0,0,-18,2,-27,6c0,0,-10,4,-14,10c0,0,-3,6,-3,13V895c0,0,0,35,20,53c0,0,21,17,50,17H282c0,0,28,0,47,-5c0,0,20,-5,35,-16c0,0,15,-11,29,-31c0,0,13,-20,27,-49L608,511c0,0,17,-32,33,-63c0,0,16,-31,31,-62c0,0,14,-31,29,-60c0,0,14,-30,27,-60h1c0,0,-2,52,-3,109c0,0,-1,57,-1,108V936c0,0,0,7,4,13c0,0,5,6,15,11c0,0,10,4,28,6c0,0,17,2,44,2c0,0,25,0,42,-2c0,0,17,-2,27,-6c0,0,9,-5,13,-11c0,0,4,-6,4,-13V68c0,0,0,-17,-6,-30c0,0,-6,-14,-17,-23C879,15,869,6,856,2c0,0,-14,-3,-28,-3H744c0,0,-26,0,-45,4c0,0,-19,5,-35,19c0,0,-16,14,-31,38c0,0,-15,23,-34,60L359,572c0,0,-21,40,-43,86c0,0,-21,47,-38,91h-2c0,0,3,-54,5,-107c0,0,2,-53,2,-110V27c0,0,0,-7,-5,-13c0,0,-4,-6,-14,-10c0,0,-10,-4,-27,-6c0,0,-17,-2,-44,-2Z" 
id="f0_1y"
transform="scale(0.001,-0.001)" />

<path d="M378,-4c0,0,-28,0,-47,2c0,0,-19,2,-31,5c0,0,-11,4,-16,10c0,0,-4,6,-4,13V805H38c0,0,-8,0,-13,4c0,0,-5,5,-9,14c0,0,-3,9,-5,25c0,0,-2,15,-2,37c0,0,0,22,2,38c0,0,2,15,5,25c0,0,4,9,9,13c0,0,5,4,13,4H718c0,0,7,0,12,-4c0,0,6,-4,10,-13c0,0,3,-10,5,-25c0,0,2,-16,2,-38c0,0,0,-22,-2,-37c0,0,-2,-16,-5,-25c0,0,-4,-9,-10,-14c0,0,-5,-4,-12,-4H476V26c0,0,0,-7,-5,-13c0,0,-5,-6,-16,-10c0,0,-11,-3,-30,-5c0,0,-19,-2,-47,-2Z" 
id="f0_2t"
transform="scale(0.001,-0.001)" />

<path d="M514,145c0,0,72,0,121,27c0,0,48,26,78,73c0,0,30,46,42,107c0,0,13,62,13,131c0,0,0,76,-12,139c0,0,-12,62,-41,106c0,0,-29,45,-76,69c0,0,-48,24,-120,24c0,0,-72,0,-120,-27c0,0,-49,-27,-79,-73c0,0,-29,-45,-42,-106c0,0,-12,-61,-12,-129c0,0,0,-79,12,-142c0,0,12,-63,40,-108c0,0,28,-44,76,-68c0,0,48,-23,120,-23ZM508,-17c0,0,-113,0,-196,29c0,0,-84,29,-140,90c0,0,-56,60,-84,154c0,0,-28,93,-28,221c0,0,0,117,29,210c0,0,30,94,89,160c0,0,59,65,146,101c0,0,87,35,202,35c0,0,110,0,194,-29c0,0,84,-30,140,-90c0,0,56,-60,85,-153c0,0,29,-92,29,-217c0,0,0,-120,-30,-215c0,0,-30,-95,-89,-161C855,118,796,52,709,17c0,0,-87,-34,-201,-34Z" 
id="f0_24"
transform="scale(0.001,-0.001)" />

<path d="M75,0L400,413c0,0,71,91,101,149c0,0,30,58,30,109c0,0,0,55,-36,91c0,0,-36,36,-91,36c0,0,-63,0,-91,-45c0,0,-28,-46,-34,-142H67c0,0,0,173,102,268c0,0,102,95,253,95c0,0,140,0,229,-82c0,0,89,-82,89,-209c0,0,0,-125,-104,-276L580,324c0,0,-34,-50,-85,-114L468,178H740V0Z" 
id="f1_m"
transform="scale(0.001,-0.001)" />

<path d="M340,-13c0,0,-73,0,-129,20C211,7,155,27,86,74l22,217c0,0,156,-103,245,-103c0,0,64,0,112,45c0,0,47,46,47,107c0,0,0,68,-47,113c0,0,-48,46,-121,46c0,0,-85,0,-184,-42l48,495H681V777H393L382,665c0,0,163,0,251,-95c0,0,88,-95,88,-224c0,0,0,-146,-113,-253C608,93,494,-13,340,-13Z" 
id="f1_p"
transform="scale(0.001,-0.001)" />

<path d="M44,-281L425,1053H537L156,-281Z" 
id="f1_j"
transform="scale(0.001,-0.001)" />

<path d="M441,402V711h-3L193,402ZM441,0V227H19V404L457,952H650V402h90V227H650V0Z" 
id="f1_o"
transform="scale(0.001,-0.001)" />

<path d="M577,-14c0,0,-243,0,-379,132C198,118,63,250,63,488c0,0,0,258,130,391c0,0,131,132,387,132c0,0,156,0,335,-38l5,-218H871L848,884c0,0,-52,32,-121,50c0,0,-69,17,-141,17c0,0,-191,0,-279,-112c0,0,-88,-113,-88,-349c0,0,0,-217,92,-332c0,0,92,-115,268,-115c0,0,85,0,160,20c0,0,76,21,120,55l27,149h49L930,32c0,0,-164,-46,-353,-46Z" 
id="f2_13"
transform="scale(0.001,-0.001)" />

<path d="M31,0V33L150,52v956L31,1026v34H274V52L394,33V0Z" 
id="f2_28"
transform="scale(0.001,-0.001)" />

<path d="M495,413c0,0,0,133,-34,190c0,0,-34,57,-105,57c0,0,-78,0,-119,-63c0,0,-42,-62,-42,-184ZM374,-14c0,0,-163,0,-239,87c0,0,-75,88,-75,283c0,0,0,183,77,273c0,0,76,91,219,91c0,0,269,0,269,-306V353H194V340c0,0,0,-103,23,-160c0,0,22,-57,70,-87c0,0,47,-29,124,-29c0,0,40,0,96,6c0,0,55,7,91,15V43C598,43,562,20,500,3c0,0,-61,-17,-126,-17Z" 
id="f2_21"
transform="scale(0.001,-0.001)" />

<path d="M284,67c0,0,51,0,88,12c0,0,37,12,74,30V358l-98,-3c0,0,-100,-4,-135,-39c0,0,-35,-35,-35,-117c0,0,0,-132,106,-132ZM233,-14c0,0,-179,0,-179,208c0,0,0,70,27,116c0,0,27,46,87,70c0,0,60,24,173,27l105,3V519c0,0,0,72,-26,107c0,0,-27,34,-82,34c0,0,-75,0,-137,-35L176,538H134V691c0,0,121,26,213,26c0,0,115,0,169,-47c0,0,54,-47,54,-144V52L657,33V0H465L451,70c0,0,-85,-84,-218,-84Z" 
id="f2_1x"
transform="scale(0.001,-0.001)" />

<path d="M31,0V33l88,19V649L31,668v33H235l7,-87c0,0,44,37,121,71c0,0,76,35,121,35h11V530H463l-43,82c0,0,-37,0,-88,-10c0,0,-52,-10,-89,-26V52L363,33V0Z" 
id="f2_2e"
transform="scale(0.001,-0.001)" />

<path d="M148,-329c0,0,-58,0,-114,13v151H69l24,-71c0,0,23,-17,64,-17c0,0,39,0,72,22c0,0,33,23,60,67c0,0,27,44,68,157L90,649L19,668v33H344V668L233,648L423,158L606,649L497,668v33H758V668L685,652L411,-43c0,0,-48,-124,-84,-177c0,0,-36,-54,-79,-82c0,0,-44,-27,-100,-27Z" 
id="f2_2l"
transform="scale(0.001,-0.001)" />

<path d="M58,-234v58c0,0,131,42,131,125c0,0,0,15,-11,27c0,0,-11,12,-38,25C140,1,89,27,89,75c0,0,0,40,25,61c0,0,26,21,65,21c0,0,48,0,77,-34c0,0,30,-34,30,-86c0,0,0,-101,-60,-170c0,0,-59,-69,-168,-101Z" 
id="f2_g"
transform="scale(0.001,-0.001)" />

<path d="M249,-14c0,0,-71,0,-107,42c0,0,-35,42,-35,119V639H15v33l93,29l76,159h47V701H391V639H231V161c0,0,0,-48,22,-73c0,0,22,-24,57,-24c0,0,44,0,106,12V26C416,26,389,8,340,-2c0,0,-49,-12,-91,-12Z" 
id="f2_2g"
transform="scale(0.001,-0.001)" />

<path d="M377,45c0,0,99,0,147,73c0,0,47,73,47,237c0,0,0,161,-47,233c0,0,-47,72,-147,72c0,0,-97,0,-141,-69c0,0,-44,-69,-44,-236c0,0,0,-169,45,-240c0,0,44,-70,140,-70Zm0,-59c0,0,-158,0,-238,94c0,0,-81,95,-81,274c0,0,0,178,81,272c0,0,80,94,244,94c0,0,160,0,241,-92c0,0,82,-92,82,-274c0,0,0,-368,-329,-368Z" 
id="f2_2b"
transform="scale(0.001,-0.001)" />

<path d="M399,-14c0,0,-341,0,-341,370c0,0,0,175,87,269c0,0,87,95,249,95c0,0,101,0,220,-23V501H573L541,625c0,0,-62,35,-149,35c0,0,-200,0,-200,-304c0,0,0,-158,61,-225c0,0,61,-67,189,-67c0,0,109,0,189,24V43C631,43,595,16,530,1c0,0,-64,-15,-131,-15Z" 
id="f2_1z"
transform="scale(0.001,-0.001)" />

<path d="M442,0V33l93,19V504c0,0,0,129,-124,129c0,0,-70,0,-168,-22V52L338,33V0H31V33l88,19v956L15,1026v34H243V756c0,0,0,-77,-5,-112c0,0,54,31,122,53c0,0,68,23,115,23c0,0,91,0,137,-53c0,0,47,-53,47,-154V52L744,33V0Z" 
id="f2_24"
transform="scale(0.001,-0.001)" />

<path d="M32,0V33L151,52V649L52,668v33H275V52L395,33V0ZM201,850c0,0,-32,0,-56,24c0,0,-24,24,-24,56c0,0,0,34,24,58c0,0,24,24,56,24c0,0,34,0,58,-24c0,0,24,-24,24,-58c0,0,0,-32,-24,-56c0,0,-24,-24,-58,-24Z" 
id="f2_25"
transform="scale(0.001,-0.001)" />

<path d="M360,-14L72,649L0,668v33H327V668L216,648L420,164L615,649L504,668v33H764V668L697,652L416,-14Z" 
id="f2_2i"
transform="scale(0.001,-0.001)" />

<path d="M359,-270c0,0,124,0,192,46c0,0,67,47,67,129c0,0,0,43,-26,67c0,0,-26,24,-79,24H242c0,0,-32,-27,-51,-69c0,0,-20,-41,-20,-77c0,0,0,-64,46,-92c0,0,46,-28,142,-28Zm11,561c0,0,81,0,115,47c0,0,34,47,34,141c0,0,0,100,-35,142c0,0,-35,42,-113,42c0,0,-78,0,-114,-43c0,0,-37,-42,-37,-141c0,0,0,-98,36,-143c0,0,36,-45,114,-45ZM359,-329c0,0,-143,0,-218,44c0,0,-75,43,-75,125c0,0,0,39,27,78c0,0,26,38,98,89c0,0,-43,14,-72,48c0,0,-29,35,-29,74L208,262c0,0,-118,55,-118,217c0,0,0,115,73,178c0,0,73,63,211,63c0,0,28,0,71,-6c0,0,44,-6,67,-13l165,83l26,-32L599,644c0,0,50,-56,50,-165c0,0,0,-120,-72,-182c0,0,-73,-62,-208,-62c0,0,-62,0,-114,11L208,148c0,0,2,-13,29,-24c0,0,27,-12,67,-12H512c0,0,113,0,168,-49c0,0,55,-49,55,-134c0,0,0,-79,-44,-137c0,0,-43,-58,-128,-90c0,0,-84,-31,-204,-31Z" 
id="f2_23"
transform="scale(0.001,-0.001)" />

<path d="M431,0V33L535,52V499c0,0,0,62,-32,96c0,0,-32,33,-95,33c0,0,-66,0,-163,-22V52L350,33V0H32V33l89,19V649L32,668v33H237l6,-57c0,0,56,32,119,54c0,0,62,22,110,22c0,0,52,0,95,-20c0,0,44,-19,66,-62c0,0,57,32,134,57c0,0,77,25,128,25c0,0,179,0,179,-207V52l90,-19V0H846V33L950,52V499c0,0,0,129,-119,129c0,0,-19,0,-45,-3c0,0,-26,-3,-52,-7c0,0,-25,-4,-49,-8c0,0,-23,-5,-39,-8c0,0,13,-41,13,-89V52L764,33V0Z" 
id="f2_29"
transform="scale(0.001,-0.001)" />

<path d="M439,0V33l93,19V500c0,0,0,62,-30,97c0,0,-31,36,-94,36c0,0,-67,0,-165,-22V52L338,33V0H35V33l84,19V649L35,668v33H235l7,-57c0,0,57,33,122,54c0,0,65,22,108,22c0,0,91,0,137,-53c0,0,47,-53,47,-154V52L741,33V0Z" 
id="f2_2a"
transform="scale(0.001,-0.001)" />

<path d="M64,0V34L168,59V639H47v36l121,29v49c0,0,0,155,61,239c0,0,62,84,173,84c0,0,58,0,107,-15V908H472l-33,92c0,0,-26,16,-62,16c0,0,-47,0,-66,-42c0,0,-19,-42,-19,-157V701H478V639H292V59L443,34V0Z" 
id="f2_22"
transform="scale(0.001,-0.001)" />

<path d="M278,-14c0,0,-52,0,-115,11c0,0,-63,10,-99,23V193H98L134,95c0,0,56,-50,146,-50c0,0,144,0,144,123c0,0,0,91,-114,130l-66,21c0,0,-75,25,-110,50c0,0,-34,26,-53,63c0,0,-18,36,-18,89c0,0,0,92,63,145c0,0,63,54,170,54c0,0,77,0,193,-23V544H454l-32,81c0,0,-39,35,-124,35c0,0,-61,0,-92,-30c0,0,-32,-30,-32,-80c0,0,0,-43,29,-72c0,0,28,-29,86,-48c0,0,110,-38,144,-55c0,0,33,-17,57,-42c0,0,23,-25,36,-57c0,0,13,-32,13,-79c0,0,0,-104,-66,-158c0,0,-66,-53,-195,-53Z" 
id="f2_2f"
transform="scale(0.001,-0.001)" />

<path d="M376,50c0,0,103,0,149,80c0,0,46,81,46,240c0,0,0,137,-47,204c0,0,-48,67,-148,67c0,0,-44,0,-87,-7c0,0,-44,-8,-63,-17V62c0,0,63,-12,150,-12Zm3,-64c0,0,-64,0,-141,14c0,0,-78,14,-136,37v971L0,1026v34H226V809c0,0,0,-40,-4,-148c0,0,74,59,188,59c0,0,143,0,219,-87c0,0,77,-87,77,-263c0,0,0,-189,-84,-287c0,0,-84,-97,-243,-97Z" 
id="f2_1y"
transform="scale(0.001,-0.001)" />

<path d="M64,-325c0,0,-46,0,-107,14v148H-8l19,-81c0,0,25,-21,62,-21c0,0,44,0,67,47c0,0,22,47,22,152V649L57,668v33H286V-28c0,0,0,-146,-57,-221c0,0,-56,-76,-165,-76ZM213,850c0,0,-34,0,-58,24c0,0,-24,24,-24,56c0,0,0,34,24,58c0,0,24,24,58,24c0,0,32,0,56,-24c0,0,24,-24,24,-58c0,0,0,-32,-24,-56c0,0,-24,-24,-56,-24Z" 
id="f2_26"
transform="scale(0.001,-0.001)" />

<path d="M460,-325c0,0,-148,79,-231,172c0,0,-84,93,-123,217c0,0,-39,126,-39,304c0,0,0,178,39,303c0,0,39,125,122,217c0,0,82,93,232,172V997c0,0,-91,-52,-145,-134c0,0,-54,-81,-79,-190c0,0,-25,-109,-25,-305c0,0,0,-194,26,-309c0,0,26,-114,82,-193c0,0,56,-79,141,-128v-63Z" 
id="f2_c"
transform="scale(0.001,-0.001)" />

<path d="M382,45c0,0,188,0,188,314c0,0,0,143,-47,213c0,0,-46,69,-141,69c0,0,-87,0,-146,-24V58c0,0,67,-13,146,-13ZM25,-325v35l88,18V649L34,668v33H231l1,-41c0,0,31,27,84,43c0,0,53,17,107,17c0,0,134,0,208,-94c0,0,73,-93,73,-267c0,0,0,-178,-80,-276c0,0,-80,-97,-232,-97c0,0,-84,0,-160,16c0,0,4,-53,4,-84V-272l123,-18v-35Z" 
id="f2_2c"
transform="scale(0.001,-0.001)" />

<path d="M49,-325v63c0,0,85,49,140,128c0,0,56,79,83,194c0,0,26,115,26,308c0,0,0,196,-25,305c0,0,-25,109,-79,190c0,0,-54,82,-145,134v63c0,0,149,-80,232,-172c0,0,83,-92,122,-217c0,0,39,-125,39,-303c0,0,0,-177,-39,-303c0,0,-39,-125,-122,-217c0,0,-83,-93,-232,-173Z" 
id="f2_d"
transform="scale(0.001,-0.001)" />

<path d="M383,64c0,0,85,0,152,28V645c0,0,-67,13,-152,13c0,0,-194,0,-194,-314c0,0,0,-141,48,-211c0,0,48,-69,146,-69ZM342,-14c0,0,-287,0,-287,358c0,0,0,184,82,280c0,0,81,96,239,96c0,0,81,0,163,-18c0,0,-4,25,-4,124v182l-118,18v34H659V52L745,33V0H548l-9,52c0,0,-84,-66,-197,-66Z" 
id="f2_20"
transform="scale(0.001,-0.001)" />

<path d="M289,-14c0,0,-179,0,-179,205V649L20,668v33H233V200c0,0,0,-128,120,-128c0,0,92,0,173,23V649L420,668v33H649V52L738,33V0H533l-6,57C527,57,474,28,405,7c0,0,-69,-21,-116,-21Z" 
id="f2_2h"
transform="scale(0.001,-0.001)" />

<path d="M191,-20c0,0,-39,0,-65,25c0,0,-25,27,-25,64c0,0,0,38,26,64c0,0,26,26,64,26c0,0,38,0,64,-26c0,0,26,-26,26,-64c0,0,0,-37,-25,-64c0,0,-26,-25,-65,-25Z" 
id="f2_i"
transform="scale(0.001,-0.001)" />

<path d="M235,0V40L394,60V936H356c0,0,-189,0,-258,-15L78,766H28v234H908V766H857L837,921c0,0,-22,5,-98,9c0,0,-75,4,-165,4H538V60L697,40V0Z" 
id="f2_1k"
transform="scale(0.001,-0.001)" />

<path d="M327,-14L84,649L1,668v33H335V668L219,648L385,174L554,632h63L786,171L944,649L830,668v33h267V668l-78,-16L784,-14H726L553,448L382,-14Z" 
id="f2_2j"
transform="scale(0.001,-0.001)" />

<path d="M134,0V40L339,60V876L137,804v39l292,166h39V60L672,40V0Z" 
id="f2_l"
transform="scale(0.001,-0.001)" />

<path d="M67,0V109L206,235c0,0,133,118,196,190c0,0,63,72,90,149c0,0,27,77,27,177c0,0,0,97,-44,148c0,0,-44,50,-144,50c0,0,-39,0,-81,-10c0,0,-42,-11,-74,-29L150,787H101V980c0,0,135,32,230,32c0,0,164,0,247,-68c0,0,82,-69,82,-193c0,0,0,-84,-32,-158c0,0,-33,-75,-100,-148c0,0,-67,-74,-222,-206c0,0,-67,-57,-141,-125H680V0Z" 
id="f2_m"
transform="scale(0.001,-0.001)" />

<path d="M54,0L169,649L81,668l6,33H294L274,558c0,0,62,81,130,121c0,0,67,41,132,41c0,0,75,0,113,-41c0,0,38,-41,38,-117c0,0,0,-10,-3,-32c0,0,-3,-21,-81,-478L700,34L695,0H470l76,434c0,0,17,94,17,123c0,0,0,34,-18,55c0,0,-18,21,-56,21c0,0,-56,0,-121,-47c0,0,-65,-47,-108,-117L178,0Z" 
id="f3_2a"
transform="scale(0.001,-0.001)" />

<path d="M460,506c0,0,135,0,209,64c0,0,73,65,73,183c0,0,0,180,-213,180H419L343,506ZM671,0L487,438H331L264,60L398,40L390,0H-7L0,40L120,60L276,941L151,960l7,40H555c0,0,163,0,249,-62c0,0,86,-62,86,-180c0,0,0,-236,-261,-299L798,60L908,40L900,0Z" 
id="f3_1i"
transform="scale(0.001,-0.001)" />

<path d="M457,460c0,0,289,0,289,266c0,0,0,106,-54,157c0,0,-54,50,-163,50H419L335,460ZM-7,0L0,40L120,60L276,941L151,960l7,40H559c0,0,161,0,248,-67c0,0,87,-66,87,-198c0,0,0,-167,-109,-255c0,0,-109,-88,-312,-88H323L264,60L427,40L420,0Z" 
id="f3_1g"
transform="scale(0.001,-0.001)" />

<path d="M301,78c0,0,41,0,90,27c0,0,49,28,95,77l81,442c0,0,-26,18,-54,27c0,0,-27,10,-67,10c0,0,-70,0,-131,-55c0,0,-61,-55,-99,-152c0,0,-37,-97,-37,-201c0,0,0,-79,33,-127c0,0,33,-48,89,-48ZM245,-14c0,0,-91,0,-145,68c0,0,-54,69,-54,183c0,0,0,128,55,240c0,0,55,112,150,177c0,0,96,66,210,66c0,0,70,0,123,-18c0,0,3,36,51,306l-115,18l6,34H768L589,52L673,33L667,0H454l22,117C476,117,350,-14,245,-14Z" 
id="f3_20"
transform="scale(0.001,-0.001)" />

<path d="M620,-14c0,0,-52,0,-93,43c0,0,-41,45,-77,203L384,522L132,0H0L340,703l-12,66c0,0,-23,107,-61,146c0,0,-37,38,-83,38c0,0,-42,0,-74,-30c0,0,-31,-31,-41,-100H43c0,0,2,117,57,187c0,0,40,51,96,51c0,0,50,0,86,-40c0,0,54,-60,88,-213L489,283c0,0,27,-118,62,-153c0,0,33,-36,79,-36c0,0,43,0,71,29c0,0,28,29,33,94h30c0,0,1,-19,1,-29c0,0,0,-98,-49,-158c0,0,-37,-44,-96,-44Z" 
id="f4_28"
transform="scale(0.001,-0.001)" />

<path d="M363,28c0,0,75,0,126,63c0,0,51,62,51,197c0,0,0,85,-24,149c0,0,-24,63,-86,139c0,0,-51,-17,-89,-17c0,0,-44,0,-63,14c0,0,-18,13,-18,29c0,0,0,14,14,25c0,0,14,11,46,11c0,0,36,0,110,-19c0,0,53,104,53,196c0,0,0,94,-47,146c0,0,-46,51,-115,51c0,0,-86,0,-134,-73c0,0,-31,-49,-31,-156V118c0,0,72,-51,126,-73c0,0,40,-17,81,-17ZM0,-328c0,0,20,92,24,126c0,0,10,104,10,152V712c0,0,0,133,26,198c0,0,27,64,96,108c0,0,69,43,165,43c0,0,133,0,213,-72c0,0,80,-71,80,-170c0,0,0,-63,-33,-120c0,0,-32,-57,-100,-99c0,0,200,-95,200,-297c0,0,0,-89,-42,-167C639,136,598,59,524,18c0,0,-73,-39,-150,-39c0,0,-50,0,-99,17c0,0,-49,16,-119,63V-66c0,0,0,-121,-30,-262Z" 
id="f4_1y"
transform="scale(0.001,-0.001)" />

<path d="M0,214v74H784V214ZM0,494v72H784V494Z" 
id="f4_x"
transform="scale(0.001,-0.001)" />

<path d="M420,-22L89,941L1,960v40H383V960L236,941L474,236L744,930h33L1037,236l227,705l-156,19v40h331V960l-87,-19L1025,-22H985L726,666L460,-22Z" 
id="f2_1n"
transform="scale(0.001,-0.001)" />

<path d="M395,28c0,0,101,0,148,74c0,0,47,73,47,178c0,0,0,81,-31,164c0,0,-32,84,-80,128c0,0,-45,-11,-80,-11c0,0,-75,0,-75,39c0,0,0,36,63,36c0,0,39,0,98,-18c0,0,53,90,53,195c0,0,0,94,-42,144c0,0,-41,50,-107,50c0,0,-53,0,-90,-30c0,0,-38,-29,-52,-71c0,0,-14,-41,-14,-135V125c0,0,58,-97,162,-97ZM82,-326c0,0,27,126,27,229V714c0,0,0,126,22,188c0,0,23,62,89,110c0,0,66,47,165,47c0,0,118,0,199,-62c0,0,80,-63,80,-178c0,0,0,-134,-128,-220c0,0,190,-89,190,-281c0,0,0,-104,-50,-186C676,132,626,49,560,14c0,0,-66,-34,-158,-34c0,0,-104,0,-169,78V-80c0,0,0,-143,-27,-246Z" 
id="f5_eu"
transform="scale(0.001,-0.001)" />


</defs>
</svg>