<?xml version="1.0" encoding="UTF-8" standalone="no"?>
<!DOCTYPE svg PUBLIC "-//W3C//DTD SVG 1.1//EN"
"http://www.w3.org/Graphics/SVG/1.1/DTD/svg11.dtd">
<svg viewBox="0 0 909 1286" version="1.1" xmlns="http://www.w3.org/2000/svg" xmlns:xlink="http://www.w3.org/1999/xlink">
<defs>
<clipPath id="c0_171"><path d="M55,197.7V126.2H256.4v71.5Z" /></clipPath>
<clipPath id="c1_171"><path d="M55,549.2v-49H339.6v49Z" /></clipPath>
<clipPath id="c2_171"><path d="M55,599V550H297.3v49Z" /></clipPath>
<clipPath id="c3_171"><path d="M55,648.7v-49h76v49Z" /></clipPath>
<clipPath id="c4_171"><path d="M55,1042.3V978.7H181.3v63.6Z" /></clipPath>
<clipPath id="c5_171"><path d="M55,1094.2v-50.4H330.4v50.4Z" /></clipPath>
<style type="text/css"><![CDATA[
.g0_171{
fill: #D9D9D9;
}
.g1_171{
fill: none;
stroke: #000000;
stroke-width: 0.7638889;
stroke-linecap: butt;
stroke-linejoin: miter;
}
.g2_171{
fill: none;
stroke: #000000;
stroke-width: 0.4157002;
stroke-linecap: butt;
stroke-linejoin: round;
}
.g3_171{
fill: none;
stroke: #000000;
stroke-width: 0.9069891;
stroke-linecap: butt;
stroke-linejoin: round;
}
.g4_171{
fill: none;
stroke: #000000;
stroke-width: 0.91175616;
stroke-linecap: butt;
stroke-linejoin: round;
}
.g5_171{
fill: none;
stroke: #000000;
stroke-width: 0.9129227;
stroke-linecap: butt;
stroke-linejoin: round;
}
.g6_171{
fill: none;
stroke: #000000;
stroke-width: 0.8919779;
stroke-linecap: butt;
stroke-linejoin: round;
}
.g7_171{
fill: none;
stroke: #000000;
stroke-width: 0.90016204;
stroke-linecap: butt;
stroke-linejoin: round;
}
.g8_171{
fill: none;
stroke: #000000;
stroke-width: 0.9113484;
stroke-linecap: butt;
stroke-linejoin: round;
}
.g9_171{
}
]]></style>
</defs>
<image preserveAspectRatio="none" x="748" y="1196" width="94" height="58" xlink:href="img/1.png" />
<image preserveAspectRatio="none" x="336" y="42" width="259" height="49" xlink:href="img/2.png" />
<image preserveAspectRatio="none" x="342" y="50" width="247" height="27" xlink:href="img/3.png" />
<image preserveAspectRatio="none" x="341" y="46" width="238" height="41" xlink:href="img/4.png" />
<g fill="#FFFFFF" >
<use xlink:href="#f0_j" transform="matrix(11.5,0,0,11.5,354.9,70)" />
<use xlink:href="#f0_i" transform="matrix(11.5,0,0,11.5,364.2,70)" />
<use xlink:href="#f0_2n" transform="matrix(11.5,0,0,11.5,374.1,70)" />
<use xlink:href="#f0_t" transform="matrix(11.5,0,0,11.5,382.4,70)" />
<use xlink:href="#f0_oj" transform="matrix(11.5,0,0,11.5,391,70)" />
<use xlink:href="#f0_3e" transform="matrix(11.5,0,0,11.5,396.3,70)" />
<use xlink:href="#f0_1c" transform="matrix(11.5,0,0,11.5,406,70)" />
<use xlink:href="#f0_1c" transform="matrix(11.5,0,0,11.5,410.7,70)" />
<use xlink:href="#f0_oj" transform="matrix(11.5,0,0,11.5,415.4,70)" />
<use xlink:href="#f0_rz" transform="matrix(11.5,0,0,11.5,420.8,70)" />
<use xlink:href="#f0_rx" transform="matrix(11.5,0,0,11.5,429.7,70)" />
<use xlink:href="#f0_ry" transform="matrix(11.5,0,0,11.5,438.6,70)" />
<use xlink:href="#f0_s0" transform="matrix(11.5,0,0,11.5,447.4,70)" />
<use xlink:href="#f0_t" transform="matrix(11.5,0,0,11.5,460.2,70)" />
<use xlink:href="#f0_3e" transform="matrix(11.5,0,0,11.5,468.8,70)" />
<use xlink:href="#f0_5" transform="matrix(11.5,0,0,11.5,478.5,70)" />
<use xlink:href="#f0_1x" transform="matrix(11.5,0,0,11.5,489.2,70)" />
<use xlink:href="#f0_1c" transform="matrix(11.5,0,0,11.5,504.6,70)" />
<use xlink:href="#f0_1y" transform="matrix(11.5,0,0,11.5,509.3,70)" />
<use xlink:href="#f0_5" transform="matrix(11.5,0,0,11.5,520.9,70)" />
<use xlink:href="#f0_2t" transform="matrix(11.5,0,0,11.5,531.5,70)" />
<use xlink:href="#f0_1c" transform="matrix(11.5,0,0,11.5,540.2,70)" />
<use xlink:href="#f0_24" transform="matrix(11.5,0,0,11.5,544.9,70)" />
<use xlink:href="#f0_1y" transform="matrix(11.5,0,0,11.5,556.8,70)" />
</g>
<image preserveAspectRatio="none" x="554" y="46" width="36" height="41" xlink:href="img/5.png" />
<g fill="#FFFFFF" >
<use xlink:href="#f1_q" transform="matrix(11,0,0,11,770.1,1227.7)" />
<use xlink:href="#f1_j" transform="matrix(11,0,0,11,783.5,1227.7)" />
<use xlink:href="#f1_l" transform="matrix(11,0,0,11,794.1,1227.7)" />
<use xlink:href="#f1_r" transform="matrix(11,0,0,11,803,1227.7)" />
</g>
<path fill-rule="evenodd" d="M52.7,1193.2H856.9v-.7H52.7v.7Z" class="g0_171" />
<path d="M37.9,99.4L873,98.5" class="g1_171" />
<path d="M85.6,174.5h38.6m17.3,0h27.3" class="g2_171" />
<path d="M84.2,151.4h86m19.3,0h61.3" class="g3_171" />
<g clip-path="url(#c0_171)">
<g fill="#000000" >
<use xlink:href="#f2_k" transform="matrix(7,0,0,7,119.9,148.9)" />
<use xlink:href="#f2_k" transform="matrix(7,0,0,7,212.2,148.9)" />
<use xlink:href="#f2_11" transform="matrix(12,0,0,12.1,131.1,144.1)" />
<use xlink:href="#f2_n" transform="matrix(12,0,0,12.1,190.1,144.1)" />
<use xlink:href="#f2_11" transform="matrix(12,0,0,12.1,223.4,144.1)" />
<use xlink:href="#f2_1b" transform="matrix(12,0,0,12.1,236.2,144.1)" />
<use xlink:href="#f2_1z" transform="matrix(12,0,0,12.1,57.5,156)" />
<use xlink:href="#f2_m" transform="matrix(12,0,0,12.1,86.8,167.8)" />
<use xlink:href="#f2_20" transform="matrix(12,0,0,12.1,97.8,167.8)" />
<use xlink:href="#f2_j" transform="matrix(12,0,0,12.1,106.9,167.8)" />
<use xlink:href="#f2_n" transform="matrix(12,0,0,12.1,115.1,167.8)" />
<use xlink:href="#f2_20" transform="matrix(12,0,0,12.1,142.3,167.8)" />
<use xlink:href="#f2_j" transform="matrix(12,0,0,12.1,151.4,167.8)" />
<use xlink:href="#f2_n" transform="matrix(12,0,0,12.1,159.6,167.8)" />
<use xlink:href="#f2_20" transform="matrix(12,0,0,12.1,190.5,170.4)" />
<use xlink:href="#f2_c" transform="matrix(12,0,0,12.1,199.6,170.4)" />
<use xlink:href="#f2_m" transform="matrix(12,0,0,12.1,205.5,170.4)" />
<use xlink:href="#f2_f" transform="matrix(12,0,0,12.1,217.5,170.4)" />
<use xlink:href="#f2_1b" transform="matrix(12,0,0,12.1,230.8,170.4)" />
<use xlink:href="#f2_d" transform="matrix(12,0,0,12.1,243.8,170.4)" />
<use xlink:href="#f2_1b" transform="matrix(12,0,0,12.1,98.2,193.3)" />
<use xlink:href="#f2_l" transform="matrix(12,0,0,12.1,150.6,193.3)" />
<use xlink:href="#f3_40" transform="matrix(12,0,0,12.1,108.2,144.1)" />
<use xlink:href="#f3_40" transform="matrix(12,0,0,12.1,200.6,144.1)" />
<use xlink:href="#f3_x" transform="matrix(12,0,0,12.1,69.7,156)" />
<use xlink:href="#f3_x" transform="matrix(12,0,0,12.1,175,156)" />
<use xlink:href="#f3_f" transform="matrix(12,0,0,12.1,127.9,179.2)" />
</g>
</g>
<g fill="#000000" >
<use xlink:href="#f2_l" transform="matrix(12,0,0,12,55,239.4)" />
<use xlink:href="#f2_q" transform="matrix(12,0,0,12,64.2,239.4)" />
<use xlink:href="#f2_i" transform="matrix(12,0,0,12,73.3,239.4)" />
<use xlink:href="#f2_11" transform="matrix(12,0,0,12,82.5,239.4)" />
<use xlink:href="#f2_1z" transform="matrix(12,0,0,12,100.3,239.4)" />
<use xlink:href="#f2_1x" transform="matrix(12,0,0,12,108.5,239.4)" />
<use xlink:href="#f2_2c" transform="matrix(12,0,0,12,116.6,239.4)" />
<use xlink:href="#f2_1x" transform="matrix(12,0,0,12,125.8,239.4)" />
<use xlink:href="#f2_1z" transform="matrix(12,0,0,12,133.9,239.4)" />
<use xlink:href="#f2_25" transform="matrix(12,0,0,12,142,239.4)" />
<use xlink:href="#f2_2g" transform="matrix(12,0,0,12,147.1,239.4)" />
<use xlink:href="#f2_2b" transform="matrix(12,0,0,12,152.2,239.4)" />
<use xlink:href="#f2_2e" transform="matrix(12,0,0,12,161.4,239.4)" />
<use xlink:href="#f2_g" transform="matrix(12,0,0,12,167.5,239.4)" />
<use xlink:href="#f2_29" transform="matrix(12,0,0,12,176.7,239.4)" />
<use xlink:href="#f2_1x" transform="matrix(12,0,0,12,190.8,239.4)" />
<use xlink:href="#f2_20" transform="matrix(12,0,0,12,199,239.4)" />
<use xlink:href="#f2_21" transform="matrix(12,0,0,12,208.1,239.4)" />
<use xlink:href="#f2_2b" transform="matrix(12,0,0,12,220.9,239.4)" />
<use xlink:href="#f2_22" transform="matrix(12,0,0,12,230,239.4)" />
<use xlink:href="#f2_2g" transform="matrix(12,0,0,12,240.8,239.4)" />
<use xlink:href="#f2_2j" transform="matrix(12,0,0,12,245.9,239.4)" />
<use xlink:href="#f2_2b" transform="matrix(12,0,0,12,259.1,239.4)" />
<use xlink:href="#f2_2c" transform="matrix(12,0,0,12,272.9,239.4)" />
<use xlink:href="#f2_1x" transform="matrix(12,0,0,12,282,239.4)" />
<use xlink:href="#f2_2e" transform="matrix(12,0,0,12,290.2,239.4)" />
<use xlink:href="#f2_1x" transform="matrix(12,0,0,12,296.3,239.4)" />
<use xlink:href="#f2_28" transform="matrix(12,0,0,12,304.4,239.4)" />
<use xlink:href="#f2_28" transform="matrix(12,0,0,12,309.5,239.4)" />
<use xlink:href="#f2_21" transform="matrix(12,0,0,12,314.6,239.4)" />
<use xlink:href="#f2_28" transform="matrix(12,0,0,12,322.8,239.4)" />
<use xlink:href="#f2_2c" transform="matrix(12,0,0,12,332.5,239.4)" />
<use xlink:href="#f2_28" transform="matrix(12,0,0,12,341.6,239.4)" />
<use xlink:href="#f2_1x" transform="matrix(12,0,0,12,346.7,239.4)" />
<use xlink:href="#f2_2g" transform="matrix(12,0,0,12,354.9,239.4)" />
<use xlink:href="#f2_21" transform="matrix(12,0,0,12,360,239.4)" />
<use xlink:href="#f2_2f" transform="matrix(12,0,0,12,368.1,239.4)" />
<use xlink:href="#f2_21" transform="matrix(12,0,0,12,379.8,239.4)" />
<use xlink:href="#f2_1x" transform="matrix(12,0,0,12,388,239.4)" />
<use xlink:href="#f2_1z" transform="matrix(12,0,0,12,396.1,239.4)" />
<use xlink:href="#f2_24" transform="matrix(12,0,0,12,404.2,239.4)" />
<use xlink:href="#f2_2b" transform="matrix(12,0,0,12,418,239.4)" />
<use xlink:href="#f2_22" transform="matrix(12,0,0,12,427.1,239.4)" />
<use xlink:href="#f2_2g" transform="matrix(12,0,0,12,437.7,239.4)" />
<use xlink:href="#f2_24" transform="matrix(12,0,0,12,442.8,239.4)" />
<use xlink:href="#f2_21" transform="matrix(12,0,0,12,452,239.4)" />
<use xlink:href="#f2_1x" transform="matrix(12,0,0,12,464.7,239.4)" />
<use xlink:href="#f2_2e" transform="matrix(12,0,0,12,472.9,239.4)" />
<use xlink:href="#f2_21" transform="matrix(12,0,0,12,479,239.4)" />
<use xlink:href="#f2_1x" transform="matrix(12,0,0,12,487.2,239.4)" />
<use xlink:href="#f2_11" transform="matrix(12,0,0,12,499.9,239.4)" />
<use xlink:href="#f2_1x" transform="matrix(12,0,0,12,517.7,239.4)" />
<use xlink:href="#f2_2a" transform="matrix(12,0,0,12,525.8,239.4)" />
<use xlink:href="#f2_20" transform="matrix(12,0,0,12,535,239.4)" />
<use xlink:href="#f2_2f" transform="matrix(12,0,0,12,548.7,239.4)" />
<use xlink:href="#f2_21" transform="matrix(12,0,0,12,555.9,239.4)" />
<use xlink:href="#f2_2c" transform="matrix(12,0,0,12,564,239.4)" />
<use xlink:href="#f2_1x" transform="matrix(12,0,0,12,573.2,239.4)" />
<use xlink:href="#f2_2e" transform="matrix(12,0,0,12,581.3,239.4)" />
<use xlink:href="#f2_1x" transform="matrix(12,0,0,12,587.4,239.4)" />
<use xlink:href="#f2_2g" transform="matrix(12,0,0,12,595.6,239.4)" />
<use xlink:href="#f2_25" transform="matrix(12,0,0,12,600.7,239.4)" />
<use xlink:href="#f2_2b" transform="matrix(12,0,0,12,605.8,239.4)" />
<use xlink:href="#f2_2a" transform="matrix(12,0,0,12,615,239.4)" />
<use xlink:href="#f2_20" transform="matrix(12,0,0,12,628.7,239.4)" />
<use xlink:href="#f2_g" transform="matrix(12,0,0,12,637.9,239.4)" />
<use xlink:href="#f2_25" transform="matrix(12,0,0,12,647,239.4)" />
<use xlink:href="#f2_2f" transform="matrix(12,0,0,12,652.1,239.4)" />
<use xlink:href="#f2_1y" transform="matrix(12,0,0,12,663.8,239.4)" />
<use xlink:href="#f2_21" transform="matrix(12,0,0,12,672.9,239.4)" />
<use xlink:href="#f2_25" transform="matrix(12,0,0,12,681.1,239.4)" />
<use xlink:href="#f2_2a" transform="matrix(12,0,0,12,686.2,239.4)" />
<use xlink:href="#f2_23" transform="matrix(12,0,0,12,695.3,239.4)" />
<use xlink:href="#f2_1z" transform="matrix(12,0,0,12,709.1,239.4)" />
<use xlink:href="#f2_24" transform="matrix(12,0,0,12,717.2,239.4)" />
<use xlink:href="#f2_1x" transform="matrix(12,0,0,12,726.4,239.4)" />
<use xlink:href="#f2_2e" transform="matrix(12,0,0,12,734.5,239.4)" />
<use xlink:href="#f2_23" transform="matrix(12,0,0,12,740.7,239.4)" />
<use xlink:href="#f2_21" transform="matrix(12,0,0,12,749.8,239.4)" />
<use xlink:href="#f2_20" transform="matrix(12,0,0,12,757.9,239.4)" />
<use xlink:href="#f2_1y" transform="matrix(12,0,0,12,771.6,239.4)" />
<use xlink:href="#f2_2l" transform="matrix(12,0,0,12,780.8,239.4)" />
<use xlink:href="#f2_1x" transform="matrix(12,0,0,12,794.5,239.4)" />
<use xlink:href="#f2_2a" transform="matrix(12,0,0,12,802.7,239.4)" />
<use xlink:href="#f2_21" transform="matrix(12,0,0,12,55,262.1)" />
<use xlink:href="#f2_2k" transform="matrix(12,0,0,12,63.1,262.1)" />
<use xlink:href="#f2_2g" transform="matrix(12,0,0,12,72.3,262.1)" />
<use xlink:href="#f2_21" transform="matrix(12,0,0,12,77.4,262.1)" />
<use xlink:href="#f2_2e" transform="matrix(12,0,0,12,85.6,262.1)" />
<use xlink:href="#f2_2a" transform="matrix(12,0,0,12,91.7,262.1)" />
<use xlink:href="#f2_1x" transform="matrix(12,0,0,12,100.9,262.1)" />
<use xlink:href="#f2_28" transform="matrix(12,0,0,12,109,262.1)" />
<use xlink:href="#f2_1x" transform="matrix(12,0,0,12,118.7,262.1)" />
<use xlink:href="#f2_1z" transform="matrix(12,0,0,12,126.8,262.1)" />
<use xlink:href="#f2_2f" transform="matrix(12,0,0,12,139.5,262.1)" />
<use xlink:href="#f2_2b" transform="matrix(12,0,0,12,146.6,262.1)" />
<use xlink:href="#f2_2h" transform="matrix(12,0,0,12,155.7,262.1)" />
<use xlink:href="#f2_2e" transform="matrix(12,0,0,12,164.9,262.1)" />
<use xlink:href="#f2_1z" transform="matrix(12,0,0,12,171,262.1)" />
<use xlink:href="#f2_21" transform="matrix(12,0,0,12,179.2,262.1)" />
<use xlink:href="#f2_i" transform="matrix(12,0,0,12,187.3,262.1)" />
<use xlink:href="#f2_1j" transform="matrix(12,0,0,12,196.5,262.1)" />
<use xlink:href="#f2_24" transform="matrix(12,0,0,12,206.7,262.1)" />
<use xlink:href="#f2_2b" transform="matrix(12,0,0,12,215.9,262.1)" />
<use xlink:href="#f2_2j" transform="matrix(12,0,0,12,225,262.1)" />
<use xlink:href="#f2_2g" transform="matrix(12,0,0,12,242.8,262.1)" />
<use xlink:href="#f2_24" transform="matrix(12,0,0,12,247.9,262.1)" />
<use xlink:href="#f2_1x" transform="matrix(12,0,0,12,257.1,262.1)" />
<use xlink:href="#f2_2g" transform="matrix(12,0,0,12,265.2,262.1)" />
<use xlink:href="#f2_2g" transform="matrix(12,0,0,12,274.9,262.1)" />
<use xlink:href="#f2_24" transform="matrix(12,0,0,12,280,262.1)" />
<use xlink:href="#f2_21" transform="matrix(12,0,0,12,289.1,262.1)" />
<use xlink:href="#f2_20" transform="matrix(12,0,0,12,301.9,262.1)" />
<use xlink:href="#f2_25" transform="matrix(12,0,0,12,311,262.1)" />
<use xlink:href="#f2_2f" transform="matrix(12,0,0,12,316.2,262.1)" />
<use xlink:href="#f2_2c" transform="matrix(12,0,0,12,323.3,262.1)" />
<use xlink:href="#f2_28" transform="matrix(12,0,0,12,332.4,262.1)" />
<use xlink:href="#f2_1x" transform="matrix(12,0,0,12,337.5,262.1)" />
<use xlink:href="#f2_1z" transform="matrix(12,0,0,12,345.7,262.1)" />
<use xlink:href="#f2_21" transform="matrix(12,0,0,12,353.9,262.1)" />
<use xlink:href="#f2_29" transform="matrix(12,0,0,12,362,262.1)" />
<use xlink:href="#f2_21" transform="matrix(12,0,0,12,376.1,262.1)" />
<use xlink:href="#f2_2a" transform="matrix(12,0,0,12,384.3,262.1)" />
<use xlink:href="#f2_2g" transform="matrix(12,0,0,12,393.4,262.1)" />
<use xlink:href="#f2_1z" transform="matrix(12,0,0,12,403.1,262.1)" />
<use xlink:href="#f2_2h" transform="matrix(12,0,0,12,411.3,262.1)" />
<use xlink:href="#f2_2e" transform="matrix(12,0,0,12,420.5,262.1)" />
<use xlink:href="#f2_2e" transform="matrix(12,0,0,12,426.6,262.1)" />
<use xlink:href="#f2_21" transform="matrix(12,0,0,12,432.7,262.1)" />
<use xlink:href="#f2_2a" transform="matrix(12,0,0,12,440.9,262.1)" />
<use xlink:href="#f2_2g" transform="matrix(12,0,0,12,450,262.1)" />
<use xlink:href="#f2_25" transform="matrix(12,0,0,12,459.7,262.1)" />
<use xlink:href="#f2_2a" transform="matrix(12,0,0,12,464.8,262.1)" />
<use xlink:href="#f2_2f" transform="matrix(12,0,0,12,474,262.1)" />
<use xlink:href="#f2_25" transform="matrix(12,0,0,12,481,262.1)" />
<use xlink:href="#f2_20" transform="matrix(12,0,0,12,486.1,262.1)" />
<use xlink:href="#f2_21" transform="matrix(12,0,0,12,495.3,262.1)" />
<use xlink:href="#f2_2g" transform="matrix(12,0,0,12,508,262.1)" />
<use xlink:href="#f2_24" transform="matrix(12,0,0,12,513.1,262.1)" />
<use xlink:href="#f2_21" transform="matrix(12,0,0,12,522.3,262.1)" />
<use xlink:href="#f2_1z" transform="matrix(12,0,0,12,535,262.1)" />
<use xlink:href="#f2_1x" transform="matrix(12,0,0,12,543.2,262.1)" />
<use xlink:href="#f2_2c" transform="matrix(12,0,0,12,551.3,262.1)" />
<use xlink:href="#f2_1x" transform="matrix(12,0,0,12,560.5,262.1)" />
<use xlink:href="#f2_1z" transform="matrix(12,0,0,12,568.6,262.1)" />
<use xlink:href="#f2_25" transform="matrix(12,0,0,12,576.7,262.1)" />
<use xlink:href="#f2_2g" transform="matrix(12,0,0,12,581.8,262.1)" />
<use xlink:href="#f2_2b" transform="matrix(12,0,0,12,587,262.1)" />
<use xlink:href="#f2_2e" transform="matrix(12,0,0,12,596.1,262.1)" />
<use xlink:href="#f2_25" transform="matrix(12,0,0,12,606.7,262.1)" />
<use xlink:href="#f2_2f" transform="matrix(12,0,0,12,611.9,262.1)" />
<use xlink:href="#f2_2g" transform="matrix(12,0,0,12,623.6,262.1)" />
<use xlink:href="#f2_24" transform="matrix(12,0,0,12,628.7,262.1)" />
<use xlink:href="#f2_21" transform="matrix(12,0,0,12,637.9,262.1)" />
<use xlink:href="#f2_2f" transform="matrix(12,0,0,12,650.6,262.1)" />
<use xlink:href="#f2_1x" transform="matrix(12,0,0,12,657.7,262.1)" />
<use xlink:href="#f2_29" transform="matrix(12,0,0,12,665.9,262.1)" />
<use xlink:href="#f2_21" transform="matrix(12,0,0,12,680,262.1)" />
<use xlink:href="#f2_1x" transform="matrix(12,0,0,12,692.7,262.1)" />
<use xlink:href="#f2_2f" transform="matrix(12,0,0,12,700.9,262.1)" />
<use xlink:href="#f2_2g" transform="matrix(12,0,0,12,712.6,262.1)" />
<use xlink:href="#f2_24" transform="matrix(12,0,0,12,717.8,262.1)" />
<use xlink:href="#f2_21" transform="matrix(12,0,0,12,726.9,262.1)" />
<use xlink:href="#f2_1z" transform="matrix(12,0,0,12,739.6,262.1)" />
<use xlink:href="#f2_2h" transform="matrix(12,0,0,12,747.8,262.1)" />
<use xlink:href="#f2_2e" transform="matrix(12,0,0,12,756.9,262.1)" />
<use xlink:href="#f2_2e" transform="matrix(12,0,0,12,763.3,262.1)" />
<use xlink:href="#f2_21" transform="matrix(12,0,0,12,769.4,262.1)" />
<use xlink:href="#f2_2a" transform="matrix(12,0,0,12,777.6,262.1)" />
<use xlink:href="#f2_2g" transform="matrix(12,0,0,12,786.7,262.1)" />
<use xlink:href="#f2_1z" transform="matrix(12,0,0,12,55,284.8)" />
<use xlink:href="#f2_24" transform="matrix(12,0,0,12,63.1,284.8)" />
<use xlink:href="#f2_1x" transform="matrix(12,0,0,12,72.3,284.8)" />
<use xlink:href="#f2_2e" transform="matrix(12,0,0,12,80.4,284.8)" />
<use xlink:href="#f2_23" transform="matrix(12,0,0,12,86.6,284.8)" />
<use xlink:href="#f2_25" transform="matrix(12,0,0,12,95.8,284.8)" />
<use xlink:href="#f2_2a" transform="matrix(12,0,0,12,100.9,284.8)" />
<use xlink:href="#f2_23" transform="matrix(12,0,0,12,110,284.8)" />
<use xlink:href="#f2_2g" transform="matrix(12,0,0,12,123.7,284.8)" />
<use xlink:href="#f2_24" transform="matrix(12,0,0,12,128.8,284.8)" />
<use xlink:href="#f2_21" transform="matrix(12,0,0,12,138,284.8)" />
<use xlink:href="#f2_1z" transform="matrix(12,0,0,12,150.7,284.8)" />
<use xlink:href="#f2_1x" transform="matrix(12,0,0,12,158.9,284.8)" />
<use xlink:href="#f2_2c" transform="matrix(12,0,0,12,167,284.8)" />
<use xlink:href="#f2_1x" transform="matrix(12,0,0,12,176.2,284.8)" />
<use xlink:href="#f2_1z" transform="matrix(12,0,0,12,184.3,284.8)" />
<use xlink:href="#f2_25" transform="matrix(12,0,0,12,192.5,284.8)" />
<use xlink:href="#f2_2g" transform="matrix(12,0,0,12,197.6,284.8)" />
<use xlink:href="#f2_2b" transform="matrix(12,0,0,12,202.7,284.8)" />
<use xlink:href="#f2_2e" transform="matrix(12,0,0,12,211.9,284.8)" />
<use xlink:href="#f2_i" transform="matrix(12,0,0,12,218,284.8)" />
<use xlink:href="#f4_1j" transform="matrix(12,0,0,12,55,307.7)" />
<use xlink:href="#f4_2b" transform="matrix(12,0,0,12,65.2,307.7)" />
<use xlink:href="#f4_28" transform="matrix(12,0,0,12,74.4,307.7)" />
<use xlink:href="#f4_2h" transform="matrix(12,0,0,12,79.5,307.7)" />
<use xlink:href="#f4_2g" transform="matrix(12,0,0,12,89.7,307.7)" />
<use xlink:href="#f4_25" transform="matrix(12,0,0,12,95.8,307.7)" />
<use xlink:href="#f4_2b" transform="matrix(12,0,0,12,100.9,307.7)" />
<use xlink:href="#f4_2a" transform="matrix(12,0,0,12,110.1,307.7)" />
<use xlink:href="#f4_u" transform="matrix(12,0,0,12,120.3,307.7)" />
<use xlink:href="#f2_14" transform="matrix(12,0,0,12,55,495.4)" />
<use xlink:href="#f2_25" transform="matrix(12,0,0,12,68.2,495.4)" />
<use xlink:href="#f2_2f" transform="matrix(12,0,0,12,73.3,495.4)" />
<use xlink:href="#f2_2c" transform="matrix(12,0,0,12,80.5,495.4)" />
<use xlink:href="#f2_28" transform="matrix(12,0,0,12,89.6,495.4)" />
<use xlink:href="#f2_1x" transform="matrix(12,0,0,12,94.8,495.4)" />
<use xlink:href="#f2_1z" transform="matrix(12,0,0,12,102.9,495.4)" />
<use xlink:href="#f2_21" transform="matrix(12,0,0,12,111,495.4)" />
<use xlink:href="#f2_29" transform="matrix(12,0,0,12,119.2,495.4)" />
<use xlink:href="#f2_21" transform="matrix(12,0,0,12,133.4,495.4)" />
<use xlink:href="#f2_2a" transform="matrix(12,0,0,12,141.5,495.4)" />
<use xlink:href="#f2_2g" transform="matrix(12,0,0,12,150.7,495.4)" />
<use xlink:href="#f2_1z" transform="matrix(12,0,0,12,160.3,495.4)" />
<use xlink:href="#f2_2h" transform="matrix(12,0,0,12,168.5,495.4)" />
<use xlink:href="#f2_2e" transform="matrix(12,0,0,12,177.7,495.4)" />
<use xlink:href="#f2_2e" transform="matrix(12,0,0,12,183.8,495.4)" />
<use xlink:href="#f2_21" transform="matrix(12,0,0,12,189.9,495.4)" />
<use xlink:href="#f2_2a" transform="matrix(12,0,0,12,198.1,495.4)" />
<use xlink:href="#f2_2g" transform="matrix(12,0,0,12,207.2,495.4)" />
<use xlink:href="#f2_1y" transform="matrix(12,0,0,12,216.9,495.4)" />
<use xlink:href="#f2_21" transform="matrix(12,0,0,12,226.1,495.4)" />
<use xlink:href="#f2_2g" transform="matrix(12,0,0,12,234.2,495.4)" />
<use xlink:href="#f2_2j" transform="matrix(12,0,0,12,239.3,495.4)" />
<use xlink:href="#f2_21" transform="matrix(12,0,0,12,252.5,495.4)" />
<use xlink:href="#f2_21" transform="matrix(12,0,0,12,260.7,495.4)" />
<use xlink:href="#f2_2a" transform="matrix(12,0,0,12,268.8,495.4)" />
<use xlink:href="#f2_2c" transform="matrix(12,0,0,12,282.6,495.4)" />
<use xlink:href="#f2_28" transform="matrix(12,0,0,12,291.7,495.4)" />
<use xlink:href="#f2_1x" transform="matrix(12,0,0,12,296.8,495.4)" />
<use xlink:href="#f2_2g" transform="matrix(12,0,0,12,305,495.4)" />
<use xlink:href="#f2_21" transform="matrix(12,0,0,12,310.1,495.4)" />
<use xlink:href="#f2_2f" transform="matrix(12,0,0,12,318.2,495.4)" />
<use xlink:href="#f2_2b" transform="matrix(12,0,0,12,329.9,495.4)" />
<use xlink:href="#f2_22" transform="matrix(12,0,0,12,339.1,495.4)" />
<use xlink:href="#f2_1z" transform="matrix(12,0,0,12,349.7,495.4)" />
<use xlink:href="#f2_1x" transform="matrix(12,0,0,12,357.8,495.4)" />
<use xlink:href="#f2_2c" transform="matrix(12,0,0,12,366,495.4)" />
<use xlink:href="#f2_1x" transform="matrix(12,0,0,12,375.1,495.4)" />
<use xlink:href="#f2_1z" transform="matrix(12,0,0,12,383.3,495.4)" />
<use xlink:href="#f2_25" transform="matrix(12,0,0,12,391.5,495.4)" />
<use xlink:href="#f2_2g" transform="matrix(12,0,0,12,396.6,495.4)" />
<use xlink:href="#f2_2b" transform="matrix(12,0,0,12,401.7,495.4)" />
<use xlink:href="#f2_2e" transform="matrix(12,0,0,12,410.8,495.4)" />
<use xlink:href="#f2_25" transform="matrix(12,0,0,12,421.5,495.4)" />
<use xlink:href="#f2_2f" transform="matrix(12,0,0,12,426.6,495.4)" />
</g>
<path d="M106.6,525.6h29.3m38.3,0h48.9m52.9,0h59.3" class="g4_171" />
<g clip-path="url(#c1_171)">
<g fill="#000000" >
<use xlink:href="#f2_15" transform="matrix(6.9,0,0,7,126.5,523.3)" />
<use xlink:href="#f2_20" transform="matrix(6.9,0,0,7,62.9,534.9)" />
<use xlink:href="#f2_k" transform="matrix(6.9,0,0,7,95,534.9)" />
<use xlink:href="#f2_k" transform="matrix(6.9,0,0,7,162.5,534.9)" />
<use xlink:href="#f2_k" transform="matrix(6.9,0,0,7,248.3,534.9)" />
<use xlink:href="#f2_20" transform="matrix(11.9,0,0,12,107.5,518.6)" />
<use xlink:href="#f2_20" transform="matrix(11.9,0,0,12,175.1,518.6)" />
<use xlink:href="#f2_c" transform="matrix(11.9,0,0,12,184.8,518.6)" />
<use xlink:href="#f2_15" transform="matrix(11.9,0,0,12,191.3,518.6)" />
<use xlink:href="#f2_11" transform="matrix(11.9,0,0,12,202.4,518.6)" />
<use xlink:href="#f2_d" transform="matrix(11.9,0,0,12,216.2,518.6)" />
<use xlink:href="#f2_20" transform="matrix(11.9,0,0,12,276.8,518.6)" />
<use xlink:href="#f2_c" transform="matrix(11.9,0,0,12,286.5,518.6)" />
<use xlink:href="#f2_1m" transform="matrix(11.9,0,0,12,293,518.6)" />
<use xlink:href="#f2_j" transform="matrix(11.9,0,0,12,309.9,518.6)" />
<use xlink:href="#f2_20" transform="matrix(11.9,0,0,12,318.5,518.6)" />
<use xlink:href="#f2_d" transform="matrix(11.9,0,0,12,328.2,518.6)" />
<use xlink:href="#f2_25" transform="matrix(11.9,0,0,12,57.2,530.2)" />
<use xlink:href="#f2_11" transform="matrix(11.9,0,0,12,259.7,530.2)" />
<use xlink:href="#f2_20" transform="matrix(11.9,0,0,12,113.8,544.5)" />
<use xlink:href="#f2_2g" transform="matrix(11.9,0,0,12,122.9,544.5)" />
<use xlink:href="#f2_20" transform="matrix(11.9,0,0,12,189.6,544.5)" />
<use xlink:href="#f2_2g" transform="matrix(11.9,0,0,12,201.9,544.5)" />
<use xlink:href="#f2_20" transform="matrix(11.9,0,0,12,298.1,544.5)" />
<use xlink:href="#f2_2g" transform="matrix(11.9,0,0,12,307.2,544.5)" />
<use xlink:href="#f3_22" transform="matrix(11.9,0,0,12,116.6,518.6)" />
<use xlink:href="#f3_x" transform="matrix(11.9,0,0,12,74.6,530.2)" />
<use xlink:href="#f3_40" transform="matrix(11.9,0,0,12,83.2,530.2)" />
<use xlink:href="#f3_x" transform="matrix(11.9,0,0,12,140.8,530.2)" />
<use xlink:href="#f3_40" transform="matrix(11.9,0,0,12,150.8,530.2)" />
<use xlink:href="#f3_x" transform="matrix(11.9,0,0,12,228,530.2)" />
<use xlink:href="#f3_40" transform="matrix(11.9,0,0,12,236.6,530.2)" />
</g>
</g>
<path d="M72.5,575.4h36.6m3.4,0h24.4m33.9,0h24.3m19.5,0h50" class="g5_171" />
<g clip-path="url(#c2_171)">
<g fill="#000000" >
<use xlink:href="#f2_k" transform="matrix(6.9,0,0,7,83.3,573)" />
<use xlink:href="#f2_11" transform="matrix(12,0,0,12,94.7,568.2)" />
<use xlink:href="#f2_20" transform="matrix(12,0,0,12,113.4,568.4)" />
<use xlink:href="#f2_1m" transform="matrix(12,0,0,12,122.5,568.4)" />
<use xlink:href="#f2_20" transform="matrix(12,0,0,12,171.6,568.4)" />
<use xlink:href="#f2_1m" transform="matrix(12,0,0,12,180.8,568.4)" />
<use xlink:href="#f2_20" transform="matrix(12,0,0,12,215.5,568.4)" />
<use xlink:href="#f2_c" transform="matrix(12,0,0,12,225.2,568.4)" />
<use xlink:href="#f2_13" transform="matrix(12,0,0,12,231.5,568.4)" />
<use xlink:href="#f2_1m" transform="matrix(12,0,0,12,243.8,568.4)" />
<use xlink:href="#f2_d" transform="matrix(12,0,0,12,257.6,568.4)" />
<use xlink:href="#f2_13" transform="matrix(12,0,0,12,155.8,580)" />
<use xlink:href="#f2_2d" transform="matrix(12,0,0,12,283.5,580)" />
<use xlink:href="#f2_20" transform="matrix(12,0,0,12,86,594.3)" />
<use xlink:href="#f2_20" transform="matrix(12,0,0,12,117.3,594.3)" />
<use xlink:href="#f2_2g" transform="matrix(12,0,0,12,126.4,594.3)" />
<use xlink:href="#f2_20" transform="matrix(12,0,0,12,175.5,594.3)" />
<use xlink:href="#f2_2g" transform="matrix(12,0,0,12,184.6,594.3)" />
<use xlink:href="#f2_20" transform="matrix(12,0,0,12,230.5,594.3)" />
<use xlink:href="#f2_2g" transform="matrix(12,0,0,12,242.8,594.3)" />
<use xlink:href="#f3_40" transform="matrix(12,0,0,12,71.6,568.2)" />
<use xlink:href="#f3_x" transform="matrix(12,0,0,12,57.8,580)" />
<use xlink:href="#f3_x" transform="matrix(12,0,0,12,141.8,580)" />
<use xlink:href="#f3_x" transform="matrix(12,0,0,12,200,580)" />
<use xlink:href="#f3_x" transform="matrix(12,0,0,12,269.4,580)" />
</g>
</g>
<path d="M106.3,625.1h20.4" class="g6_171" />
<g clip-path="url(#c3_171)">
<g fill="#000000" >
<use xlink:href="#f2_20" transform="matrix(6.8,0,0,7,80,634.4)" />
<use xlink:href="#f2_20" transform="matrix(11.7,0,0,12,107.2,618.1)" />
<use xlink:href="#f2_2d" transform="matrix(11.7,0,0,12,116.4,618.1)" />
<use xlink:href="#f2_25" transform="matrix(11.7,0,0,12,74.3,629.7)" />
<use xlink:href="#f2_20" transform="matrix(11.7,0,0,12,109.1,644.1)" />
<use xlink:href="#f2_2g" transform="matrix(11.7,0,0,12,118.3,644.1)" />
<use xlink:href="#f3_x" transform="matrix(11.7,0,0,12,91.7,629.7)" />
<use xlink:href="#f3_1s" transform="matrix(14.6,0,0,15,54.2,629.7)" />
</g>
</g>
<g fill="#000000" >
<use xlink:href="#f2_l" transform="matrix(12,0,0,12,55,690.3)" />
<use xlink:href="#f2_r" transform="matrix(12,0,0,12,64.2,690.3)" />
<use xlink:href="#f2_i" transform="matrix(12,0,0,12,73.3,690.3)" />
<use xlink:href="#f2_11" transform="matrix(12,0,0,12,82.5,690.3)" />
<use xlink:href="#f2_2j" transform="matrix(12,0,0,12,100.3,690.3)" />
<use xlink:href="#f2_25" transform="matrix(12,0,0,12,113.5,690.3)" />
<use xlink:href="#f2_2e" transform="matrix(12,0,0,12,118.6,690.3)" />
<use xlink:href="#f2_21" transform="matrix(12,0,0,12,124.7,690.3)" />
<use xlink:href="#f2_11" transform="matrix(12,0,0,12,137.5,690.3)" />
<use xlink:href="#f2_12" transform="matrix(12,0,0,12,150.7,690.3)" />
<use xlink:href="#f2_25" transform="matrix(12,0,0,12,167.5,690.3)" />
<use xlink:href="#f2_2f" transform="matrix(12,0,0,12,172.6,690.3)" />
<use xlink:href="#f2_1z" transform="matrix(12,0,0,12,184.3,690.3)" />
<use xlink:href="#f2_1x" transform="matrix(12,0,0,12,192.5,690.3)" />
<use xlink:href="#f2_2e" transform="matrix(12,0,0,12,200.6,690.3)" />
<use xlink:href="#f2_2e" transform="matrix(12,0,0,12,206.7,690.3)" />
<use xlink:href="#f2_2l" transform="matrix(12,0,0,12,212.9,690.3)" />
<use xlink:href="#f2_25" transform="matrix(12,0,0,12,222.1,690.3)" />
<use xlink:href="#f2_2a" transform="matrix(12,0,0,12,227.1,690.3)" />
<use xlink:href="#f2_23" transform="matrix(12,0,0,12,236.3,690.3)" />
<use xlink:href="#f2_1x" transform="matrix(12,0,0,12,250,690.3)" />
<use xlink:href="#f2_2f" transform="matrix(12,0,0,12,262.7,690.3)" />
<use xlink:href="#f2_2g" transform="matrix(12,0,0,12,269.9,690.3)" />
<use xlink:href="#f2_21" transform="matrix(12,0,0,12,275,690.3)" />
<use xlink:href="#f2_1x" transform="matrix(12,0,0,12,283.2,690.3)" />
<use xlink:href="#f2_20" transform="matrix(12,0,0,12,291.3,690.3)" />
<use xlink:href="#f2_2l" transform="matrix(12,0,0,12,300.5,690.3)" />
<use xlink:href="#f2_1z" transform="matrix(12,0,0,12,314.2,690.3)" />
<use xlink:href="#f2_2h" transform="matrix(12,0,0,12,322.3,690.3)" />
<use xlink:href="#f2_2e" transform="matrix(12,0,0,12,331.5,690.3)" />
<use xlink:href="#f2_2e" transform="matrix(12,0,0,12,337.6,690.3)" />
<use xlink:href="#f2_21" transform="matrix(12,0,0,12,343.7,690.3)" />
<use xlink:href="#f2_2a" transform="matrix(12,0,0,12,351.9,690.3)" />
<use xlink:href="#f2_2g" transform="matrix(12,0,0,12,361,690.3)" />
<use xlink:href="#f2_2b" transform="matrix(12,0,0,12,370.7,690.3)" />
<use xlink:href="#f2_22" transform="matrix(12,0,0,12,379.9,690.3)" />
<use xlink:href="#f2_q" transform="matrix(12,0,0,12,390.5,690.3)" />
<use xlink:href="#f2_11" transform="matrix(12,0,0,12,399.7,690.3)" />
<use xlink:href="#f2_1x" transform="matrix(12,0,0,12,417.5,690.3)" />
<use xlink:href="#f2_2a" transform="matrix(12,0,0,12,425.6,690.3)" />
<use xlink:href="#f2_20" transform="matrix(12,0,0,12,434.8,690.3)" />
<use xlink:href="#f2_25" transform="matrix(12,0,0,12,448.5,690.3)" />
<use xlink:href="#f2_2f" transform="matrix(12,0,0,12,453.6,690.3)" />
<use xlink:href="#f2_28" transform="matrix(12,0,0,12,465.4,690.3)" />
<use xlink:href="#f2_2l" transform="matrix(12,0,0,12,470.5,690.3)" />
<use xlink:href="#f2_25" transform="matrix(12,0,0,12,479.7,690.3)" />
<use xlink:href="#f2_2a" transform="matrix(12,0,0,12,484.7,690.3)" />
<use xlink:href="#f2_23" transform="matrix(12,0,0,12,493.9,690.3)" />
<use xlink:href="#f2_2b" transform="matrix(12,0,0,12,507.6,690.3)" />
<use xlink:href="#f2_2a" transform="matrix(12,0,0,12,516.8,690.3)" />
<use xlink:href="#f2_2g" transform="matrix(12,0,0,12,530.5,690.3)" />
<use xlink:href="#f2_24" transform="matrix(12,0,0,12,535.6,690.3)" />
<use xlink:href="#f2_21" transform="matrix(12,0,0,12,544.8,690.3)" />
<use xlink:href="#f2_2g" transform="matrix(12,0,0,12,557.6,690.3)" />
<use xlink:href="#f2_1x" transform="matrix(12,0,0,12,562.7,690.3)" />
<use xlink:href="#f2_1y" transform="matrix(12,0,0,12,570.8,690.3)" />
<use xlink:href="#f2_28" transform="matrix(12,0,0,12,580,690.3)" />
<use xlink:href="#f2_21" transform="matrix(12,0,0,12,585.1,690.3)" />
<use xlink:href="#f2_i" transform="matrix(12,0,0,12,593.2,690.3)" />
<use xlink:href="#f2_11" transform="matrix(12,0,0,12,602.4,690.3)" />
<use xlink:href="#f2_2a" transform="matrix(12,0,0,12,615.6,690.3)" />
<use xlink:href="#f2_2b" transform="matrix(12,0,0,12,624.8,690.3)" />
<use xlink:href="#f2_2g" transform="matrix(12,0,0,12,633.9,690.3)" />
<use xlink:href="#f2_24" transform="matrix(12,0,0,12,639.3,690.3)" />
<use xlink:href="#f2_21" transform="matrix(12,0,0,12,648.5,690.3)" />
<use xlink:href="#f2_2e" transform="matrix(12,0,0,12,656.6,690.3)" />
<use xlink:href="#f2_2j" transform="matrix(12,0,0,12,667.3,690.3)" />
<use xlink:href="#f2_25" transform="matrix(12,0,0,12,680.4,690.3)" />
<use xlink:href="#f2_2e" transform="matrix(12,0,0,12,685.5,690.3)" />
<use xlink:href="#f2_21" transform="matrix(12,0,0,12,691.7,690.3)" />
<use xlink:href="#f2_13" transform="matrix(12,0,0,12,704.4,690.3)" />
<use xlink:href="#f2_14" transform="matrix(12,0,0,12,716.7,690.3)" />
<use xlink:href="#f2_1z" transform="matrix(12,0,0,12,734.4,690.3)" />
<use xlink:href="#f2_1x" transform="matrix(12,0,0,12,742.6,690.3)" />
<use xlink:href="#f2_2e" transform="matrix(12,0,0,12,750.7,690.3)" />
<use xlink:href="#f2_2e" transform="matrix(12,0,0,12,756.9,690.3)" />
<use xlink:href="#f2_2l" transform="matrix(12,0,0,12,763,690.3)" />
<use xlink:href="#f2_25" transform="matrix(12,0,0,12,772.1,690.3)" />
<use xlink:href="#f2_2a" transform="matrix(12,0,0,12,777.3,690.3)" />
<use xlink:href="#f2_23" transform="matrix(12,0,0,12,786.4,690.3)" />
<use xlink:href="#f2_o" transform="matrix(12,0,0,12,800.2,690.3)" />
<use xlink:href="#f2_11" transform="matrix(12,0,0,12,809.4,690.3)" />
<use xlink:href="#f2_25" transform="matrix(12,0,0,12,827.2,690.3)" />
<use xlink:href="#f2_2f" transform="matrix(12,0,0,12,832.3,690.3)" />
<use xlink:href="#f2_24" transform="matrix(12,0,0,12,55,713)" />
<use xlink:href="#f2_21" transform="matrix(12,0,0,12,64.2,713)" />
<use xlink:href="#f2_28" transform="matrix(12,0,0,12,72.3,713)" />
<use xlink:href="#f2_20" transform="matrix(12,0,0,12,77.4,713)" />
<use xlink:href="#f2_20" transform="matrix(12,0,0,12,91.2,713)" />
<use xlink:href="#f2_25" transform="matrix(12,0,0,12,100.4,713)" />
<use xlink:href="#f2_2e" transform="matrix(12,0,0,12,105.5,713)" />
<use xlink:href="#f2_21" transform="matrix(12,0,0,12,111.6,713)" />
<use xlink:href="#f2_1z" transform="matrix(12,0,0,12,119.8,713)" />
<use xlink:href="#f2_2g" transform="matrix(12,0,0,12,127.9,713)" />
<use xlink:href="#f2_28" transform="matrix(12,0,0,12,133,713)" />
<use xlink:href="#f2_2l" transform="matrix(12,0,0,12,138.1,713)" />
<use xlink:href="#f2_1x" transform="matrix(12,0,0,12,151.8,713)" />
<use xlink:href="#f2_1y" transform="matrix(12,0,0,12,159.9,713)" />
<use xlink:href="#f2_2b" transform="matrix(12,0,0,12,169.1,713)" />
<use xlink:href="#f2_2i" transform="matrix(12,0,0,12,178.2,713)" />
<use xlink:href="#f2_21" transform="matrix(12,0,0,12,187.4,713)" />
<use xlink:href="#f2_11" transform="matrix(12,0,0,12,200.1,713)" />
<use xlink:href="#f2_12" transform="matrix(12,0,0,12,213.4,713)" />
<use xlink:href="#f2_1x" transform="matrix(12,0,0,12,230.2,713)" />
<use xlink:href="#f2_2g" transform="matrix(12,0,0,12,238.3,713)" />
<use xlink:href="#f2_1x" transform="matrix(12,0,0,12,248,713)" />
<use xlink:href="#f2_24" transform="matrix(12,0,0,12,260.7,713)" />
<use xlink:href="#f2_21" transform="matrix(12,0,0,12,269.9,713)" />
<use xlink:href="#f2_25" transform="matrix(12,0,0,12,278.1,713)" />
<use xlink:href="#f2_23" transform="matrix(12,0,0,12,283.2,713)" />
<use xlink:href="#f2_24" transform="matrix(12,0,0,12,292.3,713)" />
<use xlink:href="#f2_2g" transform="matrix(12,0,0,12,301.4,713)" />
<use xlink:href="#f2_2b" transform="matrix(12,0,0,12,311.1,713)" />
<use xlink:href="#f2_22" transform="matrix(12,0,0,12,320.3,713)" />
<use xlink:href="#f2_l" transform="matrix(12,0,0,12,331,713)" />
<use xlink:href="#f2_29" transform="matrix(12,0,0,12,340.2,713)" />
<use xlink:href="#f2_29" transform="matrix(12,0,0,12,354.4,713)" />
<use xlink:href="#f2_i" transform="matrix(12,0,0,12,368.5,713)" />
<use xlink:href="#f2_16" transform="matrix(12,0,0,12,377.7,713)" />
<use xlink:href="#f2_25" transform="matrix(12,0,0,12,387.9,713)" />
<use xlink:href="#f2_2a" transform="matrix(12,0,0,12,393,713)" />
<use xlink:href="#f2_20" transform="matrix(12,0,0,12,402.1,713)" />
<use xlink:href="#f2_2g" transform="matrix(12,0,0,12,415.9,713)" />
<use xlink:href="#f2_24" transform="matrix(12,0,0,12,421,713)" />
<use xlink:href="#f2_21" transform="matrix(12,0,0,12,430.2,713)" />
<use xlink:href="#f2_29" transform="matrix(12,0,0,12,442.9,713)" />
<use xlink:href="#f2_1x" transform="matrix(12,0,0,12,457.1,713)" />
<use xlink:href="#f2_2f" transform="matrix(12,0,0,12,465.2,713)" />
<use xlink:href="#f2_2f" transform="matrix(12,0,0,12,472.3,713)" />
<use xlink:href="#f2_2c" transform="matrix(12,0,0,12,484,713)" />
<use xlink:href="#f2_21" transform="matrix(12,0,0,12,493.2,713)" />
<use xlink:href="#f2_2e" transform="matrix(12,0,0,12,501.4,713)" />
<use xlink:href="#f2_2h" transform="matrix(12,0,0,12,512.1,713)" />
<use xlink:href="#f2_2a" transform="matrix(12,0,0,12,521.3,713)" />
<use xlink:href="#f2_25" transform="matrix(12,0,0,12,530.4,713)" />
<use xlink:href="#f2_2g" transform="matrix(12,0,0,12,535.6,713)" />
<use xlink:href="#f2_28" transform="matrix(12,0,0,12,545.3,713)" />
<use xlink:href="#f2_21" transform="matrix(12,0,0,12,550.3,713)" />
<use xlink:href="#f2_2a" transform="matrix(12,0,0,12,558.5,713)" />
<use xlink:href="#f2_23" transform="matrix(12,0,0,12,567.7,713)" />
<use xlink:href="#f2_2g" transform="matrix(12,0,0,12,576.8,713)" />
<use xlink:href="#f2_24" transform="matrix(12,0,0,12,581.9,713)" />
<use xlink:href="#f2_2b" transform="matrix(12,0,0,12,595.7,713)" />
<use xlink:href="#f2_22" transform="matrix(12,0,0,12,604.8,713)" />
<use xlink:href="#f2_2g" transform="matrix(12,0,0,12,615.4,713)" />
<use xlink:href="#f2_24" transform="matrix(12,0,0,12,620.5,713)" />
<use xlink:href="#f2_21" transform="matrix(12,0,0,12,629.7,713)" />
<use xlink:href="#f2_2j" transform="matrix(12,0,0,12,642.4,713)" />
<use xlink:href="#f2_25" transform="matrix(12,0,0,12,655.6,713)" />
<use xlink:href="#f2_2e" transform="matrix(12,0,0,12,660.7,713)" />
<use xlink:href="#f2_21" transform="matrix(12,0,0,12,666.9,713)" />
<use xlink:href="#f2_13" transform="matrix(12,0,0,12,679.6,713)" />
<use xlink:href="#f2_14" transform="matrix(12,0,0,12,691.9,713)" />
<use xlink:href="#f2_2f" transform="matrix(12,0,0,12,709.6,713)" />
<use xlink:href="#f2_2b" transform="matrix(12,0,0,12,716.8,713)" />
<use xlink:href="#f2_2g" transform="matrix(12,0,0,12,730.5,713)" />
<use xlink:href="#f2_24" transform="matrix(12,0,0,12,735.6,713)" />
<use xlink:href="#f2_1x" transform="matrix(12,0,0,12,744.8,713)" />
<use xlink:href="#f2_2g" transform="matrix(12,0,0,12,753,713)" />
<use xlink:href="#f2_25" transform="matrix(12,0,0,12,762.6,713)" />
<use xlink:href="#f2_2g" transform="matrix(12,0,0,12,767.7,713)" />
<use xlink:href="#f2_2e" transform="matrix(12,0,0,12,777.7,713)" />
<use xlink:href="#f2_21" transform="matrix(12,0,0,12,783.8,713)" />
<use xlink:href="#f2_29" transform="matrix(12,0,0,12,791.9,713)" />
<use xlink:href="#f2_1x" transform="matrix(12,0,0,12,806,713)" />
<use xlink:href="#f2_25" transform="matrix(12,0,0,12,814.2,713)" />
<use xlink:href="#f2_2a" transform="matrix(12,0,0,12,819.3,713)" />
<use xlink:href="#f2_2f" transform="matrix(12,0,0,12,828.4,713)" />
<use xlink:href="#f2_2f" transform="matrix(12,0,0,12,55,735.9)" />
<use xlink:href="#f2_2h" transform="matrix(12,0,0,12,62.1,735.9)" />
<use xlink:href="#f2_2f" transform="matrix(12,0,0,12,71.3,735.9)" />
<use xlink:href="#f2_2c" transform="matrix(12,0,0,12,78.4,735.9)" />
<use xlink:href="#f2_21" transform="matrix(12,0,0,12,87.6,735.9)" />
<use xlink:href="#f2_2a" transform="matrix(12,0,0,12,95.7,735.9)" />
<use xlink:href="#f2_20" transform="matrix(12,0,0,12,104.9,735.9)" />
<use xlink:href="#f2_21" transform="matrix(12,0,0,12,114.1,735.9)" />
<use xlink:href="#f2_20" transform="matrix(12,0,0,12,122.3,735.9)" />
<use xlink:href="#f2_1x" transform="matrix(12,0,0,12,136,735.9)" />
<use xlink:href="#f2_2g" transform="matrix(12,0,0,12,144.1,735.9)" />
<use xlink:href="#f2_25" transform="matrix(12,0,0,12,153.8,735.9)" />
<use xlink:href="#f2_2g" transform="matrix(12,0,0,12,158.9,735.9)" />
<use xlink:href="#f2_2f" transform="matrix(12,0,0,12,164,735.9)" />
<use xlink:href="#f2_2c" transform="matrix(12,0,0,12,175.7,735.9)" />
<use xlink:href="#f2_2b" transform="matrix(12,0,0,12,184.9,735.9)" />
<use xlink:href="#f2_2f" transform="matrix(12,0,0,12,194.1,735.9)" />
<use xlink:href="#f2_25" transform="matrix(12,0,0,12,201.2,735.9)" />
<use xlink:href="#f2_2g" transform="matrix(12,0,0,12,206.2,735.9)" />
<use xlink:href="#f2_25" transform="matrix(12,0,0,12,211.3,735.9)" />
<use xlink:href="#f2_2b" transform="matrix(12,0,0,12,216.5,735.9)" />
<use xlink:href="#f2_2a" transform="matrix(12,0,0,12,225.6,735.9)" />
<use xlink:href="#f2_2j" transform="matrix(12,0,0,12,239.3,735.9)" />
<use xlink:href="#f2_24" transform="matrix(12,0,0,12,252.5,735.9)" />
<use xlink:href="#f2_21" transform="matrix(12,0,0,12,261.7,735.9)" />
<use xlink:href="#f2_2a" transform="matrix(12,0,0,12,269.8,735.9)" />
<use xlink:href="#f2_28" transform="matrix(12,0,0,12,283.6,735.9)" />
<use xlink:href="#f2_21" transform="matrix(12,0,0,12,288.7,735.9)" />
<use xlink:href="#f2_22" transform="matrix(12,0,0,12,296.8,735.9)" />
<use xlink:href="#f2_2g" transform="matrix(12,0,0,12,302.9,735.9)" />
<use xlink:href="#f2_22" transform="matrix(12,0,0,12,312.6,735.9)" />
<use xlink:href="#f2_2e" transform="matrix(12,0,0,12,318.7,735.9)" />
<use xlink:href="#f2_21" transform="matrix(12,0,0,12,324.8,735.9)" />
<use xlink:href="#f2_21" transform="matrix(12,0,0,12,333,735.9)" />
<use xlink:href="#f2_i" transform="matrix(12,0,0,12,341.1,735.9)" />
<use xlink:href="#f2_17" transform="matrix(12,0,0,12,350.3,735.9)" />
<use xlink:href="#f2_25" transform="matrix(12,0,0,12,363.5,735.9)" />
<use xlink:href="#f2_2i" transform="matrix(12,0,0,12,368.6,735.9)" />
<use xlink:href="#f2_21" transform="matrix(12,0,0,12,377.8,735.9)" />
<use xlink:href="#f2_2g" transform="matrix(12,0,0,12,390.5,735.9)" />
<use xlink:href="#f2_24" transform="matrix(12,0,0,12,395.7,735.9)" />
<use xlink:href="#f2_21" transform="matrix(12,0,0,12,404.8,735.9)" />
<use xlink:href="#f2_20" transform="matrix(12,0,0,12,417.5,735.9)" />
<use xlink:href="#f2_25" transform="matrix(12,0,0,12,426.6,735.9)" />
<use xlink:href="#f2_2e" transform="matrix(12,0,0,12,431.7,735.9)" />
<use xlink:href="#f2_21" transform="matrix(12,0,0,12,437.9,735.9)" />
<use xlink:href="#f2_1z" transform="matrix(12,0,0,12,446,735.9)" />
<use xlink:href="#f2_2g" transform="matrix(12,0,0,12,454.1,735.9)" />
<use xlink:href="#f2_25" transform="matrix(12,0,0,12,459.2,735.9)" />
<use xlink:href="#f2_2b" transform="matrix(12,0,0,12,464.4,735.9)" />
<use xlink:href="#f2_2a" transform="matrix(12,0,0,12,473.5,735.9)" />
<use xlink:href="#f2_2b" transform="matrix(12,0,0,12,487.3,735.9)" />
<use xlink:href="#f2_22" transform="matrix(12,0,0,12,496.4,735.9)" />
<use xlink:href="#f2_2g" transform="matrix(12,0,0,12,507,735.9)" />
<use xlink:href="#f2_24" transform="matrix(12,0,0,12,512.1,735.9)" />
<use xlink:href="#f2_21" transform="matrix(12,0,0,12,521.3,735.9)" />
<use xlink:href="#f2_1z" transform="matrix(12,0,0,12,534,735.9)" />
<use xlink:href="#f2_2h" transform="matrix(12,0,0,12,542.2,735.9)" />
<use xlink:href="#f2_2e" transform="matrix(12,0,0,12,551.3,735.9)" />
<use xlink:href="#f2_2e" transform="matrix(12,0,0,12,557.4,735.9)" />
<use xlink:href="#f2_21" transform="matrix(12,0,0,12,563.5,735.9)" />
<use xlink:href="#f2_2a" transform="matrix(12,0,0,12,571.7,735.9)" />
<use xlink:href="#f2_2g" transform="matrix(12,0,0,12,580.9,735.9)" />
<use xlink:href="#f2_22" transform="matrix(12,0,0,12,590.5,735.9)" />
<use xlink:href="#f2_28" transform="matrix(12,0,0,12,596.5,735.9)" />
<use xlink:href="#f2_2b" transform="matrix(12,0,0,12,601.6,735.9)" />
<use xlink:href="#f2_2j" transform="matrix(12,0,0,12,610.8,735.9)" />
<use xlink:href="#f2_25" transform="matrix(12,0,0,12,624,735.9)" />
<use xlink:href="#f2_2a" transform="matrix(12,0,0,12,629.1,735.9)" />
<use xlink:href="#f2_23" transform="matrix(12,0,0,12,638.3,735.9)" />
<use xlink:href="#f2_25" transform="matrix(12,0,0,12,652,735.9)" />
<use xlink:href="#f2_2a" transform="matrix(12,0,0,12,657.2,735.9)" />
<use xlink:href="#f2_13" transform="matrix(12,0,0,12,670.9,735.9)" />
<use xlink:href="#f2_14" transform="matrix(12,0,0,12,683,735.9)" />
<use xlink:href="#f2_2j" transform="matrix(12,0,0,12,700.9,735.9)" />
<use xlink:href="#f2_25" transform="matrix(12,0,0,12,714,735.9)" />
<use xlink:href="#f2_2g" transform="matrix(12,0,0,12,719.1,735.9)" />
<use xlink:href="#f2_24" transform="matrix(12,0,0,12,724.3,735.9)" />
<use xlink:href="#f2_2e" transform="matrix(12,0,0,12,738.3,735.9)" />
<use xlink:href="#f2_21" transform="matrix(12,0,0,12,744.4,735.9)" />
<use xlink:href="#f2_2f" transform="matrix(12,0,0,12,752.5,735.9)" />
<use xlink:href="#f2_2c" transform="matrix(12,0,0,12,759.7,735.9)" />
<use xlink:href="#f2_21" transform="matrix(12,0,0,12,768.9,735.9)" />
<use xlink:href="#f2_1z" transform="matrix(12,0,0,12,777,735.9)" />
<use xlink:href="#f2_2g" transform="matrix(12,0,0,12,785.2,735.9)" />
<use xlink:href="#f2_2g" transform="matrix(12,0,0,12,794.9,735.9)" />
<use xlink:href="#f2_2b" transform="matrix(12,0,0,12,800,735.9)" />
<use xlink:href="#f2_2g" transform="matrix(12,0,0,12,813.7,735.9)" />
<use xlink:href="#f2_24" transform="matrix(12,0,0,12,818.8,735.9)" />
<use xlink:href="#f2_1x" transform="matrix(12,0,0,12,828,735.9)" />
<use xlink:href="#f2_2g" transform="matrix(12,0,0,12,836.1,735.9)" />
<use xlink:href="#f2_25" transform="matrix(12,0,0,12,55,764.3)" />
<use xlink:href="#f2_2a" transform="matrix(12,0,0,12,60.1,764.3)" />
<use xlink:href="#f2_11" transform="matrix(12,0,0,12,73.8,764.3)" />
<use xlink:href="#f2_12" transform="matrix(12,0,0,12,87.1,764.3)" />
<use xlink:href="#f2_i" transform="matrix(12,0,0,12,99.3,764.3)" />
<use xlink:href="#f2_1r" transform="matrix(12,0,0,12,108.5,764.3)" />
<use xlink:href="#f2_1k" transform="matrix(12,0,0,12,114.5,764.3)" />
<use xlink:href="#f2_1x" transform="matrix(12,0,0,12,125.7,764.3)" />
<use xlink:href="#f2_27" transform="matrix(12,0,0,12,133.8,764.3)" />
<use xlink:href="#f2_21" transform="matrix(12,0,0,12,143.1,764.3)" />
<use xlink:href="#f2_2g" transform="matrix(12,0,0,12,155.8,764.3)" />
<use xlink:href="#f2_24" transform="matrix(12,0,0,12,160.9,764.3)" />
<use xlink:href="#f2_21" transform="matrix(12,0,0,12,170.1,764.3)" />
<use xlink:href="#f2_2i" transform="matrix(12,0,0,12,182.9,764.3)" />
<use xlink:href="#f2_1x" transform="matrix(12,0,0,12,192.1,764.3)" />
<use xlink:href="#f2_28" transform="matrix(12,0,0,12,200.1,764.3)" />
<use xlink:href="#f2_2h" transform="matrix(12,0,0,12,205.2,764.3)" />
<use xlink:href="#f2_21" transform="matrix(12,0,0,12,214.4,764.3)" />
<use xlink:href="#f2_2b" transform="matrix(12,0,0,12,227.1,764.3)" />
<use xlink:href="#f2_22" transform="matrix(12,0,0,12,236.3,764.3)" />
<use xlink:href="#f2_23" transform="matrix(12,0,0,12,246.9,764.3)" />
<use xlink:href="#f2_x" transform="matrix(12,0,0,12,260.6,764.3)" />
<use xlink:href="#f2_l" transform="matrix(12,0,0,12,275.5,764.3)" />
<use xlink:href="#f2_k" transform="matrix(12,0,0,12,284.7,764.3)" />
<use xlink:href="#f2_29" transform="matrix(12,0,0,12,298.6,764.3)" />
<use xlink:href="#f2_2f" transform="matrix(12,0,0,12,312.7,764.3)" />
<use xlink:href="#f5_4y" transform="matrix(8,0,0,8,319.9,757.4)" />
<use xlink:href="#f2_m" transform="matrix(10.5,0,0,10.5,326,755.9)" />
<use xlink:href="#f2_1t" transform="matrix(12,0,0,12,334.1,764.3)" />
<use xlink:href="#f4_1j" transform="matrix(12,0,0,12,55,788.9)" />
<use xlink:href="#f4_2b" transform="matrix(12,0,0,12,65.2,788.9)" />
<use xlink:href="#f4_28" transform="matrix(12,0,0,12,74.4,788.9)" />
<use xlink:href="#f4_2h" transform="matrix(12,0,0,12,79.5,788.9)" />
<use xlink:href="#f4_2g" transform="matrix(12,0,0,12,89.7,788.9)" />
<use xlink:href="#f4_25" transform="matrix(12,0,0,12,95.8,788.9)" />
<use xlink:href="#f4_2b" transform="matrix(12,0,0,12,100.9,788.9)" />
<use xlink:href="#f4_2a" transform="matrix(12,0,0,12,110,788.9)" />
<use xlink:href="#f4_u" transform="matrix(12,0,0,12,120.2,788.9)" />
<use xlink:href="#f2_16" transform="matrix(12,0,0,12,55,950.8)" />
<use xlink:href="#f2_2b" transform="matrix(12,0,0,12,65.2,950.8)" />
<use xlink:href="#f2_2e" transform="matrix(12,0,0,12,74.4,950.8)" />
<use xlink:href="#f2_1y" transform="matrix(12,0,0,12,85,950.8)" />
<use xlink:href="#f2_1x" transform="matrix(12,0,0,12,94.2,950.8)" />
<use xlink:href="#f2_28" transform="matrix(12,0,0,12,102.4,950.8)" />
<use xlink:href="#f2_1x" transform="matrix(12,0,0,12,107.5,950.8)" />
<use xlink:href="#f2_2a" transform="matrix(12,0,0,12,115.6,950.8)" />
<use xlink:href="#f2_1z" transform="matrix(12,0,0,12,124.8,950.8)" />
<use xlink:href="#f2_21" transform="matrix(12,0,0,12,132.9,950.8)" />
<use xlink:href="#f2_2b" transform="matrix(12,0,0,12,145.5,950.8)" />
<use xlink:href="#f2_22" transform="matrix(12,0,0,12,154.7,950.8)" />
<use xlink:href="#f2_13" transform="matrix(12,0,0,12,165.4,950.8)" />
<use xlink:href="#f2_14" transform="matrix(12,0,0,12,177.5,950.8)" />
<use xlink:href="#f2_16" transform="matrix(12,0,0,12,55,973.6)" />
<use xlink:href="#f2_29" transform="matrix(8,0,0,8,65.3,974.3)" />
<use xlink:href="#f2_x" transform="matrix(12,0,0,12,79.2,973.6)" />
<use xlink:href="#f2_29" transform="matrix(12,0,0,12,94.2,973.6)" />
<use xlink:href="#f2_23" transform="matrix(12,0,0,12,108.3,973.6)" />
</g>
<path d="M67.1,1016H88.4m3,0H115" class="g7_171" />
<g clip-path="url(#c4_171)">
<g fill="#000000" >
<use xlink:href="#f2_k" transform="matrix(6.9,0,0,6.9,79.7,1013.6)" />
<use xlink:href="#f2_l" transform="matrix(6.9,0,0,6.9,96.7,1013.6)" />
<use xlink:href="#f2_m" transform="matrix(6.9,0,0,6.9,107.2,1013.6)" />
<use xlink:href="#f2_25" transform="matrix(11.9,0,0,12,92,1008.9)" />
<use xlink:href="#f2_25" transform="matrix(11.9,0,0,12,101.4,1008.9)" />
<use xlink:href="#f2_29" transform="matrix(11.9,0,0,12,153.6,1020.6)" />
<use xlink:href="#f2_23" transform="matrix(11.9,0,0,12,167.6,1020.6)" />
<use xlink:href="#f2_m" transform="matrix(11.9,0,0,12,68.2,1035.1)" />
<use xlink:href="#f2_24" transform="matrix(11.9,0,0,12,98.4,1035.1)" />
<use xlink:href="#f3_29" transform="matrix(11.9,0,0,12,68.5,1008.9)" />
<use xlink:href="#f3_4o" transform="matrix(11.9,0,0,12,57.3,1010.3)" />
<use xlink:href="#f3_54" transform="matrix(11.9,0,0,12,117.7,1010.3)" />
<use xlink:href="#f3_x" transform="matrix(11.9,0,0,12,139,1020.6)" />
<use xlink:href="#f3_4p" transform="matrix(11.9,0,0,12,57.3,1025.7)" />
<use xlink:href="#f3_55" transform="matrix(11.9,0,0,12,117.7,1025.7)" />
<use xlink:href="#f3_2c" transform="matrix(11.9,0,0,12,77.7,1035.1)" />
<use xlink:href="#f3_4q" transform="matrix(11.9,0,0,12,57.3,1037.2)" />
<use xlink:href="#f3_56" transform="matrix(11.9,0,0,12,117.7,1037.2)" />
</g>
</g>
<image preserveAspectRatio="none" x="126" y="999" width="74" height="32" xlink:href="img/6.png" />
<path d="M58.1,1071.4H74.4m19.5,0H195.8" class="g8_171" />
<g clip-path="url(#c5_171)">
<g fill="#000000" >
<use xlink:href="#f2_r" transform="matrix(7.1,0,0,7,141.1,1056.2)" />
<use xlink:href="#f2_o" transform="matrix(7.1,0,0,7,274.5,1067.8)" />
<use xlink:href="#f2_n" transform="matrix(7.1,0,0,7,137.6,1082.2)" />
<use xlink:href="#f2_29" transform="matrix(12.3,0,0,12,59.3,1064.4)" />
<use xlink:href="#f2_m" transform="matrix(12.3,0,0,12,95,1064.4)" />
<use xlink:href="#f2_l" transform="matrix(12.3,0,0,12,116.5,1064.4)" />
<use xlink:href="#f2_k" transform="matrix(12.3,0,0,12,125.7,1064.4)" />
<use xlink:href="#f2_q" transform="matrix(12.3,0,0,12,162.6,1064.4)" />
<use xlink:href="#f2_o" transform="matrix(12.3,0,0,12,186.1,1064.4)" />
<use xlink:href="#f2_o" transform="matrix(12.3,0,0,12,215,1076)" />
<use xlink:href="#f2_i" transform="matrix(12.3,0,0,12,224.2,1076)" />
<use xlink:href="#f2_s" transform="matrix(12.3,0,0,12,228.8,1076)" />
<use xlink:href="#f2_l" transform="matrix(12.3,0,0,12,249.9,1076)" />
<use xlink:href="#f2_k" transform="matrix(12.3,0,0,12,259.1,1076)" />
<use xlink:href="#f2_27" transform="matrix(12.3,0,0,12,282.1,1076)" />
<use xlink:href="#f2_23" transform="matrix(12.3,0,0,12,291.3,1076)" />
<use xlink:href="#f2_j" transform="matrix(12.3,0,0,12,304.1,1076)" />
<use xlink:href="#f2_29" transform="matrix(12.3,0,0,12,313,1076)" />
<use xlink:href="#f2_l" transform="matrix(12.3,0,0,12,113.1,1090.4)" />
<use xlink:href="#f2_k" transform="matrix(12.3,0,0,12,122.2,1090.4)" />
<use xlink:href="#f2_l" transform="matrix(12.3,0,0,12,156.9,1090.4)" />
<use xlink:href="#f2_k" transform="matrix(12.3,0,0,12,166.1,1090.4)" />
<use xlink:href="#f3_h" transform="matrix(7.1,0,0,7,135.3,1056.2)" />
<use xlink:href="#f3_h" transform="matrix(7.1,0,0,7,268.7,1067.8)" />
<use xlink:href="#f3_h" transform="matrix(7.1,0,0,7,131.8,1082.2)" />
<use xlink:href="#f3_3a" transform="matrix(12.3,0,0,12,105.9,1064.4)" />
<use xlink:href="#f3_3a" transform="matrix(12.3,0,0,12,150.3,1064.4)" />
<use xlink:href="#f3_3a" transform="matrix(12.3,0,0,12,173.5,1064.4)" />
<use xlink:href="#f3_x" transform="matrix(12.3,0,0,12,79.3,1076)" />
<use xlink:href="#f3_x" transform="matrix(12.3,0,0,12,200.7,1076)" />
<use xlink:href="#f3_3a" transform="matrix(12.3,0,0,12,239.3,1076)" />
<use xlink:href="#f3_3a" transform="matrix(12.3,0,0,12,146.3,1090.4)" />
</g>
</g>
<image preserveAspectRatio="none" x="62" y="1069" width="74" height="32" xlink:href="img/7.png" />
<g fill="#000000" >
<use xlink:href="#f2_14" transform="matrix(12,0,0,12,55,1113.1)" />
<use xlink:href="#f2_25" transform="matrix(12,0,0,12,68.2,1113.1)" />
<use xlink:href="#f2_2e" transform="matrix(12,0,0,12,73.3,1113.1)" />
<use xlink:href="#f2_21" transform="matrix(12,0,0,12,79.4,1113.1)" />
<use xlink:href="#f2_1z" transform="matrix(12,0,0,12,87.6,1113.1)" />
<use xlink:href="#f2_2g" transform="matrix(12,0,0,12,95.8,1113.1)" />
<use xlink:href="#f2_25" transform="matrix(12,0,0,12,100.9,1113.1)" />
<use xlink:href="#f2_2b" transform="matrix(12,0,0,12,105.9,1113.1)" />
<use xlink:href="#f2_2a" transform="matrix(12,0,0,12,115.1,1113.1)" />
<use xlink:href="#f2_2b" transform="matrix(12,0,0,12,128.9,1113.1)" />
<use xlink:href="#f2_22" transform="matrix(12,0,0,12,138,1113.1)" />
<use xlink:href="#f2_1z" transform="matrix(12,0,0,12,148.7,1113.1)" />
<use xlink:href="#f2_2h" transform="matrix(12,0,0,12,156.8,1113.1)" />
<use xlink:href="#f2_2e" transform="matrix(12,0,0,12,166,1113.1)" />
<use xlink:href="#f2_2e" transform="matrix(12,0,0,12,172.1,1113.1)" />
<use xlink:href="#f2_21" transform="matrix(12,0,0,12,178.2,1113.1)" />
<use xlink:href="#f2_2a" transform="matrix(12,0,0,12,186.4,1113.1)" />
<use xlink:href="#f2_2g" transform="matrix(12,0,0,12,195.5,1113.1)" />
<use xlink:href="#f2_25" transform="matrix(12,0,0,12,205.2,1113.1)" />
<use xlink:href="#f2_2a" transform="matrix(12,0,0,12,210.3,1113.1)" />
<use xlink:href="#f2_13" transform="matrix(12,0,0,12,224.1,1113.1)" />
<use xlink:href="#f2_14" transform="matrix(12,0,0,12,236.2,1113.1)" />
<use xlink:href="#f2_2j" transform="matrix(12,0,0,12,254,1113.1)" />
<use xlink:href="#f2_25" transform="matrix(12,0,0,12,267.2,1113.1)" />
<use xlink:href="#f2_28" transform="matrix(12,0,0,12,272.3,1113.1)" />
<use xlink:href="#f2_28" transform="matrix(12,0,0,12,277.4,1113.1)" />
<use xlink:href="#f2_1y" transform="matrix(12,0,0,12,287.1,1113.1)" />
<use xlink:href="#f2_21" transform="matrix(12,0,0,12,296.3,1113.1)" />
<use xlink:href="#f2_2b" transform="matrix(12,0,0,12,309,1113.1)" />
<use xlink:href="#f2_2c" transform="matrix(12,0,0,12,318.2,1113.1)" />
<use xlink:href="#f2_2c" transform="matrix(12,0,0,12,327.3,1113.1)" />
<use xlink:href="#f2_2b" transform="matrix(12,0,0,12,336.5,1113.1)" />
<use xlink:href="#f2_2f" transform="matrix(12,0,0,12,345.7,1113.1)" />
<use xlink:href="#f2_25" transform="matrix(12,0,0,12,352.8,1113.1)" />
<use xlink:href="#f2_2g" transform="matrix(12,0,0,12,357.9,1113.1)" />
<use xlink:href="#f2_21" transform="matrix(12,0,0,12,363,1113.1)" />
<use xlink:href="#f2_2g" transform="matrix(12,0,0,12,375.7,1113.1)" />
<use xlink:href="#f2_2b" transform="matrix(12,0,0,12,380.8,1113.1)" />
<use xlink:href="#f2_11" transform="matrix(12,0,0,12,394.5,1113.1)" />
<use xlink:href="#f2_12" transform="matrix(12,0,0,12,407.8,1113.1)" />
<use xlink:href="#f2_i" transform="matrix(12,0,0,12,420,1113.1)" />
</g>
<image preserveAspectRatio="none" x="55" y="313" width="199" height="164" xlink:href="img/8.png" />
<image preserveAspectRatio="none" x="55" y="794" width="323" height="137" xlink:href="img/9.png" />
<path fill-rule="evenodd" d="M37.4,38.1h.7v-.7h-.7v.7Z" class="g9_171" />
<path fill-rule="evenodd" d="M37.4,38.1h.7v-.7h-.7v.7Z" class="g9_171" />
<path fill-rule="evenodd" d="M38.1,38.1H871.5v-.7H38.1v.7Z" class="g9_171" />
<path fill-rule="evenodd" d="M871.5,38.1h.7v-.7h-.7v.7Z" class="g9_171" />
<path fill-rule="evenodd" d="M871.5,38.1h.7v-.7h-.7v.7Z" class="g9_171" />
<path fill-rule="evenodd" d="M37.4,1248.2h.7V38.1h-.7V1248.2Z" class="g9_171" />
<path fill-rule="evenodd" d="M872.2,1248.2h.8V38.1h-.8V1248.2Z" class="g9_171" />
<path fill-rule="evenodd" d="M871.5,1248.2h.7V38.1h-.7V1248.2Z" class="g9_171" />
<path fill-rule="evenodd" d="M37.4,1249h.7v-.8h-.7v.8Z" class="g9_171" />
<path fill-rule="evenodd" d="M37.4,1249h.7v-.8h-.7v.8Z" class="g9_171" />
<path fill-rule="evenodd" d="M38.1,1249.7H871.5v-.7H38.1v.7Z" class="g9_171" />
<path fill-rule="evenodd" d="M38.1,1249H871.5v-.8H38.1v.8Z" class="g9_171" />
<path fill-rule="evenodd" d="M872.2,1249.7h.8v-1.5h-.8v1.5Z" class="g9_171" />
<path fill-rule="evenodd" d="M871.5,1249.7H873v-.7h-1.5v.7Z" class="g9_171" />
<path fill-rule="evenodd" d="M871.5,1249h.7v-.8h-.7v.8Z" class="g9_171" />
<path fill-rule="evenodd" d="M871.5,1249h.7v-.8h-.7v.8Z" class="g9_171" />
<defs>
<path d="M489,-15c0,0,-99,0,-179,30c0,0,-80,30,-136,91c0,0,-56,61,-85,152c0,0,-30,91,-30,212c0,0,0,123,32,218c0,0,33,96,92,161c0,0,59,65,142,98c0,0,82,34,181,34c0,0,40,0,78,-7c0,0,37,-7,69,-18c0,0,31,-11,57,-25c0,0,25,-14,35,-24c0,0,10,-10,14,-17c0,0,4,-7,6,-17c0,0,2,-11,3,-25c0,0,2,-14,2,-35c0,0,0,-22,-2,-38c0,0,-1,-15,-5,-25c0,0,-4,-10,-9,-14c0,0,-5,-5,-12,-5c0,0,-11,0,-28,13c0,0,-18,13,-45,29c0,0,-27,16,-65,29c0,0,-37,13,-89,13c0,0,-58,0,-103,-23c0,0,-45,-23,-77,-67c0,0,-31,-44,-48,-106c0,0,-16,-61,-16,-139c0,0,0,-85,17,-147c0,0,18,-62,50,-103c0,0,33,-40,79,-60c0,0,45,-19,103,-19c0,0,52,0,90,12c0,0,38,12,65,27c0,0,27,15,45,27c0,0,17,12,27,12c0,0,8,0,12,-3c0,0,4,-3,7,-12c0,0,3,-9,5,-25c0,0,1,-16,1,-43c0,0,0,-18,-1,-31c0,0,-1,-14,-3,-23c0,0,-2,-9,-6,-16c0,0,-4,-7,-12,-15c0,0,-8,-9,-32,-22c0,0,-23,-14,-57,-26C661,13,627,1,583,-6c0,0,-43,-9,-94,-9Z" 
id="f0_j"
transform="scale(0.001,-0.001)" />

<path d="M440,150c0,0,41,0,68,8c0,0,28,9,49,26c0,0,20,16,32,41c0,0,11,25,11,58c0,0,0,33,-11,60c0,0,-11,26,-33,44c0,0,-21,18,-55,28c0,0,-33,9,-87,9H298V150ZM407,567c0,0,42,0,68,10c0,0,25,10,42,28c0,0,16,17,24,41c0,0,9,24,9,50c0,0,0,29,-9,52c0,0,-9,23,-27,39c0,0,-18,15,-45,23c0,0,-27,8,-72,8H298V567ZM164,0c0,0,-25,0,-42,15c0,0,-16,14,-16,47V903c0,0,0,33,16,48c0,0,17,14,42,14H406c0,0,88,0,150,-15c0,0,61,-15,103,-45c0,0,42,-30,65,-77c0,0,22,-46,22,-108c0,0,0,-36,-9,-67c0,0,-9,-31,-26,-56c0,0,-17,-25,-42,-45c0,0,-25,-19,-57,-31c0,0,41,-7,76,-26c0,0,34,-19,60,-48c0,0,26,-30,41,-69c0,0,15,-40,15,-89c0,0,0,-51,-14,-93c0,0,-15,-42,-40,-74c0,0,-25,-32,-59,-55c0,0,-35,-23,-77,-38C614,29,573,14,525,7C525,7,478,0,420,0Z" 
id="f0_i"
transform="scale(0.001,-0.001)" />

<path d="M320,-17c0,0,-50,0,-93,9c0,0,-43,8,-76,19c0,0,-32,11,-54,24C97,35,75,48,65,58c0,0,-10,9,-14,28c0,0,-4,18,-4,52c0,0,0,23,1,39c0,0,2,15,5,25c0,0,4,10,9,14c0,0,6,4,13,4c0,0,11,0,30,-12c0,0,19,-13,49,-28c0,0,30,-15,71,-27c0,0,42,-12,96,-12c0,0,36,0,64,8c0,0,29,9,49,25c0,0,19,15,30,38c0,0,10,23,10,52c0,0,0,33,-18,56c0,0,-18,24,-46,42c0,0,-29,18,-66,34c0,0,-36,16,-75,34c0,0,-39,18,-76,41c0,0,-36,23,-65,54c0,0,-29,32,-47,75c0,0,-17,44,-17,104c0,0,0,70,25,122c0,0,26,53,70,88c0,0,43,34,103,51c0,0,59,18,125,18c0,0,35,0,69,-6c0,0,34,-5,64,-14c0,0,30,-9,53,-20c0,0,23,-11,31,-18c0,0,7,-8,10,-13c0,0,3,-5,4,-14c0,0,2,-8,3,-21c0,0,1,-13,1,-33c0,0,0,-21,-1,-36c0,0,-1,-15,-4,-25c0,0,-3,-9,-7,-14c0,0,-5,-4,-14,-4c0,0,-8,0,-26,10c0,0,-18,10,-44,23c0,0,-26,12,-60,22c0,0,-34,10,-75,10c0,0,-32,0,-56,-8c0,0,-24,-8,-40,-21c0,0,-16,-14,-24,-34c0,0,-8,-19,-8,-41c0,0,0,-32,18,-56c0,0,17,-23,46,-42c0,0,30,-18,67,-34c0,0,38,-16,76,-34c0,0,39,-18,76,-41c0,0,38,-22,67,-54c0,0,29,-32,47,-75c0,0,18,-43,18,-101c0,0,0,-76,-29,-133c0,0,-28,-58,-77,-96C572,60,524,21,459,2c0,0,-65,-19,-139,-19Z" 
id="f0_2n"
transform="scale(0.001,-0.001)" />

<path d="M164,0c0,0,-25,0,-42,15c0,0,-16,14,-16,47V903c0,0,0,33,16,48c0,0,17,14,42,14H645c0,0,7,0,12,-4c0,0,5,-3,9,-13c0,0,4,-9,6,-24c0,0,2,-14,2,-36c0,0,0,-21,-2,-36c0,0,-2,-14,-6,-23c0,0,-4,-9,-9,-13c0,0,-5,-4,-12,-4H301V576H593c0,0,6,0,12,-4c0,0,6,-4,9,-13c0,0,4,-8,6,-23c0,0,2,-14,2,-35c0,0,0,-22,-2,-36c0,0,-2,-14,-6,-23c0,0,-3,-8,-9,-12c0,0,-6,-4,-12,-4H301V154H649c0,0,6,0,12,-5c0,0,5,-4,9,-13c0,0,4,-9,6,-23c0,0,2,-15,2,-36c0,0,0,-22,-2,-36c0,0,-2,-15,-6,-24c0,0,-4,-9,-9,-13c0,0,-6,-4,-12,-4Z" 
id="f0_t"
transform="scale(0.001,-0.001)" />

<path d="M79,297c0,0,-19,0,-27,18c0,0,-8,17,-8,60c0,0,0,41,8,59c0,0,8,17,27,17H389c0,0,9,0,15,-4c0,0,7,-4,11,-13c0,0,5,-9,7,-23c0,0,1,-15,1,-36c0,0,0,-43,-8,-61c0,0,-8,-17,-26,-17Z" 
id="f0_oj"
transform="scale(0.001,-0.001)" />

<path d="M121,-4c0,0,-39,0,-60,2C61,-2,39,0,32,8c0,0,-8,8,-3,24c0,0,4,15,18,41L279,495L64,892c0,0,-14,26,-19,42c0,0,-5,17,4,24c0,0,9,8,32,10c0,0,23,2,65,2c0,0,35,0,56,-2c0,0,20,-1,32,-4c0,0,12,-4,17,-10c0,0,5,-6,9,-15L431,620L595,939c0,0,5,9,10,15c0,0,5,6,16,10c0,0,10,3,29,4c0,0,19,2,53,2c0,0,37,0,59,-2c0,0,22,-2,30,-10c0,0,8,-8,4,-24c0,0,-4,-16,-17,-42L564,497L793,73c0,0,14,-26,18,-41c0,0,4,-16,-5,-24c0,0,-9,-8,-32,-10c0,0,-24,-2,-65,-2c0,0,-36,0,-56,2c0,0,-20,1,-31,3c0,0,-12,4,-17,10c0,0,-5,6,-9,15L414,374L233,26c0,0,-4,-9,-9,-15c0,0,-6,-6,-17,-10c0,0,-12,-2,-32,-3c0,0,-21,-2,-54,-2Z" 
id="f0_3e"
transform="scale(0.001,-0.001)" />

<path d="M204,-4c0,0,-28,0,-47,2c0,0,-19,2,-31,5c0,0,-11,4,-16,10c0,0,-4,6,-4,13V939c0,0,0,7,4,13c0,0,5,6,17,10c0,0,11,3,30,6c0,0,19,2,47,2c0,0,29,0,48,-2c0,0,18,-3,29,-6c0,0,11,-4,16,-10c0,0,5,-6,5,-13V26c0,0,0,-7,-5,-13c0,0,-5,-6,-16,-10c0,0,-11,-3,-29,-5c0,0,-19,-2,-48,-2Z" 
id="f0_1c"
transform="scale(0.001,-0.001)" />

<path d="M127,0c0,0,-16,0,-28,3C99,3,87,6,80,15c0,0,-8,8,-11,25c0,0,-3,16,-3,42c0,0,0,25,2,42c0,0,2,18,8,32c0,0,6,14,15,27c0,0,9,13,24,29L282,390c0,0,50,53,81,95c0,0,30,43,47,79c0,0,17,35,24,65c0,0,6,30,6,57c0,0,0,24,-8,46c0,0,-8,22,-23,39c0,0,-15,16,-38,25c0,0,-23,10,-55,10c0,0,-44,0,-78,-12c0,0,-33,-11,-59,-25c0,0,-26,-13,-43,-25c0,0,-17,-12,-27,-12c0,0,-7,0,-11,5c0,0,-5,4,-8,15c0,0,-3,10,-5,28c0,0,-2,17,-2,42c0,0,0,18,1,29c0,0,1,12,4,20c0,0,2,9,6,15c0,0,3,6,13,15c0,0,9,9,34,23c0,0,25,14,61,27c0,0,37,14,81,23c0,0,44,9,92,9c0,0,75,0,131,-19c0,0,57,-19,94,-53c0,0,37,-34,55,-81c0,0,19,-47,19,-100c0,0,0,-47,-9,-93c0,0,-9,-45,-37,-98c0,0,-29,-52,-80,-116c0,0,-52,-64,-136,-148L299,159H679c0,0,8,0,14,-4c0,0,6,-5,11,-14c0,0,4,-9,7,-25c0,0,2,-15,2,-36c0,0,0,-22,-2,-37c0,0,-2,-15,-6,-25c0,0,-3,-10,-9,-14c0,0,-6,-4,-14,-4Z" 
id="f0_rz"
transform="scale(0.001,-0.001)" />

<path d="M385,138c0,0,29,0,52,9c0,0,22,10,39,28c0,0,17,19,28,47c0,0,11,29,19,66c0,0,7,37,9,84c0,0,3,47,3,104c0,0,0,69,-4,122c0,0,-4,52,-11,91c0,0,-8,39,-20,66c0,0,-12,27,-28,43c0,0,-16,16,-37,22c0,0,-21,7,-47,7c0,0,-44,0,-73,-21c0,0,-28,-21,-45,-64c0,0,-17,-42,-24,-106c0,0,-6,-63,-6,-148c0,0,0,-103,8,-171c0,0,8,-67,26,-107c0,0,17,-40,45,-56c0,0,27,-16,66,-16ZM378,-17c0,0,-99,0,-164,33c0,0,-65,34,-103,98c0,0,-38,64,-54,156c0,0,-15,92,-15,209c0,0,0,115,19,208c0,0,19,94,61,160c0,0,42,65,110,101c0,0,68,35,165,35c0,0,99,0,164,-34c0,0,65,-34,103,-98c0,0,39,-64,53,-156c0,0,15,-92,15,-209c0,0,0,-115,-18,-209c0,0,-19,-93,-61,-159C653,118,611,53,543,17c0,0,-67,-34,-165,-34Z" 
id="f0_rx"
transform="scale(0.001,-0.001)" />

<path d="M142,0c0,0,-6,0,-12,4c0,0,-5,3,-9,12c0,0,-4,9,-6,23c0,0,-3,15,-3,36c0,0,0,21,2,36c0,0,2,14,6,23c0,0,4,9,10,13c0,0,5,5,12,5H322V779L166,693c0,0,-17,-8,-28,-10c0,0,-1,0,-3,0c-4,0,-10,1,-14,5c0,0,-6,6,-8,22c0,0,-2,15,-2,44c0,0,0,18,0,29c0,0,1,12,4,20c0,0,3,8,8,14c0,0,5,5,14,11L345,962c0,0,4,3,9,5c0,0,6,2,15,3c0,0,9,1,23,2c0,0,15,0,38,0c0,0,28,0,46,-1c0,0,17,-1,26,-4c0,0,9,-3,12,-7c0,0,3,-4,3,-11V152H675c0,0,7,0,12,-5c0,0,6,-4,10,-13c0,0,4,-9,6,-23c0,0,2,-15,2,-36c0,0,0,-21,-2,-36c0,0,-3,-14,-7,-23c0,0,-4,-9,-9,-12c0,0,-5,-4,-12,-4Z" 
id="f0_ry"
transform="scale(0.001,-0.001)" />

<path d="M337,-17c0,0,-50,0,-93,8c0,0,-43,7,-76,16c0,0,-34,11,-55,22c0,0,-22,11,-29,17c0,0,-6,6,-10,13c0,0,-3,8,-6,18c0,0,-2,10,-3,25c0,0,-1,16,-1,37c0,0,0,36,6,50c0,0,6,13,17,13c0,0,8,0,26,-10c0,0,18,-10,47,-21c0,0,28,-12,66,-22c0,0,38,-10,87,-10c0,0,41,0,72,10c0,0,31,9,53,27c0,0,22,17,33,42c0,0,11,25,11,56c0,0,0,34,-13,61c0,0,-13,26,-39,45c0,0,-26,20,-65,30c0,0,-39,10,-92,10H189c0,0,-9,0,-16,3c0,0,-7,3,-11,11c0,0,-5,8,-7,23c0,0,-1,14,-1,37c0,0,0,22,1,36c0,0,2,13,6,21c0,0,4,7,11,10c0,0,6,3,15,3h85c0,0,43,0,77,10c0,0,33,10,56,29c0,0,23,19,35,45c0,0,12,27,12,59c0,0,0,25,-8,47c0,0,-9,22,-25,38c0,0,-16,16,-41,26c0,0,-26,9,-60,9c0,0,-39,0,-73,-11c0,0,-34,-12,-62,-26c0,0,-27,-13,-46,-25c0,0,-19,-12,-28,-12c0,0,-6,0,-10,2c0,0,-5,3,-8,11c0,0,-3,7,-4,21c0,0,-2,14,-2,37c0,0,0,18,1,31c0,0,1,12,3,20c0,0,2,8,5,14c0,0,4,6,11,13c0,0,8,7,31,21c0,0,23,14,58,28c0,0,35,13,81,22c0,0,46,10,100,10c0,0,70,0,124,-17c0,0,54,-16,91,-47c0,0,37,-31,56,-76c0,0,19,-46,19,-102c0,0,0,-44,-11,-83c0,0,-12,-38,-33,-68c0,0,-22,-29,-54,-50c0,0,-33,-21,-75,-32v-2c0,0,50,-6,91,-26c0,0,40,-19,68,-49c0,0,28,-30,43,-68c0,0,15,-37,15,-81c0,0,0,-72,-28,-128c0,0,-27,-56,-77,-94C604,60,555,22,487,2c0,0,-69,-19,-150,-19Z" 
id="f0_s0"
transform="scale(0.001,-0.001)" />

<path d="M589,371L453,782h-1L317,371ZM106,-4c0,0,-35,0,-54,2C52,-2,32,0,25,8c0,0,-7,9,-5,24c0,0,2,16,11,42L329,931c0,0,4,13,10,21c0,0,6,7,19,12c0,0,13,4,36,5c0,0,23,1,61,1c0,0,44,0,71,-1c0,0,26,-1,40,-5c0,0,15,-5,21,-13c0,0,6,-8,11,-22L896,73c0,0,9,-27,11,-43c0,0,3,-15,-6,-23c0,0,-8,-7,-29,-9c0,0,-21,-2,-57,-2c0,0,-38,0,-59,1c0,0,-22,1,-33,4c0,0,-11,3,-16,9c0,0,-4,6,-7,16L635,220H272L211,31c0,0,-2,-11,-7,-18c0,0,-5,-7,-16,-11c0,0,-11,-3,-31,-4c0,0,-19,-2,-51,-2Z" 
id="f0_5"
transform="scale(0.001,-0.001)" />

<path d="M198,-4c0,0,-27,0,-45,2c0,0,-18,2,-28,5c0,0,-11,4,-15,10c0,0,-4,6,-4,13V887c0,0,0,38,20,58c0,0,20,20,53,20H308c0,0,34,0,59,-6c0,0,24,-5,42,-18c0,0,18,-13,30,-35c0,0,12,-21,21,-52L669,279h3L889,852c0,0,9,32,21,53c0,0,11,22,27,35c0,0,15,14,36,19c0,0,21,6,48,6h132c0,0,21,0,35,-5c0,0,15,-5,24,-15c0,0,9,-11,14,-25c0,0,5,-15,5,-33V26c0,0,0,-7,-4,-13c0,0,-4,-6,-15,-10c0,0,-11,-3,-29,-5c0,0,-18,-2,-45,-2c0,0,-27,0,-45,2c0,0,-18,2,-28,5c0,0,-11,4,-15,10c0,0,-5,6,-5,13V813h-1L764,27c0,0,-3,-10,-10,-16c0,0,-6,-6,-18,-10c0,0,-12,-3,-29,-4c0,0,-18,-1,-44,-1c0,0,-25,0,-43,2c0,0,-18,2,-29,5c0,0,-12,4,-19,10c0,0,-6,6,-9,14L293,813h-2V26c0,0,0,-7,-4,-13c0,0,-4,-6,-15,-10c0,0,-11,-3,-29,-5c0,0,-17,-2,-45,-2Z" 
id="f0_1x"
transform="scale(0.001,-0.001)" />

<path d="M193,-4c0,0,-26,0,-43,2c0,0,-18,2,-27,6c0,0,-10,4,-14,10c0,0,-3,6,-3,13V895c0,0,0,35,20,53c0,0,21,17,50,17H282c0,0,28,0,47,-5c0,0,20,-5,35,-16c0,0,15,-11,29,-31c0,0,13,-20,27,-49L608,511c0,0,17,-32,33,-63c0,0,16,-31,31,-62c0,0,14,-31,29,-60c0,0,14,-30,27,-60h1c0,0,-2,52,-3,109c0,0,-1,57,-1,108V936c0,0,0,7,4,13c0,0,5,6,15,11c0,0,10,4,28,6c0,0,17,2,44,2c0,0,25,0,42,-2c0,0,17,-2,27,-6c0,0,9,-5,13,-11c0,0,4,-6,4,-13V68c0,0,0,-17,-6,-30c0,0,-6,-14,-17,-23C879,15,869,6,856,2c0,0,-14,-3,-28,-3H744c0,0,-26,0,-45,4c0,0,-19,5,-35,19c0,0,-16,14,-31,38c0,0,-15,23,-34,60L359,572c0,0,-21,40,-43,86c0,0,-21,47,-38,91h-2c0,0,3,-54,5,-107c0,0,2,-53,2,-110V27c0,0,0,-7,-5,-13c0,0,-4,-6,-14,-10c0,0,-10,-4,-27,-6c0,0,-17,-2,-44,-2Z" 
id="f0_1y"
transform="scale(0.001,-0.001)" />

<path d="M378,-4c0,0,-28,0,-47,2c0,0,-19,2,-31,5c0,0,-11,4,-16,10c0,0,-4,6,-4,13V805H38c0,0,-8,0,-13,4c0,0,-5,5,-9,14c0,0,-3,9,-5,25c0,0,-2,15,-2,37c0,0,0,22,2,38c0,0,2,15,5,25c0,0,4,9,9,13c0,0,5,4,13,4H718c0,0,7,0,12,-4c0,0,6,-4,10,-13c0,0,3,-10,5,-25c0,0,2,-16,2,-38c0,0,0,-22,-2,-37c0,0,-2,-16,-5,-25c0,0,-4,-9,-10,-14c0,0,-5,-4,-12,-4H476V26c0,0,0,-7,-5,-13c0,0,-5,-6,-16,-10c0,0,-11,-3,-30,-5c0,0,-19,-2,-47,-2Z" 
id="f0_2t"
transform="scale(0.001,-0.001)" />

<path d="M514,145c0,0,72,0,121,27c0,0,48,26,78,73c0,0,30,46,42,107c0,0,13,62,13,131c0,0,0,76,-12,139c0,0,-12,62,-41,106c0,0,-29,45,-76,69c0,0,-48,24,-120,24c0,0,-72,0,-120,-27c0,0,-49,-27,-79,-73c0,0,-29,-45,-42,-106c0,0,-12,-61,-12,-129c0,0,0,-79,12,-142c0,0,12,-63,40,-108c0,0,28,-44,76,-68c0,0,48,-23,120,-23ZM508,-17c0,0,-113,0,-196,29c0,0,-84,29,-140,90c0,0,-56,60,-84,154c0,0,-28,93,-28,221c0,0,0,117,29,210c0,0,30,94,89,160c0,0,59,65,146,101c0,0,87,35,202,35c0,0,110,0,194,-29c0,0,84,-30,140,-90c0,0,56,-60,85,-153c0,0,29,-92,29,-217c0,0,0,-120,-30,-215c0,0,-30,-95,-89,-161C855,118,796,52,709,17c0,0,-87,-34,-201,-34Z" 
id="f0_24"
transform="scale(0.001,-0.001)" />

<path d="M402,179c0,0,58,0,100,45c0,0,42,45,42,107c0,0,0,65,-41,108c0,0,-41,44,-101,44c0,0,-65,0,-110,-44c0,0,-45,-45,-45,-109c0,0,0,-64,45,-107c0,0,44,-44,110,-44ZM390,-11c0,0,-150,0,-247,94c0,0,-97,96,-97,243c0,0,0,106,48,217c0,0,49,111,108,194L356,952H605L372,631c0,0,48,9,88,9c0,0,123,0,212,-91c0,0,89,-92,89,-219c0,0,0,-148,-105,-245c0,0,-105,-96,-266,-96Z" 
id="f1_q"
transform="scale(0.001,-0.001)" />

<path d="M44,-281L425,1053H537L156,-281Z" 
id="f1_j"
transform="scale(0.001,-0.001)" />

<path d="M299,0V777H162l36,173H508V0Z" 
id="f1_l"
transform="scale(0.001,-0.001)" />

<path d="M186,-28L17,77L450,779H39V952H793L186,-28Z" 
id="f1_r"
transform="scale(0.001,-0.001)" />

<path d="M377,45c0,0,99,0,145,108c0,0,46,109,46,352c0,0,0,240,-45,345c0,0,-46,106,-146,106c0,0,-97,0,-139,-100c0,0,-43,-99,-43,-351c0,0,0,-254,44,-357c0,0,43,-103,138,-103Zm0,-59c0,0,-158,0,-238,132c0,0,-81,133,-81,386c0,0,0,249,81,380c0,0,80,132,244,132c0,0,159,0,241,-130c0,0,82,-130,82,-382c0,0,0,-518,-329,-518Z" 
id="f2_k"
transform="scale(0.001,-0.001)" />

<path d="M681,416L504,902L333,416ZM669,0V40L803,60L704,348H310L210,60L344,40V0H15V40L128,60l341,949H611L965,60L1092,40V0Z" 
id="f2_11"
transform="scale(0.001,-0.001)" />

<path d="M350,-14c0,0,-142,0,-269,31L73,228h49L156,87c0,0,29,-16,82,-28c0,0,54,-12,100,-12c0,0,117,0,173,54c0,0,56,53,56,178c0,0,0,99,-52,150c0,0,-51,51,-159,56l-107,6v61l107,7c0,0,84,5,124,52c0,0,41,48,41,145c0,0,0,101,-44,147c0,0,-44,45,-139,45c0,0,-40,0,-83,-10c0,0,-43,-11,-76,-29L153,786H104V979c0,0,74,19,127,26c0,0,54,6,107,6c0,0,321,0,321,-246c0,0,0,-104,-57,-165c0,0,-57,-62,-162,-77c0,0,136,-16,200,-78c0,0,64,-62,64,-173c0,0,0,-135,-92,-211c0,0,-93,-75,-262,-75Z" 
id="f2_n"
transform="scale(0.001,-0.001)" />

<path d="M843,0L451,506L316,398V60L460,40V0H44V40L172,60V941L44,960v40H445V960L316,941V470L795,941l-99,19v40h313V960L894,941L552,607L979,60L1088,40V0Z" 
id="f2_1b"
transform="scale(0.001,-0.001)" />

<path d="M399,-14c0,0,-341,0,-341,370c0,0,0,175,87,269c0,0,87,95,249,95c0,0,101,0,220,-23V501H573L541,625c0,0,-62,35,-149,35c0,0,-200,0,-200,-304c0,0,0,-158,61,-225c0,0,61,-67,189,-67c0,0,109,0,189,24V43C631,43,595,16,530,1c0,0,-64,-15,-131,-15Z" 
id="f2_1z"
transform="scale(0.001,-0.001)" />

<path d="M67,0V109L206,235c0,0,133,118,196,190c0,0,63,72,90,149c0,0,27,77,27,177c0,0,0,97,-44,148c0,0,-44,50,-144,50c0,0,-39,0,-81,-10c0,0,-42,-11,-74,-29L150,787H101V980c0,0,135,32,230,32c0,0,164,0,247,-68c0,0,82,-69,82,-193c0,0,0,-84,-32,-158c0,0,-33,-75,-100,-148c0,0,-67,-74,-222,-206c0,0,-67,-57,-141,-125H680V0Z" 
id="f2_m"
transform="scale(0.001,-0.001)" />

<path d="M383,64c0,0,85,0,152,28V645c0,0,-67,13,-152,13c0,0,-194,0,-194,-314c0,0,0,-141,48,-211c0,0,48,-69,146,-69ZM342,-14c0,0,-287,0,-287,358c0,0,0,184,82,280c0,0,81,96,239,96c0,0,81,0,163,-18c0,0,-4,25,-4,124v182l-118,18v34H659V52L745,33V0H548l-9,52c0,0,-84,-66,-197,-66Z" 
id="f2_20"
transform="scale(0.001,-0.001)" />

<path d="M0,-14L351,1007h73L75,-14Z" 
id="f2_j"
transform="scale(0.001,-0.001)" />

<path d="M460,-325c0,0,-148,79,-231,172c0,0,-84,93,-123,217c0,0,-39,126,-39,304c0,0,0,178,39,303c0,0,39,125,122,217c0,0,82,93,232,172V997c0,0,-91,-52,-145,-134c0,0,-54,-81,-79,-190c0,0,-25,-109,-25,-305c0,0,0,-194,26,-309c0,0,26,-114,82,-193c0,0,56,-79,141,-128v-63Z" 
id="f2_c"
transform="scale(0.001,-0.001)" />

<path d="M392,152V469H76v77H392V863h77V546H787V469H469V152Z" 
id="f2_f"
transform="scale(0.001,-0.001)" />

<path d="M49,-325v63c0,0,85,49,140,128c0,0,56,79,83,194c0,0,26,115,26,308c0,0,0,196,-25,305c0,0,-25,109,-79,190c0,0,-54,82,-145,134v63c0,0,149,-80,232,-172c0,0,83,-92,122,-217c0,0,39,-125,39,-303c0,0,0,-177,-39,-303c0,0,-39,-125,-122,-217c0,0,-83,-93,-232,-173Z" 
id="f2_d"
transform="scale(0.001,-0.001)" />

<path d="M134,0V40L339,60V876L137,804v39l292,166h39V60L672,40V0Z" 
id="f2_l"
transform="scale(0.001,-0.001)" />

<path d="M398,0C398,0,266,0,185,39c0,0,-82,39,-133,124C52,163,0,248,0,342c0,0,0,144,103,243c0,0,103,98,292,98H694V611H387c0,0,-99,0,-166,-32c0,0,-68,-32,-105,-88c0,0,-26,-40,-41,-113H694V304H75c0,0,30,-120,103,-176c0,0,73,-56,210,-56H694V0Z" 
id="f3_40"
transform="scale(0.001,-0.001)" />

<path d="M0,214v74H784V214ZM0,494v72H784V494Z" 
id="f3_x"
transform="scale(0.001,-0.001)" />

<path d="M355,0V355H0v72H355V784h72V427H782V355H427V0Z" 
id="f3_f"
transform="scale(0.001,-0.001)" />

<path d="M410,45c0,0,90,0,130,58c0,0,40,59,40,193c0,0,0,122,-38,177c0,0,-38,54,-122,54c0,0,-102,0,-217,-37c0,0,0,-227,51,-336c0,0,52,-109,156,-109Zm3,-59c0,0,-169,0,-258,131c0,0,-89,131,-89,377c0,0,0,161,47,278c0,0,47,117,131,178c0,0,85,61,196,61c0,0,109,0,217,-26V813H608L582,915c0,0,-25,13,-67,23c0,0,-41,10,-75,10c0,0,-109,0,-170,-105c0,0,-60,-106,-66,-308c0,0,121,63,244,63c0,0,132,0,201,-74c0,0,69,-74,69,-214c0,0,0,-156,-78,-240c0,0,-79,-84,-227,-84Z" 
id="f2_q"
transform="scale(0.001,-0.001)" />

<path d="M191,-20c0,0,-39,0,-65,25c0,0,-25,27,-25,64c0,0,0,38,26,64c0,0,26,26,64,26c0,0,38,0,64,-26c0,0,26,-26,26,-64c0,0,0,-37,-25,-64c0,0,-26,-25,-65,-25Z" 
id="f2_i"
transform="scale(0.001,-0.001)" />

<path d="M284,67c0,0,51,0,88,12c0,0,37,12,74,30V358l-98,-3c0,0,-100,-4,-135,-39c0,0,-35,-35,-35,-117c0,0,0,-132,106,-132ZM233,-14c0,0,-179,0,-179,208c0,0,0,70,27,116c0,0,27,46,87,70c0,0,60,24,173,27l105,3V519c0,0,0,72,-26,107c0,0,-27,34,-82,34c0,0,-75,0,-137,-35L176,538H134V691c0,0,121,26,213,26c0,0,115,0,169,-47c0,0,54,-47,54,-144V52L657,33V0H465L451,70c0,0,-85,-84,-218,-84Z" 
id="f2_1x"
transform="scale(0.001,-0.001)" />

<path d="M382,45c0,0,188,0,188,314c0,0,0,143,-47,213c0,0,-46,69,-141,69c0,0,-87,0,-146,-24V58c0,0,67,-13,146,-13ZM25,-325v35l88,18V649L34,668v33H231l1,-41c0,0,31,27,84,43c0,0,53,17,107,17c0,0,134,0,208,-94c0,0,73,-93,73,-267c0,0,0,-178,-80,-276c0,0,-80,-97,-232,-97c0,0,-84,0,-160,16c0,0,4,-53,4,-84V-272l123,-18v-35Z" 
id="f2_2c"
transform="scale(0.001,-0.001)" />

<path d="M32,0V33L151,52V649L52,668v33H275V52L395,33V0ZM201,850c0,0,-32,0,-56,24c0,0,-24,24,-24,56c0,0,0,34,24,58c0,0,24,24,56,24c0,0,34,0,58,-24c0,0,24,-24,24,-58c0,0,0,-32,-24,-56c0,0,-24,-24,-58,-24Z" 
id="f2_25"
transform="scale(0.001,-0.001)" />

<path d="M249,-14c0,0,-71,0,-107,42c0,0,-35,42,-35,119V639H15v33l93,29l76,159h47V701H391V639H231V161c0,0,0,-48,22,-73c0,0,22,-24,57,-24c0,0,44,0,106,12V26C416,26,389,8,340,-2c0,0,-49,-12,-91,-12Z" 
id="f2_2g"
transform="scale(0.001,-0.001)" />

<path d="M377,45c0,0,99,0,147,73c0,0,47,73,47,237c0,0,0,161,-47,233c0,0,-47,72,-147,72c0,0,-97,0,-141,-69c0,0,-44,-69,-44,-236c0,0,0,-169,45,-240c0,0,44,-70,140,-70Zm0,-59c0,0,-158,0,-238,94c0,0,-81,95,-81,274c0,0,0,178,81,272c0,0,80,94,244,94c0,0,160,0,241,-92c0,0,82,-92,82,-274c0,0,0,-368,-329,-368Z" 
id="f2_2b"
transform="scale(0.001,-0.001)" />

<path d="M31,0V33l88,19V649L31,668v33H235l7,-87c0,0,44,37,121,71c0,0,76,35,121,35h11V530H463l-43,82c0,0,-37,0,-88,-10c0,0,-52,-10,-89,-26V52L363,33V0Z" 
id="f2_2e"
transform="scale(0.001,-0.001)" />

<path d="M58,-234v58c0,0,131,42,131,125c0,0,0,15,-11,27c0,0,-11,12,-38,25C140,1,89,27,89,75c0,0,0,40,25,61c0,0,26,21,65,21c0,0,48,0,77,-34c0,0,30,-34,30,-86c0,0,0,-101,-60,-170c0,0,-59,-69,-168,-101Z" 
id="f2_g"
transform="scale(0.001,-0.001)" />

<path d="M431,0V33L535,52V499c0,0,0,62,-32,96c0,0,-32,33,-95,33c0,0,-66,0,-163,-22V52L350,33V0H32V33l89,19V649L32,668v33H237l6,-57c0,0,56,32,119,54c0,0,62,22,110,22c0,0,52,0,95,-20c0,0,44,-19,66,-62c0,0,57,32,134,57c0,0,77,25,128,25c0,0,179,0,179,-207V52l90,-19V0H846V33L950,52V499c0,0,0,129,-119,129c0,0,-19,0,-45,-3c0,0,-26,-3,-52,-7c0,0,-25,-4,-49,-8c0,0,-23,-5,-39,-8c0,0,13,-41,13,-89V52L764,33V0Z" 
id="f2_29"
transform="scale(0.001,-0.001)" />

<path d="M495,413c0,0,0,133,-34,190c0,0,-34,57,-105,57c0,0,-78,0,-119,-63c0,0,-42,-62,-42,-184ZM374,-14c0,0,-163,0,-239,87c0,0,-75,88,-75,283c0,0,0,183,77,273c0,0,76,91,219,91c0,0,269,0,269,-306V353H194V340c0,0,0,-103,23,-160c0,0,22,-57,70,-87c0,0,47,-29,124,-29c0,0,40,0,96,6c0,0,55,7,91,15V43C598,43,562,20,500,3c0,0,-61,-17,-126,-17Z" 
id="f2_21"
transform="scale(0.001,-0.001)" />

<path d="M64,0V34L168,59V639H47v36l121,29v49c0,0,0,155,61,239c0,0,62,84,173,84c0,0,58,0,107,-15V908H472l-33,92c0,0,-26,16,-62,16c0,0,-47,0,-66,-42c0,0,-19,-42,-19,-157V701H478V639H292V59L443,34V0Z" 
id="f2_22"
transform="scale(0.001,-0.001)" />

<path d="M327,-14L84,649L1,668v33H335V668L219,648L385,174L554,632h63L786,171L944,649L830,668v33h267V668l-78,-16L784,-14H726L553,448L382,-14Z" 
id="f2_2j"
transform="scale(0.001,-0.001)" />

<path d="M31,0V33L150,52v956L31,1026v34H274V52L394,33V0Z" 
id="f2_28"
transform="scale(0.001,-0.001)" />

<path d="M278,-14c0,0,-52,0,-115,11c0,0,-63,10,-99,23V193H98L134,95c0,0,56,-50,146,-50c0,0,144,0,144,123c0,0,0,91,-114,130l-66,21c0,0,-75,25,-110,50c0,0,-34,26,-53,63c0,0,-18,36,-18,89c0,0,0,92,63,145c0,0,63,54,170,54c0,0,77,0,193,-23V544H454l-32,81c0,0,-39,35,-124,35c0,0,-61,0,-92,-30c0,0,-32,-30,-32,-80c0,0,0,-43,29,-72c0,0,28,-29,86,-48c0,0,110,-38,144,-55c0,0,33,-17,57,-42c0,0,23,-25,36,-57c0,0,13,-32,13,-79c0,0,0,-104,-66,-158c0,0,-66,-53,-195,-53Z" 
id="f2_2f"
transform="scale(0.001,-0.001)" />

<path d="M442,0V33l93,19V504c0,0,0,129,-124,129c0,0,-70,0,-168,-22V52L338,33V0H31V33l88,19v956L15,1026v34H243V756c0,0,0,-77,-5,-112c0,0,54,31,122,53c0,0,68,23,115,23c0,0,91,0,137,-53c0,0,47,-53,47,-154V52L744,33V0Z" 
id="f2_24"
transform="scale(0.001,-0.001)" />

<path d="M439,0V33l93,19V500c0,0,0,62,-30,97c0,0,-31,36,-94,36c0,0,-67,0,-165,-22V52L338,33V0H35V33l84,19V649L35,668v33H235l7,-57c0,0,57,33,122,54c0,0,65,22,108,22c0,0,91,0,137,-53c0,0,47,-53,47,-154V52L741,33V0Z" 
id="f2_2a"
transform="scale(0.001,-0.001)" />

<path d="M376,50c0,0,103,0,149,80c0,0,46,81,46,240c0,0,0,137,-47,204c0,0,-48,67,-148,67c0,0,-44,0,-87,-7c0,0,-44,-8,-63,-17V62c0,0,63,-12,150,-12Zm3,-64c0,0,-64,0,-141,14c0,0,-78,14,-136,37v971L0,1026v34H226V809c0,0,0,-40,-4,-148c0,0,74,59,188,59c0,0,143,0,219,-87c0,0,77,-87,77,-263c0,0,0,-189,-84,-287c0,0,-84,-97,-243,-97Z" 
id="f2_1y"
transform="scale(0.001,-0.001)" />

<path d="M359,-270c0,0,124,0,192,46c0,0,67,47,67,129c0,0,0,43,-26,67c0,0,-26,24,-79,24H242c0,0,-32,-27,-51,-69c0,0,-20,-41,-20,-77c0,0,0,-64,46,-92c0,0,46,-28,142,-28Zm11,561c0,0,81,0,115,47c0,0,34,47,34,141c0,0,0,100,-35,142c0,0,-35,42,-113,42c0,0,-78,0,-114,-43c0,0,-37,-42,-37,-141c0,0,0,-98,36,-143c0,0,36,-45,114,-45ZM359,-329c0,0,-143,0,-218,44c0,0,-75,43,-75,125c0,0,0,39,27,78c0,0,26,38,98,89c0,0,-43,14,-72,48c0,0,-29,35,-29,74L208,262c0,0,-118,55,-118,217c0,0,0,115,73,178c0,0,73,63,211,63c0,0,28,0,71,-6c0,0,44,-6,67,-13l165,83l26,-32L599,644c0,0,50,-56,50,-165c0,0,0,-120,-72,-182c0,0,-73,-62,-208,-62c0,0,-62,0,-114,11L208,148c0,0,2,-13,29,-24c0,0,27,-12,67,-12H512c0,0,113,0,168,-49c0,0,55,-49,55,-134c0,0,0,-79,-44,-137c0,0,-43,-58,-128,-90c0,0,-84,-31,-204,-31Z" 
id="f2_23"
transform="scale(0.001,-0.001)" />

<path d="M148,-329c0,0,-58,0,-114,13v151H69l24,-71c0,0,23,-17,64,-17c0,0,39,0,72,22c0,0,33,23,60,67c0,0,27,44,68,157L90,649L19,668v33H344V668L233,648L423,158L606,649L497,668v33H758V668L685,652L411,-43c0,0,-48,-124,-84,-177c0,0,-36,-54,-79,-82c0,0,-44,-27,-100,-27Z" 
id="f2_2l"
transform="scale(0.001,-0.001)" />

<path d="M13,0V34L95,46L325,350L122,649L40,668v33H357V668L264,648L399,446L554,649l-96,19v33H710V668L630,652L433,397L663,50L745,34V0H427V34l94,17L359,299L169,50L266,34V0Z" 
id="f2_2k"
transform="scale(0.001,-0.001)" />

<path d="M289,-14c0,0,-179,0,-179,205V649L20,668v33H233V200c0,0,0,-128,120,-128c0,0,92,0,173,23V649L420,668v33H649V52L738,33V0H533l-6,57C527,57,474,28,405,7c0,0,-69,-21,-116,-21Z" 
id="f2_2h"
transform="scale(0.001,-0.001)" />

<path d="M410,-14c0,0,-80,0,-162,14c0,0,-81,14,-144,38V270h48L178,134c0,0,28,-35,95,-62c0,0,68,-27,134,-27c0,0,104,0,163,53c0,0,58,54,58,148c0,0,0,54,-23,89c0,0,-22,35,-59,59c0,0,-37,24,-84,41c0,0,-47,17,-97,34c0,0,-49,17,-96,38c0,0,-47,21,-84,53c0,0,-37,32,-60,79c0,0,-23,48,-23,117c0,0,0,119,90,187c0,0,89,68,248,68c0,0,121,0,263,-32V771H654L628,893c0,0,-76,55,-188,55c0,0,-100,0,-156,-40c0,0,-56,-41,-56,-112c0,0,0,-49,22,-81c0,0,23,-32,60,-55c0,0,37,-22,84,-39c0,0,48,-16,97,-34c0,0,50,-17,97,-39c0,0,48,-22,85,-56c0,0,36,-34,59,-83c0,0,23,-49,23,-120c0,0,0,-145,-89,-224c0,0,-89,-79,-256,-79Z" 
id="f2_1j"
transform="scale(0.001,-0.001)" />

<path d="M410,-14c0,0,-86,0,-175,14C235,0,145,14,81,38V307h66L181,146c0,0,31,-37,94,-62c0,0,64,-24,132,-24c0,0,214,0,214,177c0,0,0,55,-41,93c0,0,-41,38,-128,68c0,0,-128,42,-185,68c0,0,-56,27,-95,63c0,0,-38,36,-62,87c0,0,-23,51,-23,125c0,0,0,132,90,201c0,0,90,69,263,69c0,0,125,0,278,-32V741H651L618,878c0,0,-76,56,-178,56c0,0,-92,0,-141,-34c0,0,-49,-34,-49,-104c0,0,0,-50,41,-86c0,0,41,-35,128,-63c0,0,171,-56,235,-97c0,0,64,-41,97,-103c0,0,34,-61,34,-143c0,0,0,-318,-375,-318Z" 
id="f4_1j"
transform="scale(0.001,-0.001)" />

<path d="M379,60c0,0,59,0,84,64c0,0,24,65,24,231c0,0,0,164,-24,227c0,0,-24,63,-84,63c0,0,-57,0,-80,-60c0,0,-22,-61,-22,-230c0,0,0,-173,23,-234c0,0,22,-61,79,-61Zm-2,-74c0,0,-161,0,-240,91c0,0,-79,91,-79,277c0,0,0,186,80,276c0,0,81,90,245,90c0,0,167,0,245,-93c0,0,78,-93,78,-273c0,0,0,-188,-81,-278c0,0,-81,-90,-248,-90Z" 
id="f4_2b"
transform="scale(0.001,-0.001)" />

<path d="M30,0V49l76,18V992l-72,18v50H322V67L398,49V0Z" 
id="f4_28"
transform="scale(0.001,-0.001)" />

<path d="M287,-18c0,0,-194,0,-194,206V634L23,652v49H309V217c0,0,0,-63,26,-98c0,0,27,-35,76,-35c0,0,57,0,113,25V634l-64,18v49H740V67L809,49V0H536L526,61L475,35c0,0,-104,-53,-188,-53Z" 
id="f4_2h"
transform="scale(0.001,-0.001)" />

<path d="M327,-14c0,0,-101,0,-156,45c0,0,-55,45,-55,131V624H25v48l108,29l87,159H332V701H480V624H332V176c0,0,0,-49,20,-73c0,0,20,-25,53,-25c0,0,40,0,97,12V26c0,0,-22,-15,-76,-27c0,0,-55,-13,-99,-13Z" 
id="f4_2g"
transform="scale(0.001,-0.001)" />

<path d="M34,0V49l76,18V634L38,652v49H325V67L402,49V0ZM217,831c0,0,-48,0,-81,33c0,0,-34,33,-34,82c0,0,0,48,34,81c0,0,34,33,81,33c0,0,48,0,81,-33c0,0,33,-33,33,-81c0,0,0,-47,-33,-81c0,0,-32,-34,-81,-34Z" 
id="f4_25"
transform="scale(0.001,-0.001)" />

<path d="M41,0V49l69,18V634L41,652v49H313l11,-61l50,26c0,0,105,54,188,54c0,0,194,0,194,-207V67L827,49V0H478V49l63,18V484c0,0,0,63,-27,98c0,0,-26,35,-75,35c0,0,-57,0,-114,-25V67L389,49V0Z" 
id="f4_2a"
transform="scale(0.001,-0.001)" />

<path d="M248,-20c0,0,-52,0,-87,34c0,0,-36,36,-36,88c0,0,0,52,36,88c0,0,35,36,87,36c0,0,52,0,88,-36c0,0,36,-36,36,-88c0,0,0,-51,-36,-87c0,0,-35,-35,-88,-35Zm0,488c0,0,-52,0,-87,36c0,0,-36,36,-36,88c0,0,0,52,35,88c0,0,35,36,88,36c0,0,53,0,89,-36c0,0,35,-37,35,-88c0,0,0,-51,-36,-87c0,0,-35,-37,-88,-37Z" 
id="f4_u"
transform="scale(0.001,-0.001)" />

<path d="M529,65c0,0,183,0,270,108c0,0,87,108,87,334c0,0,0,210,-113,318c0,0,-113,108,-322,108H316V71c0,0,90,-6,213,-6Zm0,-67L172,0H44V40L172,60V941L44,960v40H498c0,0,277,0,411,-123c0,0,133,-124,133,-371c0,0,0,-251,-129,-380C913,126,785,-2,529,-2Z" 
id="f2_14"
transform="scale(0.001,-0.001)" />

<path d="M44,0V40L172,60V941L44,960v40H794V760H745L721,922c0,0,-83,11,-241,11H316V543H586l23,119h48V354H609L586,475H316V67H513c0,0,193,0,252,12l43,185h49L843,0Z" 
id="f2_15"
transform="scale(0.001,-0.001)" />

<path d="M536,-22L130,941L17,960v40H421V960L287,941L590,205L892,941L761,960v40h325V960L976,941L574,-22Z" 
id="f2_1m"
transform="scale(0.001,-0.001)" />

<path d="M304,24V657c0,0,-49,-12,-76,-33c0,0,-42,-33,-68,-96c0,0,-26,-62,-26,-168c0,0,0,-118,30,-192c0,0,31,-75,76,-113c0,0,21,-19,64,-31Zm83,0c0,0,46,10,71,30c0,0,46,35,71,98c0,0,25,64,25,177c0,0,0,103,-23,175c0,0,-23,72,-64,110c0,0,-26,26,-80,43V24ZM304,-328V-20c0,0,-113,12,-182,70C122,50,0,154,0,339c0,0,0,73,19,131c0,0,18,58,50,102c0,0,32,44,70,72c0,0,37,28,80,42c0,0,31,10,85,17v358h83V703c0,0,149,-16,226,-117c0,0,78,-101,78,-241c0,0,0,-64,-18,-124c0,0,-19,-60,-49,-105c0,0,-30,-45,-68,-74c0,0,-37,-30,-82,-44c0,0,-31,-11,-87,-18V-328Z" 
id="f3_22"
transform="scale(0.001,-0.001)" />

<path d="M577,-14c0,0,-243,0,-379,132C198,118,63,250,63,488c0,0,0,258,130,391c0,0,131,132,387,132c0,0,156,0,335,-38l5,-218H871L848,884c0,0,-52,32,-121,50c0,0,-69,17,-141,17c0,0,-191,0,-279,-112c0,0,-88,-113,-88,-349c0,0,0,-217,92,-332c0,0,92,-115,268,-115c0,0,85,0,160,20c0,0,76,21,120,55l27,149h49L930,32c0,0,-164,-46,-353,-46Z" 
id="f2_13"
transform="scale(0.001,-0.001)" />

<path d="M383,64c0,0,44,0,87,7c0,0,43,7,65,17V645c0,0,-67,13,-152,13c0,0,-194,0,-194,-309c0,0,0,-143,48,-214c0,0,47,-71,146,-71Zm56,-389v35l96,18V-77c0,0,0,73,7,124c0,0,-79,-61,-200,-61c0,0,-287,0,-287,362c0,0,0,180,81,276c0,0,81,96,237,96c0,0,84,0,166,-18l67,33h53V-272l77,-18v-35Z" 
id="f2_2d"
transform="scale(0.001,-0.001)" />

<path d="M83,0C83,0,48,0,24,24C24,24,0,49,0,83c0,0,0,34,24,58c0,0,24,24,59,24c0,0,34,0,58,-24c0,0,24,-24,24,-58c0,0,0,-34,-24,-59C141,24,117,0,83,0ZM695,0c0,0,-34,0,-58,24c0,0,-25,25,-25,59c0,0,0,34,25,58c0,0,24,24,58,24c0,0,34,0,58,-24c0,0,24,-24,24,-58c0,0,0,-34,-24,-59C753,24,729,0,695,0ZM388,594c0,0,-34,0,-59,23c0,0,-24,24,-24,59c0,0,0,34,24,58c0,0,25,25,59,25c0,0,34,0,58,-25c0,0,24,-24,24,-58c0,0,0,-35,-24,-59c0,0,-24,-23,-58,-23Z" 
id="f3_1s"
transform="scale(0.001,-0.001)" />

<path d="M178,0L615,886H176L150,764H101v236H720V943L274,0Z" 
id="f2_r"
transform="scale(0.001,-0.001)" />

<path d="M536,63c0,0,127,0,191,54c0,0,63,54,63,168c0,0,0,105,-70,154c0,0,-70,49,-225,49H316V67c0,0,103,-4,220,-4ZM480,555c0,0,121,0,178,48c0,0,57,48,57,155c0,0,0,91,-58,133c0,0,-57,42,-186,42H316V555ZM554,-4L235,0H44V40L172,60V941L44,960v40H501c0,0,191,0,279,-56c0,0,88,-56,88,-179c0,0,0,-88,-55,-149c0,0,-54,-62,-151,-83c0,0,135,-14,209,-79c0,0,73,-65,73,-166c0,0,0,-144,-99,-219C845,69,745,-4,554,-4Z" 
id="f2_12"
transform="scale(0.001,-0.001)" />

<path d="M476,327V830h-4L114,327ZM476,0V220H30v99l488,686h86V327H740V220H604V0Z" 
id="f2_o"
transform="scale(0.001,-0.001)" />

<path d="M360,-14L72,649L0,668v33H327V668L216,648L420,164L615,649L504,668v33H764V668L697,652L416,-14Z" 
id="f2_2i"
transform="scale(0.001,-0.001)" />

<path d="M54,0V40L172,60V941L44,960v40H794V760H745L721,922c0,0,-83,11,-241,11H316V516H611l23,120h46V328H634L611,449H316V60L483,40V0Z" 
id="f2_16"
transform="scale(0.001,-0.001)" />

<path d="M577,-14c0,0,-243,0,-379,131C198,117,63,248,63,488c0,0,0,263,131,393c0,0,132,130,386,130c0,0,182,0,352,-45V751H882L862,875c0,0,-52,37,-124,57c0,0,-72,19,-152,19c0,0,-191,0,-279,-113c0,0,-88,-114,-88,-348c0,0,0,-220,91,-333c0,0,91,-114,269,-114c0,0,63,0,131,15c0,0,69,15,105,36V377L686,397v40h370V397L958,377V52C958,52,871,24,778,5c0,0,-93,-19,-201,-19Z" 
id="f2_17"
transform="scale(0.001,-0.001)" />

<path d="M113,-203V1060H454v-35L232,994V-138l222,-30v-35Z" 
id="f2_1r"
transform="scale(0.001,-0.001)" />

<path d="M235,0V40L394,60V936H356c0,0,-189,0,-258,-15L78,766H28v234H908V766H857L837,921c0,0,-22,5,-98,9c0,0,-75,4,-165,4H538V60L697,40V0Z" 
id="f2_1k"
transform="scale(0.001,-0.001)" />

<path d="M477,0V33l64,19L348,354L257,254V52L331,33V0H44V33l89,19v956L29,1026v34H257V338L544,647l-73,20v34H718V667L631,650L431,446L688,50L764,33V0Z" 
id="f2_27"
transform="scale(0.001,-0.001)" />

<path d="M76,316v76H787V316Zm0,306v76H787V622Z" 
id="f2_x"
transform="scale(0.001,-0.001)" />

<path d="M-12,338v55H777V338Z" 
id="f5_4y"
transform="scale(0.001,-0.001)" />

<path d="M55,-203v35l222,30V994L55,1025v35H395V-203Z" 
id="f2_1t"
transform="scale(0.001,-0.001)" />

<path d="M68,-328c0,0,-27,0,-44,20c0,0,-23,29,-23,71c0,0,0,21,9,52c0,0,20,71,25,123c0,0,9,88,9,151V683H168V253c0,0,0,-76,13,-109c0,0,13,-34,46,-53c0,0,33,-20,65,-20c0,0,39,0,92,23c0,0,53,24,108,75V683H616V234c0,0,0,-89,8,-125c0,0,7,-26,21,-37c0,0,13,-11,28,-11c0,0,19,0,35,18c0,0,16,19,24,75h30C762,154,749,54,713,16c0,0,-37,-37,-93,-37c0,0,-55,0,-88,32c0,0,-33,34,-40,116C492,127,416,43,348,10c0,0,-68,-32,-118,-32c0,0,-34,0,-66,13c0,0,-32,12,-62,37c0,0,-2,-107,19,-188c0,0,14,-57,14,-80c0,0,0,-41,-20,-65c0,0,-21,-23,-47,-23Z" 
id="f3_29"
transform="scale(0.001,-0.001)" />

<path d="M62,-123V268c0,0,0,230,56,452c0,0,47,190,134,334c0,0,87,144,204,242c0,0,85,73,194,119l18,-16c0,0,-211,-145,-335,-339c0,0,-98,-156,-149,-374c0,0,-50,-218,-50,-403V-123Z" 
id="f3_4o"
transform="scale(0.001,-0.001)" />

<path d="M617,-123V283c0,0,0,236,-63,459c0,0,-63,223,-188,392c0,0,-108,146,-282,265l17,16c0,0,180,-76,320,-248c0,0,139,-172,204,-417c0,0,64,-245,64,-482V-123Z" 
id="f3_54"
transform="scale(0.001,-0.001)" />

<path d="M62,-123V1415h72V-123Z" 
id="f3_4p"
transform="scale(0.001,-0.001)" />

<path d="M617,-123V1415h72V-123Z" 
id="f3_55"
transform="scale(0.001,-0.001)" />

<path d="M140,-21c0,0,-26,0,-44,17C96,-4,79,13,79,40c0,0,0,19,6,33c0,0,8,20,34,55c0,0,46,60,64,126c0,0,32,114,41,321H190c0,0,-55,0,-81,-18c0,0,-44,-26,-80,-89H0c0,0,42,129,98,178c0,0,43,37,120,37H743V575H562c0,0,-27,-171,-27,-327c0,0,0,-77,27,-110c0,0,27,-33,67,-33c0,0,33,0,56,22c0,0,24,22,31,65h27C743,192,730,74,686,26c0,0,-44,-47,-98,-47c0,0,-58,0,-97,51c0,0,-39,53,-39,198c0,0,0,91,28,347H286c0,0,-23,-390,-56,-494c0,0,-33,-102,-90,-102Z" 
id="f3_2c"
transform="scale(0.001,-0.001)" />

<path d="M650,-123c0,0,-180,75,-319,246c0,0,-140,172,-205,418c0,0,-64,245,-64,481v393h72V1007c0,0,0,-236,63,-459c0,0,63,-223,189,-391c0,0,108,-145,282,-265l-18,-15Z" 
id="f3_4q"
transform="scale(0.001,-0.001)" />

<path d="M101,-123l-17,15c0,0,210,144,334,339c0,0,99,156,149,373c0,0,50,218,50,403v408h72V1022c0,0,0,-230,-56,-451c0,0,-48,-191,-134,-335C499,236,412,92,295,-5c0,0,-84,-73,-194,-118Z" 
id="f3_56"
transform="scale(0.001,-0.001)" />

<path d="M377,45c0,0,100,0,147,52c0,0,47,52,47,174c0,0,0,119,-46,173c0,0,-47,54,-148,54c0,0,-98,0,-141,-51c0,0,-44,-51,-44,-176c0,0,0,-126,44,-176c0,0,44,-50,141,-50Zm2,518c0,0,84,0,123,46c0,0,39,46,39,148c0,0,0,102,-40,151c0,0,-41,48,-122,48c0,0,-79,0,-118,-47c0,0,-38,-47,-38,-152c0,0,0,-104,37,-149c0,0,38,-45,119,-45ZM377,-14c0,0,-319,0,-319,285c0,0,0,99,48,164c0,0,48,66,129,96c0,0,-65,30,-106,87c0,0,-40,56,-40,139c0,0,0,123,75,191c0,0,76,68,219,68c0,0,139,0,216,-67c0,0,76,-68,76,-192c0,0,0,-82,-40,-139c0,0,-40,-57,-108,-87c0,0,85,-31,132,-98c0,0,47,-67,47,-162c0,0,0,-142,-80,-214c0,0,-80,-71,-249,-71Z" 
id="f2_s"
transform="scale(0.001,-0.001)" />

<path d="M0,356v74H784V356Z" 
id="f3_h"
transform="scale(0.001,-0.001)" />

<path d="M52,62L0,114L278,390L0,667l52,52L330,442L608,719l51,-51L382,390L659,114L608,62L330,338L52,62Z" 
id="f3_3a"
transform="scale(0.001,-0.001)" />


</defs>
</svg>