<?xml version="1.0" encoding="UTF-8" standalone="no"?>
<!DOCTYPE svg PUBLIC "-//W3C//DTD SVG 1.1//EN"
"http://www.w3.org/Graphics/SVG/1.1/DTD/svg11.dtd">
<svg viewBox="0 0 909 1286" version="1.1" xmlns="http://www.w3.org/2000/svg" xmlns:xlink="http://www.w3.org/1999/xlink">
<defs>
<clipPath id="c0_126"><path d="M55,306.7V277.2h52v29.5Z" /></clipPath>
<clipPath id="c1_126"><path d="M55,340V306.6H288.1V340Z" /></clipPath>
<clipPath id="c2_126"><path d="M55,671.8V638.4H395.4v33.4Z" /></clipPath>
<clipPath id="c3_126"><path d="M55,695.8v-24h48.2v24Z" /></clipPath>
<clipPath id="c4_126"><path d="M55,1126.9v-32.1h96.8v32.1Z" /></clipPath>
<clipPath id="c5_126"><path d="M55,1157.8v-32.2h98.1v32.2Z" /></clipPath>
<clipPath id="c6_126"><path d="M55,1191.1v-33.4H288.1v33.4Z" /></clipPath>
<style type="text/css"><![CDATA[
.g0_126{
fill: #D9D9D9;
}
.g1_126{
fill: none;
stroke: #000000;
stroke-width: 0.7638889;
stroke-linecap: butt;
stroke-linejoin: miter;
}
.g2_126{
fill: none;
stroke: #000000;
stroke-width: 0.88905454;
stroke-linecap: butt;
stroke-linejoin: round;
}
.g3_126{
fill: none;
stroke: #000000;
stroke-width: 0.9124877;
stroke-linecap: butt;
stroke-linejoin: round;
}
.g4_126{
fill: none;
stroke: #000000;
stroke-width: 0.910318;
stroke-linecap: butt;
stroke-linejoin: round;
}
.g5_126{
fill: none;
stroke: #000000;
stroke-width: 0.9058908;
stroke-linecap: butt;
stroke-linejoin: round;
}
.g6_126{
fill: none;
stroke: #000000;
stroke-width: 0.90388805;
stroke-linecap: butt;
stroke-linejoin: round;
}
.g7_126{
}
]]></style>
</defs>
<image preserveAspectRatio="none" x="336" y="42" width="259" height="49" xlink:href="img/1.png" />
<image preserveAspectRatio="none" x="342" y="50" width="247" height="27" xlink:href="img/2.png" />
<image preserveAspectRatio="none" x="341" y="46" width="238" height="41" xlink:href="img/3.png" />
<g fill="#FFFFFF" >
<use xlink:href="#f0_j" transform="matrix(11.5,0,0,11.5,354.9,70)" />
<use xlink:href="#f0_i" transform="matrix(11.5,0,0,11.5,364.2,70)" />
<use xlink:href="#f0_2n" transform="matrix(11.5,0,0,11.5,374.1,70)" />
<use xlink:href="#f0_t" transform="matrix(11.5,0,0,11.5,382.4,70)" />
<use xlink:href="#f0_oj" transform="matrix(11.5,0,0,11.5,391,70)" />
<use xlink:href="#f0_3e" transform="matrix(11.5,0,0,11.5,396.3,70)" />
<use xlink:href="#f0_1c" transform="matrix(11.5,0,0,11.5,406,70)" />
<use xlink:href="#f0_1c" transform="matrix(11.5,0,0,11.5,410.7,70)" />
<use xlink:href="#f0_oj" transform="matrix(11.5,0,0,11.5,415.4,70)" />
<use xlink:href="#f0_rz" transform="matrix(11.5,0,0,11.5,420.8,70)" />
<use xlink:href="#f0_rx" transform="matrix(11.5,0,0,11.5,429.7,70)" />
<use xlink:href="#f0_ry" transform="matrix(11.5,0,0,11.5,438.6,70)" />
<use xlink:href="#f0_s2" transform="matrix(11.5,0,0,11.5,447.4,70)" />
<use xlink:href="#f0_t" transform="matrix(11.5,0,0,11.5,460.2,70)" />
<use xlink:href="#f0_3e" transform="matrix(11.5,0,0,11.5,468.8,70)" />
<use xlink:href="#f0_5" transform="matrix(11.5,0,0,11.5,478.5,70)" />
<use xlink:href="#f0_1x" transform="matrix(11.5,0,0,11.5,489.2,70)" />
<use xlink:href="#f0_1c" transform="matrix(11.5,0,0,11.5,504.6,70)" />
<use xlink:href="#f0_1y" transform="matrix(11.5,0,0,11.5,509.3,70)" />
<use xlink:href="#f0_5" transform="matrix(11.5,0,0,11.5,520.9,70)" />
<use xlink:href="#f0_2t" transform="matrix(11.5,0,0,11.5,531.5,70)" />
<use xlink:href="#f0_1c" transform="matrix(11.5,0,0,11.5,540.2,70)" />
<use xlink:href="#f0_24" transform="matrix(11.5,0,0,11.5,544.9,70)" />
<use xlink:href="#f0_1y" transform="matrix(11.5,0,0,11.5,556.8,70)" />
</g>
<image preserveAspectRatio="none" x="554" y="46" width="36" height="41" xlink:href="img/4.png" />
<image preserveAspectRatio="none" x="748" y="1196" width="94" height="58" xlink:href="img/5.png" />
<g fill="#FFFFFF" >
<use xlink:href="#f1_t" transform="matrix(11,0,0,11,770.1,1227.7)" />
<use xlink:href="#f1_j" transform="matrix(11,0,0,11,783.5,1227.7)" />
<use xlink:href="#f1_m" transform="matrix(11,0,0,11,794.1,1227.7)" />
<use xlink:href="#f1_o" transform="matrix(11,0,0,11,803,1227.7)" />
</g>
<path fill-rule="evenodd" d="M52.7,1193.2H856.9v-.7H52.7v.7Z" class="g0_126" />
<path d="M37.9,99.4L873,98.5" class="g1_126" />
<path d="M94.1,282.4h9.1" class="g2_126" />
<g clip-path="url(#c0_126)">
<g fill="#000000" >
<use xlink:href="#f2_m" transform="matrix(6.8,0,0,6.8,65.8,301.9)" />
<use xlink:href="#f3_1p" transform="matrix(11.8,0,0,11.7,56.7,297.3)" />
<use xlink:href="#f3_12" transform="matrix(11.8,0,0,11.7,91.9,297.3)" />
<use xlink:href="#f4_x" transform="matrix(11.8,0,0,11.7,77,297.3)" />
</g>
</g>
<path d="M87.9,314H132m19.5,0h11.2m17.5,0h11.2m-39.9,-3.4h39.9m19.5,3.4h11.2m-11.2,-3.4h11.2m4.3,3.4h11.1m-11.1,-3.4h11.1" class="g3_126" />
<g clip-path="url(#c1_126)">
<g fill="#000000" >
<use xlink:href="#f2_l" transform="matrix(7.2,0,0,6.9,94.5,335.7)" />
<use xlink:href="#f2_m" transform="matrix(7.2,0,0,6.9,125.5,335.7)" />
<use xlink:href="#f2_i" transform="matrix(12.5,0,0,11.9,222.1,331)" />
<use xlink:href="#f2_i" transform="matrix(12.5,0,0,11.9,268.3,331)" />
<use xlink:href="#f3_1p" transform="matrix(12.5,0,0,11.9,56.7,331)" />
<use xlink:href="#f3_1p" transform="matrix(12.5,0,0,11.9,86.5,331)" />
<use xlink:href="#f3_1p" transform="matrix(12.5,0,0,11.9,116.3,331)" />
<use xlink:href="#f3_11" transform="matrix(12.5,0,0,11.9,152.6,331)" />
<use xlink:href="#f3_12" transform="matrix(12.5,0,0,11.9,180.4,331)" />
<use xlink:href="#f3_11" transform="matrix(12.5,0,0,11.9,212,331)" />
<use xlink:href="#f3_12" transform="matrix(12.5,0,0,11.9,226.6,331)" />
<use xlink:href="#f3_11" transform="matrix(12.5,0,0,11.9,258.1,331)" />
<use xlink:href="#f3_12" transform="matrix(12.5,0,0,11.9,272.7,331)" />
<use xlink:href="#f4_x" transform="matrix(12.5,0,0,11.9,73.3,331)" />
<use xlink:href="#f4_f" transform="matrix(12.5,0,0,11.9,103.9,331)" />
<use xlink:href="#f4_x" transform="matrix(12.5,0,0,11.9,136.8,331)" />
<use xlink:href="#f4_f" transform="matrix(12.5,0,0,11.9,166.3,331)" />
<use xlink:href="#f4_x" transform="matrix(12.5,0,0,11.9,196.1,331)" />
<use xlink:href="#f4_x" transform="matrix(12.5,0,0,11.9,242.3,331)" />
</g>
</g>
<g fill="#000000" >
<use xlink:href="#f2_1k" transform="matrix(12,0,0,12,55,357.1)" />
<use xlink:href="#f2_24" transform="matrix(12,0,0,12,66.2,357.1)" />
<use xlink:href="#f2_21" transform="matrix(12,0,0,12,75.4,357.1)" />
<use xlink:href="#f2_21" transform="matrix(12,0,0,12,88.1,357.1)" />
<use xlink:href="#f2_2d" transform="matrix(12,0,0,12,96.2,357.1)" />
<use xlink:href="#f2_2h" transform="matrix(12,0,0,12,105.4,357.1)" />
<use xlink:href="#f2_25" transform="matrix(12,0,0,12,114.6,357.1)" />
<use xlink:href="#f2_2i" transform="matrix(12,0,0,12,119.7,357.1)" />
<use xlink:href="#f2_1x" transform="matrix(12,0,0,12,128.9,357.1)" />
<use xlink:href="#f2_28" transform="matrix(12,0,0,12,137,357.1)" />
<use xlink:href="#f2_21" transform="matrix(12,0,0,12,142.1,357.1)" />
<use xlink:href="#f2_2a" transform="matrix(12,0,0,12,150.2,357.1)" />
<use xlink:href="#f2_2g" transform="matrix(12,0,0,12,159.4,357.1)" />
<use xlink:href="#f2_23" transform="matrix(12,0,0,12,169.1,357.1)" />
<use xlink:href="#f2_1x" transform="matrix(12,0,0,12,178.3,357.1)" />
<use xlink:href="#f2_2g" transform="matrix(12,0,0,12,186.4,357.1)" />
<use xlink:href="#f2_21" transform="matrix(12,0,0,12,191.5,357.1)" />
<use xlink:href="#f2_25" transform="matrix(12,0,0,12,204.2,357.1)" />
<use xlink:href="#f2_2f" transform="matrix(12,0,0,12,209.3,357.1)" />
<use xlink:href="#f2_11" transform="matrix(12,0,0,12,221.1,357.1)" />
<use xlink:href="#f2_1e" transform="matrix(12,0,0,12,234.2,357.1)" />
<use xlink:href="#f2_14" transform="matrix(12,0,0,12,247.4,357.1)" />
<use xlink:href="#f2_23" transform="matrix(12,0,0,12,265.2,357.1)" />
<use xlink:href="#f2_1x" transform="matrix(12,0,0,12,274.3,357.1)" />
<use xlink:href="#f2_2g" transform="matrix(12,0,0,12,282.5,357.1)" />
<use xlink:href="#f2_21" transform="matrix(12,0,0,12,287.6,357.1)" />
<use xlink:href="#f2_1k" transform="matrix(12,0,0,12,55,378.2)" />
<use xlink:href="#f2_2e" transform="matrix(12,0,0,12,66.2,378.2)" />
<use xlink:href="#f2_2h" transform="matrix(12,0,0,12,72.3,378.2)" />
<use xlink:href="#f2_2g" transform="matrix(12,0,0,12,81.5,378.2)" />
<use xlink:href="#f2_24" transform="matrix(12,0,0,12,86.6,378.2)" />
<use xlink:href="#f2_2g" transform="matrix(12,0,0,12,100.4,378.2)" />
<use xlink:href="#f2_1x" transform="matrix(12,0,0,12,105.5,378.2)" />
<use xlink:href="#f2_1y" transform="matrix(12,0,0,12,113.6,378.2)" />
<use xlink:href="#f2_28" transform="matrix(12,0,0,12,122.8,378.2)" />
<use xlink:href="#f2_21" transform="matrix(12,0,0,12,127.9,378.2)" />
<use xlink:href="#f5_1f" transform="matrix(12,0,0,12,441.1,549.3)" />
<use xlink:href="#f5_1i" transform="matrix(12,0,0,12,455.4,549.3)" />
<use xlink:href="#f2_1p" transform="matrix(12,0,0,12,55,635.7)" />
<use xlink:href="#f2_l" transform="matrix(8,0,0,8,68.2,636.5)" />
<use xlink:href="#f2_x" transform="matrix(12,0,0,12,78.9,635.7)" />
<use xlink:href="#f5_15" transform="matrix(12,0,0,12,93.9,635.7)" />
<use xlink:href="#f5_2e" transform="matrix(12,0,0,12,106.1,635.7)" />
<use xlink:href="#f5_2e" transform="matrix(12,0,0,12,114.2,635.7)" />
<use xlink:href="#f5_2b" transform="matrix(12,0,0,12,122.4,635.7)" />
<use xlink:href="#f5_2e" transform="matrix(12,0,0,12,131.5,635.7)" />
<use xlink:href="#f5_5" transform="matrix(12,0,0,12,139.7,635.7)" />
<use xlink:href="#f5_1f" transform="matrix(12,0,0,12,150.4,635.7)" />
<use xlink:href="#f5_1y" transform="matrix(12,0,0,12,164.6,635.7)" />
<use xlink:href="#f5_26" transform="matrix(12,0,0,12,174.8,635.7)" />
<use xlink:href="#f5_21" transform="matrix(12,0,0,12,181,635.7)" />
<use xlink:href="#f5_1z" transform="matrix(12,0,0,12,189.1,635.7)" />
<use xlink:href="#f5_2g" transform="matrix(12,0,0,12,197.2,635.7)" />
<use xlink:href="#f5_2f" transform="matrix(12,0,0,12,203.3,635.7)" />
<use xlink:href="#f5_1z" transform="matrix(12,0,0,12,215.1,635.7)" />
<use xlink:href="#f5_1x" transform="matrix(12,0,0,12,223.2,635.7)" />
<use xlink:href="#f5_2a" transform="matrix(12,0,0,12,232.3,635.7)" />
<use xlink:href="#f5_2a" transform="matrix(12,0,0,12,242.5,635.7)" />
<use xlink:href="#f5_2b" transform="matrix(12,0,0,12,252.7,635.7)" />
<use xlink:href="#f5_2g" transform="matrix(12,0,0,12,261.8,635.7)" />
<use xlink:href="#f5_1y" transform="matrix(12,0,0,12,272.5,635.7)" />
<use xlink:href="#f5_21" transform="matrix(12,0,0,12,282.7,635.7)" />
<use xlink:href="#f5_1z" transform="matrix(12,0,0,12,295.5,635.7)" />
<use xlink:href="#f5_2e" transform="matrix(12,0,0,12,303.6,635.7)" />
<use xlink:href="#f5_21" transform="matrix(12,0,0,12,311.7,635.7)" />
<use xlink:href="#f5_1x" transform="matrix(12,0,0,12,319.9,635.7)" />
<use xlink:href="#f5_2g" transform="matrix(12,0,0,12,329,635.7)" />
<use xlink:href="#f5_21" transform="matrix(12,0,0,12,335.1,635.7)" />
<use xlink:href="#f5_20" transform="matrix(12,0,0,12,343.3,635.7)" />
<use xlink:href="#f5_22" transform="matrix(12,0,0,12,358.1,635.7)" />
<use xlink:href="#f5_2e" transform="matrix(12,0,0,12,364.2,635.7)" />
<use xlink:href="#f5_2b" transform="matrix(12,0,0,12,372.3,635.7)" />
<use xlink:href="#f5_29" transform="matrix(12,0,0,12,381.5,635.7)" />
<use xlink:href="#f5_21" transform="matrix(12,0,0,12,401.3,635.7)" />
<use xlink:href="#f5_20" transform="matrix(12,0,0,12,409.4,635.7)" />
<use xlink:href="#f5_25" transform="matrix(12,0,0,12,419.6,635.7)" />
<use xlink:href="#f5_2g" transform="matrix(12,0,0,12,424.7,635.7)" />
<use xlink:href="#f5_25" transform="matrix(12,0,0,12,430.8,635.7)" />
<use xlink:href="#f5_2a" transform="matrix(12,0,0,12,435.9,635.7)" />
<use xlink:href="#f5_23" transform="matrix(12,0,0,12,446.1,635.7)" />
<use xlink:href="#f5_22" transform="matrix(12,0,0,12,459.8,635.7)" />
<use xlink:href="#f5_25" transform="matrix(12,0,0,12,466,635.7)" />
<use xlink:href="#f5_21" transform="matrix(12,0,0,12,471.1,635.7)" />
<use xlink:href="#f5_28" transform="matrix(12,0,0,12,479.2,635.7)" />
<use xlink:href="#f5_20" transform="matrix(12,0,0,12,484.3,635.7)" />
<use xlink:href="#f5_1z" transform="matrix(12,0,0,12,499,635.7)" />
<use xlink:href="#f5_2b" transform="matrix(12,0,0,12,507.1,635.7)" />
<use xlink:href="#f5_20" transform="matrix(12,0,0,12,516.3,635.7)" />
<use xlink:href="#f5_21" transform="matrix(12,0,0,12,526.5,635.7)" />
<use xlink:href="#f5_2f" transform="matrix(12,0,0,12,534.6,635.7)" />
<use xlink:href="#f5_i" transform="matrix(12,0,0,12,541.8,635.7)" />
</g>
<path d="M94.3,647.2H121m18.3,0H166M88,643.7h84.3m25.9,3.5h26.6m-26.6,-3.5h33m11.4,3.5h26.7m-26.7,-3.5h26.7" class="g4_126" />
<g clip-path="url(#c2_126)">
<g fill="#000000" >
<use xlink:href="#f2_c" transform="matrix(12.7,0,0,12.1,87.4,664.4)" />
<use xlink:href="#f2_i" transform="matrix(12.7,0,0,12.1,105.4,664.4)" />
<use xlink:href="#f2_d" transform="matrix(12.7,0,0,12.1,121.7,664.4)" />
<use xlink:href="#f2_i" transform="matrix(12.7,0,0,12.1,127.8,664.4)" />
<use xlink:href="#f2_c" transform="matrix(12.7,0,0,12.1,132.4,664.4)" />
<use xlink:href="#f2_i" transform="matrix(12.7,0,0,12.1,150.4,664.4)" />
<use xlink:href="#f2_d" transform="matrix(12.7,0,0,12.1,166.8,664.4)" />
<use xlink:href="#f2_c" transform="matrix(12.7,0,0,12.1,191.1,664.4)" />
<use xlink:href="#f2_i" transform="matrix(12.7,0,0,12.1,209.2,664.4)" />
<use xlink:href="#f2_d" transform="matrix(12.7,0,0,12.1,225.5,664.4)" />
<use xlink:href="#f2_i" transform="matrix(12.7,0,0,12.1,231,664.4)" />
<use xlink:href="#f2_c" transform="matrix(12.7,0,0,12.1,235.6,664.4)" />
<use xlink:href="#f2_i" transform="matrix(12.7,0,0,12.1,253.6,664.4)" />
<use xlink:href="#f2_d" transform="matrix(12.7,0,0,12.1,269.9,664.4)" />
<use xlink:href="#f2_c" transform="matrix(12.7,0,0,12.1,294.3,664.4)" />
<use xlink:href="#f2_i" transform="matrix(12.7,0,0,12.1,312.4,664.4)" />
<use xlink:href="#f2_d" transform="matrix(12.7,0,0,12.1,328.7,664.4)" />
<use xlink:href="#f2_c" transform="matrix(12.7,0,0,12.1,351.1,664.4)" />
<use xlink:href="#f2_i" transform="matrix(12.7,0,0,12.1,369.1,664.4)" />
<use xlink:href="#f2_d" transform="matrix(12.7,0,0,12.1,385.4,664.4)" />
<use xlink:href="#f3_1p" transform="matrix(12.7,0,0,12.1,56.7,664.4)" />
<use xlink:href="#f3_11" transform="matrix(12.7,0,0,12.1,95.4,664.4)" />
<use xlink:href="#f3_12" transform="matrix(12.7,0,0,12.1,110,664.4)" />
<use xlink:href="#f3_11" transform="matrix(12.7,0,0,12.1,140.4,664.4)" />
<use xlink:href="#f3_12" transform="matrix(12.7,0,0,12.1,155,664.4)" />
<use xlink:href="#f3_11" transform="matrix(12.7,0,0,12.1,199.2,664.4)" />
<use xlink:href="#f3_12" transform="matrix(12.7,0,0,12.1,213.8,664.4)" />
<use xlink:href="#f3_11" transform="matrix(12.7,0,0,12.1,243.6,664.4)" />
<use xlink:href="#f3_12" transform="matrix(12.7,0,0,12.1,258.2,664.4)" />
<use xlink:href="#f3_11" transform="matrix(12.7,0,0,12.1,302.4,664.4)" />
<use xlink:href="#f3_12" transform="matrix(12.7,0,0,12.1,317,664.4)" />
<use xlink:href="#f3_11" transform="matrix(12.7,0,0,12.1,359.2,664.4)" />
<use xlink:href="#f3_12" transform="matrix(12.7,0,0,12.1,373.8,664.4)" />
<use xlink:href="#f4_x" transform="matrix(12.7,0,0,12.1,73.3,664.4)" />
<use xlink:href="#f4_x" transform="matrix(12.7,0,0,12.1,177.2,664.4)" />
<use xlink:href="#f4_x" transform="matrix(12.7,0,0,12.1,280.5,664.4)" />
<use xlink:href="#f4_f" transform="matrix(12.7,0,0,12.1,338.2,664.4)" />
</g>
</g>
<g clip-path="url(#c3_126)">
<g fill="#000000" >
<use xlink:href="#f2_i" transform="matrix(12.3,0,0,11.9,83.8,688.5)" />
<use xlink:href="#f3_11" transform="matrix(12.3,0,0,11.9,73.7,688.5)" />
<use xlink:href="#f3_12" transform="matrix(12.3,0,0,11.9,88.4,688.5)" />
<use xlink:href="#f4_x" transform="matrix(12.3,0,0,11.9,57.9,688.5)" />
</g>
</g>
<g fill="#000000" >
<use xlink:href="#f2_1k" transform="matrix(12,0,0,12,55,713)" />
<use xlink:href="#f2_24" transform="matrix(12,0,0,12,66.2,713)" />
<use xlink:href="#f2_21" transform="matrix(12,0,0,12,75.4,713)" />
<use xlink:href="#f2_21" transform="matrix(12,0,0,12,88.1,713)" />
<use xlink:href="#f2_2d" transform="matrix(12,0,0,12,96.2,713)" />
<use xlink:href="#f2_2h" transform="matrix(12,0,0,12,105.4,713)" />
<use xlink:href="#f2_25" transform="matrix(12,0,0,12,114.6,713)" />
<use xlink:href="#f2_2i" transform="matrix(12,0,0,12,119.7,713)" />
<use xlink:href="#f2_1x" transform="matrix(12,0,0,12,128.9,713)" />
<use xlink:href="#f2_28" transform="matrix(12,0,0,12,137,713)" />
<use xlink:href="#f2_21" transform="matrix(12,0,0,12,142.1,713)" />
<use xlink:href="#f2_2a" transform="matrix(12,0,0,12,150.2,713)" />
<use xlink:href="#f2_2g" transform="matrix(12,0,0,12,159.4,713)" />
<use xlink:href="#f2_23" transform="matrix(12,0,0,12,169.1,713)" />
<use xlink:href="#f2_1x" transform="matrix(12,0,0,12,178.3,713)" />
<use xlink:href="#f2_2g" transform="matrix(12,0,0,12,186.4,713)" />
<use xlink:href="#f2_21" transform="matrix(12,0,0,12,191.5,713)" />
<use xlink:href="#f2_25" transform="matrix(12,0,0,12,204.2,713)" />
<use xlink:href="#f2_2f" transform="matrix(12,0,0,12,209.3,713)" />
<use xlink:href="#f2_11" transform="matrix(12,0,0,12,221.1,713)" />
<use xlink:href="#f2_1e" transform="matrix(12,0,0,12,234.2,713)" />
<use xlink:href="#f2_14" transform="matrix(12,0,0,12,247.4,713)" />
<use xlink:href="#f2_17" transform="matrix(12,0,0,12,265.2,713)" />
<use xlink:href="#f2_1x" transform="matrix(12,0,0,12,278.4,713)" />
<use xlink:href="#f2_2g" transform="matrix(12,0,0,12,286.5,713)" />
<use xlink:href="#f2_21" transform="matrix(12,0,0,12,291.6,713)" />
<use xlink:href="#f2_1k" transform="matrix(12,0,0,12,55,734)" />
<use xlink:href="#f2_2e" transform="matrix(12,0,0,12,66.2,734)" />
<use xlink:href="#f2_2h" transform="matrix(12,0,0,12,72.3,734)" />
<use xlink:href="#f2_2g" transform="matrix(12,0,0,12,81.5,734)" />
<use xlink:href="#f2_24" transform="matrix(12,0,0,12,86.6,734)" />
<use xlink:href="#f2_2g" transform="matrix(12,0,0,12,100.4,734)" />
<use xlink:href="#f2_1x" transform="matrix(12,0,0,12,105.5,734)" />
<use xlink:href="#f2_1y" transform="matrix(12,0,0,12,113.6,734)" />
<use xlink:href="#f2_28" transform="matrix(12,0,0,12,122.8,734)" />
<use xlink:href="#f2_21" transform="matrix(12,0,0,12,127.9,734)" />
<use xlink:href="#f5_c" transform="matrix(12,0,0,12,82.5,1074.9)" />
<use xlink:href="#f5_1y" transform="matrix(12,0,0,12,88.6,1074.9)" />
<use xlink:href="#f5_d" transform="matrix(12,0,0,12,98.8,1074.9)" />
</g>
<path d="M89.8,1100.4h26.5m19.5,0h11.1" class="g5_126" />
<g clip-path="url(#c4_126)">
<g fill="#000000" >
<use xlink:href="#f2_l" transform="matrix(7.4,0,0,7.2,64.7,1123)" />
<use xlink:href="#f2_i" transform="matrix(12.8,0,0,12.4,100.9,1118.1)" />
<use xlink:href="#f3_1p" transform="matrix(12.8,0,0,12.4,56.7,1118.1)" />
<use xlink:href="#f3_11" transform="matrix(12.8,0,0,12.4,90.9,1118.1)" />
<use xlink:href="#f3_11" transform="matrix(12.8,0,0,12.4,106.3,1118.1)" />
<use xlink:href="#f3_11" transform="matrix(12.8,0,0,12.4,136.9,1118.1)" />
<use xlink:href="#f4_x" transform="matrix(12.8,0,0,12.4,75.2,1118.1)" />
<use xlink:href="#f4_x" transform="matrix(12.8,0,0,12.4,121.2,1118.1)" />
</g>
</g>
<path d="M91.5,1131.3h26.4m19.2,0h11.1" class="g6_126" />
<g clip-path="url(#c5_126)">
<g fill="#000000" >
<use xlink:href="#f2_m" transform="matrix(7.4,0,0,7.2,65.7,1153.8)" />
<use xlink:href="#f2_i" transform="matrix(12.8,0,0,12.4,102.5,1148.9)" />
<use xlink:href="#f3_1p" transform="matrix(12.8,0,0,12.4,56.7,1148.9)" />
<use xlink:href="#f3_12" transform="matrix(12.8,0,0,12.4,91.7,1148.9)" />
<use xlink:href="#f3_12" transform="matrix(12.8,0,0,12.4,107.1,1148.9)" />
<use xlink:href="#f3_12" transform="matrix(12.8,0,0,12.4,137.4,1148.9)" />
<use xlink:href="#f4_x" transform="matrix(12.8,0,0,12.4,77,1148.9)" />
<use xlink:href="#f4_x" transform="matrix(12.8,0,0,12.4,122.7,1148.9)" />
</g>
</g>
<path d="M87.9,1165.2h30.9m19.5,0h11.2m4.3,0H165m-26.7,-3.4H165m19.5,3.4h11.2m-11.2,-3.4h11.2m17.5,3.4h11.2m-11.2,-3.4h11.2" class="g3_126" />
<g clip-path="url(#c6_126)">
<g fill="#000000" >
<use xlink:href="#f2_l" transform="matrix(7.2,0,0,6.9,94.5,1186.8)" />
<use xlink:href="#f2_m" transform="matrix(7.2,0,0,6.9,112.3,1186.8)" />
<use xlink:href="#f2_i" transform="matrix(12.5,0,0,11.9,100.2,1182.1)" />
<use xlink:href="#f2_i" transform="matrix(12.5,0,0,11.9,149.4,1182.1)" />
<use xlink:href="#f3_1p" transform="matrix(12.5,0,0,11.9,56.7,1182.1)" />
<use xlink:href="#f3_1p" transform="matrix(12.5,0,0,11.9,86.5,1182.1)" />
<use xlink:href="#f3_1p" transform="matrix(12.5,0,0,11.9,103.1,1182.1)" />
<use xlink:href="#f3_11" transform="matrix(12.5,0,0,11.9,139.4,1182.1)" />
<use xlink:href="#f3_12" transform="matrix(12.5,0,0,11.9,154,1182.1)" />
<use xlink:href="#f3_11" transform="matrix(12.5,0,0,11.9,185.5,1182.1)" />
<use xlink:href="#f3_12" transform="matrix(12.5,0,0,11.9,213.4,1182.1)" />
<use xlink:href="#f3_11" transform="matrix(12.5,0,0,11.9,244.9,1182.1)" />
<use xlink:href="#f3_12" transform="matrix(12.5,0,0,11.9,272.7,1182.1)" />
<use xlink:href="#f4_x" transform="matrix(12.5,0,0,11.9,73.3,1182.1)" />
<use xlink:href="#f4_x" transform="matrix(12.5,0,0,11.9,123.6,1182.1)" />
<use xlink:href="#f4_x" transform="matrix(12.5,0,0,11.9,169.8,1182.1)" />
<use xlink:href="#f4_f" transform="matrix(12.5,0,0,11.9,199.3,1182.1)" />
<use xlink:href="#f4_x" transform="matrix(12.5,0,0,11.9,229.1,1182.1)" />
<use xlink:href="#f4_f" transform="matrix(12.5,0,0,11.9,258.7,1182.1)" />
</g>
</g>
<image preserveAspectRatio="none" x="295" y="127" width="320" height="151" xlink:href="img/6.png" />
<image preserveAspectRatio="none" x="57" y="382" width="201" height="150" xlink:href="img/7.png" />
<image preserveAspectRatio="none" x="57" y="553" width="342" height="66" xlink:href="img/8.png" />
<image preserveAspectRatio="none" x="57" y="738" width="163" height="153" xlink:href="img/9.png" />
<image preserveAspectRatio="none" x="110" y="891" width="387" height="184" xlink:href="img/10.png" />
<path fill-rule="evenodd" d="M37.4,38.1h.7v-.7h-.7v.7Z" class="g7_126" />
<path fill-rule="evenodd" d="M37.4,38.1h.7v-.7h-.7v.7Z" class="g7_126" />
<path fill-rule="evenodd" d="M38.1,38.1H871.5v-.7H38.1v.7Z" class="g7_126" />
<path fill-rule="evenodd" d="M871.5,38.1h.7v-.7h-.7v.7Z" class="g7_126" />
<path fill-rule="evenodd" d="M871.5,38.1h.7v-.7h-.7v.7Z" class="g7_126" />
<path fill-rule="evenodd" d="M37.4,1248.2h.7V38.1h-.7V1248.2Z" class="g7_126" />
<path fill-rule="evenodd" d="M872.2,1248.2h.8V38.1h-.8V1248.2Z" class="g7_126" />
<path fill-rule="evenodd" d="M871.5,1248.2h.7V38.1h-.7V1248.2Z" class="g7_126" />
<path fill-rule="evenodd" d="M37.4,1249h.7v-.8h-.7v.8Z" class="g7_126" />
<path fill-rule="evenodd" d="M37.4,1249h.7v-.8h-.7v.8Z" class="g7_126" />
<path fill-rule="evenodd" d="M38.1,1249.7H871.5v-.7H38.1v.7Z" class="g7_126" />
<path fill-rule="evenodd" d="M38.1,1249H871.5v-.8H38.1v.8Z" class="g7_126" />
<path fill-rule="evenodd" d="M872.2,1249.7h.8v-1.5h-.8v1.5Z" class="g7_126" />
<path fill-rule="evenodd" d="M871.5,1249.7H873v-.7h-1.5v.7Z" class="g7_126" />
<path fill-rule="evenodd" d="M871.5,1249h.7v-.8h-.7v.8Z" class="g7_126" />
<path fill-rule="evenodd" d="M871.5,1249h.7v-.8h-.7v.8Z" class="g7_126" />
<defs>
<path d="M489,-15c0,0,-99,0,-179,30c0,0,-80,30,-136,91c0,0,-56,61,-85,152c0,0,-30,91,-30,212c0,0,0,123,32,218c0,0,33,96,92,161c0,0,59,65,142,98c0,0,82,34,181,34c0,0,40,0,78,-7c0,0,37,-7,69,-18c0,0,31,-11,57,-25c0,0,25,-14,35,-24c0,0,10,-10,14,-17c0,0,4,-7,6,-17c0,0,2,-11,3,-25c0,0,2,-14,2,-35c0,0,0,-22,-2,-38c0,0,-1,-15,-5,-25c0,0,-4,-10,-9,-14c0,0,-5,-5,-12,-5c0,0,-11,0,-28,13c0,0,-18,13,-45,29c0,0,-27,16,-65,29c0,0,-37,13,-89,13c0,0,-58,0,-103,-23c0,0,-45,-23,-77,-67c0,0,-31,-44,-48,-106c0,0,-16,-61,-16,-139c0,0,0,-85,17,-147c0,0,18,-62,50,-103c0,0,33,-40,79,-60c0,0,45,-19,103,-19c0,0,52,0,90,12c0,0,38,12,65,27c0,0,27,15,45,27c0,0,17,12,27,12c0,0,8,0,12,-3c0,0,4,-3,7,-12c0,0,3,-9,5,-25c0,0,1,-16,1,-43c0,0,0,-18,-1,-31c0,0,-1,-14,-3,-23c0,0,-2,-9,-6,-16c0,0,-4,-7,-12,-15c0,0,-8,-9,-32,-22c0,0,-23,-14,-57,-26C661,13,627,1,583,-6c0,0,-43,-9,-94,-9Z" 
id="f0_j"
transform="scale(0.001,-0.001)" />

<path d="M440,150c0,0,41,0,68,8c0,0,28,9,49,26c0,0,20,16,32,41c0,0,11,25,11,58c0,0,0,33,-11,60c0,0,-11,26,-33,44c0,0,-21,18,-55,28c0,0,-33,9,-87,9H298V150ZM407,567c0,0,42,0,68,10c0,0,25,10,42,28c0,0,16,17,24,41c0,0,9,24,9,50c0,0,0,29,-9,52c0,0,-9,23,-27,39c0,0,-18,15,-45,23c0,0,-27,8,-72,8H298V567ZM164,0c0,0,-25,0,-42,15c0,0,-16,14,-16,47V903c0,0,0,33,16,48c0,0,17,14,42,14H406c0,0,88,0,150,-15c0,0,61,-15,103,-45c0,0,42,-30,65,-77c0,0,22,-46,22,-108c0,0,0,-36,-9,-67c0,0,-9,-31,-26,-56c0,0,-17,-25,-42,-45c0,0,-25,-19,-57,-31c0,0,41,-7,76,-26c0,0,34,-19,60,-48c0,0,26,-30,41,-69c0,0,15,-40,15,-89c0,0,0,-51,-14,-93c0,0,-15,-42,-40,-74c0,0,-25,-32,-59,-55c0,0,-35,-23,-77,-38C614,29,573,14,525,7C525,7,478,0,420,0Z" 
id="f0_i"
transform="scale(0.001,-0.001)" />

<path d="M320,-17c0,0,-50,0,-93,9c0,0,-43,8,-76,19c0,0,-32,11,-54,24C97,35,75,48,65,58c0,0,-10,9,-14,28c0,0,-4,18,-4,52c0,0,0,23,1,39c0,0,2,15,5,25c0,0,4,10,9,14c0,0,6,4,13,4c0,0,11,0,30,-12c0,0,19,-13,49,-28c0,0,30,-15,71,-27c0,0,42,-12,96,-12c0,0,36,0,64,8c0,0,29,9,49,25c0,0,19,15,30,38c0,0,10,23,10,52c0,0,0,33,-18,56c0,0,-18,24,-46,42c0,0,-29,18,-66,34c0,0,-36,16,-75,34c0,0,-39,18,-76,41c0,0,-36,23,-65,54c0,0,-29,32,-47,75c0,0,-17,44,-17,104c0,0,0,70,25,122c0,0,26,53,70,88c0,0,43,34,103,51c0,0,59,18,125,18c0,0,35,0,69,-6c0,0,34,-5,64,-14c0,0,30,-9,53,-20c0,0,23,-11,31,-18c0,0,7,-8,10,-13c0,0,3,-5,4,-14c0,0,2,-8,3,-21c0,0,1,-13,1,-33c0,0,0,-21,-1,-36c0,0,-1,-15,-4,-25c0,0,-3,-9,-7,-14c0,0,-5,-4,-14,-4c0,0,-8,0,-26,10c0,0,-18,10,-44,23c0,0,-26,12,-60,22c0,0,-34,10,-75,10c0,0,-32,0,-56,-8c0,0,-24,-8,-40,-21c0,0,-16,-14,-24,-34c0,0,-8,-19,-8,-41c0,0,0,-32,18,-56c0,0,17,-23,46,-42c0,0,30,-18,67,-34c0,0,38,-16,76,-34c0,0,39,-18,76,-41c0,0,38,-22,67,-54c0,0,29,-32,47,-75c0,0,18,-43,18,-101c0,0,0,-76,-29,-133c0,0,-28,-58,-77,-96C572,60,524,21,459,2c0,0,-65,-19,-139,-19Z" 
id="f0_2n"
transform="scale(0.001,-0.001)" />

<path d="M164,0c0,0,-25,0,-42,15c0,0,-16,14,-16,47V903c0,0,0,33,16,48c0,0,17,14,42,14H645c0,0,7,0,12,-4c0,0,5,-3,9,-13c0,0,4,-9,6,-24c0,0,2,-14,2,-36c0,0,0,-21,-2,-36c0,0,-2,-14,-6,-23c0,0,-4,-9,-9,-13c0,0,-5,-4,-12,-4H301V576H593c0,0,6,0,12,-4c0,0,6,-4,9,-13c0,0,4,-8,6,-23c0,0,2,-14,2,-35c0,0,0,-22,-2,-36c0,0,-2,-14,-6,-23c0,0,-3,-8,-9,-12c0,0,-6,-4,-12,-4H301V154H649c0,0,6,0,12,-5c0,0,5,-4,9,-13c0,0,4,-9,6,-23c0,0,2,-15,2,-36c0,0,0,-22,-2,-36c0,0,-2,-15,-6,-24c0,0,-4,-9,-9,-13c0,0,-6,-4,-12,-4Z" 
id="f0_t"
transform="scale(0.001,-0.001)" />

<path d="M79,297c0,0,-19,0,-27,18c0,0,-8,17,-8,60c0,0,0,41,8,59c0,0,8,17,27,17H389c0,0,9,0,15,-4c0,0,7,-4,11,-13c0,0,5,-9,7,-23c0,0,1,-15,1,-36c0,0,0,-43,-8,-61c0,0,-8,-17,-26,-17Z" 
id="f0_oj"
transform="scale(0.001,-0.001)" />

<path d="M121,-4c0,0,-39,0,-60,2C61,-2,39,0,32,8c0,0,-8,8,-3,24c0,0,4,15,18,41L279,495L64,892c0,0,-14,26,-19,42c0,0,-5,17,4,24c0,0,9,8,32,10c0,0,23,2,65,2c0,0,35,0,56,-2c0,0,20,-1,32,-4c0,0,12,-4,17,-10c0,0,5,-6,9,-15L431,620L595,939c0,0,5,9,10,15c0,0,5,6,16,10c0,0,10,3,29,4c0,0,19,2,53,2c0,0,37,0,59,-2c0,0,22,-2,30,-10c0,0,8,-8,4,-24c0,0,-4,-16,-17,-42L564,497L793,73c0,0,14,-26,18,-41c0,0,4,-16,-5,-24c0,0,-9,-8,-32,-10c0,0,-24,-2,-65,-2c0,0,-36,0,-56,2c0,0,-20,1,-31,3c0,0,-12,4,-17,10c0,0,-5,6,-9,15L414,374L233,26c0,0,-4,-9,-9,-15c0,0,-6,-6,-17,-10c0,0,-12,-2,-32,-3c0,0,-21,-2,-54,-2Z" 
id="f0_3e"
transform="scale(0.001,-0.001)" />

<path d="M204,-4c0,0,-28,0,-47,2c0,0,-19,2,-31,5c0,0,-11,4,-16,10c0,0,-4,6,-4,13V939c0,0,0,7,4,13c0,0,5,6,17,10c0,0,11,3,30,6c0,0,19,2,47,2c0,0,29,0,48,-2c0,0,18,-3,29,-6c0,0,11,-4,16,-10c0,0,5,-6,5,-13V26c0,0,0,-7,-5,-13c0,0,-5,-6,-16,-10c0,0,-11,-3,-29,-5c0,0,-19,-2,-48,-2Z" 
id="f0_1c"
transform="scale(0.001,-0.001)" />

<path d="M127,0c0,0,-16,0,-28,3C99,3,87,6,80,15c0,0,-8,8,-11,25c0,0,-3,16,-3,42c0,0,0,25,2,42c0,0,2,18,8,32c0,0,6,14,15,27c0,0,9,13,24,29L282,390c0,0,50,53,81,95c0,0,30,43,47,79c0,0,17,35,24,65c0,0,6,30,6,57c0,0,0,24,-8,46c0,0,-8,22,-23,39c0,0,-15,16,-38,25c0,0,-23,10,-55,10c0,0,-44,0,-78,-12c0,0,-33,-11,-59,-25c0,0,-26,-13,-43,-25c0,0,-17,-12,-27,-12c0,0,-7,0,-11,5c0,0,-5,4,-8,15c0,0,-3,10,-5,28c0,0,-2,17,-2,42c0,0,0,18,1,29c0,0,1,12,4,20c0,0,2,9,6,15c0,0,3,6,13,15c0,0,9,9,34,23c0,0,25,14,61,27c0,0,37,14,81,23c0,0,44,9,92,9c0,0,75,0,131,-19c0,0,57,-19,94,-53c0,0,37,-34,55,-81c0,0,19,-47,19,-100c0,0,0,-47,-9,-93c0,0,-9,-45,-37,-98c0,0,-29,-52,-80,-116c0,0,-52,-64,-136,-148L299,159H679c0,0,8,0,14,-4c0,0,6,-5,11,-14c0,0,4,-9,7,-25c0,0,2,-15,2,-36c0,0,0,-22,-2,-37c0,0,-2,-15,-6,-25c0,0,-3,-10,-9,-14c0,0,-6,-4,-14,-4Z" 
id="f0_rz"
transform="scale(0.001,-0.001)" />

<path d="M385,138c0,0,29,0,52,9c0,0,22,10,39,28c0,0,17,19,28,47c0,0,11,29,19,66c0,0,7,37,9,84c0,0,3,47,3,104c0,0,0,69,-4,122c0,0,-4,52,-11,91c0,0,-8,39,-20,66c0,0,-12,27,-28,43c0,0,-16,16,-37,22c0,0,-21,7,-47,7c0,0,-44,0,-73,-21c0,0,-28,-21,-45,-64c0,0,-17,-42,-24,-106c0,0,-6,-63,-6,-148c0,0,0,-103,8,-171c0,0,8,-67,26,-107c0,0,17,-40,45,-56c0,0,27,-16,66,-16ZM378,-17c0,0,-99,0,-164,33c0,0,-65,34,-103,98c0,0,-38,64,-54,156c0,0,-15,92,-15,209c0,0,0,115,19,208c0,0,19,94,61,160c0,0,42,65,110,101c0,0,68,35,165,35c0,0,99,0,164,-34c0,0,65,-34,103,-98c0,0,39,-64,53,-156c0,0,15,-92,15,-209c0,0,0,-115,-18,-209c0,0,-19,-93,-61,-159C653,118,611,53,543,17c0,0,-67,-34,-165,-34Z" 
id="f0_rx"
transform="scale(0.001,-0.001)" />

<path d="M142,0c0,0,-6,0,-12,4c0,0,-5,3,-9,12c0,0,-4,9,-6,23c0,0,-3,15,-3,36c0,0,0,21,2,36c0,0,2,14,6,23c0,0,4,9,10,13c0,0,5,5,12,5H322V779L166,693c0,0,-17,-8,-28,-10c0,0,-1,0,-3,0c-4,0,-10,1,-14,5c0,0,-6,6,-8,22c0,0,-2,15,-2,44c0,0,0,18,0,29c0,0,1,12,4,20c0,0,3,8,8,14c0,0,5,5,14,11L345,962c0,0,4,3,9,5c0,0,6,2,15,3c0,0,9,1,23,2c0,0,15,0,38,0c0,0,28,0,46,-1c0,0,17,-1,26,-4c0,0,9,-3,12,-7c0,0,3,-4,3,-11V152H675c0,0,7,0,12,-5c0,0,6,-4,10,-13c0,0,4,-9,6,-23c0,0,2,-15,2,-36c0,0,0,-21,-2,-36c0,0,-3,-14,-7,-23c0,0,-4,-9,-9,-12c0,0,-5,-4,-12,-4Z" 
id="f0_ry"
transform="scale(0.001,-0.001)" />

<path d="M326,-17c0,0,-45,0,-85,6c0,0,-41,5,-73,13c0,0,-32,8,-52,17c0,0,-21,8,-27,14c0,0,-6,6,-9,12c0,0,-3,7,-5,16c0,0,-2,10,-3,24c0,0,-1,14,-1,33c0,0,0,21,2,36c0,0,1,14,5,23c0,0,3,9,8,13c0,0,4,4,10,4c0,0,7,0,23,-9c0,0,15,-8,40,-19c0,0,25,-10,61,-19c0,0,36,-8,86,-8c0,0,43,0,78,9c0,0,36,9,60,29c0,0,25,19,38,49c0,0,14,30,14,72c0,0,0,36,-11,64c0,0,-12,28,-35,47c0,0,-24,19,-62,29c0,0,-38,10,-93,10c0,0,-43,0,-78,-5c0,0,-36,-4,-67,-4c0,0,-22,0,-31,11c0,0,-9,11,-9,40V909c0,0,0,30,11,43c0,0,12,13,37,13H615c0,0,6,0,12,-4c0,0,6,-5,10,-15c0,0,5,-9,6,-25c0,0,2,-16,2,-39c0,0,0,-45,-7,-65c0,0,-8,-20,-23,-20H272V590c0,0,26,3,52,4c0,0,25,0,54,0c0,0,78,0,139,-18c0,0,61,-18,102,-53c0,0,42,-36,63,-88c0,0,22,-53,22,-122c0,0,0,-79,-27,-140c0,0,-27,-62,-77,-104C600,69,550,27,481,5c0,0,-70,-22,-155,-22Z" 
id="f0_s2"
transform="scale(0.001,-0.001)" />

<path d="M589,371L453,782h-1L317,371ZM106,-4c0,0,-35,0,-54,2C52,-2,32,0,25,8c0,0,-7,9,-5,24c0,0,2,16,11,42L329,931c0,0,4,13,10,21c0,0,6,7,19,12c0,0,13,4,36,5c0,0,23,1,61,1c0,0,44,0,71,-1c0,0,26,-1,40,-5c0,0,15,-5,21,-13c0,0,6,-8,11,-22L896,73c0,0,9,-27,11,-43c0,0,3,-15,-6,-23c0,0,-8,-7,-29,-9c0,0,-21,-2,-57,-2c0,0,-38,0,-59,1c0,0,-22,1,-33,4c0,0,-11,3,-16,9c0,0,-4,6,-7,16L635,220H272L211,31c0,0,-2,-11,-7,-18c0,0,-5,-7,-16,-11c0,0,-11,-3,-31,-4c0,0,-19,-2,-51,-2Z" 
id="f0_5"
transform="scale(0.001,-0.001)" />

<path d="M198,-4c0,0,-27,0,-45,2c0,0,-18,2,-28,5c0,0,-11,4,-15,10c0,0,-4,6,-4,13V887c0,0,0,38,20,58c0,0,20,20,53,20H308c0,0,34,0,59,-6c0,0,24,-5,42,-18c0,0,18,-13,30,-35c0,0,12,-21,21,-52L669,279h3L889,852c0,0,9,32,21,53c0,0,11,22,27,35c0,0,15,14,36,19c0,0,21,6,48,6h132c0,0,21,0,35,-5c0,0,15,-5,24,-15c0,0,9,-11,14,-25c0,0,5,-15,5,-33V26c0,0,0,-7,-4,-13c0,0,-4,-6,-15,-10c0,0,-11,-3,-29,-5c0,0,-18,-2,-45,-2c0,0,-27,0,-45,2c0,0,-18,2,-28,5c0,0,-11,4,-15,10c0,0,-5,6,-5,13V813h-1L764,27c0,0,-3,-10,-10,-16c0,0,-6,-6,-18,-10c0,0,-12,-3,-29,-4c0,0,-18,-1,-44,-1c0,0,-25,0,-43,2c0,0,-18,2,-29,5c0,0,-12,4,-19,10c0,0,-6,6,-9,14L293,813h-2V26c0,0,0,-7,-4,-13c0,0,-4,-6,-15,-10c0,0,-11,-3,-29,-5c0,0,-17,-2,-45,-2Z" 
id="f0_1x"
transform="scale(0.001,-0.001)" />

<path d="M193,-4c0,0,-26,0,-43,2c0,0,-18,2,-27,6c0,0,-10,4,-14,10c0,0,-3,6,-3,13V895c0,0,0,35,20,53c0,0,21,17,50,17H282c0,0,28,0,47,-5c0,0,20,-5,35,-16c0,0,15,-11,29,-31c0,0,13,-20,27,-49L608,511c0,0,17,-32,33,-63c0,0,16,-31,31,-62c0,0,14,-31,29,-60c0,0,14,-30,27,-60h1c0,0,-2,52,-3,109c0,0,-1,57,-1,108V936c0,0,0,7,4,13c0,0,5,6,15,11c0,0,10,4,28,6c0,0,17,2,44,2c0,0,25,0,42,-2c0,0,17,-2,27,-6c0,0,9,-5,13,-11c0,0,4,-6,4,-13V68c0,0,0,-17,-6,-30c0,0,-6,-14,-17,-23C879,15,869,6,856,2c0,0,-14,-3,-28,-3H744c0,0,-26,0,-45,4c0,0,-19,5,-35,19c0,0,-16,14,-31,38c0,0,-15,23,-34,60L359,572c0,0,-21,40,-43,86c0,0,-21,47,-38,91h-2c0,0,3,-54,5,-107c0,0,2,-53,2,-110V27c0,0,0,-7,-5,-13c0,0,-4,-6,-14,-10c0,0,-10,-4,-27,-6c0,0,-17,-2,-44,-2Z" 
id="f0_1y"
transform="scale(0.001,-0.001)" />

<path d="M378,-4c0,0,-28,0,-47,2c0,0,-19,2,-31,5c0,0,-11,4,-16,10c0,0,-4,6,-4,13V805H38c0,0,-8,0,-13,4c0,0,-5,5,-9,14c0,0,-3,9,-5,25c0,0,-2,15,-2,37c0,0,0,22,2,38c0,0,2,15,5,25c0,0,4,9,9,13c0,0,5,4,13,4H718c0,0,7,0,12,-4c0,0,6,-4,10,-13c0,0,3,-10,5,-25c0,0,2,-16,2,-38c0,0,0,-22,-2,-37c0,0,-2,-16,-5,-25c0,0,-4,-9,-10,-14c0,0,-5,-4,-12,-4H476V26c0,0,0,-7,-5,-13c0,0,-5,-6,-16,-10c0,0,-11,-3,-30,-5c0,0,-19,-2,-47,-2Z" 
id="f0_2t"
transform="scale(0.001,-0.001)" />

<path d="M514,145c0,0,72,0,121,27c0,0,48,26,78,73c0,0,30,46,42,107c0,0,13,62,13,131c0,0,0,76,-12,139c0,0,-12,62,-41,106c0,0,-29,45,-76,69c0,0,-48,24,-120,24c0,0,-72,0,-120,-27c0,0,-49,-27,-79,-73c0,0,-29,-45,-42,-106c0,0,-12,-61,-12,-129c0,0,0,-79,12,-142c0,0,12,-63,40,-108c0,0,28,-44,76,-68c0,0,48,-23,120,-23ZM508,-17c0,0,-113,0,-196,29c0,0,-84,29,-140,90c0,0,-56,60,-84,154c0,0,-28,93,-28,221c0,0,0,117,29,210c0,0,30,94,89,160c0,0,59,65,146,101c0,0,87,35,202,35c0,0,110,0,194,-29c0,0,84,-30,140,-90c0,0,56,-60,85,-153c0,0,29,-92,29,-217c0,0,0,-120,-30,-215c0,0,-30,-95,-89,-161C855,118,796,52,709,17c0,0,-87,-34,-201,-34Z" 
id="f0_24"
transform="scale(0.001,-0.001)" />

<path d="M407,475c0,0,61,0,105,44c0,0,44,43,44,103c0,0,0,64,-43,108c0,0,-44,43,-109,43c0,0,-57,0,-99,-44c0,0,-42,-45,-42,-107c0,0,0,-62,42,-104c0,0,42,-43,102,-43ZM195,0L430,323c0,0,-67,-8,-85,-8c0,0,-126,0,-212,92c0,0,-87,92,-87,227c0,0,0,141,107,237c0,0,106,96,264,96c0,0,151,0,246,-97c0,0,95,-96,95,-250c0,0,0,-112,-56,-223c0,0,-55,-112,-94,-168L448,0Z" 
id="f1_t"
transform="scale(0.001,-0.001)" />

<path d="M44,-281L425,1053H537L156,-281Z" 
id="f1_j"
transform="scale(0.001,-0.001)" />

<path d="M75,0L400,413c0,0,71,91,101,149c0,0,30,58,30,109c0,0,0,55,-36,91c0,0,-36,36,-91,36c0,0,-63,0,-91,-45c0,0,-28,-46,-34,-142H67c0,0,0,173,102,268c0,0,102,95,253,95c0,0,140,0,229,-82c0,0,89,-82,89,-209c0,0,0,-125,-104,-276L580,324c0,0,-34,-50,-85,-114L468,178H740V0Z" 
id="f1_m"
transform="scale(0.001,-0.001)" />

<path d="M441,402V711h-3L193,402ZM441,0V227H19V404L457,952H650V402h90V227H650V0Z" 
id="f1_o"
transform="scale(0.001,-0.001)" />

<path d="M67,0V109L206,235c0,0,133,118,196,190c0,0,63,72,90,149c0,0,27,77,27,177c0,0,0,97,-44,148c0,0,-44,50,-144,50c0,0,-39,0,-81,-10c0,0,-42,-11,-74,-29L150,787H101V980c0,0,135,32,230,32c0,0,164,0,247,-68c0,0,82,-69,82,-193c0,0,0,-84,-32,-158c0,0,-33,-75,-100,-148c0,0,-67,-74,-222,-206c0,0,-67,-57,-141,-125H680V0Z" 
id="f2_m"
transform="scale(0.001,-0.001)" />

<path d="M141,0l7,40L310,60l59,329L197,941L87,960l8,40H503l-8,-40L351,941L491,474L784,941L653,960l7,40H985l-7,-40L865,941L513,394L454,60L610,40L603,0Z" 
id="f3_1p"
transform="scale(0.001,-0.001)" />

<path d="M459,63c0,0,143,0,210,55c0,0,67,56,67,185c0,0,0,101,-66,146c0,0,-66,46,-190,46H341L266,67c0,0,114,-4,193,-4Zm18,499c0,0,144,0,206,49c0,0,61,48,61,170c0,0,0,77,-48,115c0,0,-48,37,-160,37H419L353,562ZM459,-4L173,0H14l8,40l99,20L277,941L151,960l8,40H570c0,0,330,0,330,-210c0,0,0,-105,-66,-174c0,0,-66,-69,-184,-85c0,0,115,-9,179,-69c0,0,63,-59,63,-157c0,0,0,-160,-108,-235C784,70,675,-4,459,-4Z" 
id="f3_12"
transform="scale(0.001,-0.001)" />

<path d="M0,214v74H784V214ZM0,494v72H784V494Z" 
id="f4_x"
transform="scale(0.001,-0.001)" />

<path d="M134,0V40L339,60V876L137,804v39l292,166h39V60L672,40V0Z" 
id="f2_l"
transform="scale(0.001,-0.001)" />

<path d="M191,-20c0,0,-39,0,-65,25c0,0,-25,27,-25,64c0,0,0,38,26,64c0,0,26,26,64,26c0,0,38,0,64,-26c0,0,26,-26,26,-64c0,0,0,-37,-25,-64c0,0,-26,-25,-65,-25Z" 
id="f2_i"
transform="scale(0.001,-0.001)" />

<path d="M631,416L539,902L283,416ZM576,0l8,40L691,60L643,348H249L96,60L197,40L189,0H-83l8,40L7,60l509,949H659L845,60L938,40L930,0Z" 
id="f3_11"
transform="scale(0.001,-0.001)" />

<path d="M355,0V355H0v72H355V784h72V427H782V355H427V0Z" 
id="f4_f"
transform="scale(0.001,-0.001)" />

<path d="M235,0V40L394,60V936H356c0,0,-189,0,-258,-15L78,766H28v234H908V766H857L837,921c0,0,-22,5,-98,9c0,0,-75,4,-165,4H538V60L697,40V0Z" 
id="f2_1k"
transform="scale(0.001,-0.001)" />

<path d="M442,0V33l93,19V504c0,0,0,129,-124,129c0,0,-70,0,-168,-22V52L338,33V0H31V33l88,19v956L15,1026v34H243V756c0,0,0,-77,-5,-112c0,0,54,31,122,53c0,0,68,23,115,23c0,0,91,0,137,-53c0,0,47,-53,47,-154V52L744,33V0Z" 
id="f2_24"
transform="scale(0.001,-0.001)" />

<path d="M495,413c0,0,0,133,-34,190c0,0,-34,57,-105,57c0,0,-78,0,-119,-63c0,0,-42,-62,-42,-184ZM374,-14c0,0,-163,0,-239,87c0,0,-75,88,-75,283c0,0,0,183,77,273c0,0,76,91,219,91c0,0,269,0,269,-306V353H194V340c0,0,0,-103,23,-160c0,0,22,-57,70,-87c0,0,47,-29,124,-29c0,0,40,0,96,6c0,0,55,7,91,15V43C598,43,562,20,500,3c0,0,-61,-17,-126,-17Z" 
id="f2_21"
transform="scale(0.001,-0.001)" />

<path d="M383,64c0,0,44,0,87,7c0,0,43,7,65,17V645c0,0,-67,13,-152,13c0,0,-194,0,-194,-309c0,0,0,-143,48,-214c0,0,47,-71,146,-71Zm56,-389v35l96,18V-77c0,0,0,73,7,124c0,0,-79,-61,-200,-61c0,0,-287,0,-287,362c0,0,0,180,81,276c0,0,81,96,237,96c0,0,84,0,166,-18l67,33h53V-272l77,-18v-35Z" 
id="f2_2d"
transform="scale(0.001,-0.001)" />

<path d="M289,-14c0,0,-179,0,-179,205V649L20,668v33H233V200c0,0,0,-128,120,-128c0,0,92,0,173,23V649L420,668v33H649V52L738,33V0H533l-6,57C527,57,474,28,405,7c0,0,-69,-21,-116,-21Z" 
id="f2_2h"
transform="scale(0.001,-0.001)" />

<path d="M32,0V33L151,52V649L52,668v33H275V52L395,33V0ZM201,850c0,0,-32,0,-56,24c0,0,-24,24,-24,56c0,0,0,34,24,58c0,0,24,24,56,24c0,0,34,0,58,-24c0,0,24,-24,24,-58c0,0,0,-32,-24,-56c0,0,-24,-24,-58,-24Z" 
id="f2_25"
transform="scale(0.001,-0.001)" />

<path d="M360,-14L72,649L0,668v33H327V668L216,648L420,164L615,649L504,668v33H764V668L697,652L416,-14Z" 
id="f2_2i"
transform="scale(0.001,-0.001)" />

<path d="M284,67c0,0,51,0,88,12c0,0,37,12,74,30V358l-98,-3c0,0,-100,-4,-135,-39c0,0,-35,-35,-35,-117c0,0,0,-132,106,-132ZM233,-14c0,0,-179,0,-179,208c0,0,0,70,27,116c0,0,27,46,87,70c0,0,60,24,173,27l105,3V519c0,0,0,72,-26,107c0,0,-27,34,-82,34c0,0,-75,0,-137,-35L176,538H134V691c0,0,121,26,213,26c0,0,115,0,169,-47c0,0,54,-47,54,-144V52L657,33V0H465L451,70c0,0,-85,-84,-218,-84Z" 
id="f2_1x"
transform="scale(0.001,-0.001)" />

<path d="M31,0V33L150,52v956L31,1026v34H274V52L394,33V0Z" 
id="f2_28"
transform="scale(0.001,-0.001)" />

<path d="M439,0V33l93,19V500c0,0,0,62,-30,97c0,0,-31,36,-94,36c0,0,-67,0,-165,-22V52L338,33V0H35V33l84,19V649L35,668v33H235l7,-57c0,0,57,33,122,54c0,0,65,22,108,22c0,0,91,0,137,-53c0,0,47,-53,47,-154V52L741,33V0Z" 
id="f2_2a"
transform="scale(0.001,-0.001)" />

<path d="M249,-14c0,0,-71,0,-107,42c0,0,-35,42,-35,119V639H15v33l93,29l76,159h47V701H391V639H231V161c0,0,0,-48,22,-73c0,0,22,-24,57,-24c0,0,44,0,106,12V26C416,26,389,8,340,-2c0,0,-49,-12,-91,-12Z" 
id="f2_2g"
transform="scale(0.001,-0.001)" />

<path d="M359,-270c0,0,124,0,192,46c0,0,67,47,67,129c0,0,0,43,-26,67c0,0,-26,24,-79,24H242c0,0,-32,-27,-51,-69c0,0,-20,-41,-20,-77c0,0,0,-64,46,-92c0,0,46,-28,142,-28Zm11,561c0,0,81,0,115,47c0,0,34,47,34,141c0,0,0,100,-35,142c0,0,-35,42,-113,42c0,0,-78,0,-114,-43c0,0,-37,-42,-37,-141c0,0,0,-98,36,-143c0,0,36,-45,114,-45ZM359,-329c0,0,-143,0,-218,44c0,0,-75,43,-75,125c0,0,0,39,27,78c0,0,26,38,98,89c0,0,-43,14,-72,48c0,0,-29,35,-29,74L208,262c0,0,-118,55,-118,217c0,0,0,115,73,178c0,0,73,63,211,63c0,0,28,0,71,-6c0,0,44,-6,67,-13l165,83l26,-32L599,644c0,0,50,-56,50,-165c0,0,0,-120,-72,-182c0,0,-73,-62,-208,-62c0,0,-62,0,-114,11L208,148c0,0,2,-13,29,-24c0,0,27,-12,67,-12H512c0,0,113,0,168,-49c0,0,55,-49,55,-134c0,0,0,-79,-44,-137c0,0,-43,-58,-128,-90c0,0,-84,-31,-204,-31Z" 
id="f2_23"
transform="scale(0.001,-0.001)" />

<path d="M278,-14c0,0,-52,0,-115,11c0,0,-63,10,-99,23V193H98L134,95c0,0,56,-50,146,-50c0,0,144,0,144,123c0,0,0,91,-114,130l-66,21c0,0,-75,25,-110,50c0,0,-34,26,-53,63c0,0,-18,36,-18,89c0,0,0,92,63,145c0,0,63,54,170,54c0,0,77,0,193,-23V544H454l-32,81c0,0,-39,35,-124,35c0,0,-61,0,-92,-30c0,0,-32,-30,-32,-80c0,0,0,-43,29,-72c0,0,28,-29,86,-48c0,0,110,-38,144,-55c0,0,33,-17,57,-42c0,0,23,-25,36,-57c0,0,13,-32,13,-79c0,0,0,-104,-66,-158c0,0,-66,-53,-195,-53Z" 
id="f2_2f"
transform="scale(0.001,-0.001)" />

<path d="M681,416L504,902L333,416ZM669,0V40L803,60L704,348H310L210,60L344,40V0H15V40L128,60l341,949H611L965,60L1092,40V0Z" 
id="f2_11"
transform="scale(0.001,-0.001)" />

<path d="M868,0L251,900V60L385,40V0H44V40L172,60V941L44,960v40H347L862,259V941L727,960v40h341V960L940,941V0Z" 
id="f2_1e"
transform="scale(0.001,-0.001)" />

<path d="M529,65c0,0,183,0,270,108c0,0,87,108,87,334c0,0,0,210,-113,318c0,0,-113,108,-322,108H316V71c0,0,90,-6,213,-6Zm0,-67L172,0H44V40L172,60V941L44,960v40H498c0,0,277,0,411,-123c0,0,133,-124,133,-371c0,0,0,-251,-129,-380C913,126,785,-2,529,-2Z" 
id="f2_14"
transform="scale(0.001,-0.001)" />

<path d="M31,0V33l88,19V649L31,668v33H235l7,-87c0,0,44,37,121,71c0,0,76,35,121,35h11V530H463l-43,82c0,0,-37,0,-88,-10c0,0,-52,-10,-89,-26V52L363,33V0Z" 
id="f2_2e"
transform="scale(0.001,-0.001)" />

<path d="M376,50c0,0,103,0,149,80c0,0,46,81,46,240c0,0,0,137,-47,204c0,0,-48,67,-148,67c0,0,-44,0,-87,-7c0,0,-44,-8,-63,-17V62c0,0,63,-12,150,-12Zm3,-64c0,0,-64,0,-141,14c0,0,-78,14,-136,37v971L0,1026v34H226V809c0,0,0,-40,-4,-148c0,0,74,59,188,59c0,0,143,0,219,-87c0,0,77,-87,77,-263c0,0,0,-189,-84,-287c0,0,-84,-97,-243,-97Z" 
id="f2_1y"
transform="scale(0.001,-0.001)" />

<path d="M595,60c0,0,141,0,206,102c0,0,65,102,65,340c0,0,0,236,-65,335c0,0,-65,100,-206,100c0,0,-142,0,-207,-100c0,0,-66,-99,-66,-335c0,0,0,-239,66,-340c0,0,65,-102,207,-102Zm0,-74c0,0,-253,0,-387,130C208,116,75,246,75,501c0,0,0,510,520,510c0,0,256,0,387,-129c0,0,132,-130,132,-381c0,0,0,-254,-133,-385C981,116,848,-14,595,-14Z" 
id="f5_1f"
transform="scale(0.001,-0.001)" />

<path d="M498,506c0,0,115,0,164,47c0,0,48,48,48,166c0,0,0,112,-46,156c0,0,-46,43,-169,43H390V506ZM793,0L514,423H390V74L518,54V0H36V54L154,74V926L26,945v55H504c0,0,221,0,330,-68c0,0,109,-68,109,-212c0,0,0,-215,-201,-276L1009,74L1117,54V0Z" 
id="f5_1i"
transform="scale(0.001,-0.001)" />

<path d="M322,0V40L481,60V389L130,941L17,960v40H440V960L306,941L593,480L866,941L739,960v40h326V960L955,941L625,394V60L784,40V0Z" 
id="f2_1p"
transform="scale(0.001,-0.001)" />

<path d="M76,316v76H787V316Zm0,306v76H787V622Z" 
id="f2_x"
transform="scale(0.001,-0.001)" />

<path d="M26,0V54L154,74V926L26,945v55H878V746H810L786,908c0,0,-83,10,-241,10H389V551H651l23,111h67V355H674L651,468H389V82H578c0,0,193,0,252,12l43,185h68L927,0Z" 
id="f5_15"
transform="scale(0.001,-0.001)" />

<path d="M41,0V49l91,18V634L41,652v49H336l8,-145c0,0,80,89,144,128c0,0,64,40,117,40h40V468H604l-45,94c0,0,-47,0,-106,-21c0,0,-60,-20,-105,-48V67L460,49V0Z" 
id="f5_2e"
transform="scale(0.001,-0.001)" />

<path d="M379,60c0,0,59,0,84,64c0,0,24,65,24,231c0,0,0,164,-24,227c0,0,-24,63,-84,63c0,0,-57,0,-80,-60c0,0,-22,-61,-22,-230c0,0,0,-173,23,-234c0,0,22,-61,79,-61Zm-2,-74c0,0,-161,0,-240,91c0,0,-79,91,-79,277c0,0,0,186,80,276c0,0,81,90,245,90c0,0,167,0,245,-93c0,0,78,-93,78,-273c0,0,0,-188,-81,-278c0,0,-81,-90,-248,-90Z" 
id="f5_2b"
transform="scale(0.001,-0.001)" />

<path d="M254,-20c0,0,-52,0,-88,34c0,0,-36,36,-36,88c0,0,0,52,36,88c0,0,35,36,88,36c0,0,51,0,87,-36c0,0,36,-36,36,-88c0,0,0,-51,-35,-87c0,0,-36,-35,-88,-35ZM210,313l-68,687H365L296,313Z" 
id="f5_5"
transform="scale(0.001,-0.001)" />

<path d="M424,64c0,0,74,0,109,71c0,0,36,72,36,236c0,0,0,137,-34,201c0,0,-34,65,-111,65c0,0,-29,0,-62,-7c0,0,-34,-6,-55,-19V76c0,0,47,-12,117,-12Zm21,-78c0,0,-121,0,-354,50V994l-72,18v48H307V802c0,0,0,-69,-8,-141c0,0,30,25,86,42c0,0,57,17,110,17c0,0,153,0,223,-84c0,0,70,-83,70,-266c0,0,0,-180,-90,-283C698,87,608,-14,445,-14Z" 
id="f5_1y"
transform="scale(0.001,-0.001)" />

<path d="M116,-325c0,0,-67,0,-128,14v168H35l32,-84c0,0,18,-14,37,-14c0,0,40,0,63,49c0,0,24,50,24,141V627L67,652v49H407V-28c0,0,0,-141,-76,-219c0,0,-76,-78,-215,-78ZM298,831c0,0,-47,0,-81,33c0,0,-33,33,-33,82c0,0,0,47,33,80c0,0,33,34,81,34c0,0,47,0,81,-33c0,0,34,-33,34,-81c0,0,0,-48,-34,-81c0,0,-33,-34,-81,-34Z" 
id="f5_26"
transform="scale(0.001,-0.001)" />

<path d="M434,423c0,0,0,101,-7,142c0,0,-6,40,-22,60c0,0,-16,19,-45,19c0,0,-44,0,-66,-48c0,0,-22,-49,-22,-173ZM389,-14c0,0,-172,0,-254,89c0,0,-83,90,-83,279c0,0,0,184,79,274c0,0,79,91,238,91c0,0,142,0,206,-76c0,0,64,-76,64,-237V345H271V333c0,0,0,-111,18,-158c0,0,18,-47,58,-72c0,0,40,-25,110,-25c0,0,66,0,166,22V42C623,42,582,18,517,1c0,0,-66,-15,-128,-15Z" 
id="f5_21"
transform="scale(0.001,-0.001)" />

<path d="M425,-14c0,0,-187,0,-280,90c0,0,-93,90,-93,276c0,0,0,115,42,198c0,0,43,82,121,126c0,0,78,44,182,44c0,0,104,0,227,-26V486H571L539,609c0,0,-25,19,-50,26c0,0,-24,7,-65,7c0,0,-44,0,-79,-35c0,0,-36,-35,-56,-98c0,0,-20,-64,-20,-153c0,0,0,-150,47,-214c0,0,47,-64,148,-64c0,0,103,0,176,21V42C640,42,606,15,547,0c0,0,-59,-14,-122,-14Z" 
id="f5_1z"
transform="scale(0.001,-0.001)" />

<path d="M327,-14c0,0,-101,0,-156,45c0,0,-55,45,-55,131V624H25v48l108,29l87,159H332V701H480V624H332V176c0,0,0,-49,20,-73c0,0,20,-25,53,-25c0,0,40,0,97,12V26c0,0,-22,-15,-76,-27c0,0,-55,-13,-99,-13Z" 
id="f5_2g"
transform="scale(0.001,-0.001)" />

<path d="M276,-14c0,0,-57,0,-125,13C151,-1,83,10,48,23V214H97l28,-98c0,0,26,-26,69,-44c0,0,42,-17,86,-17c0,0,65,0,97,28c0,0,32,28,32,71c0,0,0,41,-31,65c0,0,-30,25,-133,57c0,0,-108,34,-154,92c0,0,-45,58,-45,143c0,0,0,95,71,152c0,0,71,57,183,57c0,0,77,0,207,-22V518H457l-24,82c0,0,-21,22,-60,35c0,0,-40,14,-75,14c0,0,-53,0,-79,-22c0,0,-26,-22,-26,-59c0,0,0,-40,32,-65c0,0,32,-26,132,-55c0,0,109,-34,155,-89c0,0,45,-55,45,-137c0,0,0,-117,-72,-177c0,0,-72,-59,-209,-59Z" 
id="f5_2f"
transform="scale(0.001,-0.001)" />

<path d="M345,75c0,0,50,0,110,26V351l-63,-2c0,0,-72,-3,-100,-38c0,0,-28,-35,-28,-113c0,0,0,-63,22,-93c0,0,23,-30,59,-30ZM266,-14c0,0,-217,0,-217,208c0,0,0,79,32,126c0,0,32,48,93,71c0,0,60,22,190,25l91,2V521c0,0,0,126,-104,126c0,0,-62,0,-140,-39L183,521H134V691c0,0,112,17,165,21c0,0,53,5,108,5c0,0,264,0,264,-194V67L741,49V0H483L466,54C466,54,408,14,361,0c0,0,-47,-14,-95,-14Z" 
id="f5_1x"
transform="scale(0.001,-0.001)" />

<path d="M41,0V49l69,18V634L41,652v49H313l11,-61l50,26c0,0,105,54,188,54c0,0,194,0,194,-207V67L827,49V0H478V49l63,18V484c0,0,0,63,-27,98c0,0,-26,35,-75,35c0,0,-57,0,-114,-25V67L389,49V0Z" 
id="f5_2a"
transform="scale(0.001,-0.001)" />

<path d="M416,68c0,0,60,0,124,32V628c0,0,-58,15,-118,15c0,0,-67,0,-104,-73c0,0,-38,-73,-38,-216c0,0,0,-139,36,-212c0,0,35,-74,100,-74ZM369,-14c0,0,-155,0,-231,88c0,0,-76,90,-76,274c0,0,0,182,82,277c0,0,81,95,236,95c0,0,82,0,165,-20c0,0,-5,24,-5,115V992l-72,18v50H756V67L833,49V0H562L547,40C547,40,505,13,483,4c0,0,-23,-7,-51,-12c0,0,-28,-6,-63,-6Z" 
id="f5_20"
transform="scale(0.001,-0.001)" />

<path d="M41,0V49l76,18V624H11v51l106,29v75c0,0,0,144,73,220c0,0,73,77,210,77c0,0,74,0,124,-15V894H476l-22,81c0,0,-18,17,-47,17c0,0,-74,0,-74,-189V701H475V624H333V67L447,49V0Z" 
id="f5_22"
transform="scale(0.001,-0.001)" />

<path d="M41,0V49l69,18V634L41,652v49H313l11,-61l50,26c0,0,105,54,188,54c0,0,125,0,167,-91c0,0,153,91,258,91c0,0,189,0,189,-207V67l71,-17V0H898V50l63,17V484c0,0,0,63,-24,98c0,0,-25,35,-74,35c0,0,-55,0,-119,-31c0,0,7,-32,7,-73V67L821,50V0H473V50l63,17V484c0,0,0,63,-25,98c0,0,-24,35,-73,35c0,0,-49,0,-113,-29V67L389,49V0Z" 
id="f5_29"
transform="scale(0.001,-0.001)" />

<path d="M34,0V49l76,18V634L38,652v49H325V67L402,49V0ZM217,831c0,0,-48,0,-81,33c0,0,-34,33,-34,82c0,0,0,48,34,81c0,0,34,33,81,33c0,0,48,0,81,-33c0,0,33,-33,33,-81c0,0,0,-47,-33,-81c0,0,-32,-34,-81,-34Z" 
id="f5_25"
transform="scale(0.001,-0.001)" />

<path d="M360,-256c0,0,108,0,167,35c0,0,59,35,59,98c0,0,0,70,-95,70H254c0,0,-65,-47,-65,-108c0,0,0,-47,46,-71c0,0,45,-24,125,-24Zm9,561c0,0,55,0,79,43c0,0,25,43,25,129c0,0,0,87,-24,127c0,0,-25,41,-80,41c0,0,-52,0,-75,-41c0,0,-24,-40,-24,-127c0,0,0,-86,23,-129c0,0,23,-43,76,-43Zm-9,-641c0,0,-153,0,-236,43c0,0,-84,44,-84,120c0,0,0,33,28,65c0,0,27,31,105,76c0,0,-44,17,-75,59c0,0,-31,43,-31,90L192,258c0,0,-133,56,-133,219c0,0,0,116,81,180c0,0,82,63,233,63c0,0,32,0,82,-6c0,0,51,-6,74,-13l168,83l26,-32L638,631c0,0,46,-57,46,-154c0,0,0,-119,-80,-182c0,0,-80,-64,-234,-64c0,0,-59,0,-114,9L238,183c0,0,1,-22,28,-41c0,0,26,-19,64,-19H493c0,0,256,0,256,-196c0,0,0,-81,-44,-139c0,0,-45,-59,-131,-92c0,0,-86,-32,-214,-32Z" 
id="f5_23"
transform="scale(0.001,-0.001)" />

<path d="M30,0V49l76,18V992l-72,18v50H322V67L398,49V0Z" 
id="f5_28"
transform="scale(0.001,-0.001)" />

<path d="M191,-20c0,0,-51,0,-88,34c0,0,-36,36,-36,88c0,0,0,52,36,88c0,0,36,36,88,36c0,0,51,0,88,-36c0,0,36,-36,36,-88c0,0,0,-51,-36,-87c0,0,-36,-35,-88,-35Z" 
id="f5_i"
transform="scale(0.001,-0.001)" />

<path d="M460,-325c0,0,-148,79,-231,172c0,0,-84,93,-123,217c0,0,-39,126,-39,304c0,0,0,178,39,303c0,0,39,125,122,217c0,0,82,93,232,172V997c0,0,-91,-52,-145,-134c0,0,-54,-81,-79,-190c0,0,-25,-109,-25,-305c0,0,0,-194,26,-309c0,0,26,-114,82,-193c0,0,56,-79,141,-128v-63Z" 
id="f2_c"
transform="scale(0.001,-0.001)" />

<path d="M49,-325v63c0,0,85,49,140,128c0,0,56,79,83,194c0,0,26,115,26,308c0,0,0,196,-25,305c0,0,-25,109,-79,190c0,0,-54,82,-145,134v63c0,0,149,-80,232,-172c0,0,83,-92,122,-217c0,0,39,-125,39,-303c0,0,0,-177,-39,-303c0,0,-39,-125,-122,-217c0,0,-83,-93,-232,-173Z" 
id="f2_d"
transform="scale(0.001,-0.001)" />

<path d="M577,-14c0,0,-243,0,-379,131C198,117,63,248,63,488c0,0,0,263,131,393c0,0,132,130,386,130c0,0,182,0,352,-45V751H882L862,875c0,0,-52,37,-124,57c0,0,-72,19,-152,19c0,0,-191,0,-279,-113c0,0,-88,-114,-88,-348c0,0,0,-220,91,-333c0,0,91,-114,269,-114c0,0,63,0,131,15c0,0,69,15,105,36V377L686,397v40h370V397L958,377V52C958,52,871,24,778,5c0,0,-93,-19,-201,-19Z" 
id="f2_17"
transform="scale(0.001,-0.001)" />

<path d="M460,-325c0,0,-148,79,-231,172c0,0,-84,93,-123,217c0,0,-39,126,-39,305c0,0,0,178,39,303c0,0,39,125,123,218c0,0,83,92,231,170V975c0,0,-68,-52,-109,-133c0,0,-41,-81,-61,-189c0,0,-19,-109,-19,-285c0,0,0,-177,19,-285c0,0,19,-107,60,-189c0,0,42,-82,110,-134v-85Z" 
id="f5_c"
transform="scale(0.001,-0.001)" />

<path d="M49,-325v85c0,0,68,53,110,135c0,0,41,82,60,190c0,0,19,109,19,283c0,0,0,177,-19,285c0,0,-20,108,-61,189c0,0,-41,81,-109,133v85c0,0,149,-80,232,-172c0,0,83,-92,122,-217c0,0,39,-125,39,-302c0,0,0,-178,-39,-304c0,0,-39,-125,-122,-218c0,0,-83,-93,-232,-172Z" 
id="f5_d"
transform="scale(0.001,-0.001)" />


</defs>
</svg>