<?xml version="1.0" encoding="UTF-8" standalone="no"?>
<!DOCTYPE svg PUBLIC "-//W3C//DTD SVG 1.1//EN"
"http://www.w3.org/Graphics/SVG/1.1/DTD/svg11.dtd">
<svg viewBox="0 0 909 1286" version="1.1" xmlns="http://www.w3.org/2000/svg" xmlns:xlink="http://www.w3.org/1999/xlink">
<defs>
<clipPath id="c0_14"><path d="M196.2,164.8V143.9h31.9v20.9Z" /></clipPath>
<clipPath id="c1_14"><path d="M194,202.2V181.3h45.4v20.9Z" /></clipPath>
<clipPath id="c2_14"><path d="M250.1,230.8V218.7h7.7v12.1Z" /></clipPath>
<clipPath id="c3_14"><path d="M159.1,240.7V220.5h98.7v20.2Z" /></clipPath>
<clipPath id="c4_14"><path d="M243.1,230.8V217.9h14.7v12.9Z" /></clipPath>
<clipPath id="c5_14"><path d="M236.1,230.8V217.9h21.7v12.9Z" /></clipPath>
<clipPath id="c6_14"><path d="M181.5,240.3v-22h76.3v22Z" /></clipPath>
<clipPath id="c7_14"><path d="M258.9,270.4V258.3h33.3v12.1Z" /></clipPath>
<clipPath id="c8_14"><path d="M243.1,293.1V272.2h49.1v20.9Z" /></clipPath>
<clipPath id="c9_14"><path d="M234.3,329V316.9h35.9V329Z" /></clipPath>
<clipPath id="c10_14"><path d="M165.4,352.9V332.3h55v20.6Z" /></clipPath>
<clipPath id="c11_14"><path d="M263.6,329V316.6h6.6V329Z" /></clipPath>
<clipPath id="c12_14"><path d="M228.8,390.3V378.2h35.9v12.1Z" /></clipPath>
<clipPath id="c13_14"><path d="M159.5,414.1V393.6h69.3v20.5Z" /></clipPath>
<clipPath id="c14_14"><path d="M258.1,390.3V377.8h6.6v12.5Z" /></clipPath>
<clipPath id="c15_14"><path d="M158,461V440.1H302.5V461Z" /></clipPath>
<clipPath id="c16_14"><path d="M190.3,475V454.4h64.9V475Z" /></clipPath>
<clipPath id="c17_14"><path d="M293.7,461V440.1h8.8V461Z" /></clipPath>
<clipPath id="c18_14"><path d="M257.4,503.6V491.5h16.5v12.1Z" /></clipPath>
<clipPath id="c19_14"><path d="M256.7,516.4V504.3h17.2v12.1Z" /></clipPath>
<clipPath id="c20_14"><path d="M190.7,513.5V492.6h83.2v20.9Z" /></clipPath>
<clipPath id="c21_14"><path d="M205.3,539.1V518.6h68.6v20.5Z" /></clipPath>
<style type="text/css"><![CDATA[
.g0_14{
fill: none;
stroke: #000000;
stroke-width: 0.36666667;
stroke-linecap: butt;
stroke-linejoin: miter;
stroke-miterlimit: 2;
}
.g1_14{
fill: none;
stroke: #000000;
stroke-width: 0.90138894;
stroke-linecap: round;
stroke-linejoin: round;
}
.g2_14{
fill: none;
stroke: #000000;
stroke-width: 0.9075001;
stroke-linecap: round;
stroke-linejoin: round;
}
.g3_14{
fill: none;
stroke: #000000;
stroke-width: 0.8769445;
stroke-linecap: round;
stroke-linejoin: round;
}
.g4_14{
fill: none;
stroke: #000000;
stroke-width: 0.9105556;
stroke-linecap: round;
stroke-linejoin: round;
}
]]></style>
</defs>
<g fill="#000000" >
<use xlink:href="#f0_c" transform="matrix(12,0,0,12,117,109.8)" />
<use xlink:href="#f0_1y" transform="matrix(12,0,0,12,122.9,109.8)" />
<use xlink:href="#f0_d" transform="matrix(12,0,0,12,131.3,109.8)" />
<use xlink:href="#f0_11" transform="matrix(12,0,0,12,155.8,109.8)" />
<use xlink:href="#f0_2e" transform="matrix(12,0,0,12,172,109.8)" />
<use xlink:href="#f0_1x" transform="matrix(12,0,0,12,177.9,109.8)" />
<use xlink:href="#f0_20" transform="matrix(12,0,0,12,186,109.8)" />
<use xlink:href="#f0_25" transform="matrix(12,0,0,12,194.8,109.8)" />
<use xlink:href="#f0_2b" transform="matrix(12,0,0,12,198.8,109.8)" />
<use xlink:href="#f0_1x" transform="matrix(12,0,0,12,208.4,109.8)" />
<use xlink:href="#f0_1z" transform="matrix(12,0,0,12,216.1,109.8)" />
<use xlink:href="#f0_2g" transform="matrix(12,0,0,12,224.2,109.8)" />
<use xlink:href="#f0_25" transform="matrix(12,0,0,12,229.3,109.8)" />
<use xlink:href="#f0_2i" transform="matrix(12,0,0,12,233.7,109.8)" />
<use xlink:href="#f0_21" transform="matrix(12,0,0,12,242.2,109.8)" />
<use xlink:href="#f0_25" transform="matrix(12,0,0,12,253.2,109.8)" />
<use xlink:href="#f0_2f" transform="matrix(12,0,0,12,257.3,109.8)" />
<use xlink:href="#f0_2b" transform="matrix(12,0,0,12,264.2,109.8)" />
<use xlink:href="#f0_2g" transform="matrix(12,0,0,12,273.4,109.8)" />
<use xlink:href="#f0_2b" transform="matrix(12,0,0,12,278.5,109.8)" />
<use xlink:href="#f0_2c" transform="matrix(12,0,0,12,288.1,109.8)" />
<use xlink:href="#f0_21" transform="matrix(12,0,0,12,296.9,109.8)" />
<use xlink:href="#f0_24" transform="matrix(12,0,0,12,308.3,109.8)" />
<use xlink:href="#f0_1x" transform="matrix(12,0,0,12,317.1,109.8)" />
<use xlink:href="#f0_2f" transform="matrix(12,0,0,12,324.8,109.8)" />
<use xlink:href="#f0_1x" transform="matrix(12,0,0,12,335.1,109.8)" />
<use xlink:href="#f0_24" transform="matrix(12,0,0,12,346.5,109.8)" />
<use xlink:href="#f0_1x" transform="matrix(12,0,0,12,355,109.8)" />
<use xlink:href="#f0_28" transform="matrix(12,0,0,12,362.7,109.8)" />
<use xlink:href="#f0_22" transform="matrix(12,0,0,12,367.1,109.8)" />
<use xlink:href="#f0_h" transform="matrix(12,0,0,12,372.3,109.8)" />
<use xlink:href="#f0_28" transform="matrix(12,0,0,12,378.5,109.8)" />
<use xlink:href="#f0_25" transform="matrix(12,0,0,12,382.5,109.8)" />
<use xlink:href="#f0_22" transform="matrix(12,0,0,12,387,109.8)" />
<use xlink:href="#f0_21" transform="matrix(12,0,0,12,392.1,109.8)" />
<use xlink:href="#f0_2b" transform="matrix(12,0,0,12,403.1,109.8)" />
<use xlink:href="#f0_22" transform="matrix(12,0,0,12,412.3,109.8)" />
<use xlink:href="#f0_l" transform="matrix(12,0,0,12,421.1,109.8)" />
<use xlink:href="#f0_k" transform="matrix(12,0,0,12,430,109.8)" />
<use xlink:href="#f0_2l" transform="matrix(12,0,0,12,442.4,109.8)" />
<use xlink:href="#f0_21" transform="matrix(12,0,0,12,450.9,109.8)" />
<use xlink:href="#f0_1x" transform="matrix(12,0,0,12,458.6,109.8)" />
<use xlink:href="#f0_2e" transform="matrix(12,0,0,12,466.7,109.8)" />
<use xlink:href="#f0_2f" transform="matrix(12,0,0,12,472.6,109.8)" />
<use xlink:href="#f0_i" transform="matrix(12,0,0,12,479.2,109.8)" />
<use xlink:href="#f0_18" transform="matrix(12,0,0,12,487.3,109.8)" />
<use xlink:href="#f0_2b" transform="matrix(12,0,0,12,500.5,109.8)" />
<use xlink:href="#f0_2j" transform="matrix(12,0,0,12,509.7,109.8)" />
<use xlink:href="#f0_28" transform="matrix(12,0,0,12,525.8,109.8)" />
<use xlink:href="#f0_2b" transform="matrix(12,0,0,12,529.9,109.8)" />
<use xlink:href="#f0_2a" transform="matrix(12,0,0,12,539.4,109.8)" />
<use xlink:href="#f0_23" transform="matrix(12,0,0,12,547.8,109.8)" />
<use xlink:href="#f0_2j" transform="matrix(12,0,0,12,560.3,109.8)" />
<use xlink:href="#f0_25" transform="matrix(12,0,0,12,573.2,109.8)" />
<use xlink:href="#f0_28" transform="matrix(12,0,0,12,577.6,109.8)" />
<use xlink:href="#f0_28" transform="matrix(12,0,0,12,581.6,109.8)" />
<use xlink:href="#f0_25" transform="matrix(12,0,0,12,589.4,109.8)" />
<use xlink:href="#f0_2g" transform="matrix(12,0,0,12,593.4,109.8)" />
<use xlink:href="#f0_2e" transform="matrix(12,0,0,12,602.3,109.8)" />
<use xlink:href="#f0_1x" transform="matrix(12,0,0,12,608.5,109.8)" />
<use xlink:href="#f0_27" transform="matrix(12,0,0,12,616.2,109.8)" />
<use xlink:href="#f0_21" transform="matrix(12,0,0,12,625.4,109.8)" />
<use xlink:href="#f0_22" transform="matrix(12,0,0,12,636,109.8)" />
<use xlink:href="#f0_2b" transform="matrix(12,0,0,12,641.6,109.8)" />
<use xlink:href="#f0_2e" transform="matrix(12,0,0,12,650.7,109.8)" />
<use xlink:href="#f0_2g" transform="matrix(12,0,0,12,660.3,109.8)" />
<use xlink:href="#f0_24" transform="matrix(12,0,0,12,665.4,109.8)" />
<use xlink:href="#f0_21" transform="matrix(12,0,0,12,674.2,109.8)" />
<use xlink:href="#f0_1x" transform="matrix(12,0,0,12,685.6,109.8)" />
<use xlink:href="#f0_1z" transform="matrix(12,0,0,12,693.3,109.8)" />
<use xlink:href="#f0_2g" transform="matrix(12,0,0,12,701.4,109.8)" />
<use xlink:href="#f0_25" transform="matrix(12,0,0,12,706.5,109.8)" />
<use xlink:href="#f0_2i" transform="matrix(12,0,0,12,710.6,109.8)" />
<use xlink:href="#f0_25" transform="matrix(12,0,0,12,719.4,109.8)" />
<use xlink:href="#f0_2g" transform="matrix(12,0,0,12,723.5,109.8)" />
<use xlink:href="#f0_2l" transform="matrix(12,0,0,12,729,109.8)" />
<use xlink:href="#f0_2g" transform="matrix(12,0,0,12,740.4,109.8)" />
<use xlink:href="#f0_2b" transform="matrix(12,0,0,12,745.9,109.8)" />
<use xlink:href="#f0_2e" transform="matrix(12,0,0,12,758.3,109.8)" />
<use xlink:href="#f0_21" transform="matrix(12,0,0,12,764.2,109.8)" />
<use xlink:href="#f0_20" transform="matrix(12,0,0,12,772.3,109.8)" />
<use xlink:href="#f0_2h" transform="matrix(12,0,0,12,781.1,109.8)" />
<use xlink:href="#f0_1z" transform="matrix(12,0,0,12,789.9,109.8)" />
<use xlink:href="#f0_21" transform="matrix(12,0,0,12,798,109.8)" />
<use xlink:href="#f0_2g" transform="matrix(12,0,0,12,808.1,109.8)" />
<use xlink:href="#f0_2b" transform="matrix(12,0,0,12,813.3,109.8)" />
<use xlink:href="#f0_n" transform="matrix(12,0,0,12,155.8,131.8)" />
<use xlink:href="#f0_i" transform="matrix(12,0,0,12,165,131.8)" />
<use xlink:href="#f0_l" transform="matrix(12,0,0,12,169.8,131.8)" />
<use xlink:href="#f0_m" transform="matrix(12,0,0,12,178.9,131.8)" />
<use xlink:href="#f0_p" transform="matrix(12,0,0,12,188.1,131.8)" />
<use xlink:href="#f0_9" transform="matrix(12,0,0,12,197.3,131.8)" />
<use xlink:href="#f0_z" transform="matrix(12,0,0,12,217.1,131.8)" />
<use xlink:href="#f0_11" transform="matrix(12,0,0,12,64.9,160.4)" />
<use xlink:href="#f0_2a" transform="matrix(12,0,0,12,77.4,160.4)" />
<use xlink:href="#f0_2f" transform="matrix(12,0,0,12,85.8,160.4)" />
<use xlink:href="#f0_i" transform="matrix(12,0,0,12,92.4,160.4)" />
<use xlink:href="#f0_k" transform="matrix(6.9,0,0,6.9,170.5,165.1)" />
</g>
<g clip-path="url(#c0_14)">
<g fill="#000000" >
<use xlink:href="#f0_l" transform="matrix(12,0,0,12,196.2,160.4)" />
<use xlink:href="#f0_k" transform="matrix(12,0,0,12,206.1,160.4)" />
<use xlink:href="#f0_k" transform="matrix(12,0,0,12,216,160.4)" />
</g>
</g>
<g fill="#000000" >
<use xlink:href="#f1_11" transform="matrix(12,0,0,12,160.2,160.4)" />
<use xlink:href="#f2_x" transform="matrix(12,0,0,12,183,160.4)" />
</g>
<g clip-path="url(#c1_14)">
<g fill="#000000" >
<use xlink:href="#f0_n" transform="matrix(12,0,0,12,194,197.8)" />
<use xlink:href="#f0_i" transform="matrix(12,0,0,12,203.5,197.8)" />
<use xlink:href="#f0_l" transform="matrix(12,0,0,12,208.3,197.8)" />
<use xlink:href="#f0_m" transform="matrix(12,0,0,12,217.8,197.8)" />
<use xlink:href="#f0_p" transform="matrix(12,0,0,12,227.3,197.8)" />
</g>
</g>
<g fill="#000000" >
<use xlink:href="#f1_2g" transform="matrix(6.9,0,0,6.9,169.8,202.5)" />
<use xlink:href="#f1_11" transform="matrix(12,0,0,12,160.2,197.8)" />
<use xlink:href="#f2_x" transform="matrix(12,0,0,12,180,197.8)" />
<use xlink:href="#f0_k" transform="matrix(6.8,0,0,6.8,209,241)" />
</g>
<g clip-path="url(#c2_14)">
<g fill="#000000" >
<use xlink:href="#f1_2g" transform="matrix(6.8,0,0,6.8,250.1,228.2)" />
</g>
</g>
<g fill="#000000" >
<use xlink:href="#f1_2g" transform="matrix(6.8,0,0,6.8,170.9,241)" />
</g>
<g clip-path="url(#c3_14)">
<g fill="#000000" >
<use xlink:href="#f1_11" transform="matrix(11.8,0,0,11.8,160.6,236.3)" />
<use xlink:href="#f1_11" transform="matrix(11.8,0,0,11.8,198.7,236.3)" />
<use xlink:href="#f1_21" transform="matrix(11.8,0,0,11.8,226.6,236.3)" />
</g>
</g>
<g clip-path="url(#c4_14)">
<g fill="#000000" >
<use xlink:href="#f3_28" transform="matrix(6.8,0,-1.8,6.8,243.1,228.2)" />
</g>
</g>
<g clip-path="url(#c5_14)">
<g fill="#000000" >
<use xlink:href="#f2_h" transform="matrix(6.8,0,0,6.8,236.1,228.2)" />
</g>
</g>
<g clip-path="url(#c6_14)">
<g fill="#000000" >
<use xlink:href="#f2_x" transform="matrix(11.8,0,0,11.8,181.5,236.3)" />
<use xlink:href="#f2_49" transform="matrix(11.8,0,0,11.8,219.3,236.3)" />
</g>
</g>
<path d="M258.5,271.8h24.3" class="g0_14" />
<g clip-path="url(#c7_14)">
<g fill="#000000" >
<use xlink:href="#f0_k" transform="matrix(6.9,0,0,6.9,258.9,267.8)" />
<use xlink:href="#f0_i" transform="matrix(6.9,0,0,6.9,264.4,267.8)" />
<use xlink:href="#f0_q" transform="matrix(6.9,0,0,6.9,266.9,267.8)" />
<use xlink:href="#f0_t" transform="matrix(6.9,0,0,6.9,272.4,267.8)" />
<use xlink:href="#f0_n" transform="matrix(6.9,0,0,6.9,277.6,267.8)" />
</g>
</g>
<g fill="#000000" >
<use xlink:href="#f0_l" transform="matrix(6.9,0,0,6.9,265.1,282.8)" />
<use xlink:href="#f0_k" transform="matrix(6.9,0,0,6.9,270.2,282.8)" />
<use xlink:href="#f0_n" transform="matrix(12,0,0,12,158,288.7)" />
<use xlink:href="#f0_i" transform="matrix(12,0,0,12,167.2,288.7)" />
<use xlink:href="#f0_l" transform="matrix(12,0,0,12,172,288.7)" />
<use xlink:href="#f0_m" transform="matrix(12,0,0,12,181.1,288.7)" />
<use xlink:href="#f0_p" transform="matrix(12,0,0,12,190.3,288.7)" />
<use xlink:href="#f0_l" transform="matrix(12,0,0,12,215.6,288.7)" />
<use xlink:href="#f0_k" transform="matrix(12,0,0,12,224.8,288.7)" />
<use xlink:href="#f0_k" transform="matrix(12,0,0,12,233.9,288.7)" />
</g>
<g clip-path="url(#c8_14)">
<g fill="#000000" >
<use xlink:href="#f1_21" transform="matrix(12,0,0,12,243.1,288.7)" />
<use xlink:href="#f1_2g" transform="matrix(12,0,0,12,283.8,288.7)" />
</g>
</g>
<g fill="#000000" >
<use xlink:href="#f2_h" transform="matrix(6.9,0,0,6.9,251.9,274.4)" />
<use xlink:href="#f2_x" transform="matrix(12,0,0,12,203.1,288.7)" />
</g>
<path d="M158.9,330.1h42" class="g1_14" />
<g clip-path="url(#c9_14)">
<g fill="#000000" >
<use xlink:href="#f0_k" transform="matrix(6.9,0,0,6.9,234.3,326.5)" />
<use xlink:href="#f0_i" transform="matrix(6.9,0,0,6.9,239.4,326.5)" />
<use xlink:href="#f0_k" transform="matrix(6.9,0,0,6.9,242.4,326.5)" />
<use xlink:href="#f0_q" transform="matrix(6.9,0,0,6.9,247.5,326.5)" />
<use xlink:href="#f0_t" transform="matrix(6.9,0,0,6.9,252.6,326.5)" />
<use xlink:href="#f0_n" transform="matrix(6.9,0,0,6.9,258.1,326.5)" />
</g>
</g>
<g fill="#000000" >
<use xlink:href="#f0_n" transform="matrix(11.9,0,0,11.9,159.5,323.2)" />
<use xlink:href="#f0_i" transform="matrix(11.9,0,0,11.9,168.7,323.2)" />
<use xlink:href="#f0_l" transform="matrix(11.9,0,0,11.9,173.1,323.2)" />
<use xlink:href="#f0_m" transform="matrix(11.9,0,0,11.9,182.2,323.2)" />
<use xlink:href="#f0_p" transform="matrix(11.9,0,0,11.9,191.4,323.2)" />
</g>
<g clip-path="url(#c10_14)">
<g fill="#000000" >
<use xlink:href="#f0_l" transform="matrix(11.9,0,0,11.9,165.4,348.8)" />
<use xlink:href="#f0_k" transform="matrix(11.9,0,0,11.9,174.5,348.8)" />
<use xlink:href="#f0_k" transform="matrix(11.9,0,0,11.9,183.7,348.8)" />
</g>
</g>
<g clip-path="url(#c11_14)">
<g fill="#000000" >
<use xlink:href="#f1_2g" transform="matrix(6.9,0,0,6.9,263.6,326.5)" />
</g>
</g>
<g fill="#000000" >
<use xlink:href="#f1_21" transform="matrix(11.9,0,0,11.9,219.6,334.5)" />
<use xlink:href="#f2_h" transform="matrix(6.9,0,0,6.9,228.4,326.5)" />
<use xlink:href="#f2_x" transform="matrix(11.9,0,0,11.9,205.7,334.5)" />
</g>
<path d="M158.9,391.2h42.3" class="g2_14" />
<g clip-path="url(#c12_14)">
<g fill="#000000" >
<use xlink:href="#f0_k" transform="matrix(6.9,0,0,6.9,228.8,387.7)" />
<use xlink:href="#f0_i" transform="matrix(6.9,0,0,6.9,233.9,387.7)" />
<use xlink:href="#f0_k" transform="matrix(6.9,0,0,6.9,236.9,387.7)" />
<use xlink:href="#f0_q" transform="matrix(6.9,0,0,6.9,242,387.7)" />
<use xlink:href="#f0_t" transform="matrix(6.9,0,0,6.9,247.5,387.7)" />
<use xlink:href="#f0_n" transform="matrix(6.9,0,0,6.9,252.7,387.7)" />
</g>
</g>
<g fill="#000000" >
<use xlink:href="#f0_l" transform="matrix(12,0,0,12,165.4,384.4)" />
<use xlink:href="#f0_k" transform="matrix(12,0,0,12,174.9,384.4)" />
<use xlink:href="#f0_k" transform="matrix(12,0,0,12,184,384.4)" />
</g>
<g clip-path="url(#c13_14)">
<g fill="#000000" >
<use xlink:href="#f0_n" transform="matrix(12,0,0,12,159.5,410.1)" />
<use xlink:href="#f0_i" transform="matrix(12,0,0,12,168.7,410.1)" />
<use xlink:href="#f0_l" transform="matrix(12,0,0,12,173.4,410.1)" />
<use xlink:href="#f0_m" transform="matrix(12,0,0,12,182.6,410.1)" />
<use xlink:href="#f0_p" transform="matrix(12,0,0,12,191.7,410.1)" />
</g>
</g>
<g clip-path="url(#c14_14)">
<g fill="#000000" >
<use xlink:href="#f1_2g" transform="matrix(6.9,0,0,6.9,258.1,387.7)" />
</g>
</g>
<g fill="#000000" >
<use xlink:href="#f1_21" transform="matrix(12,0,0,12,220,395.8)" />
<use xlink:href="#f2_x" transform="matrix(12,0,0,12,206.1,395.8)" />
</g>
<path d="M189.7,452.2h39.6" class="g3_14" />
<g fill="#000000" >
<use xlink:href="#f0_l" transform="matrix(11.9,0,0,11.9,195.8,445.3)" />
<use xlink:href="#f0_k" transform="matrix(11.9,0,0,11.9,204.6,445.3)" />
<use xlink:href="#f0_k" transform="matrix(11.9,0,0,11.9,213.1,445.3)" />
</g>
<g clip-path="url(#c15_14)">
<g fill="#000000" >
<use xlink:href="#f0_28" transform="matrix(11.9,0,0,11.9,158,456.6)" />
<use xlink:href="#f0_2b" transform="matrix(11.9,0,0,11.9,162.8,456.6)" />
<use xlink:href="#f0_23" transform="matrix(11.9,0,0,11.9,171.3,456.6)" />
<use xlink:href="#f0_k" transform="matrix(11.9,0,0,11.9,247.1,456.6)" />
<use xlink:href="#f0_i" transform="matrix(11.9,0,0,11.9,256,456.6)" />
<use xlink:href="#f0_k" transform="matrix(11.9,0,0,11.9,260,456.6)" />
<use xlink:href="#f0_q" transform="matrix(11.9,0,0,11.9,268.8,456.6)" />
<use xlink:href="#f0_t" transform="matrix(11.9,0,0,11.9,277.3,456.6)" />
<use xlink:href="#f0_n" transform="matrix(11.9,0,0,11.9,286.1,456.6)" />
</g>
</g>
<g clip-path="url(#c16_14)">
<g fill="#000000" >
<use xlink:href="#f0_n" transform="matrix(11.9,0,0,11.9,190.3,470.9)" />
<use xlink:href="#f0_i" transform="matrix(11.9,0,0,11.9,198.7,470.9)" />
<use xlink:href="#f0_l" transform="matrix(11.9,0,0,11.9,203.2,470.9)" />
<use xlink:href="#f0_m" transform="matrix(11.9,0,0,11.9,212,470.9)" />
<use xlink:href="#f0_p" transform="matrix(11.9,0,0,11.9,220.4,470.9)" />
</g>
</g>
<g fill="#000000" >
<use xlink:href="#f1_21" transform="matrix(6.9,0,0,6.9,180.8,461.4)" />
</g>
<g clip-path="url(#c17_14)">
<g fill="#000000" >
<use xlink:href="#f1_2g" transform="matrix(11.9,0,0,11.9,293.7,456.6)" />
</g>
</g>
<g fill="#000000" >
<use xlink:href="#f2_x" transform="matrix(11.9,0,0,11.9,233.9,456.6)" />
</g>
<path d="M189.6,516.1h81.2" class="g4_14" />
<g clip-path="url(#c18_14)">
<g fill="#000000" >
<use xlink:href="#f0_n" transform="matrix(7,0,0,7,257.4,501)" />
<use xlink:href="#f0_m" transform="matrix(7,0,0,7,262.9,501)" />
</g>
</g>
<g clip-path="url(#c19_14)">
<g fill="#000000" >
<use xlink:href="#f0_l" transform="matrix(7,0,0,7,256.7,513.8)" />
<use xlink:href="#f0_k" transform="matrix(7,0,0,7,262.2,513.8)" />
</g>
</g>
<g fill="#000000" >
<use xlink:href="#f0_m" transform="matrix(7,0,0,7,163.5,525.2)" />
</g>
<g clip-path="url(#c20_14)">
<g fill="#000000" >
<use xlink:href="#f0_m" transform="matrix(12,0,0,12,190.7,509.1)" />
<use xlink:href="#f0_i" transform="matrix(12,0,0,12,199.8,509.1)" />
<use xlink:href="#f0_n" transform="matrix(12,0,0,12,204.6,509.1)" />
<use xlink:href="#f0_k" transform="matrix(12,0,0,12,213.8,509.1)" />
<use xlink:href="#f0_n" transform="matrix(12,0,0,12,223,509.1)" />
<use xlink:href="#f0_28" transform="matrix(12,0,0,12,233.6,509.1)" />
<use xlink:href="#f0_2b" transform="matrix(12,0,0,12,238.4,509.1)" />
<use xlink:href="#f0_23" transform="matrix(12,0,0,12,247.5,509.1)" />
</g>
</g>
<g clip-path="url(#c21_14)">
<g fill="#000000" >
<use xlink:href="#f0_k" transform="matrix(12,0,0,12,205.3,535.1)" />
<use xlink:href="#f0_i" transform="matrix(12,0,0,12,214.5,535.1)" />
<use xlink:href="#f0_k" transform="matrix(12,0,0,12,219.3,535.1)" />
<use xlink:href="#f0_q" transform="matrix(12,0,0,12,228.5,535.1)" />
<use xlink:href="#f0_t" transform="matrix(12,0,0,12,237.6,535.1)" />
<use xlink:href="#f0_n" transform="matrix(12,0,0,12,246.8,535.1)" />
</g>
</g>
<g fill="#000000" >
<use xlink:href="#f1_2g" transform="matrix(12,0,0,12,158,520.8)" />
<use xlink:href="#f2_x" transform="matrix(12,0,0,12,174.9,520.8)" />
<use xlink:href="#f1_2g" transform="matrix(12,0,0,12,155.8,563)" />
<use xlink:href="#f0_x" transform="matrix(12,0,0,12,165.4,563)" />
<use xlink:href="#f0_p" transform="matrix(12,0,0,12,179.7,563)" />
<use xlink:href="#f0_k" transform="matrix(12,0,0,12,188.9,563)" />
<use xlink:href="#f0_i" transform="matrix(12,0,0,12,198,563)" />
<use xlink:href="#f0_l" transform="matrix(12,0,0,12,202.6,563)" />
<use xlink:href="#f0_2l" transform="matrix(12,0,0,12,216.2,563)" />
<use xlink:href="#f0_21" transform="matrix(12,0,0,12,225.4,563)" />
<use xlink:href="#f0_1x" transform="matrix(12,0,0,12,233.5,563)" />
<use xlink:href="#f0_2e" transform="matrix(12,0,0,12,241.7,563)" />
<use xlink:href="#f0_2f" transform="matrix(12,0,0,12,247.8,563)" />
<use xlink:href="#f0_i" transform="matrix(12,0,0,12,254.9,563)" />
<use xlink:href="#f0_m" transform="matrix(12,0,0,12,64.9,644.4)" />
<use xlink:href="#f0_k" transform="matrix(12,0,0,12,74.1,644.4)" />
<use xlink:href="#f0_i" transform="matrix(12,0,0,12,83.2,644.4)" />
<use xlink:href="#f0_c" transform="matrix(12,0,0,12,117,644.4)" />
<use xlink:href="#f0_1x" transform="matrix(12,0,0,12,122.5,644.4)" />
<use xlink:href="#f0_d" transform="matrix(12,0,0,12,130.2,644.4)" />
<use xlink:href="#f0_11" transform="matrix(12,0,0,12,155.8,644.4)" />
<use xlink:href="#f0_2f" transform="matrix(12,0,0,12,171.6,644.4)" />
<use xlink:href="#f0_2g" transform="matrix(12,0,0,12,178.3,644.4)" />
<use xlink:href="#f0_2h" transform="matrix(12,0,0,12,183.4,644.4)" />
<use xlink:href="#f0_20" transform="matrix(12,0,0,12,192.2,644.4)" />
<use xlink:href="#f0_21" transform="matrix(12,0,0,12,200.6,644.4)" />
<use xlink:href="#f0_2a" transform="matrix(12,0,0,12,208.4,644.4)" />
<use xlink:href="#f0_2g" transform="matrix(12,0,0,12,216.8,644.4)" />
<use xlink:href="#f0_2j" transform="matrix(12,0,0,12,224.9,644.4)" />
<use xlink:href="#f0_1x" transform="matrix(12,0,0,12,237.7,644.4)" />
<use xlink:href="#f0_2a" transform="matrix(12,0,0,12,245.5,644.4)" />
<use xlink:href="#f0_2g" transform="matrix(12,0,0,12,253.9,644.4)" />
<use xlink:href="#f0_2f" transform="matrix(12,0,0,12,259,644.4)" />
<use xlink:href="#f0_2g" transform="matrix(12,0,0,12,268.6,644.4)" />
<use xlink:href="#f0_2b" transform="matrix(12,0,0,12,273.7,644.4)" />
<use xlink:href="#f0_2h" transform="matrix(12,0,0,12,286.2,644.4)" />
<use xlink:href="#f0_2f" transform="matrix(12,0,0,12,295,644.4)" />
<use xlink:href="#f0_21" transform="matrix(12,0,0,12,301.7,644.4)" />
<use xlink:href="#f0_2g" transform="matrix(12,0,0,12,312.7,644.4)" />
<use xlink:href="#f0_2j" transform="matrix(12,0,0,12,317.8,644.4)" />
<use xlink:href="#f0_2b" transform="matrix(12,0,0,12,330.7,644.4)" />
<use xlink:href="#f0_2c" transform="matrix(12,0,0,12,342.4,644.4)" />
<use xlink:href="#f0_h" transform="matrix(12,0,0,12,351.3,644.4)" />
<use xlink:href="#f0_2a" transform="matrix(12,0,0,12,357.1,644.4)" />
<use xlink:href="#f0_26" transform="matrix(12,0,0,12,368.9,644.4)" />
<use xlink:href="#f0_2h" transform="matrix(12,0,0,12,373,644.4)" />
<use xlink:href="#f0_2a" transform="matrix(12,0,0,12,381.8,644.4)" />
<use xlink:href="#f0_1z" transform="matrix(12,0,0,12,390.2,644.4)" />
<use xlink:href="#f0_2g" transform="matrix(12,0,0,12,397.9,644.4)" />
<use xlink:href="#f0_25" transform="matrix(12,0,0,12,402.7,644.4)" />
<use xlink:href="#f0_2b" transform="matrix(12,0,0,12,406.8,644.4)" />
<use xlink:href="#f0_2a" transform="matrix(12,0,0,12,415.9,644.4)" />
<use xlink:href="#f0_20" transform="matrix(12,0,0,12,427.7,644.4)" />
<use xlink:href="#f0_25" transform="matrix(12,0,0,12,436.5,644.4)" />
<use xlink:href="#f0_2b" transform="matrix(12,0,0,12,440.6,644.4)" />
<use xlink:href="#f0_20" transform="matrix(12,0,0,12,449.7,644.4)" />
<use xlink:href="#f0_21" transform="matrix(12,0,0,12,458.6,644.4)" />
<use xlink:href="#f0_2f" transform="matrix(12,0,0,12,466.3,644.4)" />
<use xlink:href="#f0_2g" transform="matrix(12,0,0,12,475.9,644.4)" />
<use xlink:href="#f0_2b" transform="matrix(12,0,0,12,481,644.4)" />
<use xlink:href="#f0_1z" transform="matrix(12,0,0,12,493.1,644.4)" />
<use xlink:href="#f0_2b" transform="matrix(12,0,0,12,500.8,644.4)" />
<use xlink:href="#f0_2a" transform="matrix(12,0,0,12,510,644.4)" />
<use xlink:href="#f0_2i" transform="matrix(12,0,0,12,518.4,644.4)" />
<use xlink:href="#f0_21" transform="matrix(12,0,0,12,526.9,644.4)" />
<use xlink:href="#f0_2e" transform="matrix(12,0,0,12,534.6,644.4)" />
<use xlink:href="#f0_2g" transform="matrix(12,0,0,12,540.5,644.4)" />
<use xlink:href="#f0_1x" transform="matrix(12,0,0,12,548.6,644.4)" />
<use xlink:href="#f0_28" transform="matrix(12,0,0,12,556.3,644.4)" />
<use xlink:href="#f0_2g" transform="matrix(12,0,0,12,560.4,644.4)" />
<use xlink:href="#f0_21" transform="matrix(12,0,0,12,565.5,644.4)" />
<use xlink:href="#f0_2e" transform="matrix(12,0,0,12,573.2,644.4)" />
<use xlink:href="#f0_2a" transform="matrix(12,0,0,12,579.1,644.4)" />
<use xlink:href="#f0_1x" transform="matrix(12,0,0,12,587.5,644.4)" />
<use xlink:href="#f0_2g" transform="matrix(12,0,0,12,595.3,644.4)" />
<use xlink:href="#f0_25" transform="matrix(12,0,0,12,600.4,644.4)" />
<use xlink:href="#f0_2a" transform="matrix(12,0,0,12,604.1,644.4)" />
<use xlink:href="#f0_23" transform="matrix(12,0,0,12,612.5,644.4)" />
<use xlink:href="#f0_1z" transform="matrix(12,0,0,12,624.7,644.4)" />
<use xlink:href="#f0_2h" transform="matrix(12,0,0,12,632.4,644.4)" />
<use xlink:href="#f0_2e" transform="matrix(12,0,0,12,641.2,644.4)" />
<use xlink:href="#f0_2e" transform="matrix(12,0,0,12,647.1,644.4)" />
<use xlink:href="#f0_21" transform="matrix(12,0,0,12,653,644.4)" />
<use xlink:href="#f0_2a" transform="matrix(12,0,0,12,660.7,644.4)" />
<use xlink:href="#f0_2g" transform="matrix(12,0,0,12,669.1,644.4)" />
<use xlink:href="#f0_25" transform="matrix(12,0,0,12,677.2,644.4)" />
<use xlink:href="#f0_2a" transform="matrix(12,0,0,12,681.3,644.4)" />
<use xlink:href="#f0_2g" transform="matrix(12,0,0,12,689.7,644.4)" />
<use xlink:href="#f0_2b" transform="matrix(12,0,0,12,694.9,644.4)" />
<use xlink:href="#f0_20" transform="matrix(12,0,0,12,707,644.4)" />
<use xlink:href="#f0_25" transform="matrix(12,0,0,12,715.8,644.4)" />
<use xlink:href="#f0_2e" transform="matrix(12,0,0,12,719.8,644.4)" />
<use xlink:href="#f0_21" transform="matrix(12,0,0,12,725.7,644.4)" />
<use xlink:href="#f0_1z" transform="matrix(12,0,0,12,733.1,644.4)" />
<use xlink:href="#f0_2g" transform="matrix(12,0,0,12,740.8,644.4)" />
<use xlink:href="#f0_1z" transform="matrix(12,0,0,12,749.2,644.4)" />
<use xlink:href="#f0_2h" transform="matrix(12,0,0,12,757,644.4)" />
<use xlink:href="#f0_2e" transform="matrix(12,0,0,12,765.8,644.4)" />
<use xlink:href="#f0_2e" transform="matrix(12,0,0,12,771.7,644.4)" />
<use xlink:href="#f0_21" transform="matrix(12,0,0,12,777.5,644.4)" />
<use xlink:href="#f0_2a" transform="matrix(12,0,0,12,785.3,644.4)" />
<use xlink:href="#f0_2g" transform="matrix(12,0,0,12,793.7,644.4)" />
<use xlink:href="#f0_i" transform="matrix(12,0,0,12,798.5,644.4)" />
<use xlink:href="#f0_14" transform="matrix(12,0,0,12,806.2,644.4)" />
<use xlink:href="#f0_2e" transform="matrix(12,0,0,12,817.7,644.4)" />
<use xlink:href="#f0_1x" transform="matrix(12,0,0,12,823.6,644.4)" />
<use xlink:href="#f0_2j" transform="matrix(12,0,0,12,831.3,644.4)" />
<use xlink:href="#f0_2g" transform="matrix(12,0,0,12,155.8,667.1)" />
<use xlink:href="#f0_24" transform="matrix(12,0,0,12,161,667.1)" />
<use xlink:href="#f0_21" transform="matrix(12,0,0,12,169.8,667.1)" />
<use xlink:href="#f0_28" transform="matrix(12,0,0,12,180.8,667.1)" />
<use xlink:href="#f0_1x" transform="matrix(12,0,0,12,185.2,667.1)" />
<use xlink:href="#f0_1y" transform="matrix(12,0,0,12,193,667.1)" />
<use xlink:href="#f0_21" transform="matrix(12,0,0,12,201.4,667.1)" />
<use xlink:href="#f0_28" transform="matrix(12,0,0,12,209.5,667.1)" />
<use xlink:href="#f0_28" transform="matrix(12,0,0,12,213.5,667.1)" />
<use xlink:href="#f0_21" transform="matrix(12,0,0,12,217.6,667.1)" />
<use xlink:href="#f0_20" transform="matrix(12,0,0,12,225.7,667.1)" />
<use xlink:href="#f0_1z" transform="matrix(12,0,0,12,237.4,667.1)" />
<use xlink:href="#f0_25" transform="matrix(12,0,0,12,245.5,667.1)" />
<use xlink:href="#f0_2e" transform="matrix(12,0,0,12,249.6,667.1)" />
<use xlink:href="#f0_1z" transform="matrix(12,0,0,12,255.5,667.1)" />
<use xlink:href="#f0_2h" transform="matrix(12,0,0,12,263.5,667.1)" />
<use xlink:href="#f0_25" transform="matrix(12,0,0,12,272.4,667.1)" />
<use xlink:href="#f0_2g" transform="matrix(12,0,0,12,276.4,667.1)" />
<use xlink:href="#f0_20" transform="matrix(12,0,0,12,285.2,667.1)" />
<use xlink:href="#f0_25" transform="matrix(12,0,0,12,294,667.1)" />
<use xlink:href="#f0_1x" transform="matrix(12,0,0,12,298.5,667.1)" />
<use xlink:href="#f0_23" transform="matrix(12,0,0,12,306.2,667.1)" />
<use xlink:href="#f0_2e" transform="matrix(12,0,0,12,315,667.1)" />
<use xlink:href="#f0_1x" transform="matrix(12,0,0,12,321.2,667.1)" />
<use xlink:href="#f0_29" transform="matrix(12,0,0,12,328.9,667.1)" />
<use xlink:href="#f0_2f" transform="matrix(12,0,0,12,345.8,667.1)" />
<use xlink:href="#f0_24" transform="matrix(12,0,0,12,352.5,667.1)" />
<use xlink:href="#f0_21" transform="matrix(12,0,0,12,360.9,667.1)" />
<use xlink:href="#f0_2j" transform="matrix(12,0,0,12,372.3,667.1)" />
<use xlink:href="#f0_2b" transform="matrix(12,0,0,12,385.2,667.1)" />
<use xlink:href="#f0_2h" transform="matrix(12,0,0,12,394.3,667.1)" />
<use xlink:href="#f0_28" transform="matrix(12,0,0,12,403.5,667.1)" />
<use xlink:href="#f0_20" transform="matrix(12,0,0,12,407.5,667.1)" />
<use xlink:href="#f0_2h" transform="matrix(12,0,0,12,419.7,667.1)" />
<use xlink:href="#f0_2f" transform="matrix(12,0,0,12,428.5,667.1)" />
<use xlink:href="#f0_21" transform="matrix(12,0,0,12,435.1,667.1)" />
<use xlink:href="#f0_1x" transform="matrix(12,0,0,12,446.5,667.1)" />
<use xlink:href="#f0_2a" transform="matrix(12,0,0,12,454.2,667.1)" />
<use xlink:href="#f0_20" transform="matrix(12,0,0,12,463,667.1)" />
<use xlink:href="#f0_21" transform="matrix(12,0,0,12,475.2,667.1)" />
<use xlink:href="#f0_2k" transform="matrix(12,0,0,12,483.3,667.1)" />
<use xlink:href="#f0_2c" transform="matrix(12,0,0,12,491.7,667.1)" />
<use xlink:href="#f0_28" transform="matrix(12,0,0,12,500.5,667.1)" />
<use xlink:href="#f0_1x" transform="matrix(12,0,0,12,504.9,667.1)" />
<use xlink:href="#f0_25" transform="matrix(12,0,0,12,512.7,667.1)" />
<use xlink:href="#f0_2a" transform="matrix(12,0,0,12,516.7,667.1)" />
<use xlink:href="#f0_24" transform="matrix(12,0,0,12,528.8,667.1)" />
<use xlink:href="#f0_2b" transform="matrix(12,0,0,12,537.3,667.1)" />
<use xlink:href="#f0_2j" transform="matrix(12,0,0,12,546.8,667.1)" />
<use xlink:href="#f0_25" transform="matrix(12,0,0,12,562.6,667.1)" />
<use xlink:href="#f0_2g" transform="matrix(12,0,0,12,567,667.1)" />
<use xlink:href="#f0_2j" transform="matrix(12,0,0,12,575.5,667.1)" />
<use xlink:href="#f0_2b" transform="matrix(12,0,0,12,588.7,667.1)" />
<use xlink:href="#f0_2e" transform="matrix(12,0,0,12,597.9,667.1)" />
<use xlink:href="#f0_27" transform="matrix(12,0,0,12,603.8,667.1)" />
<use xlink:href="#f0_2f" transform="matrix(12,0,0,12,612.9,667.1)" />
<use xlink:href="#f0_i" transform="matrix(12,0,0,12,619.5,667.1)" />
<use xlink:href="#f0_11" transform="matrix(12,0,0,12,64.9,695)" />
<use xlink:href="#f0_2a" transform="matrix(12,0,0,12,77.4,695)" />
<use xlink:href="#f0_2f" transform="matrix(12,0,0,12,85.8,695)" />
<use xlink:href="#f0_i" transform="matrix(12,0,0,12,92.4,695)" />
<use xlink:href="#f0_c" transform="matrix(12,0,0,12,117,695)" />
<use xlink:href="#f0_1x" transform="matrix(12,0,0,12,122.5,695)" />
<use xlink:href="#f0_d" transform="matrix(12,0,0,12,130.2,695)" />
<use xlink:href="#f0_16" transform="matrix(12,0,0,12,159.2,695)" />
<use xlink:href="#f0_2h" transform="matrix(12,0,0,12,168.7,695)" />
<use xlink:href="#f0_28" transform="matrix(12,0,0,12,177.5,695)" />
<use xlink:href="#f0_28" transform="matrix(12,0,0,12,181.9,695)" />
<use xlink:href="#f0_2j" transform="matrix(12,0,0,12,188.9,695)" />
<use xlink:href="#f0_1x" transform="matrix(12,0,0,12,201.8,695)" />
<use xlink:href="#f0_2i" transform="matrix(12,0,0,12,209.5,695)" />
<use xlink:href="#f0_21" transform="matrix(12,0,0,12,218,695)" />
<use xlink:href="#f0_2e" transform="matrix(12,0,0,12,229.4,695)" />
<use xlink:href="#f0_21" transform="matrix(12,0,0,12,235.2,695)" />
<use xlink:href="#f0_1z" transform="matrix(12,0,0,12,243,695)" />
<use xlink:href="#f0_2g" transform="matrix(12,0,0,12,250.7,695)" />
<use xlink:href="#f0_25" transform="matrix(12,0,0,12,255.8,695)" />
<use xlink:href="#f0_22" transform="matrix(12,0,0,12,259.9,695)" />
<use xlink:href="#f0_25" transform="matrix(12,0,0,12,265,695)" />
<use xlink:href="#f0_21" transform="matrix(12,0,0,12,269.4,695)" />
<use xlink:href="#f0_2e" transform="matrix(12,0,0,12,277.1,695)" />
<use xlink:href="#f0_u" transform="matrix(12,0,0,12,286.3,695)" />
</g>
<image preserveAspectRatio="none" x="122" y="725" width="389" height="166" xlink:href="img/1.png" />
<g fill="#000000" >
<use xlink:href="#f4_l" transform="matrix(8,0,0,8,785.4,1264.3)" />
<use xlink:href="#f4_o" transform="matrix(8,0,0,8,792.2,1264.3)" />
</g>
<defs>
<path d="M474,-326c0,0,-112,57,-188,133c0,0,-107,108,-165,254c0,0,-58,147,-58,305c0,0,0,231,114,421c0,0,114,191,297,273v-31c0,0,-92,-51,-151,-139c0,0,-59,-88,-88,-223c0,0,-30,-135,-30,-281c0,0,0,-160,25,-290c0,0,20,-102,47,-164c0,0,28,-62,75,-120c0,0,47,-57,122,-109v-29Z" 
id="f0_c"
transform="scale(0.001,-0.001)" />

<path d="M397,34c0,0,67,0,126,75c0,0,58,74,58,216c0,0,0,131,-58,201c0,0,-59,70,-133,70c0,0,-39,0,-79,-20c0,0,-29,-14,-75,-59V109c0,0,37,-37,78,-56c0,0,40,-19,83,-19ZM358,-20c0,0,-59,0,-121,21c0,0,-61,22,-126,65V773c0,0,0,117,-5,144c0,0,-6,27,-18,37c0,0,-12,9,-29,9c0,0,-21,0,-53,-12l-9,27l205,83h34V564c0,0,98,139,213,139c0,0,105,0,183,-90c0,0,78,-90,78,-245c0,0,0,-182,-121,-293c0,0,-103,-95,-231,-95Z" 
id="f0_1y"
transform="scale(0.001,-0.001)" />

<path d="M35,-326v29c0,0,92,51,151,139c0,0,60,87,89,221c0,0,28,136,28,282c0,0,0,159,-24,290c0,0,-19,103,-47,165c0,0,-28,62,-75,119c0,0,-46,57,-122,110v31c0,0,113,-56,188,-132c0,0,107,-109,165,-255c0,0,58,-147,58,-306c0,0,0,-231,-114,-420c0,0,-113,-191,-297,-273Z" 
id="f0_d"
transform="scale(0.001,-0.001)" />

<path d="M678,393L506,802L330,393ZM11,0V27c0,0,63,12,82,30c0,0,38,35,84,145l356,832h27L912,193c0,0,43,-101,77,-132c0,0,35,-30,97,-34V0H687V27c0,0,60,3,82,21c0,0,21,17,21,41c0,0,0,33,-30,104L700,338H307L239,179c0,0,-26,-59,-26,-88c0,0,0,-23,22,-41c0,0,22,-17,95,-23V0Z" 
id="f0_11"
transform="scale(0.001,-0.001)" />

<path d="M17,0V26c0,0,52,0,77,17c0,0,19,12,26,38c0,0,4,13,4,73V419c0,0,0,119,-5,142c0,0,-4,23,-17,33c0,0,-13,11,-33,11c0,0,-23,0,-52,-11l-7,26l207,83h31V549c0,0,86,154,176,154c0,0,41,0,68,-25c0,0,27,-25,27,-58c0,0,0,-29,-20,-49c0,0,-19,-20,-46,-20c0,0,-26,0,-58,25c0,0,-33,26,-48,26c0,0,-14,0,-29,-15c0,0,-34,-30,-70,-101V159c0,0,0,-56,15,-85c0,0,9,-20,34,-34c0,0,24,-14,71,-14V0Z" 
id="f0_2e"
transform="scale(0.001,-0.001)" />

<path d="M286,72c0,0,57,0,149,75V407c0,0,-113,-45,-145,-64c0,0,-59,-32,-85,-68c0,0,-25,-36,-25,-78c0,0,0,-54,32,-89c0,0,32,-36,74,-36ZM217,-13c0,0,-71,0,-116,48c0,0,-46,48,-46,127c0,0,0,50,22,87c0,0,31,50,106,95c0,0,76,45,252,109v26c0,0,0,102,-32,140c0,0,-32,38,-94,38c0,0,-47,0,-74,-25c0,0,-28,-25,-28,-58l1,-43c0,0,0,-34,-17,-53c0,0,-18,-18,-47,-18c0,0,-28,0,-45,19c0,0,-18,19,-18,53c0,0,0,64,66,117c0,0,65,54,184,54c0,0,91,0,149,-31c0,0,44,-23,65,-72c0,0,13,-32,13,-131V238c0,0,0,-98,4,-120c0,0,4,-22,12,-29c0,0,9,-8,20,-8c0,0,12,0,21,5c0,0,16,10,61,55V99C676,99,592,-12,516,-12c0,0,-37,0,-58,24c0,0,-22,26,-23,86C435,98,330,17,303,5c0,0,-40,-18,-86,-18Z" 
id="f0_1x"
transform="scale(0.001,-0.001)" />

<path d="M399,62c0,0,68,0,131,68V481c0,0,-5,51,-27,93c0,0,-22,42,-59,63c0,0,-37,21,-72,21c0,0,-65,0,-117,-59c0,0,-67,-77,-67,-226c0,0,0,-151,65,-231c0,0,66,-80,146,-80ZM330,-20c0,0,-112,0,-196,93c0,0,-83,94,-83,240c0,0,0,147,92,269c0,0,93,122,238,122c0,0,90,0,149,-58V773c0,0,0,117,-6,144c0,0,-5,27,-17,37c0,0,-12,9,-30,9c0,0,-20,0,-52,-12l-9,27l204,83h33V270c0,0,0,-120,6,-146c0,0,5,-27,18,-37c0,0,12,-11,28,-11c0,0,21,0,54,13l9,-26L564,-20H530V78C530,78,480,25,432,2c0,0,-47,-22,-102,-22Z" 
id="f0_20"
transform="scale(0.001,-0.001)" />

<path d="M55,0V26c0,0,50,0,67,10c0,0,17,10,27,32c0,0,10,23,10,86V418c0,0,0,111,-6,144c0,0,-6,24,-17,33c0,0,-11,10,-30,10c0,0,-21,0,-51,-11L45,620l206,83h33V154c0,0,0,-64,9,-85c0,0,9,-22,27,-32c0,0,19,-11,67,-11V0ZM222,909c0,0,-32,0,-54,23c0,0,-22,22,-22,53c0,0,0,32,22,54c0,0,22,22,54,22c0,0,31,0,53,-22c0,0,22,-22,22,-54c0,0,0,-31,-22,-53c0,0,-22,-23,-53,-23Z" 
id="f0_25"
transform="scale(0.001,-0.001)" />

<path d="M406,32c0,0,72,0,119,60c0,0,47,59,47,205c0,0,0,181,-78,286c0,0,-53,71,-135,71c0,0,-40,0,-79,-23c0,0,-40,-24,-65,-83c0,0,-24,-58,-24,-151c0,0,0,-149,59,-257c0,0,59,-108,156,-108ZM374,-20c0,0,-154,0,-245,122c0,0,-77,104,-77,233c0,0,0,94,46,187c0,0,47,92,123,137c0,0,76,44,161,44c0,0,155,0,249,-118c0,0,80,-100,80,-231c0,0,0,-91,-44,-185C667,169,623,75,546,27c0,0,-77,-47,-172,-47Z" 
id="f0_2b"
transform="scale(0.001,-0.001)" />

<path d="M342,-20c0,0,-116,0,-203,97c0,0,-86,98,-86,264c0,0,0,161,96,261c0,0,95,101,230,101c0,0,100,0,165,-53c0,0,65,-54,65,-111c0,0,0,-29,-18,-46c0,0,-18,-18,-51,-18c0,0,-44,0,-66,29c0,0,-13,15,-17,59c0,0,-4,45,-30,68c0,0,-26,22,-73,22c0,0,-74,0,-120,-55c0,0,-60,-73,-60,-193c0,0,0,-122,60,-216c0,0,60,-93,162,-93c0,0,73,0,131,49c0,0,41,35,80,126l22,-10C629,261,601,125,521,52c0,0,-81,-72,-179,-72Z" 
id="f0_1z"
transform="scale(0.001,-0.001)" />

<path d="M255,-10c0,0,-35,0,-68,18c0,0,-32,19,-48,55c0,0,-16,35,-16,109V632H15v24c0,0,41,16,84,56c0,0,43,39,77,92c0,0,17,29,48,104h23V683H407V632H247V188c0,0,0,-66,19,-90c0,0,19,-23,49,-23c0,0,24,0,47,16c0,0,23,15,36,45h29c0,0,-26,-73,-74,-110c0,0,-47,-36,-98,-36Z" 
id="f0_2g"
transform="scale(0.001,-0.001)" />

<path d="M376,-20L133,556c0,0,-17,41,-31,58c0,0,-15,18,-39,30c0,0,-12,7,-50,13v26H335V657H314c0,0,-29,0,-44,-14c0,0,-16,-14,-15,-38c0,0,-1,-26,15,-62L429,165L588,557c0,0,17,42,17,64c0,0,0,10,-6,17c0,0,-8,11,-21,15c0,0,-13,4,-52,4v26H750V657c0,0,-39,-3,-54,-16c0,0,-26,-23,-47,-76L409,-20Z" 
id="f0_2i"
transform="scale(0.001,-0.001)" />

<path d="M479,469c0,0,-4,66,-16,93c0,0,-18,42,-55,65c0,0,-37,24,-78,24c0,0,-62,0,-111,-48c0,0,-48,-48,-57,-134ZM355,-20c0,0,-123,0,-211,95c0,0,-87,96,-87,258c0,0,0,175,90,273c0,0,89,98,225,98c0,0,115,0,189,-76c0,0,74,-75,74,-202H162c0,0,0,-152,74,-239c0,0,75,-86,175,-86c0,0,67,0,117,36c0,0,50,37,83,127l24,-15c0,0,-16,-102,-91,-186c0,0,-76,-83,-189,-83Z" 
id="f0_21"
transform="scale(0.001,-0.001)" />

<path d="M312,-20c0,0,-62,0,-143,22c0,0,-25,8,-40,8c0,0,-18,0,-27,-19H77V234h25c0,0,21,-105,80,-158c0,0,59,-53,132,-53c0,0,51,0,84,31c0,0,32,30,32,72c0,0,0,52,-36,87c0,0,-36,35,-144,88c0,0,-109,54,-142,97c0,0,-34,43,-34,107c0,0,0,85,58,141c0,0,58,57,150,57c0,0,40,0,97,-17c0,0,38,-11,51,-11c0,0,12,0,19,5c0,0,7,5,15,23h25V470H464c0,0,-28,110,-72,149c0,0,-45,40,-113,40c0,0,-53,0,-85,-28c0,0,-32,-27,-32,-61c0,0,0,-41,24,-71c0,0,23,-31,94,-65L389,381c0,0,152,-74,152,-194c0,0,0,-94,-71,-151c0,0,-70,-56,-158,-56Z" 
id="f0_2f"
transform="scale(0.001,-0.001)" />

<path d="M398,24c0,0,74,0,120,58c0,0,61,76,61,214c0,0,0,156,-69,240c0,0,-47,59,-113,59c0,0,-36,0,-71,-18c0,0,-27,-14,-88,-81V242c0,0,0,-83,6,-109c0,0,11,-43,51,-76c0,0,41,-33,103,-33ZM-4,-326v27H15c5,0,42,0,69,16c0,0,14,8,22,26c0,0,7,19,7,94V481c0,0,0,67,-6,85c0,0,-5,18,-18,27c0,0,-13,9,-36,9c0,0,-18,0,-45,-10L0,615l209,85h29V540c0,0,53,91,106,127c0,0,53,36,112,36c0,0,103,0,172,-80c0,0,84,-99,84,-257c0,0,0,-176,-102,-292c0,0,-83,-94,-210,-94c0,0,-55,0,-95,16c0,0,-30,10,-67,44V-167c0,0,0,-71,8,-90c0,0,9,-20,30,-31c0,0,21,-11,77,-11v-27Z" 
id="f0_2c"
transform="scale(0.001,-0.001)" />

<path d="M20,0V26c0,0,45,0,71,15c0,0,15,7,24,28c0,0,9,21,9,85V773c0,0,0,117,-5,144c0,0,-6,27,-17,37c0,0,-12,9,-31,9c0,0,-16,0,-51,-12L10,978l204,83h34V561c0,0,83,91,131,116c0,0,49,26,97,26c0,0,58,0,100,-32c0,0,42,-32,62,-101c0,0,14,-47,14,-174V154c0,0,0,-65,11,-89c0,0,7,-18,25,-28c0,0,18,-11,66,-11V0H418V26h15c0,0,48,0,67,15c0,0,18,15,26,43c0,0,2,12,2,70V396c0,0,0,112,-12,147c0,0,-11,35,-36,53c0,0,-26,17,-61,17c0,0,-37,0,-76,-19c0,0,-40,-20,-95,-79V154c0,0,0,-70,8,-87c0,0,8,-17,29,-29c0,0,22,-12,74,-12V0Z" 
id="f0_24"
transform="scale(0.001,-0.001)" />

<path d="M58,0V26c0,0,47,0,64,10c0,0,18,10,28,32c0,0,9,23,9,86V775c0,0,0,116,-5,142c0,0,-5,27,-17,37c0,0,-11,9,-29,9c0,0,-20,0,-49,-12L46,978l204,83h34V154c0,0,0,-64,9,-85c0,0,9,-21,29,-32c0,0,19,-11,72,-11V0Z" 
id="f0_28"
transform="scale(0.001,-0.001)" />

<path d="M63,0V26H93c0,0,30,0,54,15c0,0,25,15,34,41c0,0,10,25,10,99V630H58v53H191v45c0,0,0,102,33,173c0,0,32,71,100,114c0,0,68,44,152,44c0,0,79,0,145,-51c0,0,43,-33,43,-75c0,0,0,-22,-19,-42c0,0,-20,-20,-42,-20c0,0,-17,0,-36,12c0,0,-19,13,-47,53c0,0,-28,41,-51,55c0,0,-23,14,-51,14c0,0,-35,0,-58,-18c0,0,-24,-18,-35,-57c0,0,-10,-38,-10,-197V683H491V630H315V181c0,0,0,-96,21,-122c0,0,27,-33,73,-33h62V0Z" 
id="f0_22"
transform="scale(0.001,-0.001)" />

<path d="M62,286V399H448V286Z" 
id="f0_h"
transform="scale(0.001,-0.001)" />

<path d="M197,0V27c0,0,71,2,92,13c0,0,21,10,29,29c0,0,9,18,9,109V725c0,0,0,110,-8,141c0,0,-5,24,-19,35c0,0,-14,11,-33,11c0,0,-28,0,-77,-23l-11,23l246,121h25V178c0,0,0,-85,7,-106c0,0,7,-21,29,-32c0,0,23,-11,91,-13V0Z" 
id="f0_l"
transform="scale(0.001,-0.001)" />

<path d="M379,29c0,0,41,0,84,37c0,0,43,36,65,121c0,0,34,128,34,362c0,0,0,173,-35,288c0,0,-27,86,-69,122c0,0,-31,25,-74,25c0,0,-51,0,-90,-46c0,0,-54,-62,-73,-195c0,0,-20,-132,-20,-261c0,0,0,-209,52,-341c0,0,42,-112,126,-112Zm-2,-46c0,0,-145,0,-241,170c0,0,-81,144,-81,347c0,0,0,173,52,298c0,0,52,125,139,186c0,0,67,49,139,49c0,0,116,0,208,-119c0,0,116,-147,116,-398c0,0,0,-176,-51,-299C658,217,608,94,529,38c0,0,-79,-55,-152,-55Z" 
id="f0_k"
transform="scale(0.001,-0.001)" />

<path d="M145,-328c0,0,-44,0,-73,25c0,0,-28,25,-28,58c0,0,0,31,21,50c0,0,20,19,56,19c0,0,25,0,67,-16c0,0,30,-11,38,-11c0,0,22,0,49,23c0,0,26,23,53,89L376,28L131,542c0,0,-11,24,-36,58c0,0,-19,27,-30,36c0,0,-18,12,-56,21v26H328V657H312c0,0,-33,0,-50,-15c0,0,-17,-14,-17,-36c0,0,0,-30,25,-81L437,179L589,557c0,0,12,31,12,62c0,0,0,13,-5,20c0,0,-6,8,-19,13c0,0,-12,5,-44,5v26H754V657c0,0,-27,-3,-42,-12c0,0,-15,-9,-33,-34c0,0,-7,-10,-25,-58L376,-128c0,0,-40,-99,-105,-150c0,0,-66,-50,-126,-50Z" 
id="f0_2l"
transform="scale(0.001,-0.001)" />

<path d="M191,-20c0,0,-34,0,-58,24c0,0,-24,24,-24,58c0,0,0,35,24,59c0,0,24,24,58,24c0,0,35,0,59,-24c0,0,24,-25,24,-59c0,0,0,-34,-24,-58c0,0,-25,-24,-59,-24Z" 
id="f0_i"
transform="scale(0.001,-0.001)" />

<path d="M26,0V27H62c0,0,63,0,91,37c0,0,18,24,18,115V833c0,0,0,77,-10,102c0,0,-7,18,-30,32c0,0,-33,18,-69,18H26v27H459V985H422c0,0,-35,0,-67,-17c0,0,-23,-12,-32,-36c0,0,-9,-25,-9,-99V542H784V833c0,0,0,77,-10,102c0,0,-8,18,-31,32c0,0,-33,18,-68,18H639v27h432V985h-36c0,0,-36,0,-68,-17c0,0,-24,-12,-32,-36c0,0,-9,-25,-9,-99V179c0,0,0,-77,10,-102c0,0,7,-18,31,-32c0,0,32,-18,68,-18h36V0H639V27h36c0,0,62,0,90,37c0,0,19,24,19,115V487H314V179c0,0,0,-77,9,-102c0,0,8,-18,32,-32c0,0,32,-18,67,-18h37V0Z" 
id="f0_18"
transform="scale(0.001,-0.001)" />

<path d="M336,-20L117,554c0,0,-21,55,-42,74c0,0,-21,19,-66,29v26H296V657c0,0,-40,-3,-52,-14c0,0,-13,-12,-13,-33c0,0,0,-23,13,-56L390,162L537,481L498,581c0,0,-18,46,-47,63c0,0,-17,11,-61,13v26H716V657c0,0,-54,-2,-77,-20c0,0,-15,-12,-15,-39c0,0,0,-15,6,-30L785,177L929,554c0,0,15,40,15,65c0,0,0,14,-15,25c0,0,-14,12,-57,13v26h216V657c0,0,-65,-10,-95,-89L764,-20H733L563,415L363,-20Z" 
id="f0_2j"
transform="scale(0.001,-0.001)" />

<path d="M21,0V26H35c0,0,53,0,71,27c0,0,18,27,18,101V408c0,0,0,123,-5,150c0,0,-6,27,-17,37c0,0,-12,10,-31,10c0,0,-21,0,-50,-11L10,620l206,83h32V558c0,0,120,145,229,145c0,0,56,0,96,-28c0,0,40,-28,64,-92c0,0,16,-45,16,-137V154c0,0,0,-65,11,-88c0,0,8,-19,26,-29c0,0,18,-11,68,-11V0H419V26h14c0,0,47,0,66,15c0,0,20,15,27,43c0,0,3,11,3,70V434c0,0,0,93,-24,135c0,0,-24,42,-81,42c0,0,-88,0,-176,-97V154c0,0,0,-69,9,-86c0,0,10,-21,28,-31c0,0,19,-11,75,-11V0Z" 
id="f0_2a"
transform="scale(0.001,-0.001)" />

<path d="M411,-239c0,0,134,0,198,48c0,0,64,47,64,100c0,0,0,39,-38,55c0,0,-39,16,-154,19c0,0,-167,5,-258,17c0,0,-35,-37,-53,-70c0,0,-17,-32,-17,-60c0,0,0,-36,43,-62c0,0,74,-47,215,-47ZM380,257c0,0,56,0,93,43c0,0,36,42,36,133c0,0,0,118,-51,185c0,0,-38,49,-98,49c0,0,-55,0,-92,-44c0,0,-37,-44,-37,-135c0,0,0,-117,50,-182c0,0,39,-49,99,-49ZM345,-328c0,0,-144,0,-243,64c0,0,-56,38,-56,78c0,0,0,18,8,36c0,0,13,27,52,76c0,0,5,7,76,80c0,0,-39,23,-55,41c0,0,-16,19,-16,42c0,0,0,26,22,61c0,0,21,35,98,100c0,0,-63,30,-97,85c0,0,-33,55,-33,121c0,0,0,101,76,174c0,0,77,73,196,73c0,0,98,0,170,-48H688c0,0,32,0,37,-2c0,0,6,-2,8,-6c0,0,4,-7,4,-24c0,0,0,-20,-4,-27c0,0,-2,-4,-7,-6c0,0,-6,-2,-38,-2H599c0,0,41,-54,41,-137c0,0,0,-96,-73,-163c0,0,-73,-68,-196,-68c0,0,-51,0,-104,15c0,0,-33,-28,-44,-49c0,0,-12,-22,-12,-37c0,0,0,-12,13,-24c0,0,12,-12,48,-17c0,0,21,-4,104,-6c0,0,154,-4,199,-11c0,0,70,-10,111,-51c0,0,42,-41,42,-102c0,0,0,-84,-79,-158c0,0,-117,-108,-304,-108Z" 
id="f0_23"
transform="scale(0.001,-0.001)" />

<path d="M13,0V26c0,0,52,0,78,13c0,0,16,8,24,25c0,0,11,25,11,86V773c0,0,0,118,-5,145c0,0,-5,26,-17,36c0,0,-12,10,-32,10c0,0,-15,0,-47,-13L13,978l203,83h34V381L424,540c0,0,55,50,64,64c0,0,6,9,6,18c0,0,0,15,-12,26c0,0,-13,11,-41,12v23H738V660c0,0,-61,-2,-102,-19c0,0,-40,-17,-89,-62L372,418L547,196c0,0,73,-92,98,-117c0,0,36,-35,63,-45c0,0,18,-8,65,-8V0H441V26c0,0,28,1,38,9c0,0,10,8,10,22c0,0,0,17,-29,56L250,381V154c0,0,0,-67,10,-88c0,0,9,-21,26,-30c0,0,17,-9,75,-10V0Z" 
id="f0_27"
transform="scale(0.001,-0.001)" />

<path d="M292,-20c0,0,-57,0,-100,33c0,0,-42,33,-58,85c0,0,-17,52,-17,148V551c0,0,0,49,-10,68c0,0,-11,18,-31,29c0,0,-19,9,-68,9c-2,0,-4,0,-6,0v26H242V226c0,0,0,-95,33,-125c0,0,33,-30,80,-30c0,0,32,0,73,21c0,0,40,20,96,76V555c0,0,0,59,-21,80c0,0,-22,21,-89,22v26H647V269c0,0,0,-119,6,-145c0,0,6,-27,18,-37c0,0,12,-11,29,-11c0,0,23,0,52,13L763,63L558,-20H524V124C524,124,436,29,390,4c0,0,-47,-24,-98,-24Z" 
id="f0_2h"
transform="scale(0.001,-0.001)" />

<path d="M238,-17c0,0,-103,0,-139,25C99,8,62,33,62,62c0,0,0,22,17,38c0,0,18,16,42,16c0,0,19,0,38,-6c0,0,13,-3,58,-27c0,0,45,-23,62,-28c0,0,27,-8,59,-8c0,0,76,0,132,59c0,0,56,59,56,140c0,0,0,59,-26,115c0,0,-19,41,-42,63c0,0,-32,30,-88,54c0,0,-56,25,-114,25H232v22c0,0,59,8,118,42c0,0,59,35,86,85c0,0,27,49,27,108c0,0,0,76,-48,124c0,0,-48,47,-120,47c0,0,-116,0,-193,-124L77,819c0,0,44,102,110,158c0,0,66,56,164,56c0,0,122,0,187,-80c0,0,49,-58,49,-126c0,0,0,-110,-139,-228c0,0,93,-36,141,-104c0,0,48,-68,48,-160c0,0,0,-131,-84,-227C553,108,444,-17,238,-17Z" 
id="f0_n"
transform="scale(0.001,-0.001)" />

<path d="M33,0V27c0,0,264,241,371,393c0,0,108,152,108,278c0,0,0,96,-59,158c0,0,-59,62,-141,62c0,0,-75,0,-134,-43c0,0,-59,-44,-88,-128H63c0,0,18,138,95,212c0,0,77,74,193,74c0,0,123,0,205,-80c0,0,83,-79,83,-186c0,0,0,-77,-36,-154c0,0,-55,-121,-179,-256C424,357,238,154,191,112H455c0,0,81,0,114,6c0,0,32,6,58,25c0,0,27,18,46,52h27L630,0Z" 
id="f0_m"
transform="scale(0.001,-0.001)" />

<path d="M247,-17c0,0,-91,0,-132,30c0,0,-42,31,-42,68c0,0,0,21,17,37c0,0,18,16,44,17c0,0,19,0,34,-6c0,0,14,-7,49,-31c0,0,56,-39,113,-39c0,0,88,0,154,66c0,0,66,66,66,161c0,0,0,92,-59,171c0,0,-59,80,-163,123c0,0,-81,34,-221,39l194,393H663L605,885H301L234,750c0,0,198,-29,313,-147c0,0,100,-102,100,-239c0,0,0,-80,-33,-148c0,0,-32,-68,-81,-116c0,0,-50,-47,-110,-77c0,0,-86,-40,-176,-40Z" 
id="f0_p"
transform="scale(0.001,-0.001)" />

<path d="M1005,0c0,0,34,0,61,41c0,0,36,55,36,187c0,0,0,141,-36,196c0,0,-25,39,-61,39c0,0,-36,0,-62,-41c0,0,-34,-52,-34,-197c0,0,0,-134,35,-187c0,0,25,-38,61,-38Zm2,-41c0,0,-55,0,-106,34c0,0,-51,32,-80,94c0,0,-30,63,-30,142c0,0,0,79,29,144c0,0,30,64,81,97c0,0,51,32,104,32c0,0,53,0,105,-34c0,0,53,-33,82,-98c0,0,28,-64,28,-141c0,0,0,-132,-63,-201c0,0,-64,-69,-150,-69ZM267,524c0,0,36,0,61,39c0,0,38,57,38,192c0,0,0,142,-37,199c0,0,-24,38,-60,38c0,0,-38,0,-67,-44c0,0,-30,-45,-30,-189c0,0,0,-103,17,-158c0,0,12,-41,39,-63c0,0,16,-14,39,-14Zm3,-37c0,0,-59,0,-108,32c0,0,-49,33,-79,97c0,0,-29,64,-29,143c0,0,0,78,30,144c0,0,30,66,81,99c0,0,52,32,107,32c0,0,101,0,156,-83c0,0,56,-84,56,-192c0,0,0,-130,-63,-201c0,0,-62,-71,-151,-71ZM235,-41L972,1034h67L301,-41Z" 
id="f0_9"
transform="scale(0.001,-0.001)" />

<path d="M328,-20c0,0,-34,0,-58,24c0,0,-25,24,-25,58c0,0,0,35,25,59c0,0,24,24,58,24c0,0,34,0,59,-24c0,0,24,-24,24,-59c0,0,0,-34,-25,-58c0,0,-24,-24,-58,-24ZM308,238c0,0,5,94,23,155c0,0,18,62,76,172c0,0,44,84,58,129c0,0,13,46,13,92c0,0,0,95,-50,150c0,0,-50,56,-123,56c0,0,-65,0,-102,-30c0,0,-38,-31,-38,-67c0,0,0,-27,23,-67c0,0,22,-41,22,-62c0,0,0,-26,-17,-45c0,0,-17,-18,-42,-18c0,0,-31,0,-57,31c0,0,-26,31,-26,86c0,0,0,85,73,150c0,0,72,64,196,64c0,0,153,0,225,-89c0,0,54,-66,54,-146c0,0,0,-54,-24,-112c0,0,-25,-57,-92,-135C500,552,391,430,367,378c0,0,-24,-51,-29,-140Z" 
id="f0_z"
transform="scale(0.001,-0.001)" />

<path d="M600,387l39,398L345,387ZM-74,0l8,26c0,0,55,3,97,37c0,0,42,35,125,149l605,822h26L710,193c0,0,-6,-59,-6,-78c0,0,0,-30,11,-46c0,0,14,-22,39,-32c0,0,24,-11,81,-11L827,0H429l8,26h17c0,0,49,0,79,21c0,0,22,15,34,48c0,0,8,23,15,109l13,128H305L202,193c0,0,-35,-47,-44,-68c0,0,-9,-20,-9,-38c0,0,0,-25,20,-42c0,0,19,-17,64,-19L225,0Z" 
id="f1_11"
transform="scale(0.001,-0.001)" />

<path d="M0,214v74H784V214ZM0,494v72H784V494Z" 
id="f2_x"
transform="scale(0.001,-0.001)" />

<path d="M133,-17c0,0,-31,0,-50,20C83,3,63,23,63,55c0,0,0,40,25,123L228,609H104l8,30c0,0,82,23,139,67c0,0,57,44,128,154h33L351,657H456L443,609H337L203,171c0,0,-25,-75,-25,-97c0,0,0,-12,5,-19c0,0,5,-6,13,-6c0,0,16,0,44,25c0,0,15,15,71,92l24,-19C335,147,270,48,213,9c0,0,-40,-26,-80,-26Z" 
id="f1_2g"
transform="scale(0.001,-0.001)" />

<path d="M187,318c0,0,111,12,181,43c0,0,92,41,138,98c0,0,46,57,46,108c0,0,0,32,-20,51c0,0,-20,20,-56,20c0,0,-77,0,-163,-81c0,0,-85,-81,-126,-239ZM268,-17c0,0,-110,0,-165,68c0,0,-55,69,-55,151c0,0,0,111,69,228c0,0,68,116,172,180c0,0,104,65,213,65c0,0,79,0,118,-32c0,0,38,-32,38,-76c0,0,0,-62,-50,-119c0,0,-65,-73,-191,-119c0,0,-84,-30,-235,-47c0,0,-5,-38,-5,-62c0,0,0,-67,47,-114c0,0,47,-46,114,-46c0,0,54,0,104,22c0,0,50,22,148,97l15,-21C605,158,428,-17,268,-17Z" 
id="f1_21"
transform="scale(0.001,-0.001)" />

<path d="M620,-14c0,0,-52,0,-93,43c0,0,-41,45,-77,203L384,522L132,0H0L340,703l-12,66c0,0,-23,107,-61,146c0,0,-37,38,-83,38c0,0,-42,0,-74,-30c0,0,-31,-31,-41,-100H43c0,0,2,117,57,187c0,0,40,51,96,51c0,0,50,0,86,-40c0,0,54,-60,88,-213L489,283c0,0,27,-118,62,-153c0,0,33,-36,79,-36c0,0,43,0,71,29c0,0,28,29,33,94h30c0,0,1,-19,1,-29c0,0,0,-98,-49,-158c0,0,-37,-44,-96,-44Z" 
id="f3_28"
transform="scale(0.001,-0.001)" />

<path d="M0,356v74H784V356Z" 
id="f2_h"
transform="scale(0.001,-0.001)" />

<path d="M83,308c0,0,-35,0,-59,24c0,0,-24,24,-24,59c0,0,0,34,24,58c0,0,24,24,59,24c0,0,33,0,58,-24c0,0,24,-24,24,-58c0,0,0,-35,-24,-59c0,0,-25,-24,-58,-24Z" 
id="f2_49"
transform="scale(0.001,-0.001)" />

<path d="M405,24c0,0,65,0,116,62c0,0,51,61,51,174c0,0,0,128,-50,221c0,0,-51,93,-144,93c0,0,-29,0,-61,-12c0,0,-33,-12,-96,-51c0,0,-14,-101,-14,-163c0,0,0,-72,27,-155c0,0,26,-84,79,-134c0,0,38,-35,92,-35ZM384,-17c0,0,-104,0,-177,68C207,51,66,185,66,397c0,0,0,136,54,258c0,0,54,122,156,217c0,0,101,95,193,128c0,0,93,33,172,33h44v-28c0,0,-99,-10,-161,-39c0,0,-62,-29,-123,-90c0,0,-61,-60,-101,-135c0,0,-39,-74,-66,-176c0,0,107,73,215,73c0,0,104,0,180,-83c0,0,76,-84,76,-215c0,0,0,-126,-77,-231c0,0,-92,-126,-244,-126Z" 
id="f0_q"
transform="scale(0.001,-0.001)" />

<path d="M379,437c0,0,34,0,81,16c0,0,47,17,83,47c0,0,14,97,14,155c0,0,0,72,-25,156c0,0,-25,83,-70,128c0,0,-45,45,-103,45c0,0,-66,0,-116,-60c0,0,-50,-59,-50,-177c0,0,0,-157,66,-246c0,0,49,-64,120,-64ZM80,-20V7c0,0,97,1,181,45c0,0,83,44,161,153c0,0,78,109,109,240c0,0,-117,-75,-212,-75c0,0,-107,0,-183,82c0,0,-76,82,-76,219c0,0,0,132,76,236c0,0,92,126,240,126c0,0,124,0,213,-103c0,0,109,-128,109,-315c0,0,0,-169,-82,-314C616,301,533,155,385,59c0,0,-120,-79,-262,-79Z" 
id="f0_t"
transform="scale(0.001,-0.001)" />

<path d="M27,354v62H831V354Zm0,243v62H831V597Z" 
id="f0_x"
transform="scale(0.001,-0.001)" />

<path d="M17,-328c0,0,-67,0,-100,24c0,0,-33,25,-33,51c0,0,0,26,18,45c0,0,18,18,43,18c0,0,19,0,40,-9c0,0,12,-6,48,-38c0,0,37,-33,61,-33c0,0,18,0,35,14c0,0,17,14,25,46c0,0,8,33,8,141V416c0,0,0,113,-6,145c0,0,-6,25,-17,34c0,0,-11,10,-31,10c0,0,-21,0,-51,-11L47,620l207,83h32V16c0,0,0,-175,-74,-260c0,0,-75,-84,-195,-84ZM223,908c0,0,-32,0,-54,23c0,0,-22,22,-22,53c0,0,0,32,22,55c0,0,22,22,54,22c0,0,32,0,54,-22c0,0,22,-23,22,-55c0,0,0,-31,-22,-53c0,0,-22,-23,-54,-23Z" 
id="f0_26"
transform="scale(0.001,-0.001)" />

<path d="M473,53c0,0,173,0,287,121c0,0,114,122,114,330c0,0,0,210,-114,330c0,0,-114,121,-293,121c0,0,-67,0,-153,-21V74c0,0,95,-21,159,-21ZM26,0V27H64c0,0,64,0,91,41c0,0,16,25,16,111V833c0,0,0,95,-21,119c0,0,-29,33,-86,33H26v27H438c0,0,226,0,345,-51c0,0,118,-52,190,-172c0,0,72,-120,72,-278c0,0,0,-211,-129,-353C916,158,773,0,478,0Z" 
id="f0_14"
transform="scale(0.001,-0.001)" />

<path d="M23,0V26c0,0,47,0,66,10c0,0,19,11,28,33c0,0,10,22,10,85V416c0,0,0,112,-7,145c0,0,-5,25,-16,34c0,0,-11,10,-31,10c0,0,-21,0,-50,-11L12,620l207,83h32V557c0,0,75,75,88,86c0,0,34,29,72,44c0,0,39,16,77,16c0,0,64,0,110,-37c0,0,47,-38,62,-109c0,0,77,90,130,118c0,0,53,28,109,28c0,0,54,0,96,-28c0,0,42,-28,67,-91c0,0,16,-43,16,-136V154c0,0,0,-64,10,-88c0,0,8,-16,28,-28c0,0,20,-12,65,-12V0H844V26h14c0,0,44,0,69,18c0,0,17,12,24,38c0,0,3,13,3,72V448c0,0,0,83,-20,117c0,0,-29,48,-93,48c0,0,-39,0,-79,-20c0,0,-40,-19,-97,-73l-1,-8l2,-32V154c0,0,0,-70,8,-87c0,0,7,-17,29,-29c0,0,21,-12,73,-12V0H431V26c0,0,57,0,78,14c0,0,21,13,29,40c0,0,4,13,4,74V448c0,0,0,83,-25,120c0,0,-33,48,-91,48c0,0,-40,0,-80,-22c0,0,-61,-33,-95,-74V154c0,0,0,-67,10,-87c0,0,9,-20,27,-30c0,0,18,-11,74,-11V0Z" 
id="f0_29"
transform="scale(0.001,-0.001)" />

<path d="M25,0V26c0,0,27,4,47,19c0,0,29,22,96,111L311,346L182,535c0,0,-55,81,-86,102c0,0,-30,20,-75,20v26H341V657c0,0,-30,0,-42,-10c0,0,-13,-11,-13,-28c0,0,0,-19,27,-56c0,0,8,-12,25,-37l48,-78l56,77c0,0,55,74,55,94c0,0,0,16,0,27c0,0,0,11,0,11v26H674V657c0,0,-37,-2,-64,-20c0,0,-37,-26,-100,-111L416,402L587,156c0,0,63,-91,89,-109c0,0,27,-18,70,-21V0H423V26c0,0,34,0,53,15c0,0,14,11,14,28c0,0,0,17,-48,87L341,302L232,157c0,0,-50,-69,-50,-82c0,0,0,-18,17,-32c0,0,17,-15,50,-17V0Z" 
id="f0_2k"
transform="scale(0.001,-0.001)" />

<path d="M24,0V27H60c0,0,63,0,91,37c0,0,18,24,18,115V833c0,0,0,77,-10,102c0,0,-7,18,-30,32c0,0,-32,18,-69,18H24v27H776L787,790H761c0,0,-20,71,-45,104c0,0,-26,33,-64,48c0,0,-37,15,-117,15H312V558H497c0,0,63,0,93,28c0,0,29,28,39,111h27V355H629c0,0,-1,59,-16,87c0,0,-14,27,-40,41c0,0,-26,14,-76,14H312V179c0,0,0,-77,10,-102c0,0,7,-18,31,-32c0,0,33,-18,69,-18h37V0Z" 
id="f0_16"
transform="scale(0.001,-0.001)" />

<path d="M213,-20c0,0,-34,0,-58,24c0,0,-24,24,-24,58c0,0,0,34,24,58c0,0,24,25,58,25c0,0,35,0,59,-25c0,0,24,-24,24,-58c0,0,0,-34,-24,-58c0,0,-25,-24,-59,-24Zm3,559c0,0,-35,0,-59,24c0,0,-24,24,-24,58c0,0,0,35,24,59c0,0,24,24,59,24c0,0,34,0,58,-24c0,0,24,-24,24,-59c0,0,0,-34,-24,-58c0,0,-24,-24,-58,-24Z" 
id="f0_u"
transform="scale(0.001,-0.001)" />

<path d="M435,0V856c0,0,-48,-47,-127,-93c0,0,-79,-46,-142,-69V824c0,0,113,52,197,128c0,0,85,75,120,146h86V0Z" 
id="f4_l"
transform="scale(0.001,-0.001)" />

<path d="M494,385V878L152,385ZM494,0V262H20V385l498,708H628V385H775V262H628V0Z" 
id="f4_o"
transform="scale(0.001,-0.001)" />


</defs>
</svg>