<?xml version="1.0" encoding="UTF-8" standalone="no"?>
<!DOCTYPE svg PUBLIC "-//W3C//DTD SVG 1.1//EN"
"http://www.w3.org/Graphics/SVG/1.1/DTD/svg11.dtd">
<svg viewBox="0 0 909 1286" version="1.1" xmlns="http://www.w3.org/2000/svg" xmlns:xlink="http://www.w3.org/1999/xlink">
<defs>
<clipPath id="c0_8"><path d="M152.9,185.3V164.4h47.7v20.9Z" /></clipPath>
<clipPath id="c1_8"><path d="M118.4,185.3V164.4h82.2v20.9Z" /></clipPath>
<clipPath id="c2_8"><path d="M140.4,184.9V164.4h36.7v20.5Z" /></clipPath>
<clipPath id="c3_8"><path d="M144.5,218.7V197.8h28.6v20.9Z" /></clipPath>
<clipPath id="c4_8"><path d="M118.1,218.3V197.8h36.6v20.5Z" /></clipPath>
<clipPath id="c5_8"><path d="M132.4,218.3V197.8h40.7v20.5Z" /></clipPath>
<clipPath id="c6_8"><path d="M146.7,252V231.1h48V252Z" /></clipPath>
<clipPath id="c7_8"><path d="M119.5,252V231.1h75.2V252Z" /></clipPath>
<clipPath id="c8_8"><path d="M134.2,251.7V231.1h36.7v20.6Z" /></clipPath>
<clipPath id="c9_8"><path d="M173.4,285.4V264.5h38.5v20.9Z" /></clipPath>
<clipPath id="c10_8"><path d="M117.7,285V264.5h94.2V285Z" /></clipPath>
<clipPath id="c11_8"><path d="M130.9,285V264.5h37V285Z" /></clipPath>
<clipPath id="c12_8"><path d="M143.4,318.8V297.9H251.2v20.9Z" /></clipPath>
<clipPath id="c13_8"><path d="M117.7,318.4V297.9h36.7v20.5Z" /></clipPath>
<clipPath id="c14_8"><path d="M130.9,318.4V297.9H251.2v20.5Z" /></clipPath>
<clipPath id="c15_8"><path d="M566.5,297.5V272.6h73.3v24.9Z" /></clipPath>
<clipPath id="c16_8"><path d="M221.8,360.6V339.7h14.3v20.9Z" /></clipPath>
<clipPath id="c17_8"><path d="M216.3,385.9V365.3h19.8v20.6Z" /></clipPath>
<clipPath id="c18_8"><path d="M140.8,424V403.5h78.1V424Z" /></clipPath>
<clipPath id="c19_8"><path d="M141.5,457.7V436.8h44v20.9Z" /></clipPath>
<clipPath id="c20_8"><path d="M129.1,457.4V436.8h36.6v20.6Z" /></clipPath>
<clipPath id="c21_8"><path d="M273.2,510.5V489.6H401.1v20.9Z" /></clipPath>
<clipPath id="c22_8"><path d="M184.8,510.2V487.8H401.1v22.4Z" /></clipPath>
<clipPath id="c23_8"><path d="M304.3,570.7V549.8h20.2v20.9Z" /></clipPath>
<clipPath id="c24_8"><path d="M304.7,596.3V575.4h19.8v20.9Z" /></clipPath>
<clipPath id="c25_8"><path d="M284.9,571.4V549h39.6v22.4Z" /></clipPath>
<clipPath id="c26_8"><path d="M211.2,581.7V559.3H324.5v22.4Z" /></clipPath>
<clipPath id="c27_8"><path d="M284.9,589V566.6h39.6V589Z" /></clipPath>
<clipPath id="c28_8"><path d="M284.9,598.2V575.8h39.6v22.4Z" /></clipPath>
<clipPath id="c29_8"><path d="M225.1,631.9V611H352v20.9Z" /></clipPath>
<clipPath id="c30_8"><path d="M336.6,631.9V611H352v20.9Z" /></clipPath>
<clipPath id="c31_8"><path d="M211.6,631.5V611H327.1v20.5Z" /></clipPath>
<clipPath id="c32_8"><path d="M158.8,684.7V663.8h162v20.9Z" /></clipPath>
<clipPath id="c33_8"><path d="M277.6,684.3V662h43.2v22.3Z" /></clipPath>
<clipPath id="c34_8"><path d="M182.2,684.3V662H320.8v22.3Z" /></clipPath>
<clipPath id="c35_8"><path d="M233.2,747V719.9h5.5V747Z" /></clipPath>
<clipPath id="c36_8"><path d="M366.7,747V719.9h4.7V747Z" /></clipPath>
<clipPath id="c37_8"><path d="M239.8,744.5V723.6H374.7v20.9Z" /></clipPath>
<clipPath id="c38_8"><path d="M181.9,744.1V721.7H374.7v22.4Z" /></clipPath>
<clipPath id="c39_8"><path d="M306.2,786.6V765.7h22.7v20.9Z" /></clipPath>
<clipPath id="c40_8"><path d="M306.5,812.3V791.4h22.4v20.9Z" /></clipPath>
<clipPath id="c41_8"><path d="M263.6,787.4V765h65.3v22.4Z" /></clipPath>
<clipPath id="c42_8"><path d="M263.6,805V782.6h65.3V805Z" /></clipPath>
<clipPath id="c43_8"><path d="M263.6,814.1V791.8h65.3v22.3Z" /></clipPath>
<clipPath id="c44_8"><path d="M285.6,853V832.1h21.7V853Z" /></clipPath>
<clipPath id="c45_8"><path d="M285.6,878.7V857.8h21.7v20.9Z" /></clipPath>
<clipPath id="c46_8"><path d="M264,853.7V831.4h43.3v22.3Z" /></clipPath>
<clipPath id="c47_8"><path d="M181.9,864V841.6H307.3V864Z" /></clipPath>
<clipPath id="c48_8"><path d="M264,871.3V849h43.3v22.3Z" /></clipPath>
<clipPath id="c49_8"><path d="M264,880.5V858.1h43.3v22.4Z" /></clipPath>
<clipPath id="c50_8"><path d="M193.6,914.2V893.3h57.2v20.9Z" /></clipPath>
<clipPath id="c51_8"><path d="M181.5,913.9V893.3h59.4v20.6Z" /></clipPath>
<clipPath id="c52_8"><path d="M193.6,948V927.1h49.5V948Z" /></clipPath>
<clipPath id="c53_8"><path d="M228.1,948V927.1h15V948Z" /></clipPath>
<clipPath id="c54_8"><path d="M181.9,947.6V927.1h36.6v20.5Z" /></clipPath>
<clipPath id="c55_8"><path d="M182.2,986.5V966.3h42.2v20.2Z" /></clipPath>
<clipPath id="c56_8"><path d="M169.8,986.1v-22h54.6v22Z" /></clipPath>
<clipPath id="c57_8"><path d="M159.1,976.2V960.8h65.3v15.4Z" /></clipPath>
<clipPath id="c58_8"><path d="M212.3,1020.2V999.3h38.5v20.9Z" /></clipPath>
<clipPath id="c59_8"><path d="M156.6,1019.8V999.3h94.2v20.5Z" /></clipPath>
<clipPath id="c60_8"><path d="M169.8,1019.8V999.3h37v20.5Z" /></clipPath>
<style type="text/css"><![CDATA[
.g0_8{
fill: #1F1A17;
}
.g1_8{
fill: none;
stroke: #000000;
stroke-width: 0.36666667;
stroke-linecap: butt;
stroke-linejoin: miter;
stroke-miterlimit: 2;
}
.g2_8{
}
.g3_8{
fill: none;
stroke: #000000;
stroke-width: 0.90444446;
stroke-linecap: round;
stroke-linejoin: round;
}
.g4_8{
fill: none;
stroke: #000000;
stroke-width: 0.86625004;
stroke-linecap: round;
stroke-linejoin: round;
}
.g5_8{
fill: none;
stroke: #000000;
stroke-width: 0.9059723;
stroke-linecap: round;
stroke-linejoin: round;
}
]]></style>
</defs>
<g fill="#000000" >
<use xlink:href="#f0_l" transform="matrix(12,0,0,12,64.9,100.2)" />
<use xlink:href="#f0_n" transform="matrix(12,0,0,12,74.1,100.2)" />
<use xlink:href="#f0_i" transform="matrix(12,0,0,12,83.2,100.2)" />
<use xlink:href="#f0_11" transform="matrix(12,0,0,12,117,100.2)" />
<use xlink:href="#f0_1y" transform="matrix(12,0,0,12,132,100.2)" />
<use xlink:href="#f0_1x" transform="matrix(12,0,0,12,140.5,100.2)" />
<use xlink:href="#f0_2e" transform="matrix(12,0,0,12,148.6,100.2)" />
<use xlink:href="#f0_29" transform="matrix(12,0,0,12,157.8,100.2)" />
<use xlink:href="#f0_1x" transform="matrix(12,0,0,12,171,100.2)" />
<use xlink:href="#f0_23" transform="matrix(12,0,0,12,179.1,100.2)" />
<use xlink:href="#f0_2a" transform="matrix(12,0,0,12,187.9,100.2)" />
<use xlink:href="#f0_21" transform="matrix(12,0,0,12,196.7,100.2)" />
<use xlink:href="#f0_2g" transform="matrix(12,0,0,12,204.4,100.2)" />
<use xlink:href="#f0_2b" transform="matrix(12,0,0,12,213.2,100.2)" />
<use xlink:href="#f0_22" transform="matrix(12,0,0,12,222.8,100.2)" />
<use xlink:href="#f0_29" transform="matrix(12,0,0,12,231.6,100.2)" />
<use xlink:href="#f0_1x" transform="matrix(12,0,0,12,244.8,100.2)" />
<use xlink:href="#f0_23" transform="matrix(12,0,0,12,252.9,100.2)" />
<use xlink:href="#f0_2a" transform="matrix(12,0,0,12,261.7,100.2)" />
<use xlink:href="#f0_21" transform="matrix(12,0,0,12,270.5,100.2)" />
<use xlink:href="#f0_2g" transform="matrix(12,0,0,12,278.2,100.2)" />
<use xlink:href="#f0_25" transform="matrix(12,0,0,12,283.7,100.2)" />
<use xlink:href="#f0_1z" transform="matrix(12,0,0,12,287.8,100.2)" />
<use xlink:href="#f0_29" transform="matrix(12,0,0,12,299.2,100.2)" />
<use xlink:href="#f0_2b" transform="matrix(12,0,0,12,312.4,100.2)" />
<use xlink:href="#f0_29" transform="matrix(12,0,0,12,321.9,100.2)" />
<use xlink:href="#f0_21" transform="matrix(12,0,0,12,335.2,100.2)" />
<use xlink:href="#f0_2a" transform="matrix(12,0,0,12,343.2,100.2)" />
<use xlink:href="#f0_2g" transform="matrix(12,0,0,12,351.7,100.2)" />
<use xlink:href="#f0_q" transform="matrix(12,0,0,12,360.1,100.2)" />
<use xlink:href="#f0_1a" transform="matrix(12,0,0,12,372.6,100.2)" />
<use xlink:href="#f0_j" transform="matrix(12,0,0,12,379.6,100.2)" />
<use xlink:href="#f0_1k" transform="matrix(12,0,0,12,384.4,100.2)" />
<use xlink:href="#f0_25" transform="matrix(12,0,0,12,398.7,100.2)" />
<use xlink:href="#f0_2f" transform="matrix(12,0,0,12,403.1,100.2)" />
<use xlink:href="#f0_1x" transform="matrix(12,0,0,12,413.4,100.2)" />
<use xlink:href="#f0_28" transform="matrix(12,0,0,12,421.2,100.2)" />
<use xlink:href="#f0_25" transform="matrix(12,0,0,12,425.6,100.2)" />
<use xlink:href="#f0_23" transform="matrix(12,0,0,12,429.6,100.2)" />
<use xlink:href="#f0_2a" transform="matrix(12,0,0,12,438.8,100.2)" />
<use xlink:href="#f0_21" transform="matrix(12,0,0,12,447.2,100.2)" />
<use xlink:href="#f0_20" transform="matrix(12,0,0,12,455.3,100.2)" />
<use xlink:href="#f0_1x" transform="matrix(12,0,0,12,467.5,100.2)" />
<use xlink:href="#f0_2g" transform="matrix(12,0,0,12,475.2,100.2)" />
<use xlink:href="#f0_q" transform="matrix(12,0,0,12,484,100.2)" />
<use xlink:href="#f0_k" transform="matrix(12,0,0,12,492.8,100.2)" />
<use xlink:href="#f0_3o" transform="matrix(12,0,0,12,502,100.2)" />
<use xlink:href="#f0_2j" transform="matrix(12,0,0,12,512.3,100.2)" />
<use xlink:href="#f0_25" transform="matrix(12,0,0,12,525.1,100.2)" />
<use xlink:href="#f0_2g" transform="matrix(12,0,0,12,529.5,100.2)" />
<use xlink:href="#f0_24" transform="matrix(12,0,0,12,534.7,100.2)" />
<use xlink:href="#f0_1x" transform="matrix(12,0,0,12,546.8,100.2)" />
<use xlink:href="#f0_2h" transform="matrix(12,0,0,12,557.9,100.2)" />
<use xlink:href="#f0_2a" transform="matrix(12,0,0,12,567,100.2)" />
<use xlink:href="#f0_25" transform="matrix(12,0,0,12,575.5,100.2)" />
<use xlink:href="#f0_22" transform="matrix(12,0,0,12,579.9,100.2)" />
<use xlink:href="#f0_2b" transform="matrix(12,0,0,12,585,100.2)" />
<use xlink:href="#f0_2e" transform="matrix(12,0,0,12,594.6,100.2)" />
<use xlink:href="#f0_29" transform="matrix(12,0,0,12,600.4,100.2)" />
<use xlink:href="#f0_21" transform="matrix(12,0,0,12,617.3,100.2)" />
<use xlink:href="#f0_2k" transform="matrix(12,0,0,12,625.4,100.2)" />
<use xlink:href="#f0_2g" transform="matrix(12,0,0,12,633.9,100.2)" />
<use xlink:href="#f0_21" transform="matrix(12,0,0,12,639.4,100.2)" />
<use xlink:href="#f0_2e" transform="matrix(12,0,0,12,647.1,100.2)" />
<use xlink:href="#f0_2a" transform="matrix(12,0,0,12,653.3,100.2)" />
<use xlink:href="#f0_1x" transform="matrix(12,0,0,12,661.8,100.2)" />
<use xlink:href="#f0_28" transform="matrix(12,0,0,12,669.5,100.2)" />
<use xlink:href="#f0_29" transform="matrix(12,0,0,12,677.2,100.2)" />
<use xlink:href="#f0_1x" transform="matrix(12,0,0,12,690.8,100.2)" />
<use xlink:href="#f0_23" transform="matrix(12,0,0,12,698.5,100.2)" />
<use xlink:href="#f0_2a" transform="matrix(12,0,0,12,707.7,100.2)" />
<use xlink:href="#f0_21" transform="matrix(12,0,0,12,716.1,100.2)" />
<use xlink:href="#f0_2g" transform="matrix(12,0,0,12,724.2,100.2)" />
<use xlink:href="#f0_25" transform="matrix(12,0,0,12,729.4,100.2)" />
<use xlink:href="#f0_1z" transform="matrix(12,0,0,12,733.8,100.2)" />
<use xlink:href="#f0_22" transform="matrix(12,0,0,12,745.2,100.2)" />
<use xlink:href="#f0_25" transform="matrix(12,0,0,12,750.3,100.2)" />
<use xlink:href="#f0_21" transform="matrix(12,0,0,12,754.7,100.2)" />
<use xlink:href="#f0_28" transform="matrix(12,0,0,12,762.5,100.2)" />
<use xlink:href="#f0_20" transform="matrix(12,0,0,12,766.9,100.2)" />
<use xlink:href="#f0_2b" transform="matrix(12,0,0,12,779,100.2)" />
<use xlink:href="#f0_22" transform="matrix(12,0,0,12,788.2,100.2)" />
<use xlink:href="#f0_k" transform="matrix(12,0,0,12,797,100.2)" />
<use xlink:href="#f0_i" transform="matrix(12,0,0,12,806.2,100.2)" />
<use xlink:href="#f0_o" transform="matrix(12,0,0,12,809.2,100.2)" />
<use xlink:href="#f0_o" transform="matrix(12,0,0,12,818.4,100.2)" />
<use xlink:href="#f0_1k" transform="matrix(12,0,0,12,830.5,100.2)" />
<use xlink:href="#f0_i" transform="matrix(12,0,0,12,840.1,100.2)" />
<use xlink:href="#f0_13" transform="matrix(12,0,0,12,117,124.8)" />
<use xlink:href="#f0_1x" transform="matrix(12,0,0,12,128.7,124.8)" />
<use xlink:href="#f0_28" transform="matrix(12,0,0,12,136.8,124.8)" />
<use xlink:href="#f0_1z" transform="matrix(12,0,0,12,140.9,124.8)" />
<use xlink:href="#f0_2h" transform="matrix(12,0,0,12,148.6,124.8)" />
<use xlink:href="#f0_28" transform="matrix(12,0,0,12,157.7,124.8)" />
<use xlink:href="#f0_1x" transform="matrix(12,0,0,12,161.8,124.8)" />
<use xlink:href="#f0_2g" transform="matrix(12,0,0,12,169.9,124.8)" />
<use xlink:href="#f0_21" transform="matrix(12,0,0,12,175,124.8)" />
<use xlink:href="#f0_c" transform="matrix(12,0,0,12,186.4,124.8)" />
<use xlink:href="#f0_1x" transform="matrix(12,0,0,12,192.3,124.8)" />
<use xlink:href="#f0_d" transform="matrix(12,0,0,12,200,124.8)" />
<use xlink:href="#f0_2g" transform="matrix(12,0,0,12,209.5,124.8)" />
<use xlink:href="#f0_24" transform="matrix(12,0,0,12,215,124.8)" />
<use xlink:href="#f0_21" transform="matrix(12,0,0,12,223.5,124.8)" />
<use xlink:href="#f0_2j" transform="matrix(12,0,0,12,234.5,124.8)" />
<use xlink:href="#f0_2b" transform="matrix(12,0,0,12,247.4,124.8)" />
<use xlink:href="#f0_2e" transform="matrix(12,0,0,12,256.5,124.8)" />
<use xlink:href="#f0_27" transform="matrix(12,0,0,12,262.8,124.8)" />
<use xlink:href="#f0_20" transform="matrix(12,0,0,12,275.3,124.8)" />
<use xlink:href="#f0_2b" transform="matrix(12,0,0,12,284.1,124.8)" />
<use xlink:href="#f0_2a" transform="matrix(12,0,0,12,293.3,124.8)" />
<use xlink:href="#f0_21" transform="matrix(12,0,0,12,302.1,124.8)" />
<use xlink:href="#f0_25" transform="matrix(12,0,0,12,313.1,124.8)" />
<use xlink:href="#f0_2a" transform="matrix(12,0,0,12,317.5,124.8)" />
<use xlink:href="#f0_2g" transform="matrix(12,0,0,12,329.7,124.8)" />
<use xlink:href="#f0_2h" transform="matrix(12,0,0,12,334.8,124.8)" />
<use xlink:href="#f0_2e" transform="matrix(12,0,0,12,343.6,124.8)" />
<use xlink:href="#f0_2a" transform="matrix(12,0,0,12,349.8,124.8)" />
<use xlink:href="#f0_25" transform="matrix(12,0,0,12,358.3,124.8)" />
<use xlink:href="#f0_2a" transform="matrix(12,0,0,12,362.3,124.8)" />
<use xlink:href="#f0_23" transform="matrix(12,0,0,12,371.2,124.8)" />
<use xlink:href="#f0_2g" transform="matrix(12,0,0,12,383.3,124.8)" />
<use xlink:href="#f0_24" transform="matrix(12,0,0,12,388.4,124.8)" />
<use xlink:href="#f0_21" transform="matrix(12,0,0,12,396.9,124.8)" />
<use xlink:href="#f0_29" transform="matrix(12,0,0,12,408.3,124.8)" />
<use xlink:href="#f0_1x" transform="matrix(12,0,0,12,421.5,124.8)" />
<use xlink:href="#f0_23" transform="matrix(12,0,0,12,429.6,124.8)" />
<use xlink:href="#f0_2a" transform="matrix(12,0,0,12,438.4,124.8)" />
<use xlink:href="#f0_21" transform="matrix(12,0,0,12,447.2,124.8)" />
<use xlink:href="#f0_2g" transform="matrix(12,0,0,12,454.9,124.8)" />
<use xlink:href="#f0_2g" transform="matrix(12,0,0,12,463.7,124.8)" />
<use xlink:href="#f0_2b" transform="matrix(12,0,0,12,468.9,124.8)" />
<use xlink:href="#f0_1x" transform="matrix(12,0,0,12,481.7,124.8)" />
<use xlink:href="#f0_28" transform="matrix(12,0,0,12,489.4,124.8)" />
<use xlink:href="#f0_25" transform="matrix(12,0,0,12,493.9,124.8)" />
<use xlink:href="#f0_23" transform="matrix(12,0,0,12,497.9,124.8)" />
<use xlink:href="#f0_2a" transform="matrix(12,0,0,12,506.7,124.8)" />
<use xlink:href="#f0_25" transform="matrix(12,0,0,12,518.9,124.8)" />
<use xlink:href="#f0_2g" transform="matrix(12,0,0,12,522.9,124.8)" />
<use xlink:href="#f0_2f" transform="matrix(12,0,0,12,528.4,124.8)" />
<use xlink:href="#f0_29" transform="matrix(12,0,0,12,538.3,124.8)" />
<use xlink:href="#f0_1x" transform="matrix(12,0,0,12,551.6,124.8)" />
<use xlink:href="#f0_23" transform="matrix(12,0,0,12,559.3,124.8)" />
<use xlink:href="#f0_2a" transform="matrix(12,0,0,12,568.4,124.8)" />
<use xlink:href="#f0_21" transform="matrix(12,0,0,12,576.9,124.8)" />
<use xlink:href="#f0_2g" transform="matrix(12,0,0,12,584.6,124.8)" />
<use xlink:href="#f0_25" transform="matrix(12,0,0,12,590.1,124.8)" />
<use xlink:href="#f0_1z" transform="matrix(12,0,0,12,594.2,124.8)" />
<use xlink:href="#f0_29" transform="matrix(12,0,0,12,605.6,124.8)" />
<use xlink:href="#f0_2b" transform="matrix(12,0,0,12,618.8,124.8)" />
<use xlink:href="#f0_29" transform="matrix(12,0,0,12,628.3,124.8)" />
<use xlink:href="#f0_21" transform="matrix(12,0,0,12,641.5,124.8)" />
<use xlink:href="#f0_2a" transform="matrix(12,0,0,12,649.2,124.8)" />
<use xlink:href="#f0_2g" transform="matrix(12,0,0,12,658.1,124.8)" />
<use xlink:href="#f0_c" transform="matrix(12,0,0,12,666.9,124.8)" />
<use xlink:href="#f0_25" transform="matrix(12,0,0,12,672.8,124.8)" />
<use xlink:href="#f0_d" transform="matrix(12,0,0,12,676.8,124.8)" />
<use xlink:href="#f0_2a" transform="matrix(12,0,0,12,686.4,124.8)" />
<use xlink:href="#f0_2b" transform="matrix(12,0,0,12,694.8,124.8)" />
<use xlink:href="#f0_2e" transform="matrix(12,0,0,12,704.3,124.8)" />
<use xlink:href="#f0_29" transform="matrix(12,0,0,12,710.2,124.8)" />
<use xlink:href="#f0_1x" transform="matrix(12,0,0,12,723.8,124.8)" />
<use xlink:href="#f0_28" transform="matrix(12,0,0,12,731.5,124.8)" />
<use xlink:href="#f0_2g" transform="matrix(12,0,0,12,738.9,124.8)" />
<use xlink:href="#f0_2b" transform="matrix(12,0,0,12,744,124.8)" />
<use xlink:href="#f0_2g" transform="matrix(12,0,0,12,756.9,124.8)" />
<use xlink:href="#f0_24" transform="matrix(12,0,0,12,762,124.8)" />
<use xlink:href="#f0_21" transform="matrix(12,0,0,12,770.8,124.8)" />
<use xlink:href="#f0_29" transform="matrix(12,0,0,12,781.9,124.8)" />
<use xlink:href="#f0_1x" transform="matrix(12,0,0,12,795.4,124.8)" />
<use xlink:href="#f0_23" transform="matrix(12,0,0,12,803.2,124.8)" />
<use xlink:href="#f0_2a" transform="matrix(12,0,0,12,810.7,124.8)" />
<use xlink:href="#f0_21" transform="matrix(12,0,0,12,819.5,124.8)" />
<use xlink:href="#f0_2g" transform="matrix(12,0,0,12,827.2,124.8)" />
<use xlink:href="#f0_25" transform="matrix(12,0,0,12,832.7,124.8)" />
<use xlink:href="#f0_1z" transform="matrix(12,0,0,12,836.8,124.8)" />
<use xlink:href="#f0_22" transform="matrix(12,0,0,12,117,149.4)" />
<use xlink:href="#f0_25" transform="matrix(12,0,0,12,122.1,149.4)" />
<use xlink:href="#f0_21" transform="matrix(12,0,0,12,126.2,149.4)" />
<use xlink:href="#f0_28" transform="matrix(12,0,0,12,134.3,149.4)" />
<use xlink:href="#f0_20" transform="matrix(12,0,0,12,138.3,149.4)" />
<use xlink:href="#f0_g" transform="matrix(12,0,0,12,147.1,149.4)" />
<use xlink:href="#f0_c" transform="matrix(12,0,0,12,155.2,149.4)" />
<use xlink:href="#f0_25" transform="matrix(12,0,0,12,161.1,149.4)" />
<use xlink:href="#f0_25" transform="matrix(12,0,0,12,165.2,149.4)" />
<use xlink:href="#f0_d" transform="matrix(12,0,0,12,169.2,149.4)" />
<use xlink:href="#f0_2b" transform="matrix(12,0,0,12,178.4,149.4)" />
<use xlink:href="#f0_2c" transform="matrix(12,0,0,12,187.6,149.4)" />
<use xlink:href="#f0_2c" transform="matrix(12,0,0,12,196.4,149.4)" />
<use xlink:href="#f0_2b" transform="matrix(12,0,0,12,205.5,149.4)" />
<use xlink:href="#f0_2f" transform="matrix(12,0,0,12,214.7,149.4)" />
<use xlink:href="#f0_25" transform="matrix(12,0,0,12,221.3,149.4)" />
<use xlink:href="#f0_2g" transform="matrix(12,0,0,12,225.4,149.4)" />
<use xlink:href="#f0_21" transform="matrix(12,0,0,12,230.9,149.4)" />
<use xlink:href="#f0_2g" transform="matrix(12,0,0,12,241.9,149.4)" />
<use xlink:href="#f0_2b" transform="matrix(12,0,0,12,247,149.4)" />
<use xlink:href="#f0_2g" transform="matrix(12,0,0,12,259.9,149.4)" />
<use xlink:href="#f0_24" transform="matrix(12,0,0,12,265,149.4)" />
<use xlink:href="#f0_21" transform="matrix(12,0,0,12,273.5,149.4)" />
<use xlink:href="#f0_29" transform="matrix(12,0,0,12,284.9,149.4)" />
<use xlink:href="#f0_1x" transform="matrix(12,0,0,12,298.1,149.4)" />
<use xlink:href="#f0_23" transform="matrix(12,0,0,12,305.8,149.4)" />
<use xlink:href="#f0_2a" transform="matrix(12,0,0,12,315,149.4)" />
<use xlink:href="#f0_21" transform="matrix(12,0,0,12,323.4,149.4)" />
<use xlink:href="#f0_2g" transform="matrix(12,0,0,12,331.1,149.4)" />
<use xlink:href="#f0_25" transform="matrix(12,0,0,12,336.3,149.4)" />
<use xlink:href="#f0_1z" transform="matrix(12,0,0,12,340.7,149.4)" />
<use xlink:href="#f0_22" transform="matrix(12,0,0,12,351.3,149.4)" />
<use xlink:href="#f0_25" transform="matrix(12,0,0,12,356.5,149.4)" />
<use xlink:href="#f0_21" transform="matrix(12,0,0,12,360.9,149.4)" />
<use xlink:href="#f0_28" transform="matrix(12,0,0,12,368.6,149.4)" />
<use xlink:href="#f0_20" transform="matrix(12,0,0,12,372.7,149.4)" />
<use xlink:href="#f0_g" transform="matrix(12,0,0,12,381.5,149.4)" />
<use xlink:href="#f0_1x" transform="matrix(12,0,0,12,389.6,149.4)" />
<use xlink:href="#f0_2a" transform="matrix(12,0,0,12,397.3,149.4)" />
<use xlink:href="#f0_20" transform="matrix(12,0,0,12,405.8,149.4)" />
<use xlink:href="#f0_c" transform="matrix(12,0,0,12,418.2,149.4)" />
<use xlink:href="#f0_1y" transform="matrix(12,0,0,12,424.1,149.4)" />
<use xlink:href="#f0_d" transform="matrix(12,0,0,12,432.6,149.4)" />
<use xlink:href="#f0_2g" transform="matrix(12,0,0,12,442.1,149.4)" />
<use xlink:href="#f0_24" transform="matrix(12,0,0,12,447.2,149.4)" />
<use xlink:href="#f0_21" transform="matrix(12,0,0,12,455.7,149.4)" />
<use xlink:href="#f0_2g" transform="matrix(12,0,0,12,466.7,149.4)" />
<use xlink:href="#f0_2b" transform="matrix(12,0,0,12,471.9,149.4)" />
<use xlink:href="#f0_2e" transform="matrix(12,0,0,12,481,149.4)" />
<use xlink:href="#f0_2d" transform="matrix(12,0,0,12,486.9,149.4)" />
<use xlink:href="#f0_2h" transform="matrix(12,0,0,12,496.1,149.4)" />
<use xlink:href="#f0_21" transform="matrix(12,0,0,12,504.9,149.4)" />
<use xlink:href="#f0_2b" transform="matrix(12,0,0,12,515.9,149.4)" />
<use xlink:href="#f0_2a" transform="matrix(12,0,0,12,525.5,149.4)" />
<use xlink:href="#f0_2g" transform="matrix(12,0,0,12,537.2,149.4)" />
<use xlink:href="#f0_24" transform="matrix(12,0,0,12,542.4,149.4)" />
<use xlink:href="#f0_21" transform="matrix(12,0,0,12,551.2,149.4)" />
<use xlink:href="#f0_29" transform="matrix(12,0,0,12,562.2,149.4)" />
<use xlink:href="#f0_1x" transform="matrix(12,0,0,12,575.4,149.4)" />
<use xlink:href="#f0_23" transform="matrix(12,0,0,12,583.5,149.4)" />
<use xlink:href="#f0_2a" transform="matrix(12,0,0,12,592.3,149.4)" />
<use xlink:href="#f0_21" transform="matrix(12,0,0,12,600.8,149.4)" />
<use xlink:href="#f0_2g" transform="matrix(12,0,0,12,608.5,149.4)" />
<use xlink:href="#f0_25" transform="matrix(12,0,0,12,616.9,149.4)" />
<use xlink:href="#f0_2a" transform="matrix(12,0,0,12,621,149.4)" />
<use xlink:href="#f0_2g" transform="matrix(12,0,0,12,633.1,149.4)" />
<use xlink:href="#f0_24" transform="matrix(12,0,0,12,638.3,149.4)" />
<use xlink:href="#f0_21" transform="matrix(12,0,0,12,646.7,149.4)" />
<use xlink:href="#f0_22" transform="matrix(12,0,0,12,658.1,149.4)" />
<use xlink:href="#f0_25" transform="matrix(12,0,0,12,663.3,149.4)" />
<use xlink:href="#f0_2a" transform="matrix(12,0,0,12,667.3,149.4)" />
<use xlink:href="#f0_1x" transform="matrix(12,0,0,12,675.8,149.4)" />
<use xlink:href="#f0_28" transform="matrix(12,0,0,12,683.8,149.4)" />
<use xlink:href="#f0_2b" transform="matrix(12,0,0,12,691.2,149.4)" />
<use xlink:href="#f0_2e" transform="matrix(12,0,0,12,700.4,149.4)" />
<use xlink:href="#f0_25" transform="matrix(12,0,0,12,706.6,149.4)" />
<use xlink:href="#f0_21" transform="matrix(12,0,0,12,710.7,149.4)" />
<use xlink:href="#f0_2a" transform="matrix(12,0,0,12,718.4,149.4)" />
<use xlink:href="#f0_2g" transform="matrix(12,0,0,12,726.8,149.4)" />
<use xlink:href="#f0_1x" transform="matrix(12,0,0,12,732.3,149.4)" />
<use xlink:href="#f0_2g" transform="matrix(12,0,0,12,740,149.4)" />
<use xlink:href="#f0_25" transform="matrix(12,0,0,12,745.2,149.4)" />
<use xlink:href="#f0_2b" transform="matrix(12,0,0,12,749.2,149.4)" />
<use xlink:href="#f0_2a" transform="matrix(12,0,0,12,757.5,149.4)" />
<use xlink:href="#f0_25" transform="matrix(12,0,0,12,768.9,149.4)" />
<use xlink:href="#f0_2a" transform="matrix(12,0,0,12,773,149.4)" />
<use xlink:href="#f0_1z" transform="matrix(12,0,0,12,785.1,149.4)" />
<use xlink:href="#f0_1x" transform="matrix(12,0,0,12,792.8,149.4)" />
<use xlink:href="#f0_2f" transform="matrix(12,0,0,12,800.6,149.4)" />
<use xlink:href="#f0_21" transform="matrix(12,0,0,12,807.5,149.4)" />
<use xlink:href="#f0_c" transform="matrix(12,0,0,12,818.6,149.4)" />
<use xlink:href="#f0_25" transform="matrix(12,0,0,12,824.5,149.4)" />
<use xlink:href="#f0_25" transform="matrix(12,0,0,12,828.9,149.4)" />
<use xlink:href="#f0_d" transform="matrix(12,0,0,12,832.9,149.4)" />
<use xlink:href="#f0_i" transform="matrix(12,0,0,12,838.8,149.4)" />
<use xlink:href="#f0_11" transform="matrix(12,0,0,12,64.9,180.5)" />
<use xlink:href="#f0_2a" transform="matrix(12,0,0,12,77.4,180.5)" />
<use xlink:href="#f0_2f" transform="matrix(12,0,0,12,85.8,180.5)" />
<use xlink:href="#f0_i" transform="matrix(12,0,0,12,92.4,180.5)" />
</g>
<g clip-path="url(#c0_8)">
<g fill="#000000" >
<use xlink:href="#f0_q" transform="matrix(11.9,0,0,11.9,152.9,180.9)" />
<use xlink:href="#f0_j" transform="matrix(11.9,0,0,11.9,178.2,180.9)" />
</g>
</g>
<g clip-path="url(#c1_8)">
<g fill="#000000" >
<use xlink:href="#f1_1d" transform="matrix(11.9,0,0,11.9,119.9,180.9)" />
<use xlink:href="#f1_1a" transform="matrix(11.9,0,0,11.9,165,180.9)" />
<use xlink:href="#f1_1k" transform="matrix(11.9,0,0,11.9,185.2,180.9)" />
</g>
</g>
<g clip-path="url(#c2_8)">
<g fill="#000000" >
<use xlink:href="#f2_x" transform="matrix(11.9,0,0,11.9,140.4,180.9)" />
</g>
</g>
<g clip-path="url(#c3_8)">
<g fill="#000000" >
<use xlink:href="#f0_q" transform="matrix(11.9,0,0,11.9,144.5,214.3)" />
<use xlink:href="#f0_k" transform="matrix(11.9,0,0,11.9,153.6,214.3)" />
</g>
</g>
<g clip-path="url(#c4_8)">
<g fill="#000000" >
<use xlink:href="#f3_2d" transform="matrix(11.9,0,-3.2,11.9,118.1,214.3)" />
</g>
</g>
<g clip-path="url(#c5_8)">
<g fill="#000000" >
<use xlink:href="#f2_x" transform="matrix(11.9,0,0,11.9,132.4,214.3)" />
<use xlink:href="#f2_36" transform="matrix(11.9,0,0,11.9,162.8,214.3)" />
</g>
</g>
<g clip-path="url(#c6_8)">
<g fill="#000000" >
<use xlink:href="#f0_k" transform="matrix(11.9,0,0,11.9,146.7,247.6)" />
<use xlink:href="#f0_i" transform="matrix(11.9,0,0,11.9,155.8,247.6)" />
<use xlink:href="#f0_o" transform="matrix(11.9,0,0,11.9,160.2,247.6)" />
<use xlink:href="#f0_o" transform="matrix(11.9,0,0,11.9,169.4,247.6)" />
</g>
</g>
<g clip-path="url(#c7_8)">
<g fill="#000000" >
<use xlink:href="#f1_12" transform="matrix(11.9,0,0,11.9,120.3,247.6)" />
<use xlink:href="#f1_1k" transform="matrix(11.9,0,0,11.9,179.7,247.6)" />
</g>
</g>
<g clip-path="url(#c8_8)">
<g fill="#000000" >
<use xlink:href="#f2_x" transform="matrix(11.9,0,0,11.9,134.2,247.6)" />
</g>
</g>
<g clip-path="url(#c9_8)">
<g fill="#000000" >
<use xlink:href="#f0_2f" transform="matrix(11.9,0,0,11.9,173.4,281)" />
<use xlink:href="#f0_25" transform="matrix(11.9,0,0,11.9,180.8,281)" />
<use xlink:href="#f0_2a" transform="matrix(11.9,0,0,11.9,185.9,281)" />
</g>
</g>
<g fill="#000000" >
<use xlink:href="#f1_29" transform="matrix(11.9,0,0,11.9,143.7,281)" />
<use xlink:href="#f1_12" transform="matrix(11.9,0,0,11.9,159.9,281)" />
</g>
<g clip-path="url(#c10_8)">
<g fill="#000000" >
<use xlink:href="#f3_2g" transform="matrix(11.9,0,-3.2,11.9,117.7,281)" />
<use xlink:href="#f3_2d" transform="matrix(11.9,0,-3.2,11.9,196.5,281)" />
</g>
</g>
<g clip-path="url(#c11_8)">
<g fill="#000000" >
<use xlink:href="#f2_x" transform="matrix(11.9,0,0,11.9,130.9,281)" />
</g>
</g>
<g clip-path="url(#c12_8)">
<g fill="#000000" >
<use xlink:href="#f0_q" transform="matrix(11.9,0,0,11.9,143.4,314.4)" />
<use xlink:href="#f0_k" transform="matrix(11.9,0,0,11.9,165.4,314.4)" />
<use xlink:href="#f0_i" transform="matrix(11.9,0,0,11.9,174.5,314.4)" />
<use xlink:href="#f0_o" transform="matrix(11.9,0,0,11.9,178.9,314.4)" />
<use xlink:href="#f0_o" transform="matrix(11.9,0,0,11.9,188.1,314.4)" />
<use xlink:href="#f0_2f" transform="matrix(11.9,0,0,11.9,199.1,314.4)" />
<use xlink:href="#f0_25" transform="matrix(11.9,0,0,11.9,206.1,314.4)" />
<use xlink:href="#f0_2a" transform="matrix(11.9,0,0,11.9,211.2,314.4)" />
<use xlink:href="#f0_q" transform="matrix(11.9,0,0,11.9,223.3,314.4)" />
<use xlink:href="#f0_k" transform="matrix(11.9,0,0,11.9,232.4,314.4)" />
</g>
</g>
<g clip-path="url(#c13_8)">
<g fill="#000000" >
<use xlink:href="#f3_2g" transform="matrix(11.9,0,-3.2,11.9,117.7,314.4)" />
</g>
</g>
<g clip-path="url(#c14_8)">
<g fill="#000000" >
<use xlink:href="#f2_x" transform="matrix(11.9,0,0,11.9,130.9,314.4)" />
<use xlink:href="#f2_3a" transform="matrix(11.9,0,0,11.9,153.6,314.4)" />
<use xlink:href="#f2_36" transform="matrix(11.9,0,0,11.9,241.6,314.4)" />
</g>
</g>
<path d="M629.7,243.1H447.6v-2.2H629.7v2.2Zm-.5,-5.7l8.9,4.4l-8.9,4.8v-9.2Z" class="g0_8" />
<path d="M629.7,347.5H447.6v-2.2H629.7v2.2Zm-.5,-5.7l8.9,4.8l-8.9,4.4v-9.2Z" class="g0_8" />
<path d="M629.7,270.4H447.6v-2.2H629.7v2.2Zm-.5,-5.7l8.9,4.8l-8.9,4.9v-9.7Z" class="g0_8" />
<path d="M629.7,295.5H447.6v-1.7H629.7v1.7Zm-.5,-5.7l8.9,4.8l-8.9,4.9v-9.7Z" class="g0_8" />
<path d="M629.7,321.9H447.6v-2.2H629.7v2.2Zm-.5,-5.7l8.9,4.9l-8.9,4.8v-9.7Z" class="g0_8" />
<path d="M553.2,255.9l1.4,-.5l11.9,7.9l-1.3,1.4l-11.5,-7.5l-.5,-1.3Zm0,0l.5,-.9l.9,.4l-1.4,.5Zm-46.8,72.6l-.4,-1.3l47.2,-71.3l1.8,.8l-47.7,71.4l-.9,.4Zm0,0l-.9,-.8l.5,-.5l.4,1.3Zm12.8,7.5h-1.3l-11.5,-7.5l.9,-1.7l11.9,7.9V336Zm0,0l-.4,.5l-.9,-.5h1.3Zm47.3,-72.7v1.4L519.2,336l-1.3,-1.3l47.3,-70.9l1.3,-.5Zm0,0l.4,.5l-.4,.9v-1.4Z" class="g0_8" />
<path d="M506.8,336.9l1.4,1.3l-2.2,3.1L504.6,340l2.2,-3.1Zm3.1,-4.4l1.3,.9l-2.2,3.1l-1.3,-.9l2.2,-3.1Zm3.1,-4.4l1.3,.9l-2.2,3.1l-1.3,-.9l2.2,-3.1Zm3.1,-4.8l1.3,1.3l-2.2,3.1l-1.3,-1.4l2.2,-3Zm3.1,-4.4l1.3,.8l-2.2,3.1l-1.3,-.9l2.2,-3Zm3.1,-4.5l1.3,.9l-1.7,3.1l-1.8,-.9l2.2,-3.1Zm3.1,-4.8l1.3,1.3L525,314l-1.8,-1.3l2.2,-3.1Zm3.1,-4.4l1.3,.9l-1.8,3.1l-1.7,-.9l2.2,-3.1Zm3.1,-4.4l1.3,.9l-1.8,3.1l-1.7,-.9l2.2,-3.1Zm3.1,-4.8l1.3,1.3l-1.8,3.1L532.5,299l2.2,-3Zm3.1,-4.4l1.3,.8l-1.8,3.1l-1.7,-.9l2.2,-3Zm3.1,-4.5l1.3,.9l-1.8,3.1l-1.7,-.9l2.2,-3.1Zm3.1,-4.8l1.3,1.3l-1.8,3.1l-1.7,-1.3l2.2,-3.1Zm3,-4.4l1.4,.9l-1.8,3.1l-1.8,-.9l2.2,-3.1Zm3.1,-4.4l1.4,.9l-1.8,3l-1.8,-.8l2.2,-3.1Zm3.1,-4.9l1.4,1.4l-1.8,2.6l-1.8,-.9l2.2,-3.1Zm3.1,-4.4l1.4,.9l-1.8,3.1l-1.8,-.9l2.2,-3.1Zm3.1,-4.4l1.3,.9l-1.7,3.1l-1.8,-1.3l2.2,-2.7Zm3.1,-4.8l1.3,1.3l-1.7,2.6l-1.8,-.8l2.2,-3.1Zm4.4,-3.6l-1.7,3.1l-1.8,-.9l2.2,-3l1.3,.8Z" class="g0_8" />
<path d="M561.2,294.6h-1.8v-4.8l-.4,-.4v-.5l-.5,-.9l-.4,-.4l-.4,-.5l-.9,-.8l-.9,-.5l-.9,-.4l-1.3,-.5l-.9,-.4l.4,-1.8l1.4,.5l1.3,.4l.9,.9l.9,.4l.8,.9l.9,.5l.5,.8l.4,.9l.4,.9l.5,.9v4.8Z" class="g0_8" />
<g clip-path="url(#c15_8)">
<g fill="#1F1A17" >
<use xlink:href="#f0_q" transform="matrix(14.4,0,0,14.4,566.5,292.4)" />
<use xlink:href="#f0_k" transform="matrix(14.4,0,0,14.4,577.5,292.4)" />
<use xlink:href="#f0_3o" transform="matrix(14.4,0,0,14.4,588.5,292.4)" />
</g>
</g>
<path d="M210.4,351.6l1.9,-1.1m0,0l4.4,7.3m0,0l4.9,-19.2m0,0H231" class="g1_8" />
<path fill-rule="evenodd" d="M210.3,351.4l2.5,-1.4l3.9,5.9l4.5,-17.8H231v1h-9.1l-4.7,18.7h-.9l-4.5,-6.7l-1.3,.8Z" class="g2_8" />
<path d="M208.8,363.1h23.6" class="g3_8" />
<g clip-path="url(#c16_8)">
<g fill="#000000" >
<use xlink:href="#f0_n" transform="matrix(11.9,0,0,11.9,221.8,356.2)" />
</g>
</g>
<g fill="#000000" >
<use xlink:href="#f0_q" transform="matrix(11.9,0,0,11.9,141.2,367.5)" />
<use xlink:href="#f0_k" transform="matrix(11.9,0,0,11.9,163.1,367.5)" />
<use xlink:href="#f0_i" transform="matrix(11.9,0,0,11.9,172.3,367.5)" />
<use xlink:href="#f0_o" transform="matrix(11.9,0,0,11.9,177.1,367.5)" />
<use xlink:href="#f0_o" transform="matrix(11.9,0,0,11.9,186.2,367.5)" />
</g>
<g clip-path="url(#c17_8)">
<g fill="#000000" >
<use xlink:href="#f0_m" transform="matrix(11.9,0,0,11.9,216.3,381.8)" />
</g>
</g>
<g fill="#000000" >
<use xlink:href="#f2_x" transform="matrix(11.9,0,0,11.9,129.1,367.5)" />
<use xlink:href="#f2_3a" transform="matrix(11.9,0,0,11.9,151.4,367.5)" />
<use xlink:href="#f2_3a" transform="matrix(11.9,0,0,11.9,196.5,367.5)" />
</g>
<path d="M150.1,414.9l1.9,-1m0,0l4.4,7.2m0,0L161.3,402m0,0h9.3" class="g1_8" />
<path fill-rule="evenodd" d="M150,414.7l2.5,-1.4l4,5.9l4.4,-17.6h9.7v.9h-9l-4.7,18.6H156l-4.5,-6.6l-1.2,.7Z" class="g2_8" />
<g clip-path="url(#c18_8)">
<g fill="#000000" >
<use xlink:href="#f0_n" transform="matrix(11.8,0,0,11.8,140.8,419.6)" />
<use xlink:href="#f0_n" transform="matrix(11.8,0,0,11.8,161.3,419.6)" />
<use xlink:href="#f0_k" transform="matrix(11.8,0,0,11.8,184.4,419.6)" />
<use xlink:href="#f0_i" transform="matrix(11.8,0,0,11.8,193.6,419.6)" />
<use xlink:href="#f0_o" transform="matrix(11.8,0,0,11.8,198,419.6)" />
<use xlink:href="#f0_o" transform="matrix(11.8,0,0,11.8,207.1,419.6)" />
</g>
</g>
<g fill="#000000" >
<use xlink:href="#f2_x" transform="matrix(11.8,0,0,11.8,129.1,419.6)" />
<use xlink:href="#f2_3a" transform="matrix(11.8,0,0,11.8,172.7,419.6)" />
</g>
<g clip-path="url(#c19_8)">
<g fill="#000000" >
<use xlink:href="#f0_m" transform="matrix(11.9,0,0,11.9,141.5,453.3)" />
<use xlink:href="#f0_i" transform="matrix(11.9,0,0,11.9,150.7,453.3)" />
<use xlink:href="#f0_s" transform="matrix(11.9,0,0,11.9,155.1,453.3)" />
<use xlink:href="#f0_n" transform="matrix(11.9,0,0,11.9,164.3,453.3)" />
<use xlink:href="#f0_q" transform="matrix(11.9,0,0,11.9,173.4,453.3)" />
</g>
</g>
<g clip-path="url(#c20_8)">
<g fill="#000000" >
<use xlink:href="#f2_x" transform="matrix(11.9,0,0,11.9,129.1,453.3)" />
</g>
</g>
<g fill="#000000" >
<use xlink:href="#f2_1r" transform="matrix(11.8,0,0,16.4,266.6,507.6)" />
<use xlink:href="#f2_1t" transform="matrix(11.8,0,0,16.4,392.3,507.6)" />
<use xlink:href="#f0_t" transform="matrix(7,0,0,7,150.3,484.9)" />
<use xlink:href="#f0_k" transform="matrix(7,0,0,7,155.5,484.9)" />
<use xlink:href="#f0_q" transform="matrix(7,0,0,7,157.3,525.9)" />
<use xlink:href="#f0_k" transform="matrix(7,0,0,7,162.4,525.9)" />
</g>
<g clip-path="url(#c21_8)">
<g fill="#000000" >
<use xlink:href="#f0_1z" transform="matrix(12,0,0,12.1,273.2,506.1)" />
<use xlink:href="#f0_2b" transform="matrix(12,0,0,12.1,281.2,506.1)" />
<use xlink:href="#f0_2f" transform="matrix(12,0,0,12.1,290.4,506.1)" />
<use xlink:href="#f0_t" transform="matrix(12,0,0,12.1,299.6,506.1)" />
<use xlink:href="#f0_k" transform="matrix(12,0,0,12.1,308.7,506.1)" />
<use xlink:href="#f0_1z" transform="matrix(12,0,0,12.1,339.9,506.1)" />
<use xlink:href="#f0_2b" transform="matrix(12,0,0,12.1,348,506.1)" />
<use xlink:href="#f0_2f" transform="matrix(12,0,0,12.1,357.1,506.1)" />
<use xlink:href="#f0_q" transform="matrix(12,0,0,12.1,366.3,506.1)" />
<use xlink:href="#f0_k" transform="matrix(12,0,0,12.1,375.5,506.1)" />
</g>
</g>
<g fill="#000000" >
<use xlink:href="#f1_20" transform="matrix(12,0,0,12.1,119.9,506.1)" />
<use xlink:href="#f1_2j" transform="matrix(12,0,0,12.1,129.1,506.1)" />
<use xlink:href="#f1_20" transform="matrix(12,0,0,12.1,191.4,506.1)" />
<use xlink:href="#f1_29" transform="matrix(12,0,0,12.1,240.5,506.1)" />
<use xlink:href="#f1_12" transform="matrix(12,0,0,12.1,253.7,506.1)" />
<use xlink:href="#f3_2d" transform="matrix(7,0,-1.9,7,142.3,525.9)" />
<use xlink:href="#f3_2g" transform="matrix(12,0,-3.2,12.1,172.7,506.1)" />
<use xlink:href="#f3_2d" transform="matrix(12,0,-3.2,12.1,200.6,506.1)" />
<use xlink:href="#f2_36" transform="matrix(7,0,0,7,160.6,484.9)" />
<use xlink:href="#f2_x" transform="matrix(7,0,0,7,150.3,525.9)" />
<use xlink:href="#f2_36" transform="matrix(7,0,0,7,167.9,525.9)" />
</g>
<g clip-path="url(#c22_8)">
<g fill="#000000" >
<use xlink:href="#f2_49" transform="matrix(12,0,0,12.1,184.8,506.1)" />
<use xlink:href="#f2_x" transform="matrix(12,0,0,12.1,214.9,506.1)" />
<use xlink:href="#f2_h" transform="matrix(12,0,0,12.1,227.3,506.1)" />
<use xlink:href="#f2_36" transform="matrix(12,0,0,12.1,317.9,506.1)" />
<use xlink:href="#f2_h" transform="matrix(12,0,0,12.1,327.4,506.1)" />
<use xlink:href="#f2_36" transform="matrix(12,0,0,12.1,384.6,506.1)" />
</g>
</g>
<g fill="#000000" >
<use xlink:href="#f2_50" transform="matrix(18.1,0,0,18.1,154,512.7)" />
</g>
<path d="M303.6,573h10" class="g4_8" />
<g clip-path="url(#c23_8)">
<g fill="#000000" >
<use xlink:href="#f0_l" transform="matrix(11.9,0,0,11.9,304.3,566.3)" />
</g>
</g>
<g fill="#000000" >
<use xlink:href="#f0_q" transform="matrix(11.9,0,0,11.9,222.6,577.6)" />
<use xlink:href="#f0_k" transform="matrix(11.9,0,0,11.9,242.7,577.6)" />
<use xlink:href="#f0_i" transform="matrix(11.9,0,0,11.9,250.8,577.6)" />
<use xlink:href="#f0_o" transform="matrix(11.9,0,0,11.9,255.2,577.6)" />
<use xlink:href="#f0_o" transform="matrix(11.9,0,0,11.9,263.7,577.6)" />
</g>
<g clip-path="url(#c24_8)">
<g fill="#000000" >
<use xlink:href="#f0_m" transform="matrix(11.9,0,0,11.9,304.7,591.9)" />
</g>
</g>
<g clip-path="url(#c25_8)">
<g fill="#000000" >
<use xlink:href="#f2_4r" transform="matrix(11.9,0,0,11.9,284.9,567.4)" />
<use xlink:href="#f2_57" transform="matrix(11.9,0,0,11.9,315,567.4)" />
</g>
</g>
<g clip-path="url(#c26_8)">
<g fill="#000000" >
<use xlink:href="#f2_x" transform="matrix(11.9,0,0,11.9,211.2,577.6)" />
<use xlink:href="#f2_3a" transform="matrix(11.9,0,0,11.9,231.7,577.6)" />
<use xlink:href="#f2_3a" transform="matrix(11.9,0,0,11.9,273.5,577.6)" />
<use xlink:href="#f2_h" transform="matrix(11.9,0,0,11.9,291.8,577.6)" />
</g>
</g>
<g clip-path="url(#c27_8)">
<g fill="#000000" >
<use xlink:href="#f2_4s" transform="matrix(11.9,0,0,11.9,284.9,585)" />
<use xlink:href="#f2_58" transform="matrix(11.9,0,0,11.9,315,585)" />
</g>
</g>
<g clip-path="url(#c28_8)">
<g fill="#000000" >
<use xlink:href="#f2_4t" transform="matrix(11.9,0,0,11.9,284.9,594.1)" />
<use xlink:href="#f2_59" transform="matrix(11.9,0,0,11.9,315,594.1)" />
</g>
</g>
<g clip-path="url(#c29_8)">
<g fill="#000000" >
<use xlink:href="#f0_n" transform="matrix(11.9,0,0,11.9,225.1,627.5)" />
<use xlink:href="#f0_k" transform="matrix(11.9,0,0,11.9,248.6,627.5)" />
<use xlink:href="#f0_i" transform="matrix(11.9,0,0,11.9,258.8,627.5)" />
<use xlink:href="#f0_o" transform="matrix(11.9,0,0,11.9,264,627.5)" />
<use xlink:href="#f0_o" transform="matrix(11.9,0,0,11.9,273.9,627.5)" />
<use xlink:href="#f0_l" transform="matrix(11.9,0,0,11.9,298.4,627.5)" />
<use xlink:href="#f0_i" transform="matrix(11.9,0,0,11.9,308.3,627.5)" />
<use xlink:href="#f0_n" transform="matrix(11.9,0,0,11.9,313.4,627.5)" />
<use xlink:href="#f0_m" transform="matrix(11.9,0,0,11.9,323.7,627.5)" />
</g>
</g>
<g clip-path="url(#c30_8)">
<g fill="#000000" >
<use xlink:href="#f1_1a" transform="matrix(11.9,0,0,11.9,337.3,627.5)" />
</g>
</g>
<g clip-path="url(#c31_8)">
<g fill="#000000" >
<use xlink:href="#f2_x" transform="matrix(11.9,0,0,11.9,211.6,627.5)" />
<use xlink:href="#f2_3a" transform="matrix(11.9,0,0,11.9,235.8,627.5)" />
<use xlink:href="#f2_x" transform="matrix(11.9,0,0,11.9,286.7,627.5)" />
</g>
</g>
<g fill="#000000" >
<use xlink:href="#f0_c" transform="matrix(12,0,0,12,117,686.9)" />
<use xlink:href="#f0_25" transform="matrix(12,0,0,12,122.1,686.9)" />
<use xlink:href="#f0_25" transform="matrix(12,0,0,12,125.8,686.9)" />
<use xlink:href="#f0_d" transform="matrix(12,0,0,12,129.1,686.9)" />
<use xlink:href="#f0_l" transform="matrix(7,0,0,7,200.2,659)" />
<use xlink:href="#f0_s" transform="matrix(7,0,0,7,205.7,659)" />
<use xlink:href="#f0_k" transform="matrix(7,0,0,7,210.8,659)" />
<use xlink:href="#f0_q" transform="matrix(7,0,0,7,210.5,700.1)" />
<use xlink:href="#f0_k" transform="matrix(7,0,0,7,215.6,700.1)" />
<use xlink:href="#f0_2f" transform="matrix(12,0,0,12.1,254.5,680.3)" />
<use xlink:href="#f0_25" transform="matrix(12,0,0,12.1,261.8,680.3)" />
<use xlink:href="#f0_2a" transform="matrix(12,0,0,12.1,266.9,680.3)" />
</g>
<g clip-path="url(#c32_8)">
<g fill="#000000" >
<use xlink:href="#f1_20" transform="matrix(12,0,0,12.1,158.8,680.3)" />
<use xlink:href="#f1_2j" transform="matrix(12,0,0,12.1,167.9,680.3)" />
<use xlink:href="#f1_29" transform="matrix(12,0,0,12.1,227.7,680.3)" />
<use xlink:href="#f1_12" transform="matrix(12,0,0,12.1,240.9,680.3)" />
<use xlink:href="#f1_20" transform="matrix(12,0,0,12.1,297,680.3)" />
</g>
</g>
<g fill="#000000" >
<use xlink:href="#f3_2d" transform="matrix(7,0,-1.9,7,195.4,700.1)" />
</g>
<g clip-path="url(#c33_8)">
<g fill="#000000" >
<use xlink:href="#f3_2d" transform="matrix(12,0,-3.2,12.1,277.6,680.3)" />
<use xlink:href="#f3_2d" transform="matrix(12,0,-3.2,12.1,306.2,680.3)" />
</g>
</g>
<g fill="#000000" >
<use xlink:href="#f2_36" transform="matrix(7,0,0,7,216.3,659)" />
<use xlink:href="#f2_x" transform="matrix(7,0,0,7,203.5,700.1)" />
<use xlink:href="#f2_36" transform="matrix(7,0,0,7,221.1,700.1)" />
</g>
<g clip-path="url(#c34_8)">
<g fill="#000000" >
<use xlink:href="#f2_x" transform="matrix(12,0,0,12.1,182.2,680.3)" />
<use xlink:href="#f2_49" transform="matrix(12,0,0,12.1,290.8,680.3)" />
</g>
</g>
<g fill="#000000" >
<use xlink:href="#f2_50" transform="matrix(18.1,0,0,18.1,207.2,686.9)" />
</g>
<g clip-path="url(#c35_8)">
<g fill="#000000" >
<use xlink:href="#f2_1r" transform="matrix(11.8,0,0,16.4,233.2,741.5)" />
</g>
</g>
<g clip-path="url(#c36_8)">
<g fill="#000000" >
<use xlink:href="#f2_1t" transform="matrix(11.8,0,0,16.4,366.7,741.5)" />
</g>
</g>
<g clip-path="url(#c37_8)">
<g fill="#000000" >
<use xlink:href="#f0_1z" transform="matrix(12.1,0,0,12.1,239.8,740.1)" />
<use xlink:href="#f0_2b" transform="matrix(12.1,0,0,12.1,247.9,740.1)" />
<use xlink:href="#f0_2f" transform="matrix(12.1,0,0,12.1,257.1,740.1)" />
<use xlink:href="#f0_l" transform="matrix(12.1,0,0,12.1,264.7,740.1)" />
<use xlink:href="#f0_s" transform="matrix(12.1,0,0,12.1,273.9,740.1)" />
<use xlink:href="#f0_k" transform="matrix(12.1,0,0,12.1,283.1,740.1)" />
<use xlink:href="#f0_1z" transform="matrix(12.1,0,0,12.1,314.3,740.1)" />
<use xlink:href="#f0_2b" transform="matrix(12.1,0,0,12.1,322,740.1)" />
<use xlink:href="#f0_2f" transform="matrix(12.1,0,0,12.1,331.1,740.1)" />
<use xlink:href="#f0_q" transform="matrix(12.1,0,0,12.1,340.7,740.1)" />
<use xlink:href="#f0_k" transform="matrix(12.1,0,0,12.1,349.8,740.1)" />
</g>
</g>
<g fill="#000000" >
<use xlink:href="#f1_29" transform="matrix(12.1,0,0,12.1,206.8,740.1)" />
<use xlink:href="#f1_12" transform="matrix(12.1,0,0,12.1,220,740.1)" />
</g>
<g clip-path="url(#c38_8)">
<g fill="#000000" >
<use xlink:href="#f2_x" transform="matrix(12.1,0,0,12.1,181.9,740.1)" />
<use xlink:href="#f2_h" transform="matrix(12.1,0,0,12.1,194.3,740.1)" />
<use xlink:href="#f2_36" transform="matrix(12.1,0,0,12.1,292.2,740.1)" />
<use xlink:href="#f2_h" transform="matrix(12.1,0,0,12.1,301.7,740.1)" />
<use xlink:href="#f2_36" transform="matrix(12.1,0,0,12.1,358.9,740.1)" />
</g>
</g>
<path d="M305.5,789h10.9" class="g5_8" />
<g clip-path="url(#c39_8)">
<g fill="#000000" >
<use xlink:href="#f0_l" transform="matrix(11.9,0,0,11.9,306.2,782.2)" />
</g>
</g>
<g fill="#000000" >
<use xlink:href="#f0_q" transform="matrix(11.9,0,0,11.9,206.8,793.6)" />
<use xlink:href="#f0_k" transform="matrix(11.9,0,0,11.9,228.8,793.6)" />
<use xlink:href="#f0_i" transform="matrix(11.9,0,0,11.9,237.9,793.6)" />
<use xlink:href="#f0_o" transform="matrix(11.9,0,0,11.9,242.4,793.6)" />
<use xlink:href="#f0_o" transform="matrix(11.9,0,0,11.9,251.9,793.6)" />
<use xlink:href="#f0_l" transform="matrix(11.9,0,0,11.9,281.2,793.6)" />
</g>
<g clip-path="url(#c40_8)">
<g fill="#000000" >
<use xlink:href="#f0_m" transform="matrix(11.9,0,0,11.9,306.5,807.9)" />
</g>
</g>
<g clip-path="url(#c41_8)">
<g fill="#000000" >
<use xlink:href="#f2_4r" transform="matrix(11.9,0,0,11.9,263.6,783.3)" />
<use xlink:href="#f2_57" transform="matrix(11.9,0,0,11.9,317.9,783.3)" />
</g>
</g>
<g fill="#000000" >
<use xlink:href="#f2_x" transform="matrix(11.9,0,0,11.9,181.9,793.6)" />
<use xlink:href="#f2_h" transform="matrix(11.9,0,0,11.9,194.3,793.6)" />
<use xlink:href="#f2_3a" transform="matrix(11.9,0,0,11.9,217.1,793.6)" />
<use xlink:href="#f2_h" transform="matrix(11.9,0,0,11.9,271.3,793.6)" />
<use xlink:href="#f2_h" transform="matrix(11.9,0,0,11.9,291.8,793.6)" />
</g>
<g clip-path="url(#c42_8)">
<g fill="#000000" >
<use xlink:href="#f2_4s" transform="matrix(11.9,0,0,11.9,263.6,800.9)" />
<use xlink:href="#f2_58" transform="matrix(11.9,0,0,11.9,317.9,800.9)" />
</g>
</g>
<g clip-path="url(#c43_8)">
<g fill="#000000" >
<use xlink:href="#f2_4t" transform="matrix(11.9,0,0,11.9,263.6,810.1)" />
<use xlink:href="#f2_59" transform="matrix(11.9,0,0,11.9,317.9,810.1)" />
</g>
</g>
<path d="M284.6,855.4h10.9" class="g3_8" />
<g clip-path="url(#c44_8)">
<g fill="#000000" >
<use xlink:href="#f0_n" transform="matrix(11.9,0,0,11.9,285.6,848.6)" />
</g>
</g>
<g fill="#000000" >
<use xlink:href="#f0_q" transform="matrix(11.9,0,0,11.9,207.2,860)" />
<use xlink:href="#f0_k" transform="matrix(11.9,0,0,11.9,229.1,860)" />
<use xlink:href="#f0_i" transform="matrix(11.9,0,0,11.9,238.3,860)" />
<use xlink:href="#f0_o" transform="matrix(11.9,0,0,11.9,243.1,860)" />
<use xlink:href="#f0_o" transform="matrix(11.9,0,0,11.9,252.2,860)" />
</g>
<g clip-path="url(#c45_8)">
<g fill="#000000" >
<use xlink:href="#f0_m" transform="matrix(11.9,0,0,11.9,285.6,874.3)" />
</g>
</g>
<g clip-path="url(#c46_8)">
<g fill="#000000" >
<use xlink:href="#f2_4r" transform="matrix(11.9,0,0,11.9,264,849.7)" />
<use xlink:href="#f2_57" transform="matrix(11.9,0,0,11.9,297,849.7)" />
</g>
</g>
<g clip-path="url(#c47_8)">
<g fill="#000000" >
<use xlink:href="#f2_x" transform="matrix(11.9,0,0,11.9,181.9,860)" />
<use xlink:href="#f2_h" transform="matrix(11.9,0,0,11.9,194.3,860)" />
<use xlink:href="#f2_3a" transform="matrix(11.9,0,0,11.9,217.4,860)" />
<use xlink:href="#f2_h" transform="matrix(11.9,0,0,11.9,271.7,860)" />
</g>
</g>
<g clip-path="url(#c48_8)">
<g fill="#000000" >
<use xlink:href="#f2_4s" transform="matrix(11.9,0,0,11.9,264,867.3)" />
<use xlink:href="#f2_58" transform="matrix(11.9,0,0,11.9,297,867.3)" />
</g>
</g>
<g clip-path="url(#c49_8)">
<g fill="#000000" >
<use xlink:href="#f2_4t" transform="matrix(11.9,0,0,11.9,264,876.5)" />
<use xlink:href="#f2_59" transform="matrix(11.9,0,0,11.9,297,876.5)" />
</g>
</g>
<g clip-path="url(#c50_8)">
<g fill="#000000" >
<use xlink:href="#f0_t" transform="matrix(11.9,0,0,11.9,193.6,909.8)" />
<use xlink:href="#f0_k" transform="matrix(11.9,0,0,11.9,215.6,909.8)" />
<use xlink:href="#f0_i" transform="matrix(11.9,0,0,11.9,224.8,909.8)" />
<use xlink:href="#f0_o" transform="matrix(11.9,0,0,11.9,229.5,909.8)" />
<use xlink:href="#f0_o" transform="matrix(11.9,0,0,11.9,238.7,909.8)" />
</g>
</g>
<g clip-path="url(#c51_8)">
<g fill="#000000" >
<use xlink:href="#f2_x" transform="matrix(11.9,0,0,11.9,181.5,909.8)" />
<use xlink:href="#f2_3a" transform="matrix(11.9,0,0,11.9,203.9,909.8)" />
</g>
</g>
<g clip-path="url(#c52_8)">
<g fill="#000000" >
<use xlink:href="#f0_n" transform="matrix(11.9,0,0,11.9,193.6,943.6)" />
<use xlink:href="#f0_t" transform="matrix(11.9,0,0,11.9,202.8,943.6)" />
<use xlink:href="#f0_i" transform="matrix(11.9,0,0,11.9,211.9,943.6)" />
<use xlink:href="#f0_q" transform="matrix(11.9,0,0,11.9,216.7,943.6)" />
</g>
</g>
<g clip-path="url(#c53_8)">
<g fill="#000000" >
<use xlink:href="#f1_1a" transform="matrix(11.9,0,0,11.9,228.8,943.6)" />
</g>
</g>
<g clip-path="url(#c54_8)">
<g fill="#000000" >
<use xlink:href="#f2_x" transform="matrix(11.9,0,0,11.9,181.9,943.6)" />
</g>
</g>
<g fill="#000000" >
<use xlink:href="#f0_c" transform="matrix(12,0,0,12,117,979.9)" />
<use xlink:href="#f0_1y" transform="matrix(12,0,0,12,122.9,979.9)" />
<use xlink:href="#f0_d" transform="matrix(12,0,0,12,131.3,979.9)" />
</g>
<g clip-path="url(#c55_8)">
<g fill="#000000" >
<use xlink:href="#f1_29" transform="matrix(11.8,0,0,11.8,182.2,982.1)" />
<use xlink:href="#f1_12" transform="matrix(11.8,0,0,11.8,209.4,982.1)" />
</g>
</g>
<g fill="#000000" >
<use xlink:href="#f3_2g" transform="matrix(11.8,0,-3.2,11.8,156.6,982.1)" />
</g>
<g clip-path="url(#c56_8)">
<g fill="#000000" >
<use xlink:href="#f2_x" transform="matrix(11.8,0,0,11.8,169.8,982.1)" />
<use xlink:href="#f2_3a" transform="matrix(11.8,0,0,11.8,196.9,982.1)" />
</g>
</g>
<g clip-path="url(#c57_8)">
<g fill="#000000" >
<use xlink:href="#f4_20" transform="matrix(11.8,0,0,11.8,159.1,965.9)" />
<use xlink:href="#f4_23" transform="matrix(11.8,0,0,11.8,182.6,965.9)" />
<use xlink:href="#f4_20" transform="matrix(11.8,0,0,11.8,187.4,965.9)" />
<use xlink:href="#f4_23" transform="matrix(11.8,0,0,11.8,209,965.9)" />
<use xlink:href="#f4_20" transform="matrix(11.8,0,0,11.8,213,965.9)" />
</g>
</g>
<g clip-path="url(#c58_8)">
<g fill="#000000" >
<use xlink:href="#f0_2f" transform="matrix(11.9,0,0,11.9,212.3,1015.8)" />
<use xlink:href="#f0_25" transform="matrix(11.9,0,0,11.9,219.6,1015.8)" />
<use xlink:href="#f0_2a" transform="matrix(11.9,0,0,11.9,224.7,1015.8)" />
</g>
</g>
<g fill="#000000" >
<use xlink:href="#f1_29" transform="matrix(11.9,0,0,11.9,182.6,1015.8)" />
<use xlink:href="#f1_12" transform="matrix(11.9,0,0,11.9,198.7,1015.8)" />
</g>
<g clip-path="url(#c59_8)">
<g fill="#000000" >
<use xlink:href="#f3_2g" transform="matrix(11.9,0,-3.2,11.9,156.6,1015.8)" />
<use xlink:href="#f3_2d" transform="matrix(11.9,0,-3.2,11.9,235.4,1015.8)" />
</g>
</g>
<g clip-path="url(#c60_8)">
<g fill="#000000" >
<use xlink:href="#f2_x" transform="matrix(11.9,0,0,11.9,169.8,1015.8)" />
</g>
</g>
<g fill="#000000" >
<use xlink:href="#f5_x" transform="matrix(11.9,0,0,11.9,167.9,1049.2)" />
<use xlink:href="#f0_q" transform="matrix(11.9,0,0,11.9,177.9,1049.2)" />
<use xlink:href="#f5_3a" transform="matrix(11.9,0,0,11.9,188.2,1049.2)" />
<use xlink:href="#f0_k" transform="matrix(11.9,0,0,11.9,198.1,1049.2)" />
<use xlink:href="#f0_i" transform="matrix(11.9,0,0,11.9,207.2,1049.2)" />
<use xlink:href="#f0_o" transform="matrix(11.9,0,0,11.9,211.7,1049.2)" />
<use xlink:href="#f0_o" transform="matrix(11.9,0,0,11.9,220.8,1049.2)" />
<use xlink:href="#f5_3a" transform="matrix(11.9,0,0,11.9,231.1,1049.2)" />
<use xlink:href="#f0_2f" transform="matrix(11.9,0,0,11.9,241,1049.2)" />
<use xlink:href="#f0_25" transform="matrix(11.9,0,0,11.9,248.1,1049.2)" />
<use xlink:href="#f0_2a" transform="matrix(11.9,0,0,11.9,253.1,1049.2)" />
<use xlink:href="#f0_l" transform="matrix(11.9,0,0,11.9,263.7,1049.2)" />
<use xlink:href="#f0_s" transform="matrix(11.9,0,0,11.9,272.8,1049.2)" />
<use xlink:href="#f0_k" transform="matrix(11.9,0,0,11.9,281.9,1049.2)" />
<use xlink:href="#f5_36" transform="matrix(11.9,0,0,11.9,291,1049.2)" />
<use xlink:href="#f3_2g" transform="matrix(11.9,0,-3.2,11.9,152.5,1079.9)" />
<use xlink:href="#f6_2" transform="matrix(11.9,0,-3.2,11.9,166.8,1079.9)" />
<use xlink:href="#f0_k" transform="matrix(11.9,0,0,11.9,183.1,1079.9)" />
<use xlink:href="#f7_s" transform="matrix(8,0,0,8,792.2,1264.3)" />
</g>
<defs>
<path d="M197,0V27c0,0,71,2,92,13c0,0,21,10,29,29c0,0,9,18,9,109V725c0,0,0,110,-8,141c0,0,-5,24,-19,35c0,0,-14,11,-33,11c0,0,-28,0,-77,-23l-11,23l246,121h25V178c0,0,0,-85,7,-106c0,0,7,-21,29,-32c0,0,23,-11,91,-13V0Z" 
id="f0_l"
transform="scale(0.001,-0.001)" />

<path d="M238,-17c0,0,-103,0,-139,25C99,8,62,33,62,62c0,0,0,22,17,38c0,0,18,16,42,16c0,0,19,0,38,-6c0,0,13,-3,58,-27c0,0,45,-23,62,-28c0,0,27,-8,59,-8c0,0,76,0,132,59c0,0,56,59,56,140c0,0,0,59,-26,115c0,0,-19,41,-42,63c0,0,-32,30,-88,54c0,0,-56,25,-114,25H232v22c0,0,59,8,118,42c0,0,59,35,86,85c0,0,27,49,27,108c0,0,0,76,-48,124c0,0,-48,47,-120,47c0,0,-116,0,-193,-124L77,819c0,0,44,102,110,158c0,0,66,56,164,56c0,0,122,0,187,-80c0,0,49,-58,49,-126c0,0,0,-110,-139,-228c0,0,93,-36,141,-104c0,0,48,-68,48,-160c0,0,0,-131,-84,-227C553,108,444,-17,238,-17Z" 
id="f0_n"
transform="scale(0.001,-0.001)" />

<path d="M191,-20c0,0,-34,0,-58,24c0,0,-24,24,-24,58c0,0,0,35,24,59c0,0,24,24,58,24c0,0,35,0,59,-24c0,0,24,-25,24,-59c0,0,0,-34,-24,-58c0,0,-25,-24,-59,-24Z" 
id="f0_i"
transform="scale(0.001,-0.001)" />

<path d="M678,393L506,802L330,393ZM11,0V27c0,0,63,12,82,30c0,0,38,35,84,145l356,832h27L912,193c0,0,43,-101,77,-132c0,0,35,-30,97,-34V0H687V27c0,0,60,3,82,21c0,0,21,17,21,41c0,0,0,33,-30,104L700,338H307L239,179c0,0,-26,-59,-26,-88c0,0,0,-23,22,-41c0,0,22,-17,95,-23V0Z" 
id="f0_11"
transform="scale(0.001,-0.001)" />

<path d="M397,34c0,0,67,0,126,75c0,0,58,74,58,216c0,0,0,131,-58,201c0,0,-59,70,-133,70c0,0,-39,0,-79,-20c0,0,-29,-14,-75,-59V109c0,0,37,-37,78,-56c0,0,40,-19,83,-19ZM358,-20c0,0,-59,0,-121,21c0,0,-61,22,-126,65V773c0,0,0,117,-5,144c0,0,-6,27,-18,37c0,0,-12,9,-29,9c0,0,-21,0,-53,-12l-9,27l205,83h34V564c0,0,98,139,213,139c0,0,105,0,183,-90c0,0,78,-90,78,-245c0,0,0,-182,-121,-293c0,0,-103,-95,-231,-95Z" 
id="f0_1y"
transform="scale(0.001,-0.001)" />

<path d="M286,72c0,0,57,0,149,75V407c0,0,-113,-45,-145,-64c0,0,-59,-32,-85,-68c0,0,-25,-36,-25,-78c0,0,0,-54,32,-89c0,0,32,-36,74,-36ZM217,-13c0,0,-71,0,-116,48c0,0,-46,48,-46,127c0,0,0,50,22,87c0,0,31,50,106,95c0,0,76,45,252,109v26c0,0,0,102,-32,140c0,0,-32,38,-94,38c0,0,-47,0,-74,-25c0,0,-28,-25,-28,-58l1,-43c0,0,0,-34,-17,-53c0,0,-18,-18,-47,-18c0,0,-28,0,-45,19c0,0,-18,19,-18,53c0,0,0,64,66,117c0,0,65,54,184,54c0,0,91,0,149,-31c0,0,44,-23,65,-72c0,0,13,-32,13,-131V238c0,0,0,-98,4,-120c0,0,4,-22,12,-29c0,0,9,-8,20,-8c0,0,12,0,21,5c0,0,16,10,61,55V99C676,99,592,-12,516,-12c0,0,-37,0,-58,24c0,0,-22,26,-23,86C435,98,330,17,303,5c0,0,-40,-18,-86,-18Z" 
id="f0_1x"
transform="scale(0.001,-0.001)" />

<path d="M17,0V26c0,0,52,0,77,17c0,0,19,12,26,38c0,0,4,13,4,73V419c0,0,0,119,-5,142c0,0,-4,23,-17,33c0,0,-13,11,-33,11c0,0,-23,0,-52,-11l-7,26l207,83h31V549c0,0,86,154,176,154c0,0,41,0,68,-25c0,0,27,-25,27,-58c0,0,0,-29,-20,-49c0,0,-19,-20,-46,-20c0,0,-26,0,-58,25c0,0,-33,26,-48,26c0,0,-14,0,-29,-15c0,0,-34,-30,-70,-101V159c0,0,0,-56,15,-85c0,0,9,-20,34,-34c0,0,24,-14,71,-14V0Z" 
id="f0_2e"
transform="scale(0.001,-0.001)" />

<path d="M23,0V26c0,0,47,0,66,10c0,0,19,11,28,33c0,0,10,22,10,85V416c0,0,0,112,-7,145c0,0,-5,25,-16,34c0,0,-11,10,-31,10c0,0,-21,0,-50,-11L12,620l207,83h32V557c0,0,75,75,88,86c0,0,34,29,72,44c0,0,39,16,77,16c0,0,64,0,110,-37c0,0,47,-38,62,-109c0,0,77,90,130,118c0,0,53,28,109,28c0,0,54,0,96,-28c0,0,42,-28,67,-91c0,0,16,-43,16,-136V154c0,0,0,-64,10,-88c0,0,8,-16,28,-28c0,0,20,-12,65,-12V0H844V26h14c0,0,44,0,69,18c0,0,17,12,24,38c0,0,3,13,3,72V448c0,0,0,83,-20,117c0,0,-29,48,-93,48c0,0,-39,0,-79,-20c0,0,-40,-19,-97,-73l-1,-8l2,-32V154c0,0,0,-70,8,-87c0,0,7,-17,29,-29c0,0,21,-12,73,-12V0H431V26c0,0,57,0,78,14c0,0,21,13,29,40c0,0,4,13,4,74V448c0,0,0,83,-25,120c0,0,-33,48,-91,48c0,0,-40,0,-80,-22c0,0,-61,-33,-95,-74V154c0,0,0,-67,10,-87c0,0,9,-20,27,-30c0,0,18,-11,74,-11V0Z" 
id="f0_29"
transform="scale(0.001,-0.001)" />

<path d="M411,-239c0,0,134,0,198,48c0,0,64,47,64,100c0,0,0,39,-38,55c0,0,-39,16,-154,19c0,0,-167,5,-258,17c0,0,-35,-37,-53,-70c0,0,-17,-32,-17,-60c0,0,0,-36,43,-62c0,0,74,-47,215,-47ZM380,257c0,0,56,0,93,43c0,0,36,42,36,133c0,0,0,118,-51,185c0,0,-38,49,-98,49c0,0,-55,0,-92,-44c0,0,-37,-44,-37,-135c0,0,0,-117,50,-182c0,0,39,-49,99,-49ZM345,-328c0,0,-144,0,-243,64c0,0,-56,38,-56,78c0,0,0,18,8,36c0,0,13,27,52,76c0,0,5,7,76,80c0,0,-39,23,-55,41c0,0,-16,19,-16,42c0,0,0,26,22,61c0,0,21,35,98,100c0,0,-63,30,-97,85c0,0,-33,55,-33,121c0,0,0,101,76,174c0,0,77,73,196,73c0,0,98,0,170,-48H688c0,0,32,0,37,-2c0,0,6,-2,8,-6c0,0,4,-7,4,-24c0,0,0,-20,-4,-27c0,0,-2,-4,-7,-6c0,0,-6,-2,-38,-2H599c0,0,41,-54,41,-137c0,0,0,-96,-73,-163c0,0,-73,-68,-196,-68c0,0,-51,0,-104,15c0,0,-33,-28,-44,-49c0,0,-12,-22,-12,-37c0,0,0,-12,13,-24c0,0,12,-12,48,-17c0,0,21,-4,104,-6c0,0,154,-4,199,-11c0,0,70,-10,111,-51c0,0,42,-41,42,-102c0,0,0,-84,-79,-158c0,0,-117,-108,-304,-108Z" 
id="f0_23"
transform="scale(0.001,-0.001)" />

<path d="M21,0V26H35c0,0,53,0,71,27c0,0,18,27,18,101V408c0,0,0,123,-5,150c0,0,-6,27,-17,37c0,0,-12,10,-31,10c0,0,-21,0,-50,-11L10,620l206,83h32V558c0,0,120,145,229,145c0,0,56,0,96,-28c0,0,40,-28,64,-92c0,0,16,-45,16,-137V154c0,0,0,-65,11,-88c0,0,8,-19,26,-29c0,0,18,-11,68,-11V0H419V26h14c0,0,47,0,66,15c0,0,20,15,27,43c0,0,3,11,3,70V434c0,0,0,93,-24,135c0,0,-24,42,-81,42c0,0,-88,0,-176,-97V154c0,0,0,-69,9,-86c0,0,10,-21,28,-31c0,0,19,-11,75,-11V0Z" 
id="f0_2a"
transform="scale(0.001,-0.001)" />

<path d="M479,469c0,0,-4,66,-16,93c0,0,-18,42,-55,65c0,0,-37,24,-78,24c0,0,-62,0,-111,-48c0,0,-48,-48,-57,-134ZM355,-20c0,0,-123,0,-211,95c0,0,-87,96,-87,258c0,0,0,175,90,273c0,0,89,98,225,98c0,0,115,0,189,-76c0,0,74,-75,74,-202H162c0,0,0,-152,74,-239c0,0,75,-86,175,-86c0,0,67,0,117,36c0,0,50,37,83,127l24,-15c0,0,-16,-102,-91,-186c0,0,-76,-83,-189,-83Z" 
id="f0_21"
transform="scale(0.001,-0.001)" />

<path d="M255,-10c0,0,-35,0,-68,18c0,0,-32,19,-48,55c0,0,-16,35,-16,109V632H15v24c0,0,41,16,84,56c0,0,43,39,77,92c0,0,17,29,48,104h23V683H407V632H247V188c0,0,0,-66,19,-90c0,0,19,-23,49,-23c0,0,24,0,47,16c0,0,23,15,36,45h29c0,0,-26,-73,-74,-110c0,0,-47,-36,-98,-36Z" 
id="f0_2g"
transform="scale(0.001,-0.001)" />

<path d="M406,32c0,0,72,0,119,60c0,0,47,59,47,205c0,0,0,181,-78,286c0,0,-53,71,-135,71c0,0,-40,0,-79,-23c0,0,-40,-24,-65,-83c0,0,-24,-58,-24,-151c0,0,0,-149,59,-257c0,0,59,-108,156,-108ZM374,-20c0,0,-154,0,-245,122c0,0,-77,104,-77,233c0,0,0,94,46,187c0,0,47,92,123,137c0,0,76,44,161,44c0,0,155,0,249,-118c0,0,80,-100,80,-231c0,0,0,-91,-44,-185C667,169,623,75,546,27c0,0,-77,-47,-172,-47Z" 
id="f0_2b"
transform="scale(0.001,-0.001)" />

<path d="M63,0V26H93c0,0,30,0,54,15c0,0,25,15,34,41c0,0,10,25,10,99V630H58v53H191v45c0,0,0,102,33,173c0,0,32,71,100,114c0,0,68,44,152,44c0,0,79,0,145,-51c0,0,43,-33,43,-75c0,0,0,-22,-19,-42c0,0,-20,-20,-42,-20c0,0,-17,0,-36,12c0,0,-19,13,-47,53c0,0,-28,41,-51,55c0,0,-23,14,-51,14c0,0,-35,0,-58,-18c0,0,-24,-18,-35,-57c0,0,-10,-38,-10,-197V683H491V630H315V181c0,0,0,-96,21,-122c0,0,27,-33,73,-33h62V0Z" 
id="f0_22"
transform="scale(0.001,-0.001)" />

<path d="M55,0V26c0,0,50,0,67,10c0,0,17,10,27,32c0,0,10,23,10,86V418c0,0,0,111,-6,144c0,0,-6,24,-17,33c0,0,-11,10,-30,10c0,0,-21,0,-51,-11L45,620l206,83h33V154c0,0,0,-64,9,-85c0,0,9,-22,27,-32c0,0,19,-11,67,-11V0ZM222,909c0,0,-32,0,-54,23c0,0,-22,22,-22,53c0,0,0,32,22,54c0,0,22,22,54,22c0,0,31,0,53,-22c0,0,22,-22,22,-54c0,0,0,-31,-22,-53c0,0,-22,-23,-53,-23Z" 
id="f0_25"
transform="scale(0.001,-0.001)" />

<path d="M342,-20c0,0,-116,0,-203,97c0,0,-86,98,-86,264c0,0,0,161,96,261c0,0,95,101,230,101c0,0,100,0,165,-53c0,0,65,-54,65,-111c0,0,0,-29,-18,-46c0,0,-18,-18,-51,-18c0,0,-44,0,-66,29c0,0,-13,15,-17,59c0,0,-4,45,-30,68c0,0,-26,22,-73,22c0,0,-74,0,-120,-55c0,0,-60,-73,-60,-193c0,0,0,-122,60,-216c0,0,60,-93,162,-93c0,0,73,0,131,49c0,0,41,35,80,126l22,-10C629,261,601,125,521,52c0,0,-81,-72,-179,-72Z" 
id="f0_1z"
transform="scale(0.001,-0.001)" />

<path d="M405,24c0,0,65,0,116,62c0,0,51,61,51,174c0,0,0,128,-50,221c0,0,-51,93,-144,93c0,0,-29,0,-61,-12c0,0,-33,-12,-96,-51c0,0,-14,-101,-14,-163c0,0,0,-72,27,-155c0,0,26,-84,79,-134c0,0,38,-35,92,-35ZM384,-17c0,0,-104,0,-177,68C207,51,66,185,66,397c0,0,0,136,54,258c0,0,54,122,156,217c0,0,101,95,193,128c0,0,93,33,172,33h44v-28c0,0,-99,-10,-161,-39c0,0,-62,-29,-123,-90c0,0,-61,-60,-101,-135c0,0,-39,-74,-66,-176c0,0,107,73,215,73c0,0,104,0,180,-83c0,0,76,-84,76,-215c0,0,0,-126,-77,-231c0,0,-92,-126,-244,-126Z" 
id="f0_q"
transform="scale(0.001,-0.001)" />

<path d="M182,-21c0,0,-70,0,-110,33C72,12,31,47,31,92c0,0,0,37,19,56c0,0,25,23,58,23c0,0,24,0,43,-16c0,0,19,-15,48,-84c0,0,17,-41,44,-41c0,0,20,0,38,25c0,0,17,25,17,87V833c0,0,0,77,-9,102c0,0,-8,18,-31,32c0,0,-32,18,-68,18H154v27H586V985H549c0,0,-62,0,-90,-37c0,0,-18,-24,-18,-115V339c0,0,0,-115,-25,-185c0,0,-25,-71,-86,-124c0,0,-61,-51,-148,-51Z" 
id="f0_1a"
transform="scale(0.001,-0.001)" />

<path d="M2,-20L369,1061h59L62,-20Z" 
id="f0_j"
transform="scale(0.001,-0.001)" />

<path d="M253,0V27h36c0,0,64,0,91,39c0,0,16,24,16,109V948H274c0,0,-71,0,-100,-10c0,0,-39,-14,-67,-54c0,0,-27,-41,-33,-109H46l12,237H883L894,775H865c0,0,-8,62,-22,89c0,0,-23,43,-61,64c0,0,-39,20,-101,20H539V175c0,0,0,-93,20,-116c0,0,28,-32,87,-32h36V0Z" 
id="f0_1k"
transform="scale(0.001,-0.001)" />

<path d="M312,-20c0,0,-62,0,-143,22c0,0,-25,8,-40,8c0,0,-18,0,-27,-19H77V234h25c0,0,21,-105,80,-158c0,0,59,-53,132,-53c0,0,51,0,84,31c0,0,32,30,32,72c0,0,0,52,-36,87c0,0,-36,35,-144,88c0,0,-109,54,-142,97c0,0,-34,43,-34,107c0,0,0,85,58,141c0,0,58,57,150,57c0,0,40,0,97,-17c0,0,38,-11,51,-11c0,0,12,0,19,5c0,0,7,5,15,23h25V470H464c0,0,-28,110,-72,149c0,0,-45,40,-113,40c0,0,-53,0,-85,-28c0,0,-32,-27,-32,-61c0,0,0,-41,24,-71c0,0,23,-31,94,-65L389,381c0,0,152,-74,152,-194c0,0,0,-94,-71,-151c0,0,-70,-56,-158,-56Z" 
id="f0_2f"
transform="scale(0.001,-0.001)" />

<path d="M58,0V26c0,0,47,0,64,10c0,0,18,10,28,32c0,0,9,23,9,86V775c0,0,0,116,-5,142c0,0,-5,27,-17,37c0,0,-11,9,-29,9c0,0,-20,0,-49,-12L46,978l204,83h34V154c0,0,0,-64,9,-85c0,0,9,-21,29,-32c0,0,19,-11,72,-11V0Z" 
id="f0_28"
transform="scale(0.001,-0.001)" />

<path d="M399,62c0,0,68,0,131,68V481c0,0,-5,51,-27,93c0,0,-22,42,-59,63c0,0,-37,21,-72,21c0,0,-65,0,-117,-59c0,0,-67,-77,-67,-226c0,0,0,-151,65,-231c0,0,66,-80,146,-80ZM330,-20c0,0,-112,0,-196,93c0,0,-83,94,-83,240c0,0,0,147,92,269c0,0,93,122,238,122c0,0,90,0,149,-58V773c0,0,0,117,-6,144c0,0,-5,27,-17,37c0,0,-12,9,-30,9c0,0,-20,0,-52,-12l-9,27l204,83h33V270c0,0,0,-120,6,-146c0,0,5,-27,18,-37c0,0,12,-11,28,-11c0,0,21,0,54,13l9,-26L564,-20H530V78C530,78,480,25,432,2c0,0,-47,-22,-102,-22Z" 
id="f0_20"
transform="scale(0.001,-0.001)" />

<path d="M379,29c0,0,41,0,84,37c0,0,43,36,65,121c0,0,34,128,34,362c0,0,0,173,-35,288c0,0,-27,86,-69,122c0,0,-31,25,-74,25c0,0,-51,0,-90,-46c0,0,-54,-62,-73,-195c0,0,-20,-132,-20,-261c0,0,0,-209,52,-341c0,0,42,-112,126,-112Zm-2,-46c0,0,-145,0,-241,170c0,0,-81,144,-81,347c0,0,0,173,52,298c0,0,52,125,139,186c0,0,67,49,139,49c0,0,116,0,208,-119c0,0,116,-147,116,-398c0,0,0,-176,-51,-299C658,217,608,94,529,38c0,0,-79,-55,-152,-55Z" 
id="f0_k"
transform="scale(0.001,-0.001)" />

<path d="M302,639c0,0,69,0,118,49c0,0,48,49,48,118c0,0,0,69,-48,117c0,0,-49,49,-118,49c0,0,-69,0,-118,-49c0,0,-48,-48,-48,-117c0,0,0,-69,48,-118c0,0,49,-49,118,-49Zm0,-63c0,0,-94,0,-162,67c0,0,-67,67,-67,162c0,0,0,95,67,162c0,0,67,67,162,67c0,0,96,0,163,-67c0,0,67,-67,67,-162c0,0,0,-95,-67,-162c0,0,-67,-67,-163,-67Z" 
id="f0_3o"
transform="scale(0.001,-0.001)" />

<path d="M336,-20L117,554c0,0,-21,55,-42,74c0,0,-21,19,-66,29v26H296V657c0,0,-40,-3,-52,-14c0,0,-13,-12,-13,-33c0,0,0,-23,13,-56L390,162L537,481L498,581c0,0,-18,46,-47,63c0,0,-17,11,-61,13v26H716V657c0,0,-54,-2,-77,-20c0,0,-15,-12,-15,-39c0,0,0,-15,6,-30L785,177L929,554c0,0,15,40,15,65c0,0,0,14,-15,25c0,0,-14,12,-57,13v26h216V657c0,0,-65,-10,-95,-89L764,-20H733L563,415L363,-20Z" 
id="f0_2j"
transform="scale(0.001,-0.001)" />

<path d="M20,0V26c0,0,45,0,71,15c0,0,15,7,24,28c0,0,9,21,9,85V773c0,0,0,117,-5,144c0,0,-6,27,-17,37c0,0,-12,9,-31,9c0,0,-16,0,-51,-12L10,978l204,83h34V561c0,0,83,91,131,116c0,0,49,26,97,26c0,0,58,0,100,-32c0,0,42,-32,62,-101c0,0,14,-47,14,-174V154c0,0,0,-65,11,-89c0,0,7,-18,25,-28c0,0,18,-11,66,-11V0H418V26h15c0,0,48,0,67,15c0,0,18,15,26,43c0,0,2,12,2,70V396c0,0,0,112,-12,147c0,0,-11,35,-36,53c0,0,-26,17,-61,17c0,0,-37,0,-76,-19c0,0,-40,-20,-95,-79V154c0,0,0,-70,8,-87c0,0,8,-17,29,-29c0,0,22,-12,74,-12V0Z" 
id="f0_24"
transform="scale(0.001,-0.001)" />

<path d="M292,-20c0,0,-57,0,-100,33c0,0,-42,33,-58,85c0,0,-17,52,-17,148V551c0,0,0,49,-10,68c0,0,-11,18,-31,29c0,0,-19,9,-68,9c-2,0,-4,0,-6,0v26H242V226c0,0,0,-95,33,-125c0,0,33,-30,80,-30c0,0,32,0,73,21c0,0,40,20,96,76V555c0,0,0,59,-21,80c0,0,-22,21,-89,22v26H647V269c0,0,0,-119,6,-145c0,0,6,-27,18,-37c0,0,12,-11,29,-11c0,0,23,0,52,13L763,63L558,-20H524V124C524,124,436,29,390,4c0,0,-47,-24,-98,-24Z" 
id="f0_2h"
transform="scale(0.001,-0.001)" />

<path d="M25,0V26c0,0,27,4,47,19c0,0,29,22,96,111L311,346L182,535c0,0,-55,81,-86,102c0,0,-30,20,-75,20v26H341V657c0,0,-30,0,-42,-10c0,0,-13,-11,-13,-28c0,0,0,-19,27,-56c0,0,8,-12,25,-37l48,-78l56,77c0,0,55,74,55,94c0,0,0,16,0,27c0,0,0,11,0,11v26H674V657c0,0,-37,-2,-64,-20c0,0,-37,-26,-100,-111L416,402L587,156c0,0,63,-91,89,-109c0,0,27,-18,70,-21V0H423V26c0,0,34,0,53,15c0,0,14,11,14,28c0,0,0,17,-48,87L341,302L232,157c0,0,-50,-69,-50,-82c0,0,0,-18,17,-32c0,0,17,-15,50,-17V0Z" 
id="f0_2k"
transform="scale(0.001,-0.001)" />

<path d="M452,373V875L97,373ZM452,0V267H23v95l470,671h82V373H711V267H575V0Z" 
id="f0_o"
transform="scale(0.001,-0.001)" />

<path d="M548,-21c0,0,-251,0,-389,185C159,164,56,303,56,490c0,0,0,152,68,278c0,0,67,127,186,197c0,0,119,69,260,69c0,0,109,0,216,-53c0,0,31,-17,44,-17c0,0,20,0,35,14c0,0,20,21,28,56h26L943,690H919c0,0,-46,155,-131,224c0,0,-86,68,-206,68c0,0,-100,0,-181,-51c0,0,-81,-52,-128,-163c0,0,-46,-112,-46,-279c0,0,0,-137,44,-238c0,0,44,-101,132,-154c0,0,88,-54,201,-54c0,0,99,0,174,42c0,0,75,42,165,167l23,-14C966,238,890,103,789,40c0,0,-102,-61,-241,-61Z" 
id="f0_13"
transform="scale(0.001,-0.001)" />

<path d="M474,-326c0,0,-112,57,-188,133c0,0,-107,108,-165,254c0,0,-58,147,-58,305c0,0,0,231,114,421c0,0,114,191,297,273v-31c0,0,-92,-51,-151,-139c0,0,-59,-88,-88,-223c0,0,-30,-135,-30,-281c0,0,0,-160,25,-290c0,0,20,-102,47,-164c0,0,28,-62,75,-120c0,0,47,-57,122,-109v-29Z" 
id="f0_c"
transform="scale(0.001,-0.001)" />

<path d="M35,-326v29c0,0,92,51,151,139c0,0,60,87,89,221c0,0,28,136,28,282c0,0,0,159,-24,290c0,0,-19,103,-47,165c0,0,-28,62,-75,119c0,0,-46,57,-122,110v31c0,0,113,-56,188,-132c0,0,107,-109,165,-255c0,0,58,-147,58,-306c0,0,0,-231,-114,-420c0,0,-113,-191,-297,-273Z" 
id="f0_d"
transform="scale(0.001,-0.001)" />

<path d="M13,0V26c0,0,52,0,78,13c0,0,16,8,24,25c0,0,11,25,11,86V773c0,0,0,118,-5,145c0,0,-5,26,-17,36c0,0,-12,10,-32,10c0,0,-15,0,-47,-13L13,978l203,83h34V381L424,540c0,0,55,50,64,64c0,0,6,9,6,18c0,0,0,15,-12,26c0,0,-13,11,-41,12v23H738V660c0,0,-61,-2,-102,-19c0,0,-40,-17,-89,-62L372,418L547,196c0,0,73,-92,98,-117c0,0,36,-35,63,-45c0,0,18,-8,65,-8V0H441V26c0,0,28,1,38,9c0,0,10,8,10,22c0,0,0,17,-29,56L250,381V154c0,0,0,-67,10,-88c0,0,9,-21,26,-30c0,0,17,-9,75,-10V0Z" 
id="f0_27"
transform="scale(0.001,-0.001)" />

<path d="M82,-253v33c0,0,77,25,119,78c0,0,42,54,42,114c0,0,0,14,-7,23c0,0,-5,6,-11,6c0,0,-8,0,-35,-14c0,0,-14,-7,-28,-7c0,0,-37,0,-58,21C104,1,82,23,82,61c0,0,0,36,28,62c0,0,28,27,68,27c0,0,49,0,88,-43c0,0,38,-43,38,-113c0,0,0,-77,-53,-143c0,0,-53,-66,-169,-104Z" 
id="f0_g"
transform="scale(0.001,-0.001)" />

<path d="M398,24c0,0,74,0,120,58c0,0,61,76,61,214c0,0,0,156,-69,240c0,0,-47,59,-113,59c0,0,-36,0,-71,-18c0,0,-27,-14,-88,-81V242c0,0,0,-83,6,-109c0,0,11,-43,51,-76c0,0,41,-33,103,-33ZM-4,-326v27H15c5,0,42,0,69,16c0,0,14,8,22,26c0,0,7,19,7,94V481c0,0,0,67,-6,85c0,0,-5,18,-18,27c0,0,-13,9,-36,9c0,0,-18,0,-45,-10L0,615l209,85h29V540c0,0,53,91,106,127c0,0,53,36,112,36c0,0,103,0,172,-80c0,0,84,-99,84,-257c0,0,0,-176,-102,-292c0,0,-83,-94,-210,-94c0,0,-55,0,-95,16c0,0,-30,10,-67,44V-167c0,0,0,-71,8,-90c0,0,9,-20,30,-31c0,0,21,-11,77,-11v-27Z" 
id="f0_2c"
transform="scale(0.001,-0.001)" />

<path d="M384,85c0,0,44,0,78,19c0,0,35,19,68,62V487c0,0,0,55,-15,87c0,0,-14,33,-51,55c0,0,-38,22,-85,22c0,0,-84,0,-143,-71c0,0,-60,-70,-60,-214c0,0,0,-138,61,-209c0,0,61,-72,147,-72Zm35,-411v27h15c0,0,41,0,63,12c0,0,15,8,24,30c0,0,9,21,9,83V119C530,119,462,39,411,9c0,0,-50,-29,-105,-29c0,0,-99,0,-177,90c0,0,-78,90,-78,241c0,0,0,174,103,283c0,0,103,109,248,109c0,0,43,0,78,-12c0,0,36,-12,65,-35c0,0,43,20,83,47h25V-174c0,0,0,-66,9,-85c0,0,9,-19,28,-30c0,0,19,-10,74,-10v-27Z" 
id="f0_2d"
transform="scale(0.001,-0.001)" />

<path d="M2,0l8,26H31c0,0,73,0,106,35c0,0,24,24,50,107L403,923c0,0,-25,33,-47,44c0,0,-22,12,-83,19l8,26H536L637,193l595,819h239V986c0,0,-80,-6,-94,-12c0,0,-25,-11,-46,-43c0,0,-20,-32,-44,-124L1102,165c0,0,-16,-50,-16,-79c0,0,0,-27,20,-40c0,0,28,-20,89,-20h18L1206,0H787l7,26h20c0,0,57,0,87,17c0,0,23,12,41,45c0,0,18,34,51,148l166,587L564,0H533L431,823L254,197c0,0,-23,-80,-23,-108c0,0,0,-28,20,-43c0,0,20,-14,97,-20L340,0Z" 
id="f1_1d"
transform="scale(0.001,-0.001)" />

<path d="M125,-21c0,0,-86,0,-130,38c0,0,-46,40,-46,97c0,0,0,44,28,74c0,0,27,30,66,30c0,0,34,0,55,-20c0,0,21,-20,21,-49c0,0,0,-24,-19,-46C100,103,75,75,75,64c0,0,0,-15,14,-28c0,0,15,-13,39,-13c0,0,34,0,71,17c0,0,37,16,69,50c0,0,33,33,57,80c0,0,24,47,49,128l37,129L519,811c0,0,25,85,25,106c0,0,0,28,-23,46c0,0,-22,18,-95,23l9,26H825l-8,-26c0,0,-77,-1,-109,-32c0,0,-31,-30,-65,-163L518,344c0,0,-36,-119,-73,-182C445,162,396,78,312,28c0,0,-83,-49,-187,-49Z" 
id="f1_1a"
transform="scale(0.001,-0.001)" />

<path d="M108,0l8,26h19c0,0,58,0,90,19c0,0,21,13,39,46c0,0,17,34,49,142L517,951H461c0,0,-88,0,-143,-22c0,0,-54,-22,-87,-65c0,0,-33,-42,-54,-121H149l71,269H988L905,743H877c0,0,14,59,14,105c0,0,0,55,-33,82c0,0,-24,21,-127,21H646L446,238c0,0,-38,-123,-38,-151c0,0,0,-27,24,-44c0,0,24,-17,84,-17h35L542,0Z" 
id="f1_1k"
transform="scale(0.001,-0.001)" />

<path d="M0,214v74H784V214ZM0,494v72H784V494Z" 
id="f2_x"
transform="scale(0.001,-0.001)" />

<path d="M338,28c0,0,48,0,91,45c0,0,43,45,65,144c0,0,22,99,26,276H143c0,0,3,-133,20,-239c0,0,13,-80,44,-140c0,0,19,-36,54,-61c0,0,36,-25,77,-25ZM522,543c0,0,-1,194,-37,312c0,0,-29,90,-76,129c0,0,-34,28,-79,28c0,0,-51,0,-93,-39c0,0,-43,-40,-65,-132c0,0,-22,-93,-29,-298ZM329,-21c0,0,-68,0,-124,31c0,0,-56,33,-99,95c0,0,-43,62,-66,131C40,236,0,356,0,489c0,0,0,294,119,453c0,0,91,119,217,119c0,0,122,0,209,-115c0,0,121,-160,121,-436c0,0,0,-263,-119,-415C547,95,455,-21,329,-21Z" 
id="f3_2d"
transform="scale(0.001,-0.001)" />

<path d="M230,639c0,0,69,0,118,48c0,0,48,49,48,118c0,0,0,69,-48,118c0,0,-49,49,-118,49c0,0,-69,0,-118,-49c0,0,-48,-49,-48,-118c0,0,0,-69,48,-118c0,0,49,-48,118,-48Zm1,-64c0,0,-96,0,-163,67C68,642,1,709,1,804c0,0,0,95,67,162c0,0,67,68,163,68c0,0,94,0,161,-68c0,0,68,-67,68,-162c0,0,0,-95,-68,-162c0,0,-67,-67,-161,-67Z" 
id="f2_36"
transform="scale(0.001,-0.001)" />

<path d="M357,55c0,0,117,0,206,70c0,0,90,70,90,191c0,0,0,92,-56,144c0,0,-57,51,-182,51c0,0,-24,0,-59,-3L231,65c0,0,81,-10,126,-10Zm86,508c0,0,158,0,234,68c0,0,77,67,77,169c0,0,0,76,-48,119c0,0,-48,43,-153,43c0,0,-28,0,-71,-9L372,564c0,0,49,-1,71,-1ZM-34,0l10,26c0,0,57,2,78,12c0,0,30,12,42,33c0,0,18,29,48,131L318,816c0,0,23,78,23,109c0,0,0,28,-20,44c0,0,-21,16,-78,16c0,0,-13,0,-24,1l10,26H594c0,0,92,0,164,-28c0,0,72,-29,108,-79c0,0,36,-51,36,-108c0,0,0,-87,-66,-157c0,0,-66,-71,-216,-104c0,0,99,-35,146,-91c0,0,46,-57,46,-125c0,0,0,-76,-39,-144c0,0,-39,-69,-99,-107C674,69,613,31,527,13C527,13,466,0,336,0Z" 
id="f1_12"
transform="scale(0.001,-0.001)" />

<path d="M839,-17c0,0,-25,0,-42,17c0,0,-17,18,-17,44c0,0,0,36,35,144l78,239c0,0,26,83,28,92c0,0,3,14,3,27c0,0,0,19,-9,29c0,0,-10,11,-22,11c0,0,-34,0,-71,-32c0,0,-111,-95,-208,-266C614,288,551,176,495,0H382L517,451c0,0,22,73,22,97c0,0,0,20,-8,30c0,0,-9,10,-21,10c0,0,-25,0,-53,-18c0,0,-46,-29,-118,-125c0,0,-72,-95,-112,-182c0,0,-19,-41,-91,-263H26L165,483l17,63c0,0,6,14,6,21c0,0,0,17,-15,30c0,0,-15,13,-38,13c0,0,-10,0,-54,-9l-7,27l256,47L234,338c0,0,67,119,113,178c0,0,73,93,141,135c0,0,41,24,85,24c0,0,38,0,63,-25c0,0,25,-24,25,-62c0,0,0,-36,-18,-95L587,305c0,0,129,227,244,319c0,0,64,51,126,51c0,0,36,0,60,-26c0,0,23,-25,23,-78c0,0,0,-43,-15,-91L933,192c0,0,-31,-94,-31,-104c0,0,0,-10,6,-17c0,0,4,-5,11,-5c0,0,7,0,23,13c0,0,38,33,71,87l24,-16c0,0,-17,-30,-62,-81C975,69,929,18,898,0c0,0,-32,-17,-59,-17Z" 
id="f1_29"
transform="scale(0.001,-0.001)" />

<path d="M371,-21c0,0,-59,0,-98,52c0,0,-40,53,-40,190c0,0,0,108,27,353H190c0,0,-61,0,-95,-22c0,0,-34,-22,-68,-84H0c0,0,53,144,96,180c0,0,42,35,121,35H574V574H341c0,0,-25,-245,-25,-336c0,0,0,-72,27,-105c0,0,28,-32,69,-32c0,0,30,0,52,20c0,0,23,21,33,72h27C524,193,511,71,469,24c0,0,-42,-45,-98,-45Z" 
id="f3_2g"
transform="scale(0.001,-0.001)" />

<path d="M52,62L0,114L278,390L0,667l52,52L330,442L608,719l51,-51L382,390L659,114L608,62L330,338L52,62Z" 
id="f2_3a"
transform="scale(0.001,-0.001)" />

<path d="M33,0V27c0,0,264,241,371,393c0,0,108,152,108,278c0,0,0,96,-59,158c0,0,-59,62,-141,62c0,0,-75,0,-134,-43c0,0,-59,-44,-88,-128H63c0,0,18,138,95,212c0,0,77,74,193,74c0,0,123,0,205,-80c0,0,83,-79,83,-186c0,0,0,-77,-36,-154c0,0,-55,-121,-179,-256C424,357,238,154,191,112H455c0,0,81,0,114,6c0,0,32,6,58,25c0,0,27,18,46,52h27L630,0Z" 
id="f0_m"
transform="scale(0.001,-0.001)" />

<path d="M394,23c0,0,80,0,129,45c0,0,48,45,48,110c0,0,0,54,-28,97c0,0,-53,79,-214,206c0,0,-62,-52,-92,-114c0,0,-30,-61,-30,-133c0,0,0,-96,53,-154c0,0,52,-57,134,-57Zm17,566c0,0,90,81,114,128c0,0,24,46,24,105c0,0,0,79,-44,123c0,0,-44,45,-121,45c0,0,-76,0,-124,-45c0,0,-48,-44,-48,-103c0,0,0,-38,20,-77c0,0,20,-39,56,-74L411,589ZM382,-17c0,0,-144,0,-225,90c0,0,-64,72,-64,158c0,0,0,67,45,133c0,0,45,66,156,146c0,0,-121,98,-156,158c0,0,-34,59,-34,124c0,0,0,98,76,169c0,0,76,72,202,72c0,0,123,0,198,-67c0,0,74,-66,74,-151c0,0,0,-57,-40,-116c0,0,-40,-59,-168,-139c0,0,132,-101,174,-159c0,0,57,-76,57,-161c0,0,0,-106,-82,-182c0,0,-81,-75,-213,-75Z" 
id="f0_s"
transform="scale(0.001,-0.001)" />

<path d="M0,-302V1034H328V970H119V-238H328v-64Z" 
id="f2_1r"
transform="scale(0.001,-0.001)" />

<path d="M56,-302v64H265V970H56v64H384V-302Z" 
id="f2_1t"
transform="scale(0.001,-0.001)" />

<path d="M379,437c0,0,34,0,81,16c0,0,47,17,83,47c0,0,14,97,14,155c0,0,0,72,-25,156c0,0,-25,83,-70,128c0,0,-45,45,-103,45c0,0,-66,0,-116,-60c0,0,-50,-59,-50,-177c0,0,0,-157,66,-246c0,0,49,-64,120,-64ZM80,-20V7c0,0,97,1,181,45c0,0,83,44,161,153c0,0,78,109,109,240c0,0,-117,-75,-212,-75c0,0,-107,0,-183,82c0,0,-76,82,-76,219c0,0,0,132,76,236c0,0,92,126,240,126c0,0,124,0,213,-103c0,0,109,-128,109,-315c0,0,0,-169,-82,-314C616,301,533,155,385,59c0,0,-120,-79,-262,-79Z" 
id="f0_t"
transform="scale(0.001,-0.001)" />

<path d="M252,70c0,0,90,0,212,168c0,0,123,168,123,294c0,0,0,47,-30,76c0,0,-30,30,-77,30c0,0,-103,0,-214,-156C266,482,155,327,155,185c0,0,0,-56,28,-85c0,0,29,-30,69,-30ZM185,-17c0,0,-63,0,-109,50C76,33,29,83,29,169c0,0,0,111,77,237c0,0,77,126,203,205c0,0,99,64,182,64c0,0,44,0,75,-17c0,0,32,-16,62,-54l71,247c0,0,11,40,18,64c0,0,9,31,9,50c0,0,0,16,-11,27c0,0,-16,13,-40,13c0,0,-17,0,-57,-6v27l255,42L615,170c0,0,-21,-73,-21,-95c0,0,0,-7,4,-13c0,0,4,-6,8,-6c0,0,7,0,16,9c0,0,16,16,56,88l25,-16c0,0,-43,-73,-88,-114c0,0,-44,-40,-83,-40c0,0,-20,0,-35,17c0,0,-16,18,-16,51c0,0,0,42,22,114l29,94C532,259,413,91,315,27c0,0,-68,-44,-130,-44Z" 
id="f1_20"
transform="scale(0.001,-0.001)" />

<path d="M207,-17c0,0,-5,318,-32,502c0,0,-11,76,-37,100c0,0,-19,17,-57,17c0,0,-21,0,-55,-4v27l214,50c0,0,45,-125,59,-383c0,0,4,-97,7,-123L613,675h27L692,116c0,0,130,152,207,285c0,0,46,78,47,113c0,0,-1,17,-9,30c0,0,-3,6,-23,19c0,0,-20,13,-28,27c0,0,-8,14,-8,30c0,0,0,23,17,39c0,0,17,16,44,16c0,0,30,0,51,-23c0,0,21,-23,21,-61c0,0,0,-39,-11,-72c0,0,-23,-64,-87,-166c0,0,-79,-121,-163,-225C750,128,666,24,625,-17H597L549,499L240,-17Z" 
id="f1_2j"
transform="scale(0.001,-0.001)" />

<path d="M83,308c0,0,-35,0,-59,24c0,0,-24,24,-24,59c0,0,0,34,24,58c0,0,24,24,59,24c0,0,33,0,58,-24c0,0,24,-24,24,-58c0,0,0,-35,-24,-59c0,0,-25,-24,-58,-24Z" 
id="f2_49"
transform="scale(0.001,-0.001)" />

<path d="M0,356v74H784V356Z" 
id="f2_h"
transform="scale(0.001,-0.001)" />

<path d="M88,-163c0,0,-39,0,-63,25c0,0,-25,26,-25,65c0,0,0,34,19,54c0,0,19,19,48,19c0,0,30,0,51,-23c0,0,22,-24,37,-24c0,0,12,0,21,11c0,0,8,10,8,35c0,0,0,30,-7,88c0,0,-27,235,-27,620c0,0,13,411,17,446c0,0,17,139,60,188c0,0,43,48,98,48c0,0,37,0,65,-25c0,0,28,-25,28,-54c0,0,0,-35,-19,-57c0,0,-20,-21,-49,-21c0,0,-26,0,-57,27c0,0,-17,15,-30,15c0,0,-12,0,-21,-11c0,0,-8,-11,-8,-37c0,0,0,-31,6,-108c0,0,28,-306,28,-496c0,0,0,-50,-12,-439c0,0,-6,-219,-67,-296c0,0,-41,-50,-101,-50Z" 
id="f2_50"
transform="scale(0.001,-0.001)" />

<path d="M0,-123V1415H525v-72H72V-123Z" 
id="f2_4r"
transform="scale(0.001,-0.001)" />

<path d="M478,-123V1343H26v72H550V-123Z" 
id="f2_57"
transform="scale(0.001,-0.001)" />

<path d="M0,-123V1415H72V-123Z" 
id="f2_4s"
transform="scale(0.001,-0.001)" />

<path d="M0,-123V1415H72V-123Z" 
id="f2_58"
transform="scale(0.001,-0.001)" />

<path d="M0,-123V1415H72V-51H525v-72Z" 
id="f2_4t"
transform="scale(0.001,-0.001)" />

<path d="M26,-123v72H478V1415h72V-123Z" 
id="f2_59"
transform="scale(0.001,-0.001)" />

<path d="M413,-106l30,80H0V27H443l-30,80L626,0L413,-106Z" 
id="f4_20"
transform="scale(0.001,-0.001)" />

<path d="M0,-26V27H626V-26Z" 
id="f4_23"
transform="scale(0.001,-0.001)" />

<path d="M0,214v74H784V214ZM0,494v72H784V494Z" 
id="f5_x"
transform="scale(0.001,-0.001)" />

<path d="M52,62L0,114L278,390L0,667l52,52L330,442L608,719l51,-51L382,390L659,114L608,62L330,338L52,62Z" 
id="f5_3a"
transform="scale(0.001,-0.001)" />

<path d="M230,639c0,0,69,0,118,48c0,0,48,49,48,118c0,0,0,69,-48,118c0,0,-49,49,-118,49c0,0,-69,0,-118,-49c0,0,-48,-49,-48,-118c0,0,0,-69,48,-118c0,0,49,-48,118,-48Zm1,-64c0,0,-96,0,-163,67C68,642,1,709,1,804c0,0,0,95,67,162c0,0,67,68,163,68c0,0,94,0,161,-68c0,0,68,-67,68,-162c0,0,0,-95,-68,-162c0,0,-67,-67,-161,-67Z" 
id="f5_36"
transform="scale(0.001,-0.001)" />

<path d="M17,215v84H820V215Zm0,297v84H820V512Z" 
id="f6_2"
transform="scale(0.001,-0.001)" />

<path d="M423,92c0,0,97,0,159,62c0,0,62,62,62,157c0,0,0,97,-64,160c0,0,-64,64,-161,64c0,0,-96,0,-158,-63c0,0,-62,-62,-62,-156c0,0,0,-58,27,-111c0,0,27,-54,81,-84c0,0,54,-29,116,-29Zm0,552c0,0,78,0,127,49c0,0,49,49,49,120c0,0,0,74,-50,124c0,0,-51,51,-128,51c0,0,-77,0,-127,-50c0,0,-51,-49,-51,-118c0,0,0,-77,50,-126c0,0,50,-50,130,-50ZM422,-18c0,0,-162,0,-261,95c0,0,-99,96,-99,239c0,0,0,107,54,179c0,0,54,72,154,98c0,0,-84,31,-124,87c0,0,-40,57,-40,136c0,0,0,119,85,201c0,0,86,81,229,81c0,0,143,0,230,-83c0,0,87,-83,87,-203c0,0,0,-76,-40,-132c0,0,-39,-56,-121,-87c0,0,101,-33,154,-106c0,0,52,-73,52,-174c0,0,0,-141,-99,-236c0,0,-99,-95,-261,-95Z" 
id="f7_s"
transform="scale(0.001,-0.001)" />


</defs>
</svg>